<?xml version="1.0" encoding="iso-8859-1"?>
<!-- Generator: Adobe Illustrator 15.1.0, SVG Export Plug-In . SVG Version: 6.00 Build 0)  -->
<!DOCTYPE svg PUBLIC "-//W3C//DTD SVG 1.1//EN" "http://www.w3.org/Graphics/SVG/1.1/DTD/svg11.dtd">
<svg version="1.1" id="FlashAICB" xmlns="http://www.w3.org/2000/svg" xmlns:xlink="http://www.w3.org/1999/xlink" x="0px" y="0px"
	 width="472.3px" height="61.95px" viewBox="0 0 472.3 61.95" style="enable-background:new 0 0 472.3 61.95;" xml:space="preserve"
	>
<symbol  id="FlashAICB_x2F_Layer_23_x2F__x3C_Path_x3E__x5F_76" viewBox="0 -49.7 472.3 49.7">
	<g id="Layer_1_2_">
		
			<radialGradient id="SVGID_1_" cx="-8211.9424" cy="-198.5542" r="187.7921" gradientTransform="matrix(0.9998 -0.0212 -0.1478 -0.1365 8403.8115 -233.9658)" gradientUnits="userSpaceOnUse">
			<stop  offset="0" style="stop-color:#000000;stop-opacity:0.4275"/>
			<stop  offset="1" style="stop-color:#000000;stop-opacity:0"/>
		</radialGradient>
		<path style="fill-rule:evenodd;clip-rule:evenodd;fill:url(#SVGID_1_);" d="M453.75-17.95c12.367-3.633,18.55-7.45,18.55-11.45
			c0-3.6-5.15-7.083-15.45-10.45c-10-3.233-24.2-6.167-42.6-8.8l-6.85,0.9c-8.8,1.267-14.05,1.967-15.75,2.1
			c-2.633,0.233-5.983,0.333-10.05,0.3c-4.5-0.1-7.85-0.133-10.05-0.1c-17.466,0.133-30.566,0.217-39.3,0.25
			c-15.267,0.1-28.367,0.1-39.3,0c-5.2,0.567-11.167,0.934-17.9,1.1c-3.267,0.067-9.267,0.1-18,0.1
			c-16.333,0.967-28.583,1.617-36.75,1.95c-14.033,0.6-26.316,0.65-36.85,0.15c-2.767-0.133-4.934-0.817-6.5-2.05
			c-1.4-1.133-2.067-2.483-2-4.05c-5,0.1-9.467,0.267-13.4,0.5c-3.633,0.2-12,0.583-25.1,1.15c-4.3,0.733-9.45,1.283-15.45,1.65
			c-6.967,0.3-12.167,0.534-15.6,0.7c-1.833,0.1-3.45-0.183-4.85-0.85c-1.3-0.6-2.283-1.45-2.95-2.55
			c-10.633,0.6-18.617,1.033-23.95,1.3c-1.7,0.1-3.3-0.2-4.8-0.9c-1.4-0.667-2.467-1.567-3.2-2.7C44.917-47,28.9-43.933,17.6-40.5
			C5.867-36.967,0-33.267,0-29.4c0,4,6.183,7.816,18.55,11.45c11.967,3.5,28.85,6.617,50.65,9.35C115.3-2.867,170.95,0,236.15,0
			c65.2,0,120.867-2.867,167-8.6C424.95-11.333,441.817-14.45,453.75-17.95z"/>
	</g>
</symbol>
<use xlink:href="#FlashAICB_x2F_Layer_23_x2F__x3C_Path_x3E__x5F_76"  width="472.3" height="49.7" y="-49.7" transform="matrix(1 0 0 -1 0 0)" style="overflow:visible;opacity:0.4609;enable-background:new    ;"/>
<path style="fill-rule:evenodd;clip-rule:evenodd;fill:#68391B;" d="M412.05,36.9c2.601,1.433,5.084,3.183,7.45,5.25
	c1.167,1.033,2.083,1.916,2.75,2.649c-14.566,1.566-26.217,2.617-34.95,3.15c-7.3,0.434-11.2,0.666-11.7,0.7
	c-1.466,0.066-3.899,0.1-7.3,0.1c-2.7,0-5.816-1.05-9.35-3.15c-3.5-2.133-5.717-3.199-6.65-3.199c-1.2,0-3.149-0.117-5.85-0.351
	c-2.667-0.267-4.617-0.399-5.851-0.399c-6.3,0-11.633,0.25-16,0.75c-1.899,0.233-4.583,1.433-8.05,3.6
	c-3.366,2.066-6.767,3.25-10.2,3.55c-1.066,0.101-3.366,0.533-6.899,1.3c-1.467,0.301-5.2,0.167-11.2-0.399
	c-5.733-0.566-12.583,0.184-20.55,2.25c-9.434,2.434-15.75,3.75-18.95,3.95c-2.533,0.133-7.384,0.3-14.55,0.5
	c-5,0.1-10.6,0.449-16.8,1.05c-5.467,0.533-8.816,1.267-10.05,2.2c-0.934,0.666-3.4,1-7.4,1c-5.8,0-11.65-0.167-17.55-0.5
	c-5.167-0.301-9.717-0.684-13.65-1.15c-3.133-0.134-5.417-0.267-6.85-0.4c-2.367-0.199-6.683-1.1-12.95-2.699
	c-6.267-1.634-10.034-2.367-11.3-2.2c-1.467,0.666-3.783,1.133-6.95,1.399c-3.133,0.267-4.65,0.317-4.55,0.15
	c0.367-0.5-0.783-0.95-3.45-1.35c-2.667-0.367-5.317-0.351-7.95,0.05c-2.967,0.5-6.15,0.616-9.55,0.35
	c-3.934-0.3-6.55-0.85-7.85-1.649c-1.9-1.233-3.417-2-4.55-2.301c-4.9-1.3-10.483-3.399-16.75-6.3c-1.5-0.7-4.983-1.649-10.45-2.85
	c-5.3-1.167-9.1-2.334-11.4-3.5c-2.434-1.233-2.633-2.134-0.6-2.7c2.833-0.833,4.267-1.55,4.3-2.15c0.033-1.1,2.267-2.166,6.7-3.2
	c3.967-0.933,7.3-1.4,10-1.4c1.4,0,3.4-0.15,6-0.45c3.233-0.367,6.383-0.633,9.45-0.8c2.3-0.1,8.583-1.95,18.85-5.55
	c10.3-3.6,18.6-5.55,24.9-5.85c5.5-0.267,10.35-0.633,14.55-1.1c2.967-0.333,6.316-0.5,10.05-0.5c1.333,0,6.117-0.15,14.35-0.45
	c4.733-0.167,8.217-0.017,10.45,0.45c2.7,0.6,4.833,0.417,6.4-0.55c1.9-1.2,3.65-1.8,5.25-1.8c1.233,0,5.3,0.367,12.2,1.1
	c6.067,0.633,10.5,0.8,13.3,0.5c2.333-0.267,8.55-0.133,18.65,0.4c10.9,0.567,18.684,0.733,23.35,0.5
	c5.134-0.233,11.15,0.75,18.051,2.95c7.666,2.433,12.633,3.717,14.899,3.85c3.101,0.2,7.967,0.35,14.601,0.45
	c7.533,0.067,13.883,0.233,19.05,0.5c5.733,0.3,10.783,0.8,15.149,1.5c3.7,0.6,6.184,0.9,7.45,0.9c1.834,0,6.684,0.633,14.55,1.9
	c8,1.333,12.634,2.017,13.9,2.05c2.7,0.1,7.8,1,15.3,2.7C403.7,33.6,409.283,35.333,412.05,36.9z"/>
<radialGradient id="SVGID_2_" cx="237.2305" cy="30.8999" r="152.2958" gradientTransform="matrix(1 0 0 -0.1103 0 34.3075)" gradientUnits="userSpaceOnUse">
	<stop  offset="0" style="stop-color:#5D3319"/>
	<stop  offset="1" style="stop-color:#683B20"/>
</radialGradient>
<path style="fill-rule:evenodd;clip-rule:evenodd;fill:url(#SVGID_2_);" d="M412.05,36.9c2.601,1.433,5.084,3.183,7.45,5.25
	c1.167,1.033,2.083,1.916,2.75,2.649c-14.566,1.566-26.217,2.617-34.95,3.15c-7.3,0.434-11.2,0.666-11.7,0.7
	c-1.466,0.066-3.899,0.1-7.3,0.1c-2.7,0-5.816-1.05-9.35-3.15c-3.5-2.133-5.717-3.199-6.65-3.199c-1.2,0-3.149-0.117-5.85-0.351
	c-2.667-0.267-4.617-0.399-5.851-0.399c-6.3,0-11.633,0.25-16,0.75c-1.899,0.233-4.583,1.433-8.05,3.6
	c-3.366,2.066-6.767,3.25-10.2,3.55c-1.066,0.101-3.366,0.533-6.899,1.3c-1.467,0.301-5.2,0.167-11.2-0.399
	c-5.733-0.566-12.583,0.184-20.55,2.25c-9.434,2.434-15.75,3.75-18.95,3.95c-2.533,0.133-7.384,0.3-14.55,0.5
	c-5,0.1-10.6,0.449-16.8,1.05c-5.467,0.533-8.816,1.267-10.05,2.2c-0.934,0.666-3.4,1-7.4,1c-5.8,0-11.65-0.167-17.55-0.5
	c-5.167-0.301-9.717-0.684-13.65-1.15c-3.133-0.134-5.417-0.267-6.85-0.4c-2.367-0.199-6.683-1.1-12.95-2.699
	c-6.267-1.634-10.034-2.367-11.3-2.2c-1.467,0.666-3.783,1.133-6.95,1.399c-3.133,0.267-4.65,0.317-4.55,0.15
	c0.367-0.5-0.783-0.95-3.45-1.35c-2.667-0.367-5.317-0.351-7.95,0.05c-2.967,0.5-6.15,0.616-9.55,0.35
	c-3.934-0.3-6.55-0.85-7.85-1.649c-1.9-1.233-3.417-2-4.55-2.301c-4.9-1.3-10.483-3.399-16.75-6.3c-1.5-0.7-4.983-1.649-10.45-2.85
	c-5.3-1.167-9.1-2.334-11.4-3.5c-2.434-1.233-2.633-2.134-0.6-2.7c2.833-0.833,4.267-1.55,4.3-2.15c0.033-1.1,2.267-2.166,6.7-3.2
	c3.967-0.933,7.3-1.4,10-1.4c1.4,0,3.4-0.15,6-0.45c3.233-0.367,6.383-0.633,9.45-0.8c2.3-0.1,8.583-1.95,18.85-5.55
	c10.3-3.6,18.6-5.55,24.9-5.85c5.5-0.267,10.35-0.633,14.55-1.1c2.967-0.333,6.316-0.5,10.05-0.5c1.333,0,6.117-0.15,14.35-0.45
	c4.733-0.167,8.217-0.017,10.45,0.45c2.7,0.6,4.833,0.417,6.4-0.55c1.9-1.2,3.65-1.8,5.25-1.8c1.233,0,5.3,0.367,12.2,1.1
	c6.067,0.633,10.5,0.8,13.3,0.5c2.333-0.267,8.55-0.133,18.65,0.4c10.9,0.567,18.684,0.733,23.35,0.5
	c5.134-0.233,11.15,0.75,18.051,2.95c7.666,2.433,12.633,3.717,14.899,3.85c3.101,0.2,7.967,0.35,14.601,0.45
	c7.533,0.067,13.883,0.233,19.05,0.5c5.733,0.3,10.783,0.8,15.149,1.5c3.7,0.6,6.184,0.9,7.45,0.9c1.834,0,6.684,0.633,14.55,1.9
	c8,1.333,12.634,2.017,13.9,2.05c2.7,0.1,7.8,1,15.3,2.7C403.7,33.6,409.283,35.333,412.05,36.9z"/>
<path style="fill-rule:evenodd;clip-rule:evenodd;fill:#5B3318;" d="M406.7,39.5c0.333-0.333,0.649-0.816,0.95-1.45
	c0.3-0.399,0.8-0.434,1.5-0.1c0.566,0.267,1.333,0.666,2.3,1.2c0.7,0.267,1.149,0.133,1.35-0.4c0.101-0.3,0.117-0.767,0.05-1.4
	c2.367,1.434,4.65,3.101,6.851,5c1.1,0.967,1.95,1.784,2.55,2.45c-14.566,1.566-26.217,2.617-34.95,3.15
	c-7.3,0.434-11.2,0.666-11.7,0.7c-1.466,0.066-3.899,0.1-7.3,0.1c-2.7,0-5.816-1.05-9.35-3.15c-3.5-2.133-5.717-3.199-6.65-3.199
	c-1.2,0-3.149-0.117-5.85-0.351c-2.667-0.267-4.617-0.399-5.851-0.399c-6.3,0-11.633,0.25-16,0.75
	c-1.899,0.233-4.583,1.433-8.05,3.6c-3.366,2.066-6.767,3.25-10.2,3.55c-1.066,0.101-3.366,0.533-6.899,1.3
	c-1.467,0.301-5.2,0.167-11.2-0.399c-5.733-0.566-12.583,0.184-20.55,2.25c-9.434,2.434-15.75,3.75-18.95,3.95
	c-2.533,0.133-7.384,0.3-14.55,0.5c-5,0.1-10.6,0.449-16.8,1.05c-5.467,0.533-8.816,1.267-10.05,2.2c-0.934,0.666-3.4,1-7.4,1
	c-5.8,0-11.65-0.167-17.55-0.5c-5.167-0.301-9.717-0.684-13.65-1.15c-3.133-0.134-5.417-0.267-6.85-0.4
	c-2.367-0.199-6.683-1.1-12.95-2.699c-6.267-1.634-10.034-2.367-11.3-2.2c-1.467,0.666-3.783,1.133-6.95,1.399
	c-3.133,0.267-4.65,0.317-4.55,0.15c0.367-0.5-0.783-0.95-3.45-1.35c-2.667-0.367-5.317-0.351-7.95,0.05
	c-2.967,0.5-6.15,0.616-9.55,0.35c-3.934-0.3-6.55-0.85-7.85-1.649c-1.9-1.233-3.417-2-4.55-2.301c-4.9-1.3-10.483-3.399-16.75-6.3
	c-1.533-0.733-4.783-1.633-9.75-2.7c-5.1-1.1-8.767-2.133-11-3.1l6.85-0.05c1.967,0,3.283,0.1,3.95,0.3c1.5,0.5,3.35,0.934,5.55,1.3
	c0.5,0.101,0.967,0.15,1.4,0.15c0.467,0,0.983,0.05,1.55,0.149c0.566,0.101,0.917,0.134,1.05,0.101c0.1,0.066,0.633,0.383,1.6,0.95
	c0.833,0.433,1.617,0.866,2.35,1.3c0.433,0.233,0.95,0.416,1.55,0.55c1.4,0.233,2.7,0.583,3.9,1.05L95,48.45
	c0.567,0.233,2.083,1.033,4.55,2.399c1.867,1.034,3.267,1.551,4.2,1.551h3.65c0.8,0,1.5,0.033,2.1,0.1c0.467,0,1.3-0.116,2.5-0.35
	c0.633-0.101,1.383-0.301,2.25-0.601c0.433-0.133,1.3-0.2,2.6-0.2c0.7,0,1.967-0.033,3.8-0.1c0.967-0.033,1.733,0,2.3,0.1
	c0.5,0.101,0.933,0.284,1.3,0.551c0.467,0.133,1.4,0.05,2.8-0.25c0.934-0.2,1.55-0.601,1.85-1.2c0.233-0.434,1.333-0.65,3.3-0.65
	c1.7,0,3.45-0.083,5.25-0.25c1.233-0.1,2.316-0.1,3.25,0c1.033,0.101,1.683,0.117,1.95,0.05c0.867-0.166,1.583-0.283,2.15-0.35
	c0.534-0.033,0.983-0.217,1.35-0.55c0.2-0.167,1.617-0.15,4.25,0.05c2.434,0.167,4.867,0.4,7.3,0.7c1.833,0.233,3.05,0.35,3.65,0.35
	c1.3,0,6.65-0.184,16.05-0.55c0.733,0,2.017,0.033,3.85,0.1c1.6-0.1,2.65-0.483,3.15-1.149c0.434-0.5,0.35-0.884-0.25-1.15
	c-0.2-0.1,0.3-0.233,1.5-0.399c2.434-0.367,4.533-0.551,6.3-0.551l0.7,0.101c0.7,0.033,1.6,0,2.7-0.101
	c0.566-0.066,1.367-0.183,2.4-0.35c0.6-0.1,1.5-0.15,2.7-0.15c1.2,0,1.917,0.101,2.15,0.301c0.4,0.366,0.816,0.616,1.25,0.75
	c1.3,0.333,2.683,0.5,4.15,0.5l4.1,1.35c3.1,0.967,5.6,1.667,7.5,2.1c1.2,0.267,1.967,0.567,2.3,0.9c0.1,0.1,1.367,0.15,3.8,0.15
	c2.2,0,3.983,0.05,5.35,0.149c0.833,0.033,2.367-0.116,4.6-0.45c2.133-0.267,4.017-0.3,5.65-0.1c2.867,0.366,5.117,0.583,6.75,0.65
	c2.367,0.1,3.983,0.199,4.851,0.3c0.233,0,1.366-0.101,3.399-0.3c1.733-0.2,2.816-0.517,3.25-0.95c0.634-0.7,1.9-1.351,3.8-1.95
	c1.667-0.533,2.801-1.116,3.4-1.75c0.3-0.3,1.684-0.5,4.15-0.6c2.233-0.101,5.75-0.95,10.55-2.551
	c4.434-1.466,7.467-2.116,9.1-1.949c1.634,0.199,3.283,0.449,4.95,0.75c1.066,0.166,2.1,0.1,3.1-0.2
	c0.5-0.167,0.65-0.367,0.45-0.601c-0.3-0.267-0.483-0.449-0.55-0.55c-0.267-0.434,1.467-0.767,5.2-1c2.767-0.133,6.2-0.25,10.3-0.35
	c2.733-0.101,4.884-0.233,6.45-0.4c1.399-0.166,2.267-0.383,2.6-0.649c0.233-0.167,1.15-0.301,2.75-0.4
	c1.033-0.066,1.601-0.283,1.7-0.65c0.1-0.267,2.134-0.399,6.1-0.399c2.801,0,6.2-0.033,10.2-0.101c1.934-0.033,3.384,0,4.351,0.101
	c1.8,0.166,3.5,0.333,5.1,0.5c1.066,0.1,2.566,0.2,4.5,0.3c1.533,0.167,2.717,0.417,3.55,0.75c0.767,0.333,1.483,0.583,2.15,0.75
	c0.366,0.134,1.017,0.316,1.95,0.55c0.566,0.2,0.916,0.351,1.05,0.45c0.467,0.066,2.95,0.283,7.45,0.65
	c1.533,0.1,4.283,0.416,8.25,0.949c1,0.101,2.55-0.05,4.649-0.449c1.8-0.334,3.65-0.634,5.55-0.9c1-0.2,1.5-0.517,1.5-0.95
	s-0.166-0.866-0.5-1.3l-0.5-0.55c2.834,0,4.767,0.066,5.801,0.2c0.6,0.066,1.183,0.183,1.75,0.35c0.399,0.1,1.483,0.35,3.25,0.75
	C405.283,40.017,406.3,39.934,406.7,39.5z"/>
<g>
	<path style="fill-rule:evenodd;clip-rule:evenodd;fill:#4B2A18;" d="M406.25,44c1.634,0,2.75,0.134,3.35,0.4
		c0.2,0.1,0.7-0.034,1.5-0.4c0.801-0.333,1.384-0.634,1.75-0.9c0.167-0.033,0.884,0,2.15,0.101c0.967,0.1,1.6,0.166,1.9,0.2
		c0.1,0.033,0.433,0.05,1,0.05c0.566,0,0.883,0.1,0.949,0.3c0.034,0.066,0.284-0.033,0.75-0.3c0.301-0.134,0.667-0.217,1.101-0.25
		c0.666,0.633,1.184,1.166,1.55,1.6c-14.566,1.566-26.217,2.617-34.95,3.15c-7.3,0.434-11.2,0.666-11.7,0.7
		c-1.466,0.066-3.899,0.1-7.3,0.1c-2.7,0-5.816-1.05-9.35-3.15c-3.5-2.133-5.717-3.199-6.65-3.199c-1.2,0-3.149-0.117-5.85-0.351
		c-2.667-0.267-4.617-0.399-5.851-0.399c-6.3,0-11.633,0.25-16,0.75c-1.899,0.233-4.583,1.433-8.05,3.6
		c-3.366,2.066-6.767,3.25-10.2,3.55c-1.066,0.101-3.366,0.533-6.899,1.3c-1.467,0.301-5.2,0.167-11.2-0.399
		c-5.733-0.566-12.583,0.184-20.55,2.25c-9.434,2.434-15.75,3.75-18.95,3.95c-2.533,0.133-7.384,0.3-14.55,0.5
		c-5,0.1-10.6,0.449-16.8,1.05c-5.467,0.533-8.816,1.267-10.05,2.2c-0.934,0.666-3.4,1-7.4,1c-5.8,0-11.65-0.167-17.55-0.5
		c-5.167-0.301-9.717-0.684-13.65-1.15c-1.267-0.134-2.467-0.217-3.6-0.25c-1.1-0.033-1.933-0.066-2.5-0.1
		c0.133,0,0.267-0.051,0.4-0.15c0.667-0.233,0.867-0.283,0.6-0.15l1.35-0.6c1.233-0.566,2.15-0.917,2.75-1.05
		c0.4-0.101,1.017-0.2,1.85-0.3l1.7-0.25l1.65-1.301c1.333-0.899,2.566-1.35,3.7-1.35c0.967,0,3.4,0.616,7.3,1.85
		c3.867,1.233,6.05,1.851,6.55,1.851c0.567,0,0.883,0.133,0.95,0.399c0.033,0.101,0.283-0.033,0.75-0.399
		c1.267-0.9,1.517-1.783,0.75-2.65c-0.2-0.2-0.217-0.467-0.05-0.8c0.133-0.333-0.05-0.717-0.55-1.15c-2.833-2.533-3.85-3.8-3.05-3.8
		c0.633,0,2.567,0.601,5.8,1.8c0.467,0.167,1.517,0.617,3.15,1.351c1.767,0.7,3.8,1.05,6.1,1.05c1.2,0,3.183,0.15,5.95,0.45
		c2.7,0.3,4.667,0.583,5.9,0.85c0.833,0.2,1.383,0.267,1.65,0.2c0.733-0.134,1.883-0.2,3.45-0.2c1.534,0,2.833-0.166,3.9-0.5
		c1.066-0.366,2.6-0.55,4.6-0.55c2.333,0,4.184,0.05,5.55,0.15c1.4,0.066,2.15,0.1,2.25,0.1h0.45l1.95,0.3
		c0.233,0.033,0.983,0.217,2.25,0.55c0.333,0.067,1.934,0.051,4.8-0.05c3.066-0.1,5.334-0.25,6.8-0.45
		c1-0.133,2.95-0.416,5.851-0.85c2.233-0.3,5.149-1.217,8.75-2.75c3.6-1.533,5.95-2.384,7.05-2.55l9.5-1.3
		c1.134-0.167,1.55-0.284,1.25-0.351l2.15-0.149c1.533-0.101,2.383-0.25,2.55-0.45c0.066-0.066,0.75-0.017,2.05,0.149
		c1.434,0.2,3.184,0.284,5.25,0.25c2.267-0.033,3.833-0.017,4.7,0.051c1.066,0.1,1.733,0.033,2-0.2
		c0.333-0.334,1.05-0.533,2.149-0.601l3.4-0.25c1.033-0.066,2.65-0.666,4.85-1.8c2.301-1.166,4.65-1.883,7.051-2.149
		c1.767-0.2,3.683-0.601,5.75-1.2c1.433-0.434,3.399-0.65,5.899-0.65c2.066,0,3.617-0.066,4.65-0.2c0.467-0.066,1.6,0,3.399,0.2
		c1.534,0.167,2.983,0.351,4.351,0.55c0.733,0.134,1.633,0.2,2.7,0.2c1.6,0,3.199,0.15,4.8,0.45c1.8,0.333,3.267,0.8,4.399,1.4
		c0.834,0.466,1.717,1.033,2.65,1.699c0.833,0.467,1.9,0.7,3.2,0.7c1,0,1.783-0.083,2.35-0.25c0.566-0.2,1.483-0.3,2.75-0.3
		s2.217,0.05,2.851,0.15c0.6,0.066,1.35,0.1,2.25,0.1c1.3,0,2.517,0.066,3.649,0.2c0.4,0.066,1.7,0.267,3.9,0.6
		c0.233,0.033,1.233,0.233,3,0.601c0.633,0.133,1.333,0.199,2.1,0.199c0.4,0,0.717-0.033,0.95-0.1c0.233-0.1,1.283-0.15,3.15-0.15
		c1.633,0,2.933,0.2,3.899,0.601c0.334,0.133,0.667-0.066,1-0.601c0.101-0.199,0.233-0.75,0.4-1.649c0.066-0.3,0.566-0.45,1.5-0.45
		h3.649l0.851,0.15C403.017,43.967,404.283,44,406.25,44z"/>
	<path style="fill-rule:evenodd;clip-rule:evenodd;fill:#4B2A18;" d="M82.6,45.85c0.733,0.167,1.867,0.483,3.4,0.95
		c1.2,0.4,2.017,0.601,2.45,0.601c0.7,0,1.167,0.017,1.4,0.05c0.4,0.066,0.816,0.233,1.25,0.5c0.333,0.166,0.9,0.333,1.7,0.5
		c0.7,0.2,1.184,0.566,1.45,1.1c0.5,0.867,0.917,1.65,1.25,2.351c0.167,0.3,1.85,1.166,5.05,2.6c-1.533-0.3-2.8-0.816-3.8-1.55
		c-1.133-0.834-2.45-1.45-3.95-1.851c-4.9-1.3-10.483-3.399-16.75-6.3c-1.2-0.566-2.933-1.116-5.2-1.649
		c-2.8-0.634-4.934-1.117-6.4-1.45c0.5-0.033,0.8-0.15,0.9-0.351c0.167-0.267,0.033-0.5-0.4-0.699
		c-0.133-0.067,0.167-0.101,0.9-0.101c1.066,0,1.75,0.033,2.05,0.101c0.233,0.033,0.917,0.267,2.05,0.699
		c1.466,0.534,2.533,0.801,3.2,0.801c0.6,0.166,1.2,0.416,1.8,0.75c0.4,0.199,0.767,0.3,1.1,0.3c0.467,0,0.8,0.033,1,0.1
		c0.2,0.066,0.667,0.3,1.4,0.7c0.5,0.267,1.083,0.6,1.75,1C80.8,45.333,81.6,45.616,82.6,45.85z"/>
	<path style="fill-rule:evenodd;clip-rule:evenodd;fill:#4B2A18;" d="M111.5,54.25c1.067-0.233,1.7-0.45,1.9-0.65
		c0.067-0.066,0.5-0.1,1.3-0.1h2.4c0.5,0,0.65,0.066,0.45,0.2c-0.033,0.033,0.3-0.033,1-0.2c0.733-0.167,1.083-0.333,1.05-0.5
		c-0.033-0.033,0.35-0.05,1.15-0.05c1.667,0,2.833,0.05,3.5,0.149c1.133,0.134,1.75,0.434,1.85,0.9l0.5,2.15
		c-0.333,0-0.5-0.034-0.5-0.101c0.1-0.1,0.15-0.2,0.15-0.3c0-0.366-1.183-0.733-3.55-1.1c-2.534-0.367-4.817-0.4-6.85-0.101
		c-2.967,0.4-5,0.617-6.1,0.65l0.3-0.15c0.5-0.267,0.534-0.399,0.1-0.399C110.017,54.65,110.467,54.517,111.5,54.25z"/>
	<path style="fill-rule:evenodd;clip-rule:evenodd;fill:#4B2A18;" d="M152.4,57.5l-3.45-0.85c-6.267-1.634-10.034-2.367-11.3-2.2
		c-1.467,0.666-3.783,1.133-6.95,1.399L128.65,56l0.15-0.15c0.4-0.533,0.85-1.116,1.35-1.75c0.333-0.399,0.767-0.6,1.3-0.6
		c0.4,0,0.6,0.167,0.6,0.5c0,0.1,0.2-0.066,0.6-0.5c0.434-0.434,0.55-0.833,0.35-1.2c-0.033-0.1,0.267-0.149,0.9-0.149h1.9
		l0.45-0.601c0.533-0.399,1.367-0.55,2.5-0.45c1.1,0.101,2,0.4,2.7,0.9c0.333,0.233,0.566,0.467,0.7,0.7l0.2,0.7
		c0.6,0.633,2.066,1.267,4.4,1.899C148.15,55.7,150.033,56.434,152.4,57.5z"/>
</g>
<g>
	<path style="fill-rule:evenodd;clip-rule:evenodd;fill:#4B2A18;" d="M340.4,24.3c-5.467-0.667-9.284-1.216-11.45-1.65
		c5.733,0.3,10.783,0.8,15.149,1.5c3.7,0.6,6.184,0.9,7.45,0.9c1.601,0,4.934,0.383,10,1.15c2.834,0.466,7.05,1.15,12.65,2.05
		c-8.334-1-13.384-1.55-15.15-1.65c-1.267-0.067-1.899-0.083-1.899-0.05c0,0.1-0.65,0.184-1.95,0.25
		c-1.533,0.067-2.767-0.066-3.7-0.4c-0.934-0.433-1.767-0.75-2.5-0.95C348.333,25.283,345.467,24.9,340.4,24.3z"/>
	<path style="fill-rule:evenodd;clip-rule:evenodd;fill:#4B2A18;" d="M304.7,22.05l-6.351,0.2c-1.267,0.1-2.183,0.117-2.75,0.05
		c-0.666-0.1-1.399-0.183-2.199-0.25c-1.167-0.066-1.95-0.15-2.351-0.25c-0.399-0.1-1.184-0.4-2.35-0.9
		c-0.767-0.333-1.8-0.633-3.101-0.9c-1.3-0.333-2.466-0.7-3.5-1.1c-1.199-0.467-3.649-1.1-7.35-1.9l-5.2-1.05
		c-9.467-0.267-16.217-0.4-20.25-0.4l-26.4-0.4c-1,0-1.75,0.05-2.25,0.15c-0.433,0.1-0.833,0.184-1.2,0.25
		c-0.4,0.067-0.767,0.1-1.1,0.1c-0.6-0.066-1.1-0.1-1.5-0.1h-2.35c-1.067,0-1.817-0.033-2.25-0.1c-0.033-0.034-1.083-0.333-3.15-0.9
		c-1.333-0.333-2.733-0.417-4.2-0.25c-2.6,0.3-4.967,0.45-7.1,0.45c-3,0-4.216,0.183-3.65,0.55c1.333,0.8,2,1.217,2,1.25
		c0,0.333-0.167,0.45-0.5,0.35c-1.066-0.3-2.3-0.483-3.7-0.55c-1.4-0.067-2.333-0.1-2.8-0.1c-0.133,0-0.533-0.033-1.2-0.1l-5.45-0.4
		c-0.9-0.1-1.45-0.15-1.65-0.15c-0.2-0.033-0.867-0.05-2-0.05c-3.9-0.133-8.1-0.2-12.6-0.2c-2.567,0-8.433,0.383-17.6,1.15
		c-9.833,0.8-15.316,1.217-16.45,1.25c-2.034,0.067-3.1,0.2-3.2,0.4c-0.133,0.3-0.417,0.483-0.85,0.55
		c-5.667,1.066-9.25,1.8-10.75,2.2l-1.55,0.35c-0.533,0.1-1.167,0.317-1.9,0.65c-0.6,0.267-0.883,0.367-0.85,0.3
		c0.167-0.133,0.033-0.184-0.4-0.15c-0.867,0.133-2.217,0.467-4.05,1c-1,0.3-2.733,1.167-5.2,2.6c-2.267,1.3-3.5,1.95-3.7,1.95
		c-0.167,0-0.583,0.15-1.25,0.45c-0.767,0.333-1.633,0.583-2.6,0.75c-1.066,0.167-1.667,0.25-1.8,0.25
		C93.667,29.017,92.933,29,91.9,29c-1.7,0-3.467,0.067-5.3,0.2c-3.1,0.367-5.85,0.683-8.25,0.95c-4.667,0.533-7.983,0.8-9.95,0.8
		c-1.833,0-3.233,0.483-4.2,1.45c-1.067,1.133-2.034,1.767-2.9,1.899c-1.1,0.2-1.466,0.316-1.1,0.351c1.1,0.1,1.833,0.316,2.2,0.649
		c0.367,0.334,0.45,0.483,0.25,0.45c-0.533-0.1-0.983-0.05-1.35,0.15c-0.1,0.066-0.667,0.283-1.7,0.649
		c-0.567,0.2-0.85,0.45-0.85,0.75s-0.183,1.084-0.55,2.351l-0.1,0.399c-1.434-0.467-2.733-1-3.9-1.6
		c-2.434-1.233-2.633-2.134-0.6-2.7c2.833-0.833,4.267-1.55,4.3-2.15c0.033-1.1,2.267-2.166,6.7-3.2c3.967-0.933,7.3-1.4,10-1.4
		c1.4,0,3.4-0.15,6-0.45c3.233-0.367,6.383-0.633,9.45-0.8c2.3-0.1,8.583-1.95,18.85-5.55c10.3-3.6,18.6-5.55,24.9-5.85
		c5.5-0.267,10.35-0.633,14.55-1.1c2.967-0.333,6.316-0.5,10.05-0.5c1.333,0,6.117-0.15,14.35-0.45
		c4.733-0.167,8.217-0.017,10.45,0.45c2.7,0.6,4.833,0.417,6.4-0.55c1.9-1.2,3.65-1.8,5.25-1.8c1.233,0,5.3,0.367,12.2,1.1
		c6.067,0.633,10.5,0.8,13.3,0.5c2.333-0.267,8.55-0.133,18.65,0.4c10.9,0.567,18.684,0.733,23.35,0.5
		c5.134-0.233,11.15,0.75,18.051,2.95c7.666,2.433,12.633,3.717,14.899,3.85C298.1,21.867,301.233,21.983,304.7,22.05z"/>
</g>
<path style="fill-rule:evenodd;clip-rule:evenodd;fill:#4B2A18;" d="M394.8,39.2c1.5,0.467,2.7,0.7,3.601,0.7
	c0.899,0,1.6,0.233,2.1,0.699c0.267,0.301,0.6,0.733,1,1.301c0.934,1,1.65,1.666,2.15,2l0.699,0.5l-4.05,1
	c-0.533,0.3-0.967,0.483-1.3,0.55c-0.566,0.166-1-0.017-1.3-0.55c-0.233-0.4-0.3-0.45-0.2-0.15l-0.55-1.1
	c-0.233-0.534-0.566-1.301-1-2.301c-0.167-0.399-0.384-0.8-0.65-1.199c-0.3-0.4-0.8-0.884-1.5-1.45l-0.95-0.75L394.8,39.2z"/>
<path style="fill-rule:evenodd;clip-rule:evenodd;fill:#4B2A18;" d="M413.4,41.65l3.55,2c0.133,0.133,0.149,0.267,0.05,0.399
	c-0.167,0.3-0.733,0.5-1.7,0.601c-1.399,0.133-2.233,0.183-2.5,0.149c-0.666-0.033-1.233-0.3-1.7-0.8
	c-0.333-0.366-0.583-0.434-0.75-0.2c-0.033,0.066-0.133-0.233-0.3-0.899c-0.2-0.834-0.566-1.617-1.1-2.351l-0.8-0.899
	c-0.167-0.2-0.284-0.4-0.351-0.601c-0.166-0.434-0.05-0.649,0.351-0.649c0.433,0,0.733,0.05,0.899,0.149
	c0.2,0.066,0.7,0.351,1.5,0.851c0.601,0.366,1.167,0.8,1.7,1.3C412.75,41.2,413.134,41.517,413.4,41.65z"/>
<path style="fill-rule:evenodd;clip-rule:evenodd;fill:#5F361D;" d="M393.85,33.35l-208.1-0.8L81.9,37.3
	c0.667-0.633,1.817-2.666,3.45-6.1c1.533-3.3,2.683-5.217,3.45-5.75c1.233-0.9,1.9-1.367,2-1.4c0.267-0.133,0.817-0.2,1.65-0.2
	c0.6,0,1.583-0.133,2.95-0.4c1.267,0,2.35,0.667,3.25,2c1.4,2.033,2.283,3.216,2.65,3.55c0.8,0.767,1.85,1.15,3.15,1.15
	c1.233,0,19.05-1.433,53.45-4.3c17.2-1.467,34.267-2.917,51.2-4.35c0.233-1.5,0.533-3.033,0.9-4.6c0.733-3.1,1.383-4.733,1.95-4.9
	c0.966-0.267,3.033-0.533,6.2-0.8l4.75,2.4l2.65-2.35c1.8-1.367,2.85-1.65,3.15-0.85c0.5,1.333,2.45,3.184,5.85,5.55l28.8,2.75
	L304.4,24c28.366,3.5,45.05,5.167,50.05,5c8.033-0.267,17.399-0.667,28.1-1.2c0.467,0,2.483,0.534,6.05,1.6
	c1.801,0.5,3.551,1.017,5.25,1.55V33.35z"/>
<path style="fill-rule:evenodd;clip-rule:evenodd;fill:#763F1E;" d="M93.2,21.5c1.367,0.167,2.683,0.883,3.95,2.15
	c0.633,0.6,1.133,1.2,1.5,1.8c-1.467,0.267-2.8,0.4-4,0.4c-0.8,0-1.533,0.167-2.2,0.5c-0.9,0.566-1.7,1.033-2.4,1.4
	c-0.767,0.433-1.033,0.817-0.8,1.15c0.233,0.367,0.2,0.667-0.1,0.9c-0.867,0.6-1.583,1.384-2.15,2.351c-0.3,0.5-0.7,0.85-1.2,1.05
	l-0.65,0.149V29.8c0-0.333,0.083-0.767,0.25-1.3c0.3-1.067,0.833-2.083,1.6-3.05c0.6-0.8,0.833-1.15,0.7-1.05
	c-0.467,0.3-0.7,0.25-0.7-0.15c0-0.7,0.583-1.367,1.75-2C90.05,21.55,91.533,21.3,93.2,21.5z"/>
<path style="fill-rule:evenodd;clip-rule:evenodd;fill:#763F1E;" d="M124.9,21.1c2.3,0.2,3.633,0.467,4,0.8
	c0.333,0.267,0.217,0.917-0.35,1.95c-0.367,0.667-0.566,0.9-0.6,0.7c-0.1-0.6-0.4-0.966-0.9-1.1c-0.566-0.167-1.066-0.133-1.5,0.1
	c-0.767,0.367-1.35,0.6-1.75,0.7c-0.767,0.167-1.6,0.483-2.5,0.95l-1.15,0.65c0-0.4,0.05-0.833,0.15-1.3
	c0.167-0.933,0.483-1.566,0.95-1.9c0.367-0.233,0.883-0.6,1.55-1.1C123.4,21.183,124.1,21.033,124.9,21.1z"/>
<path style="fill-rule:evenodd;clip-rule:evenodd;fill:#763F1E;" d="M212.8,11.2c0.667-0.534,1.233-0.8,1.7-0.8
	c0.233,0,0.9-0.05,2-0.15c1.1-0.133,2.133-0.2,3.1-0.2l3.3,3.55c-1.233,0-2.816-0.133-4.75-0.4c-1.066-0.133-1.783-0.1-2.15,0.1
	c-0.567,0.367-1.183,0.6-1.85,0.7c-1.033,0.133-2,0.633-2.9,1.5l-1.05,1.25l0.35-2.75l1.4-2L212.8,11.2z"/>
<path style="fill-rule:evenodd;clip-rule:evenodd;fill:#763F1E;" d="M228.7,10.4l0.9,1.4c0.433,0.934,0.267,1.4-0.5,1.4
	c-1.233,0-2.333,0.133-3.3,0.4c-0.6,0.167-1.333,0.483-2.2,0.95l-1.1,0.6l-1.05,1.2c-0.467,0.5-0.917,1.316-1.35,2.45
	c-0.2,0.534-0.367,1.034-0.5,1.5c-0.233-1.833-0.283-3.417-0.15-4.75c0.066-0.8,0.233-1.3,0.5-1.5c0.133-0.1,0.267-0.117,0.4-0.05
	l2.15-3.2h1.85c0.6,0,1-0.017,1.2-0.05C226.217,10.65,227.267,10.533,228.7,10.4z"/>
<path style="fill-rule:evenodd;clip-rule:evenodd;fill:#763F1E;" d="M288.7,20.9c-0.101,0.434-0.351,0.9-0.75,1.4
	c-0.767,0.967-1.917,1.617-3.45,1.95c-1.2,0.267-1.783,0.467-1.75,0.6c0.2,0.4-0.2,0.983-1.2,1.75c-0.066-0.6-0.033-1.267,0.101-2
	c0.267-1.533,0.85-2.7,1.75-3.5c0.733-0.667,1.233-0.917,1.5-0.75C285.667,20.783,286.934,20.967,288.7,20.9z"/>
<path style="fill-rule:evenodd;clip-rule:evenodd;fill:#763F1E;" d="M380.35,27.4c2.2,0,3.7,0.017,4.5,0.05
	c1.2,0.066,2.134,0.183,2.801,0.35c0.466,0.133,1.199,0.534,2.199,1.2c0.934,0.633,1.65,1.017,2.15,1.15
	c0.9,0.233,0.7,0.383-0.6,0.45c-1.334,0.066-2.834-0.083-4.5-0.45c-2.301-0.5-3.867-0.833-4.7-1c-1.334-0.267-2.066-0.316-2.2-0.15
	c-0.1,0.1-0.866,0.317-2.3,0.65c-1.467,0.333-2.4,0.633-2.8,0.9c-0.467,0.333-1.634,0.634-3.5,0.9l-2.7,0.3l0.649-0.5
	c0.467-0.4,0.851-0.767,1.15-1.1c0.7-0.767,1.167-1.183,1.4-1.25c0.233-0.1,1-0.316,2.3-0.65c1.467-0.433,2.399-0.683,2.8-0.75
	C377.467,27.433,378.583,27.4,380.35,27.4z"/>
<path style="fill-rule:evenodd;clip-rule:evenodd;fill:#763F1E;" d="M164.95,18.55c0.7-0.167,1.566,0.017,2.6,0.55
	c1.1,0.566,1.45,1.183,1.05,1.85c-0.3,0.566-0.717,0.917-1.25,1.05c-0.767,0.2-1.383,0.467-1.85,0.8c-0.533,0.4-1.033,0.434-1.5,0.1
	c-0.567-0.467-1.267-0.6-2.1-0.4c-1.066,0.267-2,0.35-2.8,0.25l-0.85-0.25l2.8-1.85C162.65,19.517,163.95,18.817,164.95,18.55z"/>
<path style="fill-rule:evenodd;clip-rule:evenodd;fill:#763F1E;" d="M136.35,32.8c0.566-0.2,1.7-0.7,3.4-1.5l5-2.75
	c0.767-0.4,2.917,0.017,6.45,1.25l-1.4,1.8c-0.633,0.834-1.15,1.351-1.55,1.551c-0.067,0-0.95,0.199-2.65,0.6
	c-1.167,0.267-2.117,0.6-2.85,1l-0.8,0.5l-3.05,0.3l-5.05-0.899l0.95-0.801C135.5,33.283,136.017,32.934,136.35,32.8z"/>
<path style="fill-rule:evenodd;clip-rule:evenodd;fill:#763F1E;" d="M131.6,40.1l-1.1-0.3c-0.133-0.3-0.233-0.6-0.3-0.899
	c-0.167-0.601-0.067-0.9,0.3-0.9c0.167,0,0.667-0.05,1.5-0.15c0.867-0.1,1.667-0.149,2.4-0.149l3.1,1.5l-0.85,0.899
	c-0.333,0.367-0.816,0.534-1.45,0.5c-0.7-0.133-1.25-0.199-1.65-0.199C133.083,40.4,132.433,40.3,131.6,40.1z"/>
<path style="fill-rule:evenodd;clip-rule:evenodd;fill:#763F1E;" d="M99.65,41.35c-1.167,0-1.917-0.017-2.25-0.05
	C97,41.267,96.533,41.167,96,41c-0.467-0.134-0.883-0.316-1.25-0.55L94.3,40.1l0.35-0.899c0.4-0.7,0.95-1.3,1.65-1.8
	c0.934-0.7,1.517-1.101,1.75-1.2c0.367-0.167,0.8-0.2,1.3-0.101c0.3,0.067,1.1-0.017,2.4-0.25c1.267-0.267,2.3-0.316,3.1-0.149
	c0.7,0.166,1.3,0.149,1.8-0.05c0.667-0.267,1.5-0.4,2.5-0.4l1.4,2.45l-1.65,1.8c-0.667,0.7-1.017,1.05-1.05,1.05
	c-0.567,0-1.067,0.05-1.5,0.15l-2.5,0.649H99.65z"/>
<path style="fill-rule:evenodd;clip-rule:evenodd;fill:#763F1E;" d="M80.85,37.4h-3.1c-0.7,0-1.317-0.051-1.85-0.15l-0.65-0.2
	l-3.1-2.1c-0.467-0.3-0.6-0.417-0.4-0.351c0.567,0.134,0.983,0.15,1.25,0.051c0.333-0.101,0.883-0.134,1.65-0.101
	c1.467,0.066,2.5,0.101,3.1,0.101l5.05,2.1L80.85,37.4z"/>
<path style="fill-rule:evenodd;clip-rule:evenodd;fill:#763F1E;" d="M86.75,40.7L88,41.55c0.7,0.733,0.75,1.467,0.15,2.2
	c-0.467,0.634-0.717,0.85-0.75,0.65c-0.066-0.534-0.383-0.851-0.95-0.95c-0.767-0.134-1.217-0.25-1.35-0.351
	c-0.067-0.066-0.167-0.35-0.3-0.85C84.6,41.616,85.25,41.1,86.75,40.7z"/>
<path style="fill-rule:evenodd;clip-rule:evenodd;fill:#763F1E;" d="M118.4,44.05c1.4,0.267,1.967,0.65,1.7,1.15
	c-0.267,0.467-0.833,0.7-1.7,0.7c-0.733,0-1.233-0.017-1.5-0.051c-0.3-0.066-0.733-0.25-1.3-0.55c-0.533-0.333-0.417-0.666,0.35-1
	C116.75,43.967,117.567,43.884,118.4,44.05z"/>
<path style="fill-rule:evenodd;clip-rule:evenodd;fill:#763F1E;" d="M141.95,48.9c0.833,0-0.784,0.267-4.85,0.8
	c-4.667,0.6-7.434,0.95-8.3,1.05l-3.25,0.55c-1.066,0.167-1.933,0.184-2.6,0.05c-2.267-0.399-4.8-0.6-7.6-0.6
	c-0.6,0-1.483,0.15-2.65,0.45c-1.167,0.3-1.967,0.45-2.4,0.45h-4.75c-0.3,0-1.066,0.199-2.3,0.6c-0.833,0.267-1.2,0.167-1.1-0.3
	l0.3-1.2l3.65-1.55c0.566,0.133,1.05,0.316,1.45,0.55c0.534,0.1,1.733,0.033,3.6-0.2c1.5-0.233,2.833-0.25,4-0.05
	c1.133,0.2,2.367,0.2,3.7,0c1.6-0.233,2.967-0.3,4.1-0.2c1.767,0.167,2.683,0.25,2.75,0.25c0.767,0,1.566-0.1,2.4-0.3
	c0.867-0.233,1.667-0.35,2.4-0.35c1.467,0,2.583,0,3.35,0H141.95z"/>
<path style="fill-rule:evenodd;clip-rule:evenodd;fill:#763F1E;" d="M167.7,47.1c0.833-0.267,2.066-0.267,3.7,0
	c1.467,0.233,3.3,0.267,5.5,0.101c2.9-0.267,4.434-0.4,4.6-0.4c0.833,0,1.7-0.05,2.6-0.149c0.667-0.034,1.183-0.034,1.55,0
	c0.7,0.066,0.15,0.716-1.65,1.949h-11.2c-1.133,0-3,0.4-5.6,1.2c-2.434,0.733-4.017,1.05-4.75,0.95
	c-0.934-0.134-2.284-0.366-4.05-0.7l-2.4-0.5l1.4-1.55l2-0.15c1.7-0.1,3.367-0.149,5-0.149C165.467,47.7,166.567,47.5,167.7,47.1z"
	/>
<path style="fill-rule:evenodd;clip-rule:evenodd;fill:#763F1E;" d="M203.95,34.95c-0.967,0.1-1.7,0.283-2.2,0.55
	c-0.433,0.233-1.017,0.35-1.75,0.35c-0.9,0-1.85,0.284-2.85,0.851c-1.367,0.866-2.667,1.6-3.9,2.2c-1.2,0.6-1.967,1.083-2.3,1.449
	c-0.034,0.034-0.383,0.051-1.05,0.051c-0.633,0-1.35,0.1-2.15,0.3s-1.583,0.3-2.35,0.3c-1.467,0-2.767-0.1-3.9-0.3
	c-0.8-0.134-1.433-0.467-1.9-1c-0.4-0.5-0.6-1.066-0.6-1.7l1.2-1.2c0.867-0.833,1.483-1.25,1.85-1.25c1.9,0,4.15-0.2,6.75-0.6
	c1.3-0.2,2.883-0.5,4.75-0.9c0.667-0.1,1.417-0.133,2.25-0.1c1.467,0.066,2.4,0.1,2.8,0.1c1.267,0,2.117,0.033,2.55,0.101
	C201.583,34.25,202.517,34.517,203.95,34.95c0.859-0.092,1.651-0.117,2.375-0.075c0.25-0.215,0.392-0.29,0.425-0.225
	c0.1,0.199,0.017,0.283-0.25,0.25c-0.061-0.006-0.119-0.014-0.175-0.025L206.3,34.9C205.833,35.3,205.05,35.316,203.95,34.95z"/>
<path style="fill-rule:evenodd;clip-rule:evenodd;fill:#763F1E;" d="M214.25,36.45c-1.433,0.166-2.333,0.3-2.7,0.399
	c-0.633,0.134-1.4,0.417-2.3,0.851c-0.8,0.366-1.6,0.833-2.4,1.399l-0.95,0.7c-0.1-0.3-0.117-0.649-0.05-1.05
	c0.066-0.8,0.45-1.467,1.15-2c0.267-0.2,0.85-0.816,1.75-1.85c0.6-0.634,1.333-1.017,2.2-1.15c0.933-0.134,1.767,0.283,2.5,1.25
	C213.817,35.467,214.083,35.95,214.25,36.45z"/>
<path style="fill-rule:evenodd;clip-rule:evenodd;fill:#763F1E;" d="M251.25,51.95c-8.667-0.367-13.866-0.566-15.6-0.601
	c-0.833,0-1.983,0.101-3.45,0.301c-1.467,0.199-2.684,0.3-3.65,0.3c-1.966,0.267-3.45,0.45-4.45,0.55
	c-1.867,0.2-3.367-0.083-4.5-0.85c-1.434-0.9-2.434-1.5-3-1.801c-0.6-0.3-1.383-0.616-2.35-0.949c-0.2-0.067-1.717-0.384-4.55-0.95
	c-1.867-0.4-2.434-0.667-1.7-0.8c0.633-0.134,2.717,0.017,6.25,0.449c4,0.467,6.617,0.7,7.85,0.7c1.633,0,2.867,0.066,3.7,0.2
	c1.3,0.167,2.684,0.3,4.15,0.4c1.7,0.1,3.983,0.216,6.85,0.35c2.334,0.134,4.25,0.333,5.75,0.6c1.233,0.2,2.4,0.434,3.5,0.7
	c0.934,0.134,2.384,0.2,4.351,0.2h6.449C259.116,51.75,257.25,52.15,251.25,51.95z"/>
<path style="fill-rule:evenodd;clip-rule:evenodd;fill:#763F1E;" d="M228,35.55c1.5-0.399,4.2-0.1,8.1,0.9
	c-0.366,0.833-0.833,1.45-1.399,1.85c-0.833,0.601-2.317,0.9-4.45,0.9c-0.833,0-1.483,0.083-1.95,0.25
	c-0.566,0.233-1.133,0.45-1.7,0.649c-0.733,0.267-1.684,0.334-2.85,0.2c-0.833-0.1-1.567-0.267-2.2-0.5
	c-0.7-0.233,0.233-1.033,2.8-2.399c0.566-0.301,1.217-0.684,1.95-1.15C226.867,35.917,227.433,35.684,228,35.55z"/>
<path style="fill-rule:evenodd;clip-rule:evenodd;fill:#763F1E;" d="M240,44c-0.833,0.366-1.667,0.583-2.5,0.65
	c-0.066,0-0.9,0-2.5,0c-0.8,0-1-0.25-0.6-0.75c0.233-0.233,0.533-0.483,0.9-0.75l5-2.75l3.101,2.149L240,44z"/>
<path style="fill-rule:evenodd;clip-rule:evenodd;fill:#763F1E;" d="M222.8,22.15c1.333-1.167,2.7-2.05,4.1-2.65
	c1.267-0.533,2.033-0.533,2.3,0c0.433,0.867,1,1.4,1.7,1.6c0.967,0.267,2.383,0.35,4.25,0.25c2.3-0.133,4.017-0.15,5.15-0.05
	l2.7,1.35c1.3,0.9,0.783,1.35-1.55,1.35c-2.134,0-3.684,0.067-4.65,0.2c-1.633,0.2-2.983,0.333-4.05,0.4
	c-1.867,0.133-2.7,0.117-2.5-0.05c0.233-0.167,0.233-0.25,0-0.25c-0.4,0-1.05,0.1-1.95,0.3c-0.867,0.2-1.716,0.3-2.55,0.3h-7.6
	l3.1-1.2L222.8,22.15z"/>
<path style="fill-rule:evenodd;clip-rule:evenodd;fill:#763F1E;" d="M258.1,27.3c0.567-0.367,0.9-0.75,1-1.15
	c0.134-0.5,1.25-1.233,3.351-2.2c1.1-0.5,2.416-1.083,3.95-1.75c6.166,2.233,9.433,3.65,9.8,4.25c0.366,0.6-0.384,0.7-2.25,0.3
	c-1.667,0-3.434-0.1-5.3-0.3c-1.067-0.1-1.834-0.133-2.301-0.1c-0.899,0.066-1.733,0.1-2.5,0.1c-1.199,0-2.166,0.117-2.899,0.35
	c-1.101,0.333-1.816,0.517-2.15,0.55C258.167,27.45,257.934,27.433,258.1,27.3z"/>
<path style="fill-rule:evenodd;clip-rule:evenodd;fill:#763F1E;" d="M264.45,35.55c0.967-0.133,1.184,0.334,0.649,1.4
	c-0.533,1.1-1.216,1.649-2.05,1.649c-0.833,0-1.6-0.3-2.3-0.899c-0.667-0.634-0.934-1.25-0.8-1.851c0.1-0.333,0.333-0.449,0.7-0.35
	C261.55,35.8,262.816,35.816,264.45,35.55z"/>
<polygon style="fill-rule:evenodd;clip-rule:evenodd;fill:#763F1E;" points="316.55,25.25 305.65,27.05 305.65,25.25 "/>
<path style="fill-rule:evenodd;clip-rule:evenodd;fill:#763F1E;" d="M194.1,21.05c1.233,0,2.066,0.2,2.5,0.6
	c0.2,0.167,0.283,0.35,0.25,0.55c-0.434,1.066-1.133,1.667-2.1,1.8c-0.667,0.1-1.2,0.1-1.6,0c-0.1,0-0.683-0.217-1.75-0.65
	c-0.8-0.333-0.767-0.8,0.1-1.4C192.333,21.35,193.2,21.05,194.1,21.05z"/>
<path style="fill-rule:evenodd;clip-rule:evenodd;fill:#763F1E;" d="M302.35,29.95c0.967-0.1,1.717,0.133,2.25,0.7
	c0.267,0.3,0.434,0.6,0.5,0.9h-1.3c-0.434,0-0.833,0.15-1.2,0.45c-0.399,0.3-0.767,0.45-1.1,0.45c-0.566,0-0.75-0.4-0.55-1.2
	S301.616,30.017,302.35,29.95z"/>
<path style="fill-rule:evenodd;clip-rule:evenodd;fill:#763F1E;" d="M352.4,30.4l2.35,0.55c1.434,0.399,1.833,0.75,1.2,1.05
	c-0.566,0.267-1.167,0.333-1.8,0.2c-1.601-0.3-2.467-0.45-2.601-0.45c-1.066-0.066-1.816-0.167-2.25-0.3L349,31.3l0.8-0.45
	C350.566,30.55,351.434,30.4,352.4,30.4z"/>
<path style="fill-rule:evenodd;clip-rule:evenodd;fill:#763F1E;" d="M348.2,32.45c1.267,0,2.033,0.3,2.3,0.899
	c0.267,0.534,0.05,0.983-0.65,1.351c-0.5,0.267-1,0.35-1.5,0.25c-0.866-0.167-1.416-0.25-1.649-0.25c-0.601,0-1.3-0.101-2.101-0.3
	l-1.05-0.351l1.3-0.8C345.95,32.717,347.066,32.45,348.2,32.45z"/>
<path style="fill-rule:evenodd;clip-rule:evenodd;fill:#763F1E;" d="M332.85,25.4c1.567,0.1,2.95,0.3,4.15,0.6
	c1.267,0.333,1.833,0.65,1.7,0.95c-0.134,0.466-1.101,0.85-2.9,1.15c-1.7,0-2.967-0.15-3.8-0.45c-0.533-0.2-1.217-0.55-2.05-1.05
	l-1.101-0.75l1.051-0.3C330.8,25.383,331.783,25.333,332.85,25.4z"/>
<path style="fill-rule:evenodd;clip-rule:evenodd;fill:#763F1E;" d="M316.45,35.15c0.6,0.133,0.7,0.5,0.3,1.1s-1.134,0.85-2.2,0.75
	c-1.1-0.134-1.25-0.517-0.45-1.15C314.9,35.217,315.684,34.983,316.45,35.15z"/>
<path style="fill-rule:evenodd;clip-rule:evenodd;fill:#763F1E;" d="M283.4,37.7c-0.434,0.066-0.867,0.017-1.301-0.15
	c-0.833-0.3-1.8-0.566-2.899-0.8c-0.7-0.134-0.483-0.583,0.649-1.35c1.134-0.767,2.317-1.067,3.551-0.9
	c2.466,0.267,3.35,0.85,2.649,1.75C285.45,36.983,284.566,37.467,283.4,37.7z"/>
<path style="fill-rule:evenodd;clip-rule:evenodd;fill:#763F1E;" d="M253.8,20.15c0.7,0.1,1.167,0.4,1.4,0.9
	c0.267,0.5,0,0.8-0.8,0.9c-0.733,0.1-1.284,0.1-1.65,0c-0.5-0.2-1-0.417-1.5-0.65c-0.7-0.333-0.65-0.65,0.15-0.95
	C252.2,20.05,253,19.983,253.8,20.15z"/>
<path style="fill-rule:evenodd;clip-rule:evenodd;fill:#763F1E;" d="M368.6,35.15c1.367,0.1,2.034,0.433,2,1
	c-0.033,0.566-0.35,0.85-0.949,0.85c-0.367,0-0.934-0.116-1.7-0.35L366.9,36.3l0.3-0.6C367.5,35.3,367.967,35.116,368.6,35.15z"/>
<path style="fill-rule:evenodd;clip-rule:evenodd;fill:#763F1E;" d="M377,42.15c-4.333,0-9.884-0.584-16.65-1.75
	c-0.3-0.067-0.916-0.284-1.85-0.65c-0.9-0.366-1.95-0.65-3.15-0.85c-3.1-0.5-6.666-0.75-10.699-0.75c-2.101,0-4.884,0.166-8.351,0.5
	c-3.5,0.333-5.7,0.5-6.6,0.5c-1.267,0-3.467,0.216-6.601,0.649c-3.133,0.4-4.899,0.601-5.3,0.601c-4.3-0.334-6.916-0.5-7.85-0.5
	c-0.601,0,0.017-0.117,1.85-0.351c0.9-0.133,1.867-0.267,2.9-0.399c2.8,0,5.383-0.25,7.75-0.75c2.399-0.5,3.934-0.75,4.6-0.75
	c0.5,0,1.066,0.083,1.7,0.25c0.4,0.066,2.017,0,4.85-0.2c2.434-0.167,4.733-0.384,6.9-0.65c1.833-0.133,5.05-0.1,9.65,0.101
	c4.466,0.199,7.916,0.666,10.35,1.399c1.3,0.367,2.684,0.816,4.15,1.351c0.933,0.166,2.149,0.3,3.649,0.399
	c2.033,0.066,3.75,0.184,5.15,0.351c1.5,0.166,3.383,0.399,5.649,0.699c1.767,0.2,3.284,0.301,4.551,0.301h4.05
	C384.366,41.983,380.8,42.15,377,42.15z"/>
<path style="fill-rule:evenodd;clip-rule:evenodd;fill:#763F1E;" d="M290.55,42.15c-0.733-0.301-2.083-0.301-4.05,0l-2.7,0.5
	L285.4,42.1c1.199-0.366,2.083-0.6,2.649-0.699c0.9-0.167,3.05-0.084,6.45,0.25c1.524,0.562,2.632,0.937,3.325,1.125
	c-0.058,0.033-0.116,0.074-0.175,0.125c-0.601,0.433-1.184,0.6-1.75,0.5C293.434,43.033,291.65,42.616,290.55,42.15z"/>
<path style="fill-rule:evenodd;clip-rule:evenodd;fill:#763F1E;" d="M408.15,39.65l-1.45,0.75c-0.533,0.3-1.283,0.25-2.25-0.15
	c-1.533-0.634-2.517-1-2.95-1.1c-0.934-0.2-2.15-0.351-3.65-0.45c-2.1-0.167-3.267-0.267-3.5-0.3
	c-2.033-0.233-3.1-0.351-3.199-0.351c-0.967-0.166-1.25-0.3-0.851-0.399c1.4-0.367,3.617-0.45,6.65-0.25
	C400.15,37.566,403.884,38.316,408.15,39.65z"/>
<path style="fill-rule:evenodd;clip-rule:evenodd;fill:#5B3318;" d="M100.85,29.8l2.15,1.15l1.85,1.6
	c3.867,0.533,5.45,1.05,4.75,1.55c-0.533,0.4-1.317,0.767-2.35,1.101c-1.033,0.333-1.833,0.5-2.4,0.5
	c-2.934,0-4.767,0.133-5.5,0.399c-1.934,1.067-3.267,1.601-4,1.601c-0.333,0-1.017-0.066-2.05-0.2c-1.033-0.134-1.8-0.2-2.3-0.2
	c-0.6,0-1.333-0.2-2.2-0.6L87.7,36.1l1.75-1.149c1.333-0.7,2.45-0.983,3.35-0.851c0.067-0.466,0.184-1,0.35-1.6
	c0.3-1.267,0.667-2.3,1.1-3.1c0.733-1.333,0.867-2.517,0.4-3.55l1.85-0.65c1.3-0.333,2.017-0.25,2.15,0.25
	c0.233,0.767,0.6,1.483,1.1,2.15L100.85,29.8z"/>
<path style="fill-rule:evenodd;clip-rule:evenodd;fill:#5B3318;" d="M129.05,22.9c0.4-0.566,0.833-0.783,1.3-0.65l1.1,0.4l2.9,3.55
	c1.7,0.267,2.183,0.667,1.45,1.2c-1.033,0.8-2.367,1.2-4,1.2c-0.733,0-2.466-0.267-5.2-0.8l-3.9-0.8c0.3-0.1,0.917-0.117,1.85-0.05
	c0.9,0.066,1.617-0.05,2.15-0.35c0.966-0.5,1.583-1.417,1.85-2.75L129.05,22.9z"/>
<path style="fill-rule:evenodd;clip-rule:evenodd;fill:#5B3318;" d="M220.35,14l-0.2,1.2c-0.133,0.9-0.2,1.683-0.2,2.35
	c0,1.034,0.133,2.083,0.4,3.15l-0.75-0.4c-0.2-0.1-0.833,0.05-1.9,0.45c-1.3,0.5-2.483,0.75-3.55,0.75c-1.2,0-1.8-0.533-1.8-1.6
	l0.7-2.75c0.133-0.5,0.617-0.867,1.45-1.1c0.467-0.133,1.25-0.3,2.35-0.5L220.35,14z"/>
<path style="fill-rule:evenodd;clip-rule:evenodd;fill:#5B3318;" d="M228,16.35c1.367-1.8,2.617-2.417,3.75-1.85
	c0.6,0.3,1.05,0.783,1.35,1.45l3.3,1.6l-0.75,2.75l-4.75,0.8H228c-0.6,0-0.967-0.267-1.1-0.8v-0.8c0.033-0.3,0.1-0.667,0.2-1.1
	C227.3,17.567,227.6,16.883,228,16.35z"/>
<path style="fill-rule:evenodd;clip-rule:evenodd;fill:#5B3318;" d="M292.15,23.05l1.8,0.25c1.267,0.2,2.116,0.383,2.55,0.55
	c0.733,0.267,0.733,1.183,0,2.75l-1.45,1.2c-0.533,0.467-1.483,0.717-2.85,0.75c-1.867,0.034-3.117,0.117-3.75,0.25
	c-1.066,0.267-2.167,0.184-3.3-0.25l-1.4-0.75l0.7-0.9c0.533-0.667,1.033-1.15,1.5-1.45c1.899-1.4,3.233-2.2,4-2.4
	C290.917,22.783,291.65,22.783,292.15,23.05z"/>
<path style="fill-rule:evenodd;clip-rule:evenodd;fill:#5B3318;" d="M380.35,32.55c1.034-0.767,2.017-1.316,2.95-1.65
	c0.8-0.267,1.884-0.517,3.25-0.75c0.867-0.1,1.3-0.117,1.3-0.05c0.101,0.3,0.634,0.583,1.601,0.85c1,0.267,1.5,0.416,1.5,0.45
	c0,0.1,0.483,0.35,1.45,0.75c0.966,0.399,1.75,0.75,2.35,1.05c0.233,0.1,0.667,0.149,1.3,0.149c0.601,0,0.834,0.267,0.7,0.801
	c-0.033,0.233-0.15,0.483-0.35,0.75c-0.967,0.267-2.551,0.533-4.75,0.8c-1.367,0.166-2.817,0.217-4.351,0.149l-6.2-0.149
	c-1.066,0-1.883-0.066-2.449-0.2l-0.5-0.2l0.6-1C379.25,33.533,379.783,32.95,380.35,32.55z"/>
<path style="fill-rule:evenodd;clip-rule:evenodd;fill:#5B3318;" d="M165.35,34.5l5.1,2c0.767,0.333,1.05,0.7,0.85,1.1
	c-0.1,0.167-0.267,0.317-0.5,0.45v2.8c-0.966,0.534-2.05,0.801-3.25,0.801c-0.633,0-1.216,0.183-1.75,0.55
	c-0.433,0.267-0.833,0.333-1.2,0.2c-0.467-0.167-0.567-0.733-0.3-1.7c0.133-0.566,0.483-1.45,1.05-2.65
	c0.333-0.666,0.467-1.3,0.4-1.899C165.75,35.917,165.617,35.366,165.35,34.5z"/>
<path style="fill-rule:evenodd;clip-rule:evenodd;fill:#5B3318;" d="M232.35,44.4c-0.9,0.333-1.783,0.433-2.65,0.3l-1-0.3
	c-1.434-0.534-2.517-1.067-3.25-1.601c-0.5-0.366-0.25-0.75,0.75-1.149c0.7-0.334,2.033-0.733,4-1.2l6.899-1.2
	c-0.233,1.066-0.6,1.983-1.1,2.75c-0.333,0.566-0.75,1.017-1.25,1.35C234.283,43.65,233.483,44,232.35,44.4z"/>
<path style="fill-rule:evenodd;clip-rule:evenodd;fill:#5B3318;" d="M240,44c1,0.267,1.733,0.833,2.2,1.7
	c0.5,0.967,0.017,1.717-1.45,2.25c-1.1,0.399-1.616,0.517-1.55,0.35c0.2-0.5-0.134-0.883-1-1.149c-1.2-0.367-1.417-1.051-0.65-2.051
	C238.316,44.134,239.134,43.767,240,44z"/>
<path style="fill-rule:evenodd;clip-rule:evenodd;fill:#5B3318;" d="M304.8,34.05c1.134,0.2,2.867,0.884,5.2,2.05h-6.9
	c-1.666,0-2.183-0.416-1.55-1.25C302.15,34.017,303.233,33.75,304.8,34.05z"/>
<path style="fill-rule:evenodd;clip-rule:evenodd;fill:#5B3318;" d="M135.1,36.9c-1.5-0.267-1.833-0.517-1-0.75
	c1.5-0.4,3.1-0.601,4.8-0.601l3.05-0.3l1.4-0.65c1.033-0.433,1.783-0.716,2.25-0.85c0.433-0.1,0.816-0.134,1.15-0.1
	c0.567,0.066,0.933,0.1,1.1,0.1c1,0,1.65-0.717,1.95-2.15l2.25-1.8l0.7,0.7c0.5,0.6,0.933,1.267,1.3,2
	c0.267,0.634,0.4,0.884,0.4,0.75c0-0.4,0.133-0.55,0.4-0.45c0.3,0.101,0.7,0.184,1.2,0.25c0.5,0.101,1.034,0.334,1.6,0.7
	c0.533,0.333-0.217,0.8-2.25,1.4c-2.7,0.767-4.283,1.3-4.75,1.6c-1.6,1.033-3.467,1.55-5.6,1.55h-3.9c-0.767,1.4-1.7,2.3-2.8,2.7
	c-0.7,0.267-1.95,0.4-3.75,0.4l-2.45-0.051L134,40.95c1.3-0.3,2.183-0.584,2.65-0.851c0.733-0.399,1.567-1,2.5-1.8l-0.8-0.6
	C138.15,37.533,137.067,37.267,135.1,36.9z"/>
<path style="fill-rule:evenodd;clip-rule:evenodd;fill:#5B3318;" d="M165.5,22.8c1.167,0.267,2.217-0.117,3.15-1.15
	c0.467-0.5,0.817-1.033,1.05-1.6l1.45,0.6c0.934,0.434,1.767,0.533,2.5,0.3l1.7,0.35c-0.934,0.6-1.783,1.1-2.55,1.5
	c-0.566,0.3-2.15,0.8-4.75,1.5c-0.733,0.2-1.083,0.284-1.05,0.25c0.133-0.066-0.083-0.05-0.65,0.05c-0.7,0.133-1.75,0.117-3.15-0.05
	l-1.9-0.25L163,24L165.5,22.8z"/>
<path style="fill-rule:evenodd;clip-rule:evenodd;fill:#5B3318;" d="M98.35,49.35l-0.4-1.05l1.7-1.5c0.167-0.8,0.167-1.517,0-2.149
	c-0.1-0.334-0.517-0.584-1.25-0.75c-1.4-0.301-2.383-0.551-2.95-0.75l2.15-1.2c1.533-0.834,2.583-1.25,3.15-1.25
	c0.467,0,1.267,0.033,2.4,0.1s2.2,0.033,3.2-0.1c1.066-0.134,1.816-0.367,2.25-0.7c0.2-0.167,0.3-0.333,0.3-0.5
	c1.267-0.134,2.167-0.634,2.7-1.5c0.267-0.434,0.4-0.85,0.4-1.25l1.1,0.05c0.833,0.033,1.483,0.117,1.95,0.25
	c0.467,0.134,0.7,0.483,0.7,1.05c0,0.334-0.05,0.9-0.15,1.7c0,0.8-0.733,1.816-2.2,3.05l-2,0.9c-1.667,0-3.35,0.4-5.05,1.2
	c-0.967,0.467-1.5,0.85-1.6,1.149c-0.167,0.334-0.367,0.567-0.6,0.7c-0.5,0.267-0.867,0.816-1.1,1.65
	c-0.167,0.566-0.466,1.733-0.9,3.5c-0.267,1.033-0.45,1.383-0.55,1.05c-0.267-1-0.733-1.65-1.4-1.95
	C99.4,50.684,98.783,50.116,98.35,49.35z"/>
<path style="fill-rule:evenodd;clip-rule:evenodd;fill:#5B3318;" d="M154.3,43.75l2.25,0.3c1.5,0.3,2.25,0.717,2.25,1.25
	s-0.25,1.017-0.75,1.45c-0.367,0.267-0.966,0.583-1.8,0.95c-0.567,0.267-0.783,0.649-0.65,1.149c0.066,0.267,0.2,0.5,0.4,0.7h-8.7
	c-0.633,0-0.767-0.3-0.4-0.899c0.3-0.467,0.8-0.983,1.5-1.551c0.267-0.199,1.05-0.6,2.35-1.199
	C152.05,45.3,153.233,44.583,154.3,43.75z"/>
<path style="fill-rule:evenodd;clip-rule:evenodd;fill:#5B3318;" d="M200,35.85l8.7-1.5c-3.733,2.034-6.267,3.351-7.6,3.95
	c-0.8,0.367-2.017,1.033-3.65,2l-2.2,1.351l0.55,1.5l1.65,1c1.267,0.699,2.267,1.183,3,1.449c0.767,0.267,0.733,0.801-0.1,1.601
	l-1.45,1.1c-1.1-0.366-3.233-0.633-6.4-0.8c-2.8-0.134-4.6-0.467-5.4-1l-2.25-1.55l-0.25-1.8c-0.367-0.101-0.684-0.233-0.95-0.4
	c-0.5-0.366-0.467-0.733,0.1-1.1c0.567-0.367,1.6-0.65,3.1-0.851c0.767-0.1,1.783-0.233,3.05-0.399l1.4-0.301l1.15-1.05
	c1.066-0.8,2.367-1.467,3.9-2L200,35.85z"/>
<path style="fill-rule:evenodd;clip-rule:evenodd;fill:#5B3318;" d="M209.25,37.7c1.833,0.2,3.033,0.2,3.6,0L211.5,40.1
	c-0.367,0.601-1.683,1.317-3.95,2.15l-1.65-0.6l0.65-2.101C207.183,38.184,208.083,37.566,209.25,37.7z"/>
<path style="fill-rule:evenodd;clip-rule:evenodd;fill:#5B3318;" d="M245.35,24.9l-1.1,1.85l-4.5,1.8
	c-1.866,0.767-3.4,1.15-4.6,1.15l-1.3-0.2c-0.733,0.2-2.217,0.2-4.45,0c-1.333-0.133-2.75-0.183-4.25-0.15
	c-2.633,0.1-4.3,0.15-5,0.15c-1.867,0-2.2-0.2-1-0.6c0.633-0.233,1.434-0.45,2.4-0.65l5.85-0.9c0.567-0.1,1.383-0.517,2.45-1.25
	c1.167-0.767,2.133-1.267,2.9-1.5L245.35,24.9z"/>
<path style="fill-rule:evenodd;clip-rule:evenodd;fill:#5B3318;" d="M259.4,29.8c0.366-0.2,1.183-0.683,2.449-1.45
	c1.534-0.6,3.617-0.833,6.25-0.7c2.334,0.133,4.384,0.533,6.15,1.2c0.9,0.333,1.55,0.65,1.95,0.95c-1.3,0.2-3.167,0.7-5.601,1.5
	c-1.533,0.5-2.583,0.75-3.149,0.75c-0.601-0.1-1.233-0.149-1.9-0.149c-0.566,0-1.267-0.101-2.1-0.301
	c-0.834-0.199-1.816-0.3-2.95-0.3c-1.4,0-2.116-0.166-2.15-0.5C258.316,30.5,258.667,30.167,259.4,29.8z"/>
<path style="fill-rule:evenodd;clip-rule:evenodd;fill:#5B3318;" d="M318.6,28.5c1.233,0.233,0.284,0.567-2.85,1
	c-1.481,0.19-2.415,0.315-2.8,0.375c-0.643,0.036-1.227-0.006-1.75-0.125c-0.733-0.167-1.75-0.567-3.05-1.2
	c-0.967-0.466-1.084-0.667-0.351-0.6c2.334,0.2,3.95,0.3,4.851,0.3C315.65,28.25,317.634,28.333,318.6,28.5z"/>
<path style="fill-rule:evenodd;clip-rule:evenodd;fill:#4B2A18;" d="M98.85,29.25c0.367,0.067,0.717,0.217,1.05,0.45l4,2.95
	l0.95-0.101c0.433-0.066,0.433,0.15,0,0.65c-0.434,0.434-0.883,0.783-1.35,1.05l-3.35,1.6c-0.733,0.4-1.267,0.667-1.6,0.801
	c-0.5,0.233-1.25,0.483-2.25,0.75s-1.95,0.133-2.85-0.4l-1.1-0.9l1.25-0.6c0.933-0.434,1.7-0.7,2.3-0.8
	c0.633-0.066,1.033-0.351,1.2-0.851l0.5-3.7C97.7,29.417,98.117,29.117,98.85,29.25z"/>
<path style="fill-rule:evenodd;clip-rule:evenodd;fill:#4B2A18;" d="M102.25,43.6c2.033,0,3.317-0.017,3.85-0.05
	c0.733-0.066,1.4-0.2,2-0.399c0.867-0.301,1.717-1.067,2.55-2.301l2.5-3.149c0,1.366-0.35,2.583-1.05,3.649
	c-0.467,0.7-1.133,1.317-2,1.851c-0.733,0.467-1.4,0.75-2,0.85c-0.7,0.167-1.667,0.25-2.9,0.25c-0.8,0-1.534-0.116-2.2-0.35
	L102.25,43.6z"/>
<path style="fill-rule:evenodd;clip-rule:evenodd;fill:#4B2A18;" d="M131.05,24.45c1.967,0.3,2.733,0.767,2.3,1.4
	c-0.333,0.467-0.65,0.767-0.95,0.9c-0.333,0.167-1,0.317-2,0.45c-0.867,0.1-1.9,0.133-3.1,0.1l-1.5-0.1l1.65-0.5
	c1.2-0.467,2.117-0.983,2.75-1.55L131.05,24.45z"/>
<path style="fill-rule:evenodd;clip-rule:evenodd;fill:#4B2A18;" d="M152.5,32.2c1.667-0.134,2.45,0.066,2.35,0.6
	c-0.033,0.367-0.5,0.8-1.4,1.3c-1.133,0.567-1.95,1-2.45,1.301c-1.067,0.666-1.917,1.1-2.55,1.3c-1.267,0.333-2.867,0.35-4.8,0.05
	l5.05-1.6l2.3-1.101c0.367-0.2,0.667-0.45,0.9-0.75C152,33.134,152.2,32.767,152.5,32.2z"/>
<path style="fill-rule:evenodd;clip-rule:evenodd;fill:#4B2A18;" d="M167.2,39.5c0.267-0.2,0.466-0.517,0.6-0.95
	c0.1-0.566,0.184-1.017,0.25-1.35l1.05,0.25l-0.45,2.05c-0.1,0.467-0.2,0.783-0.3,0.95c-0.067,0.166-0.333,0.566-0.8,1.2
	c-0.4,0.5-1.1,0.75-2.1,0.75c-1-0.101-1.6-0.15-1.8-0.15C163.383,42.25,164.567,41.333,167.2,39.5z"/>
<path style="fill-rule:evenodd;clip-rule:evenodd;fill:#4B2A18;" d="M153.35,47c0.1-0.066,0.367-0.65,0.8-1.75
	c0.3-0.866,0.8-1.116,1.5-0.75c0.033,0.033,0.55,0.1,1.55,0.2c0.767,0.066,1.017,0.233,0.75,0.5c-0.267,0.3-0.517,0.5-0.75,0.6
	l-0.3,0.101c-0.967,0.733-1.667,1.333-2.1,1.8c-0.233,0.233-0.367,0.583-0.4,1.05c-0.1,0.7-0.25,1.333-0.45,1.9
	c-0.4,1.233-0.467,2-0.2,2.3l-1.5-0.7l-0.8-3.2l0.65-0.85C152.567,47.6,152.983,47.2,153.35,47z"/>
<path style="fill-rule:evenodd;clip-rule:evenodd;fill:#4B2A18;" d="M191.4,41.9c0.2-0.767,1.184-1.334,2.95-1.7
	c2.8-0.634,6.233-1.934,10.3-3.9c-1.633,0.867-3.233,1.816-4.8,2.851c-3.133,2-4.483,3.333-4.05,4c0.7,1.066,1.05,2.05,1.05,2.949
	l-0.45,0.7c-0.233,0.601-0.217,1.134,0.05,1.601c0.167,0.3,0.25,0.5,0.25,0.6c-0.034,0.134,0.15,0.616,0.55,1.45
	c0.7,1.5,1.133,2.566,1.3,3.2C197.85,54.083,197,54,196,53.4l-3.8-2.301l-2.1-2.05l1.45,0.601c0.967,0.066,1.4-0.65,1.3-2.15
	c-0.033-0.434-0.317-0.783-0.85-1.05c-0.5-0.267-0.7-0.767-0.6-1.5l0.2-2.05C191.367,42.6,191.3,42.267,191.4,41.9z"/>
<path style="fill-rule:evenodd;clip-rule:evenodd;fill:#4B2A18;" d="M284.1,27.4c0.9-0.2,2.284-0.5,4.15-0.9
	c0.7-0.167,1.25-0.383,1.65-0.65c0.3-0.167,0.949-0.55,1.949-1.15l0.851,0.4c0.333,0.367-0.033,0.833-1.101,1.4
	c-1.166,0.667-1.783,1.017-1.85,1.05c-0.3,0-0.733,0.034-1.3,0.1c-0.566,0.1-1.117,0.133-1.65,0.1c-0.967,0-1.983,0.017-3.05,0.05
	C282.35,27.867,282.467,27.733,284.1,27.4z"/>
<path style="fill-rule:evenodd;clip-rule:evenodd;fill:#4B2A18;" d="M382.45,34.05c0.166-0.399,0.8-0.866,1.899-1.399
	c0.834-0.4,1.601-0.7,2.301-0.9c0.933-0.233,2.05,0.017,3.35,0.75c1.267,0.7,1.7,1.283,1.3,1.75c-0.333,0.366-0.733,0.583-1.2,0.65
	c-1.533,0.267-2.466,0.433-2.8,0.5c-1.066,0.267-1.767,0.333-2.1,0.199c-0.834-0.3-1.884-0.517-3.15-0.649
	c-1.467-0.134-2-0.233-1.6-0.3C381.65,34.55,382.316,34.35,382.45,34.05z"/>
<linearGradient id="SVGID_3_" gradientUnits="userSpaceOnUse" x1="340.1504" y1="40.4453" x2="353.4502" y2="40.4453">
	<stop  offset="0" style="stop-color:#706520"/>
	<stop  offset="1" style="stop-color:#716621"/>
</linearGradient>
<path style="fill-rule:evenodd;clip-rule:evenodd;fill:url(#SVGID_3_);" d="M342.75,42.65c0.2-0.534-0.167-1.067-1.1-1.601
	l-1.5-0.649H343c0.8,0,1.517,0.333,2.15,1c0.3,0.333,0.533,0.666,0.699,1v-0.75c0-0.301-0.116-0.9-0.35-1.801l-0.35-1.199
	l1.649,1.25c1.101,0.833,1.566,1.583,1.4,2.25l0.95-1.601c0.6-1.033,0.933-2.166,1-3.399l0.199,2.75c0.167,1,0.567,1.583,1.2,1.75
	l1.9-1.25l-0.25,1c-0.134,0.666-0.367,1.166-0.7,1.5h-1.65c-2.033,0.333-3.699,0.583-5,0.75
	C343.417,43.917,342.384,43.583,342.75,42.65z"/>
<linearGradient id="SVGID_4_" gradientUnits="userSpaceOnUse" x1="307.0752" y1="45.7549" x2="317.5254" y2="45.7549">
	<stop  offset="0" style="stop-color:#706520"/>
	<stop  offset="1" style="stop-color:#716621"/>
</linearGradient>
<path style="fill-rule:evenodd;clip-rule:evenodd;fill:url(#SVGID_4_);" d="M307.1,48.4h1.15c0.8,0,1.6-0.167,2.4-0.5v-1
	c0-0.4-0.267-1.017-0.801-1.851L309,43.9l1.2,0.5c0.767,0.333,1.866,1.25,3.3,2.75l0.225-4.775c0.021,0.523,0.363,1.232,1.025,2.125
	c0.366,0.533,0.75,1,1.15,1.4l0.149-2.25c0.101-0.934,0.384-1.5,0.851-1.7c0.233-0.101,0.449-0.117,0.649-0.05l-0.5,2.25
	c-0.133,0.666-0.05,1.333,0.25,2c-1.1,1-2.2,1.666-3.3,2l-4.55,1.5L307.1,48.4z"/>
<linearGradient id="SVGID_5_" gradientUnits="userSpaceOnUse" x1="401.0254" y1="45.6504" x2="409.5754" y2="45.6504">
	<stop  offset="0" style="stop-color:#706520"/>
	<stop  offset="1" style="stop-color:#716621"/>
</linearGradient>
<path style="fill-rule:evenodd;clip-rule:evenodd;fill:url(#SVGID_5_);" d="M406.7,45.65l1.45-1.75v1.25
	c0,0.833,0.483,1.25,1.449,1.25c-0.633,0.333-1.75,0.666-3.35,1c-1.6,0.333-3.35,0.5-5.25,0.5v-1c1.134,0,1.85-0.334,2.15-1
	c0.333-0.667,0.017-1.5-0.95-2.5l1.45,0.5C404.583,44.233,405.6,44.816,406.7,45.65z"/>
<linearGradient id="SVGID_6_" gradientUnits="userSpaceOnUse" x1="287.6123" y1="46.75" x2="293.7873" y2="46.75">
	<stop  offset="0" style="stop-color:#706520"/>
	<stop  offset="1" style="stop-color:#716621"/>
</linearGradient>
<path style="fill-rule:evenodd;clip-rule:evenodd;fill:url(#SVGID_6_);" d="M290.2,46.9l0.5,3c0.3-0.334,0.684-1,1.149-2l0.101,1
	c0.166,0.767,0.45,1.35,0.85,1.75l0.95,1c-0.467,0.333-1.25,0.25-2.35-0.25c-0.7-0.301-1.434-0.551-2.2-0.75l-0.95-0.2
	c0.5-1.867,0.517-3.8,0.05-5.8l-0.7-3l1.2,1.949C289.634,45.066,290.1,46.167,290.2,46.9z"/>
<linearGradient id="SVGID_7_" gradientUnits="userSpaceOnUse" x1="201.5498" y1="59.1406" x2="211.0498" y2="59.1406">
	<stop  offset="0" style="stop-color:#706520"/>
	<stop  offset="1" style="stop-color:#716621"/>
</linearGradient>
<path style="fill-rule:evenodd;clip-rule:evenodd;fill:url(#SVGID_7_);" d="M202.25,61.65V60.4c0-0.467-0.167-0.934-0.5-1.4
	c-0.1-0.167-0.083-0.2,0.05-0.1c1.733,1.233,2.567,1.366,2.5,0.399c-0.033-0.533,0.217-1.133,0.75-1.8
	c0.267-0.333,0.534-0.616,0.8-0.85c0.767-0.334,1.633-0.417,2.6-0.25l-1.45,2l4.05-1l-0.95,0.5c-0.4,0.199-0.75,0.517-1.05,0.949
	L208.7,59.4c-1.133,1.5-2.017,2.333-2.65,2.5c-0.4,0.1-1.15,0.083-2.25-0.051L202.25,61.65z"/>
<linearGradient id="SVGID_8_" gradientUnits="userSpaceOnUse" x1="92.9438" y1="-1.3877" x2="103.4354" y2="-1.3877" gradientTransform="matrix(0.8602 0.5099 -0.5099 0.8602 1.823902e-005 -1.139641e-004)">
	<stop  offset="0" style="stop-color:#706520"/>
	<stop  offset="1" style="stop-color:#716621"/>
</linearGradient>
<path style="fill-rule:evenodd;clip-rule:evenodd;fill:url(#SVGID_8_);" d="M87.6,47.7c0.667,0.166,1.316,0.75,1.95,1.75
	c0.633,1.066,0.617,1.8-0.05,2.2c-0.533,0.333-1.05,0.416-1.55,0.25c-0.767-0.233-1.45-0.317-2.05-0.25
	c-0.667,0.066-1.1-0.167-1.3-0.7c-0.267-0.7-0.817-1.184-1.65-1.45c-1.034-0.3-1.867-0.7-2.5-1.2L79.8,47.65l3.35-0.101
	C85.117,47.35,86.6,47.4,87.6,47.7z"/>
</svg>
