<?xml version="1.0" encoding="iso-8859-1"?>
<!-- Generator: Adobe Illustrator 15.1.0, SVG Export Plug-In . SVG Version: 6.00 Build 0)  -->
<!DOCTYPE svg PUBLIC "-//W3C//DTD SVG 1.1//EN" "http://www.w3.org/Graphics/SVG/1.1/DTD/svg11.dtd">
<svg version="1.1" id="FlashAICB" xmlns="http://www.w3.org/2000/svg" xmlns:xlink="http://www.w3.org/1999/xlink" x="0px" y="0px"
	 width="101.9px" height="64.15px" viewBox="0 0 101.9 64.15" style="enable-background:new 0 0 101.9 64.15;" xml:space="preserve"
	>
<path style="fill-rule:evenodd;clip-rule:evenodd;fill:#2B2E10;" d="M85.9,18.65l0.3-1c0.899-2.6,1.767-3.85,2.6-3.75
	c-0.733,1.267-1.45,3.55-2.149,6.85L86.4,21.1C86.333,20.233,86.167,19.417,85.9,18.65z M91.35,15.05
	c-0.166,0.267-0.333,0.667-0.5,1.2c-0.733,2.2-1.267,3.483-1.6,3.85l0.7-4.2c0.467-0.833,0.967-1.367,1.5-1.6L91.35,15.05z
	 M83.9,19.2c-0.767-0.7-1.517-1.284-2.25-1.75c-0.4-1-0.45-1.8-0.15-2.4c1.134,1.6,1.866,2.833,2.2,3.7L83.9,19.2z M95.1,26.9
	l-0.85-0.25c0.3-0.1,0.884-0.367,1.75-0.8c1.434-0.767,2.733-1.6,3.9-2.5C98.233,24.817,96.634,26,95.1,26.9z M93.25,30.25
	c-0.4-0.7-0.95-1.15-1.65-1.35c1.101,0.1,2.284,0.1,3.551,0l0.1,0.05c0.8,0.633,0.267,1.05-1.6,1.25L93.25,30.25z M90.75,30.35
	c-0.167-0.033-0.434-0.05-0.8-0.05c0.8,0.2,1.45,0.8,1.95,1.8c-2.134-0.2-3.65-0.6-4.551-1.2l0.051-0.05c0.6-0.8,1.05-1.3,1.35-1.5
	C89.15,29.717,89.816,30.05,90.75,30.35z M78.1,31.4l-0.449,0.4c1.533,0.333,3.183,0.3,4.949-0.1c1.867-0.4,3.267-1.067,4.2-2
	C86.4,30.167,86.1,30.933,85.9,32l-0.15,0.2c-0.467,0.633-0.967,1.116-1.5,1.45c0.2-1.267,0.483-2.134,0.85-2.601
	c-0.899,0.934-2.283,1.6-4.149,2c-1.767,0.4-3.417,0.434-4.95,0.101C76.634,32.45,77.333,31.867,78.1,31.4z M80.9,29.25
	c-0.7-0.1-1.601-0.15-2.7-0.15c-1.834-0.033-3.267-0.267-4.3-0.7c0.3-0.6,0.866-1.066,1.699-1.4c1,0.433,2.4,0.667,4.2,0.7
	c2.066,0.033,3.483,0.167,4.25,0.4C83.184,28.1,82.134,28.483,80.9,29.25z M82.1,24.8c-0.666-0.267-1.466-0.45-2.399-0.55
	c-1.934-0.3-3.2-0.633-3.8-1c1.166-0.2,2.383-0.167,3.649,0.1c0.167,0,1.384,0.283,3.65,0.85c-0.934-0.534-1.617-0.967-2.05-1.3
	H81.3c0.9,0.1,1.717,0.267,2.45,0.5h-0.1l0.149,0.05c0.467,0.1,0.834,0.283,1.101,0.55C84.467,24.333,83.533,24.6,82.1,24.8z
	 M80.3,19l0.8,1c1.134,1.167,2.367,2.117,3.7,2.85L81.2,22c-0.4-0.1-0.816-0.15-1.25-0.15l-0.45-0.5c-1.333-1.5-1.934-2.8-1.8-3.9
	C78.767,17.983,79.634,18.5,80.3,19z M77.55,6.4L76.65,7.6c-1.034,1.267-1.867,2.133-2.5,2.6l0.3-0.65H74.2c0.934-0.5,2-1.5,3.2-3
	L77.55,6.4z M63.65,11.25c1.533,0.9,2.716,1.45,3.55,1.65c1.267,0.233,2.666,0.05,4.2-0.55c0.966-0.434,1.683-0.883,2.149-1.35
	c-0.5,1-1.467,1.8-2.899,2.4c-1.534,0.667-2.934,0.85-4.2,0.55c-0.967-0.2-2.267-0.833-3.9-1.9l0.8-1L63.65,11.25z M68.7,6v1.35
	l-0.2-1.3L68.7,6z M44.95,12.25l-0.25,0.2c-0.967,0.867-1.767,1.533-2.4,2c0.934-1.434,1.567-2.717,1.9-3.85l0.35-0.3l0.95-0.25
	l0.95,0.3C46.217,10.75,45.717,11.383,44.95,12.25z M44.3,45.2V45.6c-0.533-0.8-1.167-1.55-1.9-2.25l-0.25-1.3
	c-0.533-3.233-0.333-5.033,0.6-5.399c0,0.8,0.1,1.816,0.3,3.05C43.417,41.566,43.833,43.4,44.3,45.2z M56.3,46.9
	c-0.166,0-0.483,0.066-0.95,0.199c0.534-0.633,0.983-1.25,1.351-1.85c0.967-1.4,1.833-3,2.6-4.8C58.5,42.85,57.5,45,56.3,46.9z
	 M26.9,18.5l1.75,1.65L25.9,18.4C26.3,18.4,26.633,18.433,26.9,18.5z M30.6,16.15l-0.05,0.2l-0.2-0.2H30.6z M37.45,14.35l-0.2,1.2
	c0.067-0.566,0.05-1.117-0.05-1.65l0.3-0.15L37.45,14.35z M40.25,12.2l1.1-0.8c-0.533,0.667-0.95,1.117-1.25,1.35L40.25,12.2z
	 M12.2,34.05l0.1,1.7c0.367,2.733,0.45,4.4,0.25,5l-1.35-5c0.1-1.167,0.367-1.983,0.8-2.45L12.2,34.05z M42.6,17.05l2.35-2.5
	c0.333,0.067,0.583,0.184,0.75,0.35c-0.5,0.8-1.383,1.45-2.65,1.95L42.6,17.05z M45.9,36.45l0.2,1.5c0.5,2.666,0.683,4.333,0.55,5
	L45,38.2c0-1.167,0.2-2.05,0.6-2.65L45.9,36.45z M57.5,48.95h0.15c1.166,0.267,0.866,1-0.9,2.2l-0.45,0.3
	c-0.767-0.467-1.55-0.634-2.35-0.5C54.816,50.517,56,49.85,57.5,48.95z M53.8,52.95l-0.75,0.35c0.934-0.2,1.917,0.084,2.95,0.851
	c-2.167,1.033-3.934,1.449-5.3,1.25V55.35c0.233-1.267,0.416-2.05,0.55-2.35C51.983,53.167,52.833,53.15,53.8,52.95z M43,49.5
	c0.6-0.1,1.067-0.1,1.4,0c-0.267,0.566-1.05,1.35-2.35,2.35c-0.8,0.101-1.75,0.367-2.85,0.801c-2.034,0.767-3.5,1.116-4.4,1.05
	c1-0.8,2.25-1.45,3.75-1.95l4.2-1.1c-1.1,0-2.067-0.084-2.9-0.25L40.1,50.3c1.1-0.399,2.033-0.649,2.8-0.75L43,49.5z M41.55,61.1
	l-0.2,0.7c1.6-0.467,3.25-1.434,4.95-2.899c1.767-1.5,2.817-2.967,3.15-4.4c-0.133,0.667,0,1.616,0.4,2.85L49.8,57.7
	c-0.1,0.934-0.333,1.717-0.7,2.35c-0.467-1.333-0.65-2.416-0.55-3.25c-0.4,1.467-1.45,2.95-3.15,4.45
	c-1.7,1.467-3.35,2.434-4.95,2.9C40.783,63.05,41.15,62.033,41.55,61.1z M40.65,44.95c-1.033-0.3-2.133-0.5-3.3-0.601
	c-0.934-0.833-1.4-1.633-1.4-2.399c1.9,1.033,3.333,1.934,4.3,2.7L40.65,44.95z M38.1,49.95l-0.7-0.25c-2.167-0.8-3.5-1.851-4-3.15
	c1.367,0,2.533,0.066,3.5,0.2l1.4,0.65c1.9,0.666,3.684,0.966,5.35,0.899l-4.2,1.101L38.1,49.95z M36.55,57.85V57.9
	c1.233-0.101,2.8-0.65,4.7-1.65c2.2-1.1,3.717-1.75,4.55-1.95c-0.867,0.5-1.7,1.483-2.5,2.95c-0.667,0.267-1.65,0.717-2.95,1.35
	c-1.9,1-3.467,1.551-4.7,1.65C35.65,59.45,35.95,58.65,36.55,57.85z M7.3,49.35c-0.733,0.034-1.683,0.217-2.85,0.551
	C2.25,50.533,0.767,50.8,0,50.7C1,50,2.283,49.434,3.85,49l4.25-0.8c-0.934-0.101-1.883-0.25-2.85-0.45l0.25-0.1
	c2.067-0.601,3.517-0.767,4.35-0.5C9.55,47.684,8.7,48.417,7.3,49.35z M15.75,53.45V53.35c0.267-1.1,0.5-1.866,0.7-2.3
	c0.7,0.2,1.55,0.25,2.55,0.15l-0.8,0.3c1-0.134,1.966,0.217,2.9,1.05C18.833,53.45,17.05,53.75,15.75,53.45z M14.8,55.3l-0.1,0.351
	c-0.2,1.033-0.5,1.816-0.9,2.35l-0.4-1.75c-0.066-0.6-0.05-1.083,0.05-1.45c-0.5,1.4-1.633,2.783-3.4,4.15
	c-1.7,1.267-3.417,2.1-5.15,2.5c0.4-1.033,0.85-2.033,1.35-3L6,59.2c1.7-0.4,3.4-1.25,5.1-2.55c1.767-1.367,2.9-2.75,3.4-4.15
	C14.4,53.167,14.5,54.1,14.8,55.3z M8.15,54.8c-0.5,0.167-1.483,0.55-2.95,1.15c-2.034,0.866-3.65,1.3-4.85,1.3
	c0.066-0.9,0.433-1.684,1.1-2.35V55c1.233-0.066,2.85-0.517,4.85-1.35c2.2-1,3.75-1.551,4.65-1.65
	C9.95,52.533,9.017,53.467,8.15,54.8z M21.65,49.9c-0.833-0.567-1.633-0.801-2.4-0.7c1.367-0.533,2.6-1.117,3.7-1.75h0.15
	c1.167,0.333,0.833,1.05-1,2.149L21.65,49.9z M25.25,39.2c-1,2.267-2.117,4.3-3.35,6.1l-0.95,0.15l1.5-1.75
	C23.55,42.3,24.483,40.8,25.25,39.2z"/>
<path style="fill-rule:evenodd;clip-rule:evenodd;fill:#B2584F;" d="M95.1,26.9c0.9,0.2,1.483,0.434,1.75,0.7
	c0.834,0.633,0.317,1.05-1.55,1.25L95.15,28.9c-1.267,0.1-2.45,0.1-3.551,0c0.7,0.2,1.25,0.65,1.65,1.35l0.25,0.5
	c-1.233-0.133-2.15-0.267-2.75-0.4c-0.934-0.3-1.6-0.633-2-1c-0.3,0.2-0.75,0.7-1.35,1.5L87.35,30.9c-0.466,0.633-0.966,1.1-1.5,1.4
	L85.9,32c0.199-1.067,0.5-1.833,0.899-2.3c-0.934,0.933-2.333,1.6-4.2,2c-1.767,0.4-3.416,0.433-4.949,0.1l0.449-0.4
	c0.634-0.633,1.45-1.283,2.45-1.95l0.351-0.2c1.233-0.767,2.283-1.15,3.149-1.15c-0.767-0.233-2.184-0.367-4.25-0.4
	c-1.8-0.034-3.2-0.267-4.2-0.7c0.601-1.133,2.051-1.8,4.351-2l2.149-0.2c1.434-0.2,2.367-0.466,2.801-0.8
	c-0.267-0.267-0.634-0.45-1.101-0.55c0.634,0.1,1.117,0.283,1.45,0.55c0.7,0.333,0.917,0.717,0.65,1.15
	c-0.233,0.467-1.084,0.817-2.551,1.05c-1.666,0.233-2.633,0.433-2.899,0.6c0.8,0.133,1.566,0.317,2.3,0.55l1.6-0.05
	c0.733-0.1,1.25-0.1,1.551,0c-0.134,0.467-0.601,1.1-1.4,1.9l1.5-0.75c0.5-0.3,0.95-0.65,1.35-1.05c0.233,0.1,0.483,0.417,0.75,0.95
	l0.25-0.9c0.801,0.6,1.467,0.5,2-0.3L90,26.8l1.3-0.3l1.101,0.15c0.466,0.033,0.85,0.033,1.149,0l-0.75-0.3
	c-0.233-0.133-0.399-0.3-0.5-0.5c0.4-0.033,0.884-0.267,1.45-0.7c0.634-0.5,1.083-0.816,1.35-0.95C94.7,24.1,94,24.15,93,24.35
	c-0.833,0.2-1.5,0.233-2,0.1c0.1-0.233,0.384-0.6,0.85-1.1l1-1.05c1.134-1.4,1.934-2.333,2.4-2.8l-2.4,1.8c-0.066,0-0.5,0.3-1.3,0.9
	c-0.566,0.4-1.05,0.55-1.45,0.45c0.467-1.8,0.733-2.95,0.801-3.45l-1.051,1.85l-0.699,0.9c-0.334,0.233-0.601,0.3-0.801,0.2
	c-0.433-0.233-0.5-1.217-0.199-2.95c0.5-1.8,0.75-2.8,0.75-3c-0.267,0.966-1.017,2.483-2.25,4.55c0.699-3.3,1.416-5.583,2.149-6.85
	c0.601-1,1.167-1.45,1.7-1.35l-0.55,3.35l-0.7,4.2c0.333-0.367,0.866-1.65,1.6-3.85c0.167-0.533,0.334-0.933,0.5-1.2
	c0.5-1.133,1.084-1.85,1.75-2.15c-0.267,1.833-0.583,3.434-0.949,4.8c-0.367,1.6-0.884,3-1.551,4.2L90.4,22.2l1.5-1.4
	c2.899-2.633,5.283-4.083,7.149-4.35L95.9,21c-0.834,1.033-1.7,1.85-2.601,2.45c-0.399,0.233-0.8,0.433-1.2,0.6L92.9,23.8
	c1-0.333,2.25-0.833,3.75-1.5c2.3-0.9,4.05-1.1,5.25-0.6c-0.7,0.667-1.367,1.216-2,1.65c-1.167,0.9-2.467,1.733-3.9,2.5
	c-0.866,0.433-1.45,0.7-1.75,0.8L95.1,26.9z M81.65,17.45c0.733,0.466,1.483,1.05,2.25,1.75c0.566,0.466,1.017,0.9,1.35,1.3
	l0.05,0.55c-1-0.7-1.934-1.15-2.8-1.35c0.233,0.267,0.934,0.9,2.1,1.9c0.934,0.8,1.367,1.533,1.301,2.2
	c-0.601-0.167-1.317-0.3-2.15-0.4c-0.733-0.233-1.55-0.4-2.45-0.5H81.15c-1.867-0.3-3.067-0.633-3.601-1
	c0.7-0.133,1.5-0.15,2.4-0.05c0.434,0,0.85,0.05,1.25,0.15l3.6,0.85c-1.333-0.733-2.566-1.684-3.7-2.85l-0.8-1
	c-0.733-1.067-1.05-2.033-0.95-2.9C80.25,16.567,81.017,17.017,81.65,17.45z M85.9,18.65c0.267,0.767,0.433,1.583,0.5,2.45
	c-0.534-0.1-0.967-0.65-1.301-1.65l0.051,0.2c-0.4-0.833-0.834-1.633-1.301-2.4c-0.866-1.567-1.1-2.75-0.699-3.55
	c1.133,1.6,1.866,2.833,2.199,3.7L85.9,18.65z M63.65,11.25l-3.301-2.3c0.267-0.1,0.917-0.15,1.95-0.15
	c0.767-0.033,1.334-0.183,1.7-0.45c-0.566-1.333-0.9-2.4-1-3.2c0.767,0.767,1.583,1.233,2.45,1.4c0.267-0.566,0.583-1.466,0.95-2.7
	c0.366-1.233,0.783-2.083,1.25-2.55l0.85,4.75l0.2,1.3V6l0.05-2.5C68.816,1.9,69.2,0.733,69.9,0c0.233,0.833,0.566,2.517,1,5.05
	c0.5-0.2,1.183-0.7,2.05-1.5c0.866-0.8,1.6-1.283,2.2-1.45c0.033,0.6-0.2,1.383-0.7,2.35c-0.5,0.9-0.75,1.6-0.75,2.1l2.8-2.4
	c1.3-1.1,2.35-1.566,3.15-1.4C79.35,3.65,78.667,4.833,77.6,6.3l-0.05,0.1L77.4,6.55c-1.2,1.5-2.267,2.5-3.2,3h0.25l-0.3,0.65
	L73.55,11c-0.467,0.467-1.184,0.917-2.149,1.35c-1.534,0.6-2.934,0.783-4.2,0.55C66.366,12.7,65.184,12.15,63.65,11.25z M69.15,10.3
	L70,10.15l0.25,0.05c0.1,0,0.2-0.083,0.3-0.25l0.55-0.4h0.051l0.199-0.2V9.3l0.101-0.1L71.4,9.15v-0.2l0.3,0.35
	c0.1-0.966,0.35-1.483,0.75-1.55c0.166,0,0.3,0.15,0.399,0.45c0.101,0.267,0.233,0.316,0.4,0.15L77.8,4.7l-3.85,2.25
	c-0.334,0.2-0.584,0.25-0.75,0.15c-0.334-0.2-0.351-0.684-0.05-1.45c0.433-0.833,0.683-1.367,0.75-1.6l-1.351,0.6l-0.95,1
	c-0.466,0.533-0.767,0.8-0.899,0.8c-0.4,0-0.684-0.367-0.851-1.1l-0.35-1.8l-0.05,2.6c-0.101,1.2-0.517,1.667-1.25,1.4
	c-0.167-1.333-0.384-2.45-0.65-3.35L66.4,6.6C66,7.633,65.9,8.5,66.1,9.2c-0.267-0.267-0.517-0.583-0.75-0.95
	c0.067,0.467,0.384,0.933,0.95,1.4c0.601,0.434,1.084,0.7,1.45,0.8c-0.2-0.434-0.4-0.717-0.6-0.85c0.267,0,0.6,0.15,1,0.45
	c0.466,0.3,0.8,0.45,1,0.45V10.3z M12.2,34.05c0-1.4,0.283-2.417,0.85-3.05c1.267,4.7,1.85,8.35,1.75,10.95l-0.05,0.5l2.55-5.8
	c1.3-2.367,2.55-3.95,3.75-4.75c-0.5,3.567-0.867,5.75-1.1,6.55c-0.4,1.566-0.9,2.866-1.5,3.899l-0.5,0.7l3.4-3.55
	c2-2.033,3.733-3.1,5.2-3.2c-0.533,1.334-0.966,2.3-1.3,2.9c-0.767,1.6-1.7,3.1-2.8,4.5l-1.5,1.75l0.95-0.15
	c1.233-0.2,1.983-0.233,2.25-0.1c1.133,0.3,0.8,1-1,2.1l-0.2,0.15c-1.1,0.633-2.333,1.217-3.7,1.75c0.767-0.101,1.567,0.133,2.4,0.7
	L22.2,50.3c-1.133,0.367-2.2,0.667-3.2,0.9c-1,0.1-1.85,0.05-2.55-0.15c-0.2,0.434-0.434,1.2-0.7,2.3v0.101
	c-0.2,1.066-0.483,1.816-0.85,2.25l-0.1-0.4c-0.3-1.2-0.4-2.133-0.3-2.8c-0.5,1.4-1.633,2.783-3.4,4.15C9.4,57.95,7.7,58.8,6,59.2
	l0.25-0.75c0.467-1.101,1.017-2.2,1.65-3.3L8.15,54.8c0.867-1.333,1.8-2.267,2.8-2.8c-0.9,0.1-2.45,0.65-4.65,1.65
	c-2,0.833-3.617,1.283-4.85,1.35v-0.1c0.167-1.534,1.383-2.95,3.65-4.25l2.2-1.301c1.4-0.933,2.25-1.666,2.55-2.199
	c-0.833-0.267-2.283-0.101-4.35,0.5l-0.25,0.1c-2.1,0.533-3.5,0.75-4.2,0.65l3.9-1.7c0.367-0.101,1.767-0.367,4.2-0.8
	C7.483,45.8,5.733,45.366,3.9,44.6L2.55,43.9c-1.333-0.867-2.15-1.784-2.45-2.75c0.967,0.033,2,0.166,3.1,0.399
	c1.2,0.233,2.25,0.5,3.15,0.8c0.8,0.2,1.517,0.467,2.15,0.801l0.25,0.55c-1.4-0.3-2.583-0.351-3.55-0.15l3.1,1.101
	c1.367,0.433,2.184,1.017,2.45,1.75c-0.7,0.133-1.55,0.35-2.55,0.649c0.633-0.166,1.3-0.2,2-0.1c0.833,0.1,1.233,0.416,1.2,0.95
	c-0.033,0.6-0.767,1.399-2.2,2.399c-1.567,1.066-2.467,1.75-2.7,2.05l2.65-0.55c0.4-0.1,0.967-0.383,1.7-0.85
	c0.7-0.434,1.233-0.684,1.6-0.75c0.1,0.733-0.067,1.649-0.5,2.75l1.2-1.5c0.4-0.601,0.7-1.217,0.9-1.851
	c0.333,0.034,0.733,0.267,1.2,0.7l-0.1-1.149c1.1,0.3,1.75-0.117,1.95-1.25c-0.233-0.134-0.417-0.2-0.55-0.2
	c0.6-0.566,1-0.884,1.2-0.95l2.45-0.95h-0.9c-0.333-0.033-0.6-0.133-0.8-0.3c0.433-0.233,0.833-0.717,1.2-1.45l0.95-1.7
	c-0.467,0.101-1.183,0.5-2.15,1.2c-0.833,0.634-1.517,0.983-2.05,1.05c0-0.399,0.117-0.933,0.35-1.6l0.6-1.65
	c0.4-1.733,0.783-3.149,1.15-4.25l-2.6,4.801c-0.4,0.699-0.833,1.1-1.3,1.199c-0.267-1.666-0.55-3.05-0.85-4.149l-0.2,2.5
	c-0.1,0.633-0.217,1.066-0.35,1.3v0.05c-0.167,0.367-0.4,0.55-0.7,0.55c-0.6-0.033-1.15-1.05-1.65-3.05l-0.65-3.7
	c0.167,1.2,0.1,3.267-0.2,6.2c-0.433-2.434-0.733-4.283-0.9-5.55c-0.1-1.366-0.133-2.384-0.1-3.05v-0.05
	c0.1-1.3,0.467-2.05,1.1-2.25l1.05,3.85l1.35,5c0.2-0.6,0.117-2.267-0.25-5L12.2,34.05z M40.25,12.2l-0.15,0.55
	c0.3-0.233,0.717-0.683,1.25-1.35L44,8.3c0.433,0.534,0.5,1.3,0.2,2.3c-0.333,1.133-0.967,2.417-1.9,3.85
	c0.633-0.467,1.434-1.133,2.4-2l0.25-0.2c0.933-0.9,1.65-1.467,2.15-1.7c0.033,0.967-0.55,2.15-1.75,3.55l-2.9,3.1l1.6-0.15
	c0.6-0.1,1.067,0.017,1.4,0.35c-0.5,0.8-1.383,1.45-2.65,1.95c-1.3,0.566-2.2,1.117-2.7,1.65c-0.4,0.4-0.75,1.35-1.05,2.85
	c-0.233,1.333-0.617,2.217-1.15,2.65c-0.867-0.5-1.383-1.3-1.55-2.4c-2.267,1.167-5.833,0.1-10.7-3.2c0.567,0,1.35,0.15,2.35,0.45
	c1.033,0.3,1.783,0.433,2.25,0.4c-0.4-0.5-0.933-1.033-1.6-1.6L26.9,18.5l-2.6-2.45l2.35,1.35c1.067,0.533,1.783,1.033,2.15,1.5
	c-0.066-0.167-0.833-1.25-2.3-3.25c-1-1.4-1.5-2.55-1.5-3.45c0.9,0.367,1.867,0.983,2.9,1.85c0.5,0.367,1.317,1.067,2.45,2.1
	l0.2,0.2l0.05-0.2c0.133-0.566,0.15-1.233,0.05-2s-0.333-1.467-0.7-2.1c0.066-0.066,0.15-0.083,0.25-0.05l-0.55-1.3
	c0.733,0.267,1.5,0.867,2.3,1.8l2.15,2.15L34,11.2c0-1.467,0.3-2.5,0.9-3.1c0.7,0.5,1.3,1.65,1.8,3.45
	c0.2,0.733,0.367,1.517,0.5,2.35c0.1,0.533,0.117,1.083,0.05,1.65l0.2-1.2l0.45-3.2c0.4-2.233,1.033-3.45,1.9-3.65
	c0.934-0.3,1.3,0.35,1.1,1.95C40.833,9.983,40.617,10.9,40.25,12.2z M59.3,40.45c-0.767,1.8-1.633,3.399-2.6,4.8
	c-0.367,0.6-0.816,1.217-1.351,1.85c0.467-0.133,0.784-0.199,0.95-0.199c1.167-0.301,1.917-0.4,2.25-0.301
	c1.167,0.267,0.867,1-0.899,2.2l-0.15,0.15c-1.5,0.899-2.684,1.566-3.55,2c0.8-0.134,1.583,0.033,2.35,0.5L56.9,51.85
	c-1.301,0.567-2.334,0.934-3.101,1.101c-0.967,0.2-1.816,0.217-2.55,0.05c-0.134,0.3-0.316,1.083-0.55,2.35V55.4
	C50.6,56.3,50.366,57.066,50,57.7l-0.15-0.351c-0.4-1.233-0.533-2.183-0.4-2.85c-0.333,1.434-1.383,2.9-3.15,4.4
	c-1.7,1.466-3.35,2.433-4.95,2.899l0.2-0.7c0.467-1.366,0.95-2.5,1.45-3.399l0.3-0.45c0.8-1.467,1.633-2.45,2.5-2.95
	c-0.833,0.2-2.35,0.851-4.55,1.95c-1.9,1-3.467,1.55-4.7,1.65V57.85c0-1.533,1.117-3.033,3.35-4.5l2.15-1.5
	c1.3-1,2.083-1.783,2.35-2.35c-0.333-0.1-0.8-0.1-1.4,0l-0.1,0.05c-0.767,0.101-1.7,0.351-2.8,0.75L39.85,50.4
	c-1.867,0.699-3.25,1.017-4.15,0.949c0.667-0.5,1.466-0.966,2.4-1.399l1.35-0.55l4.2-1.101c-1.667,0.066-3.45-0.233-5.35-0.899
	l-1.4-0.65c-1.333-0.7-2.2-1.55-2.6-2.55c1.034,0,2.05,0.05,3.05,0.149c1.167,0.101,2.267,0.301,3.3,0.601
	c0.767,0.166,1.467,0.383,2.1,0.649l0.35,0.551c-1.5-0.134-2.7-0.084-3.6,0.149c0.7,0.267,1.767,0.55,3.2,0.851
	c1.4,0.333,2.25,0.866,2.55,1.6c-0.8,0.2-1.55,0.45-2.25,0.75c0.533-0.2,1.117-0.267,1.75-0.2c0.9,0,1.317,0.283,1.25,0.851
	c0,0.6-0.683,1.449-2.05,2.55c-1.434,1.133-2.267,1.883-2.5,2.25c0.767-0.267,1.633-0.5,2.6-0.7c0.267-0.1,0.8-0.434,1.6-1
	c0.633-0.467,1.15-0.75,1.55-0.85c0.2,0.699,0.1,1.633-0.3,2.8l1.1-1.65c0.333-0.5,0.6-1.116,0.8-1.85c0.333,0,0.75,0.2,1.25,0.6
	l-0.25-1.1c1.167,0.2,1.8-0.283,1.9-1.45l-0.55-0.15c0.5-0.533,0.866-0.866,1.1-1c0.167-0.133,0.566-0.3,1.2-0.5
	c0.566-0.199,0.967-0.399,1.2-0.6l-0.95,0.05c-0.3,0-0.566-0.083-0.8-0.25c0.466-0.333,0.833-0.85,1.1-1.55
	c0.4-0.934,0.684-1.517,0.85-1.75c-0.466,0.1-1.149,0.55-2.05,1.35c-0.733,0.667-1.383,1.051-1.95,1.15c0-0.434,0.067-0.967,0.2-1.6
	c0.267-0.733,0.434-1.284,0.5-1.65c0.267-1.8,0.55-3.233,0.851-4.3L50.1,43.85c-0.3,0.733-0.7,1.167-1.2,1.301
	c-0.367-1.7-0.75-3.067-1.15-4.101c0.167,1.934,0.1,3.233-0.2,3.9L47.5,44.9l0.05,0.1c-0.167,0.366-0.4,0.55-0.7,0.55
	c-0.633,0-1.25-0.983-1.85-2.95l-0.9-3.649c0.233,1.2,0.3,3.283,0.2,6.25c-0.466-1.8-0.883-3.634-1.25-5.5
	c-0.2-1.233-0.3-2.25-0.3-3.05c0-1.367,0.3-2.15,0.9-2.351L45,38.2l1.65,4.75c0.133-0.667-0.05-2.334-0.55-5l-0.2-1.5
	c-0.1-1.467,0.1-2.55,0.6-3.25C48.167,37.9,49,41.5,49,44v0.5l0.85-2.6c0.333-0.934,0.766-2.051,1.3-3.351
	c1.1-2.434,2.233-4.083,3.399-4.95C54.283,37.2,54.066,39.4,53.9,40.2c-0.301,1.566-0.717,2.866-1.25,3.899l-0.4,0.7l3.1-3.649
	c1.867-2.2,3.534-3.4,5-3.601C60.083,38.483,59.733,39.45,59.3,40.45z M37.2,20.2v-0.05l2.25-1.1c0.9-0.367,1.55-0.733,1.95-1.1
	l-0.45-0.2c-0.133-0.167-0.267-0.283-0.4-0.35c0.934-0.967,1.684-1.833,2.25-2.6l-0.9,0.25c-0.333,0.1-0.633,0.1-0.9,0
	c0.333-0.466,0.5-0.95,0.5-1.45l-1.35,1.55c-0.533,0.667-1.017,1.133-1.45,1.4c-0.167-0.167-0.25-0.433-0.25-0.8V15.3
	c-0.034,0.3-0.117,0.633-0.25,1c-0.2,0.567-0.467,0.967-0.8,1.2l-1-1.35c-0.333-0.566-0.667-0.967-1-1.2v2.6
	c-0.233,0-0.483,0.067-0.75,0.2l-1.35-1.2c-0.833-0.833-1.517-1.383-2.05-1.65c0.467,1.267,0.6,2.117,0.4,2.55
	c-0.3-0.2-0.7-0.35-1.2-0.45l-1.25-0.35l2.35,1.85c1.067,0.767,1.65,1.467,1.75,2.1c-1.466,0-2.6-0.05-3.4-0.15l2.1,1.6
	c-0.333,0.133-0.683,0.367-1.05,0.7c0.8,0.467,1.8,0.35,3-0.35l2.75-1.7L37.2,20.2z M42.4,43.35c0.733,0.7,1.367,1.45,1.9,2.25
	c-0.466,0.101-0.966-0.017-1.5-0.35l-0.75-0.7l0.1,0.2c-0.633-0.5-1.517-1.1-2.65-1.8c-1.767-1.167-2.65-2.283-2.65-3.351
	c1.9,1.034,3.333,1.934,4.3,2.7C41.55,42.566,41.967,42.917,42.4,43.35z M36.35,24.1c0.4-0.233,0.717-0.467,0.95-0.7l-1-0.15
	L36.35,24.1z M10,43.2c-0.567,0.2-1.3-0.184-2.2-1.15l0.15,0.25c-0.467-0.467-1.317-1.149-2.55-2.05
	c-1.667-1.3-2.483-2.483-2.45-3.55c1.9,1.233,3.267,2.233,4.1,3c0.4,0.3,0.817,0.7,1.25,1.2C8.933,41.566,9.5,42.333,10,43.2z"/>
<path style="fill-rule:evenodd;clip-rule:evenodd;fill:#8A443D;" d="M85.25,20.5l-0.1-0.85l-0.051-0.2
	c0.334,1,0.767,1.55,1.301,1.65l0.25-0.35c1.233-2.067,1.983-3.583,2.25-4.55c0,0.2-0.25,1.2-0.75,3
	c-0.301,1.733-0.233,2.716,0.199,2.95c0.2,0.1,0.467,0.033,0.801-0.2c-0.067,0.267-0.233,0.583-0.5,0.95L87.1,21.4
	c-0.1,0.3-0.05,0.817,0.15,1.55l0.4,1.35l-0.2,0.3l-0.5-0.15c0.066,0.033,0.149,0.216,0.25,0.55L87.1,25.3
	c-0.733,0.3-1.267,0.65-1.6,1.05c0.267,0.066,0.616,0.066,1.05,0c0.467-0.1,0.816-0.083,1.05,0.05c-0.1,0.367-0.066,0.55,0.101,0.55
	l0.5-0.1l1.5,0.1l-0.25-0.5c0.633-0.167,1.116-0.483,1.45-0.95c-0.301-0.067-0.584-0.1-0.851-0.1l0.3-0.75l-0.55-0.2l0.25-0.65
	l-0.8,0.45c0.134-0.7,0.1-1.467-0.1-2.3l0.699-0.9L90.9,19.2c-0.067,0.5-0.334,1.65-0.801,3.45c0.4,0.1,0.884-0.05,1.45-0.45
	c0.8-0.6,1.233-0.9,1.3-0.9l2.4-1.8c-0.467,0.467-1.267,1.4-2.4,2.8l-1,1.05c-0.466,0.5-0.75,0.867-0.85,1.1
	c0.5,0.133,1.167,0.1,2-0.1c1-0.2,1.7-0.25,2.1-0.15c-0.267,0.133-0.716,0.45-1.35,0.95c-0.566,0.434-1.05,0.667-1.45,0.7
	c0.101,0.2,0.267,0.367,0.5,0.5l0.75,0.3c-0.3,0.033-0.684,0.033-1.149,0L91.3,26.5L90,26.8l0.35,0.35c-0.533,0.8-1.199,0.9-2,0.3
	l-0.25,0.9c-0.267-0.533-0.517-0.85-0.75-0.95c-0.399,0.4-0.85,0.75-1.35,1.05l-1.5,0.75c0.8-0.8,1.267-1.434,1.4-1.9
	c-0.301-0.1-0.817-0.1-1.551,0l-1.6,0.05c-0.733-0.233-1.5-0.417-2.3-0.55c0.267-0.167,1.233-0.367,2.899-0.6
	c1.467-0.233,2.317-0.583,2.551-1.05c0.267-0.433,0.05-0.816-0.65-1.15c-0.333-0.267-0.816-0.45-1.45-0.55L83.65,23.4h0.1
	c0.833,0.1,1.55,0.233,2.15,0.4c0.066-0.667-0.367-1.4-1.301-2.2c-1.166-1-1.866-1.633-2.1-1.9c0.866,0.2,1.8,0.65,2.8,1.35
	L85.25,20.5z M71.4,8.95l0.05-0.2c0.233-0.467,0.366-0.85,0.399-1.15C71.65,7.5,71.434,7.567,71.2,7.8c-0.2-0.2-0.45-0.3-0.75-0.3
	L70.4,7.35L70.35,7.5c-0.3-0.1-0.633-0.1-1,0c-0.866,0.1-1.433,0.4-1.699,0.9c-0.267-0.133-0.467-0.2-0.601-0.2
	c0,0.233,0.066,0.483,0.2,0.75l0.25,0.3c0.1,0.4,0.417,0.65,0.95,0.75l0.2,0.1h0.05c0.066,0.066,0.217,0.133,0.45,0.2v0.2
	c-0.2,0-0.534-0.15-1-0.45c-0.4-0.3-0.733-0.45-1-0.45c0.199,0.133,0.399,0.417,0.6,0.85c-0.366-0.1-0.85-0.367-1.45-0.8
	c-0.566-0.467-0.883-0.933-0.95-1.4c0.233,0.367,0.483,0.683,0.75,0.95C65.9,8.5,66,7.633,66.4,6.6l1.149-2.4
	c0.267,0.9,0.483,2.017,0.65,3.35c0.733,0.267,1.149-0.2,1.25-1.4l0.05-2.6l0.35,1.8c0.167,0.733,0.45,1.1,0.851,1.1
	c0.133,0,0.434-0.267,0.899-0.8l0.95-1l1.351-0.6c-0.067,0.233-0.317,0.767-0.75,1.6C72.85,6.417,72.866,6.9,73.2,7.1
	c0.166,0.1,0.416,0.05,0.75-0.15L77.8,4.7l-4.55,3.65c-0.167,0.167-0.3,0.117-0.4-0.15c-0.1-0.3-0.233-0.45-0.399-0.45
	c-0.4,0.067-0.65,0.583-0.75,1.55L71.4,8.95z M39.45,19.05L39.3,19.1l-0.55,0.05c-0.233,0-0.45-0.066-0.65-0.2l0.3-0.55l-0.35,0.4
	c-0.066-0.733-0.667-1.15-1.8-1.25c-0.3-0.066-0.583-0.066-0.85,0v-2.6c0.333,0.233,0.667,0.633,1,1.2l1,1.35
	c0.333-0.233,0.6-0.633,0.8-1.2c0.133-0.367,0.216-0.7,0.25-1v0.45c0,0.367,0.083,0.633,0.25,0.8c0.433-0.267,0.917-0.733,1.45-1.4
	l1.35-1.55c0,0.5-0.167,0.983-0.5,1.45c0.267,0.1,0.567,0.1,0.9,0l0.9-0.25c-0.566,0.767-1.316,1.633-2.25,2.6
	c0.133,0.067,0.267,0.184,0.4,0.35l0.45,0.2C41,18.317,40.35,18.683,39.45,19.05z M47.55,45l0.05,1.25l-2.45-0.75
	c0.1,0.366,0.45,0.884,1.05,1.55l1.15,1.2l-0.1,0.45l-0.55,0.1c0.167,0.066,0.35,0.217,0.55,0.45l0.1,0.4
	C46.817,50.35,46.467,51,46.3,51.6c0.3-0.066,0.667-0.25,1.1-0.55c0.5-0.333,0.85-0.517,1.05-0.55c0.1,0.467,0.233,0.65,0.4,0.55
	l0.45-0.399c0.834-0.301,1.367-0.534,1.601-0.7l-0.551-0.4c0.534-0.5,0.851-1.116,0.95-1.85L50.4,48.05
	c-0.067-0.3-0.101-0.616-0.101-0.95l-0.7,0.15l-0.1-0.85L48.9,47.3c-0.2-0.633-0.65-1.416-1.35-2.35c0.3-0.667,0.367-1.967,0.2-3.9
	c0.4,1.033,0.783,2.4,1.15,4.101c0.5-0.134,0.9-0.567,1.2-1.301L52.4,38.95c-0.301,1.066-0.584,2.5-0.851,4.3
	c-0.066,0.366-0.233,0.917-0.5,1.65c-0.133,0.633-0.2,1.166-0.2,1.6c0.567-0.1,1.217-0.483,1.95-1.15c0.9-0.8,1.584-1.25,2.05-1.35
	c-0.166,0.233-0.449,0.816-0.85,1.75c-0.267,0.7-0.634,1.217-1.1,1.55c0.233,0.167,0.5,0.25,0.8,0.25l0.95-0.05
	c-0.233,0.2-0.634,0.4-1.2,0.6c-0.634,0.2-1.033,0.367-1.2,0.5c-0.233,0.134-0.6,0.467-1.1,1l0.55,0.15
	c-0.101,1.167-0.733,1.65-1.9,1.45l0.25,1.1c-0.5-0.399-0.917-0.6-1.25-0.6c-0.2,0.733-0.466,1.35-0.8,1.85l-1.1,1.65
	c0.4-1.167,0.5-2.101,0.3-2.8c-0.4,0.1-0.917,0.383-1.55,0.85c-0.8,0.566-1.333,0.9-1.6,1c-0.966,0.2-1.833,0.434-2.6,0.7
	c0.233-0.367,1.066-1.117,2.5-2.25C45.317,51.6,46,50.75,46,50.15c0.067-0.567-0.35-0.851-1.25-0.851c-0.633-0.066-1.217,0-1.75,0.2
	c0.7-0.3,1.45-0.55,2.25-0.75c-0.3-0.733-1.15-1.267-2.55-1.6c-1.434-0.301-2.5-0.584-3.2-0.851c0.9-0.233,2.1-0.283,3.6-0.149
	L42.75,45.6l-0.6-0.85l-0.1-0.2l0.75,0.7c0.534,0.333,1.034,0.45,1.5,0.35V45.2c0.1-2.967,0.034-5.05-0.2-6.25L45,42.6
	c0.6,1.967,1.217,2.95,1.85,2.95C47.15,45.55,47.383,45.366,47.55,45z M34.65,17.75c-0.467,0.2-0.783,0.583-0.95,1.15v0.45
	c-0.2-0.1-0.383-0.15-0.55-0.15l0.55,0.25c0.1,0.466,0.5,0.833,1.2,1.1l-1.45,1.15c0.466,0,0.983-0.117,1.55-0.35l2.2-1.15l-0.5,0.5
	l-2.75,1.7c-1.2,0.7-2.2,0.817-3,0.35c0.367-0.333,0.716-0.567,1.05-0.7l-2.1-1.6c0.8,0.1,1.934,0.15,3.4,0.15
	c-0.1-0.633-0.683-1.333-1.75-2.1l-2.35-1.85L30.45,17c0.5,0.1,0.9,0.25,1.2,0.45c0.2-0.434,0.067-1.284-0.4-2.55
	c0.533,0.267,1.217,0.817,2.05,1.65L34.65,17.75z M13.25,42.8v1.3l-2.4-0.949c0.1,0.566,0.767,1.566,2,3L12.8,46.5l-0.6,0.1
	c0.2,0.067,0.383,0.233,0.55,0.5L12.8,47.4c-0.6,0.767-1,1.416-1.2,1.949c0.333-0.066,0.7-0.216,1.1-0.449
	c0.566-0.334,0.933-0.5,1.1-0.5c0.1,0.466,0.233,0.649,0.4,0.55l0.5-0.351l1.6-0.6l-0.5-0.45c0.534-0.434,0.883-1.017,1.05-1.75
	l-0.9,0.3l-0.1-0.949l-0.65,0.1l-0.05-0.85l-0.65,0.85c-0.1-0.6-0.517-1.434-1.25-2.5c0.133-0.233,0.25-0.667,0.35-1.3l0.2-2.5
	c0.3,1.1,0.583,2.483,0.85,4.149c0.467-0.1,0.9-0.5,1.3-1.199l2.6-4.801c-0.367,1.101-0.75,2.517-1.15,4.25L16.8,43
	c-0.233,0.667-0.35,1.2-0.35,1.6c0.533-0.066,1.216-0.416,2.05-1.05c0.967-0.7,1.683-1.1,2.15-1.2l-0.95,1.7
	c-0.367,0.733-0.767,1.217-1.2,1.45c0.2,0.167,0.467,0.267,0.8,0.3h0.9l-2.45,0.95c-0.2,0.066-0.6,0.384-1.2,0.95
	c0.133,0,0.317,0.066,0.55,0.2c-0.2,1.133-0.85,1.55-1.95,1.25l0.1,1.149c-0.467-0.434-0.867-0.666-1.2-0.7
	c-0.2,0.634-0.5,1.25-0.9,1.851l-1.2,1.5c0.433-1.101,0.6-2.017,0.5-2.75c-0.367,0.066-0.9,0.316-1.6,0.75
	c-0.733,0.467-1.3,0.75-1.7,0.85L6.5,52.35c0.233-0.3,1.133-0.983,2.7-2.05c1.433-1,2.167-1.8,2.2-2.399
	c0.033-0.534-0.367-0.851-1.2-0.95c-0.7-0.101-1.367-0.066-2,0.1c1-0.3,1.85-0.517,2.55-0.649c-0.267-0.733-1.083-1.317-2.45-1.75
	L5.2,43.55c0.966-0.2,2.15-0.149,3.55,0.15L8.5,43.15L7.8,42.05C8.7,43.017,9.433,43.4,10,43.2l0.05-0.4c0.3-2.934,0.367-5,0.2-6.2
	l0.65,3.7c0.5,2,1.05,3.017,1.65,3.05C12.85,43.35,13.083,43.167,13.25,42.8z"/>
<path style="fill-rule:evenodd;clip-rule:evenodd;fill:#542A26;" d="M87.1,25.3c-0.1,0.5,0.134,0.9,0.7,1.2
	c0.7,0.3,1.2,0.283,1.5-0.05h0.05V26.4l0.351-0.8c0-0.434-0.217-0.767-0.65-1c-0.233-0.333-0.6-0.5-1.1-0.5l-0.05,0.1H87.8
	l-0.149,0.1l-0.4-1.35c-0.2-0.733-0.25-1.25-0.15-1.55l1.551,1.5c0.267-0.367,0.433-0.683,0.5-0.95c0.199,0.833,0.233,1.6,0.1,2.3
	l0.8-0.45l-0.25,0.65l0.55,0.2l-0.3,0.75c0.267,0,0.55,0.033,0.851,0.1c-0.334,0.467-0.817,0.783-1.45,0.95l0.25,0.5l-1.5-0.1
	l-0.5,0.1c-0.167,0-0.2-0.184-0.101-0.55c-0.233-0.133-0.583-0.15-1.05-0.05c-0.434,0.066-0.783,0.066-1.05,0
	C85.833,25.95,86.366,25.6,87.1,25.3z M87.45,24.6l-0.2,0.3L87.2,25c-0.101-0.333-0.184-0.517-0.25-0.55L87.45,24.6z M67.65,8.4
	C67.55,8.5,67.5,8.667,67.5,8.9v0.35l-0.25-0.3c-0.134-0.267-0.2-0.517-0.2-0.75C67.184,8.2,67.384,8.267,67.65,8.4z M71.45,8.75
	L71.5,8.2c-0.033-0.167-0.134-0.3-0.3-0.4c0.233-0.233,0.45-0.3,0.649-0.2C71.816,7.9,71.684,8.283,71.45,8.75z M33.7,19.45
	l-0.55-0.25c0.167,0,0.35,0.05,0.55,0.15V19.45z M34.9,20.55H35c1.033,0.2,1.667-0.066,1.9-0.8l1.05-0.3
	c0.066-0.167,0.1-0.383,0.1-0.65l0.35-0.4l-0.3,0.55c0.2,0.133,0.417,0.2,0.65,0.2l0.55-0.05l0.15-0.05l-2.25,1.1v0.05L35,21.35
	c-0.567,0.233-1.083,0.35-1.55,0.35L34.9,20.55z M47.35,48.25l-1.15-1.2c-0.6-0.666-0.95-1.184-1.05-1.55l2.45,0.75L47.55,45
	l-0.05-0.1l0.05,0.05c0.7,0.934,1.15,1.717,1.35,2.35l0.6-0.899l0.1,0.85l0.7-0.15c0,0.334,0.033,0.65,0.101,0.95L51.3,47.7
	c-0.1,0.733-0.416,1.35-0.95,1.85l0.551,0.4c-0.233,0.166-0.767,0.399-1.601,0.7l-0.45,0.399c-0.167,0.101-0.3-0.083-0.4-0.55
	c-0.2,0.033-0.55,0.217-1.05,0.55c-0.433,0.3-0.8,0.483-1.1,0.55c0.167-0.6,0.517-1.25,1.05-1.949c0.167,0.533,0.533,0.816,1.1,0.85
	h0.3c0.867-0.033,1.35-0.316,1.45-0.85l0.05-0.051l-0.05-0.1l-0.05-1c-0.2-0.467-0.601-0.7-1.2-0.7c-0.4-0.2-0.867-0.184-1.4,0.05
	V48l-0.15,0.1L47.35,48.25z M47.25,48.7v0.55c-0.2-0.233-0.383-0.384-0.55-0.45L47.25,48.7z M13.25,42.75
	c0.733,1.066,1.15,1.9,1.25,2.5l0.65-0.85l0.05,0.85l0.65-0.1l0.1,0.949l0.9-0.3c-0.167,0.733-0.517,1.316-1.05,1.75L16.3,48
	l-1.6,0.6l-0.5,0.351c-0.167,0.1-0.3-0.084-0.4-0.55c-0.167,0-0.533,0.166-1.1,0.5c-0.4,0.233-0.767,0.383-1.1,0.449
	c0.2-0.533,0.6-1.183,1.2-1.949c0.1,0.633,0.534,0.966,1.3,1c0.933,0.066,1.45-0.184,1.55-0.75L15.7,47.6l-0.05-0.1v-1
	c-0.2-0.467-0.583-0.717-1.15-0.75c-0.367-0.233-0.833-0.25-1.4-0.05v0.1L12.95,45.9l-0.1,0.25c-1.233-1.434-1.9-2.434-2-3
	l2.4,0.949v-1.3V42.75z M12.75,47.1c-0.167-0.267-0.35-0.433-0.55-0.5l0.6-0.1l-0.05,0.4V47.1z"/>
<path style="fill-rule:evenodd;clip-rule:evenodd;fill:#C09756;" d="M87.2,25l0.05-0.1l0.2-0.3l0.2-0.3l0.149-0.1H87.9l0.05-0.1
	c0.5,0,0.866,0.167,1.1,0.5c0.434,0.233,0.65,0.566,0.65,1l-0.351,0.8v0.05H89.3c-0.3,0.333-0.8,0.35-1.5,0.05
	c-0.566-0.3-0.8-0.7-0.7-1.2L87.2,25z M70,10.15l-0.85,0.15c-0.233-0.066-0.384-0.133-0.45-0.2L68.65,10h-0.2
	C67.917,9.9,67.6,9.65,67.5,9.25V8.9c0-0.233,0.05-0.4,0.15-0.5c0.267-0.5,0.833-0.8,1.699-0.9c0.367-0.1,0.7-0.1,1,0h0.101
	c0.3,0,0.55,0.1,0.75,0.3c0.166,0.1,0.267,0.233,0.3,0.4l-0.05,0.55l-0.05,0.2v0.2L71.35,9.3v0.05l-0.199,0.2H71.1l-0.55,0.4
	L70,10.15z M38.05,18.8c0,0.267-0.033,0.483-0.1,0.65l-1.05,0.3c-0.233,0.733-0.867,1-1.9,0.8h-0.1c-0.7-0.267-1.1-0.633-1.2-1.1
	v-0.1V18.9c0.167-0.566,0.483-0.95,0.95-1.15c0.267-0.133,0.517-0.2,0.75-0.2c0.267-0.066,0.55-0.066,0.85,0
	C37.383,17.65,37.983,18.067,38.05,18.8z M47.25,49.25V48.7l0.1-0.45l0.05-0.15l0.15-0.1v-0.15c0.534-0.233,1-0.25,1.4-0.05
	c0.6,0,1,0.233,1.2,0.7l0.05,1l0.05,0.1L50.2,49.65c-0.101,0.533-0.583,0.816-1.45,0.85h-0.3c-0.567-0.033-0.934-0.316-1.1-0.85
	L47.25,49.25z M12.8,47.4L12.75,47.1V46.9l0.05-0.4l0.05-0.35l0.1-0.25L13.1,45.8v-0.1c0.566-0.2,1.033-0.184,1.4,0.05
	c0.567,0.033,0.95,0.283,1.15,0.75v1l0.05,0.1l-0.05,0.051c-0.1,0.566-0.617,0.816-1.55,0.75C13.333,48.366,12.9,48.033,12.8,47.4z"
	/>
</svg>
