<?xml version="1.0" encoding="iso-8859-1"?>
<!-- Generator: Adobe Illustrator 15.1.0, SVG Export Plug-In . SVG Version: 6.00 Build 0)  -->
<!DOCTYPE svg PUBLIC "-//W3C//DTD SVG 1.1//EN" "http://www.w3.org/Graphics/SVG/1.1/DTD/svg11.dtd">
<svg version="1.1" id="FlashAICB" xmlns="http://www.w3.org/2000/svg" xmlns:xlink="http://www.w3.org/1999/xlink" x="0px" y="0px"
	 width="187.95px" height="197.9px" viewBox="0 0 187.95 197.9" style="enable-background:new 0 0 187.95 197.9;"
	 xml:space="preserve">
<g>
	<g>
		<g>
			
				<radialGradient id="SVGID_1_" cx="37" cy="170.2998" r="7.6" gradientTransform="matrix(1 0 0 -0.3898 0 236.6831)" gradientUnits="userSpaceOnUse">
				<stop  offset="0" style="stop-color:#000000;stop-opacity:0.498"/>
				<stop  offset="1" style="stop-color:#000000;stop-opacity:0"/>
			</radialGradient>
			<path style="fill-rule:evenodd;clip-rule:evenodd;fill:url(#SVGID_1_);" d="M44.6,170.3c0,0.8-0.733,1.5-2.2,2.101
				c-1.5,0.566-3.3,0.85-5.4,0.85c-2.1,0-3.883-0.283-5.35-0.85c-1.5-0.601-2.25-1.301-2.25-2.101c0-0.833,0.75-1.533,2.25-2.1
				c1.467-0.601,3.25-0.9,5.35-0.9c2.1,0,3.9,0.3,5.4,0.9C43.867,168.767,44.6,169.467,44.6,170.3z"/>
			
				<radialGradient id="SVGID_2_" cx="71" cy="157.2998" r="7.6" gradientTransform="matrix(1 0 0 -0.3898 0 218.6157)" gradientUnits="userSpaceOnUse">
				<stop  offset="0" style="stop-color:#000000;stop-opacity:0.498"/>
				<stop  offset="1" style="stop-color:#000000;stop-opacity:0"/>
			</radialGradient>
			<path style="fill-rule:evenodd;clip-rule:evenodd;fill:url(#SVGID_2_);" d="M78.6,157.3c0,0.8-0.733,1.5-2.2,2.101
				c-1.5,0.566-3.3,0.85-5.4,0.85c-2.1,0-3.883-0.283-5.35-0.85c-1.5-0.601-2.25-1.301-2.25-2.101c0-0.833,0.75-1.533,2.25-2.1
				c1.467-0.601,3.25-0.9,5.35-0.9c2.1,0,3.9,0.3,5.4,0.9C77.867,155.767,78.6,156.467,78.6,157.3z"/>
			<g>
				<path style="fill-rule:evenodd;clip-rule:evenodd;fill:#56781F;" d="M37.25,173.6c-1.233-0.066-2.1-0.1-2.6-0.1l0.35-0.3
					c0.4-0.3,0.566-0.75,0.5-1.351c-0.133-0.666-0.2-1.149-0.2-1.449c0.7,0.333,1.1,0.85,1.2,1.55c0-1-0.117-1.851-0.35-2.55
					c0.3,0.3,0.567,0.75,0.8,1.35c0.1,0.333,0.25,0.85,0.45,1.55c0.233-0.7,0.417-1.2,0.55-1.5c0.233-0.533,0.633-0.85,1.2-0.95
					c0.034,0.233,0.083,0.684,0.15,1.351c0.033,0.633,0,1.066-0.1,1.3C38.934,173.167,38.283,173.533,37.25,173.6z"/>
				<path style="fill-rule:evenodd;clip-rule:evenodd;fill:#56781F;" d="M70,161.35c0-1.633-0.05-3.25-0.15-4.85
					c0.867,0.667,1.467,1.384,1.8,2.15c0.1-0.733,0.284-1.4,0.55-2c0.466,0.3,0.75,0.733,0.85,1.3c0.333-0.467,0.533-0.816,0.6-1.05
					c0.034,0.267,0.083,0.783,0.15,1.55c0.033,0.7,0,1.217-0.1,1.55c-0.2,0.6-0.5,0.934-0.9,1c-0.6,0-1.15,0-1.65,0L70,161.35z"/>
			</g>
			
				<radialGradient id="SVGID_3_" cx="55.1748" cy="164.375" r="55.1929" gradientTransform="matrix(1 0 0 -0.3179 0 216.6338)" gradientUnits="userSpaceOnUse">
				<stop  offset="0" style="stop-color:#000000;stop-opacity:0.2863"/>
				<stop  offset="1" style="stop-color:#000000;stop-opacity:0"/>
			</radialGradient>
			<path style="fill-rule:evenodd;clip-rule:evenodd;fill:url(#SVGID_3_);" d="M16.15,152c10.767-3.434,23.784-5.15,39.05-5.15
				c15.233,0,28.233,1.717,39,5.15s16.149,7.566,16.149,12.4c0,4.833-5.383,8.949-16.149,12.35c-10.767,3.434-23.767,5.15-39,5.15
				s-28.25-1.717-39.05-5.15C5.383,173.35,0,169.233,0,164.4C0,159.566,5.383,155.434,16.15,152z"/>
		</g>
		<g>
			<path style="fill-rule:evenodd;clip-rule:evenodd;fill:#C9C3AD;" d="M54.65,98.5l1.1-1.05l16.9,59.8
				c-0.2,0.333-0.55,0.5-1.05,0.5c-0.399,0-0.716-0.083-0.95-0.25l-0.25-0.25L54.65,98.5z"/>
			<g>
				<path style="fill-rule:evenodd;clip-rule:evenodd;fill:#757265;" d="M57.55,109.25l-2.2-8.05h1.45l15.85,56.05
					c-0.2,0.333-0.55,0.5-1.05,0.5c-0.399,0-0.716-0.083-0.95-0.25l-0.25-0.25v-0.05c0.767,0.033,1.233-0.2,1.4-0.7l-13.3-47.65
					C58.267,109.05,57.95,109.184,57.55,109.25z"/>
				<path style="fill-rule:evenodd;clip-rule:evenodd;fill:#FFFFFF;" d="M57.85,110.35l0.5-0.6l9.7,36.75
					c-2.667-9.342-4.95-17.225-6.85-23.65L57.85,110.35z"/>
			</g>
		</g>
		<g>
			<path style="fill-rule:evenodd;clip-rule:evenodd;fill:#C9C3AD;" d="M56.15,102.45L38.85,170.6
				c-0.133,0.4-0.583,0.601-1.35,0.601c-0.367,0-0.684-0.101-0.95-0.3l-0.25-0.351l18.6-69.35L56.15,102.45z"/>
			<g>
				<path style="fill-rule:evenodd;clip-rule:evenodd;fill:#757265;" d="M54.9,101.2l1.3,1.25L38.9,170.6
					c-0.033,0.4-0.433,0.601-1.2,0.601c-0.367,0-0.65-0.101-0.851-0.3L36.7,170.55c0.667,0.033,1.283-0.2,1.85-0.7l15.3-60.649
					H52.95L53,109l-0.2,0.05L54.9,101.2z"/>
				<path style="fill-rule:evenodd;clip-rule:evenodd;fill:#FFFFFF;" d="M52.75,109.2h0.2c-0.434,1.833-1.434,5.917-3,12.25
					c-1.867,7.533-3.184,12.667-3.95,15.399c-0.9,3.325-2.767,10.434-5.6,21.325c2.324-9.72,4.423-18.512,6.3-26.375L52.75,109.2z"
					/>
				<polygon style="fill-rule:evenodd;clip-rule:evenodd;fill:#FFFFFF;" points="53,109 52.95,109.2 52.75,109.2 52.8,109.05 				
					"/>
			</g>
		</g>
		<g>
			<path style="fill-rule:evenodd;clip-rule:evenodd;fill:#FC7A76;" d="M78.4,76.35c2.433,2.933,4.167,6.55,5.2,10.85
				c0.934,3.966,0.983,7.117,0.15,9.45c-0.767,2.1-1.35,3.4-1.75,3.9c-0.367,0.4-0.9,0.55-1.6,0.45l-1.4-0.2
				c-0.133,0.267-0.6,0.2-1.4-0.2c-1.2-0.666-1.983-1.5-2.35-2.5c-0.3-0.767-1.15-1.533-2.55-2.3
				c-0.567-0.267-1.267-0.316-2.101-0.15c-0.767,0.167-1.383,0.434-1.85,0.8c-1.033,1.367-2.167,2.7-3.4,4
				c-2.433,2.6-4.899,4.366-7.399,5.3c-5.634,2.1-11.417,1.134-17.351-2.9c-2-1.033-3.366-1.866-4.1-2.5
				c-1.1-1.033-2.033-3.1-2.8-6.2c-0.567-2.267-0.101-4.816,1.399-7.65c2-3.833,3.983-6.833,5.95-9
				c3.767-4.1,8.283-6.683,13.55-7.75c4.601-0.967,8.95-0.933,13.05,0.1C72.15,70.95,75.733,73.117,78.4,76.35z"/>
			<g>
				<path style="fill-rule:evenodd;clip-rule:evenodd;fill:#E8706D;" d="M65.15,93.2c-0.966-0.233-1.7-0.4-2.2-0.5
					c-0.833-0.167-1.617-0.267-2.351-0.3c-1.5-0.933-2.6-1.566-3.3-1.9c-1.3-0.633-2.483-0.967-3.55-1c0.5-0.333,1.517-1.1,3.05-2.3
					c0.4-0.167,0.783-0.25,1.15-0.25c2.066-0.2,3.716-0.15,4.95,0.15c0.967,0.267,2.15,0.767,3.55,1.5c2.1,1.066,3.167,1.6,3.2,1.6
					c-1.4-1.367-2.883-2.517-4.45-3.45c-1.9-1.167-3.717-1.867-5.45-2.1c0.867-0.833,1.6-1.6,2.2-2.3c1.566-0.2,3.3-0.017,5.2,0.55
					c1.7,0.5,3.217,1.2,4.55,2.1c1.933,1.333,3.083,3.6,3.45,6.8c-0.333,0.333-0.733,0.5-1.2,0.5c-0.233-0.933-0.567-1.633-1-2.1
					c-0.3-0.3-0.784-0.65-1.45-1.05c-0.733-0.433-1.25-0.75-1.55-0.95c-2.067-1.367-3.8-1.967-5.2-1.8
					c1.633,0.434,3.25,1.383,4.85,2.85c1.934,1.8,2.034,3.267,0.3,4.4c-0.367,0.267-1.133,0.3-2.3,0.1
					C66.333,93.45,65.517,93.267,65.15,93.2z"/>
				<path style="fill-rule:evenodd;clip-rule:evenodd;fill:#E8706D;" d="M63.35,80.6c0.467-0.633,0.867-1.25,1.2-1.85
					c-0.1,0.233-0.2,0.6-0.3,1.1c0.4-0.2,0.95-0.533,1.65-1c0.633-0.367,1.233-0.6,1.8-0.7c0.233-0.033,0.616-0.05,1.149-0.05
					c0.5,0.033,0.884,0,1.15-0.1c-1.434,1.3-2.367,2.184-2.8,2.65c3.267-0.733,6.233,0.017,8.899,2.25
					c-0.733,0.067-1.267,0.067-1.6,0c0.267,0.133,0.733,0.35,1.4,0.65c0.567,0.2,0.983,0.4,1.25,0.6c0.4,0.3,0.883,0.867,1.45,1.7
					c0.601,1.267,0.934,2.3,1,3.1l0.05,0.7l-0.1-0.15c-0.4,0.4-0.866,0.483-1.4,0.25l-0.05-0.1c-0.2-0.566-0.583-1.133-1.149-1.7
					c-0.7-0.633-1.217-1.117-1.55-1.45c0,0.1,0.1,0.684,0.3,1.75c-0.534-1.2-1.101-2.167-1.7-2.9c-2.033-2.267-3.65-3.65-4.85-4.15
					C67.917,80.733,65.983,80.533,63.35,80.6z"/>
				<path style="fill-rule:evenodd;clip-rule:evenodd;fill:#E8706D;" d="M82.45,86.45c0.167-0.534,0.183-1.434,0.05-2.7
					c0.667,1.8,1.117,3.4,1.35,4.8c-0.233,1.333-0.399,2.233-0.5,2.7c-0.233,0.967-0.533,1.6-0.899,1.9
					c-0.434-0.167-0.817-0.8-1.15-1.9c0.134-0.967,0.117-2.1-0.05-3.4C81.75,87.75,82.15,87.283,82.45,86.45z"/>
				<path style="fill-rule:evenodd;clip-rule:evenodd;fill:#E8706D;" d="M51.2,90.95c1.933,0.1,4.05,0.483,6.35,1.15
					c1.267,0.367,3.283,1.066,6.05,2.1c-0.5-0.233-1.5-0.817-3-1.75c6.3,1.867,7.884,3.1,4.75,3.7
					c-1.166,0.233-2.866,0.117-5.1-0.35c-2.333-0.533-4.083-0.716-5.25-0.55c2.133,1.9,4.434,2.567,6.9,2
					c-0.667,2.233-2.117,3.7-4.35,4.4c-1.566,0.5-3.85,0.649-6.85,0.449c-4.5-0.232-8.583-2.616-12.25-7.149l-4.351,0.7L33.9,95
					l3.8-1.55c0.933,0.533,1.983,0.75,3.149,0.65c-0.066,0.4-0.183,0.75-0.35,1.05c0.533-0.2,0.9-0.583,1.1-1.15
					c1.233-0.233,2.367-0.75,3.4-1.55c1.033-0.833,1.733-1.8,2.1-2.9c0.067,1.233,0.167,2.034,0.3,2.4
					C48.467,91.983,49.733,91.65,51.2,90.95z"/>
				<path style="fill-rule:evenodd;clip-rule:evenodd;fill:#CC6360;" d="M62.95,92.7c0.5,0.1,1.233,0.267,2.2,0.5
					c0.367,0.066,1.183,0.25,2.45,0.55c1.167,0.2,1.934,0.167,2.3-0.1c1.733-1.133,1.633-2.6-0.3-4.4
					c-1.6-1.467-3.216-2.417-4.85-2.85c1.4-0.167,3.133,0.434,5.2,1.8c0.3,0.2,0.816,0.517,1.55,0.95c0.667,0.4,1.15,0.75,1.45,1.05
					c0.433,0.466,0.767,1.167,1,2.1c-0.5,0-1-0.116-1.5-0.35l-0.351,2.8l-1.5,0.9c-0.8,0.167-1.416,0.434-1.85,0.8
					c-1.033,1.367-2.167,2.7-3.4,4c-2.433,2.6-4.899,4.366-7.399,5.3c-5.634,2.1-11.417,1.134-17.351-2.9
					c-1.866-1-3.149-1.767-3.85-2.3c-1.066-0.899-1.95-2.533-2.65-4.9l4.351-0.7c3.667,4.533,7.75,6.917,12.25,7.149
					c3,0.2,5.283,0.051,6.85-0.449c2.233-0.7,3.684-2.167,4.35-4.4c-2.466,0.567-4.767-0.1-6.9-2c1.167-0.167,2.917,0.017,5.25,0.55
					c2.233,0.467,3.934,0.583,5.1,0.35c3.134-0.6,1.55-1.833-4.75-3.7V92.4C61.333,92.434,62.117,92.533,62.95,92.7z"/>
				<path style="fill-rule:evenodd;clip-rule:evenodd;fill:#CC6360;" d="M82.45,93.15c0.366-0.3,0.667-0.933,0.899-1.9
					c0.101-0.467,0.267-1.367,0.5-2.7c0.634,3.367,0.601,6.067-0.1,8.1c-0.767,2.1-1.35,3.4-1.75,3.9c-0.367,0.4-0.9,0.55-1.6,0.45
					l-0.2-0.05c0.333-0.467,0.667-1.167,1-2.1c0.3-0.9,0.433-1.95,0.399-3.15c0-1.233-0.166-2.4-0.5-3.5l0.2-0.95
					C81.633,92.35,82.017,92.983,82.45,93.15z"/>
				<path style="fill-rule:evenodd;clip-rule:evenodd;fill:#CC6360;" d="M75.9,87.5v1.3l-0.2-0.55c-0.2-1.066-0.3-1.65-0.3-1.75
					c0.333,0.333,0.85,0.817,1.55,1.45c0.566,0.566,0.95,1.133,1.149,1.7l0.05,0.1c-0.367-0.167-0.783-0.517-1.25-1.05
					C76.434,88.133,76.1,87.733,75.9,87.5z"/>
				<path style="fill-rule:evenodd;clip-rule:evenodd;fill:#FC7A76;" d="M50.95,89.95c0.966-0.4,1.899-0.55,2.8-0.45
					c-0.934,0.6-1.783,1.083-2.55,1.45h-0.75L50.95,89.95z"/>
				<path style="fill-rule:evenodd;clip-rule:evenodd;fill:#FC7A76;" d="M57.55,92.1c-2.3-0.667-4.417-1.05-6.35-1.15
					c0.767-0.367,1.616-0.85,2.55-1.45c1.066,0.033,2.25,0.367,3.55,1c0.7,0.333,1.8,0.967,3.3,1.9h-0.05l0.05,0.05
					c1.5,0.933,2.5,1.517,3,1.75C60.833,93.167,58.816,92.467,57.55,92.1z"/>
				<path style="fill-rule:evenodd;clip-rule:evenodd;fill:#FC7A76;" d="M59.75,84.65L56.8,87.2c-0.566,0.267-1,0.466-1.3,0.6
					c-0.5,0.233-0.934,0.367-1.3,0.4l0.5-2.5C56.133,84.733,57.816,84.383,59.75,84.65z"/>
				<path style="fill-rule:evenodd;clip-rule:evenodd;fill:#FC7A76;" d="M65.2,86.75c1.566,0.934,3.05,2.083,4.45,3.45
					c-0.033,0-1.1-0.534-3.2-1.6c-1.4-0.733-2.583-1.233-3.55-1.5c-1.233-0.3-2.883-0.35-4.95-0.15c-0.367,0-0.75,0.083-1.15,0.25
					l2.95-2.55C61.483,84.883,63.3,85.583,65.2,86.75z"/>
				<path style="fill-rule:evenodd;clip-rule:evenodd;fill:#FC7A76;" d="M63.35,80.6c-0.333,0.533-0.8,1.117-1.399,1.75
					c-1,0.167-1.833,0.45-2.5,0.85l1.25-2.5L63.35,80.6z"/>
				<path style="fill-rule:evenodd;clip-rule:evenodd;fill:#FC7A76;" d="M67.15,82.9c-1.9-0.566-3.633-0.75-5.2-0.55
					c0.6-0.633,1.066-1.217,1.399-1.75c2.634-0.067,4.567,0.133,5.8,0.6c1.2,0.5,2.817,1.883,4.85,4.15c0.6,0.733,1.167,1.7,1.7,2.9
					l0.2,1.1c-0.067,1.167-0.317,1.983-0.75,2.45c-0.367-3.2-1.517-5.466-3.45-6.8C70.367,84.1,68.85,83.4,67.15,82.9z"/>
				<path style="fill-rule:evenodd;clip-rule:evenodd;fill:#FC7A76;" d="M81.25,87.85c-0.467,0.1-1.083-0.2-1.85-0.9
					c-0.2-0.2-0.466-0.567-0.8-1.1c-0.333-0.733-0.55-1.283-0.649-1.65l1.75-0.5C80.5,84.233,81.017,85.617,81.25,87.85z"/>
				<path style="fill-rule:evenodd;clip-rule:evenodd;fill:#FC7A76;" d="M79.65,89.65l-0.05-0.7c-0.066-0.8-0.399-1.833-1-3.1
					c0.334,0.533,0.601,0.9,0.8,1.1c0.767,0.7,1.383,1,1.85,0.9c0.167,1.3,0.184,2.433,0.05,3.4c-0.2-0.467-0.383-0.8-0.55-1
					l-0.1,0.9C80.417,90.583,80.083,90.083,79.65,89.65z"/>
				<path style="fill-rule:evenodd;clip-rule:evenodd;fill:#FC7A76;" d="M80.65,91.15l0.1-0.9c0.167,0.2,0.35,0.533,0.55,1
					l-0.2,0.95L80.65,91.15z"/>
				<path style="fill-rule:evenodd;clip-rule:evenodd;fill:#CC6360;" d="M73.95,92.3c0.466,0,0.866-0.167,1.2-0.5l0.2,1.95
					l-1.2,0.15L73.95,92.3z"/>
				<path style="fill-rule:evenodd;clip-rule:evenodd;fill:#CC6360;" d="M79.725,93.9c0.288-0.104,0.547-0.271,0.775-0.5l-0.05,0.55
					L79.725,93.9z M78.15,89.75c0.534,0.233,1,0.15,1.4-0.25l0.1,0.15c0.067,0.934,0.083,2.35,0.05,4.25l-0.55-0.05
					c-0.267-0.434-0.483-1.117-0.65-2.05C78.333,90.633,78.217,89.95,78.15,89.75z"/>
				<path style="fill-rule:evenodd;clip-rule:evenodd;fill:#CC6360;" d="M75.9,87.5c0.2,0.233,0.534,0.633,1,1.2
					c0.467,0.533,0.883,0.883,1.25,1.05c0.067,0.2,0.183,0.883,0.35,2.05c0.167,0.934,0.383,1.617,0.65,2.05l-2.4-0.1
					c0.267-1.333-0.017-2.983-0.85-4.95V87.5z"/>
				<path style="fill-rule:evenodd;clip-rule:evenodd;fill:#CC6360;" d="M80.45,93.95l0.05-0.55c0.267-0.3,0.467-0.7,0.6-1.2
					c0.334,1.1,0.5,2.267,0.5,3.5c0.034,1.2-0.1,2.25-0.399,3.15c-0.333,0.933-0.667,1.633-1,2.1L79,100.8
					c-0.133,0.267-0.6,0.2-1.4-0.2c-0.933-0.533-1.616-1.183-2.05-1.95l1.05,0.6c1.134,0.566,1.9,0.717,2.3,0.45
					c0.367-0.267,0.617-1.083,0.75-2.45c0,0.333,0.1,0.883,0.3,1.65c0.733,0.034,1.116-0.633,1.149-2
					c0.034-1.167-0.116-2.15-0.45-2.95H80.45z"/>
				<path style="fill-rule:evenodd;clip-rule:evenodd;fill:#CC6360;" d="M72.45,91.95c0.5,0.233,1,0.35,1.5,0.35l0.2,1.6
					c-0.633,0.167-0.966,0.267-1,0.3c-0.3,0.066-0.65,0.25-1.05,0.55L72.45,91.95z"/>
				<path style="fill-rule:evenodd;clip-rule:evenodd;fill:#CC6360;" d="M75.9,89.35c0.333,1.767,0.517,3.233,0.55,4.4H75.35
					l-0.2-1.95C75.583,91.333,75.833,90.517,75.9,89.35z"/>
				<path style="fill-rule:evenodd;clip-rule:evenodd;fill:#CC6360;" d="M75.9,88.8c0.833,1.967,1.117,3.617,0.85,4.95h-0.3
					c-0.034-1.167-0.217-2.633-0.55-4.4V88.8z"/>
				<path style="fill-rule:evenodd;clip-rule:evenodd;fill:#CC6360;" d="M79.65,89.65c0.433,0.434,0.767,0.934,1,1.5L80.5,93.4
					c-0.233,0.233-0.5,0.4-0.8,0.5C79.733,92,79.717,90.583,79.65,89.65z"/>
				<path style="fill-rule:evenodd;clip-rule:evenodd;fill:#CC6360;" d="M80.5,93.4l0.15-2.25l0.45,1.05
					C80.967,92.7,80.767,93.1,80.5,93.4z"/>
				<path style="fill-rule:evenodd;clip-rule:evenodd;fill:#9E4D4A;" d="M70.6,95.65l1.5-0.9L71.95,95.6
					C71.483,95.533,71.033,95.55,70.6,95.65z"/>
				<path style="fill-rule:evenodd;clip-rule:evenodd;fill:#9E4D4A;" d="M80.4,94.65c-0.5-0.033-0.917-0.3-1.25-0.8l1.3,0.1
					L80.4,94.65z"/>
				<path style="fill-rule:evenodd;clip-rule:evenodd;fill:#9E4D4A;" d="M76.5,94.55c-0.066,1.833-0.583,2.833-1.55,3L74.6,97.1
					c-0.033-0.067-0.183-1.133-0.45-3.2l1.2-0.15l0.101,1.9C75.85,95.45,76.2,95.083,76.5,94.55z"/>
				<path style="fill-rule:evenodd;clip-rule:evenodd;fill:#9E4D4A;" d="M73.15,94.2c0.034-0.034,0.367-0.133,1-0.3
					c0.267,2.067,0.417,3.133,0.45,3.2c-0.399-0.4-1.033-0.833-1.899-1.3c-0.134-0.066-0.384-0.133-0.75-0.2l0.149-0.85
					C72.5,94.45,72.85,94.267,73.15,94.2z"/>
				<path style="fill-rule:evenodd;clip-rule:evenodd;fill:#9E4D4A;" d="M79.95,98.9c-0.2-0.767-0.3-1.316-0.3-1.65
					c-0.133,1.367-0.383,2.184-0.75,2.45c-0.4,0.267-1.167,0.116-2.3-0.45l-1.05-0.6l-0.3-0.55c-0.033-0.1-0.133-0.283-0.3-0.55
					c0.966-0.167,1.483-1.167,1.55-3l0.25-0.8l2.4,0.1c0.333,0.5,0.75,0.767,1.25,0.8l0.05-0.7h0.2c0.333,0.8,0.483,1.783,0.45,2.95
					C81.066,98.267,80.684,98.934,79.95,98.9z"/>
				<path style="fill-rule:evenodd;clip-rule:evenodd;fill:#9E4D4A;" d="M76.45,93.75l0.05,0.8c-0.3,0.534-0.65,0.9-1.05,1.1
					l-0.101-1.9H76.45z"/>
				<polygon style="fill-rule:evenodd;clip-rule:evenodd;fill:#9E4D4A;" points="76.5,94.55 76.45,93.75 76.75,93.75 				"/>
				<path style="fill-rule:evenodd;clip-rule:evenodd;fill:#FC9E9C;" d="M66.1,70.5c-0.8,0.233-1.267,0.35-1.399,0.35
					c1.2,0.333,1.933,0.55,2.2,0.65c-0.5,0.434-1.45,0.617-2.85,0.55c-1.533-0.133-2.583-0.183-3.15-0.15
					c-1.267,0.133-2.3,0.434-3.1,0.9c-0.667,0.434-1.383,1.134-2.15,2.1c-0.6,0.767-1.9,1.983-3.9,3.65
					c-1.667,1.4-2.783,2.667-3.35,3.8c-0.933,1.933-1.4,2.917-1.4,2.95c-0.7,1.267-1.35,2.034-1.95,2.3
					c-0.333-0.434-0.85-0.55-1.55-0.35c-0.833,0.3-1.434,0.45-1.8,0.45l-0.05,2.45c-0.567-0.8-1.517-1.3-2.85-1.5
					c-1.767-0.233-2.816-0.433-3.15-0.6c0.2-0.2,0.483-0.45,0.85-0.75c0.3-0.333,0.533-0.7,0.7-1.1h-0.5
					c0.066-0.067,0.95-1.117,2.649-3.15c1.101-1.267,1.834-2.283,2.2-3.05l-0.1,0.35c0.633-0.367,1.399-1.184,2.3-2.45
					c0.934-1.333,1.684-2.216,2.25-2.65c1.2-0.933,3.267-2.15,6.2-3.65C56.066,69.5,60.7,69.133,66.1,70.5z"/>
				<path style="fill-rule:evenodd;clip-rule:evenodd;fill:#FC9E9C;" d="M41.65,92.7c0.1,0.5,0.083,0.933-0.05,1.3l-0.75,0.1
					c0.101-0.6,0.05-1.15-0.149-1.65l0.25,0.25H41.65z"/>
				<path style="fill-rule:evenodd;clip-rule:evenodd;fill:#FC9E9C;" d="M41.6,94c-0.2,0.567-0.566,0.95-1.1,1.15
					c0.167-0.3,0.283-0.65,0.35-1.05L41.6,94z"/>
			</g>
		</g>
		<g>
			<path style="fill-rule:evenodd;clip-rule:evenodd;fill:#FC7A76;" d="M21.7,14.7l-3-1.15c-1.567,0.567-3.601,1.2-6.101,1.9
				c-2.566,0.7-4.6,2.35-6.1,4.95c-1.3,2.267-1.95,3.034-1.95,2.3c-0.4-4.034-0.333-7.15,0.2-9.35c0.367-1.6,0.85-2.767,1.45-3.5
				C6.767,9.15,7.65,8.6,8.85,8.2c0.8-0.267,2.467-0.784,5-1.55c2.3-0.733,3.851-1.4,4.65-2l2-1.45l1.4-1.3
				c1.133-0.867,2.233-1.4,3.3-1.6c2.533-0.4,4.55-0.383,6.05,0.05C34.217,1.184,36.467,3.467,38,7.2
				c0.6,1.433,1.883,3.683,3.85,6.75c2.134,3.333,3.667,5.966,4.601,7.9c3.366,7.1,3.883,14.65,1.55,22.65
				c-1.6,5.434-6.1,11.467-13.5,18.1c-3.733,3.2-6.35,5.517-7.85,6.95c-2.5,2.367-4.05,4.35-4.65,5.95
				c-1.267,3.367-1.517,6.367-0.75,9c0.833,2.867,2.75,4.533,5.75,5c2.533,0.4,4.566,0.367,6.1-0.1
				c0.8-0.233,1.334-0.517,1.601-0.85l2.2,0.55c1.5,0.733,2.333,2,2.5,3.8c0.167,1.9-0.567,3.45-2.2,4.65
				c-1.167,0.833-2.467,1.367-3.9,1.601c-2.933,0.399-5.816,0.283-8.65-0.351c-3.867-0.866-6.85-2.633-8.95-5.3
				c-1.934-2.433-3.101-5.683-3.5-9.75c-0.4-4.066,0.1-7.483,1.5-10.25c1.633-3.233,4.149-6.35,7.55-9.35
				c1.967-1.733,5.066-4.183,9.3-7.35c3.6-3,6.317-5.95,8.15-8.85c2.433-3.9,3.866-8.483,4.3-13.75c0.434-5-0.816-9.717-3.75-14.15
				c-0.934-1.4-1.967-2.683-3.1-3.85l-1.45-1.35c-0.101,0.167-0.5,0.333-1.2,0.5c-1.333,0.333-3.383,0.5-6.15,0.5
				C25.883,15.85,24,15.467,21.7,14.7z"/>
			<g>
				<path style="fill-rule:evenodd;clip-rule:evenodd;fill:#E8706D;" d="M29.5,9.9c-0.066,0.367-0.333,0.733-0.8,1.1
					c0.833,0.133,1.716-0.566,2.649-2.1c-0.033,0.633-0.2,1.267-0.5,1.9c0.233-0.1,0.634-0.2,1.2-0.3
					c0.134,0.434,0.017,0.833-0.35,1.2c0.5,0.233,1.267,0.216,2.3-0.05c1.033-0.233,1.75-0.55,2.15-0.95
					c0.034,0.333,0.017,0.867-0.05,1.6c-0.033,0.7,0.034,1.217,0.2,1.55c0.233,0.533,0.967,1.316,2.2,2.35
					c0,0.033,0.517,0.6,1.55,1.7c0.634,0.7,1.134,1.3,1.5,1.8c0.333,0.433,0.617,1.017,0.85,1.75c0.133,0.433,0.317,1.066,0.55,1.9
					c0.866,2.4,1.133,4.683,0.8,6.85c-0.167,0.8-0.383,1.45-0.65,1.95c-0.066-4.5-1.483-8.733-4.25-12.7
					c-0.033-0.567-0.316-1.184-0.85-1.85c-0.233-0.267-0.783-0.833-1.65-1.7c0.4-0.233,0.567-0.466,0.5-0.7
					c-0.066-0.333-0.416-0.784-1.05-1.35c-0.467-0.434-0.566-1.017-0.3-1.75c-0.6,0.566-0.983,1.033-1.15,1.4v0.05
					c-0.966,0.634-2.216,1.017-3.75,1.15c-0.933,0.066-2.267,0.05-4-0.05L27,14.2c-0.533,0-0.934,0-1.2,0
					c-0.467-0.034-0.85-0.117-1.15-0.25l0.3-0.3c-0.3-0.1-0.784-0.167-1.45-0.2c-0.667-0.034-1.167-0.117-1.5-0.25h0.95
					c-1.5-0.367-2.417-0.883-2.75-1.55l-0.8,0.3l0.95-0.6c0.2,0.333,0.75,0.517,1.65,0.55c0.467,0.034,1.117,0.067,1.95,0.1
					c2.966,0.2,3.85-0.066,2.649-0.8c0.5,0.066,1.017-0.067,1.55-0.4C28.45,10.633,28.9,10.333,29.5,9.9z"/>
				<path style="fill-rule:evenodd;clip-rule:evenodd;fill:#E8706D;" d="M35.7,4.6c0.1-0.633-0.217-1.4-0.95-2.3
					c0.633,0.534,1.267,1.284,1.9,2.25c0.034,0.4,0.167,0.9,0.4,1.5c0.233,0.7,0.384,1.184,0.45,1.45c0.1,0.333,0.15,0.75,0.15,1.25
					c0.1,0.3,0.45,0.35,1.05,0.15l0.1-0.05L38.85,9c-0.033,0.367-0.183,0.65-0.45,0.85c-0.2,0.2-0.6,0.4-1.2,0.6
					C37.133,10.317,37.1,10.067,37.1,9.7c0-0.333-0.033-0.567-0.1-0.7s-0.217-0.333-0.45-0.6c-0.3-0.3-0.5-0.533-0.6-0.7
					C35.417,6.733,35.1,6.167,35,6c-0.333-0.533-0.767-1.033-1.3-1.5c0.5,0.067,0.866,0.283,1.1,0.65
					c-0.233-0.667-0.366-1.167-0.4-1.5C34.867,4.083,35.3,4.4,35.7,4.6z"/>
				<path style="fill-rule:evenodd;clip-rule:evenodd;fill:#E8706D;" d="M48.15,26.2c0.534,1.733,0.883,3.25,1.05,4.55
					c-0.333,1.067-0.5,2.383-0.5,3.95v4.4c0,1.2-0.3,2.683-0.9,4.45c-0.233,0.7-0.783,2.134-1.65,4.3c-0.3,0.667-0.633,1.217-1,1.65
					c-0.233,0.267-0.733,0.717-1.5,1.35c-1.466,1.133-2.617,2.617-3.45,4.45C40,55.8,39.6,56.317,39,56.85
					c-0.833,0.767-1.316,1.217-1.45,1.35c-0.267,0.3-0.55,0.75-0.85,1.35c-0.333,0.7-0.583,1.167-0.75,1.4
					c-0.101,0.167-0.351,0.367-0.75,0.6v0.05c-1.967,1.367-4.583,3.45-7.851,6.25c-0.8,0.7-1.816,1.5-3.05,2.4
					c-1.4,1-2.45,1.75-3.15,2.25c-0.6,0.4-1.05,0.717-1.35,0.95c-0.533,0.4-0.883,0.816-1.05,1.25l0.55-0.2
					c-0.767,0.8-1.15,2.117-1.15,3.95c-0.333,0.8-0.533,1.75-0.6,2.85c-0.066,1.1,0.033,2.05,0.3,2.85
					c0.167-0.333,0.284-0.867,0.351-1.6c-0.034,0.934,0.333,1.684,1.1,2.25c0.667,0.467,1.467,0.75,2.4,0.85
					c0.966,2.167,2.733,3.45,5.3,3.85c1.033,0.167,2.083,0.25,3.15,0.25l-0.7,0.4c-1.634,0.633-4,0.65-7.101,0.05
					c-0.7-0.167-1.533-0.467-2.5-0.9c-1.2-0.566-1.883-1.083-2.05-1.55v0.05c-0.1-0.3-0.417-0.933-0.95-1.9
					c-0.399-0.733-0.583-1.45-0.55-2.15c-0.5-0.233-0.7-1.117-0.6-2.65c0.033-0.567,0.183-1.7,0.45-3.4
					c0.067-0.2,0.467-1.267,1.2-3.2c0.067-0.2,0.45-0.85,1.15-1.95c0.5-0.833,0.717-1.517,0.65-2.05L19,70.8
					c0.233-0.733,0.95-1.566,2.15-2.5c0.9-0.7,1.867-1.3,2.9-1.8c0.2-0.1,0.583-0.233,1.15-0.4c0.5-0.167,0.866-0.317,1.1-0.45
					c0.567-0.367,1.367-1.05,2.4-2.05c1.667-1.333,4-3.434,7-6.3c0.3-0.267,0.85-0.65,1.649-1.15
					c0.733-0.433,1.267-0.816,1.601-1.15c0.5-0.5,1.033-1.3,1.6-2.4c0.667-1.067,1.833-2.567,3.5-4.5c0.3-0.367,0.75-0.934,1.35-1.7
					c0.5-0.7,0.767-1.383,0.8-2.05v0.25c1.015-1.045,1.507-2.987,1.475-5.825c-0.011-0.354-0.019-0.696-0.025-1.025
					c-0.044-2.014,0.056-3.564,0.3-4.65c0.161,0.646,0.245,1.038,0.25,1.175L48.15,26.2z"/>
				<path style="fill-rule:evenodd;clip-rule:evenodd;fill:#E8706D;" d="M19,92.45l-0.5-0.1c0.533,0.533,1.3,0.867,2.3,1
					c0.567,0.1,1.417,0.167,2.55,0.2L22.45,93.7c-0.367,0.066-0.667,0.167-0.9,0.3c0.5,0.2,1.2,0.283,2.1,0.25
					c1.167-0.066,1.867-0.083,2.1-0.05l-0.55,0.25c0.267,0.033,1.083,0.05,2.45,0.05c-0.333,0.1-0.65,0.333-0.95,0.7
					c1.033,0.25,2.066,0.267,3.1,0.05c-0.434,0.107-0.867,0.29-1.3,0.55c0.9,0.1,2.233-0.05,4-0.45l-0.05,0.2
					c0.399,0.034,1-0.066,1.8-0.3c0.4-0.133,0.983-0.333,1.75-0.6c1.167-0.3,2.316-0.683,3.45-1.15c-0.067,0.633-0.15,1.1-0.25,1.4
					L39,94.55c-1.1,1.534-2.967,2.534-5.6,3c-1.267,0.2-3.466,0.3-6.6,0.3c-0.866,0.033-1.566,0.05-2.1,0.05
					c-0.967-0.033-1.667-0.15-2.101-0.35c-0.3-0.133-0.649-0.433-1.05-0.9c-0.3-0.333-0.767-0.566-1.4-0.7
					c-1.133-0.2-2.05-0.417-2.75-0.65c-0.8-0.733-1.367-1.333-1.7-1.8c-2.067-2.566-3.25-6.117-3.55-10.65l0.25,0.65
					c0.767,1.5,2,3.333,3.7,5.5c-0.133-0.066-0.3-0.133-0.5-0.2c-0.333-0.066-0.517-0.1-0.55-0.1c0,0.667,0.517,1.383,1.55,2.15
					C17.133,91.25,17.934,91.783,19,92.45z"/>
				<path style="fill-rule:evenodd;clip-rule:evenodd;fill:#CC6360;" d="M19.15,11.95L14.7,14.7l-0.2,0.1
					c-0.133-0.233-0.167-0.616-0.1-1.15L19.15,11.95z"/>
				<path style="fill-rule:evenodd;clip-rule:evenodd;fill:#CC6360;" d="M23.5,13.45c0.667,0.033,1.15,0.1,1.45,0.2l-0.3,0.3
					c0.3,0.133,0.683,0.216,1.15,0.25c0.267,0,0.667,0,1.2,0l-0.4,0.45c1.733,0.1,3.067,0.117,4,0.05
					c1.534-0.133,2.784-0.517,3.75-1.15V13.5c0.167-0.367,0.55-0.833,1.15-1.4c-0.267,0.733-0.167,1.316,0.3,1.75
					c0.634,0.566,0.983,1.017,1.05,1.35c0.067,0.233-0.1,0.466-0.5,0.7c0.867,0.867,1.4,1.434,1.601,1.7
					c0.533,0.667,0.816,1.283,0.85,1.85c-0.866-1.233-1.833-2.367-2.9-3.4l-1.3-1.2c-0.1,0.167-0.5,0.333-1.2,0.5
					c-1.333,0.333-3.383,0.5-6.15,0.5c-1.467,0-3.383-0.383-5.75-1.15l-3.05-1.15c-0.5,0.333-1.75,0.717-3.75,1.15l4.45-2.75
					l1.05-0.3c0.333,0.667,1.25,1.184,2.75,1.55H22C22.333,13.333,22.833,13.417,23.5,13.45z"/>
				<path style="fill-rule:evenodd;clip-rule:evenodd;fill:#CC6360;" d="M38.7,8.9c-0.601,0.2-0.95,0.15-1.05-0.15
					c0-0.5-0.05-0.917-0.15-1.25c-0.066-0.267-0.217-0.75-0.45-1.45c-0.233-0.6-0.366-1.1-0.4-1.5c0.534,0.8,0.983,1.684,1.35,2.65
					l0.8,1.65L38.7,8.9z"/>
				<path style="fill-rule:evenodd;clip-rule:evenodd;fill:#CC6360;" d="M48.7,39.1v-4.4c0-1.567,0.167-2.883,0.5-3.95
					c0.6,4.4,0.2,8.983-1.2,13.75c-1.6,5.434-6.1,11.467-13.5,18.1c-3.733,3.2-6.35,5.517-7.85,6.95c-2.5,2.367-4.05,4.35-4.65,5.95
					c-1.5,4.033-1.6,7.417-0.3,10.15c-0.934-0.1-1.733-0.383-2.4-0.85c-0.767-0.566-1.133-1.316-1.1-2.25
					c-0.067,0.733-0.184,1.267-0.351,1.6c-0.267-0.8-0.366-1.75-0.3-2.85c0.067-1.1,0.267-2.05,0.6-2.85
					c0-1.833,0.383-3.15,1.15-3.95l-0.55,0.2c0.167-0.434,0.517-0.85,1.05-1.25c0.3-0.233,0.75-0.55,1.35-0.95
					c0.7-0.5,1.75-1.25,3.15-2.25c1.233-0.9,2.25-1.7,3.05-2.4c3.267-2.8,5.884-4.883,7.851-6.25v-0.05
					c0.399-0.233,0.649-0.433,0.75-0.6c0.167-0.233,0.417-0.7,0.75-1.4c0.3-0.6,0.583-1.05,0.85-1.35
					c0.134-0.133,0.617-0.583,1.45-1.35c0.6-0.533,1-1.05,1.2-1.55c0.833-1.833,1.983-3.316,3.45-4.45
					c0.767-0.633,1.267-1.083,1.5-1.35c0.367-0.433,0.7-0.983,1-1.65c0.867-2.167,1.417-3.6,1.65-4.3
					C48.4,41.783,48.7,40.3,48.7,39.1z"/>
				<path style="fill-rule:evenodd;clip-rule:evenodd;fill:#CC6360;" d="M17.4,95.3c0.7,0.233,1.617,0.45,2.75,0.65
					c0.633,0.133,1.1,0.367,1.4,0.7c0.4,0.467,0.75,0.767,1.05,0.9c0.434,0.2,1.134,0.317,2.101,0.35c0.533,0,1.233-0.017,2.1-0.05
					c3.134,0,5.333-0.1,6.6-0.3c2.633-0.466,4.5-1.466,5.6-3l0.2,0.35c-0.4,1.267-1.3,2.3-2.7,3.1c-1.033,0.6-2.1,0.983-3.2,1.15
					c-2.5,0.366-5.017,0.333-7.55-0.101C22.35,98.45,19.566,97.2,17.4,95.3z"/>
				<path style="fill-rule:evenodd;clip-rule:evenodd;fill:#FC9E9C;" d="M21.75,3.25c0.267-0.267,0.617-0.667,1.05-1.2
					c0.733-0.667,1.6-1.133,2.6-1.4c0.9-0.233,1.833-0.333,2.8-0.3c0.5,0.033,0.983,0.183,1.45,0.45c0.633,0.4,1.067,0.634,1.3,0.7
					c-0.2,0-1.017-0.066-2.45-0.2c-1.033-0.066-1.85-0.05-2.45,0.05C25.617,1.417,25.167,1.633,24.7,2
					c-0.534,0.434-0.95,0.75-1.25,0.95c-1.233,0.767-2.034,1.383-2.4,1.85c-0.333,0.634-0.566,1.034-0.7,1.2
					C20.117,6.3,19.667,6.35,19,6.15L20.35,5l0.15-1C20.9,4,21.316,3.75,21.75,3.25z"/>
				<path style="fill-rule:evenodd;clip-rule:evenodd;fill:#FC9E9C;" d="M39.1,14c0.198,0.132,0.332,0.199,0.4,0.2h-0.3
					c0.899,0.433,1.767,1.216,2.6,2.35c0.4,0.567,1.05,1.634,1.95,3.2c0.967,1.667,1.517,2.633,1.65,2.9
					c0.467,1.067,0.65,2.15,0.55,3.25c-0.601-1.5-1.067-2.617-1.4-3.35c-0.6-1.3-1.233-2.366-1.9-3.2c-1-1.033-1.8-1.883-2.4-2.55
					c-1.066-1.233-1.583-2.216-1.55-2.95C38.8,13.817,38.934,13.867,39.1,14z"/>
				<path style="fill-rule:evenodd;clip-rule:evenodd;fill:#FC9E9C;" d="M45.35,31.35L45.7,34c0.366,3.1-0.7,7.05-3.2,11.85
					c-1.3,2.533-2.9,4.783-4.8,6.75c-1.5,1.533-3.617,3.283-6.351,5.25c-2.033,1.467-4.95,3.933-8.75,7.4L17.5,70l1.35-2
					c0.733-1.1,2.867-3.233,6.4-6.4c3.833-3.434,7.15-6.083,9.95-7.95c2.5-1.667,4.833-4.966,7-9.9l2.5-6.9
					c0.066-1.033,0.2-2.267,0.399-3.7L45.35,31.35z"/>
				<path style="fill-rule:evenodd;clip-rule:evenodd;fill:#FC9E9C;" d="M15.2,73.6c0.7-0.967,0.533-0.117-0.5,2.55
					c-0.2,0.567-0.434,1.75-0.7,3.55c-0.1,0.9-0.2,1.733-0.3,2.5c-0.101,0.1-0.217,0.083-0.351-0.05
					c-0.233-0.333-0.35-1.167-0.35-2.5C13,77.55,13.733,75.533,15.2,73.6z"/>
				<path style="fill-rule:evenodd;clip-rule:evenodd;fill:#FC9E9C;" d="M33.2,90.65c1.267-0.2,2.1-0.017,2.5,0.55h0.5
					c0.267,1.167-0.65,1.9-2.75,2.2c-1.233,0.167-2.733,0.167-4.5,0c-0.2-0.566-0.934-0.933-2.2-1.1
					c-1.367-0.2-2.217-0.566-2.55-1.1c0.7-0.034,1.733-0.034,3.1,0c1.4,0.033,2.434,0.017,3.1-0.05
					C30.867,91.15,31.8,90.983,33.2,90.65z"/>
			</g>
		</g>
		<g>
			
				<linearGradient id="SVGID_4_" gradientUnits="userSpaceOnUse" x1="2.7847" y1="15.5977" x2="18.9806" y2="15.5977" gradientTransform="matrix(0.9833 -0.1821 0.1821 0.9833 3.467649e-004 -3.637373e-005)">
				<stop  offset="0" style="stop-color:#FFE875"/>
				<stop  offset="0.2471" style="stop-color:#FFE575"/>
				<stop  offset="0.4314" style="stop-color:#FFDB75"/>
				<stop  offset="0.5922" style="stop-color:#FECC75"/>
				<stop  offset="0.7451" style="stop-color:#FDB575"/>
				<stop  offset="0.8824" style="stop-color:#FD9876"/>
				<stop  offset="1" style="stop-color:#FC7A76"/>
			</linearGradient>
			<path style="fill-rule:evenodd;clip-rule:evenodd;fill:url(#SVGID_4_);" d="M21.65,5.8c0.867,0.867,1.3,1.75,1.3,2.65
				c-0.034,1-0.517,1.917-1.45,2.75c-1.5,1.3-2.3,2.017-2.4,2.15l-0.2,0.3l-0.2-0.1c-1.567,0.567-3.601,1.2-6.101,1.9
				c-2.566,0.7-4.6,2.35-6.1,4.95c-1.3,2.267-1.95,3.034-1.95,2.3c-0.4-4.034-0.333-7.15,0.2-9.35c0.367-1.6,0.85-2.767,1.45-3.5
				C6.767,9.15,7.65,8.6,8.85,8.2c0.8-0.267,2.467-0.784,5-1.55c2.3-0.733,3.851-1.4,4.65-2l0.35-0.25
				C19.816,4.467,20.75,4.934,21.65,5.8z"/>
			<path style="fill-rule:evenodd;clip-rule:evenodd;fill:#5C4E3E;" d="M4.75,13.35c0.333-1.5,0.767-2.6,1.3-3.3
				c0.5-0.7,1.267-1.25,2.3-1.65L9.9,8.45C9.833,8.85,9.517,9.233,8.95,9.6c-0.667,0.433-1.083,0.783-1.25,1.05l0.7,0.05
				c-0.233,1.033,0.1,1.533,1,1.5c0.067,0.533,0,1.267-0.2,2.2c0.399,0.034,0.983,0,1.75-0.1c0.733-0.133,1.316-0.183,1.75-0.15
				c0.566,0.067,1.417,0.233,2.55,0.5l-2.65,0.8c-2.566,0.7-4.6,2.35-6.1,4.95c-1.3,2.267-1.95,3.034-1.95,2.3
				C4.15,18.667,4.217,15.55,4.75,13.35z"/>
			
				<radialGradient id="SVGID_5_" cx="8.8999" cy="8.8999" r="10.5875" gradientTransform="matrix(1 0 0 -1 0 17.7998)" gradientUnits="userSpaceOnUse">
				<stop  offset="0" style="stop-color:#FFFFFF"/>
				<stop  offset="1" style="stop-color:#FFD88C;stop-opacity:0"/>
			</radialGradient>
			<path style="fill-rule:evenodd;clip-rule:evenodd;fill:url(#SVGID_5_);" d="M5.7,17.95c-0.134-1.367,0.2-3,1-4.9
				c0.8-2,1.767-3.316,2.899-3.95c0.5-0.267,1.25-0.467,2.25-0.6c0.534-0.1,1.3-0.217,2.3-0.35c2.567-0.433,4.233-0.583,5-0.45
				c0.167,1.6-0.583,3.083-2.25,4.45c-1.167,0.967-2.667,1.8-4.5,2.5c-2.567,1-4.8,2.333-6.7,4c-0.067-0.233-0.067-0.433,0-0.6
				c0.033-0.066,0.116-0.183,0.25-0.35L5.7,17.95z"/>
			<path style="fill-rule:evenodd;clip-rule:evenodd;fill:#CF6461;" d="M23.2,5.35c-0.067-1.3,0.85-1.867,2.75-1.7
				c1.899,0.167,2.683,0.9,2.35,2.2c-0.267-0.4-0.733-0.684-1.4-0.85c-0.7-0.167-1.267-0.1-1.7,0.2c-0.4,0.267-0.634,0.716-0.7,1.35
				c-0.033,0.367-0.033,0.9,0,1.6c-0.8-0.1-1.267-0.4-1.4-0.9C23,6.917,23.033,6.283,23.2,5.35z"/>
			<path style="fill-rule:evenodd;clip-rule:evenodd;fill:#FC908D;" d="M22.85,5.85H22.5c0-0.867,0-1.317,0-1.35
				c0.066-0.467,0.3-0.833,0.7-1.1c0.333-0.267,0.767-0.417,1.3-0.45c0.533-0.034,0.934,0.1,1.2,0.4
				c-0.934,0.367-1.517,0.633-1.75,0.8C23.45,4.517,23.083,5.083,22.85,5.85z"/>
			<path style="fill-rule:evenodd;clip-rule:evenodd;fill:#544739;" d="M28.7,6.6c0,0.566-0.2,1.066-0.601,1.5
				c-0.433,0.4-0.933,0.6-1.5,0.6c-0.566,0-1.066-0.2-1.5-0.6c-0.399-0.434-0.6-0.934-0.6-1.5c0-0.567,0.2-1.067,0.6-1.5
				c0.434-0.4,0.934-0.6,1.5-0.6c0.567,0,1.067,0.2,1.5,0.6C28.5,5.533,28.7,6.033,28.7,6.6z"/>
			<path style="fill-rule:evenodd;clip-rule:evenodd;fill:#FC908D;" d="M29.2,5.5h0.649c0.8,0.567,1.05,1.233,0.75,2
				c-0.233,0.7-0.8,1.3-1.7,1.8c-0.867,0.5-1.667,0.684-2.4,0.55c-0.833-0.133-1.316-0.684-1.45-1.65c1.033,0.6,2.067,0.6,3.1,0
				c0.567-0.333,0.9-0.7,1-1.1C29.184,6.967,29.2,6.434,29.2,5.5z"/>
			<path style="fill-rule:evenodd;clip-rule:evenodd;fill:#8A755D;" d="M27,5.35c0.267,0.367,0.133,0.767-0.4,1.2
				c-0.533,0.367-0.95,0.35-1.25-0.05c-0.267-0.367-0.133-0.767,0.4-1.2c0.233-0.167,0.467-0.233,0.7-0.2
				C26.684,5.1,26.867,5.184,27,5.35z"/>
		</g>
		<g>
			<path style="fill-rule:evenodd;clip-rule:evenodd;fill:#56781F;" d="M37.15,171.2c0.9-1.101,1.3-2.083,1.2-2.95
				c0.3,0.634,0.417,1.4,0.351,2.3c-0.134,1.067-0.583,1.55-1.351,1.45v-0.8H37.15z"/>
			<path style="fill-rule:evenodd;clip-rule:evenodd;fill:#56781F;" d="M36.5,170.7v-2.65c0.467,0.767,0.617,1.75,0.45,2.95H36.35
				v-0.65L36.5,170.7z"/>
			<path style="fill-rule:evenodd;clip-rule:evenodd;fill:#56781F;" d="M71.25,157.85c0.1-0.133,0.2-0.517,0.3-1.149
				c0.1-0.601,0.134-1.083,0.1-1.45c0.267,0.3,0.417,0.767,0.45,1.4c0.034,0.6-0.05,1.05-0.25,1.35L71.25,157.85z"/>
			<path style="fill-rule:evenodd;clip-rule:evenodd;fill:#56781F;" d="M70.85,158l-0.5,0.2l-0.5-0.05
				c-0.033-0.9-0.033-1.817,0-2.75c0.467,0.333,0.767,0.717,0.9,1.149C70.816,156.783,70.85,157.267,70.85,158z"/>
		</g>
	</g>
	<g>
		<path style="fill-rule:evenodd;clip-rule:evenodd;fill:#9E4D4A;" d="M67.5,92.85c0.1-0.733,0.217-1.184,0.35-1.35
			c0.034-0.066,0.317-0.316,0.851-0.75c0.233-0.2,0.283-0.583,0.149-1.15c-0.1-0.5-0.316-0.934-0.649-1.3
			c-0.081-0.087-0.164-0.171-0.25-0.25c0.353,0.157,0.735,0.307,1.149,0.45c1.067,0.4,1.817,0.567,2.25,0.5
			c0.4-0.066,0.917-0.367,1.55-0.9c0.567-0.467,1.15-0.667,1.75-0.6c0.133-0.433,0.183-0.933,0.15-1.5
			c-0.066-0.633-0.1-1.117-0.1-1.45c0.633,0.267,1.383,0.684,2.25,1.25c1,0.7,1.583,1.267,1.75,1.7l5.8,4
			c-0.733,1.333-2.017,2.517-3.85,3.55c-2.2,1.067-3.8,1.85-4.8,2.35c-2.8,1.667-4.95,2.85-6.45,3.55
			c-1.333,0.8-2.367,1.399-3.1,1.8c-1.333,0.733-2.433,1.083-3.3,1.05c0.066-0.1,0.117-0.3,0.15-0.6c-1.6,1.233-3.233,2.066-4.9,2.5
			c0.333-0.367,0.867-1.083,1.6-2.15c0.567-0.899,1.117-1.533,1.65-1.899c0.667-0.434,1.033-0.684,1.1-0.75
			c0.134-0.233,0.217-0.7,0.25-1.4c0-0.9,0-1.417,0-1.55c-0.1-0.5-0.316-0.917-0.649-1.25c0.399-0.034,0.883-0.05,1.45-0.05
			c0.4-0.1,0.683-0.417,0.85-0.95c0.167-0.534,0.15-1.017-0.05-1.45c-0.2-0.433-0.55-0.75-1.05-0.95c1,0.3,1.55,0.467,1.65,0.5
			c0.733,0.167,1.267,0.184,1.6,0.05C67.117,93.684,67.4,93.35,67.5,92.85z"/>
	</g>
	<g>
		<g>
			
				<radialGradient id="SVGID_6_" cx="110.3496" cy="186.2998" r="7.6" gradientTransform="matrix(-1 0 0 -0.3898 220.6992 258.92)" gradientUnits="userSpaceOnUse">
				<stop  offset="0" style="stop-color:#000000;stop-opacity:0.498"/>
				<stop  offset="1" style="stop-color:#000000;stop-opacity:0"/>
			</radialGradient>
			<path style="fill-rule:evenodd;clip-rule:evenodd;fill:url(#SVGID_6_);" d="M102.75,186.3c0-0.833,0.75-1.533,2.25-2.1
				c1.467-0.601,3.25-0.9,5.35-0.9c2.101,0,3.9,0.3,5.4,0.9c1.467,0.566,2.2,1.267,2.2,2.1c0,0.8-0.733,1.5-2.2,2.101
				c-1.5,0.566-3.3,0.85-5.4,0.85c-2.1,0-3.883-0.283-5.35-0.85C103.5,187.8,102.75,187.1,102.75,186.3z"/>
			
				<radialGradient id="SVGID_7_" cx="76.3501" cy="173.2998" r="7.5996" gradientTransform="matrix(-1 0 0 -0.3898 152.7002 240.8525)" gradientUnits="userSpaceOnUse">
				<stop  offset="0" style="stop-color:#000000;stop-opacity:0.498"/>
				<stop  offset="1" style="stop-color:#000000;stop-opacity:0"/>
			</radialGradient>
			<path style="fill-rule:evenodd;clip-rule:evenodd;fill:url(#SVGID_7_);" d="M68.75,173.3c0-0.833,0.75-1.533,2.25-2.1
				c1.467-0.601,3.25-0.9,5.35-0.9c2.101,0,3.9,0.3,5.4,0.9c1.467,0.566,2.2,1.267,2.2,2.1c0,0.8-0.733,1.5-2.2,2.101
				c-1.5,0.566-3.3,0.85-5.4,0.85c-2.1,0-3.883-0.283-5.35-0.85C69.5,174.8,68.75,174.1,68.75,173.3z"/>
			<g>
				<path style="fill-rule:evenodd;clip-rule:evenodd;fill:#56781F;" d="M110.15,189.6c-1.067-0.066-1.734-0.433-2-1.1
					c-0.101-0.233-0.134-0.667-0.101-1.3c0.101-0.667,0.15-1.117,0.15-1.351c0.566,0.101,0.966,0.417,1.2,0.95
					c0.133,0.3,0.316,0.8,0.55,1.5c0.2-0.7,0.366-1.217,0.5-1.55c0.2-0.6,0.45-1.05,0.75-1.35c-0.233,0.699-0.351,1.55-0.351,2.55
					c0.101-0.7,0.5-1.217,1.2-1.55c0.033,0.3-0.033,0.783-0.2,1.449c-0.066,0.601,0.101,1.051,0.5,1.351l0.351,0.3
					C111.566,189.6,110.717,189.634,110.15,189.6z"/>
				<path style="fill-rule:evenodd;clip-rule:evenodd;fill:#56781F;" d="M73.65,176c-0.1-0.333-0.133-0.85-0.1-1.55
					c0.1-0.767,0.15-1.283,0.15-1.55c0.066,0.233,0.267,0.583,0.6,1.05c0.1-0.566,0.384-1,0.85-1.3c0.267,0.6,0.45,1.267,0.55,2
					c0.333-0.767,0.933-1.483,1.8-2.15c-0.1,1.6-0.15,3.217-0.15,4.85L76.2,177c-0.833,0.066-1.384,0.066-1.65,0
					C74.15,176.934,73.85,176.6,73.65,176z"/>
			</g>
			
				<radialGradient id="SVGID_8_" cx="92.1748" cy="180.375" r="55.1679" gradientTransform="matrix(-1 0 0 -0.3178 184.3496 237.7057)" gradientUnits="userSpaceOnUse">
				<stop  offset="0" style="stop-color:#000000;stop-opacity:0.2863"/>
				<stop  offset="1" style="stop-color:#000000;stop-opacity:0"/>
			</radialGradient>
			<path style="fill-rule:evenodd;clip-rule:evenodd;fill:url(#SVGID_8_);" d="M131.2,168c10.767,3.434,16.149,7.566,16.149,12.4
				c0,4.833-5.383,8.949-16.149,12.35c-10.8,3.434-23.817,5.15-39.05,5.15c-15.233,0-28.233-1.717-39-5.15
				C42.383,189.35,37,185.233,37,180.4c0-4.834,5.383-8.967,16.15-12.4s23.767-5.15,39-5.15
				C107.416,162.85,120.434,164.566,131.2,168z"/>
		</g>
		<g>
			<path style="fill-rule:evenodd;clip-rule:evenodd;fill:#C9C3AD;" d="M92.7,114.5l-15.75,58.75c-0.134,0.333-0.534,0.5-1.2,0.5
				c-0.3,0-0.566-0.083-0.8-0.25l-0.25-0.25l16.899-59.8L92.7,114.5z"/>
			<g>
				<path style="fill-rule:evenodd;clip-rule:evenodd;fill:#757265;" d="M92,117.2l-2.2,8.05c-0.233-0.033-0.467-0.116-0.7-0.25
					l-0.25-0.15l-13.3,47.65l0.25,0.35c0.3,0.268,0.684,0.384,1.15,0.351v0.05c-0.134,0.333-0.534,0.5-1.2,0.5
					c-0.3,0-0.566-0.083-0.8-0.25l-0.25-0.25l15.85-56.05H92z"/>
				<path style="fill-rule:evenodd;clip-rule:evenodd;fill:#FFFFFF;" d="M89,125.75l0.5,0.6l-3.35,12.5
					c-1.9,6.426-4.183,14.309-6.85,23.65L89,125.75z"/>
			</g>
		</g>
		<g>
			<path style="fill-rule:evenodd;clip-rule:evenodd;fill:#C9C3AD;" d="M91.2,118.45l1.25-1.25l18.6,69.35
				c-0.2,0.434-0.6,0.65-1.2,0.65c-0.467,0-0.833-0.101-1.1-0.3l-0.25-0.301L91.2,118.45z"/>
			<g>
				<path style="fill-rule:evenodd;clip-rule:evenodd;fill:#757265;" d="M93.5,125.2l15.3,60.649l0.601,0.351
					c0.467,0.267,0.899,0.383,1.3,0.35c-0.101,0.434-0.45,0.65-1.05,0.65c-0.467,0-0.817-0.101-1.051-0.3l-0.149-0.301l-17.3-68.149
					l1.3-1.25l2.1,7.85l-0.2-0.05l0.051,0.2H93.5z"/>
				<path style="fill-rule:evenodd;clip-rule:evenodd;fill:#FFFFFF;" d="M100.65,147.8c1.877,7.864,3.984,16.656,6.324,26.375
					c-2.824-10.892-4.699-18-5.625-21.325c-0.767-2.732-2.083-7.866-3.949-15.399c-1.567-6.333-2.567-10.417-3-12.25H94.6
					L100.65,147.8z"/>
				<polygon style="fill-rule:evenodd;clip-rule:evenodd;fill:#FFFFFF;" points="94.35,125 94.55,125.05 94.6,125.2 94.4,125.2 				
					"/>
			</g>
		</g>
		<g>
			<path style="fill-rule:evenodd;clip-rule:evenodd;fill:#FC7A76;" d="M68.95,92.35c2.667-3.233,6.25-5.4,10.75-6.5
				c4.1-1.033,8.45-1.067,13.05-0.1c5.267,1.067,9.783,3.65,13.55,7.75c1.967,2.167,3.95,5.167,5.95,9
				c1.5,2.833,1.967,5.384,1.4,7.65c-0.768,3.1-1.7,5.166-2.801,6.199c-1.566,0.9-2.934,1.733-4.1,2.5
				c-5.934,4.034-11.717,5-17.35,2.9c-2.5-0.934-4.966-2.7-7.4-5.3c-2-2.467-3.133-3.8-3.4-4c-0.466-0.367-1.066-0.634-1.8-0.8
				c-0.866-0.167-1.583-0.117-2.15,0.149c-1.4,0.767-2.25,1.533-2.55,2.3c-0.366,1-1.149,1.834-2.35,2.5
				c-0.5,0.268-0.883,0.384-1.15,0.351l-0.25-0.15L66.95,117c-0.7,0.1-1.233-0.05-1.601-0.45c-0.399-0.5-0.983-1.8-1.75-3.899
				c-0.833-2.334-0.783-5.483,0.15-9.45C64.783,98.9,66.517,95.283,68.95,92.35z"/>
			<g>
				<path style="fill-rule:evenodd;clip-rule:evenodd;fill:#E8706D;" d="M80.9,104.6c1.4-0.732,2.583-1.232,3.55-1.5
					c1.233-0.3,2.899-0.35,5-0.149c0.333,0,0.7,0.083,1.1,0.25c1.533,1.2,2.55,1.967,3.05,2.3c-1.066,0.033-2.25,0.367-3.55,1
					c-0.7,0.333-1.8,0.967-3.3,1.9c-0.767,0.033-2.283,0.3-4.55,0.8c-1,0.233-1.817,0.417-2.45,0.55c-1.167,0.2-1.934,0.167-2.3-0.1
					c-1.7-1.134-1.583-2.601,0.35-4.4c1.567-1.467,3.167-2.417,4.8-2.85c-1.624,0.924-3.258,2.19-4.899,3.8
					C77.733,106.2,78.8,105.667,80.9,104.6z M80.2,98.9c1.899-0.566,3.633-0.75,5.2-0.55c0.6,0.7,1.333,1.466,2.2,2.3
					c-1.657,0.22-3.324,0.803-5,1.75c-1.433-0.167-3.149,0.433-5.149,1.8c-1.8,1.1-2.817,1.767-3.05,2
					c-0.466,0.5-0.783,1.2-0.95,2.1c-0.5,0-0.917-0.166-1.25-0.5c0.366-3.2,1.517-5.467,3.45-6.8C76.983,100.1,78.5,99.4,80.2,98.9z
					"/>
				<path style="fill-rule:evenodd;clip-rule:evenodd;fill:#E8706D;" d="M79.65,94.15c0.567,0.1,1.167,0.333,1.8,0.7
					c0.366,0.2,0.917,0.533,1.649,1c-0.1-0.5-0.2-0.867-0.3-1.1c0.333,0.6,0.733,1.217,1.2,1.85c-2.633-0.067-4.566,0.133-5.8,0.6
					c-1.2,0.5-2.817,1.883-4.851,4.149c-0.6,0.733-1.166,1.7-1.7,2.9c0.2-1.066,0.3-1.65,0.3-1.75c-0.7,0.634-1.217,1.117-1.55,1.45
					c-0.567,0.566-0.95,1.133-1.15,1.7l-0.05,0.1c-0.534,0.233-1,0.15-1.4-0.25l-0.1,0.15l0.05-0.7c0.066-0.8,0.4-1.833,1-3.101
					c0.566-0.833,1.05-1.399,1.45-1.699c0.5-0.334,1.383-0.75,2.649-1.25c-0.733-0.033-1.267-0.033-1.6,0
					c2.667-2.233,5.633-2.983,8.9-2.25c-0.433-0.466-1.367-1.35-2.8-2.65c0.267,0.1,0.65,0.133,1.15,0.1
					C79.033,94.1,79.417,94.117,79.65,94.15z"/>
				<path style="fill-rule:evenodd;clip-rule:evenodd;fill:#E8706D;" d="M64.9,102.45c0.3,0.833,0.7,1.3,1.2,1.399
					c-0.166,1.301-0.183,2.434-0.05,3.4c-0.333,1.1-0.717,1.733-1.15,1.9c-0.333-0.301-0.633-0.934-0.9-1.9
					c-0.1-0.467-0.267-1.366-0.5-2.7c0.233-1.399,0.684-3,1.35-4.8C64.717,101.017,64.733,101.917,64.9,102.45z"/>
				<path style="fill-rule:evenodd;clip-rule:evenodd;fill:#E8706D;" d="M83.75,110.2c2.767-1.033,4.783-1.733,6.05-2.101
					c2.333-0.666,4.45-1.05,6.351-1.149c1.467,0.7,2.732,1.033,3.8,1c0.133-0.367,0.233-1.167,0.3-2.4
					c0.367,1.101,1.066,2.067,2.1,2.9c1.033,0.8,2.167,1.316,3.4,1.55c0.2,0.566,0.566,0.95,1.1,1.15
					c-0.166-0.301-0.283-0.65-0.35-1.051c1.166,0.101,2.233-0.116,3.2-0.649l3.75,1.55l-0.2,0.65l-4.3-0.7
					c-3.733,4.566-7.833,6.95-12.3,7.149c-3,0.2-5.267,0.051-6.801-0.449c-2.267-0.7-3.733-2.167-4.399-4.4
					c2.466,0.566,4.767-0.1,6.899-2c-1.166-0.167-2.916,0.017-5.25,0.55c-2.2,0.467-3.899,0.584-5.1,0.351
					c-3.133-0.601-1.55-1.834,4.75-3.7C85.25,109.384,84.25,109.967,83.75,110.2z"/>
				<path style="fill-rule:evenodd;clip-rule:evenodd;fill:#CC6360;" d="M74.95,107.95c-0.567,0.233-1.067,0.35-1.5,0.35
					c0.167-0.899,0.483-1.6,0.95-2.1c0.233-0.233,1.25-0.9,3.05-2c2-1.367,3.716-1.967,5.149-1.8c-1.633,0.433-3.233,1.383-4.8,2.85
					c-1.933,1.8-2.05,3.267-0.35,4.4c0.366,0.267,1.133,0.3,2.3,0.1c0.633-0.133,1.45-0.316,2.45-0.55
					c2.267-0.5,3.783-0.767,4.55-0.8v0.05c-6.3,1.866-7.883,3.1-4.75,3.7c1.2,0.233,2.9,0.116,5.1-0.351
					c2.334-0.533,4.084-0.717,5.25-0.55c-2.133,1.9-4.433,2.566-6.899,2c0.667,2.233,2.133,3.7,4.399,4.4
					c1.534,0.5,3.801,0.649,6.801,0.449c4.467-0.199,8.566-2.583,12.3-7.149l4.3,0.7c-0.7,2.366-1.584,4-2.65,4.899
					c-1.5,0.8-2.783,1.567-3.85,2.3c-5.934,4.034-11.717,5-17.35,2.9c-2.5-0.934-4.966-2.7-7.4-5.3c-2-2.467-3.133-3.8-3.4-4
					c-0.433-0.367-1.05-0.634-1.85-0.8l-1.5-0.9L74.95,107.95z"/>
				<path style="fill-rule:evenodd;clip-rule:evenodd;fill:#CC6360;" d="M65.75,111.7c-0.033,1.2,0.1,2.25,0.4,3.149
					c0.333,0.934,0.667,1.634,1,2.101l-0.2,0.05c-0.7,0.1-1.233-0.05-1.601-0.45c-0.399-0.5-0.983-1.8-1.75-3.899
					c-0.7-2.033-0.733-4.733-0.1-8.101c0.233,1.334,0.4,2.233,0.5,2.7c0.267,0.967,0.566,1.6,0.9,1.9
					c0.433-0.167,0.817-0.801,1.15-1.9l0.2,0.95C65.917,109.3,65.75,110.467,65.75,111.7z"/>
				<path style="fill-rule:evenodd;clip-rule:evenodd;fill:#CC6360;" d="M71.45,103.5c-0.4,0.533-0.733,0.934-1,1.2
					c-0.467,0.533-0.884,0.883-1.25,1.05l0.05-0.1c0.2-0.567,0.583-1.134,1.15-1.7c0.333-0.333,0.85-0.816,1.55-1.45
					c0,0.1-0.101,0.684-0.3,1.75l-0.2,0.55V103.5z"/>
				<path style="fill-rule:evenodd;clip-rule:evenodd;fill:#FC7A76;" d="M96.45,105.95l0.5,1h-0.8
					c-0.768-0.367-1.617-0.851-2.551-1.45C94.5,105.4,95.45,105.55,96.45,105.95z"/>
				<path style="fill-rule:evenodd;clip-rule:evenodd;fill:#FC7A76;" d="M86.75,108.45l0.05-0.05h-0.05c1.5-0.934,2.6-1.567,3.3-1.9
					c1.3-0.633,2.483-0.967,3.55-1c0.934,0.6,1.783,1.083,2.551,1.45c-1.9,0.1-4.017,0.483-6.351,1.149
					c-1.267,0.367-3.283,1.067-6.05,2.101C84.25,109.967,85.25,109.384,86.75,108.45z"/>
				<path style="fill-rule:evenodd;clip-rule:evenodd;fill:#FC7A76;" d="M87.6,100.65c1.934-0.267,3.634,0.083,5.101,1.05l0.5,2.5
					c-0.4-0.033-0.851-0.167-1.351-0.4c-0.566-0.267-1-0.467-1.3-0.6L87.6,100.65z"/>
				<path style="fill-rule:evenodd;clip-rule:evenodd;fill:#FC7A76;" d="M90.55,103.2c-0.4-0.167-0.767-0.25-1.1-0.25
					c-2.101-0.2-3.767-0.15-5,0.149c-0.967,0.268-2.15,0.768-3.55,1.5c-2.1,1.067-3.167,1.601-3.2,1.601
					c3.333-3.267,6.633-5.117,9.899-5.55L90.55,103.2z"/>
				<path style="fill-rule:evenodd;clip-rule:evenodd;fill:#FC7A76;" d="M86.7,96.7l1.25,2.5c-0.7-0.4-1.55-0.684-2.55-0.85
					c-0.567-0.633-1.033-1.217-1.4-1.75L86.7,96.7z"/>
				<path style="fill-rule:evenodd;clip-rule:evenodd;fill:#FC7A76;" d="M71.45,105.35l0.2-1.1c0.534-1.2,1.1-2.167,1.7-2.9
					C75.383,99.083,77,97.7,78.2,97.2c1.233-0.467,3.167-0.667,5.8-0.6c0.367,0.533,0.833,1.117,1.4,1.75
					c-1.567-0.2-3.3-0.017-5.2,0.55c-1.7,0.5-3.217,1.2-4.55,2.1c-1.933,1.333-3.083,3.6-3.45,6.8
					C71.767,107.333,71.517,106.517,71.45,105.35z"/>
				<path style="fill-rule:evenodd;clip-rule:evenodd;fill:#FC7A76;" d="M66.1,103.85c0.233-2.232,0.767-3.616,1.601-4.149l1.75,0.5
					l-0.7,1.649c-0.333,0.534-0.6,0.9-0.8,1.101C67.217,103.65,66.6,103.95,66.1,103.85z"/>
				<path style="fill-rule:evenodd;clip-rule:evenodd;fill:#FC7A76;" d="M67.7,105.65c-0.434,0.433-0.767,0.933-1,1.5l-0.101-0.9
					c-0.166,0.2-0.35,0.533-0.55,1c-0.133-0.967-0.116-2.1,0.05-3.4c0.5,0.101,1.117-0.199,1.851-0.899
					c0.2-0.2,0.466-0.566,0.8-1.101c-0.6,1.268-0.934,2.301-1,3.101L67.7,105.65z"/>
				<path style="fill-rule:evenodd;clip-rule:evenodd;fill:#FC7A76;" d="M66.7,107.15l-0.45,1.05l-0.2-0.95
					c0.2-0.467,0.384-0.8,0.55-1L66.7,107.15z"/>
				<path style="fill-rule:evenodd;clip-rule:evenodd;fill:#CC6360;" d="M73.45,108.3c-0.101,0.334-0.184,0.867-0.25,1.601
					l-1.2-0.15l0.2-1.95C72.533,108.134,72.95,108.3,73.45,108.3z"/>
				<path style="fill-rule:evenodd;clip-rule:evenodd;fill:#CC6360;" d="M67.8,105.5c0.4,0.4,0.867,0.483,1.4,0.25
					c-0.067,0.2-0.184,0.884-0.351,2.05c-0.166,0.934-0.383,1.617-0.649,2.05l-0.55,0.051c-0.033-1.9-0.017-3.317,0.05-4.25
					L67.8,105.5z M67.625,109.9l-0.725,0.05l-0.05-0.55C67.079,109.629,67.337,109.795,67.625,109.9z"/>
				<path style="fill-rule:evenodd;clip-rule:evenodd;fill:#CC6360;" d="M71.45,103.5v1.3c-0.833,1.967-1.117,3.617-0.851,4.95
					l-2.399,0.1c0.267-0.433,0.483-1.116,0.649-2.05c0.167-1.166,0.284-1.85,0.351-2.05c0.366-0.167,0.783-0.517,1.25-1.05
					C70.717,104.434,71.05,104.033,71.45,103.5z"/>
				<path style="fill-rule:evenodd;clip-rule:evenodd;fill:#CC6360;" d="M66.9,109.95h-0.2c-0.3,0.8-0.45,1.783-0.45,2.95
					c0.033,1.366,0.417,2.033,1.15,2c0.2-0.767,0.3-1.317,0.3-1.65c0.133,1.367,0.399,2.184,0.8,2.45
					c0.367,0.267,1.117,0.116,2.25-0.45l1.05-0.6c-0.433,0.767-1.116,1.416-2.05,1.949c-0.5,0.268-0.883,0.384-1.15,0.351
					l-0.25-0.15l-1.2,0.15c-0.333-0.467-0.667-1.167-1-2.101c-0.3-0.899-0.433-1.949-0.4-3.149c0-1.233,0.167-2.4,0.5-3.5
					c0.167,0.5,0.367,0.899,0.6,1.2L66.9,109.95z"/>
				<path style="fill-rule:evenodd;clip-rule:evenodd;fill:#CC6360;" d="M74.95,107.95l0.3,2.8c-0.4-0.3-0.75-0.483-1.05-0.55
					c-0.034-0.033-0.367-0.134-1-0.3c0.066-0.733,0.149-1.267,0.25-1.601C73.883,108.3,74.383,108.184,74.95,107.95z"/>
				<path style="fill-rule:evenodd;clip-rule:evenodd;fill:#CC6360;" d="M71.45,105.35c0.066,1.167,0.316,1.983,0.75,2.45l-0.2,1.95
					h-1.1C70.934,108.583,71.117,107.117,71.45,105.35z"/>
				<path style="fill-rule:evenodd;clip-rule:evenodd;fill:#CC6360;" d="M71.45,104.8v0.55c-0.333,1.768-0.517,3.233-0.55,4.4h-0.3
					C70.333,108.417,70.617,106.767,71.45,104.8z"/>
				<path style="fill-rule:evenodd;clip-rule:evenodd;fill:#CC6360;" d="M67.7,105.65c-0.067,0.933-0.083,2.35-0.05,4.25
					c-0.3-0.101-0.567-0.267-0.8-0.5l-0.149-2.25C66.934,106.583,67.267,106.083,67.7,105.65z"/>
				<path style="fill-rule:evenodd;clip-rule:evenodd;fill:#CC6360;" d="M66.85,109.4c-0.233-0.301-0.433-0.7-0.6-1.2l0.45-1.05
					L66.85,109.4z"/>
				<path style="fill-rule:evenodd;clip-rule:evenodd;fill:#9E4D4A;" d="M76.75,111.65c-0.434-0.101-0.883-0.117-1.35-0.051
					l-0.15-0.85L76.75,111.65z"/>
				<path style="fill-rule:evenodd;clip-rule:evenodd;fill:#9E4D4A;" d="M66.95,110.65l-0.05-0.7l1.3-0.101
					C67.867,110.35,67.45,110.617,66.95,110.65z"/>
				<path style="fill-rule:evenodd;clip-rule:evenodd;fill:#9E4D4A;" d="M70.85,110.55c0.3,0.533,0.65,0.9,1.05,1.101l0.1-1.9
					l1.2,0.15c-0.267,2.066-0.417,3.133-0.45,3.199l-0.35,0.45C71.434,113.384,70.917,112.384,70.85,110.55z"/>
				<path style="fill-rule:evenodd;clip-rule:evenodd;fill:#9E4D4A;" d="M74.2,110.2c0.3,0.066,0.649,0.25,1.05,0.55l0.15,0.85
					c-0.333,0.067-0.583,0.134-0.75,0.2c-0.867,0.467-1.5,0.9-1.9,1.3c0.033-0.066,0.184-1.133,0.45-3.199
					C73.833,110.066,74.167,110.167,74.2,110.2z"/>
				<path style="fill-rule:evenodd;clip-rule:evenodd;fill:#9E4D4A;" d="M66.9,109.95l0.05,0.7c0.5-0.033,0.917-0.301,1.25-0.801
					l2.399-0.1l0.25,0.8c0.067,1.834,0.584,2.834,1.55,3c-0.167,0.267-0.267,0.45-0.3,0.55l-0.3,0.551l-1.05,0.6
					c-1.133,0.566-1.883,0.717-2.25,0.45c-0.4-0.267-0.667-1.083-0.8-2.45c0,0.333-0.101,0.884-0.3,1.65
					c-0.733,0.033-1.117-0.634-1.15-2c0-1.167,0.15-2.15,0.45-2.95H66.9z"/>
				<path style="fill-rule:evenodd;clip-rule:evenodd;fill:#9E4D4A;" d="M70.9,109.75H72l-0.1,1.9c-0.4-0.2-0.75-0.567-1.05-1.101
					L70.9,109.75z"/>
				<polygon style="fill-rule:evenodd;clip-rule:evenodd;fill:#9E4D4A;" points="70.85,110.55 70.6,109.75 70.9,109.75 				"/>
				<path style="fill-rule:evenodd;clip-rule:evenodd;fill:#FC9E9C;" d="M101.35,91.25c0.566,0.434,1.334,1.317,2.301,2.65
					c0.866,1.267,1.616,2.083,2.25,2.45L105.8,96c0.4,0.767,1.134,1.783,2.2,3.05c0.6,0.733,1.5,1.783,2.7,3.15h-0.5
					c0.133,0.399,0.366,0.767,0.7,1.1c0.166,0.167,0.433,0.417,0.8,0.75c-0.333,0.167-1.384,0.367-3.15,0.601
					c-1.3,0.199-2.25,0.699-2.85,1.5l-0.05-2.45c-0.801-0.2-1.4-0.351-1.801-0.45c-0.699-0.2-1.217-0.083-1.55,0.35
					c-0.6-0.267-1.25-1.033-1.95-2.3c0-0.033-0.467-1.017-1.399-2.95c-0.567-1.133-1.684-2.4-3.351-3.8
					c-2-1.667-3.3-2.883-3.899-3.65c-0.767-0.966-1.483-1.667-2.15-2.1c-0.8-0.466-1.833-0.767-3.1-0.9
					c-1.333,0.067-2.384,0.117-3.15,0.15c-1.4,0.067-2.35-0.116-2.85-0.55c0.267-0.1,1-0.316,2.2-0.65
					c-0.7-0.2-1.167-0.317-1.4-0.35c5.4-1.367,10.033-1,13.9,1.1C98.083,89.1,100.15,90.317,101.35,91.25z"/>
				<path style="fill-rule:evenodd;clip-rule:evenodd;fill:#FC9E9C;" d="M105.7,108.7h0.75l0.25-0.25
					c-0.233,0.467-0.3,1.017-0.2,1.649l-0.75-0.1C105.617,109.634,105.6,109.2,105.7,108.7z"/>
				<path style="fill-rule:evenodd;clip-rule:evenodd;fill:#FC9E9C;" d="M105.75,110l0.75,0.1c0.066,0.4,0.184,0.75,0.35,1.051
					C106.316,110.95,105.95,110.566,105.75,110z"/>
			</g>
		</g>
		<g>
			<path style="fill-rule:evenodd;clip-rule:evenodd;fill:#FC7A76;" d="M163.7,93.2l1.05,4.6c0.367,3.033-0.316,4.55-2.05,4.55
				c-2.267,0-4.05,1.884-5.351,5.65c-1.366,4-1.416,8.283-0.149,12.85c1.433,5.301,2.2,9.967,2.3,14c0.1,5.434-0.95,10.101-3.15,14
				c-2.399,4.268-6.232,6.867-11.5,7.801c-5.199,0.933-10.083,0-14.649-2.801c-3.601-2.199-6.15-6.666-7.65-13.399
				c-1.1-7.601-2-12.75-2.7-15.45c-1.066-4.066-2.85-6.934-5.35-8.6c-0.4-0.233-1.95-0.801-4.65-1.7
				c-0.833-0.267-1.399-0.634-1.699-1.101c-0.4-0.566-0.717-1.649-0.95-3.25c-0.267-1.6,0.283-3.017,1.649-4.25
				c1.233-1.166,2.617-1.75,4.15-1.75c2.066,0,4.217,0.784,6.45,2.351c3.1,2.233,5.566,5.616,7.399,10.149
				c0.801,2,1.634,6.934,2.5,14.801c0.634,6.1,2.25,10.333,4.851,12.699c2.933,2.7,5.767,3.684,8.5,2.95c2.1-0.566,3.933-2,5.5-4.3
				c2.433-3.566,3.116-9.217,2.05-16.95c-1.3-9.133-1.383-15.75-0.25-19.85c1.633-5.867,4.033-10.217,7.2-13.05
				c1.167-1.066,3.1-2.167,5.8-3.3c0.8-0.333,1.166,0.133,1.1,1.4C164.033,91.85,163.9,92.5,163.7,93.2z"/>
			<g>
				<path style="fill-rule:evenodd;clip-rule:evenodd;fill:#E8706D;" d="M155.45,102.15l-0.15,0.25c0.5-1.801,1.3-3.033,2.4-3.7
					c2.8-1.6,5.149-1.083,7.05,1.55c-0.1,0.566-0.25,0.983-0.45,1.25l-0.25-0.1c-0.5-0.2-1.149-0.283-1.95-0.25
					c-0.899,0.033-1.566,0.05-2,0.05c-1.267-0.101-2.166-0.134-2.699-0.101C156.533,101.167,155.883,101.517,155.45,102.15z"/>
				<path style="fill-rule:evenodd;clip-rule:evenodd;fill:#E8706D;" d="M153.15,112.4c0.1-0.934,0.333-2.101,0.699-3.5
					c0.434-1.733,0.7-2.884,0.801-3.45c0,0.533,0.133,1.8,0.399,3.8c0.2,1.566,0.167,2.884-0.1,3.95
					c-0.434,1.633-0.684,2.717-0.75,3.25c-0.233,1.3-0.25,2.467-0.05,3.5c0.199,0.934,0.683,2.217,1.449,3.85
					c0.967,1.967,1.551,3.25,1.75,3.851c0.667,1.967,1.018,4.166,1.051,6.6c0,1.7-0.184,3.934-0.551,6.7
					c-0.267,2-1.083,4.083-2.449,6.25c-1.4,2.233-2.967,3.899-4.7,5c-3.5,2.233-7.867,2.917-13.101,2.05
					c-0.366-0.066-0.967-0.116-1.8-0.15c-0.833-0.033-1.45-0.1-1.85-0.199c-0.4-0.067-0.833-0.217-1.3-0.45
					c-0.734-0.367-1.134-0.566-1.2-0.601c-1.167-0.466-2.034-0.966-2.601-1.5c-0.333-0.3-1-1.1-2-2.399
					c-1.333-1.833-2.467-4.066-3.399-6.7c-0.9-2.533-1.5-5.033-1.8-7.5c-0.067-0.6-0.117-1.7-0.15-3.3c-0.066-1.4-0.167-2.5-0.3-3.3
					c-0.233-0.967-0.634-1.783-1.2-2.45l-0.15-0.7c-0.934-3.6-2.434-6.233-4.5-7.9c-0.267-0.433-0.633-0.816-1.1-1.149
					c-0.667-0.533-1.717-1.017-3.15-1.45c-1.6-0.5-2.666-0.917-3.199-1.25c-0.268-0.5-0.467-1.217-0.601-2.15
					c0.267,0.134,1.101,0.367,2.5,0.7c1.634,0.4,2.817,0.8,3.55,1.2c0.801,0.434,1.75,1.25,2.851,2.45
					c0.3,0.333,0.6,0.633,0.899,0.899c0.2,0.233,0.4,0.601,0.601,1.101c0.133,0.3,0.267,0.767,0.399,1.399
					c0.134,0.601,0.25,1.051,0.351,1.351c0.333,0.767,1,1.616,2,2.55c1.1,1.066,1.816,1.884,2.149,2.45
					c0.967,1.566,1.551,3.8,1.75,6.7c0.2,3.6,0.467,5.933,0.801,7c0.433,1.433,1.133,3.55,2.1,6.35c0.5,1.5,1.217,2.55,2.15,3.15
					c0.8,0.467,2.05,0.816,3.75,1.05c-0.033,0.167-0.018,0.45,0.05,0.85c0.033,0.4,0.033,0.684,0,0.851
					c0.633,0.333,1.483,0.533,2.55,0.6c0.6,0.033,1.483,0.066,2.65,0.1c0.066,0,1.033,0.2,2.899,0.601
					c1.233,0.233,2.2,0.283,2.9,0.149c0.3-0.066,0.716-0.267,1.25-0.6c0.6-0.4,1-0.633,1.2-0.7c0.566-0.267,1.467-0.467,2.699-0.6
					c0.967-0.3,1.717-0.816,2.25-1.55l1.25-2.301c0.233-0.433,0.801-1.166,1.7-2.199c0.7-0.834,1.15-1.584,1.351-2.25
					c0.199-0.767,0.266-1.601,0.199-2.5c-0.033-0.033-0.184-0.867-0.449-2.5c-0.033-0.301-0.117-2.117-0.25-5.45
					c-0.101-2.267-0.5-4-1.2-5.2l-0.2,0.35c-0.066-0.333-0.334-1.433-0.8-3.3c-0.367-1.3-0.534-2.416-0.5-3.35
					C152.7,118.217,152.85,115.533,153.15,112.4z"/>
				<path style="fill-rule:evenodd;clip-rule:evenodd;fill:#E8706D;" d="M127.5,118.75c0.3,1.033,0.95,5.634,1.95,13.8
					c0.667,5.467,2.183,9.334,4.55,11.601c-0.733,0.467-1.584,0.416-2.55-0.15c-0.934-0.566-1.601-1.467-2-2.7
					c-0.2-0.666-0.367-1.783-0.5-3.35c-0.134-1.267-0.784-4.2-1.95-8.8c-0.9-3.667-1.25-6.65-1.05-8.95
					c0.399,0.2,0.633,0.333,0.7,0.399c-0.334-0.566-0.667-1.783-1-3.649C126.017,117.217,126.633,117.816,127.5,118.75z"/>
				<path style="fill-rule:evenodd;clip-rule:evenodd;fill:#CC6360;" d="M114.25,115.95c0.467,0.333,0.833,0.717,1.1,1.149
					c-0.967-0.8-2.066-1.416-3.3-1.85c-1.167-0.267-1.899-0.45-2.2-0.55c-0.967-0.333-1.616-0.816-1.949-1.45
					c0.533,0.333,1.6,0.75,3.199,1.25C112.533,114.934,113.583,115.417,114.25,115.95z"/>
				<path style="fill-rule:evenodd;clip-rule:evenodd;fill:#CC6360;" d="M155.3,102.4c-0.167,0.566-0.366,1.566-0.6,3l-0.05,0.05
					v-0.3C154.717,104.017,154.934,103.1,155.3,102.4z"/>
				<path style="fill-rule:evenodd;clip-rule:evenodd;fill:#CC6360;" d="M121.625,134.425c-0.657-3.954-1.199-6.862-1.625-8.725
					c0.566,0.667,0.967,1.483,1.2,2.45c0.133,0.8,0.233,1.899,0.3,3.3C121.527,132.787,121.569,133.778,121.625,134.425z
					 M157.4,101.1c0.533-0.033,1.433,0,2.699,0.101c0.434,0,1.101-0.017,2-0.05c0.801-0.033,1.45,0.05,1.95,0.25l0.25,0.1
					c-0.366,0.566-0.899,0.85-1.6,0.85c-2.267,0-4.05,1.884-5.351,5.65c-1.366,4-1.416,8.283-0.149,12.85
					c1.433,5.301,2.2,9.967,2.3,14c0.1,5.434-0.95,10.101-3.15,14c-2.399,4.268-6.232,6.867-11.5,7.801
					c-5.199,0.933-10.083,0-14.649-2.801c-3.534-2.166-6.05-6.482-7.55-12.949c-0.17-1.103-0.337-2.152-0.5-3.15
					c0.329,1.488,0.763,2.988,1.3,4.5c0.933,2.634,2.066,4.867,3.399,6.7c1,1.3,1.667,2.1,2,2.399
					c0.566,0.534,1.434,1.034,2.601,1.5c0.066,0.034,0.466,0.233,1.2,0.601c0.467,0.233,0.899,0.383,1.3,0.45
					c0.399,0.1,1.017,0.166,1.85,0.199c0.833,0.034,1.434,0.084,1.8,0.15c5.233,0.867,9.601,0.184,13.101-2.05
					c1.733-1.101,3.3-2.767,4.7-5c1.366-2.167,2.183-4.25,2.449-6.25c0.367-2.767,0.551-5,0.551-6.7
					c-0.033-2.434-0.384-4.633-1.051-6.6c-0.199-0.601-0.783-1.884-1.75-3.851c-0.767-1.633-1.25-2.916-1.449-3.85
					c-0.2-1.033-0.184-2.2,0.05-3.5c0.066-0.533,0.316-1.617,0.75-3.25c0.267-1.066,0.3-2.384,0.1-3.95
					c-0.267-2-0.399-3.267-0.399-3.8l0.05-0.05c0.233-1.434,0.433-2.434,0.6-3l0.15-0.25
					C155.883,101.517,156.533,101.167,157.4,101.1z"/>
				<path style="fill-rule:evenodd;clip-rule:evenodd;fill:#FC9E9C;" d="M119.7,112.95c-1.8-2.167-3.067-3.5-3.8-4
					c-1.667-1.167-3.984-1.75-6.95-1.75l3.149-1.05c2.533-0.267,4.9,0.75,7.101,3.05c2.267,2.366,3.767,4.717,4.5,7.05
					c0.3,0.934,0.55,2.667,0.75,5.2l0.25,3c-0.4-1.4-0.917-2.934-1.55-4.601C121.883,116.517,120.733,114.217,119.7,112.95z"/>
				<path style="fill-rule:evenodd;clip-rule:evenodd;fill:#FC9E9C;" d="M138,150.85c-1.566-0.199-3.334-1.333-5.3-3.399l2.75,1.6
					c2.333,0.967,4.75,1.184,7.25,0.65c2.6-0.533,4.733-1.884,6.399-4.05c1.043-1.305,1.71-2.529,2-3.676l-0.449,2.525
					c-1.101,3.1-3,4.917-5.7,5.45C141.217,150.684,138.9,150.983,138,150.85z"/>
				<path style="fill-rule:evenodd;clip-rule:evenodd;fill:#FC9E9C;" d="M150.45,115.7c-0.3-3.566-0.034-6.884,0.8-9.95
					c0.867-2.267,1.267-3.283,1.2-3.05c-0.733,3.566-1.067,6.467-1,8.7c0.033,1.399,0.2,3.916,0.5,7.55l0.2,10.399
					C151.217,122.75,150.65,118.2,150.45,115.7z"/>
				<path style="fill-rule:evenodd;clip-rule:evenodd;fill:#FC9E9C;" d="M152.45,132.7l-0.25,1.25l-0.05-4.601
					C152.416,131.083,152.517,132.2,152.45,132.7z"/>
			</g>
		</g>
		<g>
			<path style="fill-rule:evenodd;clip-rule:evenodd;fill:#FC7A76;" d="M171.55,90.8c0.967,0.434,1.9,1.233,2.8,2.4
				c0.434,0.566,0.768,1.1,1,1.6l1.551,1.9c0.6,0.8,1.933,1.85,4,3.149c1.1,0.7,2.566,1.617,4.399,2.75
				c1.067,0.733,1.783,1.5,2.15,2.301c0.366,0.866,0.533,2.133,0.5,3.8c-0.067,2.267-0.8,5.283-2.2,9.05
				c-0.2,0.7-0.633-0.217-1.3-2.75c-0.9-2.967-2.45-5.083-4.65-6.35c-1.399-0.801-2.717-1.617-3.95-2.45l-1.449-0.95
				c-3.7,0.6-6.684,0.6-8.95,0c-2.667-0.733-4.601-1.434-5.8-2.1l-1-0.75c-1.134-0.134-2.051-0.584-2.75-1.351
				c-1.367-1.5-0.867-3.816,1.5-6.95c2.433-3.2,5.199-4.817,8.3-4.85C167.2,89.25,169.15,89.767,171.55,90.8z"/>
			<g>
				<path style="fill-rule:evenodd;clip-rule:evenodd;fill:#E8706D;" d="M155.2,99.35V98.95c0.8,0.767,1.5,1.184,2.1,1.25
					c0.3,0.066,1.083-0.017,2.351-0.25c0.033,0,0.116,0.1,0.25,0.3c0.199,0.167,0.383,0.233,0.55,0.2
					c0.1-0.033,0.25-0.15,0.45-0.351c0.199-0.199,0.383-0.316,0.55-0.35l1.75-0.6c0.033-0.033,0.183-0.8,0.45-2.3
					c0.133-0.733,0.717-0.684,1.75,0.15c0.1,0.1,0.25,0.367,0.449,0.8c0.2,0.467,0.384,0.784,0.551,0.95
					c0.3,0.3,0.816,0.583,1.55,0.85c0.7,0.233,1.25,0.351,1.649,0.351c0.134,1.133,0.217,1.75,0.25,1.85
					c0.167,0.3,0.7,0.517,1.601,0.65c0.466,0.066,1.133,0,2-0.2c0.7-0.2,1.35-0.184,1.95,0.05c0.766,0.3,1.55,1.084,2.35,2.351
					c0.733,1.166,1.3,2.416,1.7,3.75c-0.7-0.4-2.15-1.283-4.351-2.65c-0.232-0.566-0.783-1.1-1.649-1.6
					c-0.167-0.101-1.55-0.2-4.15-0.301c-1.866-0.1-2.667-0.816-2.399-2.149c-1.367-0.167-2.518-0.533-3.45-1.101
					c0.167,0.801,0.566,1.45,1.2,1.95l-1.15-0.399c0.267,0.3,0.4,0.633,0.4,1c-0.768-0.033-1.967-0.301-3.601-0.801
					c-1.566-0.433-2.783-0.666-3.649-0.699C155.717,101.083,155.233,100.316,155.2,99.35z"/>
				<path style="fill-rule:evenodd;clip-rule:evenodd;fill:#E8706D;" d="M171.45,92.45c0.767,0,1.466-0.067,2.1-0.2l0.8,0.95
					c-0.8,0.4-0.916,1-0.35,1.8c0.566,0.767,1.184,0.917,1.85,0.45l0.9,1.05c-0.733,0.434-1.533,0.417-2.4-0.05
					c-0.833-0.467-1.55-1.217-2.149-2.25l0.45-0.05C171.883,93.45,171.483,92.883,171.45,92.45z"/>
				<path style="fill-rule:evenodd;clip-rule:evenodd;fill:#CC6360;" d="M159.65,103.15l-1-0.75c-0.7-0.101-1.367-0.351-2-0.75
					c0.866,0.033,2.083,0.267,3.649,0.699c1.634,0.5,2.833,0.768,3.601,0.801c0-0.367-0.134-0.7-0.4-1l1.15,0.399
					c-0.634-0.5-1.033-1.149-1.2-1.95c0.933,0.567,2.083,0.934,3.45,1.101c-0.268,1.333,0.533,2.05,2.399,2.149
					c2.601,0.101,3.983,0.2,4.15,0.301c0.866,0.5,1.417,1.033,1.649,1.6l-0.699-0.5c-3.7,0.6-6.684,0.6-8.95,0
					C162.783,104.517,160.85,103.816,159.65,103.15z"/>
				<path style="fill-rule:evenodd;clip-rule:evenodd;fill:#CC6360;" d="M175.85,95.45c-0.666,0.466-1.283,0.316-1.85-0.45
					c-0.566-0.8-0.45-1.4,0.35-1.8c0.434,0.566,0.768,1.1,1,1.6L175.85,95.45z"/>
				<path style="fill-rule:evenodd;clip-rule:evenodd;fill:#FC9E9C;" d="M163.2,89.95c2.767-0.067,4.833,0.233,6.2,0.9
					c-3.533,0.367-6.018,0.883-7.45,1.55c-0.134,0.067-1.117,0.917-2.95,2.55c-1.434,1.267-2.3,1.7-2.6,1.3l-0.65,0.5
					c0.367-0.8,0.916-1.683,1.65-2.65l0.05-0.05c0.899-0.833,2.017-1.616,3.35-2.35c1.2-0.667,2.167-1.083,2.9-1.25L163.2,89.95z"/>
			</g>
		</g>
		<g>
			<linearGradient id="SVGID_9_" gradientUnits="userSpaceOnUse" x1="187.4775" y1="107.6504" x2="171.3275" y2="106.4004">
				<stop  offset="0" style="stop-color:#FFE875"/>
				<stop  offset="0.2471" style="stop-color:#FFE575"/>
				<stop  offset="0.4314" style="stop-color:#FFDB75"/>
				<stop  offset="0.5922" style="stop-color:#FECC75"/>
				<stop  offset="0.7451" style="stop-color:#FDB575"/>
				<stop  offset="0.8824" style="stop-color:#FD9876"/>
				<stop  offset="1" style="stop-color:#FC7A76"/>
			</linearGradient>
			<path style="fill-rule:evenodd;clip-rule:evenodd;fill:url(#SVGID_9_);" d="M180.9,99.85c1.1,0.7,2.566,1.617,4.399,2.75
				c1.067,0.733,1.783,1.5,2.15,2.301c0.366,0.866,0.533,2.133,0.5,3.8c-0.067,2.267-0.8,5.283-2.2,9.05
				c-0.2,0.7-0.633-0.217-1.3-2.75c-0.9-2.967-2.45-5.083-4.65-6.35c-1.399-0.801-2.717-1.617-3.95-2.45l-1.449-0.95l-0.25,0.05
				l-0.101-0.35c-0.033-0.101-0.6-1-1.7-2.7c-0.699-1.066-0.934-2.083-0.699-3.05c0.199-0.833,0.833-1.55,1.899-2.15
				c1.067-0.633,2.083-0.866,3.05-0.7l0.301,0.35C177.5,97.5,178.833,98.55,180.9,99.85z"/>
			<path style="fill-rule:evenodd;clip-rule:evenodd;fill:#5C4E3E;" d="M181.75,107.95c0.666,0.333,1.2,0.517,1.6,0.55
				c0.066-0.934,0.2-1.65,0.4-2.15c0.833,0.233,1.283-0.166,1.35-1.199l0.7,0.1c-0.1-0.233-0.417-0.667-0.95-1.3
				c-0.467-0.5-0.666-0.95-0.6-1.351l1.5,0.351c0.867,0.667,1.467,1.399,1.8,2.2c0.3,0.833,0.434,2.017,0.4,3.55
				c-0.067,2.267-0.8,5.283-2.2,9.05c-0.2,0.7-0.633-0.217-1.3-2.75c-0.9-2.967-2.45-5.083-4.65-6.35l-2.35-1.45
				c0.566,0.1,1.433,0.167,2.6,0.2C180.45,107.467,181.017,107.65,181.75,107.95z"/>
			<radialGradient id="SVGID_10_" cx="185.0498" cy="103.2998" r="10.5851" gradientUnits="userSpaceOnUse">
				<stop  offset="0" style="stop-color:#FFFFFF"/>
				<stop  offset="1" style="stop-color:#FFD88C;stop-opacity:0"/>
			</radialGradient>
			<path style="fill-rule:evenodd;clip-rule:evenodd;fill:url(#SVGID_10_);" d="M180.2,107.95c-1.601-1.134-2.833-2.333-3.7-3.601
				c-1.267-1.767-1.6-3.383-1-4.85c0.8,0.066,2.367,0.634,4.7,1.7c0.399,0.2,1.116,0.5,2.149,0.899c0.934,0.4,1.601,0.801,2,1.2
				c0.934,0.9,1.533,2.417,1.801,4.55c0.266,2,0.166,3.667-0.301,5l-0.149-0.3c0.033,0.101,0.066,0.25,0.1,0.45
				c0.033,0.167-0.017,0.35-0.149,0.55C184.117,111.35,182.3,109.483,180.2,107.95z"/>
			<path style="fill-rule:evenodd;clip-rule:evenodd;fill:#CF6461;" d="M172.2,96.15c-0.067,0.934-0.2,1.567-0.4,1.9
				c-0.267,0.434-0.8,0.6-1.6,0.5c0.2-0.7,0.333-1.216,0.399-1.55c0.101-0.633,0-1.117-0.3-1.45c-0.333-0.4-0.866-0.616-1.6-0.65
				c-0.7-0.033-1.233,0.1-1.601,0.4c0.033-1.333,0.983-1.833,2.851-1.5C171.85,94.133,172.6,94.917,172.2,96.15z"/>
			<path style="fill-rule:evenodd;clip-rule:evenodd;fill:#FC908D;" d="M172.4,96.75c-0.033-0.833-0.234-1.483-0.601-1.95
				c-0.2-0.233-0.7-0.633-1.5-1.2c0.3-0.2,0.717-0.217,1.25-0.05c0.467,0.134,0.833,0.367,1.101,0.7
				c0.3,0.367,0.433,0.767,0.399,1.2c0,0.167-0.116,0.617-0.35,1.35L172.4,96.75z"/>
			<path style="fill-rule:evenodd;clip-rule:evenodd;fill:#544739;" d="M166.55,95.95c0.167-0.534,0.5-0.95,1-1.25
				c0.5-0.267,1.017-0.333,1.55-0.2c0.566,0.167,1,0.483,1.301,0.95c0.3,0.5,0.366,1.033,0.199,1.6
				c-0.133,0.567-0.449,0.983-0.949,1.25c-0.5,0.3-1.033,0.367-1.601,0.2c-0.566-0.133-0.983-0.45-1.25-0.95
				C166.5,97.017,166.416,96.483,166.55,95.95z"/>
			<path style="fill-rule:evenodd;clip-rule:evenodd;fill:#FC908D;" d="M166.35,94.8c-0.232,0.9-0.35,1.417-0.35,1.55
				c0,0.4,0.217,0.816,0.65,1.25c0.866,0.867,1.866,1.15,3,0.85c-0.367,0.899-0.967,1.316-1.801,1.25
				c-0.732-0.066-1.467-0.467-2.199-1.2c-0.7-0.7-1.084-1.417-1.15-2.15c-0.1-0.833,0.3-1.417,1.2-1.75L166.35,94.8z"/>
			<path style="fill-rule:evenodd;clip-rule:evenodd;fill:#8A755D;" d="M168.5,95.2c0.4-0.333,0.816-0.233,1.25,0.3
				c0.4,0.467,0.416,0.883,0.05,1.25c-0.399,0.267-0.8,0.167-1.2-0.3c-0.199-0.233-0.3-0.467-0.3-0.7
				C168.267,95.517,168.333,95.333,168.5,95.2z"/>
		</g>
		<g>
			<path style="fill-rule:evenodd;clip-rule:evenodd;fill:#56781F;" d="M110.2,187.2H110v0.8c-0.767,0.1-1.2-0.383-1.3-1.45
				c-0.101-0.899,0-1.666,0.3-2.3C108.9,185.117,109.3,186.1,110.2,187.2z"/>
			<path style="fill-rule:evenodd;clip-rule:evenodd;fill:#56781F;" d="M110.85,186.7l0.15-0.351V187h-0.6
				c-0.167-1.2-0.018-2.184,0.449-2.95V186.7z"/>
			<path style="fill-rule:evenodd;clip-rule:evenodd;fill:#56781F;" d="M76.1,173.85L75.5,174c-0.167-0.3-0.233-0.75-0.2-1.35
				c0.033-0.634,0.167-1.101,0.4-1.4c-0.034,0.367,0,0.85,0.1,1.45C75.9,173.333,76,173.717,76.1,173.85z"/>
			<path style="fill-rule:evenodd;clip-rule:evenodd;fill:#56781F;" d="M76.5,174c0-0.733,0.033-1.217,0.1-1.45
				c0.134-0.433,0.434-0.816,0.9-1.149c0.066,0.933,0.066,1.85,0,2.75L77,174.2L76.5,174z"/>
		</g>
	</g>
</g>
</svg>
