<?xml version="1.0" encoding="iso-8859-1"?>
<!-- Generator: Adobe Illustrator 15.1.0, SVG Export Plug-In . SVG Version: 6.00 Build 0)  -->
<!DOCTYPE svg PUBLIC "-//W3C//DTD SVG 1.1//EN" "http://www.w3.org/Graphics/SVG/1.1/DTD/svg11.dtd">
<svg version="1.1" id="FlashAICB" xmlns="http://www.w3.org/2000/svg" xmlns:xlink="http://www.w3.org/1999/xlink" x="0px" y="0px"
	 width="92.25px" height="102.9px" viewBox="0 0 92.25 102.9" style="enable-background:new 0 0 92.25 102.9;" xml:space="preserve"
	>
<linearGradient id="SVGID_1_" gradientUnits="userSpaceOnUse" x1="44.6377" y1="30.2031" x2="92.2627" y2="30.2031">
	<stop  offset="0" style="stop-color:#000000;stop-opacity:0.3294"/>
	<stop  offset="1" style="stop-color:#000000;stop-opacity:0.3294"/>
</linearGradient>
<path style="fill-rule:evenodd;clip-rule:evenodd;fill:url(#SVGID_1_);" d="M87.65,27.5c-1.015-0.95-1.882-1.758-2.601-2.425
	c0.229-0.626,0.495-1.468,0.8-2.525c0.434-1.5,0.9-2.566,1.4-3.2c-0.333,2.633-0.45,4.383-0.35,5.25
	c0.098,1.248,0.514,2.348,1.25,3.3c-0.164-0.121-0.297-0.229-0.4-0.325L87.65,27.5z M79.125,53.65c-0.474-0.994-1.257-1.96-2.35-2.9
	c-1.589-1.698-3.464-3.165-5.625-4.4c-1.46-0.817-3.127-1.458-5-1.925c1.156-0.795,2.09-1.337,2.8-1.625
	c0.8-0.3,2.233-0.617,4.3-0.95c1.9-0.3,3.366-0.7,4.4-1.2c4.979-2.261,8.538-4.22,10.675-5.875l0.625-0.525
	c0.643-0.548,1.109-1.065,1.399-1.55c0.166-0.275,0.357-0.65,0.575-1.125c0.006,0.036,0.015,0.078,0.025,0.125
	c0.133,0.566,0.267,1.333,0.399,2.3c0.067,0.567,0.167,1.35,0.301,2.35c0.133,1.066,0.133,2.433,0,4.1
	c-0.067,0.9-0.184,2.2-0.351,3.9c-0.066,1.533,0.017,3.367,0.25,5.5c0,0.033,0.233,1.85,0.7,5.45c-1.634,0.033-2.7,0.4-3.2,1.101
	c-0.333,0.433-1.033,1.366-2.1,2.8c-0.767,0.767-1.8,1.166-3.101,1.2c-0.452,0.021-1.11-0.013-1.975-0.101
	c-0.169-0.229-0.361-0.43-0.575-0.6l-0.149,0.024c-0.038-0.072-0.08-0.139-0.125-0.199c0.238-0.909,0.296-1.685,0.175-2.325
	c-0.06-0.34-0.168-0.656-0.325-0.95c0.016-0.21,0.016-0.41,0-0.6L80.4,54.35c-0.045-0.052-0.095-0.102-0.15-0.149
	C80.051,54.018,79.676,53.834,79.125,53.65z M60.1,10.375c0.591-0.318,1.107-0.893,1.551-1.725c0.8,1.733,2.566,3.167,5.3,4.3
	c3.934,1.6,6.166,2.583,6.7,2.95c2.989,2.053,5.33,3.87,7.024,5.45c-0.113-0.091-0.229-0.174-0.35-0.25
	c-0.013-0.019-0.029-0.036-0.05-0.05c-0.024-0.016-0.05-0.032-0.075-0.05c-6.9-4.6-13.584-8.133-20.05-10.6L60.1,10.375z
	 M53.75,8.275L49.8,7.35c-0.081-0.017-0.164-0.034-0.25-0.05c0.416-0.496,0.832-1.346,1.25-2.55c1.066-3.033,1.667-4.617,1.8-4.75
	c-0.533,2.167-0.633,3.867-0.3,5.1c0.101,0.467,0.434,1.2,1,2.2C53.485,7.632,53.636,7.957,53.75,8.275z"/>
<linearGradient id="SVGID_2_" gradientUnits="userSpaceOnUse" x1="39.0625" y1="81.3008" x2="83.1375" y2="81.3008">
	<stop  offset="0" style="stop-color:#000000;stop-opacity:0.3294"/>
	<stop  offset="1" style="stop-color:#000000;stop-opacity:0.3294"/>
</linearGradient>
<path style="fill-rule:evenodd;clip-rule:evenodd;fill:url(#SVGID_2_);" d="M57.85,87.025c0.136-0.034,0.269-0.076,0.4-0.125
	c0.634-0.267,1.6-0.784,2.9-1.551c-0.049,0.011-0.099,0.02-0.15,0.025c0.503-0.303,1.053-0.645,1.65-1.025
	c0.495-0.307,1.27-0.682,2.324-1.125l0.476-0.175c1.859-0.656,3.276-1.156,4.25-1.5c1-0.366,1.883-0.791,2.649-1.274l2-1.575
	c1.101-1.2,2.084-2.733,2.95-4.601c0.267-0.533,0.95-2.199,2.05-5c1.167-2.933,1.834-4.733,2-5.399
	c0.006-0.026,0.015-0.051,0.025-0.075l0.15-2.675c-0.067-0.451-0.192-0.859-0.375-1.226L81.3,59.7c0.214,0.17,0.406,0.37,0.575,0.6
	c0.905,1.155,1.331,3.055,1.275,5.7c-0.067,1.733-0.317,4.083-0.75,7.05c-0.067,0.667-0.051,2.334,0.05,5
	c0.033,2.066-0.117,3.7-0.45,4.9c-0.2,0.7-0.566,1.566-1.1,2.6c-0.267,0.566-0.684,1.384-1.25,2.45
	c-0.067,0.1-0.184,0.45-0.351,1.05c-0.166,0.5-0.35,0.834-0.55,1c-0.2,0.134-0.566,0.184-1.1,0.15c-0.567-0.033-0.9,0-1,0.1
	c-0.267,0.267-0.75,1.117-1.45,2.55c-0.733,1.301-1.483,1.9-2.25,1.801c-0.267-0.034-0.934-0.567-2-1.601
	c-0.7-0.633-1.434-0.416-2.2,0.65c-0.6,0.767-0.9,2.25-0.9,4.45c-0.033,1.199,0.017,2.783,0.15,4.75
	c-0.267-0.667-0.634-1.767-1.1-3.301c-0.434-1.433-0.817-2.517-1.15-3.25c-0.8-1.8-1.616-2.933-2.45-3.399
	c-0.233-0.134-0.566-0.084-1,0.149c-0.467,0.233-0.8,0.317-1,0.25c-0.767-0.199-1.366-0.55-1.8-1.05c-0.3-0.166-0.934,0.167-1.9,1
	c-0.033,0.033-0.533,0.684-1.5,1.95c-0.6,0.767-1.283,1.116-2.05,1.05c0.267-2.399-0.649-3.184-2.75-2.35
	c-1.833,0.733-2.816,1.833-2.95,3.3c-0.033-2.233-0.683-4.2-1.949-5.9c-1-1.233-1.684-1.916-2.05-2.05
	c-0.633-0.2-1.184,0.45-1.65,1.95c0.133-1.434,0.117-2.4-0.05-2.9c-0.133-0.466-0.467-1.066-1-1.8
	c-0.233-0.329-0.433-0.629-0.6-0.899c0.493,0.133,1.01,0.249,1.55,0.35c0.827,0.155,1.711,0.271,2.65,0.35
	c3.833,0.334,5.967,0.534,6.4,0.601c2.733,0.467,4.683,0.533,5.85,0.2C57.604,87.122,57.721,87.08,57.85,87.025z"/>
<path style="fill-rule:evenodd;clip-rule:evenodd;fill:#957C39;" d="M41.05,85.65c-0.678-0.187-1.311-0.403-1.9-0.65
	c-2.183-0.884-4.366-1.926-6.55-3.125c0.002-0.39,0.052-0.765,0.15-1.125c1.2-0.2,2.667,0.15,4.4,1.05
	c0.633,0.367,1.934,1.217,3.9,2.55c0.1-0.8,0.15-1.383,0.15-1.75c0.966-0.133,1.966,0.051,3,0.551c0.367,0.166,1.267,0.699,2.7,1.6
	c-0.034-0.233,0.017-0.634,0.149-1.2c0.134-0.566,0.184-0.967,0.15-1.2c2.133,0.167,3.767,0.284,4.899,0.351
	c2.067,0.1,3.634-0.05,4.7-0.45c0,0.066,0.066,0.35,0.2,0.85c0.134,0.467,0.184,0.817,0.15,1.051
	c0.166-0.167,0.649-0.517,1.449-1.051c0.733-0.5,1.217-0.899,1.45-1.199l0.2,0.899c1.333-1.033,3.316-2.383,5.95-4.05
	c2.934-1.866,4.967-3.2,6.1-4c-0.767,1.267-1.866,2.7-3.3,4.3c-1.566,1.767-3.066,3.217-4.5,4.351
	c0.164-0.06,0.323-0.117,0.475-0.176c-1.055,0.443-1.829,0.818-2.324,1.125c-0.598,0.381-1.147,0.723-1.65,1.025
	c-0.468,0.065-1.134,0.024-2-0.125c-0.833-0.167-1.467-0.15-1.9,0.05c-0.399,0.167-0.716,0.483-0.949,0.95
	c-0.334,0.7-0.517,1.066-0.551,1.1c0.808,0,1.558-0.108,2.25-0.324c-0.129,0.055-0.246,0.097-0.35,0.125
	c-1.167,0.333-3.116,0.267-5.85-0.2c-0.434-0.066-2.567-0.267-6.4-0.601c-0.939-0.078-1.823-0.194-2.65-0.35
	c1.4,0.233,2.65,0.366,3.75,0.4c-1.266-1.334-2.516-2.084-3.75-2.25c-0.067,0.633-0.067,1.25,0,1.85
	C42.06,85.899,41.543,85.783,41.05,85.65z M47.05,86.45c1.934,0.133,3.4,0.283,4.4,0.45c-1.3-0.967-2.017-1.5-2.15-1.601
	c-0.866-0.566-1.6-0.883-2.2-0.95C47.134,84.884,47.116,85.583,47.05,86.45z"/>
<path style="fill-rule:evenodd;clip-rule:evenodd;fill:#7A652B;" d="M64.975,83.225c-0.151,0.059-0.311,0.116-0.475,0.176
	c1.434-1.134,2.934-2.584,4.5-4.351c1.434-1.6,2.533-3.033,3.3-4.3c-1.133,0.8-3.166,2.134-6.1,4
	c-2.634,1.667-4.617,3.017-5.95,4.05l-0.2-0.899c-0.233,0.3-0.717,0.699-1.45,1.199c-0.8,0.534-1.283,0.884-1.449,1.051
	c0.033-0.233-0.017-0.584-0.15-1.051c-0.134-0.5-0.2-0.783-0.2-0.85c-1.066,0.4-2.633,0.55-4.7,0.45
	c-1.133-0.066-2.767-0.184-4.899-0.351c0.033,0.233-0.017,0.634-0.15,1.2c-0.133,0.566-0.184,0.967-0.149,1.2
	c-1.434-0.9-2.333-1.434-2.7-1.6c-1.034-0.5-2.034-0.684-3-0.551c0,0.367-0.05,0.95-0.15,1.75c-1.966-1.333-3.267-2.183-3.9-2.55
	c-1.733-0.899-3.2-1.25-4.4-1.05c-0.098,0.36-0.148,0.735-0.15,1.125V81.9c-0.47-0.256-0.937-0.522-1.4-0.801l-4.15-2.6
	c-0.079-0.056-0.17-0.114-0.275-0.175c0.288,0.078,0.579,0.153,0.875,0.225c2.3,0.434,4.15,0.816,5.55,1.15
	c8.466,1.967,17.133,2.149,26,0.55c3.033-0.5,6.416-2.233,10.149-5.2c3.334-2.666,6.034-5.5,8.101-8.5
	c1.916-2.874,3.107-5.216,3.575-7.024c0.045,0.061,0.087,0.127,0.125,0.199c0.183,0.366,0.308,0.774,0.375,1.226l-0.15,2.675
	c-0.011,0.024-0.02,0.049-0.025,0.075c-0.166,0.666-0.833,2.467-2,5.399c-1.1,2.801-1.783,4.467-2.05,5
	c-0.866,1.867-1.85,3.4-2.95,4.601l-2,1.575c-0.767,0.483-1.649,0.908-2.649,1.274c-0.974,0.344-2.391,0.844-4.25,1.5L64.975,83.225
	z M17.5,74.45c1.477,0.625,2.66,1.133,3.55,1.524c-0.135-0.037-0.268-0.079-0.4-0.125C19.409,75.422,18.359,74.955,17.5,74.45z"/>
<path style="fill-rule:evenodd;clip-rule:evenodd;fill:#826F3B;" d="M61,85.375c0.052-0.006,0.102-0.015,0.15-0.025
	c-1.301,0.767-2.267,1.284-2.9,1.551c-0.132,0.049-0.265,0.091-0.4,0.125c-0.692,0.216-1.442,0.324-2.25,0.324
	c0.034-0.033,0.217-0.399,0.551-1.1c0.233-0.467,0.55-0.783,0.949-0.95c0.434-0.2,1.067-0.217,1.9-0.05
	C59.866,85.399,60.532,85.44,61,85.375z M42.6,86c-0.067-0.6-0.067-1.217,0-1.85c1.233,0.166,2.483,0.916,3.75,2.25
	C45.25,86.366,44,86.233,42.6,86z M47.05,86.45c0.066-0.867,0.084-1.566,0.05-2.101c0.601,0.067,1.334,0.384,2.2,0.95
	c0.134,0.101,0.851,0.634,2.15,1.601C50.45,86.733,48.983,86.583,47.05,86.45z"/>
<path style="fill-rule:evenodd;clip-rule:evenodd;fill:#AF9041;" d="M21.05,75.975c-0.89-0.392-2.073-0.899-3.55-1.524
	c-0.116-0.051-0.233-0.101-0.35-0.15C14.917,73.4,13.2,72.566,12,71.8c-4.367-2.767-4.65-5.666-0.85-8.7
	c0.871-0.696,3.137-1.963,6.8-3.8v0.025c-0.807,0.66-1.665,1.335-2.575,2.024c-0.576,0.054-1.067,0.22-1.475,0.5
	c-0.501,0.317-0.76,0.759-0.775,1.325c-1.697,1.465-2.572,2.557-2.625,3.275c-0.067,1.133,1.417,2.483,4.45,4.05
	c0.833,0.434,1.917,0.833,3.25,1.2c1.733,0.5,2.833,0.833,3.3,1c0.031,0.012,0.064,0.02,0.1,0.024
	c0.123,0.463,0.523,0.671,1.2,0.625c0.373,0.243,0.773,0.526,1.2,0.851c1.033,0.833,1.817,1.366,2.35,1.6
	c1.7,0.767,4.05,1.316,7.05,1.65c3.467,0.233,5.934,0.416,7.4,0.55c3.833,0.366,6.601,0.566,8.3,0.6
	c3.167,0.067,5.867-0.183,8.101-0.75c3.063-0.792,6.088-2.25,9.075-4.375c0.159-0.05,0.326-0.117,0.5-0.199
	c0.028-0.007,0.054-0.016,0.074-0.025c0.042-0.021,0.083-0.046,0.125-0.075c0.61-0.319,1.019-0.711,1.226-1.175
	c1.135-0.936,2.269-1.969,3.399-3.1c3-3,4.717-4.733,5.15-5.2c0.258-0.29,0.5-0.574,0.725-0.851H77.5l0.1-0.149
	c1.224-1.477,2.091-2.793,2.601-3.95c0.174-0.384,0.307-0.75,0.399-1.1l0.2-0.9c0.034-0.177,0.06-0.344,0.075-0.5
	c0.157,0.294,0.266,0.61,0.325,0.95c0.121,0.641,0.063,1.416-0.175,2.325c-0.468,1.809-1.659,4.15-3.575,7.024
	c-2.066,3-4.767,5.834-8.101,8.5c-3.733,2.967-7.116,4.7-10.149,5.2c-8.867,1.6-17.534,1.417-26-0.55
	c-1.4-0.334-3.25-0.717-5.55-1.15c-0.296-0.071-0.587-0.146-0.875-0.225c-1.595-0.444-3.07-1.02-4.425-1.726
	C22.031,76.44,21.597,76.231,21.05,75.975z M34.9,49.875c-0.505-0.115-1.005-0.24-1.5-0.375l-0.075-0.025
	c-0.168-0.041-0.359-0.09-0.575-0.15l-1.05-0.35c-0.901-0.293-2.034-0.685-3.4-1.175c-0.159-0.057-0.317-0.116-0.475-0.175
	c-1.833-0.664-4.041-1.489-6.625-2.475c-1.567-0.6-4.184-1.283-7.85-2.05c-3.367-0.7-5.934-1.467-7.7-2.3
	C2.017,39.1,0.133,37.533,0,36.1c-0.1-1.367,1.333-3.4,4.3-6.1c-1.1,1.933-1.45,3.65-1.05,5.15C3.683,35.217,4,35.233,4.2,35.2
	c-0.034,0.167-0.017,0.45,0.05,0.85c0.033,0.4,0.033,0.684,0,0.85c0.267,0.1,0.583,0.367,0.95,0.8c0.466,0.533,0.783,0.867,0.95,1
	c0.467,0.333,1.017,0.566,1.65,0.7c0.767,0.1,1.4,0.2,1.9,0.3c0.133,0.767,0.966,1.3,2.5,1.6c0.1,0,1.216,0.117,3.35,0.35
	c1,0.1,2.133,0.367,3.4,0.8c1.7,0.566,2.8,0.917,3.3,1.05c2.5,0.6,5.9,1.683,10.2,3.25c0.463,0.166,1.039,0.266,1.725,0.3H34.2
	c0.427,0.017,0.777,0.034,1.05,0.05c0.253,0.017,0.436,0.034,0.55,0.05c1.267,0.3,2.4,0.45,3.4,0.45c0.733,0,2.133,0.133,4.2,0.4
	c1.867,0.2,3.3,0.267,4.3,0.2c0.033,0,0.6-0.083,1.7-0.25c0.633-0.1,1.233-0.1,1.8,0c1.033,0.167,1.899,0.233,2.6,0.2
	c0.634-0.033,1.467-0.167,2.5-0.4c0.767-0.1,1.334-0.167,1.7-0.2c0.7-0.1,1.217-0.3,1.55-0.6c0.267-0.233,0.483-0.667,0.65-1.3
	c0.166-0.5,0.5-0.9,1-1.2c0.166-0.1,0.434-0.117,0.8-0.05c0.4,0.067,0.667,0.067,0.8,0c0.367-0.167,0.733-0.4,1.101-0.7
	c0.566-0.467,0.866-0.717,0.899-0.75c0.601-0.467,1.65-1.067,3.15-1.8c0.833-0.367,1.633-0.633,2.399-0.8
	c0.967-0.133,1.767-0.267,2.4-0.4c0.937-0.057,1.704-0.223,2.3-0.5c0.613-0.276,1.013-0.651,1.2-1.125
	c0.313-0.102,0.646-0.21,1-0.325c-0.042-0.153-0.083-0.286-0.125-0.4c1.716-0.385,2.975-0.685,3.775-0.9
	c1.533-0.434,2.649-1.267,3.35-2.5c1.566,0.033,2.85-0.117,3.85-0.45l2.15-0.95c-0.301,0.462-0.734,0.945-1.3,1.45l-0.625,0.525
	c-2.137,1.655-5.695,3.614-10.675,5.875c-1.034,0.5-2.5,0.9-4.4,1.2c-2.066,0.333-3.5,0.65-4.3,0.95
	c-0.71,0.288-1.644,0.83-2.8,1.625c-0.863,0.587-1.847,1.313-2.95,2.175c-2.267,1.767-4.334,2.85-6.2,3.25
	c-1.333,0.3-3.1,0.5-5.3,0.6c-1.233,0.066-3.017,0.15-5.351,0.25C42.314,50.963,38.498,50.688,34.9,49.875z"/>
<path style="fill-rule:evenodd;clip-rule:evenodd;fill:#7E3C2C;" d="M18.75,35.2c0.133-0.204,0.2-0.47,0.2-0.8
	c-0.833-0.1-1.383-0.117-1.65-0.05h-1c-0.2,0.267-0.316,0.433-0.35,0.5c-0.067,0.233-0.034,0.483,0.1,0.75
	c0.333,0.075,0.633,0.125,0.9,0.15c-2.709,0.869-4.192,1.335-4.45,1.4c-0.167-0.6-0.533-0.933-1.1-1
	c-0.333-0.033-0.883-0.05-1.65-0.05c-0.133-0.4-0.233-0.633-0.3-0.7l-0.7-0.25c0.033-0.167,0.033-0.433,0-0.8
	c-0.067-0.4-0.083-0.684-0.05-0.85c-0.633-0.1-1.617-0.133-2.95-0.1c0.3-0.6,0.45-1.25,0.45-1.95C6,31.417,5.683,31.3,5.25,31.1
	c0.395-0.648,1.061-1.439,2-2.375c0.203,0.035,0.395,0.051,0.575,0.05C7.742,29.03,7.7,29.305,7.7,29.6c0.8,0.233,1.466,0.233,2,0
	c0.6-0.267,0.917-0.8,0.95-1.6l0.65-1.3c-0.621,0.041-1.171,0.149-1.65,0.325V27l0.65-1.3c-0.081,0-0.164,0-0.25,0
	c0.116-0.14,0.215-0.273,0.3-0.4c-0.132,0.09-0.265,0.182-0.4,0.275c0.853-0.626,1.769-1.284,2.75-1.975
	c-0.025,0.214-0.025,0.447,0,0.7c0.9,0.233,1.783,0.1,2.65-0.4c0.967-0.7,1.733-1.217,2.3-1.55L17.5,21.7l-0.975-0.275
	c0.03-0.018,0.063-0.035,0.1-0.05l0.025-0.025l-0.1-0.45c2.53-1.84,4.479-3.374,5.85-4.6c3.067-2.8,5.434-4.767,7.1-5.9
	c0.438-0.299,0.872-0.574,1.3-0.825c-0.244,0.151-0.494,0.309-0.75,0.475c-0.167,0.233-0.833,1.184-2,2.85
	c-0.8,1.167-1.5,2.067-2.1,2.7c-0.4,0.4-1.1,0.917-2.1,1.55c-0.967,0.6-1.667,1.117-2.1,1.55c-0.3,0.3-0.767,0.8-1.4,1.5
	c-0.6,0.667-1.083,1.167-1.45,1.5c-0.633,0.6-1.833,1.517-3.6,2.75c-1.533,1.2-2.55,2.267-3.05,3.2
	c0.744-0.182,1.561-0.532,2.45-1.05c0.002,0.052,0.002,0.103,0,0.15v0.075c0,0.047,0,0.097,0,0.15c-0.008,0.11-0.008,0.219,0,0.325
	c0.345,0.079,0.687,0.121,1.025,0.125c-0.039,0.276-0.047,0.568-0.025,0.875c1.167,0.267,2.283,0.133,3.35-0.4
	c1.2-0.566,1.833-1.417,1.9-2.55l-0.65-1c-0.12,0.01-0.236,0.018-0.35,0.025V24.35l-0.25-0.4l-0.4-0.6
	c-0.129,0.011-0.254,0.019-0.375,0.025c2.148-1.968,3.673-3.343,4.575-4.125c2.933-2.533,4.833-4.283,5.7-5.25
	c1-1.067,1.966-1.717,2.9-1.95c0.667-0.167,1.867-0.2,3.6-0.1c-0.034,0.8-0.55,1.783-1.55,2.95c-0.566,0.6-1.367,1.467-2.4,2.6
	c-0.9,1.267-2.183,2.85-3.85,4.75c-2.033,2.3-3.35,3.833-3.95,4.6c0.933-0.9,2.316-2.3,4.15-4.2c1.833-1.9,3.217-3.3,4.15-4.2
	c3.133-2.967,5.617-4.467,7.45-4.5c0.333,1.667-0.233,3.767-1.7,6.3c-0.833,1.367-2.1,3.217-3.8,5.55
	c-0.903,1.361-1.903,2.744-3,4.15c0.057-0.108,0.107-0.225,0.15-0.35c0.404-1.306,0.129-2.047-0.825-2.225
	c-0.076-0.618-0.484-0.959-1.225-1.025h-1.65c-0.872,0.299-1.456,0.766-1.75,1.4c-0.216,0.408-0.282,0.799-0.2,1.175
	c0.057,0.571,0.398,0.979,1.025,1.225c0.18,0.648,0.788,1.048,1.825,1.2c0.737,0.105,1.345-0.003,1.825-0.325
	c-1.372,1.711-2.88,3.461-4.525,5.25L25.3,35c-0.175,0.048-0.342,0.098-0.5,0.15L24.3,34c-0.876,0.241-1.634,0.499-2.275,0.775
	c-0.011-0.044-0.019-0.086-0.025-0.125C21.1,34.674,20.017,34.858,18.75,35.2z M32.675,33.15c0.063,0.292,0.271,0.558,0.625,0.8
	c0.733,0.5,1.367,0.45,1.9-0.15c0.533-0.6,0.45-1.2-0.25-1.8l-0.425-0.2c-0.072-0.266-0.264-0.533-0.575-0.8l-0.65-0.3
	c-0.086-0.008-0.169-0.008-0.25,0c0.837-1.161,1.72-2.494,2.65-4c0.5-0.833,1.267-1.867,2.3-3.1c1.267-1.5,2.083-2.517,2.45-3.05
	c1.267-1.7,2.15-2.816,2.65-3.35c1.333-1.4,2.45-2.05,3.35-1.95c0.166,3.6-0.217,7.817-1.15,12.65c-0.667,3.4-1.716,7.567-3.15,12.5
	c0.552-0.954,1.068-1.887,1.55-2.8c-0.251,0.909,0.057,1.468,0.925,1.675c0.051,0.618,0.509,0.976,1.375,1.075
	c1,0.1,1.616-0.267,1.85-1.1c0.134-0.467,0.167-1.317,0.101-2.55l-0.976,0.225c0.009-0.355,0-0.764-0.024-1.225l-0.3,0.05v0.025
	l-1,0.225c-0.58-0.039-1.039,0.12-1.375,0.475c1.82-3.758,2.978-7.217,3.475-10.375c0.267-1.934,0.816-3.65,1.65-5.15
	c1.199-2.067,2.633-2.9,4.3-2.5c0.033,0.6,0,1.283-0.101,2.05c-0.028,0.188-0.07,0.413-0.125,0.675L53.45,21.15L53.3,21
	c-1.267,0.567-2.017,1.233-2.25,2c-0.104,0.281-0.137,0.54-0.1,0.775c0.059,0.681,0.392,0.998,1,0.95
	c0.044,0.304,0.21,0.563,0.5,0.775c0.5,0.367,0.983,0.317,1.45-0.15c0.533-0.533,0.783-1.533,0.75-3L54.3,22
	c-0.244,0.109-0.47,0.226-0.675,0.35c0.01-0.125,0.019-0.25,0.025-0.375c0.674-0.834,1.207-1.476,1.6-1.925
	c0.8-0.9,1.583-1.583,2.35-2.05c0.067,0.6,0.017,1.3-0.149,2.1c-0.101,0.467-0.267,1.15-0.5,2.05c-0.334,1.767-0.684,4.9-1.05,9.4
	c-0.134,1.567-0.2,3.5-0.2,5.8c0,0.73,0,1.672,0,2.825c-0.016,0.068-0.032,0.126-0.05,0.175c-0.067,0.2-0.317,0.633-0.75,1.3
	c-0.367,0.533-0.567,0.983-0.601,1.35c-0.004,0.118-0.004,0.235,0,0.35c-0.465-0.426-0.748-1.159-0.85-2.2c-0.167-1.8-0.3-2.8-0.4-3
	c-1.033,0.2-2.083,1.2-3.149,3c-1.034,1.733-1.517,3.217-1.45,4.45c-1.334-2.434-2.733-2.833-4.2-1.2c0-0.108-0.033-0.258-0.1-0.45
	c0.138-0.072,0.254-0.172,0.35-0.3c0.3-0.4,0.35-0.95,0.15-1.65c-0.449,0.112-0.808,0.288-1.075,0.525
	c0.231-0.381,0.256-0.889,0.075-1.525c-1.066,0.267-1.617,0.917-1.65,1.95c0.582,0.166,1.023,0.125,1.325-0.125
	c-0.069,0.108-0.127,0.225-0.175,0.35l-1.9-0.025c0.033-0.667-0.167-1.066-0.6-1.2c-0.433-0.1-0.9,0.05-1.4,0.45
	c-0.032-0.578-0.032-1.553,0-2.925c0.208-0.454,0.217-0.813,0.025-1.075c-0.007-0.938-0.048-1.688-0.125-2.25
	c-0.443,0.103-0.959,0.369-1.55,0.8l-0.65-0.6c-0.733,0.167-1.184,0.633-1.35,1.4c-0.101,0.384-0.092,0.709,0.025,0.975
	c-1.366,1.42-2.491,2.229-3.375,2.425c0.233-1.066-0.1-1.517-1-1.35c-0.6,0.133-1.333,0.483-2.2,1.05c-0.133-0.7-0.483-1-1.05-0.9
	c-0.3,0.066-0.85,0.2-1.65,0.4c-0.406-0.031-0.897-0.223-1.475-0.575c0.897-0.66,1.372-1.469,1.425-2.425l-0.175-0.4
	c1.657-0.663,3.333-1.946,5.025-3.85c0.199-0.228,0.399-0.47,0.6-0.725c0.106,0.205,0.29,0.397,0.55,0.575
	C32.428,33.038,32.553,33.104,32.675,33.15z M90.2,31.775c-0.569,0.318-1.062,0.577-1.476,0.775c0.079-0.07,0.153-0.137,0.226-0.2
	L89,32.275c0.146-0.133,0.254-0.267,0.325-0.4C89.619,31.858,89.911,31.825,90.2,31.775z M86.375,29.625
	c0.271,0.114,0.487,0.23,0.65,0.35c-0.165-0.023-0.331-0.04-0.5-0.05C86.483,29.822,86.434,29.722,86.375,29.625z M76.65,30.475
	c-0.531-0.962-1.248-2.021-2.15-3.175c-2.2-2.867-3.2-5.167-3-6.9c1.667,1.067,3.816,2.633,6.45,4.7c0-0.267-0.066-0.617-0.2-1.05
	c-0.167-0.667-0.267-1.033-0.3-1.1c0.967,0.033,2.133,0.3,3.5,0.8c1.533,0.6,2.533,1.25,3,1.95c0.2,0.3,0.333,0.85,0.399,1.65
	c0.012,0.123,0.028,0.239,0.051,0.35c-0.154-0.089-0.321-0.173-0.5-0.25c-0.934-0.4-1.917-0.55-2.95-0.45l1,1
	c-1.033-0.433-2.351-0.5-3.95-0.2v0.05l0.025,0.075c0.017,0.203,0.024,0.527,0.024,0.975c-0.014,0.182-0.014,0.349,0,0.5v0.05
	c0.029,0.19,0.079,0.357,0.15,0.5C77.45,29.973,76.934,30.147,76.65,30.475z M76.9,35.1c0.042,0.076,0.092,0.151,0.149,0.225
	c-0.254,0.281-0.471,0.472-0.649,0.575c-0.183,0.097-0.35,0.181-0.5,0.25c-0.054-0.045-0.12-0.079-0.2-0.1
	c-0.2-0.066-0.484-0.1-0.851-0.1c0.011,0.015,0.019,0.032,0.025,0.05H74.85v-0.05c-0.009-0.149-0.009-0.316,0-0.5
	c0.067-0.633,0-1.083-0.199-1.35c-0.221-0.3-0.504-0.542-0.851-0.725c-0.042-0.106-0.092-0.197-0.149-0.275
	c-0.154-0.209-0.337-0.393-0.551-0.55c-0.307-0.203-0.673-0.353-1.1-0.45c-0.434,0.233-0.967,0.4-1.6,0.5l0.55,0.4
	c-0.221,0.096-0.404,0.229-0.55,0.4c-0.216,0.252-0.35,0.585-0.4,1c-0.118,0.056-0.234,0.123-0.35,0.2
	c-0.4,0.267-0.95,1.117-1.65,2.55c-0.6,1.267-1.366,2.033-2.3,2.3c-0.267,0.1-0.717,0.1-1.351,0c-0.633-0.067-1.1-0.067-1.399,0
	c-0.634,0.2-1.217,0.667-1.75,1.4c-0.167,0.167-0.584,0.8-1.25,1.9c-0.127-0.141-0.269-0.25-0.425-0.325
	c0.005-0.344-0.003-0.669-0.025-0.975c-0.168-1.73-0.66-2.755-1.475-3.075c-0.258-0.55-0.616-0.892-1.075-1.025l-0.476-0.05
	c0.111-0.722,0.236-1.489,0.375-2.3c0.063-0.366,0.121-0.725,0.176-1.075c0.12,0.018,0.253,0.018,0.399,0
	c0.058,0.477,0.283,0.785,0.675,0.925c0.434,0.2,0.834,0.05,1.2-0.45c0.367-0.566,0.483-1.467,0.351-2.7l-0.926-0.325
	c-0.017-0.209-0.041-0.434-0.074-0.675l-0.2-0.1v0.025l-0.8-0.275c-0.037,0.036-0.07,0.069-0.101,0.1
	c0.182-1.416,0.299-2.616,0.351-3.6c0.033-1.434,0.083-2.533,0.149-3.3c0.066-1.333,0.283-2.367,0.65-3.1c0.5,1,0.816,2.2,0.95,3.6
	c0.066,0.733,0.083,1.967,0.05,3.7c0.1-0.467,0.233-1.467,0.399-3c0.101-1.267,0.284-2.217,0.551-2.85
	c0.699,1.967,1.283,4.883,1.75,8.75c0.533,4.133,1.033,7.033,1.5,8.7c0.052-0.594,0.085-1.461,0.1-2.6
	c0.042,0.02,0.084,0.036,0.125,0.05l0.25,0.1c0.087,0.03,0.17,0.055,0.25,0.075c0.012,0.196,0.037,0.405,0.075,0.625
	c1.399,0.767,2.416,0.533,3.05-0.7c0.596-1.131,0.37-1.756-0.675-1.875C67.151,34.342,66.677,34,65.65,34H65.3
	c-0.57-0.104-0.995,0.013-1.274,0.35c-0.014-1.389-0.039-3.022-0.075-4.9c0.237,0.456,0.588,0.822,1.05,1.1
	c0.27,0.468,0.669,0.835,1.2,1.1C66.1,31.283,66.033,30.8,66,30.2c-0.1-0.767-0.233-1.367-0.4-1.8h-0.725
	c-0.08-0.397-0.172-0.731-0.275-1H63.95c0.01-3.209,0.21-5.859,0.6-7.95c1.066,3.7,1.967,6.383,2.7,8.05
	c0.134,0.367,0.533,1.217,1.2,2.55c0.5,1.034,0.85,1.883,1.05,2.55c0.097-1.381-0.162-3.306-0.775-5.775
	c0.22,0.382,0.512,0.64,0.875,0.775c0.02,0.036,0.036,0.069,0.051,0.1c0.466,0.933,1.333,1.233,2.6,0.9
	c0.667-1.167,0.566-2.033-0.3-2.6l-0.3-0.1c-0.091-0.354-0.324-0.654-0.7-0.9l-1-0.3c-0.905,0.255-1.389,0.655-1.45,1.2
	c-0.563-2.408-0.831-4.224-0.8-5.45c1.7,1.5,3.5,3.683,5.399,6.55c0.88,1.346,2.088,3.213,3.625,5.6
	c-0.391,0.04-0.674,0.156-0.85,0.35c-0.585,0.398-0.46,0.931,0.375,1.6C76.472,34.777,76.688,34.96,76.9,35.1z M80.8,56.75
	c0.068-0.408,0.093-0.775,0.075-1.1c0.016,0.189,0.016,0.39,0,0.6C80.859,56.406,80.834,56.573,80.8,56.75z M77.6,62.7l0.101-0.15
	c-0.113-0.291-0.205-0.583-0.275-0.875c0.377-0.121,0.552-0.396,0.525-0.825L77.2,60.1c0.006-0.334,0.039-0.667,0.1-1
	c1.3-0.133,2.267-0.25,2.9-0.35C79.69,59.907,78.823,61.224,77.6,62.7z M70.075,66.775c0.508-0.028,1.065-0.053,1.675-0.075
	c-0.01-0.122-0.01-0.264,0-0.425c0.215,0.027,0.465,0.053,0.75,0.074c0.634,0.067,1.066,0.051,1.3-0.05
	c0.3-0.133,0.533-0.45,0.7-0.95c0.134-0.433,0.15-0.933,0.05-1.5c-0.133-0.6-0.383-0.983-0.75-1.149l-0.3-0.075
	c-0.015-0.048-0.032-0.099-0.05-0.15c1.269-0.231,2.61-0.106,4.024,0.375c-0.225,0.276-0.467,0.561-0.725,0.851
	c-0.434,0.467-2.15,2.2-5.15,5.2c-1.131,1.131-2.265,2.164-3.399,3.1c0.056-0.14,0.098-0.281,0.125-0.425L68.3,70.9l-0.375-0.051
	c-0.03-0.261-0.072-0.444-0.125-0.55c-0.15-0.301-0.441-0.459-0.875-0.475c-0.033-0.251-0.075-0.426-0.125-0.525
	c-0.016-0.037-0.033-0.07-0.05-0.1c-0.137-0.228-0.378-0.353-0.725-0.375h-0.4c0.06-0.064,0.118-0.14,0.175-0.226
	c0.198-0.352,0.215-0.651,0.05-0.899c0.438-0.346,0.837-0.579,1.2-0.7c0.1-0.024,0.274-0.05,0.525-0.075
	C67.453,67.331,67.562,67.689,67.9,68c0.219,0.197,0.427,0.322,0.625,0.375c0.045,0.229,0.17,0.438,0.375,0.625
	c0.666,0.6,1.267,0.566,1.8-0.1c0.566-0.7,0.55-1.267-0.05-1.7L70.1,66.875C70.097,66.839,70.088,66.806,70.075,66.775z
	 M48.075,72.55c1.329-1.242,2.17-1.959,2.524-2.149c1.134,1.533,2.384,3.416,3.75,5.649c1.118-0.39,1.943-1.548,2.476-3.475
	c0.206,0.661,0.814,0.97,1.825,0.925c0.767-0.033,1.183-0.533,1.25-1.5c-0.003-0.046-0.003-0.088,0-0.125
	c0.36,0.134,0.627,0.226,0.8,0.275c0.399,0.104,0.941-0.146,1.625-0.75c0.051,0.38,0.226,0.672,0.524,0.875
	c0.042,0.027,0.084,0.052,0.125,0.074c0.024,0.021,0.049,0.037,0.075,0.051c0.085,0.038,0.186,0.071,0.3,0.1
	c0.159,0.658,0.793,1.042,1.9,1.15l0.2-0.15l0.6,0.025c0.068-0.013,0.144-0.029,0.226-0.051c-2.987,2.125-6.012,3.583-9.075,4.375
	c-2.233,0.567-4.934,0.817-8.101,0.75c-1.699-0.033-4.466-0.233-8.3-0.6c-1.466-0.134-3.933-0.316-7.4-0.55
	c-3-0.334-5.35-0.884-7.05-1.65c-0.533-0.233-1.317-0.767-2.35-1.6c-0.427-0.324-0.827-0.607-1.2-0.851
	c0.048,0.006,0.098,0.006,0.15,0c0.633-0.066,0.933-0.466,0.9-1.199c0-0.767-0.3-1.084-0.9-0.95V71c-0.9,0.066-1.367,0.5-1.4,1.3
	c-0.007,0.165,0.01,0.307,0.05,0.425c-0.036-0.005-0.069-0.013-0.1-0.024c-0.467-0.167-1.567-0.5-3.3-1
	c-1.333-0.367-2.417-0.767-3.25-1.2c-3.034-1.566-4.517-2.917-4.45-4.05c0.053-0.719,0.928-1.811,2.625-3.275
	c-0.011,0.15-0.003,0.309,0.025,0.476c0.386,0.067,0.752,0.051,1.1-0.051c-0.133,0.3-0.167,0.65-0.1,1.051
	c0.567,0.1,1.083,0.017,1.55-0.25c0.267-0.167,0.683-0.517,1.25-1.051v-1c-0.4-0.016-0.767,0.018-1.1,0.101
	c0.034-0.036,0.067-0.069,0.1-0.101v-1c-0.197-0.008-0.388-0.008-0.575,0c0.91-0.689,1.769-1.364,2.575-2.024
	c0.006,0.153,0.023,0.312,0.05,0.475c0.286,0.086,0.611,0.062,0.975-0.075c-0.044,0.352-0.036,0.71,0.025,1.075
	c0.667,0.2,1.533-0.2,2.6-1.2c0.653-0.611,1.103-1.17,1.35-1.675c0.561-0.358,1.069-0.634,1.525-0.825
	c0.012,0.018,0.021,0.034,0.025,0.051c0.09,0.011,0.182,0.02,0.275,0.024c-0.508,0.797-1.383,1.83-2.625,3.101
	c0.003-0.024,0.003-0.05,0-0.075l-1,0.3c-0.566,0.1-0.783,0.483-0.65,1.15c0.073,0.016,0.148,0.032,0.225,0.05
	c-0.029,0.013-0.054,0.029-0.075,0.05c-0.44,0.426-0.848,0.834-1.225,1.225L19.3,62.7c-0.867-0.066-1.533,0.3-2,1.1
	c-0.433,0.677-0.408,1.218,0.075,1.625c-0.241,0.373-0.433,0.715-0.575,1.025c0.394-0.141,0.811-0.307,1.25-0.5
	c0.091,0.295,0.341,0.545,0.75,0.75c1.133,0.566,1.95,0.3,2.45-0.8c0.344-0.757,0.327-1.29-0.05-1.601
	c0.919-0.553,1.903-1.186,2.95-1.899c3.167-2.267,5.467-3.851,6.9-4.75c0.034,1.899-0.566,4.233-1.8,7
	c-0.6,1.366-1.767,3.566-3.5,6.6c1.5-2.333,2.683-4.167,3.55-5.5c0.549-0.834,1.074-1.56,1.575-2.175
	c0.219,0.338,0.478,0.479,0.775,0.425c0.004,0.186,0.071,0.369,0.2,0.55c0.367,0.566,0.833,0.617,1.4,0.15
	c0.5-0.367,0.8-0.816,0.9-1.351l-0.45-0.774l1.55-0.175c0.179,1.611,0.129,4.37-0.15,8.274c-0.082-0.053-0.165-0.103-0.25-0.149
	c-0.036-0.179-0.169-0.37-0.4-0.575c-0.417-0.368-0.851-0.576-1.3-0.625c0.563-0.452,0.664-1.211,0.3-2.275
	c-0.269-0.78-0.644-1.222-1.125-1.325c-0.367-0.828-0.892-1.153-1.575-0.975H30.7c-0.167,0.066-0.35,0.15-0.55,0.25l0.35-0.15
	c-0.636,0.398-0.986,0.965-1.05,1.7c-0.021,0.188-0.021,0.389,0,0.601c-0.105,0.012-0.205,0.028-0.3,0.05
	c-0.947,0.211-1.447,0.887-1.5,2.024v0.226c-0.025,1.087,0.383,1.837,1.225,2.25c0.23,0.506,0.639,0.873,1.225,1.1
	c1.033,0.434,1.85,0.233,2.45-0.6c0.23-0.32,0.373-0.646,0.425-0.976c0.168,0.171,0.352,0.271,0.55,0.301
	c0.019,0.06,0.044,0.118,0.075,0.175c0.433,0.833,1,1.05,1.7,0.649c0.612-0.35,0.729-0.749,0.35-1.199
	c0.325-0.565,0.675-1.282,1.05-2.15c0.6-1.434,1.15-2.434,1.65-3c0.667,1.134,0.95,2.417,0.85,3.85c0.3,0.034,0.7,0.167,1.2,0.4
	s0.883,0.35,1.15,0.35c0,0.167,0.017,0.483,0.05,0.95c0.033,0.434,0.033,0.75,0,0.95c0.446-0.242,0.913-0.476,1.4-0.7
	c0.031,0.515,0.356,0.823,0.975,0.925c0.012,0.722,0.562,1.071,1.65,1.051c0.273,0.244,0.715,0.169,1.325-0.226
	C47.622,73.34,47.997,73.007,48.075,72.55z M75.525,27.45c0.008,0.241,0.066,0.524,0.175,0.85c0.733,0.233,1.267,0.184,1.6-0.15
	c0.367-0.333,0.367-0.816,0-1.45l-0.649-0.35c-0.031,0.003-0.064,0.003-0.101,0c-0.026-0.191-0.109-0.408-0.25-0.65l-0.649-0.35
	c-1.034,0.1-1.351,0.75-0.95,1.95C75.014,27.4,75.289,27.45,75.525,27.45z M22.95,16.7c-1.2,0.066-1.934,0.7-2.2,1.9
	c0.533,0.033,1.083-0.15,1.65-0.55c0.5-0.367,0.917-0.816,1.25-1.35H22.95z M27.125,19.8c0.016-0.322-0.143-0.689-0.475-1.1
	l-1.7,0.3c-0.5,0.267-0.85,0.517-1.05,0.75l-0.05,0.075c-0.457,0.559-0.256,0.9,0.6,1.025c0.1,0.022,0.217,0.04,0.35,0.05
	c-0.113,0.174-0.129,0.341-0.05,0.5c0.133,0.333,0.583,0.5,1.35,0.5c0.767,0.033,1.333-0.133,1.7-0.5c0.467-0.433,0.417-1-0.15-1.7
	L27.125,19.8z M22.65,30.125c0.022-0.315,0.022-0.574,0-0.775L20.7,28.9v0.025L19.65,28.7c-0.9,0.1-1.667,0.383-2.3,0.85
	c-0.661,0.46-0.994,1.035-1,1.725V31.6c0.373,0.032,0.74,0.049,1.1,0.05c-0.107,0.293-0.141,0.61-0.1,0.95
	c1.167,0.1,2.25,0.066,3.25-0.1c0.8-0.133,1.8-0.417,3-0.85c0.066-0.566,0.083-1,0.05-1.3L22.65,30.125z M33.5,62.5
	c-0.136,0.013-0.269,0.037-0.4,0.075c0.018-0.069,0.035-0.145,0.05-0.226l-0.425-0.699c0.235-0.187,0.46-0.337,0.675-0.45
	C33.526,61.485,33.56,61.918,33.5,62.5z M26.175,64.325c0.004-0.093-0.004-0.185-0.025-0.275c-0.1-0.6-0.6-0.833-1.5-0.7v-0.5
	c-0.9,0.5-1.3,1.2-1.2,2.101c0.073,0.631,0.397,0.897,0.975,0.8c0.01,0.067,0.018,0.135,0.025,0.2c0.1,0.866,0.683,1.05,1.75,0.55
	c0.767-0.366,1.083-0.85,0.95-1.45C27.072,64.58,26.747,64.339,26.175,64.325z M17.925,69.65c-0.102,0.219-0.144,0.452-0.125,0.699
	c0.9,0.367,1.6,0.417,2.1,0.15c0.6-0.267,0.85-0.866,0.75-1.8H19.6c0.075-0.274,0.092-0.607,0.05-1H18.3c-0.4,0-0.75,0.166-1.05,0.5
	c-0.333,0.333-0.483,0.717-0.45,1.149C17.217,69.521,17.592,69.62,17.925,69.65z M40.85,75.325v0.024
	c0.066,0.267,0.3,0.534,0.7,0.801c1.2,0.733,1.617,0.366,1.25-1.101c-0.339-0.057-0.631-0.073-0.875-0.05
	c0.015-0.242-0.027-0.56-0.125-0.95c-0.4-0.066-0.733-0.083-1-0.05h-0.15c-0.6-0.066-0.867,0.05-0.8,0.35
	c0.066,0.267,0.3,0.534,0.7,0.801C40.654,75.214,40.754,75.271,40.85,75.325z"/>
<path style="fill-rule:evenodd;clip-rule:evenodd;fill:#6F3527;" d="M91,30.175c0.114,0.2,0.164,0.408,0.15,0.625L91.1,30.825
	C91.119,30.583,91.086,30.366,91,30.175z M90.425,29.525c-1.048-0.612-1.973-1.287-2.774-2.025l0.1,0.075
	c0.104,0.095,0.236,0.204,0.4,0.325c0.464,0.361,1.163,0.861,2.1,1.5C90.312,29.442,90.37,29.484,90.425,29.525z M22.1,56.425
	c0.027-0.1,0.044-0.2,0.05-0.3V55.85c-0.066-0.042-0.133-0.084-0.2-0.125c0.377-0.355,0.736-0.706,1.075-1.05L25.7,51.5
	c0.751-1.42,1.46-2.711,2.125-3.875c0.157,0.059,0.315,0.118,0.475,0.175c-0.29,1.12-0.49,2.47-0.6,4.05
	c-0.174,2.401-0.674,4.359-1.5,5.875c-0.072-0.077-0.155-0.152-0.25-0.225v-0.3c-0.733-0.167-1.35,0.149-1.85,0.95
	c-0.533,0.8-0.367,1.316,0.5,1.55c0.075,0.018,0.15,0.034,0.225,0.05c-0.114,0.464,0.144,0.78,0.775,0.95
	c0.7,0.166,1.233-0.05,1.6-0.65c0.4-0.6,0.316-1.116-0.25-1.55v-0.3c-0.181-0.041-0.356-0.05-0.525-0.025
	c-0.015-0.074-0.041-0.149-0.075-0.225c1.407-1.148,2.407-1.915,3-2.3c1.633-1.101,2.917-1.567,3.85-1.4
	c0.133,1.667-0.05,3.583-0.55,5.75c0.133-0.1,0.833-0.8,2.1-2.1c0.833-0.834,1.633-1.467,2.4-1.9c0.033,1.5-0.05,3.75-0.25,6.75
	c0.533-1.233,1.017-2.116,1.45-2.65c0.633-0.866,1.4-1.383,2.3-1.55c0.667,1.233,1.3,2.934,1.9,5.101
	c0.633,2.399,0.833,4.149,0.6,5.25c0.867-0.934,1.35-2.467,1.45-4.601c-0.067-2.366-0.05-4.05,0.05-5.05
	c0.8-0.233,1.583-0.2,2.35,0.1c-0.033,1.167,0.083,2.801,0.35,4.9c0.267,2.5,0.417,4.167,0.45,5c0.834-0.5,1.434-2.017,1.8-4.55
	c0.301-2.267,1.084-3.5,2.351-3.7c-0.267,3.033,0.85,4.884,3.35,5.55c0-0.166,0.15-0.616,0.45-1.35
	c0.185-0.461,0.301-0.845,0.35-1.15c0.115,0.071,0.274,0.121,0.476,0.15c0.023,0.304,0.165,0.57,0.425,0.8
	c0.267,0.2,0.783,0.283,1.55,0.25c0.341-0.031,0.633-0.072,0.875-0.125c0.173,0.099,0.348,0.207,0.525,0.325
	c0.993,0.676,1.852,1.134,2.575,1.375C62.509,66.912,62.5,67.004,62.5,67.1c0,0.634,0.316,1,0.95,1.101h0.05
	c0.021,0.302,0.121,0.535,0.3,0.7c-0.202,0.136-0.402,0.303-0.6,0.5c-0.566,0.533-0.867,1.066-0.9,1.6v0.05
	c-0.004,0.121,0.005,0.238,0.025,0.351c-0.684,0.604-1.226,0.854-1.625,0.75c-0.173-0.05-0.439-0.142-0.8-0.275
	C59.833,70.772,59.8,69.98,59.8,69.5l-0.35-0.15c-0.225-0.025-0.433-0.033-0.625-0.024c-0.016-0.313-0.024-0.572-0.025-0.775V68.5
	l-0.35-0.15c-0.225-0.025-0.434-0.033-0.625-0.024c-1.096,0.08-1.771,0.755-2.025,2.024c-0.208,1.169,0.117,1.861,0.976,2.075
	c0.019,0.054,0.035,0.104,0.05,0.15c-0.532,1.927-1.357,3.085-2.476,3.475c-1.366-2.233-2.616-4.116-3.75-5.649
	c-0.354,0.19-1.195,0.907-2.524,2.149c0.015-0.141,0.007-0.291-0.025-0.45c-0.106-0.557-0.457-0.948-1.05-1.175
	c-0.226-0.755-0.959-1.163-2.2-1.225l0.2-0.2c-0.2,0.167-0.55,0.4-1.05,0.7c-0.195,0.148-0.362,0.299-0.5,0.45
	c-0.256,0.282-0.406,0.565-0.45,0.85v0.05c-0.006,0.043-0.006,0.085,0,0.125c-0.006,0.043-0.006,0.085,0,0.125
	c-0.487,0.225-0.954,0.458-1.4,0.7c0.033-0.2,0.033-0.517,0-0.95c-0.033-0.467-0.05-0.783-0.05-0.95c-0.267,0-0.65-0.116-1.15-0.35
	s-0.9-0.366-1.2-0.4c0.1-1.433-0.184-2.716-0.85-3.85c-0.5,0.566-1.05,1.566-1.65,3c-0.375,0.868-0.725,1.585-1.05,2.15
	c-0.058-0.066-0.125-0.133-0.2-0.2c-0.114-0.101-0.23-0.192-0.35-0.275c0.279-3.904,0.329-6.663,0.15-8.274l-1.55,0.175L33.65,62.5
	c-0.047,0-0.097,0-0.15,0c0.06-0.582,0.026-1.015-0.1-1.3c-0.214,0.113-0.439,0.264-0.675,0.45L32.65,61.5c-0.5,0-1,0.217-1.5,0.65
	c-0.533,0.466-0.633,0.933-0.3,1.399l0.025,0.025c-0.501,0.615-1.026,1.341-1.575,2.175c-0.867,1.333-2.05,3.167-3.55,5.5
	c1.733-3.033,2.9-5.233,3.5-6.6c1.233-2.767,1.833-5.101,1.8-7c-1.433,0.899-3.733,2.483-6.9,4.75
	c-1.047,0.714-2.03,1.347-2.95,1.899c-0.169-0.141-0.402-0.241-0.7-0.3c0.011-0.552-0.339-0.886-1.05-1l-0.025-0.025
	c0.377-0.391,0.785-0.799,1.225-1.225c0.021-0.021,0.046-0.037,0.075-0.05c1.051,0.156,1.526-0.319,1.425-1.425
	c1.242-1.271,2.117-2.304,2.625-3.101c0.423,0.011,0.815-0.081,1.175-0.274c0.5-0.301,0.45-0.65-0.15-1.051L25.15,56
	c-0.583,0.162-0.809,0.528-0.675,1.1c-0.456,0.191-0.964,0.467-1.525,0.825c0.146-0.332,0.213-0.641,0.2-0.925v-0.15
	C22.792,56.619,22.443,56.478,22.1,56.425z M18.925,23.375c-2.66,0.308-4.068,1.383-4.225,3.225c-0.889,0.518-1.706,0.868-2.45,1.05
	c0.5-0.933,1.517-2,3.05-3.2c1.767-1.233,2.967-2.15,3.6-2.75c0.367-0.333,0.85-0.833,1.45-1.5c0.633-0.7,1.1-1.2,1.4-1.5
	c0.433-0.434,1.133-0.95,2.1-1.55c1-0.633,1.7-1.15,2.1-1.55c0.6-0.633,1.3-1.533,2.1-2.7c1.167-1.667,1.833-2.617,2-2.85
	c0.256-0.166,0.506-0.324,0.75-0.475L33,8.75c-0.308,0.398-0.758,0.915-1.35,1.55c-0.1,0.133-0.4,0.55-0.9,1.25
	c-0.367,0.5-0.717,0.867-1.05,1.1c0.667-0.4,1.566-1.017,2.7-1.85c1.2-0.9,2.1-1.533,2.7-1.9c0.733-0.5,1.75-0.983,3.05-1.45
	c1.7-0.6,2.533-0.483,2.5,0.35c1.767-0.767,3.217-0.917,4.35-0.45c0.7,0.267,1.05,0.8,1.05,1.6c0.033,0.233-0.066,0.9-0.3,2
	C46.65,9.817,48,8.933,49.8,8.3c0.634-0.2,1.351-0.25,2.15-0.15c0.967,0.1,1.434,0.483,1.399,1.15c0.7,0.1,1.167,0.184,1.4,0.25
	c0.4,0.1,0.7,0.417,0.9,0.95c0.133,0.4,0.199,0.95,0.199,1.65c0,0.367-0.017,0.917-0.05,1.65c1.101-1.733,1.917-2.716,2.45-2.95
	c0.467,0.867,0.717,2.133,0.75,3.8c0.033,0.267,0.017,1.583-0.05,3.95c0.1-0.233,0.217-1.2,0.35-2.9
	c0.134-1.367,0.434-2.25,0.9-2.65c0.833-0.733,1.45-0.617,1.85,0.35c0.2,0.5,0.384,1.25,0.55,2.25l0.25-0.25
	c0.4,1.333,0.551,2.633,0.45,3.9c0.233-0.533,0.367-1.3,0.4-2.3c-0.033-1.167-0.05-2-0.05-2.5c0.666-0.167,1.267,0.417,1.8,1.75
	c0.452,1.033,0.686,1.958,0.7,2.775V15.65c0.666,0.5,1.25,1.167,1.75,2c0.3,0.467,0.716,1.283,1.25,2.45v-2.25
	c0.933,0.1,2.083,0.7,3.449,1.8c0.733,0.533,1.351,0.817,1.851,0.85c0.166-0.333,0.333-0.5,0.5-0.5c0.366-0.033,0.816,0.1,1.35,0.4
	c1.934,0.767,3.983,1.883,6.15,3.35c0.1,0.067,0.5,0.267,1.2,0.6c0.566,0.267,0.899,0.483,1,0.65
	c0.166,0.233,0.233,0.717,0.199,1.45c-0.033,0.667,0.067,1.117,0.301,1.35C85.283,27.933,85.5,28,85.8,28
	c0.334,0,0.566,0.05,0.7,0.15s0.417,0.533,0.85,1.3c0.101,0.133,0.25,0.283,0.45,0.45c0.093,0.07,0.176,0.187,0.25,0.35
	c-0.332-0.126-0.674-0.218-1.024-0.275c-0.163-0.12-0.38-0.236-0.65-0.35c-0.212-0.35-0.529-0.65-0.95-0.9
	c-0.129-0.246-0.304-0.471-0.524-0.675c-0.149-0.124-0.316-0.241-0.5-0.35c-0.022-0.111-0.039-0.228-0.051-0.35
	c-0.066-0.8-0.199-1.35-0.399-1.65c-0.467-0.7-1.467-1.35-3-1.95c-1.367-0.5-2.533-0.767-3.5-0.8c0.033,0.066,0.133,0.433,0.3,1.1
	c0.134,0.434,0.2,0.784,0.2,1.05c-2.634-2.067-4.783-3.633-6.45-4.7c-0.2,1.733,0.8,4.033,3,6.9c0.902,1.155,1.619,2.213,2.15,3.175
	c-0.135,0.16-0.219,0.352-0.25,0.575c-0.099,0.654,0.285,1.162,1.149,1.525V32.6c-0.316-0.029-0.592-0.029-0.825,0
	c-1.537-2.387-2.745-4.254-3.625-5.6C71.2,24.133,69.4,21.95,67.7,20.45c-0.031,1.226,0.236,3.042,0.8,5.45
	c-0.032,0.24,0.019,0.506,0.15,0.8c0.022,0.045,0.048,0.087,0.074,0.125c0.613,2.469,0.872,4.394,0.775,5.775
	c-0.2-0.667-0.55-1.517-1.05-2.55c-0.667-1.333-1.066-2.183-1.2-2.55c-0.733-1.667-1.634-4.35-2.7-8.05
	c-0.39,2.09-0.59,4.74-0.6,7.95H63.7c-0.167,0.7-0.101,1.35,0.2,1.95c0.017,0.035,0.033,0.069,0.05,0.1
	c0.036,1.878,0.062,3.511,0.075,4.9c-0.091,0.1-0.166,0.217-0.226,0.35c-0.029,0.074-0.055,0.149-0.075,0.225
	c-0.13,0.464-0.138,1.023-0.024,1.675c0.104,0.057,0.204,0.107,0.3,0.15c-0.015,1.139-0.048,2.006-0.1,2.6
	c-0.467-1.667-0.967-4.567-1.5-8.7c-0.467-3.867-1.051-6.783-1.75-8.75c-0.267,0.633-0.45,1.583-0.551,2.85
	c-0.166,1.533-0.3,2.533-0.399,3c0.033-1.733,0.017-2.967-0.05-3.7c-0.134-1.4-0.45-2.6-0.95-3.6c-0.367,0.733-0.584,1.767-0.65,3.1
	c-0.066,0.767-0.116,1.867-0.149,3.3c-0.052,0.984-0.169,2.184-0.351,3.6c-0.734,0.767-1.118,1.5-1.149,2.2c0,0.06,0,0.118,0,0.175
	c-0.05,0.66,0.159,1.027,0.625,1.1c-0.055,0.351-0.113,0.709-0.176,1.075c-0.139,0.811-0.264,1.578-0.375,2.3H56.45
	c-0.159-0.006-0.326,0.011-0.5,0.05v0.35c-0.066,0.267-0.117,0.7-0.15,1.3c0,0.517-0.033,0.909-0.1,1.175c0-1.153,0-2.095,0-2.825
	c0-2.3,0.066-4.233,0.2-5.8c0.366-4.5,0.716-7.633,1.05-9.4c0.233-0.9,0.399-1.583,0.5-2.05c0.166-0.8,0.217-1.5,0.149-2.1
	c-0.767,0.467-1.55,1.15-2.35,2.05c-0.393,0.449-0.926,1.091-1.6,1.925c0.005-0.204,0.005-0.412,0-0.625l-0.176-0.175
	c0.055-0.262,0.097-0.487,0.125-0.675c0.101-0.767,0.134-1.45,0.101-2.05c-1.667-0.4-3.101,0.433-4.3,2.5
	c-0.834,1.5-1.384,3.216-1.65,5.15c-0.497,3.158-1.655,6.617-3.475,10.375c-0.257,0.255-0.449,0.613-0.575,1.075v0.05
	c-0.482,0.913-0.999,1.846-1.55,2.8c1.434-4.933,2.483-9.1,3.15-12.5c0.934-4.833,1.316-9.05,1.15-12.65
	c-0.9-0.1-2.017,0.55-3.35,1.95c-0.5,0.533-1.383,1.65-2.65,3.35c-0.367,0.534-1.184,1.55-2.45,3.05c-1.033,1.233-1.8,2.267-2.3,3.1
	c-0.93,1.506-1.813,2.839-2.65,4c-0.598,0-1.015,0.25-1.25,0.75c-0.176,0.333-0.193,0.642-0.05,0.925
	c-0.201,0.255-0.401,0.497-0.6,0.725c-1.692,1.904-3.368,3.188-5.025,3.85l-0.275-0.675c1.645-1.789,3.153-3.539,4.525-5.25
	c0.279-0.364,0.554-0.722,0.825-1.075c1.097-1.406,2.097-2.79,3-4.15c1.7-2.333,2.966-4.183,3.8-5.55
	c1.467-2.533,2.033-4.633,1.7-6.3c-1.833,0.033-4.317,1.533-7.45,4.5c-0.933,0.9-2.317,2.3-4.15,4.2c-1.833,1.9-3.217,3.3-4.15,4.2
	c0.6-0.767,1.917-2.3,3.95-4.6c1.667-1.9,2.95-3.483,3.85-4.75c1.033-1.133,1.833-2,2.4-2.6c1-1.167,1.517-2.15,1.55-2.95
	c-1.733-0.1-2.934-0.067-3.6,0.1c-0.934,0.233-1.9,0.883-2.9,1.95c-0.867,0.967-2.767,2.717-5.7,5.25
	C22.598,20.032,21.073,21.407,18.925,23.375z M78.725,58.2c0.04-0.037,0.073-0.079,0.101-0.125l0.149,0.3
	C78.886,58.318,78.803,58.26,78.725,58.2z M78.6,58.325c0.153,0.053,0.295,0.103,0.426,0.149l0.024,0.075
	c0.009-0.019,0.018-0.035,0.025-0.05c0.152,0.059,0.294,0.108,0.425,0.15c-0.147-0.071-0.281-0.138-0.4-0.2
	c0.099-0.215,0.182-0.432,0.25-0.65c0.069,0.085,0.136,0.169,0.2,0.25c0.204-0.701,0.245-1.426,0.125-2.175
	c0.001-0.036,0.001-0.069,0-0.1c0.878-0.374,0.736-0.991-0.425-1.851c-0.041-0.096-0.083-0.187-0.125-0.274
	c0.551,0.184,0.926,0.367,1.125,0.55c0.056,0.048,0.105,0.098,0.15,0.149l0.475,1.301c0.018,0.324-0.007,0.691-0.075,1.1l-0.2,0.9
	c-0.093,0.35-0.226,0.716-0.399,1.1c-0.634,0.1-1.601,0.217-2.9,0.35c-0.061,0.333-0.094,0.666-0.1,1l-0.25-0.25
	c-0.367-0.1-0.667,0.017-0.9,0.351c-0.233,0.3-0.267,0.633-0.1,1c0.2,0.434,0.583,0.616,1.149,0.55
	c0.118-0.013,0.227-0.038,0.325-0.075c0.07,0.292,0.162,0.584,0.275,0.875L77.6,62.7l-0.1,0.149h-0.025
	c-1.414-0.481-2.756-0.606-4.024-0.375l-0.101-0.199c-0.084-0.188-0.192-0.337-0.324-0.45c1.539,0.12,2.98,0.328,4.324,0.625
	c-1.399-0.934-2.366-1.667-2.899-2.2c-0.1-0.104-0.191-0.212-0.275-0.325c0.29-0.729,0.698-1.313,1.226-1.75
	c0.421,0.494,1.171,0.669,2.25,0.525C78.073,58.634,78.391,58.509,78.6,58.325z M71.75,66.275c-0.01,0.161-0.01,0.303,0,0.425
	c-0.609,0.022-1.167,0.047-1.675,0.075c-0.048-0.214-0.189-0.405-0.425-0.575L68.8,65.7c-0.533,0.2-0.916,0.533-1.149,1
	c-0.036,0.077-0.062,0.151-0.075,0.225C67.324,66.95,67.149,66.976,67.05,67c-0.363,0.121-0.763,0.354-1.2,0.7
	c-0.085-0.132-0.218-0.248-0.399-0.351h-0.525c0.116-0.368,0.008-0.677-0.325-0.925c0.089-0.092,0.188-0.2,0.301-0.325
	c0.566-0.633,1.05-0.983,1.449-1.05c0.092-0.017,0.192-0.024,0.301-0.024c0.041,0.039,0.092,0.081,0.149,0.125
	c0.453,0.354,0.712,0.362,0.775,0.024c0.368,0.116,0.776,0.291,1.225,0.525c0.254,0.131,0.521,0.281,0.8,0.45
	c0.12-0.358,0.153-0.767,0.101-1.226c0.028,0.024,0.062,0.05,0.1,0.075c0.116,0.072,0.291,0.139,0.525,0.2
	c0.058,0.36,0.216,0.627,0.475,0.8C70.979,66.112,71.296,66.203,71.75,66.275z M61.45,23.3c0.2,1.633,0.6,3.017,1.2,4.15
	c0.1-2,0.133-3.534,0.1-4.6c0-1.867-0.316-3.317-0.95-4.35L61.3,19C61.3,20.933,61.35,22.367,61.45,23.3z M76.3,22.35l-1.3-0.5
	c0.3,0.633,0.684,1.133,1.15,1.5c0.3,0.233,0.85,0.6,1.649,1.1C77.767,23.783,77.267,23.083,76.3,22.35z M41.15,16.65
	c-0.633,0.9-1.066,1.8-1.3,2.7c0.7-0.333,1.4-0.9,2.1-1.7c0.733-0.833,1.183-1.6,1.35-2.3l-0.15-1
	C42.217,15.35,41.55,16.117,41.15,16.65z M48.8,17.35c-0.866,0.433-1.45,1.733-1.75,3.9c-0.166,1.167-0.283,2.733-0.35,4.7
	c-0.066,0.633-0.134,1.566-0.2,2.8c-0.033,0.2-0.05,0.4-0.05,0.6c0.133-0.533,0.3-1.117,0.5-1.75c0.566-1.733,0.95-3.033,1.149-3.9
	c0.2-0.733,0.45-2.034,0.75-3.9c0.267-1.667,0.534-2.933,0.801-3.8L48.8,17.35z M37,13.95c1.6-1.7,2.983-3.017,4.15-3.95l-4.5,2.7
	c-0.4,0.5-0.983,1.316-1.75,2.45c-0.767,1.1-1.367,1.917-1.8,2.45c0.433-0.5,1.083-1.117,1.95-1.85
	C35.983,14.983,36.633,14.383,37,13.95z M24.15,55c-0.6,0.167-0.816,0.55-0.65,1.15c0.533,0.066,1.017-0.017,1.45-0.25
	c0.5-0.301,0.45-0.65-0.15-1.051L24.15,55z M22.15,61.5c-0.566,0.1-0.783,0.483-0.65,1.15c1.233,0.267,1.783-0.217,1.65-1.45
	L22.15,61.5z M17.375,65.425c0.12,0.102,0.262,0.193,0.425,0.275l0.05,0.024c0.054,0.027,0.104,0.052,0.15,0.075
	c0.016,0.051,0.033,0.101,0.05,0.15c-0.439,0.193-0.856,0.359-1.25,0.5C16.942,66.14,17.134,65.798,17.375,65.425z M69.95,61.725
	c-0.088,0.11-0.171,0.235-0.25,0.375c-0.233,0.434-0.367,0.9-0.4,1.4v0.05c-0.354-0.819-0.604-1.42-0.75-1.8
	C69.024,61.735,69.491,61.728,69.95,61.725z M45.625,73.775c0.22-0.015,0.462-0.039,0.725-0.075c0.217-0.039,0.417-0.089,0.601-0.15
	C46.34,73.944,45.898,74.02,45.625,73.775z"/>
<path style="fill-rule:evenodd;clip-rule:evenodd;fill:#612E21;" d="M59.7,61.975c-0.012-0.061-0.028-0.119-0.05-0.175
	c-0.062-0.245-0.178-0.445-0.351-0.6l-0.024,0.024L59.25,61.2c-0.2-0.167-0.533-0.25-1-0.25c-0.267,0-0.634,0.017-1.1,0.05l0.5-0.3
	c-0.667,0.066-1.233,0.5-1.7,1.3c-0.398,0.622-0.49,1.146-0.275,1.575C55.748,63.731,55.856,63.873,56,64
	c0.026,0.021,0.06,0.037,0.1,0.05c-0.049,0.306-0.165,0.689-0.35,1.15c-0.3,0.733-0.45,1.184-0.45,1.35
	c-2.5-0.666-3.616-2.517-3.35-5.55c-1.267,0.2-2.05,1.434-2.351,3.7c-0.366,2.533-0.966,4.05-1.8,4.55
	c-0.033-0.833-0.184-2.5-0.45-5c-0.267-2.1-0.383-3.733-0.35-4.9c-0.767-0.3-1.55-0.333-2.35-0.1c-0.1,1-0.117,2.684-0.05,5.05
	c-0.1,2.134-0.583,3.667-1.45,4.601c0.233-1.101,0.033-2.851-0.6-5.25c-0.6-2.167-1.233-3.867-1.9-5.101
	c-0.9,0.167-1.667,0.684-2.3,1.55c-0.434,0.534-0.917,1.417-1.45,2.65c0.2-3,0.283-5.25,0.25-6.75c-0.767,0.434-1.566,1.066-2.4,1.9
	c-1.267,1.3-1.967,2-2.1,2.1c0.5-2.167,0.684-4.083,0.55-5.75c-0.934-0.167-2.217,0.3-3.85,1.4c-0.593,0.385-1.593,1.151-3,2.3
	c-0.04-0.077-0.09-0.152-0.15-0.226c0.826-1.516,1.326-3.474,1.5-5.875c0.11-1.58,0.31-2.93,0.6-4.05
	c1.366,0.49,2.5,0.882,3.4,1.175c0.438,0.944,1.421,1.77,2.95,2.475c0.934,0.433,2.333,0.916,4.2,1.45
	c0.233,0.066,0.967,0.149,2.2,0.25c1.034,0.1,1.733,0.267,2.1,0.5c0.3,0.199,0.55,0.767,0.75,1.699c0.167,0.801,0.6,1.25,1.3,1.351
	c0.5,0.1,1.25-0.25,2.25-1.05c1.1-0.834,1.883-1.267,2.35-1.301c0.601-0.033,1.15,0.134,1.65,0.5c0.833,0.634,1.3,0.983,1.399,1.051
	c1.934,1.066,3.4,1.816,4.4,2.25c1.733,0.767,3.333,1.149,4.8,1.149c0.167-1.6,1.05-2.217,2.65-1.85
	c1.866,0.733,3.149,1.133,3.85,1.2c-0.1,0,0.384,0.333,1.45,1c0.066,0.033,0.233-0.134,0.5-0.5c0.267-0.367,0.434-0.534,0.5-0.5
	c0.733,0.033,1.267,0.083,1.6,0.149c0.567,0.066,1.084,0.467,1.551,1.2c0.009-0.023,0.017-0.048,0.024-0.075
	c0.084,0.113,0.176,0.222,0.275,0.325c0.533,0.533,1.5,1.267,2.899,2.2c-1.344-0.297-2.785-0.505-4.324-0.625
	c-0.055-0.036-0.113-0.069-0.176-0.101L72.8,61.7l-1-0.3l-0.05,0.05L70.8,61.2c-0.319,0.049-0.603,0.224-0.85,0.524
	c-0.459,0.003-0.926,0.011-1.4,0.025c0.146,0.38,0.396,0.98,0.75,1.8c-0.053,0.636,0.08,1.095,0.4,1.375
	c0.053,0.459,0.02,0.867-0.101,1.226c-0.279-0.169-0.546-0.319-0.8-0.45c-0.448-0.234-0.856-0.409-1.225-0.525
	c0.053-0.225,0.011-0.616-0.125-1.175H67.3c-0.313,0.046-0.556,0.113-0.725,0.2c0.054-0.237,0.012-0.637-0.125-1.2H66.3
	c-1.133,0.167-1.3,0.55-0.5,1.15c0.22,0.172,0.395,0.263,0.525,0.274c-0.063,0.162,0.046,0.361,0.325,0.601
	c-0.108,0-0.209,0.008-0.301,0.024c-0.399,0.066-0.883,0.417-1.449,1.05c-0.112,0.125-0.212,0.233-0.301,0.325
	c-0.05-0.021-0.1-0.047-0.149-0.075h-1c-0.537-0.112-0.846,0.046-0.925,0.476c-0.724-0.241-1.582-0.699-2.575-1.375
	c-0.178-0.118-0.353-0.227-0.525-0.325c0.29-0.076,0.515-0.168,0.675-0.275c0.334-0.3,0.534-0.733,0.601-1.3
	c0.066-0.6-0.084-1.05-0.45-1.35C60.12,62.092,59.937,62.017,59.7,61.975z M79.25,53.925c1.161,0.859,1.303,1.477,0.425,1.851
	C79.648,55.147,79.507,54.531,79.25,53.925z M79.075,58.5c0.009-0.019,0.017-0.035,0.024-0.05c0.119,0.063,0.253,0.129,0.4,0.2
	C79.369,58.608,79.228,58.559,79.075,58.5z M79.025,58.475c-0.131-0.047-0.272-0.097-0.426-0.149
	c0.05-0.042,0.091-0.084,0.125-0.125c0.078,0.06,0.161,0.118,0.25,0.175L79.025,58.475z M60.925,62.325
	c0.052,0.409,0.277,0.7,0.675,0.875c0.534,0.267,0.884,0.1,1.051-0.5c0.133-0.467,0.017-0.783-0.351-0.95
	c-0.186-0.082-0.394-0.124-0.625-0.125c0.1-0.425-0.025-0.716-0.375-0.875c-0.3-0.134-0.666-0.15-1.1-0.05l-0.25,0.5V60.85
	c-0.101,0.667,0.116,1.117,0.649,1.351C60.721,62.261,60.829,62.302,60.925,62.325z M66.3,60.325c0.046-0.149,0.046-0.308,0-0.476
	L65.95,59.2c-0.4-0.066-0.75,0.1-1.05,0.5c-0.267,0.434-0.25,0.8,0.05,1.1c0.278,0.251,0.553,0.292,0.825,0.125
	c-0.131,0.337-0.072,0.628,0.175,0.875c0.333,0.3,0.666,0.3,1,0c0.333-0.267,0.45-0.583,0.35-0.95L66.95,60.2
	C66.717,60.161,66.5,60.203,66.3,60.325z M53.075,59.525C52.938,59.868,52.914,60.227,53,60.6c0.6,0.167,1.083,0.034,1.45-0.399
	c0.366-0.434,0.267-0.767-0.3-1V58.85c-0.189-0.04-0.356-0.04-0.5,0c0.074-0.265-0.092-0.481-0.5-0.649V57.85
	c-0.467-0.1-0.801,0.067-1,0.5c-0.2,0.4-0.25,0.817-0.15,1.25C52.414,59.715,52.772,59.69,53.075,59.525z"/>
<path style="fill-rule:evenodd;clip-rule:evenodd;fill:#52271C;" d="M34.9,49.875c6.844,2.932,15.677,3.923,26.5,2.975
	c0.333-0.033,0.85,0.051,1.55,0.25c0.533,0.167,1.066,0.134,1.6-0.1c0.334-0.134,0.467-0.616,0.4-1.45
	c-0.066-0.8,0.1-1.283,0.5-1.45c1-0.434,2.083-0.25,3.25,0.55c0.666,0.434,1.6,1.1,2.8,2c1.055,0.513,2.28,1.113,3.675,1.8
	c-0.974,0.465-1.349,1.132-1.125,2c0.136,0.601,0.485,0.992,1.05,1.175c0.068,0.214,0.168,0.397,0.301,0.55
	c-0.527,0.438-0.936,1.021-1.226,1.75c-0.008,0.027-0.016,0.052-0.024,0.075c-0.467-0.733-0.983-1.134-1.551-1.2
	c-0.333-0.066-0.866-0.116-1.6-0.149c-0.066-0.034-0.233,0.133-0.5,0.5c-0.267,0.366-0.434,0.533-0.5,0.5
	c-1.066-0.667-1.55-1-1.45-1c-0.7-0.067-1.983-0.467-3.85-1.2c-1.601-0.367-2.483,0.25-2.65,1.85c-1.467,0-3.066-0.383-4.8-1.149
	c-1-0.434-2.467-1.184-4.4-2.25c-0.1-0.067-0.566-0.417-1.399-1.051c-0.5-0.366-1.05-0.533-1.65-0.5
	c-0.467,0.034-1.25,0.467-2.35,1.301c-1,0.8-1.75,1.149-2.25,1.05c-0.7-0.101-1.133-0.55-1.3-1.351c-0.2-0.933-0.45-1.5-0.75-1.699
	c-0.367-0.233-1.066-0.4-2.1-0.5c-1.233-0.101-1.966-0.184-2.2-0.25c-1.867-0.534-3.267-1.017-4.2-1.45
	c-1.528-0.706-2.512-1.531-2.95-2.475l1.05,0.35c0.216,0.06,0.407,0.109,0.575,0.15L33.4,49.5
	C33.895,49.635,34.395,49.76,34.9,49.875z M79.25,53.925c0.257,0.606,0.398,1.223,0.425,1.851c0.001,0.03,0.001,0.063,0,0.1
	c-0.229-1.477-1.071-3.051-2.524-4.725c-0.123-0.137-0.248-0.271-0.375-0.4c1.093,0.94,1.876,1.906,2.35,2.9
	C79.167,53.738,79.209,53.829,79.25,53.925z M75.95,54.825L76,54.85h-0.05V54.825z M78.825,58.075
	c0.125-0.199,0.166-0.449,0.125-0.75c0.136,0.156,0.27,0.315,0.399,0.475c-0.068,0.219-0.151,0.436-0.25,0.65
	c-0.008,0.015-0.016,0.031-0.024,0.05c-0.008,0.015-0.017,0.031-0.025,0.05l-0.024-0.075l-0.051-0.1L78.825,58.075z M68.725,57.425
	L68.7,57.45c-0.134,0.2-0.15,0.483-0.05,0.85c1.133,0.167,1.8,0.167,2,0c0.433-0.366,0.5-0.7,0.199-1
	c-0.237-0.237-0.537-0.346-0.899-0.325c0.139-0.244,0.105-0.469-0.101-0.675C69.55,56,69.15,55.9,68.65,56l-0.2,0.2
	c-0.367-0.101-0.617-0.017-0.75,0.25c-0.134,0.2-0.15,0.483-0.05,0.85C68.07,57.361,68.429,57.403,68.725,57.425z"/>
<path style="fill-rule:evenodd;clip-rule:evenodd;fill:#401F17;" d="M78.95,57.325c-0.013-0.071-0.029-0.146-0.05-0.226
	c-0.137-0.59-0.486-0.974-1.051-1.149c-0.225-0.755-0.841-1.121-1.85-1.101l-0.05-0.024L75.8,54.2
	c-0.229,0.074-0.438,0.158-0.625,0.25c-1.395-0.687-2.62-1.287-3.675-1.8c-1.2-0.9-2.134-1.567-2.8-2
	c-1.167-0.8-2.25-0.983-3.25-0.55c-0.4,0.167-0.566,0.65-0.5,1.45c0.066,0.834-0.066,1.316-0.4,1.45
	c-0.533,0.233-1.066,0.267-1.6,0.1c-0.7-0.199-1.217-0.283-1.55-0.25c-10.823,0.948-19.656-0.043-26.5-2.975
	c3.598,0.813,7.415,1.088,11.45,0.825c2.334-0.1,4.117-0.184,5.351-0.25c2.2-0.1,3.967-0.3,5.3-0.6c1.866-0.4,3.934-1.483,6.2-3.25
	c1.104-0.863,2.087-1.588,2.95-2.175c1.873,0.467,3.54,1.108,5,1.925c2.161,1.235,4.036,2.702,5.625,4.4
	c0.127,0.129,0.252,0.263,0.375,0.4c1.453,1.674,2.295,3.249,2.524,4.725c0.12,0.749,0.079,1.474-0.125,2.175
	c-0.064-0.081-0.131-0.165-0.2-0.25C79.22,57.641,79.086,57.481,78.95,57.325z"/>
<path style="fill-rule:evenodd;clip-rule:evenodd;fill:#4D251C;" d="M90.425,29.525c0.042,0.026,0.084,0.051,0.125,0.075
	c0.211,0.164,0.361,0.355,0.45,0.575c0.086,0.191,0.119,0.408,0.1,0.65c-0.003,0.138-0.028,0.288-0.074,0.45
	c-0.036,0.104-0.077,0.212-0.125,0.325c-0.231,0.068-0.464,0.126-0.7,0.175c-0.289,0.05-0.581,0.083-0.875,0.1
	c0.278-0.524,0.036-0.983-0.726-1.375c-0.179-0.093-0.362-0.176-0.55-0.25c-0.074-0.164-0.157-0.28-0.25-0.35
	c-0.2-0.167-0.35-0.316-0.45-0.45c-0.433-0.767-0.716-1.2-0.85-1.3S86.134,28,85.8,28c-0.3,0-0.517-0.067-0.649-0.2
	c-0.233-0.233-0.334-0.683-0.301-1.35c0.034-0.733-0.033-1.217-0.199-1.45c-0.101-0.167-0.434-0.383-1-0.65
	c-0.7-0.333-1.101-0.533-1.2-0.6c-2.167-1.467-4.217-2.583-6.15-3.35c-0.533-0.3-0.983-0.433-1.35-0.4c-0.167,0-0.334,0.167-0.5,0.5
	c-0.5-0.033-1.117-0.317-1.851-0.85c-1.366-1.1-2.517-1.7-3.449-1.8v2.25c-0.534-1.167-0.95-1.983-1.25-2.45
	c-0.5-0.833-1.084-1.5-1.75-2v3.375c-0.015-0.816-0.248-1.742-0.7-2.775c-0.533-1.333-1.134-1.917-1.8-1.75
	c0,0.5,0.017,1.333,0.05,2.5c-0.033,1-0.167,1.767-0.4,2.3c0.101-1.267-0.05-2.566-0.45-3.9l-0.25,0.25
	c-0.166-1-0.35-1.75-0.55-2.25c-0.399-0.967-1.017-1.083-1.85-0.35c-0.467,0.4-0.767,1.284-0.9,2.65c-0.133,1.7-0.25,2.667-0.35,2.9
	c0.066-2.367,0.083-3.684,0.05-3.95c-0.033-1.667-0.283-2.933-0.75-3.8c-0.533,0.233-1.35,1.217-2.45,2.95
	c0.033-0.733,0.05-1.283,0.05-1.65c0-0.7-0.066-1.25-0.199-1.65c-0.2-0.533-0.5-0.85-0.9-0.95c-0.233-0.066-0.7-0.15-1.4-0.25
	c0.034-0.667-0.433-1.05-1.399-1.15c-0.8-0.1-1.517-0.05-2.15,0.15c-1.8,0.633-3.149,1.517-4.05,2.65c0.233-1.1,0.333-1.767,0.3-2
	c0-0.8-0.35-1.333-1.05-1.6c-1.133-0.467-2.583-0.317-4.35,0.45c0.033-0.833-0.8-0.95-2.5-0.35c-1.3,0.466-2.316,0.95-3.05,1.45
	c-0.6,0.367-1.5,1-2.7,1.9c-1.133,0.833-2.033,1.45-2.7,1.85c0.333-0.233,0.683-0.6,1.05-1.1c0.5-0.7,0.8-1.117,0.9-1.25
	c0.592-0.635,1.042-1.152,1.35-1.55c0.153-0.218,0.27-0.401,0.35-0.55c1.6-0.7,3.133-1.15,4.6-1.35
	c0.179-0.024,0.362-0.049,0.55-0.075c2.964-0.342,6.147-0.25,9.55,0.275c0.497,0.073,0.997,0.156,1.5,0.25
	c0.086,0.016,0.169,0.033,0.25,0.05l3.95,0.925c0.061,0.017,0.118,0.033,0.175,0.05l5.775,1.9c0.13,0.048,0.264,0.098,0.399,0.15
	L60.15,10.4c6.466,2.467,13.149,6,20.05,10.6c0.025,0.018,0.051,0.034,0.075,0.05c0.021,0.015,0.037,0.031,0.05,0.05
	c0.12,0.076,0.236,0.159,0.35,0.25c0.026,0.015,0.052,0.031,0.075,0.05c0.925,0.669,2.008,1.569,3.25,2.7
	c0.306,0.282,0.655,0.607,1.05,0.975c0.719,0.667,1.586,1.475,2.601,2.425C88.452,28.238,89.377,28.913,90.425,29.525z M12.75,23.4
	c0.401-0.02,0.801-0.12,1.2-0.3c0.133-0.056,0.266-0.123,0.4-0.2l1.7-1.2c0.174-0.097,0.333-0.189,0.475-0.275L17.5,21.7l0.15,0.65
	c-0.566,0.333-1.333,0.85-2.3,1.55c-0.867,0.5-1.75,0.633-2.65,0.4c-0.025-0.252-0.025-0.486,0-0.7
	C12.71,23.534,12.727,23.467,12.75,23.4z M85.425,28.725c0.421,0.25,0.738,0.55,0.95,0.9c0.059,0.097,0.108,0.197,0.15,0.3
	c-0.271-0.01-0.545-0.002-0.825,0.025C85.714,29.491,85.622,29.083,85.425,28.725z M77.05,35.325
	c-0.058-0.074-0.107-0.149-0.149-0.225c0.969,0.672,1.819,0.464,2.55-0.625L79.6,34.25c0.03-0.065,0.063-0.132,0.101-0.2
	c0.472,0.25,1.672,0.317,3.6,0.2l-0.6,0.3c-0.3,0.2-0.45,0.434-0.45,0.7c-0.7,0-1.217-0.067-1.55-0.2
	c-0.934,1.733-2.084,1.9-3.45,0.5C77.179,35.474,77.112,35.399,77.05,35.325z M76.25,38.325c0.145-0.38,0.153-0.822,0.025-1.325
	c0.397-0.004,0.64,0.079,0.725,0.25c0.039,0.078,0.08,0.194,0.125,0.35c0.042,0.114,0.083,0.247,0.125,0.4
	C76.896,38.115,76.563,38.224,76.25,38.325z M35.25,47.1c-0.273-0.017-0.623-0.033-1.05-0.05h-0.025
	c-0.07-0.015-0.145-0.031-0.225-0.05c-0.866-0.21-1.391-0.61-1.575-1.2c0.171,0.082,0.363,0.149,0.575,0.2
	c1.3,0.3,2.167,0.05,2.6-0.75c0.4-0.767,0.317-1.733-0.25-2.9v-0.125c0.287-0.15,0.62-0.225,1-0.225v1.35
	c0.567,1.167,0.65,2.133,0.25,2.9C36.282,46.745,35.849,47.028,35.25,47.1z M76.3,22.35c0.967,0.733,1.467,1.433,1.5,2.1
	c-0.8-0.5-1.35-0.867-1.649-1.1c-0.467-0.367-0.851-0.867-1.15-1.5L76.3,22.35z M61.45,23.3c-0.101-0.933-0.15-2.367-0.15-4.3
	l0.5-0.5c0.634,1.033,0.95,2.483,0.95,4.35c0.033,1.066,0,2.6-0.1,4.6C62.05,26.317,61.65,24.933,61.45,23.3z M77.55,32.575
	c0.016,0.009,0.032,0.018,0.05,0.025h-0.05V32.575z M48.8,17.35L49.65,16c-0.267,0.867-0.534,2.133-0.801,3.8
	c-0.3,1.867-0.55,3.167-0.75,3.9c-0.199,0.867-0.583,2.167-1.149,3.9c-0.2,0.633-0.367,1.217-0.5,1.75c0-0.2,0.017-0.4,0.05-0.6
	c0.066-1.233,0.134-2.167,0.2-2.8c0.066-1.967,0.184-3.534,0.35-4.7C47.35,19.083,47.934,17.783,48.8,17.35z M41.15,16.65
	c0.4-0.533,1.067-1.3,2-2.3l0.15,1c-0.167,0.7-0.617,1.467-1.35,2.3c-0.7,0.8-1.4,1.367-2.1,1.7
	C40.083,18.45,40.517,17.55,41.15,16.65z M53.625,22.35c0.205-0.124,0.431-0.241,0.675-0.35l0.351,0.35
	c0.033,1.467-0.217,2.467-0.75,3c-0.467,0.467-0.95,0.517-1.45,0.15c-0.29-0.212-0.456-0.471-0.5-0.775h0.225
	c0.063,0,0.121-0.008,0.175-0.025C53.115,24.509,53.54,23.726,53.625,22.35z M57.425,33.925c0.155,0.013,0.306-0.029,0.45-0.125
	c0.651-0.286,0.935-1.094,0.85-2.425L59.65,31.7c0.133,1.233,0.017,2.133-0.351,2.7c-0.366,0.5-0.767,0.65-1.2,0.45
	C57.708,34.71,57.482,34.401,57.425,33.925z M44.625,39.275c0.111,0.034,0.236,0.059,0.375,0.075c1,0.1,1.616-0.267,1.85-1.1
	c0.084-0.292,0.126-0.734,0.125-1.325L47.95,36.7c0.066,1.233,0.033,2.083-0.101,2.55c-0.233,0.833-0.85,1.2-1.85,1.1
	C45.134,40.251,44.676,39.893,44.625,39.275z M39.25,39.475c-0.031,0.053-0.064,0.111-0.1,0.175c-0.467,0.8-1.083,1.033-1.85,0.7
	c-0.444-0.2-0.694-0.5-0.75-0.9c0.651,0.18,1.184-0.087,1.6-0.8c0.19-0.339,0.273-0.631,0.25-0.875L38.65,38
	c0.284,0.095,0.492,0.228,0.625,0.4C39.467,38.663,39.458,39.021,39.25,39.475z M26.125,36.95l0.175,0.4
	c-0.053,0.956-0.528,1.765-1.425,2.425c-0.232,0.168-0.491,0.326-0.775,0.475c-1.5,0.767-2.633,0.583-3.4-0.55
	c-0.042-0.063-0.084-0.121-0.125-0.175c-0.208-0.11-0.4-0.26-0.575-0.45c0.174,0.179,0.366,0.321,0.575,0.425v0.025
	c0.182,0.088,0.374,0.146,0.575,0.175l0.4,0.025c0.172-0.007,0.356-0.032,0.55-0.075c0.142-0.041,0.292-0.091,0.45-0.15
	c0.178-0.07,0.362-0.154,0.55-0.25c1.4-0.733,2.133-1.7,2.2-2.9l-0.125-0.3l-0.375-0.9c0.158-0.052,0.325-0.102,0.5-0.15l0.55,1.275
	L26.125,36.95z M32.675,33.15c0.577,0.262,1.085,0.145,1.525-0.35c0.296-0.333,0.404-0.667,0.325-1L34.95,32
	c0.7,0.6,0.783,1.2,0.25,1.8c-0.534,0.6-1.167,0.65-1.9,0.15C32.946,33.708,32.738,33.441,32.675,33.15z M30.525,27.375
	c0.954,0.178,1.229,0.919,0.825,2.225c-0.043,0.125-0.093,0.242-0.15,0.35c-0.271,0.353-0.546,0.711-0.825,1.075
	c-0.48,0.322-1.088,0.43-1.825,0.325c-1.037-0.152-1.645-0.552-1.825-1.2c0.12,0.044,0.245,0.077,0.375,0.1l0.45,0.1
	c0.286,0.041,0.553,0.049,0.8,0.025c0.705-0.07,1.254-0.403,1.65-1c0.037-0.062,0.07-0.128,0.1-0.2
	c0.268-0.44,0.401-0.865,0.4-1.275C30.533,27.708,30.541,27.532,30.525,27.375z M18.75,35.2c1.267-0.342,2.35-0.526,3.25-0.55
	c0.006,0.039,0.014,0.081,0.025,0.125c0.046,0.513-0.054,1.063-0.3,1.65c-0.121,0.075-0.238,0.15-0.35,0.225
	c-0.201-0.135-0.409-0.301-0.625-0.5c-0.167-0.233-0.25-0.417-0.25-0.55c-1.057,0.731-1.432,1.548-1.125,2.45
	c-0.226-0.615-0.126-1.189,0.3-1.725c-0.422,0.481-1.297,0.572-2.625,0.275c-0.133-0.267-0.167-0.517-0.1-0.75
	c0.011-0.022,0.027-0.056,0.05-0.1c0.804,0.068,1.362-0.082,1.675-0.45C18.701,35.269,18.726,35.236,18.75,35.2z M44.15,43.95
	c-0.291,0.136-0.674,0.136-1.15,0c0.009-0.284,0.059-0.542,0.15-0.775c0.048-0.125,0.106-0.241,0.175-0.35
	c0.065-0.049,0.124-0.107,0.175-0.175c0.027-0.037,0.052-0.078,0.075-0.125c0.267-0.237,0.625-0.413,1.075-0.525
	c0.2,0.7,0.15,1.25-0.15,1.65C44.404,43.778,44.288,43.878,44.15,43.95z M58.025,38.375c0.814,0.32,1.307,1.345,1.475,3.075
	c0.022,0.305,0.03,0.63,0.025,0.975c0.016,1.179-0.093,2.57-0.325,4.175c-1.066,0.233-1.983,0.117-2.75-0.35
	c-0.393-0.246-0.685-0.545-0.875-0.9H55.6c0.767,0.4,1.634,0.483,2.601,0.25c0.217-1.493,0.325-2.802,0.325-3.925V41.3
	c0.003-0.298-0.006-0.581-0.025-0.85c-0.017-0.167-0.033-0.325-0.05-0.475l-0.075-0.45C58.292,39.078,58.175,38.695,58.025,38.375z
	 M75.525,27.45c0.325-0.01,0.584-0.109,0.774-0.3c0.227-0.206,0.311-0.473,0.25-0.8c0.036,0.003,0.069,0.003,0.101,0L77.3,26.7
	c0.367,0.633,0.367,1.117,0,1.45c-0.333,0.333-0.866,0.383-1.6,0.15C75.592,27.975,75.533,27.691,75.525,27.45z M69.6,27.6
	c0.447,0.172,0.997,0.172,1.65,0c0.291-0.509,0.44-0.959,0.45-1.35c-0.003-0.045-0.003-0.087,0-0.125
	c-0.018-0.081-0.034-0.156-0.05-0.225l0.3,0.1c0.866,0.567,0.967,1.433,0.3,2.6c-1.267,0.333-2.134,0.033-2.6-0.9
	C69.636,27.669,69.619,27.636,69.6,27.6z M71.3,39c-0.024-0.206-0.05-0.406-0.075-0.6c0.156,0.014,0.281,0.014,0.375,0l-0.149,0.25
	C71.396,38.75,71.347,38.867,71.3,39z M73.8,33.375c0.347,0.183,0.63,0.425,0.851,0.725c0.199,0.267,0.267,0.717,0.199,1.35
	c-0.009,0.184-0.009,0.351,0,0.5V36c-0.417-0.027-0.685-0.126-0.8-0.3c-0.08-0.096-0.139-0.247-0.175-0.45
	c-0.007-0.191,0.002-0.508,0.025-0.95C73.923,33.927,73.89,33.618,73.8,33.375z M65,30.55c0.064,0.032,0.131,0.065,0.2,0.1
	C65.1,30.283,65.033,29.8,65,29.2c-0.038-0.291-0.079-0.558-0.125-0.8H65.6c0.167,0.434,0.301,1.033,0.4,1.8
	c0.033,0.6,0.1,1.083,0.2,1.45C65.669,31.385,65.27,31.018,65,30.55z M67.075,35.025c1.045,0.119,1.271,0.744,0.675,1.875
	c-0.634,1.233-1.65,1.467-3.05,0.7c-0.038-0.22-0.063-0.429-0.075-0.625c0.934,0.224,1.642-0.134,2.125-1.075
	c0.021-0.04,0.038-0.082,0.05-0.125l0.05-0.05c0.106-0.239,0.182-0.447,0.226-0.625C67.071,35.071,67.071,35.046,67.075,35.025z
	 M22.95,16.7h0.7c-0.333,0.533-0.75,0.983-1.25,1.35c-0.566,0.4-1.117,0.583-1.65,0.55C21.017,17.4,21.75,16.767,22.95,16.7z
	 M27.1,19.975c0.01-0.058,0.019-0.116,0.025-0.175l0.525-0.1c0.567,0.7,0.617,1.267,0.15,1.7c-0.367,0.367-0.933,0.533-1.7,0.5
	c-0.767,0-1.217-0.167-1.35-0.5c-0.08-0.159-0.063-0.326,0.05-0.5c0.093,0,0.193,0,0.3,0c0.186,0.008,0.361,0.008,0.525,0
	C26.506,20.829,26.998,20.521,27.1,19.975z M37,13.95c-0.367,0.433-1.017,1.033-1.95,1.8c-0.867,0.733-1.517,1.35-1.95,1.85
	c0.433-0.533,1.033-1.35,1.8-2.45c0.767-1.133,1.35-1.95,1.75-2.45l4.5-2.7C39.983,10.933,38.6,12.25,37,13.95z M19.95,24.375
	c0.113-0.007,0.23-0.015,0.35-0.025l0.65,1c-0.067,1.133-0.7,1.983-1.9,2.55c-1.066,0.533-2.183,0.667-3.35,0.4
	c-0.022-0.307-0.014-0.599,0.025-0.875c0.799,0.026,1.574-0.149,2.325-0.525C19.238,26.339,19.871,25.498,19.95,24.375z
	 M7.825,28.775C8.148,28.772,8.44,28.714,8.7,28.6c0.59-0.263,0.907-0.788,0.95-1.575c0.479-0.175,1.029-0.284,1.65-0.325L10.65,28
	c-0.033,0.8-0.35,1.333-0.95,1.6c-0.534,0.233-1.2,0.233-2,0C7.7,29.305,7.742,29.03,7.825,28.775z M17.45,31.65
	c0.753,0.014,1.47-0.037,2.15-0.15c0.8-0.133,1.8-0.417,3-0.85c0.022-0.187,0.039-0.362,0.05-0.525l1,0.225
	c0.033,0.3,0.017,0.733-0.05,1.3c-1.2,0.434-2.2,0.717-3,0.85c-1,0.167-2.083,0.2-3.25,0.1C17.309,32.26,17.343,31.943,17.45,31.65z
	 M75.1,57.625c0.405,0.134,0.922,0.159,1.551,0.075c1.066-0.167,1.483-0.7,1.25-1.601c-0.012-0.048-0.028-0.098-0.051-0.149
	c0.564,0.176,0.914,0.56,1.051,1.149c0.021,0.079,0.037,0.154,0.05,0.226c0.041,0.301,0,0.551-0.125,0.75
	c-0.027,0.046-0.061,0.088-0.101,0.125c-0.034,0.041-0.075,0.083-0.125,0.125c-0.209,0.184-0.526,0.309-0.949,0.375
	c-1.079,0.144-1.829-0.031-2.25-0.525C75.268,58.022,75.168,57.839,75.1,57.625z M24.825,59.75c0.589,0.068,1.047-0.165,1.375-0.7
	c0.212-0.318,0.288-0.61,0.225-0.875c0.169-0.024,0.344-0.016,0.525,0.025v0.3c0.566,0.434,0.65,0.95,0.25,1.55
	c-0.367,0.601-0.9,0.816-1.6,0.65C24.969,60.53,24.711,60.214,24.825,59.75z M33.5,62.5c0.053,0,0.103,0,0.15,0l0.05,0.075
	l0.45,0.774c-0.1,0.534-0.4,0.983-0.9,1.351c-0.567,0.467-1.033,0.416-1.4-0.15c-0.129-0.181-0.196-0.364-0.2-0.55
	c0.189-0.026,0.389-0.126,0.6-0.3c0.424-0.312,0.708-0.687,0.85-1.125C33.231,62.537,33.364,62.513,33.5,62.5z M35.65,71.15
	c0.378,0.45,0.262,0.85-0.35,1.199c-0.7,0.4-1.267,0.184-1.7-0.649c-0.031-0.057-0.056-0.115-0.075-0.175
	c0.234,0.045,0.492-0.014,0.775-0.176c0.431-0.246,0.615-0.521,0.55-0.824c0.085,0.047,0.168,0.097,0.25,0.149
	c0.12,0.083,0.236,0.175,0.35,0.275C35.525,71.018,35.592,71.084,35.65,71.15z M41.925,75c0.244-0.023,0.536-0.007,0.875,0.05
	c0.367,1.467-0.05,1.834-1.25,1.101c-0.4-0.267-0.633-0.534-0.7-0.801v-0.024C41.534,75.671,41.893,75.563,41.925,75z
	 M43.975,72.725c0.364,0.06,0.823,0.051,1.375-0.024l0.25-0.05c1.122-0.257,1.605-0.773,1.45-1.551
	c-0.012-0.06-0.028-0.118-0.05-0.175c0.593,0.227,0.943,0.618,1.05,1.175c0.032,0.159,0.04,0.31,0.025,0.45
	c-0.078,0.457-0.453,0.79-1.125,1c-0.184,0.062-0.384,0.111-0.601,0.15c-0.263,0.036-0.505,0.061-0.725,0.075
	C44.537,73.796,43.987,73.446,43.975,72.725z M59.9,71.875c-0.003,0.037-0.003,0.079,0,0.125c-0.067,0.967-0.483,1.467-1.25,1.5
	c-1.011,0.045-1.619-0.264-1.825-0.925c-0.015-0.047-0.031-0.097-0.05-0.15c0.192,0.05,0.409,0.074,0.649,0.075
	c0.072,0.004,0.147,0.004,0.226,0c0.767-0.033,1.183-0.533,1.25-1.5c-0.002-0.027-0.002-0.053,0-0.075
	c-0.014-0.22-0.022-0.429-0.025-0.625c-0.025-0.367-0.042-0.692-0.05-0.975c0.192-0.009,0.4-0.001,0.625,0.024l0.35,0.15
	C59.8,69.98,59.833,70.772,59.9,71.875z M65.625,68.825c-0.059,0.008-0.117,0.017-0.175,0.024L64.8,68.5
	c-0.336,0.042-0.669,0.176-1,0.4c-0.179-0.165-0.278-0.398-0.3-0.7c0.544,0.084,0.978-0.116,1.3-0.601
	c0.049-0.086,0.091-0.169,0.125-0.25h0.525c0.182,0.103,0.314,0.219,0.399,0.351c0.165,0.248,0.148,0.548-0.05,0.899
	C65.743,68.686,65.685,68.761,65.625,68.825z M56.575,64.2c0.222,0.044,0.496,0.061,0.825,0.05c0.047,0.002,0.097,0.002,0.149,0
	c0.733-0.066,1.25-0.2,1.55-0.4c0.334-0.267,0.534-0.683,0.601-1.25c0.002-0.017,0.002-0.033,0-0.05l0.024-0.3
	c-0.005-0.096-0.013-0.188-0.024-0.275c0.236,0.042,0.42,0.117,0.55,0.226c0.366,0.3,0.517,0.75,0.45,1.35
	c-0.066,0.566-0.267,1-0.601,1.3c-0.16,0.107-0.385,0.199-0.675,0.275c-0.242,0.053-0.534,0.094-0.875,0.125
	C57.783,65.283,57.267,65.2,57,65C56.74,64.771,56.599,64.504,56.575,64.2z M24.775,57.175c-0.093-0.005-0.185-0.014-0.275-0.024
	c-0.004-0.017-0.013-0.033-0.025-0.051c-0.134-0.571,0.091-0.938,0.675-1.1l0.65-0.15c0.6,0.4,0.65,0.75,0.15,1.051
	C25.59,57.094,25.198,57.186,24.775,57.175z M19.6,68.7h1.05c0.1,0.934-0.15,1.533-0.75,1.8c-0.5,0.267-1.2,0.217-2.1-0.15
	c-0.019-0.247,0.023-0.48,0.125-0.699c0.382,0.043,0.707-0.007,0.975-0.15C19.248,69.346,19.481,69.079,19.6,68.7z M18,65.8
	c0.961,0.401,1.678,0.168,2.15-0.7c0.21-0.354,0.318-0.67,0.325-0.949C20.49,64.1,20.498,64.05,20.5,64
	c0.298,0.059,0.531,0.159,0.7,0.3c0.377,0.311,0.394,0.844,0.05,1.601c-0.5,1.1-1.317,1.366-2.45,0.8
	c-0.409-0.205-0.659-0.455-0.75-0.75C18.033,65.9,18.016,65.851,18,65.8z M22.95,57.925c-0.247,0.505-0.697,1.063-1.35,1.675
	c-1.067,1-1.934,1.4-2.6,1.2c-0.061-0.365-0.069-0.724-0.025-1.075c0.475-0.179,1.017-0.554,1.625-1.125
	c0.03-0.027,0.063-0.053,0.1-0.074c0.801-0.782,1.268-1.481,1.4-2.101c0.343,0.053,0.692,0.194,1.05,0.425V57
	C23.163,57.284,23.096,57.593,22.95,57.925z M22.15,61.5l1-0.3c0.133,1.233-0.417,1.717-1.65,1.45
	C21.367,61.983,21.583,61.6,22.15,61.5z M24.425,65.75c0.227-0.03,0.485-0.114,0.775-0.25c0.65-0.312,0.975-0.703,0.975-1.175
	c0.572,0.014,0.897,0.255,0.975,0.725c0.133,0.601-0.183,1.084-0.95,1.45c-1.067,0.5-1.65,0.316-1.75-0.55
	C24.443,65.885,24.435,65.817,24.425,65.75z M31.55,68.65c1.067-0.367,1.367-1.233,0.9-2.601c-0.04-0.115-0.082-0.224-0.125-0.325
	c0.481,0.104,0.856,0.545,1.125,1.325c0.363,1.064,0.263,1.823-0.3,2.275c-0.166-0.01-0.333-0.002-0.5,0.024l0.5-0.35
	c-0.8,0.333-0.983,0.9-0.55,1.7c0.115,0.222,0.24,0.396,0.375,0.524c-0.053,0.33-0.195,0.655-0.425,0.976
	c-0.6,0.833-1.417,1.033-2.45,0.6c-0.586-0.227-0.995-0.594-1.225-1.1c0.071,0.036,0.146,0.069,0.225,0.1
	c1.033,0.434,1.85,0.233,2.45-0.6C32.15,70.366,32.15,69.517,31.55,68.65z M14.25,63.6c0.151-0.048,0.301-0.114,0.45-0.199
	c0.251-0.157,0.634-0.474,1.15-0.95c0.333-0.083,0.7-0.116,1.1-0.101v1c-0.567,0.534-0.983,0.884-1.25,1.051
	c-0.467,0.267-0.983,0.35-1.55,0.25C14.083,64.25,14.117,63.899,14.25,63.6z M60.925,62.325c0.354,0.047,0.597-0.161,0.726-0.625
	c0.006-0.021,0.014-0.047,0.024-0.075c0.231,0.001,0.439,0.043,0.625,0.125c0.367,0.167,0.483,0.483,0.351,0.95
	c-0.167,0.6-0.517,0.767-1.051,0.5C61.202,63.025,60.977,62.734,60.925,62.325z M66.3,60.325c0.2-0.122,0.417-0.164,0.65-0.125
	l0.35,0.649c0.101,0.367-0.017,0.684-0.35,0.95c-0.334,0.3-0.667,0.3-1,0c-0.247-0.247-0.306-0.538-0.175-0.875
	c0.062-0.033,0.12-0.075,0.175-0.125C66.131,60.655,66.247,60.497,66.3,60.325z M69.95,56.975c0.362-0.021,0.662,0.088,0.899,0.325
	c0.301,0.3,0.233,0.634-0.199,1c-0.2,0.167-0.867,0.167-2,0c-0.101-0.366-0.084-0.649,0.05-0.85l0.024-0.025
	c0.491,0.021,0.8-0.02,0.926-0.125C69.786,57.185,69.887,57.076,69.95,56.975z M71.35,65.35c0.051-0.003,0.101-0.003,0.15,0
	c0.634,0.067,1.066,0.051,1.3-0.05c0.3-0.133,0.533-0.45,0.7-0.95c0.134-0.433,0.15-0.933,0.05-1.5L73.525,62.7
	c-0.011-0.021-0.019-0.047-0.025-0.075l0.3,0.075c0.367,0.166,0.617,0.55,0.75,1.149c0.101,0.567,0.084,1.067-0.05,1.5
	c-0.167,0.5-0.4,0.817-0.7,0.95c-0.233,0.101-0.666,0.117-1.3,0.05c-0.285-0.021-0.535-0.047-0.75-0.074
	c-0.454-0.072-0.771-0.163-0.95-0.275c-0.259-0.173-0.417-0.439-0.475-0.8C70.588,65.256,70.93,65.306,71.35,65.35z M67.575,65.175
	c-0.063,0.338-0.322,0.33-0.775-0.024c-0.058-0.044-0.108-0.086-0.149-0.125c-0.279-0.239-0.388-0.438-0.325-0.601
	c0.033-0.09,0.116-0.165,0.25-0.225c0.169-0.087,0.411-0.154,0.725-0.2h0.15C67.586,64.559,67.628,64.95,67.575,65.175z
	 M70.1,66.875L70.65,67.2c0.6,0.434,0.616,1,0.05,1.7c-0.533,0.666-1.134,0.699-1.8,0.1c-0.205-0.188-0.33-0.396-0.375-0.625
	c0.425,0.131,0.816-0.027,1.175-0.475C70.006,67.521,70.14,67.18,70.1,66.875z M65.45,73.5l-0.2,0.15
	c-1.107-0.108-1.741-0.492-1.9-1.15c0.353,0.107,0.836,0.175,1.45,0.2C64.897,73.141,65.114,73.407,65.45,73.5z M67.925,70.85
	L67.35,70.8c0.015,0.013,0.032,0.029,0.051,0.05c-0.126-0.019-0.259-0.035-0.4-0.05c-0.003-0.069-0.003-0.136,0-0.2
	c-0.022-0.311-0.048-0.569-0.075-0.774c0.434,0.016,0.725,0.174,0.875,0.475C67.853,70.405,67.895,70.589,67.925,70.85z
	 M53.65,58.85c0.144-0.04,0.311-0.04,0.5,0V59.2c0.566,0.233,0.666,0.566,0.3,1C54.083,60.634,53.6,60.767,53,60.6
	c-0.086-0.373-0.062-0.731,0.075-1.074c0.137-0.083,0.262-0.191,0.375-0.325C53.553,59.079,53.619,58.962,53.65,58.85z"/>
<path style="fill-rule:evenodd;clip-rule:evenodd;fill:#C29A74;" d="M17.95,59.325V59.3c-0.038-1.015,0.329-1.965,1.1-2.85
	c0.879-1.067,1.846-1.31,2.9-0.726c0.067,0.041,0.134,0.083,0.2,0.125l-0.2-0.1c-0.6,1-1.45,1.566-2.55,1.7
	c-0.333,0.1-0.633,0.033-0.9-0.2c-0.433,0.9-0.6,1.75-0.5,2.55C17.973,59.637,17.956,59.479,17.95,59.325z M9.1,25.9
	c-0.051,0.015-0.101,0.031-0.15,0.05l-0.1,0.25c-0.5,0.7-1.133,1.15-1.9,1.35c-0.127,0.255-0.203,0.521-0.225,0.8
	c0.002-0.139,0.019-0.272,0.05-0.4c0.143-0.601,0.501-1.101,1.075-1.5C8.206,26.207,8.623,26.023,9.1,25.9z M15.95,20.55
	c-0.733,0.4-1.617,0.65-2.65,0.75l-1.325,0.55c0.186-0.311,0.461-0.561,0.825-0.75c0.233-0.167,1.034-0.417,2.4-0.75L15.95,20.55z
	 M87.025,29.975c0.351,0.057,0.692,0.148,1.024,0.275c0.188,0.074,0.371,0.157,0.55,0.25c0.762,0.392,1.004,0.851,0.726,1.375
	c-0.071,0.133-0.18,0.267-0.325,0.4c0.127-0.122,0.227-0.247,0.3-0.375c-1.2,0.467-2.399,0.65-3.6,0.55
	c-1.101-0.133-1.733-0.717-1.9-1.75c-0.166-1.067,0.3-1.8,1.4-2.2h0.05l-0.35-0.45c0.221,0.204,0.396,0.429,0.524,0.675
	c0.197,0.358,0.289,0.766,0.275,1.225c0.28-0.027,0.555-0.036,0.825-0.025C86.694,29.935,86.86,29.952,87.025,29.975z M84.4,27.7
	c0.184,0.109,0.351,0.226,0.5,0.35l-0.7,0.5c-1.733,1.067-3.566,1.017-5.5-0.15l-0.65-0.6H78c1.6-0.3,2.917-0.233,3.95,0.2l-1-1
	c1.033-0.1,2.017,0.05,2.95,0.45C84.079,27.527,84.246,27.611,84.4,27.7z M68.725,26.825c-0.026-0.038-0.052-0.08-0.074-0.125
	c-0.132-0.294-0.183-0.561-0.15-0.8c0.062-0.545,0.545-0.945,1.45-1.2l1,0.3c0.376,0.246,0.609,0.546,0.7,0.9
	c-0.082-0.26-0.232-0.493-0.45-0.7c-0.066,0.3-0.233,0.466-0.5,0.5c-0.134,0-0.334,0.066-0.601,0.2c0,0.267-0.166,0.4-0.5,0.4
	c-0.133,0-0.3-0.066-0.5-0.2L68.9,25.95L68.85,25.9l-0.25-0.1c-0.166,0.567,0.017,1.05,0.551,1.45c0.566,0.433,1.267,0.55,2.1,0.35
	c-0.653,0.172-1.203,0.172-1.65,0C69.236,27.465,68.944,27.207,68.725,26.825z M75.875,32.95c0.176-0.194,0.459-0.311,0.85-0.35
	c0.233-0.029,0.509-0.029,0.825,0h0.05c-0.018-0.007-0.034-0.016-0.05-0.025c-0.864-0.363-1.248-0.872-1.149-1.525
	c0.031-0.223,0.115-0.415,0.25-0.575c0.283-0.328,0.8-0.502,1.55-0.525c-0.071-0.143-0.121-0.31-0.15-0.5
	c0.533,0,0.983,0.2,1.351,0.6c0.366,0.4,0.55,0.867,0.55,1.4c0,0.533-0.2,1-0.601,1.4c-0.399,0.4-0.866,0.6-1.399,0.6H77.7
	c-0.566,0-1.05-0.233-1.45-0.7C76.105,32.812,75.98,32.878,75.875,32.95z M76.9,35.1c-0.212-0.14-0.429-0.323-0.65-0.55
	c0.117,0.098,0.251,0.198,0.4,0.3c1.13,0.803,2.063,0.678,2.8-0.375C78.72,35.564,77.869,35.772,76.9,35.1z M66.275,73.475
	c-0.082,0.021-0.157,0.038-0.226,0.051c0.21-0.044,0.451-0.127,0.726-0.25C66.602,73.357,66.435,73.425,66.275,73.475z M21.6,72.725
	c-0.041-0.118-0.057-0.26-0.05-0.425c0.034-0.8,0.5-1.233,1.4-1.3v0.2c0.6-0.134,0.9,0.184,0.9,0.95
	c0.033,0.733-0.267,1.133-0.9,1.199c-0.052,0.006-0.103,0.006-0.15,0C22.123,73.396,21.723,73.188,21.6,72.725z M15.85,62.45
	c-0.516,0.477-0.899,0.793-1.15,0.95c-0.149,0.085-0.299,0.151-0.45,0.199c-0.348,0.102-0.714,0.118-1.1,0.051
	c-0.028-0.167-0.036-0.325-0.025-0.476c0.015-0.566,0.274-1.008,0.775-1.325c0.408-0.28,0.899-0.446,1.475-0.5
	c0.187-0.008,0.378-0.008,0.575,0v1C15.917,62.381,15.884,62.414,15.85,62.45z M43.7,37.6v-0.05c0.125-0.461,0.317-0.82,0.575-1.075
	C44.611,36.12,45.07,35.961,45.65,36l1-0.225c0.063,0.521-0.02,0.929-0.25,1.225c-0.5,0.767-1.3,1.233-2.4,1.4h-0.3
	c0.108,0.435,0.417,0.727,0.925,0.875C43.757,39.068,43.449,38.509,43.7,37.6z M54.3,43.45c0.003-0.03,0.003-0.063,0-0.1
	c-0.004-0.115-0.004-0.232,0-0.35c0.033-0.367,0.233-0.817,0.601-1.35c0.433-0.667,0.683-1.1,0.75-1.3
	c0.018-0.049,0.034-0.107,0.05-0.175c0.066-0.266,0.1-0.658,0.1-1.175c0.033-0.6,0.084-1.033,0.15-1.3v-0.35
	c0.174-0.04,0.341-0.056,0.5-0.05l0.25,0.15c0.467,0.466,0.767,0.867,0.899,1.2c0.134,0.434,0.051,1.033-0.25,1.8l-0.25,0.3
	c0.101,0.167,0.134,0.4,0.101,0.7c-0.033,0.1-0.05,0.333-0.05,0.7c-0.034,0.3-0.084,0.533-0.15,0.7c-0.3,0.7-0.85,1.05-1.65,1.05
	C54.983,43.933,54.634,43.783,54.3,43.45z M58.45,30.625c-0.007,0.26-0.09,0.518-0.25,0.775c-0.134,0.133-0.3,0.383-0.5,0.75
	c-0.134,0.167-0.334,0.267-0.601,0.3c-0.233,0-0.433-0.067-0.6-0.2c-0.049,0.21-0.082,0.402-0.1,0.575c0-0.057,0-0.116,0-0.175
	c0.031-0.7,0.415-1.433,1.149-2.2c0.03-0.031,0.063-0.064,0.101-0.1L58.45,30.625z M67.075,35.025
	c0.005-0.44-0.287-0.749-0.875-0.925v0.1c-0.3,1.033-0.75,1.55-1.351,1.55c-0.566,0.033-0.916-0.3-1.05-1
	c-0.029,0.059-0.054,0.117-0.075,0.175c0.021-0.075,0.046-0.15,0.075-0.225c0.06-0.133,0.135-0.25,0.226-0.35
	c0.279-0.337,0.704-0.454,1.274-0.35h0.351C66.677,34,67.151,34.342,67.075,35.025z M64.875,28.4c0.046,0.243,0.087,0.509,0.125,0.8
	c0.033,0.6,0.1,1.083,0.2,1.45c-0.069-0.035-0.136-0.068-0.2-0.1c-0.462-0.277-0.813-0.644-1.05-1.1
	c-0.017-0.031-0.033-0.065-0.05-0.1c-0.301-0.6-0.367-1.25-0.2-1.95h0.25H64.6C64.703,27.669,64.795,28.002,64.875,28.4z
	 M50.95,23.775c-0.037-0.235-0.004-0.494,0.1-0.775c0.233-0.767,0.983-1.433,2.25-2l0.15,0.15v0.05c-0.5,1.4-1.334,2.15-2.5,2.25
	C50.946,23.563,50.946,23.671,50.95,23.775z M57.425,33.925c0.057-0.005,0.114-0.013,0.175-0.025c0.1-0.021,0.191-0.054,0.275-0.1
	C57.73,33.896,57.58,33.938,57.425,33.925z M25.7,28.925c0.025,0.143,0.075,0.285,0.15,0.425c0.219,0.438,0.635,0.737,1.25,0.9
	c-0.13-0.023-0.255-0.056-0.375-0.1C26.099,29.904,25.757,29.496,25.7,28.925z M35.625,38.725c-0.117-0.266-0.125-0.591-0.025-0.975
	c0.167-0.767,0.617-1.233,1.35-1.4l0.65,0.6L37.65,37c0.474,0.158,0.724,0.417,0.75,0.775c0.023,0.244-0.06,0.536-0.25,0.875
	c-0.416,0.713-0.949,0.98-1.6,0.8c-0.083-0.031-0.167-0.064-0.25-0.1C35.967,39.2,35.743,38.992,35.625,38.725z M43.325,42.825
	c-0.302,0.25-0.744,0.291-1.325,0.125c0.033-1.034,0.583-1.684,1.65-1.95c0.182,0.636,0.157,1.144-0.075,1.525
	c-0.023,0.047-0.048,0.088-0.075,0.125C43.449,42.718,43.391,42.776,43.325,42.825z M58.525,41.3
	c-0.003-0.205-0.012-0.405-0.025-0.6c-0.015-0.258-0.031-0.5-0.05-0.725c0.017,0.15,0.033,0.309,0.05,0.475
	C58.52,40.719,58.528,41.002,58.525,41.3z M78.025,27.925c0.044,0.357,0.053,0.849,0.024,1.475c-0.014-0.151-0.014-0.318,0-0.5
	C78.05,28.452,78.042,28.127,78.025,27.925z M75.525,27.45c-0.236,0-0.512-0.05-0.825-0.15c-0.4-1.2-0.084-1.85,0.95-1.95L76.3,25.7
	c0.141,0.242,0.224,0.458,0.25,0.65c0.061,0.327-0.023,0.594-0.25,0.8C76.109,27.341,75.851,27.44,75.525,27.45z M70.4,33.4
	c0.146-0.17,0.329-0.304,0.55-0.4l-0.55-0.4c0.633-0.1,1.166-0.267,1.6-0.5c0.427,0.097,0.793,0.247,1.1,0.45
	c-0.399,0.567-0.85,0.983-1.35,1.25C71.217,34.1,70.767,33.967,70.4,33.4z M70.275,37.525c-0.131-0.922-0.223-1.647-0.275-2.175
	c0.015,0.112,0.031,0.229,0.05,0.35C70.15,36.483,70.225,37.092,70.275,37.525z M72.45,35.4c0.133,0.533-0.033,0.917-0.5,1.15
	c-0.3,0.333-0.667,0.434-1.101,0.3c-0.466-0.133-0.683-0.434-0.649-0.9c0.066-0.733,0.399-1.15,1-1.25
	C71.866,34.567,72.283,34.8,72.45,35.4z M74.875,36c0.05,0.102,0.075,0.252,0.075,0.45c0,0.7-0.2,1.183-0.601,1.45
	c-0.466,0.333-1.083,0.167-1.85-0.5c-0.333-0.333-0.384-0.7-0.15-1.1c0.2-0.4,0.517-0.6,0.95-0.6c0.101-0.1,0.3-0.184,0.601-0.25
	c-0.011-0.041-0.019-0.107-0.025-0.2c0.036,0.204,0.095,0.354,0.175,0.45c0.115,0.173,0.383,0.273,0.8,0.3H74.875z M66.8,35.775
	c-0.012,0.043-0.028,0.085-0.05,0.125c-0.483,0.941-1.191,1.299-2.125,1.075c-0.08-0.02-0.163-0.045-0.25-0.075
	c0.942,0.306,1.684,0.04,2.225-0.8C66.68,35.988,66.746,35.88,66.8,35.775z M32.675,33.15c-0.122-0.046-0.247-0.112-0.375-0.2
	c-0.26-0.178-0.444-0.37-0.55-0.575c-0.143-0.283-0.126-0.591,0.05-0.925c0.235-0.5,0.652-0.75,1.25-0.75
	c0.081-0.008,0.164-0.008,0.25,0l0.65,0.3c0.311,0.267,0.503,0.534,0.575,0.8c0.08,0.333-0.029,0.667-0.325,1
	C33.76,33.295,33.251,33.412,32.675,33.15z M14.7,26.75c0.002-0.047,0.002-0.098,0-0.15c0.157-1.842,1.565-2.917,4.225-3.225
	c0.121-0.006,0.246-0.014,0.375-0.025l0.4,0.6c-0.163,0.194-0.33,0.377-0.5,0.55c-0.846,0.808-1.829,1.325-2.95,1.55
	c-0.273,0.061-0.557,0.103-0.85,0.125c-0.145,0.014-0.295,0.022-0.45,0.025l-0.15-0.05c-0.037,0.15-0.063,0.3-0.075,0.45
	C14.712,26.649,14.704,26.699,14.7,26.75z M21.95,15.7h0.7c-0.333,0.533-0.75,0.983-1.25,1.35c-0.566,0.4-1.117,0.583-1.65,0.55
	C20.017,16.4,20.75,15.767,21.95,15.7z M25.1,20.9c-0.107,0-0.207,0-0.3,0c-0.133-0.01-0.25-0.027-0.35-0.05
	C24.63,20.877,24.847,20.894,25.1,20.9z M23.9,19.75c0.2-0.233,0.55-0.483,1.05-0.75l1.7-0.3c0.333,0.411,0.491,0.777,0.475,1.1
	c-0.006,0.06-0.015,0.118-0.025,0.175c0.009-0.101,0.009-0.209,0-0.325c-0.833,0.333-1.8,0.417-2.9,0.25L23.9,19.75z M20.7,28.925
	c-0.07,0.252-0.154,0.411-0.25,0.475c-1.133,1.033-2.467,1.467-4,1.3c-0.061,0.201-0.094,0.393-0.1,0.575
	c0.006-0.69,0.339-1.265,1-1.725c0.633-0.466,1.4-0.75,2.3-0.85L20.7,28.925z M30.5,27.9c0.011-0.273-0.039-0.54-0.15-0.8
	c-0.567,0.566-1.233,0.933-2,1.1c-0.8,0.133-1.6,0-2.4-0.4l-0.05-0.05c0.294-0.634,0.878-1.101,1.75-1.4h1.65
	c0.741,0.065,1.149,0.407,1.225,1.025C30.541,27.532,30.533,27.708,30.5,27.9z M30,29.375V29.35c0.037-0.056,0.07-0.114,0.1-0.175
	C30.07,29.247,30.037,29.313,30,29.375z M22.025,34.775c0.641-0.276,1.399-0.534,2.275-0.775l0.5,1.15l0.375,0.9L24.8,35.2
	c-0.466,1.066-1.05,1.683-1.75,1.85c-0.519,0.124-1.077-0.01-1.675-0.4c0.112-0.075,0.229-0.15,0.35-0.225
	C21.971,35.838,22.071,35.288,22.025,34.775z M20.575,39.525V39.5c0.181,0.099,0.373,0.165,0.575,0.2
	C20.949,39.671,20.757,39.613,20.575,39.525z M35.15,41c0.067,0.267,0.05,0.5-0.05,0.7c-0.434,0.733-0.9,1.383-1.4,1.95
	c-0.3,0.3-0.633,0.383-1,0.25l-0.25,0.05c-0.3,0-0.567-0.15-0.8-0.45c-0.184,0.184-0.3,0.384-0.35,0.6
	c0.078-0.736,0.728-1.12,1.95-1.15c0-0.6,0.2-1.067,0.6-1.4C34.186,41.214,34.619,41.031,35.15,41z M31.3,44.5
	c0.032,0.129,0.082,0.263,0.15,0.4c0.172,0.366,0.439,0.649,0.8,0.85C31.683,45.476,31.367,45.06,31.3,44.5z M76.65,57.7
	c-0.629,0.084-1.146,0.059-1.551-0.075c-0.564-0.183-0.914-0.574-1.05-1.175c-0.224-0.868,0.151-1.535,1.125-2
	c-0.024,0.017-0.05,0.033-0.075,0.05c0.634,0.533,0.851,1.233,0.65,2.1c-0.033,0.301-0.184,0.517-0.45,0.65
	c-0.2,0.1-0.434,0.1-0.7,0C75.033,57.65,75.717,57.8,76.65,57.7z M26.425,58.175c0.063,0.265-0.012,0.557-0.225,0.875
	c-0.328,0.535-0.786,0.769-1.375,0.7c-0.075-0.016-0.15-0.032-0.225-0.05c-0.867-0.233-1.033-0.75-0.5-1.55
	c0.5-0.801,1.117-1.117,1.85-0.95v0.3c0.095,0.072,0.178,0.147,0.25,0.225c0.06,0.073,0.11,0.148,0.15,0.226
	C26.384,58.025,26.41,58.101,26.425,58.175z M47,70.925c0.021,0.057,0.038,0.115,0.05,0.175c0.155,0.777-0.328,1.294-1.45,1.551
	c0.567-0.146,0.966-0.38,1.2-0.7c0.267-0.367,0.316-0.733,0.15-1.101L44.3,71.2c-0.367,0-0.65-0.184-0.85-0.55
	c0.138-0.151,0.305-0.302,0.5-0.45c0.5-0.3,0.85-0.533,1.05-0.7l-0.2,0.2C46.041,69.762,46.774,70.17,47,70.925z M57.425,72.5
	c-0.24-0.001-0.457-0.025-0.649-0.075c-0.858-0.214-1.184-0.906-0.976-2.075c0.254-1.27,0.93-1.944,2.025-2.024
	c-0.319,0.047-0.611,0.172-0.875,0.375h0.2c0.666,0,1,0.333,1,1c0,0.666-0.334,1-1,1c-0.7,0-1.15,0.033-1.351,0.1
	c0,0.533,0.15,0.95,0.45,1.25C56.54,72.34,56.932,72.49,57.425,72.5z M64.8,68.5c0.267,0.467,0.233,0.866-0.1,1.2
	c-0.233,0.3-0.434,0.649-0.601,1.05c-0.133,0.434-0.416,0.667-0.85,0.7c-0.4,0.033-0.717-0.101-0.95-0.4V71
	c0.033-0.533,0.334-1.066,0.9-1.6c0.197-0.197,0.397-0.364,0.6-0.5C64.131,68.676,64.464,68.542,64.8,68.5z M64.6,66.425
	c0.333,0.248,0.441,0.557,0.325,0.925c-0.034,0.081-0.076,0.164-0.125,0.25c-0.322,0.484-0.756,0.685-1.3,0.601h-0.05
	C62.816,68.1,62.5,67.733,62.5,67.1c0-0.096,0.009-0.188,0.025-0.274c0.079-0.43,0.388-0.588,0.925-0.476h1
	C64.5,66.378,64.55,66.403,64.6,66.425z M32.725,61.65l0.425,0.699c-0.015,0.081-0.032,0.156-0.05,0.226
	c-0.142,0.438-0.426,0.813-0.85,1.125c-0.211,0.174-0.411,0.273-0.6,0.3c-0.297,0.055-0.556-0.087-0.775-0.425L30.85,63.55
	c-0.333-0.467-0.233-0.934,0.3-1.399c0.5-0.434,1-0.65,1.5-0.65L32.725,61.65z M24.15,55l0.65-0.15c0.6,0.4,0.65,0.75,0.15,1.051
	c-0.434,0.233-0.917,0.316-1.45,0.25C23.333,55.55,23.55,55.167,24.15,55z M20.725,61.7c-0.077-0.018-0.152-0.034-0.225-0.05
	c-0.133-0.667,0.083-1.051,0.65-1.15l1-0.3c0.003,0.025,0.003,0.051,0,0.075C22.251,61.381,21.776,61.856,20.725,61.7z
	 M19.425,62.975L19.45,63c0.711,0.114,1.061,0.448,1.05,1c-0.002,0.05-0.01,0.1-0.025,0.15c0.028-0.425-0.18-0.758-0.625-1
	c-0.167,0.733-0.567,1.166-1.2,1.3c-0.433,0.066-0.933-0.05-1.5-0.351c-0.231,0.54-0.156,0.981,0.225,1.325
	c-0.483-0.407-0.508-0.948-0.075-1.625c0.467-0.8,1.133-1.166,2-1.1L19.425,62.975z M33.525,71.525
	c-0.198-0.03-0.382-0.13-0.55-0.301c-0.135-0.128-0.26-0.303-0.375-0.524c-0.434-0.8-0.25-1.367,0.55-1.7l-0.5,0.35
	c0.167-0.026,0.334-0.034,0.5-0.024c0.45,0.049,0.883,0.257,1.3,0.625c0.23,0.205,0.364,0.396,0.4,0.575
	c0.064,0.304-0.119,0.578-0.55,0.824C34.017,71.512,33.759,71.57,33.525,71.525z M29.45,66.55c0.063-0.735,0.414-1.302,1.05-1.7
	L30.15,65c0.2-0.1,0.383-0.184,0.55-0.25h0.05c0.684-0.179,1.208,0.146,1.575,0.975c0.043,0.102,0.085,0.21,0.125,0.325
	c0.466,1.367,0.167,2.233-0.9,2.601c0.9-0.334,1.217-1.101,0.95-2.301c-0.267-1.199-0.85-1.716-1.75-1.55l0.1,0.05
	c0.467-0.1,0.8,0.117,1,0.65c0.233,0.5,0.117,0.9-0.35,1.2c-0.7,0.434-1.25,0.5-1.65,0.2C29.783,66.866,29.65,66.75,29.45,66.55z
	 M24.425,65.75c-0.577,0.098-0.902-0.169-0.975-0.8c-0.1-0.9,0.3-1.601,1.2-2.101v0.5c0.9-0.133,1.4,0.101,1.5,0.7
	c0.021,0.091,0.029,0.183,0.025,0.275c0,0.472-0.324,0.863-0.975,1.175C24.91,65.636,24.651,65.72,24.425,65.75z M29.15,67.2
	l0.7,0.95c0.133,0.233,0.167,0.5,0.1,0.8c-0.1,0.267-0.25,0.467-0.45,0.6c-0.5,0.267-0.967,0.15-1.4-0.35l-0.35-0.55
	c-0.052,0.188-0.085,0.38-0.1,0.574C27.703,68.087,28.203,67.411,29.15,67.2z M28.875,71.7c-0.842-0.413-1.25-1.163-1.225-2.25
	c0.003,0.33,0.069,0.663,0.2,1c0.267,0.666,0.683,1.116,1.25,1.35C29.021,71.77,28.946,71.736,28.875,71.7z M18,65.8
	c-0.046-0.023-0.096-0.048-0.15-0.075c1.009,0.468,1.776,0.26,2.3-0.625C19.678,65.968,18.961,66.201,18,65.8z M19.6,68.7
	c-0.119,0.379-0.353,0.646-0.7,0.8c-0.268,0.144-0.593,0.193-0.975,0.15c-0.333-0.03-0.708-0.13-1.125-0.301
	c-0.033-0.433,0.117-0.816,0.45-1.149c0.3-0.334,0.65-0.5,1.05-0.5h1.35C19.692,68.093,19.675,68.426,19.6,68.7z M73.025,61.825
	c0.132,0.113,0.24,0.263,0.324,0.45c-0.123-0.255-0.289-0.438-0.5-0.551C72.912,61.756,72.971,61.789,73.025,61.825z M77.425,61.675
	c-0.099,0.037-0.207,0.063-0.325,0.075c-0.566,0.066-0.949-0.116-1.149-0.55c-0.167-0.367-0.134-0.7,0.1-1
	c0.233-0.334,0.533-0.45,0.9-0.351l0.25,0.25l0.75,0.75C77.977,61.278,77.802,61.554,77.425,61.675z M66.3,60.325
	c-0.053,0.172-0.169,0.33-0.35,0.475c-0.055,0.05-0.113,0.092-0.175,0.125c-0.272,0.167-0.547,0.126-0.825-0.125
	c-0.3-0.3-0.316-0.666-0.05-1.1c0.3-0.4,0.649-0.566,1.05-0.5l0.35,0.649C66.346,60.018,66.346,60.176,66.3,60.325z M60.925,62.325
	c-0.096-0.023-0.204-0.064-0.325-0.125c-0.533-0.233-0.75-0.684-0.649-1.351V61.2l0.25-0.5c0.434-0.101,0.8-0.084,1.1,0.05
	c0.35,0.159,0.475,0.45,0.375,0.875c-0.011,0.028-0.019,0.054-0.024,0.075C61.521,62.164,61.279,62.372,60.925,62.325z
	 M69.95,56.975c-0.063,0.102-0.164,0.21-0.3,0.325c-0.126,0.105-0.435,0.146-0.926,0.125c-0.296-0.021-0.654-0.063-1.074-0.125
	c-0.101-0.366-0.084-0.649,0.05-0.85c0.133-0.267,0.383-0.351,0.75-0.25l0.2-0.2c0.5-0.1,0.899,0,1.199,0.3
	C70.056,56.506,70.089,56.73,69.95,56.975z M71.75,61.45c-0.467,1.133-0.566,2.184-0.3,3.149c0.033,0.267,0,0.517-0.101,0.75
	c-0.42-0.044-0.762-0.094-1.024-0.149c-0.234-0.062-0.409-0.128-0.525-0.2c-0.038-0.025-0.071-0.051-0.1-0.075
	c-0.32-0.28-0.453-0.739-0.4-1.375V63.5c0.033-0.5,0.167-0.967,0.4-1.4c0.079-0.14,0.162-0.265,0.25-0.375
	c0.247-0.301,0.53-0.476,0.85-0.524L71.75,61.45z M68.8,65.7l0.851,0.5c0.235,0.17,0.377,0.361,0.425,0.575
	c0.013,0.03,0.021,0.063,0.024,0.1c0.04,0.305-0.094,0.646-0.399,1.025c-0.358,0.447-0.75,0.605-1.175,0.475
	C68.327,68.322,68.119,68.197,67.9,68c-0.339-0.311-0.447-0.669-0.325-1.075c0.014-0.073,0.039-0.147,0.075-0.225
	C67.884,66.233,68.267,65.9,68.8,65.7z M67,70.6c-0.003,0.064-0.003,0.131,0,0.2c0.142,0.015,0.274,0.031,0.4,0.05
	c0.166,0.156,0.25,0.372,0.25,0.65c-0.067,0.733-0.467,1.134-1.2,1.2c-0.467,0-0.767-0.233-0.9-0.7c-0.1-0.434,0.017-0.8,0.351-1.1
	C66.167,70.6,66.533,70.5,67,70.6z M53.65,58.85c-0.031,0.112-0.098,0.229-0.2,0.351c-0.113,0.134-0.238,0.242-0.375,0.325
	C52.772,59.69,52.414,59.715,52,59.6c-0.1-0.433-0.05-0.85,0.15-1.25c0.199-0.433,0.533-0.6,1-0.5V58.2
	C53.559,58.368,53.725,58.585,53.65,58.85z M59.275,61.225L59.2,61.4c-0.834,1-2.033,1.5-3.601,1.5
	c-0.037,0.26-0.012,0.484,0.075,0.675C55.46,63.146,55.552,62.622,55.95,62c0.467-0.8,1.033-1.233,1.7-1.3l-0.5,0.3
	c0.466-0.033,0.833-0.05,1.1-0.05c0.467,0,0.8,0.083,1,0.25L59.275,61.225z M59.725,62.25c-0.011-0.164-0.036-0.313-0.074-0.45
	c0.021,0.056,0.038,0.114,0.05,0.175C59.712,62.063,59.72,62.154,59.725,62.25z"/>
<path style="fill-rule:evenodd;clip-rule:evenodd;fill:#9A7B5C;" d="M7.825,28.775c-0.181,0.001-0.372-0.015-0.575-0.05
	C7.076,28.698,6.893,28.656,6.7,28.6l0.025-0.25c0.022-0.279,0.098-0.545,0.225-0.8c0.767-0.2,1.4-0.65,1.9-1.35l0.1-0.25
	c0.049-0.019,0.099-0.036,0.15-0.05c0.209-0.072,0.426-0.122,0.65-0.15c0.102-0.019,0.202-0.036,0.3-0.05c0.086,0,0.169,0,0.25,0
	L9.65,27v0.025C9.607,27.813,9.291,28.337,8.7,28.6C8.44,28.714,8.148,28.772,7.825,28.775z M16.55,20.9l0.1,0.45l-0.025,0.025
	c-0.037,0.015-0.07,0.032-0.1,0.05c-0.143,0.086-0.301,0.178-0.475,0.275l-1.7,1.2c-0.134,0.077-0.267,0.144-0.4,0.2
	c-0.399,0.18-0.799,0.28-1.2,0.3c-0.352,0.024-0.702-0.01-1.05-0.1c-0.039-0.399-0.005-0.749,0.1-1.05
	c0.036-0.148,0.085-0.282,0.15-0.4h0.025L13.3,21.3c1.034-0.1,1.917-0.35,2.65-0.75l0.55,0.15L16.55,20.9z M78.025,27.925L78,27.85
	V27.8h0.05l0.65,0.6c1.934,1.167,3.767,1.217,5.5,0.15l0.7-0.5l0.35,0.45H85.2c-1.101,0.4-1.566,1.133-1.4,2.2
	c0.167,1.033,0.8,1.617,1.9,1.75c1.2,0.1,2.399-0.083,3.6-0.55c-0.073,0.128-0.173,0.253-0.3,0.375l-0.05,0.075
	c-0.072,0.063-0.146,0.13-0.226,0.2c-0.022,0.012-0.047,0.029-0.074,0.05L89.35,33c-0.399,0.567-2,0.95-4.8,1.15
	c-0.09,0.008-0.182,0.016-0.274,0.025c-0.341,0.028-0.666,0.053-0.976,0.075c-1.928,0.117-3.128,0.05-3.6-0.2
	c-0.037,0.068-0.07,0.135-0.101,0.2l-0.149,0.225c-0.737,1.053-1.67,1.178-2.8,0.375c-0.149-0.102-0.283-0.202-0.4-0.3
	c-0.835-0.668-0.96-1.202-0.375-1.6c0.105-0.072,0.23-0.139,0.375-0.2c0.4,0.467,0.884,0.7,1.45,0.7h0.25c0.533,0,1-0.2,1.399-0.6
	c0.4-0.4,0.601-0.867,0.601-1.4c0-0.534-0.184-1-0.55-1.4c-0.367-0.4-0.817-0.6-1.351-0.6V29.4
	C78.078,28.774,78.069,28.282,78.025,27.925z M74.875,36c-0.007-0.018-0.015-0.035-0.025-0.05c0.366,0,0.65,0.033,0.851,0.1
	c0.08,0.021,0.146,0.055,0.2,0.1c0.045,0.024,0.078,0.058,0.1,0.1c0.119,0.261,0.211,0.511,0.275,0.75
	c0.128,0.503,0.119,0.945-0.025,1.325c-0.188,0.474-0.587,0.849-1.2,1.125c-0.596,0.277-1.363,0.443-2.3,0.5
	c-0.529,0.036-1.112,0.036-1.75,0c0.066-0.1,0.15-0.35,0.25-0.75v-0.025c0.021-0.063,0.038-0.121,0.05-0.175
	c0.047-0.133,0.097-0.25,0.15-0.35L71.6,38.4c-0.094,0.014-0.219,0.014-0.375,0c-0.225-0.007-0.516-0.04-0.875-0.1l-0.074-0.775
	c-0.051-0.433-0.125-1.042-0.226-1.825c-0.019-0.121-0.035-0.238-0.05-0.35c-0.038-0.353-0.038-0.669,0-0.95
	c0.051-0.415,0.185-0.748,0.4-1c0.366,0.567,0.816,0.7,1.35,0.4c0.5-0.267,0.95-0.683,1.35-1.25c0.214,0.158,0.396,0.341,0.551,0.55
	c0.058,0.078,0.107,0.169,0.149,0.275c0.09,0.243,0.123,0.552,0.101,0.925c-0.023,0.442-0.032,0.759-0.025,0.95
	c0.007,0.093,0.015,0.16,0.025,0.2C73.6,35.517,73.4,35.6,73.3,35.7c-0.434,0-0.75,0.2-0.95,0.6c-0.233,0.4-0.183,0.767,0.15,1.1
	c0.767,0.667,1.384,0.833,1.85,0.5c0.4-0.267,0.601-0.75,0.601-1.45C74.95,36.252,74.925,36.102,74.875,36z M72.45,35.4
	c-0.167-0.6-0.584-0.833-1.25-0.7c-0.601,0.1-0.934,0.517-1,1.25c-0.033,0.466,0.184,0.767,0.649,0.9
	c0.434,0.133,0.801,0.033,1.101-0.3C72.417,36.317,72.583,35.933,72.45,35.4z M67.4,70.85c-0.019-0.021-0.036-0.037-0.051-0.05
	l0.575,0.05L68.3,70.9l0.025,0.675C68.298,71.719,68.256,71.86,68.2,72c-0.207,0.464-0.615,0.855-1.226,1.175
	c-0.042,0.029-0.083,0.055-0.125,0.075c-0.021,0.01-0.046,0.019-0.074,0.025c-0.274,0.123-0.516,0.206-0.726,0.25l-0.6-0.025
	c-0.336-0.093-0.553-0.359-0.65-0.8c-0.614-0.025-1.098-0.093-1.45-0.2c-0.114-0.028-0.215-0.062-0.3-0.1
	c-0.026-0.014-0.051-0.03-0.075-0.051c-0.041-0.022-0.083-0.047-0.125-0.074c-0.299-0.203-0.474-0.495-0.524-0.875
	c-0.021-0.112-0.029-0.229-0.025-0.351c0.233,0.3,0.55,0.434,0.95,0.4c0.434-0.033,0.717-0.267,0.85-0.7
	c0.167-0.4,0.367-0.75,0.601-1.05c0.333-0.334,0.366-0.733,0.1-1.2l0.65,0.35c0.058-0.008,0.116-0.017,0.175-0.024h0.4
	c0.347,0.022,0.588,0.147,0.725,0.375c0.017,0.029,0.034,0.063,0.05,0.1c0.05,0.1,0.092,0.274,0.125,0.525
	C66.952,70.03,66.978,70.289,67,70.6c-0.467-0.1-0.833,0-1.1,0.301c-0.334,0.3-0.45,0.666-0.351,1.1c0.134,0.467,0.434,0.7,0.9,0.7
	c0.733-0.066,1.133-0.467,1.2-1.2C67.65,71.222,67.566,71.006,67.4,70.85z M53.65,21.975c-0.007,0.125-0.016,0.25-0.025,0.375
	c-0.085,1.375-0.51,2.159-1.275,2.35c-0.054,0.017-0.112,0.025-0.175,0.025H51.95c-0.608,0.047-0.941-0.27-1-0.95
	c-0.004-0.104-0.004-0.212,0-0.325c1.166-0.1,2-0.85,2.5-2.25v-0.05l0.024,0.025l0.176,0.175
	C53.655,21.563,53.655,21.771,53.65,21.975z M58.45,39.975c0.019,0.226,0.035,0.467,0.05,0.725c0.014,0.194,0.022,0.395,0.025,0.6
	v0.375c0,1.124-0.108,2.432-0.325,3.925c-0.967,0.233-1.834,0.15-2.601-0.25h-0.024c-0.58-0.314-0.963-0.764-1.15-1.35L54.3,43.45
	c0.334,0.333,0.684,0.483,1.05,0.45c0.801,0,1.351-0.35,1.65-1.05c0.066-0.167,0.116-0.4,0.15-0.7c0-0.367,0.017-0.6,0.05-0.7
	c0.033-0.3,0-0.534-0.101-0.7l0.25-0.3c0.301-0.767,0.384-1.367,0.25-1.8c-0.133-0.333-0.433-0.733-0.899-1.2l-0.25-0.15h0.024
	l0.476,0.05c0.459,0.133,0.817,0.475,1.075,1.025c0.149,0.32,0.267,0.703,0.35,1.15L58.45,39.975z M57.875,33.8
	c-0.084,0.046-0.176,0.08-0.275,0.1c-0.061,0.012-0.118,0.02-0.175,0.025c-0.146,0.018-0.279,0.018-0.399,0
	c-0.466-0.073-0.675-0.439-0.625-1.1c0.018-0.173,0.051-0.365,0.1-0.575c0.167,0.133,0.366,0.2,0.6,0.2
	c0.267-0.034,0.467-0.133,0.601-0.3c0.2-0.367,0.366-0.617,0.5-0.75c0.16-0.257,0.243-0.515,0.25-0.775V30.6l0.2,0.1
	c0.033,0.241,0.058,0.466,0.074,0.675C58.81,32.706,58.526,33.514,57.875,33.8z M67.075,35.025c-0.004,0.021-0.004,0.046,0,0.075
	c-0.044,0.178-0.119,0.386-0.226,0.625l-0.05,0.05c-0.054,0.105-0.12,0.213-0.2,0.325c-0.541,0.839-1.282,1.106-2.225,0.8l-0.25-0.1
	c-0.041-0.014-0.083-0.03-0.125-0.05c-0.096-0.043-0.195-0.093-0.3-0.15c-0.113-0.652-0.105-1.211,0.024-1.675
	c0.021-0.058,0.046-0.116,0.075-0.175c0.134,0.7,0.483,1.033,1.05,1c0.601,0,1.051-0.517,1.351-1.55v-0.1
	C66.788,34.276,67.08,34.585,67.075,35.025z M46.65,35.775V35.75l0.3-0.05c0.024,0.461,0.033,0.87,0.024,1.225
	c0.001,0.591-0.041,1.033-0.125,1.325c-0.233,0.833-0.85,1.2-1.85,1.1c-0.139-0.016-0.264-0.041-0.375-0.075
	c-0.508-0.148-0.816-0.44-0.925-0.875H44c1.1-0.167,1.9-0.633,2.4-1.4C46.631,36.704,46.714,36.295,46.65,35.775z M20,39.075
	L19.7,38.7l-0.325-0.65c-0.307-0.901,0.068-1.718,1.125-2.45c0,0.133,0.083,0.316,0.25,0.55c0.216,0.199,0.424,0.365,0.625,0.5
	c0.598,0.39,1.156,0.523,1.675,0.4c0.7-0.167,1.284-0.783,1.75-1.85l0.375,0.85l0.125,0.3c-0.066,1.2-0.8,2.167-2.2,2.9
	c-0.188,0.096-0.372,0.18-0.55,0.25c-0.158,0.059-0.308,0.109-0.45,0.15c-0.194,0.043-0.378,0.068-0.55,0.075l-0.4-0.025
	c-0.202-0.035-0.394-0.102-0.575-0.2C20.366,39.396,20.174,39.254,20,39.075z M30.5,27.9c0.001,0.41-0.132,0.835-0.4,1.275
	c-0.03,0.061-0.063,0.12-0.1,0.175v0.025c-0.396,0.597-0.945,0.93-1.65,1c-0.248,0.024-0.515,0.016-0.8-0.025l-0.45-0.1
	c-0.615-0.163-1.031-0.462-1.25-0.9c-0.075-0.141-0.125-0.282-0.15-0.425c-0.083-0.375-0.016-0.767,0.2-1.175l0.05,0.05
	c0.8,0.4,1.6,0.534,2.4,0.4c0.767-0.167,1.433-0.534,2-1.1C30.461,27.36,30.511,27.626,30.5,27.9z M18.75,35.2
	c-0.024,0.036-0.049,0.069-0.075,0.1c-0.313,0.368-0.871,0.518-1.675,0.45h-0.05c-0.267-0.025-0.567-0.075-0.9-0.15
	c-0.133-0.267-0.167-0.517-0.1-0.75c0.033-0.067,0.15-0.233,0.35-0.5h1c0.267-0.067,0.817-0.05,1.65,0.05
	C18.95,34.73,18.883,34.997,18.75,35.2z M71.65,25.9c0.016,0.069,0.032,0.144,0.05,0.225c-0.003,0.038-0.003,0.08,0,0.125
	c-0.01,0.391-0.159,0.841-0.45,1.35c-0.833,0.2-1.533,0.083-2.1-0.35c-0.534-0.4-0.717-0.883-0.551-1.45l0.25,0.1l0.051,0.05
	L69.1,26.1c0.2,0.133,0.367,0.2,0.5,0.2c0.334,0,0.5-0.133,0.5-0.4c0.267-0.133,0.467-0.2,0.601-0.2c0.267-0.034,0.434-0.2,0.5-0.5
	C71.418,25.407,71.568,25.64,71.65,25.9z M23.9,19.75l0.3,0.15c1.1,0.167,2.066,0.083,2.9-0.25c0.009,0.116,0.009,0.224,0,0.325
	c-0.102,0.545-0.594,0.854-1.475,0.925c-0.164,0.008-0.339,0.008-0.525,0c-0.253-0.006-0.47-0.022-0.65-0.05
	c-0.856-0.125-1.057-0.466-0.6-1.025L23.9,19.75z M19.7,23.95l0.25,0.4v0.025c-0.079,1.123-0.712,1.964-1.9,2.525
	c-0.751,0.376-1.526,0.551-2.325,0.525c-0.338-0.004-0.68-0.046-1.025-0.125c-0.008-0.106-0.008-0.214,0-0.325
	c0-0.053,0-0.103,0-0.15V26.75c0.004-0.051,0.012-0.101,0.025-0.15c0.012-0.15,0.038-0.3,0.075-0.45l0.15,0.05
	c0.154-0.003,0.305-0.011,0.45-0.025c0.293-0.022,0.577-0.064,0.85-0.125c1.122-0.225,2.104-0.742,2.95-1.55
	C19.37,24.327,19.537,24.144,19.7,23.95z M22.65,30.125c-0.011,0.163-0.028,0.338-0.05,0.525c-1.2,0.434-2.2,0.717-3,0.85
	c-0.68,0.113-1.397,0.164-2.15,0.15c-0.36-0.001-0.727-0.018-1.1-0.05v-0.325c0.006-0.182,0.04-0.374,0.1-0.575
	c1.533,0.167,2.867-0.267,4-1.3c0.096-0.064,0.18-0.223,0.25-0.475V28.9l1.95,0.45C22.672,29.551,22.672,29.81,22.65,30.125z
	 M31.3,44.1c0.05-0.216,0.167-0.417,0.35-0.6c0.233,0.3,0.5,0.45,0.8,0.45l0.25-0.05c0.367,0.133,0.7,0.05,1-0.25
	c0.5-0.566,0.966-1.217,1.4-1.95c0.1-0.2,0.117-0.434,0.05-0.7h0.15v1.225v0.125c0.567,1.167,0.65,2.133,0.25,2.9
	c-0.433,0.8-1.3,1.05-2.6,0.75c-0.212-0.051-0.404-0.118-0.575-0.2c-0.04-0.017-0.082-0.033-0.125-0.05
	c-0.361-0.201-0.628-0.484-0.8-0.85c-0.069-0.137-0.119-0.271-0.15-0.4C31.276,44.359,31.276,44.226,31.3,44.1z M43.975,72.725
	c-0.619-0.102-0.944-0.41-0.975-0.925c-0.006-0.04-0.006-0.082,0-0.125c-0.006-0.04-0.006-0.082,0-0.125V71.5
	c0.044-0.284,0.194-0.567,0.45-0.85c0.2,0.366,0.483,0.55,0.85,0.55l2.65-0.351c0.166,0.367,0.116,0.733-0.15,1.101
	c-0.233,0.32-0.633,0.554-1.2,0.7l-0.25,0.05C44.798,72.775,44.339,72.784,43.975,72.725z M41.925,75
	c-0.032,0.563-0.391,0.671-1.075,0.325c-0.096-0.054-0.196-0.111-0.3-0.175c-0.4-0.267-0.633-0.534-0.7-0.801
	c-0.067-0.3,0.2-0.416,0.8-0.35h0.15c0.267-0.033,0.6-0.017,1,0.05C41.898,74.44,41.939,74.758,41.925,75z M57.425,72.5
	c-0.493-0.01-0.885-0.16-1.175-0.45c-0.3-0.3-0.45-0.717-0.45-1.25c0.2-0.066,0.65-0.1,1.351-0.1c0.666,0,1-0.334,1-1
	c0-0.667-0.334-1-1-1h-0.2c0.264-0.203,0.556-0.328,0.875-0.375c0.191-0.009,0.4-0.001,0.625,0.024l0.35,0.15v0.05
	c0.001,0.203,0.01,0.462,0.025,0.775c0.008,0.282,0.024,0.607,0.05,0.975c0.003,0.196,0.012,0.405,0.025,0.625
	c-0.002,0.022-0.002,0.048,0,0.075c-0.067,0.967-0.483,1.467-1.25,1.5C57.572,72.504,57.497,72.504,57.425,72.5z M59.65,61.8
	c0.038,0.137,0.063,0.286,0.074,0.45l-0.024,0.3c0.002,0.017,0.002,0.033,0,0.05c-0.066,0.567-0.267,0.983-0.601,1.25
	c-0.3,0.2-0.816,0.334-1.55,0.4c-0.053,0.002-0.103,0.002-0.149,0c-0.329,0.011-0.604-0.006-0.825-0.05
	c-0.201-0.029-0.36-0.079-0.476-0.15c-0.04-0.013-0.073-0.029-0.1-0.05c-0.144-0.127-0.252-0.269-0.325-0.425
	c-0.087-0.19-0.112-0.415-0.075-0.675c1.567,0,2.767-0.5,3.601-1.5l0.075-0.176L59.3,61.2C59.473,61.354,59.589,61.555,59.65,61.8z
	 M22.15,55.85v0.275c-0.006,0.1-0.022,0.2-0.05,0.3c-0.132,0.619-0.599,1.318-1.4,2.101c-0.037,0.021-0.07,0.047-0.1,0.074
	c-0.608,0.571-1.15,0.946-1.625,1.125C18.611,59.861,18.286,59.886,18,59.8c-0.1-0.8,0.067-1.649,0.5-2.55
	c0.267,0.233,0.567,0.3,0.9,0.2c1.1-0.134,1.95-0.7,2.55-1.7L22.15,55.85z M29.45,66.55c0.2,0.2,0.333,0.316,0.4,0.351
	c0.4,0.3,0.95,0.233,1.65-0.2c0.467-0.3,0.583-0.7,0.35-1.2c-0.2-0.533-0.533-0.75-1-0.65l-0.1-0.05
	c0.9-0.166,1.483,0.351,1.75,1.55c0.267,1.2-0.05,1.967-0.95,2.301c0.6,0.866,0.6,1.716,0,2.55c-0.6,0.833-1.417,1.033-2.45,0.6
	c-0.567-0.233-0.983-0.684-1.25-1.35c-0.131-0.337-0.197-0.67-0.2-1v-0.226c0.015-0.194,0.048-0.386,0.1-0.574l0.35,0.55
	c0.433,0.5,0.9,0.616,1.4,0.35c0.2-0.133,0.35-0.333,0.45-0.6c0.066-0.3,0.033-0.566-0.1-0.8l-0.7-0.95
	c0.096-0.021,0.195-0.038,0.3-0.05C29.43,66.938,29.43,66.738,29.45,66.55z M20.475,64.15c-0.007,0.279-0.115,0.596-0.325,0.949
	c-0.524,0.885-1.291,1.093-2.3,0.625L17.8,65.7c-0.163-0.082-0.305-0.174-0.425-0.275c-0.381-0.344-0.457-0.785-0.225-1.325
	c0.567,0.301,1.067,0.417,1.5,0.351c0.633-0.134,1.033-0.566,1.2-1.3C20.295,63.393,20.503,63.726,20.475,64.15z M76,54.85
	c1.009-0.021,1.625,0.346,1.85,1.101c0.022,0.052,0.039,0.102,0.051,0.149c0.233,0.9-0.184,1.434-1.25,1.601
	c-0.934,0.1-1.617-0.05-2.051-0.45c0.267,0.1,0.5,0.1,0.7,0c0.267-0.134,0.417-0.35,0.45-0.65c0.2-0.866-0.017-1.566-0.65-2.1
	c0.025-0.017,0.051-0.033,0.075-0.05c0.188-0.092,0.396-0.176,0.625-0.25l0.15,0.625v0.024H76z M72.85,61.725
	c0.211,0.112,0.377,0.296,0.5,0.551l0.101,0.199c0.018,0.052,0.035,0.103,0.05,0.15c0.007,0.028,0.015,0.054,0.025,0.075
	l0.024,0.149c0.101,0.567,0.084,1.067-0.05,1.5c-0.167,0.5-0.4,0.817-0.7,0.95c-0.233,0.101-0.666,0.117-1.3,0.05
	c-0.05-0.003-0.1-0.003-0.15,0c0.101-0.233,0.134-0.483,0.101-0.75c-0.267-0.966-0.167-2.017,0.3-3.149l0.05-0.05l1,0.3
	L72.85,61.725z M66.325,64.425c-0.131-0.012-0.306-0.103-0.525-0.274C65,63.55,65.167,63.167,66.3,63h0.15
	c0.137,0.563,0.179,0.963,0.125,1.2C66.441,64.26,66.358,64.335,66.325,64.425z"/>
<path style="fill-rule:evenodd;clip-rule:evenodd;fill:#8F6132;" d="M77.125,37.6c-0.045-0.156-0.086-0.272-0.125-0.35
	c-0.085-0.171-0.327-0.254-0.725-0.25c-0.064-0.239-0.156-0.489-0.275-0.75c-0.021-0.042-0.055-0.076-0.1-0.1
	c0.15-0.069,0.317-0.153,0.5-0.25c0.179-0.103,0.396-0.294,0.649-0.575c0.063,0.074,0.129,0.149,0.2,0.225
	c1.366,1.4,2.517,1.233,3.45-0.5c0.333,0.133,0.85,0.2,1.55,0.2c0-0.267,0.15-0.5,0.45-0.7l0.6-0.3
	c0.31-0.022,0.635-0.047,0.976-0.075c0.093-0.009,0.185-0.017,0.274-0.025c2.8-0.2,4.4-0.583,4.8-1.15l-0.699-0.4
	c0.027-0.021,0.052-0.038,0.074-0.05c0.414-0.198,0.906-0.457,1.476-0.775c0.236-0.048,0.469-0.106,0.7-0.175
	c0.048-0.113,0.089-0.222,0.125-0.325l0.024-0.025c-0.046,0.11-0.088,0.218-0.125,0.325c-0.218,0.475-0.409,0.85-0.575,1.125
	c-0.29,0.484-0.757,1.001-1.399,1.55c0.565-0.505,0.999-0.988,1.3-1.45l-2.15,0.95c-1,0.333-2.283,0.483-3.85,0.45
	c-0.7,1.233-1.816,2.066-3.35,2.5C80.1,36.916,78.841,37.215,77.125,37.6z M34.175,47.05c-0.686-0.034-1.261-0.134-1.725-0.3
	c-4.3-1.567-7.7-2.65-10.2-3.25c-0.5-0.133-1.6-0.483-3.3-1.05c-1.267-0.434-2.4-0.7-3.4-0.8c-2.133-0.233-3.25-0.35-3.35-0.35
	c-1.534-0.3-2.367-0.833-2.5-1.6c-0.5-0.1-1.133-0.2-1.9-0.3c-0.633-0.133-1.183-0.367-1.65-0.7c-0.167-0.133-0.483-0.467-0.95-1
	c-0.367-0.434-0.684-0.7-0.95-0.8c0.033-0.167,0.033-0.45,0-0.85c-0.067-0.4-0.083-0.683-0.05-0.85
	c-0.2,0.033-0.517,0.017-0.95-0.05C2.85,33.65,3.2,31.933,4.3,30c0.674-0.602,1.5-1.285,2.475-2.05
	c-0.031,0.127-0.047,0.261-0.05,0.4L6.7,28.6c0.192,0.056,0.375,0.098,0.55,0.125c-0.939,0.936-1.605,1.727-2,2.375
	C5.683,31.3,6,31.417,6.2,31.45c0,0.7-0.15,1.35-0.45,1.95c1.333-0.033,2.317,0,2.95,0.1c-0.034,0.167-0.017,0.45,0.05,0.85
	c0.033,0.367,0.033,0.633,0,0.8l0.7,0.25c0.066,0.067,0.167,0.3,0.3,0.7c0.767,0,1.317,0.017,1.65,0.05c0.567,0.067,0.934,0.4,1.1,1
	c0.258-0.064,1.741-0.531,4.45-1.4H17c-0.022,0.044-0.039,0.078-0.05,0.1c-0.067,0.233-0.034,0.483,0.1,0.75
	c1.328,0.297,2.203,0.206,2.625-0.275c-0.426,0.535-0.526,1.11-0.3,1.725L19.7,38.7l0.3,0.375c0.175,0.189,0.367,0.339,0.575,0.45
	c0.041,0.054,0.083,0.113,0.125,0.175c0.767,1.133,1.9,1.316,3.4,0.55c0.284-0.149,0.542-0.307,0.775-0.475
	c0.578,0.352,1.069,0.544,1.475,0.575c0.8-0.2,1.35-0.333,1.65-0.4c0.567-0.1,0.917,0.2,1.05,0.9c0.867-0.567,1.6-0.917,2.2-1.05
	c0.9-0.167,1.233,0.284,1,1.35c0.884-0.196,2.009-1.005,3.375-2.425c0.118,0.267,0.342,0.475,0.675,0.625
	c0.083,0.036,0.167,0.069,0.25,0.1c0.056,0.4,0.306,0.7,0.75,0.9c0.767,0.333,1.383,0.1,1.85-0.7c0.036-0.064,0.069-0.122,0.1-0.175
	c-0.032,1.372-0.032,2.347,0,2.925c0.5-0.4,0.967-0.55,1.4-0.45c0.434,0.133,0.633,0.533,0.6,1.2l1.9,0.025
	c-0.091,0.233-0.141,0.492-0.15,0.775c0.476,0.136,0.859,0.136,1.15,0c0.067,0.191,0.1,0.341,0.1,0.45
	c1.467-1.633,2.866-1.233,4.2,1.2c-0.066-1.233,0.416-2.717,1.45-4.45c1.066-1.8,2.116-2.8,3.149-3c0.101,0.2,0.233,1.2,0.4,3
	c0.102,1.041,0.385,1.774,0.85,2.2c0.003,0.037,0.003,0.07,0,0.1L54.425,44c0.188,0.586,0.57,1.036,1.15,1.35
	c0.19,0.354,0.482,0.654,0.875,0.9c0.767,0.467,1.684,0.583,2.75,0.35c0.232-1.605,0.341-2.997,0.325-4.175
	c0.156,0.076,0.298,0.184,0.425,0.325c0.666-1.1,1.083-1.733,1.25-1.9c0.533-0.733,1.116-1.2,1.75-1.4
	c0.3-0.067,0.767-0.067,1.399,0c0.634,0.1,1.084,0.1,1.351,0c0.934-0.267,1.7-1.034,2.3-2.3c0.7-1.433,1.25-2.283,1.65-2.55
	c0.115-0.077,0.231-0.144,0.35-0.2c-0.038,0.281-0.038,0.598,0,0.95c0.053,0.527,0.145,1.252,0.275,2.175L70.35,38.3
	c0.359,0.06,0.65,0.093,0.875,0.1c0.025,0.194,0.051,0.394,0.075,0.6c-0.012,0.054-0.028,0.112-0.05,0.175V39.2
	c-0.1,0.4-0.184,0.65-0.25,0.75c0.638,0.036,1.221,0.036,1.75,0c-0.634,0.133-1.434,0.267-2.4,0.4
	c-0.767,0.167-1.566,0.433-2.399,0.8c-1.5,0.733-2.55,1.333-3.15,1.8c-0.033,0.033-0.333,0.283-0.899,0.75
	c-0.367,0.3-0.733,0.533-1.101,0.7c-0.133,0.067-0.399,0.067-0.8,0c-0.366-0.066-0.634-0.05-0.8,0.05c-0.5,0.3-0.834,0.7-1,1.2
	c-0.167,0.633-0.384,1.067-0.65,1.3c-0.333,0.3-0.85,0.5-1.55,0.6c-0.366,0.034-0.934,0.1-1.7,0.2c-1.033,0.233-1.866,0.367-2.5,0.4
	c-0.7,0.033-1.566-0.033-2.6-0.2c-0.566-0.1-1.167-0.1-1.8,0c-1.101,0.167-1.667,0.25-1.7,0.25c-1,0.066-2.434,0-4.3-0.2
	c-2.066-0.267-3.467-0.4-4.2-0.4c-1,0-2.133-0.15-3.4-0.45c-0.114-0.016-0.297-0.033-0.55-0.05c0.599-0.072,1.032-0.355,1.3-0.85
	c0.4-0.767,0.317-1.733-0.25-2.9V42c-0.38,0-0.713,0.075-1,0.225V41h-0.15c-0.531,0.031-0.964,0.214-1.3,0.55
	c-0.4,0.333-0.6,0.8-0.6,1.4c-1.223,0.03-1.873,0.414-1.95,1.15c-0.024,0.125-0.024,0.259,0,0.4c0.067,0.56,0.383,0.976,0.95,1.25
	c0.043,0.017,0.085,0.033,0.125,0.05c0.184,0.59,0.709,0.99,1.575,1.2C34.03,47.019,34.105,47.035,34.175,47.05z M9.95,25.575
	c0.135-0.093,0.268-0.185,0.4-0.275c-0.085,0.127-0.185,0.26-0.3,0.4c-0.098,0.014-0.198,0.031-0.3,0.05L9.95,25.575z M39.275,38.4
	c-0.133-0.172-0.341-0.305-0.625-0.4l-0.25-0.225c-0.026-0.358-0.276-0.617-0.75-0.775l-0.05-0.05c0.59-0.431,1.107-0.698,1.55-0.8
	C39.227,36.711,39.268,37.461,39.275,38.4z"/>
</svg>
