<?xml version="1.0" encoding="iso-8859-1"?>
<!-- Generator: Adobe Illustrator 15.1.0, SVG Export Plug-In . SVG Version: 6.00 Build 0)  -->
<!DOCTYPE svg PUBLIC "-//W3C//DTD SVG 1.1//EN" "http://www.w3.org/Graphics/SVG/1.1/DTD/svg11.dtd">
<svg version="1.1" id="FlashAICB" xmlns="http://www.w3.org/2000/svg" xmlns:xlink="http://www.w3.org/1999/xlink" x="0px" y="0px"
	 width="92.4px" height="26.55px" viewBox="0 0 92.4 26.55" style="enable-background:new 0 0 92.4 26.55;" xml:space="preserve">
<radialGradient id="SVGID_1_" cx="46.2002" cy="18.8496" r="45.6875" gradientTransform="matrix(1 0 0 -0.2698 0 23.9346)" gradientUnits="userSpaceOnUse">
	<stop  offset="0" style="stop-color:#000000;stop-opacity:0.1686"/>
	<stop  offset="0.902" style="stop-color:#000000;stop-opacity:0"/>
</radialGradient>
<path style="fill-rule:evenodd;clip-rule:evenodd;fill:url(#SVGID_1_);" d="M0,18.7c0.8-0.134,1.967-0.4,3.5-0.8
	c0.233-0.034,0.95-0.084,2.15-0.15c0.9-0.033,1.567-0.167,2-0.4l-0.4-0.6c0.233-0.066,0.917-0.1,2.05-0.1
	c0.867,0,1.467-0.117,1.8-0.351L10.45,15.9c0.333-0.134,0.75-0.217,1.25-0.25c0.267,0,0.683,0,1.25,0l-0.2-0.4
	c0.4-0.2,1-0.333,1.8-0.4c0.434-0.033,1.067-0.05,1.9-0.05c-0.434-0.434-0.7-0.684-0.8-0.75c0.467-0.1,1.483-0.133,3.05-0.1
	c1.333,0.033,2.283-0.133,2.85-0.5l-0.6-0.3c0.466-0.533,1.483-0.783,3.05-0.75c0.867,0,2.05,0.05,3.55,0.15
	c0.633-0.033,1.7-0.066,3.2-0.1c1.333-0.067,2.35-0.267,3.05-0.6c-0.633-0.2-1.133-0.417-1.5-0.65c0.434-0.1,1-0.133,1.7-0.1
	c0.4,0,0.983,0.017,1.75,0.05l10.35,0.4c3.601,0,8.4,0.217,14.4,0.65c-0.033,0.6-0.1,0.983-0.2,1.15
	c1.267,0.066,2.95,0.267,5.05,0.6c2.4,0.399,4.084,0.633,5.051,0.7c-0.067,0.199-0.117,0.6-0.15,1.199c2,0.067,5.116,0.301,9.35,0.7
	v0.75c0.567,0.033,1.384,0.066,2.45,0.101c0.934,0.066,1.733,0.133,2.4,0.199c0.7,0.067,2.083,0.167,4.149,0.301
	c1.867,0.267,3.134,0.75,3.801,1.449c-0.4,0.2-0.95,0.301-1.65,0.301H89c0.2,0.1,0.6,0.133,1.2,0.1c0.566,0,0.967,0.083,1.2,0.25
	c-0.534,0.167-1.317,0.316-2.351,0.45c-1.133,0.166-1.916,0.3-2.35,0.399c-0.033,0.134-0.033,0.25,0,0.351
	c0.3,0.033,0.7,0.184,1.2,0.45c-0.267,0.166-0.733,0.25-1.4,0.25c-0.967,0-1.483,0-1.55,0c0.033,0.566-0.283,0.883-0.95,0.949
	c-0.667,0.034-0.983,0.301-0.95,0.801c-0.434,0.033-1.483,0.017-3.149-0.051c-1.334-0.066-2.367,0.017-3.101,0.25
	c-0.233,0.067-0.566,0.233-1,0.5c-0.399,0.2-0.75,0.334-1.05,0.4c-0.4,0.1-1,0.116-1.8,0.05c-0.867-0.066-1.467-0.083-1.8-0.05
	c-0.467,0.066-1,0.2-1.601,0.4C68.917,25.35,68.4,25.483,68,25.55c-0.566,0.101-1.167,0.05-1.8-0.149
	c-0.867-0.267-1.367-0.417-1.5-0.45c-1.033-0.2-2.4-0.25-4.101-0.15c-1.666,0.101-3.083,0.283-4.25,0.55
	c-0.333,0.101-0.916,0.301-1.75,0.601c-0.633,0.233-1.216,0.383-1.75,0.45c-3.066,0.267-5.066,0.199-6-0.2
	c0.233-0.334,0.801-0.601,1.7-0.8c-0.666-0.134-1.649-0.117-2.95,0.05c-1.567,0.2-2.583,0.3-3.05,0.3c-2.3,0-4.2-0.033-5.7-0.1
	c-2.8-0.101-4.283-0.4-4.45-0.9c-1.333,0.1-2.417,0.167-3.25,0.2c-1.6,0.033-2.45-0.233-2.55-0.8c-0.767-0.067-3-0.101-6.7-0.101
	c-2.733,0-4.95-0.2-6.65-0.6c0.6-0.101,0.933-0.15,1-0.15H10.6c-1.667,0-2.717-0.3-3.15-0.899C7.717,22.066,8.3,21.866,9.2,21.8
	c0.9-0.033,1.483-0.233,1.75-0.6c-0.2-0.2-0.467-0.584-0.8-1.15c-0.2-0.333-0.583-0.666-1.15-1l0.6-0.25
	c-0.967-0.066-2.567-0.066-4.8,0C2.7,18.866,1.1,18.833,0,18.7z"/>
<g>
	<path style="fill-rule:evenodd;clip-rule:evenodd;fill:#84663B;" d="M82.3,9.2v0.2C81.667,9.133,81.184,9,80.85,9
		C80.917,9.1,81,9.233,81.1,9.4C81.2,9.533,81.233,9.667,81.2,9.8c-0.4-0.066-0.634-0.1-0.7-0.1c0.2,0.267,0.35,0.533,0.45,0.8
		c-0.134,0.067-0.316,0.083-0.55,0.05c-0.334-0.066-0.517-0.1-0.551-0.1l-0.05,0.2L79,10.6l-0.05,0.65l-0.9-0.05L78,11.6l-0.55-0.15
		L77.4,11.8c-0.634-0.433-1.134-0.716-1.5-0.85l-0.051,0.2c-0.199-0.133-0.399-0.2-0.6-0.2c-0.233,0.167-0.384,0.25-0.45,0.25
		c-0.133,0-0.3-0.05-0.5-0.15c-0.233-0.133-0.399-0.2-0.5-0.2c0.167-0.533-0.017-0.767-0.55-0.7c0.1-0.3-0.033-0.45-0.4-0.45
		l0.25-0.5c-0.133-0.1-0.25-0.15-0.35-0.15L72.9,8.6l-0.2-0.1c0.333-0.167,0.533-0.3,0.6-0.4l-0.2-0.05
		c0.2-0.033,0.367-0.167,0.5-0.4H73.45l0.6-0.25l0.75,0.1l-0.2,0.2L74.7,7.8l-0.5,0.65c0.166,0,0.399-0.067,0.7-0.2L74.8,8.65
		l0.3-0.15c0.034,0.333,0.067,0.533,0.101,0.6c0.1,0.133,0.267,0.133,0.5,0c0.066,0.367,0.184,0.5,0.35,0.4l0.5-0.3l0.05,0.15
		l0.2-0.2l0.4,0.2l0.149-1L77.6,8.5c0.101-0.3,0.15-0.483,0.15-0.55c0.3,0.133,0.45-0.034,0.45-0.5h0.149C78.45,7.15,78.3,7,77.9,7
		c0.294-0.262,0.252-0.52-0.125-0.775C78.765,6.319,79.739,6.86,80.7,7.85c0.2,0.267,0.684,0.683,1.45,1.25
		C82.184,9.133,82.233,9.167,82.3,9.2z M56.4,11.9l0.6-0.25h0.85L57.65,11.9l0.1,0.1c-0.2,0.2-0.35,0.433-0.45,0.7l0.8-0.25
		l-0.05,0.4l0.351-0.2c0.066,0.333,0.133,0.55,0.199,0.65c0.134,0.1,0.351,0.067,0.65-0.1c0.1,0.367,0.25,0.483,0.45,0.35l0.6-0.35
		l0.05,0.15l0.25-0.25c0.301,0.1,0.467,0.167,0.5,0.2l0.051-1.1c0.066,0.066,0.183,0.117,0.35,0.15l0.05-0.6
		c0.4,0.067,0.55-0.133,0.45-0.6h0.25c0.033-0.333-0.184-0.467-0.65-0.4c0.367-0.367,0.267-0.65-0.3-0.85L60.35,10
		c1.567-0.367,3.217,0.05,4.95,1.25l0.9,0.55c0.399,0.2,0.883,0.434,1.45,0.7v0.2c-0.867-0.233-1.517-0.317-1.95-0.25
		c0.399,0.4,0.6,0.683,0.6,0.85c-0.5-0.066-0.816-0.083-0.95-0.05c0.434,0.367,0.684,0.617,0.75,0.75
		c-0.166,0.1-0.399,0.15-0.699,0.15c-0.334-0.034-0.584-0.051-0.75-0.051L64.6,14.35h-1l0.051,0.75H62.5
		c0.033,0.067,0.033,0.217,0,0.45l-0.7-0.1v0.35c-0.899-0.366-1.583-0.6-2.05-0.7v0.2c-0.5-0.1-0.767-0.149-0.8-0.149
		c-0.233,0.199-0.417,0.316-0.55,0.35c-0.067-0.033-0.134-0.05-0.2-0.05c-0.434-0.134-0.783-0.2-1.05-0.2
		c0.1-0.533-0.134-0.75-0.7-0.65c0-0.267-0.117-0.416-0.351-0.449c-0.066,0-0.149,0-0.25,0l0.25-0.55l-0.449-0.1
		c0.033-0.1,0.066-0.25,0.1-0.45l-0.25-0.1c0.134-0.067,0.267-0.133,0.4-0.2c0.1-0.1,0.183-0.183,0.25-0.25l-0.25-0.05
		c0.199-0.067,0.366-0.217,0.5-0.45l-0.2-0.05L56.4,11.9z M57,11.6v-0.05c0.225-0.1,0.441-0.2,0.65-0.3
		C57.442,11.358,57.226,11.475,57,11.6z M49,5.55l0.15-0.05l0.6-0.2h0.8l-0.2,0.2l0.15,0.1c-0.2,0.133-0.35,0.316-0.45,0.55
		l0.75-0.2l-0.05,0.3L51.1,6.1c0.067,0.267,0.134,0.433,0.2,0.5c0.101,0.1,0.283,0.083,0.55-0.05c0.134,0.3,0.284,0.4,0.45,0.3
		c0.134-0.067,0.316-0.167,0.55-0.3l0.101,0.1l0.2-0.2c0.1,0.033,0.267,0.083,0.5,0.15V5.75L54,5.85l0.05-0.45
		c0.367,0.067,0.517-0.1,0.45-0.5h0.2c0.066-0.233-0.134-0.35-0.601-0.35c0.4-0.3,0.301-0.517-0.3-0.65L52.9,4
		c1.533-0.333,3.083,0,4.649,1c0.434,0.233,1.184,0.55,2.25,0.95v0.2c-0.833-0.2-1.45-0.267-1.85-0.2c0.399,0.333,0.6,0.55,0.6,0.65
		H57.65c0.366,0.233,0.583,0.433,0.649,0.6c-0.133,0.066-0.35,0.1-0.649,0.1c-0.4,0-0.634,0-0.7,0v0.15H56l0.05,0.6h-1.1
		c0.033,0.067,0.033,0.2,0,0.4l-0.7-0.1v0.3c-0.833-0.3-1.467-0.5-1.9-0.6v0.2C51.95,8.15,51.7,8.1,51.6,8.1
		c-0.233,0.167-0.399,0.25-0.5,0.25C50.6,8.25,50.2,8.2,49.9,8.2c0.1-0.434-0.117-0.617-0.65-0.55c0.066-0.3-0.116-0.417-0.55-0.35
		c0.066-0.066,0.133-0.216,0.2-0.45L48.5,6.8c0.033-0.066,0.066-0.2,0.1-0.4l-0.25-0.05c0.334-0.167,0.551-0.3,0.65-0.4h-0.25
		c0.2-0.067,0.35-0.2,0.45-0.4H49z M29.2,7.15c-0.7-0.233-0.833-0.75-0.4-1.55c0.034-0.067,0.067-0.133,0.1-0.2
		c1.033-0.967,1.567-1.45,1.6-1.45c0.167-0.167,0.433-0.333,0.8-0.5l0.85-0.4c0.267-0.167,0.434-0.283,0.5-0.35
		c0.333-0.167,0.717-0.434,1.15-0.8c0,0.1,0.017,0.217,0.05,0.35c0.133,0,0.417-0.017,0.85-0.05c0.367-0.067,0.55-0.2,0.55-0.4h-0.3
		c0.033-0.133,0.183-0.267,0.45-0.4c0.2-0.133,0.317-0.283,0.35-0.45c-0.167,0.066-0.35,0.066-0.55,0l0.05-0.1l-0.5,0.05
		c0.3-0.167,0.45-0.367,0.45-0.6c-0.7,0.267-2,1.133-3.9,2.6c1.7-1.367,3.017-2.25,3.95-2.65c0.333-0.103,0.667-0.177,1-0.225
		c-0.3,0.05-0.6,0.125-0.9,0.225c0.1,0.033,0.333,0.033,0.7,0s0.6-0.017,0.7,0.05c0.167,0.067,0.233,0.15,0.2,0.25
		C36.917,0.683,36.933,0.8,37,0.9c0.067,0.167,0.283,0.3,0.65,0.4c0.167,0.133,0.233,0.25,0.2,0.35c-0.1,0.1-0.184,0.2-0.25,0.3
		C37.567,1.983,37.517,2,37.45,2c-0.067,0-0.117,0.05-0.15,0.15c-0.033,0.067,0.017,0.25,0.15,0.55
		c-0.034,0.233-0.217,0.383-0.55,0.45c-0.467,0.067-0.75,0.133-0.85,0.2c-0.1,0.1-0.2,0.117-0.3,0.05
		c-0.167-0.1-0.317-0.133-0.45-0.1c-0.566,0.267-0.966,0.417-1.2,0.45c-0.267,0.067-0.55,0.183-0.85,0.35
		c-0.367,0.2-0.65,0.333-0.85,0.4c-0.533,0.133-1.2,0.433-2,0.9c-1.066,0.567-1.617,1.05-1.65,1.45L29,7.05L29.2,7.15z M12.85,8.75
		c-0.167-0.233-0.1-0.567,0.2-1c0.034-0.067,0.083-0.15,0.15-0.25l1.3-0.9c0.3-0.167,0.783-0.367,1.45-0.6
		c0.233-0.1,0.367-0.167,0.4-0.2l1.05-0.5v0.25c0.1,0,0.317,0.017,0.65,0.05c0.3-0.033,0.467-0.117,0.5-0.25L18.3,5.3
		c0.034-0.1,0.167-0.2,0.4-0.3c0.2-0.067,0.316-0.167,0.35-0.3L18.6,4.65l0.05-0.1H18.2c0.267-0.133,0.417-0.283,0.45-0.45h0.05
		c0.566-0.133,1.15-0.133,1.75,0c-0.567-0.1-1.133-0.1-1.7,0c0.167,0.066,0.55,0.117,1.15,0.15c0.233,0.167,0.283,0.35,0.15,0.55
		c0.034,0.133,0.184,0.25,0.45,0.35c0.133,0.133,0.183,0.233,0.15,0.3L20.4,5.7c-0.1-0.067-0.183-0.034-0.25,0.1
		c0.067,0.233,0.083,0.4,0.05,0.5c-0.034,0.2-0.184,0.3-0.45,0.3c-0.367,0-0.6,0.017-0.7,0.05c-0.066,0.067-0.15,0.067-0.25,0
		c-0.133-0.066-0.267-0.1-0.4-0.1c-0.467,0.167-0.783,0.25-0.95,0.25C17.217,6.833,16.967,6.9,16.7,7
		c-0.367,0.133-0.6,0.217-0.7,0.25c-0.433,0.033-1,0.183-1.7,0.45C13.4,8.067,12.917,8.417,12.85,8.75z M6.15,11.45l0.6-0.2h0.8
		l-0.2,0.2L7.5,11.5c-0.2,0.133-0.35,0.317-0.45,0.55c0.167,0,0.417-0.066,0.75-0.2l-0.05,0.3L8.1,12
		c0.066,0.267,0.133,0.433,0.2,0.5c0.1,0.1,0.284,0.083,0.55-0.05c0.133,0.267,0.283,0.367,0.45,0.3
		c0.133-0.067,0.317-0.167,0.55-0.3l0.1,0.15c0.1-0.033,0.167-0.1,0.2-0.2c0.233,0,0.4,0.033,0.5,0.1v-0.8L11,11.8l0.05-0.45
		c0.367,0.066,0.517-0.083,0.45-0.45l0.2-0.05c0.1-0.267-0.1-0.367-0.6-0.3c0.4-0.3,0.3-0.517-0.3-0.65
		c1.197-0.044,2.447,0.306,3.75,1.05L14.6,11l0.35,0.15c0.078,0.037,0.161,0.078,0.25,0.125l0.7,0.275
		c0.273,0.111,0.573,0.228,0.9,0.35v0.15c-0.833-0.167-1.45-0.233-1.85-0.2c0.1,0.1,0.233,0.2,0.4,0.3c0.133,0.1,0.2,0.217,0.2,0.35
		h-0.9c0.367,0.233,0.583,0.433,0.65,0.6c-0.066,0.033-0.517,0.05-1.35,0.05v0.2H13l0.05,0.55h-1.1c0.033,0.067,0.033,0.2,0,0.4
		l-0.7-0.1v0.3c-0.833-0.3-1.467-0.5-1.9-0.6v0.2C8.95,14,8.7,13.95,8.6,13.95c-0.233,0.166-0.4,0.25-0.5,0.25
		c-0.5-0.101-0.9-0.15-1.2-0.15c0.1-0.433-0.117-0.617-0.65-0.55c0.067-0.267-0.117-0.367-0.55-0.3
		c0.066-0.067,0.133-0.217,0.2-0.45L5.5,12.7c0.033-0.067,0.067-0.2,0.1-0.4l-0.25-0.05L6,11.9l-0.25-0.05
		c0.233-0.067,0.383-0.184,0.45-0.35H6L6.15,11.45z"/>
	<path style="fill-rule:evenodd;clip-rule:evenodd;fill:#574327;" d="M77.9,13.95c-0.067-0.034-0.117-0.034-0.15,0L77.3,13.9
		c-0.133,0-0.267,0-0.399,0l-1.25-0.15l-0.101-0.025c-0.121-0.024-0.222-0.049-0.3-0.075c-0.033,0-0.066,0-0.1,0
		c-0.141-0.035-0.274-0.068-0.4-0.1l-2.35-1H72.35c0-0.033-0.017-0.05-0.05-0.05s-0.05-0.017-0.05-0.05
		c-0.866-0.6-1.45-1.3-1.75-2.1c-0.2-0.4-0.25-0.75-0.15-1.05c0.048-0.167,0.148-0.317,0.301-0.45L70.55,9.3l0.101,0.05V9.8
		c0.199,0.067,0.316,0.35,0.35,0.85c0.066,0.1,0.233,0.283,0.5,0.55c0.267,0.233,0.866,0.583,1.8,1.05
		c0.733,0.333,1.983,0.533,3.75,0.6c0.101-0.2,0.334-0.267,0.7-0.2c0.267,0.033,0.517,0.1,0.75,0.2c0.033-0.2,0.134-0.3,0.3-0.3
		c0.101,0,0.25,0.017,0.45,0.05c0.3,0.033,0.583-0.033,0.85-0.2c0.067-0.066,0.134-0.167,0.2-0.3c0.101-0.033,0.267-0.017,0.5,0.05
		c0.3-0.033,0.45-0.25,0.45-0.65h0.15c0.066-0.1,0.166-0.167,0.3-0.2c0.033-0.033,0.1-0.216,0.2-0.55
		c0.033-0.167,0.05-0.283,0.05-0.35c0-0.066,0.066-0.117,0.2-0.15c0.133-0.033,0.35-0.017,0.649,0.05l-0.05-0.2
		c0.218,0.031,0.435,0.031,0.65,0h0.05c0,0.031,0.017,0.064,0.05,0.1c0.3,0.267,0.483,0.5,0.55,0.7c0.2,0.6-0.383,1.25-1.75,1.95
		c-0.467,0.267-0.95,0.483-1.45,0.65c-0.1,0-0.183,0.017-0.25,0.05c-0.066,0-0.133,0.017-0.199,0.05
		c-0.034,0-0.067,0.017-0.101,0.05C79.533,13.817,78.733,13.917,77.9,13.95z M55.15,10.4c-0.233,0-0.45,0-0.65,0
		c-0.134,0-0.267,0-0.4,0l-1.85-0.05c-0.1,0-0.184,0-0.25,0c-0.149-0.012-0.3-0.029-0.45-0.05L49.2,9.9H49.1
		C48.2,9.633,47.467,9.267,46.9,8.8H46.85c0-0.033-0.017-0.05-0.05-0.05l-0.1-0.1h-0.05V8.6L46.6,8.55
		c-0.033-0.033-0.066-0.066-0.1-0.1c-0.033,0-0.05-0.017-0.05-0.05c-0.033,0-0.05-0.017-0.05-0.05H46.35V8.3H46.3V8.25L46.25,8.2
		c0-0.034-0.017-0.05-0.05-0.05V8.1h-0.05V8.05c-0.4-0.466-0.45-0.867-0.15-1.2c0.033,0,0.066-0.017,0.1-0.05
		c-0.033,0.133-0.033,0.267,0,0.4H46.2c0.033,0.2,0.033,0.333,0,0.4c0.166,0.033,0.283,0.117,0.35,0.25l0.2,0.4
		c0.033,0.033,0.25,0.167,0.65,0.4c0.666,0.3,1.399,0.533,2.199,0.7c1.067,0.267,2.534,0.333,4.4,0.2
		c0.1-0.233,0.684-0.283,1.75-0.15c0.033-0.167,0.15-0.25,0.35-0.25c0.101,0,0.284,0,0.551,0c0.366,0,0.666-0.083,0.899-0.25
		c0.101-0.033,0.184-0.117,0.25-0.25c0.101-0.066,0.3-0.066,0.601,0c0.233-0.066,0.366-0.117,0.399-0.15
		c0.066-0.1,0.084-0.25,0.05-0.45h0.2c0.066-0.1,0.184-0.167,0.351-0.2l0.1-0.5c0.033-0.167,0.05-0.267,0.05-0.3
		c0.033-0.066,0.117-0.133,0.25-0.2c0.134-0.033,0.384-0.033,0.75,0L60.5,6.7c0.267,0.033,0.566,0,0.9-0.1
		c0.066,0.033,0.116,0.066,0.149,0.1c0.367,0.2,0.617,0.383,0.75,0.55c0.334,0.5-0.283,1.117-1.85,1.85
		C58.884,9.867,57.116,10.3,55.15,10.4z M62.75,18c-0.033,0-0.066,0-0.1,0L62,18.05c-0.066,0-0.116,0-0.15,0c-0.1,0-0.199,0-0.3,0
		L59.5,18c-0.066-0.002-0.116-0.019-0.15-0.05c-0.033,0-0.066,0-0.1,0c-1.4-0.134-2.6-0.434-3.6-0.9c-0.7-0.3-1.284-0.649-1.75-1.05
		c-0.034-0.033-0.067-0.066-0.101-0.1c-0.066-0.067-0.133-0.134-0.2-0.2c-0.133-0.134-0.233-0.267-0.3-0.4
		c-0.066-0.066-0.116-0.133-0.149-0.2L53,14.9c-0.3-0.601-0.267-1.05,0.1-1.351c-0.033,0.167-0.033,0.317,0,0.45l0.101,0.05
		l0.05,0.45c0.233,0.066,0.4,0.316,0.5,0.75l0.05,0.05c0.033,0.066,0.134,0.167,0.3,0.3c0.067,0.034,0.15,0.084,0.25,0.15
		c0.034,0,0.084,0.017,0.15,0.05c0.1,0.066,0.217,0.134,0.35,0.2c0.567,0.267,1.217,0.5,1.95,0.7c1.033,0.3,2.601,0.383,4.7,0.25
		c0.134-0.334,0.75-0.384,1.85-0.15c0.034-0.2,0.15-0.316,0.351-0.35c0.133,0,0.333,0,0.6,0c0.4,0,0.733-0.101,1-0.3
		c0.033-0.034,0.05-0.084,0.05-0.15s0.051-0.134,0.15-0.2c0.134-0.033,0.35-0.033,0.65,0c0.366-0.1,0.533-0.333,0.5-0.7l0.199-0.05
		c0.067-0.133,0.184-0.217,0.351-0.25c0.133-0.133,0.184-0.333,0.149-0.6c0.034-0.2,0.051-0.333,0.051-0.4
		c0-0.033,0.083-0.1,0.25-0.2h0.8l-0.05-0.2c0.267,0.033,0.583,0,0.949-0.1c0.301,0.167,0.534,0.35,0.7,0.55
		c0.101,0.1,0.184,0.183,0.25,0.25c0.367,0.601-0.283,1.367-1.95,2.301c-0.333,0.166-0.666,0.333-1,0.5
		c-0.066,0.033-0.133,0.066-0.199,0.1c-0.067,0-0.117,0.017-0.15,0.05c-0.1,0.033-0.2,0.066-0.3,0.101
		c-0.2,0.066-0.384,0.133-0.55,0.199c-0.034,0-0.084,0.017-0.15,0.051c-0.033,0-0.066,0.017-0.1,0.05
		C64.9,17.717,63.85,17.9,62.75,18z M40.7,1.1c3.066,1.833,4.483,3.2,4.25,4.1c-0.133,0.6-0.85,1.066-2.15,1.4
		c-0.8,0.2-2.417,0.433-4.85,0.7L37.9,6.8c0.567-0.033,1.267-0.1,2.1-0.2c1.333-0.133,2.2-0.267,2.6-0.4
		c0.5-0.167,0.767-0.3,0.8-0.4c0.033-0.1-0.15-0.216-0.55-0.35c-0.533-0.2-1.283-0.4-2.25-0.6c-1.233-0.233-2.184-0.333-2.85-0.3
		c-0.867,0-1.85,0.1-2.95,0.3c-1.1,0.167-1.917,0.367-2.45,0.6C31.783,5.683,31.2,5.967,30.6,6.3
		c-0.633,0.367-0.883,0.583-0.75,0.65c0.3,0.1,0.933,0.183,1.9,0.25c1.167,0.066,2.35,0.033,3.55-0.1l0.1,0.5
		c-2.767,0.233-4.833,0.083-6.2-0.45L29,7.05c0.033-0.167,0.133-0.333,0.3-0.5l1.35-0.75c0.3-0.133,0.717-0.383,1.25-0.75
		c0.5-0.3,0.95-0.5,1.35-0.6c0.7-0.2,1.433-0.35,2.2-0.45c0.466-0.067,1.2-0.117,2.2-0.15c0.067-0.033,0.217-0.133,0.45-0.3
		c0.2-0.1,0.4-0.167,0.6-0.2l0.55-0.05c0.067,0,0.133-0.05,0.2-0.15c0.2-0.033,0.566-0.05,1.1-0.05V2.5c0.333,0,0.517,0,0.55,0
		c0.167-0.033,0.233-0.167,0.2-0.4c-0.033-0.167-0.15-0.283-0.35-0.35c-0.3-0.133-0.467-0.217-0.5-0.25l-0.6-0.75L39.6,0.5L40.7,1.1
		z M18.05,9.6L18.1,10c-2.3-0.1-3.934-0.433-4.9-1c-0.067,0-0.117-0.017-0.15-0.05c0.067-0.2,0.167-0.333,0.3-0.4
		c0.066-0.033,0.45-0.183,1.15-0.45c0.233-0.1,0.583-0.267,1.05-0.5c0.4-0.2,0.767-0.317,1.1-0.35L18.5,7.1
		c0.133,0,0.433,0.033,0.9,0.1c0.367,0.033,0.65,0.033,0.85,0c0.1,0,0.233-0.05,0.4-0.15c0.167-0.1,0.333-0.15,0.5-0.15l0.45,0.05
		l0.15-0.15l0.9,0.1l0.1-0.5l0.4,0.05c0.133,0,0.2-0.1,0.2-0.3c0-0.133-0.067-0.25-0.2-0.35c-0.233-0.1-0.367-0.167-0.4-0.2
		l-0.4-0.65L22.3,4.9l-0.15-0.15L23,5.3c2.233,1.8,3.233,3.034,3,3.7c-0.167,0.5-0.8,0.817-1.9,0.95
		c-0.633,0.066-1.934,0.083-3.9,0.05l-0.05-0.35c0.5,0,1.083,0,1.75,0c1.067,0.033,1.767,0.017,2.1-0.05
		c0.4-0.1,0.617-0.184,0.65-0.25C24.683,9.283,24.567,9.167,24.3,9c-1.667-0.767-3-1.183-4-1.25c-1.9-0.2-3.367-0.117-4.4,0.25
		c-0.5,0.1-1,0.25-1.5,0.45c-0.566,0.233-0.8,0.383-0.7,0.45c0.2,0.133,0.7,0.267,1.5,0.4C16.133,9.467,17.083,9.567,18.05,9.6z
		 M18.4,12.55c0.034,0.017,0.067,0.034,0.1,0.05c0.4,0.2,0.667,0.383,0.8,0.55c0.333,0.467-0.283,1.05-1.85,1.75
		c-0.067,0.033-0.133,0.066-0.2,0.1c-0.167,0.066-0.35,0.134-0.55,0.2c-1.367,0.533-2.883,0.866-4.55,1c-0.233,0-0.45,0-0.65,0
		c-0.9,0.033-1.733,0.017-2.5-0.05H8.95c-1.367-0.101-2.534-0.334-3.5-0.7c-1.067-0.434-1.833-0.95-2.3-1.55
		C2.75,13.467,2.7,13.1,3,12.8c0.033-0.033,0.067-0.066,0.1-0.1c-0.033,0.133-0.033,0.267,0,0.4h0.1c0.033,0.167,0.033,0.283,0,0.35
		c0.167,0.033,0.283,0.117,0.35,0.25l0.2,0.399c0.1,0.101,0.317,0.217,0.65,0.351c0.5,0.267,1.233,0.5,2.2,0.7
		c1.066,0.267,2.533,0.333,4.4,0.199c0.067-0.166,0.333-0.233,0.8-0.199c0.333,0,0.65,0.033,0.95,0.1C12.783,15.083,12.9,15,13.1,15
		c0.1-0.033,0.283-0.033,0.55,0c0.333-0.033,0.633-0.116,0.9-0.25c0.034-0.033,0.067-0.083,0.1-0.15c0-0.066,0.05-0.116,0.15-0.149
		c0.1-0.033,0.3-0.017,0.6,0.05c0.367-0.1,0.517-0.3,0.45-0.6h0.2c0.067-0.1,0.184-0.167,0.35-0.2c0.1-0.133,0.133-0.284,0.1-0.45
		c0.033-0.167,0.05-0.267,0.05-0.3c0.034-0.067,0.117-0.133,0.25-0.2h0.75L17.5,12.6C17.7,12.633,18,12.617,18.4,12.55z"/>
	<path style="fill-rule:evenodd;clip-rule:evenodd;fill:#715833;" d="M74,7.4h0.05l-0.6,0.25H73.6c-0.133,0.233-0.3,0.367-0.5,0.4
		l0.2,0.05c-0.066,0.1-0.267,0.233-0.6,0.4l0.2,0.1l-0.15,0.45c0.1,0,0.217,0.05,0.35,0.15l-0.25,0.5c0.367,0,0.5,0.15,0.4,0.45
		c0.533-0.066,0.717,0.167,0.55,0.7c0.101,0,0.267,0.066,0.5,0.2c0.2,0.1,0.367,0.15,0.5,0.15c0.066,0,0.217-0.083,0.45-0.25
		c0.2,0,0.4,0.066,0.6,0.2l0.051-0.2c0.366,0.133,0.866,0.417,1.5,0.85l0.05-0.35L78,11.6l0.05-0.4l0.9,0.05L79,10.6l0.8,0.05
		l0.05-0.2c0.034,0,0.217,0.033,0.551,0.1c0.233,0.034,0.416,0.017,0.55-0.05c-0.101-0.267-0.25-0.533-0.45-0.8
		c0.066,0,0.3,0.033,0.7,0.1c0.033-0.133,0-0.267-0.101-0.4C81,9.233,80.917,9.1,80.85,9c0.334,0,0.817,0.133,1.45,0.4V9.2
		c0.101,0.1,0.217,0.183,0.351,0.25c0.289,0.231,0.539,0.448,0.75,0.65c-0.216,0.031-0.433,0.031-0.65,0l0.05,0.2
		c-0.3-0.066-0.517-0.083-0.649-0.05c-0.134,0.033-0.2,0.083-0.2,0.15c0,0.067-0.017,0.184-0.05,0.35
		c-0.101,0.333-0.167,0.517-0.2,0.55c-0.134,0.034-0.233,0.1-0.3,0.2h-0.15c0,0.4-0.15,0.617-0.45,0.65
		c-0.233-0.066-0.399-0.083-0.5-0.05c-0.066,0.133-0.133,0.233-0.2,0.3c-0.267,0.167-0.55,0.233-0.85,0.2
		c-0.2-0.033-0.35-0.05-0.45-0.05c-0.166,0-0.267,0.1-0.3,0.3c-0.233-0.1-0.483-0.167-0.75-0.2c-0.366-0.066-0.6,0-0.7,0.2
		c-1.767-0.067-3.017-0.267-3.75-0.6c-0.934-0.467-1.533-0.817-1.8-1.05c-0.267-0.267-0.434-0.45-0.5-0.55
		c-0.033-0.5-0.15-0.783-0.35-0.85V9.35L70.55,9.3l0.101-0.45c0.058-0.053,0.125-0.103,0.199-0.15c0.4-0.233,1.301-0.6,2.7-1.1
		C73.684,7.533,73.833,7.467,74,7.4z M46,6.85c0.066-0.067,0.167-0.133,0.3-0.2c0.367-0.2,1.267-0.566,2.7-1.1h0.2
		c-0.101,0.2-0.25,0.333-0.45,0.4H49c-0.1,0.1-0.316,0.233-0.65,0.4L48.6,6.4c-0.033,0.2-0.066,0.333-0.1,0.4l0.4,0.05
		c-0.067,0.233-0.134,0.383-0.2,0.45c0.434-0.066,0.616,0.05,0.55,0.35C49.783,7.583,50,7.767,49.9,8.2c0.3,0,0.699,0.05,1.199,0.15
		c0.101,0,0.267-0.083,0.5-0.25c0.101,0,0.351,0.05,0.75,0.15v-0.2c0.434,0.1,1.067,0.3,1.9,0.6v-0.3l0.7,0.1
		c0.033-0.2,0.033-0.333,0-0.4h1.1L56,7.45h0.95V7.3c0.066,0,0.3,0,0.7,0c0.3,0,0.517-0.033,0.649-0.1
		c-0.066-0.167-0.283-0.367-0.649-0.6h0.899c0-0.1-0.2-0.317-0.6-0.65c0.399-0.067,1.017,0,1.85,0.2v-0.2
		c0.134,0.066,0.3,0.133,0.5,0.2c0.434,0.167,0.8,0.317,1.101,0.45c-0.334,0.1-0.634,0.133-0.9,0.1l0.05,0.15
		c-0.366-0.033-0.616-0.033-0.75,0c-0.133,0.066-0.217,0.133-0.25,0.2c0,0.034-0.017,0.133-0.05,0.3l-0.1,0.5
		c-0.167,0.033-0.284,0.1-0.351,0.2h-0.2c0.034,0.2,0.017,0.35-0.05,0.45c-0.033,0.033-0.166,0.083-0.399,0.15
		c-0.301-0.066-0.5-0.066-0.601,0c-0.066,0.133-0.149,0.217-0.25,0.25c-0.233,0.167-0.533,0.25-0.899,0.25c-0.267,0-0.45,0-0.551,0
		c-0.199,0-0.316,0.083-0.35,0.25C54.684,9.267,54.1,9.317,54,9.55c-1.866,0.133-3.333,0.067-4.4-0.2
		c-0.8-0.167-1.533-0.4-2.199-0.7c-0.4-0.233-0.617-0.367-0.65-0.4l-0.2-0.4c-0.066-0.133-0.184-0.217-0.35-0.25
		c0.033-0.067,0.033-0.2,0-0.4H46.1c-0.033-0.133-0.033-0.267,0-0.4C46.066,6.833,46.033,6.85,46,6.85z M51.9,10.35
		c-0.101,0-0.217-0.017-0.351-0.05c0.15,0.021,0.301,0.039,0.45,0.05C51.967,10.35,51.934,10.35,51.9,10.35z M57,11.65l-0.6,0.25
		c0.133-0.1,0.283-0.183,0.449-0.25H57z M55.2,12.4c0.166-0.1,0.366-0.183,0.6-0.25c0.134-0.066,0.267-0.133,0.4-0.2L56.4,12
		c-0.134,0.233-0.301,0.383-0.5,0.45l0.25,0.05c-0.067,0.067-0.15,0.15-0.25,0.25c-0.134,0.067-0.267,0.133-0.4,0.2l0.25,0.1
		c-0.033,0.2-0.066,0.35-0.1,0.45l0.449,0.1l-0.25,0.55c0.101,0,0.184,0,0.25,0c0.233,0.033,0.351,0.183,0.351,0.449
		c0.566-0.1,0.8,0.117,0.7,0.65c0.267,0,0.616,0.066,1.05,0.2c0.066,0,0.133,0.017,0.2,0.05c0.133-0.033,0.316-0.15,0.55-0.35
		c0.033,0,0.3,0.05,0.8,0.149v-0.2c0.467,0.101,1.15,0.334,2.05,0.7v-0.35l0.7,0.1c0.033-0.233,0.033-0.383,0-0.45h1.15L63.6,14.35
		h1l0.051-0.25c0.166,0,0.416,0.017,0.75,0.051c0.3,0,0.533-0.051,0.699-0.15c-0.066-0.133-0.316-0.383-0.75-0.75
		c0.134-0.033,0.45-0.017,0.95,0.05c0-0.167-0.2-0.45-0.6-0.85c0.434-0.067,1.083,0.017,1.95,0.25v-0.2
		c-0.567-0.267-1.051-0.5-1.45-0.7c0.5,0.233,1.149,0.534,1.95,0.9c0.466,0.2,0.866,0.4,1.199,0.6c-0.366,0.1-0.683,0.133-0.949,0.1
		l0.05,0.2h-0.8c-0.167,0.1-0.25,0.167-0.25,0.2c0,0.067-0.017,0.2-0.051,0.4c0.034,0.267-0.017,0.467-0.149,0.6
		c-0.167,0.033-0.283,0.117-0.351,0.25L66.65,15.1c0.033,0.367-0.134,0.601-0.5,0.7c-0.301-0.033-0.517-0.033-0.65,0
		c-0.1,0.066-0.15,0.134-0.15,0.2s-0.017,0.116-0.05,0.15c-0.267,0.199-0.6,0.3-1,0.3c-0.267,0-0.467,0-0.6,0
		c-0.2,0.033-0.316,0.149-0.351,0.35c-1.1-0.233-1.716-0.184-1.85,0.15c-2.1,0.133-3.667,0.05-4.7-0.25
		c-0.733-0.2-1.383-0.434-1.95-0.7c-0.133-0.066-0.25-0.134-0.35-0.2c-0.066-0.033-0.116-0.05-0.15-0.05
		c-0.1-0.066-0.183-0.116-0.25-0.15c-0.166-0.133-0.267-0.233-0.3-0.3l-0.05-0.05c-0.1-0.434-0.267-0.684-0.5-0.75l-0.05-0.45
		L53.1,14c-0.033-0.133-0.033-0.283,0-0.45c0.067-0.066,0.15-0.133,0.25-0.2c0.167-0.133,0.5-0.317,1-0.55
		C54.583,12.667,54.866,12.533,55.2,12.4z M59.5,18c-0.036,0-0.069,0-0.1,0l-0.051-0.05C59.384,17.981,59.434,17.998,59.5,18z
		 M49.15,5.5c0.166-0.067,0.316-0.133,0.449-0.2h0.15L49.15,5.5z M29,7.05l-0.25-0.2c0.033-0.4,0.583-0.883,1.65-1.45
		c0.8-0.467,1.467-0.767,2-0.9c0.2-0.067,0.483-0.2,0.85-0.4c0.3-0.167,0.583-0.283,0.85-0.35c0.233-0.033,0.633-0.183,1.2-0.45
		c0.133-0.033,0.284,0,0.45,0.1c0.1,0.067,0.2,0.05,0.3-0.05c0.1-0.067,0.383-0.133,0.85-0.2c0.333-0.066,0.517-0.217,0.55-0.45
		c-0.133-0.3-0.184-0.483-0.15-0.55C37.333,2.05,37.383,2,37.45,2c0.066,0,0.117-0.017,0.15-0.05c0.066-0.1,0.15-0.2,0.25-0.3
		c0.033-0.1-0.033-0.217-0.2-0.35C37.283,1.2,37.067,1.067,37,0.9c-0.067-0.1-0.083-0.217-0.05-0.35c0.033-0.1-0.034-0.183-0.2-0.25
		c-0.1-0.066-0.333-0.083-0.7-0.05s-0.6,0.033-0.7,0c0.3-0.1,0.6-0.175,0.9-0.225L36.55,0h1.05c0.2,0.033,0.417,0.067,0.65,0.1
		c0.067,0.033,0.133,0.05,0.2,0.05c0.867,0.167,1.617,0.483,2.25,0.95l-1.1-0.6l0.25,0.25l0.6,0.75c0.033,0.033,0.2,0.117,0.5,0.25
		c0.2,0.067,0.316,0.183,0.35,0.35c0.034,0.233-0.033,0.367-0.2,0.4c-0.033,0-0.217,0-0.55,0v0.6c-0.533,0-0.9,0.017-1.1,0.05
		c-0.067,0.1-0.133,0.15-0.2,0.15L38.7,3.35c-0.2,0.033-0.4,0.1-0.6,0.2c-0.233,0.167-0.383,0.267-0.45,0.3
		c-1,0.033-1.733,0.083-2.2,0.15c-0.767,0.1-1.5,0.25-2.2,0.45c-0.4,0.1-0.85,0.3-1.35,0.6c-0.533,0.367-0.95,0.617-1.25,0.75
		L29.3,6.55C29.133,6.717,29.033,6.883,29,7.05z M22.3,4.9l0.05,0.05l0.4,0.65c0.033,0.033,0.167,0.1,0.4,0.2
		c0.133,0.1,0.2,0.217,0.2,0.35c0,0.2-0.067,0.3-0.2,0.3l-0.4-0.05l-0.1,0.5l-0.9-0.1L21.6,6.95L21.15,6.9
		c-0.167,0-0.333,0.05-0.5,0.15c-0.167,0.1-0.3,0.15-0.4,0.15c-0.2,0.033-0.483,0.033-0.85,0c-0.467-0.067-0.767-0.1-0.9-0.1
		l-1.85,0.15c-0.333,0.033-0.7,0.15-1.1,0.35C15.083,7.833,14.733,8,14.5,8.1c-0.7,0.267-1.083,0.417-1.15,0.45
		c-0.133,0.067-0.233,0.2-0.3,0.4c-0.1-0.034-0.167-0.1-0.2-0.2c0.066-0.333,0.55-0.683,1.45-1.05C15,7.433,15.567,7.283,16,7.25
		c0.1-0.033,0.333-0.117,0.7-0.25c0.267-0.1,0.517-0.167,0.75-0.2c0.167,0,0.483-0.083,0.95-0.25c0.133,0,0.267,0.034,0.4,0.1
		c0.1,0.067,0.184,0.067,0.25,0c0.1-0.033,0.333-0.05,0.7-0.05c0.267,0,0.417-0.1,0.45-0.3c0.033-0.1,0.017-0.267-0.05-0.5
		c0.067-0.133,0.15-0.167,0.25-0.1l0.25-0.25c0.033-0.067-0.017-0.167-0.15-0.3c-0.267-0.1-0.417-0.217-0.45-0.35
		c0.133-0.2,0.083-0.383-0.15-0.55c-0.6-0.033-0.983-0.083-1.15-0.15c0.567-0.1,1.133-0.1,1.7,0L21,4.25c0.033,0,0.067,0,0.1,0
		c0.033,0.033,0.083,0.05,0.15,0.05L22.3,4.9z M17.8,12.3c0.223,0.084,0.423,0.167,0.6,0.25c-0.4,0.067-0.7,0.083-0.9,0.05
		l0.05,0.15H16.8c-0.133,0.067-0.216,0.133-0.25,0.2c0,0.033-0.017,0.133-0.05,0.3c0.033,0.167,0,0.317-0.1,0.45
		c-0.167,0.033-0.283,0.1-0.35,0.2h-0.2c0.066,0.3-0.083,0.5-0.45,0.6c-0.3-0.066-0.5-0.083-0.6-0.05
		c-0.1,0.033-0.15,0.083-0.15,0.149c-0.033,0.067-0.066,0.117-0.1,0.15c-0.267,0.134-0.566,0.217-0.9,0.25
		c-0.267-0.033-0.45-0.033-0.55,0c-0.2,0-0.317,0.083-0.35,0.25c-0.3-0.066-0.617-0.1-0.95-0.1c-0.466-0.034-0.733,0.033-0.8,0.199
		c-1.867,0.134-3.333,0.067-4.4-0.199c-0.967-0.2-1.7-0.434-2.2-0.7C4.067,14.316,3.85,14.2,3.75,14.1L3.55,13.7
		c-0.066-0.133-0.183-0.217-0.35-0.25c0.033-0.067,0.033-0.184,0-0.35H3.1c-0.033-0.133-0.033-0.267,0-0.4
		c-0.033,0.033-0.067,0.066-0.1,0.1c0.067-0.1,0.167-0.183,0.3-0.25C3.667,12.35,4.567,12,6,11.5h0.2
		c-0.067,0.167-0.217,0.283-0.45,0.35L6,11.9l-0.65,0.35L5.6,12.3c-0.033,0.2-0.067,0.333-0.1,0.4l0.4,0.05
		c-0.066,0.233-0.133,0.383-0.2,0.45c0.433-0.067,0.617,0.033,0.55,0.3C6.783,13.433,7,13.617,6.9,14.05c0.3,0,0.7,0.05,1.2,0.15
		c0.1,0,0.267-0.084,0.5-0.25c0.1,0,0.35,0.05,0.75,0.149v-0.2c0.433,0.1,1.066,0.3,1.9,0.6v-0.3l0.7,0.1
		c0.033-0.2,0.033-0.333,0-0.4h1.1L13,13.35h0.95v-0.2c0.833,0,1.283-0.017,1.35-0.05c-0.066-0.167-0.283-0.367-0.65-0.6h0.9
		c0-0.133-0.066-0.25-0.2-0.35c-0.167-0.1-0.3-0.2-0.4-0.3c0.4-0.033,1.017,0.033,1.85,0.2V11.9c-0.327-0.123-0.627-0.239-0.9-0.35
		c0.4,0.15,0.867,0.317,1.4,0.5C17.467,12.117,17.633,12.2,17.8,12.3z M6.75,11.25l-0.6,0.2c0.167-0.067,0.333-0.133,0.5-0.2H6.75z"
		/>
	<path style="fill-rule:evenodd;clip-rule:evenodd;fill:#9C7B46;" d="M74.05,7.4H74c1.4-0.633,2.316-1.017,2.75-1.15
		C76.85,6.217,76.934,6.2,77,6.2h0.35c0.062,0,0.12,0,0.176,0c0.077,0,0.152,0,0.225,0l0.025,0.025C78.152,6.48,78.194,6.738,77.9,7
		c0.399,0,0.55,0.15,0.449,0.45H78.2c0,0.466-0.15,0.633-0.45,0.5c0,0.066-0.05,0.25-0.15,0.55l-0.25-0.15l-0.149,1l-0.4-0.2
		l-0.2,0.2L76.55,9.2l-0.5,0.3c-0.166,0.1-0.283-0.033-0.35-0.4c-0.233,0.133-0.4,0.133-0.5,0c-0.033-0.067-0.066-0.267-0.101-0.6
		l-0.3,0.15l0.101-0.4c-0.301,0.133-0.534,0.2-0.7,0.2l0.5-0.65L74.6,7.7l0.2-0.2L74.05,7.4z M57,11.65h-0.15
		c0.034-0.033,0.084-0.05,0.15-0.05c0.226-0.125,0.442-0.242,0.65-0.35l1.899-0.95c0.367-0.167,0.634-0.267,0.8-0.3l0.95-0.1
		c0.566,0.2,0.667,0.483,0.3,0.85c0.467-0.067,0.684,0.067,0.65,0.4H62c0.1,0.467-0.05,0.667-0.45,0.6l-0.05,0.6
		c-0.167-0.033-0.283-0.083-0.35-0.15L61.1,13.3c-0.033-0.033-0.199-0.1-0.5-0.2l-0.25,0.25L60.3,13.2l-0.6,0.35
		c-0.2,0.133-0.351,0.017-0.45-0.35c-0.3,0.167-0.517,0.2-0.65,0.1c-0.066-0.1-0.133-0.316-0.199-0.65l-0.351,0.2l0.05-0.4
		l-0.8,0.25c0.101-0.267,0.25-0.5,0.45-0.7l-0.1-0.1l0.199-0.25H57z M49.75,5.3H49.6c0.267-0.133,0.534-0.25,0.801-0.35l0.6-0.2
		c1.066-0.467,1.7-0.717,1.9-0.75L53.8,3.9c0.601,0.133,0.7,0.35,0.3,0.65c0.467,0,0.667,0.117,0.601,0.35h-0.2
		c0.066,0.4-0.083,0.567-0.45,0.5L54,5.85l-0.35-0.1V6.6c-0.233-0.067-0.4-0.117-0.5-0.15l-0.2,0.2l-0.101-0.1
		c-0.233,0.133-0.416,0.233-0.55,0.3c-0.166,0.1-0.316,0-0.45-0.3C51.583,6.683,51.4,6.7,51.3,6.6c-0.066-0.067-0.133-0.233-0.2-0.5
		l-0.35,0.15l0.05-0.3l-0.75,0.2C50.15,5.917,50.3,5.733,50.5,5.6l-0.15-0.1l0.2-0.2H49.75z M28.9,5.4
		c0.033-0.066,0.067-0.117,0.1-0.15c0.467-0.733,1.233-1.517,2.3-2.35c1.9-1.467,3.2-2.333,3.9-2.6c0,0.233-0.15,0.434-0.45,0.6
		l0.5-0.05l-0.05,0.1c0.2,0.066,0.383,0.066,0.55,0C35.717,1.117,35.6,1.267,35.4,1.4c-0.267,0.133-0.417,0.267-0.45,0.4h0.3
		c0,0.2-0.183,0.333-0.55,0.4c-0.434,0.033-0.717,0.05-0.85,0.05C33.817,2.117,33.8,2,33.8,1.9c-0.433,0.367-0.816,0.633-1.15,0.8
		c-0.066,0.066-0.233,0.183-0.5,0.35l-0.85,0.4c-0.367,0.167-0.633,0.333-0.8,0.5C30.467,3.95,29.933,4.433,28.9,5.4z M6.75,11.25
		h-0.1H6.6c1.933-0.8,3.033-1.217,3.3-1.25c0.297-0.061,0.597-0.094,0.9-0.1c0.6,0.133,0.7,0.35,0.3,0.65
		c0.5-0.066,0.7,0.034,0.6,0.3l-0.2,0.05c0.067,0.367-0.083,0.517-0.45,0.45L11,11.8l-0.35-0.1v0.8c-0.1-0.067-0.267-0.1-0.5-0.1
		c-0.033,0.1-0.1,0.167-0.2,0.2l-0.1-0.15c-0.233,0.133-0.417,0.233-0.55,0.3c-0.167,0.067-0.316-0.033-0.45-0.3
		C8.583,12.583,8.4,12.6,8.3,12.5c-0.066-0.067-0.133-0.233-0.2-0.5l-0.35,0.15l0.05-0.3c-0.333,0.133-0.583,0.2-0.75,0.2
		c0.1-0.233,0.25-0.417,0.45-0.55l-0.15-0.05l0.2-0.2H6.75z M13.2,7.5l-0.1,0.1c0.233-0.3,0.55-0.6,0.95-0.9l1.2-0.9
		c1.267-0.733,2.233-1.233,2.9-1.5c0.167-0.1,0.333-0.167,0.5-0.2c-0.033,0.167-0.183,0.316-0.45,0.45h0.45l-0.05,0.1l0.45,0.05
		C19.017,4.833,18.9,4.933,18.7,5c-0.233,0.1-0.367,0.2-0.4,0.3l0.25,0.05c-0.033,0.133-0.2,0.217-0.5,0.25
		c-0.333-0.033-0.55-0.05-0.65-0.05V5.3l-1.05,0.5c-0.033,0.034-0.167,0.1-0.4,0.2c-0.667,0.233-1.15,0.433-1.45,0.6L13.2,7.5z"/>
	<path style="fill-rule:evenodd;clip-rule:evenodd;fill:#907D50;" d="M78.1,18.1c-0.033,0.4-0.066,0.733-0.1,1
		c-0.1,0.467-0.184,0.75-0.25,0.851L77.7,19.9c-0.2-0.2-0.384-0.217-0.55-0.051c-0.034,0.134-0.101,0.217-0.2,0.25
		c-0.101,0.034-0.167,0.034-0.2,0c-0.066-0.066-0.116-0.1-0.15-0.1c-0.1,0-0.233,0.05-0.399,0.15c-0.167,0.1-0.316,0.133-0.45,0.1
		c-0.167-0.1-0.35-0.15-0.55-0.15c-0.334-0.033-0.584-0.1-0.75-0.199l-0.3-0.2L74.1,19.65L73.95,19.4L74,19.45h0.05
		c0.3,0.267,0.566,0.434,0.8,0.5c0.301,0.1,0.634,0.116,1,0.05c0.5-0.066,0.817-0.167,0.95-0.3c0.167-0.134,0.334-0.483,0.5-1.05
		c0.2-0.867,0.3-1.334,0.3-1.4c0.134-0.533,0.034-1.15-0.3-1.85c-0.066-0.301-0.116-0.5-0.149-0.601
		c-0.067-0.2-0.184-0.366-0.351-0.5c-0.033-0.033-0.283-0.133-0.75-0.3l-0.45-0.1h-0.35c0-0.09,0-0.165,0-0.225V13.65
		c0.078,0.026,0.179,0.051,0.3,0.075l0.101,0.025l1.25,0.15c0.133,0,0.267,0,0.399,0l0.45,0.05c0.033-0.034,0.083-0.034,0.15,0
		c0.033,0.166,0.066,0.316,0.1,0.45c0.1,0.366,0.15,1.1,0.15,2.199C78.15,17.167,78.134,17.667,78.1,18.1z M55.8,12.15
		c-0.233,0.067-0.434,0.15-0.6,0.25c-0.134-0.233-0.3-0.467-0.5-0.7c-0.134-0.267-0.233-0.434-0.3-0.5
		c-0.101-0.167-0.25-0.3-0.45-0.4c-0.101-0.066-0.417-0.133-0.95-0.2l-0.95-0.05c-0.033-0.066-0.05-0.133-0.05-0.2
		c0.066,0,0.15,0,0.25,0l1.85,0.05c0.134,0,0.267,0,0.4,0c0.2,0,0.417,0,0.65,0c0.066,0.167,0.133,0.3,0.199,0.4
		C55.483,11.033,55.634,11.483,55.8,12.15z M51.4,15.2l0.149,0.1c0.5,0.2,0.834,0.316,1,0.351c0.334,0.1,0.684,0.116,1.05,0.05
		c0.067,0.066,0.134,0.133,0.2,0.2c-0.066,0-0.116,0-0.149,0c-0.2-0.101-0.434-0.15-0.7-0.15c-0.367,0-0.65-0.033-0.851-0.1
		l-0.524-0.226L51.55,15.4c-0.032,0-0.049-0.017-0.05-0.051V15.4L51.4,15.2z M59.4,18c0.03,0,0.063,0,0.1,0l2.05,0.05
		c0.101,0,0.2,0,0.3,0c0.034,0,0.084,0,0.15,0L62.65,18c0.033,0,0.066,0,0.1,0c0.066,0.2,0.134,0.366,0.2,0.5
		c0.2,0.366,0.399,1.15,0.6,2.35c0.101,0.601,0.167,1.117,0.2,1.551c0.033,0.433,0.033,0.8,0,1.1l-0.1,0.9L63.5,24.35
		c-0.134-0.1-0.233-0.166-0.3-0.199c-0.101-0.034-0.217,0.017-0.351,0.149c-0.033,0.167-0.116,0.283-0.25,0.351
		c-0.1,0.033-0.199,0.017-0.3-0.051c-0.066-0.066-0.116-0.1-0.149-0.1c-0.101,0-0.267,0.066-0.5,0.2
		c-0.2,0.133-0.367,0.184-0.5,0.149c-0.233-0.1-0.483-0.149-0.75-0.149c-0.4,0-0.717-0.05-0.95-0.15l-0.4-0.2l-0.2-0.149L58.7,24.05
		V24l0.2,0.1c0.366,0.267,0.716,0.417,1.05,0.45c0.399,0.101,0.816,0.117,1.25,0.05c0.7-0.199,1.083-0.333,1.149-0.399
		c0.2-0.167,0.334-0.55,0.4-1.15c0.134-0.6,0.2-1.1,0.2-1.5c0.033-0.666-0.2-1.316-0.7-1.95c-0.033-0.033-0.15-0.233-0.35-0.6
		c-0.101-0.2-0.25-0.366-0.45-0.5c-0.233-0.134-0.566-0.2-1-0.2l-0.601-0.1H59.45C59.417,18.1,59.4,18.033,59.4,18z M34.7,16.9
		l-0.2-0.25V16.55l0.2,0.101c0.466,0.233,0.85,0.366,1.15,0.399c0.5,0.033,0.967-0.017,1.4-0.149c0.033,0,0.267-0.067,0.7-0.2
		c0.267-0.066,0.45-0.15,0.55-0.25c0.133-0.134,0.25-0.566,0.35-1.3c0.066-0.334,0.1-0.851,0.1-1.55c0-0.434-0.1-0.934-0.3-1.5
		c-0.267-0.667-0.467-1.15-0.6-1.45c-0.1-0.3-0.216-0.833-0.35-1.6c-0.133-0.7-0.267-1.216-0.4-1.55c-0.1-0.2-0.25-0.333-0.45-0.4
		C36.617,7.067,36.433,7.033,36.3,7c-0.167-0.067-0.267-0.1-0.3-0.1c-0.133,0.133-0.25,0.217-0.35,0.25l-0.3,0.05l-0.1-0.5v0.1
		C35.183,6.833,35.1,6.85,35,6.85c0.1-0.033,0.183-0.083,0.25-0.15V6.65L35.3,6.6c-0.7,0.2-1.2,0.267-1.5,0.2
		c0.167-0.1,0.5-0.183,1-0.25c0.233,0,0.434-0.017,0.6-0.05l0.1-0.1c0.017-0.017,0.033-0.033,0.05-0.05
		C35.083,6.383,34.333,6.5,33.3,6.7c-0.5,0.033-0.95,0.033-1.35,0c-0.4-0.067-0.75-0.184-1.05-0.35
		c0.167-0.067,0.45-0.083,0.85-0.05c0.233,0,0.533,0.017,0.9,0.05l1.2-0.1c-0.567-0.033-1.15-0.167-1.75-0.4
		c0.367,0,0.9,0.033,1.6,0.1c0.6,0.033,1.117,0,1.55-0.1c0.167-0.033,0.3-0.067,0.4-0.1c-0.3-0.133-0.533-0.3-0.7-0.5L36,5.6
		c0.233,0.033,0.35-0.05,0.35-0.25L36.3,4.8c0.1,0.3,0.2,0.617,0.3,0.95c0.2,0,0.517-0.233,0.95-0.7
		C37.517,5.183,37.4,5.333,37.2,5.5c0.433,0,0.983-0.083,1.65-0.25c0.367-0.1,0.617-0.133,0.75-0.1c-0.133,0.2-0.383,0.367-0.75,0.5
		c-0.434,0.1-0.733,0.167-0.9,0.2c0.533,0.033,1.333-0.017,2.4-0.15c0.066,0,0.3-0.067,0.7-0.2c0.267-0.067,0.483-0.083,0.65-0.05
		C41.6,5.683,41.25,5.867,40.65,6c-0.633,0.1-1.05,0.167-1.25,0.2c0.333,0.033,0.817,0.017,1.45-0.05c0.633-0.033,1.1-0.05,1.4-0.05
		c-0.533,0.233-1.483,0.383-2.85,0.45c-0.467,0-0.8-0.017-1-0.05c-0.233-0.067-0.433-0.1-0.6-0.1l0.05,0.1
		C37.917,6.567,38,6.633,38.1,6.7c-0.1,0.033-0.184,0.05-0.25,0.05L37.9,6.8l0.05,0.5L38,7.45c0.2,1.2,0.417,2.15,0.65,2.85
		c0.333,0.967,0.633,2.017,0.9,3.15l0.25,1.25l0.05,0.05v0.05c0,0.033,0,0.066,0,0.101L40,16l-0.05,0.65v0.199L39.8,16.8
		c-0.167-0.133-0.283-0.217-0.35-0.25c-0.133-0.066-0.267-0.033-0.4,0.101c-0.033,0.166-0.117,0.283-0.25,0.35
		c-0.133,0.033-0.233,0.017-0.3-0.05c-0.1-0.101-0.167-0.15-0.2-0.15c-0.133,0-0.316,0.101-0.55,0.3
		c-0.2,0.167-0.383,0.25-0.55,0.25c-0.267-0.133-0.55-0.183-0.85-0.149c-0.533,0-0.867-0.017-1-0.05L34.7,16.9z M18.05,9.2
		l0.05-0.05c-0.133,0.033-0.3,0.05-0.5,0.05c-0.333,0.033-0.567,0.033-0.7,0c0.167-0.067,0.45-0.1,0.85-0.1
		c0.167,0.033,0.317,0.033,0.45,0l0.1-0.05c-0.6,0.034-1.066,0.034-1.4,0h-0.2c-0.233,0.034-0.5,0.05-0.8,0.05
		c-0.267-0.067-0.5-0.117-0.7-0.15h0.5c-0.434-0.1-0.8-0.233-1.1-0.4c0.2-0.033,0.667,0.034,1.4,0.2c0.233,0.033,0.6,0.05,1.1,0.05
		c0.033,0,0.083,0,0.15,0c-0.533-0.066-1.067-0.25-1.6-0.55l1.3,0.25c0.5,0.067,0.917,0.083,1.25,0.05c0.1,0,0.183,0,0.25,0
		l-0.5-0.45c0.167,0.066,0.45,0.183,0.85,0.35c0.167,0.033,0.25-0.017,0.25-0.15c0-0.267,0.017-0.417,0.05-0.45
		c0.065,0.26,0.115,0.518,0.15,0.775V8.65c0.067-0.033,0.133-0.033,0.2,0l0.025-0.025C19.608,8.527,19.8,8.369,20.05,8.15
		c-0.033,0.1-0.133,0.217-0.3,0.35c0.267,0.033,0.717,0.017,1.35-0.05h0.6c-0.1,0.167-0.317,0.267-0.65,0.3
		c-0.367,0.033-0.617,0.067-0.75,0.1c0.4,0.066,1.05,0.1,1.95,0.1c0.2,0,0.567-0.017,1.1-0.05c-0.1,0.167-0.383,0.283-0.85,0.35
		c-0.533,0-0.883,0.017-1.05,0.05c0.5,0.067,1.267,0.133,2.3,0.2c-0.5,0.1-1.283,0.117-2.35,0.05c-0.5-0.066-0.767-0.117-0.8-0.15
		l-0.45-0.1v0.1c0.067,0.033,0.133,0.083,0.2,0.15c-0.067,0-0.133,0-0.2,0v0.1L20.2,10v0.1c0.033,1,0.117,1.783,0.25,2.35
		c0.066,0.3,0.233,0.9,0.5,1.8c0.033,0.134,0.066,0.25,0.1,0.35c0.1,0.467,0.133,0.801,0.1,1l-0.1,0.5v0.15l-0.1-0.05
		c-0.3-0.233-0.517-0.3-0.65-0.2c-0.033,0.134-0.1,0.217-0.2,0.25s-0.184,0.017-0.25-0.05c-0.067-0.101-0.117-0.15-0.15-0.15
		c-0.1,0-0.25,0.05-0.45,0.15c-0.167,0.133-0.317,0.184-0.45,0.149c-0.2-0.133-0.433-0.199-0.7-0.199c-0.333,0-0.6-0.051-0.8-0.15
		l-0.35-0.15l-0.15-0.1c-0.066-0.134-0.117-0.2-0.15-0.2l0.05-0.05l0.15,0.1c0.433,0.233,0.733,0.367,0.9,0.4
		c0.4,0.1,0.783,0.1,1.15,0c0.6-0.1,0.934-0.184,1-0.25c0.133-0.066,0.283-0.384,0.45-0.95l0.2-1.25
		c0.034-0.267-0.033-0.417-0.2-0.45c-0.233-0.033-0.367-0.167-0.4-0.4c-0.067-1.233-0.184-2.1-0.35-2.6
		c-0.033-0.2-0.267-0.367-0.7-0.5c-0.1-0.1-0.183-0.15-0.25-0.15c-0.133,0.133-0.233,0.2-0.3,0.2L18.1,9.7L18.05,9.2z M18.05,9.3
		v0.05c-0.066,0-0.133,0-0.2,0L18.05,9.3z M13.1,19.55c0.033,0.334,0.033,0.617,0,0.851L13,21.15V21.1h-0.1
		c-0.233-0.199-0.45-0.216-0.65-0.05c-0.033,0.134-0.1,0.217-0.2,0.25c-0.1,0.033-0.183,0.017-0.25-0.05
		c-0.066-0.033-0.133-0.05-0.2-0.05c-0.367,0.2-0.684,0.283-0.95,0.25c-0.2-0.066-0.433-0.101-0.7-0.101
		c-0.367,0-0.65-0.033-0.85-0.1l-0.6-0.3L8.4,20.85V20.8L8.55,20.9c0.5,0.199,0.833,0.316,1,0.35c0.4,0.066,0.8,0.066,1.2,0
		c0.567-0.1,0.917-0.2,1.05-0.3c0.167-0.134,0.3-0.417,0.4-0.851l0.2-1.199c0.033-0.5-0.2-1-0.7-1.5c-0.133-0.233-0.233-0.4-0.3-0.5
		c-0.1-0.134-0.25-0.25-0.45-0.351C10.717,16.45,10.4,16.4,10,16.4L9.45,16.3l-0.4,0.05C9.017,16.283,9,16.217,9,16.15
		c0.767,0.066,1.6,0.083,2.5,0.05c0.2,0,0.417,0,0.65,0c0.067,0.133,0.133,0.25,0.2,0.35c0.2,0.3,0.383,0.9,0.55,1.8
		C13,18.816,13.067,19.217,13.1,19.55z M34.8,17c0.034,0,0.067,0.017,0.1,0.05h-0.05L34.8,17z"/>
	<path style="fill-rule:evenodd;clip-rule:evenodd;fill:#C0A771;" d="M74.05,18.65h0.05v0.1l0.15,0.3L74.4,19
		c-0.034,0.267,0.1,0.45,0.399,0.55c0.233,0.101,0.5,0.117,0.8,0.05l0.051,0.051c0.399-0.134,0.666-0.334,0.8-0.601L76.5,18.4
		c0.2-0.334,0.316-0.601,0.35-0.801l-0.05-1.05c0-0.6-0.017-1.05-0.05-1.35c-0.033-0.467-0.2-0.767-0.5-0.9
		c-0.066-0.066-0.267-0.1-0.6-0.1L75.3,14.15l-0.1-0.2l-0.05-0.3c0.033,0,0.066,0,0.1,0v0.025c0,0.06,0,0.135,0,0.225h0.35l0.45,0.1
		c0.467,0.167,0.717,0.267,0.75,0.3c0.167,0.134,0.283,0.3,0.351,0.5c0.033,0.101,0.083,0.3,0.149,0.601
		c0.334,0.699,0.434,1.316,0.3,1.85c0,0.066-0.1,0.533-0.3,1.4c-0.166,0.566-0.333,0.916-0.5,1.05c-0.133,0.133-0.45,0.233-0.95,0.3
		c-0.366,0.066-0.699,0.05-1-0.05c-0.233-0.066-0.5-0.233-0.8-0.5H74l-0.05-0.05c0.033-0.334,0.05-0.584,0.05-0.75H74.05z
		 M51.4,14.65c0.066,0.133,0.166,0.233,0.3,0.3l0.2-0.05c0,0.199,0.166,0.35,0.5,0.449c0.233,0.034,0.533,0.017,0.899-0.05
		c0.066,0.134,0.167,0.267,0.3,0.4c-0.366,0.066-0.716,0.05-1.05-0.05c-0.166-0.034-0.5-0.15-1-0.351L51.4,15.2V14.65z M58.7,24
		l0.05-0.75c0.066,0.167,0.184,0.316,0.35,0.45l0.15-0.101c0,0.267,0.184,0.467,0.55,0.601c0.3,0.066,0.634,0.05,1-0.05l0.101,0.1
		c0.466-0.167,0.75-0.417,0.85-0.75c0.066-0.134,0.083-0.35,0.05-0.65c0.167-0.366,0.25-0.649,0.25-0.85l-0.2-1.1
		c-0.1-0.634-0.199-1.101-0.3-1.4c-0.133-0.5-0.399-0.816-0.8-0.95c-0.134-0.066-0.384-0.083-0.75-0.05l-0.45-0.05
		c-0.066-0.101-0.116-0.167-0.149-0.2l-0.051-0.3L59.4,18c0,0.033,0.017,0.1,0.05,0.2h0.399l0.601,0.1c0.434,0,0.767,0.066,1,0.2
		c0.2,0.134,0.35,0.3,0.45,0.5c0.199,0.366,0.316,0.566,0.35,0.6c0.5,0.634,0.733,1.284,0.7,1.95c0,0.4-0.066,0.9-0.2,1.5
		c-0.066,0.601-0.2,0.983-0.4,1.15C62.283,24.267,61.9,24.4,61.2,24.6c-0.434,0.067-0.851,0.051-1.25-0.05
		c-0.334-0.033-0.684-0.184-1.05-0.45L58.7,24z M51.9,10.35c0.033,0,0.066,0,0.1,0c0,0.066,0.017,0.133,0.05,0.2L53,10.6
		c0.533,0.066,0.85,0.133,0.95,0.2c0.2,0.1,0.35,0.233,0.45,0.4c0.066,0.066,0.166,0.233,0.3,0.5c0.2,0.233,0.366,0.466,0.5,0.7
		c-0.334,0.133-0.617,0.267-0.851,0.4c0-0.033,0-0.066,0-0.1c-0.1-0.5-0.199-0.867-0.3-1.1c-0.133-0.434-0.383-0.7-0.75-0.8
		c-0.1-0.033-0.333-0.033-0.7,0c-0.233,0-0.366-0.017-0.399-0.05c-0.033,0-0.101-0.033-0.2-0.1V10.6L51.9,10.35z M35.45,7.85
		L35.4,7.6l-0.1-0.5c-1.2,0.133-2.383,0.167-3.55,0.1c-0.967-0.067-1.6-0.15-1.9-0.25c-0.133-0.067,0.117-0.284,0.75-0.65
		c0.6-0.333,1.183-0.617,1.75-0.85c0.533-0.233,1.35-0.434,2.45-0.6c1.1-0.2,2.083-0.3,2.95-0.3c0.667-0.033,1.617,0.067,2.85,0.3
		c0.967,0.2,1.717,0.4,2.25,0.6c0.4,0.133,0.583,0.25,0.55,0.35c-0.033,0.1-0.3,0.233-0.8,0.4c-0.4,0.133-1.267,0.267-2.6,0.4
		c-0.833,0.1-1.533,0.167-2.1,0.2l-0.05-0.05c0.066,0,0.15-0.017,0.25-0.05c-0.1-0.067-0.184-0.133-0.25-0.2L37.8,6.4
		c0.167,0,0.367,0.033,0.6,0.1c0.2,0.033,0.533,0.05,1,0.05c1.367-0.066,2.317-0.216,2.85-0.45c-0.3,0-0.767,0.017-1.4,0.05
		c-0.633,0.067-1.117,0.083-1.45,0.05c0.2-0.034,0.617-0.1,1.25-0.2c0.6-0.133,0.95-0.317,1.05-0.55
		c-0.167-0.034-0.383-0.017-0.65,0.05c-0.4,0.133-0.633,0.2-0.7,0.2c-1.067,0.133-1.867,0.183-2.4,0.15
		c0.167-0.033,0.466-0.1,0.9-0.2c0.367-0.133,0.617-0.3,0.75-0.5c-0.133-0.033-0.383,0-0.75,0.1C38.183,5.417,37.633,5.5,37.2,5.5
		c0.2-0.167,0.316-0.317,0.35-0.45c-0.433,0.467-0.75,0.7-0.95,0.7c-0.1-0.333-0.2-0.65-0.3-0.95l0.05,0.55
		c0,0.2-0.117,0.283-0.35,0.25l-1.05-0.35c0.167,0.2,0.4,0.367,0.7,0.5c-0.1,0.033-0.233,0.067-0.4,0.1
		c-0.433,0.1-0.95,0.133-1.55,0.1c-0.7-0.067-1.233-0.1-1.6-0.1c0.6,0.233,1.183,0.367,1.75,0.4l-1.2,0.1
		c-0.367-0.033-0.667-0.05-0.9-0.05c-0.4-0.033-0.683-0.017-0.85,0.05c0.3,0.167,0.65,0.283,1.05,0.35c0.4,0.033,0.85,0.033,1.35,0
		c1.034-0.2,1.784-0.317,2.25-0.35c-0.017,0.017-0.033,0.033-0.05,0.05l-0.1,0.1c-0.167,0.033-0.367,0.05-0.6,0.05
		c-0.5,0.067-0.833,0.15-1,0.25c0.3,0.067,0.8,0,1.5-0.2l-0.05,0.05V6.7C35.183,6.767,35.1,6.817,35,6.85
		c0.1,0,0.183-0.017,0.25-0.05V6.7l0.1,0.5l0.3-0.05c0.1-0.033,0.217-0.117,0.35-0.25c0.033,0,0.133,0.033,0.3,0.1
		c0.133,0.033,0.317,0.067,0.55,0.1c0.2,0.066,0.35,0.2,0.45,0.4c0.133,0.333,0.267,0.85,0.4,1.55c0.133,0.767,0.25,1.3,0.35,1.6
		c0.133,0.3,0.333,0.783,0.6,1.45c0.2,0.566,0.3,1.066,0.3,1.5c0,0.7-0.034,1.216-0.1,1.55c-0.1,0.733-0.217,1.166-0.35,1.3
		c-0.1,0.1-0.283,0.184-0.55,0.25c-0.434,0.133-0.667,0.2-0.7,0.2c-0.433,0.133-0.9,0.183-1.4,0.149
		c-0.3-0.033-0.684-0.166-1.15-0.399l-0.2-0.101l0.05-1.05c0.1,0.2,0.233,0.333,0.4,0.4c0-0.067,0.066-0.134,0.2-0.2
		c0,0.8,0.567,0.967,1.7,0.5l0.1,0.149c0.5-0.3,0.783-0.633,0.85-1c-0.033-0.433-0.033-0.75,0-0.949c0.167-0.4,0.233-0.734,0.2-1
		l-0.25-1.6c-0.133-0.867-0.25-1.533-0.35-2c-0.133-0.767-0.367-1.35-0.7-1.75c-0.1-0.133-0.184-0.2-0.25-0.2
		c-0.133,0.033-0.267,0.05-0.4,0.05L35.65,8C35.583,7.933,35.517,7.883,35.45,7.85z M18.05,9.2v0.1l-0.2,0.05c0.066,0,0.133,0,0.2,0
		V9.6c-0.966-0.033-1.917-0.133-2.85-0.3c-0.8-0.133-1.3-0.267-1.5-0.4c-0.1-0.066,0.133-0.217,0.7-0.45c0.5-0.2,1-0.35,1.5-0.45
		c1.033-0.367,2.5-0.45,4.4-0.25c1,0.067,2.333,0.483,4,1.25c0.267,0.167,0.383,0.283,0.35,0.35C24.617,9.417,24.4,9.5,24,9.6
		c-0.333,0.066-1.033,0.083-2.1,0.05c-0.667,0-1.25,0-1.75,0v-0.1c0.067,0,0.133,0,0.2,0c-0.067-0.066-0.133-0.117-0.2-0.15V9.3
		l0.45,0.1c0.033,0.033,0.3,0.083,0.8,0.15c1.067,0.067,1.85,0.05,2.35-0.05c-1.033-0.067-1.8-0.133-2.3-0.2
		c0.167-0.033,0.517-0.05,1.05-0.05c0.467-0.067,0.75-0.183,0.85-0.35c-0.533,0.033-0.9,0.05-1.1,0.05c-0.9,0-1.55-0.034-1.95-0.1
		c0.133-0.033,0.383-0.067,0.75-0.1c0.333-0.033,0.55-0.133,0.65-0.3h-0.6c-0.633,0.066-1.083,0.083-1.35,0.05
		c0.167-0.133,0.267-0.25,0.3-0.35c-0.25,0.219-0.441,0.377-0.575,0.475L19.45,8.65c-0.067-0.033-0.133-0.033-0.2,0V8.625
		C19.215,8.368,19.165,8.11,19.1,7.85c-0.033,0.033-0.05,0.183-0.05,0.45c0,0.133-0.083,0.184-0.25,0.15
		c-0.4-0.167-0.683-0.284-0.85-0.35l0.5,0.45c-0.067,0-0.15,0-0.25,0c-0.333,0.034-0.75,0.017-1.25-0.05l-1.3-0.25
		c0.533,0.3,1.067,0.483,1.6,0.55c-0.067,0-0.117,0-0.15,0c-0.5,0-0.867-0.017-1.1-0.05c-0.733-0.167-1.2-0.233-1.4-0.2
		c0.3,0.167,0.667,0.3,1.1,0.4h-0.5c0.2,0.033,0.433,0.083,0.7,0.15c0.3,0,0.567-0.017,0.8-0.05h0.2c0.333,0.034,0.8,0.034,1.4,0
		L18.2,9.1c-0.133,0.033-0.284,0.033-0.45,0c-0.4,0-0.683,0.033-0.85,0.1c0.133,0.033,0.367,0.033,0.7,0c0.2,0,0.367-0.017,0.5-0.05
		L18.05,9.2z M16.7,15.2c0.2-0.066,0.383-0.134,0.55-0.2c0,0.533,0.45,0.684,1.35,0.45l0.1,0.1c0.466-0.3,0.733-0.533,0.8-0.7
		c-0.033-0.366-0.017-0.616,0.05-0.75c0.167-0.5,0.25-0.766,0.25-0.8L19.75,12c-0.033-0.467-0.083-0.75-0.15-0.85
		c-0.133-0.167-0.3-0.383-0.5-0.65c-0.1-0.133-0.167-0.2-0.2-0.2c-0.1,0-0.2,0-0.3,0l-0.35,0.05c-0.033-0.1-0.067-0.15-0.1-0.15
		L18.1,9.7l0.25-0.05c0.066,0,0.167-0.066,0.3-0.2c0.067,0,0.15,0.05,0.25,0.15c0.434,0.133,0.667,0.3,0.7,0.5
		c0.167,0.5,0.283,1.367,0.35,2.6c0.033,0.233,0.167,0.367,0.4,0.4c0.167,0.033,0.233,0.183,0.2,0.45l-0.2,1.25
		c-0.167,0.566-0.317,0.884-0.45,0.95c-0.066,0.066-0.4,0.15-1,0.25c-0.367,0.1-0.75,0.1-1.15,0c-0.167-0.033-0.467-0.167-0.9-0.4
		l-0.15-0.1l-0.05,0.05L16.7,15.2z M8.95,16.15H9c0,0.066,0.017,0.133,0.05,0.199l0.4-0.05L10,16.4c0.4,0,0.717,0.05,0.95,0.149
		c0.2,0.101,0.35,0.217,0.45,0.351c0.067,0.1,0.167,0.267,0.3,0.5c0.5,0.5,0.733,1,0.7,1.5L12.2,20.1
		c-0.1,0.434-0.233,0.717-0.4,0.851c-0.133,0.1-0.483,0.2-1.05,0.3c-0.4,0.066-0.8,0.066-1.2,0c-0.167-0.033-0.5-0.15-1-0.35
		L8.4,20.8v-0.5c0.067,0.101,0.167,0.184,0.3,0.25l0.2-0.05c0,0.2,0.167,0.35,0.5,0.45c0.267,0.033,0.583,0.017,0.95-0.05l0.1,0.1
		c0.466-0.2,0.733-0.384,0.8-0.55c-0.033-0.233-0.033-0.417,0-0.55c0.167-0.367,0.25-0.584,0.25-0.65s-0.05-0.35-0.15-0.85
		s-0.2-0.867-0.3-1.101c-0.133-0.366-0.383-0.6-0.75-0.7c-0.066-0.033-0.3-0.05-0.7-0.05H9.2C9.1,16.483,9.033,16.434,9,16.4
		L8.95,16.15z M34.9,17.05c0.1,0.066,0.217,0.117,0.35,0.15H35.2c-0.1-0.033-0.184-0.066-0.25-0.101L34.9,17.05z"/>
	<path style="fill-rule:evenodd;clip-rule:evenodd;fill:#DEC383;" d="M75.15,13.65l0.05,0.3l0.1,0.2l0.351,0.05
		c0.333,0,0.533,0.033,0.6,0.1c0.3,0.134,0.467,0.434,0.5,0.9c0.033,0.3,0.05,0.75,0.05,1.35l0.05,1.05
		c-0.033,0.2-0.149,0.467-0.35,0.801l-0.05,0.649c-0.134,0.267-0.4,0.467-0.8,0.601L75.6,19.6c-0.3,0.067-0.566,0.051-0.8-0.05
		c-0.3-0.1-0.434-0.283-0.399-0.55l-0.15,0.05l-0.15-0.3v-0.1h-0.05c0-0.101,0.017-0.184,0.05-0.25
		c0.101-0.634,0.217-1.051,0.351-1.25c0.366-0.4,0.6-1,0.7-1.801V13.65z M53.3,15.3c-0.366,0.066-0.666,0.084-0.899,0.05
		c-0.334-0.1-0.5-0.25-0.5-0.449l-0.2,0.05c-0.134-0.066-0.233-0.167-0.3-0.3c0.002-0.071,0.019-0.138,0.05-0.2
		c0.033-0.567,0.1-0.934,0.2-1.1c0.133-0.167,0.267-0.434,0.399-0.8c0.101-0.333,0.134-0.583,0.101-0.75
		c0-0.333-0.051-0.716-0.15-1.15c0.1,0.067,0.167,0.1,0.2,0.1c0.033,0.033,0.166,0.05,0.399,0.05c0.367-0.033,0.601-0.033,0.7,0
		c0.367,0.1,0.617,0.367,0.75,0.8c0.101,0.233,0.2,0.6,0.3,1.1c0,0.033,0,0.066,0,0.1c-0.5,0.233-0.833,0.417-1,0.55
		c-0.1,0.066-0.183,0.133-0.25,0.2C52.733,13.85,52.7,14.3,53,14.9l0.15,0.199C53.184,15.167,53.233,15.233,53.3,15.3z M59.35,17.95
		l0.051,0.3c0.033,0.033,0.083,0.1,0.149,0.2L60,18.5c0.366-0.033,0.616-0.017,0.75,0.05c0.4,0.134,0.667,0.45,0.8,0.95
		c0.101,0.3,0.2,0.767,0.3,1.4l0.2,1.1c0,0.2-0.083,0.483-0.25,0.85c0.033,0.301,0.017,0.517-0.05,0.65
		c-0.1,0.333-0.384,0.583-0.85,0.75l-0.101-0.1c-0.366,0.1-0.7,0.116-1,0.05c-0.366-0.134-0.55-0.334-0.55-0.601L59.1,23.7
		c-0.166-0.134-0.283-0.283-0.35-0.45L58.7,24c0-0.267,0.017-0.583,0.05-0.95c0.033-0.7,0.116-1.149,0.25-1.35
		c0.167-0.2,0.316-0.533,0.45-1c0.1-0.4,0.133-0.717,0.1-0.95c-0.133-0.767-0.233-1.366-0.3-1.8
		C59.283,17.95,59.316,17.95,59.35,17.95z M34.55,15.5c0.1-1.2,0.25-2.05,0.45-2.55c0.433-1.034,0.65-2.1,0.65-3.2
		c-0.033-0.567-0.1-1.2-0.2-1.9c0.066,0.033,0.133,0.083,0.2,0.15l0.4-0.1c0.133,0,0.267-0.017,0.4-0.05
		c0.066,0,0.15,0.066,0.25,0.2c0.333,0.4,0.566,0.983,0.7,1.75c0.1,0.467,0.217,1.133,0.35,2L38,13.4c0.033,0.267-0.033,0.6-0.2,1
		c-0.033,0.199-0.033,0.517,0,0.949c-0.066,0.367-0.35,0.7-0.85,1l-0.1-0.149c-1.133,0.467-1.7,0.3-1.7-0.5
		c-0.133,0.066-0.2,0.133-0.2,0.2C34.783,15.833,34.65,15.7,34.55,15.5z M18.4,12.55c-0.177-0.083-0.377-0.166-0.6-0.25
		c0.167-0.2,0.267-0.383,0.3-0.55c0.033-0.5,0.033-1.067,0-1.7V10l-0.05-0.4V9.35V9.3V9.2l0.05,0.5l0.05,0.5
		c0.033,0,0.067,0.05,0.1,0.15l0.35-0.05c0.1,0,0.2,0,0.3,0c0.033,0,0.1,0.067,0.2,0.2c0.2,0.267,0.367,0.483,0.5,0.65
		c0.066,0.1,0.117,0.383,0.15,0.85l0.05,1.3c0,0.034-0.083,0.3-0.25,0.8c-0.066,0.134-0.083,0.384-0.05,0.75
		c-0.067,0.167-0.333,0.4-0.8,0.7l-0.1-0.1c-0.9,0.233-1.35,0.083-1.35-0.45c0.067-0.033,0.133-0.066,0.2-0.1
		c1.566-0.7,2.183-1.284,1.85-1.75c-0.133-0.167-0.4-0.35-0.8-0.55C18.467,12.583,18.434,12.567,18.4,12.55z M9,16.4
		c0.033,0.033,0.1,0.083,0.2,0.149h0.4c0.4,0,0.633,0.017,0.7,0.05c0.367,0.101,0.617,0.334,0.75,0.7c0.1,0.233,0.2,0.601,0.3,1.101
		s0.15,0.783,0.15,0.85s-0.083,0.283-0.25,0.65c-0.033,0.133-0.033,0.316,0,0.55c-0.067,0.166-0.333,0.35-0.8,0.55l-0.1-0.1
		c-0.367,0.066-0.684,0.083-0.95,0.05C9.067,20.85,8.9,20.7,8.9,20.5l-0.2,0.05C8.567,20.483,8.467,20.4,8.4,20.3
		c0.002-0.07,0.019-0.138,0.05-0.2c0.033-0.566,0.1-0.916,0.2-1.05c0.133-0.2,0.267-0.467,0.4-0.8c0.1-0.333,0.133-0.566,0.1-0.7
		C9.15,17.217,9.1,16.833,9,16.4z"/>
	<path style="fill-rule:evenodd;clip-rule:evenodd;fill:#6D5F39;" d="M77.75,19.95h0.05L77.75,20c-0.033,0.033-0.066,0.066-0.1,0.1
		v0.051c-0.067,0.033-0.134,0.083-0.2,0.149H77.4c-0.067,0.066-0.167,0.117-0.301,0.15c-0.466,0.1-1.116,0.033-1.949-0.2H75.1
		l-0.5-0.2c-0.3-0.133-0.5-0.3-0.6-0.5l0.1,0.101l0.051,0.05l0.3,0.2c0.166,0.1,0.416,0.166,0.75,0.199c0.2,0,0.383,0.051,0.55,0.15
		c0.134,0.033,0.283,0,0.45-0.1C76.366,20.05,76.5,20,76.6,20c0.034,0,0.084,0.033,0.15,0.1c0.033,0.034,0.1,0.034,0.2,0
		c0.1-0.033,0.166-0.116,0.2-0.25c0.166-0.166,0.35-0.149,0.55,0.051L77.75,19.95z M53.9,16l-0.851-0.05L53,15.9h-0.1
		c-0.4-0.067-0.717-0.15-0.95-0.25c-0.13-0.052-0.238-0.11-0.325-0.176l-0.05-0.05L52.1,15.65c0.2,0.066,0.483,0.1,0.851,0.1
		c0.267,0,0.5,0.05,0.7,0.15c0.033,0,0.083,0,0.149,0C53.833,15.934,53.866,15.967,53.9,16z M63.65,24.4v0.05
		c-0.101,0.133-0.301,0.25-0.601,0.35c-0.133,0.033-0.283,0.066-0.45,0.101c-0.6,0.133-1.35,0.116-2.25-0.051
		c-0.566-0.1-1-0.25-1.3-0.449h-0.024c-0.021-0.038-0.046-0.071-0.075-0.101l-0.101-0.05V24.2l0.2,0.149l0.4,0.2
		C59.684,24.65,60,24.7,60.4,24.7c0.267,0,0.517,0.05,0.75,0.149c0.133,0.034,0.3-0.017,0.5-0.149c0.233-0.134,0.399-0.2,0.5-0.2
		c0.033,0,0.083,0.033,0.149,0.1c0.101,0.067,0.2,0.084,0.3,0.051c0.134-0.067,0.217-0.184,0.25-0.351
		c0.134-0.133,0.25-0.184,0.351-0.149c0.066,0.033,0.166,0.1,0.3,0.199L63.65,24.4z M16.8,15.75l0.15,0.1L17.3,16
		c0.2,0.1,0.467,0.15,0.8,0.15c0.267,0,0.5,0.066,0.7,0.199c0.133,0.034,0.284-0.017,0.45-0.149c0.2-0.101,0.35-0.15,0.45-0.15
		c0.033,0,0.083,0.05,0.15,0.15c0.066,0.066,0.15,0.083,0.25,0.05s0.167-0.116,0.2-0.25c0.133-0.1,0.35-0.033,0.65,0.2l0.1,0.05
		v0.05c-0.1,0.101-0.3,0.167-0.6,0.2c-0.6,0.134-1.4,0.083-2.4-0.15l-0.4-0.1c-0.367-0.1-0.633-0.25-0.8-0.45
		c-0.067-0.033-0.1-0.066-0.1-0.1L16.8,15.75z M13,21.15c-0.167,0.199-0.467,0.333-0.9,0.399c-0.533,0.066-1.267,0.033-2.2-0.1
		c-0.333-0.033-0.6-0.084-0.8-0.15l-0.15-0.05c-0.167-0.066-0.284-0.134-0.35-0.2l-0.1-0.1l0.6,0.3c0.2,0.066,0.483,0.1,0.85,0.1
		c0.267,0,0.5,0.034,0.7,0.101c0.267,0.033,0.583-0.05,0.95-0.25c0.066,0,0.133,0.017,0.2,0.05c0.067,0.066,0.15,0.083,0.25,0.05
		c0.1-0.033,0.167-0.116,0.2-0.25c0.2-0.166,0.417-0.149,0.65,0.05H13V21.15z M34.9,17.05C34.867,17.017,34.833,17,34.8,17
		l-0.05-0.05c-0.067-0.033-0.117-0.066-0.15-0.101l0.1,0.051l0.65,0.25c0.133,0.033,0.467,0.05,1,0.05
		c0.3-0.033,0.583,0.017,0.85,0.149c0.167,0,0.35-0.083,0.55-0.25c0.233-0.199,0.417-0.3,0.55-0.3c0.034,0,0.1,0.05,0.2,0.15
		c0.067,0.066,0.167,0.083,0.3,0.05c0.133-0.066,0.217-0.184,0.25-0.35c0.133-0.134,0.267-0.167,0.4-0.101
		c0.066,0.033,0.183,0.117,0.35,0.25l0.15,0.05V16.9c-0.1,0.133-0.317,0.25-0.65,0.35c-0.733,0.267-1.733,0.333-3,0.2
		c-0.066,0-0.117,0-0.15,0l-0.9-0.25C35.117,17.167,35,17.116,34.9,17.05z"/>
	<linearGradient id="SVGID_2_" gradientUnits="userSpaceOnUse" x1="59.4746" y1="23.6924" x2="67.0246" y2="23.6924">
		<stop  offset="0" style="stop-color:#000000;stop-opacity:0.2"/>
		<stop  offset="1" style="stop-color:#000000;stop-opacity:0.2"/>
	</linearGradient>
	<path style="fill-rule:evenodd;clip-rule:evenodd;fill:url(#SVGID_2_);" d="M62.6,24.9c0.167-0.034,0.317-0.067,0.45-0.101
		c0.3-0.1,0.5-0.217,0.601-0.35V24.4l0.1-0.9c0.033-0.3,0.033-0.667,0-1.1c1.066,0.033,1.733,0.066,2,0.1
		c1.566,0.2,1.7,0.767,0.4,1.7c-0.867,0.633-1.967,0.883-3.301,0.75C62.75,24.95,62.667,24.934,62.6,24.9z"/>
	
		<linearGradient id="SVGID_3_" gradientUnits="userSpaceOnUse" x1="76.417" y1="8.8384" x2="82.2933" y2="8.8384" gradientTransform="matrix(0.9913 0.1319 -0.1319 0.9913 3.287196e-005 3.221631e-005)">
		<stop  offset="0" style="stop-color:#000000;stop-opacity:0.2"/>
		<stop  offset="1" style="stop-color:#000000;stop-opacity:0.2"/>
	</linearGradient>
	<path style="fill-rule:evenodd;clip-rule:evenodd;fill:url(#SVGID_3_);" d="M77.1,20.45c0.134-0.033,0.233-0.084,0.301-0.15h0.05
		c0.066-0.066,0.133-0.116,0.2-0.149V20.1c0.033-0.033,0.066-0.066,0.1-0.1l0.05-0.05h-0.05C77.816,19.85,77.9,19.566,78,19.1
		c0.033-0.267,0.066-0.6,0.1-1c0.767,0.034,1.284,0.084,1.551,0.15c1.166,0.3,1.199,0.85,0.1,1.65
		C79.017,20.434,78.134,20.616,77.1,20.45z"/>
	
		<linearGradient id="SVGID_4_" gradientUnits="userSpaceOnUse" x1="32.3774" y1="20.7979" x2="39.4631" y2="20.7979" gradientTransform="matrix(0.9914 -0.1305 0.1305 0.9914 -2.715290e-004 -2.100766e-004)">
		<stop  offset="0" style="stop-color:#000000;stop-opacity:0.2"/>
		<stop  offset="1" style="stop-color:#000000;stop-opacity:0.2"/>
	</linearGradient>
	<path style="fill-rule:evenodd;clip-rule:evenodd;fill:url(#SVGID_4_);" d="M39.95,16.65L40,16l-0.15-1.1c0-0.034,0-0.067,0-0.101
		c0.9-0.133,1.467-0.116,1.7,0.05c0.367,0.267,0.383,0.551,0.05,0.851c-0.434,0.3-0.733,0.5-0.9,0.6
		C40.467,16.434,40.217,16.55,39.95,16.65z"/>
	
		<linearGradient id="SVGID_5_" gradientUnits="userSpaceOnUse" x1="16.7939" y1="15.623" x2="22.4944" y2="15.623" gradientTransform="matrix(0.9999 -0.0132 0.0132 0.9999 5.622953e-005 -1.343023e-004)">
		<stop  offset="0" style="stop-color:#000000;stop-opacity:0.2"/>
		<stop  offset="1" style="stop-color:#000000;stop-opacity:0.2"/>
	</linearGradient>
	<path style="fill-rule:evenodd;clip-rule:evenodd;fill:url(#SVGID_5_);" d="M21.05,16.1l0.1-0.5c0.033-0.199,0-0.533-0.1-1
		c0.8-0.033,1.284,0.034,1.45,0.2c0.267,0.267,0.267,0.5,0,0.7c-0.1,0.066-0.367,0.184-0.8,0.35
		C21.5,15.95,21.283,16.033,21.05,16.1z"/>
	<linearGradient id="SVGID_6_" gradientUnits="userSpaceOnUse" x1="9.1001" y1="20.5625" x2="16.2001" y2="20.5625">
		<stop  offset="0" style="stop-color:#000000;stop-opacity:0.2"/>
		<stop  offset="1" style="stop-color:#000000;stop-opacity:0.2"/>
	</linearGradient>
	<path style="fill-rule:evenodd;clip-rule:evenodd;fill:url(#SVGID_6_);" d="M12.1,21.55c0.433-0.066,0.733-0.2,0.9-0.399l0.1-0.75
		c0.033-0.233,0.033-0.517,0-0.851c1.033,0,1.667,0.017,1.9,0.05c1.467,0.167,1.583,0.617,0.35,1.351c-0.8,0.5-1.833,0.7-3.1,0.6
		C12.183,21.55,12.133,21.55,12.1,21.55z"/>
</g>
</svg>
