<?xml version="1.0" encoding="iso-8859-1"?>
<!-- Generator: Adobe Illustrator 15.1.0, SVG Export Plug-In . SVG Version: 6.00 Build 0)  -->
<!DOCTYPE svg PUBLIC "-//W3C//DTD SVG 1.1//EN" "http://www.w3.org/Graphics/SVG/1.1/DTD/svg11.dtd">
<svg version="1.1" id="FlashAICB" xmlns="http://www.w3.org/2000/svg" xmlns:xlink="http://www.w3.org/1999/xlink" x="0px" y="0px"
	 width="91.15px" height="57.75px" viewBox="0 0 91.15 57.75" style="enable-background:new 0 0 91.15 57.75;" xml:space="preserve"
	>
<linearGradient id="SVGID_1_" gradientUnits="userSpaceOnUse" x1="44.6377" y1="28.625" x2="92.2627" y2="28.625">
	<stop  offset="0" style="stop-color:#000000;stop-opacity:0.3294"/>
	<stop  offset="1" style="stop-color:#000000;stop-opacity:0.3294"/>
</linearGradient>
<path style="fill-rule:evenodd;clip-rule:evenodd;fill:url(#SVGID_1_);" d="M88.15,27.9c-0.164-0.121-0.297-0.229-0.4-0.325
	l-0.1-0.075c-1.015-0.95-1.882-1.758-2.601-2.425c0.229-0.626,0.495-1.468,0.8-2.525c0.434-1.5,0.9-2.566,1.4-3.2
	c-0.333,2.633-0.45,4.383-0.35,5.25C86.998,25.848,87.414,26.948,88.15,27.9z M80.675,21.35c-0.113-0.091-0.229-0.174-0.35-0.25
	c-0.013-0.019-0.029-0.036-0.05-0.05c-0.024-0.016-0.05-0.032-0.075-0.05c-6.9-4.6-13.584-8.133-20.05-10.6L60.1,10.375
	c0.591-0.318,1.107-0.893,1.551-1.725c0.8,1.733,2.566,3.167,5.3,4.3c3.934,1.6,6.166,2.583,6.7,2.95
	C76.64,17.953,78.98,19.77,80.675,21.35z M49.55,7.3c0.416-0.496,0.832-1.346,1.25-2.55c1.066-3.033,1.667-4.617,1.8-4.75
	c-0.533,2.167-0.633,3.867-0.3,5.1c0.101,0.467,0.434,1.2,1,2.2c0.186,0.332,0.336,0.657,0.45,0.975L49.8,7.35
	C49.719,7.333,49.636,7.316,49.55,7.3z M48.25,55.6h-5.4c-0.364-0.058-0.723-0.115-1.075-0.175
	c-0.198-0.076-0.407-0.151-0.625-0.225c-2.8-0.967-6.6-2.351-11.4-4.15c-1.156-0.707-2.223-1.324-3.2-1.85
	c-1.071-0.584-1.971-1.009-2.7-1.275c-0.099-0.115-0.182-0.207-0.25-0.274c-0.467-0.467-1.25-1.051-2.35-1.75
	c-1.089-0.666-1.889-1.166-2.4-1.5c0.949,0.263,1.732,0.513,2.35,0.75c2.584,0.985,4.792,1.811,6.625,2.475
	c0.157,0.06,0.315,0.117,0.475,0.175c1.366,0.49,2.5,0.882,3.4,1.175l1.05,0.351c0.216,0.06,0.407,0.109,0.575,0.149L33.4,49.5
	c0.495,0.135,0.995,0.26,1.5,0.375c3.598,0.813,7.415,1.088,11.45,0.825c2.334-0.101,4.117-0.184,5.351-0.25
	c2.2-0.101,3.967-0.3,5.3-0.601c1.866-0.399,3.934-1.483,6.2-3.25c1.104-0.862,2.087-1.588,2.95-2.175
	c1.156-0.795,2.09-1.337,2.8-1.625c0.8-0.3,2.233-0.616,4.3-0.95c1.9-0.3,3.366-0.699,4.4-1.199
	c4.979-2.262,8.538-4.22,10.675-5.875l0.625-0.525c0.643-0.549,1.109-1.065,1.399-1.55c0.166-0.275,0.357-0.65,0.575-1.125
	c0.006,0.036,0.015,0.077,0.025,0.125c0.054,0.23,0.112,0.497,0.175,0.8c-0.079,0.104-0.154,0.221-0.225,0.35
	C90.2,34.316,89.6,35.434,89.1,36.2c-0.256,0.419-0.681,1.077-1.274,1.975c-3.508,1.521-5.434,2.313-5.775,2.375
	c-1.2,0.334-2.6,1.417-4.2,3.25c-0.136,0.153-0.202,0.953-0.199,2.4L72.3,44.25v0.05c-1.899-0.566-3.916,0.9-6.05,4.4
	c-0.194,0.316-0.312,1.6-0.35,3.85c-0.522-1.801-1.022-2.567-1.5-2.3c-1.632,0.949-2.924,1.883-3.875,2.8
	c-0.11,0.12-0.219,0.236-0.325,0.351l-4.55,1.35l-5.15,2.5C49.646,56.081,48.896,55.531,48.25,55.6z M68.3,50.525
	c0.037-0.077,0.079-0.152,0.125-0.226c0.052,0.018,0.109,0.035,0.175,0.05L68.3,50.525z M55.65,54.75l4.875-1.7L55.65,54.75z"/>
<path style="fill-rule:evenodd;clip-rule:evenodd;fill:#AF9041;" d="M88.95,34.25l-0.625,0.525
	c-2.137,1.655-5.695,3.613-10.675,5.875c-1.034,0.5-2.5,0.899-4.4,1.199c-2.066,0.334-3.5,0.65-4.3,0.95
	c-0.71,0.288-1.644,0.83-2.8,1.625c-0.863,0.587-1.847,1.313-2.95,2.175c-2.267,1.767-4.334,2.851-6.2,3.25
	c-1.333,0.301-3.1,0.5-5.3,0.601c-1.233,0.066-3.017,0.149-5.351,0.25c-4.035,0.263-7.852-0.012-11.45-0.825
	c-0.505-0.115-1.005-0.24-1.5-0.375l-0.075-0.025c-0.168-0.04-0.359-0.09-0.575-0.149l-1.05-0.351
	c-0.901-0.293-2.034-0.685-3.4-1.175c-0.159-0.058-0.317-0.115-0.475-0.175c-1.833-0.664-4.041-1.489-6.625-2.475
	c-0.618-0.237-1.401-0.487-2.35-0.75c-0.058-0.018-0.116-0.034-0.175-0.051c-0.082-0.026-0.165-0.052-0.25-0.074
	c-0.903-0.238-1.945-0.488-3.125-0.75c-0.139-0.035-0.281-0.068-0.425-0.101c-0.486-0.105-0.995-0.214-1.525-0.325
	c-1.299-0.27-3.058-0.919-5.275-1.949c-0.785-0.359-1.627-0.769-2.525-1.226C5.533,39.917,5.517,39.908,5.5,39.9
	C1.9,38.066,0.067,36.8,0,36.1C-0.1,34.733,1.333,32.7,4.3,30c-1.1,1.934-1.45,3.65-1.05,5.15C3.683,35.217,4,35.233,4.2,35.2
	c-0.034,0.166-0.017,0.45,0.05,0.85c0.033,0.4,0.033,0.684,0,0.851c0.267,0.1,0.583,0.366,0.95,0.8c0.466,0.533,0.783,0.866,0.95,1
	c0.467,0.333,1.017,0.566,1.65,0.7c0.767,0.1,1.4,0.199,1.9,0.3c0.133,0.767,0.966,1.3,2.5,1.6c0.1,0,1.216,0.117,3.35,0.351
	c1,0.1,2.133,0.366,3.4,0.8c1.7,0.566,2.8,0.916,3.3,1.05c2.5,0.6,5.9,1.684,10.2,3.25c0.463,0.165,1.039,0.266,1.725,0.3H34.2
	c0.427,0.018,0.777,0.034,1.05,0.05c0.253,0.018,0.436,0.034,0.55,0.051c1.267,0.3,2.4,0.449,3.4,0.449c0.733,0,2.133,0.134,4.2,0.4
	c1.867,0.2,3.3,0.267,4.3,0.2c0.033,0,0.6-0.084,1.7-0.25c0.633-0.101,1.233-0.101,1.8,0c1.033,0.166,1.899,0.233,2.6,0.2
	c0.634-0.034,1.467-0.167,2.5-0.4c0.767-0.1,1.334-0.167,1.7-0.2c0.7-0.1,1.217-0.3,1.55-0.6c0.267-0.233,0.483-0.667,0.65-1.3
	c0.166-0.5,0.5-0.9,1-1.2c0.166-0.101,0.434-0.117,0.8-0.05c0.4,0.066,0.667,0.066,0.8,0c0.367-0.167,0.733-0.4,1.101-0.7
	c0.566-0.467,0.866-0.717,0.899-0.75c0.601-0.467,1.65-1.066,3.15-1.8c0.833-0.367,1.633-0.634,2.399-0.801
	c0.967-0.133,1.767-0.267,2.4-0.399c0.937-0.057,1.704-0.224,2.3-0.5c0.613-0.276,1.013-0.651,1.2-1.125
	c0.313-0.102,0.646-0.21,1-0.325c-0.042-0.153-0.083-0.286-0.125-0.4c1.716-0.384,2.975-0.685,3.775-0.899
	c1.533-0.434,2.649-1.267,3.35-2.5c1.566,0.033,2.85-0.117,3.85-0.45l2.15-0.95C89.949,33.262,89.516,33.745,88.95,34.25z"/>
<path style="fill-rule:evenodd;clip-rule:evenodd;fill:#7E3C2C;" d="M90.2,31.775c-0.569,0.317-1.062,0.576-1.476,0.774
	c0.079-0.07,0.153-0.137,0.226-0.2L89,32.275c0.146-0.134,0.254-0.268,0.325-0.4C89.619,31.858,89.911,31.825,90.2,31.775z
	 M87.025,29.975c-0.165-0.022-0.331-0.039-0.5-0.05c-0.042-0.103-0.092-0.202-0.15-0.3C86.646,29.739,86.862,29.855,87.025,29.975z
	 M78.025,27.925c0.017,0.203,0.024,0.527,0.024,0.975c-0.014,0.182-0.014,0.348,0,0.5v0.05c0.029,0.19,0.079,0.357,0.15,0.5
	c-0.75,0.022-1.267,0.197-1.55,0.524c-0.531-0.962-1.248-2.02-2.15-3.175c-2.2-2.867-3.2-5.167-3-6.9
	c1.667,1.067,3.816,2.633,6.45,4.7c0-0.267-0.066-0.617-0.2-1.05c-0.167-0.667-0.267-1.033-0.3-1.1c0.967,0.033,2.133,0.3,3.5,0.8
	c1.533,0.6,2.533,1.25,3,1.95c0.2,0.3,0.333,0.85,0.399,1.65c0.012,0.123,0.028,0.239,0.051,0.35c-0.154-0.089-0.321-0.173-0.5-0.25
	c-0.934-0.4-1.917-0.55-2.95-0.45l1,1c-1.033-0.433-2.351-0.5-3.95-0.2v0.05L78.025,27.925z M75.875,32.95
	c-0.585,0.397-0.46,0.931,0.375,1.6c0.222,0.228,0.438,0.41,0.65,0.55c0.042,0.076,0.092,0.151,0.149,0.226
	c-0.254,0.28-0.471,0.473-0.649,0.575c-0.183,0.097-0.35,0.18-0.5,0.25c-0.054-0.046-0.12-0.079-0.2-0.101
	c-0.2-0.066-0.484-0.1-0.851-0.1c0.011,0.015,0.019,0.031,0.025,0.05H74.85v-0.05c-0.009-0.149-0.009-0.316,0-0.5
	c0.067-0.634,0-1.084-0.199-1.351c-0.221-0.3-0.504-0.542-0.851-0.725c-0.042-0.105-0.092-0.197-0.149-0.275
	c-0.154-0.209-0.337-0.393-0.551-0.55c-0.307-0.203-0.673-0.353-1.1-0.45c-0.434,0.233-0.967,0.4-1.6,0.5l0.55,0.4
	c-0.221,0.096-0.404,0.229-0.55,0.4c-0.216,0.252-0.35,0.585-0.4,1c-0.118,0.056-0.234,0.122-0.35,0.199
	c-0.4,0.267-0.95,1.117-1.65,2.551c-0.6,1.267-1.366,2.033-2.3,2.3c-0.267,0.1-0.717,0.1-1.351,0c-0.633-0.066-1.1-0.066-1.399,0
	c-0.634,0.2-1.217,0.666-1.75,1.399c-0.167,0.167-0.584,0.801-1.25,1.9c-0.127-0.142-0.269-0.25-0.425-0.325
	c0.005-0.345-0.003-0.67-0.025-0.975c-0.168-1.73-0.66-2.756-1.475-3.075c-0.258-0.55-0.616-0.892-1.075-1.025l-0.476-0.05
	c0.111-0.722,0.236-1.488,0.375-2.3c0.063-0.366,0.121-0.725,0.176-1.075c0.12,0.018,0.253,0.018,0.399,0
	c0.058,0.477,0.283,0.785,0.675,0.925c0.434,0.2,0.834,0.051,1.2-0.449c0.367-0.567,0.483-1.467,0.351-2.7l-0.926-0.325
	c-0.017-0.209-0.041-0.435-0.074-0.675l-0.2-0.101v0.025l-0.8-0.275c-0.037,0.037-0.07,0.07-0.101,0.101
	c0.182-1.416,0.299-2.616,0.351-3.6c0.033-1.434,0.083-2.533,0.149-3.3c0.066-1.333,0.283-2.367,0.65-3.1c0.5,1,0.816,2.2,0.95,3.6
	c0.066,0.733,0.083,1.967,0.05,3.7c0.1-0.467,0.233-1.467,0.399-3c0.101-1.267,0.284-2.217,0.551-2.85
	c0.699,1.967,1.283,4.883,1.75,8.75c0.533,4.133,1.033,7.033,1.5,8.699c0.052-0.594,0.085-1.46,0.1-2.6
	c0.042,0.02,0.084,0.036,0.125,0.05l0.25,0.101c0.087,0.03,0.17,0.055,0.25,0.074c0.012,0.197,0.037,0.405,0.075,0.625
	c1.399,0.767,2.416,0.534,3.05-0.699c0.596-1.132,0.37-1.757-0.675-1.875C67.151,34.342,66.677,34,65.65,34H65.3
	c-0.57-0.104-0.995,0.013-1.274,0.35c-0.014-1.388-0.039-3.021-0.075-4.899c0.237,0.455,0.588,0.822,1.05,1.1
	c0.27,0.468,0.669,0.835,1.2,1.101C66.1,31.283,66.033,30.8,66,30.2c-0.1-0.767-0.233-1.367-0.4-1.8h-0.725
	c-0.08-0.397-0.172-0.731-0.275-1H63.95c0.01-3.209,0.21-5.859,0.6-7.95c1.066,3.7,1.967,6.383,2.7,8.05
	c0.134,0.367,0.533,1.217,1.2,2.55c0.5,1.033,0.85,1.884,1.05,2.55c0.097-1.381-0.162-3.306-0.775-5.774
	c0.22,0.382,0.512,0.64,0.875,0.775c0.02,0.036,0.036,0.069,0.051,0.1c0.466,0.933,1.333,1.233,2.6,0.9
	c0.667-1.167,0.566-2.033-0.3-2.6l-0.3-0.1c-0.091-0.354-0.324-0.654-0.7-0.9l-1-0.3c-0.905,0.255-1.389,0.655-1.45,1.2
	c-0.563-2.408-0.831-4.224-0.8-5.45c1.7,1.5,3.5,3.683,5.399,6.55c0.88,1.346,2.088,3.213,3.625,5.6
	C76.334,32.64,76.051,32.756,75.875,32.95z M32.675,33.15c0.063,0.291,0.271,0.558,0.625,0.8c0.733,0.5,1.367,0.45,1.9-0.15
	c0.533-0.6,0.45-1.2-0.25-1.8l-0.425-0.2c-0.072-0.267-0.264-0.533-0.575-0.8l-0.65-0.3c-0.086-0.008-0.169-0.008-0.25,0
	c0.837-1.16,1.72-2.494,2.65-4c0.5-0.833,1.267-1.867,2.3-3.1c1.267-1.5,2.083-2.517,2.45-3.05c1.267-1.7,2.15-2.816,2.65-3.35
	c1.333-1.4,2.45-2.05,3.35-1.95c0.166,3.6-0.217,7.817-1.15,12.65c-0.667,3.4-1.716,7.567-3.15,12.5
	c0.552-0.954,1.068-1.888,1.55-2.801c-0.251,0.91,0.057,1.468,0.925,1.676c0.051,0.617,0.51,0.976,1.375,1.074
	c1,0.101,1.616-0.267,1.85-1.1c0.134-0.467,0.167-1.316,0.101-2.55l-0.976,0.225c0.009-0.355,0-0.764-0.024-1.225l-0.3,0.05v0.025
	l-1,0.225c-0.581-0.039-1.039,0.12-1.375,0.475c1.82-3.758,2.978-7.216,3.475-10.375c0.267-1.934,0.816-3.65,1.65-5.15
	c1.199-2.067,2.633-2.9,4.3-2.5c0.033,0.6,0,1.283-0.101,2.05c-0.028,0.188-0.07,0.413-0.125,0.675L53.45,21.15L53.3,21
	c-1.267,0.567-2.017,1.233-2.25,2c-0.104,0.281-0.137,0.54-0.1,0.775c0.059,0.681,0.392,0.998,1,0.95
	c0.044,0.304,0.21,0.563,0.5,0.775c0.5,0.367,0.983,0.317,1.45-0.15c0.533-0.533,0.783-1.533,0.75-3L54.3,22
	c-0.244,0.109-0.47,0.226-0.675,0.35c0.01-0.125,0.019-0.25,0.025-0.375c0.674-0.834,1.207-1.476,1.6-1.925
	c0.8-0.9,1.583-1.583,2.35-2.05c0.067,0.6,0.017,1.3-0.149,2.1c-0.101,0.467-0.267,1.15-0.5,2.05c-0.334,1.767-0.684,4.9-1.05,9.4
	c-0.134,1.566-0.2,3.5-0.2,5.8c0,0.73,0,1.672,0,2.825c-0.016,0.068-0.032,0.126-0.05,0.175c-0.067,0.2-0.317,0.634-0.75,1.301
	c-0.367,0.533-0.567,0.983-0.601,1.35c-0.004,0.118-0.004,0.235,0,0.35c-0.465-0.426-0.748-1.159-0.85-2.199
	c-0.167-1.801-0.3-2.801-0.4-3c-1.033,0.199-2.083,1.199-3.149,3c-1.034,1.733-1.517,3.216-1.45,4.449
	c-1.334-2.433-2.733-2.833-4.2-1.199c0-0.109-0.033-0.259-0.1-0.45c0.138-0.072,0.254-0.172,0.35-0.3c0.3-0.4,0.35-0.95,0.15-1.65
	c-0.449,0.112-0.808,0.287-1.075,0.525c0.231-0.381,0.256-0.89,0.075-1.525c-1.066,0.267-1.617,0.917-1.65,1.95
	c0.582,0.166,1.023,0.124,1.325-0.125c-0.069,0.108-0.127,0.225-0.175,0.35l-1.9-0.024c0.033-0.667-0.167-1.067-0.6-1.2
	c-0.433-0.101-0.9,0.05-1.4,0.45c-0.032-0.578-0.032-1.553,0-2.926c0.208-0.454,0.217-0.812,0.025-1.074
	c-0.007-0.938-0.048-1.688-0.125-2.25c-0.443,0.102-0.959,0.368-1.55,0.8l-0.65-0.601c-0.733,0.167-1.184,0.634-1.35,1.4
	c-0.101,0.384-0.092,0.709,0.025,0.975c-1.366,1.421-2.491,2.229-3.375,2.426c0.233-1.067-0.1-1.517-1-1.351
	c-0.6,0.134-1.333,0.483-2.2,1.05c-0.133-0.699-0.483-1-1.05-0.899c-0.3,0.066-0.85,0.2-1.65,0.399
	c-0.406-0.031-0.897-0.223-1.475-0.574c0.897-0.661,1.372-1.469,1.425-2.426l-0.175-0.399c1.657-0.663,3.333-1.946,5.025-3.851
	c0.199-0.228,0.399-0.469,0.6-0.725c0.106,0.205,0.29,0.396,0.55,0.575C32.428,33.037,32.553,33.104,32.675,33.15z M16.65,20.95
	l-0.1-0.025V20.9c1.5-1.091,2.8-2.075,3.9-2.95c0.185-0.013,0.377-0.055,0.575-0.125c-0.119,0.229-0.211,0.487-0.275,0.775
	c0.533,0.033,1.083-0.15,1.65-0.55c0.5-0.367,0.917-0.816,1.25-1.35h-0.7c-0.129,0.007-0.254,0.023-0.375,0.05
	c0.194-0.218,0.37-0.452,0.525-0.7h-0.425c2.934-2.667,5.208-4.55,6.825-5.65c0.438-0.299,0.872-0.574,1.3-0.825
	c-0.244,0.151-0.494,0.309-0.75,0.475c-0.167,0.233-0.833,1.184-2,2.85c-0.8,1.167-1.5,2.067-2.1,2.7c-0.4,0.4-1.1,0.917-2.1,1.55
	c-0.967,0.6-1.667,1.117-2.1,1.55c-0.3,0.3-0.767,0.8-1.4,1.5c-0.6,0.667-1.083,1.167-1.45,1.5c-0.633,0.6-1.833,1.517-3.6,2.75
	c-1.533,1.2-2.55,2.267-3.05,3.2c0.744-0.182,1.561-0.532,2.45-1.05c0.002,0.052,0.002,0.103,0,0.15v0.075c0,0.047,0,0.097,0,0.15
	c-0.008,0.11-0.008,0.219,0,0.325c0.345,0.079,0.687,0.121,1.025,0.125c-0.039,0.276-0.047,0.568-0.025,0.875
	c1.167,0.267,2.283,0.133,3.35-0.4c1.2-0.566,1.833-1.417,1.9-2.55l-0.65-1c-0.12,0.01-0.236,0.018-0.35,0.025V24.35l-0.25-0.4
	l-0.4-0.6c-0.129,0.011-0.254,0.019-0.375,0.025c2.148-1.968,3.673-3.343,4.575-4.125c2.933-2.533,4.833-4.283,5.7-5.25
	c1-1.067,1.966-1.717,2.9-1.95c0.667-0.167,1.867-0.2,3.6-0.1c-0.034,0.8-0.55,1.783-1.55,2.95c-0.566,0.6-1.367,1.467-2.4,2.6
	c-0.9,1.267-2.183,2.85-3.85,4.75c-2.033,2.3-3.35,3.833-3.95,4.6c0.933-0.9,2.316-2.3,4.15-4.2c1.833-1.9,3.217-3.3,4.15-4.2
	c3.133-2.967,5.617-4.467,7.45-4.5c0.333,1.667-0.233,3.767-1.7,6.3c-0.833,1.367-2.1,3.217-3.8,5.55
	c-0.903,1.361-1.903,2.744-3,4.15c0.057-0.108,0.107-0.225,0.15-0.351c0.404-1.305,0.129-2.047-0.825-2.225
	c-0.076-0.618-0.484-0.959-1.225-1.025h-1.65c-0.872,0.299-1.456,0.766-1.75,1.4c-0.216,0.408-0.282,0.799-0.2,1.175
	c0.057,0.57,0.398,0.979,1.025,1.226c0.18,0.647,0.788,1.048,1.825,1.199c0.737,0.105,1.345-0.003,1.825-0.324
	c-1.372,1.711-2.88,3.461-4.525,5.25L25.3,35c-0.175,0.048-0.342,0.099-0.5,0.15L24.3,34c-0.876,0.241-1.634,0.499-2.275,0.775
	C22.014,34.73,22.006,34.689,22,34.65c-0.9,0.024-1.983,0.207-3.25,0.55c0.133-0.203,0.2-0.471,0.2-0.8
	c-0.833-0.101-1.383-0.117-1.65-0.051h-1c-0.2,0.267-0.316,0.434-0.35,0.5c-0.067,0.233-0.034,0.483,0.1,0.75
	c0.333,0.075,0.633,0.125,0.9,0.15c-2.709,0.869-4.192,1.336-4.45,1.4c-0.167-0.601-0.533-0.934-1.1-1
	c-0.333-0.034-0.883-0.051-1.65-0.051C9.617,35.7,9.517,35.467,9.45,35.4l-0.7-0.25c0.033-0.167,0.033-0.434,0-0.801
	C8.683,33.95,8.667,33.667,8.7,33.5c-0.633-0.1-1.617-0.134-2.95-0.1c0.3-0.601,0.45-1.25,0.45-1.95C6,31.417,5.683,31.3,5.25,31.1
	c0.395-0.647,1.061-1.439,2-2.375c0.203,0.035,0.395,0.051,0.575,0.05C7.742,29.03,7.7,29.306,7.7,29.6c0.8,0.233,1.466,0.233,2,0
	c0.6-0.267,0.917-0.8,0.95-1.6l0.65-1.3c-0.621,0.041-1.171,0.149-1.65,0.325V27l0.65-1.3c-0.081,0-0.164,0-0.25,0
	c0.116-0.14,0.215-0.273,0.3-0.4c-0.132,0.09-0.265,0.182-0.4,0.275c0.798-0.586,1.648-1.203,2.55-1.85
	c0.063,0.02,0.122,0.037,0.175,0.05c-0.001,0.163,0.007,0.337,0.025,0.525c0.9,0.233,1.783,0.1,2.65-0.4
	c0.967-0.7,1.733-1.217,2.3-1.55L17.5,21.7l-0.175-0.05L17.2,21.1L16.65,20.95z M76.55,26.35c-0.026-0.191-0.109-0.408-0.25-0.65
	l-0.649-0.35c-1.034,0.1-1.351,0.75-0.95,1.95c0.313,0.1,0.589,0.15,0.825,0.15c0.008,0.241,0.066,0.524,0.175,0.85
	c0.733,0.233,1.267,0.184,1.6-0.15c0.367-0.333,0.367-0.816,0-1.45l-0.649-0.35C76.619,26.353,76.586,26.353,76.55,26.35z
	 M27.125,19.8c0.016-0.322-0.143-0.689-0.475-1.1l-1.7,0.3c-0.5,0.267-0.85,0.517-1.05,0.75l-0.05,0.075
	c-0.457,0.559-0.256,0.9,0.6,1.025c0.1,0.022,0.217,0.04,0.35,0.05c-0.113,0.174-0.129,0.341-0.05,0.5
	c0.133,0.333,0.583,0.5,1.35,0.5c0.767,0.033,1.333-0.133,1.7-0.5c0.467-0.433,0.417-1-0.15-1.7L27.125,19.8z M22.65,30.125
	c0.022-0.315,0.022-0.574,0-0.775L20.7,28.9v0.025L19.65,28.7c-0.9,0.1-1.667,0.383-2.3,0.85c-0.661,0.46-0.994,1.035-1,1.726V31.6
	c0.373,0.032,0.74,0.049,1.1,0.051c-0.107,0.293-0.141,0.609-0.1,0.949c1.167,0.101,2.25,0.067,3.25-0.1c0.8-0.134,1.8-0.417,3-0.85
	c0.066-0.567,0.083-1,0.05-1.301L22.65,30.125z"/>
<path style="fill-rule:evenodd;clip-rule:evenodd;fill:#6F3527;" d="M18.925,23.375c-2.66,0.308-4.068,1.383-4.225,3.225
	c-0.889,0.518-1.706,0.868-2.45,1.05c0.5-0.933,1.517-2,3.05-3.2c1.767-1.233,2.967-2.15,3.6-2.75c0.367-0.333,0.85-0.833,1.45-1.5
	c0.633-0.7,1.1-1.2,1.4-1.5c0.433-0.434,1.133-0.95,2.1-1.55c1-0.633,1.7-1.15,2.1-1.55c0.6-0.633,1.3-1.533,2.1-2.7
	c1.167-1.667,1.833-2.617,2-2.85c0.256-0.166,0.506-0.324,0.75-0.475L33,8.75c-0.308,0.398-0.758,0.915-1.35,1.55
	c-0.1,0.133-0.4,0.55-0.9,1.25c-0.367,0.5-0.717,0.867-1.05,1.1c0.667-0.4,1.566-1.017,2.7-1.85c1.2-0.9,2.1-1.533,2.7-1.9
	c0.733-0.5,1.75-0.983,3.05-1.45c1.7-0.6,2.533-0.483,2.5,0.35c1.767-0.767,3.217-0.917,4.35-0.45c0.7,0.267,1.05,0.8,1.05,1.6
	c0.033,0.233-0.066,0.9-0.3,2C46.65,9.817,48,8.933,49.8,8.3c0.634-0.2,1.351-0.25,2.15-0.15c0.967,0.1,1.434,0.483,1.399,1.15
	c0.7,0.1,1.167,0.184,1.4,0.25c0.4,0.1,0.7,0.417,0.9,0.95c0.133,0.4,0.199,0.95,0.199,1.65c0,0.367-0.017,0.917-0.05,1.65
	c1.101-1.733,1.917-2.716,2.45-2.95c0.467,0.867,0.717,2.133,0.75,3.8c0.033,0.267,0.017,1.583-0.05,3.95
	c0.1-0.233,0.217-1.2,0.35-2.9c0.134-1.367,0.434-2.25,0.9-2.65c0.833-0.733,1.45-0.617,1.85,0.35c0.2,0.5,0.384,1.25,0.55,2.25
	l0.25-0.25c0.4,1.333,0.551,2.633,0.45,3.9c0.233-0.533,0.367-1.3,0.4-2.3c-0.033-1.167-0.05-2-0.05-2.5
	c0.666-0.167,1.267,0.417,1.8,1.75c0.452,1.033,0.686,1.958,0.7,2.775V15.65c0.666,0.5,1.25,1.167,1.75,2
	c0.3,0.467,0.716,1.283,1.25,2.45v-2.25c0.933,0.1,2.083,0.7,3.449,1.8c0.733,0.533,1.351,0.817,1.851,0.85
	c0.166-0.333,0.333-0.5,0.5-0.5c0.366-0.033,0.816,0.1,1.35,0.4c1.934,0.767,3.983,1.883,6.15,3.35c0.1,0.067,0.5,0.267,1.2,0.6
	c0.566,0.267,0.899,0.483,1,0.65c0.166,0.233,0.233,0.717,0.199,1.45c-0.033,0.667,0.067,1.117,0.301,1.35
	C85.283,27.933,85.5,28,85.8,28c0.334,0,0.566,0.05,0.7,0.15s0.417,0.533,0.85,1.3c0.101,0.133,0.25,0.283,0.45,0.45
	c0.093,0.069,0.176,0.186,0.25,0.35c-0.332-0.127-0.674-0.219-1.024-0.275c-0.163-0.119-0.38-0.235-0.65-0.35
	c-0.212-0.351-0.529-0.65-0.95-0.9c-0.129-0.246-0.304-0.471-0.524-0.675c-0.149-0.124-0.316-0.241-0.5-0.35
	c-0.022-0.111-0.039-0.228-0.051-0.35c-0.066-0.8-0.199-1.35-0.399-1.65c-0.467-0.7-1.467-1.35-3-1.95
	c-1.367-0.5-2.533-0.767-3.5-0.8c0.033,0.066,0.133,0.433,0.3,1.1c0.134,0.434,0.2,0.784,0.2,1.05
	c-2.634-2.067-4.783-3.633-6.45-4.7c-0.2,1.733,0.8,4.033,3,6.9c0.902,1.155,1.619,2.213,2.15,3.175
	c-0.135,0.161-0.219,0.353-0.25,0.575c-0.099,0.653,0.285,1.162,1.149,1.525V32.6c-0.316-0.029-0.592-0.029-0.825,0
	c-1.537-2.387-2.745-4.253-3.625-5.6C71.2,24.133,69.4,21.95,67.7,20.45c-0.031,1.226,0.236,3.042,0.8,5.45
	c-0.032,0.24,0.019,0.506,0.15,0.8c0.022,0.045,0.048,0.087,0.074,0.125c0.613,2.469,0.872,4.394,0.775,5.774
	c-0.2-0.666-0.55-1.517-1.05-2.55c-0.667-1.333-1.066-2.183-1.2-2.55c-0.733-1.667-1.634-4.35-2.7-8.05
	c-0.39,2.09-0.59,4.74-0.6,7.95H63.7c-0.167,0.7-0.101,1.35,0.2,1.95c0.017,0.036,0.033,0.069,0.05,0.101
	c0.036,1.878,0.062,3.512,0.075,4.899c-0.091,0.101-0.166,0.217-0.226,0.351c-0.029,0.074-0.055,0.149-0.075,0.225
	c-0.13,0.465-0.138,1.022-0.024,1.675c0.104,0.058,0.204,0.107,0.3,0.15c-0.015,1.14-0.048,2.006-0.1,2.6
	c-0.467-1.666-0.967-4.566-1.5-8.699c-0.467-3.867-1.051-6.784-1.75-8.75c-0.267,0.633-0.45,1.583-0.551,2.85
	c-0.166,1.533-0.3,2.533-0.399,3c0.033-1.733,0.017-2.967-0.05-3.7c-0.134-1.4-0.45-2.6-0.95-3.6c-0.367,0.733-0.584,1.767-0.65,3.1
	c-0.066,0.767-0.116,1.867-0.149,3.3c-0.052,0.984-0.169,2.184-0.351,3.6c-0.734,0.767-1.118,1.5-1.149,2.2c0,0.06,0,0.117,0,0.175
	c-0.05,0.66,0.159,1.027,0.625,1.1c-0.055,0.351-0.113,0.709-0.176,1.075c-0.139,0.812-0.264,1.578-0.375,2.3H56.45
	c-0.159-0.006-0.326,0.011-0.5,0.05V37.7c-0.066,0.267-0.117,0.7-0.15,1.3c0,0.517-0.033,0.909-0.1,1.175c0-1.153,0-2.095,0-2.825
	c0-2.3,0.066-4.233,0.2-5.8c0.366-4.5,0.716-7.633,1.05-9.4c0.233-0.9,0.399-1.583,0.5-2.05c0.166-0.8,0.217-1.5,0.149-2.1
	c-0.767,0.467-1.55,1.15-2.35,2.05c-0.393,0.449-0.926,1.091-1.6,1.925c0.005-0.204,0.005-0.412,0-0.625l-0.176-0.175
	c0.055-0.262,0.097-0.487,0.125-0.675c0.101-0.767,0.134-1.45,0.101-2.05c-1.667-0.4-3.101,0.433-4.3,2.5
	c-0.834,1.5-1.384,3.216-1.65,5.15c-0.497,3.159-1.655,6.617-3.475,10.375c-0.257,0.255-0.449,0.613-0.575,1.075v0.05
	c-0.482,0.913-0.999,1.847-1.55,2.801c1.434-4.934,2.483-9.101,3.15-12.5c0.934-4.833,1.316-9.05,1.15-12.65
	c-0.9-0.1-2.017,0.55-3.35,1.95c-0.5,0.533-1.383,1.65-2.65,3.35c-0.367,0.534-1.184,1.55-2.45,3.05c-1.033,1.233-1.8,2.267-2.3,3.1
	c-0.93,1.506-1.813,2.84-2.65,4c-0.598,0-1.015,0.25-1.25,0.75c-0.176,0.333-0.193,0.642-0.05,0.925
	c-0.201,0.256-0.401,0.497-0.6,0.725c-1.692,1.904-3.368,3.188-5.025,3.851l-0.275-0.675c1.645-1.789,3.153-3.539,4.525-5.25
	c0.279-0.364,0.554-0.723,0.825-1.075c1.097-1.406,2.097-2.79,3-4.15c1.7-2.333,2.966-4.183,3.8-5.55
	c1.467-2.533,2.033-4.633,1.7-6.3c-1.833,0.033-4.317,1.533-7.45,4.5c-0.933,0.9-2.317,2.3-4.15,4.2c-1.833,1.9-3.217,3.3-4.15,4.2
	c0.6-0.767,1.917-2.3,3.95-4.6c1.667-1.9,2.95-3.483,3.85-4.75c1.033-1.133,1.833-2,2.4-2.6c1-1.167,1.517-2.15,1.55-2.95
	c-1.733-0.1-2.934-0.067-3.6,0.1c-0.934,0.233-1.9,0.883-2.9,1.95c-0.867,0.967-2.767,2.717-5.7,5.25
	C22.598,20.032,21.073,21.407,18.925,23.375z M91,30.175c0.114,0.199,0.164,0.408,0.15,0.625L91.1,30.825
	C91.119,30.583,91.086,30.366,91,30.175z M87.65,27.5l0.1,0.075c0.104,0.095,0.236,0.204,0.4,0.325c0.464,0.361,1.163,0.861,2.1,1.5
	c0.062,0.042,0.12,0.084,0.175,0.125C89.377,28.913,88.452,28.238,87.65,27.5z M61.45,23.3c0.2,1.633,0.6,3.017,1.2,4.15
	c0.1-2,0.133-3.534,0.1-4.6c0-1.867-0.316-3.317-0.95-4.35L61.3,19C61.3,20.933,61.35,22.367,61.45,23.3z M76.3,22.35l-1.3-0.5
	c0.3,0.633,0.684,1.133,1.15,1.5c0.3,0.233,0.85,0.6,1.649,1.1C77.767,23.783,77.267,23.083,76.3,22.35z M48.8,17.35
	c-0.866,0.433-1.45,1.733-1.75,3.9c-0.166,1.167-0.283,2.733-0.35,4.7c-0.066,0.633-0.134,1.566-0.2,2.8
	c-0.033,0.2-0.05,0.4-0.05,0.6c0.133-0.533,0.3-1.116,0.5-1.75c0.566-1.733,0.95-3.033,1.149-3.9c0.2-0.733,0.45-2.034,0.75-3.9
	c0.267-1.667,0.534-2.933,0.801-3.8L48.8,17.35z M41.15,16.65c-0.633,0.9-1.066,1.8-1.3,2.7c0.7-0.333,1.4-0.9,2.1-1.7
	c0.733-0.833,1.183-1.6,1.35-2.3l-0.15-1C42.217,15.35,41.55,16.117,41.15,16.65z M37,13.95c1.6-1.7,2.983-3.017,4.15-3.95l-4.5,2.7
	c-0.4,0.5-0.983,1.316-1.75,2.45c-0.767,1.1-1.367,1.917-1.8,2.45c0.433-0.5,1.083-1.117,1.95-1.85
	C35.983,14.983,36.633,14.383,37,13.95z"/>
<path style="fill-rule:evenodd;clip-rule:evenodd;fill:#4D251C;" d="M33,8.75c0.153-0.218,0.27-0.401,0.35-0.55
	c1.6-0.7,3.133-1.15,4.6-1.35c0.179-0.024,0.362-0.049,0.55-0.075c2.964-0.342,6.147-0.25,9.55,0.275
	c0.497,0.073,0.997,0.156,1.5,0.25c0.086,0.016,0.169,0.033,0.25,0.05l3.95,0.925c0.061,0.017,0.118,0.033,0.175,0.05l5.775,1.9
	c0.13,0.048,0.264,0.098,0.399,0.15L60.15,10.4c6.466,2.467,13.149,6,20.05,10.6c0.025,0.018,0.051,0.034,0.075,0.05
	c0.021,0.015,0.037,0.031,0.05,0.05c0.12,0.076,0.236,0.159,0.35,0.25c0.026,0.015,0.052,0.031,0.075,0.05
	c0.925,0.669,2.008,1.569,3.25,2.7c0.306,0.282,0.655,0.607,1.05,0.975c0.719,0.667,1.586,1.475,2.601,2.425
	c0.802,0.738,1.727,1.413,2.774,2.025c0.042,0.025,0.084,0.051,0.125,0.074c0.211,0.164,0.361,0.356,0.45,0.575
	c0.086,0.191,0.119,0.408,0.1,0.65c-0.003,0.138-0.028,0.288-0.074,0.45c-0.036,0.104-0.077,0.212-0.125,0.324
	c-0.231,0.068-0.464,0.127-0.7,0.176c-0.289,0.05-0.581,0.083-0.875,0.1c0.278-0.524,0.036-0.982-0.726-1.375
	c-0.179-0.093-0.362-0.177-0.55-0.25c-0.074-0.164-0.157-0.28-0.25-0.35c-0.2-0.167-0.35-0.317-0.45-0.45
	c-0.433-0.767-0.716-1.2-0.85-1.3S86.134,28,85.8,28c-0.3,0-0.517-0.067-0.649-0.2c-0.233-0.233-0.334-0.683-0.301-1.35
	c0.034-0.733-0.033-1.217-0.199-1.45c-0.101-0.167-0.434-0.383-1-0.65c-0.7-0.333-1.101-0.533-1.2-0.6
	c-2.167-1.467-4.217-2.583-6.15-3.35c-0.533-0.3-0.983-0.433-1.35-0.4c-0.167,0-0.334,0.167-0.5,0.5
	c-0.5-0.033-1.117-0.317-1.851-0.85c-1.366-1.1-2.517-1.7-3.449-1.8v2.25c-0.534-1.167-0.95-1.983-1.25-2.45
	c-0.5-0.833-1.084-1.5-1.75-2v3.375c-0.015-0.816-0.248-1.742-0.7-2.775c-0.533-1.333-1.134-1.917-1.8-1.75
	c0,0.5,0.017,1.333,0.05,2.5c-0.033,1-0.167,1.767-0.4,2.3c0.101-1.267-0.05-2.566-0.45-3.9l-0.25,0.25
	c-0.166-1-0.35-1.75-0.55-2.25c-0.399-0.967-1.017-1.083-1.85-0.35c-0.467,0.4-0.767,1.284-0.9,2.65c-0.133,1.7-0.25,2.667-0.35,2.9
	c0.066-2.367,0.083-3.684,0.05-3.95c-0.033-1.667-0.283-2.933-0.75-3.8c-0.533,0.233-1.35,1.217-2.45,2.95
	c0.033-0.733,0.05-1.283,0.05-1.65c0-0.7-0.066-1.25-0.199-1.65c-0.2-0.533-0.5-0.85-0.9-0.95c-0.233-0.066-0.7-0.15-1.4-0.25
	c0.034-0.667-0.433-1.05-1.399-1.15c-0.8-0.1-1.517-0.05-2.15,0.15c-1.8,0.633-3.149,1.517-4.05,2.65c0.233-1.1,0.333-1.767,0.3-2
	c0-0.8-0.35-1.333-1.05-1.6c-1.133-0.467-2.583-0.317-4.35,0.45c0.033-0.833-0.8-0.95-2.5-0.35c-1.3,0.466-2.316,0.95-3.05,1.45
	c-0.6,0.367-1.5,1-2.7,1.9c-1.133,0.833-2.033,1.45-2.7,1.85c0.333-0.233,0.683-0.6,1.05-1.1c0.5-0.7,0.8-1.117,0.9-1.25
	C32.242,9.665,32.692,9.148,33,8.75z M86.525,29.925c-0.271-0.01-0.545-0.002-0.825,0.025c0.014-0.459-0.078-0.867-0.275-1.225
	c0.421,0.25,0.738,0.549,0.95,0.9C86.434,29.723,86.483,29.822,86.525,29.925z M77.05,35.325c-0.058-0.074-0.107-0.149-0.149-0.226
	c0.969,0.673,1.819,0.464,2.55-0.625L79.6,34.25c0.03-0.065,0.063-0.132,0.101-0.2c0.472,0.25,1.672,0.316,3.6,0.2l-0.6,0.3
	c-0.3,0.2-0.45,0.434-0.45,0.7c-0.7,0-1.217-0.066-1.55-0.2c-0.934,1.733-2.084,1.9-3.45,0.5
	C77.179,35.474,77.112,35.399,77.05,35.325z M76.25,38.325c0.145-0.38,0.153-0.821,0.025-1.325c0.397-0.004,0.64,0.079,0.725,0.25
	c0.039,0.078,0.08,0.194,0.125,0.35c0.042,0.114,0.083,0.247,0.125,0.4C76.896,38.115,76.563,38.224,76.25,38.325z M35.25,47.1
	c-0.273-0.016-0.623-0.032-1.05-0.05h-0.025c-0.07-0.015-0.145-0.031-0.225-0.05c-0.866-0.21-1.391-0.61-1.575-1.2
	c0.171,0.082,0.363,0.148,0.575,0.2c1.3,0.3,2.167,0.05,2.6-0.75c0.4-0.767,0.317-1.733-0.25-2.9v-0.125
	c0.287-0.149,0.62-0.225,1-0.225v1.35c0.567,1.167,0.65,2.134,0.25,2.9C36.282,46.745,35.849,47.028,35.25,47.1z M76.3,22.35
	c0.967,0.733,1.467,1.433,1.5,2.1c-0.8-0.5-1.35-0.867-1.649-1.1c-0.467-0.367-0.851-0.867-1.15-1.5L76.3,22.35z M61.45,23.3
	c-0.101-0.933-0.15-2.367-0.15-4.3l0.5-0.5c0.634,1.033,0.95,2.483,0.95,4.35c0.033,1.066,0,2.6-0.1,4.6
	C62.05,26.317,61.65,24.933,61.45,23.3z M41.15,16.65c0.4-0.533,1.067-1.3,2-2.3l0.15,1c-0.167,0.7-0.617,1.467-1.35,2.3
	c-0.7,0.8-1.4,1.367-2.1,1.7C40.083,18.45,40.517,17.55,41.15,16.65z M48.8,17.35L49.65,16c-0.267,0.867-0.534,2.133-0.801,3.8
	c-0.3,1.867-0.55,3.167-0.75,3.9c-0.199,0.867-0.583,2.167-1.149,3.9c-0.2,0.633-0.367,1.217-0.5,1.75c0-0.199,0.017-0.399,0.05-0.6
	c0.066-1.233,0.134-2.167,0.2-2.8c0.066-1.967,0.184-3.534,0.35-4.7C47.35,19.083,47.934,17.783,48.8,17.35z M77.55,32.575
	c0.016,0.009,0.032,0.018,0.05,0.024h-0.05V32.575z M53.625,22.35c0.205-0.124,0.431-0.241,0.675-0.35l0.351,0.35
	c0.033,1.467-0.217,2.467-0.75,3c-0.467,0.467-0.95,0.517-1.45,0.15c-0.29-0.212-0.456-0.471-0.5-0.775h0.225
	c0.063,0,0.121-0.008,0.175-0.025C53.115,24.509,53.54,23.726,53.625,22.35z M57.425,33.925c0.155,0.013,0.306-0.028,0.45-0.125
	c0.651-0.285,0.935-1.094,0.85-2.425L59.65,31.7c0.133,1.233,0.017,2.133-0.351,2.7c-0.366,0.5-0.767,0.649-1.2,0.449
	C57.708,34.71,57.482,34.401,57.425,33.925z M44.625,39.275c0.111,0.034,0.236,0.059,0.375,0.074c1,0.101,1.616-0.267,1.85-1.1
	c0.084-0.292,0.126-0.733,0.125-1.325L47.95,36.7c0.066,1.233,0.033,2.083-0.101,2.55c-0.233,0.833-0.85,1.2-1.85,1.1
	C45.135,40.251,44.676,39.893,44.625,39.275z M39.275,38.4c0.192,0.263,0.184,0.62-0.025,1.074c-0.031,0.053-0.064,0.111-0.1,0.176
	c-0.467,0.8-1.083,1.033-1.85,0.699c-0.444-0.199-0.694-0.5-0.75-0.899c0.651,0.18,1.184-0.087,1.6-0.8
	c0.19-0.34,0.273-0.632,0.25-0.875L38.65,38C38.934,38.095,39.142,38.228,39.275,38.4z M20,39.075
	c0.174,0.179,0.366,0.32,0.575,0.425v0.025c0.182,0.088,0.374,0.146,0.575,0.175l0.4,0.024c0.172-0.007,0.356-0.031,0.55-0.074
	c0.142-0.042,0.292-0.092,0.45-0.15c0.178-0.07,0.362-0.153,0.55-0.25c1.4-0.733,2.133-1.7,2.2-2.9l-0.125-0.3L24.8,35.15
	c0.158-0.052,0.325-0.103,0.5-0.15l0.55,1.275l0.275,0.675L26.3,37.35c-0.053,0.957-0.528,1.765-1.425,2.426
	c-0.232,0.167-0.491,0.326-0.775,0.475c-1.5,0.767-2.633,0.583-3.4-0.55c-0.042-0.063-0.084-0.121-0.125-0.175
	C20.367,39.415,20.175,39.265,20,39.075z M18.75,35.2c1.267-0.343,2.35-0.525,3.25-0.55c0.006,0.039,0.014,0.08,0.025,0.125
	c0.046,0.513-0.054,1.063-0.3,1.649c-0.121,0.075-0.238,0.149-0.35,0.226c-0.201-0.135-0.409-0.302-0.625-0.5
	c-0.167-0.233-0.25-0.417-0.25-0.551c-1.057,0.732-1.432,1.549-1.125,2.45c-0.226-0.614-0.126-1.189,0.3-1.725
	c-0.422,0.48-1.297,0.572-2.625,0.274c-0.133-0.267-0.167-0.517-0.1-0.75c0.011-0.021,0.027-0.055,0.05-0.1
	c0.804,0.067,1.362-0.082,1.675-0.45C18.701,35.27,18.726,35.235,18.75,35.2z M43.575,42.525c0.267-0.238,0.625-0.413,1.075-0.525
	c0.2,0.7,0.15,1.25-0.15,1.65c-0.096,0.128-0.212,0.228-0.35,0.3c-0.291,0.136-0.674,0.136-1.15,0
	c0.009-0.284,0.059-0.542,0.15-0.775c0.048-0.125,0.106-0.241,0.175-0.35c0.065-0.049,0.124-0.107,0.175-0.175
	C43.527,42.613,43.552,42.571,43.575,42.525z M58.025,38.375c0.814,0.319,1.307,1.345,1.475,3.075
	c0.022,0.305,0.03,0.63,0.025,0.975c0.016,1.179-0.093,2.57-0.325,4.175c-1.066,0.233-1.983,0.117-2.75-0.35
	c-0.393-0.245-0.685-0.546-0.875-0.9H55.6c0.767,0.4,1.634,0.483,2.601,0.25c0.217-1.493,0.325-2.801,0.325-3.925V41.3
	c0.003-0.298-0.006-0.581-0.025-0.85c-0.017-0.167-0.033-0.325-0.05-0.476l-0.075-0.449C58.292,39.078,58.175,38.695,58.025,38.375z
	 M75.525,27.45c0.325-0.01,0.584-0.109,0.774-0.3c0.227-0.206,0.311-0.473,0.25-0.8c0.036,0.003,0.069,0.003,0.101,0L77.3,26.7
	c0.367,0.633,0.367,1.117,0,1.45c-0.333,0.333-0.866,0.383-1.6,0.15C75.592,27.975,75.533,27.691,75.525,27.45z M69.6,27.6
	c0.447,0.172,0.997,0.172,1.65,0c0.291-0.509,0.44-0.959,0.45-1.35c-0.003-0.045-0.003-0.087,0-0.125
	c-0.018-0.081-0.034-0.156-0.05-0.225l0.3,0.1c0.866,0.567,0.967,1.433,0.3,2.6c-1.267,0.333-2.134,0.033-2.6-0.9
	C69.636,27.669,69.619,27.636,69.6,27.6z M71.3,39c-0.024-0.206-0.05-0.406-0.075-0.6c0.156,0.013,0.281,0.013,0.375,0l-0.149,0.25
	C71.396,38.75,71.347,38.867,71.3,39z M74.85,36c-0.417-0.026-0.685-0.127-0.8-0.3c-0.08-0.097-0.139-0.246-0.175-0.45
	c-0.007-0.191,0.002-0.508,0.025-0.95c0.022-0.373-0.011-0.682-0.101-0.925c0.347,0.183,0.63,0.425,0.851,0.725
	c0.199,0.267,0.267,0.717,0.199,1.351c-0.009,0.184-0.009,0.351,0,0.5V36z M65,30.55c0.064,0.032,0.131,0.065,0.2,0.101
	C65.1,30.283,65.033,29.8,65,29.2c-0.038-0.291-0.079-0.558-0.125-0.8H65.6c0.167,0.434,0.301,1.034,0.4,1.8
	c0.033,0.6,0.1,1.083,0.2,1.45C65.669,31.385,65.27,31.018,65,30.55z M67.075,35.025c1.045,0.118,1.271,0.743,0.675,1.875
	c-0.634,1.233-1.65,1.466-3.05,0.699c-0.038-0.22-0.063-0.428-0.075-0.625c0.934,0.225,1.642-0.134,2.125-1.074
	c0.021-0.04,0.038-0.082,0.05-0.125l0.05-0.051c0.106-0.238,0.182-0.447,0.226-0.625C67.071,35.071,67.071,35.046,67.075,35.025z
	 M30.375,31.025c-0.48,0.321-1.088,0.43-1.825,0.324c-1.037-0.151-1.645-0.552-1.825-1.199c0.12,0.044,0.245,0.077,0.375,0.1
	l0.45,0.1c0.286,0.041,0.553,0.05,0.8,0.025c0.705-0.07,1.254-0.403,1.65-1c0.037-0.062,0.07-0.128,0.1-0.2
	c0.268-0.44,0.401-0.865,0.4-1.275c0.033-0.192,0.041-0.368,0.025-0.525c0.954,0.178,1.229,0.919,0.825,2.225
	c-0.043,0.126-0.093,0.242-0.15,0.351C30.929,30.303,30.654,30.661,30.375,31.025z M22.575,16.75
	c0.121-0.026,0.246-0.043,0.375-0.05h0.7c-0.333,0.533-0.75,0.983-1.25,1.35c-0.566,0.4-1.117,0.583-1.65,0.55
	c0.064-0.288,0.156-0.546,0.275-0.775c0.27-0.086,0.545-0.228,0.825-0.425C22.117,17.204,22.359,16.987,22.575,16.75z M27.1,19.975
	c0.01-0.058,0.019-0.116,0.025-0.175l0.525-0.1c0.567,0.7,0.617,1.267,0.15,1.7c-0.367,0.367-0.933,0.533-1.7,0.5
	c-0.767,0-1.217-0.167-1.35-0.5c-0.08-0.159-0.063-0.326,0.05-0.5c0.093,0,0.193,0,0.3,0c0.186,0.008,0.361,0.008,0.525,0
	C26.506,20.829,26.998,20.521,27.1,19.975z M37,13.95c-0.367,0.433-1.017,1.033-1.95,1.8c-0.867,0.733-1.517,1.35-1.95,1.85
	c0.433-0.533,1.033-1.35,1.8-2.45c0.767-1.133,1.35-1.95,1.75-2.45l4.5-2.7C39.983,10.933,38.6,12.25,37,13.95z M12.675,23.775
	c0.253,0.041,0.512,0.049,0.775,0.025c0.4-0.033,0.8-0.133,1.2-0.3c0.133-0.067,0.267-0.133,0.4-0.2l1.7-1.2
	c0.167-0.1,0.333-0.184,0.5-0.25c0-0.033,0.033-0.05,0.1-0.05v-0.05l-0.025-0.1L17.5,21.7l0.15,0.65
	c-0.566,0.333-1.333,0.85-2.3,1.55c-0.867,0.5-1.75,0.633-2.65,0.4C12.682,24.112,12.673,23.938,12.675,23.775z M7.825,28.775
	C8.148,28.772,8.44,28.714,8.7,28.6c0.59-0.263,0.907-0.788,0.95-1.575c0.479-0.175,1.029-0.284,1.65-0.325L10.65,28
	c-0.033,0.8-0.35,1.333-0.95,1.6c-0.534,0.233-1.2,0.233-2,0C7.7,29.306,7.742,29.03,7.825,28.775z M19.95,24.375
	c0.113-0.007,0.23-0.015,0.35-0.025l0.65,1c-0.067,1.133-0.7,1.983-1.9,2.55c-1.066,0.533-2.183,0.667-3.35,0.4
	c-0.022-0.307-0.014-0.599,0.025-0.875c0.799,0.026,1.574-0.149,2.325-0.525C19.238,26.339,19.871,25.498,19.95,24.375z
	 M17.45,31.65c0.753,0.013,1.47-0.037,2.15-0.15c0.8-0.134,1.8-0.417,3-0.85c0.022-0.188,0.039-0.362,0.05-0.525l1,0.225
	c0.033,0.301,0.017,0.733-0.05,1.301c-1.2,0.433-2.2,0.716-3,0.85c-1,0.167-2.083,0.2-3.25,0.1
	C17.309,32.26,17.343,31.943,17.45,31.65z M32.675,33.15c0.577,0.262,1.085,0.145,1.525-0.351c0.296-0.333,0.404-0.666,0.325-1
	L34.95,32c0.7,0.6,0.783,1.2,0.25,1.8c-0.534,0.601-1.167,0.65-1.9,0.15C32.946,33.708,32.738,33.441,32.675,33.15z"/>
<path style="fill-rule:evenodd;clip-rule:evenodd;fill:#C29A74;" d="M89.325,31.875c-0.071,0.133-0.18,0.267-0.325,0.4
	c0.127-0.122,0.227-0.247,0.3-0.375c-1.2,0.466-2.399,0.649-3.6,0.55c-1.101-0.134-1.733-0.717-1.9-1.75
	c-0.166-1.066,0.3-1.8,1.4-2.2h0.05l-0.35-0.45l-0.7,0.5c-1.733,1.066-3.566,1.017-5.5-0.15l-0.65-0.6H78
	c1.6-0.3,2.917-0.233,3.95,0.2l-1-1c1.033-0.1,2.017,0.05,2.95,0.45c0.179,0.077,0.346,0.161,0.5,0.25
	c0.184,0.109,0.351,0.226,0.5,0.35c0.221,0.204,0.396,0.429,0.524,0.675c0.197,0.358,0.289,0.766,0.275,1.225
	c0.28-0.027,0.555-0.035,0.825-0.025c0.169,0.011,0.335,0.027,0.5,0.05c0.351,0.057,0.692,0.148,1.024,0.275
	c0.188,0.073,0.371,0.157,0.55,0.25C89.361,30.893,89.604,31.351,89.325,31.875z M76.9,35.1c-0.212-0.14-0.429-0.322-0.65-0.55
	c0.117,0.098,0.251,0.198,0.4,0.3c1.13,0.803,2.063,0.678,2.8-0.375C78.72,35.563,77.869,35.772,76.9,35.1z M44.625,39.275
	c-0.868-0.208-1.176-0.766-0.925-1.676v-0.05c0.125-0.462,0.317-0.82,0.575-1.075c0.336-0.354,0.794-0.514,1.375-0.475l1-0.225
	c0.063,0.52-0.02,0.928-0.25,1.225c-0.5,0.767-1.301,1.233-2.4,1.4h-0.3C43.809,38.835,44.117,39.127,44.625,39.275z M54.3,43.45
	c0.003-0.029,0.003-0.063,0-0.101c-0.004-0.114-0.004-0.231,0-0.35c0.033-0.366,0.233-0.816,0.601-1.35
	c0.433-0.667,0.683-1.101,0.75-1.301c0.018-0.049,0.034-0.106,0.05-0.175c0.066-0.266,0.1-0.658,0.1-1.175
	c0.033-0.6,0.084-1.033,0.15-1.3V37.35c0.174-0.039,0.341-0.056,0.5-0.05l0.25,0.15c0.467,0.467,0.767,0.866,0.899,1.2
	c0.134,0.433,0.051,1.033-0.25,1.8l-0.25,0.3c0.101,0.167,0.134,0.4,0.101,0.7c-0.033,0.1-0.05,0.333-0.05,0.7
	c-0.034,0.3-0.084,0.533-0.15,0.699c-0.3,0.7-0.85,1.051-1.65,1.051C54.983,43.934,54.634,43.783,54.3,43.45z M57.55,30.45
	c0.03-0.03,0.063-0.063,0.101-0.101l0.8,0.275c-0.007,0.26-0.09,0.519-0.25,0.775c-0.134,0.133-0.3,0.383-0.5,0.75
	c-0.134,0.166-0.334,0.267-0.601,0.3c-0.233,0-0.433-0.066-0.6-0.2c-0.049,0.211-0.082,0.402-0.1,0.575c0-0.058,0-0.115,0-0.175
	C56.432,31.95,56.815,31.217,57.55,30.45z M67.075,35.025c0.005-0.44-0.287-0.749-0.875-0.926V34.2c-0.3,1.033-0.75,1.55-1.351,1.55
	c-0.566,0.033-0.916-0.3-1.05-1c-0.029,0.059-0.054,0.117-0.075,0.175c0.021-0.075,0.046-0.15,0.075-0.225
	c0.06-0.134,0.135-0.25,0.226-0.351c0.279-0.337,0.704-0.453,1.274-0.35h0.351C66.677,34,67.151,34.342,67.075,35.025z M64.875,28.4
	c0.046,0.243,0.087,0.509,0.125,0.8c0.033,0.6,0.1,1.083,0.2,1.45c-0.069-0.035-0.136-0.068-0.2-0.101
	c-0.462-0.277-0.813-0.645-1.05-1.1c-0.017-0.031-0.033-0.064-0.05-0.101c-0.301-0.6-0.367-1.25-0.2-1.95h0.25H64.6
	C64.703,27.669,64.795,28.002,64.875,28.4z M68.725,26.825c-0.026-0.038-0.052-0.08-0.074-0.125c-0.132-0.294-0.183-0.561-0.15-0.8
	c0.062-0.545,0.545-0.945,1.45-1.2l1,0.3c0.376,0.246,0.609,0.546,0.7,0.9c-0.082-0.26-0.232-0.493-0.45-0.7
	c-0.066,0.3-0.233,0.466-0.5,0.5c-0.134,0-0.334,0.066-0.601,0.2c0,0.267-0.166,0.4-0.5,0.4c-0.133,0-0.3-0.066-0.5-0.2L68.9,25.95
	L68.85,25.9l-0.25-0.1c-0.166,0.567,0.017,1.05,0.551,1.45c0.566,0.433,1.267,0.55,2.1,0.35c-0.653,0.172-1.203,0.172-1.65,0
	C69.236,27.465,68.944,27.207,68.725,26.825z M75.875,32.95c0.176-0.194,0.459-0.311,0.85-0.351c0.233-0.029,0.509-0.029,0.825,0
	h0.05c-0.018-0.007-0.034-0.016-0.05-0.024c-0.864-0.363-1.248-0.872-1.149-1.525c0.031-0.223,0.115-0.414,0.25-0.575
	c0.283-0.327,0.8-0.502,1.55-0.524c-0.071-0.143-0.121-0.31-0.15-0.5c0.533,0,0.983,0.2,1.351,0.6c0.366,0.4,0.55,0.867,0.55,1.4
	s-0.2,1-0.601,1.399c-0.399,0.4-0.866,0.601-1.399,0.601H77.7c-0.566,0-1.05-0.233-1.45-0.7
	C76.105,32.812,75.98,32.878,75.875,32.95z M78.05,29.4c-0.014-0.152-0.014-0.318,0-0.5c0-0.448-0.008-0.772-0.024-0.975
	C78.069,28.282,78.078,28.774,78.05,29.4z M53.45,21.15v0.05c-0.5,1.4-1.334,2.15-2.5,2.25c-0.004,0.112-0.004,0.221,0,0.325
	c-0.037-0.235-0.004-0.494,0.1-0.775c0.233-0.767,0.983-1.433,2.25-2L53.45,21.15z M57.425,33.925
	c0.057-0.005,0.114-0.013,0.175-0.024c0.1-0.021,0.191-0.055,0.275-0.101C57.73,33.896,57.58,33.938,57.425,33.925z M37.6,36.95
	L37.65,37c0.474,0.158,0.724,0.416,0.75,0.775c0.023,0.243-0.06,0.535-0.25,0.875c-0.416,0.713-0.949,0.979-1.6,0.8
	c-0.083-0.03-0.167-0.064-0.25-0.101c-0.333-0.149-0.557-0.357-0.675-0.625c-0.117-0.266-0.125-0.591-0.025-0.975
	c0.167-0.767,0.617-1.233,1.35-1.4L37.6,36.95z M32.675,33.15c-0.122-0.046-0.247-0.113-0.375-0.2
	c-0.26-0.179-0.444-0.37-0.55-0.575c-0.143-0.283-0.126-0.592,0.05-0.925c0.235-0.5,0.652-0.75,1.25-0.75
	c0.081-0.008,0.164-0.008,0.25,0l0.65,0.3c0.311,0.267,0.503,0.533,0.575,0.8c0.08,0.334-0.029,0.667-0.325,1
	C33.76,33.295,33.251,33.412,32.675,33.15z M9.1,25.9c-0.051,0.015-0.101,0.031-0.15,0.05l-0.1,0.25c-0.5,0.7-1.133,1.15-1.9,1.35
	c-0.127,0.255-0.203,0.521-0.225,0.8c0.002-0.139,0.019-0.272,0.05-0.4c0.143-0.601,0.501-1.101,1.075-1.5
	C8.206,26.207,8.623,26.023,9.1,25.9z M43.575,42.525c-0.023,0.046-0.048,0.088-0.075,0.125c-0.051,0.067-0.109,0.126-0.175,0.175
	c-0.302,0.249-0.744,0.291-1.325,0.125c0.033-1.033,0.583-1.684,1.65-1.95C43.832,41.636,43.807,42.145,43.575,42.525z M58.525,41.3
	c-0.003-0.205-0.012-0.405-0.025-0.6c-0.015-0.258-0.031-0.499-0.05-0.726c0.017,0.15,0.033,0.309,0.05,0.476
	C58.52,40.719,58.528,41.002,58.525,41.3z M75.525,27.45c-0.236,0-0.512-0.05-0.825-0.15c-0.4-1.2-0.084-1.85,0.95-1.95L76.3,25.7
	c0.141,0.242,0.224,0.458,0.25,0.65c0.061,0.327-0.023,0.594-0.25,0.8C76.109,27.341,75.851,27.44,75.525,27.45z M70.4,33.4
	c0.146-0.171,0.329-0.305,0.55-0.4l-0.55-0.4c0.633-0.1,1.166-0.267,1.6-0.5c0.427,0.098,0.793,0.247,1.1,0.45
	c-0.399,0.566-0.85,0.983-1.35,1.25C71.217,34.1,70.767,33.967,70.4,33.4z M70.275,37.525c-0.131-0.923-0.223-1.647-0.275-2.176
	c0.015,0.113,0.031,0.229,0.05,0.351C70.15,36.483,70.225,37.092,70.275,37.525z M71.95,36.55c-0.3,0.334-0.667,0.434-1.101,0.3
	c-0.466-0.133-0.683-0.433-0.649-0.899c0.066-0.733,0.399-1.15,1-1.25c0.666-0.134,1.083,0.1,1.25,0.7
	C72.583,35.934,72.417,36.316,71.95,36.55z M74.875,36c0.05,0.102,0.075,0.252,0.075,0.45c0,0.7-0.2,1.184-0.601,1.45
	c-0.466,0.333-1.083,0.166-1.85-0.5c-0.333-0.334-0.384-0.7-0.15-1.101c0.2-0.399,0.517-0.6,0.95-0.6
	c0.101-0.101,0.3-0.184,0.601-0.25c-0.011-0.04-0.019-0.107-0.025-0.2c0.036,0.204,0.095,0.354,0.175,0.45
	c0.115,0.173,0.383,0.273,0.8,0.3H74.875z M66.8,35.775c-0.012,0.043-0.028,0.085-0.05,0.125c-0.483,0.94-1.191,1.299-2.125,1.074
	c-0.08-0.02-0.163-0.044-0.25-0.074c0.942,0.306,1.684,0.039,2.225-0.801C66.68,35.988,66.746,35.88,66.8,35.775z M14.7,26.75
	c0.002-0.047,0.002-0.098,0-0.15c0.157-1.842,1.565-2.917,4.225-3.225c0.121-0.006,0.246-0.014,0.375-0.025l0.4,0.6
	c-0.163,0.194-0.33,0.377-0.5,0.55c-0.846,0.808-1.829,1.325-2.95,1.55c-0.273,0.061-0.557,0.103-0.85,0.125
	c-0.145,0.014-0.295,0.022-0.45,0.025l-0.15-0.05c-0.037,0.15-0.063,0.3-0.075,0.45C14.712,26.649,14.704,26.699,14.7,26.75z
	 M21.025,17.825c-0.198,0.07-0.39,0.112-0.575,0.125c-0.088,0.005-0.171,0.005-0.25,0c0.267-1.2,1-1.833,2.2-1.9h0.275H23.1
	c-0.155,0.249-0.331,0.482-0.525,0.7c-0.216,0.237-0.458,0.454-0.725,0.65C21.57,17.598,21.295,17.739,21.025,17.825z M25.1,20.9
	c-0.107,0-0.207,0-0.3,0c-0.133-0.01-0.25-0.027-0.35-0.05C24.63,20.877,24.847,20.894,25.1,20.9z M23.9,19.75
	c0.2-0.233,0.55-0.483,1.05-0.75l1.7-0.3c0.333,0.411,0.491,0.777,0.475,1.1c-0.006,0.06-0.015,0.118-0.025,0.175
	c0.009-0.101,0.009-0.209,0-0.325c-0.833,0.333-1.8,0.417-2.9,0.25L23.9,19.75z M16.55,20.925l0.1,0.025
	c-0.027,0.015-0.053,0.032-0.075,0.05c-0.723,0.371-1.581,0.604-2.575,0.7l-1.3,0.55c0.167-0.3,0.433-0.55,0.8-0.75
	c0.233-0.167,1.033-0.417,2.4-0.75L16.55,20.925z M20.7,28.925c-0.07,0.252-0.154,0.411-0.25,0.476c-1.133,1.033-2.467,1.466-4,1.3
	c-0.061,0.201-0.094,0.393-0.1,0.575c0.006-0.69,0.339-1.266,1-1.726c0.633-0.467,1.4-0.75,2.3-0.85L20.7,28.925z M30.1,29.175
	c-0.03,0.072-0.063,0.139-0.1,0.2V29.35C30.037,29.294,30.07,29.236,30.1,29.175z M25.7,28.925c0.025,0.144,0.075,0.285,0.15,0.425
	c0.219,0.438,0.635,0.738,1.25,0.9c-0.13-0.022-0.255-0.056-0.375-0.1C26.099,29.904,25.757,29.495,25.7,28.925z M25.9,27.75
	c0.294-0.634,0.878-1.101,1.75-1.4h1.65c0.741,0.065,1.149,0.407,1.225,1.025c0.016,0.157,0.008,0.333-0.025,0.525
	c0.011-0.273-0.039-0.54-0.15-0.8c-0.567,0.566-1.233,0.933-2,1.1c-0.8,0.133-1.6,0-2.4-0.4L25.9,27.75z M22.025,34.775
	c0.641-0.276,1.399-0.534,2.275-0.775l0.5,1.15l0.375,0.899L24.8,35.2c-0.466,1.066-1.05,1.684-1.75,1.85
	c-0.519,0.124-1.077-0.01-1.675-0.399c0.112-0.076,0.229-0.15,0.35-0.226C21.971,35.838,22.071,35.288,22.025,34.775z M20.575,39.5
	c0.181,0.099,0.373,0.165,0.575,0.2c-0.201-0.029-0.393-0.087-0.575-0.175V39.5z M31.3,44.5c0.032,0.13,0.082,0.263,0.15,0.4
	c0.172,0.365,0.439,0.649,0.8,0.85C31.683,45.476,31.367,45.06,31.3,44.5z M31.3,44.1c0.078-0.735,0.728-1.119,1.95-1.149
	c0-0.601,0.2-1.066,0.6-1.4c0.335-0.336,0.769-0.519,1.3-0.55c0.067,0.267,0.05,0.5-0.05,0.7c-0.434,0.733-0.9,1.383-1.4,1.95
	c-0.3,0.3-0.633,0.383-1,0.25l-0.25,0.05c-0.3,0-0.567-0.15-0.8-0.45C31.466,43.684,31.35,43.884,31.3,44.1z"/>
<path style="fill-rule:evenodd;clip-rule:evenodd;fill:#9A7B5C;" d="M79.45,34.475c-0.737,1.053-1.67,1.178-2.8,0.375
	c-0.149-0.102-0.283-0.202-0.4-0.3c-0.835-0.669-0.96-1.202-0.375-1.6c0.105-0.072,0.23-0.139,0.375-0.2
	c0.4,0.467,0.884,0.7,1.45,0.7h0.25c0.533,0,1-0.2,1.399-0.601c0.4-0.399,0.601-0.866,0.601-1.399s-0.184-1-0.55-1.4
	c-0.367-0.399-0.817-0.6-1.351-0.6V29.4c0.028-0.626,0.02-1.118-0.024-1.476L78,27.85V27.8h0.05l0.65,0.6
	c1.934,1.167,3.767,1.216,5.5,0.15l0.7-0.5l0.35,0.45H85.2c-1.101,0.4-1.566,1.134-1.4,2.2c0.167,1.033,0.8,1.616,1.9,1.75
	c1.2,0.1,2.399-0.084,3.6-0.55c-0.073,0.128-0.173,0.253-0.3,0.375l-0.05,0.074c-0.072,0.063-0.146,0.13-0.226,0.2
	c-0.022,0.013-0.047,0.029-0.074,0.05L89.35,33c-0.399,0.566-2,0.95-4.8,1.15c-0.09,0.008-0.182,0.016-0.274,0.024
	c-0.341,0.028-0.666,0.053-0.976,0.075c-1.928,0.116-3.128,0.05-3.6-0.2c-0.037,0.068-0.07,0.135-0.101,0.2L79.45,34.475z
	 M74.875,36c-0.007-0.019-0.015-0.035-0.025-0.05c0.366,0,0.65,0.033,0.851,0.1c0.08,0.021,0.146,0.055,0.2,0.101
	c0.045,0.023,0.078,0.058,0.1,0.1c0.119,0.262,0.211,0.512,0.275,0.75c0.128,0.504,0.119,0.945-0.025,1.325
	c-0.188,0.474-0.587,0.849-1.2,1.125c-0.596,0.276-1.363,0.443-2.3,0.5c-0.529,0.036-1.112,0.036-1.75,0
	c0.066-0.101,0.15-0.351,0.25-0.75v-0.025c0.021-0.063,0.038-0.121,0.05-0.175c0.047-0.133,0.097-0.25,0.15-0.35L71.6,38.4
	c-0.094,0.013-0.219,0.013-0.375,0C71,38.394,70.709,38.359,70.35,38.3l-0.074-0.774c-0.051-0.434-0.125-1.042-0.226-1.825
	c-0.019-0.121-0.035-0.237-0.05-0.351c-0.038-0.353-0.038-0.669,0-0.949c0.051-0.415,0.185-0.748,0.4-1
	c0.366,0.566,0.816,0.699,1.35,0.399c0.5-0.267,0.95-0.684,1.35-1.25c0.214,0.157,0.396,0.341,0.551,0.55
	c0.058,0.078,0.107,0.17,0.149,0.275c0.09,0.243,0.123,0.552,0.101,0.925c-0.023,0.442-0.032,0.759-0.025,0.95
	c0.007,0.093,0.015,0.16,0.025,0.2C73.6,35.517,73.4,35.6,73.3,35.7c-0.434,0-0.75,0.2-0.95,0.6c-0.233,0.4-0.183,0.767,0.15,1.101
	c0.767,0.666,1.384,0.833,1.85,0.5c0.4-0.267,0.601-0.75,0.601-1.45C74.95,36.252,74.925,36.102,74.875,36z M71.95,36.55
	c0.467-0.233,0.633-0.616,0.5-1.149c-0.167-0.601-0.584-0.834-1.25-0.7c-0.601,0.1-0.934,0.517-1,1.25
	c-0.033,0.467,0.184,0.767,0.649,0.899C71.283,36.983,71.65,36.884,71.95,36.55z M50.95,23.775c-0.004-0.104-0.004-0.212,0-0.325
	c1.166-0.1,2-0.85,2.5-2.25v-0.05l0.024,0.025l0.176,0.175c0.005,0.213,0.005,0.421,0,0.625c-0.007,0.125-0.016,0.25-0.025,0.375
	c-0.085,1.375-0.51,2.159-1.275,2.35c-0.054,0.017-0.112,0.025-0.175,0.025H51.95C51.342,24.772,51.009,24.456,50.95,23.775z
	 M58.45,39.975c0.019,0.227,0.035,0.468,0.05,0.726c0.014,0.194,0.022,0.395,0.025,0.6v0.375c0,1.124-0.108,2.432-0.325,3.925
	c-0.967,0.233-1.834,0.15-2.601-0.25h-0.024c-0.58-0.313-0.963-0.764-1.15-1.35L54.3,43.45c0.334,0.333,0.684,0.483,1.05,0.45
	c0.801,0,1.351-0.351,1.65-1.051c0.066-0.166,0.116-0.399,0.15-0.699c0-0.367,0.017-0.601,0.05-0.7c0.033-0.3,0-0.533-0.101-0.7
	l0.25-0.3c0.301-0.767,0.384-1.367,0.25-1.8c-0.133-0.334-0.433-0.733-0.899-1.2l-0.25-0.15h0.024l0.476,0.05
	c0.459,0.134,0.817,0.476,1.075,1.025c0.149,0.32,0.267,0.703,0.35,1.15L58.45,39.975z M57.425,33.925
	c-0.146,0.018-0.279,0.018-0.399,0c-0.466-0.072-0.675-0.439-0.625-1.1c0.018-0.173,0.051-0.364,0.1-0.575
	c0.167,0.134,0.366,0.2,0.6,0.2c0.267-0.033,0.467-0.134,0.601-0.3c0.2-0.367,0.366-0.617,0.5-0.75
	c0.16-0.257,0.243-0.516,0.25-0.775V30.6l0.2,0.101c0.033,0.24,0.058,0.466,0.074,0.675c0.085,1.331-0.198,2.14-0.85,2.425
	c-0.084,0.046-0.176,0.08-0.275,0.101C57.539,33.912,57.481,33.92,57.425,33.925z M67.075,35.025c-0.004,0.021-0.004,0.046,0,0.074
	c-0.044,0.178-0.119,0.387-0.226,0.625l-0.05,0.051c-0.054,0.104-0.12,0.213-0.2,0.324c-0.541,0.84-1.282,1.106-2.225,0.801
	l-0.25-0.101c-0.041-0.014-0.083-0.03-0.125-0.05c-0.096-0.043-0.195-0.093-0.3-0.15c-0.113-0.652-0.105-1.21,0.024-1.675
	c0.021-0.058,0.046-0.116,0.075-0.175c0.134,0.7,0.483,1.033,1.05,1c0.601,0,1.051-0.517,1.351-1.55V34.1
	C66.788,34.276,67.08,34.585,67.075,35.025z M46.65,35.775V35.75l0.3-0.05c0.024,0.461,0.033,0.869,0.024,1.225
	c0.001,0.592-0.041,1.033-0.125,1.325c-0.233,0.833-0.85,1.2-1.85,1.1c-0.139-0.016-0.264-0.04-0.375-0.074
	c-0.508-0.148-0.816-0.44-0.925-0.875H44c1.1-0.167,1.9-0.634,2.4-1.4C46.631,36.703,46.714,36.295,46.65,35.775z M20.575,39.5
	c-0.209-0.104-0.401-0.246-0.575-0.425L19.7,38.7l-0.325-0.65c-0.307-0.901,0.068-1.718,1.125-2.45c0,0.134,0.083,0.317,0.25,0.551
	c0.216,0.198,0.424,0.365,0.625,0.5c0.598,0.39,1.156,0.523,1.675,0.399c0.7-0.166,1.284-0.783,1.75-1.85l0.375,0.85l0.125,0.3
	c-0.066,1.2-0.8,2.167-2.2,2.9c-0.188,0.097-0.372,0.18-0.55,0.25c-0.158,0.059-0.308,0.108-0.45,0.15
	c-0.194,0.043-0.378,0.067-0.55,0.074l-0.4-0.024C20.948,39.665,20.756,39.599,20.575,39.5z M18.75,35.2
	c-0.024,0.035-0.049,0.069-0.075,0.1c-0.313,0.368-0.871,0.518-1.675,0.45h-0.05c-0.267-0.025-0.567-0.075-0.9-0.15
	c-0.133-0.267-0.167-0.517-0.1-0.75c0.033-0.066,0.15-0.233,0.35-0.5h1c0.267-0.066,0.817-0.05,1.65,0.051
	C18.95,34.729,18.883,34.997,18.75,35.2z M7.25,28.725C7.076,28.698,6.893,28.656,6.7,28.6l0.025-0.25
	c0.022-0.279,0.098-0.545,0.225-0.8c0.767-0.2,1.4-0.65,1.9-1.35l0.1-0.25c0.049-0.019,0.099-0.036,0.15-0.05
	c0.209-0.072,0.426-0.122,0.65-0.15c0.102-0.019,0.202-0.036,0.3-0.05c0.086,0,0.169,0,0.25,0L9.65,27v0.025
	C9.607,27.813,9.291,28.337,8.7,28.6c-0.26,0.114-0.552,0.172-0.875,0.175C7.645,28.776,7.453,28.76,7.25,28.725z M16.65,20.95
	l0.55,0.15l0.125,0.55l0.025,0.1v0.05c-0.067,0-0.1,0.017-0.1,0.05c-0.167,0.066-0.333,0.15-0.5,0.25l-1.7,1.2
	c-0.133,0.067-0.267,0.133-0.4,0.2c-0.4,0.167-0.8,0.267-1.2,0.3c-0.264,0.024-0.522,0.016-0.775-0.025
	c-0.053-0.013-0.111-0.03-0.175-0.05c-0.029-0.005-0.062-0.014-0.1-0.025c-0.033-0.4,0-0.75,0.1-1.05
	c0.033-0.133,0.083-0.267,0.15-0.4h0.05L14,21.7c0.995-0.096,1.853-0.33,2.575-0.7C16.597,20.982,16.623,20.965,16.65,20.95z
	 M71.25,27.6c-0.833,0.2-1.533,0.083-2.1-0.35c-0.534-0.4-0.717-0.883-0.551-1.45l0.25,0.1l0.051,0.05L69.1,26.1
	c0.2,0.133,0.367,0.2,0.5,0.2c0.334,0,0.5-0.133,0.5-0.4c0.267-0.133,0.467-0.2,0.601-0.2c0.267-0.034,0.434-0.2,0.5-0.5
	c0.218,0.207,0.368,0.439,0.45,0.7c0.016,0.069,0.032,0.144,0.05,0.225c-0.003,0.038-0.003,0.08,0,0.125
	C71.69,26.641,71.541,27.091,71.25,27.6z M23.9,19.75l0.3,0.15c1.1,0.167,2.066,0.083,2.9-0.25c0.009,0.116,0.009,0.224,0,0.325
	c-0.102,0.545-0.594,0.854-1.475,0.925c-0.164,0.008-0.339,0.008-0.525,0c-0.253-0.006-0.47-0.022-0.65-0.05
	c-0.856-0.125-1.057-0.466-0.6-1.025L23.9,19.75z M19.95,24.375c-0.079,1.123-0.712,1.964-1.9,2.525
	c-0.751,0.376-1.526,0.551-2.325,0.525c-0.338-0.004-0.68-0.046-1.025-0.125c-0.008-0.106-0.008-0.214,0-0.325
	c0-0.053,0-0.103,0-0.15V26.75c0.004-0.051,0.012-0.101,0.025-0.15c0.012-0.15,0.038-0.3,0.075-0.45l0.15,0.05
	c0.154-0.003,0.305-0.011,0.45-0.025c0.293-0.022,0.577-0.064,0.85-0.125c1.122-0.225,2.104-0.742,2.95-1.55
	c0.17-0.173,0.337-0.356,0.5-0.55l0.25,0.4V24.375z M22.65,30.125c-0.011,0.163-0.028,0.338-0.05,0.525c-1.2,0.433-2.2,0.716-3,0.85
	c-0.68,0.113-1.397,0.163-2.15,0.15c-0.36-0.002-0.727-0.019-1.1-0.051v-0.324c0.006-0.183,0.04-0.374,0.1-0.575
	c1.533,0.166,2.867-0.267,4-1.3c0.096-0.064,0.18-0.224,0.25-0.476V28.9l1.95,0.45C22.672,29.551,22.672,29.81,22.65,30.125z
	 M25.7,28.925c-0.083-0.375-0.016-0.767,0.2-1.175l0.05,0.05c0.8,0.4,1.6,0.534,2.4,0.4c0.767-0.167,1.433-0.534,2-1.1
	c0.111,0.26,0.161,0.526,0.15,0.8c0.001,0.41-0.132,0.835-0.4,1.275c-0.03,0.062-0.063,0.119-0.1,0.175v0.025
	c-0.396,0.597-0.945,0.93-1.65,1c-0.248,0.024-0.515,0.016-0.8-0.025l-0.45-0.1c-0.615-0.162-1.031-0.462-1.25-0.9
	C25.775,29.21,25.725,29.068,25.7,28.925z M32.375,45.8c-0.04-0.017-0.082-0.033-0.125-0.05c-0.361-0.2-0.628-0.484-0.8-0.85
	c-0.069-0.138-0.119-0.271-0.15-0.4c-0.024-0.141-0.024-0.274,0-0.4c0.05-0.216,0.167-0.416,0.35-0.6c0.233,0.3,0.5,0.45,0.8,0.45
	l0.25-0.05c0.367,0.133,0.7,0.05,1-0.25c0.5-0.567,0.966-1.217,1.4-1.95c0.1-0.2,0.117-0.434,0.05-0.7h0.15v1.225v0.125
	c0.567,1.167,0.65,2.134,0.25,2.9c-0.433,0.8-1.3,1.05-2.6,0.75C32.738,45.948,32.546,45.882,32.375,45.8z"/>
<path style="fill-rule:evenodd;clip-rule:evenodd;fill:#8F6132;" d="M75.9,36.15c0.15-0.07,0.317-0.153,0.5-0.25
	c0.179-0.103,0.396-0.295,0.649-0.575c0.063,0.074,0.129,0.148,0.2,0.225c1.366,1.4,2.517,1.233,3.45-0.5
	c0.333,0.134,0.85,0.2,1.55,0.2c0-0.267,0.15-0.5,0.45-0.7l0.6-0.3c0.31-0.022,0.635-0.047,0.976-0.075
	c0.093-0.009,0.185-0.017,0.274-0.024c2.8-0.2,4.4-0.584,4.8-1.15l-0.699-0.4c0.027-0.021,0.052-0.037,0.074-0.05
	c0.414-0.198,0.906-0.457,1.476-0.774c0.236-0.049,0.469-0.107,0.7-0.176c0.048-0.112,0.089-0.221,0.125-0.324l0.024-0.025
	c-0.046,0.11-0.088,0.219-0.125,0.325c-0.218,0.475-0.409,0.85-0.575,1.125c-0.29,0.484-0.757,1.001-1.399,1.55
	c0.565-0.505,0.999-0.988,1.3-1.45l-2.15,0.95c-1,0.333-2.283,0.483-3.85,0.45c-0.7,1.233-1.816,2.066-3.35,2.5
	c-0.801,0.215-2.06,0.516-3.775,0.899c-0.045-0.155-0.086-0.271-0.125-0.35c-0.085-0.171-0.327-0.254-0.725-0.25
	c-0.064-0.238-0.156-0.488-0.275-0.75C75.979,36.208,75.945,36.174,75.9,36.15z M34.175,47.05c-0.686-0.034-1.261-0.135-1.725-0.3
	c-4.3-1.566-7.7-2.65-10.2-3.25c-0.5-0.134-1.6-0.483-3.3-1.05c-1.267-0.434-2.4-0.7-3.4-0.8C13.417,41.417,12.3,41.3,12.2,41.3
	c-1.534-0.3-2.367-0.833-2.5-1.6c-0.5-0.101-1.133-0.2-1.9-0.3c-0.633-0.134-1.183-0.367-1.65-0.7c-0.167-0.134-0.483-0.467-0.95-1
	c-0.367-0.434-0.684-0.7-0.95-0.8c0.033-0.167,0.033-0.45,0-0.851C4.183,35.65,4.167,35.366,4.2,35.2
	c-0.2,0.033-0.517,0.017-0.95-0.05C2.85,33.65,3.2,31.934,4.3,30c0.674-0.602,1.5-1.285,2.475-2.05
	c-0.031,0.127-0.047,0.261-0.05,0.4L6.7,28.6c0.192,0.056,0.375,0.098,0.55,0.125c-0.939,0.935-1.605,1.727-2,2.375
	C5.683,31.3,6,31.417,6.2,31.45c0,0.7-0.15,1.35-0.45,1.95c1.333-0.034,2.317,0,2.95,0.1c-0.034,0.167-0.017,0.45,0.05,0.85
	c0.033,0.367,0.033,0.634,0,0.801l0.7,0.25c0.066,0.066,0.167,0.3,0.3,0.699c0.767,0,1.317,0.017,1.65,0.051
	c0.567,0.066,0.934,0.399,1.1,1c0.258-0.064,1.741-0.531,4.45-1.4H17c-0.022,0.045-0.039,0.078-0.05,0.1
	c-0.067,0.233-0.034,0.483,0.1,0.75c1.328,0.298,2.203,0.206,2.625-0.274c-0.426,0.535-0.526,1.11-0.3,1.725L19.7,38.7l0.3,0.375
	c0.175,0.189,0.367,0.34,0.575,0.45c0.041,0.054,0.083,0.112,0.125,0.175c0.767,1.133,1.9,1.316,3.4,0.55
	c0.284-0.148,0.542-0.308,0.775-0.475c0.578,0.352,1.069,0.543,1.475,0.574c0.8-0.199,1.35-0.333,1.65-0.399
	c0.567-0.101,0.917,0.2,1.05,0.899c0.867-0.566,1.6-0.916,2.2-1.05c0.9-0.166,1.233,0.283,1,1.351
	c0.884-0.197,2.009-1.005,3.375-2.426c0.118,0.268,0.342,0.476,0.675,0.625c0.083,0.036,0.167,0.07,0.25,0.101
	c0.056,0.399,0.306,0.7,0.75,0.899c0.767,0.334,1.383,0.101,1.85-0.699c0.036-0.064,0.069-0.123,0.1-0.176
	c-0.032,1.373-0.032,2.348,0,2.926c0.5-0.4,0.967-0.551,1.4-0.45c0.434,0.133,0.633,0.533,0.6,1.2l1.9,0.024
	c-0.091,0.233-0.141,0.491-0.15,0.775c0.476,0.136,0.859,0.136,1.15,0c0.067,0.191,0.1,0.341,0.1,0.45
	c1.467-1.634,2.866-1.233,4.2,1.199c-0.066-1.233,0.416-2.716,1.45-4.449c1.066-1.801,2.116-2.801,3.149-3
	c0.101,0.199,0.233,1.199,0.4,3c0.102,1.04,0.385,1.773,0.85,2.199c0.003,0.037,0.003,0.071,0,0.101L54.425,44
	c0.188,0.586,0.57,1.036,1.15,1.35c0.19,0.354,0.482,0.655,0.875,0.9c0.767,0.467,1.684,0.583,2.75,0.35
	c0.232-1.604,0.341-2.996,0.325-4.175c0.156,0.075,0.298,0.184,0.425,0.325c0.666-1.1,1.083-1.733,1.25-1.9
	c0.533-0.733,1.116-1.199,1.75-1.399c0.3-0.066,0.767-0.066,1.399,0c0.634,0.1,1.084,0.1,1.351,0c0.934-0.267,1.7-1.033,2.3-2.3
	c0.7-1.434,1.25-2.284,1.65-2.551c0.115-0.077,0.231-0.144,0.35-0.199c-0.038,0.28-0.038,0.597,0,0.949
	c0.053,0.528,0.145,1.253,0.275,2.176L70.35,38.3c0.359,0.06,0.65,0.094,0.875,0.101c0.025,0.193,0.051,0.394,0.075,0.6
	c-0.012,0.054-0.028,0.112-0.05,0.175V39.2c-0.1,0.399-0.184,0.649-0.25,0.75c0.638,0.036,1.221,0.036,1.75,0
	c-0.634,0.133-1.434,0.267-2.4,0.399c-0.767,0.167-1.566,0.434-2.399,0.801c-1.5,0.733-2.55,1.333-3.15,1.8
	c-0.033,0.033-0.333,0.283-0.899,0.75c-0.367,0.3-0.733,0.533-1.101,0.7c-0.133,0.066-0.399,0.066-0.8,0
	c-0.366-0.067-0.634-0.051-0.8,0.05c-0.5,0.3-0.834,0.7-1,1.2c-0.167,0.633-0.384,1.066-0.65,1.3c-0.333,0.3-0.85,0.5-1.55,0.6
	c-0.366,0.033-0.934,0.101-1.7,0.2c-1.033,0.233-1.866,0.366-2.5,0.4c-0.7,0.033-1.566-0.034-2.6-0.2
	c-0.566-0.101-1.167-0.101-1.8,0c-1.101,0.166-1.667,0.25-1.7,0.25c-1,0.066-2.434,0-4.3-0.2c-2.066-0.267-3.467-0.4-4.2-0.4
	c-1,0-2.133-0.149-3.4-0.449c-0.114-0.017-0.297-0.033-0.55-0.051c0.599-0.071,1.032-0.354,1.3-0.85c0.4-0.767,0.317-1.733-0.25-2.9
	V42c-0.38,0-0.713,0.075-1,0.225V41h-0.15c-0.531,0.031-0.964,0.214-1.3,0.55c-0.4,0.334-0.6,0.8-0.6,1.4
	c-1.223,0.03-1.873,0.414-1.95,1.149c-0.024,0.126-0.024,0.26,0,0.4c0.067,0.56,0.383,0.976,0.95,1.25
	c0.043,0.017,0.085,0.033,0.125,0.05c0.184,0.59,0.709,0.99,1.575,1.2C34.03,47.019,34.105,47.035,34.175,47.05z M10.05,25.7
	c-0.098,0.014-0.198,0.031-0.3,0.05l0.2-0.175c0.135-0.093,0.268-0.185,0.4-0.275C10.265,25.427,10.166,25.56,10.05,25.7z
	 M37.6,36.95c0.59-0.432,1.107-0.698,1.55-0.8c0.077,0.562,0.118,1.312,0.125,2.25c-0.133-0.173-0.341-0.306-0.625-0.4l-0.25-0.225
	c-0.026-0.359-0.276-0.617-0.75-0.775L37.6,36.95z"/>
<path style="fill-rule:evenodd;clip-rule:evenodd;fill:none;stroke:#FFFFFF;stroke-linecap:round;stroke-linejoin:round;stroke-miterlimit:3;stroke-opacity:0;" d="
	M60.2,53.4l-4.55,1.35l-5.15,2.5c-0.854-1.169-1.604-1.719-2.25-1.65c-1.459,0.158-2.726,0.241-3.8,0.25
	c-0.775,0.005-1.45-0.028-2.025-0.1c-1.725-0.214-3.583-0.33-5.575-0.35l-9.05-2.275 M5.55,39.925l4.725,4.825L11.4,45.9
	c0.41,0.209,0.793,0.409,1.15,0.6 M68.3,50.525l0.3-0.176 M55.65,54.75l4.875-1.7"/>
</svg>
