<?xml version="1.0" encoding="iso-8859-1"?>
<!-- Generator: Adobe Illustrator 15.1.0, SVG Export Plug-In . SVG Version: 6.00 Build 0)  -->
<!DOCTYPE svg PUBLIC "-//W3C//DTD SVG 1.1//EN" "http://www.w3.org/Graphics/SVG/1.1/DTD/svg11.dtd">
<svg version="1.1" id="FlashAICB" xmlns="http://www.w3.org/2000/svg" xmlns:xlink="http://www.w3.org/1999/xlink" x="0px" y="0px"
	 width="57.05px" height="53.95px" viewBox="0 0 57.05 53.95" style="enable-background:new 0 0 57.05 53.95;" xml:space="preserve"
	>
<linearGradient id="SVGID_1_" gradientUnits="userSpaceOnUse" x1="13.8501" y1="49.0488" x2="60.6501" y2="49.0488">
	<stop  offset="0" style="stop-color:#000000;stop-opacity:0.4392"/>
	<stop  offset="1" style="stop-color:#000000;stop-opacity:0.4392"/>
</linearGradient>
<path style="fill-rule:evenodd;clip-rule:evenodd;fill:url(#SVGID_1_);" d="M51.15,45.85c2.08,0.486,3.247,0.803,3.5,0.95
	c0.199,0.101,1,0.634,2.399,1.601L56.9,48.5c-0.134,0.167-0.25,0.483-0.351,0.95c-0.066,0.366-0.233,0.666-0.5,0.899
	c-0.3,0.233-0.8,0.467-1.5,0.7c-0.767,0.267-1.3,0.45-1.6,0.55c-2,0.834-3.117,1.284-3.351,1.351
	c-3.1,1.033-7.333,1.283-12.699,0.75c-0.869-0.199-1.694-0.415-2.476-0.65c0.098,0.019,0.189,0.035,0.275,0.05
	c1.967,0.367,3.816,0.367,5.55,0c0.261-0.067,0.528-0.143,0.8-0.225c1.3-0.294,2.399-0.802,3.3-1.525
	c0.233-0.233,0.483-0.316,0.75-0.25c0.267,0.067,0.467,0.233,0.601,0.5c0.021-0.01,0.046-0.019,0.075-0.024
	c0.023-0.013,0.049-0.021,0.074-0.025c1.553-0.793,2.803-1.769,3.75-2.925c0.061-0.075,0.119-0.15,0.176-0.225
	c0.03-0.041,0.063-0.083,0.1-0.125c0.255-0.353,0.488-0.719,0.7-1.101C50.794,46.751,50.985,46.31,51.15,45.85z M20.85,44.125
	c0.092,0.433,0.217,0.858,0.375,1.275L19.3,45.45c-0.933-0.5-1.566-0.816-1.9-0.95l-0.3-0.2l-0.05-0.024
	c0.357,0.096,0.657,0.171,0.9,0.225c0.02,0.016,0.036,0.032,0.05,0.05c0.047-0.004,0.097-0.004,0.15,0
	c0.22,0.033,0.386,0.05,0.5,0.05c0.533,0.034,1.117-0.066,1.75-0.3c0.011-0.029,0.02-0.063,0.025-0.1
	C20.568,44.181,20.71,44.155,20.85,44.125z M33.225,52.75c-0.108,0.025-0.199,0.075-0.274,0.15c-0.202-0.102-0.368-0.227-0.5-0.375
	C32.72,52.611,32.979,52.687,33.225,52.75z"/>
<path style="fill-rule:evenodd;clip-rule:evenodd;fill:#A37732;" d="M26.9,5.3c0.971,0.885,1.705,1.727,2.2,2.525L29.05,7.85
	c-0.351-0.57-0.817-1.17-1.4-1.8C27.41,5.795,27.16,5.545,26.9,5.3z M19.6,0.7l-0.65-0.15c-0.066-0.019-0.133-0.035-0.2-0.05
	C19.028,0.554,19.311,0.621,19.6,0.7z M0.45,14.55c-0.2-0.39-0.333-0.806-0.4-1.25c-0.3-2,0.667-4.35,2.9-7.05
	c2.167-2.567,4.367-4.233,6.6-5c2.367-0.8,4.3-1.217,5.8-1.25c0.481,0,1.015,0.042,1.6,0.125c-0.402-0.05-0.785-0.075-1.15-0.075
	c-1.1-0.033-2.383,0.133-3.85,0.5v0.2c0.466,0.067,1.133,0.017,2-0.15c0.9-0.2,1.566-0.283,2-0.25c-0.067,0.3,0,0.467,0.2,0.5
	c0.333,0,0.533,0.033,0.6,0.1c0.167,0.167,0.233,0.283,0.2,0.35C16.917,1.467,16.933,1.633,17,1.8
	c0.033,0.034,0.183,0.117,0.45,0.25c0.2,0.067,0.25,0.233,0.15,0.5c-0.033,0.133-0.283,0.25-0.75,0.35
	c-0.434,0.067-0.667,0.233-0.7,0.5c0.167,0.033,0.55,0.1,1.15,0.2c0.534,0.1,0.85,0.267,0.95,0.5c0.067,0.133,0.033,0.417-0.1,0.85
	l0.2,0.2l-1.7,0.05c0.067,0.167,0.133,0.4,0.2,0.7c-1.033,0.267-2.25,0.283-3.65,0.05c0.033,0.2-0.017,0.35-0.15,0.45
	c-0.2,0.067-0.367,0.117-0.5,0.15l-2.05,0.6C9.1,7.483,8.1,7.767,7.5,8C7.167,8.1,5.817,8.75,3.45,9.95
	c-0.233,0.3-0.65,0.7-1.25,1.2c-0.6,0.5-1.017,0.883-1.25,1.15c-0.233,0.3-0.367,0.65-0.4,1.05C0.517,13.583,0.5,13.967,0.5,14.5
	L0.45,14.55z M14.45,1.55c-0.733-0.066-1.217,0-1.45,0.2c-0.233-0.067-0.333,0.033-0.3,0.3c0.066,0.267,0.267,0.434,0.6,0.5
	C14.133,2.783,14.517,2.45,14.45,1.55z M11.05,3.9C9.35,4.833,8.733,5.55,9.2,6.05C9.067,6.15,8.583,6.367,7.75,6.7
	C7.117,6.967,6.733,7.267,6.6,7.6c1.667,0.167,3.633-0.6,5.9-2.3c0.567-0.433,0.9-0.783,1-1.05c0.1-0.4-0.283-0.583-1.15-0.55
	L12.3,3.65L11.4,3.7l-0.3,0.2l-0.5-0.3c0.267-0.167,0.717-0.367,1.35-0.6c-0.867,0.067-1.483,0.033-1.85-0.1
	c0.267-0.367,0.867-0.633,1.8-0.8c-0.2,0-0.316-0.083-0.35-0.25c-0.033-0.233-0.083-0.383-0.15-0.45
	c-0.066-0.066-0.417-0.1-1.05-0.1l-0.2-0.1c-0.933,0.633-1.633,1.083-2.1,1.35C7.117,3.017,6.333,3.567,5.7,4.2l0.2,0.15l-0.25,0.4
	l0.6,0.05l-1.2,0.75C5.317,5.617,5.883,5.5,6.75,5.2C7.217,5.033,7.8,4.817,8.5,4.55C9.7,4.183,10.55,3.967,11.05,3.9z M6.3,6H5.65
	c-0.133,0.167-0.167,0.383-0.1,0.65c1.1,0.1,1.617-0.133,1.55-0.7C6.767,5.85,6.5,5.867,6.3,6z M3.85,6.45
	c-0.567-0.067-0.983,0.2-1.25,0.8l0.35,0.1c-0.333,0.333-0.583,0.6-0.75,0.8c-0.267,0.3-0.4,0.6-0.4,0.9
	C2.2,9.083,2.633,8.833,3.1,8.3c0.633-0.733,1-1.133,1.1-1.2c0.433-0.033,0.667-0.15,0.7-0.35c0.1-0.4-0.1-0.533-0.6-0.4L3.85,6.45z
	 M4.2,8.65c0.333,0.1,0.617,0.017,0.85-0.25c0.2-0.267,0.267-0.566,0.2-0.9L4.8,7.6C4.4,8,4.2,8.35,4.2,8.65z M3.575,17.2
	c-1.06-0.474-1.885-1.041-2.475-1.7c0.333,0.333,0.75,0.667,1.25,1l0.3,0.2C2.948,16.876,3.256,17.042,3.575,17.2z"/>
<path style="fill-rule:evenodd;clip-rule:evenodd;fill:#916A30;" d="M1.1,15.5c-0.265-0.298-0.481-0.614-0.65-0.95L0.5,14.5
	c0-0.533,0.017-0.917,0.05-1.15c0.034-0.4,0.167-0.75,0.4-1.05c0.233-0.267,0.65-0.65,1.25-1.15c0.6-0.5,1.017-0.9,1.25-1.2
	C5.817,8.75,7.167,8.1,7.5,8c0.6-0.233,1.6-0.517,3-0.85l2.05-0.6c0.133-0.033,0.3-0.083,0.5-0.15c0.133-0.1,0.184-0.25,0.15-0.45
	c1.4,0.233,2.617,0.216,3.65-0.05c-0.067-0.3-0.133-0.533-0.2-0.7l1.7-0.05l-0.2-0.2c0.133-0.434,0.167-0.717,0.1-0.85
	c-0.1-0.233-0.417-0.4-0.95-0.5c-0.6-0.1-0.983-0.167-1.15-0.2c0.033-0.267,0.267-0.433,0.7-0.5c0.467-0.1,0.717-0.217,0.75-0.35
	c0.1-0.267,0.05-0.433-0.15-0.5C17.183,1.917,17.033,1.833,17,1.8c-0.067-0.167-0.083-0.333-0.05-0.5
	c0.033-0.066-0.034-0.183-0.2-0.35c-0.067-0.067-0.267-0.1-0.6-0.1c-0.2-0.033-0.267-0.2-0.2-0.5c-0.434-0.033-1.1,0.05-2,0.25
	c-0.867,0.167-1.534,0.217-2,0.15v-0.2c1.466-0.367,2.75-0.533,3.85-0.5c0.365,0,0.749,0.025,1.15,0.075
	c0.385,0.057,0.793,0.132,1.225,0.225L18.75,0.5c0.067,0.015,0.134,0.031,0.2,0.05c0.3,0.2,0.433,0.383,0.4,0.55
	c0.333,0.233,0.85,0.433,1.55,0.6c0.767,0.2,1.3,0.383,1.6,0.55c-0.1,0.133-0.15,0.233-0.15,0.3l0.15,0.3L20.7,2.9
	c0.133,0.133,0.5,0.283,1.1,0.45c0.534,0.167,0.883,0.383,1.05,0.65c-0.167,0.067-0.3,0.117-0.4,0.15c0,0.267,0.167,0.5,0.5,0.7
	c-0.133,0.033-0.55,0-1.25-0.1c0.233,0.333,0.383,0.517,0.45,0.55c-0.2,0.067-0.533,0.1-1,0.1l0.1,0.9
	c-3.967,0.3-7.017,0.667-9.15,1.1c-3.4,0.7-6.25,1.783-8.55,3.25c-1.3,0.833-2.066,1.767-2.3,2.8C1.05,14.317,1,15,1.1,15.5z"/>
<path style="fill-rule:evenodd;clip-rule:evenodd;fill:#725525;" d="M19.6,0.7c1.236,0.373,2.586,1.056,4.05,2.05l1.1,1.8
	C24.783,4.617,24.767,4.767,24.7,5c0.1,0.133,0.333,0.217,0.7,0.25l0.2,0.65c-0.133,0.233-0.2,0.4-0.2,0.5
	c-0.167,0.1-0.667,0.15-1.5,0.15c-0.033,0.233,0.45,0.5,1.45,0.8c1.133,0.3,1.767,0.517,1.9,0.65
	c0.178,0.146,0.336,0.304,0.475,0.475C27.249,8.699,26.741,8.941,26.2,9.2h-0.025c-0.312-0.173-0.67-0.339-1.075-0.5
	c-2.434-1-5.783-1.3-10.05-0.9c-4,0.367-7.3,1.317-9.9,2.85C3.05,11.883,2,12.983,2,13.95c0,0.833,0.85,1.667,2.55,2.5
	c0.44,0.208,0.898,0.392,1.375,0.55l0.025,1.025c-0.861-0.214-1.652-0.489-2.375-0.825c-0.319-0.158-0.627-0.324-0.925-0.5l-0.3-0.2
	c-0.5-0.333-0.917-0.667-1.25-1C1,15,1.05,14.317,1.25,13.45c0.233-1.034,1-1.967,2.3-2.8C5.85,9.183,8.7,8.1,12.1,7.4
	c2.133-0.433,5.183-0.8,9.15-1.1l-0.1-0.9c0.467,0,0.8-0.033,1-0.1c-0.066-0.033-0.217-0.216-0.45-0.55
	c0.7,0.1,1.117,0.133,1.25,0.1c-0.333-0.2-0.5-0.434-0.5-0.7c0.1-0.033,0.233-0.083,0.4-0.15c-0.167-0.267-0.517-0.483-1.05-0.65
	c-0.6-0.167-0.966-0.317-1.1-0.45l1.8-0.05l-0.15-0.3c0-0.066,0.05-0.167,0.15-0.3c-0.3-0.167-0.833-0.35-1.6-0.55
	c-0.7-0.167-1.217-0.367-1.55-0.6c0.033-0.167-0.1-0.35-0.4-0.55L19.6,0.7z"/>
<path style="fill-rule:evenodd;clip-rule:evenodd;fill:#5D451F;" d="M23.65,2.75l0.475,0.325C25.158,3.785,26.083,4.526,26.9,5.3
	c0.26,0.246,0.51,0.496,0.75,0.75c0.583,0.63,1.049,1.23,1.4,1.8c-0.41,0.19-0.853,0.398-1.325,0.625
	C27.586,8.304,27.428,8.146,27.25,8c-0.133-0.133-0.767-0.35-1.9-0.65c-1-0.3-1.483-0.567-1.45-0.8c0.833,0,1.333-0.05,1.5-0.15
	c0-0.1,0.067-0.267,0.2-0.5l-0.2-0.65C25.033,5.217,24.8,5.133,24.7,5c0.066-0.233,0.083-0.383,0.05-0.45L23.65,2.75z"/>
<path style="fill-rule:evenodd;clip-rule:evenodd;fill:#B58A45;" d="M11.1,3.9h-0.05C10.55,3.967,9.7,4.183,8.5,4.55
	C7.8,4.817,7.217,5.033,6.75,5.2c-0.867,0.3-1.433,0.417-1.7,0.35l1.2-0.75l-0.6-0.05l0.25-0.4L5.7,4.2
	c0.633-0.633,1.417-1.184,2.35-1.65c0.467-0.267,1.167-0.716,2.1-1.35l0.2,0.1c0.633,0,0.983,0.034,1.05,0.1
	c0.067,0.067,0.117,0.217,0.15,0.45C11.583,2.017,11.7,2.1,11.9,2.1c-0.933,0.167-1.533,0.433-1.8,0.8
	c0.367,0.133,0.983,0.167,1.85,0.1c-0.633,0.233-1.083,0.433-1.35,0.6L11.1,3.9z"/>
<path style="fill-rule:evenodd;clip-rule:evenodd;fill:#AE833D;" d="M24.1,10.6c0.197-0.183,0.414-0.357,0.65-0.525
	c0.018-0.014,0.035-0.03,0.05-0.05c0.406-0.285,0.865-0.561,1.375-0.825H26.2c0.541-0.259,1.049-0.501,1.525-0.725
	C28.197,8.248,28.64,8.04,29.05,7.85l0.05-0.025c2.31-1.112,3.659-1.754,4.051-1.925c0.107-0.049,0.199-0.091,0.274-0.125
	c0.088-0.031,0.155-0.057,0.2-0.075h0.025l5.975-1.575c0.39-0.022,0.765-0.031,1.125-0.025c0.167,0.867-1.566,2.367-5.2,4.5
	c-0.5,0.167-1.033,0.083-1.6-0.25c-0.867-0.434-1.334-0.667-1.4-0.7c-0.875-0.231-1.941-0.015-3.2,0.65l-0.024,0.025
	C28.968,8.508,28.593,8.733,28.2,9c-0.025,0.017-0.05,0.034-0.075,0.05C27.728,9.318,27.353,9.56,27,9.775
	c-1.316,0.792-2.316,1.201-3,1.225h-0.05L24.1,10.6z M14.45,1.55c0.066,0.9-0.317,1.233-1.15,1c-0.333-0.066-0.533-0.233-0.6-0.5
	c-0.034-0.267,0.066-0.367,0.3-0.3C13.233,1.55,13.717,1.483,14.45,1.55z M11.1,3.9l0.3-0.2l0.9-0.05l0.05,0.05
	c0.867-0.034,1.25,0.15,1.15,0.55c-0.1,0.267-0.433,0.617-1,1.05C10.233,7,8.267,7.767,6.6,7.6c0.133-0.333,0.517-0.633,1.15-0.9
	C8.583,6.367,9.067,6.15,9.2,6.05c-0.467-0.5,0.15-1.216,1.85-2.15H11.1z M4.2,8.65C4.2,8.35,4.4,8,4.8,7.6l0.45-0.1
	c0.067,0.333,0,0.633-0.2,0.9C4.817,8.667,4.533,8.75,4.2,8.65z M3.85,6.45l0.45-0.1c0.5-0.133,0.7,0,0.6,0.4
	C4.867,6.95,4.633,7.067,4.2,7.1C4.1,7.167,3.733,7.567,3.1,8.3C2.633,8.833,2.2,9.083,1.8,9.05c0-0.3,0.133-0.6,0.4-0.9
	c0.167-0.2,0.417-0.467,0.75-0.8L2.6,7.25C2.867,6.65,3.283,6.383,3.85,6.45z M6.3,6c0.2-0.133,0.467-0.15,0.8-0.05
	c0.066,0.566-0.45,0.8-1.55,0.7C5.483,6.383,5.517,6.167,5.65,6H6.3z"/>
<path style="fill-rule:evenodd;clip-rule:evenodd;fill:#AF9765;" d="M23.8,10.875c-0.078,0.049-0.161,0.09-0.25,0.125
	c-0.194,0.069-0.395,0.119-0.6,0.15c-0.514-0.041-0.864-0.083-1.05-0.125c0.163-0.188,0.513-0.429,1.05-0.725
	c0.466-0.3,0.683-0.75,0.65-1.35c-0.267,0.466-0.617,0.833-1.05,1.1c-0.5,0.267-0.966,0.333-1.4,0.2
	c0.267-0.667,0.383-1.15,0.35-1.45c-0.551,0.695-1.034,1.178-1.45,1.45c-0.121-0.028-0.246-0.045-0.375-0.05
	c0.066-0.24,0.125-0.424,0.175-0.55c0.066-0.333,0.083-0.633,0.05-0.9c-0.291,0.517-0.707,1-1.25,1.45
	c-0.787,0.014-1.553,0.039-2.3,0.075c-0.067-0.201-0.1-0.459-0.1-0.775c0.067-0.867,0.083-1.45,0.05-1.75
	C16,8.617,15.767,9.2,15.6,9.5c-0.4,0.7-0.883,1-1.45,0.9c0-0.767-0.133-1.417-0.4-1.95c-0.033,0.167-0.133,0.617-0.3,1.35
	c-0.143,0.428-0.309,0.694-0.5,0.8c-0.081,0.043-0.164,0.06-0.25,0.05h-0.025c-0.194-0.055-0.386-0.271-0.575-0.65
	c-0.267-0.567-0.417-0.867-0.45-0.9c-0.066,0.233-0.117,0.517-0.15,0.85c0,0.2,0,0.5,0,0.9c-0.3-0.033-0.65-0.167-1.05-0.4
	c-0.567-0.333-0.9-0.517-1-0.55c0.033,0.067,0.2,0.333,0.5,0.8c0.142,0.213,0.217,0.421,0.225,0.625
	c-0.185,0.066-0.368,0.132-0.55,0.2C9.305,11.498,8.93,11.423,8.5,11.3C7.7,11.1,7.133,11,6.8,11c0.098,0.325,0.531,0.741,1.3,1.25
	c-0.027,0.015-0.053,0.032-0.075,0.05c-1.573-0.066-2.764-0.1-3.575-0.1c0.533,0.433,1.25,0.683,2.15,0.75H7
	c-0.114,0.091-0.239,0.191-0.375,0.3c-0.468,0.148-1.11,0.198-1.925,0.15c-1.133-0.066-1.9,0.017-2.3,0.25
	C2.6,13.783,3.117,13.9,3.95,14c0.767,0.067,1.233,0.2,1.4,0.4c-0.067,0.033-0.434,0.05-1.1,0.05c-0.467,0-0.733,0.133-0.8,0.4
	c0.4,0.2,0.9,0.316,1.5,0.35c0.249,0.022,0.565,0.039,0.95,0.05L5.925,17c-0.477-0.158-0.935-0.341-1.375-0.55
	C2.85,15.617,2,14.783,2,13.95c0-0.967,1.05-2.067,3.15-3.3c2.6-1.533,5.9-2.483,9.9-2.85c4.267-0.4,7.617-0.1,10.05,0.9
	c0.405,0.161,0.763,0.327,1.075,0.5c-0.51,0.264-0.969,0.54-1.375,0.825c0.02-0.037,0.036-0.079,0.05-0.125
	c-0.031,0.058-0.064,0.116-0.1,0.175c-0.236,0.167-0.453,0.342-0.65,0.525C23.998,10.694,23.898,10.786,23.8,10.875z M38.95,51.975
	c-0.473,0.095-0.923,0.153-1.351,0.176c-0.433,0-1.166-0.084-2.199-0.25c-0.934-0.167-1.684-0.233-2.25-0.2
	c-0.367,0.066-0.65,0.116-0.851,0.149c-0.333,0.067-0.616,0.067-0.85,0C31.35,51.816,30.8,51.533,29.8,51
	c-0.366-0.1-0.649-0.184-0.85-0.25c-0.334-0.134-0.566-0.283-0.7-0.45c-0.134-0.133-0.233-0.399-0.3-0.8
	c-0.06-0.24-0.119-0.44-0.175-0.6c0.104-0.156,0.179-0.356,0.225-0.601c0.134,0.7,0.5,1.316,1.1,1.851
	c0.634,0.533,1.301,0.783,2,0.75c0.5-0.034,1.067-0.25,1.7-0.65c0.733-0.467,1.283-0.767,1.65-0.9c1.566-0.466,2.633-0.966,3.2-1.5
	c0.733-0.733,1.216-1.899,1.449-3.5c0.067-0.333,0.134-1.166,0.2-2.5c0.033-1.033,0.15-1.85,0.351-2.449
	c0.466-1.434,0.666-3.051,0.6-4.851c-0.066-2.066-0.517-3.649-1.35-4.75c-0.667-0.899-1.801-1.85-3.4-2.85
	c-0.233-0.167-0.517-0.534-0.85-1.1c-0.334-0.533-0.584-0.85-0.75-0.95c-0.233-0.1-0.667-0.1-1.301,0
	c-0.633,0.133-1.066,0.133-1.3,0c-0.2-0.066-0.366-0.283-0.5-0.65c-0.166-0.367-0.283-0.567-0.35-0.6
	c-0.267-0.133-0.684-0.2-1.25-0.2c-0.667,0.033-1.101,0.017-1.3-0.05l0.05-0.4l0.35-1.25h0.05c0.367,0.1,0.95,0.167,1.75,0.2
	c0.134,0.033,0.301,0.167,0.5,0.4c0.233,0.267,0.4,0.417,0.5,0.45c0.334,0.133,0.884,0.217,1.65,0.25c0.2,0.067,0.45,0.25,0.75,0.55
	c0.3,0.333,0.55,0.533,0.75,0.6c0.5,0.2,1.55,0.3,3.15,0.3c1.466-0.033,2.466,0.183,3,0.65c0.199,0.2,0.383,0.55,0.55,1.05
	c0.166,0.533,0.316,0.899,0.45,1.1c0.166,0.233,0.5,0.566,1,1c0.433,0.367,0.733,0.7,0.899,1c0.5,0.934,0.816,2.533,0.95,4.8
	c0.1,2.2-0.017,3.95-0.35,5.25c-0.034,0.2-0.217,0.567-0.551,1.101c-0.267,0.399-0.366,0.8-0.3,1.2c0.033,0.3,0.283,0.733,0.75,1.3
	c0.434,0.467,0.617,0.934,0.55,1.399c-0.066,0.534-0.383,1.084-0.949,1.65c-0.667,0.566-1.134,1-1.4,1.3
	c-0.434,0.533-1.05,1.384-1.85,2.55c-0.467,0.867-0.817,1.5-1.051,1.9C39.052,51.826,39.001,51.901,38.95,51.975z M26.075,27.5
	c-0.542,1.151-1.234,2.568-2.075,4.25c-1.733,3.634-2.783,6.517-3.15,8.65c-0.084,0.479-0.143,0.929-0.175,1.35
	c-0.28-0.104-0.555-0.271-0.825-0.5c0.032,0.228-0.001,0.611-0.1,1.15c-0.081-0.013-0.165-0.029-0.25-0.051
	c-0.006,0.039-0.015,0.072-0.025,0.101c-0.93,0.031-1.805-0.136-2.625-0.5c-1.067-0.566-1.967-1-2.7-1.3
	c0.033,0.466,0.25,0.916,0.65,1.35c0.233,0.2,0.65,0.483,1.25,0.85c-0.134,0.053-0.267,0.095-0.4,0.125
	c-0.338-0.149-0.555-0.225-0.65-0.225c-0.167-0.033-0.333,0-0.5,0.1c-0.139,0.069-0.264,0.111-0.375,0.125
	c-0.217-0.036-0.442-0.094-0.675-0.175c-0.867-0.333-1.6-0.833-2.2-1.5c-0.065,0.219-0.09,0.427-0.075,0.625
	c-0.525-0.168-0.983-0.159-1.375,0.025c-0.367-0.4-0.983-0.617-1.85-0.65c-0.489-0.017-0.881,0.033-1.175,0.15
	c-0.381-0.077-0.656-0.144-0.825-0.2c-0.215-0.123-0.44-0.215-0.675-0.275c-0.029-0.011-0.054-0.02-0.075-0.024L4.5,40.1
	c-0.16-0.202-0.31-0.41-0.45-0.625C3.808,39.068,3.591,38.609,3.4,38.1l0.05-3.05c0.013,0.79,0.347,1.739,1,2.851
	c0.667,1.166,1.367,1.966,2.1,2.399c-0.267-0.967-0.4-1.666-0.4-2.1c0.7,0.8,1.4,1.316,2.1,1.55l-0.15-1.6
	c0.833,0.833,1.517,1.366,2.05,1.6c-0.5-1.134-0.883-2.533-1.15-4.2c-0.3-1.7-0.383-3.149-0.25-4.35c0.4,0.366,0.7,1.217,0.9,2.55
	c0.233,1.5,0.45,2.45,0.65,2.85c0.534,0.967,1.25,1.867,2.15,2.7c1.033,0.934,2.017,1.5,2.95,1.7c-0.533-0.767-0.8-1.866-0.8-3.3
	c0.233,0.133,0.633,0.684,1.2,1.649c0.4,0.733,0.883,1.067,1.45,1c0.067-0.566,0.433-0.983,1.1-1.25c0.9-0.399,1.433-0.666,1.6-0.8
	c0.667-0.6,1.033-1.767,1.1-3.5c0.167-1.6,0.267-2.833,0.3-3.7c0.066-1.533-0.117-2.733-0.55-3.6c-0.367-0.667-0.617-1.15-0.75-1.45
	c-0.233-0.466-0.383-1-0.45-1.6c-0.067-0.667-0.184-1.217-0.35-1.65c-0.133-0.333-0.417-0.833-0.85-1.5
	c-0.867-1.267-1.65-2.15-2.35-2.65c-0.8-0.4-1.35-0.7-1.65-0.9c-0.533-0.367-0.833-0.967-0.9-1.8c-1,0.667-1.733,1.05-2.2,1.15
	c-0.833,0.133-1.333-0.35-1.5-1.45c-0.2,0.467-0.45,0.767-0.75,0.9c-0.333,0.167-0.6,0.017-0.8-0.45c-0.1,0.1-0.517,0.65-1.25,1.65
	c-0.167-0.167-0.3-0.283-0.4-0.35c-0.167-0.167-0.283-0.367-0.35-0.6L6,17.2l-0.05-2.15c0.233,0,0.45-0.083,0.65-0.25
	c0.233-0.233,0.433-0.383,0.6-0.45c0.267-0.1,0.767-0.267,1.5-0.5c0.2-0.1,0.45-0.267,0.75-0.5c0.267-0.2,0.5-0.333,0.7-0.4
	c0.067-0.034,0.2,0,0.4,0.1c0.2,0.1,0.35,0.133,0.45,0.1s0.267-0.133,0.5-0.3c0.2-0.167,0.367-0.267,0.5-0.3l1.7-0.25
	c0.333,0.034,0.733,0.05,1.2,0.05c0.1,0,0.133,0.15,0.1,0.45c-0.033,0.3,0.033,0.483,0.2,0.55c0.233,0.066,0.6-0.05,1.1-0.35
	s0.883-0.45,1.15-0.45c0.133,0,0.45,0.117,0.95,0.35c0.5,0.2,0.883,0.3,1.15,0.3c0,0.066-0.033,0.617-0.1,1.65
	c-0.034,0.8,0.017,1.35,0.15,1.65c0.167,0.4,0.5,0.783,1,1.15c0.533,0.434,0.9,0.817,1.1,1.15c0.233,0.434,0.417,1.117,0.55,2.05
	c0.167,0.967,0.35,1.667,0.55,2.1c0.233,0.5,0.767,1.2,1.6,2.1c0.767,0.867,1.283,1.583,1.55,2.15
	C25.994,27.299,26.036,27.398,26.075,27.5z M20.85,44.075c-0.138-0.326-0.255-0.585-0.35-0.775c0.034,0.065,0.109,0.132,0.225,0.2
	h0.025c0.333-0.134,0.583-0.6,0.75-1.4c0.167-0.767,0.5-1.199,1-1.3c0.033,0.367,0,1.316-0.1,2.851
	c0.033,1.366,0.35,2.017,0.95,1.949c0.033-1.066,0.05-1.866,0.05-2.399c0.033-0.967,0.167-1.733,0.4-2.3
	c-0.033,2.267-0.05,3.566-0.05,3.899c0.133,1.601,0.567,2.783,1.3,3.55c0.567,0.634,1.167,0.967,1.8,1
	c0.116,0,0.225-0.008,0.325-0.024L27.15,49.35c-0.233,0.334-0.467,0.551-0.7,0.65c-0.167,0.066-0.45,0.1-0.85,0.1
	c-0.314-0.025-0.556-0.018-0.725,0.025c-0.026-0.012-0.051-0.021-0.075-0.025L24.3,49.7c-0.039-0.059-0.081-0.117-0.125-0.175
	c-0.642-0.586-1.2-1.194-1.675-1.825c-0.031-0.016-0.064-0.032-0.1-0.05c-0.159-0.231-0.317-0.498-0.475-0.801
	c-0.194-0.404-0.386-0.871-0.575-1.399C21.157,44.907,20.991,44.449,20.85,44.075z M29.9,51.7c0.613,0.218,1.18,0.409,1.699,0.575
	c-0.069,0.01-0.136,0.018-0.199,0.024H31.35L29.9,51.7z M25.875,50.4c0.435,0.104,0.918,0.236,1.45,0.399L27.3,50.825
	c-0.019,0.007-0.036,0.016-0.05,0.024l-0.35-0.1C26.515,50.607,26.173,50.49,25.875,50.4z"/>
<path style="fill-rule:evenodd;clip-rule:evenodd;fill:#917E54;" d="M24.8,10.025c-0.015,0.02-0.032,0.037-0.05,0.05
	c0.036-0.059,0.069-0.117,0.1-0.175C24.836,9.946,24.819,9.988,24.8,10.025z M22.95,11.15c0.205-0.031,0.405-0.081,0.6-0.15
	c0.089-0.035,0.172-0.076,0.25-0.125c-0.094,0.11-0.186,0.219-0.275,0.325C23.321,11.183,23.13,11.166,22.95,11.15z M7.775,13.2
	c1.798-0.867,4.374-1.3,7.725-1.3c2.5,0,4.383,0.267,5.65,0.8c0.663,0.271,1.146,0.654,1.45,1.15
	c0.023,0.555,0.173,1.114,0.45,1.675c0.02,0.179,0.036,0.37,0.05,0.575c0.066,2.167,0.4,3.917,1,5.25
	c0.167,0.367,0.483,0.816,0.95,1.35c0.534,0.6,0.867,1,1,1.2c0.357,0.509,0.691,1.009,1,1.5c-0.248,0.562-0.573,1.262-0.975,2.1
	c-0.04-0.102-0.082-0.201-0.125-0.3c-0.267-0.567-0.784-1.284-1.55-2.15c-0.833-0.9-1.367-1.6-1.6-2.1
	c-0.2-0.434-0.383-1.133-0.55-2.1c-0.133-0.934-0.317-1.617-0.55-2.05c-0.2-0.333-0.567-0.716-1.1-1.15
	c-0.5-0.367-0.833-0.75-1-1.15c-0.133-0.3-0.184-0.85-0.15-1.65c0.066-1.033,0.1-1.583,0.1-1.65c-0.267,0-0.65-0.1-1.15-0.3
	c-0.5-0.233-0.816-0.35-0.95-0.35c-0.267,0-0.65,0.15-1.15,0.45s-0.867,0.417-1.1,0.35c-0.167-0.067-0.233-0.25-0.2-0.55
	c0.033-0.3,0-0.45-0.1-0.45c-0.467,0-0.867-0.017-1.2-0.05L12,12.55c-0.133,0.034-0.3,0.133-0.5,0.3c-0.233,0.167-0.4,0.267-0.5,0.3
	s-0.25,0-0.45-0.1c-0.2-0.1-0.333-0.133-0.4-0.1c-0.2,0.066-0.433,0.2-0.7,0.4c-0.3,0.233-0.55,0.4-0.75,0.5
	c-0.733,0.233-1.233,0.4-1.5,0.5c-0.167,0.066-0.367,0.217-0.6,0.45c-0.2,0.167-0.417,0.25-0.65,0.25L5.9,14.7L7.775,13.2z
	 M8.025,12.3c-0.13,0.065-0.255,0.132-0.375,0.2C7.486,12.59,7.269,12.74,7,12.95H6.6c-0.9-0.067-1.617-0.317-2.15-0.75
	C5.261,12.2,6.452,12.233,8.025,12.3z M28.3,21.75c0.019-0.085,0.035-0.169,0.05-0.25c0.086-0.402,0.161-0.777,0.226-1.125
	c0.819,0.463,1.67,0.872,2.55,1.225c0.312,0.77,1.104,1.237,2.375,1.4c0.7,0.1,1.717,0.167,3.05,0.2c0.4,0.066,1.2,0.25,2.4,0.55
	c0.934,0.2,1.733,0.317,2.399,0.35c0.034,0.667,0.284,1.017,0.75,1.05c0.267,0.033,0.733,0.083,1.4,0.15
	c0.634,0.233,1.15,0.7,1.55,1.4c0.134,0.267,0.4,0.934,0.8,2c0.434,1.133,0.867,2.633,1.301,4.5c0.566,2.333,0.949,3.833,1.149,4.5
	c0.533,1.833,0.684,3.35,0.45,4.55c-0.134,0.566-0.467,1.283-1,2.15c-0.634,1-1.017,1.666-1.15,2c-0.1,0.3-0.25,0.983-0.449,2.05
	c-0.233,1-0.567,1.583-1,1.75c-0.2,0.1-0.467,0.066-0.801-0.101c-0.366-0.166-0.583-0.25-0.649-0.25
	c-0.3,0.067-0.55,0.167-0.75,0.301c-0.233,0.199-0.467,0.366-0.7,0.5c-0.212,0.136-0.429,0.303-0.65,0.5h-0.05
	c-1.1,0.399-1.733,0.616-1.899,0.649c-0.238,0.065-0.472,0.123-0.7,0.175c0.051-0.073,0.102-0.148,0.149-0.225
	c0.233-0.4,0.584-1.033,1.051-1.9c0.8-1.166,1.416-2.017,1.85-2.55c0.267-0.3,0.733-0.733,1.4-1.3
	c0.566-0.566,0.883-1.116,0.949-1.65c0.067-0.466-0.116-0.933-0.55-1.399c-0.467-0.566-0.717-1-0.75-1.3
	c-0.066-0.4,0.033-0.801,0.3-1.2c0.334-0.533,0.517-0.9,0.551-1.101c0.333-1.3,0.449-3.05,0.35-5.25
	c-0.134-2.267-0.45-3.866-0.95-4.8c-0.166-0.3-0.467-0.633-0.899-1c-0.5-0.434-0.834-0.767-1-1c-0.134-0.2-0.284-0.566-0.45-1.1
	c-0.167-0.5-0.351-0.85-0.55-1.05c-0.534-0.467-1.534-0.683-3-0.65c-1.601,0-2.65-0.1-3.15-0.3c-0.2-0.067-0.45-0.267-0.75-0.6
	c-0.3-0.3-0.55-0.483-0.75-0.55c-0.767-0.033-1.316-0.117-1.65-0.25c-0.1-0.033-0.267-0.183-0.5-0.45
	c-0.199-0.233-0.366-0.367-0.5-0.4c-0.8-0.034-1.383-0.1-1.75-0.2H28.3z M21.9,11.025c-0.042-0.008-0.076-0.017-0.1-0.025
	c-0.466-0.267-0.816-0.45-1.05-0.55c-0.221-0.101-0.454-0.167-0.7-0.2c0.416-0.272,0.899-0.755,1.45-1.45
	c0.033,0.3-0.083,0.784-0.35,1.45c0.434,0.133,0.9,0.067,1.4-0.2c0.434-0.267,0.784-0.633,1.05-1.1c0.033,0.6-0.184,1.05-0.65,1.35
	C22.413,10.596,22.063,10.837,21.9,11.025z M6.625,13.25C6.384,13.465,6.108,13.715,5.8,14c-0.367,0.3-0.55,0.533-0.55,0.7
	c0,0.205,0.217,0.296,0.65,0.275v0.275c-0.384-0.011-0.701-0.027-0.95-0.05c-0.6-0.034-1.1-0.15-1.5-0.35
	c0.066-0.267,0.333-0.4,0.8-0.4c0.667,0,1.033-0.017,1.1-0.05c-0.167-0.2-0.633-0.333-1.4-0.4c-0.833-0.1-1.35-0.217-1.55-0.35
	c0.4-0.233,1.167-0.316,2.3-0.25C5.515,13.448,6.157,13.398,6.625,13.25z M9.625,11.525C9.117,11.737,8.608,11.979,8.1,12.25
	c-0.77-0.509-1.203-0.925-1.3-1.25c0.333,0,0.9,0.1,1.7,0.3C8.93,11.423,9.305,11.498,9.625,11.525z M10.175,11.325
	c-0.008-0.204-0.083-0.412-0.225-0.625c-0.3-0.467-0.467-0.733-0.5-0.8c0.1,0.033,0.433,0.217,1,0.55c0.4,0.233,0.75,0.367,1.05,0.4
	c0-0.4,0-0.7,0-0.9c0.033-0.333,0.083-0.617,0.15-0.85c0.033,0.033,0.184,0.333,0.45,0.9c0.189,0.378,0.381,0.595,0.575,0.65
	C11.846,10.784,11.013,11.009,10.175,11.325z M18.65,10.2c0.543-0.451,0.959-0.934,1.25-1.45c0.033,0.267,0.017,0.567-0.05,0.9
	c-0.051,0.126-0.109,0.31-0.175,0.55c-0.043,0-0.084,0-0.125,0C19.249,10.2,18.948,10.2,18.65,10.2z M16.35,10.275
	c-1.042,0.066-2.042,0.157-3,0.275c-0.134,0.015-0.268,0.031-0.4,0.05c0.191-0.106,0.357-0.373,0.5-0.8
	c0.167-0.733,0.267-1.183,0.3-1.35c0.267,0.533,0.4,1.183,0.4,1.95c0.567,0.1,1.05-0.2,1.45-0.9c0.167-0.3,0.4-0.883,0.7-1.75
	c0.034,0.3,0.017,0.883-0.05,1.75C16.25,9.816,16.283,10.074,16.35,10.275z M15.65,42.975c0.133-0.03,0.266-0.072,0.4-0.125
	c-0.6-0.366-1.017-0.649-1.25-0.85c-0.4-0.434-0.617-0.884-0.65-1.35c0.733,0.3,1.633,0.733,2.7,1.3
	c0.82,0.364,1.695,0.531,2.625,0.5c-0.122,0.537-0.463,0.838-1.025,0.899c-0.637,0-1.121,0.025-1.45,0.075
	c-0.364-0.056-0.665-0.131-0.9-0.225C15.927,43.113,15.776,43.038,15.65,42.975z M14.125,42.975C14.083,42.991,14.041,43,14,43
	c-0.4,0.033-1.1-0.217-2.1-0.75c-0.257-0.144-0.499-0.252-0.725-0.325c-0.015-0.198,0.01-0.406,0.075-0.625
	c0.6,0.667,1.333,1.167,2.2,1.5C13.683,42.881,13.908,42.938,14.125,42.975z M20.675,41.75c-0.021,0.268-0.029,0.526-0.025,0.775
	c-0.3-0.018-0.6-0.059-0.9-0.125c0.099-0.539,0.132-0.923,0.1-1.15C20.12,41.479,20.395,41.646,20.675,41.75z M31.925,52.375
	L31.4,52.3c0.063-0.007,0.13-0.015,0.199-0.024C31.713,52.31,31.821,52.343,31.925,52.375z"/>
<path style="fill-rule:evenodd;clip-rule:evenodd;fill:#C2AA78;" d="M12.675,10.65H12.7c0.086,0.01,0.169-0.007,0.25-0.05
	c0.132-0.019,0.266-0.036,0.4-0.05c0.958-0.118,1.958-0.209,3-0.275c0.747-0.036,1.513-0.061,2.3-0.075c0.298,0,0.599,0,0.9,0
	c0.041,0,0.082,0,0.125,0c0.129,0.005,0.254,0.021,0.375,0.05c0.246,0.033,0.479,0.1,0.7,0.2c0.233,0.1,0.583,0.283,1.05,0.55
	c0.024,0.008,0.058,0.017,0.1,0.025c0.186,0.042,0.536,0.084,1.05,0.125c0.18,0.016,0.371,0.033,0.575,0.05
	c-0.182,0.228-0.34,0.461-0.475,0.7c-0.15-0.082-0.317-0.165-0.5-0.25c-1.233-0.583-2.758-0.908-4.575-0.975L17.45,10.65
	c-0.733-0.004-1.517,0.029-2.35,0.1l-5.45,1.375C8.845,12.482,8.095,12.907,7.4,13.4c0.124-0.069,0.249-0.136,0.375-0.2L5.9,14.7
	v0.275c-0.433,0.021-0.65-0.07-0.65-0.275c0-0.167,0.183-0.4,0.55-0.7c0.309-0.285,0.584-0.535,0.825-0.75
	c0.136-0.108,0.261-0.208,0.375-0.3c0.269-0.21,0.486-0.36,0.65-0.45c0.12-0.068,0.245-0.135,0.375-0.2
	c0.022-0.018,0.048-0.035,0.075-0.05c0.508-0.271,1.017-0.513,1.525-0.725c0.182-0.067,0.365-0.134,0.55-0.2
	C11.013,11.009,11.846,10.784,12.675,10.65z"/>
<path style="fill-rule:evenodd;clip-rule:evenodd;fill:#D0B989;" d="M27.9,23.125c0.171-0.546,0.321-1.088,0.45-1.625
	c-0.015,0.081-0.031,0.165-0.05,0.25L27.95,23L27.9,23.125z M4.05,39.475C3.015,37.808,2.614,35.649,2.85,33
	c0.2-2.066,0.85-4.733,1.95-8c0.697-2.058,1.081-4.383,1.15-6.975L5.925,17L5.9,15.25v-0.275V14.7l0.05,0.35L6,17.2l0.25-0.4
	c0.067,0.233,0.183,0.434,0.35,0.6c0.1,0.067,0.233,0.184,0.4,0.35c0.733-1,1.15-1.55,1.25-1.65c0.2,0.467,0.467,0.617,0.8,0.45
	c0.3-0.133,0.55-0.433,0.75-0.9c0.167,1.1,0.667,1.583,1.5,1.45c0.467-0.1,1.2-0.483,2.2-1.15c0.067,0.833,0.367,1.433,0.9,1.8
	c0.3,0.2,0.85,0.5,1.65,0.9c0.7,0.5,1.483,1.383,2.35,2.65c0.434,0.667,0.717,1.167,0.85,1.5c0.167,0.434,0.283,0.983,0.35,1.65
	c0.066,0.6,0.217,1.133,0.45,1.6c0.133,0.3,0.383,0.784,0.75,1.45c0.434,0.866,0.617,2.066,0.55,3.6
	c-0.033,0.867-0.133,2.101-0.3,3.7c-0.066,1.733-0.433,2.9-1.1,3.5c-0.167,0.134-0.7,0.4-1.6,0.8c-0.667,0.267-1.033,0.684-1.1,1.25
	c-0.567,0.067-1.05-0.267-1.45-1c-0.566-0.966-0.966-1.517-1.2-1.649c0,1.434,0.267,2.533,0.8,3.3c-0.933-0.2-1.917-0.767-2.95-1.7
	c-0.9-0.833-1.617-1.733-2.15-2.7c-0.2-0.399-0.417-1.35-0.65-2.85c-0.2-1.333-0.5-2.184-0.9-2.55C8.617,32.4,8.7,33.85,9,35.55
	c0.267,1.667,0.65,3.066,1.15,4.2c-0.533-0.233-1.217-0.767-2.05-1.6l0.15,1.6c-0.7-0.233-1.4-0.75-2.1-1.55
	c0,0.434,0.133,1.133,0.4,2.1c-0.733-0.434-1.433-1.233-2.1-2.399c-0.653-1.111-0.987-2.061-1-2.851L3.4,38.1
	C3.591,38.609,3.808,39.068,4.05,39.475z M6.275,41.85l-0.425-0.3c-0.185-0.169-0.376-0.361-0.575-0.575
	c0.235,0.061,0.46,0.152,0.675,0.275c0.168,0.057,0.444,0.123,0.825,0.2C6.552,41.544,6.385,41.677,6.275,41.85z M20.725,43.5
	c-0.006-0.102-0.015-0.201-0.025-0.3c-0.027-0.21-0.043-0.435-0.05-0.675c-0.004-0.249,0.004-0.508,0.025-0.775
	c0.033-0.421,0.091-0.871,0.175-1.35c0.233-0.134,0.633-0.351,1.2-0.65c1.2-0.733,2.067-1.583,2.6-2.55
	c-0.133,0.1-0.333,0.149-0.6,0.149c-0.333,0.034-0.55,0.067-0.65,0.101c-0.033-0.467,0.184-1.033,0.65-1.7
	c0.267-0.366,0.667-0.9,1.2-1.6c0.032-0.046,0.066-0.096,0.1-0.15c-0.939,3.146-0.972,5.446-0.1,6.9l0.25-0.7
	c0.533,0.833,0.833,1.866,0.9,3.1c0.9,0.066,1.633-0.05,2.2-0.35c0.601-0.3,1.15-0.851,1.65-1.65c0.2-0.3,0.4-0.95,0.6-1.95
	c0.667-1.199,1.134-2.116,1.4-2.75c0.4-1.033,0.583-2.8,0.55-5.3c-0.066-2.833-0.633-4.2-1.7-4.1l-2.3,0.2
	c-0.3,0.262-0.592,0.578-0.875,0.949c0.286-0.594,0.444-1.044,0.476-1.35c-0.667,0.667-1.15,1.083-1.45,1.25
	c0.066-0.566,0.216-1.367,0.45-2.4c0.267-1.1,0.434-1.917,0.5-2.45c0.2,0.067,0.633,0.083,1.3,0.05c0.566,0,0.983,0.066,1.25,0.2
	c0.066,0.033,0.184,0.233,0.35,0.6c0.134,0.367,0.3,0.583,0.5,0.65c0.233,0.133,0.667,0.133,1.3,0c0.634-0.1,1.067-0.1,1.301,0
	c0.166,0.1,0.416,0.417,0.75,0.95c0.333,0.566,0.616,0.933,0.85,1.1c1.6,1,2.733,1.95,3.4,2.85c0.833,1.101,1.283,2.684,1.35,4.75
	c0.066,1.8-0.134,3.417-0.6,4.851c-0.2,0.6-0.317,1.416-0.351,2.449c-0.066,1.334-0.133,2.167-0.2,2.5
	c-0.233,1.601-0.716,2.767-1.449,3.5c-0.567,0.534-1.634,1.034-3.2,1.5c-0.367,0.134-0.917,0.434-1.65,0.9
	c-0.633,0.4-1.2,0.616-1.7,0.65c-0.699,0.033-1.366-0.217-2-0.75C28.5,49.616,28.134,49,28,48.3
	c-0.046,0.244-0.122,0.444-0.225,0.601c-0.043-0.101-0.085-0.184-0.125-0.25c-0.064,0.064-0.223,0.289-0.475,0.675
	c-0.1,0.017-0.208,0.024-0.325,0.024c-0.633-0.033-1.233-0.366-1.8-1c-0.733-0.767-1.167-1.949-1.3-3.55
	c0-0.333,0.017-1.633,0.05-3.899c-0.233,0.566-0.367,1.333-0.4,2.3c0,0.533-0.017,1.333-0.05,2.399
	c-0.6,0.067-0.917-0.583-0.95-1.949c0.1-1.534,0.133-2.483,0.1-2.851c-0.5,0.101-0.833,0.533-1,1.3
	c-0.167,0.801-0.417,1.267-0.75,1.4H20.725z M20.85,44.075c0.141,0.374,0.307,0.832,0.5,1.375c0.189,0.528,0.38,0.995,0.575,1.399
	c-0.277-0.474-0.511-0.957-0.7-1.449c-0.158-0.417-0.283-0.843-0.375-1.275V44.075z M7.6,22c-0.167-0.967-0.217-1.683-0.15-2.15
	l-0.85-0.2c-0.233,0.567-0.434,1.467-0.6,2.7S5.633,24.5,5.4,25.1c-0.3,0.733-0.483,1.867-0.55,3.4c-0.1,1.566-0.283,2.7-0.55,3.4
	c0.5-0.733,0.784-1.667,0.85-2.801C5.217,30.066,5.5,31.866,6,34.5c0.333-0.634,0.5-1.634,0.5-3c0.033-1.467,0.15-2.483,0.35-3.05
	c0.066,0.1,0.267,0.283,0.6,0.55c0.2-0.533,0.316-1.316,0.35-2.35c0.034-1.133,0.05-1.933,0.05-2.4C7.883,23.783,7.8,23.033,7.6,22z
	 M9.5,24.7c-0.033,2.1-0.017,3.833,0.05,5.2c0.1-0.167,0.333-0.45,0.7-0.851c0.233,0.733,0.567,1.851,1,3.351
	c0.433,1.3,0.983,2.366,1.65,3.199c0.2-0.399,0.267-1.116,0.2-2.149c-0.067-1.033-0.017-1.75,0.15-2.15
	c0.967,1.434,1.817,2.217,2.55,2.351c0.367-1.101,0.534-2.601,0.5-4.5c-0.033-1.767-0.216-3.284-0.55-4.55
	c-0.367-1.233-1-2.4-1.9-3.5c-1.1-1.3-2.184-1.917-3.25-1.85l-1.05,0.2C9.55,20.617,9.533,22.367,9.5,24.7z M27.625,50.9
	c-0.11-0.028-0.218-0.053-0.325-0.075l0.025-0.025C27.425,50.833,27.525,50.866,27.625,50.9z"/>
<path style="fill-rule:evenodd;clip-rule:evenodd;fill:#6A5D3D;" d="M22.6,13.85c-0.304-0.496-0.787-0.879-1.45-1.15
	c-1.267-0.534-3.15-0.8-5.65-0.8c-3.352,0-5.927,0.434-7.725,1.3c-0.126,0.064-0.251,0.131-0.375,0.2
	c0.695-0.493,1.445-0.918,2.25-1.275l5.45-1.375c0.833-0.071,1.617-0.104,2.35-0.1l0.525,0.025c1.816,0.067,3.341,0.392,4.575,0.975
	c0.183,0.085,0.35,0.168,0.5,0.25c-0.202,0.399-0.335,0.815-0.4,1.25C22.614,13.38,22.597,13.614,22.6,13.85z M23.325,16
	c0.284,0.458,0.65,0.917,1.1,1.375c0.277,2.591,0.902,4.482,1.875,5.675c0.405,0.499,0.78,0.974,1.125,1.425
	c-0.006,0.024-0.015,0.049-0.025,0.075l-0.15,0.4c-0.062,0.133-0.128,0.283-0.2,0.45c-0.309-0.491-0.643-0.991-1-1.5
	c-0.133-0.2-0.466-0.6-1-1.2c-0.466-0.534-0.783-0.983-0.95-1.35c-0.6-1.333-0.934-3.083-1-5.25
	c-0.014-0.205-0.031-0.396-0.05-0.575C23.133,15.682,23.224,15.84,23.325,16z M25.875,50.4c-0.418-0.11-0.793-0.193-1.125-0.25
	c0.036-0.015,0.077-0.023,0.125-0.025c0.169-0.043,0.411-0.051,0.725-0.025c0.4,0,0.683-0.033,0.85-0.1
	c0.233-0.1,0.466-0.316,0.7-0.65l0.025-0.024c0.252-0.386,0.411-0.61,0.475-0.675c0.04,0.066,0.082,0.149,0.125,0.25
	c0.057,0.159,0.115,0.359,0.175,0.6c0.066,0.4,0.166,0.667,0.3,0.8c0.134,0.167,0.366,0.316,0.7,0.45
	c0.2,0.066,0.483,0.15,0.85,0.25c1,0.533,1.55,0.816,1.65,0.85c0.233,0.067,0.517,0.067,0.85,0c0.2-0.033,0.483-0.083,0.851-0.149
	c0.566-0.033,1.316,0.033,2.25,0.2c1.033,0.166,1.767,0.25,2.199,0.25c0.428-0.022,0.878-0.081,1.351-0.176
	c0.229-0.052,0.462-0.109,0.7-0.175c0.166-0.033,0.8-0.25,1.899-0.649h0.05c0.222-0.197,0.438-0.364,0.65-0.5
	c0.233-0.134,0.467-0.301,0.7-0.5c0.2-0.134,0.45-0.233,0.75-0.301c0.066,0,0.283,0.084,0.649,0.25
	c0.334,0.167,0.601,0.2,0.801,0.101c0.433-0.167,0.767-0.75,1-1.75c0.199-1.066,0.35-1.75,0.449-2.05c0.134-0.334,0.517-1,1.15-2
	c0.533-0.867,0.866-1.584,1-2.15c0.233-1.2,0.083-2.717-0.45-4.55c-0.2-0.667-0.583-2.167-1.149-4.5
	c-0.434-1.867-0.867-3.367-1.301-4.5c-0.399-1.066-0.666-1.733-0.8-2c-0.399-0.7-0.916-1.167-1.55-1.4
	c-0.667-0.066-1.134-0.117-1.4-0.15c-0.466-0.033-0.716-0.383-0.75-1.05c-0.666-0.033-1.466-0.15-2.399-0.35
	c-1.2-0.3-2-0.483-2.4-0.55c-1.333-0.034-2.35-0.1-3.05-0.2c-1.271-0.163-2.063-0.63-2.375-1.4c0.24,0.098,0.482,0.189,0.725,0.275
	l1.525,0.5c3.097,0.906,6.505,1.231,10.225,0.975l0.325-0.025c0.085-0.008,0.168-0.016,0.25-0.025l3.9-0.525
	c0.05-0.009,0.1-0.018,0.149-0.025c0.352-0.068,0.693-0.143,1.025-0.225c-0.512,2.269-0.395,5.028,0.35,8.275
	c1.301,5.634,2,8.867,2.101,9.7c0.03,0.336,0.047,0.669,0.05,1c0.055,1.598-0.146,3.048-0.6,4.35
	c-0.165,0.46-0.356,0.901-0.575,1.325c-0.212,0.382-0.445,0.748-0.7,1.101c-0.036,0.042-0.069,0.084-0.1,0.125
	c-0.057,0.074-0.115,0.149-0.176,0.225c-0.947,1.156-2.197,2.132-3.75,2.925c-0.025,0.005-0.051,0.013-0.074,0.025
	c-0.029,0.006-0.054,0.015-0.075,0.024c-0.134-0.267-0.334-0.433-0.601-0.5c-0.267-0.066-0.517,0.017-0.75,0.25
	c-0.9,0.724-2,1.231-3.3,1.525c-0.271,0.082-0.539,0.157-0.8,0.225c-1.733,0.367-3.583,0.367-5.55,0
	c-0.086-0.015-0.178-0.031-0.275-0.05c-0.353-0.073-0.753-0.174-1.2-0.3c-0.246-0.063-0.505-0.139-0.774-0.225
	c-0.171-0.044-0.347-0.094-0.525-0.15c-0.104-0.032-0.212-0.065-0.325-0.1c-0.52-0.166-1.086-0.357-1.699-0.575
	c-0.05-0.016-0.101-0.032-0.15-0.05c-0.771-0.285-1.479-0.535-2.125-0.75c-0.1-0.034-0.2-0.067-0.3-0.101
	C26.793,50.637,26.31,50.504,25.875,50.4z M11.175,41.925c0.226,0.073,0.468,0.182,0.725,0.325c1,0.533,1.7,0.783,2.1,0.75
	c0.041,0,0.083-0.009,0.125-0.025c0.111-0.014,0.236-0.056,0.375-0.125c0.167-0.1,0.333-0.133,0.5-0.1
	c0.095,0,0.312,0.075,0.65,0.225c0.126,0.063,0.277,0.139,0.45,0.226c0.235,0.094,0.536,0.169,0.9,0.225
	c0.33-0.05,0.813-0.075,1.45-0.075c0.562-0.062,0.903-0.362,1.025-0.899c0.01-0.028,0.019-0.062,0.025-0.101
	c0.085,0.021,0.169,0.038,0.25,0.051c0.3,0.066,0.6,0.107,0.9,0.125c0.007,0.24,0.023,0.465,0.05,0.675
	c0.01,0.099,0.019,0.198,0.025,0.3c-0.116-0.068-0.191-0.135-0.225-0.2c0.095,0.19,0.212,0.449,0.35,0.775v0.05
	c-0.14,0.03-0.282,0.056-0.425,0.075c-0.005,0.036-0.014,0.07-0.025,0.1c-0.633,0.233-1.217,0.334-1.75,0.3
	c-0.114,0-0.28-0.017-0.5-0.05c-0.053-0.004-0.103-0.004-0.15,0c-0.014-0.018-0.03-0.034-0.05-0.05
	c-0.243-0.054-0.543-0.129-0.9-0.225c-0.031-0.008-0.064-0.016-0.1-0.025c-0.434-0.1-1.067-0.1-1.9,0
	c-0.867,0.066-1.5,0.05-1.9-0.05c-0.133-0.033-0.733-0.316-1.8-0.851c-0.233-0.1-0.533-0.183-0.9-0.25
	c-0.4-0.066-0.7-0.133-0.9-0.199c-0.2-0.067-0.45-0.217-0.75-0.45c-0.333-0.2-0.6-0.334-0.8-0.4c-0.167-0.033-0.467-0.033-0.9,0
	C6.7,42.083,6.4,42.066,6.2,42c0.021-0.054,0.046-0.104,0.075-0.15c0.11-0.173,0.277-0.306,0.5-0.399
	c0.294-0.117,0.686-0.167,1.175-0.15c0.867,0.033,1.483,0.25,1.85,0.65C10.192,41.766,10.65,41.757,11.175,41.925z"/>
<path style="fill-rule:evenodd;clip-rule:evenodd;fill:#E2CC9D;" d="M26.075,27.5c0.402-0.838,0.727-1.538,0.975-2.1
	c0.072-0.167,0.139-0.316,0.2-0.45l0.15-0.4c0.01-0.026,0.019-0.051,0.025-0.075L27.8,23.35l0.1-0.225L27.95,23l-0.05,0.4
	c-0.066,0.533-0.233,1.35-0.5,2.45c-0.233,1.033-0.383,1.833-0.45,2.4c0.3-0.167,0.783-0.583,1.45-1.25
	c-0.031,0.306-0.189,0.756-0.476,1.35c0.283-0.371,0.575-0.688,0.875-0.949l2.3-0.2c1.067-0.101,1.634,1.267,1.7,4.1
	c0.033,2.5-0.149,4.267-0.55,5.3c-0.267,0.634-0.733,1.551-1.4,2.75c-0.199,1-0.399,1.65-0.6,1.95c-0.5,0.8-1.05,1.351-1.65,1.65
	c-0.566,0.3-1.3,0.416-2.2,0.35c-0.066-1.233-0.367-2.267-0.9-3.1l-0.25,0.7c-0.872-1.454-0.839-3.754,0.1-6.9
	c-0.034,0.055-0.068,0.104-0.1,0.15c-0.533,0.699-0.933,1.233-1.2,1.6c-0.466,0.667-0.683,1.233-0.65,1.7
	c0.1-0.033,0.317-0.066,0.65-0.101c0.267,0,0.467-0.05,0.6-0.149c-0.533,0.967-1.4,1.816-2.6,2.55c-0.566,0.3-0.966,0.517-1.2,0.65
	c0.367-2.134,1.417-5.017,3.15-8.65C24.841,30.068,25.533,28.651,26.075,27.5z M9.5,24.7c0.033-2.333,0.05-4.083,0.05-5.25l1.05-0.2
	c1.066-0.067,2.15,0.55,3.25,1.85c0.9,1.1,1.533,2.267,1.9,3.5c0.333,1.267,0.517,2.784,0.55,4.55c0.034,1.899-0.133,3.399-0.5,4.5
	c-0.733-0.134-1.583-0.917-2.55-2.351c-0.167,0.4-0.217,1.117-0.15,2.15c0.066,1.033,0,1.75-0.2,2.149
	c-0.667-0.833-1.217-1.899-1.65-3.199c-0.433-1.5-0.767-2.617-1-3.351c-0.367,0.4-0.6,0.684-0.7,0.851
	C9.483,28.533,9.467,26.8,9.5,24.7z M7.6,22c0.2,1.033,0.283,1.783,0.25,2.25c0,0.467-0.017,1.267-0.05,2.4
	C7.767,27.684,7.65,28.467,7.45,29c-0.333-0.267-0.534-0.45-0.6-0.55c-0.2,0.566-0.317,1.583-0.35,3.05c0,1.366-0.167,2.366-0.5,3
	c-0.5-2.634-0.783-4.434-0.85-5.4C5.083,30.233,4.8,31.167,4.3,31.9c0.267-0.7,0.45-1.834,0.55-3.4c0.066-1.533,0.25-2.667,0.55-3.4
	c0.233-0.6,0.434-1.517,0.6-2.75s0.367-2.133,0.6-2.7l0.85,0.2C7.383,20.317,7.433,21.033,7.6,22z"/>
<path style="fill-rule:evenodd;clip-rule:evenodd;fill:#825E28;" d="M55.4,12.975l0.199,0.4c-1.316-1.026-2.282-1.718-2.899-2.075
	c-1.2-0.7-2.334-1.017-3.4-0.95c-0.666,0.066-1.217,0.283-1.649,0.65c-0.467,0.4-0.733,0.917-0.801,1.55
	c-0.066,0.534-0.133,0.867-0.199,1c-0.067,0.133-0.284,0.367-0.65,0.7c-0.04,0.035-0.082,0.069-0.125,0.1
	c-0.505,0.452-0.896,0.802-1.175,1.05c-0.467,0.467-0.8,0.934-1,1.4c-0.033,0.1-0.167,0.633-0.4,1.6
	c-0.166,0.633-0.434,1.117-0.8,1.45c-0.7,0.667-1.717,1.033-3.05,1.1c-2.334,0.2-5.483-0.067-9.45-0.8h-0.05
	c-0.438-0.093-0.863-0.209-1.275-0.35c-1.059-0.355-2.05-0.889-2.975-1.6c-0.466-0.366-0.9-0.766-1.3-1.2
	c-0.53-0.573-0.997-1.206-1.4-1.9c-0.087-0.149-0.171-0.299-0.25-0.45c-0.019-0.066-0.036-0.133-0.05-0.2
	c-0.037-0.189-0.062-0.372-0.075-0.55c-0.03-0.69,0.129-1.349,0.475-1.975c0.126-0.247,0.285-0.488,0.475-0.725
	c0.022-0.034,0.047-0.067,0.075-0.1c-0.002,0.034-0.002,0.067,0,0.1c-0.022,0.275-0.047,0.617-0.075,1.025
	c-0.025,0.275-0.05,0.583-0.075,0.925c0.1,0.367,0.367,0.883,0.8,1.55c0.024,0.04,0.049,0.082,0.075,0.125
	c0.017,0.026,0.033,0.051,0.05,0.075c0.1,0.152,0.208,0.302,0.325,0.45c0.619,0.77,1.502,1.52,2.65,2.25
	c0.429,0.286,0.887,0.544,1.375,0.775c0.768,0.36,1.609,0.651,2.524,0.875c1.5,0.4,2.9,0.55,4.2,0.45
	c0.566-0.034,1.184-0.2,1.85-0.5c0.367-0.2,0.934-0.483,1.7-0.85c0.4-0.167,0.95-0.383,1.65-0.65c0.5-0.3,0.816-0.75,0.95-1.35
	c0.033-0.2,0.05-0.717,0.05-1.55c-0.033-0.667,0.05-1.183,0.25-1.55c0.115-0.174,0.383-0.432,0.8-0.775
	c0.063-0.06,0.13-0.118,0.2-0.175c0.467-0.367,0.75-0.733,0.85-1.1c0.066-0.333-0.184-1.367-0.75-3.1
	C42.583,6.7,42.7,5.867,43.4,5.6c0.633-0.233,1.483-0.217,2.55,0.05c0.707,0.354,1.398,0.729,2.075,1.125
	c1.195,0.714,2.328,1.498,3.399,2.35c0.42,0.333,0.828,0.674,1.226,1.025C53.8,11.15,54.717,12.092,55.4,12.975z"/>
<path style="fill-rule:evenodd;clip-rule:evenodd;fill:#976B2A;" d="M51.425,9.125c1.764,1.344,3.089,2.627,3.976,3.85
	c-0.684-0.883-1.601-1.825-2.75-2.825C52.253,9.799,51.845,9.458,51.425,9.125z M22.75,14.65l0.225,0.675
	c0.022,0.05,0.047,0.1,0.075,0.15c0.078,0.174,0.17,0.349,0.275,0.525c-0.101-0.16-0.192-0.318-0.275-0.475
	c-0.277-0.561-0.427-1.12-0.45-1.675c-0.003-0.236,0.014-0.47,0.05-0.7c0.065-0.435,0.198-0.851,0.4-1.25
	c0.135-0.239,0.293-0.472,0.475-0.7c0.089-0.106,0.181-0.215,0.275-0.325c0.098-0.089,0.198-0.181,0.3-0.275L23.95,11H24
	c0.684-0.024,1.684-0.433,3-1.225c0.353-0.215,0.728-0.457,1.125-0.725C28.15,9.034,28.175,9.017,28.2,9
	c0.393-0.267,0.768-0.492,1.125-0.675L29.35,8.3c1.259-0.665,2.325-0.881,3.2-0.65c0.066,0.033,0.533,0.267,1.4,0.7
	c0.566,0.333,1.1,0.417,1.6,0.25c3.634-2.133,5.367-3.633,5.2-4.5c-0.36-0.006-0.735,0.002-1.125,0.025
	c0.749-0.065,1.44-0.057,2.075,0.025c1.747,0.231,3.855,1.106,6.325,2.625c-0.677-0.396-1.368-0.771-2.075-1.125
	c-1.066-0.267-1.917-0.283-2.55-0.05c-0.7,0.267-0.817,1.1-0.351,2.5c0.566,1.733,0.816,2.767,0.75,3.1
	c-0.1,0.367-0.383,0.733-0.85,1.1c-0.07,0.057-0.137,0.115-0.2,0.175c-0.417,0.343-0.685,0.601-0.8,0.775
	c-0.2,0.367-0.283,0.883-0.25,1.55c0,0.833-0.017,1.35-0.05,1.55c-0.134,0.6-0.45,1.05-0.95,1.35c-0.7,0.267-1.25,0.483-1.65,0.65
	c-0.767,0.367-1.333,0.65-1.7,0.85c-0.666,0.3-1.283,0.466-1.85,0.5c-1.3,0.1-2.7-0.05-4.2-0.45
	c-0.915-0.224-1.757-0.515-2.524-0.875c-0.488-0.231-0.947-0.489-1.375-0.775c-1.148-0.73-2.031-1.48-2.65-2.25
	c-0.118-0.148-0.226-0.298-0.325-0.45c-0.017-0.024-0.033-0.049-0.05-0.075c-0.026-0.043-0.051-0.085-0.075-0.125
	c-0.433-0.667-0.7-1.184-0.8-1.55c0.025-0.342,0.05-0.65,0.075-0.925c0.027-0.408,0.052-0.75,0.075-1.025
	c-0.002-0.033-0.002-0.066,0-0.1c-0.027,0.033-0.053,0.066-0.075,0.1c-0.19,0.236-0.349,0.478-0.475,0.725
	c-0.346,0.626-0.505,1.285-0.475,1.975c0.013,0.178,0.038,0.361,0.075,0.55C22.714,14.517,22.731,14.583,22.75,14.65z M49.25,22.525
	c-0.332,0.082-0.674,0.157-1.025,0.225c0.35-0.074,0.691-0.158,1.025-0.25c0.143-0.028,0.284-0.062,0.425-0.1
	c0.128-0.032,0.253-0.065,0.375-0.1C49.787,22.38,49.521,22.456,49.25,22.525z"/>
<path style="fill-rule:evenodd;clip-rule:evenodd;fill:#755729;" d="M31.85,21.875c-0.242-0.086-0.484-0.177-0.725-0.275
	c-0.88-0.354-1.73-0.762-2.55-1.225c-1.112-0.611-2.17-1.32-3.175-2.125c-0.355-0.291-0.68-0.583-0.975-0.875
	c-0.449-0.458-0.816-0.917-1.1-1.375c-0.105-0.176-0.197-0.351-0.275-0.525c-0.028-0.05-0.053-0.1-0.075-0.15L22.75,14.65
	c0.079,0.151,0.163,0.301,0.25,0.45c0.403,0.694,0.87,1.327,1.4,1.9c0.4,0.435,0.834,0.834,1.3,1.2
	c0.924,0.711,1.916,1.244,2.975,1.6c0.412,0.141,0.837,0.257,1.275,0.35H30c3.967,0.733,7.116,1,9.45,0.8
	c1.333-0.067,2.35-0.434,3.05-1.1c0.366-0.333,0.634-0.817,0.8-1.45c0.233-0.967,0.367-1.5,0.4-1.6c0.2-0.466,0.533-0.933,1-1.4
	c0.278-0.248,0.67-0.598,1.175-1.05c0.043-0.031,0.085-0.065,0.125-0.1c0.366-0.333,0.583-0.567,0.65-0.7
	c0.066-0.133,0.133-0.466,0.199-1c0.067-0.633,0.334-1.15,0.801-1.55c0.433-0.367,0.983-0.583,1.649-0.65
	c1.066-0.067,2.2,0.25,3.4,0.95c0.617,0.357,1.583,1.049,2.899,2.075c0.031,0.022,0.065,0.047,0.101,0.075
	c0.5,0.767,0.816,1.45,0.95,2.05c0.429,1.772-0.188,3.297-1.851,4.575c0.659-0.527,1.159-1.103,1.5-1.725L56,18.3
	c0-0.733-0.05-1.2-0.15-1.4c-0.166-0.333-0.533-0.45-1.1-0.35c-0.533,0.133-1.233,0.517-2.1,1.15c-1.267,0.933-1.917,1.4-1.95,1.4
	c-0.416,0.269-0.799,0.46-1.15,0.575c-0.117,0.032-0.234,0.057-0.35,0.075l-1.65,0.1c-0.6,0.066-1.5,0.25-2.7,0.55
	c-1.166,0.333-2.066,0.517-2.699,0.55c-1.301,0.133-2.917,0.167-4.851,0.1c-2.166-0.1-3.783-0.167-4.85-0.2
	c-0.689-0.017-1.39-0.083-2.101-0.2c-0.575-0.1-1.158-0.233-1.75-0.4c-0.118-0.032-0.234-0.065-0.35-0.1
	c0.109,0.065,0.218,0.132,0.325,0.2c0.822,0.463,1.673,0.872,2.55,1.225C31.362,21.683,31.604,21.783,31.85,21.875z"/>
<path style="fill-rule:evenodd;clip-rule:evenodd;fill:#56401E;" d="M54.8,20.075c-0.834,0.65-1.917,1.225-3.25,1.725
	c-0.479,0.182-0.979,0.348-1.5,0.5c-0.122,0.035-0.247,0.068-0.375,0.1c-0.141,0.039-0.282,0.072-0.425,0.1
	c-0.334,0.092-0.676,0.176-1.025,0.25c-0.05,0.007-0.1,0.016-0.149,0.025l-3.9,0.525c-0.082,0.009-0.165,0.018-0.25,0.025
	L43.6,23.35c-3.72,0.256-7.128-0.069-10.225-0.975l-1.525-0.5c-0.246-0.092-0.487-0.192-0.725-0.3
	c-0.877-0.354-1.728-0.762-2.55-1.225c-0.107-0.068-0.216-0.135-0.325-0.2c0.115,0.035,0.231,0.068,0.35,0.1
	c0.592,0.167,1.175,0.3,1.75,0.4c0.711,0.117,1.411,0.183,2.101,0.2c1.066,0.033,2.684,0.1,4.85,0.2
	c1.934,0.067,3.55,0.034,4.851-0.1c0.633-0.034,1.533-0.217,2.699-0.55c1.2-0.3,2.101-0.483,2.7-0.55l1.65-0.1
	c0.115-0.018,0.232-0.043,0.35-0.075c0.352-0.114,0.734-0.306,1.15-0.575c0.033,0,0.684-0.467,1.95-1.4
	c0.866-0.633,1.566-1.017,2.1-1.15c0.566-0.1,0.934,0.017,1.1,0.35C55.95,17.1,56,17.567,56,18.3l0.3,0.05
	C55.959,18.973,55.459,19.548,54.8,20.075z"/>
</svg>
