<?xml version="1.0" encoding="iso-8859-1"?>
<!-- Generator: Adobe Illustrator 15.1.0, SVG Export Plug-In . SVG Version: 6.00 Build 0)  -->
<!DOCTYPE svg PUBLIC "-//W3C//DTD SVG 1.1//EN" "http://www.w3.org/Graphics/SVG/1.1/DTD/svg11.dtd">
<svg version="1.1" id="FlashAICB" xmlns="http://www.w3.org/2000/svg" xmlns:xlink="http://www.w3.org/1999/xlink" x="0px" y="0px"
	 width="351.05px" height="200.7px" viewBox="0 0 351.05 200.7" style="enable-background:new 0 0 351.05 200.7;"
	 xml:space="preserve">
<path style="fill-rule:evenodd;clip-rule:evenodd;fill:#31250C;" d="M346.5,26.65l0.325-0.95h0.024L346.5,26.65z M314.725,71.025
	c-0.125,0.485-0.233,0.977-0.324,1.475c-0.033-0.15-0.066-0.3-0.101-0.45C314.437,71.719,314.578,71.377,314.725,71.025z
	 M317.325,64.9c0.783-1.719,1.433-3.085,1.95-4.1c1.271-1.647,2.546-3.114,3.824-4.4c1.233-1.267,3.134-2.5,5.7-3.7
	c-2.311,2.411-5.027,5.111-8.149,8.1C319.35,62.061,318.241,63.428,317.325,64.9z"/>
<path style="fill-rule:evenodd;clip-rule:evenodd;fill:#53452D;" d="M229.175,156.025c0.13-0.251,0.221-0.542,0.275-0.875
	c0.047-0.377,0.063-0.794,0.05-1.25c0.254,0.154,0.537,0.321,0.85,0.5c1.367,0.767,2,1.483,1.9,2.149
	C231.127,156.575,230.102,156.4,229.175,156.025z M222.675,171.325c-0.309,0.137-0.7,0.212-1.175,0.225
	c-0.672,0.021-1.33-0.12-1.975-0.425c-0.954-0.429-1.879-1.204-2.775-2.325c-0.442-0.533-0.875-1.149-1.3-1.85
	c-0.526-0.869-0.901-1.619-1.125-2.25h0.024c1.067,0.533,2.117,0.75,3.15,0.649c0.733-0.066,1.35-0.333,1.85-0.8
	c0.247-0.197,0.598-0.497,1.051-0.899c0.079,0.083,0.162,0.166,0.25,0.25c0.109,0.104,0.218,0.203,0.324,0.3
	c-0.043-0.404,0.099-0.804,0.426-1.2c0.134-0.17,0.3-0.336,0.5-0.5l0.35-0.25c0.016,0.167,0.065,0.342,0.15,0.525
	c0.294-0.063,0.627-0.121,1-0.176c1.067-0.183,1.775-0.466,2.125-0.85c0.788,0.961,1.229,1.811,1.324,2.55
	c-1.305,0.061-2.696-0.289-4.175-1.05c0.332,0.419,0.841,0.869,1.525,1.35c1.233,0.834,1.85,1.601,1.85,2.301
	c-1.171,0.38-2.346,0.155-3.524-0.676c0.154,0.271,0.279,0.537,0.375,0.801c0.015,0.057,0.031,0.115,0.05,0.175
	c0.434,1.434,0.616,2.434,0.55,3c-0.05,0.322-0.175,0.589-0.375,0.8C223.003,171.128,222.853,171.236,222.675,171.325z M217.975,171
	c0.295,1.147,0.745,2.431,1.351,3.85c-0.146,0.851-0.305,1.434-0.476,1.75c-0.466,0.867-1.216,0.983-2.25,0.351
	c-0.533-1.4-0.916-2.434-1.149-3.101c-0.074-0.205-0.141-0.405-0.2-0.6c0.122-0.411,0.238-0.86,0.35-1.35
	c0.196-0.829,0.438-1.546,0.726-2.15c0.071,0.067,0.146,0.134,0.225,0.2C217.053,170.349,217.527,170.698,217.975,171z
	 M207.75,162.05c0.992-0.916,2.034-1.908,3.125-2.975c0.581-0.249,1.372-0.624,2.375-1.125c0.038-0.013,0.08-0.021,0.125-0.025
	c0.017,0.567,0.084,1.118,0.2,1.65c-0.811,1.779-1.919,2.721-3.325,2.825C209.556,162.458,208.722,162.341,207.75,162.05z
	 M211.05,165.925c0.021-0.05,0.037-0.091,0.05-0.125c0.189-0.698,0.364-1.299,0.525-1.8c-0.26,0.239-0.519,0.456-0.775,0.65
	c-1.388,1.053-2.771,1.369-4.149,0.949c-0.033-0.693,0.15-1.701,0.55-3.024c0.238,0.109,0.538,0.201,0.9,0.274
	c1.733,0.367,3.1,0.284,4.1-0.25c0.313,0.813,0.946,1.48,1.9,2c-0.21,1.596-0.46,2.829-0.75,3.7c-0.205,0.593-0.438,1.109-0.7,1.55
	c-1.035,1.809-2.501,2.393-4.4,1.75c-0.033-0.666,0.334-1.633,1.101-2.899C210.299,167.262,210.849,166.337,211.05,165.925z
	 M177.55,169.3c0.057-0.287,0.057-0.604,0-0.95c-0.01-0.053-0.018-0.103-0.024-0.149c0.124-0.29,0.258-0.59,0.399-0.9
	c0.094,0.014,0.186,0.03,0.275,0.05c1.566,0.367,2.399,0.867,2.5,1.5C179.631,169.215,178.581,169.365,177.55,169.3z
	 M171.55,179.225c0.115,0.062,0.232,0.12,0.35,0.176c0.122,0.061,0.239,0.119,0.35,0.175c-0.152-0.377-0.127-0.811,0.075-1.3
	c0.074-0.197,0.182-0.406,0.325-0.625l0.25-0.351c0.061,0.159,0.152,0.309,0.275,0.45c0.258-0.137,0.549-0.287,0.875-0.45
	c0.979-0.474,1.578-0.949,1.8-1.425c1.044,0.665,1.727,1.34,2.051,2.025c-1.238,0.423-2.672,0.506-4.3,0.25
	c0.452,0.311,1.085,0.577,1.9,0.8c1.4,0.434,2.2,0.983,2.4,1.649c-1.004,0.709-2.204,0.843-3.601,0.4
	c0.227,0.212,0.426,0.429,0.6,0.65c0.052,0.064,0.102,0.132,0.15,0.199c0.867,1.2,1.334,2.101,1.4,2.7
	c0.061,0.314,0.035,0.598-0.075,0.851c-0.076,0.173-0.192,0.331-0.35,0.475c-0.243,0.228-0.585,0.42-1.025,0.575
	c-2,0.666-4.383-0.2-7.15-2.601c-0.73-0.642-1.296-1.225-1.7-1.75c1.133,0.167,2.184,0.051,3.15-0.35
	c0.667-0.3,1.184-0.75,1.55-1.35C171.148,179.908,171.381,179.517,171.55,179.225z M169.55,189.95
	c0.001-0.414-0.016-0.864-0.05-1.351c-0.062-0.885-0.045-1.668,0.05-2.35c0.081,0.033,0.164,0.066,0.25,0.1
	c0.585,0.228,1.126,0.419,1.625,0.575c0.639,1.016,1.473,2.115,2.5,3.3c0.121,0.805,0.146,1.396,0.075,1.775
	c-0.167,1-0.85,1.35-2.05,1.05c-0.934-1.166-1.617-2.033-2.05-2.6C169.778,190.284,169.662,190.117,169.55,189.95z M166.125,187.475
	c-0.449,2.037-1.674,3.028-3.675,2.976c-0.233-0.601-0.184-1.617,0.15-3.05c0.44-1.697,0.673-2.771,0.7-3.226
	c0-0.026,0-0.052,0-0.075c0-0.797,0-1.472,0-2.024c-0.183,0.348-0.374,0.664-0.575,0.95c-0.993,1.442-2.201,2.185-3.625,2.225
	c-0.262-0.654-0.396-1.663-0.4-3.025c0.266,0.023,0.582,0.016,0.95-0.024c1.767-0.2,3.033-0.7,3.8-1.5
	c0.561,0.685,1.385,1.135,2.475,1.35c0.271,1.596,0.396,2.829,0.375,3.7C166.287,186.39,166.229,186.964,166.125,187.475z
	 M163.8,177.425c-0.224,1.96-0.991,3.201-2.3,3.726c-0.733,0.3-1.733,0.433-3,0.399c-0.302-0.007-0.578-0.023-0.825-0.05
	c-0.96-0.119-1.585-0.403-1.875-0.85c-0.267-0.4-0.233-1.15,0.1-2.25c0.121-0.396,0.212-0.745,0.275-1.051
	c0.581,0.571,1.123,0.955,1.625,1.15c0.244,0.087,0.485,0.145,0.725,0.175c0.762,0.093,1.487-0.115,2.175-0.625
	c0.533-0.399,1.3-1.1,2.3-2.1c0.029-0.021,0.054-0.037,0.075-0.05C163.278,176.44,163.52,176.948,163.8,177.425z M104.1,183.4
	c0.135-0.215,0.235-0.465,0.3-0.75c0.072-0.303,0.113-0.652,0.125-1.051c0.207,0.161,0.432,0.328,0.675,0.5
	c1.066,0.767,1.55,1.417,1.45,1.95C105.704,183.999,104.854,183.782,104.1,183.4z M98.05,192.275c0.021,0.06,0.038,0.118,0.05,0.175
	c0.267,1.233,0.333,2.1,0.2,2.6c-0.06,0.263-0.176,0.472-0.35,0.625c-0.103,0.104-0.228,0.187-0.375,0.25
	c-0.267,0.111-0.609,0.153-1.025,0.125c-1.767-0.133-3.316-1.583-4.65-4.35c-0.357-0.751-0.607-1.401-0.75-1.95
	c0.833,0.533,1.684,0.783,2.55,0.75c0.6-0.033,1.133-0.217,1.6-0.55c0.223-0.148,0.54-0.382,0.95-0.7
	c0.063,0.084,0.129,0.168,0.2,0.25c0.068,0.078,0.134,0.153,0.2,0.225c0.001-0.331,0.143-0.648,0.425-0.949
	c0.14-0.144,0.315-0.285,0.525-0.426l0.3-0.199c0,0.157,0.033,0.315,0.1,0.475c0.233-0.023,0.5-0.049,0.8-0.075
	c0.922-0.06,1.539-0.234,1.85-0.524c0.582,0.844,0.881,1.585,0.9,2.225c-1.059-0.059-2.159-0.426-3.3-1.1
	c0.242,0.359,0.608,0.743,1.1,1.149c0.933,0.8,1.367,1.5,1.3,2.101c-0.98,0.23-1.922-0.036-2.825-0.801
	C97.919,191.826,97.994,192.052,98.05,192.275z M93.675,195.35c0.162,0.998,0.446,2.123,0.85,3.375
	c-0.183,0.688-0.357,1.162-0.525,1.426c-0.467,0.699-1.117,0.75-1.95,0.149c-0.333-1.233-0.566-2.149-0.7-2.75
	c-0.043-0.19-0.085-0.382-0.125-0.575c0.13-0.307,0.255-0.648,0.375-1.024c0.235-0.722,0.502-1.33,0.8-1.825
	c0.068,0.055,0.135,0.112,0.2,0.175C92.978,194.703,93.336,195.054,93.675,195.35z M84.85,186.525
	c-0.689-0.382-1.072-0.808-1.15-1.275c-0.067-0.4,0.2-0.983,0.8-1.75c0.204-0.269,0.379-0.511,0.525-0.725
	c0.247,0.641,0.538,1.116,0.875,1.425c0.7,0.666,1.5,0.866,2.4,0.6c0.5-0.133,1.3-0.434,2.4-0.899
	c0.042-0.011,0.083-0.019,0.125-0.025c-0.025,0.498-0.008,0.981,0.05,1.45c-0.811,1.476-1.803,2.201-2.975,2.175
	c-0.667,0-1.467-0.217-2.4-0.65C85.258,186.747,85.042,186.64,84.85,186.525z M88.3,190.5c0.022-0.039,0.039-0.072,0.05-0.1
	c0.247-0.617,0.455-1.143,0.625-1.575c-0.244,0.21-0.485,0.394-0.725,0.55c-1.253,0.829-2.436,1.021-3.55,0.575
	c0.033-0.634,0.267-1.483,0.7-2.55c0.197,0.11,0.447,0.21,0.75,0.3c1.4,0.434,2.533,0.467,3.4,0.1
	c0.187,0.714,0.662,1.331,1.425,1.851c-0.293,1.329-0.585,2.346-0.875,3.05c-0.211,0.479-0.436,0.896-0.675,1.25
	c-1.014,1.5-2.289,1.9-3.825,1.2c0-0.567,0.383-1.351,1.15-2.351C87.606,191.639,88.123,190.872,88.3,190.5z M33.075,173.675
	c0.098-0.228,0.157-0.485,0.175-0.774c0.015-0.329-0.001-0.688-0.05-1.075c0.229,0.121,0.479,0.246,0.75,0.375
	c1.2,0.566,1.783,1.133,1.75,1.7C34.767,174.004,33.892,173.929,33.075,173.675z M28.625,183.45c0.03,0.047,0.055,0.097,0.075,0.149
	c0.466,1.2,0.683,2.034,0.65,2.5c-0.024,0.278-0.107,0.511-0.25,0.7c-0.076,0.105-0.167,0.197-0.275,0.275
	c-0.269,0.172-0.627,0.28-1.075,0.325c-1.733,0.166-3.483-1-5.25-3.5c-0.479-0.675-0.837-1.275-1.075-1.801
	c0.892,0.365,1.75,0.466,2.575,0.301c0.6-0.134,1.1-0.4,1.5-0.801c0.195-0.171,0.462-0.438,0.8-0.8
	c0.082,0.063,0.165,0.129,0.25,0.2c0.092,0.072,0.183,0.147,0.275,0.225c-0.072-0.364,0.028-0.73,0.3-1.1
	c0.097-0.141,0.222-0.282,0.375-0.425l0.25-0.25c0.023,0.139,0.073,0.28,0.15,0.425c0.247-0.075,0.531-0.149,0.85-0.225
	c0.857-0.207,1.424-0.482,1.7-0.825c0.72,0.759,1.136,1.45,1.25,2.075c-1.061,0.121-2.227-0.088-3.5-0.625
	c0.294,0.334,0.744,0.676,1.35,1.024c1.067,0.634,1.617,1.25,1.65,1.851c-0.921,0.374-1.896,0.266-2.925-0.325
	C28.418,183.03,28.535,183.239,28.625,183.45z M23.4,186.225c0.066,0.037,0.133,0.079,0.2,0.125
	c0.414,0.308,0.805,0.574,1.175,0.801c0.105,0.344,0.23,0.693,0.375,1.05c0.222,0.519,0.572,1.235,1.05,2.149
	c-0.057,0.69-0.157,1.19-0.3,1.5c-0.333,0.801-0.95,0.967-1.85,0.5c-0.533-1.166-0.917-2.033-1.15-2.6
	c-0.071-0.158-0.137-0.316-0.2-0.475c0.075-0.341,0.141-0.716,0.2-1.125C23.024,187.407,23.19,186.766,23.4,186.225z M15.35,180.775
	c0.214,0.075,0.481,0.133,0.8,0.175c1.467,0.2,2.583,0.033,3.35-0.5c0.313,0.657,0.888,1.183,1.725,1.575
	c-0.066,1.338-0.191,2.396-0.375,3.175c-0.135,0.527-0.302,0.994-0.5,1.399c-0.739,1.565-1.906,2.149-3.5,1.75
	c-0.1-0.566,0.133-1.399,0.7-2.5c0.687-1.373,1.079-2.231,1.175-2.574c0.012-0.031,0.021-0.057,0.025-0.075
	c0.114-0.608,0.214-1.134,0.3-1.575c-0.179,0.224-0.362,0.423-0.55,0.6c-1.094,1.026-2.227,1.418-3.4,1.176
	C15.034,182.805,15.117,181.93,15.35,180.775z M20.1,176.35c0.051,0.492,0.143,0.958,0.275,1.4c-0.562,1.616-1.42,2.517-2.575,2.7
	c-0.667,0.1-1.5,0.017-2.5-0.25c-0.24-0.063-0.457-0.129-0.65-0.2c-0.768-0.276-1.218-0.627-1.35-1.05
	c-0.133-0.4,0.034-1.017,0.5-1.851c0.165-0.317,0.298-0.601,0.4-0.85c0.371,0.582,0.737,0.999,1.1,1.25
	c0.186,0.129,0.377,0.229,0.575,0.3c0.593,0.237,1.218,0.203,1.875-0.1c0.467-0.233,1.217-0.667,2.25-1.3
	C20.032,176.387,20.065,176.37,20.1,176.35z"/>
<path style="fill-rule:evenodd;clip-rule:evenodd;fill:#695738;" d="M223.125,171c0.2-0.211,0.325-0.478,0.375-0.8
	c0.066-0.566-0.116-1.566-0.55-3c-0.019-0.06-0.035-0.118-0.05-0.175c1.307,1.023,1.99,1.849,2.05,2.475
	c0.166,1.366-0.434,1.866-1.8,1.5H223.125z M219.325,174.85c-0.605-1.419-1.056-2.702-1.351-3.85
	c0.597,0.399,1.138,0.708,1.625,0.925c0.748,0.334,1.373,0.459,1.875,0.375c-0.01,0.114-0.019,0.23-0.024,0.351
	c-0.267,1.866-0.783,3.017-1.55,3.449C219.698,175.672,219.507,175.255,219.325,174.85z M212.95,169.75
	c0.385-0.175,0.817-0.408,1.3-0.7c0.245-0.157,0.57-0.149,0.975,0.025c0.322,0.128,0.689,0.353,1.101,0.675
	c-0.288,0.604-0.529,1.321-0.726,2.15c-0.111,0.489-0.228,0.938-0.35,1.35c-0.372,1.154-0.805,1.954-1.3,2.4
	c-0.967-0.733-1.334-2.483-1.101-5.25C212.884,170.179,212.917,169.962,212.95,169.75z M176.375,185.4
	c0.11-0.253,0.136-0.536,0.075-0.851c-0.066-0.6-0.533-1.5-1.4-2.7c-0.048-0.067-0.098-0.135-0.15-0.199
	c1.596,0.596,2.53,1.179,2.8,1.75c0.533,1.267,0.1,1.933-1.3,2H176.375z M171.425,186.925c1.785,0.534,3.051,0.601,3.8,0.2
	c0.024,0.106,0.05,0.215,0.075,0.325c0.3,1.866,0.15,3.133-0.45,3.8c-0.321-0.347-0.629-0.688-0.925-1.025
	C172.897,189.04,172.064,187.94,171.425,186.925z M169.55,186.25c-0.095,0.682-0.112,1.465-0.05,2.35
	c0.034,0.486,0.051,0.937,0.05,1.351c-0.011,1.204-0.177,2.104-0.5,2.7c-1.133-0.4-2.017-1.967-2.65-4.7
	c-0.034-0.22-0.067-0.436-0.1-0.65c0.318-0.292,0.668-0.658,1.05-1.1C167.661,185.826,168.395,185.843,169.55,186.25z
	 M97.95,195.675c0.173-0.153,0.29-0.362,0.35-0.625c0.133-0.5,0.067-1.366-0.2-2.6c-0.012-0.057-0.029-0.115-0.05-0.175
	c1.034,0.973,1.55,1.715,1.55,2.225c0.033,1.2-0.5,1.6-1.6,1.2L97.95,195.675z M94.525,198.725c-0.404-1.252-0.688-2.377-0.85-3.375
	c1.15,1.022,2.092,1.473,2.825,1.351c-0.019,0.077-0.036,0.161-0.05,0.25c-0.367,1.6-0.883,2.55-1.55,2.85
	C94.767,199.429,94.642,199.07,94.525,198.725z M92.4,194.125c-0.298,0.495-0.564,1.104-0.8,1.825
	c-0.12,0.376-0.245,0.718-0.375,1.024c-0.394,0.996-0.819,1.671-1.275,2.025c-0.733-0.7-0.9-2.217-0.5-4.55
	c0.047-0.19,0.088-0.373,0.125-0.55c0.352-0.126,0.744-0.292,1.175-0.5C91.119,193.216,91.669,193.457,92.4,194.125z M29.1,186.8
	c0.143-0.189,0.226-0.422,0.25-0.7c0.033-0.466-0.184-1.3-0.65-2.5c-0.021-0.053-0.045-0.103-0.075-0.149
	c1.161,0.793,1.786,1.443,1.875,1.95C30.733,186.566,30.267,187.033,29.1,186.8z M24.775,187.15
	c1.305,0.813,2.313,1.122,3.025,0.925c-0.003,0.088-0.003,0.18,0,0.274c-0.1,1.601-0.45,2.617-1.05,3.051
	c-0.199-0.372-0.382-0.722-0.55-1.051c-0.478-0.914-0.828-1.631-1.05-2.149C25.005,187.844,24.88,187.494,24.775,187.15z
	 M20.575,186.475c0.312-0.178,0.653-0.403,1.025-0.675c0.341-0.279,0.941-0.138,1.8,0.425c-0.209,0.541-0.376,1.183-0.5,1.926
	c-0.059,0.409-0.125,0.784-0.2,1.125c-0.226,1.025-0.525,1.75-0.9,2.175c-0.867-0.566-1.283-2.033-1.25-4.4
	C20.563,186.851,20.571,186.659,20.575,186.475z M222.3,141.675c0.934-0.874,1.984-1.857,3.15-2.95
	c0.266,0.276,0.499,0.585,0.7,0.926c0.09,0.144,0.174,0.294,0.25,0.449c0.633,1.233,0.899,2.367,0.8,3.4
	c-0.014,0.126-0.03,0.242-0.05,0.35c-0.055,0.232-0.13,0.44-0.226,0.625c-0.073,0.167-0.164,0.316-0.274,0.45
	c-0.347,0.424-0.863,0.698-1.551,0.825h-0.024c-1.393,0.26-2.602,0.01-3.625-0.75c-0.163-0.122-0.321-0.255-0.476-0.4
	C221.393,143.719,221.835,142.743,222.3,141.675z M154.8,166.8c-0.495-0.218-0.887-0.602-1.175-1.149
	c0.462-0.563,0.929-1.146,1.4-1.75c0.297-0.173,0.597-0.365,0.9-0.575c0.047,1.207,0.08,2.44,0.1,3.7
	C155.559,167.032,155.15,166.957,154.8,166.8z M154.9,169.925c0.298,0.709,0.673,1.234,1.125,1.575
	c-0.019,1.555-0.061,3.146-0.125,4.775c-0.491-0.65-0.833-1.634-1.025-2.95v-0.05c-0.031-0.176-0.056-0.351-0.075-0.525
	c-0.097-1.078-0.105-2.054-0.025-2.925C154.814,169.856,154.855,169.89,154.9,169.925z M168.3,161.35
	c-0.481,0.004-0.965-0.079-1.45-0.25c-0.851-0.283-1.81-0.925-2.875-1.925c0.964-1.587,1.906-2.678,2.825-3.274
	C167.487,157.215,167.987,159.031,168.3,161.35z M156.35,176.725c0.536-1.02,1.261-2.653,2.175-4.899
	c0.029-0.011,0.054-0.019,0.075-0.025c1.7-0.533,2.883-1.666,3.55-3.399c0.367,1.3,0.684,2.116,0.95,2.449
	c0.5,0.733,1.25,0.95,2.25,0.65c-0.2-1.434-0.233-2.6-0.1-3.5c0.367,0.2,0.783,0.3,1.25,0.3c0.233,0.033,0.633,0.033,1.2,0
	c0.375,0,0.717-0.008,1.025-0.024c0.074,2.104,0.224,3.929,0.45,5.475c-0.264,0.18-0.572,0.329-0.925,0.45
	c-0.083,0.023-0.166,0.049-0.25,0.075c-0.96,0.21-1.977,0.085-3.05-0.375c-0.791-0.332-1.533-0.79-2.225-1.375
	c-0.019,0.223-0.043,0.447-0.075,0.675c-0.072,0.542-0.189,1.033-0.35,1.475c-0.072,0.198-0.156,0.382-0.25,0.55
	c-0.145,0.284-0.312,0.534-0.5,0.75c-0.619,0.723-1.478,1.14-2.575,1.25c-0.446,0.043-0.938,0.034-1.475-0.024
	C157.072,177.152,156.688,176.994,156.35,176.725z M171.775,174.6c0.191,2.321-0.284,3.938-1.425,4.851
	c-1.833,1.434-3.55,1.35-5.15-0.25c-0.551-0.523-1.017-1.115-1.4-1.775c-0.28-0.477-0.521-0.984-0.725-1.524
	c0.668-0.464,1.209-0.664,1.625-0.601c0.3,0.066,0.983,0.2,2.05,0.4c0.967,0.066,1.783-0.101,2.45-0.5
	c0.065-0.041,0.123-0.083,0.175-0.125c0.237,1.226,0.529,2.233,0.875,3.024c0.511-1.037,0.919-2.237,1.225-3.6
	C171.575,174.538,171.675,174.571,171.775,174.6z M214.425,155.15c0.313-0.396,0.621-0.796,0.925-1.2c0.354,0.3,0.854,0.45,1.5,0.45
	c0.267-1.434,0.601-2.551,1-3.351c0.301,0.3,0.65,0.533,1.051,0.7c0.233,0.066,0.633,0.184,1.199,0.35
	c0.2,0.067,0.601,0.167,1.2,0.301c0.121,0.544,0.263,1.035,0.425,1.475c-0.126,1.28-0.201,1.955-0.225,2.025
	c-0.366,1.3-1.283,1.949-2.75,1.949c-1.033-0.033-2.033-0.466-3-1.3C215.27,156.146,214.828,155.68,214.425,155.15z
	 M220.825,158.125c0.249,0.434,0.649,0.834,1.2,1.2c-0.518,2.295-1.459,3.687-2.825,4.175c-2.167,0.8-3.783,0.2-4.851-1.8
	c-0.346-0.665-0.604-1.373-0.774-2.125c-0.116-0.532-0.184-1.083-0.2-1.65c0.737-0.24,1.313-0.266,1.725-0.075
	c0.267,0.134,0.867,0.467,1.801,1c0.866,0.367,1.683,0.45,2.449,0.25C219.974,158.933,220.465,158.607,220.825,158.125z M30.425,164
	c-0.05,0.127-0.109,0.243-0.175,0.35c-0.248,0.416-0.665,0.699-1.25,0.851h-0.025c-1.155,0.33-2.18,0.196-3.075-0.4
	c-0.667-0.434-1.35-1.217-2.05-2.35c-0.379-0.485-0.704-0.919-0.975-1.3c0.083,1.1-0.142,2.199-0.675,3.3
	c-1.067,2.2-2.867,3.283-5.4,3.25c-0.753,0-1.337-0.167-1.75-0.5c-0.48-0.357-0.747-0.925-0.8-1.7
	c-0.006-0.084-0.015-0.167-0.025-0.25c-0.013-0.763,0.162-1.487,0.525-2.175c0.136-0.259,0.303-0.518,0.5-0.775
	c2.249-0.148,5.166-0.781,8.75-1.899c1.733-0.556,3.292-0.997,4.675-1.325c0.313,0.257,0.588,0.557,0.825,0.899
	c0.068,0.104,0.134,0.212,0.2,0.325c0.6,1,0.883,1.95,0.85,2.851C30.55,163.47,30.508,163.753,30.425,164z M13.95,172.575
	c0.013-0.138,0.03-0.279,0.05-0.425c0.107-0.886,0.266-1.669,0.475-2.351c0.027,0.036,0.053,0.069,0.075,0.101
	c0.295,1.559,1.195,2.292,2.7,2.199c1.467-0.133,2.633-0.85,3.5-2.149c0.033,1.133,0.117,1.883,0.25,2.25
	c0.3,0.7,0.883,1.017,1.75,0.95c0.133-1.334,0.333-2.317,0.6-2.95c0.267,0.267,0.566,0.45,0.9,0.55c0.2,0.033,0.533,0.1,1,0.2
	c0.33,0.092,0.68,0.158,1.05,0.2c0.14,0.419,0.29,0.803,0.45,1.149c0,1.129,0,1.729,0,1.8c-0.125,0.606-0.392,1.065-0.8,1.375
	c-0.342,0.271-0.792,0.429-1.35,0.476c-0.093,0.007-0.185,0.007-0.275,0c-1.419,0.014-2.719-0.794-3.9-2.425
	c-0.053,0.176-0.111,0.351-0.175,0.524c-0.162,0.431-0.345,0.806-0.55,1.125c-0.104,0.162-0.212,0.313-0.325,0.45
	c-0.183,0.215-0.382,0.398-0.6,0.55c-0.621,0.453-1.371,0.628-2.25,0.525c-0.387-0.051-0.795-0.151-1.225-0.3
	c-0.404-0.146-0.72-0.404-0.95-0.775c-0.404-0.645-0.538-1.637-0.4-2.975C13.947,172.628,13.947,172.603,13.95,172.575z
	 M27.375,176.975c-0.274,1.995-0.966,3.253-2.075,3.775c-1.767,0.833-3.15,0.434-4.15-1.2c-0.338-0.556-0.597-1.155-0.775-1.8
	c-0.132-0.442-0.224-0.908-0.275-1.4c0.339-0.131,0.639-0.206,0.9-0.225c0.036,0.001,0.07,0.001,0.1,0
	c0.149,0.008,0.283,0.032,0.4,0.075c0.233,0.1,0.767,0.35,1.6,0.75c0.767,0.233,1.45,0.233,2.05,0
	c0.474-0.158,0.841-0.434,1.1-0.825c0.02-0.027,0.036-0.053,0.05-0.075c0.015,0.022,0.032,0.048,0.05,0.075
	C26.576,176.439,26.917,176.724,27.375,176.975z M103.075,173.425c-0.063,0.108-0.138,0.208-0.225,0.3
	c-0.326,0.361-0.775,0.569-1.35,0.625h-0.05c-1.18,0.121-2.164-0.179-2.95-0.899c-0.027-0.024-0.052-0.049-0.075-0.075
	c1.509-0.626,3.176-1.367,5-2.225c0.07,0.515,0.062,0.998-0.025,1.449c-0.023,0.106-0.048,0.206-0.075,0.301
	C103.256,173.095,103.173,173.27,103.075,173.425z M85.4,179.125c0.026-0.119,0.06-0.244,0.1-0.375
	c0.267-0.855,0.567-1.605,0.9-2.25c0.018,0.027,0.035,0.053,0.05,0.075c0.027,1.597,0.777,2.472,2.25,2.625
	c1.5,0.133,2.783-0.384,3.85-1.55c-0.133,1.166-0.167,1.916-0.1,2.25c0.133,0.733,0.633,1.149,1.5,1.25
	c0.433-1.334,0.8-2.267,1.1-2.801c0.233,0.301,0.517,0.517,0.85,0.65c0.167,0.1,0.483,0.233,0.95,0.4
	c0.298,0.157,0.614,0.291,0.95,0.399c0.067,0.442,0.15,0.851,0.25,1.226c-0.2,1.103-0.3,1.677-0.3,1.725
	c-0.4,1.066-1.217,1.55-2.45,1.45c-0.867-0.101-1.667-0.533-2.4-1.3c-0.492-0.518-0.917-1.126-1.275-1.825
	c-0.082,0.177-0.173,0.352-0.275,0.524c-1.267,2.233-3.017,2.733-5.25,1.5C85.063,182.503,84.83,181.179,85.4,179.125z M97,184.575
	c0.157,0.405,0.457,0.789,0.9,1.149c-0.601,1.894-1.484,3.001-2.65,3.325c-1.9,0.533-3.2-0.083-3.9-1.85
	c-0.243-0.595-0.401-1.22-0.475-1.875c-0.058-0.469-0.075-0.952-0.05-1.45c0.637-0.138,1.111-0.113,1.425,0.075
	c0.2,0.133,0.683,0.467,1.45,1c0.7,0.366,1.367,0.483,2,0.35C96.223,185.205,96.656,184.963,97,184.575z"/>
<path style="fill-rule:evenodd;clip-rule:evenodd;fill:#392F20;" d="M211.05,165.925l-0.2-1.274c0.257-0.194,0.516-0.411,0.775-0.65
	c-0.161,0.501-0.336,1.102-0.525,1.8C211.087,165.834,211.07,165.875,211.05,165.925z M207.75,162.05
	c0.972,0.291,1.806,0.408,2.5,0.351c1.406-0.104,2.515-1.046,3.325-2.825c0.171,0.752,0.429,1.46,0.774,2.125
	c1.067,2,2.684,2.6,4.851,1.8c1.366-0.488,2.308-1.88,2.825-4.175c0.437,0.295,0.979,0.57,1.625,0.825
	c0.821,0.313,1.579,0.522,2.274,0.625c-0.014,0.275-0.122,0.567-0.325,0.875c-0.025,0.036-0.05,0.069-0.074,0.1
	c-0.35,0.384-1.058,0.667-2.125,0.85c-0.373,0.055-0.706,0.113-1,0.176c-0.085-0.184-0.135-0.358-0.15-0.525l-0.35,0.25
	c-0.2,0.164-0.366,0.33-0.5,0.5c-0.23,0.064-0.397,0.131-0.5,0.2c-0.182,0.164-0.348,0.313-0.5,0.45
	c-0.453,0.402-0.804,0.702-1.051,0.899c-0.5,0.467-1.116,0.733-1.85,0.8c-1.033,0.101-2.083-0.116-3.15-0.649h-0.024
	c0.224,0.631,0.599,1.381,1.125,2.25c0.425,0.7,0.857,1.316,1.3,1.85c0.896,1.121,1.821,1.896,2.775,2.325
	c0.645,0.305,1.303,0.446,1.975,0.425c0.475-0.013,0.866-0.088,1.175-0.225c-0.105,0.254-0.28,0.479-0.524,0.675
	c-0.194,0.155-0.42,0.255-0.676,0.3c-0.502,0.084-1.127-0.041-1.875-0.375c-0.487-0.217-1.028-0.525-1.625-0.925
	c-0.447-0.302-0.922-0.651-1.425-1.05c-0.078-0.066-0.153-0.133-0.225-0.2c-0.411-0.322-0.778-0.547-1.101-0.675
	c-0.404-0.175-0.729-0.183-0.975-0.025c-0.482,0.292-0.915,0.525-1.3,0.7c-0.083,0.038-0.166,0.071-0.25,0.1
	c0.262-0.44,0.495-0.957,0.7-1.55c0.29-0.871,0.54-2.104,0.75-3.7c-0.954-0.52-1.588-1.187-1.9-2c-1,0.534-2.366,0.617-4.1,0.25
	c-0.362-0.073-0.662-0.165-0.9-0.274c-0.019-0.008-0.035-0.016-0.05-0.025C207.382,162.385,207.565,162.218,207.75,162.05z
	 M183.025,156.6c0.027-0.054,0.053-0.104,0.074-0.149c2.801-5.8,4.917-10.467,6.351-14c1.207-2.488,2.332-4.813,3.375-6.976
	c1.156-1.082,2.381-2.224,3.675-3.425c0.667,5.066-0.083,11.851-2.25,20.351c-2.434,9.466-3.65,16.1-3.65,19.899
	c2.372-0.249,5.03-1.274,7.976-3.075c0.234,0.438,0.359,0.813,0.375,1.125c0.033,0.733-0.101,1.25-0.4,1.551
	c-0.267,0.267-0.6,0.316-1,0.149c0,0.066-0.1,0.184-0.3,0.351c-0.134,0.399-0.267,0.666-0.4,0.8
	c-0.066,0.166-0.216,0.283-0.449,0.35c-0.2,2.367-0.584,3.8-1.15,4.3l-0.4-1.35c-0.3,2.566-0.966,3.35-2,2.35
	c-0.466-1.866-0.783-3.267-0.949-4.199c-0.233,1.233-0.567,2.149-1,2.75c-0.7-0.834-0.95-3.051-0.75-6.65l-0.15,0.1
	c-0.733,2-1.783,2.634-3.15,1.9c-0.033-0.733,0.217-1.816,0.75-3.25c0.7-1.767,1.101-2.866,1.2-3.3l-0.149-1.65
	c-1.167,1.334-2.167,1.783-3,1.351c0-0.9,0.133-2.051,0.399-3.45c-0.366-0.267-0.533-0.617-0.5-1.05
	c-0.666-0.5-1.05-1.034-1.149-1.601c-0.067-0.434,0.033-0.983,0.3-1.649c0.333-0.801,0.566-1.4,0.7-1.801l-0.051-0.199
	c-0.6,1.199-1.366,1.566-2.3,1.1C183.033,157.031,183.025,156.815,183.025,156.6z M176.025,185.875
	c-0.024,0.264-0.116,0.521-0.275,0.775c-0.131,0.199-0.306,0.357-0.525,0.475c-0.749,0.4-2.015,0.334-3.8-0.2
	c-0.499-0.156-1.04-0.348-1.625-0.575c-0.086-0.033-0.169-0.066-0.25-0.1c-1.155-0.407-1.889-0.424-2.2-0.05
	c-0.382,0.441-0.732,0.808-1.05,1.1c-0.063,0.061-0.121,0.119-0.175,0.175c0.104-0.511,0.162-1.085,0.175-1.725
	c0.021-0.871-0.104-2.104-0.375-3.7c-1.089-0.215-1.914-0.665-2.475-1.35c-0.767,0.8-2.034,1.3-3.8,1.5
	c-0.368,0.04-0.684,0.048-0.95,0.024c-0.65-0.056-0.992-0.297-1.025-0.725c0.248,0.026,0.523,0.043,0.825,0.05
	c1.267,0.033,2.267-0.1,3-0.399c1.309-0.524,2.076-1.766,2.3-3.726c0.383,0.66,0.85,1.252,1.4,1.775c1.6,1.6,3.316,1.684,5.15,0.25
	c1.141-0.913,1.616-2.529,1.425-4.851c0.5,0.155,1.091,0.255,1.775,0.301c0.901,0.049,1.701,0.016,2.4-0.101
	c0.065,0.259,0.049,0.559-0.05,0.9c-0.015,0.059-0.032,0.117-0.051,0.175c-0.222,0.476-0.821,0.951-1.8,1.425
	c-0.326,0.163-0.617,0.313-0.875,0.45c-0.123-0.142-0.214-0.291-0.275-0.45l-0.25,0.351c-0.143,0.219-0.251,0.428-0.325,0.625
	c-0.203,0.146-0.344,0.271-0.425,0.375c-0.019,0.036-0.135,0.229-0.35,0.574c-0.168,0.292-0.402,0.684-0.7,1.176
	c-0.367,0.6-0.883,1.05-1.55,1.35c-0.966,0.4-2.017,0.517-3.15,0.35c0.404,0.525,0.97,1.108,1.7,1.75
	c2.767,2.4,5.15,3.267,7.15,2.601C175.44,186.295,175.782,186.103,176.025,185.875z M162.725,183.025
	c0.201-0.286,0.392-0.603,0.575-0.95c0,0.553,0,1.228,0,2.024c0,0.023,0,0.049,0,0.075L162.725,183.025z M156.075,177.25
	c0.087-0.15,0.178-0.325,0.275-0.525c0.338,0.27,0.722,0.428,1.15,0.476c0.537,0.059,1.029,0.067,1.475,0.024
	c1.097-0.11,1.956-0.527,2.575-1.25c0.188-0.216,0.355-0.466,0.5-0.75c0.094-0.168,0.178-0.352,0.25-0.55
	c0.161-0.441,0.278-0.933,0.35-1.475c0.032-0.228,0.057-0.452,0.075-0.675c0.692,0.585,1.434,1.043,2.225,1.375
	c1.073,0.46,2.09,0.585,3.05,0.375c0.084-0.026,0.167-0.052,0.25-0.075c0.353-0.121,0.661-0.271,0.925-0.45
	c0.064,0.465,0.131,0.907,0.2,1.325c-0.052,0.042-0.11,0.084-0.175,0.125c-0.667,0.399-1.483,0.566-2.45,0.5
	c-1.067-0.2-1.75-0.334-2.05-0.4c-0.416-0.063-0.957,0.137-1.625,0.601c-0.021,0.013-0.046,0.029-0.075,0.05c-1,1-1.767,1.7-2.3,2.1
	c-0.688,0.51-1.413,0.718-2.175,0.625c-0.24-0.03-0.481-0.088-0.725-0.175c-0.502-0.195-1.044-0.579-1.625-1.15
	C156.147,177.32,156.114,177.287,156.075,177.25z M155.875,177.025L155.85,177c-0.7-0.733-1.15-1.4-1.35-2
	c-0.5,0.023-0.883,0.074-1.15,0.15c-0.1,0.028-0.184,0.062-0.25,0.1c-0.067-0.179-0.117-0.354-0.15-0.525
	c0.21-0.043,0.41-0.11,0.6-0.199c0.542-0.232,0.984-0.633,1.325-1.2c0.192,1.316,0.534,2.3,1.025,2.95
	C155.894,176.522,155.885,176.772,155.875,177.025z M154.525,169.575c-1.211,0.142-2.036,0.15-2.475,0.024
	c-0.223-0.048-0.415-0.122-0.575-0.225c-0.223-0.125-0.397-0.292-0.525-0.5c0.142-0.164,0.283-0.331,0.425-0.5
	c0.894-0.199,1.744-0.641,2.55-1.325c-0.102,0.797-0.01,1.48,0.275,2.05C154.29,169.279,154.398,169.438,154.525,169.575z
	 M102.725,174.45c0.147,0.25,0.306,0.5,0.475,0.75c0.646,0.945,1.296,1.537,1.95,1.774c-0.031,0.173-0.073,0.323-0.125,0.45
	c-0.188,0.459-0.463,0.701-0.825,0.726c-0.432,0.028-0.981-0.238-1.65-0.801c-0.133,1-0.583,1.733-1.35,2.2
	c-0.667,0.4-1.483,0.55-2.45,0.45c-0.332-0.048-0.649-0.114-0.95-0.2c-0.335-0.108-0.652-0.242-0.95-0.399
	c-0.467-0.167-0.783-0.301-0.95-0.4c-0.333-0.134-0.617-0.35-0.85-0.65c-0.3,0.534-0.667,1.467-1.1,2.801
	c-0.867-0.101-1.367-0.517-1.5-1.25c-0.067-0.334-0.034-1.084,0.1-2.25c-1.066,1.166-2.35,1.683-3.85,1.55
	c-1.473-0.153-2.223-1.028-2.25-2.625c0.418,0.63,1.268,1.038,2.55,1.225c1.525,0.244,2.951-0.348,4.275-1.774
	c-0.819,0.286-1.678,0.395-2.575,0.324c-0.345-0.029-0.67-0.088-0.975-0.175c1.786-0.313,3.853-0.913,6.2-1.8
	c-0.259,0.237-0.526,0.453-0.8,0.65c0.271,0.434,0.646,0.842,1.125,1.225c0.5,0.434,1.183,0.934,2.05,1.5
	c1.133,0.7,1.867,1.033,2.2,1c0.567-0.066,1.067-0.634,1.5-1.7c0.333-0.733,0.567-1.566,0.7-2.5
	C102.708,174.513,102.716,174.479,102.725,174.45z M88.3,190.5l-0.05-1.125c0.24-0.156,0.481-0.34,0.725-0.55
	c-0.17,0.433-0.378,0.958-0.625,1.575C88.339,190.428,88.322,190.461,88.3,190.5z M84.85,186.525
	c0.191,0.114,0.408,0.222,0.65,0.324c0.933,0.434,1.733,0.65,2.4,0.65c1.172,0.026,2.164-0.699,2.975-2.175
	c0.074,0.655,0.232,1.28,0.475,1.875c0.7,1.767,2,2.383,3.9,1.85c1.166-0.324,2.049-1.432,2.65-3.325
	c0.335,0.269,0.752,0.526,1.25,0.775c0.69,0.339,1.332,0.572,1.925,0.7c-0.035,0.229-0.144,0.463-0.325,0.7
	c-0.029,0.039-0.062,0.081-0.1,0.125c-0.312,0.29-0.928,0.465-1.85,0.524c-0.3,0.026-0.566,0.052-0.8,0.075
	c-0.067-0.159-0.1-0.317-0.1-0.475l-0.3,0.199c-0.21,0.141-0.385,0.282-0.525,0.426c-0.167,0.041-0.292,0.083-0.375,0.125
	c-0.164,0.129-0.314,0.245-0.45,0.35c-0.411,0.318-0.728,0.552-0.95,0.7c-0.466,0.333-1,0.517-1.6,0.55
	c-0.867,0.033-1.717-0.217-2.55-0.75c0.143,0.549,0.393,1.199,0.75,1.95c1.333,2.767,2.883,4.217,4.65,4.35
	c0.417,0.028,0.758-0.014,1.025-0.125c-0.127,0.193-0.302,0.368-0.525,0.525c-0.17,0.123-0.353,0.206-0.55,0.25
	c-0.733,0.122-1.675-0.328-2.825-1.351c-0.338-0.296-0.697-0.646-1.075-1.05c-0.065-0.063-0.132-0.12-0.2-0.175
	c-0.731-0.668-1.281-0.909-1.65-0.725c-0.431,0.208-0.823,0.374-1.175,0.5c-0.051,0.018-0.102,0.034-0.15,0.05
	c0.24-0.354,0.464-0.771,0.675-1.25c0.29-0.704,0.582-1.721,0.875-3.05c-0.764-0.52-1.239-1.137-1.425-1.851
	c-0.867,0.367-2,0.334-3.4-0.1c-0.303-0.09-0.553-0.189-0.75-0.3C84.94,187.157,84.757,186.865,84.85,186.525z M90.825,183.875
	c-0.042,0.007-0.083,0.015-0.125,0.025c-1.1,0.466-1.9,0.767-2.4,0.899c-0.9,0.267-1.7,0.066-2.4-0.6
	c-0.337-0.309-0.628-0.784-0.875-1.425c-0.018-0.04-0.034-0.082-0.05-0.125c-0.023-0.082-0.048-0.165-0.075-0.25
	c-0.3-0.801-0.433-1.483-0.4-2.051c-0.394-0.122-0.702-0.197-0.925-0.225c-0.089-0.017-0.164-0.025-0.225-0.025
	c0.014-0.148,0.039-0.29,0.075-0.425c0.702,0.135,1.361-0.049,1.975-0.55c-0.57,2.054-0.336,3.378,0.7,3.975
	c2.233,1.233,3.983,0.733,5.25-1.5c0.102-0.173,0.193-0.348,0.275-0.524c0.358,0.699,0.783,1.308,1.275,1.825
	c0.733,0.767,1.533,1.199,2.4,1.3c1.233,0.1,2.05-0.384,2.45-1.45c0-0.048,0.1-0.622,0.3-1.725c0.309,1.1,0.775,1.875,1.4,2.324
	c0.966,0.7,1.95,1.017,2.95,0.95c0.274-0.017,0.524-0.066,0.75-0.149c-0.019,0.036-0.035,0.069-0.05,0.1
	c-0.4,0.8-1.25,1.017-2.55,0.65c-2.033-0.567-3.1-0.851-3.2-0.851c-0.105,0.201-0.222,0.376-0.35,0.525
	c-0.344,0.388-0.777,0.63-1.3,0.725c-0.633,0.134-1.3,0.017-2-0.35c-0.767-0.533-1.25-0.867-1.45-1
	C91.937,183.762,91.462,183.737,90.825,183.875z M84.675,174.2c-0.146,0.315-0.304,0.657-0.475,1.024
	c-0.087-0.075-0.162-0.158-0.225-0.25c-0.191-0.276-0.258-0.593-0.2-0.949C84.069,174.114,84.369,174.173,84.675,174.2z
	 M27.8,188.075c-0.712,0.197-1.72-0.111-3.025-0.925c-0.37-0.227-0.761-0.493-1.175-0.801c-0.067-0.046-0.134-0.088-0.2-0.125
	c-0.858-0.563-1.458-0.704-1.8-0.425c-0.372,0.271-0.713,0.497-1.025,0.675c-0.073,0.042-0.148,0.083-0.225,0.125
	c0.198-0.405,0.365-0.872,0.5-1.399c0.184-0.779,0.309-1.837,0.375-3.175c-0.837-0.393-1.412-0.918-1.725-1.575
	c-0.767,0.533-1.883,0.7-3.35,0.5c-0.319-0.042-0.585-0.1-0.8-0.175c-0.502-0.172-0.735-0.43-0.7-0.775
	c0.193,0.071,0.41,0.138,0.65,0.2c1,0.267,1.833,0.35,2.5,0.25c1.155-0.184,2.013-1.084,2.575-2.7
	c0.178,0.645,0.437,1.244,0.775,1.8c1,1.634,2.383,2.033,4.15,1.2c1.109-0.522,1.801-1.78,2.075-3.775
	c0.396,0.22,0.871,0.412,1.425,0.575c0.712,0.209,1.362,0.334,1.95,0.375c0.014,0.233-0.053,0.492-0.2,0.775
	c-0.026,0.045-0.06,0.087-0.1,0.125c-0.276,0.343-0.843,0.618-1.7,0.825c-0.319,0.075-0.603,0.149-0.85,0.225
	c-0.077-0.145-0.127-0.286-0.15-0.425l-0.25,0.25c-0.153,0.143-0.278,0.284-0.375,0.425c-0.201,0.079-0.343,0.154-0.425,0.225
	c-0.143,0.16-0.276,0.311-0.4,0.45c-0.338,0.362-0.604,0.629-0.8,0.8c-0.4,0.4-0.9,0.667-1.5,0.801
	c-0.825,0.165-1.684,0.064-2.575-0.301c0.238,0.525,0.596,1.126,1.075,1.801c1.767,2.5,3.517,3.666,5.25,3.5
	c0.448-0.045,0.807-0.153,1.075-0.325c-0.101,0.233-0.259,0.459-0.475,0.675C28.191,187.902,28.008,188.011,27.8,188.075z
	 M18.5,182.225c0.188-0.177,0.371-0.376,0.55-0.6c-0.086,0.441-0.186,0.967-0.3,1.575c-0.004,0.019-0.013,0.044-0.025,0.075
	L18.5,182.225z M14.125,176.1c-0.043-0.063-0.085-0.129-0.125-0.199c-0.433-0.733-0.683-1.384-0.75-1.95
	c-0.1,0.033-0.283,0.033-0.55,0c-0.162-0.019-0.295-0.035-0.4-0.05c-0.087,0-0.154,0-0.2,0c-0.015-0.157-0.015-0.308,0-0.45
	c0.167,0.002,0.325-0.015,0.475-0.05c0.508-0.09,0.958-0.349,1.35-0.775c0.006-0.021,0.014-0.037,0.025-0.05
	c-0.003,0.027-0.003,0.053,0,0.075c-0.138,1.338-0.004,2.33,0.4,2.975c0.229,0.371,0.546,0.629,0.95,0.775
	c0.43,0.148,0.838,0.249,1.225,0.3c0.879,0.103,1.629-0.072,2.25-0.525c0.218-0.151,0.417-0.335,0.6-0.55
	c0.113-0.138,0.221-0.288,0.325-0.45c0.205-0.319,0.388-0.694,0.55-1.125c0.063-0.174,0.122-0.349,0.175-0.524
	c1.181,1.631,2.481,2.438,3.9,2.425c0.09,0.007,0.182,0.007,0.275,0c0.558-0.047,1.008-0.205,1.35-0.476
	c0.408-0.31,0.675-0.769,0.8-1.375c0-0.071,0-0.671,0-1.8c0.489,1.049,1.072,1.749,1.75,2.101c1.1,0.533,2.117,0.683,3.05,0.449
	c0.279-0.061,0.521-0.152,0.725-0.274c-0.005,0.044-0.013,0.085-0.025,0.125c-0.233,0.866-1.033,1.217-2.4,1.05
	c-2.133-0.2-3.233-0.3-3.3-0.3c-0.032,0.106-0.065,0.206-0.1,0.3c-0.049,0.106-0.099,0.207-0.15,0.3
	c-0.014,0.022-0.03,0.048-0.05,0.075c-0.259,0.392-0.626,0.667-1.1,0.825c-0.6,0.233-1.283,0.233-2.05,0
	c-0.833-0.4-1.367-0.65-1.6-0.75c-0.117-0.043-0.25-0.067-0.4-0.075c-0.03,0.001-0.064,0.001-0.1,0
	c-0.261,0.019-0.561,0.094-0.9,0.225c-0.035,0.021-0.068,0.037-0.1,0.051c-1.033,0.633-1.783,1.066-2.25,1.3
	c-0.657,0.303-1.282,0.337-1.875,0.1c-0.198-0.071-0.39-0.171-0.575-0.3c-0.363-0.251-0.729-0.668-1.1-1.25
	C14.173,176.203,14.148,176.153,14.125,176.1z M15.05,167.2c0.413,0.333,0.997,0.5,1.75,0.5c2.534,0.033,4.333-1.05,5.4-3.25
	c0.533-1.101,0.758-2.2,0.675-3.3c0.271,0.381,0.596,0.814,0.975,1.3c0.7,1.133,1.383,1.916,2.05,2.35
	c0.895,0.597,1.92,0.73,3.075,0.4c0.004,0.111,0.013,0.228,0.025,0.35c0.033,0.7-0.05,1.167-0.25,1.4
	c-0.467,0.566-1.233,0.566-2.3,0c-1.2-0.8-2.017-1.3-2.45-1.5c-0.36,0.558-0.744,1.049-1.15,1.475
	c0.325,0.381,0.758,0.723,1.3,1.025c0.6,0.366,1.367,0.733,2.3,1.1c0.053,0.023,0.103,0.048,0.15,0.075
	c-0.357,0.199-0.724,0.375-1.1,0.525c0.712,0.04,1.538,0.031,2.475-0.025c0.368,0.1,0.627,0.124,0.775,0.075
	c0.115-0.036,0.223-0.095,0.325-0.175c0.396-0.041,0.813-0.091,1.25-0.15c-0.166,0.38-0.407,0.705-0.725,0.975
	c-0.6,0.534-1.383,0.817-2.35,0.851c-0.33,0-0.647-0.017-0.95-0.05c-0.37-0.042-0.72-0.108-1.05-0.2c-0.467-0.101-0.8-0.167-1-0.2
	c-0.333-0.1-0.633-0.283-0.9-0.55c-0.267,0.633-0.467,1.616-0.6,2.95c-0.867,0.066-1.45-0.25-1.75-0.95
	c-0.133-0.367-0.217-1.117-0.25-2.25c-0.867,1.3-2.033,2.017-3.5,2.149c-1.505,0.093-2.405-0.641-2.7-2.199
	c0.508,0.557,1.408,0.823,2.7,0.8c1.532-0.03,2.824-0.847,3.875-2.45c-0.751,0.399-1.56,0.633-2.425,0.7
	C17.068,169.092,15.852,168.509,15.05,167.2z M11.475,167.825c0.931,0.121,1.881-0.087,2.85-0.625
	c-0.246,0.679-0.305,1.295-0.175,1.85c0.032,0.154,0.082,0.296,0.15,0.425c-0.96-0.097-1.627-0.238-2-0.425
	c-0.195-0.098-0.354-0.215-0.475-0.35C11.596,168.464,11.479,168.173,11.475,167.825z M215.35,153.95
	c1.293-1.727,2.502-3.576,3.625-5.55c0.027,0.017,0.052,0.033,0.075,0.05c0.566,0.399,1.434,0.916,2.601,1.55
	c1.433,0.733,2.35,1.066,2.75,1c1.133-0.267,1.866-1.983,2.199-5.15c0.004-0.037,0.004-0.07,0-0.1c0.208,0.269,0.425,0.535,0.65,0.8
	c0.453,0.549,0.895,0.982,1.325,1.3c-0.069,0.213-0.145,0.43-0.226,0.65c-0.159,0.437-0.31,0.861-0.449,1.275
	c-0.362-0.134-0.779-0.358-1.25-0.676c-0.067,1.2-0.517,2.101-1.351,2.7c-0.733,0.566-1.684,0.816-2.85,0.75
	c-0.167,0-0.55-0.05-1.15-0.149c-0.6-0.134-1-0.233-1.2-0.301c-0.566-0.166-0.966-0.283-1.199-0.35c-0.4-0.167-0.75-0.4-1.051-0.7
	c-0.399,0.8-0.733,1.917-1,3.351C216.204,154.4,215.704,154.25,215.35,153.95z M225.075,145.75c-0.017,0.112-0.025,0.229-0.025,0.35
	c0,0.834-0.133,1.384-0.399,1.65c-0.634,0.634-1.567,0.566-2.801-0.2c-0.678-0.525-1.244-0.958-1.699-1.3
	c0.114-0.229,0.23-0.462,0.35-0.7c0.153-0.307,0.312-0.624,0.475-0.95c0.154,0.146,0.313,0.278,0.476,0.4
	C222.474,145.76,223.683,146.01,225.075,145.75z M229.425,141.75c0.009,0.49-0.032,1.023-0.125,1.6
	c-0.095,0.593-0.228,1.109-0.399,1.551c-0.08,0.179-0.164,0.346-0.25,0.5c-0.646-0.473-1.221-0.78-1.726-0.926
	c0.096-0.185,0.171-0.393,0.226-0.625c0.02-0.107,0.036-0.224,0.05-0.35c0.1-1.033-0.167-2.167-0.8-3.4
	c-0.076-0.155-0.16-0.306-0.25-0.449c0.891,0.429,1.441,0.695,1.649,0.8C228.395,140.817,228.937,141.251,229.425,141.75z
	 M156.025,167.7c-0.435-0.221-0.843-0.521-1.225-0.9c0.351,0.157,0.759,0.232,1.225,0.226
	C156.023,167.247,156.023,167.472,156.025,167.7z M156.025,171.5c-0.452-0.341-0.827-0.866-1.125-1.575
	c0.311,0.212,0.686,0.346,1.125,0.4C156.03,170.718,156.03,171.109,156.025,171.5z M173.375,159.2c0.17-0.523,0.37-1.048,0.6-1.575
	c0.043,0.575,0.019,1.149-0.075,1.725C173.721,159.29,173.546,159.24,173.375,159.2z M172.3,166.85
	c0.183-2.858,0.383-4.833,0.6-5.925c1.146,0.716,2.129,1.058,2.95,1.025c0.036,0.179,0.053,0.345,0.051,0.5
	c0.007,0.563-0.186,0.938-0.575,1.125c-0.468,0.22-1.21,0.178-2.225-0.125c0.3,1.166,0.15,2.166-0.45,3
	C172.543,166.588,172.427,166.721,172.3,166.85z M160.225,167.575c0.2-0.519,0.408-1.061,0.625-1.625
	c1.067-2.822,2.108-5.081,3.125-6.775c1.065,1,2.024,1.642,2.875,1.925c0.485,0.171,0.968,0.254,1.45,0.25
	c0.104,0.699,0.187,1.44,0.25,2.226c-0.177-0.035-0.361-0.077-0.55-0.125c-1.567-0.601-2.633-0.95-3.2-1.05
	c-0.271,0.708-0.588,1.35-0.95,1.925c0.497,0.342,1.097,0.617,1.8,0.825c1.177,0.327,2.186,0.569,3.025,0.725
	c0.01,0.353,0.018,0.711,0.025,1.075c0.008,0.45,0.017,0.893,0.025,1.325c-0.308,0.017-0.649,0.024-1.025,0.024
	c-0.567,0.033-0.967,0.033-1.2,0c-0.467,0-0.883-0.1-1.25-0.3c-0.133,0.9-0.1,2.066,0.1,3.5c-1,0.3-1.75,0.083-2.25-0.65
	c-0.267-0.333-0.583-1.149-0.95-2.449c-0.667,1.733-1.85,2.866-3.55,3.399c-0.021,0.007-0.046,0.015-0.075,0.025
	c0.262-0.636,0.537-1.319,0.825-2.05c1.26-0.618,2.218-1.769,2.875-3.45C161.623,166.853,160.956,167.27,160.225,167.575z
	 M172.025,171.25c0.121,0.042,0.246,0.075,0.375,0.1c1.434,0.334,2.683,0.233,3.75-0.3c0.273-0.137,0.507-0.295,0.699-0.475
	c0.003,0.043,0.003,0.085,0,0.125c-0.066,1.033-0.899,1.649-2.5,1.85c-1.072,0.144-1.922,0.26-2.55,0.351
	C171.883,172.369,171.958,171.819,172.025,171.25z M210.875,159.075c0.04-0.041,0.081-0.082,0.125-0.125
	c1.197-1.187,2.339-2.453,3.425-3.8c0.403,0.529,0.845,0.996,1.325,1.399c0.967,0.834,1.967,1.267,3,1.3
	c1.467,0,2.384-0.649,2.75-1.949c0.023-0.07,0.099-0.745,0.225-2.025c0.46,1.272,1.085,2.131,1.875,2.575
	c1.267,0.733,2.483,1.017,3.65,0.85c0.31-0.049,0.585-0.132,0.825-0.25c-0.005,0.037-0.013,0.07-0.025,0.101
	c-0.366,0.966-1.35,1.3-2.95,1c-2.5-0.434-3.8-0.65-3.899-0.65c-0.104,0.234-0.229,0.442-0.375,0.625
	c-0.36,0.482-0.852,0.808-1.476,0.975c-0.767,0.2-1.583,0.117-2.449-0.25c-0.934-0.533-1.534-0.866-1.801-1
	c-0.412-0.19-0.987-0.165-1.725,0.075c-0.045,0.004-0.087,0.013-0.125,0.025C212.247,158.451,211.456,158.826,210.875,159.075z
	 M31.3,164.325c-0.322-0.156-0.613-0.265-0.875-0.325c0.083-0.247,0.125-0.53,0.125-0.85c0.034-0.9-0.25-1.851-0.85-2.851
	c-0.066-0.113-0.132-0.221-0.2-0.325c0.768,0.301,1.234,0.492,1.4,0.575c0.52,0.26,1.003,0.576,1.45,0.95
	c0.034,0.282,0.051,0.557,0.05,0.825C32.09,163.001,31.723,163.668,31.3,164.325z M14.225,165.25c-0.686,0-1.21-0.017-1.575-0.05
	c-0.338-0.038-0.629-0.104-0.875-0.2c0.783-0.285,1.774-0.927,2.975-1.925C14.387,163.763,14.212,164.487,14.225,165.25z
	 M30.55,165.425c-0.104,0.155-0.212,0.306-0.325,0.45c0.017-0.225,0.025-0.45,0.025-0.675c0.001-0.038,0.001-0.08,0-0.125
	C30.35,165.197,30.45,165.313,30.55,165.425z M105.4,171.225c-0.058,1.051-0.291,1.95-0.7,2.7c-0.076,0.149-0.159,0.291-0.25,0.425
	c-0.504-0.457-0.963-0.765-1.375-0.925c0.098-0.155,0.181-0.33,0.25-0.524c0.027-0.095,0.052-0.194,0.075-0.301
	c0.087-0.451,0.095-0.935,0.025-1.449c0.422-0.203,0.855-0.411,1.3-0.625C104.967,170.745,105.192,170.979,105.4,171.225z
	 M96.8,174.025c0.519-0.201,1.06-0.418,1.625-0.65c0.023,0.026,0.048,0.051,0.075,0.075c0.787,0.721,1.77,1.021,2.95,0.899
	c-0.023,0.097-0.04,0.196-0.05,0.301c-0.066,0.733-0.217,1.199-0.45,1.399c-0.567,0.5-1.333,0.384-2.3-0.35
	C97.843,174.919,97.226,174.36,96.8,174.025z"/>
<path style="fill-rule:evenodd;clip-rule:evenodd;fill:#56472E;" d="M221.725,153.875c-0.162-0.439-0.304-0.931-0.425-1.475
	c0.601,0.1,0.983,0.149,1.15,0.149c1.166,0.066,2.116-0.184,2.85-0.75c0.834-0.6,1.283-1.5,1.351-2.7
	c0.471,0.317,0.888,0.542,1.25,0.676c-0.075,0.221-0.149,0.438-0.226,0.649c-0.13,0.317-0.255,0.625-0.375,0.925
	c0.036-0.013,0.07-0.029,0.101-0.05c-0.404,1.438-0.638,2.638-0.7,3.601c0.886-1.003,1.736-1.97,2.55-2.9
	c0.037,0.19,0.071,0.374,0.1,0.55c0.074,0.482,0.124,0.932,0.15,1.351c0.014,0.456-0.003,0.873-0.05,1.25
	c-0.055,0.333-0.146,0.624-0.275,0.875c-0.025,0.049-0.05,0.099-0.075,0.149c-0.243,0.391-0.585,0.683-1.024,0.875
	c-0.24,0.118-0.516,0.201-0.825,0.25c-1.167,0.167-2.384-0.116-3.65-0.85C222.81,156.006,222.185,155.147,221.725,153.875z
	 M175.85,164.4c-0.133,1.309-0.199,2.575-0.199,3.8c0.104-0.604,0.43-1.304,0.975-2.101c-0.05,1.493-0.075,2.909-0.075,4.25
	c0.264-0.6,0.589-1.315,0.976-2.149c0.007,0.047,0.015,0.097,0.024,0.149c0.057,0.347,0.057,0.663,0,0.95
	c-0.008,0.056-0.017,0.113-0.024,0.175c-0.104,0.427-0.329,0.793-0.676,1.101c-0.192,0.18-0.426,0.338-0.699,0.475
	c-1.067,0.533-2.317,0.634-3.75,0.3c-0.129-0.024-0.254-0.058-0.375-0.1c0.05-0.565,0.091-1.148,0.125-1.75
	c0.049-0.958,0.099-1.841,0.15-2.65c0.127-0.129,0.244-0.262,0.35-0.399c0.6-0.834,0.75-1.834,0.45-3
	c1.015,0.303,1.757,0.345,2.225,0.125C175.508,163.852,175.683,164.126,175.85,164.4z M153.35,175.15
	c0.267-0.076,0.65-0.127,1.15-0.15c0.2,0.6,0.65,1.267,1.35,2l0.025,0.025c-0.007,0.209-0.016,0.417-0.025,0.625
	c-0.48,0.964-1.313,1.431-2.5,1.399c-0.367-0.866-0.417-1.934-0.15-3.2C153.243,175.611,153.293,175.378,153.35,175.15z
	 M105.15,176.975c-0.654-0.237-1.304-0.829-1.95-1.774c-0.169-0.25-0.328-0.5-0.475-0.75c0.052-0.247,0.094-0.489,0.125-0.726
	c0.087-0.092,0.163-0.191,0.225-0.3c0.412,0.16,0.871,0.468,1.375,0.925c0.091-0.134,0.174-0.275,0.25-0.425
	c0.409-0.75,0.642-1.649,0.7-2.7c0.341,0.415,0.641,0.873,0.9,1.375c0.072-0.262,0.13-0.512,0.175-0.75
	c0.364,0.469,0.573,1.102,0.625,1.9c0.066,1.4-0.283,2.517-1.05,3.35C105.752,177.131,105.452,177.089,105.15,176.975z
	 M104.2,178.15c0.155,0.849,0.255,1.606,0.3,2.274c0.033,0.43,0.042,0.821,0.025,1.175c-0.012,0.398-0.053,0.748-0.125,1.051
	c-0.064,0.285-0.165,0.535-0.3,0.75c-0.031,0.052-0.064,0.102-0.1,0.149c-0.209,0.278-0.493,0.479-0.85,0.601
	c-0.226,0.083-0.476,0.133-0.75,0.149c-1,0.066-1.983-0.25-2.95-0.95c-0.625-0.449-1.091-1.225-1.4-2.324
	c-0.1-0.375-0.183-0.783-0.25-1.226c0.301,0.086,0.618,0.152,0.95,0.2c0.967,0.1,1.783-0.05,2.45-0.45
	c0.767-0.467,1.216-1.2,1.35-2.2C103.219,177.912,103.769,178.179,104.2,178.15z M83.575,180.125
	c0.223,0.027,0.531,0.103,0.925,0.225c-0.033,0.567,0.1,1.25,0.4,2.051c0.027,0.085,0.052,0.168,0.075,0.25
	c-0.043,0.06-0.085,0.109-0.125,0.149c-0.733,0.7-1.583,0.834-2.55,0.4c-0.033-0.767,0.267-1.617,0.9-2.55
	C83.315,180.466,83.44,180.29,83.575,180.125z M30.325,169.375c0.686-0.087,1.419-0.195,2.2-0.325
	c0.202,0.587,0.36,1.137,0.475,1.65c0.094,0.4,0.161,0.775,0.2,1.125c0.048,0.388,0.065,0.746,0.05,1.075
	c-0.018,0.289-0.077,0.547-0.175,0.774c-0.017,0.042-0.033,0.084-0.05,0.125c-0.159,0.334-0.409,0.592-0.75,0.775
	c-0.205,0.122-0.446,0.214-0.725,0.274c-0.933,0.233-1.95,0.084-3.05-0.449c-0.678-0.352-1.261-1.052-1.75-2.101
	c-0.16-0.347-0.31-0.73-0.45-1.149c0.303,0.033,0.62,0.05,0.95,0.05c0.967-0.033,1.75-0.316,2.35-0.851
	C29.918,170.08,30.16,169.755,30.325,169.375z M12.3,173.9c0.105,0.015,0.239,0.031,0.4,0.05c0.267,0.033,0.45,0.033,0.55,0
	c0.067,0.566,0.317,1.217,0.75,1.95c0.04,0.07,0.082,0.137,0.125,0.199c-0.051,0.089-0.093,0.155-0.125,0.2
	c-0.567,0.834-1.367,1.117-2.4,0.851c-0.167-0.801-0.017-1.7,0.45-2.7C12.128,174.265,12.211,174.082,12.3,173.9z M11.475,167.825
	c-0.466-0.063-0.924-0.205-1.375-0.425c0.333-0.5,0.774-1.267,1.325-2.301c0.114-0.025,0.231-0.059,0.35-0.1
	c0.246,0.096,0.537,0.162,0.875,0.2c0.365,0.033,0.89,0.05,1.575,0.05c0.01,0.083,0.019,0.166,0.025,0.25
	c0.053,0.775,0.319,1.343,0.8,1.7c0.802,1.309,2.019,1.892,3.65,1.75c0.865-0.067,1.673-0.301,2.425-0.7
	c-1.051,1.604-2.343,2.42-3.875,2.45c-1.292,0.023-2.192-0.243-2.7-0.8c-0.022-0.031-0.047-0.064-0.075-0.101
	c-0.065-0.103-0.124-0.211-0.175-0.325c-0.068-0.129-0.118-0.271-0.15-0.425c-0.129-0.555-0.071-1.171,0.175-1.85
	C13.356,167.738,12.406,167.946,11.475,167.825z M226.925,144.475c0.505,0.146,1.08,0.453,1.726,0.926
	c0.086-0.154,0.17-0.321,0.25-0.5c0.172-0.441,0.305-0.958,0.399-1.551c0.093-0.576,0.134-1.109,0.125-1.6
	c0.326,0.321,0.626,0.671,0.9,1.05c-0.329,1.079-0.912,2.763-1.75,5.05c-0.431-0.317-0.872-0.751-1.325-1.3
	c-0.226-0.265-0.442-0.531-0.65-0.8c0.029-0.291,0.046-0.566,0.051-0.825C226.761,144.791,226.852,144.642,226.925,144.475z
	 M151.375,168.375c0.735-0.86,1.485-1.769,2.25-2.725c0.288,0.548,0.68,0.932,1.175,1.149c0.382,0.38,0.791,0.68,1.225,0.9
	c0.008,0.86,0.008,1.735,0,2.625c-0.439-0.055-0.814-0.188-1.125-0.4c-0.044-0.035-0.086-0.068-0.125-0.1
	c-0.093-0.074-0.176-0.157-0.25-0.25c-0.127-0.138-0.235-0.296-0.325-0.476c-0.285-0.569-0.377-1.253-0.275-2.05
	C153.119,167.734,152.269,168.176,151.375,168.375z M174.95,155.675c0.639,0.344,1.172,0.951,1.6,1.825
	c0.113,0.232,0.214,0.466,0.3,0.7c-0.282,1.275-0.516,2.518-0.699,3.725c-0.099,0.011-0.199,0.02-0.301,0.025
	c-0.82,0.032-1.803-0.31-2.95-1.025c0.017-0.078,0.033-0.152,0.05-0.225c0.116-0.497,0.258-0.997,0.425-1.5
	c0.171,0.04,0.346,0.09,0.525,0.149c0.094-0.575,0.119-1.149,0.075-1.725c0.186-0.45,0.394-0.908,0.625-1.375
	c0.166,0.131,0.333,0.265,0.5,0.4C175.061,156.304,175.011,155.979,174.95,155.675z M32.4,162.325
	c0.001-0.269-0.016-0.543-0.05-0.825c0.104,0.092,0.204,0.184,0.3,0.275C32.572,161.961,32.489,162.145,32.4,162.325z M31.3,164.325
	c-0.125,0.213-0.259,0.421-0.4,0.625c-0.112,0.164-0.229,0.322-0.35,0.475c-0.1-0.111-0.2-0.228-0.3-0.35
	c0.008-0.252,0.008-0.494,0-0.726c0.066-0.106,0.125-0.223,0.175-0.35C30.687,164.061,30.978,164.169,31.3,164.325z M89.725,176.175
	c0.305,0.087,0.63,0.146,0.975,0.175c0.897,0.07,1.755-0.038,2.575-0.324c-1.324,1.427-2.75,2.019-4.275,1.774
	c-1.282-0.187-2.132-0.595-2.55-1.225c-0.016-0.022-0.032-0.048-0.05-0.075c-0.019-0.032-0.036-0.065-0.05-0.1
	C87.328,176.474,88.453,176.399,89.725,176.175z M83.775,174.025c0.424-0.289,0.899-0.613,1.425-0.976
	c-0.157,0.346-0.332,0.729-0.525,1.15C84.369,174.173,84.069,174.114,83.775,174.025z M160.225,167.575
	c0.731-0.306,1.397-0.723,2-1.25c-0.657,1.682-1.615,2.832-2.875,3.45C159.626,169.087,159.918,168.354,160.225,167.575z"/>
<path style="fill-rule:evenodd;clip-rule:evenodd;fill:#4D3F29;" d="M222.025,159.325c-0.551-0.366-0.951-0.767-1.2-1.2
	c0.146-0.183,0.271-0.391,0.375-0.625c0.1,0,1.399,0.217,3.899,0.65c1.601,0.3,2.584-0.034,2.95-1
	c0.013-0.03,0.021-0.063,0.025-0.101c0.439-0.192,0.781-0.484,1.024-0.875c0.213,0.225,0.413,0.466,0.601,0.726
	c1.033,1.466,0.783,2.616-0.75,3.449c-0.808,0.468-1.816,0.609-3.025,0.426c-0.695-0.103-1.453-0.312-2.274-0.625
	C223.004,159.896,222.462,159.62,222.025,159.325z M171.475,174.5c0.126-0.508,0.234-1.041,0.325-1.6
	c0.628-0.091,1.478-0.207,2.55-0.351c1.6-0.2,2.433-0.816,2.5-1.85c0.003-0.04,0.003-0.082,0-0.125
	c0.347-0.308,0.572-0.674,0.676-1.101c0.28,0.148,0.555,0.323,0.824,0.525c1.434,1.033,1.551,2.2,0.351,3.5
	c-0.63,0.672-1.547,1.105-2.75,1.3c-0.699,0.116-1.5,0.149-2.4,0.101c-0.684-0.046-1.275-0.146-1.775-0.301
	C171.675,174.571,171.575,174.538,171.475,174.5z M103.15,184.15c0.357-0.122,0.641-0.322,0.85-0.601
	c0.166,0.2,0.315,0.417,0.45,0.65c0.767,1.267,0.483,2.217-0.85,2.85c-0.707,0.333-1.548,0.383-2.525,0.15
	c-0.593-0.128-1.235-0.361-1.925-0.7c-0.498-0.249-0.915-0.507-1.25-0.775c-0.443-0.36-0.743-0.744-0.9-1.149
	c0.128-0.149,0.245-0.324,0.35-0.525c0.1,0,1.167,0.283,3.2,0.851c1.3,0.366,2.15,0.149,2.55-0.65
	C103.115,184.22,103.131,184.187,103.15,184.15z M27.375,176.975c-0.458-0.251-0.799-0.535-1.025-0.85
	c-0.019-0.027-0.035-0.053-0.05-0.075c0.052-0.093,0.102-0.193,0.15-0.3c0.034-0.094,0.067-0.193,0.1-0.3c0.067,0,1.167,0.1,3.3,0.3
	c1.367,0.167,2.167-0.184,2.4-1.05c0.012-0.04,0.02-0.081,0.025-0.125c0.341-0.184,0.591-0.441,0.75-0.775
	c0.202,0.181,0.394,0.381,0.575,0.601c0.967,1.133,0.833,2.116-0.4,2.949c-0.632,0.442-1.449,0.634-2.45,0.575
	c-0.588-0.041-1.238-0.166-1.95-0.375C28.246,177.387,27.771,177.194,27.375,176.975z M226.65,144.925
	c-0.005,0.259-0.021,0.534-0.051,0.825c0.004,0.029,0.004,0.063,0,0.1c-0.333,3.167-1.066,4.884-2.199,5.15
	c-0.4,0.066-1.317-0.267-2.75-1c-1.167-0.634-2.034-1.15-2.601-1.55c-0.023-0.017-0.048-0.033-0.075-0.05
	c0.404-0.7,0.796-1.417,1.176-2.15c0.455,0.342,1.021,0.774,1.699,1.3c1.233,0.767,2.167,0.834,2.801,0.2
	c0.267-0.267,0.399-0.816,0.399-1.65c0-0.12,0.009-0.237,0.025-0.35h0.024C225.787,145.623,226.304,145.349,226.65,144.925z
	 M168.55,163.575c0.054,0.728,0.095,1.494,0.125,2.3c-0.839-0.155-1.848-0.397-3.025-0.725c-0.703-0.208-1.303-0.483-1.8-0.825
	c0.361-0.575,0.678-1.217,0.95-1.925c0.567,0.1,1.633,0.449,3.2,1.05C168.189,163.498,168.373,163.54,168.55,163.575z
	 M30.225,165.875c-1.113,1.428-2.321,2.511-3.625,3.25c-0.047-0.027-0.097-0.052-0.15-0.075c-0.934-0.366-1.7-0.733-2.3-1.1
	c-0.542-0.303-0.975-0.645-1.3-1.025c0.406-0.426,0.79-0.917,1.15-1.475c0.433,0.2,1.25,0.7,2.45,1.5c1.066,0.566,1.833,0.566,2.3,0
	c0.2-0.233,0.283-0.7,0.25-1.4c-0.012-0.122-0.021-0.238-0.025-0.35H29c0.585-0.151,1.002-0.435,1.25-0.851
	c0.008,0.231,0.008,0.474,0,0.726c0.001,0.045,0.001,0.087,0,0.125C30.25,165.425,30.242,165.65,30.225,165.875z M27.975,169.625
	c0.351-0.025,0.718-0.059,1.1-0.1c-0.102,0.08-0.21,0.139-0.325,0.175C28.602,169.749,28.343,169.725,27.975,169.625z
	 M102.85,173.725c-0.031,0.236-0.073,0.479-0.125,0.726c-0.009,0.029-0.017,0.063-0.025,0.1c-0.133,0.934-0.367,1.767-0.7,2.5
	c-0.433,1.066-0.933,1.634-1.5,1.7c-0.333,0.033-1.067-0.3-2.2-1c-0.867-0.566-1.55-1.066-2.05-1.5
	c-0.479-0.383-0.854-0.791-1.125-1.225c0.274-0.197,0.541-0.413,0.8-0.65c0.273-0.107,0.548-0.216,0.825-0.325
	c0.019-0.007,0.036-0.016,0.05-0.024c0.426,0.335,1.043,0.894,1.85,1.675c0.967,0.733,1.733,0.85,2.3,0.35
	c0.233-0.2,0.383-0.666,0.45-1.399c0.011-0.104,0.027-0.204,0.05-0.301h0.05C102.075,174.294,102.524,174.086,102.85,173.725z"/>
<path style="fill-rule:evenodd;clip-rule:evenodd;fill:#4D4029;" d="M229.25,152c0.469-0.532,0.927-1.049,1.375-1.55
	c0.954,1.241,1.513,2.024,1.675,2.35c-1.108,0.545-2.092,0.461-2.95-0.25C229.321,152.374,229.287,152.19,229.25,152z
	 M178.55,165.95c0.171-0.352,0.346-0.719,0.525-1.101c0.251,0.181,0.427,0.314,0.524,0.4
	C179.262,165.573,178.912,165.807,178.55,165.95z M154.875,173.325c-0.341,0.567-0.783,0.968-1.325,1.2
	c-0.189,0.089-0.389,0.156-0.6,0.199c-0.175,0.041-0.359,0.065-0.55,0.075c-0.664-2.232-0.972-4.041-0.925-5.425
	c0.16,0.103,0.352,0.177,0.575,0.225c0.439,0.126,1.264,0.117,2.475-0.024c0.074,0.093,0.157,0.176,0.25,0.25
	c-0.08,0.871-0.072,1.847,0.025,2.925c0.019,0.175,0.044,0.35,0.075,0.525V173.325z M104.725,170.525
	c0.623-0.296,1.264-0.604,1.925-0.926c0.075,0.614,0.017,1.364-0.175,2.25c-0.045,0.238-0.104,0.488-0.175,0.75
	c-0.259-0.502-0.559-0.96-0.9-1.375C105.192,170.979,104.967,170.745,104.725,170.525z M104.5,180.425
	c-0.045-0.668-0.145-1.426-0.3-2.274c0.362-0.024,0.637-0.267,0.825-0.726c0.163,0.369,0.388,0.778,0.675,1.226
	c0.733,1.199,1.15,1.933,1.25,2.199C105.982,181.233,105.166,181.091,104.5,180.425z M84.2,175.225
	c-0.078,0.189-0.162,0.382-0.25,0.575c0.667,0.334,1.467,0.534,2.4,0.601c0.014,0.034,0.031,0.067,0.05,0.1
	c-0.333,0.645-0.633,1.395-0.9,2.25c-0.041,0.131-0.074,0.256-0.1,0.375c-0.614,0.501-1.273,0.685-1.975,0.55
	c-0.16-0.025-0.318-0.066-0.475-0.125c0.198-1.979,0.54-3.504,1.025-4.575C84.038,175.066,84.113,175.149,84.2,175.225z
	 M32.65,161.775c-0.096-0.092-0.196-0.184-0.3-0.275c-0.447-0.374-0.931-0.69-1.45-0.95c-0.166-0.083-0.632-0.274-1.4-0.575
	c-0.237-0.343-0.512-0.643-0.825-0.899c1.469-0.359,2.744-0.593,3.825-0.7c0.249,0.258,0.449,0.55,0.6,0.875
	c0.091,0.175,0.167,0.367,0.225,0.575C33.153,160.484,32.928,161.134,32.65,161.775z M32.525,169.05
	c0.09-0.018,0.182-0.034,0.275-0.05c0.376-0.067,0.743-0.134,1.1-0.2c0.902,1.004,1.436,1.638,1.6,1.9
	c-0.885,0.543-1.718,0.543-2.5,0C32.885,170.187,32.727,169.637,32.525,169.05z M13.95,172.575c-0.011,0.013-0.02,0.029-0.025,0.05
	c-0.392,0.427-0.842,0.686-1.35,0.775c-0.15,0.035-0.309,0.052-0.475,0.05c-0.166-0.003-0.333-0.02-0.5-0.05
	c-0.153-1.992-0.078-3.559,0.225-4.7c0.121,0.135,0.279,0.252,0.475,0.35c0.373,0.187,1.04,0.328,2,0.425
	c0.052,0.114,0.11,0.223,0.175,0.325c-0.209,0.682-0.368,1.465-0.475,2.351C13.98,172.296,13.963,172.438,13.95,172.575z
	 M10.95,162.375c0.97-0.004,2.053-0.013,3.25-0.025c0.331,0,0.681-0.017,1.05-0.05c-0.197,0.258-0.364,0.517-0.5,0.775
	c-1.201,0.998-2.192,1.64-2.975,1.925c-0.119,0.041-0.236,0.074-0.35,0.1c-0.207,0.046-0.399,0.063-0.575,0.051
	C10.677,164.166,10.71,163.241,10.95,162.375z M230.325,142.8c-0.274-0.379-0.574-0.729-0.9-1.05c-0.488-0.499-1.03-0.933-1.625-1.3
	c-0.208-0.104-0.759-0.371-1.649-0.8c-0.201-0.341-0.435-0.649-0.7-0.926c0.119-0.109,0.236-0.218,0.35-0.324
	c0.646-0.606,1.254-1.223,1.825-1.851h0.025c0.974,0.402,1.724,0.902,2.25,1.5c0.096,0.626,0.18,1.293,0.25,2
	c0.089,0.891,0.173,1.732,0.25,2.525C230.378,142.648,230.354,142.724,230.325,142.8z M174.6,156.25
	c0.107-0.22,0.215-0.445,0.325-0.675c0.012,0.037,0.02,0.07,0.025,0.1c0.061,0.304,0.11,0.629,0.149,0.976
	C174.933,156.515,174.766,156.381,174.6,156.25z M176.05,162.575c-0.083,0.613-0.149,1.222-0.2,1.825
	c-0.167-0.274-0.342-0.549-0.524-0.825c0.39-0.188,0.582-0.563,0.575-1.125C175.95,162.495,176,162.536,176.05,162.575z"/>
<path style="fill-rule:evenodd;clip-rule:evenodd;fill:#2D370C;" d="M284.275,87.275c-0.132,0.611-0.24,1.186-0.325,1.725
	c3.633-2.067,7.149-5.417,10.55-10.05c1.607-2.189,3.749-5.373,6.425-9.55c-1.214,3.403-3.305,7.203-6.274,11.4
	c-3.367,4.5-5.817,7.833-7.351,10c-2.7,3.767-4.5,6.9-5.399,9.4c0.1-1.4,0.017-3.333-0.25-5.8c-0.204-1.854-0.337-3.346-0.4-4.475
	C282.25,89.109,283.259,88.226,284.275,87.275z M212.85,47.925c-0.563,0.279-1.163,0.621-1.8,1.025
	c-1.866,1.333-3.267,2.25-4.2,2.75c-1.611,0.903-3.728,2.002-6.35,3.3c-0.031,0-0.064,0-0.1,0c-3.667,0.033-6.417,0-8.25-0.1
	c3.6-1.066,5.883-1.767,6.85-2.1c2.667-0.966,4.733-2.017,6.2-3.15c-1.566-0.467-3.417-0.767-5.55-0.9
	c-4.167,0.133-8.684,0.233-13.551,0.3c2.167-0.1,4.934-0.25,8.301-0.45c1.899-0.033,3.649,0.017,5.25,0.15
	C204.518,48.55,208.918,48.274,212.85,47.925z M267.875,91.65c1.607-2.521,4.816-5.687,9.625-9.5c5.233-4.233,8.417-8.133,9.55-11.7
	c-2,7.433-3.017,11.183-3.05,11.25c-1.366,4.066-3.184,7.483-5.45,10.25c0.72-0.5,1.445-1.033,2.175-1.6
	c-0.937,3.009-2.628,6.125-5.074,9.35c-3.5,4.233-6.034,7.517-7.601,9.85c-0.166-2.333-0.217-5.517-0.149-9.55
	C267.927,96.322,267.919,93.539,267.875,91.65z M261.275,104.275c0.106-2.152,0.615-4.911,1.524-8.275
	c1.079-3.872,1.721-6.713,1.925-8.525c0.041-0.085,0.082-0.169,0.125-0.25c1.394,0.524,1.927,1.766,1.601,3.725
	c0.289-0.206,0.556-0.472,0.8-0.8c-0.013,1.122-0.029,1.989-0.05,2.6c-0.993,3.194-2.326,6.127-4,8.8
	C262.611,102.473,261.97,103.381,261.275,104.275z M231.675,149.25c0.033-0.02,0.066-0.036,0.101-0.05
	c-0.006,0.707,0.003,1.49,0.024,2.35c-0.142-0.338-0.3-0.972-0.475-1.899C231.44,149.519,231.557,149.385,231.675,149.25z
	 M218.975,148.4c-1.123,1.974-2.332,3.823-3.625,5.55c-0.304,0.404-0.612,0.805-0.925,1.2c-1.086,1.347-2.228,2.613-3.425,3.8
	c-0.044,0.043-0.085,0.084-0.125,0.125c-1.091,1.066-2.133,2.059-3.125,2.975c-0.185,0.168-0.368,0.335-0.55,0.5
	c-2.058,1.867-3.908,3.4-5.55,4.601c-1.055,0.778-2.08,1.47-3.075,2.074c-2.945,1.801-5.604,2.826-7.976,3.075
	c0-3.8,1.217-10.434,3.65-19.899c2.167-8.5,2.917-15.284,2.25-20.351c-1.294,1.201-2.519,2.343-3.675,3.425
	c2.725-5.64,4.883-10.148,6.475-13.524c0.786-1.68,1.503-3.313,2.15-4.9c2.724-3.88,4.673-7.063,5.85-9.55
	c0.041-0.084,0.082-0.167,0.125-0.25c0.436,2.789,0.735,5.831,0.9,9.125c-0.443,2.39-0.701,4.981-0.775,7.775
	c-0.066,3.066,0.084,6.866,0.45,11.399c0.019,0.233,0.035,0.476,0.05,0.726c-0.212,4.285-0.512,9.243-0.899,14.875
	c0.561-0.373,1.119-0.757,1.675-1.15c-0.735,1.071-1.26,2.071-1.575,3c2.866-1.267,6.1-3.417,9.7-6.45
	c0.823-0.702,2.606-2.327,5.35-4.875c-0.465,1.068-0.907,2.044-1.325,2.925c-0.163,0.326-0.321,0.644-0.475,0.95
	c-0.119,0.238-0.235,0.472-0.35,0.7C219.771,146.983,219.379,147.7,218.975,148.4z M156.35,176.725
	c-0.097,0.2-0.188,0.375-0.275,0.525c-0.067,0.136-0.133,0.252-0.2,0.35c-0.008,0.018-0.017,0.034-0.025,0.051
	c0.009-0.208,0.018-0.416,0.025-0.625c0.01-0.253,0.019-0.503,0.025-0.75c0.064-1.629,0.106-3.221,0.125-4.775
	c0.005-0.391,0.005-0.782,0-1.175c0.008-0.89,0.008-1.765,0-2.625c-0.002-0.229-0.002-0.453,0-0.675c-0.02-1.26-0.053-2.493-0.1-3.7
	c2.225-1.526,4.633-3.785,7.225-6.775c0.3-0.366,2.667-3.366,7.1-9c1.929-2.453,3.596-5.012,5-7.675
	c1.654-2.42,3.038-4.828,4.15-7.225c-0.331,4.139-0.923,10.348-1.775,18.625c-1.072,1.475-1.972,2.908-2.7,4.3
	c-0.109,0.229-0.218,0.455-0.325,0.675c-0.231,0.467-0.439,0.925-0.625,1.375c-0.23,0.527-0.43,1.052-0.6,1.575
	c-0.167,0.503-0.309,1.003-0.425,1.5c-0.017,0.072-0.034,0.146-0.05,0.225c-0.217,1.092-0.417,3.066-0.6,5.925
	c-0.051,0.81-0.101,1.692-0.15,2.65c-0.034,0.602-0.075,1.185-0.125,1.75c-0.066,0.569-0.142,1.119-0.225,1.65
	c-0.09,0.559-0.199,1.092-0.325,1.6c-0.306,1.362-0.714,2.563-1.225,3.6c-0.346-0.791-0.638-1.799-0.875-3.024
	c-0.069-0.418-0.136-0.86-0.2-1.325c-0.226-1.546-0.375-3.371-0.45-5.475c-0.008-0.433-0.017-0.875-0.025-1.325
	c-0.007-0.364-0.016-0.723-0.025-1.075c-0.03-0.806-0.071-1.572-0.125-2.3c-0.063-0.785-0.146-1.526-0.25-2.226
	c-0.313-2.318-0.813-4.135-1.5-5.449c-0.919,0.597-1.861,1.688-2.825,3.274c-1.017,1.694-2.058,3.953-3.125,6.775
	c-0.217,0.564-0.425,1.106-0.625,1.625c-0.307,0.779-0.599,1.512-0.875,2.2c-0.288,0.73-0.563,1.414-0.825,2.05
	C157.611,174.071,156.886,175.705,156.35,176.725z M153.625,165.65c-0.765,0.956-1.515,1.864-2.25,2.725
	c-0.142,0.169-0.283,0.336-0.425,0.5c-3.01,3.487-5.71,6.195-8.1,8.125c-5.434,4.366-11.25,6.767-17.45,7.2
	c-0.533-1.7-0.167-4.517,1.1-8.45c0.679-1.802,1.238-3.302,1.675-4.5c3.94-2.253,7.199-4.703,9.775-7.35c1.367-1.4,3-3.5,4.9-6.301
	c2.3-3.399,3.85-5.6,4.65-6.6c1.233-1.533,3.167-3.866,5.8-7c1.152-1.555,2.085-3.055,2.8-4.5c0.339-0.072,0.681-0.173,1.025-0.3
	c-0.246,2.787-0.571,5.903-0.975,9.35c-0.333,2.767-0.85,6.917-1.55,12.45c0.166-0.142,0.333-0.283,0.5-0.425
	c-0.29,1.332-0.39,2.49-0.3,3.475c0.076-0.045,0.151-0.095,0.225-0.149C154.554,164.505,154.087,165.088,153.625,165.65z
	 M84.675,174.2c0.193-0.422,0.368-0.805,0.525-1.15c0.875-0.6,1.892-1.299,3.05-2.1c2.933-2.033,5.433-3.5,7.5-4.4
	c2.8-1.233,7.95-3.184,15.45-5.85c6.533-2.334,11.65-4.417,15.35-6.25c-1.113,1.137-3.113,3.662-6,7.575
	c-3.508,2.36-7.309,4.468-11.4,6.324c-0.861,0.437-1.694,0.854-2.5,1.25c-0.661,0.321-1.302,0.63-1.925,0.926
	c-0.445,0.214-0.878,0.422-1.3,0.625c-1.824,0.857-3.491,1.599-5,2.225c-0.565,0.232-1.106,0.449-1.625,0.65
	c-0.014,0.009-0.031,0.018-0.05,0.024c-0.277,0.109-0.552,0.218-0.825,0.325c-2.347,0.887-4.414,1.487-6.2,1.8
	c-1.272,0.225-2.397,0.299-3.375,0.226c-0.933-0.066-1.732-0.267-2.4-0.601c0.088-0.193,0.172-0.386,0.25-0.575
	C84.371,174.857,84.529,174.516,84.675,174.2z M82.675,169.925c-3.017,1.44-5.558,3.099-7.625,4.976
	c1.326-4.838,3.276-10.088,5.85-15.75c1.125-0.34,2.391-0.724,3.8-1.15c4.267-1.3,7.75-2.5,10.45-3.6
	c0.314-0.126,0.623-0.251,0.925-0.375c-0.355,0.382-0.73,0.773-1.125,1.175c-2.767,2.633-4.8,4.633-6.1,6
	C85.971,164.178,83.913,167.086,82.675,169.925z M21.275,154.375c-0.482,1.191-0.707,2.316-0.675,3.375
	c3.333,0.6,8.316-1.134,14.95-5.2c9-5.5,13.883-8.399,14.65-8.7c7.667-2.966,14.933-5.166,21.8-6.6
	c6.913-1.445,12.712-1.937,17.4-1.475c-1.735,0.529-3.702,1.771-5.9,3.725c-3.3,3.4-5.483,5.583-6.55,6.55
	c-6.233,5.7-10.483,9.7-12.75,12c-0.799,0.794-1.575,1.577-2.325,2.351c-1.857,1.151-3.632,1.634-5.325,1.449
	c1.567-5.566,3.25-9.816,5.05-12.75c-5.333,1.867-10.133,5.017-14.4,9.45c-0.467,0.467-1.583,1.967-3.35,4.5
	c-1.367,1.9-2.684,3.2-3.95,3.9c-1.214,0.681-3.214,1.298-6,1.85c-0.357,0.066-0.724,0.133-1.1,0.2
	c-0.093,0.016-0.185,0.032-0.275,0.05c-0.781,0.13-1.514,0.238-2.2,0.325c-0.438,0.06-0.854,0.109-1.25,0.15
	c-0.382,0.041-0.749,0.074-1.1,0.1c-0.938,0.057-1.763,0.065-2.475,0.025c0.376-0.15,0.743-0.326,1.1-0.525
	c1.304-0.739,2.512-1.822,3.625-3.25c0.112-0.145,0.221-0.295,0.325-0.45c0.121-0.152,0.238-0.311,0.35-0.475
	c0.141-0.204,0.274-0.412,0.4-0.625c0.423-0.657,0.79-1.324,1.1-2c0.089-0.181,0.172-0.364,0.25-0.55
	c0.278-0.642,0.503-1.291,0.675-1.95c0.141-0.502,0.249-1.01,0.325-1.525c-0.358,0.006-0.742,0.03-1.15,0.075
	c-1.081,0.107-2.356,0.341-3.825,0.7c-1.383,0.328-2.941,0.77-4.675,1.325c-3.584,1.118-6.501,1.751-8.75,1.899
	c-0.369,0.033-0.719,0.05-1.05,0.05c-1.197,0.013-2.28,0.021-3.25,0.025c-1.592,0.017-2.875,0.025-3.85,0.025
	c-2.833,0.033-5.2,0-7.1-0.101c2.885-2.918,8.727-6.068,17.525-9.45c-0.339,0.261-0.647,0.494-0.925,0.7
	c-2.233,1.7-4.333,2.884-6.3,3.55c3.367-0.199,6.883-1.05,10.55-2.55C20.984,154.494,21.126,154.437,21.275,154.375z M36.75,137.975
	c-0.254,0.205-0.513,0.413-0.775,0.625c-1.047,0.765-2.072,1.564-3.075,2.4c-0.326,0.247-0.659,0.497-1,0.75
	c-0.235,0.176-0.469,0.352-0.7,0.525c-3.788-0.108-8.621-0.066-14.5,0.125C23.626,141.025,30.31,139.551,36.75,137.975z
	 M129.2,114.55c-9.311-1.004-19.66-0.854-31.05,0.45c-1.958,0.216-3.934,0.466-5.925,0.75c-5.845-0.078-10.637-0.761-14.375-2.05
	c6.167-1.033,13.85-2.7,23.05-5c14.767-3.7,22.383-5.601,22.85-5.7c-5.733-0.134-9.933-0.283-12.6-0.45
	c-4.566-0.233-8.583-0.75-12.05-1.55c4.6,0.267,10.333-0.067,17.2-1c2.427-0.339,4.602-0.639,6.525-0.9
	c2.151,0.082,4.41,0.065,6.775-0.05c3.024-0.136,5.774-0.344,8.25-0.625c1.985-0.021,4.235-0.046,6.75-0.075
	c-5.467,0.233-12.917,2.417-22.35,6.55c-10.267,4.466-17.85,6.933-22.75,7.399c6.2-0.1,12.4-0.25,18.6-0.45
	c1.233-0.033,3.6-0.199,7.1-0.5c3.167-0.1,5.45,0.233,6.85,1C131.436,113.136,130.485,113.868,129.2,114.55z M204.65,64.175
	c-0.21,0.496-0.477,0.955-0.801,1.375c-0.566,0.8-2.383,1.85-5.449,3.15c-3.134,1.233-4.9,1.933-5.301,2.1
	c-2.838,1.381-6.021,2.881-9.55,4.5c-1.89,0.221-3.939,0.538-6.149,0.95c-10.034,1.867-16.3,2.817-18.8,2.85
	c8.533-2.2,17.233-5.434,26.1-9.7c0.588-0.284,1.172-0.567,1.75-0.85c3.358-0.49,7.392-1.34,12.1-2.55
	C200.915,65.399,202.948,64.791,204.65,64.175z M261.1,16.75c5.379-0.063,9.779,0.02,13.2,0.25c-4.767,3.4-10.75,6.517-17.95,9.35
	c-0.896,0.354-2.195,0.837-3.899,1.45c-2.485-0.082-5.419-0.032-8.8,0.15c-6.4,0.367-10.801,0.483-13.2,0.35
	c3.467-2.367,8.649-4.65,15.55-6.85C249.566,20.324,254.6,18.757,261.1,16.75z M229.2,134.65c1.667-2.149,2.959-4.441,3.875-6.875
	c-0.01,0.056-0.019,0.114-0.025,0.175c-0.7,5.566-1.517,10.217-2.45,13.95c-0.044,0.179-0.111,0.404-0.199,0.675
	c-0.077-0.793-0.161-1.635-0.25-2.525c-0.07-0.707-0.154-1.374-0.25-2C229.715,136.77,229.481,135.636,229.2,134.65z"/>
<path style="fill-rule:evenodd;clip-rule:evenodd;fill:#56691C;" d="M212.85,47.925c0.975-0.478,1.841-0.77,2.601-0.875
	c-13.2-0.767-23.717-1.933-31.55-3.5c2.666-0.4,6.833-0.716,12.5-0.95c5.466-0.233,9.616-0.583,12.449-1.05
	c4.067-0.633,8.851-1.867,14.351-3.7c3.1-1.033,7.767-2.65,14-4.85c6.728-2.25,11.811-3.983,15.25-5.2
	c1.704-0.613,3.004-1.096,3.899-1.45c7.2-2.833,13.184-5.95,17.95-9.35c-3.421-0.23-7.821-0.313-13.2-0.25
	c-1.641,0.02-3.374,0.053-5.199,0.1c-8.867,0.2-15.017,0.25-18.45,0.15c4.8-2.233,11.166-4.317,19.1-6.25
	c4.467-1.1,11.033-2.633,19.7-4.6c7.267-1.867,16.233-3.2,26.9-4c4.669-0.365,11.22-0.857,19.649-1.475
	c-2.09,0.403-4.391,0.978-6.899,1.725c-3.934,1.167-8.017,3.233-12.25,6.2c-5.233,3.633-7.851,7.017-7.851,10.15
	c6.566-1.133,12.101-1.967,16.601-2.5c5.966-0.733,11.566-1.15,16.8-1.25c-2,0.833-5.184,2.7-9.55,5.6c-3.967,2.6-7.2,4.3-9.7,5.1
	c1.6-0.434,3.7-0.733,6.3-0.9c3.866-0.3,5.983-0.466,6.35-0.5c1.93-0.211,5.546-0.803,10.851-1.775
	c0.49-0.465,0.574-0.956,0.25-1.475c1.434-0.1,4.083-0.167,7.95-0.2c1.094,0,2.094-0.017,3-0.05c1.124-0.116,2.157-0.2,3.1-0.25
	l-0.025,0.05c0.316-0.026,0.607-0.06,0.875-0.1c-0.024,0.075-0.049,0.15-0.074,0.225l-0.45,1.35L347.2,24.65l-0.375,1.05
	l-0.325,0.95l-0.35,0.95l-0.075,0.125l-0.05,0.125l-0.125,0.3c-0.05,0.109-0.1,0.217-0.15,0.325
	c-0.511,1.113-1.053,2.222-1.625,3.325c-1.708,0.207-3.416,0.54-5.125,1c-0.519,0.139-1.035,0.289-1.55,0.45
	c-2.467,0.767-4.417,1.65-5.851,2.65c-0.17,0.114-0.42,0.347-0.75,0.7c-0.624,0.707-1.541,1.874-2.75,3.5
	c-0.194,0.263-0.378,0.513-0.55,0.75c-0.516,0.436-1.032,0.886-1.55,1.35c-2.6,2.333-5.7,5.45-9.3,9.35
	c-2.634,2.867-4.783,6.467-6.45,10.8c-1.134,2.933-2.3,7.05-3.5,12.35c-0.5,2.333-1.483,5.833-2.95,10.5
	c-0.758,3.158-0.949,5.992-0.575,8.5c-2.021,3.376-3.58,6.059-4.675,8.05c0.167-7.267,0.65-13.233,1.45-17.9
	c0.5-3.3,0.917-6.067,1.25-8.3c0.633-3.708,1.283-6.908,1.95-9.6c0.801-1.1,1.884-2.516,3.25-4.25c1.434-1.967,2.5-3.8,3.2-5.5
	c0.3-0.733,0.699-3.25,1.199-7.55c0.434-3.867,0.967-6.1,1.601-6.7c-12.834,11.633-20.4,21.133-22.7,28.5
	c-0.6,1.966-1.684,5.066-3.25,9.3c-1.025,2.948-1.767,5.456-2.225,7.525c-1.017,0.951-2.025,1.834-3.025,2.65
	c-0.175,0.141-0.35,0.282-0.525,0.425c-0.729,0.567-1.455,1.1-2.175,1.6c2.267-2.767,4.084-6.184,5.45-10.25
	c0.033-0.067,1.05-3.817,3.05-11.25c-1.133,3.566-4.316,7.466-9.55,11.7c-4.809,3.813-8.018,6.979-9.625,9.5
	c-0.27,0.438-0.494,0.855-0.675,1.25c0.002-0.05,0.002-0.1,0-0.15c0.021-0.611,0.037-1.478,0.05-2.6
	c0.999-1.413,1.565-3.963,1.7-7.65c-0.134-5-0.2-8.15-0.2-9.45l1-5.5c-0.667,1.2-1.583,3.567-2.75,7.1c-1.066,3.2-2.134,5.533-3.2,7
	c-0.434,0.567-1.8,1.8-4.1,3.7c-1.634,1.3-2.617,2.867-2.95,4.7c-0.3,1.467-0.384,3.4-0.25,5.8c0.033,1.333,0.134,3.267,0.3,5.8
	l-2.649-7.55c-1.267,1.5-2.467,3.883-3.601,7.15c-0.633,1.833-1.483,4.4-2.55,7.7c-0.967,2.533-2.417,6.3-4.35,11.3
	c-1.7,4.333-3.367,8.017-5,11.05c-0.534,1-2.534,4.316-6,9.95c-2.22,3.609-3.878,6.668-4.976,9.175
	c0.076-0.212,0.15-0.429,0.226-0.649c0.14-0.414,0.29-0.839,0.449-1.275c0.081-0.221,0.156-0.438,0.226-0.65
	c0.838-2.287,1.421-3.971,1.75-5.05c0.028-0.076,0.053-0.151,0.075-0.225c0.088-0.271,0.155-0.496,0.199-0.675
	c0.934-3.733,1.75-8.384,2.45-13.95c0.007-0.061,0.016-0.119,0.025-0.175c0.19-0.521,0.365-1.046,0.524-1.575
	c1.567-5.767,2.801-10.017,3.7-12.75c1.566-4.7,3.533-8.584,5.9-11.65c2.633-3.4,4.7-7.2,6.2-11.4c1.733-4.7,2.333-8.95,1.8-12.75
	c-3.834,3.4-7.101,7.35-9.8,11.85c-2.134,3.533-4.334,8.2-6.601,14c-0.899,2.3-2.666,5.934-5.3,10.9c-2.434,4.6-4.134,8.267-5.1,11
	c-1.267,3.533-2.284,6.166-3.051,7.899c-1.267,2.834-2.666,5.267-4.199,7.3c-0.267,0.367-2.084,2.334-5.45,5.9
	c-1.173,1.239-2.131,2.406-2.875,3.5c-0.556,0.394-1.114,0.777-1.675,1.15c0.388-5.632,0.688-10.59,0.899-14.875
	c0.201,2.479,0.468,5.838,0.8,10.074c0.667-1.066,1.184-2.8,1.551-5.199c0.466-3.101,0.783-4.95,0.949-5.551
	c2.434-8.1,4.351-14.066,5.75-17.899c2.334-6.5,4.884-12.217,7.65-17.15l1.5-9.5c-1.134,2-3.1,4.167-5.9,6.5
	c-3.366,2.8-5.533,4.8-6.5,6c-2.717,3.334-4.559,7.608-5.524,12.825c-0.165-3.294-0.465-6.336-0.9-9.125
	c1.66-3.55,2.702-7.767,3.125-12.65c0.066-0.767,0.434-2.767,1.101-6c0.5-2.5,0.683-4.467,0.55-5.9c-0.967,0.4-1.767,0.7-2.4,0.9
	c-1.166,0.333-2,0.4-2.5,0.2c-0.434-0.2-0.967-0.716-1.6-1.55c-0.689-0.952-0.697-1.501-0.025-1.65
	c-3.254,0.635-5.429,1.151-6.524,1.55c-2,0.733-3.851,1.9-5.551,3.5c-2.6,2.5-6.216,4.9-10.85,7.2c-6.866,3.4-10.783,5.4-11.75,6
	c4.9-0.3,10.267-1.967,16.1-5c9.567-4.934,14.717-7.55,15.45-7.85c-0.233,3.5-2.833,7.45-7.8,11.85c-2.767,2.333-4.8,4.05-6.1,5.15
	c-2.301,1.967-3.95,3.583-4.95,4.85c9.399-7.366,16.633-14.283,21.7-20.75c-1.367,2.167-2.95,5.133-4.75,8.9
	c-2.167,4.5-3.667,7.517-4.5,9.05c-0.067,0.134-1.584,2.667-4.551,7.601c-1.8,3.033-3.116,5.649-3.949,7.85
	c-0.801,2.066-1.584,5.05-2.351,8.95c-0.866,4.233-1.583,7.217-2.149,8.95c-1.034,3.3-2.684,8.166-4.95,14.6
	c-0.408,1.361-0.767,2.687-1.075,3.975c0.136-1.766,0.294-3.607,0.475-5.524c0.006-0.055,0.015-0.113,0.025-0.175
	c0.853-8.277,1.444-14.486,1.775-18.625c-1.112,2.396-2.496,4.805-4.15,7.225c0.823-1.572,1.557-3.181,2.2-4.825
	c1.967-5.1,2.733-9.767,2.3-14l9.5-6.5c-3.3-0.333-6.767-0.184-10.4,0.45c-2.566,3.1-4.066,4.917-4.5,5.45
	c-1.7,2.133-3.133,4.166-4.3,6.1c-2.033,3.334-4,7.117-5.9,11.351c-1.267,2.8-2.917,6.75-4.95,11.85
	c-0.534,1.333-1.517,3.667-2.95,7c-0.525,1.404-0.908,2.68-1.15,3.825c-0.167,0.142-0.334,0.283-0.5,0.425
	c0.7-5.533,1.217-9.684,1.55-12.45c0.404-3.446,0.729-6.563,0.975-9.35c1.094-0.391,2.236-1.041,3.425-1.95
	c1.4-1.066,2.684-2.333,3.85-3.8c2.167-2.767,4.233-6.15,6.2-10.15c2.6-5.3,3.35-8.883,2.25-10.75c-1.333,1.066-3.017,2.7-5.05,4.9
	c-2.867,3.133-4.566,4.967-5.1,5.5c-4.267,4.267-8.367,6.55-12.3,6.85c0.567-0.899,1.867-2.816,3.9-5.75
	c1.633-2.666,2.184-4.583,1.65-5.75c-1.633,0.8-3.8,2.3-6.5,4.5c-3.133,2.566-5.233,4.184-6.3,4.851
	c-13.833,9.3-24.25,16.199-31.25,20.699c-5.2,3.367-10.633,7.334-16.3,11.9c-3.842,3.086-8.4,6.978-13.675,11.675
	c0.208-0.659,0.458-1.326,0.75-2c1.238-2.839,3.296-5.747,6.175-8.725c1.3-1.367,3.333-3.367,6.1-6
	c0.395-0.401,0.77-0.793,1.125-1.175c7.442-3.117,13.084-7.093,16.925-11.926c-3.833,1.601-6.817,2.817-8.95,3.65
	c-3.867,1.467-6.966,2.233-9.3,2.3l19-8.5c1.867-1.333,4.7-3.316,8.5-5.95c3.267-2.399,5.917-4.783,7.95-7.149
	c-4.9,1.733-8.9,3.116-12,4.149c-5.833,1.967-9.6,2.084-11.3,0.351c1.2-2.667,4.367-4.617,9.5-5.851c2.8-0.699,6.65-1.6,11.55-2.699
	c-2.3,0.1-8,0.566-17.1,1.399c-7,0.634-12.7,0.884-17.1,0.75c3.533-0.434,10.517-2.267,20.95-5.5
	c0.997-0.313,1.972-0.613,2.925-0.899l0.4-0.101c1.073-0.265,2.573-0.64,4.5-1.125c5.191-1.166,9.699-1.624,13.525-1.375
	c-2.218-0.403-4.501-0.736-6.85-1c1.285-0.682,2.235-1.414,2.85-2.2c-1.4-0.767-3.683-1.1-6.85-1c-3.5,0.301-5.867,0.467-7.1,0.5
	c-6.2,0.2-12.4,0.351-18.6,0.45c4.9-0.467,12.483-2.934,22.75-7.399c9.433-4.134,16.883-6.317,22.35-6.55
	c-2.515,0.028-4.765,0.053-6.75,0.075c2.966-0.337,5.532-0.778,7.7-1.325c7.034-1.733,10.95-4.55,11.75-8.45
	c-1.732,0.118-4.399,0.609-8,1.475c2.425-0.805,4.975-1.763,7.65-2.875c4.167-1.733,10.25-4.45,18.25-8.15
	c2.972-1.331,5.756-2.597,8.35-3.8c3.528-1.619,6.712-3.119,9.55-4.5c0.4-0.167,2.167-0.867,5.301-2.1
	c3.066-1.3,4.883-2.35,5.449-3.15c0.324-0.42,0.591-0.879,0.801-1.375c5.357-1.957,7.391-3.998,6.1-6.125l-7.5,3.5
	c-5.467,0.934-9.45,1.684-11.95,2.25c-4.333,1-8.184,2.733-11.55,5.2c0.701,0.028,1.468,0.02,2.3-0.025
	c-3.427,0.643-8.593,1.585-15.5,2.825c4.5-2.767,11.167-6.167,20-10.2c5.639-2.586,10.289-4.786,13.95-6.6
	c2.622-1.297,4.738-2.397,6.35-3.3c0.934-0.5,2.334-1.417,4.2-2.75C211.687,48.546,212.286,48.204,212.85,47.925z M350.175,15.2
	h0.025c-0.133,0.456-0.266,0.906-0.4,1.35C349.919,16.109,350.044,15.659,350.175,15.2z M286.7,42.7
	c-0.2-4.9-0.351-8.617-0.45-11.15l-3,5.5c-0.934,0.3-1.917,1.284-2.95,2.95c-0.833,1.333-1.483,2.683-1.95,4.05
	c-0.566,1.633-1.033,4.267-1.399,7.9c-0.4,3.733-0.867,6.433-1.4,8.1c-0.399,1.3-1.217,3.133-2.45,5.5
	c-1.199,2.4-2,4.217-2.399,5.45c7.066-6.567,11.684-12.333,13.85-17.3C285.917,50.6,286.634,46.933,286.7,42.7z M317.325,64.9
	c-0.043,0.078-0.085,0.162-0.125,0.25c-0.267,0.434-0.525,0.875-0.775,1.325l-1.675,4.475c-0.011,0.024-0.019,0.049-0.025,0.075
	c-0.146,0.353-0.288,0.694-0.425,1.025c-1.197,2.95-2.064,5.05-2.6,6.3c-1.2,2.733-2.4,5.117-3.601,7.15
	c-0.603,1.062-1.619,2.778-3.05,5.15c0.102-0.489,0.201-1.006,0.3-1.55c0.534-3,1.167-5.317,1.9-6.95
	c3.943-8.956,7.952-16.072,12.025-21.35C318.758,61.814,318.108,63.181,317.325,64.9z M253.95,61.5
	c-0.101-0.633-0.167-1.517-0.2-2.65c-0.033-1.4-0.066-2.3-0.1-2.7c-3.2,2.133-6.917,6.217-11.15,12.25
	c-5.3,7.533-8.733,12.117-10.3,13.75c3.267,0.434,6.733-1.2,10.399-4.9c3.334-3.4,5.4-6.817,6.2-10.25
	c-0.033,1.133-0.25,3.15-0.649,6.05c-0.2,1.6-0.517,3.9-0.95,6.9c2.066-2.8,5.8-7.7,11.2-14.7c4.366-6.433,6.483-12,6.35-16.7
	l-0.5,2c-2,2.7-3.583,4.8-4.75,6.3C257.333,59.683,255.483,61.233,253.95,61.5z M21.275,154.375
	c2.105-0.883,5.263-2.291,9.475-4.225c12.4-5.034,22.317-8.567,29.75-10.601c11.133-3.1,21.367-4.45,30.7-4.05
	c-0.57,0-1.17,0.092-1.8,0.275c-4.688-0.462-10.487,0.029-17.4,1.475c-6.867,1.434-14.133,3.634-21.8,6.6
	c-0.767,0.301-5.65,3.2-14.65,8.7c-6.633,4.066-11.617,5.8-14.95,5.2C20.568,156.691,20.793,155.566,21.275,154.375z
	 M104.825,95.025c3.153,1.591,6.795,2.724,10.925,3.4c-3.537-0.09-5.587-0.166-6.15-0.225c-2.967-0.4-5.184-1.434-6.65-3.1
	C103.167,95.09,103.792,95.065,104.825,95.025z M251.975,121.475c0.787-2.244,1.429-4.519,1.926-6.824
	c0.366,1.399,0.517,3.816,0.449,7.25c-0.02,1.966,0.063,3.615,0.25,4.949c-0.601,1.446-1.25,2.896-1.949,4.351
	C252.614,127.864,252.389,124.623,251.975,121.475z M227.4,151.3c1.454-0.535,2.879-1.218,4.274-2.05
	c-0.118,0.135-0.234,0.269-0.35,0.4c-0.227,0.259-0.46,0.525-0.7,0.8c-0.448,0.501-0.906,1.018-1.375,1.55
	c-0.813,0.931-1.664,1.897-2.55,2.9C226.763,153.938,226.996,152.737,227.4,151.3z M179.075,164.85
	c-0.18,0.382-0.354,0.749-0.525,1.101c-0.217,0.476-0.426,0.926-0.625,1.35c-0.142,0.311-0.275,0.61-0.399,0.9
	c-0.387,0.834-0.712,1.55-0.976,2.149c0-1.341,0.025-2.757,0.075-4.25c0.14-0.206,0.298-0.423,0.475-0.649
	c1.067-1.367,1.7-2.233,1.9-2.601c0.7-1.399,1.267-3.399,1.7-6c0.6-3.433,1-5.517,1.2-6.25c0.767-2.666,2.166-5.767,4.199-9.3
	c3.067-5.233,4.767-8.184,5.101-8.85c1.434-2.867,4.133-7,8.1-12.4c0.765-1.041,1.481-2.041,2.15-3
	c-0.647,1.587-1.364,3.221-2.15,4.9c-1.592,3.376-3.75,7.885-6.475,13.524c-1.043,2.162-2.168,4.487-3.375,6.976
	c-1.434,3.533-3.55,8.2-6.351,14c-0.021,0.046-0.047,0.096-0.074,0.149C181.462,159.841,180.145,162.591,179.075,164.85z
	 M120.05,175.175c0.795-0.608,1.595-1.267,2.4-1.975c2.833-2.5,6.8-6.25,11.9-11.25c5.6-4.733,10.9-10.5,15.9-17.3
	c4.033-5.534,8.2-12.233,12.5-20.101l-7,15c0.114-0.018,0.231-0.034,0.35-0.05c-0.715,1.445-1.648,2.945-2.8,4.5
	c-2.633,3.134-4.566,5.467-5.8,7c-0.8,1-2.35,3.2-4.65,6.6c-1.9,2.801-3.533,4.9-4.9,6.301c-2.577,2.646-5.835,5.097-9.775,7.35
	c-1.607,0.913-3.332,1.797-5.175,2.65C122.002,174.363,121.019,174.788,120.05,175.175z M85.2,173.05
	c-0.526,0.362-1.001,0.687-1.425,0.976c-1.309,0.901-2.134,1.46-2.475,1.675c0.036-1.001,0.178-2.009,0.425-3.025
	c0.848-0.477,1.806-1.085,2.875-1.825c2.133-1.5,3.517-2.433,4.15-2.8c3.7-2.066,6.75-3.666,9.15-4.8c3.367-1.566,6.55-2.8,9.55-3.7
	c3.167-0.934,6.3-2.184,9.4-3.75c2.133-1.1,5.033-2.783,8.7-5.05c1.434-0.866,4.1-2.083,8-3.65c2.467-1.166,4.284-2.416,5.45-3.75
	c-0.4,0.634-0.8,1.384-1.2,2.25c-1.033,2.134-1.7,3.45-2,3.95c-1.3,2.167-3.05,4.566-5.25,7.2c-0.5,0.566-2.466,2.8-5.9,6.7
	c-0.633,0.733-3.5,3.55-8.6,8.45c-2.32,2.233-4.212,4.3-5.675,6.199c-1.57,0.271-3.079,0.421-4.525,0.45
	c3.5-2.3,7.183-6.133,11.05-11.5c1.344-1.874,2.561-3.549,3.65-5.024c2.887-3.913,4.887-6.438,6-7.575
	c-3.7,1.833-8.816,3.916-15.35,6.25c-7.5,2.666-12.65,4.616-15.45,5.85c-2.067,0.9-4.567,2.367-7.5,4.4
	C87.092,171.751,86.076,172.45,85.2,173.05z M57.525,168.35c0.15-0.124,0.308-0.258,0.475-0.399c1.096-0.754,2.329-1.471,3.7-2.15
	C60.047,167.179,58.655,168.028,57.525,168.35z M264.85,87.225c-0.043,0.081-0.084,0.165-0.125,0.25
	c0.009-0.097,0.018-0.189,0.025-0.275C264.78,87.21,264.813,87.219,264.85,87.225z M232.25,68.05l-3,1.5
	c-3.134,2.133-5.316,4.3-6.55,6.5c-0.667,1.233-1.15,3.034-1.45,5.4c-0.3,2.566-0.667,4.367-1.1,5.4
	c-0.534,1.333-1.601,2.85-3.2,4.55c-1.834,1.833-3.134,3.184-3.9,4.05c3.601-2.8,5.884-4.684,6.851-5.65
	c2.233-2.133,4-4.517,5.3-7.15c0.566-1.1,1.434-2.933,2.6-5.5c1.101-2.367,1.983-4.2,2.65-5.5c0.033-0.066,0.434-0.667,1.2-1.8
	C232.017,69.283,232.217,68.683,232.25,68.05z"/>
<path style="fill-rule:evenodd;clip-rule:evenodd;fill:#697E20;" d="M346.075,27.725L346,27.95l0.025-0.1L346.075,27.725z
	 M286.7,42.7c-0.066,4.233-0.783,7.9-2.15,11c-2.166,4.966-6.783,10.733-13.85,17.3c0.399-1.233,1.2-3.05,2.399-5.45
	c1.233-2.367,2.051-4.2,2.45-5.5c0.533-1.667,1-4.367,1.4-8.1c0.366-3.633,0.833-6.267,1.399-7.9c0.467-1.367,1.117-2.716,1.95-4.05
	c1.033-1.667,2.017-2.65,2.95-2.95l3-5.5C286.35,34.083,286.5,37.8,286.7,42.7z M319.275,60.8
	c-4.073,5.278-8.082,12.395-12.025,21.35c-0.733,1.633-1.366,3.95-1.9,6.95c-0.099,0.544-0.198,1.061-0.3,1.55
	c-0.477,2.481-0.91,4.265-1.3,5.35c-0.233-0.734-0.409-1.5-0.525-2.3c-0.374-2.508-0.183-5.342,0.575-8.5
	c1.467-4.667,2.45-8.167,2.95-10.5c1.2-5.3,2.366-9.417,3.5-12.35c1.667-4.333,3.816-7.934,6.45-10.8c3.6-3.9,6.7-7.017,9.3-9.35
	c0.518-0.464,1.034-0.914,1.55-1.35c0.172-0.237,0.355-0.487,0.55-0.75c1.209-1.626,2.126-2.793,2.75-3.5
	c0.33-0.353,0.58-0.586,0.75-0.7c1.434-1,3.384-1.883,5.851-2.65c0.515-0.162,1.031-0.312,1.55-0.45c1.709-0.46,3.417-0.793,5.125-1
	h0.025c-0.218,0.427-0.442,0.852-0.676,1.275l-0.699,1.225c-0.241,0.42-0.482,0.836-0.726,1.25l-0.85,1.5
	c-1.078,1.75-2.262,3.533-3.55,5.35h-0.025c-0.169,0.25-0.345,0.5-0.525,0.75l-2.1,2.7c-1.667,1.967-3.184,3.667-4.55,5.1
	c-0.525,0.565-1.075,1.148-1.65,1.75c-2.566,1.2-4.467,2.433-5.7,3.7C321.821,57.686,320.547,59.153,319.275,60.8z M300.925,69.4
	c-2.676,4.177-4.817,7.361-6.425,9.55c-3.4,4.633-6.917,7.983-10.55,10.05c0.085-0.539,0.193-1.114,0.325-1.725
	c0.458-2.069,1.199-4.577,2.225-7.525c1.566-4.233,2.65-7.333,3.25-9.3c2.3-7.367,9.866-16.867,22.7-28.5
	c-0.634,0.6-1.167,2.833-1.601,6.7c-0.5,4.3-0.899,6.817-1.199,7.55c-0.7,1.7-1.767,3.533-3.2,5.5
	c-1.366,1.734-2.449,3.15-3.25,4.25c-0.224,0.286-0.424,0.553-0.601,0.8C302.016,67.677,301.457,68.56,300.925,69.4z
	 M251.975,121.475c-1.732,5.014-4.175,9.889-7.324,14.625c-3.978,5.953-8.269,10.319-12.875,13.101
	c-0.034,0.014-0.067,0.03-0.101,0.05c-1.396,0.832-2.82,1.515-4.274,2.05c-0.03,0.021-0.064,0.037-0.101,0.05
	c0.12-0.3,0.245-0.607,0.375-0.925c1.098-2.507,2.756-5.565,4.976-9.175c3.466-5.634,5.466-8.95,6-9.95
	c1.633-3.033,3.3-6.717,5-11.05c1.933-5,3.383-8.767,4.35-11.3c1.066-3.3,1.917-5.867,2.55-7.7c1.134-3.267,2.334-5.65,3.601-7.15
	l2.649,7.55c-0.166-2.534-0.267-4.467-0.3-5.8c-0.134-2.4-0.05-4.333,0.25-5.8c0.333-1.833,1.316-3.4,2.95-4.7
	c2.3-1.9,3.666-3.133,4.1-3.7c1.066-1.467,2.134-3.8,3.2-7c1.167-3.533,2.083-5.9,2.75-7.1l-1,5.5c0,1.3,0.066,4.45,0.2,9.45
	c-0.135,3.687-0.701,6.237-1.7,7.65c-0.244,0.328-0.511,0.595-0.8,0.8c0.326-1.959-0.207-3.201-1.601-3.725
	c-0.036-0.006-0.069-0.015-0.1-0.025c-0.008,0.086-0.017,0.178-0.025,0.275c-0.204,1.812-0.846,4.653-1.925,8.525
	c-0.909,3.365-1.418,6.123-1.524,8.275c-0.014,0.214-0.022,0.422-0.025,0.625c0,1.3-0.116,2.833-0.35,4.6
	c-0.434,2.967-0.65,4.483-0.65,4.55c-0.033,0.3-0.066,1.816-0.1,4.55c-0.034,1.767-0.334,3.25-0.9,4.45
	c-0.333,0.733-1.017,1.733-2.05,3s-1.733,2.283-2.101,3.05c-0.212-0.61-0.379-1.36-0.5-2.25c-0.187-1.334-0.27-2.983-0.25-4.949
	c0.067-3.434-0.083-5.851-0.449-7.25C253.403,116.956,252.762,119.23,251.975,121.475z M115.75,98.425
	c-4.13-0.676-7.772-1.809-10.925-3.4c-0.899-0.456-1.758-0.948-2.575-1.475l24-1.5c2.6-0.033,6.517-0.017,11.75,0.05
	c2.4-0.033,5.667-0.567,9.8-1.6c0.52-0.131,1.02-0.256,1.5-0.375c3.601-0.866,6.268-1.357,8-1.475c-0.8,3.9-4.716,6.717-11.75,8.45
	c-2.167,0.546-4.734,0.988-7.7,1.325c-2.476,0.281-5.226,0.489-8.25,0.625c-2.365,0.115-4.624,0.132-6.775,0.05
	C120.324,99.007,117.966,98.782,115.75,98.425z M156.1,139.5c-0.119,0.016-0.236,0.032-0.35,0.05l7-15
	c-4.3,7.867-8.467,14.566-12.5,20.101c-5,6.8-10.3,12.566-15.9,17.3c-5.1,5-9.067,8.75-11.9,11.25
	c-0.805,0.708-1.605,1.366-2.4,1.975c-4.103,3.212-7.986,5.154-11.65,5.825c0.536-0.92,1.194-1.887,1.975-2.9
	c1.463-1.899,3.354-3.966,5.675-6.199c5.1-4.9,7.967-7.717,8.6-8.45c3.434-3.9,5.4-6.134,5.9-6.7c2.2-2.634,3.95-5.033,5.25-7.2
	c0.3-0.5,0.967-1.816,2-3.95c0.4-0.866,0.8-1.616,1.2-2.25c-1.167,1.334-2.983,2.584-5.45,3.75c-3.9,1.567-6.566,2.784-8,3.65
	c-3.667,2.267-6.566,3.95-8.7,5.05c-3.1,1.566-6.233,2.816-9.4,3.75c-3,0.9-6.184,2.134-9.55,3.7c-2.4,1.134-5.45,2.733-9.15,4.8
	c-0.633,0.367-2.017,1.3-4.15,2.8c-1.069,0.74-2.027,1.349-2.875,1.825c-0.516,0.292-0.991,0.533-1.425,0.726
	c0.552-0.496,1.093-0.988,1.625-1.476c5.275-4.697,9.833-8.589,13.675-11.675c5.667-4.566,11.1-8.533,16.3-11.9
	c7-4.5,17.417-11.399,31.25-20.699c1.067-0.667,3.167-2.284,6.3-4.851c2.7-2.2,4.867-3.7,6.5-4.5c0.533,1.167-0.017,3.084-1.65,5.75
	c-2.033,2.934-3.333,4.851-3.9,5.75c3.934-0.3,8.033-2.583,12.3-6.85c0.533-0.533,2.233-2.367,5.1-5.5
	c2.034-2.2,3.717-3.834,5.05-4.9c1.1,1.867,0.35,5.45-2.25,10.75c-1.967,4-4.033,7.384-6.2,10.15c-1.167,1.467-2.45,2.733-3.85,3.8
	c-1.189,0.909-2.331,1.56-3.425,1.95C156.781,139.327,156.439,139.428,156.1,139.5z M96.075,154.025
	c-0.302,0.124-0.611,0.249-0.925,0.375c-2.7,1.1-6.183,2.3-10.45,3.6c-1.409,0.427-2.676,0.811-3.8,1.15
	c-4.131,1.254-6.314,1.921-6.55,2c-4.533,1.466-7.333,2.399-8.4,2.8c-1.54,0.583-2.957,1.2-4.25,1.85
	c-1.371,0.68-2.604,1.396-3.7,2.15c-0.167,0.142-0.325,0.275-0.475,0.399c-0.9,0.769-1.592,1.353-2.075,1.75
	c-1.034,0.834-1.934,1.217-2.7,1.15c2.361-3.361,5.403-6.979,9.125-10.85c0.75-0.773,1.526-1.557,2.325-2.351
	c2.267-2.3,6.517-6.3,12.75-12c1.066-0.967,3.25-3.149,6.55-6.55c2.198-1.954,4.165-3.195,5.9-3.725
	c0.63-0.184,1.23-0.275,1.8-0.275c-9.333-0.4-19.567,0.95-30.7,4.05c-7.433,2.033-17.35,5.566-29.75,10.601
	c-4.212,1.934-7.37,3.342-9.475,4.225c-0.149,0.062-0.291,0.119-0.425,0.175c-3.667,1.5-7.184,2.351-10.55,2.55
	c1.967-0.666,4.067-1.85,6.3-3.55c0.278-0.206,0.586-0.439,0.925-0.7c1.211-0.948,2.786-2.249,4.725-3.899
	c0.096-0.064,3.08-2.289,8.95-6.675c0.231-0.174,0.464-0.35,0.7-0.525c0.341-0.253,0.674-0.503,1-0.75
	c1.003-0.836,2.028-1.636,3.075-2.4c0.262-0.212,0.521-0.42,0.775-0.625c1.678-1.395,3.128-2.703,4.35-3.925
	c-1.267,0.167-3.467,0.601-6.6,1.3c-2.8,0.601-5.017,0.967-6.65,1.101c-2.067,0.2-4.8,0.184-8.2-0.05c-4.1-0.267-6.816-0.4-8.15-0.4
	c6.9-0.9,15.283-2.866,25.15-5.9c5.5-1.699,13.717-4.283,24.65-7.75c10.648-3.002,20.957-5.202,30.925-6.6
	c1.991-0.284,3.966-0.534,5.925-0.75c11.39-1.304,21.74-1.454,31.05-0.45c2.348,0.264,4.632,0.597,6.85,1
	c-3.826-0.249-8.334,0.209-13.525,1.375c-1.927,0.485-3.427,0.86-4.5,1.125l-0.4,0.101c-0.953,0.286-1.928,0.587-2.925,0.899
	c-10.434,3.233-17.417,5.066-20.95,5.5c4.4,0.134,10.1-0.116,17.1-0.75c9.1-0.833,14.8-1.3,17.1-1.399c-4.9,1.1-8.75,2-11.55,2.699
	c-5.133,1.233-8.3,3.184-9.5,5.851c1.7,1.733,5.467,1.616,11.3-0.351c3.1-1.033,7.1-2.416,12-4.149
	c-2.034,2.366-4.684,4.75-7.95,7.149c-3.8,2.634-6.633,4.617-8.5,5.95l-19,8.5c2.333-0.066,5.433-0.833,9.3-2.3
	c2.133-0.833,5.117-2.05,8.95-3.65C109.159,146.933,103.518,150.908,96.075,154.025z M204.65,64.175
	c-1.702,0.616-3.735,1.224-6.101,1.825c-4.708,1.209-8.741,2.06-12.1,2.55c-1.628,0.229-3.094,0.371-4.4,0.425
	c-0.832,0.045-1.599,0.053-2.3,0.025c3.366-2.467,7.217-4.2,11.55-5.2c2.5-0.566,6.483-1.316,11.95-2.25l7.5-3.5
	C212.041,60.177,210.008,62.218,204.65,64.175z M177.125,156.975c0.309-1.288,0.667-2.613,1.075-3.975
	c2.267-6.434,3.916-11.3,4.95-14.6c0.566-1.733,1.283-4.717,2.149-8.95c0.767-3.9,1.55-6.884,2.351-8.95
	c0.833-2.2,2.149-4.816,3.949-7.85c2.967-4.934,4.483-7.467,4.551-7.601c0.833-1.533,2.333-4.55,4.5-9.05
	c1.8-3.767,3.383-6.733,4.75-8.9c-5.067,6.467-12.301,13.383-21.7,20.75c1-1.267,2.649-2.883,4.95-4.85
	c1.3-1.1,3.333-2.817,6.1-5.15c4.967-4.4,7.566-8.35,7.8-11.85c-0.733,0.3-5.883,2.917-15.45,7.85c-5.833,3.033-11.199,4.7-16.1,5
	c0.967-0.6,4.884-2.6,11.75-6c4.634-2.3,8.25-4.7,10.85-7.2c1.7-1.6,3.551-2.767,5.551-3.5c1.096-0.398,3.271-0.915,6.524-1.55
	c-0.672,0.148-0.664,0.698,0.025,1.65c0.633,0.833,1.166,1.35,1.6,1.55c0.5,0.2,1.334,0.133,2.5-0.2c0.634-0.2,1.434-0.5,2.4-0.9
	c0.133,1.433-0.05,3.4-0.55,5.9c-0.667,3.233-1.034,5.233-1.101,6c-0.423,4.883-1.465,9.1-3.125,12.65
	c-0.043,0.083-0.084,0.166-0.125,0.25c-1.177,2.487-3.126,5.67-5.85,9.55c-0.669,0.959-1.386,1.959-2.15,3
	c-3.967,5.4-6.666,9.533-8.1,12.4c-0.334,0.666-2.033,3.616-5.101,8.85c-2.033,3.533-3.433,6.634-4.199,9.3
	c-0.2,0.733-0.601,2.817-1.2,6.25c-0.434,2.601-1,4.601-1.7,6c-0.2,0.367-0.833,1.233-1.9,2.601
	c-0.177,0.227-0.335,0.443-0.475,0.649c-0.545,0.797-0.87,1.497-0.975,2.101c0-1.225,0.066-2.491,0.199-3.8
	c0.051-0.604,0.117-1.212,0.2-1.825c0.031-0.219,0.064-0.436,0.101-0.65c0.184-1.207,0.417-2.449,0.699-3.725
	C176.937,157.798,177.028,157.39,177.125,156.975z M253.95,61.5c1.533-0.267,3.383-1.817,5.55-4.65c1.167-1.5,2.75-3.6,4.75-6.3
	l0.5-2c0.134,4.7-1.983,10.267-6.35,16.7c-5.4,7-9.134,11.9-11.2,14.7c0.434-3,0.75-5.3,0.95-6.9c0.399-2.9,0.616-4.917,0.649-6.05
	c-0.8,3.433-2.866,6.85-6.2,10.25c-3.666,3.7-7.133,5.333-10.399,4.9c1.566-1.633,5-6.217,10.3-13.75
	c4.233-6.033,7.95-10.117,11.15-12.25c0.033,0.4,0.066,1.3,0.1,2.7C253.783,59.983,253.85,60.867,253.95,61.5z M208.825,150
	c0.744-1.094,1.702-2.261,2.875-3.5c3.366-3.566,5.184-5.533,5.45-5.9c1.533-2.033,2.933-4.466,4.199-7.3
	c0.767-1.733,1.784-4.366,3.051-7.899c0.966-2.733,2.666-6.4,5.1-11c2.634-4.967,4.4-8.601,5.3-10.9
	c2.267-5.8,4.467-10.467,6.601-14c2.699-4.5,5.966-8.45,9.8-11.85c0.533,3.8-0.066,8.05-1.8,12.75c-1.5,4.2-3.567,8-6.2,11.4
	c-2.367,3.066-4.334,6.95-5.9,11.65c-0.899,2.733-2.133,6.983-3.7,12.75c-0.159,0.529-0.334,1.055-0.524,1.575
	c-0.916,2.434-2.208,4.726-3.875,6.875c-0.49,0.644-1.016,1.276-1.575,1.899c-0.571,0.628-1.18,1.244-1.825,1.851
	c-0.113,0.106-0.23,0.215-0.35,0.324c-1.166,1.093-2.217,2.076-3.15,2.95c-2.743,2.548-4.526,4.173-5.35,4.875
	c-3.601,3.033-6.834,5.184-9.7,6.45C207.565,152.071,208.09,151.071,208.825,150z M208.05,136.275
	c-0.015-0.25-0.031-0.492-0.05-0.726c-0.366-4.533-0.517-8.333-0.45-11.399c0.074-2.794,0.332-5.386,0.775-7.775
	c0.966-5.217,2.808-9.491,5.524-12.825c0.967-1.2,3.134-3.2,6.5-6c2.801-2.333,4.767-4.5,5.9-6.5l-1.5,9.5
	c-2.767,4.934-5.316,10.65-7.65,17.15c-1.399,3.833-3.316,9.8-5.75,17.899c-0.166,0.601-0.483,2.45-0.949,5.551
	c-0.367,2.399-0.884,4.133-1.551,5.199C208.518,142.113,208.251,138.755,208.05,136.275z M232.25,68.05
	c-0.033,0.633-0.233,1.233-0.6,1.8c-0.767,1.133-1.167,1.733-1.2,1.8c-0.667,1.3-1.55,3.133-2.65,5.5
	c-1.166,2.567-2.033,4.4-2.6,5.5c-1.3,2.633-3.066,5.017-5.3,7.15c-0.967,0.967-3.25,2.85-6.851,5.65
	c0.767-0.867,2.066-2.217,3.9-4.05c1.6-1.7,2.666-3.217,3.2-4.55c0.433-1.033,0.8-2.833,1.1-5.4c0.3-2.367,0.783-4.167,1.45-5.4
	c1.233-2.2,3.416-4.367,6.55-6.5L232.25,68.05z M155.925,163.325c-0.303,0.21-0.603,0.402-0.9,0.575
	c-0.074,0.055-0.149,0.104-0.225,0.149c-0.089-0.984,0.011-2.143,0.3-3.475c0.242-1.146,0.625-2.421,1.15-3.825
	c1.433-3.333,2.417-5.667,2.95-7c2.033-5.1,3.683-9.05,4.95-11.85c1.9-4.233,3.867-8.017,5.9-11.351c1.167-1.934,2.6-3.967,4.3-6.1
	c0.433-0.533,1.933-2.351,4.5-5.45c3.634-0.634,7.101-0.783,10.4-0.45l-9.5,6.5c0.434,4.233-0.333,8.9-2.3,14
	c-0.644,1.645-1.377,3.253-2.2,4.825c-1.404,2.663-3.071,5.222-5,7.675c-4.433,5.634-6.8,8.634-7.1,9
	C160.558,159.54,158.15,161.799,155.925,163.325z"/>
<path style="fill-rule:evenodd;clip-rule:evenodd;fill:#3F4E14;" d="M350.175,15.2c-0.131,0.459-0.256,0.909-0.375,1.35
	l-1.149,3.775c-0.016,0.058-0.032,0.117-0.051,0.175c-0.268,0.041-0.559,0.074-0.875,0.1l0.025-0.05
	c-0.942,0.05-1.976,0.134-3.1,0.25c-0.906,0.034-1.906,0.05-3,0.05c-3.867,0.033-6.517,0.1-7.95,0.2
	c0.324,0.519,0.24,1.01-0.25,1.475c-5.305,0.972-8.921,1.564-10.851,1.775c-0.366,0.034-2.483,0.2-6.35,0.5
	c-2.6,0.167-4.7,0.467-6.3,0.9c2.5-0.8,5.733-2.5,9.7-5.1c4.366-2.9,7.55-4.767,9.55-5.6c-5.233,0.1-10.834,0.517-16.8,1.25
	c-4.5,0.533-10.034,1.367-16.601,2.5c0-3.133,2.617-6.517,7.851-10.15c4.233-2.967,8.316-5.033,12.25-6.2
	c2.509-0.748,4.81-1.322,6.899-1.725c3.122-0.583,5.771-0.775,7.95-0.575c-1.267,2.066-2.884,4.233-4.85,6.5
	c2.699,1,6.716,1.35,12.05,1.05c7.967-0.4,12.1-0.6,12.399-0.6c0.101,0.733-0.199,1.667-0.899,2.8c-1.033,1.633-1.566,2.5-1.601,2.6
	c0.834,0.167,1.9,0.05,3.2-0.35l-0.3,1.1C350.559,13.885,350.367,14.552,350.175,15.2z M348.075,22.075
	c-0.138,0.445-0.279,0.887-0.425,1.325l-0.45,1.25L348.075,22.075z M345.75,28.475c0.051-0.108,0.101-0.216,0.15-0.325l0.125-0.3
	L346,27.95l-0.1,0.2l-0.101,0.3C345.785,28.458,345.769,28.466,345.75,28.475z"/>
</svg>
