<?xml version="1.0" encoding="iso-8859-1"?>
<!-- Generator: Adobe Illustrator 15.1.0, SVG Export Plug-In . SVG Version: 6.00 Build 0)  -->
<!DOCTYPE svg PUBLIC "-//W3C//DTD SVG 1.1//EN" "http://www.w3.org/Graphics/SVG/1.1/DTD/svg11.dtd">
<svg version="1.1" id="FlashAICB" xmlns="http://www.w3.org/2000/svg" xmlns:xlink="http://www.w3.org/1999/xlink" x="0px" y="0px"
	 width="84.25px" height="53.25px" viewBox="0 0 84.25 53.25" style="enable-background:new 0 0 84.25 53.25;" xml:space="preserve"
	>
<path style="fill-rule:evenodd;clip-rule:evenodd;fill:#A68A52;" d="M44.5,40.15h-0.15c-0.866-0.134-1.699-0.301-2.5-0.5
	c-1.1-0.301-2.833-0.5-5.2-0.601c-2.267-0.1-4.017-0.333-5.25-0.7c-1.133-0.3-3.267-0.883-6.4-1.75l2.85,0.25
	c0.066,0,0.133,0.017,0.2,0.051c3.2,0.233,4.9,0.35,5.1,0.35c2.4,0.066,4.083-0.167,5.05-0.7c-0.3-0.633-0.967-1.066-2-1.3
	c-0.3-0.066-1.2-0.167-2.7-0.3c-1-0.101-2.117-0.4-3.35-0.9c-1.733-0.633-2.816-1.017-3.25-1.149c-0.066,0-0.117-0.017-0.15-0.051
	c-1.033-0.233-2.617-0.267-4.75-0.1c-2.267,0.167-3.967,0.1-5.1-0.2c-0.033-0.434-0.333-0.866-0.9-1.3
	c-0.267-0.233-0.9-0.634-1.9-1.2c0.2,0.267,0.4,0.533,0.6,0.8c-0.434-0.533-0.917-1.133-1.45-1.8c-1.067-1.399-2-2.466-2.8-3.2
	c0.167-0.033,0.316-0.033,0.45,0H11c0.1,0,0.2,0.017,0.3,0.05c0.8,0.2,1.7,0.65,2.7,1.35c0.567,0.4,1.383,1.017,2.45,1.85
	c2.133,1.601,4.05,2.284,5.75,2.051c0.7-0.101,1.816-0.317,3.35-0.65c0.167,0.033,0.367,0.083,0.6,0.15
	c0.2,0.066,0.434,0.133,0.7,0.199c0.933,0.233,1.717,0.384,2.35,0.45c0.333,0.033,1.05,0,2.15-0.1c0.933-0.101,1.65-0.084,2.15,0.05
	c1.033,0.267,3.017,1.366,5.95,3.3c0.033-0.399,0.233-0.733,0.6-1c1.3,0.3,2.65,0.334,4.05,0.101c2.267-0.367,3.851-0.617,4.75-0.75
	c0.434,0.1,1,0.399,1.7,0.899c0.667,0.434,1.217,0.7,1.65,0.8c0.267,0.067,0.899,0.017,1.899-0.149c0.534-0.101,1,0.184,1.4,0.85
	c0.8,1.267,0.366,2.467-1.3,3.601c-0.9,0.633-1.834,1.083-2.8,1.35c-0.5,0.033-0.834,0.05-1,0.05l-1.7-0.149
	c-1.033-0.167-2.2-0.45-3.5-0.851c-0.667-0.233-2.167-0.783-4.5-1.649c0.433,0.333,0.8,0.716,1.1,1.149
	c0.167,0.233,0.384,0.55,0.65,0.95C43.116,39.917,43.8,40.05,44.5,40.15z M60.3,39.4c0.066-0.034,0.134-0.051,0.2-0.051
	c0.6-0.066,1.167-0.149,1.7-0.25c0.233-0.033,0.467-0.066,0.7-0.1c-0.7,0.134-1.45,0.25-2.25,0.35
	C60.517,39.35,60.4,39.366,60.3,39.4z M41.2,35.3c-0.8,1.2,0.583,2.05,4.149,2.55c2.534,0.367,4.767,0.483,6.7,0.351
	c0.134-0.334,0.134-0.733,0-1.2c-1.133,0.066-2.616-0.517-4.45-1.75c-1.566-1.066-3.149-1.283-4.75-0.65L41.2,35.3z M64.2,34.95
	c1.2,0.066,2.434-0.066,3.7-0.4c1.3-0.333,2.416-0.816,3.35-1.45c-1.333,1.267-3.017,2.351-5.05,3.25c-1.9,0.4-3.45,0.733-4.65,1
	c-0.5,0.101-0.934,0.233-1.3,0.4c0.167-1.1,1.25-2,3.25-2.7c0.233-0.1,0.483-0.184,0.75-0.25L64.2,34.95z"/>
<path style="fill-rule:evenodd;clip-rule:evenodd;fill:#907847;" d="M60.3,39.4c-0.467,0.033-1,0.083-1.6,0.149L55.65,39.9
	c-0.567,0.1-1.117,0.183-1.65,0.25c-0.467,0.066-1,0.083-1.6,0.05h-0.2c-0.066,0-0.134,0-0.2,0c-0.233,0.033-0.434,0.05-0.6,0.05
	c0.966-0.267,1.899-0.717,2.8-1.35c1.666-1.134,2.1-2.334,1.3-3.601c-0.4-0.666-0.866-0.95-1.4-0.85
	c-1,0.166-1.633,0.217-1.899,0.149c-0.434-0.1-0.983-0.366-1.65-0.8c-0.7-0.5-1.267-0.8-1.7-0.899
	c0.4-0.067,0.667-0.101,0.801-0.101c0.866-0.1,3.083-0.149,6.649-0.149c0.733,0,1.533,0.116,2.4,0.35
	c0.5,0.167,1.267,0.417,2.3,0.75c0.667,0.2,1.384,0.333,2.15,0.4c0.6,0.033,1.233-0.15,1.899-0.551c0.733-0.5,1.3-0.85,1.7-1.05
	c0.434-0.2,1.2-0.366,2.3-0.5c1-0.133,1.75-0.35,2.25-0.649c0.2-0.101,0.384-0.25,0.55-0.45c0.101-0.033,0.217-0.066,0.351-0.101
	C73,30.75,73.6,30.767,74,30.9c-0.366,0.366-0.634,0.699-0.8,1c1.267,0,2.083-0.017,2.45-0.051C76.55,31.717,77.267,31.4,77.8,30.9
	c0.634-0.601,1.217-1.733,1.75-3.4c0.434-1.033,0.65-1.567,0.65-1.6c0.133-0.233,0.366-0.517,0.7-0.85
	c0.333-0.333,0.55-0.633,0.649-0.9c0.066-0.133,0.117-0.267,0.15-0.4c0.166-0.233,0.316-0.45,0.45-0.65
	c-0.467,1.066-1.2,2.483-2.2,4.25c-0.233,0.567-0.533,1.367-0.9,2.4c-0.366,0.866-0.934,1.517-1.7,1.95
	c-0.433,0.233-1.017,0.434-1.75,0.6c-0.8,0.167-1.366,0.351-1.699,0.55c-0.634,0.367-2,1.267-4.101,2.7
	c-1.733,1.167-3.217,2.05-4.45,2.65l-0.3,0.1c-0.566,0.233-1.233,0.45-2,0.65L62.9,39c-0.233,0.033-0.467,0.066-0.7,0.1
	c-0.533,0.101-1.101,0.184-1.7,0.25C60.434,39.35,60.366,39.366,60.3,39.4z M44.5,40.15c-0.7-0.101-1.384-0.233-2.05-0.4
	c-0.267-0.4-0.483-0.717-0.65-0.95c-0.3-0.434-0.667-0.816-1.1-1.149c2.333,0.866,3.833,1.416,4.5,1.649
	c1.3,0.4,2.467,0.684,3.5,0.851H44.5z M40.05,33.55c-0.367,0.267-0.566,0.601-0.6,1c-2.934-1.934-4.917-3.033-5.95-3.3
	c-0.5-0.134-1.217-0.15-2.15-0.05c-1.1,0.1-1.817,0.133-2.15,0.1c-0.633-0.066-1.417-0.217-2.35-0.45
	c-0.267-0.066-0.5-0.133-0.7-0.199c-0.233-0.067-0.433-0.117-0.6-0.15c0.333-0.066,0.7-0.15,1.1-0.25
	c0.4,0.134,0.967,0.184,1.7,0.15c0.5,0,1.183-0.034,2.05-0.101c1.533,0,2.333,0,2.4,0c0.967,0.066,1.75,0.233,2.35,0.5
	c0.4,0.167,1.017,0.566,1.85,1.2c0.767,0.6,1.417,1,1.95,1.2C39.317,33.333,39.683,33.45,40.05,33.55z M64.2,34.95l0.05-0.15
	c-0.267,0.066-0.517,0.15-0.75,0.25c-2,0.7-3.083,1.601-3.25,2.7c0.366-0.167,0.8-0.3,1.3-0.4c1.2-0.267,2.75-0.6,4.65-1
	c2.033-0.899,3.717-1.983,5.05-3.25c-0.934,0.634-2.05,1.117-3.35,1.45C66.634,34.884,65.4,35.017,64.2,34.95z"/>
<path style="fill-rule:evenodd;clip-rule:evenodd;fill:#675633;" d="M81.7,23.75c-0.033,0.133-0.084,0.267-0.15,0.4
	c-0.1,0.267-0.316,0.567-0.649,0.9c-0.334,0.333-0.567,0.617-0.7,0.85c0,0.033-0.217,0.567-0.65,1.6
	c-0.533,1.667-1.116,2.8-1.75,3.4c-0.533,0.5-1.25,0.816-2.149,0.949c-0.367,0.034-1.184,0.051-2.45,0.051
	c0.166-0.301,0.434-0.634,0.8-1c-0.4-0.134-1-0.15-1.8-0.051c-0.134,0.034-0.25,0.067-0.351,0.101c-0.166,0.2-0.35,0.35-0.55,0.45
	c-0.5,0.3-1.25,0.517-2.25,0.649c-1.1,0.134-1.866,0.3-2.3,0.5c-0.4,0.2-0.967,0.55-1.7,1.05c-0.666,0.4-1.3,0.584-1.899,0.551
	c-0.767-0.067-1.483-0.2-2.15-0.4c-1.033-0.333-1.8-0.583-2.3-0.75c-0.867-0.233-1.667-0.35-2.4-0.35
	c-3.566,0-5.783,0.05-6.649,0.149c-0.134,0-0.4,0.033-0.801,0.101c-0.899,0.133-2.483,0.383-4.75,0.75
	c-1.399,0.233-2.75,0.199-4.05-0.101c-0.367-0.1-0.733-0.217-1.1-0.35C38.417,33,37.767,32.6,37,32
	c-0.833-0.634-1.45-1.033-1.85-1.2c-0.6-0.267-1.383-0.434-2.35-0.5c-0.066,0-0.867,0-2.4,0c-0.867,0.066-1.55,0.101-2.05,0.101
	c-0.733,0.033-1.3-0.017-1.7-0.15c0.633-0.134,1.317-0.3,2.05-0.5c1.033-0.134,2.117-0.184,3.25-0.15
	c1.367,0.034,2.433,0.217,3.2,0.551c0.567,0.233,1.15,0.733,1.75,1.5c0.467,0.6,1.167,0.966,2.1,1.1c1.7,0.267,4.5-0.1,8.4-1.1
	c3.833-0.967,6.783-1.267,8.85-0.9c2,0.366,4.167,1.017,6.5,1.95c1.833,0.333,3.934-0.5,6.3-2.5c1.3-1.267,2.217-2.117,2.75-2.55
	c0.867-0.667,1.967-1.117,3.3-1.351c1.134-0.2,2.317-0.3,3.551-0.3c0.366-0.067,0.75-0.2,1.149-0.4l0.4,0.2c0-0.167,0-0.333,0-0.5
	c0.166-0.133,0.333-0.267,0.5-0.4l0.45-0.5c0-0.033,0.017-0.05,0.05-0.05l0.149-0.15C81.45,24.033,81.566,23.883,81.7,23.75z
	 M41.05,24.8c0.233,0,0.483,0,0.75,0c-0.3,0.067-0.583,0.133-0.85,0.2C40.983,24.933,41.017,24.867,41.05,24.8z"/>
<path style="fill-rule:evenodd;clip-rule:evenodd;fill:#DBB25F;" d="M72.35,12.2l-1.5-0.1c-0.033,0-0.066,0-0.1,0
	c-0.3,0-0.6-0.017-0.9-0.05L67.45,11.9c-0.066,0-0.117,0-0.15,0h-0.05c-0.945-0.061-1.862-0.111-2.75-0.15
	c-0.084,0.003-0.168,0.003-0.25,0L63.9,11.7c0.666,0.033,1.366,0.066,2.1,0.1c1.533,0.1,3,0.184,4.4,0.25
	C71.066,12.083,71.717,12.133,72.35,12.2z M72.3,21.2c-1.866-0.333-3.233-0.35-4.1-0.05c-0.467,0.167-1.283,0.633-2.45,1.4
	c-0.3-0.233-0.667-0.483-1.1-0.75c-0.9-0.533-1.4-1.1-1.5-1.7c0,0.633-0.067,1.35-0.2,2.15c-0.4,0.1-0.867-0.017-1.4-0.35
	c-0.333,1.2-0.899,1.083-1.7-0.35c-0.733-1.733-1.149-2.65-1.25-2.75c-0.733,1.467-1.267,1.767-1.6,0.9
	c-0.1-0.467-0.184-0.883-0.25-1.25c0.066-0.2,0.15-0.417,0.25-0.65c0.467-1.2,0.917-2,1.35-2.4c0.134,0.3,0.301,0.767,0.5,1.4
	c0.2,0.467,0.567,0.717,1.101,0.75c0.3-0.833,0.783-1.6,1.45-2.3c0.333-0.267,0.733-0.467,1.199-0.6
	c0.601-0.133,1.017-0.267,1.25-0.4c0.167-0.067,0.384-0.3,0.65-0.7c0.167-0.233,0.517-0.316,1.05-0.25
	c0.467,0.067,0.95,0.383,1.45,0.95l1.2,1.3c0.066-0.2,0.116-0.367,0.149-0.5c0.034-0.233,0.034-0.433,0-0.6
	c0.367,0.333,0.733,0.883,1.101,1.65c0.233,0.3,0.6,0.6,1.1,0.9c0.566,0.3,0.95,0.55,1.15,0.75c0.366,0.333,0.767,0.717,1.2,1.15
	c0.333,0.267,0.767,0.533,1.3,0.8c-0.601-0.167-1.283-0.517-2.05-1.05c-0.801-0.566-1.334-1.083-1.601-1.55L72.3,21.2z M81.8,14.15
	c-0.352,0.569-0.735,1.335-1.149,2.3c-0.101,0.223-0.2,0.456-0.301,0.7c-0.267,0.7-0.533,1.317-0.8,1.85v-0.05
	c0.101-0.267,0.184-0.55,0.25-0.85c0.233-0.867-0.1-1.617-1-2.25c-0.467-0.333-1.316-0.733-2.55-1.2
	c-1.967-0.533-3.434-1.066-4.4-1.6c0.634,0.1,1.467,0.184,2.5,0.25c2.067,0.1,3.184,0.367,3.351,0.8l-0.4,0.05
	c0.9,0.467,2.033,0.633,3.4,0.5c0.033-0.4,0.033-0.683,0-0.85c0.3-0.066,0.633,0.034,1,0.3C81.733,14.133,81.767,14.15,81.8,14.15z
	 M63.85,16.3c-0.033,0.9,0.017,1.583,0.15,2.05c0.233,0.733,0.684,1.15,1.35,1.25c0.067,0,0.184-0.1,0.351-0.3
	c0.2-0.2,0.35-0.3,0.45-0.3c0.3-0.033,0.75,0.117,1.35,0.45c0.6,0.3,1.1,0.4,1.5,0.3c0.134-1.1-0.384-1.933-1.55-2.5
	c-0.9-0.433-1.934-0.65-3.101-0.65L63.85,16.3z M34.85,17.4c0.633-0.467,1.2-0.867,1.7-1.2c0.6-0.467,1.1-0.85,1.5-1.15
	c0.4-0.3,0.667-0.517,0.8-0.65s0.283-0.25,0.45-0.35c-0.6,0.8-1.767,1.717-3.5,2.75C35.467,17,35.15,17.2,34.85,17.4z M34.5,12.95
	c-1.033,0.933-2.233,2.1-3.6,3.5c-1.033,0.966-1.483,1.966-1.35,3c1.1-0.434,2.133-1.483,3.1-3.15c1-1.8,1.9-2.917,2.7-3.35H34.5z
	 M41.3,16.4c-0.367,0.9-0.517,1.633-0.45,2.2c0.9-0.434,1.567-1.817,2-4.15L42.2,14.3C42.167,14.467,41.867,15.167,41.3,16.4z
	 M33.575,18.325L33.5,18.4c-0.6,0.467-1.05,0.883-1.35,1.25c0.367,0.167,0.983,0.05,1.85-0.35c-0.067,0.2-0.05,0.567,0.05,1.1
	c0.534,0.133,1,0.017,1.4-0.35c0.733-0.6,1.133-0.917,1.2-0.95c0.2-0.1,0.817-0.233,1.85-0.4c0.733-0.133,1.25-0.434,1.55-0.9
	c0.233-0.4,0.434-1.083,0.6-2.05C40.817,14.717,40.933,14,41,13.6l-1.6,0.35c1.467-1.2,2.667-1.8,3.6-1.8
	c-0.033,0.067-0.083,0.25-0.15,0.55c-0.066,0.267-0.149,0.45-0.25,0.55c0.567-0.233,1.434-0.6,2.601-1.1
	c0.033,1.4,0.033,2.333,0,2.8c-0.066,0.933-0.267,1.633-0.601,2.1c1.534-1.6,2.934-2.767,4.2-3.5c2.601-1.333,4.4-1.867,5.4-1.6
	l0.149,4.95c0.301-0.4,0.684-1.033,1.15-1.9c0,0.133-0.017,1.017-0.05,2.65c0,0.434,0.017,0.85,0.05,1.25
	c-0.167,0.2-0.333,0.434-0.5,0.7c0,0.033-0.184,0.433-0.55,1.2c-0.233,0.5-0.483,0.883-0.75,1.15
	c-0.634,0.667-1.217,1.216-1.75,1.65c-1.434-0.367-2.717-0.483-3.851-0.35c-0.666,0.067-2.583,0.533-5.75,1.4
	c-0.199,0.067-0.383,0.117-0.55,0.15c-0.267,0-0.517,0-0.75,0c0.034-0.1,0.083-0.216,0.15-0.35c0.5-1.034,0.916-2.184,1.25-3.45
	c0.399-1.433,0.55-2.617,0.45-3.55c-1.734,2.167-2.817,3.483-3.25,3.95c-1.533,1.533-2.95,2.317-4.25,2.35
	c0.2-1.2-0.25-1.517-1.35-0.95c-0.466,0.3-0.883,0.567-1.25,0.8c-0.833-0.267-1.716-0.367-2.65-0.3c-0.7,0.034-1.6,0.25-2.7,0.65
	c-0.534,0.2-1,0.367-1.4,0.5c0.034-0.133,0.067-0.267,0.1-0.4c0.167-0.233,0.3-0.5,0.4-0.8c1.1-2.633,1.8-4.667,2.1-6.1
	C28.583,17.217,28.033,18.167,27,20c-0.767,1.3-1.533,1.983-2.3,2.05c0.3-0.867,0.466-1.367,0.5-1.5c0.167-0.6,0.216-1.15,0.15-1.65
	c-0.7,0.7-1.867,1.633-3.5,2.8c-0.2,0.2-0.517,0.483-0.95,0.85c-0.4,0.233-0.8,0.3-1.2,0.2c0.033-0.167-0.034-0.483-0.2-0.95
	l-0.1,1.1c-1.2-0.867-2.233-1.417-3.1-1.65c-0.367-0.1-0.733-0.2-1.1-0.3c1.066-0.767,1.9-1.367,2.5-1.8
	c1.167-0.867,1.95-1.683,2.35-2.45c-0.3,0.066-0.9,0.367-1.8,0.9c0.033-0.067,0.067-0.117,0.1-0.15L16.7,18.3
	c-0.467,0.3-0.883,0.583-1.25,0.85c-0.38,0.159-0.73,0.317-1.05,0.475l-0.05,0.025c-0.633,0.233-1.2,0.367-1.7,0.4h-0.075
	c-0.175,0.029-0.35,0.029-0.525,0c-0.133-0.466-0.183-0.783-0.15-0.95c-1.033,0.267-1.667,0.367-1.9,0.3H9.95
	c-0.267-0.633-0.483-1.517-0.65-2.65c0.267-0.2,0.517-0.45,0.75-0.75c0.6-0.633,1.034-1.133,1.3-1.5c0.2-0.233,0.367-0.467,0.5-0.7
	c0.2-0.333,0.316-0.65,0.35-0.95c-0.2,0.2-0.467,0.383-0.8,0.55c-0.933,0.167-1.667,0.3-2.2,0.4c-0.1,0.034-0.184,0.05-0.25,0.05
	c0.131-0.161,0.273-0.327,0.425-0.5c0.211-0.205,0.436-0.422,0.675-0.65c0.1-0.1,0.2-0.2,0.3-0.3c1.167-1.1,1.733-1.983,1.7-2.65
	c0-0.1-0.017-0.183-0.05-0.25c0.533-0.367,1.117-0.733,1.75-1.1c3.267-1.933,6.083-3.1,8.45-3.5l0.65,0.05h3.25
	c0.333,0.167,0.816,0.533,1.45,1.1c0.034,0.034,0.067,0.067,0.1,0.1C28.317,6.783,28.9,7.2,29.4,7.4c0.4,0.167,0.9,0.3,1.5,0.4
	c-0.833-0.066-1.316-0.133-1.45-0.2H29.4c-0.4-0.2-0.983-0.667-1.75-1.4c-0.6-0.6-1.117-0.9-1.55-0.9h-0.175H24.75
	c-0.567,0.867-2.3,1.817-5.2,2.85c-2.633,0.934-4.183,2.117-4.65,3.55c0.767-0.467,1.833-0.867,3.2-1.2
	c0.5-0.133,0.967-0.233,1.4-0.3c0.633,0,1.533-0.217,2.7-0.65c0.466-0.2,1.033-0.417,1.7-0.65c0.367-0.133,0.567-0.2,0.6-0.2
	c1.1-0.3,2.15-0.417,3.15-0.35c-1.4,1.033-2.183,1.65-2.35,1.85c2.034-1.167,5.583-1.633,10.65-1.4c0,0.1,0,0.233,0,0.4
	c-0.034,0.133-0.1,0.267-0.2,0.4c1.3-0.567,1.633-0.3,1,0.8c-0.333,0.567-0.85,1.3-1.55,2.2c1.233-0.633,2.45-1.583,3.65-2.85
	c0.433,0.767,0.183,1.817-0.75,3.15c-0.533,0.733-1.317,1.65-2.35,2.75c-0.1,0.133-0.483,0.617-1.15,1.45
	C34.228,17.628,33.886,18.036,33.575,18.325z M45.1,20.7c0.667-0.667,1.134-1.05,1.4-1.15c0.6,0.034,1.017-0.017,1.25-0.15
	c0.767-0.3,1.366-1.117,1.8-2.45c0.5-1.467,0.934-2.35,1.3-2.65h-2.5c-0.199,0.567-1.166,1.667-2.899,3.3
	c-1.434,1.333-2.066,2.617-1.9,3.85C44.05,21.483,44.566,21.233,45.1,20.7z M59.5,18.1c0.066,0.267,0.184,0.75,0.35,1.45
	c0.2,0.6,0.45,1,0.75,1.2c0.167-0.433,0.051-0.983-0.35-1.65c-0.533-0.833-0.833-1.367-0.9-1.6L59.5,18.1z M53.2,14.8
	c-0.934,2.2-1.384,3.75-1.351,4.65c1.101-1.534,1.717-2.917,1.851-4.15L53.2,14.8z M35.55,7.8c-1.4,0.1-2.45,0.15-3.15,0.15
	c-0.633,0.033-1.2,0.033-1.7,0c0.167-0.067,0.316-0.117,0.45-0.15c0.367,0.067,0.783,0.1,1.25,0.1c0.2,0,0.417,0,0.65,0
	C33.683,7.867,34.517,7.833,35.55,7.8z M32.2,10.3l-1.35-0.5c-1.1,0.1-3,0.934-5.7,2.5c-0.367,0.233-0.85,0.684-1.45,1.35
	c-0.067,0.067-0.35,0.3-0.85,0.7c-0.4,0.3-0.667,0.55-0.8,0.75c-0.1,0.133-0.316,0.483-0.65,1.05c-0.267,0.434-0.55,0.817-0.85,1.15
	c-0.8,0.934-1.3,1.784-1.5,2.55c0.367-0.267,1-1.05,1.9-2.35c0.767-1.1,1.5-1.733,2.2-1.9c0.333,0.533,1.333,0.4,3-0.4
	c0.9-0.434,1.983-1.017,3.25-1.75c0.934-0.434,1.6-0.817,2-1.15C32.067,11.7,32.333,11.033,32.2,10.3z M22.2,5.05
	c-2.833,0.467-6.1,1.867-9.8,4.2C12.8,9.117,13.333,8.8,14,8.3c-0.1,0.133-0.25,0.517-0.45,1.15c0.434-0.067,1.017-0.367,1.75-0.9
	c0.733-0.6,1.317-0.95,1.75-1.05C17.783,7.3,19,7.067,20.7,6.8c1-0.267,1.566-0.417,1.7-0.45c0.7-0.267,1.167-0.617,1.4-1.05h-0.95
	C22.55,5.167,22.333,5.083,22.2,5.05z M23.2,9.6c-1.733,0.133-3.833,0.767-6.3,1.9c-3,1.267-4.65,2.467-4.95,3.6
	c0.267-0.233,1.3-0.75,3.1-1.55c0.4-0.167,1-0.3,1.8-0.4c0.9-0.133,1.517-0.25,1.85-0.35c3.833-0.966,6.117-2.15,6.85-3.55
	c-0.033-0.1-0.066-0.15-0.1-0.15c-0.133,0.033-0.217,0.033-0.25,0L23.2,9.6z M29.2,15.2c0.3-0.267,0.517-0.467,0.65-0.6v-0.3
	C29.817,14.333,29.6,14.633,29.2,15.2c-0.267,0.167-0.583,0.383-0.95,0.65c-0.7,0.5-1.167,0.967-1.4,1.4
	c0.533,0.067,1.083-0.3,1.65-1.1C28.767,15.75,29,15.433,29.2,15.2z M17,14.1c-0.833,0.2-1.6,0.566-2.3,1.1
	c-0.434,0.3-1.117,0.867-2.05,1.7c0.633-0.033,1.333-0.25,2.1-0.65c0.867-0.533,1.517-0.917,1.95-1.15L17,14.1z"/>
<path style="fill-rule:evenodd;clip-rule:evenodd;fill:#BB9C5C;" d="M41.2,35.3l1.649-0.7c1.601-0.633,3.184-0.416,4.75,0.65
	c1.834,1.233,3.317,1.816,4.45,1.75c0.134,0.467,0.134,0.866,0,1.2c-1.934,0.133-4.166,0.017-6.7-0.351
	C41.783,37.35,40.4,36.5,41.2,35.3z M25,36.6h-0.1c-0.233-0.066-0.45-0.133-0.65-0.199c-2.9-0.867-5.15-1.801-6.75-2.801
	c-0.633-0.399-1.567-1.316-2.8-2.75c-0.2-0.267-0.4-0.533-0.6-0.8c1,0.566,1.633,0.967,1.9,1.2c0.567,0.434,0.867,0.866,0.9,1.3
	c1.133,0.3,2.833,0.367,5.1,0.2c2.133-0.167,3.717-0.134,4.75,0.1c0.033,0.034,0.083,0.051,0.15,0.051
	c0.434,0.133,1.517,0.517,3.25,1.149c1.233,0.5,2.35,0.8,3.35,0.9c1.5,0.133,2.4,0.233,2.7,0.3c1.033,0.233,1.7,0.667,2,1.3
	c-0.967,0.533-2.65,0.767-5.05,0.7c-0.2,0-1.9-0.116-5.1-0.35c-0.066-0.034-0.133-0.051-0.2-0.051L25,36.6z"/>
<path style="fill-rule:evenodd;clip-rule:evenodd;fill:#C79E4C;" d="M82.5,13.9c-0.033-0.34-0.05-0.523-0.05-0.55
	c-0.2,0.167-0.417,0.433-0.65,0.8c-0.033,0-0.066-0.017-0.1-0.05c-0.367-0.267-0.7-0.367-1-0.3c0.033,0.167,0.033,0.45,0,0.85
	c-1.367,0.133-2.5-0.033-3.4-0.5l0.4-0.05c-0.167-0.434-1.283-0.7-3.351-0.8c-1.033-0.066-1.866-0.15-2.5-0.25
	c0.967,0.534,2.434,1.067,4.4,1.6c1.233,0.467,2.083,0.867,2.55,1.2c0.9,0.633,1.233,1.383,1,2.25c-0.066,0.3-0.149,0.583-0.25,0.85
	V19c-0.467,0.9-0.95,1.533-1.45,1.9c-0.333,0.233-0.699,0.434-1.1,0.6c-2-1-3.333-1.75-4-2.25c0,0.367,0.083,0.867,0.25,1.5
	c0.066,0.267,0.116,0.5,0.15,0.7c-0.034-0.034-0.067-0.05-0.101-0.05c-0.333-0.066-0.666-0.133-1-0.2l-1.75-4.1
	c0.267,0.467,0.8,0.983,1.601,1.55c0.767,0.533,1.449,0.883,2.05,1.05c-0.533-0.267-0.967-0.534-1.3-0.8
	c-0.434-0.433-0.834-0.816-1.2-1.15c-0.2-0.2-0.584-0.45-1.15-0.75c-0.5-0.3-0.866-0.6-1.1-0.9c-0.367-0.767-0.733-1.317-1.101-1.65
	c0.034,0.167,0.034,0.367,0,0.6c-0.033,0.133-0.083,0.3-0.149,0.5l-1.2-1.3c-0.5-0.567-0.983-0.883-1.45-0.95
	c-0.533-0.066-0.883,0.017-1.05,0.25c-0.267,0.4-0.483,0.633-0.65,0.7c-0.233,0.133-0.649,0.267-1.25,0.4
	c-0.466,0.133-0.866,0.333-1.199,0.6c-0.667,0.7-1.15,1.467-1.45,2.3c-0.533-0.033-0.9-0.283-1.101-0.75
	c-0.199-0.633-0.366-1.1-0.5-1.4c-0.433,0.4-0.883,1.2-1.35,2.4c-0.1,0.233-0.184,0.45-0.25,0.65c0.066,0.367,0.15,0.783,0.25,1.25
	c0.333,0.867,0.866,0.566,1.6-0.9c0.101,0.1,0.517,1.017,1.25,2.75c0.801,1.434,1.367,1.55,1.7,0.35c0.533,0.333,1,0.45,1.4,0.35
	c0.133-0.8,0.2-1.517,0.2-2.15c0.1,0.6,0.6,1.167,1.5,1.7c0.433,0.267,0.8,0.517,1.1,0.75c-0.267,0.167-0.533,0.35-0.8,0.55
	c-0.066-0.033-0.117-0.05-0.15-0.05c-0.166,0.1-0.3,0.217-0.399,0.35c-0.233-0.167-0.517-0.367-0.851-0.6
	c-0.133,0.167-0.467,0.35-1,0.55c-0.399,0.133-0.583,0.433-0.55,0.9c-0.366,0.033-0.767,0-1.2-0.1l-1.149-0.3
	c-0.2,0.3-0.334,0.8-0.4,1.5H59c-0.566-0.4-1-0.567-1.3-0.5v0.35c-0.233-0.067-0.483-0.133-0.75-0.2c0-0.667-0.101-1.417-0.3-2.25
	c-0.4-1.5-0.634-2.433-0.7-2.8L55.9,19.8c-0.067-0.466-0.051-1,0.05-1.6c0.033-0.534,0.116-1.1,0.25-1.7
	c0.333-1.533,0.767-2.5,1.3-2.9l0.05,0.35c0.5-0.267,0.834-0.467,1-0.6c0.5,1.333,0.783,2.25,0.851,2.75
	c0.199-0.133,0.35-0.383,0.449-0.75c0.134-0.4,0.25-0.684,0.351-0.85c0.2-0.3,0.434-0.517,0.7-0.65c0.3-0.133,0.566-0.283,0.8-0.45
	c0.166-0.1,0.517-0.367,1.05-0.8c0.4-0.333,0.75-0.55,1.05-0.65c0.096-0.064,0.329-0.13,0.7-0.2c0.888,0.039,1.805,0.089,2.75,0.15
	h0.05c0.334,0.2,0.834,0.567,1.5,1.1c0.2,0.133,0.851,0.5,1.95,1.1c0.767,0.433,1.4,0.85,1.9,1.25c0.333,0.267,0.833,0.7,1.5,1.3
	c0.333,0.3,0.733,0.65,1.199,1.05c1.167,0.966,2.167,1.483,3,1.55c-0.3-0.733-0.983-1.517-2.05-2.35
	c-0.2-0.167-0.383-0.316-0.55-0.45c-0.934-0.7-1.616-1.2-2.05-1.5c-0.733-0.434-1.267-0.767-1.601-1c-0.5-0.3-0.85-0.65-1.05-1.05
	c-0.066-0.1-0.116-0.2-0.149-0.3l-0.051-0.3c1.167,0,1.934,0.017,2.301,0.05c0.966,0.033,1.816,0.133,2.55,0.3
	c0.333,0.067,1.166,0.367,2.5,0.9c1.2,0.367,1.866,0.284,2-0.25c1.066-0.1,1.816-0.216,2.25-0.35v-0.1l0.05,0.75
	C82.5,13.698,82.5,13.798,82.5,13.9z M77.65,12.55L75.3,12.375l1.351,0.075C76.983,12.483,77.316,12.517,77.65,12.55z M70.85,12.1
	l-0.05,0.05l-0.05-0.05C70.783,12.1,70.816,12.1,70.85,12.1z M53.2,23.9c-0.434-0.133-0.851-0.233-1.25-0.3
	c0.533-0.434,1.116-0.983,1.75-1.65c0.267-0.267,0.517-0.65,0.75-1.15c0.366-0.767,0.55-1.167,0.55-1.2
	c0.167-0.267,0.333-0.5,0.5-0.7c-0.033-0.4-0.05-0.816-0.05-1.25c0.033-1.633,0.05-2.517,0.05-2.65c-0.467,0.867-0.85,1.5-1.15,1.9
	L54.2,11.95c-1-0.267-2.8,0.267-5.4,1.6c-1.267,0.733-2.666,1.9-4.2,3.5c0.334-0.466,0.534-1.167,0.601-2.1
	c0.033-0.467,0.033-1.4,0-2.8c-1.167,0.5-2.033,0.867-2.601,1.1c0.101-0.1,0.184-0.283,0.25-0.55c0.067-0.3,0.117-0.483,0.15-0.55
	c-0.934,0-2.133,0.6-3.6,1.8h-0.05c-0.033,0.033-0.05,0.066-0.05,0.1c-0.167,0.1-0.316,0.217-0.45,0.35s-0.4,0.35-0.8,0.65
	c0.067-0.066,0.15-0.15,0.25-0.25c0.934-0.9,1.567-1.517,1.9-1.85c0.966-1.167,1.733-1.934,2.3-2.3c0.6-0.367,1.167-0.517,1.7-0.45
	c0.6,0.1,0.666,0.5,0.2,1.2c0.233,0.033,0.583-0.083,1.05-0.35c0.533-0.267,0.934-0.417,1.2-0.45l0.05-0.25
	c-0.8-0.2-2.066-0.567-3.8-1.1c-0.217-0.075-0.425-0.15-0.625-0.225c0.122,0.043,0.247,0.085,0.375,0.125
	c3.066,0.967,5.35,1.517,6.85,1.65c0.2,0,0.4,0.017,0.6,0.05c-0.166,0.4-0.5,0.9-1,1.5c-0.666,0.8-1.05,1.267-1.149,1.4
	c1.3-1.133,2.184-1.867,2.649-2.2l0.801-0.6c0.3,0,0.633,0.017,1,0.05l3.649,0.25c0.434,0.533,0.533,1.65,0.3,3.35
	c-0.133,0.933-0.35,2.1-0.649,3.5c0,0.167-0.017,0.333-0.05,0.5c-0.034,0.333-0.067,0.667-0.101,1
	c-0.133,1.167-0.316,2.017-0.55,2.55c-0.267,0.6-0.783,1.133-1.55,1.6C53.35,23.817,53.267,23.867,53.2,23.9z M41.05,24.8
	c-0.033,0.067-0.066,0.133-0.1,0.2c-0.233,0.033-0.434,0.067-0.6,0.1c0.467-0.934,0.8-1.583,1-1.95c0.766-1.367,1.1-2.917,1-4.65
	c-0.267,0.333-0.533,0.917-0.8,1.75c-0.3,0.567-0.867,1.333-1.7,2.3c-0.267,0.434-0.633,1.067-1.1,1.9
	c-0.233,0.3-0.467,0.55-0.7,0.75H38c-0.533-0.067-1.033-0.15-1.5-0.25h-0.05c-0.291-0.087-0.957-0.329-2-0.725
	c-0.161-0.052-0.328-0.11-0.5-0.175L33.4,23.8c-0.167-0.066-0.3-0.117-0.4-0.15c-0.067,0-0.133-0.017-0.2-0.05
	c0.367-0.233,0.784-0.5,1.25-0.8c1.1-0.566,1.55-0.25,1.35,0.95c1.3-0.033,2.717-0.817,4.25-2.35c0.434-0.467,1.517-1.783,3.25-3.95
	c0.1,0.933-0.051,2.117-0.45,3.55c-0.334,1.267-0.75,2.417-1.25,3.45C41.133,24.583,41.083,24.7,41.05,24.8z M36.55,16.2
	c-0.5,0.333-1.066,0.733-1.7,1.2c-0.5,0.313-0.925,0.621-1.275,0.925c0.311-0.289,0.652-0.697,1.025-1.225
	c0.667-0.833,1.05-1.317,1.15-1.45c1.033-1.1,1.817-2.017,2.35-2.75c0.933-1.333,1.183-2.383,0.75-3.15
	c-1.2,1.267-2.417,2.217-3.65,2.85c0.7-0.9,1.216-1.633,1.55-2.2c0.633-1.1,0.3-1.367-1-0.8c0.1-0.133,0.167-0.267,0.2-0.4
	c0-0.167,0-0.3,0-0.4c-5.067-0.233-8.617,0.233-10.65,1.4c0.167-0.2,0.95-0.817,2.35-1.85c-1-0.067-2.05,0.05-3.15,0.35
	c-0.033,0-0.233,0.066-0.6,0.2c0.533-0.233,1.133-0.483,1.8-0.75c1.033-0.233,2.25-0.3,3.65-0.2c0.533,0.033,0.983,0.033,1.35,0
	c0.5,0.033,1.066,0.033,1.7,0c0.7,0,1.75-0.05,3.15-0.15C36.283,7.8,37.1,7.867,38,8c0.4,0.033,0.833,0.117,1.3,0.25
	c0.6,0.2,0.784,0.533,0.55,1c1.066-0.2,1.35,0.267,0.85,1.4c-0.367,0.767-0.85,1.483-1.45,2.15c-0.633,0.8-1.633,1.967-3,3.5
	C36.35,16.267,36.45,16.233,36.55,16.2z M19.5,10.2c-0.433,0.066-0.9,0.167-1.4,0.3c-1.367,0.333-2.434,0.733-3.2,1.2
	c0.467-1.434,2.017-2.617,4.65-3.55c2.9-1.033,4.633-1.983,5.2-2.85h1.175C26.108,5.306,26.2,5.457,26.2,5.75
	c0,0.3-0.167,0.583-0.5,0.85c-0.3,0.267-1.1,0.633-2.4,1.1c-0.466,0.267-1.2,0.716-2.2,1.35C20.167,9.583,19.383,9.9,18.75,10
	C18.95,10.1,19.2,10.167,19.5,10.2z M7.5,15.95c0.067-0.2,0.2-0.45,0.4-0.75v0.05c1,0.1,1.65,0.1,1.95,0c0.3-0.1,0.633-0.333,1-0.7
	c0.4-0.4,0.733-0.65,1-0.75v-0.5c-0.167,0.034-0.317,0.067-0.45,0.1c0.333-0.167,0.6-0.35,0.8-0.55c-0.034,0.3-0.15,0.617-0.35,0.95
	c-0.133,0.233-0.3,0.467-0.5,0.7c-0.267,0.367-0.7,0.867-1.3,1.5c-0.233,0.3-0.483,0.55-0.75,0.75c-0.033-0.1-0.05-0.2-0.05-0.3
	c-0.2,0-0.5-0.067-0.9-0.2H8.3c-0.4-0.133-0.683-0.2-0.85-0.2L7.5,15.95z M10.55,20.35c-0.233-0.2-0.433-0.517-0.6-0.95H10
	c0.233,0.067,0.867-0.033,1.9-0.3c-0.033,0.167,0.017,0.483,0.15,0.95c0.175,0.029,0.35,0.029,0.525,0
	c-0.706,0.135-1.381,0.218-2.025,0.25V20.35z M15.45,19.15c-0.167,0.1-0.333,0.2-0.5,0.3c1.533-0.567,2.633-1.184,3.3-1.85
	c0.9-0.533,1.5-0.833,1.8-0.9c-0.4,0.767-1.183,1.583-2.35,2.45c-0.6,0.434-1.434,1.033-2.5,1.8c-0.733-0.133-1.45-0.217-2.15-0.25
	c-0.233,0-0.433,0-0.6,0c0.433-0.167,0.883-0.367,1.35-0.6c0.2-0.1,0.583-0.317,1.15-0.65c-0.067,0-0.133,0.017-0.2,0.05
	c-0.117,0.029-0.233,0.071-0.35,0.125C14.72,19.467,15.07,19.309,15.45,19.15z M21.15,24c-0.267-0.133-0.533-0.283-0.8-0.45
	c-0.2-0.133-0.4-0.267-0.6-0.4c-0.133-0.1-0.25-0.183-0.35-0.25l0.1-1.1c0.167,0.467,0.233,0.784,0.2,0.95
	c0.4,0.1,0.8,0.033,1.2-0.2c0.434-0.367,0.75-0.65,0.95-0.85c1.633-1.167,2.8-2.1,3.5-2.8c0.066,0.5,0.017,1.05-0.15,1.65
	c-0.034,0.133-0.2,0.633-0.5,1.5c0.767-0.066,1.533-0.75,2.3-2.05c1.033-1.833,1.583-2.783,1.65-2.85c-0.3,1.434-1,3.467-2.1,6.1
	c-0.1,0.3-0.233,0.567-0.4,0.8c0.1-0.3,0.184-0.65,0.25-1.05c0.167-0.833,0.367-1.45,0.6-1.85c-1.033,1.4-1.95,2.267-2.75,2.6
	c-0.233,0.1-0.95,0.117-2.15,0.05C21.7,23.767,21.383,23.833,21.15,24z"/>
<path style="fill-rule:evenodd;clip-rule:evenodd;fill:#9F7F3D;" d="M77.65,12.55l3.55,0.2c0.1,0,0.2,0.017,0.3,0.05l0.95,0.05v0.1
	c-0.434,0.133-1.184,0.25-2.25,0.35c-0.134,0.534-0.8,0.617-2,0.25c-1.334-0.533-2.167-0.833-2.5-0.9
	c-0.733-0.167-1.584-0.267-2.55-0.3c-0.367-0.033-1.134-0.05-2.301-0.05l0.051,0.3c0.033,0.1,0.083,0.2,0.149,0.3
	c0.2,0.4,0.55,0.75,1.05,1.05c0.334,0.233,0.867,0.566,1.601,1c0.434,0.3,1.116,0.8,2.05,1.5c0.167,0.133,0.35,0.283,0.55,0.45
	c1.066,0.833,1.75,1.617,2.05,2.35c-0.833-0.067-1.833-0.583-3-1.55c-0.466-0.4-0.866-0.75-1.199-1.05
	c-0.667-0.6-1.167-1.033-1.5-1.3c-0.5-0.4-1.134-0.817-1.9-1.25c-1.1-0.6-1.75-0.967-1.95-1.1c-0.666-0.533-1.166-0.9-1.5-1.1
	c0.033,0,0.084,0,0.15,0l2.399,0.15c0.301,0.034,0.601,0.05,0.9,0.05l0.05,0.05l0.05-0.05l1.5,0.1l2.95,0.175L77.65,12.55z
	 M56.95,25c-0.9-0.233-2.117-0.583-3.65-1.05c-0.033,0-0.066-0.017-0.1-0.05c0.066-0.033,0.149-0.083,0.25-0.15
	c0.767-0.467,1.283-1,1.55-1.6c0.233-0.533,0.417-1.383,0.55-2.55c0.033-0.333,0.066-0.667,0.101-1c0.033-0.167,0.05-0.333,0.05-0.5
	c0.3-1.4,0.517-2.567,0.649-3.5c0.233-1.7,0.134-2.817-0.3-3.35L56,11.2l7.9,0.5l0.35,0.05c0.082,0.003,0.166,0.003,0.25,0
	c-0.371,0.07-0.604,0.136-0.7,0.2c-0.3,0.1-0.649,0.316-1.05,0.65c-0.533,0.433-0.884,0.7-1.05,0.8c-0.233,0.167-0.5,0.317-0.8,0.45
	c-0.267,0.133-0.5,0.35-0.7,0.65c-0.101,0.167-0.217,0.45-0.351,0.85c-0.1,0.367-0.25,0.617-0.449,0.75
	c-0.067-0.5-0.351-1.417-0.851-2.75c-0.166,0.133-0.5,0.333-1,0.6L57.5,13.6c-0.533,0.4-0.967,1.367-1.3,2.9
	c-0.134,0.6-0.217,1.167-0.25,1.7c-0.101,0.6-0.117,1.133-0.05,1.6l0.05,0.15c0.066,0.367,0.3,1.3,0.7,2.8
	C56.85,23.583,56.95,24.333,56.95,25z M59,25.35c-0.2,0-0.4-0.017-0.6-0.05c-0.034,0-0.067,0-0.101,0
	c-0.166-0.033-0.366-0.066-0.6-0.1v-0.35C58,24.783,58.434,24.95,59,25.35z M62.5,24.65c-0.8,0.367-1.634,0.6-2.5,0.7h-0.75
	c0.066-0.7,0.2-1.2,0.4-1.5l1.149,0.3c0.434,0.1,0.834,0.133,1.2,0.1c-0.033-0.467,0.15-0.767,0.55-0.9
	c0.533-0.2,0.867-0.383,1-0.55c0.334,0.233,0.617,0.434,0.851,0.6C63.6,23.967,62.967,24.383,62.5,24.65z M77,21.5
	c-0.967,0.267-2.167,0.25-3.6-0.05c-0.034-0.2-0.084-0.434-0.15-0.7c-0.167-0.633-0.25-1.133-0.25-1.5C73.667,19.75,75,20.5,77,21.5
	z M79.8,25.6c0.134-0.1,0.267-0.2,0.4-0.3c0,0.167,0,0.333,0,0.5L79.8,25.6z M50.1,10.85V10.8l1.351,0.1l-0.05,0.05l-0.801,0.6
	c-0.466,0.333-1.35,1.067-2.649,2.2c0.1-0.133,0.483-0.6,1.149-1.4C49.6,11.75,49.934,11.25,50.1,10.85z M38.05,15.05
	c-0.4,0.3-0.9,0.684-1.5,1.15c-0.1,0.033-0.2,0.066-0.3,0.1c1.367-1.533,2.367-2.7,3-3.5c0.6-0.667,1.083-1.383,1.45-2.15
	c0.5-1.133,0.216-1.6-0.85-1.4c0.233-0.467,0.05-0.8-0.55-1c-0.066-0.033-0.133-0.067-0.2-0.1c0.4,0.067,0.833,0.184,1.3,0.35
	l0.4,0.1c0.345,0.09,0.711,0.199,1.1,0.325l0.375,0.1c0.2,0.075,0.408,0.15,0.625,0.225c1.733,0.533,3,0.9,3.8,1.1l-0.05,0.25
	c-0.267,0.033-0.667,0.183-1.2,0.45c-0.467,0.267-0.816,0.383-1.05,0.35c0.466-0.7,0.399-1.1-0.2-1.2
	c-0.533-0.067-1.101,0.083-1.7,0.45c-0.567,0.367-1.333,1.133-2.3,2.3c-0.333,0.333-0.967,0.95-1.9,1.85
	C38.2,14.9,38.117,14.983,38.05,15.05z M39.3,25.2h-1.05c-0.067,0-0.133,0-0.2,0c0.233-0.2,0.467-0.45,0.7-0.75
	c0.467-0.833,0.833-1.467,1.1-1.9c0.833-0.966,1.4-1.733,1.7-2.3c0.267-0.833,0.533-1.417,0.8-1.75c0.101,1.733-0.233,3.283-1,4.65
	c-0.2,0.367-0.533,1.017-1,1.95C39.983,25.133,39.633,25.167,39.3,25.2z M30.7,7.95c-0.367,0.033-0.817,0.033-1.35,0
	c-1.4-0.1-2.617-0.034-3.65,0.2c-0.667,0.267-1.267,0.517-1.8,0.75c-0.667,0.233-1.233,0.45-1.7,0.65
	c-1.167,0.434-2.067,0.65-2.7,0.65c-0.3-0.034-0.55-0.1-0.75-0.2c0.633-0.1,1.417-0.417,2.35-0.95c1-0.633,1.733-1.083,2.2-1.35
	c1.3-0.467,2.1-0.833,2.4-1.1c0.333-0.267,0.5-0.55,0.5-0.85c0-0.293-0.092-0.444-0.275-0.45H26.1c0.433,0,0.95,0.3,1.55,0.9
	C28.417,6.933,29,7.4,29.4,7.6h0.05c0.133,0.066,0.617,0.133,1.45,0.2c0.067,0,0.15,0,0.25,0C31.017,7.833,30.867,7.883,30.7,7.95z
	 M7.9,15.2c0.233-0.367,0.583-0.817,1.05-1.35c0.066,0,0.15-0.017,0.25-0.05c0.533-0.1,1.267-0.233,2.2-0.4
	c0.133-0.033,0.283-0.066,0.45-0.1v0.5c-0.267,0.1-0.6,0.35-1,0.75c-0.367,0.367-0.7,0.6-1,0.7c-0.3,0.1-0.95,0.1-1.95,0V15.2z
	 M10.55,20.35V20.3c0.644-0.032,1.319-0.115,2.025-0.25h0.075c0.5-0.033,1.067-0.167,1.7-0.4l0.05-0.025
	c0.117-0.054,0.233-0.096,0.35-0.125c0.067-0.033,0.133-0.05,0.2-0.05C14.383,19.783,14,20,13.8,20.1
	c-0.466,0.233-0.917,0.433-1.35,0.6c-0.9-0.067-1.367-0.1-1.4-0.1C10.883,20.567,10.717,20.483,10.55,20.35z M18.25,17.6
	c-0.667,0.667-1.767,1.283-3.3,1.85c0.167-0.1,0.333-0.2,0.5-0.3c0.367-0.267,0.783-0.55,1.25-0.85l1.65-0.85
	C18.317,17.483,18.283,17.533,18.25,17.6z M23,24.65c-0.394-0.067-0.777-0.167-1.15-0.3c-0.233-0.1-0.467-0.217-0.7-0.35
	c0.233-0.167,0.55-0.233,0.95-0.2c1.2,0.067,1.917,0.05,2.15-0.05c0.8-0.333,1.717-1.2,2.75-2.6c-0.233,0.4-0.433,1.017-0.6,1.85
	c-0.066,0.4-0.15,0.75-0.25,1.05c-0.033,0.133-0.066,0.267-0.1,0.4c-0.5,0.133-0.9,0.216-1.2,0.25
	C24.209,24.76,23.593,24.743,23,24.65z"/>
<path style="fill-rule:evenodd;clip-rule:evenodd;fill:#E9C67C;" d="M63.85,16.3l0.5,0.3c1.167,0,2.2,0.217,3.101,0.65
	c1.166,0.567,1.684,1.4,1.55,2.5c-0.4,0.1-0.9,0-1.5-0.3c-0.6-0.333-1.05-0.483-1.35-0.45c-0.101,0-0.25,0.1-0.45,0.3
	c-0.167,0.2-0.283,0.3-0.351,0.3c-0.666-0.1-1.116-0.517-1.35-1.25C63.866,17.883,63.816,17.2,63.85,16.3z M34.5,12.95h0.85
	c-0.8,0.433-1.7,1.55-2.7,3.35c-0.967,1.667-2,2.717-3.1,3.15c-0.133-1.034,0.317-2.034,1.35-3
	C32.267,15.05,33.467,13.883,34.5,12.95z M34.85,17.4c0.3-0.2,0.617-0.4,0.95-0.6c1.733-1.033,2.9-1.95,3.5-2.75
	c0-0.033,0.017-0.066,0.05-0.1h0.05L41,13.6c-0.067,0.4-0.183,1.117-0.35,2.15c-0.167,0.967-0.367,1.65-0.6,2.05
	c-0.3,0.467-0.816,0.767-1.55,0.9c-1.033,0.167-1.65,0.3-1.85,0.4c-0.066,0.033-0.467,0.35-1.2,0.95
	c-0.4,0.367-0.867,0.483-1.4,0.35c-0.1-0.533-0.117-0.9-0.05-1.1c-0.867,0.4-1.483,0.517-1.85,0.35c0.3-0.367,0.75-0.783,1.35-1.25
	l0.075-0.075C33.925,18.021,34.35,17.712,34.85,17.4z M41.3,16.4c0.567-1.233,0.867-1.933,0.9-2.1l0.649,0.15
	c-0.433,2.333-1.1,3.716-2,4.15C40.783,18.033,40.933,17.3,41.3,16.4z M45.1,20.7c-0.533,0.533-1.05,0.783-1.55,0.75
	c-0.166-1.233,0.467-2.517,1.9-3.85c1.733-1.633,2.7-2.733,2.899-3.3h2.5c-0.366,0.3-0.8,1.184-1.3,2.65
	c-0.434,1.333-1.033,2.15-1.8,2.45c-0.233,0.133-0.65,0.184-1.25,0.15C46.233,19.65,45.767,20.033,45.1,20.7z M53.2,14.8l0.5,0.5
	c-0.134,1.233-0.75,2.617-1.851,4.15C51.816,18.55,52.267,17,53.2,14.8z M59.5,18.1l-0.15-0.6c0.067,0.233,0.367,0.767,0.9,1.6
	c0.4,0.667,0.517,1.217,0.35,1.65c-0.3-0.2-0.55-0.6-0.75-1.2C59.684,18.85,59.566,18.367,59.5,18.1z M32.2,10.3
	c0.133,0.733-0.133,1.4-0.8,2c-0.4,0.333-1.066,0.717-2,1.15c-1.267,0.733-2.35,1.316-3.25,1.75c-1.667,0.8-2.667,0.933-3,0.4
	c-0.7,0.167-1.433,0.8-2.2,1.9c-0.9,1.3-1.534,2.083-1.9,2.35c0.2-0.767,0.7-1.617,1.5-2.55c0.3-0.333,0.583-0.716,0.85-1.15
	c0.333-0.566,0.55-0.917,0.65-1.05c0.133-0.2,0.4-0.45,0.8-0.75c0.5-0.4,0.783-0.633,0.85-0.7c0.6-0.667,1.083-1.117,1.45-1.35
	c2.7-1.566,4.6-2.4,5.7-2.5L32.2,10.3z M23.2,9.6l2-0.5c0.033,0.033,0.117,0.033,0.25,0c0.033,0,0.066,0.05,0.1,0.15
	c-0.733,1.4-3.017,2.583-6.85,3.55c-0.333,0.1-0.95,0.217-1.85,0.35c-0.8,0.1-1.4,0.233-1.8,0.4c-1.8,0.8-2.833,1.317-3.1,1.55
	c0.3-1.133,1.95-2.333,4.95-3.6C19.367,10.367,21.467,9.733,23.2,9.6z M22.2,5.05c0.133,0.034,0.35,0.117,0.65,0.25h0.95
	c-0.233,0.434-0.7,0.784-1.4,1.05c-0.133,0.033-0.7,0.183-1.7,0.45c-1.7,0.267-2.917,0.5-3.65,0.7c-0.433,0.1-1.017,0.45-1.75,1.05
	c-0.733,0.534-1.316,0.833-1.75,0.9C13.75,8.817,13.9,8.433,14,8.3c-0.667,0.5-1.2,0.817-1.6,0.95
	C16.1,6.917,19.367,5.517,22.2,5.05z M29.2,15.2c-0.2,0.233-0.434,0.55-0.7,0.95c-0.567,0.8-1.117,1.167-1.65,1.1
	c0.233-0.433,0.7-0.9,1.4-1.4C28.617,15.583,28.933,15.367,29.2,15.2c0.4-0.567,0.617-0.867,0.65-0.9v0.3
	C29.717,14.733,29.5,14.933,29.2,15.2z M17,14.1l-0.3,1c-0.434,0.233-1.083,0.617-1.95,1.15c-0.767,0.4-1.467,0.617-2.1,0.65
	c0.934-0.833,1.617-1.4,2.05-1.7C15.4,14.667,16.167,14.3,17,14.1z"/>
<path style="fill-rule:evenodd;clip-rule:evenodd;fill:#F5DB85;" d="M33,23.65c0.333,0.533,1.133,1.117,2.4,1.75s2.2,0.934,2.8,0.9
	c0.566,0,1.167-0.133,1.8-0.4c0.7-0.267,1.283-0.617,1.75-1.05c-0.833,0.2-1.65,0.316-2.45,0.35c0.333-0.034,0.684-0.067,1.05-0.1
	c0.167-0.033,0.367-0.067,0.6-0.1c0.267-0.067,0.55-0.133,0.85-0.2c0.167-0.033,0.351-0.083,0.55-0.15
	c3.167-0.867,5.084-1.333,5.75-1.4c1.134-0.133,2.417-0.017,3.851,0.35c0.399,0.066,0.816,0.167,1.25,0.3
	c0.033,0.033,0.066,0.05,0.1,0.05c1.533,0.466,2.75,0.816,3.65,1.05c0.267,0.067,0.517,0.133,0.75,0.2
	c0.233,0.033,0.434,0.066,0.6,0.1c1.733,0.8,3.033,1.25,3.9,1.35c1.733,0.2,2.916-0.25,3.55-1.35c0.6-1.033,0.333-1.767-0.8-2.2
	c0.267-0.2,0.533-0.383,0.8-0.55c1.167-0.767,1.983-1.233,2.45-1.4c0.866-0.3,2.233-0.283,4.1,0.05c0.334,0.066,0.667,0.133,1,0.2
	c0.033,0,0.066,0.017,0.101,0.05c1.433,0.3,2.633,0.316,3.6,0.05c0.4-0.167,0.767-0.367,1.1-0.6c0.5-0.367,0.983-1,1.45-1.9
	c0.267-0.533,0.533-1.15,0.8-1.85c0.101-0.244,0.2-0.477,0.301-0.7c0.414-0.965,0.798-1.731,1.149-2.3
	c0.233-0.367,0.45-0.633,0.65-0.8c0,0.026,0.017,0.209,0.05,0.55c0.02,0.087,0.036,0.188,0.05,0.3
	c0.066,0.867,0.217,2.483,0.45,4.85c0.033,0.3,0.05,0.6,0.05,0.9c-0.066-0.567-0.233-1.833-0.5-3.8c-0.2,0.267-0.633,1.184-1.3,2.75
	c0.033-0.333,0.017-0.65-0.05-0.95c-0.134-0.733-0.316-1.233-0.55-1.5C80.15,17.75,79.8,18.6,79.6,19
	c-0.433,0.867-0.933,1.5-1.5,1.9c-0.633,0.5-1.3,0.767-2,0.8c0.967,0.267,1.7,0.417,2.2,0.45c0.533,0.033,1-0.033,1.4-0.2
	c-0.367,0.5-0.75,0.833-1.15,1c-0.2,0.1-0.6,0.1-1.2,0c-0.566-0.1-0.966-0.083-1.199,0.05c-0.2,0.133-0.317,0.433-0.351,0.9
	c0,0.467-0.116,0.783-0.35,0.95c-0.334,0.3-0.9,0.617-1.7,0.95c-1,0.4-1.616,0.667-1.85,0.8c-1.067,0.6-2.551,1.5-4.45,2.7
	c-1.667,0.867-3.316,1.3-4.95,1.3c-1.134,0-2.366-0.183-3.7-0.55c-0.7-0.2-1.866-0.6-3.5-1.2c-3.133-1.1-6.066-1.416-8.8-0.949
	c-0.667,0.133-1.833,0.683-3.5,1.649c-1.5,0.9-2.65,1.367-3.45,1.4c-0.867,0.066-2.233-0.55-4.1-1.851
	c-2.133-1.466-3.583-2.3-4.35-2.5c-1.367-0.367-2.733-0.184-4.1,0.55c-1.533,1-2.8,1.683-3.8,2.05
	c-2.034,0.767-4.583,0.25-7.65-1.55c-2.9-1.667-4.816-3.55-5.75-5.65c-0.7-0.2-1.767,0.1-3.2,0.9c-1.4,0.733-2.417,1.133-3.05,1.2
	c-0.333-0.934-0.45-2.167-0.35-3.7c0.133-2.233-0.617-3.583-2.25-4.05C2.25,16.683,3,17.467,3.2,18.7v-0.1
	c0.133-0.733,0.117-2.267-0.05-4.6c-1.133,0.2-2.167,0.5-3.1,0.9c0.337-1.538,2.07-2.988,5.2-4.35c3.433-1.5,6.3-2.25,8.6-2.25
	l-1.95,1c0.033,0.067,0.067,0.133,0.1,0.2s0.05,0.15,0.05,0.25c-0.533,0.767-1.883,1.717-4.05,2.85c-1.9,1-3.05,2.1-3.45,3.3
	c0.867,0,2.117,0.117,3.75,0.35h0.05c0.4,0.133,0.7,0.2,0.9,0.2c0,0.1,0.017,0.2,0.05,0.3c0.167,1.133,0.383,2.017,0.65,2.65
	c0.167,0.434,0.367,0.75,0.6,0.95c0.167,0.133,0.333,0.217,0.5,0.25c0.034,0,0.5,0.033,1.4,0.1c0.167,0,0.367,0,0.6,0
	c0.7,0.033,1.417,0.117,2.15,0.25c1.033,1.233,2.55,2.367,4.55,3.4c1.167,0.6,2.25,0.7,3.25,0.3c0.593,0.093,1.209,0.11,1.85,0.05
	c0.3-0.034,0.7-0.117,1.2-0.25c0.4-0.133,0.867-0.3,1.4-0.5c1.1-0.4,2-0.617,2.7-0.65c0.934-0.066,1.817,0.034,2.65,0.3
	C32.867,23.633,32.933,23.65,33,23.65z M60,25.35c0.866-0.1,1.7-0.333,2.5-0.7c-0.134,0.067-0.267,0.133-0.4,0.2
	C61.434,25.117,60.733,25.283,60,25.35z M36.45,24.95c-0.6-0.133-1.217-0.35-1.85-0.65c-0.053-0.022-0.103-0.047-0.15-0.075
	C35.493,24.622,36.16,24.863,36.45,24.95z M7.9,15.2c-0.2,0.3-0.333,0.55-0.4,0.75c0.195-0.642,0.82-1.508,1.875-2.6
	c-0.152,0.173-0.294,0.339-0.425,0.5C8.483,14.383,8.133,14.833,7.9,15.2z"/>
<path style="fill-rule:evenodd;clip-rule:evenodd;fill:#CAB262;" d="M64.95,23.1c1.133,0.433,1.399,1.167,0.8,2.2
	c-0.634,1.1-1.816,1.55-3.55,1.35c-0.867-0.1-2.167-0.55-3.9-1.35c0.033,0,0.066,0,0.101,0c0.199,0.034,0.399,0.05,0.6,0.05h0.25H60
	c0.733-0.067,1.434-0.233,2.1-0.5c0.134-0.067,0.267-0.133,0.4-0.2c0.467-0.267,1.1-0.683,1.9-1.25c0.1-0.133,0.233-0.25,0.399-0.35
	C64.833,23.05,64.884,23.067,64.95,23.1z M80.2,25.3c-0.134,0.1-0.267,0.2-0.4,0.3c-0.399,0.2-0.783,0.333-1.149,0.4
	c-1.233,0-2.417,0.1-3.551,0.3c-1.333,0.233-2.433,0.684-3.3,1.351c-0.533,0.433-1.45,1.283-2.75,2.55c-2.366,2-4.467,2.833-6.3,2.5
	c-2.333-0.934-4.5-1.584-6.5-1.95c-2.066-0.366-5.017-0.066-8.85,0.9c-3.9,1-6.7,1.366-8.4,1.1c-0.933-0.134-1.633-0.5-2.1-1.1
	c-0.6-0.767-1.183-1.267-1.75-1.5c-0.767-0.334-1.833-0.517-3.2-0.551c-1.133-0.033-2.217,0.017-3.25,0.15
	c-0.733,0.2-1.417,0.366-2.05,0.5c-0.4,0.1-0.767,0.184-1.1,0.25c-1.533,0.333-2.65,0.55-3.35,0.65
	c-1.7,0.233-3.617-0.45-5.75-2.051c-1.067-0.833-1.883-1.449-2.45-1.85c-1-0.7-1.9-1.15-2.7-1.35c-0.1-0.033-0.2-0.05-0.3-0.05h-0.1
	c-0.133-0.033-0.283-0.033-0.45,0c-0.567-0.033-1.317,0-2.25,0.1c-0.067,0-0.117,0-0.15,0c-1.466,0.2-2.5,0.15-3.1-0.15l-0.1-0.05
	c-0.7-0.367-1.2-0.917-1.5-1.65c0.066,0,0.133,0,0.2,0c0.633-0.067,1.65-0.467,3.05-1.2c1.433-0.8,2.5-1.1,3.2-0.9
	c0.934,2.1,2.85,3.983,5.75,5.65c3.067,1.8,5.617,2.316,7.65,1.55c1-0.367,2.267-1.05,3.8-2.05c1.367-0.734,2.733-0.917,4.1-0.55
	c0.767,0.2,2.217,1.034,4.35,2.5c1.867,1.301,3.233,1.917,4.1,1.851c0.8-0.033,1.95-0.5,3.45-1.4c1.667-0.967,2.833-1.517,3.5-1.649
	c2.733-0.467,5.667-0.15,8.8,0.949c1.634,0.601,2.8,1,3.5,1.2c1.334,0.367,2.566,0.55,3.7,0.55c1.634,0,3.283-0.433,4.95-1.3
	c1.899-1.2,3.383-2.1,4.45-2.7c0.233-0.133,0.85-0.4,1.85-0.8c0.8-0.333,1.366-0.65,1.7-0.95c0.233-0.167,0.35-0.483,0.35-0.95
	c0.033-0.467,0.15-0.767,0.351-0.9c0.233-0.133,0.633-0.15,1.199-0.05c0.601,0.1,1,0.1,1.2,0c0.4-0.167,0.783-0.5,1.15-1
	c-0.4,0.167-0.867,0.233-1.4,0.2c-0.5-0.033-1.233-0.183-2.2-0.45c0.7-0.034,1.367-0.3,2-0.8c0.567-0.4,1.067-1.033,1.5-1.9
	c0.2-0.4,0.551-1.25,1.051-2.55c0.233,0.267,0.416,0.767,0.55,1.5c0.066,0.3,0.083,0.617,0.05,0.95c0.667-1.566,1.1-2.483,1.3-2.75
	c0.267,1.967,0.434,3.233,0.5,3.8c0,0.1,0,0.183,0,0.25c-0.033,1-0.333,1.966-0.899,2.9c-0.134,0.2-0.284,0.417-0.45,0.65
	c-0.134,0.133-0.25,0.283-0.351,0.45L81.2,24.35c-0.033,0-0.05,0.017-0.05,0.05l-0.45,0.5C80.533,25.033,80.366,25.167,80.2,25.3z
	 M38.05,25.2c0.067,0,0.133,0,0.2,0h1.05c0.8-0.034,1.617-0.15,2.45-0.35c-0.467,0.433-1.05,0.783-1.75,1.05
	c-0.633,0.267-1.233,0.4-1.8,0.4c-0.6,0.034-1.534-0.267-2.8-0.9s-2.066-1.217-2.4-1.75c0.1,0.033,0.233,0.083,0.4,0.15l0.55,0.25
	c0.172,0.065,0.339,0.124,0.5,0.175c0.047,0.027,0.097,0.052,0.15,0.075c0.633,0.3,1.25,0.517,1.85,0.65h0.05
	c0.467,0.1,0.967,0.183,1.5,0.25H38.05z M8.3,16.25c-1.633-0.233-2.883-0.35-3.75-0.35c0.4-1.2,1.55-2.3,3.45-3.3
	c2.167-1.133,3.517-2.083,4.05-2.85c0.034,0.667-0.533,1.55-1.7,2.65c-0.1,0.1-0.2,0.2-0.3,0.3c-0.239,0.228-0.464,0.445-0.675,0.65
	c-1.055,1.092-1.68,1.958-1.875,2.6l-0.05,0.1C7.617,16.05,7.9,16.117,8.3,16.25z M23,24.65c-1,0.4-2.083,0.3-3.25-0.3
	c-2-1.033-3.517-2.167-4.55-3.4c0.367,0.1,0.733,0.2,1.1,0.3c0.867,0.233,1.9,0.783,3.1,1.65c0.1,0.067,0.217,0.15,0.35,0.25
	c0.2,0.133,0.4,0.267,0.6,0.4c0.267,0.167,0.533,0.317,0.8,0.45c0.233,0.133,0.467,0.25,0.7,0.35
	C22.223,24.483,22.606,24.583,23,24.65z M0.95,16.35l-0.6-0.1C0.283,16.217,0.2,16.2,0.1,16.2C0.033,16,0,15.8,0,15.6
	c-0.013-0.235,0.003-0.468,0.05-0.7c0.934-0.4,1.967-0.7,3.1-0.9c0.167,2.333,0.184,3.867,0.05,4.6v0.1
	C3,17.467,2.25,16.683,0.95,16.35z"/>
<linearGradient id="SVGID_1_" gradientUnits="userSpaceOnUse" x1="23.1875" y1="26.375" x2="84.2125" y2="26.375">
	<stop  offset="0" style="stop-color:#000000;stop-opacity:0.3294"/>
	<stop  offset="1" style="stop-color:#000000;stop-opacity:0.3294"/>
</linearGradient>
<path style="fill-rule:evenodd;clip-rule:evenodd;fill:url(#SVGID_1_);" d="M55.5,45.3L53.45,46.4c-0.368,2.162-0.368,4.279,0,6.35
	l-2.4-5.35l-3.25-2.2c-2.604-0.147-3.82-0.247-3.649-0.3c-1.522,0.202-2.355,1.411-2.5,3.625c-0.235-0.277-0.502-0.561-0.8-0.851
	c-1.613-2.015-2.98-3.223-4.1-3.625c-0.404-0.148-0.771-0.282-1.1-0.399c-0.743-0.438-1.509-0.846-2.3-1.226
	c-0.209-0.737-0.826-1.171-1.85-1.3c-0.191-0.023-0.366-0.049-0.525-0.075c-0.487-0.296-0.979-0.579-1.475-0.85
	c-0.075-0.041-0.15-0.083-0.225-0.125c-0.025-0.066-0.05-0.125-0.075-0.175c-0.333-0.834-1.733-1.934-4.2-3.301
	c3.133,0.867,5.267,1.45,6.4,1.75c1.233,0.367,2.983,0.601,5.25,0.7c2.367,0.101,4.1,0.3,5.2,0.601c0.8,0.199,1.633,0.366,2.5,0.5
	h0.15h4.2l1.7,0.149c0.166,0,0.5-0.017,1-0.05c0.166,0,0.366-0.017,0.6-0.05c0.066,0,0.134,0,0.2,0h0.2
	c0.6,0.033,1.133,0.017,1.6-0.05c0.533-0.067,1.083-0.15,1.65-0.25l3.05-0.351c0.6-0.066,1.133-0.116,1.6-0.149
	c0.101-0.034,0.217-0.051,0.351-0.051c0.8-0.1,1.55-0.216,2.25-0.35l0.149-0.05c0.767-0.2,1.434-0.417,2-0.65l0.3-0.1
	c1.233-0.601,2.717-1.483,4.45-2.65c2.101-1.434,3.467-2.333,4.101-2.7c0.333-0.199,0.899-0.383,1.699-0.55
	c0.733-0.166,1.317-0.366,1.75-0.6c0.767-0.434,1.334-1.084,1.7-1.95c0.367-1.033,0.667-1.833,0.9-2.4c1-1.766,1.733-3.183,2.2-4.25
	c0.566-0.934,0.866-1.9,0.899-2.9c0-0.067,0-0.15,0-0.25c0-0.3-0.017-0.6-0.05-0.9c-0.233-2.367-0.384-3.983-0.45-4.85
	c-0.014-0.113-0.03-0.213-0.05-0.3c0-0.102,0-0.202,0-0.3c0.167,0.3,0.366,0.767,0.6,1.4c0.434,1.267,0.717,2.683,0.851,4.25
	c0.1,0.9,0.184,2.35,0.25,4.35c0.05,0.875,0,1.725-0.15,2.55c-0.25,0.751-0.459,1.343-0.625,1.775
	c-0.027,0.04-0.052,0.082-0.075,0.125c-0.137,0.24-0.245,0.465-0.324,0.675L83,28.75c-3.733,3.366-6.4,5.85-8,7.45
	c-1.329,1.313-2.346,2.555-3.05,3.725c-2.921,0.976-5.371,2.5-7.351,4.575c-0.404,0.416-0.771,0.841-1.1,1.275
	C61.76,45.583,59.094,45.425,55.5,45.3z M39.3,8.25C38.833,8.117,38.4,8.033,38,8c0.067-0.033,0.133-0.05,0.2-0.05
	c0.3-0.034,1.367,0.133,3.2,0.5c1.466,0.267,2.433,0.216,2.9-0.15c0.533-0.433,0.834-1.417,0.9-2.95c0-0.867,0-1.567,0-2.1
	c0.066,0.767,0.267,1.567,0.6,2.4c0.3,0.7,0.783,1.783,1.45,3.25c0.566,0.067,1-0.083,1.3-0.45s0.417-0.867,0.351-1.5
	c0.433,0.333,1.05,0.85,1.85,1.55c0.733,0.533,1.434,0.933,2.1,1.2c0.733,0.233,1.617,0.383,2.65,0.45
	c1.333,0.067,2.233,0.133,2.7,0.2c1.434,0.267,3.2,0.35,5.3,0.25c0.134,0,0.65,0.033,1.55,0.1c0.3,0.033,0.684-0.133,1.15-0.5
	c0.233-0.167,0.45-0.583,0.649-1.25c0.2-0.7,0.417-1.167,0.65-1.4c0.434,0.567,1.083,1.633,1.95,3.2c0.333,0.5,0.649,0.933,0.95,1.3
	C69,11.983,67.533,11.9,66,11.8c-0.733-0.033-1.434-0.066-2.1-0.1L56,11.2l0.05,0.05L52.4,11c-0.367-0.033-0.7-0.05-1-0.05
	l0.05-0.05L50.1,10.8v0.05C49.9,10.817,49.7,10.8,49.5,10.8c-1.5-0.133-3.783-0.683-6.85-1.65c-0.128-0.04-0.253-0.082-0.375-0.125
	l-0.375-0.1C41.511,8.799,41.145,8.69,40.8,8.6l-0.4-0.1c-0.467-0.167-0.9-0.283-1.3-0.35C39.167,8.183,39.233,8.217,39.3,8.25z
	 M81.2,12.75l-3.55-0.2c-0.334-0.033-0.667-0.066-1-0.1c0.466-0.333,0.949-0.717,1.449-1.15c0.2,0.7,0.584,1.067,1.15,1.1
	c0.934,0.067,1.467,0.133,1.6,0.2C80.95,12.667,81.066,12.717,81.2,12.75z M30.9,7.8c-0.6-0.1-1.1-0.233-1.5-0.4
	c-0.5-0.2-1.083-0.617-1.75-1.25c-0.033-0.033-0.066-0.066-0.1-0.1c1.233,0.034,2.367-1.983,3.4-6.05
	c0.167,0.567,0.3,1.617,0.4,3.15c0.066,1.4,0.233,2.45,0.5,3.15c0.267,0.733,0.667,1.267,1.2,1.6c-0.233,0-0.45,0-0.65,0
	c-0.467,0-0.883-0.033-1.25-0.1C31.05,7.8,30.967,7.8,30.9,7.8z"/>
<path style="fill-rule:evenodd;clip-rule:evenodd;fill:none;stroke:#FFFFFF;stroke-linecap:round;stroke-linejoin:round;stroke-miterlimit:3;stroke-opacity:0;" d="
	M47.8,45.2l3.25,2.2l2.4,5.35c-0.368-2.07-0.368-4.188,0-6.35L55.5,45.3"/>
</svg>
