<?xml version="1.0" encoding="iso-8859-1"?>
<!-- Generator: Adobe Illustrator 15.1.0, SVG Export Plug-In . SVG Version: 6.00 Build 0)  -->
<!DOCTYPE svg PUBLIC "-//W3C//DTD SVG 1.1//EN" "http://www.w3.org/Graphics/SVG/1.1/DTD/svg11.dtd">
<svg version="1.1" id="FlashAICB" xmlns="http://www.w3.org/2000/svg" xmlns:xlink="http://www.w3.org/1999/xlink" x="0px" y="0px"
	 width="83.4px" height="28.65px" viewBox="0 0 83.4 28.65" style="enable-background:new 0 0 83.4 28.65;" xml:space="preserve">
<path style="fill-rule:evenodd;clip-rule:evenodd;fill:#2B2E10;" d="M80.1,26.35l0.551,1.15c-1.733,0.733-3.117,1.116-4.15,1.15
	c-1.3,0-2.65-0.45-4.05-1.351C71.116,26.434,70.3,25.4,70,24.2c0.4,0.633,1.05,1.267,1.95,1.899c1.399,0.9,2.733,1.351,4,1.351
	c0.866-0.033,2.133-0.367,3.8-1L80.1,26.35z M67.3,19.5c0.834,1.566,1.634,2.684,2.4,3.35l-0.25-0.1l0.2,0.75
	c-0.634-0.8-1.284-1.816-1.95-3.05L67.3,19.5z M76,20.45l-0.5,1.25l0.3-1.3L76,20.45z M53.3,13.8l-0.5-0.1
	c-1.333-0.233-2.434-0.3-3.3-0.2l0.05-0.6L50.4,13C51.634,13.167,52.6,13.433,53.3,13.8z M44.95,17.4L44.7,17.35
	c-1.233-0.3-2.233-0.649-3-1.05l-0.25-0.2c0.399-0.233,0.666-0.333,0.8-0.3c0.267,0.033,0.9,0.434,1.9,1.2L44.95,17.4z M36.9,14.7
	c0.434,0,0.9,0.05,1.4,0.15c0.333,0,0.65,0.15,0.95,0.45c-0.367,0.2-0.783,0.5-1.25,0.9C37.633,15.467,37.267,14.967,36.9,14.7z
	 M34.35,10.95c0.933,0.8,2.083,1.617,3.45,2.45l-2.1,0.8l-2.95-0.5l2.65-1c-1.033-0.633-2.017-1.3-2.95-2L34.35,10.95z M13.5,12.95
	h-0.05l0.05-0.25c1-2.367,1.55-4.083,1.65-5.15V7.5c0.833,0.2,0.817,1.533-0.05,4C14.5,11.967,13.967,12.45,13.5,12.95z M13.45,8.3
	l-1.65,3.05c-0.033-0.4,0.217-1.4,0.75-3l0.3-0.95l0.25-0.55C13.4,7.15,13.517,7.633,13.45,8.3z M16.6,15.8l-2.25,0.351L17.5,16.6
	c1.167,0.2,2.067,0.534,2.7,1C19.667,17.7,18.6,17.566,17,17.2c-0.8-0.2-1.517-0.3-2.15-0.3c-0.934-0.601-1.5-1.067-1.7-1.4
	c0.267-0.1,0.633-0.116,1.1-0.05h0.1h0.05c0.6,0,1.267,0.1,2,0.3L16.6,15.8z M13.55,20.7c-0.6-0.934-1.25-1.55-1.95-1.851
	c0.8,0.067,2,0.384,3.6,0.95c1.466,0.5,2.65,0.717,3.55,0.65V20.4c0.5,0.433,0.7,0.949,0.6,1.55c-0.9,0.066-2.1-0.134-3.6-0.601
	C14.75,20.983,14.017,20.767,13.55,20.7z M18.65,12c-1,0.133-1.75,0.267-2.25,0.4c0.867-0.633,1.983-1.267,3.35-1.9
	C19.75,10.933,19.383,11.433,18.65,12z M2.95,14.4C2.15,13.133,1.5,11.717,1,10.15c0.533,1.267,1.117,2.317,1.75,3.15l1.05,1.2
	L2.95,14.4z M1.6,15.95l3.1,1.2c-0.7-0.034-1.5,0.166-2.4,0.6l-0.4-0.2c-1.5-0.8-1.667-1.316-0.5-1.55L1.6,15.95z M7.8,21.45
	c0.5-1.033,0.733-1.733,0.7-2.101c0.2,1,0.967,1.95,2.3,2.851c1.267,0.833,2.6,1.35,4,1.55l-0.1-0.5c0.367,0.7,0.6,1.4,0.7,2.1
	c-1.333-0.166-2.667-0.666-4-1.5c-1.333-0.933-2.1-1.866-2.3-2.8c0,0.334-0.083,0.667-0.25,1c0,0.066-0.217,0.533-0.65,1.4
	c-0.267-0.434-0.4-1-0.4-1.7V21.45z M4.55,18.6c1.034,0.067,1.833,0,2.4-0.199C7.117,18.667,7.2,19.233,7.2,20.1v0.051
	c-1.133,0.233-2.767,0.1-4.9-0.4c1.067-0.7,2.05-1.017,2.95-0.95L4.55,18.6z M18,15.4l-1.05-0.25L13.8,14.7
	c1.3-0.1,2.65-0.383,4.05-0.85L19,13.4c0.8-0.2,1.583-0.3,2.35-0.3c-0.3,0.833-1.283,1.55-2.95,2.15L18,15.4z"/>
<path style="fill-rule:evenodd;clip-rule:evenodd;fill:#B2584F;" d="M70,24.2l-0.35-0.7l-0.2-0.75l0.25,0.1
	c-0.767-0.666-1.566-1.783-2.4-3.35c-0.066-0.1-0.116-0.184-0.149-0.25l-0.351-0.8c-0.533-1.134-0.916-2.25-1.149-3.351
	c0.866,0,1.816,0.667,2.85,2c0.5,0.534,1.267,1.483,2.3,2.851c0.101-0.4-0.017-1.134-0.35-2.2c-0.267-0.934-0.351-1.733-0.25-2.4
	c0.533,0.267,1.166,0.867,1.899,1.801c0.7,0.966,1.267,1.6,1.7,1.899l1.95-4.8c0.634,0.9,0.8,2.116,0.5,3.65l-0.75,3.8l0.5-1.25
	l1.7-4.5c0.399,0.6,0.649,1.533,0.75,2.8l0.45,2.8c0.733,0,1.616-0.3,2.649-0.899c-0.166,0.566-0.7,1.533-1.6,2.899
	c0.267,0.334,0.8,0.601,1.6,0.8c1.101,0.267,1.717,0.434,1.851,0.5l-3.301,1.5l-0.35,0.101c-1.667,0.633-2.934,0.967-3.8,1
	c-1.267,0-2.601-0.45-4-1.351C71.05,25.467,70.4,24.833,70,24.2z M73.25,23.9l0.2,0.3h0.25c0.3,0.166,0.583,0.283,0.85,0.35
	L74.5,24.7c0.333,0,0.684-0.084,1.05-0.25c0.5-0.2,0.851-0.267,1.05-0.2l-0.699,0.7c0.399,0,0.916-0.184,1.55-0.55
	c0.7-0.4,1.1-0.784,1.2-1.15c-0.167,0.2-0.483,0.45-0.95,0.75c0.333-0.634,0.399-1.5,0.2-2.6c-0.067-0.467-0.284-1.334-0.65-2.601
	l-1.3,3.2c-0.733,0.1-1.05-0.434-0.95-1.6l0.5-2.551l-0.7,1.65c-0.233,0.7-0.583,1-1.05,0.9c-0.1-0.067-0.35-0.384-0.75-0.95
	l-0.75-1.15c-0.566-0.467-0.967-0.733-1.2-0.8l0.45,1.7c0.2,0.833,0.083,1.3-0.35,1.399c-0.2,0.067-0.634-0.216-1.301-0.85
	c-1.3-1.2-2.233-2-2.8-2.4l3.8,4.45c0.167,0.2,0.317,0.184,0.45-0.05c0.2-0.3,0.351-0.417,0.45-0.35c0.4,0.1,0.55,0.649,0.45,1.649
	l0.35-0.3v0.15l-0.1,0.1c0.064,0,0.098,0.05,0.1,0.15L72.7,23.3l0.149,0.2L73.25,23.9z M34.35,10.95l-0.1-0.05l-3.1-3.1
	c2.233-0.1,4.383,0.733,6.45,2.5c-0.967-3.5-1.733-5.816-2.3-6.95c0.4,0.5,0.9,1.35,1.5,2.55c0.6,0.867,1.383,1.333,2.35,1.4
	L38.5,4.45c-0.1-1.034,0-1.983,0.3-2.85c0.2,0.433,0.534,1.383,1,2.85c0.4,1.1,0.867,1.966,1.4,2.6c0.267-3.1,0.366-5.45,0.3-7.05
	l2.25,6.1c0.1-0.9,0.533-1.817,1.3-2.75c0.8-1.033,1.55-1.684,2.25-1.95L45.9,4.75c-0.4,1.567-0.317,2.717,0.25,3.45
	c-0.667,0.533-1.25,1.1-1.75,1.7c0-0.7,0.033-1.383,0.1-2.05c0.1-0.9,0.1-1.567,0-2l-0.8,2.2c-0.233-0.367-0.417-0.75-0.55-1.15
	L42.85,5.65c0.101,0.867,0.034,2.083-0.199,3.65L41.4,7.45c0.1,0.733,0.1,1.25,0,1.55l-1.5-0.6l0.25,0.75L40.3,9.9l-1.4-0.55
	l0.6,1.7c-0.6-0.133-0.967-0.2-1.1-0.2c-0.433-0.067-0.767-0.05-1,0.05l1.2,0.4c0.5,0.1,0.717,0.383,0.65,0.85
	c0.167-0.133,0.4-0.217,0.7-0.25l0.2,0.8c0.5-0.2,0.767,0,0.8,0.6c0.366-0.2,0.717-0.283,1.05-0.25l0.05,0.1
	c0.101,0.3,0.316,0.5,0.65,0.6c0.267,0.2,0.467,0.45,0.6,0.75l0.15-0.6c0.166,0,0.267,0.05,0.3,0.15l0.8,0.6
	c1.101,0.4,2.4,0.6,3.9,0.6c1.6-0.1,2.899-0.383,3.899-0.85L49,14.35c-1.566-0.1-2.483-0.467-2.75-1.1c0.833-0.5,1.5-1.033,2-1.6
	L45.6,12.6c-0.1-0.4,0.384-0.983,1.45-1.75c1.3-0.9,2-1.5,2.101-1.8C48.35,9.517,47.8,9.783,47.5,9.85c0-0.267,0.167-0.767,0.5-1.5
	l-1.45,1c0.2-0.533,0.667-1.1,1.4-1.7c0.833-0.633,1.333-1.117,1.5-1.45c-0.9,0.2-1.967,0.833-3.2,1.9
	c0.467-0.767,1.434-1.434,2.9-2L52.8,5c-0.1,0.667-0.767,1.567-2,2.7c-1.333,1.133-2.149,2.033-2.45,2.7L51.7,9.1
	c1.6-0.533,2.566-0.483,2.899,0.15c-0.899,0.5-1.949,1.117-3.149,1.85c-1.066,0.6-1.7,1.2-1.9,1.8l-0.05,0.6
	c0.866-0.1,1.967-0.033,3.3,0.2l0.5,0.1c1.233,0.233,2.15,0.517,2.75,0.85c-1.934,0.833-3.8,1.417-5.6,1.75
	c-0.834,0.133-1.7,0.199-2.601,0.199c0.567,0.601,1.334,1.067,2.301,1.4c-0.634,0.333-1.65,0.35-3.051,0.05
	c-0.966-0.233-1.683-0.45-2.149-0.649l-0.8-0.4c-1-0.767-1.634-1.167-1.9-1.2c-0.134-0.033-0.4,0.066-0.8,0.3
	c-0.233,0.101-0.567,0.351-1,0.75c-0.4-0.733-0.8-1.25-1.2-1.55c-0.3-0.3-0.617-0.45-0.95-0.45c-0.5-0.1-0.966-0.15-1.4-0.15
	l-1.75-0.3l0.55-0.2l2.1-0.8C36.433,12.567,35.283,11.75,34.35,10.95z M13.45,8.3l1.15-2.15c0.433,0.1,0.617,0.55,0.55,1.35v0.05
	c-0.1,1.067-0.65,2.784-1.65,5.15c0.167-1.967,0.35-3.2,0.55-3.7l-0.95,2.15c-0.6,1.2-1.167,1.833-1.7,1.9
	c-0.367,0-0.55-0.417-0.55-1.25L11,10.2c-0.5,1.2-0.917,2.083-1.25,2.65c-0.367-0.1-0.667-0.367-0.9-0.8
	c-0.3-0.633-0.5-0.983-0.6-1.05l-0.9-2.05C7.483,9.417,7.6,10.333,7.7,11.7l0.25,1.1c0.1,0.467,0.1,0.817,0,1.05
	c-0.333,0-0.867-0.233-1.6-0.7c-0.667-0.467-1.233-0.733-1.7-0.8C4.817,12.45,5,12.833,5.2,13.5c0.233,0.433,0.517,0.767,0.85,1
	c-0.2,0.133-0.45,0.2-0.75,0.2c-0.5,0.033-0.783,0.05-0.85,0.05c0.433,0.167,0.783,0.283,1.05,0.35c0.6,0.134,0.933,0.217,1,0.25
	C6.733,15.483,7.033,15.7,7.4,16l-0.5,0.15c0,0.767,0.517,1.05,1.55,0.85l-0.3,0.8l0.6-0.3c0.267-0.134,0.45-0.2,0.55-0.2
	c0.1,0.4,0.284,0.816,0.55,1.25l0.8,1.05c-0.2-0.767-0.233-1.416-0.1-1.949c0.267,0,0.684,0.166,1.25,0.5c0.567,0.3,1,0.466,1.3,0.5
	c0.133,0.033,0.816,0.116,2.05,0.25c-0.1-0.167-0.733-0.601-1.9-1.301c-1-0.633-1.5-1.166-1.5-1.6c0.033-0.4,0.4-0.616,1.1-0.65
	c0.467-0.033,0.933,0,1.4,0.101c-0.467-0.066-0.833-0.05-1.1,0.05c0.2,0.333,0.767,0.8,1.7,1.4l1.55,0.8
	c1.667,0.8,2.45,1.7,2.35,2.7v0.05c-0.9,0.066-2.083-0.15-3.55-0.65c-1.6-0.566-2.8-0.883-3.6-0.95c0.7,0.301,1.35,0.917,1.95,1.851
	l0.15,0.25c0.466,0.733,0.8,1.5,1,2.3l0.1,0.5c-1.4-0.2-2.733-0.717-4-1.55c-1.333-0.9-2.1-1.851-2.3-2.851
	c0.033,0.367-0.2,1.067-0.7,2.101L7.6,21.8c-0.233-0.434-0.367-0.983-0.4-1.649V20.1c0-0.866-0.083-1.433-0.25-1.699
	C6.383,18.6,5.583,18.667,4.55,18.6c-0.633-0.066-1.583-0.25-2.85-0.55l0.6-0.3c0.9-0.434,1.7-0.634,2.4-0.6l-3.1-1.2L1.35,15.85
	c-1.567-0.767-1.75-1.266-0.55-1.5c0.3-0.067,1.017-0.05,2.15,0.05l0.85,0.1l-1.05-1.2C2.117,12.467,1.533,11.417,1,10.15l-0.7-2
	C1.733,8.25,3.15,9,4.55,10.4l2.35,2.35L6.7,12.4c-0.4-0.7-0.65-1.566-0.75-2.6l0.1-4.2c1.3,0.8,2.35,2.433,3.15,4.9l0.55,1.95
	L9.8,12.1c0.267-1.633,1.184-3.833,2.75-6.6c0.333,0.4,0.434,1.033,0.3,1.9l-0.3,0.95c-0.533,1.6-0.783,2.6-0.75,3L13.45,8.3z
	 M15.1,11.5c1.1-0.867,2.467-1.65,4.1-2.35c0,0.6-0.684,1.283-2.05,2.05c-0.767,0.4-1.45,0.8-2.05,1.2l0.15-0.2l-0.4,0.4
	c-0.067,0-0.117,0.033-0.15,0.1h-0.05c-0.4,0.267-0.783,0.35-1.15,0.25C13.967,12.45,14.5,11.967,15.1,11.5z M14.35,15.45
	c-0.533-0.167-1.167-0.3-1.9-0.4c0.367-0.5,1.083-0.9,2.15-1.2l2.45-0.65c-0.667-0.1-1.566-0.083-2.7,0.05l0.3-0.3l1.75-0.55
	c0.5-0.133,1.25-0.267,2.25-0.4c0.767-0.167,1.483-0.25,2.15-0.25c-0.2,0.6-0.8,1.15-1.8,1.65l-1.15,0.45
	c-1.4,0.467-2.75,0.75-4.05,0.85l3.15,0.45L18,15.4c0.667,0.199,1.2,0.449,1.6,0.75c-0.5,0.1-1.5-0.017-3-0.351l-0.2-0.05
	c-0.733-0.2-1.4-0.3-2-0.3H14.35z"/>
<path style="fill-rule:evenodd;clip-rule:evenodd;fill:#8A443D;" d="M74.55,24.55l0.45-0.1h0.05l0.4-0.101
	c0.5-0.033,0.8-0.216,0.899-0.55l0.301-0.25c0.199-0.2,0.3-0.434,0.3-0.7L76.35,22.95c-0.1-0.5-0.583-0.9-1.449-1.2
	c-0.301-0.134-0.617-0.2-0.95-0.2c0-0.1-0.033-0.149-0.101-0.149L73.8,21.55c-0.267-0.033-0.517,0-0.75,0.101
	c-0.2-0.233-0.416-0.334-0.649-0.301c0,0.233,0.066,0.617,0.199,1.15l-0.05,0.25l-0.35,0.3c0.1-1-0.05-1.55-0.45-1.649
	c-0.1-0.067-0.25,0.05-0.45,0.35c-0.133,0.233-0.283,0.25-0.45,0.05l-3.8-4.45c0.566,0.4,1.5,1.2,2.8,2.4
	c0.667,0.634,1.101,0.917,1.301,0.85c0.433-0.1,0.55-0.566,0.35-1.399l-0.45-1.7c0.233,0.066,0.634,0.333,1.2,0.8L73,19.45
	c0.4,0.566,0.65,0.883,0.75,0.95c0.467,0.1,0.816-0.2,1.05-0.9l0.7-1.65L75,20.4c-0.1,1.166,0.217,1.699,0.95,1.6l1.3-3.2
	c0.366,1.267,0.583,2.134,0.65,2.601c0.199,1.1,0.133,1.966-0.2,2.6c0.467-0.3,0.783-0.55,0.95-0.75c-0.101,0.366-0.5,0.75-1.2,1.15
	c-0.634,0.366-1.15,0.55-1.55,0.55l0.699-0.7c-0.199-0.066-0.55,0-1.05,0.2c-0.366,0.166-0.717,0.25-1.05,0.25L74.55,24.55z
	 M46.25,8.1c1.233-1.067,2.3-1.7,3.2-1.9c-0.167,0.333-0.667,0.816-1.5,1.45c-0.733,0.6-1.2,1.167-1.4,1.7l1.45-1
	c-0.333,0.733-0.5,1.233-0.5,1.5c0.3-0.067,0.85-0.333,1.65-0.8c-0.101,0.3-0.801,0.9-2.101,1.8c-1.066,0.767-1.55,1.35-1.45,1.75
	l2.65-0.95c-0.5,0.567-1.167,1.1-2,1.6c0.267,0.633,1.184,1,2.75,1.1l3.35,0.05c-1,0.467-2.3,0.75-3.899,0.85
	c-1.5,0-2.8-0.2-3.9-0.6l-0.8-0.6c-0.033-0.1-0.134-0.15-0.3-0.15l0.05-0.05l0.35,0.1c0.467,0.367,1.233,0.617,2.301,0.75
	c-0.7-0.233-1.15-0.417-1.351-0.55c0.167-0.333,0.25-0.683,0.25-1.05h0.101l0.05-0.4l-0.05-0.25l0.1-0.1l-0.1,0.05
	c-0.067-0.267-0.134-0.433-0.2-0.5l0.25-0.4l0.8-0.8l-1.35,0.85c-0.167-0.167-0.367-0.25-0.601-0.25H44l0.3-0.55
	c0.3-0.4,0.4-0.717,0.3-0.95l-0.85,1.1c-0.134-0.3-0.25-0.717-0.35-1.25l-0.45,1.4l-0.4-0.9C42.35,9.783,42.1,9.6,41.8,9.6
	c0.367,0.533,0.334,0.85-0.1,0.95c-0.566,0-0.983,0.05-1.25,0.15c0,0.633,0.083,1.05,0.25,1.25l1.3,1.1
	c-0.333-0.033-0.684,0.05-1.05,0.25c-0.034-0.6-0.3-0.8-0.8-0.6l-0.2-0.8c-0.3,0.033-0.534,0.117-0.7,0.25
	c0.067-0.467-0.15-0.75-0.65-0.85l-1.2-0.4c0.233-0.1,0.567-0.117,1-0.05c0.133,0,0.5,0.066,1.1,0.2l-0.6-1.7l1.4,0.55l-0.15-0.75
	L39.9,8.4L41.4,9c0.1-0.3,0.1-0.817,0-1.55l1.25,1.85c0.233-1.566,0.3-2.783,0.199-3.65L43.15,6.9c0.133,0.4,0.316,0.783,0.55,1.15
	l0.8-2.2c0.1,0.433,0.1,1.1,0,2c-0.066,0.667-0.1,1.35-0.1,2.05c0.5-0.6,1.083-1.167,1.75-1.7L46.25,8.1z M13.5,12.7l-0.05,0.25
	h0.05c0.367,0.1,0.75,0.017,1.15-0.25h0.05c0.033-0.067,0.083-0.1,0.15-0.1l0.4-0.4l-0.6,0.75l-0.3,0.3
	c1.133-0.133,2.033-0.15,2.7-0.05l-2.45,0.65c-1.067,0.3-1.783,0.7-2.15,1.2c0.733,0.101,1.367,0.233,1.9,0.4h-0.1
	c-0.467-0.101-0.933-0.134-1.4-0.101c-0.7,0.034-1.067,0.25-1.1,0.65c0,0.434,0.5,0.967,1.5,1.6c1.167,0.7,1.8,1.134,1.9,1.301
	c-1.233-0.134-1.917-0.217-2.05-0.25c-0.3-0.034-0.733-0.2-1.3-0.5c-0.566-0.334-0.983-0.5-1.25-0.5
	c-0.133,0.533-0.1,1.183,0.1,1.949l-0.8-1.05C9.583,18.116,9.4,17.7,9.3,17.3c-0.1,0-0.283,0.066-0.55,0.2l-0.6,0.3l0.3-0.8
	c-1.034,0.2-1.55-0.083-1.55-0.85L7.4,16c-0.367-0.3-0.667-0.517-0.9-0.65c-0.067-0.033-0.4-0.116-1-0.25
	c-0.267-0.066-0.617-0.183-1.05-0.35c0.066,0,0.35-0.017,0.85-0.05c0.3,0,0.55-0.067,0.75-0.2c-0.333-0.233-0.617-0.567-0.85-1
	c-0.2-0.667-0.383-1.05-0.55-1.15c0.467,0.066,1.033,0.333,1.7,0.8c0.733,0.467,1.267,0.7,1.6,0.7c0.1-0.233,0.1-0.583,0-1.05
	L7.7,11.7c-0.1-1.367-0.217-2.284-0.35-2.75L8.25,11c0.1,0.067,0.3,0.417,0.6,1.05c0.233,0.434,0.533,0.7,0.9,0.8
	c0.333-0.567,0.75-1.45,1.25-2.65l-0.15,1.6c0,0.833,0.183,1.25,0.55,1.25c0.533-0.066,1.1-0.7,1.7-1.9L14.05,9
	C13.85,9.5,13.667,10.733,13.5,12.7z M10.7,15.75l0.1-0.2l0.5-0.399L10.85,15.1v-0.25l1-0.85c0.566-0.467,0.883-0.817,0.95-1.05
	c-1.1,0.333-1.783,0.517-2.05,0.55l0.15-0.85c-0.7,0.7-1.15,1.25-1.35,1.65l-0.4-0.6L9,14.3l-0.6-0.05L8.2,14.9l-0.75-0.2
	c0,0.434,0.216,0.833,0.65,1.2l-0.5,0.35l1.3,0.35c0.1,0,0.233,0.084,0.4,0.25c0.167,0.067,0.3-0.066,0.4-0.399
	c0.267,0,0.55,0.1,0.85,0.3c0.4,0.2,0.684,0.3,0.85,0.3C11.367,16.616,11.133,16.184,10.7,15.75z"/>
<path style="fill-rule:evenodd;clip-rule:evenodd;fill:#542A26;" d="M73.05,21.65L72.6,22v0.5c-0.133-0.533-0.199-0.917-0.199-1.15
	C72.634,21.316,72.85,21.417,73.05,21.65z M73.95,21.55c-0.033-0.033-0.084-0.033-0.15,0l0.05-0.149
	C73.917,21.4,73.95,21.45,73.95,21.55z M76.35,23.8l0.051-0.35l-0.051-0.5l0.601-0.101c0,0.267-0.101,0.5-0.3,0.7L76.35,23.8z
	 M43.45,13.9l-0.15,0.6c-0.133-0.3-0.333-0.55-0.6-0.75c-0.334-0.1-0.55-0.3-0.65-0.6L42,13.05l-1.3-1.1
	c-0.167-0.2-0.25-0.617-0.25-1.25c0.267-0.1,0.684-0.15,1.25-0.15c0.434-0.1,0.467-0.417,0.1-0.95c0.3,0,0.55,0.183,0.75,0.55
	l0.4,0.9l0.45-1.4c0.1,0.533,0.216,0.95,0.35,1.25l0.85-1.1c0.101,0.233,0,0.55-0.3,0.95L44,11.3l-0.35,0.05
	C42.816,10.883,42,10.9,41.2,11.4c0.133,0.434,0.383,0.9,0.75,1.4c0.366,0.434,0.8,0.767,1.3,1l0.25,0.05L43.45,13.9z M44.95,11.9
	l-0.3-0.35L46,10.7l-0.8,0.8L44.95,11.9z M43.85,13.95l0.9,0.25l0.05-0.05c0.2,0.133,0.65,0.317,1.351,0.55
	C45.083,14.567,44.316,14.317,43.85,13.95z M10.65,14.65V14.6c-0.4-0.167-0.816-0.15-1.25,0.05c-0.433,0.067-0.767,0.233-1,0.5
	L8.25,15.8V15.9L8.2,15.95L8.25,16c0.067,0.366,0.45,0.517,1.15,0.45c0.667-0.033,1.1-0.267,1.3-0.7
	c0.433,0.434,0.667,0.866,0.7,1.3c-0.167,0-0.45-0.1-0.85-0.3c-0.3-0.2-0.583-0.3-0.85-0.3c-0.1,0.333-0.233,0.467-0.4,0.399
	C9.133,16.684,9,16.6,8.9,16.6l-1.3-0.35l0.5-0.35c-0.434-0.367-0.65-0.767-0.65-1.2l0.75,0.2l0.2-0.65L9,14.3l0.15-0.6l0.4,0.6
	c0.2-0.4,0.65-0.95,1.35-1.65l-0.15,0.85c0.267-0.033,0.95-0.217,2.05-0.55c-0.066,0.233-0.383,0.583-0.95,1.05l-1,0.85
	c0-0.1-0.033-0.15-0.1-0.15L10.65,14.65z M10.8,15.55V15.4l0.05-0.301l0.45,0.051L10.8,15.55z"/>
<path style="fill-rule:evenodd;clip-rule:evenodd;fill:#C09756;" d="M76.35,22.95l0.051,0.5L76.35,23.8
	c-0.1,0.334-0.399,0.517-0.899,0.55H75.1c0.101-0.133,0.15-0.3,0.15-0.5l-0.4-0.1c-0.066-0.066-0.166-0.1-0.3-0.1l-0.8-0.351
	c-0.5-0.3-0.7-0.666-0.6-1.1l-0.301-0.3c-0.133,0.333-0.199,0.6-0.199,0.8l0.149,0.7L72.7,23.3l-0.15-0.149V22.9v-0.15l0.05-0.25V22
	l0.45-0.35c0.233-0.101,0.483-0.134,0.75-0.101c0.066-0.033,0.117-0.033,0.15,0c0.333,0,0.649,0.066,0.95,0.2
	C75.767,22.05,76.25,22.45,76.35,22.95z M44.8,14.15l-0.05,0.05l-0.9-0.25l-0.35-0.1l-0.25-0.05c-0.5-0.233-0.934-0.566-1.3-1
	c-0.367-0.5-0.617-0.966-0.75-1.4c0.8-0.5,1.616-0.517,2.45-0.05c-0.267,0-0.767,0.167-1.5,0.5c0.366,0.367,0.833,0.683,1.399,0.95
	c0.601,0.2,1.101,0.3,1.5,0.3C45.05,13.467,44.967,13.817,44.8,14.15z M8.25,15.9V15.8L8.4,15.15c0.233-0.267,0.567-0.434,1-0.5
	l-0.45,0.3L8.25,15.9z M10.8,15.55l-0.1,0.2c-0.2,0.434-0.633,0.667-1.3,0.7C8.7,16.517,8.317,16.366,8.25,16
	c0.367,0.1,0.85-0.017,1.45-0.35c0.566-0.334,0.883-0.667,0.95-1l0.1,0.05c0.067,0,0.1,0.05,0.1,0.15v0.25L10.8,15.4V15.55z"/>
<path style="fill-rule:evenodd;clip-rule:evenodd;fill:#906D3F;" d="M75.1,24.35L75,24.45l-0.45,0.1
	c-0.267-0.066-0.55-0.184-0.85-0.35L73.6,24.15l-0.35-0.25l-0.4-0.4l-0.05-0.1l-0.149-0.7c0-0.2,0.066-0.467,0.199-0.8l0.301,0.3
	c-0.101,0.434,0.1,0.8,0.6,1.1l0.8,0.351c0.134,0,0.233,0.033,0.3,0.1l0.4,0.1C75.25,24.05,75.2,24.217,75.1,24.35z M45.15,12.4
	v0.05l0.05,0.25l-0.05,0.4H45.05c-0.399,0-0.899-0.1-1.5-0.3c-0.566-0.267-1.033-0.583-1.399-0.95c0.733-0.333,1.233-0.5,1.5-0.5
	L44,11.3h0.05c0.233,0,0.434,0.083,0.601,0.25l0.3,0.35C45.017,11.967,45.083,12.133,45.15,12.4z M9.4,14.65
	c0.434-0.2,0.85-0.217,1.25-0.05v0.05c-0.066,0.333-0.383,0.667-0.95,1C9.1,15.983,8.617,16.1,8.25,16L8.2,15.95l0.05-0.05l0.7-0.95
	L9.4,14.65z"/>
</svg>
