<?xml version="1.0" encoding="iso-8859-1"?>
<!-- Generator: Adobe Illustrator 15.1.0, SVG Export Plug-In . SVG Version: 6.00 Build 0)  -->
<!DOCTYPE svg PUBLIC "-//W3C//DTD SVG 1.1//EN" "http://www.w3.org/Graphics/SVG/1.1/DTD/svg11.dtd">
<svg version="1.1" id="FlashAICB" xmlns="http://www.w3.org/2000/svg" xmlns:xlink="http://www.w3.org/1999/xlink" x="0px" y="0px"
	 width="104.9px" height="147.95px" viewBox="0 0 104.9 147.95" style="enable-background:new 0 0 104.9 147.95;"
	 xml:space="preserve">
<path style="fill-rule:evenodd;clip-rule:evenodd;fill:#3C2D08;" d="M52,21.3l0.55,2.15c-0.083-0.2-0.166-0.4-0.25-0.6l-0.25-0.65
	l-2.6-9.2c0-0.067,0-0.117,0-0.15c-0.034-0.067-0.05-0.133-0.05-0.2c-0.033-0.2-0.066-0.4-0.1-0.6c-0.033-0.066-0.05-0.133-0.05-0.2
	c-0.033-0.1-0.05-0.184-0.05-0.25c-0.034-0.1-0.05-0.184-0.05-0.25c-0.033-0.2-0.066-0.4-0.1-0.6c-0.033-0.1-0.05-0.2-0.05-0.3
	c-0.067-0.333-0.117-0.65-0.15-0.95l-0.1,0.9c-0.367,2.633-0.933,5.434-1.7,8.4l-0.2,0.65c-0.067,0.2-0.133,0.417-0.2,0.65
	c-0.267,0.933-0.55,1.867-0.85,2.8l-6.2,13.35c-4.367,6.9-7.25,13-8.65,18.3c-0.767,2.833-1.233,5.817-1.4,8.95l-2.2-0.25
	c-0.5,0.2-0.917,0.483-1.25,0.85c0.033-1.934,0.133-3.8,0.3-5.6c1.3,0.733,2.4,0.433,3.3-0.9c0.633-0.967,1.017-2.167,1.15-3.6
	l-1.75-1.5c-0.833-0.033-1.533,0.25-2.1,0.85c0.233-1.767,0.55-3.483,0.95-5.15c1.667-0.233,3.45-1.383,5.35-3.45
	c2.467-2.667,3.317-5,2.55-7l-4.25-1.5c0.568-0.846,1.418-1.93,2.55-3.25c0.267-0.3,0.517-0.583,0.75-0.85
	c-0.1,0.667-0.1,1.35,0,2.05c1.1,0.2,2.267-0.05,3.5-0.75c1.167-0.633,2.067-1.45,2.7-2.45l3-4.75c-0.067-1.067-0.7-1.5-1.9-1.3
	c-0.8,0.1-1.684,0.433-2.65,1c-0.066,0.033-0.133,0.083-0.2,0.15c1.066-1.7,1.9-3.3,2.5-4.8c0.4-0.333,0.733-0.533,1-0.6
	c0.2-0.034,0.55-0.017,1.05,0.05c0.467,0.067,0.8,0.067,1,0c1.033-0.367,1.783-1.217,2.25-2.55c0.167-0.534,0.383-1.684,0.65-3.45
	c0.534-3.367,0.8-7.7,0.8-13l-0.65-0.2c0.233-0.6,0.466-1.117,0.7-1.55c-0.033,1.2,0.033,2.867,0.2,5
	c0.1,1.433,0.167,2.617,0.2,3.55C49.083,9.117,49.1,9.6,49.1,10L52,21.3z M43.55,13.95c0.434-2.2,0.967-3.95,1.6-5.25
	c0.033-0.067,0.067-0.117,0.1-0.15c-0.233,0.9-0.5,1.967-0.8,3.2C44.383,11.983,44.083,12.717,43.55,13.95z M26.4,73.25
	c-0.167-1.7-0.267-2.95-0.3-3.75c-0.033-0.733-0.05-1.45-0.05-2.15c0.934,0.767,1.75,0.583,2.45-0.55c0.433-0.7,0.767-1.617,1-2.75
	c-0.1,2-0.083,4.067,0.05,6.2h-1.2C27.35,70.75,26.7,71.75,26.4,73.25z M26.85,77.65c0.233,0.399,0.566,0.699,1,0.899
	c0.167-0.233,0.6-0.633,1.3-1.2c0.533-0.466,0.867-0.866,1-1.199L30.2,76.1c0.033,0.334,0.083,0.667,0.15,1c0,0.034,0,0.084,0,0.15
	s0.017,0.15,0.05,0.25c0.133,0.8,0.317,1.616,0.55,2.45c-0.233-0.367-0.434-0.684-0.6-0.95v3.75c-0.567,0.434-0.917,1.2-1.05,2.3
	c-0.1,0.967,0,1.917,0.3,2.851c0.3,1.1,0.816,2.3,1.55,3.6c0.967,1.7,1.85,2.634,2.65,2.8c0.8,0.167,1.3-0.1,1.5-0.8
	c0.067-0.3,0.1-1.033,0.1-2.2c0-0.233,0-0.45,0-0.649c0.6,1.133,1.283,2.283,2.05,3.449c0.066,0.101,0.133,0.2,0.2,0.301
	c2.033,3.166,3.65,5.767,4.85,7.8c-0.367-0.233-0.75-0.384-1.15-0.45H41.1c-0.867-0.066-1.55-0.1-2.05-0.1
	c-0.833-0.034-1.466,0.066-1.9,0.3c-0.6,0.333-1.05,0.899-1.35,1.7c-0.4-0.834-0.8-1.551-1.2-2.15c-1.8-2.866-3.133-5.783-4-8.75
	c-0.233-0.8-0.934-2.417-2.1-4.85c-0.9-1.867-1.367-3.5-1.4-4.9C27.1,81.6,27.017,79.816,26.85,77.65z M44.1,111.45
	c0.1-0.2,0.267-0.45,0.5-0.75c0.267-0.367,0.45-0.783,0.55-1.25c0.133-0.667,0.167-1.334,0.1-2c0.1,0.3,0.217,0.616,0.35,0.95
	l1.8,6.85c0.061,0.305,0.119,0.613,0.175,0.925c0.051,0.269,0.101,0.544,0.15,0.825l0.525,3.075c0.035,0.207,0.068,0.415,0.1,0.625
	c0.033,0.133,0.066,0.283,0.1,0.45l0.05,0.399c0.2,1.4,0.383,2.717,0.55,3.95c0.133,0.967,0.233,1.884,0.3,2.75
	c0.433-2.634,0.967-5.4,1.6-8.3c-0.034,0.8-0.05,1.649-0.05,2.55c-0.033,0.333-0.033,0.733,0,1.2c-0.033,0.533-0.05,1.1-0.05,1.7
	V140.1c-0.033-0.733-0.367-1.533-1-2.399c-0.233-0.3-0.85-0.967-1.85-2c-0.767-0.834-1.267-1.533-1.5-2.101
	c-0.1-0.333-0.233-0.949-0.4-1.85c0.566,0.167,1.233,0.083,2-0.25c0.033,0.333,0.033,0.833,0,1.5c0.066,0.566,0.25,1,0.55,1.3
	c0.667-0.767,0.8-2.033,0.4-3.8c-0.5-2.3-0.733-3.634-0.7-4l-2-1c-0.267-0.9-0.767-1.4-1.5-1.5l-0.25,0.5c0,0.1,0,0.184,0,0.25
	c-0.133-0.467-0.267-0.917-0.4-1.35c0.066-0.034,0.133-0.051,0.2-0.051c1.467-0.133,2.033-0.833,1.7-2.1L45.85,120
	c-0.033,0.434-0.15,0.8-0.35,1.1c0.033-0.166,0.05-0.333,0.05-0.5c0.1-1.5-0.3-2.533-1.2-3.1l-0.75-0.25
	c-0.4,0.533-0.733,1.05-1,1.55c-0.4-0.967-0.817-1.916-1.25-2.85c-0.033-0.134-0.083-0.267-0.15-0.4
	c0.433,0.167,0.833,0.233,1.2,0.2c0.3-0.033,0.567-0.116,0.8-0.25c0.767-0.233,1.15-0.9,1.15-2l0.25-2.75
	C44.433,111.017,44.267,111.25,44.1,111.45z"/>
<path style="fill-rule:evenodd;clip-rule:evenodd;fill:#31250C;" d="M47.65,116.5c-0.025-0.108-0.05-0.216-0.075-0.325
	c-0.056-0.312-0.114-0.62-0.175-0.925l-1.8-6.85c-0.133-0.334-0.25-0.65-0.35-0.95c-0.033-0.134-0.067-0.25-0.1-0.351L45.1,107
	c-0.3-0.8-1.167-2.4-2.6-4.8c-1.2-2.033-2.817-4.634-4.85-7.8c-0.066-0.101-0.133-0.2-0.2-0.301c-0.767-1.166-1.45-2.316-2.05-3.449
	c-0.1-0.134-0.167-0.25-0.2-0.351c-0.4-0.7-0.767-1.383-1.1-2.05c-0.133-0.3-0.267-0.583-0.4-0.85c-0.267-0.534-0.5-1.051-0.7-1.551
	c-0.9-2.033-1.583-4-2.05-5.899c-0.233-0.834-0.417-1.65-0.55-2.45c-0.033-0.1-0.05-0.184-0.05-0.25s0-0.116,0-0.15
	c-0.067-0.333-0.117-0.666-0.15-1c-0.333-2-0.55-3.95-0.65-5.85c-0.133-2.133-0.15-4.2-0.05-6.2c0-0.167,0.017-0.35,0.05-0.55
	c0.167-3.133,0.633-6.117,1.4-8.95c1.4-5.3,4.283-11.4,8.65-18.3l6.2-13.35c0.3-0.933,0.583-1.867,0.85-2.8
	c0.067,0.3,0.117,0.6,0.15,0.9l0.7,5.05c0.167,2.133,0.133,4.2-0.1,6.2c-0.167,1.467-1.117,3.267-2.85,5.4
	c-0.233,0.3-0.833,0.95-1.8,1.95c-0.8,0.8-1.367,1.5-1.7,2.1c-0.167,0.3-0.45,1-0.85,2.1c-0.333,0.9-0.667,1.567-1,2
	c-0.167,0.2-0.583,0.617-1.25,1.25c-0.534,0.5-0.917,0.967-1.15,1.4c-0.7,1.367-1.367,3.667-2,6.9c-0.6,3-0.917,5.383-0.95,7.15
	c0,3.567,0.233,6.85,0.7,9.85c0.367,2.266,1.083,5.5,2.15,9.7c1.333,5.334,3.267,10.084,5.8,14.25c0.4,0.667,0.933,1.733,1.6,3.2
	c0.667,1.4,1.233,2.483,1.7,3.25c1.133,1.733,1.817,3.566,2.05,5.5c0.3,2.033,0.467,3.434,0.5,4.2
	C48.45,114.45,48.217,115.8,47.65,116.5z M56.7,19.2h-0.05c-0.034,0-0.051,0.017-0.051,0.05c-0.366,0.1-0.833,0.05-1.399-0.15
	c-0.101-0.067-0.2-0.117-0.3-0.15c-0.7-0.267-1.284-0.267-1.75,0c0-0.5,0.183-0.967,0.55-1.4c0.5-0.466,0.866-0.833,1.1-1.1
	c0.066-0.067,0.134-0.133,0.2-0.2c0.434-0.467,0.866-1.033,1.3-1.7c0.733-1.2,1.167-1.883,1.3-2.05h0.5
	c0.067,1.9,0.084,3.083,0.051,3.55C57.983,17.783,57.5,18.833,56.7,19.2z M61.9,24.85c-0.034,0.033-0.051,0.066-0.051,0.1
	c-1.633,0.1-2.716,0.267-3.25,0.5c-0.133,0.066-0.25,0.133-0.35,0.2c-0.733,0.5-1.2,1.333-1.4,2.5c0.067-1.933,0.134-3.033,0.2-3.3
	c0.167-0.633,0.434-1.083,0.8-1.35c0.4-0.267,0.9-0.35,1.5-0.25h1.5C61.75,23.383,62.1,23.917,61.9,24.85z M72.05,44.15
	c-0.133,0.2-0.267,0.417-0.399,0.65c-0.134,0.233-0.284,0.45-0.45,0.65c-0.934,1.1-2.066,1.15-3.4,0.15
	c-0.233-0.167-0.483-0.383-0.75-0.65c0.167-0.367,0.75-0.833,1.75-1.4c0.7-0.433,0.967-1.2,0.8-2.3L69.9,41l0.699-0.75
	C72.3,41.15,72.783,42.45,72.05,44.15z M74.9,67.95c-0.101-0.3-0.184-0.55-0.25-0.75c-0.5-1.133-1.084-1.75-1.75-1.85
	c-1.034,0.1-1.967,0.133-2.801,0.1c-0.133-1.633,0.217-3.517,1.051-5.65c0.833-2.167,1.85-2.933,3.05-2.3
	c0.2,0.133,0.416,0.3,0.649,0.5l0.25,0.5c2.034,5.6,2.134,9.583,0.301,11.95C75.233,69.383,75.066,68.55,74.9,67.95z M60.85,121.75
	c-0.166,1.7-0.233,2.767-0.199,3.2c-0.434-0.867-0.784-1.601-1.051-2.2c-0.166-0.4-0.3-0.733-0.399-1
	c-0.533,0.866-1.15,1.35-1.851,1.45c-0.399-0.566-0.6-1.4-0.6-2.5c0.1-1.233,0.134-2.134,0.1-2.7H56.2
	c0.467-0.2,0.899-1.417,1.3-3.65c0.3-1.899,1.167-2.683,2.6-2.35l0.75-0.75c0.233,0.467,0.4,1.033,0.5,1.7c0.2,1.166,0.2,2.7,0,4.6
	c-0.033,0.134-0.05,0.267-0.05,0.4C61.1,119.45,60.95,120.717,60.85,121.75z M65.95,107.05c-0.434,0.167-0.934,0.434-1.5,0.8
	c-0.167,0.101-0.334,0.217-0.5,0.351c-0.667,0.366-1.184,0.649-1.55,0.85c-0.2,0.066-0.367,0.117-0.5,0.15
	c0.033-0.4,0.183-0.851,0.449-1.351c0.4-0.699,0.634-1.149,0.7-1.35c0.3-0.3,0.5-0.55,0.601-0.75c0.033-0.134-0.034-0.384-0.2-0.75
	c-0.134-0.366-0.15-0.634-0.05-0.8c0.199-0.334,0.899-0.634,2.1-0.9c1-0.2,1.533-0.7,1.6-1.5c-0.466-0.3-0.933-0.899-1.399-1.8
	c-0.3-0.634-0.584-1.134-0.851-1.5c-0.133-0.2-0.267-0.35-0.399-0.45c0.434-0.3,1.3-0.45,2.6-0.45c0.4,0,0.767-0.033,1.101-0.1
	c0.699-0.1,1.199-0.283,1.5-0.55C69.884,96.717,70.1,96.4,70.3,96c0.134-0.3,0.25-0.634,0.351-1c0.233-0.967,0.416-1.65,0.55-2.05
	c0.333-0.4,0.934-1,1.8-1.8c0.1-0.101,0.2-0.184,0.3-0.25c0.8-0.834,1.05-1.717,0.75-2.65c-1.767,0.134-3.05-0.267-3.85-1.2
	c-0.033-0.033-0.066-0.066-0.101-0.1c0.4-0.167,0.9-0.316,1.5-0.45c0.534-0.134,1.15-0.267,1.851-0.4
	c0.133-0.033,0.267-0.066,0.399-0.1c1-0.4,1.733-1.1,2.2-2.1c0.5-1,0.65-3.233,0.45-6.7c-0.2-3.066,0.25-5.05,1.35-5.95l1.5-4.75
	c-0.267,1.633-0.233,4.85,0.101,9.65c0.333,4.1,0.066,7.25-0.8,9.449c-0.7,1.801-1.134,3.851-1.301,6.15
	c-0.1,1.366-0.166,3.533-0.199,6.5c-0.034,0.667,0,2.3,0.1,4.9c0.033,2.399-0.184,3.916-0.65,4.55
	c-0.533-0.834-0.933-1.983-1.199-3.45c-0.233-1.634-0.45-2.833-0.65-3.6c-0.6,0.233-1.05,0.416-1.35,0.55
	c-0.567,0.233-0.983,0.483-1.25,0.75c-0.4,0.434-0.634,1.149-0.7,2.149c-0.066,1.2-0.167,1.967-0.3,2.301
	c-0.367,0.8-0.733,1.267-1.101,1.399c-0.267,0.101-0.833,0.05-1.7-0.149c-0.199-0.067-0.416-0.233-0.649-0.5
	c-0.167-0.233-0.45-0.351-0.851-0.351C66.616,106.8,66.316,106.884,65.95,107.05z M54.25,134.25c-0.066-0.267-0.184-0.5-0.35-0.7
	c0.899-0.467,1.383-0.934,1.449-1.399c-0.066-0.767-0.05-1.534,0.051-2.301c0.133-0.833,0.483-1.583,1.05-2.25
	c0.233-0.267,0.467-0.466,0.7-0.6c0.466-0.3,0.949-0.3,1.449,0l1.75-0.5c1,0.934,1.351,2.267,1.051,4
	c-0.334,1.8-1.25,2.634-2.75,2.5c0,0.467,0.017,1.316,0.05,2.55c-0.134,1-0.667,1.384-1.601,1.15
	c-0.133,0.566-0.399,2.616-0.8,6.149c-0.5,3.233-1.217,4.917-2.149,5.051c-0.467,0.066-0.733,0.05-0.801-0.051
	c0-0.267-0.083-0.566-0.25-0.899c-0.199-0.434-0.35-1.351-0.449-2.75c-0.134-1.4-0.134-2.367,0-2.9c0.033-0.133,0.233-0.333,0.6-0.6
	c0.333-0.267,0.55-0.5,0.65-0.7c0.066-0.2,0.066-0.483,0-0.85c-0.034-0.467-0.051-0.767-0.051-0.9c0.267-1.033,0.434-1.816,0.5-2.35
	C54.45,135.3,54.417,134.75,54.25,134.25z M44.5,128c1.567,0.267,2.183-0.566,1.85-2.5l2,1c-0.033,0.366,0.2,1.7,0.7,4
	c0.4,1.767,0.267,3.033-0.4,3.8c-0.3-0.3-0.483-0.733-0.55-1.3c0.033-0.667,0.033-1.167,0-1.5c-0.767,0.333-1.434,0.417-2,0.25
	c-0.4-0.1-0.75-0.316-1.05-0.65c-0.667-0.733-0.867-1.767-0.6-3.1H44.5z M42.65,122.6c-0.033-0.233-0.017-0.517,0.05-0.85
	c0.833,0.267,1.533,0.25,2.1-0.05c0.3-0.134,0.534-0.334,0.7-0.601c0.2-0.3,0.317-0.666,0.35-1.1l0.25,1.25
	c0.333,1.267-0.233,1.967-1.7,2.1c-0.066,0-0.133,0.017-0.2,0.051C43.267,123.434,42.75,123.167,42.65,122.6z M43.2,115.5
	c-0.367,0.066-0.784,0.066-1.25,0c-0.7-0.1-1.3-0.283-1.8-0.55c-0.333-0.267-0.683-0.601-1.05-1c-0.133-0.167-0.233-0.334-0.3-0.5
	c0.2-0.101,1.217-0.367,3.05-0.8c0.933-0.2,1.683-0.601,2.25-1.2c0.167-0.2,0.333-0.434,0.5-0.7l-0.25,2.75
	C44.35,114.6,43.967,115.267,43.2,115.5z M64.3,31.95c0.834,0.133,1.351,0.4,1.55,0.8l0.25,0.75
	c-1.233,0.067-2.283,0.083-3.149,0.05c-1.667-0.033-2.434-0.316-2.3-0.85c0.066-0.3,0.3-0.517,0.699-0.65
	c0.4-0.167,1-0.233,1.801-0.2C63.583,31.85,63.967,31.883,64.3,31.95z"/>
<path style="fill-rule:evenodd;clip-rule:evenodd;fill:#261C09;" d="M52.55,23.45c0.2,0.466,0.4,0.933,0.601,1.4
	c-0.306-0.66-0.589-1.327-0.851-2C52.384,23.05,52.467,23.25,52.55,23.45z M47.725,117c-0.049-0.281-0.099-0.557-0.15-0.825
	c0.025,0.109,0.05,0.217,0.075,0.325L47.725,117z M48.35,120.6l0.1,0.551c-0.034-0.167-0.067-0.317-0.1-0.45
	c-0.032-0.21-0.065-0.418-0.1-0.625L48.35,120.6z M54,107.85c-0.134,0.4-0.267,0.817-0.4,1.25c-0.066-2.066-0.333-4.517-0.8-7.35
	c-0.533-3.267-0.933-5.717-1.2-7.35l0.05,1.55c-0.066-1.167-0.283-2.783-0.65-4.851c-0.4-2.267-0.65-3.866-0.75-4.8l0.4,1.75
	c0.033-5.133,0.017-8.983-0.05-11.55c0.267,0.866,0.5,2.2,0.7,4c0.233-1.934,0.4-3.4,0.5-4.4c0.133-1.733,0.15-3.216,0.05-4.45
	c0.133,0.7,0.333,1.783,0.6,3.25c0.3,1.233,0.633,2.25,1,3.05c0.2-1.334,0.333-3.167,0.399-5.5c0.101-2.6,0.2-4.417,0.301-5.45
	c0.199,0.8,0.366,1.867,0.5,3.2c0.133,1.667,0.233,2.75,0.3,3.25c0.2-0.967,0.333-2.784,0.399-5.45
	c0.067-2.333,0.351-4.167,0.851-5.5c0.5,0.267,0.717,1.417,0.649,3.45c-0.033,1.066-0.1,2.417-0.199,4.05
	c0.5-0.633,0.833-1.65,1-3.05c0.233-1.833,0.399-2.917,0.5-3.25c-0.067,1.667-0.067,2.917,0,3.75c0.333-0.333,0.683-0.9,1.05-1.7
	c0.467-1,0.783-1.633,0.95-1.9c0,0.4-0.034,1.083-0.101,2.05c-0.033,0.867,0.066,1.483,0.3,1.85c0.167-0.233,0.601-1,1.301-2.3
	c0.5-0.967,1-1.65,1.5-2.05c0.033,0.867,0.017,2.4-0.051,4.6c-0.033,1.933-0.017,3.45,0.051,4.55c1.066-0.533,1.583-2.2,1.55-5
	c-0.066-3.533,0-5.583,0.2-6.15c-0.067,1.133,0.116,2.417,0.55,3.85l0.5-0.8c0.3,0.566,0.684,1.5,1.149,2.8
	c0.5,1.033,1.167,1.6,2,1.7c0.034,2.833-0.183,5.566-0.649,8.2c-0.4,2.267-0.983,4.449-1.75,6.55c-0.7,1.967-1.783,4.2-3.25,6.7
	c-1.134,1.833-2.45,3.816-3.95,5.949c-0.467,0.634-0.934,1.267-1.4,1.9c-0.966,1.3-1.916,3.25-2.85,5.85
	C54.816,105.233,54.4,106.483,54,107.85z M49.05,125.5c0.767-2.3,1.15-4.917,1.15-7.85l1.95-3.101c-0.101,0.4-0.2,0.816-0.3,1.25
	c-0.033,0.2-0.067,0.4-0.1,0.601c-0.167,0.566-0.3,1.133-0.4,1.699c-0.167,0.601-0.3,1.217-0.4,1.851
	c-0.633,2.899-1.167,5.666-1.6,8.3C49.283,127.384,49.183,126.467,49.05,125.5z"/>
<path style="fill-rule:evenodd;clip-rule:evenodd;fill:#46340F;" d="M57.05,32.25c-0.1-0.167-0.2-0.333-0.3-0.5
	c-0.434-0.7-0.85-1.4-1.25-2.1l-2.35-4.8c-0.2-0.467-0.4-0.934-0.601-1.4L52,21.3c0-0.933,0.05-1.566,0.15-1.9
	c0.1-0.566,0.383-1.25,0.85-2.05c0.467-0.9,0.767-1.6,0.9-2.1c0-0.033,0.017-0.067,0.05-0.1c0.399,0.4,0.75,0.767,1.05,1.1
	c-0.066,0.067-0.134,0.133-0.2,0.2c-0.233,0.267-0.6,0.633-1.1,1.1c-0.367,0.434-0.55,0.9-0.55,1.4c0.466-0.267,1.05-0.267,1.75,0
	c0.1,0.033,0.199,0.083,0.3,0.15c-0.233,0.1-0.483,0.283-0.75,0.55c-0.967,1-1.25,2.05-0.851,3.15c0.434,1.167,1.233,1.45,2.4,0.85
	c0.6-0.333,1.134-0.583,1.6-0.75c0.067,0.2,0.15,0.4,0.25,0.6c-0.366,0.267-0.633,0.717-0.8,1.35c-0.066,0.267-0.133,1.367-0.2,3.3
	c0.2-1.167,0.667-2,1.4-2.5c-0.9,0.934-1.366,2.383-1.4,4.35C56.85,30.833,56.917,31.583,57.05,32.25z M65.55,48.6
	c-0.6-1.767-1.267-3.483-2-5.15c0.101,0.1,0.217,0.183,0.351,0.25c0.866,0.466,1.85,0.55,2.949,0.25c1.067-0.333,1.75-0.9,2.051-1.7
	c0.233-0.7,0.333-1.5,0.3-2.4c0.233,0.367,0.467,0.75,0.7,1.15L69.6,41.25c0.167,1.1-0.1,1.867-0.8,2.3
	c-1,0.567-1.583,1.034-1.75,1.4c0.267,0.267,0.517,0.483,0.75,0.65c-0.133,0.066-0.25,0.15-0.35,0.25
	C66.517,46.583,65.884,47.5,65.55,48.6z M68.15,58.9c0.199,0.467,0.433,0.817,0.699,1.05c0.233-0.333,0.384-1.034,0.45-2.1
	c0.101-1,0.3-1.633,0.601-1.9c0.5-0.434,1.033-0.5,1.6-0.2c0.8,0.467,1.333,0.7,1.6,0.7c0.167-2.5,0.25-4.267,0.25-5.3
	c-0.066-2-0.399-3.717-1-5.15l-1-0.5c-0.033-0.033-0.083-0.05-0.149-0.05c0.166-0.2,0.316-0.417,0.45-0.65
	c0.133-0.233,0.267-0.45,0.399-0.65c0.667,0.967,1.101,1.883,1.3,2.75c0.167,0.633,0.25,1.75,0.25,3.35c0,1.433,0.2,3.85,0.601,7.25
	c-1.2-0.633-2.217,0.133-3.05,2.3c-0.834,2.133-1.184,4.017-1.051,5.65c0.834,0.033,1.767,0,2.801-0.1
	c0.666,0.1,1.25,0.717,1.75,1.85c0.066,0.2,0.149,0.45,0.25,0.75c-0.034,0.233-0.051,0.483-0.051,0.75
	c-0.033,0.633,0.101,1.9,0.4,3.8c0.233,1.6,0.25,2.884,0.05,3.85c-0.033,0.233-0.149,0.551-0.35,0.95c0.467-1.866,0.55-3.5,0.25-4.9
	c-0.767-3.233-1.634-5.2-2.601-5.9c-0.566-0.4-1.233-0.6-2-0.6c-0.899-0.033-1.316,0.333-1.25,1.1l-0.25-0.1
	c-0.066-0.633-0.116-1.283-0.149-1.95L68.15,58.9z M56.75,19.35c-0.066-0.033-0.116-0.067-0.15-0.1c0-0.033,0.017-0.05,0.051-0.05
	h0.05C56.733,19.233,56.75,19.283,56.75,19.35z M58.7,34.9c0.133-0.8,0.25-1.367,0.35-1.7c0.134-0.633,0.566-1.034,1.3-1.2
	c0.233-0.067,0.567-0.05,1,0.05c-0.399,0.133-0.633,0.35-0.699,0.65c-0.134,0.533,0.633,0.816,2.3,0.85
	c0.866,0.034,1.916,0.017,3.149-0.05l-0.25-0.75c-0.199-0.4-0.716-0.667-1.55-0.8c0.134-0.2,0.25-0.483,0.351-0.85
	c0.233,0.333,0.483,0.6,0.75,0.8c0.233-0.433,0.383-0.783,0.449-1.05c0,0.9,0.184,1.917,0.551,3.05c-0.834-0.433-1.75-0.433-2.75,0
	c-1.067,0.467-1.801,1.2-2.2,2.2c-0.334,0.767-0.384,1.783-0.15,3.05C60.833,38.317,59.967,36.9,58.7,34.9z M73.3,90.9
	c0.033-0.367,0.066-0.733,0.101-1.101c-0.733-0.233-1.65-0.35-2.75-0.35l-1.7,0.05c-0.7-0.2-1.233-0.3-1.601-0.3
	c-0.466,0.033-1.05,0.166-1.75,0.399c-0.767,0.334-1.35,0.551-1.75,0.65c-0.133,0.033-0.267,0.083-0.399,0.15
	c1.467-2.5,2.55-4.733,3.25-6.7c0.767-2.101,1.35-4.283,1.75-6.55c0.2,0,0.35,0.05,0.45,0.149c0.199,0.2,0.3,0.601,0.3,1.2
	c0,0.3-0.033,0.717-0.101,1.25c-0.033,0.634-0.25,2.167-0.649,4.6c-0.066,1.967,0.517,2.867,1.75,2.7
	c0.8,0.934,2.083,1.334,3.85,1.2C74.35,89.184,74.1,90.066,73.3,90.9z M71.6,86.5c0.534-0.366,0.983-0.866,1.351-1.5
	c0.033-0.066,0.083-0.15,0.149-0.25c0.2,0.366,0.45,0.783,0.75,1.25c-0.133,0.033-0.267,0.066-0.399,0.1
	C72.75,86.233,72.134,86.366,71.6,86.5z M65.95,107.05c-0.5,0.434-1.167,0.816-2,1.15c0.166-0.134,0.333-0.25,0.5-0.351
	C65.017,107.483,65.517,107.217,65.95,107.05z M60.85,121.75c0.101-1.033,0.25-2.3,0.45-3.8c0-0.134,0.017-0.267,0.05-0.4
	c0,0.3,0.017,0.65,0.051,1.05c0.066,1.367-0.034,2.301-0.301,2.801C61.033,121.5,60.95,121.616,60.85,121.75z M61.35,112.95
	c-0.1-0.667-0.267-1.233-0.5-1.7L60.1,112c-1.433-0.333-2.3,0.45-2.6,2.35c-0.4,2.233-0.833,3.45-1.3,3.65h0.649
	c0.034,0.566,0,1.467-0.1,2.7c0,1.1,0.2,1.934,0.6,2.5c0.7-0.101,1.317-0.584,1.851-1.45c0.1,0.267,0.233,0.6,0.399,1
	c-0.066,0-0.116,0.017-0.149,0.05c-0.834,0.5-1.384,1-1.65,1.5c-0.333,0.667-0.55,1.566-0.649,2.7c-0.233,0.134-0.467,0.333-0.7,0.6
	c-0.566,0.667-0.917,1.417-1.05,2.25c-0.101,0.767-0.117,1.534-0.051,2.301c-0.066,0.466-0.55,0.933-1.449,1.399
	c0.166,0.2,0.283,0.434,0.35,0.7c-0.434,0.333-0.7,0.583-0.8,0.75c-0.4,0.5-0.667,1.066-0.8,1.7c-0.101,0.399-0.217,1.066-0.351,2
	c-0.233-0.3-0.35-0.7-0.35-1.2c0-0.566-0.017-1.017-0.05-1.35c-0.033-0.267-0.066-0.5-0.1-0.7c0.233-0.066,0.483-0.3,0.75-0.7
	c0.566-0.9,0.834-1.733,0.8-2.5l-0.25-0.75c-0.666,0.267-1.2,0.667-1.6,1.2c-0.035-0.279-0.068-0.529-0.1-0.75
	c-0.2-1.667-0.3-3.066-0.3-4.2c0.1-1.233,0.167-2.384,0.2-3.45c1.267,0.434,2.233,0.25,2.9-0.55c0.033-0.033,0.583-1.116,1.649-3.25
	l0.25-2.5c-0.333,1-0.816,1.6-1.449,1.8c-0.9,0.066-1.667,0.217-2.301,0.45c-0.399,0.134-0.7,0.35-0.899,0.65
	c0-0.733-0.017-1.384-0.05-1.95c0-0.167-0.017-0.45-0.05-0.851c0.1-0.566,0.233-1.133,0.4-1.699c0.467,0.767,1.384,0.933,2.75,0.5
	c1.033-0.301,1.783-0.95,2.25-1.95c0.434-1.3,0.8-2.283,1.1-2.95l0.25-0.25c-0.399-0.033-0.883,0.1-1.449,0.4
	c-0.667,0.333-1.15,0.517-1.45,0.55c-0.134,0-0.467-0.033-1-0.101c-0.434-0.1-0.717-0.116-0.851-0.05
	c-0.267,0.101-0.517,0.2-0.75,0.3l1-3.75c0.134-0.433,0.267-0.85,0.4-1.25c-0.066,0.801-0.033,1.301,0.1,1.5
	c0.367,0.567,0.9,0.75,1.601,0.551c0.399-0.101,1.033-0.334,1.899-0.7c0.801-0.167,1.867-0.367,3.2-0.601
	c1.033-0.366,1.7-1.183,2-2.449c0.367-1.467,0.134-2.584-0.7-3.351c-0.466-0.399-1.55-0.883-3.25-1.45
	c-1.5,0.967-2.283,1.483-2.35,1.551c-0.5,0.366-0.917,0.767-1.25,1.199c0.934-2.6,1.884-4.55,2.85-5.85
	c0.467-0.634,0.934-1.267,1.4-1.9c-0.066,0.134-0.116,0.284-0.15,0.45c-0.133,0.767-0.033,1.334,0.301,1.7
	c0.3,0.333,1.116,0.45,2.449,0.35c0.7-0.066,1.601-0.183,2.7-0.35h0.05c0.267,0.366,0.551,0.866,0.851,1.5
	c0.467,0.9,0.934,1.5,1.399,1.8c-0.066,0.8-0.6,1.3-1.6,1.5c-1.2,0.267-1.9,0.566-2.1,0.9c-0.101,0.166-0.084,0.434,0.05,0.8
	c0.166,0.366,0.233,0.616,0.2,0.75c-0.101,0.2-0.301,0.45-0.601,0.75c-0.066,0.2-0.3,0.65-0.7,1.35
	c-0.267,0.5-0.416,0.95-0.449,1.351c0.133-0.033,0.3-0.084,0.5-0.15c-0.334,0.267-0.567,0.566-0.7,0.9
	c-0.267,0.533-0.384,1.467-0.351,2.8C61.35,112.816,61.35,112.884,61.35,112.95z M70.3,96c-0.2,0.4-0.416,0.717-0.649,0.95
	c-0.301,0.267-0.801,0.45-1.5,0.55C68.917,97.1,69.634,96.6,70.3,96z M54.1,126.25c-0.133,0.333-0.699,0.616-1.699,0.85
	c-0.9,0.233-1.317,0.684-1.25,1.351c0.1,1.066,0.684,1.267,1.75,0.6c1.033-0.633,1.517-1.483,1.449-2.55L54.1,126.25z M58.85,101.35
	c0.167-0.133,0.334-0.25,0.5-0.35l-0.75,0.25C58.667,101.283,58.75,101.316,58.85,101.35z"/>
<path style="fill-rule:evenodd;clip-rule:evenodd;fill:#56401B;" d="M53.95,15.15c-0.033,0.033-0.05,0.067-0.05,0.1
	c-0.134,0.5-0.434,1.2-0.9,2.1c-0.467,0.8-0.75,1.483-0.85,2.05C52.05,19.733,52,20.367,52,21.3L49.1,10
	c0-0.4-0.017-0.883-0.05-1.45c0.267-1.2,0.7-2.3,1.3-3.3L51.6,6c1.333,0.767,2.167,2.167,2.5,4.2
	C54.4,11.833,54.35,13.483,53.95,15.15z M41.85,21.3c-0.033,0-0.067,0.017-0.1,0.05c-0.6,0.467-0.967,0.733-1.1,0.8
	c0.2-1.5,0.733-3.267,1.6-5.3c0.533-1.167,0.967-2.133,1.3-2.9c0.534-1.233,0.833-1.967,0.9-2.2c0.3-1.233,0.566-2.3,0.8-3.2
	c0.2-0.833,0.367-1.55,0.5-2.15c0.6-2.367,1.3-4,2.1-4.9l0.1,0.05l0.65,0.2c0,5.3-0.267,9.633-0.8,13
	c-0.267,1.767-0.483,2.917-0.65,3.45c-0.467,1.333-1.217,2.183-2.25,2.55c-0.2,0.067-0.533,0.067-1,0
	c-0.5-0.067-0.85-0.083-1.05-0.05C42.583,20.767,42.25,20.967,41.85,21.3z M39.35,26.1c0.066-0.067,0.133-0.117,0.2-0.15
	c0.967-0.567,1.85-0.9,2.65-1c1.2-0.2,1.833,0.233,1.9,1.3l-3,4.75c-0.633,1-1.533,1.817-2.7,2.45c-1.233,0.7-2.4,0.95-3.5,0.75
	c-0.1-0.7-0.1-1.383,0-2.05c0.133-0.933,0.483-1.85,1.05-2.75C36.783,28.133,37.917,27.033,39.35,26.1z M27.95,48.2
	c-0.434,0.066-0.867,0.066-1.3,0c-0.133-2.434,0.217-4.617,1.05-6.55c0.767-1.767,2.033-3.517,3.8-5.25
	c0.033-0.066,0.067-0.117,0.1-0.15l4.25,1.5c0.767,2-0.083,4.333-2.55,7C31.4,46.817,29.617,47.967,27.95,48.2z M26.4,58.5
	c-1.133-0.633-1.316-1.8-0.55-3.5c0.333-0.7,0.717-1.25,1.15-1.65c0.567-0.6,1.267-0.883,2.1-0.85l1.75,1.5
	c-0.133,1.433-0.517,2.633-1.15,3.6C28.8,58.933,27.7,59.233,26.4,58.5z M30.95,79.95c0.466,1.899,1.15,3.866,2.05,5.899
	c0.2,0.5,0.433,1.017,0.7,1.551c0.133,0.267,0.267,0.55,0.4,0.85c0.333,0.667,0.7,1.35,1.1,2.05c0.033,0.101,0.1,0.217,0.2,0.351
	c0,0.199,0,0.416,0,0.649c0,1.167-0.033,1.9-0.1,2.2c-0.2,0.7-0.7,0.967-1.5,0.8c-0.8-0.166-1.683-1.1-2.65-2.8
	c-0.733-1.3-1.25-2.5-1.55-3.6c-0.3-0.934-0.4-1.884-0.3-2.851c0.133-1.1,0.483-1.866,1.05-2.3V79
	C30.517,79.267,30.717,79.583,30.95,79.95z M30.2,76.1l-0.05,0.051c-0.133,0.333-0.467,0.733-1,1.199
	c-0.7,0.567-1.133,0.967-1.3,1.2c-0.434-0.2-0.767-0.5-1-0.899c-0.533-0.767-0.733-1.867-0.6-3.301
	c0.033-0.399,0.083-0.766,0.15-1.1c0.3-1.5,0.95-2.5,1.95-3h1.2C29.65,72.15,29.867,74.1,30.2,76.1z M29.5,64.05
	c-0.233,1.133-0.567,2.05-1,2.75c-0.7,1.133-1.517,1.317-2.45,0.55c-0.1-0.1-0.216-0.217-0.35-0.35c-0.6-0.667-0.65-1.417-0.15-2.25
	c0.167-0.233,0.35-0.45,0.55-0.65c0.333-0.367,0.75-0.65,1.25-0.85l2.2,0.25C29.517,63.7,29.5,63.883,29.5,64.05z M68.15,58.9
	c-0.167-0.867-0.351-1.75-0.551-2.65c-0.366-1.867-0.816-3.667-1.35-5.4c-0.233-0.767-0.467-1.517-0.7-2.25
	c0.334-1.1,0.967-2.017,1.9-2.75c0.1-0.1,0.217-0.184,0.35-0.25c1.334,1,2.467,0.95,3.4-0.15c0.066,0,0.116,0.017,0.149,0.05l1,0.5
	c0.601,1.433,0.934,3.15,1,5.15c0,1.033-0.083,2.8-0.25,5.3c-0.267,0-0.8-0.233-1.6-0.7c-0.566-0.3-1.1-0.233-1.6,0.2
	c-0.301,0.267-0.5,0.9-0.601,1.9c-0.066,1.066-0.217,1.767-0.45,2.1C68.583,59.717,68.35,59.367,68.15,58.9z M66.4,33.9
	c0.066,0.033,0.133,0.067,0.199,0.1h1c0.634,1.2,1.101,2.55,1.4,4.05c0.1,0.633,0.167,1.233,0.2,1.8c0.033,0.9-0.066,1.7-0.3,2.4
	c-0.301,0.8-0.983,1.367-2.051,1.7c-1.1,0.3-2.083,0.216-2.949-0.25c-0.134-0.067-0.25-0.15-0.351-0.25
	c-0.6-1.267-1.217-2.483-1.85-3.65c-0.066-0.133-0.2-0.35-0.4-0.65c-0.233-1.267-0.184-2.283,0.15-3.05c0.399-1,1.133-1.733,2.2-2.2
	C64.65,33.467,65.566,33.467,66.4,33.9z M64.65,31.1c-0.101,0.367-0.217,0.65-0.351,0.85c-0.333-0.067-0.717-0.1-1.149-0.1
	c-0.801-0.033-1.4,0.033-1.801,0.2c-0.433-0.1-0.767-0.117-1-0.05c-0.733,0.167-1.166,0.567-1.3,1.2c-0.1,0.333-0.217,0.9-0.35,1.7
	c-0.5-0.8-1.05-1.683-1.65-2.65c-0.133-0.667-0.2-1.417-0.2-2.25c0.034-1.967,0.5-3.417,1.4-4.35c0.1-0.066,0.217-0.133,0.35-0.2
	c0.534-0.233,1.617-0.4,3.25-0.5c0-0.034,0.017-0.067,0.051-0.1c0.333,0.066,0.699,0.133,1.1,0.2c0.767,0.333,1.3,1,1.6,2
	c0.167,0.633,0.233,1.5,0.2,2.6C64.767,30.217,64.717,30.7,64.65,31.1z M56.6,19.25c0.034,0.033,0.084,0.067,0.15,0.1
	c0.1,0.1,0.217,0.233,0.35,0.4L57.85,20c0.5,0.267,0.867,0.65,1.101,1.15s0.283,1.017,0.149,1.55c-0.333-0.133-0.833-0.067-1.5,0.2
	c-0.466,0.167-1,0.417-1.6,0.75c-1.167,0.6-1.967,0.317-2.4-0.85c-0.399-1.1-0.116-2.15,0.851-3.15
	c0.267-0.267,0.517-0.45,0.75-0.55C55.767,19.3,56.233,19.35,56.6,19.25z M73.1,84.75c-0.066,0.1-0.116,0.184-0.149,0.25
	c-0.367,0.634-0.816,1.134-1.351,1.5c-0.6,0.134-1.1,0.283-1.5,0.45c0.034,0.033,0.067,0.066,0.101,0.1
	c-1.233,0.167-1.816-0.733-1.75-2.7c0.399-2.433,0.616-3.966,0.649-4.6c0.067-0.533,0.101-0.95,0.101-1.25c0-0.6-0.101-1-0.3-1.2
	c-0.101-0.1-0.25-0.149-0.45-0.149c0.467-2.634,0.684-5.367,0.649-8.2h0.051c0-0.667-0.017-1.35-0.051-2.05l0.25,0.1
	c-0.066-0.767,0.351-1.133,1.25-1.1c0.767,0,1.434,0.2,2,0.6c0.967,0.7,1.834,2.667,2.601,5.9c0.3,1.4,0.217,3.034-0.25,4.9
	c-0.7,2.566-1.066,4.117-1.101,4.65C73.75,83.017,73.5,83.95,73.1,84.75z M51.8,135.45c-0.267,0.033-0.5-0.233-0.7-0.8
	c-0.2-0.634-0.067-1.267,0.4-1.9v-0.05c0.4-0.533,0.934-0.934,1.6-1.2l0.25,0.75c0.034,0.767-0.233,1.6-0.8,2.5
	C52.283,135.15,52.033,135.384,51.8,135.45z M54.1,126.25l0.25,0.25c0.067,1.066-0.416,1.917-1.449,2.55
	c-1.067,0.667-1.65,0.467-1.75-0.6c-0.066-0.667,0.35-1.117,1.25-1.351C53.4,126.866,53.967,126.583,54.1,126.25z M51.45,120.9
	c0.2-0.301,0.5-0.517,0.899-0.65c0.634-0.233,1.4-0.384,2.301-0.45c0.633-0.2,1.116-0.8,1.449-1.8l-0.25,2.5
	c-1.066,2.134-1.616,3.217-1.649,3.25c-0.667,0.8-1.634,0.983-2.9,0.55c-0.133-0.033-0.267-0.083-0.4-0.149c0-0.167,0-0.317,0-0.45
	c-0.033-0.467-0.033-0.867,0-1.2c0.033-0.267,0.067-0.5,0.1-0.7C51.1,121.434,51.25,121.134,51.45,120.9z M44.6,124.75
	c0-0.066,0-0.15,0-0.25l0.25-0.5c0.733,0.1,1.233,0.6,1.5,1.5c0.333,1.934-0.283,2.767-1.85,2.5c-0.033-0.1-0.05-0.217-0.05-0.35
	C44.417,127.316,44.467,126.35,44.6,124.75z M45.5,121.1c-0.167,0.267-0.4,0.467-0.7,0.601c-0.566,0.3-1.267,0.316-2.1,0.05
	c-0.067,0.333-0.083,0.616-0.05,0.85c-0.8-0.333-1.05-1.05-0.75-2.149c0.133-0.5,0.367-1.05,0.7-1.65c0.267-0.5,0.6-1.017,1-1.55
	l0.75,0.25c0.9,0.566,1.3,1.6,1.2,3.1C45.55,120.767,45.533,120.934,45.5,121.1z M43.2,115.5c-0.233,0.134-0.5,0.217-0.8,0.25
	c-0.367,0.033-0.767-0.033-1.2-0.2c-0.333-0.133-0.684-0.333-1.05-0.6c0.5,0.267,1.1,0.45,1.8,0.55
	C42.417,115.566,42.833,115.566,43.2,115.5z M44.1,111.45c-0.567,0.6-1.317,1-2.25,1.2c-1.833,0.433-2.85,0.699-3.05,0.8
	c0.067,0.166,0.167,0.333,0.3,0.5c-0.3-0.3-0.6-0.65-0.9-1.05c-1.3-1.7-2.167-3.267-2.6-4.7c-0.3-1.033-0.333-2.167-0.1-3.4
	c0.067-0.434,0.167-0.816,0.3-1.149c0.3-0.801,0.75-1.367,1.35-1.7c0.434-0.233,1.067-0.334,1.9-0.3c0.5,0,1.184,0.033,2.05,0.1
	h0.25c0.4,0.066,0.783,0.217,1.15,0.45c1.433,2.399,2.3,4,2.6,4.8l0.05,0.1c0.033,0.101,0.067,0.217,0.1,0.351
	c0.067,0.666,0.033,1.333-0.1,2c-0.1,0.467-0.283,0.883-0.55,1.25C44.367,111,44.2,111.25,44.1,111.45z M63.45,90.4
	c0.133-0.067,0.267-0.117,0.399-0.15c0.4-0.1,0.983-0.316,1.75-0.65c0.7-0.233,1.284-0.366,1.75-0.399c0.367,0,0.9,0.1,1.601,0.3
	l1.7-0.05c1.1,0,2.017,0.116,2.75,0.35c-0.034,0.367-0.067,0.733-0.101,1.101c-0.1,0.066-0.2,0.149-0.3,0.25
	c-0.866,0.8-1.467,1.399-1.8,1.8c-0.134,0.399-0.316,1.083-0.55,2.05c-0.101,0.366-0.217,0.7-0.351,1
	c-0.666,0.6-1.383,1.1-2.149,1.5c-0.334,0.066-0.7,0.1-1.101,0.1c-1.3,0-2.166,0.15-2.6,0.45c0.133,0.101,0.267,0.25,0.399,0.45
	H64.8c-1.1,0.167-2,0.283-2.7,0.35c-1.333,0.101-2.149-0.017-2.449-0.35c-0.334-0.366-0.434-0.934-0.301-1.7
	c0.034-0.166,0.084-0.316,0.15-0.45C61,94.217,62.316,92.233,63.45,90.4z M54,107.85c0.4-1.366,0.816-2.616,1.25-3.75
	c0.333-0.433,0.75-0.833,1.25-1.199c0.066-0.067,0.85-0.584,2.35-1.551c1.7,0.567,2.784,1.051,3.25,1.45
	c0.834,0.767,1.067,1.884,0.7,3.351c-0.3,1.267-0.967,2.083-2,2.449c-1.333,0.233-2.399,0.434-3.2,0.601
	c-0.866,0.366-1.5,0.6-1.899,0.7c-0.7,0.199-1.233,0.017-1.601-0.551C53.967,109.15,53.934,108.65,54,107.85z M58.85,101.35
	c-0.1-0.033-0.183-0.066-0.25-0.1l0.75-0.25C59.184,101.1,59.017,101.217,58.85,101.35z M51.75,116.4c0.033-0.2,0.067-0.4,0.1-0.601
	c0.1-0.434,0.2-0.85,0.3-1.25l0.449-1.7c0.233-0.1,0.483-0.199,0.75-0.3c0.134-0.066,0.417-0.05,0.851,0.05
	c0.533,0.067,0.866,0.101,1,0.101c0.3-0.033,0.783-0.217,1.45-0.55c0.566-0.301,1.05-0.434,1.449-0.4L57.85,112
	c-0.3,0.667-0.666,1.65-1.1,2.95c-0.467,1-1.217,1.649-2.25,1.95C53.134,117.333,52.217,117.167,51.75,116.4z M46.6,136
	c-0.4-0.434-0.65-1.066-0.75-1.9c0-0.133,0-0.833,0-2.1l0.75,2.75C46.667,135.184,46.667,135.6,46.6,136z"/>
<path style="fill-rule:evenodd;clip-rule:evenodd;fill:#1E1707;" d="M53.6,109.1l-1,3.75l-0.449,1.7l-1.95,3.101
	c0.066-3.233-0.3-6.184-1.1-8.851c-0.167-0.6-0.517-1.7-1.05-3.3c-0.5-1.333-0.816-2.417-0.95-3.25c-0.3-2.167-0.667-3.816-1.1-4.95
	c-0.6-1.533-1.55-3.033-2.85-4.5l-0.05,0.65c-0.733-0.167-1.267-1.517-1.6-4.05c-0.1-0.601-0.233-2.233-0.4-4.9
	c-0.1-1.167-0.184-2.05-0.25-2.65c-0.067-1.066-0.05-1.966,0.05-2.699c0.1-0.601,0.333-1.4,0.7-2.4c0.4-1.066,0.65-1.866,0.75-2.4
	c0.1-0.5,0.217-1.917,0.35-4.25c0.1-1.733,0.367-3.117,0.8-4.15c0.6,0.367,0.933,1.066,1,2.1c0,0.567,0.017,1.417,0.05,2.55
	c0.034-2.3,0.1-4.1,0.2-5.4c0.2-2.3,0.75-3.9,1.65-4.8c0.367,0.5,0.6,1.233,0.7,2.2c0.1,1.433,0.167,2.233,0.2,2.4
	c0.133-2.333,0.233-3.867,0.3-4.6c0.2-1.733,0.55-3.217,1.05-4.45c0.5,0.333,1.083,1.3,1.75,2.9c0.133-0.367,0.35-1.817,0.65-4.35
	c0.233-1.967,0.733-3.283,1.5-3.95c0.667,0.567,1.167,1.483,1.5,2.75c0.267,0.967,0.384,1.917,0.351,2.85
	c0.1-1.133,0.433-2.333,1-3.6c0.633-1.466,1.383-2.583,2.25-3.35c0.066,0.2,0.149,0.6,0.25,1.2c0.066,0.567,0.149,0.967,0.25,1.2
	c0.399-1.033,0.716-1.767,0.949-2.2c0.801,1.3,1.317,2.95,1.551,4.95c-0.034-1.167-0.017-2.75,0.05-4.75
	c0.066-1.867,0.116-3.267,0.149-4.2c0,0.5,0.067,1.067,0.2,1.7c0-1.4,0.05-2.434,0.15-3.1c0.434,0.5,0.767,1.267,1,2.3
	c0.366,1.467,0.583,2.3,0.649,2.5c0.034-0.667,0.051-1.083,0.051-1.25c0.133,0.133,0.283,0.267,0.449,0.4
	c0.034,0.033,0.084,0.066,0.15,0.1l2.1,2.05c0.233,0.267,0.45,0.517,0.65,0.75c0.533,1.733,0.983,3.533,1.35,5.4
	c0.2,0.9,0.384,1.783,0.551,2.65l0.8,6.05c0.033,0.667,0.083,1.316,0.149,1.95c0.034,0.7,0.051,1.383,0.051,2.05H69.1
	c-0.833-0.1-1.5-0.667-2-1.7c-0.466-1.3-0.85-2.233-1.149-2.8l-0.5,0.8c-0.434-1.433-0.617-2.717-0.55-3.85
	c-0.2,0.567-0.267,2.617-0.2,6.15c0.033,2.8-0.483,4.467-1.55,5c-0.067-1.1-0.084-2.617-0.051-4.55c0.067-2.2,0.084-3.733,0.051-4.6
	c-0.5,0.4-1,1.083-1.5,2.05c-0.7,1.3-1.134,2.066-1.301,2.3c-0.233-0.367-0.333-0.983-0.3-1.85c0.066-0.967,0.101-1.65,0.101-2.05
	c-0.167,0.267-0.483,0.9-0.95,1.9c-0.367,0.8-0.717,1.367-1.05,1.7c-0.067-0.833-0.067-2.083,0-3.75
	c-0.101,0.333-0.267,1.417-0.5,3.25c-0.167,1.4-0.5,2.417-1,3.05c0.1-1.633,0.166-2.983,0.199-4.05
	c0.067-2.034-0.149-3.184-0.649-3.45c-0.5,1.333-0.783,3.167-0.851,5.5c-0.066,2.667-0.199,4.483-0.399,5.45
	c-0.066-0.5-0.167-1.583-0.3-3.25c-0.134-1.333-0.301-2.4-0.5-3.2c-0.101,1.033-0.2,2.85-0.301,5.45
	c-0.066,2.333-0.199,4.166-0.399,5.5c-0.367-0.8-0.7-1.816-1-3.05c-0.267-1.467-0.467-2.55-0.6-3.25
	c0.1,1.233,0.083,2.716-0.05,4.45c-0.1,1-0.267,2.467-0.5,4.4c-0.2-1.8-0.433-3.134-0.7-4c0.066,2.566,0.083,6.417,0.05,11.55
	l-0.4-1.75c0.1,0.934,0.35,2.533,0.75,4.8c0.367,2.067,0.583,3.684,0.65,4.851L51.6,94.4c0.267,1.633,0.667,4.083,1.2,7.35
	C53.267,104.583,53.533,107.033,53.6,109.1z"/>
<path style="fill-rule:evenodd;clip-rule:evenodd;fill:#1E1607;" d="M50.2,117.65c0,2.933-0.383,5.55-1.15,7.85
	c-0.167-1.233-0.35-2.55-0.55-3.95l-0.05-0.399l-0.1-0.551L50.2,117.65z"/>
<path style="fill-rule:evenodd;clip-rule:evenodd;fill:#150F04;" d="M52.3,22.85c0.262,0.673,0.545,1.34,0.851,2l2.35,4.8
	c0.4,0.7,0.816,1.4,1.25,2.1c0.1,0.167,0.2,0.333,0.3,0.5c0.601,0.967,1.15,1.85,1.65,2.65c1.267,2,2.133,3.417,2.6,4.25
	c0.2,0.3,0.334,0.517,0.4,0.65c0.633,1.167,1.25,2.383,1.85,3.65c0.733,1.667,1.4,3.383,2,5.15c0.233,0.733,0.467,1.483,0.7,2.25
	c-0.2-0.233-0.417-0.483-0.65-0.75l-2.1-2.05c-0.066-0.033-0.116-0.066-0.15-0.1c-0.166-0.133-0.316-0.267-0.449-0.4
	c0,0.167-0.017,0.583-0.051,1.25c-0.066-0.2-0.283-1.033-0.649-2.5c-0.233-1.033-0.566-1.8-1-2.3c-0.101,0.667-0.15,1.7-0.15,3.1
	c-0.133-0.633-0.2-1.2-0.2-1.7c-0.033,0.934-0.083,2.333-0.149,4.2c-0.066,2-0.084,3.583-0.05,4.75c-0.233-2-0.75-3.65-1.551-4.95
	c-0.233,0.434-0.55,1.167-0.949,2.2c-0.101-0.233-0.184-0.633-0.25-1.2c-0.101-0.6-0.184-1-0.25-1.2
	c-0.867,0.767-1.617,1.883-2.25,3.35c-0.567,1.267-0.9,2.467-1,3.6c0.033-0.933-0.084-1.883-0.351-2.85
	c-0.333-1.267-0.833-2.183-1.5-2.75c-0.767,0.667-1.267,1.983-1.5,3.95c-0.3,2.533-0.517,3.983-0.65,4.35
	c-0.667-1.6-1.25-2.567-1.75-2.9c-0.5,1.233-0.85,2.716-1.05,4.45c-0.067,0.733-0.167,2.267-0.3,4.6c-0.033-0.167-0.1-0.967-0.2-2.4
	c-0.1-0.967-0.333-1.7-0.7-2.2c-0.9,0.9-1.45,2.5-1.65,4.8c-0.1,1.3-0.167,3.1-0.2,5.4c-0.033-1.133-0.05-1.983-0.05-2.55
	c-0.067-1.033-0.4-1.733-1-2.1c-0.433,1.033-0.7,2.417-0.8,4.15c-0.133,2.333-0.25,3.75-0.35,4.25c-0.1,0.534-0.35,1.334-0.75,2.4
	c-0.367,1-0.6,1.8-0.7,2.4c-0.1,0.733-0.117,1.633-0.05,2.699c0.066,0.601,0.15,1.483,0.25,2.65c0.167,2.667,0.3,4.3,0.4,4.9
	c0.333,2.533,0.867,3.883,1.6,4.05l0.05-0.65c1.3,1.467,2.25,2.967,2.85,4.5c0.433,1.134,0.8,2.783,1.1,4.95
	c0.133,0.833,0.45,1.917,0.95,3.25c0.534,1.6,0.883,2.7,1.05,3.3c0.8,2.667,1.167,5.617,1.1,8.851l-1.85,2.949l-0.1-0.524
	L47.725,117l-0.075-0.5c0.567-0.7,0.8-2.05,0.7-4.05c-0.033-0.767-0.2-2.167-0.5-4.2c-0.233-1.934-0.917-3.767-2.05-5.5
	c-0.466-0.767-1.033-1.85-1.7-3.25c-0.667-1.467-1.2-2.533-1.6-3.2c-2.533-4.166-4.467-8.916-5.8-14.25
	c-1.067-4.2-1.784-7.434-2.15-9.7c-0.466-3-0.7-6.283-0.7-9.85c0.033-1.767,0.35-4.15,0.95-7.15c0.633-3.233,1.3-5.533,2-6.9
	c0.233-0.434,0.617-0.9,1.15-1.4c0.667-0.633,1.083-1.05,1.25-1.25c0.333-0.433,0.667-1.1,1-2c0.4-1.1,0.683-1.8,0.85-2.1
	c0.333-0.6,0.9-1.3,1.7-2.1c0.967-1,1.567-1.65,1.8-1.95c1.733-2.133,2.684-3.933,2.85-5.4c0.233-2,0.267-4.067,0.1-6.2L46.8,21
	c-0.033-0.3-0.083-0.6-0.15-0.9c0.067-0.233,0.133-0.45,0.2-0.65l0.2-0.65c0.767-2.966,1.333-5.767,1.7-8.4l0.1-0.9
	c0.033,0.3,0.083,0.617,0.15,0.95c0,0.1,0.017,0.2,0.05,0.3c0.034,0.2,0.067,0.4,0.1,0.6c0,0.066,0.017,0.15,0.05,0.25
	c0,0.066,0.017,0.15,0.05,0.25c0,0.066,0.017,0.133,0.05,0.2c0.034,0.2,0.067,0.4,0.1,0.6c0,0.067,0.017,0.133,0.05,0.2
	c0,0.033,0,0.083,0,0.15l2.6,9.2L52.3,22.85z"/>
<radialGradient id="SVGID_1_" cx="43.5" cy="65.9502" r="43.5" gradientTransform="matrix(1 0 0 -1 0 131.9004)" gradientUnits="userSpaceOnUse">
	<stop  offset="0" style="stop-color:#FFFFFF;stop-opacity:0"/>
	<stop  offset="0.0157" style="stop-color:#FDF7E4;stop-opacity:0.0588"/>
	<stop  offset="0.051" style="stop-color:#F9EAB5;stop-opacity:0.1686"/>
	<stop  offset="0.0863" style="stop-color:#F6DF8E;stop-opacity:0.2588"/>
	<stop  offset="0.1176" style="stop-color:#F3D671;stop-opacity:0.3294"/>
	<stop  offset="0.149" style="stop-color:#F2D05C;stop-opacity:0.3765"/>
	<stop  offset="0.1804" style="stop-color:#F1CC50;stop-opacity:0.4078"/>
	<stop  offset="0.2078" style="stop-color:#F1CB4C;stop-opacity:0.4196"/>
	<stop  offset="0.5098" style="stop-color:#806B27;stop-opacity:0.2039"/>
	<stop  offset="0.7333" style="stop-color:#33290E;stop-opacity:0.0549"/>
	<stop  offset="0.8353" style="stop-color:#150F04;stop-opacity:0"/>
</radialGradient>
<path style="fill-rule:evenodd;clip-rule:evenodd;fill:url(#SVGID_1_);" d="M74.25,96.7c-8.5,8.5-18.75,12.75-30.75,12.75
	c-12.033,0-22.283-4.25-30.75-12.75C4.25,88.2,0,77.95,0,65.95C0,53.917,4.25,43.667,12.75,35.2c8.467-8.5,18.717-12.75,30.75-12.75
	c12,0,22.25,4.25,30.75,12.75C82.75,43.667,87,53.917,87,65.95C87,77.95,82.75,88.2,74.25,96.7z"/>
<radialGradient id="SVGID_2_" cx="61.4004" cy="65.4004" r="43.5" gradientTransform="matrix(1 0 0 -1 0 130.8008)" gradientUnits="userSpaceOnUse">
	<stop  offset="0" style="stop-color:#FFFFFF;stop-opacity:0"/>
	<stop  offset="0.0157" style="stop-color:#FDF7E4;stop-opacity:0.0588"/>
	<stop  offset="0.051" style="stop-color:#F9EAB5;stop-opacity:0.1686"/>
	<stop  offset="0.0863" style="stop-color:#F6DF8E;stop-opacity:0.2588"/>
	<stop  offset="0.1176" style="stop-color:#F3D671;stop-opacity:0.3294"/>
	<stop  offset="0.149" style="stop-color:#F2D05C;stop-opacity:0.3765"/>
	<stop  offset="0.1804" style="stop-color:#F1CC50;stop-opacity:0.4078"/>
	<stop  offset="0.2078" style="stop-color:#F1CB4C;stop-opacity:0.4196"/>
	<stop  offset="0.5098" style="stop-color:#806B27;stop-opacity:0.2039"/>
	<stop  offset="0.7333" style="stop-color:#33290E;stop-opacity:0.0549"/>
	<stop  offset="0.8353" style="stop-color:#150F04;stop-opacity:0"/>
</radialGradient>
<path style="fill-rule:evenodd;clip-rule:evenodd;fill:url(#SVGID_2_);" d="M104.9,65.4c0,12-4.25,22.25-12.75,30.75
	S73.4,108.9,61.4,108.9c-12.034,0-22.284-4.25-30.75-12.75C22.15,87.65,17.9,77.4,17.9,65.4c0-12.033,4.25-22.283,12.75-30.75
	c8.467-8.5,18.717-12.75,30.75-12.75c12,0,22.25,4.25,30.75,12.75C100.65,43.117,104.9,53.367,104.9,65.4z"/>
<radialGradient id="SVGID_3_" cx="41.8252" cy="67.625" r="24.4265" gradientTransform="matrix(1 0 0 -0.8915 0 127.913)" gradientUnits="userSpaceOnUse">
	<stop  offset="0" style="stop-color:#FFFFFF"/>
	<stop  offset="0.0157" style="stop-color:#FDF7E4;stop-opacity:0.949"/>
	<stop  offset="0.051" style="stop-color:#F9EAB5;stop-opacity:0.8667"/>
	<stop  offset="0.0863" style="stop-color:#F6DF8E;stop-opacity:0.8"/>
	<stop  offset="0.1176" style="stop-color:#F3D671;stop-opacity:0.7451"/>
	<stop  offset="0.149" style="stop-color:#F2D05C;stop-opacity:0.7098"/>
	<stop  offset="0.1804" style="stop-color:#F1CC50;stop-opacity:0.6863"/>
	<stop  offset="0.2078" style="stop-color:#F1CB4C;stop-opacity:0.6784"/>
	<stop  offset="0.5098" style="stop-color:#806B27;stop-opacity:0.3294"/>
	<stop  offset="0.7333" style="stop-color:#33290E;stop-opacity:0.0902"/>
	<stop  offset="0.8353" style="stop-color:#150F04;stop-opacity:0"/>
</radialGradient>
<path style="fill-rule:evenodd;clip-rule:evenodd;fill:url(#SVGID_3_);" d="M59.1,52.25c4.767,4.233,7.15,9.35,7.15,15.35
	c0,6.033-2.384,11.167-7.15,15.4c-4.767,4.267-10.516,6.4-17.25,6.4c-6.767,0-12.533-2.134-17.3-6.4
	c-4.767-4.233-7.15-9.367-7.15-15.4c0-6,2.383-11.117,7.15-15.35c4.8-4.267,10.567-6.4,17.3-6.4S54.333,47.983,59.1,52.25z"/>
<radialGradient id="SVGID_4_" cx="59.1758" cy="65.1748" r="25.9762" gradientTransform="matrix(1 0 0 -0.8917 0 123.2927)" gradientUnits="userSpaceOnUse">
	<stop  offset="0" style="stop-color:#FFFFFF"/>
	<stop  offset="0.0157" style="stop-color:#FDF7E4;stop-opacity:0.949"/>
	<stop  offset="0.051" style="stop-color:#F9EAB5;stop-opacity:0.8667"/>
	<stop  offset="0.0863" style="stop-color:#F6DF8E;stop-opacity:0.8"/>
	<stop  offset="0.1176" style="stop-color:#F3D671;stop-opacity:0.7451"/>
	<stop  offset="0.149" style="stop-color:#F2D05C;stop-opacity:0.7098"/>
	<stop  offset="0.1804" style="stop-color:#F1CC50;stop-opacity:0.6863"/>
	<stop  offset="0.2078" style="stop-color:#F1CB4C;stop-opacity:0.6784"/>
	<stop  offset="0.5098" style="stop-color:#806B27;stop-opacity:0.3294"/>
	<stop  offset="0.7333" style="stop-color:#33290E;stop-opacity:0.0902"/>
	<stop  offset="0.8353" style="stop-color:#150F04;stop-opacity:0"/>
</radialGradient>
<path style="fill-rule:evenodd;clip-rule:evenodd;fill:url(#SVGID_4_);" d="M59.2,42c7.166,0,13.283,2.267,18.35,6.8
	c5.066,4.5,7.601,9.95,7.601,16.35s-2.534,11.867-7.601,16.4s-11.184,6.8-18.35,6.8c-7.167,0-13.3-2.267-18.4-6.8
	c-5.066-4.533-7.6-10-7.6-16.4s2.533-11.85,7.6-16.35C45.9,44.267,52.033,42,59.2,42z"/>
<radialGradient id="SVGID_5_" cx="42.5" cy="66.1001" r="6.425" gradientTransform="matrix(1 0 0 -1.2062 0 145.8317)" gradientUnits="userSpaceOnUse">
	<stop  offset="0" style="stop-color:#FFFFFF"/>
	<stop  offset="0.0353" style="stop-color:#FDF7E4"/>
	<stop  offset="0.1098" style="stop-color:#F9EAB5"/>
	<stop  offset="0.1804" style="stop-color:#F6DF8E"/>
	<stop  offset="0.251" style="stop-color:#F3D671"/>
	<stop  offset="0.3176" style="stop-color:#F2D05C"/>
	<stop  offset="0.3843" style="stop-color:#F1CC50"/>
	<stop  offset="0.4431" style="stop-color:#F1CB4C"/>
	<stop  offset="0.9647" style="stop-color:#EDCD54;stop-opacity:0"/>
</radialGradient>
<path style="fill-rule:evenodd;clip-rule:evenodd;fill:url(#SVGID_5_);" d="M42.5,57.8c1.667,0,3.066,0.817,4.2,2.45
	c1.167,1.6,1.75,3.55,1.75,5.85c0,2.3-0.583,4.267-1.75,5.9c-1.167,1.633-2.567,2.45-4.2,2.45s-3.033-0.817-4.2-2.45
	c-1.167-1.633-1.75-3.6-1.75-5.9c0-2.3,0.583-4.25,1.75-5.85C39.467,58.617,40.867,57.8,42.5,57.8z"/>
<radialGradient id="SVGID_6_" cx="60.3496" cy="66.6001" r="7.4375" gradientTransform="matrix(1 0 0 -1.2067 0 146.968)" gradientUnits="userSpaceOnUse">
	<stop  offset="0" style="stop-color:#FFFFFF"/>
	<stop  offset="0.0353" style="stop-color:#FDF7E4"/>
	<stop  offset="0.1098" style="stop-color:#F9EAB5"/>
	<stop  offset="0.1804" style="stop-color:#F6DF8E"/>
	<stop  offset="0.251" style="stop-color:#F3D671"/>
	<stop  offset="0.3176" style="stop-color:#F2D05C"/>
	<stop  offset="0.3843" style="stop-color:#F1CC50"/>
	<stop  offset="0.4431" style="stop-color:#F1CB4C"/>
	<stop  offset="0.9647" style="stop-color:#EDCD54;stop-opacity:0"/>
</radialGradient>
<path style="fill-rule:evenodd;clip-rule:evenodd;fill:url(#SVGID_6_);" d="M60.35,57c1.9,0,3.517,0.934,4.851,2.8
	c1.333,1.867,2,4.134,2,6.8s-0.667,4.933-2,6.8c-1.334,1.9-2.95,2.85-4.851,2.85c-1.899,0-3.517-0.95-4.85-2.85
	c-1.366-1.867-2.05-4.133-2.05-6.8c0-2.633,0.684-4.9,2.05-6.8C56.833,57.934,58.45,57,60.35,57z"/>
</svg>
