<?xml version="1.0" encoding="iso-8859-1"?>
<!-- Generator: Adobe Illustrator 15.1.0, SVG Export Plug-In . SVG Version: 6.00 Build 0)  -->
<!DOCTYPE svg PUBLIC "-//W3C//DTD SVG 1.1//EN" "http://www.w3.org/Graphics/SVG/1.1/DTD/svg11.dtd">
<svg version="1.1" id="FlashAICB" xmlns="http://www.w3.org/2000/svg" xmlns:xlink="http://www.w3.org/1999/xlink" x="0px" y="0px"
	 width="50.9px" height="40.4px" viewBox="0 0 50.9 40.4" style="enable-background:new 0 0 50.9 40.4;" xml:space="preserve">
<path style="fill-rule:evenodd;clip-rule:evenodd;fill:#A68A52;" d="M21.75,23.35c-0.033,0.767,0.467,1.65,1.5,2.65
	c0.967,0.967,1.85,1.5,2.65,1.6c-0.567-0.733-1.067-1.3-1.5-1.699c-0.5-0.4-0.867-0.717-1.1-0.95c-0.466-0.4-0.733-0.8-0.8-1.2
	L21.75,23.35z M25.15,23.2L24.5,23.35c-0.033,0.801,0.15,1.534,0.55,2.2c0.233,0.367,0.634,0.967,1.2,1.8
	c0.066-0.5-0.066-1.233-0.4-2.199c-0.267-0.733-0.416-1.301-0.449-1.7c0.066,0.066,0.133,0.149,0.199,0.25
	c0.067,0.1,0.284,0.6,0.65,1.5c0.267,0.666,0.6,1.05,1,1.149c0.2-0.233,0.35-0.583,0.45-1.05c0.1-0.5,0.184-0.866,0.25-1.1
	c0.6,0.267,1.5,0.25,2.7-0.05c0.666-0.134,1.55-0.384,2.649-0.75h0.05l0.2,1.5c0.3,0.133,0.684-0.017,1.15-0.45
	c0.666-0.601,1.033-0.917,1.1-0.95c-0.033,0.467-0.2,1.233-0.5,2.3c0.566-0.467,0.934-0.75,1.101-0.85
	c0.033,1.2-0.467,2.184-1.5,2.95c-1.601,1.066-2.601,1.066-3,0c-0.134,0.166-0.45,0.3-0.95,0.399c-0.4,0.101-0.717,0.15-0.95,0.15
	c-0.333,0.033-0.566,0.033-0.7,0c-0.133-0.066-0.35-0.217-0.649-0.45c0.033,0.134,0.033,0.366,0,0.7
	c-0.301-0.066-0.601-0.467-0.9-1.2c0,0.7-0.05,1.1-0.15,1.2c-0.166,0.133-0.533,0.066-1.1-0.2c-0.667-0.3-1.434-0.833-2.3-1.6
	c-1.167-1-1.883-1.601-2.15-1.801c-0.1,0.5,0,1.034,0.3,1.601c-0.434,0.166-0.934,0.05-1.5-0.351c-0.133-0.199-0.333-0.383-0.6-0.55
	c-0.1-0.066-0.2-0.133-0.3-0.2c-0.2-0.199-0.367-0.383-0.5-0.55C19.617,25.15,19.8,25.2,20,25.2l0.05-0.3
	c0.333,0.533,0.784,0.85,1.35,0.949c0.033-0.233-0.083-0.55-0.35-0.949c-0.267-0.4-0.45-0.684-0.55-0.851
	c-0.133-0.3-0.25-0.533-0.35-0.7c-0.133-0.267-0.3-0.466-0.5-0.6l-1,0.35c-0.033,0.467,0.067,0.934,0.3,1.4
	c0.066,0.1,0.117,0.184,0.15,0.25c-0.2-0.167-0.35-0.3-0.45-0.4c0,0.5,0.117,0.983,0.35,1.45l-0.5,0.05
	c-0.133-0.066-0.25-0.149-0.35-0.25c-0.267-0.267-0.583-0.699-0.95-1.3c-0.4-0.666-0.667-1.1-0.8-1.3
	c-0.367-0.434-0.95-0.9-1.75-1.4c-0.433-0.267-0.8-0.483-1.1-0.649l-0.15-0.8c0.167-0.033,0.45,0.1,0.85,0.4
	c0.3,0.2,0.517,0.117,0.65-0.25c0.4,0.267,0.917,0.816,1.55,1.65c0.633,0.8,1.15,1.316,1.55,1.55l0.05-1.1
	c0.167,0.366,0.4,0.517,0.7,0.449c0.267-0.066,0.517-0.233,0.75-0.5c0.233,0.367,0.533,0.517,0.9,0.45c0.5-0.1,0.8-0.133,0.9-0.1
	c0.467,0.166,0.883,0.416,1.25,0.75c0.2,0.1,0.5-0.267,0.9-1.101C24.183,22.55,24.75,22.833,25.15,23.2z M31.65,24.55
	c-0.534,0.467-0.917,0.733-1.15,0.8c-0.066-0.466-0.434-0.633-1.1-0.5c-0.067,0.167,0.017,0.334,0.25,0.5l-0.4-0.25
	c-0.333,0.134-0.45,0.517-0.35,1.15c0.066,0.333,0.149,0.816,0.25,1.45l0.199-0.15c0.067-0.033,0.134-0.133,0.2-0.3
	c0.767,0.134,1.467-0.217,2.101-1.05c0.3-0.4,0.683-1.15,1.149-2.25C32.5,23.917,32.116,24.116,31.65,24.55z M32.3,27.95
	c0.667,0.066,1.334-0.316,2-1.15c0.634-0.833,0.917-1.566,0.851-2.2l-1.75,0.65c-0.067,0.233-0.267,0.684-0.601,1.35
	C32.5,27.167,32.333,27.616,32.3,27.95z"/>
<path style="fill-rule:evenodd;clip-rule:evenodd;fill:#907847;" d="M18.5,25.85L19,25.8c-0.233-0.467-0.35-0.95-0.35-1.45
	c0.1,0.101,0.25,0.233,0.45,0.4c0.1,0.1,0.217,0.2,0.35,0.3c0.133,0.167,0.3,0.351,0.5,0.55c-0.467-0.366-0.733-0.616-0.8-0.75
	c0.033,0.434,0.267,0.851,0.7,1.25c0.033,0.067,0.383,0.351,1.05,0.851c-0.433-0.134-0.783-0.267-1.05-0.4
	c-0.4-0.166-0.75-0.333-1.05-0.5C18.7,25.983,18.6,25.917,18.5,25.85z M10.9,18.2c0.1,0.033,0.233,0.066,0.4,0.1l0.15,0.05
	c0.133,0.533,0.483,0.833,1.05,0.9c0.367,0.033,0.883,0.05,1.55,0.05c0.633,0.1,1.467,0.633,2.5,1.6c1.067,0.567,2.167,0.8,3.3,0.7
	c0.9-0.066,1.45-0.066,1.65,0c0.233,0.067,0.517,0.167,0.85,0.301c0.267,0.066,0.55,0.1,0.85,0.1c0.4,0,0.867,0.1,1.4,0.3
	c0.667,0.267,1.133,0.417,1.4,0.45c0.134,0,0.316-0.083,0.55-0.25c0.233,0.066,0.4,0.184,0.5,0.35c0.167,0.301,0.267,0.467,0.3,0.5
	c0.367,0.367,0.584,0.534,0.65,0.5c0.2-0.166,0.417-0.399,0.65-0.699c0.366-0.434,0.767-0.667,1.199-0.7
	c0.167-0.033,0.617-0.017,1.351,0.05l0.899,0.1c0.067,0,0.217,0.067,0.45,0.2c0.2,0.066,0.4,0.084,0.601,0.05
	c-0.034,0.101-0.017,0.267,0.05,0.5c0.033,0,0.066,0.017,0.1,0.051c-1.1,0.366-1.983,0.616-2.649,0.75
	c-1.2,0.3-2.101,0.316-2.7,0.05c-0.066,0.233-0.15,0.6-0.25,1.1c-0.101,0.467-0.25,0.816-0.45,1.05c-0.4-0.1-0.733-0.483-1-1.149
	c-0.366-0.9-0.583-1.4-0.65-1.5c-0.066-0.101-0.133-0.184-0.199-0.25c0-0.134,0-0.25,0-0.351L25.15,23.2
	c-0.4-0.367-0.967-0.65-1.7-0.851c-0.4,0.834-0.7,1.2-0.9,1.101c-0.367-0.334-0.783-0.584-1.25-0.75c-0.1-0.033-0.4,0-0.9,0.1
	c-0.367,0.066-0.667-0.083-0.9-0.45c-0.233,0.267-0.483,0.434-0.75,0.5c-0.3,0.067-0.533-0.083-0.7-0.449L18,23.5
	c-0.4-0.233-0.917-0.75-1.55-1.55c-0.633-0.834-1.15-1.383-1.55-1.65c-0.133,0.367-0.35,0.45-0.65,0.25
	c-0.4-0.3-0.683-0.433-0.85-0.4l0.15,0.8l-0.25-0.2c-0.233-0.167-0.417-0.3-0.55-0.4C12.117,19.783,11.5,19.067,10.9,18.2z
	 M49.9,12.4c0.1-0.133,0.199-0.283,0.3-0.45c-0.033,0.2-0.05,0.417-0.05,0.65c0,1-0.334,2.017-1,3.05
	c-0.334,0.467-0.801,1.15-1.4,2.05c0-0.034,0-0.067,0-0.1c0.167-0.4,0.384-0.767,0.65-1.1l0.75-0.95
	c0.433-0.633,0.683-1.667,0.75-3.1V12.4z M25.3,29.25c-0.166-0.033-0.333-0.083-0.5-0.15c-0.433-0.166-1.017-0.5-1.75-1
	c-0.8-0.5-1.4-0.833-1.8-1c-0.1-0.033-0.183-0.066-0.25-0.1c0.033-0.2-0.017-0.417-0.15-0.65c0.566,0.4,1.066,0.517,1.5,0.351
	c-0.3-0.566-0.4-1.101-0.3-1.601c0.267,0.2,0.983,0.801,2.15,1.801c0.866,0.767,1.633,1.3,2.3,1.6c0.566,0.267,0.934,0.333,1.1,0.2
	c0.101-0.101,0.15-0.5,0.15-1.2c0.3,0.733,0.6,1.134,0.9,1.2c0.033-0.334,0.033-0.566,0-0.7c0.3,0.233,0.517,0.384,0.649,0.45
	c0.134,0.033,0.367,0.033,0.7,0c0.233,0,0.55-0.05,0.95-0.15c0.5-0.1,0.816-0.233,0.95-0.399c0.399,1.066,1.399,1.066,3,0
	c1.033-0.767,1.533-1.75,1.5-2.95c-0.167,0.1-0.534,0.383-1.101,0.85c0.3-1.066,0.467-1.833,0.5-2.3
	c-0.066,0.033-0.434,0.35-1.1,0.95c-0.467,0.434-0.851,0.583-1.15,0.45l-0.2-1.5c0.667,0.033,1.367-0.167,2.101-0.601l0.1,0.55
	c0.634,0.034,1.517-0.333,2.65-1.1c1.166-0.733,2.066-1.116,2.7-1.15c0.033,0.367,0,0.75-0.101,1.15
	c-0.066,0.267-0.2,0.634-0.399,1.1c0.633-0.166,1.183-0.483,1.649-0.949c-0.033,0.366-0.267,0.716-0.7,1.05
	c-0.233,0.2-0.6,0.45-1.1,0.75c-0.4,0.434-0.934,1.35-1.6,2.75c0.066-0.767,0.1-1.334,0.1-1.7c-0.267,0.233-0.5,0.6-0.7,1.1
	c-0.233,0.567-0.416,0.934-0.55,1.101c-0.2,0.3-0.417,0.467-0.65,0.5c-0.3-0.033-0.583-0.017-0.85,0.05
	c-0.134,0.033-0.75,0.283-1.85,0.75c-0.733,0.3-1.4,0.417-2,0.35c-0.034,0-0.25-0.033-0.65-0.1c-0.233-0.066-0.483-0.066-0.75,0
	c-0.934,0.233-1.517,0.35-1.75,0.35c-1.5,0-2.417-0.05-2.75-0.149c-0.866-0.434-1.517-0.75-1.95-0.95
	C24.267,28.684,24.6,29.017,25.3,29.25z M46.95,19.1c-0.101,0.167-0.2,0.35-0.3,0.55c-0.267,0.467-0.551,0.833-0.851,1.1
	c-0.033,0.033-0.066,0.067-0.1,0.1c0.333-0.5,0.616-0.917,0.85-1.25C46.684,19.433,46.816,19.267,46.95,19.1z"/>
<path style="fill-rule:evenodd;clip-rule:evenodd;fill:#675633;" d="M47.75,17.7c-0.167,0.333-0.434,0.8-0.8,1.4
	c-0.134,0.167-0.267,0.333-0.4,0.5c-0.233,0.333-0.517,0.75-0.85,1.25c-0.467,0.7-1.017,1.567-1.65,2.6
	c-0.434,0.566-1.017,1.149-1.75,1.75c-0.434,0.366-1.083,0.866-1.95,1.5c-0.399,0.366-1.017,0.934-1.85,1.7
	c-0.767,0.6-1.517,0.966-2.25,1.1c-0.634,0.1-1.434,0.15-2.4,0.15c-1.1-0.034-1.933-0.051-2.5-0.051c-1.066,0.067-2,0.101-2.8,0.101
	L27.4,29.6c-0.167,0-0.317-0.017-0.45-0.05H26.9c-0.601-0.066-1.134-0.166-1.601-0.3c-0.7-0.233-1.033-0.566-1-1
	c0.434,0.2,1.084,0.517,1.95,0.95c0.333,0.1,1.25,0.149,2.75,0.149c0.233,0,0.816-0.116,1.75-0.35c0.267-0.066,0.517-0.066,0.75,0
	c0.4,0.066,0.616,0.1,0.65,0.1c0.6,0.067,1.267-0.05,2-0.35c1.1-0.467,1.716-0.717,1.85-0.75c0.267-0.066,0.55-0.083,0.85-0.05
	c0.233-0.033,0.45-0.2,0.65-0.5c0.134-0.167,0.316-0.533,0.55-1.101c0.2-0.5,0.434-0.866,0.7-1.1c0,0.366-0.033,0.934-0.1,1.7
	c0.666-1.4,1.199-2.316,1.6-2.75c0.5-0.3,0.866-0.55,1.1-0.75c0.434-0.334,0.667-0.684,0.7-1.05
	c-0.467,0.466-1.017,0.783-1.649,0.949c0.199-0.466,0.333-0.833,0.399-1.1c0.101-0.4,0.134-0.783,0.101-1.15
	c-0.634,0.034-1.534,0.417-2.7,1.15c-1.134,0.767-2.017,1.134-2.65,1.1l-0.1-0.55c-0.733,0.434-1.434,0.634-2.101,0.601H33.3
	c-0.033-0.034-0.066-0.051-0.1-0.051c-0.066-0.233-0.084-0.399-0.05-0.5c-0.2,0.034-0.4,0.017-0.601-0.05
	c-0.233-0.133-0.383-0.2-0.45-0.2L31.2,22.5c-0.733-0.066-1.184-0.083-1.351-0.05c-0.433,0.033-0.833,0.267-1.199,0.7
	c-0.233,0.3-0.45,0.533-0.65,0.699c-0.066,0.034-0.283-0.133-0.65-0.5c-0.033-0.033-0.133-0.199-0.3-0.5
	c-0.1-0.166-0.267-0.283-0.5-0.35c-0.233,0.167-0.416,0.25-0.55,0.25c-0.267-0.033-0.733-0.184-1.4-0.45c-0.533-0.2-1-0.3-1.4-0.3
	c-0.3,0-0.583-0.033-0.85-0.1c-0.333-0.134-0.617-0.233-0.85-0.301c-0.2-0.066-0.75-0.066-1.65,0c-1.133,0.101-2.233-0.133-3.3-0.7
	c-1.033-0.967-1.867-1.5-2.5-1.6c-0.667,0-1.183-0.017-1.55-0.05c-0.567-0.067-0.917-0.367-1.05-0.9c0.2,0.033,0.417,0.05,0.65,0.05
	c1.2,0,2.15,0.117,2.85,0.35c0.433,0.133,0.816,0.367,1.15,0.7c0.533,0.533,0.867,0.85,1,0.95c0.767,0.533,1.783,0.667,3.05,0.4
	c1.6-0.333,2.633-0.466,3.1-0.4c0.767,0.133,1.783,0.35,3.05,0.65c1.066,0.134,2.066-0.083,3-0.65c0.7-0.4,1.066-0.6,1.101-0.6
	c0.333-0.167,0.733-0.233,1.199-0.2c0.4,0.033,0.834,0.217,1.301,0.55c0.5,0.4,0.883,0.633,1.149,0.7c0.5,0.167,0.934,0.15,1.3-0.05
	c0.4-0.3,0.717-0.55,0.95-0.75c0.601-0.433,1.033-0.683,1.3-0.75c0.301-0.1,0.75-0.083,1.351,0.05c2.166,0.4,3.7,0.2,4.6-0.6
	c0.2-0.167,0.417-0.583,0.65-1.25c0.033-0.167,0.083-0.3,0.149-0.4c0.5-0.3,0.983-0.65,1.45-1.05
	c0.032-0.032,0.065-0.049,0.101-0.05c0.1-0.033,0.216-0.067,0.35-0.1h0.05c0.667-0.066,1.101-0.183,1.3-0.35
	c0.301-0.2,0.534-0.517,0.7-0.95c0.233-0.567,0.417-0.95,0.55-1.15c0.067-0.1,0.317-0.35,0.75-0.75c0.101-0.1,0.2-0.2,0.301-0.3
	v0.05c-0.067,1.433-0.317,2.466-0.75,3.1L48.4,16.5c-0.267,0.333-0.483,0.7-0.65,1.1C47.75,17.633,47.75,17.667,47.75,17.7z
	 M19.95,25.6c0.1,0.067,0.2,0.134,0.3,0.2c0.267,0.167,0.467,0.351,0.6,0.55C20.983,26.583,21.033,26.8,21,27v0.05
	c-0.033-0.033-0.067-0.066-0.1-0.1c-0.667-0.5-1.017-0.783-1.05-0.851c-0.434-0.399-0.667-0.816-0.7-1.25
	C19.217,24.983,19.483,25.233,19.95,25.6z"/>
<path style="fill-rule:evenodd;clip-rule:evenodd;fill:#DBB25F;" d="M13,2.55c-1.467,0.1-2.7,0.383-3.7,0.85
	c0.067-0.066,0.133-0.117,0.2-0.15c2.367-1.233,3.783-1.95,4.25-2.15c0.4-0.2,0.817-0.383,1.25-0.55c0.067,0,0.117,0,0.15,0
	c-0.267,0.3-0.7,0.65-1.3,1.05l0.65,0.15c-0.033,0.233-0.133,0.467-0.3,0.7l-0.95-0.2C13.183,2.35,13.1,2.45,13,2.55z M20.35,2.5
	c0.038,0.075,0.079,0.15,0.125,0.225C20.381,2.585,20.289,2.444,20.2,2.3C20.245,2.368,20.295,2.434,20.35,2.5z M43.55,13.8
	c-0.1,0.067-0.184,0.133-0.25,0.2c-0.434,0.333-0.7,0.533-0.8,0.6c-0.033,0-0.05,0.017-0.05,0.05c-0.167-0.167-0.334-0.417-0.5-0.75
	c-0.267-0.8-0.483-1.316-0.65-1.55c-0.033,0.6-0.149,1.25-0.35,1.95c-0.233,0.934-0.517,1.483-0.851,1.65
	c-0.333,0.133-0.566,0.017-0.699-0.35c-0.067-0.2-0.134-0.35-0.2-0.45c0.866-1.2,1.399-2.5,1.6-3.9c0.101,0,0.2,0.017,0.3,0.05
	c0.267,0.667,0.65,1.133,1.15,1.4c0-0.233,0.017-0.45,0.05-0.65c0.066,0.067,0.134,0.15,0.2,0.25
	C42.767,12.633,43.116,13.133,43.55,13.8z M44.25,13.5c-0.167,0.033-0.333,0.1-0.5,0.2c0-0.767,0.134-1.267,0.4-1.5
	c0.533-0.233,1-0.55,1.399-0.95c0.467-0.667,0.851-1.15,1.15-1.45c0.533-0.6,1.116-0.8,1.75-0.6c0.2,0.167,0.35,0.367,0.45,0.6
	c0.033,0.067,0.149,0.6,0.35,1.6c-0.033,0.133-0.083,0.267-0.15,0.4c-0.233,0.2-0.583,0.367-1.05,0.5
	c-0.533,0.167-0.85,0.3-0.95,0.4c-0.199,0.167-0.399,0.5-0.6,1v0.05c-0.017,0.03-0.033,0.055-0.05,0.075
	c-0.002-0.086-0.019-0.162-0.05-0.225c-0.067-0.2-0.267-0.5-0.601-0.9c-0.333-0.4-0.55-0.733-0.649-1
	C44.95,11.9,44.65,12.5,44.25,13.5z M44.35,17.1c0.167-0.4,0.367-0.684,0.601-0.85H45c0.033-0.033,0.066-0.05,0.1-0.05
	c0.034-0.034,0.084-0.05,0.15-0.05c0.033-0.033,0.083-0.05,0.15-0.05h0.05c0.093-0.031,0.201-0.064,0.325-0.1
	c0.038,0,0.08,0,0.125,0c-0.035,0.001-0.068,0.018-0.101,0.05C45.333,16.45,44.85,16.8,44.35,17.1z M45.95,14.45
	c0.18-0.15,0.347-0.359,0.5-0.625v0.025C46.283,14.117,46.116,14.317,45.95,14.45z M31.5,13.3c0-0.066-0.017-0.117-0.05-0.15
	c-0.033,0.017-0.067,0.034-0.101,0.05c0.64-0.503,1.057-0.803,1.25-0.9c0.334-0.167,0.9-0.35,1.7-0.55
	c0.834-0.2,1.417-0.367,1.75-0.5c0.101,0.267,0.184,0.75,0.25,1.45c0.101,0.633,0.233,1.117,0.4,1.45c0.5-1,0.967-1.217,1.399-0.65
	c0.233,0.333,0.534,0.917,0.9,1.75c-0.1,0.267-0.366,0.517-0.8,0.75c-0.667,0.333-1.2,0.367-1.601,0.1
	c-0.199-0.133-0.333-0.467-0.399-1c0-0.6-0.017-1-0.05-1.2c-0.601,0.9-1.067,1.5-1.4,1.8c-0.733,0.667-1.35,0.716-1.85,0.15
	c-0.5,0.267-0.917,0.45-1.25,0.55c-0.101-0.066-0.184-0.117-0.25-0.15L31.3,16.2c-0.033,0-0.05-0.017-0.05-0.05
	c-0.066-0.267-0.05-0.583,0.05-0.95c0.566-0.2,1.267-0.517,2.101-0.95c1.466-0.8,2.333-1.467,2.6-2h-2.25
	C32.983,12.283,32.233,12.633,31.5,13.3z M19.9,16.2v-1.1c-0.566,0.267-1,0.45-1.3,0.55c-0.267,0.1-0.483,0.1-0.65,0H17.9
	c-0.134-0.143-0.218-0.359-0.25-0.65c-0.233,0.067-0.433,0.1-0.6,0.1c-0.033-0.033-0.066-0.067-0.1-0.1
	c-0.267-0.2-0.45-0.45-0.55-0.75c-0.066-0.267-0.05-0.617,0.05-1.05c0.133-0.633,0.2-0.983,0.2-1.05c-0.133,0.1-0.316,0.2-0.55,0.3
	c0.1-0.167,0.2-0.3,0.3-0.4c0.567-0.433,1.017-0.767,1.35-1c1.5-1.033,2.517-1.65,3.05-1.85c0.267-0.1,0.8-0.184,1.6-0.25
	c0.667-0.1,1.2-0.25,1.6-0.45c-0.033,0.2-0.017,0.517,0.05,0.95L26,8.75c-0.033,0.133-0.017,0.367,0.05,0.7
	c0.033,0.333,0.033,0.566,0,0.7c0.267-0.133,0.667-0.183,1.2-0.15c0.066,2.167,0.017,3.567-0.15,4.2
	c0.601-0.767,1.25-1.317,1.95-1.65c0.033,0.133,0.101,0.383,0.2,0.75v0.05c-0.1,0.066-0.2,0.133-0.3,0.2
	c-0.533,0.4-1.267,0.934-2.2,1.6c-0.9,0.533-1.517,0.867-1.85,1c-0.967,0.4-1.383,0.217-1.25-0.55c-0.433-0.033-1.05,0.066-1.85,0.3
	c-0.483,0.142-0.908,0.234-1.275,0.275c-0.058,0.012-0.116,0.02-0.175,0.025c-0.1,0-0.184,0-0.25,0h-0.05
	C19.983,16.2,19.933,16.2,19.9,16.2z M23.75,10.25l-0.75-1c-0.967,0.1-2.167,0.667-3.6,1.7c-1.433,1-2.316,1.917-2.65,2.75
	c1.367-0.1,3.133-0.65,5.3-1.65l-0.4,0.45c0.1-0.033,0.3-0.033,0.6,0c0.333,0.067,0.583,0.067,0.75,0
	c-0.067,0.4-0.05,1.05,0.05,1.95c1.3,0.167,2.351-0.567,3.15-2.2c-0.101,0.033-0.283,0.017-0.55-0.05
	c-0.301-0.034-0.5-0.05-0.601-0.05c-0.066-0.433-0.083-0.733-0.05-0.9c-0.1,0.033-0.3,0.033-0.6,0
	c-0.267-0.067-0.467-0.083-0.6-0.05C23.733,10.767,23.717,10.45,23.75,10.25z M14.1,9.5c1.667-1.233,2.633-1.9,2.9-2l-0.75-1.75
	c-0.233,0.233-1.167,0.95-2.8,2.15c-1.2,0.9-2.05,1.7-2.55,2.4C11.767,10.7,12.833,10.433,14.1,9.5z M18.7,8.25L17,8.75
	c-1.9,0.8-3.033,1.867-3.4,3.2c0.367-0.034,0.733-0.1,1.1-0.2c-0.3,0.167-0.717,0.417-1.25,0.75c-0.7,0.4-1.333,0.633-1.9,0.7
	c-1.033,0.133-1.533-0.05-1.5-0.55c0.2-0.733,0.233-1.3,0.1-1.7c-0.433,0.367-0.933,0.5-1.5,0.4C8.617,10.983,8.733,10.567,9,10.1
	c-0.233,0.066-0.883,0.35-1.95,0.85c-0.066,0.033-0.133,0.066-0.2,0.1c-0.033-0.033-0.067-0.066-0.1-0.1
	c-0.2-0.2-0.367-0.317-0.5-0.35h-0.7l-0.1-0.15c4.767-0.667,7.533-2.233,8.3-4.7v-0.5c-1.133,0.067-2.683,0.733-4.65,2
	c-1.767,1.133-3,2.167-3.7,3.1L5.35,10.3c-0.033-0.033-0.1-0.066-0.2-0.1c0.133-0.467,0.4-0.934,0.8-1.4
	c0.6-0.7,1.233-1.15,1.9-1.35c-1.167,0.233-2.1,0.316-2.8,0.25C5.017,7.5,5.067,7.017,5.2,6.25c0.066-0.067,0.133-0.133,0.2-0.2
	c0.267-0.233,0.533-0.433,0.8-0.6c0.1-0.1,0.183-0.167,0.25-0.2L7.1,4.8c-0.7,0.633-1.367,1.434-2,2.4c0.967-0.1,2.433-0.767,4.4-2
	c1.633-1.067,2.8-1.95,3.5-2.65c0.367-0.033,0.75-0.05,1.15-0.05c-0.467,0.567-1.383,1.2-2.75,1.9C9.233,5.5,7.95,6.333,7.55,6.9
	C10.417,5.667,12.9,5.033,15,5c-0.067,0.167-0.133,0.383-0.2,0.65c-0.1,0.233-0.25,0.434-0.45,0.6c1-0.533,1.8-0.9,2.4-1.1
	c0.667-0.233,1.5-0.367,2.5-0.4c0.533,0.933,0.517,1.583-0.05,1.95C18,7.533,17.383,7.967,17.35,8c0.367-0.167,0.9-0.25,1.6-0.25
	C18.917,7.883,18.833,8.05,18.7,8.25z"/>
<path style="fill-rule:evenodd;clip-rule:evenodd;fill:#BB9C5C;" d="M25.15,23.2L25.4,23.1c0,0.101,0,0.217,0,0.351
	c0.033,0.399,0.183,0.967,0.449,1.7c0.334,0.966,0.467,1.699,0.4,2.199c-0.566-0.833-0.967-1.433-1.2-1.8
	c-0.4-0.666-0.583-1.399-0.55-2.2L25.15,23.2z M21.75,23.35l0.75,0.4c0.067,0.4,0.333,0.8,0.8,1.2c0.233,0.233,0.6,0.55,1.1,0.95
	c0.434,0.399,0.933,0.966,1.5,1.699c-0.801-0.1-1.684-0.633-2.65-1.6C22.217,25,21.717,24.116,21.75,23.35z M31.65,24.55
	c0.466-0.434,0.85-0.633,1.149-0.6c-0.467,1.1-0.85,1.85-1.149,2.25c-0.634,0.833-1.334,1.184-2.101,1.05
	c-0.066,0.167-0.133,0.267-0.2,0.3L29.15,27.7c-0.101-0.634-0.184-1.117-0.25-1.45c-0.101-0.634,0.017-1.017,0.35-1.15l0.4,0.25
	c-0.233-0.166-0.317-0.333-0.25-0.5c0.666-0.133,1.033,0.034,1.1,0.5C30.733,25.283,31.116,25.017,31.65,24.55z M19.45,25.05
	c-0.133-0.1-0.25-0.2-0.35-0.3c-0.033-0.066-0.083-0.15-0.15-0.25c-0.233-0.467-0.333-0.934-0.3-1.4l1-0.35
	c0.2,0.134,0.367,0.333,0.5,0.6c0.1,0.167,0.217,0.4,0.35,0.7c0.1,0.167,0.283,0.45,0.55,0.851c0.267,0.399,0.383,0.716,0.35,0.949
	c-0.566-0.1-1.017-0.416-1.35-0.949L20,25.2C19.8,25.2,19.617,25.15,19.45,25.05z M32.3,27.95c0.033-0.334,0.2-0.783,0.5-1.351
	c0.334-0.666,0.533-1.116,0.601-1.35l1.75-0.65c0.066,0.634-0.217,1.367-0.851,2.2C33.634,27.634,32.967,28.017,32.3,27.95z"/>
<path style="fill-rule:evenodd;clip-rule:evenodd;fill:#C79E4C;" d="M42.3,12.05c0.134-0.966,0.533-1.8,1.2-2.5
	c0.866-0.9,1.934-1.267,3.2-1.1c0.767,0.1,1.35,0.35,1.75,0.75c-0.634-0.2-1.217,0-1.75,0.6c-0.3,0.3-0.684,0.784-1.15,1.45
	c-0.399,0.4-0.866,0.717-1.399,0.95c-0.267,0.233-0.4,0.733-0.4,1.5c-0.066,0.033-0.134,0.066-0.2,0.1
	c-0.434-0.667-0.783-1.167-1.05-1.5C42.434,12.2,42.366,12.117,42.3,12.05z M41.1,11.3c-0.1-0.033-0.199-0.05-0.3-0.05
	c-0.2,1.4-0.733,2.7-1.6,3.9c0.066,0.1,0.133,0.25,0.2,0.45c0.133,0.367,0.366,0.483,0.699,0.35c0.334-0.167,0.617-0.717,0.851-1.65
	c0.2-0.7,0.316-1.35,0.35-1.95c0.167,0.233,0.384,0.75,0.65,1.55c0.166,0.333,0.333,0.583,0.5,0.75c-0.3,0.033-0.566-0.1-0.8-0.4
	c-0.134,0.167-0.317,0.517-0.551,1.05c-0.199,0.434-0.433,0.75-0.699,0.95c-0.267,0.167-0.617,0.283-1.051,0.35
	c-0.133-0.067-0.233-0.117-0.3-0.15c-0.633-0.233-1.483-0.117-2.55,0.35c-0.5-0.1-0.783-0.4-0.85-0.9
	c-0.233,0.067-0.45,0.25-0.65,0.55c-0.233,0.367-0.4,0.583-0.5,0.65c-0.1,0.066-0.417,0.1-0.95,0.1
	c-0.133,0.033-0.233,0.066-0.3,0.1c-0.066-0.033-0.134-0.066-0.2-0.1l-1.1-0.65c-0.101-0.066-0.2-0.117-0.3-0.15
	c0.333-0.1,0.75-0.283,1.25-0.55c0.5,0.566,1.116,0.517,1.85-0.15c0.333-0.3,0.8-0.9,1.4-1.8c0.033,0.2,0.05,0.6,0.05,1.2
	c0.066,0.533,0.2,0.867,0.399,1c0.4,0.267,0.934,0.233,1.601-0.1c0.434-0.233,0.7-0.483,0.8-0.75c-0.366-0.833-0.667-1.417-0.9-1.75
	c-0.433-0.567-0.899-0.35-1.399,0.65c-0.167-0.333-0.3-0.816-0.4-1.45c-0.066-0.7-0.149-1.184-0.25-1.45
	c-0.333,0.133-0.916,0.3-1.75,0.5c-0.8,0.2-1.366,0.383-1.7,0.55c-0.193,0.097-0.61,0.397-1.25,0.9
	c-0.012,0.016-0.028,0.033-0.05,0.05c-0.434,0.167-0.967,0.533-1.6,1.1c-0.767,0.7-1.316,1.133-1.65,1.3
	c-0.866,0.567-1.533,0.934-2,1.1c-0.633,0.267-1.383,0.233-2.25-0.1c-1.066-0.4-1.833-0.583-2.3-0.55
	c-0.377,0.027-0.702,0.052-0.975,0.075c0.367-0.041,0.792-0.133,1.275-0.275c0.8-0.233,1.417-0.333,1.85-0.3
	c-0.133,0.767,0.283,0.95,1.25,0.55c0.333-0.133,0.95-0.467,1.85-1c0.934-0.667,1.667-1.2,2.2-1.6c0.1-0.066,0.2-0.133,0.3-0.2V13.3
	c-0.1-0.367-0.167-0.617-0.2-0.75c-0.7,0.333-1.35,0.883-1.95,1.65c0.167-0.633,0.217-2.034,0.15-4.2
	c-0.533-0.033-0.934,0.017-1.2,0.15c0.033-0.133,0.033-0.367,0-0.7c-0.066-0.333-0.083-0.567-0.05-0.7l-1.95,0.7
	C23.983,9.017,23.967,8.7,24,8.5c-0.4,0.2-0.933,0.35-1.6,0.45c-0.8,0.066-1.333,0.15-1.6,0.25c-0.533,0.2-1.55,0.816-3.05,1.85
	c-0.333,0.233-0.783,0.567-1.35,1c-0.1,0.1-0.2,0.233-0.3,0.4c-0.333,0.133-0.733,0.25-1.2,0.35C14,13,13.367,13.133,13,13.2
	l-1.6,0.35c-0.6,0.067-1.1-0.083-1.5-0.45c-0.133-0.133-0.316-0.417-0.55-0.85c-0.2-0.4-0.383-0.65-0.55-0.75
	c-0.2-0.1-0.466-0.15-0.8-0.15c-0.4,0.033-0.667,0.017-0.8-0.05c-0.1-0.033-0.217-0.117-0.35-0.25c0.066-0.033,0.133-0.066,0.2-0.1
	c1.067-0.5,1.717-0.784,1.95-0.85c-0.267,0.467-0.383,0.883-0.35,1.25c0.567,0.1,1.067-0.033,1.5-0.4c0.133,0.4,0.1,0.966-0.1,1.7
	c-0.033,0.5,0.467,0.684,1.5,0.55c0.567-0.067,1.2-0.3,1.9-0.7c0.533-0.333,0.95-0.583,1.25-0.75c0.2-0.133,0.35-0.217,0.45-0.25
	c0.133-0.067,0.317-0.117,0.55-0.15c0.466-0.2,0.933-0.45,1.4-0.75c1.367-0.867,2.167-1.733,2.4-2.6l-0.8,0.25
	c0.133-0.2,0.216-0.367,0.25-0.5c-0.7,0-1.233,0.083-1.6,0.25C17.383,7.967,18,7.533,19.2,6.7c0.566-0.367,0.583-1.017,0.05-1.95
	c-1,0.033-1.833,0.167-2.5,0.4c-0.6,0.2-1.4,0.567-2.4,1.1c0.2-0.167,0.35-0.367,0.45-0.6C14.867,5.383,14.933,5.167,15,5
	c-2.1,0.033-4.583,0.667-7.45,1.9c0.4-0.566,1.684-1.4,3.85-2.5c1.367-0.7,2.283-1.333,2.75-1.9c0.1,0,0.217,0,0.35,0l-0.3-0.05
	c0.167-0.233,0.267-0.467,0.3-0.7L13.85,1.6c0.6-0.4,1.033-0.75,1.3-1.05c0.133,0,0.267-0.033,0.4-0.1c0.034,0,0.083,0,0.15,0
	c0.066,0,0.15,0,0.25,0c0.667,0,1.117,0.05,1.35,0.15c0.233,0.066,0.817,0.133,1.75,0.2c0.034,0,0.083,0.017,0.15,0.05l0.05,0.05
	h0.05c-0.667,1.733-2.883,2.983-6.65,3.75c1.067,0.133,2.434,0.017,4.1-0.35c0.933-0.233,2.317-0.566,4.15-1l0.2,0.25l0.05,0.05
	c0.333,0.4,0.684,0.783,1.05,1.15C22,5.683,21.75,6.367,21.45,6.8c-0.534,0.934-1,1.567-1.4,1.9c0.333-0.067,1-0.367,2-0.9
	c1.167-0.633,2.017-1.05,2.55-1.25c0.167,0.067,0.316,0.133,0.45,0.2c0.934,0.467,1.917,0.867,2.95,1.2L28.05,8l1,1.2
	c0.134,0.167,0.351,0.25,0.65,0.25c0.233,0,0.434,0.183,0.6,0.55c0.033,0.067-0.133,0.633-0.5,1.7c0.834-0.167,2.15-0.767,3.95-1.8
	c0.366-0.133,0.884-0.383,1.55-0.75c1.167,0,2.483-0.05,3.95-0.15c0.1,0.567,0.116,1.283,0.05,2.15
	c-0.066,0.5-0.149,1.184-0.25,2.05c0.467-0.1,0.816-0.5,1.05-1.2c0.334-0.933,0.584-1.5,0.75-1.7C40.917,10.667,41,11,41.1,11.3z
	 M20.9,3.3C20.574,2.897,20.274,2.48,20,2.05c0.026,0.023,0.051,0.048,0.075,0.075c0.014,0.022,0.031,0.047,0.05,0.075l0.025,0.025
	L20.2,2.3c0.089,0.144,0.181,0.286,0.275,0.425C20.518,2.784,20.559,2.842,20.6,2.9L20.9,3.3z M49.25,11.4
	c0,0.067,0.017,0.133,0.05,0.2c-0.033,0.033-0.066,0.083-0.1,0.15h-0.05L49.1,11.8C49.167,11.667,49.217,11.533,49.25,11.4z
	 M45.075,14.675c-0.09-0.012-0.182-0.037-0.275-0.075c0.101-0.067,0.184-0.133,0.25-0.2c0.4-0.333,0.55-0.667,0.45-1
	c-0.733,0.033-1.134,0.067-1.2,0.1h-0.05c0.4-1,0.7-1.6,0.9-1.8c0.1,0.267,0.316,0.6,0.649,1c0.334,0.4,0.533,0.7,0.601,0.9
	c0.031,0.063,0.048,0.139,0.05,0.225c-0.153,0.266-0.32,0.475-0.5,0.625l-0.2,0.1L45.3,14.7L45.075,14.675z M21.25,3.75
	c0.067,0.333,0.083,0.567,0.05,0.7c0.133-0.034,0.333-0.017,0.6,0.05L21.25,3.75z M17.9,15.65c-0.069-0.069-0.119-0.119-0.15-0.15
	c-0.333-0.2-0.567-0.333-0.7-0.4c0.167,0,0.367-0.033,0.6-0.1C17.682,15.291,17.766,15.507,17.9,15.65z M17.95,15.65
	c0.167,0.1,0.383,0.1,0.65,0c0.3-0.1,0.733-0.283,1.3-0.55v1.1c-0.167,0-0.3,0-0.4,0C18.967,16.167,18.45,15.983,17.95,15.65z
	 M5.15,10.2c-0.2-0.067-0.483-0.1-0.85-0.1c0.333-0.367,0.85-0.983,1.55-1.85C5.083,8.45,4.433,8.433,3.9,8.2
	c0-0.534,0.167-1.017,0.5-1.45c0.1-0.1,0.2-0.183,0.3-0.25c0.167-0.133,0.4-0.283,0.7-0.45c-0.066,0.067-0.133,0.133-0.2,0.2
	C5.067,7.017,5.017,7.5,5.05,7.7c0.7,0.066,1.633-0.017,2.8-0.25c-0.667,0.2-1.3,0.65-1.9,1.35C5.55,9.267,5.283,9.733,5.15,10.2z"
	/>
<path style="fill-rule:evenodd;clip-rule:evenodd;fill:#9F7F3D;" d="M42.3,12.05c-0.033,0.2-0.05,0.417-0.05,0.65
	c-0.5-0.267-0.884-0.733-1.15-1.4c-0.1-0.3-0.183-0.633-0.25-1c-0.166,0.2-0.416,0.767-0.75,1.7c-0.233,0.7-0.583,1.1-1.05,1.2
	c0.101-0.867,0.184-1.55,0.25-2.05c0.066-0.867,0.05-1.583-0.05-2.15c1.7-0.133,3.616-0.35,5.75-0.65C46.566,8.117,47.483,8,47.75,8
	c0.134,0,0.283,0.017,0.45,0.05c0.7,0.034,1.217,0.25,1.55,0.65c0.033,0.033,0.066,0.066,0.1,0.1c0,0.034,0.017,0.083,0.051,0.15
	h0.05L50,9.05V9.1c0.033,0.066,0.066,0.133,0.1,0.2c0.067,0.233,0.101,0.483,0.101,0.75c-0.033,0.034-0.05,0.067-0.05,0.1L49.75,11
	c-0.167,0.2-0.316,0.4-0.45,0.6c-0.033-0.067-0.05-0.133-0.05-0.2c-0.2-1-0.316-1.533-0.35-1.6c-0.101-0.233-0.25-0.433-0.45-0.6
	c-0.4-0.4-0.983-0.65-1.75-0.75c-1.267-0.167-2.334,0.2-3.2,1.1C42.833,10.25,42.434,11.083,42.3,12.05z M20,2.05
	c0.274,0.431,0.574,0.848,0.9,1.25c-1.833,0.434-3.217,0.767-4.15,1c-1.667,0.367-3.033,0.483-4.1,0.35
	c3.767-0.767,5.983-2.017,6.65-3.75v0.05c0.034,0.033,0.083,0.066,0.15,0.1V1.1l0.45,0.8C19.933,1.949,19.966,1.999,20,2.05z
	 M28,7.95c0.267,0.1,0.533,0.183,0.8,0.25l2.9,0.6c1.133,0.167,2.333,0.267,3.6,0.3v0.05c-0.666,0.367-1.184,0.617-1.55,0.75
	c-1.8,1.033-3.116,1.633-3.95,1.8c0.367-1.067,0.533-1.633,0.5-1.7c-0.166-0.367-0.366-0.55-0.6-0.55c-0.3,0-0.517-0.083-0.65-0.25
	l-1-1.2L28,7.95z M22.2,4.75c0.767,0.7,1.583,1.283,2.45,1.75L24.6,6.55c-0.533,0.2-1.383,0.617-2.55,1.25
	c-1,0.534-1.667,0.833-2,0.9c0.4-0.333,0.867-0.967,1.4-1.9C21.75,6.367,22,5.683,22.2,4.75z M39.35,16.6
	c0.434-0.067,0.784-0.184,1.051-0.35c0.267-0.2,0.5-0.517,0.699-0.95c0.233-0.533,0.417-0.883,0.551-1.05
	c0.233,0.3,0.5,0.433,0.8,0.4c0-0.033,0.017-0.05,0.05-0.05c0.1-0.067,0.366-0.267,0.8-0.6c0.066-0.067,0.15-0.133,0.25-0.2
	c0.066-0.033,0.134-0.066,0.2-0.1c0.167-0.1,0.333-0.167,0.5-0.2h0.05c0.066-0.033,0.467-0.067,1.2-0.1c0.1,0.333-0.05,0.667-0.45,1
	c-0.066,0.067-0.149,0.133-0.25,0.2h-0.05c-0.467-0.167-0.783-0.233-0.95-0.2c-0.566,0.1-1.033,0.5-1.399,1.2
	c-0.4,0.8-0.717,1.267-0.95,1.4c-0.367,0.2-0.783,0.217-1.25,0.05C39.833,16.85,39.55,16.7,39.35,16.6z M33.25,17.3
	c0.066-0.033,0.167-0.066,0.3-0.1c0.533,0,0.851-0.034,0.95-0.1c0.1-0.067,0.267-0.283,0.5-0.65c0.2-0.3,0.417-0.483,0.65-0.55
	c0.066,0.5,0.35,0.8,0.85,0.9c-0.1,0.034-0.2,0.083-0.3,0.15C35.066,17.517,34.083,17.633,33.25,17.3z M31.35,13.2
	c0.033-0.017,0.067-0.033,0.101-0.05c0.033,0.033,0.05,0.083,0.05,0.15c0.066,0.367,0.017,0.9-0.15,1.6
	c-0.033,0.1-0.05,0.2-0.05,0.3c-0.1,0.367-0.116,0.683-0.05,0.95c-0.3-0.133-0.583-0.233-0.85-0.3H29.55
	c-0.066,0.033-0.133,0.05-0.2,0.05c-0.433,0.1-0.883,0.383-1.35,0.85l0.15-0.05c-0.2,0.133-0.384,0.3-0.551,0.5
	c-0.399,0.433-0.85,0.7-1.35,0.8c-0.2,0.033-0.4,0.05-0.6,0.05c-0.634-0.033-1.284-0.25-1.95-0.65c-0.867-0.566-1.45-0.9-1.75-1
	c-0.434-0.133-0.867-0.066-1.3,0.2c-0.6,0.4-1,0.617-1.2,0.65c-0.967,0.2-2.034-0.367-3.2-1.7c-1.2-1.4-2.2-2.033-3-1.9
	c-0.1,0.033-0.6,0.317-1.5,0.85c-0.633,0.367-1.183,0.4-1.65,0.1c-0.2-0.133-0.467-0.55-0.8-1.25C9,12.717,8.65,12.333,8.25,12.2
	h-0.1c-0.163-0.065-0.338-0.099-0.525-0.1c0.054,0.002,0.112,0.019,0.175,0.05c-0.233-0.033-0.483-0.017-0.75,0.05
	c-0.3,0.066-0.617-0.15-0.95-0.65L5.55,10.6h0.7c0.133,0.033,0.3,0.15,0.5,0.35c0.033,0.033,0.067,0.066,0.1,0.1
	c0.133,0.133,0.25,0.217,0.35,0.25c0.133,0.067,0.4,0.083,0.8,0.05c0.333,0,0.6,0.05,0.8,0.15c0.167,0.1,0.35,0.35,0.55,0.75
	c0.233,0.433,0.417,0.717,0.55,0.85c0.4,0.367,0.9,0.517,1.5,0.45L13,13.2c0.367-0.067,1-0.2,1.9-0.4
	c0.467-0.1,0.867-0.216,1.2-0.35c0.233-0.1,0.417-0.2,0.55-0.3c0,0.067-0.066,0.417-0.2,1.05c-0.1,0.433-0.117,0.783-0.05,1.05
	c0.1,0.3,0.283,0.55,0.55,0.75c0.033,0.033,0.066,0.067,0.1,0.1c0.133,0.066,0.367,0.2,0.7,0.4c0.031,0.031,0.081,0.081,0.15,0.15
	h0.05c0.5,0.333,1.017,0.517,1.55,0.55c0.1,0,0.233,0,0.4,0c0.033,0,0.083,0,0.15,0h0.05c0.066,0,0.15,0,0.25,0
	c0.059-0.005,0.117-0.014,0.175-0.025c0.273-0.023,0.598-0.048,0.975-0.075c0.467-0.033,1.233,0.15,2.3,0.55
	c0.867,0.333,1.617,0.367,2.25,0.1c0.467-0.167,1.134-0.533,2-1.1c0.334-0.167,0.884-0.6,1.65-1.3c0.633-0.567,1.166-0.934,1.6-1.1
	C31.321,13.233,31.338,13.216,31.35,13.2z M21.25,3.75L21.9,4.5c-0.267-0.067-0.467-0.083-0.6-0.05
	C21.333,4.317,21.317,4.083,21.25,3.75z M4.4,6.75C4.067,7.183,3.9,7.667,3.9,8.2c0.533,0.233,1.184,0.25,1.95,0.05
	C5.15,9.117,4.633,9.733,4.3,10.1c-0.133-0.033-0.25-0.05-0.35-0.05v-1.5c-0.034-0.2-0.167-0.267-0.4-0.2
	c-0.167,0.033-0.2-0.117-0.1-0.45C3.55,7.567,3.867,7.183,4.4,6.75z"/>
<path style="fill-rule:evenodd;clip-rule:evenodd;fill:#E9C67C;" d="M9.3,3.4c1-0.467,2.233-0.75,3.7-0.85
	c0.1-0.1,0.183-0.2,0.25-0.3l0.95,0.2l0.3,0.05c-0.133,0-0.25,0-0.35,0c-0.4,0-0.783,0.017-1.15,0.05c-0.7,0.7-1.867,1.583-3.5,2.65
	c-1.967,1.233-3.433,1.9-4.4,2c0.633-0.967,1.3-1.767,2-2.4l0.2-0.15c0.567-0.5,1.167-0.9,1.8-1.2C9.167,3.417,9.233,3.4,9.3,3.4z
	 M31.3,15.2c0-0.1,0.017-0.2,0.05-0.3c0.167-0.7,0.217-1.233,0.15-1.6c0.733-0.667,1.483-1.017,2.25-1.05H36
	c-0.267,0.533-1.134,1.2-2.6,2C32.566,14.683,31.866,15,31.3,15.2z M23.75,10.25c-0.033,0.2-0.017,0.517,0.05,0.95
	c0.133-0.034,0.333-0.017,0.6,0.05c0.3,0.033,0.5,0.033,0.6,0c-0.033,0.167-0.017,0.467,0.05,0.9c0.101,0,0.3,0.017,0.601,0.05
	c0.267,0.066,0.449,0.083,0.55,0.05c-0.8,1.633-1.85,2.367-3.15,2.2c-0.1-0.9-0.117-1.55-0.05-1.95c-0.167,0.067-0.417,0.067-0.75,0
	c-0.3-0.033-0.5-0.033-0.6,0l0.4-0.45c-2.167,1-3.933,1.55-5.3,1.65c0.333-0.833,1.217-1.75,2.65-2.75
	c1.434-1.034,2.633-1.6,3.6-1.7L23.75,10.25z M5.45,10.45l-0.05-0.1c0.7-0.934,1.934-1.967,3.7-3.1c1.967-1.267,3.517-1.933,4.65-2
	v0.5C12.983,8.217,10.217,9.783,5.45,10.45z M18.7,8.25L19.5,8c-0.233,0.867-1.033,1.733-2.4,2.6c-0.467,0.3-0.934,0.55-1.4,0.75
	c-0.233,0.033-0.417,0.083-0.55,0.15c-0.1,0.033-0.25,0.117-0.45,0.25c-0.367,0.1-0.733,0.167-1.1,0.2c0.367-1.333,1.5-2.4,3.4-3.2
	L18.7,8.25z M14.1,9.5c-1.267,0.933-2.333,1.2-3.2,0.8c0.5-0.7,1.35-1.5,2.55-2.4c1.633-1.2,2.566-1.917,2.8-2.15L17,7.5
	C16.733,7.6,15.767,8.267,14.1,9.5z"/>
<path style="fill-rule:evenodd;clip-rule:evenodd;fill:#F5DB85;" d="M3.3,13.25c0.133,0.233,0.2,0.517,0.2,0.85
	c0.133-1.2-0.083-1.95-0.65-2.25c-0.167-0.067-0.5-0.083-1-0.05c-0.833,0.034-1.267,0.05-1.3,0.05c-0.066-0.233-0.117-0.6-0.15-1.1
	c-0.1-0.833-0.15-1.267-0.15-1.3C0.05,8.75-0.033,8.317,0,8.15C0.033,7.783,0.283,7.433,0.75,7.1c0.633-0.233,1.067-0.417,1.3-0.55
	C2.283,6.45,2.5,6.367,2.7,6.3C1.967,7.167,1.85,7.917,2.35,8.55c0.133,0.167,0.333,0.284,0.6,0.35C3.117,8.967,3.233,9.133,3.3,9.4
	c0.133,0.4,0.034,0.967-0.3,1.7c0.233,0.133,0.5,0.083,0.8-0.15c0.3-0.267,0.567-0.367,0.8-0.3c0.1,0.033,0.267,0.2,0.5,0.5
	c0.233,0.267,0.383,0.467,0.45,0.6c0.067,0.1,0.1,0.35,0.1,0.75c0,0.333,0.067,0.583,0.2,0.75c0.267,0.333,0.517,0.35,0.75,0.05
	c0.2-0.233,0.35-0.6,0.45-1.1c0.267-0.067,0.517-0.083,0.75-0.05c0.333,0.067,0.567,0.267,0.7,0.6c0.067,0.167,0.167,0.617,0.3,1.35
	c0.067,0.3,0.1,0.65,0.1,1.05c0.033,0.267,0.233,0.467,0.6,0.6c0.4,0.167,0.833,0.1,1.3-0.2c0.5-0.367,0.883-0.633,1.15-0.8
	c0.7-0.433,1.25-0.6,1.65-0.5c0.433,0.1,0.833,0.517,1.2,1.25c0.233,0.433,0.4,0.967,0.5,1.6c0.167,0.433,0.633,0.683,1.4,0.75
	c0.7,0.066,1.383,0.017,2.05-0.15c0.333-0.067,0.75-0.25,1.25-0.55c0.533-0.3,0.917-0.483,1.15-0.55c0.6-0.233,1.184-0.033,1.75,0.6
	c0.7,0.8,1.217,1.233,1.55,1.3c0.566,0.1,1.166-0.067,1.8-0.5c0.5-0.1,0.95-0.367,1.35-0.8c0.167-0.2,0.351-0.367,0.551-0.5
	l0.649-0.35c0.767-0.267,1.434-0.133,2,0.4c0.867,0.867,1.434,1.35,1.7,1.45l0.1,0.05c0.067,0.7-0.216,0.967-0.85,0.8
	c-0.833-0.3-1.434-0.483-1.8-0.55c-0.4-0.067-1.084,0.05-2.05,0.35c-1.267,0.4-1.917,0.6-1.95,0.6c-0.667,0.2-1.317,0.3-1.95,0.3
	c-2.567,0.3-4.317,0.417-5.25,0.35c-0.633-0.067-1.15-0.267-1.55-0.6c-0.6-0.567-1.067-0.95-1.4-1.15
	c-1.433-0.8-2.65-1.184-3.65-1.15c-0.433,0.066-0.75,0.1-0.95,0.1c-0.3,0-0.6-0.066-0.9-0.2c-0.767-0.533-1.367-0.9-1.8-1.1
	c-0.633-0.267-1.283-0.25-1.95,0.05c0.133,0,0.25,0,0.35,0C6,16.183,5.283,16.233,4.75,16.2c-0.9-0.067-1.333-0.4-1.3-1
	C3.483,14.167,3.433,13.517,3.3,13.25z M45.9,16c-0.045,0-0.087,0-0.125,0c0.138-0.031,0.297-0.064,0.475-0.1
	C46.116,15.933,46,15.967,45.9,16z M44.8,14.6c0.094,0.038,0.186,0.063,0.275,0.075c-0.101-0.011-0.209-0.036-0.325-0.075H44.8z
	 M41.55,18.25c0.066,0.133,0.233,0.267,0.5,0.4c0.2,0.133,0.316,0.3,0.351,0.5l-1.351,0.1c-0.399,0-0.8-0.05-1.2-0.15
	c-0.433-0.133-0.8-0.25-1.1-0.35c-0.434-0.1-0.884-0.1-1.35,0c-0.733,0.2-1.184,0.3-1.351,0.3c-0.366,0.034-0.633,0-0.8-0.1
	c-0.2-0.2-0.4-0.383-0.6-0.55l-0.301-0.25c0.467-0.3,0.917-0.533,1.351-0.7c0.333-0.133,0.717-0.2,1.149-0.2
	c0.233,0,0.617,0.033,1.15,0.1l2.5,0.05c0.233,0,0.467,0.017,0.7,0.05c0.2-0.034,0.434-0.133,0.7-0.3L42.6,16.6
	c0.233-0.233,0.5-0.317,0.801-0.25c0.1,0.5-0.067,0.933-0.5,1.3C42.533,17.95,42.083,18.15,41.55,18.25z"/>
<path style="fill-rule:evenodd;clip-rule:evenodd;fill:#CAB262;" d="M11.45,18.35L11.3,18.3c-0.167-0.033-0.3-0.066-0.4-0.1
	c-0.033-0.034-0.066-0.05-0.1-0.05c-0.1-0.066-0.2-0.117-0.3-0.15l-0.05-0.05c-0.4-0.434-0.85-0.85-1.35-1.25
	c-0.633-0.5-1.367-0.717-2.2-0.65c-0.1,0-0.217,0-0.35,0c0.667-0.3,1.317-0.316,1.95-0.05c0.433,0.2,1.033,0.567,1.8,1.1
	c0.3,0.133,0.6,0.2,0.9,0.2c0.2,0,0.517-0.033,0.95-0.1c1-0.034,2.217,0.35,3.65,1.15c0.333,0.2,0.8,0.583,1.4,1.15
	c0.4,0.333,0.917,0.533,1.55,0.6c0.933,0.066,2.683-0.05,5.25-0.35c0.633,0,1.283-0.1,1.95-0.3c0.033,0,0.684-0.2,1.95-0.6
	c0.966-0.3,1.649-0.417,2.05-0.35c0.366,0.067,0.967,0.25,1.8,0.55c0.634,0.167,0.917-0.1,0.85-0.8l-0.1-0.05
	c-0.267-0.1-0.833-0.583-1.7-1.45c-0.566-0.533-1.233-0.667-2-0.4L28.15,16.7L28,16.75c0.467-0.467,0.917-0.75,1.35-0.85
	c0.067,0,0.134-0.017,0.2-0.05H30.4c0.267,0.066,0.55,0.167,0.85,0.3c0,0.033,0.017,0.05,0.05,0.05l0.101,0.05
	c0.066,0.033,0.149,0.083,0.25,0.15c0.1,0.033,0.199,0.083,0.3,0.15l1.1,0.65c0.066,0.033,0.134,0.066,0.2,0.1
	c0.833,0.333,1.816,0.217,2.95-0.35c0.1-0.067,0.2-0.117,0.3-0.15c1.066-0.466,1.917-0.583,2.55-0.35
	c0.066,0.033,0.167,0.083,0.3,0.15c0.2,0.1,0.483,0.25,0.851,0.45c0.467,0.167,0.883,0.15,1.25-0.05c0.233-0.133,0.55-0.6,0.95-1.4
	c0.366-0.7,0.833-1.1,1.399-1.2c0.167-0.033,0.483,0.033,0.95,0.2c0.116,0.039,0.225,0.063,0.325,0.075L45.3,14.7l0.45-0.15l0.2-0.1
	c0.166-0.133,0.333-0.333,0.5-0.6v-0.025c0.017-0.021,0.033-0.045,0.05-0.075V13.7c0.2-0.5,0.4-0.833,0.6-1
	c0.101-0.1,0.417-0.233,0.95-0.4c0.467-0.133,0.816-0.3,1.05-0.5l0.051-0.05h0.05c0.033-0.067,0.066-0.117,0.1-0.15
	c0.134-0.2,0.283-0.4,0.45-0.6l0.4-0.85c0-0.033,0.017-0.066,0.05-0.1c0.066-0.2,0.133-0.4,0.2-0.6c0,0.066,0.017,0.133,0.05,0.2
	c0,0.1,0,0.2,0,0.3c0,0.2,0,0.4,0,0.6c-0.033,0.4-0.101,0.784-0.2,1.15c-0.033,0.066-0.05,0.15-0.05,0.25
	c-0.101,0.167-0.2,0.316-0.3,0.45c-0.101,0.1-0.2,0.2-0.301,0.3c-0.433,0.4-0.683,0.65-0.75,0.75c-0.133,0.2-0.316,0.583-0.55,1.15
	c-0.166,0.433-0.399,0.75-0.7,0.95c-0.199,0.167-0.633,0.284-1.3,0.35h-0.05c-0.178,0.036-0.337,0.069-0.475,0.1
	c-0.124,0.036-0.232,0.069-0.325,0.1H45.4c-0.067,0-0.117,0.017-0.15,0.05c-0.066,0-0.116,0.017-0.15,0.05
	c-0.033,0-0.066,0.017-0.1,0.05h-0.05c-0.233,0.167-0.434,0.45-0.601,0.85c-0.066,0.1-0.116,0.233-0.149,0.4
	c-0.233,0.667-0.45,1.083-0.65,1.25c-0.899,0.8-2.434,1-4.6,0.6C38.35,19.217,37.9,19.2,37.6,19.3
	c-0.267,0.067-0.699,0.317-1.3,0.75c-0.233,0.2-0.55,0.45-0.95,0.75c-0.366,0.2-0.8,0.217-1.3,0.05
	c-0.267-0.067-0.649-0.3-1.149-0.7c-0.467-0.333-0.9-0.517-1.301-0.55c-0.466-0.033-0.866,0.033-1.199,0.2
	c-0.034,0-0.4,0.2-1.101,0.6c-0.934,0.567-1.934,0.784-3,0.65c-1.267-0.3-2.283-0.517-3.05-0.65c-0.467-0.066-1.5,0.067-3.1,0.4
	c-1.267,0.267-2.283,0.133-3.05-0.4c-0.133-0.1-0.467-0.417-1-0.95c-0.333-0.333-0.717-0.567-1.15-0.7
	c-0.7-0.233-1.65-0.35-2.85-0.35C11.867,18.4,11.65,18.383,11.45,18.35z M2.7,6.3V6.25C2.933,6.15,3.133,6.067,3.3,6
	c0.167-0.1,0.317-0.2,0.45-0.3c1.1-0.567,2.267-0.917,3.5-1.05H7.3L7.1,4.8L6.45,5.25C6.383,5.283,6.3,5.35,6.2,5.45
	c-0.267,0.167-0.534,0.367-0.8,0.6C5.1,6.217,4.867,6.367,4.7,6.5C4.6,6.567,4.5,6.65,4.4,6.75C3.867,7.183,3.55,7.567,3.45,7.9
	c-0.1,0.333-0.067,0.483,0.1,0.45c0.233-0.067,0.367,0,0.4,0.2v1.5c0.1,0,0.216,0.017,0.35,0.05c0.367,0,0.65,0.033,0.85,0.1
	c0.1,0.033,0.167,0.066,0.2,0.1l0.05,0.05l0.05,0.1l0.1,0.15l0.55,0.95c0.333,0.5,0.65,0.717,0.95,0.65
	c-0.1,0.5-0.25,0.867-0.45,1.1c-0.233,0.3-0.483,0.284-0.75-0.05c-0.133-0.167-0.2-0.417-0.2-0.75c0-0.4-0.033-0.65-0.1-0.75
	c-0.066-0.133-0.216-0.333-0.45-0.6c-0.233-0.3-0.4-0.467-0.5-0.5c-0.233-0.066-0.5,0.033-0.8,0.3C3.5,11.183,3.233,11.233,3,11.1
	c0.333-0.733,0.433-1.3,0.3-1.7C3.233,9.133,3.117,8.967,2.95,8.9c-0.267-0.066-0.467-0.183-0.6-0.35
	C1.85,7.917,1.967,7.167,2.7,6.3z M0.55,11.85c0.034,0,0.467-0.017,1.3-0.05c0.5-0.033,0.833-0.017,1,0.05
	c0.566,0.3,0.783,1.05,0.65,2.25c0-0.333-0.067-0.617-0.2-0.85c-0.2-0.4-0.633-0.617-1.3-0.65c-0.7-0.033-1.15-0.217-1.35-0.55
	C0.617,12.017,0.583,11.95,0.55,11.85z M41.55,18.25c0.533-0.1,0.983-0.3,1.351-0.6c0.433-0.367,0.6-0.8,0.5-1.3
	c-0.301-0.067-0.567,0.017-0.801,0.25L41.9,17.15c-0.267,0.167-0.5,0.267-0.7,0.3c-0.233-0.034-0.467-0.05-0.7-0.05L38,17.35
	c-0.533-0.067-0.917-0.1-1.15-0.1c-0.433,0-0.816,0.067-1.149,0.2c-0.434,0.167-0.884,0.4-1.351,0.7l0.301,0.25
	c0.199,0.167,0.399,0.35,0.6,0.55c0.167,0.1,0.434,0.133,0.8,0.1c0.167,0,0.617-0.1,1.351-0.3c0.466-0.1,0.916-0.1,1.35,0
	c0.3,0.1,0.667,0.217,1.1,0.35c0.4,0.1,0.801,0.15,1.2,0.15l1.351-0.1c-0.034-0.2-0.15-0.367-0.351-0.5
	C41.783,18.517,41.616,18.383,41.55,18.25z M26.25,18c-0.634,0.433-1.233,0.6-1.8,0.5c-0.333-0.067-0.85-0.5-1.55-1.3
	c-0.566-0.633-1.15-0.833-1.75-0.6c-0.233,0.066-0.617,0.25-1.15,0.55c-0.5,0.3-0.917,0.483-1.25,0.55
	c-0.667,0.167-1.35,0.216-2.05,0.15c-0.767-0.067-1.233-0.317-1.4-0.75c-0.1-0.633-0.267-1.167-0.5-1.6
	c-0.367-0.733-0.767-1.15-1.2-1.25c-0.4-0.1-0.95,0.067-1.65,0.5c-0.267,0.167-0.65,0.433-1.15,0.8c-0.466,0.3-0.9,0.367-1.3,0.2
	c-0.367-0.133-0.567-0.333-0.6-0.6c0-0.4-0.033-0.75-0.1-1.05c-0.133-0.733-0.233-1.184-0.3-1.35c-0.133-0.333-0.367-0.533-0.7-0.6
	c-0.063-0.031-0.121-0.048-0.175-0.05c0.187,0.001,0.362,0.035,0.525,0.1h0.1c0.4,0.133,0.75,0.517,1.05,1.15
	c0.333,0.7,0.6,1.117,0.8,1.25c0.467,0.3,1.017,0.267,1.65-0.1c0.9-0.533,1.4-0.817,1.5-0.85c0.8-0.133,1.8,0.5,3,1.9
	c1.167,1.333,2.233,1.9,3.2,1.7c0.2-0.033,0.6-0.25,1.2-0.65c0.434-0.267,0.867-0.333,1.3-0.2c0.3,0.1,0.883,0.434,1.75,1
	c0.667,0.4,1.316,0.617,1.95,0.65C25.85,18.05,26.05,18.033,26.25,18z"/>
<linearGradient id="SVGID_1_" gradientUnits="userSpaceOnUse" x1="18.4624" y1="20.2002" x2="50.8374" y2="20.2002">
	<stop  offset="0" style="stop-color:#000000;stop-opacity:0.3294"/>
	<stop  offset="1" style="stop-color:#000000;stop-opacity:0.3294"/>
</linearGradient>
<path style="fill-rule:evenodd;clip-rule:evenodd;fill:url(#SVGID_1_);" d="M24.6,6.55l0.05-0.05c-0.867-0.467-1.683-1.05-2.45-1.75
	C21.833,4.383,21.483,4,21.15,3.6L21.1,3.55L20.9,3.3l-0.3-0.4c-0.041-0.058-0.083-0.116-0.125-0.175
	C20.429,2.65,20.388,2.575,20.35,2.5c0.133,0,0.267-0.133,0.4-0.4c0.033,0.2,0.1,0.333,0.2,0.4c0.066,0.067,0.183,0.15,0.35,0.25
	C21.9,1.717,22.35,0.8,22.65,0c0.033,0.433,0.033,1.217,0,2.35c0,1.033,0.117,1.8,0.35,2.3c0.2,0.4,0.483,0.633,0.85,0.7
	c0.5,0.1,0.816,0.183,0.95,0.25C25,5.767,25.184,6,25.35,6.3C25.45,6.567,25.667,6.75,26,6.85c0.566,0.167,1.434,0.283,2.6,0.35
	c1.233,0.066,2.084,0.15,2.551,0.25c0.566,0.167,1.449,0.533,2.649,1.1c1.101,0.4,1.983,0.367,2.65-0.1l1.3-0.7
	c0.434-0.267,0.717-0.483,0.85-0.65c0.467-0.533,0.9-1.217,1.301-2.05c0.466-0.966,0.716-1.733,0.75-2.3
	c-0.034,1.033,0.1,2,0.399,2.9c0.066,0.233,0.2,0.717,0.4,1.45c0.233,0.7,0.467,1.117,0.7,1.25c0.233,0.1,0.5,0.05,0.8-0.15
	c0.399-0.3,0.616-0.45,0.649-0.45C43.9,7.65,44.2,7.633,44.5,7.7c1.366-0.167,2.2-0.233,2.5-0.2c0.5,0.033,0.9,0.217,1.2,0.55
	C48.033,8.017,47.884,8,47.75,8C47.483,8,46.566,8.117,45,8.35c-2.134,0.3-4.05,0.517-5.75,0.65c-1.467,0.1-2.783,0.15-3.95,0.15
	V9.1c-1.267-0.033-2.467-0.133-3.6-0.3l-2.9-0.6c-0.267-0.067-0.533-0.15-0.8-0.25c-1.033-0.333-2.017-0.733-2.95-1.2
	C24.917,6.683,24.767,6.617,24.6,6.55z M18.8,26.05c0.3,0.167,0.65,0.334,1.05,0.5c0.267,0.134,0.617,0.267,1.05,0.4
	c0.033,0.033,0.067,0.066,0.1,0.1V27c0.067,0.033,0.15,0.066,0.25,0.1c0.4,0.167,1,0.5,1.8,1c0.733,0.5,1.317,0.834,1.75,1
	c0.167,0.067,0.334,0.117,0.5,0.15c0.467,0.134,1,0.233,1.601,0.3h0.05c0.133,0.033,0.283,0.05,0.45,0.05L28.55,29.7
	c0.8,0,1.733-0.033,2.8-0.101c0.567,0,1.4,0.017,2.5,0.051c0.967,0,1.767-0.051,2.4-0.15c0.733-0.134,1.483-0.5,2.25-1.1
	c0.833-0.767,1.45-1.334,1.85-1.7c0.867-0.634,1.517-1.134,1.95-1.5c0.733-0.601,1.316-1.184,1.75-1.75
	c0.634-1.033,1.184-1.9,1.65-2.6c0.033-0.033,0.066-0.067,0.1-0.1c0.3-0.267,0.584-0.633,0.851-1.1c0.1-0.2,0.199-0.383,0.3-0.55
	c0.366-0.6,0.633-1.067,0.8-1.4c0.6-0.9,1.066-1.583,1.4-2.05c0.666-1.033,1-2.05,1-3.05c0-0.233,0.017-0.45,0.05-0.65
	c0-0.1,0.017-0.184,0.05-0.25c0.1-0.367,0.167-0.75,0.2-1.15c0.066,0.233,0.133,0.5,0.2,0.8c0.267,1.566,0.316,2.983,0.149,4.25
	c-0.033,0.367-0.333,1.033-0.899,2c-0.101,0.133-0.317,0.717-0.65,1.75c-0.233,0.733-0.684,1.417-1.35,2.05
	c-0.4,0.333-1.017,0.883-1.851,1.649c0-0.1-0.05-0.184-0.149-0.25c-0.267,0.334-0.517,0.884-0.75,1.65
	c-0.134,0.399-0.334,0.983-0.601,1.75l-1.45,3.75c-0.333,0.8-0.517,1.434-0.55,1.899c0-1.267-0.25-1.966-0.75-2.1
	c-0.133-0.066-0.25-0.033-0.35,0.1c-0.101,0.134-0.184,0.2-0.25,0.2c-0.334,0.066-0.767,0.084-1.3,0.05c-0.667,0-1.101,0-1.301,0
	c-0.1,0.434-0.216,1-0.35,1.7c-0.167,0.601-0.434,1.15-0.8,1.65c-0.2,0.267-0.5,0.6-0.9,1c-0.3,0.399-0.517,0.783-0.649,1.149
	c-0.067,0.233-0.15,0.65-0.25,1.25c-0.067,0.567-0.15,0.983-0.25,1.25c-0.067,0.167-0.301,0.584-0.7,1.25
	c-0.267,0.4-0.417,0.75-0.45,1.051c0.033-2.934-0.3-5.267-1-7l-0.2,0.3c-0.733-1.134-1.483-2-2.25-2.601
	c-0.434,0.334-0.899,1.017-1.399,2.051c-0.2,0-0.45-0.233-0.75-0.7c-0.267-0.4-0.601-0.566-1-0.5c-0.367,0.1-0.567,0.35-0.601,0.75
	c-0.066,0.467-0.233,0.767-0.5,0.899c0-0.5,0-0.883,0-1.149c0-0.467-0.083-0.834-0.25-1.101c-0.166-0.267-0.35-0.416-0.55-0.449
	c-0.3-0.034-0.55-0.101-0.75-0.2L23.85,30c-0.533-0.3-0.934-0.366-1.2-0.2c-0.133,0.066-0.267,0.267-0.4,0.601
	C22.117,30.8,22,31.05,21.9,31.15c-0.133-0.233-0.167-0.617-0.1-1.15c0.067-0.533,0.067-0.917,0-1.15
	c-0.1-0.267-0.216-0.433-0.35-0.5c-0.333-0.233-0.517-0.366-0.55-0.399c-0.233-0.334-0.433-0.601-0.6-0.8
	c-0.233-0.334-0.483-0.467-0.75-0.4L19.4,27C19.1,26.833,18.9,26.517,18.8,26.05z"/>
</svg>
