<?xml version="1.0" encoding="iso-8859-1"?>
<!-- Generator: Adobe Illustrator 15.1.0, SVG Export Plug-In . SVG Version: 6.00 Build 0)  -->
<!DOCTYPE svg PUBLIC "-//W3C//DTD SVG 1.1//EN" "http://www.w3.org/Graphics/SVG/1.1/DTD/svg11.dtd">
<svg version="1.1" id="FlashAICB" xmlns="http://www.w3.org/2000/svg" xmlns:xlink="http://www.w3.org/1999/xlink" x="0px" y="0px"
	 width="75.4px" height="20.3px" viewBox="0 0 75.4 20.3" style="enable-background:new 0 0 75.4 20.3;" xml:space="preserve">
<path style="fill-rule:evenodd;clip-rule:evenodd;fill:#3A4D0D;" d="M42.4,8.3c0.166,0.167,0.383,0.383,0.649,0.65
	c0.601,0.7,0.8,1.267,0.601,1.7c-0.134,0.267-0.317,0.417-0.551,0.45c-0.267,0.034-0.566-0.017-0.899-0.149
	c-0.834-0.333-1.367-0.434-1.601-0.3c-0.3,0.2-0.433,0.617-0.399,1.25l0.05,1.399c-0.6-0.2-1.1-0.45-1.5-0.75
	c0.167-0.233,0.267-0.6,0.3-1.1s0.167-0.867,0.4-1.1c0.333,0,0.7-0.033,1.1-0.1l0.601,0.1l1.1-0.3C42.384,9.65,42.3,9.367,42,9.2
	h-0.05L42.4,8.3z M72.6,15.9V15.35c0.267-0.033,0.517-0.066,0.75-0.1C73.217,15.017,73,14.833,72.7,14.7l0.2-0.601
	c0.199,0.134,0.449,0.25,0.75,0.351c0.1,0.033,0.199,0.083,0.3,0.149c0.866,0.367,1.35,0.817,1.45,1.351
	C75.033,16.083,74.55,16.1,73.95,16l-1.05-0.05L72.6,15.9z M62.6,14.95c0.267,0.133,0.584,0.217,0.95,0.25
	c0.233,0.033,0.483,0.05,0.75,0.05c-0.066,0.134-0.133,0.283-0.2,0.45C64,16.134,63.967,16.434,64,16.6
	c0.333-0.1,0.917-0.517,1.75-1.25l0.1-0.05c0.167,0.033,0.434,0.217,0.801,0.55c0.066,0.067,0.149,0.134,0.25,0.2
	c-0.9,0.367-1.817,0.967-2.75,1.8L63.5,18.5l-1.8,1.8C61.634,18,61.934,16.217,62.6,14.95z M72,9.7c-0.167-0.1-0.35-0.2-0.55-0.3
	c-0.867-0.367-1.417-0.767-1.65-1.2l0.15-0.15c0.7-0.466,1.316-0.716,1.85-0.75C72.2,7.767,72.267,8.567,72,9.7z M37.05,7.5
	c0.033,0.833,0.217,1.483,0.55,1.95c-0.033,0.966,0.117,1.8,0.45,2.5c-0.166-0.167-0.3-0.351-0.399-0.55
	c-0.467-0.7-0.667-1.534-0.601-2.5c-0.233,0-0.433,0.017-0.6,0.05c-1.034,0.033-1.784-0.034-2.25-0.2c0.767-0.5,1.466-0.867,2.1-1.1
	C36.533,7.583,36.783,7.533,37.05,7.5z M17.15,5.4c0.133-0.033,0.283-0.05,0.45-0.05c0.8,0,1.533,0.033,2.2,0.1
	c1.067,0.1,2.017,0.3,2.85,0.6c0.167,0.067,0.417,0.133,0.75,0.2c0.2,0.1,0.383,0.283,0.55,0.55C23.283,7.3,22.5,7.7,21.6,8
	c-0.533,0.167-1.1,0.3-1.7,0.4c-1,0.167-1.833,0.317-2.5,0.45c0-0.067,0-0.117,0-0.15c0.067-0.4,0.117-0.75,0.15-1.05
	c0.3-0.167,0.65-0.333,1.05-0.5c0.667-0.267,1.483-0.55,2.45-0.85c-0.2-0.6-0.95-0.733-2.25-0.4c-0.466,0.1-0.867,0.217-1.2,0.35
	c0-0.067-0.017-0.117-0.05-0.15C17.55,6,17.417,5.767,17.15,5.4z M14.15,14.9c-0.133-0.101-0.25-0.184-0.35-0.25
	c-0.633-0.467-1.1-0.934-1.4-1.4c0.133-0.066,0.267-0.134,0.4-0.2c0.3,0.3,0.667,0.467,1.1,0.5c0.8,0.634,1.45,1.084,1.95,1.351
	l0.4-0.301c-0.367-0.533-0.633-1-0.8-1.399c0.3-0.167,0.583-0.367,0.85-0.601c0.034,0.101,0.067,0.217,0.1,0.351
	c0.233,1.066,0.483,1.916,0.75,2.55C16.35,15.9,15.35,15.7,14.15,14.9z M3.9,8.45c-0.467,0.3-0.95,0.667-1.45,1.1
	c0.5,0.767,0.9,1.217,1.2,1.35c0.3,0.167,0.65,0.25,1.05,0.25c0.133,0.267,0.3,0.517,0.5,0.75c0.8-0.733,1.383-0.917,1.75-0.551
	c0.2,0.167,0.583,0.617,1.15,1.351c0,0.1,0,0.233,0,0.399c0,0.801,0.183,1.334,0.55,1.601c0.467-0.2,0.75-0.617,0.85-1.25
	c0.433,0.133,0.9,0.184,1.4,0.149c-0.333,0.534-0.7,1.051-1.1,1.551c-0.4,0.466-0.816,0.916-1.25,1.35
	c-0.466-0.434-0.783-1.134-0.95-2.1C7.567,13.8,7.533,13.267,7.5,12.8c-0.067-0.267-0.117-0.517-0.15-0.75
	c-0.833,0-1.633-0.05-2.4-0.149C4.383,11.8,3.833,11.667,3.3,11.5c-0.8-0.333-1.367-0.583-1.7-0.75C0.533,10.25,0,9.833,0,9.5
	c0.067-0.567,0.817-1.133,2.25-1.7C2.783,7.567,3.333,7.367,3.9,7.2v1.15C3.9,8.383,3.9,8.417,3.9,8.45z M7.25,1.55
	c-0.167,0.2-0.3,0.4-0.4,0.6L6.35,3.4c-0.067,0.3-0.233,0.55-0.5,0.75L5.1,2.9c-0.667-1.2-0.867-2-0.6-2.4
	c0.567-0.867,1.433-0.583,2.6,0.85L7.25,1.55z"/>
<path style="fill-rule:evenodd;clip-rule:evenodd;fill:#222D06;" d="M72.9,14.1l0.25-1.05c0.066-0.333,0.116-0.633,0.149-0.899
	c0.733,0.899,0.95,1.716,0.65,2.449c-0.101-0.066-0.2-0.116-0.3-0.149C73.35,14.35,73.1,14.233,72.9,14.1z M72.6,15.9l0.301,0.05
	l-0.25,0.25c-0.267,0.366-0.217,0.95,0.149,1.75c-0.533-0.167-1.133-0.283-1.8-0.351l-1.8,0.15c-0.9-0.1-1.5-0.116-1.8-0.05
	c-0.4,0.066-1.067,0.333-2,0.8c-0.9,0.434-1.534,0.583-1.9,0.45c0-0.134,0-0.283,0-0.45l0.65-0.65c0.933-0.833,1.85-1.433,2.75-1.8
	c0.199,0.167,0.433,0.316,0.699,0.45l1.601,0.6c1.2,0.267,2.05,0.267,2.55,0c0.467-0.199,0.733-0.483,0.8-0.85L72.6,15.9z
	 M38.65,12.6c0.033-0.033,0.066-0.05,0.1-0.05c0.4,0.3,0.9,0.55,1.5,0.75L40.2,11.9c-0.033-0.634,0.1-1.05,0.399-1.25
	c0.233-0.133,0.767-0.033,1.601,0.3c0.333,0.133,0.633,0.184,0.899,0.149c0.034,0.334,0.017,0.667-0.05,1
	c-1.033,0.034-1.566,0.101-1.6,0.2c-0.033,0.101-0.033,0.584,0,1.45c-0.934,0.033-1.667-0.116-2.2-0.45
	C39.05,13.167,38.85,12.934,38.65,12.6z M36.45,8.95c0.167-0.034,0.367-0.05,0.6-0.05c-0.066,0.967,0.134,1.8,0.601,2.5
	c-0.167-0.067-0.317-0.084-0.45-0.051L36.3,11.4C36.233,10.533,36.283,9.717,36.45,8.95z M16.4,12.95
	c-0.033-0.134-0.066-0.25-0.1-0.351c0.167-0.199,0.317-0.399,0.45-0.6c0.233-0.4,0.45-1.45,0.65-3.15
	c0.667-0.133,1.5-0.283,2.5-0.45c0.6-0.1,1.167-0.233,1.7-0.4c1.133,0.767,2.283,1.167,3.45,1.2c-1.3,1.133-3.483,2.166-6.55,3.1
	C17.333,12.634,16.633,12.85,16.4,12.95z M9.8,15.15c0.4-0.5,0.767-1.017,1.1-1.551c0.467-0.066,0.967-0.183,1.5-0.35
	c0.3,0.467,0.767,0.934,1.4,1.4c0.1,0.066,0.217,0.149,0.35,0.25c-0.2,0.199-0.367,0.316-0.5,0.35c-0.4-0.634-0.983-0.167-1.75,1.4
	c-0.633,1.366-1.267,1.066-1.9-0.9C9.933,15.517,9.867,15.316,9.8,15.15z M4.95,11.9c0.767,0.1,1.566,0.149,2.4,0.149
	c0.033,0.233,0.083,0.483,0.15,0.75c-0.2-0.066-0.417-0.1-0.65-0.1c-0.967-0.033-1.633-0.117-2-0.25
	C4.883,12.25,4.917,12.066,4.95,11.9z M19.8,5.45c-0.667-0.067-1.4-0.1-2.2-0.1c-0.167,0-0.317,0.017-0.45,0.05
	C16.85,5,16.4,4.45,15.8,3.75c-0.133-0.167-0.283-0.317-0.45-0.45c1.133-0.033,2,0.067,2.6,0.3C18.783,3.9,19.4,4.517,19.8,5.45z"/>
<path style="fill-rule:evenodd;clip-rule:evenodd;fill:#2F3F09;" d="M64.3,15.25c0.134-0.033,0.283-0.066,0.45-0.1
	c0.366-0.034,0.717,0,1.05,0.1c0.033,0,0.05,0.017,0.05,0.05l-0.1,0.05c-0.833,0.733-1.417,1.15-1.75,1.25
	c-0.033-0.166,0-0.466,0.1-0.899C64.167,15.533,64.233,15.384,64.3,15.25z M72.7,14.7c0.3,0.133,0.517,0.316,0.649,0.55
	c-0.233,0.033-0.483,0.066-0.75,0.1V15.1L72.7,14.7z M40.55,10.25c0.066-0.033,0.117-0.05,0.15-0.05c0.434-0.1,0.767-0.267,1-0.5
	l0.25-0.5H42c0.3,0.167,0.384,0.45,0.25,0.85l-1.1,0.3L40.55,10.25z M38.75,12.55c-0.033,0-0.066,0.017-0.1,0.05
	c-0.034,0.034-0.084,0.067-0.15,0.101c-0.167-0.233-0.316-0.483-0.45-0.75c-0.333-0.7-0.483-1.534-0.45-2.5
	c0.4,0.566,1.017,0.867,1.851,0.9c-0.233,0.233-0.367,0.6-0.4,1.1S38.917,12.316,38.75,12.55z M17.55,7.65
	c0.067-0.667,0.083-1.133,0.05-1.4C17.933,6.117,18.333,6,18.8,5.9c1.3-0.333,2.05-0.2,2.25,0.4c-0.966,0.3-1.783,0.583-2.45,0.85
	C18.2,7.317,17.85,7.483,17.55,7.65z M3.9,8.45c0.067,0.966,0.333,1.867,0.8,2.7c-0.4,0-0.75-0.084-1.05-0.25
	c-0.3-0.133-0.7-0.583-1.2-1.35C2.95,9.117,3.433,8.75,3.9,8.45z M8.1,12.7c0.066,0.033,0.117,0.083,0.15,0.149
	c0.367,0.267,0.783,0.467,1.25,0.601c-0.1,0.633-0.383,1.05-0.85,1.25C8.283,14.434,8.1,13.9,8.1,13.1C8.1,12.934,8.1,12.8,8.1,12.7
	z M13.9,13.55c0.3,0.033,0.65-0.017,1.05-0.149c0.167-0.067,0.333-0.134,0.5-0.2c0.167,0.399,0.433,0.866,0.8,1.399l-0.4,0.301
	C15.35,14.634,14.7,14.184,13.9,13.55z"/>
<path style="fill-rule:evenodd;clip-rule:evenodd;fill:#CB824A;" d="M72.6,15.9l-0.05,0.35c-0.066,0.366-0.333,0.65-0.8,0.85
	c-0.5,0.267-1.35,0.267-2.55,0L67.6,16.5c-0.267-0.134-0.5-0.283-0.699-0.45c-0.101-0.066-0.184-0.133-0.25-0.2
	c-0.367-0.333-0.634-0.517-0.801-0.55c0-0.033-0.017-0.05-0.05-0.05c-0.333-0.1-0.684-0.134-1.05-0.1
	c-0.167,0.033-0.316,0.066-0.45,0.1c-0.267,0-0.517-0.017-0.75-0.05c-0.366-0.033-0.684-0.117-0.95-0.25
	c-0.767-0.434-1.166-1.283-1.199-2.55c-0.034-1.7,0.683-2.684,2.149-2.95l0.3,0.75c0-2.067,0.217-3.483,0.65-4.25
	C65.167,4.817,66.417,4.5,68.25,5c0.934,0.2,1.4,0.6,1.4,1.2c0,1,0.033,1.633,0.1,1.9c0,0.033,0.017,0.066,0.05,0.1
	c0.233,0.433,0.783,0.833,1.65,1.2c0.2,0.1,0.383,0.2,0.55,0.3c0.634,0.367,1,0.75,1.1,1.15c0.167,0.367,0.233,0.8,0.2,1.3
	c-0.033,0.267-0.083,0.566-0.149,0.899L72.9,14.1L72.7,14.7L72.6,15.1v0.25V15.9z M42.4,8.3l-0.45,0.9L41.7,9.7
	c-0.233,0.233-0.566,0.4-1,0.5c-0.033,0-0.084,0.017-0.15,0.05c-0.399,0.067-0.767,0.1-1.1,0.1c-0.834-0.033-1.45-0.333-1.851-0.9
	c-0.333-0.467-0.517-1.117-0.55-1.95C37.017,7.433,37,7.35,37,7.25c-0.733,0-1.15-0.033-1.25-0.1c-0.167-0.167-0.25-0.533-0.25-1.1
	c0.067-0.9,0.35-1.45,0.85-1.65c0.3-0.1,0.917-0.133,1.85-0.1c0.866-1.233,2.017-1.45,3.45-0.65c1.433,0.7,1.916,1.767,1.449,3.2
	L42.4,8.3z M66.95,6c-0.3-0.633-0.65-0.667-1.05-0.1l-0.45-0.6c-0.667,0.2-1.101,0.817-1.3,1.85c-0.134,0.967-0.084,1.767,0.149,2.4
	c0.467-0.5,0.767-0.983,0.9-1.45c-0.033,1.066-0.033,1.85,0,2.35l0.45-1.8C65.917,7.85,66.2,7.3,66.5,7l0.55,0.7
	C67.25,7.233,67.217,6.667,66.95,6z M64.65,11.8l0.399,0.05c-0.333,0.2-0.566,0.5-0.7,0.9c0.4,0.134,0.834,0.066,1.301-0.2v0.55
	L66.1,13c0.567,1,1.2,1.583,1.9,1.75l-0.25-1.8c0.533,0.566,1.066,0.8,1.6,0.7L69.1,13.3c0.334,0.334,0.767,0.5,1.301,0.5
	c-0.067-0.233-0.217-0.467-0.45-0.7l-0.65-0.55c0.434-0.566,0.7-1.017,0.8-1.35h-0.75l-0.1-0.55c-0.267-0.1-0.5-0.1-0.7,0h-0.6
	c0.133-0.233,0.149-0.6,0.05-1.1L67.8,8.4c-0.5,0.367-0.75,1.05-0.75,2.05C66.684,9.917,66.4,9.333,66.2,8.7v1.6
	c0,0.567-0.084,1.066-0.25,1.5H64.65z M40.3,7.95c0.101-0.567,0.05-1.1-0.149-1.6L39.3,5.9c-0.467,0.4-0.55,0.85-0.25,1.35
	C39.316,7.65,39.733,7.883,40.3,7.95z M5.85,4.15c0.267-0.2,0.433-0.45,0.5-0.75l0.5-1.25c0.1-0.2,0.233-0.4,0.4-0.6
	C7.45,1.283,7.7,1.033,8,0.8c0.7-0.433,1.283-0.667,1.75-0.7c0.633,0,1.117,0.35,1.45,1.05c0.367,0.767,0.783,1.233,1.25,1.4
	c0.2,0.067,0.716,0.067,1.55,0c0.5,0.133,0.95,0.383,1.35,0.75c0.167,0.133,0.316,0.284,0.45,0.45c0.6,0.7,1.05,1.25,1.35,1.65
	c0.267,0.367,0.4,0.6,0.4,0.7c0.034,0.033,0.05,0.083,0.05,0.15c0.033,0.267,0.017,0.733-0.05,1.4c-0.033,0.3-0.083,0.65-0.15,1.05
	c0,0.033,0,0.083,0,0.15c-0.2,1.7-0.417,2.75-0.65,3.15c-0.133,0.2-0.283,0.4-0.45,0.6c-0.267,0.233-0.55,0.434-0.85,0.601
	c-0.167,0.066-0.333,0.133-0.5,0.2c-0.4,0.133-0.75,0.183-1.05,0.149c-0.433-0.033-0.8-0.2-1.1-0.5
	c-0.133,0.066-0.267,0.134-0.4,0.2c-0.533,0.167-1.033,0.283-1.5,0.35c-0.5,0.034-0.967-0.017-1.4-0.149
	c-0.467-0.134-0.883-0.334-1.25-0.601C8.217,12.783,8.167,12.733,8.1,12.7c-0.567-0.733-0.95-1.184-1.15-1.351
	C6.583,10.983,6,11.167,5.2,11.9c-0.2-0.233-0.367-0.483-0.5-0.75c-0.467-0.833-0.733-1.734-0.8-2.7c0-0.034,0-0.067,0-0.1V7.2V4.45
	l0.05,0.5c0.1-0.3,0.333-0.483,0.7-0.55L5.6,4.3C5.7,4.267,5.783,4.217,5.85,4.15z M13.25,5.5c0.067-0.067,0.2-0.333,0.4-0.8
	l0.25-0.9c0.033,0.7,0.117,1.2,0.25,1.5c0.467-0.5,0.434-0.983-0.1-1.45V3.3c-0.433,0.233-0.733,0.567-0.9,1
	C12.95,4.767,12.983,5.167,13.25,5.5z M8.55,6.2c-0.233-0.833-0.333-1.45-0.3-1.85l0.65,0.9C9.167,5.717,9.383,6.033,9.55,6.2
	l-0.4-2.05c-0.1-0.867,0.033-1.483,0.4-1.85c-0.133-0.333-0.3-0.6-0.5-0.8c-0.367,0.033-0.8,0.233-1.3,0.6
	C7.317,2.367,7.033,2.617,6.9,2.85c0.1,0.733,0.283,1.5,0.55,2.3c0.133,0.367,0.283,0.7,0.45,1C7.733,6.117,7.6,6.1,7.5,6.1
	c0.267,0.5,0.633,0.933,1.1,1.3C8.133,7.167,7.683,7.1,7.25,7.2c0.2,0.333,0.617,0.716,1.25,1.15c-0.367-0.067-0.75,0-1.15,0.2
	c0.033-0.033,0.066-0.066,0.1-0.1L6,5.95c-0.133-0.133-0.367-0.1-0.7,0.1L4,6c0.367,2,0.9,3.333,1.6,4C5.2,9.1,5,8.583,5,8.45
	l1.3,0.2c0.367,0.067,0.667,0.067,0.9,0C7,8.717,6.817,8.833,6.65,9c0.5,0.633,1.417,0.833,2.75,0.6c-0.267,0.267-0.6,0.733-1,1.4
	c0.367-0.233,0.617-0.383,0.75-0.45l0.2,0.7c0.433-0.1,0.667-0.4,0.7-0.9c0.167,0.766,0.383,1.333,0.65,1.7
	c0.367-0.333,0.6-0.833,0.7-1.5l0.05,0.05c0.233,0.833,0.517,1.4,0.85,1.7c0.167-0.434,0.184-0.983,0.05-1.65h0.05l1,1.3
	c0.533,0.633,1.017,0.95,1.45,0.95c0-0.4-0.184-0.834-0.55-1.301L13.55,10.7c0.233,0.2,0.5,0.216,0.8,0.05l-0.85-1.7
	c0.367-0.3,1.017-0.6,1.95-0.9c-0.3-0.267-0.583-0.433-0.85-0.5L15,6.9c0.2-0.333,0.3-0.566,0.3-0.7
	c-0.367,0.1-0.816,0.367-1.35,0.8c-0.733,0.567-1.2,0.883-1.4,0.95c0.067-0.267,0.2-0.583,0.4-0.95c0.167-0.333,0.283-0.667,0.35-1
	l-1.5,1.15c-0.2-0.267-0.383-0.783-0.55-1.55c-0.1-0.833-0.3-1.367-0.6-1.6c-0.033,0.633-0.233,1.05-0.6,1.25L9.45,4.5
	c0.566,1.4,0.883,2.267,0.95,2.6l-0.3-0.3c-0.067,0.067-0.083,0.15-0.05,0.25V7.2l-0.2-0.75C9.35,6.35,8.917,6.267,8.55,6.2z"/>
<path style="fill-rule:evenodd;clip-rule:evenodd;fill:#966037;" d="M64.65,11.8h1.3c0.166-0.434,0.25-0.933,0.25-1.5V8.7
	c0.2,0.633,0.483,1.216,0.85,1.75c0-1,0.25-1.684,0.75-2.05L68,9.55c0.1,0.5,0.083,0.867-0.05,1.1h0.6c0.2-0.1,0.434-0.1,0.7,0
	l0.1,0.55h0.75c-0.1,0.333-0.366,0.783-0.8,1.35l0.65,0.55c0.233,0.233,0.383,0.467,0.45,0.7c-0.534,0-0.967-0.166-1.301-0.5
	l0.25,0.351c-0.533,0.1-1.066-0.134-1.6-0.7l0.25,1.8C67.3,14.583,66.667,14,66.1,13l-0.449,0.1v-0.55
	c-0.467,0.267-0.9,0.334-1.301,0.2c0.134-0.4,0.367-0.7,0.7-0.9L64.65,11.8z M67.15,11.5l-0.2-0.65
	c-0.634,0.433-0.834,1.05-0.601,1.85c0.7,0.166,1.2,0,1.5-0.5C68.15,11.667,67.917,11.434,67.15,11.5z M12.35,10.65
	c0.133,0.667,0.117,1.216-0.05,1.65c-0.333-0.3-0.617-0.866-0.85-1.7c0.066,0.066,0.2,0.1,0.4,0.1
	C12.017,10.7,12.183,10.683,12.35,10.65z M12.4,10.65c0.3-0.133,0.483-0.35,0.55-0.65c0.1-0.467-0.117-0.817-0.65-1.05
	c-0.733-0.434-1.117-0.667-1.15-0.7c-0.2,0.233-0.4,0.35-0.6,0.35l-0.2-0.1l-0.4-0.55L10,8.35l0.35,0.15l0.35,0.55
	c0.4,0.467,0.75,0.7,1.05,0.7c-0.3,0.367-0.417,0.633-0.35,0.8c-0.1,0.667-0.333,1.167-0.7,1.5c-0.267-0.366-0.483-0.934-0.65-1.7
	c-0.033,0.5-0.267,0.8-0.7,0.9l-0.2-0.7C9.017,10.617,8.767,10.767,8.4,11c0.4-0.667,0.733-1.133,1-1.4
	C8.067,9.833,7.15,9.633,6.65,9C6.817,8.833,7,8.717,7.2,8.65c0.033-0.033,0.083-0.066,0.15-0.1c0.4-0.2,0.783-0.267,1.15-0.2
	C7.867,7.917,7.45,7.533,7.25,7.2C7.683,7.1,8.133,7.167,8.6,7.4C8.133,7.033,7.767,6.6,7.5,6.1c0.1,0,0.233,0.017,0.4,0.05
	c0.267,0.533,0.567,0.9,0.9,1.1C8.7,6.85,8.617,6.5,8.55,6.2c0.367,0.066,0.8,0.15,1.3,0.25l0.2,0.75V7.05
	c-0.033-0.1-0.017-0.183,0.05-0.25l0.3,0.3c-0.066-0.333-0.383-1.2-0.95-2.6l0.6,0.75c0.367-0.2,0.567-0.617,0.6-1.25
	c0.3,0.233,0.5,0.767,0.6,1.6c0.167,0.767,0.35,1.283,0.55,1.55L13.3,6c-0.066,0.333-0.183,0.667-0.35,1
	c-0.2,0.367-0.333,0.683-0.4,0.95c0.2-0.067,0.667-0.383,1.4-0.95c0.533-0.433,0.983-0.7,1.35-0.8c0,0.133-0.1,0.367-0.3,0.7
	l-0.4,0.75c0.267,0.067,0.55,0.233,0.85,0.5c-0.934,0.3-1.583,0.6-1.95,0.9l0.85,1.7c-0.3,0.167-0.567,0.15-0.8-0.05L14.3,11.6
	c0.367,0.467,0.55,0.9,0.55,1.301c-0.434,0-0.917-0.317-1.45-0.95L12.4,10.65z"/>
<path style="fill-rule:evenodd;clip-rule:evenodd;fill:#E3C02E;" d="M67.15,11.5c0.767-0.066,1,0.167,0.699,0.7
	c-0.3,0.5-0.8,0.666-1.5,0.5c-0.233-0.8-0.033-1.417,0.601-1.85L67.15,11.5z M40.3,7.95c-0.566-0.067-0.983-0.3-1.25-0.7
	c-0.3-0.5-0.217-0.95,0.25-1.35l0.851,0.45C40.35,6.85,40.4,7.383,40.3,7.95z M12.4,10.65h-0.05c-0.167,0.033-0.333,0.05-0.5,0.05
	c-0.2,0-0.333-0.034-0.4-0.1l-0.05-0.05c-0.066-0.167,0.05-0.433,0.35-0.8c-0.3,0-0.65-0.233-1.05-0.7L10.35,8.5L10,8.35l-0.05-0.4
	l0.4,0.55l0.2,0.1c0.2,0,0.4-0.117,0.6-0.35c0.033,0.033,0.417,0.267,1.15,0.7c0.534,0.233,0.75,0.583,0.65,1.05
	C12.883,10.3,12.7,10.517,12.4,10.65z"/>
<path style="fill-rule:evenodd;clip-rule:evenodd;fill:#DF9E6A;" d="M66.95,6c0.267,0.667,0.3,1.233,0.1,1.7L66.5,7
	c-0.3,0.3-0.583,0.85-0.85,1.65l-0.45,1.8c-0.033-0.5-0.033-1.284,0-2.35c-0.134,0.467-0.434,0.95-0.9,1.45
	c-0.233-0.633-0.283-1.433-0.149-2.4c0.199-1.033,0.633-1.65,1.3-1.85l0.45,0.6C66.3,5.333,66.65,5.367,66.95,6z M7.35,8.55
	C7.283,8.583,7.233,8.617,7.2,8.65c-0.233,0.067-0.534,0.067-0.9,0L5,8.45C5,8.583,5.2,9.1,5.6,10C4.9,9.333,4.367,8,4,6l1.3,0.05
	c0.333-0.2,0.567-0.233,0.7-0.1l1.45,2.5C7.417,8.483,7.383,8.517,7.35,8.55z M8.55,6.2C8.617,6.5,8.7,6.85,8.8,7.25
	c-0.333-0.2-0.633-0.567-0.9-1.1c-0.167-0.3-0.316-0.633-0.45-1C7.183,4.35,7,3.583,6.9,2.85C7.033,2.617,7.317,2.367,7.75,2.1
	c0.5-0.367,0.933-0.567,1.3-0.6c0.2,0.2,0.367,0.467,0.5,0.8c-0.367,0.367-0.5,0.983-0.4,1.85l0.4,2.05
	C9.383,6.033,9.167,5.717,8.9,5.25l-0.65-0.9C8.217,4.75,8.317,5.367,8.55,6.2z M13.25,5.5c-0.267-0.333-0.3-0.733-0.1-1.2
	c0.167-0.433,0.467-0.767,0.9-1v0.55c0.534,0.467,0.567,0.95,0.1,1.45C14.017,5,13.933,4.5,13.9,3.8l-0.25,0.9
	C13.45,5.167,13.317,5.433,13.25,5.5z"/>
</svg>
