<?xml version="1.0" encoding="iso-8859-1"?>
<!-- Generator: Adobe Illustrator 15.1.0, SVG Export Plug-In . SVG Version: 6.00 Build 0)  -->
<!DOCTYPE svg PUBLIC "-//W3C//DTD SVG 1.1//EN" "http://www.w3.org/Graphics/SVG/1.1/DTD/svg11.dtd">
<svg version="1.1" id="FlashAICB" xmlns="http://www.w3.org/2000/svg" xmlns:xlink="http://www.w3.org/1999/xlink" x="0px" y="0px"
	 width="82.15px" height="135.75px" viewBox="0 0 82.15 135.75" style="enable-background:new 0 0 82.15 135.75;"
	 xml:space="preserve">
<symbol  id="FlashAICB_x2F_Layer_2_x2F__x3C_Group_x3E__x5F_2" viewBox="0.035 -20.19 24.416 20.19">
	<g id="Layer_1_9_">
		<g>
			<path style="fill-rule:evenodd;clip-rule:evenodd;fill:#0D2912;" d="M0.05-9.6L3.1-6.4c0-0.5,0.083-0.934,0.25-1.3
				c0.333-0.933,1.133-1.483,2.4-1.65L3-12.85L1.95-12.7c-0.6,0.2-1.083,0.6-1.45,1.2S-0.017-10.267,0.05-9.6z"/>
			<path style="fill-rule:evenodd;clip-rule:evenodd;fill:#0D2912;" d="M21.95-11.3l-0.05,0.6l0.2-0.05
				c0.167-0.033,0.85-0.1,2.05-0.2h0.3l-0.35-1.6c-0.267-0.767-0.817-1.767-1.65-3H21.9c-0.733,0.066-1.283,0.2-1.65,0.4
				C21.383-13.45,21.95-12.167,21.95-11.3z"/>
			<path style="fill-rule:evenodd;clip-rule:evenodd;fill:#0D2912;" d="M18.65-17.1l1.95-0.95c-0.7-0.8-1.2-1.3-1.5-1.5
				c-1.233-0.8-2.533-0.85-3.9-0.15l-1.1,0.8c0,0.9,0.05,1.483,0.15,1.75c0.333-0.2,0.783-0.417,1.35-0.65
				c0.667-0.267,1.217-0.35,1.65-0.25C17.65-17.95,18.117-17.633,18.65-17.1z"/>
			<path style="fill-rule:evenodd;clip-rule:evenodd;fill:#0D2912;" d="M14.2-12.3v-0.15c-0.867-0.933-1.317-1.816-1.35-2.65
				c-0.7,0.067-1.2,0.233-1.5,0.5c0.4,1,0.816,1.833,1.25,2.5C13.033-12.233,13.567-12.3,14.2-12.3z"/>
			<path style="fill-rule:evenodd;clip-rule:evenodd;fill:#0D2912;" d="M20.4-3.6c-0.8-0.3-1.383-0.867-1.75-1.7
				c-1.033,0.767-2.183,1.35-3.45,1.75c0.1,1.033,0.466,1.867,1.1,2.5C17.667-1.817,19.033-2.667,20.4-3.6z"/>
			<path style="fill-rule:evenodd;clip-rule:evenodd;fill:#0D2912;" d="M6.5-3.15c0.967,0.967,1.75,1.667,2.35,2.1
				C9.483-0.517,10.5-0.167,11.9,0l-0.05-0.2c-0.434-1.267-0.517-2.3-0.25-3.1l-0.5-0.25c-0.633-0.367-1.55-1.233-2.75-2.6
				C7.183-5.783,6.567-4.783,6.5-3.15z"/>
		</g>
	</g>
</symbol>
<symbol  id="FlashAICB_x2F_Layer_2_x2F__x3C_Group_x3E__x5F_7" viewBox="0 -22.1 60.6 22.1">
	<g id="Layer_1_10_">
		<g>
			
				<radialGradient id="SVGID_1_" cx="411.0762" cy="87.8467" r="29.79" gradientTransform="matrix(0.9999 0.013 0.0235 -0.5056 -382.8057 21.9692)" gradientUnits="userSpaceOnUse">
				<stop  offset="0" style="stop-color:#000000;stop-opacity:0.698"/>
				<stop  offset="1" style="stop-color:#000000;stop-opacity:0"/>
			</radialGradient>
			<path style="fill-rule:evenodd;clip-rule:evenodd;fill:url(#SVGID_1_);" d="M47-21c-0.6,0.3-0.95,0.483-1.05,0.55
				c-0.233,0.167,0.2,0.15,1.3-0.05c1-0.167,1.417-0.217,1.25-0.15c-1.7,0.5-2.917,0.75-3.65,0.75c-1.067,0.033-2.217,0.367-3.45,1
				c-1.133,0.6-2.283,0.867-3.45,0.8c-1.167,0.9-2.083,1.567-2.75,2c-1.267,0.767-2.317,0.633-3.15-0.4
				c-2.533-1.467-4.117-2.333-4.75-2.6c-1.033-0.467-2.283-0.833-3.75-1.1c-0.066,0-0.2-0.066-0.4-0.2l-0.85,0.15h0.15
				c0.267,0.067,0.417,0.233,0.45,0.5c0.067,0.3-0.05,0.467-0.35,0.5c-1.733,0.333-3.267,0.5-4.6,0.5
				c-0.2,0.033-0.35-0.05-0.45-0.25c-0.1-0.167-0.1-0.317,0-0.45l-0.3-0.05h-0.1c-1.667,0.667-3.3,0.983-4.9,0.95
				c-0.567-0.034-1.7-0.267-3.4-0.7c1.3-0.867,1.9-1.283,1.8-1.25l-1.9,1.2c-0.633,0.066-1.034-0.35-1.2-1.25
				c-2.5,0.566-4.85,1.9-7.05,4C0.15-15.617,0-14.817,0-14.15c0,3.933,2.967,7.267,8.9,10C14.8-1.383,21.933,0,30.3,0
				s15.517-1.383,21.45-4.15c5.9-2.733,8.85-6.067,8.85-10c0-1.9-0.85-3.6-2.55-5.1c-1.867-1.633-4.267-2.583-7.2-2.85
				C49.15-21.7,47.867-21.333,47-21z"/>
			
				<use xlink:href="#FlashAICB_x2F_Layer_2_x2F__x3C_Path_x3E_"  width="48.278" height="12.403" x="-0.028" y="-12.4" transform="matrix(1 0 0 1 5.6001 -9)" style="overflow:visible;opacity:0.2109;enable-background:new    ;"/>
		</g>
	</g>
</symbol>
<symbol  id="FlashAICB_x2F_Layer_2_x2F__x3C_Path_x3E_" viewBox="-0.028 -12.4 48.278 12.403">
	<g id="Layer_1_2_">
		<path style="fill-rule:evenodd;clip-rule:evenodd;" d="M48.1-8.95l0.15-0.1l-1.1-1.2c-1.3-0.567-2.5-1.283-3.6-2.15l-0.1,0.05
			l-0.25,1.7c-0.067,0.6-1.117,0.783-3.15,0.55c-1.1-0.133-3.183-0.5-6.25-1.1c-1.333,1.733-3.95,2.317-7.85,1.75
			c-4.333-0.933-7.2-1.4-8.6-1.4h-0.1c0.133,0.367,0.033,0.567-0.3,0.6c-1.733,0.333-3.267,0.5-4.6,0.5C12.15-9.717,12-9.8,11.9-10
			c-0.1-0.167-0.1-0.317,0-0.45h-0.05L11.7-10.3C10-9.467,8.3-9.1,6.6-9.2C5.867-9.233,4.733-9.483,3.2-9.95L2.7-9.9L3.1-10
			c-0.567,0.067-1.133,0.067-1.7,0L0.35-8.2c-0.367,0.034-0.467,0.35-0.3,0.95C0.117-6.917,0.217-6.8,0.35-6.9
			c0.066-0.1,0.1-0.033,0.1,0.2c0,0.133,0.183,0.184,0.55,0.15c0.333-0.034,0.517,0.3,0.55,1l0.1,0.75l0.4,0.55l0.35,0.2h0.55
			c0.1,0,0.233-0.35,0.4-1.05c0.167-0.667,0.3-0.967,0.4-0.9c0.133,0.1,0.333,0.533,0.6,1.3C4.817-3.267,5.1-2.433,5.2-2.2
			c0.133,0.067,1.233,0.15,3.3,0.25C9.733-1.883,10.333-1.233,10.3,0c2.934,0.033,8.617-0.167,17.05-0.6
			c4.233-0.233,8.35-0.467,12.35-0.7c0.466,0,1.667-0.667,3.6-2c1.967-1.3,3.017-1.95,3.15-1.95c0.233,0,0.466-0.4,0.7-1.2
			c0.267-0.867,0.434-1.316,0.5-1.35C47.85-7.967,48-8.35,48.1-8.95z"/>
	</g>
</symbol>
<symbol  id="FlashAICB_x2F_Layer_2_x2F__x3C_Path_x3E__x5F_67" viewBox="0 -11.307 9.6 11.274">
	<g id="Layer_1_8_">
		<path style="fill-rule:evenodd;clip-rule:evenodd;fill:#0D2912;" d="M5.6-0.05C6.2-0.117,6.85-0.3,7.55-0.6
			C8.383-1,8.933-1.433,9.2-1.9C8.767-3.467,8.667-4.667,8.9-5.5L9.6-9L9-9.65c-1.167-0.967-2.7-1.517-4.6-1.65
			c-2-0.067-3.467,0.35-4.4,1.25C0.6-5.117,1.167-1.8,1.7-0.1c0.466,0.067,0.85,0.083,1.15,0.05H5.6z"/>
	</g>
</symbol>
<symbol  id="FlashAICB_x2F_Layer_2_x2F__x3C_Path_x3E__x5F_68" viewBox="0 -10.25 8.6 10.253">
	<g id="Layer_1_7_">
		<path style="fill-rule:evenodd;clip-rule:evenodd;fill:#0D2912;" d="M6.85-0.85c0.8-0.6,1.383-1.383,1.75-2.35l-2.9-7.05l-0.3,0.1
			C5.3-10.083,5.167-9.867,5-9.5C4.8-9.067,4.65-8.8,4.55-8.7c-0.767,0.867-1.966,1.483-3.6,1.85L0-6.7
			c1.233,2.267,2.217,4.017,2.95,5.25L3.8,0h0.15C5.05,0.033,6.017-0.25,6.85-0.85z"/>
	</g>
</symbol>
<symbol  id="FlashAICB_x2F_Layer_2_x2F__x3C_Path_x3E__x5F_69" viewBox="0 -9.6 6.7 9.6">
	<g id="Layer_1_6_">
		<path style="fill-rule:evenodd;clip-rule:evenodd;fill:#0D2912;" d="M3.75,0L6.7-8.65C6-9.117,4.783-9.433,3.05-9.6H2.1
			C1.1-5.9,0.4-3.267,0-1.7c0.233-0.1,0.667-0.183,1.3-0.25C2.367-2.017,3.083-1.733,3.45-1.1C3.583-0.867,3.683-0.5,3.75,0z"/>
	</g>
</symbol>
<symbol  id="FlashAICB_x2F_Layer_2_x2F__x3C_Path_x3E__x5F_70" viewBox="0 -10.55 8.45 10.525">
	<g id="Layer_1_5_">
		<path style="fill-rule:evenodd;clip-rule:evenodd;fill:#0D2912;" d="M7.4-1.35l1.05-1.2c-0.733-1.767-2.017-4.434-3.85-8
			c-0.167,0.5-0.533,1.033-1.1,1.6C2.967-8.483,2.433-8.133,1.9-7.9C1.4-7.733,0.767-7.65,0-7.65c0.7,1.4,1.867,3.933,3.5,7.6
			c0.733,0.066,1.467,0,2.2-0.2C6.433-0.483,7-0.85,7.4-1.35z"/>
	</g>
</symbol>
<symbol  id="FlashAICB_x2F_Layer_2_x2F__x3C_Path_x3E__x5F_71" viewBox="0 -9.775 13.6 9.775">
	<g id="Layer_1_4_">
		<path style="fill-rule:evenodd;clip-rule:evenodd;fill:#0D2912;" d="M12.1,0l1.5-7.6c-1.2-1.167-2.767-1.85-4.7-2.05
			c-1.333-0.167-2.783-0.167-4.35,0C2.583-9.417,1.067-8.95,0-8.25C0.2-6.383,0.25-5.267,0.15-4.9c0,1.066,0.083,2.633,0.25,4.7
			l0.9-0.5c0.967-0.4,2.1-0.65,3.4-0.75C7.467-1.517,9.417-1.3,10.55-0.8C11.15-0.567,11.667-0.3,12.1,0z"/>
	</g>
</symbol>
<symbol  id="FlashAICB_x2F_Layer_2_x2F__x3C_Path_x3E__x5F_72" viewBox="0 -6.2 5 6.2">
	<g id="Layer_1_3_">
		<path style="fill-rule:evenodd;clip-rule:evenodd;fill:#0D2912;" d="M0-0.7l1.55,0.1c0.534,0.1,1,0.3,1.4,0.6L5-5.05
			C4.667-5.817,3.633-6.2,1.9-6.2C1.433-4.467,0.8-2.633,0-0.7z"/>
	</g>
</symbol>
<g>
	
		<use xlink:href="#FlashAICB_x2F_Layer_2_x2F__x3C_Group_x3E__x5F_7"  width="60.6" height="22.1" y="-22.1" transform="matrix(1 0 0 -1 6.25 111)" style="overflow:visible;opacity:0.6914;enable-background:new    ;"/>
	<path style="fill-rule:evenodd;clip-rule:evenodd;fill:#1F3824;" d="M13.4,101.5c1.6-0.066,2.55,0.066,2.85,0.4
		c0.2,0.233,0.217,0.949,0.05,2.149c-0.167,1.3-0.183,2.15-0.05,2.55c0.833,2.733,1.617,4.7,2.35,5.9
		c0.833,1.366,2.233,2.866,4.2,4.5c3.034,2.5,4.633,3.833,4.8,4c1.8,1.733,3.117,3.05,3.95,3.95c1.6,1.767,2.633,3.283,3.1,4.55
		c0.3,0.833,0.35,1.366,0.15,1.6c-0.2,0.167-0.816,0.284-1.85,0.351c-0.934,0.1-2.034,0.083-3.3-0.05c-1.4-0.2-2.467-0.334-3.2-0.4
		c-5.133-0.634-9.284-2.55-12.45-5.75c-2.033-2.066-4.083-6.5-6.15-13.3c-1.8-5.967-4.35-9.867-7.65-11.7l10,1.5
		C10.6,101.75,11.667,101.667,13.4,101.5z"/>
	<path style="fill-rule:evenodd;clip-rule:evenodd;fill:#31593A;" d="M21.95,103.5l0.5,0.15c0.966,0.3,2.267,0.699,3.9,1.199
		c1.367,0.467,2.583,1.101,3.65,1.9c2.033,1.5,3.85,3.35,5.45,5.55c1.633,2.233,2.8,4.517,3.5,6.851c0.767,2.566,1.216,4.5,1.35,5.8
		c0.233,2.666-0.383,4.35-1.85,5.05l-2.75,1.5c-10.067,0-17.083-2.884-21.05-8.65c-1-1.466-2.017-3.517-3.05-6.149
		c-1.133-3.033-2-5.283-2.6-6.75c-2.3-5.3-5.3-8.533-9-9.7c0.767-0.366,1.95-0.533,3.55-0.5c0.867,0.033,2.083,0.116,3.65,0.25
		c3.1,0.134,5.6,0.467,7.5,1l1.8,0.6c-0.333,0.334-0.55,0.617-0.65,0.851c-0.267,0.733-0.1,1.517,0.5,2.35
		c0.533,0.767,1.267,1.283,2.2,1.55c1,0.267,1.833,0.101,2.5-0.5C21.75,105.15,22.05,104.366,21.95,103.5z"/>
	<path style="fill-rule:evenodd;clip-rule:evenodd;fill:#26452D;" d="M14.65,122.85c-1.133-1.633-2.433-4.383-3.9-8.25
		c-1.533-4.1-2.783-6.949-3.75-8.55c0.9,1.101,2.383,3.3,4.45,6.601c1.867,3.066,3.833,5.5,5.9,7.3
		c2.867,2.533,5.667,3.616,8.4,3.25c1.8-0.233,2.533-1.4,2.2-3.5c-0.267-1.5-0.95-3.167-2.05-5c-0.867-1.467-2.167-2.9-3.9-4.3
		c-1.8-1.467-3.467-2.384-5-2.75c0.9-0.2,2.4,0.116,4.5,0.949c1.533,0.634,3,1.351,4.4,2.15c0.767,0.434,2.3,1.55,4.6,3.35
		c0.933,0.733,1.533,1.034,1.8,0.9c0.233-0.1,0.367-0.717,0.4-1.85c0-1.434-0.25-3.034-0.75-4.801c1.633,1.467,3.05,3.15,4.25,5.051
		c1.267,1.899,2.183,3.816,2.75,5.75c0.767,2.566,1.216,4.5,1.35,5.8c0.233,2.666-0.383,4.35-1.85,5.05l-2.75,1.5
		C25.633,131.5,18.617,128.616,14.65,122.85z"/>
	<path style="fill-rule:evenodd;clip-rule:evenodd;fill:#1F3824;" d="M34.4,116.2c0.434-0.967,0.633-1.867,0.6-2.7
		c0.6,1.066,0.933,2.667,1,4.8c0.033,1.2,0.017,2.917-0.05,5.15c0,2.399-0.35,4.116-1.05,5.149c-0.722,1.069-1.98,1.678-3.775,1.825
		c0.747-0.19,1.306-0.815,1.675-1.875c0.4-1.1,0.534-2.283,0.4-3.55c-0.233-1.833-0.833-3.417-1.8-4.75
		c-0.167-0.233-0.683-1.15-1.55-2.75c-0.6-1.167-1.233-2-1.9-2.5l0.75,0.25c0.9,0.167,1.767,0.6,2.6,1.3
		c0.534,0.434,1.217,1.15,2.05,2.15C33.417,118.467,33.767,117.634,34.4,116.2z"/>
	<path style="fill-rule:evenodd;clip-rule:evenodd;fill:#3C6B46;" d="M18.95,108.5l-0.5,0.25c0.933,0.033,1.7,0.483,2.3,1.35
		c0.633,0.867,0.783,1.75,0.45,2.65c-0.567,1.5-2.35,2-5.35,1.5c-1.6-0.3-3.184-1.634-4.75-4c-1.6-2.366-2.233-4.366-1.9-6
		C11.333,105.017,14.583,106.434,18.95,108.5z"/>
	<path style="fill-rule:evenodd;clip-rule:evenodd;fill:#3C6B46;" d="M17.85,118.3c-0.667-1-0.684-1.649-0.05-1.95
		c0.133-0.066,0.917-0.183,2.35-0.35c0.6-0.1,1.25-0.316,1.95-0.65c0.9-0.466,1.517-0.75,1.85-0.85l0.75,0.75
		c-0.034,1.233-0.083,1.983-0.15,2.25c-0.2,0.8-0.65,1.4-1.35,1.8c-0.7,0.4-1.65,0.483-2.85,0.25
		C19.117,119.35,18.283,118.934,17.85,118.3z"/>
	<path style="fill-rule:evenodd;clip-rule:evenodd;fill:#3C6B46;" d="M27.7,111.5c-0.6-0.866-1.684-1.583-3.25-2.15
		c-1.833-0.666-2.983-1.199-3.45-1.6c1.5-0.366,3-0.517,4.5-0.45c1.967,0.066,3.3,0.533,4,1.4c1.4,1.666,1.733,2.816,1,3.45
		c-0.7,0.633-1.8,0.333-3.3-0.9L27.7,111.5z"/>
	<path style="fill-rule:evenodd;clip-rule:evenodd;fill:#1F3824;" d="M62.75,101.7c0.434,0.166,0.9,0.217,1.4,0.149
		c-1.2,1.634-2.25,2.733-3.15,3.301c-1.434,0.933-3.684,1.333-6.75,1.199c-2.9-0.166-5.2-0.783-6.9-1.85
		c-1.066-0.667-1.649-1.733-1.75-3.2c-0.1-1.366,0.25-2.483,1.051-3.35L46.8,98.6c1.4-1.633,3.084-2.8,5.05-3.5
		c2.034-0.733,4.167-0.899,6.4-0.5c2.866,0.5,4.816,0.667,5.85,0.5c0.9-0.166,1.95-0.783,3.15-1.85
		c-0.134,2.366-0.517,4.25-1.15,5.65c-0.399-0.867-1-1.351-1.8-1.45c-0.833-0.167-1.566,0.1-2.2,0.8
		c-0.166,0.233-0.283,0.483-0.35,0.75c-0.366,0.5-0.384,1.066-0.05,1.7C61.9,101.167,62.25,101.5,62.75,101.7z"/>
	<path style="fill-rule:evenodd;clip-rule:evenodd;fill:#26452D;" d="M65.75,98.35c-0.4-0.566-0.884-0.866-1.45-0.899
		c-0.833-0.167-1.566,0.1-2.2,0.8c-0.166,0.233-0.283,0.483-0.35,0.75c-0.366,0.5-0.384,1.066-0.05,1.7
		c0.3,0.566,0.767,0.934,1.399,1.1c-0.533,0.634-1.149,1.2-1.85,1.7c-1.434,0.9-3.684,1.283-6.75,1.15
		c-2.833-0.101-5.134-0.7-6.9-1.801c-1.066-0.666-1.649-1.733-1.75-3.199c-0.1-1.367,0.25-2.483,1.051-3.351l0.149,0.65
		c1.4-1.634,3.084-2.8,5.05-3.5c2.034-0.733,4.167-0.9,6.4-0.5c2.866,0.5,4.816,0.666,5.85,0.5c0.9-0.167,1.95-0.8,3.15-1.9
		C67.366,94.45,66.783,96.717,65.75,98.35z"/>
	<path style="fill-rule:evenodd;clip-rule:evenodd;fill:#1F3824;" d="M62.65,101.65c0.433,0.199,0.899,0.267,1.399,0.199
		c-0.967,1.267-2.633,2.217-5,2.851c-2.166,0.533-4.133,0.666-5.899,0.399c-0.667-0.1-1.434-0.333-2.301-0.699
		c-1.966-0.867-3.033-1.334-3.199-1.4c-1.267-0.533-2.117-1.417-2.551-2.65c-0.466-1.3-0.083-2.333,1.15-3.1l2.6-2.15
		c0.5,0.801,2.934,1.25,7.301,1.351c-1.2,0.033-2.4,0.233-3.601,0.6c-1.399,0.434-2.316,0.967-2.75,1.601
		c-0.666,0.933-0.7,1.8-0.1,2.6c0.566,0.733,1.483,1.267,2.75,1.6c1.666,0.467,3.434,0.584,5.3,0.351
		C59.583,103,61.217,102.483,62.65,101.65z"/>
	<path style="fill-rule:evenodd;clip-rule:evenodd;fill:#31593A;" d="M66.3,93.2l0.45,0.3c0.033,0.667-0.35,1.3-1.15,1.9
		c-0.366,0.3-1.066,0.716-2.1,1.25c-1.134,0.399-1.833,0.733-2.1,1c-0.167,0.166-0.317,0.433-0.45,0.8
		C60.85,98.85,60.733,99.1,60.6,99.2c-0.366,0.333-0.683,0.483-0.949,0.45c-0.467-0.034-0.851,0-1.15,0.1s-0.684,0.366-1.15,0.8
		c-0.433,0.434-0.783,0.684-1.05,0.75c-0.5,0.2-1.25,0.2-2.25,0c-1.033-0.233-1.75-0.533-2.149-0.899c-1.367-1.334-1-2.45,1.1-3.351
		c0.934-0.399,2.634-0.833,5.1-1.3c0.733-0.1,2.351-0.217,4.851-0.35C65.116,95.1,66.233,94.366,66.3,93.2z"/>
	<path style="fill-rule:evenodd;clip-rule:evenodd;fill:#31593A;" d="M56.95,95c-0.8-0.033-1.816-0.05-3.05-0.05
		c-0.834,0-1.65-0.05-2.45-0.15c0.866-1.166,2.967-1.633,6.3-1.399c1.733,0.133,3.8,0.333,6.2,0.6c-0.667,0.6-1.566,0.95-2.7,1.05
		c-1.333,0.066-2.35,0.117-3.05,0.15L56.95,95z"/>
	<path style="fill-rule:evenodd;clip-rule:evenodd;fill:#31593A;" d="M44.95,40.9l-2.15-4.95l2.15-1.2l4,8.35
		c0.967,1.9,2.333,5.117,4.1,9.65c1.4,3.633,2.517,6.7,3.351,9.2c0.633,1.9,1.199,3.816,1.699,5.75c0.5,2,0.75,3.383,0.75,4.149
		c0,0.634-0.916,2.817-2.75,6.551c-0.933,1.933-2.066,4.183-3.399,6.75c-0.5,1-1.5,3.3-3,6.899c-1.533,3.733-2.601,6.483-3.2,8.25
		c-0.167,0.5-0.566,1.601-1.2,3.3c-0.5,1.634-0.616,2.917-0.35,3.851c0.2,0.767,0.533,2.649,1,5.649c0.6,3.934,1.083,6.9,1.45,8.9
		l1.899,8.65c-0.166,0.399-0.6,0.816-1.3,1.25c-1.4,0.866-3.45,1.366-6.15,1.5c-2.7,0.133-4.75-0.184-6.149-0.95l-1.25-1.2
		c0.6-3.7,0.8-5.967,0.6-6.8c0-2.066,0.2-5.05,0.6-8.95c0.8-7.167,1.533-11.717,2.2-13.65C38.183,100.816,39,99,40.3,96.4
		c1.5-3,3.25-6.233,5.25-9.7c2.467-4.2,5.05-9.351,7.75-15.45c0.367-0.866,0.05-3.217-0.95-7.05c-1.199-4.2-1.916-6.917-2.149-8.15
		c-0.4-2.267-1.084-4.716-2.05-7.35C47.483,46.833,46.417,44.233,44.95,40.9z"/>
	<g>
		<path style="fill-rule:evenodd;clip-rule:evenodd;fill:#26452D;" d="M42.8,35.95l2.15-1.2l4,8.35c0.967,1.9,2.333,5.117,4.1,9.65
			c1.4,3.633,2.517,6.7,3.351,9.2c0.633,1.9,1.199,3.816,1.699,5.75c0.5,2,0.75,3.383,0.75,4.149c0,0.634-0.916,2.817-2.75,6.551
			c-0.933,1.933-2.066,4.183-3.399,6.75c-0.5,1-1.5,3.3-3,6.899c-1.533,3.733-2.601,6.483-3.2,8.25c-0.167,0.5-0.566,1.601-1.2,3.3
			c-0.5,1.634-0.616,2.917-0.35,3.851c0.2,0.767,0.533,2.649,1,5.649c0.6,3.934,1.083,6.9,1.45,8.9l1.899,8.65
			c-0.166,0.399-0.6,0.816-1.3,1.25c-1.4,0.866-3.45,1.366-6.15,1.5c-3.5,0.199-5.866-0.367-7.1-1.7c0.4-0.3,0.767-0.7,1.1-1.2
			c0.267,0.267,0.367,0.667,0.3,1.2c0.367-0.2,1.117-0.25,2.25-0.15c1.033,0.066,1.717-0.1,2.05-0.5
			c0.267-0.333,0.4-0.967,0.4-1.899c0.033-0.233,0.017-1.017-0.05-2.351c0.067,0.233,0.316,0.634,0.75,1.2
			c0.434,0.5,0.684,0.917,0.75,1.25c-0.166-4.481-0.266-7.856-0.3-10.125c-0.003,0.291-0.053,0.549-0.15,0.775
			c0-1.167-0.25-3.084-0.75-5.75c-0.433-2.434-0.583-4.367-0.45-5.801l0.1,0.801c0.1-0.7,0.45-2.134,1.05-4.301
			c0.533-1.833,0.767-3.283,0.7-4.35c-0.267,0.333-0.434,0.717-0.5,1.15c0.066-2.2,0.45-3.934,1.15-5.2
			c0.199-0.367,0.616-0.967,1.25-1.8c0.466-0.634,0.783-1.2,0.949-1.7L45.4,94.4c1.233-3.101,2.583-5.917,4.05-8.45
			c0.3-0.5,0.983-1.584,2.05-3.25c0.9-1.533,1.333-2.667,1.3-3.4L52.25,79.4C52.417,78.8,52.833,78,53.5,77
			c0.767-1.134,1.25-1.934,1.45-2.4c0.633-1.399,1-2.233,1.1-2.5c0.4-1.1,0.55-2,0.45-2.699c-0.4-0.067-0.684-0.084-0.85-0.051
			c0.333-0.767,0.25-1.683-0.25-2.75c-0.733-1.467-1.134-2.333-1.2-2.6c-0.167-0.8-0.367-1.917-0.601-3.35
			c-0.233-1.566-0.416-2.683-0.55-3.35c-0.434-2.133-1.366-4.65-2.8-7.55c-1-2.433-1.833-4.133-2.5-5.1
			c0.033,0.167,0.033,0.45,0,0.85c-0.267-0.367-0.467-0.633-0.6-0.8c-0.267-0.333-0.534-0.517-0.801-0.55L42.8,35.95z"/>
	</g>
	<path style="fill-rule:evenodd;clip-rule:evenodd;fill:#1F3824;" d="M46.1,41.6c-0.733-0.6-1.233-1.083-1.5-1.45l-1.8-4.2l2.15-1.2
		l4,8.35c0.967,1.9,2.333,5.117,4.1,9.65c1.4,3.633,2.517,6.7,3.351,9.2c0.633,1.9,1.199,3.816,1.699,5.75
		c0.5,2,0.75,3.383,0.75,4.149c0,0.634-0.916,2.817-2.75,6.551c-0.933,1.933-2.066,4.183-3.399,6.75c-0.5,1-1.5,3.3-3,6.899
		c-1.533,3.733-2.601,6.483-3.2,8.25c-0.167,0.5-0.566,1.601-1.2,3.3c-0.5,1.634-0.616,2.917-0.35,3.851
		c0.2,0.767,0.533,2.649,1,5.649c0.6,3.934,1.083,6.9,1.45,8.9l1.899,8.65c-0.166,0.399-0.6,0.816-1.3,1.25
		c-1.4,0.866-3.45,1.366-6.15,1.5c-2.633,0.133-4.649-0.167-6.05-0.9l2.1,0.15c0.4,0,1.217,0.05,2.45,0.149
		c1.067,0,1.617-0.35,1.65-1.05c0.233,0.134,0.583,0.167,1.05,0.1c-0.033-1.5-0.017-2.616,0.05-3.35
		c1.134,0.833,1.733,1.267,1.801,1.3c0.533,0.2,0.75-0.25,0.649-1.35c-0.066-1.367-0.25-2.334-0.55-2.9l-0.05,0.8
		c0-1.233-0.117-2.716-0.351-4.449c-0.267-1.934-0.466-3.4-0.6-4.4c-0.233-4.033-0.45-7.05-0.65-9.05l-0.1,0.3
		c0-1.967-0.017-3.15-0.05-3.55l-0.45,0.5c0.2-1.367,0.75-3.033,1.65-5c1.133-2.2,1.933-3.8,2.399-4.8
		c1.867-3.567,3.217-6.25,4.05-8.051c0.801-1.6,1.4-2.8,1.801-3.6c0.666-1.434,1.149-2.684,1.449-3.75c0.167-1.1,0.384-1.9,0.65-2.4
		c0.167-0.333,0.483-0.733,0.95-1.199c0.533-0.534,0.883-0.934,1.05-1.2c0.833-1.3,1.15-2.884,0.95-4.75
		c-0.467-2.167-0.8-3.784-1-4.85c-0.233-1.3-0.851-3.05-1.851-5.25c-1.066-2.333-1.733-4.083-2-5.25
		c-0.199-1.333-0.416-2.267-0.649-2.8c-0.066-0.167-0.233-0.4-0.5-0.7c-0.267-0.267-0.45-0.5-0.55-0.7
		c-0.2-0.467-0.4-1.15-0.601-2.05c-0.2-0.967-0.383-1.667-0.55-2.1c-0.233-0.633-0.616-1.35-1.15-2.15c-0.566-0.867-1-1.533-1.3-2
		C47.283,42.7,46.8,42.2,46.1,41.6z"/>
	<g>
		<path style="fill-rule:evenodd;clip-rule:evenodd;fill:#3C6B46;" d="M37.65,104.25c-0.033-0.833,0.267-1.767,0.9-2.8
			c0.619-0.98,1.036-1.73,1.25-2.25c-0.238,0.742-0.372,1.509-0.4,2.3c-0.033,0.566-0.083,1.45-0.15,2.65
			c0.094,0.031,0.16,0.006,0.2-0.075c-0.833,2.294-1.25,5.486-1.25,9.575c0,1.199-0.067,3.55-0.2,7.05
			c-0.1,2.967-0.117,5.316-0.05,7.05c-0.1-0.5-0.367-2.483-0.8-5.95l-0.25,3.9c-0.433-0.9-0.717-1.851-0.85-2.851
			c0.067-1.533,0.333-4.5,0.8-8.899c0.066-0.667,0.167-2.283,0.3-4.851C37.25,107.033,37.417,105.417,37.65,104.25z"/>
		<path style="fill-rule:evenodd;clip-rule:evenodd;fill:#3C6B46;" d="M52.9,72.15l-0.25,1.55c-0.167,0.7-0.7,2.1-1.601,4.2
			c-0.633,1.466-1.633,3.6-3,6.399l0.851-0.7C48.8,84.033,48.5,84.566,48,85.2c-0.533,0.666-0.866,1.184-1,1.55
			c0.033-0.066,0.134-0.1,0.3-0.1c-0.399,0.8-0.95,1.733-1.649,2.8C44.816,90.684,44.2,91.6,43.8,92.2
			c0-0.066-0.033-0.101-0.1-0.101c-0.601,1.134-1.017,2.25-1.25,3.351c-0.033-0.033-0.033-0.101,0-0.2
			c-0.367,0.467-0.834,1.233-1.4,2.3V97.1c-0.466,0-0.8,0.034-1,0.101c0.034-0.267,0.15-0.566,0.35-0.9
			c0.133-0.2,0.333-0.5,0.6-0.899c0.3-0.634,0.55-1.25,0.75-1.851c1.434-2.666,2.7-4.95,3.8-6.85
			C48.184,82.2,50.634,77.35,52.9,72.15z"/>
	</g>
	<path style="fill-rule:evenodd;clip-rule:evenodd;fill:#3C6B46;" d="M48.675,49.325c0.236,0.797,0.678,1.772,1.325,2.925
		c0.533,0.9,0.833,1.467,0.9,1.7c0.066,0.233,0.149,0.716,0.25,1.45c0.1,0.633,0.233,1.1,0.399,1.4
		c-0.233-0.267-0.383-0.45-0.45-0.55c-0.133,0.667-0.017,1.467,0.351,2.4c0.2,0.533,0.517,1.3,0.95,2.3
		c0.133,0.367,0.25,0.883,0.35,1.55c0.094,0.538,0.169,0.954,0.225,1.25c-0.117-0.474-0.325-1.024-0.625-1.65
		c-0.433-0.833-0.75-1.45-0.949-1.85c-0.534-1.267-0.867-2.4-1-3.4l-0.15-2c-0.033-0.833-0.134-1.517-0.3-2.05
		c-0.066-0.2-0.351-0.9-0.851-2.1C48.902,50.207,48.761,49.749,48.675,49.325z"/>
	
		<use xlink:href="#FlashAICB_x2F_Layer_2_x2F__x3C_Path_x3E__x5F_72"  width="5" height="6.2" y="-6.2" transform="matrix(1 0 0 -1 47.5 46.3501)" style="overflow:visible;opacity:0.5508;enable-background:new    ;"/>
	
		<use xlink:href="#FlashAICB_x2F_Layer_2_x2F__x3C_Path_x3E__x5F_71"  width="13.6" height="9.775" y="-9.775" transform="matrix(1 0 0 -1 34.8999 119.5498)" style="overflow:visible;opacity:0.5508;enable-background:new    ;"/>
	
		<use xlink:href="#FlashAICB_x2F_Layer_2_x2F__x3C_Path_x3E__x5F_70"  width="8.45" height="10.525" y="-10.55" transform="matrix(1 0 0 -1 49.6504 71.5498)" style="overflow:visible;opacity:0.5508;enable-background:new    ;"/>
	
		<use xlink:href="#FlashAICB_x2F_Layer_2_x2F__x3C_Path_x3E__x5F_69"  width="6.7" height="9.6" y="-9.6" transform="matrix(1 0 0 -1 50.75 56.6499)" style="overflow:visible;opacity:0.5508;enable-background:new    ;"/>
	
		<use xlink:href="#FlashAICB_x2F_Layer_2_x2F__x3C_Path_x3E__x5F_68"  width="8.6" height="10.253" y="-10.25" transform="matrix(1 0 0 -1 42.5996 85.25)" style="overflow:visible;opacity:0.5508;enable-background:new    ;"/>
	
		<use xlink:href="#FlashAICB_x2F_Layer_2_x2F__x3C_Path_x3E__x5F_67"  width="9.6" height="11.274" y="-11.307" transform="matrix(1 0 0 -1 36.0498 101.9502)" style="overflow:visible;opacity:0.5508;enable-background:new    ;"/>
	<path style="fill-rule:evenodd;clip-rule:evenodd;fill:#31593A;" d="M56.3,66.85l4.25-4.5c2.601-2.6,4.566-4.434,5.9-5.5
		c0.633-0.5,1.633-0.85,3-1.05c1.399-0.167,2.434-0.066,3.1,0.3c1.467,0.767,3,1.667,4.601,2.7c2.433,1.567,3.783,2.667,4.05,3.3
		c0.467,1.2,0.75,2.05,0.85,2.55c0.2,1.133,0.084,2.367-0.35,3.7c-0.3,0.934-1.033,2.233-2.2,3.9c-1.2,1.634-2.134,2.667-2.8,3.1
		c-1.233,0.801-2.533,0.851-3.9,0.15c-0.666-0.4-1.467-1.017-2.399-1.85c-1.101-0.934-1.667-1.567-1.7-1.9
		c-0.066-0.333,0.1-0.983,0.5-1.95c0.399-0.866,0.767-1.55,1.1-2.05c0.733-1.033,1.7-1.417,2.9-1.15
		c0.733,0.167,1.483,0.667,2.25,1.5L74.8,68c-0.533-0.167-0.967-0.283-1.3-0.35c-0.6-0.133-1.033-0.066-1.3,0.2
		c-1.167,1.167-1.75,2.216-1.75,3.15c0,1,0.916,1.866,2.75,2.6c0.7,0.301,1.283,0.367,1.75,0.2c0.399-0.133,0.934-0.533,1.6-1.2
		c0.667-0.666,1.316-1.583,1.95-2.75c0.7-1.233,1.05-2.149,1.05-2.75c0-0.8-0.184-1.65-0.55-2.55c-0.467-1.167-1.15-2.15-2.05-2.95
		c-1.134-0.967-2.5-1.717-4.101-2.25c-1.8-0.567-3.183-0.567-4.149,0c-0.9,0.533-2.233,1.9-4,4.1c-1.867,2.466-3.117,4.066-3.75,4.8
		c-0.5,0.6-1.066,1.483-1.7,2.65c-0.333,0.633-0.733,0.949-1.2,0.949c-0.566,0-0.983-0.066-1.25-0.199
		c-0.1-0.067-0.467-0.334-1.1-0.801c-0.434-0.333-0.517-1.05-0.25-2.149C55.684,67.733,55.967,67.117,56.3,66.85z"/>
	<g>
		<path style="fill-rule:evenodd;clip-rule:evenodd;fill:#26452D;" d="M59.65,65.4c0.233-0.233,0.6-0.517,1.1-0.85
			c0.366-0.333,0.917-0.883,1.65-1.65c0.066-0.066,0.466-0.55,1.199-1.45c0.467-0.633,0.9-1.034,1.301-1.2l-0.051,0.3
			c0.267-0.167,0.717-0.533,1.351-1.1c0.533-0.467,1-0.8,1.399-1c0.733-0.333,1.851-0.35,3.351-0.05
			c2.233,0.4,4.116,1.15,5.649,2.25c1.2,0.867,2.084,1.95,2.65,3.25l0.2,1.35v0.05l-0.05,0.55c-0.4-1.733-1.217-3.15-2.45-4.25
			c-1.134-0.967-2.5-1.717-4.101-2.25c-1.8-0.567-3.183-0.567-4.149,0c-0.9,0.533-2.233,1.9-4,4.1
			c-1.867,2.466-3.117,4.066-3.75,4.8c-0.5,0.6-1.066,1.483-1.7,2.65c-0.333,0.633-0.733,0.949-1.2,0.949
			c-0.566,0-0.983-0.066-1.25-0.199c-0.1-0.067-0.467-0.334-1.1-0.801c-0.467-0.333-0.566-1-0.3-2
			c0.399,0.134,0.75-0.017,1.05-0.449c0.166-0.233,0.399-0.601,0.7-1.101c0.433-0.566,0.916-0.983,1.449-1.25
			c-0.1,0.133-0.149,0.333-0.149,0.6C58.783,66.55,59.184,66.133,59.65,65.4z"/>
		<path style="fill-rule:evenodd;clip-rule:evenodd;fill:#26452D;" d="M77.75,59.5l0.8,0.25c1.533,1.067,2.417,1.85,2.65,2.35
			c0.467,1.2,0.75,2.05,0.85,2.55c0.2,1.133,0.084,2.367-0.35,3.7c-0.3,0.934-1.033,2.233-2.2,3.9c-1.2,1.634-2.134,2.667-2.8,3.1
			c-1.233,0.801-2.533,0.851-3.9,0.15c-0.666-0.4-1.467-1.017-2.399-1.85c-1.101-0.934-1.667-1.567-1.7-1.9
			c0.133,0.1,0.333,0.35,0.6,0.75c0.233,0.333,0.434,0.55,0.601,0.65c0.133,0.066,0.383,0.116,0.75,0.149
			c0.366,0,0.616,0.033,0.75,0.101c0.466,0.199,0.85,0.449,1.149,0.75c0.134,0.133,0.334,0.316,0.601,0.55
			c0.199,0.166,0.433,0.233,0.699,0.2c0.034,0.366,0.284,0.449,0.75,0.25c0.233-0.101,0.534-0.284,0.9-0.551L75.35,74.9
			c0.4-0.167,0.817-0.534,1.25-1.101l-0.1,0.25c1.033-0.7,1.667-1.383,1.9-2.05l-0.051,0.1c0.334-0.833,0.717-1.566,1.15-2.199
			l0.05,0.25c0.367-0.801,0.717-1.2,1.05-1.2l0.25-0.8v0.3c0.034-0.8,0.051-1.4,0.051-1.8c0-0.733-0.067-1.35-0.2-1.85
			c-0.066-0.2-0.316-0.716-0.75-1.55c-0.3-0.633-0.467-1.183-0.5-1.65c0.199,0,0.324,0.008,0.375,0.025
			c-0.717-0.454-1.075-0.862-1.075-1.225c0.1,0.033,0.267,0.083,0.5,0.15L77.75,59.5z"/>
		<path style="fill-rule:evenodd;clip-rule:evenodd;fill:#26452D;" d="M70.15,69.9c0.199-0.334,0.3-0.584,0.3-0.75l-0.101,0.1l0.4-1
			l-0.15,0.1c0.2-0.199,0.334-0.466,0.4-0.8h-0.25c0.366-0.1,0.917-0.15,1.65-0.15L72.1,67.3c1.267,0,2.284,0.167,3.051,0.5
			l0.199,0.25v0.05L74.8,68c-0.533-0.167-0.967-0.283-1.3-0.35c-0.6-0.133-1.033-0.066-1.3,0.2c-1.167,1.167-1.75,2.216-1.75,3.15
			c0,0.333,0.1,0.65,0.3,0.95c-0.3-0.066-0.517-0.167-0.65-0.3c-0.233-0.2-0.35-0.351-0.35-0.45c-0.033-0.033,0-0.233,0.1-0.601
			C69.884,70.434,69.983,70.2,70.15,69.9z"/>
	</g>
	<g>
		<path style="fill-rule:evenodd;clip-rule:evenodd;fill:#1F3824;" d="M60.65,66.6c0.433-0.434,0.616-0.8,0.55-1.1l-0.351,0.25
			c0.2-0.3,0.784-0.7,1.75-1.2c0.867-0.433,1.351-0.9,1.45-1.4c0.167,0.067,0.434-0.167,0.8-0.7c0.4-0.534,0.5-0.817,0.301-0.85
			c0.3-0.233,0.833-0.633,1.6-1.2c0.7-0.5,1.184-0.95,1.45-1.35l0.05,0.6c-0.9,0.667-2.167,2.05-3.8,4.15
			c-1.733,2.267-2.9,3.75-3.5,4.45c-0.5,0.6-1.066,1.483-1.7,2.65c-0.333,0.633-0.733,0.949-1.2,0.949H57.65
			c0.199-0.533,0.233-0.966,0.1-1.3c-0.233,0.033-0.384-0.05-0.45-0.25c-0.033-0.166,0.017-0.35,0.15-0.55L57.6,69.9
			c0.5-0.301,0.834-0.767,1-1.4c0.233,0.134,0.517,0.083,0.851-0.15c0.333-0.233,0.566-0.483,0.7-0.75H59.8
			C59.866,67.433,60.15,67.1,60.65,66.6z"/>
		<path style="fill-rule:evenodd;clip-rule:evenodd;fill:#1F3824;" d="M81.2,62.1c0.467,1.2,0.75,2.05,0.85,2.55
			c0.2,1.133,0.084,2.367-0.35,3.7c-0.3,0.934-1.033,2.233-2.2,3.9c-1.2,1.634-2.134,2.667-2.8,3.1
			c-1.233,0.801-2.533,0.851-3.9,0.15l-1.1-0.75c0.333,0,0.866,0.167,1.6,0.5c0.533,0.267,1.066,0.283,1.601,0.05
			c0.966-0.467,1.5-0.733,1.6-0.8c0.566-0.3,1.017-0.667,1.35-1.1c0.767-0.934,1.184-1.467,1.25-1.601
			c0.101-0.1,0.301-0.434,0.601-1c0.233-0.399,0.483-0.7,0.75-0.899l0.05,0.149c0.333-0.633,0.566-1.1,0.7-1.399
			c0.2-0.5,0.3-1,0.3-1.5c0-0.733-0.066-1.467-0.2-2.2c-0.2-0.9-0.35-1.633-0.45-2.2c0.101,0.033,0.284,0.067,0.551,0.1
			c-0.467-0.633-0.717-1.017-0.75-1.15L81,61.8L81.2,62.1z"/>
		<path style="fill-rule:evenodd;clip-rule:evenodd;fill:#1F3824;" d="M72.35,67.75l-0.149,0.1c-0.834,0.867-1.367,1.617-1.601,2.25
			c-0.033-0.1-0.033-0.25,0-0.449c0-0.134,0.117-0.467,0.351-1c0.166-0.434,0.217-0.734,0.149-0.9
			C71.533,67.717,71.95,67.717,72.35,67.75z"/>
	</g>
	<path style="fill-rule:evenodd;clip-rule:evenodd;fill:#3C6B46;" d="M68,56.3l-0.05,0.1c0.3-0.3,0.75-0.45,1.35-0.45
		c0.601-0.034,1.084,0.05,1.45,0.25c-0.833-0.067-1.384-0.017-1.65,0.15c0.2,0.033,0.483,0.05,0.851,0.05
		c-0.267,0.133-0.5,0.217-0.7,0.25c-0.5-0.066-0.866-0.066-1.1,0c-0.267,0.067-0.567,0.25-0.9,0.55c-0.467,0.4-0.733,0.617-0.8,0.65
		c-0.934,0.6-1.65,1.066-2.15,1.4c-0.388,0.272-0.712,0.531-0.975,0.775c0.097-0.141,0.205-0.299,0.325-0.475
		c0.399-0.466,0.916-0.9,1.55-1.3c0.3-0.2,0.75-0.567,1.35-1.1C67.083,56.717,67.566,56.433,68,56.3z"/>
	<path style="fill-rule:evenodd;clip-rule:evenodd;fill:#3C6B46;" d="M72.7,67c-0.7,0-1.267,0.2-1.7,0.6
		c-0.5,0.567-0.917,1.016-1.25,1.35c-0.033-0.233,0.1-0.566,0.4-1c0.233-0.333,0.483-0.617,0.75-0.85
		c0.366-0.3,0.833-0.483,1.399-0.55c0.634-0.066,1.084,0.083,1.351,0.45H72.7z"/>
	<path style="fill-rule:evenodd;clip-rule:evenodd;fill:#3C6B46;" d="M79.85,63.65l-0.1,0.1c-0.066-0.1-0.45-0.5-1.15-1.2
		c-0.533-0.566-0.816-1.033-0.85-1.4c0.934,0.733,1.667,1.567,2.2,2.5c0.633,1.133,0.85,2.2,0.649,3.2
		c-0.166-0.8-0.283-1.267-0.35-1.4l-0.05,0.1c0.133,0.833,0.217,1.4,0.25,1.7c0.033,0.667-0.066,1.233-0.3,1.7l-0.051-0.2
		c-0.233,0.467-0.449,0.8-0.649,1c-0.467,0.5-0.75,0.833-0.851,1c-0.133,0.566-0.267,0.95-0.399,1.15
		c-0.134,0.166-0.367,0.333-0.7,0.5c-0.267,0.6-0.684,1.033-1.25,1.3c-1.2,0.666-1.95,0.934-2.25,0.8c0.467-0.1,0.95-0.4,1.45-0.9
		c0.6-0.566,1.033-0.916,1.3-1.05c0.5-0.7,0.866-1.149,1.1-1.35c0.4-0.4,0.851-1.033,1.351-1.9c0.399-0.633,0.6-1.483,0.6-2.55
		c-0.033-1.2-0.066-2.1-0.1-2.7l0.05,0.1C79.75,63.917,79.783,63.75,79.85,63.65z"/>
	
		<use xlink:href="#FlashAICB_x2F_Layer_2_x2F__x3C_Group_x3E__x5F_2"  width="24.416" height="20.19" x="0.035" y="-20.19" transform="matrix(1 0 0 -1 57.5996 55.7998)" style="overflow:visible;opacity:0.5508;enable-background:new    ;"/>
	<path style="fill-rule:evenodd;clip-rule:evenodd;fill:#3F5559;" d="M45.35,24.65c1.067,1.367,1.534,2.783,1.4,4.25l2,1.5
		c-0.333,1.267-1.467,2.45-3.4,3.55c-2.767,1.566-4.766,2.583-6,3.05c-1.667,0.6-4.217,0.9-7.65,0.9c-2.067,0-3.383-0.066-3.95-0.2
		c-1.1-0.267-2.15-0.934-3.15-2c-1.4-1.5-3.117-2.367-5.15-2.6c-1.167-0.067-2.017-0.133-2.55-0.2c-0.967-0.066-1.783-0.3-2.45-0.7
		c-0.767-0.467-1.467-1.1-2.1-1.9c-0.667-0.833-1.067-1.633-1.2-2.4c2.434,0.333,4.184,0.467,5.25,0.4
		c1.967-0.1,3.533-0.683,4.7-1.75c1.467-1.333,2.816-2.35,4.05-3.05c1.5-0.9,3.1-1.5,4.8-1.8c2.566-0.434,4.783-0.6,6.65-0.5
		c2.7,0.2,4.417,0.433,5.15,0.7C43.184,22.467,44.384,23.383,45.35,24.65z"/>
	<path style="fill-rule:evenodd;clip-rule:evenodd;fill:#4A6369;" d="M19.85,28.45c-0.1-0.2-0.067-0.434,0.1-0.7
		c0.2-0.3,0.8-0.7,1.8-1.2c1.367-0.966,2.367-1.583,3-1.85c1.033-0.467,2.2-0.684,3.5-0.65l-0.3-0.65c0.533-1,2.583-1.316,6.15-0.95
		c-0.367,0.333-1.033,0.667-2,1c-0.967,0.333-1.633,0.65-2,0.95c-0.667,0.533-1.317,1.317-1.95,2.35c-0.133,0.2-0.267,0.533-0.4,1
		c-0.133,0.433-0.283,0.767-0.45,1c-0.566,0.8-1.7,1.583-3.4,2.35c-2.3,1.033-4.283,1.283-5.95,0.75c-0.133-0.5,0.15-1.033,0.85-1.6
		c0.767-0.667,1.184-1.15,1.25-1.45L19.85,28.45z"/>
	<path style="fill-rule:evenodd;clip-rule:evenodd;fill:#334447;" d="M47.35,27.7c0.2,0.966,0.167,1.867-0.1,2.7
		c-0.366,1.2-1.15,2.35-2.35,3.45c-1.134,1-2.334,1.7-3.601,2.1c-1.4,0.433-3.167,0.667-5.3,0.7c-2.467-0.066-4.283-0.1-5.45-0.1
		c-0.5-0.033-0.883-0.05-1.15-0.05c-0.5,0.033-0.883,0.117-1.15,0.25l-4.65-1c-0.4-0.9-1.45-1.433-3.15-1.6
		c-1.934,0-3.217-0.083-3.85-0.25c-0.867-0.2-1.833-0.75-2.9-1.65c-1.233-1.033-1.767-1.933-1.6-2.7c0,0.6,0.517,1.217,1.55,1.85
		c0.867,0.5,1.684,0.833,2.45,1c0.933,0.2,2.117,0.283,3.55,0.25c0.833,0,2.033-0.033,3.6-0.1c0.967-0.033,2.1-0.35,3.4-0.95
		c1.533-0.7,2.633-1.117,3.3-1.25c1.267-0.233,2.9-0.367,4.9-0.4c2.633-0.034,4.267-0.067,4.9-0.1c0.2-1.033-0.233-2-1.3-2.9
		c-0.567-0.5-1.534-1.083-2.9-1.75c-1.066-0.567-2.216-0.917-3.45-1.05c-0.633-0.066-1.85-0.1-3.65-0.1
		c1.466-0.433,3.066-0.617,4.8-0.55c1.6,0.067,3.167,0.35,4.7,0.85c0.533,0.167,1.783,0.583,3.75,1.25
		c1.666,0.333,2.467-0.233,2.399-1.7c0.267,0,0.65,0.167,1.15,0.5c0.4,0.3,0.717,0.583,0.95,0.85
		C46.767,25.917,47.15,26.733,47.35,27.7z"/>
	<path style="fill-rule:evenodd;clip-rule:evenodd;fill:#334447;" d="M11.75,28.75h0.7c0.733,0.167,1.9,0.217,3.5,0.15
		c1.066,0,1.617,0.217,1.65,0.65c0.033,0.5-0.283,0.767-0.95,0.8c-0.767-0.067-1.267-0.117-1.5-0.15c0.4,0.267,0.7,0.617,0.9,1.05
		c-0.633,0.133-1.483-0.067-2.55-0.6C12.3,30.083,11.717,29.45,11.75,28.75z"/>
	<path style="fill-rule:evenodd;clip-rule:evenodd;fill:#55747A;" d="M38.7,31.75v0.85c1.767-0.033,3.116,0.367,4.05,1.2
		c1,0.934,1.083,2.133,0.25,3.6c-0.267,0.467-0.934,1.117-2,1.95c-0.933,0.767-1.55,1.533-1.85,2.3
		c-0.267,0.767-0.517,1.917-0.75,3.45c-0.233,1.7-0.433,2.867-0.6,3.5c-1.433,5.333-5.05,9.283-10.85,11.85
		c-5.567,2.5-11.284,2.95-17.15,1.35c5.034-1.033,7.45-4.083,7.25-9.15c-0.267-2.933-0.433-5.15-0.5-6.65
		c-0.066-2.667,0.317-4.85,1.15-6.55c1.767-3.5,4.716-5.784,8.85-6.85C28.883,32.033,32.933,31.75,38.7,31.75z"/>
	<g>
		<path style="fill-rule:evenodd;clip-rule:evenodd;fill:#4A6369;" d="M40.95,39.35c-0.9,0.767-1.5,1.533-1.8,2.3
			c-0.267,0.767-0.517,1.917-0.75,3.45c-0.233,1.7-0.433,2.867-0.6,3.5c-1.433,5.333-5.05,9.283-10.85,11.85
			c-5.567,2.5-11.284,2.95-17.15,1.35c0.6-0.1,1.267-0.283,2-0.55c3.967,0.033,6.233,0.033,6.8,0c2.633-0.167,4.75-0.733,6.35-1.7
			c1.733-1.066,3.7-2.583,5.9-4.55c2-1.767,3.3-3.367,3.9-4.8c0.267-0.567,0.4-1.25,0.4-2.05c0-1.333,0-2.033,0-2.1
			c0-0.1,0.617-1.867,1.85-5.3c0.933-2.667,1.083-4.333,0.45-5c-0.667-0.7-1.75-1.133-3.25-1.3c-1.6-0.167-2.934,0.1-4,0.8
			c-1.934,1.267-3.4,2.333-4.4,3.2c-0.167,2.6-0.233,4.033-0.2,4.3c0.433,3.433,1.517,5.017,3.25,4.75
			c-1.8,0.333-3.067-0.383-3.8-2.15c-0.566-1.333-0.816-3.1-0.75-5.3c-1.4,1.434-2.383,2.583-2.95,3.45
			c-0.133,1.1,0.133,3.633,0.8,7.6c0.533,3.167,0.283,5.683-0.75,7.55c0.033-1.8-0.05-4.133-0.25-7
			c-0.267-3.566-0.417-5.883-0.45-6.95c-0.133,0.3-0.233,0.633-0.3,1l0.15-1.85c-0.7,0.967-1.883,1.85-3.55,2.65
			c0.233-0.3,0.617-0.633,1.15-1c0.567-0.433,0.967-0.783,1.2-1.05c0.2-0.2,0.45-0.583,0.75-1.15c0.267-0.533,0.517-0.917,0.75-1.15
			c0.267-1.433,0.633-2.65,1.1-3.65l0.15-0.35c-0.733,0.233-1.25,0.434-1.55,0.6c-0.167,0.067-1.017,0.65-2.55,1.75
			c0.4-0.7,1.183-1.483,2.35-2.35c1.2-0.967,2.217-1.517,3.05-1.65c1-1.1,1.4-2.1,1.2-3h-0.8c1.867-0.8,4.217-1.317,7.05-1.55
			c1.467-0.133,4-0.2,7.6-0.2L39.2,32c1.934,0.267,3.233,0.833,3.899,1.7c0.7,0.933,0.617,2.167-0.25,3.7
			C42.583,37.867,41.95,38.517,40.95,39.35z"/>
		<path style="fill-rule:evenodd;clip-rule:evenodd;fill:#4A6369;" d="M19.7,49.5h0.25c-0.233,0.4-0.434,0.967-0.6,1.7
			C19.35,50.567,19.467,50,19.7,49.5z"/>
		<path style="fill-rule:evenodd;clip-rule:evenodd;fill:#4A6369;" d="M19.35,51.2c-0.033,0.667-0.017,1.65,0.05,2.95
			c0,1.167-0.183,2.1-0.55,2.8c-0.2,0.466-0.45,0.883-0.75,1.25c-0.233,0.767-0.617,1.35-1.15,1.75l0.15-0.8
			c-0.467,0.333-1.15,0.65-2.05,0.95c-1.167,0.433-1.933,0.733-2.3,0.9c2.533-1.3,3.85-3.217,3.95-5.75
			c0.667,0.1,1.233-0.317,1.7-1.25C18.6,53.567,18.917,52.633,19.35,51.2z"/>
	</g>
	<path style="fill-rule:evenodd;clip-rule:evenodd;fill:#3F5559;" d="M39.2,39.9c0.733-1.4,1.15-2.45,1.25-3.15
		c0.233-1.767-0.434-2.983-2-3.65c-0.534,0.066-1.367,0.083-2.5,0.05c-1.1,0-1.934,0.017-2.5,0.05
		c-0.967,0.133-2.05,0.417-3.25,0.85c-1.434,0.534-2.35,1.1-2.75,1.7h-0.5c-0.3-1.3,0.167-2.317,1.4-3.05
		c1-0.6,2.267-0.917,3.8-0.95c1.1-0.667,3.1-0.817,6-0.45c3.034,0.434,4.784,1.233,5.25,2.4c0.666,1.767,0.083,3.483-1.75,5.15
		c-2.2,1.967-3.351,3.4-3.45,4.3C38.167,42.217,38.5,41.133,39.2,39.9z"/>
	<path style="fill-rule:evenodd;clip-rule:evenodd;fill:#3F5559;" d="M24.75,37.4v0.35c-0.4,1.167-1.4,2.75-3,4.75
		c-0.367,0.467-0.75,1.2-1.15,2.2c-0.4,1.033-0.767,1.767-1.1,2.2c0.167-1.233,0.3-2.15,0.4-2.75c0.133-1.066,0.417-1.917,0.85-2.55
		c0.333-0.5,1.033-1.184,2.1-2.05C23.817,38.783,24.45,38.067,24.75,37.4z"/>
	<path style="fill-rule:evenodd;clip-rule:evenodd;fill:#3F5559;" d="M18.05,55.6l-0.1,0.8c-0.367,1-0.667,1.684-0.9,2.05
		c-0.4,0.6-1.033,0.867-1.9,0.8c0.533-0.3,1.15-0.883,1.85-1.75C17.583,56.73,17.934,56.097,18.05,55.6z"/>
	<path style="fill-rule:evenodd;clip-rule:evenodd;fill:#60838A;" d="M32.8,37.1c0.6,0.333,1.017,0.833,1.25,1.5
		c0.5,1.333,0.383,1.983-0.35,1.95c-1.067-0.267-1.867-0.417-2.4-0.45c-0.066,1.2-0.017,2.183,0.15,2.95
		c0.033,0.233,0.267,0.934,0.7,2.1c0.333,0.9,0.467,1.583,0.4,2.05c-1.667-0.2-2.7-0.35-3.1-0.45c-1.2-0.267-2.167-0.667-2.9-1.2
		c-1.1-0.8-1.533-2.417-1.3-4.85c0.1-1.067,0.767-2.067,2-3c1.067-0.767,2.233-1.317,3.5-1.65l0.2,0.7
		C31.65,36.65,32.267,36.767,32.8,37.1z"/>
	<path style="fill-rule:evenodd;clip-rule:evenodd;fill:#60838A;" d="M23.25,42.4l0.2,0.35c0.6,0.467,0.983,1.5,1.15,3.1
		c0.267,2.1,0.433,3.267,0.5,3.5c0.233,0.667,0.566,1.533,1,2.6c0.3,0.933,0.417,1.85,0.35,2.75c-0.1,1.1-0.5,1.45-1.2,1.05
		c-0.567-0.333-1.1-0.95-1.6-1.85c-0.133,1.934-0.417,3.033-0.85,3.3c-0.133-1.7-0.483-4.6-1.05-8.7
		c-0.167-1.467-0.183-2.567-0.05-3.3C21.9,44.267,22.417,43.333,23.25,42.4z"/>
	<path style="fill-rule:evenodd;clip-rule:evenodd;fill:#60838A;" d="M20.6,48.25v0.5c0,3.567-0.017,5.567-0.05,6
		c-0.2,3.133-0.8,4.683-1.8,4.65c0.367-0.533,0.517-2.566,0.45-6.1C19.167,50.2,19.633,48.517,20.6,48.25z"/>
	<path style="fill-rule:evenodd;clip-rule:evenodd;fill:#60838A;" d="M18.45,46.55l-0.35,0.5c0.033,0.3,0.017,0.733-0.05,1.3
		c-0.267,0.133-0.583,0.133-0.95,0c-0.067-0.367,0.05-0.733,0.35-1.1C17.75,46.883,18.083,46.65,18.45,46.55z"/>
	<path style="fill-rule:evenodd;clip-rule:evenodd;fill:#60838A;" d="M21.25,39.55c-0.133,0.6-0.5,1.417-1.1,2.45
		c-0.3,0.8-0.517,1.25-0.65,1.35c-0.2,0.133-0.717,0.133-1.55,0c-0.034-0.9,0.25-1.75,0.85-2.55c0.633-0.9,1.4-1.316,2.3-1.25H21.25
		z"/>
	<path style="fill-rule:evenodd;clip-rule:evenodd;fill:#60838A;" d="M23.45,36.25c-0.367,0.333-0.934,0.433-1.7,0.3
		c0.1-0.433,0.333-0.7,0.7-0.8c0.4-0.133,0.733-0.033,1,0.3V36.25z"/>
	<path style="fill-rule:evenodd;clip-rule:evenodd;fill:#4A6369;" d="M43.7,29.85c0.967-2.367,2.017-4.3,3.149-5.8
		c2.634-3.533,6.95-5.3,12.95-5.3c4.2-0.033,7.167,0.367,8.9,1.2c2.533,1.2,4.083,3.65,4.649,7.35c0.334,2.1,0.317,4.434-0.05,7
		c-0.133,1.1-0.566,3.35-1.3,6.75c-1.533-2.633-3.316-4.483-5.35-5.55c-1.867-0.967-4.467-1.55-7.801-1.75
		c-2.366-0.167-5.149,0.15-8.35,0.95c-1.366,0.466-2.384,0.783-3.05,0.95c-1.134,0.267-2.15,0.184-3.05-0.25l-1.65,0.35
		C42.184,34.65,42.5,32.683,43.7,29.85z"/>
	<path style="fill-rule:evenodd;clip-rule:evenodd;fill:#3F5559;" d="M47.15,29.9l1.05-1.45c-0.101-0.1-0.384-0.483-0.851-1.15
		c-0.366-0.5-0.816-0.783-1.35-0.85c1.134,0.033,2.333,0,3.6-0.1l0.5-0.95c0.767-1.533,1.667-2.816,2.7-3.85
		c1.3-1.333,2.65-2.1,4.05-2.3c-0.767,0.867-1.433,1.733-2,2.6c1.334-0.7,2.9-1.083,4.7-1.15c1.834-0.067,3.3,0.233,4.4,0.9
		c-1.066-0.267-2.517-0.35-4.351-0.25c-2.066,0.1-3.75,0.433-5.05,1c-0.633,1-1.2,2.05-1.7,3.15l-0.1,0.2l0.1-0.05
		c1.467-0.467,2.95-0.783,4.45-0.95c1.151-0.128,2.626-0.195,4.425-0.2c-0.955,0.026-2.264,0.192-3.925,0.5
		c-2.366,0.4-4.2,0.917-5.5,1.55c-0.833,1.233-1.467,2.15-1.899,2.75c-0.733,1.133-1.217,2.1-1.45,2.9
		c1.366,0.066,3.066,0.017,5.1-0.15l2.15-0.5c1.3-0.367,2.783-0.9,4.45-1.6c0.566-0.2,1.933-1.034,4.1-2.5
		c1.7-1.167,3.1-1.733,4.2-1.7c2.333,0.033,3.566,1.783,3.7,5.25c0.133,1.467,0.1,2.633-0.101,3.5l0.65,0.6
		c-0.367,2.066-0.767,4.05-1.2,5.95c-1.533-2.633-3.316-4.483-5.35-5.55c-1.867-0.967-4.467-1.55-7.801-1.75
		c-2.366-0.167-5.149,0.15-8.35,0.95c-1.366,0.466-2.384,0.783-3.05,0.95c-1.134,0.267-2.15,0.184-3.05-0.25l-1.65,0.35
		c-0.434-0.9-0.283-2.417,0.45-4.55c0.1,0.4,0.333,0.7,0.7,0.9c0.399,0.2,0.833,0.25,1.3,0.15c0.434-0.1,0.833-0.417,1.2-0.95
		C46.6,31,46.85,30.533,47.15,29.9z"/>
	<path style="fill-rule:evenodd;clip-rule:evenodd;fill:#334447;" d="M66.9,29.75c1.3-1,2.449-1.083,3.449-0.25
		c0.801,0.7,1.301,1.917,1.5,3.65c0,0.267,0.034,1.684,0.101,4.25c-0.167-0.667-0.584-1.35-1.25-2.05
		c-0.8-0.767-1.384-1.367-1.75-1.8c-0.033,0.4,0.033,0.9,0.2,1.5c0.1,0.333,0.25,0.833,0.449,1.5c-1.6-1.133-2.899-1.8-3.899-2
		c-0.467-0.1-0.934-0.1-1.4,0c-1.533-0.433-3.35-0.7-5.45-0.8c-2.366-0.167-5.149,0.15-8.35,0.95
		c-1.366,0.466-2.384,0.783-3.05,0.95c-1.134,0.267-2.15,0.184-3.05-0.25l-1.65,0.35c-0.267-0.6-0.3-1.45-0.1-2.55
		c0.5,0.767,1.517,1.033,3.05,0.8c0.633-0.133,1.1-0.317,1.399-0.55c0.067-0.067,0.417-0.467,1.051-1.2
		c-0.267,1.167,0.6,1.733,2.6,1.7c1.066,0,2.55-0.15,4.45-0.45c0.733-0.033,2.133-0.367,4.2-1c0.5-0.133,1.166-0.233,2-0.3
		c1-0.067,1.666-0.133,2-0.2C63.866,31.9,65.033,31.15,66.9,29.75z"/>
	<path style="fill-rule:evenodd;clip-rule:evenodd;fill:#55747A;" d="M43.15,29.45c0.533-1.534,1.199-2.85,2-3.95
		c2.133-3,4.199-5.033,6.199-6.1c1-0.5,2.351-0.75,4.051-0.75c0.966-0.033,2.383,0,4.25,0.1c0.767,0,2.116,0.167,4.05,0.5
		c0.854,0.134,1.604,0.226,2.25,0.275c-1.724,0.021-3.073,0.097-4.05,0.225c-0.667,0.067-1.7,0.283-3.101,0.65
		c-1.333,0.3-2.366,0.483-3.1,0.55c0.133-0.8,0.35-1.367,0.649-1.7c-1.199-0.067-2.216,0.15-3.05,0.65c-1,0.767-1.866,1.4-2.6,1.9
		c-0.667,0.434-1.066,0.717-1.2,0.85c-0.267,0.233-0.533,0.583-0.8,1.05c-0.233,0.433-0.351,1-0.351,1.7
		c-0.133,0.467-0.683,0.667-1.649,0.6c-0.767,2.933-1.767,4.767-3,5.5l0.75,0.5C42.884,32.4,42.45,31.55,43.15,29.45z"/>
	<path style="fill-rule:evenodd;clip-rule:evenodd;fill:#55747A;" d="M60.7,25.25v1c-0.533,1.233-2.117,2.35-4.75,3.35
		c-2.733,1.033-4.584,1.066-5.55,0.1c1.166-2,2.566-3.284,4.199-3.85C55.733,25.45,57.767,25.25,60.7,25.25z"/>
	<path style="fill-rule:evenodd;clip-rule:evenodd;fill:#55747A;" d="M61.95,23.75c-0.8,0-2.184,0.1-4.15,0.3
		c-1.767,0.167-3.133,0.217-4.1,0.15c0.566-1.3,1.85-1.983,3.85-2.05c1.533-0.066,3.084,0.217,4.65,0.85L61.95,23.75z"/>
	<path style="fill-rule:evenodd;clip-rule:evenodd;fill:#55747A;" d="M64.95,21.75c-1.334-0.1-2.066-0.317-2.2-0.65
		c-0.134-0.267,0.15-0.517,0.85-0.75c2-0.6,3.267-0.233,3.801,1.1c-0.867,0.1-1.434,0.117-1.7,0.05L64.95,21.75z"/>
	<path style="fill-rule:evenodd;clip-rule:evenodd;fill:#60838A;" d="M41.05,46.35c0.7,0.2,1.184,0.283,1.45,0.25l0.05-0.55
		c2.566,2.133,5.75,3.3,9.55,3.5l4.851,0.1c2,0,3.616,0.167,4.85,0.5c2.9,0.7,5.434,1.5,7.601,2.4c0.767,0.333,1.3,0.633,1.6,0.9
		c0.434,0.333,0.767,0.8,1,1.4c-0.934-0.5-2.2-0.95-3.8-1.35c-1.767-0.367-3.066-0.667-3.9-0.9c-2.133-0.6-3.3-0.934-3.5-1
		c-1.366-0.333-2.55-0.517-3.55-0.55c-4.167-0.2-7.667-0.65-10.5-1.35l-3.95-1c-1.733-0.434-2.833-0.883-3.3-1.35
		c-0.367-0.367-0.75-1.117-1.15-2.25c-0.434-1.233-0.667-1.867-0.7-1.9c0.167,0.066,0.733,0.6,1.7,1.6
		C40.283,45.767,40.85,46.283,41.05,46.35z"/>
	<path style="fill-rule:evenodd;clip-rule:evenodd;fill:#55747A;" d="M55.65,13.35c2.199,0.167,4.083-0.117,5.649-0.85
		c0.101-0.033,0.417-0.2,0.95-0.5c0.4-0.2,0.75-0.317,1.05-0.35c0.634,1.1,0.816,2.317,0.55,3.65c-0.267,1.3-0.916,2.35-1.949,3.15
		c-1.434,1.1-3.25,1.816-5.45,2.15c0.066,0.467,0.166,1.1,0.3,1.9l0.3,2.05c0.566,0.1,1.117,0.267,1.65,0.5
		c1.934,0.767,3.7,2.034,5.3,3.8c1.467,1.633,2.55,3.383,3.25,5.25c0.833,2.333,1.267,3.583,1.3,3.75
		c0.5,1.467,0.816,2.75,0.95,3.85c0.033,0.333,0.1,1.3,0.2,2.9c0.033,1.2,0.133,2.183,0.3,2.95c0.134,0.633,0.533,1.85,1.2,3.65
		c0.566,1.566,0.883,2.783,0.95,3.65c-0.434-0.4-1.034-0.75-1.801-1.05c-0.899-0.267-1.566-0.483-2-0.65
		c-3.366-1.267-6.199-2.1-8.5-2.5c-1.199-0.2-2.683-0.333-4.449-0.4c-2.5-0.133-3.967-0.217-4.4-0.25c-1.833-0.133-4-0.617-6.5-1.45
		c-2.434-0.8-4.183-1.55-5.25-2.25c-1.6-1.066-2.633-2.45-3.1-4.15c-0.267-0.967-0.4-2.117-0.4-3.45c0.033-1.5,0.05-2.617,0.05-3.35
		c0.067-1.3,0.117-2.05,0.15-2.25c0.2-1.033,0.6-1.65,1.2-1.85l3.95-4.1c0.634-0.267,1.551-0.733,2.75-1.4l-0.05-0.1
		c-0.399-0.8-0.684-1.717-0.85-2.75c-0.2-1.3-0.101-2.233,0.3-2.8l0.3-0.3c-0.066-1.2,0.717-2.55,2.351-4.05
		C47.866,13.917,51.116,13.117,55.65,13.35z"/>
	<path style="fill-rule:evenodd;clip-rule:evenodd;fill:#4A6369;" d="M59.1,17.7c0.733,0,1.517-0.184,2.351-0.55
		c0.866-0.367,1.416-0.767,1.649-1.2c-0.1,0.733-0.383,1.45-0.85,2.15l-0.35,0.35c-1.434,1.1-3.25,1.816-5.45,2.15
		c0.066,0.467,0.166,1.1,0.3,1.9l0.3,2.05c0.566,0.1,1.117,0.267,1.65,0.5c1.6,0.633,3.1,1.633,4.5,3c1.3,1.233,2.366,2.633,3.2,4.2
		c-0.134,0.133-0.384,0.117-0.75-0.05c-0.134-0.067-0.301-0.267-0.5-0.6c-0.233-0.333-0.434-0.55-0.601-0.65
		c-0.3-0.2-0.75-0.35-1.35-0.45c-0.566-0.1-1.017-0.1-1.351,0c-0.3,0.1-0.5,0.267-0.6,0.5c-0.033,0.133-0.1,0.35-0.2,0.65
		c-0.1,0.2-0.316,0.533-0.649,1c-0.034,0.1,0.05,0.417,0.25,0.95c0.133,0.433,0.1,0.733-0.101,0.9
		c-0.133,0.133-0.883,0.283-2.25,0.45c0.3,0.733,0.934,1.583,1.9,2.55c1.133,1.133,1.85,1.933,2.149,2.4
		c0.367,0.567,0.9,1.633,1.601,3.2c0.633,1.367,1.25,2.417,1.85,3.15c-1.6-1.4-2.85-2.417-3.75-3.05
		c-1.934-1.3-3.283-2.15-4.05-2.55c-2.566-1.367-4.767-1.75-6.6-1.15c-0.7,0.233-1.5,0.833-2.4,1.8c-0.167,0.2-0.384,0.55-0.65,1.05
		c-0.233,0.467-0.483,0.8-0.75,1c-0.3,0.233-0.699,0.433-1.199,0.6l-1.351,0.4c-0.566,0.2-0.883,0.383-0.95,0.55
		c-0.033,0.1,0,0.517,0.101,1.25l0.3,2.4c-2.434-0.8-4.183-1.55-5.25-2.25c-1.6-1.066-2.633-2.45-3.1-4.15
		c-0.267-0.967-0.4-2.117-0.4-3.45c0.033-1.5,0.05-2.617,0.05-3.35c0.067-1.3,0.117-2.05,0.15-2.25c0.2-1.033,0.6-1.65,1.2-1.85
		l3.95-4.1c0.634-0.267,1.551-0.733,2.75-1.4l-0.05-0.1c-0.399-0.8-0.684-1.717-0.85-2.75c-0.2-1.3-0.101-2.233,0.3-2.8l0.3-0.3
		c-0.066-1.2,0.717-2.55,2.351-4.05c0.466-0.433,1.05-0.833,1.75-1.2c3.066-0.2,5.399-0.3,7-0.3c0.3,0.033,0.733,0.033,1.3,0
		c0.467,0.033,0.85,0.083,1.149,0.15c1.034,0.267,2.267,0.35,3.7,0.25c0.033,0.267-0.233,0.55-0.8,0.85c-0.634,0.3-1,0.517-1.1,0.65
		C58.733,16.483,58.8,17,59.1,17.7z"/>
	<path style="fill-rule:evenodd;clip-rule:evenodd;fill:#3F5559;" d="M45.9,25.9c1.833-0.333,4.433-0.467,7.8-0.4
		c1.1,0.033,2.783,0.183,5.05,0.45c0.2,0.033,0.483,0.066,0.85,0.1c0.334,0.067,0.584,0.184,0.75,0.35
		c0.134,0.133,0.25,0.5,0.351,1.1c0.166,0.733,0,1.517-0.5,2.35c-0.334,0.566-0.667,0.95-1,1.15c-0.3,0.167-0.884,0.333-1.75,0.5
		c0.033,0.5-0.066,0.817-0.3,0.95c-0.4,0.133-0.75,0.267-1.051,0.4c1.434,1.4,2.534,2.583,3.301,3.55
		c0.233,0.3,0.616,0.783,1.149,1.45c0.4,0.6,0.566,1.117,0.5,1.55c-0.3-0.533-0.717-0.967-1.25-1.3
		c-0.733-0.367-1.316-0.684-1.75-0.95c-0.866-0.5-1.916-0.967-3.149-1.4c-4-1.2-6.483-1.217-7.45-0.05
		c-0.3,0.333-0.483,0.933-0.55,1.8c-0.067,0.867-0.267,1.483-0.601,1.85c-0.366,0.367-0.616,0.6-0.75,0.7
		c-0.166,0.2-0.316,0.467-0.45,0.8c-0.267,0.7-0.449,1.117-0.55,1.25c-0.267,0.4-0.666,0.717-1.2,0.95l-1.199,0.5
		c-0.2,0.133-0.334,0.517-0.4,1.15c-1.033,0.133-1.983-0.333-2.85-1.4c-0.667-0.833-1.1-1.75-1.3-2.75L40,29.5
		C40.867,27.7,42.833,26.5,45.9,25.9z"/>
	<path style="fill-rule:evenodd;clip-rule:evenodd;fill:#3F5559;" d="M58.95,14.85c-0.066,0.167-0.267,0.4-0.601,0.7
		c-0.267,0.2-0.366,0.467-0.3,0.8c0.167,0.8,0.5,1.3,1,1.5c0.566,0.267,1.25,0.3,2.05,0.1c0.634-0.133,1.217-0.367,1.75-0.7
		c0.167,0.333-0.033,0.7-0.6,1.1c-0.733,0.4-1.217,0.667-1.45,0.8c-0.934,0.434-1.583,0.684-1.95,0.75
		c-1.166,0.233-2.066,0.067-2.699-0.5c-0.434-0.4-0.801-1.133-1.101-2.2l2-2.1C57.384,14.933,58.017,14.85,58.95,14.85z"/>
	<path style="fill-rule:evenodd;clip-rule:evenodd;fill:#3F5559;" d="M39.2,36.65c0.267,0.4,0.9,1.283,1.899,2.65
		c0.767,1.267,0.9,2.233,0.4,2.9c-0.3,0.4-1.1,0.65-2.4,0.75c-0.8,0.066-1.267,0.183-1.4,0.35c-0.167,0.167-0.15,0.6,0.05,1.3
		c0.3,1.1,0.867,1.833,1.7,2.2c-1.467,0.067-2.55,0.05-3.25-0.05c-0.333-0.067-0.784-0.2-1.35-0.4c-0.733-0.233-1.2-0.383-1.4-0.45
		c-1.333-0.7-2.367-1.1-3.1-1.2c-0.367-0.067-0.934,0.017-1.7,0.25c-0.7,0.2-1.217,0.25-1.55,0.15c-0.233-0.067-0.5-0.317-0.8-0.75
		c-0.3-0.467-0.566-0.75-0.8-0.85c-0.1-0.033-0.283-0.033-0.55,0c-0.233,0.067-0.417,0.067-0.55,0
		c-0.267-0.167-0.417-0.483-0.45-0.95c-0.034-0.4,0.05-0.716,0.25-0.95c0.167-0.2,0.5-0.45,1-0.75c0.466-0.3,0.783-0.567,0.95-0.8
		c0.7-0.833,0.95-1.667,0.75-2.5L39.2,36.65z"/>
	<path style="fill-rule:evenodd;clip-rule:evenodd;fill:#3F5559;" d="M58.55,20.1c0.2,0.066,0.4,0.217,0.601,0.45
		c0.199,0.267,0.383,0.417,0.55,0.45c0.333,0.133,1.017,0.117,2.05-0.05c1.134-0.167,1.833-0.233,2.1-0.2
		c-1.233,0.1-1.933,0.367-2.1,0.8c-0.066,0.167-0.017,0.333,0.15,0.5c0.166,0.2,0.267,0.35,0.3,0.45s-0.017,0.217-0.15,0.35
		c-0.1,0.133-0.149,0.233-0.149,0.3c0,0.5-0.017,0.8-0.051,0.9c-0.033,0.067-0.1,0.15-0.199,0.25c-0.101,0.1-0.134,0.217-0.101,0.35
		c0.033,0.167,0.2,0.45,0.5,0.85c0.367,0.4,0.566,0.717,0.601,0.95c-0.634-0.333-1.784-0.367-3.45-0.1l-5.05-5.7
		C56.517,20.05,57.983,19.867,58.55,20.1z"/>
	<path style="fill-rule:evenodd;clip-rule:evenodd;fill:#36494D;" d="M57.8,19c0.767,0.067,1.367,0.4,1.8,1
		c0.267,0.333,0.534,0.75,0.801,1.25c0.133,0.267,0.233,0.6,0.3,1c0.066,0.3,0,0.65-0.2,1.05c0,0.233,0.15,0.517,0.45,0.85
		c0.3,0.3,0.434,0.567,0.399,0.8c0.134,0.033,0.284,0.1,0.45,0.2c0.167,0.467,0.7,1.1,1.601,1.9c0.233,0.367,0.566,1.117,1,2.25
		c-0.634-0.433-1.101-0.783-1.4-1.05c-0.134-0.067-0.3-0.25-0.5-0.55c-0.2-0.233-0.4-0.383-0.6-0.45c-0.801-0.267-1.2-0.1-1.2,0.5
		c-0.033,0.933-0.066,1.417-0.101,1.45c-0.3,0.433-0.966,0.833-2,1.2c-1.3,0.467-2.066,0.767-2.3,0.9
		c-0.767,0.467-0.733,1.083,0.101,1.85c1.033,0.967,1.5,1.7,1.399,2.2c-0.333-0.934-1.616-1.7-3.85-2.3
		c-2.134-0.6-3.733-0.733-4.8-0.4c-0.334,0.1-0.617,0.3-0.851,0.6c-0.267,0.367-0.517,0.6-0.75,0.7
		c-0.066,0.066-0.217,0.117-0.45,0.15c-0.233,0-0.399,0.033-0.5,0.1c-0.166,0.133-0.25,0.383-0.25,0.75c0,0.2,0,0.483,0,0.85
		c-0.133,1.067-0.5,2.3-1.1,3.7c-0.1,0.233-0.233,0.583-0.4,1.05c-0.166,0.4-0.383,0.7-0.649,0.9c-0.467,0.4-1.65,0.816-3.55,1.25
		c-0.3,0.066-0.9,0.1-1.8,0.1c-0.767-0.033-1.367,0.067-1.8,0.3c0.067,0.3,0.184,0.783,0.35,1.45c0.1,0.567,0.1,1.034,0,1.4
		c-0.767-0.133-2.183-0.717-4.25-1.75c-1.533-0.767-3-0.983-4.4-0.65c-0.1,0.034-0.267-0.05-0.5-0.25
		c-0.233-0.233-0.4-0.35-0.5-0.35c-0.2-0.067-0.467-0.25-0.8-0.55c-0.3-0.267-0.55-0.433-0.75-0.5c-1-0.267-2.017,0.033-3.05,0.9
		c-1.167,0.934-1.85,2.233-2.05,3.9c0-0.1-0.133-0.767-0.4-2c-0.133-0.633-0.083-1.184,0.15-1.65c0.633-1.9,2.033-3.5,4.2-4.8
		l11.2-13.15c0.167-0.233,0.45-0.5,0.85-0.8c2.667-2.1,5.15-3.417,7.45-3.95c1.9-0.434,5.517-0.85,10.851-1.25
		C56.866,19.033,57.667,19,57.8,19z"/>
	<path style="fill-rule:evenodd;clip-rule:evenodd;fill:#60838A;" d="M62.4,33.95c0.1-0.367,0.233-0.617,0.399-0.75
		c0.233-0.167,0.483-0.2,0.75-0.1c0.134,0.066,0.384,0.233,0.75,0.5c1.934,1.5,3.066,4,3.4,7.5c0.066,0.667,0.033,1.45-0.101,2.35
		c-0.1,0.533-0.233,1.316-0.399,2.35c-0.066,0.534,0.033,1.217,0.3,2.05c0.134,0.467,0.35,1.167,0.65,2.1
		c-0.301-0.2-0.851-1-1.65-2.4c-0.533-1-1.05-2.333-1.55-4c-0.467-1.367-0.783-2.2-0.95-2.5l-0.7-1.1
		c-0.267-0.233-0.483-0.434-0.649-0.6c-0.867-0.8-1.534-1.75-2-2.85L60.6,36.8c-0.267-0.5-0.233-1.017,0.101-1.55
		c0.133-0.133,0.383-0.217,0.75-0.25c0.366-0.067,0.6-0.167,0.7-0.3C62.25,34.6,62.333,34.35,62.4,33.95z"/>
	<path style="fill-rule:evenodd;clip-rule:evenodd;fill:#60838A;" d="M63.95,46.2l0.3,0.3c0.2,0.167,0.467,0.517,0.8,1.05
		c0.334,0.467,0.617,0.784,0.851,0.95l-1.45-0.15c-0.367-0.033-0.834-0.167-1.4-0.4c-0.633-0.233-1.1-0.367-1.399-0.4
		c-0.2-0.033-1.217,0.034-3.051,0.2c-1.633,0.133-2.517,0.067-2.649-0.2c-0.101-0.2,0.017-0.383,0.35-0.55
		c0.367-0.233,0.566-0.383,0.601-0.45c-0.301,0-1.117-0.117-2.45-0.35c-0.867-0.067-1.566-0.15-2.101-0.25
		c-0.933-0.167-1.583-0.4-1.949-0.7c-0.2-0.2-0.317-0.367-0.351-0.5c0-0.1,0.05-0.3,0.15-0.6c0.3-1.1,0.934-1.816,1.899-2.15
		c0.267-0.1,1.167-0.233,2.7-0.4c2.267-0.333,4.066,0.033,5.4,1.1c0.399,0.333,1.017,0.917,1.85,1.75
		C62.85,45.217,63.483,45.8,63.95,46.2z"/>
	<path style="fill-rule:evenodd;clip-rule:evenodd;fill:#2D3A3D;" d="M44.75,29.15c1.5,0.067,2.316,0.35,2.45,0.85
		c0.033,0.233-0.05,0.617-0.25,1.15c-0.167,0.467-0.351,0.833-0.55,1.1c-0.101,0.133-0.4,0.483-0.9,1.05
		c-0.333,0.333-0.55,0.717-0.65,1.15c-0.1,0.3-0.133,0.767-0.1,1.4c0,0.633-0.033,1.083-0.1,1.35c-0.2,1.1-0.733,2.017-1.601,2.75
		c-0.8,0.7-1.75,1.15-2.85,1.35c-0.133,0.034-0.717,0.034-1.75,0c-0.9-0.033-1.45,0.034-1.65,0.2c-0.233,0.2-0.35,0.667-0.35,1.4
		c0,0.4,0.033,0.917,0.1,1.55c-0.267-0.133-0.6-0.4-1-0.8c-0.466-0.5-0.8-0.816-1-0.95c-0.9-0.733-1.55-1.184-1.95-1.35
		c-0.233-0.1-0.55-0.15-0.95-0.15c-0.533,0.033-0.867,0.033-1,0c-0.7-0.2-1.283-0.317-1.75-0.35l-1.35-0.15
		c-0.4-0.367-0.683-0.567-0.85-0.6c-0.467-0.133-1.083-0.067-1.85,0.2c-0.8,0.333-1.367,0.55-1.7,0.65c0.1-0.8,0.65-1.833,1.65-3.1
		l12-8.25c0.534-0.333,1.367-0.5,2.5-0.5c0.6,0,1.467,0.033,2.601,0.1C42.167,29.2,43.116,29.183,44.75,29.15z"/>
	<path style="fill-rule:evenodd;clip-rule:evenodd;fill:#2D3A3D;" d="M49.45,27c2.666-1.967,5.55-2.983,8.649-3.05
		c1.233,0,2.017,0.133,2.351,0.4c0.434,0.367,0.633,0.783,0.6,1.25c-0.033,0.3-0.2,0.7-0.5,1.2c-0.434,0.8-0.783,1.4-1.05,1.8
		c-0.467,0.667-0.95,1.117-1.45,1.35c-0.166,0.066-0.583,0.183-1.25,0.35c-0.533,0.133-0.934,0.3-1.2,0.5
		c-0.399,0.434-0.649,0.717-0.75,0.85c-0.133,0.133-0.433,0.15-0.899,0.05c-1.7-0.3-3.334-0.45-4.9-0.45L49.45,27z"/>
	<path style="fill-rule:evenodd;clip-rule:evenodd;fill:#CFC795;" d="M43.3,0c0.667,0.1,2.617,0.95,5.851,2.55
		c3.433,1.7,5.533,2.934,6.3,3.7c1.166,1.1,2.717,2.717,4.649,4.85l0.101,6.45c-0.033,4.6-0.351,7.667-0.95,9.2
		c-0.634,1.567-1.667,2.617-3.1,3.15c-1.9,0.4-3.384,0.733-4.45,1c-1.334,0.367-2.884,0.45-4.65,0.25l-2.3-0.4l-0.5,1
		c-0.366,0.833-0.684,1.717-0.95,2.65c-0.366,1.5-0.934,3.184-1.7,5.05c-0.1,0.333-0.716,0.517-1.85,0.55
		c-1.9,0.033-3.217,0.1-3.95,0.2c-3.633,0.533-6.917,0.517-9.85-0.05c-1.467-0.267-2.917-0.867-4.35-1.8l-1.7-1.3
		c-0.4-0.167-0.45-0.883-0.15-2.15l2.15-6.7l-3.5-2.55c-1.233-0.867-1.983-2.066-2.25-3.6c-0.1-0.5,0.934-2.833,3.1-7
		c2.267-4.333,3.433-6.667,3.5-7c0.133-0.633,1.567-1.65,4.3-3.05c2.3-1.2,4.25-2.067,5.85-2.6c2.033-0.633,4.133-1.2,6.3-1.7
		C41.366,0.2,42.733-0.033,43.3,0z"/>
	<path style="fill-rule:evenodd;clip-rule:evenodd;fill:#BAB27D;" d="M45.45,0.8c1.866,0.833,3.767,1.767,5.7,2.8
		c2.267,1.2,3.699,2.083,4.3,2.65c1.166,1.1,2.717,2.717,4.649,4.85l0.101,6.45c-0.033,4.6-0.351,7.667-0.95,9.2
		c-0.634,1.567-1.667,2.617-3.1,3.15c-1.9,0.4-3.384,0.733-4.45,1c-1.334,0.367-2.884,0.45-4.65,0.25l-2.3-0.4l-0.5,1
		c-0.366,0.833-0.684,1.717-0.95,2.65c-0.366,1.5-0.934,3.184-1.7,5.05c-0.1,0.333-0.716,0.517-1.85,0.55
		c-1.9,0.033-3.217,0.1-3.95,0.2c-3.633,0.533-6.917,0.517-9.85-0.05c-1.467-0.267-2.917-0.867-4.35-1.8l-1.7-1.3
		c-0.4-0.167-0.45-0.883-0.15-2.15l2.15-6.7l-3.5-2.55c-1.233-0.867-1.983-2.066-2.25-3.6c-0.033-0.233,0.1-0.716,0.4-1.45
		c0.3,1.033,1.017,1.417,2.15,1.15c0.066,1.7,0.933,2.65,2.6,2.85c1.667,0.233,2.483-0.617,2.45-2.55
		c-0.033-1.8-0.65-2.667-1.85-2.6c-1.267,0.1-1.333,0.95-0.2,2.55c-1.367,0.4-2.117-0.167-2.25-1.7c-0.1-1.566,0.45-2.566,1.65-3
		c0.967-0.367,1.883-0.117,2.75,0.75c0.733,0.733,1.25,1.633,1.55,2.7c0.3,0.967,0.283,2.033-0.05,3.2
		c-0.2,0.667-0.617,1.7-1.25,3.1c-0.2,0.567-0.467,1.4-0.8,2.5c-0.3,1.133-0.566,1.967-0.8,2.5c0.867-1.533,1.917-2.417,3.15-2.65
		c0,0.6-0.1,1.733-0.3,3.4c-0.2,1.5-0.267,2.684-0.2,3.55c1.067,0.3,2.033-0.517,2.9-2.45c0.934-2.066,1.934-3.1,3-3.1
		c0.034,0.5-0.017,1.784-0.15,3.85c0,1.934,0.317,3.05,0.95,3.35c0.733,0.333,1.45-0.3,2.15-1.9c0.367-0.833,0.817-1.95,1.35-3.35
		c0.033,0.333,0.183,0.833,0.45,1.5c0.833-0.167,1.65-0.867,2.45-2.1c0.733-1.133,1.117-2.15,1.15-3.05c-0.2,0-0.517-0.067-0.95-0.2
		c-0.4-0.167-0.717-0.233-0.95-0.2c-0.3-3.867-0.317-6.633-0.05-8.3c0.2-1.4,0.8-2.316,1.8-2.75c0.833-0.333,2.116-0.417,3.85-0.25
		c1.567,0.133,2.767,0.583,3.601,1.35c1,0.9,1.25,2.117,0.75,3.65c-0.434,1.267-1.351,1.9-2.75,1.9c-1.367-0.033-2.367-0.633-3-1.8
		c1.467,1.1,2.633,1.017,3.5-0.25c0.866-1.267,0.616-2.333-0.75-3.2c-1.367-0.9-2.601-0.7-3.7,0.6c-0.967,1.133-1.4,2.383-1.3,3.75
		c0.066,1.4,0.633,2.367,1.7,2.9c0.966,0.5,2.267,0.617,3.899,0.35c1.267-0.2,2.267-0.8,3-1.8c0.134-0.167,0.7-1.217,1.7-3.15
		c0.267-0.467,0.667-1.083,1.2-1.85c0.434-0.7,0.684-1.4,0.75-2.1c0.133-1.033-0.033-1.867-0.5-2.5
		c-0.767-1.033-1.217-1.733-1.351-2.1c-0.633-1.667-0.166-2.733,1.4-3.2c1.634-0.5,2.366-1.133,2.2-1.9
		c-0.167-0.633-0.7-1.083-1.601-1.35c-1.3-0.4-2-0.633-2.1-0.7c-0.467-0.367-0.884-0.833-1.25-1.4c-0.4-0.667-0.733-1.184-1-1.55
		C46.9,2.15,46.217,1.4,45.45,0.8z"/>
	<g>
		<path style="fill-rule:evenodd;clip-rule:evenodd;fill:#8F8961;" d="M54.2,12.8c0.133-0.267,0.583-0.533,1.35-0.8
			c0.566-0.167,0.767-0.683,0.601-1.55c0.233,0,0.649-0.067,1.25-0.2c-0.367-1.133-1.75-2.517-4.15-4.15
			c-2.634-1.767-4.217-3.05-4.75-3.85c3.8,1.833,6.116,3.167,6.95,4c1.166,1.1,2.717,2.717,4.649,4.85l0.101,6.45
			c-0.033,4.6-0.351,7.667-0.95,9.2c-0.634,1.567-1.667,2.617-3.1,3.15c-1.9,0.4-3.384,0.733-4.45,1
			c-1.334,0.367-2.884,0.45-4.65,0.25l-2.3-0.4l-0.5,1c-0.366,0.833-0.684,1.717-0.95,2.65c-0.366,1.5-0.934,3.184-1.7,5.05
			c-0.1,0.333-0.716,0.517-1.85,0.55c-1.9,0.033-3.217,0.1-3.95,0.2c-3.633,0.533-6.917,0.517-9.85-0.05
			c-1.467-0.267-2.917-0.867-4.35-1.8l-1.7-1.3c-0.4-0.167-0.45-0.883-0.15-2.15l0.15-0.45c0.333,0.767,0.817,1.283,1.45,1.55
			c0.2-1.633,0.65-2.8,1.35-3.5c0.033,0.467,0.017,1.417-0.05,2.85c0.067,1.2,0.533,1.75,1.4,1.65c0.067-2.9,0.5-5.1,1.3-6.6
			c-0.033,1.1,0.066,2.583,0.3,4.45c0.3,2.433,0.467,3.933,0.5,4.5c2.2,0.4,3.35-0.533,3.45-2.8c0.133-2.8,0.617-4.4,1.45-4.8
			c0.067,0.833,0.083,2.1,0.05,3.8c0,1.7,0.017,2.967,0.05,3.8c0.4,0.1,1.133,0.117,2.2,0.05c1.133-0.033,1.833-0.133,2.1-0.3
			c0.533-0.367,0.85-0.9,0.95-1.6c0.133-0.967,0.25-1.567,0.35-1.8c0.133,0.3,0.3,0.816,0.5,1.55c0.2,0.8,0.367,1.367,0.5,1.7
			c0.933-1.167,1.75-2.367,2.45-3.6c0.967-1.733,1.35-3.033,1.149-3.9L40.8,31.3c0.067-0.5-0.4-1.367-1.4-2.6
			c-1.066-1.3-1.6-2.333-1.6-3.1c0-1.7,0.317-3.1,0.95-4.2c0.5-0.833,1.267-1.6,2.3-2.3c-1.466,1.733-1.917,3.917-1.35,6.55
			c0.6,2.7,2.066,3.95,4.399,3.75c0.567-0.033,1.483-0.3,2.75-0.8c1.101-0.434,1.967-0.833,2.601-1.2c0.133-0.066,0.467-0.35,1-0.85
			c0.467-0.433,0.8-0.683,1-0.75c0.399-0.133,0.916-0.183,1.55-0.15c0.8,0.067,1.366,0.083,1.7,0.05
			c1.066-4.034,1.316-6.917,0.75-8.65c-0.033-0.167-0.45-0.833-1.25-2C53.8,14.417,53.8,13.667,54.2,12.8z"/>
		<path style="fill-rule:evenodd;clip-rule:evenodd;fill:#8F8961;" d="M18.4,25.65c-0.767-0.566-1.333-1.217-1.7-1.95
			c0.867-0.233,1.233-0.883,1.1-1.95c0.233,0.4,0.917,1,2.05,1.8c0.767,0.7,0.633,1.233-0.4,1.6c0.4,0.434,0.95,0.633,1.65,0.6
			c0.3-0.033,0.95-0.167,1.95-0.4c-0.066-1.233,0.2-2.783,0.8-4.65c1.033,1.2,1.333,2.566,0.9,4.1c-0.4,1.367-1.25,2.483-2.55,3.35
			l-0.35,0.2l0.05-0.15L18.4,25.65z"/>
	</g>
	<path style="fill-rule:evenodd;clip-rule:evenodd;fill:#8F8961;" d="M44.55,19c0.167,0.233,0.55,0.533,1.15,0.9
		c0.6,0.367,0.983,0.717,1.149,1.05c0.167,0.333,0.217,0.8,0.15,1.4s-0.217,1.033-0.45,1.3c-0.6,0.6-1.517,0.783-2.75,0.55
		c-1.233-0.267-1.95-0.833-2.149-1.7c0.8,0.967,1.666,1.017,2.6,0.15c0.9-0.833,1.167-1.767,0.8-2.8L44.55,19z"/>
	<path style="fill-rule:evenodd;clip-rule:evenodd;fill:#8F8961;" d="M43.45,23.6l-1.75-0.85c-0.033-0.433-0.05-0.767-0.05-1
		c0-0.367,0.1-0.65,0.3-0.85c0.267-0.3,0.566-0.417,0.899-0.35c0.334,0.034,0.483,0.267,0.45,0.7c-0.066-0.3-0.399-0.383-1-0.25
		c-0.267,0.667-0.217,1.2,0.15,1.6c0.333,0.4,0.866,0.566,1.6,0.5v0.5H43.45z"/>
	<path style="fill-rule:evenodd;clip-rule:evenodd;fill:#8F8961;" d="M21.55,19.2c1.034-0.333,1.85-0.017,2.45,0.95
		c0.5,0.8,0.717,1.733,0.65,2.8c-0.2,0.066-0.4,0.033-0.6-0.1l-0.35-1c0.066-0.434-0.117-0.934-0.55-1.5
		c-0.433-0.633-0.883-0.934-1.35-0.9c-0.3,0.033-0.517,0.183-0.65,0.45c-0.133,0.233-0.167,0.517-0.1,0.85
		c0.067,0.333,0.2,0.533,0.4,0.6c0.033,0,0.316,0,0.85,0c0.034,0.433-0.216,0.667-0.75,0.7c-0.5,0.034-0.833-0.117-1-0.45
		c-0.2-0.467-0.183-0.95,0.05-1.45C20.8,19.65,21.117,19.333,21.55,19.2z"/>
	<path style="fill-rule:evenodd;clip-rule:evenodd;fill:#6E694A;" d="M21.15,27.85c-0.066-0.033-0.566-0.417-1.5-1.15
		c-0.667-0.467-1.2-0.833-1.6-1.1c-0.7-0.5-1.083-0.934-1.15-1.3c0.333,0.233,0.85,0.333,1.55,0.3c0.367,0,0.917,0,1.65,0
		c-0.167,0.167-0.267,0.333-0.3,0.5v0.6c1.167,0.066,1.883,0.066,2.15,0c0.533-0.167,0.917-0.667,1.15-1.5
		c0.331-1.173,0.322-2.356-0.025-3.55c1.145,0.847,1.654,1.931,1.525,3.25c-0.1,1.233-0.7,2.35-1.8,3.35
		C22.167,27.85,21.617,28.05,21.15,27.85z"/>
	<path style="fill-rule:evenodd;clip-rule:evenodd;fill:#6E694A;" d="M44.75,19.95c0.04,0.3,0.14,0.65,0.3,1.05
		c0.3,0.667,0.434,1.183,0.4,1.55c0.566,0.067,1,0.034,1.3-0.1c0.167,1.4-0.6,2.017-2.3,1.85c-1.7-0.2-2.584-0.983-2.65-2.35
		c0.5,0.867,1.117,1.167,1.851,0.9s1.1-0.867,1.1-1.8V19.95z"/>
	<path style="fill-rule:evenodd;clip-rule:evenodd;fill:#6E694A;" d="M34.75,39.4c0.933-0.1,1.517-0.483,1.75-1.15
		c0.067-0.233,0.1-0.983,0.1-2.25c0.133,1.433,0.65,2.45,1.55,3.05c1,0.7,1.967,0.35,2.9-1.05c0.233-0.333,0.367-0.8,0.4-1.4
		c0.066-0.8,0.133-1.317,0.2-1.55c0.3-0.933,0.517-1.633,0.649-2.1c0.2-0.767,0.3-1.5,0.3-2.2c0.733-0.067,1.45-0.067,2.15,0
		c0.066,0.767-0.05,1.45-0.35,2.05c-0.467,0.7-0.851,1.284-1.15,1.75c-0.7,1.5-1.25,2.617-1.65,3.35
		c-0.267,0.833-0.483,1.417-0.649,1.75c-0.233,0.567-0.684,0.934-1.35,1.1c-0.5,0.1-1.15,0.083-1.95-0.05
		c-0.933-0.167-1.566-0.25-1.9-0.25c-1.8,0.1-3.133,0.15-4,0.15c-1.533,0.033-2.867-0.133-4-0.5c-0.533-0.167-1.3-0.333-2.3-0.5
		c-1.1-0.2-1.883-0.367-2.35-0.5c-1-0.133-1.617-0.25-1.85-0.35c-0.267-0.133-0.483-0.417-0.65-0.85
		c-0.2-0.467-0.417-0.75-0.65-0.85l-0.5-1c0.9,0.6,1.55,0.934,1.95,1c0.667,0.067,0.95-0.466,0.85-1.6c0.2,0.7,0.533,1.4,1,2.1
		c0.3,0.4,0.533,0.633,0.7,0.7c0.033,0.033,0.35,0.133,0.95,0.3c0-0.1-0.066-1.466-0.2-4.1c-0.067-1.7,0.117-2.95,0.55-3.75
		c0,2.1,0.05,3.383,0.15,3.85c0.1,0.434,0.317,1.15,0.65,2.15c0.3,0.9,0.483,1.617,0.55,2.15c1.1,0.367,1.816,0.283,2.15-0.25
		c0.1-0.167,0.283-0.9,0.55-2.2c0.1-0.5,0.367-1.167,0.8-2c0.566-1,0.9-1.65,1-1.95c-0.067,3.2-0.067,5.333,0,6.4
		c0.433-0.033,1.05,0.066,1.85,0.3C33.75,39.35,34.35,39.433,34.75,39.4z"/>
	<path style="fill-rule:evenodd;clip-rule:evenodd;fill:#6E694A;" d="M39.45,22.75v0.5c0,1.2,0.066,2.033,0.2,2.5
		c0.233,0.733,0.717,1.4,1.45,2c0.301,0.233,1.15,0.667,2.551,1.3c1.199,0.667,1.733,1.267,1.6,1.8
		c-0.767,0.133-1.733-0.05-2.9-0.55c-1.1-0.5-1.917-1.066-2.45-1.7c-0.566-0.667-0.867-1.617-0.9-2.85
		C39,24.783,39.15,23.783,39.45,22.75z"/>
	<path style="fill-rule:evenodd;clip-rule:evenodd;fill:#6E694A;" d="M60.1,11.25V10.4c0.233,1.033,0.317,2.35,0.25,3.95
		c-0.033,0.933-0.116,2.283-0.25,4.05c-0.1,1.2-0.199,3.033-0.3,5.5c0,0.333,0.017,0.9,0.05,1.7c0,0.733-0.083,1.283-0.25,1.65
		c-0.433,0.967-1.6,1.917-3.5,2.85c-1.699,0.767-3.149,1.2-4.35,1.3s-2.533,0.033-4-0.2c-0.767,0-1.35-0.017-1.75-0.05
		c-0.767-0.033-1.333-0.183-1.7-0.45c1.134,0.167,2.467-0.133,4-0.9c1.9-0.933,3.167-1.466,3.8-1.6c0.2-0.034,0.45-0.05,0.75-0.05
		c0.233,0.033,0.483,0,0.75-0.1c0.101-0.033,0.217-0.167,0.351-0.4c0.166-0.233,0.316-0.383,0.45-0.45c0.133-0.034,0.333,0,0.6,0.1
		c0.3,0.1,0.5,0.133,0.6,0.1c0.834-0.167,1.317-0.683,1.45-1.55c0.134-1.167,0.3-1.867,0.5-2.1L57.9,24.2
		c0.199-1.9,0.316-3.383,0.35-4.45c0.033-0.533-0.134-1.267-0.5-2.2c-0.333-0.9-0.5-1.583-0.5-2.05c0-0.433,0.116-0.75,0.35-0.95
		c0.334-0.333,0.551-0.583,0.65-0.75c0.066-0.566,0.116-0.966,0.15-1.2c0.066-0.4,0.399-0.533,1-0.4
		C59.267,11.467,59.5,11.15,60.1,11.25z"/>
	<path style="fill-rule:evenodd;clip-rule:evenodd;fill:#6E694A;" d="M23.7,21.9c-0.3-0.167-0.45-0.533-0.45-1.1l0.2-0.05
		c-0.434-0.267-0.784-0.55-1.05-0.85c-0.367-0.367-0.8-0.533-1.3-0.5c1.433-0.433,2.367-0.133,2.8,0.9
		c0.2,0.467,0.317,0.967,0.35,1.5c0.067,0.5-0.017,1.034-0.25,1.6L23.7,21.9z"/>
	<path style="fill-rule:evenodd;clip-rule:evenodd;fill:#8F8961;" d="M29.6,5.75l0.35,0.3C30.717,5.85,31.1,6.167,31.1,7
		c0,0.433-0.117,1.067-0.35,1.9c-0.1,0.5-0.183,1.317-0.25,2.45c-0.033,1.066-0.117,1.883-0.25,2.45c-0.167,1-0.35,1.717-0.55,2.15
		c-0.367,0.733-0.9,1.15-1.6,1.25c-1.167,0.2-2.517-0.05-4.05-0.75c-1.533-0.733-2.167-1.667-1.9-2.8
		c0.1-0.433,0.733-1.583,1.9-3.45c0.6-0.934,0.934-1.45,1-1.55c0.333-0.433,0.8-0.8,1.4-1.1C27.95,6.85,29,6.25,29.6,5.75z"/>
	<path style="fill-rule:evenodd;clip-rule:evenodd;fill:#6E694A;" d="M48.45,7.05l0.149,0.2C48.934,7.583,49.033,8.167,48.9,9
		c-0.034,0.433-0.134,1.067-0.301,1.9c0,0.3,0.067,1.133,0.2,2.5c0.101,1.033,0.066,1.85-0.1,2.45c-0.233,0.933-0.7,1.333-1.4,1.2
		c-0.934-0.333-1.666-0.55-2.2-0.65c-0.699-0.133-1.5-0.2-2.399-0.2c-1.066,0.033-1.883,0.05-2.45,0.05H38.1l-0.95-0.1
		c-0.133-0.066-0.267-0.316-0.4-0.75c-0.367-1.233-0.033-2.967,1-5.2c0.233-0.5,0.55-0.95,0.95-1.35c0.233-0.233,0.617-0.6,1.15-1.1
		c0.133-0.133,0.433-0.633,0.9-1.5c0.366-0.633,0.767-1.033,1.2-1.2c0.767-0.3,1.883-0.133,3.35,0.5
		C46.1,5.883,47.15,6.383,48.45,7.05z"/>
	<path style="fill-rule:evenodd;clip-rule:evenodd;fill:#6E694A;" d="M30.35,19.8l0.15,0.7c0,1.7-0.067,3.1-0.2,4.2
		c-0.733,0.1-1.233,0.066-1.5-0.1c-0.333-0.2-0.433-0.65-0.3-1.35c0.067-0.367,0.4-0.95,1-1.75
		C30.067,20.733,30.35,20.167,30.35,19.8z"/>
	<path style="fill-rule:evenodd;clip-rule:evenodd;fill:#6E694A;" d="M32.6,19.5l0.15-0.1c-0.033,0.367,0.133,1.533,0.5,3.5
		c0.167,1.733-0.267,2.5-1.3,2.3c-0.9-0.133-1.117-1-0.65-2.6C31.467,22.1,31.9,21.067,32.6,19.5z"/>
	<path style="fill-rule:evenodd;clip-rule:evenodd;fill:#6E694A;" d="M29.95,6.05C30.717,5.85,31.1,6.167,31.1,7
		c0,0.433-0.117,1.067-0.35,1.9c-0.1,0.5-0.183,1.317-0.25,2.45c-0.033,1.066-0.117,1.883-0.25,2.45c-0.167,1-0.35,1.717-0.55,2.15
		c-0.367,0.733-0.9,1.15-1.6,1.25c-0.633,0.1-1.434,0.033-2.4-0.2l-0.3-0.1c-0.2-0.033-0.65-0.183-1.35-0.45
		c-0.433-0.2-0.85-0.467-1.25-0.8h0.8c-0.1-0.767,0.017-1.6,0.35-2.5c0.133-0.367,0.4-0.783,0.8-1.25c0.633-0.7,0.967-1.066,1-1.1
		c0.333-0.433,1.067-1.066,2.2-1.9c0.233-0.2,0.517-0.5,0.85-0.9c0.3-0.3,0.667-0.45,1.1-0.45c0.067-0.2,0.017-0.466-0.15-0.8
		c-0.2-0.367-0.3-0.617-0.3-0.75l0.25-0.15L29.95,6.05z"/>
	<path style="fill-rule:evenodd;clip-rule:evenodd;fill:#5E5B40;" d="M29.95,6.05C30.717,5.85,31.1,6.167,31.1,7
		c0,0.433-0.117,1.067-0.35,1.9c-0.167,0.934-0.3,2.367-0.4,4.3c-0.867-0.1-1.35-0.133-1.45-0.1c-0.2,0.033-0.333,0.133-0.4,0.3
		c-0.133,0.3-0.217,0.467-0.25,0.5c-0.167,0.1-0.283,0.2-0.35,0.3c-0.066,0.066-0.133,0.233-0.2,0.5
		c-0.067,0.233-0.15,0.383-0.25,0.45c-0.067,0.033-0.167,0.05-0.3,0.05s-0.25,0.05-0.35,0.15c-0.1,0.1-0.117,0.3-0.05,0.6
		c0.067,0.333,0.1,0.533,0.1,0.6c-0.067,0.2-0.15,0.333-0.25,0.4c-0.1,0-0.15,0.017-0.15,0.05v0.05h-0.6l0.1-0.05l-0.55-0.1
		c-0.2-0.033-0.65-0.183-1.35-0.45c-0.433-0.2-0.85-0.467-1.25-0.8h0.8c-0.1-0.767,0.017-1.6,0.35-2.5
		c0.133-0.367,0.4-0.783,0.8-1.25c0.633-0.7,0.967-1.066,1-1.1c0.333-0.433,1.067-1.066,2.2-1.9c0.233-0.2,0.517-0.5,0.85-0.9
		c0.3-0.3,0.667-0.45,1.1-0.45c0.067-0.2,0.017-0.466-0.15-0.8c-0.2-0.367-0.3-0.617-0.3-0.75l0.25-0.15L29.95,6.05z"/>
	<path style="fill-rule:evenodd;clip-rule:evenodd;fill:#5E5B40;" d="M48.6,7.25C48.934,7.583,49.033,8.167,48.9,9
		c-0.034,0.433-0.134,1.067-0.301,1.9c-0.033,0.4,0.034,1.333,0.2,2.8l-0.7-0.05c-0.233,0-0.433,0.067-0.6,0.2
		c-0.2,0.467-0.434,0.717-0.7,0.75c0.033-0.367,0.05-0.6,0.05-0.7c-0.033-0.133-0.216-0.233-0.55-0.3c0.2-0.3,0.25-0.65,0.15-1.05
		c-0.167,0.034-0.384,0.2-0.65,0.5c-0.267,0.233-0.483,0.35-0.649,0.35L45.1,13.15c-0.267,0-0.416,0.1-0.449,0.3
		c-0.034,0.133-0.084,0.333-0.15,0.6c-0.066,0.1-0.2,0.184-0.4,0.25c-0.133,0.067-0.233,0.167-0.3,0.3
		c-0.066,0.233-0.116,0.633-0.149,1.2l-0.101,0.45H38.1l-0.95-0.1c-0.133-0.066-0.267-0.316-0.4-0.75
		c-0.367-1.233-0.033-2.967,1-5.2c0.233-0.5,0.55-0.95,0.95-1.35c0.233-0.233,0.617-0.6,1.15-1.1c0.133-0.133,0.433-0.633,0.9-1.5
		c0.366-0.633,0.767-1.033,1.2-1.2c0.767-0.3,1.883-0.133,3.35,0.5c0.8,0.333,1.851,0.833,3.15,1.5L48.6,7.25z"/>
	<path style="fill-rule:evenodd;clip-rule:evenodd;fill:#8F8961;" d="M41.95,5.05C42.417,4.85,43.1,4.867,44,5.1
		c0.5,0.267,1.25,0.683,2.25,1.25c0.566,0.267,0.983,0.566,1.25,0.9c0.033,0.1,0.083,0.233,0.15,0.4L45.75,7
		c-0.533-0.167-1.017-0.233-1.45-0.2c-0.467,0.167-0.833,0.267-1.1,0.3c-0.367,0.066-0.617,0.117-0.75,0.15
		c-0.2,0.033-0.384,0.167-0.55,0.4c-0.2,0.367-0.367,0.733-0.5,1.1c-0.134,0.6-0.284,1-0.45,1.2C40.483,10.383,40.167,10.733,40,11
		c-0.233,0.3-0.433,0.717-0.6,1.25c-0.133,0.333-0.383,0.817-0.75,1.45c-0.066,0.233-0.1,0.617-0.1,1.15
		c-0.1,0.267-0.2,0.433-0.3,0.5c-0.1,0.033-0.317,0.05-0.65,0.05c-0.333,0-0.633-0.066-0.9-0.2c-0.267-1.333,0.083-3,1.05-5
		c0.233-0.5,0.55-0.95,0.95-1.35c0.233-0.233,0.617-0.6,1.15-1.1c0.133-0.133,0.433-0.633,0.9-1.5
		C41.116,5.617,41.517,5.217,41.95,5.05z"/>
	<path style="fill-rule:evenodd;clip-rule:evenodd;fill:#E8E0B7;" d="M43.2,19.85c-1,0.167-1.667,0.517-2,1.05
		c-0.167,0.233-0.284,0.75-0.35,1.55c-0.067,0.733-0.283,1.2-0.65,1.4c-0.8-1.033-0.45-2.467,1.05-4.3
		c0.733-0.833,1.384-1.183,1.95-1.05c0.333,0.067,0.649,0.3,0.95,0.7c0.3,0.4,0.433,0.783,0.399,1.15H43.7L43.2,19.85z"/>
	<path style="fill-rule:evenodd;clip-rule:evenodd;fill:#E8E0B7;" d="M43.15,20.95v0.5c0,0.333-0.084,0.583-0.25,0.75
		c-0.167,0.133-0.367,0.167-0.601,0.1c-0.066-0.433-0.017-0.783,0.15-1.05C42.583,20.983,42.816,20.883,43.15,20.95z"/>
	<path style="fill-rule:evenodd;clip-rule:evenodd;fill:#E8E0B7;" d="M22.2,21.1c-0.367-0.033-0.65-0.167-0.85-0.4
		c-0.2-0.233-0.25-0.517-0.15-0.85c0.333-0.1,0.617-0.05,0.85,0.15c0.2,0.2,0.284,0.483,0.25,0.85L22.2,21.1z"/>
	<path style="fill-rule:evenodd;clip-rule:evenodd;fill:#E8E0B7;" d="M22.3,21.75v0.35c-0.267,0.6-0.783,0.867-1.55,0.8
		c-0.767-0.066-1.067-0.45-0.9-1.15c0.267,0.267,0.683,0.417,1.25,0.45C21.7,22.2,22.1,22.05,22.3,21.75z"/>
	<path style="fill-rule:evenodd;clip-rule:evenodd;fill:#E8E0B7;" d="M42.9,0l-0.25,0.25c-0.5,0.4-1.25,0.8-2.25,1.2
		C39.3,1.883,38.5,2.2,38,2.4c-0.6,0.267-1.55,0.6-2.85,1c-1.3,0.367-2.267,0.7-2.9,1c0.467,0.467,0.65,1.033,0.55,1.7
		c-0.3,0-0.667-0.083-1.1-0.25c-0.4-0.2-0.7-0.4-0.9-0.6l0.15-0.15c-0.534-0.2-1.167-0.167-1.9,0.1c-0.8,0.4-1.383,0.667-1.75,0.8
		c-0.667,0.267-1.283,0.65-1.85,1.15C24.817,7.817,24.3,8.333,23.9,8.7c-0.267,0.267-0.467,0.566-0.6,0.9
		c-0.066,0.2-0.183,0.55-0.35,1.05c-0.233,0.6-0.667,1.2-1.3,1.8c-0.8,0.8-1.167,1.483-1.1,2.05c0.034,0.333,0.167,0.683,0.4,1.05
		c0.167,0.2,0.417,0.5,0.75,0.9c-0.667,0-1.15,0-1.45,0c-0.6,0.033-1.05,0.167-1.35,0.4c-0.433,0.633-0.833,1.05-1.2,1.25
		c3.233-6.067,4.917-9.417,5.05-10.05S24.317,6.4,27.05,5c2.3-1.2,4.25-2.067,5.85-2.6c1.833-0.6,3.75-1.133,5.75-1.6
		C40.65,0.333,42.066,0.067,42.9,0z"/>
	<path style="fill-rule:evenodd;clip-rule:evenodd;fill:#E8E0B7;" d="M43.05,3.6c0.533,0.167,1.316,0.433,2.351,0.8l0.05,0.3
		c-2.566-0.567-4.316-0.483-5.25,0.25c-0.267,0.2-0.733,0.783-1.4,1.75c-0.033,0.033-0.517,0.55-1.45,1.55
		c-0.58,0.58-0.922,1.088-1.025,1.525c0.187-0.972,0.329-1.73,0.425-2.275c0.233-1,0.55-1.717,0.95-2.15
		c1.033-1.1,1.983-1.8,2.85-2.1L40.7,3.1C41.366,3.133,42.15,3.3,43.05,3.6z"/>
	<path style="fill-rule:evenodd;clip-rule:evenodd;fill:#E8E0B7;" d="M49.3,16l1,0.75c0.167,1.233-0.767,1.667-2.8,1.3
		c-0.6-0.1-1.95-0.483-4.05-1.15c0.5-0.066,1.05-0.033,1.649,0.1c0.334,0.067,0.867,0.183,1.601,0.35
		c0.866,0.167,1.483,0.183,1.85,0.05C49.083,17.233,49.333,16.767,49.3,16z"/>
	<path style="fill-rule:evenodd;clip-rule:evenodd;fill:#E8E0B7;" d="M30.95,14.5l0.1,1.1c0,0.867-0.066,1.45-0.2,1.75
		c-0.2,0.467-0.667,0.75-1.4,0.85c-1.3,0.233-2.45,0.033-3.45-0.6c0.867,0.167,1.483,0.267,1.85,0.3c0.7,0,1.267-0.167,1.7-0.5
		C30.483,16.667,30.95,15.7,30.95,14.5z"/>
	<path style="fill-rule:evenodd;clip-rule:evenodd;fill:#E8E0B7;" d="M30.55,18.5l0.4,0.5c0.066,0.4,0,0.6-0.2,0.6h-0.7
		c-0.167,0.066-0.367,0.2-0.6,0.4c-0.267,0.233-0.483,0.383-0.65,0.45c0.034-0.5,0.217-0.95,0.55-1.35
		C29.683,18.733,30.083,18.533,30.55,18.5z"/>
	<path style="fill-rule:evenodd;clip-rule:evenodd;fill:#E8E0B7;" d="M32.45,19l0.35-0.25c0.034,0.267-0.117,0.517-0.45,0.75
		c-0.067,0.033-0.367,0.183-0.9,0.45c0.033-0.233,0.133-0.467,0.3-0.7C31.983,19.017,32.217,18.933,32.45,19z"/>
	<path style="fill-rule:evenodd;clip-rule:evenodd;fill:#56781F;" d="M49.45,128.9c-0.101,0.8-0.066,1.383,0.1,1.75l0.351-0.9
		c1.199,2,1.816,2.25,1.85,0.75c0.267,0.2,0.467,0.517,0.6,0.95c0.101,0.233,0.217,0.633,0.351,1.2c0.3-0.2,0.733-0.517,1.3-0.95
		c0.533-0.367,1.017-0.601,1.45-0.7l-0.05,2.7c-0.4,0.066-0.983,0.033-1.75-0.101c-0.767-0.133-1.334-0.166-1.7-0.1
		c-0.367,0.066-1.167,0.3-2.4,0.7c-1,0.3-1.85,0.483-2.55,0.55c-0.5,0.066-1.384,0.233-2.65,0.5c-1.1,0.233-1.983,0.384-2.649,0.45
		c-0.867,0.1-1.934,0.066-3.2-0.101c-1.967-0.267-3.017-0.399-3.15-0.399c-1.434-0.101-3.517-0.134-6.25-0.101
		c-2.867,0-4.934-0.033-6.2-0.1c-1.9-0.134-3.3-0.333-4.2-0.6c-0.934-0.301-2.184-0.934-3.75-1.9l-0.25-0.25
		c-0.567-0.434-1.15-0.95-1.75-1.55c1.533,0,2.583,0.083,3.15,0.25c-0.1-0.367-0.333-0.884-0.7-1.55c-0.4-0.733-0.65-1.301-0.75-1.7
		c0.633,0.1,1.4,0.333,2.3,0.7c0.5,0.233,1.2,0.566,2.1,1c-0.433-0.867-0.716-1.5-0.85-1.9c0.933,0.134,1.966,0.55,3.1,1.25
		c0.667,0.366,1.633,0.934,2.9,1.7c0.066-1.8,0.15-2.95,0.25-3.45c0.133,1.066,0.75,2.033,1.85,2.9c0.6,0.466,1.583,1.05,2.95,1.75
		c0.1-0.4,0.15-0.7,0.15-0.9c0.233,0.167,0.667,0.384,1.3,0.65c0.133-1.301,0.1-2.351-0.1-3.15l1.85,1.4
		c0.7,0.566,1.2,1.133,1.5,1.699c0.2-0.899,0.583-1.199,1.15-0.899c0.333,0.166,0.85,0.533,1.55,1.1c0.767,0.367,1.333,0.5,1.7,0.4
		c0.433-0.101,0.85-0.517,1.25-1.25c0.133,0.3,0.517,0.7,1.15,1.2c0.634-0.5,1.017-1.233,1.15-2.2c0.033-0.2,0.05-1.084,0.05-2.65
		c0.033,0.566,0.166,1.3,0.399,2.2c0.301,1.167,0.483,1.9,0.551,2.2c0.6-0.4,0.916-1.184,0.949-2.351c-0.033-1.3-0.033-2.233,0-2.8
		c0.601,0.867,0.9,2.167,0.9,3.9c1.4-1.4,2.184-1.3,2.35,0.3c0.567-0.767,1.417-1.934,2.551-3.5
		C49.65,127.233,49.583,127.866,49.45,128.9z"/>
</g>
</svg>
