<?xml version="1.0" encoding="iso-8859-1"?>
<!-- Generator: Adobe Illustrator 15.1.0, SVG Export Plug-In . SVG Version: 6.00 Build 0)  -->
<!DOCTYPE svg PUBLIC "-//W3C//DTD SVG 1.1//EN" "http://www.w3.org/Graphics/SVG/1.1/DTD/svg11.dtd">
<svg version="1.1" id="FlashAICB" xmlns="http://www.w3.org/2000/svg" xmlns:xlink="http://www.w3.org/1999/xlink" x="0px" y="0px"
	 width="161px" height="41.65px" viewBox="0 0 161 41.65" style="enable-background:new 0 0 161 41.65;" xml:space="preserve">
<radialGradient id="SVGID_1_" cx="80.5" cy="27.6504" r="80.4875" gradientTransform="matrix(1 0 0 -0.1739 0 32.4599)" gradientUnits="userSpaceOnUse">
	<stop  offset="0" style="stop-color:#000000;stop-opacity:0.3569"/>
	<stop  offset="0.902" style="stop-color:#000000;stop-opacity:0"/>
</radialGradient>
<path style="fill-rule:evenodd;clip-rule:evenodd;fill:url(#SVGID_1_);" d="M161,27.65c0,3.866-7.866,7.166-23.6,9.899
	c-15.7,2.733-34.667,4.101-56.9,4.101s-41.2-1.367-56.9-4.101C7.867,34.816,0,31.517,0,27.65c0-3.867,7.867-7.167,23.6-9.9
	s34.7-4.1,56.9-4.1s41.167,1.367,56.9,4.1S161,23.783,161,27.65z"/>
<g>
	<path style="fill-rule:evenodd;clip-rule:evenodd;fill:#CDBC8B;" d="M124.35,7l0.025,0.25c0.028,0.26,0.036,0.51,0.025,0.75
		c-0.034,0.2-0.067,0.4-0.101,0.6c-0.033,0.633-0.083,1.1-0.149,1.4c-0.134,0.467-0.417,0.767-0.851,0.9
		c-0.3,0.1-0.75,0.117-1.35,0.05c-0.4-0.067-0.851-0.167-1.351-0.3c-0.333-0.1-0.699-0.217-1.1-0.35c-0.467-0.133-0.767-0.4-0.9-0.8
		c-0.021-0.065-0.038-0.132-0.05-0.2c-0.022-0.142-0.022-0.292,0-0.45c0.101,0.5,0.417,0.867,0.95,1.1c0.333,0.133,0.7,0.2,1.1,0.2
		h0.051c0.033,0,0.083,0,0.149,0c0.434-0.033,0.816-0.233,1.15-0.6c0.166-0.167,0.316-0.383,0.45-0.65
		c0.199-0.5,0.35-1.117,0.449-1.85c0.134-1.2,0-2.15-0.399-2.85c0.8,0.167,1.366,0.833,1.7,2C124.233,6.479,124.3,6.745,124.35,7z
		 M126.55,7.85c0.434,0,0.867,0.233,1.3,0.7c0.334,0.367,0.733,0.95,1.2,1.75c0.467,0.667,0.867,1.517,1.2,2.55
		c0.4,1.3,0.483,2.3,0.25,3c-0.2,0.667-0.9,1.1-2.1,1.3v-0.2c0.633-0.167,1.149-0.367,1.55-0.6c0.7-0.4,0.616-0.817-0.25-1.25
		c-0.334-0.167-0.733-0.267-1.2-0.3l-1.3-0.1c-0.367,0-0.767,0.033-1.2,0.1c-0.467,0.034-0.85,0.1-1.15,0.2
		c-0.199-0.367-0.399-0.717-0.6-1.05c0-0.034,0.017-0.05,0.05-0.05c0.101-0.066,0.45-0.267,1.05-0.6
		c0.434-0.233,0.75-0.466,0.95-0.7c0.7-0.867,1-1.7,0.9-2.5c0-0.5-0.15-0.95-0.45-1.35l-0.6-0.85
		C126.283,7.867,126.417,7.85,126.55,7.85z M123.25,12.65l0.15,0.1L123.6,13l0.4,0.55c0.033,0.067,0.066,0.117,0.1,0.15
		c0.067,0.066,0.117,0.15,0.15,0.25c0.066,0.133,0.15,0.283,0.25,0.45c0.1,0.2,0.2,0.4,0.3,0.6c0.134,0.267,0.25,0.517,0.351,0.75
		c0,0.033,0.017,0.067,0.05,0.1c0,0.066,0.017,0.117,0.05,0.15v0.05c0.031,0.031,0.048,0.082,0.05,0.15l0.2,0.55
		c0,0.067,0.017,0.133,0.05,0.2c0.267,0.033,0.55,0.066,0.851,0.1v0.2c-0.267,0-0.534-0.017-0.801-0.05
		c0,0.1,0.017,0.216,0.051,0.35c0.233,1.067,0.383,1.867,0.449,2.4c0.101,0.966-0.083,1.666-0.55,2.1
		c-0.666,0.634-2.316,0.884-4.95,0.75h-0.05c-0.5-0.033-1.033-0.083-1.6-0.149l-0.4-0.051c-1.066-0.267-1.649-1.017-1.75-2.25
		c-0.033-0.233-0.05-0.483-0.05-0.75c0.3,1.1,0.983,1.8,2.05,2.1c0.601,0.133,1.2,0.149,1.8,0.05c0-0.033,0.017-0.05,0.051-0.05
		c0.233-0.033,0.466-0.101,0.699-0.2c0.2-0.066,0.384-0.167,0.551-0.3c0.1-0.101,0.216-0.2,0.35-0.3c0.333-0.4,0.6-0.9,0.8-1.5
		c0.267-0.9,0.351-1.95,0.25-3.15c-0.033-0.267-0.066-0.533-0.1-0.8c0-0.034,0-0.067,0-0.1c-0.101-0.5-0.2-0.967-0.3-1.4
		c-0.233-0.833-0.567-1.55-1-2.15c0.033,0,0.066,0.017,0.1,0.05L123.25,12.65z M115.5,6.35c-0.066,0-0.116,0-0.15,0
		c-1.633,0.033-2.5,0.217-2.6,0.55v0.05c0,0.333,0.5,0.633,1.5,0.9c0.366,0.1,0.75,0.183,1.15,0.25v0.1
		c-0.7-0.1-1.334-0.233-1.9-0.4c-0.267-0.066-0.5-0.15-0.7-0.25c-0.233-0.167-0.434-0.367-0.6-0.6c0-0.3,0.1-0.55,0.3-0.75
		c0.2-0.267,0.517-0.5,0.95-0.7c0.267-0.1,0.666-0.233,1.2-0.4c0.5-0.167,0.866-0.35,1.1-0.55c0.9-0.7,1.35-1.433,1.35-2.2
		c0-0.533-0.149-1-0.449-1.4l-0.7-0.9c0.083-0.017,0.166-0.033,0.25-0.05h0.25c0.6,0,1.133,0.25,1.6,0.75l0.05,0.05
		c0.334,0.4,0.767,1.017,1.301,1.85c0.466,0.6,0.816,1.383,1.05,2.35c0,0.033,0.017,0.067,0.05,0.1c-0.3,0.3-0.566,0.667-0.8,1.1
		c-0.101,0.233-0.2,0.466-0.3,0.7C118.566,6.5,117.267,6.317,115.5,6.35z M118.7,8.3c-0.267,0-0.55,0.017-0.851,0.05V8.2
		c0.301-0.034,0.601-0.067,0.9-0.1C118.717,8.167,118.7,8.233,118.7,8.3z M132.35,23.9c-0.6-0.267-0.933-0.601-1-1
		c-0.033-0.101-0.05-0.184-0.05-0.25c0.233,0.433,0.684,0.8,1.351,1.1c0.1,0.033,0.183,0.066,0.25,0.1
		c0.233,0.067,0.449,0.134,0.649,0.2c0.5,0.101,0.934,0.117,1.3,0.05c0.7-0.133,1.167-0.416,1.4-0.85
		c0.134-0.267,0.167-0.55,0.1-0.85c-0.033-0.2-0.116-0.417-0.25-0.65c-0.3-0.634-0.733-1.133-1.3-1.5
		c0.733-0.033,1.483,0.133,2.25,0.5c0.078,0.026,0.152,0.051,0.226,0.075c0.088,0.058,0.18,0.117,0.274,0.175
		c0.3,0.167,0.584,0.35,0.851,0.55c0.1,0.167,0.3,0.367,0.6,0.601c0.167,0.267,0.033,0.616-0.4,1.05
		c-0.199,0.2-0.433,0.383-0.699,0.55c-0.267,0.134-0.551,0.25-0.851,0.35c-0.267,0.067-0.55,0.134-0.85,0.2
		c-0.967,0.2-1.851,0.2-2.65,0c-0.2-0.033-0.383-0.083-0.55-0.149C132.767,24.083,132.55,24,132.35,23.9z M109.45,10.15
		c-0.4,0.067-0.851,0.117-1.351,0.15c-0.566,0.067-1.199,0.117-1.899,0.15c-0.367,0.033-0.684-0.017-0.95-0.15
		c-0.4-0.133-0.667-0.383-0.8-0.75c0.333,0.367,0.866,0.55,1.6,0.55c0.601,0.033,1.184-0.05,1.75-0.25
		c0.101-0.033,0.184-0.067,0.25-0.1c0.601-0.233,0.983-0.633,1.15-1.2c0.066-0.233,0.1-0.466,0.1-0.7c-0.033-0.333-0.1-0.7-0.2-1.1
		c-0.267-1-0.783-1.717-1.55-2.15c1.033-0.133,1.983,0.233,2.851,1.1c0.633,0.633,1.017,1.25,1.149,1.85
		c0.167,0.534,0.267,0.917,0.3,1.15c0.034,0.433-0.183,0.767-0.649,1C110.866,9.867,110.283,10.017,109.45,10.15z M109.7,20.95
		c-0.434-0.034-0.9-0.083-1.4-0.15c-0.6-0.1-1.25-0.216-1.95-0.35c-0.733-0.133-1.25-0.434-1.55-0.9
		c-0.133-0.2-0.217-0.417-0.25-0.65c-0.013-0.057-0.021-0.116-0.024-0.175v-0.2c-0.004-0.025-0.004-0.05,0-0.075v-0.175
		c-0.001-0.074,0.008-0.149,0.024-0.225c0.2,0.833,0.783,1.4,1.75,1.7c0.634,0.2,1.283,0.25,1.95,0.15c0-0.033,0.017-0.033,0.05,0
		c0.101-0.033,0.2-0.066,0.3-0.1c0.334-0.066,0.617-0.183,0.851-0.35c0.233-0.167,0.434-0.367,0.6-0.6
		c0.101-0.133,0.184-0.283,0.25-0.45c0.134-0.3,0.233-0.633,0.3-1c0.067-0.367,0.101-0.75,0.101-1.15c0-0.267-0.017-0.533-0.05-0.8
		c-0.134-1.2-0.467-2.133-1-2.8c0.333,0.067,0.666,0.25,1,0.55l0.899,1.05c0.033,0.033,0.066,0.083,0.101,0.15v0.05
		c0.066,0.066,0.133,0.167,0.199,0.3c0.5,0.933,0.784,1.75,0.851,2.45c0.2,0.833,0.3,1.45,0.3,1.85c0.066,0.7-0.134,1.2-0.6,1.5
		C111.866,20.883,110.967,21.017,109.7,20.95z M109.7,27.9c0.066,0.033,0.133,0.083,0.2,0.149c0.066,0.134,0.199,0.283,0.399,0.45
		c0.066,0.033,0.134,0.083,0.2,0.15c0.1,0.166,0.083,0.383-0.05,0.649c-0.101,0.134-0.217,0.267-0.351,0.4
		c-0.433,0.5-1.183,0.866-2.25,1.1c-0.066,0-0.116,0-0.149,0c-1,0.2-1.934,0.2-2.8,0c-0.134-0.066-0.267-0.116-0.4-0.149
		c-0.066-0.034-0.134-0.051-0.2-0.051c-0.866-0.333-1.35-0.733-1.45-1.199c-0.033-0.101-0.05-0.184-0.05-0.25
		c0.267,0.5,0.8,0.899,1.601,1.199c0.066,0.034,0.133,0.051,0.199,0.051c0.067,0.033,0.15,0.066,0.25,0.1
		c0.567,0.134,1.067,0.167,1.5,0.1c0.7-0.133,1.167-0.416,1.4-0.85c0.066-0.134,0.1-0.25,0.1-0.35c0.034-0.134,0.034-0.267,0-0.4
		c-0.033-0.233-0.116-0.483-0.25-0.75c-0.3-0.634-0.733-1.134-1.3-1.5c0.667-0.033,1.351,0.1,2.05,0.4
		c0.067,0.033,0.134,0.066,0.2,0.1c0.167,0.056,0.309,0.122,0.425,0.2c0.028,0.017,0.054,0.033,0.075,0.05h0.05
		c0.134,0.066,0.267,0.15,0.4,0.25C109.566,27.783,109.634,27.833,109.7,27.9z M92.3,15.65v-0.2c1.033-0.1,1.867-0.3,2.5-0.6
		c0.934-0.5,0.867-1.067-0.2-1.7c-0.506-0.297-1.155-0.489-1.949-0.575L92.35,12.55c-0.699-0.1-1.517-0.133-2.449-0.1
		c-0.667,0.033-1.233,0.1-1.7,0.2l0.149,0.3V13l0.2,0.6l0.05,0.15l0.051,0.15v0.05c0,0.033,0.017,0.066,0.05,0.1
		c0.066,0.267,0.133,0.534,0.2,0.8c0.033,0.1,0.066,0.183,0.1,0.25c0.434,0.133,0.9,0.233,1.4,0.3v0.1v0.15
		c-0.467-0.066-0.917-0.133-1.351-0.2c0.134,0.533,0.233,0.966,0.3,1.3c0.2,1.1,0,1.917-0.6,2.45c-0.7,0.667-2.15,1.033-4.35,1.1
		c-0.2,0-0.417,0-0.65,0c0.033,0.4,0.017,0.767-0.05,1.101c-0.066,0.199-0.15,0.416-0.25,0.649
		c-0.033,0.033-0.066,0.066-0.101,0.101c-0.166,0.3-0.449,0.566-0.85,0.8c-0.8,0.399-2.017,0.666-3.65,0.8H78.8v-0.2
		c1.467-0.133,2.667-0.383,3.601-0.75c0.033,0,0.066,0,0.1,0c0.866-0.399,0.967-0.8,0.3-1.2c-0.1-0.066-0.217-0.116-0.35-0.149
		c-0.134-0.066-0.283-0.134-0.45-0.2c-0.9-0.3-2.1-0.433-3.6-0.4H77c-0.433,0.033-0.883,0.066-1.35,0.1
		c-1.233,0.133-2.183,0.283-2.85,0.45c-0.066,0.033-0.133,0.066-0.2,0.1c-0.233,0.066-0.417,0.15-0.55,0.25
		c-0.2,0.134-0.3,0.267-0.3,0.4v0.05v0.05c0,0.134,0.083,0.267,0.25,0.4c0.133,0.133,0.333,0.25,0.6,0.35
		c0.066,0.033,0.15,0.066,0.25,0.1c0.333,0.101,0.767,0.184,1.3,0.25c0.167,0.034,0.35,0.067,0.55,0.101
		c0.566,0.066,1.133,0.116,1.7,0.149v0.051v0.199c-0.633-0.033-1.233-0.083-1.8-0.149c-0.567-0.066-1.117-0.15-1.65-0.25
		c-0.034,0-0.067,0-0.1,0c-0.1-0.033-0.184-0.05-0.25-0.05l-0.1-0.051L72.1,23.2c-0.1-0.033-0.2-0.084-0.3-0.15
		c-0.367-0.2-0.667-0.45-0.9-0.75c-0.066-0.434,0.05-0.833,0.35-1.2c0.2-0.333,0.467-0.6,0.8-0.8c0.167-0.133,0.35-0.25,0.55-0.35
		c0.066-0.034,0.133-0.05,0.2-0.05c0.367-0.2,0.9-0.45,1.6-0.75c0.733-0.333,1.283-0.667,1.65-1c0.667-0.633,1.15-1.267,1.45-1.9
		c0.033-0.4,0.133-0.8,0.3-1.2c0-0.133-0.017-0.283-0.05-0.45c-0.067-0.8-0.35-1.483-0.85-2.05l-1.2-1.3
		c0.131-0.056,0.264-0.098,0.4-0.125c-0.147,0.026-0.297,0.067-0.45,0.125c-0.833,0.3-1.65,1.033-2.45,2.2
		c-0.767,0.133-1.7,0.233-2.8,0.3c-0.033,0-0.066,0-0.1,0c-0.667,0.033-1.383,0.05-2.15,0.05H68.1c-0.067,0-0.117,0-0.15,0
		c0.466,0.934,0.767,1.65,0.9,2.15c0.3,0.9,0.15,1.6-0.45,2.1c-0.667,0.567-2.167,0.983-4.5,1.25
		c-0.533,0.034-1.117,0.083-1.75,0.15c-0.033,0-0.066,0-0.1,0c-0.8,0.033-1.65,0.066-2.55,0.1c-0.367,0-0.683-0.017-0.95-0.05
		l-0.45-0.1l-0.45-0.175c-0.246-0.129-0.462-0.288-0.65-0.475c-0.467-0.467-0.733-1.067-0.8-1.8c0.533,1,1.533,1.566,3,1.7
		c0.933,0.067,1.816-0.017,2.65-0.25h0.05c0.233-0.1,0.483-0.2,0.75-0.3c0.533-0.233,0.983-0.55,1.35-0.95
		c0.1-0.133,0.2-0.267,0.3-0.4c0.133-0.267,0.25-0.567,0.35-0.9c0.333-1.067,0.25-2.333-0.25-3.8c-0.467-1.466-1.2-2.566-2.2-3.3
		c1.267,0.067,2.533,0.767,3.8,2.1c0.8,0.867,1.383,1.683,1.75,2.45c-0.1-0.233-0.217-0.466-0.35-0.7
		c0.133,0.033,0.283,0.066,0.45,0.1c0.833,0.1,1.633,0.017,2.4-0.25c0.033-0.034,0.083-0.05,0.15-0.05
		c0.167-0.1,0.317-0.183,0.45-0.25c0.1-0.033,0.183-0.083,0.25-0.15c0.033-0.033,0.066-0.05,0.1-0.05
		c0.7-0.567,1.167-1.417,1.4-2.55c0.233-1.333,0.117-2.917-0.35-4.75c-0.467-1.8-1.15-3.183-2.05-4.15l0.7,0.2
		c0.9,0.333,1.8,1.167,2.7,2.5c0.9,1.3,1.5,2.5,1.8,3.6c0.434,1.267,0.733,2.217,0.9,2.85c0.133,0.533,0.184,1.017,0.15,1.45
		l1.3,0.15l0.325,0.125c0.324,0.149,0.649,0.375,0.975,0.675l0.05,0.05c0.033,0.033,0.066,0.066,0.1,0.1
		c0.2,0.175,0.409,0.4,0.625,0.675l1.425,1.775c0,0.033,0.017,0.067,0.05,0.1c0.134,0.133,0.267,0.283,0.4,0.45
		c0.633,0.8,1.166,1.816,1.6,3.05c0.066,0.167,0.117,0.333,0.15,0.5c0.2-0.1,0.399-0.217,0.6-0.35s0.384-0.3,0.55-0.5
		c0.367-0.433,0.65-0.983,0.851-1.65c0.399-1.267,0.416-2.817,0.05-4.65c-0.366-1.833-0.983-3.217-1.85-4.15
		c0.966,0.167,1.933,0.883,2.899,2.15l0.15,0.2c0.033,0.034,0.066,0.083,0.1,0.15c0.031,0.031,0.064,0.064,0.101,0.1
		c0.033,0.1,0.083,0.2,0.149,0.3c0.2,0.333,0.4,0.65,0.601,0.95c0.033-0.033,0.083-0.066,0.149-0.1l1.45-0.65
		c0.566-0.267,0.983-0.55,1.25-0.85c0.934-1.067,1.384-2.1,1.35-3.1c0-0.667-0.149-1.25-0.449-1.75L90.7,3.7
		c0.083-0.021,0.166-0.038,0.25-0.05H91.1c0.634,0,1.217,0.35,1.75,1.05c0.367,0.5,0.817,1.283,1.351,2.35
		c0.533,0.867,0.967,1.967,1.3,3.3c0.4,1.667,0.417,2.95,0.05,3.85C95.184,15.067,94.1,15.55,92.3,15.65z M99.1,17.85
		c0.134,0.2,0.267,0.4,0.4,0.6c0.7,1.1,1.15,2.117,1.35,3.05c0.334,1.066,0.534,1.866,0.601,2.4c0.166,0.899,0,1.583-0.5,2.05
		c-0.533,0.467-1.601,0.75-3.2,0.85c-0.667,0.033-1.417,0.033-2.25,0c-0.033,0-0.066,0-0.1,0c-0.5-0.033-1.017-0.066-1.551-0.1
		c-1.433-0.101-2.233-0.834-2.399-2.2c-0.033-0.134-0.05-0.25-0.05-0.35c0-0.101,0-0.2,0-0.301c0.033,0.101,0.066,0.184,0.1,0.25
		c0.066,0.134,0.134,0.25,0.2,0.351v0.05c0.434,0.7,1.1,1.134,2,1.3c0.533,0.101,1.083,0.117,1.649,0.05H95.4
		c0.333-0.066,0.666-0.166,1-0.3c0.5-0.2,0.916-0.517,1.25-0.95c0.133-0.233,0.267-0.483,0.399-0.75
		c0.033-0.133,0.066-0.267,0.101-0.399c0.333-1.066,0.35-2.367,0.05-3.9c-0.3-1.466-0.816-2.633-1.55-3.5
		c0.066,0,0.133,0.017,0.199,0.05c0.2,0.066,0.4,0.15,0.601,0.25c0.033,0,0.066,0.017,0.1,0.05C98.083,16.7,98.6,17.183,99.1,17.85z
		 M52.45,10.7c-0.667-0.034-1.284-0.117-1.85-0.25c-0.434-0.1-0.767-0.25-1-0.45c-0.1-0.067-0.184-0.15-0.25-0.25
		c-0.033-0.2,0.033-0.45,0.2-0.75c0.233-0.3,0.517-0.533,0.85-0.7l1.1-0.45c0.433-0.2,0.767-0.4,1-0.6
		c0.733-0.733,1.083-1.467,1.05-2.2c-0.066-0.5-0.233-0.917-0.5-1.25L52.3,3c0.233-0.067,0.45-0.1,0.65-0.1
		c0.5-0.033,0.983,0.167,1.45,0.6c0.2,0.2,0.45,0.483,0.75,0.85l0.5,0.75c0.033,0,0.05,0.017,0.05,0.05c0.5,0.533,0.9,1.233,1.2,2.1
		c0.367,1.067,0.383,1.867,0.05,2.4c-0.333,0.533-1.25,0.867-2.75,1c-0.067,0-0.133,0.017-0.2,0.05c0-0.067,0-0.117,0-0.15
		c0.967-0.066,1.75-0.216,2.35-0.45c0.767-0.333,0.683-0.65-0.25-0.95c-0.267-0.1-0.6-0.167-1-0.2L54.8,8.9h-1.75
		c-0.267,0-0.533,0.017-0.8,0.05c-1.6,0.167-2.383,0.4-2.35,0.7V9.7v0.05c0.033,0.3,0.517,0.517,1.45,0.65
		c0.367,0.067,0.733,0.117,1.1,0.15c0.4,0,0.833,0,1.3,0v0.15c-0.267,0-0.533,0-0.8,0C52.783,10.7,52.617,10.7,52.45,10.7z
		 M49.55,13c0.05,0.108,0.1,0.225,0.15,0.35c0.333,0.8,0.6,1.566,0.8,2.3l0.3,2.05c0.233,1.466,0.35,2.55,0.35,3.25
		c0.033,0.833-0.066,1.5-0.3,2V23c-0.167,0.267-0.367,0.5-0.6,0.7c-0.033,0.033-0.083,0.066-0.15,0.1
		c-0.434,0.3-1.05,0.5-1.85,0.601c-0.067,0-0.15,0-0.25,0c-0.567,0.033-1.2,0.033-1.9,0c-0.5-0.034-1.017-0.084-1.55-0.15H44.5
		c-0.867-0.134-1.8-0.3-2.8-0.5c-0.867-0.167-1.5-0.55-1.9-1.15c-0.1-0.133-0.183-0.267-0.25-0.399
		c-0.267-0.601-0.383-1.284-0.35-2.05c0-0.2,0.017-0.4,0.05-0.6c0.267,1.5,1.067,2.483,2.4,2.95c0.934,0.333,1.883,0.384,2.85,0.15
		c0.033-0.034,0.067-0.051,0.1-0.051c0.1-0.033,0.2-0.066,0.3-0.1c0.233-0.066,0.45-0.167,0.65-0.3C45.717,22.1,45.867,22,46,21.9
		c0.533-0.467,0.967-1.134,1.3-2c0.567-1.4,0.784-3.15,0.65-5.25c-0.067-2-0.483-3.65-1.25-4.95c0.26,0.078,0.51,0.195,0.75,0.35
		l0.2,0.15l0.85,0.9c0.267,0.367,0.533,0.816,0.8,1.35L49.55,13z M53.25,23.575c0.113,0.051,0.213,0.109,0.3,0.175
		c0.3,0.167,0.583,0.35,0.85,0.55c0.1,0.167,0.3,0.367,0.6,0.601c0.133,0.233,0.05,0.533-0.25,0.899c-0.067,0-0.133,0.017-0.2,0.05
		c-0.4,0.101-0.783,0.284-1.15,0.551c-0.2,0.133-0.4,0.316-0.6,0.55c-0.2,0.033-0.4,0.066-0.6,0.1c-0.067,0-0.117,0.017-0.15,0.05
		c-1.1,0.2-2.117,0.134-3.05-0.199c-0.067-0.034-0.133-0.051-0.2-0.051c-0.867-0.333-1.35-0.733-1.45-1.199
		c-0.033-0.101-0.05-0.184-0.05-0.25c0.267,0.5,0.8,0.899,1.6,1.199c0.767,0.267,1.417,0.351,1.95,0.25
		c0.566-0.1,0.983-0.3,1.25-0.6c0.033-0.066,0.066-0.116,0.1-0.15c0.033-0.033,0.05-0.066,0.05-0.1c0.2-0.434,0.15-0.934-0.15-1.5
		c-0.3-0.634-0.717-1.134-1.25-1.5c0.7-0.033,1.433,0.134,2.2,0.5C53.12,23.523,53.186,23.548,53.25,23.575z M58.9,26.5
		c0.434,0.267,0.867,0.6,1.3,1c0.133,0.233,0.383,0.517,0.75,0.85c0.1,0.134,0.133,0.284,0.1,0.45
		c-0.033,0.267-0.216,0.584-0.55,0.95c-0.567,0.733-1.55,1.25-2.95,1.55c-0.033,0-0.05,0.017-0.05,0.05
		c-1.167,0.2-2.217,0.184-3.15-0.05c-0.267-0.1-0.533-0.2-0.8-0.3c-0.7-0.233-1.267-0.583-1.7-1.05c-0.3-0.334-0.467-0.667-0.5-1
		c0.333,0.7,1.017,1.267,2.05,1.7c0.3,0.133,0.6,0.233,0.9,0.3c0.567,0.133,1.083,0.133,1.55,0c0.767-0.134,1.3-0.45,1.6-0.95
		c0.033-0.066,0.066-0.134,0.1-0.2c0.2-0.5,0.2-1.033,0-1.6c-0.066-0.167-0.133-0.316-0.2-0.45c-0.333-0.733-0.867-1.434-1.6-2.1
		c0.9-0.034,1.833,0.199,2.8,0.699C58.65,26.417,58.767,26.467,58.9,26.5z M34.3,14.35c-0.433-0.033-0.883-0.067-1.35-0.1
		c-0.167,0-0.317-0.017-0.45-0.05l-0.15-0.05c-0.548-0.193-0.881-0.51-1-0.95c0.015,0.015,0.032,0.032,0.05,0.05
		c0.3,0.333,0.783,0.55,1.45,0.65c0.467,0.1,0.933,0.133,1.4,0.1c0.033-0.033,0.05-0.033,0.05,0c0.1-0.033,0.2-0.067,0.3-0.1
		c0.433-0.066,0.8-0.217,1.1-0.45c0.2-0.167,0.35-0.367,0.45-0.6c0.233-0.5,0.3-1.117,0.2-1.85c-0.2-1.033-0.617-1.817-1.25-2.35
		c1.033,0.033,1.917,0.517,2.65,1.45c0.5,0.633,0.8,1.233,0.9,1.8v0.2c0.1,0.566,0.15,0.967,0.15,1.2
		c-0.033,0.434-0.3,0.75-0.8,0.95c-0.433,0.133-1.2,0.2-2.3,0.2C35.267,14.417,34.8,14.383,34.3,14.35z M23.6,22.95
		c0.066,0.032,0.133,0.065,0.2,0.1c0.3,0.134,0.617,0.316,0.95,0.55c0.1,0.134,0.283,0.301,0.55,0.5
		c0.133,0.233,0.017,0.534-0.35,0.9c-0.1,0.1-0.217,0.2-0.35,0.3c-0.3,0.2-0.7,0.367-1.2,0.5c-0.2,0.066-0.4,0.117-0.6,0.15
		c-0.867,0.166-1.667,0.166-2.4,0c-0.167-0.033-0.333-0.084-0.5-0.15c-0.867-0.233-1.35-0.583-1.45-1.05v-0.025
		c-0.014-0.021-0.022-0.047-0.025-0.074L18.4,24.6v-0.05c0.2,0.434,0.667,0.767,1.4,1c0.1,0.033,0.217,0.066,0.35,0.101l0.05,0.05
		c0.533,0.1,1,0.116,1.4,0.05c0.6-0.1,1.017-0.333,1.25-0.7c0-0.033,0.017-0.066,0.05-0.1c0.033-0.066,0.05-0.117,0.05-0.15
		c0.066-0.3,0-0.633-0.2-1c-0.3-0.533-0.7-0.95-1.2-1.25C22.217,22.517,22.9,22.65,23.6,22.95z M33.525,19.325
		c0.089,0.058,0.181,0.117,0.275,0.175c0.3,0.167,0.583,0.35,0.85,0.55c0.1,0.167,0.3,0.367,0.6,0.6
		c0.167,0.267,0.033,0.617-0.4,1.05c-0.3,0.333-0.7,0.6-1.2,0.8c-0.367,0.134-0.767,0.233-1.2,0.3c-0.8,0.167-1.567,0.2-2.3,0.101
		c-0.3-0.067-0.6-0.15-0.9-0.25c-1-0.334-1.55-0.75-1.65-1.25c-0.033-0.101-0.05-0.184-0.05-0.25c0.267,0.5,0.8,0.899,1.6,1.199
		c0.333,0.134,0.65,0.217,0.95,0.25c0.367,0.067,0.7,0.067,1,0c0.667-0.133,1.117-0.383,1.35-0.75c0.033-0.033,0.05-0.066,0.05-0.1
		c0.2-0.434,0.15-0.933-0.15-1.5c-0.3-0.633-0.733-1.133-1.3-1.5c0.733-0.033,1.483,0.133,2.25,0.5
		C33.377,19.276,33.453,19.301,33.525,19.325z"/>
	<path style="fill-rule:evenodd;clip-rule:evenodd;fill:#EDDAA1;" d="M118.55,9.3c-0.066-0.333-0.017-0.667,0.15-1
		c0-0.066,0.017-0.133,0.05-0.2c-0.3,0.033-0.6,0.066-0.9,0.1V8c0.367-0.033,0.717-0.067,1.051-0.1c0.1-0.2,0.25-0.517,0.449-0.95
		c-0.066-0.034-0.133-0.067-0.199-0.1c-0.767-0.333-1.983-0.5-3.65-0.5c1.767-0.033,3.066,0.15,3.9,0.55
		c0.1-0.233,0.199-0.467,0.3-0.7c0.233-0.434,0.5-0.8,0.8-1.1c0.3-0.333,0.616-0.583,0.95-0.75c1.2-0.533,2.05-0.1,2.55,1.3
		c0.164,0.476,0.281,0.925,0.35,1.35c-0.05-0.255-0.116-0.521-0.199-0.8c-0.334-1.167-0.9-1.833-1.7-2
		c0.399,0.7,0.533,1.65,0.399,2.85c-0.1,0.733-0.25,1.35-0.449,1.85c-0.134,0.267-0.284,0.483-0.45,0.65
		c-0.334,0.367-0.717,0.567-1.15,0.6c-0.066,0-0.116,0-0.149,0H120.6c-0.399,0-0.767-0.066-1.1-0.2c-0.533-0.233-0.85-0.6-0.95-1.1
		C118.527,9.007,118.527,9.158,118.55,9.3z M124.85,15c0.101,0.233,0.2,0.483,0.301,0.75c-0.101-0.233-0.217-0.483-0.351-0.75
		c-0.1-0.2-0.2-0.4-0.3-0.6c-0.1-0.167-0.184-0.316-0.25-0.45c-0.033-0.1-0.083-0.184-0.15-0.25c-0.033-0.034-0.066-0.083-0.1-0.15
		L123.6,13c0.267-0.1,0.551-0.367,0.851-0.8c0.3-0.4,0.583-0.883,0.85-1.45c0.2-0.467,0.367-0.967,0.5-1.5
		c0.134-0.633,0.101-0.917-0.1-0.85H125.6c-0.233,0.167-0.433,0.4-0.6,0.7c-0.2,0.333-0.366,0.583-0.5,0.75
		c-0.114,0.129-0.215,0.279-0.3,0.45c0.639-1.353,1.271-2.153,1.899-2.4c0.167-0.066,0.317-0.083,0.45-0.05
		c-0.133,0-0.267,0.017-0.399,0.05l0.6,0.85c0.3,0.4,0.45,0.85,0.45,1.35c0.1,0.8-0.2,1.633-0.9,2.5
		c-0.2,0.233-0.517,0.467-0.95,0.7c-0.6,0.333-0.949,0.534-1.05,0.6c-0.033,0-0.05,0.017-0.05,0.05
		C124.45,14.283,124.65,14.633,124.85,15z M128.4,16.95V16.7c0.5-0.1,0.933-0.25,1.3-0.45c0.666-0.4,0.583-0.8-0.25-1.2
		c-0.267-0.133-0.584-0.216-0.95-0.25c0.467,0.034,0.866,0.133,1.2,0.3c0.866,0.433,0.95,0.85,0.25,1.25
		C129.55,16.583,129.033,16.783,128.4,16.95z M116.75,19.6c0.01-0.396,0.076-0.779,0.2-1.15c0.066-0.167,0.133-0.333,0.2-0.5
		l0.05-0.05c0.1-0.233,0.25-0.6,0.45-1.1c0.066-0.167,0.133-0.316,0.199-0.45c0.167-0.467,0.367-1.017,0.601-1.65
		c0.633-1.367,1.316-2.25,2.05-2.65c0.066-0.033,0.116-0.066,0.15-0.1c0.1-0.067,0.216-0.1,0.35-0.1c0.3-0.1,0.583-0.117,0.85-0.05
		h0.051c0.433,0.6,0.767,1.317,1,2.15c0.1,0.433,0.199,0.9,0.3,1.4c0,0.033,0,0.066,0,0.1c0.033,0.267,0.066,0.533,0.1,0.8
		c0.101,1.2,0.017,2.25-0.25,3.15c-0.2,0.6-0.467,1.1-0.8,1.5c-0.134,0.1-0.25,0.2-0.35,0.3c-0.167,0.133-0.351,0.233-0.551,0.3
		c-0.233,0.1-0.466,0.167-0.699,0.2c-0.034,0-0.051,0.017-0.051,0.05c-0.6,0.1-1.199,0.083-1.8-0.05
		C117.733,21.4,117.05,20.7,116.75,19.6z M125.5,16.75c0.3,0.067,0.6,0.1,0.9,0.1v0.05v0.15c-0.301-0.033-0.584-0.066-0.851-0.1
		C125.517,16.883,125.5,16.817,125.5,16.75z M125.25,16c0.001,0.033,0.018,0.05,0.05,0.05c0,0.031,0,0.082,0,0.15
		c-0.002-0.069-0.019-0.119-0.05-0.15V16z M123.25,12.65c0.253-0.733,0.503-1.383,0.75-1.95c-0.034,0.111-0.067,0.228-0.1,0.35
		c-0.167,0.434-0.301,0.767-0.4,1c-0.1,0.233-0.134,0.467-0.1,0.7L123.25,12.65z M137.275,20.825
		c-0.073-0.024-0.147-0.049-0.226-0.075c-0.767-0.367-1.517-0.533-2.25-0.5c0.566,0.367,1,0.866,1.3,1.5
		c0.134,0.233,0.217,0.45,0.25,0.65c0.067,0.3,0.034,0.583-0.1,0.85c-0.233,0.434-0.7,0.717-1.4,0.85
		c-0.366,0.067-0.8,0.051-1.3-0.05c-0.2-0.066-0.416-0.133-0.649-0.2c-0.067-0.033-0.15-0.066-0.25-0.1
		c-0.667-0.3-1.117-0.667-1.351-1.1c0,0.066,0.017,0.149,0.05,0.25c-0.133-0.334-0.1-0.567,0.101-0.7
		c0.133-0.101,0.416-0.4,0.85-0.9c0.5-0.466,1.017-0.767,1.55-0.9C134.932,20.029,136.073,20.171,137.275,20.825z M132.4,21.45
		c-0.2,0.233-0.367,0.416-0.5,0.55c-0.167,0.2-0.233,0.366-0.2,0.5c0.033,0.2,0.283,0.4,0.75,0.6c0.5,0.233,0.866,0.267,1.1,0.101
		c0.233-0.167,0.367-0.316,0.4-0.45l-0.05-0.35c-0.034-0.334,0.033-0.784,0.199-1.351V20.7c-0.066-0.167-0.233-0.2-0.5-0.1
		C133.066,20.767,132.667,21.05,132.4,21.45z M112.8,7.55c-0.467-0.3-0.75-0.683-0.85-1.15c-0.134-0.533-0.033-1.15,0.3-1.85
		c1.233-2.633,2.45-4.133,3.65-4.5c0.104-0.017,0.204-0.034,0.3-0.05c-0.084,0.017-0.167,0.033-0.25,0.05l0.7,0.9
		c0.3,0.4,0.449,0.867,0.449,1.4c0,0.767-0.449,1.5-1.35,2.2c-0.233,0.2-0.6,0.383-1.1,0.55c-0.534,0.167-0.934,0.3-1.2,0.4
		c-0.434,0.2-0.75,0.433-0.95,0.7c-0.2,0.2-0.3,0.45-0.3,0.75C112.366,7.183,112.566,7.383,112.8,7.55z M112.75,6.95
		c0.066,0.267,0.55,0.517,1.45,0.75c0.399,0.1,0.8,0.183,1.2,0.25V8.1c-0.4-0.067-0.784-0.15-1.15-0.25
		C113.25,7.583,112.75,7.283,112.75,6.95z M115.4,1.4c0.233-0.633,0.199-0.9-0.101-0.8h-0.1c-0.233,0.133-0.7,0.583-1.4,1.35
		c-0.366,0.4-0.616,0.767-0.75,1.1c-0.166,0.367-0.3,0.65-0.399,0.85c-0.134,0.333-0.167,0.617-0.101,0.85
		c0.334,0.033,0.7-0.183,1.101-0.65c0.433-0.434,0.783-0.85,1.05-1.25C115,2.383,115.233,1.9,115.4,1.4z M104.45,9.55
		c-0.066-0.2-0.066-0.417,0-0.65c0.1-0.233,0.25-0.85,0.45-1.85c0.3-0.9,0.767-1.566,1.399-2c1.3-0.833,2.533-0.767,3.7,0.2
		c0.9,0.733,1.417,1.5,1.55,2.3c-0.133-0.6-0.517-1.216-1.149-1.85c-0.867-0.867-1.817-1.233-2.851-1.1
		c0.767,0.433,1.283,1.15,1.55,2.15c0.101,0.4,0.167,0.767,0.2,1.1c0,0.233-0.033,0.467-0.1,0.7c-0.167,0.567-0.55,0.967-1.15,1.2
		c-0.066,0.033-0.149,0.067-0.25,0.1c-0.566,0.2-1.149,0.283-1.75,0.25C105.316,10.1,104.783,9.917,104.45,9.55z M120.7,8.05
		c0.033-0.1,0.066-0.283,0.1-0.55c0.033-0.467,0.25-1.183,0.65-2.15c0.166-0.667,0.05-0.883-0.351-0.65
		c-0.5,0.267-0.949,0.833-1.35,1.7c-0.566,1.133-0.85,1.783-0.85,1.95c0,0.233,0.166,0.433,0.5,0.6
		c0.333,0.133,0.616,0.066,0.85-0.2C120.483,8.45,120.634,8.217,120.7,8.05z M120.3,12.35c-0.666,0.333-1.217,1.133-1.649,2.4
		c-0.233,0.633-0.417,1.167-0.551,1.6c-0.1,0.133-0.166,0.267-0.199,0.4c-0.034,0.067-0.051,0.133-0.051,0.2
		c-0.267,0.6-0.399,1.05-0.399,1.35c0,0.067,0,0.117,0,0.15c0,0.033,0.017,0.083,0.05,0.15c0.066,0.4,0.384,0.683,0.95,0.85
		c0.666,0.233,1.166,0.017,1.5-0.65c0.133-0.233,0.233-0.45,0.3-0.65l0.05-0.05c0.066-0.167,0.117-0.317,0.15-0.45
		c0.033-0.1,0.05-0.183,0.05-0.25c0.033-0.167,0.033-0.5,0-1c0-0.533,0.134-1.6,0.4-3.2c0.1-0.767-0.034-1.083-0.4-0.95
		C120.434,12.283,120.366,12.317,120.3,12.35z M106.65,5.35c-0.101-0.2-0.317-0.184-0.65,0.05c-0.5,0.434-0.833,1.033-1,1.8
		c-0.1,0.466-0.167,0.816-0.2,1.05c-0.1,0.4-0.116,0.667-0.05,0.8c0.1,0.167,0.366,0.267,0.8,0.3c0.467,0,0.783-0.133,0.95-0.4
		c0.2-0.333,0.316-0.583,0.35-0.75c0-0.067-0.033-0.217-0.1-0.45c-0.033-0.133-0.05-0.767-0.05-1.9
		C106.733,5.65,106.717,5.483,106.65,5.35z M108.4,12.7c0.033-0.034,0.066-0.05,0.1-0.05c0.233-0.066,0.467-0.083,0.7-0.05
		c0.066,0,0.149,0,0.25,0c0.066,0,0.133,0.017,0.2,0.05c0.533,0.667,0.866,1.6,1,2.8c0.033,0.267,0.05,0.533,0.05,0.8
		c0,0.4-0.033,0.783-0.101,1.15c-0.066,0.367-0.166,0.7-0.3,1c-0.066,0.167-0.149,0.317-0.25,0.45c-0.166,0.233-0.366,0.433-0.6,0.6
		c-0.233,0.167-0.517,0.283-0.851,0.35c-0.1,0.034-0.199,0.067-0.3,0.1c-0.033-0.033-0.05-0.033-0.05,0
		c-0.667,0.1-1.316,0.05-1.95-0.15c-0.967-0.3-1.55-0.867-1.75-1.7c-0.017,0.076-0.025,0.151-0.024,0.225
		c-0.018-0.496,0.141-0.971,0.475-1.425c0.233-0.333,0.684-1.1,1.35-2.3C107.017,13.517,107.7,12.9,108.4,12.7z M106.5,14.55
		c-0.333,0.633-0.6,1.117-0.8,1.45c-0.334,0.6-0.483,1.017-0.45,1.25c0,0.333,0.267,0.6,0.8,0.8c0.601,0.233,1.066,0.117,1.4-0.35
		c0.333-0.434,0.533-0.767,0.6-1c0.033-0.1,0.066-0.35,0.101-0.75c0-0.2,0.133-0.833,0.399-1.9c0.033-0.133,0.066-0.283,0.101-0.45
		c0.233-0.567,0.166-0.817-0.2-0.75c-0.101,0-0.2,0.017-0.3,0.05C107.517,13.1,106.967,13.65,106.5,14.55z M83.65,7.45
		c0.866,0.933,1.483,2.316,1.85,4.15c0.366,1.833,0.35,3.383-0.05,4.65c-0.2,0.667-0.483,1.217-0.851,1.65
		c-0.166,0.2-0.35,0.367-0.55,0.5s-0.399,0.25-0.6,0.35c-0.033-0.167-0.084-0.333-0.15-0.5c-0.434-1.233-0.967-2.25-1.6-3.05
		c0.233-0.534,0.383-0.934,0.45-1.2c0-0.1-0.017-0.483-0.051-1.15c-0.033-0.633,0.084-1.883,0.351-3.75
		c0.133-1.033-0.134-1.367-0.8-1c-0.834,0.533-1.5,1.5-2,2.9c-0.167,0.433-0.3,0.833-0.4,1.2c0.175,0.175,0.367,0.4,0.575,0.675
		C79.609,12.6,79.4,12.375,79.2,12.2c-0.034-0.034-0.067-0.067-0.1-0.1l-0.05-0.05c-0.325-0.3-0.65-0.525-0.975-0.675
		c0.325,0.142,0.65,0.35,0.975,0.625c0.1-0.333,0.217-0.683,0.35-1.05c0.8-1.767,1.7-2.867,2.7-3.3
		C82.634,7.45,83.15,7.383,83.65,7.45z M86.55,9.6c1.533-3.6,2.9-5.567,4.101-5.9c0.106-0.021,0.206-0.038,0.3-0.05
		c-0.084,0.013-0.167,0.029-0.25,0.05l0.7,1.15c0.3,0.5,0.449,1.083,0.449,1.75c0.034,1-0.416,2.033-1.35,3.1
		c-0.267,0.3-0.684,0.583-1.25,0.85L87.8,11.2c-0.066,0.033-0.116,0.066-0.149,0.1c-0.2-0.3-0.4-0.617-0.601-0.95
		c-0.066-0.1-0.116-0.2-0.149-0.3c-0.036-0.035-0.069-0.068-0.101-0.1c-0.033-0.067-0.066-0.117-0.1-0.15L86.55,9.6z M57.65,19.225
		c-0.538-0.266-0.938-0.675-1.2-1.225c-0.4-0.867-0.367-1.767,0.1-2.7c0.267-0.5,0.717-1.6,1.35-3.3
		c0.733-1.533,1.617-2.517,2.65-2.95c1.467-0.633,2.983-0.316,4.55,0.95c0-0.5,0.1-1.017,0.3-1.55c0.2-0.6,0.567-1.95,1.1-4.05
		c0.6-1.867,1.35-3.05,2.25-3.55c0.467-0.267,0.95-0.383,1.45-0.35c0.9,0.967,1.583,2.35,2.05,4.15
		c0.467,1.833,0.583,3.417,0.35,4.75c-0.233,1.133-0.7,1.983-1.4,2.55c-0.034,0-0.067,0.017-0.1,0.05
		c-0.067,0.067-0.15,0.117-0.25,0.15c-0.133,0.067-0.283,0.15-0.45,0.25c-0.066,0-0.117,0.017-0.15,0.05
		c-0.767,0.267-1.567,0.35-2.4,0.25c-0.167-0.034-0.317-0.067-0.45-0.1c0.133,0.233,0.25,0.467,0.35,0.7
		c-0.367-0.767-0.95-1.583-1.75-2.45c-1.267-1.333-2.533-2.033-3.8-2.1c1,0.733,1.733,1.833,2.2,3.3c0.5,1.467,0.583,2.733,0.25,3.8
		c-0.1,0.333-0.217,0.633-0.35,0.9c-0.1,0.133-0.2,0.267-0.3,0.4c-0.367,0.4-0.817,0.717-1.35,0.95c-0.267,0.1-0.517,0.2-0.75,0.3
		h-0.05c-0.833,0.233-1.717,0.317-2.65,0.25c-1.467-0.133-2.467-0.7-3-1.7c0.066,0.733,0.333,1.333,0.8,1.8
		C57.188,18.938,57.404,19.096,57.65,19.225z M72.375,14.875c0.273-0.535,0.548-1.01,0.825-1.425c0.8-1.167,1.617-1.9,2.45-2.2
		c0.153-0.058,0.303-0.099,0.45-0.125c-0.136,0.027-0.269,0.069-0.4,0.125l1.2,1.3c0.5,0.567,0.783,1.25,0.85,2.05
		c0.033,0.167,0.05,0.316,0.05,0.45c-0.167,0.4-0.267,0.8-0.3,1.2c-0.3,0.633-0.783,1.267-1.45,1.9c-0.367,0.333-0.917,0.667-1.65,1
		c-0.7,0.3-1.233,0.55-1.6,0.75c-0.066,0-0.133,0.017-0.2,0.05c-0.2,0.1-0.383,0.216-0.55,0.35c-0.333,0.2-0.6,0.467-0.8,0.8
		c-0.3,0.367-0.417,0.767-0.35,1.2c0.233,0.3,0.533,0.55,0.9,0.75c-0.667-0.333-1.083-0.833-1.25-1.5L70.5,21.5
		c-0.233-0.733-0.2-1.567,0.1-2.5c0.033-0.133,0.066-0.267,0.1-0.4c0.267-0.733,0.55-1.417,0.85-2.05
		c0.053-0.159,0.111-0.292,0.175-0.4c-0.017,0.03-0.025,0.064-0.025,0.1c-0.034,0.133-0.067,0.25-0.1,0.35
		c-0.2,0.433-0.333,0.767-0.4,1c-0.2,0.533-0.233,0.967-0.1,1.3c0.3,0,0.6-0.1,0.9-0.3c0.033-0.033,0.067-0.067,0.1-0.1
		s0.15-0.167,0.35-0.4c0.066-0.1,0.167-0.2,0.3-0.3v-0.05c0.433-0.5,0.917-1.2,1.45-2.1c0.367-0.7,0.667-1.467,0.9-2.3
		c0.066-0.233,0.1-0.417,0.1-0.55c0.066-0.566-0.067-0.783-0.4-0.65h-0.15c-0.433,0.267-0.816,0.633-1.15,1.1
		c-0.033,0.067-0.067,0.117-0.1,0.15c-0.2,0.3-0.383,0.567-0.55,0.8c-0.067,0.1-0.133,0.183-0.2,0.25
		C72.542,14.594,72.451,14.735,72.375,14.875z M76.4,23.4V23.6c-0.566-0.033-1.133-0.083-1.7-0.149
		c-0.2-0.033-0.383-0.066-0.55-0.101c-0.533-0.066-0.967-0.149-1.3-0.25c-0.1-0.033-0.184-0.066-0.25-0.1
		c-0.267-0.1-0.467-0.217-0.6-0.35c-0.167-0.134-0.25-0.267-0.25-0.4V22.2c0.033,0.1,0.117,0.217,0.25,0.35
		c0.133,0.101,0.35,0.217,0.65,0.351c0.067,0,0.133,0.017,0.2,0.05c0.3,0.1,0.683,0.184,1.15,0.25c0.233,0.033,0.483,0.066,0.75,0.1
		C75.283,23.366,75.833,23.4,76.4,23.4z M78.8,23.55l0.05-0.25c1.233-0.133,2.266-0.35,3.1-0.649c0.2-0.101,0.383-0.184,0.55-0.25
		c0.366-0.267,0.366-0.517,0-0.75c-0.233-0.134-0.55-0.267-0.95-0.4c-0.8-0.267-1.85-0.4-3.15-0.4c1.5-0.033,2.7,0.1,3.6,0.4
		c0.167,0.066,0.316,0.134,0.45,0.2c0.133,0.033,0.25,0.083,0.35,0.149c0.667,0.4,0.566,0.801-0.3,1.2c-0.033,0-0.066,0-0.1,0
		C81.467,23.167,80.267,23.417,78.8,23.55z M88.9,14.85c0.5,0.133,1,0.233,1.5,0.3v0.25c-0.5-0.066-0.967-0.167-1.4-0.3
		C88.967,15.033,88.934,14.95,88.9,14.85z M92.3,15.45v-0.3c0.867-0.066,1.601-0.233,2.2-0.5c0.9-0.433,0.833-0.95-0.2-1.55
		c-0.438-0.263-0.987-0.438-1.649-0.525c0.794,0.085,1.443,0.277,1.949,0.575c1.067,0.633,1.134,1.2,0.2,1.7
		C94.167,15.15,93.333,15.35,92.3,15.45z M86.9,10.05c0.233,0,0.449-0.117,0.649-0.35c0.101-0.067,0.3-0.3,0.601-0.7
		c0.433-0.5,0.833-1.083,1.199-1.75c0.334-0.567,0.601-1.2,0.801-1.9c0.233-0.767,0.199-1.1-0.101-1h-0.1
		c-0.3,0.167-0.816,0.733-1.55,1.7c-0.434,0.6-0.717,1.1-0.851,1.5c-0.233,0.534-0.416,0.934-0.55,1.2
		c-0.167,0.433-0.233,0.817-0.2,1.15C86.831,9.962,86.864,10.013,86.9,10.05z M91.4,24.15c-0.034-0.267-0.034-0.534,0-0.801
		c0.033-0.3,0.116-0.6,0.25-0.899c0.033-0.066,0.066-0.15,0.1-0.25c0.1-0.2,0.233-0.483,0.4-0.851
		c0.066-0.166,0.133-0.333,0.199-0.5c0.2-0.533,0.434-1.15,0.7-1.85c0.667-1.5,1.417-2.433,2.25-2.8
		c0.467-0.2,0.917-0.25,1.351-0.15c0.733,0.867,1.25,2.034,1.55,3.5c0.3,1.533,0.283,2.834-0.05,3.9
		c-0.034,0.133-0.067,0.267-0.101,0.399c-0.133,0.267-0.267,0.517-0.399,0.75c-0.334,0.434-0.75,0.75-1.25,0.95
		c-0.334,0.134-0.667,0.233-1,0.3H95.35c-0.566,0.067-1.116,0.051-1.649-0.05c-0.9-0.166-1.566-0.6-2-1.3v-0.05
		c-0.066-0.101-0.134-0.217-0.2-0.351c-0.033-0.066-0.066-0.149-0.1-0.25C91.4,23.95,91.4,24.05,91.4,24.15z M99.1,17.85
		c0.934,1.233,1.517,2.45,1.75,3.65c-0.199-0.933-0.649-1.95-1.35-3.05C99.366,18.25,99.233,18.05,99.1,17.85z M94.9,16.6
		c-0.233,0.133-0.517,0.417-0.851,0.85c-0.333,0.5-0.6,1.017-0.8,1.55c-0.333,0.9-0.583,1.567-0.75,2
		c-0.066,0.167-0.116,0.316-0.15,0.45c-0.1,0.267-0.166,0.517-0.199,0.75c-0.034,0.2-0.051,0.366-0.051,0.5
		c0,0.066,0.017,0.133,0.051,0.2c0.033,0.133,0.1,0.25,0.199,0.35c0.2,0.167,0.483,0.3,0.851,0.4c0.2,0.033,0.383,0.05,0.55,0.05
		c0.467-0.033,0.816-0.283,1.05-0.75c0.3-0.634,0.483-1.101,0.55-1.4c0-0.1-0.017-0.416-0.05-0.95
		c-0.033-0.667,0.066-1.717,0.3-3.15C95.767,16.55,95.533,16.267,94.9,16.6z M102.85,29.4c-0.133-0.334-0.1-0.567,0.101-0.7
		c0.133-0.101,0.416-0.4,0.85-0.9c0.5-0.467,1.017-0.767,1.55-0.899c0.934-0.301,1.934-0.233,3,0.199
		c0.211,0.091,0.419,0.207,0.625,0.351c-0.116-0.078-0.258-0.145-0.425-0.2c-0.066-0.033-0.133-0.066-0.2-0.1
		c-0.699-0.301-1.383-0.434-2.05-0.4c0.566,0.366,1,0.866,1.3,1.5c0.134,0.267,0.217,0.517,0.25,0.75c0.034,0.134,0.034,0.267,0,0.4
		c0,0.1-0.033,0.216-0.1,0.35c-0.233,0.434-0.7,0.717-1.4,0.85c-0.433,0.067-0.933,0.034-1.5-0.1c-0.1-0.033-0.183-0.066-0.25-0.1
		c-0.066,0-0.133-0.017-0.199-0.051c-0.801-0.3-1.334-0.699-1.601-1.199C102.8,29.217,102.816,29.3,102.85,29.4z M105.1,27.1
		c-0.533,0.167-0.933,0.45-1.199,0.851c-0.2,0.233-0.367,0.416-0.5,0.55c-0.167,0.2-0.233,0.366-0.2,0.5
		c0.033,0.2,0.283,0.4,0.75,0.6c0.5,0.233,0.866,0.267,1.1,0.101c0.233-0.167,0.367-0.316,0.4-0.45l-0.05-0.35
		c-0.034-0.334,0.033-0.784,0.199-1.351V27.2C105.533,27.033,105.366,27,105.1,27.1z M69.15,1.45c-0.133-0.367-0.4-0.4-0.8-0.1
		c-0.267,0.2-0.567,0.566-0.9,1.1c-0.333,0.633-0.583,1.3-0.75,2c-0.267,1.1-0.467,1.933-0.6,2.5c-0.267,1.033-0.367,1.733-0.3,2.1
		c0.133,0.534,0.567,0.867,1.3,1c0.833,0.167,1.4-0.15,1.7-0.95c0.3-0.8,0.467-1.383,0.5-1.75c0-0.1-0.05-0.5-0.15-1.2
		C69.117,5.717,69.1,5,69.1,4c0.033-0.9,0.066-1.467,0.1-1.7C69.2,1.867,69.183,1.583,69.15,1.45z M60.95,9.55
		c-0.133-0.3-0.434-0.333-0.9-0.1c-0.9,0.566-1.533,1.417-1.9,2.55c-0.367,0.9-0.633,1.583-0.8,2.05c-0.3,0.833-0.417,1.4-0.35,1.7
		c0.133,0.433,0.617,0.7,1.45,0.8c0.933,0.1,1.583-0.183,1.95-0.85c0.367-0.633,0.567-1.1,0.6-1.4c0-0.1-0.033-0.417-0.1-0.95
		c-0.133-0.8-0.1-1.85,0.1-3.15C61.067,9.933,61.05,9.717,60.95,9.55z M52.95,2.9c-0.2,0-0.417,0.033-0.65,0.1l0.75,0.8
		c0.267,0.333,0.434,0.75,0.5,1.25c0.034,0.733-0.316,1.467-1.05,2.2c-0.233,0.2-0.567,0.4-1,0.6L50.4,8.3
		c-0.333,0.167-0.617,0.4-0.85,0.7c-0.167,0.3-0.233,0.55-0.2,0.75c-0.106-0.139-0.189-0.289-0.25-0.45
		c-0.167-0.533-0.117-1.133,0.15-1.8c0.186-0.526,0.386-1.01,0.6-1.45c-0.133,0.367-0.233,0.65-0.3,0.85
		c-0.133,0.3-0.15,0.567-0.05,0.8c0.267,0,0.6-0.25,1-0.75c0.3-0.333,0.583-0.75,0.85-1.25c0.233-0.367,0.417-0.833,0.55-1.4
		c0.167-0.6,0.117-0.85-0.15-0.75h-0.1c-0.233,0.167-0.467,0.4-0.7,0.7c-0.233,0.333-0.417,0.567-0.55,0.7
		c0.585-1.053,1.202-1.703,1.85-1.95C52.483,2.9,52.717,2.867,52.95,2.9z M54,10.4c0.867-0.1,1.567-0.25,2.1-0.45
		c0.733-0.267,0.65-0.55-0.25-0.85c-0.233-0.067-0.483-0.117-0.75-0.15c0.4,0.033,0.733,0.1,1,0.2c0.933,0.3,1.017,0.617,0.25,0.95
		c-0.6,0.233-1.383,0.383-2.35,0.45c0-0.033,0-0.066,0-0.1V10.4z M52.45,10.55c-0.367-0.033-0.733-0.083-1.1-0.15
		c-0.934-0.133-1.417-0.35-1.45-0.65V9.7c0.033,0.267,0.483,0.466,1.35,0.6c0.4,0.067,0.8,0.117,1.2,0.15V10.55z M44.55,10.2
		c-0.333,0.167-0.716,0.517-1.15,1.05c-0.5,0.6-0.9,1.267-1.2,2c-0.534,1.167-0.934,2.033-1.2,2.6c-0.5,1.066-0.75,1.816-0.75,2.25
		c0,0.6,0.383,1.066,1.15,1.4c0.833,0.333,1.5,0.083,2-0.75c0.5-0.8,0.8-1.4,0.9-1.8c0.034-0.133,0.067-0.567,0.1-1.3
		c0.067-0.833,0.35-2.233,0.85-4.2C45.55,10.283,45.317,9.867,44.55,10.2z M50.5,15.65c-0.2-0.733-0.467-1.5-0.8-2.3
		c-0.05-0.125-0.1-0.242-0.15-0.35C49.991,13.9,50.307,14.783,50.5,15.65z M39.25,19.55c0.097-0.754,0.331-1.487,0.7-2.2
		c0.367-0.633,1.033-2.017,2-4.15c1.033-1.934,2.083-3.083,3.15-3.45c0.826-0.306,1.609-0.206,2.35,0.3
		c-0.24-0.155-0.49-0.271-0.75-0.35c0.767,1.3,1.183,2.95,1.25,4.95c0.133,2.1-0.083,3.85-0.65,5.25c-0.333,0.867-0.767,1.534-1.3,2
		c-0.133,0.1-0.283,0.199-0.45,0.3c-0.2,0.133-0.417,0.233-0.65,0.3c-0.1,0.033-0.2,0.066-0.3,0.1c-0.033,0-0.067,0.017-0.1,0.051
		c-0.967,0.233-1.917,0.183-2.85-0.15C40.317,22.033,39.517,21.05,39.25,19.55z M47.35,25.65c-0.133-0.334-0.1-0.567,0.1-0.7
		c0.1-0.066,0.283-0.25,0.55-0.55c0.1,0,0.183,0,0.25,0c-0.133,0.133-0.25,0.25-0.35,0.35c-0.167,0.2-0.233,0.366-0.2,0.5
		c0.033,0.2,0.283,0.4,0.75,0.6c0.5,0.233,0.867,0.267,1.1,0.101c0.233-0.167,0.367-0.316,0.4-0.45l-0.05-0.35
		c-0.033-0.334,0.033-0.784,0.2-1.351c0.066-0.033,0.117-0.066,0.15-0.1c0.233-0.2,0.433-0.434,0.6-0.7v-0.05
		c0.772-0.03,1.572,0.179,2.4,0.625c-0.064-0.027-0.13-0.052-0.2-0.075c-0.767-0.366-1.5-0.533-2.2-0.5
		c0.533,0.366,0.95,0.866,1.25,1.5c0.3,0.566,0.35,1.066,0.15,1.5c0,0.033-0.017,0.066-0.05,0.1c-0.034,0.034-0.067,0.084-0.1,0.15
		c-0.267,0.3-0.684,0.5-1.25,0.6c-0.533,0.101-1.184,0.017-1.95-0.25c-0.8-0.3-1.333-0.699-1.6-1.199
		C47.3,25.467,47.317,25.55,47.35,25.65z M54.75,25.8c1.3-0.399,2.683-0.166,4.15,0.7c-0.133-0.033-0.25-0.083-0.35-0.15
		c-0.966-0.5-1.9-0.733-2.8-0.699c0.733,0.666,1.267,1.366,1.6,2.1c0.066,0.134,0.133,0.283,0.2,0.45c0.2,0.566,0.2,1.1,0,1.6
		c-0.033,0.066-0.066,0.134-0.1,0.2c-0.3,0.5-0.833,0.816-1.6,0.95c-0.467,0.133-0.983,0.133-1.55,0c-0.3-0.066-0.6-0.167-0.9-0.3
		c-1.033-0.434-1.717-1-2.05-1.7c-0.033-0.267,0.05-0.467,0.25-0.601c0.167-0.166,0.517-0.6,1.05-1.3
		c0.033-0.033,0.083-0.066,0.15-0.1c0.2-0.233,0.4-0.417,0.6-0.55c0.367-0.267,0.75-0.45,1.15-0.551
		C54.617,25.816,54.683,25.8,54.75,25.8z M53.55,26.45c-0.333,0.233-0.6,0.5-0.8,0.8c-0.633,0.733-0.917,1.233-0.85,1.5
		c0.033,0.233,0.35,0.517,0.95,0.85c0.633,0.334,1.083,0.367,1.35,0.101c0.3-0.233,0.466-0.434,0.5-0.601
		c0-0.033-0.034-0.183-0.1-0.449c-0.033-0.367,0.033-0.9,0.2-1.601c0-0.1,0.017-0.2,0.05-0.3c0-0.3,0-0.467,0-0.5
		c-0.1-0.233-0.317-0.283-0.65-0.15C53.933,26.2,53.717,26.316,53.55,26.45z M34.1,9.25c-0.1-0.2-0.317-0.2-0.65,0
		c-0.6,0.367-1.017,0.917-1.25,1.65c-0.367,1.1-0.534,1.7-0.5,1.8c0.066,0.2,0.316,0.333,0.75,0.4c0.466,0.066,0.8-0.033,1-0.3
		c0.233-0.3,0.383-0.517,0.45-0.65c0-0.066-0.017-0.233-0.05-0.5c-0.033-0.4,0.05-1.017,0.25-1.85C34.1,9.5,34.1,9.317,34.1,9.25z
		 M38.65,11.9c-0.1-0.566-0.4-1.167-0.9-1.8c-0.733-0.934-1.617-1.417-2.65-1.45c0.633,0.533,1.05,1.317,1.25,2.35
		c0.1,0.733,0.033,1.35-0.2,1.85c-0.1,0.233-0.25,0.433-0.45,0.6c-0.3,0.233-0.667,0.383-1.1,0.45c-0.1,0.033-0.2,0.067-0.3,0.1
		c0-0.033-0.017-0.033-0.05,0c-0.467,0.033-0.933,0-1.4-0.1c-0.667-0.1-1.15-0.316-1.45-0.65c-0.1-0.267-0.083-0.533,0.05-0.8
		c0.1-0.2,0.316-0.767,0.65-1.7c0.433-0.9,1-1.5,1.7-1.8c1.367-0.633,2.567-0.4,3.6,0.7C38.133,10.417,38.55,11.167,38.65,11.9z
		 M20.9,22.9c-0.033-0.134-0.183-0.15-0.45-0.051c-0.467,0.167-0.817,0.4-1.05,0.7c-0.433,0.533-0.65,0.834-0.65,0.9
		c0.033,0.166,0.267,0.333,0.7,0.5c0.2,0.1,0.367,0.149,0.5,0.149c0.2,0.034,0.35,0,0.45-0.1c0.133-0.066,0.233-0.134,0.3-0.2
		c0.033-0.066,0.05-0.116,0.05-0.149c0.033-0.067,0.033-0.167,0-0.301c-0.067-0.3-0.017-0.683,0.15-1.149
		C20.967,23.1,20.967,23,20.9,22.9z M18.4,24.6c-0.067-0.183-0.017-0.315,0.15-0.399c0.133-0.101,0.4-0.351,0.8-0.75
		c0.433-0.4,0.883-0.65,1.35-0.75c0.908-0.313,1.874-0.229,2.9,0.25c-0.7-0.3-1.383-0.434-2.05-0.4c0.5,0.3,0.9,0.717,1.2,1.25
		c0.2,0.367,0.267,0.7,0.2,1c0,0.033-0.017,0.084-0.05,0.15c-0.033,0.033-0.05,0.066-0.05,0.1c-0.233,0.367-0.65,0.601-1.25,0.7
		c-0.4,0.066-0.867,0.05-1.4-0.05l-0.05-0.05c-0.133-0.034-0.25-0.067-0.35-0.101c-0.733-0.233-1.2-0.566-1.4-1V24.6z M30.35,19.2
		c-0.067-0.167-0.233-0.2-0.5-0.1c-0.533,0.167-0.934,0.45-1.2,0.85c-0.2,0.233-0.367,0.417-0.5,0.55
		c-0.167,0.2-0.233,0.367-0.2,0.5c0.033,0.2,0.283,0.4,0.75,0.6c0.5,0.233,0.867,0.267,1.1,0.101c0.233-0.167,0.367-0.316,0.4-0.45
		l-0.05-0.35c-0.033-0.333,0.033-0.783,0.2-1.35V19.2z M33.525,19.325c-0.072-0.024-0.147-0.049-0.225-0.075
		c-0.767-0.367-1.517-0.533-2.25-0.5c0.567,0.367,1,0.867,1.3,1.5c0.3,0.567,0.35,1.066,0.15,1.5c0,0.033-0.017,0.066-0.05,0.1
		c-0.233,0.367-0.684,0.617-1.35,0.75c-0.3,0.067-0.633,0.067-1,0c-0.3-0.033-0.617-0.116-0.95-0.25c-0.8-0.3-1.333-0.699-1.6-1.199
		c0,0.066,0.017,0.149,0.05,0.25c-0.133-0.334-0.1-0.567,0.1-0.7c0.133-0.1,0.417-0.4,0.85-0.9c0.5-0.466,1.017-0.767,1.55-0.9
		C31.182,18.529,32.323,18.671,33.525,19.325z"/>
	<path style="fill-rule:evenodd;clip-rule:evenodd;fill:#EFE0B6;" d="M124,10.7c0.063-0.144,0.129-0.277,0.2-0.4
		c0.085-0.171,0.186-0.321,0.3-0.45c0.134-0.167,0.3-0.417,0.5-0.75c0.167-0.3,0.366-0.533,0.6-0.7h0.101
		c0.2-0.066,0.233,0.217,0.1,0.85c-0.133,0.533-0.3,1.033-0.5,1.5c-0.267,0.567-0.55,1.05-0.85,1.45c-0.3,0.433-0.584,0.7-0.851,0.8
		l-0.199-0.25c-0.034-0.233,0-0.467,0.1-0.7c0.1-0.233,0.233-0.566,0.4-1C123.933,10.928,123.966,10.812,124,10.7z M132.4,21.45
		c0.267-0.4,0.666-0.684,1.199-0.85c0.267-0.1,0.434-0.067,0.5,0.1v0.35c-0.166,0.566-0.233,1.017-0.199,1.351l0.05,0.35
		c-0.033,0.134-0.167,0.283-0.4,0.45c-0.233,0.166-0.6,0.133-1.1-0.101c-0.467-0.199-0.717-0.399-0.75-0.6
		c-0.033-0.134,0.033-0.3,0.2-0.5C132.033,21.866,132.2,21.684,132.4,21.45z M115.4,1.4c-0.167,0.5-0.4,0.983-0.7,1.45
		c-0.267,0.4-0.617,0.816-1.05,1.25c-0.4,0.467-0.767,0.683-1.101,0.65c-0.066-0.233-0.033-0.517,0.101-0.85
		c0.1-0.2,0.233-0.483,0.399-0.85c0.134-0.333,0.384-0.7,0.75-1.1c0.7-0.767,1.167-1.217,1.4-1.35h0.1
		C115.6,0.5,115.634,0.767,115.4,1.4z M120.7,8.05c-0.066,0.167-0.217,0.4-0.45,0.7c-0.233,0.267-0.517,0.333-0.85,0.2
		c-0.334-0.167-0.5-0.367-0.5-0.6c0-0.167,0.283-0.817,0.85-1.95c0.4-0.867,0.85-1.433,1.35-1.7c0.4-0.233,0.517-0.017,0.351,0.65
		c-0.4,0.967-0.617,1.683-0.65,2.15C120.767,7.767,120.733,7.95,120.7,8.05z M120.3,12.35c0.066-0.033,0.134-0.067,0.2-0.1
		c0.366-0.133,0.5,0.183,0.4,0.95c-0.267,1.6-0.4,2.667-0.4,3.2c0.033,0.5,0.033,0.833,0,1c0,0.067-0.017,0.15-0.05,0.25
		c-0.033,0.133-0.084,0.283-0.15,0.45l-0.05,0.05c-0.066,0.2-0.167,0.417-0.3,0.65c-0.334,0.667-0.834,0.883-1.5,0.65
		c-0.566-0.167-0.884-0.45-0.95-0.85c-0.033-0.067-0.05-0.117-0.05-0.15c0-0.034,0-0.083,0-0.15c0-0.3,0.133-0.75,0.399-1.35
		c0-0.067,0.017-0.133,0.051-0.2c0.033-0.133,0.1-0.267,0.199-0.4c0.134-0.434,0.317-0.967,0.551-1.6
		C119.083,13.483,119.634,12.683,120.3,12.35z M106.65,5.35c0.066,0.133,0.083,0.3,0.05,0.5c0,1.133,0.017,1.767,0.05,1.9
		c0.066,0.233,0.1,0.383,0.1,0.45c-0.033,0.167-0.149,0.417-0.35,0.75c-0.167,0.267-0.483,0.4-0.95,0.4
		c-0.434-0.033-0.7-0.133-0.8-0.3c-0.066-0.133-0.05-0.4,0.05-0.8c0.033-0.233,0.101-0.583,0.2-1.05c0.167-0.767,0.5-1.367,1-1.8
		C106.333,5.167,106.55,5.15,106.65,5.35z M106.5,14.55c0.467-0.9,1.017-1.45,1.65-1.65c0.1-0.033,0.199-0.05,0.3-0.05
		c0.366-0.067,0.434,0.183,0.2,0.75c-0.034,0.167-0.067,0.316-0.101,0.45c-0.267,1.067-0.399,1.7-0.399,1.9
		c-0.034,0.4-0.067,0.65-0.101,0.75c-0.066,0.233-0.267,0.566-0.6,1c-0.334,0.466-0.8,0.583-1.4,0.35c-0.533-0.2-0.8-0.466-0.8-0.8
		c-0.033-0.233,0.116-0.65,0.45-1.25C105.9,15.667,106.167,15.183,106.5,14.55z M79.825,12.875c-0.208-0.275-0.4-0.5-0.575-0.675
		c0.1-0.367,0.233-0.767,0.4-1.2c0.5-1.4,1.167-2.367,2-2.9c0.666-0.367,0.933-0.033,0.8,1c-0.267,1.867-0.384,3.117-0.351,3.75
		c0.034,0.667,0.051,1.05,0.051,1.15c-0.067,0.267-0.217,0.667-0.45,1.2c-0.134-0.167-0.267-0.317-0.4-0.45
		c-0.033-0.033-0.05-0.067-0.05-0.1L79.825,12.875z M86.9,10.05c-0.036-0.037-0.069-0.087-0.101-0.15
		c-0.033-0.333,0.033-0.717,0.2-1.15c0.134-0.267,0.316-0.667,0.55-1.2c0.134-0.4,0.417-0.9,0.851-1.5
		c0.733-0.966,1.25-1.533,1.55-1.7h0.1c0.3-0.1,0.334,0.233,0.101,1c-0.2,0.7-0.467,1.333-0.801,1.9
		C88.983,7.917,88.583,8.5,88.15,9c-0.301,0.4-0.5,0.633-0.601,0.7C87.35,9.933,87.134,10.05,86.9,10.05z M94.9,16.6
		c0.633-0.333,0.866-0.05,0.699,0.85c-0.233,1.433-0.333,2.483-0.3,3.15c0.033,0.534,0.05,0.85,0.05,0.95
		c-0.066,0.3-0.25,0.767-0.55,1.4c-0.233,0.467-0.583,0.717-1.05,0.75c-0.167,0-0.35-0.017-0.55-0.05
		c-0.367-0.101-0.65-0.233-0.851-0.4c-0.1-0.1-0.166-0.217-0.199-0.35c-0.034-0.067-0.051-0.134-0.051-0.2
		c0-0.134,0.017-0.3,0.051-0.5c0.033-0.233,0.1-0.483,0.199-0.75c0.034-0.134,0.084-0.283,0.15-0.45c0.167-0.433,0.417-1.1,0.75-2
		c0.2-0.533,0.467-1.05,0.8-1.55C94.384,17.017,94.667,16.733,94.9,16.6z M105.1,27.1c0.267-0.1,0.434-0.066,0.5,0.101v0.35
		c-0.166,0.566-0.233,1.017-0.199,1.351l0.05,0.35c-0.033,0.134-0.167,0.283-0.4,0.45c-0.233,0.166-0.6,0.133-1.1-0.101
		c-0.467-0.199-0.717-0.399-0.75-0.6c-0.033-0.134,0.033-0.3,0.2-0.5c0.133-0.134,0.3-0.316,0.5-0.55
		C104.167,27.55,104.566,27.267,105.1,27.1z M71.725,16.15c0.006-0.019,0.015-0.036,0.025-0.05v-0.05
		c0.033-0.066,0.067-0.117,0.1-0.15c0.1-0.267,0.217-0.5,0.35-0.7c0.057-0.114,0.115-0.222,0.175-0.325
		c0.076-0.14,0.167-0.281,0.275-0.425c0.067-0.067,0.133-0.15,0.2-0.25c0.167-0.233,0.35-0.5,0.55-0.8
		c0.033-0.033,0.067-0.083,0.1-0.15c0.333-0.467,0.717-0.833,1.15-1.1h0.15c0.333-0.133,0.467,0.083,0.4,0.65
		c0,0.133-0.034,0.317-0.1,0.55c-0.233,0.833-0.533,1.6-0.9,2.3c-0.534,0.9-1.017,1.6-1.45,2.1v0.05c-0.133,0.1-0.233,0.2-0.3,0.3
		c-0.2,0.233-0.317,0.367-0.35,0.4s-0.067,0.067-0.1,0.1c-0.3,0.2-0.6,0.3-0.9,0.3c-0.133-0.333-0.1-0.767,0.1-1.3
		c0.066-0.233,0.2-0.567,0.4-1c0.033-0.1,0.066-0.217,0.1-0.35C71.7,16.214,71.708,16.18,71.725,16.15z M69.15,1.45
		c0.033,0.133,0.05,0.417,0.05,0.85c-0.034,0.233-0.067,0.8-0.1,1.7c0,1,0.017,1.717,0.05,2.15c0.1,0.7,0.15,1.1,0.15,1.2
		c-0.033,0.367-0.2,0.95-0.5,1.75c-0.3,0.8-0.867,1.117-1.7,0.95c-0.733-0.133-1.167-0.466-1.3-1c-0.066-0.367,0.034-1.066,0.3-2.1
		c0.133-0.567,0.333-1.4,0.6-2.5c0.167-0.7,0.417-1.367,0.75-2c0.333-0.534,0.633-0.9,0.9-1.1C68.75,1.05,69.017,1.083,69.15,1.45z
		 M60.95,9.55c0.1,0.167,0.117,0.383,0.05,0.65c-0.2,1.3-0.233,2.35-0.1,3.15c0.067,0.533,0.1,0.85,0.1,0.95
		c-0.033,0.3-0.233,0.767-0.6,1.4c-0.367,0.667-1.017,0.95-1.95,0.85c-0.833-0.1-1.317-0.367-1.45-0.8
		c-0.067-0.3,0.05-0.867,0.35-1.7c0.167-0.466,0.433-1.15,0.8-2.05c0.367-1.133,1-1.983,1.9-2.55
		C60.517,9.217,60.817,9.25,60.95,9.55z M49.85,6.05c0-0.033,0.017-0.066,0.05-0.1c0.1-0.267,0.217-0.517,0.35-0.75
		c0.038-0.071,0.079-0.138,0.125-0.2c0.009-0.017,0.018-0.034,0.025-0.05c0.133-0.133,0.317-0.367,0.55-0.7
		c0.233-0.3,0.466-0.533,0.7-0.7h0.1c0.267-0.1,0.317,0.15,0.15,0.75c-0.133,0.567-0.316,1.034-0.55,1.4
		c-0.267,0.5-0.55,0.917-0.85,1.25c-0.4,0.5-0.733,0.75-1,0.75c-0.1-0.233-0.083-0.5,0.05-0.8C49.617,6.7,49.717,6.417,49.85,6.05z
		 M44.55,10.2c0.767-0.333,1,0.083,0.7,1.25c-0.5,1.966-0.783,3.367-0.85,4.2c-0.033,0.733-0.066,1.167-0.1,1.3
		c-0.1,0.4-0.4,1-0.9,1.8c-0.5,0.833-1.167,1.083-2,0.75c-0.767-0.333-1.15-0.8-1.15-1.4c0-0.434,0.25-1.184,0.75-2.25
		c0.267-0.567,0.667-1.434,1.2-2.6c0.3-0.733,0.7-1.4,1.2-2C43.833,10.717,44.217,10.367,44.55,10.2z M50.1,23.8
		c-0.167,0.566-0.233,1.017-0.2,1.351l0.05,0.35c-0.034,0.134-0.167,0.283-0.4,0.45c-0.233,0.166-0.6,0.133-1.1-0.101
		c-0.467-0.199-0.717-0.399-0.75-0.6c-0.034-0.134,0.033-0.3,0.2-0.5c0.1-0.1,0.217-0.217,0.35-0.35
		C49.05,24.3,49.667,24.1,50.1,23.8z M53.55,26.45c0.167-0.134,0.383-0.25,0.65-0.351c0.333-0.133,0.55-0.083,0.65,0.15
		c0,0.033,0,0.2,0,0.5c-0.033,0.1-0.05,0.2-0.05,0.3c-0.167,0.7-0.233,1.233-0.2,1.601c0.066,0.267,0.1,0.416,0.1,0.449
		c-0.034,0.167-0.2,0.367-0.5,0.601c-0.267,0.267-0.717,0.233-1.35-0.101c-0.6-0.333-0.917-0.616-0.95-0.85
		c-0.066-0.267,0.217-0.767,0.85-1.5C52.95,26.95,53.217,26.684,53.55,26.45z M34.1,9.25c0,0.067,0,0.25,0,0.55
		c-0.2,0.833-0.283,1.45-0.25,1.85c0.033,0.267,0.05,0.434,0.05,0.5c-0.066,0.133-0.217,0.35-0.45,0.65
		c-0.2,0.267-0.534,0.367-1,0.3c-0.434-0.067-0.684-0.2-0.75-0.4c-0.034-0.1,0.133-0.7,0.5-1.8c0.233-0.733,0.65-1.283,1.25-1.65
		C33.783,9.05,34,9.05,34.1,9.25z M20.9,22.9c0.067,0.1,0.067,0.199,0,0.3c-0.167,0.467-0.217,0.85-0.15,1.149
		c0.033,0.134,0.033,0.233,0,0.301c0,0.033-0.017,0.083-0.05,0.149c-0.067,0.066-0.167,0.134-0.3,0.2c-0.1,0.1-0.25,0.134-0.45,0.1
		c-0.133,0-0.3-0.05-0.5-0.149c-0.434-0.167-0.667-0.334-0.7-0.5c0-0.066,0.217-0.367,0.65-0.9c0.233-0.3,0.583-0.533,1.05-0.7
		C20.717,22.75,20.867,22.767,20.9,22.9z M30.35,19.2v0.35c-0.167,0.567-0.233,1.017-0.2,1.35l0.05,0.35
		c-0.034,0.134-0.167,0.283-0.4,0.45c-0.233,0.166-0.6,0.133-1.1-0.101C28.233,21.4,27.983,21.2,27.95,21
		c-0.034-0.133,0.033-0.3,0.2-0.5c0.133-0.133,0.3-0.317,0.5-0.55c0.267-0.4,0.667-0.684,1.2-0.85
		C30.117,19,30.283,19.033,30.35,19.2z"/>
	<path style="fill-rule:evenodd;clip-rule:evenodd;fill:#7D7254;" d="M120.55,11.45l-0.05-0.05l0.05-0.2
		c0-0.167,0.017-0.35,0.05-0.55c0.5,0.133,0.95,0.233,1.351,0.3l-0.101,0.85c-0.267-0.066-0.55-0.05-0.85,0.05
		c-0.1-0.067-0.184-0.117-0.25-0.15L120.55,11.45z M127.725,26.45c-0.326,0.057-0.685-0.109-1.074-0.5
		c0.267,0.133,0.449,0.2,0.55,0.2c0.267,0,0.45-0.051,0.55-0.15c0.267-0.2,0.434-0.583,0.5-1.15c0-0.033,0-0.533,0-1.5l-0.05-2.3
		c-0.033-0.433-0.101-1.117-0.2-2.05v-1.2c-0.066-0.167-0.2-0.25-0.4-0.25c-0.366-0.066-0.633-0.15-0.8-0.25l-0.399-0.4v-0.05V16.4
		v-0.25c0.233,0.033,0.383,0.067,0.449,0.1h0.051c0.066,0,0.149-0.017,0.25-0.05v-0.05c0.033-0.066,0.1-0.066,0.199,0l0.051,0.05
		c0.066,0.033,0.149,0.133,0.25,0.3c0.1,0.067,0.233,0.133,0.399,0.2l0.05,0.05c0,0.067,0.017,0.133,0.051,0.2
		c0,0.066,0,0.133,0,0.2v0.05l0.149,0.45l0.101-1.7v0.25v0.1v0.4v0.25v0.2l0.05,7.25v1.8l-0.7,0.25H127.725z M126.4,15.6v-0.05
		c0.066-0.033,0.133-0.05,0.199-0.05C126.533,15.533,126.467,15.567,126.4,15.6z M117.75,9.35V9.4c-0.033,0.385-0.05,0.785-0.05,1.2
		l0.149,5.75c-0.066,0.133-0.133,0.283-0.199,0.45c0-0.367-0.017-0.883-0.051-1.55c0-1.3-0.017-2.083-0.05-2.35
		c-0.033-0.467-0.1-1.167-0.2-2.1c-0.033-0.2-0.05-0.617-0.05-1.25c-0.066-0.167-0.217-0.25-0.45-0.25
		c-0.433-0.066-0.75-0.167-0.949-0.3l-0.5-0.35V8.2V8.1V7.95V7.9c0.133,0,0.333,0.017,0.6,0.05c0.1,0,0.2-0.034,0.3-0.1
		c0.066-0.033,0.15-0.033,0.25,0c0.066,0.033,0.15,0.083,0.25,0.15c0.033,0.067,0.084,0.133,0.15,0.2
		c0.066,0.033,0.166,0.083,0.3,0.15c0.033,0,0.083,0.017,0.15,0.05c0.1,0.133,0.133,0.3,0.1,0.5L117.75,9.35z M115.4,7.3V7.25h0.05
		c0.033-0.033,0.066-0.05,0.1-0.05c0.032,0,0.065,0,0.101,0c-0.035,0.001-0.068,0.018-0.101,0.05
		C115.483,7.25,115.434,7.267,115.4,7.3z M109.45,10.15c0,0.5,0.033,1.083,0.1,1.75l0.101,0.75c-0.067-0.033-0.134-0.05-0.2-0.05
		l-0.101-0.55c-0.033-0.167-0.066-0.466-0.1-0.9c-0.033-0.1-0.134-0.15-0.3-0.15c-0.233,0-0.417-0.05-0.55-0.15l-0.2-0.2l-0.05-0.05
		l-0.051-0.2v-0.1C108.6,10.267,109.05,10.217,109.45,10.15z M116.875,18.45c-0.264-0.009-0.539-0.109-0.825-0.3
		c-0.066-0.033-0.116-0.066-0.149-0.1c-0.033-0.016-0.059-0.033-0.075-0.05c0.125,0.003,0.316,0.053,0.575,0.15
		c0.133-0.033,0.35-0.083,0.649-0.15c0.033-0.033,0.084-0.067,0.15-0.1l-0.05,0.05c-0.067,0.167-0.134,0.333-0.2,0.5H116.875z
		 M109.7,20.95c-0.066,0.533-0.101,1.184-0.101,1.95l0.101,4.05v0.95c-0.066-0.067-0.134-0.117-0.2-0.15
		c0.033-0.134,0.05-0.3,0.05-0.5c0.033-0.233,0.033-0.6,0-1.1l-0.149-4c-0.034-0.034-0.134-0.101-0.301-0.2
		c-0.3-0.101-0.466-0.167-0.5-0.2l-0.25-0.25l-0.05-0.15V20.8C108.8,20.867,109.267,20.917,109.7,20.95z M63.9,19.3
		c0.033,0.467,0.083,0.983,0.15,1.55l0.7,4.95l0.2,1.601l-0.65,0.3l-0.025,0.024c-0.232,0.061-0.516,0.002-0.85-0.175
		c-0.025-0.016-0.05-0.032-0.075-0.05c-0.018-0.006-0.035-0.015-0.05-0.025c0.208,0.048,0.358,0.056,0.45,0.025
		c0.1-0.033,0.267-0.083,0.5-0.15c0.267-0.233,0.383-0.616,0.35-1.149c0-0.3-0.05-0.75-0.15-1.351c-0.067-0.433-0.167-1.1-0.3-2
		L63.75,21c-0.033-0.167-0.083-0.517-0.15-1.05c-0.033-0.133-0.167-0.2-0.4-0.2c-0.333,0-0.6-0.05-0.8-0.15l-0.25-0.15
		C62.783,19.383,63.367,19.333,63.9,19.3z M71.85,15.9c-0.5-0.066-0.817-0.15-0.95-0.25l-0.5-0.35v-1.55
		c1.1-0.067,2.033-0.167,2.8-0.3c-0.277,0.415-0.552,0.89-0.825,1.425c-0.06,0.103-0.118,0.211-0.175,0.325
		C72.067,15.4,71.95,15.633,71.85,15.9z M72.85,23.45v0.6l-0.8,0.2h-0.025c-0.066,0.013-0.133,0.021-0.2,0.025
		c-0.338-0.02-0.696-0.178-1.075-0.476c0.267,0.134,0.483,0.2,0.65,0.2c0.133-0.033,0.35-0.083,0.65-0.15
		c0.2-0.1,0.35-0.267,0.45-0.5l0.1,0.051C72.667,23.4,72.75,23.417,72.85,23.45z M78.75,24.35c-0.033,0.4-0.05,0.817-0.05,1.25
		l0.15,5.75V33.2l-0.8,0.2c-0.066,0-0.117,0.017-0.15,0.05c-0.267,0-0.55-0.101-0.85-0.3H77c-0.05-0.05-0.108-0.101-0.175-0.15
		c0.131,0.006,0.323,0.056,0.575,0.15h0.05c0.1-0.034,0.3-0.084,0.6-0.15c0.333-0.233,0.534-0.634,0.6-1.2c0-0.133,0-0.283,0-0.45
		c0-0.3-0.017-0.666-0.05-1.1c0-1.3-0.017-2.083-0.05-2.35c-0.033-0.467-0.1-1.167-0.2-2.101c-0.033-0.2-0.05-0.616-0.05-1.25
		c-0.066-0.166-0.216-0.25-0.45-0.25c-0.434-0.066-0.75-0.166-0.95-0.3l-0.5-0.35V23.6V23.4v-0.5c0.133,0,0.333,0.017,0.6,0.05
		c0.1,0,0.183-0.017,0.25-0.05l0.05-0.051c0.067-0.033,0.15-0.033,0.25,0c0.034,0,0.067,0.017,0.1,0.051
		c0.1,0.033,0.2,0.133,0.3,0.3c0.066,0.033,0.167,0.083,0.3,0.149c0.033,0,0.083,0.017,0.15,0.051
		c0.033,0.033,0.067,0.083,0.1,0.149c0,0.066,0.017,0.15,0.05,0.25c-0.033,0.033-0.05,0.066-0.05,0.101L78.75,24.35z M84.4,20.3
		c-0.067,0.567-0.134,1.267-0.2,2.101L84.1,26.85l-0.05,1.5l-0.7,0.15c-0.199,0.033-0.399-0.017-0.6-0.15
		c-0.134-0.066-0.267-0.166-0.4-0.3H82.4c0.1,0.033,0.25,0.101,0.449,0.2c0.101-0.033,0.284-0.066,0.551-0.1
		c0.267-0.167,0.433-0.467,0.5-0.9c0.033-0.267,0.05-0.684,0.05-1.25c0.066-0.8,0.083-1.4,0.05-1.8l-0.1-2.65
		c0-0.033-0.067-0.083-0.2-0.149c0.066-0.334,0.083-0.7,0.05-1.101C83.983,20.3,84.2,20.3,84.4,20.3z M91.375,24.5
		c-0.208-0.058-0.433-0.208-0.675-0.45c0.1,0,0.25,0.05,0.45,0.15c0.066-0.033,0.149-0.05,0.25-0.05c0,0.1,0.017,0.216,0.05,0.35
		H91.375z M92.3,15.65l0.05,5.2c-0.066,0.167-0.133,0.333-0.199,0.5l-0.25-5c-0.067-0.167-0.2-0.25-0.4-0.25
		c-0.267-0.067-0.517-0.15-0.75-0.25L90.4,15.5v-0.1v-0.25V14.8l0.449,0.1c0.034,0,0.084-0.017,0.15-0.05
		c0.033-0.033,0.066-0.067,0.1-0.1c0.034-0.033,0.084-0.033,0.15,0h0.05c0.101,0.033,0.2,0.15,0.3,0.35l0.051,0.05
		c0.066,0.033,0.166,0.083,0.3,0.15c0,0.034,0.017,0.083,0.05,0.15c0,0.066,0.017,0.133,0.05,0.2c0,0.033,0,0.067,0,0.1l0.15,0.45
		l0.1-1.6v0.55v0.3V15.65z M97.05,34.3H97c-0.366,0.066-0.733-0.033-1.1-0.3c-0.034-0.033-0.084-0.066-0.15-0.1
		c0.4,0.1,0.616,0.149,0.65,0.149c0.3,0,0.517-0.033,0.649-0.1c0.334-0.167,0.533-0.467,0.601-0.9c0-0.267-0.017-0.666-0.051-1.2
		c0-1-0.017-1.6-0.05-1.8c-0.033-0.366-0.1-0.916-0.2-1.649c-0.033-0.167-0.05-0.483-0.05-0.95c-0.066-0.134-0.217-0.2-0.45-0.2
		c-0.5-0.066-0.816-0.134-0.949-0.2l-0.4-0.25c0.833,0.033,1.583,0.033,2.25,0c-0.033,0.434-0.05,0.934-0.05,1.5l0.149,4.351V34.1
		L97.05,34.3z M76.4,22.3v-0.05c0.063-0.031,0.138-0.048,0.225-0.05C76.538,22.204,76.462,22.237,76.4,22.3z M54,10.45
		c0,0.033,0,0.066,0,0.1c0,0.034,0,0.083,0,0.15c0,0.133,0,0.3,0,0.5l0.1,3.35v1.15l-0.55,0.1c-0.167,0.034-0.333,0.017-0.5-0.05
		c-0.1-0.033-0.2-0.083-0.3-0.15c-0.067-0.033-0.117-0.067-0.15-0.1l0.45,0.15c0.233,0,0.4-0.033,0.5-0.1
		c0.233-0.133,0.367-0.367,0.4-0.7c0.033-0.2,0.033-0.517,0-0.95l-0.2-3.2v-0.15c-0.033-0.066-0.1-0.117-0.2-0.15
		c-0.033,0-0.083,0-0.15,0c-0.333-0.066-0.55-0.133-0.65-0.2L52.4,10V9.9V9.8V9.75v-0.1v-0.1l0.4,0.05c0.067,0,0.133-0.017,0.2-0.05
		c0.033-0.033,0.1-0.05,0.2-0.05l0.25,0.25c0.066,0.033,0.167,0.067,0.3,0.1c0.1,0.066,0.133,0.167,0.1,0.3L54,10.45z M44.45,24.95
		l0.1-0.7c0.534,0.066,1.05,0.116,1.55,0.15l-0.35,7l-0.1,1.55L45.1,33.1c-0.2,0.034-0.383,0-0.55-0.1l-0.025-0.025
		c-0.089-0.094-0.164-0.202-0.225-0.324c0.133,0.133,0.267,0.199,0.4,0.199c0.2,0,0.333-0.033,0.4-0.1
		c0.233-0.167,0.383-0.483,0.45-0.95c0.034-0.3,0.05-0.733,0.05-1.3c0.066-0.866,0.083-1.517,0.05-1.95L45.6,26.8
		c0-0.166,0.017-0.517,0.05-1.05c-0.033-0.066-0.133-0.15-0.3-0.25c-0.3-0.066-0.5-0.15-0.6-0.25L44.45,24.95z M35.7,18.8v1.05
		l-0.45,0.1c-0.233,0.066-0.483-0.017-0.75-0.25l0.35,0.1l0.4-0.05c0.2-0.133,0.3-0.35,0.3-0.65c0.034-0.167,0.034-0.45,0-0.85v-1.2
		l-0.15-1.1V15.3c-0.033-0.1-0.133-0.15-0.3-0.15c-0.233-0.033-0.4-0.083-0.5-0.15l-0.25-0.2l-0.05-0.1v-0.35
		c0.5,0.033,0.967,0.066,1.4,0.1c-0.067,0.367-0.1,0.833-0.1,1.4L35.7,18.8z"/>
	<path style="fill-rule:evenodd;clip-rule:evenodd;fill:#947E4D;" d="M125.15,15.75c-0.101-0.267-0.2-0.517-0.301-0.75
		c0.301-0.1,0.684-0.167,1.15-0.2c0.434-0.066,0.833-0.1,1.2-0.1l1.3,0.1c0.366,0.034,0.684,0.117,0.95,0.25
		c0.833,0.4,0.916,0.8,0.25,1.2c-0.367,0.2-0.8,0.35-1.3,0.45v-0.4l0.5,0.05c-0.2-0.067-0.367-0.117-0.5-0.15v-0.25
		c0.533-0.067,0.866-0.184,1-0.35c-0.301,0.066-0.717,0.1-1.25,0.1c-0.067-0.067-0.134-0.117-0.2-0.15
		c0.366-0.167,0.6-0.333,0.7-0.5c-0.4,0.167-0.717,0.284-0.95,0.35h-0.05c-0.067,0-0.134,0-0.2,0l-0.05-0.5
		c-0.101,0.2-0.167,0.333-0.2,0.4c0,0.034-0.017,0.067-0.05,0.1c-0.167,0-0.334,0.033-0.5,0.1H126.6
		c-0.066,0-0.133,0.017-0.199,0.05v0.05h-0.051v0.05c-0.199,0-0.416-0.017-0.649-0.05c0.2,0.033,0.416,0.083,0.649,0.15H125.15z
		 M125.3,16.05c0.267,0,0.617,0,1.05,0v0.1h0.051l-0.601,0.3c0.167,0,0.367-0.017,0.601-0.05v0.45c-0.301,0-0.601-0.033-0.9-0.1
		l-0.2-0.55C125.3,16.131,125.3,16.081,125.3,16.05z M125.25,16c-0.033-0.033-0.05-0.083-0.05-0.15
		c0.3,0.033,0.684,0.017,1.149-0.05v0.05C126.217,15.917,125.85,15.967,125.25,16z M117.2,7.2c0.233-0.1,0.583-0.233,1.05-0.4
		c-0.634,0.1-1.1,0.167-1.4,0.2c0-0.233-0.017-0.383-0.05-0.45c-0.1,0.167-0.166,0.267-0.2,0.3c-0.1,0.066-0.25,0.117-0.449,0.15
		c-0.667,0.1-1.4-0.033-2.2-0.4c0.457,0.261,1.073,0.444,1.85,0.55h-0.1l-0.05,0.05c-0.035,0-0.068,0-0.101,0
		c-0.033,0-0.066,0.017-0.1,0.05h-0.05c-0.342,0.028-0.925-0.005-1.75-0.1c0.366,0.1,0.933,0.167,1.699,0.2V7.5L115,7.6
		c0.1,0.033,0.217,0.05,0.35,0.05l0.051,0.3C115,7.883,114.6,7.8,114.2,7.7c-0.9-0.233-1.384-0.483-1.45-0.75V6.9
		c0.1-0.333,0.967-0.517,2.6-0.55c0.034,0,0.084,0,0.15,0c1.667,0,2.884,0.167,3.65,0.5c0.066,0.033,0.133,0.066,0.199,0.1
		C119.15,7.383,119,7.7,118.9,7.9c-0.334,0.033-0.684,0.067-1.051,0.1V7.75c0.167,0,0.334,0.017,0.5,0.05
		c-0.199-0.066-0.366-0.1-0.5-0.1V7.65c-0.1-0.066-0.166-0.133-0.199-0.2c0.133,0,0.3,0.017,0.5,0.05c0.366,0,0.649-0.067,0.85-0.2
		c-0.267,0.034-0.85,0.017-1.75-0.05L117.2,7.2z M115.7,7.15l-1.351-0.1c-0.633-0.167-1.1-0.25-1.399-0.25
		c0.3,0.067,0.783,0.184,1.45,0.35H115.7z M78.85,23.3v-0.6l1.6,0.149c-1-0.233-1.583-0.399-1.75-0.5c0.3,0,0.767-0.017,1.399-0.05
		c0.567-0.033,0.983-0.166,1.25-0.399c-0.566,0.133-1.533,0.166-2.899,0.1c0.9-0.3,1.466-0.55,1.7-0.75
		c-0.967,0.267-1.667,0.45-2.101,0.55c-0.066-0.434-0.117-0.684-0.15-0.75c-0.133,0.267-0.233,0.45-0.3,0.55
		c-0.1,0.101-0.333,0.184-0.7,0.25c-1.033,0.2-2.167,0.101-3.4-0.3c0.867,0.3,1.783,0.5,2.75,0.601h-2.1
		c-0.533-0.067-0.967-0.117-1.3-0.15c-0.1,0-0.167,0-0.2,0c-0.233,0-0.433,0-0.6,0l2.2,0.3c0.467,0,1.133-0.05,2-0.149
		c-0.3,0.267-1.167,0.366-2.6,0.3c-0.2-0.033-0.383-0.05-0.55-0.05c0.133,0.033,0.316,0.066,0.55,0.1
		c0.567,0.033,1.467,0.017,2.7-0.05v0.1c-0.2,0.066-0.567,0.184-1.1,0.351c0.333,0.033,0.717,0.017,1.15-0.051V22.9v0.5
		c-0.566,0-1.117-0.034-1.65-0.101c-0.267-0.033-0.517-0.066-0.75-0.1c-0.467-0.066-0.85-0.15-1.15-0.25
		c-0.067-0.033-0.133-0.05-0.2-0.05c-0.3-0.134-0.517-0.25-0.65-0.351c-0.133-0.133-0.217-0.25-0.25-0.35v-0.05
		c0-0.134,0.1-0.267,0.3-0.4c0.133-0.1,0.317-0.184,0.55-0.25c0.066-0.033,0.133-0.066,0.2-0.1c0.667-0.167,1.617-0.317,2.85-0.45
		c0.467-0.034,0.917-0.067,1.35-0.1h1.4c1.3,0,2.35,0.133,3.15,0.4c0.4,0.134,0.717,0.267,0.95,0.4c0.366,0.233,0.366,0.483,0,0.75
		c-0.167,0.066-0.35,0.149-0.55,0.25C81.116,22.95,80.083,23.167,78.85,23.3z M88.7,14.05c0.467,0.034,1.083,0.05,1.85,0.05l-1,0.45
		c0.233,0.034,0.5,0.034,0.8,0v0.25H90.4v0.35c-0.5-0.066-1-0.167-1.5-0.3C88.833,14.583,88.767,14.317,88.7,14.05z M88.6,13.75
		c0.101,0.033,0.167,0.05,0.2,0.05c0.167,0,0.434-0.017,0.8-0.05c0.301-0.033,0.551-0.033,0.75,0
		c-0.166,0.167-0.733,0.217-1.699,0.15L88.6,13.75z M92.3,15.15V14.6l-0.05-0.05c0.333,0.067,0.733,0.133,1.2,0.2
		c-0.733-0.3-1.15-0.5-1.25-0.6c0.2,0,0.533,0.017,1,0.05c0.434-0.034,0.75-0.167,0.95-0.4c-0.267,0.067-0.617,0.083-1.051,0.05
		c-0.5-0.033-0.866-0.067-1.1-0.1c0.767-0.333,1.2-0.567,1.3-0.7c-0.166,0-0.434,0.067-0.8,0.2s-0.634,0.2-0.8,0.2
		c0-0.4-0.017-0.65-0.05-0.75c-0.101,0.267-0.184,0.45-0.25,0.55c-0.101,0.133-0.284,0.217-0.551,0.25
		c-0.666,0.133-1.449-0.017-2.35-0.45c0.566,0.3,1.184,0.517,1.85,0.65l-1.6-0.05c-0.066-0.033-0.134-0.05-0.2-0.05l-0.2-0.6v-0.05
		l-0.149-0.3c0.467-0.1,1.033-0.167,1.7-0.2c0.933-0.034,1.75,0,2.449,0.1l0.301,0.025c0.662,0.087,1.212,0.262,1.649,0.525
		c1.033,0.6,1.101,1.117,0.2,1.55C93.9,14.917,93.167,15.083,92.3,15.15z M55.1,8.95c0.267,0.033,0.517,0.083,0.75,0.15
		c0.9,0.3,0.983,0.583,0.25,0.85c-0.533,0.2-1.233,0.35-2.1,0.45l0.05-0.4l1.15,0.1c-0.667-0.167-1.017-0.267-1.05-0.3
		c0.167,0,0.45-0.017,0.85-0.05c0.333-0.033,0.583-0.117,0.75-0.25c-0.233,0.067-0.783,0.1-1.65,0.1V9.55c0.5-0.2,0.8-0.333,0.9-0.4
		c-0.067,0-0.383,0.067-0.95,0.2c-0.05-0.042-0.1-0.075-0.15-0.1L53.8,9.2c-0.033-0.034-0.066-0.05-0.1-0.05
		C53.667,9.083,53.65,9.033,53.65,9c-0.033,0.033-0.05,0.083-0.05,0.15c-0.067-0.033-0.117-0.05-0.15-0.05H53
		c-0.2,0-0.417,0.033-0.65,0.1v0.35c-0.4-0.033-0.867-0.117-1.4-0.25c0.433,0.133,0.917,0.25,1.45,0.35h-1.05
		c-0.6-0.066-1.033-0.1-1.3-0.1c0.534,0.133,0.983,0.2,1.35,0.2c0.267,0,0.6,0,1,0V9.8c-0.3,0.034-0.867,0.05-1.7,0.05
		c0.367,0.066,0.933,0.083,1.7,0.05V10L52,10.15c0.133,0,0.283,0,0.45,0v0.3c-0.4-0.034-0.8-0.083-1.2-0.15
		c-0.867-0.133-1.317-0.333-1.35-0.6V9.65c-0.033-0.3,0.75-0.533,2.35-0.7c0.267-0.034,0.533-0.05,0.8-0.05h1.75L55.1,8.95z"/>
	<path style="fill-rule:evenodd;clip-rule:evenodd;fill:#605740;" d="M117.85,8v0.2v0.15l-0.1,1L117.5,8.9
		c0.033-0.2,0-0.367-0.1-0.5c-0.067-0.033-0.117-0.05-0.15-0.05c-0.134-0.067-0.233-0.117-0.3-0.15
		c-0.066-0.067-0.117-0.133-0.15-0.2c-0.1-0.067-0.184-0.117-0.25-0.15c-0.1-0.033-0.184-0.033-0.25,0c-0.1,0.066-0.2,0.1-0.3,0.1
		c-0.267-0.034-0.467-0.05-0.6-0.05V7.5l-0.051-0.15V7.3h0.051c0.033-0.033,0.083-0.05,0.149-0.05
		c0.032-0.032,0.065-0.049,0.101-0.05h0.05c0.032-0.033,0.065-0.049,0.1-0.05h0.05c0.334-0.1,0.7-0.117,1.101-0.05
		c0.066,0,0.149,0.033,0.25,0.1l0.05,0.05c0.1,0.033,0.233,0.1,0.4,0.2c0.033,0.066,0.1,0.133,0.199,0.2V7.7v0.05V8z M127.7,15.4
		c0.066,0.033,0.149,0.083,0.25,0.15c0.066,0.034,0.133,0.083,0.2,0.15c0.1,0.066,0.183,0.133,0.25,0.2v0.05l-0.101,1.7l-0.149-0.45
		v-0.05c0-0.066,0-0.133,0-0.2c-0.034-0.067-0.051-0.133-0.051-0.2l-0.05-0.05c-0.166-0.067-0.3-0.133-0.399-0.2
		c-0.101-0.167-0.184-0.267-0.25-0.3l-0.051-0.05c-0.1-0.066-0.166-0.066-0.199,0v0.05c-0.101,0.033-0.184,0.05-0.25,0.05h-0.051
		c-0.066-0.033-0.216-0.067-0.449-0.1h-0.051v-0.1v-0.2V15.8v-0.05v-0.1V15.6h0.051c0.066-0.033,0.133-0.067,0.199-0.1h0.051
		c0.166-0.067,0.333-0.1,0.5-0.1c0.1-0.033,0.199-0.033,0.3,0c0.066,0,0.133,0,0.2,0H127.7z M78.85,23.3l-0.05,0.25v0.2l-0.05,0.6
		L78.5,23.9c0-0.034,0.017-0.067,0.05-0.101c-0.033-0.1-0.05-0.184-0.05-0.25c-0.033-0.066-0.067-0.116-0.1-0.149
		c-0.066-0.034-0.117-0.051-0.15-0.051c-0.133-0.066-0.233-0.116-0.3-0.149c-0.1-0.167-0.2-0.267-0.3-0.3
		c-0.033-0.034-0.066-0.051-0.1-0.051c-0.1-0.033-0.183-0.033-0.25,0L77.25,22.9c-0.067,0.033-0.15,0.05-0.25,0.05
		c-0.267-0.033-0.467-0.05-0.6-0.05V22.85V22.45l-0.05-0.15h0.05c0.063-0.063,0.138-0.096,0.225-0.1h0.025
		c0.4-0.134,0.833-0.167,1.3-0.101c0.2,0.034,0.5,0.217,0.9,0.551v0.05V23.3z M92.25,14.55l0.05,0.05l-0.1,1.6l-0.15-0.45
		c0-0.033,0-0.067,0-0.1c-0.033-0.066-0.05-0.133-0.05-0.2c-0.033-0.067-0.05-0.117-0.05-0.15c-0.134-0.066-0.233-0.117-0.3-0.15
		L91.6,15.1c-0.1-0.2-0.199-0.317-0.3-0.35h-0.05c-0.066-0.033-0.116-0.033-0.15,0c-0.033,0.033-0.066,0.067-0.1,0.1
		c-0.066,0.033-0.116,0.05-0.15,0.05L90.4,14.8H90.35v-0.25v-0.3c0.2-0.067,0.4-0.117,0.601-0.15h0.3c0.1-0.033,0.217-0.033,0.35,0
		C91.8,14.133,92.017,14.283,92.25,14.55z M53.6,9.15c0.033,0,0.066,0,0.1,0c0.033,0,0.066,0.017,0.1,0.05l0.1,0.05
		c0.05,0.025,0.1,0.058,0.15,0.1c0,0.033,0.017,0.05,0.05,0.05c0,0.033,0,0.083,0,0.15V9.6L54.05,10L54,10.4v0.05l-0.15-0.3
		c0.033-0.133,0-0.233-0.1-0.3c-0.133-0.033-0.233-0.067-0.3-0.1L53.2,9.5c-0.1,0-0.167,0.017-0.2,0.05
		c-0.067,0.034-0.133,0.05-0.2,0.05l-0.4-0.05h-0.05V9.2C52.583,9.133,52.8,9.1,53,9.1h0.45C53.483,9.1,53.533,9.117,53.6,9.15z"/>
	<path style="fill-rule:evenodd;clip-rule:evenodd;fill:#6A5C37;" d="M125.2,15.85c-0.033-0.033-0.05-0.067-0.05-0.1h1.199
		c-0.233-0.067-0.449-0.117-0.649-0.15c0.233,0.033,0.45,0.05,0.649,0.05v0.1v0.05C125.884,15.867,125.5,15.883,125.2,15.85z
		 M125.25,16c0.6-0.033,0.967-0.083,1.1-0.15v0.2c-0.433,0-0.783,0-1.05,0C125.268,16.05,125.251,16.033,125.25,16z M127.95,15.55
		c-0.101-0.066-0.184-0.117-0.25-0.15c0.233-0.066,0.55-0.183,0.95-0.35C128.55,15.217,128.316,15.383,127.95,15.55z M128.4,15.95
		V15.9c-0.067-0.066-0.15-0.133-0.25-0.2c0.533,0,0.949-0.034,1.25-0.1C129.267,15.767,128.934,15.883,128.4,15.95z M128.4,16.3
		v-0.1c0.133,0.033,0.3,0.083,0.5,0.15L128.4,16.3z M127.15,15.4c0.033-0.033,0.05-0.066,0.05-0.1c0.033-0.066,0.1-0.2,0.2-0.4
		l0.05,0.5C127.35,15.367,127.25,15.367,127.15,15.4z M126.4,16.15v0.25c-0.233,0.033-0.434,0.05-0.601,0.05L126.4,16.15z
		 M115.35,7.5v0.15c-0.133,0-0.25-0.017-0.35-0.05L115.35,7.5z M115.7,7.15h-1.3c-0.667-0.167-1.15-0.283-1.45-0.35
		c0.3,0,0.767,0.083,1.399,0.25L115.7,7.15z M115.8,7.15c-0.776-0.105-1.393-0.289-1.85-0.55c0.8,0.367,1.533,0.5,2.2,0.4
		c0.199-0.033,0.35-0.083,0.449-0.15c0.034-0.033,0.101-0.133,0.2-0.3c0.033,0.067,0.05,0.217,0.05,0.45
		c0.301-0.033,0.767-0.1,1.4-0.2c-0.467,0.167-0.816,0.3-1.05,0.4c-0.101-0.067-0.184-0.1-0.25-0.1
		c-0.4-0.067-0.767-0.05-1.101,0.05H115.8c-0.034,0.001-0.067,0.018-0.1,0.05h-0.05l0.05-0.05H115.8z M115.35,7.35
		c-0.767-0.033-1.333-0.1-1.699-0.2c0.825,0.095,1.408,0.128,1.75,0.1V7.3h-0.051V7.35z M117.65,7.45
		c-0.167-0.1-0.301-0.167-0.4-0.2c0.9,0.067,1.483,0.083,1.75,0.05c-0.2,0.133-0.483,0.2-0.85,0.2
		C117.95,7.467,117.783,7.45,117.65,7.45z M117.85,7.7c0.134,0,0.301,0.033,0.5,0.1c-0.166-0.033-0.333-0.05-0.5-0.05V7.7z
		 M90.35,14.55c-0.3,0.034-0.566,0.034-0.8,0l1-0.45c-0.767,0-1.383-0.017-1.85-0.05c-0.033-0.033-0.05-0.066-0.05-0.1V13.9
		c0.966,0.067,1.533,0.017,1.699-0.15c-0.199-0.033-0.449-0.033-0.75,0c-0.366,0.033-0.633,0.05-0.8,0.05
		c-0.033,0-0.1-0.017-0.2-0.05l-0.05-0.15c0.066,0,0.134,0.017,0.2,0.05l1.6,0.05c-0.666-0.133-1.283-0.35-1.85-0.65
		c0.9,0.434,1.684,0.583,2.35,0.45c0.267-0.033,0.45-0.117,0.551-0.25c0.066-0.1,0.149-0.283,0.25-0.55
		c0.033,0.1,0.05,0.35,0.05,0.75c0.166,0,0.434-0.067,0.8-0.2s0.634-0.2,0.8-0.2c-0.1,0.133-0.533,0.367-1.3,0.7
		c0.233,0.033,0.6,0.067,1.1,0.1c0.434,0.033,0.784,0.017,1.051-0.05c-0.2,0.233-0.517,0.367-0.95,0.4c-0.467-0.034-0.8-0.05-1-0.05
		c0.1,0.1,0.517,0.3,1.25,0.6c-0.467-0.067-0.867-0.133-1.2-0.2c-0.233-0.267-0.45-0.417-0.65-0.45c-0.133-0.033-0.25-0.033-0.35,0
		h-0.3c-0.2,0.033-0.4,0.083-0.601,0.15V14.55z M76.4,22.85c-0.433,0.067-0.816,0.084-1.15,0.051c0.533-0.167,0.9-0.284,1.1-0.351
		L76.4,22.85z M76.35,22.3v0.15c-1.233,0.066-2.133,0.083-2.7,0.05c-0.233-0.033-0.417-0.066-0.55-0.1c0.167,0,0.35,0.017,0.55,0.05
		c1.434,0.066,2.3-0.033,2.6-0.3c-0.867,0.1-1.533,0.149-2,0.149l-2.2-0.3c0.167,0,0.367,0,0.6,0c0.033,0,0.1,0,0.2,0
		c0.333,0.033,0.767,0.083,1.3,0.15h2.1c-0.967-0.101-1.883-0.301-2.75-0.601c1.233,0.4,2.367,0.5,3.4,0.3
		c0.367-0.066,0.6-0.149,0.7-0.25c0.066-0.1,0.167-0.283,0.3-0.55c0.033,0.066,0.083,0.316,0.15,0.75
		c0.434-0.1,1.133-0.283,2.101-0.55c-0.234,0.2-0.8,0.45-1.7,0.75c1.367,0.066,2.333,0.033,2.899-0.1
		c-0.267,0.233-0.683,0.366-1.25,0.399c-0.633,0.033-1.1,0.05-1.399,0.05c0.167,0.101,0.75,0.267,1.75,0.5l-1.6-0.149v-0.05
		c-0.4-0.334-0.7-0.517-0.9-0.551c-0.467-0.066-0.9-0.033-1.3,0.101h-0.025c-0.087,0.002-0.163,0.019-0.225,0.05v0.05H76.35z
		 M52.4,9.75c-0.4,0-0.733,0-1,0c-0.367,0-0.816-0.067-1.35-0.2c0.267,0,0.7,0.034,1.3,0.1h1.05c-0.533-0.1-1.017-0.217-1.45-0.35
		c0.533,0.133,1,0.217,1.4,0.25h0.05v0.1V9.75z M54.1,9.6c0.867,0,1.417-0.033,1.65-0.1C55.583,9.633,55.333,9.717,55,9.75
		c-0.4,0.033-0.683,0.05-0.85,0.05c0.033,0.034,0.383,0.133,1.05,0.3L54.05,10L54.1,9.6z M54.05,9.35
		c0.567-0.133,0.883-0.2,0.95-0.2c-0.1,0.067-0.4,0.2-0.9,0.4c0-0.066,0-0.117,0-0.15C54.067,9.4,54.05,9.383,54.05,9.35z
		 M53.6,9.15c0-0.066,0.017-0.117,0.05-0.15c0,0.033,0.017,0.083,0.05,0.15C53.667,9.15,53.633,9.15,53.6,9.15z M52.4,9.9
		c-0.767,0.033-1.333,0.017-1.7-0.05c0.833,0,1.4-0.017,1.7-0.05V9.9z M52.4,10l0.05,0.15c-0.167,0-0.317,0-0.45,0L52.4,10z"/>
	<path style="fill-rule:evenodd;clip-rule:evenodd;fill:#B2A377;" d="M120.15,30.5c0.267-0.134,0.483-0.184,0.649-0.15l0.4-0.35
		l0.2-1.45c0.166-1.434,0.199-2.55,0.1-3.35c0-0.434-0.316-0.717-0.95-0.851h-0.05l0.05-1.55h0.05l-0.05,0.8l0.3,0.301
		c0.034,0.033,0.267,0.133,0.7,0.3c0.167,0,0.283,0.066,0.351,0.2c-0.034,0.466-0.051,0.783-0.051,0.949l0.051,1.601
		c-0.034,0.8-0.051,1.399-0.051,1.8c-0.033,0.7-0.066,1.1-0.1,1.2c-0.066,0.434-0.233,0.717-0.5,0.85
		c-0.033,0.033-0.2,0.05-0.5,0.05c-0.134,0-0.283-0.05-0.45-0.149L120.15,30.5z M127.475,26.5h-0.024
		c-0.267-0.033-0.533-0.217-0.8-0.55c-0.034-0.033-0.067-0.066-0.101-0.101c-0.013-0.013-0.021-0.029-0.024-0.05l-0.025-0.024V25.75
		c0.3-0.233,0.55-0.316,0.75-0.25l0.4-0.5l0.1-1.9c0-2.133-0.05-3.55-0.15-4.25c-0.033-0.5-0.416-0.833-1.149-1l-0.05-0.6v-0.2V16.9
		l0.399,0.4c0.167,0.1,0.434,0.184,0.8,0.25c0.2,0,0.334,0.083,0.4,0.25V19c0.1,0.933,0.167,1.617,0.2,2.05l0.05,2.3
		c0,0.967,0,1.467,0,1.5c-0.066,0.567-0.233,0.95-0.5,1.15c-0.1,0.1-0.283,0.15-0.55,0.15c-0.101,0-0.283-0.067-0.55-0.2
		c0.39,0.391,0.748,0.557,1.074,0.5C127.637,26.481,127.553,26.498,127.475,26.5z M115.35,7.5V7.35L115.4,7.5v0.4v0.05l-0.051-0.3
		V7.5z M117.65,16.8c-0.2,0.5-0.351,0.867-0.45,1.1c-0.066,0.033-0.117,0.067-0.15,0.1c-0.3,0.067-0.517,0.117-0.649,0.15
		c-0.259-0.097-0.45-0.147-0.575-0.15H115.8l-0.3-0.3c0.4-0.2,0.717-0.284,0.95-0.25l0.5-0.5l0.1-1.95c0-2.2-0.066-3.667-0.2-4.4
		c-0.066-0.5-0.517-0.833-1.35-1h-0.05l-0.05-0.95L115.9,9c0.199,0.133,0.517,0.233,0.949,0.3c0.233,0,0.384,0.083,0.45,0.25
		c0,0.633,0.017,1.05,0.05,1.25c0.101,0.934,0.167,1.633,0.2,2.1c0.033,0.267,0.05,1.05,0.05,2.35
		C117.634,15.917,117.65,16.433,117.65,16.8z M120.55,11.45l0.2,0.25c0.066,0.033,0.15,0.083,0.25,0.15
		c-0.134,0-0.25,0.033-0.35,0.1c-0.034,0.033-0.084,0.066-0.15,0.1C120.5,11.85,120.517,11.65,120.55,11.45z M108.2,10.65l0.2,0.2
		c0.133,0.1,0.316,0.15,0.55,0.15c0.166,0,0.267,0.05,0.3,0.15c0.033,0.434,0.066,0.733,0.1,0.9l0.101,0.55c-0.101,0-0.184,0-0.25,0
		c-0.033-0.233-0.066-0.45-0.101-0.65c-0.066-0.333-0.35-0.55-0.85-0.65c0-0.133-0.017-0.283-0.05-0.45
		C108.2,10.783,108.2,10.717,108.2,10.65z M108.35,22.2l-0.05-0.851l0.05,0.15l0.25,0.25c0.034,0.033,0.2,0.1,0.5,0.2
		c0.167,0.1,0.267,0.166,0.301,0.2l0.149,4c0.033,0.5,0.033,0.866,0,1.1c0,0.2-0.017,0.366-0.05,0.5
		c-0.134-0.1-0.267-0.184-0.4-0.25l0.101-0.1l0.05-1.4c0-1.566-0.033-2.6-0.1-3.1C109.116,22.5,108.85,22.267,108.35,22.2z
		 M116.05,18.15c0.286,0.191,0.562,0.291,0.825,0.3c-0.092,0-0.167,0-0.225,0C116.45,18.417,116.25,18.317,116.05,18.15z
		 M63.3,27.475c-0.018-0.007-0.035-0.016-0.05-0.024L63.2,27.4c-0.067-0.067-0.133-0.134-0.2-0.2c0.267-0.2,0.5-0.3,0.7-0.3
		l0.35-0.5l-0.1-1.7c-0.167-1.7-0.367-2.967-0.6-3.8c-0.1-0.433-0.5-0.683-1.2-0.75c-0.03-0.211-0.064-0.428-0.1-0.65v-0.05
		c0.034,0,0.067,0,0.1,0l0.25,0.15c0.2,0.1,0.467,0.15,0.8,0.15c0.233,0,0.367,0.067,0.4,0.2c0.066,0.533,0.117,0.883,0.15,1.05
		l0.4,1.85c0.133,0.9,0.233,1.567,0.3,2c0.1,0.601,0.15,1.051,0.15,1.351c0.033,0.533-0.083,0.916-0.35,1.149
		c-0.233,0.067-0.4,0.117-0.5,0.15C63.658,27.53,63.508,27.522,63.3,27.475z M70.4,13.75v1.55l-0.1-1.55
		C70.333,13.75,70.367,13.75,70.4,13.75z M72.5,23.35c-0.1,0.233-0.25,0.4-0.45,0.5c-0.3,0.067-0.517,0.117-0.65,0.15
		c-0.167,0-0.383-0.066-0.65-0.2c0.379,0.298,0.737,0.456,1.075,0.476c-0.327-0.008-0.652-0.133-0.975-0.375L70.5,23.6
		c0.4-0.199,0.717-0.283,0.95-0.25l0.35-0.3c0.1,0.066,0.2,0.117,0.3,0.15L72.5,23.35z M76.4,23.65L76.9,24
		c0.2,0.134,0.517,0.233,0.95,0.3c0.233,0,0.383,0.084,0.45,0.25c0,0.634,0.017,1.05,0.05,1.25c0.1,0.934,0.167,1.634,0.2,2.101
		c0.034,0.267,0.05,1.05,0.05,2.35c0.033,0.434,0.05,0.8,0.05,1.1c0,0.167,0,0.317,0,0.45c-0.066,0.566-0.267,0.967-0.6,1.2
		c-0.3,0.066-0.5,0.116-0.6,0.15H77.4c-0.252-0.095-0.444-0.145-0.575-0.15H76.8l-0.3-0.3c0.1-0.033,0.183-0.066,0.25-0.101
		c0.3-0.133,0.533-0.183,0.7-0.149l0.5-0.5l0.1-1.95c0-2.2-0.066-3.667-0.2-4.4c-0.067-0.5-0.517-0.833-1.35-1h-0.05l-0.05-0.75
		V23.65z M82.4,28.05c-0.067-0.066-0.134-0.133-0.2-0.2c0.3-0.133,0.55-0.183,0.75-0.149l0.399-0.4l0.15-1.5
		c0.1-1.733,0.116-2.883,0.05-3.45c0-0.133-0.033-0.233-0.1-0.3c0.1-0.233,0.184-0.45,0.25-0.649c0.133,0.066,0.2,0.116,0.2,0.149
		L84,24.2c0.033,0.399,0.017,1-0.05,1.8c0,0.566-0.017,0.983-0.05,1.25c-0.067,0.434-0.233,0.733-0.5,0.9
		c-0.267,0.033-0.45,0.066-0.551,0.1C82.65,28.15,82.5,28.083,82.4,28.05z M90.4,15.5l0.35,0.35c0.233,0.1,0.483,0.183,0.75,0.25
		c0.2,0,0.333,0.083,0.4,0.25l0.25,5c-0.167,0.367-0.301,0.65-0.4,0.851c-0.033,0.1-0.066,0.184-0.1,0.25l0.05-1.15
		c0-2-0.05-3.333-0.15-4c-0.099-0.529-0.457-0.829-1.075-0.9H90.45V16l-0.05-0.35V15.5z M91.4,23.35
		c-0.034,0.267-0.034,0.534,0,0.801c-0.101,0-0.184,0.017-0.25,0.05c-0.2-0.101-0.351-0.15-0.45-0.15L90.65,24
		c-0.034-0.066-0.084-0.134-0.15-0.2c0.267-0.2,0.5-0.283,0.7-0.25L91.4,23.35z M95.9,34c-0.134-0.066-0.267-0.15-0.4-0.25h0.05
		c0.367-0.167,0.667-0.25,0.9-0.25l0.5-0.35l0.1-1.5c0-1.7-0.066-2.817-0.2-3.351c-0.066-0.467-0.517-0.733-1.35-0.8h-0.05
		l-0.05-0.7c0.033,0,0.066,0,0.1,0l0.4,0.25c0.133,0.066,0.449,0.134,0.949,0.2c0.233,0,0.384,0.066,0.45,0.2
		c0,0.467,0.017,0.783,0.05,0.95c0.101,0.733,0.167,1.283,0.2,1.649c0.033,0.2,0.05,0.8,0.05,1.8c0.034,0.534,0.051,0.934,0.051,1.2
		c-0.067,0.434-0.267,0.733-0.601,0.9c-0.133,0.066-0.35,0.1-0.649,0.1c-0.034,0-0.25-0.05-0.65-0.149
		C95.816,33.934,95.866,33.967,95.9,34z M70.4,15.3l0.5,0.35c0.133,0.1,0.45,0.184,0.95,0.25c-0.033,0.033-0.067,0.083-0.1,0.15
		v0.05c-0.01,0.014-0.019,0.031-0.025,0.05c-0.064,0.108-0.122,0.241-0.175,0.4c-0.267-0.2-0.617-0.316-1.05-0.35h-0.05L70.4,15.3z
		 M64.25,27.75c-0.247,0.062-0.522-0.005-0.825-0.2c0.334,0.177,0.618,0.235,0.85,0.175L64.25,27.75z M76.35,22.45V22.3l0.05,0.15
		v0.399l-0.05-0.3V22.45z M52.45,10.45v-0.3L52.4,10l0.35,0.2c0.1,0.066,0.317,0.133,0.65,0.2c0.067,0,0.117,0,0.15,0
		c0.1,0.033,0.167,0.083,0.2,0.15c-0.467,0-0.9,0-1.3,0V10.45z M52.6,15.5c-0.05-0.033-0.1-0.067-0.15-0.1h0.05
		c0.233-0.133,0.433-0.183,0.6-0.15l0.35-0.3l0.1-1.15c0-1.333-0.05-2.2-0.15-2.6c-0.033-0.233-0.183-0.4-0.45-0.5
		c0.267,0,0.533,0,0.8,0l0.2,3.2c0.033,0.434,0.033,0.75,0,0.95c-0.034,0.333-0.167,0.566-0.4,0.7c-0.1,0.067-0.267,0.1-0.5,0.1
		L52.6,15.5z M44.55,24.25l-0.1,0.7l0.3,0.3c0.1,0.1,0.3,0.184,0.6,0.25c0.167,0.1,0.267,0.184,0.3,0.25
		c-0.033,0.533-0.05,0.884-0.05,1.05l0.05,1.75c0.033,0.434,0.017,1.084-0.05,1.95c0,0.566-0.017,1-0.05,1.3
		c-0.066,0.467-0.216,0.783-0.45,0.95c-0.067,0.066-0.2,0.1-0.4,0.1c-0.133,0-0.267-0.066-0.4-0.199
		c0.061,0.122,0.136,0.23,0.225,0.324c-0.058-0.058-0.117-0.116-0.175-0.175l-0.2-0.3c0.267-0.167,0.467-0.233,0.6-0.2L45.1,31.9
		l0.15-1.601c0.1-1.833,0.117-3.05,0.05-3.649c0-0.534-0.267-0.834-0.8-0.9h-0.05v-0.8l0.05-0.7H44.55z M34.5,19.7
		c-0.033-0.034-0.067-0.067-0.1-0.1c0.2-0.133,0.367-0.184,0.5-0.15l0.3-0.3l0.05-1c0-1.167-0.033-1.933-0.1-2.3
		c-0.033-0.3-0.3-0.483-0.8-0.55l-0.05-0.6l0.05,0.1L34.6,15c0.1,0.067,0.267,0.117,0.5,0.15c0.167,0,0.267,0.05,0.3,0.15v0.65
		l0.15,1.1v1.2c0.034,0.4,0.034,0.683,0,0.85c0,0.3-0.1,0.517-0.3,0.65l-0.4,0.05L34.5,19.7z"/>
	<path style="fill-rule:evenodd;clip-rule:evenodd;fill:#D4C291;" d="M126.5,25.775l-0.15-0.176l0.15-2.55
		c0.066-0.866,0.05-2.6-0.05-5.2c0.733,0.167,1.116,0.5,1.149,1c0.101,0.7,0.15,2.117,0.15,4.25l-0.1,1.9l-0.4,0.5
		c-0.2-0.066-0.45,0.017-0.75,0.25V25.775z M120.55,24.35c0.634,0.134,0.95,0.417,0.95,0.851c0.1,0.8,0.066,1.916-0.1,3.35L121.2,30
		l-0.4,0.35c-0.166-0.033-0.383,0.017-0.649,0.15L120,30.35l0.3-1.949C120.4,27.566,120.483,26.217,120.55,24.35z M127.475,26.5
		c0.078-0.002,0.162-0.019,0.25-0.05c-0.017,0.016-0.024,0.032-0.024,0.05C127.638,26.5,127.563,26.5,127.475,26.5z M115.5,17.7
		l-0.15-0.15l0.2-2.6c0.066-1.167,0.05-2.95-0.05-5.35c0.833,0.167,1.283,0.5,1.35,1c0.134,0.733,0.2,2.2,0.2,4.4l-0.1,1.95
		l-0.5,0.5C116.217,17.417,115.9,17.5,115.5,17.7z M108.4,12.7c-0.034-0.434-0.084-0.9-0.15-1.4c0.5,0.1,0.783,0.317,0.85,0.65
		c0.034,0.2,0.067,0.417,0.101,0.65c-0.233-0.033-0.467-0.017-0.7,0.05C108.467,12.65,108.434,12.667,108.4,12.7z M108.975,27.45
		c-0.206-0.144-0.414-0.26-0.625-0.351l0.051-1.149c0.033-0.767,0.017-2.017-0.051-3.75c0.5,0.066,0.767,0.3,0.801,0.7
		c0.066,0.5,0.1,1.533,0.1,3.1l-0.05,1.4l-0.101,0.1h-0.05C109.028,27.483,109.003,27.467,108.975,27.45z M82.2,27.85l-0.101-0.1
		l0.2-2.05c0.066-0.634,0.134-1.55,0.2-2.75c0.4-0.233,0.684-0.5,0.85-0.8c0.034-0.034,0.067-0.067,0.101-0.101
		c0.066,0.066,0.1,0.167,0.1,0.3c0.066,0.567,0.05,1.717-0.05,3.45l-0.15,1.5l-0.399,0.4C82.75,27.667,82.5,27.717,82.2,27.85z
		 M91.65,22.45c-0.134,0.3-0.217,0.6-0.25,0.899l-0.2,0.2c-0.2-0.033-0.434,0.05-0.7,0.25c0.066,0.066,0.116,0.134,0.15,0.2
		l0.05,0.05c0.242,0.242,0.467,0.393,0.675,0.45c-0.205-0.052-0.414-0.169-0.625-0.35l-0.4-0.5l0.15-2.4
		c0.063-0.791,0.055-2.407-0.025-4.85c0.618,0.071,0.977,0.371,1.075,0.9c0.101,0.667,0.15,2,0.15,4L91.65,22.45z M95.55,33.75
		l-0.2-0.15l0.2-2c0.066-0.866,0.05-2.233-0.05-4.1c0.833,0.066,1.283,0.333,1.35,0.8c0.134,0.533,0.2,1.65,0.2,3.351l-0.1,1.5
		l-0.5,0.35C96.217,33.5,95.917,33.583,95.55,33.75z M70.6,19c-0.033-0.8-0.067-1.733-0.1-2.8c0.433,0.033,0.783,0.15,1.05,0.35
		c-0.3,0.633-0.583,1.317-0.85,2.05C70.667,18.733,70.633,18.867,70.6,19z M63,27.2L62.9,27.1l-0.15-2.3
		c-0.061-0.971-0.261-2.521-0.6-4.65c0.7,0.067,1.1,0.317,1.2,0.75c0.233,0.833,0.433,2.1,0.6,3.8l0.1,1.7l-0.35,0.5
		C63.5,26.9,63.267,27,63,27.2z M71.8,23.05l-0.35,0.3c-0.233-0.033-0.55,0.051-0.95,0.25l-0.15-0.149l0.2-1.9
		C70.717,22.217,71.133,22.717,71.8,23.05z M71.825,24.275c0.067-0.004,0.133-0.013,0.2-0.025c-0.026,0.01-0.051,0.026-0.075,0.05
		c-0.333,0.033-0.684-0.083-1.05-0.35l-0.05-0.05C71.173,24.143,71.498,24.268,71.825,24.275z M76.5,32.7l-0.15-0.15l0.2-2.6
		C76.617,28.783,76.6,27,76.5,24.6c0.833,0.167,1.283,0.5,1.35,1c0.133,0.733,0.2,2.2,0.2,4.4l-0.1,1.95l-0.5,0.5
		c-0.167-0.033-0.4,0.017-0.7,0.149C76.683,32.634,76.6,32.667,76.5,32.7z M52.5,15.4l-0.15-0.1l0.15-1.55
		c0.033-0.733,0.017-1.75-0.05-3.05c0.167,0,0.333,0,0.5,0c0.267,0.1,0.417,0.267,0.45,0.5c0.1,0.4,0.15,1.267,0.15,2.6l-0.1,1.15
		l-0.35,0.3C52.933,15.217,52.733,15.267,52.5,15.4z M44.15,32.5l-0.1-0.15L44.3,30.2c0.1-0.934,0.167-2.417,0.2-4.45
		c0.533,0.066,0.8,0.366,0.8,0.9c0.067,0.6,0.05,1.816-0.05,3.649L45.1,31.9L44.75,32.3C44.617,32.267,44.417,32.333,44.15,32.5z
		 M34.4,19.6l-0.1-0.1l0.1-1.4c0.033-0.567,0.017-1.5-0.05-2.8c0.5,0.067,0.767,0.25,0.8,0.55c0.067,0.367,0.1,1.133,0.1,2.3
		l-0.05,1l-0.3,0.3C34.767,19.417,34.6,19.467,34.4,19.6z"/>
	<linearGradient id="SVGID_2_" gradientUnits="userSpaceOnUse" x1="126.5996" y1="25.4961" x2="129.9996" y2="25.4961">
		<stop  offset="0" style="stop-color:#000000;stop-opacity:0.2"/>
		<stop  offset="1" style="stop-color:#000000;stop-opacity:0.2"/>
	</linearGradient>
	<path style="fill-rule:evenodd;clip-rule:evenodd;fill:url(#SVGID_2_);" d="M127.7,26.5c0-0.018,0.008-0.034,0.024-0.05h0.025
		l0.7-0.25v-1.8c0.166-0.034,0.366-0.034,0.6,0l0.05,0.25c0.134,0.033,0.284,0.149,0.45,0.35c0.167,0.233,0.316,0.333,0.45,0.3
		c-0.066,0.434-0.184,0.733-0.35,0.9c-0.233,0.333-0.7,0.467-1.4,0.399C128.05,26.566,127.866,26.533,127.7,26.5z"/>
	<linearGradient id="SVGID_3_" gradientUnits="userSpaceOnUse" x1="131.4121" y1="24.748" x2="138.5871" y2="24.748">
		<stop  offset="0" style="stop-color:#000000;stop-opacity:0.2"/>
		<stop  offset="1" style="stop-color:#000000;stop-opacity:0.2"/>
	</linearGradient>
	<path style="fill-rule:evenodd;clip-rule:evenodd;fill:url(#SVGID_3_);" d="M132.35,23.9c0.2,0.1,0.417,0.183,0.65,0.25
		c0.167,0.066,0.35,0.116,0.55,0.149c0.033,0.367,0.2,0.634,0.5,0.8c0.434,0.233,0.95,0.25,1.55,0.051
		c0.767-0.233,1.25-0.584,1.45-1.051c0.3-0.1,0.584-0.216,0.851-0.35c0.199,0,0.433,0.017,0.699,0.05
		c0.167,1.134-0.8,1.767-2.899,1.9c-1.8,0.133-3.233-0.017-4.3-0.45c0-0.533,0.283-0.967,0.85-1.3
		C132.283,23.917,132.316,23.9,132.35,23.9z"/>
	<path style="fill-rule:evenodd;clip-rule:evenodd;fill:#AC9C73;" d="M133.55,24.3c0.8,0.2,1.684,0.2,2.65,0
		c0.3-0.066,0.583-0.133,0.85-0.2c-0.2,0.467-0.684,0.817-1.45,1.051c-0.6,0.199-1.116,0.183-1.55-0.051
		C133.75,24.934,133.583,24.667,133.55,24.3z M107.85,30.8c-0.033,0.5-0.116,0.983-0.25,1.45c-0.666,0.167-1.283,0.05-1.85-0.35
		c-0.434-0.301-0.717-0.667-0.85-1.101c0.866,0.2,1.8,0.2,2.8,0C107.733,30.8,107.783,30.8,107.85,30.8z M52.05,27.1
		c-0.2,1.067-0.85,1.517-1.95,1.351c-0.867-0.101-1.333-0.384-1.4-0.851c-0.034-0.233,0-0.483,0.1-0.75
		c0.067,0,0.133,0.017,0.2,0.051C49.933,27.233,50.95,27.3,52.05,27.1z M57.5,31.35c-0.067,0.233-0.117,0.4-0.15,0.5
		c-0.233,0.534-0.733,0.767-1.5,0.7c-0.6-0.066-1.033-0.316-1.3-0.75c-0.1-0.166-0.167-0.333-0.2-0.5
		C55.283,31.533,56.333,31.55,57.5,31.35z M23.4,25.8c-0.3,0.667-0.833,0.967-1.6,0.9c-0.6-0.066-1.066-0.316-1.4-0.75
		c0.733,0.166,1.533,0.166,2.4,0C23,25.917,23.2,25.866,23.4,25.8z M33.65,22.5v0.05c0,0.4-0.017,0.684-0.05,0.851
		c-0.167,0.666-0.583,1.05-1.25,1.149c-0.567,0.101-1.083-0.083-1.55-0.55c-0.233-0.233-0.4-0.483-0.5-0.75
		c-0.066-0.134-0.117-0.25-0.15-0.35c0.733,0.1,1.5,0.066,2.3-0.101C32.883,22.733,33.283,22.634,33.65,22.5z"/>
	
		<linearGradient id="SVGID_4_" gradientUnits="userSpaceOnUse" x1="122.0771" y1="21.5068" x2="125.1853" y2="21.5068" gradientTransform="matrix(0.9974 0.0724 -0.0724 0.9974 -2.656728e-004 1.394749e-004)">
		<stop  offset="0" style="stop-color:#000000;stop-opacity:0.2"/>
		<stop  offset="1" style="stop-color:#000000;stop-opacity:0.2"/>
	</linearGradient>
	<path style="fill-rule:evenodd;clip-rule:evenodd;fill:url(#SVGID_4_);" d="M123.3,30.4l-0.35,0.649
		c-0.233,0.233-0.667,0.3-1.3,0.2c-0.134-0.033-0.284-0.083-0.45-0.15l0.649-0.1l0.101-1.45c0.166,0,0.35,0.017,0.55,0.05v0.2
		c0.134,0.033,0.267,0.134,0.4,0.3C123.066,30.3,123.2,30.4,123.3,30.4z"/>
	<linearGradient id="SVGID_5_" gradientUnits="userSpaceOnUse" x1="95.6377" y1="33.5283" x2="99.7627" y2="33.5283">
		<stop  offset="0" style="stop-color:#000000;stop-opacity:0.2"/>
		<stop  offset="1" style="stop-color:#000000;stop-opacity:0.2"/>
	</linearGradient>
	<path style="fill-rule:evenodd;clip-rule:evenodd;fill:url(#SVGID_5_);" d="M97.05,34.3l0.8-0.2V32.65c0.2,0,0.45,0,0.75,0
		l0.051,0.25c0.166,0,0.35,0.083,0.55,0.25c0.2,0.166,0.383,0.25,0.55,0.25c-0.1,0.333-0.233,0.566-0.4,0.699
		c-0.3,0.233-0.883,0.334-1.75,0.301C97.4,34.4,97.217,34.366,97.05,34.3z"/>
	
		<linearGradient id="SVGID_6_" gradientUnits="userSpaceOnUse" x1="83.4971" y1="23.7119" x2="86.7505" y2="23.7119" gradientTransform="matrix(0.9989 0.0475 -0.0475 0.9989 8.628145e-005 7.086992e-005)">
		<stop  offset="0" style="stop-color:#000000;stop-opacity:0.2"/>
		<stop  offset="1" style="stop-color:#000000;stop-opacity:0.2"/>
	</linearGradient>
	<path style="fill-rule:evenodd;clip-rule:evenodd;fill:url(#SVGID_6_);" d="M84.1,26.85c0.167,0,0.367,0.017,0.601,0.051V27.1
		c0.133,0.034,0.283,0.134,0.45,0.301c0.133,0.199,0.267,0.3,0.399,0.3c-0.1,0.333-0.217,0.566-0.35,0.7
		c-0.233,0.233-0.684,0.3-1.351,0.199c-0.199-0.033-0.366-0.066-0.5-0.1l0.7-0.15L84.1,26.85z"/>
	<linearGradient id="SVGID_7_" gradientUnits="userSpaceOnUse" x1="108.4502" y1="27.7129" x2="110.7502" y2="27.7129">
		<stop  offset="0" style="stop-color:#000000;stop-opacity:0.2"/>
		<stop  offset="1" style="stop-color:#000000;stop-opacity:0.2"/>
	</linearGradient>
	<path style="fill-rule:evenodd;clip-rule:evenodd;fill:url(#SVGID_7_);" d="M109.7,26.95c0.1-0.033,0.233-0.033,0.399,0l0.051,0.2
		c0.066,0,0.166,0.083,0.3,0.25c0.1,0.166,0.2,0.233,0.3,0.199c-0.066,0.301-0.134,0.517-0.2,0.65c-0.066,0.1-0.149,0.184-0.25,0.25
		c-0.2-0.167-0.333-0.316-0.399-0.45c-0.067-0.066-0.134-0.116-0.2-0.149V26.95z"/>
	<linearGradient id="SVGID_8_" gradientUnits="userSpaceOnUse" x1="103.1377" y1="31.0078" x2="111.6627" y2="31.0078">
		<stop  offset="0" style="stop-color:#000000;stop-opacity:0.2"/>
		<stop  offset="1" style="stop-color:#000000;stop-opacity:0.2"/>
	</linearGradient>
	<path style="fill-rule:evenodd;clip-rule:evenodd;fill:url(#SVGID_8_);" d="M104.9,30.8c0.133,0.434,0.416,0.8,0.85,1.101
		c0.566,0.399,1.184,0.517,1.85,0.35c0.134-0.467,0.217-0.95,0.25-1.45c1.067-0.233,1.817-0.6,2.25-1.1
		c0.134-0.134,0.25-0.267,0.351-0.4c0.666,0.2,1.066,0.517,1.2,0.95c0.133,0.5-0.067,0.983-0.601,1.45
		c-0.399,0.366-0.85,0.616-1.35,0.75c-1.601,0.467-3.783,0.316-6.55-0.45c0.1-0.4,0.35-0.783,0.75-1.15
		c0.133-0.1,0.267-0.183,0.399-0.25c0.066,0,0.134,0.017,0.2,0.051C104.634,30.684,104.767,30.733,104.9,30.8z"/>
	<linearGradient id="SVGID_9_" gradientUnits="userSpaceOnUse" x1="70.6377" y1="23.9336" x2="74.7627" y2="23.9336">
		<stop  offset="0" style="stop-color:#000000;stop-opacity:0.2"/>
		<stop  offset="1" style="stop-color:#000000;stop-opacity:0.2"/>
	</linearGradient>
	<path style="fill-rule:evenodd;clip-rule:evenodd;fill:url(#SVGID_9_);" d="M74.6,23.7c-0.067,0.133-0.15,0.25-0.25,0.35
		c-0.3,0.3-0.883,0.417-1.75,0.351c-0.233-0.034-0.45-0.067-0.65-0.101c0.023-0.023,0.048-0.04,0.075-0.05h0.025l0.8-0.2v-0.6
		c0.033,0,0.066,0,0.1,0C73.483,23.55,74.033,23.634,74.6,23.7z"/>
	<linearGradient id="SVGID_10_" gradientUnits="userSpaceOnUse" x1="52.5625" y1="15.229" x2="55.4375" y2="15.229">
		<stop  offset="0" style="stop-color:#000000;stop-opacity:0.2"/>
		<stop  offset="1" style="stop-color:#000000;stop-opacity:0.2"/>
	</linearGradient>
	<path style="fill-rule:evenodd;clip-rule:evenodd;fill:url(#SVGID_10_);" d="M54.1,14.55c0.133,0,0.316,0,0.55,0v0.2
		c0.133,0,0.267,0.067,0.4,0.2c0.167,0.133,0.3,0.2,0.4,0.2c-0.067,0.233-0.167,0.417-0.3,0.55c-0.2,0.167-0.6,0.233-1.2,0.2
		c-0.1,0-0.233-0.033-0.4-0.1l0.55-0.1V14.55z"/>
	<linearGradient id="SVGID_11_" gradientUnits="userSpaceOnUse" x1="47.5972" y1="29.8027" x2="61.8972" y2="29.8027">
		<stop  offset="0" style="stop-color:#000000;stop-opacity:0.2"/>
		<stop  offset="1" style="stop-color:#000000;stop-opacity:0.2"/>
	</linearGradient>
	<path style="fill-rule:evenodd;clip-rule:evenodd;fill:url(#SVGID_11_);" d="M48.7,27.6c0.066,0.467,0.533,0.75,1.4,0.851
		c1.1,0.166,1.75-0.283,1.95-1.351c0.034-0.033,0.083-0.05,0.15-0.05c0.2-0.033,0.4-0.066,0.6-0.1
		c-0.066,0.033-0.117,0.066-0.15,0.1c-0.533,0.7-0.883,1.134-1.05,1.3c-0.2,0.134-0.283,0.334-0.25,0.601
		c0.033,0.333,0.2,0.666,0.5,1c0.433,0.467,1,0.816,1.7,1.05c0.267,0.1,0.534,0.2,0.8,0.3c0.033,0.167,0.1,0.334,0.2,0.5
		c0.267,0.434,0.7,0.684,1.3,0.75c0.767,0.066,1.267-0.166,1.5-0.7c0.033-0.1,0.083-0.267,0.15-0.5c0-0.033,0.017-0.05,0.05-0.05
		c1.4-0.3,2.383-0.816,2.95-1.55c0.333-0.366,0.517-0.684,0.55-0.95c1.034,0.367,1.15,1.117,0.35,2.25
		c-0.767,1.134-2.6,1.667-5.5,1.601c-2.933-0.067-4.3-0.851-4.1-2.351c-0.8-0.033-1.583-0.149-2.35-0.35
		c-1.167-0.3-1.784-0.684-1.85-1.15c-0.033-0.5,0.217-0.866,0.75-1.1C48.45,27.634,48.567,27.6,48.7,27.6z"/>
	
		<linearGradient id="SVGID_12_" gradientUnits="userSpaceOnUse" x1="45.7207" y1="30.1309" x2="48.3487" y2="30.1309" gradientTransform="matrix(0.9989 0.0476 -0.0476 0.9989 -1.547821e-004 -4.362464e-004)">
		<stop  offset="0" style="stop-color:#000000;stop-opacity:0.2"/>
		<stop  offset="1" style="stop-color:#000000;stop-opacity:0.2"/>
	</linearGradient>
	<path style="fill-rule:evenodd;clip-rule:evenodd;fill:url(#SVGID_12_);" d="M45.75,31.4c0.133,0,0.283,0.017,0.45,0.05v0.2
		c0.1,0.033,0.216,0.133,0.35,0.3c0.1,0.2,0.217,0.3,0.35,0.3c-0.1,0.366-0.2,0.616-0.3,0.75c-0.2,0.267-0.583,0.35-1.15,0.25
		c-0.133-0.033-0.25-0.083-0.35-0.15l0.55-0.149L45.75,31.4z"/>
	<linearGradient id="SVGID_13_" gradientUnits="userSpaceOnUse" x1="76.6377" y1="32.4707" x2="80.7627" y2="32.4707">
		<stop  offset="0" style="stop-color:#000000;stop-opacity:0.2"/>
		<stop  offset="1" style="stop-color:#000000;stop-opacity:0.2"/>
	</linearGradient>
	<path style="fill-rule:evenodd;clip-rule:evenodd;fill:url(#SVGID_13_);" d="M77.9,33.45c0.033-0.033,0.083-0.05,0.15-0.05l0.8-0.2
		V31.35c0.2-0.033,0.45-0.033,0.75,0l0.05,0.25c0.167,0.034,0.35,0.15,0.55,0.351c0.2,0.233,0.383,0.35,0.55,0.35
		c-0.1,0.4-0.233,0.7-0.4,0.9c-0.3,0.333-0.883,0.467-1.75,0.399C78.333,33.566,78.1,33.517,77.9,33.45z"/>
	
		<linearGradient id="SVGID_14_" gradientUnits="userSpaceOnUse" x1="59.5591" y1="34.0322" x2="62.8555" y2="34.0322" gradientTransform="matrix(0.9934 -0.1146 0.1146 0.9934 1.071543e-004 5.543232e-005)">
		<stop  offset="0" style="stop-color:#000000;stop-opacity:0.2"/>
		<stop  offset="1" style="stop-color:#000000;stop-opacity:0.2"/>
	</linearGradient>
	<path style="fill-rule:evenodd;clip-rule:evenodd;fill:url(#SVGID_14_);" d="M64.25,27.75l0.025-0.025L64.3,27.7l0.65-0.3
		l-0.2-1.601c0.167-0.033,0.367-0.05,0.6-0.05l0.05,0.2c0.133,0,0.3,0.083,0.5,0.25c0.167,0.2,0.317,0.283,0.45,0.25
		c-0.033,0.399-0.117,0.684-0.25,0.85c-0.2,0.3-0.633,0.45-1.3,0.45C64.6,27.783,64.417,27.783,64.25,27.75z"/>
	<linearGradient id="SVGID_15_" gradientUnits="userSpaceOnUse" x1="29.1748" y1="23.7207" x2="35.4248" y2="23.7207">
		<stop  offset="0" style="stop-color:#000000;stop-opacity:0.2"/>
		<stop  offset="1" style="stop-color:#000000;stop-opacity:0.2"/>
	</linearGradient>
	<path style="fill-rule:evenodd;clip-rule:evenodd;fill:url(#SVGID_15_);" d="M30.3,23.25c0.1,0.267,0.267,0.517,0.5,0.75
		c0.467,0.467,0.983,0.65,1.55,0.55c0.667-0.1,1.083-0.483,1.25-1.149c0.033-0.167,0.05-0.45,0.05-0.851h1.7
		c0.333,1.334-0.417,2.101-2.25,2.3c-1.567,0.134-2.883-0.05-3.95-0.55C29.383,23.7,29.767,23.35,30.3,23.25z"/>
	<linearGradient id="SVGID_16_" gradientUnits="userSpaceOnUse" x1="34.4502" y1="19.4287" x2="36.7502" y2="19.4287">
		<stop  offset="0" style="stop-color:#000000;stop-opacity:0.2"/>
		<stop  offset="1" style="stop-color:#000000;stop-opacity:0.2"/>
	</linearGradient>
	<path style="fill-rule:evenodd;clip-rule:evenodd;fill:url(#SVGID_16_);" d="M35.7,18.8c0.1,0,0.233,0.017,0.4,0.05L36.15,19
		c0.067,0,0.167,0.067,0.3,0.2c0.1,0.1,0.2,0.15,0.3,0.15c-0.067,0.233-0.133,0.4-0.2,0.5c-0.167,0.167-0.5,0.233-1,0.2
		c-0.1,0-0.2-0.033-0.3-0.1l0.45-0.1V18.8z"/>
	<linearGradient id="SVGID_17_" gradientUnits="userSpaceOnUse" x1="19.1875" y1="26.3945" x2="25.1125" y2="26.3945">
		<stop  offset="0" style="stop-color:#000000;stop-opacity:0.2"/>
		<stop  offset="1" style="stop-color:#000000;stop-opacity:0.2"/>
	</linearGradient>
	<path style="fill-rule:evenodd;clip-rule:evenodd;fill:url(#SVGID_17_);" d="M20.4,25.95c0.333,0.434,0.8,0.684,1.4,0.75
		c0.767,0.066,1.3-0.233,1.6-0.9c0.5-0.133,0.9-0.3,1.2-0.5c0.167,0.134,0.3,0.283,0.4,0.45c0.3,0.6-0.067,1.116-1.1,1.55
		c-0.533,0.233-1.333,0.25-2.4,0.05c-1.167-0.3-1.95-0.5-2.35-0.6c0.1-0.333,0.317-0.634,0.65-0.9c0.034,0,0.067-0.017,0.1-0.05
		C20.067,25.866,20.233,25.917,20.4,25.95z"/>
</g>
</svg>
