<?xml version="1.0" encoding="iso-8859-1"?>
<!-- Generator: Adobe Illustrator 15.1.0, SVG Export Plug-In . SVG Version: 6.00 Build 0)  -->
<!DOCTYPE svg PUBLIC "-//W3C//DTD SVG 1.1//EN" "http://www.w3.org/Graphics/SVG/1.1/DTD/svg11.dtd">
<svg version="1.1" id="FlashAICB" xmlns="http://www.w3.org/2000/svg" xmlns:xlink="http://www.w3.org/1999/xlink" x="0px" y="0px"
	 width="83.4px" height="28.65px" viewBox="0 0 83.4 28.65" style="enable-background:new 0 0 83.4 28.65;" xml:space="preserve">
<path style="fill-rule:evenodd;clip-rule:evenodd;fill:#292F0F;" d="M75.8,20.4c0.066,0,0.134,0.017,0.2,0.05l-0.5,1.25
	C75.6,21.233,75.7,20.8,75.8,20.4z M69.65,23.5c-0.634-0.733-1.284-1.75-1.95-3.05c-0.302-0.604-0.561-1.162-0.775-1.675
	c0.071,0.158,0.146,0.316,0.226,0.475c0.866,1.7,1.716,2.9,2.55,3.6l-0.25-0.1C69.483,23.017,69.55,23.267,69.65,23.5z M70,24.2
	c0.434,0.7,1.083,1.333,1.95,1.899c1.366,0.934,2.7,1.384,4,1.351c0.934-0.033,2.2-0.367,3.8-1c0.066-0.033,0.184-0.066,0.35-0.101
	c0.167,0.367,0.351,0.75,0.551,1.15c-1.733,0.733-3.117,1.116-4.15,1.15c-1.333,0.033-2.684-0.417-4.05-1.351
	C71.083,26.4,70.267,25.366,70,24.2z M34.325,10.95h0.025c1,0.867,2.15,1.683,3.45,2.45l-2.05,0.8c-1.767-0.267-2.767-0.434-3-0.5
	c1.2-0.4,2.083-0.733,2.65-1c-1.1-0.633-2.083-1.3-2.95-2L34.325,10.95z M36.9,14.7c0.4,0.033,0.867,0.083,1.4,0.15
	c0.333,0.033,0.65,0.183,0.95,0.45c-0.333,0.167-0.75,0.467-1.25,0.9C37.633,15.533,37.267,15.033,36.9,14.7z M44.95,17.4
	c-0.066,0-0.15-0.017-0.25-0.051c-1.267-0.267-2.267-0.616-3-1.05c-0.101-0.066-0.184-0.133-0.25-0.2
	c0.366-0.233,0.633-0.333,0.8-0.3c0.267,0.066,0.9,0.467,1.9,1.2C44.384,17.134,44.65,17.267,44.95,17.4z M49.55,12.9
	c0.267,0.033,0.55,0.067,0.851,0.1c1.166,0.167,2.133,0.433,2.899,0.8c-0.166-0.033-0.333-0.066-0.5-0.1
	c-1.233-0.2-2.333-0.267-3.3-0.2C49.467,13.3,49.483,13.1,49.55,12.9z M12.85,7.4C12.917,7.2,13,7.017,13.1,6.85
	c0.267,0.333,0.383,0.816,0.35,1.45c-0.7,1.233-1.25,2.25-1.65,3.05c-0.066-0.4,0.184-1.4,0.75-3
	C12.683,7.983,12.783,7.667,12.85,7.4z M15.15,7.5c0.8,0.233,0.783,1.567-0.05,4c-0.633,0.467-1.167,0.95-1.6,1.45h-0.05
	c0-0.1,0.017-0.184,0.05-0.25c1-2.333,1.55-4.05,1.65-5.15V7.5z M18.75,20.4c0.467,0.466,0.667,0.983,0.6,1.55
	c-0.9,0.066-2.1-0.134-3.6-0.601c-0.867-0.3-1.6-0.517-2.2-0.649c-0.6-0.934-1.25-1.55-1.95-1.851c0.733,0.067,1.933,0.384,3.6,0.95
	c1.466,0.5,2.65,0.717,3.55,0.65V20.4z M14.85,16.9c-0.967-0.567-1.533-1.034-1.7-1.4c0.3-0.066,0.667-0.083,1.1-0.05
	c0.039,0,0.073,0,0.1,0h0.025c0.589,0.01,1.264,0.109,2.025,0.3c0.067,0,0.133,0.017,0.2,0.05c-0.767,0.167-1.517,0.283-2.25,0.351
	c1.933,0.267,2.983,0.416,3.15,0.449c1.1,0.2,2,0.534,2.7,1C19.6,17.7,18.533,17.566,17,17.2C16.167,17,15.45,16.9,14.85,16.9z
	 M9.2,10.5c0.2,0.467,0.4,1,0.6,1.6c-0.033,0.133-0.05,0.25-0.05,0.35C9.583,11.75,9.4,11.1,9.2,10.5z M18.65,12
	c-0.767,0.1-1.517,0.233-2.25,0.4c0.934-0.667,2.05-1.3,3.35-1.9C19.717,10.967,19.35,11.467,18.65,12z M19,13.4
	c0.767-0.167,1.55-0.267,2.35-0.3c-0.333,0.833-1.317,1.55-2.95,2.15c-0.133,0.066-0.267,0.116-0.4,0.15
	c-0.333-0.101-0.683-0.184-1.05-0.25c-0.1-0.034-1.15-0.184-3.15-0.45c1.333-0.1,2.684-0.383,4.05-0.85
	C18.283,13.683,18.667,13.533,19,13.4z M4.55,18.6c0.967,0.067,1.767,0,2.4-0.199C7.117,18.7,7.2,19.267,7.2,20.1v0.051
	c-1.167,0.267-2.8,0.133-4.9-0.4c1.1-0.667,2.083-0.983,2.95-0.95C5.017,18.733,4.783,18.667,4.55,18.6z M7.8,21.45
	c0.5-0.967,0.733-1.667,0.7-2.101c0.167,1.034,0.933,1.983,2.3,2.851c1.3,0.866,2.633,1.383,4,1.55
	c-0.033-0.167-0.066-0.333-0.1-0.5c0.333,0.667,0.566,1.366,0.7,2.1c-1.333-0.133-2.667-0.633-4-1.5c-1.333-0.866-2.1-1.8-2.3-2.8
	c0,0.267-0.083,0.601-0.25,1c-0.033,0.167-0.25,0.634-0.65,1.4c-0.267-0.367-0.4-0.934-0.4-1.7C7.8,21.65,7.8,21.55,7.8,21.45z
	 M1.6,15.95c0.9,0.434,1.933,0.833,3.1,1.2c-0.733-0.034-1.534,0.166-2.4,0.6c-0.133-0.066-0.267-0.134-0.4-0.2
	C0.367,16.783,0.2,16.267,1.4,16C1.467,16,1.533,15.983,1.6,15.95z M1,10.15c0.467,1.167,1.05,2.217,1.75,3.15
	c0.333,0.434,0.683,0.833,1.05,1.2c-0.3-0.033-0.583-0.067-0.85-0.1C2.117,13.167,1.467,11.75,1,10.15z M6.7,12.4
	c0.066,0.133,0.133,0.25,0.2,0.35c-0.066-0.067-0.117-0.117-0.15-0.15C6.717,12.533,6.7,12.467,6.7,12.4z"/>
<path style="fill-rule:evenodd;clip-rule:evenodd;fill:#F0EBD6;" d="M80.1,26.35c-0.166,0.034-0.283,0.067-0.35,0.101
	c-1.6,0.633-2.866,0.967-3.8,1c-1.3,0.033-2.634-0.417-4-1.351C71.083,25.533,70.434,24.9,70,24.2c-0.134-0.233-0.25-0.467-0.35-0.7
	c-0.101-0.233-0.167-0.483-0.2-0.75l0.25,0.1c-0.834-0.699-1.684-1.899-2.55-3.6c-0.079-0.158-0.154-0.316-0.226-0.475
	c-0.042-0.108-0.084-0.217-0.125-0.325c-0.6-1.3-0.983-2.417-1.149-3.351c0.866,0.034,1.816,0.7,2.85,2
	c0.566,0.667,1.333,1.617,2.3,2.851c0.066-0.434-0.05-1.167-0.35-2.2c-0.3-1-0.384-1.8-0.25-2.4c0.566,0.301,1.2,0.9,1.899,1.801
	c0.733,1,1.301,1.633,1.7,1.899c0.834-2.166,1.483-3.767,1.95-4.8c0.6,0.866,0.767,2.083,0.5,3.65
	c-0.134,0.633-0.283,1.466-0.45,2.5c-0.1,0.399-0.2,0.833-0.3,1.3l0.5-1.25l1.7-4.5c0.399,0.633,0.649,1.566,0.75,2.8
	c0.166,1.434,0.316,2.366,0.45,2.8c0.699,0.033,1.583-0.267,2.649-0.899c-0.233,0.666-0.767,1.633-1.6,2.899
	c0.3,0.367,0.833,0.634,1.6,0.8c1.066,0.267,1.684,0.434,1.851,0.5C81.733,25.616,80.634,26.116,80.1,26.35z M73.25,23.9
	c0.066,0.166,0.134,0.267,0.2,0.3s0.149,0.033,0.25,0c0.333,0.2,0.616,0.316,0.85,0.35L74.5,24.7c0.233,0.033,0.583-0.05,1.05-0.25
	c0.434-0.2,0.783-0.267,1.05-0.2l-0.699,0.7c0.399,0,0.916-0.184,1.55-0.55c0.7-0.367,1.1-0.75,1.2-1.15
	C78.417,23.517,78.1,23.767,77.7,24c0.333-0.634,0.399-1.5,0.2-2.6c-0.067-0.367-0.284-1.233-0.65-2.601
	c-0.333,0.7-0.767,1.767-1.3,3.2c-0.733,0.134-1.05-0.4-0.95-1.6c0.033-0.233,0.2-1.084,0.5-2.551c-0.066,0.067-0.3,0.617-0.7,1.65
	c-0.267,0.7-0.616,1-1.05,0.9c-0.134-0.034-0.384-0.351-0.75-0.95c-0.4-0.667-0.65-1.05-0.75-1.15c-0.533-0.399-0.934-0.666-1.2-0.8
	c0.033,0.233,0.184,0.8,0.45,1.7c0.167,0.833,0.05,1.3-0.35,1.399c-0.233,0.067-0.667-0.216-1.301-0.85
	c-1.199-1.1-2.133-1.9-2.8-2.4l3.8,4.45c0.134,0.233,0.284,0.217,0.45-0.05c0.2-0.267,0.351-0.384,0.45-0.35
	c0.4,0.133,0.55,0.683,0.45,1.649c0.133-0.1,0.25-0.2,0.35-0.3v0.15l-0.1,0.1c0.033,0.033,0.066,0.083,0.1,0.15
	c0.033,0.033,0.084,0.083,0.15,0.149c0.033,0.066,0.083,0.134,0.149,0.2C72.95,23.634,73.083,23.767,73.25,23.9z M49.55,12.9
	c-0.066,0.2-0.083,0.4-0.05,0.6c0.967-0.067,2.066,0,3.3,0.2c0.167,0.033,0.334,0.066,0.5,0.1c1.101,0.2,2.017,0.483,2.75,0.85
	c-1.866,0.833-3.733,1.417-5.6,1.75c-0.967,0.166-1.834,0.233-2.601,0.199c0.601,0.667,1.367,1.134,2.301,1.4
	c-0.601,0.333-1.617,0.35-3.051,0.05c-0.833-0.166-1.55-0.383-2.149-0.649c-0.3-0.134-0.566-0.267-0.8-0.4
	c-1-0.733-1.634-1.134-1.9-1.2c-0.167-0.033-0.434,0.066-0.8,0.3c-0.3,0.167-0.633,0.417-1,0.75c-0.4-0.733-0.8-1.25-1.2-1.55
	c-0.3-0.267-0.617-0.417-0.95-0.45c-0.533-0.067-1-0.117-1.4-0.15c-0.967-0.133-1.55-0.233-1.75-0.3l0.6-0.2l2.05-0.8
	c-1.3-0.767-2.45-1.583-3.45-2.45h-0.025c-0.025-0.009-0.05-0.025-0.075-0.05c-0.733-0.633-1.767-1.667-3.1-3.1
	c2.2-0.1,4.35,0.733,6.45,2.5c-0.967-3.433-1.733-5.75-2.3-6.95c0.4,0.533,0.9,1.383,1.5,2.55c0.6,0.9,1.383,1.367,2.35,1.4
	c-0.367-1.466-0.583-2.417-0.65-2.85c-0.133-1.034-0.033-1.983,0.3-2.85c0.267,0.6,0.6,1.55,1,2.85c0.4,1.133,0.867,2,1.4,2.6
	c0.233-3.1,0.333-5.45,0.3-7.05c0.467,1.367,1.217,3.4,2.25,6.1c0.066-0.8,0.5-1.717,1.3-2.75c0.767-1.033,1.517-1.684,2.25-1.95
	c-0.733,1.633-1.2,2.75-1.399,3.35c-0.434,1.567-0.351,2.717,0.25,3.45C45.583,8.667,45,9.233,44.4,9.9
	c-0.034-0.367,0-1.05,0.1-2.05c0.1-0.867,0.1-1.533,0-2l-0.8,2.2c-0.233-0.267-0.417-0.65-0.55-1.15
	c-0.134-0.566-0.233-0.983-0.301-1.25C42.95,6.483,42.884,7.7,42.65,9.3c-0.034-0.033-0.45-0.65-1.25-1.85
	c0.066,0.767,0.066,1.283,0,1.55c-0.134,0-0.634-0.2-1.5-0.6c0.033,0.1,0.117,0.35,0.25,0.75c0.1,0.3,0.15,0.55,0.15,0.75
	c-0.233-0.033-0.7-0.217-1.4-0.55c0.1,0.367,0.3,0.933,0.6,1.7c-0.467-0.1-0.833-0.167-1.1-0.2c-0.433-0.033-0.767-0.017-1,0.05
	c0.233,0.133,0.633,0.267,1.2,0.4c0.467,0.133,0.683,0.417,0.65,0.85c0.133-0.1,0.367-0.183,0.7-0.25c0,0.133,0.066,0.4,0.2,0.8
	c0.467-0.2,0.733,0,0.8,0.6c0.333-0.2,0.684-0.283,1.05-0.25c0,0.034,0.017,0.067,0.05,0.1c0.066,0.333,0.283,0.533,0.65,0.6
	c0.233,0.233,0.434,0.483,0.6,0.75l0.15-0.6c0.133,0.033,0.233,0.083,0.3,0.15l0.8,0.6c1.066,0.433,2.367,0.633,3.9,0.6
	c1.5-0.066,2.8-0.35,3.899-0.85c-1.366,0-2.483-0.017-3.35-0.05c-1.6-0.1-2.517-0.467-2.75-1.1c0.866-0.533,1.533-1.067,2-1.6
	c-1.167,0.467-2.05,0.783-2.65,0.95c-0.133-0.367,0.351-0.95,1.45-1.75c1.267-0.867,1.967-1.467,2.101-1.8
	c-0.7,0.434-1.25,0.7-1.65,0.8c0-0.333,0.167-0.833,0.5-1.5c-0.634,0.467-1.116,0.8-1.45,1c0.167-0.533,0.634-1.1,1.4-1.7
	c0.833-0.633,1.333-1.117,1.5-1.45c-0.967,0.233-2.033,0.867-3.2,1.9c0.5-0.767,1.467-1.434,2.9-2C49.417,6,50.634,5.633,52.8,5
	c-0.133,0.733-0.8,1.633-2,2.7c-1.366,1.167-2.184,2.066-2.45,2.7c0.5-0.133,1.617-0.566,3.351-1.3
	c1.566-0.533,2.533-0.483,2.899,0.15c-1.333,0.733-2.383,1.35-3.149,1.85C50.384,11.733,49.75,12.333,49.55,12.9z M12.85,7.4
	c-0.067,0.267-0.167,0.583-0.3,0.95c-0.566,1.6-0.816,2.6-0.75,3c0.4-0.8,0.95-1.817,1.65-3.05c0.333-0.667,0.716-1.383,1.15-2.15
	c0.424,0.131,0.607,0.581,0.55,1.35v0.05c-0.1,1.1-0.65,2.817-1.65,5.15c0.13-1.86,0.306-3.093,0.525-3.7
	c-0.321,0.81-0.629,1.526-0.925,2.15c-0.633,1.233-1.2,1.867-1.7,1.9c-0.4,0.034-0.583-0.383-0.55-1.25c0-0.033,0.05-0.566,0.15-1.6
	c-0.5,1.2-0.917,2.083-1.25,2.65c-0.367-0.067-0.667-0.333-0.9-0.8c-0.333-0.633-0.533-0.983-0.6-1.05l-0.9-2.05
	C7.483,9.517,7.6,10.433,7.7,11.7c0.033,0.233,0.117,0.6,0.25,1.1c0.066,0.467,0.066,0.817,0,1.05c-0.4,0-0.934-0.233-1.6-0.7
	c-0.7-0.467-1.267-0.733-1.7-0.8c0.133,0.133,0.317,0.517,0.55,1.15c0.233,0.5,0.517,0.833,0.85,1c-0.167,0.133-0.417,0.2-0.75,0.2
	c-0.5,0.033-0.783,0.05-0.85,0.05C4.683,14.883,5.033,15,5.5,15.1c0.5,0.101,0.833,0.184,1,0.25C6.7,15.45,7,15.667,7.4,16
	l-0.5,0.15c0,0.8,0.517,1.083,1.55,0.85c-0.1,0.2-0.2,0.467-0.3,0.8c0.1-0.033,0.3-0.133,0.6-0.3c0.2-0.1,0.383-0.167,0.55-0.2
	c0.1,0.467,0.284,0.884,0.55,1.25c0.133,0.233,0.4,0.584,0.8,1.05c-0.233-0.733-0.267-1.383-0.1-1.949
	c0.3,0.033,0.717,0.199,1.25,0.5c0.567,0.3,1,0.466,1.3,0.5c0.433,0.1,1.117,0.183,2.05,0.25c-0.1-0.167-0.733-0.601-1.9-1.301
	c-1.033-0.633-1.533-1.166-1.5-1.6c0.033-0.366,0.4-0.583,1.1-0.65c0.5-0.033,0.967,0,1.4,0.101c-0.433-0.033-0.8-0.017-1.1,0.05
	c0.167,0.366,0.733,0.833,1.7,1.4c0.433,0.233,0.95,0.5,1.55,0.8c1.633,0.8,2.417,1.7,2.35,2.7v0.05
	c-0.9,0.066-2.083-0.15-3.55-0.65c-1.667-0.566-2.867-0.883-3.6-0.95c0.7,0.301,1.35,0.917,1.95,1.851
	c0.034,0.066,0.083,0.149,0.15,0.25c0.433,0.733,0.767,1.5,1,2.3c0.033,0.167,0.066,0.333,0.1,0.5c-1.367-0.167-2.7-0.684-4-1.55
	c-1.367-0.867-2.133-1.816-2.3-2.851c0.033,0.434-0.2,1.134-0.7,2.101c-0.066,0.1-0.133,0.217-0.2,0.35
	c-0.233-0.366-0.367-0.916-0.4-1.649V20.1c0-0.833-0.083-1.399-0.25-1.699C6.317,18.6,5.517,18.667,4.55,18.6
	c-0.833-0.1-1.783-0.283-2.85-0.55c0.2-0.133,0.4-0.233,0.6-0.3c0.867-0.434,1.667-0.634,2.4-0.6c-1.167-0.367-2.2-0.767-3.1-1.2
	c-0.1-0.033-0.184-0.066-0.25-0.101c-1.567-0.733-1.75-1.233-0.55-1.5c0.367-0.067,1.083-0.05,2.15,0.05
	c0.267,0.033,0.55,0.067,0.85,0.1c-0.367-0.367-0.716-0.767-1.05-1.2c-0.7-0.933-1.283-1.983-1.75-3.15c-0.267-0.633-0.5-1.3-0.7-2
	c1.4,0.133,2.817,0.883,4.25,2.25c0.567,0.567,1.3,1.3,2.2,2.2c0.033,0.033,0.083,0.083,0.15,0.15c-0.066-0.1-0.133-0.217-0.2-0.35
	c-0.4-0.667-0.65-1.533-0.75-2.6c-0.034-0.333,0-1.733,0.1-4.2c1.267,0.8,2.317,2.433,3.15,4.9c0.2,0.6,0.383,1.25,0.55,1.95
	c0-0.1,0.017-0.217,0.05-0.35c0.233-1.6,1.15-3.8,2.75-6.6C12.883,5.9,12.983,6.533,12.85,7.4z M14.35,15.45
	c-0.467-0.134-1.1-0.267-1.9-0.4c0.333-0.466,1.05-0.867,2.15-1.2c0.6-0.167,1.417-0.383,2.45-0.65c-0.6-0.1-1.5-0.083-2.7,0.05
	l0.3-0.3c0.567-0.2,1.15-0.383,1.75-0.55c0.733-0.167,1.483-0.3,2.25-0.4c0.7-0.133,1.417-0.217,2.15-0.25
	c-0.233,0.6-0.833,1.15-1.8,1.65c-0.333,0.133-0.717,0.283-1.15,0.45c-1.367,0.467-2.717,0.75-4.05,0.85
	c2,0.267,3.05,0.416,3.15,0.45c0.367,0.066,0.716,0.149,1.05,0.25c0.633,0.199,1.167,0.449,1.6,0.75c-0.6,0.1-1.6-0.017-3-0.351
	c-0.067-0.033-0.133-0.05-0.2-0.05c-0.761-0.19-1.436-0.29-2.025-0.3H14.35z M15.1,11.5c1.1-0.833,2.467-1.617,4.1-2.35
	c-0.034,0.633-0.717,1.317-2.05,2.05c-0.9,0.466-1.583,0.867-2.05,1.2l0.15-0.2c-0.133,0.133-0.25,0.25-0.35,0.35
	c-0.033,0-0.05,0.017-0.05,0.05c-0.067,0-0.117,0.033-0.15,0.1h-0.05c-0.4,0.267-0.783,0.35-1.15,0.25
	C13.933,12.45,14.467,11.967,15.1,11.5z"/>
<path style="fill-rule:evenodd;clip-rule:evenodd;fill:#DCD6C0;" d="M74.55,24.55c0.2,0,0.351-0.033,0.45-0.1h0.05
	c0.101,0,0.233-0.033,0.4-0.101c0.467-0.033,0.767-0.216,0.899-0.55c0.167-0.133,0.267-0.217,0.301-0.25
	c0.166-0.166,0.267-0.399,0.3-0.7c-0.033,0-0.233,0.034-0.601,0.101c-0.133-0.5-0.616-0.9-1.449-1.2
	c-0.367-0.134-0.684-0.2-0.95-0.2c-0.033-0.066-0.066-0.116-0.101-0.149L73.8,21.55c-0.3-0.033-0.55,0-0.75,0.101
	c-0.2-0.233-0.416-0.334-0.649-0.301c0,0.4,0.066,0.784,0.199,1.15l-0.05,0.25c-0.1,0.1-0.217,0.2-0.35,0.3
	c0.1-0.967-0.05-1.517-0.45-1.649c-0.1-0.034-0.25,0.083-0.45,0.35c-0.166,0.267-0.316,0.283-0.45,0.05l-3.8-4.45
	c0.667,0.5,1.601,1.301,2.8,2.4c0.634,0.634,1.067,0.917,1.301,0.85c0.399-0.1,0.517-0.566,0.35-1.399
	c-0.267-0.9-0.417-1.467-0.45-1.7c0.267,0.134,0.667,0.4,1.2,0.8c0.1,0.101,0.35,0.483,0.75,1.15c0.366,0.6,0.616,0.916,0.75,0.95
	c0.434,0.1,0.783-0.2,1.05-0.9c0.4-1.033,0.634-1.583,0.7-1.65c-0.3,1.467-0.467,2.317-0.5,2.551c-0.1,1.199,0.217,1.733,0.95,1.6
	c0.533-1.434,0.967-2.5,1.3-3.2c0.366,1.367,0.583,2.233,0.65,2.601c0.199,1.1,0.133,1.966-0.2,2.6
	c0.399-0.233,0.717-0.483,0.95-0.75c-0.101,0.4-0.5,0.783-1.2,1.15c-0.634,0.366-1.15,0.55-1.55,0.55l0.699-0.7
	c-0.267-0.066-0.616,0-1.05,0.2c-0.467,0.2-0.816,0.283-1.05,0.25L74.55,24.55z M73.25,23.9c0.1,0.1,0.217,0.183,0.35,0.25
	c0.034,0.033,0.067,0.05,0.101,0.05c-0.101,0.033-0.184,0.033-0.25,0S73.316,24.066,73.25,23.9z M46.15,8.2
	c0.033-0.034,0.066-0.067,0.1-0.1c1.167-1.033,2.233-1.667,3.2-1.9c-0.167,0.333-0.667,0.816-1.5,1.45
	c-0.767,0.6-1.233,1.167-1.4,1.7c0.334-0.2,0.816-0.533,1.45-1c-0.333,0.667-0.5,1.167-0.5,1.5c0.4-0.1,0.95-0.367,1.65-0.8
	c-0.134,0.333-0.834,0.934-2.101,1.8c-1.1,0.8-1.583,1.383-1.45,1.75c0.601-0.167,1.483-0.483,2.65-0.95
	c-0.467,0.533-1.134,1.067-2,1.6c0.233,0.633,1.15,1,2.75,1.1c0.866,0.033,1.983,0.05,3.35,0.05c-1.1,0.5-2.399,0.784-3.899,0.85
	c-1.533,0.033-2.834-0.167-3.9-0.6l-0.8-0.6c-0.066-0.066-0.167-0.117-0.3-0.15l0.05-0.05l0.35,0.1
	c0.434,0.367,1.2,0.617,2.301,0.75c-0.601-0.167-1.051-0.35-1.351-0.55c0.167-0.367,0.25-0.717,0.25-1.05c0.033,0,0.066,0,0.101,0
	l0.05-0.4c-0.033-0.1-0.05-0.184-0.05-0.25c0.033-0.034,0.066-0.067,0.1-0.1l-0.1,0.05c-0.067-0.2-0.134-0.367-0.2-0.5
	c0.066-0.133,0.149-0.267,0.25-0.4c0.166-0.167,0.434-0.433,0.8-0.8c-0.5,0.367-0.95,0.65-1.35,0.85
	c-0.167-0.133-0.367-0.216-0.601-0.25H44c0.066-0.167,0.167-0.35,0.3-0.55c0.3-0.4,0.4-0.717,0.3-0.95l-0.85,1.1
	c-0.167-0.333-0.283-0.75-0.35-1.25c-0.134,0.3-0.284,0.767-0.45,1.4c-0.167-0.4-0.3-0.7-0.4-0.9c-0.2-0.333-0.45-0.517-0.75-0.55
	c0.334,0.533,0.3,0.85-0.1,0.95c-0.601,0-1.017,0.05-1.25,0.15c-0.034,0.6,0.05,1.017,0.25,1.25c0.133,0.167,0.434,0.433,0.899,0.8
	c0.134,0.1,0.267,0.2,0.4,0.3c-0.366-0.033-0.717,0.05-1.05,0.25c-0.067-0.6-0.333-0.8-0.8-0.6c-0.133-0.4-0.2-0.667-0.2-0.8
	c-0.333,0.067-0.567,0.15-0.7,0.25c0.033-0.433-0.183-0.717-0.65-0.85c-0.567-0.133-0.967-0.267-1.2-0.4
	c0.233-0.066,0.567-0.083,1-0.05c0.267,0.033,0.633,0.1,1.1,0.2c-0.3-0.767-0.5-1.333-0.6-1.7c0.7,0.333,1.167,0.517,1.4,0.55
	c0-0.2-0.05-0.45-0.15-0.75c-0.133-0.4-0.217-0.65-0.25-0.75C40.767,8.8,41.267,9,41.4,9c0.066-0.267,0.066-0.783,0-1.55
	c0.8,1.2,1.216,1.816,1.25,1.85c0.233-1.6,0.3-2.816,0.199-3.65c0.067,0.267,0.167,0.684,0.301,1.25
	c0.133,0.5,0.316,0.883,0.55,1.15l0.8-2.2c0.1,0.467,0.1,1.133,0,2c-0.1,1-0.134,1.683-0.1,2.05C45,9.233,45.583,8.667,46.15,8.2z
	 M13.5,12.95c0.367,0.1,0.75,0.017,1.15-0.25h0.05c0.033-0.067,0.083-0.1,0.15-0.1c0-0.033,0.017-0.05,0.05-0.05
	c0.1-0.1,0.217-0.216,0.35-0.35l-0.15,0.2l-0.45,0.55l-0.3,0.3c1.2-0.133,2.1-0.15,2.7-0.05c-1.033,0.267-1.85,0.483-2.45,0.65
	c-1.1,0.333-1.817,0.733-2.15,1.2c0.8,0.134,1.433,0.267,1.9,0.4c-0.027,0-0.061,0-0.1,0c-0.433-0.101-0.9-0.134-1.4-0.101
	c-0.7,0.067-1.067,0.284-1.1,0.65c-0.033,0.434,0.467,0.967,1.5,1.6c1.167,0.7,1.8,1.134,1.9,1.301
	c-0.933-0.067-1.617-0.15-2.05-0.25c-0.3-0.034-0.733-0.2-1.3-0.5c-0.533-0.301-0.95-0.467-1.25-0.5
	c-0.167,0.566-0.133,1.216,0.1,1.949c-0.4-0.466-0.667-0.816-0.8-1.05C9.583,18.184,9.4,17.767,9.3,17.3
	c-0.167,0.033-0.35,0.101-0.55,0.2c-0.3,0.167-0.5,0.267-0.6,0.3c0.1-0.333,0.2-0.6,0.3-0.8c-1.034,0.233-1.55-0.05-1.55-0.85
	L7.4,16c-0.4-0.333-0.7-0.55-0.9-0.65C6.333,15.283,6,15.2,5.5,15.1c-0.467-0.1-0.817-0.216-1.05-0.35c0.066,0,0.35-0.017,0.85-0.05
	c0.333,0,0.583-0.067,0.75-0.2c-0.333-0.167-0.617-0.5-0.85-1c-0.233-0.633-0.417-1.017-0.55-1.15c0.434,0.066,1,0.333,1.7,0.8
	c0.667,0.467,1.2,0.7,1.6,0.7c0.066-0.233,0.066-0.583,0-1.05c-0.133-0.5-0.217-0.867-0.25-1.1c-0.1-1.267-0.217-2.184-0.35-2.75
	L8.25,11c0.067,0.067,0.267,0.417,0.6,1.05c0.233,0.467,0.533,0.733,0.9,0.8c0.333-0.567,0.75-1.45,1.25-2.65
	c-0.1,1.033-0.15,1.566-0.15,1.6c-0.033,0.867,0.15,1.284,0.55,1.25c0.5-0.033,1.067-0.667,1.7-1.9
	c0.295-0.624,0.604-1.34,0.925-2.15c-0.219,0.607-0.395,1.84-0.525,3.7c-0.033,0.066-0.05,0.15-0.05,0.25H13.5z M10.7,15.75
	c0.033-0.066,0.066-0.134,0.1-0.2l0.5-0.399L10.85,15.1c0-0.1,0-0.183,0-0.25c0.233-0.233,0.566-0.517,1-0.85
	c0.566-0.467,0.883-0.817,0.95-1.05c-1.033,0.333-1.716,0.517-2.05,0.55l0.15-0.85c-0.733,0.733-1.183,1.283-1.35,1.65l-0.4-0.6
	C9.017,13.967,8.967,14.167,9,14.3l-0.6-0.05c0,0.1-0.066,0.317-0.2,0.65c-0.067-0.033-0.317-0.1-0.75-0.2
	c0,0.467,0.216,0.866,0.65,1.2l-0.5,0.35c0.4,0.167,0.833,0.283,1.3,0.35c0.1,0.034,0.233,0.117,0.4,0.25
	c0.133,0.067,0.267-0.066,0.4-0.399c0.233,0.033,0.517,0.133,0.85,0.3c0.367,0.2,0.65,0.3,0.85,0.3
	C11.333,16.616,11.1,16.184,10.7,15.75z"/>
<path style="fill-rule:evenodd;clip-rule:evenodd;fill:#BBB5A0;" d="M73.05,21.65c-0.166,0.1-0.316,0.216-0.45,0.35v0.5
	c-0.133-0.366-0.199-0.75-0.199-1.15C72.634,21.316,72.85,21.417,73.05,21.65z M73.95,21.55c-0.066-0.033-0.117-0.033-0.15,0
	l0.05-0.149C73.884,21.434,73.917,21.483,73.95,21.55z M76.35,23.8c0.034-0.1,0.051-0.217,0.051-0.35c0-0.167-0.017-0.334-0.051-0.5
	c0.367-0.066,0.567-0.101,0.601-0.101c-0.033,0.301-0.134,0.534-0.3,0.7C76.616,23.583,76.517,23.667,76.35,23.8z M75.45,24.35
	c-0.167,0.067-0.3,0.101-0.4,0.101H75c0.033-0.033,0.066-0.066,0.1-0.101C75.2,24.35,75.316,24.35,75.45,24.35z M72.55,22.9v0.25
	c-0.033-0.067-0.066-0.117-0.1-0.15L72.55,22.9z M72.8,23.4c0.033,0.033,0.05,0.066,0.05,0.1c-0.066-0.066-0.116-0.134-0.149-0.2
	C72.733,23.333,72.767,23.366,72.8,23.4z M43.65,11.35c-0.834-0.434-1.65-0.417-2.45,0.05c0.133,0.467,0.383,0.934,0.75,1.4
	c0.399,0.5,0.833,0.833,1.3,1l0.25,0.05l-0.05,0.05l-0.15,0.6c-0.166-0.267-0.366-0.517-0.6-0.75c-0.367-0.067-0.584-0.267-0.65-0.6
	c-0.033-0.033-0.05-0.066-0.05-0.1c-0.134-0.1-0.267-0.2-0.4-0.3c-0.466-0.367-0.766-0.633-0.899-0.8
	c-0.2-0.233-0.284-0.65-0.25-1.25c0.233-0.1,0.649-0.15,1.25-0.15c0.399-0.1,0.434-0.417,0.1-0.95c0.3,0.033,0.55,0.217,0.75,0.55
	c0.101,0.2,0.233,0.5,0.4,0.9c0.166-0.633,0.316-1.1,0.45-1.4c0.066,0.5,0.183,0.917,0.35,1.25l0.85-1.1
	c0.101,0.233,0,0.55-0.3,0.95c-0.133,0.2-0.233,0.383-0.3,0.55C43.9,11.3,43.783,11.317,43.65,11.35z M44.95,11.9
	c-0.101-0.133-0.2-0.25-0.3-0.35c0.399-0.2,0.85-0.483,1.35-0.85c-0.366,0.367-0.634,0.633-0.8,0.8
	C45.1,11.633,45.017,11.767,44.95,11.9z M45.15,12.45V12.4l0.1-0.05C45.217,12.383,45.184,12.417,45.15,12.45z M43.85,13.95
	l0.9,0.25l0.05-0.05c0.3,0.2,0.75,0.383,1.351,0.55C45.05,14.567,44.283,14.317,43.85,13.95z M10.85,14.85
	c-0.033-0.067-0.067-0.117-0.1-0.15c-0.033-0.034-0.067-0.05-0.1-0.05V14.6c-0.467-0.167-0.883-0.15-1.25,0.05
	c-0.433,0.067-0.767,0.233-1,0.5L8.25,15.8c0,0.033,0,0.066,0,0.101L8.2,15.95c0.033,0,0.05,0.017,0.05,0.05
	c0.033,0.366,0.417,0.517,1.15,0.45c0.667-0.033,1.1-0.267,1.3-0.7c0.4,0.434,0.633,0.866,0.7,1.3c-0.2,0-0.483-0.1-0.85-0.3
	c-0.333-0.167-0.617-0.267-0.85-0.3c-0.133,0.333-0.267,0.467-0.4,0.399C9.133,16.717,9,16.634,8.9,16.6
	c-0.467-0.066-0.9-0.183-1.3-0.35l0.5-0.35c-0.434-0.334-0.65-0.733-0.65-1.2c0.433,0.1,0.683,0.167,0.75,0.2
	c0.133-0.333,0.2-0.55,0.2-0.65L9,14.3c-0.033-0.133,0.017-0.333,0.15-0.6l0.4,0.6c0.167-0.367,0.617-0.917,1.35-1.65l-0.15,0.85
	c0.333-0.033,1.017-0.217,2.05-0.55c-0.066,0.233-0.383,0.583-0.95,1.05C11.417,14.333,11.083,14.617,10.85,14.85z M10.8,15.55
	c0-0.066,0-0.116,0-0.149c0.034-0.134,0.05-0.233,0.05-0.301l0.45,0.051L10.8,15.55z"/>
<path style="fill-rule:evenodd;clip-rule:evenodd;fill:#C6A940;" d="M75.1,24.35c-0.033,0.034-0.066,0.067-0.1,0.101
	c-0.1,0.066-0.25,0.1-0.45,0.1c-0.233-0.033-0.517-0.149-0.85-0.35c-0.033,0-0.066-0.017-0.101-0.05
	c-0.133-0.067-0.25-0.15-0.35-0.25c-0.167-0.134-0.3-0.267-0.4-0.4c0-0.033-0.017-0.066-0.05-0.1
	c-0.133-0.233-0.184-0.467-0.149-0.7c0-0.267,0.066-0.533,0.199-0.8l0.301,0.3c-0.134,0.467,0.066,0.833,0.6,1.1
	c0.2,0.101,0.467,0.217,0.8,0.351c0.066,0,0.167,0.033,0.3,0.1c0.134,0.033,0.267,0.066,0.4,0.1
	C75.217,24.05,75.167,24.217,75.1,24.35z M45.15,12.4v0.05c0,0.066,0.017,0.15,0.05,0.25l-0.05,0.4c-0.034,0-0.067,0-0.101,0
	c-0.399,0.033-0.899-0.067-1.5-0.3c-0.666-0.3-1.133-0.617-1.399-0.95c0.633-0.3,1.133-0.467,1.5-0.5
	c0.133-0.033,0.25-0.05,0.35-0.05h0.05c0.233,0.034,0.434,0.117,0.601,0.25c0.1,0.1,0.199,0.217,0.3,0.35
	C45.017,12.033,45.083,12.2,45.15,12.4z M9.4,14.65c0.367-0.2,0.783-0.217,1.25-0.05v0.05c-0.066,0.333-0.383,0.667-0.95,1
	C9.133,15.983,8.65,16.1,8.25,16c0-0.033-0.017-0.05-0.05-0.05l0.05-0.05l0.7-0.95C9.083,14.817,9.233,14.717,9.4,14.65z"/>
<path style="fill-rule:evenodd;clip-rule:evenodd;fill:#A68E36;" d="M72.55,22.9v-0.15l0.05-0.25V22
	c0.134-0.134,0.284-0.25,0.45-0.35c0.2-0.101,0.45-0.134,0.75-0.101c0.033-0.033,0.084-0.033,0.15,0c0.267,0,0.583,0.066,0.95,0.2
	c0.833,0.3,1.316,0.7,1.449,1.2c0.034,0.166,0.051,0.333,0.051,0.5c0,0.133-0.017,0.25-0.051,0.35
	c-0.133,0.334-0.433,0.517-0.899,0.55c-0.134,0-0.25,0-0.351,0c0.067-0.133,0.117-0.3,0.15-0.5c-0.134-0.033-0.267-0.066-0.4-0.1
	c-0.133-0.066-0.233-0.1-0.3-0.1c-0.333-0.134-0.6-0.25-0.8-0.351c-0.533-0.267-0.733-0.633-0.6-1.1l-0.301-0.3
	c-0.133,0.267-0.199,0.533-0.199,0.8c-0.034,0.233,0.017,0.467,0.149,0.7c-0.033-0.034-0.066-0.067-0.1-0.101
	c-0.066-0.066-0.117-0.116-0.15-0.149V22.9z M44.8,14.15l-0.05,0.05l-0.9-0.25l-0.35-0.1l-0.25-0.05c-0.467-0.167-0.9-0.5-1.3-1
	c-0.367-0.466-0.617-0.933-0.75-1.4c0.8-0.467,1.616-0.483,2.45-0.05c-0.367,0.033-0.867,0.2-1.5,0.5
	c0.267,0.333,0.733,0.65,1.399,0.95c0.601,0.233,1.101,0.333,1.5,0.3C45.05,13.433,44.967,13.783,44.8,14.15z M9.4,14.65
	c-0.167,0.067-0.316,0.167-0.45,0.3l-0.7,0.95c0-0.034,0-0.067,0-0.101L8.4,15.15C8.633,14.883,8.967,14.717,9.4,14.65z
	 M10.65,14.65c0.033,0,0.067,0.017,0.1,0.05c0.033,0.033,0.067,0.083,0.1,0.15c0,0.066,0,0.15,0,0.25
	c0,0.067-0.017,0.167-0.05,0.301c0,0.033,0,0.083,0,0.149c-0.033,0.066-0.066,0.134-0.1,0.2c-0.2,0.434-0.633,0.667-1.3,0.7
	C8.667,16.517,8.283,16.366,8.25,16c0.4,0.1,0.883-0.017,1.45-0.35C10.267,15.316,10.583,14.983,10.65,14.65z"/>
</svg>
