<?xml version="1.0" encoding="iso-8859-1"?>
<!-- Generator: Adobe Illustrator 15.1.0, SVG Export Plug-In . SVG Version: 6.00 Build 0)  -->
<!DOCTYPE svg PUBLIC "-//W3C//DTD SVG 1.1//EN" "http://www.w3.org/Graphics/SVG/1.1/DTD/svg11.dtd">
<svg version="1.1" id="FlashAICB" xmlns="http://www.w3.org/2000/svg" xmlns:xlink="http://www.w3.org/1999/xlink" x="0px" y="0px"
	 width="63.35px" height="35.55px" viewBox="0 0 63.35 35.55" style="enable-background:new 0 0 63.35 35.55;" xml:space="preserve"
	>
<path style="fill-rule:evenodd;clip-rule:evenodd;fill:#A68A52;" d="M33.4,28.35c-0.034,0.067-0.051,0.15-0.051,0.25
	c-1.466,0.034-3.066-0.517-4.8-1.649c-2.133-1.4-3.633-2.233-4.5-2.5l0.15,0.45c-2.567-1.7-4.55-2.667-5.95-2.9
	c0.133,0.167,0.333,0.417,0.6,0.75c0.233,0.3,0.383,0.566,0.45,0.8v0.05c0.367,0.134,0.733,0.284,1.1,0.45
	c-0.3-0.1-0.6-0.217-0.9-0.35c-1.267-0.533-2.217-0.983-2.85-1.351c-1.967-1.166-4.033-2.699-6.2-4.6c-0.05-0.05-0.1-0.1-0.15-0.15
	c0.5,0,0.867-0.05,1.1-0.15v-0.5c0.633-0.167,1.434,0.033,2.4,0.6c1.333,0.767,2.117,1.184,2.35,1.25c0.467,0.134,1,0.117,1.6-0.05
	c0.5-0.033,1.3,0.134,2.4,0.5c0.367,0.134,0.9,0.267,1.6,0.4c0.6,0.166,1.067,0.399,1.4,0.699c0.067,0.067,0.833,0.917,2.3,2.551
	c0.566,0.633,1.167,1.133,1.8,1.5v0.05c0.467,1.233,1.333,2,2.6,2.3c-0.7-1.4-1.15-2.434-1.35-3.1
	c-0.167-0.867-0.333-1.584-0.5-2.15c-0.1-0.333-0.217-0.616-0.35-0.85c0.233,0.199,0.5,0.433,0.8,0.699
	c0.7,0.601,1.233,1.184,1.6,1.75c0.2,0.334,0.5,0.9,0.9,1.7c0.333,0.566,0.733,0.917,1.2,1.05c0.066,0.4,0.267,0.9,0.6,1.5
	C32.95,27.717,33.167,28.05,33.4,28.35z M26.85,20.5c-0.033-0.134-0.067-0.267-0.1-0.4c0.033-0.033,0.067-0.083,0.1-0.149V20.5z
	 M23.6,22.4c-0.867-0.733-1.333-1.167-1.4-1.301l0.35-0.149c-0.733,0.133-0.816,0.717-0.25,1.75c0.567,1.033,1.2,1.5,1.9,1.399
	C24.333,23.467,24.133,22.9,23.6,22.4z M12.35,18.8c0.133,0.2,0.6,0.55,1.4,1.05c0.8,0.567,1.333,0.867,1.6,0.9
	c0.133,0.033,0.25-0.017,0.35-0.15c0.133-0.133,0.233-0.199,0.3-0.199c0.433,0.1,1.017,0.3,1.75,0.6
	c0.867,0.233,1.583,0.366,2.15,0.4c-0.667-0.767-1.167-1.301-1.5-1.601c-0.5-0.467-1.117-0.75-1.85-0.85
	c-0.8-0.134-1.433-0.217-1.9-0.25c-0.833-0.101-1.316-0.017-1.45,0.25L12.35,18.8z M35.1,26.15c0.134,0.399,0.267,0.983,0.4,1.75
	c0.2,0.6,0.65,0.883,1.35,0.85c-0.267-0.6-0.466-1.05-0.6-1.35c-0.134-0.334-0.2-0.667-0.2-1c0.4,0.033,0.834,0.05,1.3,0.05
	L37.45,27.1c0.333,0.034,0.767,0.017,1.3-0.05c0.233,0.867,0.15,1.5-0.25,1.9c0.167,0,0.517,0.066,1.05,0.2
	c-0.233,0.333-0.666,0.517-1.3,0.55c-0.566,0-1.066-0.084-1.5-0.25c-0.267-0.367-0.566-0.584-0.9-0.65
	c-0.133-0.066-0.333-0.066-0.6,0c-0.3,0.033-0.5,0.033-0.6,0c-0.101-0.033-0.2-0.083-0.301-0.149c-0.1-0.5-0.3-1.101-0.6-1.801
	c-0.434-0.966-0.616-1.699-0.55-2.199l-0.8,0.399v-1.7c0.233,0.467,0.5,0.9,0.8,1.301c0.366,0.5,0.75,0.883,1.149,1.149
	C34.55,25.934,34.8,26.05,35.1,26.15z"/>
<path style="fill-rule:evenodd;clip-rule:evenodd;fill:#907847;" d="M20.4,24.05c-0.367-0.166-0.733-0.316-1.1-0.45v-0.05
	c-0.066-0.233-0.216-0.5-0.45-0.8c-0.267-0.333-0.467-0.583-0.6-0.75c1.4,0.233,3.383,1.2,5.95,2.9l-0.15-0.45
	c0.867,0.267,2.367,1.1,4.5,2.5c1.733,1.133,3.334,1.684,4.8,1.649c0-0.1,0.017-0.183,0.051-0.25c0.333,0.467,0.649,0.767,0.949,0.9
	c0.034-0.2,0.034-0.4,0-0.6c0.101,0.066,0.2,0.116,0.301,0.149c0.1,0.033,0.3,0.033,0.6,0c0.267-0.066,0.467-0.066,0.6,0
	c0.334,0.066,0.634,0.283,0.9,0.65c0.434,0.166,0.934,0.25,1.5,0.25c0.634-0.033,1.066-0.217,1.3-0.55
	c-0.533-0.134-0.883-0.2-1.05-0.2c0.4-0.4,0.483-1.033,0.25-1.9c-0.533,0.066-0.967,0.084-1.3,0.05L37.35,26.45
	c-0.466,0-0.899-0.017-1.3-0.05c-0.033-0.167-0.033-0.317,0-0.45l-1,0.149l0.05,0.051c-0.3-0.101-0.55-0.217-0.75-0.351
	c-0.399-0.267-0.783-0.649-1.149-1.149c-0.3-0.4-0.566-0.834-0.8-1.301v1.7l-0.2,0.05c-0.101,0.167-0.117,0.417-0.05,0.75
	c-0.467-0.133-0.867-0.483-1.2-1.05c-0.4-0.8-0.7-1.366-0.9-1.7c-0.367-0.566-0.9-1.149-1.6-1.75c-0.3-0.267-0.567-0.5-0.8-0.699
	c-0.233-0.434-0.467-0.7-0.7-0.801c0-0.033,0-0.066,0-0.1c0.133-0.233,0.267-0.4,0.4-0.5c0.367-0.2,0.883-0.2,1.55,0
	c0.067,0,0.55,0.184,1.45,0.55c0.5,0.2,1.133,0.384,1.9,0.55c0.6,0.2,1.184,0.584,1.75,1.15c0.634,0.667,1.566,1.75,2.8,3.25
	c0.2,0.233,0.617,0.533,1.25,0.9c0.167,0.1,0.367,0.149,0.601,0.149c0.166,0.066,0.199,0.3,0.1,0.7c0.6,0.033,1.566-0.116,2.9-0.45
	c1.233-0.3,2.149-0.399,2.75-0.3c-0.034,0.4-0.034,0.783,0,1.15c0.3,0.033,0.75-0.017,1.35-0.15c0.6-0.1,1.05-0.134,1.35-0.1
	c0.034,0.566-0.05,1.083-0.25,1.55c-0.133,0.3-0.366,0.767-0.699,1.399c0.633,0.134,1.383,0.051,2.25-0.25
	c0.366-0.133,0.733-0.283,1.1-0.449c-0.533,0.366-1.15,0.633-1.85,0.8c-1.334,0.2-2.367,0.35-3.101,0.45
	c-2.267,0.366-3.5,0.55-3.7,0.55c-1.466,0.133-2.649,0.033-3.55-0.3c-0.666-0.233-2.033-0.5-4.1-0.801
	c-2-0.267-3.383-0.566-4.15-0.899c-1-0.434-2.083-1-3.25-1.7c-1.566-0.967-2.617-1.6-3.15-1.9c-0.367-0.199-0.833-0.433-1.4-0.699
	H21.2L20.4,24.05z M6.9,14.45c0.267-0.067,0.533-0.133,0.8-0.2c0.033,0,0.066,0,0.1,0L7.75,14.3c0.267,0.067,0.617,0.534,1.05,1.4
	c0.367,0.733,0.85,1,1.45,0.8c0.167-0.067,0.567-0.367,1.2-0.9c0.4-0.367,0.883-0.483,1.45-0.35c0.233,0.067,0.533,0.25,0.9,0.55
	c0.367,0.3,0.65,0.483,0.85,0.55c0.4,0.2,1.067,0.3,2,0.3c1,0,1.667,0.033,2,0.1c0.6,0.1,1.217,0.333,1.85,0.7l0.8,0.6
	c0.4,0.3,0.684,0.45,0.85,0.45c0.167,0.033,0.35-0.066,0.55-0.3c0.233-0.2,0.417-0.3,0.55-0.3c0.367-0.033,0.983,0.267,1.85,0.9
	c0.8,0.601,1.3,1.084,1.5,1.45c0.033-0.033,0.083-0.083,0.15-0.15c0.033,0.134,0.067,0.267,0.1,0.4v0.3
	c-0.033,1.566,0.1,2.767,0.4,3.601c-0.633-0.367-1.233-0.867-1.8-1.5c-1.467-1.634-2.233-2.483-2.3-2.551
	c-0.333-0.3-0.8-0.533-1.4-0.699c-0.7-0.134-1.233-0.267-1.6-0.4c-1.1-0.366-1.9-0.533-2.4-0.5c-0.6,0.167-1.133,0.184-1.6,0.05
	c-0.233-0.066-1.017-0.483-2.35-1.25c-0.966-0.566-1.767-0.767-2.4-0.6v0.5c-0.233,0.1-0.6,0.15-1.1,0.15
	c-0.117-0.117-0.233-0.233-0.35-0.35L6.9,14.45z"/>
<path style="fill-rule:evenodd;clip-rule:evenodd;fill:#675633;" d="M49.5,28.9c-0.366,0.166-0.733,0.316-1.1,0.449
	c-0.867,0.301-1.617,0.384-2.25,0.25c0.333-0.633,0.566-1.1,0.699-1.399c0.2-0.467,0.284-0.983,0.25-1.55
	c-0.3-0.034-0.75,0-1.35,0.1c-0.6,0.134-1.05,0.184-1.35,0.15c-0.034-0.367-0.034-0.75,0-1.15c-0.601-0.1-1.517,0-2.75,0.3
	c-1.334,0.334-2.301,0.483-2.9,0.45c0.1-0.4,0.066-0.634-0.1-0.7c-0.233,0-0.434-0.05-0.601-0.149c-0.633-0.367-1.05-0.667-1.25-0.9
	c-1.233-1.5-2.166-2.583-2.8-3.25c-0.566-0.566-1.15-0.95-1.75-1.15c-0.767-0.166-1.4-0.35-1.9-0.55
	c-0.9-0.366-1.383-0.55-1.45-0.55c-0.667-0.2-1.183-0.2-1.55,0c-0.133,0.1-0.267,0.267-0.4,0.5c0,0.033,0,0.066,0,0.1
	c-0.034,0.034-0.067,0.067-0.1,0.101c-0.033,0.066-0.067,0.116-0.1,0.149c-0.067,0.067-0.117,0.117-0.15,0.15
	c-0.2-0.366-0.7-0.85-1.5-1.45c-0.867-0.633-1.483-0.933-1.85-0.9c-0.133,0-0.317,0.1-0.55,0.3c-0.2,0.233-0.383,0.333-0.55,0.3
	c-0.167,0-0.45-0.15-0.85-0.45l-0.8-0.6c-0.633-0.367-1.25-0.6-1.85-0.7c-0.333-0.067-1-0.1-2-0.1c-0.933,0-1.6-0.1-2-0.3
	c-0.2-0.067-0.483-0.25-0.85-0.55c-0.367-0.3-0.667-0.483-0.9-0.55c-0.566-0.133-1.05-0.017-1.45,0.35
	c-0.633,0.533-1.034,0.833-1.2,0.9c-0.6,0.2-1.083-0.067-1.45-0.8c-0.433-0.867-0.783-1.333-1.05-1.4l0.05-0.05
	c0.733,0,1.233,0.533,1.5,1.6c0.534-0.033,1.05-0.184,1.55-0.45c0.267-0.133,0.717-0.383,1.35-0.75c0.2-0.066,0.55-0.217,1.05-0.45
	l0.15-0.05c0.067-0.033,0.117-0.05,0.15-0.05c0.067-0.033,0.117-0.05,0.15-0.05c0.233,0,0.483,0,0.75,0
	c0.1,0.067,0.216,0.15,0.35,0.25l0.2,0.25v0.05c0.233,0.367,0.417,0.583,0.55,0.65c0.6,0.267,1.083,0.4,1.45,0.4
	c0.4,0,0.9-0.117,1.5-0.35c1.8-0.733,3.067-1.017,3.8-0.85c0.833,0.167,1.9,0.983,3.2,2.45c0.867,1,2.017,1.4,3.45,1.2
	c0.867-0.133,1.6-0.216,2.2-0.25c0,0.033,0,0.066,0,0.1c1,0.033,1.833,0.066,2.5,0.1c0.933,0.4,1.699,1.15,2.3,2.25
	c1,1.834,1.75,2.967,2.25,3.4c0.6,0.5,1.616,0.666,3.05,0.5c1.667-0.233,2.8-0.25,3.4-0.05c0.899,0.333,1.983,0.8,3.25,1.399
	c1.066,0.4,2.25,0.384,3.55-0.05c0.434-0.134,0.967-0.4,1.6-0.8l1.55-1c0.034-0.033,0.084-0.05,0.15-0.05
	c0.1-0.067,0.2-0.117,0.3-0.15c-1.166,1.9-2.7,3.5-4.6,4.8C50.15,28.5,49.833,28.7,49.5,28.9z"/>
<path style="fill-rule:evenodd;clip-rule:evenodd;fill:#DBB25F;" d="M2.5,11.25c0.167-0.033,0.35-0.083,0.55-0.15
	c0.034,0.233,0.083,0.483,0.15,0.75C2.933,11.65,2.7,11.45,2.5,11.25z M6.8,10.6c-0.042,0-0.083,0-0.125,0
	c-0.024-0.011-0.049-0.02-0.075-0.025c-0.052-0.003-0.103-0.012-0.15-0.025c-0.1-0.033-0.184-0.066-0.25-0.1L6.15,10.4
	c-0.3-0.233-0.733-1.283-1.3-3.15c-0.1,0.067-0.317,0.1-0.65,0.1c-0.3,0-0.517,0.033-0.65,0.1c-0.3-1,0.034-2.034,1-3.1
	c1.2-1.067,1.983-1.8,2.35-2.2c0.567-0.4,1.15-0.767,1.75-1.1C9.117,0.783,9.6,0.567,10.1,0.4h1.2
	c-0.066-0.133-0.15-0.217-0.25-0.25c0.133-0.033,0.267-0.05,0.4-0.05c1-0.167,2.066-0.117,3.2,0.15L11.3,0.4
	c0.1,0.167,0.083,0.4-0.05,0.7c0.7-0.067,0.917,0.05,0.65,0.35c-0.133,0.167-0.417,0.4-0.85,0.7c-0.2,0.167-0.583,0.533-1.15,1.1
	C9.433,3.75,9.05,4.1,8.75,4.3c0.367,0.133,0.933,0.1,1.7-0.1L10.2,4.45C7.833,5.35,6.233,6.5,5.4,7.9c0.4,0,1-0.15,1.8-0.45
	C7.133,7.65,7.1,7.967,7.1,8.4c0.8,0.233,2.133-0.35,4-1.75c1.867-1.367,2.95-2.533,3.25-3.5c-0.033,0-0.067,0-0.1,0
	c0.233-0.033,0.433-0.033,0.6,0c0.333,0.467,0.2,0.9-0.4,1.3c0.466-0.1,0.816-0.2,1.05-0.3c0.367,1.1-0.9,2.6-3.8,4.5
	c-0.4,0.233-0.917,0.45-1.55,0.65l-1.6,0.5C7.85,10.133,7.267,10.4,6.8,10.6z M19.05,1.75h0.05C18.3,1.45,17.6,1.2,17,1l-0.45-0.15
	c-0.202-0.076-0.394-0.143-0.575-0.2c-0.077-0.035-0.152-0.068-0.225-0.1c1.238,0.391,2.938,0.958,5.1,1.7
	C20.9,2.266,20.95,2.283,21,2.3h-0.1c-0.015-0.017-0.032-0.033-0.05-0.05H20.8C20.3,2.15,19.717,1.983,19.05,1.75z M44.925,1.325
	C44.749,1.336,44.508,1.362,44.2,1.4c0.066-0.033,0.149-0.05,0.25-0.05C44.61,1.336,44.769,1.328,44.925,1.325z M40.55,3.45
	C40.384,4.017,39.6,4.633,38.2,5.3c-0.767,0.367-1.783,0.85-3.05,1.45C34.583,7.15,33.733,7.7,32.6,8.4
	C31.7,9.033,31,9.717,30.5,10.45c0.267-0.067,0.767-0.333,1.5-0.8c0.634-0.4,1.15-0.583,1.55-0.55l0.101,0.4
	c0.066-0.033,0.616-0.35,1.649-0.95c0.7-0.433,1.267-0.633,1.7-0.6c0.066,0.767,1.05,0.466,2.95-0.9c1.8-1.3,2.883-2.283,3.25-2.95
	c-0.566-0.2-1-0.333-1.3-0.4c-0.601-0.133-1-0.1-1.2,0.1L40.55,3.45z M16.25,10.2l-0.05-0.05c-0.333-0.2-0.633-0.316-0.9-0.35
	c-0.433-0.066-0.95,0.034-1.55,0.3c0.2-0.3,0.467-0.733,0.8-1.3c0.133-0.267,0.3-0.517,0.5-0.75c-0.2,0.367-0.383,0.767-0.55,1.2
	c0.4-0.6,0.967-1.05,1.7-1.35c0.433-0.167,1.1-0.4,2-0.7c0.933-0.367,2.1-1.167,3.5-2.4h0.15c-0.9-0.066-2.15,0.15-3.75,0.65
	c1.3-0.667,2.667-0.934,4.1-0.8c0.066,0.1,0.033,0.2-0.1,0.3h0.4c0.133,0.566-0.25,1.267-1.15,2.1c-1.1,1-1.7,1.583-1.8,1.75
	c1.133,0.167,2.383-0.283,3.75-1.35c1.9-1.434,3.034-2.233,3.4-2.4c0.333-0.133,0.7-0.216,1.1-0.25
	c0.567-0.066,0.934-0.017,1.1,0.15c0.567,0.533,0.283,1.466-0.85,2.8c0.133-0.067,0.267-0.117,0.4-0.15
	c-0.267,0.267-0.617,0.633-1.05,1.1c-0.7,0.733-1.1,1.367-1.2,1.9c0.867-0.2,1.7-0.633,2.5-1.3c0.066-0.066,0.617-0.617,1.65-1.65
	c-0.1,0.3-0.25,0.617-0.45,0.95c-0.633,1.1-0.967,1.7-1,1.8c0.5,0.067,1.217-0.233,2.15-0.9c1-0.8,1.684-1.317,2.05-1.55
	c1.733-1.1,3.051-1.917,3.95-2.45c1.033-0.533,1.767-0.95,2.2-1.25c0.5-0.3,0.917-0.683,1.25-1.15c0.2-0.033,0.417-0.05,0.65-0.05
	c0.566,0,0.933,0.117,1.1,0.35c0.533,0.067,1.35,0.083,2.45,0.05c0.133,0.566-0.134,1.2-0.8,1.9c-0.967,1-1.467,1.533-1.5,1.6
	c0.366,0.066,1.3-0.034,2.8-0.3c0.066,0.467,0.017,1.017-0.15,1.65H43.7c-0.2,0.567-0.55,1.434-1.05,2.6
	c-0.5,1.133-0.851,2.033-1.051,2.7c0.667-0.467,1.317-1.35,1.95-2.65c0.515-1.092,0.98-1.875,1.4-2.35
	c-0.267,1-0.417,1.65-0.45,1.95c0.233-0.033,0.634,0,1.2,0.1c0.033,1.067-0.134,1.883-0.5,2.45c-0.367,0.5-1.084,0.983-2.15,1.45
	L43,13.1c-0.6,0.7-1.083,1.083-1.45,1.15c0-0.5,0.101-1.217,0.3-2.15c0.233-0.967,0.334-1.667,0.301-2.1
	c-1.601,1.067-2.801,1.717-3.601,1.95c-0.267,0.066-0.85,0.167-1.75,0.3c-0.666,0.1-1.184,0.217-1.55,0.35
	c-0.233-0.133-0.483-0.233-0.75-0.3c-0.467-0.133-1.05-0.117-1.75,0.05c-0.767,0.2-1.333,0.316-1.7,0.35l-0.15,0.05
	c-1.133,0.1-2.583-0.4-4.35-1.5c-1.1-0.667-2.1-1.033-3-1.1c-0.133,0-0.25,0-0.35,0c0.767-0.2,1.533-0.783,2.3-1.75
	c1.6-2.066,2.55-3.167,2.85-3.3L25.7,5.8c-0.1,0.3-0.367,0.65-0.8,1.05c-0.267,0.233-0.65,0.55-1.15,0.95
	C23.283,8.233,22.6,8.967,21.7,10c0.3,0.133,0.617,0.2,0.95,0.2c-0.2,0.033-0.383,0.083-0.55,0.15c-0.667,0.4-1.167,0.7-1.5,0.9
	c-0.633,0.333-1.2,0.467-1.7,0.4c-0.066,0-0.117,0-0.15,0c-0.4-0.1-0.833-0.316-1.3-0.65c-0.1-0.067-0.217-0.15-0.35-0.25
	C16.8,10.517,16.517,10.333,16.25,10.2z M55.2,17.2c-0.367,0.233-0.767,0.566-1.2,1c-0.033,0.033-0.083,0.083-0.15,0.149
	c-0.3,0.267-0.55,0.5-0.75,0.7c0.2-0.767,0.367-1.383,0.5-1.85c0.567-1.434,0.983-2.534,1.25-3.3
	c0.334-0.933,0.517-1.783,0.551-2.55c0.033,0.367,0.066,0.816,0.1,1.35c0.066,0.9,0.083,1.633,0.05,2.2
	c-0.033,0.367-0.133,0.934-0.3,1.7C55.217,16.8,55.2,17,55.2,17.2z M13.7,14.05c0.233-0.066,0.417-0.083,0.55-0.05h0.1
	c0.021,0.005,0.046,0.014,0.075,0.025l0.025,0.025C14.183,14.05,13.933,14.05,13.7,14.05z M30.45,7.25L29.5,7.1
	c0.5-0.267,0.833-0.417,1-0.45C30.5,6.85,30.483,7.05,30.45,7.25z M9.7,1.075L7.2,2.45c-0.534,0.3-1.117,0.867-1.75,1.7
	c-0.633,0.833-1,1.533-1.1,2.1c0.4-0.4,0.983-0.867,1.75-1.4C7,4.283,7.6,3.867,7.9,3.6c0.267-0.233,0.6-0.717,1-1.45
	C9.183,1.584,9.45,1.226,9.7,1.075z"/>
<path style="fill-rule:evenodd;clip-rule:evenodd;fill:#BB9C5C;" d="M27.65,20.65c0.133,0.233,0.25,0.517,0.35,0.85
	c0.167,0.566,0.333,1.283,0.5,2.15c0.2,0.666,0.65,1.699,1.35,3.1c-1.267-0.3-2.133-1.066-2.6-2.3V24.4
	c-0.3-0.834-0.433-2.034-0.4-3.601v-0.3v-0.55c0.033-0.033,0.066-0.066,0.1-0.101C27.183,19.95,27.417,20.217,27.65,20.65z
	 M23.6,22.4c0.533,0.5,0.733,1.066,0.6,1.699c-0.7,0.101-1.333-0.366-1.9-1.399c-0.566-1.033-0.483-1.617,0.25-1.75L22.2,21.1
	C22.267,21.233,22.733,21.667,23.6,22.4z M32.15,25.85c-0.067-0.333-0.051-0.583,0.05-0.75l0.2-0.05l0.8-0.399
	c-0.066,0.5,0.116,1.233,0.55,2.199c0.3,0.7,0.5,1.301,0.6,1.801c0.034,0.199,0.034,0.399,0,0.6c-0.3-0.134-0.616-0.434-0.949-0.9
	c-0.233-0.3-0.45-0.633-0.65-1C32.417,26.75,32.217,26.25,32.15,25.85z M36.05,26.4c0,0.333,0.066,0.666,0.2,1
	c0.134,0.3,0.333,0.75,0.6,1.35C36.15,28.783,35.7,28.5,35.5,27.9c-0.134-0.767-0.267-1.351-0.4-1.75L35.05,26.1l1-0.149
	C36.017,26.083,36.017,26.233,36.05,26.4z M12.35,18.8l0.85,0.15c0.133-0.267,0.617-0.351,1.45-0.25c0.467,0.033,1.1,0.116,1.9,0.25
	c0.733,0.1,1.35,0.383,1.85,0.85c0.333,0.3,0.833,0.834,1.5,1.601c-0.566-0.034-1.283-0.167-2.15-0.4c-0.733-0.3-1.317-0.5-1.75-0.6
	c-0.067,0-0.167,0.066-0.3,0.199c-0.1,0.134-0.217,0.184-0.35,0.15c-0.267-0.033-0.8-0.333-1.6-0.9
	C12.95,19.35,12.483,19,12.35,18.8z"/>
<path style="fill-rule:evenodd;clip-rule:evenodd;fill:#C79E4C;" d="M11.05,0.15c0.1,0.033,0.184,0.117,0.25,0.25h-1.2h-0.05
	l0.3-0.05c0.2-0.067,0.417-0.133,0.65-0.2H11.05z M10.85,10.25c-0.1-0.067-0.167-0.1-0.2-0.1h-0.1c-0.133,0-0.617,0.083-1.45,0.25
	c-0.067,0-0.133,0.017-0.2,0.05c-0.233,0.033-0.467,0.066-0.7,0.1l-0.75,0.1H7.225C7.058,10.64,6.917,10.624,6.8,10.6
	c0.467-0.2,1.05-0.467,1.75-0.8l1.6-0.5c0.633-0.2,1.15-0.417,1.55-0.65c2.9-1.9,4.167-3.4,3.8-4.5c-0.233,0.1-0.583,0.2-1.05,0.3
	c0.6-0.4,0.733-0.833,0.4-1.3c-0.167-0.033-0.367-0.033-0.6,0c-1.567-0.167-2.633-0.017-3.2,0.45l-0.6,0.6
	c-0.767,0.2-1.333,0.233-1.7,0.1c0.3-0.2,0.683-0.55,1.15-1.05c0.567-0.567,0.95-0.933,1.15-1.1c0.434-0.3,0.717-0.533,0.85-0.7
	c0.267-0.3,0.05-0.417-0.65-0.35c0.133-0.3,0.15-0.533,0.05-0.7l3.35-0.15h0.05c0.233,0.067,0.583,0.167,1.05,0.3
	c0.073,0.032,0.148,0.065,0.225,0.1C15.686,0.545,15.428,0.462,15.2,0.4c0.033,0.2,0.033,0.434,0,0.7
	c-0.067,0.033-0.75,0.333-2.05,0.9c-0.833,0.367-1.467,0.733-1.9,1.1c0.367,0.066,0.783,0.017,1.25-0.15l1.15-0.4
	c0.2-0.033,0.5-0.05,0.9-0.05c0.367,0,0.65-0.017,0.85-0.05c0.233-0.034,0.5-0.133,0.8-0.3c0.333-0.2,0.6-0.316,0.8-0.35
	c0.333-0.1,1.017-0.117,2.05-0.05c0.667,0.233,1.25,0.4,1.75,0.5h0.05c0.018,0.017,0.035,0.033,0.05,0.05
	c0.267,0.282,0.117,0.548-0.45,0.8c-0.8,0.233-1.333,0.4-1.6,0.5c-2.1,0.9-3.717,2.183-4.85,3.85c-0.667,1-1.533,1.816-2.6,2.45
	C11.2,10,11.017,10.117,10.85,10.25z M13.75,10.1c-0.1,0.033-0.217,0.083-0.35,0.15c-0.446,0.208-0.813,0.375-1.1,0.5
	c-0.034,0.019-0.067,0.036-0.1,0.05v-0.025c0.137-0.289,0.304-0.564,0.5-0.825c0.733-1.034,1.3-1.817,1.7-2.35
	c0.7-0.934,1.35-1.617,1.95-2.05c0.633-0.4,1.483-0.767,2.55-1.1c0.6-0.2,1.5-0.467,2.7-0.8c0.9-0.267,1.883-0.417,2.95-0.45
	c1.333-0.034,2.267,0.167,2.8,0.6c-0.9,0.534-2.283,1.333-4.15,2.4c0.433-0.2,1.117-0.434,2.05-0.7c0.9-0.267,1.55-0.5,1.95-0.7
	c0.267-0.133,0.966-0.533,2.1-1.2c1.034-0.434,1.617-0.217,1.75,0.65c0.267-0.067,0.65-0.217,1.15-0.45
	c0.5-0.233,0.883-0.383,1.149-0.45c0.134,0.8-0.066,1.683-0.6,2.65c-0.328,0.525-0.77,1.208-1.325,2.05
	c0.638-0.91,1.68-1.71,3.125-2.4c2.033-1,3.283-1.683,3.75-2.05C39,3,39.4,2.467,39.5,2l-1.4,0.15l3.051-0.4V1.8
	c1.333-0.2,2.35-0.333,3.05-0.4c0.308-0.038,0.549-0.063,0.725-0.075C45.052,1.308,45.144,1.3,45.2,1.3c0.066,0,0.133,0,0.2,0H45.6
	l2.65,0.4c0.1,0.3-0.1,0.767-0.6,1.4c-0.4,0.533-0.801,0.933-1.2,1.2h1.6c0.066,0.5-0.033,1.167-0.3,2
	c-0.267,0.833-0.384,1.483-0.35,1.95c0.199-0.133,0.449-0.367,0.75-0.7c0.333-0.433,0.566-0.7,0.699-0.8
	c0.867-0.467,1.483-0.867,1.851-1.2c-0.033,0.667-0.101,1.8-0.2,3.4c-0.1,1.466-0.267,2.583-0.5,3.35
	c-0.233,0.733-0.634,1.317-1.2,1.75c-0.333,0.267-0.95,0.633-1.85,1.1c0.533-0.133,1.283-0.283,2.25-0.45c0.8-0.2,1.467-0.55,2-1.05
	c0.133-0.133,0.517-0.683,1.149-1.65c0.4-0.633,0.9-1.05,1.5-1.25c1.233-0.4,1.983,0.1,2.25,1.5c0.067,0.5,0.051,1.683-0.05,3.55
	c0,0.1-0.05,0.417-0.149,0.95c-0.167,0.067-0.334,0.167-0.5,0.3l-0.2,0.15c0-0.2,0.017-0.4,0.05-0.6
	c0.167-0.767,0.267-1.333,0.3-1.7c0.033-0.566,0.017-1.3-0.05-2.2c-0.033-0.534-0.066-0.983-0.1-1.35
	c-0.034,0.767-0.217,1.617-0.551,2.55c-0.267,0.767-0.683,1.867-1.25,3.3c-0.133,0.466-0.3,1.083-0.5,1.85
	c-0.733,0.667-1.149,1.033-1.25,1.101c-0.166,0.133-0.3,0.267-0.399,0.399c0.1-0.399,0.233-0.883,0.399-1.45
	c0.267-0.933,0.483-1.6,0.65-2c0.1-0.233,0.35-0.633,0.75-1.2c0.333-0.467,0.55-0.883,0.65-1.25c-0.267,0.3-0.634,0.8-1.101,1.5
	c-0.434,0.667-0.8,1.15-1.1,1.45c-0.566,0.633-1.517,1.183-2.851,1.65c-0.433,0.167-0.816,0.316-1.149,0.45
	c-0.334-0.267-0.717-0.584-1.15-0.95c-0.8-0.7-1.3-1.133-1.5-1.3c-0.767-0.567-1.967-0.817-3.6-0.75c-0.134,0-0.25,0-0.351,0
	c-0.199,0-0.366,0-0.5,0c0.2-0.2,0.351-0.434,0.45-0.7c0.167-0.5,0.217-1.267,0.15-2.3c-0.101-1.1-0.15-1.883-0.15-2.35
	c-0.434,0.433-1.083,1.183-1.95,2.25c-0.6,0.566-1.199,0.933-1.8,1.1c-0.3-0.4-0.55-0.717-0.75-0.95
	c-0.399-0.533-0.833-0.917-1.3-1.15c0.366-0.133,0.884-0.25,1.55-0.35c0.9-0.133,1.483-0.233,1.75-0.3c0.8-0.233,2-0.883,3.601-1.95
	c0.033,0.433-0.067,1.133-0.301,2.1c-0.199,0.933-0.3,1.65-0.3,2.15C41.917,14.183,42.4,13.8,43,13.1l0.05,1.45
	c1.066-0.466,1.783-0.95,2.15-1.45c0.366-0.567,0.533-1.383,0.5-2.45c-0.566-0.1-0.967-0.133-1.2-0.1
	c0.033-0.3,0.184-0.95,0.45-1.95c0.018-0.017,0.034-0.033,0.05-0.05c0.066-0.1,0.134-0.183,0.2-0.25h-0.15
	c0.167-0.633,0.217-1.183,0.15-1.65c-1.5,0.267-2.434,0.367-2.8,0.3c0.033-0.067,0.533-0.6,1.5-1.6c0.666-0.7,0.933-1.333,0.8-1.9
	C43.6,3.483,42.783,3.467,42.25,3.4c-0.167-0.233-0.533-0.35-1.1-0.35c-0.233,0-0.45,0.017-0.65,0.05
	c-0.333,0.467-0.75,0.85-1.25,1.15c-0.434,0.3-1.167,0.717-2.2,1.25c-0.899,0.533-2.217,1.35-3.95,2.45
	c-0.366,0.233-1.05,0.75-2.05,1.55c-0.933,0.667-1.65,0.967-2.15,0.9c0.033-0.1,0.367-0.7,1-1.8c0.2-0.333,0.35-0.65,0.45-0.95
	c0.1-0.1,0.217-0.217,0.35-0.35l-0.25-0.05c0.033-0.2,0.05-0.4,0.05-0.6c-0.167,0.033-0.5,0.184-1,0.45l-0.65-0.15
	c-0.067,0.133-0.2,0.35-0.4,0.65c-0.133,0.033-0.267,0.083-0.4,0.15c1.133-1.333,1.417-2.267,0.85-2.8
	c-0.167-0.167-0.533-0.217-1.1-0.15c-0.4,0.034-0.767,0.117-1.1,0.25c-0.367,0.167-1.5,0.967-3.4,2.4
	c-1.367,1.066-2.617,1.517-3.75,1.35c0.1-0.167,0.7-0.75,1.8-1.75c0.9-0.833,1.283-1.533,1.15-2.1h-0.4c0.133-0.1,0.167-0.2,0.1-0.3
	c-1.434-0.133-2.8,0.133-4.1,0.8c-0.067,0-0.133,0.017-0.2,0.05c-0.933,0.267-1.65,0.717-2.15,1.35c-0.233,0.3-0.467,0.7-0.7,1.2
	c-0.2,0.233-0.367,0.483-0.5,0.75C14.217,9.367,13.95,9.8,13.75,10.1z M53.65,4.7l0.05,0.25c0,1.5-0.066,2.566-0.2,3.2
	c-0.233,1.167-0.75,2.083-1.55,2.75c0.166-0.467,0.25-1.3,0.25-2.5C52.2,6.333,52.684,5.1,53.65,4.7z M54.8,6.3L54.9,6.55
	c0.066,1.233-0.217,2.167-0.851,2.8C53.983,8.017,54.233,7,54.8,6.3z"/>
<path style="fill-rule:evenodd;clip-rule:evenodd;fill:#9F7F3D;" d="M12.2,10.8h-0.1l-0.45,0.05c-0.133,0.033-0.3-0.083-0.5-0.35
	c-0.033-0.033-0.066-0.067-0.1-0.1L11,10.35c-0.067-0.067-0.117-0.1-0.15-0.1C11.017,10.117,11.2,10,11.4,9.9
	c1.067-0.633,1.934-1.45,2.6-2.45c1.133-1.667,2.75-2.95,4.85-3.85c0.267-0.1,0.8-0.267,1.6-0.5c0.567-0.252,0.717-0.519,0.45-0.8
	H21c2.267,0.467,5,0.65,8.2,0.55c1.367-0.067,4.333-0.3,8.899-0.7L39.5,2c-0.1,0.467-0.5,1-1.2,1.6
	c-0.467,0.367-1.717,1.05-3.75,2.05c-1.445,0.69-2.487,1.49-3.125,2.4C31.98,7.208,32.422,6.525,32.75,6
	c0.533-0.967,0.733-1.85,0.6-2.65C33.083,3.417,32.7,3.567,32.2,3.8c-0.5,0.233-0.884,0.383-1.15,0.45
	c-0.133-0.867-0.716-1.083-1.75-0.65c-1.133,0.667-1.833,1.066-2.1,1.2c-0.4,0.2-1.05,0.434-1.95,0.7
	C24.317,5.767,23.633,6,23.2,6.2c1.867-1.067,3.25-1.867,4.15-2.4c-0.533-0.433-1.467-0.633-2.8-0.6
	c-1.066,0.033-2.05,0.183-2.95,0.45c-1.2,0.333-2.1,0.6-2.7,0.8c-1.066,0.333-1.917,0.7-2.55,1.1c-0.6,0.434-1.25,1.117-1.95,2.05
	c-0.4,0.533-0.967,1.316-1.7,2.35c-0.196,0.261-0.363,0.536-0.5,0.825V10.8z M55.9,16.75c0.1-0.533,0.149-0.85,0.149-0.95
	c0.101-1.867,0.117-3.05,0.05-3.55c-0.267-1.4-1.017-1.9-2.25-1.5c-0.6,0.2-1.1,0.617-1.5,1.25c-0.633,0.967-1.017,1.517-1.149,1.65
	c-0.533,0.5-1.2,0.85-2,1.05c-0.967,0.167-1.717,0.316-2.25,0.45c0.899-0.467,1.517-0.833,1.85-1.1
	c0.566-0.433,0.967-1.017,1.2-1.75c0.233-0.767,0.4-1.883,0.5-3.35c0.1-1.6,0.167-2.733,0.2-3.4c-0.367,0.333-0.983,0.733-1.851,1.2
	c-0.133,0.1-0.366,0.367-0.699,0.8C47.85,7.883,47.6,8.117,47.4,8.25c-0.034-0.467,0.083-1.117,0.35-1.95
	c0.267-0.833,0.366-1.5,0.3-2h-1.6c0.399-0.267,0.8-0.667,1.2-1.2c0.5-0.633,0.699-1.1,0.6-1.4c-0.033-0.034-0.05-0.067-0.05-0.1
	c-0.066-0.133-0.134-0.217-0.2-0.25c1.033,0.1,1.95,0.333,2.75,0.7c0.8,0.333,1.616,0.733,2.45,1.2
	c0.633,0.333,1.283,0.717,1.95,1.15c0.933,0.567,1.699,1.1,2.3,1.6c-0.033,0-0.084,0.017-0.15,0.05C57.833,6.283,58.15,6.6,58.25,7
	c0.033,0.267,0.083,0.717,0.15,1.35c0.366,1.566,0.6,2.517,0.699,2.85c0.367,1.1,0.567,2.15,0.601,3.15c0.1,1.4-0.15,2.367-0.75,2.9
	c-0.467,0.433-0.917,0.467-1.351,0.1c-0.6-0.5-1.066-0.733-1.399-0.7h-0.05C56.083,16.65,56,16.683,55.9,16.75z M53.65,4.7
	c-0.967,0.4-1.45,1.633-1.45,3.7c0,1.2-0.084,2.033-0.25,2.5c0.8-0.667,1.316-1.583,1.55-2.75c0.134-0.633,0.2-1.7,0.2-3.2
	L53.65,4.7z M54.8,6.3c-0.566,0.7-0.816,1.717-0.75,3.05c0.634-0.633,0.917-1.567,0.851-2.8L54.8,6.3z M40.6,16.7
	c-1.1-0.067-1.933-0.383-2.5-0.95c-0.3-0.4-0.566-0.75-0.8-1.05c0.601-0.167,1.2-0.534,1.8-1.1c0.867-1.067,1.517-1.817,1.95-2.25
	c0,0.467,0.05,1.25,0.15,2.35c0.066,1.033,0.017,1.8-0.15,2.3C40.95,16.267,40.8,16.5,40.6,16.7z M51.45,20.55
	C51.316,20.65,51.2,20.767,51.1,20.9C51,21,50.8,21.066,50.5,21.1c-0.134,0-0.25-0.017-0.35-0.05H50.1c-0.033,0-0.066,0-0.1,0
	c-0.4-0.033-1.033-0.383-1.9-1.05c-0.133-0.1-0.267-0.2-0.399-0.3c0.333-0.134,0.717-0.283,1.149-0.45
	c1.334-0.467,2.284-1.017,2.851-1.65c0.3-0.3,0.666-0.783,1.1-1.45c0.467-0.7,0.834-1.2,1.101-1.5
	c-0.101,0.367-0.317,0.783-0.65,1.25c-0.4,0.567-0.65,0.967-0.75,1.2c-0.167,0.4-0.384,1.067-0.65,2
	C51.684,19.667,51.55,20.15,51.45,20.55z M31.15,17.85c0.833-0.1,1.399-0.117,1.699-0.05c0.267,0.067,0.534,0.15,0.801,0.25
	c-0.667-0.033-1.5-0.066-2.5-0.1C31.15,17.917,31.15,17.883,31.15,17.85z M15.975,0.65c0.181,0.058,0.373,0.125,0.575,0.2L17,1
	c0.6,0.2,1.3,0.45,2.1,0.75h-0.05C18.017,1.683,17.333,1.7,17,1.8c-0.2,0.034-0.467,0.15-0.8,0.35c-0.3,0.167-0.567,0.267-0.8,0.3
	c-0.2,0.033-0.483,0.05-0.85,0.05c-0.4,0-0.7,0.017-0.9,0.05l-1.15,0.4c-0.467,0.167-0.883,0.216-1.25,0.15
	c0.433-0.367,1.067-0.733,1.9-1.1c1.3-0.567,1.983-0.867,2.05-0.9c0.033-0.267,0.033-0.5,0-0.7
	C15.428,0.462,15.686,0.545,15.975,0.65z"/>
<path style="fill-rule:evenodd;clip-rule:evenodd;fill:#E9C67C;" d="M40.55,3.45L40.7,3.8c0.2-0.2,0.6-0.233,1.2-0.1
	c0.3,0.066,0.733,0.2,1.3,0.4c-0.367,0.667-1.45,1.65-3.25,2.95c-1.9,1.367-2.884,1.667-2.95,0.9c-0.434-0.034-1,0.167-1.7,0.6
	c-1.033,0.6-1.583,0.917-1.649,0.95L33.55,9.1C33.15,9.067,32.634,9.25,32,9.65c-0.733,0.467-1.233,0.733-1.5,0.8
	c0.5-0.733,1.2-1.417,2.1-2.05c1.134-0.7,1.983-1.25,2.551-1.65c1.267-0.6,2.283-1.083,3.05-1.45
	C39.6,4.633,40.384,4.017,40.55,3.45z M44.95,8.6c-0.42,0.475-0.886,1.258-1.4,2.35c-0.633,1.3-1.283,2.183-1.95,2.65
	c0.2-0.667,0.551-1.567,1.051-2.7c0.5-1.167,0.85-2.033,1.05-2.6h1.35h0.15c-0.066,0.067-0.134,0.15-0.2,0.25
	C44.984,8.567,44.968,8.583,44.95,8.6z M29.5,7.1l0.95,0.15L30.7,7.3c-0.133,0.133-0.25,0.25-0.35,0.35
	c-1.033,1.033-1.583,1.583-1.65,1.65c-0.8,0.667-1.633,1.1-2.5,1.3c0.1-0.533,0.5-1.167,1.2-1.9c0.434-0.467,0.783-0.833,1.05-1.1
	c0.2-0.3,0.333-0.517,0.4-0.65L29.5,7.1z M23.2,10.15c-0.167,0.033-0.3,0.05-0.4,0.05c-0.066,0-0.117,0-0.15,0
	c-0.333,0-0.65-0.067-0.95-0.2c0.9-1.033,1.583-1.767,2.05-2.2c0.5-0.4,0.883-0.716,1.15-0.95c0.434-0.4,0.7-0.75,0.8-1.05l2.65-0.7
	c-0.3,0.133-1.25,1.233-2.85,3.3C24.733,9.367,23.967,9.95,23.2,10.15z M15.05,8.05c0.233-0.5,0.467-0.9,0.7-1.2
	c0.5-0.633,1.217-1.083,2.15-1.35c0.067-0.033,0.133-0.05,0.2-0.05c1.6-0.5,2.85-0.717,3.75-0.65H21.7
	c-1.4,1.233-2.567,2.034-3.5,2.4c-0.9,0.3-1.567,0.533-2,0.7c-0.733,0.3-1.3,0.75-1.7,1.35C14.667,8.817,14.85,8.417,15.05,8.05z
	 M14.25,3.15c0.033,0,0.067,0,0.1,0c-0.3,0.967-1.383,2.133-3.25,3.5c-1.867,1.4-3.2,1.983-4,1.75c0-0.433,0.033-0.75,0.1-0.95
	C6.4,7.75,5.8,7.9,5.4,7.9c0.833-1.4,2.434-2.55,4.8-3.45l0.25-0.25l0.6-0.6C11.617,3.133,12.683,2.983,14.25,3.15z M9.7,1.075
	C9.45,1.226,9.183,1.584,8.9,2.15c-0.4,0.733-0.733,1.217-1,1.45C7.6,3.867,7,4.283,6.1,4.85c-0.767,0.533-1.35,1-1.75,1.4
	c0.1-0.567,0.467-1.267,1.1-2.1c0.633-0.833,1.216-1.4,1.75-1.7L9.7,1.075z"/>
<path style="fill-rule:evenodd;clip-rule:evenodd;fill:#F5DB85;" d="M13.75,10.1c0.6-0.267,1.117-0.367,1.55-0.3
	c0.267,0.034,0.567,0.15,0.9,0.35l0.05,0.05l0.1,0.1c0.167,0.267,0.283,0.767,0.35,1.5c0.033,0.633,0.2,1.067,0.5,1.3
	c0.8,0.6,1.85,0.4,3.15-0.6c1.933-1.467,3-2.25,3.2-2.35c0.9,0.067,1.9,0.434,3,1.1c1.767,1.1,3.217,1.6,4.35,1.5
	c-0.867,0.1-1.733-0.067-2.6-0.5c0.034,0.2,0,0.517-0.1,0.95c-0.1,0.433-0.15,0.783-0.15,1.05c0.9,0.1,2.017-0.117,3.351-0.65
	c1.966-0.8,3.033-1.217,3.199-1.25l-0.1-0.05c0.267,0.067,0.517,0.167,0.75,0.3c0.467,0.233,0.9,0.617,1.3,1.15
	c0.2,0.233,0.45,0.55,0.75,0.95c0.233,0.3,0.5,0.65,0.8,1.05l-0.05-0.05v0.45c0,0.267-0.1,0.667-0.3,1.2
	c-0.1,0.467-0.05,0.833,0.15,1.1c0.5-0.134,1.05-0.384,1.649-0.75c0.7-0.467,1.217-0.8,1.55-1c0.101,0,0.217,0,0.351,0
	c1.633-0.067,2.833,0.183,3.6,0.75c0.2,0.167,0.7,0.6,1.5,1.3c0.434,0.366,0.816,0.684,1.15,0.95c0.133,0.1,0.267,0.2,0.399,0.3
	c0.867,0.667,1.5,1.017,1.9,1.05c0.033,0,0.066,0,0.1,0h0.051c0.566,0.533,1.3,0.684,2.199,0.45c0.867-0.233,1.75-0.583,2.65-1.05
	c0.066-0.033,0.167-0.033,0.3,0c0.167,0.033,0.267,0.05,0.3,0.05c0.167-0.1,0.301-0.283,0.4-0.55c0.134-0.267,0.267-0.45,0.4-0.55
	c0.6-0.534,1.199-0.733,1.8-0.601c0,1.134-0.066,1.851-0.2,2.15c-0.2,0.467-0.55,0.767-1.05,0.899
	c-0.566,0.101-1.017,0.184-1.351,0.25c-0.333,0.101-1.216,0.45-2.649,1.051c-1,0.433-1.983,0.633-2.95,0.6
	c-0.733,0-1.333-0.1-1.8-0.3c-0.334-0.167-0.851-0.5-1.55-1c-0.534-0.434-0.934-0.684-1.2-0.75c-0.3-0.101-0.767-0.066-1.4,0.1
	c-1.434,0.434-2.25,0.667-2.45,0.7c-0.866,0.167-1.716,0.083-2.55-0.25c-0.934-0.366-2.2-1.8-3.8-4.3
	c-1.233-1.934-2.866-2.65-4.9-2.15c-1,0.333-1.767,0.534-2.3,0.6c-0.867,0.133-1.583-0.033-2.15-0.5
	c-0.8-0.767-1.367-1.283-1.7-1.55c-0.567-0.4-1.35-0.533-2.35-0.4c-0.3,0.033-0.934,0.167-1.9,0.4
	c-0.767,0.167-1.417,0.25-1.95,0.25c-0.9,0-1.517-0.184-1.85-0.55c-0.367-0.533-0.783-1.017-1.25-1.45
	c-0.467-0.434-1.066-0.4-1.8,0.1c-0.4,0.3-1.033,0.816-1.9,1.55c-0.833,0.533-1.383,0.783-1.65,0.75
	C9.217,14.933,9.033,14.417,9,13.45c-0.067,0-0.867,0.083-2.4,0.25c-1.067,0.1-1.817-0.034-2.25-0.4
	c-0.3-0.233-0.483-0.65-0.55-1.25c-0.066-0.667-0.167-1.083-0.3-1.25c-0.233-0.367-0.7-0.55-1.4-0.55
	c-0.767,0.033-1.333,0.033-1.7,0l-0.05-1.8c0.633-1.034,1.066-1.817,1.3-2.35c0.067-0.167,0.167-0.583,0.3-1.25
	c0.1-0.5,0.267-0.883,0.5-1.15C2.65,3.467,3.1,3.317,3.8,3.25C2.967,4.117,2.467,5.1,2.3,6.2C2.1,7.4,2.583,7.833,3.75,7.5
	c0.1,0.333,0.283,1.05,0.55,2.15c0.233,1.067,0.467,1.733,0.7,2c0.333,0.434,1.083,0.517,2.25,0.25c1.1-0.267,1.883-0.633,2.35-1.1
	c0.167,0.2,0.35,0.467,0.55,0.8c0.233,0.267,0.533,0.383,0.9,0.35c0.333-0.034,0.8-0.284,1.4-0.75c0.633-0.534,1.033-0.85,1.2-0.95
	c-0.506,0.253-0.957,0.42-1.35,0.5c0.288-0.125,0.654-0.292,1.1-0.5C13.533,10.183,13.65,10.133,13.75,10.1z M14.425,14.025
	c0.11,0.043,0.235,0.135,0.375,0.275c-0.133-0.1-0.25-0.183-0.35-0.25L14.425,14.025z M22.8,10.2c-0.233,0.033-0.466,0.083-0.7,0.15
	c0.167-0.067,0.35-0.117,0.55-0.15C22.683,10.2,22.733,10.2,22.8,10.2z M7.225,10.65c-0.209-0.008-0.393-0.025-0.55-0.05
	c0.042,0,0.083,0,0.125,0C6.917,10.624,7.058,10.64,7.225,10.65z"/>
<path style="fill-rule:evenodd;clip-rule:evenodd;fill:#CAB262;" d="M14.8,14.3c-0.14-0.14-0.265-0.232-0.375-0.275
	c-0.029-0.011-0.054-0.02-0.075-0.025h-0.1c-0.133-0.033-0.317-0.017-0.55,0.05c-0.034,0-0.083,0.017-0.15,0.05
	c-0.033,0-0.083,0.017-0.15,0.05l-0.15,0.05c-0.5,0.233-0.85,0.383-1.05,0.45c-0.633,0.367-1.083,0.617-1.35,0.75
	c-0.5,0.267-1.017,0.417-1.55,0.45c-0.267-1.067-0.767-1.6-1.5-1.6c-0.033,0-0.066,0-0.1,0c-0.267,0.067-0.534,0.133-0.8,0.2
	c-0.633,0.133-1.15,0.2-1.55,0.2c-1,0-1.6-0.283-1.8-0.85c-0.133-0.7-0.25-1.35-0.35-1.95c-0.067-0.267-0.117-0.517-0.15-0.75
	c-0.2,0.066-0.383,0.117-0.55,0.15c-0.733,0.1-1.5,0.117-2.3,0.05c-0.233-0.633-0.284-1.267-0.15-1.9l0.1-0.35
	c0.033-0.2,0.1-0.417,0.2-0.65v0.05l0.05,1.8c0.367,0.033,0.934,0.033,1.7,0c0.7,0,1.167,0.183,1.4,0.55
	c0.133,0.167,0.233,0.583,0.3,1.25c0.067,0.6,0.25,1.017,0.55,1.25c0.433,0.367,1.183,0.5,2.25,0.4c1.533-0.167,2.333-0.25,2.4-0.25
	c0.033,0.966,0.217,1.483,0.55,1.55c0.267,0.033,0.817-0.217,1.65-0.75c0.867-0.733,1.5-1.25,1.9-1.55
	c0.733-0.5,1.333-0.534,1.8-0.1c0.467,0.433,0.883,0.917,1.25,1.45c0.333,0.367,0.95,0.55,1.85,0.55c0.533,0,1.183-0.083,1.95-0.25
	c0.966-0.233,1.6-0.367,1.9-0.4c1-0.133,1.783,0,2.35,0.4c0.333,0.267,0.9,0.783,1.7,1.55c0.567,0.467,1.283,0.633,2.15,0.5
	c0.534-0.066,1.3-0.267,2.3-0.6c2.034-0.5,3.667,0.217,4.9,2.15c1.6,2.5,2.866,3.934,3.8,4.3c0.834,0.333,1.684,0.417,2.55,0.25
	c0.2-0.033,1.017-0.267,2.45-0.7c0.634-0.166,1.101-0.2,1.4-0.1c0.267,0.066,0.666,0.316,1.2,0.75c0.699,0.5,1.216,0.833,1.55,1
	c0.467,0.2,1.066,0.3,1.8,0.3c0.967,0.033,1.95-0.167,2.95-0.6c1.434-0.601,2.316-0.95,2.649-1.051
	c0.334-0.066,0.784-0.149,1.351-0.25c0.5-0.133,0.85-0.433,1.05-0.899c0.134-0.3,0.2-1.017,0.2-2.15
	C57.6,18.667,57,18.866,56.4,19.4c-0.134,0.1-0.267,0.283-0.4,0.55c-0.1,0.267-0.233,0.45-0.4,0.55c-0.033,0-0.133-0.017-0.3-0.05
	c-0.133-0.033-0.233-0.033-0.3,0c-0.9,0.467-1.783,0.816-2.65,1.05c-0.899,0.233-1.633,0.083-2.199-0.45
	c0.1,0.033,0.216,0.05,0.35,0.05c0.3-0.033,0.5-0.1,0.6-0.199c0.101-0.134,0.217-0.25,0.351-0.351
	c0.1-0.133,0.233-0.267,0.399-0.399c0.101-0.067,0.517-0.434,1.25-1.101c0.2-0.2,0.45-0.434,0.75-0.7
	c0.067-0.066,0.117-0.116,0.15-0.149c0.434-0.434,0.833-0.767,1.2-1l0.2-0.15c0.166-0.133,0.333-0.233,0.5-0.3
	c0.1-0.067,0.183-0.1,0.25-0.1h0.05c0.333-0.033,0.8,0.2,1.399,0.7c0.434,0.367,0.884,0.333,1.351-0.1c0.6-0.533,0.85-1.5,0.75-2.9
	c-0.033-1-0.233-2.05-0.601-3.15C59,10.867,58.767,9.917,58.4,8.35C58.333,7.717,58.283,7.267,58.25,7
	c-0.1-0.4-0.417-0.717-0.95-0.95C57.366,6.017,57.417,6,57.45,6c0.934-0.233,1.666,0.133,2.2,1.1c0.1,0.2,0.25,0.65,0.449,1.35
	c0.134,0.4,0.284,0.883,0.45,1.45c0.233,0.7,0.566,1.7,1,3c0.334,1.1,0.55,2.133,0.65,3.1c-0.134,0-0.4,0.067-0.8,0.2
	c-0.367,0.167-0.634,0.233-0.801,0.2c0.267,2.067,0.267,3.534,0,4.4c-0.366,1.3-1.35,2.033-2.949,2.2
	c-0.733,0.033-1.25,0.066-1.551,0.1c-0.333,0.034-0.683,0.167-1.05,0.4c-0.1,0.033-0.2,0.083-0.3,0.15
	c-0.066,0-0.116,0.017-0.15,0.05l-1.55,1c-0.633,0.399-1.166,0.666-1.6,0.8c-1.3,0.434-2.483,0.45-3.55,0.05
	c-1.267-0.6-2.351-1.066-3.25-1.399c-0.601-0.2-1.733-0.184-3.4,0.05c-1.434,0.166-2.45,0-3.05-0.5c-0.5-0.434-1.25-1.566-2.25-3.4
	c-0.601-1.1-1.367-1.85-2.3-2.25c-0.267-0.1-0.534-0.183-0.801-0.25c-0.3-0.066-0.866-0.05-1.699,0.05
	c-0.601,0.033-1.333,0.117-2.2,0.25c-1.434,0.2-2.583-0.2-3.45-1.2c-1.3-1.467-2.367-2.283-3.2-2.45c-0.733-0.167-2,0.117-3.8,0.85
	c-0.6,0.233-1.1,0.35-1.5,0.35c-0.367,0-0.85-0.133-1.45-0.4c-0.133-0.067-0.316-0.283-0.55-0.65v-0.05L14.8,14.3z M6.675,10.6
	c0.157,0.024,0.341,0.042,0.55,0.05H7.45l0.75-0.1c0.233-0.033,0.466-0.066,0.7-0.1c0.067-0.034,0.133-0.05,0.2-0.05
	c0.833-0.167,1.316-0.25,1.45-0.25h0.1c0.033,0,0.1,0.033,0.2,0.1c0.033,0,0.083,0.033,0.15,0.1l0.05,0.05
	c0.034,0.033,0.067,0.067,0.1,0.1c0.2,0.267,0.367,0.383,0.5,0.35l0.45-0.05h0.1c0.032-0.014,0.066-0.031,0.1-0.05
	c0.394-0.08,0.844-0.247,1.35-0.5c-0.167,0.1-0.566,0.417-1.2,0.95c-0.6,0.466-1.067,0.716-1.4,0.75
	c-0.367,0.033-0.667-0.083-0.9-0.35c-0.2-0.333-0.383-0.6-0.55-0.8c-0.467,0.467-1.25,0.833-2.35,1.1
	C6.083,12.167,5.333,12.083,5,11.65c-0.233-0.267-0.467-0.933-0.7-2C4.033,8.55,3.85,7.833,3.75,7.5C2.583,7.833,2.1,7.4,2.3,6.2
	c0.167-1.1,0.667-2.083,1.5-2.95c0.034,0,0.05-0.017,0.05-0.05L5.3,3.05l1.6-0.9c-0.367,0.4-1.15,1.133-2.35,2.2
	c-0.966,1.066-1.3,2.1-1,3.1c0.133-0.067,0.35-0.1,0.65-0.1c0.333,0,0.55-0.033,0.65-0.1c0.566,1.867,1,2.917,1.3,3.15l0.05,0.05
	c0.066,0.033,0.15,0.066,0.25,0.1c0.047,0.014,0.098,0.022,0.15,0.025C6.625,10.581,6.65,10.589,6.675,10.6z M41.1,16.7
	c-0.333,0.2-0.85,0.533-1.55,1c-0.6,0.366-1.149,0.616-1.649,0.75c-0.2-0.267-0.25-0.633-0.15-1.1c0.2-0.533,0.3-0.934,0.3-1.2V15.7
	l0.05,0.05c0.567,0.567,1.4,0.883,2.5,0.95C40.733,16.7,40.9,16.7,41.1,16.7z M30.9,12.75l0.15-0.05
	c0.367-0.034,0.934-0.15,1.7-0.35c0.7-0.167,1.283-0.184,1.75-0.05l0.1,0.05c-0.166,0.033-1.233,0.45-3.199,1.25
	c-1.333,0.533-2.45,0.75-3.351,0.65c0-0.267,0.05-0.617,0.15-1.05c0.1-0.434,0.133-0.75,0.1-0.95
	C29.167,12.683,30.033,12.85,30.9,12.75z M23.55,10.15c-0.2,0.1-1.267,0.883-3.2,2.35c-1.3,1-2.35,1.2-3.15,0.6
	c-0.3-0.233-0.467-0.667-0.5-1.3c-0.067-0.733-0.184-1.233-0.35-1.5l-0.1-0.1c0.267,0.133,0.55,0.316,0.85,0.55
	c0.133,0.1,0.25,0.183,0.35,0.25c0.466,0.333,0.9,0.55,1.3,0.65c0.033,0,0.083,0,0.15,0c0.5,0.067,1.067-0.066,1.7-0.4
	c0.333-0.2,0.833-0.5,1.5-0.9c0.233-0.067,0.467-0.117,0.7-0.15c0.1,0,0.233-0.017,0.4-0.05C23.3,10.15,23.417,10.15,23.55,10.15z"
	/>
<linearGradient id="SVGID_1_" gradientUnits="userSpaceOnUse" x1="14.4751" y1="22.002" x2="63.3251" y2="22.002">
	<stop  offset="0" style="stop-color:#000000;stop-opacity:0.3294"/>
	<stop  offset="1" style="stop-color:#000000;stop-opacity:0.3294"/>
</linearGradient>
<path style="fill-rule:evenodd;clip-rule:evenodd;fill:url(#SVGID_1_);" d="M21.25,24.4c0.567,0.267,1.033,0.5,1.4,0.699
	c0.533,0.301,1.583,0.934,3.15,1.9c1.167,0.7,2.25,1.267,3.25,1.7c0.767,0.333,2.15,0.633,4.15,0.899
	c2.066,0.301,3.434,0.567,4.1,0.801c0.9,0.333,2.084,0.433,3.55,0.3c0.2,0,1.434-0.184,3.7-0.55c0.733-0.101,1.767-0.25,3.101-0.45
	c0.699-0.167,1.316-0.434,1.85-0.8c0.333-0.2,0.65-0.4,0.95-0.601c1.899-1.3,3.434-2.899,4.6-4.8c0.367-0.233,0.717-0.366,1.05-0.4
	c0.301-0.033,0.817-0.066,1.551-0.1c1.6-0.167,2.583-0.9,2.949-2.2c0.267-0.866,0.267-2.333,0-4.4
	c0.167,0.033,0.434-0.033,0.801-0.2c0.399-0.133,0.666-0.2,0.8-0.2c-0.101-0.967-0.316-2-0.65-3.1c-0.434-1.3-0.767-2.3-1-3
	c-0.166-0.566-0.316-1.05-0.45-1.45c0.067,0.033,0.134,0.066,0.2,0.1c0.8,0.534,1.316,0.95,1.55,1.25c0.267,0.367,0.5,0.9,0.7,1.6
	c0.101,0.4,0.217,0.967,0.351,1.7c0.533,1.767,0.583,3.316,0.149,4.65c-0.033,0.1-0.25,0.583-0.649,1.45
	c-0.2,0.5-0.317,1.017-0.351,1.55c0,0.434,0,1.033,0,1.8c-0.033,0.667-0.2,1.233-0.5,1.7c-0.399,0.566-1.05,0.85-1.95,0.85
	c-1.033,0-1.75,0.117-2.149,0.351c-0.2,0.1-0.584,0.616-1.15,1.55c-0.133,0.167-0.467,0.533-1,1.1
	c-0.434,0.434-0.75,0.817-0.95,1.15c-0.633,1.033-1.399,2.417-2.3,4.15c-0.566,1.133-0.866,1.716-0.899,1.75
	c-0.267,0.3-0.801,0.433-1.601,0.399c-1.233,0-2.184-0.217-2.85-0.649c-0.601-0.434-0.983-0.684-1.15-0.75
	C45.384,34.083,45,34.134,44.4,34.3c-0.667,0.167-1.717,0.033-3.15-0.399c-1.3-0.434-2.366-0.483-3.2-0.15
	c-0.1,0.033-0.833,0.167-2.2,0.4c-1.033,0.166-1.649,0.433-1.85,0.8c-1.033-1.134-2.25-1.867-3.65-2.2
	c-0.733-0.167-1.133-0.267-1.2-0.3c-0.233-0.101-0.55-0.434-0.95-1c-0.367-0.601-0.967-1.334-1.8-2.2c-0.4-0.4-0.917-0.767-1.55-1.1
	c-0.867-0.434-1.417-0.733-1.65-0.9C22.6,26.783,22,26,21.4,24.9C21.367,24.8,21.317,24.634,21.25,24.4z"/>
</svg>
