<?xml version="1.0" encoding="iso-8859-1"?>
<!-- Generator: Adobe Illustrator 15.1.0, SVG Export Plug-In . SVG Version: 6.00 Build 0)  -->
<!DOCTYPE svg PUBLIC "-//W3C//DTD SVG 1.1//EN" "http://www.w3.org/Graphics/SVG/1.1/DTD/svg11.dtd">
<svg version="1.1" id="Layer_1" xmlns="http://www.w3.org/2000/svg" xmlns:xlink="http://www.w3.org/1999/xlink" x="0px" y="0px"
	 width="66.15px" height="123.3px" viewBox="0 0 66.15 123.3" style="enable-background:new 0 0 66.15 123.3;" xml:space="preserve"
	>
<g>
	<path style="fill-rule:evenodd;clip-rule:evenodd;fill:#ABA082;" d="M62.5,17.5c-0.167,0.033-0.333,0.1-0.5,0.2
		c-0.1,0.066-0.384,0.333-0.85,0.8l-0.2-13.15c0-0.033,0-0.067,0-0.1s0-0.067,0-0.1l-0.2-1.2c-0.2-0.8-0.6-1.5-1.2-2.1
		c-0.767-0.8-1.649-1.267-2.649-1.4h0.6c1.3,0,2.417,0.483,3.35,1.45c0.301,0.333,0.567,0.684,0.801,1.05
		c0.399,0.7,0.616,1.5,0.649,2.4L62.5,17.5z M57.4,47.75c0.6-0.067,1.166-0.25,1.699-0.55c-0.199,0.167-0.399,0.35-0.6,0.55
		c-0.167,0-0.317,0-0.45,0H57.4z"/>
	<path style="fill-rule:evenodd;clip-rule:evenodd;fill:#FFF7E3;" d="M3.1,17.75c-0.167-0.067-0.317-0.117-0.45-0.15l0.1-12.8
		c0-1.333,0.45-2.466,1.35-3.4C4.967,0.467,6.033,0,7.3,0h48.45c1.566,0,2.884,0.25,3.95,0.75c1.1,0.5,1.75,1.233,1.95,2.2
		c-0.233-0.367-0.5-0.717-0.801-1.05c-0.933-0.967-2.05-1.45-3.35-1.45h-0.6c-0.233-0.034-0.467-0.05-0.7-0.05H7.75
		c-1.267,0-2.333,0.467-3.2,1.4C3.65,2.733,3.2,3.867,3.2,5.2L3.1,17.75z M60.95,18.7c-0.033-0.333-0.05-0.65-0.05-0.95
		c-0.267-9.333-0.65-14.533-1.15-15.6c0.467,0.533,0.8,1.133,1,1.8l0.2,1.2c0,0.033,0,0.067,0,0.1s0,0.067,0,0.1l0.2,13.15
		C61.083,18.533,61.017,18.6,60.95,18.7z M53.45,47.7c3.399-0.5,5.633-1.617,6.7-3.35v0.15c0,1-0.351,1.9-1.051,2.7
		c-0.533,0.3-1.1,0.483-1.699,0.55c-0.134,0-0.25,0-0.351,0L53.45,47.7z"/>
	
		<linearGradient id="SVGID_1_" gradientUnits="userSpaceOnUse" x1="4.882813e-004" y1="33.6143" x2="65.6524" y2="33.6143" gradientTransform="matrix(1 0.0076 0 1 -1.865625e-005 -1.768181e-004)">
		<stop  offset="0" style="stop-color:#B3AFA5"/>
		<stop  offset="0.1294" style="stop-color:#DEDACD"/>
		<stop  offset="0.2706" style="stop-color:#A4A198"/>
		<stop  offset="0.698" style="stop-color:#5B5A53"/>
		<stop  offset="0.7686" style="stop-color:#5F5E57"/>
		<stop  offset="0.8353" style="stop-color:#6A6961"/>
		<stop  offset="0.898" style="stop-color:#7D7C74"/>
		<stop  offset="0.9608" style="stop-color:#98978D"/>
		<stop  offset="1" style="stop-color:#ACABA0"/>
	</linearGradient>
	<path style="fill-rule:evenodd;clip-rule:evenodd;fill:url(#SVGID_1_);" d="M57.3,50.8l-21.8-0.7l-5.85-0.2l-22.7-0.8
		c-1.767-0.067-3.284-0.6-4.55-1.6S0.483,45.333,0.45,44L0,19.4c0.167-0.467,0.283-0.767,0.35-0.9c0.066-0.1,0.167-0.017,0.3,0.25
		c0.1,0.2,0.217,0.517,0.35,0.95l0.6,22.85c0,1.267,0.683,2.417,2.05,3.45c1.333,1.033,2.817,1.583,4.45,1.65l6.8,0.2l39.35,1.2
		c1.634,0.067,3.017-0.35,4.15-1.25c0.032-0.032,0.065-0.049,0.1-0.05c0.2-0.2,0.4-0.383,0.6-0.55c0.7-0.8,1.051-1.7,1.051-2.7
		v-0.15v-24.9c0.3-0.3,0.566-0.55,0.8-0.75c0.066-0.1,0.133-0.167,0.2-0.2c0.466-0.467,0.75-0.733,0.85-0.8
		c0.167-0.1,0.333-0.167,0.5-0.2c0.267-0.1,0.55-0.15,0.85-0.15c-0.333,0.1-0.616,0.25-0.85,0.45c-0.566,0.434-0.9,1.133-1,2.1
		c-0.066,0.667-0.134,3.35-0.2,8.05c-0.033,1.733-0.066,3.75-0.1,6.05c-0.033,3.667-0.05,7.283-0.05,10.85
		c-0.034,0.5-0.051,1.017-0.051,1.55L60.7,48.45C60.066,49.85,58.934,50.633,57.3,50.8z"/>
	<path style="fill-rule:evenodd;clip-rule:evenodd;fill:#5F5E57;" d="M64.15,18.5c-0.067,0-0.117,0-0.15,0
		c-0.434,0-0.816,0.267-1.15,0.8c-0.3,0.534-0.449,1.184-0.449,1.95c0,0.7,0.116,1.3,0.35,1.8c0.134,0.4,0.3,0.75,0.5,1.05
		c0.4,0.566,0.816,0.816,1.25,0.75c0.066,0,0.15-0.017,0.25-0.05c0.3-0.1,0.566-0.4,0.8-0.9c0.033-0.1,0.066-0.2,0.101-0.3v22.5
		c0,1.367-0.65,2.517-1.95,3.45c-1.267,0.934-2.834,1.367-4.7,1.3h-0.15L58.3,50.8c1.634-0.167,2.733-1.066,3.3-2.7l0.301-2.4
		c-0.034-3.934-0.067-7.95-0.101-12.05c-0.033-8.233,0-12.816,0.101-13.75c0.166-1.367,0.816-2.2,1.949-2.5
		c0.167,0.033,0.317,0.083,0.45,0.15c0.467,0.2,0.917,0.534,1.351,1v0.65c-0.233-0.434-0.534-0.667-0.9-0.7
		c-0.066-0.033-0.134-0.05-0.2-0.05c-0.033,0-0.066,0-0.1,0C64.35,18.45,64.25,18.467,64.15,18.5z M3.1,17.75l-0.25,24
		c-0.033,1.367,0.4,2.55,1.3,3.55c0.8,0.833,1.733,1.333,2.8,1.5c0.8,0.5,1.716,0.767,2.75,0.8l5.2,0.15v0.1l-6.8-0.2
		C6.467,47.583,4.983,47.033,3.65,46c-1.367-1.033-2.05-2.183-2.05-3.45L1,19.7c-0.133-0.434-0.25-0.75-0.35-0.95V18.3
		c0.333-0.367,0.85-0.6,1.55-0.7c0.133,0,0.283,0,0.45,0C2.783,17.633,2.933,17.683,3.1,17.75z"/>
	<path style="fill-rule:evenodd;clip-rule:evenodd;fill:#B3B0A3;" d="M64.35,23.95c-0.399-0.034-0.75-0.3-1.05-0.8
		c-0.3-0.533-0.45-1.183-0.45-1.95c0-0.767,0.15-1.417,0.45-1.95c0.233-0.4,0.517-0.65,0.851-0.75c0.1-0.033,0.199-0.05,0.3-0.05
		c-0.4,0.033-0.733,0.3-1,0.8c-0.334,0.533-0.5,1.183-0.5,1.95c0,0.733,0.166,1.383,0.5,1.95c0.267,0.5,0.6,0.767,1,0.8
		C64.417,23.95,64.384,23.95,64.35,23.95z M58.85,50.85c-0.267,0-0.55,0-0.85,0l-0.7-0.05c1.634-0.167,2.767-0.95,3.4-2.35
		L61.1,46.4c0-0.533,0.017-1.05,0.051-1.55c0-3.567,0.017-7.184,0.05-10.85c0.033-2.3,0.066-4.317,0.1-6.05
		c0.066-4.7,0.134-7.383,0.2-8.05c0.1-0.967,0.434-1.667,1-2.1c0.233-0.2,0.517-0.35,0.85-0.45c0-0.033,0.017-0.05,0.051-0.05
		c0.333,0.034,0.55,0.067,0.649,0.1c0.066,0.033,0.15,0.083,0.25,0.15c-0.133-0.066-0.283-0.117-0.45-0.15
		c-1.133,0.3-1.783,1.133-1.949,2.5c-0.101,0.934-0.134,5.517-0.101,13.75c0.033,4.1,0.066,8.117,0.101,12.05L61.6,48.1
		c-0.566,1.633-1.666,2.533-3.3,2.7L58.85,50.85z"/>
	<path style="fill-rule:evenodd;clip-rule:evenodd;fill:#8B8A80;" d="M64.15,18.5c-0.334,0.1-0.617,0.35-0.851,0.75
		c-0.3,0.533-0.45,1.183-0.45,1.95c0,0.767,0.15,1.417,0.45,1.95c0.3,0.5,0.65,0.767,1.05,0.8C64.217,23.983,64.1,24,64,24
		c-0.434,0-0.816-0.267-1.15-0.8c-0.033-0.067-0.066-0.117-0.1-0.15c-0.233-0.5-0.35-1.1-0.35-1.8c0-0.767,0.149-1.417,0.449-1.95
		c0.334-0.533,0.717-0.8,1.15-0.8C64.033,18.5,64.083,18.5,64.15,18.5z"/>
	<path style="fill-rule:evenodd;clip-rule:evenodd;fill:#75746C;" d="M64.45,23.95c-0.4-0.034-0.733-0.3-1-0.8
		c-0.334-0.566-0.5-1.217-0.5-1.95c0-0.767,0.166-1.417,0.5-1.95c0.267-0.5,0.6-0.767,1-0.8c0.033,0,0.066,0,0.1,0
		c0.066,0,0.134,0.017,0.2,0.05c0.366,0.033,0.667,0.267,0.9,0.7c0.033,0,0.05,0.017,0.05,0.05c0.3,0.533,0.45,1.183,0.45,1.95
		c0,0.7-0.117,1.3-0.351,1.8c-0.033,0.067-0.066,0.117-0.1,0.15c0,0.033-0.017,0.067-0.05,0.1c-0.267,0.4-0.567,0.633-0.9,0.7
		c-0.066,0-0.134,0-0.2,0C64.517,23.95,64.483,23.95,64.45,23.95z"/>
	<path style="fill-rule:evenodd;clip-rule:evenodd;fill:#474741;" d="M64.35,23.95c0.034,0,0.067,0,0.101,0s0.066,0,0.1,0
		c0.066,0,0.134,0,0.2,0c0.333-0.067,0.634-0.3,0.9-0.7c0.033-0.033,0.05-0.067,0.05-0.1c0.033-0.033,0.066-0.083,0.1-0.15
		c-0.033,0.2-0.083,0.4-0.149,0.6c-0.034,0.1-0.067,0.2-0.101,0.3c-0.233,0.5-0.5,0.8-0.8,0.9c-0.1,0.034-0.184,0.05-0.25,0.05
		c-0.434,0.066-0.85-0.184-1.25-0.75c-0.2-0.3-0.366-0.65-0.5-1.05c0.033,0.034,0.066,0.083,0.1,0.15C63.184,23.733,63.566,24,64,24
		C64.1,24,64.217,23.983,64.35,23.95z"/>
	
		<radialGradient id="SVGID_2_" cx="0.1509" cy="-32.5562" r="43.1926" gradientTransform="matrix(-0.0153 0.9999 0.9999 0.0153 65.1051 0.9986)" gradientUnits="userSpaceOnUse">
		<stop  offset="0" style="stop-color:#FAF0D7"/>
		<stop  offset="1" style="stop-color:#D9D1BB"/>
	</radialGradient>
	<path style="fill-rule:evenodd;clip-rule:evenodd;fill:url(#SVGID_2_);" d="M6.95,46.8c-1.067-0.167-2-0.667-2.8-1.5
		c-0.9-1-1.333-2.183-1.3-3.55l0.25-24L3.2,5.2c0-1.333,0.45-2.467,1.35-3.4c0.867-0.933,1.934-1.4,3.2-1.4H56.2
		c0.233,0,0.467,0.017,0.7,0.05c1,0.133,1.883,0.6,2.649,1.4c0.601,0.6,1,1.3,1.2,2.1c-0.2-0.667-0.533-1.267-1-1.8
		c0.5,1.067,0.884,6.267,1.15,15.6c0,0.3,0.017,0.617,0.05,0.95c-0.233,0.2-0.5,0.45-0.8,0.75v24.9
		c-1.067,1.733-3.301,2.85-6.7,3.35L7.4,46.8C7.233,46.8,7.083,46.8,6.95,46.8z M56.75,3.85c0.866,0.9,1.3,1.967,1.3,3.2l0.45,34
		c0.033,1.267-0.384,2.35-1.25,3.25c-0.833,0.9-1.866,1.333-3.1,1.3L8.9,44.7c-1.167-0.034-2.167-0.5-3-1.4
		c-0.8-0.867-1.2-1.933-1.2-3.2L5,6.95c0.033-1.233,0.45-2.267,1.25-3.1c0.833-0.867,1.817-1.3,2.95-1.3h44.45
		C54.85,2.55,55.884,2.983,56.75,3.85z M54.5,1.9H8.65c-1.167,0-2.183,0.434-3.05,1.3C4.767,4.1,4.35,5.167,4.35,6.4l-0.3,34.35
		c-0.033,1.267,0.383,2.367,1.25,3.3c0.833,0.934,1.85,1.417,3.05,1.45L55,46.4c1.267,0.033,2.35-0.417,3.25-1.35
		c0.866-0.9,1.283-2.017,1.25-3.35L59.05,6.55c-0.033-1.3-0.483-2.4-1.35-3.3C56.8,2.35,55.733,1.9,54.5,1.9z M43,8.2h-1.1
		l-1.45,4.9h0.899l0.4-1.35h1.5l0.45,1.4h0.95L43,8.2z M42.25,9.85l0.2-0.95l0.649,2.15h-1.25L42.25,9.85z M46.65,9H48l0.1,4.2
		h0.851L48.9,9H50.3l-0.05-0.75l-3.6-0.05V9z M46.1,8.2h-0.85l0.05,4.95h0.851L46.1,8.2z M48.05,17.1l-0.899-0.05l0.05,2h-2.05v-2
		L44.25,17l0.1,5.05H45.2v-2.2h2l0.05,2.25h0.9L48.05,17.1z M43.7,17.8V17L40.1,16.95v0.8h1.4V22h0.9l-0.051-4.25L43.7,17.8z
		 M50,21.4v-1.5l1.8,0.05V19.2L50,19.15l-0.05-1.3l1.95,0.05l-0.051-0.75l-2.8-0.05l0.101,5l2.949,0.1l-0.05-0.8H50z M56.15,27
		v-0.75L53.3,26.2l0.101,5.1l3,0.1l-0.051-0.8l-2.05-0.05l-0.05-1.5l1.85,0.05v-0.75l-1.85-0.05l-0.05-1.35L56.15,27z M52.7,30.5
		l-2-0.05L50.6,26.1H49.7l0.1,5.1l2.9,0.1V30.5z M48.05,29.65c0,0.6-0.35,0.867-1.05,0.8h-0.5v-1.7l0.45,0.05
		C47.684,28.8,48.05,29.083,48.05,29.65z M46.45,26.7l0.5-0.05c0.6,0.067,0.916,0.317,0.95,0.75c0,0.467-0.317,0.7-0.95,0.7H46.5
		L46.45,26.7z M48.75,27.3c0-0.4-0.167-0.716-0.5-0.95S47.45,26,46.85,26c-0.433-0.033-0.85-0.017-1.25,0.05l0.051,5l1.1,0.1
		c0.833,0.033,1.434-0.1,1.8-0.4c0.3-0.3,0.45-0.65,0.45-1.05c-0.033-0.667-0.366-1.1-1-1.3C48.566,28.167,48.816,27.8,48.75,27.3z
		 M42.75,26.65l0.65,2.2h-1.2L42.75,26.65z M42.05,29.55l1.5,0.05L44,31.05h0.95l-1.601-5.1L42.2,25.9l-1.45,5.05h0.9L42.05,29.55z
		 M41.2,35.7v-0.75l-3.65-0.15v0.8l1.4,0.05V40h0.899l-0.05-4.35L41.2,35.7z M33.1,8.9V8.15h-2.7V13l2.8,0.05V12.3h-1.95v-1.45H33
		v-0.7h-1.75V8.9H33.1z M37.65,9.2c0.033,0.433,0.133,0.966,0.3,1.6l0.5,2.3h0.899l1.2-4.9H39.7l-0.75,3.9H38.9l-0.75-3.9h-0.9
		l-0.85,3.9L35.6,8.15H34.7l1.2,4.9L36.8,13.1L37.65,9.2z M21.75,8.85V8.1H19.1v4.8l2.7,0.05V12.2h-1.9v-1.45l1.75,0.05v-0.75h-1.7
		V8.8L21.75,8.85z M24.75,10.9H23.6l0.6-2.1L24.75,10.9z M24.75,8.1H23.7l-1.5,4.85h0.85l0.4-1.4l1.45,0.05l0.4,1.35h0.9L24.75,8.1z
		 M29.25,9l0.2-0.7c-0.4-0.167-0.767-0.25-1.1-0.25c-0.5,0-0.883,0.133-1.15,0.4c-0.3,0.267-0.45,0.6-0.45,1
		c0,0.6,0.4,1.066,1.2,1.4c0.566,0.233,0.85,0.5,0.85,0.8c0,0.467-0.283,0.7-0.85,0.7c-0.434,0-0.8-0.117-1.1-0.35l-0.2,0.75
		c0.333,0.2,0.75,0.3,1.25,0.3c1.167,0.034,1.75-0.45,1.75-1.45c0-0.6-0.4-1.083-1.2-1.45c-0.567-0.233-0.85-0.5-0.85-0.8
		c0-0.367,0.25-0.55,0.75-0.55C28.55,8.8,28.85,8.867,29.25,9z M29.7,17.55V16.8h-2.65v4.9h0.85v-2.1l1.7,0.05V18.9h-1.7v-1.35H29.7
		z M24.8,17.5v-0.75l-2.65-0.05l-0.05,4.9l2.8,0.05V20.9h-1.95v-1.45l1.75,0.05v-0.75l-1.75-0.05v-1.25L24.8,17.5z M21.35,18.05
		c0-0.4-0.133-0.733-0.4-1c-0.333-0.267-0.8-0.4-1.4-0.4l-1.25,0.1l-0.05,4.8h0.85v-2h0.45c0.4,0,0.667,0.284,0.8,0.85
		c0.1,0.667,0.2,1.067,0.3,1.2h0.85c-0.033-0.067-0.15-0.533-0.35-1.4c-0.1-0.5-0.316-0.817-0.65-0.95
		C21.067,19.05,21.35,18.65,21.35,18.05z M36.8,17.55c0.601,0.067,0.9,0.333,0.9,0.8c0,0.566-0.3,0.85-0.9,0.85l-0.5-0.05
		l-0.05-1.55L36.8,17.55z M38.15,17.3c-0.267-0.267-0.75-0.4-1.45-0.4c-0.634,0-1.066,0.033-1.3,0.1l0.05,4.85l0.85,0.05v-2.05h0.4
		c0.434,0,0.717,0.3,0.85,0.9c0.167,0.667,0.283,1.05,0.351,1.15H38.8c-0.066-0.1-0.2-0.55-0.399-1.35
		c-0.101-0.5-0.317-0.833-0.65-1c0.566-0.2,0.85-0.617,0.85-1.25C38.6,17.9,38.45,17.567,38.15,17.3z M32.5,17.5
		c0.4,0,0.717,0.183,0.95,0.55s0.35,0.8,0.35,1.3c0,1.2-0.434,1.8-1.3,1.8c-0.4,0-0.717-0.183-0.95-0.55
		c-0.233-0.333-0.35-0.767-0.35-1.3C31.2,18.1,31.633,17.5,32.5,17.5z M32.5,16.75c-0.667,0-1.2,0.233-1.6,0.7
		c-0.4,0.5-0.6,1.133-0.6,1.9c0,0.7,0.2,1.3,0.6,1.8c0.4,0.467,0.917,0.717,1.55,0.75c0.666,0,1.2-0.217,1.6-0.65
		c0.434-0.467,0.65-1.117,0.65-1.95c0-0.7-0.2-1.3-0.601-1.8C33.7,17.033,33.167,16.783,32.5,16.75z M14.7,8.45
		c-0.333-0.267-0.767-0.4-1.3-0.4l-1.25,0.1l-0.05,4.7h0.8l0.05-1.8h0.35c0.6,0.034,1.083-0.133,1.45-0.5
		c0.2-0.2,0.333-0.55,0.4-1.05C15.15,9.033,15,8.683,14.7,8.45z M12.95,8.75L13.4,8.7c0.667,0,0.967,0.267,0.9,0.8
		c0,0.6-0.316,0.9-0.95,0.9l-0.4-0.05V8.75z M18.45,12.15H16.6l0.05-4.05h-0.8l-0.05,4.75l2.65,0.05V12.15z M17.5,17.4v-0.75
		l-2.65-0.05l-0.05,4.85l2.75,0.05v-0.7l-1.9-0.05v-1.4h1.7v-0.7l-1.7-0.05l0.05-1.25L17.5,17.4z M19.15,17.35l0.5-0.05
		c0.567,0,0.85,0.267,0.85,0.8s-0.3,0.8-0.9,0.8h-0.5L19.15,17.35z M11.25,16.55h-0.8l-0.1,4.85h0.8l0.05-2.15l1.9,0.05l-0.05,2.15
		h0.85l0.05-4.85H13.1v1.9h-1.9L11.25,16.55z M18.1,26.1l1.3,0.05l-0.05,4.15l0.85,0.05v-4.2l1.35,0.05v-0.75l-3.45-0.1V26.1z
		 M16.85,25.3L16,27.15l-0.85-1.85l-0.95-0.05l1.25,2.45l-1.35,2.45l0.95,0.05l0.85-1.9h0.05l0.9,1.95l0.95,0.05l-1.35-2.6
		l1.35-2.35L16.85,25.3z M13.65,26v-0.75l-2.6-0.05L11,30.1l2.7,0.05V29.4l-1.9-0.05l0.05-1.4h1.7v-0.7l-1.7-0.05v-1.25L13.65,26z
		 M10.1,25.15H9.35v1.7c-0.033,0.7-0.033,1.383,0,2.05c-0.233-0.633-0.483-1.2-0.75-1.7l-1.1-2.1H6.55L6.5,29.95h0.75V28.2
		c0.033-0.767,0.033-1.45,0-2.05H7.3l1.9,3.9h0.85L10.1,25.15z M36.55,30.8v-5l-0.899-0.05l0.05,5.05H36.55z M37.55,25.8v5.05
		l2.851,0.1v-0.8l-1.95-0.05l-0.05-4.25L37.55,25.8z M32.35,28.6l0.55-2.2l0.65,2.2H32.35z M30.9,30.65l0.9,0.05l0.4-1.45l1.5,0.05
		l0.399,1.45h0.95L33.5,25.7h-1.1L30.9,30.65z M32.35,35.4v-0.75l-2.7-0.1v5.05l2.85,0.1v-0.75l-2-0.05v-1.5l1.8,0.05l-0.05-0.75
		l-1.75-0.05v-1.3L32.35,35.4z M34.2,34.7l-0.95-0.05v5.1l0.8,0.05l-0.05-4l2.15,4.05l0.899,0.05L37,34.8l-0.8-0.05l0.1,3.9
		c-0.399-0.867-0.684-1.45-0.85-1.75L34.2,34.7z M27.95,25.6l-0.9-0.05l1.5,5.05h0.95l1.6-4.95h-0.9l-1.15,4.05L27.95,25.6z
		 M24.55,28.35l0.6-2.1l0.6,2.15L24.55,28.35z M25.85,29.1l0.45,1.4l0.9,0.05l-1.5-5l-1.05-0.05l-1.5,4.95H24l0.4-1.4L25.85,29.1z
		 M23,34.3h-1.05l-1.55,4.95l0.9,0.05l0.4-1.4l1.45,0.05l0.45,1.45h0.9L23,34.3z M22.4,35.05h0.05l0.6,2.2l-1.2-0.05L22.4,35.05z
		 M25.65,36.95c0-1.233,0.567-1.817,1.7-1.75c0.433,0,0.783,0.083,1.05,0.25l0.2-0.75c-0.3-0.167-0.717-0.267-1.25-0.3
		c-0.767-0.033-1.383,0.184-1.85,0.65c-0.467,0.467-0.717,1.1-0.75,1.9c0,0.767,0.217,1.4,0.65,1.9
		c0.467,0.467,1.083,0.717,1.85,0.75c0.5,0,1-0.083,1.5-0.25V36.8l-1.65-0.1v0.75l0.85,0.05v1.25c-0.2,0.067-0.417,0.083-0.65,0.05
		C26.2,38.8,25.65,38.183,25.65,36.95z"/>
	
		<radialGradient id="SVGID_3_" cx="4.0498" cy="-31.373" r="40.4878" gradientTransform="matrix(0.0824 0.9966 0.9966 -0.0824 62.5325 -5.1723)" gradientUnits="userSpaceOnUse">
		<stop  offset="0" style="stop-color:#7A694E"/>
		<stop  offset="1" style="stop-color:#544836"/>
	</radialGradient>
	<path style="fill-rule:evenodd;clip-rule:evenodd;fill:url(#SVGID_3_);" d="M54.5,1.9c1.233,0,2.3,0.45,3.2,1.35
		c0.866,0.9,1.316,2,1.35,3.3L59.5,41.7c0.033,1.333-0.384,2.45-1.25,3.35c-0.9,0.934-1.983,1.383-3.25,1.35L8.35,45.5
		c-1.2-0.033-2.217-0.517-3.05-1.45c-0.867-0.933-1.283-2.033-1.25-3.3L4.35,6.4c0-1.233,0.417-2.3,1.25-3.2
		c0.867-0.867,1.883-1.3,3.05-1.3H54.5z M56.75,3.85c-0.866-0.867-1.9-1.3-3.1-1.3H9.2c-1.133,0-2.117,0.434-2.95,1.3
		C5.45,4.683,5.033,5.717,5,6.95L4.7,40.1c0,1.267,0.4,2.333,1.2,3.2c0.833,0.9,1.833,1.367,3,1.4l45.25,0.9
		c1.233,0.033,2.267-0.4,3.1-1.3c0.866-0.9,1.283-1.983,1.25-3.25l-0.45-34C58.05,5.817,57.616,4.75,56.75,3.85z"/>
	
		<radialGradient id="SVGID_4_" cx="52.6504" cy="-0.2002" r="40.7058" gradientTransform="matrix(0.0181 0.9998 -1.0002 0.0181 51.4964 -52.8383)" gradientUnits="userSpaceOnUse">
		<stop  offset="0" style="stop-color:#7A694E"/>
		<stop  offset="1" style="stop-color:#544836"/>
	</radialGradient>
	<path style="fill-rule:evenodd;clip-rule:evenodd;fill:url(#SVGID_4_);" d="M42.25,9.85l-0.4,1.2h1.25L42.45,8.9L42.25,9.85z
		 M43,8.2l1.65,4.95H43.7l-0.45-1.4h-1.5l-0.4,1.35H40.45l1.45-4.9H43z"/>
	
		<radialGradient id="SVGID_5_" cx="64.5" cy="-0.1499" r="40.6933" gradientTransform="matrix(0.0181 0.9998 -1.0002 0.0181 63.1813 -64.6366)" gradientUnits="userSpaceOnUse">
		<stop  offset="0" style="stop-color:#7A694E"/>
		<stop  offset="1" style="stop-color:#544836"/>
	</radialGradient>
	<polygon style="fill-rule:evenodd;clip-rule:evenodd;fill:url(#SVGID_5_);" points="46.65,9 46.65,8.2 50.25,8.25 50.3,9 48.9,9 
		48.95,13.2 48.1,13.2 48,9 	"/>
	
		<radialGradient id="SVGID_6_" cx="58.9004" cy="-0.1499" r="40.5558" gradientTransform="matrix(0.0182 0.9998 -1.0002 0.0182 57.6796 -59.0378)" gradientUnits="userSpaceOnUse">
		<stop  offset="0" style="stop-color:#7A694E"/>
		<stop  offset="1" style="stop-color:#544836"/>
	</radialGradient>
	<polygon style="fill-rule:evenodd;clip-rule:evenodd;fill:url(#SVGID_6_);" points="46.1,8.2 46.15,13.15 45.3,13.15 45.25,8.2 	
		"/>
	
		<radialGradient id="SVGID_7_" cx="59.9502" cy="-0.3501" r="40.9433" gradientTransform="matrix(0.0182 0.9998 -1.0002 0.0182 58.5112 -60.284)" gradientUnits="userSpaceOnUse">
		<stop  offset="0" style="stop-color:#7A694E"/>
		<stop  offset="1" style="stop-color:#544836"/>
	</radialGradient>
	<polygon style="fill-rule:evenodd;clip-rule:evenodd;fill:url(#SVGID_7_);" points="48.05,17.1 48.15,22.1 47.25,22.1 47.2,19.85 
		45.2,19.85 45.2,22.05 44.35,22.05 44.25,17 45.15,17.05 45.15,19.05 47.2,19.05 47.15,17.05 	"/>
	
		<radialGradient id="SVGID_8_" cx="51.3496" cy="-0.25" r="40.7683" gradientTransform="matrix(0.0181 0.9998 -1.0002 0.0181 50.1708 -51.5867)" gradientUnits="userSpaceOnUse">
		<stop  offset="0" style="stop-color:#7A694E"/>
		<stop  offset="1" style="stop-color:#544836"/>
	</radialGradient>
	<polygon style="fill-rule:evenodd;clip-rule:evenodd;fill:url(#SVGID_8_);" points="43.7,17.8 42.35,17.75 42.4,22 41.5,22 
		41.5,17.75 40.1,17.75 40.1,16.95 43.7,17 	"/>
	
		<radialGradient id="SVGID_9_" cx="68.6504" cy="-0.25" r="40.7933" gradientTransform="matrix(0.0181 0.9998 -1.0002 0.0181 67.1594 -68.8847)" gradientUnits="userSpaceOnUse">
		<stop  offset="0" style="stop-color:#7A694E"/>
		<stop  offset="1" style="stop-color:#544836"/>
	</radialGradient>
	<polygon style="fill-rule:evenodd;clip-rule:evenodd;fill:url(#SVGID_9_);" points="50,21.4 52.05,21.4 52.1,22.2 49.15,22.1 
		49.05,17.1 51.85,17.15 51.9,17.9 49.95,17.85 50,19.15 51.8,19.2 51.8,19.95 50,19.9 	"/>
	
		<radialGradient id="SVGID_10_" cx="77.2002" cy="-0.25" r="40.8058" gradientTransform="matrix(0.0181 0.9998 -1.0002 0.0181 75.5551 -77.4331)" gradientUnits="userSpaceOnUse">
		<stop  offset="0" style="stop-color:#7A694E"/>
		<stop  offset="1" style="stop-color:#544836"/>
	</radialGradient>
	<polygon style="fill-rule:evenodd;clip-rule:evenodd;fill:url(#SVGID_10_);" points="56.15,27 54.2,26.95 54.25,28.3 56.1,28.35 
		56.1,29.1 54.25,29.05 54.3,30.55 56.35,30.6 56.4,31.4 53.4,31.3 53.3,26.2 56.15,26.25 	"/>
	
		<radialGradient id="SVGID_11_" cx="69.9502" cy="-0.25" r="40.8183" gradientTransform="matrix(0.0181 0.9998 -1.0002 0.0181 68.4365 -70.1843)" gradientUnits="userSpaceOnUse">
		<stop  offset="0" style="stop-color:#7A694E"/>
		<stop  offset="1" style="stop-color:#544836"/>
	</radialGradient>
	<polygon style="fill-rule:evenodd;clip-rule:evenodd;fill:url(#SVGID_11_);" points="52.7,30.5 52.7,31.3 49.8,31.2 49.7,26.1 
		50.6,26.1 50.7,30.45 	"/>
	
		<radialGradient id="SVGID_12_" cx="62.0498" cy="0.0498" r="40.4683" gradientTransform="matrix(0.0182 0.9998 -1.0002 0.0182 60.969 -61.9906)" gradientUnits="userSpaceOnUse">
		<stop  offset="0" style="stop-color:#7A694E"/>
		<stop  offset="1" style="stop-color:#544836"/>
	</radialGradient>
	<path style="fill-rule:evenodd;clip-rule:evenodd;fill:url(#SVGID_12_);" d="M48.75,27.3c0.066,0.5-0.184,0.867-0.75,1.1
		c0.634,0.2,0.967,0.633,1,1.3c0,0.4-0.15,0.75-0.45,1.05c-0.366,0.3-0.967,0.433-1.8,0.4l-1.1-0.1l-0.051-5
		c0.4-0.066,0.817-0.083,1.25-0.05c0.601,0,1.067,0.117,1.4,0.35S48.75,26.9,48.75,27.3z M46.45,26.7l0.05,1.4h0.45
		c0.633,0,0.95-0.233,0.95-0.7c-0.034-0.433-0.351-0.683-0.95-0.75L46.45,26.7z M48.05,29.65c0-0.566-0.366-0.85-1.1-0.85
		l-0.45-0.05v1.7H47C47.7,30.517,48.05,30.25,48.05,29.65z"/>
	
		<radialGradient id="SVGID_13_" cx="53.2002" cy="-0.25" r="40.7933" gradientTransform="matrix(0.0181 0.9998 -1.0002 0.0181 51.9885 -53.437)" gradientUnits="userSpaceOnUse">
		<stop  offset="0" style="stop-color:#7A694E"/>
		<stop  offset="1" style="stop-color:#544836"/>
	</radialGradient>
	<path style="fill-rule:evenodd;clip-rule:evenodd;fill:url(#SVGID_13_);" d="M42.05,29.55l-0.399,1.4h-0.9l1.45-5.05l1.149,0.05
		l1.601,5.1H44l-0.45-1.45L42.05,29.55z M42.75,26.65l-0.55,2.2h1.2L42.75,26.65z"/>
	
		<radialGradient id="SVGID_14_" cx="46.25" cy="-0.25" r="40.5933" gradientTransform="matrix(0.0182 0.9998 -1.0002 0.0182 45.1598 -46.4878)" gradientUnits="userSpaceOnUse">
		<stop  offset="0" style="stop-color:#7A694E"/>
		<stop  offset="1" style="stop-color:#544836"/>
	</radialGradient>
	<polygon style="fill-rule:evenodd;clip-rule:evenodd;fill:url(#SVGID_14_);" points="41.2,35.7 39.8,35.65 39.85,40 38.95,40 
		38.95,35.65 37.55,35.6 37.55,34.8 41.2,34.95 	"/>
	<linearGradient id="SVGID_15_" gradientUnits="userSpaceOnUse" x1="1.6626" y1="47.9282" x2="64.0376" y2="47.9282">
		<stop  offset="0.0667" style="stop-color:#000000;stop-opacity:0.4"/>
		<stop  offset="0.2706" style="stop-color:#000000;stop-opacity:0.4"/>
	</linearGradient>
	<path style="fill-rule:evenodd;clip-rule:evenodd;fill:url(#SVGID_15_);" d="M58.5,47.75c-0.034,0.001-0.067,0.018-0.1,0.05
		c-1.134,0.9-2.517,1.317-4.15,1.25l-39.35-1.2v-0.1L9.7,47.6c-1.034-0.033-1.95-0.3-2.75-0.8c0.133,0,0.283,0,0.45,0l46.05,0.9
		l3.6,0.05c0.101,0,0.217,0,0.351,0h0.649C58.183,47.75,58.333,47.75,58.5,47.75z"/>
	
		<radialGradient id="SVGID_16_" cx="31.1001" cy="-0.25" r="40.7933" gradientTransform="matrix(0.0181 0.9998 -1.0002 0.0181 30.2879 -31.3405)" gradientUnits="userSpaceOnUse">
		<stop  offset="0" style="stop-color:#7A694E"/>
		<stop  offset="1" style="stop-color:#544836"/>
	</radialGradient>
	<polygon style="fill-rule:evenodd;clip-rule:evenodd;fill:url(#SVGID_16_);" points="33.1,8.9 31.25,8.9 31.25,10.15 33,10.15 
		33,10.85 31.25,10.85 31.25,12.3 33.2,12.3 33.2,13.05 30.4,13 30.4,8.15 33.1,8.15 	"/>
	
		<radialGradient id="SVGID_17_" cx="42.7998" cy="-0.2002" r="40.7183" gradientTransform="matrix(0.0181 0.9998 -1.0002 0.0181 41.8245 -42.9894)" gradientUnits="userSpaceOnUse">
		<stop  offset="0" style="stop-color:#7A694E"/>
		<stop  offset="1" style="stop-color:#544836"/>
	</radialGradient>
	<path style="fill-rule:evenodd;clip-rule:evenodd;fill:url(#SVGID_17_);" d="M37.65,9.2L36.8,13.1L35.9,13.05l-1.2-4.9H35.6
		L36.4,12.1l0.85-3.9h0.9l0.75,3.9h0.05l0.75-3.9h0.85l-1.2,4.9H38.45l-0.5-2.3C37.783,10.167,37.684,9.633,37.65,9.2z"/>
	
		<radialGradient id="SVGID_18_" cx="8.5" cy="-0.2998" r="40.3059" gradientTransform="matrix(0.0183 0.9998 -1.0002 0.0183 8.0446 -8.7929)" gradientUnits="userSpaceOnUse">
		<stop  offset="0" style="stop-color:#7A694E"/>
		<stop  offset="1" style="stop-color:#544836"/>
	</radialGradient>
	<polygon style="fill-rule:evenodd;clip-rule:evenodd;fill:url(#SVGID_18_);" points="21.75,8.85 19.95,8.8 19.95,10.05 
		21.65,10.05 21.65,10.8 19.9,10.75 19.9,12.2 21.8,12.2 21.8,12.95 19.1,12.9 19.1,8.1 21.75,8.1 	"/>
	
		<radialGradient id="SVGID_19_" cx="15.9502" cy="-0.2998" r="40.5683" gradientTransform="matrix(0.0182 0.9998 -1.0002 0.0182 15.3604 -16.2419)" gradientUnits="userSpaceOnUse">
		<stop  offset="0" style="stop-color:#7A694E"/>
		<stop  offset="1" style="stop-color:#544836"/>
	</radialGradient>
	<path style="fill-rule:evenodd;clip-rule:evenodd;fill:url(#SVGID_19_);" d="M24.75,8.1l1.45,4.85h-0.9l-0.4-1.35l-1.45-0.05
		l-0.4,1.4H22.2l1.5-4.85H24.75z M24.75,10.9L24.2,8.8l-0.6,2.1H24.75z"/>
	
		<radialGradient id="SVGID_20_" cx="23.7998" cy="-0.25" r="40.5308" gradientTransform="matrix(0.0182 0.9998 -1.0002 0.0182 23.1168 -24.0413)" gradientUnits="userSpaceOnUse">
		<stop  offset="0" style="stop-color:#7A694E"/>
		<stop  offset="1" style="stop-color:#544836"/>
	</radialGradient>
	<path style="fill-rule:evenodd;clip-rule:evenodd;fill:url(#SVGID_20_);" d="M29.25,9c-0.4-0.133-0.7-0.2-0.9-0.2
		c-0.5,0-0.75,0.184-0.75,0.55c0,0.3,0.283,0.566,0.85,0.8c0.8,0.367,1.2,0.85,1.2,1.45c0,1-0.583,1.483-1.75,1.45
		c-0.5,0-0.917-0.1-1.25-0.3l0.2-0.75c0.3,0.233,0.667,0.35,1.1,0.35c0.566,0,0.85-0.233,0.85-0.7c0-0.3-0.283-0.566-0.85-0.8
		c-0.8-0.333-1.2-0.8-1.2-1.4c0-0.4,0.15-0.733,0.45-1c0.267-0.267,0.65-0.4,1.15-0.4c0.333,0,0.7,0.083,1.1,0.25L29.25,9z"/>
	
		<radialGradient id="SVGID_21_" cx="24.2998" cy="-0.25" r="40.5308" gradientTransform="matrix(0.0182 0.9998 -1.0002 0.0182 23.6077 -24.5412)" gradientUnits="userSpaceOnUse">
		<stop  offset="0" style="stop-color:#7A694E"/>
		<stop  offset="1" style="stop-color:#544836"/>
	</radialGradient>
	<polygon style="fill-rule:evenodd;clip-rule:evenodd;fill:url(#SVGID_21_);" points="29.7,17.55 27.9,17.55 27.9,18.9 29.6,18.9 
		29.6,19.65 27.9,19.6 27.9,21.7 27.05,21.7 27.05,16.8 29.7,16.8 	"/>
	
		<radialGradient id="SVGID_22_" cx="14.5498" cy="-0.3999" r="40.6558" gradientTransform="matrix(0.0181 0.9998 -1.0002 0.0181 13.8859 -14.9401)" gradientUnits="userSpaceOnUse">
		<stop  offset="0" style="stop-color:#7A694E"/>
		<stop  offset="1" style="stop-color:#544836"/>
	</radialGradient>
	<polygon style="fill-rule:evenodd;clip-rule:evenodd;fill:url(#SVGID_22_);" points="24.8,17.5 22.95,17.45 22.95,18.7 24.7,18.75 
		24.7,19.5 22.95,19.45 22.95,20.9 24.9,20.9 24.9,21.65 22.1,21.6 22.15,16.7 24.8,16.75 	"/>
	
		<radialGradient id="SVGID_23_" cx="7.2998" cy="-0.3501" r="40.4433" gradientTransform="matrix(0.0182 0.9998 -1.0002 0.0182 6.8166 -7.6423)" gradientUnits="userSpaceOnUse">
		<stop  offset="0" style="stop-color:#7A694E"/>
		<stop  offset="1" style="stop-color:#544836"/>
	</radialGradient>
	<path style="fill-rule:evenodd;clip-rule:evenodd;fill:url(#SVGID_23_);" d="M21.35,18.05c0,0.6-0.283,1-0.85,1.2
		c0.333,0.133,0.55,0.45,0.65,0.95c0.2,0.867,0.317,1.333,0.35,1.4h-0.85c-0.1-0.133-0.2-0.533-0.3-1.2
		c-0.133-0.566-0.4-0.85-0.8-0.85H19.1v2h-0.85l0.05-4.8l1.25-0.1c0.6,0,1.067,0.133,1.4,0.4C21.217,17.317,21.35,17.65,21.35,18.05
		z M19.15,17.35L19.1,18.9h0.5c0.6,0,0.9-0.267,0.9-0.8s-0.283-0.8-0.85-0.8L19.15,17.35z"/>
	
		<radialGradient id="SVGID_24_" cx="41.7002" cy="-0.25" r="40.8183" gradientTransform="matrix(0.0181 0.9998 -1.0002 0.0181 40.6969 -41.9389)" gradientUnits="userSpaceOnUse">
		<stop  offset="0" style="stop-color:#7A694E"/>
		<stop  offset="1" style="stop-color:#544836"/>
	</radialGradient>
	<path style="fill-rule:evenodd;clip-rule:evenodd;fill:url(#SVGID_24_);" d="M38.15,17.3c0.3,0.267,0.449,0.6,0.449,1
		c0,0.633-0.283,1.05-0.85,1.25c0.333,0.167,0.55,0.5,0.65,1c0.199,0.8,0.333,1.25,0.399,1.35H37.9
		c-0.067-0.1-0.184-0.483-0.351-1.15c-0.133-0.6-0.416-0.9-0.85-0.9h-0.4v2.05l-0.85-0.05L35.4,17c0.233-0.067,0.666-0.1,1.3-0.1
		C37.4,16.9,37.884,17.033,38.15,17.3z M36.8,17.55l-0.55,0.05l0.05,1.55l0.5,0.05c0.601,0,0.9-0.284,0.9-0.85
		C37.7,17.883,37.4,17.617,36.8,17.55z"/>
	
		<radialGradient id="SVGID_25_" cx="32.5" cy="-0.1499" r="40.5183" gradientTransform="matrix(0.0182 0.9998 -1.0002 0.0182 31.7586 -32.6418)" gradientUnits="userSpaceOnUse">
		<stop  offset="0" style="stop-color:#7A694E"/>
		<stop  offset="1" style="stop-color:#544836"/>
	</radialGradient>
	<path style="fill-rule:evenodd;clip-rule:evenodd;fill:url(#SVGID_25_);" d="M32.5,16.75c0.667,0.033,1.2,0.283,1.6,0.75
		c0.4,0.5,0.601,1.1,0.601,1.8c0,0.833-0.217,1.483-0.65,1.95c-0.399,0.433-0.934,0.65-1.6,0.65c-0.633-0.033-1.15-0.283-1.55-0.75
		c-0.4-0.5-0.6-1.1-0.6-1.8c0-0.767,0.2-1.4,0.6-1.9C31.3,16.983,31.833,16.75,32.5,16.75z M32.5,17.5c-0.867,0-1.3,0.6-1.3,1.8
		c0,0.534,0.117,0.967,0.35,1.3c0.233,0.367,0.55,0.55,0.95,0.55c0.866,0,1.3-0.6,1.3-1.8c0-0.5-0.116-0.934-0.35-1.3
		S32.9,17.5,32.5,17.5z"/>
	
		<radialGradient id="SVGID_26_" cx="-5" cy="-0.2998" r="39.6932" gradientTransform="matrix(0.0183 0.9998 -1.0002 0.0183 -5.2086 4.7048)" gradientUnits="userSpaceOnUse">
		<stop  offset="0" style="stop-color:#7A694E"/>
		<stop  offset="1" style="stop-color:#544836"/>
	</radialGradient>
	<path style="fill-rule:evenodd;clip-rule:evenodd;fill:url(#SVGID_26_);" d="M12.95,8.75v1.6l0.4,0.05c0.633,0,0.95-0.3,0.95-0.9
		c0.067-0.533-0.233-0.8-0.9-0.8L12.95,8.75z M14.7,8.45c0.3,0.233,0.45,0.583,0.45,1.05c-0.066,0.5-0.2,0.85-0.4,1.05
		c-0.367,0.367-0.85,0.534-1.45,0.5h-0.35l-0.05,1.8h-0.8l0.05-4.7l1.25-0.1C13.933,8.05,14.367,8.183,14.7,8.45z"/>
	
		<radialGradient id="SVGID_27_" cx="1.8999" cy="-0.3501" r="40.1557" gradientTransform="matrix(0.0181 0.9998 -1.0002 0.0181 1.5154 -2.2434)" gradientUnits="userSpaceOnUse">
		<stop  offset="0" style="stop-color:#7A694E"/>
		<stop  offset="1" style="stop-color:#544836"/>
	</radialGradient>
	<polygon style="fill-rule:evenodd;clip-rule:evenodd;fill:url(#SVGID_27_);" points="18.45,12.15 18.45,12.9 15.8,12.85 15.85,8.1 
		16.65,8.1 16.6,12.15 	"/>
	
		<radialGradient id="SVGID_28_" cx="-0.0498" cy="-0.3999" r="40.3059" gradientTransform="matrix(0.0183 0.9998 -1.0002 0.0183 -0.4489 -0.3428)" gradientUnits="userSpaceOnUse">
		<stop  offset="0" style="stop-color:#7A694E"/>
		<stop  offset="1" style="stop-color:#544836"/>
	</radialGradient>
	<polygon style="fill-rule:evenodd;clip-rule:evenodd;fill:url(#SVGID_28_);" points="17.5,17.4 15.7,17.35 15.65,18.6 17.35,18.65 
		17.35,19.35 15.65,19.35 15.65,20.75 17.55,20.8 17.55,21.5 14.8,21.45 14.85,16.6 17.5,16.65 	"/>
	
		<radialGradient id="SVGID_29_" cx="-7.8999" cy="-0.5" r="40.0682" gradientTransform="matrix(0.0181 0.9998 -1.0002 0.0181 -8.2571 7.4077)" gradientUnits="userSpaceOnUse">
		<stop  offset="0" style="stop-color:#7A694E"/>
		<stop  offset="1" style="stop-color:#544836"/>
	</radialGradient>
	<polygon style="fill-rule:evenodd;clip-rule:evenodd;fill:url(#SVGID_29_);" points="11.25,16.55 11.2,18.5 13.1,18.5 13.1,16.6 
		13.95,16.6 13.9,21.45 13.05,21.45 13.1,19.3 11.2,19.25 11.15,21.4 10.35,21.4 10.45,16.55 	"/>
	
		<radialGradient id="SVGID_30_" cx="7.1499" cy="-0.3501" r="40.4058" gradientTransform="matrix(0.0182 0.9998 -1.0002 0.0183 6.6693 -7.4924)" gradientUnits="userSpaceOnUse">
		<stop  offset="0" style="stop-color:#7A694E"/>
		<stop  offset="1" style="stop-color:#544836"/>
	</radialGradient>
	<polygon style="fill-rule:evenodd;clip-rule:evenodd;fill:url(#SVGID_30_);" points="18.1,26.1 18.1,25.35 21.55,25.45 21.55,26.2 
		20.2,26.15 20.2,30.35 19.35,30.3 19.4,26.15 	"/>
	
		<radialGradient id="SVGID_31_" cx="-0.4502" cy="-0.5498" r="40.4558" gradientTransform="matrix(0.0182 0.9998 -1.0002 0.0182 -0.9919 -0.0897)" gradientUnits="userSpaceOnUse">
		<stop  offset="0" style="stop-color:#7A694E"/>
		<stop  offset="1" style="stop-color:#544836"/>
	</radialGradient>
	<polygon style="fill-rule:evenodd;clip-rule:evenodd;fill:url(#SVGID_31_);" points="16.85,25.3 17.8,25.35 16.45,27.7 17.8,30.3 
		16.85,30.25 15.95,28.3 15.9,28.3 15.05,30.2 14.1,30.15 15.45,27.7 14.2,25.25 15.15,25.3 16,27.15 	"/>
	
		<radialGradient id="SVGID_32_" cx="-7.7002" cy="-0.5" r="40.2057" gradientTransform="matrix(0.018 0.9998 -1.0002 0.018 -8.0615 7.208)" gradientUnits="userSpaceOnUse">
		<stop  offset="0" style="stop-color:#7A694E"/>
		<stop  offset="1" style="stop-color:#544836"/>
	</radialGradient>
	<polygon style="fill-rule:evenodd;clip-rule:evenodd;fill:url(#SVGID_32_);" points="13.65,26 11.85,25.95 11.85,27.2 13.55,27.25 
		13.55,27.95 11.85,27.95 11.8,29.35 13.7,29.4 13.7,30.15 11,30.1 11.05,25.2 13.65,25.25 	"/>
	
		<radialGradient id="SVGID_33_" cx="-15.5" cy="-0.6001" r="39.9932" gradientTransform="matrix(0.0181 0.9998 -1.0002 0.0181 -15.8193 14.9082)" gradientUnits="userSpaceOnUse">
		<stop  offset="0" style="stop-color:#7A694E"/>
		<stop  offset="1" style="stop-color:#544836"/>
	</radialGradient>
	<path style="fill-rule:evenodd;clip-rule:evenodd;fill:url(#SVGID_33_);" d="M10.1,25.15l-0.05,4.9H9.2l-1.9-3.9H7.25
		c0.033,0.6,0.033,1.283,0,2.05v1.75H6.5l0.05-4.85H7.5l1.1,2.1c0.267,0.5,0.517,1.066,0.75,1.7c-0.033-0.667-0.033-1.35,0-2.05
		v-1.7H10.1z"/>
	
		<radialGradient id="SVGID_34_" cx="39.75" cy="-0.1499" r="40.5183" gradientTransform="matrix(0.0182 0.9998 -1.0002 0.0182 38.8767 -39.8906)" gradientUnits="userSpaceOnUse">
		<stop  offset="0" style="stop-color:#7A694E"/>
		<stop  offset="1" style="stop-color:#544836"/>
	</radialGradient>
	<polygon style="fill-rule:evenodd;clip-rule:evenodd;fill:url(#SVGID_34_);" points="36.55,30.8 35.7,30.8 35.65,25.75 36.55,25.8 
			"/>
	
		<radialGradient id="SVGID_35_" cx="45.4502" cy="-0.2998" r="40.8058" gradientTransform="matrix(0.0181 0.9998 -1.0002 0.0181 44.329 -45.7372)" gradientUnits="userSpaceOnUse">
		<stop  offset="0" style="stop-color:#7A694E"/>
		<stop  offset="1" style="stop-color:#544836"/>
	</radialGradient>
	<polygon style="fill-rule:evenodd;clip-rule:evenodd;fill:url(#SVGID_35_);" points="37.55,25.8 38.4,25.85 38.45,30.1 40.4,30.15 
		40.4,30.95 37.55,30.85 	"/>
	
		<radialGradient id="SVGID_36_" cx="33.4004" cy="-0.2998" r="40.7308" gradientTransform="matrix(0.0181 0.9998 -1.0002 0.0181 32.4959 -33.6893)" gradientUnits="userSpaceOnUse">
		<stop  offset="0" style="stop-color:#7A694E"/>
		<stop  offset="1" style="stop-color:#544836"/>
	</radialGradient>
	<path style="fill-rule:evenodd;clip-rule:evenodd;fill:url(#SVGID_36_);" d="M30.9,30.65l1.5-4.95h1.1l1.55,5.05H34.1L33.7,29.3
		l-1.5-0.05l-0.4,1.45L30.9,30.65z M32.35,28.6h1.2l-0.65-2.2L32.35,28.6z"/>
	
		<radialGradient id="SVGID_37_" cx="29.5498" cy="-0.3501" r="40.6183" gradientTransform="matrix(0.0182 0.9998 -1.0002 0.0182 28.6632 -29.8887)" gradientUnits="userSpaceOnUse">
		<stop  offset="0" style="stop-color:#7A694E"/>
		<stop  offset="1" style="stop-color:#544836"/>
	</radialGradient>
	<polygon style="fill-rule:evenodd;clip-rule:evenodd;fill:url(#SVGID_37_);" points="32.35,35.4 30.5,35.35 30.5,36.65 32.25,36.7 
		32.3,37.45 30.5,37.4 30.5,38.9 32.5,38.95 32.5,39.7 29.65,39.6 29.65,34.55 32.35,34.65 	"/>
	
		<radialGradient id="SVGID_38_" cx="37.7002" cy="-0.5" r="40.8433" gradientTransform="matrix(0.0181 0.9998 -1.0002 0.0181 36.5195 -38.185)" gradientUnits="userSpaceOnUse">
		<stop  offset="0" style="stop-color:#7A694E"/>
		<stop  offset="1" style="stop-color:#544836"/>
	</radialGradient>
	<path style="fill-rule:evenodd;clip-rule:evenodd;fill:url(#SVGID_38_);" d="M34.2,34.7l1.25,2.2c0.166,0.3,0.45,0.883,0.85,1.75
		l-0.1-3.9L37,34.8l0.05,5.1l-0.899-0.05L34,35.8l0.05,4l-0.8-0.05v-5.1L34.2,34.7z"/>
	
		<radialGradient id="SVGID_39_" cx="25.6001" cy="-0.3501" r="40.6558" gradientTransform="matrix(0.0181 0.9998 -1.0002 0.0181 24.7856 -25.9396)" gradientUnits="userSpaceOnUse">
		<stop  offset="0" style="stop-color:#7A694E"/>
		<stop  offset="1" style="stop-color:#544836"/>
	</radialGradient>
	<polygon style="fill-rule:evenodd;clip-rule:evenodd;fill:url(#SVGID_39_);" points="27.95,25.6 29.05,29.7 30.2,25.65 31.1,25.65 
		29.5,30.6 28.55,30.6 27.05,25.55 	"/>
	
		<radialGradient id="SVGID_40_" cx="17.7998" cy="-0.3501" r="40.6058" gradientTransform="matrix(0.0182 0.9998 -1.0002 0.0182 17.1264 -18.1406)" gradientUnits="userSpaceOnUse">
		<stop  offset="0" style="stop-color:#7A694E"/>
		<stop  offset="1" style="stop-color:#544836"/>
	</radialGradient>
	<path style="fill-rule:evenodd;clip-rule:evenodd;fill:url(#SVGID_40_);" d="M25.85,29.1l-1.45-0.05l-0.4,1.4h-0.85l1.5-4.95
		l1.05,0.05l1.5,5l-0.9-0.05L25.85,29.1z M24.55,28.35l1.2,0.05l-0.6-2.15L24.55,28.35z"/>
	
		<radialGradient id="SVGID_41_" cx="12.3999" cy="-0.3999" r="40.4433" gradientTransform="matrix(0.0182 0.9998 -1.0002 0.0182 11.7739 -12.7905)" gradientUnits="userSpaceOnUse">
		<stop  offset="0" style="stop-color:#7A694E"/>
		<stop  offset="1" style="stop-color:#544836"/>
	</radialGradient>
	<path style="fill-rule:evenodd;clip-rule:evenodd;fill:url(#SVGID_41_);" d="M22.4,35.05l-0.55,2.15l1.2,0.05l-0.6-2.2H22.4z
		 M23,34.3l1.5,5.1h-0.9l-0.45-1.45L21.7,37.9l-0.4,1.4l-0.9-0.05l1.55-4.95H23z"/>
	
		<radialGradient id="SVGID_42_" cx="21" cy="0.0498" r="40.0807" gradientTransform="matrix(0.0181 0.9998 -1.0002 0.0181 20.67 -20.9477)" gradientUnits="userSpaceOnUse">
		<stop  offset="0" style="stop-color:#7A694E"/>
		<stop  offset="1" style="stop-color:#544836"/>
	</radialGradient>
	<path style="fill-rule:evenodd;clip-rule:evenodd;fill:url(#SVGID_42_);" d="M25.65,36.95c0,1.233,0.55,1.85,1.65,1.85
		c0.233,0.034,0.45,0.017,0.65-0.05V37.5l-0.85-0.05V36.7l1.65,0.1v2.55c-0.5,0.167-1,0.25-1.5,0.25
		c-0.767-0.033-1.383-0.283-1.85-0.75c-0.433-0.5-0.65-1.133-0.65-1.9c0.033-0.8,0.283-1.434,0.75-1.9
		c0.467-0.466,1.083-0.683,1.85-0.65c0.533,0.033,0.95,0.133,1.25,0.3l-0.2,0.75c-0.267-0.167-0.617-0.25-1.05-0.25
		C26.217,35.133,25.65,35.717,25.65,36.95z"/>
	<linearGradient id="SVGID_43_" gradientUnits="userSpaceOnUse" x1="29.5498" y1="51.6748" x2="35.6504" y2="51.6748">
		<stop  offset="0" style="stop-color:#B3AFA5"/>
		<stop  offset="0.1294" style="stop-color:#DEDACD"/>
		<stop  offset="0.2706" style="stop-color:#A4A198"/>
		<stop  offset="0.698" style="stop-color:#5B5A53"/>
		<stop  offset="0.7686" style="stop-color:#5F5E57"/>
		<stop  offset="0.8353" style="stop-color:#6A6961"/>
		<stop  offset="0.898" style="stop-color:#7D7C74"/>
		<stop  offset="0.9608" style="stop-color:#98978D"/>
		<stop  offset="1" style="stop-color:#ACABA0"/>
	</linearGradient>
	<path style="fill-rule:evenodd;clip-rule:evenodd;fill:url(#SVGID_43_);" d="M29.65,49.9l5.85,0.2l0.05,1.75l0.101,0.25
		c0,0.333-0.233,0.617-0.7,0.85c-0.066,0.033-0.134,0.066-0.2,0.1c-0.6,0.267-1.316,0.4-2.15,0.4s-1.55-0.133-2.15-0.4
		C30.383,53.017,30.333,53,30.3,53c-0.5-0.267-0.75-0.567-0.75-0.9L29.65,49.9z"/>
	<linearGradient id="SVGID_44_" gradientUnits="userSpaceOnUse" x1="30.2749" y1="80.7246" x2="34.9253" y2="80.7246">
		<stop  offset="0" style="stop-color:#B3AFA5"/>
		<stop  offset="0.1294" style="stop-color:#DEDACD"/>
		<stop  offset="0.2706" style="stop-color:#A4A198"/>
		<stop  offset="0.698" style="stop-color:#5B5A53"/>
		<stop  offset="0.7686" style="stop-color:#5F5E57"/>
		<stop  offset="0.8353" style="stop-color:#6A6961"/>
		<stop  offset="0.898" style="stop-color:#7D7C74"/>
		<stop  offset="0.9608" style="stop-color:#98978D"/>
		<stop  offset="1" style="stop-color:#ACABA0"/>
	</linearGradient>
	<path style="fill-rule:evenodd;clip-rule:evenodd;fill:url(#SVGID_44_);" d="M34.95,52.95v54v0.6l-0.55,0.5
		c-0.534,0.3-1.134,0.45-1.8,0.45c-1.033,0-1.8-0.316-2.3-0.95v-0.6V53c0.034,0,0.083,0.017,0.15,0.05c0.6,0.267,1.316,0.4,2.15,0.4
		s1.55-0.133,2.15-0.4C34.816,53.017,34.884,52.983,34.95,52.95z"/>
	
		<radialGradient id="SVGID_45_" cx="-30.4141" cy="-118.5449" r="13.6953" fx="-21.982" fy="-118.5449" gradientTransform="matrix(-0.9994 0.0338 0.0338 0.9994 8.0068 236.9548)" gradientUnits="userSpaceOnUse">
		<stop  offset="0.1608" style="stop-color:#000000;stop-opacity:0.2392"/>
		<stop  offset="0.2941" style="stop-color:#000000;stop-opacity:0.2392"/>
	</radialGradient>
	<path style="fill-rule:evenodd;clip-rule:evenodd;fill:url(#SVGID_45_);" d="M44.5,113.6c3.4,0.4,5.967,1.184,7.7,2.351
		c2.533,1.666,0.934,3.166-4.8,4.5c-4.5,1.033-9.5,1.5-15,1.399c-3.033-0.066-6.7-0.366-11-0.899c-1.833-0.233-3.283-0.8-4.35-1.7
		c-0.167-0.134-0.316-0.267-0.45-0.4l-1.05-1.649c0.067,0,0.15,0,0.25,0c0.833,0.533,2.317,1.033,4.45,1.5
		c3.4,0.733,7.417,1.1,12.05,1.1c4.8,0,8.934-0.399,12.4-1.2c2.967-0.666,4.666-1.383,5.1-2.149C50.066,115.95,48.3,115,44.5,113.6z
		"/>
	
		<radialGradient id="SVGID_46_" cx="-19.833" cy="-118.0156" r="24.4823" fx="-4.7596" fy="-118.0156" gradientTransform="matrix(-0.9999 0.0158 0.0352 0.2395 21.4829 146.0207)" gradientUnits="userSpaceOnUse">
		<stop  offset="0" style="stop-color:#000000;stop-opacity:0.7451"/>
		<stop  offset="1" style="stop-color:#000000;stop-opacity:0"/>
	</radialGradient>
	<path style="fill-rule:evenodd;clip-rule:evenodd;fill:url(#SVGID_46_);" d="M15.15,116.4c-0.4,0.267-0.566,0.483-0.5,0.649
		c0.233,0.834,1.033,1.566,2.4,2.2c1.067,0.9,2.517,1.467,4.35,1.7c4.3,0.533,7.967,0.833,11,0.899c5.5,0.101,10.5-0.366,15-1.399
		c5.733-1.334,7.333-2.834,4.8-4.5c-1.733-1.167-4.3-1.95-7.7-2.351c-0.733-0.3-1.533-0.6-2.4-0.899
		c-1.233-0.434-2.316-0.816-3.25-1.15c6,0.066,11.2,0.601,15.601,1.601c4.8,1.1,7.2,2.466,7.2,4.1
		c0.033,1.634-2.334,3.033-7.101,4.2c-4.8,1.2-10.583,1.816-17.35,1.85c-6.767,0.066-12.534-0.467-17.3-1.6
		c-4.8-1.101-7.217-2.467-7.25-4.101c0-1.6,2.383-3,7.15-4.199c1-0.233,2.05-0.45,3.15-0.65c-4.3,1.467-6.833,2.566-7.6,3.3H15.3
		c-0.031,0.031-0.048,0.081-0.05,0.15C15.183,116.267,15.15,116.333,15.15,116.4z"/>
	
		<radialGradient id="SVGID_47_" cx="28.7002" cy="120.4502" r="23.0625" gradientTransform="matrix(1 0 0 -0.607 0 193.569)" gradientUnits="userSpaceOnUse">
		<stop  offset="0.0196" style="stop-color:#DEDACD"/>
		<stop  offset="0.3804" style="stop-color:#A4A198"/>
		<stop  offset="0.698" style="stop-color:#5B5A53"/>
		<stop  offset="0.7569" style="stop-color:#5F5E57"/>
		<stop  offset="0.8118" style="stop-color:#6A6961"/>
		<stop  offset="0.8627" style="stop-color:#7D7C73"/>
		<stop  offset="0.9176" style="stop-color:#98978D"/>
		<stop  offset="0.9686" style="stop-color:#BAB9AD"/>
		<stop  offset="1" style="stop-color:#D4D3C5"/>
	</radialGradient>
	<path style="fill-rule:evenodd;clip-rule:evenodd;fill:url(#SVGID_47_);" d="M22.95,112.75c1.867-0.667,4.1-1.384,6.7-2.15
		l-0.05,0.5l0.8,0.9l0.15,0.2c0.967,0.666,2.25,0.866,3.851,0.6c1.767-0.267,2.517-0.733,2.25-1.399
		c-0.134-0.367-0.434-0.65-0.9-0.851c0.8,0.233,1.833,0.566,3.1,1c0.934,0.334,2.017,0.717,3.25,1.15c0.867,0.3,1.667,0.6,2.4,0.899
		c3.8,1.4,5.566,2.351,5.3,2.851c-0.434,0.767-2.133,1.483-5.1,2.149c-3.467,0.801-7.601,1.2-12.4,1.2
		c-4.633,0-8.65-0.366-12.05-1.1c-2.133-0.467-3.617-0.967-4.45-1.5l-0.05-0.05c-0.3-0.2-0.5-0.4-0.6-0.601
		c-0.033-0.066-0.033-0.116,0-0.149c0-0.067,0.033-0.134,0.1-0.2c0.004-0.069,0.038-0.119,0.1-0.15
		C16.117,115.316,18.65,114.217,22.95,112.75z M20.5,118.05c-0.567-0.633-0.617-1.1-0.15-1.399c1.566-0.934,3.566-2.017,6-3.25
		l3.2-1.601l-9.95,3.55c-1.467,0.567-2.217,1.134-2.25,1.7c-0.033,0.5,0.566,0.917,1.8,1.25l2.4,0.601
		C21.15,118.634,20.8,118.35,20.5,118.05z"/>
	<linearGradient id="SVGID_48_" gradientUnits="userSpaceOnUse" x1="29.6001" y1="110.0752" x2="35.7002" y2="110.0752">
		<stop  offset="0" style="stop-color:#B3AFA5"/>
		<stop  offset="0.1294" style="stop-color:#DEDACD"/>
		<stop  offset="0.2706" style="stop-color:#A4A198"/>
		<stop  offset="0.698" style="stop-color:#5B5A53"/>
		<stop  offset="0.7686" style="stop-color:#5F5E57"/>
		<stop  offset="0.8353" style="stop-color:#6A6961"/>
		<stop  offset="0.898" style="stop-color:#7D7C74"/>
		<stop  offset="0.9608" style="stop-color:#98978D"/>
		<stop  offset="1" style="stop-color:#ACABA0"/>
	</linearGradient>
	<path style="fill-rule:evenodd;clip-rule:evenodd;fill:url(#SVGID_48_);" d="M35.5,107.9l0.15,2.6v0.35l0.05,0.25
		c0,0.367-0.3,0.684-0.9,0.95c-0.566,0.267-1.283,0.4-2.15,0.4c-0.833,0-1.55-0.134-2.15-0.4c-0.033-0.033-0.067-0.05-0.1-0.05
		l-0.8-0.9l0.05-0.5l0.1-2.899c0,0.333,0.283,0.616,0.85,0.85c0.566,0.267,1.25,0.4,2.05,0.4c0.8,0,1.484-0.134,2.05-0.4
		C35.134,108.384,35.4,108.167,35.5,107.9z"/>
	<path style="fill-rule:evenodd;clip-rule:evenodd;fill:#5B5A53;" d="M34.95,106.95c0.399,0.233,0.6,0.483,0.6,0.75
		c0,0.066-0.017,0.133-0.05,0.2c-0.1,0.267-0.366,0.483-0.8,0.649c-0.566,0.267-1.25,0.4-2.05,0.4c-0.8,0-1.483-0.134-2.05-0.4
		c-0.567-0.233-0.85-0.517-0.85-0.85c0-0.267,0.183-0.517,0.55-0.75v0.6c0.5,0.634,1.267,0.95,2.3,0.95c0.667,0,1.266-0.15,1.8-0.45
		l0.55-0.5V106.95z"/>
	<path style="fill-rule:evenodd;clip-rule:evenodd;fill:#52504B;" d="M30.4,112c0.033,0,0.067,0.017,0.1,0.05
		c0.6,0.267,1.317,0.4,2.15,0.4c0.867,0,1.583-0.134,2.15-0.4c0.601-0.267,0.9-0.583,0.9-0.95l-0.05-0.25v-0.35
		c0.033,0.033,0.066,0.05,0.1,0.05c0.467,0.2,0.767,0.483,0.9,0.851c0.267,0.666-0.483,1.133-2.25,1.399
		c-1.601,0.267-2.884,0.066-3.851-0.6L30.4,112z M15.35,116.05c-0.063,0.031-0.096,0.081-0.1,0.15
		c0.002-0.069,0.019-0.119,0.05-0.15H15.35z"/>
	<path style="fill-rule:evenodd;clip-rule:evenodd;fill:#DBD7CB;" d="M20.5,118.05c0.3,0.3,0.65,0.584,1.05,0.851l-2.4-0.601
		c-1.233-0.333-1.833-0.75-1.8-1.25c0.033-0.566,0.783-1.133,2.25-1.7l9.95-3.55l-3.2,1.601c-2.434,1.233-4.434,2.316-6,3.25
		C19.883,116.95,19.933,117.417,20.5,118.05z"/>
	
		<radialGradient id="SVGID_49_" cx="27.0498" cy="121.0996" r="23.975" gradientTransform="matrix(1 0 0 -0.5954 0 193.2038)" gradientUnits="userSpaceOnUse">
		<stop  offset="0.0196" style="stop-color:#DEDACD"/>
		<stop  offset="0.3804" style="stop-color:#A4A198"/>
		<stop  offset="0.698" style="stop-color:#5B5A53"/>
		<stop  offset="0.7569" style="stop-color:#5F5E57"/>
		<stop  offset="0.8118" style="stop-color:#6A6961"/>
		<stop  offset="0.8627" style="stop-color:#7D7C73"/>
		<stop  offset="0.9176" style="stop-color:#98978D"/>
		<stop  offset="0.9686" style="stop-color:#BAB9AD"/>
		<stop  offset="1" style="stop-color:#D4D3C5"/>
	</radialGradient>
	<path style="fill-rule:evenodd;clip-rule:evenodd;fill:url(#SVGID_49_);" d="M17.05,119.25c-1.367-0.634-2.167-1.366-2.4-2.2
		c-0.066-0.166,0.1-0.383,0.5-0.649c-0.033,0.033-0.033,0.083,0,0.149c0.1,0.2,0.3,0.4,0.6,0.601l0.05,0.05c-0.1,0-0.183,0-0.25,0
		l1.05,1.649C16.733,118.983,16.883,119.116,17.05,119.25z"/>
</g>
</svg>
