<?xml version="1.0" encoding="iso-8859-1"?>
<!-- Generator: Adobe Illustrator 15.1.0, SVG Export Plug-In . SVG Version: 6.00 Build 0)  -->
<!DOCTYPE svg PUBLIC "-//W3C//DTD SVG 1.1//EN" "http://www.w3.org/Graphics/SVG/1.1/DTD/svg11.dtd">
<svg version="1.1" id="Layer_1" xmlns="http://www.w3.org/2000/svg" xmlns:xlink="http://www.w3.org/1999/xlink" x="0px" y="0px"
	 width="810.8px" height="103.05px" viewBox="0 0 810.8 103.05" style="enable-background:new 0 0 810.8 103.05;"
	 xml:space="preserve">
<g>
	<linearGradient id="SVGID_1_" gradientUnits="userSpaceOnUse" x1="0" y1="11.6748" x2="810.4502" y2="11.6748">
		<stop  offset="0" style="stop-color:#BFA360"/>
		<stop  offset="1" style="stop-color:#947E4A"/>
	</linearGradient>
	<path style="fill-rule:evenodd;clip-rule:evenodd;fill:url(#SVGID_1_);" d="M810.45,15.6c-1.233,0.033-4.783,0.183-10.65,0.45
		c-9.633,0.467-20.2,0.95-31.7,1.45c-15.066,0.667-25.517,0.917-31.35,0.75c-12.366-0.333-19.95-0.5-22.75-0.5
		c-12.1,0-21.3,0.083-27.6,0.25c-5.367,0.167-13.584,0.55-24.65,1.15l132.3-0.3c2.7-0.033,8.167-0.184,16.4-0.45v0.45
		c-231.3,0.533-352.684,0.8-364.15,0.8c-0.899,0-2.633,0.017-5.2,0.05H440.7c-16.967-0.767-30.967-1.184-42-1.25
		c-11.367,0.1-20.5,0.15-27.4,0.15h-46.5c-4.566,0-7.966,0.183-10.2,0.55c-0.133,0.033-2.417,0.567-6.85,1.6l0.45,0.05
		c-82.233,0.667-128.967,1-140.2,1h-12.5c20.033-0.7,35.483-1.05,46.35-1.05c8.933,0,21.15-0.083,36.65-0.25s25.15-0.25,28.95-0.25
		c5.966,0,10.8-0.217,14.5-0.65c2.433-0.267,6.95-0.883,13.55-1.85c3.467-0.467,6.35-0.833,8.65-1.1c2.9-0.4,4.867-0.65,5.9-0.75
		c3.567-0.4,6.35-0.6,8.35-0.6c5.967,0,18.833,0.15,38.6,0.45c12.567,0.2,24.117,0.417,34.65,0.65c11.667,0.233,22.067,0.5,31.2,0.8
		c18.4,0.633,31.634,1.017,39.7,1.15c6.9,0.1,22.983,0.267,48.25,0.5c22.634,0.233,39.584,0.117,50.851-0.35
		c3.5-0.133,10.75-0.65,21.75-1.55c4.866-0.4,9.75-0.717,14.649-0.95c4.033-0.167,7.417-0.333,10.15-0.5
		c0.934-0.067,1.8-0.133,2.6-0.2c3.434-0.267,7.384-0.683,11.851-1.25h-19.9c-6.7,0.534-12.983,1.017-18.85,1.45
		c-11.434,0.767-21.367,1.333-29.801,1.7c-10.433,0.466-21.333,0.6-32.699,0.4c-12.801-0.333-22.917-0.55-30.351-0.65
		c-4.866-0.067-15.083-0.367-30.649-0.9c-3.034-0.1-5.95-0.2-8.75-0.3c-15.467-0.533-27.801-0.933-37-1.2
		c33.233-0.433,107.416-0.6,222.55-0.5c60.767,0.067,118.517,0.167,173.25,0.3V15.6z M349.65,20.35c-8.533,0.1-17.6,0.2-27.2,0.3
		c3.167-0.267,8.4-0.4,15.7-0.4L349.65,20.35z M107.7,21.8H66.75L52.8,21.3c-14.867-0.433-29.633-0.267-44.3,0.5H0.65h-0.1H0
		l3.85-3.15c2.8-0.2,5.733-0.316,8.8-0.35c8.567-0.1,18.817-0.033,30.75,0.2c17.7,0.367,29.533,0.583,35.5,0.65
		c13.2,0.1,28.833-0.083,46.9-0.55c16.067-0.434,27.4-0.9,34-1.4c5.367-0.367,13.35-0.784,23.95-1.25
		c11.033-0.5,20.4-0.85,28.1-1.05c35.533,0.067,66.667,0.117,93.4,0.15c-2.267,0.434-6.167,0.784-11.7,1.05
		c-2.667,0.133-5.083,0.3-7.25,0.5c-3.9,0.367-7.05,0.8-9.45,1.3c-2.5,0.533-10.3,0.85-23.4,0.95c-11.9,0.1-21.8,0.15-29.7,0.15
		c-7.6,0-17.033,0.05-28.3,0.15c-13.434,0.1-25.95,0.367-37.55,0.8c-27.233,1.033-41.683,1.583-43.35,1.65L107.7,21.8z M102.9,14.5
		l71.05,0.3c-7.733,0.434-15.85,0.967-24.35,1.6c-17.333,1.267-36.783,1.8-58.35,1.6c-3.367-0.033-17.883-0.383-43.55-1.05
		c-7.233-0.2-20.633-0.617-40.2-1.25l0.45-0.4H12c0.267,0,0.617,0,1.05,0c2.8,0,8.8-0.05,18-0.15c2.167-0.033,4.35-0.05,6.55-0.05
		c2.333-0.033,4.7-0.05,7.1-0.05c3.233,0,6.533,0,9.9,0C57.967,15.017,61.4,15,64.9,15C75.333,15,88,14.833,102.9,14.5z M19.4,5.95
		l5.4-4.4c1.067,0,2.15,0,3.25,0c6.8,0.034,13.133,0.133,19,0.3l5.5,0.2l0.3-0.2l-5.5,4.3l0.4-0.35L19.4,5.95z M41.15,10.95
		l-2.65,2.1c-7.567-0.2-15.067-0.45-22.5-0.75c-1.4-0.033-2.783-0.083-4.15-0.15L13,11.2l27.75,0.05L41.15,10.95z M42.5,9.9
		c-8.667,0.133-15.433,0.2-20.3,0.2c-2.667,0-5.2-0.067-7.6-0.2l3.1-2.55h28.1L42.5,9.9z"/>
	<linearGradient id="SVGID_2_" gradientUnits="userSpaceOnUse" x1="10.5" y1="17.375" x2="807.5" y2="17.375">
		<stop  offset="0" style="stop-color:#AB9050"/>
		<stop  offset="1" style="stop-color:#857142"/>
	</linearGradient>
	<path style="fill-rule:evenodd;clip-rule:evenodd;fill:url(#SVGID_2_);" d="M810.45,15.6v2.8c-8.233,0.267-13.7,0.417-16.4,0.45
		l-132.3,0.3c11.066-0.6,19.283-0.983,24.65-1.15c6.3-0.167,15.5-0.25,27.6-0.25c2.8,0,10.384,0.167,22.75,0.5
		c5.833,0.167,16.283-0.083,31.35-0.75c11.5-0.5,22.067-0.983,31.7-1.45C805.667,15.783,809.217,15.633,810.45,15.6z"/>
	
		<linearGradient id="SVGID_3_" gradientUnits="userSpaceOnUse" x1="27.355" y1="-407.5488" x2="71.73" y2="-407.5488" gradientTransform="matrix(2.253521e-005 1 -1 -0.001 -3.057504e-004 1.614196e-004)">
		<stop  offset="0.0078" style="stop-color:#4F4D3F"/>
		<stop  offset="0.1333" style="stop-color:#75705D"/>
		<stop  offset="0.3137" style="stop-color:#8F8872"/>
		<stop  offset="1" style="stop-color:#8F8872"/>
	</linearGradient>
	<path style="fill-rule:evenodd;clip-rule:evenodd;fill:url(#SVGID_3_);" d="M810.25,21.2c0.066,0,0.134,0,0.2,0s0.116,0,0.149,0
		v48.2c-2-1.233-4.316-2-6.949-2.301c0.033-1.133-0.084-2.466-0.351-4c-0.066-0.466-0.333-1.75-0.8-3.85
		c-0.733,1.434-0.85,3.116-0.35,5.05c0.533,2.134,0.699,3.533,0.5,4.2c-0.5,1.6-1.834,2.467-4,2.6
		c-2.534-0.133-4.25-0.216-5.15-0.25c-0.1,0-1.634,0.117-4.6,0.351c-1.9,0.133-3.384,0.05-4.45-0.25
		c-0.533-0.167-1.467-0.7-2.8-1.601c-1.067-0.733-2.084-1.066-3.051-1c-0.199-1-0.05-2.55,0.45-4.649c0.467-1.9,0.467-3.4,0-4.5
		c-0.8,0.399-1.75,1.267-2.85,2.6c-1.3,1.667-2.2,2.7-2.7,3.101c-0.934,0.8-1.917,1.35-2.95,1.649c-1.233,0.233-2.25,0.467-3.05,0.7
		c-0.634,0.2-1.833,0.634-3.6,1.3c-1.467,0.566-2.667,0.95-3.601,1.15c-1.1,0.233-2.85,0.25-5.25,0.05
		c-2.333-0.2-4.083-0.15-5.25,0.15c0.134,0.699,0.634,1.399,1.5,2.1c0.467,0.366,1.217,0.917,2.25,1.65
		c1.667,1.399,1.601,3.183-0.2,5.35c-0.699,0.866-1.899,1.35-3.6,1.45c-1.9,0-3.217,0.066-3.95,0.2l-2.45,0.6
		c-1.933,0-3.866,0.017-5.8,0.05l0.851-0.05L728.7,79c-5.834-1.333-9.334-2.233-10.5-2.7c-4.8-1.866-7.417-4.5-7.851-7.899
		c-0.1-0.834,0.084-2.467,0.551-4.9c0.466-2.366,0.6-4.2,0.399-5.5c-1.133-0.7-2.366-0.767-3.7-0.2c0.067,3.5-1.316,5.834-4.149,7
		c-1.101,0.467-2.05,0.45-2.851-0.05c-0.633-0.434-1-1.134-1.1-2.1c0.1,1.233,0.45,2.966,1.05,5.199
		c0.634,2.367,0.617,4.184-0.05,5.45c-0.967,1.9-3.3,2.884-7,2.95c-3.7,0.1-6.017-0.8-6.95-2.7c1.066-1.166,2.05-2.399,2.95-3.7
		c-2.3-0.333-5.184-0.466-8.65-0.399c-3.866,0.133-6.75,0.2-8.649,0.2c-3.434-0.167-6.05-0.284-7.851-0.351
		c-3.199-0.1-5.783,0.084-7.75,0.55c0.434,3.034-1.616,4.851-6.149,5.45c-5.267,0.101-8.55,0.283-9.851,0.55
		c-0.233,1.301-0.666,3.167-1.3,5.601l-1.95,0.3c-0.1,0-0.199,0-0.3,0c-5.733,0-11.483,0.017-17.25,0.05h-0.25
		c-2.1-0.1-4.184-0.149-6.25-0.149L611,81.85c-0.167,0-0.333,0-0.5,0c-2.967,0-5.917,0-8.85,0c-2.667,0-5.317,0.017-7.95,0.051
		h-0.05c-1.7-0.534-2.834-1.417-3.4-2.65c0.7-0.833,2.5-1.8,5.4-2.9c2.5-0.966,4.1-2.333,4.8-4.1c-1.3-0.333-2.816-0.184-4.55,0.45
		c-2.834,1-4.301,1.517-4.4,1.55c-1.1,0.233-2.483,0.333-4.15,0.3c-1.833-0.066-3.216-0.1-4.149-0.1
		c-4.867-0.367-8.584-0.601-11.15-0.7c-4.633-0.167-8.166,0.366-10.6,1.6c1.6,0.967,3.899,1.417,6.899,1.351
		c3.5-0.101,5.851,0.033,7.051,0.399c-1.233,1.134-3.667,1.717-7.301,1.75c-3.633,0.034-6.116,0.65-7.449,1.851
		c-0.233,0.2-0.517,0.633-0.851,1.3c-119.267,0.366-190.667,0.316-214.2-0.15c-25.967-0.533-70.233-0.699-132.8-0.5
		c-13.533,0.067-25.667,0.2-36.4,0.4L161,81.7l9-0.15c-0.7-0.533-1.517-1.017-2.45-1.45c-0.867-0.366-3.216-0.5-7.05-0.399
		c-3.267,0.066-5.333-0.467-6.2-1.601c1.1-2.333,2.733-3.8,4.9-4.399c1.533-0.434,3.683-0.467,6.45-0.101
		c3.5,0.467,5.684,0.7,6.55,0.7c2.3-0.066,4.05-0.816,5.25-2.25c-0.733-1.1-2.583-1.616-5.55-1.55
		c-3.333,0.267-5.533,0.384-6.6,0.35c-2.367-0.033-4.417-0.399-6.15-1.1c-1.566-0.6-3.4-1.684-5.5-3.25c-0.367,4.667-2.283,7-5.75,7
		c-4.566-0.767-8.05-0.85-10.45-0.25c-0.534,0.134-1.784,0.65-3.75,1.55c-1.367,0.601-2.767,0.884-4.2,0.851
		c-2.433-0.067-4.15-0.2-5.15-0.4c-1.833-0.366-3.417-1.134-4.75-2.3c0.533-1,0.867-2.066,1-3.2c0.1-1.233-0.067-2.35-0.5-3.35
		c-0.934,0.267-2.217,1.316-3.85,3.149c-1.167,1.334-2.75,1.7-4.75,1.101c-0.967-0.301-2.433-0.983-4.4-2.051
		c-1.934-1.033-3.45-1.699-4.55-2c2.167,2.567,5.317,4.733,9.45,6.5c2.333,1,5.833,2.334,10.5,4c0.133,0.601,0.183,1.334,0.15,2.2
		c-0.033,0.9-0.15,1.634-0.35,2.2c-0.667-0.033-1.4,0.083-2.2,0.35H120c-2.433,0-4.117,0-5.05,0c-6.767,0-27.2-0.216-61.3-0.649
		l-3.2-0.05c-1.333-0.601-2.333-1.233-3-1.9c0.133-0.167,0.3-0.517,0.5-1.05c0.2-0.566,0.35-0.934,0.45-1.101
		c-1.433-0.3-3.233-0.433-5.4-0.399c-2.433,0.1-4.25,0.149-5.45,0.149c-1.367,0.067-2.383,0.101-3.05,0.101
		c-1.233,0.033-2.233-0.066-3-0.3C31.1,76.55,30.35,76,29.25,75c-0.767-0.7-1.65-0.816-2.65-0.35
		c0.233,3.333-1.117,5.383-4.05,6.149L9.7,80.6l-4.6-0.05H4.5V78.7l2.3-0.05c-0.566-0.801-0.9-2.034-1-3.7
		c-0.1-1.667-0.1-15.267,0-40.8l-1.3-0.5v-8H30l-5.5,0.9c2.967,1.867,7.3,2.5,13,1.9c6.2-0.7,10.483-0.567,12.85,0.4
		c0.467,0.2,0.967,0.617,1.5,1.25c0.566,0.667,1.1,1.117,1.6,1.35c0.466,0.2,1.433,0.316,2.9,0.35c1.267,0.034,2.283,0.35,3.05,0.95
		c-2.133,6.033-4.017,9.667-5.65,10.9c-0.7,0.567-1.75,0.95-3.15,1.15c-1.633,0.167-2.833,0.317-3.6,0.45
		c-1.567-0.467-2.6-0.717-3.1-0.75h0.6c-2.133-0.033-3.533-0.3-4.2-0.8c-0.133-0.1-1.083-1.284-2.85-3.55
		c-0.034,1.533,0.017,2.65,0.15,3.35c0.133,0.667,0.483,1.517,1.05,2.55c-0.133-0.267,0.317,0,1.35,0.8c0.533,0.4,1.033,0.8,1.5,1.2
		c0.233,0.233,0.617,0.883,1.15,1.95c0.434,0.833,1.033,1.433,1.8,1.8c1.4,0.634,3.3,0.384,5.7-0.75c2.567-1.167,4-2.667,4.3-4.5
		c0.767-0.3,1.367-0.667,1.8-1.1c1.067-1,2.117-2.9,3.15-5.7c1.033-2.767,2.15-4.683,3.35-5.75c1.867-1.633,4.017-2.933,6.45-3.9
		c1.667-0.667,4.066-1.35,7.2-2.05c2.667-0.6,6.867-1,12.6-1.2c4.967-0.167,8.867-0.567,11.7-1.2h14.8
		c5.833,0,70.75-0.35,194.75-1.05c124-0.733,190.917-1.1,200.75-1.1h238.75c4.3,1.1,6.267,3.217,5.9,6.35
		c2,0.4,3.449,0.783,4.35,1.15c1.667,0.667,2.767,1.567,3.3,2.7c0.2,0.433,0.217,2,0.05,4.7c-0.133,2.067,0.5,3.25,1.9,3.55
		c1.8-5.7,2.75-8.617,2.85-8.75c1.267-2.1,4.017-3.483,8.25-4.15c0.067,0,3.551-0.267,10.45-0.8c4.233-0.3,7.55-1.083,9.95-2.35
		c1-0.5,2.134-1.233,3.4-2.2c0.1-0.067,0.183-0.133,0.25-0.2h10.1L810.25,21.2z M730.5,56.5l-3-1.2l0.15,2
		c0.733,0.566,1.3,0.733,1.699,0.5C729.583,57.7,729.967,57.267,730.5,56.5z M723.4,55.3c0.267-0.934-0.034-1.333-0.9-1.2l-1-1.199
		c-1.2-0.367-2.217-0.267-3.05,0.3c-0.934,0.633-1.217,1.666-0.851,3.1C720.366,56.934,722.3,56.6,723.4,55.3z M178.5,66.1
		c-0.2,0.967-0.15,2.5,0.15,4.601c0.5,0.233,1.117,0.35,1.85,0.35c0.7,0,1.3-0.116,1.8-0.35c0.4-1.3,0.317-2.384-0.25-3.25
		c-0.533-0.834-1.383-1.283-2.55-1.351H178.5z"/>
	<linearGradient id="SVGID_4_" gradientUnits="userSpaceOnUse" x1="0.5498" y1="22.75" x2="810.5" y2="22.75">
		<stop  offset="0" style="stop-color:#826E44"/>
		<stop  offset="1" style="stop-color:#665635"/>
	</linearGradient>
	<path style="fill-rule:evenodd;clip-rule:evenodd;fill:url(#SVGID_4_);" d="M100.7,25.65H30H4.5H0.65l-0.1-3.6l71.8,0.4
		c50.7,0.233,82.583,0.35,95.65,0.35c11.367,0,59.1-0.35,143.2-1.05c84.133-0.733,129.166-1.1,135.1-1.1
		c11.467,0,132.733-0.267,363.8-0.8l0.15,1.35l0.25,2.3h-10.1h-50.65H511c-9.833,0-76.75,0.367-200.75,1.1
		c-124,0.7-188.917,1.05-194.75,1.05H100.7z M0.65,21.8c-0.033,0.034-0.066,0.05-0.1,0.05V21.8H0.65z"/>
	<path style="fill-rule:evenodd;clip-rule:evenodd;fill:#C9B27B;" d="M322.45,20.65c9.6-0.1,18.667-0.2,27.2-0.3l19.1-0.1
		c20.867-0.167,37.566-0.3,50.1-0.4c0.101,0,0.233,0,0.4,0c0.134,0,0.267,0,0.4,0c0.433,0,0.883,0,1.35,0
		c1.967-0.033,3.833-0.05,5.6-0.05l12.75-0.1c0.467,0,0.917,0,1.351,0h0.399c2.567-0.034,4.301-0.05,5.2-0.05
		c11.467,0,132.851-0.267,364.15-0.8v1c-0.134,0-0.25,0-0.351,0c-231.066,0.533-352.333,0.8-363.8,0.8
		c-5.934,0-50.966,0.367-135.1,1.1c-84.1,0.7-131.833,1.05-143.2,1.05c-13.067,0-44.95-0.117-95.65-0.35l-71.8-0.4h-0.3
		c0.1-0.066,0.2-0.133,0.3-0.2c0.034,0,0.067-0.017,0.1-0.05H8.5h58.25h40.95h47.8H168c11.233,0,57.967-0.333,140.2-1l3-0.05
		c0.466,0,0.95,0,1.45,0L322.45,20.65z"/>
	<path style="fill-rule:evenodd;clip-rule:evenodd;fill:#9E9575;" d="M810.45,19.85v1.35c-0.066,0-0.134,0-0.2,0l-0.15-1.35
		C810.2,19.85,810.316,19.85,810.45,19.85z M38.5,14.25h-1.55l1.55-1.2l2.65-2.1L42.5,9.9l3.3-2.55l0.4-0.3L38.5,14.25z M29.4,0.3
		c0.1-0.1,0.2-0.2,0.3-0.3c0.7,0.1,1.417,0.2,2.15,0.3H29.4z"/>
	<path style="fill-rule:evenodd;clip-rule:evenodd;fill:#524E41;" d="M637.35,81.75l100.2-0.45c1.934-0.033,3.867-0.05,5.8-0.05
		c22.7-0.1,45.117-0.217,67.25-0.35V75.3h0.2v11.55L651.9,86.05c-6.867,0-165.367-1.434-475.5-4.3c10.733-0.2,22.867-0.333,36.4-0.4
		c62.567-0.199,106.833-0.033,132.8,0.5c23.533,0.467,94.933,0.517,214.2,0.15l33.851-0.1h0.05c2.633-0.034,5.283-0.051,7.95-0.051
		c2.933,0,5.883,0,8.85,0c0.167,0,0.333,0,0.5,0l8.55-0.05h0.25c5.767-0.033,11.517-0.05,17.25-0.05
		C637.15,81.75,637.25,81.75,637.35,81.75z"/>
	<path style="fill-rule:evenodd;clip-rule:evenodd;fill:#615C4E;" d="M611,81.85l2.3-0.199c2.066,0,4.15,0.05,6.25,0.149L611,81.85z
		 M593.65,81.9L559.8,82c0.334-0.667,0.617-1.1,0.851-1.3c1.333-1.2,3.816-1.816,7.449-1.851c3.634-0.033,6.067-0.616,7.301-1.75
		c-1.2-0.366-3.551-0.5-7.051-0.399c-3,0.066-5.3-0.384-6.899-1.351c2.434-1.233,5.967-1.767,10.6-1.6
		c2.566,0.1,6.283,0.333,11.15,0.7c0.934,0,2.316,0.033,4.149,0.1c1.667,0.033,3.051-0.066,4.15-0.3c0.1-0.033,1.566-0.55,4.4-1.55
		c1.733-0.634,3.25-0.783,4.55-0.45c-0.7,1.767-2.3,3.134-4.8,4.1c-2.9,1.101-4.7,2.067-5.4,2.9
		C590.816,80.483,591.95,81.366,593.65,81.9z M737.55,81.3l-100.2,0.45l1.95-0.3c0.634-2.434,1.066-4.3,1.3-5.601
		c1.301-0.267,4.584-0.449,9.851-0.55c4.533-0.6,6.583-2.416,6.149-5.45c1.967-0.466,4.551-0.649,7.75-0.55
		c1.801,0.066,4.417,0.184,7.851,0.351c1.899,0,4.783-0.067,8.649-0.2c3.467-0.066,6.351,0.066,8.65,0.399
		c-0.9,1.301-1.884,2.534-2.95,3.7c0.934,1.9,3.25,2.8,6.95,2.7c3.7-0.066,6.033-1.05,7-2.95c0.667-1.267,0.684-3.083,0.05-5.45
		c-0.6-2.233-0.95-3.966-1.05-5.199c0.1,0.966,0.467,1.666,1.1,2.1c0.801,0.5,1.75,0.517,2.851,0.05c2.833-1.166,4.217-3.5,4.149-7
		c1.334-0.566,2.567-0.5,3.7,0.2c0.2,1.3,0.066,3.134-0.399,5.5c-0.467,2.434-0.65,4.066-0.551,4.9
		c0.434,3.399,3.051,6.033,7.851,7.899c1.166,0.467,4.666,1.367,10.5,2.7l9.7,2.25L737.55,81.3z M810.6,69.4V75.3V80.9
		c-22.133,0.133-44.55,0.25-67.25,0.35l2.45-0.6c0.733-0.134,2.05-0.2,3.95-0.2c1.7-0.101,2.9-0.584,3.6-1.45
		c1.801-2.167,1.867-3.95,0.2-5.35c-1.033-0.733-1.783-1.284-2.25-1.65c-0.866-0.7-1.366-1.4-1.5-2.1
		c1.167-0.301,2.917-0.351,5.25-0.15c2.4,0.2,4.15,0.184,5.25-0.05c0.934-0.2,2.134-0.584,3.601-1.15c1.767-0.666,2.966-1.1,3.6-1.3
		c0.8-0.233,1.816-0.467,3.05-0.7c1.033-0.3,2.017-0.85,2.95-1.649c0.5-0.4,1.4-1.434,2.7-3.101c1.1-1.333,2.05-2.2,2.85-2.6
		c0.467,1.1,0.467,2.6,0,4.5c-0.5,2.1-0.649,3.649-0.45,4.649c0.967-0.066,1.983,0.267,3.051,1c1.333,0.9,2.267,1.434,2.8,1.601
		c1.066,0.3,2.55,0.383,4.45,0.25c2.966-0.233,4.5-0.351,4.6-0.351c0.9,0.034,2.616,0.117,5.15,0.25c2.166-0.133,3.5-1,4-2.6
		c0.199-0.667,0.033-2.066-0.5-4.2c-0.5-1.934-0.384-3.616,0.35-5.05c0.467,2.1,0.733,3.384,0.8,3.85
		c0.267,1.534,0.384,2.867,0.351,4C806.283,67.4,808.6,68.167,810.6,69.4z M730.5,56.5c-0.533,0.767-0.917,1.2-1.15,1.3
		c-0.399,0.233-0.966,0.066-1.699-0.5l-0.15-2L730.5,56.5z M723.4,55.3c-1.101,1.3-3.034,1.634-5.801,1
		c-0.366-1.434-0.083-2.467,0.851-3.1c0.833-0.566,1.85-0.667,3.05-0.3l1,1.199C723.366,53.967,723.667,54.366,723.4,55.3z"/>
	<path style="fill-rule:evenodd;clip-rule:evenodd;fill:#A39C87;" d="M22.55,80.8l27.9,0.4h0.1c-0.034-0.001-0.067-0.018-0.1-0.05
		l3.2,0.05c34.1,0.434,54.533,0.649,61.3,0.649c0.933,0,2.617,0,5.05,0h0.1L161,81.7l15.4,0.05c310.133,2.866,468.633,4.3,475.5,4.3
		l158.899,0.8v8.801c-0.434,0-0.866,0-1.3,0c-261.4-4.233-413.633-6.634-456.7-7.2c-127.033-1.667-222.7-3.5-287-5.5
		c-17.7-0.566-32.117-1.101-43.25-1.601c-0.1,0-0.167,0-0.2,0c-1.333-0.066-2.617-0.133-3.85-0.199
		c-3.933-0.233-6.867-0.417-8.8-0.551L22.55,80.8z"/>
	<path style="fill-rule:evenodd;clip-rule:evenodd;fill:#454138;" d="M749.75,23.5h50.65c-0.067,0.067-0.15,0.133-0.25,0.2
		c-1.267,0.966-2.4,1.7-3.4,2.2c-2.4,1.267-5.717,2.05-9.95,2.35c-6.899,0.533-10.383,0.8-10.45,0.8
		c-4.233,0.667-6.983,2.05-8.25,4.15c-0.1,0.133-1.05,3.05-2.85,8.75c-1.4-0.3-2.033-1.483-1.9-3.55c0.167-2.7,0.15-4.267-0.05-4.7
		c-0.533-1.133-1.633-2.034-3.3-2.7c-0.9-0.367-2.35-0.75-4.35-1.15C756.017,26.717,754.05,24.6,749.75,23.5z"/>
	
		<linearGradient id="SVGID_5_" gradientUnits="userSpaceOnUse" x1="80.605" y1="-407.2949" x2="97.48" y2="-407.2949" gradientTransform="matrix(5.925926e-005 1 -1 -0.001 -4.559878e-004 1.353845e-004)">
		<stop  offset="0" style="stop-color:#918B78;stop-opacity:0.6863"/>
		<stop  offset="0.2275" style="stop-color:#958F7C;stop-opacity:0.651"/>
		<stop  offset="0.4588" style="stop-color:#A29B88;stop-opacity:0.5255"/>
		<stop  offset="0.698" style="stop-color:#B6AF9D;stop-opacity:0.3373"/>
		<stop  offset="0.9373" style="stop-color:#D3CCB9;stop-opacity:0.0706"/>
		<stop  offset="1" style="stop-color:#DCD4C2;stop-opacity:0"/>
	</linearGradient>
	<path style="fill-rule:evenodd;clip-rule:evenodd;fill:url(#SVGID_5_);" d="M9.7,80.6c1.933,0.134,4.867,0.317,8.8,0.551
		c1.233,0.066,2.517,0.133,3.85,0.199c0.033,0,0.1,0,0.2,0c11.133,0.5,25.55,1.034,43.25,1.601c64.3,2,159.967,3.833,287,5.5
		c43.067,0.566,195.3,2.967,456.7,7.2v7.399H5.1v-22.5L9.7,80.6z"/>
	<linearGradient id="SVGID_6_" gradientUnits="userSpaceOnUse" x1="10.5" y1="17.9248" x2="807.5" y2="17.9248">
		<stop  offset="0" style="stop-color:#AB9050"/>
		<stop  offset="1" style="stop-color:#857142"/>
	</linearGradient>
	<path style="fill-rule:evenodd;clip-rule:evenodd;fill:url(#SVGID_6_);" d="M155.5,21.8h-47.8l6.85-0.2
		c1.667-0.067,16.117-0.617,43.35-1.65c11.6-0.434,24.117-0.7,37.55-0.8c11.267-0.1,20.7-0.15,28.3-0.15c7.9,0,17.8-0.05,29.7-0.15
		c13.1-0.1,20.9-0.417,23.4-0.95c2.4-0.5,5.55-0.933,9.45-1.3c2.167-0.2,4.583-0.367,7.25-0.5c5.534-0.267,9.434-0.617,11.7-1.05
		c0.033-0.033,0.067-0.05,0.1-0.05c0.8,0,1.6,0.017,2.4,0.05l106.9-0.5c9.199,0.267,21.533,0.667,37,1.2c2.8,0.1,5.716,0.2,8.75,0.3
		c15.566,0.534,25.783,0.833,30.649,0.9c7.434,0.1,17.55,0.316,30.351,0.65c11.366,0.2,22.267,0.066,32.699-0.4
		c8.434-0.367,18.367-0.934,29.801-1.7c5.866-0.433,12.149-0.917,18.85-1.45h19.9c-4.467,0.567-8.417,0.983-11.851,1.25
		c-0.8,0.067-1.666,0.133-2.6,0.2c-2.733,0.167-6.117,0.333-10.15,0.5c-4.899,0.233-9.783,0.55-14.649,0.95
		c-11,0.9-18.25,1.417-21.75,1.55c-11.267,0.467-28.217,0.583-50.851,0.35c-25.267-0.233-41.35-0.4-48.25-0.5
		c-8.066-0.133-21.3-0.517-39.7-1.15c-9.133-0.3-19.533-0.567-31.2-0.8c-10.533-0.233-22.083-0.45-34.65-0.65
		c-19.767-0.3-32.633-0.45-38.6-0.45c-2,0-4.783,0.2-8.35,0.6c-1.033,0.1-3,0.35-5.9,0.75c-2.3,0.267-5.183,0.633-8.65,1.1
		c-6.6,0.967-11.117,1.583-13.55,1.85c-3.7,0.433-8.534,0.65-14.5,0.65c-3.8,0-13.45,0.083-28.95,0.25s-27.717,0.25-36.65,0.25
		C190.983,20.75,175.533,21.1,155.5,21.8z"/>
	<linearGradient id="SVGID_7_" gradientUnits="userSpaceOnUse" x1="10.5" y1="19.625" x2="807.5" y2="19.625">
		<stop  offset="0" style="stop-color:#AB9050"/>
		<stop  offset="1" style="stop-color:#857142"/>
	</linearGradient>
	<path style="fill-rule:evenodd;clip-rule:evenodd;fill:url(#SVGID_7_);" d="M322.45,20.65l-9.8,0.1c-0.5,0-0.983,0-1.45,0l-3,0.05
		l-0.45-0.05c4.433-1.033,6.717-1.567,6.85-1.6c2.233-0.367,5.633-0.55,10.2-0.55h46.5c6.9,0,16.034-0.05,27.4-0.15
		c11.033,0.066,25.033,0.483,42,1.25c-0.434,0-0.884,0-1.351,0l-12.75,0.1c-1.767,0-3.633,0.017-5.6,0.05c-0.467,0-0.917,0-1.35,0
		c-0.134,0-0.267,0-0.4,0c-0.167,0-0.3,0-0.4,0c-12.533,0.1-29.233,0.233-50.1,0.4l-19.1,0.1l-11.5-0.1
		C330.85,20.25,325.617,20.383,322.45,20.65z"/>
	<linearGradient id="SVGID_8_" gradientUnits="userSpaceOnUse" x1="10.5" y1="16.9629" x2="807.5" y2="16.9629">
		<stop  offset="0" style="stop-color:#AB9050"/>
		<stop  offset="1" style="stop-color:#857142"/>
	</linearGradient>
	<path style="fill-rule:evenodd;clip-rule:evenodd;fill:url(#SVGID_8_);" d="M211.85,14.9c-7.7,0.2-17.067,0.55-28.1,1.05
		c-10.6,0.466-18.583,0.883-23.95,1.25c-6.6,0.5-17.933,0.966-34,1.4c-18.066,0.467-33.7,0.65-46.9,0.55
		c-5.967-0.066-17.8-0.283-35.5-0.65c-11.933-0.233-22.183-0.3-30.75-0.2c-3.066,0.034-6,0.15-8.8,0.35L7.5,15.7
		c19.567,0.633,32.967,1.05,40.2,1.25c25.667,0.667,40.183,1.017,43.55,1.05c21.567,0.2,41.017-0.333,58.35-1.6
		c8.5-0.633,16.617-1.167,24.35-1.6c0.066-0.033,0.15-0.05,0.25-0.05l39.15,0.1C212.85,14.85,212.35,14.867,211.85,14.9z"/>
	<path style="fill-rule:evenodd;clip-rule:evenodd;fill:#6B6756;" d="M178.5,66.1h1c1.167,0.067,2.017,0.517,2.55,1.351
		c0.567,0.866,0.65,1.95,0.25,3.25c-0.5,0.233-1.1,0.35-1.8,0.35c-0.733,0-1.35-0.116-1.85-0.35
		C178.35,68.6,178.3,67.066,178.5,66.1z"/>
	<path style="fill-rule:evenodd;clip-rule:evenodd;fill:#706A5A;" d="M50.45,81.15v0.05l-27.9-0.4
		c2.934-0.767,4.284-2.816,4.05-6.149c1-0.467,1.883-0.351,2.65,0.35c1.1,1,1.85,1.55,2.25,1.65c0.767,0.233,1.767,0.333,3,0.3
		c0.667,0,1.683-0.033,3.05-0.101c1.2,0,3.017-0.05,5.45-0.149c2.167-0.033,3.967,0.1,5.4,0.399c-0.1,0.167-0.25,0.534-0.45,1.101
		c-0.2,0.533-0.367,0.883-0.5,1.05C48.117,79.917,49.117,80.55,50.45,81.15z M161,81.7l-40.9,0.149c0.8-0.267,1.533-0.383,2.2-0.35
		c0.2-0.566,0.317-1.3,0.35-2.2c0.033-0.866-0.017-1.6-0.15-2.2c-4.667-1.666-8.167-3-10.5-4c-4.133-1.767-7.283-3.933-9.45-6.5
		c1.1,0.301,2.617,0.967,4.55,2c1.967,1.067,3.433,1.75,4.4,2.051c2,0.6,3.583,0.233,4.75-1.101c1.633-1.833,2.917-2.883,3.85-3.149
		c0.433,1,0.6,2.116,0.5,3.35c-0.133,1.134-0.467,2.2-1,3.2c1.333,1.166,2.917,1.934,4.75,2.3c1,0.2,2.717,0.333,5.15,0.4
		c1.433,0.033,2.833-0.25,4.2-0.851c1.966-0.899,3.216-1.416,3.75-1.55c2.4-0.6,5.883-0.517,10.45,0.25c3.467,0,5.383-2.333,5.75-7
		c2.1,1.566,3.934,2.65,5.5,3.25c1.733,0.7,3.783,1.066,6.15,1.1c1.067,0.034,3.267-0.083,6.6-0.35
		c2.967-0.066,4.817,0.45,5.55,1.55c-1.2,1.434-2.95,2.184-5.25,2.25c-0.867,0-3.05-0.233-6.55-0.7
		c-2.767-0.366-4.917-0.333-6.45,0.101c-2.167,0.6-3.8,2.066-4.9,4.399c0.867,1.134,2.934,1.667,6.2,1.601
		c3.833-0.101,6.183,0.033,7.05,0.399c0.934,0.434,1.75,0.917,2.45,1.45L161,81.7z"/>
	<path style="fill-rule:evenodd;clip-rule:evenodd;fill:#444337;" d="M30,25.65h70.7c-2.833,0.633-6.733,1.033-11.7,1.2
		c-5.733,0.2-9.933,0.6-12.6,1.2c-3.133,0.7-5.533,1.383-7.2,2.05c-2.434,0.967-4.583,2.267-6.45,3.9
		c-1.2,1.067-2.317,2.983-3.35,5.75c-1.033,2.8-2.083,4.7-3.15,5.7c-0.433,0.433-1.033,0.8-1.8,1.1c0.1-0.633,0.033-1.267-0.2-1.9
		c-0.967,0.9-2.117,1.333-3.45,1.3c-0.833,0-2.1-0.233-3.8-0.7c0.767-0.133,1.967-0.283,3.6-0.45c1.4-0.2,2.45-0.583,3.15-1.15
		c1.633-1.233,3.517-4.867,5.65-10.9c-0.767-0.6-1.783-0.917-3.05-0.95c-1.467-0.033-2.434-0.15-2.9-0.35
		c-0.5-0.233-1.034-0.684-1.6-1.35c-0.533-0.633-1.033-1.05-1.5-1.25c-2.367-0.967-6.65-1.1-12.85-0.4c-5.7,0.6-10.033-0.034-13-1.9
		L30,25.65z"/>
	<path style="fill-rule:evenodd;clip-rule:evenodd;fill:#57492D;" d="M45.4,14.3l-6.9-0.05l7.7-7.2l1.15-0.9l5.5-4.3L53.3,1.5
		l2.2-0.05V2.6c-0.133,0.2-0.383,0.5-0.75,0.9C54.417,3.867,54,4.3,53.5,4.8c-1.067,1.067-1.733,1.817-2,2.25
		c-0.533,0.6-1.833,2.167-3.9,4.7C46.833,12.683,46.1,13.533,45.4,14.3z"/>
	<path style="fill-rule:evenodd;clip-rule:evenodd;fill:#3B382F;" d="M54.75,3.5L54.6,14.35l-9.2-0.05
		c0.7-0.767,1.434-1.617,2.2-2.55c2.066-2.533,3.367-4.1,3.9-4.7c0.267-0.433,0.933-1.183,2-2.25C54,4.3,54.417,3.867,54.75,3.5z"/>
	<linearGradient id="SVGID_9_" gradientUnits="userSpaceOnUse" x1="10.5" y1="1.1748" x2="807.5" y2="1.1748">
		<stop  offset="0" style="stop-color:#AB9050"/>
		<stop  offset="1" style="stop-color:#857142"/>
	</linearGradient>
	<path style="fill-rule:evenodd;clip-rule:evenodd;fill:url(#SVGID_9_);" d="M52.85,1.85l-0.3,0.2l-5.5-0.2
		c-5.867-0.167-12.2-0.267-19-0.3c-1.1,0-2.183,0-3.25,0l1.5-1.25h3.1h2.45H54.8l-1.5,1.2L52.85,1.85z"/>
	<linearGradient id="SVGID_10_" gradientUnits="userSpaceOnUse" x1="10.5" y1="6.5752" x2="807.5" y2="6.5752">
		<stop  offset="0" style="stop-color:#AB9050"/>
		<stop  offset="1" style="stop-color:#857142"/>
	</linearGradient>
	<polygon style="fill-rule:evenodd;clip-rule:evenodd;fill:url(#SVGID_10_);" points="46.2,7.05 45.8,7.35 17.7,7.35 19.4,5.95 
		47.75,5.8 47.35,6.15 	"/>
	<linearGradient id="SVGID_11_" gradientUnits="userSpaceOnUse" x1="10.5" y1="10.5752" x2="807.5" y2="10.5752">
		<stop  offset="0" style="stop-color:#AB9050"/>
		<stop  offset="1" style="stop-color:#857142"/>
	</linearGradient>
	<path style="fill-rule:evenodd;clip-rule:evenodd;fill:url(#SVGID_11_);" d="M13,11.2l1.6-1.3c2.4,0.133,4.933,0.2,7.6,0.2
		c4.867,0,11.633-0.067,20.3-0.2l-1.35,1.05l-0.4,0.3L13,11.2z"/>
	<linearGradient id="SVGID_12_" gradientUnits="userSpaceOnUse" x1="10.5" y1="13.7246" x2="807.4999" y2="13.7246">
		<stop  offset="0" style="stop-color:#AB9050"/>
		<stop  offset="1" style="stop-color:#857142"/>
	</linearGradient>
	<path style="fill-rule:evenodd;clip-rule:evenodd;fill:url(#SVGID_12_);" d="M7.95,15.3l3.9-3.15c1.367,0.067,2.75,0.117,4.15,0.15
		c7.433,0.3,14.933,0.55,22.5,0.75l-1.55,1.2h1.55l6.9,0.05l9.2,0.05l48.3,0.15C88,14.833,75.333,15,64.9,15
		c-3.5,0-6.933,0.017-10.3,0.05c-3.367,0-6.667,0-9.9,0c-2.4,0-4.767,0.017-7.1,0.05c-2.2,0-4.383,0.017-6.55,0.05
		c-9.2,0.1-15.2,0.15-18,0.15c-0.433,0-0.783,0-1.05,0H7.95z"/>
	<path style="fill-rule:evenodd;clip-rule:evenodd;fill:#787160;" d="M47,45.25c-1.5,0.3-2.567,0.867-3.2,1.7
		c1-0.034,2.75,0.05,5.25,0.25c2.333,0.066,4.133-0.15,5.4-0.65c-0.3,1.833-1.733,3.333-4.3,4.5c-2.4,1.134-4.3,1.384-5.7,0.75
		c-0.767-0.367-1.367-0.966-1.8-1.8c-0.533-1.067-0.917-1.717-1.15-1.95c-0.467-0.4-0.967-0.8-1.5-1.2
		c-1.033-0.8-1.483-1.067-1.35-0.8c-0.566-1.033-0.917-1.883-1.05-2.55c-0.133-0.7-0.184-1.817-0.15-3.35
		c1.767,2.267,2.716,3.45,2.85,3.55c0.667,0.5,2.067,0.767,4.2,0.8h-0.6C44.4,44.533,45.433,44.783,47,45.25z"/>
	<path style="fill-rule:evenodd;clip-rule:evenodd;fill:#595448;" d="M47,45.25c1.7,0.467,2.967,0.7,3.8,0.7
		c1.333,0.033,2.483-0.4,3.45-1.3c0.233,0.633,0.3,1.267,0.2,1.9c-1.267,0.5-3.067,0.717-5.4,0.65c-2.5-0.2-4.25-0.284-5.25-0.25
		C44.433,46.117,45.5,45.55,47,45.25z"/>
	<linearGradient id="SVGID_13_" gradientUnits="userSpaceOnUse" x1="10.5" y1="21.4326" x2="807.5" y2="21.4326">
		<stop  offset="0" style="stop-color:#AB9050"/>
		<stop  offset="1" style="stop-color:#857142"/>
	</linearGradient>
	<path style="fill-rule:evenodd;clip-rule:evenodd;fill:url(#SVGID_13_);" d="M66.75,21.8H8.5c14.667-0.767,29.433-0.933,44.3-0.5
		L66.75,21.8z"/>
	<path style="fill-rule:evenodd;clip-rule:evenodd;fill:#DEC997;" d="M24.8,1.55l-5.4,4.4l-1.7,1.4L14.6,9.9L13,11.2l-1.15,0.95
		l-3.9,3.15L7.5,15.7l-3.65,2.95L0,21.8c0-0.333,1.833-2.167,5.5-5.5c2.267-2.066,6.417-5.35,12.45-9.85L26.3,0.3L24.8,1.55z"/>
	<path style="fill-rule:evenodd;clip-rule:evenodd;fill:#B5AC91;" d="M4.5,78.7V33.65l1.3,0.5c-0.1,25.534-0.1,39.133,0,40.8
		c0.1,1.666,0.434,2.899,1,3.7L4.5,78.7z"/>
	
		<radialGradient id="SVGID_14_" cx="429.5" cy="55.625" r="478.9276" gradientTransform="matrix(1 0 0 -0.4449 0 80.3742)" gradientUnits="userSpaceOnUse">
		<stop  offset="0" style="stop-color:#000000;stop-opacity:0.3608"/>
		<stop  offset="1" style="stop-color:#000000;stop-opacity:0"/>
	</radialGradient>
	<path style="fill-rule:evenodd;clip-rule:evenodd;fill:url(#SVGID_14_);" d="M809.55,25.1v59.7
		c-67.033,0.367-136.683,0.684-208.95,0.95c-144.533,0.533-229.883,0.533-256.05,0c-25.966-0.533-70.233-0.7-132.8-0.5
		c-59.8,0.333-92.417,0.5-97.85,0.5c-6.767,0-27.2-0.217-61.3-0.65L3.45,84.45V28.7h163.5c11.367,0,59.1-0.434,143.2-1.3
		c84.133-0.867,129.167-1.3,135.1-1.3C456.717,26.1,578.15,25.767,809.55,25.1z"/>
</g>
</svg>
