<?xml version="1.0" encoding="iso-8859-1"?>
<!-- Generator: Adobe Illustrator 15.1.0, SVG Export Plug-In . SVG Version: 6.00 Build 0)  -->
<!DOCTYPE svg PUBLIC "-//W3C//DTD SVG 1.1//EN" "http://www.w3.org/Graphics/SVG/1.1/DTD/svg11.dtd">
<svg version="1.1" id="FlashAICB" xmlns="http://www.w3.org/2000/svg" xmlns:xlink="http://www.w3.org/1999/xlink" x="0px" y="0px"
	 width="659.35px" height="102.05px" viewBox="0 0 659.35 102.05" style="enable-background:new 0 0 659.35 102.05;"
	 xml:space="preserve">
<g>
	<g>
		<path style="fill-rule:evenodd;clip-rule:evenodd;fill:#365818;" d="M145.6,17.65l0.65,0.85c0-1.533,0.816-1.8,2.45-0.8
			c1.4,0.866,2.4,1.767,3,2.7c-0.1-0.466-0.05-0.95,0.15-1.45c0.333-0.567,0.583-1,0.75-1.3l0.7,1.4c-0.533-2.833,0.333-4.1,2.6-3.8
			c2.067,0.267,3.784,1.316,5.15,3.15c-0.066-1.066-0.05-2.033,0.05-2.9c0.6,0.767,0.983,1.684,1.15,2.75
			c0.167-0.9,0.483-1.717,0.95-2.45c1,0.434,1.667,1.417,2,2.95l0.5-1.85c0.2,0.267,0.517,0.633,0.95,1.1
			c0.333,0.434,0.55,0.85,0.65,1.25l0.5-1.45c0.434,0.567,0.817,1.217,1.15,1.95c0.066-0.767,0.233-1.45,0.5-2.05
			c0.466,0.5,0.85,1.083,1.15,1.75c0.2-0.434,0.3-0.917,0.3-1.45c0.534,0.633,0.934,1.367,1.2,2.2l0.25-2.3
			c0.9,0.167,1.767,0.95,2.6,2.35l0.75-1.1c0.267,1.067,0.4,2.1,0.4,3.1c0.533-0.467,0.983-1.05,1.35-1.75
			c0.033,0.3,0.133,0.717,0.3,1.25s0.25,0.934,0.25,1.2c0.2-0.4,0.533-0.767,1-1.1c0.533-0.367,0.917-0.667,1.15-0.9
			c0.167,0.8,0.217,1.616,0.15,2.45c0.833-1.267,1.617-2.066,2.35-2.4l0.5,2.05l0.95-1.5c0.667,0.6,1.117,1.317,1.35,2.15
			c0.167,0.566,0.3,1.466,0.4,2.7c0.333-0.7,1.117-1.367,2.35-2c0.066,0.434,0.133,1.15,0.2,2.15c0.067,0.934,0.15,1.65,0.25,2.15
			c1.3-0.8,2.233-1.267,2.8-1.4c0.066,1,0.383,1.75,0.95,2.25c0.733,0.634,1.15,1.117,1.25,1.45c0.2,0.533,0.517,1.083,0.95,1.65
			c0.3,0.434,0.517,1,0.65,1.7c0,0.4,0.316,0.417,0.95,0.05c0.6-0.367,0.883-0.867,0.85-1.5c0.167,0.1,0.45,0.2,0.85,0.3
			c0.367,0.066,0.633,0.167,0.8,0.3l0.4-1.5c0.167,0.233,0.5,0.583,1,1.05c0.466,0.4,0.783,0.75,0.95,1.05l0.4-1.7
			c0.767,0.467,1.5,1.083,2.2,1.85l0.55-1.85c0.333,0.367,0.767,0.95,1.3,1.75c0.133-0.833,0.6-1.433,1.4-1.8
			c0.8-0.4,1.25-0.034,1.35,1.1c0.3-0.7,0.7-1.217,1.2-1.55c0.6-0.367,1.1-0.283,1.5,0.25c0.566-0.5,1.15-0.85,1.75-1.05
			c0.833-0.267,1.4-0.05,1.7,0.65c1.434-1.3,2.467-2.1,3.1-2.4c0.467,0.633,0.75,1.4,0.85,2.3c0.433-0.733,0.833-1.133,1.2-1.2
			c0.3-0.067,0.733,0.1,1.3,0.5c0.333-0.367,0.767-0.717,1.3-1.05l-0.25-1.2l0.9-0.35c0,0.066,0.15,0.483,0.45,1.25
			c0.566-0.067,1,0.167,1.3,0.7c0.467-0.267,0.934-0.3,1.4-0.1c0.267,0,0.483,0.133,0.65,0.4l0.25,0.2
			c0.9-0.866,1.867-1.333,2.9-1.4c1.2-0.1,1.917,0.517,2.15,1.85c1.967-1.5,3.034-1.633,3.2-0.4c-0.1-0.967,0.05-1.9,0.45-2.8
			c0.7,0.333,1.134,0.917,1.3,1.75c-0.133-0.966,0.3-1.233,1.3-0.8c0.515,0.193,1.173,0.543,1.975,1.05
			c-0.439-0.293-0.831-0.644-1.175-1.05l1.6-0.05c-0.167-0.3-0.283-0.7-0.35-1.2c0.933-0.133,1.767,0.167,2.5,0.9
			c0.2-0.633,0.583-1.033,1.15-1.2c0.5-0.134,1.066-0.067,1.7,0.2c0.567,0.233,1.1,0.55,1.6,0.95c0.167-0.434,0.417-0.684,0.75-0.75
			c0.167-0.534,0.583-0.667,1.25-0.4c-1.033-0.867-1.95-1.95-2.75-3.25c-1-1.6-1.283-2.884-0.85-3.85
			c0.467,0.1,0.983,0.283,1.55,0.55c-0.233-0.4-0.35-0.85-0.35-1.35c0.033-0.566,0.033-1.033,0-1.4c0.6,0.1,1.184,0.35,1.75,0.75
			c0-0.6,0.267-1.233,0.8-1.9c0.534-0.7,0.983-0.617,1.35,0.25c0.1-0.4,0.383-0.633,0.85-0.7c0.367-0.066,0.733,0,1.1,0.2
			c-0.6-0.467-1.034-1.033-1.3-1.7c0.5-0.167,1.267-0.233,2.3-0.2c1,0,1.75-0.083,2.25-0.25l-0.55-1.25
			c0.867-0.3,1.784-0.367,2.75-0.2c-0.267-0.367-0.517-0.917-0.75-1.65c0.6,0.066,1.117,0.184,1.55,0.35
			c-0.3-0.367-0.5-0.817-0.6-1.35c-0.1-0.6-0.2-1.066-0.3-1.4c0.267,0.167,0.616,0.35,1.05,0.55c0.333,0.2,0.617,0.483,0.85,0.85
			c-0.5-1.233-0.317-1.983,0.55-2.25s1.55,0.133,2.05,1.2c-0.067-0.833-0.034-1.55,0.1-2.15c0.467,0.7,0.8,1.333,1,1.9
			c-0.2-0.767-0.15-1.417,0.15-1.95c0.333-0.6,0.866-0.566,1.6,0.1c-0.233-0.833-0.083-1.45,0.45-1.85
			c0.533-0.367,1.117-0.217,1.75,0.45c-0.2-1.2,0.033-1.9,0.7-2.1c0.667-0.2,1.267,0.233,1.8,1.3c-0.033-0.433,0.05-0.917,0.25-1.45
			c0.233-0.6,0.4-1.067,0.5-1.4l0.5,0.85c-0.033-1.533,0.583-1.767,1.85-0.7c1.066,0.933,1.816,1.866,2.25,2.8
			c-0.133-0.633,0.066-1.566,0.6-2.8l0.55,1.45c-0.434-2.767,0.167-4.066,1.8-3.9c1.534,0.167,2.85,1.283,3.95,3.35
			c-0.1-0.9-0.117-1.9-0.05-3c0.5,0.9,0.8,1.85,0.9,2.85c0.1-0.9,0.316-1.75,0.65-2.55c0.733,0.467,1.25,1.517,1.55,3.15l0.35-1.95
			c0.167,0.3,0.4,0.7,0.7,1.2c0.267,0.467,0.433,0.9,0.5,1.3l0.35-1.5c0.333,0.633,0.633,1.316,0.9,2.05
			c0-0.767,0.117-1.483,0.35-2.15c0.366,0.633,0.65,1.267,0.85,1.9c0.134-0.433,0.2-0.95,0.2-1.55c0.467,0.767,0.767,1.55,0.9,2.35
			l0.15-2.4c0.7,0.167,1.367,0.983,2,2.45c0.233-0.533,0.417-0.9,0.55-1.1c0.167,0.934,0.283,2,0.35,3.2
			c0.433-0.567,0.75-1.15,0.95-1.75c0.034,0.267,0.117,0.683,0.25,1.25c0.133,0.566,0.2,1,0.2,1.3c0.133-0.367,0.35-0.733,0.65-1.1
			c0.4-0.4,0.7-0.716,0.9-0.95c0.167,0.833,0.217,1.7,0.15,2.6c0.567-1.3,1.134-2.134,1.7-2.5l0.4,2.15l0.7-1.55
			c0.5,0.634,0.85,1.417,1.05,2.35c0.133,0.567,0.233,1.467,0.3,2.7c0.267-0.7,0.833-1.367,1.7-2c0.167,0.966,0.3,2.45,0.4,4.45
			c0.767-0.667,1.45-1.133,2.05-1.4c0.066,1,0.35,1.883,0.85,2.65c0.6,0.967,0.983,1.717,1.15,2.25c0.167,0.6,0.35,0.85,0.55,0.75
			c0.1-0.066,0.233,0.483,0.4,1.65c0.067,0.366,0.134,1,0.2,1.9c0.167,0.767,0.483,1.2,0.95,1.3c-0.2-1,0.116-1.6,0.95-1.8
			c0.833-0.233,1.15-0.85,0.95-1.85c0.2,0.1,0.533,0.184,1,0.25c0.433,0.033,0.75,0.1,0.95,0.2l0.2-1.65
			c0.2,0.2,0.617,0.517,1.25,0.95c0.566,0.367,0.967,0.7,1.2,1l0.2-1.85c1.467,0.8,2.35,1.383,2.65,1.75l0.4-2.15
			c0.366,0.4,0.917,0.983,1.65,1.75c0.066-0.9,0.5-1.617,1.3-2.15c0.833-0.567,1.367-0.233,1.6,1c0.233-0.8,0.617-1.4,1.15-1.8
			c0.6-0.5,1.15-0.483,1.65,0.05c0.567-0.633,1.167-1.1,1.8-1.4c0.9-0.4,1.55-0.233,1.95,0.5c1.367-1.6,2.4-2.617,3.101-3.05
			c0.033,0.034,0.3,0.417,0.8,1.15c0.333,0.434,0.483,0.85,0.45,1.25c0.333-0.833,0.717-1.316,1.149-1.45
			c0.334-0.1,0.834,0.017,1.5,0.35c0.601-0.9,1.334-1.483,2.2-1.75c0.967-0.333,1.684,0.05,2.15,1.15
			c0.666-0.733,1.316-0.967,1.949-0.7c0.667,0.3,0.967,0.967,0.9,2c0.767,0.4,1.566,0.517,2.4,0.35
			c0.366-0.066,1.183-0.35,2.449-0.85c-0.033,0.2,0.018,0.65,0.15,1.35c0.1,0.5,0.05,0.934-0.15,1.3c0.634-0.3,1.2-0.466,1.7-0.5
			c0.267,0.267,0.233,0.534-0.1,0.8c0.833,0.433,1.5,0.683,2,0.75c0.366,0.033,1.05-0.05,2.05-0.25c0.667,0.7,1.134,1.1,1.4,1.2
			c0.333,0.134,0.85,0.05,1.55-0.25c1.167-0.533,2.35-0.45,3.55,0.25l0.4-1.9l1.75,0.9c0.133-1.1,0.449-1.75,0.949-1.95
			c0.434-0.167,1.134-0.034,2.101,0.4c0.533,0.267,1.066,0.3,1.6,0.1c0.434-0.2,0.934-0.083,1.5,0.35c1.334,1,2.217,2.183,2.65,3.55
			c0.667,0.033,1.417,0,2.25-0.1c2.333,1.767,5.017,2.9,8.05,3.4c0.5,1.4,1.2,2.7,2.1,3.9c0.768,2.4,2.018,4.466,3.75,6.2
			c1.834,1.833,3.95,3.05,6.351,3.65c3.934,1,8.184,1.917,12.75,2.75c0.366-0.733,0.783-1.233,1.25-1.5
			c0.533-0.3,0.899-0.017,1.1,0.85c0.2-0.466,0.55-0.7,1.05-0.7c0.467-0.034,0.9,0.1,1.301,0.4c-0.601-0.667-1.017-1.367-1.25-2.1
			c0.6-0.1,1.483-0.066,2.649,0.1c1.167,0.167,2.033,0.183,2.601,0.05c-0.134-0.733-0.267-1.233-0.4-1.5
			c0.967-0.2,2.017-0.133,3.15,0.2c-0.267-0.733-0.45-1.4-0.551-2c0.567,0.133,1.134,0.333,1.7,0.6c-0.267-0.467-0.433-1-0.5-1.6
			c-0.033-0.7-0.066-1.25-0.1-1.65c0.267,0.233,0.616,0.5,1.05,0.8c0.4,0.3,0.7,0.667,0.9,1.1c-0.4-1.5-0.084-2.333,0.949-2.5
			c1.034-0.167,1.768,0.4,2.2,1.7c0-0.833,0.15-1.633,0.45-2.4c0.4,0.767,0.684,1.534,0.85,2.3c-0.133-0.934,0.018-1.684,0.45-2.25
			c0.5-0.634,1.101-0.5,1.8,0.4c-0.133-1,0.134-1.684,0.801-2.05c0.666-0.333,1.316-0.066,1.949,0.8
			c-0.033-1.434,0.351-2.217,1.15-2.35c0.8-0.1,1.417,0.5,1.85,1.8c0.034-0.5,0.2-1.033,0.5-1.6c0.5-0.934,0.768-1.434,0.801-1.5
			l0.449,1.05c0.233-1.767,0.967-1.934,2.2-0.5c1.101,1.233,1.817,2.417,2.15,3.55c-0.033-0.533,0.083-1.083,0.35-1.65
			c0.067-0.2,0.317-0.7,0.75-1.5c0.134,0.367,0.267,0.95,0.4,1.75c-0.033-3.2,0.866-4.583,2.7-4.15c1.733,0.4,3.05,1.867,3.949,4.4
			c0.101-1.133,0.25-2.283,0.45-3.45c0.467,1.1,0.667,2.25,0.601,3.45c0.199-0.933,0.566-1.867,1.1-2.8c0.8,0.633,1.233,1.9,1.3,3.8
			L452,28c0.134,0.333,0.35,0.833,0.65,1.5c0.199,0.566,0.316,1.083,0.35,1.55l0.65-1.7l0.699,2.55
			c0.101-0.767,0.334-1.583,0.7-2.45c0.3,0.633,0.533,1.4,0.7,2.3c0.233-0.5,0.4-1.066,0.5-1.7c0.4,1,0.617,1.934,0.65,2.8l0.55-2.7
			c0.5,0.167,0.917,0.617,1.25,1.35c0.167,0.3,0.383,0.883,0.649,1.75c0.233-0.467,0.5-0.85,0.801-1.15
			c0.066,1.233,0.017,2.466-0.15,3.7c0.6-0.533,1.066-1.167,1.4-1.9c-0.033,0.333-0.017,0.833,0.05,1.5s0.083,1.167,0.05,1.5
			c0.233-0.4,0.566-0.767,1-1.1c0.233-0.2,0.6-0.517,1.1-0.95c0,1.066-0.066,2.05-0.199,2.95c0.833-1.366,1.6-2.216,2.3-2.55
			l0.149,2.5l1-1.65c0.5,0.833,0.784,1.783,0.851,2.85c0.066,0.633,0.05,1.683-0.05,3.15c0.366-0.7,1.116-1.383,2.25-2.05
			c0.033,0.867-0.033,2.167-0.2,3.9c0.267,0.333,0.417,0.65,0.45,0.95c0.6-0.367,1.3-0.683,2.1-0.95c-0.1,1.2,0.117,2.316,0.65,3.35
			c0.199,0,1.116-0.116,2.75-0.35c-0.101,0.267-0.167,0.783-0.2,1.55c-0.033,0.6-0.2,1.083-0.5,1.45
			c0.667-0.134,1.35-0.184,2.05-0.15c0.2,0.367,0.1,0.667-0.3,0.9c0.733,0.633,1.35,1.05,1.85,1.25c0.4,0.133,1.05,0.233,1.95,0.3
			l0.15-0.6c0.199,0.3,0.616,0.733,1.25,1.3c0.6,0.5,1.017,0.95,1.25,1.35l0.5-2.1c1.066,0.733,1.866,1.383,2.399,1.95l0.5,0.149
			l0.65-2.05c0.3,0.434,0.783,1.083,1.45,1.95l0.399-0.95l0.25,0.2c0.434-0.7,0.95-1.15,1.55-1.351c0.667-0.2,1.117,0.033,1.351,0.7
			c0.2-0.033,0.399-0.033,0.6,0c0.467-0.633,0.967-1.05,1.5-1.25c0.601-0.233,1.101-0.066,1.5,0.5c0.767-0.633,1.533-1.066,2.3-1.3
			c1.101-0.333,1.817-0.05,2.15,0.85c1.167-1.034,1.8-1.583,1.9-1.65c0.733-0.6,1.433-1.05,2.1-1.35c0.033,0.133,0.283,0.6,0.75,1.4
			c0.3,0.566,0.4,1.083,0.3,1.55c0.5-0.9,1.017-1.383,1.55-1.45c0.4-0.067,0.95,0.133,1.65,0.6c0.867-0.934,1.783-1.483,2.75-1.65
			c1.2-0.2,1.967,0.35,2.3,1.65c0.867-0.767,1.667-0.934,2.4-0.5c0.7,0.466,0.934,1.283,0.7,2.45
			c0.833,0.566,1.733,0.816,2.699,0.75c0.434,0,1.417-0.2,2.95-0.601c-0.066,0.267-0.083,0.783-0.05,1.55
			c0.033,0.601-0.1,1.101-0.4,1.5c0.768-0.233,1.45-0.35,2.051-0.35c0.199,0.366,0.116,0.684-0.25,0.95
			c0.899,0.633,1.616,1.017,2.149,1.149c0.4,0.101,1.184,0.117,2.351,0.051l0.3,0.35c0.464-0.406,1.089-0.481,1.875-0.225
			c-0.764-0.323-1.405-0.832-1.925-1.525c0.733-0.033,1.55,0.116,2.449,0.45c0.367,0.133,1.117,0.483,2.25,1.05
			c0.334-0.7,0.834-0.967,1.5-0.8c0.567,0.166,1.084,0.533,1.551,1.1l0.05-0.1l0.35,0.2c0.267-0.4,0.667-0.684,1.2-0.851
			c0.533-0.2,0.934-0.149,1.2,0.15c0.434-0.434,1.066-0.434,1.899,0c1.7-0.601,3.101-0.884,4.2-0.851
			c1.367,0.033,1.617,0.65,0.75,1.851c0.634-0.067,1.267,0,1.9,0.2c0.733,0.232,1.333,0.366,1.8,0.399c0.7,0.7,1.367,0.75,2,0.15
			c0.434-0.267,0.566-0.517,0.4-0.75c0-0.033,0.533-0.05,1.6-0.05c-0.366-0.567-0.583-1.25-0.65-2.051
			c0.467,0.067,1.018,0.267,1.65,0.601c0.634,0.3,1.184,0.467,1.65,0.5c0.433,0.033,1.199-0.084,2.3-0.351
			c0.967-0.066,1.583,0.417,1.85,1.45c0.467-0.533,0.967-0.767,1.5-0.7c0.533,0.067,0.967,0.417,1.3,1.051h0.25
			c0.5-1.134,1.317-1.601,2.45-1.4c-0.333-1.033-0.083-1.667,0.75-1.9c0.7-0.166,1.45-0.017,2.25,0.45c0.5,0.2,0.934,0.351,1.3,0.45
			c0.567-0.566,0.934-0.517,1.101,0.15l0.25,0.05c0.366-0.233,0.95-0.384,1.75-0.45c0.7-0.066,1.184-0.05,1.45,0.05
			c0.3,0.134,0.649,0.233,1.05,0.3c0.467,0.033,0.816,0.101,1.05,0.2l0.3-0.5l0.55,0.9l0.2,0.1c0-0.633,0.134-1.25,0.4-1.85
			c0.767,0.467,1.399,1.066,1.899,1.8c0.367,0.333,1.051,0.133,2.051-0.6c0.767-0.567,1.383-0.867,1.85-0.9
			c0.667-0.033,0.983,0.45,0.95,1.45c0.033-0.101,0.233-0.634,0.6-1.601c0.434,0.334,0.783,0.767,1.05,1.301l0.601-1.5
			c0.066,0.066,0.283,0.767,0.649,2.1c0.267,0.9,0.733,1.283,1.4,1.15c0.4-0.101,1.017-0.367,1.85-0.801
			c0.733-0.366,1.334-0.583,1.801-0.649l-0.051,1.55c0.367-0.5,0.9-0.434,1.601,0.2c0.399,0.333,0.934,0.883,1.6,1.649
			c0.2-1,0.717-1.8,1.55-2.399c0.467,0.366,0.9,0.899,1.301,1.6c0.133,0.267,0.399,0.9,0.8,1.9c0.733-0.733,1.366-0.684,1.899,0.149
			l1,2.301l0.15,0.05c0.6-0.033,0.967,0.116,1.1,0.45c0.134,0.267,0.65,0.316,1.551,0.149c0.533-0.133,1.033-0.3,1.5-0.5
			c0.267-0.133,0.733-0.366,1.399-0.7l0.5,0.9c0.601-0.333,1.167-0.417,1.7-0.25c0.134,0.033,0.816,0.1,2.05,0.2
			c0.566-0.4,1.101-0.584,1.601-0.55c0.566,0.066,0.983,0.416,1.25,1.05l0.1-0.25l0.45,0.2c0.533-0.268,1-0.284,1.399-0.051
			c0.4,0.233,0.601,0.65,0.601,1.25c0.166,0.167,0.267,0.301,0.3,0.4c0.767-0.4,1.217-0.6,1.35-0.6c0.4-0.067,0.801,0.232,1.2,0.899
			l0.25,0.4l1.2-0.351c0.066,0.301,0.066,0.601,0,0.9c0.533,0.066,0.95,0.45,1.25,1.15c0.467-0.301,0.9-0.301,1.3,0
			c0.4,0.267,0.684,0.716,0.851,1.35c0.5-0.6,1.05-0.833,1.649-0.7c0.601,0.134,1.017,0.566,1.25,1.3
			c0.601-0.366,1.117-0.449,1.55-0.25c0.367,0.2,0.601,0.567,0.7,1.101c0.5,0.066,1,0.3,1.5,0.7l0.15-0.051L633,70.8l1.45,1.05
			c0.533-2.033,1.75-2.166,3.649-0.399c0.467-0.367,0.834-0.533,1.101-0.5c0.233,0.066,0.566,0.35,1,0.85c0.2,0.2,0.6,0.9,1.2,2.101
			c0.433,0.833,0.983,1.283,1.649,1.35c0.101,0,0.7-0.05,1.8-0.15c0.9,0,1.017,0.283,0.351,0.851c3.333-1.367,4.666-1.584,4-0.65
			c0.833-0.633,1.583-0.7,2.25-0.2c0.7,0.467,0.633,1.134-0.2,2c1.1-0.033,1.95,0.033,2.55,0.2c0.9,0.267,1,0.7,0.3,1.3
			c0.567-0.033,1.4,0.167,2.5,0.601c1.101,0.399,0.9,0.649-0.6,0.75c0.333,0.066,0.917,0.183,1.75,0.35
			c0.733,0.233,1.233,0.533,1.5,0.9c-0.533,0.133-1.217,0.166-2.05,0.1c0.767,0.333,1.483,0.783,2.149,1.351
			c-0.933,0.1-1.783,0.133-2.55,0.1l0.2,0.2c-1.533,0-3.033,0.25-4.5,0.75c-2.733-0.5-5.3-0.733-7.7-0.7c-2.899,0.1-5.6,0.6-8.1,1.5
			c-0.8-0.066-1.384-0.1-1.75-0.1c-0.533,0-1.3,0.066-2.3,0.199c-1.7-0.633-3.4-0.949-5.101-0.949c-1,0-2.066,0.133-3.2,0.399
			c-5.833-0.633-10.833-1.017-15-1.149c-2.066-0.067-4.85-0.067-8.35,0c-4.134,0.066-6.917,0.1-8.35,0.1
			c-4.9-0.066-10.767-0.4-17.601-1c-7.7-0.7-13.467-1.184-17.3-1.45c-6.633-0.467-12.417-0.649-17.35-0.55
			c-7.4,0.167-19.4,0.366-36,0.6c-15.533,0.2-27.533,0.4-36,0.601c-7.101,0.133-19.15,0.533-36.15,1.2
			c-15.434,0.6-27.483,0.949-36.15,1.05c-20.066,0.2-44.383-0.167-72.95-1.101c-32.433-1.233-56.75-2.1-72.95-2.6
			c-14.4-0.434-38.55-0.95-72.45-1.55c-31-0.567-55.15-1.15-72.45-1.75c-20.566-0.767-39.433-1.9-56.6-3.4l0.1-0.2
			c-1.7-0.666-3.45-1-5.25-1H42.6l-0.1-0.05l-4.35-1.6h-0.1c-0.933-0.434-3.383-1.65-7.35-3.65c2.733-1.833,4.583-4.25,5.55-7.25
			l0.55,0.8c0.1-0.633,0.284-0.899,0.55-0.8c0.467,0.233,0.85,0.217,1.15-0.05c-0.333-0.333-0.383-0.617-0.15-0.85
			c0.233-0.233,0.55-0.334,0.95-0.301c-0.267-0.333-0.45-0.666-0.55-1c0.367-0.033,0.717-0.033,1.05,0
			c-0.167-0.467-0.066-0.733,0.3-0.8c0.333-0.1,0.683-0.033,1.05,0.2c-0.3-0.4-0.5-0.85-0.6-1.35l1.4,0.25
			c-0.3-0.567-0.383-1.167-0.25-1.801c1.3,0.733,1.566,0.367,0.8-1.1c0.267,0.033,0.667,0.017,1.2-0.05
			c0.3-0.033,0.466,0.033,0.5,0.2c-0.067-0.8,0.066-1.534,0.4-2.2c0.4-0.767,0.917-0.717,1.55,0.15c-0.466-0.733-0.65-1.5-0.55-2.3
			c0.767-0.066,1.433,0.05,2,0.35c-0.4-1.267,0.333-1.667,2.2-1.2l-0.05-1.25c0.434,0.066,0.817,0.167,1.15,0.3l0.1-1.8
			c0.667,0.433,1.25,0.95,1.75,1.55c-0.033-0.467,0.167-1.117,0.6-1.95c0.5-0.9,0.9-0.917,1.2-0.05
			c0.134-0.333,0.583-0.617,1.35-0.85c0.667-0.267,1.15-0.367,1.45-0.3c0.233,0.066,0.633,0.083,1.2,0.05
			c0.5-0.033,1.034,0.05,1.6,0.25c-0.1-0.6-0.083-1.15,0.05-1.65c0.733,0.3,1.367,0.717,1.9,1.25c0.367,0.2,0.917-0.1,1.65-0.9
			c0.533-0.6,1-0.967,1.4-1.1c0.567-0.133,0.934,0.233,1.1,1.1l0.2-1.5c0.4,0.233,0.783,0.55,1.15,0.95
			c0.066-0.633,0.15-1.1,0.25-1.4c0.066,0.034,0.367,0.583,0.9,1.65c0.4,0.733,0.85,0.983,1.35,0.75
			c0.333-0.133,0.816-0.45,1.45-0.95c0.567-0.5,1.034-0.817,1.4-0.95L73.2,42c0.233-0.467,0.7-0.5,1.4-0.1
			c0.4,0.2,0.95,0.567,1.65,1.1c0-0.867,0.283-1.633,0.85-2.3c0.466,0.233,0.933,0.616,1.4,1.15c0.233,0.333,0.583,0.816,1.05,1.45
			c0.267-0.4,0.784-0.6,1.55-0.6c0.733,0,1.283,0.15,1.65,0.45c-0.133-0.7,0.066-1.517,0.6-2.45c0.6-1.034,1.283-1.217,2.05-0.55
			c-0.4-1.1-0.083-1.383,0.95-0.85c-0.2-0.5-0.233-0.933-0.1-1.3c0.133-0.4,0.483-0.283,1.05,0.35c-0.566-1.2-0.417-2,0.45-2.4
			c0.9-0.4,1.75-0.067,2.55,1c0-0.5,0.034-0.867,0.1-1.1c0.467,0.4,0.767,0.9,0.9,1.5c-0.066-0.934,0.267-1.8,1-2.6
			c0.8-0.833,1.434-0.717,1.9,0.35c-0.134-0.434-0.134-0.867,0-1.3c0.433,0.134,0.783,0.4,1.05,0.8
			c0.033-0.333,0.383-0.65,1.05-0.95c0.7-0.3,1.217-0.083,1.55,0.65c-0.1-0.466-0.133-0.883-0.1-1.25
			c0.467,0.534,0.85,1.034,1.15,1.5c0.267-0.533,0.6-0.933,1-1.2l0.75,0.9c0.2-0.733,0.767-0.833,1.7-0.3
			c0.833,0.5,1.367,1.017,1.6,1.55l0.5-1.3c0.2,0.433,0.6,0.583,1.2,0.45c0.6-0.167,1.05,0.2,1.35,1.1c0.4-0.467,0.7-0.517,0.9-0.15
			c0.167,0.267,0.217,0.65,0.15,1.15l0.35-1c0.3,0.6,0.567,0.85,0.8,0.75c0.1-0.033,0.366-0.333,0.8-0.9l0.75,1.35
			c0.133-0.8,0.383-1.25,0.75-1.35c0.333-0.1,0.883,0.066,1.65,0.5c-0.3-0.434-0.45-0.867-0.45-1.3c0.1-0.533,0.133-0.983,0.1-1.35
			c0.7,0.033,1.467,0.25,2.3,0.65c0-0.667,0.25-1.25,0.75-1.75c0.533-0.534,1.117-0.633,1.75-0.3c0.267,0.167,0.716,0.15,1.35-0.05
			c0.667-0.2,1.267-0.217,1.8-0.05c-0.733-0.434-1.316-0.95-1.75-1.55c0.667-0.167,1.684-0.267,3.05-0.3c1.367,0,2.384-0.1,3.05-0.3
			c-0.1-0.267-0.317-0.667-0.65-1.2c1.133-0.3,2.35-0.367,3.65-0.2c-0.367-0.533-0.667-1.066-0.9-1.6l2.1,0.3
			c-0.366-0.333-0.633-0.733-0.8-1.2c-0.167-0.6-0.3-1.066-0.4-1.4c0.333,0.133,0.783,0.3,1.35,0.5c0.5,0.167,0.9,0.417,1.2,0.75
			c-0.733-1.267-0.483-1.983,0.75-2.15c1.267-0.167,2.2,0.2,2.8,1.1c-0.1-0.667-0.05-1.35,0.15-2.05
			c0.566,0.567,1.017,1.167,1.35,1.8c-0.333-0.934-0.233-1.6,0.3-2c0.566-0.4,1.25-0.333,2.05,0.2
			c-0.333-0.966-0.083-1.583,0.75-1.85c0.8-0.233,1.55-0.083,2.25,0.45c-0.267-1.333,0.083-2.05,1.05-2.15
			c0.933-0.1,1.733,0.333,2.4,1.3c-0.033-0.433,0.1-0.9,0.4-1.4C145.367,18.133,145.6,17.684,145.6,17.65z"/>
	</g>
	<path style="fill-rule:evenodd;clip-rule:evenodd;fill:#40681D;" d="M142.55,34.85c0.367,0.3,1.034,0.05,2-0.75
		c1.833-1.5,2.784-1.367,2.85,0.4c0.2-0.566,0.35-1.133,0.45-1.7c0.533,0.367,0.933,0.784,1.2,1.25l0.45-1.55
		c0.066,0.066,0.333,0.75,0.8,2.05c0.333,0.867,0.817,1.217,1.45,1.05c0.434-0.1,1.033-0.4,1.8-0.9c0.733-0.434,1.317-0.7,1.75-0.8
		l0.05,1.6c0.367-0.533,0.917-0.517,1.65,0.05c0.434,0.333,1,0.85,1.7,1.55c0.167-1.034,0.616-1.867,1.35-2.5
		c0.5,0.333,0.967,0.85,1.4,1.55c0.133,0.267,0.45,0.883,0.95,1.85c0.367-0.434,1-0.6,1.9-0.5c0.833,0.1,1.45,0.367,1.85,0.8
		c-0.066-0.833,0.284-1.733,1.05-2.7c0.833-1.1,1.65-1.2,2.45-0.3c-0.3-1.267,0.1-1.55,1.2-0.85c-0.167-0.6-0.15-1.1,0.05-1.5
		c0.233-0.467,0.633-0.284,1.2,0.55c-0.467-1.467-0.167-2.35,0.9-2.65c1.066-0.3,1.967,0.216,2.7,1.55
		c0.167-0.733,0.267-1.15,0.3-1.25c0.434,0.467,0.7,1.083,0.8,1.85c0.1-1.1,0.634-2.05,1.6-2.85c1-0.833,1.684-0.6,2.05,0.7
		c-0.067-0.567,0.017-1.05,0.25-1.45c0.433,0.233,0.8,0.6,1.1,1.1c0.034-0.4,0.467-0.717,1.3-0.95c0.867-0.233,1.433,0.1,1.7,1
		c-0.1-0.466-0.066-0.966,0.1-1.5c0.467,0.767,0.817,1.4,1.05,1.9c0.366-0.534,0.816-0.917,1.35-1.15l0.7,1.1
		c0.333-0.8,0.983-0.816,1.95-0.05c0.9,0.7,1.433,1.367,1.6,2l0.75-1.4c0.167,0.533,0.634,0.767,1.4,0.7
		c0.7-0.066,1.15,0.434,1.35,1.5c0.534-0.5,0.884-0.533,1.05-0.1c0.133,0.333,0.117,0.784-0.05,1.35c0.2-0.466,0.4-0.816,0.6-1.05
		c0.233,0.733,0.483,1.066,0.75,1c0.1-0.034,0.467-0.333,1.1-0.9c0.267,0.5,0.467,1.05,0.6,1.65c0.267-0.9,0.633-1.383,1.1-1.45
		c0.433-0.066,1.033,0.2,1.8,0.8c-0.3-0.5-0.4-1.017-0.3-1.55c0.167-0.6,0.267-1.117,0.3-1.55c0.967,0.267,1.816,0.65,2.55,1.15
		c0.1-0.733,0.483-1.35,1.15-1.85c0.7-0.566,1.366-0.6,2-0.1c0.3,0.233,0.833,0.284,1.6,0.15c0.8-0.134,1.483-0.067,2.05,0.2
		c-0.767-0.566-1.367-1.25-1.8-2.05c0.8-0.1,2-0.05,3.6,0.15c1.567,0.2,2.75,0.25,3.55,0.15c-0.167-0.533-0.367-1.017-0.6-1.45
		c1.333-0.2,2.75-0.1,4.25,0.3c-0.4-0.7-0.667-1.35-0.8-1.95c0.833,0.167,1.6,0.384,2.3,0.65c-0.367-0.434-0.6-0.934-0.7-1.5
		c-0.066-0.7-0.15-1.25-0.25-1.65c0.367,0.2,0.867,0.45,1.5,0.75c0.534,0.3,0.95,0.667,1.25,1.1c-0.667-1.6-0.267-2.4,1.2-2.4
		c1.433,0.033,2.45,0.617,3.05,1.75c0-0.833,0.167-1.6,0.5-2.3c0.567,0.733,0.983,1.483,1.25,2.25
		c-0.233-1.134-0.017-1.884,0.65-2.25c0.7-0.367,1.467-0.184,2.3,0.55c-0.267-1.167,0.117-1.833,1.15-2
		c0.967-0.167,1.8,0.117,2.5,0.85c-0.1-1.534,0.417-2.284,1.55-2.25c1.1,0.033,1.95,0.65,2.55,1.85c0.033-0.534,0.25-1.067,0.65-1.6
		c0.467-0.567,0.8-1.017,1-1.35l0.6,1c0.233-1.733,1.216-1.9,2.95-0.5c1.467,1.2,2.483,2.383,3.05,3.55
		c-0.034-0.566,0.1-1.116,0.4-1.65c0.033-0.033,0.367-0.483,1-1.35c0.267,0.667,0.467,1.25,0.6,1.75c-0.167-3.333,1.033-4.667,3.6-4
		c2.333,0.634,4.133,2.117,5.4,4.45c0.066-1.233,0.233-2.333,0.5-3.3c0.6,1,0.9,2.1,0.9,3.3c0.333-1.066,0.8-1.95,1.4-2.65
		c1.1,0.667,1.717,1.9,1.85,3.7l0.9-2.05c0.2,0.333,0.5,0.8,0.9,1.4c0.3,0.567,0.483,1.083,0.55,1.55l0.8-1.6
		c0.467,0.9,0.8,1.716,1,2.45c0.2-0.833,0.5-1.6,0.9-2.3c0.467,0.733,0.817,1.467,1.05,2.2c0.233-0.467,0.433-1,0.6-1.6
		c0.533,0.867,0.85,1.767,0.95,2.7l0.7-2.6c0.966,0.3,1.833,1.316,2.6,3.05c0.267-0.367,0.616-0.733,1.05-1.1
		c0.1,1.3,0.083,2.483-0.05,3.55c0.633-0.4,1.233-0.983,1.8-1.75c0,0.3,0.05,0.783,0.15,1.45c0.1,0.6,0.133,1.083,0.1,1.45
		c0.3-0.434,0.733-0.8,1.3-1.1c0.667-0.333,1.167-0.617,1.5-0.85c0,1.1-0.083,2.05-0.25,2.85c1.2-1.333,2.217-2.133,3.05-2.4
		l0.3,2.4l1.3-1.55c0.667,0.767,1.066,1.667,1.2,2.7c0.133,0.7,0.133,1.733,0,3.1c0.333-0.467,0.784-0.85,1.35-1.15
		c0.267-0.167,0.816-0.417,1.65-0.75c0.067,0.566,0.05,1.4-0.05,2.5c-0.067,1.1-0.083,1.917-0.05,2.45c1.7-0.7,2.833-1.083,3.4-1.15
		c-0.1,1.167,0.15,2.083,0.75,2.75c0.733,0.867,1.133,1.483,1.2,1.85c0.167,0.6,0.434,1.283,0.8,2.05
		c0.3,0.534,0.466,1.217,0.5,2.05c-0.1,0.466,0.25,0.533,1.05,0.2c0.767-0.366,1.184-0.9,1.25-1.6c0.167,0.167,0.467,0.333,0.9,0.5
		c0.434,0.167,0.733,0.316,0.9,0.45l0.65-1.6c0.167,0.267,0.5,0.7,1,1.3c0.466,0.5,0.783,0.95,0.95,1.35l0.65-1.85
		c0.867,0.667,1.617,1.483,2.25,2.45l0.95-2c0.467,0.733,0.867,1.45,1.2,2.15c0.3-0.9,0.933-1.517,1.9-1.85
		c1-0.333,1.45,0.15,1.35,1.45c0.433-0.733,0.983-1.233,1.65-1.5c0.733-0.333,1.283-0.167,1.65,0.5c0.733-0.5,1.467-0.816,2.2-0.95
		c1-0.167,1.6,0.167,1.8,1c1.8-1.233,3.1-1.983,3.9-2.25c0.5,0.867,0.717,1.8,0.65,2.8c0.6-0.8,1.117-1.2,1.55-1.2
		c0.333-0.034,0.8,0.233,1.4,0.8c0.833-0.767,1.717-1.184,2.65-1.25c1.1-0.033,1.734,0.55,1.9,1.75
		c1.167-0.767,1.884-0.717,2.15,0.15c0.467,1.5,0.816,2.333,1.05,2.5c0.434,0.367,1.117,0.534,2.05,0.5
		c0.533-0.033,1.3-0.133,2.3-0.3c0,0.933-0.232,1.833-0.699,2.7c0.5-0.133,1.116-0.167,1.85-0.1c0.167,0.366,0.066,0.649-0.3,0.85
		c0.399,0.333,1.2,0.717,2.399,1.15c1.101,0.366,1.733,0.666,1.9,0.899c0.3,0.334,1.184,0.267,2.65-0.199
		c1.233-0.367,2.033,0.149,2.399,1.55c1.2-1.033,2.267-1.684,3.2-1.95c-0.767-0.3-1.45-0.684-2.05-1.15
		c0.8-0.033,1.733,0.033,2.8,0.2c-0.467-0.767-0.6-1.267-0.4-1.5c0.2-0.233,0.667-0.2,1.4,0.1l-0.95-1.55
		c0.267,0.033,0.783,0.083,1.55,0.15c0.667,0,1.018-0.184,1.051-0.55c0.033-0.333,0.35-0.534,0.949-0.6
		c0.567-0.1,0.983-0.067,1.25,0.1c0.101-1.467,0.184-2.284,0.25-2.45c0.233-0.867,0.768-1.066,1.601-0.6
		c-1.066-1.2-1.95-2.583-2.65-4.15c-0.899-2-1.033-3.517-0.399-4.55c0.666,0.233,1.233,0.533,1.699,0.9
		c-0.199-0.5-0.267-1.034-0.199-1.6c0.166-0.667,0.25-1.217,0.25-1.65c0.767,0.267,1.383,0.65,1.85,1.15c0.1-0.7,0.5-1.383,1.2-2.05
		c0.767-0.733,1.267-0.567,1.5,0.5c0.2-0.434,0.566-0.65,1.1-0.65c0.467-0.033,0.9,0.083,1.3,0.35
		c-0.566-0.566-0.982-1.267-1.25-2.1c0.567-0.1,1.434-0.066,2.601,0.1s2.05,0.184,2.649,0.05l-0.399-1.5
		c1.133-0.167,2.184-0.083,3.149,0.25c-0.232-0.534-0.416-1.217-0.55-2.05c0.634,0.167,1.2,0.383,1.7,0.65
		c-0.267-0.466-0.434-1-0.5-1.6c-0.033-0.733-0.083-1.3-0.15-1.7c0.268,0.233,0.634,0.5,1.101,0.8c0.399,0.333,0.7,0.7,0.899,1.1
		c-0.399-1.5-0.083-2.316,0.95-2.45c1.033-0.167,1.767,0.4,2.2,1.7c0-0.767,0.134-1.583,0.4-2.45c0.399,0.767,0.699,1.533,0.899,2.3
		c-0.133-0.934,0.017-1.667,0.45-2.2c0.467-0.633,1.066-0.5,1.8,0.4c-0.133-1,0.134-1.684,0.8-2.05
		c0.667-0.367,1.317-0.117,1.95,0.75c-0.033-1.433,0.351-2.2,1.15-2.3c0.767-0.133,1.383,0.466,1.85,1.8
		c0.033-0.5,0.2-1.05,0.5-1.65c0.367-0.633,0.634-1.133,0.8-1.5c0.101,0.4,0.25,0.75,0.45,1.05c0.2-1.767,0.934-1.933,2.2-0.5
		c1.1,1.233,1.816,2.417,2.15,3.55c-0.033-0.767,0.333-1.817,1.1-3.15l0.4,1.8c-0.033-3.233,0.85-4.633,2.649-4.2
		c1.733,0.434,3.067,1.917,4,4.45c0.067-1.133,0.217-2.283,0.45-3.45c0.4,0.967,0.6,2.1,0.6,3.4c0.167-0.9,0.534-1.817,1.101-2.75
		c0.8,0.667,1.233,1.933,1.3,3.8l0.7-2.2c0.133,0.367,0.333,0.867,0.6,1.5c0.233,0.567,0.367,1.083,0.4,1.55l0.649-1.65l0.7,2.5
		c0.101-0.833,0.334-1.634,0.7-2.4c0.333,0.833,0.566,1.6,0.7,2.3c0.267-0.7,0.434-1.267,0.5-1.7c0.399,0.934,0.616,1.85,0.649,2.75
		l0.551-2.7c0.8,0.3,1.416,1.35,1.85,3.15l0.8-1.2c0.067,1.467,0.033,2.717-0.1,3.75c0.566-0.5,1.033-1.133,1.399-1.9
		c-0.033,0.333-0.017,0.833,0.051,1.5c0.066,0.667,0.083,1.167,0.05,1.5c0.2-0.4,0.517-0.783,0.95-1.15
		c0.5-0.4,0.883-0.717,1.149-0.95c0,1.167-0.083,2.167-0.25,3c0.9-1.4,1.684-2.267,2.351-2.6l0.149,2.5l1-1.65
		c0.5,0.833,0.783,1.784,0.851,2.85c0.066,0.7,0.033,1.75-0.101,3.15c0.4-0.7,1.167-1.383,2.3-2.05c0,0.533-0.05,1.4-0.149,2.6
		c-0.101,1.1-0.134,1.966-0.101,2.6c0.834-0.566,1.684-1,2.551-1.3c-0.067,1.133,0.116,2.184,0.55,3.15
		c0.566,1.2,0.899,2.117,1,2.75c0.1,0.7,0.25,1.017,0.45,0.95c0.133-0.034,0.217,0.633,0.25,2c0,0.4-0.033,1.133-0.101,2.2
		c0.067,0.867,0.367,1.4,0.9,1.6c-0.066-1.2,0.399-1.85,1.399-1.95c0.967-0.1,1.417-0.733,1.351-1.9c0.2,0.134,0.566,0.267,1.1,0.4
		c0.467,0.1,0.817,0.233,1.05,0.4l0.5-1.9c0.233,0.333,0.65,0.783,1.25,1.35c0.601,0.534,1.018,0.983,1.25,1.35l0.5-2.15
		c1.434,1.066,2.351,1.883,2.75,2.45l0.801-2.4c1,1.367,1.533,2.117,1.6,2.25c0.2-1.033,0.816-1.8,1.85-2.3
		c1.034-0.467,1.584,0.017,1.65,1.45c0.4-0.867,0.934-1.5,1.6-1.9c0.801-0.466,1.434-0.366,1.9,0.3c0.767-0.633,1.533-1.067,2.3-1.3
		c1.101-0.333,1.817-0.05,2.15,0.85c1.767-1.566,3.1-2.55,4-2.95c0.033,0.133,0.267,0.6,0.7,1.4c0.3,0.566,0.416,1.083,0.35,1.55
		c0.5-0.9,1.017-1.4,1.55-1.5c0.4-0.066,0.95,0.15,1.65,0.65c0.8-0.966,1.717-1.533,2.75-1.7c1.2-0.2,1.967,0.35,2.3,1.65
		c0.867-0.767,1.65-0.917,2.35-0.45c0.7,0.434,0.934,1.233,0.7,2.4c0.834,0.566,1.75,0.833,2.75,0.8
		c0.467-0.033,1.434-0.233,2.9-0.6c-0.066,0.233-0.083,0.75-0.05,1.55c0.033,0.566-0.084,1.066-0.351,1.5
		c0.601-0.233,1.283-0.35,2.05-0.35c0.2,0.367,0.117,0.683-0.25,0.95c0.9,0.6,1.617,0.967,2.15,1.101c0.4,0.1,1.184,0.116,2.35,0.05
		c0.667,0.933,1.15,1.483,1.45,1.649c0.367,0.2,0.967,0.167,1.8-0.1c1.467-0.434,2.801-0.134,4,0.9l0.801-2.15l1.85,1.3
		c0.3-1.233,0.75-1.917,1.35-2.05c0.534-0.133,1.317,0.133,2.351,0.8c0.566,0.367,1.184,0.467,1.85,0.3
		c0.533-0.133,1.084,0.084,1.65,0.65c1.333,1.4,2.167,2.9,2.5,4.5c1.233,0.3,2.717,0.3,4.45,0c0.1,0.4,0.017,0.783-0.25,1.15
		c2.233-1.268,4.1-1.75,5.6-1.45c-0.4,0.366-0.533,0.517-0.4,0.45l0.351-0.15c0.267-0.134,0.667-0.767,1.2-1.9
		c0.5-0.733,1.017-0.517,1.55,0.65c-0.367-0.934-0.4-1.85-0.101-2.75c0.733,0.1,1.467,0.4,2.2,0.9c-0.2-1.567,0.733-1.851,2.8-0.851
		l0.2-1.45c0.467,0.167,0.884,0.384,1.25,0.65l0.55-2.05c0.7,0.733,1.217,1.45,1.551,2.149c0.133-0.566,0.533-1.25,1.199-2.05
		c0.768-0.9,1.2-0.833,1.301,0.2c0.267-0.333,0.85-0.55,1.75-0.65c0.833-0.1,1.399-0.083,1.699,0.05
		c0.233,0.133,0.684,0.233,1.351,0.3c0.6,0.1,1.2,0.333,1.8,0.7c0-0.734,0.134-1.367,0.4-1.9c0.733,0.5,1.35,1.117,1.85,1.85
		c0.367,0.334,1.05,0.134,2.05-0.6c0.733-0.566,1.367-0.867,1.9-0.9c0.667-0.034,0.983,0.45,0.95,1.45l0.6-1.65
		c0.434,0.333,0.783,0.767,1.05,1.3l0.601-1.5c0.066,0.066,0.283,0.767,0.649,2.1c0.267,0.9,0.733,1.283,1.4,1.15
		c0.399-0.067,1-0.317,1.8-0.75c0.767-0.4,1.384-0.634,1.85-0.7l-0.1,1.6c0.4-0.5,0.95-0.449,1.65,0.15
		c0.399,0.366,0.933,0.917,1.6,1.65c0.2-1,0.717-1.801,1.55-2.4c0.467,0.366,0.884,0.917,1.25,1.65
		c0.067,0.1,0.351,0.732,0.851,1.899c0.733-0.733,1.366-0.667,1.899,0.2c0.067,0.066,0.4,0.833,1,2.3
		c0.7-0.066,1.117,0.066,1.25,0.4c0.134,0.3,0.65,0.35,1.55,0.149c0.534-0.133,1.018-0.3,1.45-0.5c0.3-0.1,0.783-0.316,1.45-0.649
		c0.5,0.767,0.767,1.533,0.8,2.3c0.434-0.733,0.834-1.134,1.2-1.2c0.3-0.066,0.733,0.101,1.3,0.5c0.634-0.733,1.334-1.167,2.101-1.3
		c0.933-0.167,1.533,0.267,1.8,1.3c0.667-0.6,1.283-0.733,1.85-0.399c0.533,0.333,0.7,0.966,0.5,1.899
		c0.667,0.467,1.367,0.684,2.101,0.65c0.333-0.033,1.1-0.2,2.3-0.5c0.1,0.767-0.017,1.55-0.351,2.35
		c0.434-0.167,0.967-0.25,1.601-0.25c0.133,0.3,0.066,0.533-0.2,0.7c0.434,0.333,1.15,0.6,2.15,0.8s1.616,0.4,1.85,0.601
		c0.6,0.566,1.417,0.783,2.45,0.649c1.066-0.1,1.95,0.15,2.649,0.75l0.601-1.649l1.45,1c0.533-2,1.75-2.117,3.649-0.351
		c0.467-0.399,0.834-0.566,1.101-0.5c0.199,0.066,0.533,0.351,1,0.851c0.166,0.199,0.566,0.899,1.199,2.1
		c0.434,0.833,0.983,1.267,1.65,1.3c0.1,0.033,0.7,0,1.8-0.1c0.9,0,1.017,0.283,0.351,0.85c3.333-1.399,4.666-1.633,4-0.7
		c0.833-0.6,1.583-0.666,2.25-0.199c0.666,0.5,0.6,1.183-0.2,2.05c1.033-0.067,1.883-0.017,2.55,0.149
		c0.9,0.267,0.983,0.7,0.25,1.301c3.6,0.767,4.25,1.216,1.95,1.35c0.3,0.1,0.866,0.233,1.7,0.4c0.767,0.232,1.283,0.533,1.55,0.899
		c-0.767,0.101-1.45,0.134-2.05,0.101c0.733,0.267,1.449,0.699,2.149,1.3c-0.833,0.166-1.684,0.217-2.55,0.149l1.2,1.2
		c-0.667,0.101-1.267,0.134-1.8,0.101c0.333,0.333,0.933,0.916,1.8,1.75c0.7,0.8,1,1.55,0.899,2.25
		c-1.533,0.633-2.75,0.816-3.649,0.55c0.066,1.533-0.767,1.683-2.5,0.45c0.066,0.933-0.101,1.616-0.5,2.05
		c-0.467,0.5-1.101,0.467-1.9-0.101c-0.333,0.733-0.8,1.134-1.399,1.2c-0.601,0.066-1.134-0.233-1.601-0.899
		c-0.233,0.633-0.55,1.066-0.95,1.3c-0.399,0.233-0.833,0.2-1.3-0.101c-0.333,0.634-0.8,0.983-1.399,1.051
		c-0.634,0.033-1.117,0.283-1.45,0.75c-0.467,0.633-0.9,0.916-1.3,0.85c-0.2-0.033-0.617-0.283-1.25-0.75
		c-0.267,0.4-0.7,0.733-1.301,1c-0.733,0.267-1.267,0.467-1.6,0.6c-0.3-0.733-0.5-1.517-0.6-2.35c-0.134,1.4-0.717,2.167-1.75,2.3
		c-1.233-0.1-2.117-0.1-2.65,0c-0.934,0.2-1.75-0.149-2.45-1.05c-0.633-0.833-0.967-1.717-1-2.65
		c-1.3,1.767-3.017,2.884-5.149,3.351c-0.2-0.533-0.301-1.067-0.301-1.601c-0.666,0.867-1.583,1.033-2.75,0.5
		c-0.366-0.166-1.3-0.783-2.8-1.85c-0.5,0.5-1.283,0.833-2.35,1c-1.066,0.133-1.816,0.05-2.25-0.25c0.033,0.7-0.233,1.267-0.8,1.7
		c-0.533,0.399-1.15,0.533-1.851,0.399c0.134,0.767-0.149,1.334-0.85,1.7c-0.434,0.233-1.017,0.351-1.75,0.351s-1.316,0.1-1.75,0.3
		c-1,0.833-1.434,0.517-1.3-0.95c-0.934,0.833-1.834,1.467-2.7,1.9c-1.467,0.732-2.233,0.533-2.3-0.601c-0.5,1.066-1.067,2-1.7,2.8
		l-0.5-1.25c-0.5,0.467-0.95,0.617-1.351,0.45c-0.366-0.167-0.616-0.583-0.75-1.25c-0.633,0.667-1.55,1.05-2.75,1.15
		c-1.533,0.133-2.482,0.283-2.85,0.45c-0.866,0.399-1.65,0.466-2.35,0.199c-0.767-0.267-0.95-0.899-0.551-1.899
		c-1.267,0.066-2.066-0.55-2.399-1.851c-0.434,0.7-0.934,1.084-1.5,1.15c-0.566,0.033-1.066-0.25-1.5-0.85
		c-0.367,1-1.017,1.433-1.95,1.3c-1.066-0.367-1.816-0.55-2.25-0.55c-0.5,0-1.066,0.133-1.7,0.399c-0.633,0.267-1.2,0.4-1.7,0.4
		c0.101-0.767,0.367-1.434,0.801-2c-1.067-0.101-1.584-0.167-1.551-0.2c0.2-0.2,0.084-0.45-0.35-0.75c-0.6-0.634-1.267-0.634-2,0
		c-0.5-0.033-1.116,0.033-1.85,0.2c-0.667,0.133-1.301,0.149-1.9,0.05c0.934,1.633,0.233,2.167-2.1,1.6
		c-2.101-0.5-3.634-1.149-4.601-1.949c0,0.866-0.416,1.166-1.25,0.899c-0.8-0.267-1.267-0.717-1.399-1.35
		c-0.434,0.633-1,1.05-1.7,1.25c-0.8,0.233-1.351-0.05-1.65-0.851c-1.1,0.434-1.866,0.717-2.3,0.851
		c-0.934,0.267-1.767,0.35-2.5,0.25c0.555-0.638,1.213-1.079,1.975-1.325c-0.4,0.069-0.792,0.045-1.175-0.075
		c-0.6-0.167-0.933-0.566-1-1.2c-0.467,0.7-1.017,0.851-1.649,0.45c-0.601-0.366-0.967-0.883-1.101-1.55
		c-0.399,0.533-0.816,0.883-1.25,1.05c-0.6,0.2-1.033-0.05-1.3-0.75c-0.467,0.333-1,0.634-1.6,0.9c-0.667,0.233-1.25,0.267-1.75,0.1
		c-0.601-0.167-0.967-0.583-1.101-1.25c-0.666,0.733-1.5,1.017-2.5,0.851c0.067-0.467,0.184-0.884,0.351-1.25L488.35,87.6
		c0.332-0.386,0.682-0.694,1.051-0.925c-0.781,0.435-1.415,0.743-1.9,0.925c-1.004,0.356-1.429,0.081-1.275-0.824
		c-0.144,0.729-0.585,1.271-1.324,1.625c-0.101-0.134-0.184-0.567-0.25-1.301c-0.101-0.699-0.184-1.066-0.25-1.1
		c-0.301,0.5-1.233,0.517-2.801,0.05c-1.232-0.399-2.333-0.883-3.3-1.45c0.267,0.367,0.351,0.767,0.25,1.2
		c-1.399-0.267-2.35-0.383-2.85-0.35c-0.934,0.1-1.583,0.616-1.95,1.55c-0.566,1.467-1.633,2.866-3.2,4.2
		c-0.7-0.601-1.866-0.45-3.5,0.45c-1.3,0.699-2.183,0.133-2.649-1.7l-1.851,1.3l-0.8-2.15c-0.767,0.667-1.65,1.017-2.65,1.051
		c-0.966,0.033-1.866-0.25-2.699-0.851c-0.033,0.367-0.301,0.767-0.801,1.2c-0.666,0.6-1.033,0.95-1.1,1.05
		c-1.167-0.066-1.95-0.05-2.35,0.05c-0.567,0.134-1.283,0.5-2.15,1.101c0.367,0.267,0.45,0.583,0.25,0.95
		c-0.7,0-1.4-0.101-2.1-0.301c0.3,0.4,0.433,0.9,0.399,1.5c-0.033,0.767-0.017,1.267,0.05,1.5c-1.566-0.366-2.533-0.55-2.899-0.55
		c-1-0.066-1.917,0.184-2.75,0.75c0.267,1.167,0.033,1.967-0.7,2.4c-0.7,0.467-1.483,0.316-2.35-0.45
		c-0.334,1.333-1.101,1.883-2.301,1.65c-1.033-0.167-1.949-0.733-2.75-1.7c-0.699,0.5-1.25,0.717-1.649,0.649
		c-0.533-0.1-1.066-0.6-1.601-1.5c0.101,0.467,0,0.983-0.3,1.551c-0.433,0.899-0.666,1.383-0.7,1.449
		c-0.666-0.3-1.383-0.75-2.149-1.35c-0.833-0.733-1.467-1.283-1.9-1.65c-0.333,0.9-1.033,1.184-2.1,0.851
		c-0.767-0.233-1.533-0.667-2.3-1.3c-0.467,0.699-1.101,0.816-1.9,0.35c-0.7-0.434-1.233-1.083-1.6-1.95
		c-0.067,1.467-0.617,1.95-1.65,1.45c-1.033-0.467-1.65-1.233-1.85-2.3c-0.267,0.533-0.801,1.283-1.601,2.25l-0.8-2.4
		c-0.4,0.601-1.333,1.417-2.8,2.45l-0.45-2.1c-0.233,0.366-0.65,0.816-1.25,1.35c-0.633,0.566-1.066,1-1.3,1.3l-0.5-1.899
		c-0.2,0.166-0.55,0.316-1.05,0.449c-0.5,0.134-0.851,0.267-1.051,0.4c0.067-0.967-0.066-1.583-0.399-1.85
		c-0.333-0.268-0.967-0.233-1.9,0.1c0.067-1.033-0.083-1.617-0.45-1.75c-0.633,0.033-1.232,0.033-1.8,0l0.101-2.55
		c-0.4,0.1-0.801,0.316-1.2,0.649l0.05-1.899c-0.4,0.267-0.9,0.483-1.5,0.649c0.033-0.666-0.05-1.149-0.25-1.449
		c-0.233-0.434-0.616-0.434-1.15,0c-0.232,1.166-0.366,1.783-0.399,1.85c-0.233,0.4-0.733,0.55-1.5,0.45
		c-0.3-0.033-1.15,0.25-2.55,0.85c-0.967,0.4-1.801,0.101-2.5-0.899c-0.267,0.767-0.684,1.3-1.25,1.6
		c-0.567,0.333-1.117,0.3-1.65-0.1c-0.467,0.732-0.917,1.166-1.35,1.3c-0.434,0.133-1.067,0.033-1.9-0.3
		c-0.233,1.267-0.75,1.966-1.55,2.1c-0.634,0.1-1.384-0.167-2.25-0.8c-0.367,0.533-0.95,0.967-1.75,1.3
		c-0.934,0.333-1.617,0.566-2.05,0.7c0-0.267-0.167-0.767-0.5-1.5c-0.182-0.468-0.266-0.876-0.25-1.226
		c-0.27,1.622-1.02,2.48-2.25,2.575c-1.533-0.2-2.601-0.217-3.2-0.05c-1.233,0.4-2.333-0.017-3.3-1.25
		c-0.867-1.066-1.317-2.25-1.351-3.55c-1.033,1.399-2.35,2.483-3.95,3.25c-0.866,0.399-1.699,0.583-2.5,0.55
		c-1.033-0.033-1.232-0.6-0.6-1.7c-0.533,0.7-1.167,1.117-1.9,1.25c-0.8,0.167-1.466-0.116-2-0.85c-0.466-0.601-0.966-1.033-1.5-1.3
		c-0.866-0.367-1.466-0.684-1.8-0.95c-0.566,0.566-1.399,0.866-2.5,0.899c-1.166,0.033-2.083,0.334-2.75,0.9
		c-0.133-0.3-0.35-0.6-0.649-0.9c0.033,0.634-0.15,1.2-0.551,1.7c-0.366,0.5-0.866,0.816-1.5,0.95
		c-0.933,0.233-1.383,0.467-1.35,0.7c0.1,0.399-0.15,0.816-0.75,1.25c-0.934,0.733-2.167,0.75-3.7,0.05
		c-0.8,0.7-1.683,1.2-2.649,1.5L333.3,96.9c-1.2,1.033-2.383,1.833-3.55,2.399c-1.9,0.9-2.867,0.634-2.9-0.8
		c-0.733,1.5-1.483,2.684-2.25,3.55c-0.3-0.633-0.517-1.167-0.65-1.6c-0.7,0.566-1.284,0.75-1.75,0.55
		c-0.467-0.233-0.784-0.767-0.95-1.6c-0.6,0.6-1.333,1.033-2.2,1.3c-0.866,0.267-1.716,0.333-2.55,0.2
		c-0.7-0.134-1.25-0.117-1.65,0.05c-0.534,0.267-1.067,0.483-1.6,0.649c-1.066,0.301-1.934,0.233-2.6-0.199
		c-0.733-0.467-0.867-1.25-0.4-2.351c-0.767,0.033-1.434-0.184-2-0.649c-0.533-0.434-0.883-1.034-1.05-1.801
		c-0.534,0.9-1.184,1.384-1.95,1.45c-0.733,0.066-1.367-0.3-1.9-1.1c-0.434,1.1-1.067,1.666-1.9,1.7
		c-0.767,0.066-1.417-0.301-1.95-1.101c-0.934,0.434-1.783,0.566-2.55,0.4c-0.934-0.167-1.184-0.8-0.75-1.9
		c-0.5,0.167-1.1,0.2-1.8,0.101c-0.933-0.134-1.533-0.2-1.8-0.2c-0.034-0.634-0.2-1.101-0.5-1.4c-0.667-0.6-1.1-1.066-1.3-1.399
		c-0.333,0.666-0.816,0.982-1.45,0.949c-0.633,0-0.967-0.433-1-1.3c-0.434,0.267-1.117,0.601-2.05,1c0.167-0.7,0.5-1.283,1-1.75
		c-0.4,0.033-0.833,0.4-1.3,1.101c-0.5,0.767-1.117,1.232-1.85,1.399c0.633,1.066,0.233,1.65-1.2,1.75
		c-1.767-0.1-2.833-0.133-3.2-0.1c0.4,1.267,0.217,2-0.55,2.2c-0.634,0.166-1.583-0.018-2.85-0.551
		c0.566,1.334,0.017,1.684-1.65,1.051c-1.667-0.601-2.733-1.301-3.2-2.101c-0.233,0.434-1.233,0.833-3,1.2
		c-1.934,0.333-3.1,0.533-3.5,0.6c-0.833,0.134-1.367,0.217-1.6,0.25c-0.367,0.033-0.816,0.2-1.35,0.5
		c-0.366,0.2-0.85,0.184-1.45-0.05c-0.2-0.1-0.633-0.333-1.3-0.7c-0.233,0.267-1.283,0.533-3.15,0.801
		c-1.966,0.3-3.066,0.25-3.3-0.15c-1.367,1.566-2.65,2.35-3.85,2.35c0.133-0.833,0.5-1.6,1.1-2.3c-0.467,0.167-0.85,0.167-1.15,0
		c-0.1-0.033-0.4-0.267-0.9-0.7c-0.566-0.733-1.25-0.767-2.05-0.1c-0.467-0.033-1.083,0.017-1.85,0.15
		c-0.667,0.1-1.3,0.083-1.9-0.051c0.867,1.667,0.15,2.15-2.15,1.45c-2.133-0.6-3.633-1.316-4.5-2.149
		c-0.067,0.866-0.5,1.149-1.3,0.85c-0.8-0.3-1.25-0.767-1.35-1.4c-0.434,0.601-1.017,0.983-1.75,1.15c-0.833,0.2-1.367-0.1-1.6-0.9
		c-1.167,0.367-1.967,0.601-2.4,0.7c-0.9,0.2-1.717,0.25-2.45,0.15c0.561-0.62,1.277-1.045,2.15-1.275
		c-0.464,0.084-0.898,0.06-1.3-0.075c-0.6-0.199-0.917-0.616-0.95-1.25c-0.5,0.667-1.05,0.801-1.65,0.4
		c-0.533-0.367-0.867-0.9-1-1.6c-0.434,0.5-0.883,0.833-1.35,1c-0.6,0.166-1.017-0.101-1.25-0.801c-0.6,0.367-1.15,0.617-1.65,0.75
		c-0.667,0.233-1.25,0.267-1.75,0.101c-0.566-0.2-0.917-0.634-1.05-1.3c-0.767,0.666-1.617,0.899-2.55,0.699
		c0.1-0.433,0.25-0.833,0.45-1.199l-1.6-0.15c0.42-0.42,0.853-0.745,1.3-0.975c-0.876,0.419-1.593,0.711-2.15,0.875
		c-0.984,0.328-1.368,0.044-1.15-0.851c-0.214,0.772-0.697,1.306-1.45,1.601c-0.333-1-0.4-1.95-0.2-2.851
		c-0.2,0.733-0.667,0.95-1.4,0.65c-0.4-0.2-1-0.634-1.8-1.3c-0.333,1.3-1.1,1.85-2.3,1.649c-1.034-0.167-1.95-0.733-2.75-1.7
		c-0.7,0.5-1.25,0.717-1.65,0.65c-0.534-0.1-1.05-0.6-1.55-1.5c0.067,0.467-0.05,0.983-0.35,1.55c-0.433,0.8-0.667,1.267-0.7,1.4
		c-0.9-0.4-2.233-1.384-4-2.95c-0.333,0.9-1.05,1.184-2.15,0.85c-0.8-0.233-1.567-0.683-2.3-1.35c-0.466,0.7-1.1,0.816-1.9,0.35
		c-0.667-0.399-1.2-1.033-1.6-1.899c-0.066,1.433-0.617,1.916-1.65,1.45c-1.033-0.5-1.65-1.268-1.85-2.301
		c-0.133,0.301-0.667,1.033-1.6,2.2l-0.75-2.35c-0.433,0.566-1.366,1.383-2.8,2.45c0-0.7-0.233-1.317-0.7-1.851
		c-0.233,0.3-0.616,0.7-1.15,1.2c-0.533,0.467-0.917,0.866-1.15,1.2l-0.5-1.9c-0.233,0.167-0.583,0.3-1.05,0.4
		c-0.534,0.133-0.9,0.267-1.1,0.399c0.066-1.1-0.284-1.717-1.05-1.85c-0.9-0.134-1.45-0.6-1.65-1.4
		c-0.3,0.301-0.75,0.817-1.35,1.551c-0.566,0.566-1.133,0.916-1.7,1.05c0.1-0.834,0.383-1.584,0.85-2.25
		c-0.367,0.267-0.534,0.333-0.5,0.2c0.133-0.301,0.15-0.518,0.05-0.65c-0.233,0.333-0.566,0.633-1,0.9l-0.3-1.5
		c-0.7,0.866-1.517,1.699-2.45,2.5c-0.133-0.834-0.233-1.284-0.3-1.351c-0.134-0.167-0.45,0.083-0.95,0.75
		c-0.133-1.133-0.233-1.717-0.3-1.75c-0.1-0.1-0.4,0.2-0.9,0.9c-0.333-0.367-0.566-0.767-0.7-1.2l-1.25,0.8
		c0.2-0.633,0.15-0.917-0.15-0.85c-0.434,0.233-0.784,0.399-1.05,0.5c0.2-0.334,0.25-0.65,0.15-0.95
		c-0.1-0.333-0.333-0.483-0.7-0.45c0.167-0.866,0.233-1.366,0.2-1.5c-0.133-0.399-0.633-0.434-1.5-0.1
		c-0.333,0.166-0.816,0-1.45-0.5c-0.3-0.2-0.467,0.283-0.5,1.45c-0.233-0.2-0.667-0.384-1.3-0.551
		c-0.633-0.166-1.083-0.366-1.35-0.6c-0.034,1.1-0.3,1.883-0.8,2.35c-0.6,0.533-1.333,0.434-2.2-0.3c-0.434,0.8-1,1.217-1.7,1.25
		c-0.733,0-1.333-0.383-1.8-1.149c-0.3,0.666-0.7,1.116-1.2,1.35c-0.533,0.267-1.033,0.2-1.5-0.2c-0.434,0.667-0.85,1.05-1.25,1.15
		c-0.4,0.1-0.967-0.017-1.7-0.351c-0.267,1.101-0.767,1.684-1.5,1.75c-0.6,0.033-1.267-0.25-2-0.85
		c-0.366,0.467-0.917,0.833-1.65,1.1c-0.867,0.233-1.5,0.4-1.9,0.5c-0.3-0.899-0.45-1.816-0.45-2.75
		c-0.3,1.601-1.05,2.417-2.25,2.45c-1.4-0.233-2.383-0.3-2.95-0.2c-1.1,0.233-2.05-0.233-2.85-1.399c-0.7-1-1.033-2.067-1-3.2
		c-1.633,1.967-3.717,3.1-6.25,3.4c-0.2-0.601-0.267-1.233-0.2-1.9c-0.533,0.6-1.133,0.934-1.8,1c-0.733,0.1-1.316-0.184-1.75-0.85
		c-0.367-0.567-0.783-0.983-1.25-1.25c-0.767-0.4-1.3-0.733-1.6-1c-0.533,0.5-1.3,0.732-2.3,0.699
		c-1.067-0.033-1.917,0.184-2.55,0.65c-0.1-0.333-0.267-0.617-0.5-0.85c-0.033,0.566-0.233,1.066-0.6,1.5
		c-0.367,0.399-0.833,0.649-1.4,0.75c-0.866,0.166-1.283,0.35-1.25,0.55c0.067,0.366-0.183,0.733-0.75,1.1
		c-0.933,0.601-2.05,0.55-3.35-0.149c-0.7,0.6-1.517,1-2.45,1.199l-0.2-1.699c-1.066,0.866-2.183,1.533-3.35,2
		c-1.733,0.732-2.583,0.433-2.55-0.9c-0.833,1.4-1.583,2.434-2.25,3.1l-0.5-1.5c-0.633,0.467-1.167,0.584-1.6,0.351
		c-0.433-0.2-0.683-0.684-0.75-1.45c-1.167,1-2.533,1.366-4.1,1.1c-0.733-0.1-1.317-0.1-1.75,0c-0.567,0.2-1.15,0.351-1.75,0.45
		C71.233,90,70.5,89.866,70,89.4c-0.533-0.467-0.566-1.15-0.1-2.051c-1.433-0.033-2.3-0.833-2.6-2.399c-0.533,0.8-1.15,1.2-1.85,1.2
		c-0.667,0-1.217-0.367-1.65-1.101c-0.433,0.934-1.033,1.4-1.8,1.4c-0.7,0-1.267-0.367-1.7-1.101c-0.866,0.334-1.65,0.4-2.35,0.2
		c-0.8-0.2-0.983-0.783-0.55-1.75c-0.466,0.134-1,0.134-1.6,0c-0.866-0.2-1.4-0.3-1.6-0.3c0.033-0.566-0.1-1-0.4-1.3
		c-0.533-0.533-0.9-0.967-1.1-1.3c-0.467,0.767-1.067,0.899-1.8,0.399c-0.7-0.467-1.283-0.233-1.75,0.7
		c-0.267,0.5-0.75,0.8-1.45,0.9c-0.567,0.066-1.133,0-1.7-0.2c-0.533,0.7-1,1.083-1.4,1.149c-0.5,0.101-0.8-0.316-0.9-1.25
		c-0.833,0.834-1.684,1.5-2.55,2c-1.4,0.834-2.15,0.7-2.25-0.399c-0.4,1.033-0.9,1.967-1.5,2.8c-0.233-0.333-0.433-0.717-0.6-1.15
		c-0.5,0.467-0.933,0.634-1.3,0.5c-0.367-0.133-0.633-0.517-0.8-1.149c-0.6,0.666-1.483,1.083-2.65,1.25
		c-1.466,0.2-2.4,0.399-2.8,0.6c-0.833,0.434-1.6,0.566-2.3,0.4c-0.767-0.233-0.983-0.867-0.65-1.9
		c-1.233,0.167-2.05-0.399-2.45-1.7c-0.333,0.733-0.783,1.134-1.35,1.2c-0.566,0.101-1.083-0.133-1.55-0.7
		c-0.267,0.867-0.717,1.334-1.35,1.4c-0.567,0.066-1.083-0.184-1.55-0.75c-0.667,0.4-1.3,0.55-1.9,0.45
		c-0.7-0.067-0.933-0.533-0.7-1.4c-0.934,0.267-1.833,0.3-2.7,0.101c-0.066-0.467-0.233-0.801-0.5-1c-0.5-0.4-0.85-0.733-1.05-1
		c-0.233,0.533-0.583,0.816-1.05,0.85c-0.5,0-0.767-0.316-0.8-0.95L7.85,82.9c0.066-0.534,0.316-1.034,0.75-1.5
		c-1.8,0.6-3.3,0.767-4.5,0.5c0.733-0.534,1.517-0.967,2.35-1.301c-1.6,0.134-2.85-0.149-3.75-0.85c0.2-0.333,0.483-0.55,0.85-0.65
		C3.25,78.9,2.833,78.533,2.3,78c0.267-0.134,0.517-0.233,0.75-0.3c-1.4-0.334-2.333-0.867-2.8-1.601c1.4-0.166,1.317-1-0.25-2.5
		c1.5-0.133,1.817-0.75,0.95-1.85C1.517,71.65,2.2,71.633,3,71.7c-0.6-0.9-1.033-1.584-1.3-2.05c-0.467-0.834-0.5-1.584-0.1-2.25
		c0.467,0.133,1.167-0.184,2.1-0.95c0.833-0.7,1.767-0.733,2.8-0.101L6.55,64.9c0.6,0.366,0.867,0.466,0.8,0.3
		c-0.167-0.434-0.15-0.75,0.05-0.95l1.25,0.95c-0.066-0.5,0.067-0.934,0.4-1.3c0.5-0.4,0.884-0.733,1.15-1
		c0.333,0.199,0.6,0.416,0.8,0.649c0.167,0.066,0.467-0.1,0.9-0.5c0.367-0.3,0.717-0.399,1.05-0.3c0.433,0.066,0.683,0.4,0.75,1
		c0.367-0.867,0.566-1.283,0.6-1.25c0.067,0.033,0.3,0.283,0.7,0.75l0.9-1.3c0.2-0.167,0.617-0.167,1.25,0
		c-0.1-0.634-0.1-1.283,0-1.95c0.133,0.1,0.483,0.217,1.05,0.35c0.433,0.134,0.733,0.301,0.9,0.5l0.1-0.899
		c0.4,0.399,0.9,0.767,1.5,1.1l0.05-1.8l1.15,0.4l-0.15-1.4c0.3,0.2,0.617,0.35,0.95,0.45l-0.2-1.95c0.434-0.033,0.9-0.066,1.4-0.1
		c0.267-0.101,0.35-0.534,0.25-1.301c0.733,0.167,1.217,0.15,1.45-0.05s0.316-0.667,0.25-1.399l1.65,0.55L27.8,53
		c0.567,0.467,1.233,1.1,2,1.9l0.3-1.65c0.8,0.467,1.533,1.05,2.2,1.75l0.5-1.85c0.4,0.399,0.833,0.949,1.3,1.649
		c0.1-0.833,0.533-1.45,1.3-1.85c0.8-0.434,1.25-0.101,1.35,1c0.267-0.733,1.233-1.417,2.9-2.05c1.7-0.667,2.717-0.617,3.05,0.15
		c1.433-1.333,2.4-2.15,2.9-2.45c0.5,0.7,0.816,1.45,0.95,2.25c0.367-0.767,0.733-1.184,1.1-1.25c0.267-0.067,0.7,0.083,1.3,0.45
		c0.4-0.5,0.833-0.9,1.3-1.2c0.7-0.4,1.317-0.434,1.85-0.1c0.333,0.233,0.667,0.517,1,0.85c0.233,0.1,0.633-0.117,1.2-0.65
		c0.267,0.5,0.617,1.017,1.05,1.55c0.333-0.667,0.65-0.867,0.95-0.6c0.434,0.367,0.85,0.467,1.25,0.3c-0.267-0.5-0.216-0.833,0.15-1
		c0.3-0.167,0.683-0.167,1.15,0c-0.167-0.434-0.25-0.867-0.25-1.3l1.15,0.4c0-0.566,0.217-0.816,0.65-0.75
		c0.4,0.034,0.75,0.25,1.05,0.65c-0.167-0.434-0.217-1-0.15-1.7l1.45,0.75c-0.167-0.733-0.05-1.417,0.35-2.05
		c1.167,1.267,1.6,0.966,1.3-0.9c0.233,0.1,0.684,0.217,1.35,0.35c0.333,0.067,0.5,0.2,0.5,0.4c0.167-0.9,0.567-1.65,1.2-2.25
		c0.728-0.694,1.277-0.469,1.65,0.675c-0.262-0.893-0.179-1.784,0.25-2.675c0.733,0.2,1.417,0.583,2.05,1.15
		c0-1.667,0.95-1.833,2.85-0.5l0.4-1.45l1.15,0.8l0.8-1.95c0.566,0.733,1,1.517,1.3,2.35c0.167-0.567,0.65-1.2,1.45-1.9
		c0.833-0.8,1.25-0.683,1.25,0.35c0.267-0.3,0.867-0.45,1.8-0.45c0.833,0,1.4,0.083,1.7,0.25c0.233,0.133,0.683,0.283,1.35,0.45
		c0.533,0.167,1.083,0.467,1.65,0.9c0.066-0.667,0.283-1.267,0.65-1.8c0.667,0.566,1.2,1.25,1.6,2.05
		c0.333,0.367,1.033,0.233,2.1-0.4c0.833-0.466,1.5-0.683,2-0.65c0.667,0.066,0.917,0.583,0.75,1.55L95,41
		c0.434,0.467,0.733,0.95,0.9,1.45c0.167-0.4,0.417-0.884,0.75-1.45c0.067,0.1,0.217,0.833,0.45,2.2
		c0.133,0.933,0.533,1.366,1.2,1.3c0.4-0.033,1.034-0.217,1.9-0.55c0.8-0.3,1.433-0.45,1.9-0.45l-0.25,1.55
		c0.433-0.466,0.966-0.35,1.6,0.35c0.333,0.4,0.783,1.017,1.35,1.85c0.333-0.967,0.95-1.7,1.85-2.2c0.6,0.6,1.15,1.85,1.65,3.75
		c0.634-0.5,1.184-0.5,1.65,0c0.267,0.3,0.583,0.867,0.95,1.7c0.2-0.733,0.45-1,0.75-0.8c0.5,0.3,0.934,0.333,1.3,0.1
		c-0.333-0.466-0.333-0.816,0-1.05c0.267-0.233,0.65-0.3,1.15-0.2c-0.2-0.3-0.367-0.7-0.5-1.2c0.4,0,0.8,0.05,1.2,0.15
		c-0.1-0.533,0.05-0.833,0.45-0.9c0.4-0.034,0.8,0.117,1.2,0.45c-0.3-0.5-0.45-1.033-0.45-1.6l1.55,0.5c-0.3-0.7-0.3-1.417,0-2.15
		c1.333,1.034,1.7,0.667,1.1-1.1c0.267,0.066,0.717,0.1,1.35,0.1c0.333,0,0.517,0.1,0.55,0.3c0-0.9,0.25-1.717,0.75-2.45
		c0.6-0.8,1.184-0.667,1.75,0.4c-0.366-0.8-0.45-1.7-0.25-2.7c0.867,0.066,1.617,0.316,2.25,0.75c-0.267-1.534,0.65-1.883,2.75-1.05
		l0.1-1.45c0.6,0.2,1.034,0.383,1.3,0.55l0.4-2.05c0.767,0.7,1.333,1.383,1.7,2.05c0.1-0.566,0.45-1.283,1.05-2.15
		c0.7-0.934,1.15-0.9,1.35,0.1c0.2-0.333,0.75-0.583,1.65-0.75c0.833-0.167,1.4-0.2,1.7-0.1c0.267,0.1,0.733,0.184,1.4,0.25
		c0.6,0.033,1.2,0.217,1.8,0.55c-0.066-0.667,0.033-1.3,0.3-1.9C141.316,33.583,141.983,34.15,142.55,34.85z"/>
</g>
</svg>
