<?xml version="1.0" encoding="iso-8859-1"?>
<!-- Generator: Adobe Illustrator 15.1.0, SVG Export Plug-In . SVG Version: 6.00 Build 0)  -->
<!DOCTYPE svg PUBLIC "-//W3C//DTD SVG 1.1//EN" "http://www.w3.org/Graphics/SVG/1.1/DTD/svg11.dtd">
<svg version="1.1" id="FlashAICB" xmlns="http://www.w3.org/2000/svg" xmlns:xlink="http://www.w3.org/1999/xlink" x="0px" y="0px"
	 width="250.3px" height="315.25px" viewBox="0 0 250.3 315.25" style="enable-background:new 0 0 250.3 315.25;"
	 xml:space="preserve">
<g>
	<path style="fill-rule:evenodd;clip-rule:evenodd;fill:#633B21;" d="M149.9,35.5c5.833,0.7,9.983,1.533,12.449,2.5
		c4.434,1.8,8.434,3.133,12,4l6.4-0.15c5.134,0.2,9.9,1.15,14.3,2.85c8.867,0,15,1.5,18.4,4.5c1.3,1.167,5.017,3.167,11.149,6
		c7.101,3.267,11.017,5.116,11.75,5.55c1.733,1.033,3.801,1.883,6.2,2.55c1.2,0.333,2.233,0.567,3.101,0.7l2.55,3.85
		c1.6,3.066,2.1,5.85,1.5,8.35c-0.601,2.5-1.884,4.65-3.851,6.45c-1,0.867-1.933,1.5-2.8,1.9l-0.35,5.25c-0.3,4-0.684,7.2-1.15,9.6
		c-0.399,2.233-0.116,5.067,0.851,8.5c1.199,4.367,1.85,7.133,1.949,8.3c0.2,2.133-1.366,4.35-4.699,6.65
		c-3.534,2.433-5.351,3.883-5.45,4.35c-0.3,1.7-0.75,3.267-1.351,4.7c-0.8,1.867-1.633,2.8-2.5,2.8c-0.233,0-1.649,0.65-4.25,1.95
		c-2.1,1.034-3.517,1.05-4.25,0.05c-0.8-1.034-1.233-1.684-1.3-1.95l0.15-0.05c-1.167-1.4-2.767-2.967-4.8-4.7l0.449,0.65
		c-3.233-1.066-5.816-1.783-7.75-2.15c-1.199-0.233-2.533-0.767-4-1.6l-1.8-1.2l-3.85,2.55c-3.233,1.733-6.467,2.717-9.7,2.95
		c-3.3,0.2-6.434,1.333-9.4,3.4c-1.6,1.1-3.3,2.65-5.1,4.65c-0.566,0.633-1.217,2.066-1.95,4.3c-0.7,2.067-1.5,3.483-2.399,4.25
		c-1.601,1.434-4.167,3.95-7.7,7.55l-0.25,2.7c-0.334,2.3-0.9,4.8-1.7,7.5c-0.8,2.667-2.25,5.8-4.35,9.4
		c-1.034,1.767-2,3.283-2.9,4.55l0.25,3.9c0.167,3.199,0.25,6.366,0.25,9.5c0,5-0.167,8.399-0.5,10.199l0.3,2.7
		c0.267,2.3,0.5,4.8,0.7,7.5c0.3,4.3,0.3,10.567,0,18.8l0.3,4c0.4,3.2,1.101,6.15,2.101,8.851s1.699,9.5,2.1,20.399
		c0.2,5.467,0.3,10.65,0.3,15.551l1.95,10.199c0.634,3.233,0.95,7.884,0.95,13.95l-0.75,1c-0.7,0.601-1.533,0.75-2.5,0.45
		l-4.101,0.1c-1.566,0.2-3.466,0.551-5.699,1.051l-2.9,0.649c-3.866,0.7-8.85,1.233-14.95,1.601
		c-3.833,0.233-6.184,0.033-7.05-0.601c-0.3-0.2-0.417-0.416-0.35-0.649l0.15-0.351c-2.6,0-5.017-0.166-7.25-0.5
		c-1.2-0.2-2.15-0.899-2.85-2.1c-2.633,0.066-4.75,0.25-6.35,0.55c-6.767,1.467-11.767,2.483-15,3.05
		c-5.4,0.934-10.383,1.4-14.95,1.4h-23.2c-1.367,0-5.917,0.85-13.65,2.55c-5.333,1.2-9.017,0.85-11.05-1.05
		c-5.367-4.233-9.683-8-12.95-11.3c-6.066-6.134-9.3-11.9-9.7-17.301c-0.4-5.366-0.684-11.083-0.85-17.149L6.1,258.9
		c-1.267-1.967-2.467-4.334-3.6-7.101c-2.267-5.533-3-10.316-2.2-14.35c0.8-4.033,2.05-9.05,3.75-15.05l2.3-7.801
		c3.2-4.767,6.3-10.116,9.3-16.05c6.033-11.899,8.65-20.767,7.85-26.6c-0.8-5.8-1.35-11.134-1.65-16l-0.2-5.5
		c0.934-6.9,1.783-14.134,2.55-21.7c1.466-15.1,1.716-24.25,0.75-27.45c-1-3.2-2.25-6.05-3.75-8.55L19.25,90
		c0.8-3.7,1.533-7.733,2.2-12.1c1.333-8.767,1.633-14.816,0.9-18.15c-1.167-5.333-1.75-10.867-1.75-16.6
		c0-1.267,1.316-2.917,3.95-4.95c1.167-2.6,2.684-5.75,4.55-9.45c2.867-5.6,5.55-10.3,8.05-14.1c3.1-4.767,7.167-8.45,12.2-11.05
		c4.6-2.4,9.367-3.6,14.3-3.6c4.434,0,9.767,1.133,16,3.4c5.8,2.1,10.083,4.267,12.85,6.5c3.433,2.733,7.6,6.1,12.5,10.1h4.85
		c3.8,0.6,7.083,2.417,9.85,5.45c2.7,2.933,6.833,5.1,12.399,6.5c2.834,0.733,5.801,1.417,8.9,2.05
		C141.566,34.367,144.533,34.867,149.9,35.5z"/>
	<path style="fill-rule:evenodd;clip-rule:evenodd;fill:#57351D;" d="M143.5,198.6l-0.65-2.399c0.267-3.066,0.601-6.316,1-9.75
		c0.834-6.833,1.667-11.083,2.5-12.75c0.834-1.667,1.5-3.417,2-5.25l4-14.25c0.667-1.667,1.417-3.4,2.25-5.2
		c1.667-3.566,2.917-5.667,3.75-6.3c0.434-0.333,1.934-2.284,4.5-5.85c2.467-3.467,4.467-5.684,6-6.65
		c1.367-0.867,3.65-1.467,6.851-1.8c2.899-0.3,4.666-0.767,5.3-1.4c1.066-1.066,3.884-2.117,8.45-3.15
		c4.833-1.1,8.899-1.483,12.2-1.15c1.767,0.167,5.466,0.417,11.1,0.75c4.9,0.466,7.767,1.216,8.6,2.25
		c0.834,1.033,3.2,1.517,7.101,1.45c1.934-0.033,3.783-0.183,5.55-0.45l-3.65,4.4c-2.466,3.033-3.8,4.816-4,5.35l-0.05,0.05
		c-2.166,1.133-3.649,1.2-4.45,0.2c-0.8-1.034-1.233-1.684-1.3-1.95l0.15-0.05c-1.167-1.4-2.767-2.967-4.8-4.7l0.449,0.65
		c-3.233-1.066-5.816-1.783-7.75-2.15c-1.199-0.233-2.533-0.767-4-1.6l-1.8-1.2l-3.85,2.55c-3.233,1.733-6.467,2.717-9.7,2.95
		c-3.3,0.2-6.434,1.333-9.4,3.4c-1.6,1.1-3.3,2.65-5.1,4.65c-0.566,0.633-1.217,2.066-1.95,4.3c-0.7,2.067-1.5,3.483-2.399,4.25
		c-1.601,1.434-4.167,3.95-7.7,7.55l-0.25,2.7c-0.334,2.3-0.9,4.8-1.7,7.5c-0.8,2.667-2.25,5.8-4.35,9.4
		c-1.034,1.767-2,3.283-2.9,4.55l0.25,3.9c0.167,3.199,0.25,6.366,0.25,9.5c0,5-0.167,8.399-0.5,10.199l0.3,2.7
		c0.267,2.3,0.5,4.8,0.7,7.5c0.3,4.3,0.3,10.567,0,18.8l0.3,4c0.4,3.2,1.101,6.15,2.101,8.851s1.699,9.5,2.1,20.399
		c0.2,5.467,0.3,10.65,0.3,15.551l1.95,10.199c0.634,3.233,0.95,7.884,0.95,13.95l-0.75,1c-0.7,0.601-1.533,0.75-2.5,0.45h-0.75
		c-1.467-1.866-2.634-3.634-3.5-5.3c-1.4-2.767-2.517-6.101-3.351-10c-0.433-1.967-1.75-6.884-3.949-14.75
		c-1.367-4.934-2.051-8.851-2.051-11.75c0-4.167,0.017-6.833,0.051-8c0.066-1.634,0.216-2.8,0.449-3.5
		c0.5-0.9,0.884-1.717,1.15-2.45c0.434-1.3,0.55-2.983,0.35-5.05c-0.166-1.767-0.566-4.533-1.199-8.3
		c-0.534-3.334-0.801-5.233-0.801-5.7c0.667-14,1-21.5,1-22.5c0-0.7-0.116-1.517-0.35-2.45c-0.167-0.6-0.55-1.783-1.15-3.55
		C144.45,201.967,144,200.434,143.5,198.6z"/>
	<path style="fill-rule:evenodd;clip-rule:evenodd;fill:#57351D;" d="M43.8,7.7l6.55-5L48.5,16.2l-4.05,3.75
		c-2.467,2.833-3.217,5.1-2.25,6.8c0.966,1.7,2.833,2.1,5.6,1.2c1.367-0.434,2.633-1.05,3.8-1.85l1.15,3.2
		c1.233,2.2,3.1,3.5,5.6,3.9c2.5,0.433,4.917-0.517,7.25-2.85l2.75-3.65v8c0,1.767-0.983,3.4-2.95,4.9
		c-2.2,1.667-4.583,2.05-7.15,1.15c-3.267-1-5.45-1.75-6.55-2.25c-1.7-0.8-2.983-2.066-3.85-3.8c-0.8-1.6-2.333-2.1-4.6-1.5
		c-2.6,1-4.4,1.5-5.4,1.5c-1.233,0-2.417-0.7-3.55-2.1L33,30.5l-1.95,5.1c-1.367,3.566-2.267,5.767-2.7,6.6
		c-0.367,0.733-0.783,2.9-1.25,6.5c-0.533,4.167-0.95,6.833-1.25,8c-0.4,1.633-0.5,3.417-0.3,5.35c0.133,1.233,0.434,3.733,0.9,7.5
		c0.267,2.867-0.85,7.134-3.35,12.8c-1.267,2.833-2.55,5.383-3.85,7.65c1.067-6.533,1.933-11.467,2.6-14.8
		c0.4-1.9,0.35-5.267-0.15-10.1c-0.733-7.067-1.15-11.65-1.25-13.75c-0.133-4.067,0.5-7.483,1.9-10.25l2.2-2.9
		c3.2-5.333,6.3-11.333,9.3-18C35.717,16.033,39.033,11.867,43.8,7.7z"/>
	<path style="fill-rule:evenodd;clip-rule:evenodd;fill:#57351D;" d="M41.85,76.2c-1.467,2.1-3.317,2.233-5.55,0.4l-2.95-3.4
		l1.55,0.3c1.434,0.1,3.083-0.167,4.95-0.8c1.867-0.634,3.267-2.317,4.2-5.05l0.8-3.95l0.25,4c0.167,3.167,0.25,6,0.25,8.5
		s-0.367,5.55-1.1,9.15c-0.433,2-1.067,4.783-1.9,8.35c-0.467,2.333-1.434,3.966-2.9,4.9c-1.167,0.733-2.9,1.117-5.2,1.15
		c-1.7,0.033-2.767,1.533-3.2,4.5c-0.233,1.5-0.3,2.983-0.2,4.45c-0.667-2.667-1.167-5-1.5-7c-0.2-1.233-1.017-2.767-2.45-4.6
		l-2.05-2.4l1.7,0.55c1.4,0.434,2.833,0.75,4.3,0.95c1.6,0.233,3.117-0.367,4.55-1.8c1.133-1.133,2.283-2.867,3.45-5.2
		c0.833-1.667,1.583-4.333,2.25-8L41.85,76.2z"/>
	<path style="fill-rule:evenodd;clip-rule:evenodd;fill:#57351D;" d="M34.85,130.2l1.15,1.45c1.167,0.9,2.783,1.25,4.85,1.05
		c2.1-0.2,4.066-1.684,5.9-4.45l2.1-4.05l0.05,1.75c0.1,1.5,0.25,3.083,0.45,4.75c0.3,2.333,0.383,5.183,0.25,8.55
		c-0.133,3.9-0.55,6.883-1.25,8.95c-0.133,0.4-1.117,4.3-2.95,11.7c-1.5,6.166-2.85,10.433-4.05,12.8
		c-1.233,2.5-3.684,3.333-7.35,2.5l-5.15-2l-2.25-1.351c-0.9-0.533-1.55-1.966-1.95-4.3l-0.3-3.35l4.2,1.45
		c3.067,0.899,5.333,1.25,6.8,1.05c1.566-0.233,3.117-2.134,4.65-5.7c1.233-2.967,2.017-5.733,2.35-8.3c0.167-1.4,0.9-4.067,2.2-8
		c1.2-3.7,1.8-5.867,1.8-6.5c-2.667,0-5.333-0.167-8-0.5c-1.667-0.2-2.75-1.517-3.25-3.95L34.85,130.2z"/>
	<path style="fill-rule:evenodd;clip-rule:evenodd;fill:#57351D;" d="M28.25,230.75c-0.667,6.6-1.633,11.25-2.9,13.95
		c-1.267,2.733-3.7,5.5-7.3,8.3c-0.367,0.3-2.433,1.7-6.2,4.2c-0.833,0.566-2.167,0.467-4-0.3c-1.967-0.834-3.3-2.067-4-3.7
		c-0.633-1.467-1.317-4.066-2.05-7.8l-0.95-5.2l0.75,2.7c0.667,1.733,1.417,2.5,2.25,2.3l1.55,1.55c1.434,1.1,3.083,1.75,4.95,1.95
		c2.667,0.3,5.3-0.267,7.9-1.7c3.033-1.667,4.9-4.1,5.6-7.3c0.633-2.9,1.65-6.767,3.05-11.601l1.95-6.399L28.25,230.75z"/>
	<path style="fill-rule:evenodd;clip-rule:evenodd;fill:#57351D;" d="M49.8,205.1l3.55-8.899L53,203.4
		c-0.333,5.399-0.717,9.666-1.15,12.8c-0.4,2.967-0.767,4.633-1.1,5c-1,1.066-1.567,1.733-1.7,2c-1.2,2.333-2.6,7-4.2,14l-0.5-6
		c-1.333-3.333-2.3-5.601-2.9-6.8c-0.2-0.467-1.8-1.283-4.8-2.45c-2.967-1.2-4.733-2.45-5.3-3.75c-0.633-1.467-1.15-3.816-1.55-7.05
		l-0.45-4.45c0.467,3.2,2.283,5.533,5.45,7c2.7,1.267,5.383,1.6,8.05,1C44.717,214.3,47.033,211.1,49.8,205.1z"/>
	<path style="fill-rule:evenodd;clip-rule:evenodd;fill:#57351D;" d="M105.75,260.9c1.667,5.733,2.7,10.166,3.1,13.3
		c0.4,3.066,0.533,5.967,0.4,8.7c-0.1,1.466-0.233,3.233-0.4,5.3c0,3.666,0.167,6.333,0.5,8c0.433,2.233,3.433,2.733,9,1.5
		c1.867-0.4,3.35-1.934,4.45-4.601l1.05-3.899l1.3,1.75c1.267,1.333,2.833,2.416,4.699,3.25c2.167,0.967,4.834,0.967,8,0
		c2.967-0.9,5.634-2.4,8-4.5c1.867-1.667,3.351-5.5,4.45-11.5l1.05-8.5v12c0,3.2,1.017,7.416,3.051,12.649
		c2.166,5.534,3.316,8.983,3.449,10.351c0.167,1.833,0.101,2.6-0.199,2.3c-0.867-0.9-1.801-1.033-2.801-0.4
		c-1.566,1-5.199,2.084-10.899,3.25c-6,1.233-11.033,1.851-15.101,1.851c-3.399,0-5.383-0.351-5.95-1.05
		c-0.033-0.801-0.383-1.284-1.05-1.45c-3.533-0.867-6.167-2.033-7.9-3.5c-0.967-0.8-3.15-0.634-6.55,0.5
		c-4.367,1.666-7.717,2.833-10.05,3.5c-4.667,1.333-14.333,2-29,2c-4.733-0.066-8.333-0.101-10.8-0.101c-4.367,0-7.6,0.2-9.7,0.601
		c-3.833,0.833-6.7,1.434-8.6,1.8c-3.433,0.667-5.567,0.9-6.4,0.7c-0.9-0.233-1.9-0.733-3-1.5l-6-4.5
		c-2.5-1.867-5.667-5.351-9.5-10.45l-5-7.05l2.5-0.5c1.033-0.2,1.85-0.934,2.45-2.2l0.55-1.8l3.7,0.75
		c2.733,0.5,4.833,0.75,6.3,0.75c1.433,0,2.833-0.45,4.2-1.351c1.867-1.433,3.633-2.649,5.3-3.649c1.833-1.101,3.75-5.167,5.75-12.2
		c0.9-3.267,1.417-5.05,1.55-5.35c0.4-0.967,0.633-0.617,0.7,1.05c0.2,5.033,1.85,6.934,4.95,5.7
		c0.633-0.267,1.684-0.884,3.15-1.851c0.933-0.6,1.4-0.717,1.4-0.35c0,2,0.667,5.333,2,10c0.467,1.666,2.517,2.217,6.15,1.649
		c3.333-0.566,6.617-1.783,9.85-3.649c2.5-1.467,4.5-3.9,6-7.3l1.5-4.7l2.5,8c0.433,1.533,2.517,2.717,6.25,3.55
		c2.733,0.634,5.316,0.95,7.75,0.95c1.5,0,2.733-0.334,3.7-1c0.967-0.667,2.067-2,3.3-4c1.033-1.667,1.767-5.583,2.2-11.75l0.3-8.75
		L105.75,260.9z"/>
	<path style="fill-rule:evenodd;clip-rule:evenodd;fill:#57351D;" d="M96.6,174.7c1.566-2.5,3-7.917,4.3-16.25l1.45-11.75v21.5
		c0,4.866-0.15,8.717-0.45,11.55c-0.167,1.634-0.433,4.117-0.8,7.45c-0.167,2.167,0.15,6.5,0.95,13c0.867,7.167,1.3,12.5,1.3,16
		c0,0.3,0.117,5.566,0.35,15.8c0.133,5.8,0,9.7-0.4,11.7c-0.466,2.333-1.45,2.25-2.95-0.25c-1.434-2.4-2.283-4.983-2.55-7.75
		c-0.2-1.9-1.333-2.867-3.4-2.9c-3.6-0.066-6.033-0.35-7.3-0.85c-2.5-0.967-4.434-2.05-5.8-3.25c-0.5-0.467-1.5-1.634-3-3.5
		c-0.833-1.033-2-2.851-3.5-5.45l-2-3.55l4.4,2.55c3.167,1.767,5.367,2.75,6.6,2.95c1.633,0.267,3.467-0.267,5.5-1.601
		c2.167-1.466,3.483-3.267,3.95-5.399c0.367-1.601,0.417-5.351,0.15-11.25c-0.267-6.934-0.333-11.684-0.2-14.25
		c0.233-4.167,0.583-7.217,1.05-9.15C94.683,178.25,95.467,176.467,96.6,174.7z"/>
	<path style="fill-rule:evenodd;clip-rule:evenodd;fill:#57351D;" d="M141.15,120.35c1.033-2.434,2.366-4.684,4-6.75
		c2.199-2.767,4.366-4.317,6.5-4.65c3.199-0.534,6.1-0.8,8.699-0.8c-1.233,0.267-2.616,0.733-4.149,1.4
		c-3.066,1.4-5.283,3.167-6.65,5.3c-0.467,0.733-1.666,2.333-3.6,4.8c-1.3,1.667-2.3,3.35-3,5.05
		c-0.767,1.866-1.384,4.033-1.851,6.5c-0.366,1.833-0.55,3.2-0.55,4.1c0,0.934-0.967,0.983-2.899,0.15
		c-1.934-0.833-2.851-2.35-2.75-4.55l0.25-8.2l0.25,2.75c0.366,1.7,0.983,2.233,1.85,1.6c0.934-0.7,1.667-1.566,2.2-2.6
		L141.15,120.35z"/>
	<path style="fill-rule:evenodd;clip-rule:evenodd;fill:#57351D;" d="M118,236.45l-2.65-2.25c-1.333-5-2-8.667-2-11l2.15,2.45
		c1.833,1.566,3.783,2.25,5.85,2.05c2.1-0.2,4.067-2.434,5.9-6.7l2.1-6.3l-0.5,12.5c0,1.3-0.983,3.233-2.949,5.8
		c-1.467,1.934-2.833,3.467-4.101,4.6C121.167,238.2,119.9,237.816,118,236.45z"/>
	<path style="fill-rule:evenodd;clip-rule:evenodd;fill:#57351D;" d="M68.5,124.4c2.333-1,4.117-2.733,5.35-5.2
		c0.433-0.833,2.4-3.417,5.9-7.75l5.1-6.25l-2.3,4.25c-1.6,3.167-2.5,5.583-2.7,7.25c-0.333,2.667-1.5,6.167-3.5,10.5l-1.95,3.7
		c-1.4,2.733-2.417,4.833-3.05,6.3c-1.5,3.5-2.5,4.5-3,3c-0.033-0.067-0.3-1.083-0.8-3.05c-0.4-1.5-0.8-2.65-1.2-3.45
		c-0.3-0.6-0.867-1.35-1.7-2.25c-0.967-1.067-1.9-2.317-2.8-3.75c-1.1-1.767-1.383-4.467-0.85-8.1c0.167-1.333,0.4-2.267,0.7-2.8
		c0.3-0.6,0.517-0.466,0.65,0.4C63.217,123.367,65.267,125.767,68.5,124.4z"/>
	<path style="fill-rule:evenodd;clip-rule:evenodd;fill:#57351D;" d="M53.85,167.2c0.2,4.934,1.367,7.75,3.5,8.45
		c0.967,0.3,2.633-0.017,5-0.95c1.033-0.4,2.1-2.934,3.2-7.601l1.3-6.899l-0.05,2.2c-0.1,1.899-0.25,4-0.45,6.3
		c-0.233,2.6-0.434,4.366-0.6,5.3c-0.1,0.533-0.567,2.434-1.4,5.7c-0.633,2.5-1.65,3.917-3.05,4.25l-1.95-0.25
		c-2-2.333-3.667-4.5-5-6.5c-0.867-1.267-1.217-3.634-1.05-7.101C53.5,165.367,53.683,164.4,53.85,167.2z"/>
	<path style="fill-rule:evenodd;clip-rule:evenodd;fill:#57351D;" d="M63.85,222.7l0.25,4.399c0.167,3.334,0.25,6.034,0.25,8.101
		c0,2.333-0.167,4.184-0.5,5.55c-0.2,0.867-0.867,2.85-2,5.95c-0.833,2.3-1.9,3.383-3.2,3.25c-1.7-0.667-3.133-1.083-4.3-1.25
		c-1.467-0.2-2.567-1.434-3.3-3.7l-0.7-3.3l1.95,0.45c1.567,0.233,3.083,0.25,4.55,0.05c1.533-0.2,2.583-1.267,3.15-3.2
		c0.167-0.566,0.45-2.5,0.85-5.8L63.85,222.7z"/>
	<path style="fill-rule:evenodd;clip-rule:evenodd;fill:#57351D;" d="M92.25,38.4c0.533,0.367,0.8,0.767,0.8,1.2
		c0,0.233-0.017,0.55-0.05,0.95c0.1,0.567,1.717,0.95,4.85,1.15c5.333,0.333,9.5,0.667,12.5,1l0.75,2.15
		c0.667,1.5,1.417,2.45,2.25,2.85c1.333,0.667,3.667,0.833,7,0.5l-0.85,1.25c-1,0.833-2.55,1.25-4.65,1.25
		c-2.067,0-4.017-0.5-5.85-1.5l-2.15-1.5h-7.5c-1.833,0-3.684-0.483-5.55-1.45c-2.533-1.3-4.017-3.15-4.45-5.55
		c-0.4-2.3-1.184-4.4-2.35-6.3l-1.65-2.2L88.4,35C90.533,36.967,91.817,38.1,92.25,38.4z"/>
	<path style="fill-rule:evenodd;clip-rule:evenodd;fill:#57351D;" d="M231.35,109.65c1.334-1.433,2-3.083,2-4.95
		c0-1.867,0.167-4.267,0.5-7.2l0.5-3.8l2,6c1.334,4.333,2,7.333,2,9c0,2.667,0.334,5.167,1,7.5l-2.5,3.55
		c-2.166,2.434-4.5,3.75-7,3.95c0.667-1.134,1.017-2.25,1.051-3.35c0.133-2.2-1.317-3.217-4.351-3.05c-3,0.167-6.017-0.05-9.05-0.65
		l-3.65-0.95l-7.5-3l2.301-0.1c1.933-0.167,3.833-0.467,5.699-0.9c0.767-0.167,2.4-0.817,4.9-1.95c1.366-0.6,2.733-0.617,4.1-0.05
		c2.334,1,4.334,1.5,6,1.5C230.017,110.867,230.684,110.35,231.35,109.65z"/>
	<path style="fill-rule:evenodd;clip-rule:evenodd;fill:#57351D;" d="M142.35,153.7h-5l-0.5,4c-0.333,3.333-0.5,6.667-0.5,10
		c0,3.1-0.416,8.899-1.25,17.399c-0.833,8.5-1.25,13.034-1.25,13.601c0,1.434,0.567,2.899,1.7,4.399c1.066,1.4,2,2.101,2.8,2.101
		c1,0,3-1.5,6-4.5v8c0,2.267-1.033,4.233-3.1,5.899c-1.533,1.2-3.934,2.4-7.2,3.601c-2.233,0.8-3.233,0.2-3-1.8
		c0.634-2.601,0.867-4.317,0.7-5.15c-0.8-3.967-0.816-9.95-0.05-17.95c0.633-6.633,1.033-10.967,1.2-13
		c0.3-3.866,0.533-7.816,0.699-11.85c0.334-9.2,1.634-15.517,3.9-18.95c1.566-2.367,3.184-3.133,4.85-2.3
		c0.834,0.433,1.084,1.65,0.75,3.65C142.934,151.85,142.684,152.8,142.35,153.7z"/>
	<path style="fill-rule:evenodd;clip-rule:evenodd;fill:#57351D;" d="M136.85,259.2c-0.5,0.434-1.683,1.149-3.55,2.149
		c-1.033,0.534-1.85,1.483-2.45,2.851c-2,4.667-3.333,8-4,10c-0.133,0.399-0.366,0.133-0.699-0.8c-0.334-1-0.551-2.217-0.65-3.65
		c-0.366-4.133,0.417-7.483,2.35-10.05c1.867-2.5,3.851-5.333,5.95-8.5l2.55-4l1.5-16.5l0.9,21.8
		C138.75,255.934,138.116,258.167,136.85,259.2z"/>
	<path style="fill-rule:evenodd;clip-rule:evenodd;fill:#57351D;" d="M163.35,118.7c0.233-0.434,0.967-0.134,2.2,0.9
		c1.5,1.3,3.101,1.667,4.8,1.1c3-1,6.167-2.333,9.5-4l-3.35,4.4c-2.5,3-4.384,4.7-5.65,5.1c-1.233,0.433-2.933,1.733-5.1,3.9
		c-1.1,1.066-2.066,2.1-2.9,3.1c-0.833-0.833-1.433-2.067-1.8-3.7C160.283,126.267,161.05,122.667,163.35,118.7z"/>
	<path style="fill-rule:evenodd;clip-rule:evenodd;fill:#57351D;" d="M95.25,109c-1.9-1.3-2.533-3.25-1.9-5.85l1.5-3.45l-0.5,4
		c-0.333,2.667,1.5,4,5.5,4c0.5,0,2.05-1.367,4.65-4.1c3.033-3.233,5.317-5.367,6.85-6.4c1.867-1.233,5.6-3.434,11.2-6.6l4.4-2.475
		c-1.334,0.792-2.7,1.65-4.1,2.575c-1.833,1.233-3.95,3.25-6.35,6.05c-1.267,1.467-2.65,3.117-4.15,4.95
		c-0.733,0.767-1.733,2.283-3,4.55c-1.233,2.3-2.233,4.45-3,6.45c-0.633,1.667-1.817,3.5-3.55,5.5c-0.867,1-1.683,1.833-2.45,2.5
		c-0.333-2.667-0.833-4.667-1.5-6c-0.4-0.833-1.117-2.034-2.15-3.6L95.25,109z"/>
	<path style="fill-rule:evenodd;clip-rule:evenodd;fill:#57351D;" d="M71.85,83.7c-0.633,1.267-2.067,2.816-4.3,4.65
		c-1.133,0.9-2.2,1.683-3.2,2.35v-16c0.633,4.433,2.2,5.6,4.7,3.5c2.867-3.5,4.8-5.833,5.8-7c1.267-1.467,3.4-3.733,6.4-6.8l4.1-4.2
		l-5.5,7.5c-1.233,1.633-2.75,4.433-4.55,8.4C74.333,78.167,73.183,80.7,71.85,83.7z"/>
	<path style="fill-rule:evenodd;clip-rule:evenodd;fill:#57351D;" d="M124.85,139.2l0.25,2c0.167,1.833,0.25,4,0.25,6.5
		s-0.25,4.133-0.75,4.9c-0.333,0.5-1.083,1.367-2.25,2.6c-0.833,1.233-1.35,2.733-1.55,4.5c-0.133,1-0.283,2.5-0.45,4.5
		c-0.167,0.934-0.333,2.566-0.5,4.899c-0.167,2.034-0.333,3.4-0.5,4.101c-0.2,0.833-1.184,1.25-2.95,1.25l-2.55-0.25l-3-6.5l3,1
		c0.433-0.5,0.833-1.217,1.2-2.15c0.8-1.899,1.15-3.95,1.05-6.149c-0.067-2.2,0.7-4.234,2.3-6.101l2.45-2.1
		c0.833-0.4,1.75-2.684,2.75-6.85L124.85,139.2z"/>
	<path style="fill-rule:evenodd;clip-rule:evenodd;fill:#57351D;" d="M133.35,82.2c5.334-2.667,9.5-5.167,12.5-7.5
		c0.634-0.5,1.934-0.233,3.9,0.8c2.2,1.133,3.9,1.533,5.1,1.2c2.334-0.667,6.167-3,11.5-7l-3.5,4.05
		c-2.666,2.934-4.833,4.917-6.5,5.95c-1.899,1.2-4.183,1.966-6.85,2.3c-2.5,0.333-4.55,0.233-6.15-0.3
		c-1.233-0.4-3.267-0.434-6.1-0.1L133.35,82.2z"/>
	<path style="fill-rule:evenodd;clip-rule:evenodd;fill:#57351D;" d="M191.85,72.2l7.5-4l-1.05,3.65c-0.6,2.5-0.583,3.95,0.05,4.35
		c0.4,0.267,3.634-0.083,9.7-1.05c5.566-0.9,8.167-0.883,7.8,0.05c-0.466,1.167-1.566,2.15-3.3,2.95
		c-1.399,0.633-4.133,1.483-8.2,2.55c-3.033,0.8-5.566,0.95-7.6,0.45c-2.1-0.8-3.9-1.283-5.4-1.45c-1.866-0.2-4.183,0.4-6.949,1.8
		l-3.551,2.2c1-2.333,2.167-4.333,3.5-6c0.767-0.967,1.95-1.95,3.551-2.95C190.066,73.417,191.384,72.566,191.85,72.2z"/>
	<path style="fill-rule:evenodd;clip-rule:evenodd;fill:#57351D;" d="M75.05,185.75c0.067,3.4,0,6.05-0.2,7.95
		c-0.333,3-0.5,6.333-0.5,10c-1.567,0.267-3.017-0.25-4.35-1.55c-2.667-2.601-3.383-7.75-2.15-15.45l-0.1,1.95
		c0.167,1.233,0.867,1.75,2.1,1.55c1.367-0.233,2.583-1.3,3.65-3.2c0.9-1.633,1.35-3.066,1.35-4.3
		C74.85,179.867,74.917,180.884,75.05,185.75z"/>
	<path style="fill-rule:evenodd;clip-rule:evenodd;fill:#4A2D1C;" d="M107.9,284.6l1.45-5.899v3.5c0,2.333-0.083,7.666-0.25,16
		c0,2.866-0.033,4.583-0.1,5.149c-0.167,1.467-0.633,2.434-1.4,2.9c-1.167,0.733-3.25,1.384-6.25,1.95c-3.333,1.666-6.5,3-9.5,4
		c-1.867,0.633-4.65,0.8-8.35,0.5c-4.6-0.5-8.15-0.834-10.65-1c-3.467-0.233-7.667-0.267-12.6-0.101
		c-4.333,0.101-7.65,0.301-9.95,0.601c-3.566,0.934-6.483,1.666-8.75,2.2c-4.233,1-7.15,1.1-8.75,0.3c-1.667-0.834-4.167-2.5-7.5-5
		l-4.5-3.5l1-3l-0.5-5.5l5.5,3.5l3.05,0.45c2.4,0.233,4.533,0.25,6.4,0.05c2.067-0.233,3.567-0.816,4.5-1.75
		c0.5-0.533,1.483-2.117,2.95-4.75c1.033-1.867,1.667-4.601,1.9-8.2v-4.8c3.233,1.866,5.25,0.434,6.05-4.3l0.2-7.7l2,10l1.25,2.649
		c1,2.167,1.917,4.284,2.75,6.351c1.3,3.267,2.117,5.2,2.45,5.8c0.8,1.566,1.983,3.134,3.55,4.7c1.433,1.434,2.9,2.017,4.4,1.75
		c0.9-0.167,2.6-0.584,5.1-1.25c2.133-0.233,3.967-1.084,5.5-2.55c1.4-1.334,2.233-2.817,2.5-4.45l1.85-9.25l3.7,5.399
		c2.733,3.733,4.717,6.017,5.95,6.851c1.367,0.934,3.133,0.983,5.3,0.149c1.767-0.699,3.667-1.916,5.7-3.649
		C105.317,291.467,106.667,288.767,107.9,284.6z"/>
	<path style="fill-rule:evenodd;clip-rule:evenodd;fill:#4A2D1C;" d="M132.15,301.9c3.6,2.066,6.333,3,8.199,2.8
		c2.101-0.233,4.434-2.05,7-5.45c2.4-3.167,3.733-5.85,4-8.05c0.2-1.667,0.351-3.25,0.45-4.75l0.05-1.75l0.551,3.2
		c0.433,2.233,0.75,3.666,0.949,4.3c0.7,2.1,1.2,3.483,1.5,4.149c0.934,2.034,1.934,3.15,3,3.351c1.034,0.2,2.017-0.9,2.95-3.3
		l1.05-3.7l0.5,3c0.334,2,0.284,5.116-0.149,9.35c-3.233,0.767-5.684,1.283-7.351,1.55c-0.6,0.101-3.133,0.967-7.6,2.601
		c-4.533,1.633-7.833,2.633-9.9,3c-2.699,0.5-5.399,0.649-8.1,0.45c-2.667-0.2-4.633-0.684-5.9-1.45
		c-1.033-0.634-2.434-1.384-4.2-2.25l-2.35-1.15l7.25,0.5l2.8-4.1c0-2.334,0.167-4.167,0.5-5.5L132.15,301.9z"/>
	<path style="fill-rule:evenodd;clip-rule:evenodd;fill:#4A2D1C;" d="M100.4,181.9l1.95-7.2v7c0,9,0.167,15.667,0.5,20
		c0.3,3.7,0.383,7.35,0.25,10.95c-0.133,4.267-0.55,7.783-1.25,10.55c-0.767,3.033-1.467,5.184-2.1,6.45
		c-0.7,1.3-1.667,2.316-2.9,3.05c-1.2,0.733-2.867,0.899-5,0.5c-2-0.367-4.167-1.2-6.5-2.5c-1.867-1.033-3.684-2.684-5.45-4.95
		l-2.05-3.05l2.55,1.5c1.934,1.167,3.417,2.167,4.45,3c1.133,0.934,2.717,1.399,4.75,1.399c1.733,0,3.316-0.283,4.75-0.85
		c1.133-0.467,2.133-2.417,3-5.85c0.7-2.767,1.2-5.967,1.5-9.601c0.2-2.5,0.267-6.133,0.2-10.899l-0.2-6.45
		C98.65,191.717,99.167,187.367,100.4,181.9z"/>
	<path style="fill-rule:evenodd;clip-rule:evenodd;fill:#4A2D1C;" d="M27.35,236.25c-0.5,3.767-1.167,6.583-2,8.45
		c-1.1,2.467-2.883,4.783-5.35,6.95c-2.767,2.366-5.317,3.55-7.65,3.55c-2.434,0-4.283-0.4-5.55-1.2c-1.2-0.733-2.183-2-2.95-3.8
		l-1.5-3.5l1.05,2c0.934,1.333,1.917,2,2.95,2L9,251.75c2.167,0.6,4.283,0.583,6.35-0.05c2.167-0.634,3.717-1.75,4.65-3.351
		c1.233-2.933,2.517-5.816,3.85-8.649l4-8.5L27.35,236.25z"/>
	<path style="fill-rule:evenodd;clip-rule:evenodd;fill:#4A2D1C;" d="M57.85,245.7c1.867,0.2,3.517-1.483,4.95-5.05l1.55-5.45
		l-2.5,11.5c-0.4,1.866-1.85,2.434-4.35,1.7l-3.65-1.7l-3.5-5l3,1.899C55.517,244.9,57.017,245.6,57.85,245.7z"/>
	<path style="fill-rule:evenodd;clip-rule:evenodd;fill:#4A2D1C;" d="M52.35,207.225c0,0.155,0,0.313,0,0.476
		c0,1.667-0.667,4.25-2,7.75c-0.667,1.767-1.333,3.35-2,4.75c-0.733,0.6-1.667,1.116-2.8,1.55c-2.267,0.934-4.333,1.083-6.2,0.45
		c-1.867-0.634-3.6-1.983-5.2-4.05l-1.8-2.95l2.9,2c2.333,1.333,4.533,2,6.6,2c2.1,0,4.15-1,6.15-3l2.35-3
		c0.2-0.833,0.816-2.684,1.85-5.55L52.35,207.225c0.045-1.418,0.279-2.442,0.7-3.074l0.65-0.551L52.35,207.225z"/>
	<path style="fill-rule:evenodd;clip-rule:evenodd;fill:#4A2D1C;" d="M101.85,113.7c-1.967,0.1-3.667-0.284-5.1-1.15
		c-0.5-0.333-0.75-0.616-0.75-0.85c0-0.2,0.3-0.25,0.9-0.15c1.633,0.267,3.45-0.3,5.45-1.7l2.5-2.15
		c0.433-0.833,2.15-2.583,5.15-5.25l4.35-3.75l-4.5,7c-1.5,2.333-2.85,4.517-4.05,6.55C105.1,113.117,103.783,113.6,101.85,113.7z"
		/>
	<path style="fill-rule:evenodd;clip-rule:evenodd;fill:#4A2D1C;" d="M69.85,127.7c1.667-0.2,3.583-1.767,5.75-4.7l2.75-4.3
		l-0.85,3.75c-1,2.833-2.55,5.083-4.65,6.75c-2.233,1.767-3.934,2.616-5.1,2.55c-0.6-0.033-1.567-0.55-2.9-1.55
		c-0.833-0.634-1.75-1.817-2.75-3.55l-1.25-2.45l2.55,2C65.533,127.467,67.683,127.967,69.85,127.7z"/>
	<path style="fill-rule:evenodd;clip-rule:evenodd;fill:#4A2D1C;" d="M137.25,129.8c0.9,0,1.733-0.833,2.5-2.5
		c1.233-2.833,2.2-4.75,2.9-5.75c1.267-1.8,2.85-3.8,4.75-6l2.449-2.7l-3.35,5.5c-2.333,3.966-3.816,6.6-4.45,7.9
		c-2.8,5.9-4.566,8.117-5.3,6.65c-0.4-0.8-0.783-1.816-1.15-3.05l-0.175-0.625C135.761,129.608,136.369,129.8,137.25,129.8z"/>
	<path style="fill-rule:evenodd;clip-rule:evenodd;fill:#4A2D1C;" d="M139.35,210.2c1-0.333,2.334-2.167,4-5.5l1,4
		c0.434,1.767-0.5,3.017-2.8,3.75c-1.566,0.5-3.633,0.75-6.2,0.75c-1.466,0-2.399-1.667-2.8-5l-0.2-5l0.5,2.5
		c0.301,1.434,1.017,2.633,2.15,3.6C136.333,210.4,137.783,210.7,139.35,210.2z"/>
	<path style="fill-rule:evenodd;clip-rule:evenodd;fill:#4A2D1C;" d="M154,260.4c2.434-1.4,3.65-3.033,3.65-4.9l-0.15-9.5l0.95,6.8
		c0.6,4.8,0.899,7.934,0.899,9.4v15.5c0,2.333,0.834,7.333,2.5,15c-1.666-3.667-3.166-6.167-4.5-7.5l-2-2c0.667-3,1.167-6,1.5-9
		c0.2-1.867,0.184-4.184-0.05-6.95l-0.45-3.55c-1,0.1-2,0.083-3-0.05c-2-0.2-3-0.767-3-1.7C151.583,261.617,152.8,261.1,154,260.4z"
		/>
	<path style="fill-rule:evenodd;clip-rule:evenodd;fill:#4A2D1C;" d="M162.7,155.35v3c-0.066,2.534-0.25,5.15-0.55,7.851
		c-0.301,3.033-1.534,6.05-3.7,9.05c-1.867,2.634-4.066,4.783-6.601,6.45c-1.866,1.267-3.183,1.899-3.949,1.899l-0.551-0.399
		c-1.233,1-2.183,2.55-2.85,4.649l-0.35-1.85c0-0.866,0.333-1.866,1-3c0.399-0.667,1.3-1.383,2.699-2.15
		c1.9-1.033,2.9-1.583,3-1.649c0.733-0.566,2.134-2.066,4.2-4.5c2.2-2.566,3.684-4.517,4.45-5.851c0.7-1.199,1.434-3.8,2.2-7.8
		L162.7,155.35z"/>
	<path style="fill-rule:evenodd;clip-rule:evenodd;fill:#4A2D1C;" d="M171.1,146.8c-1.233,1.667-2.649,3.067-4.25,4.2
		c-0.733,0.5-2.1,1.7-4.1,3.6c-1.267,1.167-2.35,1.8-3.25,1.9c-1,0.133-2.116-0.35-3.35-1.45c-0.801-0.7-1.4-1.383-1.801-2.05
		c-0.666-0.2-0.949-0.633-0.85-1.3c0.066-0.4,0.733-1.767,2-4.1l1.85-3.4l-0.699,3c-0.134,0.733-0.084,1.483,0.149,2.25
		c0.233,0.733,0.517,1.15,0.851,1.25c0.199,0.033,0.933-0.15,2.199-0.55c1.4-0.433,2.5-0.65,3.301-0.65c1.066,0,1.833-0.066,2.3-0.2
		c0.366-0.066,1-0.333,1.899-0.8c1.101-0.566,3.101-2.783,6-6.65l-0.35,1.5C172.8,144.25,172.167,145.4,171.1,146.8z"/>
	<path style="fill-rule:evenodd;clip-rule:evenodd;fill:#4A2D1C;" d="M171.9,131.75c1.466-0.7,2.783-1.05,3.949-1.05l11-0.35
		c-0.233,0.066-0.55,0.167-0.949,0.3c-0.801,0.333-1.65,0.784-2.551,1.35c-1.533,0.934-3.133,2.066-4.8,3.4
		c-2.166,1.7-3.434,2.983-3.8,3.85l-0.525,1.35c0.017-0.083,0.025-0.167,0.025-0.25c0.033-0.7-0.333-1.367-1.1-2
		c-1-0.833-1.784-1.4-2.351-1.7c-0.733-0.367-1.616-0.583-2.649-0.65c-0.9-0.066-1.834,0.033-2.801,0.3l-1.199,0.4
		c0.666-0.534,1.35-1.067,2.05-1.6c1.399-1.1,2.2-1.684,2.399-1.75C169.267,133.083,170.366,132.55,171.9,131.75z"/>
	<path style="fill-rule:evenodd;clip-rule:evenodd;fill:#4A2D1C;" d="M225.75,129.25c0.634,0.267,1.667,0.017,3.1-0.75l-2,4.35
		c-0.366,0.767-0.916,1.583-1.649,2.45c-0.733,0.867-1.351,1.384-1.851,1.55c-0.466,0.167-1.083-0.1-1.85-0.8
		c-0.7-0.633-1.2-1.25-1.5-1.85c-0.2-0.4-0.95-1.217-2.25-2.45L215.9,130l4.5,0.75C221.967,131.017,223.75,130.517,225.75,129.25z"
		/>
	<path style="fill-rule:evenodd;clip-rule:evenodd;fill:#4A2D1C;" d="M149.65,206.2c1.233,0.2,2.3-0.2,3.199-1.2v2.25
		c-0.033,1.634-0.149,2.717-0.35,3.25c-0.267,0.7-0.533,1.217-0.8,1.55c-0.3,0.334-0.533,0.384-0.7,0.15
		c-1-1.134-1.717-1.967-2.15-2.5c-0.3-0.367-0.75-1.25-1.35-2.65l-0.85-2.05l0.85,0.45C148.2,205.816,148.917,206.066,149.65,206.2z
		"/>
	<path style="fill-rule:evenodd;clip-rule:evenodd;fill:#4A2D1C;" d="M153.85,235l0.65-4.15c-0.033,0.634,0.017,2.268,0.15,4.9
		c0.066,2.4-0.101,3.767-0.5,4.1c-0.334,0.268-0.834,0.25-1.5-0.05c-0.9-0.433-1.784-0.583-2.65-0.45
		c-0.9,0.134-1.45-0.1-1.65-0.699v-0.95h1.801C151.15,237.7,152.384,236.8,153.85,235z"/>
	<path style="fill-rule:evenodd;clip-rule:evenodd;fill:#57351D;" d="M38,185.7l-3.4,2c-2.267,1.667-3.467,3.333-3.6,5
		c-0.217,2.476-0.617,5.143-1.2,8c-0.016-0.054-0.033-0.104-0.05-0.15c-0.233-0.566-1.033-0.85-2.4-0.85
		c-0.434,0-1.867-0.167-4.3-0.5c-1.4-0.2-2.417-0.033-3.05,0.5c-0.633,0.5-0.55,0.167,0.25-1c0.796-1.135,1.321-1.918,1.575-2.351
		c0.405-0.164,1.346-0.831,2.825-2c1.533-1.232,2.333-2.149,2.4-2.75c0.034-0.5,1.233-1.583,3.6-3.25c3.9-2.433,6.467-4.05,7.7-4.85
		c1.9-1.2,3.117-2.467,3.65-3.8l2.35-5.7l-0.45,5.1C43,182.667,41.033,184.867,38,185.7z M21.825,196.35
		c-0.16,0.063-0.235,0.045-0.225-0.05c0-0.133,0.133-0.233,0.4-0.3C21.981,196.064,21.923,196.181,21.825,196.35z"/>
	<path style="fill-rule:evenodd;clip-rule:evenodd;fill:#57351D;" d="M35.65,249.7c1.267-0.566,2.533-2.517,3.8-5.851L41,239
		l-0.35,3.7c-0.3,2.633-0.517,4.3-0.65,5c-0.2,0.967-0.717,2.149-1.55,3.55c-1,1.667-2.267,3.25-3.8,4.75
		c-1.333,1.367-2.316,1.934-2.95,1.7c-0.8-0.566-1.7-0.9-2.7-1c-1.233-0.134-2.167-0.566-2.8-1.3l-0.55-1.051
		c0.667,0.667,2.167,0.268,4.5-1.199C33.717,250.884,35.55,249.733,35.65,249.7z"/>
	<path style="fill-rule:evenodd;clip-rule:evenodd;fill:#57351D;" d="M66.2,254.5c2.6-0.467,4.316-0.633,5.15-0.5
		c0.833,0.134,1.917-1.366,3.25-4.5l1.75-4.8v10.649c0,1.233-0.283,1.983-0.85,2.25c-0.433,0.2-1.467,0.2-3.1,0
		c-1.233-0.133-3.25-0.583-6.05-1.35l-3.85-1.05L66.2,254.5z"/>
	<path style="fill-rule:evenodd;clip-rule:evenodd;fill:#57351D;" d="M102.35,133c-0.434,0.566-1.317,1.667-2.65,3.3
		c-1.233,1.5-2.133,2.733-2.7,3.7c-1.3,2.267-3.3,5.05-6,8.35c-0.9,1.1-3.45,3.55-7.65,7.35V151c-1.833-0.367-3.2-1.117-4.1-2.25
		c-0.7-0.833-1.267-2.333-1.7-4.5c-0.433-2.133-0.233-2.6,0.6-1.4c1.767,2.566,3.75,3.233,5.95,2c1.2-0.8,2.1-1.4,2.7-1.8
		c1.1-0.7,2.05-1.05,2.85-1.05c1.633,0,2.6-0.184,2.9-0.55c0.2-0.733,0.567-1.434,1.1-2.1c1.867-2.2,3.9-4.517,6.1-6.95
		c3.4-3.767,5.6-6,6.6-6.7c1-0.733,0.783,0.066-0.65,2.4C104.5,130.066,103.383,131.7,102.35,133z"/>
	<path style="fill-rule:evenodd;clip-rule:evenodd;fill:#57351D;" d="M104.8,66.9c2.4-1,5.35-1.966,8.85-2.9
		c2.633-0.7,6.717-0.9,12.25-0.6c2.733,0.133,5.216,0.333,7.449,0.6c-7.8,0.667-12.133,1-13,1s-2.783,0.316-5.75,0.95
		c-3.467,0.7-6.55,1.5-9.25,2.4c-2.033,0.667-3.233,1.6-3.6,2.8c-0.633,1.833-2.1,3.684-4.4,5.55c-2.9,2.366-5.267,4.066-7.1,5.1
		c-0.933,0.534-1.567,0.833-1.9,0.9c-0.467-1.567-0.467-3.9,0-7c0.267-1.934,1.017-3.667,2.25-5.2c1.4-1.434,2.316-2.483,2.75-3.15
		l-0.5,2.7c-0.233,1.934-0.067,3.25,0.5,3.95c0.566,0.767,1.617,0.566,3.15-0.6c1.267-0.966,2.317-2.1,3.15-3.4
		C100.283,69.066,102,68.033,104.8,66.9z"/>
	<path style="fill-rule:evenodd;clip-rule:evenodd;fill:#57351D;" d="M57.65,84l-0.2,2.8c-0.267,2.4-0.75,4.917-1.45,7.55
		s-2.133,5.483-4.3,8.55c-1.1,1.534-2.117,2.8-3.05,3.8c-0.667-1.333-1.1-3.117-1.3-5.35c-0.3-2.4-0.483-4.083-0.55-5.05
		c-0.133-1.633,0.05-2.283,0.55-1.95c0.333,0.233,0.9,0.917,1.7,2.05c0.767,0.867,1.417,0.967,1.95,0.3c0.533-0.7,1.8-3.034,3.8-7
		L57.65,84z"/>
	<path style="fill-rule:evenodd;clip-rule:evenodd;fill:#57351D;" d="M65.35,56c1.533-1.667,3.867-2.667,7-3
		c1.6-0.167,3.033-0.167,4.3,0C74.217,53.467,72,54.133,70,55c-1.3,0.566-2.25,1.233-2.85,2c-0.367,0.467-0.967,1.367-1.8,2.7
		c-0.4,0.533-0.817,1.283-1.25,2.25c-0.3,0.6-0.883,1.283-1.75,2.05c-1.067,0.9-1.883,1.267-2.45,1.1c-0.4-0.133-0.816-0.6-1.25-1.4
		c-0.267-0.567-0.183-1.85,0.25-3.85L59.65,57c0,0.934,0.483,1.434,1.45,1.5C62.3,58.6,63.717,57.767,65.35,56z"/>
	<path style="fill-rule:evenodd;clip-rule:evenodd;fill:#57351D;" d="M43.65,48.35c0,0.867,0.833,1.383,2.5,1.55
		c1.3,0.133,2.367,0.067,3.2-0.2l13.3-4.35l-13.65,8c-2.233,0.433-3.9,0.55-5,0.35C42.867,53.467,42.75,51.684,43.65,48.35z"/>
	<path style="fill-rule:evenodd;clip-rule:evenodd;fill:#57351D;" d="M77.65,18.7c2.185-0.457,6.918-0.69,14.2-0.7
		c-1.113,0.029-2.063,0.146-2.85,0.35c-0.933,0.333-1.933,0.683-3,1.05c-2.1,0.733-4.767,1.5-8,2.3c-3.5,0.866-4.783,0.667-3.85-0.6
		C75.117,19.767,76.283,18.967,77.65,18.7z"/>
	<path style="fill-rule:evenodd;clip-rule:evenodd;fill:#57351D;" d="M156.55,39.6c0.867,0.033,1.8,0.117,2.8,0.25
		c0.567,0.066,2.517,0.417,5.851,1.05c2.934,0.534,4.649,0.8,5.149,0.8h4c-8.666,1.333-14.899,1.933-18.699,1.8
		c-2.601-0.066-5.301,0.217-8.101,0.85c-2.399,0.533-4.25,1.167-5.55,1.9c-1.566,0.9-3.566,2.25-6,4.05c1.1-1.333,2.333-2.7,3.7-4.1
		c2.733-2.767,4.717-4.284,5.95-4.55c0.633-0.133,1.816-0.55,3.55-1.25c1.267-0.5,2.533-0.75,3.8-0.75
		C154.134,39.65,155.316,39.633,156.55,39.6z"/>
	<path style="fill-rule:evenodd;clip-rule:evenodd;fill:#57351D;" d="M209.35,48.35c1.801,0,4.834,1.117,9.101,3.35
		c2.166,1.1,4.133,2.2,5.899,3.3c-2.666-0.2-6.333-0.867-11-2c-2.8-0.667-4.75-0.917-5.85-0.75c-2.4,0.3-3.684,0.45-3.85,0.45
		c-1.801,0-5.717,1.05-11.75,3.15L183.35,59l7.65-6c0.6-0.367,1.4-0.816,2.4-1.35c2-1.066,3.983-1.95,5.949-2.65
		c1.9-0.667,3.517-0.983,4.851-0.95C205.066,48.083,206.783,48.184,209.35,48.35z"/>
	<path style="fill-rule:evenodd;clip-rule:evenodd;fill:#57351D;" d="M241,76.35c1.1-0.367,1.8-1.2,2.1-2.5
		c0.2-1,0.5-1.383,0.9-1.15c0.967,0.533,2.283,0.15,3.95-1.15l2.2-2.1l0.149,1.9c0,1.8-0.217,4.017-0.649,6.65
		c-0.4,2.633-1.667,4.233-3.801,4.8c-2.199,0.1-3.466,0.233-3.8,0.4c-0.434,0.267-0.783,0.866-1.05,1.8
		c-0.233,0.767-0.35,1.55-0.35,2.35c0,0.667-0.634,1.15-1.9,1.45c-1.233,0.3-2.7,0.367-4.4,0.2c-1.399-0.133-2.883-0.117-4.449,0.05
		l-1.9,0.3l4.35-2.35c1.534-1.1,2.301-2.1,2.301-3c0-0.533-0.667-1.367-2-2.5l-2-1.5l-9.301-1.3l4.25-0.5
		c3.334-0.333,6.25-0.5,8.75-0.5c2.467,0,3.95-0.1,4.45-0.3C239.167,77.267,239.9,76.917,241,76.35z"/>
	<path style="fill-rule:evenodd;clip-rule:evenodd;fill:#704225;" d="M44.65,119l1.7,3.7c-0.9,0.866-1.8,1.3-2.7,1.3
		c-0.467,0-1,0.283-1.6,0.85c-0.9,0.833-1.7,1.45-2.4,1.85c-1.533,0.866-2.867,1.417-4,1.65c0.067-0.434,0.217-0.983,0.45-1.65
		c0.533-1.333,1.283-2.567,2.25-3.7C39.85,121.267,41.95,119.934,44.65,119z"/>
	<path style="fill-rule:evenodd;clip-rule:evenodd;fill:#704225;" d="M35,139.35c0.533,0.966,2.083,1.767,4.65,2.4
		c1.3,0.3,2.533,0.5,3.7,0.6c-0.833,0.267-1.7,0.6-2.6,1c-1.767,0.767-2.8,1.433-3.1,2c-0.433,0.9-0.517,1.9-0.25,3l-4.05,3.35
		c-1.333,1.1-3.333,3.65-6,7.649c0.2-2.666,0.533-4.45,1-5.35c0.267-0.566,0.783-1.4,1.55-2.5L31,150l1.35-5.65
		c0.267-1.233,0.783-2.434,1.55-3.6L35,139.35z"/>
	<path style="fill-rule:evenodd;clip-rule:evenodd;fill:#704225;" d="M65.35,109.35c0.5-0.833,1.867-2.167,4.1-4
		c2.2-1.833,4.05-3.167,5.55-4c1.267-0.7,3.2-1.25,5.8-1.65c1.3-0.167,2.483-0.284,3.55-0.35l-2.5,1.9c-1.9,1.566-3.4,3.05-4.5,4.45
		c-0.867,1.066-2.017,2.883-3.45,5.45c-1.467,2.667-2.767,4.733-3.9,6.2c-1.4,1.8-2.55,3.017-3.45,3.65
		c-0.433,0.3-0.733,0.417-0.9,0.35c-0.867-0.667-1.417-1.883-1.65-3.65c-0.133-1.134,0.05-2.867,0.55-5.2L65.35,109.35z"/>
	<path style="fill-rule:evenodd;clip-rule:evenodd;fill:#704225;" d="M111.6,86.6c3.033-0.667,5.833-1.083,8.4-1.25
		c-1,0.267-2.1,0.6-3.3,1c-2.4,0.767-4.083,1.433-5.05,2c-0.767,0.433-2.517,1.3-5.25,2.6c-2.6,1.433-4.517,2.9-5.75,4.4
		c-1.133,1.4-2.05,2.783-2.75,4.15c-0.6,1.233-1.017,1.967-1.25,2.2c-0.433,0.433-0.667,0.116-0.7-0.95
		C95.983,99.383,96,98.467,96,98c0-0.633,0.333-1.566,1-2.8c0.667-1.2,1.333-2.15,2-2.85C101.367,89.85,105.567,87.934,111.6,86.6z"
		/>
	<path style="fill-rule:evenodd;clip-rule:evenodd;fill:#704225;" d="M106.65,58.7c2.934-0.567,5.6-0.733,8-0.5
		c1.2,0.1,2.1,0.267,2.7,0.5c-1.133,0-2.8,0.216-5,0.65c-1.4,0.267-4.15,1.066-8.25,2.4l-5.75,1.95c0.233-0.6,0.75-1.267,1.55-2
		C101.5,60.233,103.75,59.233,106.65,58.7z"/>
	<path style="fill-rule:evenodd;clip-rule:evenodd;fill:#704225;" d="M66.65,71.7c1.4-3.2,3.883-5.95,7.45-8.25L79,61l-2.9,2.45
		c-2.033,1.767-3.4,3.066-4.1,3.9c-0.533,0.633-1.1,1.8-1.7,3.5c-0.6,1.633-1.25,2.8-1.95,3.5c-0.833,0.833-1.367,0.65-1.6-0.55
		L66.65,71.7z"/>
	<path style="fill-rule:evenodd;clip-rule:evenodd;fill:#704225;" d="M64.35,50c1.1-0.7,2.6-1.233,4.5-1.6
		c0.933-0.2,1.767-0.333,2.5-0.4l-2.4,1.15c-1,0.467-2.284,1.367-3.85,2.7c-0.8,0.667-1.5,1.283-2.1,1.85
		c-0.233-0.333-0.35-0.733-0.35-1.2C62.65,51.533,63.217,50.7,64.35,50z"/>
	<path style="fill-rule:evenodd;clip-rule:evenodd;fill:#704225;" d="M48.35,44.7l8-0.7c-0.5,0.167-1.083,0.4-1.75,0.7
		c-1.333,0.633-2.417,1.3-3.25,2c-0.934,0.767-2.1,1.1-3.5,1c-1.3-0.1-2.133-0.434-2.5-1c-0.3-0.4,0.117-0.85,1.25-1.35
		C47.167,45.083,47.75,44.867,48.35,44.7z"/>
	<path style="fill-rule:evenodd;clip-rule:evenodd;fill:#704225;" d="M37.8,61.5c1.6-0.2,2.333-0.033,2.2,0.5
		c-0.1,0.467-0.15,1.15-0.15,2.05c0,1.434-0.067,2.867-0.2,4.3c-0.133,1.767-0.783,2.583-1.95,2.45c-1.467-0.533-2.483-0.8-3.05-0.8
		c-0.733,0-1.217-0.316-1.45-0.95c-0.133-0.366-0.2-0.933-0.2-1.7c0-0.9,0.783-2.684,2.35-5.35L37.8,61.5z"/>
	<path style="fill-rule:evenodd;clip-rule:evenodd;fill:#704225;" d="M32,78l4.35,3.7L34,83.2c-1.9,1.333-3.683,2.833-5.35,4.5
		c-1.574,1.574-2.566,2.599-2.975,3.075l0.675-7.425C28.783,80.917,30.667,79.133,32,78z"/>
	<path style="fill-rule:evenodd;clip-rule:evenodd;fill:#704225;" d="M87,132.7l15.35-11l-9.7,9.3
		c-0.767,0.767-1.533,2.083-2.3,3.95c-0.934,2.3-1.6,3.767-2,4.4c-0.7,1.1-2.133,1.6-4.3,1.5l-3.05-0.5
		c-0.667-1.333-0.883-2.333-0.65-3c0.1-0.367,1-1.067,2.7-2.1C85.15,133.983,86.467,133.133,87,132.7z"/>
	<path style="fill-rule:evenodd;clip-rule:evenodd;fill:#704225;" d="M141.55,108.65c0.5-0.733,1.95-1.517,4.351-2.35
		c1.199-0.433,2.35-0.783,3.449-1.05l-3.3,2.7c-2.267,2.033-3.566,3.583-3.899,4.65c-0.534,1.767-1.601,4.05-3.2,6.85
		c-0.4-0.7-0.467-1.583-0.2-2.65C139.85,112.566,140.783,109.85,141.55,108.65z"/>
	<path style="fill-rule:evenodd;clip-rule:evenodd;fill:#704225;" d="M58.65,152.7l0.85,2.8c0.567,1.934,0.85,3.1,0.85,3.5
		c0,0.7-0.667,3.483-2,8.35c-0.4,1.534-1.083,2.717-2.05,3.551c-0.466,0.433-0.9,0.699-1.3,0.8c-0.9-1.566-1.283-3.066-1.15-4.5
		c0.066-0.9,0.883-3.583,2.45-8.05L58.65,152.7z"/>
	<path style="fill-rule:evenodd;clip-rule:evenodd;fill:#704225;" d="M32.35,179.7c0.7-0.7,2.233-1.7,4.6-3l3.4-1.7l-0.45,1.25
		c-0.4,1-0.816,1.917-1.25,2.75c-0.4,0.767-1.617,1.833-3.65,3.2c-2.667,1.733-4.217,2.783-4.65,3.149
		c-1.567,1.334-4.467,4.45-8.7,9.351l5.7-9.7C29.75,182.367,31.417,180.6,32.35,179.7z"/>
	<path style="fill-rule:evenodd;clip-rule:evenodd;fill:#704225;" d="M70,181l1.1,0.4c0.667,0.5,0.85,1.366,0.55,2.6
		c-0.267,1.267-0.95,2.316-2.05,3.15c-0.567,0.399-1.1,0.683-1.6,0.85c0.067-0.833,0.2-1.75,0.4-2.75
		C68.767,183.25,69.3,181.833,70,181z"/>
	<path style="fill-rule:evenodd;clip-rule:evenodd;fill:#704225;" d="M48.65,193.35c0,0.634-0.517,2.233-1.55,4.801
		c-1,2.433-2.033,4.717-3.1,6.85c-0.967,1.967-1.983,3.283-3.05,3.95c-1,0.6-2.767,1.066-5.3,1.399c-2.066,0.268-3.733-0.267-5-1.6
		l-1.3-2.05c1.333-2.667,2.55-5,3.65-7c1.367-2.467,4.483-5.25,9.35-8.351l5.3-4l0.5,2.5C48.483,191.617,48.65,192.783,48.65,193.35
		z"/>
	<path style="fill-rule:evenodd;clip-rule:evenodd;fill:#704225;" d="M13,212l6-7.3l0.7,2.35c0.5,1.733,0.816,2.95,0.95,3.65
		c0.233,1.1,1.567,2.434,4,4l-2.5,2.6c-1.767,1.967-2.933,3.434-3.5,4.4c-0.367,0.633-1.333,3-2.9,7.1
		c-1.533,4.033-2.667,6.667-3.4,7.9s-1.85,2.55-3.35,3.95c-1.5,1.399-2.383,2.3-2.65,2.699c-0.4,0.7-1.184,0.4-2.35-0.899
		l-1.65-2.101c0.867-9.333,1.867-15.449,3-18.35c0.633-1.633,1.783-3.333,3.45-5.1C10.967,214.566,12.367,212.934,13,212z"/>
	<path style="fill-rule:evenodd;clip-rule:evenodd;fill:#704225;" d="M35,234.7l1.1,1.45c0.667,1.166,0.85,2.233,0.55,3.199
		c-0.2,0.768-0.483,1.884-0.85,3.351c-0.433,1.399-1.15,2.95-2.15,4.649c-0.967,1.667-2.2,3-3.7,4c-0.733,0.5-1.383,0.834-1.95,1
		c0.233-3.1,0.683-5.883,1.35-8.35c0.433-1.6,1.133-3.1,2.1-4.5C31.483,239.4,32.667,237.8,35,234.7z"/>
	<path style="fill-rule:evenodd;clip-rule:evenodd;fill:#704225;" d="M56.65,222l2.7-6.65l0.35,2c0.2,1.434,0.3,2.434,0.3,3
		c0,0.5-0.45,1.884-1.35,4.15c-1.2,3.134-1.967,5.2-2.3,6.2c-0.434,1.333-0.65,2.55-0.65,3.649c0,1.101-0.233,2.317-0.7,3.65
		c-0.567,1.667-1.35,2.167-2.35,1.5l-1.3-1.5c-0.467-1.1-0.583-3.2-0.35-6.3c0.133-1.967,0.733-3.667,1.8-5.101
		C54.367,224.867,55.65,223.333,56.65,222z"/>
	<path style="fill-rule:evenodd;clip-rule:evenodd;fill:#704225;" d="M70.65,242.7c-3.033,0.833-3.783,0.133-2.25-2.101l3.25-3.6
		l0.7,2.7c0.433,2,0.65,3.55,0.65,4.649c0,1.134-0.2,2.184-0.6,3.15c-0.2,0.566-0.55,1.3-1.05,2.2c-0.333,0.633-1.3,1.133-2.9,1.5
		c-1.567,0.399-2.267,0.333-2.1-0.2c0.133-0.4,0.883-1.9,2.25-4.5L70.65,242.7z"/>
	<path style="fill-rule:evenodd;clip-rule:evenodd;fill:#704225;" d="M120.7,186c1.533-5.267,2.3-7.7,2.3-7.3l-0.35,11.649l0.55,5.9
		c0.4,4.367,0.667,7.733,0.8,10.1c0.133,2.367-0.283,4.95-1.25,7.75c-0.5,1.434-1.083,2.851-1.75,4.25
		c-0.233,0.667-1.783,1.551-4.65,2.65l-1-3l1.3-10.65c1.133-6.232,1.7-10.683,1.7-13.35C119.117,191.3,119.9,188.634,120.7,186z"/>
	<path style="fill-rule:evenodd;clip-rule:evenodd;fill:#704225;" d="M132.65,236.35l3-8.649l-0.051,2.5
		c-0.033,2-0.116,3.833-0.25,5.5c-0.166,1.833-1.083,4.066-2.75,6.7c-1.433,2.3-2.75,3.949-3.949,4.949
		c-0.834,0.7-1.801,2.9-2.9,6.601c-0.533,1.866-1,3.667-1.4,5.399c-0.233-1.333-0.35-2.666-0.35-4c0-1.066,0.367-2.6,1.1-4.6
		c0.733-2.167,1.584-3.967,2.551-5.4c0.833-1.232,1.916-3.1,3.25-5.6L132.65,236.35z"/>
	<path style="fill-rule:evenodd;clip-rule:evenodd;fill:#704225;" d="M89,165.7c0.433-2.367,1.733-4.2,3.9-5.5L96,159l-0.4,5.8
		c-0.333,4.067-0.65,6.584-0.95,7.55c-0.233,0.834-1.233,2.867-3,6.101c-2.133,3.866-3.467,6.383-4,7.55
		c-1.333,2.9-4.433,7.684-9.3,14.35c-0.267,0.4-0.3-0.216-0.1-1.85c0.267-2.233,0.4-3.5,0.4-3.8c0-0.634,0.767-2.533,2.3-5.7
		c2.133-4.4,3.483-7.283,4.05-8.65C86.6,176.483,87.933,171.6,89,165.7z"/>
	<path style="fill-rule:evenodd;clip-rule:evenodd;fill:#704225;" d="M86.65,253.35l5.35,1.9c3.567,1.566,5.35,3.05,5.35,4.45
		c0,1.133-0.05,2.55-0.15,4.25c-0.133,1.733-0.2,3.083-0.2,4.05c0,1.267-1.817,2.2-5.45,2.8c-2.2,0.367-4.267,0.55-6.2,0.55
		c-0.667,0-1.9-1.216-3.7-3.649c-0.667-2.233-0.883-3.684-0.65-4.351C81.3,262.483,83.183,259.15,86.65,253.35z"/>
	<path style="fill-rule:evenodd;clip-rule:evenodd;fill:#704225;" d="M32.65,261.7l7-2l-0.05,4.149
		c-0.133,3.434-0.55,6.817-1.25,10.15c-0.733,3.533-3,5.8-6.8,6.8c-2.3,0.634-5.816,0.816-10.55,0.55
		c-2.767-0.133-4.367-0.283-4.8-0.449l0.15-0.2c0.667-2.467,1-4.25,1-5.351c0-0.699,1.5-2.466,4.5-5.3l4.5-4.05
		C28.783,265.134,30.883,263.7,32.65,261.7z"/>
	<path style="fill-rule:evenodd;clip-rule:evenodd;fill:#704225;" d="M99.4,28.35c-2.133,0.667-3.933,1.216-5.4,1.65
		c-1.8,0.566-2.733,0.566-2.8,0l0.45-1c0.233-0.867,1.233-1.967,3-3.3c1.267-0.934,2.934-1.8,5-2.6c1.867-0.7,3.533-1.167,5-1.4
		c5.2-0.833,9.1,0.05,11.7,2.65l5.3,5.35c-4-0.667-7-1.45-9-2.35c-1.167-0.534-2.566-0.65-4.2-0.35c-2.434,0.467-3.917,0.7-4.45,0.7
		C102.567,27.7,101.033,27.917,99.4,28.35z"/>
	<path style="fill-rule:evenodd;clip-rule:evenodd;fill:#704225;" d="M164.45,38.85c2.333,0.966,4.3,1.917,5.899,2.85
		c-2.166-0.6-4.633-1.2-7.399-1.8c-5.566-1.167-9.884-1.683-12.95-1.55c-3.2,0.167-6.467,0.933-9.8,2.3c-2.4,1-4.25,2.017-5.55,3.05
		L130.35,47l3.7-4.9l6-3.05c4.733-2.033,8.834-3.05,12.3-3.05C155.816,36,159.85,36.95,164.45,38.85z"/>
	<path style="fill-rule:evenodd;clip-rule:evenodd;fill:#704225;" d="M102.2,37.5c-1.167-0.3-2.65-0.566-4.45-0.8
		c-2.233-0.3-3.383-0.884-3.45-1.75l0.55-1.25H123c-1.767,0.667-3.317,1.1-4.65,1.3c-1.434,0.4-2.717,0.75-3.85,1.05
		c-2.2,0.6-4.583,1.034-7.15,1.3C104.817,37.617,103.1,37.667,102.2,37.5z"/>
	<path style="fill-rule:evenodd;clip-rule:evenodd;fill:#704225;" d="M58.35,9.7c-0.9,0.333-1.817,0.716-2.75,1.15
		c-1.833,0.833-2.85,1.466-3.05,1.9c-0.267,0.7,2.434,1.9,8.1,3.6c-1.033,0.167-2.2,0.417-3.5,0.75
		c-2.533,0.667-4.367,1.417-5.5,2.25C49.883,20.684,47,23.566,43,28l-0.65-3.3c-0.3-1.467,0.2-2.95,1.5-4.45
		c0.633-0.733,2.183-2.083,4.65-4.05c1.433-1.134,2.167-3.733,2.2-7.8l-0.35-5.7l0.2,0.25c0.5,0,1.65-0.417,3.45-1.25
		c2.167-1,5.35-1.5,9.55-1.5c4.2,0,8.8,0.5,13.8,1.5c4.167,0.833,9.2,3.466,15.1,7.9c2.933,2.233,5.45,4.367,7.55,6.4l-2.35-2
		c-1.233-1.066-3.983-2.383-8.25-3.95c-4.533-1.667-8.233-2.616-11.1-2.85c-2.533-0.2-5.117,0.05-7.75,0.75L67.35,9L58.35,9.7z"/>
	<path style="fill-rule:evenodd;clip-rule:evenodd;fill:#704225;" d="M56.65,26.7c-2.2,0.833-3.5,1.783-3.9,2.85
		c-0.2,0.5-0.183,0.934,0.05,1.3c-0.466-0.467-0.917-1.067-1.35-1.8c-0.867-1.433-1.233-2.783-1.1-4.05
		c0.1-0.833,1.783-1.4,5.05-1.7c3.934-0.366,6.917-1.566,8.95-3.6c0.833-0.833,3.267-1.567,7.3-2.2c4.733-0.767,6.4-0.934,5-0.5
		c-1.5,0.467-2.867,0.9-4.1,1.3c-2.333,0.8-3.85,1.483-4.55,2.05c-1.133,0.933-2.567,1.917-4.3,2.95
		C61.367,24.667,59.017,25.8,56.65,26.7z"/>
	<path style="fill-rule:evenodd;clip-rule:evenodd;fill:#704225;" d="M188.85,46.7c3.134-1.4,6.65-1.983,10.551-1.75
		c1.966,0.1,3.616,0.35,4.949,0.75h-5c-1.399,0-3.316,0.316-5.75,0.95c-2.8,0.733-5.116,1.633-6.949,2.7
		c-2.667,1.566-7.9,4.566-15.7,9c1.533-2,3.633-4.117,6.3-6.35c1.667-1.4,4.1-2.7,7.3-3.9C186.15,47.5,187.583,47.033,188.85,46.7z"
		/>
	<path style="fill-rule:evenodd;clip-rule:evenodd;fill:#704225;" d="M235.2,60.7l5.1,1.05c3.367,0.8,5.05,1.434,5.05,1.9
		c0,0.467-0.35,0.833-1.05,1.1c-0.833,0.267-1.383,0.434-1.649,0.5c-0.2,0.1-2.384,0.217-6.551,0.35
		c-4.433,0.133-7.216,0.3-8.35,0.5c-1.3,0.2-3.217,1.033-5.75,2.5c-1.267,0.733-2.4,1.433-3.4,2.1l1.2-3.25
		c1.9-1.634,3.584-2.983,5.05-4.05c0.867-0.667,2.284-1.183,4.25-1.55C230.267,61.617,232.3,61.233,235.2,60.7z"/>
	<path style="fill-rule:evenodd;clip-rule:evenodd;fill:#704225;" d="M159,65.65c5.298-0.323,8.431-0.523,9.4-0.6
		c-1.092,0.311-4.225,2.411-9.4,6.3c-1.667,1.267-3.434,1.75-5.3,1.45L151.35,72l0.65-3.3L159,65.65z"/>
	<path style="fill-rule:evenodd;clip-rule:evenodd;fill:#704225;" d="M140.65,62.35c-0.2-0.167-0.384-0.383-0.551-0.65
		c-0.333-0.567-0.366-1.134-0.1-1.7c0.6-1.267,4.05-2.483,10.35-3.65l3.75,0.15c2.2,0.233,2.617,0.633,1.25,1.2
		c-1.399,0.533-4.267,1.466-8.6,2.8L140.65,62.35z"/>
	<path style="fill-rule:evenodd;clip-rule:evenodd;fill:#704225;" d="M92.35,51.35c1.233,0.167,1.767,1.017,1.6,2.55
		c-0.133,1.467-0.667,2.4-1.6,2.8c-0.7,0.267-1.583,0.116-2.65-0.45l-1.35-0.9c0.3-0.7,0.7-1.4,1.2-2.1
		C90.517,51.883,91.45,51.25,92.35,51.35z"/>
	<path style="fill-rule:evenodd;clip-rule:evenodd;fill:#57351D;" d="M165.7,87.7c1.1,0,2.566-1.25,4.399-3.75l3.5,1.75l2.75,1h4.5
		l-7.75,1.25l-1.35,1.95c-0.934,1.4-1.4,2.25-1.4,2.55c0,0.5-0.25,2.167-0.75,5c-0.666,0.5-1.25,0.833-1.75,1
		c-3.333,1.333-6.333,2.5-9,3.5c-1.666,0.633-2.283,0.65-1.85,0.05l4.1-3.55l-0.5-2c-0.1-0.4-0.633-0.6-1.6-0.6l-1.4,0.1
		c-1.5,0.833-3.083,1.667-4.75,2.5c-1.1,0.566-1.966,0.95-2.6,1.15c-0.233,0.066-0.783,0.183-1.65,0.35
		c-0.833,0.167-3.833,0.417-9,0.75l12-4.5c0.5-0.534,1.101-1.134,1.801-1.8c1.366-1.267,2.517-2.167,3.449-2.7
		c0.867-0.5,1.75-0.7,2.65-0.6c1.7,0.1,2.833,0.133,3.4,0.1c1.366-0.1,2.233-0.717,2.6-1.85L165.7,87.7z"/>
	<path style="fill-rule:evenodd;clip-rule:evenodd;fill:#57351D;" d="M182.25,105.7l-3.65,1.75l0.5-1.25
		c0.2-0.534,1.184-1.767,2.95-3.7l2.55-2.8l8-2.25c2.167-0.6,3.65-1.05,4.45-1.35c0.7-0.267,1.634-0.733,2.8-1.4l6.75,2.75
		l-5.25,2.25l-5,4c-2.333,0.167-4.833,0.25-7.5,0.25C187.184,103.95,184.983,104.533,182.25,105.7z"/>
	<path style="fill-rule:evenodd;clip-rule:evenodd;fill:#57351D;" d="M194.15,112.9c1.466-0.3,2.949-0.7,4.449-1.2l-1.25,3
		c-0.233,0.466-1.017,0.85-2.35,1.15c-1.2,0.233-2.5,0.35-3.9,0.35c-1.033,0-1.6-0.25-1.699-0.75l0.699-2.975
		C189.919,113.388,191.269,113.529,194.15,112.9z"/>
	<path style="fill-rule:evenodd;clip-rule:evenodd;fill:#57351D;" d="M130.1,107.2c0.634-0.733,2.034-1.333,4.2-1.8
		c1.066-0.2,2.084-0.35,3.05-0.45l-2.449,2.55c-1.801,1.867-3.067,3.267-3.801,4.2c-0.399,0.533-1.533,2.167-3.399,4.9
		c-1.634,2.367-2.833,3.983-3.6,4.85c-0.833,0.933-1.45,2.083-1.85,3.45c-0.233,0.7-0.367,1.3-0.4,1.8
		c-4.167,0.5-6.583,0.75-7.25,0.75c-0.4,0-0.567-0.517-0.5-1.55c0.167-1.2,0.25-2.017,0.25-2.45c0-0.534-0.25-1.317-0.75-2.35
		l-0.75-1.4l1.7-0.35c1.333-0.267,2.517-0.4,3.55-0.4c1.133,0,1.85-0.067,2.15-0.2c0.567-0.434,1.267-0.95,2.1-1.55
		c0.9-0.634,2.017-1.95,3.35-3.95C127.467,110.55,128.934,108.533,130.1,107.2z"/>
	<path style="fill-rule:evenodd;clip-rule:evenodd;fill:#57351D;" d="M117.1,137.7l5.5-2.5l-1.8,1.9
		c-1.267,1.466-2.167,2.667-2.7,3.6c-0.434,0.8-0.867,1.767-1.3,2.9c-0.4,1.033-0.716,1.733-0.95,2.1
		c-0.5,0.833-2.217,1.95-5.15,3.35c-0.733-0.733-1.267-1.517-1.6-2.35c-0.2-0.534-0.267-1.483-0.2-2.85l0.2-1.9l2.5,2.25l3-1.75
		C115.933,140.783,116.767,139.2,117.1,137.7z"/>
	<path style="fill-rule:evenodd;clip-rule:evenodd;fill:#57351D;" d="M111.85,73.45c0.153,0.848,1.219,1.031,3.2,0.55
		c1.3-0.333,3.233-0.934,5.8-1.8c1.267-0.333,2.583-0.434,3.95-0.3c1.967,0.2,2.233,0.3,0.8,0.3c-0.5,0-1.616,0.433-3.35,1.3
		l-4.9,2.45c-1.467,0.667-2.55,1.05-3.25,1.15c-0.367,0.066-0.95,0.017-1.75-0.15c-0.5-0.1-0.7-0.983-0.6-2.65
		C111.79,73.967,111.823,73.683,111.85,73.45z"/>
	<path style="fill-rule:evenodd;clip-rule:evenodd;fill:#57351D;" d="M75.7,86.55l1.9-2.6l3.75-2.25v2.25c0,1.7,0.367,3.1,1.1,4.2
		c0.333,0.5,1.383,0.5,3.15,0l-2.35,2.2c-1.8,1.533-3.333,2.45-4.6,2.75c-1.3,0.333-2.167-0.35-2.6-2.05
		C75.817,90.15,75.7,88.65,75.7,86.55z"/>
	<path style="fill-rule:evenodd;clip-rule:evenodd;fill:#57351D;" d="M56.35,114.45l3.75-6l-1.25,5l-0.6,1.65
		c-0.5,1.233-0.967,2.267-1.4,3.1c-0.667,1.333-1.333,2.25-2,2.75c-0.5-1.333-0.75-2.333-0.75-3
		C54.1,117.117,54.85,115.95,56.35,114.45z"/>
	<path style="fill-rule:evenodd;clip-rule:evenodd;fill:#57351D;" d="M76.85,151.2l0.25,5.25l2,4l-3,5.5l-2.5,8.5l-0.5-6.25l-1.5-4
		l0.75-10.75c0.1,2.8,0.883,3.267,2.35,1.4L76.85,151.2z"/>
	<path style="fill-rule:evenodd;clip-rule:evenodd;fill:#57351D;" d="M61.1,136.2l1.4,2.45c0.9,1.733,1.35,2.917,1.35,3.55
		c0,0.633-0.833,1.4-2.5,2.3c-0.833,0.467-1.667,0.867-2.5,1.2l-1.2,2.45c-0.9,1.967-1.667,3.733-2.3,5.3
		c-0.633,1.6-1.4,2.433-2.3,2.5c-0.1,0-0.667-0.167-1.7-0.5c-0.5-0.167-0.75-2.167-0.75-6l2.25,0.75l2.25-6l3-1.25L61.1,136.2z"/>
	<path style="fill-rule:evenodd;clip-rule:evenodd;fill:#57351D;" d="M61.85,217.2c-1.733-1.833-2.633-2.867-2.7-3.101
		c0.233,0,0.217-0.216-0.05-0.649c-0.3-0.533-1.017-1.101-2.15-1.7l-1.6-0.8c0.167-0.333,0.517-0.717,1.05-1.15
		c1.067-0.866,2.55-1.566,4.45-2.1c1.233-0.367,2.316-4.45,3.25-12.25c0.133-1.066,0.217-1.601,0.25-1.601
		c0.033-0.033,0.1,0.434,0.2,1.4c0.367,3.8,0.883,7.533,1.55,11.2c0.767,4.3,1.033,6.684,0.8,7.149
		c-0.4,0.733-0.583,1.434-0.55,2.101c0.1,1.434,0.167,2.2,0.2,2.3c0.2,0.3,0.467,1.367,0.8,3.2c0.667,3.667,0.667,4.167,0,1.5
		C66.517,222.033,64.683,220.2,61.85,217.2z"/>
	<path style="fill-rule:evenodd;clip-rule:evenodd;fill:#57351D;" d="M117.6,243.45l2-0.45c1.333-0.167,2,0.066,2,0.7
		c0,2.667,0.083,5.333,0.25,8c0.1,1.667-0.5,3.75-1.8,6.25c-0.633,1.267-1.283,2.35-1.95,3.25l-0.85,2.35
		c-0.7,1.867-1.417,3.584-2.15,5.15s-1.283,1.083-1.65-1.45l-0.35-4.3l-2.25-8.75l4.75-0.25
		C116.933,249.617,117.6,246.117,117.6,243.45z"/>
	<path style="fill-rule:evenodd;clip-rule:evenodd;fill:#57351D;" d="M132.55,285.75l-3.2-6.8l2.15,0.2
		c1.566,0.133,2.767,0.149,3.6,0.05c0.867-0.101,1.551-1.117,2.051-3.05c0.267-1.034,0.5-2.601,0.699-4.7l-0.199,6.6
		c-0.4,4.533-1.167,7.167-2.301,7.9C134.217,286.684,133.283,286.616,132.55,285.75z"/>
	<path style="fill-rule:evenodd;clip-rule:evenodd;fill:#704225;" d="M182.35,96.5c-1.1,1.167-2.116,2.316-3.05,3.45l0.45-3
		c1.967-3,3.366-4.917,4.2-5.75c0.633-0.6,1.899-1.167,3.8-1.7s3.35-0.717,4.35-0.55c1.167,0.167,4.584,1.083,10.25,2.75h-7.5
		c-3.699,0-6.3,0.25-7.8,0.75C186.116,92.75,184.55,94.1,182.35,96.5z"/>
	<path style="fill-rule:evenodd;clip-rule:evenodd;fill:#704225;" d="M235.55,91.7c0.233,0.333,0.334,0.667,0.3,1l-1,4.75
		l-2.75,8.75c0-2,0.084-3.917,0.25-5.75c0.101-1.134,0.467-2.6,1.101-4.4l0.899-2.35c-3.5-0.667-5.583-1-6.25-1
		c-0.6,0-1.466,0.183-2.6,0.55c-1.366,0.4-2.5,0.883-3.4,1.45c-0.966,0.6-1.733,0.95-2.3,1.05c-0.467,0.1-1.533,0.083-3.2-0.05
		c-1.399-0.1-2.517-0.5-3.35-1.2c-0.934-1.033-1.733-1.883-2.4-2.55l-4.25-1.75l1.4-0.6c1.134-0.434,2.167-0.65,3.1-0.65
		c0.934,0,2.084,0.466,3.45,1.4c0.7,0.433,1.3,0.883,1.8,1.35l7-0.75c1.5-0.167,4.667-0.25,9.5-0.25
		C234.217,90.7,235.116,91.033,235.55,91.7z"/>
	<path style="fill-rule:evenodd;clip-rule:evenodd;fill:#704225;" d="M193.35,108.2c1.834,1.333,2.417,2.25,1.75,2.75
		c-0.333,0.233-1.033,0.45-2.1,0.65c-1.233,0.233-2.2,0.517-2.9,0.85c-0.866,0.433-1.399,0.316-1.6-0.35
		c-0.1-0.233-0.15-0.784-0.15-1.65C188.35,109.783,190.017,109.033,193.35,108.2z"/>
	<path style="fill-rule:evenodd;clip-rule:evenodd;fill:#704225;" d="M169.6,108.7c1.667-0.634,3.5-0.534,5.5,0.3
		c1,0.434,1.834,0.917,2.5,1.45c-1.833,0.167-3.416,0.25-4.75,0.25c-0.767,0-1.333,0.517-1.699,1.55
		c-0.601,1.7-1.034,2.767-1.301,3.2c-0.6,0.933-1.399,1.616-2.399,2.05c-0.533,0.233-1.15,0.467-1.851,0.7
		c-0.5,0.333-1.5-0.25-3-1.75c1-1.333,2.25-2.5,3.75-3.5c0.733-0.467,1.284-1.267,1.65-2.4
		C168.3,109.583,168.833,108.967,169.6,108.7z"/>
	<path style="fill-rule:evenodd;clip-rule:evenodd;fill:#704225;" d="M143.75,145.6c-0.7,1.3-1.167,1.833-1.4,1.6
		c-0.199-0.2-0.166-1.434,0.101-3.7c0.2-1.733,0.416-3.167,0.649-4.3c0.167-0.833,0.551-1.85,1.15-3.05
		c0.733-1.533,1.6-2.85,2.6-3.95c0.867-0.967,2.217-2.15,4.051-3.55c2.6-2.033,4.25-3.35,4.949-3.95l-1.05,2.7
		c-0.833,1.967-1.566,3.317-2.2,4.05c-0.966,1.133-2.017,2.5-3.149,4.1c-1.467,2.034-2.584,3.833-3.351,5.4
		C144.767,143.65,143.983,145.2,143.75,145.6z"/>
	<path style="fill-rule:evenodd;clip-rule:evenodd;fill:#704225;" d="M141.35,172.95c0-1.867,0.384-3.767,1.15-5.7l1.1-2.3
		l-0.1,6.899c-0.033,0.967-0.2,2.233-0.5,3.801c-0.366,1.8-0.583,3.149-0.65,4.05c-0.133,1.667-0.466,4.083-1,7.25
		c-0.533,3.3-0.866,4.717-1,4.25c-0.199-0.833-0.383-2.017-0.55-3.55c-0.233-2.134-0.3-4.117-0.2-5.95
		c0.101-1.467,0.417-3.083,0.95-4.851C141.083,175.217,141.35,173.917,141.35,172.95z"/>
	<path style="fill-rule:evenodd;clip-rule:evenodd;fill:#704225;" d="M230.1,121.7l2.5,2.75c-3.833-0.667-7.166-1.5-10-2.5
		c-1.699-0.6-2.8-0.95-3.3-1.05c-0.7-0.033-1.684-0.183-2.95-0.45c-1.566-0.3-3.666-0.4-6.3-0.3l-3.45,0.3l3.75-1.25
		c-4.333-0.5-8.267-0.917-11.8-1.25c-2.3-0.233-4.633-0.117-7,0.35c-1,0.2-3.149,0.75-6.45,1.65
		c-1.866,0.533-4.767,1.816-8.699,3.85c-1.934,1.034-3.7,2-5.301,2.9l1.5-1.75c0.9-1.067,2.483-2.417,4.75-4.05
		c2.567-1.833,4.65-2.983,6.25-3.45c1.7-0.5,5.584-0.95,11.65-1.35c5.866-0.4,10.233-0.534,13.1-0.4c3.667,0.167,8.25,1.167,13.75,3
		L230.1,121.7z"/>
	<path style="fill-rule:evenodd;clip-rule:evenodd;fill:#704225;" d="M137.85,69.45l1.9,1.3c1.2,1,1.65,1.816,1.35,2.45
		c-0.3,0.6-1.267,1-2.899,1.2c-2.9,0.333-4.667,0.583-5.3,0.75c-1.634,0.4-3.051,0.867-4.25,1.4l-1.301,0.65
		c1.167-2.167,1.917-3.667,2.25-4.5c0.2-0.534,1.301-1.134,3.301-1.8C133.7,70.6,135.35,70.117,137.85,69.45z"/>
	<path style="fill-rule:evenodd;clip-rule:evenodd;fill:#704225;" d="M194.6,63.05l9.25,3.65c-4.333,0.833-7.666,1.417-10,1.75
		c-1.399,0.2-2.449,0.55-3.149,1.05c-2.667,1.934-4.033,2.917-4.101,2.95c-1.966,1.267-3.6,2.733-4.899,4.4
		c-0.634,0.833-1.084,1.533-1.351,2.1l1-5l2-3.25h-3.25c-0.433,0-1.267,0.333-2.5,1c-1.399,0.767-2.5,1.55-3.3,2.35
		c-1.166,1.167-6,3.467-14.5,6.9l4.5-5c0.733-0.833,1.566-2,2.5-3.5l1.2-2l13.7-6.2c3.533-1.566,6.75-2.233,9.649-2
		C192.783,62.35,193.866,62.617,194.6,63.05z"/>
	<path style="fill-rule:evenodd;clip-rule:evenodd;fill:#704225;" d="M229.65,57.75c1.466,0.667,2.699,1.316,3.699,1.95h-4.5
		c-3,0-6.166,0.083-9.5,0.25c-2.066,0.1-3.149,0.05-3.25-0.15l0.5-0.35l-1.25-1.5c-1.333-0.5-2.85-0.867-4.55-1.1
		c-1.066-0.133-3-0.267-5.8-0.4l-3.9-0.2l10.75-1.95l9.75,1.15C224,55.65,226.684,56.417,229.65,57.75z"/>
	<path style="fill-rule:evenodd;clip-rule:evenodd;fill:#704225;" d="M174.35,47.7c0.167-0.1,0.2-0.267,0.101-0.5
		c-0.2-0.4-0.983-0.867-2.351-1.4c-1.433-0.533-2.866-0.866-4.3-1c-0.467-0.033-1.95-0.05-4.45-0.05l-16-0.05l6.9-1.4
		c5-0.966,8.533-1.5,10.6-1.6c1.667-0.067,4.534-0.233,8.601-0.5c3.666-0.134,6.717-0.05,9.149,0.25c3.834,0.5,6.584,1,8.25,1.5
		c-7,1-11,1.5-12,1.5c-2.5,0-3.416,0.167-2.75,0.5c0.467,0.233,0.367,0.783-0.3,1.65C175.134,47.467,174.65,47.833,174.35,47.7z"/>
	<path style="fill-rule:evenodd;clip-rule:evenodd;fill:#704225;" d="M129.6,36.2c1.034-0.634,3.134-0.9,6.301-0.8
		c1.6,0.034,3.083,0.133,4.449,0.3c-2.166,0.167-3.916,0.333-5.25,0.5c-0.733,0.1-1.683,0.566-2.85,1.4
		c-1.267,0.933-2.15,1.466-2.65,1.6c-0.733,0.2-1.416,0.85-2.05,1.95c-0.3,0.534-0.533,1.05-0.7,1.55l-4-1
		c-0.8-0.2-1.767-0.267-2.9-0.2c-1.133,0.133-1.917,0.2-2.35,0.2c-0.533,0-0.6-0.2-0.2-0.6l0.7-0.65l1.9-0.8
		c1.633-0.6,3.333-1,5.1-1.2c1.767-0.2,3.051-0.634,3.851-1.3L129.6,36.2z"/>
</g>
</svg>
