<?xml version="1.0" encoding="iso-8859-1"?>
<!-- Generator: Adobe Illustrator 15.1.0, SVG Export Plug-In . SVG Version: 6.00 Build 0)  -->
<!DOCTYPE svg PUBLIC "-//W3C//DTD SVG 1.1//EN" "http://www.w3.org/Graphics/SVG/1.1/DTD/svg11.dtd">
<svg version="1.1" id="FlashAICB" xmlns="http://www.w3.org/2000/svg" xmlns:xlink="http://www.w3.org/1999/xlink" x="0px" y="0px"
	 width="261.7px" height="126.9px" viewBox="0 0 261.7 126.9" style="enable-background:new 0 0 261.7 126.9;" xml:space="preserve"
	>
<g>
	
		<linearGradient id="SVGID_1_" gradientUnits="userSpaceOnUse" x1="-44.5972" y1="-146.1709" x2="16.6752" y2="-146.1709" gradientTransform="matrix(-0.4733 0.8809 -0.8809 -0.4733 -1.304746e-004 -8.535385e-005)">
		<stop  offset="0" style="stop-color:#669D12"/>
		<stop  offset="1" style="stop-color:#5D8512"/>
	</linearGradient>
	<path style="fill-rule:evenodd;clip-rule:evenodd;fill:url(#SVGID_1_);" d="M1.85,47.9c-0.133-0.966-0.1-1.716,0.1-2.25
		c0.1-1.033,0.316-2,0.65-2.9c0.433-1.1,0.733-2.7,0.9-4.8l0.1-2.8l1.7,2c0.9-1.767,1.233-3.1,1-4L5.65,30.5l1.1,1.75
		c0.767,1.333,1.267,2.4,1.5,3.2c2.434-3.2,5.767-6.1,10-8.7c4.633-2.867,7.6-5,8.9-6.4c4.9-5.434,9.067-9.367,12.5-11.8L40,8.2
		c0.667-0.667,1.833-1.55,3.5-2.65c1.3-0.833,2.133-1.616,2.5-2.35c0.667-1.333,0.85-2.4,0.55-3.2l1.75,3.5l0.1-0.6
		c0.233-0.5,0.767-0.966,1.6-1.4c1.333-0.667,2.434-1.083,3.3-1.25L51.65,3.5l2.7-0.6c1.933-0.5,3.25-0.966,3.95-1.4l1.7-1
		l-0.9,2.75c3.5-0.267,6.333-0.417,8.5-0.45c3.933-0.4,6.733-0.6,8.4-0.6h6L81.65,3c2.3,0.133,4.75,0.367,7.35,0.7
		c3.566,0,5.667,0.05,6.3,0.15c0.8,0.133,2.083,0.45,3.85,0.95c1.5,0.367,2.45,0.267,2.85-0.3l1-1.3l-0.7,3l3-1
		c-0.333,0.333-0.616,0.716-0.85,1.15c-0.5,0.9-0.55,1.617-0.15,2.15c0.3,0.4,1.833,1.383,4.6,2.95c2.8,1.566,4.5,2.7,5.1,3.4
		l1.65,2l2-2.35l0.4,4.8l0.25,0.5l2-3.6l0.35,5.3l1.3,1.7c1.133,1.433,2.383,2.9,3.75,4.4c1.667,1.833,3.966,3.867,6.899,6.1
		c2.967,2.233,4.9,3.417,5.801,3.55l1.899,0.25l0.3-1.65l3.051,2.65c0.899-1.333,1.35-2.55,1.35-3.65V33.2l1,1.55
		c0.667,1.133,1,2.05,1,2.75v2.7l3.65-2l0.149,1c0.167,0.767,0.45,1.433,0.851,2c0.5,0.633,1.8,1.316,3.899,2.05
		c2,0.733,4.033,1.267,6.101,1.6c2.666,0.433,4.55,0.767,5.649,1l-1-2l1.4,0.9c1.166,0.667,2.366,1.15,3.6,1.45
		c2,0.433,3.566,0.65,4.7,0.65l-0.7-2.35l1.55,1.4c1.167,0.934,2.101,1.467,2.801,1.6c3.3,0.7,8.083,1.483,14.35,2.35
		c1.566,0.233,3.45,0.45,5.65,0.65c1.933,0.3,4.149,0.867,6.649,1.7l6,2l-0.3-2.35l3.3,2c0-0.233,0.117-1.017,0.351-2.35l0.35-2
		l0.4,1.85c0.399,1.333,0.866,2.283,1.399,2.85c0.9,0.866,2.3,2.083,4.2,3.65v-1.7c0.434,0.833,1.767,1.733,4,2.7
		c2.333,1.033,4.35,2.017,6.05,2.95c0.7,0.367,2.233,1.267,4.601,2.7c2.232,1.333,4.116,2.333,5.649,3l0.351-2.65l7.6,4.75
		c1.767,1.167,3.35,2.367,4.75,3.601c4.1,3.733,6.316,6.833,6.65,9.3c0.232,1.8-0.101,4.417-1,7.85c-0.834,2.667-1.4,4.051-1.7,4.15
		c-0.7-0.267-1.634-0.15-2.8,0.35c0.232-0.232-0.217-0.633-1.351-1.199c-1.1-0.533-1.816-0.801-2.149-0.801
		c-0.5,0-1.25,0.417-2.25,1.25c-1,0.834-1.75,1.25-2.25,1.25c-0.667,0.167-1.983,0.25-3.95,0.25c-1.867,0-3.05,0.084-3.55,0.25
		c-0.934,0.367-1.934,0.434-3,0.2c-1.533-0.366-2.65-0.55-3.351-0.55c-0.6,0.1-1.983,0.566-4.149,1.4
		c-1.434,0.6-2.934,0.699-4.5,0.3c-2.7-0.634-5.434-0.566-8.2,0.2c-3.2,1.133-5.8,1.949-7.8,2.449
		c-2.801,0.567-4.417,0.884-4.851,0.95c-0.934,0.134-2.649,0.267-5.149,0.4c-7.834,0.366-14.95,2.033-21.351,5
		c-0.899,0.467-2.733,0.733-5.5,0.8c-2.533,0.1-4.25,0.5-5.149,1.2c-0.534,0.533-1.634,0.7-3.301,0.5
		c-1.8-0.2-2.916-0.15-3.35,0.149c-0.3,0.268-1.083,0.417-2.35,0.45c-1.233,0.033-2.017,0.317-2.351,0.851l-0.899-0.301
		c-3.334-0.899-7.267-2.25-11.801-4.05c-5.1-2.166-8.949-3.767-11.55-4.8c-3.9-1.533-8.333-2.75-13.3-3.65
		c-3.033-0.533-7.566-1.133-13.6-1.8c-2.867-0.6-6.05-1.517-9.55-2.75c-1.8-0.633-4.934-1.8-9.4-3.5
		c-3.8-1.467-8.05-2.649-12.75-3.55c-3.3-0.667-7.634-1.3-13-1.9l-2.6-0.699c-3.867-1.9-7.583-4.033-11.15-6.4
		c-0.833-0.767-1.45-1.366-1.85-1.8c-5.167-5.167-11.434-8.55-18.8-10.15c-0.466-0.433-1.933-0.833-4.4-1.2
		c-2.2-0.333-3.533-1.034-4-2.1c-0.733-1.6-1.867-2.633-3.4-3.1c-1.934-0.3-3.4-0.533-4.4-0.7C5.883,57.066,3.267,54,2,48.5
		l-0.05-0.2L1.9,48.35L1.85,47.9z"/>
	<g>
		<path style="fill-rule:evenodd;clip-rule:evenodd;fill:#4A2D1C;" d="M250.95,102.8l-0.3-1.649c-0.233,1.233-0.733,2.183-1.5,2.85
			l-1.15,0.95c0.033-0.767-0.066-1.483-0.3-2.15l-0.3-1c-0.334,0.367-0.684,0.783-1.051,1.25c-0.732,0.934-1.149,1.667-1.25,2.2
			c-0.1,0.9-0.217,1.566-0.35,2l-1.55-3.2c-0.2-0.399-0.4-0.916-0.601-1.55l-0.199-0.8l-1.5,3.5c-0.2,0.667-0.467,1.217-0.801,1.649
			l-1.6-2.75l-1.8-2l0.05,1.601c0.2,2.033,0.033,2.85-0.5,2.45c-0.167-0.134-0.783-0.95-1.85-2.45
			c-0.768,0.333-1.45,0.566-2.051,0.7l0.65,0.649l-1.1-0.2c-0.934,1.034-1.717,2.15-2.351,3.351l0.05,0.05h-0.05v0.05
			c-0.767,1.533-1.667,2.601-2.7,3.2l-1.6,5.3c0.233,1.367,0.85,2.783,1.85,4.25c0.9,1.334,1.7,2.134,2.4,2.4
			c0.833,0.333,3.25,0.917,7.25,1.75l-0.75,1c-0.633,0.866-2.883,0.95-6.75,0.25c-1.233-0.233-2.133-0.583-2.7-1.05
			c-0.366-0.301-0.717-0.783-1.05-1.45c-0.167-0.333-0.75-2-1.75-5c-0.1-0.267-0.184-0.884-0.25-1.851
			c-0.1-1.166-0.184-1.966-0.25-2.399c-0.1-0.667-0.1-1.15,0-1.45c0.033-0.066,0.283-0.417,0.75-1.05c0.5-0.667,0.583-1.667,0.25-3
			l-0.25-2v-1.55l-0.5-0.45l-2.5-2.75l0.2,1.7c0.167,1.267,0.333,2.217,0.5,2.85l0.5,2.05c-1.4-0.433-2.667-1.183-3.8-2.25
			c-0.7-0.633-1.267-1.283-1.7-1.95l-0.45-0.8c-0.033,1.967-0.517,3.483-1.45,4.55l-1.35,1.551c-0.267-1-0.533-1.817-0.8-2.45
			c-0.167-0.4-0.434-0.867-0.801-1.4l-0.5-0.7c-0.399,1.367-1.066,2.551-2,3.551c-0.6,0.6-1.383,1.133-2.35,1.6l-1.25,0.55
			c0.833-1.267,1.25-2.3,1.25-3.1V108.1c-0.4,0.233-0.717,0.534-0.95,0.9c-0.267,0.434-0.434,0.667-0.5,0.7
			c-0.633,0.366-1.133,0.684-1.5,0.95c-0.733,0.467-1.25,0.899-1.55,1.3c-0.3,0.399-1.366,0.75-3.2,1.05
			c-1.934,0.233-3.116,0.384-3.55,0.45c-2.667,0.533-4.434,1.133-5.3,1.8c-0.601,0.5-1.084,0.9-1.45,1.2
			c-0.667,0.566-1.417,1.316-2.25,2.25c-0.533,0.533-0.866,1.033-1,1.5l-1-1.5c-0.833-1-1.583-1.833-2.25-2.5s-1.167-1.25-1.5-1.75
			c-0.2-0.3-0.816-0.566-1.85-0.8c-0.601,1.199-1.184,2.017-1.75,2.449l-1.25,0.851c0.1-0.467,0.017-1.25-0.25-2.351l-0.4-1.5h-0.1
			c-0.934,1.268-2.034,2.067-3.301,2.4l-1.449,0.35c-0.467,1.067-0.684,1.934-0.65,2.601l0.15,1.8c-1.434-1.1-2.25-2.2-2.45-3.3
			v-0.05l-1.9,1.6l-0.05-1.2l-0.65,0.55l-1.949,1.301c0.433-1.301,0.666-2.283,0.699-2.95l-3.6,2.35c-0.033,0.733-0.033,1.334,0,1.8
			l-0.6-1.399l-0.101,0.1v-0.35c-0.533-1.333-0.816-2.117-0.85-2.351l-0.2-0.949c-1.033,1.633-1.934,2.717-2.7,3.25l-2,1.35
			l0.45-3.5l0.05-2.05c-0.333,1.333-0.783,2.25-1.35,2.75l-0.9,0.75c0.101-0.9,0.134-1.783,0.101-2.65L152.1,114
			c-0.267,0.3-0.566,0.65-0.899,1.05c-0.601,0.834-0.967,1.567-1.101,2.2l-0.5,2.2l-0.8-7.351l-1.45,3.551
			c-0.233,0.699-0.483,1.25-0.75,1.649l-0.649-3.8l-0.95-3l-0.2,1.9c-0.166,3.066-0.483,3.6-0.95,1.6
			c-0.699-2.9-1.1-4.366-1.199-4.4c-0.301-0.066-0.684-0.232-1.15-0.5l-0.55-0.399l1.2,3.899c-1.067-0.899-1.884-1.75-2.45-2.55
			l-1.4-2.3l0.2,2.55c0.167,1.834,0.35,3.017,0.55,3.55l0.45,1.301c-1.934-2.267-3.134-4.2-3.6-5.801l-1.2-4.1l-0.2,8.15
			c-0.833-1.033-1.55-2.367-2.15-4c-0.366-1.033-0.649-2.017-0.85-2.95l-0.2-1.101c-0.3,2.334-0.816,3.95-1.55,4.851l-1.15,1.35
			l-0.15-3.2l-0.6-2.899c-0.467,1.467-1.067,2.583-1.8,3.35c-0.466,0.5-1.066,0.867-1.8,1.101l-0.9,0.199
			c0.667-1.232,1.066-2.333,1.2-3.3l0.15-2.2c-1.8,1.9-3.083,2.934-3.85,3.101l-1.15,0.2c0.466-1.334,0.7-2.267,0.7-2.801v-0.8
			c-0.066,0.334-0.216,0.601-0.45,0.8c-0.5,0.467-1.184,0.467-2.05,0l-2.15-1.1l2.6,4.3c-0.333,0-0.75-0.083-1.25-0.25
			c-0.967-0.333-1.784-0.967-2.45-1.899l-2.4-3.65l-0.05,1.95c0.033,1.434,0.116,2.483,0.25,3.149l0.35,1.601
			c-0.833-0.8-1.517-1.95-2.05-3.45c-0.333-0.967-0.65-2.05-0.95-3.25l-0.4-1.5l-0.35,1.6c-0.233,1.233-0.366,2.284-0.4,3.15
			l-0.05,2.05c-0.867-1-1.417-2.366-1.65-4.1l-0.4-2.55c-1,2.467-1.8,3.899-2.4,4.3L103.2,106c0.133-0.5,0.183-1.45,0.15-2.85
			l-0.05-2.051c-0.767,1.233-1.633,1.817-2.6,1.75l-1.05-0.1c-0.533,1.233-0.816,2.167-0.85,2.8c-0.1,1.267-0.216,2-0.35,2.2
			c-0.967-1.8-1.45-3.383-1.45-4.75c-0.017,0.144-0.1,0.26-0.25,0.35L96.2,103.9l0.1-1.2l-1.95,1.2c0.466-1.4,0.75-2.467,0.85-3.2
			l-3.4,1.85c0.4-1.066,0.65-2.066,0.75-3l-0.4-0.8V98.6c-0.867,0.768-1.667,1.117-2.4,1.051l-1.5-0.101L89,98.1
			c-0.1,0.167-0.667,0.051-1.7-0.35l-2.05-0.95l0.3,1.8c0.2,1.233,0.367,1.967,0.5,2.2c0.2,0.467-0.15,0.351-1.05-0.35
			c-0.934-0.7-1.733-1.667-2.4-2.9l-0.55-1.25L82,96.45c-0.434,0.8-0.75,1.8-0.95,3c-0.233,1.333-0.5,2.333-0.8,3
			c-0.733,1.667-1.566,3.333-2.5,5c-0.533,0.934-1.583,1.75-3.15,2.45l-2.25,0.8c1.966-2.333,3.117-4.167,3.45-5.5
			c0.2-0.833,0.3-1.65,0.3-2.45c-0.067-0.934-0.1-1.7-0.1-2.3c0-0.467-0.15-0.95-0.45-1.45c-0.267-0.366-0.316-1-0.15-1.9V97
			l-0.15,0.1l-1,0.4c0.733-1.3,1.133-2.417,1.2-3.35l0.2-2.851c-0.466,1.867-1.033,2.983-1.7,3.351l-1.05,0.6
			c0.333-1.4,0.45-2.434,0.35-3.1l-0.15-1c-0.267,0.267-0.583,0.583-0.95,0.949c-0.667,0.7-1.133,1.301-1.4,1.801l-1,2.199
			c-0.1-1.767-0.066-3.199,0.1-4.3c0.1-0.7,0.216-1.283,0.35-1.75l0.15-0.5c-0.534,0.233-1.267,0.867-2.2,1.9
			c-0.566,0.633-1.033,1.083-1.4,1.35l-0.4,0.2l0.45-2.4c-0.2-0.033-0.433-0.017-0.7,0.051c-0.5,0.133-0.85,0.483-1.05,1.05
			c-0.366,0.934-0.75,1.583-1.15,1.95c-0.133-1-0.117-2.167,0.05-3.5c0.1-0.834,0.216-1.533,0.35-2.101l0.2-0.6
			c-1.566,1.866-2.767,3.017-3.6,3.45l-1.2,0.649l1.15-4.05c-0.9,0.5-1.6,0.6-2.1,0.3l-1.6-1.399l0.9,4.199
			c-1-1.267-1.75-2.366-2.25-3.3l-0.45-0.95c-0.333,0.434-0.583,0.851-0.75,1.25c0,1.567,0.066,2.617,0.2,3.15l0.35,1.45
			c-0.466-0.733-0.933-1.583-1.4-2.55c-0.333,1.033-0.5,2.3-0.5,3.8c0,1.767-0.5,4.667-1.5,8.7c-0.967,3.899-1.717,6.25-2.25,7.05
			s-1.684,1.7-3.45,2.7c-1.833,1.033-3.216,1.483-4.15,1.35c-0.8-0.133-1.733-0.383-2.8-0.75l-1.35-0.55l2.15-0.351
			c1.534-0.267,2.567-0.399,3.1-0.399c0.8-0.467,1.6-1,2.4-1.601c1.567-1.267,2.35-2.316,2.35-3.149c0-1.333,0.667-4,2-8
			C50.583,95.95,51,93.2,51,90.2c0-1.8-0.083-3.75-0.25-5.851l-0.4,4.5c-0.767-1.232-1.383-2.75-1.85-4.55
			c-0.267-1.1-0.45-2.133-0.55-3.1l-0.1-1.15c-0.5,2.167-1.167,3.567-2,4.2L44.6,85.2c0.1-1.233,0.133-2.283,0.1-3.15
			c0-0.533-0.05-1.2-0.15-2L44.4,79c-0.6,1.3-1.316,2.217-2.15,2.75c-0.5,0.333-1.117,0.5-1.85,0.5l-0.95-0.15
			c0.8-1,1.3-1.933,1.5-2.8l0.35-2.1c-1.933,1.267-3.3,1.85-4.1,1.75l-1.15-0.101c0.6-1.166,0.917-2.017,0.95-2.55V75.9l-0.8,0.75
			c-0.6,0.6-1.083,1-1.45,1.199L34.35,78l0.5-2.2l-0.2-0.149c-0.733-0.101-1.267,0.217-1.6,0.949c-0.366,0.9-0.75,1.518-1.15,1.851
			c-0.1-1.033-0.05-2.2,0.15-3.5l0.55-2.601c-1.6,1.7-2.817,2.717-3.65,3.051l-1.25,0.55L28.95,72c-0.9,0.434-1.583,0.483-2.05,0.15
			c-0.3-0.2-0.65-0.533-1.05-1L25.3,70.55l0.8,4.3c-0.967-1.333-1.684-2.5-2.15-3.5c-0.3-0.6-0.583-1.25-0.85-1.949l-0.3-0.851
			l-0.1,2.55c-0.034,1.834,0.017,3.034,0.15,3.601l0.3,1.45c-1.667-2.967-2.633-5.317-2.9-7.051L19.5,64.7l-1.1,7.7
			c-0.733-1.334-1.3-2.9-1.7-4.7c-0.233-1.134-0.4-2.184-0.5-3.15l-0.05-1.15c-0.566,2.1-1.267,3.417-2.1,3.95l-1.3,0.851
			c0.133-1.233,0.2-2.267,0.2-3.101c0.033-0.533,0-1.2-0.1-2l-0.15-1.05c-0.6,1.2-1.333,2.033-2.2,2.5c-0.533,0.3-1.15,0.4-1.85,0.3
			L7.7,64.65c0.8-0.9,1.316-1.784,1.55-2.65l0.45-2.05c-2,1.066-3.384,1.517-4.15,1.35l-1.2-0.25c0.633-1.1,0.966-1.9,1-2.4l0.1-0.8
			c-0.1,0.267-0.284,0.466-0.55,0.6c-0.533,0.233-1.216-0.05-2.05-0.85l-0.5-0.5l1.35-5.75c0.267,0.167,0.55,0.35,0.85,0.55
			c0.3,0.2,0.733,0.367,1.3,0.5c0.5,0.133,1.167,0.25,2,0.35c0.667,0.133,1.216,0.5,1.65,1.1c0.367,0.5,0.7,1.017,1,1.55
			c0.3,0.4,0.783,0.867,1.45,1.4c0.4,0.3,1.417,0.817,3.05,1.55c1.5,0.7,2.667,1.466,3.5,2.3c1,0.967,2.1,1.817,3.3,2.55
			c0.934,0.566,1.6,0.883,2,0.95c0.1,0.033,0.717,0.35,1.85,0.949c1.333,0.733,2.6,1.334,3.8,1.801
			c1.233,0.467,2.066,0.717,2.5,0.75c0.866,0.1,1.483,0.183,1.85,0.25c1.4,0.267,3.267,1.017,5.6,2.25c0.534,0.1,1,0.35,1.4,0.75
			l0.5,0.3l-0.1,0.149c0.3,0.4,0.6,0.834,0.9,1.301c0.267,0.333,0.733,0.733,1.4,1.199c0.367,0.268,1.383,0.684,3.05,1.25
			c1.5,0.534,2.684,1.184,3.55,1.95c0.733,0.634,1.65,1.283,2.75,1.95L58,79.95l-0.25,1.1c1.033,0.5,2.184,0.934,3.45,1.3
			c1.233,0.367,2.066,0.534,2.5,0.5c0.9,0,1.517,0.018,1.85,0.051c1.634,0.166,4.15,1.033,7.55,2.6c0.867,0.4,1.833,0.684,2.9,0.85
			V86.2L86.6,86.1l0.35,1c0.133,0.801-0.117,1.534-0.75,2.2l-0.05,0.05l2,0.75l3.9,2.15L92,92.2c0.8,0.066,2.483,0.883,5.05,2.45
			c0.733,0.233,1.617,0.483,2.65,0.75c0.267,0.1,0.866,0.217,1.8,0.35c0.934,0.134,1.667,0.283,2.2,0.45
			c1.267,0.066,2.233,0.233,2.9,0.5c0.633,0.233,1.683,0.35,3.15,0.35l5.45,0.2c0.366,0.033,0.816,0.25,1.35,0.65
			c0.567,0.433,1,0.649,1.3,0.649c0.133,0,0.45,0.067,0.95,0.2c0.333,0.066,0.784,0.05,1.35-0.05c0.5-0.066,1.15-0.233,1.95-0.5
			c0.667-0.134,1.25,0.017,1.75,0.45l0.35,0.25c1.767,0.366,5.183,1.5,10.25,3.399c2.6,0.967,5.467,2.033,8.6,3.2
			c0.601,0.2,3.334,0.9,8.2,2.1c3.7,0.934,6.05,1.733,7.05,2.4l0.101,0.1c1.5,0.034,3.85,0.184,7.05,0.45
			c1.1-0.133,2.383-0.316,3.85-0.55c0.467-0.033,1.351-0.2,2.65-0.5c1.434-0.333,2.517-0.55,3.25-0.65
			c1.934-0.5,3.333-0.783,4.2-0.85c0.966-0.066,2.5-0.434,4.6-1.1l7.8-2.25c0.533-0.134,1.233-0.15,2.101-0.051
			c0.833,0.067,1.483,0.051,1.949-0.05c0.233-0.066,0.7-0.166,1.4-0.3c0.467-0.1,1.1-0.3,1.9-0.6c0.699-0.267,1.6-0.7,2.699-1.301
			c0.934-0.399,1.784-0.533,2.551-0.399l0.55,0.1c6.767-1.366,14.733-2.866,23.899-4.5c0.867-0.467,1.483-0.75,1.851-0.85
			c1.133-0.4,3.1-0.5,5.899-0.3c5.067-0.467,10.733-0.667,17-0.601C252.467,98.1,251.583,100.434,250.95,102.8z"/>
		<path style="fill-rule:evenodd;clip-rule:evenodd;fill:#4A2D1C;" d="M186.25,120.95c-0.5-0.033-0.667-0.283-0.5-0.75
			L186.25,120.95z"/>
	</g>
	<path style="fill-rule:evenodd;clip-rule:evenodd;fill:#466E13;" d="M1.35,47.35c0.3,0.167,0.6,0.35,0.9,0.55
		c0.3,0.2,0.733,0.367,1.3,0.5c0.5,0.133,1.167,0.25,2,0.35c0.7,0.133,1.267,0.5,1.7,1.1c0.367,0.5,0.7,1.017,1,1.55
		C8.517,51.8,9,52.267,9.7,52.8c0.4,0.3,1.417,0.817,3.05,1.55c1.5,0.7,2.684,1.466,3.55,2.3c1,0.967,2.117,1.817,3.35,2.55
		c0.934,0.566,1.6,0.883,2,0.95c0.1,0.034,0.733,0.35,1.9,0.95c1.333,0.733,2.617,1.333,3.85,1.8c1.233,0.467,2.067,0.717,2.5,0.75
		c0.934,0.1,1.567,0.184,1.9,0.25c1.434,0.3,3.3,1.05,5.6,2.25c0.534,0.1,1,0.35,1.4,0.75l0.5,0.3l-0.1,0.149
		c0.3,0.4,0.6,0.834,0.9,1.301c0.267,0.366,0.733,0.767,1.4,1.199c0.367,0.268,1.4,0.684,3.1,1.25c1.5,0.534,2.7,1.184,3.6,1.95
		c1.033,0.9,2.167,1.667,3.4,2.3c0.933,0.467,1.6,0.717,2,0.75c0.1,0,0.733,0.268,1.9,0.801c1.367,0.633,2.667,1.116,3.9,1.449
		c1.267,0.367,2.1,0.534,2.5,0.5c0.934,0,1.567,0.018,1.9,0.051c1.7,0.166,4.233,1.033,7.6,2.6c0.9,0.4,1.967,0.684,3.2,0.85
		c1.3,0.2,2.25,0.417,2.85,0.65c0.633,0.267,1.083,0.35,1.35,0.25c0.233-0.1,0.884,0.083,1.95,0.55l0.6,0.25l0.85-1.399l0.3,0.8
		c0.3,0.6,0.717,1.133,1.25,1.6l2.85,1.05l3.95,2.15L90.5,88.2c0.733,0.066,2.434,0.883,5.1,2.45c0.733,0.233,1.6,0.483,2.6,0.75
		c0.3,0.1,0.917,0.217,1.85,0.35c0.967,0.134,1.717,0.283,2.25,0.45c1.267,0.066,2.233,0.233,2.9,0.5c0.633,0.233,1.7,0.35,3.2,0.35
		l5.5,0.2c0.367,0.033,0.817,0.25,1.35,0.65c0.566,0.433,1,0.649,1.3,0.649c0.1,0,0.417,0.067,0.95,0.2
		c0.333,0.066,0.8,0.05,1.4-0.05c0.5-0.066,1.15-0.233,1.95-0.5c0.667-0.134,1.25,0.017,1.75,0.45l0.35,0.25
		c1.8,0.366,5.25,1.5,10.35,3.399c2.634,0.967,5.533,2.033,8.7,3.2c0.6,0.2,3.35,0.9,8.25,2.1c3.7,0.934,6.066,1.733,7.1,2.4
		l0.15,0.1c1.5,0.034,3.866,0.184,7.1,0.45c1.101-0.133,2.4-0.316,3.9-0.55c0.467-0.033,1.35-0.2,2.65-0.5
		c1.433-0.333,2.533-0.55,3.3-0.65c1.934-0.5,3.333-0.783,4.2-0.85c0.966-0.066,2.517-0.434,4.649-1.1l7.9-2.25
		c0.533-0.134,1.233-0.15,2.1-0.051c0.834,0.067,1.483,0.051,1.95-0.05c0.267-0.066,0.733-0.166,1.4-0.3
		c0.5-0.1,1.149-0.3,1.949-0.6c0.7-0.267,1.617-0.7,2.75-1.301c0.934-0.399,1.784-0.533,2.551-0.399l0.55,0.1
		c16.933-3.267,26.833-5.083,29.7-5.45c2.899-0.366,6.732-0.6,11.5-0.699c4.333-0.134,7.633-0.134,9.899,0l4,0.199l0.15,4.351
		c0.066,1.1,0.217,2.05,0.45,2.85c-1.634-1.233-2.601-2.083-2.9-2.55l-0.5-0.65c-1.2,1.768-2.3,3.018-3.3,3.75l-2.601,2v-3
		l-0.3-1.699c-0.233,1.233-0.733,2.183-1.5,2.85l-1.149,0.95c0-0.767-0.101-1.483-0.301-2.15l-0.3-1
		c-0.366,0.367-0.733,0.783-1.1,1.25c-0.733,0.934-1.134,1.667-1.2,2.2l-0.35,2l-1.601-3.2c-0.2-0.399-0.399-0.916-0.6-1.55
		l-0.2-0.8l-1.5,3.5c-0.233,0.667-0.517,1.217-0.85,1.649l-1.601-2.75l-1.8-2l0.05,1.601c0.267,2.533-0.116,3.116-1.149,1.75
		c-1.533-2.033-2.367-3.033-2.5-3c-0.467,0.066-1.033,0.083-1.7,0.05l-0.9-0.05l2.45,2.6c-1.7-0.267-3.033-0.583-4-0.95
		c-0.6-0.232-1.184-0.517-1.75-0.85l-0.7-0.4l0.75,1.95c0.567,1.367,1.033,2.233,1.4,2.601l0.85,0.85
		c-3.167-0.934-5.217-1.95-6.149-3.05l-2.5-2.75l0.199,1.7c0.167,1.267,0.334,2.217,0.5,2.85l0.5,2.05
		c-1.399-0.433-2.683-1.183-3.85-2.25c-0.7-0.633-1.267-1.283-1.7-1.95l-0.45-0.8c-0.033,1.967-0.517,3.483-1.449,4.55l-1.4,1.551
		c-0.267-1-0.533-1.817-0.8-2.45c-0.167-0.4-0.434-0.867-0.8-1.4l-0.551-0.7c-0.399,1.367-1.083,2.551-2.05,3.551
		c-0.566,0.6-1.35,1.133-2.35,1.6l-1.3,0.55c0.767-1.267,1.149-2.3,1.149-3.1l-0.149-1.851c-2.233,2.301-3.884,3.684-4.95,4.15
		l-1.65,0.7c0.434-1.3,0.601-2.15,0.5-2.55L199.9,104c-0.034,0.3-0.217,0.583-0.551,0.85c-0.6,0.567-1.583,0.867-2.949,0.9
		l-3.25,0.05l4.5,2.3c-0.5,0.167-1.117,0.284-1.851,0.351c-1.434,0.133-2.717-0.017-3.85-0.45c-1.134-0.4-2.167-0.833-3.101-1.3
		l-1-0.55l0.301,1.55c0.267,1.167,0.566,1.983,0.899,2.45l0.8,1.1c-1.399-0.267-2.6-0.883-3.6-1.85
		c-0.634-0.634-1.283-1.351-1.95-2.15l-0.8-1.05l-0.25,1.45c-0.134,1.1-0.134,2,0,2.699l0.25,1.65
		c-1.434-0.434-2.467-1.283-3.1-2.55l-1-1.9c-1,2.434-1.917,3.95-2.75,4.55l-1.25,0.851c0.1-0.467,0.017-1.25-0.25-2.351
		l-0.45-1.649c-0.834,1.3-1.967,2.149-3.4,2.55l-1.45,0.35c-0.466,0.967-0.683,1.834-0.649,2.601l0.149,1.8
		c-1.466-1.1-2.3-2.2-2.5-3.3v-0.05l-1.899,1.6l-0.101-1.2l-0.6,0.55l-1.95,1.301c0.434-1.301,0.667-2.283,0.7-2.95l-3.65,2.35
		c-0.033,0.733-0.033,1.334,0,1.8l-0.6-1.399l-0.1,0.1l-0.051-0.35c-0.466-1.167-0.733-1.95-0.8-2.351l-0.25-0.949
		c-1.033,1.633-1.934,2.717-2.7,3.25l-2,1.35l0.45-3.5l0.05-2.05c-0.333,1.333-0.8,2.25-1.399,2.75l-0.9,0.75
		c0.134-0.9,0.184-1.783,0.15-2.65L151.1,110c-0.267,0.3-0.566,0.65-0.899,1.05c-0.601,0.834-0.967,1.567-1.101,2.2l-0.5,2.2
		l-0.8-7.351l-1.45,3.551c-0.267,0.699-0.533,1.25-0.8,1.649l-0.649-3.8l-0.9-3l-0.2,1.9c-0.2,3.066-0.533,3.6-1,1.6
		c-0.733-2.9-1.133-4.366-1.2-4.4c-0.3-0.066-0.683-0.232-1.149-0.5l-0.601-0.399l1.25,3.899c-1.066-0.899-1.899-1.75-2.5-2.55
		l-1.399-2.3l0.2,2.55c0.166,1.834,0.35,3.017,0.55,3.55l0.45,1.301c-1.967-2.267-3.167-4.2-3.601-5.801l-1.25-4.1l-0.149,8.15
		c-0.867-1.033-1.601-2.367-2.2-4c-0.367-1.033-0.65-2.017-0.851-2.95l-0.199-1.101c-0.3,2.334-0.834,3.95-1.601,4.851l-1.15,1.35
		c0-1.267-0.05-2.333-0.15-3.2l-0.6-2.899c-0.466,1.467-1.083,2.583-1.85,3.35c-0.466,0.5-1.05,0.867-1.75,1.101l-0.95,0.199
		c0.667-1.232,1.066-2.333,1.2-3.3l0.15-2.2c-1.8,1.9-3.083,2.934-3.85,3.101l-1.15,0.2c0.466-1.334,0.7-2.267,0.7-2.801l-0.05-0.8
		c-0.067,0.334-0.217,0.601-0.45,0.8c-0.466,0.467-1.15,0.467-2.05,0l-2.15-1.1l2.65,4.3c-0.367,0-0.784-0.083-1.25-0.25
		c-1-0.333-1.833-0.967-2.5-1.899c-0.7-0.9-1.317-1.783-1.85-2.65l-0.6-1v1.95c0.034,1.434,0.117,2.483,0.25,3.149l0.35,1.601
		c-0.867-0.8-1.566-1.95-2.1-3.45c-0.333-0.967-0.65-2.05-0.95-3.25l-0.4-1.5l-0.35,1.6c-0.233,1.233-0.367,2.284-0.4,3.15
		l-0.1,2.05c-0.867-1-1.417-2.366-1.65-4.1l-0.35-2.55c-1.034,2.467-1.867,3.899-2.5,4.3l-0.9,0.55c0.1-0.5,0.15-1.45,0.15-2.85
		L101.9,97.1c-0.767,1.233-1.65,1.817-2.65,1.75l-1-0.1c-0.5,1.134-0.767,2.066-0.8,2.8l-0.2,2.2C96.417,101.95,96,100.367,96,99
		v-0.05l-1.3,1.149l0.1-1.399l-1.95,1.2c0.466-1.4,0.767-2.467,0.9-3.2l-3.5,1.85c0.434-1.066,0.7-2.066,0.8-3l-0.4-0.8L90.6,94.6
		c-0.867,0.768-1.667,1.117-2.4,1.051l-1.5-0.101l0.75-1.45c-0.1,0.167-0.667,0.051-1.7-0.35l-2.1-0.95l0.3,1.8
		c0.2,1.233,0.366,1.967,0.5,2.2c0.233,0.467-0.117,0.351-1.05-0.35c-0.933-0.7-1.733-1.667-2.4-2.9c-0.633-1.2-1.1-2.416-1.4-3.649
		l-0.25-1.5l-0.6,1.399c-0.434,1.033-0.7,1.834-0.8,2.4l-0.2,1.399c-0.667-0.6-1.033-1.55-1.1-2.85v-2.6
		c-1.367,3.033-2.383,4.683-3.05,4.949l-1,0.4c0.733-1.3,1.133-2.417,1.2-3.35L74,87.3c-0.5,1.867-1.083,2.983-1.75,3.351l-1,0.6
		c0.3-1.4,0.4-2.434,0.3-3.1l-0.15-1c-0.267,0.267-0.583,0.583-0.95,0.949c-0.667,0.7-1.134,1.301-1.4,1.801l-1,2.199
		c-0.1-1.767-0.083-3.199,0.05-4.3l0.5-2.25c-0.5,0.233-1.233,0.867-2.2,1.9c-0.566,0.633-1.05,1.083-1.45,1.35l-0.4,0.2l0.5-2.4
		c-0.2-0.033-0.433-0.017-0.7,0.051c-0.5,0.133-0.867,0.483-1.1,1.05c-0.333,0.934-0.7,1.583-1.1,1.95
		c-0.133-1-0.117-2.167,0.05-3.5l0.5-2.7c-1.567,1.866-2.767,3.017-3.6,3.45l-1.25,0.649l1.2-4.05c-0.933,0.5-1.633,0.6-2.1,0.3
		c-0.3-0.2-0.667-0.483-1.1-0.85L55.3,82.4l0.9,4.199c-1-1.267-1.75-2.366-2.25-3.3l-1.2-2.7L52.7,83.15
		c0.033,1.833,0.116,3.033,0.25,3.6l0.35,1.45c-1.767-2.833-2.8-5.101-3.1-6.8L49.35,77l-0.9,7.85c-0.8-1.232-1.417-2.75-1.85-4.55
		c-0.267-1.1-0.45-2.133-0.55-3.1l-0.1-1.15c-0.534,2.167-1.217,3.567-2.05,4.2l-1.25,0.95c0.1-1.233,0.133-2.283,0.1-3.15
		c0-0.533-0.05-1.2-0.15-2L42.45,75c-0.6,1.3-1.317,2.217-2.15,2.75c-0.533,0.333-1.167,0.5-1.9,0.5l-0.95-0.15
		c0.8-1,1.3-1.933,1.5-2.8l0.4-2.1c-1.967,1.267-3.35,1.85-4.15,1.75L34,74.85c0.6-1.166,0.917-2.017,0.95-2.55L35,71.9l-0.8,0.75
		c-0.6,0.6-1.1,1-1.5,1.199L32.3,74l0.55-2.2L32.6,71.65c-0.733-0.101-1.267,0.217-1.6,0.949c-0.367,0.9-0.75,1.518-1.15,1.851
		c-0.133-1.033-0.1-2.2,0.1-3.5l0.6-2.601c-1.633,1.7-2.866,2.717-3.7,3.051l-1.25,0.55L26.9,68c-0.933,0.434-1.633,0.483-2.1,0.15
		c-0.3-0.2-0.667-0.533-1.1-1l-0.5-0.601l0.75,4.3c-0.934-1.333-1.65-2.5-2.15-3.5c-0.3-0.6-0.583-1.25-0.85-1.949l-0.3-0.851
		l-0.1,2.55c-0.033,1.834,0.017,3.034,0.15,3.601l0.3,1.45c-1.667-2.967-2.633-5.317-2.9-7.051L17.3,60.7l-1.1,7.7
		c-0.733-1.334-1.3-2.9-1.7-4.7c-0.233-1.134-0.4-2.184-0.5-3.15l-0.05-1.15c-0.567,2.1-1.284,3.417-2.15,3.95l-1.3,0.85
		c0.133-1.233,0.2-2.267,0.2-3.1c0.033-0.534,0-1.2-0.1-2l-0.1-1.05c-0.633,1.2-1.383,2.034-2.25,2.5c-0.533,0.3-1.167,0.4-1.9,0.3
		l-0.95-0.2C6.233,59.75,6.767,58.867,7,58l0.4-2.05c-2,1.066-3.4,1.517-4.2,1.35l-1.15-0.25c0.6-1.1,0.934-1.9,1-2.4l0.1-0.8
		c-0.1,0.267-0.283,0.466-0.55,0.6c-0.534,0.233-1.217-0.05-2.05-0.85L0,53.1C0.6,50.7,1.05,48.783,1.35,47.35z"/>
	<g>
		
			<linearGradient id="SVGID_2_" gradientUnits="userSpaceOnUse" x1="-52.0835" y1="-51.5449" x2="8.1245" y2="-51.5449" gradientTransform="matrix(-0.5315 0.8471 -0.8471 -0.5315 2.686977e-004 1.509190e-004)">
			<stop  offset="0" style="stop-color:#5D8F10"/>
			<stop  offset="1" style="stop-color:#537811"/>
		</linearGradient>
		<path style="fill-rule:evenodd;clip-rule:evenodd;fill:url(#SVGID_2_);" d="M49.1,17.05c1.433,0.6,2.367,1.25,2.8,1.95
			c0.4,0.667,0.167,1.066-0.7,1.2c-0.8,0.133-1.534,0.033-2.2-0.3c-0.6-0.333-1.267-0.9-2-1.7c-0.667-0.733-0.684-1.2-0.05-1.4
			C47.517,16.6,48.233,16.684,49.1,17.05z"/>
		
			<linearGradient id="SVGID_3_" gradientUnits="userSpaceOnUse" x1="-52.0742" y1="-260.0518" x2="8.1338" y2="-260.0518" gradientTransform="matrix(-0.5315 0.8471 -0.8471 -0.5315 2.686977e-004 1.509190e-004)">
			<stop  offset="0" style="stop-color:#5D8F10"/>
			<stop  offset="1" style="stop-color:#537811"/>
		</linearGradient>
		<path style="fill-rule:evenodd;clip-rule:evenodd;fill:url(#SVGID_3_);" d="M254.9,85.1c1.066,0.567,1.85,1.65,2.35,3.25
			c0.5,1.667,0.066,2.518-1.3,2.551c-1.333,0.033-2.5-0.351-3.5-1.15c-0.333-0.3-1.65-1.684-3.95-4.15
			c-1.6-1.699-1.3-2.433,0.9-2.199C251.4,83.6,253.233,84.167,254.9,85.1z"/>
		
			<linearGradient id="SVGID_4_" gradientUnits="userSpaceOnUse" x1="-52.0942" y1="-241.2285" x2="8.1137" y2="-241.2285" gradientTransform="matrix(-0.5315 0.8471 -0.8471 -0.5315 2.686977e-004 1.509190e-004)">
			<stop  offset="0" style="stop-color:#5D8F10"/>
			<stop  offset="1" style="stop-color:#537811"/>
		</linearGradient>
		<path style="fill-rule:evenodd;clip-rule:evenodd;fill:url(#SVGID_4_);" d="M237.3,80c2.5,0.9,3.167,1.867,2,2.9
			c-1.2,1.033-2.616,1.3-4.25,0.8c-1.233-0.4-2.283-0.9-3.149-1.5c-0.2-0.134-1.134-0.867-2.801-2.2
			c-1.133-0.934-0.649-1.4,1.45-1.4C232.65,78.634,234.9,79.1,237.3,80z"/>
		
			<linearGradient id="SVGID_5_" gradientUnits="userSpaceOnUse" x1="-52.0752" y1="-97.8921" x2="8.1328" y2="-97.8921" gradientTransform="matrix(-0.5315 0.8471 -0.8471 -0.5315 2.686977e-004 1.509190e-004)">
			<stop  offset="0" style="stop-color:#5D8F10"/>
			<stop  offset="1" style="stop-color:#537811"/>
		</linearGradient>
		<path style="fill-rule:evenodd;clip-rule:evenodd;fill:url(#SVGID_5_);" d="M107.1,16.7c1.733,1.566,1.6,2.167-0.4,1.8
			c-1.9-0.367-3.467-0.983-4.7-1.85c-1.033-0.767-0.733-1.233,0.9-1.4C104.5,15.117,105.9,15.6,107.1,16.7z"/>
		
			<linearGradient id="SVGID_6_" gradientUnits="userSpaceOnUse" x1="-52.0259" y1="-82.6631" x2="8.1476" y2="-82.6631" gradientTransform="matrix(-0.5314 0.8471 -0.8471 -0.5314 3.862381e-005 9.167194e-005)">
			<stop  offset="0" style="stop-color:#5D8F10"/>
			<stop  offset="1" style="stop-color:#537811"/>
		</linearGradient>
		<path style="fill-rule:evenodd;clip-rule:evenodd;fill:url(#SVGID_6_);" d="M83.75,18c-1.3-0.633-1.267-1.1,0.1-1.4
			c1.367-0.3,2.667-0.117,3.9,0.55c2.4,1.3,2.717,1.95,0.95,1.95C86.934,19.133,85.283,18.767,83.75,18z"/>
		
			<linearGradient id="SVGID_7_" gradientUnits="userSpaceOnUse" x1="-52.1025" y1="-161.6865" x2="8.1054" y2="-161.6865" gradientTransform="matrix(-0.5315 0.8471 -0.8471 -0.5315 2.686977e-004 1.509190e-004)">
			<stop  offset="0" style="stop-color:#5D8F10"/>
			<stop  offset="1" style="stop-color:#537811"/>
		</linearGradient>
		<path style="fill-rule:evenodd;clip-rule:evenodd;fill:url(#SVGID_7_);" d="M149.8,67.2c1.167,0.866,1.601,1.5,1.3,1.899
			c-0.233,0.301-0.85,0.434-1.85,0.4c-0.866-0.033-1.75-0.333-2.65-0.9c-0.966-0.633-1.383-1.199-1.25-1.699
			c0.167-0.5,0.767-0.717,1.801-0.65C148.15,66.316,149.033,66.634,149.8,67.2z"/>
		
			<linearGradient id="SVGID_8_" gradientUnits="userSpaceOnUse" x1="-52.0503" y1="-56.7017" x2="8.1577" y2="-56.7017" gradientTransform="matrix(-0.5315 0.8471 -0.8471 -0.5315 2.686977e-004 1.509190e-004)">
			<stop  offset="0" style="stop-color:#5D8F10"/>
			<stop  offset="1" style="stop-color:#537811"/>
		</linearGradient>
		<path style="fill-rule:evenodd;clip-rule:evenodd;fill:url(#SVGID_8_);" d="M44.1,33.15c-1.067-0.7-1.25-1.5-0.55-2.4
			c0.733-0.9,2.017-1.167,3.85-0.8c1.133,0.233,1.9,0.883,2.3,1.95c0.4,0.967,0.366,1.717-0.1,2.25
			c-0.434,0.434-1.217,0.55-2.35,0.35C46.15,34.3,45.1,33.85,44.1,33.15z"/>
		
			<linearGradient id="SVGID_9_" gradientUnits="userSpaceOnUse" x1="-52.063" y1="-184.1836" x2="8.145" y2="-184.1836" gradientTransform="matrix(-0.5315 0.8471 -0.8471 -0.5315 2.686977e-004 1.509190e-004)">
			<stop  offset="0" style="stop-color:#5D8F10"/>
			<stop  offset="1" style="stop-color:#537811"/>
		</linearGradient>
		<path style="fill-rule:evenodd;clip-rule:evenodd;fill:url(#SVGID_9_);" d="M177.75,66.5c1.866,0.5,2.5,1.283,1.9,2.35
			c-0.567,1-1.617,1.567-3.15,1.7c-1.333,0.134-2.767-0.1-4.3-0.7c-1.5-0.6-2.334-1.267-2.5-2c-0.167-0.732,0.7-1.25,2.6-1.55
			C174.2,65.967,176.017,66.033,177.75,66.5z"/>
		
			<linearGradient id="SVGID_10_" gradientUnits="userSpaceOnUse" x1="-52.0986" y1="-174.3818" x2="8.1093" y2="-174.3818" gradientTransform="matrix(-0.5315 0.8471 -0.8471 -0.5315 2.686977e-004 1.509190e-004)">
			<stop  offset="0" style="stop-color:#5D8F10"/>
			<stop  offset="1" style="stop-color:#537811"/>
		</linearGradient>
		<path style="fill-rule:evenodd;clip-rule:evenodd;fill:url(#SVGID_10_);" d="M168.85,59.75c2.434,0.867,3.15,1.767,2.15,2.7
			c-1,0.933-2.25,1.25-3.75,0.95c-1.134-0.2-2.116-0.55-2.95-1.05c-0.767-0.5-1.116-0.95-1.05-1.35
			c0.066-0.434,0.717-0.833,1.95-1.2C166.533,59.4,167.75,59.383,168.85,59.75z"/>
		
			<linearGradient id="SVGID_11_" gradientUnits="userSpaceOnUse" x1="-52.0635" y1="-223.8403" x2="8.1445" y2="-223.8403" gradientTransform="matrix(-0.5315 0.8471 -0.8471 -0.5315 2.686977e-004 1.509190e-004)">
			<stop  offset="0" style="stop-color:#5D8F10"/>
			<stop  offset="1" style="stop-color:#537811"/>
		</linearGradient>
		<path style="fill-rule:evenodd;clip-rule:evenodd;fill:url(#SVGID_11_);" d="M225.6,59.7c1.634,0.6,3.018,1.433,4.15,2.5
			c1.066,1.033,1.184,1.5,0.35,1.4c-4.566-0.467-7.583-1.184-9.05-2.15c-1.2-0.8-1.116-1.434,0.25-1.9
			C222.633,59.117,224.066,59.167,225.6,59.7z"/>
		
			<linearGradient id="SVGID_12_" gradientUnits="userSpaceOnUse" x1="-52.0752" y1="-73.8623" x2="8.1328" y2="-73.8623" gradientTransform="matrix(-0.5315 0.8471 -0.8471 -0.5315 2.686977e-004 1.509190e-004)">
			<stop  offset="0" style="stop-color:#5D8F10"/>
			<stop  offset="1" style="stop-color:#537811"/>
		</linearGradient>
		<path style="fill-rule:evenodd;clip-rule:evenodd;fill:url(#SVGID_12_);" d="M84.75,10.65c-0.733,0-1.517-0.233-2.35-0.7
			c-1.267-0.733-2.466-1.417-3.6-2.05c-1.566-0.867-1.5-1.383,0.2-1.55c1.667-0.167,3.066,0.033,4.2,0.6
			c1.733,0.833,2.7,1.683,2.9,2.55C86.267,10.3,85.816,10.684,84.75,10.65z"/>
		
			<linearGradient id="SVGID_13_" gradientUnits="userSpaceOnUse" x1="-52.0635" y1="-118.3037" x2="8.1445" y2="-118.3037" gradientTransform="matrix(-0.5315 0.8471 -0.8471 -0.5315 2.686977e-004 1.509190e-004)">
			<stop  offset="0" style="stop-color:#5D8F10"/>
			<stop  offset="1" style="stop-color:#537811"/>
		</linearGradient>
		<path style="fill-rule:evenodd;clip-rule:evenodd;fill:url(#SVGID_13_);" d="M114.2,44.05c0.733,0.833,0.983,1.35,0.75,1.55
			c-0.134,0.133-0.583,0.1-1.35-0.1c-1.267-0.3-2.617-0.9-4.05-1.8c-1.167-0.7-0.933-1.1,0.7-1.2
			C111.816,42.4,113.133,42.917,114.2,44.05z"/>
		
			<linearGradient id="SVGID_14_" gradientUnits="userSpaceOnUse" x1="-52.0776" y1="-213.7148" x2="8.1303" y2="-213.7148" gradientTransform="matrix(-0.5315 0.8471 -0.8471 -0.5315 2.686977e-004 1.509190e-004)">
			<stop  offset="0" style="stop-color:#5D8F10"/>
			<stop  offset="1" style="stop-color:#537811"/>
		</linearGradient>
		<path style="fill-rule:evenodd;clip-rule:evenodd;fill:url(#SVGID_14_);" d="M204.25,79.9c-1.467,0.133-2.467-0.017-3-0.45
			c-0.1-0.101-0.583-0.816-1.45-2.15c-0.6-0.933-0.017-1.433,1.75-1.5c1.7-0.033,3.3,0.317,4.8,1.05
			c1.334,0.667,1.75,1.301,1.25,1.9S205.983,79.733,204.25,79.9z"/>
		
			<linearGradient id="SVGID_15_" gradientUnits="userSpaceOnUse" x1="-52.0776" y1="-78.3003" x2="8.1303" y2="-78.3003" gradientTransform="matrix(-0.5315 0.8471 -0.8471 -0.5315 2.686977e-004 1.509190e-004)">
			<stop  offset="0" style="stop-color:#5D8F10"/>
			<stop  offset="1" style="stop-color:#537811"/>
		</linearGradient>
		<path style="fill-rule:evenodd;clip-rule:evenodd;fill:url(#SVGID_15_);" d="M78.45,23.9c2.167,1.3,2.85,2.367,2.05,3.2
			c-0.7,0.7-2.117,1.033-4.25,1c-1.6-0.034-2.7-0.45-3.3-1.25c-0.434-0.567-0.65-1.367-0.65-2.4c-0.033-0.867,0.55-1.417,1.75-1.65
			C75.383,22.566,76.85,22.934,78.45,23.9z"/>
		
			<linearGradient id="SVGID_16_" gradientUnits="userSpaceOnUse" x1="-52.0737" y1="-85.0054" x2="8.1342" y2="-85.0054" gradientTransform="matrix(-0.5315 0.8471 -0.8471 -0.5315 2.686977e-004 1.509190e-004)">
			<stop  offset="0" style="stop-color:#5D8F10"/>
			<stop  offset="1" style="stop-color:#537811"/>
		</linearGradient>
		<path style="fill-rule:evenodd;clip-rule:evenodd;fill:url(#SVGID_16_);" d="M83.15,31.05c1.034,1.067,0.9,1.75-0.4,2.05
			c-1.233,0.233-2.45,0.1-3.65-0.4c-0.934-0.4-1.483-0.917-1.65-1.55c-0.134-0.5,0.033-0.966,0.5-1.4
			c0.533-0.467,1.216-0.65,2.05-0.55C81.033,29.367,82.083,29.983,83.15,31.05z"/>
		
			<linearGradient id="SVGID_17_" gradientUnits="userSpaceOnUse" x1="-52.0942" y1="-72.6689" x2="8.1137" y2="-72.6689" gradientTransform="matrix(-0.5315 0.8471 -0.8471 -0.5315 2.686977e-004 1.509190e-004)">
			<stop  offset="0" style="stop-color:#5D8F10"/>
			<stop  offset="1" style="stop-color:#537811"/>
		</linearGradient>
		<path style="fill-rule:evenodd;clip-rule:evenodd;fill:url(#SVGID_17_);" d="M69.85,26.55c1.566,0.8,2.05,1.6,1.45,2.4
			c-0.533,0.733-1.417,1.083-2.65,1.05c-0.867-0.033-1.667-0.417-2.4-1.15c-0.5-0.5-0.85-1.034-1.05-1.6
			c-0.134-0.434,0.333-0.8,1.4-1.1C67.733,25.883,68.816,26.017,69.85,26.55z"/>
		
			<linearGradient id="SVGID_18_" gradientUnits="userSpaceOnUse" x1="-52.0986" y1="-141.251" x2="8.1093" y2="-141.251" gradientTransform="matrix(-0.5315 0.8471 -0.8471 -0.5315 2.686977e-004 1.509190e-004)">
			<stop  offset="0" style="stop-color:#5D8F10"/>
			<stop  offset="1" style="stop-color:#537811"/>
		</linearGradient>
		<path style="fill-rule:evenodd;clip-rule:evenodd;fill:url(#SVGID_18_);" d="M131.3,47.7c0.2-0.634,0.934-1,2.2-1.1
			c1.267-0.133,2.45,0.083,3.55,0.65c3.601,1.833,4.65,2.934,3.15,3.3c-2.5,0-4.05,0.034-4.65,0.1
			c-0.866,0.1-1.833-0.216-2.899-0.95C131.55,48.967,131.1,48.3,131.3,47.7z"/>
		
			<linearGradient id="SVGID_19_" gradientUnits="userSpaceOnUse" x1="-52.0972" y1="-149.3555" x2="8.1108" y2="-149.3555" gradientTransform="matrix(-0.5315 0.8471 -0.8471 -0.5315 2.686977e-004 1.509190e-004)">
			<stop  offset="0" style="stop-color:#5D8F10"/>
			<stop  offset="1" style="stop-color:#537811"/>
		</linearGradient>
		<path style="fill-rule:evenodd;clip-rule:evenodd;fill:url(#SVGID_19_);" d="M144.5,52.7c1.934,0.633,2.3,1.45,1.1,2.45
			c-1.166,1-2.416,1.3-3.75,0.9c-1.233-0.366-2.083-0.75-2.55-1.15c-0.5-0.433-0.649-0.95-0.45-1.55
			c0.2-0.633,0.784-1.017,1.75-1.15C141.634,52.033,142.934,52.2,144.5,52.7z"/>
		
			<linearGradient id="SVGID_20_" gradientUnits="userSpaceOnUse" x1="-52.0605" y1="-47.3369" x2="8.1474" y2="-47.3369" gradientTransform="matrix(-0.5315 0.8471 -0.8471 -0.5315 2.686977e-004 1.509190e-004)">
			<stop  offset="0" style="stop-color:#5D8F10"/>
			<stop  offset="1" style="stop-color:#537811"/>
		</linearGradient>
		<path style="fill-rule:evenodd;clip-rule:evenodd;fill:url(#SVGID_20_);" d="M32.15,41.35c1.133,0.733,1.05,1.433-0.25,2.1
			c-1.267,0.667-2.65,0.433-4.15-0.7c-1.633-1.167-1.767-1.983-0.4-2.45C28.717,39.867,30.316,40.217,32.15,41.35z"/>
		
			<linearGradient id="SVGID_21_" gradientUnits="userSpaceOnUse" x1="-52.0928" y1="-41.6572" x2="8.1152" y2="-41.6572" gradientTransform="matrix(-0.5315 0.8471 -0.8471 -0.5315 2.686977e-004 1.509190e-004)">
			<stop  offset="0" style="stop-color:#5D8F10"/>
			<stop  offset="1" style="stop-color:#537811"/>
		</linearGradient>
		<path style="fill-rule:evenodd;clip-rule:evenodd;fill:url(#SVGID_21_);" d="M24.95,42.1c0.833,0.633,0.8,1.233-0.1,1.8
			c-0.967,0.6-2.217,0.517-3.75-0.25c-2.3-1.167-2.317-2.017-0.05-2.55C22.316,40.767,23.617,41.1,24.95,42.1z"/>
		
			<linearGradient id="SVGID_22_" gradientUnits="userSpaceOnUse" x1="-52.0854" y1="-58.4814" x2="8.1225" y2="-58.4814" gradientTransform="matrix(-0.5315 0.8471 -0.8471 -0.5315 2.686977e-004 1.509190e-004)">
			<stop  offset="0" style="stop-color:#5D8F10"/>
			<stop  offset="1" style="stop-color:#537811"/>
		</linearGradient>
		<path style="fill-rule:evenodd;clip-rule:evenodd;fill:url(#SVGID_22_);" d="M34.65,56c0.7,0.3,1.133,0.717,1.3,1.25
			c0.167,0.566-0.05,0.883-0.65,0.95c-0.6,0.066-1.333-0.067-2.2-0.4c-0.867-0.333-1.417-0.667-1.65-1
			c-0.434-0.633-0.55-1.116-0.35-1.45C31.4,54.85,32.583,55.066,34.65,56z"/>
		
			<linearGradient id="SVGID_23_" gradientUnits="userSpaceOnUse" x1="-52.0693" y1="-142.8242" x2="8.1386" y2="-142.8242" gradientTransform="matrix(-0.5315 0.8471 -0.8471 -0.5315 2.686977e-004 1.509190e-004)">
			<stop  offset="0" style="stop-color:#5D8F10"/>
			<stop  offset="1" style="stop-color:#537811"/>
		</linearGradient>
		<path style="fill-rule:evenodd;clip-rule:evenodd;fill:url(#SVGID_23_);" d="M127.2,72c0.9,1.033,0.983,1.517,0.25,1.45
			c-1.6-0.134-2.784-0.267-3.55-0.4c-1.9-0.3-3.283-0.783-4.15-1.45c-0.967-0.767-0.867-1.416,0.3-1.949c1.167-0.5,2.4-0.5,3.7,0
			C125.117,70.15,126.267,70.934,127.2,72z"/>
		
			<linearGradient id="SVGID_24_" gradientUnits="userSpaceOnUse" x1="-52.1001" y1="-154.2593" x2="8.1079" y2="-154.2593" gradientTransform="matrix(-0.5315 0.8471 -0.8471 -0.5315 2.686977e-004 1.509190e-004)">
			<stop  offset="0" style="stop-color:#5D8F10"/>
			<stop  offset="1" style="stop-color:#537811"/>
		</linearGradient>
		<path style="fill-rule:evenodd;clip-rule:evenodd;fill:url(#SVGID_24_);" d="M134,76.85c2.2,0.667,3.05,1.551,2.55,2.65
			c-0.467,1-1.316,1.483-2.55,1.45c-2.167,0-3.65-0.967-4.45-2.9c-0.4-0.933-0.083-1.483,0.95-1.649
			C131.434,76.267,132.6,76.417,134,76.85z"/>
		
			<linearGradient id="SVGID_25_" gradientUnits="userSpaceOnUse" x1="-52.0537" y1="-85.6885" x2="8.1543" y2="-85.6885" gradientTransform="matrix(-0.5315 0.8471 -0.8471 -0.5315 2.686977e-004 1.509190e-004)">
			<stop  offset="0" style="stop-color:#5D8F10"/>
			<stop  offset="1" style="stop-color:#537811"/>
		</linearGradient>
		<path style="fill-rule:evenodd;clip-rule:evenodd;fill:url(#SVGID_25_);" d="M74.55,42.15c1.833,0.867,2.417,1.567,1.75,2.1
			c-0.5,0.367-1.4,0.566-2.7,0.6c-0.8,0.033-1.417-0.2-1.85-0.7c-0.367-0.4-0.5-0.833-0.4-1.3c0.1-0.4,0.517-0.684,1.25-0.85
			S73.983,41.883,74.55,42.15z"/>
		
			<linearGradient id="SVGID_26_" gradientUnits="userSpaceOnUse" x1="-52.0581" y1="-145.2231" x2="8.1499" y2="-145.2231" gradientTransform="matrix(-0.5315 0.8471 -0.8471 -0.5315 2.686977e-004 1.509190e-004)">
			<stop  offset="0" style="stop-color:#5D8F10"/>
			<stop  offset="1" style="stop-color:#537811"/>
		</linearGradient>
		<path style="fill-rule:evenodd;clip-rule:evenodd;fill:url(#SVGID_26_);" d="M128.45,78.4c0.433,0.866-0.25,1.267-2.05,1.199
			c-1.833-0.066-3.1-0.199-3.8-0.399c-0.934-0.233-2.3-0.851-4.1-1.851c-1.767-0.966-1.8-1.767-0.1-2.399
			c1.7-0.634,3.35-0.601,4.95,0.1C126.283,76.35,127.983,77.467,128.45,78.4z"/>
		
			<linearGradient id="SVGID_27_" gradientUnits="userSpaceOnUse" x1="-52.0752" y1="-116.0161" x2="8.1328" y2="-116.0161" gradientTransform="matrix(-0.5315 0.8471 -0.8471 -0.5315 2.686977e-004 1.509190e-004)">
			<stop  offset="0" style="stop-color:#5D8F10"/>
			<stop  offset="1" style="stop-color:#537811"/>
		</linearGradient>
		<path style="fill-rule:evenodd;clip-rule:evenodd;fill:url(#SVGID_27_);" d="M102.6,53.2c2.8,1,4.633,2.066,5.5,3.2
			c0.733,0.967,0.6,1.7-0.4,2.2c-0.7,0.333-1.583,0.267-2.65-0.2c-1.233-0.633-2.216-1.1-2.95-1.4
			c-1.267-0.467-2.217-0.867-2.85-1.2c-0.9-0.5-1.8-1.15-2.7-1.95c-0.966-0.9-0.733-1.434,0.7-1.6
			C98.684,52.117,100.467,52.434,102.6,53.2z"/>
		
			<linearGradient id="SVGID_28_" gradientUnits="userSpaceOnUse" x1="-52.0903" y1="-172.6279" x2="8.1176" y2="-172.6279" gradientTransform="matrix(-0.5315 0.8471 -0.8471 -0.5315 2.686977e-004 1.509190e-004)">
			<stop  offset="0" style="stop-color:#5D8F10"/>
			<stop  offset="1" style="stop-color:#537811"/>
		</linearGradient>
		<path style="fill-rule:evenodd;clip-rule:evenodd;fill:url(#SVGID_28_);" d="M150.8,86.7c1.566,0.8,2.066,1.667,1.5,2.6
			c-0.533,0.934-1.45,1.2-2.75,0.8c-1.033-0.333-1.916-0.8-2.649-1.399c-0.467-0.367-1.051-0.95-1.75-1.75
			c-0.5-0.566,0.066-0.884,1.699-0.95C148.483,85.967,149.8,86.2,150.8,86.7z"/>
		
			<linearGradient id="SVGID_29_" gradientUnits="userSpaceOnUse" x1="-52.0747" y1="-172.7891" x2="8.1333" y2="-172.7891" gradientTransform="matrix(-0.5315 0.8471 -0.8471 -0.5315 2.686977e-004 1.509190e-004)">
			<stop  offset="0" style="stop-color:#5D8F10"/>
			<stop  offset="1" style="stop-color:#537811"/>
		</linearGradient>
		<path style="fill-rule:evenodd;clip-rule:evenodd;fill:url(#SVGID_29_);" d="M148.85,92.55c0.934,0.667,0.784,1.267-0.449,1.8
			c-1.233,0.534-2.733,0.367-4.5-0.5c-1.667-0.8-2.233-1.449-1.7-1.949c0.267-0.233,0.934-0.45,2-0.65
			C145.733,90.983,147.283,91.417,148.85,92.55z"/>
		
			<linearGradient id="SVGID_30_" gradientUnits="userSpaceOnUse" x1="-52.0498" y1="-170.6753" x2="8.1582" y2="-170.6753" gradientTransform="matrix(-0.5315 0.8471 -0.8471 -0.5315 2.686977e-004 1.509190e-004)">
			<stop  offset="0" style="stop-color:#5D8F10"/>
			<stop  offset="1" style="stop-color:#537811"/>
		</linearGradient>
		<path style="fill-rule:evenodd;clip-rule:evenodd;fill:url(#SVGID_30_);" d="M153.6,75.2c1.634,0.267,2.767,0.95,3.4,2.05
			c0.634,1.066,0.417,1.7-0.65,1.9c-0.933,0.199-2.233,0.017-3.899-0.551c-1.601-0.533-2.783-1.133-3.55-1.8
			c-0.634-0.566-0.301-1.033,1-1.399C151.167,75.066,152.4,75,153.6,75.2z"/>
		
			<linearGradient id="SVGID_31_" gradientUnits="userSpaceOnUse" x1="-52.0928" y1="-101.8389" x2="8.1152" y2="-101.8389" gradientTransform="matrix(-0.5315 0.8471 -0.8471 -0.5315 2.686977e-004 1.509190e-004)">
			<stop  offset="0" style="stop-color:#5D8F10"/>
			<stop  offset="1" style="stop-color:#537811"/>
		</linearGradient>
		<path style="fill-rule:evenodd;clip-rule:evenodd;fill:url(#SVGID_31_);" d="M74.65,71.25c1.3,0.533,2.217,1.3,2.75,2.3
			c0.567,1.101,0.3,1.867-0.8,2.3c-1.1,0.467-2.067,0.567-2.9,0.301c-0.667-0.2-1.617-0.817-2.85-1.851
			c-1.067-0.899-0.983-1.767,0.25-2.6C72.3,70.9,73.483,70.75,74.65,71.25z"/>
		
			<linearGradient id="SVGID_32_" gradientUnits="userSpaceOnUse" x1="-52.061" y1="-89.9048" x2="8.1469" y2="-89.9048" gradientTransform="matrix(-0.5315 0.8471 -0.8471 -0.5315 2.686977e-004 1.509190e-004)">
			<stop  offset="0" style="stop-color:#5D8F10"/>
			<stop  offset="1" style="stop-color:#537811"/>
		</linearGradient>
		<path style="fill-rule:evenodd;clip-rule:evenodd;fill:url(#SVGID_32_);" d="M65.4,67.4c1.1,0.566,1.5,1.116,1.2,1.649
			c-0.3,0.533-1.1,0.884-2.4,1.05c-1.1,0.134-1.884,0.018-2.35-0.35c-0.133-0.133-0.583-0.767-1.35-1.9
			c-0.566-0.8-0.184-1.232,1.15-1.3C62.95,66.517,64.2,66.8,65.4,67.4z"/>
		
			<linearGradient id="SVGID_33_" gradientUnits="userSpaceOnUse" x1="-52.0664" y1="-119.8564" x2="8.1416" y2="-119.8564" gradientTransform="matrix(-0.5315 0.8471 -0.8471 -0.5315 2.686977e-004 1.509190e-004)">
			<stop  offset="0" style="stop-color:#5D8F10"/>
			<stop  offset="1" style="stop-color:#537811"/>
		</linearGradient>
		<path style="fill-rule:evenodd;clip-rule:evenodd;fill:url(#SVGID_33_);" d="M91.95,78.8c1.866,0.867,2.45,1.533,1.75,2
			c-0.5,0.334-1.4,0.5-2.7,0.5c-0.8,0-1.417-0.233-1.85-0.7c-0.367-0.399-0.5-0.816-0.4-1.25c0.1-0.366,0.517-0.616,1.25-0.75
			C90.733,78.467,91.383,78.533,91.95,78.8z"/>
		
			<linearGradient id="SVGID_34_" gradientUnits="userSpaceOnUse" x1="-52.0503" y1="-97.7949" x2="8.1232" y2="-97.7949" gradientTransform="matrix(-0.5314 0.8471 -0.8471 -0.5314 3.862381e-005 9.167194e-005)">
			<stop  offset="0" style="stop-color:#5D8F10"/>
			<stop  offset="1" style="stop-color:#537811"/>
		</linearGradient>
		<path style="fill-rule:evenodd;clip-rule:evenodd;fill:url(#SVGID_34_);" d="M74.35,69.45c0.867,0.633,0.783,1.217-0.25,1.75
			c-1.034,0.566-2.367,0.45-4-0.351c-1.534-0.732-2.083-1.333-1.65-1.8c0.2-0.267,0.767-0.517,1.7-0.75
			C71.55,68.033,72.95,68.417,74.35,69.45z"/>
		
			<linearGradient id="SVGID_35_" gradientUnits="userSpaceOnUse" x1="-52.0605" y1="-149.6333" x2="8.1474" y2="-149.6333" gradientTransform="matrix(-0.5315 0.8471 -0.8471 -0.5315 2.686977e-004 1.509190e-004)">
			<stop  offset="0" style="stop-color:#5D8F10"/>
			<stop  offset="1" style="stop-color:#537811"/>
		</linearGradient>
		<path style="fill-rule:evenodd;clip-rule:evenodd;fill:url(#SVGID_35_);" d="M121.55,91.95c-2.333-0.767-5.033-1.483-8.1-2.15
			c-0.167-0.566,0.433-0.816,1.8-0.75c1.367,0.033,2.95,0.384,4.75,1.05c2.7,1,4.467,2,5.3,3L121.55,91.95z"/>
		
			<linearGradient id="SVGID_36_" gradientUnits="userSpaceOnUse" x1="-52.0977" y1="-228.0732" x2="8.1103" y2="-228.0732" gradientTransform="matrix(-0.5315 0.8471 -0.8471 -0.5315 2.686977e-004 1.509190e-004)">
			<stop  offset="0" style="stop-color:#5D8F10"/>
			<stop  offset="1" style="stop-color:#537811"/>
		</linearGradient>
		<path style="fill-rule:evenodd;clip-rule:evenodd;fill:url(#SVGID_36_);" d="M210.5,93.9c2.167,0.967,2.8,1.699,1.9,2.199
			c-0.7,0.367-1.851,0.534-3.45,0.5c-0.967-0.033-1.7-0.3-2.2-0.8c-0.434-0.433-0.55-0.883-0.35-1.35
			c0.166-0.4,0.733-0.667,1.699-0.8C209.033,93.517,209.833,93.6,210.5,93.9z"/>
		
			<linearGradient id="SVGID_37_" gradientUnits="userSpaceOnUse" x1="-52.0801" y1="-194.1133" x2="8.1279" y2="-194.1133" gradientTransform="matrix(-0.5315 0.8471 -0.8471 -0.5315 2.686977e-004 1.509190e-004)">
			<stop  offset="0" style="stop-color:#5D8F10"/>
			<stop  offset="1" style="stop-color:#537811"/>
		</linearGradient>
		<path style="fill-rule:evenodd;clip-rule:evenodd;fill:url(#SVGID_37_);" d="M171.1,92.75c1.5,0.5,2.15,1.2,1.95,2.1
			c-0.2,0.9-0.783,1.301-1.75,1.2c-0.8-0.066-1.733-0.383-2.8-0.95c-1-0.566-1.533-1.017-1.6-1.35
			c-0.067-0.366,0.433-0.684,1.5-0.95C169.467,92.533,170.366,92.517,171.1,92.75z"/>
	</g>
</g>
</svg>
