<?xml version="1.0" encoding="iso-8859-1"?>
<!-- Generator: Adobe Illustrator 15.1.0, SVG Export Plug-In . SVG Version: 6.00 Build 0)  -->
<!DOCTYPE svg PUBLIC "-//W3C//DTD SVG 1.1//EN" "http://www.w3.org/Graphics/SVG/1.1/DTD/svg11.dtd">
<svg version="1.1" id="FlashAICB" xmlns="http://www.w3.org/2000/svg" xmlns:xlink="http://www.w3.org/1999/xlink" x="0px" y="0px"
	 width="343.9px" height="135.25px" viewBox="0 0 343.9 135.25" style="enable-background:new 0 0 343.9 135.25;"
	 xml:space="preserve">
<symbol  id="FlashAICB_x2F_Layer_5_x2F__x3C_Group_x3E_" viewBox="-0.005 -135.321 343.912 135.284">
	<g id="Layer_1_2_">
		<g>
			<g>
				
					<radialGradient id="SVGID_1_" cx="-97.644" cy="-268.1997" r="30.2868" gradientTransform="matrix(0.9996 -0.0279 -0.0228 -0.8155 216.5415 -265.854)" gradientUnits="userSpaceOnUse">
					<stop  offset="0" style="stop-color:#FFFFFF;stop-opacity:0.7529"/>
					<stop  offset="1" style="stop-color:#FFFFFF;stop-opacity:0"/>
				</radialGradient>
				<path style="fill-rule:evenodd;clip-rule:evenodd;fill:url(#SVGID_1_);" d="M155.35-45.25c-0.2-6.833-3.333-12.583-9.4-17.25
					c-6.067-4.667-13.267-6.867-21.6-6.6c-8.367,0.233-15.45,2.833-21.25,7.8c-5.767,5-8.55,10.917-8.35,17.75
					c0.2,6.833,3.317,12.583,9.35,17.25c6.066,4.633,13.283,6.833,21.65,6.6c8.333-0.233,15.4-2.85,21.2-7.85
					C152.717-32.517,155.517-38.417,155.35-45.25z"/>
				
					<radialGradient id="SVGID_2_" cx="-70.4502" cy="-247.4092" r="26.4594" gradientTransform="matrix(0.9996 -0.028 -0.0254 -0.9075 217.2866 -250.5449)" gradientUnits="userSpaceOnUse">
					<stop  offset="0" style="stop-color:#FFFFFF;stop-opacity:0.7529"/>
					<stop  offset="1" style="stop-color:#FFFFFF;stop-opacity:0"/>
				</radialGradient>
				<path style="fill-rule:evenodd;clip-rule:evenodd;fill:url(#SVGID_2_);" d="M179.6-24.8c-0.2-6.633-2.95-12.217-8.25-16.75
					c-5.3-4.567-11.6-6.733-18.9-6.5c-7.3,0.2-13.467,2.716-18.5,7.55c-5.034,4.833-7.45,10.567-7.25,17.2
					c0.167,6.633,2.9,12.216,8.2,16.75c5.3,4.533,11.6,6.7,18.9,6.5c7.3-0.2,13.467-2.717,18.5-7.55
					C177.333-12.433,179.767-18.167,179.6-24.8z"/>
				
					<radialGradient id="SVGID_3_" cx="-77.4321" cy="-266.9121" r="26.4733" gradientTransform="matrix(0.9996 -0.028 -0.0254 -0.9075 216.2456 -287.7393)" gradientUnits="userSpaceOnUse">
					<stop  offset="0" style="stop-color:#FFFFFF;stop-opacity:0.7529"/>
					<stop  offset="1" style="stop-color:#FFFFFF;stop-opacity:0"/>
				</radialGradient>
				<path style="fill-rule:evenodd;clip-rule:evenodd;fill:url(#SVGID_3_);" d="M172.1-44.1c-0.2-6.633-2.95-12.217-8.25-16.75
					c-5.3-4.566-11.6-6.733-18.9-6.5c-7.3,0.2-13.467,2.717-18.5,7.55c-5.034,4.833-7.467,10.566-7.3,17.2
					c0.2,6.633,2.95,12.217,8.25,16.75c5.3,4.533,11.6,6.7,18.9,6.5c7.3-0.2,13.467-2.717,18.5-7.55
					C169.833-31.733,172.267-37.467,172.1-44.1z"/>
				
					<radialGradient id="SVGID_4_" cx="-46.5313" cy="-263.9902" r="33.567" gradientTransform="matrix(0.9996 -0.028 -0.0201 -0.716 218.1387 -231.29)" gradientUnits="userSpaceOnUse">
					<stop  offset="0" style="stop-color:#FFFFFF;stop-opacity:0.7529"/>
					<stop  offset="1" style="stop-color:#FFFFFF;stop-opacity:0"/>
				</radialGradient>
				<path style="fill-rule:evenodd;clip-rule:evenodd;fill:url(#SVGID_4_);" d="M201.1-24.65c6.433-4.867,9.55-10.617,9.35-17.25
					c-0.167-6.633-3.583-12.217-10.25-16.75c-6.7-4.5-14.684-6.617-23.95-6.35c-9.233,0.233-17.067,2.8-23.5,7.7
					c-6.4,4.867-9.517,10.617-9.35,17.25c0.167,6.633,3.6,12.2,10.3,16.7c6.667,4.5,14.633,6.633,23.9,6.4
					C186.867-17.217,194.7-19.783,201.1-24.65z"/>
				
					<radialGradient id="SVGID_5_" cx="-61.0835" cy="-240.0029" r="16.5812" gradientTransform="matrix(0.9996 -0.0278 -0.025 -0.8987 215.9697 -236.0532)" gradientUnits="userSpaceOnUse">
					<stop  offset="0" style="stop-color:#FFFFFF;stop-opacity:0.7529"/>
					<stop  offset="1" style="stop-color:#FFFFFF;stop-opacity:0"/>
				</radialGradient>
				<path style="fill-rule:evenodd;clip-rule:evenodd;fill:url(#SVGID_5_);" d="M177.5-19.15c-0.133-4.1-1.85-7.567-5.15-10.4
					c-3.333-2.833-7.283-4.184-11.85-4.05s-8.433,1.7-11.6,4.7c-3.167,3-4.7,6.566-4.6,10.7c0.133,4.133,1.85,7.6,5.15,10.4
					c3.333,2.833,7.3,4.183,11.9,4.05c4.566-0.133,8.433-1.7,11.6-4.7C176.117-11.45,177.633-15.017,177.5-19.15z"/>
				
					<radialGradient id="SVGID_6_" cx="3794.875" cy="2359.9629" r="17.4448" gradientTransform="matrix(0.9254 0.3789 0.3631 -0.8868 -4231.5957 631.2568)" gradientUnits="userSpaceOnUse">
					<stop  offset="0" style="stop-color:#FFFFFF;stop-opacity:0.7529"/>
					<stop  offset="1" style="stop-color:#FFFFFF;stop-opacity:0"/>
				</radialGradient>
				<path style="fill-rule:evenodd;clip-rule:evenodd;fill:url(#SVGID_6_);" d="M153.35-16.8c1.767-4.267,1.683-8.567-0.25-12.9
					c-1.9-4.3-5.083-7.367-9.55-9.2c-4.466-1.833-8.9-1.883-13.3-0.15c-4.367,1.733-7.433,4.733-9.2,9
					c-1.733,4.267-1.65,8.566,0.25,12.9c1.9,4.3,5.083,7.367,9.55,9.2c4.467,1.833,8.9,1.883,13.3,0.15
					C148.55-9.533,151.617-12.533,153.35-16.8z"/>
				
					<radialGradient id="SVGID_7_" cx="3773.5923" cy="2361.8008" r="12.3572" gradientTransform="matrix(0.9255 0.3788 0.3564 -0.8709 -4215.6953 599.3467)" gradientUnits="userSpaceOnUse">
					<stop  offset="0" style="stop-color:#FFFFFF;stop-opacity:0.7529"/>
					<stop  offset="1" style="stop-color:#FFFFFF;stop-opacity:0"/>
				</radialGradient>
				<path style="fill-rule:evenodd;clip-rule:evenodd;fill:url(#SVGID_7_);" d="M129.9-23.45c1.233-2.966,1.167-5.966-0.2-9
					c-1.367-3-3.633-5.15-6.8-6.45c-3.133-1.3-6.25-1.35-9.35-0.15c-3.1,1.167-5.267,3.233-6.5,6.2c-1.233,2.967-1.15,5.967,0.25,9
					c1.367,3,3.633,5.15,6.8,6.45c3.133,1.3,6.25,1.35,9.35,0.15C126.517-18.417,128.667-20.483,129.9-23.45z"/>
				
					<radialGradient id="SVGID_8_" cx="-123.2915" cy="-278.0278" r="20.0176" gradientTransform="matrix(0.9996 -0.0278 -0.0208 -0.7469 215.5903 -265.5859)" gradientUnits="userSpaceOnUse">
					<stop  offset="0" style="stop-color:#FFFFFF;stop-opacity:0.7529"/>
					<stop  offset="1" style="stop-color:#FFFFFF;stop-opacity:0"/>
				</radialGradient>
				<path style="fill-rule:evenodd;clip-rule:evenodd;fill:url(#SVGID_8_);" d="M112.6-44.3c3.833-3.034,5.683-6.617,5.55-10.75
					c-0.133-4.167-2.183-7.65-6.15-10.45c-4-2.8-8.767-4.117-14.3-3.95c-5.534,0.133-10.217,1.717-14.05,4.75
					c-3.833,3.034-5.683,6.617-5.55,10.75c0.1,4.133,2.15,7.6,6.15,10.4c4,2.8,8.767,4.133,14.3,4
					C104.083-39.717,108.767-41.3,112.6-44.3z"/>
				
					<radialGradient id="SVGID_9_" cx="-6.2627" cy="-273.7456" r="18.6801" gradientTransform="matrix(0.9996 -0.0278 -0.0223 -0.8005 215.2407 -272.9268)" gradientUnits="userSpaceOnUse">
					<stop  offset="0" style="stop-color:#FFFFFF;stop-opacity:0.7529"/>
					<stop  offset="1" style="stop-color:#FFFFFF;stop-opacity:0"/>
				</radialGradient>
				<path style="fill-rule:evenodd;clip-rule:evenodd;fill:url(#SVGID_9_);" d="M228.6-43.4c3.566-3.033,5.3-6.617,5.2-10.75
					c-0.133-4.133-2.066-7.617-5.8-10.45c-3.733-2.833-8.183-4.167-13.35-4c-5.133,0.133-9.5,1.717-13.1,4.75
					c-3.566,3.033-5.3,6.617-5.2,10.75c0.133,4.133,2.066,7.617,5.8,10.45c3.733,2.8,8.184,4.133,13.35,4
					C220.667-38.817,225.033-40.4,228.6-43.4z"/>
				
					<radialGradient id="SVGID_10_" cx="495.9824" cy="234.0166" r="30.7767" gradientTransform="matrix(0.9993 0.0379 0.0238 -0.6282 -316.8818 70.7109)" gradientUnits="userSpaceOnUse">
					<stop  offset="0" style="stop-color:#FFFFFF;stop-opacity:0.7529"/>
					<stop  offset="1" style="stop-color:#FFFFFF;stop-opacity:0"/>
				</radialGradient>
				<path style="fill-rule:evenodd;clip-rule:evenodd;fill:url(#SVGID_10_);" d="M183.6-38.15c8.467,0.333,15.783-1.283,21.95-4.85
					c6.133-3.533,9.317-7.967,9.55-13.3c0.2-5.333-2.633-10-8.5-14s-13.05-6.167-21.55-6.5c-8.5-0.333-15.816,1.267-21.95,4.8
					c-6.167,3.567-9.35,8.017-9.55,13.35c-0.2,5.333,2.633,10,8.5,14S175.1-38.483,183.6-38.15z"/>
				
					<radialGradient id="SVGID_11_" cx="-104.2729" cy="-276.8872" r="28.6519" gradientTransform="matrix(0.9996 -0.0281 -0.0213 -0.7586 217.5591 -264.835)" gradientUnits="userSpaceOnUse">
					<stop  offset="0" style="stop-color:#FFFFFF;stop-opacity:0.7529"/>
					<stop  offset="1" style="stop-color:#FFFFFF;stop-opacity:0"/>
				</radialGradient>
				<path style="fill-rule:evenodd;clip-rule:evenodd;fill:url(#SVGID_11_);" d="M119.85-30.15c7.9-0.233,14.583-2.55,20.05-6.95
					s8.117-9.6,7.95-15.6c-0.133-6-3.067-11.033-8.8-15.1c-5.7-4.1-12.5-6.034-20.4-5.8s-14.583,2.533-20.05,6.9
					c-5.467,4.4-8.133,9.6-8,15.6c0.167,6,3.117,11.05,8.85,15.15C105.15-31.85,111.95-29.917,119.85-30.15z"/>
				
					<radialGradient id="SVGID_12_" cx="-71.9209" cy="-285.1147" r="21.8071" gradientTransform="matrix(0.9996 -0.0282 -0.0228 -0.8066 218.021 -291.7427)" gradientUnits="userSpaceOnUse">
					<stop  offset="0" style="stop-color:#FFFFFF;stop-opacity:0.7529"/>
					<stop  offset="1" style="stop-color:#FFFFFF;stop-opacity:0"/>
				</radialGradient>
				<path style="fill-rule:evenodd;clip-rule:evenodd;fill:url(#SVGID_12_);" d="M167.7-72.6c-4.333-3.333-9.517-4.917-15.55-4.75
					c-6.033,0.167-11.133,2.033-15.3,5.6c-4.167,3.567-6.184,7.783-6.05,12.65c0.167,4.867,2.417,8.95,6.75,12.25
					c4.333,3.3,9.517,4.867,15.55,4.7c6.033-0.167,11.133-2.017,15.3-5.55c4.167-3.566,6.184-7.783,6.05-12.65
					S172.067-69.3,167.7-72.6z"/>
				
					<radialGradient id="SVGID_13_" cx="660.7236" cy="372.3838" r="14.4344" gradientTransform="matrix(0.9985 0.0554 0.0364 -0.6555 -472.0059 159.002)" gradientUnits="userSpaceOnUse">
					<stop  offset="0" style="stop-color:#FFFFFF;stop-opacity:0.7529"/>
					<stop  offset="1" style="stop-color:#FFFFFF;stop-opacity:0"/>
				</radialGradient>
				<path style="fill-rule:evenodd;clip-rule:evenodd;fill:url(#SVGID_13_);" d="M215.65-47.7c0.167-2.633-1.117-4.95-3.85-6.95
					c-2.7-2-6.033-3.117-10-3.35c-4-0.2-7.45,0.55-10.35,2.25c-2.9,1.667-4.434,3.817-4.6,6.45c-0.133,2.6,1.15,4.9,3.85,6.9
					c2.7,2,6.05,3.117,10.05,3.35c3.967,0.233,7.4-0.5,10.3-2.2C213.983-42.95,215.517-45.1,215.65-47.7z"/>
				
					<radialGradient id="SVGID_14_" cx="585.4814" cy="373.4512" r="30.2568" gradientTransform="matrix(0.9985 0.0554 0.0339 -0.6112 -470.8408 144.5732)" gradientUnits="userSpaceOnUse">
					<stop  offset="0" style="stop-color:#FFFFFF;stop-opacity:0.7529"/>
					<stop  offset="1" style="stop-color:#FFFFFF;stop-opacity:0"/>
				</radialGradient>
				<path style="fill-rule:evenodd;clip-rule:evenodd;fill:url(#SVGID_14_);" d="M147.05-37c6.1-3.3,9.284-7.5,9.55-12.6
					s-2.45-9.617-8.15-13.55c-5.7-3.967-12.717-6.167-21.05-6.6c-8.333-0.467-15.55,0.933-21.65,4.2c-6.1,3.3-9.283,7.5-9.55,12.6
					c-0.3,5.1,2.4,9.617,8.1,13.55c5.7,3.933,12.717,6.133,21.05,6.6C133.683-32.333,140.917-33.733,147.05-37z"/>
			</g>
			<g>
				
					<radialGradient id="SVGID_15_" cx="-155.4854" cy="-312.3296" r="42.9542" gradientTransform="matrix(0.9996 -0.028 -0.0235 -0.8381 214.7354 -352.3721)" gradientUnits="userSpaceOnUse">
					<stop  offset="0" style="stop-color:#FFFFFF;stop-opacity:0.7529"/>
					<stop  offset="1" style="stop-color:#FFFFFF;stop-opacity:0"/>
				</radialGradient>
				<path style="fill-rule:evenodd;clip-rule:evenodd;fill:url(#SVGID_15_);" d="M109.6-87.45c-0.267-9.966-4.7-18.35-13.3-25.15
					c-8.566-6.8-18.783-10.017-30.65-9.65c-11.867,0.333-21.9,4.133-30.1,11.4c-8.167,7.233-12.117,15.833-11.85,25.8
					c0.267,9.966,4.7,18.333,13.3,25.1c8.567,6.8,18.783,10.034,30.65,9.7s21.883-4.133,30.05-11.4
					C105.9-68.917,109.867-77.517,109.6-87.45z"/>
				
					<radialGradient id="SVGID_16_" cx="-117.0176" cy="-282.103" r="37.5145" gradientTransform="matrix(0.9996 -0.0281 -0.0262 -0.9323 216.1035 -322.8516)" gradientUnits="userSpaceOnUse">
					<stop  offset="0" style="stop-color:#FFFFFF;stop-opacity:0.7529"/>
					<stop  offset="1" style="stop-color:#FFFFFF;stop-opacity:0"/>
				</radialGradient>
				<path style="fill-rule:evenodd;clip-rule:evenodd;fill:url(#SVGID_16_);" d="M132.35-82.05c-7.533-6.633-16.483-9.8-26.85-9.5
					c-10.333,0.267-19.067,3.917-26.2,10.95C72.167-73.533,68.733-65.167,69-55.5c0.267,9.633,4.15,17.767,11.65,24.4
					c7.533,6.633,16.483,9.817,26.85,9.55c10.333-0.3,19.083-3.967,26.25-11c7.133-7.034,10.567-15.383,10.3-25.05
					C143.783-67.267,139.883-75.417,132.35-82.05z"/>
				
					<radialGradient id="SVGID_17_" cx="-126.9224" cy="-310.542" r="37.541" gradientTransform="matrix(0.9996 -0.0281 -0.0262 -0.9323 214.5596 -377.793)" gradientUnits="userSpaceOnUse">
					<stop  offset="0" style="stop-color:#FFFFFF;stop-opacity:0.7529"/>
					<stop  offset="1" style="stop-color:#FFFFFF;stop-opacity:0"/>
				</radialGradient>
				<path style="fill-rule:evenodd;clip-rule:evenodd;fill:url(#SVGID_17_);" d="M133.35-85.75
					c-0.267-9.667-4.167-17.817-11.7-24.45c-7.5-6.633-16.433-9.8-26.8-9.5c-10.367,0.3-19.117,3.967-26.25,11
					c-7.133,7.034-10.567,15.383-10.3,25.05c0.267,9.667,4.167,17.816,11.7,24.45c7.5,6.633,16.433,9.8,26.8,9.5
					c10.367-0.3,19.117-3.966,26.25-11C130.183-67.733,133.617-76.083,133.35-85.75z"/>
				
					<radialGradient id="SVGID_18_" cx="-83.2041" cy="-306.3843" r="47.5727" gradientTransform="matrix(0.9996 -0.0282 -0.0207 -0.7357 217.0439 -308.9526)" gradientUnits="userSpaceOnUse">
					<stop  offset="0" style="stop-color:#FFFFFF;stop-opacity:0.7529"/>
					<stop  offset="1" style="stop-color:#FFFFFF;stop-opacity:0"/>
				</radialGradient>
				<path style="fill-rule:evenodd;clip-rule:evenodd;fill:url(#SVGID_18_);" d="M187.8-82.55c-0.267-9.667-5.15-17.784-14.65-24.35
					c-9.467-6.567-20.767-9.667-33.9-9.3S115-112.1,105.9-105c-9.066,7.1-13.483,15.483-13.25,25.15
					c0.267,9.667,5.15,17.783,14.65,24.35c9.467,6.567,20.767,9.667,33.9,9.3c13.167-0.367,24.283-4.1,33.35-11.2
					C183.65-64.5,188.067-72.883,187.8-82.55z"/>
				
					<radialGradient id="SVGID_19_" cx="-106.7275" cy="-274.4482" r="23.5482" gradientTransform="matrix(0.9996 -0.0282 -0.026 -0.9237 217.0698 -305.1978)" gradientUnits="userSpaceOnUse">
					<stop  offset="0" style="stop-color:#FFFFFF;stop-opacity:0.7529"/>
					<stop  offset="1" style="stop-color:#FFFFFF;stop-opacity:0"/>
				</radialGradient>
				<path style="fill-rule:evenodd;clip-rule:evenodd;fill:url(#SVGID_19_);" d="M141.05-49.35c-0.133-6-2.566-11.066-7.3-15.2
					c-4.733-4.1-10.333-6.067-16.8-5.9c-6.5,0.2-12,2.483-16.5,6.85c-4.467,4.367-6.617,9.55-6.45,15.55s2.617,11.066,7.35,15.2
					c4.7,4.1,10.3,6.067,16.8,5.9c6.5-0.167,11.983-2.45,16.45-6.85C139.067-38.167,141.217-43.35,141.05-49.35z"/>
				
					<radialGradient id="SVGID_20_" cx="3629.229" cy="2394.459" r="24.8614" gradientTransform="matrix(0.9214 0.3886 0.3609 -0.9068 -4124.3545 705.5059)" gradientUnits="userSpaceOnUse">
					<stop  offset="0" style="stop-color:#FFFFFF;stop-opacity:0.7529"/>
					<stop  offset="1" style="stop-color:#FFFFFF;stop-opacity:0"/>
				</radialGradient>
				<path style="fill-rule:evenodd;clip-rule:evenodd;fill:url(#SVGID_20_);" d="M106.8-46c2.5-6.233,2.383-12.483-0.35-18.75
					c-2.7-6.3-7.217-10.783-13.55-13.45c-6.333-2.667-12.617-2.75-18.85-0.25C67.817-75.917,63.467-71.533,61-65.3
					c-2.467,6.233-2.35,12.483,0.35,18.75c2.733,6.3,7.267,10.783,13.6,13.45c6.333,2.667,12.6,2.733,18.8,0.2
					C99.983-35.4,104.333-39.767,106.8-46z"/>
				
					<radialGradient id="SVGID_21_" cx="3604.146" cy="2399.6719" r="17.5774" gradientTransform="matrix(0.9213 0.3889 0.3547 -0.8907 -4114.3848 673.4141)" gradientUnits="userSpaceOnUse">
					<stop  offset="0" style="stop-color:#FFFFFF;stop-opacity:0.7529"/>
					<stop  offset="1" style="stop-color:#FFFFFF;stop-opacity:0"/>
				</radialGradient>
				<path style="fill-rule:evenodd;clip-rule:evenodd;fill:url(#SVGID_21_);" d="M64.4-46.7c4.367-1.7,7.417-4.716,9.15-9.05
					c1.733-4.333,1.633-8.683-0.3-13.05c-1.967-4.4-5.183-7.55-9.65-9.45c-4.467-1.867-8.9-1.95-13.3-0.25
					c-4.367,1.733-7.417,4.767-9.15,9.1c-1.733,4.333-1.617,8.683,0.35,13.05c1.933,4.4,5.133,7.55,9.6,9.45
					C55.567-45.033,60-44.967,64.4-46.7z"/>
				
					<radialGradient id="SVGID_22_" cx="-193.9844" cy="-328.8848" r="28.4394" gradientTransform="matrix(0.9996 -0.0281 -0.0216 -0.767 215.2378 -358.6968)" gradientUnits="userSpaceOnUse">
					<stop  offset="0" style="stop-color:#FFFFFF;stop-opacity:0.7529"/>
					<stop  offset="1" style="stop-color:#FFFFFF;stop-opacity:0"/>
				</radialGradient>
				<path style="fill-rule:evenodd;clip-rule:evenodd;fill:url(#SVGID_22_);" d="M29.05-79.2c7.867-0.233,14.5-2.55,19.9-6.95
					c5.433-4.4,8.066-9.617,7.9-15.65c-0.167-6.034-3.083-11.1-8.75-15.2c-5.7-4.1-12.467-6.033-20.3-5.8
					c-7.833,0.233-14.466,2.55-19.9,6.95c-5.4,4.4-8.033,9.617-7.9,15.65C0.167-94.167,3.083-89.1,8.75-85
					C14.45-80.9,21.217-78.967,29.05-79.2z"/>
				
					<radialGradient id="SVGID_23_" cx="-26.7407" cy="-321.3013" r="26.5205" gradientTransform="matrix(0.9996 -0.0279 -0.023 -0.8229 213.6685 -364.7139)" gradientUnits="userSpaceOnUse">
					<stop  offset="0" style="stop-color:#FFFFFF;stop-opacity:0.7529"/>
					<stop  offset="1" style="stop-color:#FFFFFF;stop-opacity:0"/>
				</radialGradient>
				<path style="fill-rule:evenodd;clip-rule:evenodd;fill:url(#SVGID_23_);" d="M194.95-77.75c7.333-0.2,13.533-2.517,18.6-6.95
					c5.034-4.4,7.467-9.617,7.3-15.65c-0.167-6.033-2.9-11.1-8.2-15.2c-5.3-4.133-11.617-6.083-18.95-5.85
					c-7.333,0.2-13.517,2.5-18.55,6.9c-5.066,4.4-7.517,9.617-7.35,15.65c0.167,6.033,2.9,11.1,8.2,15.2
					C181.3-79.517,187.617-77.55,194.95-77.75z"/>
				
					<radialGradient id="SVGID_24_" cx="461.7969" cy="188.667" r="43.6602" gradientTransform="matrix(0.9993 0.0381 0.0246 -0.645 -315.4004 -1.1431)" gradientUnits="userSpaceOnUse">
					<stop  offset="0" style="stop-color:#FFFFFF;stop-opacity:0.7529"/>
					<stop  offset="1" style="stop-color:#FFFFFF;stop-opacity:0"/>
				</radialGradient>
				<path style="fill-rule:evenodd;clip-rule:evenodd;fill:url(#SVGID_24_);" d="M182.25-123.95
					c-8.333-5.833-18.517-8.983-30.55-9.45c-12.034-0.5-22.417,1.833-31.15,7c-8.733,5.167-13.233,11.633-13.5,19.4
					c-0.267,7.8,3.75,14.617,12.05,20.45c8.3,5.833,18.483,8.983,30.55,9.45c12.033,0.5,22.417-1.833,31.15-7
					c8.733-5.167,13.25-11.633,13.55-19.4C194.617-111.267,190.583-118.083,182.25-123.95z"/>
				
					<radialGradient id="SVGID_25_" cx="-163.4053" cy="-323.4331" r="40.6033" gradientTransform="matrix(0.9996 -0.028 -0.0219 -0.7795 214.6733 -353.8423)" gradientUnits="userSpaceOnUse">
					<stop  offset="0" style="stop-color:#FFFFFF;stop-opacity:0.7529"/>
					<stop  offset="1" style="stop-color:#FFFFFF;stop-opacity:0"/>
				</radialGradient>
				<path style="fill-rule:evenodd;clip-rule:evenodd;fill:url(#SVGID_25_);" d="M99-98.3c-0.233-8.767-4.4-16.117-12.5-22.05
					c-8.1-5.967-17.767-8.783-29-8.45c-11.2,0.3-20.683,3.65-28.45,10.05C21.317-112.317,17.567-104.733,17.8-96
					c0.267,8.733,4.434,16.083,12.5,22.05c8.133,5.967,17.8,8.784,29,8.45c11.2-0.3,20.684-3.65,28.45-10.05
					C95.517-81.983,99.267-89.567,99-98.3z"/>
				
					<radialGradient id="SVGID_26_" cx="-114.2524" cy="-331.9355" r="30.9361" gradientTransform="matrix(0.9996 -0.0278 -0.0231 -0.8287 212.2998 -386.8047)" gradientUnits="userSpaceOnUse">
					<stop  offset="0" style="stop-color:#FFFFFF;stop-opacity:0.7529"/>
					<stop  offset="1" style="stop-color:#FFFFFF;stop-opacity:0"/>
				</radialGradient>
				<path style="fill-rule:evenodd;clip-rule:evenodd;fill:url(#SVGID_26_);" d="M106.45-82.9c8.566-0.267,15.8-2.983,21.7-8.15
					c5.9-5.167,8.75-11.284,8.55-18.35c-0.2-7.1-3.4-13.067-9.6-17.9c-6.167-4.867-13.533-7.167-22.1-6.9
					c-8.533,0.233-15.75,2.934-21.65,8.1c-5.9,5.2-8.75,11.333-8.55,18.4c0.2,7.067,3.383,13.017,9.55,17.85
					C90.55-84.983,97.917-82.667,106.45-82.9z"/>
				
					<radialGradient id="SVGID_27_" cx="627.9668" cy="326.9014" r="20.4902" gradientTransform="matrix(0.9985 0.055 0.0371 -0.6734 -464.4111 93.4805)" gradientUnits="userSpaceOnUse">
					<stop  offset="0" style="stop-color:#FFFFFF;stop-opacity:0.7529"/>
					<stop  offset="1" style="stop-color:#FFFFFF;stop-opacity:0"/>
				</radialGradient>
				<path style="fill-rule:evenodd;clip-rule:evenodd;fill:url(#SVGID_27_);" d="M195.15-91c0.2-3.8-1.617-7.167-5.45-10.1
					c-3.867-2.9-8.617-4.517-14.25-4.85c-5.633-0.333-10.517,0.733-14.65,3.2s-6.3,5.6-6.5,9.4c-0.2,3.833,1.617,7.2,5.45,10.1
					c3.867,2.933,8.617,4.567,14.25,4.9c5.667,0.333,10.55-0.733,14.65-3.2C192.783-84.017,194.95-87.167,195.15-91z"/>
				
					<radialGradient id="SVGID_28_" cx="588.1875" cy="335.5986" r="16.0558" gradientTransform="matrix(0.9985 0.0553 0.044 -0.7933 -470.4609 145.1299)" gradientUnits="userSpaceOnUse">
					<stop  offset="0" style="stop-color:#FFFFFF;stop-opacity:0.7529"/>
					<stop  offset="1" style="stop-color:#FFFFFF;stop-opacity:0"/>
				</radialGradient>
				<path style="fill-rule:evenodd;clip-rule:evenodd;fill:url(#SVGID_28_);" d="M119.8-80.2c2.967,2.667,6.667,4.133,11.1,4.4
					c4.434,0.233,8.283-0.8,11.55-3.1c3.267-2.3,4.983-5.217,5.15-8.75c0.2-3.5-1.2-6.583-4.2-9.25c-3-2.667-6.717-4.133-11.15-4.4
					c-4.433-0.267-8.267,0.767-11.5,3.1c-3.267,2.3-5,5.217-5.2,8.75C115.383-85.95,116.8-82.867,119.8-80.2z"/>
				
					<radialGradient id="SVGID_29_" cx="-612.791" cy="-843.0967" r="42.8801" gradientTransform="matrix(0.996 -0.0889 -0.0397 -0.4446 645.8652 -533.437)" gradientUnits="userSpaceOnUse">
					<stop  offset="0" style="stop-color:#FFFFFF;stop-opacity:0.7529"/>
					<stop  offset="1" style="stop-color:#FFFFFF;stop-opacity:0"/>
				</radialGradient>
				<path style="fill-rule:evenodd;clip-rule:evenodd;fill:url(#SVGID_29_);" d="M70.7-85c11.833-1.033,21.75-3.767,29.75-8.2
					c8-4.466,11.767-9.333,11.3-14.6c-0.5-5.267-5.083-9.4-13.75-12.4c-8.7-3-18.95-3.983-30.75-2.95
					c-11.833,1.033-21.75,3.767-29.75,8.2c-8,4.467-11.767,9.333-11.3,14.6c0.466,5.267,5.05,9.4,13.75,12.4
					C48.65-84.95,58.9-83.967,70.7-85z"/>
			</g>
			<g>
				
					<radialGradient id="SVGID_30_" cx="-45.416" cy="-310.1582" r="46.5843" gradientTransform="matrix(0.9996 -0.028 -0.0217 -0.7729 215.3052 -328.2539)" gradientUnits="userSpaceOnUse">
					<stop  offset="0" style="stop-color:#FFFFFF;stop-opacity:0.7529"/>
					<stop  offset="1" style="stop-color:#FFFFFF;stop-opacity:0"/>
				</radialGradient>
				<path style="fill-rule:evenodd;clip-rule:evenodd;fill:url(#SVGID_30_);" d="M223.2-88.55c-0.267-9.934-5.05-18.3-14.35-25.1
					c-9.267-6.8-20.333-10.017-33.2-9.65s-23.75,4.2-32.65,11.5c-8.9,7.3-13.217,15.917-12.95,25.85
					c0.267,9.967,5.05,18.333,14.35,25.1c9.3,6.767,20.383,9.967,33.25,9.6s23.75-4.183,32.65-11.45
					C219.2-70,223.5-78.617,223.2-88.55z"/>
				
					<radialGradient id="SVGID_31_" cx="-3.623" cy="-279.8848" r="40.7028" gradientTransform="matrix(0.9996 -0.0281 -0.0241 -0.8596 216.6636 -298.3335)" gradientUnits="userSpaceOnUse">
					<stop  offset="0" style="stop-color:#FFFFFF;stop-opacity:0.7529"/>
					<stop  offset="1" style="stop-color:#FFFFFF;stop-opacity:0"/>
				</radialGradient>
				<path style="fill-rule:evenodd;clip-rule:evenodd;fill:url(#SVGID_31_);" d="M247.9-83.25c-8.167-6.6-17.867-9.733-29.1-9.4
					c-11.233,0.3-20.716,3.983-28.45,11.05c-7.767,7.067-11.517,15.434-11.25,25.1c0.267,9.633,4.467,17.767,12.6,24.4
					c8.167,6.6,17.867,9.75,29.1,9.45c11.233-0.333,20.733-4.017,28.5-11.05c7.733-7.066,11.467-15.433,11.2-25.1
					C260.233-68.467,256.033-76.617,247.9-83.25z"/>
				
					<radialGradient id="SVGID_32_" cx="-14.3286" cy="-308.3213" r="40.7156" gradientTransform="matrix(0.9996 -0.0281 -0.0241 -0.8596 215.1787 -351.2017)" gradientUnits="userSpaceOnUse">
					<stop  offset="0" style="stop-color:#FFFFFF;stop-opacity:0.7529"/>
					<stop  offset="1" style="stop-color:#FFFFFF;stop-opacity:0"/>
				</radialGradient>
				<path style="fill-rule:evenodd;clip-rule:evenodd;fill:url(#SVGID_32_);" d="M180.2-60.2c8.133,6.6,17.833,9.75,29.1,9.45
					c11.233-0.333,20.733-4.033,28.5-11.1c7.733-7.066,11.467-15.417,11.2-25.05c-0.267-9.667-4.467-17.817-12.6-24.45
					c-8.133-6.6-17.833-9.75-29.1-9.45c-11.233,0.333-20.716,4.033-28.45,11.1c-7.767,7.067-11.517,15.417-11.25,25.05
					C167.867-74.983,172.067-66.833,180.2-60.2z"/>
				
					<radialGradient id="SVGID_33_" cx="33.0645" cy="-304.2529" r="51.5826" gradientTransform="matrix(0.9996 -0.0282 -0.0191 -0.6783 217.5845 -287.8379)" gradientUnits="userSpaceOnUse">
					<stop  offset="0" style="stop-color:#FFFFFF;stop-opacity:0.7529"/>
					<stop  offset="1" style="stop-color:#FFFFFF;stop-opacity:0"/>
				</radialGradient>
				<path style="fill-rule:evenodd;clip-rule:evenodd;fill:url(#SVGID_33_);" d="M308.05-83.85c-0.267-9.667-5.533-17.767-15.8-24.3
					c-10.3-6.567-22.567-9.65-36.8-9.25c-14.233,0.4-26.284,4.167-36.15,11.3c-9.9,7.1-14.716,15.483-14.45,25.15
					c0.267,9.667,5.533,17.784,15.8,24.35c10.267,6.533,22.517,9.6,36.75,9.2c14.267-0.4,26.333-4.15,36.2-11.25
					C303.5-65.783,308.317-74.183,308.05-83.85z"/>
				
					<radialGradient id="SVGID_34_" cx="-1.9639" cy="-262.4189" r="36.579" gradientTransform="matrix(0.9996 -0.028 -0.023 -0.8209 216.8647 -256.6924)" gradientUnits="userSpaceOnUse">
					<stop  offset="0" style="stop-color:#FFFFFF;stop-opacity:0.7529"/>
					<stop  offset="1" style="stop-color:#FFFFFF;stop-opacity:0"/>
				</radialGradient>
				<path style="fill-rule:evenodd;clip-rule:evenodd;fill:url(#SVGID_34_);" d="M257.5-42.25c-0.233-8.3-4-15.283-11.3-20.95
					c-7.3-5.633-16-8.316-26.1-8.05s-18.633,3.433-25.6,9.5c-7,6.067-10.383,13.25-10.15,21.55c0.233,8.3,4,15.284,11.3,20.95
					c7.3,5.667,16,8.35,26.1,8.05c10.1-0.267,18.633-3.433,25.6-9.5C254.35-26.767,257.733-33.95,257.5-42.25z"/>
				
					<radialGradient id="SVGID_35_" cx="4058.5181" cy="2218.873" r="30.0941" gradientTransform="matrix(0.9329 0.3602 0.3834 -0.8864 -4422.0596 453.8926)" gradientUnits="userSpaceOnUse">
					<stop  offset="0" style="stop-color:#FFFFFF;stop-opacity:0.7529"/>
					<stop  offset="1" style="stop-color:#FFFFFF;stop-opacity:0"/>
				</radialGradient>
				<path style="fill-rule:evenodd;clip-rule:evenodd;fill:url(#SVGID_35_);" d="M242.95-40.15c3.167-7.367,3.133-14.733-0.1-22.1
					c-3.233-7.333-8.717-12.5-16.45-15.5c-7.767-2.967-15.533-2.9-23.3,0.2c-7.733,3.1-13.2,8.333-16.4,15.7
					c-3.167,7.367-3.133,14.717,0.1,22.05c3.233,7.333,8.717,12.5,16.45,15.5c7.767,3,15.533,2.95,23.3-0.15
					C234.283-27.55,239.75-32.783,242.95-40.15z"/>
				
					<radialGradient id="SVGID_36_" cx="4020.0454" cy="2229.7324" r="18.8087" gradientTransform="matrix(0.9325 0.3613 0.3613 -0.8328 -4387.5791 341.0107)" gradientUnits="userSpaceOnUse">
					<stop  offset="0" style="stop-color:#FFFFFF;stop-opacity:0.7529"/>
					<stop  offset="1" style="stop-color:#FFFFFF;stop-opacity:0"/>
				</radialGradient>
				<path style="fill-rule:evenodd;clip-rule:evenodd;fill:url(#SVGID_36_);" d="M173.3-79.25c-4.833-1.867-9.633-1.933-14.4-0.2
					c-4.767,1.733-8.083,4.767-9.95,9.1c-1.867,4.333-1.75,8.684,0.35,13.05c2.1,4.4,5.567,7.533,10.4,9.4
					c4.833,1.9,9.633,1.983,14.4,0.25s8.083-4.767,9.95-9.1c1.9-4.333,1.8-8.7-0.3-13.1S178.167-77.383,173.3-79.25z"/>
				
					<radialGradient id="SVGID_37_" cx="-86.5591" cy="-326.1157" r="30.8408" gradientTransform="matrix(0.9996 -0.028 -0.0198 -0.7072 215.2827 -334.9639)" gradientUnits="userSpaceOnUse">
					<stop  offset="0" style="stop-color:#FFFFFF;stop-opacity:0.7529"/>
					<stop  offset="1" style="stop-color:#FFFFFF;stop-opacity:0"/>
				</radialGradient>
				<path style="fill-rule:evenodd;clip-rule:evenodd;fill:url(#SVGID_37_);" d="M157.45-87.1c5.9-4.433,8.767-9.667,8.6-15.7
					c-0.167-6-3.316-11.05-9.45-15.15c-6.133-4.1-13.45-6.017-21.95-5.75c-8.533,0.233-15.75,2.55-21.65,6.95
					c-5.867,4.433-8.733,9.667-8.6,15.7c0.167,6.033,3.333,11.083,9.5,15.15c6.133,4.1,13.45,6.033,21.95,5.8
					C144.35-80.367,151.55-82.7,157.45-87.1z"/>
				
					<radialGradient id="SVGID_38_" cx="94.0859" cy="-319.2393" r="28.7735" gradientTransform="matrix(0.9996 -0.0279 -0.0212 -0.7585 214.3354 -340.418)" gradientUnits="userSpaceOnUse">
					<stop  offset="0" style="stop-color:#FFFFFF;stop-opacity:0.7529"/>
					<stop  offset="1" style="stop-color:#FFFFFF;stop-opacity:0"/>
				</radialGradient>
				<path style="fill-rule:evenodd;clip-rule:evenodd;fill:url(#SVGID_38_);" d="M335.05-116.9c-5.733-4.1-12.566-6.05-20.5-5.85
					c-7.933,0.233-14.65,2.55-20.15,6.95c-5.5,4.433-8.167,9.667-8,15.7c0.167,6.033,3.117,11.1,8.85,15.2
					c5.7,4.1,12.533,6.05,20.5,5.85c7.933-0.233,14.65-2.567,20.15-7c5.5-4.4,8.167-9.617,8-15.65
					C343.767-107.733,340.817-112.8,335.05-116.9z"/>
				
					<radialGradient id="SVGID_39_" cx="579.2773" cy="183.417" r="47.3359" gradientTransform="matrix(0.9993 0.0381 0.0227 -0.5951 -315.1963 -19.4136)" gradientUnits="userSpaceOnUse">
					<stop  offset="0" style="stop-color:#FFFFFF;stop-opacity:0.7529"/>
					<stop  offset="1" style="stop-color:#FFFFFF;stop-opacity:0"/>
				</radialGradient>
				<path style="fill-rule:evenodd;clip-rule:evenodd;fill:url(#SVGID_39_);" d="M300.45-85.4c9.466-5.167,14.367-11.633,14.7-19.4
					c0.333-7.8-4-14.617-13-20.45c-9.033-5.833-20.083-8.967-33.15-9.4c-13.067-0.467-24.333,1.9-33.8,7.1
					c-9.467,5.2-14.367,11.683-14.7,19.45s4.017,14.567,13.05,20.4c9,5.8,20.034,8.934,33.1,9.4
					C279.717-77.867,290.983-80.233,300.45-85.4z"/>
				
					<radialGradient id="SVGID_40_" cx="720.9917" cy="300.1221" r="47.3443" gradientTransform="matrix(0.9985 0.0551 0.0233 -0.4217 -458.7021 -27.8013)" gradientUnits="userSpaceOnUse">
					<stop  offset="0" style="stop-color:#FFFFFF;stop-opacity:0.7529"/>
					<stop  offset="1" style="stop-color:#FFFFFF;stop-opacity:0"/>
				</radialGradient>
				<path style="fill-rule:evenodd;clip-rule:evenodd;fill:url(#SVGID_40_);" d="M300.75-98.85c9.467-3.433,14.367-7.9,14.7-13.4
					c0.333-5.5-4-10.433-13-14.8c-9-4.4-20.017-6.917-33.05-7.55c-13.066-0.667-24.333,0.7-33.8,4.1
					c-9.467,3.433-14.367,7.917-14.7,13.45c-0.333,5.5,4,10.433,13,14.8s20.033,6.883,33.1,7.55
					C280.033-94.033,291.283-95.417,300.75-98.85z"/>
				
					<radialGradient id="SVGID_41_" cx="-54.4512" cy="-321.7373" r="44.0461" gradientTransform="matrix(0.9996 -0.0281 -0.0202 -0.7188 215.6606 -330.9521)" gradientUnits="userSpaceOnUse">
					<stop  offset="0" style="stop-color:#FFFFFF;stop-opacity:0.7529"/>
					<stop  offset="1" style="stop-color:#FFFFFF;stop-opacity:0"/>
				</radialGradient>
				<path style="fill-rule:evenodd;clip-rule:evenodd;fill:url(#SVGID_41_);" d="M199.5-76.65c8.433-6.4,12.517-13.983,12.25-22.75
					c-0.233-8.733-4.733-16.067-13.5-22c-8.8-5.967-19.267-8.767-31.4-8.4c-12.167,0.333-22.45,3.716-30.85,10.15
					c-8.433,6.433-12.533,14.017-12.3,22.75c0.267,8.733,4.783,16.066,13.55,22c8.767,5.933,19.217,8.733,31.35,8.4
					C180.767-66.833,191.067-70.217,199.5-76.65z"/>
				
					<radialGradient id="SVGID_42_" cx="-1.1245" cy="-330.0938" r="33.5628" gradientTransform="matrix(0.9996 -0.0279 -0.0213 -0.7639 213.1973 -361.8262)" gradientUnits="userSpaceOnUse">
					<stop  offset="0" style="stop-color:#FFFFFF;stop-opacity:0.7529"/>
					<stop  offset="1" style="stop-color:#FFFFFF;stop-opacity:0"/>
				</radialGradient>
				<path style="fill-rule:evenodd;clip-rule:evenodd;fill:url(#SVGID_42_);" d="M219.8-84c9.267-0.267,17.117-3,23.55-8.2
					c6.4-5.2,9.5-11.333,9.3-18.4c-0.2-7.066-3.65-13.017-10.35-17.85c-6.7-4.833-14.667-7.117-23.9-6.85
					c-9.267,0.233-17.117,2.95-23.55,8.15c-6.4,5.2-9.5,11.35-9.3,18.45c0.2,7.067,3.65,13.017,10.35,17.85
					C202.567-86.05,210.533-83.767,219.8-84z"/>
				
					<radialGradient id="SVGID_43_" cx="751.7915" cy="319.127" r="24.419" gradientTransform="matrix(0.9985 0.0553 0.0364 -0.6575 -466.0078 72.708)" gradientUnits="userSpaceOnUse">
					<stop  offset="0" style="stop-color:#FFFFFF;stop-opacity:0.7529"/>
					<stop  offset="1" style="stop-color:#FFFFFF;stop-opacity:0"/>
				</radialGradient>
				<path style="fill-rule:evenodd;clip-rule:evenodd;fill:url(#SVGID_43_);" d="M278.3-85.1c4.6,3.367,10.267,5.233,17,5.6
					c6.733,0.333,12.567-0.95,17.5-3.85c4.967-2.9,7.583-6.566,7.85-11c0.267-4.433-1.9-8.333-6.5-11.7
					c-4.566-3.367-10.217-5.217-16.95-5.55c-6.733-0.367-12.583,0.9-17.55,3.8c-4.933,2.9-7.533,6.566-7.8,11
					C271.583-92.367,273.733-88.467,278.3-85.1z"/>
				
					<radialGradient id="SVGID_44_" cx="704.3853" cy="328.8477" r="17.3908" gradientTransform="matrix(0.9985 0.0554 0.0406 -0.7321 -469.5928 111.9893)" gradientUnits="userSpaceOnUse">
					<stop  offset="0" style="stop-color:#FFFFFF;stop-opacity:0.7529"/>
					<stop  offset="1" style="stop-color:#FFFFFF;stop-opacity:0"/>
				</radialGradient>
				<path style="fill-rule:evenodd;clip-rule:evenodd;fill:url(#SVGID_44_);" d="M264.45-88.85c0.2-3.5-1.317-6.583-4.55-9.25
					c-3.233-2.667-7.25-4.117-12.05-4.35c-4.8-0.267-8.967,0.767-12.5,3.1c-3.533,2.3-5.417,5.217-5.65,8.75
					c-0.2,3.533,1.316,6.617,4.55,9.25c3.233,2.667,7.25,4.117,12.05,4.35c4.8,0.233,8.983-0.8,12.55-3.1
					C262.383-82.4,264.25-85.317,264.45-88.85z"/>
				
					<radialGradient id="SVGID_45_" cx="634.394" cy="323.9121" r="46.5277" gradientTransform="matrix(0.9985 0.0553 0.0321 -0.5793 -465.0859 55.2842)" gradientUnits="userSpaceOnUse">
					<stop  offset="0" style="stop-color:#FFFFFF;stop-opacity:0.7529"/>
					<stop  offset="1" style="stop-color:#FFFFFF;stop-opacity:0"/>
				</radialGradient>
				<path style="fill-rule:evenodd;clip-rule:evenodd;fill:url(#SVGID_45_);" d="M225.2-94.9c0.466-7.434-3.684-14.017-12.45-19.75
					s-19.567-8.934-32.4-9.6c-12.833-0.667-23.95,1.4-33.35,6.2c-9.367,4.833-14.283,10.966-14.75,18.4
					c-0.433,7.433,3.717,14.017,12.45,19.75c8.767,5.7,19.566,8.883,32.4,9.55c12.833,0.633,23.95-1.433,33.35-6.2
					C219.85-81.35,224.767-87.467,225.2-94.9z"/>
			</g>
		</g>
	</g>
</symbol>
<use xlink:href="#FlashAICB_x2F_Layer_5_x2F__x3C_Group_x3E_"  width="343.912" height="135.284" x="-0.005" y="-135.321" transform="matrix(1 0 0 -1 0 -0.0498)" style="overflow:visible;opacity:0.6016;enable-background:new    ;"/>
</svg>
