<?xml version="1.0" encoding="iso-8859-1"?>
<!-- Generator: Adobe Illustrator 15.1.0, SVG Export Plug-In . SVG Version: 6.00 Build 0)  -->
<!DOCTYPE svg PUBLIC "-//W3C//DTD SVG 1.1//EN" "http://www.w3.org/Graphics/SVG/1.1/DTD/svg11.dtd">
<svg version="1.1" id="FlashAICB" xmlns="http://www.w3.org/2000/svg" xmlns:xlink="http://www.w3.org/1999/xlink" x="0px" y="0px"
	 width="293.35px" height="78.5px" viewBox="0 0 293.35 78.5" style="enable-background:new 0 0 293.35 78.5;" xml:space="preserve"
	>
<path style="fill-rule:evenodd;clip-rule:evenodd;fill:#613A22;" d="M284.5,13.8c-0.4-0.9-1.4-1.35-3-1.35
	c-1.866,0-3.083,0.25-3.65,0.75c-0.466,0.367-0.6,1.017-0.399,1.95c0.133,0.633,0.649,1.233,1.55,1.8
	c0.4,0.566,1.167,1.083,2.3,1.55c1.634,0.7,2.767,0.717,3.4,0.05c0.899-0.9,1.283-1.917,1.149-3.05
	C285.75,14.667,285.3,14.1,284.5,13.8z M283.15,37.25c0.166,0.467,0.8,0.6,1.899,0.4C284.583,37.65,283.95,37.517,283.15,37.25
	c-0.034-0.1-0.051-0.183-0.051-0.25c-0.133-0.933-0.333-1.467-0.6-1.6c-0.566-0.3-0.9-0.733-1-1.3v-0.75l1.5-0.3
	c1.134-0.133,1.983-0.133,2.55,0l2.7,0.3l4.45-1.05c-0.2-0.367-0.5-0.716-0.9-1.05c-0.767-0.733-1.6-1.1-2.5-1.1
	c-2.333,0-3.883-0.717-4.649-2.15c-0.367-0.667-0.9-1.4-1.601-2.2l-1-1.05l-3.8,1.65c-0.533,0-1.2,0.267-2,0.8l-1,0.8l0.3,0.55
	c0.2,0.534,0.384,1.25,0.55,2.15c0.601,2.8,1.601,4.4,3,4.8c0.167,0.067,1.167,0.5,3,1.3
	C282.467,36.967,282.816,37.117,283.15,37.25z M293.1,37.2c-0.466,0.2-0.883,0.35-1.25,0.45c0.301,0,0.684,0.067,1.15,0.2
	c-0.434,2.466-1.217,4.417-2.35,5.85c-1-0.101-2.017-0.15-3.051-0.15c-2.199,0-3.85-0.133-4.949-0.399c-1.367-0.434-2.7-0.834-4-1.2
	c-1.567-0.434-3.034-1.55-4.4-3.35l-1.55-2.55l0.1,3.85c-0.133,2.767-0.733,4.7-1.8,5.8c-1.167,1.233-2.9,2.467-5.2,3.7
	c-1.666,0.899-4.05,2-7.149,3.3c-2.034,0.866-3.7,1.116-5,0.75c-1.5-0.667-2.967-1.101-4.4-1.3c-1.767-0.2-3.934-0.534-6.5-1
	l-3.3-0.601c-1.134-0.3-2.434-0.6-3.9-0.899c0.021,0.021,0.047,0.046,0.075,0.074c-0.774-0.572-1.716-1.214-2.825-1.925l-4-2.35
	c0-0.566-0.35-1.417-1.05-2.55l-0.85-1.25c0.466-0.067,0.966-0.15,1.5-0.25l0.35-0.25c1.866-0.367,4.283-0.967,7.25-1.8l0.9,3.15
	l1.699,2.15l2.551,1.6l2-0.05c1.5-0.101,2.683-0.267,3.55-0.5c0.899-0.2,1.6-0.617,2.1-1.25c0.233-0.334,0.384-0.634,0.45-0.9
	l1.45,0.55c1.066,0.367,1.866,0.551,2.399,0.551c0.5,0,1.15-0.284,1.95-0.851c0.967-0.733,1.601-1.166,1.9-1.3
	c0.833-0.366,1.684-1.616,2.55-3.75v-5.4c0-0.9,0.066-1.617,0.2-2.15l0.2-0.5l3-4.3l-8.101,1.05L232.2,28
	c-1.634,0-3.066,0.217-4.3,0.65c-1.367,0.633-2.483,1.133-3.351,1.5c-1.066,0.434-2.383,1.283-3.95,2.55l-2,1.75l-1.3,3.2l-1.2,0.8
	h-0.35l0.2,0.1l-4.4,2.851c-4.967,1.8-8.166,2.883-9.6,3.25c-2.7,0.699-5.467,2.316-8.3,4.85c-2.4,1-5.467,1.566-9.2,1.7
	l-3.851-0.05c1.2-1.567,0.867-1.584-1-0.051c-0.699-0.233-1.333-0.416-1.899-0.55l3.7-0.75h4.699l2.851-0.5
	c2.133-0.467,3.767-1.05,4.899-1.75c1.801-1.133,3.483-2.934,5.051-5.399l2.199-1.75c1.567-1.167,2.634-1.817,3.2-1.95l1.8-0.4
	c0.7-0.167,1.45-0.383,2.25-0.65c1.367-0.433,2.384-1.433,3.051-3l-1-3.05c-0.233-1.133-0.351-2.15-0.351-3.05
	c0-0.667-0.333-1.483-1-2.45c-0.666-0.934-1.35-1.567-2.05-1.9c-1.167-0.5-2.066-0.917-2.7-1.25c-1.133-0.567-1.7-1.05-1.7-1.45
	c0-0.8-0.333-2.15-1-4.05c-0.333-1.133-1.233-2.267-2.699-3.4c-0.567-0.4-1.301-0.75-2.2-1.05l-1.15-0.3c-1.366-1.1-2.05-2-2.05-2.7
	c0-0.667-1.45-1.9-4.35-3.7c-2.034-0.9-3.617-1.35-4.75-1.35c-0.601,0-2.134-0.167-4.601-0.5c-2.5-0.333-3.883-0.5-4.149-0.5
	L168.6,3.35L170.9,5.4c1.633,1.434,2.649,2.217,3.05,2.35c0.633,0.2,0.767,0.517,0.399,0.95c-0.433,0.466-1.566,0.933-3.399,1.4
	c-3.167,0.467-5.084,0.8-5.75,1c-0.4,0.133-0.684,0.683-0.851,1.65c-0.1,0.5-0.149,0.967-0.149,1.4l-2.05,3.7v4.4
	c1.533-3.033,3.116-4.833,4.75-5.4c0.666-0.233,1.116-0.8,1.35-1.7l2.7-0.65l2.3,0.75c1.634,0.567,2.667,0.983,3.1,1.25
	c0.467,0.333,1.267,0.383,2.4,0.15l1.95,5.6c-0.434,2.933-0.983,4.5-1.65,4.7c-0.434,0.133-0.967,0.4-1.6,0.8l-0.8,0.55
	c-2.9,0.233-4.7,0.233-5.4,0l-1-0.3l2.05,2.65c-0.7,0.233-1.25,0.15-1.649-0.25c-0.601-0.6-1.4-0.95-2.4-1.05
	c-1.167-0.133-1.983-0.184-2.45-0.15c-0.866,0.1-1.517,0.15-1.95,0.15c-0.966,0-1.6,0.283-1.899,0.85l-0.8,5.85l1-1.65l1.149-0.7
	c0.867-0.534,1.5-0.867,1.9-1c0.666-0.233,1.45-0.35,2.35-0.35l1.4,0.35c1.066,0.233,1.95,0.35,2.649,0.35
	c1.134,0,3.051-0.233,5.75-0.7c1.467-0.167,2.834-0.2,4.101-0.1l0.6,3.5l-1.35,2l-3.351,4.05l0.051,0.7c-0.2,0.634-0.784,1.3-1.75,2
	c-1.233,1.066-2.084,1.733-2.551,2c-0.666,0.467-1.416,0.566-2.25,0.3c-1.267-0.133-2.35-0.399-3.25-0.8
	c-0.6-0.267-1.116-0.583-1.55-0.95c-0.733-0.566-1.399-1.416-2-2.55c-0.333-0.634-0.783-1.15-1.35-1.55
	c-0.667-0.4-1.217-0.783-1.65-1.15c-0.767-0.867-1.434-1.533-2-2c-1.033-0.8-2.35-1.2-3.95-1.2h-10.2l0.4,0.15h-1.65
	c-1.6,0-2.85,0.217-3.75,0.65c-0.566,0.3-0.967,0.733-1.2,1.3c-0.1,0.267-0.15,0.517-0.15,0.75l1.05,1.6
	c0.867,1.233,1.65,2.267,2.35,3.101c0.5,0.6,0.75,1.166,0.75,1.699c-2.633,0.167-4.467,0.483-5.5,0.95
	c-1.067,0.434-3.8,0.733-8.2,0.9l-6.25,0.149c-3.133,1.434-5.133,2.15-6,2.15c-0.533,0-2.033-0.35-4.5-1.05l-3.6-1.101l-2.95,3.25
	c-0.567,0.634-1.284,1.267-2.15,1.9c-1.7,1.233-3.267,1.85-4.7,1.85c-1.167,0-2.133,0.184-2.9,0.551c-0.8,0.366-1.667,0.55-2.6,0.55
	c-1.233,0-2.45-0.3-3.65-0.9c-1.133-0.666-1.917-1.083-2.35-1.25c-0.533-0.233-1.533-0.583-3-1.05l-2.1-0.6
	c-0.267,0.466-0.683,0.933-1.25,1.399c-1.133,1-2.417,1.617-3.85,1.851c-0.667,0.1-1.783,0.35-3.35,0.75
	c-0.867,0.199-1.883,0.3-3.05,0.3c-1.267,0-2.6-0.417-4-1.25c-1.567-1.134-2.783-1.967-3.65-2.5c-1.067-0.667-1.684-1.851-1.85-3.55
	l0.1-2.351l-2.55,3.75l-1.7,4.3c-0.5,0.101-1.184,0.351-2.05,0.75c-1.767,0.801-3.633,1.983-5.6,3.551
	c-2.067,1.633-5.184,3-9.35,4.1c-3.267,0.866-5.833,1.3-7.7,1.3h-4.7l-3.4-5.399c-0.267,3.233-0.833,5.566-1.7,7
	c-0.533,0.899-1.4,1.883-2.6,2.949l-1.65,1.351l-1.7-3.75l-3.4-5.4l0.05,2.2c0.067,1.7,0.184,3.116,0.35,4.25
	c0.2,1.167-0.15,2.35-1.05,3.55c-0.133,0.167-1.35,1.483-3.65,3.95C8.117,76.184,6.8,76.884,5,77.35c0.333,0.167,0.667,0.334,1,0.5
	c-0.767-0.3-1.483-0.699-2.15-1.199l-1.95-1.9c0-1.767-0.316-4.316-0.95-7.65C0.317,63.7,0,59.6,0,54.8v-3.7h0.1V50.4
	c1.433-3.334,2.1-5.834,2-7.5c0.233-0.867,1.267-2.084,3.1-3.65c1.767-1.467,2.65-2.483,2.65-3.05c0-0.1-0.283-1.05-0.85-2.85
	c-0.6-1.767-0.9-2.867-0.9-3.3c0-1.1,0.167-1.867,0.5-2.3c0.6-0.867,1.933-1.533,4-2c-0.367-0.267-0.6-0.767-0.7-1.5
	c-0.033-0.2-0.05-0.717-0.05-1.55c0-0.8,0.15-1.517,0.45-2.15c0.233-0.533,0.55-0.9,0.95-1.1c1.2-1.534,0.9-2.217-0.9-2.05v-3l2-3
	c1.333-0.3,2.667-0.633,4-1c0.467-0.066,0.967-0.066,1.5,0c0.933,0.767,1.683,1.684,2.25,2.75c0.1,0,0.217,0,0.35,0
	c1.8,0,3.233,0.617,4.3,1.85c0.567,0.633,1.067,1.4,1.5,2.3c0.233-0.233,0.783-0.966,1.65-2.2c1.367-1.133,3.55-1.7,6.55-1.7
	c4.466,0,8.117,0.75,10.95,2.25c1.467,0.767,2.667,1.65,3.6,2.65c0.067-1.466,0.283-2.6,0.65-3.4c0.267-0.6,0.733-1.083,1.4-1.45
	c-1.3,0.066-2.367-0.45-3.2-1.55V5.4l2.5-1.5l8-0.5l2,1c1.9,2.3,3.233,4.633,4,7c1.566-1.5,3.566-2,6-1.5c0.333,0,0.667,0,1,0l3.5,2
	c1,0.833,1.5,1.833,1.5,3c0,0.167,0,0.333,0,0.5c2.2-0.267,4.2,0.067,6,1l0.5,1v-3.5c2.3-2.633,5.167-3.417,8.6-2.35
	c0.1,0.067,0.233,0.017,0.4-0.15c0.433-1.3,1.25-2.333,2.45-3.1c0.2-0.1,0.383-0.233,0.55-0.4c2.3,0.2,4.467,0.033,6.5-0.5
	c0.167,0,0.333,0,0.5,0c2.367,0.667,4.367,1.833,6,3.5l2.5,0.5l1.5-1.5c0.233-2.566,1.566-4.733,4-6.5h3
	c5.267-2.1,10.267-1.767,15,1c1.566,4,3.95,7.017,7.15,9.05c0.233,0.167,0.85,0.15,1.85-0.05c1.967-1.033,3.117-2.867,3.45-5.5
	c0.033-0.167,0.05-0.333,0.05-0.5l1-1l2.5-1.5h0.45l-0.05,0.6c-0.066,1.533-0.033,2.517,0.1,2.95c0.233,0.667,1.134,1.667,2.7,3
	l1.7,0.7c-0.1-0.433-0.184-0.917-0.25-1.45c-0.1-1.067-0.017-1.817,0.25-2.25c0.467-0.7,0.917-1.717,1.35-3.05l4.4-1.7l-7.25-0.25
	c2.5-2.3,5.533-3.317,9.1-3.05l5,3l2.5-3c12.301-1.633,21.634,1.533,28,9.5c2.467,0.133,4.301,1.133,5.5,3l1-1.5l4-0.5
	c1.5,1.5,3.334,2.25,5.5,2.25c0.167,0,0.334-0.083,0.5-0.25l4,1c0.733-8.033,5.067-12.533,13-13.5c5.233,1.467,9.567,4.3,13,8.5
	l0.5,3c1.233,1.4,3.233,1.9,6,1.5l7.5,5.5l0.5-4c1.367-1.833,2.75-3.283,4.15-4.35l0.3,6.65l1.7-3.05l3.7-2.7l2.7-0.8
	c0.466,0.133,0.949,0.383,1.449,0.75c2.301-0.033,4.317-0.333,6.051-0.9c0.566-0.1,1.149-0.133,1.75-0.1
	c0.633,0.167,1.199,0.367,1.699,0.6c2.667,1.2,4,3.033,4,5.5c0,0.433-0.166,1.283-0.5,2.55c-0.333,1.267-0.5,2.1-0.5,2.5
	c0,0.067,0.084,0.983,0.25,2.75c0.267,0.833,0.684,1.467,1.25,1.9c0.067,1.6,1.15,2.867,3.25,3.8c2.167,0.933,3.25,1.917,3.25,2.95
	C293.35,34.517,293.267,35.933,293.1,37.2z M274.3,22.25l-1.55,1l-1,2.7L273.1,28l0.7-1.4c0.601-0.967,1.25-1.517,1.95-1.65
	c0.3-0.067,1.2-0.333,2.7-0.8c1.166-0.367,2.066-0.55,2.7-0.55h1.699l-6.05-2.05C276.267,21.383,275.434,21.617,274.3,22.25z
	 M236,3.7l0.95,4.2c0.399,2.867-0.033,4.5-1.3,4.9c-0.567,0.2-1.467,0.934-2.7,2.2l-1.65,1.85l-4.75,2.35l2.55,0.85
	c1.801,0.567,2.983,0.85,3.551,0.85c0.866,0,3.449-0.45,7.75-1.35l0.699-0.4c0.434-0.566,0.65-1.55,0.65-2.95
	c0-1.4-0.05-3.067-0.15-5L241.4,8.75L236,3.7z M228.25,2.7c-0.733,0.233-1.483,0.517-2.25,0.85c-1.533,0.667-2.366,1.284-2.5,1.85
	c-0.2,0.9-0.634,1.917-1.3,3.05l0.3,6.05c0.167-0.567,0.384-1.183,0.65-1.85c0.5-1.367,0.966-2.333,1.399-2.9
	c0.334-0.433,0.783-1.067,1.351-1.9c0.466-0.667,0.916-1.15,1.35-1.45c0.667-0.433,1.667-0.883,3-1.35
	c0.7-0.233,1.717-0.683,3.05-1.35l-2-1H228.25z M224.85,22.8l-3,0.45l-2.35-0.35c0.533,1.1,0.934,1.684,1.2,1.75
	c-0.434,0.367-1.283,1.133-2.55,2.3L217.8,31l0.65-1.55c0.566-1.067,1.133-1.667,1.7-1.8c0.399-0.1,1.449-0.6,3.149-1.5
	c1.566-0.8,2.533-1.2,2.9-1.2c1.133,0,2.149,0.117,3.05,0.35c0.9,0.2,2.467,0.3,4.7,0.3c0.7,0,2.017,0.05,3.95,0.15
	c1.699,0.033,2.75-0.017,3.149-0.15c0.667-0.2,2.684-0.983,6.05-2.35c-2.666-0.233-4.8-0.35-6.399-0.35h-6.4
	c-1.566,0-3.133-0.1-4.7-0.3C228.634,22.467,227.05,22.533,224.85,22.8z M208.05,19.45c0.134,0.167,0.267,0.316,0.4,0.45
	c0.934,0.934,1.85,0.934,2.75,0c0.866-0.867,0.899-1.967,0.1-3.3l-1.45-1.75c-0.1,0-0.199,0-0.3,0l-0.85-1.05
	c-1.134,0-1.834,0.083-2.101,0.25c-0.399,0.233-0.6,0.833-0.6,1.8c0,1.167,0.417,2.183,1.25,3.05
	C207.517,19.167,207.783,19.35,208.05,19.45z M211.55,41.4l1.851-0.45c0.966-0.167,1.833-0.233,2.6-0.2
	c-0.6,0.033-1.25,0.1-1.95,0.2L211.55,41.4z M174.7,50.55l-0.05-0.05l0.1,0.05H174.7z M157.65,43.05l1.3,2.101
	c1,1.5,1.85,2.583,2.55,3.25c0.566,0.533,1.167,1.283,1.8,2.25c0.601,0.666,1.417,1,2.45,1h2.55c1.967,0,3.617-0.184,4.95-0.551
	c0.566-0.133,1-0.283,1.3-0.449c-0.434,0.333-1.399,1.35-2.899,3.05c-1.601,1.833-3.134,2.75-4.601,2.75
	c-4.833,0-8.25-0.167-10.25-0.5c-2.733-0.5-5.85-2.65-9.35-6.45c-0.9-1-1.417-1.816-1.55-2.45l0.1-0.2c0-0.199,0-0.383,0-0.55
	l0.6-0.6c-0.199,0-0.416,0-0.649,0c-0.067-0.601-0.167-1.117-0.3-1.55c-0.133-0.4-0.183-0.851-0.15-1.351
	c0.1-0.833,0.15-1.283,0.15-1.35c0-0.467,0.267-0.816,0.8-1.05c0.434-0.2,0.95-0.301,1.55-0.301c0.267,0,0.917,0.167,1.95,0.5
	c1,0.334,1.816,0.5,2.45,0.5C153.533,41.1,155.283,41.75,157.65,43.05z M155.95,41.4c-0.733,0-1.5-0.434-2.3-1.301
	c-0.034-0.033-0.067-0.066-0.101-0.1C154.75,40.566,155.55,41.033,155.95,41.4z M106.9,14.5l-2.7-3.05l-3.05,5.4
	c-0.267,0.566-0.566,1.517-0.9,2.85c-0.167,0.667-0.317,1.283-0.45,1.85l-3.05,4.05l-5.35,0.35L91,27.7
	c-0.033,1.167,0.433,1.816,1.4,1.95c1.567,0.233,2.8,0.35,3.7,0.35c0.333,0,0.617-0.1,0.85-0.3c0.667-0.567,1.617-1.25,2.85-2.05
	c2.467-1.566,5.05-4.05,7.75-7.45L106.9,14.5z M148.85,23.4c-0.133-0.167-0.3-0.333-0.5-0.5c-1.533-1.333-2.883-1.7-4.05-1.1
	c-1.1,0.534-1.55,1.467-1.35,2.8c0.167,1.033,0.8,1.917,1.9,2.65c0.3,0.367,0.717,0.717,1.25,1.05c1.034,0.633,1.95,0.867,2.75,0.7
	c0.9-0.233,1.517-0.817,1.851-1.75c0.399-1.167,0.017-2.267-1.15-3.3C149.316,23.75,149.083,23.567,148.85,23.4z M125.2,26.05
	l-15.3,0.9L107.2,29l-1.35,1.65l6.75-2c0.4-0.1,1.3,0.167,2.7,0.8c1.333,0.6,2.233,0.783,2.7,0.55l-2,4.7
	c0,0.466-0.45,1.267-1.35,2.4l-3.05,3.7c-0.434,1.8-1,3.033-1.7,3.7l-0.35,0.35l-1.65,2l7.75-6.399c1.333-1.133,2.233-2.25,2.7-3.35
	c0.3-0.833,1.1-1.967,2.4-3.4c1.233-1.367,2.117-2.15,2.65-2.35c1.333-0.467,2.684-0.7,4.05-0.7c0.167,0,0.633-0.033,1.4-0.1
	c0.433-0.066,0.983-0.033,1.65,0.1l3.35,0.7L137.9,31v-4.35l-3.7-5.4c0.433-2.933,0.433-4.967,0-6.1
	c-0.667-1.566-2.35-3.467-5.05-5.7c0.3-0.467-0.417-1.184-2.15-2.15c-1.767-0.966-2.733-1.267-2.9-0.9
	c-0.1,0.167-1.117,0.533-3.05,1.1c-1.9,0.567-2.917,1.1-3.05,1.6c-0.233,0.9,0,2.133,0.7,3.7l-1.35,4.05v3.7l1,2.7l3.35-6.05
	l2.05-2.05l1.35-2.35l3.75-0.3c-0.133,0.767-0.483,1.55-1.05,2.35l-1.35,9.75C126.117,25.133,125.7,25.617,125.2,26.05z
	 M104.2,11.45l-6.4-1.35l-3.05,1.7c-0.567,0.267-1.3,0.8-2.2,1.6l-1.15,1.1l-0.7,2.7l0.35,1.8c0.233,1.3,0.35,2.15,0.35,2.55
	c0,0.7,0.217,1.717,0.65,3.05l2.05-4.7c0.433-0.967,0.95-1.833,1.55-2.6c0.3-0.367,0.567-0.633,0.8-0.8l2.35-1l0.85-0.95
	c0.667-0.733,1.283-1.316,1.85-1.75C102.4,12.133,103.3,11.683,104.2,11.45z M95.3,40.8c0.467,0.667,1.284,1.2,2.45,1.601
	c1.7,0.533,2.55,0.216,2.55-0.95c0-1.167-0.133-1.934-0.4-2.3c-0.167-0.233-0.5-0.467-1-0.7c-0.066-0.133-0.133-0.233-0.2-0.3
	c-0.267-0.367-0.917-0.717-1.95-1.05c-1.2-0.434-2.017-0.55-2.45-0.35c-0.533,0.233-0.716,0.9-0.55,2
	C93.883,39.617,94.4,40.3,95.3,40.8z M87.8,39.8c-0.7-0.7-1.216-1.216-1.55-1.55c-0.567-0.533-1.183-0.9-1.85-1.1l-8.55-2.7
	c-1.7-0.367-2.983-0.55-3.85-0.55c-0.533,0-1.533,0.45-3,1.35l-2.1,1.35l-3.8,4.8l4.25-1.051c0.7-0.166,1.333-0.533,1.9-1.1
	c0.567-0.267,1.633-0.083,3.2,0.55c2.566,1.066,4.833,1.967,6.8,2.7l1.3,3.2l1.25,1.95c0.9,1.166,1.617,1.416,2.15,0.75
	c0.533-0.667,1.017-1.384,1.45-2.15c0.233-0.434,0.6-1.15,1.1-2.15c0.3-0.533,0.783-1.316,1.45-2.35
	C88.383,40.917,88.333,40.267,87.8,39.8z M65.4,13.8l0.35,1.7l4.4-1.35l3.35-0.35c-2.467-1.566-4.267-2.35-5.4-2.35
	c-0.434,0-1.017,0.4-1.75,1.2L65.4,13.8z M67.8,22.25l5.05-0.7l1.65-2.65l-1-5.1l-1.65,2.7l-6.45,2.4L67.8,22.25z M50.9,4.7
	l-1.3,4.75l1.65,1l1.05-2.7l2.65-2l-1-1.35L50.9,4.7z M45.25,24.5c-0.467,3.4-1.283,5.4-2.45,6c0.3-0.067,0.65-0.117,1.05-0.15
	c0,0.467,0.033,1.383,0.1,2.75c-0.133,1.233-0.617,2-1.45,2.3c-0.833,0.267-1.917,0.8-3.25,1.6l-1.8,1.1l-6.1,1l3.4,4.4l4.7,0.3
	l3.4-1.649l7.4-6.75l-0.35-6.05l-4.35-10.8L45.25,24.5z M43.85,18.55l-3.05-1l-7.4,2.65l-2.35,2.05l-0.35,1.9
	c-0.233,1.4-0.35,2.45-0.35,3.15c0,0.167,0.017,0.333,0.05,0.5c0.033,1.1,0.25,2.617,0.65,4.55l2-5.05l1.15-1.4
	c0.867-0.967,1.5-1.517,1.9-1.65c0.667-0.2,2.683-1.2,6.05-3L43.85,18.55z M57.6,33.05c0.333,0.4,0.717,0.733,1.15,1
	c0.633,0.4,1.233,0.617,1.8,0.65c0.8-0.833,1.45-1.75,1.95-2.75c1-2.034,0.8-3.467-0.6-4.3c-0.1-0.066-0.2-0.117-0.3-0.15
	c-0.233-0.333-0.533-0.617-0.9-0.85c-1.7-1.033-3.083-1.333-4.15-0.9c-1.133,0.467-1.55,1.667-1.25,3.6
	C55.6,31.017,56.367,32.25,57.6,33.05z M54.25,40.9c-0.1-0.334-0.317-0.601-0.65-0.801c-0.667-0.399-1.517-0.417-2.55-0.05
	c-1.066,0.4-1.216,0.983-0.45,1.75c0.4,0.4,0.767,0.717,1.1,0.95l0.05,0.05c1.133,1.134,2.15,1.7,3.05,1.7
	c0.3-0.4,0.517-0.833,0.65-1.3c0.267-0.967,0.05-1.667-0.65-2.101C54.633,41,54.45,40.934,54.25,40.9z M14.2,15.15h2.35V11.1
	l-4.05,2.7L14.2,15.15z M17.35,29.15c-0.3-0.667-0.9-1.05-1.8-1.15c-0.867-0.133-1.75,0.167-2.65,0.9
	c-0.333,0.4-0.633,0.833-0.9,1.3l1.1,1.1c0.233,0.2,0.45,0.367,0.65,0.5l0.5,0.5c1,0.833,1.933,1.184,2.8,1.05
	c1.067-0.167,1.6-0.883,1.6-2.15C18.65,30.1,18.217,29.417,17.35,29.15z M17.5,43.45c-0.833-0.033-2.05,0-3.65,0.1l-3.4,0.25
	c-0.167-0.033-0.367-0.1-0.6-0.2C9.283,43.434,8.5,43.15,7.5,42.75L6.15,42.2c-0.867,0.733-1.65,1.583-2.35,2.55
	c-0.033,0.033-0.05,0.066-0.05,0.1C3.517,45.517,3.333,46.467,3.2,47.7c-0.034,0.434-0.05,0.8-0.05,1.1c-0.033,0.667,0.05,1,0.25,1
	c0.2,0,0.6,0.184,1.2,0.55C5.233,50.717,5.733,50.9,6.1,50.9c0.1,0,0.283-0.483,0.55-1.45c0.267-1,1.2-1.634,2.8-1.9
	c2.7-0.467,4.5-0.816,5.4-1.05l3.4,1.05c0.267-0.6,0.467-1.217,0.6-1.85c0.1-0.533,0.133-0.95,0.1-1.25l2.8,3.95v4.3l2.55,3.75
	l3-5.9c-0.3-2.866-0.45-4.833-0.45-5.899c0-0.667-0.567-1.134-1.7-1.4l-1.7-0.2c-2.267-1.8-4.25-2.883-5.95-3.25
	c-0.567-0.133-1.5-0.1-2.8,0.1c-1.133,0.133-2.517,0.383-4.15,0.75l-3.7,1c-0.2,0.133-0.383,0.267-0.55,0.399L17.5,43.45z
	 M20.25,50.5l-0.35-0.7l-5.05,4.45l0.5,0.55c0.4,0.334,0.8,0.5,1.2,0.5c0.667,0,1.45-0.45,2.35-1.35c1.133-0.7,1.7-1.384,1.7-2.05
	C20.6,51.5,20.483,51.033,20.25,50.5z"/>
<path style="fill-rule:evenodd;clip-rule:evenodd;fill:#55351E;" d="M279,16.95c0.333,0.167,0.717,0.35,1.15,0.55
	c1,0.433,1.816,0.6,2.449,0.5c0.467,0,0.834-0.133,1.101-0.4c0.666-0.633,1-1.333,1-2.1c0.033-0.333,0.033-0.667,0-1
	c-0.033-0.267-0.101-0.5-0.2-0.7c0.8,0.3,1.25,0.867,1.35,1.7c0.134,1.133-0.25,2.15-1.149,3.05c-0.634,0.667-1.767,0.65-3.4-0.05
	C280.167,18.033,279.4,17.517,279,16.95z M106.9,14.5l0.65,5.7c-2.7,3.4-5.283,5.883-7.75,7.45c-1.233,0.8-2.183,1.483-2.85,2.05
	c-0.233,0.2-0.517,0.3-0.85,0.3c-0.9,0-2.133-0.117-3.7-0.35c-0.967-0.133-1.433-0.783-1.4-1.95l0.4-1.75l5.35-0.35l3.05-4.05
	c0.133-0.566,0.284-1.183,0.45-1.85c0.333-1.333,0.633-2.284,0.9-2.85l3.05-5.4L106.9,14.5z M155.95,41.4
	c-0.4-0.367-1.2-0.834-2.4-1.4c-0.967-1.067-1.916-1.817-2.85-2.25c-1.267-0.567-2.816-0.9-4.65-1h-0.75l-0.4-0.15h10.2
	c1.601,0,2.917,0.4,3.95,1.2c0.566,0.467,1.233,1.133,2,2c0.434,0.367,0.983,0.75,1.65,1.15c0.566,0.399,1.017,0.916,1.35,1.55
	c0.601,1.134,1.267,1.983,2,2.55c0.434,0.367,0.95,0.684,1.55,0.95c0.9,0.4,1.983,0.667,3.25,0.8c0.834,0.267,1.584,0.167,2.25-0.3
	c0.467-0.267,1.317-0.934,2.551-2c0.966-0.7,1.55-1.366,1.75-2l-0.051-0.7l3.351-4.05l1.35-2l-0.6-3.5c0.434,0,0.866,0.033,1.3,0.1
	l-1.35-2c-4.733-0.233-7.767-0.133-9.101,0.3L170.25,28l1,0.3c0.7,0.233,2.5,0.233,5.4,0l0.8-0.55c0.633-0.4,1.166-0.667,1.6-0.8
	c0.667-0.2,1.217-1.767,1.65-4.7l-1.95-5.6c0.467-0.1,1-0.25,1.6-0.45l-3-2.7l-6.399-3.4c1.833-0.467,2.967-0.934,3.399-1.4
	c0.367-0.434,0.233-0.75-0.399-0.95c-0.4-0.133-1.417-0.917-3.05-2.35L168.6,3.35l7.051,0.35c0.267,0,1.649,0.167,4.149,0.5
	c2.467,0.333,4,0.5,4.601,0.5c1.133,0,2.716,0.45,4.75,1.35c2.899,1.8,4.35,3.034,4.35,3.7c0,0.7,0.684,1.6,2.05,2.7l1.15,0.3
	c0.899,0.3,1.633,0.65,2.2,1.05c1.466,1.133,2.366,2.267,2.699,3.4c0.667,1.9,1,3.25,1,4.05c0,0.4,0.567,0.883,1.7,1.45
	c0.634,0.333,1.533,0.75,2.7,1.25c0.7,0.333,1.384,0.966,2.05,1.9c0.667,0.967,1,1.783,1,2.45c0,0.9,0.117,1.917,0.351,3.05l1,3.05
	c-0.667,1.567-1.684,2.567-3.051,3c-0.8,0.267-1.55,0.483-2.25,0.65l-1.8,0.4c-0.566,0.133-1.633,0.783-3.2,1.95l-2.199,1.75
	c-1.567,2.466-3.25,4.267-5.051,5.399c-1.133,0.7-2.767,1.283-4.899,1.75l-2.851,0.5H181.4l-3.7,0.75c-1.2-0.233-2.184-0.233-2.95,0
	l-0.1-0.05l0.05,0.05c-0.033,0.033-0.084,0.066-0.15,0.101c-0.3,0.166-0.733,0.316-1.3,0.449c-1.333,0.367-2.983,0.551-4.95,0.551
	h-2.55c-1.033,0-1.85-0.334-2.45-1c-0.633-0.967-1.233-1.717-1.8-2.25c-0.7-0.667-1.55-1.75-2.55-3.25l-1.3-2.101
	c0.1-0.267,0.1-0.533,0-0.8C157.45,41.717,156.884,41.434,155.95,41.4z M216,40.75c-0.767-0.033-1.634,0.033-2.6,0.2l-1.851,0.45
	l4.4-2.851l5.899,1.9l1.101,0.6c0.434,0.167,0.899,0.283,1.399,0.351c-2.966-0.067-5.033-0.233-6.199-0.5
	C217.616,40.767,216.9,40.717,216,40.75z M226.9,41.65l-0.2-0.25c0.6-0.034,1.283-0.117,2.05-0.25l-0.35,0.25
	C227.866,41.5,227.366,41.583,226.9,41.65z M236,39.35c0.634-0.2,1.3-0.4,2-0.6l2.15-0.8c1.666-0.567,2.983-0.85,3.949-0.85
	c1.567,0,3.817-0.9,6.75-2.7l-0.699-1.35l-8.4-0.35c-1.467-0.1-2.983-0.184-4.55-0.25c-3.167-0.133-5.033-0.05-5.601,0.25
	c-0.566,0.267-1.233,0.683-2,1.25l-3.699,2.8l-4.4,1.35l-5.4,0.35l1.2-0.8l1.3-3.2l2-1.75c1.567-1.267,2.884-2.117,3.95-2.55
	c0.867-0.367,1.983-0.867,3.351-1.5c1.233-0.433,2.666-0.65,4.3-0.65l22.6-0.55l8.101-1.05l-3,4.3l-0.2,0.5
	c-0.134,0.533-0.2,1.25-0.2,2.15v5.4c-0.866,2.134-1.717,3.384-2.55,3.75c-0.3,0.134-0.934,0.566-1.9,1.3
	c-0.8,0.566-1.45,0.851-1.95,0.851c-0.533,0-1.333-0.184-2.399-0.551l-1.45-0.55c-0.066,0.267-0.217,0.566-0.45,0.9
	c-0.5,0.633-1.2,1.05-2.1,1.25c-0.867,0.233-2.05,0.399-3.55,0.5l-2,0.05l-2.551-1.6L236.9,42.5L236,39.35z M293.1,37.2
	c-0.033,0.2-0.066,0.417-0.1,0.65c-0.467-0.133-0.85-0.2-1.15-0.2C292.217,37.55,292.634,37.4,293.1,37.2z M283.15,37.25
	c-0.334-0.133-0.684-0.283-1.051-0.45c-1.833-0.8-2.833-1.233-3-1.3c-1.399-0.4-2.399-2-3-4.8c-0.166-0.9-0.35-1.617-0.55-2.15
	l-0.3-0.55l1-0.8c0.8-0.534,1.467-0.8,2-0.8l3.8-1.65l1,1.05c0.7,0.8,1.233,1.534,1.601,2.2c0.767,1.433,2.316,2.15,4.649,2.15
	c0.9,0,1.733,0.367,2.5,1.1c0.4,0.333,0.7,0.683,0.9,1.05l-4.45,1.05l-2.7-0.3c-0.566-0.133-1.416-0.133-2.55,0l-1.5,0.3v0.75
	c0.1,0.566,0.434,1,1,1.3c0.267,0.133,0.467,0.667,0.6,1.6C283.1,37.067,283.116,37.15,283.15,37.25z M236,3.7l5.4,5.05l0.199,2.45
	c0.101,1.933,0.15,3.6,0.15,5c0,1.4-0.217,2.383-0.65,2.95l-0.699,0.4c-4.301,0.9-6.884,1.35-7.75,1.35
	c-0.567,0-1.75-0.283-3.551-0.85l-2.55-0.85l4.75-2.35l1.65-1.85c1.233-1.267,2.133-2,2.7-2.2c1.267-0.4,1.699-2.033,1.3-4.9
	L236,3.7z M210.7,17.35c0-0.533-0.184-1.117-0.55-1.75l-0.601-0.75c0.101,0,0.2,0,0.3,0l1.45,1.75c0.8,1.333,0.767,2.433-0.1,3.3
	c-0.9,0.934-1.816,0.934-2.75,0c-0.134-0.133-0.267-0.283-0.4-0.45c0.3,0.133,0.617,0.167,0.95,0.1c0.434,0.1,0.866-0.066,1.3-0.5
	C210.767,18.583,210.9,18.017,210.7,17.35z M194.2,17.85l2,6.4c-0.434,0.7-0.983,1.05-1.65,1.05c-0.434,0-1.133-0.283-2.1-0.85
	l-1.3-0.85v3.7l3.699,0.15c2.367,0.167,3.267,0.45,2.7,0.85c-0.133,0.1-0.783,0.4-1.95,0.9c-0.966,0.4-1.767,1-2.399,1.8
	c-0.667,0.8-1.134,1.55-1.4,2.25c-0.3,0.8-0.517,1.283-0.649,1.45c-2.233,3.167-3.584,5.083-4.051,5.75l-2.35,4.399l-5.4,1.65
	l1.351,0.3c1.133,0.167,2.267,0.184,3.399,0.05c0.9-0.1,1.851-0.199,2.851-0.3c0.666-0.133,1.283-0.483,1.85-1.05
	s1.101-1.233,1.601-2c0.267-0.4,0.633-0.967,1.1-1.7c0.434-0.633,1-1.399,1.7-2.3c0.899-1.1,1.566-1.8,2-2.1
	c0.399-0.267,0.916-0.917,1.55-1.95c0.333-0.6,0.833-1.517,1.5-2.75c0.267-0.467,0.5-1.367,0.7-2.7c0.166-1,0.5-1.567,1-1.7
	c0.666-0.133,1.017-0.85,1.05-2.15c0.033-1.3-0.217-2.383-0.75-3.25c-0.4-0.7-1.533-1.75-3.4-3.15L194.2,17.85z M144.85,27.25
	c0.033,0,0.066,0.017,0.1,0.05c1,0.6,1.866,0.85,2.6,0.75c0.2,0,0.4-0.017,0.601-0.05c0.666-0.2,1.133-0.7,1.399-1.5
	c0.134-0.367,0.184-0.717,0.15-1.05c0.033-0.7-0.25-1.383-0.851-2.05c0.233,0.167,0.467,0.35,0.7,0.55
	c1.167,1.033,1.55,2.133,1.15,3.3c-0.334,0.933-0.95,1.517-1.851,1.75c-0.8,0.167-1.716-0.067-2.75-0.7
	C145.567,27.967,145.15,27.617,144.85,27.25z M129.15,9.45c2.7,2.233,4.383,4.133,5.05,5.7c0.433,1.133,0.433,3.167,0,6.1l3.7,5.4
	V31l-4.05,0.35l-3.35-0.7c-0.667-0.133-1.217-0.167-1.65-0.1c-0.767,0.067-1.233,0.1-1.4,0.1c-1.367,0-2.717,0.233-4.05,0.7
	c-0.533,0.2-1.417,0.983-2.65,2.35c-1.3,1.433-2.1,2.566-2.4,3.4c-0.467,1.1-1.367,2.217-2.7,3.35l-7.75,6.399l1.65-2l0.35-0.35
	c0.7-0.667,1.267-1.9,1.7-3.7l3.05-3.7c0.9-1.133,1.35-1.934,1.35-2.4l2-4.7l8.45-4.05l-1.25,0.1c0.5-0.433,0.917-0.917,1.25-1.45
	l1.35-9.75c0.567-0.8,0.917-1.583,1.05-2.35l0.3-0.05c-0.1-0.333-0.183-0.7-0.25-1.1C128.767,10.517,128.85,9.883,129.15,9.45z
	 M132.85,25.85l-1.35-1.9c0,0.333,0.133,0.767,0.4,1.3c0.1,0.4-0.267,0.75-1.1,1.05c-0.833,0.267-1.466,0.684-1.9,1.25l-0.45,0.75
	l0.9,0.65c0.733,0.4,1.45,0.533,2.15,0.4c0.567-0.1,0.9,0,1,0.3c0.033,0.133,0.267-0.083,0.7-0.65
	C133.767,28.3,133.65,27.25,132.85,25.85z M97.9,41.65c0.833,0.133,1.25-0.184,1.25-0.95c0-0.066,0-0.117,0-0.15s0-0.066,0-0.1
	c0-0.9-0.083-1.567-0.25-2c0.5,0.233,0.833,0.466,1,0.7c0.267,0.367,0.4,1.133,0.4,2.3c0,1.166-0.85,1.483-2.55,0.95
	c-1.167-0.4-1.983-0.934-2.45-1.601c0.367,0.2,0.8,0.384,1.3,0.55C97.1,41.517,97.533,41.616,97.9,41.65z M87.8,39.8
	c0.534,0.467,0.583,1.117,0.15,1.95c-0.667,1.033-1.15,1.816-1.45,2.35c-0.5,1-0.867,1.717-1.1,2.15
	c-0.433,0.767-0.917,1.483-1.45,2.15c-0.534,0.666-1.25,0.416-2.15-0.75l-1.25-1.95l-1.3-3.2c-1.967-0.733-4.233-1.634-6.8-2.7
	c-1.567-0.633-2.633-0.816-3.2-0.55c-0.567,0.567-1.2,0.934-1.9,1.1L63.1,41.4l3.8-4.8l2.1-1.35c1.467-0.9,2.467-1.35,3-1.35
	c0.867,0,2.15,0.184,3.85,0.55l8.55,2.7c0.667,0.2,1.283,0.567,1.85,1.1C86.583,38.583,87.1,39.1,87.8,39.8z M82.75,42.95
	c0.233,0.7,0.633,0.983,1.2,0.85c0.633-0.133,1.1-0.383,1.4-0.75C85.583,42.816,85.8,42.4,86,41.8c0.2-0.666-0.933-1.684-3.4-3.05
	v3.05L82.75,42.95z M67.8,22.25l-2.4-3.35l6.45-2.4l1.65-2.7l1,5.1l-1.65,2.65L67.8,22.25z M45.25,24.5l0.3-5.95l4.35,10.8
	l0.35,6.05l-7.4,6.75l-3.4,1.649l-4.7-0.3l-3.4-4.4l6.1-1l1.8-1.1c1.333-0.8,2.417-1.333,3.25-1.6c0.833-0.3,1.317-1.066,1.45-2.3
	c-0.067-1.367-0.1-2.283-0.1-2.75c-0.4,0.033-0.75,0.083-1.05,0.15C43.967,29.9,44.783,27.9,45.25,24.5z M61.9,29.35
	c0.1-0.733,0-1.35-0.3-1.85c0.1,0.033,0.2,0.083,0.3,0.15c1.4,0.833,1.6,2.267,0.6,4.3c-0.5,1-1.15,1.917-1.95,2.75
	c-0.566-0.034-1.167-0.25-1.8-0.65c-0.433-0.267-0.817-0.6-1.15-1c0.6,0.367,1.183,0.583,1.75,0.65h0.05c0.067,0,0.133,0,0.2,0
	l1.75-2.2C61.817,30.633,62,29.917,61.9,29.35z M51.7,42.75c0.4,0.3,0.8,0.517,1.2,0.65c0.367,0.199,0.717,0.3,1.05,0.3
	c0.2-0.3,0.35-0.617,0.45-0.95c0.167-0.5,0.15-0.9-0.05-1.2c0-0.233-0.033-0.45-0.1-0.649c0.2,0.033,0.383,0.1,0.55,0.199
	c0.7,0.434,0.917,1.134,0.65,2.101c-0.133,0.467-0.35,0.899-0.65,1.3c-0.9,0-1.917-0.566-3.05-1.7L51.7,42.75z M14.2,15.15
	l-1.7-1.35l4.05-2.7v4.05H14.2z M17.35,29.15c0.867,0.267,1.3,0.95,1.3,2.05c0,1.267-0.533,1.983-1.6,2.15
	c-0.867,0.133-1.8-0.217-2.8-1.05l-0.5-0.5c0.633,0.4,1.233,0.6,1.8,0.6c0.267,0.1,0.534,0.117,0.8,0.05
	c0.733-0.133,1.1-0.717,1.1-1.75c0.033-0.167,0.05-0.35,0.05-0.55C17.5,29.75,17.45,29.417,17.35,29.15z M18.95,44.45l-0.6-0.9
	l-0.85-0.1l-11.2-1.4c0.167-0.133,0.35-0.267,0.55-0.399l3.7-1c1.633-0.367,3.017-0.617,4.15-0.75c1.3-0.2,2.233-0.233,2.8-0.1
	c1.7,0.367,3.683,1.45,5.95,3.25l1.7,0.2c1.133,0.267,1.7,0.733,1.7,1.4c0,1.066,0.15,3.033,0.45,5.899l-3,5.9l-2.55-3.75v-4.3
	L18.95,44.45z"/>
<path style="fill-rule:evenodd;clip-rule:evenodd;fill:#482D1D;" d="M228.75,41.15c-0.767,0.133-1.45,0.216-2.05,0.25
	c-0.867,0.066-1.65,0.066-2.351,0c-0.5-0.067-0.966-0.184-1.399-0.351l-1.101-0.6l-5.899-1.9l-0.2-0.1h0.35l5.4-0.35l4.4-1.35
	l3.699-2.8c0.767-0.567,1.434-0.983,2-1.25c0.567-0.3,2.434-0.383,5.601-0.25c1.566,0.066,3.083,0.15,4.55,0.25l8.4,0.35l0.699,1.35
	c-2.933,1.8-5.183,2.7-6.75,2.7c-0.966,0-2.283,0.283-3.949,0.85l-2.15,0.8c-0.7,0.2-1.366,0.4-2,0.6
	C233.033,40.184,230.616,40.783,228.75,41.15z M283.15,37.25c0.8,0.267,1.433,0.4,1.899,0.4
	C283.95,37.85,283.316,37.717,283.15,37.25z M194.2,17.85l2.649,1.9c1.867,1.4,3,2.45,3.4,3.15c0.533,0.867,0.783,1.95,0.75,3.25
	c-0.033,1.3-0.384,2.017-1.05,2.15c-0.5,0.133-0.834,0.7-1,1.7c-0.2,1.333-0.434,2.233-0.7,2.7c-0.667,1.233-1.167,2.15-1.5,2.75
	c-0.634,1.033-1.15,1.683-1.55,1.95c-0.434,0.3-1.101,1-2,2.1c-0.7,0.9-1.267,1.667-1.7,2.3c-0.467,0.733-0.833,1.3-1.1,1.7
	c-0.5,0.767-1.034,1.434-1.601,2s-1.184,0.917-1.85,1.05c-1,0.101-1.95,0.2-2.851,0.3c-1.133,0.134-2.267,0.117-3.399-0.05
	l-1.351-0.3l5.4-1.65l2.35-4.399c0.467-0.667,1.817-2.583,4.051-5.75c0.133-0.167,0.35-0.65,0.649-1.45
	c0.267-0.7,0.733-1.45,1.4-2.25c0.633-0.8,1.434-1.4,2.399-1.8c1.167-0.5,1.817-0.8,1.95-0.9c0.566-0.4-0.333-0.683-2.7-0.85
	l-3.699-0.15v-3.7l1.3,0.85c0.967,0.566,1.666,0.85,2.1,0.85c0.667,0,1.217-0.35,1.65-1.05L194.2,17.85z M132.85,25.85
	c0.8,1.4,0.917,2.45,0.35,3.15c-0.434,0.567-0.667,0.783-0.7,0.65c-0.1-0.3-0.433-0.4-1-0.3c-0.7,0.133-1.417,0-2.15-0.4l-0.9-0.65
	l0.45-0.75c0.434-0.566,1.067-0.983,1.9-1.25c0.833-0.3,1.2-0.65,1.1-1.05c-0.267-0.533-0.4-0.967-0.4-1.3L132.85,25.85z
	 M82.75,42.95L82.6,41.8v-3.05c2.467,1.366,3.6,2.384,3.4,3.05c-0.2,0.601-0.417,1.017-0.65,1.25c-0.3,0.367-0.767,0.617-1.4,0.75
	C83.383,43.934,82.983,43.65,82.75,42.95z"/>
<path style="fill-rule:evenodd;clip-rule:evenodd;fill:#6D4126;" d="M263,10.55c0.267-0.233,0.55-0.45,0.85-0.65
	c2.567-0.267,5.051-0.033,7.45,0.7c0.033,0,0.066,0.017,0.101,0.05l-2.7,0.8l-3.7,2.7l-1.7,3.05L263,10.55z M193.65,49.5
	c2.833-2.533,5.6-4.15,8.3-4.85c1.434-0.367,4.633-1.45,9.6-3.25C203.45,45.167,197.483,47.866,193.65,49.5z M150.3,4.9h1.55
	c0.434-0.533,0.9-1.017,1.4-1.45l7.25,0.25l-4.4,1.7c-0.433,1.333-0.883,2.35-1.35,3.05c-0.267,0.433-0.35,1.183-0.25,2.25
	c0.066,0.533,0.15,1.017,0.25,1.45l-1.7-0.7c-1.566-1.333-2.467-2.333-2.7-3c-0.133-0.434-0.166-1.417-0.1-2.95L150.3,4.9z
	 M174.75,50.55c0.767-0.233,1.75-0.233,2.95,0c0.566,0.134,1.2,0.316,1.899,0.55c1.867-1.533,2.2-1.517,1,0.051
	c-0.666,0.8-1.767,2.05-3.3,3.75c-4.434,4.833-8.383,7.666-11.85,8.5l-3.101-1h-5.75c-2.666,0-6.083-1.084-10.25-3.25
	c-3.7-1.9-6.466-3.784-8.3-5.65c-1.7-1.7-4.15-2.6-7.35-2.7c-3.467-0.1-7.184,0.8-11.15,2.7c-3.466,1.7-6.433,2.616-8.9,2.75
	l-2.6-0.3l-3.2,4.8c-4.7,1.1-8.333,1.366-10.9,0.8c-0.6-0.133-2.75-0.967-6.45-2.5c-2.6-1.1-4.283-1.333-5.05-0.7
	c-0.967,0.801-2.934,1.367-5.9,1.7c-3,0.334-5.933,0.3-8.8-0.1c-2.3-0.334-5.017-0.167-8.15,0.5c-2.867,0.733-4.617,1.1-5.25,1.1
	c-0.8,0-3.184,0.816-7.15,2.45l-5.65,2.4c-0.733,0.533-1.667,1.083-2.8,1.649c-2.233,1.066-4.283,1.601-6.15,1.601h-5.75
	c-5.1,2.133-8.283,3.733-9.55,4.8c-1.066,1.233-1.95,2.116-2.65,2.649c-1.233,0.934-2.917,1.4-5.05,1.4c-0.167,0-0.317,0-0.45,0
	L6,77.85c-0.333-0.166-0.667-0.333-1-0.5c1.8-0.466,3.117-1.166,3.95-2.1c2.3-2.467,3.517-3.783,3.65-3.95
	c0.9-1.2,1.25-2.383,1.05-3.55c-0.167-1.134-0.283-2.55-0.35-4.25l-0.05-2.2l3.4,5.4l1.7,3.75L20,69.1
	c1.2-1.066,2.067-2.05,2.6-2.949c0.867-1.434,1.433-3.767,1.7-7l3.4,5.399h4.7c1.867,0,4.434-0.434,7.7-1.3
	c4.167-1.1,7.283-2.467,9.35-4.1c1.966-1.567,3.833-2.75,5.6-3.551c0.867-0.399,1.55-0.649,2.05-0.75l1.7-4.3l2.55-3.75l-0.1,2.351
	c0.167,1.699,0.783,2.883,1.85,3.55c0.867,0.533,2.083,1.366,3.65,2.5c1.4,0.833,2.733,1.25,4,1.25c1.167,0,2.183-0.101,3.05-0.3
	c1.567-0.4,2.684-0.65,3.35-0.75c1.434-0.233,2.717-0.851,3.85-1.851c0.567-0.467,0.983-0.934,1.25-1.399l2.1,0.6
	c1.467,0.467,2.467,0.816,3,1.05c0.433,0.167,1.217,0.584,2.35,1.25c1.2,0.601,2.417,0.9,3.65,0.9c0.933,0,1.8-0.184,2.6-0.55
	c0.767-0.367,1.733-0.551,2.9-0.551c1.433,0,3-0.616,4.7-1.85c0.867-0.634,1.583-1.267,2.15-1.9l2.95-3.25l3.6,1.101
	c2.467,0.7,3.967,1.05,4.5,1.05c0.867,0,2.867-0.717,6-2.15L129,47.7c4.4-0.167,7.133-0.467,8.2-0.9
	c1.033-0.467,2.867-0.783,5.5-0.95c0-0.533-0.25-1.1-0.75-1.699c-0.7-0.834-1.483-1.867-2.35-3.101l-1.05-1.6
	c0-0.233,0.05-0.483,0.15-0.75c0.233-0.567,0.633-1,1.2-1.3c0.9-0.433,2.15-0.65,3.75-0.65h1.65h0.75c1.834,0.1,3.384,0.433,4.65,1
	c0.934,0.433,1.883,1.183,2.85,2.25c0.033,0.033,0.066,0.066,0.101,0.1c0.8,0.867,1.566,1.301,2.3,1.301
	c0.934,0.033,1.5,0.316,1.7,0.85c0.1,0.267,0.1,0.533,0,0.8c-2.367-1.3-4.117-1.95-5.25-1.95c-0.634,0-1.45-0.166-2.45-0.5
	c-1.033-0.333-1.684-0.5-1.95-0.5c-0.6,0-1.116,0.101-1.55,0.301c-0.534,0.233-0.8,0.583-0.8,1.05c0,0.066-0.05,0.517-0.15,1.35
	c-0.033,0.5,0.017,0.95,0.15,1.351c0.133,0.433,0.233,0.949,0.3,1.55c0.233,0,0.45,0,0.649,0l-0.6,0.6c0,0.167,0,0.351,0,0.55
	l-0.1,0.2c0.133,0.634,0.65,1.45,1.55,2.45c3.5,3.8,6.616,5.95,9.35,6.45c2,0.333,5.417,0.5,10.25,0.5c1.467,0,3-0.917,4.601-2.75
	c1.5-1.7,2.466-2.717,2.899-3.05c0.066-0.034,0.117-0.067,0.15-0.101H174.75z M178.75,16.65c-1.134,0.233-1.934,0.184-2.4-0.15
	c-0.433-0.267-1.466-0.683-3.1-1.25l-2.3-0.75l-2.7,0.65c-0.233,0.9-0.684,1.467-1.35,1.7c-1.634,0.566-3.217,2.367-4.75,5.4v-4.4
	l2.05-3.7c0-0.433,0.05-0.9,0.149-1.4c0.167-0.967,0.45-1.517,0.851-1.65c0.666-0.2,2.583-0.533,5.75-1l6.399,3.4l3,2.7
	C179.75,16.4,179.217,16.55,178.75,16.65z M172.3,30.65c1.334-0.433,4.367-0.533,9.101-0.3l1.35,2c-0.434-0.067-0.866-0.1-1.3-0.1
	c-1.267-0.1-2.634-0.067-4.101,0.1c-2.699,0.467-4.616,0.7-5.75,0.7c-0.699,0-1.583-0.117-2.649-0.35l-1.4-0.35
	c-0.899,0-1.684,0.117-2.35,0.35c-0.4,0.133-1.033,0.466-1.9,1l-1.149,0.7l-1,1.65l0.8-5.85c0.3-0.567,0.934-0.85,1.899-0.85
	c0.434,0,1.084-0.05,1.95-0.15c0.467-0.034,1.283,0.017,2.45,0.15c1,0.1,1.8,0.45,2.4,1.05C171.05,30.8,171.6,30.883,172.3,30.65z
	 M226.9,41.65l0.85,1.25c0.7,1.133,1.05,1.983,1.05,2.55c-0.633,0.267-1.483,0.5-2.55,0.7c-2.134,0.399-4.267,0.433-6.4,0.1
	c-2.133-0.333-4.149-1.233-6.05-2.7l-2.25-2.149l2.5-0.45c0.7-0.101,1.351-0.167,1.95-0.2c0.9-0.033,1.616,0.017,2.15,0.15
	c1.166,0.267,3.233,0.433,6.199,0.5c0.7,0.066,1.483,0.066,2.351,0L226.9,41.65z M290.65,43.7l-0.051,0.05
	c-1.267,1.533-3.267,2.6-6,3.2c-3.399,0.767-5.399,1.316-6,1.649c-0.399,0.233-0.767,0.534-1.1,0.9h-0.75
	c-5.1,2.667-8.717,4.533-10.85,5.6c-1.334,0.7-3.334,1.317-6,1.851l-3.601,0.6c-2.866-0.533-5.8-1.166-8.8-1.899
	c-5.967-1.5-9.217-2.75-9.75-3.75c-0.2-0.4-0.583-0.851-1.15-1.351L236,50c-0.122-0.093-0.247-0.185-0.375-0.275
	c-0.028-0.028-0.054-0.053-0.075-0.074c1.467,0.3,2.767,0.6,3.9,0.899l3.3,0.601c2.566,0.466,4.733,0.8,6.5,1
	c1.434,0.199,2.9,0.633,4.4,1.3c1.3,0.366,2.966,0.116,5-0.75c3.1-1.3,5.483-2.4,7.149-3.3c2.3-1.233,4.033-2.467,5.2-3.7
	c1.066-1.101,1.667-3.033,1.8-5.8l-0.1-3.85l1.55,2.55c1.366,1.8,2.833,2.917,4.4,3.35c1.3,0.366,2.633,0.767,4,1.2
	c1.1,0.267,2.75,0.399,4.949,0.399C288.634,43.55,289.65,43.6,290.65,43.7z M274.3,22.25c1.134-0.633,1.967-0.867,2.5-0.7l6.05,2.05
	h-1.699c-0.634,0-1.534,0.183-2.7,0.55c-1.5,0.467-2.4,0.733-2.7,0.8c-0.7,0.133-1.35,0.683-1.95,1.65l-0.7,1.4l-1.35-2.05l1-2.7
	L274.3,22.25z M224.85,22.8c2.2-0.267,3.784-0.333,4.75-0.2c1.567,0.2,3.134,0.3,4.7,0.3h6.4c1.6,0,3.733,0.117,6.399,0.35
	c-3.366,1.367-5.383,2.15-6.05,2.35c-0.399,0.133-1.45,0.183-3.149,0.15c-1.934-0.1-3.25-0.15-3.95-0.15c-2.233,0-3.8-0.1-4.7-0.3
	c-0.9-0.233-1.917-0.35-3.05-0.35c-0.367,0-1.334,0.4-2.9,1.2c-1.7,0.9-2.75,1.4-3.149,1.5c-0.567,0.133-1.134,0.733-1.7,1.8
	L217.8,31l0.351-4.05c1.267-1.167,2.116-1.934,2.55-2.3c-0.267-0.066-0.667-0.65-1.2-1.75l2.35,0.35L224.85,22.8z M228.25,2.7h3.05
	l2,1c-1.333,0.667-2.35,1.117-3.05,1.35c-1.333,0.467-2.333,0.917-3,1.35c-0.434,0.3-0.884,0.783-1.35,1.45
	c-0.567,0.833-1.017,1.467-1.351,1.9c-0.434,0.567-0.899,1.533-1.399,2.9c-0.267,0.667-0.483,1.283-0.65,1.85l-0.3-6.05
	c0.666-1.133,1.1-2.15,1.3-3.05c0.134-0.566,0.967-1.183,2.5-1.85C226.767,3.217,227.517,2.933,228.25,2.7z M128.85,12.5l-3.75,0.3
	l-1.35,2.35l-2.05,2.05l-3.35,6.05l-1-2.7v-3.7l1.35-4.05c-0.7-1.566-0.934-2.8-0.7-3.7c0.133-0.5,1.15-1.033,3.05-1.6
	c1.934-0.567,2.95-0.933,3.05-1.1c0.167-0.367,1.133-0.066,2.9,0.9c1.733,0.967,2.45,1.684,2.15,2.15
	c-0.3,0.433-0.383,1.066-0.25,1.9c0.067,0.4,0.15,0.767,0.25,1.1L128.85,12.5z M118,30c-0.467,0.233-1.367,0.05-2.7-0.55
	c-1.4-0.633-2.3-0.9-2.7-0.8l-6.75,2L107.2,29l2.7-2.05l15.3-0.9l1.25-0.1L118,30z M104.2,11.45c-0.9,0.233-1.8,0.683-2.7,1.35
	c-0.567,0.434-1.183,1.017-1.85,1.75L98.8,15.5l-2.35,1c-0.233,0.167-0.5,0.433-0.8,0.8c-0.6,0.767-1.117,1.633-1.55,2.6l-2.05,4.7
	c-0.433-1.333-0.65-2.35-0.65-3.05c0-0.4-0.117-1.25-0.35-2.55l-0.35-1.8l0.7-2.7l1.15-1.1c0.9-0.8,1.633-1.333,2.2-1.6l3.05-1.7
	L104.2,11.45z M65.4,13.8l0.95-1.15c0.733-0.8,1.316-1.2,1.75-1.2c1.133,0,2.933,0.783,5.4,2.35l-3.35,0.35l-4.4,1.35L65.4,13.8z
	 M50.9,4.7l3.05-0.3l1,1.35l-2.65,2l-1.05,2.7l-1.65-1L50.9,4.7z M43.85,18.55l-1.7,2.7c-3.367,1.8-5.383,2.8-6.05,3
	c-0.4,0.133-1.033,0.683-1.9,1.65l-1.15,1.4l-2,5.05c-0.4-1.934-0.617-3.45-0.65-4.55c-0.033-0.167-0.05-0.333-0.05-0.5
	c0-0.7,0.117-1.75,0.35-3.15l0.35-1.9l2.35-2.05l7.4-2.65L43.85,18.55z M17.5,43.45l0.85,0.1l0.6,0.9c0.033,0.3,0,0.717-0.1,1.25
	c-0.133,0.633-0.333,1.25-0.6,1.85l-3.4-1.05c-0.9,0.233-2.7,0.583-5.4,1.05c-1.6,0.267-2.534,0.9-2.8,1.9
	C6.383,50.417,6.2,50.9,6.1,50.9c-0.367,0-0.867-0.184-1.5-0.551c-0.6-0.366-1-0.55-1.2-0.55c-0.2,0-0.283-0.333-0.25-1
	c0-0.3,0.017-0.666,0.05-1.1c0.133-1.233,0.316-2.184,0.55-2.851c0-0.033,0.017-0.066,0.05-0.1c0.7-0.967,1.483-1.816,2.35-2.55
	l1.35,0.55c1,0.4,1.783,0.684,2.35,0.85c0.233,0.101,0.433,0.167,0.6,0.2l3.4-0.25C15.45,43.45,16.667,43.417,17.5,43.45z
	 M20.25,50.5c0.233,0.533,0.35,1,0.35,1.4c0,0.666-0.567,1.35-1.7,2.05c-0.9,0.899-1.683,1.35-2.35,1.35c-0.4,0-0.8-0.166-1.2-0.5
	l-0.5-0.55l5.05-4.45L20.25,50.5z"/>
<path style="fill-rule:evenodd;clip-rule:evenodd;fill:#5B554D;" d="M279,16.95c-0.9-0.567-1.417-1.167-1.55-1.8
	c-0.2-0.933-0.066-1.583,0.399-1.95c0.567-0.5,1.784-0.75,3.65-0.75c1.6,0,2.6,0.45,3,1.35c0.1,0.2,0.167,0.434,0.2,0.7
	c0.033,0.333,0.033,0.667,0,1c0-0.1-0.017-0.217-0.05-0.35c-0.134-1.033-0.934-1.583-2.4-1.65c-0.1,0-0.2,0-0.3,0
	c-1.634,0-2.684,0.2-3.15,0.6c-0.399,0.3-0.517,0.833-0.35,1.6c0.033,0.133,0.1,0.283,0.2,0.45c0.333,0.5,1.033,0.967,2.1,1.4
	c0.733,0.3,1.35,0.45,1.85,0.45c-0.633,0.1-1.449-0.067-2.449-0.5C279.717,17.3,279.333,17.117,279,16.95z M209.55,14.85l0.601,0.75
	c0.366,0.633,0.55,1.217,0.55,1.75c-0.066-0.267-0.184-0.55-0.351-0.85l-1.05-1.35c-0.866,0-1.399,0.067-1.6,0.2
	c-0.3,0.167-0.45,0.617-0.45,1.35c0,0.9,0.316,1.683,0.95,2.35c0.267,0.267,0.533,0.434,0.8,0.5c-0.333,0.067-0.65,0.034-0.95-0.1
	c-0.267-0.1-0.533-0.284-0.8-0.55c-0.833-0.867-1.25-1.883-1.25-3.05c0-0.967,0.2-1.567,0.6-1.8c0.267-0.167,0.967-0.25,2.101-0.25
	L209.55,14.85z M144.85,27.25c-1.1-0.733-1.733-1.617-1.9-2.65c-0.2-1.333,0.25-2.267,1.35-2.8c1.167-0.6,2.517-0.233,4.05,1.1
	c0.2,0.167,0.367,0.333,0.5,0.5c0.601,0.667,0.884,1.35,0.851,2.05c-0.101-0.6-0.434-1.184-1-1.75c-1.167-1.1-2.184-1.4-3.05-0.9
	c-0.8,0.434-1.133,1.217-1,2.35c0.1,0.934,0.583,1.684,1.45,2.25c0.534,0.367,1.017,0.583,1.45,0.65c-0.733,0.1-1.6-0.15-2.6-0.75
	C144.917,27.267,144.883,27.25,144.85,27.25z M98.9,38.45c0.167,0.433,0.25,1.1,0.25,2c-0.033-0.8-0.133-1.35-0.3-1.65
	c-0.2-0.3-0.7-0.583-1.5-0.85c-0.167-0.067-0.317-0.117-0.45-0.15c-0.7-0.2-1.183-0.233-1.45-0.1c-0.133,0.066-0.233,0.183-0.3,0.35
	c-0.167,0.267-0.2,0.7-0.1,1.3c0.167,0.966,0.883,1.667,2.15,2.1c0.267,0.1,0.5,0.166,0.7,0.2c-0.367-0.034-0.8-0.134-1.3-0.301
	c-0.5-0.166-0.934-0.35-1.3-0.55c-0.9-0.5-1.417-1.183-1.55-2.05c-0.167-1.1,0.017-1.767,0.55-2c0.434-0.2,1.25-0.083,2.45,0.35
	c1.033,0.333,1.683,0.683,1.95,1.05C98.767,38.217,98.833,38.317,98.9,38.45z M61.6,27.5c0.3,0.5,0.4,1.117,0.3,1.85
	c-0.133-0.533-0.5-0.95-1.1-1.25c-1.5-0.8-2.733-1.033-3.7-0.7c-0.1,0.033-0.2,0.083-0.3,0.15c-0.833,0.434-1.117,1.333-0.85,2.7
	c0.233,1.1,0.733,1.967,1.5,2.6c0.167,0.133,0.35,0.25,0.55,0.35c0.467,0.267,0.933,0.433,1.4,0.5h-0.05
	c-0.567-0.067-1.15-0.284-1.75-0.65c-1.233-0.8-2-2.033-2.3-3.7c-0.3-1.934,0.117-3.133,1.25-3.6c1.067-0.433,2.45-0.133,4.15,0.9
	C61.067,26.883,61.367,27.167,61.6,27.5z M52.9,43.4c-0.4-0.134-0.8-0.351-1.2-0.65c-0.333-0.233-0.7-0.55-1.1-0.95
	c-0.767-0.767-0.617-1.35,0.45-1.75c1.034-0.367,1.883-0.35,2.55,0.05c0.333,0.2,0.55,0.467,0.65,0.801
	c0.067,0.199,0.1,0.416,0.1,0.649c-0.1-0.166-0.233-0.3-0.4-0.399c-0.5-0.301-1.133-0.301-1.9,0H52
	c-0.433,0.133-0.65,0.333-0.65,0.6c-0.033,0.2,0.083,0.434,0.35,0.7C52.1,42.85,52.5,43.167,52.9,43.4z M13.75,31.8
	c-0.2-0.133-0.417-0.3-0.65-0.5L12,30.2c0.267-0.467,0.567-0.9,0.9-1.3c0.9-0.733,1.783-1.033,2.65-0.9c0.9,0.1,1.5,0.483,1.8,1.15
	c0.1,0.267,0.15,0.6,0.15,1c0,0.2-0.017,0.383-0.05,0.55c0-0.934-0.333-1.5-1-1.7c-0.1-0.033-0.217-0.067-0.35-0.1
	c-0.567-0.066-1.167,0.184-1.8,0.75l-0.8,0.9l0.9,1.05c0.4,0.4,0.783,0.667,1.15,0.8C14.983,32.4,14.383,32.2,13.75,31.8z"/>
<path style="fill-rule:evenodd;clip-rule:evenodd;fill:#514C45;" d="M282.6,18c-0.5,0-1.116-0.15-1.85-0.45
	c-1.066-0.433-1.767-0.9-2.1-1.4c-0.101-0.167-0.167-0.316-0.2-0.45c-0.167-0.767-0.05-1.3,0.35-1.6c0.467-0.4,1.517-0.6,3.15-0.6
	c0.1,0,0.2,0,0.3,0c1.467,0.067,2.267,0.617,2.4,1.65c0.033,0.133,0.05,0.25,0.05,0.35c0,0.767-0.334,1.467-1,2.1
	C283.434,17.867,283.066,18,282.6,18z M210.7,17.35c0.2,0.667,0.066,1.233-0.4,1.7c-0.434,0.434-0.866,0.6-1.3,0.5
	c-0.267-0.066-0.533-0.233-0.8-0.5c-0.634-0.667-0.95-1.45-0.95-2.35c0-0.733,0.15-1.184,0.45-1.35c0.2-0.133,0.733-0.2,1.6-0.2
	l1.05,1.35C210.517,16.8,210.634,17.083,210.7,17.35z M147.55,28.05c-0.434-0.066-0.916-0.283-1.45-0.65
	c-0.866-0.566-1.35-1.316-1.45-2.25c-0.133-1.133,0.2-1.917,1-2.35c0.867-0.5,1.883-0.2,3.05,0.9c0.566,0.566,0.899,1.15,1,1.75
	c0.033,0.333-0.017,0.683-0.15,1.05c-0.267,0.8-0.733,1.3-1.399,1.5C147.95,28.033,147.75,28.05,147.55,28.05z M99.15,40.45
	c0,0.033,0,0.066,0,0.1s0,0.084,0,0.15c0,0.767-0.417,1.083-1.25,0.95c-0.2-0.034-0.433-0.101-0.7-0.2
	c-1.267-0.434-1.983-1.134-2.15-2.1c-0.1-0.6-0.066-1.033,0.1-1.3c0.067-0.167,0.167-0.283,0.3-0.35c0.267-0.133,0.75-0.1,1.45,0.1
	c0.133,0.034,0.283,0.083,0.45,0.15c0.8,0.267,1.3,0.55,1.5,0.85C99.017,39.1,99.117,39.65,99.15,40.45z M61.9,29.35
	c0.1,0.566-0.083,1.283-0.55,2.15l-1.75,2.2c-0.067,0-0.133,0-0.2,0c-0.467-0.067-0.933-0.233-1.4-0.5
	c-0.2-0.1-0.383-0.217-0.55-0.35c-0.767-0.633-1.267-1.5-1.5-2.6c-0.267-1.367,0.017-2.267,0.85-2.7c0.1-0.066,0.2-0.117,0.3-0.15
	c0.967-0.333,2.2-0.1,3.7,0.7C61.4,28.4,61.767,28.817,61.9,29.35z M54.35,41.55c0.2,0.3,0.217,0.7,0.05,1.2
	c-0.1,0.333-0.25,0.65-0.45,0.95c-0.333,0-0.684-0.101-1.05-0.3c-0.4-0.233-0.8-0.551-1.2-0.95c-0.267-0.267-0.383-0.5-0.35-0.7
	c0-0.267,0.217-0.467,0.65-0.6h0.05c0.767-0.301,1.4-0.301,1.9,0C54.117,41.25,54.25,41.384,54.35,41.55z M15.55,32.4
	c-0.367-0.133-0.75-0.4-1.15-0.8l-0.9-1.05l0.8-0.9c0.633-0.566,1.233-0.816,1.8-0.75c0.133,0.033,0.25,0.067,0.35,0.1
	c0.667,0.2,1,0.767,1,1.7c0,1.033-0.367,1.617-1.1,1.75C16.083,32.517,15.817,32.5,15.55,32.4z"/>
</svg>
