<?xml version="1.0" encoding="iso-8859-1"?>
<!-- Generator: Adobe Illustrator 15.1.0, SVG Export Plug-In . SVG Version: 6.00 Build 0)  -->
<!DOCTYPE svg PUBLIC "-//W3C//DTD SVG 1.1//EN" "http://www.w3.org/Graphics/SVG/1.1/DTD/svg11.dtd">
<svg version="1.1" id="FlashAICB" xmlns="http://www.w3.org/2000/svg" xmlns:xlink="http://www.w3.org/1999/xlink" x="0px" y="0px"
	 width="63.05px" height="172.55px" viewBox="0 0 63.05 172.55" style="enable-background:new 0 0 63.05 172.55;"
	 xml:space="preserve">
<g>
	<g>
		<path style="fill-rule:evenodd;clip-rule:evenodd;fill:#633B21;" d="M1.65,76.7C0.35,50.767,0.133,27.917,1,8.15
			C12.233,10.05,25.867,9.667,41.9,7c8.433-1.4,12.916-2.133,13.449-2.2c3.467-0.366,5.334,0.034,5.601,1.2
			c1.934,8.767,2.533,30.867,1.8,66.3c-0.4,19.233-1.184,44.917-2.35,77.05c-0.334,12.4-4.517,19.834-12.551,22.301
			c-5.733,1.733-14.3,0.949-25.7-2.351c-4-1.133-8.033-4.184-12.1-9.149c-4.333-5.267-6.483-10.217-6.45-14.851
			C3.767,129.667,3.117,106.8,1.65,76.7z"/>
		<path style="fill-rule:evenodd;clip-rule:evenodd;fill:#57351D;" d="M27.4,20.5c-0.467-1.2-0.767-1.967-0.9-2.3
			c-0.2-0.5-0.55-1.05-1.05-1.65c-0.467-0.6-1.367-0.866-2.7-0.8L20.95,16l-5.15-0.4c-1.8-0.7-3.2-0.917-4.2-0.65
			c-2.167,0.566-5.25,1.216-9.25,1.95c-0.233-1.6-0.317-3.517-0.25-5.75c0.066-2.3,0-4.233-0.2-5.8
			C6.066,4.983,14.967,3.934,28.6,2.2C40.733,0.833,47.95,0.434,50.25,1c5.233,1.267,8.7,3.383,10.4,6.35
			c0.833,1.467,1.25,3.566,1.25,6.3c0,0.534-0.517,0.95-1.551,1.25c-1.133,0.333-1.816,0.75-2.05,1.25
			c-0.633,1.434-0.883,2.534-0.75,3.3c-0.7,0.4-1.3,1.85-1.8,4.35c-0.533,2.667-1.083,4.267-1.65,4.8
			c-0.133,0.167-0.483-1.2-1.05-4.1c-0.566-2.867-0.934-4.233-1.1-4.1c-0.566-0.7-1.4-0.85-2.5-0.45L48,20.75
			c-0.967-0.633-2.733-1.05-5.3-1.25c-1.601-0.133-3.233,0.15-4.9,0.85l-2.05,1.05v0.05c-0.767,0.133-1.267,0.583-1.5,1.35
			c-0.366,1.233-0.717,2.067-1.05,2.5c-0.267,0.367-1.2,1.067-2.8,2.1c-1.333,0.867-2.083,1.617-2.25,2.25
			c-0.133-1.066-0.15-1.933-0.05-2.6C28.5,24.817,28.267,22.633,27.4,20.5z"/>
		<path style="fill-rule:evenodd;clip-rule:evenodd;fill:#57351D;" d="M3.15,40.9c0.667,0.6,1.267,0.9,1.8,0.9
			c1.033,0,2.033-0.783,3-2.35c0.366-0.667,1.066-1.583,2.1-2.75c0.534-0.567,1.017-1.083,1.45-1.55l0.55,1.2
			c0.3,1,0.367,1.933,0.2,2.8c-0.3,1.934-0.3,3.267,0,4c0.133,0.267,0.45,0.917,0.95,1.95c0.533,1.066,1.15,1.917,1.85,2.55
			c0.767,0.733,1.5,2.15,2.2,4.25c0.566,1.733,0.967,3.434,1.2,5.1c0.133,0.9,0.683,2.117,1.65,3.65c0.966,1.534,1.483,2.7,1.55,3.5
			c0.1,1.067-0.017,1.934-0.35,2.6c-0.167,0.267-0.683,0.917-1.55,1.95c-0.5,0.633-0.95,1.617-1.35,2.95c-0.5,1.9-0.8,2.95-0.9,3.15
			c-0.5,1.233-0.867,2.217-1.1,2.95l-1.9,4l-0.95,5.3c-0.167,0.967-0.316,1.9-0.45,2.8c-0.133,0.601-0.6,1.534-1.4,2.801
			c-0.9,1.366-1.417,2.116-1.55,2.25c-0.033,0-0.65,0.216-1.85,0.649c-0.833,0.3-1.433,0.8-1.8,1.5L7,95.3c1-1.767,2-3.017,3-3.75
			c0.633-0.434,0.917-1.267,0.85-2.5l-0.3-1.75l0.95-6.1L10,81.75c-0.733,0.233-1.783,0.517-3.15,0.85c-1.367,0.3-2.2,0.45-2.5,0.45
			l-1.05-0.1L3.25,80.8c0.7-0.133,1.383-0.35,2.05-0.65c1.034-0.533,1.65-0.883,1.85-1.05c0.233-0.167,0.5-0.45,0.8-0.85
			c0.1-0.133,0.45-0.467,1.05-1c0.467-0.4,0.8-0.867,1-1.4c0.233-0.533,0.5-1.35,0.8-2.45l0.35-1.5l0.5-1.1
			c0.434-0.8,0.883-1.417,1.35-1.85c0.667-0.6,1.117-1.067,1.35-1.4c0.3-0.5,0.533-1.183,0.7-2.05c0.167-0.767,0.167-2.15,0-4.15
			L14.7,58.6l-1.3-5.05l-3.2-5.6c0-0.767-0.034-1.5-0.1-2.2c-0.133-1.4-0.35-1.917-0.65-1.55c-0.967,1.3-2.134,1.466-3.5,0.5
			c-0.934-0.667-1.867-1.767-2.8-3.3V40.9z"/>
		<path style="fill-rule:evenodd;clip-rule:evenodd;fill:#57351D;" d="M54.9,93.85c-0.101-1.399-0.167-2.716-0.2-3.949
			c-0.033-2.434,0.133-3.167,0.5-2.2c0.633,1.533,1,4.333,1.1,8.399c0.101,4.067-0.149,6.534-0.75,7.4
			c-0.566,0.8-1.267,1.217-2.1,1.25c-0.367,0.033-1.533-0.1-3.5-0.4c-1.033-0.133-1.8-0.199-2.3-0.199
			c-0.434,0-1.117-0.067-2.051-0.2c-1.133-0.2-1.783-0.851-1.949-1.95l0.1-1.6L45.6,99.1l1.25-3.05l3.7,0.851L54.9,93.85z"/>
		<path style="fill-rule:evenodd;clip-rule:evenodd;fill:#57351D;" d="M55.85,49.65l3.801,4.5l-2.5-1.3c-0.301,2-0.967,3.467-2,4.4
			c-0.667,0.6-1.233,0.983-1.7,1.15c-0.533,0.067-0.983,0.133-1.351,0.2c-0.833,0.233-1.5,0.383-2,0.45
			c-0.933,0.134-1.75-0.083-2.449-0.65c-0.7-0.566-1.267-1.767-1.7-3.6l-0.45-2.55l3.9,3.7l0.85,0.25c0.7,0.133,1.434,0.066,2.2-0.2
			c0.7-0.233,1.333-1.217,1.899-2.95C54.983,51.117,55.483,49.983,55.85,49.65z"/>
		<path style="fill-rule:evenodd;clip-rule:evenodd;fill:#57351D;" d="M16.5,95.9c0.633,0,1.833-2.434,3.6-7.301l2.25,8.2l0.35,6.8
			l-1.95,5.9l-1.05,2.15c-0.767,1.666-1.284,3.066-1.55,4.199c-0.3,1.134-0.767,1.917-1.4,2.351c-0.333,0.233-0.633,0.35-0.9,0.35
			c-1.3-0.3-2.833-0.75-4.6-1.35c-1.133-0.434-1.833-0.7-2.1-0.8c-0.267-0.067-0.967-0.101-2.1-0.101c-0.966,0-1.6,0.55-1.9,1.65
			c-0.367,1.2-0.833,1.866-1.4,2H3.6v-4l1.15-0.55l3.6-4.101h4.9c0.933,0,1.583-0.45,1.95-1.35c0.333-1.2,0.65-2.117,0.95-2.75
			c1.1-1.967,1.65-4.684,1.65-8.15c0-0.733-0.816-1.399-2.45-2l-2.45-0.7l1.45-0.199C15.383,95.983,16.1,95.9,16.5,95.9z"/>
		<path style="fill-rule:evenodd;clip-rule:evenodd;fill:#57351D;" d="M27.1,79.5l0.35-0.1l1.65-0.75l2.15,1.5l2.9-0.75
			c0.8-1,1.283-2,1.449-3L35.4,78.6c-0.167,1.6-0.351,2.717-0.551,3.35c-0.3,1-1.5,1.75-3.6,2.25h-2.4c-0.6,0-1.2-0.534-1.8-1.6
			L27.1,79.5z"/>
		<path style="fill-rule:evenodd;clip-rule:evenodd;fill:#57351D;" d="M35.1,135.8c-0.866,0.601-1.85,0.9-2.949,0.9
			c-1.334,0-2.634-0.3-3.9-0.9c-0.4-0.2-0.9-1.083-1.5-2.649l-0.8-2.351l2.3,0.25c1.833,0.134,3.566,0.2,5.2,0.2
			c1.633,0,3.333-1.283,5.1-3.85l2.101-3.851l1,4.55v8.15l-1.351,8.2l-2.899,6.8l-3.95-1.35L32.9,152.1
			c-0.434,1.567-0.784,2.634-1.051,3.2c-0.3,0.634-1.016,1.2-2.149,1.7c-1,0.4-1.817,0.6-2.45,0.6c-0.6,0-1.5-0.283-2.7-0.85
			c-1.367-0.634-2.2-1.267-2.5-1.9c-0.267-0.566-0.133-0.733,0.4-0.5c0.267,0.101,0.566,0.267,0.9,0.5
			c0.667-0.366,1.383-0.767,2.15-1.199c1.566-0.801,2.7-1.301,3.4-1.5c0.7-0.2,0.85-1.233,0.45-3.101l-0.8-2.8l1-1.8l4.9-1.851
			C34.884,140.5,35.1,138.233,35.1,135.8z"/>
		<path style="fill-rule:evenodd;clip-rule:evenodd;fill:#57351D;" d="M19.7,45.4l3.15-6.05c0.5-0.8,0.7-2.283,0.6-4.45l1.5,3.75
			l-0.9,3.95c-0.9,1.4-1.65,2.417-2.25,3.05c-0.333,0.367-0.517,1.05-0.55,2.05c-0.033,1.033-0.1,1.6-0.2,1.7
			c-0.267,0.267-0.65,0.284-1.15,0.05L19.7,45.4z"/>
		<path style="fill-rule:evenodd;clip-rule:evenodd;fill:#57351D;" d="M52.75,152.5c0.934,0,2.2,1.65,3.8,4.95l0.8-8.601L57.9,151.9
			c0.333,2.3,0.5,4.149,0.5,5.55c0,1.399-0.134,2.416-0.4,3.05c-0.167,0.4-0.517,1.116-1.05,2.15
			c-0.334,0.866-0.75,1.517-1.25,1.949c-0.3,0.233-0.684,0.5-1.15,0.801c-0.399,0.433-1.1,0.916-2.1,1.449
			c-1.167,0.601-2.066,0.834-2.7,0.7c-0.566-0.133-1.366-0.833-2.4-2.1l-1.399-1.9h2.399l3.4-1.5c1.333-1.533,2-3.066,2-4.6
			c0-0.4-0.967-1.3-2.9-2.7l-2.899-1.95L52.75,152.5z"/>
		<path style="fill-rule:evenodd;clip-rule:evenodd;fill:#57351D;" d="M16,138.65l-0.1,2c-0.133,1.5-0.35,2.616-0.65,3.35
			c-0.367,0.9-0.967,2.066-1.8,3.5c-0.867,1.467-1.583,2.55-2.15,3.25c-0.533,0.667-1.583,0.566-3.15-0.3L8,150.1l-0.1-0.149
			l-0.15-0.45c-0.367-0.866-0.783-2.017-1.25-3.45l3.9-0.3c1.133-2.134,2.317-4.25,3.55-6.35c-0.634-1.667-1.2-2.5-1.7-2.5
			s-2-1.067-4.5-3.2h3.75c0.533-0.467,1.083-0.934,1.65-1.4c1.167-0.967,1.867-1.45,2.1-1.45c0.267,0,0.467,1.301,0.6,3.9
			C15.917,136.05,15.967,137.35,16,138.65z"/>
		<g>
			<path style="fill-rule:evenodd;clip-rule:evenodd;fill:#4A2D1C;" d="M22,3.4c0.367-0.2,1.367-0.417,3-0.65
				c1.066-0.566,2.1-1.033,3.1-1.4l10.55,0.4l1.05,0.3C42.333,2.017,45.8,2.033,50.1,2.1l1.051-0.8l0.3,0.85
				c3.2,0.067,5.434,0.184,6.7,0.35c1.199,0.867,1.833,1.3,1.899,1.3c0.2,0.733,0.283,1.784,0.25,3.15
				c-0.066,1.167,0.084,2.15,0.45,2.95c0,0.067-0.2,0.483-0.6,1.25c-0.134,0-0.367-0.183-0.7-0.55c-0.334-0.367-0.55-0.55-0.65-0.55
				c0.167-0.6-0.166-1.167-1-1.7c0.167,0.933,0.25,1.6,0.25,2c0.2,2.167-0.149,2.583-1.05,1.25c-1.366-2-2.134-3-2.3-3l-1.15-0.2
				L53.9,10l0.699,0.75l-0.55-0.2l0.65,2.8l0.649,5.9c-1.3-2.733-2.433-4.3-3.399-4.7l-4.9-2.2c-0.934-0.4-2-1.733-3.2-4
				c0.233,1.167,0.4,1.9,0.5,2.2l0.5,1.75c-1.267-0.566-2.433-1.35-3.5-2.35c-0.767-0.833-1.3-1.467-1.6-1.9l-0.6,0.85
				c-0.2,0.967-0.517,1.667-0.95,2.1l-1.15,1.15l-0.2-0.5L34.9,12.6l-0.5,2.9c-0.467,2.367-1.067,4.617-1.801,6.75L32,18.2
				l-4.6-7.15l-0.7,0.35l-1.35,0.5c0.267-1.033,0.333-1.733,0.2-2.1L25.4,9.25c0,0.233-0.133,0.467-0.4,0.7
				c-0.5,0.433-1.333,0.617-2.5,0.55l-0.35-1.1c-0.333,0.267-0.733,0.467-1.2,0.6l-1.2,0.35c-0.267,0.9-0.333,1.633-0.2,2.2l0.4,1.5
				c-1.4-0.866-2.267-1.767-2.6-2.7V11.3l-1.4,1.45l-0.25-1l-0.45,0.45l-1.45,1.2c0.167-1.133,0.217-1.966,0.15-2.5l-3.45,2.75
				c0.2-0.867,0.217-1.633,0.05-2.3L9.85,11L9.8,10.9c-0.767,0.9-1.566,1.517-2.4,1.85L5.7,13.4l0.4-1.3
				c-0.167,0.167-0.833,0.367-2,0.6c-0.467,0.1-0.784,0.4-0.95,0.9c-0.2,0.5-0.316,0.75-0.35,0.75
				c-0.167-0.733-0.283-2.117-0.35-4.15C2.35,8.067,2.233,6.667,2.1,6c1.966-0.333,5.7-0.816,11.2-1.45
				C18.2,4.017,21.1,3.633,22,3.4z"/>
			<path style="fill-rule:evenodd;clip-rule:evenodd;fill:#4A2D1C;" d="M17.15,66.05c0,1.767-0.316,3.083-0.95,3.95
				c-0.2,0.3-0.767,1.833-1.7,4.6c-0.867,2.566-1.617,4.15-2.25,4.75c-0.767,1.066-1.333,1.8-1.7,2.2c-0.566,0.7-1.5,1.117-2.8,1.25
				c-1.3,0.1-2.783,0.034-4.45-0.2v-1c0.867-0.1,1.667-0.15,2.4-0.15c1.5,0,3.433-1.684,5.8-5.05c0.333-0.433,0.883-1.183,1.65-2.25
				c0.633-1.033,1.083-2.05,1.35-3.05c0.3-1.233,0.833-2.45,1.6-3.65C16.5,66.883,16.85,66.417,17.15,66.05z"/>
			<path style="fill-rule:evenodd;clip-rule:evenodd;fill:#4A2D1C;" d="M3.15,41.8h1.8c1.233,0,2.417-0.35,3.55-1.05L9.4,40
				c0.667-0.566,1.117-1.017,1.35-1.35c0.267,0.7,0.2,1.317-0.2,1.85c-0.9,1.333-1.833,2.4-2.8,3.2c-0.8,0.633-2.333,0.033-4.6-1.8
				V41.8z"/>
		</g>
		<path style="fill-rule:evenodd;clip-rule:evenodd;fill:#57351D;" d="M32.35,103.1c0.167,1.934-0.149,3.301-0.949,4.101
			c-0.734,0.733-1.65,0.6-2.75-0.4c-1.033-0.899-1.816-2.149-2.35-3.75c-0.533-1.533-0.35-2.733,0.55-3.6
			c0.9-0.867,2.083-0.934,3.55-0.2C31.5,99.816,32.15,101.1,32.35,103.1z"/>
		<path style="fill-rule:evenodd;clip-rule:evenodd;fill:#57351D;" d="M35.4,48.65c0.899-0.2,1.483,0.483,1.75,2.05
			c0.3,1.533,0.133,2.75-0.5,3.65c-0.567,0.8-1.134,0.933-1.7,0.4c-0.367-0.333-0.934-1.2-1.7-2.6
			c-0.533-0.966-0.483-1.783,0.15-2.45C33.866,49.233,34.533,48.883,35.4,48.65z"/>
		<path style="fill-rule:evenodd;clip-rule:evenodd;fill:#57351D;" d="M10,24.1c0.867,0.833,1.3,1.65,1.3,2.45
			c0,0.767-0.333,1.267-1,1.5c-0.533,0.167-1.2-0.066-2-0.7L7.2,26.3l0.65-1.85C8.417,23.417,9.133,23.3,10,24.1z"/>
		<path style="fill-rule:evenodd;clip-rule:evenodd;fill:#57351D;" d="M31.35,119.7c1.467-0.2,2.284,0.783,2.45,2.95
			c0.134,2.1-0.366,3.616-1.5,4.55c-1,0.8-1.816,0.916-2.45,0.35c-0.5-0.5-0.917-1.5-1.25-3c-0.3-1.3-0.184-2.399,0.35-3.3
			C29.483,120.384,30.283,119.866,31.35,119.7z"/>
		<path style="fill-rule:evenodd;clip-rule:evenodd;fill:#57351D;" d="M44.45,63.8c1.566,0,2.383,1.217,2.45,3.65
			c0.066,2.367-0.367,3.7-1.301,4c-1.633,0.6-3.183-0.117-4.649-2.15c-0.767-1.1-0.767-2.283,0-3.55
			C41.75,64.45,42.917,63.8,44.45,63.8z"/>
		<path style="fill-rule:evenodd;clip-rule:evenodd;fill:#5C554D;" d="M31.85,101.55c0.167,1.967-0.149,3.351-0.95,4.15
			c-0.733,0.733-1.65,0.6-2.75-0.4c-1.033-0.934-1.816-2.2-2.35-3.8c-0.533-1.5-0.35-2.684,0.55-3.55
			c0.9-0.867,2.083-0.95,3.55-0.25C31,98.267,31.65,99.55,31.85,101.55z"/>
		<path style="fill-rule:evenodd;clip-rule:evenodd;fill:#5C554D;" d="M34.8,46.9c0.9-0.233,1.483,0.45,1.75,2.05
			c0.3,1.533,0.117,2.75-0.55,3.65c-0.533,0.8-1.1,0.933-1.7,0.4c-0.333-0.333-0.899-1.2-1.7-2.6
			c-0.533-0.966-0.483-1.783,0.15-2.45C33.217,47.45,33.9,47.1,34.8,46.9z"/>
		<path style="fill-rule:evenodd;clip-rule:evenodd;fill:#5C554D;" d="M9.4,22.35c0.867,0.833,1.3,1.65,1.3,2.45
			c0,0.767-0.333,1.267-1,1.5c-0.534,0.167-1.2-0.083-2-0.75L6.6,24.5l0.6-1.8C7.8,21.667,8.533,21.55,9.4,22.35z"/>
		<path style="fill-rule:evenodd;clip-rule:evenodd;fill:#5C554D;" d="M33.2,120.9c0.133,2.066-0.367,3.583-1.5,4.55
			c-1,0.8-1.817,0.916-2.45,0.35c-0.5-0.467-0.934-1.467-1.3-3c-0.3-1.3-0.167-2.399,0.4-3.3c0.533-0.866,1.333-1.384,2.4-1.55
			C32.217,117.75,33.033,118.733,33.2,120.9z"/>
		<path style="fill-rule:evenodd;clip-rule:evenodd;fill:#5C554D;" d="M43.65,61.6c1.6,0,2.416,1.217,2.449,3.65
			c0.067,2.367-0.366,3.717-1.3,4.05c-1.6,0.6-3.133-0.133-4.6-2.2c-0.8-1.1-0.8-2.283,0-3.55C40.967,62.25,42.116,61.6,43.65,61.6z
			"/>
		<path style="fill-rule:evenodd;clip-rule:evenodd;fill:#524C45;" d="M31.85,102.75c0.167,1.434-0.1,2.45-0.8,3.05
			c-0.633,0.533-1.4,0.434-2.3-0.3c-0.867-0.667-1.533-1.6-2-2.8c-0.434-1.134-0.267-2.017,0.5-2.65
			c0.767-0.633,1.75-0.684,2.95-0.149C31.134,100.3,31.684,101.25,31.85,102.75z"/>
		<path style="fill-rule:evenodd;clip-rule:evenodd;fill:#524C45;" d="M34.8,48.15c0.9-0.167,1.483,0.383,1.75,1.65
			c0.267,1.233,0.084,2.233-0.55,3c-0.533,0.634-1.1,0.733-1.7,0.3c-0.333-0.267-0.899-0.967-1.7-2.1c-0.533-0.8-0.483-1.467,0.15-2
			C33.217,48.6,33.9,48.317,34.8,48.15z"/>
		<path style="fill-rule:evenodd;clip-rule:evenodd;fill:#524C45;" d="M9.6,24.65c0.767,0.434,1.15,0.883,1.15,1.35
			c0,0.434-0.3,0.717-0.9,0.85c-0.434,0.1-1.017-0.033-1.75-0.4l-0.95-0.6l0.55-1C8.233,24.25,8.867,24.184,9.6,24.65z"/>
		<path style="fill-rule:evenodd;clip-rule:evenodd;fill:#524C45;" d="M31.2,120.15c1.233-0.134,1.899,0.583,2,2.149
			c0.133,1.533-0.283,2.634-1.25,3.3c-0.834,0.601-1.5,0.684-2,0.25c-0.4-0.333-0.767-1.05-1.1-2.149
			c-0.233-0.967-0.117-1.783,0.35-2.45C29.633,120.616,30.3,120.25,31.2,120.15z"/>
		<path style="fill-rule:evenodd;clip-rule:evenodd;fill:#524C45;" d="M44.1,64.2c1.301,0,1.983,0.833,2.051,2.5
			c0.033,1.633-0.334,2.566-1.101,2.8c-1.366,0.4-2.633-0.1-3.8-1.5c-0.634-0.767-0.634-1.583,0-2.45
			C41.884,64.65,42.833,64.2,44.1,64.2z"/>
		<path style="fill-rule:evenodd;clip-rule:evenodd;fill:#704225;" d="M3.2,34.15c0.566-0.367,1.267-0.55,2.1-0.55l0.95-0.8
			c0.7-0.533,1.2-0.8,1.5-0.8c0.533,0,1.2,0.133,2,0.4c0.833,0.267,1.033,0.4,0.6,0.4c-0.3,0-0.733,0.184-1.3,0.55l-0.75,0.5
			c-0.867,1.066-1.617,1.867-2.25,2.4c-0.367,0.3-0.733,0.417-1.1,0.35C4.483,36.467,4.167,36.434,4,36.5
			c-0.3,0.1-0.567,0.4-0.8,0.9V34.15z"/>
		<path style="fill-rule:evenodd;clip-rule:evenodd;fill:#704225;" d="M11.65,66.95c0.567,0,1.3,0.183,2.2,0.55
			c0.9,0.333,1.117,0.5,0.65,0.5c-0.4,0-0.934,0.35-1.6,1.05l-0.85,1.05l-1.9,0.8h-1.5c-0.566,0-1,0.133-1.3,0.4
			c-0.567,0.467-1,0.784-1.3,0.95c-0.6,0.3-0.833,0.817-0.7,1.55c0.233,1.134,0.333,1.767,0.3,1.9c-0.133,0.9,0.25,1.617,1.15,2.15
			c-1.4,0-2.35,0.083-2.85,0.25c-0.1,0.033-0.333,0.233-0.7,0.6V76l1.1-3.5l1.5-2.9L7.9,68L11.65,66.95z"/>
		<path style="fill-rule:evenodd;clip-rule:evenodd;fill:#704225;" d="M47.5,87.7c0.5-0.4,1.25-1.133,2.25-2.2
			c0.533-0.566,1.017-0.85,1.45-0.85c1.133,0,1.866,0.383,2.2,1.15c0.333,0.7,0.216,1.184-0.351,1.45
			c-0.333,0.167-0.717,0.733-1.149,1.7c-0.601,1.233-1.15,2.133-1.65,2.7c-0.634,0.699-1.2,1-1.7,0.899
			c-0.6-0.3-1.166-0.45-1.7-0.45c-0.633,0-1.3,0.584-2,1.75l-0.8,1.75v-4.85l0.9-0.85C45.75,89.167,46.6,88.434,47.5,87.7z"/>
		<path style="fill-rule:evenodd;clip-rule:evenodd;fill:#704225;" d="M27.1,72.95l0.8-0.1c1.6,0,3.117,0.55,4.55,1.65
			c0.733,0.567,1.3,1.117,1.7,1.65l-1.45,0.5l-2.85-0.25l-1,0.75c-0.4,0.3-0.633,0.233-0.7-0.2v-0.8L27.1,75.9V72.95z"/>
		<path style="fill-rule:evenodd;clip-rule:evenodd;fill:#704225;" d="M14.2,99.95l-3.6,3.2l-1.95,4.55
			C8.383,108.434,8,108.733,7.5,108.6c-0.633-0.3-1.117-0.449-1.45-0.449c-0.8,0-1.633,0.3-2.5,0.899L3.5,105.2l0.25-0.25l3.3-0.9
			c1.5-2.434,2.583-4.55,3.25-6.35L14.2,99.95z"/>
		<path style="fill-rule:evenodd;clip-rule:evenodd;fill:#704225;" d="M14.425,90.25l1.075-3l1.95-0.45c-0.434,0.3-0.9,0.7-1.4,1.2
			C15.297,88.753,14.756,89.503,14.425,90.25z"/>
		<path style="fill-rule:evenodd;clip-rule:evenodd;fill:#704225;" d="M19.65,35.35c0.5,0,0.767-0.033,0.8-0.1
			c0.1-0.3,0.2-0.5,0.3-0.6c1.5,0.333,2.1,0.733,1.8,1.2c-0.133,0.2-0.417,0.467-0.85,0.8c-0.5,0.367-0.967,0.8-1.4,1.3l-0.7,0.75
			L19.65,35.35z"/>
		<path style="fill-rule:evenodd;clip-rule:evenodd;fill:#704225;" d="M5.2,141.15L4.25,135c3.2,1.033,5.05,1.55,5.55,1.55
			c0.767,0,1.017,0.7,0.75,2.101c-1,1.199-1.8,1.916-2.4,2.149C7.783,140.934,6.8,141.05,5.2,141.15z"/>
		<path style="fill-rule:evenodd;clip-rule:evenodd;fill:#704225;" d="M12.1,126.6c0,2.601-0.45,4.017-1.35,4.25
			C9.883,131.083,9.2,131.2,8.7,131.2c-0.3,0-0.617-0.4-0.95-1.2l-0.35-1.25c0.6-0.366,1.233-0.717,1.9-1.05
			C10.7,126.967,11.633,126.6,12.1,126.6z"/>
		<path style="fill-rule:evenodd;clip-rule:evenodd;fill:#704225;" d="M48.95,161.1c-0.566,0.101-1.3,0.034-2.2-0.199l-1.2-0.4
			l-0.2-3.05l1.4-3.101l2.8,0.95l0.7,2.8C50.483,159.967,50.05,160.967,48.95,161.1z"/>
		<path style="fill-rule:evenodd;clip-rule:evenodd;fill:#704225;" d="M47.95,149.15l4.6-2.75l2.2-0.351l1,2.8
			c-0.267,0.601-0.667,0.9-1.2,0.9c-0.899-0.033-1.649-0.066-2.25-0.1c-1.2-0.067-1.916-0.034-2.149,0.1
			C49.75,149.95,49.017,149.75,47.95,149.15z"/>
		<path style="fill-rule:evenodd;clip-rule:evenodd;fill:#704225;" d="M24.35,137.15l2.9,3.199l0.35,2.7l-1.05,0.7
			c-0.767,0.634-1.283,1.316-1.55,2.05c-0.434,1.2-1.1,2.717-2,4.55l-1.3-4.1l0.65-5c0-0.434,0.083-0.934,0.25-1.5
			C22.933,138.616,23.517,137.75,24.35,137.15z"/>
	</g>
	<path style="fill-rule:evenodd;clip-rule:evenodd;fill:#466E13;" d="M22.05,4.65C21.95,4.717,21.5,5.6,20.7,7.3
		c-0.767,1.667-1.233,2.534-1.4,2.6c-0.167,0.034-0.216-0.3-0.15-1c0.1-0.733,0.1-1.083,0-1.05c-0.066-0.333-0.233-0.917-0.5-1.75
		c-0.6,1.8-1.566,3.533-2.9,5.2V9.4c0-1.367-0.15-2.583-0.45-3.65c0,0.2-0.283,0.883-0.85,2.05c-0.733,1.4-1.333,2.25-1.8,2.55
		L13,5.2c-0.233,0.633-0.967,1.8-2.2,3.5c-0.733,1.1-1.617,1.933-2.65,2.5l-1.3,0.55l0.7-1.65C8.05,9.033,8.533,7.4,9,5.2
		C8.767,5.833,8.117,6.934,7.05,8.5c-0.7,0.967-1.367,1.75-2,2.35L4.3,11.5l0.55-4.55C3.717,8.117,2.8,9.1,2.1,9.9
		c-0.133,0.133-0.5,0.567-1.1,1.3c-0.2,0.233-0.333,0.267-0.4,0.1c-0.2-0.566-0.35-1.116-0.45-1.65c-0.2-1-0.183-1.9,0.05-2.7
		c0.933-2.867,4.883-4.534,11.85-5c1.9-0.133,5.067-0.434,9.5-0.9c4.034-0.4,7.2-0.667,9.5-0.8c11.834-0.7,21.8,0.167,29.9,2.6
		c0.934,1.433,1.467,2.55,1.6,3.35c0.033,0.167,0,0.767-0.1,1.8c0,0.067-0.367,0.7-1.101,1.9c-0.1,0-0.399-0.433-0.899-1.3
		C59.917,7.7,59.6,7.233,59.5,7.2c-0.733-0.367-1.517-0.817-2.35-1.35c0.166,0.933,0.25,1.6,0.25,2
		c0.199,2.167-0.15,2.583-1.051,1.25c-1.366-2-2.133-3-2.3-3L51.7,5.65l2.25,2.6c-1.533-0.533-2.75-1.033-3.65-1.5L48.1,5.3
		l0.7,1.75c0.533,1.267,0.967,2.083,1.3,2.45l0.75,0.85c-2.866-1.333-4.733-2.533-5.6-3.6l-2.3-2.65l0.25,1.45
		c0.166,1.1,0.333,1.934,0.5,2.5l0.5,1.75c-1.267-0.566-2.434-1.35-3.5-2.35c-0.634-0.633-1.134-1.55-1.5-2.75L38.85,3.1
		c-0.066,2.8-0.5,4.6-1.3,5.4L36.4,9.65C36.134,8.783,35.866,8.067,35.6,7.5C35.4,7.133,35.184,6.45,34.95,5.45L34.6,4.05
		c-0.5,2.134-1.149,3.567-1.949,4.3c-0.467,0.467-1.134,0.867-2,1.2l-1.1,0.35c0.534-1.033,0.817-1.883,0.85-2.55
		c0.1-1.8,0.05-3.083-0.15-3.85L29.9,2.85c-1.667,3.7-2.95,5.717-3.85,6.05L24.7,9.4c0.267-1.033,0.35-1.733,0.25-2.1l-0.2-0.55
		c0,0.233-0.133,0.467-0.4,0.7c-0.5,0.433-1.333,0.617-2.5,0.55c-0.067-0.133-0.034-0.683,0.1-1.65
		C22.05,5.317,22.083,4.75,22.05,4.65z"/>
	<path style="fill-rule:evenodd;clip-rule:evenodd;fill:#57351D;" d="M37.8,29.05l1.2-5.3l0.15,2.05c0.6,2.4,0.833,4.167,0.699,5.3
		c-0.133,0.8-0.166,1.533-0.1,2.2c0.066,1.134,0.1,1.75,0.1,1.85c0,1.034,0.167,2.8,0.5,5.3c0.134,1.633-0.083,2.767-0.649,3.4
		c-0.167,0.2-0.517,0.517-1.05,0.95l-0.801,0.6l0.4-0.45c0.167-0.2,0.233-0.684,0.2-1.45c-0.066-0.833-0.101-1.333-0.101-1.5
		l-0.1-4.55L38,39.35c-1,0.933-1.934,1.717-2.8,2.35c-0.533,0.333-0.9,0.466-1.101,0.4c-0.533-0.167-0.966-0.25-1.3-0.25
		c-0.666,0-1.166-0.25-1.5-0.75l-0.35-0.8l2.7,0.15c0.866,0,1.633-0.534,2.3-1.6c0.366-0.533,0.649-0.75,0.85-0.65
		c0.101,0.033,0.167,0,0.2-0.1l0.8-4.35V29.05z"/>
	<path style="fill-rule:evenodd;clip-rule:evenodd;fill:#57351D;" d="M56.7,66c0.366-0.1,0.733-1.2,1.1-3.3v9.2
		c0,1.567-0.283,3.067-0.85,4.5c-0.2,0.6-0.483,0.867-0.851,0.8c-0.466-0.233-0.883-0.383-1.25-0.45
		c-0.433-0.066-0.983-0.333-1.649-0.8l-0.9-0.65l0.9-0.1c0.733-0.133,1.483-0.367,2.25-0.7c0.767-0.3,1.166-0.767,1.2-1.4
		c-0.134-0.633-0.2-1.05-0.2-1.25c-0.334-1.067-0.566-2.033-0.7-2.9C55.483,67.25,55.8,66.267,56.7,66z"/>
	<path style="fill-rule:evenodd;clip-rule:evenodd;fill:#57351D;" d="M42.1,81.25l0.15,2.15c0.066,1.534,0.017,2.583-0.15,3.15
		c-0.166,0.566-0.399,0.8-0.699,0.7c-0.7-0.267-1.084-0.4-1.15-0.4c-0.467,0-0.866-0.2-1.2-0.6L38.65,85.6l2.5-0.45L42.1,81.25z"/>
	<path style="fill-rule:evenodd;clip-rule:evenodd;fill:#57351D;" d="M28.95,65.7c-0.434,0-0.717-0.184-0.85-0.55
		s-0.083-0.55,0.15-0.55c0.633,0,1.667-0.633,3.1-1.9c0.667-0.6,1.051-1.317,1.15-2.15c0-1.1,0-1.983,0-2.65l0.85,0.25
		c0.601,0.3,0.983,0.833,1.15,1.6s0.2,1.45,0.1,2.05c-0.066,0.4-0.233,1.284-0.5,2.65c-0.166,1.066-0.316,1.583-0.449,1.55
		c-0.167-0.267-0.317-0.367-0.45-0.3c-0.167,0.066-0.816,0.083-1.95,0.05C30.017,65.717,29.25,65.7,28.95,65.7z"/>
	<path style="fill-rule:evenodd;clip-rule:evenodd;fill:#57351D;" d="M54.6,112.9l0.801,0.149c0.566,0.334,0.966,1.017,1.199,2.05
		c0.2,1,0.25,1.917,0.15,2.75c-0.033,0.5-0.134,1.45-0.3,2.851c-0.066,1.066-0.267,2.066-0.601,3
		c-0.533,1.566-0.816,2.383-0.85,2.45c-0.233,0.733-0.616,1.183-1.15,1.35c-1.133,0.3-1.733,0.467-1.8,0.5
		c-0.5,0.3-0.95,0.184-1.35-0.35c-0.634-0.867-1.15-1.417-1.55-1.65c-0.634-0.366-1.25-0.95-1.851-1.75
		c-0.533-0.767-0.899-1.233-1.1-1.4c-0.2-0.166,0.467-0.216,2-0.149c0.833,0.033,1.983,0.083,3.45,0.149c0.6,0,1.116-0.433,1.55-1.3
		c0.233-0.467,0.566-1.166,1-2.1C54.733,118.717,54.866,116.533,54.6,112.9z"/>
	<path style="fill-rule:evenodd;clip-rule:evenodd;fill:#57351D;" d="M46.2,110.5l0.6,1.55c0.367,1.134,0.533,1.967,0.5,2.5
		c-0.066,0.533-0.3,0.783-0.7,0.75c-0.733-0.1-1.433-0.149-2.1-0.149c-0.833,0-1.483-0.334-1.95-1L42.1,113.1h2.5L46.2,110.5z"/>
	<path style="fill-rule:evenodd;clip-rule:evenodd;fill:#57351D;" d="M50.45,140.95c-0.867-0.467-1.267-0.733-1.2-0.8h0.4l4-0.9
		l2.25-3.9l-0.4,5.15c-0.033,0.333-0.2,0.6-0.5,0.8c-0.434,0.267-0.7,0.467-0.8,0.601c-0.267,0.267-0.684,0.316-1.25,0.149
		C52.483,141.917,51.65,141.55,50.45,140.95z"/>
	<path style="fill-rule:evenodd;clip-rule:evenodd;fill:#704225;" d="M29.35,56.35c0.433,0,0.85,0.233,1.25,0.7
		c0.4,0.4,0.6,0.784,0.6,1.15c0,0.233-0.167,0.367-0.5,0.4c-0.6,0.1-0.967,0.167-1.1,0.2c-0.333,0.134-0.617,0.483-0.85,1.05
		c-0.267,0.633-0.467,1.066-0.6,1.3c-0.267,0.534-0.267-0.45,0-2.95c0.067-0.8,0.133-1.284,0.2-1.45
		C28.483,56.483,28.816,56.35,29.35,56.35z"/>
	<path style="fill-rule:evenodd;clip-rule:evenodd;fill:#704225;" d="M33.6,27.95L35,27c0.9-0.5,1.316-0.433,1.25,0.2
		s-0.217,1.066-0.45,1.3c-0.366,0.434-0.566,0.667-0.6,0.7c-0.167,0.333-0.75,1.316-1.75,2.95c-0.2,0.333-0.4,0.983-0.601,1.95
		c-0.333,1.4-0.666,2.633-1,3.7c-0.699,2.167-0.733,1.85-0.1-0.95c0-2.067,0.116-3.983,0.35-5.75c0.134-0.967,0.367-1.583,0.7-1.85
		C33.167,28.917,33.434,28.483,33.6,27.95z"/>
	<path style="fill-rule:evenodd;clip-rule:evenodd;fill:#704225;" d="M50.2,45.1l2.8,0.95c0.267,0.833,0.316,1.45,0.15,1.85
		c-0.567,1.233-1.15,1.917-1.75,2.05c-0.233,0.066-0.717,0.066-1.45,0c-0.867-0.1-1.4-0.15-1.601-0.15
		c-0.399,0-0.916,0.284-1.55,0.85l-0.85,0.85l0.399-4.35C46.517,46.417,47.8,45.733,50.2,45.1z"/>
	<path style="fill-rule:evenodd;clip-rule:evenodd;fill:#704225;" d="M49.8,34.35l2.15,1.4c-0.467,0.3-1.5,0.667-3.101,1.1
		c-0.966,0.267-1.449,0.633-1.449,1.1c0,0.103,0.017,0.203,0.05,0.3L47,37.65l0.9-1.5C48.634,35.15,49.267,34.55,49.8,34.35z"/>
	<path style="fill-rule:evenodd;clip-rule:evenodd;fill:#704225;" d="M53.1,63.1c0.733-0.4,1.45-0.733,2.15-1l0.95,1.25l-1.5,0.9
		c0,0.967-0.117,1.6-0.351,1.9c-0.267,0.267-0.466,0.467-0.6,0.6c-0.267,0.267-0.517,0.633-0.75,1.1s-0.483,1.233-0.75,2.3
		c-0.1,0.534-0.2,1.017-0.3,1.45l-0.4-2.2c0-0.7,0.084-1.316,0.25-1.85c0.101-0.333,0.167-0.716,0.2-1.15l0.2-2.75L53.1,63.1z"/>
	<path style="fill-rule:evenodd;clip-rule:evenodd;fill:#704225;" d="M40.35,80c-0.066,1.033-0.283,1.867-0.649,2.5
		c-0.367,0.633-0.851,1.05-1.45,1.25c0-0.167,0.017-0.35,0.05-0.55c0.033-0.4,0.101-0.733,0.2-1
		C38.667,81.767,39.283,81.033,40.35,80z"/>
	<path style="fill-rule:evenodd;clip-rule:evenodd;fill:#704225;" d="M43.7,109.45c0.8,0.733,1.1,1.316,0.899,1.75
		c-0.1,0.233-0.383,0.333-0.85,0.3c-0.533-0.1-0.866-0.15-1-0.15c-0.167,0-0.366-0.1-0.6-0.3l-0.301-0.35l0.5-0.55
		C42.75,109.75,43.2,109.517,43.7,109.45z"/>
	<path style="fill-rule:evenodd;clip-rule:evenodd;fill:#704225;" d="M52.45,113.05c0.733,0.733,0.967,1.417,0.7,2.05l-0.801,2
		c-0.133,0.367-0.383,0.601-0.75,0.7c-0.767,0.233-1.366,0.467-1.8,0.7l-1.75,1c-0.366,0.167-0.666,0.25-0.899,0.25
		c-0.167,0-0.233-0.017-0.2-0.05c0.2-0.167,0.316-0.351,0.35-0.55c0.033-0.267,0.384-0.684,1.05-1.25
		c0.367-0.334,0.983-0.867,1.851-1.601c0.533-0.467,1.05-1.083,1.55-1.85C52.15,113.816,52.384,113.35,52.45,113.05z"/>
	<path style="fill-rule:evenodd;clip-rule:evenodd;fill:#704225;" d="M38.15,123.35c1.5,0,2.1,0.051,1.8,0.15
		c-0.267,0.1-0.934,1.083-2,2.95c-0.167,0.267-0.4,0.684-0.7,1.25c-0.333,0.467-0.75,0.833-1.25,1.1c-0.8,0.4-1.917,0.5-3.35,0.3
		l2-1.699c0.566-0.467,0.933-1.067,1.1-1.801c0.1-0.833,0.184-1.433,0.25-1.8C36.033,123.533,36.75,123.384,38.15,123.35z"/>
	<path style="fill-rule:evenodd;clip-rule:evenodd;fill:#704225;" d="M53.8,135c-0.267,1.267-0.583,2-0.95,2.2
		c-0.767,0.467-1.6,0.883-2.5,1.25c-0.633,0.267-0.85,0.166-0.649-0.3l0.5-0.801c0.3-0.267,0.666-0.55,1.1-0.85
		C52.2,135.833,53.033,135.333,53.8,135z"/>
</g>
</svg>
