<?xml version="1.0" encoding="iso-8859-1"?>
<!-- Generator: Adobe Illustrator 15.1.0, SVG Export Plug-In . SVG Version: 6.00 Build 0)  -->
<!DOCTYPE svg PUBLIC "-//W3C//DTD SVG 1.1//EN" "http://www.w3.org/Graphics/SVG/1.1/DTD/svg11.dtd">
<svg version="1.1" id="FlashAICB" xmlns="http://www.w3.org/2000/svg" xmlns:xlink="http://www.w3.org/1999/xlink" x="0px" y="0px"
	 width="302.45px" height="85.4px" viewBox="0 0 302.45 85.4" style="enable-background:new 0 0 302.45 85.4;" xml:space="preserve"
	>
<path style="fill-rule:evenodd;clip-rule:evenodd;fill:#613A22;" d="M285.5,28.45c0.033,0.133,0.066,0.267,0.1,0.4
	c0.034,0.2,0.084,0.4,0.15,0.6l-0.5-1H285.5z M279.6,22.9l0.5,5.35c0.067,0.667-0.666,2.2-2.199,4.6l-5.95,5.65l-4.45,3.45
	l4.75-0.15c2.167,0.233,3.434,0.367,3.8,0.4c1.033,0.066,2.134-0.05,3.3-0.35c0.134,0,0.317-0.05,0.551-0.15
	c0.833-0.267,1.633-0.817,2.399-1.65c0.101-0.133,0.217-0.25,0.351-0.35c0.033-0.034,0.066-0.05,0.1-0.05
	c0.033-0.066,0.066-0.133,0.1-0.2l0.101-0.05l0.85-0.65c0.733-0.567,1.367-0.95,1.9-1.15c0.633-0.233,1.649-0.033,3.05,0.6
	c1.333,0.5,2.2,1.017,2.6,1.55c0.267,0.3,0.667,0.717,1.2,1.25c0.434,0.433,0.667,0.867,0.7,1.3l0.25,2.7
	c-0.267,2.267-0.667,3.884-1.2,4.85c-0.399,0.567-1.283,1.65-2.649,3.25c-0.934,1.5-1.667,2.517-2.2,3.051L284.8,58.6
	c-0.1-0.333-0.233-0.566-0.399-0.699c-1.767,1.1-3.017,1.566-3.75,1.399c-0.934-0.467-2.017-0.75-3.25-0.85
	c0.333,2.333-0.351,4.583-2.051,6.75c-2.866,3.666-8.133,5.5-15.8,5.5c-2.2-0.834-3.383-1.267-3.55-1.3
	c-0.333,0.199-0.5,0.55-0.5,1.05c0.866,0.166,2.6,0.883,5.2,2.149c2.066,0.767,4.366,1.301,6.899,1.601h-6.35
	c-1.934-1.167-3.6-2.167-5-3c-2.7-1.533-5.2-2.3-7.5-2.3c-0.9,0-1.434,0.066-1.6,0.199c-0.134,0.2-0.334,0.351-0.601,0.45
	c-1.1,0.434-5.116,0.65-12.05,0.65c-0.2,0-1.017-0.351-2.45-1.05c-0.833-0.4-1.467-0.7-1.899-0.9c0.533-0.233,0.983-0.434,1.35-0.6
	c0.5-0.233,1.3-1.617,2.4-4.15c1.066-2.4,1.6-3.85,1.6-4.35c0-0.367-0.25-0.7-0.75-1c-1.066-0.634-2.283-1.45-3.65-2.45
	c0.267-0.4,0.567-0.834,0.9-1.3c-0.7,0.133-1.333,0.3-1.9,0.5c-0.199-0.134-0.399-0.284-0.6-0.45c0.467-0.467,0.767-0.934,0.9-1.4
	c0.066-0.3,0.1-0.816,0.1-1.55c0-1.366-0.25-2.283-0.75-2.75c-1.634-1.5-5.384-2.116-11.25-1.85l-0.4,0.35
	c-0.3,0.267-0.5,0.483-0.6,0.65c0.8,0.3,1.45,1.017,1.95,2.149c0.2,0.434,0.35,0.867,0.45,1.3c-0.301,0.834-0.983,1.784-2.051,2.851
	c-1.533,1.5-3.316,2.566-5.35,3.2l0.25,0.3c0.134,0.033,0.267,0.083,0.4,0.149c-0.834-0.033-1.717-0.166-2.65-0.399
	c0.366,1.767,0.167,3.416-0.6,4.95c-0.967,1.966-2.767,3.55-5.4,4.75l-11.45,0.05l-6.55-1.3l-4.45,0.25
	c-0.267-0.067-0.533-0.134-0.8-0.2h-3.5l-0.2,0.399h-0.05L176,66.4c0.4,0.199,1.217,0.833,2.45,1.899
	c1.166,1.033,2.467,1.867,3.899,2.5c4.101,1.8,10.817,2.816,20.15,3.05c-0.267,0.034-0.434,0.067-0.5,0.101
	c-1.566,0.467-3.517,0.45-5.85-0.05c-1.733-0.4-3.7,0.199-5.9,1.8c-0.434,0.3-0.6,0.733-0.5,1.3c0.1,0.7,0.116,1.134,0.05,1.3
	c-0.399,0.934-3.25,1.4-8.55,1.4c-1.033,0-2.35-0.884-3.95-2.65c-1.566-1.767-3.083-2.649-4.55-2.649c-0.8,0-1.384,0.183-1.75,0.55
	c-0.634,0.633-1.616,1.2-2.95,1.7L155.5,76.7c-1.267-0.3-3.7-1.084-7.3-2.351c-2.233-0.8-3.95-1.267-5.15-1.399
	c0.467-0.2,0.95-0.384,1.45-0.55l-0.45-0.75c-0.033-0.167-0.466-0.25-1.3-0.25c-1.867,0-4.9,1.283-9.1,3.85
	c-2.833,1.733-4.967,3.2-6.4,4.4h-9.95c-3.3-1.134-6.6-2.467-9.9-4c-0.2-0.667-0.667-1.084-1.4-1.25
	c-0.367,0.033-0.717,0.066-1.05,0.1c-0.167-0.066-1.55-0.05-4.15,0.05C98.167,74.65,95.567,72.1,93,66.9H73.5
	c-1.033,0.433-2,0.833-2.9,1.199c-1.767,0.7-4.167,1.051-7.2,1.051c-5.233,0-8.667-0.334-10.3-1c-0.967-0.834-1.833-1.417-2.6-1.75
	c0.333-0.801,0.35-1.384,0.05-1.75c-0.966-0.267-1.733-0.351-2.3-0.25c-0.133-0.134-0.233-0.25-0.3-0.351
	c-0.467-0.666-0.717-1.017-0.75-1.05c-0.9-0.767-3.617-1.217-8.15-1.35c-0.533-0.134-1.017-0.534-1.45-1.2
	c-0.434-0.767-0.967-1.283-1.6-1.55c-5.133-0.034-8.05-0.517-8.75-1.45c-0.033-0.066-0.1-0.117-0.2-0.15
	c-0.367,0.367-0.783,0.783-1.25,1.25c-0.233,0.233-0.466,0.316-0.7,0.25c-1.833-0.733-4.767-1.1-8.8-1.1c-0.4,0-0.733,0.2-1,0.6
	c-0.267,0.4-0.617,0.601-1.05,0.601c-0.167,0-0.333,0-0.5,0C12.583,58.8,11.267,58.35,9.8,57.55C8.267,56.75,7,55.8,6,54.7
	c-0.433-0.5-0.617-1.267-0.55-2.3c0.033-0.667,0.216-1.65,0.55-2.95c-0.567-0.9-2.05-2.8-4.45-5.7C0.517,42.517,0,41.1,0,39.5
	c0-1.1,0.533-3.083,1.6-5.95c1.033-2.767,1.5-4.816,1.4-6.15c0.833-3.233,2.817-4.566,5.95-4c0.9,0.167,1.733,0.434,2.5,0.8
	L14,23.45l6.8,2.9l0.6-4.6l3.45-0.8l0.7-2.6l1.35-1.65c1.9-0.667,3.9-1.017,6-1.05c0.5-0.033,1-0.066,1.5-0.1
	c2.267,0.534,4.2,1.7,5.8,3.5c2.033-2.033,4.566-3.133,7.6-3.3c0.367-0.033,0.75-0.05,1.15-0.05c0.1,0,0.216,0.017,0.35,0.05h0.05
	c0.5,0.067,1.033,0.167,1.6,0.3c2.966-1.367,6.25-2.017,9.85-1.95c0.867-0.067,1.684-0.133,2.45-0.2l2.25-3.2l1.85-1.65
	c8.5-2.633,16.783-1.917,24.85,2.15c0.333,0.167,0.667,0.316,1,0.45L95,9c1.767-0.467,3.533-0.683,5.3-0.65h0.05
	c3.7,0,7.333,1.05,10.9,3.15c1.833,1.833,3.933,2.65,6.3,2.45c3.6-0.3,6.517-1.233,8.75-2.8l-0.25-2.5L131,7.7
	c2.367,0.4,4.1,1.083,5.2,2.05c0.933,0.233,1.716,0.2,2.35-0.1l0.3,5.85l1.35-3.2l3.7-0.7l2.85-1.9l1.3-0.65
	c0.967-0.466,1.733-0.716,2.3-0.75c0.9-0.1,0.75-0.65-0.45-1.65l0.45-2.1l4-1l0.15-2.05c-1.833-0.033-3.2,0-4.1,0.1
	c-0.433,0.033-0.883,0.233-1.35,0.6c-0.466,0.4-1,0.617-1.6,0.65c-0.434,0.033-0.833,0.217-1.2,0.55
	c0.033-0.233,0.15-0.433,0.35-0.6c0.3-0.367,0.6-0.733,0.9-1.1l5.8-1.2l0.15,0.15L159.6,2.1c0.834,1.1,1.784,1.967,2.851,2.6
	c0.166,0.066,0.333,0.15,0.5,0.25c0.633,0.3,1.3,0.517,2,0.65c0.166-0.033,0.333-0.05,0.5-0.05c1.267-0.466,2.35-1.4,3.25-2.8
	c0.133-0.2,0.283-0.383,0.45-0.55l4.35-1.85c1.434-0.2,2.85-0.317,4.25-0.35c2.866-0.067,5.667,0.267,8.4,1
	c0.166,0.067,0.333,0.1,0.5,0.1c0.899,1.467,2.149,2.35,3.75,2.65l1.3,2.95c3.8-0.034,7.533,0.633,11.2,2
	c1.133-2.6,3.716-4.983,7.75-7.15l-4.4,7.05l2.25,6.9l0.55,0.7c0.367,0.3,0.65,0.15,0.851-0.45c0.3-0.767,0.666-2.05,1.1-3.85
	c0.467-1.8,0.684-2.933,0.65-3.4c-0.034-0.567,0.166-1.2,0.6-1.9c0.5-0.767,1.2-1.35,2.1-1.75c1.334-0.6,3.301-1.35,5.9-2.25
	l-1.2-1.6l-8.3,0.45c0.533-0.367,1.083-0.733,1.65-1.1c2.267,0.033,4.5,0.133,6.699,0.3c2.2,0.167,4.367,0.4,6.5,0.7
	c0.733,0.967,1.15,1.967,1.25,3c0.067,0.667,0.551,2.55,1.45,5.65c0.634,2.433,0.767,3.667,0.4,3.7l-4.05,0.35
	c-0.733,0.067-1.233,0.5-1.5,1.3c-0.367,1.133-0.767,1.9-1.2,2.3c-1.033,1-2.884,1.633-5.55,1.9l-3.7,0.35l3,3.1l0.1,1.7
	c0.066,1.3,0.066,2.3,0,3c-0.133,1.167-0.483,2.35-1.05,3.55c-1.3,0.8-2.6,1.467-3.9,2c-0.8,0.333-1.449,0.867-1.949,1.6
	l-0.551,0.95c-0.433-0.267-0.933-0.466-1.5-0.6c-1.199-0.3-2.166-0.184-2.899,0.35c-0.8,0.6-1.667,0.917-2.601,0.95l-0.05-0.05v0.05
	c-0.733-0.033-1.483-0.233-2.25-0.6l-2.35-1.65l-1.9,1.15l-1.85,1.5l-6.05-0.2c-0.301-0.167-0.617-0.317-0.95-0.45
	c-2.134-0.9-3.517-0.717-4.15,0.55c0.066-0.333,0.134-0.6,0.2-0.8l-0.25-0.55c-2.434,1.566-4.55,2.95-6.35,4.15v-0.05
	c0.966-1.033,1.017-2.417,0.149-4.15c-0.7-1.467-1.416-2.267-2.149-2.4c-0.534-0.667-1.067-0.967-1.601-0.9
	c-1.533,0.133-2.833,0.833-3.899,2.1c-1.101,1.3-1.217,2.3-0.351,3c0.867,0.7,1.634,1.267,2.3,1.7c0.9,0.633,1.601,1.067,2.101,1.3
	c0.866,0.333,1.649,0.367,2.35,0.1c-0.166,0.1-0.333,0.2-0.5,0.3c-4,2.6-6.267,4.55-6.8,5.85c0.333,0.3,0.684,0.55,1.05,0.75
	l5.95,0.2c3.167,0,5.3-1.5,6.4-4.5c0.366-1.867,0.699-3.383,1-4.55c-0.067,0.7-0.034,1.566,0.1,2.6
	c0.066,0.533-0.05,1.283-0.35,2.25c-0.334,1.133-0.801,2.033-1.4,2.7c-0.7,1.233-1.533,2.166-2.5,2.8
	c-1.767,1.166-4.85,1.899-9.25,2.2c0.066,0.066,0.134,0.267,0.2,0.6c0.166,0.4,0.483,0.75,0.95,1.05c1.6,0.9,4.883,1.351,9.85,1.351
	c1.8,0,4.4-1.917,7.8-5.75c3.134-3.534,4.7-5.75,4.7-6.65c0-0.667-0.583-1.567-1.75-2.7c-0.833-0.8-1.7-1.45-2.6-1.95l2.699,1.3
	c0.733,0.367,1.384,0.717,1.95,1.05c2.334,1.133,4.117,1.95,5.351,2.45c0.533,0.233,0.966,0.4,1.3,0.5c0.033,0,0.066,0.017,0.1,0.05
	c0.066,0,0.15,0,0.25,0c0.134,0.066,0.3,0.15,0.5,0.25c0.934,0.233,1.566,0.367,1.9,0.4c0.533,0.033,1.85-0.033,3.95-0.2
	c0.566-0.033,1.216-0.083,1.949-0.15l10.15-0.95l0.05,0.4c0.134-0.2,0.267-0.434,0.4-0.7c1.233-0.833,2.416-2.117,3.55-3.85
	c0.7-0.933,1.233-1.783,1.6-2.55l0.25-1l0.601-0.8l-0.101-1l0.5-2l-1.5-5l1.351,0.35c1.033,0.167,1.95,0.15,2.75-0.05
	c0.399-0.1,0.85-0.25,1.35-0.45l0.7-0.1c0.366-0.033,0.684-0.367,0.95-1c0.1-0.066,0.2-0.133,0.3-0.2c1.1-0.833,1.8-1.533,2.1-2.1
	c0.367-0.733,1.034-2.15,2-4.25c0.4-0.7-0.033-1.683-1.3-2.95c-0.1-2.667-0.184-4.75-0.25-6.25c1.434,2.367,2.45,5,3.05,7.9
	c0.267,1.333,0.4,2.65,0.4,3.95l9.5,1c0.733,0.533,1.35,1.4,1.85,2.6c0.4,0.9,0.617,1.867,0.65,2.9c1.066,0.533,2.566,0.7,4.5,0.5
	c0.5-0.066,1-0.066,1.5,0c1.5,1.333,3.167,2.167,5,2.5c0.167,0,0.333,0,0.5,0c0.6-0.733,1.05-1.633,1.35-2.7
	c0.2-0.733,0.351-1.517,0.45-2.35c0.033-0.4,0.101-0.883,0.2-1.45l4-2.5c1.134-0.167,2.25-0.25,3.35-0.25
	c-2.833,1.7-4.517,2.75-5.05,3.15c-0.366,0.367-0.95,1.034-1.75,2L261,26.65l0.4,7.4l1.75-2.9c0.166-0.7,0.366-1.467,0.6-2.3
	c0.5-1.567,0.917-2.65,1.25-3.25c0.6-0.967,1.517-1.967,2.75-3l6.5-1.85C276.116,21.183,277.9,21.9,279.6,22.9z M293.75,35.05
	c1.167,0.867,2.233,1.817,3.2,2.85c3,3.333,4.75,7.667,5.25,13c0.166,1.8,0.25,3.633,0.25,5.5L297.9,61c0-0.2,0-0.384,0-0.55
	c0-0.7-0.101-1.4-0.301-2.101c0.733-1,1.483-2.05,2.25-3.149c1.034-1.733,1.551-3.617,1.551-5.65c0-1.767-0.084-2.833-0.25-3.2
	c-0.567-1.133-2.084-1.767-4.551-1.899L296.7,43l-0.4-4.4L293.75,35.05z M291.9,41.75c0-1.433-0.733-2.133-2.2-2.1
	c-0.167,0-0.334,0.017-0.5,0.05c-1.4-0.3-2.95-0.05-4.65,0.75c-0.166-0.2-0.3-0.367-0.399-0.5c-1.2,0.533-2.517,1.55-3.95,3.05
	c-1.533,1.634-2.3,2.967-2.3,4c0,0.833,0.083,1.066,0.25,0.7c0.3-0.066,0.649-0.217,1.05-0.45c-0.867,1.533-1.3,3.116-1.3,4.75
	c0,0.066,0,0.75,0,2.05c0.333,1.233,1.333,1.851,3,1.851c0.199,0,0.983-1.051,2.35-3.15c0.233-0.366,0.467-0.717,0.7-1.05
	c0.566-0.733,1.184-1.45,1.85-2.15c0.101-0.133,1.634-1.684,4.601-4.649c-0.067,0-0.117,0.017-0.15,0.05
	c0.033-0.066,0.083-0.134,0.15-0.2C291.4,43.85,291.9,42.85,291.9,41.75z M251.45,32.55L244,32.9c-0.667,0.067-1.983,0.25-3.95,0.55
	l-2.7,0.4l-6,1.55l-2.949,4.35l2.399-0.15c1.7-0.2,2.884-0.55,3.55-1.05c0.334-0.233,0.551-0.683,0.65-1.35
	c0.033-0.367,0.767-0.684,2.2-0.95c3.366-0.633,6.566-1.5,9.6-2.6C247.667,33.383,249.217,33.017,251.45,32.55z M228.55,46
	c0.8,0.333,1.351,0.783,1.65,1.35c0.533,1.034,1.366,1.801,2.5,2.301c1.1,0.466,2.649,0.75,4.649,0.85
	c1.267,0.066,2.733,0.15,4.4,0.25c1.3,0,2.95-0.184,4.95-0.55c0.1,0,0.217-0.017,0.35-0.05l2.2-0.801
	c0.233-0.433,0.45-0.816,0.65-1.149l0.899-0.65l-0.399-6.7l-0.051-1.45l3.65-4.7l-1.4-0.5l-3.35,0.3L246.9,35
	c-0.967,0.233-1.884,0.867-2.75,1.9l-0.95,1.5l-5.851,3.25l-4.699,0.45l-6.95,2l1.55,1.45C227.75,45.684,228.184,45.833,228.55,46z
	 M262.75,42.95h-4c-2.5,1.6-3.934,2.666-4.3,3.2c-0.3,0.366-0.45,1.283-0.45,2.75c0,0.066,0,0.583,0,1.55
	c0.4,0.967,1.566,1.45,3.5,1.45c0.566,0,2.566-2.217,6-6.65c0-0.566-0.05-1.017-0.15-1.35C263.25,43.7,263.05,43.384,262.75,42.95z
	 M270.55,50.25h0.05v0.05c0.134,0.3,0.434,0.55,0.9,0.75c1.434,0.566,2.934,0.783,4.5,0.65c0.066-0.733-0.017-1.483-0.25-2.25
	c-0.366-1.134-1-1.834-1.9-2.101c-0.533-0.699-1.267-1.05-2.199-1.05c-0.967,0-1.7,0.533-2.2,1.601
	c-0.434,1.133-0.15,1.883,0.85,2.25C270.4,50.217,270.483,50.25,270.55,50.25z M274.4,57.2v-2.25
	c-7.934-0.101-12.917,1.083-14.95,3.55c-0.566,0.7-1.084,1.816-1.55,3.35c-0.434,1.467-0.9,2.483-1.4,3.051
	c2.333-0.2,5.684-1.084,10.05-2.65C271.75,60.417,274.366,58.733,274.4,57.2z M263.25,72.5c-0.467-0.167-0.884-0.283-1.25-0.35
	l1.5-0.25L263.25,72.5z M286.8,67.05l3.9,0.75c-0.566,0.066-1.134,0.101-1.7,0.101l-2.7-0.25
	C286.467,67.45,286.634,67.25,286.8,67.05z M281.15,70.1c1.267-1.166,2.5-2.316,3.699-3.449h0.051
	c-0.167,0.199-0.334,0.383-0.5,0.55c-0.834,0.899-1.65,1.717-2.45,2.45C281.65,69.783,281.384,69.934,281.15,70.1z M258.5,62.95
	l0.1,0.399c-0.033,0.034-0.066,0.051-0.1,0.051V62.95z M140.05,7.95c0.167-0.367,0.3-0.733,0.4-1.1l4.65-1.65L145,5.4l-0.4,2.4
	l-3.75-0.3L140.05,7.95z M202.7,56.7c0.033-0.033,0.066-0.05,0.1-0.05h0.2L202.7,56.7z M211.8,21.35L207.95,20l-9.05,0.85
	c-2.367,1.533-3.867,2.55-4.5,3.05c-0.834,0.434-1.5,0.767-2,1c-0.967,0.533-1.551,1.217-1.75,2.05l-1.25,4.9L197.8,26
	c1.533-1.067,2.783-1.633,3.75-1.7l4.05-0.4c1.334-0.133,2.417-0.566,3.25-1.3L211.8,21.35z M226.45,1.4h0.05
	c0.3,0.233,0.6,0.467,0.9,0.7c-0.534-0.267-0.801-0.417-0.801-0.45C226.6,1.583,226.55,1.5,226.45,1.4z M297.15,57l0.8-0.4
	c-0.2,0.267-0.417,0.534-0.65,0.801C297.233,57.267,297.184,57.134,297.15,57z M297.45,63.55c0.633,0.2,1.133,0.483,1.5,0.851
	c0.333,0.3,0.616,0.649,0.85,1.05c-1.267,0.066-2.333,0.2-3.2,0.399c0.101-0.267,0.217-0.566,0.351-0.899
	C297.116,64.45,297.283,63.983,297.45,63.55z M236.9,28.1c0.433,0.433,0.866,0.75,1.3,0.95c0.5,0.233,1.017,0.333,1.55,0.3
	c0.434-0.067,0.884-0.233,1.35-0.5c1.967-1.167,2.934-2.483,2.9-3.95c0-0.933-0.483-1.5-1.45-1.7c-0.5-0.967-1.916-1.267-4.25-0.9
	c-1.233,0.167-2.3,0.684-3.2,1.55L234.15,25l1.5,2.2C236.05,27.6,236.467,27.9,236.9,28.1z M203,45.9h-0.25
	c0.4-0.101,0.816-0.184,1.25-0.25L203,45.9z M211.9,44.9l-1.9-0.2c-4.566-1.5-9.917-0.617-16.05,2.649
	c-2.101,1.134-4,2.384-5.7,3.75c-1.5,1.233-2.25,2-2.25,2.301c0,0.533,0.116,0.933,0.35,1.199c0.134,0.134,0.351,0.317,0.65,0.551
	c-1.333,0.533-2.733,1.899-4.2,4.1c-1.2,1.866-1.8,3.033-1.8,3.5c0,0.533,0.017,0.816,0.05,0.85c0,0.034,0.066,0.067,0.2,0.101
	c0.6-0.267,1.25-0.65,1.95-1.15c0.166,0.134,0.434,0.25,0.8,0.351c0.233-0.301,1.134-0.817,2.7-1.551
	c0.866-0.399,2.05-0.949,3.55-1.649c1.3-0.634,2.884-1.15,4.75-1.55c0.4-0.101,1.017-0.184,1.85-0.25
	c-1.033,0.199-2.017,0.399-2.949,0.6c2.933-0.4,6.55-0.667,10.85-0.8c0.167-0.2,0.25-0.45,0.25-0.75
	c-1.066-0.867-1.65-1.367-1.75-1.5l-4.7-0.25c-1.033-0.834-1.55-1.4-1.55-1.7c0-0.4,0.55-1.184,1.65-2.35
	c0.566-0.567,1.183-1.15,1.85-1.75c0.934-0.867,3.283-1.551,7.05-2.051c3.634-0.466,5.783-1.116,6.45-1.949
	C213.9,45.2,213.2,45.033,211.9,44.9z M215.65,57.5c-0.134,0-0.267-0.017-0.4-0.05c1.566-0.733,2.816-1.55,3.75-2.45
	c-0.2,0.267-0.45,0.55-0.75,0.85C217.517,56.616,216.65,57.167,215.65,57.5z M170.3,51.65c0.233-0.067,0.467-0.117,0.7-0.15l0.2,0.8
	C170.833,51.934,170.533,51.717,170.3,51.65z M195.85,17.15c0.2,0.267,0.434,0.483,0.7,0.65c0.667,0.367,1.634,0.333,2.9-0.1
	c1.366-0.5,2.083-1.233,2.149-2.2c0.134-1.033-0.5-1.9-1.899-2.6h-0.05c-0.301-0.333-0.717-0.633-1.25-0.9
	c-1.767-0.867-3.067-0.983-3.9-0.35c-0.7,0.567-0.9,1.517-0.6,2.85c0.3,1.2,0.75,2,1.35,2.4C195.417,17,195.616,17.083,195.85,17.15
	z M187.7,5.4l-0.5-1.5l-9.5-3.8l0.6,0.8c0.4,0.7,0.634,1.4,0.7,2.1c0.1,1.1-0.55,2.733-1.95,4.9c0.167,0.233,1.184,0.567,3.05,1
	c1.567,0.434,2.317,0.967,2.25,1.6c-0.066,0.6-0.633,1.167-1.699,1.7c-1.167,0.5-1.834,1.167-2,2c-0.167,0.966,0.1,2.2,0.8,3.7
	c0.333,0.733,0.7,1.367,1.1,1.9l1.55,1.5c1.034,1.1,1.634,1.85,1.801,2.25l0.449,0.95L185.2,19l5-7.85
	c0.1-0.433,0.133-0.933,0.1-1.5c-0.1-1.066-0.45-1.8-1.05-2.2C188.65,7.117,188.134,6.433,187.7,5.4z M177.7,0.1l-2.3,0.55l-4.5,3.4
	c-0.7,2.1-1.467,3.417-2.301,3.95l0.601,6.7l1.649-4.5l2.95-1.35l0.851-1.4l0.1-2.7C176.384,2.983,177.366,1.433,177.7,0.1z
	 M157.8,41.25l0.05-0.05c0.067-0.133,0.15-0.284,0.25-0.45c0.101-0.133,0.184-0.267,0.25-0.4l0.4-0.7
	c0.066-0.233,0.134-0.467,0.2-0.7c0.267-1.034,0.434-1.6,0.5-1.7c0.033-0.067,0.033-0.117,0-0.15c0.3-0.3,0.7-0.6,1.2-0.9
	c0.899-0.1,2.55-0.833,4.949-2.2c0.767-0.967,1.101-2.133,1-3.5c-0.1-0.833-0.366-2.567-0.8-5.2l-0.7-3.8l-1.75-5.9
	c0.567-2.267,0.717-3.85,0.45-4.75c-0.1-0.333-0.267-1.317-0.5-2.95c-0.133-1.233-0.35-2.033-0.649-2.4
	c-0.067-0.1-0.217-0.217-0.45-0.35c-0.667-0.433-1.983-1.1-3.95-2L154.5,1.5l1.1,2.1c0.601,1.5,0.5,2.583-0.3,3.25
	c-0.8,0.633-1.783,1.333-2.95,2.1l-1.5,1c-1.633,1.966-2.867,3.333-3.7,4.1c-0.533,0.467-1.517,0.85-2.95,1.15l-2,0.35l1.6,0.65
	c1.233,0.433,2.417,0.6,3.55,0.5c2.033-0.2,3.667-1.017,4.9-2.45c0.634-0.7,1.116-1.65,1.45-2.85l0.5-0.2
	c0.366-0.167,0.75-0.267,1.149-0.3c0.534-0.066,1.5-0.8,2.9-2.2c0.333-0.367,0.717-0.784,1.15-1.25l-0.65,1.7
	c-0.467,1.267-0.667,2.333-0.6,3.2c0.133,1.3,0.416,3.183,0.85,5.65l-0.05,3.05l-1.95,7.6c-1.533,3.333-2.6,5.367-3.2,6.1
	c-0.166,0.233-1.1,0.917-2.8,2.05c-0.467,0.333-0.867,0.65-1.2,0.95l3.65-1.7l-10.6,10.4c0.566-0.334,2.017-0.584,4.35-0.75
	c2.5-0.233,4.316-0.566,5.45-1c1.1-0.434,2.149-0.851,3.149-1.25C156.366,43.116,157.033,42.383,157.8,41.25z M163.15,16.3l0.1,1.8
	L163,16.95C163.066,16.717,163.116,16.5,163.15,16.3z M171.1,20.6c-0.399,0.533-0.583,1.017-0.55,1.45
	c0.033,0.434,0.533,1.467,1.5,3.1c0.434,0.833,0.884,1.617,1.351,2.35l3.05-7.7l-1-3.95c-0.2,0.667-1.45,2.017-3.75,4.05
	C171.5,20.1,171.3,20.333,171.1,20.6z M180.3,37.2l-0.25-0.05l0.25-0.2C180.3,37.05,180.3,37.133,180.3,37.2z M173.15,56.65
	c-0.233-0.067-0.367-0.134-0.4-0.2c-1.467,0-3.55,0.717-6.25,2.149c-3,1.567-4.5,3.034-4.5,4.4c0,0.033,0.083,0.6,0.25,1.7
	c0.6,1.133,2.017,1.7,4.25,1.7c1.833,0,3.5-1.301,5-3.9c1.2-2.134,1.8-3.833,1.8-5.1C173.3,56.9,173.25,56.65,173.15,56.65z
	 M198.1,56.5l-0.05-0.3l1.75,0.149C199.233,56.384,198.667,56.434,198.1,56.5z M122.15,19.4l-1.9,0.1
	c-2.3,0.733-4.45,1.55-6.45,2.45c-2,0.933-3.216,1.667-3.65,2.2c-0.333,0.5-0.617,1.05-0.85,1.65
	c-0.133,0.333-0.216,0.617-0.25,0.85l1.7-0.7c1.4-0.534,2.583-0.917,3.55-1.15c1.534-0.333,3.317-0.6,5.35-0.8l4-0.35l0.4-0.45
	c0.434-0.333,1.05-0.6,1.85-0.8l4.65-1.1c-1.933-1.2-3.566-1.833-4.9-1.9C124.783,19.333,123.617,19.333,122.15,19.4z M122.25,36.45
	c-0.033-0.067-0.067-0.117-0.1-0.15c-0.833-1.033-1.816-1.05-2.95-0.05s-1.317,1.917-0.55,2.75c0.267,0.233,0.533,0.383,0.8,0.45
	c0.033,0,0.066,0.017,0.1,0.05c0.1,0.133,0.217,0.267,0.35,0.4c0.7,0.733,1.567,0.6,2.6-0.4c1-0.967,1.283-1.733,0.85-2.3
	C123.017,36.767,122.65,36.517,122.25,36.45z M133.2,40.1c0.933,0.933,1.716,1.167,2.35,0.7c0.967-0.733,1.467-1.833,1.5-3.3
	c0.034-1.233-0.45-1.917-1.45-2.05c-0.333-0.8-1.15-1.067-2.45-0.8c-0.833,0.133-1.55,0.617-2.15,1.45l-0.65,1.15l1.35,1.8
	C132.267,39.583,132.767,39.933,133.2,40.1z M133.65,29.75c1.833,0.033,3.717,0.183,5.65,0.45c1.3,0.733,2.45,1.1,3.45,1.1
	c0.567,0,0.983-0.117,1.25-0.35c-1.567-0.333-3.133-0.583-4.7-0.75c-0.2-0.133-0.383-0.25-0.55-0.35
	c-1.5-1.033-3.35-2.017-5.55-2.95l-2.95-1.15l-5.95,0.55l-5.3,2.65c-3.233-0.767-5.417-1.1-6.55-1c-0.7,0.066-1.9,0.9-3.6,2.5
	l-2.35,2.35l6.45,0.7c4.2,0.6,5.983,1.267,5.35,2l3.2-2.5c2.533-1.667,4.867-2.6,7-2.8c1.733-0.167,2.6-0.317,2.6-0.45
	C131.067,29.717,131.917,29.717,133.65,29.75z M125,42.4c-1.267,0.8-2.267,1.45-3,1.95c-1.333,0.934-2,1.733-2,2.4
	c0,0.5,0.05,0.783,0.15,0.85c0.067,0.034,0.2,0.067,0.4,0.101l4.45,0.2c0.867-0.601,2.117-1.334,3.75-2.2
	c0.933-0.667,2.733-1.283,5.4-1.851c2.5-0.533,3.783-0.85,3.85-0.95C137.833,42.6,133.5,42.433,125,42.4z M122.15,55.45
	c0,0.1,0.033,0.184,0.1,0.25l0.8,0.05c1.833,0.434,4.65,0.65,8.45,0.65c0.333,0,0.9-0.167,1.7-0.5
	c1.566-0.101,2.933-0.551,4.1-1.351c-0.066,1.367-0.3,2.45-0.7,3.25c-0.8,1.667-3.333,2.717-7.6,3.15c0.3,0.967,0.4,1.816,0.3,2.55
	c-0.5,0.9-1.45,1.983-2.85,3.25c-2.4,0.967-6.367,1.45-11.9,1.45c-0.466,0-1.267-0.184-2.4-0.55c-1.333-0.4-2.133-0.634-2.4-0.7
	l-0.25,0.75c0.067,0.133,0.15,0.566,0.25,1.3c0.233,0.8,0.683,1.5,1.35,2.1c1.066,0.934,2.717,1.634,4.95,2.101
	c-0.4,0-0.816,0-1.25,0c-0.433,0-0.883-0.117-1.35-0.351c-0.4-0.199-0.717-0.267-0.95-0.199v0.75c0.733,0.433,1.617,1.25,2.65,2.449
	c1.633,1.034,4.75,1.551,9.35,1.551c1.9,0,4.433-1.45,7.6-4.351c0.4-0.366,1.816-1.816,4.25-4.35c1.367,0.1,3.083,0.25,5.15,0.45
	c0.167,0.066,0.367,0.283,0.6,0.649c0.167,0.267,0.483,0.4,0.95,0.4l6.45,0.2c1.7,0,2.866-1,3.5-3c0.333-1.034,0.5-2.25,0.5-3.65
	c0-1.366-0.083-2.3-0.25-2.8c-1.634-0.101-2.8-0.233-3.5-0.4c-0.1-0.033-0.2-0.05-0.3-0.05c0.033-0.2,0.05-0.4,0.05-0.6
	c0-0.167,0-0.301,0-0.4c0.967-0.8,1.583-1.717,1.85-2.75c0.101-0.434,0.15-1.517,0.15-3.25c0-1.566-0.083-2.75-0.25-3.55
	c-0.533,0-0.867,0.083-1,0.25c-0.033,0.233-0.1,0.416-0.2,0.55c-0.367,0.5-2.117,0.65-5.25,0.45
	c-1.133-0.733-2.117-1.351-2.95-1.851L142,49.2c0.2-0.167,0.367-0.351,0.5-0.55c-0.267-0.567-0.517-0.967-0.75-1.2H141
	c0-0.267-0.017-0.434-0.05-0.5c0-0.101-0.067-0.267-0.2-0.5c-3.833,0.2-6.433,0.684-7.8,1.45c-0.867,0.466-1.434,1.25-1.7,2.35
	c-0.033,0.167-0.083,0.316-0.15,0.45l-10.6,0.2l-0.5,0.05v2.2c0.067,0.066,0.183,0.333,0.35,0.8c0.167,0.467,0.483,0.833,0.95,1.1
	C121.533,55.184,121.817,55.316,122.15,55.45z M101.95,12.4l-1.65-3.25c-0.7,0.2-1.333,0.934-1.9,2.2l-0.75,1.75L99.7,17l0.85,1.1
	c0.6,0.433,0.983,0.017,1.15-1.25c0.167-1.267,0.25-2.383,0.25-3.35V12.4z M77.8,32.45c0.267-0.2,0.583-0.4,0.95-0.6
	c1.7-1.067,3.283-2.65,4.75-4.75c0-0.033,0.017-0.05,0.05-0.05c0-0.033,0.017-0.066,0.05-0.1c0.033-0.034,0.083-0.067,0.15-0.1
	l0.05-0.1c0.034-0.067,0.083-0.133,0.15-0.2c0.3-0.4,0.517-0.75,0.65-1.05c0.033-0.067,0.083-0.133,0.15-0.2
	c0.633-1.133,1.017-2.133,1.15-3c0.4-1.4,0.6-2.816,0.6-4.25c0.333-0.9,0.3-1.517-0.1-1.85c-0.033-0.5-0.45-1.3-1.25-2.4
	c-0.9-1.267-1.417-2.066-1.55-2.4c-0.167-0.566-0.65-1.15-1.45-1.75L81,8.95l-4,0.7c0.1,0.2,0.65,1.167,1.65,2.9
	c0.434,0.7,0.283,1.483-0.45,2.35c-0.8,0.934-1.833,1.85-3.1,2.75l-1.65,1.1l-3.1,3.35c-0.2,0.4-0.6,0.833-1.2,1.3
	c-1.233,0.867-2.767,1.383-4.6,1.55c-1.867,0.2-2.083,0.65-0.65,1.35c0.867,0.467,2.184,0.934,3.95,1.4
	c0.633,0.2,1.5,0.683,2.6,1.45c1.2,0.833,2,1.333,2.4,1.5c0.5,0.2,1.133,0.7,1.9,1.5c0.8,0.767,1.367,1.184,1.7,1.25
	c0.066,0,0.117,0.017,0.15,0.05C76.733,33.25,77.133,32.917,77.8,32.45z M91.55,35.8l-0.85,1.35l0.15,1.35l3.45-1.85
	c2.4-1.233,3.95-1.883,4.65-1.95c1.1-0.1,2.783-0.15,5.05-0.15l-0.8-1.25c0.133-1.167-0.25-1.816-1.15-1.95
	c-0.6-0.067-1.466-0.017-2.6,0.15l-1.4,0.25C94.917,33.283,92.75,34.633,91.55,35.8z M90.05,45.05L92.7,45.9L97,46.05l5.75-2.149
	l5.15-0.45c0.733,0.5,1.7,0.649,2.9,0.45c1.2-0.2,1.75-0.667,1.65-1.4c-0.034-0.667-0.184-1.567-0.45-2.7l-0.3-1.55
	c-2.2,0.567-3.75,0.717-4.65,0.45c-0.566-0.2-2.25-0.3-5.05-0.3h-3.95c-0.867,0.067-2.45,0.583-4.75,1.55l-3.15,1.4L90.05,45.05z
	 M84.3,48c0.133-0.134,0.2-0.333,0.2-0.6c-0.867-0.634-2.567-2-5.1-4.101c-0.7-0.566-1.283-1.033-1.75-1.4l-0.6-0.85
	c-0.1-0.367-0.2-0.733-0.3-1.1H76.3l-0.45-0.6c-0.867,0.1-1.733,0.55-2.6,1.35l-1,1.15l1.15,0.7c0.4,0.2,0.8,0.35,1.2,0.45
	c0.167,0.267,0.283,0.583,0.35,0.95C74.983,44.184,75,44.866,75,46c0,0.566-0.667,1.434-2,2.6c-1.333,1.167-2,2.017-2,2.551
	c0,0.3,0.15,1.483,0.45,3.55c0,0.8-0.133,1.467-0.4,2c-2.466-0.634-4.4-1.934-5.8-3.9c-1.367-1.899-3.617-2.85-6.75-2.85
	c0.667,0.666,1.167,1.333,1.5,2c0,0.967-0.4,2.066-1.2,3.3c-1.1,1.667-2.533,2.217-4.3,1.65c0,0.033,0.033,0.85,0.1,2.449
	c0.033,0.867-0.5,1.634-1.6,2.301l-3.5,0.3v1c0.333,0.3,1.35,0.717,3.05,1.25h6.2c0.367-0.467,0.783-0.9,1.25-1.3
	c0.5-0.467,0.917-0.884,1.25-1.25c2.267-0.233,4.133-0.567,5.6-1c0.233,0,0.467,0.017,0.7,0.05h5.2
	c2.533-1.267,4.15-2.783,4.85-4.55c0.367-0.867,0.5-2.2,0.4-4l5.5-0.25c0.667-0.634,1-1.601,1-2.9C84.5,48.6,84.433,48.267,84.3,48z
	 M114.35,56.6c-0.967,1-1.8,2.301-2.5,3.9c-0.567,1.267-0.85,2.184-0.85,2.75c0,1.467,0.083,2.45,0.25,2.95h2
	c0.867-1.7,2.767-3.267,5.7-4.7c2.933-1.434,4.617-2.55,5.05-3.35C120.433,54.184,117.217,53.667,114.35,56.6z M102.2,57.5
	c0.867-0.5,1.3-1.417,1.3-2.75c0-0.566-0.017-0.884-0.05-0.95c-0.034-0.066-0.1-0.184-0.2-0.35c-5.7,0.434-9.067,0.95-10.1,1.55
	c-0.467,0.267-0.717,0.634-0.75,1.1c0,0.301,0.033,0.851,0.1,1.65c0,1.134,0.083,1.95,0.25,2.45l3.75,0.2
	C98.467,59.267,100.367,58.3,102.2,57.5z M98.15,66.55c0.167,0.566,0.383,1.066,0.65,1.5c0.3,0.434,0.7,0.767,1.2,1
	c0.433,0.167,0.917,0.25,1.45,0.25c2.267-0.033,3.75-0.684,4.45-1.95c0.467-0.833,0.333-1.583-0.4-2.25
	c0.067-1.066-1.017-2.017-3.25-2.85c-1.133-0.5-2.3-0.6-3.5-0.3l-1.45,0.5l0.2,2.649C97.667,65.667,97.883,66.15,98.15,66.55z
	 M150.3,51.7c0.034,0.133,0.067,0.3,0.1,0.5l-0.9,0.2C149.833,52.233,150.1,52,150.3,51.7z M75.5,11.4l0.1-2.3L72.85,9l-2.65,3.25
	l-4.25,2.45l-2.5,2.25L62,19.8l-2.4,2.6l2.75,1.4l0.9-1.1c0.733-0.8,1.383-1.284,1.95-1.45c1.1-0.4,2.6-1.233,4.5-2.5
	c0.867-0.5,1.683-1.483,2.45-2.95c0.567-1.4,0.9-2.55,1-3.45c0.1-0.6,0.533-0.934,1.3-1C74.817,11.317,75.167,11.333,75.5,11.4z
	 M45.6,22.9c0.733,0.633,1.6,1.1,2.6,1.4c1.466,0.434,2.633,0.167,3.5-0.8c1.2-1.5,1.833-2.633,1.9-3.4c0.1-0.9-0.467-1.633-1.7-2.2
	c-0.5-0.566-1.4-1.017-2.7-1.35c-0.467-0.1-0.9-0.15-1.3-0.15c-1.3-0.066-2.483,0.383-3.55,1.35c-1.367,1.267-1.633,2.4-0.8,3.4
	C44.117,21.883,44.8,22.467,45.6,22.9z M38.15,29.3l5.45,3.35c-0.5,0.233-1.633,0.667-3.4,1.3l-0.25,0.1
	c0.167-0.333,0.35-0.683,0.55-1.05l-0.25-0.55c-2.033-0.1-4.267-0.3-6.7-0.6c-2.066-0.267-3.917-0.417-5.55-0.45v0.05
	c-0.267,0-0.433,0.15-0.5,0.45c0.1,0.133,0.467,0.267,1.1,0.4c-0.9,0-2.317-0.05-4.25-0.15c-0.733-0.033-1.283,0.017-1.65,0.15
	c-0.367,0.1-0.534,0.317-0.5,0.65c0.033,0.433,0.283,0.816,0.75,1.15c-0.567-0.033-1.167-0.05-1.8-0.05
	c-4.1-0.066-6.15-0.033-6.15,0.1l-3,0.3v5.7c0.233,0.3,0.483,0.717,0.75,1.25c0.333,0.5,0.917,1,1.75,1.5
	c0.667-2.633,2.45-4.483,5.35-5.55c0.833-0.3,2.117-0.717,3.85-1.25c1.233-0.4,2.283-0.833,3.15-1.3h1.3
	c0.333,0.367,0.633,0.784,0.9,1.25c0.633,1.133,0.95,2.2,0.95,3.2c0,0.433-0.167,0.9-0.5,1.4c-0.333,0.533-0.5,1-0.5,1.4
	c0,0.767,0.5,1.467,1.5,2.101c1,0.666,1.5,1.466,1.5,2.399c0,0.601-0.017,0.967-0.05,1.101c-0.034,0.1-0.184,0.267-0.45,0.5H24
	c-0.633-0.834-1.117-1.434-1.45-1.801c-0.6-0.6-1.45-0.916-2.55-0.949c-3.067,0.433-5.167-0.067-6.3-1.5
	c-0.1-0.101-0.184-0.184-0.25-0.25l0.75-0.25c-0.233-0.334-0.567-0.65-1-0.95c-0.333-0.3-0.667-0.517-1-0.65l0.2,2.15
	c-0.533,0.467-1.5,1.45-2.9,2.95c0.233,0.033,0.95,0.3,2.15,0.8c0.467,0.166,1.667,0.333,3.6,0.5c-0.5,0.267-0.967,0.483-1.4,0.649
	c0.433-0.066,1.017-0.017,1.75,0.15c0.5,0.066,0.967-0.167,1.4-0.7c0.9,0.033,1.917,0.084,3.05,0.15
	c-0.066,1.2,0.784,2.416,2.55,3.649C25.267,53.967,29.4,54.9,35,54.9c1.733,0,2.9-0.717,3.5-2.15c0.333-0.8,0.5-1.917,0.5-3.35
	c0-1.567-0.5-3.351-1.5-5.351S36,40.833,36,40.4c0-0.566,0.383-1.316,1.15-2.25c0.033-0.033,0.067-0.05,0.1-0.05
	c0.1,0.167,0.267,0.3,0.5,0.4c1.167,0.633,3.05,1.183,5.65,1.65l1.2,0.65c1.1,0.333,2.45,0.333,4.05,0c0.6-0.1,1.667-0.216,3.2-0.35
	c1.4-0.167,2.35-0.4,2.85-0.7c0.2-0.133,0.75-0.567,1.65-1.3c0.633-0.5,1.267-0.85,1.9-1.05c0.933-0.3,1.75-0.883,2.45-1.75
	l0.05-0.05c0.867-0.233,1.633-0.383,2.3-0.45l4.25-0.4c0.467-0.533,0.817-1.133,1.05-1.8c0.433-1.333,0.1-2.167-1-2.5
	c-1.3-0.4-2.783-0.767-4.45-1.1c-1.6-0.3-2.733-0.417-3.4-0.35l-5.95,0.55c-0.6-0.367-1.333-0.75-2.2-1.15
	c-1.767-0.733-3.367-1.033-4.8-0.9c-0.233,0-0.466,0.033-0.7,0.1c-1.3,0.133-2.9,0.45-4.8,0.95L38.15,29.3l1.9-0.75
	c1.434-0.6,2.567-0.933,3.4-1c0.667-0.066,1.433-0.15,2.3-0.25c0.8-0.133,1.7-0.3,2.7-0.5c-1.633-0.767-3.117-1.083-4.45-0.95
	c-2.533,0-4.35,0.05-5.45,0.15c-0.667,0.067-1.35,0.2-2.05,0.4l-0.9,0.2l-2.25,1.25L32,28.3L38.15,29.3z M57.5,48.65
	c-2.4-3.134-5.017-3.317-7.85-0.551c-1,0.967-1.883,2.167-2.65,3.601c-0.667,1.267-1,2.166-1,2.7c0,0.066,0,0.583,0,1.55
	c0.167,0.967,0.667,1.45,1.5,1.45C47.767,57.4,51.1,54.483,57.5,48.65z M64.5,48.2c0.833,0,1.167-0.101,1-0.3
	c0-1.233,1-2.75,3-4.551c1.1-1,2.767-2.45,5-4.35l-0.25-0.55c-3.967-1.133-7.017-0.567-9.15,1.7c-1.4,1.434-2.1,2.767-2.1,4
	c0,0.066,0.1,0.767,0.3,2.1C62.733,47.55,63.467,48.2,64.5,48.2z M70.6,39.65h0.7l-0.75,0.3L70.6,39.65z M79.65,45.5
	c-0.733-0.634-1.35-1.467-1.85-2.5c0.8,0.733,1.55,1.417,2.25,2.05L79.65,45.5z M31.75,23.1c0.2,0.233,0.533,0.483,1,0.75
	c1.4,0.667,2.45,0.45,3.15-0.65c0.7-1.1,0.467-1.867-0.7-2.3c-0.1-0.033-0.184-0.05-0.25-0.05C34.783,20.483,34.467,20.2,34,20
	c-1.2-0.467-2.25-0.267-3.15,0.6c-0.9,0.9-0.667,1.683,0.7,2.35C31.617,22.983,31.683,23.033,31.75,23.1z M31.55,32.7
	c0.2,0,0.417,0.017,0.65,0.05l-0.1,0.65L31.55,32.7z M21.25,28.95l-0.4,2.75H22c0.233,0,0.467-0.017,0.7-0.05
	c0.566-0.033,1.066-0.117,1.5-0.25c0.867-0.333,2.083-0.45,3.65-0.35c-1.067-1.5-2.033-2.316-2.9-2.45
	c-0.833-0.133-1.717-0.117-2.65,0.05L21.25,28.95z M13.4,54.9l0.15,1.75c0.067,0,0.133,0.017,0.2,0.05
	c0.333-0.233,0.55-0.601,0.65-1.101c0.033-0.133,0.067-0.35,0.1-0.649C14.133,54.917,13.767,54.9,13.4,54.9z M69.4,58.05
	c-0.133,0.033-0.267,0.066-0.4,0.101l0.4-0.7c0.2,0.066,0.4,0.133,0.6,0.2l-0.5,0.3C69.467,57.983,69.433,58.017,69.4,58.05z
	 M69.75,59.35v0.301h-0.5C69.417,59.55,69.583,59.45,69.75,59.35z"/>
<path style="fill-rule:evenodd;clip-rule:evenodd;fill:#55351E;" d="M285.75,29.45c0.1,0.667,0.184,1.316,0.25,1.95
	c0.566,0.167,1.134,0.35,1.7,0.55c0.6,0.3,1.416,0.633,2.45,1c1.3,0.633,2.5,1.333,3.6,2.1l2.55,3.55l0.4,4.4l-0.101,1.45h-0.05
	c-0.434,3.5-1.2,6.217-2.3,8.149c-2.033,3.5-6.316,5.784-12.85,6.851c1.433,5.2-2.067,9.684-10.5,13.45l4,0.3
	c0.733,0,1.466-0.05,2.199-0.15c-1.767,0.9-3.5,1.351-5.199,1.351c-1.5,0-2.934-0.067-4.301-0.2c-2.533-0.3-4.833-0.834-6.899-1.601
	c-2.601-1.267-4.334-1.983-5.2-2.149c0-0.5,0.167-0.851,0.5-1.05c0.167,0.033,1.35,0.466,3.55,1.3c7.667,0,12.934-1.834,15.8-5.5
	c1.7-2.167,2.384-4.417,2.051-6.75c1.233,0.1,2.316,0.383,3.25,0.85c0.733,0.167,1.983-0.3,3.75-1.399
	c0.166,0.133,0.3,0.366,0.399,0.699l2.65-2.449c0.533-0.534,1.267-1.551,2.2-3.051c1.366-1.6,2.25-2.683,2.649-3.25
	c0.533-0.966,0.934-2.583,1.2-4.85l-0.25-2.7c-0.033-0.433-0.267-0.867-0.7-1.3c-0.533-0.533-0.934-0.95-1.2-1.25
	c-0.399-0.533-1.267-1.05-2.6-1.55c-1.4-0.633-2.417-0.833-3.05-0.6c-0.533,0.2-1.167,0.583-1.9,1.15l-0.85,0.65
	c0.333-0.4,0.717-0.85,1.149-1.35l0.95-0.75L282,33.85c-0.167,0.7-0.967,1.65-2.4,2.85c-1.133,0.167-2.233,0.75-3.3,1.75
	c-0.633,0.633-2.083,1.316-4.35,2.05l-3.15,0.95l3.45,0.35l-4.75,0.15l4.45-3.45l5.95-5.65c1.533-2.4,2.267-3.934,2.199-4.6
	l-0.5-5.35c0.7,0.367,1.384,0.8,2.051,1.3c0.466,0.333,1.083,0.733,1.85,1.2c0.533,0.467,0.983,1,1.35,1.6
	c-0.033,0.033-0.066,0.083-0.1,0.15l0.5,1.3L285.75,29.45z M297.9,61c-0.067,0.767-0.217,1.616-0.45,2.55
	c-0.167,0.434-0.334,0.9-0.5,1.4c-0.134,0.333-0.25,0.633-0.351,0.899c-0.833,1.7-1.816,2.551-2.949,2.551L290.7,67.8l-3.9-0.75
	c0.233-0.333,0.434-0.666,0.601-1c0.199-0.366,0.366-0.75,0.5-1.149c0.833-1.367,2.05-1.95,3.649-1.75c1.634,0.199,2.8-0.2,3.5-1.2
	c0.8-1.134,1.65-2.334,2.55-3.601c0.2,0.7,0.301,1.4,0.301,2.101C297.9,60.616,297.9,60.8,297.9,61z M250.4,40.85l0.399,6.7
	L249.9,48.2c0.533-1.167,0.75-2.184,0.649-3.05L250.4,40.85z M250.35,39.4l2.351-3.85l-5.851,2.9l-1.399,3.15
	c-0.566,1.167-1.8,2.4-3.7,3.7l-4.2,1.75c-1.133,0.334-2.033,0.417-2.7,0.25l-6.6-1.75l0.3,0.45c-0.366-0.167-0.8-0.316-1.3-0.45
	l-1.55-1.45l6.95-2l4.699-0.45l5.851-3.25l0.95-1.5c0.866-1.033,1.783-1.667,2.75-1.9l2.35-0.5l3.35-0.3l1.4,0.5L250.35,39.4z
	 M270.6,50.25c0.167,0.066,0.334,0.134,0.5,0.2l0.25,0.05c1.101,0.3,2.25,0.4,3.45,0.3c0-0.399-0.033-0.816-0.1-1.25
	c-0.033-0.267-0.101-0.55-0.2-0.85c-0.033-0.066-0.05-0.117-0.05-0.15c-0.134-0.5-0.334-0.899-0.601-1.2
	c0.9,0.267,1.534,0.967,1.9,2.101c0.233,0.767,0.316,1.517,0.25,2.25c-1.566,0.133-3.066-0.084-4.5-0.65
	c-0.467-0.2-0.767-0.45-0.9-0.75V50.25z M263.25,72.5l0.25-0.6l-1.5,0.25C262.366,72.217,262.783,72.333,263.25,72.5z M275.55,72.2
	h-0.25l0.25-0.3V72.2z M225.6,1.35c0.134,0,0.267,0.017,0.4,0.05c0.134,0,0.283,0,0.45,0c0.1,0.1,0.149,0.184,0.149,0.25
	c0,0.033,0.267,0.184,0.801,0.45c2.066,1.767,3.783,3.75,5.149,5.95c0.066,1.5,0.15,3.583,0.25,6.25c1.267,1.267,1.7,2.25,1.3,2.95
	l-2.05-0.15c-1.399,1.7-2.517,2.933-3.35,3.7c-0.5,0.467-1.267,0.833-2.3,1.1l-1.351,0.25l-8.649-2.6l2.85,5.85
	c1.167,2.6,1.55,4.367,1.15,5.3c-0.667,1.7-1.7,3.816-3.101,6.35c-0.366,0.7-1.833,1.867-4.399,3.5
	c-2.301-0.267-4.117-0.333-5.45-0.2c-1.767,0.133-3.167-0.417-4.2-1.65l-1.9-2.2c0.934-0.033,1.801-0.35,2.601-0.95
	c0.733-0.533,1.7-0.65,2.899-0.35c0.567,0.133,1.067,0.333,1.5,0.6l0.551-0.95c0.5-0.733,1.149-1.267,1.949-1.6
	c1.301-0.533,2.601-1.2,3.9-2c0.566-1.2,0.917-2.383,1.05-3.55c0.066-0.7,0.066-1.7,0-3l-0.1-1.7l-3-3.1l3.7-0.35
	c2.666-0.267,4.517-0.9,5.55-1.9c0.434-0.4,0.833-1.167,1.2-2.3c0.267-0.8,0.767-1.233,1.5-1.3l4.05-0.35
	c0.366-0.034,0.233-1.267-0.4-3.7c-0.899-3.1-1.383-4.983-1.45-5.65C226.75,3.317,226.333,2.317,225.6,1.35z M295.75,52
	c-0.1,0.366-0.233,0.75-0.4,1.15h-0.199C295.35,52.783,295.55,52.4,295.75,52z M181.4,38.35c0.033-0.633,0.166-1.15,0.399-1.55
	c0.634-1.267,2.017-1.45,4.15-0.55c0.333,0.133,0.649,0.283,0.95,0.45l6.05,0.2l1.85-1.5l1.9-1.15l2.35,1.65
	c0.767,0.367,1.517,0.567,2.25,0.6l-1.75,2.55c-2.233,0.2-3.7,0.217-4.399,0.05l-6.25-1.8c4,2.2,6.75,3.65,8.25,4.35
	c-1.233-0.5-3.017-1.316-5.351-2.45c-0.566-0.333-1.217-0.684-1.95-1.05l-2.699-1.3c0.899,0.5,1.767,1.15,2.6,1.95
	c1.167,1.133,1.75,2.034,1.75,2.7c0,0.9-1.566,3.116-4.7,6.65c-3.399,3.833-6,5.75-7.8,5.75c-4.967,0-8.25-0.45-9.85-1.351
	c-0.467-0.3-0.784-0.649-0.95-1.05c-0.066-0.333-0.134-0.533-0.2-0.6c4.4-0.301,7.483-1.034,9.25-2.2c0.967-0.634,1.8-1.566,2.5-2.8
	c0.6-0.667,1.066-1.567,1.4-2.7c0.3-0.967,0.416-1.717,0.35-2.25C181.366,39.917,181.333,39.05,181.4,38.35z M207.1,42.5
	c-0.733,0.067-1.383,0.117-1.949,0.15C205.65,42.317,206.3,42.267,207.1,42.5z M217.7,41.25c-0.134,0.267-0.267,0.5-0.4,0.7
	l-0.05-0.4C217.384,41.483,217.533,41.383,217.7,41.25z M223.1,33.85l0.5-1.8l0.101,1L223.1,33.85z M229.7,23.8
	c-0.267,0.633-0.584,0.967-0.95,1l-0.7,0.1C228.55,24.6,229.1,24.233,229.7,23.8z M242.55,23.2c0.967,0.2,1.45,0.767,1.45,1.7
	c0.033,1.467-0.934,2.783-2.9,3.95c-0.466,0.267-0.916,0.433-1.35,0.5c-0.533,0.033-1.05-0.067-1.55-0.3
	c-0.434-0.2-0.867-0.517-1.3-0.95c0.566,0.267,1.149,0.35,1.75,0.25c0.5,0,1.017-0.15,1.55-0.45c1.767-0.967,2.649-2.05,2.649-3.25
	c-0.033-0.2-0.066-0.367-0.1-0.5c0-0.066,0-0.117,0-0.15C242.75,23.7,242.684,23.433,242.55,23.2z M219.9,51.35
	c-0.101-0.433-0.25-0.866-0.45-1.3c-0.5-1.133-1.15-1.85-1.95-2.149c0.1-0.167,0.3-0.384,0.6-0.65l0.4-0.35
	c5.866-0.267,9.616,0.35,11.25,1.85c0.5,0.467,0.75,1.384,0.75,2.75c0,0.733-0.033,1.25-0.1,1.55c-0.134,0.467-0.434,0.934-0.9,1.4
	c0.2,0.166,0.4,0.316,0.6,0.45c-1.6,0.533-2.666,1.333-3.199,2.399c-0.4,0.834-0.733,2.25-1,4.25c-1.2,4-7.233,6.7-18.101,8.101
	l-12.75,0.05c-1.434-0.367-3.383-0.967-5.85-1.8c-1.733-0.567-4.117-1.15-7.15-1.75l4.45-0.25l6.55,1.3l11.45-0.05
	c2.634-1.2,4.434-2.784,5.4-4.75c0.767-1.534,0.966-3.184,0.6-4.95c0.934,0.233,1.816,0.366,2.65,0.399
	c0.767,0.267,1.3,0.551,1.6,0.851l7.25,0.2c1.667,0,2.75-0.733,3.25-2.2c0.167-0.5,0.25-1.351,0.25-2.55c0-1.9-0.384-3.301-1.15-4.2
	c-0.933-1.066-2.883-2.066-5.85-3c0,0.934,0.25,1.684,0.75,2.25s0.75,1.017,0.75,1.35C220,50.816,219.967,51.083,219.9,51.35z
	 M199.65,12.9h0.05c1.399,0.7,2.033,1.567,1.899,2.6c-0.066,0.967-0.783,1.7-2.149,2.2c-1.267,0.433-2.233,0.466-2.9,0.1
	c-0.267-0.167-0.5-0.383-0.7-0.65c0.334,0.033,0.75,0.017,1.25-0.05c0.434,0,0.917-0.083,1.45-0.25c1.134-0.4,1.75-0.983,1.851-1.75
	c0.033-0.2,0.017-0.383-0.051-0.55C200.417,13.95,200.184,13.4,199.65,12.9z M187.7,5.4c0.434,1.033,0.95,1.717,1.55,2.05
	c0.6,0.4,0.95,1.133,1.05,2.2c0.033,0.567,0,1.067-0.1,1.5l-5,7.85l-0.851,5.5l-0.449-0.95c-0.167-0.4-0.767-1.15-1.801-2.25
	l-1.55-1.5c-0.399-0.533-0.767-1.167-1.1-1.9c-0.7-1.5-0.967-2.733-0.8-3.7c0.166-0.833,0.833-1.5,2-2
	c1.066-0.534,1.633-1.1,1.699-1.7c0.067-0.633-0.683-1.167-2.25-1.6c-1.866-0.433-2.883-0.767-3.05-1c1.4-2.167,2.05-3.8,1.95-4.9
	c-0.066-0.7-0.3-1.4-0.7-2.1l-0.6-0.8l9.5,3.8L187.7,5.4z M163.35,15.6l-0.199-0.65v1.35c-0.034,0.2-0.084,0.417-0.15,0.65
	l0.25,1.15l-0.05,0.95c0.033,3.067-0.101,5.317-0.4,6.75l-2.05,3.9c-0.333,0.633-1.4,2.316-3.2,5.05l-3,4.6
	c-1,1.233-1.833,2-2.5,2.3c-0.399,0.167-1.216,0.684-2.45,1.55l-1.65,1.2l6-0.551c1.2-0.1,2.35-0.8,3.45-2.1
	c0.133-0.167,0.267-0.333,0.399-0.5c-0.767,1.133-1.434,1.866-2,2.2c-1,0.399-2.05,0.816-3.149,1.25c-1.134,0.434-2.95,0.767-5.45,1
	c-2.333,0.166-3.784,0.416-4.35,0.75l10.6-10.4l-3.65,1.7c0.333-0.3,0.733-0.617,1.2-0.95c1.7-1.133,2.634-1.816,2.8-2.05
	c0.601-0.733,1.667-2.767,3.2-6.1l1.95-7.6L159,18c-0.434-2.467-0.717-4.35-0.85-5.65c-0.067-0.867,0.133-1.934,0.6-3.2l0.65-1.7
	c-0.434,0.466-0.817,0.883-1.15,1.25c-1.4,1.4-2.366,2.133-2.9,2.2c-0.399,0.033-0.783,0.133-1.149,0.3l-0.5,0.2
	c-0.334,1.2-0.816,2.15-1.45,2.85c-1.233,1.433-2.867,2.25-4.9,2.45c-1.133,0.1-2.317-0.067-3.55-0.5l-1.6-0.65l2-0.35
	c1.433-0.3,2.417-0.684,2.95-1.15c0.833-0.767,2.067-2.133,3.7-4.1l1.5-1c1.167-0.767,2.15-1.467,2.95-2.1
	c0.8-0.667,0.9-1.75,0.3-3.25l-1.1-2.1l3.75,1.65c1.967,0.9,3.283,1.567,3.95,2c0.233,0.133,0.383,0.25,0.45,0.35
	c0.3,0.367,0.517,1.167,0.649,2.4c0.233,1.633,0.4,2.617,0.5,2.95C164.066,11.75,163.917,13.333,163.35,15.6z M175.4,39.6
	c-0.367,0.3-0.733,0.533-1.101,0.7c-0.7,0.267-1.483,0.233-2.35-0.1c-0.5-0.233-1.2-0.667-2.101-1.3
	c0.301,0.167,0.584,0.3,0.851,0.4c0.5,0.2,0.95,0.3,1.35,0.3c0.834,0.033,1.55-0.25,2.15-0.85c0.533-0.533,0.783-1.167,0.75-1.9
	c0-0.7-0.217-1.483-0.65-2.35c-0.3-0.633-0.6-1.133-0.899-1.5c0.733,0.133,1.449,0.933,2.149,2.4
	c0.867,1.733,0.816,3.117-0.149,4.15V39.6z M170.3,51.65c0.233,0.066,0.533,0.283,0.9,0.649l-0.2-0.8
	C170.767,51.533,170.533,51.583,170.3,51.65z M177.5,66.35h0.05L177.5,66.4V66.35z M133.2,40.1c0.3,0.133,0.583,0.15,0.85,0.05
	c0.133-0.066,0.25-0.133,0.35-0.2c0.934-0.667,1.4-1.65,1.4-2.95c0-0.133,0-0.267,0-0.4v-0.05c-0.033-0.433-0.1-0.8-0.2-1.1
	c1,0.133,1.483,0.816,1.45,2.05c-0.033,1.467-0.533,2.567-1.5,3.3C134.917,41.267,134.133,41.033,133.2,40.1z M122.25,36.45
	c0.4,0.066,0.767,0.316,1.1,0.75c0.433,0.566,0.15,1.333-0.85,2.3c-1.033,1-1.9,1.133-2.6,0.4c-0.133-0.133-0.25-0.267-0.35-0.4
	c0.534,0.133,1.133-0.117,1.8-0.75c0.867-0.833,1.2-1.467,1-1.9C122.317,36.683,122.283,36.55,122.25,36.45z M133.65,29.75
	c-1.733-0.033-2.583-0.033-2.55,0c0,0.133-0.867,0.283-2.6,0.45c-2.133,0.2-4.467,1.133-7,2.8l-3.2,2.5c0.633-0.733-1.15-1.4-5.35-2
	l-6.45-0.7l2.35-2.35c1.7-1.6,2.9-2.434,3.6-2.5c1.133-0.1,3.316,0.233,6.55,1l5.3-2.65l5.95-0.55l2.95,1.15
	c2.2,0.934,4.05,1.917,5.55,2.95c0.167,0.1,0.35,0.217,0.55,0.35c1.567,0.167,3.133,0.417,4.7,0.75
	c-0.267,0.233-0.683,0.35-1.25,0.35c-1,0-2.15-0.367-3.45-1.1C137.367,29.933,135.483,29.783,133.65,29.75z M141,47.45h0.75
	c0.233,0.233,0.483,0.633,0.75,1.2c-0.133,0.199-0.3,0.383-0.5,0.55l-0.15,0.149c0.833,0.5,1.816,1.117,2.95,1.851
	c3.133,0.2,4.883,0.05,5.25-0.45c0.1-0.134,0.167-0.316,0.2-0.55c0.133-0.167,0.467-0.25,1-0.25c0.167,0.8,0.25,1.983,0.25,3.55
	c0,1.733-0.05,2.816-0.15,3.25c-0.267,1.033-0.883,1.95-1.85,2.75c-0.367-2.033-3.233-2.3-8.6-0.8c-5.566,1.533-8.7,3.033-9.4,4.5
	c-1.267,2.566-2.517,4.6-3.75,6.1c-0.8,0.3-1.933,0.767-3.4,1.4c-2.533,1.066-4.483,1.8-5.85,2.2c0.067,0.066,0.167,0.133,0.3,0.199
	c-0.867,0.067-1.783,0.101-2.75,0.101c-2.233-0.467-3.883-1.167-4.95-2.101c-0.667-0.6-1.117-1.3-1.35-2.1
	c-0.1-0.733-0.183-1.167-0.25-1.3l0.25-0.75c0.267,0.066,1.067,0.3,2.4,0.7c1.133,0.366,1.934,0.55,2.4,0.55
	c5.534,0,9.5-0.483,11.9-1.45c1.4-1.267,2.35-2.35,2.85-3.25c0.1-0.733,0-1.583-0.3-2.55c4.267-0.434,6.8-1.483,7.6-3.15
	c0.4-0.8,0.633-1.883,0.7-3.25c0.833-0.6,1.567-1.399,2.2-2.399c1-1.567,1.5-2.95,1.5-4.15C141,47.767,141,47.583,141,47.45z
	 M86.4,16.2c-0.467-0.367-1.283-0.017-2.45,1.05l-1.65,1.7c-0.1,0.9-0.35,1.783-0.75,2.65c-0.333,0.9-0.733,1.55-1.2,1.95
	c-0.167,0.1-0.467,0.567-0.9,1.4c-0.4,0.767-1.034,1.383-1.9,1.85l-5.15,2.55l3.1,0.7c0.367,0.133,0.767,0.8,1.2,2
	c0.167,0.5,0.533,0.633,1.1,0.4c-0.667,0.466-1.066,0.8-1.2,1c-0.033-0.034-0.083-0.05-0.15-0.05c-0.333-0.066-0.9-0.483-1.7-1.25
	c-0.767-0.8-1.4-1.3-1.9-1.5c-0.4-0.167-1.2-0.667-2.4-1.5c-1.1-0.767-1.967-1.25-2.6-1.45c-1.767-0.467-3.083-0.934-3.95-1.4
	c-1.433-0.7-1.217-1.15,0.65-1.35c1.833-0.167,3.367-0.684,4.6-1.55c0.6-0.467,1-0.9,1.2-1.3l3.1-3.35l1.65-1.1
	c1.267-0.9,2.3-1.816,3.1-2.75c0.733-0.867,0.883-1.65,0.45-2.35c-1-1.733-1.55-2.7-1.65-2.9l4-0.7l1.15,0.7
	c0.8,0.6,1.283,1.184,1.45,1.75c0.133,0.333,0.65,1.133,1.55,2.4C85.95,14.9,86.367,15.7,86.4,16.2z M86.5,18.05
	c0,1.434-0.2,2.85-0.6,4.25c-0.133,0.867-0.517,1.867-1.15,3c0.133-0.466,0.283-1.15,0.45-2.05c0.167-1.233,0.267-2.067,0.3-2.5
	c0.033-0.133,0.333-0.95,0.9-2.45C86.433,18.233,86.467,18.15,86.5,18.05z M83.5,27.1c-1.467,2.1-3.05,3.683-4.75,4.75
	c1.267-1.067,2.517-2.283,3.75-3.65C82.867,27.8,83.2,27.433,83.5,27.1z M90.05,45.05l0.1-3.7l3.15-1.4
	c2.3-0.967,3.883-1.483,4.75-1.55H102c2.8,0,4.483,0.1,5.05,0.3c0.9,0.267,2.45,0.117,4.65-0.45l0.3,1.55
	c0.267,1.133,0.417,2.034,0.45,2.7c0.1,0.733-0.45,1.2-1.65,1.4c-1.2,0.199-2.167,0.05-2.9-0.45l-5.15,0.45L97,46.05L92.7,45.9
	L90.05,45.05z M84.3,48c0.133,0.267,0.2,0.6,0.2,1c0,1.3-0.333,2.267-1,2.9L78,52.15c0.1,1.8-0.033,3.133-0.4,4
	c-0.7,1.767-2.317,3.283-4.85,4.55h-5.2c-0.233-0.033-0.466-0.05-0.7-0.05c-1.467,0.433-3.333,0.767-5.6,1
	c-0.333,0.366-0.75,0.783-1.25,1.25c-0.467,0.399-0.883,0.833-1.25,1.3h-6.2c-1.7-0.533-2.716-0.95-3.05-1.25v-1l3.5-0.3
	c1.1-0.667,1.633-1.434,1.6-2.301c-0.067-1.6-0.1-2.416-0.1-2.449c1.767,0.566,3.2,0.017,4.3-1.65c0.8-1.233,1.2-2.333,1.2-3.3
	c-0.333-0.667-0.833-1.334-1.5-2c3.133,0,5.383,0.95,6.75,2.85c1.4,1.967,3.333,3.267,5.8,3.9c0.267-0.533,0.4-1.2,0.4-2
	c-0.3-2.066-0.45-3.25-0.45-3.55c0-0.534,0.667-1.384,2-2.551c1.333-1.166,2-2.033,2-2.6c0-1.134-0.017-1.816-0.05-2.05
	c-0.067-0.367-0.184-0.684-0.35-0.95c-0.4-0.1-0.8-0.25-1.2-0.45l-1.15-0.7l1-1.15c0.867-0.8,1.733-1.25,2.6-1.35l0.45,0.6h0.45
	c0.1,0.367,0.2,0.733,0.3,1.1l0.6,0.85c0.467,0.367,1.05,0.833,1.75,1.4c2.533,2.101,4.233,3.467,5.1,4.101
	C84.5,47.667,84.433,47.866,84.3,48z M98.7,43.4c0.4,0.033,1.083,0.017,2.05-0.051c1.567-0.166,3.233-0.417,5-0.75
	c0.067-0.434,0-0.833-0.2-1.2c-0.4-0.767-1.3-1.1-2.7-1c-0.867,0.1-1.883,0.6-3.05,1.5l-1.45,1.35L98.7,43.4z M131.1,50.7
	c-0.333,0.934-0.833,1.6-1.5,2c-1.367,0.833-3.9,1.399-7.6,1.7c0,0.466,0.05,0.816,0.15,1.05c-0.333-0.134-0.617-0.267-0.85-0.4
	c-0.466-0.267-0.783-0.633-0.95-1.1c-0.167-0.467-0.283-0.733-0.35-0.8v-2.2l0.5-0.05L131.1,50.7z M105.5,65.1
	c0.733,0.667,0.867,1.417,0.4,2.25c-0.7,1.267-2.183,1.917-4.45,1.95c-0.534,0-1.017-0.083-1.45-0.25c-0.5-0.233-0.9-0.566-1.2-1
	c-0.267-0.434-0.483-0.934-0.65-1.5c0.367,0.5,0.833,0.851,1.4,1.05c0.434,0.267,0.95,0.417,1.55,0.45c2.033,0,3.35-0.517,3.95-1.55
	c0.067-0.167,0.117-0.316,0.15-0.45c0.033-0.066,0.05-0.116,0.05-0.149C105.417,65.634,105.5,65.366,105.5,65.1z M150.3,51.7
	c-0.2,0.3-0.466,0.533-0.8,0.7l0.9-0.2C150.367,52,150.333,51.833,150.3,51.7z M133.2,55.9c-0.8,0.333-1.367,0.5-1.7,0.5
	c-3.8,0-6.617-0.217-8.45-0.65l9.45,0.15C132.733,55.9,132.967,55.9,133.2,55.9z M136.35,68.7c0.433-0.467,0.917-0.983,1.45-1.55
	c4.467,0,7.733-1.101,9.8-3.301c1.066-1.133,1.683-2.25,1.85-3.35c0.1,0,0.2,0.017,0.3,0.05c0.7,0.167,1.866,0.3,3.5,0.4
	c0.167,0.5,0.25,1.434,0.25,2.8c0,1.4-0.167,2.616-0.5,3.65c-0.634,2-1.8,3-3.5,3l-6.45-0.2c-0.466,0-0.783-0.134-0.95-0.4
	c-0.233-0.366-0.434-0.583-0.6-0.649C139.433,68.95,137.717,68.8,136.35,68.7z M128.5,54.65l1.5-0.25l0.05,0.149
	C129.55,54.583,129.033,54.616,128.5,54.65z M49,23.6c0.8,0.033,1.433-0.25,1.9-0.85c1-1.133,1.5-2,1.5-2.6
	c0-0.233-0.033-0.467-0.1-0.7c0-0.1,0-0.184,0-0.25c0.034-0.467-0.1-0.9-0.4-1.3c1.233,0.567,1.8,1.3,1.7,2.2
	c-0.067,0.767-0.7,1.9-1.9,3.4c-0.867,0.967-2.034,1.233-3.5,0.8c-1-0.3-1.867-0.767-2.6-1.4c0.367,0.2,0.8,0.367,1.3,0.5
	C47.667,23.633,48.367,23.7,49,23.6z M26.85,34.8c0.233-0.133,0.45-0.267,0.65-0.4c-0.1-0.167-1.617-0.267-4.55-0.3
	c-0.467-0.333-0.717-0.717-0.75-1.15c-0.034-0.333,0.133-0.55,0.5-0.65c0.367-0.133,0.917-0.183,1.65-0.15
	c1.933,0.1,3.35,0.15,4.25,0.15c-0.633-0.133-1-0.267-1.1-0.4c0.067-0.3,0.233-0.45,0.5-0.45V31.4
	c1.633,0.033,3.483,0.184,5.55,0.45c2.434,0.3,4.667,0.5,6.7,0.6L40.5,33c-0.2,0.367-0.383,0.717-0.55,1.05l0.25-0.1
	c1.767-0.633,2.9-1.067,3.4-1.3l-5.45-3.35l2.9-0.75c1.9-0.5,3.5-0.816,4.8-0.95c0.233-0.067,0.467-0.1,0.7-0.1
	c1.434-0.133,3.034,0.167,4.8,0.9c0.867,0.4,1.6,0.783,2.2,1.15L59.5,29c0.667-0.067,1.8,0.05,3.4,0.35
	c1.667,0.333,3.15,0.7,4.45,1.1c1.1,0.333,1.433,1.167,1,2.5c-0.233,0.667-0.583,1.267-1.05,1.8l-4.25,0.4
	c-0.667,0.067-1.433,0.217-2.3,0.45l-0.05,0.05c0.133-0.167,0.267-0.35,0.4-0.55l-0.8-1.55c-4.267,0.567-6.95,1.017-8.05,1.35
	c-0.4,0.934-1.333,1.8-2.8,2.6c-1.5,0.8-3.483,1.317-5.95,1.55l-3.4,0.3l3.6,0.85c2.566,0.5,4.216,0.7,4.95,0.6
	c-1.6,0.333-2.95,0.333-4.05,0l-1.2-0.65c-2.6-0.467-4.483-1.017-5.65-1.65c-0.233-0.1-0.4-0.233-0.5-0.4
	c-0.033,0-0.067,0.017-0.1,0.05C36.383,39.083,36,39.833,36,40.4c0,0.434,0.5,1.65,1.5,3.65S39,47.833,39,49.4
	c0,1.433-0.167,2.55-0.5,3.35c-0.6,1.434-1.767,2.15-3.5,2.15c-5.6,0-9.733-0.934-12.4-2.801c-1.767-1.233-2.617-2.449-2.55-3.649
	c-1.133-0.066-2.15-0.117-3.05-0.15c-0.433,0.533-0.9,0.767-1.4,0.7c-0.733-0.167-1.317-0.217-1.75-0.15
	c0.433-0.166,0.9-0.383,1.4-0.649c-1.933-0.167-3.133-0.334-3.6-0.5c-1.2-0.5-1.917-0.767-2.15-0.8c1.4-1.5,2.367-2.483,2.9-2.95
	l-0.2-2.15c0.333,0.133,0.667,0.35,1,0.65c0.433,0.3,0.767,0.616,1,0.95l-0.75,0.25c0.066,0.066,0.15,0.149,0.25,0.25
	c1.133,1.433,3.233,1.933,6.3,1.5c1.1,0.033,1.95,0.35,2.55,0.949c0.333,0.367,0.817,0.967,1.45,1.801h7.5
	c0.267-0.233,0.417-0.4,0.45-0.5c0.033-0.134,0.05-0.5,0.05-1.101c0-0.934-0.5-1.733-1.5-2.399c-1-0.634-1.5-1.333-1.5-2.101
	c0-0.4,0.167-0.867,0.5-1.4c0.333-0.5,0.5-0.967,0.5-1.4c0-1-0.317-2.067-0.95-3.2c-0.267-0.466-0.566-0.883-0.9-1.25H26.85z
	 M31.75,23.1c1.233,0.533,2.183,0.267,2.85-0.8c0.367-0.6,0.483-1.083,0.35-1.45c0.066,0,0.15,0.017,0.25,0.05
	c1.167,0.434,1.4,1.2,0.7,2.3c-0.7,1.1-1.75,1.316-3.15,0.65C32.283,23.583,31.95,23.333,31.75,23.1z M79.65,45.5l0.4-0.45
	c-0.7-0.633-1.45-1.316-2.25-2.05C78.3,44.033,78.917,44.866,79.65,45.5z M31.55,32.7l0.55,0.7l0.1-0.65
	C31.967,32.717,31.75,32.7,31.55,32.7z M69.4,58.05c0.033-0.033,0.067-0.066,0.1-0.1l0.5-0.3c-0.2-0.067-0.4-0.134-0.6-0.2l-0.4,0.7
	C69.133,58.116,69.267,58.083,69.4,58.05z M69.75,59.35c-0.167,0.101-0.333,0.2-0.5,0.301h0.5V59.35z"/>
<path style="fill-rule:evenodd;clip-rule:evenodd;fill:#482D1D;" d="M284.85,27c0.267,0.433,0.483,0.917,0.65,1.45h-0.25l-0.5-1.3
	C284.783,27.083,284.816,27.033,284.85,27z M282.95,39.4l-0.101,0.05c-0.033,0.066-0.066,0.133-0.1,0.2
	c-0.033,0-0.066,0.017-0.1,0.05c-0.134,0.1-0.25,0.216-0.351,0.35c-0.767,0.833-1.566,1.383-2.399,1.65
	c-0.233,0.1-0.417,0.15-0.551,0.15c-1.166,0.3-2.267,0.417-3.3,0.35c-0.366-0.034-1.633-0.167-3.8-0.4l-3.45-0.35l3.15-0.95
	c2.267-0.733,3.717-1.417,4.35-2.05c1.066-1,2.167-1.583,3.3-1.75c1.434-1.2,2.233-2.15,2.4-2.85l3.05,3.45l-0.95,0.75
	C283.667,38.55,283.283,39,282.95,39.4z M281.15,70.1c-0.2,0.134-0.384,0.284-0.551,0.45c-0.5,0.434-0.983,0.834-1.449,1.2
	c0.899-0.566,1.833-1.267,2.8-2.1c0.8-0.733,1.616-1.551,2.45-2.45c0.166-0.167,0.333-0.351,0.5-0.55h-0.051
	C283.65,67.783,282.417,68.934,281.15,70.1z M286.8,67.05c-0.166,0.2-0.333,0.4-0.5,0.601c-0.1,0.1-0.184,0.183-0.25,0.25
	c-1.333,1.333-2.467,2.316-3.399,2.949c-1.767,1.134-3.617,1.867-5.551,2.2c-0.733,0.101-1.466,0.15-2.199,0.15l-4-0.3
	c8.433-3.767,11.933-8.25,10.5-13.45c6.533-1.066,10.816-3.351,12.85-6.851c1.1-1.933,1.866-4.649,2.3-8.149h0.05
	c2.467,0.133,3.983,0.767,4.551,1.899c0.166,0.367,0.25,1.434,0.25,3.2c0,2.033-0.517,3.917-1.551,5.65
	c-0.767,1.1-1.517,2.149-2.25,3.149c-0.899,1.267-1.75,2.467-2.55,3.601c-0.7,1-1.866,1.399-3.5,1.2
	c-1.6-0.2-2.816,0.383-3.649,1.75c-0.134,0.399-0.301,0.783-0.5,1.149C287.233,66.384,287.033,66.717,286.8,67.05z M250.35,39.4
	l0.051,1.45l0.149,4.3c0.101,0.866-0.116,1.883-0.649,3.05c-0.2,0.333-0.417,0.717-0.65,1.149l-2.2,0.801
	c-0.133,0.033-0.25,0.05-0.35,0.05c-2,0.366-3.65,0.55-4.95,0.55c-1.667-0.1-3.134-0.184-4.4-0.25c-2-0.1-3.55-0.384-4.649-0.85
	c-1.134-0.5-1.967-1.267-2.5-2.301c-0.3-0.566-0.851-1.017-1.65-1.35l-0.3-0.45l6.6,1.75c0.667,0.167,1.567,0.084,2.7-0.25l4.2-1.75
	c1.9-1.3,3.134-2.533,3.7-3.7l1.399-3.15l5.851-2.9L250.35,39.4z M275.55,72.2v-0.3l-0.25,0.3H275.55z M295.75,52
	c-0.2,0.4-0.4,0.783-0.6,1.15h0.199C295.517,52.75,295.65,52.366,295.75,52z M297.15,57c0.033,0.134,0.083,0.267,0.149,0.4
	c0.233-0.267,0.45-0.534,0.65-0.801L297.15,57z M229.7,23.8c-0.601,0.434-1.15,0.8-1.65,1.1c-0.5,0.2-0.95,0.35-1.35,0.45
	c-0.8,0.2-1.717,0.217-2.75,0.05l-1.351-0.35l1.5,5l-0.5,2l-0.5,1.8l-0.25,1c-0.366,0.767-0.899,1.617-1.6,2.55
	c-1.134,1.733-2.316,3.017-3.55,3.85c-0.167,0.133-0.316,0.233-0.45,0.3L207.1,42.5c-0.8-0.233-1.449-0.183-1.949,0.15
	c-2.101,0.167-3.417,0.233-3.95,0.2c-0.334-0.033-0.967-0.167-1.9-0.4c-0.2-0.1-0.366-0.184-0.5-0.25c-0.1,0-0.184,0-0.25,0
	c-0.033-0.034-0.066-0.05-0.1-0.05c-0.334-0.1-0.767-0.267-1.3-0.5c-1.5-0.7-4.25-2.15-8.25-4.35l6.25,1.8
	c0.699,0.167,2.166,0.15,4.399-0.05l1.75-2.55v-0.05l0.05,0.05l1.9,2.2c1.033,1.233,2.434,1.783,4.2,1.65
	c1.333-0.133,3.149-0.067,5.45,0.2c2.566-1.633,4.033-2.8,4.399-3.5c1.4-2.533,2.434-4.65,3.101-6.35
	c0.399-0.934,0.017-2.7-1.15-5.3l-2.85-5.85l8.649,2.6l1.351-0.25c1.033-0.267,1.8-0.633,2.3-1.1c0.833-0.767,1.95-2,3.35-3.7
	l2.05,0.15c-0.966,2.1-1.633,3.517-2,4.25c-0.3,0.567-1,1.267-2.1,2.1C229.9,23.667,229.8,23.733,229.7,23.8z M219.9,51.35
	c0.066-0.267,0.1-0.533,0.1-0.8c0-0.333-0.25-0.783-0.75-1.35s-0.75-1.316-0.75-2.25c2.967,0.934,4.917,1.934,5.85,3
	c0.767,0.899,1.15,2.3,1.15,4.2c0,1.199-0.083,2.05-0.25,2.55c-0.5,1.467-1.583,2.2-3.25,2.2l-7.25-0.2
	c-0.3-0.3-0.833-0.584-1.6-0.851c-0.134-0.066-0.267-0.116-0.4-0.149l-0.25-0.3c2.033-0.634,3.816-1.7,5.35-3.2
	C218.917,53.134,219.6,52.184,219.9,51.35z M215.65,57.5c1-0.333,1.866-0.884,2.6-1.65c0.3-0.3,0.55-0.583,0.75-0.85
	c-0.934,0.9-2.184,1.717-3.75,2.45C215.384,57.483,215.517,57.5,215.65,57.5z M230.1,54.9c0.567-0.2,1.2-0.367,1.9-0.5
	c-0.333,0.466-0.634,0.899-0.9,1.3c1.367,1,2.584,1.816,3.65,2.45c0.5,0.3,0.75,0.633,0.75,1c0,0.5-0.533,1.949-1.6,4.35
	c-1.101,2.533-1.9,3.917-2.4,4.15c-0.366,0.166-0.816,0.366-1.35,0.6c-2.167,0.767-5.867,1.816-11.101,3.15
	c-6.566,1.666-10.583,2.5-12.05,2.5c-1.566,0-3.066-0.017-4.5-0.051c-9.333-0.233-16.05-1.25-20.15-3.05
	c-1.433-0.633-2.733-1.467-3.899-2.5c-1.233-1.066-2.05-1.7-2.45-1.899l1.5-0.051V66.4l0.05-0.051l0.2-0.399h3.5
	c0.267,0.066,0.533,0.133,0.8,0.2c3.033,0.6,5.417,1.183,7.15,1.75c2.467,0.833,4.416,1.433,5.85,1.8l12.75-0.05
	c10.867-1.4,16.9-4.101,18.101-8.101c0.267-2,0.6-3.416,1-4.25C227.434,56.233,228.5,55.434,230.1,54.9z M163.35,15.6l1.75,5.9
	l0.7,3.8c0.434,2.633,0.7,4.367,0.8,5.2c0.101,1.367-0.233,2.533-1,3.5c-2.399,1.367-4.05,2.1-4.949,2.2c-0.5,0.3-0.9,0.6-1.2,0.9
	c0.033,0.033,0.033,0.083,0,0.15c-0.066,0.1-0.233,0.667-0.5,1.7c-0.066,0.233-0.134,0.466-0.2,0.7l-0.4,0.7
	c-0.066,0.133-0.149,0.267-0.25,0.4c-0.1,0.167-0.183,0.317-0.25,0.45l-0.05,0.05c-0.133,0.167-0.267,0.333-0.399,0.5
	c-1.101,1.3-2.25,2-3.45,2.1l-6,0.551l1.65-1.2c1.233-0.867,2.05-1.383,2.45-1.55c0.667-0.3,1.5-1.066,2.5-2.3l3-4.6
	c1.8-2.733,2.867-4.417,3.2-5.05l2.05-3.9c0.3-1.433,0.434-3.683,0.4-6.75l0.05-0.95l-0.1-1.8v-1.35L163.35,15.6z M136.35,68.7
	c-2.434,2.533-3.85,3.983-4.25,4.35c-3.167,2.9-5.7,4.351-7.6,4.351c-4.6,0-7.717-0.517-9.35-1.551
	c-1.033-1.199-1.917-2.017-2.65-2.449v-0.75c0.233-0.067,0.55,0,0.95,0.199c0.466,0.233,0.917,0.351,1.35,0.351
	c0.434,0,0.85,0,1.25,0c0.967,0,1.883-0.033,2.75-0.101c-0.133-0.066-0.233-0.133-0.3-0.199c1.367-0.4,3.317-1.134,5.85-2.2
	c1.467-0.634,2.6-1.101,3.4-1.4c1.233-1.5,2.483-3.533,3.75-6.1c0.7-1.467,3.833-2.967,9.4-4.5c5.367-1.5,8.233-1.233,8.6,0.8
	c0,0.1,0,0.233,0,0.4c0,0.199-0.017,0.399-0.05,0.6c-0.167,1.1-0.784,2.217-1.85,3.35c-2.067,2.2-5.333,3.301-9.8,3.301
	C137.267,67.717,136.783,68.233,136.35,68.7z M133.2,55.9c-0.233,0-0.467,0-0.7,0l-9.45-0.15l-0.8-0.05
	c-0.067-0.066-0.1-0.15-0.1-0.25c-0.1-0.233-0.15-0.584-0.15-1.05c3.7-0.301,6.233-0.867,7.6-1.7c0.667-0.4,1.167-1.066,1.5-2
	c0.066-0.134,0.117-0.283,0.15-0.45c0.267-1.1,0.833-1.884,1.7-2.35c1.367-0.767,3.966-1.25,7.8-1.45c0.133,0.233,0.2,0.399,0.2,0.5
	c0.033,0.066,0.05,0.233,0.05,0.5c0,0.133,0,0.316,0,0.55c0,1.2-0.5,2.583-1.5,4.15c-0.633,1-1.367,1.8-2.2,2.399
	C136.133,55.35,134.767,55.8,133.2,55.9z M78.75,31.85c-0.367,0.2-0.683,0.4-0.95,0.6c-0.566,0.233-0.933,0.1-1.1-0.4
	c-0.434-1.2-0.833-1.867-1.2-2l-3.1-0.7l5.15-2.55c0.867-0.466,1.5-1.083,1.9-1.85c0.433-0.833,0.733-1.3,0.9-1.4
	c0.467-0.4,0.867-1.05,1.2-1.95c0.4-0.867,0.65-1.75,0.75-2.65l1.65-1.7c1.167-1.067,1.983-1.417,2.45-1.05
	c0.4,0.333,0.434,0.95,0.1,1.85c-0.033,0.1-0.067,0.184-0.1,0.25c-0.566,1.5-0.867,2.317-0.9,2.45c-0.033,0.433-0.133,1.267-0.3,2.5
	c-0.167,0.9-0.317,1.583-0.45,2.05c-0.067,0.067-0.117,0.133-0.15,0.2c-0.133,0.3-0.35,0.65-0.65,1.05
	c-0.067,0.067-0.117,0.133-0.15,0.2l-0.05,0.1c-0.067,0.033-0.117,0.066-0.15,0.1c-0.033,0.033-0.05,0.066-0.05,0.1
	c-0.033,0-0.05,0.017-0.05,0.05c-0.3,0.333-0.633,0.7-1,1.1C81.267,29.567,80.017,30.783,78.75,31.85z M98.7,43.4l-0.35-0.15
	l1.45-1.35c1.167-0.9,2.184-1.4,3.05-1.5c1.4-0.1,2.3,0.233,2.7,1c0.2,0.367,0.267,0.767,0.2,1.2c-1.767,0.333-3.433,0.583-5,0.75
	C99.783,43.417,99.1,43.434,98.7,43.4z M128.5,54.65c0.533-0.034,1.05-0.067,1.55-0.101L130,54.4L128.5,54.65z M60.7,35.65
	c-0.7,0.867-1.517,1.45-2.45,1.75c-0.633,0.2-1.267,0.55-1.9,1.05c-0.9,0.733-1.45,1.167-1.65,1.3c-0.5,0.3-1.45,0.533-2.85,0.7
	c-1.533,0.133-2.6,0.25-3.2,0.35c-0.733,0.1-2.383-0.1-4.95-0.6l-3.6-0.85l3.4-0.3c2.467-0.233,4.45-0.75,5.95-1.55
	c1.466-0.8,2.4-1.667,2.8-2.6c1.1-0.333,3.783-0.783,8.05-1.35l0.8,1.55C60.967,35.3,60.833,35.483,60.7,35.65z"/>
<path style="fill-rule:evenodd;clip-rule:evenodd;fill:#6D4126;" d="M267.6,74.2c1.367,0.133,2.801,0.2,4.301,0.2
	c1.699,0,3.433-0.45,5.199-1.351c1.934-0.333,3.784-1.066,5.551-2.2c0.933-0.633,2.066-1.616,3.399-2.949
	c0.066-0.067,0.15-0.15,0.25-0.25l2.7,0.25c0.566,0,1.134-0.034,1.7-0.101l2.95,0.601c1.133,0,2.116-0.851,2.949-2.551
	c0.867-0.199,1.934-0.333,3.2-0.399c0.267,0.434,0.483,0.916,0.65,1.45c-0.5,0.699-1.033,1.333-1.601,1.899
	c-2.366,1.066-6.149,1.95-11.35,2.65c-0.066,0.133-1.083,2.217-3.05,6.25c-1.367,2.8-2.851,4.866-4.45,6.2h-18
	c-1.8-0.367-4.517-2.301-8.15-5.801c-3.267-3.433-4.966-5.149-5.1-5.149c-1.634,0-3.134,0.583-4.5,1.75c-1.366,1.133-3.7,1.7-7,1.7
	s-6.2-0.567-8.7-1.7c-1.833-1.167-2.767-1.75-2.8-1.75c-2.2,0-5.533,1.184-10,3.55c-4.8,2.533-7.384,3.833-7.75,3.9
	c-6.7,1.267-13.2,2.933-19.5,5H179c-0.634-0.4-1.5-1.75-2.6-4.051c-0.867-1.733-2.5-2.699-4.9-2.899
	c-3.733,0.066-7.116,0.116-10.15,0.149C155.417,78.7,151.3,78.483,149,77.95c-0.667-0.167-1.833-0.717-3.5-1.65
	c-1.633-0.899-2.467-1.35-2.5-1.35c-0.967,0-2.767,1.217-5.4,3.649c-2.967,2.733-5,4.334-6.1,4.801h-13
	c-6.2-0.2-10.1-1.15-11.7-2.851c-0.433-0.467-0.767-1.149-1-2.05c-0.233-0.833-0.5-1.366-0.8-1.6c-6.033,0.1-9.833-0.317-11.4-1.25
	c-0.367-0.2-0.617-0.434-0.75-0.7c-0.2-0.367-0.25-1.117-0.15-2.25c0.1-1.134-0.05-2.05-0.45-2.75c-2.633,0.233-6.183,0.8-10.65,1.7
	c-4.767,0.966-8.467,1.883-11.1,2.75h-15c-1.3,0.199-3-0.584-5.1-2.351c-2.066-1.967-3.283-3.1-3.65-3.399
	c-7.5-0.2-11.667-1.034-12.5-2.5c-0.267-0.5-0.233-1.2,0.1-2.101c0.433-1.1,0.65-1.8,0.65-2.1c-4.967-0.066-7.55-0.351-7.75-0.851
	C27.05,60.634,24.967,60.4,21,60.4c-2.9,0-4.917-0.384-6.05-1.15c-0.4,0.066-0.784,0.15-1.15,0.25l-0.05-0.6c0.167,0,0.333,0,0.5,0
	c0.433,0,0.783-0.2,1.05-0.601c0.267-0.399,0.6-0.6,1-0.6c4.034,0,6.967,0.366,8.8,1.1c0.233,0.066,0.467-0.017,0.7-0.25
	c0.467-0.467,0.883-0.883,1.25-1.25c0.1,0.033,0.167,0.084,0.2,0.15c0.7,0.934,3.617,1.416,8.75,1.45
	c0.633,0.267,1.167,0.783,1.6,1.55c0.433,0.666,0.917,1.066,1.45,1.2c4.534,0.133,7.25,0.583,8.15,1.35
	c0.033,0.033,0.283,0.384,0.75,1.05c0.066,0.101,0.167,0.217,0.3,0.351c0.567-0.101,1.333-0.017,2.3,0.25
	c0.3,0.366,0.284,0.949-0.05,1.75c0.767,0.333,1.633,0.916,2.6,1.75c1.633,0.666,5.066,1,10.3,1c3.033,0,5.434-0.351,7.2-1.051
	c0.9-0.366,1.867-0.767,2.9-1.199H93c2.567,5.199,5.167,7.75,7.8,7.649c2.6-0.1,3.983-0.116,4.15-0.05
	c0.333-0.033,0.683-0.066,1.05-0.1c0.733,0.166,1.2,0.583,1.4,1.25c3.3,1.533,6.6,2.866,9.9,4h9.95c1.433-1.2,3.567-2.667,6.4-4.4
	c4.2-2.566,7.233-3.85,9.1-3.85c0.833,0,1.267,0.083,1.3,0.25l0.45,0.75c-0.5,0.166-0.983,0.35-1.45,0.55
	c1.2,0.133,2.917,0.6,5.15,1.399c3.6,1.267,6.033,2.051,7.3,2.351l12.55-0.05c1.334-0.5,2.316-1.067,2.95-1.7
	c0.366-0.367,0.95-0.55,1.75-0.55c1.467,0,2.983,0.883,4.55,2.649c1.601,1.767,2.917,2.65,3.95,2.65c5.3,0,8.15-0.467,8.55-1.4
	c0.066-0.166,0.05-0.6-0.05-1.3c-0.1-0.566,0.066-1,0.5-1.3c2.2-1.601,4.167-2.2,5.9-1.8c2.333,0.5,4.283,0.517,5.85,0.05
	c0.066-0.033,0.233-0.066,0.5-0.101c1.434,0.034,2.934,0.051,4.5,0.051c1.467,0,5.483-0.834,12.05-2.5
	c5.233-1.334,8.934-2.384,11.101-3.15c0.433,0.2,1.066,0.5,1.899,0.9c1.434,0.699,2.25,1.05,2.45,1.05
	c6.934,0,10.95-0.217,12.05-0.65c0.267-0.1,0.467-0.25,0.601-0.45c0.166-0.133,0.699-0.199,1.6-0.199c2.3,0,4.8,0.767,7.5,2.3
	c1.4,0.833,3.066,1.833,5,3H267.6z M258.5,62.95v0.45c0.033,0,0.066-0.017,0.1-0.051L258.5,62.95z M291.9,41.75c0,1.1-0.5,2.1-1.5,3
	c-0.067,0.066-0.117,0.134-0.15,0.2c0.033-0.033,0.083-0.05,0.15-0.05c-2.967,2.966-4.5,4.517-4.601,4.649
	c-0.666,0.7-1.283,1.417-1.85,2.15c-0.233,0.333-0.467,0.684-0.7,1.05c-1.366,2.1-2.15,3.15-2.35,3.15c-1.667,0-2.667-0.617-3-1.851
	c0-1.3,0-1.983,0-2.05c0-1.634,0.433-3.217,1.3-4.75c-0.4,0.233-0.75,0.384-1.05,0.45c-0.167,0.366-0.25,0.133-0.25-0.7
	c0-1.033,0.767-2.366,2.3-4c1.434-1.5,2.75-2.517,3.95-3.05c0.1,0.133,0.233,0.3,0.399,0.5c1.7-0.8,3.25-1.05,4.65-0.75
	c0.166-0.034,0.333-0.05,0.5-0.05C291.167,39.617,291.9,40.317,291.9,41.75z M268.85,20.15c1.867-0.033,3.667,0.167,5.4,0.6
	l-6.5,1.85c-1.233,1.033-2.15,2.033-2.75,3c-0.333,0.6-0.75,1.683-1.25,3.25c-0.233,0.833-0.434,1.6-0.6,2.3l-1.75,2.9l-0.4-7.4
	l1.05-1.35c0.8-0.966,1.384-1.633,1.75-2C264.333,22.9,266.017,21.85,268.85,20.15z M251.45,32.55
	c-2.233,0.467-3.783,0.833-4.65,1.1c-3.033,1.1-6.233,1.967-9.6,2.6c-1.434,0.267-2.167,0.583-2.2,0.95
	c-0.1,0.667-0.316,1.117-0.65,1.35c-0.666,0.5-1.85,0.85-3.55,1.05l-2.399,0.15l2.949-4.35l6-1.55l2.7-0.4
	c1.967-0.3,3.283-0.483,3.95-0.55L251.45,32.55z M262.75,42.95c0.3,0.434,0.5,0.75,0.6,0.95c0.101,0.333,0.15,0.783,0.15,1.35
	c-3.434,4.434-5.434,6.65-6,6.65c-1.934,0-3.1-0.483-3.5-1.45c0-0.967,0-1.483,0-1.55c0-1.467,0.15-2.384,0.45-2.75
	c0.366-0.534,1.8-1.601,4.3-3.2H262.75z M274.4,57.2c-0.034,1.533-2.65,3.217-7.851,5.05c-4.366,1.566-7.717,2.45-10.05,2.65
	c0.5-0.567,0.967-1.584,1.4-3.051c0.466-1.533,0.983-2.649,1.55-3.35c2.033-2.467,7.017-3.65,14.95-3.55V57.2z M281.15,70.1
	c0.233-0.166,0.5-0.316,0.8-0.449c-0.967,0.833-1.9,1.533-2.8,2.1c0.466-0.366,0.949-0.767,1.449-1.2
	C280.767,70.384,280.95,70.233,281.15,70.1z M138.55,9.65c0.6-0.333,1.1-0.9,1.5-1.7l0.8-0.45l3.75,0.3l0.4-2.4l0.1-0.2l1.2-0.4
	c-0.167-0.533-0.183-1-0.05-1.4c0.367-0.333,0.767-0.517,1.2-0.55c0.6-0.033,1.133-0.25,1.6-0.65c0.467-0.367,0.917-0.567,1.35-0.6
	c0.9-0.1,2.267-0.133,4.1-0.1l-0.15,2.05l-4,1l-0.45,2.1c1.2,1,1.35,1.55,0.45,1.65c-0.567,0.034-1.333,0.284-2.3,0.75l-1.3,0.65
	l-2.85,1.9l-3.7,0.7l-1.35,3.2L138.55,9.65z M202.7,56.7l0.3-0.05h-0.2C202.767,56.65,202.733,56.667,202.7,56.7z M211.8,21.35
	l-2.95,1.25c-0.833,0.733-1.916,1.167-3.25,1.3l-4.05,0.4c-0.967,0.067-2.217,0.633-3.75,1.7l-8.399,5.85l1.25-4.9
	c0.199-0.833,0.783-1.517,1.75-2.05c0.5-0.233,1.166-0.566,2-1c0.633-0.5,2.133-1.517,4.5-3.05l9.05-0.85L211.8,21.35z M210.75,1.45
	l8.3-0.45l1.2,1.6c-2.6,0.9-4.566,1.65-5.9,2.25c-0.899,0.4-1.6,0.983-2.1,1.75c-0.434,0.7-0.634,1.333-0.6,1.9
	c0.033,0.467-0.184,1.6-0.65,3.4c-0.434,1.8-0.8,3.083-1.1,3.85c-0.2,0.6-0.483,0.75-0.851,0.45l-0.55-0.7l-2.25-6.9l4.4-7.05v-0.1
	H210.75z M211.9,44.9c1.3,0.133,2,0.3,2.1,0.5c-0.667,0.833-2.816,1.483-6.45,1.949c-3.767,0.5-6.116,1.184-7.05,2.051
	c-0.667,0.6-1.283,1.183-1.85,1.75C197.55,52.316,197,53.1,197,53.5c0,0.3,0.517,0.866,1.55,1.7l4.7,0.25
	c0.1,0.133,0.684,0.633,1.75,1.5c0,0.3-0.083,0.55-0.25,0.75c-4.3,0.133-7.917,0.399-10.85,0.8c0.933-0.2,1.916-0.4,2.949-0.6
	c-0.833,0.066-1.449,0.149-1.85,0.25c-1.866,0.399-3.45,0.916-4.75,1.55c-1.5,0.7-2.684,1.25-3.55,1.649
	c-1.566,0.733-2.467,1.25-2.7,1.551c-0.366-0.101-0.634-0.217-0.8-0.351c-0.7,0.5-1.351,0.884-1.95,1.15
	c-0.134-0.033-0.2-0.066-0.2-0.101c-0.033-0.033-0.05-0.316-0.05-0.85c0-0.467,0.6-1.634,1.8-3.5c1.467-2.2,2.867-3.566,4.2-4.1
	c-0.3-0.233-0.517-0.417-0.65-0.551c-0.233-0.267-0.35-0.666-0.35-1.199c0-0.301,0.75-1.067,2.25-2.301
	c1.7-1.366,3.6-2.616,5.7-3.75c6.133-3.267,11.483-4.149,16.05-2.649L211.9,44.9z M203,45.9l1-0.25
	c-0.434,0.066-0.85,0.149-1.25,0.25H203z M177.7,0.1c-0.334,1.333-1.316,2.883-2.95,4.65l-0.1,2.7l-0.851,1.4l-2.95,1.35l-1.649,4.5
	L168.6,8c0.834-0.533,1.601-1.85,2.301-3.95l4.5-3.4L177.7,0.1z M171.1,20.6c0.2-0.267,0.4-0.5,0.601-0.7
	c2.3-2.033,3.55-3.383,3.75-4.05l1,3.95l-3.05,7.7c-0.467-0.733-0.917-1.517-1.351-2.35c-0.967-1.633-1.467-2.667-1.5-3.1
	C170.517,21.617,170.7,21.133,171.1,20.6z M181.8,36.8c-0.233,0.4-0.366,0.917-0.399,1.55c-0.301,1.167-0.634,2.683-1,4.55
	c-1.101,3-3.233,4.5-6.4,4.5l-5.95-0.2c-0.366-0.2-0.717-0.45-1.05-0.75c0.533-1.3,2.8-3.25,6.8-5.85c0.167-0.1,0.334-0.2,0.5-0.3
	c0.367-0.167,0.733-0.4,1.101-0.7c1.8-1.2,3.916-2.583,6.35-4.15L182,36C181.934,36.2,181.866,36.467,181.8,36.8z M180.3,37.2
	c0-0.067,0-0.15,0-0.25l-0.25,0.2L180.3,37.2z M198.1,56.5c0.567-0.066,1.134-0.116,1.7-0.15l-1.75-0.149L198.1,56.5z M173.15,56.65
	c0.1,0,0.149,0.25,0.149,0.75c0,1.267-0.6,2.966-1.8,5.1c-1.5,2.6-3.167,3.9-5,3.9c-2.233,0-3.65-0.567-4.25-1.7
	C162.083,63.6,162,63.033,162,63c0-1.366,1.5-2.833,4.5-4.4c2.7-1.433,4.783-2.149,6.25-2.149
	C172.783,56.517,172.917,56.583,173.15,56.65z M122.15,19.4c1.467-0.066,2.633-0.066,3.5,0c1.333,0.067,2.967,0.7,4.9,1.9l-4.65,1.1
	c-0.8,0.2-1.417,0.467-1.85,0.8l-0.4,0.45l-4,0.35c-2.033,0.2-3.816,0.467-5.35,0.8c-0.966,0.233-2.15,0.617-3.55,1.15l-1.7,0.7
	c0.034-0.233,0.117-0.517,0.25-0.85c0.233-0.6,0.517-1.15,0.85-1.65c0.434-0.533,1.65-1.267,3.65-2.2c2-0.9,4.15-1.717,6.45-2.45
	L122.15,19.4z M125,42.4c8.5,0.033,12.833,0.2,13,0.5c-0.067,0.1-1.35,0.417-3.85,0.95c-2.667,0.567-4.467,1.184-5.4,1.851
	c-1.633,0.866-2.883,1.6-3.75,2.2l-4.45-0.2c-0.2-0.033-0.333-0.066-0.4-0.101c-0.1-0.066-0.15-0.35-0.15-0.85
	c0-0.667,0.667-1.467,2-2.4C122.733,43.85,123.733,43.2,125,42.4z M101.95,12.4v1.1c0,0.967-0.083,2.083-0.25,3.35
	c-0.167,1.267-0.55,1.683-1.15,1.25L99.7,17l-2.05-3.9l0.75-1.75c0.567-1.267,1.2-2,1.9-2.2L101.95,12.4z M91.55,35.8
	c1.2-1.167,3.367-2.517,6.5-4.05l1.4-0.25c1.133-0.167,2-0.217,2.6-0.15c0.9,0.133,1.284,0.783,1.15,1.95l0.8,1.25
	c-2.267,0-3.95,0.05-5.05,0.15c-0.7,0.066-2.25,0.716-4.65,1.95l-3.45,1.85l-0.15-1.35L91.55,35.8z M114.35,56.6
	c2.867-2.933,6.083-2.416,9.65,1.551c-0.433,0.8-2.117,1.916-5.05,3.35c-2.934,1.434-4.833,3-5.7,4.7h-2
	c-0.167-0.5-0.25-1.483-0.25-2.95c0-0.566,0.283-1.483,0.85-2.75C112.55,58.9,113.383,57.6,114.35,56.6z M102.2,57.5
	c-1.833,0.8-3.733,1.767-5.7,2.9l-3.75-0.2c-0.167-0.5-0.25-1.316-0.25-2.45c-0.067-0.8-0.1-1.35-0.1-1.65
	c0.033-0.466,0.283-0.833,0.75-1.1c1.033-0.6,4.4-1.116,10.1-1.55c0.1,0.166,0.167,0.283,0.2,0.35c0.033,0.066,0.05,0.384,0.05,0.95
	C103.5,56.083,103.067,57,102.2,57.5z M75.5,11.4c-0.333-0.066-0.683-0.083-1.05-0.05c-0.767,0.066-1.2,0.4-1.3,1
	c-0.1,0.9-0.433,2.05-1,3.45c-0.767,1.467-1.583,2.45-2.45,2.95c-1.9,1.267-3.4,2.1-4.5,2.5c-0.567,0.167-1.217,0.65-1.95,1.45
	l-0.9,1.1l-2.75-1.4l2.4-2.6l1.45-2.85l2.5-2.25l4.25-2.45L72.85,9l2.75,0.1L75.5,11.4z M38.15,29.3l-6.15-1l1.35-0.45l2.25-1.25
	l0.9-0.2c0.7-0.2,1.383-0.333,2.05-0.4c1.1-0.1,2.917-0.15,5.45-0.15c1.333-0.133,2.817,0.183,4.45,0.95c-1,0.2-1.9,0.367-2.7,0.5
	c-0.867,0.1-1.633,0.184-2.3,0.25c-0.833,0.067-1.967,0.4-3.4,1L38.15,29.3z M22.95,34.1c2.933,0.033,4.45,0.133,4.55,0.3
	c-0.2,0.133-0.417,0.267-0.65,0.4c-0.867,0.467-1.917,0.9-3.15,1.3c-1.733,0.533-3.017,0.95-3.85,1.25
	c-2.9,1.066-4.684,2.917-5.35,5.55c-0.833-0.5-1.417-1-1.75-1.5c-0.267-0.533-0.517-0.95-0.75-1.25v-5.7l3-0.3
	c0-0.133,2.05-0.167,6.15-0.1C21.783,34.05,22.383,34.067,22.95,34.1z M57.5,48.65c-6.4,5.833-9.733,8.75-10,8.75
	c-0.833,0-1.333-0.483-1.5-1.45c0-0.967,0-1.483,0-1.55c0-0.534,0.333-1.434,1-2.7c0.767-1.434,1.65-2.634,2.65-3.601
	C52.483,45.333,55.1,45.517,57.5,48.65z M64.5,48.2c-1.033,0-1.767-0.65-2.2-1.95c-0.2-1.333-0.3-2.033-0.3-2.1
	c0-1.234,0.7-2.567,2.1-4c2.133-2.267,5.183-2.833,9.15-1.7L73.5,39c-2.233,1.9-3.9,3.35-5,4.35c-2,1.801-3,3.317-3,4.551
	C65.667,48.1,65.333,48.2,64.5,48.2z M70.6,39.65l-0.05,0.3l0.75-0.3H70.6z M21.25,28.95l1.05-0.3
	c0.934-0.167,1.817-0.183,2.65-0.05c0.867,0.133,1.833,0.95,2.9,2.45c-1.567-0.1-2.783,0.017-3.65,0.35
	c-0.434,0.133-0.934,0.217-1.5,0.25c-0.233,0.033-0.467,0.05-0.7,0.05h-1.15L21.25,28.95z M13.4,54.9c0.367,0,0.733,0.017,1.1,0.05
	c-0.033,0.3-0.067,0.517-0.1,0.649c-0.1,0.5-0.316,0.867-0.65,1.101c-0.067-0.033-0.133-0.05-0.2-0.05L13.4,54.9z"/>
<path style="fill-rule:evenodd;clip-rule:evenodd;fill:#5B554D;" d="M270.55,50.25c-0.066,0-0.149-0.033-0.25-0.1
	c-1-0.367-1.283-1.117-0.85-2.25c0.5-1.067,1.233-1.601,2.2-1.601c0.933,0,1.666,0.351,2.199,1.05c0.267,0.301,0.467,0.7,0.601,1.2
	c-0.467-1.3-1.351-1.95-2.65-1.95c-0.899,0-1.566,0.517-2,1.551C269.366,49.15,269.616,49.85,270.55,50.25z M242.55,23.2
	c0.134,0.233,0.2,0.5,0.2,0.8c0,0.033,0,0.083,0,0.15c-0.366-0.9-1.65-1.2-3.85-0.9c-1.101,0.167-2.051,0.6-2.851,1.3l-0.85,1
	l1.35,1.85c0.634,0.6,1.334,0.917,2.101,0.95c-0.601,0.1-1.184,0.017-1.75-0.25c-0.434-0.2-0.851-0.5-1.25-0.9l-1.5-2.2l0.949-1.15
	c0.9-0.867,1.967-1.383,3.2-1.55C240.634,21.933,242.05,22.233,242.55,23.2z M199.65,12.9c0.533,0.5,0.767,1.05,0.699,1.65
	c-0.133-0.566-0.649-1.033-1.55-1.4c-1.533-0.7-2.649-0.8-3.35-0.3c-0.566,0.433-0.733,1.167-0.5,2.2
	c0.233,0.934,0.616,1.534,1.149,1.8c0.267,0.133,0.601,0.217,1,0.25c-0.5,0.066-0.916,0.083-1.25,0.05
	c-0.233-0.066-0.433-0.15-0.6-0.25c-0.6-0.4-1.05-1.2-1.35-2.4c-0.301-1.333-0.101-2.283,0.6-2.85c0.833-0.633,2.134-0.517,3.9,0.35
	C198.934,12.267,199.35,12.567,199.65,12.9z M169.85,38.9c-0.666-0.433-1.433-1-2.3-1.7c-0.866-0.7-0.75-1.7,0.351-3
	c1.066-1.267,2.366-1.967,3.899-2.1c0.533-0.067,1.066,0.233,1.601,0.9c0.3,0.367,0.6,0.867,0.899,1.5
	c0.434,0.867,0.65,1.65,0.65,2.35c-0.066-0.5-0.267-1.067-0.601-1.7c-0.733-1.467-1.483-2.167-2.25-2.1
	c-1.399,0.133-2.6,0.75-3.6,1.85c-1,1.133-1.083,2-0.25,2.6c1.233,0.967,2.2,1.583,2.9,1.85c0.333,0.1,0.633,0.183,0.899,0.25
	c-0.399,0-0.85-0.1-1.35-0.3C170.434,39.2,170.15,39.067,169.85,38.9z M135.6,35.45c0.1,0.3,0.167,0.667,0.2,1.1
	c-0.2-1.133-1.017-1.566-2.45-1.3c-0.8,0.133-1.483,0.567-2.05,1.3l-0.6,1.05l1.3,1.55c0.8,0.767,1.483,1.1,2.05,1
	c-0.267,0.1-0.55,0.083-0.85-0.05c-0.434-0.167-0.934-0.517-1.5-1.05l-1.35-1.8L131,36.1c0.6-0.833,1.317-1.317,2.15-1.45
	C134.45,34.383,135.267,34.65,135.6,35.45z M122.35,36.85c-0.033-0.067-0.083-0.133-0.15-0.2c-0.733-0.933-1.65-0.933-2.75,0
	c-1.067,0.9-1.233,1.717-0.5,2.45c0.167,0.167,0.333,0.283,0.5,0.35c-0.267-0.067-0.534-0.217-0.8-0.45
	c-0.767-0.833-0.583-1.75,0.55-2.75s2.117-0.983,2.95,0.05c0.033,0.034,0.067,0.083,0.1,0.15
	C122.283,36.55,122.317,36.683,122.35,36.85z M105.5,65.1c0,0.267-0.083,0.534-0.25,0.801c0,0.033-0.017,0.083-0.05,0.149
	c0.133-0.967-0.817-1.866-2.85-2.7c-1.067-0.433-2.117-0.533-3.15-0.3L98,63.5l0.2,2.25c0.233,0.866,0.683,1.483,1.35,1.85
	c-0.566-0.199-1.033-0.55-1.4-1.05c-0.267-0.399-0.483-0.883-0.65-1.45l-0.2-2.649l1.45-0.5c1.2-0.3,2.367-0.2,3.5,0.3
	C104.483,63.083,105.567,64.033,105.5,65.1z M51.9,17.9c0.3,0.4,0.434,0.833,0.4,1.3c0,0.066,0,0.15,0,0.25
	c-0.3-0.633-1.066-1.083-2.3-1.35c-1.433-0.333-2.7-0.017-3.8,0.95c-1.067,0.967-1.284,1.817-0.65,2.55
	c0.7,0.867,1.583,1.467,2.65,1.8c0.267,0.067,0.533,0.133,0.8,0.2c-0.633,0.1-1.333,0.033-2.1-0.2c-0.5-0.133-0.933-0.3-1.3-0.5
	c-0.8-0.433-1.483-1.017-2.05-1.75c-0.833-1-0.566-2.133,0.8-3.4c1.066-0.967,2.25-1.417,3.55-1.35c0.4,0,0.833,0.05,1.3,0.15
	C50.5,16.883,51.4,17.333,51.9,17.9z"/>
<path style="fill-rule:evenodd;clip-rule:evenodd;fill:#514C45;" d="M270.6,50.25h-0.05c-0.934-0.4-1.184-1.1-0.75-2.1
	c0.434-1.034,1.101-1.551,2-1.551c1.3,0,2.184,0.65,2.65,1.95c0,0.033,0.017,0.084,0.05,0.15c0.1,0.3,0.167,0.583,0.2,0.85
	c0.066,0.434,0.1,0.851,0.1,1.25c-1.2,0.101-2.35,0-3.45-0.3l-0.25-0.05C270.934,50.384,270.767,50.316,270.6,50.25z M242.75,24.15
	c0.033,0.133,0.066,0.3,0.1,0.5c0,1.2-0.883,2.283-2.649,3.25c-0.533,0.3-1.05,0.45-1.55,0.45c-0.767-0.033-1.467-0.35-2.101-0.95
	l-1.35-1.85l0.85-1c0.8-0.7,1.75-1.133,2.851-1.3C241.1,22.95,242.384,23.25,242.75,24.15z M200.35,14.55
	c0.067,0.167,0.084,0.35,0.051,0.55c-0.101,0.767-0.717,1.35-1.851,1.75c-0.533,0.167-1.017,0.25-1.45,0.25
	c-0.399-0.033-0.733-0.117-1-0.25c-0.533-0.267-0.916-0.867-1.149-1.8c-0.233-1.033-0.066-1.767,0.5-2.2c0.7-0.5,1.816-0.4,3.35,0.3
	C199.7,13.517,200.217,13.983,200.35,14.55z M172.05,39.6c-0.267-0.067-0.566-0.15-0.899-0.25c-0.7-0.267-1.667-0.883-2.9-1.85
	c-0.833-0.6-0.75-1.467,0.25-2.6c1-1.1,2.2-1.717,3.6-1.85c0.767-0.066,1.517,0.633,2.25,2.1c0.334,0.633,0.534,1.2,0.601,1.7
	c0.033,0.733-0.217,1.367-0.75,1.9C173.6,39.35,172.884,39.633,172.05,39.6z M135.8,36.55v0.05c0,0.133,0,0.267,0,0.4
	c0,1.3-0.466,2.283-1.4,2.95c-0.1,0.066-0.217,0.133-0.35,0.2c-0.566,0.1-1.25-0.233-2.05-1l-1.3-1.55l0.6-1.05
	c0.567-0.733,1.25-1.167,2.05-1.3C134.783,34.983,135.6,35.417,135.8,36.55z M122.35,36.85c0.2,0.433-0.133,1.066-1,1.9
	c-0.667,0.633-1.267,0.883-1.8,0.75c-0.033-0.033-0.066-0.05-0.1-0.05c-0.167-0.067-0.333-0.184-0.5-0.35
	c-0.733-0.733-0.567-1.55,0.5-2.45c1.1-0.933,2.017-0.933,2.75,0C122.267,36.717,122.317,36.783,122.35,36.85z M105.2,66.05
	c-0.034,0.134-0.083,0.283-0.15,0.45c-0.6,1.033-1.917,1.55-3.95,1.55c-0.6-0.033-1.117-0.184-1.55-0.45
	c-0.667-0.366-1.117-0.983-1.35-1.85L98,63.5l1.2-0.45c1.033-0.233,2.083-0.133,3.15,0.3C104.383,64.184,105.333,65.083,105.2,66.05
	z M52.3,19.45c0.067,0.233,0.1,0.466,0.1,0.7c0,0.6-0.5,1.467-1.5,2.6c-0.467,0.6-1.1,0.883-1.9,0.85
	c-0.267-0.067-0.533-0.133-0.8-0.2c-1.067-0.333-1.95-0.933-2.65-1.8c-0.633-0.733-0.417-1.583,0.65-2.55
	c1.1-0.966,2.367-1.283,3.8-0.95C51.233,18.367,52,18.817,52.3,19.45z M31.75,23.1c-0.067-0.067-0.133-0.117-0.2-0.15
	c-1.367-0.667-1.6-1.45-0.7-2.35c0.9-0.867,1.95-1.067,3.15-0.6c0.467,0.2,0.783,0.483,0.95,0.85c0.133,0.367,0.017,0.85-0.35,1.45
	C33.933,23.367,32.983,23.633,31.75,23.1z"/>
</svg>
