<?xml version="1.0" encoding="iso-8859-1"?>
<!-- Generator: Adobe Illustrator 15.1.0, SVG Export Plug-In . SVG Version: 6.00 Build 0)  -->
<!DOCTYPE svg PUBLIC "-//W3C//DTD SVG 1.1//EN" "http://www.w3.org/Graphics/SVG/1.1/DTD/svg11.dtd">
<svg version="1.1" id="FlashAICB" xmlns="http://www.w3.org/2000/svg" xmlns:xlink="http://www.w3.org/1999/xlink" x="0px" y="0px"
	 width="581.1px" height="82.1px" viewBox="0 0 581.1 82.1" style="enable-background:new 0 0 581.1 82.1;" xml:space="preserve">
<g>
	<path style="fill-rule:evenodd;clip-rule:evenodd;fill:#613A22;" d="M578.2,0.55c2.033,0.4,3,1.983,2.899,4.75L580.45,56.4
		c0,3.466,0.033,8.383,0.1,14.75c0,4.899-0.133,7.933-0.399,9.1c-0.566,0.667-1.667,0.733-3.301,0.2
		c-1.199,1.5-4.5,1.983-9.899,1.45c-5.101-0.467-8.483-1.334-10.15-2.601c-1.3-1.033-3.716-2.017-7.25-2.95l-4.85-1.1
		c-1.067,0.134-2.351,0.233-3.851,0.3c-2.967,0.134-5.516,0.033-7.649-0.3s-3.95-1.634-5.45-3.9l-1.6-3.35
		c-9.367,0.533-14.9,0.533-16.601,0c-1.066-0.333-2.667-0.566-4.8-0.7l-2.9-0.1L491,62.35c-1.367,0-2.983-0.066-4.85-0.199
		c-3.733-0.267-6.801-0.733-9.2-1.4c-2.4-0.667-4.4-2.2-6-4.6l-1.7-3.45h-6.4c-7.666-1.066-12.133-1.867-13.399-2.4
		c-0.9-0.399-2.283-0.783-4.15-1.149c-1.767-0.334-3.149-0.5-4.149-0.5H420.7c-3,1.633-7.684,3.25-14.05,4.85
		c-3.867,0.967-7.95,0.2-12.25-2.3c-3.768-2.767-6.084-4.15-6.95-4.15c-1.067,0-3.733,0.55-8,1.65l-6.05,1.6l-10.851-0.85
		c-0.633,0.533-1.533,1.05-2.7,1.55c-2.366,0.934-4.883,1.233-7.55,0.9c-2.667-0.334-5.583-1.767-8.75-4.301l-4-3.75l-8.95,2.4
		l-7.699,0.8l-14.7-0.8c-3.833,1.066-8.733,2.134-14.7,3.2c-3.733,0.7-7.617,1.184-11.65,1.45L276.9,51.1
		c-5.101,2.667-8.717,4.534-10.851,5.601c-1.333,0.7-3.333,1.316-6,1.85l-3.6,0.601c-2.867-0.534-5.8-1.167-8.8-1.9
		c-5.967-1.5-9.217-2.75-9.75-3.75c-0.534-1-2.184-2.366-4.95-4.1l-4-2.351c-0.634,0.267-1.483,0.5-2.55,0.7
		c-2.134,0.4-4.267,0.434-6.4,0.1c-2.133-0.333-4.15-1.233-6.05-2.699L211.7,43c-8.1,3.767-14.067,6.467-17.9,8.1
		c-2.399,1-5.466,1.567-9.2,1.7l-4.85-0.1c-2.133,3.233-4.684,6.45-7.65,9.649c-1.867,2.034-4.034,2.917-6.5,2.65l-3.1-1h-5.75
		c-2.667,0-6.083-1.083-10.25-3.25c-3.7-1.9-6.467-3.783-8.3-5.65c-1.7-1.699-4.15-2.6-7.35-2.699
		c-3.467-0.101-7.183,0.8-11.15,2.699c-3.467,1.7-6.434,2.617-8.9,2.75l-2.6-0.3l-3.2,4.8c-4.7,1.101-8.333,1.367-10.9,0.801
		c-0.6-0.134-2.75-0.967-6.45-2.5c-2.601-1.101-4.284-1.334-5.05-0.7c-0.967,0.8-2.933,1.366-5.9,1.7c-3,0.333-5.934,0.3-8.8-0.101
		c-2.3-0.333-5.017-0.166-8.15,0.5c-2.867,0.733-4.617,1.101-5.25,1.101c-0.8,0-3.184,0.816-7.15,2.449L41.7,68
		c-0.733,0.533-1.667,1.083-2.8,1.65c-2.233,1.066-4.284,1.6-6.15,1.6H27c-5.1,2.134-8.283,3.733-9.55,4.8
		c-1.067,1.233-1.95,2.117-2.65,2.65c-1.233,0.934-2.917,1.399-5.05,1.399S5.7,79.483,4,78.25l-1.95-1.9
		c0-1.767-0.316-4.316-0.95-7.649c-0.633-3.4-0.95-7.5-0.95-12.3L0,14.95c0-6.8,0.3-10.9,0.9-12.3C1.6,0.883,3.633,0,7,0h558.6
		C569.867,0.233,574.066,0.417,578.2,0.55z"/>
	<g>
		<path style="fill-rule:evenodd;clip-rule:evenodd;fill:#6D4126;" d="M227.9,44.5c0.7,1.134,1.05,1.983,1.05,2.55
			c-0.634,0.267-1.483,0.5-2.55,0.7c-2.134,0.4-4.267,0.434-6.4,0.1c-2.133-0.333-4.15-1.233-6.05-2.699L211.7,43l2.5-0.45
			c1.866-0.267,3.233-0.283,4.1-0.05c1.434,0.333,4.284,0.5,8.55,0.5L227.9,44.5z"/>
		<path style="fill-rule:evenodd;clip-rule:evenodd;fill:#6D4126;" d="M167.2,58.05c1.467,0,3-0.916,4.6-2.75
			c1.767-2,2.784-3.05,3.05-3.149c1.133-0.367,2.767-0.184,4.9,0.55c-2.133,3.233-4.684,6.45-7.65,9.649
			c-1.867,2.034-4.034,2.917-6.5,2.65l-3.1-1h-5.75c-2.667,0-6.083-1.083-10.25-3.25c-3.7-1.9-6.467-3.783-8.3-5.65
			c-1.7-1.699-4.15-2.6-7.35-2.699c-3.467-0.101-7.183,0.8-11.15,2.699c-3.467,1.7-6.434,2.617-8.9,2.75l-2.6-0.3l-3.2,4.8
			c-4.7,1.101-8.333,1.367-10.9,0.801c-0.6-0.134-2.75-0.967-6.45-2.5c-2.601-1.101-4.284-1.334-5.05-0.7
			c-0.967,0.8-2.933,1.366-5.9,1.7c-3,0.333-5.934,0.3-8.8-0.101c-2.3-0.333-5.017-0.166-8.15,0.5
			c-2.867,0.733-4.617,1.101-5.25,1.101c-0.8,0-3.184,0.816-7.15,2.449L41.7,68c-0.733,0.533-1.667,1.083-2.8,1.65
			c-2.233,1.066-4.284,1.6-6.15,1.6H27c-5.1,2.134-8.283,3.733-9.55,4.8c-1.067,1.233-1.95,2.117-2.65,2.65
			c-1.233,0.934-2.917,1.399-5.05,1.399c-1.667,0-3.2-0.383-4.6-1.149c1.8-0.467,3.116-1.167,3.95-2.101
			c2.3-2.466,3.517-3.783,3.65-3.949c0.9-1.2,1.25-2.384,1.05-3.551c-0.167-1.133-0.283-2.55-0.35-4.25L13.4,62.9L16.8,68.3
			l1.7,3.75l1.65-1.35c1.2-1.066,2.066-2.05,2.6-2.95c0.867-1.434,1.434-3.767,1.7-7l3.4,5.4h4.7c1.867,0,4.434-0.434,7.7-1.301
			c4.167-1.1,7.283-2.466,9.35-4.1c1.966-1.566,3.833-2.75,5.6-3.55c0.866-0.4,1.55-0.65,2.05-0.75l1.7-4.3l2.55-3.75l-0.1,2.35
			c0.166,1.7,0.783,2.884,1.85,3.55c0.867,0.533,2.083,1.367,3.65,2.5c1.399,0.834,2.733,1.25,4,1.25c1.166,0,2.183-0.1,3.05-0.3
			c1.566-0.4,2.683-0.65,3.35-0.75c1.434-0.233,2.717-0.85,3.851-1.85c0.566-0.467,0.983-0.934,1.25-1.4l2.1,0.6
			c1.467,0.467,2.467,0.817,3,1.051c0.434,0.166,1.217,0.583,2.35,1.25c1.2,0.6,2.417,0.899,3.65,0.899c0.934,0,1.8-0.184,2.6-0.55
			c0.767-0.366,1.733-0.55,2.9-0.55c1.434,0,3-0.617,4.7-1.851c0.866-0.633,1.583-1.267,2.15-1.899l2.95-3.25l3.601,1.1
			c2.466,0.7,3.966,1.05,4.5,1.05c0.866,0,2.866-0.716,6-2.149l6.25-0.15c4.399-0.166,7.133-0.467,8.2-0.899
			c1.067-0.467,2.95-0.784,5.65-0.95c1.367-0.101,2.617-0.15,3.75-0.15l-0.7,0.7c-0.2,0.7,0.317,1.733,1.55,3.1
			c3.5,3.801,6.617,5.95,9.35,6.45C158.95,57.884,162.367,58.05,167.2,58.05z"/>
		<path style="fill-rule:evenodd;clip-rule:evenodd;fill:#6D4126;" d="M341.5,37.15c1.167-0.667,2.434-1.4,3.8-2.2
			c0.833-0.367,2.667-0.9,5.5-1.6c-0.267,2.133-0.833,3.566-1.7,4.3c-0.133,0.1-0.85,0.483-2.149,1.15
			c-0.833,0.4-1.25,0.917-1.25,1.55c0,1.233,0.017,1.917,0.05,2.05c0.2,0.666,0.75,1.233,1.65,1.699l6.399,3.2l2.351-1.6
			c1.699-1.066,2.899-1.601,3.6-1.601c1.133,0,2.417-0.183,3.85-0.55l0.301,6l-1.351-0.1c-0.633,0.533-1.533,1.05-2.7,1.55
			c-2.366,0.934-4.883,1.233-7.55,0.9c-2.667-0.334-5.583-1.767-8.75-4.301l-4-3.75l-8.95,2.4l-7.699,0.8l-14.7-0.8
			c-3.833,1.066-8.733,2.134-14.7,3.2c-3.733,0.7-7.617,1.184-11.65,1.45L276.9,51.1c-5.101,2.667-8.717,4.534-10.851,5.601
			c-1.333,0.7-3.333,1.316-6,1.85l-3.6,0.601c-2.867-0.534-5.8-1.167-8.8-1.9c-5.967-1.5-9.217-2.75-9.75-3.75
			c-0.3-0.566-1.034-1.316-2.2-2.25c1.467,0.3,2.767,0.6,3.9,0.9l3.3,0.6c2.566,0.467,4.733,0.8,6.5,1
			c1.433,0.2,2.899,0.634,4.399,1.3c1.3,0.367,2.967,0.117,5-0.75c3.101-1.3,5.483-2.399,7.15-3.3c2.3-1.233,4.033-2.467,5.2-3.7
			c1.066-1.1,1.666-3.033,1.8-5.8l-0.1-3.85l1.55,2.55c1.366,1.8,2.833,2.916,4.399,3.35c1.3,0.367,2.634,0.767,4,1.2
			c1.101,0.267,2.75,0.4,4.95,0.4c1.733,0,3.434,0.116,5.1,0.35c1.4,0.066,3.4-0.217,6-0.85l6.4-1.65L298,37.1l4.05,0.85
			c2.833,0.633,4.601,1.066,5.3,1.3c2.268,0.733,4.967,1.1,8.101,1.1c1.433,0,4.767,0.033,10,0.1c4.899,0,8.25-0.217,10.05-0.65
			C337.233,39.367,339.233,38.483,341.5,37.15z"/>
		<path style="fill-rule:evenodd;clip-rule:evenodd;fill:#6D4126;" d="M193.8,51.1c2.833-2.533,5.601-4.149,8.3-4.85
			c1.433-0.366,4.633-1.45,9.6-3.25C203.6,46.767,197.633,49.467,193.8,51.1z"/>
		<path style="fill-rule:evenodd;clip-rule:evenodd;fill:#6D4126;" d="M580.15,80.25c-0.566,0.667-1.667,0.733-3.301,0.2l0.25-0.65
			C577.566,79.5,578.584,79.65,580.15,80.25z"/>
		<path style="fill-rule:evenodd;clip-rule:evenodd;fill:#6D4126;" d="M432.2,39.25l-11.5,9.4c-3,1.633-7.684,3.25-14.05,4.85
			c-3.768,0.967-7.717,0.267-11.851-2.1c-3.767-2.667-6.116-4.101-7.05-4.301c0.566-0.6,0.9-1.066,1-1.399l2.85-0.15
			c2.134,0,3.734,0.233,4.801,0.7c1.699,0.7,4.116,0.884,7.25,0.55l5.5-0.7c3.899-0.533,6.467-1.017,7.699-1.449L432.2,39.25z"/>
		<path style="fill-rule:evenodd;clip-rule:evenodd;fill:#6D4126;" d="M526.45,62.2c0.1,0.133,0.783-0.167,2.05-0.9
			c2.533-1.434,6.934-2.866,13.2-4.3c-0.767,1-1.5,2.066-2.2,3.2c-1.333,2.333-1.733,3.95-1.2,4.85l1.25,2.15l9.8,2.7l5.351-0.15
			c3.7-0.167,5.899-0.483,6.6-0.95c1.134-0.7,3.4-1.583,6.8-2.649c-1.967,2.866-3.383,4.649-4.25,5.35l-4.25,3.25l1.7,0.65
			c1.267,0.533,2.267,1.033,3,1.5c0.733,0.466,1.567,0.8,2.5,1c0.601,0.133,1.75,0.333,3.45,0.6c2,0.366,4.2,1.017,6.6,1.95
			c-1.199,1.5-4.5,1.983-9.899,1.45c-5.101-0.467-8.483-1.334-10.15-2.601c-1.3-1.033-3.716-2.017-7.25-2.95l-4.85-1.1
			c-1.067,0.134-2.351,0.233-3.851,0.3c-2.967,0.134-5.516,0.033-7.649-0.3s-3.95-1.634-5.45-3.9l-1.6-3.35
			c-9.367,0.533-14.9,0.533-16.601,0c-1.066-0.333-2.667-0.566-4.8-0.7l-2.9-0.1L491,62.35c-1.367,0-2.983-0.066-4.85-0.199
			c-3.733-0.267-6.801-0.733-9.2-1.4c-2.4-0.667-4.4-2.2-6-4.6l-1.7-3.45h-6.4c-7.666-1.066-12.133-1.867-13.399-2.4
			c-0.434-0.2-1.2-0.45-2.3-0.75c2.399-0.767,4.232-1.149,5.5-1.149c1.199,0,2.517,0.1,3.949,0.3c1.434,0.166,2.533,0.25,3.301,0.25
			c1.699,0,3.55-0.184,5.55-0.55V43l4.55,2.85c3.267,1.967,5.434,3.167,6.5,3.601c1.334,0.566,2.217,0.883,2.65,0.95
			c0.666,0.1,2.633,0.149,5.899,0.149h10.2v3.75l1.75,0.3c1.367,0.167,2.483,0.25,3.35,0.25c1.467,0,2.834,0.184,4.101,0.551
			c1.733,0.466,2.783,1.183,3.149,2.149c0.434,1.066,1.2,1.9,2.301,2.5c1.066,0.566,2.583,0.983,4.55,1.25
			c1.267,0.2,2.717,0.417,4.35,0.65c1.3,0.133,2.967,0.1,5-0.101C525.367,61.684,526.25,61.8,526.45,62.2z"/>
	</g>
	<path style="fill-rule:evenodd;clip-rule:evenodd;fill:#55351E;" d="M27,46.25c0,1.066,0.15,3.033,0.45,5.9l-3,5.899L21.9,54.3V50
		l-3.4-4.85L5.7,43.55l5-1.3c3.566-0.8,5.883-1.083,6.95-0.85c1.7,0.367,3.683,1.45,5.95,3.25l1.7,0.199
		C26.434,45.116,27,45.583,27,46.25z"/>
	<path style="fill-rule:evenodd;clip-rule:evenodd;fill:#55351E;" d="M86.4,39.85c0.333,0.333,0.85,0.85,1.55,1.55
		c0.533,0.467,0.583,1.117,0.15,1.95c-0.667,1.034-1.15,1.817-1.45,2.351c-0.5,1-0.867,1.717-1.101,2.149
		c-0.433,0.767-0.917,1.483-1.45,2.15c-0.534,0.667-1.25,0.417-2.15-0.75L80.7,47.3l-1.3-3.2c-1.967-0.733-4.233-1.633-6.8-2.7
		c-1.567-0.633-2.633-0.816-3.2-0.55c-0.567,0.566-1.2,0.933-1.9,1.1L63.25,43l3.8-4.8l2.101-1.35c1.466-0.9,2.466-1.35,3-1.35
		c0.866,0,2.149,0.183,3.85,0.55l8.55,2.7C85.217,38.95,85.833,39.317,86.4,39.85z"/>
	<path style="fill-rule:evenodd;clip-rule:evenodd;fill:#55351E;" d="M171,48.4l3.85,3.75c-0.267,0.199-0.75,0.383-1.45,0.55
		c-1.334,0.366-2.983,0.55-4.95,0.55h-2.55c-1.034,0-1.851-0.333-2.45-1c-0.634-0.967-1.233-1.717-1.8-2.25
		c-0.7-0.667-1.55-1.75-2.55-3.25l-1.3-2.1L156.1,43c-0.7-0.667-2.75-1.667-6.15-3l-4.9-1.8h10.2c1.6,0,2.917,0.4,3.95,1.2
		c0.566,0.467,1.233,1.133,2,2c0.433,0.367,0.983,0.75,1.65,1.15c0.567,0.4,1.017,0.917,1.35,1.55c0.6,1.134,1.267,1.983,2,2.551
		C167.333,47.583,168.934,48.167,171,48.4z"/>
	<path style="fill-rule:evenodd;clip-rule:evenodd;fill:#55351E;" d="M263.05,28l-3,4.3l-0.2,0.5c-0.133,0.534-0.2,1.25-0.2,2.15
		v5.4c-0.867,2.133-1.717,3.383-2.55,3.75c-0.3,0.134-0.933,0.567-1.9,1.301c-0.8,0.566-1.45,0.85-1.95,0.85
		c-0.533,0-1.333-0.184-2.4-0.55l-1.45-0.55c-0.067,0.267-0.217,0.566-0.45,0.899c-0.5,0.634-1.2,1.05-2.1,1.25
		c-0.867,0.233-2.05,0.4-3.55,0.5l-2,0.05l-2.55-1.6l-1.7-2.15l-1.25-4.3l-4.7,1.05L228.55,43c-2,0.366-3.7,0.55-5.1,0.55
		c-1.333,0-3.467-0.35-6.4-1.05c-0.899-0.233-2.066-0.217-3.5,0.05L211.7,43l5.75-3.75l1.3-3.2l2-1.75
		c1.566-1.267,2.883-2.117,3.95-2.55c0.866-0.367,1.983-0.867,3.35-1.5c1.233-0.433,2.667-0.65,4.3-0.65l22.6-0.55L263.05,28z"/>
	<path style="fill-rule:evenodd;clip-rule:evenodd;fill:#55351E;" d="M289.45,31.75c0.899,0,1.733,0.367,2.5,1.1
		c0.399,0.333,0.7,0.683,0.899,1.05l3.851,3.2l-1.25,1.65c-0.533,0.667-1.101,0.95-1.7,0.85c-0.733-0.233-1.316-0.35-1.75-0.35h-6.8
		c-0.667,0-1.65-0.283-2.95-0.85c-1.833-0.8-2.833-1.233-3-1.3c-1.4-0.4-2.4-2-3-4.8c-0.167-0.9-0.35-1.617-0.55-2.15l-0.3-0.55
		l1-0.8c0.8-0.533,1.466-0.8,2-0.8l3.8-1.65l1,1.05c0.7,0.8,1.233,1.533,1.6,2.2C285.566,31.033,287.117,31.75,289.45,31.75z"/>
	<path style="fill-rule:evenodd;clip-rule:evenodd;fill:#55351E;" d="M339.3,23.7c0.667,0,1.8,0.216,3.4,0.65
		c1.6,0.467,3.033,0.967,4.3,1.5c1.066,0.433,1.316,1.283,0.75,2.55c-0.3,0.633-0.7,1.217-1.2,1.75h-4.25
		c-0.7,0-1.483,0.083-2.35,0.25l-1.05,0.25c-1.7,0.733-3.117,1.45-4.25,2.15c-0.733,0.467-1.684,0.817-2.851,1.05
		c-1.667,0.233-3.133,0.433-4.399,0.6c-1.601,0.2-2.934,0.083-4-0.35l-1.15-0.75c-2.533-0.7-4.367-1.417-5.5-2.15
		c-0.7-0.434-0.85-1.184-0.45-2.25l0.851-1.5l2.5-0.6c1.8-0.467,2.967-0.8,3.5-1l-5.15-3.8l3-0.5c2.3-0.367,4.15-0.55,5.55-0.55
		c1.434,0,3,0.45,4.7,1.35c0.834,0.467,1.533,0.917,2.1,1.35H339.3z"/>
	<path style="fill-rule:evenodd;clip-rule:evenodd;fill:#55351E;" d="M309.05,24.2h1.7l0.85,1.35c0.434,0.9,0.301,1.35-0.399,1.35
		l-6.4-0.55c-0.5-0.067-1-0.217-1.5-0.45c-1-0.433-1.5-1-1.5-1.7c0-0.633,0.733-0.833,2.2-0.6C306.667,24,308.35,24.2,309.05,24.2z"
		/>
	<path style="fill-rule:evenodd;clip-rule:evenodd;fill:#55351E;" d="M376.8,36.55l4,0.35c2.767,0.267,4.417,0.517,4.95,0.75
		c0.867,0.367,2.434,0.367,4.7,0l0.2,1.55c0.133,1.167,0.199,2.083,0.199,2.75c0,0.767-0.616,1.184-1.85,1.25
		c-1.2,0.1-2.133-0.134-2.8-0.7h-5.15l-5.95,1.6l-4.25-0.55l-2.55-1.05l0.4-3.75l3.25-1.1C374.316,36.917,375.934,36.55,376.8,36.55
		z"/>
	<path style="fill-rule:evenodd;clip-rule:evenodd;fill:#55351E;" d="M351.9,38.45l-1.101-0.8l1.101-1.05
		c0.934-0.733,1.85-1.1,2.75-1.1l2.149,3.75h-2.149C353.75,39.25,352.834,38.983,351.9,38.45z"/>
	<path style="fill-rule:evenodd;clip-rule:evenodd;fill:#55351E;" d="M418.625,32.125c-1.855-0.416-3.713-0.724-5.575-0.925
		c-1.7-0.167-2.55-0.233-2.55-0.2c0,0.133-0.867,0.2-2.6,0.2c-2.134,0-4.551,0.716-7.25,2.15l-3.4,2.15c0.7-0.667-1-1.483-5.1-2.45
		l-6.4-1.3l2.55-2.15c1.867-1.434,3.15-2.15,3.851-2.15c1.133,0,3.267,0.533,6.399,1.6l5.55-2.15h5.95l2.8,1.4
		c2.134,1.167,3.9,2.317,5.301,3.45C418.313,31.879,418.472,32.004,418.625,32.125c1.545,0.334,3.086,0.742,4.625,1.225
		c-0.267,0.2-0.684,0.267-1.25,0.2C420.996,33.491,419.871,33.016,418.625,32.125z"/>
	<path style="fill-rule:evenodd;clip-rule:evenodd;fill:#55351E;" d="M358.5,6l4.05-0.35l1.05,0.85
		c0.734,0.667,1.167,1.283,1.301,1.85c0.1,0.367,0.55,1.217,1.35,2.55c0.7,1.167,1.05,2,1.05,2.5c0,2.033-0.35,4.05-1.05,6.05
		c-0.367,1.2-1.283,2.667-2.75,4.4c-1.7,2-3.467,3.467-5.3,4.4c-1.329,0.651-2.088,1.118-2.275,1.4
		c-0.032-0.019-0.073-0.036-0.125-0.05c-0.333-0.1-0.85-0.567-1.55-1.4c-0.733-0.867-1.333-1.417-1.8-1.65
		c-0.4-0.2-1.15-0.767-2.25-1.7c-1.033-0.867-1.851-1.434-2.45-1.7c-1.7-0.633-2.967-1.217-3.8-1.75c-1.4-0.833-1.15-1.25,0.75-1.25
		c1.833,0,3.399-0.383,4.7-1.15c0.633-0.4,1.083-0.8,1.35-1.2l3.4-3.05l1.75-0.95c1.333-0.767,2.434-1.583,3.3-2.45
		c0.8-0.8,1.017-1.567,0.649-2.3C359.017,7.25,358.566,6.233,358.5,6z"/>
	<path style="fill-rule:evenodd;clip-rule:evenodd;fill:#55351E;" d="M432,13.05l1.6-0.85c1.234-0.667,2.268-1.284,3.101-1.85
		c0.866-0.567,1.066-1.633,0.6-3.2l-0.899-2.2l3.6,2c2.467,1.433,3.85,2.35,4.15,2.75c0.267,0.4,0.416,1.216,0.449,2.45
		c0.067,1.633,0.134,2.617,0.2,2.95c0.233,1.1-0.216,3.117-1.35,6.05l0.35,3.35l0.7,2.15c0.434,1.533,0.65,2.517,0.65,2.95v3.7
		l-0.65,5.05c-1.367,0.233-3.066,0.8-5.1,1.7c-1.066,0.5-1.65,1.017-1.75,1.55c-0.134,1-0.551,1.933-1.25,2.8
		c-1.033,1.333-1.867,2.149-2.5,2.449c-1.033,0.301-2.117,0.617-3.25,0.95c-1.167,0.334-3.018,0.5-5.551,0.5
		c-2.333-0.033-3.8,0.084-4.399,0.351c-0.733,0.366-0.25-0.317,1.45-2.051c2.467-2.466,3.833-3.866,4.1-4.199
		c0.667-0.8,1.816-1.667,3.45-2.601c1.8-1,2.8-1.6,3-1.8c0.667-0.667,1.899-2.583,3.7-5.75l2.699-7.4l0.301-3.05
		c-0.2-2.466-0.301-4.367-0.301-5.7c0-0.867,0.283-1.917,0.851-3.15l0.8-1.6c-2.233,2.033-3.684,3.05-4.35,3.05
		c-0.4,0-0.801,0.067-1.2,0.2l-0.5,0.15c-0.434,1.133-1,2.033-1.7,2.7c-1.333,1.333-3.017,2-5.05,2c-1.134,0-2.317-0.267-3.55-0.8
		l-1.5-0.85l2-0.15c1.467-0.167,2.482-0.467,3.05-0.9C428.85,16.083,430.2,14.85,432,13.05z"/>
	<path style="fill-rule:evenodd;clip-rule:evenodd;fill:#55351E;" d="M508.2,11.7c0,0.033,0.899,0.65,2.7,1.85
		c1.8,1.167,2.699,2.017,2.699,2.55c0,0.9-0.116,3.816-0.35,8.75c1.133,1.367,1.467,2.383,1,3.05c-0.267,0.434-0.733,0.9-1.4,1.4
		l-0.949,0.6c-0.233,0.133-0.467,0.3-0.7,0.5c-0.533,0.4-0.866,0.8-1,1.2c-0.4,1.133-0.65,1.816-0.75,2.05
		c-0.4,0.867-0.817,1.3-1.25,1.3l-6.101-0.3l0.351,2.7v5.35l-2.351,2.7c-1.566,1.6-2.683,2.616-3.35,3.05
		c-0.2,0.133-0.533,0.717-1,1.75c-0.367,0.8-0.934,1.2-1.7,1.2c-0.399,0-2.1-0.25-5.1-0.75c-2.434-0.4-3.733-0.434-3.9-0.101
		c-0.2,0.4-1.417,0.417-3.649,0.05c-2-0.333-3.634-0.716-4.9-1.149c-1.166-0.334-1.983-0.584-2.45-0.75
		c-0.733-0.267-1.383-0.684-1.95-1.25c-0.566-0.566-1.85-1.483-3.85-2.75l-2.8-1.7l6,0.75l2-1.35l2.05-1l2.15,1.9
		c1.732,1.033,3.366,1.066,4.899,0.101c0.767-0.467,1.733-0.5,2.9-0.101c0.566,0.2,1.066,0.45,1.5,0.75l0.6-0.899
		c0.567-0.667,1.267-1.15,2.101-1.45c1.333-0.434,2.684-0.983,4.05-1.65c0.667-1.133,1.116-2.267,1.35-3.4
		c0.134-0.7,0.233-1.7,0.3-3l0.051-1.7l-2.7-3.4h3.7c2.699,0,4.6-0.45,5.699-1.35c0.467-0.367,0.934-1.1,1.4-2.2
		c0.367-0.767,0.917-1.15,1.65-1.15h4.05c0.366,0,0.333-1.233-0.101-3.7c-0.6-3.167-0.899-5.083-0.899-5.75
		c0-1.133-0.384-2.25-1.15-3.35l-1.2-1.35C507.417,10.8,508.2,11.467,508.2,11.7z"/>
	<path style="fill-rule:evenodd;clip-rule:evenodd;fill:#55351E;" d="M522.5,48.4c0.934-0.967,1.9-1.517,2.9-1.65l2.35-0.3h3.35
		l1.351,0.649L528.4,51.4L528.1,59.6l-3.05,1.65c-2.7,0.233-5.066,0.35-7.1,0.35c-0.134,0-1.55,0.301-4.25,0.9
		c-1.601,0.333-2.884,0.033-3.851-0.9c-0.967-0.966-1.816-1.933-2.55-2.899l-0.8-1.15l-3.05-3.7l7.1-1.35h4.7l6.1-2.7L522.5,48.4z"
		/>
	<path style="fill-rule:evenodd;clip-rule:evenodd;fill:#55351E;" d="M458.3,13.4c1.567-2.033,2.351-3.6,2.351-4.7
		c0-0.7-0.167-1.417-0.5-2.15l-0.5-0.9l9.1,4.7l0.35,1.5c0.334,1.066,0.783,1.8,1.351,2.2c0.566,0.434,0.85,1.184,0.85,2.25
		c0,0.567-0.066,1.067-0.2,1.5l-5.699,7.4l-1.351,5.4l-0.35-1c-0.134-0.434-0.684-1.233-1.65-2.4l-1.399-1.65
		c-0.334-0.566-0.634-1.233-0.9-2c-0.566-1.533-0.717-2.783-0.45-3.75c0.233-0.8,0.95-1.417,2.15-1.85
		c1.134-0.4,1.767-0.9,1.899-1.5c0.134-0.633-0.583-1.233-2.149-1.8C459.4,14.05,458.434,13.633,458.3,13.4z"/>
	<path style="fill-rule:evenodd;clip-rule:evenodd;fill:#55351E;" d="M574.25,54.85v4.4l-1,6.4c-0.233,1.333-0.9,3.017-2,5.05
		c-1.133,1.133-2.033,2.25-2.7,3.35c-0.466,0.767-1.017,1.2-1.649,1.3c-0.167,0.034-1.316,0.051-3.45,0.051
		c-1.4,0-2.467-0.101-3.2-0.301l-0.65-0.35l0.75-0.8c0.634-0.601,1.234-1.117,1.801-1.55c0.732-0.567,1.949-1.65,3.649-3.25
		c1.8-1.7,2.934-2.867,3.4-3.5c0.667-0.9,1.233-2.467,1.7-4.7v-2.7c0-0.434-0.2-0.884-0.601-1.35c-0.5-0.567-0.866-1.017-1.1-1.351
		c-0.366-0.566-1.184-1.184-2.45-1.85c-1.333-0.733-2.316-1.017-2.95-0.851c-0.566,0.134-1.233,0.45-2,0.95l-1,0.7
		c-1.8,1.366-3.05,2.05-3.75,2.05c-2.233-0.233-4.583-0.467-7.05-0.7l-4.75-0.3L550,52.5l6.4-5.05c1.8-2.267,2.699-3.733,2.699-4.4
		V35.3l-1.699-4.05c-0.9-1.333-2.351-2.683-4.351-4.05c-1.3-0.833-1.966-1.534-2-2.1c0.2-0.833,0.3-1.7,0.3-2.6
		c-3.366,1.567-5.5,2.467-6.399,2.7c-0.601,0.167-1.2,0.183-1.8,0.05c-0.2-0.033-1.066-0.283-2.601-0.75
		c-0.966-0.267-1.816-0.9-2.55-1.9l-0.8-1.45l3.7,0.65l6.05-0.65c1.366-1.566,2.149-2.683,2.35-3.35
		c0.134-0.367,0.601-0.767,1.4-1.2c0.899-0.467,1.45-0.867,1.649-1.2c0.268-0.4,0.9-0.683,1.9-0.85c0.533-0.1,1.017-0.15,1.45-0.15
		c0.467-1.8,0.7-3.033,0.7-3.7c0-0.4,0.116-1.133,0.35-2.2l0.3-1.5l4.75,2.7l0.851,2.85c0.533,2.034,0.8,3.333,0.8,3.9
		c0,0.9-0.667,1.9-2,3l-1,3.05l0.35,1.7c0.2,1.1,0.75,2.667,1.65,4.7l1,0.95c0.899,0.767,1.917,1.566,3.05,2.4
		c1.1,0.833,1.6,1.633,1.5,2.4c-0.033,0.434-0.2,0.983-0.5,1.65c0,0.7,0.117,2.284,0.35,4.75c0,0.667-1.232,1.566-3.699,2.7l1,2.7
		c0.232,0.666,2.267,1.783,6.1,3.35L574.25,54.85z"/>
	<path style="fill-rule:evenodd;clip-rule:evenodd;fill:#55351E;" d="M207.15,25.55c0.7,0.333,1.383,0.967,2.05,1.9
		c0.667,0.966,1,1.783,1,2.45c0,0.9,0.116,1.917,0.35,3.05l1,3.05c-0.667,1.567-1.683,2.567-3.05,3c-0.8,0.267-1.55,0.483-2.25,0.65
		l-1.8,0.4c-0.567,0.133-1.634,0.784-3.2,1.95l-2.2,1.75c-1.566,2.467-3.25,4.267-5.05,5.4c-1.133,0.699-2.767,1.283-4.9,1.75
		l-2.85,0.5h-4.7l-5.399,1.1l-3.7-1.1c-1.5-0.467-2.583-1.034-3.25-1.7c-0.533-0.7-1.033-1.233-1.5-1.601
		c-1.1-0.8,0-0.699,3.3,0.301c0.833,0.267,1.583,0.166,2.25-0.301c0.467-0.267,1.316-0.933,2.55-2c0.967-0.699,1.55-1.366,1.75-2
		L177.5,43.4l3.35-4.05l1.35-2l-0.65-3.75l-5.75-0.3l-3.35-1.05l-2.05-2.65l1,0.3c0.7,0.233,2.5,0.233,5.399,0l0.8-0.55
		c0.633-0.4,1.167-0.667,1.6-0.8c0.667-0.2,1.217-1.767,1.65-4.7l-2-5.75c-1.767-0.934-3.417-1.917-4.95-2.95
		c-3.067-2-4-3.15-2.8-3.45c1.833-0.467,2.966-0.934,3.4-1.4c0.367-0.433,0.233-0.75-0.4-0.95c-0.4-0.133-1.417-0.917-3.05-2.35
		l-2.3-2.05l7.05,0.35c0.267,0,1.65,0.167,4.15,0.5c2.467,0.333,4,0.5,4.6,0.5c1.134,0,2.717,0.45,4.75,1.35
		c2.9,1.8,4.351,3.033,4.351,3.7c0,0.7,0.683,1.6,2.05,2.7l1.15,0.3c0.9,0.3,1.633,0.65,2.2,1.05c1.467,1.133,2.367,2.267,2.7,3.4
		c0.667,1.9,1,3.25,1,4.05c0,0.4,0.566,0.883,1.7,1.45C205.083,24.633,205.983,25.05,207.15,25.55z"/>
	<path style="fill-rule:evenodd;clip-rule:evenodd;fill:#55351E;" d="M237.1,9.5l-0.95-4.2l5.399,5.05l0.2,2.45
		c0.1,1.934,0.15,3.6,0.15,5c0,1.4-0.217,2.383-0.65,2.95l-0.7,0.4c-4.3,0.9-6.883,1.35-7.75,1.35c-0.566,0-1.75-0.283-3.55-0.85
		l-2.55-0.85l4.75-2.35l1.65-1.85c1.233-1.267,2.133-2,2.7-2.2C237.066,14,237.5,12.367,237.1,9.5z"/>
	<path style="fill-rule:evenodd;clip-rule:evenodd;fill:#55351E;" d="M126,8.9c1.333,0.733,2.434,1.45,3.3,2.15
		c2.7,2.233,4.384,4.133,5.05,5.7c0.433,1.133,0.433,3.167,0,6.1l3.7,5.4v4.35L134,32.95l-3.35-0.7
		c-0.667-0.133-1.217-0.167-1.65-0.1c-0.767,0.067-1.233,0.1-1.4,0.1c-1.367,0-2.717,0.233-4.05,0.7
		c-0.533,0.2-1.417,0.983-2.649,2.35c-1.3,1.434-2.101,2.567-2.4,3.4c-0.467,1.1-1.367,2.216-2.7,3.35l-7.75,6.4l1.65-2l0.35-0.351
		c0.7-0.666,1.267-1.899,1.7-3.699l3.05-3.7c0.9-1.133,1.351-1.934,1.351-2.4l2-4.7l1.2-0.8c1-0.6,2.067-1.117,3.2-1.55
		c1.8-0.667,3.15-1.683,4.05-3.05l1.35-9.75c1.533-2.133,1.383-4.184-0.45-6.15L124.25,8L126,8.9z"/>
	<path style="fill-rule:evenodd;clip-rule:evenodd;fill:#55351E;" d="M100.4,21.3c0.333-1.333,0.633-2.283,0.899-2.85l3.05-5.4
		l2.7,3.05l0.65,5.7c-2.7,3.4-5.283,5.883-7.75,7.45c-1.233,0.8-2.184,1.483-2.85,2.05c-0.233,0.2-0.517,0.3-0.85,0.3
		c-0.9,0-2.133-0.117-3.7-0.35c-0.966-0.133-1.433-0.783-1.399-1.95l0.399-1.75L96.9,27.2l3.05-4.05
		C100.083,22.583,100.233,21.967,100.4,21.3z"/>
	<path style="fill-rule:evenodd;clip-rule:evenodd;fill:#55351E;" d="M45.4,26.1l0.3-5.95l4.35,10.8L50.4,37L43,43.75l-3.4,1.65
		L34.9,45.1L31.5,40.7l6.1-1l1.8-1.1c1.333-0.8,2.416-1.333,3.25-1.6c0.833-0.3,1.316-1.067,1.45-2.3
		c-0.067-1.367-0.1-2.284-0.1-2.75c-0.389,0.043-0.747,0.084-1.075,0.125C44.117,31.5,44.942,29.508,45.4,26.1z"/>
	<polygon style="fill-rule:evenodd;clip-rule:evenodd;fill:#55351E;" points="73.65,15.4 74.65,20.5 73,23.15 67.95,23.85 
		65.55,20.5 72,18.1 	"/>
	<polygon style="fill-rule:evenodd;clip-rule:evenodd;fill:#55351E;" points="16.7,12.7 16.7,16.75 14.35,16.75 12.65,15.4 	"/>
	<path style="fill-rule:evenodd;clip-rule:evenodd;fill:#482D1D;" d="M559.45,12.7c0-0.7,0.116-1.633,0.35-2.8l0.3-1.55l0.75,1.3
		c0.567,1.067,1,2.083,1.301,3.05c0.267,0.966,0.232,2.05-0.101,3.25c-0.399,1.4-0.6,2.117-0.6,2.15c0,0.7-0.567,1.717-1.7,3.05
		c-2,0.667-3.45,1.117-4.35,1.35c-0.566,0.133-1.417,0.183-2.551,0.15l-1.5-0.15c-0.232,0.233-0.666,0.517-1.3,0.85
		c-1.3,0.667-3,1.283-5.1,1.85c-2.101,0.566-3.851,0.45-5.25-0.35l-1.5-1.35l2.35,1c0.967,0.433,2.45,0.233,4.45-0.6
		c0.967-0.433,1.85-0.9,2.65-1.4l6.699-3.7l0.75-0.65c0.567-0.5,1-0.967,1.301-1.4C558.434,15.183,559.45,13.833,559.45,12.7z"/>
	<path style="fill-rule:evenodd;clip-rule:evenodd;fill:#482D1D;" d="M563.45,35.65c0.467-0.467,0.7-2.483,0.7-6.05
		c1.566,1.333,2.35,2.217,2.35,2.65c0,0.133,0.167,0.65,0.5,1.55c0.334,0.9,0.5,1.733,0.5,2.5V39c0,1.367-0.45,2.6-1.35,3.7
		c-0.4,0.566-0.851,0.916-1.351,1.05h-0.649L563.8,42.4c0.9-1.567,1.467-2.8,1.7-3.7c0.133-0.467-0.267-1.034-1.2-1.7
		C563.467,36.367,563.184,35.917,563.45,35.65z"/>
	<path style="fill-rule:evenodd;clip-rule:evenodd;fill:#482D1D;" d="M560.45,48.8l2.7,3.7l-1,0.65
		c-0.733,0.733-1.384,1.35-1.95,1.85c-1,0.9-2.05,1.417-3.15,1.55c-1.2,0.167-2.3,0.184-3.3,0.05
		c-0.367-0.066-1.617-0.316-3.75-0.75l-3.4-0.649l3.25-0.65c2.301-0.566,3.801-1.133,4.5-1.7c1.134-0.899,2.268-1.383,3.4-1.449
		C559.316,50.333,560.217,49.467,560.45,48.8z"/>
	<path style="fill-rule:evenodd;clip-rule:evenodd;fill:#482D1D;" d="M523.35,53.15l1.7-3l6.05-2.351L528.4,51.4l-0.301,5.8
		c0,1.133-0.566,2.483-1.699,4.05l-10.801,2.7c-0.6-0.066-1.3-0.2-2.1-0.4c-1.566-0.467-2.783-1.116-3.65-1.95
		c-0.833-0.833-1.75-2.083-2.75-3.75l-1.25-2.3l6.4,2.351c0.667,0.233,1.566,0.233,2.7,0l4.35-1.351
		C521.334,55.417,522.684,54.283,523.35,53.15z"/>
	<path style="fill-rule:evenodd;clip-rule:evenodd;fill:#482D1D;" d="M498.75,34.65l-2.35-6.1l8.399,3.4l1.351-0.1
		c1.033-0.167,1.833-0.467,2.399-0.9c0.867-0.7,2.101-1.833,3.7-3.4l2,0.35c-1.133,2.033-1.916,3.383-2.35,4.05
		c-0.367,0.533-1.15,1.167-2.351,1.9c-1.3,0.8-2.433,1.283-3.399,1.45c-0.834,0.133-1.75,0.067-2.75-0.2l-1.301-0.45l1.051,5.05
		l-1.7,4.7c-0.434,0.733-1.033,1.533-1.8,2.399c-1.467,1.767-2.934,3.017-4.4,3.75s-2.617,1.101-3.45,1.101L491,51.4h-2.05
		c-0.934,0-1.55-0.034-1.851-0.101c-0.133-0.033-0.816-0.283-2.05-0.75c-0.866-0.333-1.583-0.3-2.149,0.101
		c-0.733,0.5-1.301,0.75-1.7,0.75c-0.634,0-1.533-0.317-2.7-0.95c-1.166-0.667-1.833-1-2-1c-0.434,0.033-3.467-1.867-9.1-5.7
		l6.05,2.35c0.7,0.233,2.167,0.351,4.399,0.351l2-2.4l1.7,2.4c0.934,1.333,2.284,2,4.05,2c1.367,0,3.167,0.233,5.4,0.7
		c2.7-1.367,4.267-2.384,4.7-3.051c1.667-2.399,2.899-4.417,3.7-6.05C499.867,39.15,499.65,37.35,498.75,34.65z"/>
	<path style="fill-rule:evenodd;clip-rule:evenodd;fill:#482D1D;" d="M442.45,29.9c0.433-1.4,0.783-3.617,1.05-6.65l0.3-4.1
		l1.351,6.7l0.35,3.8c0.2,2.7,0.3,4.467,0.3,5.3c0,1.367-0.433,2.5-1.3,3.4c-2.5,1.133-4.2,1.7-5.1,1.7
		c-0.566,0-1.018,0.317-1.351,0.95c-0.066,0.1-0.283,0.667-0.649,1.7c-0.268,0.767-0.867,1.633-1.801,2.6
		c-1.199,1.2-2.399,1.8-3.6,1.8h-6.05l1.8-1.05c1.3-0.733,2.15-1.166,2.55-1.3c0.7-0.233,1.601-0.917,2.7-2.05l3.4-4.35
		c2.066-2.567,3.3-4.15,3.699-4.75L442.45,29.9z"/>
	<path style="fill-rule:evenodd;clip-rule:evenodd;fill:#482D1D;" d="M381.45,39c1.399,0,2.267,0.4,2.6,1.2
		c0.167,0.4,0.2,0.8,0.101,1.2c-1.801,0.2-3.483,0.3-5.051,0.3c-1,0-1.699-0.05-2.1-0.15l-0.3-0.15l1.6-1.2
		C379.533,39.4,380.584,39,381.45,39z"/>
	<path style="fill-rule:evenodd;clip-rule:evenodd;fill:#482D1D;" d="M362.9,15.75l1.8-1.55c1.3-0.934,2.167-1.2,2.6-0.8
		c0.4,0.4,0.333,1.083-0.2,2.05c-0.732,1.433-1.116,2.216-1.149,2.35c-0.101,0.467-0.283,1.3-0.55,2.5
		c-0.268,1.067-0.533,1.8-0.801,2.2c-0.399,0.6-1.183,1.433-2.35,2.5c-1.333,1.233-2.684,2.317-4.05,3.25
		c-1.167,0.767-1.851,0.767-2.05,0c-0.301-1.2-0.634-1.883-1-2.05l-3.051-1l5.4-2.05c0.9-0.4,1.584-0.95,2.05-1.65
		c0.5-0.8,0.833-1.25,1-1.35c0.5-0.333,0.967-0.933,1.4-1.8C362.417,17.483,362.733,16.617,362.9,15.75z"/>
	<path style="fill-rule:evenodd;clip-rule:evenodd;fill:#482D1D;" d="M331.55,28.9c1.134-0.233,3.833-0.45,8.101-0.65l0.649,1.65
		c-0.899,1.133-1.899,1.817-3,2.05c-0.667,0.133-1.333,0.417-2,0.85c-0.966,0.667-1.55,1.05-1.75,1.15
		c-0.533,0.267-1.5,0.417-2.899,0.45c-1.566,0-2.65,0.017-3.25,0.05c-0.733,0.033-2.351-0.317-4.851-1.05l-3.5-1.15h3.4
		c2.467,0,4.483-0.333,6.05-1S331.084,29.8,331.55,28.9z"/>
	<path style="fill-rule:evenodd;clip-rule:evenodd;fill:#482D1D;" d="M288.4,34.95l4.449-1.05l3.851,3.2
		c-1.934,1.066-3.5,1.783-4.7,2.15c-0.566,0.2-1.517,0.2-2.85,0c-1.534-0.2-2.851-0.2-3.95,0c-1.233,0.233-1.884,0.017-1.95-0.65
		c-0.133-0.934-0.333-1.467-0.6-1.6c-0.567-0.3-0.9-0.733-1-1.3v-0.75l1.5-0.3c1.133-0.133,1.983-0.133,2.55,0L288.4,34.95z"/>
	<path style="fill-rule:evenodd;clip-rule:evenodd;fill:#482D1D;" d="M250.3,34.65L251,36c-2.934,1.8-5.184,2.7-6.75,2.7
		c-0.967,0-2.283,0.283-3.95,0.85l-2.149,0.8c-5.167,1.566-8.934,2.45-11.3,2.65c-1.5,0.134-2.75,0.017-3.75-0.35L222,42.05l-6.1-2
		l5.75-0.35l4.399-1.35l3.7-2.8c0.767-0.566,1.434-0.983,2-1.25c0.566-0.3,2.434-0.383,5.6-0.25c1.567,0.067,3.083,0.15,4.55,0.25
		L250.3,34.65z"/>
	<path style="fill-rule:evenodd;clip-rule:evenodd;fill:#482D1D;" d="M197,21.35c1.867,1.4,3,2.45,3.4,3.15
		c0.533,0.867,0.783,1.95,0.75,3.25c-0.034,1.3-0.384,2.017-1.05,2.15c-0.5,0.133-0.833,0.7-1,1.7c-0.2,1.333-0.433,2.233-0.7,2.7
		c-0.667,1.233-1.167,2.15-1.5,2.75c-0.634,1.034-1.15,1.684-1.55,1.95c-0.433,0.3-1.1,1-2,2.1c-0.7,0.9-1.267,1.667-1.7,2.3
		c-0.467,0.733-0.834,1.3-1.101,1.699c-0.5,0.767-1.033,1.434-1.6,2c-0.567,0.567-1.184,0.917-1.85,1.051
		c-1,0.1-1.95,0.199-2.85,0.3c-1.133,0.133-2.267,0.116-3.4-0.05L179.5,48.1l5.4-1.649l2.35-4.4c0.467-0.667,1.816-2.583,4.05-5.75
		c0.134-0.167,0.351-0.65,0.65-1.45c0.267-0.7,0.733-1.45,1.4-2.25c0.633-0.8,1.433-1.4,2.4-1.8c1.167-0.5,1.816-0.8,1.95-0.9
		c0.566-0.4-0.333-0.683-2.7-0.85l-3.7-0.15v-3.7l1.3,0.85c0.966,0.567,1.667,0.85,2.1,0.85c0.667,0,1.217-0.35,1.65-1.05l-2-6.4
		L197,21.35z"/>
	<path style="fill-rule:evenodd;clip-rule:evenodd;fill:#482D1D;" d="M133,27.45c0.8,1.4,0.917,2.45,0.35,3.15
		c-0.433,0.566-0.667,0.783-0.7,0.65c-0.101-0.3-0.434-0.4-1-0.3c-0.7,0.133-1.417,0-2.15-0.4l-0.9-0.65l0.45-0.75
		c0.434-0.566,1.067-0.983,1.9-1.25c0.833-0.3,1.2-0.65,1.1-1.05c-0.267-0.533-0.399-0.967-0.399-1.3L133,27.45z"/>
	<path style="fill-rule:evenodd;clip-rule:evenodd;fill:#482D1D;" d="M86.15,43.4c-0.2,0.6-0.417,1.017-0.65,1.25
		c-0.3,0.366-0.767,0.616-1.4,0.75c-0.567,0.133-0.967-0.15-1.2-0.851L82.75,43.4v-3.05C85.217,41.717,86.35,42.733,86.15,43.4z"/>
	<path style="fill-rule:evenodd;clip-rule:evenodd;fill:#6D4126;" d="M40.95,19.15l3.05,1l-1.7,2.7c-3.366,1.8-5.383,2.8-6.05,3
		c-0.4,0.133-1.033,0.683-1.9,1.65l-1.15,1.4l-2,5.05c-0.467-2.233-0.7-3.917-0.7-5.05c0-0.7,0.117-1.75,0.35-3.15l0.35-1.9
		l2.35-2.05L40.95,19.15z"/>
	<path style="fill-rule:evenodd;clip-rule:evenodd;fill:#6D4126;" d="M18.5,45.15c0.6,0.199,0.767,0.916,0.5,2.149
		c-0.133,0.634-0.333,1.25-0.6,1.851L15,48.1c-0.9,0.233-2.7,0.584-5.4,1.051C8,49.417,7.066,50.05,6.8,51.05
		c-0.267,0.967-0.45,1.45-0.55,1.45c-0.367,0-0.867-0.184-1.5-0.55c-0.6-0.367-1-0.55-1.2-0.55c-0.3,0-0.366-0.7-0.2-2.101
		c0.133-1.233,0.317-2.184,0.55-2.85c0.133-0.434,0.466-1.05,1-1.851c0.3-0.399,0.566-0.75,0.8-1.05l1.95,0.8
		c1.433,0.567,2.416,0.917,2.95,1.051l3.4-0.25C16.4,44.983,17.9,44.983,18.5,45.15z"/>
	<path style="fill-rule:evenodd;clip-rule:evenodd;fill:#6D4126;" d="M15,55.85l5.05-4.449L20.4,52.1c0.233,0.534,0.35,1,0.35,1.4
		c0,0.667-0.566,1.35-1.7,2.05c-0.899,0.9-1.683,1.351-2.35,1.351c-0.4,0-0.8-0.167-1.2-0.5L15,55.85z"/>
	<path style="fill-rule:evenodd;clip-rule:evenodd;fill:#6D4126;" d="M68.25,13.05c1.133,0,2.934,0.784,5.4,2.35L70.3,15.75
		L65.9,17.1l-0.351-1.7l0.95-1.15C67.233,13.45,67.816,13.05,68.25,13.05z"/>
	<polygon style="fill-rule:evenodd;clip-rule:evenodd;fill:#6D4126;" points="54.1,6 55.1,7.35 52.45,9.35 51.4,12.05 49.75,11.05 
		51.05,6.3 	"/>
	<path style="fill-rule:evenodd;clip-rule:evenodd;fill:#6D4126;" d="M97.95,11.7l6.4,1.35c-0.9,0.233-1.8,0.684-2.7,1.35
		c-0.567,0.434-1.184,1.017-1.851,1.75l-0.85,0.95l-2.35,1c-0.233,0.167-0.5,0.433-0.8,0.8c-0.6,0.767-1.116,1.633-1.55,2.6
		l-2.05,4.7c-0.434-1.333-0.65-2.35-0.65-3.05c0-0.4-0.116-1.25-0.35-2.55l-0.35-1.8l0.7-2.7L92.7,15c0.9-0.8,1.633-1.333,2.2-1.6
		L97.95,11.7z"/>
	<path style="fill-rule:evenodd;clip-rule:evenodd;fill:#6D4126;" d="M129.3,14.05l-4.05,0.35l-1.35,2.35l-2.05,2.05l-3.35,6.05
		l-1-2.7v-3.7l1.35-4.05c-0.7-1.566-0.933-2.8-0.7-3.7c0.133-0.5,1.149-1.034,3.05-1.6c1.933-0.567,2.95-0.934,3.05-1.1
		c0.167-0.367,1.133-0.067,2.9,0.9c1.733,0.967,2.45,1.684,2.149,2.15c-0.3,0.434-0.383,1.067-0.25,1.9
		C129.117,13.35,129.2,13.717,129.3,14.05z"/>
	<path style="fill-rule:evenodd;clip-rule:evenodd;fill:#6D4126;" d="M118.15,31.6c-0.467,0.233-1.367,0.05-2.7-0.55
		c-1.4-0.633-2.3-0.9-2.7-0.8l-6.75,2l1.35-1.65l2.7-2.05l16.55-1L118.15,31.6z"/>
	<path style="fill-rule:evenodd;clip-rule:evenodd;fill:#6D4126;" d="M146.2,38.35c1.833,0.1,3.383,0.433,4.65,1
		c0.966,0.433,1.95,1.217,2.95,2.35c0.8,0.866,1.567,1.3,2.3,1.3c0.933,0.033,1.5,0.316,1.7,0.85c0.101,0.267,0.101,0.534,0,0.801
		c-2.366-1.301-4.116-1.95-5.25-1.95c-0.633,0-1.45-0.167-2.45-0.5c-1.034-0.333-1.683-0.5-1.95-0.5c-0.601,0-1.117,0.1-1.55,0.3
		c-0.534,0.233-0.8,0.583-0.8,1.05c0,0.066-0.05,0.517-0.149,1.351c-0.034,0.5,0.017,0.949,0.149,1.35
		c0.233,0.667,0.351,1.566,0.351,2.7l-1.7,2.95l-2.7-1.601c0.467-0.666,0.783-1.217,0.95-1.649c0.3-0.733,0.1-1.534-0.6-2.4
		c-0.7-0.833-1.483-1.866-2.35-3.1l-1.05-1.601c0-0.233,0.05-0.483,0.15-0.75c0.233-0.566,0.633-1,1.2-1.3
		c0.9-0.433,2.15-0.65,3.75-0.65H146.2z"/>
	<path style="fill-rule:evenodd;clip-rule:evenodd;fill:#6D4126;" d="M167.7,33.95c-0.9,0-1.684,0.117-2.35,0.35
		c-0.4,0.133-1.034,0.467-1.9,1L162.3,36l-1,1.65l0.8-5.85c0.3-0.566,0.933-0.85,1.9-0.85c0.434,0,1.083-0.05,1.95-0.15
		c0.467-0.033,1.283,0.017,2.45,0.15c1,0.1,1.8,0.45,2.399,1.05c0.4,0.4,0.95,0.483,1.65,0.25c1.333-0.433,4.366-0.533,9.1-0.3
		l1.351,2c-1.601-0.233-3.4-0.233-5.4,0c-2.7,0.466-4.617,0.7-5.75,0.7c-0.7,0-1.583-0.117-2.65-0.35L167.7,33.95z"/>
	<path style="fill-rule:evenodd;clip-rule:evenodd;fill:#6D4126;" d="M167.05,18.45c-1.633,0.566-3.216,2.367-4.75,5.4v-4.4
		l2.05-3.7c0-0.433,0.05-0.9,0.15-1.4c0.167-0.967,0.45-1.517,0.85-1.65c0.667-0.2,2.583-0.534,5.75-1l6.4,3.4l3,2.7
		c-2,0.667-3.333,0.767-4,0.3c-0.434-0.267-1.467-0.684-3.1-1.25l-2.3-0.75l-2.7,0.65C168.167,17.65,167.717,18.217,167.05,18.45z"
		/>
	<path style="fill-rule:evenodd;clip-rule:evenodd;fill:#6D4126;" d="M154.9,10.05c-0.267,0.434-0.351,1.184-0.25,2.25
		c0.066,0.534,0.149,1.017,0.25,1.45l-1.7-0.7c-1.567-1.333-2.467-2.333-2.7-3c-0.133-0.433-0.167-1.417-0.1-2.95l0.1-2.15
		l10.15,0.35l-4.4,1.7C155.816,8.333,155.367,9.35,154.9,10.05z"/>
	<path style="fill-rule:evenodd;clip-rule:evenodd;fill:#6D4126;" d="M231.45,4.3l2,1c-1.333,0.667-2.35,1.117-3.05,1.35
		c-1.334,0.467-2.334,0.917-3,1.35c-0.434,0.3-0.884,0.783-1.351,1.45c-0.566,0.833-1.017,1.466-1.35,1.9
		c-0.434,0.566-0.9,1.533-1.4,2.9c-0.267,0.667-0.483,1.283-0.649,1.85l-0.3-6.05c0.667-1.133,1.1-2.15,1.3-3.05
		c0.133-0.567,0.966-1.183,2.5-1.85c0.767-0.333,1.517-0.617,2.25-0.85H231.45z"/>
	<path style="fill-rule:evenodd;clip-rule:evenodd;fill:#6D4126;" d="M219.65,24.5l2.35,0.35l3-0.45c2.2-0.267,3.783-0.333,4.75-0.2
		c1.566,0.2,3.133,0.3,4.7,0.3h6.4c1.6,0,3.733,0.117,6.4,0.35c-3.367,1.367-5.383,2.15-6.05,2.35c-0.4,0.133-1.45,0.183-3.15,0.15
		c-1.933-0.1-3.25-0.15-3.95-0.15c-2.233,0-3.8-0.1-4.7-0.3c-0.9-0.233-1.917-0.35-3.05-0.35c-0.367,0-1.333,0.4-2.9,1.2
		c-1.7,0.9-2.75,1.4-3.15,1.5c-0.566,0.133-1.133,0.733-1.7,1.8l-0.65,1.55l0.35-4.05c1.26-1.156,2.11-1.923,2.55-2.3
		C220.592,26.194,220.192,25.611,219.65,24.5z"/>
	<path style="fill-rule:evenodd;clip-rule:evenodd;fill:#6D4126;" d="M283,25.2h-1.7c-0.633,0-1.533,0.183-2.7,0.55
		c-1.5,0.467-2.4,0.733-2.7,0.8c-0.7,0.133-1.351,0.684-1.95,1.65l-0.7,1.4l-1.35-2.05l1-2.7l1.55-1
		c1.133-0.633,1.967-0.867,2.5-0.7L283,25.2z"/>
	<path style="fill-rule:evenodd;clip-rule:evenodd;fill:#6D4126;" d="M267.15,9.7l6.1,2l-4.4,1.35l-3.7,2.7l-1.7,3.05l-0.35-7.75
		l1-0.65C265,9.933,266.017,9.7,267.15,9.7z"/>
	<path style="fill-rule:evenodd;clip-rule:evenodd;fill:#6D4126;" d="M313.35,20.15l2.351-1L316.6,19c0.734-0.133,1.45-0.2,2.15-0.2
		c1.1,0,2.9,0.117,5.4,0.35c1.333,0,2.783,0.45,4.35,1.35c-2,0.2-3.684,0.3-5.05,0.3c-0.833,0-1.983,0.217-3.45,0.65l-2,0.6l-6-1.55
		L313.35,20.15z"/>
	<path style="fill-rule:evenodd;clip-rule:evenodd;fill:#6D4126;" d="M304.9,20.15c0.899,0.2,1.8,1.1,2.699,2.7
		c-1.566-0.233-2.8-0.233-3.699,0c-0.566,0.133-1.301,0.167-2.2,0.1l-1.15-0.1l0.65-2.7l1.1-0.2
		C303.233,19.883,304.1,19.95,304.9,20.15z"/>
	<path style="fill-rule:evenodd;clip-rule:evenodd;fill:#6D4126;" d="M354.45,4.95l2.7,0.35l-0.301,2.35
		c-0.333-0.1-0.683-0.15-1.05-0.15c-0.767,0-1.216,0.283-1.35,0.85c-0.2,0.9-0.65,2.017-1.351,3.35
		c-0.899,1.367-1.8,2.267-2.699,2.7c-2,1.067-3.566,1.75-4.7,2.05c-0.567,0.133-1.25,0.566-2.05,1.3l-1,1.05L340,17.1l2.65-2.35
		l1.699-2.7l2.7-2l4.4-2.05L354.45,4.95z"/>
	<path style="fill-rule:evenodd;clip-rule:evenodd;fill:#6D4126;" d="M400.65,19.8l1.949,0.05c1.467,0.066,2.617,0.167,3.45,0.3
		c1.333,0.2,2.9,0.983,4.7,2.35l-4.7,0.65c-0.833,0.133-1.466,0.35-1.899,0.65l-0.45,0.4h-4.05c-2.033,0-3.834,0.1-5.4,0.3
		c-0.967,0.133-2.166,0.4-3.6,0.8l-1.801,0.55c0.067-0.233,0.167-0.5,0.301-0.8c0.3-0.6,0.649-1.117,1.05-1.55
		c0.5-0.5,1.783-1.117,3.85-1.85C396.117,20.917,398.316,20.3,400.65,19.8z"/>
	<path style="fill-rule:evenodd;clip-rule:evenodd;fill:#6D4126;" d="M377.4,29.9l1.5-0.1c1.133-0.066,1.982-0.033,2.55,0.1
		c0.899,0.233,1.233,0.917,1,2.05l0.649,1.35c-2.232-0.233-3.916-0.35-5.05-0.35c-0.7,0-2.3,0.517-4.8,1.55l-3.6,1.5v-1.35
		l0.949-1.25C371.9,32.333,374.167,31.167,377.4,29.9z"/>
	<path style="fill-rule:evenodd;clip-rule:evenodd;fill:#6D4126;" d="M431.65,11.35c-0.566,0-1.351,0.183-2.351,0.55l-1.35,0.5
		l-3.05,1.65l-3.7,0.35l-1.65,3.05l0.3-6.75l2.4-1l3.7,0.65L426.6,8l0.7-1.15c0.634-0.8,1.3-1.2,2-1.2c0.601,0,1.15-0.167,1.65-0.5
		c0.5-0.333,0.967-0.5,1.399-0.5c0.9,0,2.25,0.1,4.051,0.3L436.05,7L432,7.65l-0.65,2.05C432.45,10.8,432.55,11.35,431.65,11.35z"/>
	<path style="fill-rule:evenodd;clip-rule:evenodd;fill:#6D4126;" d="M457.3,6l2.351-0.35c-0.467,1.333-1.584,2.8-3.351,4.4
		l-0.35,2.65l-1,1.35l-3.05,1.05l-2.051,4.35V12.7c0.9-0.434,1.801-1.667,2.7-3.7L457.3,6z"/>
	<path style="fill-rule:evenodd;clip-rule:evenodd;fill:#6D4126;" d="M456.6,25.2l-3.699,7.4c-0.4-0.767-0.783-1.583-1.15-2.45
		c-0.8-1.733-1.2-2.816-1.2-3.25c0-0.433,0.233-0.9,0.7-1.4c0.2-0.267,0.417-0.483,0.65-0.65c2.467-1.8,3.816-3.033,4.05-3.7
		L456.6,25.2z"/>
	<path style="fill-rule:evenodd;clip-rule:evenodd;fill:#6D4126;" d="M381.75,7.65l1.35,3.4L383,12.1
		c-0.1,0.967-0.283,2.066-0.55,3.3c-0.3,1.267-0.717,1.65-1.25,1.15l-0.75-1.15l-1.7-4.05l0.9-1.7
		C380.35,8.45,381.05,7.783,381.75,7.65z"/>
	<path style="fill-rule:evenodd;clip-rule:evenodd;fill:#6D4126;" d="M500.75,10.35l1.05,1.7c-2.7,0.667-4.733,1.233-6.1,1.7
		c-0.934,0.3-1.684,0.817-2.25,1.55c-0.5,0.633-0.75,1.233-0.75,1.8c0,0.467-0.317,1.6-0.95,3.4c-0.6,1.733-1.083,2.967-1.45,3.7
		c-0.267,0.566-0.566,0.683-0.899,0.35l-0.45-0.7l-1.65-7.1l5.05-6.7L500.75,10.35z"/>
	<path style="fill-rule:evenodd;clip-rule:evenodd;fill:#6D4126;" d="M478.85,28.25h9.101l3.7,1.65l-3,1.05
		c-0.9,0.667-2.033,1-3.4,1h-4.05c-0.967,0-2.267,0.45-3.9,1.35l-8.899,5.05l1.699-4.75c0.268-0.8,0.9-1.417,1.9-1.85
		c0.533-0.2,1.25-0.467,2.15-0.8C474.816,30.483,476.383,29.583,478.85,28.25z"/>
	<path style="fill-rule:evenodd;clip-rule:evenodd;fill:#6D4126;" d="M555.05,6l0.3,0.45c0.167,0.4,0.184,0.8,0.051,1.2
		c-0.233,0.7-0.584,2.05-1.051,4.05L550,12.4l-1.7,2l-6.399,0.35c-0.601,0.467-1.25,0.967-1.95,1.5c-1.333,1.067-2.15,1.8-2.45,2.2
		c-0.267,0.433-0.4,0.233-0.4-0.6l0.101-1.4l1.35-3.75l5.351-3.35l1.5-1.2c1.066-0.867,1.816-1.367,2.25-1.5
		C548.316,6.417,550,6.2,552.7,6H555.05z"/>
	<path style="fill-rule:evenodd;clip-rule:evenodd;fill:#6D4126;" d="M522.7,44.4l7.399,0.35c-2.232,0.233-3.8,0.45-4.699,0.65
		c-3.134,0.8-6.4,1.366-9.801,1.699c-1.433,0.134-2.183,0.384-2.25,0.75c-0.166,0.667-0.433,1.101-0.8,1.301
		c-0.7,0.433-1.917,0.666-3.649,0.699l-2.4-0.05l3.35-4.05l6.101-1l2.75-0.15C520.667,44.467,522,44.4,522.7,44.4z"/>
	<path style="fill-rule:evenodd;clip-rule:evenodd;fill:#6D4126;" d="M550.65,32.95l3.699,2l-7.05,1.35
		c-1.366,0.9-2.383,1.8-3.05,2.7c-0.4,0.567-0.916,1.633-1.55,3.2c-0.3,0.8-0.567,1.533-0.8,2.2l-2,2.699l0.3-7.399l1.149-1.25
		c0.867-0.9,1.5-1.5,1.9-1.8C543.917,36.217,546.383,34.983,550.65,32.95z"/>
	<path style="fill-rule:evenodd;clip-rule:evenodd;fill:#6D4126;" d="M532.8,30.25c-0.7,0.133-1.533,0.567-2.5,1.3l-1.2,1.05h-2.05
		c0.067-0.667,0.217-1.333,0.45-2c0.434-1.367,1.084-2.05,1.95-2.05h2l3.7-0.65l3.05,1l1.075,2.95
		c-0.187-0.327-0.462-0.644-0.825-0.95C537.217,29.9,535.334,29.683,532.8,30.25z"/>
	<path style="fill-rule:evenodd;clip-rule:evenodd;fill:#6D4126;" d="M568.15,22.8l-2.65,5.45c-1.133-1.8-1.816-3.15-2.05-4.05
		c-0.134-0.567,0.399-1.534,1.6-2.9c0.601-0.667,1.2-1.283,1.8-1.85h5.75L569.9,20.5C569.467,20.633,568.883,21.4,568.15,22.8z"/>
	<path style="fill-rule:evenodd;clip-rule:evenodd;fill:#55351E;" d="M519.15,34.3c2.967-0.167,4.399,0.534,4.3,2.1
		c-0.101,1.467-1.2,2.684-3.3,3.65c-1.533,0.7-2.9,0.333-4.101-1.1l-1.3-2.3l1.05-1.1C516.767,34.783,517.883,34.367,519.15,34.3z"
		/>
	<path style="fill-rule:evenodd;clip-rule:evenodd;fill:#55351E;" d="M550.15,61.25c1.434,0.134,2.316,0.967,2.649,2.5
		c0.167,0.767,0.184,1.517,0.05,2.25c-1.566,0-3.033-0.35-4.399-1.05c-0.967-0.467-1.15-1.233-0.55-2.3
		C548.434,61.65,549.184,61.184,550.15,61.25z"/>
	<path style="fill-rule:evenodd;clip-rule:evenodd;fill:#55351E;" d="M480.4,20.45c1.3,0.833,1.85,1.75,1.649,2.75
		c-0.167,0.966-0.95,1.633-2.35,2c-1.3,0.3-2.267,0.233-2.9-0.2c-0.566-0.433-0.95-1.267-1.149-2.5c-0.2-1.333,0.083-2.25,0.85-2.75
		C477.367,19.15,478.667,19.383,480.4,20.45z"/>
	<path style="fill-rule:evenodd;clip-rule:evenodd;fill:#55351E;" d="M447.35,42.7c-0.833-0.8-0.649-1.784,0.551-2.95
		c1.199-1.167,2.583-1.75,4.149-1.75c0.833,0,1.583,0.867,2.25,2.6c0.7,1.833,0.517,3.216-0.55,4.15
		c-1.033,0.866-2.184,0.983-3.45,0.35C449.566,44.733,448.584,43.934,447.35,42.7z"/>
	<path style="fill-rule:evenodd;clip-rule:evenodd;fill:#55351E;" d="M411.05,38.25c0.667-0.767,1.417-1.183,2.25-1.25
		c1.833-0.167,2.667,0.567,2.5,2.2c-0.167,1.466-0.783,2.533-1.85,3.2c-0.7,0.433-1.517,0.05-2.45-1.15l-1.25-1.9L411.05,38.25z"/>
	<path style="fill-rule:evenodd;clip-rule:evenodd;fill:#55351E;" d="M399.25,37.35c1.2-0.9,2.167-0.8,2.9,0.3
		c0.399,0.6,0.033,1.333-1.101,2.2c-1.1,0.9-1.966,0.967-2.6,0.2C397.75,39.15,398.017,38.25,399.25,37.35z"/>
	<path style="fill-rule:evenodd;clip-rule:evenodd;fill:#55351E;" d="M331.4,11.35c2.1,0.767,3.05,1.733,2.85,2.9
		c-0.133,0.767-0.867,1.833-2.2,3.2c-0.933,0.933-2.133,1.1-3.6,0.5c-1.333-0.534-2.384-1.383-3.15-2.55
		c-0.733-1.066-0.366-2.167,1.101-3.3C327.9,10.967,329.566,10.717,331.4,11.35z"/>
	<path style="fill-rule:evenodd;clip-rule:evenodd;fill:#55351E;" d="M315.85,13.4c1.101,0.533,1.25,1.317,0.45,2.35
		s-1.85,1.15-3.149,0.35c-1.268-0.8-1.417-1.6-0.45-2.4C313.667,12.933,314.717,12.833,315.85,13.4z"/>
	<path style="fill-rule:evenodd;clip-rule:evenodd;fill:#55351E;" d="M282.85,15.1c1.933,0,2.983,0.667,3.15,2
		c0.133,1.133-0.25,2.15-1.15,3.05c-0.633,0.667-1.767,0.65-3.4-0.05c-1.567-0.667-2.45-1.434-2.65-2.3c-0.2-0.933-0.066-1.6,0.4-2
		C279.733,15.333,280.95,15.1,282.85,15.1z"/>
	<path style="fill-rule:evenodd;clip-rule:evenodd;fill:#55351E;" d="M210,16.45l1.45,1.75c0.8,1.333,0.767,2.433-0.1,3.3
		c-0.9,0.933-1.817,0.933-2.75,0c-0.867-0.867-1.3-1.883-1.3-3.05c0-0.934,0.2-1.517,0.601-1.75C208.2,16.533,208.9,16.45,210,16.45
		z"/>
	<path style="fill-rule:evenodd;clip-rule:evenodd;fill:#55351E;" d="M149.7,25.55c1.167,1.034,1.55,2.133,1.15,3.3
		c-0.333,0.933-0.95,1.517-1.85,1.75c-0.8,0.167-1.717-0.067-2.75-0.7c-1.167-0.7-1.816-1.6-1.95-2.7
		c-0.2-1.333,0.25-2.267,1.351-2.8C146.816,23.833,148.167,24.217,149.7,25.55z"/>
	<path style="fill-rule:evenodd;clip-rule:evenodd;fill:#55351E;" d="M98.1,39.7c1.033,0.333,1.683,0.683,1.95,1.05
		s0.4,1.133,0.4,2.3c0,1.167-0.85,1.483-2.55,0.95c-1.733-0.566-2.684-1.45-2.851-2.65c-0.133-1.1,0.05-1.767,0.55-2
		C96.066,39.183,96.9,39.3,98.1,39.7z"/>
	<path style="fill-rule:evenodd;clip-rule:evenodd;fill:#55351E;" d="M62.05,29.25c1.4,0.833,1.601,2.267,0.601,4.3
		c-0.5,1-1.15,1.917-1.95,2.75c-0.567-0.033-1.167-0.25-1.8-0.65c-1.233-0.767-1.983-2-2.25-3.7c-0.334-1.934,0.083-3.133,1.25-3.6
		C58.967,27.95,60.35,28.25,62.05,29.25z"/>
	<path style="fill-rule:evenodd;clip-rule:evenodd;fill:#55351E;" d="M54.95,42.7c0.7,0.434,0.917,1.133,0.65,2.1
		c-0.133,0.467-0.35,0.9-0.65,1.3c-0.9,0-1.917-0.566-3.05-1.699c-0.767-0.767-0.601-1.351,0.5-1.75
		C53.4,42.283,54.25,42.3,54.95,42.7z"/>
	<path style="fill-rule:evenodd;clip-rule:evenodd;fill:#55351E;" d="M16.85,30.6c1.3,0.133,1.95,0.867,1.95,2.2
		c0,1.267-0.533,1.983-1.6,2.15c-0.867,0.133-1.8-0.217-2.8-1.05l-1.25-1.3l1.1-1.1C15.15,30.8,16.017,30.5,16.85,30.6z"/>
	<path style="fill-rule:evenodd;clip-rule:evenodd;fill:#5B554D;" d="M517.95,33.3c2.967-0.167,4.399,0.534,4.3,2.1
		c-0.066,1.467-1.15,2.667-3.25,3.6c-1.566,0.7-2.934,0.35-4.1-1.05l-1.301-2.3l1.051-1.1
		C515.617,33.783,516.717,33.367,517.95,33.3z"/>
	<path style="fill-rule:evenodd;clip-rule:evenodd;fill:#5B554D;" d="M549,60.25c1.4,0.134,2.267,0.967,2.6,2.5
		c0.167,0.733,0.184,1.467,0.051,2.2c-1.566,0-3.018-0.334-4.351-1c-0.966-0.467-1.167-1.233-0.6-2.3
		C547.267,60.616,548.033,60.15,549,60.25z"/>
	<path style="fill-rule:evenodd;clip-rule:evenodd;fill:#5B554D;" d="M479.2,19.45c1.3,0.833,1.866,1.75,1.7,2.75
		c-0.2,0.966-1,1.633-2.4,2c-1.3,0.3-2.267,0.233-2.9-0.2c-0.566-0.433-0.933-1.267-1.1-2.5c-0.2-1.333,0.084-2.25,0.85-2.75
		C476.217,18.15,477.5,18.383,479.2,19.45z"/>
	<path style="fill-rule:evenodd;clip-rule:evenodd;fill:#5B554D;" d="M449.1,44.1c-0.732-0.366-1.717-1.166-2.949-2.399
		c-0.801-0.8-0.601-1.784,0.6-2.95S449.334,37,450.9,37c0.833,0,1.583,0.867,2.25,2.6c0.699,1.833,0.5,3.216-0.601,4.15
		C451.517,44.616,450.367,44.733,449.1,44.1z"/>
	<path style="fill-rule:evenodd;clip-rule:evenodd;fill:#5B554D;" d="M412.1,36c1.834-0.167,2.667,0.567,2.5,2.2
		c-0.166,1.466-0.766,2.533-1.8,3.2c-0.7,0.434-1.533,0.05-2.5-1.15l-1.2-1.9l0.75-1.1C410.517,36.483,411.267,36.067,412.1,36z"/>
	<path style="fill-rule:evenodd;clip-rule:evenodd;fill:#5B554D;" d="M398.1,36.35c1.2-0.9,2.167-0.8,2.9,0.3
		c0.367,0.567,0,1.3-1.1,2.2c-1.101,0.9-1.967,0.95-2.601,0.15C396.6,38.133,396.867,37.25,398.1,36.35z"/>
	<path style="fill-rule:evenodd;clip-rule:evenodd;fill:#5B554D;" d="M330.2,10.35c2.1,0.767,3.05,1.733,2.85,2.9
		c-0.133,0.8-0.866,1.867-2.2,3.2c-0.933,0.933-2.133,1.1-3.6,0.5c-1.3-0.534-2.333-1.383-3.1-2.55
		c-0.733-1.066-0.367-2.167,1.1-3.3C326.75,9.967,328.4,9.717,330.2,10.35z"/>
	<path style="fill-rule:evenodd;clip-rule:evenodd;fill:#5B554D;" d="M314.7,12.4c1.066,0.533,1.2,1.317,0.399,2.35
		c-0.8,1.033-1.833,1.15-3.1,0.35c-1.267-0.8-1.416-1.6-0.45-2.4C312.517,11.933,313.566,11.833,314.7,12.4z"/>
	<path style="fill-rule:evenodd;clip-rule:evenodd;fill:#5B554D;" d="M281.65,14.05c1.966,0,3.033,0.684,3.2,2.05
		c0.133,1.133-0.25,2.15-1.15,3.05c-0.667,0.633-1.8,0.617-3.4-0.05c-1.633-0.7-2.533-1.483-2.7-2.35
		c-0.2-0.933-0.067-1.583,0.4-1.95C278.566,14.3,279.783,14.05,281.65,14.05z"/>
	<path style="fill-rule:evenodd;clip-rule:evenodd;fill:#5B554D;" d="M208.85,15.4l1.45,1.8c0.767,1.333,0.733,2.433-0.1,3.3
		c-0.934,0.9-1.867,0.9-2.8,0c-0.834-0.867-1.25-1.883-1.25-3.05c0-0.967,0.2-1.567,0.6-1.8
		C207.017,15.483,207.717,15.4,208.85,15.4z"/>
	<path style="fill-rule:evenodd;clip-rule:evenodd;fill:#5B554D;" d="M148.5,24.5c1.2,1.067,1.583,2.167,1.15,3.3
		c-0.334,0.967-0.95,1.567-1.851,1.8c-0.767,0.167-1.667-0.067-2.7-0.7c-1.167-0.733-1.833-1.633-2-2.7
		c-0.2-1.333,0.25-2.267,1.35-2.8C145.617,22.8,146.967,23.167,148.5,24.5z"/>
	<path style="fill-rule:evenodd;clip-rule:evenodd;fill:#5B554D;" d="M96.9,38.7c1.033,0.333,1.683,0.683,1.95,1.05
		c0.3,0.367,0.45,1.133,0.45,2.3c0,1.167-0.85,1.467-2.55,0.9c-1.733-0.533-2.684-1.4-2.85-2.6c-0.167-1.1,0.017-1.767,0.55-2
		C94.883,38.15,95.7,38.267,96.9,38.7z"/>
	<path style="fill-rule:evenodd;clip-rule:evenodd;fill:#5B554D;" d="M60.85,28.25c1.4,0.833,1.6,2.267,0.6,4.3
		c-0.5,1-1.15,1.917-1.95,2.75c-0.566-0.066-1.15-0.283-1.75-0.65c-1.233-0.8-2-2.033-2.3-3.7c-0.3-1.934,0.116-3.133,1.25-3.6
		C57.767,26.917,59.15,27.217,60.85,28.25z"/>
	<path style="fill-rule:evenodd;clip-rule:evenodd;fill:#5B554D;" d="M53.75,41.7c0.7,0.434,0.917,1.133,0.65,2.1
		c-0.134,0.467-0.351,0.9-0.65,1.3c-0.867,0-1.867-0.566-3-1.699c-0.767-0.767-0.617-1.351,0.45-1.75
		C52.233,41.283,53.083,41.3,53.75,41.7z"/>
	<path style="fill-rule:evenodd;clip-rule:evenodd;fill:#5B554D;" d="M15.7,29.6c1.3,0.133,1.95,0.85,1.95,2.15
		c-0.034,1.3-0.584,2.033-1.65,2.2c-0.833,0.133-1.75-0.217-2.75-1.05l-1.3-1.3l1.1-1.1C13.95,29.767,14.833,29.467,15.7,29.6z"/>
	<path style="fill-rule:evenodd;clip-rule:evenodd;fill:#514C45;" d="M518.45,34.3c2.634-0.133,3.917,0.45,3.85,1.75
		c-0.1,1.2-1.083,2.2-2.95,3c-1.366,0.6-2.566,0.317-3.6-0.85l-1.15-1.95l0.95-0.9C516.383,34.717,517.35,34.367,518.45,34.3z"/>
	<path style="fill-rule:evenodd;clip-rule:evenodd;fill:#514C45;" d="M549.15,60.55c1.3,0.134,2.116,0.917,2.449,2.351
		c0.167,0.733,0.2,1.433,0.101,2.1c-1.5,0-2.884-0.316-4.15-0.95c-0.899-0.467-1.083-1.184-0.55-2.149
		C547.533,60.934,548.25,60.483,549.15,60.55z"/>
	<path style="fill-rule:evenodd;clip-rule:evenodd;fill:#514C45;" d="M479.45,20.6c1.134,0.633,1.616,1.333,1.45,2.1
		c-0.167,0.733-0.834,1.25-2,1.55c-1.101,0.233-1.917,0.167-2.45-0.2c-0.5-0.333-0.817-0.966-0.95-1.9
		c-0.166-1.033,0.066-1.75,0.7-2.15C476.934,19.567,478.017,19.767,479.45,20.6z"/>
	<path style="fill-rule:evenodd;clip-rule:evenodd;fill:#514C45;" d="M449.5,44.2c-0.666-0.334-1.566-1.033-2.7-2.101
		c-0.767-0.7-0.6-1.566,0.5-2.6c1.101-1,2.367-1.5,3.8-1.5c0.768,0,1.45,0.75,2.051,2.25c0.633,1.6,0.467,2.8-0.5,3.6
		C451.717,44.616,450.667,44.733,449.5,44.2z"/>
	<path style="fill-rule:evenodd;clip-rule:evenodd;fill:#514C45;" d="M410.1,37.75c0.634-0.667,1.351-1.033,2.15-1.1
		c1.7-0.133,2.483,0.517,2.35,1.95c-0.133,1.3-0.699,2.233-1.699,2.8c-0.667,0.367-1.45,0.033-2.351-1l-1.149-1.65L410.1,37.75z"/>
	<path style="fill-rule:evenodd;clip-rule:evenodd;fill:#514C45;" d="M398.3,36.75c1.167-0.833,2.083-0.75,2.75,0.25
		c0.333,0.5-0.017,1.167-1.05,2c-1.033,0.8-1.833,0.85-2.4,0.15C396.934,38.35,397.167,37.55,398.3,36.75z"/>
	<path style="fill-rule:evenodd;clip-rule:evenodd;fill:#514C45;" d="M330.85,11.95c1.634,0.566,2.367,1.316,2.2,2.25
		c-0.066,0.6-0.633,1.417-1.7,2.45c-0.699,0.733-1.633,0.867-2.8,0.4c-1.033-0.433-1.85-1.1-2.45-2
		c-0.566-0.8-0.283-1.633,0.851-2.5C328.117,11.683,329.417,11.483,330.85,11.95z"/>
	<path style="fill-rule:evenodd;clip-rule:evenodd;fill:#514C45;" d="M314.7,12.4c1.066,0.533,1.2,1.317,0.399,2.35
		c-0.8,1.033-1.833,1.15-3.1,0.35c-1.267-0.8-1.416-1.6-0.45-2.4C312.517,11.933,313.566,11.833,314.7,12.4z"/>
	<path style="fill-rule:evenodd;clip-rule:evenodd;fill:#514C45;" d="M282.1,15.1c1.667,0,2.567,0.55,2.7,1.65
		c0.134,0.9-0.183,1.717-0.95,2.45c-0.567,0.533-1.55,0.517-2.95-0.05c-1.367-0.533-2.134-1.15-2.3-1.85
		c-0.167-0.767-0.05-1.3,0.35-1.6C279.417,15.3,280.467,15.1,282.1,15.1z"/>
	<path style="fill-rule:evenodd;clip-rule:evenodd;fill:#514C45;" d="M209.45,16.75l1.05,1.35c0.6,1.066,0.583,1.917-0.05,2.55
		c-0.7,0.7-1.4,0.7-2.1,0c-0.633-0.667-0.95-1.45-0.95-2.35c0-0.733,0.149-1.183,0.45-1.35
		C208.05,16.817,208.583,16.75,209.45,16.75z"/>
	<path style="fill-rule:evenodd;clip-rule:evenodd;fill:#514C45;" d="M148.85,25.3c0.9,0.9,1.183,1.833,0.85,2.8
		c-0.267,0.8-0.733,1.3-1.4,1.5c-0.566,0.133-1.25-0.067-2.05-0.6c-0.867-0.567-1.35-1.317-1.45-2.25c-0.133-1.133,0.2-1.917,1-2.35
		C146.667,23.9,147.684,24.2,148.85,25.3z"/>
	<path style="fill-rule:evenodd;clip-rule:evenodd;fill:#514C45;" d="M97.5,39.55c0.8,0.267,1.3,0.55,1.5,0.85
		c0.2,0.333,0.3,0.967,0.3,1.9c0,0.934-0.649,1.184-1.95,0.75c-1.267-0.434-1.983-1.133-2.15-2.1c-0.134-0.934,0-1.483,0.4-1.65
		C95.934,39.133,96.566,39.217,97.5,39.55z"/>
	<path style="fill-rule:evenodd;clip-rule:evenodd;fill:#514C45;" d="M60.95,29.7c1.267,0.667,1.45,1.8,0.55,3.4l-1.75,2.2
		c-0.5-0.033-1.033-0.2-1.6-0.5c-1.101-0.633-1.784-1.617-2.05-2.95c-0.3-1.533,0.083-2.483,1.15-2.85
		C58.217,28.667,59.45,28.9,60.95,29.7z"/>
	<path style="fill-rule:evenodd;clip-rule:evenodd;fill:#514C45;" d="M54.1,42.75c0.533,0.333,0.683,0.866,0.45,1.6
		c-0.1,0.334-0.25,0.65-0.45,0.95c-0.667,0-1.417-0.416-2.25-1.25c-0.6-0.6-0.5-1.033,0.3-1.3C52.95,42.45,53.6,42.45,54.1,42.75z"
		/>
	<path style="fill-rule:evenodd;clip-rule:evenodd;fill:#514C45;" d="M16.25,30.5c0.9,0.133,1.35,0.733,1.35,1.8
		c0,1.034-0.367,1.617-1.1,1.75c-0.566,0.133-1.217-0.15-1.95-0.85l-0.899-1.05l0.8-0.9C15.083,30.683,15.684,30.433,16.25,30.5z"/>
</g>
</svg>
