<?xml version="1.0" encoding="iso-8859-1"?>
<!-- Generator: Adobe Illustrator 15.1.0, SVG Export Plug-In . SVG Version: 6.00 Build 0)  -->
<!DOCTYPE svg PUBLIC "-//W3C//DTD SVG 1.1//EN" "http://www.w3.org/Graphics/SVG/1.1/DTD/svg11.dtd">
<svg version="1.1" id="FlashAICB" xmlns="http://www.w3.org/2000/svg" xmlns:xlink="http://www.w3.org/1999/xlink" x="0px" y="0px"
	 width="148.85px" height="366px" viewBox="0 0 148.85 366" style="enable-background:new 0 0 148.85 366;" xml:space="preserve">
<path style="fill-rule:evenodd;clip-rule:evenodd;fill:#613A22;" d="M92.55,17.85c-0.059,0.968,0.508,1.551,1.7,1.75
	c1.434,0.233,2.2-0.3,2.3-1.6c0.044-0.861-0.206-1.494-0.75-1.9c-0.059-1.033-0.658-1.666-1.8-1.9
	c-1.033-0.233-1.717,0.316-2.05,1.65C91.683,16.799,91.883,17.465,92.55,17.85z M100.65,36.85c0.199,1.267,0.466,2.433,0.8,3.5
	l1.95-1.45l2.449-5.45l3.5-2L113.3,31l-4.95-3c-1.833,0.5-3.199,0.9-4.1,1.2c-1.6,0.5-2.7,1.25-3.3,2.25
	C100.316,32.483,100.217,34.283,100.65,36.85z M82.9,45.3c-0.733,4.4-1.967,8.35-3.7,11.85c-0.233,0.5-1.566,1.533-4,3.1
	c-2,1.267-3.133,3.2-3.4,5.8c-0.3,2.767-2.216,5.15-5.75,7.15c-3.833,1.667-6.117,2.75-6.85,3.25c-2.1,1.367-4.2,2.35-6.3,2.95
	c-3.267,0.9-5.367,0.4-6.3-1.5l-2.25-4.45L46.3,78c1.6,3.367,3.184,5.817,4.75,7.35c1.233,1.233,3.2,2.783,5.9,4.65
	c2.167,1.933,3.4,4.583,3.7,7.95c0.3,3.4,1.633,6.883,4,10.45c1.167,1.8,2.3,3.25,3.4,4.35l5.65-7.05
	c3.866-5.167,5.95-8.983,6.25-11.45c0.3-2.633,0.35-5.483,0.149-8.55C80,83.967,79.7,81.133,79.2,77.2
	c-0.3-2.467-0.517-4.817-0.65-7.05l-0.1-2.6l5.2-8.15c1.966-3.066,2.949-7.267,2.949-12.6c0-6.9-0.5-14.816-1.5-23.75
	c-0.333-3.133-0.716-1-1.149,6.4C83.384,39.183,83.033,44.467,82.9,45.3z M111.3,44.3c1.334,0,2.816-0.316,4.45-0.95l-2.45-8.9
	l-0.5,2.95l-4.45,4.45l-4.449,0.5l2.949,1C109.017,43.983,110.5,44.3,111.3,44.3z M129.1,80.4c1.367-1.167,1.983-2.566,1.851-4.2
	c-0.233-2.767-0.351-4.167-0.351-4.2c0.301-1.967-0.866-7.9-3.5-17.8v11.85c0,5.3-0.816,8.767-2.449,10.4
	c-1.233,1.466-2.267,2.5-3.101,3.1c-1.434,1-3.2,1.284-5.3,0.85c-2.066-0.4-5.233-0.933-9.5-1.6l-5.8-0.9l-2-10.55l1,2.65
	c0.166-0.9,0.416-1.9,0.75-3c0.666-2.233,1.399-3.867,2.2-4.9c0.833-1.033,2.083-1.917,3.75-2.65c0.8-0.367,1.533-0.633,2.199-0.8
	l6.4-2c0.5-0.133,1.3-0.517,2.4-1.15c1.166-0.533,2.35-0.8,3.55-0.8c1.233,0,2.434-0.4,3.6-1.2c0.566-0.433,1.017-0.85,1.351-1.25
	c-1.067-0.167-2.384-0.267-3.95-0.3c-3.134-0.1-5.934,0.15-8.4,0.75l-13.35,4.45L98.9,60.1c-0.407,1.054-0.665,2.037-0.775,2.95
	L97.95,62.1l0.149,1.275l0.351,2.675L97.85,68.9c-0.5,2.133-0.949,3.817-1.35,5.05c-0.4,1.167-0.283,3.033,0.35,5.6
	c0.733,2.967,1.101,4.567,1.101,4.8c0,0.8,0.75,1.617,2.25,2.45c0.733,0.434,1.467,0.767,2.2,1l2.35,1.9
	c1.667,1.4,2.7,2.417,3.1,3.05c0.601,0.9,2.4,1.267,5.4,1.1c3.2-0.167,5.35-1.033,6.45-2.6c2.086-2.886,4.028-5.319,5.825-7.3
	c0.403-0.089,0.878-0.189,1.425-0.3C127.983,83.45,128.7,82.367,129.1,80.4z M100.05,95.325c-0.516-1.942-1.866-2.8-4.05-2.575
	c-2.167,0.233-3.717,0.95-4.65,2.15c-0.878,1.139-0.837,2.214,0.125,3.225c0.05,0.532,0.325,1.041,0.825,1.525
	c1.167,1.167,2.4,2,3.7,2.5c1.566,0.567,2.8,0.4,3.7-0.5c1.166-1.167,1.533-2.717,1.1-4.65
	C100.646,96.315,100.396,95.757,100.05,95.325z M137.75,33.45c2.866,8.333,4.85,22.45,5.95,42.35c0.467,7.934,0.95,24.7,1.45,50.3
	c0.267,11.867,1.166,42.733,2.699,92.6c1.233,46.2,1.317,74.633,0.25,85.3c-1.5,15.434-4.916,27.533-10.25,36.3
	c-5.566,9.066-14,15.983-25.3,20.75c-10.934,4.601-24.916,5.983-41.95,4.15c-15.867-1.667-28.567-5.283-38.1-10.851
	c-7.567-4.399-13.533-13.283-17.9-26.649c-1.467-4.5-3.117-10.684-4.95-18.55c-2.4-10.367-3.933-16.784-4.6-19.25
	c-2.9-10.934-4.55-26.4-4.95-46.4c-0.233-10.4-0.05-26.066,0.55-47c1.7-62.633,2.934-105.867,3.7-129.7
	c0.367-12.367,2.333-23.133,5.9-32.3c4-10.333,9.683-17.6,17.05-21.8C33.767,9,40.217,6.033,46.65,3.8
	c6.567-2.3,12.233-3.533,17-3.7C82.583-0.633,99,2.333,112.9,9C125.967,15.267,134.25,23.417,137.75,33.45z M68.8,20.1
	c-1.633,1.333-2.783,2.483-3.45,3.45c-1.967,2.967-2.95,5.117-2.95,6.45c0,1.3,0.483,6.233,1.45,14.8c1.667-8.867,3-14.633,4-17.3
	c0.633-1.7,1.783-2.933,3.45-3.7c1.067-0.5,2.217-0.75,3.45-0.75c0.967,0,3.1-0.816,6.4-2.45l-3.45-1c-0.634,0.2-2.3,0.35-5,0.45
	L68.8,20.1z M46.1,21.05c-0.867,4.7-1.45,8.583-1.75,11.65c-0.4,4-1.017,7.117-1.85,9.35c-0.933,2.6-2.283,4.434-4.05,5.5
	c-2.233,1.467-3.85,2.483-4.85,3.05c-1.633,0.933-3.233,1.4-4.8,1.4h-3.7l2.5,2.7c2.333,1.6,5.2,1.933,8.6,1
	c3.566-1,6.35-2.767,8.35-5.3c1.333-1.667,2.25-3.617,2.75-5.85c0.5-1.833,0.883-3.283,1.15-4.35c0.4-1.8,0.767-3.8,1.1-6
	c0.633-4.4-0.117-10.833-2.25-19.3L46.1,21.05z M45.1,17.65l-7.4-3.45l-9.9,5.9l-7.4,9.4l1.05,6.05c0.733,1.333,2.033,0.967,3.9-1.1
	c0.8-0.9,2.017-2.617,3.65-5.15c0.633-1,1.717-1.6,3.25-1.8l7.9-0.95c-0.167-0.667-0.2-1.433-0.1-2.3
	c0.167-1.733,0.867-3.117,2.1-4.15L45.1,17.65z M76.7,44.8l-6.9,3l-11.85,1.95l-0.5,8.9l1.6-3.05c1.333-2.033,2.617-3.15,3.85-3.35
	c1-0.167,2.65-0.433,4.95-0.8c2.033-0.367,3.667-0.767,4.9-1.2c1.267-0.4,2.3-1.433,3.1-3.1C76.25,46.317,76.533,45.533,76.7,44.8z
	 M23.85,42.05c-1.133,0.467-1.8,1.217-2,2.25c-0.3,1.667,0.033,4.15,1,7.45c-0.233-1.233-0.184-2.5,0.15-3.8
	c0.667-2.534,2.433-3.9,5.3-4.1c2.867-0.2,4.967-1,6.3-2.4c0.667-0.7,1.033-1.383,1.1-2.05c-3.934,0.3-6.733,0.783-8.4,1.45
	C25.667,41.35,24.517,41.75,23.85,42.05z M25.425,73.7c-0.021,0.772,0.354,1.356,1.125,1.75c1.7,0.833,3.434,0.316,5.2-1.55
	c1.421-1.473,1.563-2.79,0.425-3.95c-0.058-0.872-0.699-1.672-1.925-2.4c-1.5-0.9-2.983-0.25-4.45,1.95
	C24.454,71.504,24.329,72.904,25.425,73.7z M36.7,91.75l3.45,1L27.8,87.3c-1.233,1.034-2.667,2.333-4.3,3.9l-2.1,2.05l-2,8.9
	l2.45,3.95c0.5-1.633,1.05-3.367,1.65-5.2c1.167-3.633,1.95-5.85,2.35-6.65c0.433-0.867,1.167-1.467,2.2-1.8
	c0.267-0.1,1.5-0.333,3.7-0.7C33.717,91.417,35.367,91.417,36.7,91.75z M62.35,68.35c1.233,0.1,2.566-0.167,4-0.8
	c2.3-1,4.117-2.316,5.45-3.95l-5.45-1c-1,0-3.8,0.333-8.4,1c-1.434,0.2-2.767,0.5-4,0.9l-1.45,0.55l-7.4,5.45l3.45,3.95l2.15-0.7
	c1.566-0.567,2.667-1.15,3.3-1.75c0.967-1,3.267-2.317,6.9-3.95L62.35,68.35z M42.6,98.25c-0.667,1.4-1.817,2.2-3.45,2.4
	c-2.3,0.1-3.833,0.184-4.6,0.25c-1.233,0.133-2.167,0.717-2.8,1.75l-3.45,5.4l-2.95,1L29.8,114l3.45,0.5l6.9-2.5l4.95-3.45l-2-12.35
	C43.1,96.867,42.933,97.55,42.6,98.25z M77.2,122.9l1.95,3.6l-0.45-0.15l1.649,2.6c0.13,0.169,0.264,0.336,0.4,0.5l3.4,6.3
	l5.399,2.95l8.9-8.9l3-11.85l-2.5,4.45L88.6,128.3L77.2,122.9c1.5,0.167,4.184,0.767,8.05,1.8c3.434,0.667,5.866,0.383,7.3-0.85
	c2.3-1.967,4.601-3.434,6.9-4.4l-11.351-3.5c-1.033,0.433-3,1.066-5.899,1.9l-4,1.1c-0.9,0.566-1.617,1.167-2.15,1.8
	C74.95,121.983,75.333,122.7,77.2,122.9z M92.425,149.525c0.038,0.011,0.08,0.02,0.125,0.025c1.733,0.233,3.584-0.216,5.55-1.35
	c1.101-0.633,2.7-1.817,4.801-3.55c1.3-1.1,2.383-2.467,3.25-4.1c0.333-0.566,1.066-2.167,2.199-4.8
	c0.601-1.467,0.617-3.3,0.051-5.5l-1.051-2.9l-4.949,8.4L97,138.2c-2.333,0.667-4.816,0.833-7.45,0.5
	c-1.633-0.2-3.033,0.233-4.2,1.3l-4.199,5.1L85.1,156l10.4,4.45l9.4-6.45c0.633-0.433,1.866-2.15,3.699-5.15
	c1.434-2.434,2.667-4.667,3.7-6.7c0.634-1.233,0.65-4.483,0.05-9.75l-1.05-7.55v9.9c-1,4.6-1.983,7.4-2.95,8.4
	c-1,1-5.449,3.467-13.35,7.4L92.425,149.525z M56.95,127.35l-6.9-2c-3.966,1-7.433,1.983-10.4,2.95
	c-1.867,0.633-3.566,1.483-5.1,2.55l-1.8,1.4c-1.3,1.233-2.617,2.75-3.95,4.55c-2.633,3.534-3.95,6.633-3.95,9.3
	c0,4.3,0.167,9.083,0.5,14.35c0.5-2.467,1.1-5.1,1.8-7.9c1.367-5.633,2.567-9.267,3.6-10.9c1.2-1.9,2.8-3.566,4.8-5
	c1.833-1.333,3.534-2.133,5.1-2.4c1.3-0.233,2.55-0.767,3.75-1.6c0.767-0.533,1.65-1.316,2.65-2.35
	c0.633-0.633,2.467-1.316,5.5-2.05C54.083,127.883,55.55,127.583,56.95,127.35z M54,160.45c0.113-0.234,0.247-0.501,0.4-0.8
	c0.491-0.91,1.191-2.11,2.1-3.6c1.1-1.9,1.917-3.233,2.45-4c0.433-0.667,0.8-2.2,1.1-4.6c0.233-2,0.35-3.767,0.35-5.3
	c0-1.033-0.566-3.8-1.7-8.3l-1.75-6.5l-0.45,5.3c-0.4,3.934-0.9,6.934-1.5,9L48.05,155l-1.15,4.75c-1.066,3.233-2.333,4.95-3.8,5.15
	c-2.633,0.333-4.65,0.6-6.05,0.8c-2.5,0.367-4.267,0.75-5.3,1.15c-1.033,0.433-2.65,1.467-4.85,3.1l-3.05,2.35l3.5-1.05l12.35-1.1
	c1.295,6.382,1.778,10.065,1.45,11.05c-0.333,0.966-1,3.267-2,6.899c-0.333,1-4.767,2.65-13.3,4.95l-7.45-5.45l7.9-0.5l4.95-6.399
	l5.45-4.95l-2.45-3.45h-10.4l-3.45,3.95L19.9,178c-0.333,1.3-0.5,2.367-0.5,3.2c0,1.3-0.333,3.434-1,6.399l1.7,3.301
	c0.447,0.809,0.897,1.584,1.35,2.324l-0.55-0.175l0.725,0.476c0.901,1.457,1.81,2.782,2.725,3.975c1.433,1.866,3.183,3.333,5.25,4.4
	c1.033,0.533,1.917,0.883,2.65,1.05l12.35-1.5l2.05-2.3c1.4-2.034,2.2-4.4,2.4-7.101c0.2-2.666,0.6-6.184,1.2-10.55l0.8-5.75
	c0.333-2.233,0.7-4.533,1.1-6.9C52.983,164.05,53.6,161.25,54,160.45z M29.125,157.975c-0.079,0.589,0.146,0.981,0.675,1.175
	l0.025,0.025c-0.015,0.618,0.21,1.043,0.675,1.275c1.467,0.733,2.983,0.466,4.55-0.8c1.319-1.082,1.377-2.49,0.175-4.225
	c-0.254-0.854-0.913-1.813-1.975-2.875c-0.9-0.9-1.95-0.183-3.15,2.15C29.356,156.146,29.032,157.237,29.125,157.975z M71.6,171.25
	l-2.8,1.55l-0.5,5.9l2,4.45l3.45-5.4l2.25-1.6c1.634-1.167,2.866-1.95,3.7-2.35c1.333-0.7,2.733-1.316,4.2-1.85
	c1.899-0.767,3.3-1.15,4.199-1.15c1.367,0,0.15-0.3-3.649-0.9c-3.634-0.6-6.217-0.783-7.75-0.55
	C75.434,169.517,73.733,170.15,71.6,171.25z M58.725,194.5c-0.631-2.083-2.04-2.899-4.225-2.45c-1.6,0.334-2.717,1.467-3.35,3.4
	c-0.299,0.986-0.408,1.828-0.325,2.524c-0.11,0.851,0.115,1.509,0.675,1.976c0.084,0.067,0.167,0.134,0.25,0.2
	c0.114,0.305,0.28,0.571,0.5,0.8c2.833,2.833,4.983,3.166,6.45,1c1.133-1.7,1.417-3.601,0.85-5.7
	C59.36,195.534,59.085,194.951,58.725,194.5z M71.8,185.15l2.2,1.75c1.833,1.133,3.566,1.699,5.2,1.699H85.6
	c2.267,0,3.517-0.017,3.75-0.05c1.034-0.2,1.767-0.833,2.2-1.899c0.434-1.034,0.4-2.834-0.1-5.4l-0.9-3.5l-3.95,4.9l-7.899,2
	L71.8,185.15z M123.6,111.2l-2.399,1.3l1.45,8.4l2.5-5.45L129.1,113l-0.5-3.45C127.167,109.75,125.5,110.3,123.6,111.2z
	 M124.15,123.4l1.3,1.15c1.066,0.733,2.116,1,3.149,0.8c1.367-0.267,2.2-0.5,2.5-0.7c0.5-0.267,0.983-0.85,1.45-1.75l2-3.95l-2-7.45
	l-1,4.95c-0.333,1.333-1.149,2.816-2.45,4.45l-2.449,1L124.15,123.4z M123.2,142.925c0.156,0.868,0.723,1.443,1.7,1.725
	c2,0.533,3.649-0.25,4.949-2.35c0.834-1.368,0.792-2.493-0.125-3.375c-0.035-1.172-1.061-2.064-3.074-2.675
	c-1.733-0.533-3.017,0.35-3.851,2.65c-0.338,0.946-0.463,1.738-0.375,2.375C122.318,142.029,122.577,142.579,123.2,142.925z
	 M86.85,106.65c-0.139,1.038,0.527,1.671,2,1.9c1.467,0.267,2.284-0.383,2.45-1.95c0.079-0.744-0.029-1.285-0.325-1.625
	c-0.07-0.274-0.203-0.474-0.399-0.6c-0.077-1.043-0.736-1.468-1.976-1.275c-1.5,0.267-2.333,0.933-2.5,2
	C85.991,105.797,86.241,106.314,86.85,106.65z M98.175,192.25c0.296,1.2,0.804,1.8,1.525,1.8c0.967,0,1.633-1.017,2-3.05
	c0.197-1.145-0.012-1.827-0.625-2.05c-0.016-0.056-0.032-0.105-0.05-0.15c-0.005-1.342-0.863-1.742-2.575-1.2
	c-1,0.334-1.367,1.25-1.101,2.75C97.521,191.286,97.795,191.92,98.175,192.25z M87.1,196.5c-0.966,1.467-3,2.983-6.1,4.55l-4.3,1.9
	l-1.45,4.899l0.75,0.5c0.833,0.334,2.066,0.5,3.7,0.5c1.633,0,2.85-0.55,3.649-1.649c0.434-0.634,1.017-1.566,1.75-2.8
	c1-0.967,3.15-2.617,6.45-4.95H95l2.45-0.95c-1.566-0.566-3.167-1.083-4.8-1.55C89.384,196.05,87.533,195.9,87.1,196.5z
	 M114.65,183.3c1.333,1.167,2.366,1.617,3.1,1.351c2.134-0.733,2.85,1.683,2.15,7.25c-0.334,2.767-0.9,5.616-1.7,8.55l-0.45,6.45
	l-8.4,7.399l3.301,0.5c2.466,0.167,4.316-0.166,5.55-1c1.533-1.033,2.666-2.083,3.399-3.149c0.801-1.134,1.317-2.551,1.551-4.25
	l1-7.4l-2.95-9.9c0.899-1.8,1.783-3.899,2.649-6.3c1.733-4.767,2.5-8.6,2.301-11.5c-0.2-2.867-0.434-5.533-0.7-8l-0.3-2.85l-0.5,5.8
	c-0.5,4.1-1.167,6.767-2,8c-0.867,1.333-2.4,2.8-4.601,4.4c-1.899,1.367-3.316,2.217-4.25,2.55
	C113.066,181.467,113.35,182.167,114.65,183.3z M112.55,191.4l-1.25,1.149l-1.95,5.45l0.95,7.4c2.334-2.301,3.5-3.95,3.5-4.95
	c0-0.601,0.25-1.684,0.75-3.25l0.7-2.15v-5.95C114.45,189.733,113.55,190.5,112.55,191.4z M117.25,178.25l4.45-6.45l2.45-6.4
	l-4.45-3.95l-10.351,16.3L117.25,178.25z M129.6,153.05l1.101,4c0.189,0.814,0.331,1.555,0.425,2.225
	c-0.019-0.114-0.044-0.222-0.075-0.325L129.6,153.05l-4.949-1l1,4.45l2.449,4.95v7.4c0.667-1.067,1.284-2.283,1.851-3.65
	c0.954-2.235,1.37-4.035,1.25-5.4c0.177,1.407,0.127,2.44-0.15,3.1c-0.233,0.6-0.217,2.017,0.05,4.25
	c0.134,1.1,0.284,2.15,0.45,3.15l-3.45,10.9c-0.833,0.667-1.6,1.333-2.3,2c-1.399,1.3-1.783,1.95-1.149,1.95
	c1.267,0,3.1-0.233,5.5-0.7c2.933-0.566,4.399-1.167,4.399-1.8V162.4L129.6,153.05z M122.2,216.75l1.95,1.8
	c1.5,1.233,2.649,1.95,3.449,2.15c1.334,0.333,3.65,0.017,6.95-0.95l0.45-7.95c-0.2,1.033-1.15,2.417-2.85,4.15l-2.551,2.3
	L122.2,216.75z M125.8,213.45l-1.649,1.35l2.5,1l1.05-0.5c0.899-0.5,1.866-1.166,2.899-2l2.45-1.95h-4.45
	C127.967,211.75,127.033,212.45,125.8,213.45z M134,243.65c-0.033,1.466-0.017,3.05,0.05,4.75l-10.399,10.35l9.899,3
	c0.4-2.634,0.75-5.483,1.05-8.55c0.567-6.101,0.551-10.167-0.05-12.2C134.184,239.8,134,240.684,134,243.65z M130.4,240.05
	l-1.301-1.55c-0.666,1.967-2.316,5.267-4.949,9.9l-2.45,5.399l2.95,2.5c3.3-3.633,5.283-6.1,5.949-7.399
	c0.634-1.167,1.051-2.017,1.25-2.551c0.334-0.899,0.4-1.866,0.2-2.899S131.3,241.283,130.4,240.05z M96,208.85l-6.95,4.95l-11.85-1
	l-2.45-1.45l1.05,2.75c0.9,1.9,1.867,2.95,2.9,3.15c3.267,0.667,6.066,1,8.399,1c5.267,0,8.567-0.5,9.9-1.5
	c2.967-2.2,4.45-5,4.45-8.4c0-1.866-0.334-3.816-1-5.85l-1-2.55C98.45,203.583,97.3,206.55,96,208.85z M86.1,245.9
	c-0.433,0.666-0.8,2.017-1.1,4.05c-0.233,1.633-0.35,3.083-0.35,4.35c0,0.533-0.351,1.9-1.051,4.101
	c-0.533,1.6-0.517,2.216,0.051,1.85c0.333-0.233,1.733-2.35,4.199-6.35c2.467-4.034,4.351-6.534,5.65-7.5
	c1.233-0.867,2.017-2.15,2.35-3.851c0.301-1.366,0.834-2.05,1.601-2.05c1.033,0,2.416-0.583,4.149-1.75
	c0.867-0.566,1.634-1.15,2.301-1.75l-3.95-0.95c-0.9,0-1.934,0.101-3.101,0.3c-2.3,0.4-4.066,1.117-5.3,2.15
	c-1.2,1.033-2.35,2.4-3.45,4.1C87.1,244.333,86.434,245.434,86.1,245.9z M81.375,295.8l-0.725-0.45l3.149,4
	c1.164,1.425,2.114,2.508,2.851,3.25l2.399,3.101l3.15,1.3c2.566,0.9,4.983,1.45,7.25,1.65c3,0.267,5.267,0.05,6.8-0.65
	c1.833-0.833,2.866-2.417,3.1-4.75c0.2-2.066,0.667-5.25,1.4-9.55l3.05-15.65l-3-10.399c0.667-5.601,1-9.051,1-10.351V249.4
	l-5.95-12.4l-0.949,19.8c-3.634,3.3-5.95,5.267-6.95,5.9c-0.967,0.666-5.4,1.333-13.3,2l3.449,5.45l9.351,0.949l10.899-4.899
	c-0.333,2.3-0.833,6.733-1.5,13.3l-5.399,14.35l-6.95,4.45l-15.8-5.95c1-0.166,3-0.616,6-1.35c2.833-0.6,4.95-0.8,6.35-0.6l3.45,0.5
	c4.934-4.301,7.733-7.101,8.4-8.4l3.949-7.45l-2.449-1.45l-9.4,7.9c-3.3,0.333-6.1,0.667-8.4,1c-1.433,0.2-2.683,0.667-3.75,1.4
	l-1.199,1.05l-1.45,3.95c-0.733,0.666-1.351,1.3-1.851,1.899c-1,1.233-0.883,1.75,0.351,1.55L81.375,295.8z M122.925,283.45
	c-0.094,0.885,0.164,1.493,0.775,1.825c0.174,0.949,0.741,1.508,1.7,1.675c1.566,0.267,2.683-0.767,3.35-3.101
	c0.437-1.608,0.27-2.717-0.5-3.324c-0.095-1.157-0.795-1.815-2.1-1.976c-1.634-0.233-2.667,0.8-3.101,3.101
	C122.918,282.339,122.877,282.938,122.925,283.45z M47.7,204.425c-0.042-0.17-0.091-0.345-0.15-0.524c-0.5-1.5-1.783-1.801-3.85-0.9
	c-1.879,0.801-2.196,1.826-0.95,3.075c-0.019,0.539,0.348,1.13,1.1,1.774c1.633,1.4,2.933,1.733,3.9,1
	c0.9-0.699,1.083-1.85,0.55-3.449C48.161,204.982,47.961,204.657,47.7,204.425z M52.225,245.025
	c-0.409,0.573-1.134,2.766-2.175,6.574c-0.7,2.5-1.367,5.051-2,7.65c-0.9,1.667-1.966,3.316-3.2,4.95
	c-2.467,3.3-4.533,4.95-6.2,4.95c-1.633,0-4.433-0.334-8.4-1l-5.4-1l3.45,2.35c2.467,1.667,4.117,2.7,4.95,3.1
	c1.267,0.667,3.467,1.301,6.6,1.9c3.5,0.7,5.583,0.733,6.25,0.1c0.967-1,3.267-5.283,6.9-12.85c0.333-9.9,0.167-15.5-0.5-16.8
	c-0.049-0.104-0.116-0.112-0.2-0.025l-6.2-0.975l-10.4,1.95l0.5-8.9l-3.45,5.45l-8.9,1l6.9,3.45l4.95-1l-7.9,4.949l-3.45,9.4
	l1.5,4.95l5.9-10.4l3.95-2.45h5.45c0.167-0.566,0.4-1.183,0.7-1.85c0.566-1.3,1.15-2.167,1.75-2.6
	C44.581,247.246,47.456,246.288,52.225,245.025z M23.35,235.05c-0.333,1-0.167,2.15,0.5,3.45l3.95,1l5.45-7.9
	c-2.7,0.233-4.967,0.684-6.8,1.351C24.65,233.583,23.617,234.283,23.35,235.05z M25.825,287.225
	c-0.026,0.408,0.132,0.666,0.475,0.775c0.116,0.038,0.232,0.072,0.35,0.1c-0.185,0.703-0.051,1.137,0.4,1.301
	c1,0.333,1.917,0.083,2.75-0.75c0.92-0.921,0.854-2.129-0.2-3.625c-0.138-0.487-0.404-1.012-0.8-1.575c-0.533-0.7-1.267-0.2-2.2,1.5
	C26.052,285.967,25.794,286.726,25.825,287.225z M67.575,255.7c-0.059-0.131-0.117-0.265-0.175-0.4c-1.033-2.434-2.7-3.416-5-2.95
	c-4.367,0.867-5.683,2.351-3.95,4.45l0.025,0.025c0.057,0.444,0.299,0.919,0.725,1.425c1.2,1.467,2.6,2.467,4.2,3
	c1.5,0.5,2.9,0.5,4.2,0c1.4-0.566,1.583-2.05,0.55-4.45C67.971,256.393,67.78,256.025,67.575,255.7z M52.625,329.725L54.5,329.4
	l0.725-1.301c0.271-0.222,0.513-0.438,0.725-0.649l0.35-1.325l3.1-5.575l-2.45-17.8l-2.45,7.9c-1,0.1-1.883,0.233-2.65,0.399
	c-1.567,0.334-1.833,0.7-0.8,1.101l-3.5,10.35l-6.4,1.5l-12.35-5.95l3.45,8.4l7.4,5.45l6.45-1.075c0.486,0.05,0.97,0.075,1.45,0.075
	C49.274,330.9,50.965,330.509,52.625,329.725z M45.6,300.3l-3.45,0.45l-3,3l-3.95,5.4l4.95-2.75c3.467-1.9,5.617-2.95,6.45-3.15
	c1.3-0.333,3.767-0.5,7.4-0.5l-3.45-2.95C49.717,299.8,48.067,299.967,45.6,300.3z M74.25,331.4l-6.4,6.899l0.45,3.5l9.4-5.45
	l3.95-0.5c3.966-2.966,6.283-5.116,6.949-6.449c0.4-0.801-0.383-1.367-2.35-1.7l-3.1-0.25c-0.834,0.2-2.567,0.916-5.2,2.149
	L74.25,331.4z M30.75,318.05l3,0.05c2.133-0.066,3.617-0.416,4.45-1.05c1.3-0.967,4.417-3.1,9.35-6.399l-7.9,1.5l-5.4,1.949
	L30.75,318.05z M75.75,350.2h14.8l3.45-4.95l-1.95-16.3l-3,10.85l-6.899,4.45l-13.851-1L75.75,350.2z M134.05,300.75l3.95-1.45
	c-0.733-0.5-1.55-0.816-2.45-0.95c-1.833-0.267-3.166,0.534-4,2.4c-0.333,0.767-0.75,2.15-1.25,4.15c-0.267,1-0.5,1.933-0.7,2.8
	l-4.949,7.899l-6.9,6.4h5.9c1.033,0,2.916-1.316,5.649-3.95c1.367-1.3,2.617-2.616,3.75-3.95c0.667-2.3,1-4.116,1-5.449V300.75z
	 M135.7,307.55c-0.3,3.134-0.533,6.467-0.7,10l-9.85,9.9l-4.95,0.5l2.149,1.8c1.733,1.233,3.317,1.95,4.75,2.15
	c1.467,0.199,3.067,0.1,4.801-0.301c0.866-0.199,1.583-0.433,2.149-0.699c1.233-3.534,2.316-7.417,3.25-11.65
	c1.9-8.5,2.134-14.5,0.7-18C137.134,299.184,136.366,301.283,135.7,307.55z M94.425,327.325c-0.254,0.927,0.188,1.469,1.325,1.625
	c1.866,0.233,3.3-0.233,4.3-1.4c0.88-0.989,0.838-1.965-0.125-2.925c-0.024-0.713-0.517-1.421-1.475-2.125
	c-1.2-0.866-2.5-0.316-3.9,1.65C93.331,325.863,93.289,326.921,94.425,327.325z M101.575,337.4
	c-0.032,0.835,0.659,1.635,2.075,2.399c2.5,1.367,4.949,2.084,7.35,2.15c2.1,0.066,3.434-0.316,4-1.15c0.6-0.934,0.316-2.5-0.85-4.7
	c-0.07-0.133-0.137-0.267-0.2-0.399c-0.159-0.343-0.343-0.709-0.55-1.101c-1.233-2.366-2.75-3.433-4.551-3.199
	c-2.833,0.366-5.083,1.216-6.75,2.55C100.599,335.167,100.423,336.317,101.575,337.4z"/>
<path style="fill-rule:evenodd;clip-rule:evenodd;fill:#55351E;" d="M92.55,17.85c0.256,0.137,0.572,0.237,0.95,0.3
	c1.467,0.233,2.233-0.3,2.3-1.6c0.013-0.159,0.013-0.309,0-0.45c0.544,0.406,0.794,1.039,0.75,1.9c-0.1,1.3-0.866,1.833-2.3,1.6
	C93.058,19.401,92.491,18.818,92.55,17.85z M111.3,44.3c-0.8,0-2.283-0.316-4.45-0.95l-2.949-1l4.449-0.5l4.45-4.45l0.5-2.95
	l2.45,8.9C114.116,43.983,112.634,44.3,111.3,44.3z M82.9,45.3c0.133-0.833,0.483-6.117,1.05-15.85c0.434-7.4,0.816-9.534,1.149-6.4
	c1,8.934,1.5,16.85,1.5,23.75c0,5.333-0.983,9.534-2.949,12.6l-5.2,8.15l0.1,2.6c0.134,2.233,0.351,4.583,0.65,7.05
	c0.5,3.933,0.8,6.767,0.899,8.5c0.2,3.066,0.15,5.917-0.149,8.55c-0.3,2.467-2.384,6.283-6.25,11.45l-5.65,7.05
	c-1.1-1.1-2.233-2.55-3.4-4.35c-2.367-3.566-3.7-7.05-4-10.45c-0.3-3.367-1.533-6.017-3.7-7.95c-2.7-1.867-4.667-3.417-5.9-4.65
	c-1.566-1.533-3.15-3.983-4.75-7.35l-1.95-4.55l2.25,4.45c0.933,1.9,3.033,2.4,6.3,1.5c2.1-0.6,4.2-1.583,6.3-2.95
	c0.733-0.5,3.017-1.583,6.85-3.25c3.534-2,5.45-4.383,5.75-7.15c0.267-2.6,1.4-4.533,3.4-5.8c2.434-1.567,3.767-2.6,4-3.1
	C80.934,53.65,82.167,49.7,82.9,45.3z M98.95,67.35l2,10.55l5.8,0.9c4.267,0.667,7.434,1.2,9.5,1.6c2.1,0.434,3.866,0.15,5.3-0.85
	c0.834-0.6,1.867-1.633,3.101-3.1c1.633-1.633,2.449-5.1,2.449-10.4V54.2c2.634,9.9,3.801,15.833,3.5,17.8
	c0,0.033,0.117,1.433,0.351,4.2c0.133,1.633-0.483,3.033-1.851,4.2c0.434-2.066,0.733-4.5,0.9-7.3l0.1-3.6
	c-0.566,1-1.183,2.1-1.85,3.3c-1.3,2.367-2.167,4.067-2.6,5.1c-0.5,1.233-1.434,2.317-2.801,3.25c-1.333,0.9-2.866,1.467-4.6,1.7
	c-1.233,0.167-2.384,0.066-3.45-0.3c-1.3-0.466-2.467-0.7-3.5-0.7c-1.434,0-2.85,0.083-4.25,0.25l-1.649,0.25l4.449,3l7.9,1.45
	l2.05-0.65c1.533-0.566,2.816-1.167,3.851-1.8c0.049-0.025,0.674-0.158,1.875-0.4c-1.797,1.98-3.739,4.414-5.825,7.3
	c-1.101,1.567-3.25,2.433-6.45,2.6c-3,0.167-4.8-0.2-5.4-1.1c-0.399-0.633-1.433-1.65-3.1-3.05l-2.35-1.9
	c-0.733-0.233-1.467-0.566-2.2-1c-1.5-0.833-2.25-1.65-2.25-2.45c0-0.233-0.367-1.833-1.101-4.8c-0.633-2.566-0.75-4.433-0.35-5.6
	c0.4-1.233,0.85-2.917,1.35-5.05l0.601-2.85L98.95,67.35z M98.125,63.05c-0.009,0.111-0.017,0.219-0.025,0.325L97.95,62.1
	L98.125,63.05z M100.225,97.575c0.069-0.614,0.027-1.289-0.125-2.025c-0.017-0.077-0.033-0.151-0.05-0.225
	c0.346,0.432,0.596,0.99,0.75,1.675c0.434,1.933,0.066,3.483-1.1,4.65c-0.9,0.9-2.134,1.067-3.7,0.5c-1.3-0.5-2.533-1.333-3.7-2.5
	c-0.5-0.484-0.775-0.993-0.825-1.525c0.026,0.026,0.051,0.051,0.075,0.075c1.167,1.167,2.4,1.983,3.7,2.45
	c0.71,0.257,1.352,0.365,1.925,0.325c0.825,0.108,1.5-0.1,2.025-0.625C99.972,99.633,100.313,98.708,100.225,97.575z M46.1,21.05
	l1.2-6.15c2.133,8.467,2.883,14.9,2.25,19.3c-0.333,2.2-0.7,4.2-1.1,6c-0.267,1.066-0.65,2.517-1.15,4.35
	c-0.5,2.233-1.417,4.184-2.75,5.85c-2,2.533-4.783,4.3-8.35,5.3c-3.4,0.933-6.267,0.6-8.6-1L25.1,52h3.7
	c1.567,0,3.167-0.467,4.8-1.4c1-0.567,2.617-1.583,4.85-3.05c1.767-1.066,3.117-2.9,4.05-5.5c0.833-2.233,1.45-5.35,1.85-9.35
	C44.65,29.633,45.233,25.75,46.1,21.05z M32.1,70.7c0.069-0.252,0.094-0.502,0.075-0.75c1.138,1.16,0.996,2.477-0.425,3.95
	c-1.767,1.867-3.5,2.383-5.2,1.55c-0.771-0.394-1.146-0.978-1.125-1.75c0.114,0.082,0.239,0.157,0.375,0.225
	c0.018,0.009,0.035,0.018,0.05,0.025c0.118,0.074,0.251,0.141,0.4,0.2c1.567,0.633,3.183,0.25,4.85-1.15
	C32.104,72.173,32.438,71.406,32.1,70.7z M53.5,80.9l-4.45,0.95l1.45,1.2c1.233,0.9,2.567,1.667,4,2.3
	c1.167,0.5,2.133,1.117,2.9,1.85c0.633,0.333,1.967,0.2,4-0.4c2.067-0.6,4.75-2.017,8.05-4.25c1.633-1.1,3.066-2.15,4.3-3.15
	c0.667-0.4,1.167-0.883,1.5-1.45c0.634-1.167,0.134-2.167-1.5-3c-2.1-1.034-3.633-1.6-4.6-1.7c-1.167-0.133-2.1,0.267-2.8,1.2
	c-0.633,0.833-1.75,1.533-3.35,2.1c-1.867,0.6-3.217,1.05-4.05,1.35c-1.034,0.434-2.25,1.067-3.65,1.9L53.5,80.9z M42.6,98.25
	c0.333-0.7,0.5-1.383,0.5-2.05l2,12.35L40.15,112l-6.9,2.5L29.8,114l-4.45-4.95l2.95-1l3.45-5.4c0.633-1.033,1.567-1.617,2.8-1.75
	c0.767-0.066,2.3-0.15,4.6-0.25C40.783,100.45,41.933,99.65,42.6,98.25z M80.75,129.45c1.27,1.537,2.569,2.487,3.9,2.85
	c1.166,0.333,2.983,0.95,5.449,1.85c2,0.567,3.301,0.434,3.9-0.4c1-1.3,2-3.6,3-6.9l-4.95,1.95H86.1l-6.949-2.3l-1.95-3.6
	l11.399,5.4l10.351-5.9l2.5-4.45l-3,11.85l-8.9,8.9l-5.399-2.95L80.75,129.45z M81.15,145.1l4.199,2.05
	c3.08,1.361,5.438,2.153,7.075,2.375L95,150.55c7.9-3.933,12.35-6.4,13.35-7.4c0.967-1,1.95-3.8,2.95-8.4v-9.9l1.05,7.55
	c0.601,5.267,0.584,8.517-0.05,9.75c-1.033,2.033-2.267,4.267-3.7,6.7c-1.833,3-3.066,4.717-3.699,5.15l-9.4,6.45L85.1,156
	L81.15,145.1z M54.4,159.65c-0.012-0.482-0.211-1.182-0.6-2.1L52.5,155l1.05-2.45c0.9-1.833,1.867-3.15,2.9-3.95
	c1.033-0.833,1.683-1.9,1.95-3.2l0.05-1.75c0.2-2.467,0.017-5.433-0.55-8.9l-0.95-4.45l-0.05,3.85c-0.1,2.8-0.25,4.817-0.45,6.05
	c-0.333,1.966-1.983,4.917-4.95,8.85l-1.45,4.45c-1,2.967-2.483,6.767-4.45,11.4c-1.967,0.333-4.6,0.65-7.9,0.95
	c-2.067,0.2-4.5,1.167-7.3,2.9l-3.6,2.55l0.55-0.05l-3.5,1.05l3.05-2.35c2.2-1.633,3.817-2.667,4.85-3.1
	c1.033-0.4,2.8-0.783,5.3-1.15c1.4-0.2,3.417-0.467,6.05-0.8c1.467-0.2,2.733-1.917,3.8-5.15l1.15-4.75L55,141.65
	c0.6-2.066,1.1-5.066,1.5-9l0.45-5.3l1.75,6.5c1.133,4.5,1.7,7.267,1.7,8.3c0,1.533-0.117,3.3-0.35,5.3
	c-0.3,2.4-0.667,3.933-1.1,4.6c-0.534,0.767-1.35,2.1-2.45,4C55.591,157.54,54.891,158.74,54.4,159.65z M54,160.45
	c-0.4,0.8-1.017,3.6-1.85,8.4c-0.4,2.367-0.767,4.667-1.1,6.9l-0.8,5.75c-0.6,4.366-1,7.884-1.2,10.55c-0.2,2.7-1,5.066-2.4,7.101
	l-2.05,2.3l-12.35,1.5c-0.733-0.167-1.617-0.517-2.65-1.05c-2.067-1.067-3.817-2.534-5.25-4.4c-0.916-1.192-1.824-2.518-2.725-3.975
	l3.975,2.524c3.467,1.967,6.017,2.95,7.65,2.95c5.5,0,9.117-0.667,10.85-2c1.033-0.767,1.867-1.833,2.5-3.2
	c0.633-1.467,0.95-3.033,0.95-4.7V179.2l-2.95,5.95c0,1.633-0.333,3.767-1,6.399l-3.95,3.95c-1.633,0.167-3.417,0.267-5.35,0.3
	c-3.867,0.101-6.533-0.149-8-0.75c-1.433-0.633-2.767-1.149-4-1.55l-0.85-0.275c-0.453-0.74-0.903-1.516-1.35-2.324l-1.7-3.301
	l7.45,5.45c8.533-2.3,12.967-3.95,13.3-4.95c1-3.633,1.667-5.933,2-6.899c0.328-0.985-0.155-4.668-1.45-11.05l3.4-0.3l6.45,2.45
	l-0.5-3.95c1-1.667,1.667-2.983,2-3.95C51.717,162.2,52.7,160.883,54,160.45z M29.825,159.175c1.43,0.542,2.921,0.333,4.475-0.625
	c0.843-0.522,1.168-1.139,0.975-1.85c0.094-0.402,0.077-0.827-0.05-1.275c1.202,1.735,1.144,3.144-0.175,4.225
	c-1.566,1.267-3.083,1.533-4.55,0.8C30.036,160.218,29.811,159.793,29.825,159.175z M71.8,185.15l6.9-0.5l7.899-2l3.95-4.9l0.9,3.5
	c0.5,2.566,0.533,4.366,0.1,5.4c-0.434,1.066-1.166,1.699-2.2,1.899c-0.233,0.033-1.483,0.05-3.75,0.05H79.2
	c-1.634,0-3.367-0.566-5.2-1.699L71.8,185.15z M58.725,194.5c0.36,0.451,0.635,1.034,0.825,1.75c0.567,2.1,0.284,4-0.85,5.7
	c-1.467,2.166-3.617,1.833-6.45-1c-0.22-0.229-0.386-0.495-0.5-0.8c2.71,2.081,4.777,2.281,6.2,0.6c0.866-1.045,1.232-2.178,1.1-3.4
	c0.078-0.828-0.005-1.694-0.25-2.6C58.778,194.669,58.753,194.585,58.725,194.5z M123.2,142.925c0.249,0.143,0.565,0.251,0.95,0.325
	c1.966,0.433,3.616-0.15,4.949-1.75c0.58-0.695,0.755-1.304,0.525-1.825c0.071-0.259,0.104-0.509,0.1-0.75
	c0.917,0.882,0.959,2.007,0.125,3.375c-1.3,2.1-2.949,2.883-4.949,2.35C123.923,144.368,123.356,143.793,123.2,142.925z
	 M124.15,123.4l2.5-1.5l2.449-1c1.301-1.633,2.117-3.117,2.45-4.45l1-4.95l2,7.45l-2,3.95c-0.467,0.9-0.95,1.483-1.45,1.75
	c-0.3,0.2-1.133,0.434-2.5,0.7c-1.033,0.2-2.083-0.067-3.149-0.8L124.15,123.4z M90.975,104.975c0.296,0.34,0.404,0.881,0.325,1.625
	c-0.166,1.566-0.983,2.217-2.45,1.95c-1.473-0.229-2.139-0.862-2-1.9c0.314,0.186,0.731,0.319,1.25,0.4h0.025
	c0.246,0.188,0.588,0.321,1.025,0.4c1.1,0.2,1.716-0.333,1.85-1.6C91.036,105.506,91.028,105.214,90.975,104.975z M101.45,152.05
	c1-0.5,1.967-1,2.899-1.5c-1.966,0.767-4.35,1.067-7.149,0.9c-4.101-0.6-6.483-0.9-7.15-0.9c-0.8,0-2.2-0.316-4.2-0.95l-2.699-1
	L85.6,154l8.9,1l2.35-0.95C98.684,153.317,100.217,152.65,101.45,152.05z M98.175,192.25c0.057,0.05,0.115,0.092,0.175,0.125
	c0.233,0.25,0.517,0.375,0.851,0.375c0.899,0,1.517-0.884,1.85-2.65c0.093-0.474,0.102-0.856,0.025-1.149
	c0.613,0.223,0.822,0.905,0.625,2.05c-0.367,2.033-1.033,3.05-2,3.05C98.979,194.05,98.471,193.45,98.175,192.25z M114.65,183.3
	c-1.301-1.133-1.584-1.833-0.851-2.1c0.934-0.333,2.351-1.184,4.25-2.55c2.2-1.6,3.733-3.066,4.601-4.4c0.833-1.233,1.5-3.9,2-8
	l0.5-5.8l0.3,2.85c0.267,2.467,0.5,5.133,0.7,8c0.199,2.9-0.567,6.733-2.301,11.5c-0.866,2.4-1.75,4.5-2.649,6.3l2.95,9.9l-1,7.4
	c-0.233,1.699-0.75,3.116-1.551,4.25c-0.733,1.066-1.866,2.116-3.399,3.149c-1.233,0.834-3.084,1.167-5.55,1l-3.301-0.5l8.4-7.399
	l0.45-6.45c0.8-2.934,1.366-5.783,1.7-8.55c0.699-5.567-0.017-7.983-2.15-7.25C117.017,184.917,115.983,184.467,114.65,183.3z
	 M122.2,216.75l7.399,1.5l2.551-2.3c1.699-1.733,2.649-3.117,2.85-4.15l-0.45,7.95c-3.3,0.967-5.616,1.283-6.95,0.95
	c-0.8-0.2-1.949-0.917-3.449-2.15L122.2,216.75z M129.6,153.05l4.95,9.35v20.25c0,0.633-1.467,1.234-4.399,1.8
	c-2.4,0.467-4.233,0.7-5.5,0.7c-0.634,0-0.25-0.65,1.149-1.95c0.7-0.667,1.467-1.333,2.3-2l3.45-10.9c-0.166-1-0.316-2.05-0.45-3.15
	c-0.267-2.233-0.283-3.65-0.05-4.25c0.277-0.66,0.327-1.693,0.15-3.1c-0.02-0.171-0.045-0.346-0.075-0.525
	c-0.094-0.67-0.235-1.411-0.425-2.225L129.6,153.05z M134,243.65c0-2.967,0.184-3.851,0.55-2.65c0.601,2.033,0.617,6.1,0.05,12.2
	c-0.3,3.066-0.649,5.916-1.05,8.55l-9.899-3l10.399-10.35C133.983,246.7,133.967,245.116,134,243.65z M96,208.85
	c1.3-2.3,2.45-5.267,3.45-8.899l1,2.55c0.666,2.033,1,3.983,1,5.85c0,3.4-1.483,6.2-4.45,8.4c-1.333,1-4.634,1.5-9.9,1.5
	c-2.333,0-5.133-0.333-8.399-1c-1.033-0.2-2-1.25-2.9-3.15l-1.05-2.75l2.45,1.45l11.85,1L96,208.85z M86.65,302.6
	c0.663,0.671,1.146,1.055,1.449,1.15c0.967,0.3,3.601,0.45,7.9,0.45c0.5,0,1.283,0.083,2.35,0.25c1.034,0,2.067-0.4,3.101-1.2
	c0.833-0.667,1.899-1.483,3.2-2.45c0.933-0.733,1.5-1.399,1.699-2c0.334-1,0.834-4.3,1.5-9.899c-3.3,4.933-5.433,7.899-6.399,8.899
	c-0.834,0.834-1.65,1.434-2.45,1.8c-0.967,0.434-2.134,0.65-3.5,0.65c-2,0-4-0.134-6-0.4c-2.6-0.366-4.217-0.883-4.85-1.55
	c-0.634-0.633-1.483-1.316-2.551-2.05l-0.725-0.45l-2.675-3.45l15.8,5.95l6.95-4.45l5.399-14.35c0.667-6.566,1.167-11,1.5-13.3
	L97.45,271.1L88.1,270.15l-3.449-5.45c7.899-0.667,12.333-1.334,13.3-2c1-0.634,3.316-2.601,6.95-5.9l0.949-19.8l5.95,12.4v7.899
	c0,1.3-0.333,4.75-1,10.351l3,10.399l-3.05,15.65c-0.733,4.3-1.2,7.483-1.4,9.55c-0.233,2.333-1.267,3.917-3.1,4.75
	c-1.533,0.7-3.8,0.917-6.8,0.65c-2.267-0.2-4.684-0.75-7.25-1.65l-3.15-1.3L86.65,302.6z M128.2,281.575
	c0.063-0.388,0.079-0.738,0.05-1.05c0.77,0.607,0.937,1.716,0.5,3.324c-0.667,2.334-1.783,3.367-3.35,3.101
	c-0.959-0.167-1.526-0.726-1.7-1.675c0.254,0.141,0.57,0.232,0.95,0.274c1.566,0.2,2.683-0.566,3.35-2.3
	C128.263,282.568,128.329,282.01,128.2,281.575z M47.7,204.425c0.261,0.232,0.46,0.558,0.6,0.976c0.534,1.6,0.35,2.75-0.55,3.449
	c-0.967,0.733-2.267,0.4-3.9-1c-0.752-0.645-1.119-1.235-1.1-1.774c0.109,0.11,0.226,0.219,0.35,0.325
	c0.604,0.507,1.163,0.874,1.675,1.1c1.067,0.684,1.942,0.784,2.625,0.3c0.733-0.5,0.883-1.366,0.45-2.6l-0.025-0.05
	C47.804,204.918,47.762,204.677,47.7,204.425z M35.7,245.9l-4.95,1l-6.9-3.45l8.9-1L36.2,237L35.7,245.9z M52.5,244.95
	c0.667,1.3,0.833,6.899,0.5,16.8c-3.633,7.566-5.933,11.85-6.9,12.85c-0.667,0.634-2.75,0.601-6.25-0.1
	c-3.133-0.6-5.333-1.233-6.6-1.9c-0.833-0.399-2.483-1.433-4.95-3.1l-3.45-2.35l5.4,1c3.967,0.666,6.767,1,8.4,1
	c1.667,0,3.733-1.65,6.2-4.95c1.233-1.634,2.3-3.283,3.2-4.95c0.633-2.6,1.3-5.15,2-7.65c1.042-3.809,1.766-6.001,2.175-6.574
	C52.313,245,52.405,244.975,52.5,244.95z M29.6,285.025c1.053,1.496,1.12,2.704,0.2,3.625c-0.833,0.833-1.75,1.083-2.75,0.75
	c-0.451-0.164-0.584-0.598-0.4-1.301c0.863,0.179,1.663-0.071,2.4-0.75c0.458-0.441,0.675-0.95,0.65-1.524
	C29.711,285.569,29.678,285.303,29.6,285.025z M58.475,256.825c1.197,1.421,2.588,2.396,4.175,2.925
	c0.907,0.296,1.765,0.421,2.575,0.375c0.664,0.039,1.289-0.053,1.875-0.275c0.667-0.229,0.967-0.712,0.9-1.449
	c0.145-0.683,0.003-1.583-0.425-2.7c0.205,0.325,0.396,0.692,0.575,1.1c1.033,2.4,0.85,3.884-0.55,4.45c-1.3,0.5-2.7,0.5-4.2,0
	c-1.6-0.533-3-1.533-4.2-3C58.774,257.744,58.532,257.27,58.475,256.825z M46.1,330.825l-6.45,1.075l-7.4-5.45l-3.45-8.4L41.15,324
	l6.4-1.5l3.5-10.35c-1.033-0.4-0.767-0.767,0.8-1.101c0.767-0.166,1.65-0.3,2.65-0.399l2.45-7.9l2.45,17.8l-3.1,5.575L57.45,322
	v-3.95c0.333-1.633,0.5-3.283,0.5-4.95c0-1.033-0.083-2.399-0.25-4.1l-0.25-2.3l-0.85,4.649c-0.833,3.034-1.867,4.45-3.1,4.25v3.95
	c0,0.667,0.1,1.617,0.3,2.851c0.067,1-0.2,1.699-0.8,2.1c-1.4,1.066-2.683,1.9-3.85,2.5c-2.167,1.167-4.183,1.65-6.05,1.45
	l-4.45-0.5l2.6,1.5C42.905,330.188,44.521,330.646,46.1,330.825z M55.225,328.1L54.5,329.4l-1.875,0.324
	c0.324-0.161,0.649-0.337,0.975-0.524C54.227,328.824,54.768,328.457,55.225,328.1z M75.75,350.2l-7.45-6.95l13.851,1l6.899-4.45
	l3-10.85l1.95,16.3l-3.45,4.95H75.75z M135.7,307.55c0.666-6.267,1.434-8.366,2.3-6.3c1.434,3.5,1.2,9.5-0.7,18
	c-0.934,4.233-2.017,8.116-3.25,11.65c-0.566,0.267-1.283,0.5-2.149,0.699c-1.733,0.4-3.334,0.5-4.801,0.301
	c-1.433-0.2-3.017-0.917-4.75-2.15l-2.149-1.8l4.95-0.5l9.85-9.9C135.167,314.017,135.4,310.684,135.7,307.55z M94.425,327.325
	c0.164,0.053,0.355,0.095,0.575,0.125c0.072,0.01,0.147,0.019,0.225,0.024c0.188,0.16,0.479,0.269,0.875,0.325
	c1.5,0.2,2.667-0.133,3.5-1c0.563-0.606,0.664-1.198,0.301-1.774c0.028-0.137,0.037-0.271,0.024-0.4
	c0.963,0.96,1.005,1.936,0.125,2.925c-1,1.167-2.434,1.634-4.3,1.4C94.612,328.794,94.171,328.252,94.425,327.325z M110.9,340.5
	c1.767,0.033,2.899-0.25,3.399-0.85c0.244-0.306,0.327-0.714,0.25-1.226c0.07-0.705-0.129-1.613-0.6-2.725
	c0.063,0.133,0.13,0.267,0.2,0.399c1.166,2.2,1.449,3.767,0.85,4.7c-0.566,0.834-1.9,1.217-4,1.15c-2.4-0.066-4.85-0.783-7.35-2.15
	c-1.416-0.765-2.107-1.564-2.075-2.399c0.332,0.302,0.774,0.602,1.325,0.899c2.533,1.4,4.983,2.134,7.35,2.2
	C110.476,340.507,110.692,340.507,110.9,340.5z"/>
<path style="fill-rule:evenodd;clip-rule:evenodd;fill:#6D4126;" d="M100.65,36.85c-0.434-2.567-0.334-4.367,0.3-5.4
	c0.6-1,1.7-1.75,3.3-2.25c0.9-0.3,2.267-0.7,4.1-1.2l4.95,3l-3.95,0.45l-3.5,2L103.4,38.9l-1.95,1.45
	C101.116,39.283,100.85,38.117,100.65,36.85z M98.125,63.05c0.11-0.913,0.368-1.896,0.775-2.95l1.55-2.95l13.35-4.45
	c2.467-0.6,5.267-0.85,8.4-0.75c1.566,0.033,2.883,0.133,3.95,0.3c-0.334,0.4-0.784,0.817-1.351,1.25c-1.166,0.8-2.366,1.2-3.6,1.2
	c-1.2,0-2.384,0.267-3.55,0.8c-1.101,0.633-1.9,1.017-2.4,1.15l-6.4,2c-0.666,0.167-1.399,0.434-2.199,0.8
	c-1.667,0.733-2.917,1.617-3.75,2.65c-0.801,1.033-1.534,2.667-2.2,4.9c-0.334,1.1-0.584,2.1-0.75,3l-1-2.65l-0.5-1.3L98.1,63.375
	C98.108,63.269,98.116,63.161,98.125,63.05z M68.8,20.1l3.9-0.05c2.7-0.1,4.366-0.25,5-0.45l3.45,1
	c-3.301,1.633-5.434,2.45-6.4,2.45c-1.233,0-2.383,0.25-3.45,0.75c-1.667,0.767-2.816,2-3.45,3.7c-1,2.667-2.333,8.433-4,17.3
	C62.883,36.233,62.4,31.3,62.4,30c0-1.333,0.983-3.483,2.95-6.45C66.017,22.583,67.167,21.433,68.8,20.1z M23.85,42.05
	c0.667-0.3,1.816-0.7,3.45-1.2c1.667-0.667,4.467-1.15,8.4-1.45c-0.067,0.667-0.434,1.35-1.1,2.05c-1.333,1.4-3.434,2.2-6.3,2.4
	c-2.867,0.2-4.633,1.566-5.3,4.1c-0.333,1.3-0.383,2.566-0.15,3.8c-0.967-3.3-1.3-5.783-1-7.45
	C22.05,43.267,22.717,42.517,23.85,42.05z M76.7,44.8c-0.167,0.733-0.45,1.517-0.851,2.35c-0.8,1.667-1.833,2.7-3.1,3.1
	c-1.233,0.433-2.867,0.833-4.9,1.2c-2.3,0.367-3.95,0.633-4.95,0.8c-1.233,0.2-2.517,1.317-3.85,3.35l-1.6,3.05l0.5-8.9L69.8,47.8
	L76.7,44.8z M45.1,17.65l-2.95,2.45c-1.233,1.033-1.933,2.417-2.1,4.15c-0.1,0.867-0.066,1.633,0.1,2.3l-7.9,0.95
	c-1.533,0.2-2.617,0.8-3.25,1.8c-1.633,2.534-2.85,4.25-3.65,5.15c-1.867,2.066-3.167,2.433-3.9,1.1L20.4,29.5l7.4-9.4l9.9-5.9
	L45.1,17.65z M62.35,68.35l-1.45-0.3C57.267,69.683,54.967,71,54,72c-0.633,0.6-1.733,1.183-3.3,1.75l-2.15,0.7L45.1,70.5l7.4-5.45
	l1.45-0.55c1.233-0.4,2.566-0.7,4-0.9c4.6-0.667,7.4-1,8.4-1l5.45,1c-1.333,1.633-3.15,2.95-5.45,3.95
	C64.917,68.183,63.583,68.45,62.35,68.35z M36.7,91.75c-1.333-0.333-2.983-0.333-4.95,0c-2.2,0.367-3.433,0.6-3.7,0.7
	c-1.033,0.333-1.767,0.933-2.2,1.8c-0.4,0.8-1.184,3.017-2.35,6.65c-0.6,1.833-1.15,3.567-1.65,5.2l-2.45-3.95l2-8.9l2.1-2.05
	c1.633-1.567,3.067-2.867,4.3-3.9l12.35,5.45L36.7,91.75z M77.2,122.9c-1.867-0.2-2.25-0.917-1.15-2.15
	c0.533-0.633,1.25-1.233,2.15-1.8l4-1.1c2.899-0.833,4.866-1.467,5.899-1.9l11.351,3.5c-2.3,0.966-4.601,2.433-6.9,4.4
	c-1.434,1.233-3.866,1.517-7.3,0.85C81.384,123.667,78.7,123.067,77.2,122.9z M89.55,138.7c2.634,0.333,5.117,0.167,7.45-0.5
	l5.4-2.45l4.949-8.4l1.051,2.9c0.566,2.2,0.55,4.033-0.051,5.5c-1.133,2.633-1.866,4.233-2.199,4.8c-0.867,1.633-1.95,3-3.25,4.1
	c-2.101,1.733-3.7,2.917-4.801,3.55c-1.966,1.133-3.816,1.583-5.55,1.35c-0.045-0.005-0.087-0.014-0.125-0.025
	c-1.637-0.222-3.995-1.014-7.075-2.375l-4.199-2.05l4.199-5.1C86.517,138.933,87.917,138.5,89.55,138.7z M56.95,127.35
	c-1.4,0.233-2.867,0.533-4.4,0.9c-3.033,0.733-4.867,1.417-5.5,2.05c-1,1.034-1.883,1.817-2.65,2.35c-1.2,0.833-2.45,1.367-3.75,1.6
	c-1.566,0.267-3.267,1.067-5.1,2.4c-2,1.434-3.6,3.1-4.8,5c-1.033,1.633-2.233,5.267-3.6,10.9c-0.7,2.8-1.3,5.434-1.8,7.9
	c-0.333-5.267-0.5-10.05-0.5-14.35c0-2.667,1.316-5.767,3.95-9.3c1.333-1.8,2.65-3.316,3.95-4.55l1.8-1.4
	c1.534-1.067,3.233-1.917,5.1-2.55c2.967-0.966,6.434-1.95,10.4-2.95L56.95,127.35z M18.4,187.6c0.667-2.966,1-5.1,1-6.399
	c0-0.833,0.167-1.9,0.5-3.2l0.5-1.75l3.45-3.95h10.4l2.45,3.45l-5.45,4.95L26.3,187.1L18.4,187.6z M71.6,171.25
	c2.133-1.1,3.833-1.733,5.1-1.9c1.533-0.233,4.116-0.05,7.75,0.55c3.8,0.6,5.017,0.9,3.649,0.9c-0.899,0-2.3,0.383-4.199,1.15
	c-1.467,0.533-2.867,1.15-4.2,1.85c-0.834,0.4-2.066,1.184-3.7,2.35l-2.25,1.6l-3.45,5.4l-2-4.45l0.5-5.9L71.6,171.25z M123.6,111.2
	c1.9-0.9,3.567-1.45,5-1.65l0.5,3.45l-3.949,2.45l-2.5,5.45l-1.45-8.4L123.6,111.2z M87.1,196.5c0.434-0.6,2.284-0.45,5.551,0.45
	c1.633,0.467,3.233,0.983,4.8,1.55L95,199.45h-3.45c-3.3,2.333-5.45,3.983-6.45,4.95c-0.733,1.233-1.316,2.166-1.75,2.8
	c-0.8,1.1-2.017,1.649-3.649,1.649c-1.634,0-2.867-0.166-3.7-0.5l-0.75-0.5l1.45-4.899l4.3-1.9
	C84.1,199.483,86.134,197.967,87.1,196.5z M117.25,178.25l-7.9-0.5l10.351-16.3l4.45,3.95l-2.45,6.4L117.25,178.25z M112.55,191.4
	c1-0.9,1.9-1.667,2.7-2.301v5.95l-0.7,2.15c-0.5,1.566-0.75,2.649-0.75,3.25c0,1-1.166,2.649-3.5,4.95l-0.95-7.4l1.95-5.45
	L112.55,191.4z M131.2,159.8c0.12,1.365-0.296,3.165-1.25,5.4c-0.566,1.367-1.184,2.583-1.851,3.65v-7.4l-2.449-4.95l-1-4.45
	l4.949,1l1.45,5.9c0.031,0.103,0.057,0.211,0.075,0.325C131.155,159.454,131.181,159.629,131.2,159.8z M125.8,213.45
	c1.233-1,2.167-1.7,2.8-2.101h4.45l-2.45,1.95c-1.033,0.834-2,1.5-2.899,2l-1.05,0.5l-2.5-1L125.8,213.45z M130.4,240.05
	c0.899,1.233,1.449,2.367,1.649,3.4s0.134,2-0.2,2.899c-0.199,0.534-0.616,1.384-1.25,2.551c-0.666,1.3-2.649,3.767-5.949,7.399
	l-2.95-2.5l2.45-5.399c2.633-4.634,4.283-7.934,4.949-9.9L130.4,240.05z M86.1,245.9c0.334-0.467,1-1.567,2-3.301
	c1.101-1.699,2.25-3.066,3.45-4.1c1.233-1.033,3-1.75,5.3-2.15c1.167-0.199,2.2-0.3,3.101-0.3l3.95,0.95
	c-0.667,0.6-1.434,1.184-2.301,1.75c-1.733,1.167-3.116,1.75-4.149,1.75c-0.767,0-1.3,0.684-1.601,2.05
	c-0.333,1.7-1.116,2.983-2.35,3.851c-1.3,0.966-3.184,3.466-5.65,7.5c-2.466,4-3.866,6.116-4.199,6.35
	c-0.567,0.366-0.584-0.25-0.051-1.85c0.7-2.2,1.051-3.567,1.051-4.101c0-1.267,0.116-2.717,0.35-4.35
	C85.3,247.917,85.667,246.566,86.1,245.9z M78.7,292.35c-1.233,0.2-1.351-0.316-0.351-1.55c0.5-0.6,1.117-1.233,1.851-1.899
	l1.45-3.95l1.199-1.05c1.067-0.733,2.317-1.2,3.75-1.4c2.301-0.333,5.101-0.667,8.4-1l9.4-7.9l2.449,1.45l-3.949,7.45
	c-0.667,1.3-3.467,4.1-8.4,8.4l-3.45-0.5c-1.399-0.2-3.517,0-6.35,0.6C81.7,291.733,79.7,292.184,78.7,292.35z M52.5,244.95
	c-0.095,0.024-0.187,0.05-0.275,0.075c-4.77,1.263-7.645,2.221-8.625,2.875c-0.6,0.433-1.184,1.3-1.75,2.6
	c-0.3,0.667-0.533,1.283-0.7,1.85H35.7l-3.95,2.45l-5.9,10.4l-1.5-4.95l3.45-9.4l7.9-4.949l10.4-1.95l6.2,0.975
	C52.384,244.838,52.451,244.847,52.5,244.95z M23.35,235.05c0.267-0.767,1.3-1.467,3.1-2.1c1.833-0.667,4.1-1.117,6.8-1.351
	l-5.45,7.9l-3.95-1C23.183,237.2,23.017,236.05,23.35,235.05z M45.6,300.3c2.467-0.333,4.117-0.5,4.95-0.5l3.45,2.95
	c-3.633,0-6.1,0.167-7.4,0.5c-0.833,0.2-2.983,1.25-6.45,3.15l-4.95,2.75l3.95-5.4l3-3L45.6,300.3z M30.75,318.05l3.5-3.95
	l5.4-1.949l7.9-1.5c-4.933,3.3-8.05,5.433-9.35,6.399c-0.833,0.634-2.317,0.983-4.45,1.05L30.75,318.05z M74.25,331.4l3.7-1.801
	c2.633-1.233,4.366-1.949,5.2-2.149l3.1,0.25c1.967,0.333,2.75,0.899,2.35,1.7c-0.666,1.333-2.983,3.483-6.949,6.449l-3.95,0.5
	l-9.4,5.45l-0.45-3.5L74.25,331.4z M134.05,300.75v7.9c0,1.333-0.333,3.149-1,5.449c-1.133,1.334-2.383,2.65-3.75,3.95
	c-2.733,2.634-4.616,3.95-5.649,3.95h-5.9l6.9-6.4l4.949-7.899c0.2-0.867,0.434-1.8,0.7-2.8c0.5-2,0.917-3.384,1.25-4.15
	c0.834-1.866,2.167-2.667,4-2.4c0.9,0.134,1.717,0.45,2.45,0.95L134.05,300.75z"/>
<path style="fill-rule:evenodd;clip-rule:evenodd;fill:#482D1D;" d="M125.525,83.95c-1.201,0.242-1.826,0.375-1.875,0.4
	c-1.034,0.633-2.317,1.233-3.851,1.8l-2.05,0.65l-7.9-1.45l-4.449-3l1.649-0.25c1.4-0.167,2.816-0.25,4.25-0.25
	c1.033,0,2.2,0.233,3.5,0.7c1.066,0.367,2.217,0.467,3.45,0.3c1.733-0.233,3.267-0.8,4.6-1.7c1.367-0.933,2.301-2.017,2.801-3.25
	c0.433-1.033,1.3-2.733,2.6-5.1c0.667-1.2,1.283-2.3,1.85-3.3l-0.1,3.6c-0.167,2.8-0.467,5.233-0.9,7.3
	c-0.399,1.967-1.116,3.05-2.149,3.25C126.403,83.761,125.929,83.861,125.525,83.95z M53.5,80.9l1.8-1.1
	c1.4-0.833,2.617-1.466,3.65-1.9c0.833-0.3,2.183-0.75,4.05-1.35c1.6-0.566,2.717-1.267,3.35-2.1c0.7-0.934,1.633-1.333,2.8-1.2
	c0.967,0.1,2.5,0.667,4.6,1.7c1.634,0.833,2.134,1.833,1.5,3c-0.333,0.566-0.833,1.05-1.5,1.45c-1.233,1-2.667,2.05-4.3,3.15
	c-3.3,2.233-5.983,3.65-8.05,4.25c-2.033,0.6-3.367,0.733-4,0.4c-0.767-0.733-1.733-1.35-2.9-1.85c-1.433-0.633-2.767-1.4-4-2.3
	l-1.45-1.2L53.5,80.9z M39.7,170.15l-12.35,1.1l-0.55,0.05l3.6-2.55c2.8-1.733,5.233-2.7,7.3-2.9c3.3-0.3,5.933-0.617,7.9-0.95
	c1.967-4.633,3.45-8.433,4.45-11.4l1.45-4.45c2.967-3.933,4.617-6.883,4.95-8.85c0.2-1.233,0.35-3.25,0.45-6.05l0.05-3.85l0.95,4.45
	c0.567,3.467,0.75,6.433,0.55,8.9l-0.05,1.75c-0.267,1.3-0.917,2.367-1.95,3.2c-1.034,0.8-2,2.117-2.9,3.95L52.5,155l1.3,2.55
	c0.389,0.918,0.588,1.618,0.6,2.1c-0.153,0.299-0.287,0.566-0.4,0.8c-1.3,0.433-2.283,1.75-2.95,3.95c-0.333,0.967-1,2.283-2,3.95
	l0.5,3.95l-6.45-2.45L39.7,170.15z M21.45,193.225l0.85,0.275c1.233,0.4,2.567,0.917,4,1.55c1.467,0.601,4.133,0.851,8,0.75
	c1.934-0.033,3.717-0.133,5.35-0.3l3.95-3.95c0.667-2.633,1-4.767,1-6.399l2.95-5.95v9.899c0,1.667-0.316,3.233-0.95,4.7
	c-0.633,1.367-1.467,2.434-2.5,3.2c-1.733,1.333-5.35,2-10.85,2c-1.633,0-4.183-0.983-7.65-2.95l-3.975-2.524L20.9,193.05
	L21.45,193.225z M79.15,126.5l6.949,2.3h5.95l4.95-1.95c-1,3.3-2,5.6-3,6.9c-0.6,0.833-1.9,0.967-3.9,0.4
	c-2.466-0.9-4.283-1.517-5.449-1.85c-1.331-0.363-2.631-1.313-3.9-2.85c-0.137-0.164-0.271-0.331-0.4-0.5l-1.649-2.6L79.15,126.5z
	 M101.45,152.05c-1.233,0.6-2.767,1.267-4.601,2L94.5,155l-8.9-1l-2.449-5.4l2.699,1c2,0.633,3.4,0.95,4.2,0.95
	c0.667,0,3.05,0.3,7.15,0.9c2.8,0.167,5.184-0.133,7.149-0.9C103.417,151.05,102.45,151.55,101.45,152.05z M81.375,295.8l0.725,0.45
	c1.067,0.733,1.917,1.417,2.551,2.05c0.633,0.667,2.25,1.184,4.85,1.55c2,0.267,4,0.4,6,0.4c1.366,0,2.533-0.217,3.5-0.65
	c0.8-0.366,1.616-0.966,2.45-1.8c0.967-1,3.1-3.967,6.399-8.899c-0.666,5.6-1.166,8.899-1.5,9.899c-0.199,0.601-0.767,1.267-1.699,2
	c-1.301,0.967-2.367,1.783-3.2,2.45c-1.033,0.8-2.066,1.2-3.101,1.2c-1.066-0.167-1.85-0.25-2.35-0.25c-4.3,0-6.934-0.15-7.9-0.45
	c-0.303-0.096-0.786-0.479-1.449-1.15c-0.736-0.742-1.687-1.825-2.851-3.25l-3.149-4L81.375,295.8z M52.625,329.725
	c-1.66,0.784-3.351,1.176-5.075,1.176c-0.48,0-0.963-0.025-1.45-0.075c-1.579-0.179-3.195-0.637-4.85-1.375l-2.6-1.5l4.45,0.5
	c1.867,0.2,3.883-0.283,6.05-1.45c1.167-0.6,2.45-1.434,3.85-2.5c0.6-0.4,0.867-1.1,0.8-2.1c-0.2-1.233-0.3-2.184-0.3-2.851v-3.95
	c1.233,0.2,2.267-1.216,3.1-4.25l0.85-4.649l0.25,2.3c0.167,1.7,0.25,3.066,0.25,4.1c0,1.667-0.167,3.317-0.5,4.95V322l-1.15,4.125
	l-0.35,1.325c-0.212,0.212-0.454,0.428-0.725,0.649c-0.457,0.357-0.999,0.725-1.625,1.101
	C53.274,329.388,52.949,329.563,52.625,329.725z"/>
<path style="fill-rule:evenodd;clip-rule:evenodd;fill:#5B554D;" d="M100.05,95.325c0.017,0.073,0.033,0.148,0.05,0.225
	c0.152,0.736,0.194,1.411,0.125,2.025c-0.025-0.23-0.067-0.471-0.125-0.725c-0.366-1.6-1.449-2.317-3.25-2.15
	c-1.699,0.167-2.899,0.716-3.6,1.65c-0.733,0.9-0.7,1.733,0.1,2.5c0.934,0.9,1.917,1.533,2.95,1.9
	c0.309,0.108,0.6,0.183,0.875,0.225c-0.573,0.04-1.215-0.068-1.925-0.325c-1.3-0.467-2.533-1.283-3.7-2.45
	c-0.024-0.024-0.049-0.049-0.075-0.075c-0.962-1.011-1.003-2.086-0.125-3.225c0.934-1.2,2.483-1.917,4.65-2.15
	C98.184,92.525,99.534,93.383,100.05,95.325z M32.175,69.95c0.019,0.248-0.006,0.498-0.075,0.75c-0.247-0.478-0.813-0.927-1.7-1.35
	c-1.433-0.7-2.833-0.217-4.2,1.45c-1.236,1.471-1.369,2.513-0.4,3.125c-0.136-0.067-0.261-0.143-0.375-0.225
	c-1.096-0.796-0.971-2.196,0.375-4.2c1.467-2.2,2.95-2.85,4.45-1.95C31.476,68.278,32.117,69.078,32.175,69.95z M35.275,156.7
	c-0.181-0.711-0.855-1.511-2.025-2.4c-0.9-0.633-1.95-0.083-3.15,1.65c-0.565,0.832-0.891,1.507-0.975,2.025
	c-0.093-0.738,0.231-1.83,0.975-3.275c1.2-2.333,2.25-3.05,3.15-2.15c1.063,1.063,1.721,2.021,1.975,2.875
	C35.352,155.874,35.369,156.298,35.275,156.7z M59.05,197.35c-0.033-0.373-0.116-0.757-0.25-1.149c-0.6-1.8-2.033-2.533-4.3-2.2
	c-1.6,0.267-2.717,1.184-3.35,2.75c-0.17,0.44-0.278,0.849-0.325,1.225c-0.083-0.696,0.025-1.538,0.325-2.524
	c0.633-1.934,1.75-3.066,3.35-3.4c2.186-0.449,3.594,0.367,4.225,2.45c0.028,0.085,0.053,0.169,0.075,0.25
	C59.044,195.655,59.127,196.521,59.05,197.35z M129.725,138.925c0.005,0.241-0.028,0.491-0.1,0.75
	c-0.306-0.673-1.298-1.198-2.975-1.575c-1.733-0.4-3.017,0.267-3.851,2c-0.207,0.438-0.332,0.831-0.375,1.175
	c-0.088-0.637,0.037-1.429,0.375-2.375c0.834-2.3,2.117-3.183,3.851-2.65C128.664,136.861,129.689,137.753,129.725,138.925z
	 M86.85,106.65c-0.608-0.336-0.858-0.853-0.75-1.55c0.167-1.067,1-1.733,2.5-2c1.239-0.193,1.898,0.232,1.976,1.275
	c-0.255-0.165-0.613-0.207-1.075-0.125c-1.1,0.2-1.717,0.733-1.85,1.6c-0.061,0.522,0.098,0.922,0.475,1.2H88.1
	C87.581,106.969,87.164,106.836,86.85,106.65z M98.35,192.375c-0.06-0.033-0.118-0.075-0.175-0.125
	c-0.38-0.33-0.654-0.964-0.825-1.9c-0.267-1.5,0.101-2.416,1.101-2.75c1.712-0.542,2.57-0.142,2.575,1.2
	c-0.257-0.649-1.015-0.782-2.275-0.399c-0.934,0.3-1.283,1.1-1.05,2.399C97.832,191.535,98.049,192.06,98.35,192.375z
	 M122.925,283.45c-0.048-0.512-0.007-1.111,0.125-1.8c0.434-2.301,1.467-3.334,3.101-3.101c1.305,0.16,2.005,0.818,2.1,1.976
	c0.029,0.312,0.013,0.662-0.05,1.05c-0.214-0.683-0.897-1.074-2.05-1.175c-0.394-0.032-0.752-0.008-1.075,0.074
	c-1.021,0.226-1.696,0.984-2.025,2.275C122.987,282.995,122.946,283.229,122.925,283.45z M42.75,206.075
	c-1.246-1.249-0.929-2.274,0.95-3.075c2.066-0.9,3.35-0.6,3.85,0.9c0.059,0.18,0.109,0.354,0.15,0.524
	c0.062,0.252,0.104,0.493,0.125,0.726c-0.446-1.089-1.487-1.306-3.125-0.65c-1.667,0.667-1.833,1.533-0.5,2.6
	c0.195,0.151,0.386,0.285,0.575,0.4c-0.512-0.226-1.071-0.593-1.675-1.1C42.976,206.294,42.859,206.186,42.75,206.075z
	 M29.6,285.025c0.078,0.277,0.111,0.544,0.1,0.8c-0.022-0.325-0.123-0.675-0.3-1.05c-0.15-0.291-0.35-0.6-0.6-0.926
	c-0.533-0.666-1.267-0.199-2.2,1.4c-0.498,0.853-0.756,1.511-0.775,1.975c-0.031-0.499,0.227-1.258,0.775-2.274
	c0.933-1.7,1.667-2.2,2.2-1.5C29.196,284.014,29.462,284.538,29.6,285.025z M65.225,260.125c-0.81,0.046-1.668-0.079-2.575-0.375
	c-1.586-0.528-2.978-1.504-4.175-2.925L58.45,256.8c-1.733-2.1-0.417-3.583,3.95-4.45c2.3-0.466,3.967,0.517,5,2.95
	c0.059,0.136,0.117,0.27,0.175,0.4c0.428,1.117,0.57,2.018,0.425,2.7c-0.033-0.442-0.2-0.976-0.5-1.601
	c-0.8-1.666-2.05-2.333-3.75-2c-3.367,0.533-4.367,1.55-3,3.05c0.9,0.967,1.95,1.634,3.15,2
	C64.359,259.994,64.8,260.086,65.225,260.125z M95.225,327.475c-0.077-0.006-0.152-0.015-0.225-0.024
	c-0.22-0.03-0.411-0.072-0.575-0.125c-1.136-0.404-1.094-1.462,0.125-3.175c1.4-1.967,2.7-2.517,3.9-1.65
	c0.958,0.704,1.45,1.412,1.475,2.125c0.013,0.13,0.004,0.264-0.024,0.4c-0.201-0.313-0.534-0.622-1-0.926
	c-1-0.666-2.067-0.267-3.2,1.2C94.888,326.352,94.729,327.076,95.225,327.475z M110.9,340.5c-0.208,0.007-0.425,0.007-0.65,0
	c-2.366-0.066-4.816-0.8-7.35-2.2c-0.551-0.298-0.993-0.598-1.325-0.899c-1.152-1.083-0.977-2.233,0.524-3.45
	c1.667-1.334,3.917-2.184,6.75-2.55c1.801-0.233,3.317,0.833,4.551,3.199c0.207,0.392,0.391,0.758,0.55,1.101
	c0.471,1.111,0.67,2.02,0.6,2.725c-0.105-0.597-0.439-1.339-1-2.225c-1.066-1.733-2.366-2.517-3.899-2.351
	c-2.434,0.267-4.351,0.9-5.75,1.9c-1.634,1.134-1.4,2.184,0.699,3.15C106.733,339.9,108.833,340.434,110.9,340.5z"/>
<path style="fill-rule:evenodd;clip-rule:evenodd;fill:#514C45;" d="M95.8,16.1c0.013,0.141,0.013,0.291,0,0.45
	c-0.066,1.3-0.833,1.833-2.3,1.6c-0.378-0.063-0.694-0.163-0.95-0.3c-0.667-0.385-0.867-1.051-0.6-2
	c0.333-1.333,1.017-1.883,2.05-1.65C95.142,14.434,95.741,15.067,95.8,16.1z M100.225,97.575c0.089,1.133-0.253,2.058-1.024,2.775
	c-0.525,0.525-1.2,0.733-2.025,0.625c-0.275-0.042-0.566-0.117-0.875-0.225c-1.033-0.367-2.017-1-2.95-1.9
	c-0.8-0.767-0.833-1.6-0.1-2.5c0.7-0.934,1.9-1.483,3.6-1.65c1.801-0.167,2.884,0.55,3.25,2.15
	C100.157,97.104,100.199,97.345,100.225,97.575z M32.1,70.7c0.338,0.706,0.004,1.473-1,2.3c-1.667,1.4-3.283,1.783-4.85,1.15
	c-0.148-0.059-0.282-0.125-0.4-0.2c-0.016-0.008-0.032-0.016-0.05-0.025c-0.969-0.612-0.835-1.654,0.4-3.125
	c1.367-1.667,2.767-2.15,4.2-1.45C31.287,69.773,31.853,70.223,32.1,70.7z M29.125,157.975c0.084-0.518,0.41-1.193,0.975-2.025
	c1.2-1.733,2.25-2.284,3.15-1.65c1.169,0.89,1.844,1.689,2.025,2.4c0.193,0.71-0.132,1.327-0.975,1.85
	c-1.553,0.958-3.045,1.167-4.475,0.625L29.8,159.15C29.271,158.956,29.046,158.564,29.125,157.975z M50.825,197.975
	c0.046-0.376,0.155-0.784,0.325-1.225c0.633-1.566,1.75-2.483,3.35-2.75c2.267-0.333,3.7,0.4,4.3,2.2
	c0.134,0.393,0.217,0.776,0.25,1.149c0.133,1.223-0.234,2.355-1.1,3.4c-1.423,1.682-3.49,1.481-6.2-0.6
	c-0.083-0.066-0.166-0.133-0.25-0.2C50.94,199.483,50.715,198.825,50.825,197.975z M122.425,141.275
	c0.043-0.344,0.168-0.736,0.375-1.175c0.834-1.733,2.117-2.4,3.851-2c1.677,0.377,2.669,0.902,2.975,1.575
	c0.229,0.521,0.055,1.13-0.525,1.825c-1.333,1.6-2.983,2.183-4.949,1.75c-0.385-0.074-0.701-0.182-0.95-0.325
	C122.577,142.579,122.318,142.029,122.425,141.275z M90.975,104.975c0.054,0.239,0.062,0.531,0.025,0.875
	c-0.134,1.267-0.75,1.8-1.85,1.6c-0.438-0.08-0.779-0.213-1.025-0.4c-0.377-0.277-0.535-0.678-0.475-1.2
	c0.133-0.867,0.75-1.4,1.85-1.6c0.462-0.082,0.82-0.04,1.075,0.125C90.771,104.501,90.904,104.701,90.975,104.975z M98.35,192.375
	c-0.301-0.315-0.518-0.84-0.649-1.575c-0.233-1.3,0.116-2.1,1.05-2.399c1.261-0.383,2.019-0.25,2.275,0.399
	c0.018,0.045,0.034,0.095,0.05,0.15c0.076,0.293,0.067,0.676-0.025,1.149c-0.333,1.767-0.95,2.65-1.85,2.65
	C98.866,192.75,98.583,192.625,98.35,192.375z M123.7,285.275c-0.611-0.332-0.869-0.94-0.775-1.825
	c0.021-0.222,0.063-0.455,0.125-0.7c0.329-1.291,1.004-2.05,2.025-2.275c0.323-0.082,0.682-0.106,1.075-0.074
	c1.152,0.101,1.836,0.492,2.05,1.175c0.129,0.435,0.063,0.993-0.2,1.675c-0.667,1.733-1.783,2.5-3.35,2.3
	C124.271,285.508,123.954,285.416,123.7,285.275z M47.825,205.15l0.025,0.05c0.433,1.233,0.283,2.1-0.45,2.6
	c-0.683,0.484-1.558,0.384-2.625-0.3c-0.188-0.115-0.38-0.249-0.575-0.4c-1.333-1.066-1.167-1.933,0.5-2.6
	C46.338,203.845,47.379,204.062,47.825,205.15z M26.65,288.1c-0.118-0.027-0.234-0.062-0.35-0.1c-0.342-0.109-0.5-0.367-0.475-0.775
	c0.019-0.464,0.277-1.122,0.775-1.975c0.933-1.6,1.667-2.066,2.2-1.4c0.25,0.326,0.45,0.635,0.6,0.926
	c0.178,0.375,0.278,0.725,0.3,1.05c0.025,0.574-0.192,1.083-0.65,1.524C28.313,288.028,27.513,288.278,26.65,288.1z M65.225,260.125
	c-0.425-0.039-0.866-0.131-1.325-0.275c-1.2-0.366-2.25-1.033-3.15-2c-1.367-1.5-0.367-2.517,3-3.05c1.7-0.333,2.95,0.334,3.75,2
	c0.3,0.625,0.467,1.158,0.5,1.601c0.067,0.737-0.233,1.221-0.9,1.449C66.514,260.072,65.889,260.164,65.225,260.125z
	 M95.225,327.475c-0.495-0.398-0.337-1.123,0.476-2.175c1.133-1.467,2.2-1.866,3.2-1.2c0.466,0.304,0.799,0.612,1,0.926
	c0.363,0.576,0.263,1.168-0.301,1.774c-0.833,0.867-2,1.2-3.5,1C95.703,327.743,95.412,327.635,95.225,327.475z M114.55,338.425
	c0.077,0.512-0.006,0.92-0.25,1.226c-0.5,0.6-1.633,0.883-3.399,0.85c-2.067-0.066-4.167-0.6-6.301-1.6
	c-2.1-0.967-2.333-2.017-0.699-3.15c1.399-1,3.316-1.634,5.75-1.9c1.533-0.166,2.833,0.617,3.899,2.351
	C114.11,337.086,114.444,337.828,114.55,338.425z"/>
</svg>
