<?xml version="1.0" encoding="iso-8859-1"?>
<!-- Generator: Adobe Illustrator 15.1.0, SVG Export Plug-In . SVG Version: 6.00 Build 0)  -->
<!DOCTYPE svg PUBLIC "-//W3C//DTD SVG 1.1//EN" "http://www.w3.org/Graphics/SVG/1.1/DTD/svg11.dtd">
<svg version="1.1" id="FlashAICB" xmlns="http://www.w3.org/2000/svg" xmlns:xlink="http://www.w3.org/1999/xlink" x="0px" y="0px"
	 width="52.2px" height="152.2px" viewBox="0 0 52.2 152.2" style="enable-background:new 0 0 52.2 152.2;" xml:space="preserve">
<g>
	<g>
		<path style="fill-rule:evenodd;clip-rule:evenodd;fill:#633B21;" d="M1.2,4.3c2.566-2.133,10.517-2.966,23.85-2.5
			C35.917,2.167,43.366,2.783,47.4,3.65C48.5,3.883,49.3,7.133,49.8,13.4c0.434,5.633,0.517,11.383,0.25,17.25
			c-0.1,2.1,0.334,18.1,1.3,48c0.934,29.233,1.117,47.983,0.551,56.25c-0.634,9.233-5.117,14.8-13.45,16.699
			c-3.767,0.867-10.117,0.801-19.05-0.199c-4.367-0.5-8.066-3.601-11.1-9.301c-2.933-5.5-4.4-11.733-4.4-18.699
			c0-4.4-0.583-18.934-1.75-43.601C0.983,55.133,0.4,40.333,0.4,35.4c0-6.033,0.133-13.033,0.4-21L1.2,4.3z"/>
		<path style="fill-rule:evenodd;clip-rule:evenodd;fill:#57351D;" d="M10.55,14.7L9.9,13.2l-1,3.7
			c-0.133,0.4-0.183,0.983-0.15,1.75c0.1,1.333,0.15,2.083,0.15,2.25c0,0.6-0.233,0.417-0.7-0.55c-0.9-1.833-1.567-3.1-2-3.8l-2.3-4
			l-0.7,1c-0.434,0.667-1.2,1-2.3,1v-8.5L2.15,4.3c0.967-1.2,1.8-1.867,2.5-2C5.316,2.167,8.9,2.417,15.4,3.05
			c3.3,0.333,6.733,0.667,10.3,1C39.366,3.95,46.533,4,47.2,4.2c0.467,0.167,0.833,0.733,1.1,1.7c0.167,0.7,0.45,2.367,0.851,5
			c0.267,1.934-0.034,3.283-0.9,4.05l-1.35,0.6c-0.233,0.067-0.483,0.2-0.75,0.4c-0.567,0.366-0.983,0.9-1.25,1.6
			c-0.267,0.667-0.351,1.434-0.25,2.3C44.717,20.316,44.8,21,44.9,21.9c0,0.867-0.567,0.75-1.7-0.35
			c-0.101-0.333-0.283-0.65-0.55-0.95c-0.467-0.6-1.051-0.833-1.75-0.7c-0.567,0.1-0.9,0.2-1,0.3c-0.334,0.233-1,0.566-2,1
			c-1.233,0.566-1.834,1.116-1.801,1.65c0.034,0.3,0.184,0.75,0.45,1.35c0,0.667,0.117,2.9,0.351,6.7v4c0,1.333-1.284,4-3.851,8
			l1.15-6c0.233-1.133,0.35-2.583,0.35-4.35c0-0.566-0.083-1.233-0.25-2c-0.267-1.1-0.517-2.1-0.75-3
			c-0.267-1.1-0.733-2.033-1.399-2.8L31.2,23.9c-1.334-0.9-2.434-2.35-3.3-4.35c-0.634-1.433-1.817-2.65-3.55-3.65
			c-1.667-0.967-2.6-1.083-2.8-0.35c-0.233,0.9-0.783,1.684-1.65,2.35l-0.7-2.35c-0.267-0.966-0.733-1.816-1.4-2.55l-0.9-0.8
			c-0.267,0.3-0.583,0.65-0.95,1.05c-0.667,0.833-1.134,1.6-1.4,2.3c-0.433,1.1-0.767,2.1-1,3L12.2,17.2
			C11.667,16.667,11.117,15.833,10.55,14.7z"/>
		<path style="fill-rule:evenodd;clip-rule:evenodd;fill:#57351D;" d="M8.7,26.65L6.6,25.9h3.15c0.967,0,2.183-0.6,3.65-1.8
			l0.25,1.05c0.167,0.8,0.25,1.467,0.25,2c0,0.967-0.083,1.684-0.25,2.15c-0.066,0.233-0.383,0.517-0.95,0.85
			c-0.5,0.333-0.75,0.617-0.75,0.85c0,0.2-0.034,0.566-0.1,1.1c-0.1,0.533-0.15,1.066-0.15,1.6c0,0.966-0.333,1.45-1,1.45
			c-0.634,0.633-1.2,1.117-1.7,1.45c-0.467,0.333-1.517,0.083-3.15-0.75c-0.4-0.2-0.883-0.583-1.45-1.15l-0.7-0.8l3.4,0.25
			c0.8,0,1.433-0.083,1.9-0.25c0.667-1.167,1-2.066,1-2.7c0-0.4,0.167-1.017,0.5-1.85l0.45-1.15C10.85,27.733,10.1,27.217,8.7,26.65
			z"/>
		<path style="fill-rule:evenodd;clip-rule:evenodd;fill:#57351D;" d="M17.05,44.05c1.2-1.5,1.95-3.667,2.25-6.5l0.65,2
			c0.3,0.833,0.267,1.534-0.1,2.1c-0.5,0.533-0.833,0.917-1,1.15c-0.2,0.333-0.233,0.733-0.1,1.2c0.066,0.333,0.25,0.933,0.55,1.8
			c0.233,0.733,0.35,1.367,0.35,1.9c0.033,0.466-0.017,1.333-0.15,2.6c-0.067,1-0.383,1.967-0.95,2.9
			c-0.8,1.433-1.233,2.216-1.3,2.35c-0.267,0.733-0.767,1.417-1.5,2.05c-0.9,0.733-1.583,1.3-2.05,1.7
			c-0.567,0.534-0.934,0.817-1.1,0.85l-0.05-0.1c-0.6-0.867-0.966-1.55-1.1-2.05c-0.1-0.3-0.317-0.5-0.65-0.6
			c-0.4-0.033-0.716-0.1-0.95-0.2c-0.267-0.1-0.65-0.434-1.15-1l-0.65-0.85l-0.2-1.45H8.5c0.7,0,1.383-0.183,2.05-0.55
			c0.6-0.333,1.117-0.35,1.55-0.05l0.95,0.1c0.767,0.033,1.434,0,2-0.1c0.5-0.1,0.833-0.333,1-0.7c0.3-0.767,0.483-1.2,0.55-1.3
			c0.3-0.433,0.45-0.783,0.45-1.05c0-0.367,0-0.767,0-1.2c0-0.5-0.05-0.9-0.15-1.2c-0.167-0.567-0.267-0.917-0.3-1.05
			c-0.1-0.4-0.05-0.983,0.15-1.75L17.05,44.05z"/>
		<path style="fill-rule:evenodd;clip-rule:evenodd;fill:#57351D;" d="M29.3,60.9c-0.733-0.1-1.233-0.267-1.5-0.5
			c-0.366-0.467-0.767-0.95-1.2-1.45c-0.7-0.833-1.149-1.434-1.35-1.8c-0.233-0.5-0.184-0.8,0.15-0.9
			c0.2-0.067,0.833-0.117,1.9-0.15c1.233-0.034,2.4-0.15,3.5-0.35c1.134-0.167,1.417-0.733,0.851-1.7
			c-0.467-0.833-0.601-1.233-0.4-1.2c0.634,0.1,1.267-0.4,1.9-1.5c0.333-0.567,0.6-1.133,0.8-1.7L34,50.6c0.033,0.7,0.1,1.2,0.2,1.5
			c0.1,0.3,0.133,0.933,0.1,1.9c-0.033,0.5-0.066,1.167-0.1,2c0,0.467-0.217,0.917-0.65,1.35c-0.267,0.3-0.783,0.75-1.55,1.35
			c-0.134,0.1-0.517,0.616-1.15,1.55C30.483,60.783,29.967,61,29.3,60.9z"/>
		<path style="fill-rule:evenodd;clip-rule:evenodd;fill:#57351D;" d="M12.95,72.75l2,0.05c1.566,0.034,3.017-0.05,4.35-0.25
			c1.3-0.2,2.633-0.833,4-1.9c0.7-0.5,1.25-1,1.65-1.5c-0.434,1.2-1.267,2.317-2.5,3.35c-0.767,0.7-1.117,1.167-1.05,1.4
			c0.033,0.2,0.233,0.5,0.6,0.9c0.467,0.934,0.7,2.584,0.7,4.95c0,0.833-0.25,1.583-0.75,2.25c-0.534,0.566-0.884,0.95-1.05,1.15
			c-0.566,0.5-1.033,0.983-1.4,1.449c-0.733,0.867-1.1,1.9-1.1,3.101c0,1.333-0.25,2.467-0.75,3.399
			c-0.333,0.634-0.917,1.384-1.75,2.25L14.55,94.9h-4.3c-0.467,0-0.917-0.467-1.35-1.4l-0.5-1.4l1.5-0.149
			c1.067-0.134,1.783-0.334,2.15-0.601c0.6-0.466,1.284-1.533,2.05-3.199c-0.3-0.601-0.534-1.2-0.7-1.801
			c-0.1-0.399-0.383-0.633-0.85-0.699c-0.066,0-0.533,0-1.4,0L8.2,86.1l2.7-3.149c0.5-0.5,0.95-0.767,1.35-0.8
			c0.267,0,0.667,0.033,1.2,0.1c0.9,0,2.483-0.85,4.75-2.55c1.2-0.867,1.983-2.033,2.35-3.5c0.4-1.467,0.1-1.817-0.9-1.05
			c-1.2,0.9-2.667,0.767-4.4-0.4L12.95,72.75z"/>
		<path style="fill-rule:evenodd;clip-rule:evenodd;fill:#57351D;" d="M24.95,94.95l0.2-1.65l1.7-0.2
			c1.301-0.233,2.351-0.5,3.15-0.8c1.3-0.467,2.6-1.75,3.9-3.85l-1,3.85c-0.067,0.367-0.051,0.8,0.05,1.3
			c0.133,0.733,0.2,1.601,0.2,2.601c0,1.066-0.084,2.066-0.25,3c-0.167,0.899-0.25,1.583-0.25,2.05c0,0.7-0.233,1.283-0.7,1.75
			c-0.8,0.634-1.533,1.267-2.2,1.9c-0.767,0.767-1.7,1.033-2.8,0.8c-1.333-0.434-2.417-0.7-3.25-0.8
			c-0.934-0.101-1.534-0.334-1.8-0.7c-0.433-0.533-0.8-0.867-1.1-1c-0.6-0.3-1.983-0.316-4.15-0.05l-3.1,0.55l2.65-3.15l1.6-0.45
			c1.3-0.3,2.55-0.399,3.75-0.3c1.4,0.134,2.55,0.117,3.45-0.05c0.8-0.134,2.15-0.517,4.05-1.15c1.5-0.5,2.25-1.017,2.25-1.55
			c-0.3-0.666-0.416-1.2-0.35-1.6L24.95,94.95z"/>
		<path style="fill-rule:evenodd;clip-rule:evenodd;fill:#57351D;" d="M47.2,56.9c0.866,0.833,1.116,1.95,0.75,3.35
			c-0.367,1.467-1.283,2.683-2.75,3.65c-1.167,0.767-1.917,1-2.25,0.7c-0.7-0.633-1.283-0.983-1.75-1.05
			c-0.934-0.133-1.7-0.716-2.3-1.75c-0.567-1.167-1.017-1.917-1.351-2.25c-0.399-0.4,0.384-0.517,2.351-0.35
			c3.433,0.233,5.316,0.35,5.649,0.35c1.3,0,1.851-0.6,1.65-1.8c-0.167-0.5-0.267-0.817-0.3-0.95
			C46.866,56.6,46.967,56.633,47.2,56.9z"/>
		<path style="fill-rule:evenodd;clip-rule:evenodd;fill:#57351D;" d="M19.4,121.7c-0.833,0.033-1.55,0.05-2.15,0.05
			c-0.733,0-1.217-0.3-1.45-0.9l-0.1-0.949h1.15c0.566,0,1.066-0.5,1.5-1.5l1.25,0.1c0.966,0.066,1.867,0.2,2.7,0.4l1.45,3.35
			c0.133,0.434,0.883,0.884,2.25,1.35c-1.2,0.733-2.167,1.4-2.9,2c-0.5,0.367-1.067,0.517-1.7,0.45c-0.733-0.2-1.283-0.35-1.65-0.45
			c-0.467-0.066-0.95-0.3-1.45-0.699l-0.6-0.601l1-0.05c0.767-0.033,1.333-0.1,1.7-0.2c0.367-0.066,0.45-0.333,0.25-0.8
			c-0.3-0.7-0.45-1.083-0.45-1.15C20.2,121.833,19.933,121.7,19.4,121.7z"/>
		<path style="fill-rule:evenodd;clip-rule:evenodd;fill:#57351D;" d="M44.45,108.8l-0.3,3.3c-0.434,2.367-1.167,4.034-2.2,5
			c-1.033,0.934-1.634,1.084-1.8,0.45c0-1.066-0.084-1.783-0.25-2.149c-0.2-0.467-0.934-1.034-2.2-1.7l-1.8-0.8h5.8
			C43.033,111.3,43.95,109.934,44.45,108.8z"/>
		<path style="fill-rule:evenodd;clip-rule:evenodd;fill:#57351D;" d="M12.15,111.75c0.5-0.4,1.25-1.05,2.25-1.95
			c0.767-0.633,1.15-0.8,1.15-0.5c0,0.5-0.333,1.8-1,3.9c-1.933,1.434-3.466,2.066-4.6,1.899c-0.7-0.1-1.233-0.616-1.6-1.55
			l-0.3-1.35l1.5,0.25C10.65,112.517,11.517,112.283,12.15,111.75z"/>
		<path style="fill-rule:evenodd;clip-rule:evenodd;fill:#4A2D1C;" d="M29.25,5.7c0.934-1.167,1.816-1.884,2.65-2.15
			C33.566,3.017,34.6,2.7,35,2.6c1.033-0.233,1.55-0.133,1.55,0.3c0,0.1-0.633,3.25-1.899,9.45c-1.233,5.867-1.717,8.933-1.45,9.2
			c-1.533-1.566-2.3-2.9-2.3-4c0-2.433-0.117-3.983-0.351-4.65l-2.5-5.55L29.25,5.7z"/>
		<path style="fill-rule:evenodd;clip-rule:evenodd;fill:#4A2D1C;" d="M8.95,26.65L7.3,25.9h3.65c0.667,0,1.033,0.483,1.1,1.45
			l1.6,1.95c-0.333,1.467-0.667,2.517-1,3.15C11.683,34.583,10.8,35.8,10,36.1c-0.5,0.2-1.333,0.216-2.5,0.05l-1.65-0.3l2.45-0.7
			c0.633-0.167,1.85-1.55,3.65-4.15c-0.333-1.133-0.667-2.067-1-2.8C10.75,27.733,10.083,27.217,8.95,26.65z"/>
		<path style="fill-rule:evenodd;clip-rule:evenodd;fill:#704225;" d="M8.3,24l-2.65,0.45l0.55-1.2c0.533-0.8,1.316-1.2,2.35-1.2
			c1.6,0,2.817,0.233,3.65,0.7L8.3,24z"/>
		<path style="fill-rule:evenodd;clip-rule:evenodd;fill:#704225;" d="M6.6,25.9c1.133,0.5,1.933,1.4,2.4,2.7l-1.45,0.25l-0.25,1.7
			C6.033,30.717,5.15,30.867,4.65,31c-0.3,0.1-0.633,0.383-1,0.85L3.2,32.5l-0.5-1.25c-0.2-0.5-0.25-1.167-0.15-2L2.7,28.1l1.45-1.2
			L6.6,25.9z"/>
		<path style="fill-rule:evenodd;clip-rule:evenodd;fill:#704225;" d="M8.05,44.8c-0.3-0.833-0.367-1.5-0.2-2
			c0.1-0.3,0.883-0.9,2.35-1.8c0.733-0.434,1.45-0.833,2.15-1.2l3.35-1.75L16,39c0.066,0.667-0.184,1.1-0.75,1.3
			c-0.567,0.2-1.167,0.534-1.8,1c-0.667,0.5-1.117,0.833-1.35,1L8.05,44.8z"/>
		<path style="fill-rule:evenodd;clip-rule:evenodd;fill:#704225;" d="M14.35,46.55c-0.367,0.1-0.583,0.467-0.65,1.1
			c-0.034,0.3-0.034,0.6,0,0.9c-1.367,0-2.567,0.25-3.6,0.75c-0.667,0.3-1.133,0.934-1.4,1.9c-0.134,0.5-0.2,0.95-0.2,1.35l-0.65-3
			l2.45-2.5c0.534-0.433,1.55-0.7,3.05-0.8C15.017,46.183,15.35,46.283,14.35,46.55z"/>
		<path style="fill-rule:evenodd;clip-rule:evenodd;fill:#704225;" d="M28.6,51.85c0.9-0.1,0.733,0.367-0.5,1.4
			c-1.267,1.033-2.167,1.55-2.7,1.55c-0.433,0-0.533-0.25-0.3-0.75c0.167-0.267,0.517-0.75,1.05-1.45c0.3-0.4,0.666-0.633,1.1-0.7
			C27.517,51.867,27.967,51.85,28.6,51.85z"/>
		<path style="fill-rule:evenodd;clip-rule:evenodd;fill:#704225;" d="M28.6,48.2c0.967-0.167,2.267-0.083,3.9,0.25l-2.45,1.7
			c-0.8,0-1.783-0.033-2.95-0.1l-1.45-0.15l0.9-0.75C27.283,48.617,27.967,48.3,28.6,48.2z"/>
		<path style="fill-rule:evenodd;clip-rule:evenodd;fill:#704225;" d="M19.7,69.95c-0.767,0.267-1.583,0.45-2.45,0.55
			s-1.717,0.316-2.55,0.65l-1.05,0.45c0.1-0.333,0.233-0.684,0.4-1.05c0.333-0.7,0.65-1.1,0.95-1.2
			c0.233-0.067,1.083-0.367,2.55-0.9c1.534-0.5,2.717-0.8,3.55-0.9l2.95,1.35c-1.5,0.167-2.483,0.317-2.95,0.45
			C20.6,69.583,20.133,69.783,19.7,69.95z"/>
		<path style="fill-rule:evenodd;clip-rule:evenodd;fill:#704225;" d="M15.2,76.6c0.6,1.2,0.533,1.883-0.2,2.05
			c-1.067,0.3-1.9,0.517-2.5,0.649L9.8,80l0.35-0.65c0.3-0.5,0.633-0.883,1-1.149C12.117,77.467,13.467,76.933,15.2,76.6z"/>
		<path style="fill-rule:evenodd;clip-rule:evenodd;fill:#704225;" d="M9.1,86.8c1.2,0.601,1.583,0.983,1.15,1.15
			C9.983,88.017,9.733,88.366,9.5,89c-0.333,0.833-0.55,1.316-0.65,1.45c-0.2,0.267-0.434,0.35-0.7,0.25l-0.4-0.25
			c-0.3-1.233-0.383-2.217-0.25-2.95c0.1-0.366,0.2-0.533,0.3-0.5C8.133,87.1,8.566,87.033,9.1,86.8z"/>
		<path style="fill-rule:evenodd;clip-rule:evenodd;fill:#704225;" d="M43.9,54.2l0.149,1.2c-0.1,0.867-0.717,1.367-1.85,1.5
			c-1.101,0.133-2.267-0.117-3.5-0.75l-1.5-0.95l1.5-0.25C40.3,54.65,42.033,54.4,43.9,54.2z"/>
		<path style="fill-rule:evenodd;clip-rule:evenodd;fill:#704225;" d="M11.7,108.2l0.95,0.5c0.533,0.434,0.55,0.8,0.05,1.1
			c-0.7,0.467-1.233,0.8-1.6,1c-0.6,0.3-1.333,0.45-2.2,0.45c-0.833,0-1.083-0.2-0.75-0.6c0.167-0.2,0.417-0.4,0.75-0.601
			L11.7,108.2z"/>
		<path style="fill-rule:evenodd;clip-rule:evenodd;fill:#704225;" d="M29.05,90.85c-0.566,0.467-1.033,0.684-1.399,0.65
			c-0.134,0-1.034-0.217-2.7-0.65c-0.967-0.233-1.317-0.35-1.05-0.35c0.867,0,1.367-0.116,1.5-0.35c0.2-0.301,0.767-0.634,1.7-1
			c1.801-0.733,2.767-1.134,2.9-1.2C30.167,89.25,29.85,90.217,29.05,90.85z"/>
		<path style="fill-rule:evenodd;clip-rule:evenodd;fill:#704225;" d="M22.5,95.7c0.566-0.134,1.75,0.066,3.55,0.6
			c1.8,0.566,2.467,1.017,2,1.351C27.184,98.283,25.167,98.6,22,98.6c-1.2,0-2.567-0.033-4.1-0.1L16,98.35l1.65-2.149
			c0.267-0.267,0.9-0.367,1.9-0.3C20.85,95.934,21.833,95.866,22.5,95.7z"/>
		<path style="fill-rule:evenodd;clip-rule:evenodd;fill:#704225;" d="M17.7,114.9l0.6,0.949c0.267,0.7,0.067,1.2-0.6,1.5
			c-0.667,0.301-1.167,0.351-1.5,0.15c-0.167-0.066-0.4-0.35-0.7-0.85c-0.2-0.301-0.1-0.567,0.3-0.801
			C15.833,115.816,16.467,115.5,17.7,114.9z"/>
		<path style="fill-rule:evenodd;clip-rule:evenodd;fill:#704225;" d="M41.2,107.2l0.8,1c0.4,0.8,0.25,1.467-0.45,2
			c-0.767,0.633-1.666,0.816-2.7,0.55c-0.933-0.2-1.583-0.6-1.949-1.2c-0.301-0.434,0.05-0.866,1.05-1.3
			C38.283,108.116,39.366,107.767,41.2,107.2z"/>
		<path style="fill-rule:evenodd;clip-rule:evenodd;fill:#57351D;" d="M26.55,29.2c2.4,0.167,3.217,0.933,2.45,2.3
			s-1.8,2.05-3.1,2.05c-1.033,0-1.483-0.75-1.35-2.25C24.683,29.833,25.35,29.133,26.55,29.2z"/>
		<path style="fill-rule:evenodd;clip-rule:evenodd;fill:#57351D;" d="M43.2,40.55c1.533-0.466,2.45,0.034,2.75,1.5
			c0.3,1.367,0.05,2.534-0.75,3.5c-0.566,0.733-1.4,0.733-2.5,0c-1-0.667-1.601-1.333-1.8-2c-0.2-0.533-0.101-1.083,0.3-1.65
			C41.6,41.267,42.267,40.816,43.2,40.55z"/>
		<path style="fill-rule:evenodd;clip-rule:evenodd;fill:#57351D;" d="M40.2,72.55c1.666,0.733,2.35,1.75,2.05,3.05
			c-0.267,1.1-0.95,1.867-2.05,2.3c-0.834,0.333-1.867,0.116-3.101-0.65c-1.267-0.733-1.899-1.517-1.899-2.35
			c0-1.033,0.416-1.833,1.25-2.4C37.417,71.833,38.667,71.85,40.2,72.55z"/>
		<path style="fill-rule:evenodd;clip-rule:evenodd;fill:#57351D;" d="M35.55,79.55c1.533,0.767,1.816,1.566,0.851,2.4
			c-0.934,0.8-2,1.116-3.2,0.95c-0.967-0.167-0.967-0.851,0-2.051C34.134,79.65,34.917,79.217,35.55,79.55z"/>
		<path style="fill-rule:evenodd;clip-rule:evenodd;fill:#57351D;" d="M36.2,97.75c0.633-0.767,1.416-0.95,2.35-0.55
			c2.101,0.899,2.467,1.767,1.101,2.6c-1.467,0.867-2.617,0.9-3.45,0.101C35.533,99.233,35.533,98.517,36.2,97.75z"/>
		<path style="fill-rule:evenodd;clip-rule:evenodd;fill:#57351D;" d="M9.55,72.55c2.3,1.067,2.784,2.35,1.45,3.85
			c-1.367,1.534-2.633,1.8-3.8,0.8c-0.967-0.8-1.067-1.9-0.3-3.3C7.7,72.533,8.583,72.083,9.55,72.55z"/>
		<path style="fill-rule:evenodd;clip-rule:evenodd;fill:#57351D;" d="M11.55,122.2c2.233,0.467,2.85,1.35,1.85,2.649
			c-1.066,1.334-2.133,1.784-3.2,1.351c-0.833-0.334-1.034-1.117-0.6-2.351C10.033,122.583,10.683,122.033,11.55,122.2z"/>
		<path style="fill-rule:evenodd;clip-rule:evenodd;fill:#5C554D;" d="M25.55,27.2c2.4,0.167,3.217,0.933,2.45,2.3
			s-1.8,2.05-3.1,2.05c-1.033,0-1.483-0.75-1.35-2.25C23.683,27.833,24.35,27.133,25.55,27.2z"/>
		<path style="fill-rule:evenodd;clip-rule:evenodd;fill:#5C554D;" d="M42.2,38.55c1.533-0.466,2.45,0.034,2.75,1.5
			c0.3,1.367,0.05,2.534-0.75,3.5c-0.566,0.733-1.4,0.733-2.5,0c-1-0.667-1.601-1.333-1.8-2c-0.2-0.533-0.101-1.083,0.3-1.65
			C40.6,39.267,41.267,38.816,42.2,38.55z"/>
		<path style="fill-rule:evenodd;clip-rule:evenodd;fill:#5C554D;" d="M39.2,70.55c1.666,0.733,2.35,1.75,2.05,3.05
			c-0.267,1.1-0.95,1.867-2.05,2.3c-0.834,0.333-1.867,0.117-3.101-0.65c-1.267-0.733-1.899-1.517-1.899-2.35
			c0-1.033,0.416-1.833,1.25-2.4C36.417,69.833,37.667,69.85,39.2,70.55z"/>
		<path style="fill-rule:evenodd;clip-rule:evenodd;fill:#5C554D;" d="M34.55,77.55c1.533,0.767,1.816,1.566,0.851,2.4
			c-0.934,0.8-2,1.116-3.2,0.95c-0.967-0.167-0.967-0.851,0-2.051C33.134,77.65,33.917,77.217,34.55,77.55z"/>
		<path style="fill-rule:evenodd;clip-rule:evenodd;fill:#5C554D;" d="M37.55,96.2c2.101,0.899,2.467,1.767,1.101,2.6
			c-1.467,0.867-2.617,0.9-3.45,0.101c-0.667-0.667-0.667-1.384,0-2.15C35.833,95.983,36.616,95.8,37.55,96.2z"/>
		<path style="fill-rule:evenodd;clip-rule:evenodd;fill:#5C554D;" d="M8.55,70.55c2.3,1.067,2.784,2.35,1.45,3.85
			c-1.367,1.533-2.633,1.8-3.8,0.8c-0.967-0.8-1.067-1.9-0.3-3.3C6.7,70.533,7.583,70.083,8.55,70.55z"/>
		<path style="fill-rule:evenodd;clip-rule:evenodd;fill:#5C554D;" d="M10.55,121.2c2.233,0.467,2.85,1.35,1.85,2.649
			c-1.066,1.334-2.133,1.784-3.2,1.351c-0.833-0.334-1.034-1.117-0.6-2.351C9.033,121.583,9.683,121.033,10.55,121.2z"/>
		<path style="fill-rule:evenodd;clip-rule:evenodd;fill:#524C45;" d="M25.9,28.1c2.1,0.133,2.817,0.767,2.15,1.9
			c-0.666,1.1-1.566,1.65-2.7,1.65c-0.9,0-1.284-0.6-1.15-1.8C24.3,28.65,24.867,28.066,25.9,28.1z"/>
		<path style="fill-rule:evenodd;clip-rule:evenodd;fill:#524C45;" d="M42.55,40.15c1.334-0.333,2.15,0.017,2.45,1.05
			c0.233,0.966,0,1.8-0.7,2.5c-0.5,0.533-1.233,0.533-2.2,0c-0.866-0.467-1.383-0.934-1.55-1.4c-0.166-0.367-0.083-0.75,0.25-1.15
			C41.167,40.683,41.75,40.35,42.55,40.15z"/>
		<path style="fill-rule:evenodd;clip-rule:evenodd;fill:#524C45;" d="M39.3,72.05c1.566,0.534,2.2,1.267,1.9,2.2
			c-0.233,0.8-0.867,1.35-1.9,1.65c-0.8,0.267-1.783,0.117-2.95-0.45c-1.199-0.534-1.8-1.1-1.8-1.7c0-0.733,0.4-1.3,1.2-1.7
			C36.684,71.55,37.866,71.55,39.3,72.05z"/>
		<path style="fill-rule:evenodd;clip-rule:evenodd;fill:#524C45;" d="M34.55,78.1c1.533,0.667,1.816,1.367,0.851,2.101
			c-0.934,0.7-2,0.967-3.2,0.8c-0.967-0.134-0.967-0.717,0-1.75C33.134,78.184,33.917,77.8,34.55,78.1z"/>
		<path style="fill-rule:evenodd;clip-rule:evenodd;fill:#524C45;" d="M35.5,97.4c0.6-0.601,1.333-0.733,2.2-0.4
			c1.967,0.733,2.3,1.434,1,2.1c-1.367,0.7-2.434,0.717-3.2,0.051C34.866,98.583,34.866,98,35.5,97.4z"/>
		<path style="fill-rule:evenodd;clip-rule:evenodd;fill:#524C45;" d="M8.55,71.8c2.3,0.8,2.784,1.767,1.45,2.9
			c-1.367,1.133-2.633,1.333-3.8,0.6c-0.967-0.566-1.067-1.383-0.3-2.45C6.7,71.816,7.583,71.467,8.55,71.8z"/>
		<path style="fill-rule:evenodd;clip-rule:evenodd;fill:#524C45;" d="M10.55,122.1c2.233,0.367,2.85,1.084,1.85,2.15
			c-1.066,1.066-2.133,1.434-3.2,1.1c-0.833-0.267-1.034-0.916-0.6-1.949C9.033,122.4,9.683,121.967,10.55,122.1z"/>
	</g>
	<path style="fill-rule:evenodd;clip-rule:evenodd;fill:#57351D;" d="M46.65,81.5c0.5,0.1,1.083-1.4,1.75-4.5l0.3,2.1
		c0.2,1.467,0.3,2.434,0.3,2.9c0,0.934-0.167,2.267-0.5,4c-0.134,0.833-0.316,1.417-0.55,1.75c-0.267,0.333-0.417,0.583-0.45,0.75
		c-0.167,1.5-0.25,2.8-0.25,3.9c0,0.899-0.2,2.149-0.6,3.75c-0.101,0.433-0.317,0.517-0.65,0.25c-0.4-0.434-0.684-0.733-0.85-0.9
		c-0.2-0.2-0.584-0.45-1.15-0.75l-0.75-0.35l1.65-0.5l-0.15-4.051C44.65,89.316,43.4,88.7,41,88c-0.9-0.267-1.3-0.45-1.2-0.55
		l0.4-0.101l3.6-1.399c0.066,0,0.533-0.084,1.4-0.25c0.3-0.066,0.566-0.2,0.8-0.4c0.134-0.1,0.116-0.833-0.05-2.2
		C45.783,81.934,46.017,81.4,46.65,81.5z"/>
	<path style="fill-rule:evenodd;clip-rule:evenodd;fill:#57351D;" d="M32.65,116l0.899,0.5c0.566,0.434,0.851,0.85,0.851,1.25
		c0,0.5-0.134,1.3-0.4,2.4c-0.134,0.633-0.366,0.983-0.7,1.05c-0.733,0.133-1.116,0.2-1.149,0.2c-0.4,0.199-0.65,0.199-0.75,0
		c-0.301-0.467-0.467-0.717-0.5-0.75c-0.267-0.2-0.801-0.517-1.601-0.95l-1.149-0.55l3.75-0.4
		C32.467,117.684,32.717,116.767,32.65,116z"/>
	<path style="fill-rule:evenodd;clip-rule:evenodd;fill:#57351D;" d="M17.6,128.8c0.566-0.767,0.867-1.066,0.9-0.899
		c0.1,0.233,0.35,1.316,0.75,3.25c-0.333,0.833-0.75,1.533-1.25,2.1c-0.3,0.333-0.383,0.6-0.25,0.8
		c0.233,0.367,0.367,0.65,0.4,0.851c0.133,1.466,0.083,2.75-0.15,3.85c-0.1,0.5-0.25,0.816-0.45,0.95c-0.3,0.1-0.6,0.2-0.9,0.3
		c-0.367,0.167-0.767,0.2-1.2,0.1L14.9,139.9H15c0.267,0,0.683-0.617,1.25-1.851c-0.067-0.866-0.267-1.55-0.6-2.05
		c-0.167-0.233-0.283-0.333-0.35-0.3c-0.267,0.166-0.65,0.233-1.15,0.2c-0.533-0.067-0.9-0.117-1.1-0.15
		c-0.267-0.1-0.65-0.184-1.15-0.25c-0.7-0.1-1.283-0.517-1.75-1.25l-0.5-1.1l4,0.85c0.434,0,1.067-0.483,1.9-1.45
		c0.567-1.066,0.967-1.934,1.2-2.6L17.6,128.8z"/>
	<path style="fill-rule:evenodd;clip-rule:evenodd;fill:#57351D;" d="M30.5,134.65c0.6-0.101,1.1-1.483,1.5-4.15l0.6,0.7
		c0.434,0.566,0.7,1.05,0.801,1.45c0.1,0.366,0.033,1.017-0.2,1.949c-0.233,0.934-0.334,1.483-0.3,1.65
		c0.066,0.434,0.1,1.184,0.1,2.25c0.066,0.566,0.017,1.017-0.15,1.35c-0.366,0.867-0.566,1.384-0.6,1.551
		c-0.267,0.8-0.467,2.05-0.6,3.75c-0.067,0.466-0.167,0.716-0.301,0.75c-0.166-0.034-0.316-0.034-0.449,0
		c-0.233,0.066-0.634,0.033-1.2-0.101c-0.667-0.133-1.233-0.316-1.7-0.55c-0.3-0.167-0.783-0.35-1.45-0.55
		c-0.533-0.167-0.883-0.316-1.05-0.45s0.167-0.184,1-0.15c1.233,0,2.116-0.033,2.65-0.1c0.633-0.1,1.033-0.417,1.199-0.95
		c0.334-1.166,0.517-1.767,0.551-1.8c0.3-0.533,0.399-1.3,0.3-2.3c-0.2-1-0.3-1.65-0.3-1.95l-4.15,0.5
		c-0.134,0.066-0.35,0.033-0.65-0.1l-0.35-0.25l-0.1-2.75l0.95,0.399c0.7,0.233,1.25,0.351,1.65,0.351c0.366,0,0.767-0.067,1.2-0.2
		C29.917,134.783,30.267,134.684,30.5,134.65z"/>
	<path style="fill-rule:evenodd;clip-rule:evenodd;fill:#57351D;" d="M46.5,133.5l0.4,1.4v2.35c0,0.434-0.167,0.884-0.5,1.35
		c-0.601,0.801-0.967,1.301-1.101,1.5c-0.3,0.567-0.6,0.834-0.899,0.801c-0.334-0.2-0.584-0.301-0.75-0.301
		c-1.434,0-2.434-0.033-3-0.1c-0.367-0.066-0.567-0.267-0.601-0.6l0.101-0.45l3.399-0.4c0.033-0.434,0.084-0.883,0.15-1.35
		c0.166-0.867,0.366-1.283,0.6-1.25C44.6,136.483,45.333,135.5,46.5,133.5z"/>
	<path style="fill-rule:evenodd;clip-rule:evenodd;fill:#57351D;" d="M45.2,125.9c0.666,0,1.35-0.634,2.05-1.9l1.65-2.1v3.35
		c0,0.3-0.267,0.65-0.801,1.05c-0.633,0.434-1.083,0.75-1.35,0.95c-0.333,0.3-0.733,0.45-1.2,0.45c-0.166,0-0.6-0.066-1.3-0.2
		c-0.366-0.033-0.917-0.384-1.65-1.05l-1.05-0.95L45.2,125.9z"/>
	<path style="fill-rule:evenodd;clip-rule:evenodd;fill:#57351D;" d="M34.95,148.3L34.9,147.9h1.35c0.434,0,0.95-0.167,1.55-0.5
		c0.601-0.167,0.834-0.7,0.7-1.601c0.5,1.066,0.583,1.934,0.25,2.601c-0.2,0.399-0.417,0.583-0.65,0.55
		c-0.5-0.066-0.866-0.084-1.1-0.05c-0.434,0.1-0.684,0.133-0.75,0.1c-0.233-0.134-0.434-0.217-0.6-0.25
		C35.283,148.717,35.05,148.566,34.95,148.3z"/>
	<path style="fill-rule:evenodd;clip-rule:evenodd;fill:#704225;" d="M32.25,115.15c-0.667,0.066-1.2,0.149-1.6,0.25
		c-0.267,0.033-0.65,0.3-1.15,0.8c-0.634,0.6-0.967,0.916-1,0.95c-0.134,0.1-0.167-0.017-0.1-0.351
		c0.133-0.467,0.216-0.85,0.25-1.149c0.133-1.067,0.416-1.567,0.85-1.5C30,114.217,30.917,114.55,32.25,115.15z"/>
	<path style="fill-rule:evenodd;clip-rule:evenodd;fill:#704225;" d="M45.65,119.4c0.5,0,1.416,0.616,2.75,1.85L46.25,121
		c-0.634-0.033-1.1,0.066-1.4,0.3c-0.333,0.367-0.649,0.65-0.949,0.851c-0.367,0.267-0.834,0.683-1.4,1.25l-0.75,0.75
		c0.167-0.5,0.3-1.134,0.4-1.9c0.033-0.467,0.149-0.8,0.35-1c0.1-0.134,0.267-0.333,0.5-0.6C43.667,119.816,44.55,119.4,45.65,119.4
		z"/>
	<path style="fill-rule:evenodd;clip-rule:evenodd;fill:#704225;" d="M42.85,132.55l0.9-0.149c1.434,0.333,1.983,0.583,1.65,0.75
		c-0.2,0.1-0.351,0.25-0.45,0.449c-0.033,0.134-0.05,0.233-0.05,0.301l-1.5,0.1c-0.334,0.066-0.5,0.217-0.5,0.45
		c0,0.366-0.051,0.6-0.15,0.7c-0.1,0.166-0.267,0.25-0.5,0.25c-0.267,0-0.55,0.083-0.85,0.25c-0.367,0.199-0.851,0.8-1.45,1.8
		l-0.8,1.45l1.1-4c0.1-0.334,0.267-0.601,0.5-0.801c0.4-0.3,0.7-0.583,0.9-0.85C41.95,132.85,42.35,132.616,42.85,132.55z"/>
	<path style="fill-rule:evenodd;clip-rule:evenodd;fill:#704225;" d="M36.25,145.25l2.15,0.15c0.3,0,0.216,0.166-0.25,0.5
		c-0.467,0.3-1.051,0.55-1.75,0.75l-2.15,0.5l0.65-0.75C35.4,145.833,35.85,145.45,36.25,145.25z"/>
	<path style="fill-rule:evenodd;clip-rule:evenodd;fill:#704225;" d="M26,132.5l1.7-2.5c0.333-0.3,0.733-0.55,1.2-0.75l2.1,1.15
		l-1.6,0.35l-2.25,1L26,132.5z"/>
	<path style="fill-rule:evenodd;clip-rule:evenodd;fill:#704225;" d="M9.15,131.25c-0.233,0.1-0.15-0.517,0.25-1.85
		c0.033-0.2,0.483-0.5,1.35-0.9c0.433-0.167,0.85-0.333,1.25-0.5l1.75-0.25c1.3-0.167,2.183-0.25,2.65-0.25
		c-0.833,0.767-1.417,1.15-1.75,1.15c-0.5,0-1.3,0.083-2.4,0.25c-0.4,0.033-1,0.433-1.8,1.199
		C9.617,130.866,9.183,131.25,9.15,131.25z"/>
	<path style="fill-rule:evenodd;clip-rule:evenodd;fill:#704225;" d="M29.9,138.9v0.35c0,0.366-0.167,0.783-0.5,1.25
		c-0.167,0.267-0.717,0.6-1.65,1l-0.85,0.4v-0.4c0-0.533,0.083-1,0.25-1.4l0.6-1.149L29.9,138.9z"/>
	<path style="fill-rule:evenodd;clip-rule:evenodd;fill:#4A2D1C;" d="M29.6,9.35c-0.466,0.867-0.733,1.517-0.8,1.95l-0.149,1.05
		c-0.967-0.233-1.534-0.817-1.7-1.75L26.7,8.7c-1.6,2.6-2.817,4.1-3.65,4.5l-1.3,0.6c0.867-1.167,1.3-2.1,1.3-2.8V8.9
		c-0.5,1.467-1.183,2.45-2.05,2.95l-1.3,0.75c0.3-1.1,0.35-1.883,0.15-2.35l-0.3-0.7c-1.433,1.133-2.383,2.067-2.85,2.8l-1.1,1.9
		c-0.333-1.233-0.45-2.283-0.35-3.15c0.033-0.534,0.117-0.983,0.25-1.35l0.15-0.4c-0.667,0.333-1.566,1.033-2.7,2.1
		c-0.7,0.667-1.3,1.167-1.8,1.5l-0.5,0.25l0.4-1.85c-0.3,0.033-0.617,0.117-0.95,0.25c-0.667,0.267-1.1,0.65-1.3,1.15
		c-0.367,0.8-0.783,1.4-1.25,1.8c-0.3-0.667-0.433-1.5-0.4-2.5c0.033-0.633,0.1-1.167,0.2-1.6l0.15-0.5
		c-1.833,1.9-3.267,3.167-4.3,3.8l-1.55,0.9l1-3.3c-0.6,0.367-1.2,0.65-1.8,0.85c0.2-0.6,0.3-1.25,0.3-1.95l0.05-3.9
		C1.3,6.217,1.8,5.733,2.7,4.9c2-0.633,4.883-1.183,8.65-1.65c2.066-0.267,4.85-0.567,8.35-0.9C30.733,2.117,36.3,2,36.4,2
		c0.767,0,2.35,0.25,4.75,0.75c2.666,0.566,5.066,1.2,7.199,1.9L48.5,4.8c0.733,0.333,1.366,0.7,1.9,1.1l-0.15,1.25
		c-0.1,1.333-0.267,3.333-0.5,6l-0.4,0.25L48.7,11.15c-0.267,0.4-0.55,0.717-0.851,0.95c-0.699,0.7-1.25,1.066-1.649,1.1l-0.45-0.15
		c0.533-0.9,0.833-1.7,0.9-2.4L46,10.05c-1.1,0.7-2.15,1.117-3.15,1.25l-2.05,0.3l0.9-1.25c-0.134,0.133-0.9,0.167-2.3,0.1l-2.9-0.2
		L37,11.5c0.366,0.867,0.65,1.367,0.85,1.5c0.334,0.267-0.149,0.267-1.449,0c-1.301-0.3-2.434-0.817-3.4-1.55
		c-0.934-0.7-1.667-1.467-2.2-2.3l-0.5-1C30.066,8.517,29.833,8.917,29.6,9.35z"/>
	<path style="fill-rule:evenodd;clip-rule:evenodd;fill:#466E13;" d="M23.05,9V6.9c-0.5,1.467-1.183,2.45-2.05,2.95l-1.3,0.75
		c0.3-1.1,0.35-1.883,0.15-2.35l-0.3-0.7c-1.433,1.133-2.383,2.067-2.85,2.8l-1.1,1.9c-0.333-1.233-0.45-2.283-0.35-3.15
		c0.033-0.534,0.117-0.983,0.25-1.35l0.15-0.4c-0.667,0.333-1.566,1.033-2.7,2.1c-0.7,0.667-1.3,1.167-1.8,1.5l-0.5,0.25l0.4-1.85
		c-0.3,0.033-0.617,0.117-0.95,0.25C9.433,9.867,9,10.25,8.8,10.75c-0.367,0.8-0.783,1.4-1.25,1.8c-0.3-0.667-0.433-1.5-0.4-2.5
		c0.033-0.633,0.1-1.167,0.2-1.6l0.15-0.5c-1.833,1.9-3.267,3.167-4.3,3.8l-1.55,0.9l1-3.3c-0.9,0.566-1.683,0.9-2.35,1
		c-0.433-2.034-0.383-3.633,0.15-4.8C0.783,4.883,1.133,4.367,1.5,4c0.233-0.233,0.633-0.6,1.2-1.1c2-0.633,4.883-1.183,8.65-1.65
		c2.066-0.267,4.85-0.567,8.35-0.9C30.733,0.117,36.3,0,36.4,0c0.767,0,2.35,0.25,4.75,0.75c2.666,0.566,5.066,1.2,7.199,1.9
		L48.5,2.8c1.5,0.7,2.417,1.35,2.75,1.95c0.3,0.5,0.434,1.433,0.4,2.8c0,1.167-0.084,2.034-0.25,2.6
		c-0.167,0.567-0.75,1.35-1.75,2.35L48.7,9.15c-0.267,0.4-0.55,0.717-0.851,0.95c-0.699,0.7-1.25,1.066-1.649,1.1l-0.45-0.15
		c0.533-0.9,0.833-1.7,0.9-2.4L46,8.05c-1.1,0.7-2.15,1.117-3.15,1.25L40.8,9.6l0.9-1.25c-0.134,0.133-0.9,0.167-2.3,0.1l-2.9-0.2
		L37,9.5c0.366,0.867,0.65,1.367,0.85,1.5c0.334,0.267-0.149,0.267-1.449,0c-1.301-0.3-2.434-0.817-3.4-1.55
		c-0.934-0.7-1.667-1.467-2.2-2.3l-0.5-1c-0.233,0.367-0.467,0.767-0.7,1.2c-0.466,0.867-0.733,1.517-0.8,1.95l-0.149,1.05
		c-0.967-0.233-1.534-0.817-1.7-1.75L26.7,6.7c-1.6,2.6-2.817,4.1-3.65,4.5l-1.3,0.6C22.617,10.633,23.05,9.7,23.05,9z"/>
</g>
</svg>
