<?xml version="1.0" encoding="iso-8859-1"?>
<!-- Generator: Adobe Illustrator 15.1.0, SVG Export Plug-In . SVG Version: 6.00 Build 0)  -->
<!DOCTYPE svg PUBLIC "-//W3C//DTD SVG 1.1//EN" "http://www.w3.org/Graphics/SVG/1.1/DTD/svg11.dtd">
<svg version="1.1" id="FlashAICB" xmlns="http://www.w3.org/2000/svg" xmlns:xlink="http://www.w3.org/1999/xlink" x="0px" y="0px"
	 width="138.5px" height="312.2px" viewBox="0 0 138.5 312.2" style="enable-background:new 0 0 138.5 312.2;" xml:space="preserve"
	>
<g>
	<path style="fill-rule:evenodd;clip-rule:evenodd;fill:#613A22;" d="M0.1,34.75c0.567-3.2,1.017-5.617,1.351-7.25
		c0.6-2.967,1.233-5.05,1.899-6.25c0.5-0.933,1.467-2.583,2.9-4.95c1.2-2.167,1.833-3.867,1.9-5.1c0.067-1.3,3.367-3.1,9.9-5.4
		c5.5-1.9,9.367-3.017,11.6-3.35c5.767-0.8,16.617-1.434,32.55-1.9C73.633,0.183,82.166,0,87.8,0c3.667,0,11.417,0.983,23.25,2.95
		c13.366,2.2,20.05,4.1,20.05,5.7c0,0.067,0.617,7.9,1.851,23.5c1.133,14.8,1.583,24.184,1.35,28.15
		c-0.434,6.6-0.649,25.567-0.649,56.9c0,9.9,0.166,27.533,0.5,52.899l-0.101,16.351c0.033,11.366,0.283,18.283,0.75,20.75
		c0.4,2.133,1.05,17.883,1.95,47.25c0.934,30.033,1.517,46.033,1.75,48c0.333,2.866-3.684,4.967-12.05,6.3l-12.7,1.1
		c-1.533-0.3-3.184-0.5-4.95-0.6c-3.5-0.2-5.767,0.217-6.8,1.25c-1,1-3.517,1.3-7.55,0.9c-4.434-0.601-7.284-0.9-8.55-0.9
		c-0.234,0-2.351-0.333-6.351-1c-2.866-0.5-5.283-0.384-7.25,0.35c-2.8,1.067-4.7,1.7-5.7,1.9c-1.566,0.267-3.783,0.267-6.649,0
		c-2.567-0.267-4.684-1.283-6.351-3.05l-1.7-2.55H42c-2.3,0-5.083-1.667-8.35-5c-2.933-3.034-5.1-6.101-6.5-9.2
		c-1.034-2.367-1.183-5.184-0.45-8.45c1.133-3.434,1.899-5.783,2.3-7.05c0.5-1.467,0.783-3.017,0.85-4.65
		c0.2-3.7,0.334-5.85,0.4-6.45c0.233-2.3,1.083-4.716,2.55-7.25c1.667-2.899,2.667-5.017,3-6.35c0.833-2.467,1.367-4.116,1.6-4.95
		c0.367-1.233,0.367-2.833,0-4.8c-0.333-1.733-0.417-3.066-0.25-4c0.2-1.167,0.233-2.417,0.1-3.75c-0.2-2.233,0.1-5.233,0.9-9
		s1.667-6.283,2.6-7.55c0.633-0.8,1.616-2.033,2.95-3.7c1.1-1.434,1.767-2.667,2-3.7c0.3-1.133,0.483-3.017,0.55-5.649
		c0.066-1.7,0.1-4.983,0.1-9.851c0-3.333,1.351-7.116,4.05-11.35c1.333-2.101,2.667-3.884,4-5.351c0.8-2.466,1.417-5.35,1.85-8.649
		c0.267-2.3-0.283-4.95-1.65-7.95c-1.233-2.733-2.55-4.617-3.95-5.65c-1.034-0.767-1.85-1.817-2.45-3.15l-0.65-1.8
		c-0.6-1.433-1.25-3.15-1.95-5.15c-1.399-3.933-2.316-7.25-2.75-9.95c-0.366-2.566-0.116-4.333,0.75-5.3c1-1.1,1.5-1.717,1.5-1.85
		c0.2-1.333,0.3-2.467,0.3-3.4c0-1.7-0.517-3.45-1.55-5.25c-1.1-1.967-3.05-4.217-5.85-6.75c-2.434-2.2-4.4-3.667-5.9-4.4
		c-1.1-0.567-2.25-1.65-3.45-3.25c-0.667-0.9-1.983-2.917-3.95-6.05c-1.067-1.733-2.25-4.9-3.55-9.5c-1.2-4.167-2.1-6.517-2.7-7.05
		c-0.534-0.5-1.2-2-2-4.5c-0.8-2.567-1.767-4.417-2.9-5.55c-2.8-2.767-4.866-7.083-6.2-12.95c-0.166-0.8-0.5-2.967-1-6.5
		c-0.233-1.9-0.716-3.45-1.45-4.65C1.133,42.517-0.467,37.817,0.1,34.75z"/>
	<g>
		<path style="fill-rule:evenodd;clip-rule:evenodd;fill:#6D4126;" d="M26.95,282.55c1-2.967,1.683-5,2.05-6.1
			c0.333-0.867,0.55-1.717,0.65-2.55c0.267,0.267,1.017,1.199,2.25,2.8c1.034,1.3,1.933,2.25,2.7,2.85c2.034,1.667,4.7,4.767,8,9.3
			c-1.833-0.933-3.767-1.833-5.8-2.699c-4-1.733-6.383-2.483-7.15-2.25c-0.7,0.199-1.75,2.216-3.15,6.05
			C26.033,287.816,26.184,285.35,26.95,282.55z"/>
		<path style="fill-rule:evenodd;clip-rule:evenodd;fill:#6D4126;" d="M0.1,34.75c0.567-3.2,1.017-5.617,1.351-7.25
			c0.6-2.967,1.233-5.05,1.899-6.25c0.467-0.867,1.367-2.4,2.7-4.6c1.167-2.033,1.833-3.65,2-4.85c3.7,0.067,6.566,0.25,8.6,0.55
			c1.8,0.267,4.083,1.783,6.85,4.55c1.4,1.4,2.616,2.767,3.65,4.1l-2.45-1.25c-1.834-0.867-3.9-1.367-6.2-1.5
			c-3.2-0.2-5.884,0.517-8.05,2.15C8.35,21.967,6.566,25.133,5.1,29.9c-0.566,1.9-1.25,4.917-2.05,9.05
			C2.783,40.217,2.733,41.6,2.9,43.1c0.167,1.533,0.517,2.917,1.05,4.15C0.883,41.683-0.4,37.517,0.1,34.75z"/>
		<path style="fill-rule:evenodd;clip-rule:evenodd;fill:#6D4126;" d="M36.75,98.55c0,1.3-0.1,2.467-0.3,3.5
			c-2.934,2.034-5.101,3.733-6.5,5.1c-0.7-0.7-1.5-1.733-2.4-3.1c-0.333-0.5-1.283-2-2.85-4.5c-1-1.566-2-4.066-3-7.5
			c-1.334-4.466-2.067-6.867-2.2-7.2c1.967,0.233,4.833,1.3,8.6,3.2c3.733,1.867,6.101,3.434,7.101,4.7
			C36.233,94.05,36.75,95.983,36.75,98.55z"/>
		<path style="fill-rule:evenodd;clip-rule:evenodd;fill:#6D4126;" d="M42.85,135.8c-0.333-2.2-0.2-3.8,0.4-4.8
			c0.333-0.533,0.85-1.05,1.55-1.55c1-0.133,1.917-0.2,2.75-0.2c1.8,0,3.283,0.833,4.45,2.5c0.566,0.8,0.95,1.617,1.15,2.45
			c-1.667,0-3.534,0.617-5.6,1.85c-1.2,0.733-1.233,2.367-0.1,4.9c1.666,3.767,2.533,5.85,2.6,6.25
			c0.267,1.533,1.684,2.816,4.25,3.85c1.3,0.534,2.566,0.9,3.8,1.1l4,0.6c2.9,0.633,4.867,1.467,5.9,2.5
			c1.633,1.633,4.517,5.75,8.65,12.35L72.3,165.15c-1.767-1.034-3.35-1.317-4.75-0.851c-1.566,0.767-2.866,1.25-3.9,1.45
			c-1.233,0.233-1.983,0.95-2.25,2.15c-0.133,0.733-0.417,2.083-0.85,4.05c-0.533,1.3-0.483,3.133,0.15,5.5
			c0.333,1.166,0.7,2.217,1.1,3.149l1.85,1.851c0.767,0.767,1.2,1.916,1.3,3.45c0.066,0.8,0.05,1.5-0.05,2.1h-1.85
			c-2.066-0.3-3.783-0.5-5.15-0.6c-2.667-0.2-4.25,0.216-4.75,1.25c-0.733,1.466-1.35,3.8-1.85,7c-0.566,3.666-0.566,6.483,0,8.449
			c0.5,1.801,0.65,3.584,0.45,5.351c-0.1,0.866-0.25,1.55-0.45,2.05l1.55,1.85c1.233,1.667,2.367,3.534,3.4,5.601
			s1.65,4.133,1.85,6.2c0.101,1.033,0.101,1.85,0,2.449c-0.3-0.6-0.783-1.316-1.45-2.149c-1.367-1.667-2.95-3.017-4.75-4.05
			c-2.1-1.2-3.983-1.684-5.65-1.45c-1.5,0.2-3.533,1.1-6.1,2.7c-0.633,0.399-1.183,0.8-1.65,1.199c0.767-3.1,1.517-5.149,2.25-6.149
			c0.633-0.8,1.616-2.033,2.95-3.7c1.1-1.434,1.767-2.667,2-3.7c0.3-1.133,0.483-3.017,0.55-5.649c0.066-1.7,0.1-4.983,0.1-9.851
			c0-3.333,1.351-7.116,4.05-11.35c1.333-2.101,2.667-3.884,4-5.351c0.8-2.466,1.417-5.35,1.85-8.649
			c0.267-2.3-0.283-4.95-1.65-7.95c-1.233-2.733-2.55-4.617-3.95-5.65c-1.034-0.767-1.85-1.817-2.45-3.15l-0.65-1.8
			c-0.6-1.433-1.25-3.15-1.95-5.15C44.2,141.817,43.283,138.5,42.85,135.8z"/>
		<path style="fill-rule:evenodd;clip-rule:evenodd;fill:#6D4126;" d="M33.2,260.6c-0.4,0.467-1.384,2.051-2.95,4.75
			c0.233-2.3,1.083-4.716,2.55-7.25c1.667-2.899,2.667-5.017,3-6.35c0.8-2.4,1.316-4,1.55-4.8c0.367-1.2,0.417-2.65,0.15-4.351
			c0.866,1.834,1.75,3.434,2.65,4.801l3.7,2.449c1.567,1.067,2.934,2.934,4.101,5.601c0.666,1.533,1.566,4,2.7,7.399
			c0.767,2.067,1,5.467,0.7,10.2c-0.166,2.367-0.399,4.533-0.7,6.5c-0.4-3.7-1.017-7-1.85-9.899c-0.633-2.167-2.283-4.45-4.95-6.851
			c-2.7-2.434-4.966-3.649-6.8-3.649C35.383,259.15,34.1,259.634,33.2,260.6z"/>
		<path style="fill-rule:evenodd;clip-rule:evenodd;fill:#6D4126;" d="M23.45,79.15c0,0.8-0.717,1.333-2.15,1.6
			C20.467,80.917,19.116,81,17.25,81c-0.634-2.133-1.2-3.783-1.7-4.95c1.434,0.067,3,0.367,4.7,0.9
			C22.383,77.617,23.45,78.35,23.45,79.15z"/>
		<path style="fill-rule:evenodd;clip-rule:evenodd;fill:#6D4126;" d="M14.15,48.25c1.3,0,2.417,1.333,3.35,4
			c0.467,1.333,0.8,2.667,1,4l-5.55-1.2c-2.667-0.6-4.65,0.434-5.95,3.1c-0.134-0.7-0.333-2.117-0.6-4.25
			c-0.167-1.367-0.383-2.433-0.65-3.2C9.65,49.067,12.45,48.25,14.15,48.25z"/>
	</g>
	<path style="fill-rule:evenodd;clip-rule:evenodd;fill:#55351E;" d="M29,26.6l2.8,3.25c1.867,2.467,2.8,4.467,2.8,6
		c0,1.333-0.1,3.033-0.3,5.1c-0.233,2.066-0.35,3.466-0.35,4.2c0,1.633-0.617,3.684-1.851,6.15l-3.7,3.1
		c-3.3-1.233-6.4-2.667-9.3-4.3c-1.8-1.033-4.566-1.25-8.3-0.65L5.75,50.7l-1.8-3.45L6.8,45.8c2.066-1,3.5-1.633,4.3-1.9
		c0.7-0.233,1.75-0.3,3.15-0.2c2.633,0.133,4.467,0.2,5.5,0.2c3.3,0,5.767-0.2,7.4-0.6c0.833-2.066,1.25-4.133,1.25-6.2
		c0-1.3,0.1-3.434,0.3-6.4L29,26.6z"/>
	<path style="fill-rule:evenodd;clip-rule:evenodd;fill:#55351E;" d="M28.1,71.05l-1.55-6.75l4.95,3.1l0.85,2.1
		c0.733,1.533,1.483,2.683,2.25,3.45c0.767,0.767,1,1.816,0.7,3.15c-0.167,0.7-0.4,1.3-0.7,1.8v3.75c-3.3,0-5.783-0.417-7.45-1.25
		c-0.633-0.333-2.45-1.45-5.45-3.35c-2.667-1.667-4.351-2.617-5.05-2.85c-0.867-0.267-0.433-0.317,1.3-0.15
		c1.566,0.167,3.399,0.417,5.5,0.75c1.1,0.2,2.083,0.717,2.95,1.55c0.433,0.467,1.1,0.367,2-0.3c0.833-0.6,1.133-0.9,0.9-0.9
		c-0.6,0-0.9-0.316-0.9-0.95C28.4,73.433,28.3,72.383,28.1,71.05z"/>
	<path style="fill-rule:evenodd;clip-rule:evenodd;fill:#55351E;" d="M58.1,95.25c0.267-0.767,0.351-2.033,0.25-3.8l-0.25-2.4
		l4.95,4.35l0.3,1.6c0.2,1.333,0.3,2.65,0.3,3.95c0,1.433-0.083,2.333-0.25,2.7c-0.034,0.1-0.567,0.85-1.6,2.25
		c-1.133,1.633-1.983,2.85-2.55,3.65c-1,1.333-2,2.383-3,3.15c-1.467,0.933-2.384,1.55-2.75,1.85c-0.5,0.434-0.617,1.05-0.35,1.85
		c0.4,1.233,0.6,2.883,0.6,4.95c0,2.9-0.2,5.167-0.6,6.8c-0.267,1.033-0.867,1.967-1.8,2.8l-1.3,0.95l-5.25-0.45
		c0.167-1.067,0.233-2.267,0.2-3.6c0-2.633-0.384-4.583-1.15-5.85c-0.767-1.3-2.533-3.45-5.3-6.45l-3.95-4.1h5.55l4.35-4.3v-6.2
		c0-1.3-0.316-3.434-0.95-6.4l-0.95-4.1l1.8,1.4c1.567,1.233,3.25,2.617,5.05,4.15c1.8,1.533,2.75,3.033,2.85,4.5
		c0.033,0.733-0.1,1.3-0.4,1.7h2.5C56.434,98.133,57.667,96.483,58.1,95.25z"/>
	<path style="fill-rule:evenodd;clip-rule:evenodd;fill:#55351E;" d="M58.7,53.8c0.833-1.667,1.25-5.167,1.25-10.5l1.95,2.4
		c1.333,1.733,2.117,2.983,2.35,3.75c0.333,0.933,0.616,2.2,0.85,3.8c0.267,1.633,0.4,3.05,0.4,4.25c0,1.667-0.617,3.317-1.85,4.95
		l-3.1,6.2c-0.533,1.033-1.333,1.55-2.4,1.55c-1.466-0.2-2.716-0.3-3.75-0.3c-1.3,0-2.617-0.417-3.95-1.25L48.8,67.4h5.6l3.7-5.55
		c0.4-0.633,0.517-1.934,0.351-3.9C58.25,55.917,58.333,54.533,58.7,53.8z"/>
	<path style="fill-rule:evenodd;clip-rule:evenodd;fill:#55351E;" d="M55.6,137.3l3.7-1.25l6.85,13c0.8,1.633,1.417,3.7,1.85,6.2
		c-4.134-0.833-8.267-1.867-12.4-3.1c-2.566-0.767-4.517-2.55-5.85-5.35c-0.141-0.412-0.273-0.804-0.4-1.175
		c-0.254-0.288-0.438-0.596-0.55-0.925c-0.4-1.233-0.917-2.617-1.55-4.15l-0.2-0.55c0.033,0.067,0.2,0.4,0.5,1
		c0.375,0.72,0.975,2.262,1.8,4.625c0.944,1.083,2.877,1.875,5.8,2.375c1.867,0.3,3.667,0.45,5.4,0.45
		c-1.233-2.5-2.467-4.567-3.7-6.2c-0.8-1.066-1.233-1.967-1.3-2.7C55.583,138.684,55.6,137.934,55.6,137.3z"/>
	<path style="fill-rule:evenodd;clip-rule:evenodd;fill:#55351E;" d="M77.9,173.8l4.949,11.15l-1.25,7.399
		c-0.399,0.301-0.967,0.617-1.699,0.95c-1.467,0.601-2.967,0.9-4.5,0.9c-1.234,0-1.817-0.05-1.75-0.15
		c0.133-0.3-0.317-0.666-1.351-1.1c-1.3-0.5-2.3-1.367-3-2.601l-0.7-1.699l4.95-1.25l-0.6-4.95c-0.434-2.066-0.65-3.717-0.65-4.95
		c0-0.767,0.316-1.517,0.95-2.25c0.3-0.366,0.6-0.65,0.9-0.85L77.9,173.8z"/>
	<path style="fill-rule:evenodd;clip-rule:evenodd;fill:#55351E;" d="M68,201v-6.2l1.65,3.65c1.133,2.6,1.816,4.283,2.05,5.05
		c0.2,0.634,0.583,1.8,1.149,3.5c0.467,1.566,0.7,2.866,0.7,3.9c0,0.899,0.101,2.017,0.3,3.35c0.2,1.333,0.301,2.283,0.301,2.85
		c0,1.233-1.234,3.5-3.7,6.801l-4.3,3.1l1.7,6.55c1.2,4.634,2.066,7.601,2.601,8.9c0.533,1.3,0.683,3.033,0.45,5.2
		c-0.101,1.066-0.25,2.017-0.45,2.85c-0.4,4.134-0.817,6.816-1.25,8.05c-0.434,1.334-3.934,4.017-10.5,8.05
		c-1.467,0.867-2.884,0.95-4.25,0.25c-1.2-0.666-2.467-2-3.8-4c-0.667-1-1.716-3.166-3.15-6.5c-1.3-2.933-2.517-5.1-3.65-6.5
		l-6.35-7.25l3,1.25c2.333,0.9,4.283,1.467,5.85,1.7c1.534,0.267,3.134,0.967,4.8,2.101c0.833,0.566,1.5,1.1,2,1.6l3.1-3.7
		c1.267-1.533,2.267-3.649,3-6.35l0.7-3.55c-1.233-3.7-1.851-6.384-1.851-8.051c0-0.8-0.416-1.833-1.25-3.1
		c-0.833-1.233-1.25-2.267-1.25-3.1c0-1.034-0.716-2.983-2.149-5.851l-2.15-4.05l2.8,1.35c2.034,1.134,3.567,2.334,4.601,3.601
		c1.033,1.3,1.966,1.8,2.8,1.5c0.4-0.167,0.7-0.45,0.9-0.851l2.5-3.699c0.833-2.067,1.25-3.934,1.25-5.601
		c0-1.1,0.15-2.149,0.45-3.149C66.767,204.15,67.233,202.934,68,201z"/>
	<path style="fill-rule:evenodd;clip-rule:evenodd;fill:#55351E;" d="M50.65,283.9c0.433-1.233,0.433-8.25,0-21.051l3.65,4.7
		c2.566,3.4,4.233,5.75,5,7.05c0.733,1.2,0.967,2.851,0.7,4.95c-0.467,3.733-0.7,6-0.7,6.8c0,1.867-0.017,2.65-0.05,2.351
		c-0.167-0.934-0.35-1.084-0.55-0.45c-0.534,1.667-2.184,3.517-4.95,5.55c-1.033,0.767-1.55,1.717-1.55,2.851
		c0,0.666,0.1,1.783,0.3,3.35c0,1.634-0.2,3.684-0.6,6.15c-0.833,0.199-1.867,0.35-3.1,0.449c-2.467,0.233-4.733,0.084-6.8-0.449
		c-2.066-0.5-4.333-1.884-6.8-4.15l-3.101-3.25L35.2,300l2.5-0.1c1.833-0.101,3.267-0.284,4.3-0.551
		c1.033-0.233,1.866-0.916,2.5-2.05c0.3-0.566,0.5-1.116,0.6-1.649c0-0.601-0.1-1.351-0.3-2.25c-0.434-1.733-1.167-3.25-2.2-4.551
		c-1.033-1.3-1.433-2.3-1.2-3l0.6-0.699l2.15,1.25c1.667,0.8,3.017,1.199,4.05,1.199c1.033,0,1.75-0.616,2.149-1.85L50.65,283.9z"/>
	<path style="fill-rule:evenodd;clip-rule:evenodd;fill:#55351E;" d="M77.9,285.75c1.533-4.134,2.1-8.566,1.699-13.3l-1.1-5.851
		l2.85,5.851c1.967,4.133,3.084,6.717,3.351,7.75c0.233,0.967,0.316,2.35,0.25,4.149c-0.167,3.101-0.25,4.801-0.25,5.101
		c0,1.333,0.1,2.616,0.3,3.85c0.2,1.267,0.3,2.25,0.3,2.95c0,1.167-0.483,2.333-1.45,3.5c-0.899,1.033-1.866,1.733-2.899,2.1
		c-0.767,0.267-1.817,1.167-3.15,2.7L76,306.8c-0.4,0.5-1.084,1.084-2.05,1.75c-1.967,1.334-4.367,2.4-7.2,3.2
		c-2.833,0.767-5.434,0.583-7.8-0.55l-2.7-1.95h7.4c1.3,0,2.3-0.717,3-2.15c0.367-0.699,0.6-1.416,0.7-2.149l1.801-1.7
		c1.333-1.233,2.383-2.116,3.149-2.65c0.767-0.533,1.2-1.1,1.3-1.699l-0.05-0.801l-2.45-4.949l-1.25-4.9l3.301,0.7
		C75.483,289.017,77.066,287.95,77.9,285.75z"/>
	<path style="fill-rule:evenodd;clip-rule:evenodd;fill:#55351E;" d="M102.6,278.5l-0.6-5.1c-0.4-10.733-0.6-16.934-0.6-18.601
		c0-1,1.083,0.867,3.25,5.601c1.133,2.466,2.516,5.55,4.149,9.25c0.833,1.666,1.25,5.583,1.25,11.75l-1.25,6.85
		c-0.399,2.033-0.6,5.733-0.6,11.1l-1.851,3.7l-4.949-1.85c-1.667-3.3-2.5-5.983-2.5-8.05c0-1.567,0.083-2.584,0.25-3.051
		c0.199-0.566,0.949-1.816,2.25-3.75C102.434,284.816,102.833,282.2,102.6,278.5z"/>
	<path style="fill-rule:evenodd;clip-rule:evenodd;fill:#55351E;" d="M45.15,44.7c0.633,1.3,0.633,5.083,0,11.35h-3
		c-0.567-0.733-1.117-1.55-1.65-2.45c-1.066-1.833-1.5-3.167-1.3-4c0.3-1.1,1.233-2.383,2.8-3.85
		C43.667,44.183,44.717,43.833,45.15,44.7z"/>
	<path style="fill-rule:evenodd;clip-rule:evenodd;fill:#55351E;" d="M46.1,77.8c0.367,1.034,0.517,2.317,0.45,3.85
		c-0.066,1.8-0.533,2.483-1.4,2.05c-0.9-0.467-1.067-1.784-0.5-3.95C45.283,77.417,45.767,76.767,46.1,77.8z"/>
	<path style="fill-rule:evenodd;clip-rule:evenodd;fill:#55351E;" d="M77.75,144.45c1.033,0,1.75-1.4,2.15-4.2l0.3-4.2v7.45l-1,3.45
		c-0.2,0.533,0.149,1.15,1.05,1.85c1.434,1.067,2.4,1.934,2.9,2.6c0.833,1.033,0.683,2.65-0.45,4.85c-0.601,1.134-1.267,2.15-2,3.05
		c0-1.967-0.167-3.617-0.5-4.95c-0.2-0.8-1-1.7-2.4-2.7l-2.05-1.25c-0.267-1-0.384-1.983-0.35-2.95
		C75.467,145.45,76.25,144.45,77.75,144.45z"/>
	<path style="fill-rule:evenodd;clip-rule:evenodd;fill:#55351E;" d="M59.95,130.65c1.5-0.167,2.5,0.05,3,0.65
		c0.166,0.233,0.649-0.15,1.45-1.15c1.1-1.333,1.8-2.833,2.1-4.5c0.233-1.333,0.184-2.467-0.15-3.4c-0.2-0.633,0.334,0.5,1.601,3.4
		c0.6,1.434,1.233,2.934,1.899,4.5l-3.95,2.95L59.95,130.65z"/>
	<path style="fill-rule:evenodd;clip-rule:evenodd;fill:#55351E;" d="M88.9,203.25l-2.75-4.45l3.949,2.95L91.4,205
		c0.899,2.3,1.449,3.866,1.649,4.7c0.267,0.967,0.4,1.916,0.4,2.85c0,0.9-0.134,2.084-0.4,3.55c-0.233,1.334-0.85,2.65-1.85,3.95
		c-0.8,1.066-1.667,1.884-2.601,2.45c-0.633,0.434-2.217,0.15-4.75-0.85L80.2,220.05L81.6,220c1.066-0.1,1.917-0.25,2.551-0.45
		c2.133-0.7,3.616-1.684,4.449-2.95c0.667-1,0.834-1.983,0.5-2.949C90.533,210.35,90.467,206.884,88.9,203.25z"/>
	<path style="fill-rule:evenodd;clip-rule:evenodd;fill:#55351E;" d="M94.55,242.8l2.45-2.5v4.95c0,1.634-0.167,2.45-0.5,2.45
		c-1.3,0-2.45-0.167-3.45-0.5c-0.634-0.2-1.316-0.667-2.05-1.4l-0.9-1.05l1.5-0.95C92.733,243.134,93.717,242.8,94.55,242.8z"/>
	<path style="fill-rule:evenodd;clip-rule:evenodd;fill:#55351E;" d="M87.1,237.85l0.4,2c0,1.301-0.617,1.95-1.85,1.95
		c-1.234,0-1.934-0.333-2.101-1l0.101-1l1.199-0.8C85.75,238.434,86.5,238.05,87.1,237.85z"/>
	<path style="fill-rule:evenodd;clip-rule:evenodd;fill:#6D4126;" d="M60.45,118.8c0.2,0,1.083,0.9,2.649,2.7
		c0.8,0.9,1.567,1.8,2.3,2.7l-5.95,3.95c-0.634,0.434-1.233,0.567-1.8,0.4l-0.65-0.4v-5.4l0.95-1.95
		C58.75,119.467,59.583,118.8,60.45,118.8z"/>
	<path style="fill-rule:evenodd;clip-rule:evenodd;fill:#6D4126;" d="M38.7,81.25c-0.334-1.667-0.334-3.15,0-4.45l0.5-2l5.45-0.95
		l-2,4.9L38.7,81.25z"/>
	<path style="fill-rule:evenodd;clip-rule:evenodd;fill:#6D4126;" d="M54,86.2l4.1,2.85l-1.6,4.05l-6.9-4.45
		c-0.066-0.4-0.05-0.8,0.05-1.2c0.233-0.833,0.867-1.25,1.9-1.25H54z"/>
	<path style="fill-rule:evenodd;clip-rule:evenodd;fill:#6D4126;" d="M37.7,56.55l-2.45-6.45l1.5-6.4l0.9-1.05
		c0.733-0.733,1.417-1.2,2.05-1.4c1-0.333,3.133-0.183,6.399,0.45l-4.45,3l-1.95,2.45L37.7,56.55z"/>
	<path style="fill-rule:evenodd;clip-rule:evenodd;fill:#6D4126;" d="M50.55,57.55V50.6c0-0.333,0.066-0.717,0.2-1.15
		c0.233-0.9,0.667-1.667,1.3-2.3c1-1,3.134-2.816,6.4-5.45c-0.567,0.9-1.167,1.867-1.8,2.9c-1.233,2.066-1.95,3.417-2.15,4.05
		C54.167,49.617,52.85,52.583,50.55,57.55z"/>
	<path style="fill-rule:evenodd;clip-rule:evenodd;fill:#6D4126;" d="M76.25,140.5l-1.5,1.5c-0.6,0.633-1.1,1.233-1.5,1.8
		l-0.45,0.65L70.3,143l2.5-5.95L76.25,140.5z"/>
	<path style="fill-rule:evenodd;clip-rule:evenodd;fill:#6D4126;" d="M86.15,198.8l-3,4.45L80.7,214.1c-0.334-2.633-1-5.1-2-7.399
		c-0.601-1.434-0.617-2.517-0.05-3.25c0.3-0.367,0.649-0.601,1.05-0.7l1-2.45l1.399-0.55C83.333,199.316,84.684,199,86.15,198.8z"/>
	<polygon style="fill-rule:evenodd;clip-rule:evenodd;fill:#6D4126;" points="81.2,234.85 83.15,233.9 83.65,237.85 	"/>
	<path style="fill-rule:evenodd;clip-rule:evenodd;fill:#6D4126;" d="M91.55,237.35l3,5.45l-5.45-1.5
		c0.101-0.566,0.267-1.166,0.5-1.8C90.1,238.267,90.75,237.55,91.55,237.35z"/>
	<path style="fill-rule:evenodd;clip-rule:evenodd;fill:#6D4126;" d="M88.1,259.55l1.5-3.95l4.95-2.949l4.9,2.949l-5.4,1.5
		l-0.75,1.5c-0.5,1.134-0.75,2.117-0.75,2.95c0,1.3-0.167,5.084-0.5,11.351l-4.45-4.45L88.1,259.55z"/>
	<path style="fill-rule:evenodd;clip-rule:evenodd;fill:#6D4126;" d="M73.8,265l1.95,0.5c-3.3,2.634-5.6,4.116-6.9,4.45
		c-0.833,0.2-1.733,1.833-2.7,4.899c-0.5,1.534-0.917,3.034-1.25,4.5c-1-2.333-1.333-4.149-1-5.449c0.2-0.834,0.35-2.067,0.45-3.7
		l0.05-2.25l3.95-2.45L73.8,265z"/>
	<path style="fill-rule:evenodd;clip-rule:evenodd;fill:#6D4126;" d="M65.4,288.7l-1.5,5.95c-2.633,0.666-4.933,1.316-6.9,1.949
		c-1.233,0.434-2.1,1.384-2.6,2.851c-0.267,0.733-0.4,1.434-0.4,2.1L52.5,300l1.25-6.2l8.65-3.1L65.4,288.7z"/>
	<path style="fill-rule:evenodd;clip-rule:evenodd;fill:#55351E;" d="M79.7,84.7c1.633-0.4,2.95-2,3.95-4.8l1-4.1l1,3.15
		c0.666,2.233,1,3.65,1,4.25c0,1-0.5,2.816-1.5,5.45l-1,4.45L87.6,101l1.5,5.45l-1.05,3.25c-0.733,2.4-1.2,4.117-1.399,5.15
		c-0.2,1.033-1.25,1.833-3.15,2.4l-2.8,0.55l-5.95-2.45l6.95-1l2.45-6.45c-0.334-2.3-0.667-3.933-1-4.9
		c-0.2-0.633-0.834-1.65-1.9-3.05l-1.55-1.9l-1.95-6.45c0-1.067,0.083-2.15,0.25-3.25C78.333,86.117,78.9,84.9,79.7,84.7z"/>
	<path style="fill-rule:evenodd;clip-rule:evenodd;fill:#55351E;" d="M61.45,10.55l0.5-2.9l2,2.65c1.3,1.9,1.95,3.15,1.95,3.75
		c0,1-0.333,2.15-1,3.45l-2.5,3l-0.05,2.2c-0.066,1.667-0.2,2.9-0.399,3.7c-0.2,0.833-0.851,1.5-1.95,2l-1.55,0.5L56,33.8
		c-0.667,1.333-2.483,2.983-5.45,4.95l0.5-5.9l2.5-3.95l2.95-2.5L56,22.45V17l3.45-2.45C60.283,13.917,60.95,12.583,61.45,10.55z"/>
	<path style="fill-rule:evenodd;clip-rule:evenodd;fill:#55351E;" d="M101.95,206.2c0.8-1.634,0.716-3.934-0.25-6.9l-1.75-3.95
		l5.95,11.351l0.449,1.95c0.233,1.566,0.25,3.066,0.051,4.5c-0.334,2.3-1,4.267-2,5.899c-2.301,1.334-4.117,2-5.45,2
		c-0.8,0-1.45-0.333-1.95-1l-0.5-1l2.55-1.8c1.733-1.366,2.7-2.566,2.9-3.6c0.133-0.634,0.033-1.851-0.3-3.65
		C101.35,208.467,101.45,207.2,101.95,206.2z"/>
	<path style="fill-rule:evenodd;clip-rule:evenodd;fill:#55351E;" d="M110.85,251.65l1.45-7.9l1.5,7.4l1.95,5.449l0.5,3.101
		c0.333,2.467,0.5,4.733,0.5,6.8c0,3.3-0.816,7.25-2.45,11.85c-0.333-3.633-0.5-6.267-0.5-7.899c0-2.634-0.167-4.783-0.5-6.45
		c-0.2-1.033-0.583-2.566-1.149-4.6l-0.801-2.801C110.684,254.634,110.517,252.983,110.85,251.65z"/>
	<path style="fill-rule:evenodd;clip-rule:evenodd;fill:#55351E;" d="M114.8,233.9l4.9,7.899c0.666,0.967,1.166,2.767,1.5,5.4v5.45
		l-3.45,2v-9.4c-0.667-1.467-1.117-2.517-1.35-3.15c-0.434-1.033-0.65-1.966-0.65-2.8c0-0.8-0.15-1.95-0.45-3.45L114.8,233.9z"/>
	<path style="fill-rule:evenodd;clip-rule:evenodd;fill:#55351E;" d="M120.2,282.3l1-7.399l0.75,2.1c0.5,1.634,0.75,3.066,0.75,4.3
		c0,1.967,0.166,4.117,0.5,6.45v2.95c0,1.2-0.367,2.483-1.101,3.85c-0.934,1.4-1.566,2.417-1.899,3.05
		c-0.634,1.334-2.267,2.65-4.9,3.95c0.233-0.566,0.533-1.25,0.9-2.05c0.733-1.533,1.416-2.816,2.05-3.85
		c0.6-1.034,0.7-2.667,0.3-4.9l-0.8-3C118.75,286.083,119.566,284.267,120.2,282.3z"/>
	<path style="fill-rule:evenodd;clip-rule:evenodd;fill:#55351E;" d="M124.15,299.1l0.3,2.95c0.1,1.967-0.167,2.95-0.8,2.95
		c-0.734,0-1.317-0.217-1.75-0.65c-0.467-0.466-0.7-1.066-0.7-1.8c0-0.6,0.316-1.184,0.95-1.75
		C122.517,300.467,123.184,299.9,124.15,299.1z"/>
	<path style="fill-rule:evenodd;clip-rule:evenodd;fill:#6D4126;" d="M74.05,78.5c-0.934,0.3-2.333,1.883-4.2,4.75l-2.5,4.15
		c0-2.467,0.25-5.183,0.75-8.15c0.3-1.867,1.884-3.65,4.75-5.35c1.4-0.867,2.783-1.55,4.15-2.05l2.95,2.95
		C77.483,76.8,75.517,78.033,74.05,78.5z"/>
	<path style="fill-rule:evenodd;clip-rule:evenodd;fill:#6D4126;" d="M71.05,91.85l3.7,2.25c-1.967,1.967-3.684,3.2-5.15,3.7
		c-0.933,0.3-1.333,1.883-1.2,4.75c0.067,1.4,0.216,2.784,0.45,4.15L65.9,96.3L71.05,91.85z"/>
	<path style="fill-rule:evenodd;clip-rule:evenodd;fill:#6D4126;" d="M42.9,11.85l8.9,0.75l-5.95,2.2L40.7,25.9
		c-0.5-3.933-0.75-6.65-0.75-8.15c0-0.9,0.5-2.15,1.5-3.75C41.917,13.2,42.4,12.483,42.9,11.85z"/>
	<path style="fill-rule:evenodd;clip-rule:evenodd;fill:#55351E;" d="M11.3,29.85c0.667,0,1.55,0.667,2.65,2
		c1.033,1.233,1.55,2.133,1.55,2.7c0,0.567-0.3,1.067-0.9,1.5c-0.666,0.5-1.517,0.75-2.55,0.75c-2.267,0-3.5-0.75-3.7-2.25
		c-0.133-0.833,0.084-1.8,0.65-2.9C9.633,30.45,10.4,29.85,11.3,29.85z"/>
	<path style="fill-rule:evenodd;clip-rule:evenodd;fill:#55351E;" d="M34.5,62.2l0.8-0.85c0.667-0.6,1.316-0.967,1.95-1.1
		c1.967-0.433,2.9,0.533,2.8,2.9c-0.066,2.333-0.6,3.667-1.6,4c-0.601,0.2-1.434-0.566-2.5-2.3L34.5,62.2z"/>
	<path style="fill-rule:evenodd;clip-rule:evenodd;fill:#55351E;" d="M42.9,68.65c1.034-0.233,1.733,0.167,2.1,1.2
		c0.333,0.933,0.3,1.767-0.1,2.5c-0.367,0.6-1.067,0.617-2.1,0.05c-1-0.566-1.616-1.25-1.85-2.05c-0.2-0.633-0.084-1.067,0.35-1.3
		C41.434,68.983,41.967,68.85,42.9,68.65z"/>
	<path style="fill-rule:evenodd;clip-rule:evenodd;fill:#55351E;" d="M75.55,64.95c-0.733-0.567-1.149-1.317-1.25-2.25
		c-0.134-1.1,0.2-1.867,1-2.3c0.9-0.5,1.884-0.217,2.95,0.85c0.9,0.9,1.25,1.883,1.05,2.95c-0.233,1-0.75,1.5-1.55,1.5
		C76.916,65.7,76.184,65.45,75.55,64.95z"/>
	<path style="fill-rule:evenodd;clip-rule:evenodd;fill:#55351E;" d="M81.95,125.7c3.267,0.433,4.8,1.75,4.6,3.95
		c-0.066,0.833-0.384,1.567-0.95,2.2c-0.566,0.667-1.133,1-1.699,1c-1.101,0-2.184-0.467-3.25-1.4c-1.101-0.934-1.834-2.034-2.2-3.3
		C77.883,126.15,79.05,125.333,81.95,125.7z"/>
	<path style="fill-rule:evenodd;clip-rule:evenodd;fill:#55351E;" d="M77.75,159.05c-0.033,1-0.2,1.983-0.5,2.95
		c-0.467-0.267-0.934-0.634-1.4-1.1c-0.934-0.9-1.449-1.767-1.55-2.601c-0.1-0.899,0-1.517,0.3-1.85
		c0.267-0.233,0.816-0.35,1.65-0.35C77.383,156.1,77.883,157.083,77.75,159.05z"/>
	<path style="fill-rule:evenodd;clip-rule:evenodd;fill:#55351E;" d="M84.9,168.7c2.666-0.967,4.366-0.084,5.1,2.649
		c0.666,2.534,0.533,4.284-0.4,5.25c-0.633,0.601-1.916,0.184-3.85-1.25c-1.934-1.433-2.967-2.75-3.1-3.949
		c-0.067-1.034,0.283-1.801,1.05-2.301C84.1,168.866,84.5,168.733,84.9,168.7z"/>
	<path style="fill-rule:evenodd;clip-rule:evenodd;fill:#55351E;" d="M63.4,172.15c0.833-0.601,1.5,0.383,2,2.949
		c0.534,2.5,0.534,4.233,0,5.2c-0.466,0.8-1.567,0.717-3.3-0.25c-1.7-0.934-2.75-1.934-3.149-3c-0.3-0.8,0.35-1.866,1.95-3.2
		C61.7,173.217,62.533,172.65,63.4,172.15z"/>
	<path style="fill-rule:evenodd;clip-rule:evenodd;fill:#55351E;" d="M85.9,180.8c0.566,0.134,1.016,0.634,1.35,1.5
		c0.4,0.967,0.434,2.017,0.1,3.15c-0.3,1.033-0.833,1.066-1.6,0.1l-1.1-1.8c0.066-0.533,0.166-1.05,0.3-1.55
		C85.217,181.167,85.533,180.7,85.9,180.8z"/>
	<path style="fill-rule:evenodd;clip-rule:evenodd;fill:#55351E;" d="M78.95,249.7c1.6,0.666,2.383,1.783,2.35,3.35
		c-0.033,1.434-0.566,2.283-1.6,2.55c-0.8,0.233-1.384,0.084-1.75-0.449c-0.334-0.434-0.567-1.267-0.7-2.5
		c-0.134-1.167-0.066-2.017,0.2-2.551C77.75,249.533,78.25,249.4,78.95,249.7z"/>
	<path style="fill-rule:evenodd;clip-rule:evenodd;fill:#55351E;" d="M91.05,277.1c0.733,0.101,1.2,1.25,1.4,3.45
		c0.1,1.101,0.133,2.184,0.1,3.25l-5.2-3.5l0.5-1.8C88.517,277.366,89.583,276.9,91.05,277.1z"/>
	<path style="fill-rule:evenodd;clip-rule:evenodd;fill:#55351E;" d="M93.8,296.85c1.434-0.5,2.483,0.467,3.15,2.9
		c0.333,1.233,0.517,2.5,0.55,3.8l-5.95-1.5c-0.033-0.733,0.05-1.5,0.25-2.3C92.133,298.184,92.8,297.217,93.8,296.85z"/>
	<path style="fill-rule:evenodd;clip-rule:evenodd;fill:#55351E;" d="M49.9,238.4c0,1.366-0.517,2.25-1.55,2.649
		c-0.833,0.3-1.566,0.101-2.2-0.6l-0.75-1.15l0.4-1.45c0.467-1,1.233-1.5,2.3-1.5C49.3,236.35,49.9,237.033,49.9,238.4z"/>
	<path style="fill-rule:evenodd;clip-rule:evenodd;fill:#55351E;" d="M60.2,270.7c-0.867-0.467-1.117-1.517-0.75-3.15
		c0.133-0.566,0.366-1.033,0.7-1.399c0.4-0.434,0.833-0.65,1.3-0.65c0.566,0,1.05,0.4,1.45,1.2c0.466,0.899,0.466,1.733,0,2.5
		c-0.534,0.967-0.917,1.533-1.15,1.7C61.417,271.134,60.9,271.066,60.2,270.7z"/>
	<path style="fill-rule:evenodd;clip-rule:evenodd;fill:#5B554D;" d="M10.55,28.9c0.7,0,1.583,0.65,2.65,1.95
		c1.033,1.267,1.55,2.167,1.55,2.7c0,0.567-0.3,1.067-0.9,1.5c-0.666,0.5-1.517,0.75-2.55,0.75c-2.2,0-3.434-0.75-3.7-2.25
		c-0.133-0.833,0.084-1.783,0.65-2.85C8.883,29.5,9.65,28.9,10.55,28.9z"/>
	<path style="fill-rule:evenodd;clip-rule:evenodd;fill:#5B554D;" d="M35.2,63.9l-1.45-2.65l0.8-0.85
		c0.667-0.633,1.316-1.017,1.95-1.15c1.967-0.433,2.917,0.533,2.85,2.9c-0.1,2.367-0.649,3.7-1.649,4
		C37.1,66.35,36.267,65.6,35.2,63.9z"/>
	<path style="fill-rule:evenodd;clip-rule:evenodd;fill:#5B554D;" d="M42.15,67.65c1.034-0.233,1.75,0.167,2.15,1.2
		c0.333,0.967,0.283,1.8-0.15,2.5c-0.367,0.6-1.05,0.617-2.05,0.05c-1-0.566-1.633-1.233-1.899-2
		c-0.233-0.667-0.117-1.117,0.35-1.35C40.684,67.983,41.217,67.85,42.15,67.65z"/>
	<path style="fill-rule:evenodd;clip-rule:evenodd;fill:#5B554D;" d="M74.8,63.95c-0.7-0.534-1.116-1.267-1.25-2.2
		c-0.134-1.1,0.2-1.883,1-2.35c0.9-0.5,1.884-0.217,2.95,0.85c0.9,0.9,1.25,1.883,1.05,2.95c-0.233,1-0.75,1.5-1.55,1.5
		S75.467,64.45,74.8,63.95z"/>
	<path style="fill-rule:evenodd;clip-rule:evenodd;fill:#5B554D;" d="M81.2,124.7c3.267,0.433,4.8,1.75,4.6,3.95
		c-0.066,0.833-0.384,1.567-0.95,2.2c-0.566,0.667-1.133,1-1.699,1c-1.101,0-2.184-0.467-3.25-1.4
		c-1.067-0.934-1.784-2.017-2.15-3.25C77.15,125.167,78.3,124.333,81.2,124.7z"/>
	<path style="fill-rule:evenodd;clip-rule:evenodd;fill:#5B554D;" d="M77.05,158.05c-0.066,1-0.25,1.983-0.55,2.95
		c-0.434-0.267-0.9-0.634-1.4-1.1c-0.934-0.9-1.449-1.767-1.55-2.601c-0.1-0.9,0.017-1.517,0.351-1.85
		c0.266-0.233,0.8-0.35,1.6-0.35C76.633,155.1,77.15,156.083,77.05,158.05z"/>
	<path style="fill-rule:evenodd;clip-rule:evenodd;fill:#5B554D;" d="M84.15,167.7c2.699-0.967,4.416-0.084,5.149,2.649
		c0.667,2.534,0.517,4.284-0.45,5.25c-0.633,0.634-1.899,0.233-3.8-1.199c-1.934-1.434-2.967-2.767-3.1-4
		c-0.101-1.034,0.233-1.784,1-2.25C83.35,167.884,83.75,167.733,84.15,167.7z"/>
	<path style="fill-rule:evenodd;clip-rule:evenodd;fill:#5B554D;" d="M62.65,171.15c0.833-0.601,1.517,0.383,2.05,2.949
		c0.5,2.534,0.483,4.267-0.05,5.2c-0.466,0.834-1.567,0.767-3.3-0.2c-1.7-0.933-2.75-1.933-3.149-3
		c-0.3-0.833,0.35-1.899,1.95-3.199C60.95,172.233,61.783,171.65,62.65,171.15z"/>
	<path style="fill-rule:evenodd;clip-rule:evenodd;fill:#5B554D;" d="M85.15,179.8c0.566,0.134,1.033,0.634,1.399,1.5
		c0.4,1,0.434,2.066,0.101,3.2c-0.301,1.033-0.851,1.05-1.65,0.05l-1.1-1.8c0.066-0.533,0.166-1.05,0.3-1.55
		C84.467,180.2,84.783,179.733,85.15,179.8z"/>
	<path style="fill-rule:evenodd;clip-rule:evenodd;fill:#5B554D;" d="M78.25,248.7c1.566,0.7,2.333,1.816,2.3,3.35
		c-0.033,1.434-0.566,2.3-1.6,2.601c-0.8,0.233-1.384,0.083-1.75-0.45c-0.334-0.467-0.567-1.316-0.7-2.55
		C76.2,249.083,76.783,248.1,78.25,248.7z"/>
	<path style="fill-rule:evenodd;clip-rule:evenodd;fill:#5B554D;" d="M90.35,276.1c0.7,0.101,1.15,1.25,1.351,3.45
		c0.1,1.101,0.133,2.184,0.1,3.25l-5.149-3.45l0.5-1.8C87.783,276.384,88.85,275.9,90.35,276.1z"/>
	<path style="fill-rule:evenodd;clip-rule:evenodd;fill:#5B554D;" d="M93.05,295.9c1.434-0.534,2.483,0.416,3.15,2.85
		c0.333,1.233,0.517,2.5,0.55,3.8l-5.95-1.5c-0.033-0.7,0.05-1.45,0.25-2.25C91.383,297.233,92.05,296.267,93.05,295.9z"/>
	<path style="fill-rule:evenodd;clip-rule:evenodd;fill:#5B554D;" d="M49.15,237.4c0,1.366-0.517,2.25-1.55,2.649
		c-0.833,0.3-1.566,0.117-2.2-0.55l-0.75-1.15l0.4-1.5c0.467-1,1.233-1.5,2.3-1.5C48.55,235.35,49.15,236.033,49.15,237.4z"/>
	<path style="fill-rule:evenodd;clip-rule:evenodd;fill:#5B554D;" d="M59.45,269.7c-0.9-0.434-1.15-1.467-0.75-3.101
		c0.133-0.6,0.366-1.083,0.7-1.449c0.4-0.434,0.833-0.65,1.3-0.65c0.566,0,1.066,0.4,1.5,1.2c0.433,0.899,0.416,1.733-0.05,2.5
		c-0.534,0.967-0.917,1.533-1.15,1.7C60.667,270.134,60.15,270.066,59.45,269.7z"/>
	<path style="fill-rule:evenodd;clip-rule:evenodd;fill:#514C45;" d="M11.85,31.85c0.467,0,1.084,0.367,1.851,1.1
		c0.7,0.733,1.05,1.25,1.05,1.55c0,0.333-0.2,0.633-0.6,0.9c-0.466,0.267-1.067,0.4-1.8,0.4c-1.533,0-2.383-0.433-2.55-1.3
		c-0.1-0.467,0.05-1,0.45-1.6C10.684,32.2,11.217,31.85,11.85,31.85z"/>
	<path style="fill-rule:evenodd;clip-rule:evenodd;fill:#514C45;" d="M35.25,63l0.6-0.55c0.467-0.4,0.934-0.65,1.4-0.75
		c1.434-0.3,2.133,0.333,2.1,1.9c-0.066,1.5-0.466,2.367-1.2,2.6c-0.466,0.133-1.083-0.367-1.85-1.5L35.25,63z"/>
	<path style="fill-rule:evenodd;clip-rule:evenodd;fill:#514C45;" d="M42.95,68.65c0.666-0.167,1.133,0.133,1.399,0.9
		c0.233,0.733,0.2,1.367-0.1,1.9c-0.233,0.466-0.684,0.483-1.35,0.05s-1.083-0.95-1.25-1.55c-0.167-0.5-0.1-0.833,0.2-1
		C41.917,68.917,42.283,68.817,42.95,68.65z"/>
	<path style="fill-rule:evenodd;clip-rule:evenodd;fill:#514C45;" d="M75.9,64.1c-0.5-0.467-0.801-1.083-0.9-1.85
		c-0.066-0.9,0.184-1.533,0.75-1.9c0.633-0.4,1.316-0.167,2.05,0.7c0.667,0.767,0.917,1.583,0.75,2.45c-0.167,0.8-0.533,1.2-1.1,1.2
		C76.883,64.7,76.366,64.5,75.9,64.1z"/>
	<path style="fill-rule:evenodd;clip-rule:evenodd;fill:#514C45;" d="M82.3,125.45c2.5,0.4,3.667,1.583,3.5,3.55
		c-0.134,1.9-0.8,2.85-2,2.85c-0.833,0-1.667-0.417-2.5-1.25c-0.8-0.833-1.35-1.817-1.649-2.95c-0.234-1-0.051-1.667,0.55-2
		C80.7,125.35,81.4,125.283,82.3,125.45z"/>
	<path style="fill-rule:evenodd;clip-rule:evenodd;fill:#514C45;" d="M77.1,158.55c-0.033,0.834-0.133,1.65-0.3,2.45
		c-1-0.934-1.55-1.95-1.649-3.05c-0.067-0.767,0-1.284,0.199-1.55c0.167-0.2,0.467-0.3,0.9-0.3
		C76.883,156.1,77.166,156.917,77.1,158.55z"/>
	<path style="fill-rule:evenodd;clip-rule:evenodd;fill:#514C45;" d="M84.5,169.6c2.533-0.733,4.133-0.05,4.8,2.051
		c0.634,1.933,0.5,3.267-0.399,4c-0.567,0.466-1.768,0.149-3.601-0.95c-1.8-1.101-2.767-2.117-2.899-3.05
		c-0.067-0.801,0.266-1.384,1-1.75C83.767,169.733,84.133,169.634,84.5,169.6z"/>
	<path style="fill-rule:evenodd;clip-rule:evenodd;fill:#514C45;" d="M63.15,173.6c0.667-0.433,1.2,0.267,1.6,2.101
		c0.4,1.833,0.383,3.083-0.05,3.75c-0.367,0.6-1.217,0.55-2.55-0.15c-1.333-0.666-2.15-1.383-2.45-2.149
		c-0.233-0.601,0.267-1.367,1.5-2.301C61.833,174.384,62.483,173.967,63.15,173.6z"/>
	<path style="fill-rule:evenodd;clip-rule:evenodd;fill:#514C45;" d="M85.85,181.25c0.367,0.134,0.684,0.517,0.95,1.15
		c0.267,0.699,0.283,1.466,0.05,2.3c-0.199,0.767-0.566,0.783-1.1,0.05l-0.75-1.3c0.033-0.4,0.1-0.783,0.2-1.15
		C85.4,181.533,85.616,181.184,85.85,181.25z"/>
	<path style="fill-rule:evenodd;clip-rule:evenodd;fill:#514C45;" d="M78.8,250.4c1.2,0.466,1.783,1.267,1.75,2.399
		c-0.033,1.033-0.434,1.65-1.2,1.851c-0.6,0.166-1.05,0.066-1.35-0.301c-0.267-0.333-0.45-0.949-0.55-1.85
		C77.283,250.634,77.733,249.934,78.8,250.4z"/>
	<path style="fill-rule:evenodd;clip-rule:evenodd;fill:#514C45;" d="M90.7,277.35c0.866,0.134,1.233,1.95,1.1,5.45l-3.95-2.85
		l0.4-1.45C88.75,277.566,89.566,277.184,90.7,277.35z"/>
	<path style="fill-rule:evenodd;clip-rule:evenodd;fill:#514C45;" d="M93.95,297.35c1.1-0.399,1.899,0.351,2.399,2.25
		c0.233,0.934,0.367,1.917,0.4,2.95L92.3,301.4c0-0.567,0.05-1.167,0.15-1.801C92.717,298.366,93.217,297.616,93.95,297.35z"/>
	<path style="fill-rule:evenodd;clip-rule:evenodd;fill:#514C45;" d="M47.65,236.6c1,0,1.5,0.517,1.5,1.551
		c0,1-0.433,1.649-1.3,1.949c-0.7,0.233-1.316,0.084-1.85-0.449l-0.6-0.851l0.3-1.1C46.1,236.967,46.75,236.6,47.65,236.6z"/>
	<path style="fill-rule:evenodd;clip-rule:evenodd;fill:#514C45;" d="M60.2,269.85c-0.667-0.267-0.851-0.899-0.55-1.899
		c0.233-0.8,0.733-1.2,1.5-1.2c0.433,0,0.8,0.233,1.1,0.7c0.333,0.533,0.333,1.033,0,1.5c-0.4,0.6-0.684,0.934-0.85,1
		C61.133,270.083,60.733,270.05,60.2,269.85z"/>
</g>
</svg>
