<?xml version="1.0" encoding="iso-8859-1"?>
<!-- Generator: Adobe Illustrator 15.1.0, SVG Export Plug-In . SVG Version: 6.00 Build 0)  -->
<!DOCTYPE svg PUBLIC "-//W3C//DTD SVG 1.1//EN" "http://www.w3.org/Graphics/SVG/1.1/DTD/svg11.dtd">
<svg version="1.1" id="FlashAICB" xmlns="http://www.w3.org/2000/svg" xmlns:xlink="http://www.w3.org/1999/xlink" x="0px" y="0px"
	 width="193.7px" height="104.35px" viewBox="0 0 193.7 104.35" style="enable-background:new 0 0 193.7 104.35;"
	 xml:space="preserve">
<g>
	<path style="fill-rule:evenodd;clip-rule:evenodd;fill:#613A22;" d="M192.55,4.8c0.067,1.167,0.101,11.034,0.101,29.6l0.399,52.05
		c0.167,9.399-0.133,14.916-0.899,16.55c-0.367,0.7-0.95,1.1-1.75,1.2c-1.067-0.033-1.95,0.017-2.65,0.149H3.55
		c-1.1,0-1.767-1.083-2-3.25c-0.2-1.733-0.3-6.816-0.3-15.25L1.3,34.4c0-7.667,0.067-14.1,0.2-19.3c0.133-4.934,0.267-6.733,0.4-5.4
		L97,6.2C160.434,4.067,192.283,3.6,192.55,4.8z"/>
	<path style="fill-rule:evenodd;clip-rule:evenodd;fill:#6D4126;" d="M7.4,38.15c0.167-3.3,0.2-5.133,0.1-5.5
		c-0.167-0.3-0.283-0.566-0.35-0.8c-0.133-0.434-0.05-1,0.25-1.7c0.267-0.7,1.067-1.733,2.4-3.1c0.7-0.7,1.35-1.333,1.95-1.9l2,2.45
		c1.333,1.767,2,3.066,2,3.9v6.3l-3.7,2.7L7.4,38.15z"/>
	<path style="fill-rule:evenodd;clip-rule:evenodd;fill:#6D4126;" d="M11.75,42.5c0.533-0.433,1.15-0.117,1.85,0.95
		c0.433,0.633,1.15,1.867,2.15,3.7c-0.434,0.267-0.883,0.583-1.35,0.95c-0.9,0.733-1.35,1.3-1.35,1.7c0,0.5-0.2,1.117-0.6,1.85
		c-0.4,0.7-0.867,1.317-1.4,1.85c-0.4,0.434-0.9,1.116-1.5,2.05l-0.8,1.25c-0.467-1.533-0.7-2.75-0.7-3.649
		c0-0.434,0.067-1.167,0.2-2.2c0.1-1.067,0.15-1.883,0.15-2.45c0-0.7-0.267-1.533-0.8-2.5l-0.85-1.2l2-1.65l1,0.05
		C10.517,43.167,11.184,42.933,11.75,42.5z"/>
	<path style="fill-rule:evenodd;clip-rule:evenodd;fill:#6D4126;" d="M9.75,65.15l0.65,2.35l-0.35,3v3.65
		c-2-1.567-3.217-2.684-3.65-3.351c-0.3-0.399-0.383-1.017-0.25-1.85L6.4,67.8L7.2,67C7.934,66.333,8.783,65.717,9.75,65.15z"/>
	<path style="fill-rule:evenodd;clip-rule:evenodd;fill:#6D4126;" d="M7.05,79.8l0.7-0.899c0.633-0.667,1.3-1.134,2-1.4l0.65,1.45
		c0.333,1.066,0.217,1.8-0.35,2.2c-0.533,0.433-0.967,1-1.3,1.699c-0.167,0.367-0.283,0.684-0.35,0.95v3.7l-1.65-4.35L7.05,79.8z"/>
	<path style="fill-rule:evenodd;clip-rule:evenodd;fill:#6D4126;" d="M23.4,49.8l0.35-3l2.65-4c0.133-0.733,0.3-1.4,0.5-2
		c0.4-1.233,0.784-1.566,1.15-1c0.667,1.133,0.667,2.7,0,4.7l-1.3,2v2.3l0.65,4l-0.65,2.351c-0.233,0.666-1.017,1.449-2.35,2.35
		c-0.233,0.4-0.483,0.85-0.75,1.35c-0.567,1.067-0.983,1.95-1.25,2.65c-0.333,0.767-0.75,1.15-1.25,1.15S20.4,62.366,20.4,61.8v-5.3
		c0-0.934,0.284-1.684,0.85-2.25c0.5-0.5,1.1-0.75,1.8-0.75c0.567,0,0.8-0.617,0.7-1.85L23.4,49.8z"/>
	<path style="fill-rule:evenodd;clip-rule:evenodd;fill:#6D4126;" d="M53.05,47.15c-2,0-3.333,0.217-4,0.65
		c-0.366,0.233-0.883,0.467-1.55,0.7c-0.767,0.233-1.35,0.45-1.75,0.65c-0.467,0.233-0.8,0.767-1,1.6c-0.167,0.833-0.4,1.3-0.7,1.4
		c-0.4,0.133-1.233,0.067-2.5-0.2l-1.8-0.45c-0.133-0.567-0.184-1.183-0.15-1.85l0.15-0.85l3-2l7-1L53.05,47.15z"/>
	<path style="fill-rule:evenodd;clip-rule:evenodd;fill:#6D4126;" d="M71.4,21.8l5,1.7c-1.567,0-2.683,0.1-3.35,0.3
		c-0.333,0.133-0.767,0.2-1.3,0.2c-0.566,0-1.017,0.05-1.35,0.15c-0.767,0.233-1.767,0.35-3,0.35c-0.966,0-1.75,0.433-2.35,1.3
		c-0.433,0.667-1.533,1.567-3.3,2.7v-1c0-0.4,0.05-0.85,0.15-1.35l0.15-0.65l1.7-2l1-0.4c0.867-0.267,1.867-0.467,3-0.6
		c0.9-0.1,1.633-0.267,2.2-0.5C70.383,21.867,70.867,21.8,71.4,21.8z"/>
	<path style="fill-rule:evenodd;clip-rule:evenodd;fill:#6D4126;" d="M68.4,30.15c2,0.434,4.217,0.767,6.65,1h-3l-5,1.35
		c-0.533,0.133-1.25,0.383-2.15,0.75l-1.15,0.55l-3.7,1.35l0.7-3l3.85-1.7C66.066,30.017,67.333,29.917,68.4,30.15z"/>
	<path style="fill-rule:evenodd;clip-rule:evenodd;fill:#6D4126;" d="M78.4,41.15l4.35-1.35l4.3,1.35c-3.533,2-5.633,3-6.3,3h-7
		c-1.133,0-2.133,0.567-3,1.7l-1,1.65l1-3.7l1-0.7c0.767-0.5,1.434-0.817,2-0.95C74.617,41.917,76.167,41.583,78.4,41.15z"/>
	<path style="fill-rule:evenodd;clip-rule:evenodd;fill:#6D4126;" d="M46.05,68.15c-0.866,0.699-1.483,1.633-1.85,2.8
		c-0.2,0.7-0.467,1.883-0.8,3.55c-0.3,1.1-0.333,2.1-0.1,3c0.134,0.434,0.283,0.767,0.45,1l2.45,1.3c1.6,1,2.333,1.783,2.2,2.351
		c-0.133,0.5-1.283,0.35-3.45-0.45c-2.333-0.9-3.634-1.3-3.9-1.2c-0.4,0.134-1.133,1.616-2.2,4.45c-0.534,1.399-1.017,2.8-1.45,4.2
		c-0.233-2.434-0.35-4.317-0.35-5.65c0-0.833,0.283-2.25,0.85-4.25l0.85-2.75c0.667-3.333,1.1-5.667,1.3-7
		c0.134-0.8,0.767-2.1,1.9-3.9c1.4-2.267,2.1-3.416,2.1-3.449c0.3-0.567,0.95-1.301,1.95-2.2c0.5-0.434,0.967-0.816,1.4-1.15
		l1.35-2.649l2.3-0.95c1.7-0.601,3.033-0.834,4-0.7c1.567,0.2,4.017,0.083,7.35-0.35c-0.833,0.133-1.966,0.733-3.4,1.8l-1.95,1.55
		c-2,0-3.333,0.1-4,0.3c-0.4,0.134-0.633,0.566-0.7,1.3c-0.034,0.367-0.017,0.717,0.05,1.051l3.65,1.649
		c1.533,0.7,2.783,1.75,3.75,3.15c0.467,0.7,0.783,1.316,0.95,1.85l-5-2.3h-6c-0.367,0-0.85,0.4-1.45,1.2
		C47.4,66.833,46.65,67.65,46.05,68.15z"/>
	<path style="fill-rule:evenodd;clip-rule:evenodd;fill:#6D4126;" d="M85.9,71.5l-1.85,1l1.7-3.35L87.4,68.3
		c1.167-0.633,1.95-1.017,2.35-1.149c0.667-0.233,2.1-0.351,4.3-0.351l6.351,2.7l-3,1h-7.65C88.617,70.5,87.333,70.833,85.9,71.5z"
		/>
	<path style="fill-rule:evenodd;clip-rule:evenodd;fill:#6D4126;" d="M85.75,78.5c-0.3,0.434-0.883,0.95-1.75,1.55l-1.25,0.75
		l-3,0.351c-1.233,0.133-2.1,0.666-2.6,1.6l-0.4,1.4l0.3-2.65l1.7-4.35l2.3-1.351l4.35-0.3l1,2L85.75,78.5z"/>
	<path style="fill-rule:evenodd;clip-rule:evenodd;fill:#6D4126;" d="M109.05,37.15l2-4l0.7,5.65c0,0.667-0.117,2.567-0.35,5.7v5.65
		h-2l-2-4.35l0.35-4.3L109.05,37.15z"/>
	<path style="fill-rule:evenodd;clip-rule:evenodd;fill:#6D4126;" d="M117.4,61.5l1.35,0.3l1.65,0.7l0.35,6
		c0,1.733-0.45,3.5-1.35,5.3c-0.334,0.634-1.233,1.533-2.7,2.7c-1.333,1-2.65,1.884-3.95,2.65c-0.967,0.533-2.05,0.75-3.25,0.649
		l-1.45-0.3c0.233-0.767,0.483-1.6,0.75-2.5c0.567-1.8,0.983-2.967,1.25-3.5c0.467-0.9,0.8-2.566,1-5l1.351-4L117.4,61.5z"/>
	<path style="fill-rule:evenodd;clip-rule:evenodd;fill:#6D4126;" d="M131.4,37.15l-2.351-3l1.5-1.4c1.067-0.933,1.8-1.467,2.2-1.6
		c0.667-0.233,1.667-0.45,3-0.65l1.3,3v2.65L136.4,38.8L131.4,37.15z"/>
	<polygon style="fill-rule:evenodd;clip-rule:evenodd;fill:#6D4126;" points="140.05,28.5 146.75,25.5 159.05,23.15 151.75,27.8 
		148.75,28.8 145.05,30.8 	"/>
	<path style="fill-rule:evenodd;clip-rule:evenodd;fill:#6D4126;" d="M158.4,53.15l3,0.35l1.649,3.65l-2.3,2.35v3h-3
		c-0.7,0-1.533,0.217-2.5,0.65l-1.2,0.649l-4,4.7l0.351-5.7l2.35-5.3L158.4,53.15z"/>
	<polygon style="fill-rule:evenodd;clip-rule:evenodd;fill:#6D4126;" points="166.4,32.5 163.05,32.5 164.4,29.15 173.4,20.15 
		171.4,30.5 	"/>
	<path style="fill-rule:evenodd;clip-rule:evenodd;fill:#6D4126;" d="M177.05,71.15l3,2.649l-1,2.351
		c-0.2,0.666-1.633,1.883-4.3,3.649l-3.35-0.649l1-5L177.05,71.15z"/>
	<polygon style="fill-rule:evenodd;clip-rule:evenodd;fill:#6D4126;" points="151.05,79.15 151.05,83.15 144.4,82.8 142.05,85.15 
		139.05,85.5 139.05,82.5 146.75,79.15 	"/>
	<polygon style="fill-rule:evenodd;clip-rule:evenodd;fill:#6D4126;" points="138.75,68.8 140.05,73.15 137.75,73.8 136.75,70.15 	
		"/>
	<path style="fill-rule:evenodd;clip-rule:evenodd;fill:#55351E;" d="M192.55,4.8c0.101,1.867,0.15,5.867,0.15,12H1.45
		c0.167-6.066,0.316-8.433,0.45-7.1L97,6.2C160.434,4.067,192.283,3.6,192.55,4.8z"/>
	<path style="fill-rule:evenodd;clip-rule:evenodd;fill:#55351E;" d="M59.05,17.3l-7.1,3l-0.6,2.05
		c-0.333,1.433-0.35,2.267-0.05,2.5c0.367,0.267,0.267,1.117-0.3,2.55c-0.566,1.467-1.217,2.434-1.95,2.9
		c-0.633,0.434-1.566,0.817-2.8,1.15l-1.7,0.35l-3,2c-0.333,0.267-0.667,0.6-1,1c-0.667,0.833-1,1.667-1,2.5
		c0,1.333-0.333,4.667-1,10l-1.5,2.5c-0.633,1.034-1.4,2.017-2.3,2.95l-1.2,1.05v4c0,1.667-0.833,3.334-2.5,5
		c-0.633,0.634-2.233,1.483-4.8,2.55l-3.7,1.45c2.667-2.333,4.333-4.166,5-5.5c1-2,1.5-3.833,1.5-5.5v-4.5
		c0-0.633,0.3-1.383,0.9-2.25c0.333-0.5,0.866-1.25,1.6-2.25c0.6-0.867,0.9-1.816,0.9-2.85c0-1.367-0.467-3.083-1.4-5.15
		c-0.833-1.867-1.833-4.35-3-7.45l-1.5-4.05c-0.833,0.1-1.733,0.083-2.7-0.05c-1.9-0.267-3.167-0.917-3.8-1.95
		c-0.633-1.033-1.65-2.183-3.05-3.45l-1.95-1.55l-6.2-3.4l-7.4-0.1l15.3-3.65l30.8-0.35l12.5,0.5L59.05,17.3z"/>
	<path style="fill-rule:evenodd;clip-rule:evenodd;fill:#55351E;" d="M121.55,8.8l25,4.5l-7.5,4.5l-5.7,5.5l-6.3,1l-5,5.5l-0.25,2.8
		c-0.167,2.1-0.25,3.667-0.25,4.7c0,1.034,0.601,3.083,1.8,6.15c0.634,1.566,1.367,3.35,2.2,5.35c0.134,0.367,1.2,2.034,3.2,5
		c1.867,2.767,2.8,4.434,2.8,5c0,0.934-0.2,2.434-0.6,4.5c-0.467,2.334-0.934,3.834-1.4,4.5c-0.399,0.634-0.433,1.733-0.1,3.3
		c0.167,0.801,0.366,1.534,0.6,2.2l2.5,8l-7.5,0.5c-1.667,1-3.833,2-6.5,3c-1.667,0.634-4.333,0.733-8,0.3l-5-0.8h6.5
		c4-2.333,6.333-4.166,7-5.5l4-8c-0.667-7-1-11-1-12c0-0.399-1-1.767-3-4.1c-2-2.333-3-3.967-3-4.9c0-0.667-0.333-2.5-1-5.5
		s-1-5.333-1-7c0-1.6-0.233-3.133-0.7-4.6c-0.333-1.167-0.433-1.967-0.3-2.4c0.333-1-1-4.333-4-10c-3-1.233-6.133-2.466-9.399-3.7
		c-6.392-2.336-10.334-3.428-11.825-3.275L121.55,8.8z"/>
	<path style="fill-rule:evenodd;clip-rule:evenodd;fill:#55351E;" d="M78.55,15.8c-0.4-0.833-1.183-1.667-2.35-2.5l-1.65-1l15.5-1
		l1.25,3.55c0.833,2.6,1.25,4.417,1.25,5.45c0,1.034-0.667,2.017-2,2.95l-2,1.05c-1,3.667-2,5.833-3,6.5
		c-0.633,0.434-1.733,0.983-3.3,1.65l-2.2,0.85c-0.333,2.667-0.833,4.5-1.5,5.5c-0.433,0.667-1.116,1-2.05,1
		c-0.3,0-1.617-0.167-3.95-0.5c-1.467-0.2-3.733-0.767-6.8-1.7l-4.2-1.3l12-1l0.75-1.35c0.667-1,1.417-1.717,2.25-2.15
		c0.833-0.4,1.417-1.933,1.75-4.6l0.25-3.9l2.5-2.5L78.55,15.8z"/>
	<path style="fill-rule:evenodd;clip-rule:evenodd;fill:#55351E;" d="M174.55,21.3c0.2-1.867-0.983-4.1-3.55-6.7l-3.95-3.3h10.5
		c1.267,0,2.167,0.567,2.7,1.7c0.3,0.633,0.566,1.567,0.8,2.8c0.167,0.5,0.833,3.667,2,9.5c0.233,1.1,0.117,3.233-0.35,6.4
		c-0.434,2.7-0.817,4.566-1.15,5.6c-0.333,1-0.667,2.5-1,4.5c-1.667,1-3.167,1.833-4.5,2.5c-0.8,0.4-1.417,1-1.85,1.8
		c-0.434,0.967-0.817,1.7-1.15,2.2c-0.399,0.633-0.85,1.483-1.35,2.55c-0.267,0.566-0.483,1.05-0.65,1.45l3,7.5l0.25,1.95
		c0.167,1.4,0.25,2.417,0.25,3.05v4.5l-11.5,6c-0.5,0.5-1.1,1-1.8,1.5c-1.434,1-2.667,1.5-3.7,1.5s-3.517-0.666-7.45-2l-5.55-2
		l14-0.5l10-11l-5.5-19v-6l9.5-2.5c0.333-2.667,0.667-4.5,1-5.5c0.2-0.6,0.367-1.633,0.5-3.1
		C174.35,23.467,174.517,21.667,174.55,21.3z"/>
	<path style="fill-rule:evenodd;clip-rule:evenodd;fill:#55351E;" d="M128.55,19.3l15.3-3.8c11.101-2.6,18.834-4,23.2-4.2
		c3.867-0.167,6.3-0.167,7.3,0c0.768,0.133,1.834,0.133,3.2,0c1.967-0.2,2.3,0.317,1,1.55c-2.233,2.133-3.399,3.283-3.5,3.45
		c-0.167,0.333-0.783,1.167-1.85,2.5c-0.7,0.867-1,1.667-0.9,2.4c0.101,0.8-0.467,1.15-1.7,1.05c-1.533-0.3-2.55-0.45-3.05-0.45
		c-0.633,0-1.399-0.083-2.3-0.25l-1.2-0.25c-4.333-1.333-7-2-8-2h-9.5l-3-0.5c-2-0.333-3.5-0.5-4.5-0.5
		C136.95,18.3,133.45,18.633,128.55,19.3z"/>
	<path style="fill-rule:evenodd;clip-rule:evenodd;fill:#55351E;" d="M73.8,12.8c6.333,1,10.083,1.5,11.25,1.5
		c1.634,0,1.85,0.833,0.65,2.5c-1.134,1.534-2.684,2.867-4.65,4c-1.467,0.833-2.767,0.95-3.9,0.35c-1.233-1-2.283-1.733-3.15-2.2
		c-0.9-0.5-1.684-0.567-2.35-0.2c-0.633,0.333-1.167,0.35-1.6,0.05c-0.633-0.4-1.316-0.6-2.05-0.6c-1.3,0.066-2.617,0.1-3.95,0.1
		c-1.733,0-2.75-0.033-3.05-0.1c-0.467-0.267-1.117-0.567-1.95-0.9c-1.033-0.4-2.183-0.183-3.45,0.65l-1.55,1.35l-14.5,0.5
		l10.2-4.25c7.066-2.833,11.333-4.25,12.8-4.25C63.717,11.3,67.467,11.8,73.8,12.8z"/>
	<path style="fill-rule:evenodd;clip-rule:evenodd;fill:#55351E;" d="M73.05,62.3l1.5,11l-1.5,6l-3.5,6.5l-5,4l-3.5,1.5
		c-0.167,0.934-0.5,1.867-1,2.8c-1,1.934-2.333,3-4,3.2c-1.667,0.2-4.833-0.733-9.5-2.8l-6.5-3.2l4.7-0.3
		c3.233-0.267,5.167-0.5,5.8-0.7c1-0.333,2.167-1.166,3.5-2.5l-0.5-3l-3-3l2.55-0.1c1.933-0.167,3.417-0.467,4.45-0.9
		c1.033-0.399,2.6-1.85,4.7-4.35c1.033-1.267,1.967-2.483,2.8-3.65v-9c0.833-0.2,1-1.767,0.5-4.7l-1-4.3L73.05,62.3z"/>
	<path style="fill-rule:evenodd;clip-rule:evenodd;fill:#55351E;" d="M182.55,74.2l-0.5-1.4l3.5,6l-3.5,16l-9.5,0.5l-4-5.5l0.95-2.3
		c1.033-1.667,2.55-2.733,4.55-3.2c5.2-1.233,8.101-3.517,8.7-6.85C182.917,76.384,182.85,75.3,182.55,74.2z"/>
	<path style="fill-rule:evenodd;clip-rule:evenodd;fill:#55351E;" d="M72.45,12.4c-11.967-1.1-20.267-0.967-24.9,0.4
		c-4.633,1.4-9.283,3.6-13.95,6.6l-5.55,4.1L3.5,13.6c-0.667-1.567-1.033-3.133-1.1-4.7C2.3,5.733,3.85,4.15,7.05,4.15
		C9.783,4.15,20.1,3.933,38,3.5c17.867-0.467,27.667-0.7,29.4-0.7c5.667,0,17.6,0.067,35.8,0.2c21.333,0.2,32.85,0.367,34.55,0.5
		c1.667,0.133,10.95,0.217,27.85,0.25c8.434,0.033,16.7,0.05,24.801,0.05l1,9.7c-9.334-0.233-15-0.133-17,0.3
		c-2,0.467-30,0.7-84,0.7C84.467,13.667,78.483,12.967,72.45,12.4z"/>
	<path style="fill-rule:evenodd;clip-rule:evenodd;fill:#55351E;" d="M87.05,44.8c1.533-0.133,2.283-0.95,2.25-2.45l-0.55-2.2
		l3,2.35c0.434,0.267,0.783,0.917,1.05,1.95c0.033,0.1,0.233,1,0.6,2.7c0.2,1.1,0.317,2.1,0.35,3l0.1,1.85
		c0.1,1.333,0.283,2.267,0.55,2.8c1.433,2.967,1.767,5.084,1,6.351c-0.333,0.566-0.517,0.767-0.55,0.6c-0.067-0.4-0.333-0.6-0.8-0.6
		c-1.1,0-2.2-0.117-3.3-0.351l-2.35-0.3c-1.333,1.767-2.55,2.65-3.65,2.65c-0.7,0-2.3-0.434-4.8-1.301L76.4,60.5
		c3.1-0.233,4.883-0.684,5.35-1.35c0.1-0.167,0.717-0.95,1.85-2.351c0.933-1.233,1.533-2.116,1.8-2.649
		c0.333-0.667,0.65-1.117,0.95-1.351c0.333-0.267,0.9-0.483,1.7-0.65c0.7-0.133,0.75-1.4,0.15-3.8L87.05,44.8z"/>
	<path style="fill-rule:evenodd;clip-rule:evenodd;fill:#55351E;" d="M97.05,73.5l1-1c0.667-0.667,2.45-1.45,5.351-2.35l-0.7,1.55
		c-0.5,1.166-0.817,2.1-0.95,2.8c-0.233,1.167-0.133,2.5,0.3,4c0.134,0.4,0.55,0.95,1.25,1.65c0.4,0.399,0.983,0.949,1.75,1.649
		c0.4,0.4,0.467,0.967,0.2,1.7c-0.167,0.366-0.45,0.917-0.85,1.65c-0.134,0.399-0.45,0.8-0.95,1.199
		c-0.7,0.434-1.267,0.817-1.7,1.15c-0.566,0.434-0.8,1.283-0.7,2.55c0.067,0.634,0.184,1.217,0.351,1.75
		c-1.101,0.467-2.101,0.584-3,0.351c-0.567-0.134-1.117-0.367-1.65-0.7c-0.566-0.4-1.017-0.717-1.35-0.95
		c-0.4-0.3-1.017-0.45-1.85-0.45c-0.967,0.066-1.683,0.101-2.15,0.101c-0.567,0-1.233,0.399-2,1.199l-1,1.15
		c-1.567,0.434-3.117,0.65-4.65,0.65c-0.967,0-2.15-0.551-3.55-1.65l-1.8-1.7l-1.65-3l1.75,0.5c1.333,0.334,2.417,0.5,3.25,0.5
		c0.867,0,1.483-0.149,1.85-0.45c0.033-0.066,0.3-0.466,0.8-1.199c0.233-0.334,0.517-0.817,0.85-1.45
		c0.367-0.533,0.75-0.934,1.15-1.2s0.833-0.783,1.3-1.55c0.233-0.434,0.583-1.033,1.05-1.8c0.434-0.667,0.533-1.784,0.3-3.351
		l2.7,0.7l7,4.3c0.434-0.833,0.283-1.8-0.45-2.899l-1.25-1.4V73.5z"/>
	<path style="fill-rule:evenodd;clip-rule:evenodd;fill:#55351E;" d="M153.05,86.8c0.233-0.666-0.433-3.217-2-7.649l1.4,0.25
		c1.033,0.233,1.899,0.483,2.6,0.75s1.134,0.616,1.3,1.05c0.101,0.233,0.117,0.434,0.051,0.6l0.5,1.7c0.333,1.3,0.5,2.3,0.5,3
		c0,0.934-0.184,1.783-0.551,2.55c-0.399,0.934-1,1.634-1.8,2.101c-0.533,0.333-1.149,1.017-1.85,2.05
		c-0.733,1.066-1.45,1.833-2.15,2.3c-0.833,0.533-1.967,0.866-3.399,1h-1.9l-8.7-0.7l4-0.649l1.351-2
		c-0.434-2-0.884-3.45-1.351-4.351c-0.267-0.533-0.116-0.916,0.45-1.149c0.267-0.101,0.566-0.15,0.9-0.15l2.1,0.65
		c1.867,0.5,4.05,0.949,6.55,1.35C152.184,88.366,152.85,87.467,153.05,86.8z"/>
	<path style="fill-rule:evenodd;clip-rule:evenodd;fill:#55351E;" d="M143.85,36.95c1.067,0.267,1.801,0.333,2.2,0.2
		c1.101-0.4,1.884-0.95,2.351-1.65c0.433-0.667,1.217-2,2.35-4l1.3-0.35c0.9-0.233,2.233-1.117,4-2.65l2.2-1.85
		c1.533-1.233,2.367-1.85,2.5-1.85c0.1,0,0.133,0.05,0.1,0.15c-0.066,0.233-0.1,0.517-0.1,0.85c0,0.667,0.1,2.567,0.3,5.7l-4,4
		l-2.649,5l0.05,1.55c0.066,1.133,0.167,2.05,0.3,2.75c0.3,1.633-0.15,2.633-1.35,3c-1.467,0.534-2.801,1.1-4,1.7
		c-0.268,0.133-0.934,0.367-2,0.7c-0.801,0.267-1.467,0.583-2,0.95c-0.567,0.434-0.9,1.184-1,2.25c-0.067,0.633-0.067,1.55,0,2.75
		c0,0.833-0.2,2.017-0.601,3.55c-0.433,1.533-0.899,2.8-1.399,3.8c-0.367,0.767-0.768,0.767-1.2,0c-0.667-1.2-1.15-1.866-1.45-2
		c-0.566-0.3-1.2-1.217-1.9-2.75c-0.433-0.967-0.8-1.95-1.1-2.95l-2.35-5.65c-0.167-1.267-0.283-2.45-0.351-3.55
		c-0.1-2.2,0.134-2.9,0.7-2.1c1.533,2.133,2.783,2.583,3.75,1.35c0.367-0.467,0.783-1.583,1.25-3.35c0.1-0.5,0.017-1.1-0.25-1.8
		c-0.3-0.8-0.45-1.317-0.45-1.55c0-0.4,0.134-0.95,0.4-1.65c0.3-0.8,0.5-1.367,0.6-1.7c0.233-0.667,0.233-2,0-4l2.351,4.7
		L143.85,36.95z"/>
	<path style="fill-rule:evenodd;clip-rule:evenodd;fill:#55351E;" d="M45.05,53.8c0.634-0.2,1.2-0.633,1.7-1.3
		c0.5-0.667,1.167-1.117,2-1.35c1.533-0.433,3.3-0.767,5.3-1l1,4.35c-2.2-0.033-3.633,0.184-4.3,0.65
		c-0.4,0.267-0.967,0.733-1.7,1.399l-1,0.95l-1.3,4.65c-1.233,0.833-2.333,1.75-3.3,2.75l-3.4,4.6l-1.3,7l-1.35,5l0.65,3.65
		L37.4,87.5l1.35,2.3c-1.8-2.2-3.133-3.533-4-4c-0.566-0.267-1.4-0.517-2.5-0.75l-1.5-0.25c-0.6,0-1.233-0.066-1.9-0.2
		c-1.267-0.267-1.967-0.75-2.1-1.449c-0.5-2.334-0.617-4-0.35-5c0.133-0.567,0.183-1.733,0.15-3.5l-0.15-2.5l0.25,1.1
		c0.534,0.667,1.784,0.85,3.75,0.55c2.133-0.3,3.483-0.616,4.05-0.95c0.3-0.166,0.733-0.733,1.3-1.699
		c0.367-0.567,0.733-1.584,1.1-3.051c0.4-1.433,0.7-2.3,0.9-2.6c0.133-0.233,0.684-0.717,1.65-1.45
		c0.867-0.633,1.417-1.267,1.65-1.899c0.9-2.134,1.35-3.584,1.35-4.351c0-0.399-0.383-1.184-1.15-2.35l-1.2-1.65l1.75,0.25
		C43.133,54.184,44.217,54.1,45.05,53.8z"/>
	<path style="fill-rule:evenodd;clip-rule:evenodd;fill:#55351E;" d="M18.4,30.15c0.433,0.833,0.667,1.684,0.7,2.55
		c0.033,0.466,0.017,1.066-0.05,1.8c0,0.333-0.1,1.217-0.3,2.65c-0.233,1.434-0.35,2.317-0.35,2.65c0,0.434,0.4,1.784,1.2,4.05
		c0.367,1.133,0.75,2.233,1.15,3.3c-0.667,2.233-1.233,3.684-1.7,4.35c-1.167,1.8-2.383,3.467-3.65,5c-0.7,0.833-1.3,2.033-1.8,3.6
		c-0.267,0.767-0.45,1.45-0.55,2.051l-0.3-3.65l1.65-4.35c-0.9-3.767-1.35-6.217-1.35-7.351c0-0.533-0.217-1.2-0.65-2
		c-0.433-0.833-0.65-1.6-0.65-2.3c0-0.567,0.5-1.817,1.5-3.75s1.5-3.467,1.5-4.6c0-1.967-0.5-4.05-1.5-6.25l-1.5-2.75l2.95,1.75
		C16.767,28.233,18,29.317,18.4,30.15z"/>
	<path style="fill-rule:evenodd;clip-rule:evenodd;fill:#55351E;" d="M15.05,74.15c0.3-1.667,0-3.717-0.9-6.15l-1.4-3.2
		c4,3.566,6,5.9,6,7v5.7c0,0.833-0.117,1.483-0.35,1.95c-0.167,0.366-0.617,1.267-1.35,2.7l-1.3,3L13.4,80.8
		c-0.433-1.533-0.55-2.75-0.35-3.649c0.134-0.467,0.5-1.017,1.1-1.65C14.717,74.934,15.017,74.483,15.05,74.15z"/>
	<path style="fill-rule:evenodd;clip-rule:evenodd;fill:#482D1D;" d="M119.85,10.8c-0.232-0.8-0.433-1.65-0.6-2.55L119.1,7.2
		c-0.333,0.4-0.666,0.883-1,1.45c-0.699,1.1-1.033,2.017-1,2.75l0.051,1.85c-1.434-1.2-2.217-2.35-2.351-3.45l-0.25-2.35
		c-0.267,1.233-1.1,2.25-2.5,3.05L110,11.75c0.7-1.767,0.983-2.867,0.85-3.3L110.5,6.4c-1.467,1.767-2.367,2.7-2.7,2.8l-0.45,0.15
		l-1.35-1c-0.133-0.467-0.7-0.767-1.7-0.9c-0.233,0.767-0.35,1.45-0.35,2.05v1.7c-1.134-0.233-2.15-0.8-3.05-1.7l-1.4-1.4
		c0.233,1.6,0.017,2.967-0.65,4.1l-1.05,1.7c0-2.033-0.217-3.617-0.649-4.75l-0.4-1L96.2,7.9c-0.567,1.233-1.384,2.667-2.45,4.3
		l-1.4,2.05c-0.3-2.1-0.6-3.75-0.9-4.95L91,7.45c-0.9,1.8-1.8,3.05-2.7,3.75c-0.566,0.433-1.417,0.9-2.55,1.4l-1.55,0.65
		c0.467-2.067,0.7-3.55,0.7-4.45V7.45c-0.267,0.1-0.583,0.267-0.95,0.5C83.283,8.417,82.8,8.933,82.5,9.5l-0.7,1.35
		C80,9.717,79.1,8.8,79.1,8.1v-1c-1.6,2.267-3.2,3.85-4.8,4.75l-2.35,1.4c0.433-0.933,0.65-1.967,0.65-3.1v-1.7
		c-1.333,1.133-2.35,2.167-3.05,3.1c-0.333,0.467-0.5,0.9-0.5,1.3c0,0.167-0.167,0.183-0.5,0.05c-0.9-0.3-1.35-1.55-1.35-3.75v-1.7
		l-2.4,4.1l-0.7,1c-0.667-1.6-1-2.966-1-4.1v-1.7c-0.833,0.333-1.733,0.783-2.7,1.35c-1.867,1.167-3.017,2.316-3.45,3.45l-1,2.7
		c-0.7-0.667-1.15-1.467-1.35-2.4c-0.133-0.567-0.233-1.25-0.3-2.05l-0.05-1c-0.333,0.333-0.667,0.784-1,1.35
		c-0.6,1.133-0.833,2.267-0.7,3.4l0.3,2.75c-0.9-0.9-1.567-2.15-2-3.75c-0.3-1-0.5-2.033-0.6-3.1l-0.1-1.35
		c-1.367,2.066-2.95,3.783-4.75,5.15l-2.75,2c0.467-1.8,0.817-3.033,1.05-3.7c0.133-0.433,0.217-1.083,0.25-1.95L44,8.45
		c-2.267,1.6-4.083,2.733-5.45,3.4l-2,1.05c0.667-1.833,1-3.2,1-4.1V7.45c-0.633,0.066-1.3,0.216-2,0.45
		c-1.4,0.533-2.316,1.283-2.75,2.25c-0.7,1.6-1.05,2.967-1.05,4.1c-0.9-1.133-1.467-2.267-1.7-3.4L29.4,7.8
		c-0.7,1.567-1.833,2.817-3.4,3.75c-1,0.567-2.033,1.017-3.1,1.35l-1.35,0.35c1.367-1.6,2.05-2.85,2.05-3.75V8.1
		c-2.267,1.6-4.65,2.75-7.15,3.45l-3.75,1l2.4-4.1c-0.633,0.233-1.317,0.566-2.05,1c-1.467,0.867-2.483,1.783-3.05,2.75
		c-0.566,1-0.967,1.933-1.2,2.8c-0.133,0.4-0.2,0.717-0.2,0.95c-1.367-1.8-2.05-3.5-2.05-5.1v-2.4c-0.5,0.4-1,0.867-1.5,1.4
		c-1.033,1.1-1.55,2-1.55,2.7v3.05c-1.367-0.9-2.167-1.917-2.4-3.05c-0.133-0.7-0.333-1.517-0.6-2.45L0.15,8.9
		C0.017,5.6-0.033,3.7,0,3.2h0.45c1.167,0,2.433,0.1,3.8,0.3C5.65,3.7,6.5,3.8,6.8,3.8L12,4.4c0.4,0,1.434-0.167,3.1-0.5
		c1.567-0.3,2.733-0.433,3.5-0.4c2.333-0.033,4.5,0,6.5,0.1c1.1,0.033,2.55,0.1,4.35,0.2c1.533-0.533,3.267-0.85,5.2-0.95
		c1.1-0.033,2.75-0.083,4.95-0.15c1.133-0.1,2.133-0.284,3-0.55c1.2-0.167,4.05-0.1,8.55,0.2c3.467,0.2,7.117,0.5,10.95,0.9
		C70.367,3.083,75.017,3,76.05,3s2.717-0.2,5.05-0.6c2.033-0.367,3.883-0.483,5.55-0.35h0.05c1.233,0.167,2.116,0.3,2.65,0.4
		c3,0.466,5.367,0.7,7.1,0.7c0.899,0,3.467,0.05,7.7,0.15c3.666,0.067,6.017,0.083,7.05,0.05c1.833-0.033,3.717-0.167,5.649-0.4
		c0.467,0,1.5-0.133,3.101-0.4c1.6-0.267,2.883-0.417,3.85-0.45c1.067-0.033,2.717,0.217,4.95,0.75c1.2,0.3,2.75,0.7,4.65,1.2
		c0.967,0.2,2.316,0.284,4.05,0.25c0.933,0,2.183-0.033,3.75-0.1c2.399-0.067,4.066-0.034,5,0.1c1.033,0.167,2.649,0.167,4.85,0
		l12.2-0.5c1.033,0,1.684,0,1.95,0c0.7-0.033,1.55-0.133,2.55-0.3c0.767-0.1,1.767-0.333,3-0.7c1.066-0.233,1.967-0.216,2.7,0.05
		c0.733,0.3,1.217,0.467,1.45,0.5c0.232,0.033,0.916,0.083,2.05,0.15c0.7,0.067,1.833-0.1,3.399-0.5c1.434-0.4,2.851-0.45,4.25-0.15
		c2.601,0.566,5.367,0.566,8.301,0l0.8-0.1c-0.434,2.4-0.65,4.917-0.65,7.55c0,1.2,0.05,2.367,0.15,3.5
		c-0.967-0.8-1.601-1.483-1.9-2.05l-1.899-3.2l-0.2,1.7c-0.134,1.267-0.184,2.217-0.15,2.85l0.05,2.1
		c-1.3-0.733-2.399-1.75-3.3-3.05c-0.566-0.8-1-1.566-1.3-2.3l-0.25-0.9c-0.5,1.933-1.333,3.3-2.5,4.1L180,14.3
		c0-1.033-0.066-1.9-0.2-2.6c-0.066-0.434-0.233-0.95-0.5-1.55l-0.399-0.8c-0.7,1.267-1.634,2.25-2.801,2.95
		c-0.732,0.467-1.649,0.817-2.75,1.05L171.9,13.6c1.066-1.067,1.683-2,1.85-2.8l0.3-1.8c-2.767,1.733-4.733,2.7-5.899,2.9
		l-1.801,0.3c0.733-1.133,1.084-1.917,1.051-2.35V9.2c-0.101,0.267-0.334,0.5-0.7,0.7c-0.733,0.4-1.783,0.45-3.15,0.15L160.3,9.4
		l3.95,3.25c-0.533,0.033-1.167,0-1.9-0.1c-1.5-0.167-2.767-0.6-3.8-1.3c-1.033-0.667-1.95-1.317-2.75-1.95L154.9,8.5l-0.051,1.6
		c0.033,1.167,0.15,2.017,0.351,2.55l0.5,1.3c-1.3-0.567-2.351-1.45-3.15-2.65c-0.467-0.733-0.95-1.566-1.45-2.5l-0.6-1.2
		l-0.55,1.35c-0.367,1.033-0.567,1.9-0.601,2.6L149.2,13.2c-1.3-0.733-2.134-1.784-2.5-3.15l-0.55-2.1
		c-1.567,2.133-2.817,3.4-3.75,3.8l-1.45,0.55c0.2-0.433,0.283-1.216,0.25-2.35l-0.05-1.7c-1.167,1.067-2.5,1.617-4,1.65L134.05,10
		l1.45-1.2l0.6-0.65c-0.866-0.167-2.149-0.217-3.85-0.15c-1.066,0.033-2.417-0.067-4.05-0.3l-2.15-0.35l1.25,1.35
		c0.967,1,1.717,1.65,2.25,1.95l1.3,0.75c-2.267-0.2-4.166-0.7-5.699-1.5c-0.967-0.533-1.7-1.05-2.2-1.55l-0.45-0.6l-0.2,1.75
		c-0.033,1.333,0.2,2.433,0.7,3.3l1.15,2.05C121.65,13.45,120.217,12.1,119.85,10.8z"/>
	<path style="fill-rule:evenodd;clip-rule:evenodd;fill:#482D1D;" d="M39.6,2.7l4.8,1.45L44,8.45c0,0.9-1.316,2.466-3.95,4.7v1.35
		c0,0.5,0.25,1.05,0.75,1.65c0.7,0.833,1.117,1.383,1.25,1.65c0.467,0.9,2.134,2.684,5,5.35L45.4,24.8h-1.65
		c-0.8,0-1.3,0.034-1.5,0.1c-0.033,0-0.434,0.2-1.2,0.6c-0.533,0.267-0.75,0.733-0.65,1.4c0.067,0.333,0.183,0.633,0.35,0.9l-2,7
		l-0.35-3.65c-0.233-2-0.35-3.333-0.35-4c0-0.4-0.333-1.133-1-2.2l-1-1.45v-6.35c0-0.833-1.5-1.917-4.5-3.25l-4.5-1.75
		c-1.533-1.566-2.683-3.117-3.45-4.65c-0.467-0.967-0.083-1.6,1.15-1.9c0.633-0.133,1.3-0.167,2-0.1L39.6,2.7z"/>
	<path style="fill-rule:evenodd;clip-rule:evenodd;fill:#482D1D;" d="M79.1,8.1c-0.567-0.233-1.417-0.733-2.55-1.5l-1.5-1.1
		C73.883,5.233,73,4.95,72.4,4.65c-1.233-0.566-0.45-0.85,2.35-0.85c4.434,0,10.65,0.117,18.65,0.35l-3.35,7.15l-2.35,2.05
		c-0.4,0.333-0.417,0.733-0.05,1.2c0.233,0.3,0.7,0.833,1.4,1.6c0.333,0.467,0.717,0.867,1.15,1.2c0.267,0.3,0.333,0.783,0.2,1.45
		c-0.1,0.567-0.15,1.117-0.15,1.65c-0.1,0.367-0.5,0.816-1.2,1.35c-0.533,0.467-0.933,0.617-1.2,0.45
		c-0.067-0.067-0.217,0.233-0.45,0.9c-0.2,0.667-0.466,1.517-0.8,2.55c-0.3,0.767-0.583,1.367-0.85,1.8
		c-0.467,0.667-0.733,1.033-0.8,1.1c-0.3,0.3-0.817,0.6-1.55,0.9l-3.65,1.65l2.65-4.35c0-1.433,0.05-2.35,0.15-2.75
		c0.167-0.566,0.567-1.083,1.2-1.55c0.434-0.333,0.783-0.333,1.05,0c0.067,0.1,0.15-0.233,0.25-1l0.7-4.35
		c-0.434-0.066-0.95-0.25-1.55-0.55c-1.167-0.6-2.1-1.533-2.8-2.8c-0.533-0.966-0.95-2.216-1.25-3.75
		C79.917,8.983,79.566,8.333,79.1,8.1z"/>
	<path style="fill-rule:evenodd;clip-rule:evenodd;fill:#482D1D;" d="M77.05,35.15l0.85,1.1c0.534,0.867,0.75,1.717,0.65,2.55
		c-0.066,0.833-0.333,1.25-0.8,1.25c-0.9-0.167-1.8-0.25-2.7-0.25c-1.1,0-3.2-0.383-6.3-1.15L64.4,37.5h5c1.1,0,2.55-0.233,4.35-0.7
		l1.15-0.3C75.8,36.167,76.517,35.717,77.05,35.15z"/>
	<path style="fill-rule:evenodd;clip-rule:evenodd;fill:#482D1D;" d="M31.1,50.3l0.3-0.5l0.85-0.25
		c0.667-0.267,1.267-0.617,1.8-1.05c0.9-0.667,1.233-1.567,1-2.7l0.35-4.3l3-4.7v3c0,0.4,0.233,1.15,0.7,2.25
		c0.433,1.1,0.65,2.017,0.65,2.75c0,0.833-0.2,1.5-0.6,2l-0.6,0.5c-0.333,1-0.833,1.833-1.5,2.5c-0.2,0.2-0.683,0.784-1.45,1.75
		c-0.667,0.867-1.35,1.617-2.05,2.25c-0.733,0.7-0.65,1.417,0.25,2.15c0.467,0.366,1,0.649,1.6,0.85l-1.65,4
		c-0.7,1.667-2.533,2.95-5.5,3.851l-4.2,0.85l7-2.7l0.35-8c0-1.1-0.117-2.1-0.35-3C30.917,51.267,30.934,50.767,31.1,50.3z"/>
	<path style="fill-rule:evenodd;clip-rule:evenodd;fill:#482D1D;" d="M125.75,75.15c0.667-0.667,1.1-1.45,1.3-2.351
		c2.233,2.467,3.233,4.25,3,5.351c-0.2,1.1-0.533,2.1-1,3l-2,1.35c-0.667,0.434-0.967,0.616-0.899,0.55
		c0.166-0.133,0.033-0.1-0.4,0.101c-0.434,0.233-0.65,0.316-0.65,0.25c0-0.167-0.232-0.25-0.699-0.25c-0.567,0-1.018,0.333-1.351,1
		l-0.3,1l-1.7,2.35l-8.649-1.35h1.649c0.833,0,1.567-0.101,2.2-0.301c0.6-0.199,1.367-0.55,2.3-1.05c0.667-0.366,1.267-1.033,1.8-2
		c0.567-1.033,1.033-1.7,1.4-2c1.333-1.033,2-2.133,2-3.3c0-0.4,0.217-0.783,0.65-1.15C124.633,76.116,125.083,75.717,125.75,75.15z
		"/>
	<path style="fill-rule:evenodd;clip-rule:evenodd;fill:#482D1D;" d="M126.4,57.5c-0.434-1.333-0.65-2.45-0.65-3.35l-0.2-5.351
		l1.3,2.3c0.9,1.633,1.417,2.65,1.551,3.05c0.1,0.3,0.583,0.866,1.449,1.699c0.801,0.733,1.2,1.284,1.2,1.65
		c0,1.267-0.433,2.483-1.3,3.65c-0.4,0.533-0.633,1.033-0.7,1.5c-0.033,0.233-0.033,0.399,0,0.5c-0.433,1.333-1.1,2.333-2,3
		c-0.433-1.567-0.649-2.784-0.649-3.65V57.5z"/>
	<path style="fill-rule:evenodd;clip-rule:evenodd;fill:#482D1D;" d="M124.95,12.5c-0.9,1.033-1.167,1.817-0.8,2.35l1.899,2.65
		c0.667,0.867,0.667,1.533,0,2c-0.333,0.2-0.767,0.367-1.3,0.5c-0.566,0.1-1.017,0.267-1.35,0.5c-0.4,0.267-0.717,0.833-0.95,1.7
		c-0.134,0.466-0.217,0.883-0.25,1.25c-0.134,0.066-0.283,0.167-0.45,0.3c-0.333,0.3-0.566,0.65-0.7,1.05
		c-0.399,1.3-0.95,2.3-1.649,3c-0.434,0.467-0.717,0.983-0.851,1.55c-0.1,0.367-0.149,0.967-0.149,1.8v5
		c-0.434-1.233-0.851-2.6-1.25-4.1c-0.801-3-1.051-5.183-0.75-6.55c0.166-0.833,0.166-1.8,0-2.9l-0.351-1.45
		c0.434-2.433,0.217-3.883-0.649-4.35c-0.4-0.2-0.851-0.517-1.351-0.95c-0.399-0.367-0.833-0.6-1.3-0.7l-1.35-0.35
		c-0.301-0.3-0.768-1.316-1.4-3.05c-0.467-1.333-1.133-2.583-2-3.75s-1.533-1.717-2-1.65c-0.4,0.066-1.4-0.217-3-0.85l-2.25-1
		l12-1.35c1.767-0.233,6.533-0.233,14.3,0l10.7,3c-2,0.434-3.833,1.05-5.5,1.85c-1.033,0.467-2.316,1.133-3.85,2l-2,1.15
		C125.9,11.55,125.417,12,124.95,12.5z"/>
	<path style="fill-rule:evenodd;clip-rule:evenodd;fill:#482D1D;" d="M142.05,15.15l4-3.35l-4.85-3.85l1.55-3.15h12.3
		c2,0,10.783,0.567,26.351,1.7c0.866,0,1.816,0.15,2.85,0.45c-1.9,3.033-3.316,4.816-4.25,5.35c-0.566,0.333-1,0.75-1.3,1.25
		l-0.3,0.6l0.199,1.35c0.101,1.1,0.15,2.2,0.15,3.3c0,1.8-0.566,5.583-1.7,11.35l-0.3-7.65c0-1.567-0.566-3.633-1.7-6.2
		c-0.633-1.466-1.3-2.2-2-2.2c-0.667,0-1.05-0.167-1.149-0.5c-0.2-0.6-0.801-0.8-1.801-0.6c-1.232,0.333-2.133,0.5-2.699,0.5
		c-0.567,0-0.834,0.033-0.801,0.1c0.101,0.167-0.083,0.35-0.55,0.55c-0.533,0.267-1.033,0.617-1.5,1.05l-0.5,0.6h-1l-4.649-0.65
		l-6,0.65c-2.233,0-3.684-0.216-4.351-0.65H142.05z"/>
	<path style="fill-rule:evenodd;clip-rule:evenodd;fill:#482D1D;" d="M175.4,39.8l4,1.7l-4.65,2.3c-1,0.5-1.95,1.2-2.85,2.1
		c-0.867,0.9-1.483,1.767-1.851,2.6c-0.433,1.1-1.533,2.65-3.3,4.65c-0.233-2.434-0.35-4.101-0.35-5l0.35-3.65l0.8-0.95
		c0.667-0.667,1.283-1.133,1.851-1.4c0.267-0.133,1.183-0.45,2.75-0.95C173.55,40.8,174.633,40.333,175.4,39.8z"/>
	<path style="fill-rule:evenodd;clip-rule:evenodd;fill:#482D1D;" d="M163.05,75.3c0.097-0.009,0.188-0.025,0.275-0.05
		c-0.026,0.018-0.052,0.034-0.075,0.05c-2.967,1.967-4.867,2.967-5.7,3c-1.033,0.101-2.433-0.233-4.2-1l-2.3-1.149l2.3-0.051
		c1.733-0.066,3.084-0.166,4.051-0.3C158.934,75.6,160.816,75.434,163.05,75.3z M164.75,71.5c0.233-0.3,1.117-1.634,2.65-4
		c0.199-0.3,0.75-0.667,1.649-1.1c1-0.467,1.783-1,2.351-1.601c0.666-0.633,0.866-1.366,0.6-2.2c-0.4-1.399-0.6-2.216-0.6-2.449
		L171.05,52.3l3.7,9.5c0.533,1.533,0.667,3.25,0.4,5.15c-0.134,0.934-0.334,1.717-0.601,2.35c-0.467,0.467-1.05,0.95-1.75,1.45
		c-1.366,0.967-2.616,1.483-3.75,1.55c-0.832,0.062-2.549,0.92-5.149,2.575c0.166-0.219,0.25-0.527,0.25-0.925
		C164.15,72.783,164.35,71.967,164.75,71.5z"/>
	<path style="fill-rule:evenodd;clip-rule:evenodd;fill:#482D1D;" d="M100.4,83.8c1.1,0,2.649-0.666,4.649-2l-0.45,1.3
		c-0.267,0.967-0.333,1.65-0.199,2.051c0.199,0.666-0.684,1.449-2.65,2.35c-0.467,1.333-1.033,2.333-1.7,3
		c-0.399,0.434-1.066,0.283-2-0.45l-1.3-1.25l-1.35,1.7l-4-0.35c-0.233,0.399-0.633,0.816-1.2,1.25
		c-1.167,0.899-2.65,1.483-4.45,1.75S82.4,93.05,81.1,92.05l-1.35-1.55l5.3,1l2-1.7l3.35-3.649l0.35-2l3-0.351H100.4z"/>
	<path style="fill-rule:evenodd;clip-rule:evenodd;fill:#482D1D;" d="M102.75,72.65c-0.467,1.767-0.7,2.933-0.7,3.5
		c0,0.899,0.45,2.233,1.351,4l-3.65-4c0-0.567,0.117-1.184,0.35-1.851l0.301-0.8l3-3.35L102.75,72.65z"/>
	<path style="fill-rule:evenodd;clip-rule:evenodd;fill:#482D1D;" d="M182.95,84.25c0.899-0.934,1.6-1.85,2.1-2.75
		c-0.866,4-1.633,6.333-2.3,7c-1.333,1.333-2.033,2.033-2.1,2.1c-1.101,0.967-2.067,1.601-2.9,1.9c-0.667,0.233-0.95,0.3-0.85,0.2
		c0.232-0.233,0.183-0.417-0.15-0.55c-0.4-0.134-1.133-0.233-2.2-0.301l-1.5-0.05l-0.3-2.649l1.15-0.7
		c0.967-0.5,2.017-0.816,3.149-0.95C179.15,87.2,181.117,86.116,182.95,84.25z"/>
	<path style="fill-rule:evenodd;clip-rule:evenodd;fill:#482D1D;" d="M151.05,95.5c-2.433,1.1-4.2,1.434-5.3,1
		c-0.7-0.3-1.917-0.5-3.65-0.6l-2.35-0.101l1.2-1.3c0.833-0.9,1.316-1.35,1.45-1.35c0.232,0,0.017-1-0.65-3l1.2,0.949
		c0.933,0.601,1.75,0.834,2.45,0.7l4,0.351c3.566-1.134,5.449-2.134,5.649-3l0.7-4l1.3-1.65c0.667,2,0.667,3.667,0,5
		s-1.767,2.884-3.3,4.65L151.05,95.5z"/>
	<path style="fill-rule:evenodd;clip-rule:evenodd;fill:#55351E;" d="M24.55,40.3c-1.2-0.5-1.8-1.433-1.8-2.8
		c0-1.4,0.15-2.317,0.45-2.75c0.333-0.5,1.066-0.817,2.2-0.95c1.267-0.133,2.1,0.383,2.5,1.55c0.367,1.167,0.2,2.433-0.5,3.8
		C26.733,40.45,25.783,40.833,24.55,40.3z"/>
	<path style="fill-rule:evenodd;clip-rule:evenodd;fill:#55351E;" d="M49.75,36.8c0.934,0.333,1.167,1.217,0.7,2.65
		c-0.467,1.4-1.15,2.183-2.05,2.35c-0.867,0.167-1.617-0.083-2.25-0.75c-0.667-0.7-0.917-1.55-0.75-2.55c0.167-1.1,0.5-1.783,1-2.05
		C47,36.15,48.117,36.267,49.75,36.8z"/>
	<path style="fill-rule:evenodd;clip-rule:evenodd;fill:#55351E;" d="M76.05,50.15c1.233-0.167,2.167,0.467,2.8,1.9
		c0.533,1.3,0.6,2.45,0.2,3.45c-0.3,0.733-1.116,0.9-2.45,0.5c-0.967-0.3-2.034-0.8-3.2-1.5c-0.833-0.467-0.85-1.283-0.05-2.45
		C74.117,50.917,75.017,50.283,76.05,50.15z"/>
	<path style="fill-rule:evenodd;clip-rule:evenodd;fill:#55351E;" d="M97.75,27.15c0.967,0,1.533,0.934,1.7,2.8
		c0.133,1.867-0.217,3.05-1.05,3.55c-0.768,0.467-1.5,0.483-2.2,0.05c-0.567-0.367-1.05-0.95-1.45-1.75
		c-0.467-0.867-0.5-1.8-0.1-2.8C95.15,27.767,96.184,27.15,97.75,27.15z"/>
	<path style="fill-rule:evenodd;clip-rule:evenodd;fill:#55351E;" d="M100.4,36.5c0.732,0.367,1.283,0.933,1.649,1.7
		c0.4,0.833,0.3,1.483-0.3,1.95c-0.6,0.434-1.167,0.5-1.7,0.2c-0.066-0.033-0.733-0.55-2-1.55c-0.8-0.633-0.8-1.283,0-1.95
		C98.816,36.183,99.6,36.067,100.4,36.5z"/>
	<path style="fill-rule:evenodd;clip-rule:evenodd;fill:#55351E;" d="M141.4,22.5c1.8-0.167,2.75,0.083,2.85,0.75
		c0.1,0.4-0.217,1.15-0.95,2.25c-0.5,0.733-1.233,1.033-2.2,0.9c-0.033,0-0.816-0.2-2.35-0.6c-0.733-0.167-0.75-0.733-0.05-1.7
		C139.4,23.1,140.3,22.567,141.4,22.5z"/>
	<path style="fill-rule:evenodd;clip-rule:evenodd;fill:#55351E;" d="M180.05,50.15c1.2,0,2.267,0.867,3.2,2.6
		c0.9,1.733,0.95,3.083,0.15,4.05c-0.768,0.9-1.934,1.033-3.5,0.4c-1.301-0.533-2.467-1.334-3.5-2.4c-0.9-0.866-0.967-1.85-0.2-2.95
		C177,50.717,178.283,50.15,180.05,50.15z"/>
	<path style="fill-rule:evenodd;clip-rule:evenodd;fill:#55351E;" d="M106.05,63.8c-0.833,0.367-1.917,0.217-3.25-0.45
		c-1.366-0.666-2.05-1.399-2.05-2.199c0-0.834,0.7-1.733,2.1-2.7c1.434-0.934,2.617-1.25,3.551-0.95
		c0.967,0.3,1.366,1.35,1.199,3.15C107.467,62.417,106.95,63.467,106.05,63.8z"/>
	<path style="fill-rule:evenodd;clip-rule:evenodd;fill:#5B554D;" d="M23.55,38.3c-1.2-0.5-1.8-1.433-1.8-2.8
		c0-1.4,0.15-2.317,0.45-2.75c0.333-0.5,1.066-0.817,2.2-0.95c1.267-0.133,2.1,0.383,2.5,1.55c0.367,1.167,0.2,2.433-0.5,3.8
		C25.733,38.45,24.783,38.833,23.55,38.3z"/>
	<path style="fill-rule:evenodd;clip-rule:evenodd;fill:#5B554D;" d="M48.75,34.8c0.934,0.333,1.167,1.217,0.7,2.65
		c-0.467,1.4-1.15,2.183-2.05,2.35c-0.867,0.167-1.617-0.083-2.25-0.75c-0.667-0.7-0.917-1.55-0.75-2.55c0.167-1.1,0.5-1.783,1-2.05
		C46,34.15,47.117,34.267,48.75,34.8z"/>
	<path style="fill-rule:evenodd;clip-rule:evenodd;fill:#5B554D;" d="M75.05,48.15c1.233-0.167,2.167,0.467,2.8,1.9
		c0.533,1.3,0.6,2.45,0.2,3.45c-0.3,0.733-1.116,0.9-2.45,0.5c-0.967-0.3-2.034-0.8-3.2-1.5c-0.833-0.467-0.85-1.283-0.05-2.45
		C73.117,48.917,74.017,48.283,75.05,48.15z"/>
	<path style="fill-rule:evenodd;clip-rule:evenodd;fill:#5B554D;" d="M98.45,27.95c0.133,1.867-0.217,3.05-1.05,3.55
		c-0.768,0.467-1.5,0.483-2.2,0.05c-0.567-0.367-1.05-0.95-1.45-1.75c-0.467-0.867-0.5-1.8-0.1-2.8c0.5-1.233,1.534-1.85,3.1-1.85
		C97.717,25.15,98.283,26.083,98.45,27.95z"/>
	<path style="fill-rule:evenodd;clip-rule:evenodd;fill:#5B554D;" d="M99.4,34.5c0.732,0.367,1.283,0.933,1.649,1.7
		c0.4,0.833,0.3,1.483-0.3,1.95c-0.6,0.434-1.167,0.5-1.7,0.2c-0.066-0.033-0.733-0.55-2-1.55c-0.8-0.633-0.8-1.283,0-1.95
		C97.816,34.183,98.6,34.067,99.4,34.5z"/>
	<path style="fill-rule:evenodd;clip-rule:evenodd;fill:#5B554D;" d="M140.4,20.5c1.8-0.167,2.75,0.083,2.85,0.75
		c0.1,0.4-0.217,1.15-0.95,2.25c-0.5,0.733-1.233,1.033-2.2,0.9c-0.033,0-0.816-0.2-2.35-0.6c-0.733-0.167-0.75-0.733-0.05-1.7
		C138.4,21.1,139.3,20.567,140.4,20.5z"/>
	<path style="fill-rule:evenodd;clip-rule:evenodd;fill:#5B554D;" d="M179.05,48.15c1.2,0,2.267,0.867,3.2,2.6
		c0.9,1.733,0.95,3.083,0.15,4.05c-0.768,0.9-1.934,1.033-3.5,0.4c-1.301-0.533-2.467-1.334-3.5-2.4c-0.9-0.867-0.967-1.85-0.2-2.95
		C176,48.717,177.283,48.15,179.05,48.15z"/>
	<path style="fill-rule:evenodd;clip-rule:evenodd;fill:#5B554D;" d="M105.4,55.5c0.967,0.3,1.366,1.35,1.199,3.15
		c-0.133,1.767-0.649,2.816-1.55,3.149c-0.833,0.367-1.917,0.217-3.25-0.45c-1.366-0.666-2.05-1.399-2.05-2.199
		c0-0.834,0.7-1.733,2.1-2.7C103.283,55.517,104.467,55.2,105.4,55.5z"/>
	<path style="fill-rule:evenodd;clip-rule:evenodd;fill:#514C45;" d="M23.55,38.35c-1.2-0.467-1.8-1.317-1.8-2.55
		c0-1.267,0.15-2.1,0.45-2.5c0.333-0.433,1.066-0.716,2.2-0.85c1.267-0.133,2.1,0.333,2.5,1.4c0.367,1.066,0.2,2.217-0.5,3.45
		C25.733,38.467,24.783,38.817,23.55,38.35z"/>
	<path style="fill-rule:evenodd;clip-rule:evenodd;fill:#514C45;" d="M48.75,35.7c0.967,0.267,1.2,0.983,0.7,2.15
		c-0.467,1.167-1.15,1.816-2.05,1.95c-0.867,0.167-1.617-0.05-2.25-0.65c-0.667-0.566-0.917-1.25-0.75-2.05
		c0.167-0.9,0.5-1.45,1-1.65C46,35.183,47.117,35.267,48.75,35.7z"/>
	<path style="fill-rule:evenodd;clip-rule:evenodd;fill:#514C45;" d="M75.55,50.15c1.033-0.1,1.817,0.317,2.35,1.25
		c0.467,0.9,0.534,1.667,0.2,2.3c-0.4,0.866-2,0.649-4.8-0.65c-0.667-0.333-0.667-0.883,0-1.65
		C73.934,50.633,74.684,50.217,75.55,50.15z"/>
	<path style="fill-rule:evenodd;clip-rule:evenodd;fill:#514C45;" d="M96.85,26.5c0.9,0,1.434,0.75,1.601,2.25
		c0.133,1.467-0.2,2.4-1,2.8c-0.7,0.367-1.384,0.383-2.05,0.05c-0.533-0.3-0.983-0.767-1.35-1.4c-0.433-0.7-0.467-1.45-0.1-2.25
		C94.383,26.983,95.35,26.5,96.85,26.5z"/>
	<path style="fill-rule:evenodd;clip-rule:evenodd;fill:#514C45;" d="M99.65,35.65c0.666,0.267,1.166,0.7,1.5,1.3
		c0.333,0.633,0.232,1.117-0.301,1.45c-0.533,0.333-1.033,0.383-1.5,0.15L97.6,37.4c-0.699-0.467-0.699-0.95,0-1.45
		C98.267,35.45,98.95,35.35,99.65,35.65z"/>
	<path style="fill-rule:evenodd;clip-rule:evenodd;fill:#514C45;" d="M140.85,22.2c1.5-0.1,2.301,0.066,2.4,0.5
		c0.066,0.233-0.2,0.7-0.8,1.4c-0.4,0.433-1.017,0.617-1.851,0.55c-0.933-0.167-1.583-0.283-1.949-0.35
		c-0.567-0.1-0.567-0.45,0-1.05C139.217,22.617,139.95,22.267,140.85,22.2z"/>
	<path style="fill-rule:evenodd;clip-rule:evenodd;fill:#514C45;" d="M179.55,50.8c1.067,0,1.983,0.55,2.75,1.65
		c0.8,1.133,0.851,2.017,0.15,2.649c-0.634,0.567-1.65,0.634-3.05,0.2c-1.134-0.333-2.167-0.833-3.101-1.5
		c-0.767-0.566-0.816-1.2-0.149-1.9C176.85,51.167,177.983,50.8,179.55,50.8z"/>
	<path style="fill-rule:evenodd;clip-rule:evenodd;fill:#514C45;" d="M105.45,56.8c0.899,0.233,1.283,1.066,1.149,2.5
		c-0.166,1.4-0.649,2.25-1.449,2.55c-0.834,0.267-1.884,0.134-3.15-0.399c-1.3-0.5-1.95-1.084-1.95-1.75
		c0-0.667,0.684-1.367,2.05-2.101C103.467,56.833,104.583,56.566,105.45,56.8z"/>
	<path style="fill-rule:evenodd;clip-rule:evenodd;fill:#487016;" d="M119.95,0.55c1.6-0.267,2.883-0.417,3.85-0.45
		c1.067-0.033,2.717,0.217,4.95,0.75c1.2,0.3,2.75,0.7,4.65,1.2c0.967,0.2,2.316,0.284,4.05,0.25c0.933,0,2.183-0.033,3.75-0.1
		c2.399-0.067,4.066-0.034,5,0.1c1.033,0.167,2.649,0.167,4.85,0l12.2-0.5c1.033,0,1.684,0,1.95,0c0.7-0.033,1.55-0.133,2.55-0.3
		c0.767-0.1,1.767-0.333,3-0.7c1.066-0.233,1.967-0.216,2.7,0.05c0.733,0.3,1.217,0.467,1.45,0.5c0.232,0.033,0.916,0.083,2.05,0.15
		c0.7,0.067,1.833-0.1,3.399-0.5c1.434-0.4,2.851-0.45,4.25-0.15c2.601,0.566,5.367,0.566,8.301,0l0.8-0.1
		c-0.434,2.4-0.65,4.917-0.65,7.55c0,1.2,0.05,2.367,0.15,3.5c-0.967-0.8-1.601-1.483-1.9-2.05l-1.899-3.2l-0.2,1.7
		c-0.134,1.267-0.184,2.217-0.15,2.85l0.05,2.1c-1.3-0.733-2.399-1.75-3.3-3.05c-0.566-0.8-1-1.566-1.3-2.3l-0.25-0.9
		c-0.5,1.933-1.333,3.3-2.5,4.1L180,12.3c0-1.033-0.066-1.9-0.2-2.6c-0.066-0.434-0.233-0.95-0.5-1.55l-0.399-0.8
		c-0.7,1.267-1.634,2.25-2.801,2.95c-0.732,0.467-1.649,0.817-2.75,1.05L171.9,11.6c1.066-1.067,1.683-2,1.85-2.8l0.3-1.8
		c-2.767,1.733-4.733,2.7-5.899,2.9l-1.801,0.3c0.733-1.133,1.084-1.917,1.051-2.35V7.2c-0.101,0.267-0.334,0.5-0.7,0.7
		c-0.733,0.4-1.783,0.45-3.15,0.15L160.3,7.4l3.95,3.25c-0.533,0.033-1.167,0-1.9-0.1c-1.5-0.167-2.767-0.6-3.8-1.3
		c-1.033-0.667-1.95-1.317-2.75-1.95L154.9,6.5l-0.051,1.6c0.033,1.167,0.15,2.017,0.351,2.55l0.5,1.3
		c-1.3-0.567-2.351-1.45-3.15-2.65c-0.467-0.733-0.95-1.566-1.45-2.5l-0.6-1.2l-0.55,1.35c-0.367,1.033-0.567,1.9-0.601,2.6
		L149.2,11.2c-1.3-0.733-2.134-1.784-2.5-3.15l-0.55-2.1c-1.567,2.133-2.817,3.4-3.75,3.8l-1.45,0.55
		c0.2-0.433,0.283-1.216,0.25-2.35l-0.05-1.7c-1.167,1.067-2.5,1.617-4,1.65L134.05,8l1.45-1.2l0.6-0.65
		c-0.866-0.167-2.149-0.217-3.85-0.15c-1.066,0.033-2.417-0.067-4.05-0.3l-2.15-0.35l1.25,1.35c0.967,1,1.717,1.65,2.25,1.95
		l1.3,0.75c-2.267-0.2-4.166-0.7-5.699-1.5c-0.967-0.533-1.7-1.05-2.2-1.55l-0.45-0.6l-0.2,1.75c-0.033,1.333,0.2,2.433,0.7,3.3
		l1.15,2.05c-2.5-1.4-3.934-2.75-4.301-4.05c-0.232-0.8-0.433-1.65-0.6-2.55L119.1,5.2c-0.333,0.4-0.666,0.883-1,1.45
		c-0.699,1.1-1.033,2.017-1,2.75l0.051,1.85c-1.434-1.2-2.217-2.35-2.351-3.45l-0.25-2.35c-0.267,1.233-1.1,2.25-2.5,3.05L110,9.75
		c0.7-1.767,0.983-2.867,0.85-3.3L110.5,4.4c-1.467,1.767-2.367,2.7-2.7,2.8l-0.45,0.15l-1.35-1c-0.133-0.467-0.7-0.767-1.7-0.9
		c-0.233,0.767-0.35,1.45-0.35,2.05v1.7c-1.134-0.233-2.15-0.8-3.05-1.7l-1.4-1.4c0.233,1.6,0.017,2.967-0.65,4.1l-1.05,1.7
		c0-2.033-0.217-3.617-0.649-4.75l-0.4-1L96.2,5.9c-0.567,1.233-1.384,2.667-2.45,4.3l-1.4,2.05c-0.3-2.1-0.6-3.75-0.9-4.95L91,5.45
		c-0.9,1.8-1.8,3.05-2.7,3.75c-0.566,0.433-1.417,0.9-2.55,1.4l-1.55,0.65c0.467-2.067,0.7-3.55,0.7-4.45V5.45
		c-0.267,0.1-0.583,0.267-0.95,0.5C83.283,6.417,82.8,6.933,82.5,7.5l-0.7,1.35C80,7.717,79.1,6.8,79.1,6.1v-1
		c-1.6,2.267-3.2,3.85-4.8,4.75l-2.35,1.4c0.433-0.933,0.65-1.967,0.65-3.1v-1.7c-1.333,1.133-2.35,2.167-3.05,3.1
		c-0.333,0.467-0.5,0.9-0.5,1.3c0,0.167-0.167,0.183-0.5,0.05c-0.9-0.3-1.35-1.55-1.35-3.75v-1.7l-2.4,4.1l-0.7,1
		c-0.667-1.6-1-2.966-1-4.1v-1.7c-0.833,0.333-1.733,0.783-2.7,1.35c-1.867,1.167-3.017,2.316-3.45,3.45l-1,2.7
		c-0.7-0.667-1.15-1.467-1.35-2.4c-0.133-0.567-0.233-1.25-0.3-2.05l-0.05-1c-0.333,0.333-0.667,0.784-1,1.35
		c-0.6,1.133-0.833,2.267-0.7,3.4l0.3,2.75c-0.9-0.9-1.567-2.15-2-3.75c-0.3-1-0.5-2.033-0.6-3.1l-0.1-1.35
		c-1.367,2.066-2.95,3.783-4.75,5.15l-2.75,2c0.467-1.8,0.817-3.033,1.05-3.7c0.133-0.433,0.217-1.083,0.25-1.95L44,6.45
		c-2.267,1.6-4.083,2.733-5.45,3.4l-2,1.05c0.667-1.833,1-3.2,1-4.1V5.45c-0.633,0.066-1.3,0.216-2,0.45
		c-1.4,0.533-2.316,1.283-2.75,2.25c-0.7,1.6-1.05,2.967-1.05,4.1c-0.9-1.133-1.467-2.267-1.7-3.4L29.4,5.8
		c-0.7,1.567-1.833,2.817-3.4,3.75c-1,0.567-2.033,1.017-3.1,1.35l-1.35,0.35c1.367-1.6,2.05-2.85,2.05-3.75V6.1
		c-2.267,1.6-4.65,2.75-7.15,3.45l-3.75,1l2.4-4.1c-0.633,0.233-1.317,0.566-2.05,1C11.583,8.317,10.566,9.233,10,10.2
		c-0.566,1-0.967,1.933-1.2,2.8c-0.133,0.4-0.2,0.717-0.2,0.95c-1.367-1.8-2.05-3.5-2.05-5.1v-2.4c-0.5,0.4-1,0.867-1.5,1.4
		c-1.033,1.1-1.55,2-1.55,2.7v3.05c-1.367-0.9-2.167-1.917-2.4-3.05C0.967,9.85,0.767,9.033,0.5,8.1L0.15,6.9
		C0.017,3.6-0.033,1.7,0,1.2h0.45c1.167,0,2.433,0.1,3.8,0.3C5.65,1.7,6.5,1.8,6.8,1.8L12,2.4c0.4,0,1.434-0.167,3.1-0.5
		c1.567-0.3,2.733-0.433,3.5-0.4c2.333-0.033,4.5,0,6.5,0.1c1.1,0.033,2.55,0.1,4.35,0.2c1.533-0.533,3.267-0.85,5.2-0.95
		c1.1-0.033,2.75-0.083,4.95-0.15c1.133-0.1,2.133-0.284,3-0.55c1.2-0.167,4.05-0.1,8.55,0.2c3.467,0.2,7.117,0.5,10.95,0.9
		C70.367,1.083,75.017,1,76.05,1s2.717-0.2,5.05-0.6c2.033-0.367,3.883-0.483,5.55-0.35h0.05c1.233,0.167,2.116,0.3,2.65,0.4
		c3,0.466,5.367,0.7,7.1,0.7c0.899,0,3.467,0.05,7.7,0.15c3.666,0.067,6.017,0.083,7.05,0.05c1.833-0.033,3.717-0.167,5.649-0.4
		C117.316,0.95,118.35,0.817,119.95,0.55z"/>
	<g>
		<path style="fill-rule:evenodd;clip-rule:evenodd;fill:#406313;" d="M66.35,6.95l-2.25,3.6c-0.3-0.733-0.55-1.517-0.75-2.35
			l0.45-0.65l2.4-4.1v1.7C66.2,5.983,66.25,6.583,66.35,6.95z"/>
		<path style="fill-rule:evenodd;clip-rule:evenodd;fill:#406313;" d="M95.75,4.15L96.4,6l-0.2-0.1
			c-0.567,1.233-1.384,2.667-2.45,4.3l-1.4,2.05l-0.45-2.8l0.85-1.25c1.066-1.633,1.883-3.067,2.45-4.3L95.75,4.15z"/>
		<path style="fill-rule:evenodd;clip-rule:evenodd;fill:#406313;" d="M62.1,2.75l0.05,2.45c-2.867,1.3-4.6,2.75-5.2,4.35l-1,2.7
			c-0.7-0.667-1.15-1.467-1.35-2.4l0.35,0.4l1-2.7c0.433-1.133,1.583-2.283,3.45-3.45C60.367,3.533,61.267,3.083,62.1,2.75z"/>
		<path style="fill-rule:evenodd;clip-rule:evenodd;fill:#406313;" d="M82.95,3.95c0.366-0.233,0.683-0.4,0.95-0.5L83.75,6.1
			c-0.533,0.367-0.95,0.833-1.25,1.4l-0.7,1.35C80,7.717,79.1,6.8,79.1,6.1V5.55c0.5,0.467,1.067,0.9,1.7,1.3l0.7-1.35
			C81.8,4.933,82.283,4.417,82.95,3.95z"/>
		<path style="fill-rule:evenodd;clip-rule:evenodd;fill:#406313;" d="M68.05,8.85c0-0.4,0.167-0.833,0.5-1.3
			c0.7-0.933,1.717-1.966,3.05-3.1l-0.1,3c-0.867,0.8-1.517,1.5-1.95,2.1c-0.333,0.467-0.5,0.9-0.5,1.3
			c0,0.167-0.167,0.183-0.5,0.05c-0.6-0.2-1.017-0.917-1.25-2.15l0.25,0.15C67.883,9.033,68.05,9.017,68.05,8.85z"/>
		<path style="fill-rule:evenodd;clip-rule:evenodd;fill:#406313;" d="M90,3.45l0.65,2.65c-0.933,1.566-1.716,2.6-2.35,3.1
			c-0.566,0.433-1.417,0.9-2.55,1.4l-1.55,0.65l0.5-2.65c1.267-0.6,2.133-1.067,2.6-1.4C88.2,6.5,89.1,5.25,90,3.45z"/>
		<path style="fill-rule:evenodd;clip-rule:evenodd;fill:#406313;" d="M78.1,4.1c0,0.333,0.267,0.767,0.8,1.3
			c-1.633,2.167-3.167,3.65-4.6,4.45l-2.35,1.4c0.433-0.9,0.65-1.9,0.65-3l0.7-0.4c1.6-0.9,3.2-2.483,4.8-4.75V4.1z"/>
		<path style="fill-rule:evenodd;clip-rule:evenodd;fill:#406313;" d="M53.55,7.7c-0.833,1.267-1.167,2.55-1,3.85l0.3,2.75
			c-0.7-0.733-1.3-1.75-1.8-3.05c0.3,0.467,0.567,0.817,0.8,1.05l-0.3-2.75c-0.133-1.133,0.1-2.267,0.7-3.4
			c0.333-0.566,0.667-1.017,1-1.35l0.05,0.95C53.333,6.483,53.417,7.133,53.55,7.7z"/>
		<path style="fill-rule:evenodd;clip-rule:evenodd;fill:#406313;" d="M14.1,4.45l-2.2,3.7C11,8.883,10.367,9.567,10,10.2
			c-0.566,1-0.967,1.933-1.2,2.8c-0.133,0.4-0.2,0.717-0.2,0.95c-0.633-0.833-1.15-1.784-1.55-2.85l0.55,0.85
			c0-0.233,0.067-0.55,0.2-0.95C8.033,10.133,8.434,9.2,9,8.2c0.566-0.967,1.583-1.883,3.05-2.75
			C12.783,5.017,13.467,4.683,14.1,4.45z"/>
		<path style="fill-rule:evenodd;clip-rule:evenodd;fill:#406313;" d="M22.6,5.5c0,0.4-0.183,0.933-0.55,1.6
			c-1.933,1.133-3.8,1.95-5.6,2.45l-3.75,1l1.6-2.7l1.15-0.3c2.5-0.7,4.883-1.85,7.15-3.45V5.5z"/>
		<path style="fill-rule:evenodd;clip-rule:evenodd;fill:#406313;" d="M5.55,6.85L5.6,7.3c-1.4,1.333-2.1,2.417-2.1,3.25v3.05
			c-1.367-0.9-2.167-1.917-2.4-3.05L1.05,10.3C1.517,10.833,2,11.267,2.5,11.6V8.55c0-0.7,0.517-1.6,1.55-2.7c0.5-0.533,1-1,1.5-1.4
			V6.85z"/>
		<path style="fill-rule:evenodd;clip-rule:evenodd;fill:#406313;" d="M36.55,4.8l-0.1,0.85c-1.934,0.5-3.15,1.333-3.65,2.5
			c-0.7,1.6-1.05,2.967-1.05,4.1c-0.667-0.867-1.167-1.783-1.5-2.75l0.5,0.75c0-1.133,0.35-2.5,1.05-4.1
			c0.434-0.967,1.35-1.717,2.75-2.25c0.7-0.233,1.367-0.383,2-0.45V4.8z"/>
		<path style="fill-rule:evenodd;clip-rule:evenodd;fill:#406313;" d="M49.15,4.1l0.05,0.85c0.066,0.7,0.167,1.4,0.3,2.1
			c-1.5,1.833-2.867,3.233-4.1,4.2l-2.75,2l0.95-3.4l0.8-0.6C46.2,7.883,47.783,6.167,49.15,4.1z"/>
		<path style="fill-rule:evenodd;clip-rule:evenodd;fill:#406313;" d="M28.4,3.8L29,6.5c-0.867,1.367-1.867,2.383-3,3.05
			c-1,0.567-2.033,1.017-3.1,1.35l-1.35,0.35c0.9-1.067,1.517-2.05,1.85-2.95L25,7.55C26.566,6.617,27.7,5.367,28.4,3.8z"/>
		<path style="fill-rule:evenodd;clip-rule:evenodd;fill:#406313;" d="M43,4.45L42.95,5.5c-0.033,0.8-0.1,1.417-0.2,1.85
			c-1.733,1.167-3.133,2-4.2,2.5l-2,1.05c0.4-1.066,0.684-2.05,0.85-2.95l0.15-0.1C38.917,7.183,40.733,6.05,43,4.45z"/>
		<path style="fill-rule:evenodd;clip-rule:evenodd;fill:#406313;" d="M172.75,6.8c-0.1,0.4-0.316,0.833-0.65,1.3
			c-1.767,1.033-3.083,1.633-3.949,1.8l-1.801,0.3c0.733-1.133,1.084-1.917,1.051-2.35c1.267-0.367,3.149-1.317,5.649-2.85
			L172.75,6.8z"/>
		<path style="fill-rule:evenodd;clip-rule:evenodd;fill:#406313;" d="M145.7,6.05l0.149,0.35c-1.467,1.9-2.616,3.017-3.449,3.35
			l-1.45,0.55c0.2-0.433,0.283-1.216,0.25-2.35V7.8l0.2-0.05c0.933-0.4,2.183-1.667,3.75-3.8L145.7,6.05z"/>
		<path style="fill-rule:evenodd;clip-rule:evenodd;fill:#406313;" d="M146.7,8.05l-0.05-0.2c0.5,0.6,1.017,1.05,1.55,1.35
			l0.149-1.65c0.033-0.7,0.233-1.566,0.601-2.6l0.55-1.35l0.6,1.2c0.5,0.934,0.983,1.767,1.45,2.5c0.8,1.2,1.851,2.083,3.15,2.65
			l-0.5-1.3c-0.2-0.533-0.317-1.383-0.351-2.55l0.051-1.6l0.899,0.8c0.8,0.633,1.717,1.284,2.75,1.95
			c1.2,0.767,2.583,1.217,4.15,1.35l2.55,2.05c-0.533,0.033-1.167,0-1.9-0.1c-1.5-0.167-2.767-0.6-3.8-1.3
			c-1.033-0.667-1.95-1.317-2.75-1.95L154.9,6.5l-0.051,1.6c0.033,1.167,0.15,2.017,0.351,2.55l0.5,1.3
			c-1.3-0.567-2.351-1.45-3.15-2.65c-0.467-0.733-0.95-1.566-1.45-2.5l-0.6-1.2l-0.55,1.35c-0.367,1.033-0.567,1.9-0.601,2.6
			L149.2,11.2C147.9,10.467,147.066,9.417,146.7,8.05z"/>
		<path style="fill-rule:evenodd;clip-rule:evenodd;fill:#406313;" d="M165.7,5.9c0.366-0.2,0.6-0.433,0.7-0.7v0.65
			c0.033,0.433-0.317,1.217-1.051,2.35l1-0.15c-0.699,0.267-1.633,0.267-2.8,0l-1.45-0.3l-2.8-2.35l3.25,0.65
			C163.917,6.35,164.967,6.3,165.7,5.9z"/>
		<path style="fill-rule:evenodd;clip-rule:evenodd;fill:#406313;" d="M192.4,0.95l1.3-0.2c-0.434,2.4-0.65,4.917-0.65,7.55
			c0,1.2,0.05,2.367,0.15,3.5c-0.967-0.8-1.601-1.483-1.9-2.05l-1.899-3.2l-0.2,1.7c-0.134,1.267-0.184,2.217-0.15,2.85l0.05,2.1
			c-1.3-0.733-2.399-1.75-3.3-3.05c-0.6-0.8-1.05-1.633-1.35-2.5l0.35,0.5c0.9,1.3,2,2.317,3.3,3.05l-0.05-2.1
			c-0.033-0.633,0.017-1.583,0.15-2.85l0.2-1.7l1.899,3.2c0.3,0.567,0.934,1.25,1.9,2.05c-0.101-1.133-0.15-2.3-0.15-3.5
			C192.05,4.367,192.167,2.583,192.4,0.95z"/>
		<path style="fill-rule:evenodd;clip-rule:evenodd;fill:#406313;" d="M183.25,4.95l0.15,0.6c0.199,0.534,0.449,1.083,0.75,1.65
			c-0.533,1.833-1.334,3.117-2.4,3.85L180,12.3c0-1-0.066-1.85-0.2-2.55l0.95-0.7C181.917,8.25,182.75,6.883,183.25,4.95z"/>
		<path style="fill-rule:evenodd;clip-rule:evenodd;fill:#406313;" d="M177.9,5.35l0.35,0.75c0.267,0.6,0.434,1.1,0.5,1.5
			c-0.867,1.233-1.75,2.133-2.65,2.7c-0.732,0.467-1.649,0.817-2.75,1.05L171.9,11.6c0.967-0.967,1.566-1.85,1.8-2.65
			c0.5-0.167,0.967-0.383,1.399-0.65C176.267,7.6,177.2,6.617,177.9,5.35z"/>
		<path style="fill-rule:evenodd;clip-rule:evenodd;fill:#406313;" d="M118.6,5.85c-1.033,1.467-1.533,2.65-1.5,3.55l0.051,1.85
			c-1.4-1.167-2.184-2.3-2.351-3.4c0.434,0.533,0.884,1,1.351,1.4L116.1,7.4c-0.033-0.733,0.301-1.65,1-2.75
			c0.334-0.566,0.667-1.05,1-1.45L118.6,5.85z"/>
		<path style="fill-rule:evenodd;clip-rule:evenodd;fill:#406313;" d="M109.85,4.45c0.067,0.167,0.067,0.417,0,0.75
			c-1.1,1.267-1.783,1.933-2.05,2l-0.45,0.15l-1.35-1c-0.133-0.467-0.7-0.767-1.7-0.9c-0.233,0.767-0.35,1.45-0.35,2.05v1.7
			c-1.134-0.233-2.15-0.8-3.05-1.7l-1.4-1.4c0.233,1.6,0.017,2.967-0.65,4.1l-1.05,1.7c0-1.1-0.083-2.167-0.25-3.2l0.3-0.5
			c0.667-1.133,0.884-2.5,0.65-4.1l1.4,1.4c0.899,0.9,1.916,1.467,3.05,1.7V5.5c0-0.6,0.116-1.283,0.35-2.05
			c1,0.133,1.567,0.433,1.7,0.9l1.35,1l0.45-0.15c0.333-0.1,1.233-1.034,2.7-2.8L109.85,4.45z"/>
		<path style="fill-rule:evenodd;clip-rule:evenodd;fill:#406313;" d="M113.8,5.8l0.25,0.8c-0.533,0.767-1.2,1.4-2,1.9L110,9.75
			c0.6-1.533,0.9-2.583,0.9-3.15l0.149-0.1c1.4-0.8,2.233-1.817,2.5-3.05L113.8,5.8z"/>
		<path style="fill-rule:evenodd;clip-rule:evenodd;fill:#406313;" d="M122.95,10.7l1.2,2.15c-2.5-1.4-3.934-2.75-4.301-4.05
			L119.7,8.2C120.4,9.033,121.483,9.867,122.95,10.7z"/>
		<path style="fill-rule:evenodd;clip-rule:evenodd;fill:#406313;" d="M122.95,6.35l-0.45-0.6l-0.2,1.3
			c-0.066,1.034,0.017,1.95,0.25,2.75l-0.55-1c-0.5-0.867-0.733-1.966-0.7-3.3l0.2-1.75l0.45,0.6c0.5,0.5,1.233,1.017,2.2,1.55
			c0.833,0.434,1.982,0.817,3.449,1.15c0.801,0.8,1.45,1.333,1.95,1.6l1.3,0.75c-2.267-0.2-4.166-0.7-5.699-1.5
			C124.184,7.367,123.45,6.85,122.95,6.35z"/>
		<path style="fill-rule:evenodd;clip-rule:evenodd;fill:#406313;" d="M140.15,4.25l0.05,2.7c-1.067,0.633-2.083,0.95-3.05,0.95
			L134.05,8l1.45-1.2l0.6-0.65C135.667,6.05,135.033,6,134.2,6l1.95-0.1C137.65,5.867,138.983,5.317,140.15,4.25z"/>
		<path style="fill-rule:evenodd;clip-rule:evenodd;fill:#406313;" d="M134.5,4.8c-0.367,0.367-0.816,0.75-1.35,1.15
			c-0.4,0-0.7,0.017-0.9,0.05c-1.3,0.033-3-0.117-5.1-0.45l-2.101-2.2l2.15,0.35c1.633,0.233,2.983,0.333,4.05,0.3
			c1.7-0.067,2.983-0.017,3.85,0.15L134.5,4.8z"/>
	</g>
</g>
</svg>
