<?xml version="1.0" encoding="iso-8859-1"?>
<!-- Generator: Adobe Illustrator 15.1.0, SVG Export Plug-In . SVG Version: 6.00 Build 0)  -->
<!DOCTYPE svg PUBLIC "-//W3C//DTD SVG 1.1//EN" "http://www.w3.org/Graphics/SVG/1.1/DTD/svg11.dtd">
<svg version="1.1" id="FlashAICB" xmlns="http://www.w3.org/2000/svg" xmlns:xlink="http://www.w3.org/1999/xlink" x="0px" y="0px"
	 width="365.15px" height="266.25px" viewBox="0 0 365.15 266.25" style="enable-background:new 0 0 365.15 266.25;"
	 xml:space="preserve">
<g>
	<path style="fill-rule:evenodd;clip-rule:evenodd;fill:#613A22;" d="M5.3,70.9c-0.1-1.8,3.684-5.267,11.35-10.4
		c7.533-5.033,17.167-10.583,28.9-16.65C74.05,29.05,99.3,18.8,121.3,13.1c20.167-5.2,47.367-6.65,81.601-4.35
		c12.033,0.833,23.949,2.066,35.75,3.7c9.433,1.3,16.316,2.466,20.649,3.5c21.533,5.167,43.05,14.783,64.55,28.85
		c7.934,5.167,14.934,10.35,21,15.55c5.301,4.566,8.567,7.933,9.801,10.1c1.233,2.2,2.616,6.233,4.149,12.1
		c1.767,6.867,3.2,14.35,4.3,22.45c2.967,22,2.7,42.6-0.8,61.8c-2.467,13.634-7.3,28.351-14.5,44.15
		c-10.066,22-21.566,36.95-34.5,44.85c-9.566,5.833-30.399,9.033-62.5,9.601c-9.1,0.166-22.666,0.133-40.7-0.101
		c-17.533-0.233-29.8-0.267-36.8-0.1c-37.233,0.767-58.233,1.116-63,1.05c-21.533-0.4-35.533-2.633-42-6.7
		c-9.233-5.733-17.95-11.433-26.15-17.1c-10.367-7.134-17.65-12.684-21.85-16.65c-5.133-4.767-9.3-16.783-12.5-36.05
		c-2.333-13.967-3.5-25.05-3.5-33.25c0-0.333,0.217-14.617,0.65-42.85C5.35,88.083,5.467,73.833,5.3,70.9z"/>
	<path style="fill-rule:evenodd;clip-rule:evenodd;fill:#55351E;" d="M6,84c0.433-3,1.067-6.167,1.9-9.5
		c1.667-6.667,3.467-10.783,5.4-12.35c2.367-1.9,16.45-9.216,42.25-21.95c25.9-12.767,41.817-20.233,47.75-22.4
		c6-2.167,21.5-4.483,46.5-6.95c24.967-2.434,45.467-3.65,61.5-3.65c14.7,0,40.816,7.7,78.351,23.1
		c14.967,6.134,28.233,12.134,39.8,18C341.15,54.233,348,58.434,350,60.9c3.333,4.167,5.55,8.55,6.65,13.15
		c0.566,2.267,0.783,4.134,0.649,5.6l-2.649-3.1c-1.101-1.333-2.851-2.05-5.25-2.15c-2.5,0.167-4.084,0.25-4.75,0.25
		c-0.801,0-1.15,0.933-1.051,2.8c0.034,1.167,0.167,3.35,0.4,6.55c0,2.1,1,4.816,3,8.15c1,1.667,2,3.117,3,4.35l1,3.5
		c0.667,2.633,1,4.6,1,5.9c0,1.7-2.583,4.583-7.75,8.65c-5.333,4.233-9.417,6.35-12.25,6.35c-2.5,0-3.033-0.933-1.6-2.8l2.899-2.85
		l0.7-5.6l-3.35-2.5l-10-1.25L316,117.75l-0.6,3.65c-0.767,2.833-2.134,5.15-4.101,6.95c-2.066,1.966-3.983,6.35-5.75,13.15
		c-1.5,5.8-2.25,10.167-2.25,13.1c0,2.134-0.583,4.934-1.75,8.4c-1.1,3.267-2.517,6.517-4.25,9.75c-2.2,4.133-4.866,8.7-8,13.7
		c-5.333,0.833-11.767,1.25-19.3,1.25c-4.733,0-8.267-1.351-10.6-4.05c-0.733-0.834-1.301-1.768-1.7-2.801l-0.4-1.25l5.5-0.1
		c4-0.1,6.834-0.283,8.5-0.55c1.667-0.233,4.4-1.75,8.2-4.55l5.15-4.15l6-10l2-8.15l-2-10c-7.101,1.667-11.551,2.5-13.351,2.5h-6
		c-1.2,0-3.366-1.217-6.5-3.649c-2.833-2.233-4.666-3.934-5.5-5.101c-0.533-0.767,0.867-0.467,4.2,0.9
		c1.667,0.667,3.384,1.417,5.15,2.25l10.649-0.65l10-8.1c0.467-2.5,0.7-5,0.7-7.5c0-1.233,0.833-2.533,2.5-3.9
		c1.867-1.567,3.033-3.184,3.5-4.85c0.533-2.066,0.583-6.65,0.15-13.75l-0.851-10L290,75.3l-8-13.15l-0.7-5l4-5.6
		c0.601-0.833,0.601-2.45,0-4.85c-0.399-1.733-1.066-3.667-2-5.8c-0.533-1.3-2.033-2.2-4.5-2.7l-10.149-1.65
		c-0.767-0.4-1.9-0.816-3.4-1.25c-3-0.833-6.316-1.25-9.95-1.25c-5.166,0-7.916,0.017-8.25,0.05c-1.267,0.2-2.517,1.017-3.75,2.45
		c-1.1,1.3-1.983,2.934-2.649,4.9c-0.334,1-0.551,1.866-0.65,2.6h-14l-12.7,6.25c-1.767-2.1-2.649-3.767-2.649-5
		c0-0.8-1.217-1.45-3.65-1.95l-3.7-0.55c-3.1,1.233-6.2,2.267-9.3,3.1c-1.967,0.534-2.634,2.05-2,4.55c0.333,1.333,1,3.15,2,5.45
		c0.434,1.667,1.983,6.467,4.65,14.4l-0.351,2.6c-0.434,2.167-1.2,4.417-2.3,6.75c-1.434,2.967-2.967,5.55-4.6,7.75
		c-1.767,2.333-3.134,3.5-4.101,3.5c-0.7,0-0.366-1.2,1-3.6c1.8-3.133,2.8-5.267,3-6.4c0.367-2,0.15-5.417-0.649-10.25
		c-0.801-4.933-1.684-7.55-2.65-7.85c-0.6-0.2-1.717-1.217-3.35-3.05c-1.534-1.733-2.65-2.6-3.351-2.6c-1.433,0-2.7-0.15-3.8-0.45
		c-1.933-0.567-4.217-1.667-6.85-3.3c-2.566-1.6-4.117-3.267-4.65-5c-0.233-2.067-0.467-3.733-0.7-5c-0.3-1.833-0.9-2.95-1.8-3.35
		c-0.767-0.366-3.05-0.7-6.85-1c-2.467-0.233-4.75-1.533-6.85-3.9c-1.867-2.167-3.8-3.15-5.8-2.95c-2.5,0.267-5.133,0.866-7.9,1.8
		l-3.45,1.3l-3.1,2.1c-2.333,1.567-4.183,2.733-5.55,3.5c-1.2,0.667-2.067,2.284-2.6,4.85c-0.6,2.934-1.3,4.867-2.1,5.8
		c-1.066,1.233-1.5,2.684-1.3,4.35c0.433,4.133,0.65,6.217,0.65,6.25c0,2.367,1.45,5.784,4.35,10.25c1.433,2.233,2.867,4.233,4.3,6
		l3.5,3.8c2.467,2.833,3.967,4.9,4.5,6.2c0.567,1.3,0.184,4.6-1.15,9.9c-0.667,2.667-1.383,5.2-2.15,7.6l-3.1,5.25
		c-2.1,3.833-3.3,6.667-3.6,8.5c-0.2,1.467-0.45,3.383-0.75,5.75c-0.267,2.2-0.683,4.433-1.25,6.7c-0.433,1.9-0.816,3.7-1.15,5.4
		c-0.3,1.033-1.017,2.367-2.15,4c-1.133,1.566-3.8,2.55-8,2.95l-6,0.149l3.05-1c2.333-0.933,4.2-2.05,5.6-3.35
		c1.4-1.333,2.15-3.316,2.25-5.95c-0.167-3.333-0.25-5.933-0.25-7.8c0-4.733,0.45-9.1,1.35-13.1c0.3-1.466,0.217-3.45-0.25-5.95
		c-0.433-2.167-1.017-4.15-1.75-5.95c-0.567-1.3-1.85-2.833-3.85-4.6l-2.85-2.25l-1.8,2.95c-1.567,2.066-3.183,3.367-4.85,3.9
		c-1.833,0.566-3.333,1.533-4.5,2.9c-1,1.167-1.5,2.284-1.5,3.35c0,1.667-0.133,2.967-0.4,3.9c-0.533,1.733-1.517,2.733-2.95,3
		c-2.9,0.534-6.233,2.2-10,5c-1.3,1-2.633,1.417-4,1.25c-3.5-0.433-5.5-0.65-6-0.65c-2.5,0-4.583-1.033-6.25-3.1L65.3,114l1.6,1.25
		c1.233,0.833,2.267,1.25,3.1,1.25c4,0,7.767-0.617,11.3-1.85c2.133-0.767,3.2-1.817,3.2-3.15c0-2.967,0.05-4.633,0.15-5
		c0.633-2.033,1.35-3.583,2.15-4.65c0.667-0.867,1.733-1.817,3.2-2.85c1.1-0.767,1.65-3.7,1.65-8.8l-0.35-7.45
		c-0.867-2.467-2.2-5.583-4-9.35c-0.966-2.067-1.05-5.117-0.25-9.15c0.733-3.566,0.817-5.517,0.25-5.85
		c-1.333-1.233-2.617-2.167-3.85-2.8c-2.233-1.167-5.167-1.483-8.8-0.95c-3.367,0.5-5.983,0.917-7.85,1.25
		c-3.4,0.633-5.667,1.05-6.8,1.25c-3.767,0.633-7.6,2.35-11.5,5.15c-4,2.867-6.167,5.533-6.5,8c-0.367,2.667-1.2,4.884-2.5,6.65
		C38.067,78.883,36.233,80,34,80.3c-2.333,0.3-3.983,0.45-4.95,0.45c-0.933,0-2.4-0.15-4.4-0.45c-1.833-0.3-3.083-0.7-3.75-1.2
		c-0.3-0.2-1.05-1.05-2.25-2.55c-0.767-0.967-2.15-0.833-4.15,0.4c-2.8,1.667-4.533,2.566-5.2,2.7c-1,0.2-1.466,0.617-1.4,1.25
		C8.033,81.867,7.4,82.9,6,84z"/>
	<path style="fill-rule:evenodd;clip-rule:evenodd;fill:#55351E;" d="M73.3,150.85c1-1.833,1.4-3.149,1.2-3.949
		c-0.267-1.134-0.217-2.317,0.15-3.551l2.65-8.1l6,8.75l-0.3,2.55c-0.233,2-0.35,3.65-0.35,4.95c0,2.066-0.883,5.816-2.65,11.25
		l-1.7,2.5c-1.333,1.867-2.55,3.316-3.65,4.35c-0.867,0.834-1.3,2.067-1.3,3.7c0,1.101-0.45,1.533-1.35,1.3
		c-0.9-0.199-2.15-0.3-3.75-0.3c-2.167,0-4.25-0.1-6.25-0.3s-2.95-0.283-2.85-0.25c0.333,0.167-0.283,0.25-1.85,0.25
		c-1.5,0-2.966,0.217-4.4,0.65c-1.433,0.399-3.066,0.6-4.9,0.6c-2.233,0-4.9-1.35-8-4.05l-4-4.101l2.65,0.801
		c2.233,0.6,4.45,1.166,6.65,1.699c4.333,1,7.9,0.167,10.7-2.5c0.833-0.767,2.967-2.033,6.4-3.8l4.9-2.45
		C69.533,157.517,71.533,154.184,73.3,150.85z"/>
	<path style="fill-rule:evenodd;clip-rule:evenodd;fill:#55351E;" d="M108.65,176.7l-1.35-2.7h4.7l4.65-4.4
		c0.033-0.866,0.15-1.767,0.35-2.699c0.367-1.9,0.917-3.084,1.65-3.551c0.833-0.533,1.083-2.033,0.75-4.5l-0.75-3.6l1.85,1.25
		c1.333,1.033,2.267,2.066,2.8,3.1c0.9,1.667,1.567,3.967,2,6.9l-6,7.5c-0.667,0.833-1.033,1.217-1.1,1.15
		c-0.133-0.134-0.65,0.1-1.55,0.699c-0.433,0.301-1.2,0.967-2.3,2c-0.533,0.5-1.317,0.867-2.35,1.101
		C110.867,179.217,109.75,178.467,108.65,176.7z"/>
	<path style="fill-rule:evenodd;clip-rule:evenodd;fill:#55351E;" d="M202,112.15c0.833-1.3,1.2-3.05,1.1-5.25l-0.449-2.9
		l4.649,8.15l-0.1,8.05c-0.101,1.333-0.283,2.4-0.55,3.2c-0.2,0.6-0.667,1.483-1.4,2.65c-0.833,1.3-1.483,2.483-1.95,3.55
		c-0.434,1.066-0.649,1.617-0.649,1.65c0,0.167-0.217,0.867-0.65,2.1c-0.566,1.567-1.3,2.35-2.2,2.35l-1.149-0.45l-1.351,3.1
		l-4,5.65l-4.649,3.1l1.35-5.6l-6,4.35c-2,1.467-3,2.018-3,1.65c0-1.1-1-1.65-3-1.65c-2.5,0-5.467-0.833-8.9-2.5l-4.45-2.5
		L178,141.5l6.65-3.75c1.333-2.5,2.883-4.8,4.649-6.9c1.134-1.3,3.033-2,5.7-2.1c1.333-0.033,2.55,0.05,3.65,0.25l2-8.75
		c-0.134-0.8-0.184-1.733-0.15-2.8C200.6,115.316,201.1,113.55,202,112.15z"/>
	<path style="fill-rule:evenodd;clip-rule:evenodd;fill:#55351E;" d="M269.3,60.3l1.601,3.1c1,2.3,1.366,3.967,1.1,5
		c-0.467,1.667-0.467,3.75,0,6.25l1.35,1.8c1.101,1.566,2.2,3.267,3.301,5.1c1.033,1.7,1.25,2.833,0.649,3.4
		c-1.866,1.767-2.967,2.917-3.3,3.45c-1.066,1.733-2.15,2.883-3.25,3.45c-4.066,2-6.316,3.133-6.75,3.4c-2.833,1.7-3.9,2.8-3.2,3.3
		c0.233,0.167,0.667,0.417,1.3,0.75c0.5,0.4,0.684,0.934,0.551,1.6c-0.267,1.3-0.9,1.9-1.9,1.8l-1.45-0.55l-6-0.65l-8,1.25
		l-8.649-4.35L234,94l18,2.5l4.65-1.85c-0.233-0.733-0.367-1.517-0.4-2.35c-0.133-1.667,0.217-2.767,1.05-3.3
		c0.834-0.533,2.084-1.1,3.75-1.7c0.834-0.333,1.584-0.6,2.25-0.8v-6.2c-2.5,2.067-5.916,1.95-10.25-0.35l-5.75-4.05l9.351,0.65
		c3.1-1.267,5.316-2.517,6.649-3.75C264.634,71.533,266.634,67.367,269.3,60.3z"/>
	<path style="fill-rule:evenodd;clip-rule:evenodd;fill:#55351E;" d="M307.3,228.95l2-8.101l-0.649-5L297.3,217.1l-8.649-4.399
		l10,0.649l8-3.149l8.649-5.601c0.9-4.6,2.233-9.183,4-13.75l8.7,13.75l-1.6,2.101c-1.667,1.767-4.033,3.566-7.101,5.399
		c-2.833,1.7-3.916,3.101-3.25,4.2c0.2,0.3,0.567,0.767,1.101,1.4c0.366,0.6,0.416,1.233,0.149,1.899
		c-0.866,2.067-1.533,4.351-2,6.851L307.3,228.95z"/>
	<path style="fill-rule:evenodd;clip-rule:evenodd;fill:#55351E;" d="M337.3,152.75c1.134-0.533,2.584-2.667,4.351-6.4l2.35-5.5
		l0.65,6.25l-0.65,8.75l-3.35,6.25c-1.767,1.268-3.317,2.101-4.65,2.5c-0.8,0.268-1.95,0.351-3.45,0.25
		c-2.5-0.166-3.8-0.25-3.899-0.25c-1.101,0-1.983-0.616-2.65-1.85l-0.7-1.9l6.7-0.6c0.3-0.967,0.733-2,1.3-3.1
		C334.467,154.917,335.8,153.45,337.3,152.75z"/>
	<path style="fill-rule:evenodd;clip-rule:evenodd;fill:#55351E;" d="M192.05,184.25c3.667-2.5,5.65-4.267,5.95-5.3
		c0.267-1.033,1.017-1.434,2.25-1.2c0.6,0.1,1.184,0.3,1.75,0.6v8.101c0,1.933-0.566,3.083-1.7,3.45c-2,0.6-3.217,1.116-3.649,1.55
		c-1.101,1.033-1.867,3.433-2.301,7.2c-0.233,1.866-0.35,3.633-0.35,5.3l-11.35,6.899l-2,4.351l-4-2.5L172,210.85
		c-2-0.8-3.617-1.25-4.85-1.35c-1.433,0.066-2.717,0.1-3.85,0.1c-1.167,0-2.8,0.518-4.9,1.551s-3.566,1.55-4.4,1.55
		c-1.133,0-3.367-0.833-6.7-2.5l-4.65-2.5H148c1.567,0,2.7-0.05,3.4-0.15c1.1-0.167,2.4-0.533,3.9-1.1
		c1.367-0.5,2.983-1.434,4.85-2.8c1.9-1.434,3.184-2.367,3.85-2.801c0.833-0.533,1.75-0.683,2.75-0.449
		c0.5,0.1,0.917,0.25,1.25,0.449l8-0.649c1.767-1.667,3.55-3.434,5.35-5.3c3.534-3.768,5.3-6.167,5.3-7.2
		C188.417,186.667,190.217,185.517,192.05,184.25z"/>
	<path style="fill-rule:evenodd;clip-rule:evenodd;fill:#55351E;" d="M236,206.45c1.667-1.033,3.5-3.95,5.5-8.75l2.5-6.851
		l2.65,9.351l-1.101,3.899c-0.767,2.934-1.283,5.184-1.55,6.75c-0.3,1.567-1.283,3.084-2.95,4.551
		c-0.833,0.732-1.633,1.3-2.399,1.699l-1.9,5.301c-1.467,3.967-2.616,6.982-3.45,9.05c-0.666,1.667-1,2.267-1,1.8
		c0-1.4-0.333-2.217-1-2.45c-0.8-0.233-2.166-1.583-4.1-4.05c-2.134-2.9-3.65-4.867-4.55-5.9c-1.101-1.3-2.767-2.533-5-3.699
		l-3-1.301l2.85,0.301c2.2,0.199,4.134,0.3,5.8,0.3c1.4,0,2.55-0.5,3.45-1.5c1.167-1.333,2.467-2.283,3.9-2.851
		c1.933-0.8,3.399-1.982,4.399-3.55L236,206.45z"/>
	<path style="fill-rule:evenodd;clip-rule:evenodd;fill:#55351E;" d="M106,185.2c0.667,1.066,1.583,2.116,2.75,3.149
		c0.833,1.033,1.25,2.7,1.25,5c0,1.867,0.1,4.283,0.3,7.25c0,2.334-0.55,4.283-1.65,5.851c-0.6,0.866-0.767,2.566-0.5,5.1
		c0.2,1.733-0.967,2.95-3.5,3.65c-2.767,0.8-5.15,1.866-7.15,3.2c-1,0.699-1.733,1.3-2.2,1.8l-0.65,10.6l-2,10l-4-4.35l-9.35-8.15
		l-0.9,0.851c-0.767,0.533-1.566,0.666-2.4,0.399c-0.667-0.2-0.5-0.366,0.5-0.5c0.333-0.066-0.5-0.1-2.5-0.1h-6l-4.7-4.4
		L52.65,212.1c1.667,1.301,5.167,2.733,10.5,4.301c2.667,0.767,5.167,1.416,7.5,1.949c0-0.833,0.283-1.717,0.85-2.649
		c1.1-1.867,3.033-3.067,5.8-3.601c4.467-0.833,7.583-1.25,9.35-1.25l6.65-0.649c1.467-0.634,3-1.65,4.6-3.05
		c3.233-2.801,5.267-6.15,6.1-10.051c0.667-3.133,1-6.683,1-10.649c0-1.2,0.05-1.867,0.15-2
		C105.25,184.217,105.533,184.467,106,185.2z"/>
	<path style="fill-rule:evenodd;clip-rule:evenodd;fill:#55351E;" d="M146,243.95c-4.167-0.267-5.967-0.867-5.4-1.8l2.05-1.351
		l20.65-1.85l8-6.25c0.833-0.8,2.417-2.184,4.75-4.15l3.25-2.75l1,2.45c0.667,1.767,1,3.033,1,3.8c0,1.267-0.883,3.15-2.65,5.65
		l-1.4,3.05c-1.233,2.167-2.55,3.65-3.95,4.45c-1.267,0.733-2.483,0.933-3.65,0.6c-2.7-0.7-4.583-1.116-5.65-1.25
		c-2-0.2-2.967-0.267-2.9-0.2c0.167,0.134-0.65,0.2-2.45,0.2c-2.233,0-3.767-0.017-4.6-0.05
		C152.017,244.333,149.333,244.15,146,243.95z"/>
	<path style="fill-rule:evenodd;clip-rule:evenodd;fill:#482D1D;" d="M27.9,60.65l-0.3-0.45L26,63.15
		c-1.233,2.1-2.183,3.483-2.85,4.15l-1.7,1.65c-0.067-1.634-0.267-2.65-0.6-3.05l-0.5-0.6c0,0.033-0.083,0.45-0.25,1.25
		c-0.5,0.934-1.6,1.783-3.3,2.55l-4.05,1.95l6.75-0.1l-2.1,1.4c-1.733,0.966-3.417,1.566-5.05,1.8c-1.5,0.2-2.934,0.333-4.3,0.4
		l-0.7-0.15L6.8,76c-0.633,1.867-1.417,3.9-2.35,6.1l-1.2-2.7c-0.5-1.133-1.033-2.8-1.6-5l-0.7-3c0.367-0.133,1.417-0.9,3.15-2.3
		c2.6-2.3,4.833-4.267,6.7-5.9c3.567-3.134,6.184-5.217,7.85-6.25C20.883,54.983,27.4,50.667,38.2,44
		c11.6-7.167,19.017-11.25,22.25-12.25c13.167-5.5,25.767-9.917,37.8-13.25c23.5-6.867,36.85-10.533,40.05-11
		c4.934-1.2,11.2-2.117,18.8-2.75c8.3-0.7,14.7-0.717,19.2-0.05l6-0.95c9.267-1.333,13.934-1.95,14-1.85
		c0.233,0,2.101,0.467,5.601,1.4c1.767,0.467,3.566,0.934,5.399,1.4c1.767,0.066,8,0.95,18.7,2.65
		c11.467,1.833,17.9,2.816,19.3,2.95c2.667-0.366,11.384,2.017,26.15,7.15c13.533,4.7,22.283,8.083,26.25,10.15
		c2.833,0.267,12.1,5.15,27.8,14.65c15.5,9.367,23.117,14.434,22.85,15.2c1.567,1.333,3.684,3.483,6.351,6.45
		c0.434,0.4-0.134,0.433-1.7,0.1c-1.566-0.4-2.133-0.383-1.7,0.05c0.8,0.533,2.184,0.833,4.15,0.9c0.899,0.033,1.417,0.033,1.55,0
		c-0.033,0.033-0.333,1.216-0.9,3.55c-0.566,2.233-1.05,3.517-1.449,3.85c-1.834,1.333-4.384,2.683-7.65,4.05l0.75-0.5
		c0.667-0.4,1.8-1.3,3.4-2.7c1.699-1.5,2.05-2.017,1.05-1.55c-1.566,0.667-4.05,1.2-7.45,1.6l1.8-1.2
		c0.7-0.467,1.567-1.517,2.601-3.15c-0.434-0.2-1.267-0.767-2.5-1.7c-1.2-0.867-2.134-1.583-2.801-2.15l-0.649-0.6l-0.4,1.7
		c-0.233,1.233-0.3,2-0.2,2.3c0.167,0.566-0.433,0.15-1.8-1.25c-1.366-1.434-2.366-2.95-3-4.55c-0.633-1.533-0.933-2.933-0.899-4.2
		l0.25-1.5c-0.567,0.167-1.184,0.383-1.851,0.65c-1.333,0.5-2.217,0.95-2.649,1.35l-1.101,0.95c-0.233-0.267-0.45-0.6-0.649-1
		c-0.367-0.833-0.384-1.6-0.051-2.3l1.2-2.15c-1.033,0.333-2.149,0.65-3.35,0.95c-2.4,0.633-4.05,0.867-4.95,0.7l-2.1-0.4
		c2.033-0.567,3.333-1.217,3.899-1.95l1.7-2.2c-1.8,1.167-3.45,1.65-4.95,1.45l-2.25-0.25c1.233-0.967,1.917-1.767,2.05-2.4l0.2-1
		c-2.767,0.033-4.733,0.25-5.899,0.65l-2.95,1.15c0.566-1.567,1.25-2.783,2.05-3.65c0.467-0.533,0.934-0.95,1.4-1.25l0.5-0.3
		c-1.134-0.2-2.851-0.184-5.15,0.05c-1.434,0.167-2.583,0.233-3.45,0.2l-0.85-0.1l2-1.75c-0.4-0.2-0.867-0.35-1.4-0.45
		c-1.1-0.233-1.983-0.167-2.649,0.2c-1.067,0.6-2.067,0.95-3,1.05c0.133-1,0.616-2.033,1.449-3.1c0.534-0.667,1.051-1.2,1.551-1.6
		l0.55-0.4c-3.9,0.6-6.75,0.867-8.55,0.8l-2.7-0.15l3.8-2.95c-2-0.066-3.434-0.367-4.3-0.9c-0.8-0.8-1.601-1.7-2.4-2.7
		c-0.5,1.1-0.933,1.917-1.3,2.45c-1.4,2.633-2.25,2.933-2.55,0.9c-0.434-2.967-0.767-4.483-1-4.55
		c-0.601-0.233-1.316-0.583-2.15-1.05l-1.05-0.65l1.3,4.15c-1.899-1.367-3.333-2.533-4.3-3.5c-0.566-0.6-1.1-1.233-1.6-1.9
		l-0.601-0.85l-0.35,2.45c-0.167,1.733-0.15,2.883,0.05,3.45l0.55,1.4c-0.8-0.733-1.649-1.583-2.55-2.55
		c-1.767-1.867-2.8-3.317-3.1-4.35c-0.301-1.033-0.634-2.05-1-3.05l-0.45-1.15l-0.8,1.85c-0.567,1.366-0.95,2.417-1.15,3.15
		l-0.55,2.4c-1.5-1.267-2.65-2.767-3.45-4.5c-0.5-1.066-0.833-2.066-1-3l-0.1-1.1l-1.25,1.65c-1.067,1.167-2.15,1.934-3.25,2.3
		L258.05,29c0.233-1.2,0.351-2.217,0.351-3.05c0.033-0.5-0.051-1.117-0.25-1.85l-0.301-1c-1.3,1.2-2.816,2.066-4.55,2.6
		c-1.066,0.333-2.35,0.517-3.85,0.55l-1.95-0.05c1.634-1,2.667-1.917,3.1-2.75c0.267-0.534,0.483-1.034,0.65-1.5l0.15-0.55
		c-4.101,1.333-6.95,2-8.551,2H240.4c1.199-1.167,1.833-2,1.899-2.5l0.101-0.75c-0.167,0.3-0.534,0.534-1.101,0.7
		c-1.066,0.333-2.5,0.2-4.3-0.4l0.25-1.55c-0.833,0.167-1.583,0.233-2.25,0.2l-2.05-0.1c-1.066,1-1.684,1.883-1.851,2.65l-0.449,2.1
		c-1.567-1.733-2.284-3.25-2.15-4.55v-0.05l-3.05,1.2L225.7,19l-4.101,1.25c1.034-1.367,1.684-2.4,1.95-3.1l-7.2,2
		c0.867-1.067,1.4-2.033,1.601-2.9l-0.8-0.75l-0.051-0.15c-1.633,0.767-3.3,1.2-5,1.3l-3.1,0.1l1.5-1.5
		c-0.3,0.133-1.467,0.1-3.5-0.1l-4.35-0.55l0.649,1.65c0.5,1.133,0.867,1.8,1.101,2c0.466,0.4-0.25,0.35-2.15-0.15
		c-1.934-0.467-3.616-1.217-5.05-2.25c-1.367-0.967-2.417-2.017-3.15-3.15l-0.649-1.35l-1.15,1.45c-0.8,1.1-1.267,1.934-1.4,2.5
		l-0.3,1.35c-0.366-0.1-0.733-0.267-1.1-0.5c-0.767-0.5-1.217-1.133-1.351-1.9l-0.3-2.45c-2.566,3.233-4.5,5.1-5.8,5.6l-1.95,0.7
		c1.333-1.5,2.033-2.7,2.101-3.6l0.1-2.7c-0.833,1.9-1.9,3.134-3.2,3.7l-2,0.9c0.467-1.4,0.567-2.417,0.3-3.05l-0.45-0.9l-1.8,1.25
		c-1.3,0.933-2.184,1.683-2.65,2.25c-0.733,0.9-1.317,1.716-1.75,2.45c-0.434-1.633-0.567-3-0.4-4.1c0.1-0.7,0.233-1.3,0.4-1.8
		l0.25-0.5l-1.1,0.6c-0.967,0.533-2,1.216-3.1,2.05c-1.733,1.367-2.883,2.117-3.45,2.25l0.6-2.45c-0.433,0.033-0.9,0.133-1.4,0.3
		c-1,0.367-1.683,0.867-2.05,1.5c-0.534,1.033-1.15,1.816-1.85,2.35c-0.467-0.9-0.667-2-0.6-3.3c0.067-0.833,0.183-1.533,0.35-2.1
		l0.2-0.65c-2.833,2.467-5.017,4.1-6.55,4.9l-2.3,1.25l1.45-4.35c-1.7,0.933-3.066,1.4-4.1,1.4c-0.633-0.033-1.433-0.117-2.4-0.25
		l-1.2-0.2c0.633,0.733,1.55,1.867,2.75,3.4l-6.45-2.9l-0.4,1.7c-0.4,1.2-0.95,2.066-1.65,2.6l-1.7,1.3
		c0.067-1.466-0.117-2.45-0.55-2.95l-0.65-0.8l-1.4,1.6c-1,1.167-1.65,2.083-1.95,2.75c-0.434,1.033-0.767,1.95-1,2.75
		c-0.867-1.467-1.383-2.75-1.55-3.85c-0.1-0.7-0.133-1.3-0.1-1.8l0.1-0.55l-0.9,0.8c-0.767,0.733-1.55,1.633-2.35,2.7
		c-1.3,1.7-2.217,2.667-2.75,2.9l-0.1-2.5l-1.25,0.65c-0.9,0.533-1.417,1.15-1.55,1.85c-0.267,1.133-0.65,2.033-1.15,2.7
		c-0.7-0.733-1.2-1.75-1.5-3.05c-0.167-0.8-0.25-1.517-0.25-2.15l0.05-0.65l-1.8,2.5c-1.333,1.8-2.383,3.05-3.15,3.75l-1.9,1.7
		l0.2-4.5c-1.367,1.267-2.55,2-3.55,2.2c-0.633,0.133-1.417,0.25-2.35,0.35l-1.2,0.05l3.55,2.65c-2.3-0.066-4.133-0.25-5.5-0.55
		c-0.833-0.167-1.65-0.384-2.45-0.65l-1-0.4c0.033,0,0.45,0.717,1.25,2.15c0.933,1.533,1.65,2.467,2.15,2.8
		c0.867,0.566,1.283,0.85,1.25,0.85c-4.333-0.6-7.2-1.45-8.6-2.55c-0.9-0.7-1.8-1.35-2.7-1.95l-1.1-0.7l0.5,1.95
		c0.433,1.433,0.8,2.5,1.1,3.2l1,2.2c-1.967-0.2-3.8-0.784-5.5-1.75c-1.067-0.6-1.95-1.233-2.65-1.9l-0.75-0.85l0.05,2
		c-0.133,1.5-0.517,2.7-1.15,3.6L81.3,40.1c-0.566-1.1-1.1-1.983-1.6-2.65c-0.3-0.4-0.75-0.867-1.35-1.4L77.5,35.4l-0.4,1.55
		c-0.4,1.167-0.934,2.183-1.6,3.05c-1.033,1.367-2.483,2.55-4.35,3.55c0.7-1.7,0.967-3.017,0.8-3.95
		c-0.133-0.567-0.284-1.083-0.45-1.55l-0.2-0.5l-2.1,2.6c-1.534,1.867-2.7,3.083-3.5,3.65l-1.95,1.3
		c0.233-1.6,0.217-2.617-0.05-3.05l-0.2-0.35l-0.85,1.55c-1.133,2.233-1.85,3.35-2.15,3.35L60,44.25l-0.45,0.15
		c-1.233,0.867-1.867,1.767-1.9,2.7c-0.033,1.133-0.25,2.083-0.65,2.85c-0.8-0.634-1.467-1.567-2-2.8c-0.3-0.733-0.517-1.4-0.65-2
		l-0.1-0.7l-1.2,2.6l0.5,0.45l-0.7-0.1l-0.1,0.25c1.933,2.3,3.267,3.633,4,4l1.4,0.65c-3.233,0.033-5.816-0.183-7.75-0.65l-1.4,1.8
		l-0.4-2.55l-1.35-0.7l-0.75,0.75l-0.4-1.3l-1.15-0.5c-0.034,0,0.233,0.6,0.8,1.8c0.633,1.333,1.183,2.333,1.65,3L48.8,56
		c-1.966,0.1-3.883-0.184-5.75-0.85c-1.167-0.433-2.167-0.917-3-1.45c-0.447-0.299-0.722-0.499-0.825-0.6l0.375,1.85
		c0.133,1.533-0.033,2.783-0.5,3.75l-1.15,2.4c-0.733-1-1.417-1.8-2.05-2.4c-0.367-0.367-0.9-0.733-1.6-1.1l-0.95-0.5l-0.1,1.55
		c-0.2,1.233-0.55,2.317-1.05,3.25c-0.8,1.534-2.034,2.95-3.7,4.25c0.4-1.767,0.417-3.1,0.05-4
		C28.35,61.583,28.133,61.083,27.9,60.65z"/>
	<path style="fill-rule:evenodd;clip-rule:evenodd;fill:#482D1D;" d="M27.6,58.3c1.4-1.433,2.833-2.8,4.3-4.1
		c2.9-2.567,4.483-3.45,4.75-2.65c0.434,1.233,0.184,3-0.75,5.3c-1.267,11.033-2.133,16.133-2.6,15.3
		c-1.233-2.367-2.767-3.333-4.6-2.9c-0.867,0.267-1.45,0.417-1.75,0.45c-0.5,0.1-0.817-0.117-0.95-0.65
		c-0.3-1.033-1.25-2.183-2.85-3.45l-2.3-1.55L27.6,58.3z"/>
	<path style="fill-rule:evenodd;clip-rule:evenodd;fill:#482D1D;" d="M108.65,39.05l1.35,5.6l-1.65,4
		c-1.133,3.034-1.7,5.45-1.7,7.25c0,1.467-0.117,4.15-0.35,8.05c0,3.5,0.567,6.033,1.7,7.6c0.9,1.267,1.533,2.434,1.9,3.5
		c0.367,0.634,1.5,1.333,3.4,2.1c1.967,0.8,3.55,1.767,4.75,2.9c0.633,0.6,1.05,1.1,1.25,1.5l2.7,8.1c-1-0.733-2.2-1.466-3.6-2.2
		c-2.767-1.467-5.133-2.2-7.1-2.2c-1.933,0-3.517,0.633-4.75,1.9c-0.6,0.6-1.017,1.217-1.25,1.85l-2,6.9l-4.65,3.75l-5.35,1.85
		c0.333-1.133,0.784-2.4,1.35-3.8c1.1-2.833,2.217-4.9,3.35-6.2c1.1-1.3,2.1-3.767,3-7.4l1-5.05c-0.433-1.167-1.083-2.683-1.95-4.55
		c-0.7-1.533-1.167-2.733-1.4-3.6c-0.233-0.966-0.066-1.9,0.5-2.8c0.867-1.3,1.367-2.233,1.5-2.8c0.333-1.267,0.633-2.8,0.9-4.6
		c0.3-1.867,0.45-3.25,0.45-4.15c0-0.8-0.217-1.767-0.65-2.9l-0.7-1.5l2-3.1L99.3,42.8c-4-1.667-7.1-2.717-9.3-3.15
		c-1.4-0.233-3.9-1.017-7.5-2.35l-5-1.9l-4.2-4.45c29.8-10.833,43.583-15.833,41.35-15c-1.4,0.533-3.25,2.7-5.55,6.5
		c-1.167,1.9-2.184,3.75-3.05,5.55l-3.4,6.7L108.65,39.05z"/>
	<path style="fill-rule:evenodd;clip-rule:evenodd;fill:#482D1D;" d="M130.65,93.4c0.267-1.3,1.117-2.533,2.55-3.7l2.1-1.3
		l-0.25,4.5c-0.333,3.333-0.917,5.784-1.75,7.35c-0.733,1.367-1.15,2.967-1.25,4.8c-0.133,2.233-0.383,3.967-0.75,5.2
		c-0.867,2.934-1.75,6.066-2.65,9.4c-0.4,1.3-0.65,3.317-0.75,6.05c-0.1,3.033-0.517,6-1.25,8.899c-0.833,3.4-3.417,5.884-7.75,7.45
		l-6.25,1.3c4-2.066,6.883-3.732,8.65-5c1.133-0.767,1.583-3.383,1.35-7.85L122,124v-8.1l2-5c0.867-2.5,1.3-5.216,1.3-8.15l0.7-6.85
		l2.1-0.1C129.533,95.5,130.383,94.7,130.65,93.4z"/>
	<path style="fill-rule:evenodd;clip-rule:evenodd;fill:#482D1D;" d="M82,145.85c-0.4-0.699,0.283-0.133,2.05,1.7
		c1.633,1.733,2.75,3.384,3.35,4.95c1.489,3.919-0.669,6.219-6.475,6.9C81.642,156.701,82,154.901,82,154
		c0.1-1.767,0.183-3.2,0.25-4.3C82.35,147.633,82.267,146.35,82,145.85z M75.3,159.6c2.154,0.058,4.029-0.009,5.625-0.199
		c-0.258,0.995-0.566,2.112-0.925,3.35l-1.7,2c-1.333,1.667-2.55,3.283-3.65,4.85c-1.233,1.733-2.017,2.7-2.35,2.9
		c-1.1,0.367-2.533,0.867-4.3,1.5c-2.233,0.767-5.9,0.783-11,0.05l-5.25-0.975L57.3,174H62l6.65-8.15l2-0.6
		c0.434-0.133,0.934-1.167,1.5-3.1C72.65,160.417,73.7,159.566,75.3,159.6z"/>
	<path style="fill-rule:evenodd;clip-rule:evenodd;fill:#482D1D;" d="M108.65,206.45l-0.5,2.45c-0.433,1.767-0.933,3.033-1.5,3.8
		c-0.9,1.267-2.9,2.316-6,3.149L95.3,220.2l-2,5l-2.65,4.35l-1.35-2.5c-0.566-1.066-1.283-1.267-2.15-0.6
		c-0.533,0.399-1.583,1.433-3.15,3.1c-0.9,0.833-1.433,1.101-1.6,0.8c-0.5-0.933-1.533-1.616-3.1-2.05c-1.9-0.5-3.7-0.633-5.4-0.399
		c-2.167,0.5-4.133,0.85-5.9,1.05c-2.233,0.267-3.017-0.483-2.35-2.25l1.65-2.75L80,223.35l1.3-5c-0.433-0.199-0.933-0.533-1.5-1
		c-1.1-0.967-1.933-2.1-2.5-3.399l6.7-1.25l10,3.149l7.3-2.5C102.633,212.917,105.083,210.617,108.65,206.45z"/>
	<path style="fill-rule:evenodd;clip-rule:evenodd;fill:#482D1D;" d="M192.65,192.7l-1.351,3.75c-0.434,1.267-0.616,1.917-0.55,1.95
		c0.167,0.166,0.134,0.982-0.1,2.449c-0.2,1.467-0.5,2.268-0.9,2.4c-1.167,0.5-2.65,1.783-4.45,3.85c-1.767,2.101-2.6,2.9-2.5,2.4
		c0.334-1.4-0.166-2-1.5-1.8c-1.8,0.3-2.9,0.25-3.3-0.15c-0.067-0.033-0.517-1.017-1.35-2.95c-0.433-1.033-0.467-1.449-0.1-1.25
		c1.2,0.634,2.35,0.834,3.45,0.601c1.633-0.3,3.05-1.2,4.25-2.7c1.167-1.533,1.083-2.3-0.25-2.3c-0.566,0,0.7-1.033,3.8-3.101
		L192.65,192.7z"/>
	<path style="fill-rule:evenodd;clip-rule:evenodd;fill:#482D1D;" d="M297.2,34.65l-5.9-6.2l3.5,0.45c2.9,0.4,5.733,0.867,8.5,1.4
		c2.8,0.533,6.417,2.25,10.851,5.15c2.233,1.466,4.183,2.866,5.85,4.2l10.85,15.1l3.801,2.6c2.467,2.033,3.517,3.8,3.149,5.3
		c-0.6,2.433-1.433,5.183-2.5,8.25l-5.3,9.4l-0.7-8.15l-3.3-8.1l-8-1.25c-3.2-0.5-4.7-0.167-4.5,1c0.033,0.333,0.217,0.9,0.55,1.7
		c0.233,0.733,0.217,1.283-0.05,1.65c-0.566,0.8,0.033,2.6,1.8,5.4c0.9,1.434,1.851,2.767,2.851,4l0.35,3.5
		c0.2,3.233,0.3,7.05,0.3,11.45c0,4.434-0.883,6.7-2.649,6.8c-0.567,0.033-1.167-0.15-1.801-0.55l-0.85-0.6l-1.45,3.05
		c-1,2.4-1.633,4.5-1.899,6.3c-0.267,1.833-1.233,3.533-2.9,5.1c-0.833,0.8-1.65,1.4-2.45,1.8c0.9-5.433,1.351-9.4,1.351-11.9
		c0-1.566,0.467-3.566,1.399-6c1.067-2.434,1.717-3.967,1.95-4.6c0.267-0.8-0.316-2.917-1.75-6.35l-2.25-4.9
		c-0.3-1.367-0.566-2.85-0.8-4.45c-0.434-3.134-0.4-5.184,0.1-6.15c0.2-0.333-0.533-2.333-2.2-6c-1.666-3.667-2.267-5.833-1.8-6.5
		c0.601-0.833,1-2.25,1.2-4.25c0.1-0.833,0.233-3.217,0.4-7.15C303,42.75,301.1,39.25,297.2,34.65z"/>
	<path style="fill-rule:evenodd;clip-rule:evenodd;fill:#482D1D;" d="M225.6,14c3.5,1.934,7.384,2.934,11.65,3
		c5.2,0.1,8.25,0.267,9.15,0.5c1.267,0.3,1.133,1.033-0.4,2.2c-2.233,1.667-6.017,4.366-11.35,8.1l-4,3.75
		c-4.233,1.033-8.351,2.083-12.351,3.15c-2.879,0.744-5.171,1.352-6.875,1.825c0.694-0.429,1.436-0.971,2.226-1.625
		c2.433-2,3.649-3.733,3.649-5.2c0-1.3-0.666-2.733-2-4.3l-4.649-5.1l-5.351,3.75l-12-1.25l-2.649-0.6L188,27.8l2.975,5.1
		c-0.113-0.144-0.255-0.294-0.425-0.45c-0.767-0.733-1.85-1.233-3.25-1.5c-1.7-0.333-3.366,0.2-5,1.6c-1.633,1.467-1.966,2.8-1,4
		c0.834,1.033,1.533,3.317,2.101,6.85c0.3,1.767,0.5,3.433,0.6,5c-0.333-1.466-0.8-2.95-1.4-4.45c-1.233-3-2.55-4.634-3.95-4.9
		l-6-6.85c0.9-4.167,1.35-7.083,1.35-8.75c0-1.534-0.117-2.617-0.35-3.25c-0.433-1.067-1.417-2.3-2.95-3.7
		c-1.4-1.267-4.6-2.883-9.6-4.85l-7.1-2.6l11.35-1.3c8.433-0.934,14.867-1.533,19.3-1.8C195.017,5.316,201.4,5,203.8,5
		c7.767,0,12.5,0.934,14.2,2.8C220.434,10.467,222.967,12.533,225.6,14z M208,37.8c-0.726,0,0.416-0.425,3.425-1.275
		C210.09,37.375,208.948,37.8,208,37.8z"/>
	<path style="fill-rule:evenodd;clip-rule:evenodd;fill:#6D4126;" d="M47.3,136.5c0.567-0.8,2.85-1.767,6.85-2.9
		c2-0.567,3.95-1.067,5.85-1.5l8-1.85l7.3,1.85l-8.65,4.4L64,139.6l-4.7-1.25c-0.767,0-1.566,0.101-2.4,0.301
		c-1.667,0.433-2.633,1.166-2.9,2.199c-0.3,1.033-0.967,2.134-2,3.301c-0.667,0.732-2,2.133-4,4.199
		c-1.4,1.567-3.15,2.983-5.25,4.25c-1.067,0.634-1.983,1.101-2.75,1.4c1.333-4.167,2.667-7.083,4-8.75
		c0.733-0.9,1.367-2.434,1.9-4.6C46.467,138.417,46.933,137.033,47.3,136.5z"/>
	<path style="fill-rule:evenodd;clip-rule:evenodd;fill:#6D4126;" d="M74,98.4l6,3.1l-3.35,0.65l-1.9,2.25
		c-1.667,1.767-3.483,3.3-5.45,4.6c-1.533,1.066-2.2,1.467-2,1.2c0.667-0.8,0.667-1.2,0-1.2c-0.833,0-0.966-1.033-0.4-3.1l1.1-3.15
		C70.667,101.083,72.667,99.633,74,98.4z"/>
	<path style="fill-rule:evenodd;clip-rule:evenodd;fill:#6D4126;" d="M70.65,83.4c0.567-1.033,2.067-2.9,4.5-5.6l3.5-3.75v2.5
		c0,1.667-0.217,3.333-0.65,5v5.6c0,1.3-1.45,1.784-4.35,1.45l-4.35-0.85L70.65,83.4z"/>
	<path style="fill-rule:evenodd;clip-rule:evenodd;fill:#6D4126;" d="M192.65,103.4l7.675,0.45c-1.404,0.06-2.846,0.326-4.325,0.8
		c-1.434,0.467-2.9,1.667-4.4,3.6c-1.399,1.767-2.383,2.65-2.949,2.65c-0.9,0-1.667,0.15-2.301,0.45c-0.267,0.133-1.05,0.6-2.35,1.4
		c-0.566,0.367-1.15,1-1.75,1.9c-0.533,0.767-1.283,1.383-2.25,1.85c-1.1,0.5-1.55,1.467-1.35,2.9c0.1,0.8,0.317,1.917,0.65,3.35
		c0,0.8,1,1.767,3,2.9c1,0.6,2,1.1,3,1.5c-1.333,0-2.833,0.05-4.5,0.15c-3.333,0.2-5.833,0.567-7.5,1.1
		c-1.367,0.433-3.55,1.633-6.55,3.6c-2.033,1.3-2.733,1.55-2.1,0.75l8-10.6c0-2.5,0.45-4.383,1.35-5.65
		c0.533-0.767,1.583-1.934,3.15-3.5l2.15-2.1l4.7-6.25l3.6-0.6C190.134,103.617,191.816,103.4,192.65,103.4z"/>
	<path style="fill-rule:evenodd;clip-rule:evenodd;fill:#6D4126;" d="M180,70.3l2.75,0.25c1.667,0.3,2.083,0.833,1.25,1.6
		c-0.833,0.8-1.2,1.567-1.1,2.3c0.066,0.366,0.199,0.65,0.399,0.85l-2,8.1l-4-0.6l0.7-7.5L180,70.3z"/>
	<path style="fill-rule:evenodd;clip-rule:evenodd;fill:#6D4126;" d="M106,162.1c-0.067,0.167-0.483,2.101-1.25,5.801
		c-0.533,2.467-1.45,3.449-2.75,2.949c-1.4-0.533-2.267-2.35-2.6-5.449l-0.1-4.551l3.35-5l6.65-1.85l6.7-0.65l-1,2.2
		c-0.9,1.467-1.9,2.2-3,2.2C109.5,157.75,107.5,159.2,106,162.1z"/>
	<path style="fill-rule:evenodd;clip-rule:evenodd;fill:#6D4126;" d="M93.3,183.35c3.1,0,5.383,0.134,6.85,0.4
		c1.5,0.267,1.45,0.55-0.15,0.85c-0.967,0.167-2.033,1.184-3.2,3.051c-1.066,1.699-2.45,2.55-4.15,2.55c-1.867,0-3.583,0.6-5.15,1.8
		c-0.9,0.7-2.3,1.767-4.2,3.2c-1.367,0.8-2.55,1.767-3.55,2.899c-0.5,0.601-0.867,1.101-1.1,1.5l-4-2.5
		c-1.667-1.033-3.35-0.982-5.05,0.15c-0.967,0.633-2.167,1.617-3.6,2.95c-0.833,0.533-1.967,2.05-3.4,4.55
		c-0.733,1.267-1.383,2.467-1.95,3.6l-1.35-7.5c0.9-3.767,1.567-6.267,2-7.5c0.267-0.732,1.517-1.232,3.75-1.5
		c3.3-0.399,5.383-0.732,6.25-1c1.667-0.533,3.067-1.217,4.2-2.05l1.15-1.1L82,184.6l4.4-0.6
		C89.633,183.566,91.933,183.35,93.3,183.35z"/>
	<path style="fill-rule:evenodd;clip-rule:evenodd;fill:#6D4126;" d="M147.15,231.65c-1.433,1-2.717,1.967-3.85,2.899
		c2.667-4.167,4.667-6.866,6-8.1c0.6-0.601,1.517-1.15,2.75-1.65c1.233-0.5,2.317-1.2,3.25-2.1c1.133-1.033,3.917-1.55,8.35-1.55
		c2.233,0,4.35,0.1,6.35,0.3l9.3,4.35c-0.667-0.2-1.417-0.383-2.25-0.55c-1.667-0.3-2.917-0.316-3.75-0.05
		c-0.767,0.233-1.95,0.316-3.55,0.25c-2.833-0.167-4.533-0.25-5.1-0.25c-1.667,0-2.383,0.733-2.15,2.2
		c0.1,0.699,0.367,1.416,0.8,2.149l-5.3-1.85l-4,0.6C152.333,228.566,150.05,229.684,147.15,231.65z"/>
	<path style="fill-rule:evenodd;clip-rule:evenodd;fill:#6D4126;" d="M156.65,186.45c1.1-1.033,3.2-2.483,6.3-4.351l4.35-2.5
		l22-6.85c7.134,1.667,9.8,2.5,8,2.5c-1.1,0-2.767,0.617-5,1.85c-1.1,0.634-2.1,1.25-3,1.851c-1.767,0.833-4.2,1.883-7.3,3.149
		c-1.667,0.667-2.5,1.417-2.5,2.25c0,0.567-0.5,0.851-1.5,0.851c-1.1,0-1.817-0.017-2.15-0.05c-1-0.167-2.733-0.351-5.2-0.551
		c-2.9-0.267-5.066,0.434-6.5,2.101c-0.4,0.433-0.917,1.1-1.55,2c-0.6,0.733-1.25,1.233-1.95,1.5c-1.4,0.533-3.6,1.733-6.6,3.6
		c-1.466,0.934-2.816,1.817-4.05,2.65C152.667,191.45,154.883,188.117,156.65,186.45z"/>
	<path style="fill-rule:evenodd;clip-rule:evenodd;fill:#6D4126;" d="M158.65,159c1.934,0,3.283,0.833,4.05,2.5
		c0.4,0.833,0.6,1.667,0.6,2.5l-6,2.5l-4-2.5c0.3-0.833,0.75-1.667,1.35-2.5C155.817,159.833,157.15,159,158.65,159z"/>
	<path style="fill-rule:evenodd;clip-rule:evenodd;fill:#6D4126;" d="M274.9,110.5c3.899-3.233,6.267-4.983,7.1-5.25
		c0.833-0.233,1.967,0.017,3.4,0.75c0.733,0.367,1.366,0.75,1.899,1.15c-2.2,2.9-3.967,4.567-5.3,5
		c-0.833,0.267-2.083,1.183-3.75,2.75c-0.833,0.767-1.583,1.517-2.25,2.25l-5.35,1.25c-2.233,0.534-4.134,2.35-5.7,5.45
		c-0.767,1.566-1.316,3.083-1.65,4.55c-0.533-0.3-1.083-0.7-1.649-1.2c-1.101-0.934-1.65-1.784-1.65-2.55
		c0-0.633,1.467-2.117,4.4-4.45c3.033-2.467,4.666-4.117,4.899-4.95C271.1,113.684,272.967,112.1,274.9,110.5z"/>
	<path style="fill-rule:evenodd;clip-rule:evenodd;fill:#6D4126;" d="M236.65,84l16-1.85l-2,3.75L240,86.5l-6,4.4l-4.7-1.25
		c0.9-0.833,1.884-1.7,2.95-2.6C234.35,85.283,235.816,84.267,236.65,84z"/>
	<path style="fill-rule:evenodd;clip-rule:evenodd;fill:#6D4126;" d="M259.3,57.8l-0.25,2.8c-0.533,2.1-1.783,3.667-3.75,4.7
		c-1.8,0.967-2.8,2.217-3,3.75c-0.267,2-0.6,3.25-1,3.75c-0.833,1.033-2.184,0.617-4.05-1.25l-2.6-3.15l4-5.6
		C254.417,60.3,257.967,58.633,259.3,57.8z"/>
	<path style="fill-rule:evenodd;clip-rule:evenodd;fill:#6D4126;" d="M270.75,162.5c-1.9,1.767-3.267,3.3-4.1,4.6
		c-0.834,1.301-1.634,1.601-2.4,0.9l-0.95-1.5l0.7-8.75l3-1.55c2.2-1.067,3.867-1.601,5-1.601l8,1.25l-6.7,4.4L270.75,162.5z"/>
	<path style="fill-rule:evenodd;clip-rule:evenodd;fill:#6D4126;" d="M241.3,190.85l-8.649,3.75l-9.351,6.25
		c-0.8,0.5-1.649,1.567-2.55,3.2c-1.3,2.3-2,3.517-2.1,3.65c-0.667,0.967-1.284,0.899-1.851-0.2c-0.533-1.133-0.8-2.934-0.8-5.4
		c0-2.066,1-4.05,3-5.949l3-2.2l8-4.351L241.3,190.85z"/>
	<path style="fill-rule:evenodd;clip-rule:evenodd;fill:#6D4126;" d="M302.05,189.9c4.8-1.033,7.884-1.551,9.25-1.551l-1.25,2.75
		c-1.666,1.967-4.583,3.334-8.75,4.101c-4.166,0.8-7.083,2.816-8.75,6.05c-0.807,1.55-1.224,3.033-1.25,4.45v-8l4-6.25L302.05,189.9
		z"/>
	<path style="fill-rule:evenodd;clip-rule:evenodd;fill:#6D4126;" d="M334.65,135.85l-1.351-3.1L340,139
		c-4,3.333-6.9,5.417-8.7,6.25c-1.066,0.5-1.75,2.167-2.05,5c-0.167,1.566-0.366,3.85-0.6,6.85c-0.267,1.567-0.684,1.518-1.25-0.149
		l-0.75-2.95l0.649-8.75c1.134-0.733,2.283-1.667,3.45-2.8C333.083,140.15,334.384,137.95,334.65,135.85z"/>
	<path style="fill-rule:evenodd;clip-rule:evenodd;fill:#6D4126;" d="M228,149.6v5.65h-6.7l2.7-11.9c3.1-2.066,5.316-3.732,6.65-5
		l6,4.4L228,149.6z"/>
	<path style="fill-rule:evenodd;clip-rule:evenodd;fill:#6D4126;" d="M152,93.4c0.833-0.267,1.633,0.167,2.4,1.3
		c0.4,0.566,0.7,1.167,0.9,1.8l-2,5l-4-1.85c0.067-0.933,0.233-1.883,0.5-2.85C150.3,94.833,151.033,93.7,152,93.4z"/>
	<path style="fill-rule:evenodd;clip-rule:evenodd;fill:#482D1D;" d="M36.3,99c5.9,1.934,7.184,4.617,3.85,8.05
		c-1.233,1.3-2.816,2.35-4.75,3.15c-1.933,0.8-3.4,1.033-4.4,0.7c-2-0.633-2.117-2.933-0.35-6.9
		C32.45,100.033,34.333,98.367,36.3,99z"/>
	<path style="fill-rule:evenodd;clip-rule:evenodd;fill:#482D1D;" d="M40.3,115.9c2.833,1.167,3.483,2.733,1.95,4.7
		c-1.5,1.867-3.7,2.8-6.6,2.8c-1.267,0-2.017-0.483-2.25-1.45c-0.2-0.9,0.033-1.934,0.7-3.1C35.8,115.85,37.867,114.867,40.3,115.9z
		"/>
	<path style="fill-rule:evenodd;clip-rule:evenodd;fill:#482D1D;" d="M141.65,146.5c2.434,1.6,3.2,3.633,2.3,6.1
		c-0.867,2.434-2.75,2.9-5.65,1.4c-2.7-1.434-3.183-3.283-1.45-5.55c0.633-0.867,1.433-1.5,2.4-1.9
		C140.25,146.117,141.05,146.1,141.65,146.5z"/>
	<path style="fill-rule:evenodd;clip-rule:evenodd;fill:#482D1D;" d="M149.65,75.9c-2.566,0.3-3.867-1.083-3.9-4.15
		c0-3.066,1.083-4.8,3.25-5.2c4.633-0.866,6.667,0.384,6.1,3.75c-0.233,1.3-0.867,2.5-1.9,3.6
		C152.133,75.1,150.95,75.767,149.65,75.9z"/>
	<path style="fill-rule:evenodd;clip-rule:evenodd;fill:#482D1D;" d="M201.65,93.4c2.5,1.034,2.699,2.183,0.6,3.45
		c-1.066,0.633-2.384,1.15-3.95,1.55c0.101-1.033,0.316-2.017,0.65-2.95C199.616,93.617,200.517,92.934,201.65,93.4z"/>
	<path style="fill-rule:evenodd;clip-rule:evenodd;fill:#482D1D;" d="M225,59.65c-1.733-0.433-2.7-1.133-2.9-2.1
		c-0.199-0.866,0.233-1.733,1.301-2.6c2.666-2.2,5.866-2.717,9.6-1.55c1.434,0.467,2.2,1.15,2.3,2.05
		c0.101,0.833-0.333,1.667-1.3,2.5C231.566,60.017,228.566,60.583,225,59.65z"/>
	<path style="fill-rule:evenodd;clip-rule:evenodd;fill:#482D1D;" d="M228.3,66.55c1.967,0.767,2,1.617,0.101,2.55
		c-0.934,0.5-2.067,0.9-3.4,1.2c0.033-0.833,0.2-1.616,0.5-2.35C226.1,66.483,227.033,66.017,228.3,66.55z"/>
	<path style="fill-rule:evenodd;clip-rule:evenodd;fill:#482D1D;" d="M240.3,112.15c4.867,1.5,6.4,3.4,4.601,5.7
		c-1.801,2.233-5.101,3.033-9.9,2.4c-2.167-0.3-3.45-0.967-3.85-2c-0.334-0.934,0.033-1.967,1.1-3.1c0.967-1.1,2.217-1.966,3.75-2.6
		C237.667,111.917,239.1,111.783,240.3,112.15z"/>
	<path style="fill-rule:evenodd;clip-rule:evenodd;fill:#482D1D;" d="M323.65,126.5c3.199,1.2,4,2.733,2.399,4.6
		c-1.533,1.833-3.883,2.583-7.05,2.25c-1.4-0.133-2.217-0.65-2.45-1.55c-0.233-0.8,0.017-1.717,0.75-2.75
		C319.167,126.45,321.283,125.6,323.65,126.5z"/>
	<path style="fill-rule:evenodd;clip-rule:evenodd;fill:#482D1D;" d="M315.65,144.6c1.767,0.667,2.3,2,1.6,4
		c-0.733,2.033-2.383,3.2-4.95,3.5c-1.233,0.167-2.017-0.217-2.35-1.149c-0.267-0.8-0.15-1.783,0.35-2.95
		C311.634,144.9,313.417,143.767,315.65,144.6z"/>
	<path style="fill-rule:evenodd;clip-rule:evenodd;fill:#482D1D;" d="M264.3,200.85c4.601-0.566,6.851,0.518,6.75,3.25
		c-0.1,2.634-1.683,4.667-4.75,6.101c-1.767,0.833-2.616,1.066-2.55,0.7c0.167-1.067-0.533-1.917-2.1-2.551
		c-2.101-0.866-2.584-2.316-1.45-4.35C261.267,202.1,262.634,201.05,264.3,200.85z"/>
	<path style="fill-rule:evenodd;clip-rule:evenodd;fill:#482D1D;" d="M41.65,197.1c3.333,2.867,3.45,4.768,0.35,5.7l-5.7,0.55
		c0.233-1.6,0.633-3.066,1.2-4.399C38.633,196.316,40.017,195.7,41.65,197.1z"/>
	<path style="fill-rule:evenodd;clip-rule:evenodd;fill:#5B554D;" d="M35.3,97.15c5.9,1.933,7.184,4.617,3.85,8.05
		c-1.233,1.267-2.816,2.3-4.75,3.1c-1.933,0.8-3.4,1.033-4.4,0.7c-2-0.633-2.117-2.934-0.35-6.9
		C31.45,98.167,33.333,96.517,35.3,97.15z"/>
	<path style="fill-rule:evenodd;clip-rule:evenodd;fill:#5B554D;" d="M39.3,114c2.833,1.167,3.483,2.733,1.95,4.7
		c-1.5,1.866-3.7,2.8-6.6,2.8c-1.267,0-2.017-0.483-2.25-1.45c-0.2-0.9,0.033-1.933,0.7-3.1C34.8,113.95,36.867,112.967,39.3,114z"
		/>
	<path style="fill-rule:evenodd;clip-rule:evenodd;fill:#5B554D;" d="M140.65,144.6c2.4,1.634,3.167,3.667,2.3,6.101
		c-0.867,2.467-2.75,2.933-5.65,1.399c-2.7-1.399-3.183-3.232-1.45-5.5c0.633-0.866,1.433-1.517,2.4-1.949
		C139.25,144.217,140.05,144.2,140.65,144.6z"/>
	<path style="fill-rule:evenodd;clip-rule:evenodd;fill:#5B554D;" d="M148.65,74.05c-2.566,0.3-3.867-1.083-3.9-4.15
		c0-3.067,1.083-4.817,3.25-5.25c4.633-0.867,6.667,0.383,6.1,3.75c-0.233,1.3-0.867,2.517-1.9,3.65
		C151.133,73.217,149.95,73.883,148.65,74.05z"/>
	<path style="fill-rule:evenodd;clip-rule:evenodd;fill:#5B554D;" d="M200.65,91.5c2.5,1.033,2.699,2.184,0.6,3.45
		c-1.066,0.633-2.384,1.15-3.95,1.55c0.101-1,0.316-1.967,0.65-2.9C198.616,91.733,199.517,91.033,200.65,91.5z"/>
	<path style="fill-rule:evenodd;clip-rule:evenodd;fill:#5B554D;" d="M224,57.8c-1.733-0.433-2.7-1.133-2.9-2.1
		c-0.199-0.867,0.233-1.75,1.301-2.65c2.666-2.167,5.866-2.667,9.6-1.5c1.434,0.434,2.2,1.1,2.3,2c0.101,0.833-0.333,1.667-1.3,2.5
		C230.566,58.117,227.566,58.7,224,57.8z"/>
	<path style="fill-rule:evenodd;clip-rule:evenodd;fill:#5B554D;" d="M227.3,64.65c1.967,0.8,2,1.667,0.101,2.6
		c-0.934,0.467-2.067,0.85-3.4,1.15c0.033-0.833,0.2-1.6,0.5-2.3C225.1,64.633,226.033,64.15,227.3,64.65z"/>
	<path style="fill-rule:evenodd;clip-rule:evenodd;fill:#5B554D;" d="M239.3,110.25c4.867,1.533,6.4,3.45,4.601,5.75
		c-1.801,2.233-5.101,3.033-9.9,2.4c-2.167-0.3-3.45-0.983-3.85-2.05c-0.334-0.9,0.033-1.934,1.1-3.1
		c0.967-1.1,2.217-1.967,3.75-2.6C236.667,110.017,238.1,109.883,239.3,110.25z"/>
	<path style="fill-rule:evenodd;clip-rule:evenodd;fill:#5B554D;" d="M322.65,124.65c3.199,1.2,4,2.733,2.399,4.6
		c-1.533,1.833-3.883,2.583-7.05,2.25c-1.4-0.167-2.217-0.7-2.45-1.6c-0.233-0.8,0.017-1.716,0.75-2.75
		C318.167,124.583,320.283,123.75,322.65,124.65z"/>
	<path style="fill-rule:evenodd;clip-rule:evenodd;fill:#5B554D;" d="M314.65,142.75c1.767,0.667,2.3,2,1.6,4
		c-0.733,2.033-2.383,3.2-4.95,3.5c-1.233,0.133-2.017-0.25-2.35-1.15c-0.267-0.8-0.15-1.8,0.35-3
		C310.634,143.033,312.417,141.917,314.65,142.75z"/>
	<path style="fill-rule:evenodd;clip-rule:evenodd;fill:#5B554D;" d="M263.3,198.95c4.601-0.567,6.851,0.533,6.75,3.3
		c-0.1,2.633-1.683,4.667-4.75,6.1c-1.767,0.834-2.616,1.067-2.55,0.7c0.167-1.1-0.533-1.967-2.1-2.6
		c-2.101-0.833-2.584-2.267-1.45-4.3C260.267,200.217,261.634,199.15,263.3,198.95z"/>
	<path style="fill-rule:evenodd;clip-rule:evenodd;fill:#5B554D;" d="M40.65,195.2c3.333,2.866,3.45,4.767,0.35,5.7l-5.7,0.55
		c0.233-1.601,0.633-3.067,1.2-4.4C37.633,194.417,39.017,193.8,40.65,195.2z"/>
	<path style="fill-rule:evenodd;clip-rule:evenodd;fill:#514C45;" d="M35.9,100.25c5.267,1.434,6.417,3.417,3.45,5.95
		c-1.1,0.933-2.517,1.7-4.25,2.3s-3.05,0.783-3.95,0.55c-1.767-0.467-1.85-2.183-0.25-5.15C32.467,100.967,34.133,99.75,35.9,100.25
		z"/>
	<path style="fill-rule:evenodd;clip-rule:evenodd;fill:#514C45;" d="M39.3,114c2.833,1.167,3.483,2.733,1.95,4.7
		c-1.5,1.866-3.7,2.8-6.6,2.8c-1.267,0-2.017-0.483-2.25-1.45c-0.2-0.9,0.033-1.933,0.7-3.1C34.8,113.95,36.867,112.967,39.3,114z"
		/>
	<path style="fill-rule:evenodd;clip-rule:evenodd;fill:#514C45;" d="M141.35,146.85c1.967,1.233,2.6,2.768,1.9,4.601
		s-2.233,2.183-4.6,1.05c-2.2-1.066-2.6-2.45-1.2-4.15C138.85,146.617,140.15,146.117,141.35,146.85z"/>
	<path style="fill-rule:evenodd;clip-rule:evenodd;fill:#514C45;" d="M149.4,74.1c-2.233,0.233-3.367-0.717-3.4-2.85
		c0-2.1,0.95-3.3,2.85-3.6c4.033-0.6,5.8,0.25,5.3,2.55c-0.167,0.9-0.7,1.733-1.6,2.5C151.583,73.533,150.533,74,149.4,74.1z"/>
	<path style="fill-rule:evenodd;clip-rule:evenodd;fill:#514C45;" d="M200.95,92.9c2.333,0.867,2.517,1.8,0.55,2.8
		c-1,0.5-2.233,0.917-3.7,1.25c0.101-0.833,0.3-1.617,0.601-2.35C199.033,93.1,199.884,92.533,200.95,92.9z"/>
	<path style="fill-rule:evenodd;clip-rule:evenodd;fill:#514C45;" d="M224.5,58.25c-1.634-0.333-2.55-0.867-2.75-1.6
		c-0.167-0.633,0.25-1.283,1.25-1.95c2.533-1.667,5.566-2.05,9.1-1.15c1.367,0.333,2.101,0.833,2.2,1.5
		c0.101,0.634-0.316,1.267-1.25,1.9C230.75,58.517,227.9,58.95,224.5,58.25z"/>
	<path style="fill-rule:evenodd;clip-rule:evenodd;fill:#514C45;" d="M227.3,66.8c1.967,0.533,2,1.117,0.101,1.75l-3.4,0.8
		c0.033-0.567,0.2-1.1,0.5-1.6C225.1,66.75,226.033,66.434,227.3,66.8z"/>
	<path style="fill-rule:evenodd;clip-rule:evenodd;fill:#514C45;" d="M240.05,112.5c4.167,1.133,5.483,2.566,3.95,4.3
		c-1.533,1.7-4.384,2.3-8.55,1.8c-1.867-0.233-2.967-0.733-3.3-1.5c-0.267-0.7,0.05-1.483,0.949-2.35
		C235.3,112.617,237.616,111.867,240.05,112.5z"/>
	<path style="fill-rule:evenodd;clip-rule:evenodd;fill:#514C45;" d="M322.65,126.2c3.199,0.966,4,2.216,2.399,3.75
		c-1.533,1.5-3.883,2.1-7.05,1.8c-1.4-0.1-2.217-0.533-2.45-1.3c-0.233-0.634,0.017-1.367,0.75-2.2
		C318.167,126.15,320.283,125.467,322.65,126.2z"/>
	<path style="fill-rule:evenodd;clip-rule:evenodd;fill:#514C45;" d="M315.05,144.35c1.567,0.567,2.033,1.65,1.4,3.25
		c-0.634,1.667-2.066,2.617-4.3,2.851c-1.101,0.133-1.783-0.184-2.051-0.95c-0.267-0.633-0.166-1.434,0.301-2.4
		C311.566,144.6,313.117,143.684,315.05,144.35z"/>
	<path style="fill-rule:evenodd;clip-rule:evenodd;fill:#514C45;" d="M264.9,203.3c3.533-0.333,5.25,0.3,5.149,1.9
		c-0.066,1.533-1.267,2.717-3.6,3.55c-1.367,0.5-2.033,0.65-2,0.45c0.133-0.667-0.4-1.184-1.601-1.55
		c-1.633-0.5-2.017-1.334-1.149-2.5C262.533,204.05,263.6,203.434,264.9,203.3z"/>
	<path style="fill-rule:evenodd;clip-rule:evenodd;fill:#514C45;" d="M41.4,196.65c2.7,2.333,2.783,3.883,0.25,4.649l-4.6,0.45
		c0.2-1.3,0.534-2.483,1-3.55C38.95,196.033,40.067,195.517,41.4,196.65z"/>
	<path style="fill-rule:evenodd;clip-rule:evenodd;fill:#487016;" d="M27.6,58.3L26,61.25c-1.233,2.133-2.183,3.533-2.85,4.2
		l-1.7,1.6c-0.067-1.6-0.267-2.6-0.6-3l-0.5-0.6l-0.25,1.2c-0.5,0.933-1.6,1.8-3.3,2.6c-2.633,1.233-3.983,1.883-4.05,1.95l6.75-0.1
		l-2.1,1.4c-1.733,0.967-3.417,1.55-5.05,1.75c-1.833,0.233-3.1,0.367-3.8,0.4c-0.133,0.667-0.3,1.3-0.5,1.9
		c-0.333,1.033,0.1,2.233,1.3,3.6c1.3,1.5,1.95,2.417,1.95,2.75c0,1.034-1.1,0.1-3.3-2.8l-2,9.35L5.65,86.5
		c-1.066-1.633-2.05-3.184-2.95-4.65C0.9,78.983,0,77.1,0,76.2c0-0.9,0.167-2.284,0.5-4.15l0.45-2.55l3.15-2.3
		c2.6-2.3,4.833-4.267,6.7-5.9c3.567-3.133,6.184-5.217,7.85-6.25c2.233-1.967,8.75-6.283,19.55-12.95
		c11.6-7.167,19.017-11.233,22.25-12.2c13.4-5.6,26-10.017,37.8-13.25c23.3-6.867,36.65-10.533,40.05-11
		c4.9-1.2,11.167-2.133,18.8-2.8c8.3-0.7,14.7-0.717,19.2-0.05l6-0.9c9.267-1.333,13.934-1.966,14-1.9
		c7.167,1.867,10.834,2.8,11,2.8c1.8,0.067,8.033,0.95,18.7,2.65c11.667,1.866,18.1,2.866,19.3,3c2.667-0.4,11.384,1.966,26.15,7.1
		c13.566,4.733,22.316,8.134,26.25,10.2c2.866,0.267,12.133,5.15,27.8,14.65c15.5,9.367,23.117,14.433,22.85,15.2
		c1.567,1.333,3.684,3.483,6.351,6.45l4.05,3.65c0.934,0.7,1.35,1.233,1.25,1.6c0.733,1.1,1.017,2.5,0.85,4.2
		c-0.199,1.633-0.716,2.9-1.55,3.8c-0.7,0.767-1.233,2.134-1.6,4.1c-0.2,1-0.333,1.917-0.4,2.75c-0.866-2.5-1.3-4.267-1.3-5.3
		l0.3-4.05l-3,2.8c0.667-2.3,1.117-4.017,1.351-5.15c-1.834,1.333-4.384,2.7-7.65,4.1l0.75-0.5c0.667-0.4,1.8-1.316,3.4-2.75
		c1.699-1.5,2.05-2.017,1.05-1.55c-1.566,0.7-4.05,1.233-7.45,1.6l1.8-1.15c0.7-0.467,1.567-1.517,2.601-3.15
		c-0.867-0.533-1.7-1.1-2.5-1.7l-3.45-2.75l-0.4,1.7c-0.233,1.2-0.3,1.95-0.2,2.25c0.167,0.567-0.433,0.167-1.8-1.2
		c-1.366-1.434-2.366-2.95-3-4.55c-0.633-1.533-0.933-2.95-0.899-4.25l0.25-1.5c-0.567,0.167-1.184,0.384-1.851,0.65
		c-1.333,0.5-2.217,0.95-2.649,1.35l-1.101,1c-0.233-0.267-0.45-0.616-0.649-1.05c-0.367-0.8-0.384-1.55-0.051-2.25l1.2-2.2
		c-4.1,1.4-6.866,1.967-8.3,1.7l-2.1-0.45c2.033-0.533,3.333-1.167,3.899-1.9l1.7-2.25c-1.8,1.167-3.45,1.667-4.95,1.5l-2.25-0.3
		c1.233-0.934,1.917-1.733,2.05-2.4l0.2-0.95c-2.767,0.033-4.733,0.233-5.899,0.6l-2.95,1.15c0.566-1.566,1.25-2.783,2.05-3.65
		c0.467-0.534,0.934-0.95,1.4-1.25l0.5-0.3c-1.134-0.2-2.851-0.167-5.15,0.1c-1.434,0.133-2.583,0.2-3.45,0.2l-0.85-0.1l2-1.75
		c-0.4-0.2-0.867-0.35-1.4-0.45c-1.1-0.233-1.983-0.167-2.649,0.2c-1.067,0.566-2.067,0.9-3,1c0.133-0.967,0.616-1.983,1.449-3.05
		c0.534-0.667,1.051-1.2,1.551-1.6l0.55-0.45c-3.9,0.633-6.75,0.9-8.55,0.8l-2.7-0.15l3.8-2.9c-2-0.067-3.434-0.367-4.3-0.9
		c-0.8-0.8-1.601-1.717-2.4-2.75c-0.433,1.033-0.866,1.85-1.3,2.45c-1.4,2.633-2.25,2.95-2.55,0.95c-0.434-2.966-0.767-4.5-1-4.6
		c-0.601-0.233-1.316-0.583-2.15-1.05l-1.05-0.6l1.3,4.15c-1.899-1.366-3.333-2.533-4.3-3.5c-0.566-0.633-1.1-1.283-1.6-1.95
		l-0.601-0.85l-0.35,2.45c-0.167,1.733-0.15,2.883,0.05,3.45l0.55,1.4c-3.267-2.9-5.149-5.183-5.649-6.85
		c-0.301-1.034-0.634-2.05-1-3.05l-0.45-1.2l-0.8,1.85c-0.567,1.4-0.95,2.467-1.15,3.2l-0.55,2.35c-1.5-1.267-2.65-2.75-3.45-4.45
		c-0.5-1.067-0.833-2.067-1-3l-0.1-1.1l-1.25,1.6c-1.067,1.167-2.15,1.933-3.25,2.3l-2.601,0.9c0.233-1.167,0.351-2.167,0.351-3
		c0.033-0.534-0.051-1.167-0.25-1.9l-0.301-1c-1.3,1.233-2.816,2.116-4.55,2.65c-1.066,0.333-2.35,0.517-3.85,0.55l-1.95-0.1
		c1.634-0.967,2.667-1.883,3.1-2.75c0.267-0.533,0.483-1.017,0.65-1.45l0.15-0.55c-4.101,1.333-6.95,2-8.551,2H240.4
		c1.199-1.167,1.833-2,1.899-2.5l0.101-0.8c-0.167,0.3-0.534,0.533-1.101,0.7c-1.066,0.333-2.5,0.2-4.3-0.4l0.25-1.55
		c-0.767,0.167-1.517,0.25-2.25,0.25l-2.05-0.1c-1.066,0.933-1.684,1.817-1.851,2.65l-0.449,2.05c-0.4-0.434-0.784-0.934-1.15-1.5
		c-0.733-1.2-1.066-2.2-1-3v-0.1l-3.05,1.2l0.25-1.35l-4.101,1.3c1.034-1.367,1.684-2.4,1.95-3.1l-7.2,2
		c0.867-1.066,1.4-2.05,1.601-2.95l-0.8-0.75l-0.051-0.1c-1.833,0.8-3.5,1.217-5,1.25l-3.1,0.1l1.5-1.45
		c-0.3,0.133-1.467,0.1-3.5-0.1l-4.35-0.6l0.649,1.65c0.5,1.133,0.867,1.816,1.101,2.05c0.466,0.4-0.25,0.35-2.15-0.15
		c-1.934-0.5-3.616-1.267-5.05-2.3c-1.367-0.967-2.417-2.017-3.15-3.15L193.4,9.45l-1.15,1.45c-0.8,1.1-1.267,1.933-1.4,2.5
		l-0.3,1.35c-0.366-0.1-0.733-0.267-1.1-0.5c-0.767-0.467-1.217-1.083-1.351-1.85l-0.3-2.45c-2.566,3.233-4.5,5.083-5.8,5.55
		l-1.95,0.75c1.333-1.5,2.033-2.7,2.101-3.6l0.1-2.75c-0.833,1.9-1.9,3.15-3.2,3.75l-2,0.9c0.467-1.433,0.567-2.45,0.3-3.05
		l-0.45-0.9l-1.8,1.2c-1.3,0.934-2.184,1.684-2.65,2.25c-0.733,0.934-1.317,1.75-1.75,2.45c-0.434-1.6-0.567-2.967-0.4-4.1
		c0.1-0.7,0.233-1.283,0.4-1.75l0.25-0.5l-1.1,0.55c-0.967,0.533-2,1.233-3.1,2.1c-1.733,1.333-2.883,2.067-3.45,2.2l0.6-2.45
		c-0.433,0.033-0.9,0.134-1.4,0.3c-1,0.367-1.683,0.867-2.05,1.5c-0.534,1.033-1.15,1.816-1.85,2.35
		c-0.467-0.867-0.667-1.967-0.6-3.3c0.067-0.8,0.183-1.5,0.35-2.1l0.2-0.65c-2.833,2.467-5.017,4.117-6.55,4.95l-2.3,1.25l1.45-4.4
		c-1.7,0.933-3.066,1.4-4.1,1.4c-0.633,0-1.433-0.067-2.4-0.2l-1.2-0.25l2.75,3.4l-6.45-2.9c0,0.034-0.133,0.6-0.4,1.7
		c-0.4,1.233-0.95,2.117-1.65,2.65l-1.7,1.3c0.067-1.467-0.117-2.467-0.55-3l-0.65-0.8l-1.4,1.6c-1,1.2-1.65,2.117-1.95,2.75
		c-0.434,1.066-0.767,2-1,2.8c-0.867-1.466-1.383-2.767-1.55-3.9c-0.1-0.7-0.133-1.3-0.1-1.8l0.1-0.55l-0.9,0.8
		c-0.767,0.733-1.55,1.633-2.35,2.7c-1.3,1.7-2.217,2.683-2.75,2.95l-0.1-2.5l-1.25,0.6c-0.9,0.566-1.417,1.2-1.55,1.9
		c-0.267,1.133-0.65,2.033-1.15,2.7c-0.7-0.767-1.2-1.783-1.5-3.05c-0.167-0.8-0.25-1.517-0.25-2.15l0.05-0.65l-1.8,2.45
		c-1.333,1.833-2.383,3.1-3.15,3.8l-1.9,1.7l0.2-4.55c-1.367,1.267-2.55,2.017-3.55,2.25c-0.633,0.133-1.417,0.233-2.35,0.3
		l-1.2,0.05l3.55,2.7c-2.3-0.1-4.133-0.283-5.5-0.55c-0.833-0.2-1.65-0.434-2.45-0.7l-1-0.35c0.033,0,0.45,0.717,1.25,2.15
		c0.933,1.533,1.65,2.466,2.15,2.8c0.867,0.566,1.283,0.85,1.25,0.85c-1.066-0.167-2.233-0.4-3.5-0.7
		c-2.533-0.567-4.233-1.183-5.1-1.85c-0.9-0.7-1.8-1.35-2.7-1.95l-1.1-0.7l0.5,1.95c0.433,1.4,0.8,2.45,1.1,3.15l1,2.25
		c-1.967-0.233-3.8-0.833-5.5-1.8c-1.067-0.6-1.95-1.233-2.65-1.9l-0.75-0.85l0.05,2c-0.133,1.533-0.517,2.75-1.15,3.65l-1.55,2.15
		c-0.566-1.1-1.1-2-1.6-2.7c-0.3-0.4-0.75-0.85-1.35-1.35l-0.85-0.65l-0.4,1.5c-0.4,1.167-0.934,2.184-1.6,3.05
		c-1.033,1.367-2.483,2.55-4.35,3.55c0.7-1.667,0.967-2.966,0.8-3.9c-0.133-0.566-0.284-1.083-0.45-1.55l-0.2-0.55l-2.1,2.65
		c-1.534,1.867-2.7,3.067-3.5,3.6l-1.95,1.35c0.233-1.6,0.217-2.633-0.05-3.1l-0.2-0.3l-0.85,1.5c-1.133,2.233-1.85,3.35-2.15,3.35
		L60,42.4l-0.45,0.1c-1.233,0.867-1.867,1.767-1.9,2.7c-0.033,1.167-0.25,2.133-0.65,2.9c-0.8-0.633-1.467-1.567-2-2.8
		c-0.3-0.767-0.517-1.45-0.65-2.05l-0.1-0.65l-1.2,2.6l0.5,0.45l-0.7-0.15l-0.1,0.25c1.967,2.367,3.3,3.7,4,4l1.4,0.65
		c-3.233,0.067-5.816-0.15-7.75-0.65L49,51.6L48.6,49l-1.35-0.65L46.5,49.1l-0.4-1.3l-1.15-0.5c-0.034,0,0.233,0.6,0.8,1.8
		c0.633,1.333,1.183,2.333,1.65,3l1.4,2.05c-1.966,0.067-3.883-0.233-5.75-0.9c-1.167-0.434-2.167-0.917-3-1.45
		c-0.448-0.299-0.723-0.499-0.825-0.6l0.375,1.9c0.133,1.5-0.033,2.75-0.5,3.75l-1.15,2.35c-0.733-0.967-1.417-1.75-2.05-2.35
		c-0.367-0.367-0.9-0.75-1.6-1.15l-0.95-0.5l-0.1,1.55c-0.2,1.233-0.55,2.333-1.05,3.3c-0.8,1.533-2.034,2.95-3.7,4.25
		c0.4-1.8,0.417-3.15,0.05-4.05L27.6,58.3z"/>
</g>
</svg>
