<?xml version="1.0" encoding="iso-8859-1"?>
<!-- Generator: Adobe Illustrator 15.1.0, SVG Export Plug-In . SVG Version: 6.00 Build 0)  -->
<!DOCTYPE svg PUBLIC "-//W3C//DTD SVG 1.1//EN" "http://www.w3.org/Graphics/SVG/1.1/DTD/svg11.dtd">
<svg version="1.1" id="FlashAICB" xmlns="http://www.w3.org/2000/svg" xmlns:xlink="http://www.w3.org/1999/xlink" x="0px" y="0px"
	 width="325.05px" height="124px" viewBox="0 0 325.05 124" style="enable-background:new 0 0 325.05 124;" xml:space="preserve">
<g>
	<g>
		<path style="fill-rule:evenodd;clip-rule:evenodd;fill:#633B21;" d="M321.15,4.15l2.3,27.4c1.434,20,1.916,34.283,1.45,42.851
			C324.366,84.467,320.6,93.434,313.6,101.3c-4.833,5.434-10.399,9.634-16.699,12.601c-2.967,1.366-9.851,2.633-20.65,3.8
			c-7.6,0.833-15.8,1.483-24.6,1.95c-13.134,0.933-24.584,1.733-34.351,2.399c-18.833,1.3-32.2,1.95-40.1,1.95
			c-30.434,0-51.967-0.866-64.6-2.6c-3.867-0.534-9.133-0.934-15.8-1.2c-7.966-0.233-14.117-0.45-18.45-0.65
			c-16.4-0.767-30.3-2.649-41.7-5.649c-12.233-3.233-21.816-12.317-28.75-27.25C1.833,73.684-0.75,60.433,0.15,46.9
			c1.033-16.4,1.7-26.283,2-29.65C2.85,9.383,3.6,5.517,4.4,5.65c0.6,0.1,8.267,0.5,23,1.2C42.2,7.617,50.433,8.3,52.1,8.9
			c1.3,0.467,8.133,1.067,20.5,1.8c14.5,0.833,25.017,1.7,31.55,2.6c8.967,1.267,26.5,1.95,52.6,2.05
			c25.167,0.066,42.85-0.383,53.05-1.35C222.667,12.767,259.783,9.483,321.15,4.15z"/>
		<g>
			<g>
				<path style="fill-rule:evenodd;clip-rule:evenodd;fill:#57351D;" d="M13.85,25.9l0.75,0.45c3.467,3.333,5.566,5.517,6.3,6.55
					c0.4,0.567,0.8,1.184,1.2,1.85c0.367,0.467,1.017,0.9,1.95,1.3c0.934,0.4,1.583,1.25,1.95,2.55c0.167,0.633,0.25,1.233,0.25,1.8
					v6.5l0.8,1.95c0.6,1.367,1.05,2.25,1.35,2.65c0.367,0.5,0.75,1.25,1.15,2.25c0.4,1.066,0.667,2.017,0.8,2.85
					c0.133,1.1,0.133,2.066,0,2.9l-5.1,8.2c-1.8,2.934-3.317,3.967-4.55,3.1l-1.25-2.149l-5.6-0.801c-0.5-1.566-0.9-3-1.2-4.3
					c0.8-0.733,1.65-1.633,2.55-2.7l1.15-1.35c2.233-3.567,3.433-5.583,3.6-6.05l0.95-3.65l-0.7-2.9l-2.35-6.05L17.8,40.2
					c-0.233-1.467-0.5-2.767-0.8-3.9c0.2-2.5-0.55-4.8-2.25-6.9C14.483,28.1,14.183,26.933,13.85,25.9z"/>
				<path style="fill-rule:evenodd;clip-rule:evenodd;fill:#57351D;" d="M303.45,3.8c10.066-1.233,15.717-1.283,16.95-0.15
					c0.166,0.7,0.416,2.2,0.75,4.5c0.399,2.467,0.649,4.383,0.75,5.75c-1.667-0.3-3.684-0.5-6.051-0.6
					c-4.733-0.167-8.983,0.233-12.75,1.2c-2.267,0.6-3.699,1.783-4.3,3.55c-0.434,1.267-0.366,2.733,0.2,4.4
					c-0.333,1.333-0.5,2.133-0.5,2.4c0,2.267-0.25,3.883-0.75,4.85c-0.8,1.667-1.75,2.383-2.85,2.15
					c-0.5-0.067-0.534-0.567-0.101-1.5c0.533-1.2,0.8-1.817,0.8-1.85c0-0.9-0.316-1.783-0.949-2.65
					c-0.301-0.434-0.867-0.55-1.7-0.35c-0.867,0.3-1.434,0.483-1.7,0.55c-0.3,0.1-0.75,0.733-1.35,1.9
					c-0.301,0.6-0.567,1.183-0.801,1.75l-4.6,0.25c-1.833,0.1-2.667,0.433-2.5,1c0.4,1.566,0.583,2.433,0.55,2.6
					c-0.166,0.867,0.033,1.867,0.601,3c0.767,1.467,1.216,2.65,1.35,3.55c0.333,2.066,0.816,4.316,1.45,6.75
					c0.333,1.933,0.5,3.533,0.5,4.8c0,0.967-0.483,1.533-1.45,1.7l-0.75-3.85l-1.95-2.4l-0.899,1.25c-0.7,0.9-1.351,1.6-1.95,2.1
					c-0.601,0.5-1.384,0.566-2.351,0.2l-1.3-0.7l2.4-1.65c0.666-2.6,1.083-4.383,1.25-5.35c0.1-0.6,0.083-1.134-0.05-1.6l-0.2-0.55
					c-0.167-0.633-0.65-1.517-1.45-2.65c-0.467-0.667-0.85-1.167-1.15-1.5c-0.399-0.433-0.666-0.733-0.8-0.9
					c-0.3-0.4-0.633-0.967-1-1.7l-0.45-1l0.75-2.4l-1.25-4.1c-0.466-0.8-1.35-1.6-2.649-2.4c-0.8-0.5-2.4-0.933-4.8-1.3l-3.4-0.4
					l-8.2,0.25l-4.85,3.35c-0.934,0.667-3.584,1.483-7.95,2.45l-0.7,0.6c-0.566,0.466-1.066,0.933-1.5,1.4l0.3,0.15
					c0.101,0.1,1.601,0.917,4.5,2.45c2.534,1.367,3.851,2.25,3.95,2.65c0.134,0.633-0.116,2.15-0.75,4.55
					c-0.8,1.467-1.6,2.434-2.399,2.9c-0.5,0.3-0.784,1.017-0.851,2.15c-0.033,0.6-0.083,1.417-0.149,2.45
					c-0.067,0.467,0.449,1.333,1.55,2.6c1.333,1.533,2.033,2.35,2.1,2.45c0.334,0.667,1.617,3.167,3.851,7.5
					c0.233,0.533,0.333,1.4,0.3,2.6c-0.033,1.033-0.134,1.85-0.3,2.45c-0.067,0.333-0.7,1.017-1.9,2.05c-1.134,1-1.7,1.616-1.7,1.85
					c0,0.3-0.25,0.584-0.75,0.851c-0.1,0.033-0.816,0.316-2.149,0.85c-1.301,0.467-3.801,0.217-7.5-0.75
					c2.267-0.167,4.116-0.566,5.55-1.2c0.967-0.399,1.616-0.967,1.95-1.7c0.166-0.399,0.25-0.966,0.25-1.699
					c0-1.101-0.084-2.467-0.25-4.101c-0.101-1-0.334-1.617-0.7-1.85l-0.5-0.05c0.133-1.633,0.133-3,0-4.1
					c-0.101-0.7-0.533-2.117-1.3-4.25l-1.15-3l-3.85-3.65c-1.134,0-2.184,0.083-3.15,0.25c-0.6,0.1-1.017,0.283-1.25,0.55
					c-0.134,0.167-0.2,0.3-0.2,0.4c-0.967,0.667-1.684,1.083-2.149,1.25c-0.301,0.1-0.634,0.767-1,2
					c-0.167,0.633-0.317,1.25-0.45,1.85v5.3L229.1,57.9c-0.5,1.2-1.1,2.1-1.8,2.7c-2.866,2.433-4.399,4.516-4.6,6.25
					c-0.167,1.467-0.417,4.217-0.75,8.25L221.6,76.65c-0.399,1.3-1,2.55-1.8,3.75c-0.767,1.133-1.116,1.85-1.05,2.149
					c0.1,0.4,0.134,0.65,0.1,0.75c-0.199,0.4-0.3,0.834-0.3,1.3c0,0.267,0.017,0.634,0.05,1.101c0,0.3-0.55,0.866-1.649,1.7
					c-1.367,1.033-2.101,1.6-2.2,1.699c-0.5,0.467-4.05,1.184-10.65,2.15l2.7-1.4c2.2-1.1,4.2-2,6-2.699
					c1.8-0.7,2.667-1.233,2.601-1.601l-0.65-0.35c0.467-1.434,0.866-2.867,1.2-4.3c0.2-0.9,0.616-1.867,1.25-2.9l0.899-1.25
					c0.5-1.6,0.584-2.967,0.25-4.1c-0.267-0.934-0.616-2.25-1.05-3.95c-0.434-1.867-0.649-2.967-0.649-3.3
					c0-0.301,0.133-0.95,0.399-1.95l0.351-1.4c0-0.633,0.55-1.767,1.649-3.4c0.767-1.1,1.267-1.917,1.5-2.45
					c0.134-0.367,0.2-0.833,0.2-1.4c0-0.3-0.233-1.383-0.7-3.25c-0.5-1.833-0.75-2.917-0.75-3.25c0-0.3-0.35-1.383-1.05-3.25
					c-0.667-1.767-0.95-2.783-0.85-3.05c0.1-0.3,0.083-0.983-0.051-2.05l-0.199-1.55l-0.95-1l-1.45-1.2
					c-0.667-0.634-1.233-1.267-1.7-1.9c-0.233-0.3-0.483-0.716-0.75-1.25c-0.3-0.5-0.616-0.966-0.95-1.4
					c-0.399-0.533-0.966-0.9-1.699-1.1l-0.95-0.15c-0.967,0-1.934-0.15-2.9-0.45c-0.6-0.2-1.583-0.434-2.95-0.7l-1.899-0.3
					c-0.967,0-1.851,0.167-2.65,0.5c-0.8,0.333-2.333,0.5-4.6,0.5c-1.9,0.167-3.417,0.4-4.55,0.7c-0.667,0.2-1.317,0.267-1.95,0.2
					c-1.167-0.133-1.884-0.2-2.15-0.2c-0.833,0-1.366-0.017-1.6-0.05c-0.467-0.1-1.066-0.233-1.8-0.4
					c-0.667-0.167-1.351-0.4-2.051-0.7c-0.466-0.2-0.916-0.3-1.35-0.3h-2.65c-0.8,0-1.633,0.116-2.5,0.35
					c-0.633,0.534-0.916,0.9-0.85,1.1c0.1,0.3,0.134,0.7,0.1,1.2c-0.066,0.966-0.1,1.617-0.1,1.95c0,1.133-0.4,1.85-1.2,2.15
					c-2.6,1.466-4.217,2.283-4.85,2.45c-0.533,0.133-0.95,0.3-1.25,0.5c-0.367,0.267-0.834,0.733-1.4,1.4
					c-0.467,0.567-1.066,1.017-1.8,1.35c-1.133,0.533-1.733,0.817-1.8,0.85c-0.467,0.267-1.517,0.533-3.15,0.8
					c-2.066,0.333-3.283,0.55-3.65,0.65c-0.8,0.2-0.466-0.067,1-0.8l2.4-1.15l1.7-2.15c0.2-0.3,0.567-0.6,1.1-0.9l0.8-0.3l5.1-2.7
					l1.7-2.15c0.3-0.4,0.416-0.867,0.35-1.4c-0.1-0.6-0.149-1.017-0.149-1.25c0-0.3-0.267-0.517-0.801-0.65
					c-1.433-0.367-2.366-0.633-2.8-0.8c-0.967-0.333-2.216-0.2-3.75,0.4c-1.966,0.8-3.45,1.233-4.45,1.3
					c-1.567,0.1-2.483,0.1-2.75,0c-0.2-0.233-0.5-0.483-0.9-0.75c-0.5-0.3-1-0.783-1.5-1.45l-0.65-0.95
					c-0.966-0.633-1.933-0.95-2.9-0.95c-0.6,0-1.066-0.117-1.4-0.35l-0.3-0.4l-3.35-1.9c-1.633,0.133-3.25,0.367-4.85,0.7
					c-3.7,0.633-6.117,1.117-7.25,1.45c-0.7,0.2-0.95,0.784-0.75,1.75c0.133,0.534,0.383,1.4,0.75,2.6c0.1,0.667-0.233,1.267-1,1.8
					c-0.767,0.566-1.15,0.933-1.15,1.1c0,0.467,0.883,1.184,2.65,2.15l1.7,1.95c0.333,0.467,0.883,1.35,1.65,2.65
					c0.3,0.467,0.45,0.85,0.45,1.15c0,0.5,0.017,0.833,0.05,1c0.1,0.4,0.083,0.933-0.05,1.6c-0.133,0.833-0.2,1.35-0.2,1.55
					c0,0.667-0.4,2.117-1.2,4.35c-0.333-1.267-0.566-2.55-0.7-3.85c-0.1-0.8-0.133-1.4-0.1-1.8c0.066-0.333,0.1-0.617,0.1-0.85
					c0-0.233-0.284-0.634-0.85-1.2c-0.567-0.567-0.85-0.983-0.85-1.25c0-0.233-0.566-0.85-1.7-1.85c-1.3-1.167-2.1-1.983-2.4-2.45
					c-0.367-0.534-0.933-1-1.7-1.4c-0.767-0.4-1.25-0.75-1.45-1.05c-0.267-0.333-0.767-0.717-1.5-1.15
					c-1-0.567-1.783-1.067-2.35-1.5c-0.8-0.6-1.217-1.184-1.25-1.75c0.1-0.6,0.117-1.067,0.05-1.4c-0.1-0.4-0.583-0.884-1.45-1.45
					L115,26.8c-2.067-0.5-3.5-0.816-4.3-0.95c-1.1-0.167-2-0.317-2.7-0.45c-1.333-0.2-2.283-0.45-2.85-0.75l-4.6-1.95l-7.75-0.5
					c-3.533,0-6.183-0.083-7.95-0.25c-0.367,0-0.85-0.067-1.45-0.2l-4.9,0.05c-0.467,0.333-1.333,0.867-2.6,1.6
					c-0.633,0.467-1.833,0.65-3.6,0.55c-1.633-0.067-2.517,0-2.65,0.2c-0.133,0.167-0.533,0.967-1.2,2.4
					c-0.333,0.633-1.3,1.434-2.9,2.4l0.7,1.45l2,1.8c1.367,1.3,2.15,2.15,2.35,2.55c0.167,0.333,0.433,0.816,0.8,1.45
					c0.267,0.566,0.4,1.05,0.4,1.45c0,0.667,0.167,2.6,0.5,5.8v3.65c0,0.966-0.566,2-1.7,3.1l-2.9,0.5
					c-0.367,0.133-0.75,0.3-1.15,0.5c-0.867,0.4-1.45,0.8-1.75,1.2l-1.45,1.9c-1.267,0.5-2.55,0.75-3.85,0.75
					c-0.8,0-1.817-0.083-3.05-0.25l-1.55-0.25l0.8-0.1c0.633-0.1,1.25-0.15,1.85-0.15c0.6,0,1.15-0.316,1.65-0.95
					c0.6-0.867,1.1-1.583,1.5-2.15c0.4-0.567,0.65-0.95,0.75-1.15c0.233-0.6,0.716-1.583,1.45-2.95c0.867-1.667,1.3-2.517,1.3-2.55
					c-0.133,0.233-0.167,0.184-0.1-0.15c0.1-0.4,0.167-1.85,0.2-4.35l0.05-3.6l-2.45-2.4c0-1.466-0.15-2.433-0.45-2.9
					c-0.167-0.267-1.1-0.467-2.8-0.6c-1.867-0.167-3.033-0.367-3.5-0.6l-3.4-1.45c-2.567-0.667-4.967-1.483-7.2-2.45
					c-1.4-0.566-2.15-0.733-2.25-0.5c-0.033,0.1,0.067,0.267,0.3,0.5c-0.633,0-2-0.716-4.1-2.15c-0.8-0.533-1.533-0.833-2.2-0.9
					c-2-2.5-4.833-3.617-8.5-3.35c-1.167-1.233-5.283-2.15-12.35-2.75c-6.833-0.566-11.1-0.483-12.8,0.25
					c0-4.767,0.667-8.683,2-11.75L25.45,7l-0.5,2.6C40.917,8.867,50.5,8.566,53.7,8.7c1.233,0.066,3.066,0.3,5.5,0.7
					c14.167,1.133,22.066,1.7,23.7,1.7c0.967,0,8.033,0.55,21.2,1.65c12.767,1.1,19.867,1.6,21.3,1.5
					c1.6-0.1,8.883,0.117,21.85,0.65c6.467,0.267,12.783,0.533,18.95,0.8l0.3,0.3l7.9,0.05c4.633-0.233,7.05-0.35,7.25-0.35
					c5.433-0.233,14.383-0.567,26.85-1c1.3-0.134,15-1.917,41.1-5.35c16.534-2.2,28.483-3.3,35.851-3.3
					C286.95,6.05,292.95,5.3,303.45,3.8z"/>
				<path style="fill-rule:evenodd;clip-rule:evenodd;fill:#57351D;" d="M95.45,64.45V63c0-0.6-1.233-2.1-3.7-4.5L88,55.05l7.7,5.05
					l2.2,3.15l2.15,4.85c0.3,0.467,0.067,2.084-0.7,4.851c-0.367,1.434-0.783,2.95-1.25,4.55v2.15c0,0.666-1.117,1.483-3.35,2.449
					c-0.4,0-0.833,0.017-1.3,0.051c-0.967,0.066-1.667,0.199-2.1,0.399c-0.4,0.2-1,1.184-1.8,2.95c-0.4,0.9-0.767,1.767-1.1,2.6
					l-1.65,1.95h-8c-1.5,0-2.85-0.033-4.05-0.1c-1.2-0.101-2.183-0.15-2.95-0.15c-1.033,0-2-0.083-2.9-0.25
					c-1.233-0.267-2.033-0.416-2.4-0.45c-0.8-0.1-1.883-0.416-3.25-0.949l-1.8-0.75l4.2,0.25c2.934,0.166,4.75,0.25,5.45,0.25
					c1.1,0,3.183-0.417,6.25-1.25c1.133-0.467,2.017-0.95,2.65-1.45c0.333-0.233,1.067-1.267,2.2-3.101
					c1.133-1.866,1.85-2.916,2.15-3.149c0.4-0.3,0.7-0.9,0.9-1.8c0.133-0.967,0.233-1.584,0.3-1.851c0.1-0.3,0.983-0.7,2.65-1.2
					c0.833-0.267,1.65-0.5,2.45-0.699c-0.667-2.9-1.066-4.917-1.2-6.051c2.233,0.167,3.6,0.084,4.1-0.25
					C94.017,66.8,94.65,65.917,95.45,64.45z"/>
				<path style="fill-rule:evenodd;clip-rule:evenodd;fill:#57351D;" d="M163.05,62.05v-2.9c1.733,0.2,2.566-0.8,2.5-3
					c-0.434-2.566-0.7-4.217-0.8-4.95c-0.1-1,0.35-0.45,1.35,1.65c1.034,2.133,1.551,3.433,1.551,3.9c0,0.2,0.083,0.566,0.25,1.1
					c0.166,0.533,0.25,0.966,0.25,1.3c0,0.434,0.55,0.833,1.649,1.2c0.967,0.333,1.867,0.5,2.7,0.5c0.967,0,1.934-0.733,2.9-2.2
					c1.1-1.267,1.899-2.066,2.399-2.4c0.467-0.333,0.867-1.533,1.2-3.6l1.45,3.1c0.467,0.967,0.7,2.017,0.7,3.15l-0.95,3.65
					c-0.2,0.7-0.783,1.066-1.75,1.101l-1.4-0.15L173.2,64l0.25,2.15c0.1,0.466,0.133,1.133,0.1,2c-0.066,1.533-0.1,2.399-0.1,2.6
					c0,0.8-0.117,1.283-0.351,1.45c-0.133,0.066-0.267,0.066-0.399,0l-6-1.45l-1.45,2.4l-1.2,0.5
					c-0.467,0.166-1.166,0.233-2.1,0.199c-1.333-0.066-2.333-0.066-3,0c-1,0.101-1.65,0.334-1.95,0.7
					c-0.167,0.2-0.233,0.384-0.2,0.55l-0.25,3.101c0,0.467,0.083,1.133,0.25,2c0.167,0.899,0.25,1.45,0.25,1.649
					c0,0.367-0.333,0.967-1,1.801c-0.667,0.866-1.3,1.466-1.9,1.8c-0.533,0.333-0.9,0.517-1.1,0.55c-0.333,0.066-0.7,0.134-1.1,0.2
					c-0.8,0.166-2.967-0.65-6.5-2.45h2.4c1,0,1.55-0.2,1.65-0.6l-0.2-0.601l3.85-7c-2.4,0-4.25-0.233-5.55-0.7
					c-0.8-0.3-2.317-1.366-4.55-3.199l-3.15-2.601l9.9,4.101h3.35c1.133-0.334,1.95-0.65,2.45-0.95
					c0.467-0.334,1.017-1.15,1.65-2.45c0.033-0.233,0.15-0.5,0.35-0.8c0.367-0.601,0.9-1.05,1.6-1.351
					c0.7-0.3,1.233-0.616,1.6-0.949c0.4-0.4,0.75-0.733,1.05-1C162.483,65.184,162.884,63.983,163.05,62.05z"/>
				<path style="fill-rule:evenodd;clip-rule:evenodd;fill:#57351D;" d="M131.45,78.95l-0.25,4.35l-1.95,2.15l-0.95,0.75
					c-0.7,0.566-1.267,1.05-1.7,1.45c-0.367,0.366-0.934,0.483-1.7,0.35c-1.033-0.3-1.917-0.5-2.65-0.6
					c-0.9-0.101-1.85-0.733-2.85-1.9l-1.25-1.75l6.75-0.2c0.5,0,1.15-0.333,1.95-1C127.35,82.55,128.883,81.35,131.45,78.95z"/>
				<path style="fill-rule:evenodd;clip-rule:evenodd;fill:#57351D;" d="M97.9,48.3l5.05,0.95l4.1-0.5l1.45-2.9l1.2-4.1l0.85-0.75
					c0.567-0.333,0.85,0,0.85,1c0,0.467,0.217,0.883,0.65,1.25c0.233,0.2,0.017,1.233-0.65,3.1c-0.566,1.633-0.933,2.867-1.1,3.7
					c-0.066,0.3-0.267,0.684-0.6,1.15c-0.367,0.533-0.617,1.233-0.75,2.1c-0.167,0.8-0.317,1.3-0.45,1.5
					c-0.1,0.133-0.45,0.583-1.05,1.35c-0.5,0.6-0.8,1.033-0.9,1.3l-0.2,0.75c-1.633-0.167-2.45-0.65-2.45-1.45
					c0-1.633-0.483-2.45-1.45-2.45c-0.5,0-1.2-0.066-2.1-0.2l-1.25-0.25c-0.967,0-1.45-0.4-1.45-1.2c0-0.633-0.066-1.066-0.2-1.3
					c-0.167-0.267-0.434-0.4-0.8-0.4c-0.633,0.133-1.117,0.216-1.45,0.25c-0.633,0.066-0.95-0.1-0.95-0.5
					c0-0.4-0.117-1.284-0.35-2.65l-0.35-1.95l1.25,0.5c0.833,0.167,1.3-0.15,1.4-0.95c0.066-0.467,0.367-0.167,0.9,0.9
					C97.367,47.083,97.633,47.667,97.9,48.3z"/>
			</g>
			<path style="fill-rule:evenodd;clip-rule:evenodd;fill:#57351D;" d="M281.95,68.7c1.233-0.233,2.25-0.517,3.05-0.851l4.8-12.1
				l1.95,6.8c0.3,0.967,0.45,4.184,0.45,9.65c0,1.6-0.8,3.366-2.4,5.3c-0.8,0.967-1.6,1.767-2.399,2.4l-1.95,1.949l-1.9,5.801
				l-3.899,3.85c-1.467,1.467-2.65,2.267-3.551,2.4c-1.366,0.233-2.433,0.566-3.199,1c-1.4,0.8-3.267,1.033-5.601,0.699l-3.1-0.699
				c-1.934,0-3.867-0.167-5.8-0.5c-1.2-0.2-4.051-0.983-8.551-2.351l-6.399-2l2.25,0.25c1.866,0.167,3.7,0.25,5.5,0.25
				c1.6,0,2.8-0.083,3.6-0.25c0.8-0.166,1.533-0.25,2.2-0.25c1,0,2.1-0.399,3.3-1.2l1.5-1.199l5.8-3.9l2.4-2.85l4.35-2.45
				c0.967-1.601,1.767-3.05,2.4-4.351c0.366-0.666,0-1.833-1.1-3.5c-0.867-1.333-0.983-1.933-0.351-1.8
				C277.333,69.2,279.55,69.167,281.95,68.7z"/>
			<g>
				<path style="fill-rule:evenodd;clip-rule:evenodd;fill:#4A2D1C;" d="M23.5,38.05l-0.5-2.7l1.55,1.1
					c1.067,0.866,1.733,1.566,2,2.1c0.267,0.534,0.35,1.133,0.25,1.8c-0.167,1.1-0.25,1.683-0.25,1.75c0,0.433,0.034,1.2,0.1,2.3
					c0,1-0.133,1.833-0.4,2.5c-0.3,0.733-0.233,1.367,0.2,1.9c0.2,0.2,0.767,0.65,1.7,1.35c0.467,0.333,0.733,0.767,0.8,1.3
					c0.066,0.7,0.233,1.233,0.5,1.6c0.633,0.867,1.066,1.617,1.3,2.25c0.133,0.367,0.167,0.85,0.1,1.45l-0.1,1.45
					c0,0.4-0.117,0.933-0.35,1.6c-0.133,0.367-0.35,0.9-0.65,1.6c-0.233,0.8-0.783,1.867-1.65,3.2
					c-1.067,1.733-2.017,2.767-2.85,3.101c-0.8,0.333-1.467,0.883-2,1.649c-0.267,0.4-0.45,0.75-0.55,1.051
					c-1.067-0.634-2.15-1.217-3.25-1.75l-4.5-2.101l3.85-0.3c1.1-1.066,2.067-2.15,2.9-3.25c0.566-0.7,0.9-1.2,1-1.5
					c0-0.033,0-0.383,0-1.05c0-0.4-0.267-0.85-0.8-1.35l-0.8-0.6l3.85-5.8c-0.233-1.067-0.35-1.917-0.35-2.55
					c0-0.4-0.1-1.267-0.3-2.6l-0.35-1.9c-0.4-0.5-0.75-1.05-1.05-1.65c-0.566-1.233-0.533-2.083,0.1-2.55
					C23.533,41.05,23.7,39.917,23.5,38.05z"/>
				<path style="fill-rule:evenodd;clip-rule:evenodd;fill:#4A2D1C;" d="M71.95,38.1c0.066,0.4,0.15,1.083,0.25,2.05
					c0.233,1.067,0.267,2.167,0.1,3.3l0.1,2.4c0,1.8-0.066,3.233-0.2,4.3c-0.1,0.867-0.2,1.184-0.3,0.95
					c-0.333-0.6-0.767-0.9-1.3-0.9c-0.633,0.033-1.167,0.25-1.6,0.65c-0.267,0.267-0.8,0.783-1.6,1.55
					c-0.733,0.567-2.3,1.083-4.7,1.55c-2.934,0.533-3.517,0.55-1.75,0.05c0.867-0.267,1.45-0.517,1.75-0.75
					c0.367-0.3,0.633-0.483,0.8-0.55c0.867-0.267,1.3-1.117,1.3-2.55c0-0.4,0.483-1.167,1.45-2.3l1.45-1.6
					c0.867-0.833,1.3-2,1.3-3.5c0-0.833-0.083-1.583-0.25-2.25c-0.3-1.267-0.533-2.35-0.7-3.25v-4.5l1.25,1.3
					c0.9,0.967,1.55,1.717,1.95,2.25C71.65,36.833,71.883,37.433,71.95,38.1z"/>
				<path style="fill-rule:evenodd;clip-rule:evenodd;fill:#4A2D1C;" d="M102.8,51.75h2.55c1.433,0.367,2.4,0.367,2.9,0
					c1.567-1.167,2.55-2.6,2.95-4.3c0.066-1.167,0.133-1.534,0.2-1.1c0.1,0.5,0.083,1.183-0.05,2.05c-0.133,1.133-0.2,2.033-0.2,2.7
					c0,0.933-0.433,1.833-1.3,2.7c-0.467,0.434-0.917,0.767-1.35,1l-0.1,0.75c-0.267,0.633-0.883,1.267-1.85,1.9
					c-0.833,0.566-1.216,0.917-1.15,1.05c0,0.033-0.233,0.15-0.7,0.35c-0.534,0.2-0.767,0.25-0.7,0.15
					c0.167-0.3,0.083-0.567-0.25-0.8c-0.4-0.267-0.683-0.6-0.85-1c-0.167-0.5-0.316-0.917-0.45-1.25c-0.133-0.4-0.383-0.8-0.75-1.2
					l-0.5-0.45c-0.2-0.167-0.45-0.3-0.75-0.4c-0.567-0.233-1.017-0.25-1.35-0.05c-0.533,0.3-1.35-0.667-2.45-2.9L102.8,51.75z"/>
				<path style="fill-rule:evenodd;clip-rule:evenodd;fill:#4A2D1C;" d="M71.8,89.8c0.167-0.066,0.4-0.066,0.7,0
					c-0.567,0.066-0.9,0.101-1,0.101L71.8,89.8z"/>
				<path style="fill-rule:evenodd;clip-rule:evenodd;fill:#4A2D1C;" d="M128.85,83.95c0.433-0.533,0.883-1.351,1.35-2.45l0.6-1.45
					l0.55,1.9c0.267,1.366,0.183,2.25-0.25,2.649c-0.5,0.5-1.2,1.067-2.1,1.7c-0.967,0.667-1.767,1.117-2.4,1.351
					c-0.434,0.166-1.133,0.133-2.1-0.101c-1.033-0.233-1.783-0.283-2.25-0.149c-0.6,0.166-1.233,0.017-1.9-0.45l-0.8-0.75
					c3.833,0.434,5.75,0.533,5.75,0.3C127.033,85.634,128.217,84.783,128.85,83.95z"/>
				<path style="fill-rule:evenodd;clip-rule:evenodd;fill:#4A2D1C;" d="M167.5,62.7l1.3,2.3c0.834,1.733,1.25,3,1.25,3.8
					c0,0.667-0.017,0.967-0.05,0.9c-0.066-0.167-0.15-0.033-0.25,0.399c-0.134,0.534-0.55,0.917-1.25,1.15l-1,0.15l-0.8-0.65
					c-0.334-0.267-0.717-0.1-1.15,0.5c-0.3,0.366-0.8,1.167-1.5,2.4c-0.467,0.733-0.967,0.966-1.5,0.699
					c-1-0.466-1.816-0.699-2.45-0.699c-1.067,0-1.983-0.051-2.75-0.15l-0.8-0.2c1.067-0.434,2.25-1.184,3.55-2.25
					c0.633-0.533,0.933-0.733,0.9-0.6c-0.167,0.399-0.033,0.6,0.4,0.6c0.833,0,1.367-0.316,1.6-0.95c0-1.066,0.217-1.933,0.65-2.6
					c0.267-0.4,0.833-0.733,1.699-1c0.434-0.1,0.834-0.184,1.2-0.25C166.95,65.15,167.267,63.967,167.5,62.7z"/>
				<path style="fill-rule:evenodd;clip-rule:evenodd;fill:#4A2D1C;" d="M157.5,78.45c0.533,0.267,0.684,0.767,0.45,1.5
					c-0.167,0.434-0.467,1.066-0.9,1.899c-0.066,0.167-0.25,0.851-0.55,2.051c-0.233,0.933-0.533,1.583-0.9,1.949
					c-0.667,0.667-1.633,1.101-2.9,1.301l-4.85-3.4l2.6,0.5L153,83.3l1.3-3.55c0.333-0.333,0.7-0.634,1.1-0.9
					C156.267,78.316,156.967,78.184,157.5,78.45z"/>
				<path style="fill-rule:evenodd;clip-rule:evenodd;fill:#4A2D1C;" d="M226.95,55.25l1.399-0.95l-0.649,4.85
					c-0.134,0.667-0.384,1.25-0.75,1.75c-0.2,0.3-0.601,0.783-1.2,1.45c-0.634,0.867-1.167,1.95-1.6,3.25
					c-0.267,0.5-0.351,1.167-0.25,2c0.166,1.434,0.25,2.267,0.25,2.5v4.5c0,0.9-0.233,2.117-0.7,3.65c-0.7,2.1-1.75,4.417-3.15,6.95
					c-1.366,2.434-3.434,3.75-6.2,3.95l-3.8-0.4l6.75-1.6c1.066-0.867,1.584-1.351,1.55-1.45c0.267-2.667,0.667-4.434,1.2-5.3
					c0.334-0.534,0.517-1.5,0.55-2.9l-0.05-1.95l0.3-1.899l-1.3-2.9c0-1.733,0.334-3.134,1-4.2c0.634-1.5,0.95-2.566,0.95-3.2
					c0-1.733,0.316-2.917,0.95-3.55c0.7-0.633,1.233-1.117,1.6-1.45c0.601-0.567,1.033-1.05,1.3-1.45S225.983,55.95,226.95,55.25z"
					/>
				<path style="fill-rule:evenodd;clip-rule:evenodd;fill:#4A2D1C;" d="M245.4,61.55h0.85c0.667-0.033,1.35-0.183,2.05-0.45
					c0.634-0.267,0.767-0.6,0.4-1c-0.667-0.733-1.017-1.15-1.05-1.25l-2.25-7.45l6.449,7.45L252.15,63l-0.25,2.4
					c0.1,0.733-0.784,1.866-2.65,3.399c-1.366,1.134-2.134,1.75-2.3,1.851c-0.601,0.399-1.117,0.517-1.55,0.35
					c-0.4-0.2-1-0.3-1.801-0.3l-1.1,0.05l0.95-1.7L247,68.15c0.634-0.2,0.634-0.733,0-1.601L245.4,61.55z"/>
				<path style="fill-rule:evenodd;clip-rule:evenodd;fill:#4A2D1C;" d="M237,39.85c-1.066-0.667-1.483-1.317-1.25-1.95
					c0.1-0.267,0.684-0.7,1.75-1.3s1.65-1.133,1.75-1.6l6.15-0.95l2.25,1.9v1.3c0,0.433-0.067,0.683-0.2,0.75
					c-0.4,0.167-0.867,0.566-1.4,1.2c-0.533,0.633-0.899,0.9-1.1,0.8c-0.566-0.3-1.5-0.35-2.8-0.15c-1.4,0.233-2.184,0.5-2.351,0.8
					c-0.094,0.156,0.007,0.298,0.3,0.425L237,39.85z"/>
				<path style="fill-rule:evenodd;clip-rule:evenodd;fill:#4A2D1C;" d="M294.65,19.25c0.1-0.2,0.267-0.434,0.5-0.7
					c0.399-0.466,0.866-0.767,1.399-0.9l0.55,1.8c0.334,1.333,0.367,2.333,0.101,3c-0.267,0.667-0.617,0.933-1.05,0.8L295.6,22.8
					L294.65,19.25z"/>
			</g>
			<path style="fill-rule:evenodd;clip-rule:evenodd;fill:#704225;" d="M11.5,60.9c-0.4,0.267-1.167,0.434-2.3,0.5L9,59
				c1.167-0.033,1.933-0.283,2.3-0.75c0.6-0.7,1-1.1,1.2-1.2C12.333,59.316,12,60.6,11.5,60.9z"/>
			<path style="fill-rule:evenodd;clip-rule:evenodd;fill:#704225;" d="M54.5,32.9l5.55-0.7l-0.9,0.45c-0.633,0.367-1.05,0.7-1.25,1
				c-0.333,0.467-0.65,0.783-0.95,0.95L55,36.3l-1.2,8.9l-1.95-1.9v-5.55c0.8-0.967,1.367-1.783,1.7-2.45
				c0.333-0.566,0.55-0.966,0.65-1.2C54.4,33.7,54.5,33.3,54.5,32.9z"/>
			<path style="fill-rule:evenodd;clip-rule:evenodd;fill:#704225;" d="M40.05,32.4L41.3,34c0.733,1.133,0.95,1.9,0.65,2.3
				c-0.467,0.633-1.35,1.117-2.65,1.45l-1.2,0.2l-1.7-4.3c0.1-0.167,0.317-0.35,0.65-0.55C37.75,32.733,38.75,32.5,40.05,32.4z"/>
			<path style="fill-rule:evenodd;clip-rule:evenodd;fill:#704225;" d="M58.85,48.35c0.667-0.467,1-1.35,1-2.65l-0.25-1.2l4.5-0.1
				L62,48.1l-0.4,1.2c-0.333,0.9-0.633,1.534-0.9,1.9c-0.367,0.633-0.6,1-0.7,1.1c-0.3,0.367-0.767,0.817-1.4,1.35
				c-0.567,0.5-1.5,0.617-2.8,0.35l-1.75-0.6c-0.966-0.133-1.7-0.2-2.2-0.2c-0.3,0-0.583-0.317-0.85-0.95l-0.35-1l0.5-1.7l3.35-1.45
				l1.7,1.45C57.333,49.217,58.217,48.816,58.85,48.35z"/>
			<path style="fill-rule:evenodd;clip-rule:evenodd;fill:#704225;" d="M77.7,53.9h7.95L88,55.05l1.8,1.7
				c1.367,1.333,2.4,2.4,3.1,3.2c1.133,1.267,2.35,2.95,3.65,5.05c-3.733-0.634-6.633-1.2-8.7-1.7c-1.3-0.3-2.383-0.416-3.25-0.35
				c-1.2,0.166-2.45,0.283-3.75,0.35c-3.7,0.334-6.033,0.5-7,0.5c-0.6,0-1.5,0.05-2.7,0.15l-1.65,0.1
				c1.167-1.566,2.383-3.167,3.65-4.8C75.683,55.983,77.2,54.2,77.7,53.9z"/>
			<path style="fill-rule:evenodd;clip-rule:evenodd;fill:#704225;" d="M84.7,70.1l-0.55,0.351c-0.4,0.333-0.7,0.7-0.9,1.1
				c-0.2,0.367-0.517,0.584-0.95,0.65c-0.867,0.1-1.433,0.2-1.7,0.3c-0.567,0.167-1.333,0.217-2.3,0.15
				c-1.033-0.101-1.8-0.15-2.3-0.15c-0.6,0-1.333-0.233-2.2-0.7L68.05,68.4h8.45l1.75-0.25c1.367-0.167,2.55-0.25,3.55-0.25l5.8-0.7
				l-0.25,0.7C87.183,68.4,86.3,69.134,84.7,70.1z"/>
			<path style="fill-rule:evenodd;clip-rule:evenodd;fill:#704225;" d="M78.9,76.6l4.6,0.25l-0.1,0.75
				c-0.133,0.601-0.35,1.15-0.65,1.65c-0.233,0.4-0.567,0.95-1,1.65c-0.333,0.6-0.55,1.1-0.65,1.5
				c-0.167,0.633-1.383,1.199-3.65,1.699l-0.8,0.4c-0.633,0.333-1.25,0.75-1.85,1.25c-0.6,0.533-1.983,0.717-4.15,0.55
				c-2.533-0.267-4.283-0.45-5.25-0.55l-3.65-0.2l1.2-1l1.45-0.45l3.15-4.85c0.2-0.3,0.95-0.434,2.25-0.4
				c0.633,0.034,1.25,0.084,1.85,0.15L78.9,76.6z"/>
			<path style="fill-rule:evenodd;clip-rule:evenodd;fill:#704225;" d="M53.55,64.55l2.2-0.75h3.85l0.45,4.851
				c-0.8-1.134-1.683-1.867-2.65-2.2c-0.467-0.167-0.7-0.233-0.7-0.2c0.066,0.134-0.1,0.2-0.5,0.2c-0.467,0-1.083,0.149-1.85,0.45
				c-1.133,0.399-1.883,0.649-2.25,0.75c-0.667,0.199-1.033,0.483-1.1,0.85c-0.1,0.7-0.217,1.15-0.35,1.35
				c-0.233,0.367-0.75,0.884-1.55,1.551c-0.934,0.8-1.7,1.566-2.3,2.3l-1.7,2.149l-1.7-4.55l1-3.149l3.75-1.551
				C50.85,65.533,52.65,64.85,53.55,64.55z"/>
			<path style="fill-rule:evenodd;clip-rule:evenodd;fill:#704225;" d="M51.4,90.1c-1.3-0.1-2.066-0.333-2.3-0.699l0.1-0.5
				c2.1-0.634,3.466-1.117,4.1-1.45c0.8-0.367,1.2-1.483,1.2-3.351l0.95,0.9c0.6,0.7,0.85,1.2,0.75,1.5
				c-0.167,0.467-0.25,1.033-0.25,1.7L54.5,90.35L51.4,90.1z"/>
			<path style="fill-rule:evenodd;clip-rule:evenodd;fill:#704225;" d="M11.1,75.6c0.3-0.1,0.633-0.149,1-0.149l7.45-0.5
				c-0.8,1.133-1.6,1.866-2.4,2.2c-0.633,0.233-1.283,0.566-1.95,1c-0.733,0.433-1.217,0.816-1.45,1.149V79.4L13.2,78.8
				C12.533,77.934,11.833,76.866,11.1,75.6z"/>
			<path style="fill-rule:evenodd;clip-rule:evenodd;fill:#704225;" d="M96.75,40.15l5.1-2.4l6.75,1.2l-1.95,2.3
				c-0.7,0.8-1.1,1.4-1.2,1.8c-0.067,0.267-0.4,0.6-1,1c-0.6,0.4-0.983,0.867-1.15,1.4c-0.2,0.6-0.633,0.983-1.3,1.15l-0.9,0.05
				c-1.934-0.467-3.3-1.183-4.1-2.15c-1-1.2-1.567-2.017-1.7-2.45c-0.066-0.3,0.15-0.7,0.65-1.2L96.75,40.15z"/>
			<path style="fill-rule:evenodd;clip-rule:evenodd;fill:#704225;" d="M84.2,32.65H83l-0.05,0.95c-0.1,0.667-0.25,1.15-0.45,1.45
				c-0.133,0.267-0.233,0.35-0.3,0.25c-0.1-0.233-0.317-0.383-0.65-0.45c-0.367-0.1-0.483-0.617-0.35-1.55
				c0.233-1.066,0.35-1.767,0.35-2.1c0-0.634,1.534-0.95,4.6-0.95l4.35,1.45l-0.95,0.5C86.95,32.5,85.167,32.65,84.2,32.65z"/>
			<path style="fill-rule:evenodd;clip-rule:evenodd;fill:#704225;" d="M124.05,51.95l1.8,0.35c1.2,0.3,1.8,0.6,1.8,0.9
				c0,0.466-0.717,1.35-2.15,2.65L125,56.8c-0.3,0.633-0.7,2.083-1.2,4.35L120.65,58l0.25-2.9
				C122.833,53.667,123.883,52.617,124.05,51.95z"/>
			<path style="fill-rule:evenodd;clip-rule:evenodd;fill:#704225;" d="M124.55,74.4l1.3,1.8c0.833,1.267,1.2,2.05,1.1,2.35
				c-0.067,0.233-0.3,0.467-0.7,0.7s-0.65,0.483-0.75,0.75c-0.167,0.467-1.3,0.7-3.4,0.7h-4.8c-0.7,0-0.867-0.351-0.5-1.05
				l0.75-1.101c0.2-0.233,0.434-0.5,0.7-0.8c0.567-0.566,1.05-0.95,1.45-1.15C121.633,75.566,123.25,74.833,124.55,74.4z"/>
			<path style="fill-rule:evenodd;clip-rule:evenodd;fill:#704225;" d="M113.4,68.65c-2.066,1.267-3.433,1.983-4.1,2.149
				c-0.4,0.101-0.716,0.367-0.95,0.8c-0.133,0.233-0.217,0.45-0.25,0.65l-1.7,0.7l0.75-3.601l1.35-0.25
				C109.767,68.9,111.4,68.75,113.4,68.65z"/>
			<path style="fill-rule:evenodd;clip-rule:evenodd;fill:#704225;" d="M108.1,86.5l1.3,1.05c0.867,0.8,1.25,1.5,1.15,2.101
				c-0.167,0.966-1.7,1.366-4.6,1.199l-1.45-1.199c0.3-0.367,0.667-0.767,1.1-1.2C106.467,87.55,107.3,86.9,108.1,86.5z"/>
			<path style="fill-rule:evenodd;clip-rule:evenodd;fill:#704225;" d="M144.8,61.65l0.25-4.85l3.85-2.15
				c0.5-0.333,1.05-0.683,1.65-1.05c1.267-0.8,2.25-1.35,2.95-1.65c1.133-0.467,2.9-1.017,5.3-1.65l3.15,1.2l-0.7,0.35
				c-0.533,0.333-0.95,0.7-1.25,1.1c-0.467,0.633-0.867,1.116-1.2,1.45l0.25,2.4c0.167,0.8-0.633,0.883-2.4,0.25
				c-0.633,0.034-1.333,0.1-2.1,0.2c-1.466,0.2-2.466,0.45-3,0.75C150.75,58.5,148.5,59.717,144.8,61.65z"/>
			<path style="fill-rule:evenodd;clip-rule:evenodd;fill:#704225;" d="M145.3,65c1.134-0.167,2.417-0.25,3.85-0.25h4.1l4.6,2.2
				c-0.633,0-1.283,0.083-1.95,0.25c-0.4,0.1-0.816,0.116-1.25,0.05l-1.4-0.3c-0.8-0.167-2.083-0.25-3.85-0.25
				c-0.7,0-1.633,0.1-2.8,0.3c-1.434,0.3-2.6,0.517-3.5,0.65c-1.1,0.199-1.967,0.5-2.6,0.899c-0.3,0.2-0.5,0.367-0.6,0.5l2-3.3
				L145.3,65z"/>
			<path style="fill-rule:evenodd;clip-rule:evenodd;fill:#704225;" d="M148.9,76.35l0.6,0.2c0.434,0.167,0.8,0.351,1.1,0.55
				c0.5,0.301-0.067,1.417-1.7,3.351l-4.8,1.45c-0.967,0.333-2.017,0.649-3.15,0.949c-0.7,0.2-1.034-0.3-1-1.5l0.25-1.85
				c0.233-0.4,0.517-0.8,0.85-1.2c0.667-0.8,1.2-1.2,1.6-1.2L148.9,76.35z"/>
			<path style="fill-rule:evenodd;clip-rule:evenodd;fill:#704225;" d="M156.4,36.5l-0.25,1.7l-1.45,0.5
				c-0.6,0.2-0.983,0.417-1.15,0.65c-0.066,0.133-0.083,0.233-0.05,0.3l-3.85,2.2l-0.75-1.45l1.95-4.1
				c1.933-0.5,3.05-0.983,3.35-1.45c2.433-0.167,3.966-0.417,4.6-0.75c0.667-0.3,1.233-0.7,1.7-1.2l1.2,0.75l-0.3,0.9
				c-0.3,0.7-0.6,1.2-0.9,1.5C160.033,36.517,158.667,36.667,156.4,36.5z"/>
			<path style="fill-rule:evenodd;clip-rule:evenodd;fill:#704225;" d="M139.25,32.9l1.85,0.65c1.2,0.5,1.8,1,1.8,1.5
				c0,0.833-0.733,1.483-2.2,1.95l-0.95,1.7h-1.2l-1.2-4.6L139.25,32.9z"/>
			<path style="fill-rule:evenodd;clip-rule:evenodd;fill:#704225;" d="M175,46.2l1.7,2.35c1.1,1.667,1.649,2.65,1.649,2.95
				s-0.216,0.816-0.649,1.55c-0.233,0.4-0.566,0.934-1,1.6c-0.7,0.967-1.434,1.45-2.2,1.45c-0.4,0-0.767-0.367-1.1-1.1l-0.351-1.1
				c-1.133-1.767-1.783-2.9-1.95-3.4c-0.066-0.3-0.05-0.783,0.051-1.45l0.199-0.95L175,46.2z"/>
			<path style="fill-rule:evenodd;clip-rule:evenodd;fill:#704225;" d="M205.4,41.1l2.399-2.4l1.45-0.5h4.1l-1.199,1.95l-1.7,0.7
				l-0.95,1.95l-0.95,1.45l-5.3,1.95l-0.5,1.65c-0.2,0.7-0.667,0.883-1.4,0.55l-1-0.75c-0.166-1.8-0.017-2.933,0.45-3.4
				c0.3-0.3,1.167-0.917,2.601-1.85L205.4,41.1z"/>
			<path style="fill-rule:evenodd;clip-rule:evenodd;fill:#704225;" d="M194.3,33.85c0.7-0.3,2.434-0.35,5.2-0.15
				c1.4,0.1,2.717,0.233,3.95,0.4l-2.851,0.5c-2.6,0.3-4.3,0.533-5.1,0.7c-0.467,0.1-1.167,0.467-2.1,1.1
				c-1.034,0.667-1.617,1.033-1.75,1.1c-0.233,0.1-0.834,0.15-1.801,0.15c-0.966,0-1.583,0.033-1.85,0.1
				c-0.267,0.066-0.6,0.316-1,0.75c-0.5,0.566-0.884,0.95-1.15,1.15c-0.633,0.5-1.35,1.233-2.149,2.2c-0.5,0.566-0.834,1.5-1,2.8
				c-0.233,1.4-0.384,2.15-0.45,2.25c-0.333,0.5-0.9-1.433-1.7-5.8l2.15-1.9c1.3-1.467,2.35-2.517,3.149-3.15
				c0.5-0.4,1.017-0.75,1.551-1.05c0.6-0.267,1.05-0.483,1.35-0.65c0.333-0.167,1.283-0.267,2.85-0.3
				C193.2,34.017,194.1,33.95,194.3,33.85z"/>
			<path style="fill-rule:evenodd;clip-rule:evenodd;fill:#704225;" d="M187.3,59.95c0.467-0.333,0.867-1.15,1.2-2.45
				c0.2-0.2,0.434-0.4,0.7-0.6c0.533-0.433,0.95-0.7,1.25-0.8c0.467-0.167,2.8-0.25,7-0.25L193.6,53.4l1.351-0.15
				c1.066-0.167,2.05-0.35,2.95-0.55c0.866-0.2,1.833-0.267,2.899-0.2c1.733,0.133,2.617,0.2,2.65,0.2h7
				c0.866,0,1.967,0.216,3.3,0.65c0.667,0.2,1.5,0.466,2.5,0.8c0.833,0.167,1.884,0.817,3.15,1.95l-4.351,1.4l-5.3-2.65l-6.3,0.25
				l-3.101,1.95c-0.899,0.6-2.133,0.85-3.699,0.75l-2.101-0.3c-0.366,0-0.8,0.05-1.3,0.15c-1,0.167-1.85,0.45-2.55,0.85
				c-0.733,0.4-1.367,1.333-1.9,2.8c-0.166,0.434-0.434,1.351-0.8,2.75l-0.7,3.15l-0.95-3.15c-0.233-0.7-0.233-1.5,0-2.4
				S186.9,60.183,187.3,59.95z"/>
			<path style="fill-rule:evenodd;clip-rule:evenodd;fill:#704225;" d="M214.6,71.3c0.101-0.1,0.4-0.083,0.9,0.05
				c0.267,0.067,0.517,0.134,0.75,0.2c-0.3,1.434-0.7,2.233-1.2,2.4l-1.7,0.7l-0.199,1.699H208.8c-1.434,0-2.7,0.25-3.8,0.75
				c-0.934,0.4-1.6,0.884-2,1.45c-0.2,0.267-0.917,0.816-2.15,1.65c-1.267,0.833-2.166,1.566-2.699,2.2
				c-0.034,0.033-0.784,0.966-2.25,2.8c-0.867,1.066-1.483,1.733-1.851,2c-0.399,0.333-0.5-0.65-0.3-2.95
				c0.167-2.033,0.35-3.45,0.55-4.25c0.101-0.434,0.3-0.75,0.601-0.95c0.1-0.033,0.55-0.2,1.35-0.5c0.5-0.2,0.866-0.533,1.1-1
				c0.233-0.533,0.417-0.934,0.551-1.2c0.466-0.633,0.8-1.066,1-1.3c0.566-0.533,1.199-0.899,1.899-1.1
				c1.434-0.434,2.884-1.167,4.351-2.2c0.233-0.134,1.833-0.2,4.8-0.2C212.85,71.55,214.4,71.467,214.6,71.3z"/>
			<path style="fill-rule:evenodd;clip-rule:evenodd;fill:#704225;" d="M178.85,76.85c0.267-0.1,0.4-0.533,0.4-1.3
				c0.033-1.066,0.066-1.684,0.1-1.85c0.101-0.4,0.667-0.717,1.7-0.95c0.767-0.167,1.483-0.25,2.15-0.25h2.399v1.45l-0.449,1.7
				L186.8,78.3c-0.366,0.134-0.816,0.3-1.35,0.5c-1.134,0.434-2.2,0.9-3.2,1.4c-1.033,0.5-1.583,1.066-1.65,1.7
				c-0.033,0.3,0.034,0.55,0.2,0.75l-1.95,0.949l-1.699,1.45L176.35,86c-0.633,0.733-1.25,1.3-1.85,1.7
				c-0.6,0.399-0.983,0.116-1.15-0.851l-0.05-4.699c3.2-1.767,5.45-3.051,6.75-3.851l-6.75,0.95L178.85,76.85z"/>
			<path style="fill-rule:evenodd;clip-rule:evenodd;fill:#704225;" d="M199.6,91.55l0.851,1.3c0.566,0.934,0.85,1.551,0.85,1.851
				c0,0.267-0.2,0.416-0.6,0.45c-0.634,0.066-1.084,0.166-1.351,0.3c-0.633,0.3-1.6,0.3-2.899,0L196,93.5
				c0.233-0.333,0.566-0.65,1-0.95C197.833,91.884,198.7,91.55,199.6,91.55z"/>
			<path style="fill-rule:evenodd;clip-rule:evenodd;fill:#704225;" d="M241.75,48.3l0.35,2.95c0.167,1.133,0.733,1.933,1.7,2.4v2.9
				l0.2,1.3c0.167,0.9,0.233,1.5,0.2,1.8c-0.033,0.167-0.05,0.583-0.05,1.25c0,0.7-0.034,1.267-0.101,1.7
				c-0.1,0.534-0.684,1.017-1.75,1.45c-0.899,0.334-1.616,0.5-2.149,0.5c-0.301,0-0.551-0.2-0.75-0.6l-0.2-0.65
				c0-0.633,0.25-1.116,0.75-1.45c0.467-0.3,0.133-0.534-1-0.7l-6.75,1.45v-6.05l0.75-2.9c0.333-0.566,0.733-1.133,1.2-1.7
				c0.966-1.167,1.85-1.8,2.649-1.9L241.75,48.3z"/>
			<path style="fill-rule:evenodd;clip-rule:evenodd;fill:#704225;" d="M272.75,70.8l0.25,0.75c0.167,0.467,0.167,1.184,0,2.15
				l-0.4,0.7c-0.366,0.533-0.8,0.949-1.3,1.25L266,78.55l-1.25,1.15c-0.9,0.934-1.45,1.916-1.65,2.95
				c-0.199,0.899-0.899,1.517-2.1,1.85c-1.8,0.533-3.033,1.033-3.7,1.5c-1.033,0.767-2.434,1.25-4.2,1.45
				c-2.033,0.2-3.199,0.366-3.5,0.5c-1.133,0.467-2.1,0.383-2.899-0.25c2.1-0.8,3.3-1.45,3.6-1.95c0.601-1.066,1.15-2.017,1.65-2.85
				c0.934-1.601,1.6-2.5,2-2.7c0.633-0.3,1.517-1.75,2.649-4.351l2.9-3.35c0.267-0.533,0.8-1.1,1.6-1.7
				c1.601-1.2,3.717-2,6.351-2.399L272.75,70.8z"/>
			<path style="fill-rule:evenodd;clip-rule:evenodd;fill:#704225;" d="M277.1,57.05l8.45-0.25l5.3-1.95l-1.85,1.5
				c-1.3,1.066-2.05,1.867-2.25,2.4c-0.066,0.2-0.3,1.083-0.7,2.65c-0.166,0.633-1.383,1.433-3.649,2.4
				c-1.2,0-2.851-0.149-4.95-0.45l-2.75-0.5l-1.2-1c0.767-1,1.4-2.034,1.9-3.1c0.199-0.4,0.55-0.8,1.05-1.2L277.1,57.05z"/>
			<path style="fill-rule:evenodd;clip-rule:evenodd;fill:#704225;" d="M270.95,31c0.633,0.467,1.149,0.7,1.55,0.7
				c0.667,0,0.517,0.883-0.45,2.65l-1.2,1.95l-0.5,1.1c-0.333,0.833-0.5,1.5-0.5,2c0,0.6-0.183,1.3-0.55,2.1
				c-0.366,0.767-0.75,1.283-1.149,1.55c-0.467,0.3-1.351,0.05-2.65-0.75c-0.634-2.233-0.95-3.683-0.95-4.35
				c0-0.4,0.167-1.284,0.5-2.65l0.45-1.9l-0.2-6.8l4.101,2.2l0.699,1.45L270.95,31z"/>
			<path style="fill-rule:evenodd;clip-rule:evenodd;fill:#704225;" d="M270.5,51.4l-0.15-0.65l2.4-2.9
				c0.967,0,2.333-2.083,4.1-6.25l-0.25,5.3l-0.8,3.05l-4.25,4.45c-0.434-0.033-0.833-0.117-1.2-0.25c-0.733-0.3-0.899-0.7-0.5-1.2
				C270.283,52.45,270.5,51.933,270.5,51.4z"/>
			<path style="fill-rule:evenodd;clip-rule:evenodd;fill:#704225;" d="M238.5,81.2c-0.667,0.166-1.134,0.467-1.4,0.899
				c-0.533,0.834-0.883,1.334-1.05,1.5c-0.8,0.801-1.2,2.483-1.2,5.051l-1.699-2.4V81.2c0-0.7,0.449-1.233,1.35-1.601
				c0.434-0.199,0.866-0.316,1.3-0.35l7-0.25c0.834,1.134,1,1.7,0.5,1.7C241.2,80.7,239.6,80.866,238.5,81.2z"/>
			<path style="fill-rule:evenodd;clip-rule:evenodd;fill:#704225;" d="M281.7,51.25l2.149-0.95l0.25,1.45
				c0.167,0.967,0.084,1.45-0.25,1.45l-1.449,1.45H279.3c-0.399,0-0.767-0.033-1.1-0.1l-0.351-0.15L281.7,51.25z"/>
			<path style="fill-rule:evenodd;clip-rule:evenodd;fill:#704225;" d="M291.6,31.45l4.101-3.4l0.7,1.45
				c0.3,0.6,0.149,1.167-0.45,1.7c-0.334,0.3-0.684,0.517-1.05,0.65l-1.4,2.5l-0.7,1.95c-0.633,2.567-1.2,4.083-1.7,4.55
				c-0.233,0.267-0.35,0.367-0.35,0.3c0-0.2-0.116-0.3-0.35-0.3c-0.367,0-0.767-0.667-1.2-2c-0.467-1.333-0.634-2.184-0.5-2.55
				c0.1-0.233,0.583-1.033,1.45-2.4C291.05,32.533,291.533,31.717,291.6,31.45z"/>
			<path style="fill-rule:evenodd;clip-rule:evenodd;fill:#704225;" d="M300.05,57.5l-2.2-0.95c-0.466-2.233-0.533-3.683-0.199-4.35
				c0.199-0.467,0.699-1,1.5-1.6c0.767-0.6,1.466-1.034,2.1-1.3L301,55.1C301,56.233,300.684,57.033,300.05,57.5z"/>
			<path style="fill-rule:evenodd;clip-rule:evenodd;fill:#704225;" d="M254.4,36.5c-0.7-0.5-0.467-0.4,0.699,0.3
				c0.567,0.333,1.217,0.717,1.95,1.15l0.101,0.8c0.033,0.6,0,1.15-0.101,1.65c-0.066,0.4-0.116,0.567-0.149,0.5
				c-0.134-0.167-0.317-0.183-0.551-0.05c-0.233,0.167-0.566,0.25-1,0.25c-0.466,0-0.866,0.083-1.199,0.25
				c-0.4,0.2-0.634,0.5-0.7,0.9c-0.033,0.2-0.033,0.383,0,0.55l-0.5,5.3c-1.767-2.4-2.65-4-2.65-4.8c0-0.5,0.134-0.966,0.4-1.4
				c0.333-0.566,0.517-0.917,0.55-1.05c0.1-0.3,0.65-1.117,1.65-2.45L254.4,36.5z"/>
			<path style="fill-rule:evenodd;clip-rule:evenodd;fill:#704225;" d="M297.4,79l1.25,2c0.833,1.4,1.3,2.35,1.399,2.85
				c0.167,0.801-1.05,1.434-3.649,1.9l-1.45-0.2l-1.9-1.7l0.25-2.899c0.267-0.2,0.65-0.434,1.15-0.7
				C295.384,79.717,296.366,79.3,297.4,79z"/>
			<path style="fill-rule:evenodd;clip-rule:evenodd;fill:#57351D;" d="M29.9,29.75c1.333-0.2,2.083,0.283,2.25,1.45
				c0.133,1.1-0.217,2.066-1.05,2.9c-0.633,0.667-1.417,0.733-2.35,0.2c-0.833-0.466-1.333-1.017-1.5-1.65
				c-0.133-0.5,0.067-1.066,0.6-1.7C28.417,30.283,29.1,29.883,29.9,29.75z"/>
			<path style="fill-rule:evenodd;clip-rule:evenodd;fill:#57351D;" d="M45.45,61.1c-0.733-0.7-1.333-1.567-1.8-2.6
				c-0.667-1.633,1.1-2.6,5.3-2.9c1.433-0.1,1.883,0.816,1.35,2.75c-0.533,1.933-1.3,3.1-2.3,3.5
				C47.233,62.184,46.383,61.933,45.45,61.1z"/>
			<path style="fill-rule:evenodd;clip-rule:evenodd;fill:#57351D;" d="M108.1,30.5c1.867,0.566,2.933,1.433,3.2,2.6
				c0.267,1.066-0.233,2.05-1.5,2.95c-1.133,0.8-2.417,0.75-3.85-0.15c-1.333-0.8-2.133-1.8-2.4-3
				c-0.233-1.066,0.117-1.85,1.05-2.35C105.567,30.05,106.733,30.033,108.1,30.5z"/>
			<path style="fill-rule:evenodd;clip-rule:evenodd;fill:#57351D;" d="M82.5,45.45c1.8-0.467,2.9,0.05,3.3,1.55
				c0.367,1.533-0.25,2.55-1.85,3.05c-1.3,0.4-2.333-0.083-3.1-1.45l-0.75-2.2l0.6-0.3C81.233,45.867,81.833,45.65,82.5,45.45z"/>
			<path style="fill-rule:evenodd;clip-rule:evenodd;fill:#57351D;" d="M126.7,45.7c0.533,0.133,0.783,0.583,0.75,1.35
				c-0.034,0.8-0.45,1.317-1.25,1.55c-0.534,0.167-0.8,0.2-0.8,0.1c0-0.233-0.283-0.434-0.85-0.6c-0.867-0.233-0.966-0.75-0.3-1.55
				C124.917,45.75,125.733,45.467,126.7,45.7z"/>
			<path style="fill-rule:evenodd;clip-rule:evenodd;fill:#57351D;" d="M141.65,29.5c0.6,0.7,0.784,1.283,0.55,1.75
				s-0.733,0.7-1.5,0.7c-0.6,0-1.217-0.117-1.85-0.35l-0.8-0.4c0.367-0.6,0.784-1.117,1.25-1.55
				C140.233,28.783,141.017,28.733,141.65,29.5z"/>
			<path style="fill-rule:evenodd;clip-rule:evenodd;fill:#57351D;" d="M177.9,34.35c0.899,0.167,1.866,0.316,2.899,0.45
				c0.634,0.1,0.95,0.35,0.95,0.75c0,0.534-0.267,0.967-0.8,1.3c-0.667,0.4-1.851,0.767-3.55,1.1
				c-1.834,0.366-2.684-0.233-2.551-1.8C174.983,34.617,176,34.017,177.9,34.35z"/>
			<path style="fill-rule:evenodd;clip-rule:evenodd;fill:#57351D;" d="M159.05,45.45c0.7,0.3,1.284,0.833,1.75,1.6
				c0.534,0.867,0.517,1.467-0.05,1.8c-0.533,0.333-1.15,0.383-1.85,0.15c-0.6-0.167-1.117-0.467-1.55-0.9
				c-0.367-0.367-0.3-0.95,0.2-1.75C158.017,45.517,158.517,45.217,159.05,45.45z"/>
			<path style="fill-rule:evenodd;clip-rule:evenodd;fill:#57351D;" d="M215.55,46.9c0.9,0.167,1.351,0.767,1.351,1.8
				c0,1.066-0.767,1.6-2.301,1.6c-1.6,0-2.116-0.6-1.55-1.8C213.65,47.267,214.483,46.733,215.55,46.9z"/>
			<path style="fill-rule:evenodd;clip-rule:evenodd;fill:#57351D;" d="M194.1,64.9c0.934-0.733,2.051-1.101,3.351-1.101
				c1.399,0,1.95,0.717,1.649,2.15c-0.333,1.399-1.133,2.3-2.399,2.7c-1,0.3-1.9-0.067-2.7-1.101l-0.9-1.6
				C193.3,65.583,193.634,65.233,194.1,64.9z"/>
			<path style="fill-rule:evenodd;clip-rule:evenodd;fill:#57351D;" d="M203.45,66.45c1.2-0.233,2.149,0.1,2.85,1
				c0.733,0.899,0.834,1.783,0.3,2.649c-0.399,0.7-1.399,0.617-3-0.25l-2.3-1.449c0.134-0.267,0.316-0.551,0.55-0.851
				C202.35,66.95,202.884,66.583,203.45,66.45z"/>
			<path style="fill-rule:evenodd;clip-rule:evenodd;fill:#57351D;" d="M235.1,72.25c1.467,0.833,1.95,1.634,1.45,2.4
				c-0.267,0.399-1,0.883-2.2,1.449c-1.166,0.634-3.017,0.233-5.55-1.199c-0.399-0.233-0.533-0.634-0.399-1.2
				c0.166-0.566,0.533-1.066,1.1-1.5C231.066,71,232.934,71.017,235.1,72.25z"/>
			<path style="fill-rule:evenodd;clip-rule:evenodd;fill:#57351D;" d="M258.05,52.7c2.167-0.1,3.117,0.716,2.851,2.45
				c-0.267,1.633-1.067,2.75-2.4,3.35c-0.9,0.4-1.767,0-2.6-1.2l-1-1.95c0-0.4,0.133-0.817,0.399-1.25
				C255.8,53.233,256.717,52.767,258.05,52.7z"/>
			<path style="fill-rule:evenodd;clip-rule:evenodd;fill:#57351D;" d="M266.25,58.25c0.9,0,1.366,0.3,1.4,0.9
				c0.033,0.533-0.284,1.117-0.95,1.75c-0.5,0.5-1.084,0.533-1.75,0.1l-0.9-0.8c0.033-0.333,0.15-0.65,0.351-0.95
				C264.8,58.583,265.417,58.25,266.25,58.25z"/>
			<path style="fill-rule:evenodd;clip-rule:evenodd;fill:#57351D;" d="M294.5,41.6c0.5,0,0.934,0.517,1.3,1.55
				c0.4,1.033,0.367,1.717-0.1,2.05c-0.4,0.3-0.8,0.35-1.2,0.15c-0.634-0.4-1.283-0.767-1.95-1.1c-0.899-0.434-1.017-1-0.35-1.7
				C292.833,41.917,293.6,41.6,294.5,41.6z"/>
			<path style="fill-rule:evenodd;clip-rule:evenodd;fill:#5C554D;" d="M28.7,28.8c1.333-0.233,2.083,0.25,2.25,1.45
				c0.133,1.1-0.217,2.066-1.05,2.9c-0.633,0.633-1.433,0.7-2.4,0.2c-0.833-0.5-1.317-1.05-1.45-1.65
				c-0.133-0.5,0.067-1.067,0.6-1.7C27.217,29.333,27.9,28.933,28.7,28.8z"/>
			<path style="fill-rule:evenodd;clip-rule:evenodd;fill:#5C554D;" d="M46.8,60.9c-0.767,0.333-1.617,0.067-2.55-0.8
				c-0.767-0.7-1.367-1.567-1.8-2.6c-0.667-1.6,1.1-2.55,5.3-2.85c1.433-0.1,1.883,0.817,1.35,2.75
				C48.567,59.333,47.8,60.5,46.8,60.9z"/>
			<path style="fill-rule:evenodd;clip-rule:evenodd;fill:#5C554D;" d="M106.9,29.5c1.867,0.6,2.934,1.483,3.2,2.65
				c0.267,1.067-0.233,2.033-1.5,2.9c-1.133,0.8-2.417,0.767-3.85-0.1c-1.367-0.8-2.183-1.8-2.45-3c-0.233-1.1,0.133-1.884,1.1-2.35
				C104.333,29.1,105.5,29.066,106.9,29.5z"/>
			<path style="fill-rule:evenodd;clip-rule:evenodd;fill:#5C554D;" d="M81.3,44.5c1.8-0.5,2.9,0.017,3.3,1.55
				c0.367,1.5-0.25,2.5-1.85,3c-1.3,0.434-2.333-0.033-3.1-1.4l-0.75-2.2l0.6-0.3C80,44.917,80.6,44.7,81.3,44.5z"/>
			<path style="fill-rule:evenodd;clip-rule:evenodd;fill:#5C554D;" d="M125.5,44.75c0.533,0.1,0.783,0.55,0.75,1.35
				c-0.033,0.8-0.45,1.316-1.25,1.55c-0.567,0.167-0.85,0.2-0.85,0.1c0-0.233-0.283-0.434-0.85-0.6
				c-0.833-0.267-0.917-0.783-0.25-1.55C123.717,44.8,124.533,44.517,125.5,44.75z"/>
			<path style="fill-rule:evenodd;clip-rule:evenodd;fill:#5C554D;" d="M140.45,28.55c0.566,0.7,0.733,1.284,0.5,1.75
				c-0.2,0.434-0.684,0.65-1.45,0.65c-0.6,0-1.217-0.117-1.85-0.35l-0.8-0.35c0.333-0.6,0.733-1.117,1.2-1.55
				C139.017,27.833,139.817,27.783,140.45,28.55z"/>
			<path style="fill-rule:evenodd;clip-rule:evenodd;fill:#5C554D;" d="M176.7,33.4c0.899,0.167,1.866,0.3,2.899,0.4
				c0.634,0.133,0.95,0.4,0.95,0.8c0,0.533-0.267,0.966-0.8,1.3c-0.667,0.4-1.85,0.767-3.55,1.1c-1.867,0.367-2.733-0.233-2.601-1.8
				C173.733,33.633,174.767,33.033,176.7,33.4z"/>
			<path style="fill-rule:evenodd;clip-rule:evenodd;fill:#5C554D;" d="M157.85,44.5c0.667,0.267,1.25,0.8,1.75,1.6
				c0.533,0.833,0.517,1.417-0.05,1.75c-0.533,0.333-1.15,0.4-1.85,0.2c-0.567-0.167-1.083-0.466-1.55-0.9
				c-0.367-0.4-0.3-0.983,0.2-1.75C156.817,44.566,157.317,44.267,157.85,44.5z"/>
			<path style="fill-rule:evenodd;clip-rule:evenodd;fill:#5C554D;" d="M214.35,45.95c0.9,0.167,1.334,0.75,1.301,1.75
				c0,1.066-0.767,1.6-2.301,1.6c-1.566,0-2.066-0.6-1.5-1.8C212.417,46.267,213.25,45.75,214.35,45.95z"/>
			<path style="fill-rule:evenodd;clip-rule:evenodd;fill:#5C554D;" d="M196.25,62.85c1.4,0,1.934,0.717,1.6,2.15
				c-0.3,1.4-1.083,2.283-2.35,2.65c-1,0.3-1.9-0.051-2.7-1.051L191.9,65c0.199-0.366,0.533-0.717,1-1.05
				C193.833,63.217,194.95,62.85,196.25,62.85z"/>
			<path style="fill-rule:evenodd;clip-rule:evenodd;fill:#5C554D;" d="M205.1,66.5c0.7,0.866,0.801,1.733,0.301,2.6
				c-0.4,0.7-1.4,0.634-3-0.199l-2.301-1.5c0.134-0.267,0.317-0.551,0.551-0.851c0.5-0.566,1.033-0.916,1.6-1.05
				C203.45,65.267,204.4,65.6,205.1,66.5z"/>
			<path style="fill-rule:evenodd;clip-rule:evenodd;fill:#5C554D;" d="M233.9,71.3c1.466,0.834,1.949,1.617,1.449,2.351
				c-0.267,0.366-1,0.866-2.199,1.5c-1.2,0.6-3.051,0.199-5.551-1.2c-0.433-0.233-0.566-0.634-0.399-1.2
				c0.133-0.566,0.5-1.083,1.1-1.55C229.866,70.033,231.733,70.066,233.9,71.3z"/>
			<path style="fill-rule:evenodd;clip-rule:evenodd;fill:#5C554D;" d="M256.85,51.75c2.167-0.1,3.117,0.717,2.851,2.45
				c-0.267,1.633-1.066,2.733-2.4,3.3c-0.899,0.433-1.767,0.05-2.6-1.15l-1-1.95c0-0.4,0.133-0.816,0.399-1.25
				C254.6,52.283,255.517,51.816,256.85,51.75z"/>
			<path style="fill-rule:evenodd;clip-rule:evenodd;fill:#5C554D;" d="M265.05,57.3c0.9,0,1.367,0.3,1.4,0.9
				c0.033,0.533-0.283,1.116-0.95,1.75c-0.5,0.5-1.083,0.533-1.75,0.1l-0.9-0.85c0.034-0.3,0.15-0.617,0.351-0.95
				C263.6,57.617,264.217,57.3,265.05,57.3z"/>
			<path style="fill-rule:evenodd;clip-rule:evenodd;fill:#5C554D;" d="M293.3,40.65c0.5,0,0.934,0.5,1.3,1.5
				c0.4,1.033,0.367,1.733-0.1,2.1c-0.4,0.3-0.8,0.35-1.2,0.15c-0.633-0.4-1.283-0.767-1.95-1.1c-0.899-0.466-1.017-1.033-0.35-1.7
				C291.634,40.967,292.4,40.65,293.3,40.65z"/>
			<path style="fill-rule:evenodd;clip-rule:evenodd;fill:#524C45;" d="M28.7,30c1.333-0.167,2.083,0.2,2.25,1.1
				c0.133,0.833-0.217,1.55-1.05,2.15c-0.633,0.5-1.433,0.55-2.4,0.15c-0.833-0.333-1.317-0.733-1.45-1.2
				c-0.133-0.4,0.067-0.833,0.6-1.3C27.217,30.4,27.9,30.1,28.7,30z"/>
			<path style="fill-rule:evenodd;clip-rule:evenodd;fill:#524C45;" d="M46.8,60.95c-0.767,0.233-1.617,0.033-2.55-0.6
				c-0.8-0.534-1.4-1.167-1.8-1.9c-0.667-1.167,1.1-1.884,5.3-2.15c1.433-0.066,1.883,0.617,1.35,2.05
				C48.567,59.75,47.8,60.617,46.8,60.95z"/>
			<path style="fill-rule:evenodd;clip-rule:evenodd;fill:#524C45;" d="M107.1,30.65c1.767,0.467,2.767,1.167,3,2.1
				c0.233,0.9-0.233,1.7-1.4,2.4c-1.034,0.667-2.233,0.65-3.6-0.05c-1.267-0.667-2.033-1.483-2.3-2.45c-0.233-0.9,0.1-1.55,1-1.95
				C104.7,30.3,105.8,30.283,107.1,30.65z"/>
			<path style="fill-rule:evenodd;clip-rule:evenodd;fill:#524C45;" d="M81.3,45.9c1.8-0.333,2.9,0.033,3.3,1.1
				c0.367,1.066-0.25,1.767-1.85,2.1c-1.3,0.3-2.333-0.034-3.1-1l-0.75-1.55l0.6-0.2C80,46.183,80.6,46.033,81.3,45.9z"/>
			<path style="fill-rule:evenodd;clip-rule:evenodd;fill:#524C45;" d="M125.55,45.15c0.5,0.1,0.733,0.5,0.7,1.2
				c-0.033,0.7-0.417,1.15-1.15,1.35c-0.533,0.133-0.8,0.167-0.8,0.1c0-0.2-0.267-0.383-0.8-0.55c-0.8-0.2-0.883-0.65-0.25-1.35
				C123.917,45.2,124.683,44.95,125.55,45.15z"/>
			<path style="fill-rule:evenodd;clip-rule:evenodd;fill:#524C45;" d="M140.45,29.45c0.566,0.466,0.733,0.866,0.5,1.2
				c-0.2,0.3-0.684,0.45-1.45,0.45c-0.6,0-1.217-0.083-1.85-0.25l-0.8-0.25c0.333-0.4,0.733-0.75,1.2-1.05
				C139.017,28.95,139.817,28.917,140.45,29.45z"/>
			<path style="fill-rule:evenodd;clip-rule:evenodd;fill:#524C45;" d="M176.7,34.3c0.899,0.133,1.866,0.25,2.899,0.35
				c0.634,0.067,0.95,0.25,0.95,0.55c0,0.4-0.267,0.733-0.8,1c-0.667,0.3-1.85,0.583-3.55,0.85c-1.867,0.267-2.733-0.183-2.601-1.35
				C173.733,34.533,174.767,34.066,176.7,34.3z"/>
			<path style="fill-rule:evenodd;clip-rule:evenodd;fill:#524C45;" d="M157.85,45.4c0.7,0.233,1.283,0.633,1.75,1.2
				c0.533,0.633,0.517,1.083-0.05,1.35c-0.533,0.267-1.15,0.316-1.85,0.15c-0.6-0.133-1.117-0.367-1.55-0.7
				c-0.367-0.267-0.3-0.7,0.2-1.3C156.817,45.5,157.317,45.267,157.85,45.4z"/>
			<path style="fill-rule:evenodd;clip-rule:evenodd;fill:#524C45;" d="M214.35,46.4c0.9,0.133,1.334,0.65,1.301,1.55
				c0,0.933-0.767,1.4-2.301,1.4c-1.566,0-2.066-0.534-1.5-1.6C212.417,46.683,213.25,46.233,214.35,46.4z"/>
			<path style="fill-rule:evenodd;clip-rule:evenodd;fill:#524C45;" d="M192.9,64.9c0.933-0.567,2.05-0.851,3.35-0.851
				c1.4,0,1.934,0.533,1.6,1.601c-0.3,1.066-1.083,1.75-2.35,2.05c-1,0.233-1.9-0.033-2.7-0.8l-0.899-1.2
				C192.1,65.434,192.434,65.167,192.9,64.9z"/>
			<path style="fill-rule:evenodd;clip-rule:evenodd;fill:#524C45;" d="M202.7,66.7c1.033-0.167,1.866,0.066,2.5,0.7
				c0.6,0.6,0.684,1.216,0.25,1.85c-0.367,0.5-1.25,0.45-2.65-0.15l-2-1.05c0.101-0.2,0.267-0.399,0.5-0.6
				C201.7,67.05,202.167,66.8,202.7,66.7z"/>
			<path style="fill-rule:evenodd;clip-rule:evenodd;fill:#524C45;" d="M234,71.5c1.366,0.767,1.816,1.517,1.35,2.25
				c-0.233,0.366-0.916,0.833-2.05,1.4c-1.166,0.6-2.916,0.216-5.25-1.15c-0.399-0.233-0.517-0.616-0.35-1.15
				c0.133-0.533,0.483-1.017,1.05-1.449C230.217,70.3,231.967,70.333,234,71.5z"/>
			<path style="fill-rule:evenodd;clip-rule:evenodd;fill:#524C45;" d="M257.5,53.2c1.667-0.1,2.4,0.517,2.2,1.85
				c-0.2,1.233-0.8,2.067-1.8,2.5c-0.7,0.3-1.367,0-2-0.9l-0.75-1.45c0-0.3,0.1-0.617,0.3-0.95
				C255.816,53.583,256.5,53.233,257.5,53.2z"/>
			<path style="fill-rule:evenodd;clip-rule:evenodd;fill:#524C45;" d="M265.25,58.35c0.767,0,1.167,0.2,1.2,0.6
				c0.033,0.366-0.233,0.783-0.8,1.25c-0.7,0.533-1.467,0.366-2.301-0.5c0.034-0.233,0.134-0.45,0.301-0.65
				C263.983,58.583,264.517,58.35,265.25,58.35z"/>
			<path style="fill-rule:evenodd;clip-rule:evenodd;fill:#524C45;" d="M293.45,42.05c0.434,0,0.833,0.333,1.2,1
				c0.333,0.667,0.3,1.1-0.101,1.3c-0.366,0.2-0.733,0.233-1.1,0.1c-0.566-0.267-1.134-0.5-1.7-0.7c-0.8-0.267-0.9-0.617-0.3-1.05
				C292.017,42.267,292.684,42.05,293.45,42.05z"/>
		</g>
		<path style="fill-rule:evenodd;clip-rule:evenodd;fill:#57351D;" d="M106.2,95.2l4.85-1.45c1.934-1.934,3.067-3.384,3.4-4.35
			c0.233-0.801,1.183-0.2,2.85,1.8c1.633,2,2.117,3.333,1.45,4l-1.4,1.45l-3.4,2.399L112,102.4h-3.85l-4.85-8.2L106.2,95.2z"/>
		<path style="fill-rule:evenodd;clip-rule:evenodd;fill:#57351D;" d="M89.3,95.65c0.4-0.101,1.983-1.2,4.75-3.301
			c2.267-1.733,3.583-2.233,3.95-1.5c0.433,0.834,0.417,1.801-0.05,2.9c-0.267,0.634-0.883,1.6-1.85,2.9
			c-0.5,0.633-0.9,1.433-1.2,2.399c-0.367,0.967-0.783,1.767-1.25,2.4c-0.967,1.3-2.566,2.75-4.8,4.35l-1.95,2.9l-3.85-1.45
			l-1.95,0.5c-1.1,0.3-1.9,0.517-2.4,0.65c-0.8,0.199-1.6,0.3-2.4,0.3c-0.8,0-2.417-0.884-4.85-2.65L68.1,103.4l2.15,0.75
			c1.767,0.466,3.45,0.699,5.05,0.699c1.633,0,2.55-0.133,2.75-0.399c0.267-0.867,0.8-1.867,1.6-3
			c0.833-1.134,1.267-1.584,1.3-1.351c0.1,0.733,0.633,1.017,1.6,0.851c1.1-0.167,1.867-0.5,2.3-1c0.6-0.733,1.117-1.2,1.55-1.4
			C87.7,97.917,88.667,96.95,89.3,95.65z"/>
		<path style="fill-rule:evenodd;clip-rule:evenodd;fill:#57351D;" d="M61.35,95.85L60.4,100.7l-6.3-1l-2.9-5.75l3.85,2.399
			l2.05-0.05C58.733,96.2,60.15,96.05,61.35,95.85z"/>
		<path style="fill-rule:evenodd;clip-rule:evenodd;fill:#57351D;" d="M183.45,85.5c0.333,0,2.267-1.6,5.8-4.8l-0.45,6.25l-1,3.899
			l-5.3,4.351c-1.267-0.334-2.384-1.15-3.35-2.45l-1.95-2.4c0.533-0.8,1.2-1.6,2-2.399C180.767,86.316,182.184,85.5,183.45,85.5z"/>
		<path style="fill-rule:evenodd;clip-rule:evenodd;fill:#57351D;" d="M142.9,111.6l2.05-0.1c1.633-0.167,3.05-0.45,4.25-0.85
			c1.2-0.4,2.333-0.601,3.4-0.601c0.633,0,1.75,0.033,3.35,0.101c1.133,0,1.8-0.601,2-1.801c0.367-2.166,0.667-3.5,0.9-4
			c0.367-0.767,0.633-1.566,0.8-2.399c0.034-0.3,0.417-0.634,1.15-1l3.851-2.9v8.25c0,1.634-0.15,2.55-0.45,2.75
			c-0.2,0.167-0.7,0.367-1.5,0.601l-2.35,2.199c-1.133,1.067-2.283,1.784-3.45,2.15c-1.133,0.366-2.15,0.483-3.05,0.35
			c-1.567-0.233-2.483-0.35-2.75-0.35c-1,0-2.667-0.4-5-1.2L142.9,111.6z"/>
		<path style="fill-rule:evenodd;clip-rule:evenodd;fill:#57351D;" d="M224.5,107.75c0.967-0.967,1.616-4.35,1.95-10.15h1.95
			l4.3,7.25l-0.95,4.801c-1.267,1.633-3.033,2.933-5.3,3.899c-1.134,0.467-1.8,0.717-2,0.75c-0.601,0.134-1.867,0.517-3.8,1.15
			c-2.134,0.7-3.584,0.95-4.351,0.75c-1.666-0.5-3.6-0.75-5.8-0.75c-3.333,0-4.316-0.316-2.95-0.95c1.4-0.634,2.717-0.95,3.95-0.95
			c0.967,0,3.7-0.649,8.2-1.95L224.5,107.75z"/>
		<path style="fill-rule:evenodd;clip-rule:evenodd;fill:#704225;" d="M93.2,87.45l-1.4,2.3c-1.2,1.6-2.517,2.6-3.95,3
			c-1.267,0.366-2.233,1.283-2.9,2.75c-0.833,1.7-1.467,2.717-1.9,3.05c-0.8,0.601-2.683,0.867-5.65,0.8
			c-3.167-0.199-5.15-0.3-5.95-0.3c-1,0-0.817-0.316,0.55-0.95c0.7-0.333,1.483-0.666,2.35-1l2.25-0.6
			c1.667-0.467,3.017-0.9,4.05-1.3c0.733-0.3,1.533-0.95,2.4-1.95c1-1.2,2.25-2.267,3.75-3.2c1.767-1.133,3.367-1.899,4.8-2.3
			C92.3,87.55,92.833,87.45,93.2,87.45z"/>
		<polygon style="fill-rule:evenodd;clip-rule:evenodd;fill:#704225;" points="156.45,97.6 152.1,104.35 148.7,108.2 146.8,102.9 
			149.65,98.55 		"/>
		<path style="fill-rule:evenodd;clip-rule:evenodd;fill:#704225;" d="M136.65,96.15l-1.45,5.8l-2.9-1.95
			c0.167-0.467,0.467-0.983,0.9-1.55C134.1,97.316,135.25,96.55,136.65,96.15z"/>
		<path style="fill-rule:evenodd;clip-rule:evenodd;fill:#704225;" d="M214.35,96.15c0.634-0.634,2.483-0.567,5.551,0.199
			c3.399,0.834,4.3,1.25,2.699,1.25c-2.066,0-4.816,1.45-8.25,4.351c-1.899,1.6-3.5,3.05-4.8,4.35l0.95-6.3L214.35,96.15z"/>
	</g>
	<path style="fill-rule:evenodd;clip-rule:evenodd;fill:#4A2D1C;" d="M170.05,19.9l0.3,2c0.233,1.434,0.483,2.35,0.75,2.75
		l0.101,0.15l0.55-1.1c0.2-0.067,0.366-0.2,0.5-0.4c0.233-0.4,0.184-0.966-0.15-1.7c-0.533-0.367-1.033-0.75-1.5-1.15L170.05,19.9z
		 M52.4,15.5c0,0.3-0.167,0.383-0.5,0.25c0.067,0.633,0.233,1.2,0.5,1.7l1.05,2L52.4,15.5z M302.7,3.45l1.149-0.3
		c-0.033,0.233-0.017,0.767,0.051,1.6c9.1-1.533,13.899-2.3,14.399-2.3c0.334,0,0.95,0.583,1.851,1.75c1,1.267,1.5,2.35,1.5,3.25
		c0,1.333-0.4,2.9-1.2,4.7l-0.5-4.35l-2,1.65c-0.767,0.667-2.867,1.4-6.3,2.2l1.5-4.35c-0.801,0.233-1.917,0.4-3.351,0.5
		c-1.233,0.067-1.899,0.017-2-0.15l0.351,2.3L307.3,9.3l-3.2-1.95c0.167,1.466,0.233,2.483,0.2,3.05
		c0.134,2.434-0.283,2.967-1.25,1.6c-1.399-2.033-2.166-3.05-2.3-3.05c-0.434,0.033-0.983,0.033-1.65,0l-0.899-0.1l2.3,2.6
		c-1.667-0.333-2.967-0.7-3.9-1.1c-0.566-0.267-1.133-0.567-1.699-0.9L294.25,9l0.65,1.95c0.466,1.333,0.866,2.183,1.199,2.55
		l0.801,0.85c-1.233-0.434-2.417-0.95-3.551-1.55L293,15.7c-0.134,0.7-0.717,1.3-1.75,1.8c-1.267,0.566-2.1,1.15-2.5,1.75
		c-0.833,1.267-1.7,2.017-2.6,2.25v2.25l-1.25,2.9l-0.25,1.25c-0.167,0.934-0.217,1.617-0.15,2.05c0.134,1,0.3,1.933,0.5,2.8
		c0.4,2.133,0.6,4.283,0.6,6.45c0,1.066,0.284,5.216,0.851,12.45c-0.334-1.233-0.5-2.383-0.5-3.45c0-0.567-0.217-1.517-0.65-2.85
		c-0.434-1.333-0.649-2.2-0.649-2.6c0-0.6-0.233-1.5-0.7-2.7c-0.434-1.066-0.834-1.883-1.2-2.45c-0.233-0.333-0.467-0.934-0.7-1.8
		c-0.3-1.066-0.616-1.966-0.95-2.7c-0.333-0.8-0.783-1.4-1.35-1.8c-0.934-0.7-1.866-1.617-2.8-2.75c-1.2-1.466-1.517-2.433-0.95-2.9
		l1.25-0.3c0.3-0.367,0.517-0.817,0.65-1.35c0.3-1.133,0.083-2.184-0.65-3.15c-0.533-0.733-1.517-1.5-2.95-2.3
		c-1.6-0.9-3.083-1.417-4.45-1.55c-1.166-0.133-1.833-0.317-2-0.55c-0.033-0.3-0.199-0.583-0.5-0.85c-0.333-0.3-1.533-0.833-3.6-1.6
		l-2.65-0.1l4.351,2.45c-2.033,0.5-3.934,0.367-5.7-0.4c-1.066-0.467-2.033-0.95-2.9-1.45l-1-0.6l0.2,1.55
		c0.2,1.133,0.45,1.933,0.75,2.4l0.7,1.1c-1.333-0.3-2.467-0.967-3.4-2c-0.6-0.634-1.216-1.35-1.85-2.15l-0.75-1.05l-0.3,1.4
		c-0.167,1.033-0.217,1.883-0.15,2.55l0.15,1.65c-1.367-0.5-2.334-1.383-2.9-2.65l-0.85-1.85c-1.134,2.267-2.134,3.667-3,4.2
		l-1.3,0.75c0.133-0.433,0.1-1.183-0.101-2.25l-0.25-1.05l-1.25,0.5c-0.767,0.633-1.566,1.033-2.399,1.2l-1.801,1
		c-0.267,0.6-0.399,1.167-0.399,1.7l0.05,1.75c-0.767-0.633-1.384-1.333-1.85-2.1c-1,0.633-1.667,1.167-2,1.6
		c-0.2,0.333-0.684,0.917-1.45,1.75c-0.566,0.767-0.733,1.35-0.5,1.75l0.649,1l-2.3,5.1c-0.333,0.7-0.633,1.25-0.899,1.65
		c-0.434,0.633-0.65,2.033-0.65,4.2c0,0.633-0.1,1.7-0.3,3.2l0.2,1.1c0.066,0.8-0.117,1.4-0.551,1.8
		c-0.633,0.633-1.05,1.383-1.25,2.25l-2.899-10c-0.367-0.7-1.017-2.25-1.95-4.65l-1.3-3.35c-3.634-1.534-5.783-2.4-6.45-2.6
		c-0.566-0.133-0.983-0.267-1.25-0.4c-0.4-0.167-0.733-0.467-1-0.9c-0.267-0.4-0.934-1.15-2-2.25l-1.5-1.5l-0.15,1.15
		c-1.033-0.2-1.666-0.8-1.899-1.8l-0.05-0.2l-1.15-0.5c-1.233,2.033-2.217,3.216-2.95,3.55l-1.399,0.7
		c0.899-1.3,1.333-2.317,1.3-3.05l-0.05-2.3c-0.467,1.633-1.167,2.7-2.101,3.2l-1.35,0.8c0.267-1.167,0.283-2,0.05-2.5l-0.3-0.75
		l-1.25,1.05c-0.9,0.833-1.5,1.483-1.8,1.95c-0.5,0.767-0.9,1.45-1.2,2.05c-0.367-1.333-0.5-2.467-0.4-3.4
		c0.033-0.567,0.117-1.05,0.25-1.45l0.15-0.45l-0.75,0.5c-0.667,0.433-1.384,1-2.15,1.7c-1.233,1.133-2.05,1.75-2.45,1.85l0.4-2
		c-0.3,0.033-0.634,0.117-1,0.25c-0.7,0.267-1.184,0.667-1.45,1.2c-0.399,0.833-0.85,1.466-1.35,1.9
		c-0.334-0.733-0.467-1.65-0.4-2.75c0.033-0.7,0.117-1.283,0.25-1.75l0.15-0.55c-2.033,2-3.617,3.316-4.75,3.95l-1.65,0.9L179.4,20
		l-0.45,0.25c-0.2,0.667-0.417,1.133-0.65,1.4c-0.267,0.233-0.5,0.8-0.7,1.7c-0.166,0.7-0.416,1.05-0.75,1.05
		c-0.267,0-0.616,0.117-1.05,0.35c-0.434,0.2-0.95,0.3-1.55,0.3c-0.667,0-1.35,0.317-2.05,0.95c-0.334,0.333-0.617,0.65-0.851,0.95
		l-0.1-0.25c-0.167,0.1-0.45,0.833-0.85,2.2l-0.351-1.95L171,25.2c-2.467-1.534-3.967-2.8-4.5-3.8l-1.8-3.1l-0.2,1.65
		c-0.134,1.2-0.184,2.116-0.15,2.75l0.051,2c-1.267-0.7-2.334-1.667-3.2-2.9c-0.534-0.767-0.95-1.517-1.25-2.25l-0.25-0.85
		l-0.55,1.55c-0.533,1.133-1.15,1.933-1.85,2.4l-0.85,0.6l0.75,0.8c0.633,0.667,1.167,1.534,1.6,2.6l-0.95,1.9l-3.25-1.25
		c-0.2-0.1-1.317-0.583-3.35-1.45c-1.1-0.467-1.583-0.95-1.45-1.45c0.067-0.3,0.233-0.633,0.5-1c0.233-0.3,0.35-0.6,0.35-0.9
		c-0.6,0.233-1.267,0.417-2,0.55l-0.9,0.15c1.033-1.034,1.633-1.934,1.8-2.7l0.2-0.75L149.4,19c-2.6,1.533-4.35,2.383-5.25,2.55
		l-1.75,0.3c0.7-1.133,1.05-1.9,1.05-2.3v-0.3l-1.1,0.8c-1.267,1.067-2.1,1.65-2.5,1.75l0.45-1.95L140,19.8
		c-1.1,0.167-1.833,0.6-2.2,1.3c-0.433,0.833-0.917,1.45-1.45,1.85c-0.3-0.767-0.383-1.684-0.25-2.75c0.1-0.7,0.217-1.284,0.35-1.75
		l0.2-0.5c-2.133,1.866-3.783,3.083-4.95,3.65l-1.75,0.85l1.35-3.5c-1.267,0.667-2.267,0.95-3,0.85c-0.3,0.833-0.633,1.5-1,2
		l0.15,0.35l-0.3-0.15c-0.3,0.467-0.583,0.833-0.85,1.1l0.3,2.25l-0.3,2.25c-0.233,0.867-0.45,2.05-0.65,3.55l-0.35,2.55l-2.85-2.9
		l1.25-2.25c0.133-0.833,0.183-1.667,0.15-2.5c-0.033-1.733-0.4-2.683-1.1-2.85l0.6,1c-2.767-1.733-4.45-3.233-5.05-4.5l-1.65-3.2
		l-0.25,1.65c-0.2,1.2-0.3,2.117-0.3,2.75l-0.05,2c-1.233-0.767-2.25-1.783-3.05-3.05c-0.533-0.8-0.917-1.583-1.15-2.35l-0.2-0.85
		c-0.566,1.833-1.433,3.117-2.6,3.85l-1.75,1.1c0.034-1,0-1.833-0.1-2.5c-0.034-0.434-0.167-0.95-0.4-1.55l-0.3-0.75
		c-0.767,1.167-1.733,2.067-2.9,2.7c-1.167,0.667-2.533,1.017-4.1,1.05c1.067-0.966,1.717-1.833,1.95-2.6l0.35-1.75
		c-2.733,1.533-4.683,2.366-5.85,2.5l-1.7,0.25c0.733-1.067,1.117-1.817,1.15-2.25v-0.65c-0.1,0.267-0.333,0.483-0.7,0.65
		c-0.733,0.366-1.75,0.383-3.05,0.05L88.5,15.9l3.7,3.35c-2.1,0.066-3.917-0.467-5.45-1.6c-0.967-0.7-1.817-1.383-2.55-2.05
		l-0.8-0.8l-0.15,1.55c-0.067,1.133,0,1.966,0.2,2.5l0.45,1.25c-1.233-0.6-2.2-1.5-2.9-2.7c-0.433-0.733-0.867-1.566-1.3-2.5
		l-0.5-1.2L78.6,15c-0.4,0.967-0.65,1.783-0.75,2.45l-0.2,1.65c-1.233-0.8-1.983-1.867-2.25-3.2l-0.45-2
		c-1.6,1.967-2.867,3.1-3.8,3.4l-1.45,0.5c0.233-0.433,0.367-1.183,0.4-2.25V13.9c-1.167,1-2.467,1.483-3.9,1.45l-1.7-0.05
		l-0.2,1.35c-0.433-0.233-0.933-0.417-1.5-0.55c-1.133-0.233-2.05-0.117-2.75,0.35l-1.7,1.2l-0.4,1.05
		c-0.167,0.733,0.083,1.233,0.75,1.5l1.6,0.65l1.3,3.55l0.3,2.25v0.2c-0.267-1.5-1.55-2.317-3.85-2.45
		c-1-0.066-2.183-0.333-3.55-0.8c-1.5-0.534-2.25-1.017-2.25-1.45c0-0.4,0.2-0.967,0.6-1.7l0.6-1c-0.6-0.367-1.217-0.817-1.85-1.35
		c-1.233-1.034-1.95-1.95-2.15-2.75c-0.233-1-0.367-1.8-0.4-2.4L48.4,12.4c-1.066,1.333-1.6,2.467-1.6,3.4l-0.05,1.75
		c-1.333-1.2-2.033-2.35-2.1-3.45v-0.05L42.6,15.4l0.05-1.1l-2.75,1.5c0.567-1.233,0.9-2.15,1-2.75l-4.85,2.35
		c0.5-0.933,0.784-1.783,0.85-2.55l-0.65-0.55l-0.05-0.1c-1.133,0.833-2.267,1.333-3.4,1.5l-2.2,0.35l0.95-1.35
		c-0.133,0.133-0.966,0.183-2.5,0.15H28.6l-1.15,0.85l0.05,0.55c0,0.467-0.033,0.9-0.1,1.3l0.05,0.05
		c0.066,0.066,0.05,0.117-0.05,0.15c-0.2,1.1-0.6,1.717-1.2,1.85c-0.633-1.067-1.383-2.034-2.25-2.9
		c-0.767-0.767-1.583-1.417-2.45-1.95l-0.2,2.2c-0.566,0-1.183-0.333-1.85-1c-0.4-0.4-0.567-0.983-0.5-1.75l0.2-1.05
		c-1.333,0.533-2.5,0.75-3.5,0.65c-0.633-0.066-1.233-0.45-1.8-1.15l-0.7-1l1.3,7L10.3,14.8c-0.566-0.267-1.517-1.066-2.85-2.4
		l-1.8-1.95l-2.6,2.45l0.1-6.6c12.434,0.1,18.867,0.217,19.3,0.35c0.2,0.033,0.5,0.417,0.9,1.15l0.75-1.75
		c0.333,0.2,0.767,0.367,1.3,0.5l4.2,0.1C36.333,7.316,39.8,7.667,40,7.7l1.5,0.05c1.767,0.033,3.583,0,5.45-0.1
		c0.4,0,1.4-0.083,3-0.25c1.566-0.2,2.816-0.283,3.75-0.25C54.667,7.183,56.1,7.467,58,8c1.067,0.3,2.5,0.733,4.3,1.3
		c2.333,0.133,5.667,0.3,10,0.5l-0.15,0.25l0.6,0.05V10L72.7,9.8l3.5,0.15l-0.45,0.5l1.5,0.1c0-0.1,0.567-0.133,1.7-0.1
		c1.133,0,1.65,0.05,1.55,0.15h2.15c0.033-0.067,0.483-0.15,1.35-0.25c0.9-0.1,1.633-0.133,2.2-0.1l-0.3,0.35
		c1.434,0,2.45,0.05,3.05,0.15c0.033-0.067,0.183-0.033,0.45,0.1c0.3,0.1,0.434,0.167,0.4,0.2c0.867,0.333,1.567,0.517,2.1,0.55
		c0.233,0,0.717,0.033,1.45,0.1c0.467,0.033,1.133,0.017,2-0.05c0.733-0.066,1.7-0.217,2.9-0.45c1-0.1,1.85,0,2.55,0.3
		c0.567,0.267,1.117,0.566,1.65,0.9c0.466,0.2,1.216,0.4,2.25,0.6c0.533,0.1,2.066,0.15,4.6,0.15c2.2,0,3.983,0.184,5.35,0.55
		c1.567,0.433,3.283,0.716,5.15,0.85c1.434,0.133,2.434,0.167,3,0.1c0.2-0.033,1.133,0,2.8,0.1c2.1,0.1,4.033,0.117,5.8,0.05
		c1.833-0.066,3.05-0.15,3.65-0.25c1.4-0.267,2.317-0.433,2.75-0.5c2.333-0.267,5.134-0.316,8.4-0.15c0.767-0.1,1.466-0.066,2.1,0.1
		l0.75,0.05l-0.15,0.15c0.467,0.233,0.95,0.483,1.45,0.75c0.467,0.167,1.2,0.3,2.2,0.4c0.6,0.1,2.134,0.083,4.6-0.05
		c2.233-0.1,4.034,0,5.4,0.3c0.601-0.1,1.101-0.233,1.5-0.4l-0.8,0.5c0.733,0.167,1.866,0.316,3.4,0.45L166.5,16l14.5-0.3
		c0.934-0.1,1.667-0.217,2.2-0.35c0.8-0.233,1.633-0.417,2.5-0.55c2.267-0.4,6.017-0.6,11.25-0.6c1.333,0.033,2.883-0.1,4.649-0.4
		c1.9-0.3,3.301-0.45,4.2-0.45c0.934-0.034,1.584-0.133,1.95-0.3c0.333-0.167,1.3-0.25,2.9-0.25h0.899l1.05-1.4l0.551,0.55
		c0.533,0.366,1.199,0.633,2,0.8l4.199-0.15c1.233,0.1,3.2,0.216,5.9,0.35l-0.05-0.05c0.833-0.167,2.033-0.217,3.6-0.15
		c0.566,0.033,1.917,0.133,4.05,0.3c1.101-0.066,2.384-0.167,3.851-0.3c0.934-0.033,2.916-0.3,5.95-0.8
		c1.966-0.367,3.383-0.567,4.25-0.6c0.933,0,2.466-0.267,4.6-0.8l3.85-0.85c7.301-2.233,12.134-3.45,14.5-3.65
		c2.567-0.2,6.801-0.466,12.7-0.8c6.934-0.367,11.65-0.55,14.15-0.55C299.066,4.3,301.066,3.883,302.7,3.45z"/>
	<path style="fill-rule:evenodd;clip-rule:evenodd;fill:#466E13;" d="M302.7,1.45l1.149-0.25v0.05
		c2.034-0.667,4.084-1.083,6.15-1.25c0.8,0.066,2.6,0.117,5.4,0.15c2.366,0.167,4.583,1,6.649,2.5c0.434,0.733,0.601,1.583,0.5,2.55
		c-0.066,1.233-0.1,1.866-0.1,1.9l-0.3,1.4c-0.267,1-0.867,1.583-1.801,1.75l-0.1-1.1c-0.033-0.467-0.25-1.2-0.65-2.2l-0.55-1.3
		c-0.366,1.167-1.333,2.283-2.899,3.35c-1.034,0.7-2.2,1.15-3.5,1.35c-1.301,0.167-1.767,0.117-1.4-0.15
		c0.3-0.233,0.95-1.833,1.95-4.8c-0.767,0.667-1.917,0.95-3.45,0.85c-1.7,0-2.566-0.017-2.6-0.05l1.35,2.2l-1.95-0.5
		c-0.767-0.2-1.55-0.617-2.35-1.25c0.066,0.5,0.1,1.1,0.1,1.8c0.101,1.933-0.116,2.7-0.649,2.3c-0.2-0.133-0.75-0.934-1.65-2.4
		l-1.35-0.85c0-0.1-0.067-0.25-0.2-0.45L298.2,6.9l1.649,2l0.65,0.65c-1.667-0.367-2.967-0.75-3.9-1.15
		c-0.566-0.233-1.133-0.517-1.699-0.85l-0.65-0.45L294.9,9c0.466,1.367,0.866,2.233,1.199,2.6l0.801,0.85
		c-3.067-1.1-5.034-2.2-5.9-3.3l-2.3-2.75l0.1,1.65c0.066,1.233,0.167,2.15,0.3,2.75l0.4,2c-1.366-0.5-2.583-1.283-3.65-2.35
		c-0.666-0.667-1.199-1.333-1.6-2l-0.4-0.8l-0.3,1.6c-0.333,1.2-0.8,2.1-1.399,2.7l-1.45,1.45c-0.2-1-0.417-1.816-0.65-2.45
		c-0.133-0.4-0.383-0.867-0.75-1.4l-0.45-0.65l-0.55,1.15c-0.5,0.867-1.066,1.567-1.7,2.1c-0.966,0.9-2.216,1.55-3.75,1.95
		c0.834-1.2,1.267-2.2,1.301-3V9.35c-2.367,2.1-4.084,3.333-5.15,3.7l-1.65,0.6c0.5-1.2,0.7-2.017,0.601-2.45l-0.101-0.6l-0.55,0.8
		c-0.633,0.5-1.633,0.733-3,0.7l-3.2-0.15l4.351,2.45c-2.033,0.5-3.934,0.367-5.7-0.4c-1.066-0.467-2.033-0.934-2.9-1.4l-1-0.6
		l0.2,1.5c0.2,1.133,0.45,1.933,0.75,2.4l0.7,1.15c-1.333-0.333-2.467-1-3.4-2c-0.6-0.633-1.216-1.35-1.85-2.15l-0.75-1.05
		l-0.3,1.35c-0.167,1.033-0.217,1.9-0.15,2.6l0.15,1.6c-1.367-0.5-2.334-1.367-2.9-2.6l-0.85-1.9c-1.134,2.3-2.134,3.7-3,4.2
		l-1.3,0.8c0.133-0.467,0.1-1.233-0.101-2.3L242.7,14c-0.934,1.2-2.117,1.95-3.55,2.25l-1.4,0.3c-0.533,0.9-0.8,1.717-0.8,2.45
		l0.05,1.75c-1.4-1.133-2.167-2.25-2.3-3.35v-0.05l-1.95,1.45v-1.15l-2.65,1.65c0.5-1.267,0.784-2.2,0.851-2.8l-4.75,2.6
		c0.467-0.967,0.7-1.817,0.7-2.55L226.25,16l-0.05-0.1c-1.101,0.9-2.2,1.467-3.3,1.7l-2.2,0.4l0.899-1.35
		c-0.133,0.133-0.966,0.233-2.5,0.3L216,16.9l0.65,1.3c0.466,0.9,0.8,1.417,1,1.55c0.366,0.267-0.15,0.3-1.551,0.1
		c-1.466-0.233-2.75-0.717-3.85-1.45c-1.066-0.7-1.9-1.483-2.5-2.35l-0.55-1.1l-0.7,1.3c-0.467,0.967-0.717,1.683-0.75,2.15
		l-0.15,1.15c-1.033-0.233-1.666-0.85-1.899-1.85l-0.4-2c-1.566,2.8-2.816,4.433-3.75,4.9l-1.399,0.65
		c0.899-1.267,1.333-2.283,1.3-3.05l-0.05-2.25c-0.467,1.6-1.167,2.667-2.101,3.2l-1.35,0.8c0.267-1.2,0.283-2.05,0.05-2.55
		l-0.3-0.75l-1.25,1.05c-0.9,0.833-1.5,1.483-1.8,1.95c-0.5,0.767-0.9,1.45-1.2,2.05c-0.367-1.333-0.5-2.467-0.4-3.4
		c0.033-0.566,0.117-1.05,0.25-1.45l0.15-0.45l-0.75,0.5c-0.667,0.467-1.384,1.05-2.15,1.75c-1.233,1.1-2.05,1.7-2.45,1.8l0.4-2
		c-0.3,0.033-0.634,0.116-1,0.25c-0.7,0.267-1.184,0.667-1.45,1.2c-0.399,0.833-0.85,1.483-1.35,1.95
		c-0.334-0.767-0.467-1.7-0.4-2.8c0.033-0.667,0.117-1.233,0.25-1.7l0.15-0.55c-2.033,1.967-3.617,3.267-4.75,3.9l-1.65,0.95
		l1.101-3.55c-1.2,0.7-2.167,1.017-2.9,0.95l-2.55-0.55l1.8,2.95c-1.566-0.634-2.783-1.233-3.65-1.8
		c-0.533-0.333-1.033-0.717-1.5-1.15l-0.55-0.55l0.3,2c0.233,1.433,0.483,2.35,0.75,2.75l0.65,1c-2.833-1.6-4.583-3.017-5.25-4.25
		l-1.8-3.1L164.5,18c-0.134,1.233-0.184,2.167-0.15,2.8l0.051,2c-1.267-0.733-2.334-1.716-3.2-2.95
		c-0.534-0.767-0.95-1.517-1.25-2.25l-0.25-0.85l-0.55,1.55c-0.533,1.133-1.15,1.95-1.85,2.45l-1.7,1.15c-0.033-1-0.1-1.833-0.2-2.5
		c-0.066-0.4-0.233-0.9-0.5-1.5l-0.35-0.75l-0.75,1.05c-0.633,0.767-1.3,1.366-2,1.8c-1.133,0.7-2.483,1.117-4.05,1.25
		c1.033-1.033,1.633-1.934,1.8-2.7l0.3-1.75c-2.667,1.667-4.567,2.6-5.7,2.8l-1.75,0.3c0.7-1.1,1.05-1.867,1.05-2.3v-0.3l-1.1,0.85
		c-1.267,1.067-2.1,1.633-2.5,1.7l0.45-1.9L140,17.9c-1.1,0.2-1.833,0.633-2.2,1.3c-0.433,0.8-0.917,1.417-1.45,1.85
		c-0.3-0.767-0.383-1.7-0.25-2.8c0.1-0.667,0.217-1.233,0.35-1.7l0.2-0.55c-2.133,1.9-3.783,3.133-4.95,3.7l-1.75,0.8l1.35-3.45
		c-1.267,0.633-2.267,0.9-3,0.8c-0.466-0.067-1.017-0.2-1.65-0.4l-0.85-0.3l1.65,3.05c-1.534-0.7-2.717-1.35-3.55-1.95
		c-0.5-0.367-0.983-0.783-1.45-1.25l-0.55-0.55l0.2,2.05c0.2,1.433,0.417,2.35,0.65,2.75l0.6,1c-2.767-1.733-4.45-3.233-5.05-4.5
		l-1.65-3.15l-0.25,1.6c-0.2,1.2-0.3,2.116-0.3,2.75L116.05,21c-1.233-0.8-2.25-1.833-3.05-3.1c-0.533-0.8-0.917-1.566-1.15-2.3
		l-0.2-0.85c-0.566,1.833-1.433,3.1-2.6,3.8l-1.75,1.1c0.034-1,0-1.833-0.1-2.5c-0.034-0.4-0.167-0.9-0.4-1.5l-0.3-0.8
		c-0.767,1.167-1.733,2.083-2.9,2.75c-1.167,0.633-2.533,0.983-4.1,1.05c1.067-1,1.717-1.867,1.95-2.6l0.35-1.8
		c-2.733,1.533-4.683,2.383-5.85,2.55l-1.7,0.2c0.733-1.067,1.117-1.817,1.15-2.25v-0.6c-0.1,0.267-0.333,0.483-0.7,0.65
		c-0.733,0.367-1.75,0.367-3.05,0L88.5,14l3.7,3.35c-2.1,0.033-3.917-0.517-5.45-1.65c-0.967-0.7-1.817-1.367-2.55-2l-0.8-0.8
		l-0.15,1.55c-0.067,1.1,0,1.917,0.2,2.45l0.45,1.25c-1.233-0.6-2.2-1.5-2.9-2.7c-0.433-0.733-0.867-1.567-1.3-2.5l-0.5-1.15
		l-0.6,1.25c-0.4,0.967-0.65,1.8-0.75,2.5l-0.2,1.6c-1.233-0.767-1.983-1.833-2.25-3.2l-0.45-2c-1.6,1.966-2.867,3.116-3.8,3.45
		l-1.45,0.45c0.233-0.4,0.367-1.15,0.4-2.25v-1.65c-1.167,1-2.467,1.483-3.9,1.45l-1.7-0.05l-0.2,1.35l-0.7-1.35h-0.4l0.3-0.2
		c-0.3-0.7-0.5-1.3-0.6-1.8l-2.3-0.1c-1.033,1.1-1.817,1.783-2.35,2.05l0.55,0.45l1.25,0.8c-0.9-0.133-1.867-0.367-2.9-0.7l-0.3,0.2
		L57,13.8c-0.833-0.267-1.633-0.6-2.4-1l-0.15-0.1c-0.267,0.466-0.417,0.816-0.45,1.05l-0.15,1.35c-0.8-2.067-1.283-3.45-1.45-4.15
		l-0.25-0.35l-0.3,1.7c-0.1,1.267,0.083,2.333,0.55,3.2l1.05,2.05c-2.367-1.5-3.7-2.867-4-4.1c-0.2-0.8-0.35-1.634-0.45-2.5
		L48.9,9.9l-1.05,1.3c-0.7,1.033-1.05,1.917-1.05,2.65l-0.05,1.8c-1.333-1.2-2.033-2.35-2.1-3.45v-0.05L42.6,13.5l0.05-1.15
		l-2.75,1.5c0.567-1.233,0.9-2.15,1-2.75l-4.85,2.4c0.5-0.967,0.784-1.817,0.85-2.55l-0.65-0.55l-0.05-0.1
		c-1.2,0.8-2.333,1.284-3.4,1.45l-2.2,0.35l0.95-1.35c-0.167,0.167-1,0.233-2.5,0.2l-3.1-0.2l0.6,1.35c0.4,0.9,0.7,1.433,0.9,1.6
		c-2.4-0.634-4.167-1.5-5.3-2.6l-2.25,1.4c0.867-1.167,1.3-2.117,1.3-2.85c-0.233-0.233-0.417-0.55-0.55-0.95L20.5,8.15L19.9,9.3
		c-1.066,0.9-2.066,1.45-3,1.65l-2,0.45l1.4-2.15c-0.466-0.033-1.333-0.033-2.6,0c-0.934,0.033-1.784-0.133-2.55-0.5l-0.85-0.5
		c0.934,3,1.534,4.617,1.8,4.85c0.333,0.3-0.133,0.333-1.4,0.1c-1.3-0.233-2.45-0.717-3.45-1.45C6.283,11.05,5.533,10.267,5,9.4
		L4.45,8.35l-0.6,1.3c-0.434,0.934-0.667,1.633-0.7,2.1l-0.1,1.15c-0.966-0.233-1.566-0.85-1.8-1.85L1,9.65
		c0.033-0.066,0.017-0.7-0.05-1.9c-0.034-0.967,0.167-1.8,0.6-2.5C3.317,4.017,6,3.267,9.6,3c0.867-0.033,2.5,0.017,4.9,0.15
		c2.133,0.067,4.25,0.383,6.35,0.95c1.867,0.5,3.533,0.716,5,0.65c0.9-0.033,1.517-0.033,1.85,0l1.9-0.05
		c3.5,0.4,6.967,0.75,10.4,1.05l1.5,0.1c0.967,0.033,2.017,0.017,3.15-0.05c1.067-0.066,1.833-0.1,2.3-0.1
		c0.466,0,1.466-0.083,3-0.25c1.6-0.2,2.85-0.284,3.75-0.25c0.966,0.033,2.4,0.333,4.3,0.9c1.067,0.3,2.5,0.733,4.3,1.3l10,0.45
		l-0.15,0.3h0.6V8.1L72.7,7.85L76.2,8l-0.45,0.5l1.5,0.1c0-0.1,0.567-0.133,1.7-0.1s1.65,0.083,1.55,0.15h2.15
		C82.683,8.583,83.133,8.5,84,8.4c0.867-0.066,1.6-0.1,2.2-0.1l-0.3,0.4c1.733,0,2.75,0.05,3.05,0.15
		c0.033-0.067,0.183-0.05,0.45,0.05c0.3,0.1,0.434,0.167,0.4,0.2c0.967,0.367,1.667,0.55,2.1,0.55c0.067,0,0.55,0.05,1.45,0.15
		c0.467,0.034,1.133,0.017,2-0.05c0.733-0.067,1.7-0.217,2.9-0.45c1-0.133,1.85-0.033,2.55,0.3c0.567,0.267,1.117,0.566,1.65,0.9
		c0.466,0.2,1.216,0.383,2.25,0.55c0.6,0.1,2.133,0.15,4.6,0.15c2.233,0,4.017,0.183,5.35,0.55c1.567,0.433,3.283,0.733,5.15,0.9
		c1.4,0.1,2.4,0.117,3,0.05c0.133,0,1.067,0.033,2.8,0.1c2.033,0.133,3.967,0.167,5.8,0.1c3.1-0.133,5.233-0.383,6.4-0.75
		c1.934-0.267,4.733-0.333,8.4-0.2c0.767-0.1,1.466-0.067,2.1,0.1l0.75,0.05l-0.15,0.2c0.467,0.2,0.95,0.434,1.45,0.7
		c0.467,0.167,1.2,0.316,2.2,0.45c0.6,0.066,2.134,0.05,4.6-0.05c2.233-0.1,4.034-0.017,5.4,0.25c1.601,0.367,3.316,0.567,5.15,0.6
		c1.434,0.033,2.434,0,3-0.1c0.1,0,1.05,0,2.85,0c2,0,3.917-0.066,5.75-0.2c1.834-0.167,3.05-0.317,3.65-0.45
		c1.2-0.333,2.116-0.55,2.75-0.65c2.467-0.434,6.217-0.617,11.25-0.55c1.366,0,2.916-0.133,4.649-0.4c1.9-0.3,3.301-0.467,4.2-0.5
		c0.934-0.033,1.584-0.133,1.95-0.3c0.333-0.133,1.3-0.2,2.9-0.2h0.899c0.2-0.367,0.434-0.717,0.7-1.05l0.35-0.35l0.551,0.5
		c0.533,0.367,1.199,0.633,2,0.8l4.199-0.15c1.226,0.1,3.176,0.216,5.851,0.35c0.833-0.167,2.033-0.217,3.6-0.15
		c0.566,0.033,1.917,0.133,4.05,0.3l3.851-0.35c0.934-0.033,2.916-0.283,5.95-0.75c1.833-0.4,3.25-0.6,4.25-0.6
		c0.933-0.034,2.466-0.3,4.6-0.8l7.95-1.75c0.533-0.1,1.233-0.083,2.1,0.05c0.834,0.1,1.467,0.116,1.9,0.05
		c0.2-0.033,0.684-0.1,1.45-0.2c0.466-0.066,1.116-0.233,1.949-0.5c0.7-0.2,1.617-0.55,2.75-1.05
		c0.934-0.333,1.784-0.417,2.551-0.25c0.6,0.133,1.183,0.3,1.75,0.5c0.5,0.1,1.283,0.117,2.35,0.05c0.6-0.033,2.1-0.316,4.5-0.85
		c2.2-0.5,4-0.717,5.4-0.65c1.6,0.067,3.316-0.017,5.149-0.25c1.367-0.2,2.351-0.4,2.95-0.6c0.167-0.1,0.566-0.2,1.2-0.3
		c0.233-0.033,0.666-0.117,1.3-0.25h0.05C297.733,2.65,299.7,2.25,302.7,1.45z"/>
	<path style="fill-rule:evenodd;clip-rule:evenodd;fill:#57351D;" d="M314.5,18.4c0.967,1.867,1.6,3.367,1.9,4.5
		c0.3,1.067,0.199,2.967-0.301,5.7c-0.533,2.867-0.767,4.466-0.699,4.8c0.133,0.833,0.233,1.983,0.3,3.45
		c0.1,1.566,0.083,2.583-0.05,3.05c-0.167,0.667-0.25,1.833-0.25,3.5l1.149,1.55c0.8,1.1,1.25,1.917,1.351,2.45
		c0.333,1.667,0.5,3.167,0.5,4.5c0,0.667-0.084,2.583-0.25,5.75c0,0.5-0.334,0.95-1,1.35c-1.034,0.633-1.617,1.017-1.75,1.15
		c-0.434,0.434-0.95,0.583-1.551,0.45c-0.699-0.2-1.267-0.35-1.699-0.45c-0.801-0.133-1.4-0.25-1.801-0.35
		c-0.666-0.167-1.316-0.466-1.949-0.9l-3-1.75l3.25,0.25c1.333,0,2.5-0.25,3.5-0.75c0.399-0.2,0.883-0.967,1.449-2.3
		c0.534-1.467,0.884-2.367,1.051-2.7c0.199-0.4,0.267-1.133,0.199-2.2c-0.133-1.1-0.199-1.784-0.199-2.05
		c0-0.367-0.483-0.9-1.45-1.6c-1-0.733-1.684-1.033-2.05-0.9l-4,1.25c-1.834,0-3.084-0.167-3.75-0.5l-5.25-2h6.5
		c1.199,0,2.017-0.25,2.449-0.75c0.434-0.767,0.934-1.4,1.5-1.9c0.733-0.6,1.117-1.233,1.15-1.9c-0.033-0.7-0.017-1.267,0.05-1.7
		c0.134-0.667,0.2-1.75,0.2-3.25c0-0.7,0.3-1.9,0.9-3.6c0.666-1.833,1.083-3.05,1.25-3.65c0.199-0.733,0.183-1.867-0.051-3.4
		l-0.449-2.1c-1.233,1.133-2.851,1.35-4.851,0.65l-2.649-1.4h3.75c1.166,0,2.916-1.55,5.25-4.65L314.5,18.4z"/>
	<path style="fill-rule:evenodd;clip-rule:evenodd;fill:#57351D;" d="M296.15,88.65h3.75c0.267,0,0.633-0.217,1.1-0.65
		c0.634-0.634,1.233-1.116,1.8-1.45c0.733-0.399,1.117-1.233,1.15-2.5l-0.2-1.8l0.6,1.85c0.367,1.334,0.551,2.267,0.551,2.801
		c0,0.5-0.051,1.066-0.15,1.699c-0.2,1.2-0.316,1.967-0.35,2.301c-0.101,0.833-0.617,1.166-1.551,1
		c-1.033-0.334-1.683-0.5-1.949-0.5c-0.4,0-0.983-0.101-1.75-0.301c-0.801-0.233-1.384-0.466-1.75-0.699
		c-0.301-0.2-0.601-0.551-0.9-1.051L296.15,88.65z"/>
	<path style="fill-rule:evenodd;clip-rule:evenodd;fill:#57351D;" d="M319.9,69.65c0.3,0.899,0.5,2.033,0.6,3.399
		c0.1,1.601-0.017,2.8-0.35,3.601c-0.5,1.166-0.75,1.833-0.75,2l0.25,3.75c0,0.767-0.101,1.399-0.301,1.899
		c-0.199,0.5-0.6,1.117-1.199,1.851c-0.534,0.633-1.267,0.949-2.2,0.949l-1.3-0.199l-2.25-2l2.25,0.25c1-0.5,1.5-1,1.5-1.5v-4
		c0-0.534-0.167-0.851-0.5-0.95l-0.5-0.05l-2.75-2.5l1.35,0.1c1.033,0.033,1.917,0,2.65-0.1c0.733-0.101,1.366-0.584,1.899-1.45
		l0.601-1.3c0.133-0.733,0.267-1.45,0.399-2.15C319.6,69.884,319.8,69.35,319.9,69.65z"/>
	<path style="fill-rule:evenodd;clip-rule:evenodd;fill:#57351D;" d="M267.15,110.4l1.8,0.199c1.333,0.134,2.316,0.15,2.95,0.051
		c0.699-0.101,1.366-0.417,2-0.95c0.566-0.467,0.983-0.983,1.25-1.55c0.199-0.4,0.6-1.017,1.199-1.851l0.801-1.149l0.25,1.85
		c0.1,1.366-0.067,2.417-0.5,3.15c-0.367,0.633-0.684,1.366-0.95,2.199c-0.334,0.967-0.601,1.65-0.8,2.051
		c-0.301,0.633-0.934,0.816-1.9,0.55c-1.066-0.434-1.767-0.7-2.1-0.8c-0.4-0.101-1.184-0.75-2.351-1.95L267.15,110.4z"/>
	<path style="fill-rule:evenodd;clip-rule:evenodd;fill:#57351D;" d="M247.9,104.15l0.199,1.899c0.067,1.367,0,2.316-0.199,2.851
		c-0.2,0.5-0.601,0.949-1.2,1.35c-1.167,0.767-1.767,1.15-1.8,1.15c-0.5,0.399-0.95,0.533-1.351,0.399
		c-0.767-0.267-1.233-0.399-1.399-0.399c-0.534,0-1.15-0.417-1.851-1.25l-0.899-1.25l4.75-0.5
		C246.65,106.733,247.9,105.316,247.9,104.15z"/>
	<path style="fill-rule:evenodd;clip-rule:evenodd;fill:#57351D;" d="M187.65,108.2c0.333-0.767,0.716-1.533,1.149-2.3
		c0.867-1.5,1.566-2.217,2.101-2.15c0.5,0.1,1.583-0.6,3.25-2.1v4.75c0,0.533-0.134,1-0.4,1.399c-0.2,0.267-0.65,0.8-1.35,1.601
		c-0.5,0.6-0.9,1.216-1.2,1.85c-0.434,0.934-0.7,1.483-0.8,1.65c-0.733,1.233-1.65,2.066-2.75,2.5
		c-0.567,0.233-1.167,0.25-1.801,0.05c-0.133-0.033-1.033-0.384-2.699-1.05c-0.834-0.334-1.233-0.534-1.2-0.601
		c0.066-0.166-0.283-0.55-1.05-1.149c-0.934-0.733-1.467-1.45-1.601-2.15l0.101-0.85l1.25,1.25c2.666,0.166,4.333,0.083,5-0.25
		C186.316,110.316,186.983,109.5,187.65,108.2z"/>
	<path style="fill-rule:evenodd;clip-rule:evenodd;fill:#57351D;" d="M128.65,107.4l0.75,1.3c0.5,1,0.75,1.816,0.75,2.45
		c0,0.6-0.05,1.149-0.15,1.649c-0.233,1-0.35,1.533-0.35,1.601c-0.1,0.6-0.3,1.116-0.6,1.55c-0.667,0.934-1.05,1.5-1.15,1.7
		c-0.4,0.699-1.033,1-1.9,0.899c-1.3-0.333-2.5-0.55-3.6-0.649c-1.367-0.101-2.316-0.584-2.85-1.45l-0.4-1.3l1.15,0.149
		c1,0.066,2.117,0.101,3.35,0.101c1.267,0,2.233-0.334,2.9-1l0.6-1C127.983,110.566,128.483,108.566,128.65,107.4z"/>
	<path style="fill-rule:evenodd;clip-rule:evenodd;fill:#57351D;" d="M35.15,87.4l-2.25-0.75l-1.25-3.25l1.8,0.6
		c1.333,0.366,2.316,0.5,2.95,0.4c1-0.167,2.75-1,5.25-2.5l1,4.75c0.1,0.466,0.083,1.183-0.05,2.149
		c-0.133,1.167-0.2,1.867-0.2,2.101c0,0.433-0.25,1-0.75,1.699c-0.5,0.733-0.75,1.25-0.75,1.551c0,1.1-0.417,2.683-1.25,4.75
		c-0.333,0.833-1.25,1.583-2.75,2.25c-0.833-0.334-1.583-0.834-2.25-1.5c-0.333-0.334-0.917-0.784-1.75-1.351
		c-0.833-0.6-1.417-1.066-1.75-1.399c-0.4-0.4-0.733-0.934-1-1.601L29.9,94.4l0.75,0.5c0.434,0.3,1.117,0.383,2.05,0.25
		c1.1-0.134,2.167-0.551,3.2-1.25c0.934-0.634,1.717-1.983,2.35-4.051L38.9,86.9L35.15,87.4z"/>
	<path style="fill-rule:evenodd;clip-rule:evenodd;fill:#57351D;" d="M51.65,105.15c0.333,3.666,0.417,5.75,0.25,6.25
		c-0.133,0.366-0.566,0.666-1.3,0.899c-0.733,0.2-1.3,0.233-1.7,0.101c-0.3-0.101-1.017-0.584-2.15-1.45l-1.6-1.3h3.5
		C50.15,107.816,51.15,106.316,51.65,105.15z"/>
	<path style="fill-rule:evenodd;clip-rule:evenodd;fill:#704225;" d="M37.4,76.65c0.633,0,0.867,0.633,0.7,1.899
		c-0.1,0.601-0.25,1.217-0.45,1.851c-1,0.166-1.917,0.25-2.75,0.25c-0.533,0-1.066,0.05-1.6,0.149L32.65,80.9
		c0.167-0.834,0.417-1.584,0.75-2.25c0.2-0.4,0.934-0.851,2.2-1.351C36.233,77.033,36.833,76.816,37.4,76.65z"/>
	<path style="fill-rule:evenodd;clip-rule:evenodd;fill:#704225;" d="M33.4,89.4l0.05,1.25c-0.133,0.933-0.567,1.6-1.3,2
		c-0.733,0.433-1.533,0.483-2.4,0.149l-1.1-0.649l0.25-0.75c0.1-0.334,0.567-0.667,1.4-1C30.8,90.2,31.833,89.866,33.4,89.4z"/>
	<path style="fill-rule:evenodd;clip-rule:evenodd;fill:#704225;" d="M48.9,102.65l-0.45,1.699c-0.4,1.233-0.75,2.167-1.05,2.801
		c-0.3,0.633-0.683,0.899-1.15,0.8l-0.6-0.3l1-2.75C47.317,103.9,48.067,103.15,48.9,102.65z"/>
	<path style="fill-rule:evenodd;clip-rule:evenodd;fill:#704225;" d="M124.9,106l-0.15,1.9c-0.133,1.366-0.25,2.199-0.35,2.5
		c-0.1,0.333-0.5,0.6-1.2,0.8c-0.867,0.233-1.467,0.383-1.8,0.45c-0.4,0.1-0.9,0.466-1.5,1.1c-0.3,0.3-0.55,0.6-0.75,0.9v-2.5
		c0-0.534,0.167-1.101,0.5-1.7c0.133-0.2,0.5-0.7,1.1-1.5c0.3-0.4,1.083-0.851,2.35-1.351
		C123.733,106.366,124.333,106.167,124.9,106z"/>
	<path style="fill-rule:evenodd;clip-rule:evenodd;fill:#704225;" d="M187.15,101.4c-2.167,2.166-3.667,3.5-4.5,4
		c-0.834,0.5-1.75,1.166-2.75,2c-0.134-0.167-0.2-0.417-0.2-0.75c0-0.667,0.316-1.417,0.95-2.25c0.633-0.834,1.899-1.584,3.8-2.25
		C185.417,101.816,186.316,101.566,187.15,101.4z"/>
	<path style="fill-rule:evenodd;clip-rule:evenodd;fill:#704225;" d="M242.4,102.4c0.5-0.134,1.183,0.1,2.05,0.699
		c0.866,0.567,1.1,0.917,0.7,1.051c-0.301,0.1-1.317,0.633-3.051,1.6c-0.833,0.467-1.649,0.934-2.449,1.4c0-1,0.083-1.75,0.25-2.25
		c0.133-0.4,0.466-0.884,1-1.45C241.467,102.85,241.967,102.5,242.4,102.4z"/>
	<path style="fill-rule:evenodd;clip-rule:evenodd;fill:#704225;" d="M274.9,105.15l-0.5,1.399c-0.4,1-0.817,1.7-1.25,2.101
		c-0.667,0.666-2.5,0.75-5.5,0.25c1.5-0.5,2.5-1.084,3-1.75c0.3-0.4,1.1-0.851,2.399-1.351
		C273.717,105.533,274.333,105.316,274.9,105.15z"/>
</g>
</svg>
