<?xml version="1.0" encoding="iso-8859-1"?>
<!-- Generator: Adobe Illustrator 15.1.0, SVG Export Plug-In . SVG Version: 6.00 Build 0)  -->
<!DOCTYPE svg PUBLIC "-//W3C//DTD SVG 1.1//EN" "http://www.w3.org/Graphics/SVG/1.1/DTD/svg11.dtd">
<svg version="1.1" id="FlashAICB" xmlns="http://www.w3.org/2000/svg" xmlns:xlink="http://www.w3.org/1999/xlink" x="0px" y="0px"
	 width="180.75px" height="203.65px" viewBox="0 0 180.75 203.65" style="enable-background:new 0 0 180.75 203.65;"
	 xml:space="preserve">
<g>
	
		<radialGradient id="SVGID_1_" cx="69.6377" cy="176.375" r="66.1167" gradientTransform="matrix(1 0 0 -1 0 352.75)" gradientUnits="userSpaceOnUse">
		<stop  offset="0" style="stop-color:#688519"/>
		<stop  offset="1" style="stop-color:#82A921"/>
	</radialGradient>
	<path style="fill-rule:evenodd;clip-rule:evenodd;fill:url(#SVGID_1_);" d="M139.2,169.85c0.1,0.334,0.1,2.5,0,6.5
		c0,5.567-6.783,10.334-20.351,14.301c-13.566,3.933-29.95,5.899-49.149,5.899c-18.767,0-34.884-1.899-48.35-5.7
		c-13.433-3.8-20.45-8.399-21.05-13.8H0v-7.7h4.6c4.966-3.899,13.317-7.05,25.05-9.449c11.967-2.467,25.317-3.7,40.05-3.7
		s28.1,1.233,40.1,3.7c11.7,2.399,20.05,5.55,25.05,9.449h4.101L139.2,169.85z"/>
</g>
<g>
	<path style="fill-rule:evenodd;clip-rule:evenodd;fill:#D9FB3A;" d="M118.85,156.6c13.567,3.934,20.351,8.684,20.351,14.25
		c0,5.567-6.783,10.317-20.351,14.25C105.283,189.033,88.9,191,69.7,191c-10.067,0-19.634-0.6-28.7-1.8
		c-8.767-1.167-16.4-2.8-22.9-4.9c0.2-0.533,0.067-0.916-0.4-1.149c-0.267-0.134-0.917-0.301-1.95-0.5
		c-4.6-0.934-8.233-2.45-10.9-4.551c-3.867-3.033-4.817-6.85-2.85-11.449l-0.05-0.25c3.533-4.533,11.566-8.267,24.1-11.2
		c12.7-3,27.25-4.5,43.65-4.5C88.9,150.7,105.283,152.667,118.85,156.6z"/>
	
		<radialGradient id="SVGID_2_" cx="69.7251" cy="169.8496" r="69.2271" gradientTransform="matrix(1 0 0 -0.2955 0 220.038)" gradientUnits="userSpaceOnUse">
		<stop  offset="0" style="stop-color:#5C7616"/>
		<stop  offset="0.3765" style="stop-color:#5E7816"/>
		<stop  offset="0.5569" style="stop-color:#647F17"/>
		<stop  offset="0.6941" style="stop-color:#6E8C18"/>
		<stop  offset="0.8118" style="stop-color:#7C9E1A"/>
		<stop  offset="0.9137" style="stop-color:#8EB51E"/>
		<stop  offset="1" style="stop-color:#A3D022"/>
	</radialGradient>
	<path style="fill-rule:evenodd;clip-rule:evenodd;fill:url(#SVGID_2_);" d="M139.2,169.85c0,5.567-6.783,10.317-20.351,14.25
		C105.283,188.033,88.9,190,69.7,190c-19.2,0-35.567-1.967-49.1-5.9c-13.567-3.933-20.35-8.683-20.35-14.25
		c0-5.566,6.783-10.316,20.35-14.25c13.533-3.933,29.9-5.899,49.1-5.899c19.2,0,35.583,1.967,49.149,5.899
		C132.417,159.533,139.2,164.283,139.2,169.85z"/>
	<path style="fill-rule:evenodd;clip-rule:evenodd;fill:#6E8311;" d="M131.5,167.65c0,3.933-6,7.283-18,10.05
		c-12.033,2.8-26.55,4.2-43.55,4.2c-16.967,0-31.45-1.4-43.45-4.2c-12-2.767-18-6.117-18-10.05c0-3.934,6-7.301,18-10.101
		c11.967-2.767,26.45-4.149,43.45-4.149s31.517,1.383,43.55,4.149C125.5,160.35,131.5,163.717,131.5,167.65z"/>
</g>
<g>
	<linearGradient id="SVGID_3_" gradientUnits="userSpaceOnUse" x1="15.0498" y1="180.6504" x2="123" y2="180.6504">
		<stop  offset="0" style="stop-color:#485C11"/>
		<stop  offset="1" style="stop-color:#4D6113"/>
	</linearGradient>
	<polygon style="fill-rule:evenodd;clip-rule:evenodd;fill:url(#SVGID_3_);" points="123,183.4 123,189.4 15.05,189.2 15.05,183.05 
		28.25,171.9 70.5,172.4 109.5,175.4 	"/>
</g>
<g>
	
		<radialGradient id="SVGID_4_" cx="67.75" cy="191.25" r="56.9375" gradientTransform="matrix(1 0 0 -1 0 382.5)" gradientUnits="userSpaceOnUse">
		<stop  offset="0.0235" style="stop-color:#665D21"/>
		<stop  offset="1" style="stop-color:#9F8E26"/>
	</radialGradient>
	<path style="fill-rule:evenodd;clip-rule:evenodd;fill:url(#SVGID_4_);" d="M125,190.65v3.25c-2.033,1.633-5.983,3.267-11.85,4.899
		c-11.7,3.233-27.084,4.851-46.15,4.851s-34.2-1.45-45.4-4.351c-3.5-0.933-6.4-1.95-8.7-3.05l-2.4-1.35v-3.25
		c2.233-1.033,5.45-3.467,9.65-7.301c2.1-1.933,3.967-3.75,5.6-5.449L125,190.65z"/>
	<radialGradient id="SVGID_5_" cx="67.75" cy="187.7754" r="53.0073" gradientUnits="userSpaceOnUse">
		<stop  offset="0.0078" style="stop-color:#F9EC8E"/>
		<stop  offset="0.2039" style="stop-color:#F6E786"/>
		<stop  offset="0.502" style="stop-color:#EBDB72"/>
		<stop  offset="0.8627" style="stop-color:#DBC852"/>
		<stop  offset="1" style="stop-color:#D3C045"/>
	</radialGradient>
	<path style="fill-rule:evenodd;clip-rule:evenodd;fill:url(#SVGID_5_);" d="M108,174.4c1.767,2.933,5.133,6.383,10.1,10.35
		c2.467,1.967,4.768,3.65,6.9,5.05c-2.033,1.9-5.983,3.8-11.85,5.7c-11.7,3.767-27.084,5.65-46.15,5.65s-34.2-1.584-45.4-4.75
		c-3.5-1-6.4-2.084-8.7-3.25l-2.4-1.5l2.15-1.601c1.7-1.366,3.317-2.75,4.85-4.149c2.8-2.601,5.316-5.301,7.55-8.101
		c1.1-1.399,1.917-2.533,2.45-3.399H108z"/>
	
		<radialGradient id="SVGID_6_" cx="68.0498" cy="175.0498" r="66.675" gradientTransform="matrix(1 0 0 -0.3508 0 236.4518)" gradientUnits="userSpaceOnUse">
		<stop  offset="0.0078" style="stop-color:#F9EC8E"/>
		<stop  offset="0.2039" style="stop-color:#F6E786"/>
		<stop  offset="0.502" style="stop-color:#EBDB72"/>
		<stop  offset="0.8627" style="stop-color:#DBC852"/>
		<stop  offset="1" style="stop-color:#D3C045"/>
	</radialGradient>
	<path style="fill-rule:evenodd;clip-rule:evenodd;fill:url(#SVGID_6_);" d="M108,174.4c1.767,2.767,5.133,6.166,10.1,10.199
		c2.467,2,4.768,3.733,6.9,5.2c-2.033,1.667-5.983,3.334-11.85,5c-11.7,3.334-27.084,5-46.15,5s-34.2-1.5-45.4-4.5
		c-3.5-0.967-6.4-2.017-8.7-3.149l-2.4-1.4l2.15-1.5c1.7-1.3,3.317-2.616,4.85-3.95c2.8-2.467,5.316-5.033,7.55-7.7
		c1.1-1.3,1.917-2.366,2.45-3.199H108z"/>
	
		<radialGradient id="SVGID_7_" cx="17.6001" cy="77.0498" r="116.6375" gradientTransform="matrix(1 0 0 -1 0 154.0996)" gradientUnits="userSpaceOnUse">
		<stop  offset="0.0235" style="stop-color:#665D21"/>
		<stop  offset="1" style="stop-color:#9F8E26"/>
	</radialGradient>
	<path style="fill-rule:evenodd;clip-rule:evenodd;fill:url(#SVGID_7_);" d="M110.6,176.1c-3.166,1.834-7.833,3.384-14,4.65
		c-9.433,2-20.466,2.8-33.1,2.4c-10.566-0.334-19.25-1.351-26.05-3.051c-4.634-1.133-8.7-2.699-12.2-4.699l42.9-66.45
		C95.75,152.917,109.9,175.3,110.6,176.1z"/>
</g>
<g>
	
		<radialGradient id="SVGID_8_" cx="55.605" cy="36.9604" r="101.9038" gradientTransform="matrix(0.9856 -0.169 -0.159 -1.0478 11.4212 75.2764)" gradientUnits="userSpaceOnUse">
		<stop  offset="0.0078" style="stop-color:#F9EC8E"/>
		<stop  offset="0.2941" style="stop-color:#F7E363"/>
		<stop  offset="1" style="stop-color:#D3C045"/>
	</radialGradient>
	<path style="fill-rule:evenodd;clip-rule:evenodd;fill:url(#SVGID_8_);" d="M42.05,17.8c8.1-6.933,16.467-10.4,25.1-10.4
		S84.2,10.867,92.4,17.8c7.633,6.467,14.533,15.45,20.699,26.95c5.967,11.167,10.634,23.567,14,37.2
		c3.434,13.867,5.15,27.55,5.15,41.05c0,8.634-0.684,16.967-2.05,25c-1.4,8.2-3.333,14.967-5.8,20.3
		c0.033,0.334-0.768,1.05-2.4,2.15c-2.2,1.467-5.05,2.816-8.55,4.05c-10.733,3.8-25.033,5.7-42.9,5.7c-17.733,0-33.1-2.066-46.1-6.2
		c-4.134-1.3-7.8-2.75-11-4.35c-2.434-1.367-3.717-2.084-3.85-2.15c-1.967-5-3.583-11.8-4.85-20.4C3.517,138.733,2.9,130.7,2.9,123
		c0-13.5,1.667-27.183,5-41.05c3.3-13.667,7.883-26.067,13.75-37.2C27.684,33.25,34.483,24.267,42.05,17.8z"/>
	<path style="fill-rule:evenodd;clip-rule:evenodd;fill:#B9A93F;" d="M104.7,150.95c0,10-0.934,18.883-2.8,26.649
		c-8.567,2.301-18.95,3.45-31.15,3.45c-9.5,0-17.05-0.316-22.65-0.95c-6.3-0.699-11.567-1.933-15.8-3.699
		c-1.1-5.9-1.816-10-2.15-12.301c-0.833-5.366-1.25-9.75-1.25-13.149c0-20.634,3.7-40.184,11.1-58.65
		c3.6-8.933,7.617-15.933,12.05-21c4.8-5.5,9.717-8.25,14.75-8.25s9.95,2.75,14.75,8.25c4.434,5.067,8.45,12.067,12.05,21
		C101,110.733,104.7,130.283,104.7,150.95z"/>
	<path style="fill-rule:evenodd;clip-rule:evenodd;fill:#F9EA86;" d="M103.2,152c0,4.434-0.267,8.717-0.8,12.85
		c-0.467,3.4-1.184,7.167-2.15,11.301c-4.533,1.233-8.7,2.149-12.5,2.75c-5.5,0.866-11.233,1.3-17.2,1.3
		c-17.467,0-30.383-1.783-38.75-5.351c-1.267-7.133-1.9-14.75-1.9-22.85c0-20.533,3.583-39.967,10.75-58.3
		C44.117,84.8,48,77.833,52.3,72.8c4.634-5.466,9.384-8.2,14.25-8.2c4.867,0,9.617,2.733,14.25,8.2c4.3,5.034,8.184,12,11.65,20.9
		C99.617,112.033,103.2,131.467,103.2,152z"/>
	
		<radialGradient id="SVGID_9_" cx="73.2539" cy="-47.916" r="89.8698" gradientTransform="matrix(0.2257 0.9742 0.7889 -0.2787 83.2653 -29.4186)" gradientUnits="userSpaceOnUse">
		<stop  offset="0.0078" style="stop-color:#F9EC8E"/>
		<stop  offset="0.2941" style="stop-color:#F7E363"/>
		<stop  offset="1" style="stop-color:#D3C045"/>
	</radialGradient>
	<path style="fill-rule:evenodd;clip-rule:evenodd;fill:url(#SVGID_9_);" d="M103.7,152.6c0,5.733-0.083,10.101-0.25,13.101
		c-0.267,4.366-0.8,8.217-1.601,11.55c-4.666,1.3-7.933,2.134-9.8,2.5c-6.467,1.2-13.983,1.8-22.55,1.8
		c-8.133,0-15.35-0.6-21.65-1.8c-5.367-1-10.383-2.5-15.05-4.5c-1.267-6.733-1.9-14.283-1.9-22.65c0-20.399,3.55-39.683,10.65-57.85
		c3.467-8.867,7.333-15.8,11.6-20.8c4.6-5.4,9.317-8.1,14.15-8.1c4.833,0,9.55,2.7,14.15,8.1c4.267,5,8.133,11.933,11.6,20.8
		C100.15,112.917,103.7,132.2,103.7,152.6z"/>
	<path style="fill-rule:evenodd;clip-rule:evenodd;fill:#F7F3CD;" d="M48.45,27.85c-0.5-0.633-0.55-1.467-0.15-2.5
		c1-2.633,2.934-4.05,5.8-4.25c1.1-0.067,1.933,0.233,2.5,0.9c0.5,0.633,0.65,1.434,0.45,2.4c-0.5,2.333-2.316,3.717-5.45,4.15
		C50.066,28.783,49.017,28.55,48.45,27.85z"/>
	
		<radialGradient id="SVGID_10_" cx="92.2139" cy="-41.6787" r="32.0149" gradientTransform="matrix(0.2616 0.9652 0.9652 -0.2616 80.4547 -21.8064)" gradientUnits="userSpaceOnUse">
		<stop  offset="0" style="stop-color:#7B7028"/>
		<stop  offset="1" style="stop-color:#F4E885"/>
	</radialGradient>
	<path style="fill-rule:evenodd;clip-rule:evenodd;fill:url(#SVGID_10_);" d="M85.7,101.4c0,5.433-1.817,10.067-5.45,13.9
		c-3.633,3.834-8.033,5.75-13.2,5.75c-5.133,0-9.517-1.916-13.15-5.75c-3.633-3.833-5.45-8.467-5.45-13.9
		c0-5.466,1.816-10.117,5.45-13.95c3.633-3.833,8.017-5.75,13.15-5.75c5.167,0,9.567,1.917,13.2,5.75
		C83.883,91.317,85.7,95.967,85.7,101.4z"/>
	
		<radialGradient id="SVGID_11_" cx="92.3916" cy="-41.7212" r="30.8505" gradientTransform="matrix(0.2617 0.9651 0.9651 -0.2617 80.5335 -21.8405)" gradientUnits="userSpaceOnUse">
		<stop  offset="0" style="stop-color:#7B7028"/>
		<stop  offset="1" style="stop-color:#BBA838"/>
	</radialGradient>
	<path style="fill-rule:evenodd;clip-rule:evenodd;fill:url(#SVGID_11_);" d="M85,100.65c0,5.267-1.75,9.734-5.25,13.4
		c-3.5,3.7-7.733,5.55-12.7,5.55s-9.2-1.85-12.7-5.55s-5.25-8.166-5.25-13.4c0-5.233,1.75-9.7,5.25-13.4
		c3.533-3.7,7.767-5.55,12.7-5.55c4.967,0,9.2,1.85,12.7,5.55S85,95.417,85,100.65z"/>
	
		<radialGradient id="SVGID_12_" cx="94.0654" cy="-41.6499" r="26.4324" gradientTransform="matrix(0.2615 0.9652 0.9652 -0.2615 80.4011 -21.7846)" gradientUnits="userSpaceOnUse">
		<stop  offset="0.0078" style="stop-color:#4C4A3B"/>
		<stop  offset="1" style="stop-color:#6B6541"/>
	</radialGradient>
	<path style="fill-rule:evenodd;clip-rule:evenodd;fill:url(#SVGID_12_);" d="M82.45,99.1c0,4.466-1.5,8.3-4.5,11.5
		c-3.033,3.167-6.667,4.75-10.9,4.75s-7.866-1.583-10.9-4.75c-3-3.199-4.5-7.033-4.5-11.5c0-4.5,1.5-8.333,4.5-11.5
		s6.633-4.75,10.9-4.75s7.9,1.583,10.9,4.75S82.45,94.6,82.45,99.1z"/>
	
		<radialGradient id="SVGID_13_" cx="96.583" cy="-40.3579" r="23.7106" gradientTransform="matrix(0.2689 0.9632 0.9911 -0.261 79.0319 -20.8087)" gradientUnits="userSpaceOnUse">
		<stop  offset="0.0078" style="stop-color:#A9A586"/>
		<stop  offset="1" style="stop-color:#8E8656"/>
	</radialGradient>
	<path style="fill-rule:evenodd;clip-rule:evenodd;fill:url(#SVGID_13_);" d="M81.25,99.95c0,4.033-1.383,7.467-4.15,10.3
		c-2.767,2.833-6.117,4.25-10.05,4.25c-3.9,0-7.233-1.417-10-4.25s-4.15-6.267-4.15-10.3c0-4.034,1.383-7.467,4.15-10.3
		c2.767-2.833,6.1-4.25,10-4.25c3.934,0,7.283,1.417,10.05,4.25C79.867,92.483,81.25,95.917,81.25,99.95z"/>
</g>
<g>
	<path style="fill-rule:evenodd;clip-rule:evenodd;fill:#FBF0A8;" d="M177.5,8.05c-0.1-0.066-0.184-0.117-0.25-0.15
		c0.1,0.067,0.217,0.15,0.35,0.25c-0.333-0.1-0.683-0.15-1.05-0.15c-1.066,0.067-1.95,0.583-2.649,1.55c-0.7,1-1.017,2.167-0.95,3.5
		c0.1,1.133,0.434,2.117,1,2.95l-7.8,4.45l-0.2-0.95l6.95-4c-0.567-0.833-0.884-1.817-0.95-2.95c-0.066-1.333,0.25-2.5,0.95-3.5
		c0.6-0.867,1.35-1.367,2.25-1.5c-0.601-0.033-1.267-0.033-2,0c-1.067,0.067-1.95,0.583-2.65,1.55c-0.7,1-1.017,2.167-0.95,3.5
		c0.033,1.033,0.367,2.033,1,3l-4.85,2.75l-0.25-0.95l4.25-2.45c-0.601-0.833-0.917-1.817-0.95-2.95c-0.066-1.333,0.25-2.5,0.95-3.5
		c0.666-0.967,1.533-1.483,2.6-1.55c1.634-0.067,2.834,0,3.601,0.2C176.6,7.317,177.134,7.617,177.5,8.05z M172.5,35.7
		c-0.134-0.034-0.267-0.05-0.4-0.05l0.051-0.15C172.283,35.533,172.4,35.6,172.5,35.7z M104.7,107
		c-0.101-0.167-0.184-0.333-0.25-0.5l-0.101-0.15c-0.066-0.133-0.1-0.316-0.1-0.55c0-0.267,0.033-0.467,0.1-0.6l0.101-0.15
		c0.233-0.566,0.666-1.2,1.3-1.899c2.033-2.333,6.083-5.467,12.15-9.4c7.466-4.867,11.949-7.3,13.449-7.3
		c0.567,0,1.084,0.183,1.551,0.55c-0.867-1.267-1.801-1.9-2.801-1.9c-1.5,0-6,2.433-13.5,7.3c-7.866,5.133-12.333,8.9-13.399,11.3
		l-0.15,0.2v0.399l-0.149-0.149c-0.067-0.2-0.084-0.384-0.051-0.551c-0.033-0.166-0.017-0.35,0.051-0.55l0.149-0.149
		c1.066-2.4,5.533-6.167,13.4-11.3c7.5-4.867,12-7.3,13.5-7.3c1.1,0,2.116,0.784,3.05,2.35c0.5,0.733,0.866,1.483,1.1,2.25
		c-0.6-1.066-1.366-1.6-2.3-1.6c-1.5,0-6,2.434-13.5,7.3c-4.866,3.167-8.434,5.816-10.7,7.95c-1.399,1.334-2.3,2.45-2.699,3.351
		l-0.15,0.149c-0.066,0.2-0.083,0.384-0.05,0.55C104.667,106.733,104.667,106.866,104.7,107z M134.95,94.2v-0.7
		c3.5-0.467,5.5-1.383,6-2.75c0.5-1.333,0.816-8.1,0.95-20.3c0-0.534,0-1.067,0-1.6s0.017-1.083,0.05-1.65c0-0.667,0-1.333,0-2
		c0-0.4,0-0.784,0-1.15s0-0.733,0-1.1c0-0.267,0-0.517,0-0.75c0-0.1,0-0.167,0-0.2v-0.05c0.033-4.967,0.033-10.567,0-16.8l0.8-0.05
		l0.05,17.35c-0.066,17.633-0.399,27.267-1,28.9C141.267,92.817,138.983,93.767,134.95,94.2z M134.95,95.2h0.649
		c4.9-0.3,7.65-1.267,8.25-2.9c0.834-2.3,1.15-18.117,0.95-47.45l1.05-0.05c0.101,29.9-0.233,45.9-1,48
		c-0.6,1.633-3.35,2.617-8.25,2.95h-1.649V95.2z M136.6,43.15c-0.399-0.267-0.683-0.5-0.85-0.7c-0.5-0.567-0.767-1.367-0.8-2.4
		c0-1.033,0.267-1.933,0.8-2.7c0.566-0.8,1.233-1.233,2-1.3l-4.7-15.85c0.3,0.1,0.533,0.133,0.7,0.1l4.85,16.35
		c-0.8,0.1-1.466,0.533-2,1.3c-0.533,0.767-0.8,1.683-0.8,2.75c0,1.033,0.25,1.833,0.75,2.4L136.6,43.15z M132.05,19.55L132,19.5
		c-0.2-0.067-0.35-0.15-0.45-0.25c0.101,0,0.217,0,0.351,0C131.934,19.35,131.983,19.45,132.05,19.55z M133.85,19.1
		c-0.699-0.167-1.3-0.583-1.8-1.25c-0.767-0.934-1.149-2.083-1.149-3.45s0.383-2.55,1.149-3.55c0.566-0.7,1.217-1.167,1.95-1.4
		c-0.533-0.1-1.05-0.133-1.55-0.1c-1.066,0.066-1.983,0.583-2.75,1.55c-0.767,1-1.167,2.184-1.2,3.55c0,1.433,0.3,2.583,0.9,3.45
		c0.133,0.2,0.267,0.367,0.399,0.5c-0.467-0.2-0.883-0.566-1.25-1.1c-0.6-0.867-0.883-2.017-0.85-3.45
		c0-1.367,0.383-2.55,1.149-3.55c0.767-0.966,1.684-1.483,2.75-1.55c3.601-0.167,5.7,0.4,6.301,1.7
		c-0.601-0.467-1.284-0.684-2.051-0.65c-1.066,0.067-1.983,0.583-2.75,1.55c-0.767,1-1.166,2.183-1.199,3.55
		c0,1.367,0.383,2.517,1.149,3.45C133.283,18.65,133.55,18.9,133.85,19.1z M154.1,14.65l1.851-4.85c-1.267-1.066-1.934-2.517-2-4.35
		c-0.033-1.434,0.35-2.684,1.149-3.75c0.767-1.067,1.733-1.633,2.9-1.7c1.7-0.067,3,0.033,3.9,0.3c0.666,0.2,1.199,0.517,1.6,0.95
		c-0.4-0.133-0.816-0.2-1.25-0.2c-1.167,0.067-2.15,0.633-2.95,1.7c-0.767,1.033-1.133,2.283-1.1,3.75
		c0.066,1.833,0.733,3.283,2,4.35l-3.601,9.3l-0.649-1.45l3.2-8.35c-1.233-1.033-1.884-2.483-1.95-4.35
		c-0.033-1.433,0.333-2.683,1.1-3.75c0.667-0.9,1.467-1.433,2.4-1.6c-0.566-0.066-1.184-0.083-1.851-0.05
		c-1.166,0.066-2.149,0.633-2.949,1.7c-0.767,1.067-1.134,2.333-1.101,3.8c0.066,1.833,0.717,3.267,1.95,4.3l-2.1,5.45L154.1,14.65z
		 M147.5,11.85c0.3,0.167,0.634,0.283,1,0.35l-1.45,9.1l-4.1-1.9l1.25-7.9c0.3,0.133,0.6,0.233,0.899,0.3l-1.25,8l2.2,1L147.5,11.85
		z M147.15,11.6c-0.834-0.233-1.551-0.767-2.15-1.6c-0.667-0.967-1-2.1-1-3.4c-0.033-1.467,0.366-2.733,1.2-3.8
		c0.666-0.9,1.483-1.433,2.45-1.6c-0.567-0.034-1.2-0.034-1.9,0c-1.167,0.066-2.15,0.617-2.95,1.65
		c-0.833,1.066-1.233,2.333-1.2,3.8c0,1.3,0.334,2.434,1,3.4c0.2,0.267,0.4,0.5,0.601,0.7c-0.533-0.3-1-0.733-1.4-1.3
		c-0.666-0.967-1.017-2.1-1.05-3.4c0-1.466,0.4-2.733,1.2-3.8c0.833-1.067,1.833-1.633,3-1.7c1.833-0.066,3.083-0.033,3.75,0.1
		c0.7,0.167,1.217,0.467,1.55,0.9c-0.233-0.1-0.483-0.183-0.75-0.25c-0.033,0-0.066,0-0.1,0c0.3,0.1,0.6,0.25,0.899,0.45
		c-0.333-0.1-0.7-0.15-1.1-0.15c-1.167,0.066-2.167,0.633-3,1.7c-0.834,1.067-1.233,2.333-1.2,3.8c0.033,1.3,0.384,2.433,1.05,3.4
		C146.384,10.967,146.75,11.333,147.15,11.6z M140.6,44.45c-0.566-0.133-1.066-0.483-1.5-1.05c-0.6-0.767-0.899-1.7-0.899-2.8
		c0-1.033,0.267-1.934,0.8-2.7c0.533-0.8,1.184-1.25,1.95-1.35L135.8,19.7c0.3,0,0.566-0.05,0.8-0.15L142,37.1
		c-0.767,0.1-1.434,0.533-2,1.3c-0.533,0.8-0.8,1.717-0.8,2.75c0,1.1,0.3,2.017,0.899,2.75C140.267,44.1,140.434,44.283,140.6,44.45
		z"/>
	<path style="fill-rule:evenodd;clip-rule:evenodd;fill:#F7E25E;" d="M105.05,107.65c-0.066-0.101-0.116-0.2-0.149-0.301
		l-0.15-0.199c-0.033-0.067-0.05-0.117-0.05-0.15c-0.033-0.134-0.033-0.267,0-0.4c-0.033-0.166-0.017-0.35,0.05-0.55l0.15-0.149
		c0.399-0.9,1.3-2.017,2.699-3.351c2.267-2.133,5.834-4.783,10.7-7.95c7.5-4.867,12-7.3,13.5-7.3c0.934,0,1.7,0.534,2.3,1.6
		c0.067,0.167,0.15,0.35,0.25,0.55c0.334,0.7,0.534,1.4,0.601,2.1v1.95v0.7v1v0.55h1.649c4.9-0.333,7.65-1.317,8.25-2.95
		c0.767-2.1,1.101-18.1,1-48l-1.05,0.05l-2.55,0.1c-0.6,0.033-1.15-0.133-1.65-0.5c-0.166-0.167-0.333-0.35-0.5-0.55
		c-0.6-0.733-0.899-1.65-0.899-2.75c0-1.033,0.267-1.95,0.8-2.75c0.566-0.767,1.233-1.2,2-1.3l-5.4-17.55
		c-0.233,0.1-0.5,0.15-0.8,0.15c-0.733,0.033-1.383-0.167-1.95-0.6c-0.3-0.2-0.566-0.45-0.8-0.75
		c-0.767-0.934-1.149-2.083-1.149-3.45c0.033-1.367,0.433-2.55,1.199-3.55c0.767-0.967,1.684-1.483,2.75-1.55
		c0.767-0.033,1.45,0.184,2.051,0.65c0.233,0.167,0.466,0.383,0.699,0.65c0.767,0.933,1.15,2.083,1.15,3.45
		c0,1.133-0.267,2.15-0.8,3.05l4,1.8l4.1,1.9l1.45-9.1c-0.366-0.067-0.7-0.184-1-0.35c-0.134-0.1-0.25-0.184-0.35-0.25
		c-0.4-0.267-0.767-0.633-1.101-1.1c-0.666-0.967-1.017-2.1-1.05-3.4c-0.033-1.467,0.366-2.733,1.2-3.8
		c0.833-1.066,1.833-1.633,3-1.7c0.399,0,0.767,0.05,1.1,0.15c0.233,0.067,0.45,0.15,0.65,0.25c0.467,0.233,0.883,0.583,1.25,1.05
		c0.866,1,1.316,2.233,1.35,3.7c0.066,1.467-0.35,2.783-1.25,3.95l1.8,3.95l0.551,1.2l1.3,2.85l0.649,1.45l3.601-9.3
		c-1.267-1.067-1.934-2.517-2-4.35c-0.033-1.467,0.333-2.717,1.1-3.75c0.8-1.067,1.783-1.633,2.95-1.7c0.434,0,0.85,0.067,1.25,0.2
		c0.634,0.2,1.233,0.6,1.8,1.2c0.867,1,1.334,2.233,1.4,3.7c0.066,1.133-0.15,2.184-0.65,3.15c-0.467,0.934-1.116,1.6-1.95,2
		l1.351,6.1l0.25,0.95l0.25,1.15l0.2,0.95l7.8-4.45c-0.566-0.833-0.9-1.817-1-2.95c-0.066-1.333,0.25-2.5,0.95-3.5
		c0.699-0.966,1.583-1.483,2.649-1.55c0.367,0,0.717,0.05,1.05,0.15c0.067,0,0.134,0.017,0.2,0.05c0.566,0.2,1.084,0.566,1.55,1.1
		c0.834,0.934,1.301,2.067,1.4,3.4c0.066,1.367-0.25,2.55-0.95,3.55c-0.7,1.033-1.583,1.567-2.649,1.6
		c-0.334,0-0.584-0.033-0.75-0.1l-4.25,17.75l-0.051,0.15c0.134,0,0.267,0.017,0.4,0.05c0.6,0.133,1.15,0.5,1.65,1.1
		c0.566,0.733,0.883,1.617,0.949,2.65c0.067,1.066-0.183,2-0.75,2.8c-0.533,0.833-1.216,1.267-2.05,1.3l-4.1,0.15
		c-0.167,21.1-0.184,35.55-0.05,43.35c0.033,1.567,0.066,2.867,0.1,3.9c0.033,1,0.017,1.983-0.05,2.95
		c-0.434,4.367-2.134,8.383-5.101,12.05c-3.767,4.666-8.716,7.616-14.85,8.85c-5.033,1-9.467,1.584-13.3,1.75v5.101l-0.601,2.149
		c-0.533,1.267-1.25,1.983-2.149,2.15c-0.134,0-0.267,0-0.4,0c-1.5,0-6-2.434-13.5-7.3
		C110.733,113.717,106.316,110.05,105.05,107.65z M161.9,11.55l-0.051-0.15l-1.399,2.9v0.05l-3.7,7.85l-6.55-10.55v0.05l-0.101-0.15
		l-0.699,3.8l-1.5,8.25l-7.551-3.575L139.2,19.45l0.05,0.05l-0.5-0.2l-0.7-0.35l1.45,3.7h0.025l5.675,14.8l-0.351,0.05
		c-0.666,0-1.25,0.233-1.75,0.7l-0.05,0.05c-0.5,0.5-0.75,1.083-0.75,1.75v0.05v0.35c0,0.7,0.25,1.283,0.75,1.75
		c0.367,0.333,0.783,0.55,1.25,0.65c0.467,0.367,1.033,0.55,1.7,0.55l3-0.1c-0.134,30.833-0.35,47.25-0.65,49.25
		c-0.333,1.967-2.483,3.45-6.449,4.45c-2.534,0.6-5.551,0.966-9.051,1.1c-0.133-3.833-0.933-5.65-2.399-5.45
		c-1.733,0.233-6.45,3.05-14.15,8.45c-1.033,0.767-1.899,1.417-2.6,1.95l-0.601,0.45c-0.533,0.366-0.816,0.566-0.85,0.6
		c-0.167,0.167-0.333,0.334-0.5,0.5c-0.033,0.033-0.066,0.066-0.1,0.101c-1.334,1.5-1.217,2.949,0.35,4.35
		c1.6,1.467,4.267,3.45,8,5.95c3.2,2.133,5.65,3.649,7.35,4.55c0.934,0.5,1.717,0.85,2.351,1.05c1.033,0.533,1.75,0.816,2.149,0.851
		c0.4,0.033,0.684-0.084,0.851-0.351c0-0.066,0.017-0.133,0.05-0.2c0.333-0.866,0.5-1.316,0.5-1.35
		c0.467-0.733,0.783-1.717,0.95-2.95c0.066-0.767,0.083-1.616,0.05-2.55v-0.05l0.7-0.05v0.149c1.833,0.066,4.316-0.017,7.45-0.25
		c8.466-0.7,14.55-3.316,18.25-7.85c3.033-3.733,4.466-8.667,4.3-14.8c-0.2-8.167-0.2-24.283,0-48.35l4.649-0.15
		c0.7-0.033,1.301-0.283,1.801-0.75c0.5-0.5,0.75-1.1,0.75-1.8v-0.4c0-0.667-0.25-1.233-0.75-1.7
		c-0.367-0.367-0.801-0.583-1.301-0.65c-0.166-0.167-0.35-0.283-0.55-0.35l5.55-19.05l-1.199,0.8v-0.1L165.4,23l-3-12.85
		L161.9,11.55z M166.1,31.75c0.434,0.033,0.65,0.233,0.65,0.6c0,0.233-0.1,0.417-0.3,0.55c-0.3,0.133-0.75,0.2-1.351,0.2h-0.6
		c-0.366,0.033-0.634-0.083-0.8-0.35c-0.033-0.067-0.066-0.15-0.101-0.25c-0.166-0.767-0.25-1.567-0.25-2.4
		c0-0.633,0.084-1.45,0.25-2.45c0.034-0.367,0.267-0.566,0.7-0.6l1.3-0.05l0.301-0.05c0.399,0,0.666,0.05,0.8,0.15
		c0.133,0.066,0.2,0.233,0.2,0.5c0,0.2-0.101,0.367-0.301,0.5c-0.267,0.133-0.683,0.2-1.25,0.2l-0.5,0.05l0.051,0.9v0.4v0.2
		c0.033,0,0.083,0,0.149,0c0.367,0,0.617,0.017,0.75,0.05c0.334,0,0.5,0.167,0.5,0.5c0,0.267-0.083,0.45-0.25,0.55
		c-0.133,0.066-0.3,0.1-0.5,0.1l-0.6,0.05l0.05,0.35l0.05,0.35h0.351l0.55-0.05C165.983,31.75,166.033,31.75,166.1,31.75z
		 M157.05,27.2c0.134-0.1,0.283-0.15,0.45-0.15c0.2-0.033,0.417,0.067,0.65,0.3l0.399,0.55l0.75,0.95l0.4-0.55
		c0.467-0.566,0.733-0.867,0.8-0.9c0.1-0.1,0.184-0.167,0.25-0.2c0.167-0.133,0.333-0.2,0.5-0.2c0.533,0,0.85,0.383,0.95,1.15
		l0.05,0.1l0.6,4.1c0,0.133-0.017,0.25-0.05,0.35c-0.033,0.033-0.066,0.083-0.1,0.15c-0.134,0.1-0.334,0.15-0.601,0.15
		c-0.366,0.067-0.616-0.083-0.75-0.45c-0.033,0-0.05-0.017-0.05-0.05c-0.1-0.3-0.2-0.817-0.3-1.55c-0.134-1.133-0.2-1.717-0.2-1.75
		l-0.05-0.2c-0.434,0.6-0.767,1.05-1,1.35c-0.033,0-0.066,0.017-0.1,0.05c-0.134,0.2-0.317,0.3-0.551,0.3l-0.399-0.15l-0.351-0.45
		l-0.6-0.8l-0.15,1l-0.449,2.35c-0.067,0.367-0.284,0.55-0.65,0.55c-0.433,0-0.649-0.233-0.65-0.7l0.101-1.35
		c0.033-0.2,0.25-1.2,0.649-3l0.101-0.35C156.8,27.533,156.917,27.333,157.05,27.2z M152.7,30.6l0.649-0.05L153,29.5L152.7,30.6z
		 M150.9,32.6c0-0.067,0-0.117,0-0.15c0-0.767,0.383-2.267,1.149-4.5c0.134-0.434,0.3-0.75,0.5-0.95
		c0.167-0.167,0.334-0.25,0.5-0.25c0.334,0,0.617,0.267,0.851,0.8c0.366,0.867,0.699,1.684,1,2.45c0.233,0.7,0.416,1.333,0.55,1.9
		l0.1,0.55c0,0.133-0.017,0.267-0.05,0.4c-0.033,0.066-0.066,0.133-0.1,0.2c-0.134,0.1-0.301,0.15-0.5,0.15
		c-0.334,0-0.601-0.167-0.801-0.5c-0.033-0.067-0.066-0.15-0.1-0.25l-0.25-0.7l-1.1,0.1h-0.25L152.3,32.4
		c0,0.467-0.233,0.717-0.7,0.75C151.167,33.15,150.934,32.967,150.9,32.6z M149.95,32.7c-0.434,0.4-0.95,0.6-1.55,0.6
		c-0.467,0-0.867-0.117-1.2-0.35c-0.2-0.1-0.367-0.233-0.5-0.4c-0.533-0.566-0.8-1.316-0.8-2.25c0-0.9,0.3-1.683,0.899-2.35
		c0.634-0.667,1.384-1.017,2.25-1.05h0.05c0.934,0,1.4,0.283,1.4,0.85c0,0.233-0.066,0.417-0.2,0.55
		c-0.1,0.034-0.233,0.05-0.399,0.05L149.1,28.2c-0.466,0-0.866,0.2-1.199,0.6c-0.233,0.3-0.367,0.633-0.4,1
		c-0.033,0.133-0.05,0.284-0.05,0.45c0,0.367,0.083,0.7,0.25,1c0.033,0.067,0.066,0.117,0.1,0.15v0.05c0.2,0.3,0.45,0.45,0.75,0.45
		c0.233,0,0.45-0.1,0.65-0.3h-0.45c-0.5,0-0.75-0.233-0.75-0.7c0-0.5,0.316-0.75,0.95-0.75l0.2,0.05l0.75,0.05
		c0.033,0,0.066,0.017,0.1,0.05c0.467,0.133,0.7,0.383,0.7,0.75c0,0.534-0.2,1.034-0.601,1.5
		C150.033,32.617,149.983,32.667,149.95,32.7z M153,38.15c0.033,0.333,0.134,0.633,0.3,0.9c0,0.034,0.017,0.05,0.05,0.05
		c0.233,0.3,0.5,0.433,0.801,0.4c0.466,0,0.833-0.183,1.1-0.55c0.267-0.333,0.4-0.767,0.4-1.3c0-0.433-0.117-0.8-0.351-1.1
		c-0.233-0.4-0.55-0.583-0.95-0.55c-0.133,0-0.267,0.033-0.399,0.1c-0.2,0.066-0.384,0.217-0.55,0.45
		c-0.267,0.367-0.4,0.85-0.4,1.45C153,38.033,153,38.083,153,38.15z M156.5,35.65c0.434,0.6,0.65,1.3,0.65,2.1
		c0,0.733-0.184,1.367-0.551,1.9c-0.1,0.133-0.216,0.25-0.35,0.35c-0.566,0.567-1.267,0.85-2.1,0.85
		c-0.534,0.033-0.983-0.067-1.351-0.3c-0.267-0.133-0.5-0.333-0.7-0.6c-0.466-0.567-0.699-1.3-0.699-2.2
		c0-0.933,0.283-1.717,0.85-2.35c0.566-0.566,1.25-0.867,2.05-0.9c0.033,0,0.066,0,0.101,0c0.833,0.033,1.517,0.4,2.05,1.1
		L156.5,35.65z M159.2,40.35c-0.134,0.233-0.351,0.35-0.65,0.35c-0.399,0-0.633-0.184-0.7-0.55c-0.133-0.633-0.199-1.383-0.199-2.25
		l0.1-2.65l0.05-0.3c0.066-0.467,0.617-0.7,1.65-0.7h0.649h0.7c0.4,0,0.601,0.183,0.601,0.55c0,0.2-0.084,0.367-0.25,0.5
		c-0.2,0.133-0.45,0.217-0.75,0.25l-1.351,0.1l0.101,0.95v0.55v0.2c0.066,0,0.116,0,0.149,0c0.367,0,0.617,0.017,0.75,0.05
		c0.367,0.033,0.55,0.217,0.55,0.55c0,0.233-0.1,0.417-0.3,0.55c-0.1,0.033-0.25,0.067-0.45,0.1l-0.6,0.05l0.05,0.9v0.2
		C159.3,39.983,159.267,40.183,159.2,40.35z M158.7,52.6c-0.2,0.133-0.483,0.2-0.851,0.2c-0.666,0.034-1.283-0.083-1.85-0.35
		c-0.333-0.167-0.65-0.383-0.95-0.65c-0.8-0.7-1.2-1.533-1.2-2.5c0-1.1,0.483-2.05,1.45-2.85c0.834-0.7,1.75-1.067,2.75-1.1
		c0.101,0,0.217,0,0.351,0c0.399,0,0.75,0.083,1.05,0.25c0.366,0.167,0.55,0.383,0.55,0.65c0,0.167-0.066,0.317-0.2,0.45
		c-0.033,0.033-0.066,0.066-0.1,0.1c-0.134,0.1-0.283,0.15-0.45,0.15c-0.434-0.133-0.816-0.184-1.15-0.15
		c-0.566,0-1.066,0.233-1.5,0.7c-0.433,0.467-0.649,0.967-0.649,1.5c0,0.1,0.017,0.2,0.05,0.3c0.033,0.467,0.2,0.883,0.5,1.25
		c0.4,0.434,0.967,0.717,1.7,0.85c0.533,0.1,0.8,0.3,0.8,0.6C159,52.267,158.9,52.467,158.7,52.6z M156.75,61.55
		c-0.134,0.3-0.417,0.45-0.85,0.45c-0.367,0-0.634-0.133-0.801-0.4c-0.1-0.1-0.166-0.233-0.199-0.4
		c-0.067-0.267-0.101-0.75-0.101-1.45c0-1.267,0.117-2.317,0.351-3.15l-0.25,0.05c-0.534,0-0.801-0.217-0.801-0.65
		c0-0.333,0.284-0.667,0.851-1c0.533-0.3,1.133-0.467,1.8-0.5c0.1,0,0.217,0,0.35,0c0.567,0.033,1.084,0.217,1.551,0.55
		c0.566,0.4,0.85,0.917,0.85,1.55c0,0.233-0.033,0.467-0.1,0.7c-0.2,0.434-0.567,0.85-1.101,1.25c0.101,0.133,0.233,0.317,0.4,0.55
		c0.166,0.2,0.35,0.433,0.55,0.7c0.333,0.5,0.5,0.833,0.5,1c0,0.267-0.066,0.45-0.2,0.55c-0.166,0.1-0.366,0.15-0.6,0.15
		c-0.267,0-0.55-0.133-0.851-0.4c-0.1-0.067-0.183-0.133-0.25-0.2l-1-1.1v0.95v0.1l-0.05,0.35
		C156.8,61.333,156.783,61.45,156.75,61.55z M157,56.05l-0.15,1.75c0.4-0.3,0.601-0.633,0.601-1C157.45,56.4,157.3,56.15,157,56.05z
		 M160.65,68.1c-0.167,0.667-0.534,1.25-1.101,1.75c-0.767,0.667-1.7,1.017-2.8,1.05c-0.7,0.033-1.316-0.083-1.85-0.35
		c-0.334-0.167-0.634-0.4-0.9-0.7c-0.6-0.633-0.9-1.45-0.9-2.45c0-1.1,0.384-2,1.15-2.7c0.733-0.667,1.634-1.017,2.7-1.05
		c0.2,0,0.416,0.017,0.649,0.05c0.9,0.066,1.65,0.433,2.25,1.1c0.601,0.7,0.9,1.517,0.9,2.45
		C160.75,67.55,160.717,67.833,160.65,68.1z M155.25,67.8c0.033,0.4,0.167,0.75,0.4,1.05c0.033,0.033,0.066,0.083,0.1,0.15
		c0.3,0.267,0.65,0.383,1.05,0.35c0.601-0.033,1.084-0.267,1.45-0.7c0.366-0.4,0.55-0.883,0.55-1.45c0-0.5-0.149-0.934-0.45-1.3
		c-0.333-0.433-0.767-0.633-1.3-0.6c-0.066,0-0.133,0.017-0.2,0.05c-0.399,0.033-0.75,0.233-1.05,0.6c-0.366,0.433-0.55,1-0.55,1.7
		C155.25,67.683,155.25,67.733,155.25,67.8z M152.8,72.55c0.101-0.066,0.233-0.1,0.4-0.1c0.566-0.067,0.899,0.25,1,0.95l0.45,1.85
		l0.399,1.9l0.7-1.4c0.2-0.367,0.467-0.583,0.8-0.65c0.101-0.033,0.2-0.05,0.3-0.05c0.334-0.033,0.634,0.083,0.9,0.35
		c0.1,0.1,0.2,0.25,0.3,0.45l0.5,1l1.25-3.35c0.167-0.233,0.351-0.4,0.55-0.5c0.134-0.067,0.267-0.1,0.4-0.1
		c0.566,0,0.85,0.2,0.85,0.6c0,0.133-0.033,0.383-0.1,0.75c-0.066,0.1-0.116,0.233-0.15,0.4c-0.1,0.367-0.399,1.1-0.899,2.2
		c-0.434,1.033-0.733,1.7-0.9,2c-0.366,0.633-0.767,0.967-1.2,1c-0.333,0-0.616-0.15-0.85-0.45c-0.1-0.167-0.267-0.467-0.5-0.9
		l-0.35-0.8c-0.2,0.5-0.367,0.9-0.5,1.2c-0.134,0.2-0.233,0.35-0.301,0.45c-0.233,0.4-0.566,0.6-1,0.6
		c-0.399,0.066-0.699-0.067-0.899-0.4c-0.3-0.4-0.634-1.233-1-2.5c-0.334-1.1-0.533-1.9-0.601-2.4l-0.1-1.05
		C152.25,73.033,152.434,72.683,152.8,72.55z M154.35,82.7c0.101-0.067,0.233-0.1,0.4-0.1c0.333,0,0.583,0.1,0.75,0.3
		c0.4,0.4,0.9,0.983,1.5,1.75c0.4,0.467,0.833,1.017,1.3,1.65c-0.1-2-0.149-3.117-0.149-3.35c0-0.367,0.149-0.6,0.449-0.7
		c0.101-0.067,0.233-0.1,0.4-0.1c0.434,0,0.717,0.167,0.85,0.5c0.233,0.7,0.351,1.9,0.351,3.6c0,0.833-0.033,1.467-0.101,1.9
		c-0.033,0.1-0.066,0.2-0.1,0.3c-0.167,0.466-0.483,0.716-0.95,0.75c-0.2,0-0.467-0.1-0.8-0.3c-0.033-0.033-0.083-0.066-0.15-0.1
		c-0.566-0.433-1.416-1.35-2.55-2.75l0.101,1.25v0.75c0,0.267-0.034,0.5-0.101,0.7c-0.166,0.333-0.45,0.517-0.85,0.55
		c-0.267,0-0.467-0.066-0.601-0.2c-0.033-0.067-0.066-0.167-0.1-0.3c-0.066-0.133-0.116-0.267-0.15-0.4
		c-0.133-0.4-0.199-1.217-0.199-2.45l0.1-2.1c0.066-0.467,0.167-0.783,0.3-0.95C154.116,82.8,154.217,82.733,154.35,82.7z
		 M158.95,93.65c-0.167,0.267-0.434,0.417-0.8,0.45c-0.4,0-0.65-0.15-0.75-0.45c-0.067-0.133-0.101-0.3-0.101-0.5
		c0-0.233-0.066-0.35-0.2-0.35c-0.199,0-0.3,0.184-0.3,0.55c0,0.133,0.033,0.267,0.101,0.4v0.05c0.066,0.1,0.166,0.233,0.3,0.4
		c0.133,0.167,0.283,0.333,0.45,0.5c0.133,0.133,0.25,0.25,0.35,0.35c0.566,0.6,0.85,1.133,0.85,1.6c0,0.267-0.033,0.517-0.1,0.75
		c-0.1,0.267-0.25,0.517-0.45,0.75c-0.399,0.467-1,0.717-1.8,0.75c-0.566,0-0.95-0.117-1.15-0.35c-0.166-0.167-0.25-0.367-0.25-0.6
		c0-0.5,0.217-0.75,0.65-0.75c0.333-0.034,0.684,0,1.05,0.1c0.167,0,0.25-0.083,0.25-0.25c0-0.333-0.3-0.733-0.899-1.2
		c-0.467-0.4-0.767-0.7-0.9-0.9c-0.3-0.367-0.45-0.784-0.45-1.25c0-0.6,0.233-1.15,0.7-1.65c0.5-0.466,1.066-0.716,1.7-0.75h0.05
		c0.533-0.033,0.967,0.1,1.3,0.4c0.334,0.333,0.5,0.767,0.5,1.3C159.05,93.233,159.017,93.45,158.95,93.65z"/>
	<path style="fill-rule:evenodd;clip-rule:evenodd;fill:#C8B74C;" d="M165.95,19.5l-0.25-1.15l4.85-2.75
		c-0.633-0.967-0.967-1.967-1-3c-0.066-1.333,0.25-2.5,0.95-3.5c0.7-0.967,1.583-1.483,2.65-1.55c0.733-0.033,1.399-0.033,2,0
		c-0.9,0.133-1.65,0.633-2.25,1.5c-0.7,1-1.017,2.167-0.95,3.5c0.066,1.133,0.383,2.117,0.95,2.95L165.95,19.5z M177.8,8.2
		c-0.066-0.034-0.133-0.05-0.2-0.05c-0.133-0.1-0.25-0.183-0.35-0.25c0.066,0.033,0.15,0.083,0.25,0.15
		C177.6,8.083,177.7,8.133,177.8,8.2z M168.2,93.9c0.066-0.967,0.083-1.95,0.05-2.95c-0.033-1.034-0.066-2.333-0.1-3.9
		c0.166,1.1,0.267,1.917,0.3,2.45C168.517,91,168.434,92.467,168.2,93.9z M105.05,107.65c-0.333-0.367-0.616-0.684-0.85-0.95
		c-0.467-0.566-0.8-1.084-1-1.55l-0.15-0.15l-0.05-0.55l0.05-0.15V103.9l0.15-0.2c1.066-2.4,5.533-6.167,13.399-11.3
		c7.5-4.867,12-7.3,13.5-7.3c1,0,1.934,0.633,2.801,1.9c-0.467-0.367-0.983-0.55-1.551-0.55c-1.5,0-5.983,2.433-13.449,7.3
		c-6.067,3.933-10.117,7.067-12.15,9.4c-0.634,0.699-1.066,1.333-1.3,1.899l-0.101,0.15c-0.066,0.133-0.1,0.333-0.1,0.6
		c0,0.233,0.033,0.417,0.1,0.55l0.101,0.15c0.066,0.167,0.149,0.333,0.25,0.5c0,0.033,0.017,0.083,0.05,0.15l0.15,0.199
		C104.934,107.45,104.983,107.55,105.05,107.65z M133.85,19.1c0.567,0.433,1.217,0.633,1.95,0.6l5.15,16.85
		c-0.767,0.1-1.417,0.55-1.95,1.35c-0.533,0.767-0.8,1.667-0.8,2.7c0,1.1,0.3,2.033,0.899,2.8c0.434,0.567,0.934,0.917,1.5,1.05
		c0.5,0.367,1.051,0.533,1.65,0.5l2.55-0.1c0.2,29.333-0.116,45.15-0.95,47.45c-0.6,1.633-3.35,2.6-8.25,2.9h-0.649v-1
		c4.033-0.434,6.316-1.383,6.85-2.85c0.601-1.633,0.934-11.267,1-28.9l-0.05-17.35l-0.8,0.05l-1.2,0.1l-1.95-0.75
		c-1.066-0.5-1.8-0.95-2.2-1.35l-0.05-0.05c-0.5-0.567-0.75-1.367-0.75-2.4c0-1.067,0.267-1.983,0.8-2.75c0.534-0.767,1.2-1.2,2-1.3
		l-4.85-16.35c-0.167,0.034-0.4,0-0.7-0.1c-0.066-0.034-0.133-0.067-0.2-0.1c-0.366-0.133-0.633-0.317-0.8-0.55
		c-0.066-0.1-0.116-0.2-0.149-0.3c-0.134,0-0.25,0-0.351,0c-0.7-0.067-1.283-0.35-1.75-0.85c-0.133-0.133-0.267-0.3-0.399-0.5
		c-0.601-0.867-0.9-2.017-0.9-3.45c0.033-1.367,0.434-2.55,1.2-3.55c0.767-0.967,1.684-1.483,2.75-1.55c0.5-0.033,1.017,0,1.55,0.1
		c-0.733,0.233-1.384,0.7-1.95,1.4c-0.767,1-1.149,2.183-1.149,3.55s0.383,2.517,1.149,3.45
		C132.55,18.517,133.15,18.933,133.85,19.1z M150.25,1.55c0.267,0.133,0.5,0.284,0.7,0.45c-0.2-0.1-0.417-0.183-0.65-0.25
		c-0.3-0.2-0.6-0.35-0.899-0.45c0.033,0,0.066,0,0.1,0C149.767,1.367,150.017,1.45,150.25,1.55z M143.2,10.75
		c-0.2-0.2-0.4-0.433-0.601-0.7c-0.666-0.966-1-2.1-1-3.4c-0.033-1.467,0.367-2.733,1.2-3.8c0.8-1.033,1.783-1.583,2.95-1.65
		c0.7-0.034,1.333-0.034,1.9,0c-0.967,0.167-1.784,0.7-2.45,1.6c-0.834,1.067-1.233,2.333-1.2,3.8c0,1.3,0.333,2.433,1,3.4
		c0.6,0.833,1.316,1.367,2.15,1.6c0.1,0.066,0.216,0.15,0.35,0.25l-1.45,8.95l-2.2-1l1.25-8c-0.3-0.066-0.6-0.167-0.899-0.3
		C143.833,11.3,143.5,11.05,143.2,10.75z M169.55,37c-0.233-0.1-0.483-0.167-0.75-0.2c-0.033,0-0.066,0-0.1,0
		c-0.066,0-0.15,0-0.25,0h-0.15l5.601-18.05l1.199-0.8L169.55,37z M161.9,11.55l0.5-1.4l3,12.85l-0.95,0.45L161.9,11.55z
		 M129.7,120.55c0.566,0.167,1,0.217,1.3,0.15c1.066-0.233,1.616-1.733,1.65-4.5l0.05-3.851c1.233,0.4,2.533,0.551,3.899,0.45
		c9.967-0.7,17.233-3.25,21.801-7.649c0.767-0.767,1.466-1.567,2.1-2.4c-0.134,0.233-0.267,0.467-0.4,0.7
		c1.667-2.233,2.75-4.284,3.25-6.15c0.334-1.3,0.5-3.033,0.5-5.2v-0.95c0-0.167,0-0.333,0-0.5c-0.133-4.7-0.149-20.066-0.05-46.1
		c0-0.767,0-1.533,0-2.3l4.65-0.1c0.366-0.033,0.717-0.117,1.05-0.25l0.1-0.05c0.767-0.4,1.217-0.983,1.351-1.75l0.05-0.9
		c0-0.667-0.25-1.233-0.75-1.7c-0.066-0.067-0.116-0.117-0.15-0.15c0.5,0.066,0.934,0.283,1.301,0.65c0.5,0.467,0.75,1.033,0.75,1.7
		v0.4c0,0.7-0.25,1.3-0.75,1.8c-0.5,0.467-1.101,0.717-1.801,0.75l-4.649,0.15c-0.2,24.067-0.2,40.184,0,48.35
		c0.166,6.133-1.267,11.067-4.3,14.8c-3.7,4.533-9.784,7.149-18.25,7.85c-3.134,0.233-5.617,0.316-7.45,0.25V113.9l-0.7,0.05V114
		c0.033,0.934,0.017,1.783-0.05,2.55c-0.167,1.233-0.483,2.217-0.95,2.95c0,0.033-0.167,0.483-0.5,1.35
		c-0.033,0.067-0.05,0.134-0.05,0.2c-0.167,0.267-0.45,0.384-0.851,0.351C131.45,121.366,130.733,121.083,129.7,120.55z M144.3,42.8
		c0.167,0,0.351,0,0.55,0l4.15-0.1c0,0.167,0,0.35,0,0.55l-3,0.1C145.333,43.35,144.767,43.167,144.3,42.8z M140.35,20.025
		l-1.1-0.525l-0.05-0.05L140.35,20.025z M156.75,22.2l-0.35,0.7l-6.2-11.2v-0.05L156.75,22.2z M155.95,18.7l-1.3-2.85l2.1-5.45
		c-1.233-1.033-1.884-2.467-1.95-4.3c-0.033-1.467,0.334-2.733,1.101-3.8c0.8-1.066,1.783-1.633,2.949-1.7
		c0.667-0.033,1.284-0.017,1.851,0.05c-0.934,0.167-1.733,0.7-2.4,1.6c-0.767,1.067-1.133,2.317-1.1,3.75
		c0.066,1.867,0.717,3.317,1.95,4.35L155.95,18.7z"/>
	<path style="fill-rule:evenodd;clip-rule:evenodd;fill:#8A2D09;" d="M165.4,23l8.5-4.35v0.1L168.3,36.8h0.15c0.1,0,0.184,0,0.25,0
		c0.033,0,0.066,0,0.1,0c0.267,0.034,0.517,0.1,0.75,0.2c0.2,0.067,0.384,0.183,0.55,0.35c0.034,0.033,0.084,0.083,0.15,0.15
		c0.5,0.467,0.75,1.033,0.75,1.7l-0.05,0.9c-0.134,0.767-0.584,1.35-1.351,1.75l-0.1,0.05v-0.4c0-0.667-0.25-1.233-0.75-1.7
		c-0.5-0.466-1.1-0.7-1.8-0.7l-0.15,0.05L172.4,21l-9.45,4.8l-2.5-11.45V14.3l1.399-2.9l0.051,0.15l2.55,11.9L165.4,23z M143.1,38.2
		l0.601,1.6h-0.351c-0.366,0-0.716,0.083-1.05,0.25V40c0-0.667,0.25-1.25,0.75-1.75L143.1,38.2z M150.1,11.55l6.051,11l-1.25,2.7
		l-5.5-9.9L150.1,11.55z M163.8,44.55c-0.1,26.034-0.083,41.4,0.05,46.1c0,0.167,0,0.333,0,0.5v0.95c0,2.167-0.166,3.9-0.5,5.2
		c-0.5,1.867-1.583,3.917-3.25,6.15c0.134-0.233,0.267-0.467,0.4-0.7c0.866-1.633,1.417-3.1,1.65-4.4
		c0.199-1.067,0.267-2.867,0.199-5.4C162.217,88.117,162.2,72,162.3,44.6L163.8,44.55z"/>
	
		<linearGradient id="SVGID_14_" gradientUnits="userSpaceOnUse" x1="-23.9893" y1="-157.7065" x2="75.5684" y2="-157.7065" gradientTransform="matrix(-0.2499 0.9683 -0.9683 -0.2499 -3.353953e-004 3.555417e-005)">
		<stop  offset="0" style="stop-color:#AF2F14"/>
		<stop  offset="0.2706" style="stop-color:#AB2E13"/>
		<stop  offset="0.5804" style="stop-color:#9F2A12"/>
		<stop  offset="0.9059" style="stop-color:#8C240F"/>
		<stop  offset="1" style="stop-color:#85220E"/>
	</linearGradient>
	<path style="fill-rule:evenodd;clip-rule:evenodd;fill:url(#SVGID_14_);" d="M160.5,102.75c-0.634,0.833-1.333,1.634-2.1,2.4
		c-4.567,4.399-11.834,6.949-21.801,7.649c-1.366,0.101-2.666-0.05-3.899-0.45l-0.05,3.851c-0.034,2.767-0.584,4.267-1.65,4.5
		c-0.3,0.066-0.733,0.017-1.3-0.15c-0.634-0.2-1.417-0.55-2.351-1.05c-1.699-0.9-4.149-2.417-7.35-4.55c-3.733-2.5-6.4-4.483-8-5.95
		c-1.566-1.4-1.684-2.85-0.35-4.35c0.033-0.034,0.066-0.067,0.1-0.101c-0.934,1-1.217,1.983-0.85,2.95
		c4.466-3.333,7.866-5.683,10.199-7.05c3.5-2.1,5.75-3.367,6.75-3.8c1.967-0.9,3-0.8,3.101,0.3l0.149,3.5l2.15-0.15
		c2-0.2,4.45-0.65,7.35-1.35c2.9-0.7,4.95-1.6,6.15-2.7c1.033-0.933,1.566-2.183,1.6-3.75c0.301-2,0.517-18.417,0.65-49.25
		c0-0.2,0-0.383,0-0.55l-4.15,0.1c-0.199,0-0.383,0-0.55,0c-0.467-0.1-0.883-0.316-1.25-0.65c-0.5-0.467-0.75-1.05-0.75-1.75v-0.35
		c0.334-0.167,0.684-0.25,1.05-0.25h0.351l-0.601-1.6c0.5-0.467,1.084-0.7,1.75-0.7l0.351-0.05l-5.675-14.8l6.875,3.25l0.5-2.75
		l-8.15-3.85l0.5,0.2l1.1,0.525L147.9,23.6l1.5-8.25l5.5,9.9l1.25-2.7l-6.051-11l0.101,0.15l6.2,11.2l0.35-0.7l3.7-7.85l2.5,11.45
		l9.45-4.8L166.8,39.15l0.15-0.05c0.7,0,1.3,0.233,1.8,0.7c0.5,0.467,0.75,1.034,0.75,1.7v0.4c-0.333,0.133-0.684,0.217-1.05,0.25
		l-4.65,0.1c0,0.767,0,1.533,0,2.3l-1.5,0.05c-0.1,27.4-0.083,43.517,0.05,48.35c0.067,2.533,0,4.333-0.199,5.4
		C161.917,99.65,161.366,101.117,160.5,102.75z M165.6,27c-0.133-0.267-0.449-0.4-0.949-0.4l-1.601,0.1
		c-0.434,0.033-0.666,0.233-0.7,0.6c-0.066,0.333-0.1,0.65-0.1,0.95l-0.05-0.1c-0.101-0.767-0.417-1.15-0.95-1.15
		c-0.167,0-0.333,0.067-0.5,0.2c-0.167-0.367-0.417-0.55-0.75-0.55c-0.3,0-0.783,0.417-1.45,1.25l-0.399-0.55
		c-0.233-0.233-0.45-0.333-0.65-0.3c-0.167,0-0.316,0.05-0.45,0.15L156.9,27c-0.2-0.2-0.417-0.3-0.65-0.3
		c-0.434,0-0.7,0.25-0.8,0.75l-0.101,0.35c-0.199,0.967-0.35,1.7-0.449,2.2c-0.301-0.767-0.634-1.583-1-2.45
		c-0.233-0.533-0.517-0.8-0.851-0.8c-0.166,0-0.333,0.083-0.5,0.25c-0.2-0.4-0.45-0.6-0.75-0.6c-0.399,0-0.733,0.4-1,1.2l-0.2,0.65
		c-0.066,0.167-0.133,0.35-0.199,0.55c0-0.033,0-0.066,0-0.1c0-0.167-0.034-0.3-0.101-0.4c0.134-0.133,0.2-0.316,0.2-0.55
		c0-0.567-0.467-0.85-1.4-0.85c-0.233-0.233-0.666-0.35-1.3-0.35c-0.866,0.034-1.616,0.383-2.25,1.05
		c-0.633,0.7-0.95,1.483-0.95,2.35c0,0.933,0.267,1.683,0.801,2.25c0.033,0.033,0.066,0.066,0.1,0.1l0.05,0.05
		c0.167,0.133,0.334,0.25,0.5,0.35c0.134,0.267,0.3,0.517,0.5,0.75c0.5,0.533,1.084,0.8,1.75,0.8c0.667,0,1.217-0.25,1.65-0.75
		c0.2-0.233,0.35-0.467,0.45-0.7c0.233,0,0.399-0.066,0.5-0.2c-0.067,0.333-0.101,0.6-0.101,0.8c0,0.5,0.233,0.717,0.7,0.65
		c0.267,0,0.45-0.1,0.55-0.3c0.066-0.1,0.117-0.233,0.15-0.4l0.1-0.55l0.9-0.05c0.133,0.067,0.267,0.1,0.399,0.1
		c0.034,0,0.067,0,0.101,0l0.2,0.55c0.199,0.5,0.483,0.75,0.85,0.75c0.434,0,0.65-0.25,0.65-0.75v-0.35
		c0.033-0.066,0.066-0.133,0.1-0.2c0.134-0.067,0.233-0.15,0.3-0.25l-0.1,0.85c0,0.466,0.233,0.7,0.7,0.7
		c0.3,0,0.517-0.183,0.649-0.55l0.601-3.25c0.033,0,0.066,0,0.1,0l0.85,1.1c0.134,0.133,0.267,0.2,0.4,0.2
		c0.233,0,0.417-0.1,0.55-0.3l0.25-0.3c0.101,0.5,0.184,0.883,0.25,1.15c0.167,0.333,0.434,0.5,0.8,0.5c0.067,0,0.134,0,0.2,0
		c0.033,0.333,0.084,0.583,0.15,0.75c0.133,0.333,0.399,0.5,0.8,0.5c0.5,0,0.75-0.217,0.75-0.65l-0.05-0.45
		c0.033-0.067,0.066-0.117,0.1-0.15c0.134,0.033,0.283,0.05,0.45,0.05h0.15c0.033,0.233,0.066,0.467,0.1,0.7
		c0.1,0.4,0.384,0.6,0.85,0.6h0.601c1.1,0,1.649-0.25,1.649-0.75c0-0.2-0.05-0.333-0.149-0.4c0.2-0.133,0.3-0.316,0.3-0.55
		c0-0.367-0.217-0.567-0.65-0.6c0.067-0.1,0.101-0.233,0.101-0.4c0-0.2-0.05-0.333-0.15-0.4c0.167-0.1,0.25-0.284,0.25-0.55
		c0-0.333-0.166-0.5-0.5-0.5c-0.133-0.033-0.383-0.05-0.75-0.05c-0.033-0.1-0.083-0.167-0.149-0.2v-0.4h0.35
		c1.033,0,1.55-0.233,1.55-0.7c0-0.2-0.066-0.35-0.2-0.45c0.2-0.133,0.301-0.3,0.301-0.5c0-0.267-0.067-0.434-0.2-0.5
		c-0.134-0.1-0.4-0.15-0.8-0.15L165.6,27z M153.35,39.1c-0.033,0-0.05-0.017-0.05-0.05c-0.166-0.267-0.267-0.566-0.3-0.9
		c0.066-0.267,0.167-0.483,0.3-0.65c0.233-0.367,0.55-0.567,0.95-0.6c0.033,0,0.066,0,0.1,0c0.034,0.133,0.051,0.267,0.051,0.4
		c0,0.5-0.134,0.934-0.4,1.3C153.8,38.833,153.583,39,153.35,39.1z M156.5,35.65l-0.05-0.05c-0.533-0.7-1.217-1.067-2.05-1.1
		c-0.4-0.233-0.851-0.333-1.351-0.3c-0.8,0-1.483,0.283-2.05,0.85c-0.566,0.633-0.85,1.417-0.85,2.35c0,0.9,0.233,1.633,0.699,2.2
		l0.25,0.3c0.134,0.133,0.284,0.25,0.45,0.35c0.101,0.233,0.233,0.45,0.4,0.65c0.533,0.633,1.233,0.934,2.1,0.9
		c0.834,0,1.533-0.283,2.101-0.85c0.267-0.233,0.466-0.5,0.6-0.8c0.134,0.133,0.316,0.2,0.55,0.2c0.134,0,0.25-0.017,0.351-0.05
		c0,0.267,0.033,0.534,0.1,0.8c0.066,0.367,0.3,0.55,0.7,0.55c0.5,0,0.75-0.333,0.75-1v-0.3c0.066-0.167,0.1-0.367,0.1-0.6v-0.2
		h0.45c0.5-0.066,0.75-0.283,0.75-0.65c0-0.2-0.066-0.333-0.2-0.4c0.2-0.133,0.3-0.317,0.3-0.55c0-0.333-0.183-0.517-0.55-0.55
		c-0.133-0.033-0.383-0.05-0.75-0.05c-0.033-0.067-0.083-0.133-0.149-0.2V36.6l1.149-0.1c0.667-0.1,1-0.35,1-0.75
		c0-0.2-0.05-0.35-0.149-0.45c0.166-0.133,0.25-0.3,0.25-0.5c0-0.367-0.2-0.55-0.601-0.55h-0.7c-0.066-0.2-0.25-0.317-0.55-0.35
		h-1.35c-1.033,0-1.584,0.233-1.65,0.7l-0.05,0.3V35.65z M150.3,29.1c-0.133,0.433-0.233,0.833-0.3,1.2
		c-0.033-0.033-0.066-0.05-0.1-0.05l-0.75-0.05c-0.134-0.133-0.301-0.233-0.5-0.3l-0.9-0.1c0.033,0,0.05-0.017,0.05-0.05
		c0.334-0.4,0.733-0.6,1.2-0.6c0.134-0.033,0.283-0.017,0.45,0.05l0.3,0.1C150.017,29.3,150.2,29.233,150.3,29.1z M147.8,31.4
		c-0.033-0.033-0.066-0.083-0.1-0.15h0.25C147.884,31.317,147.833,31.367,147.8,31.4z M154.1,51.75c0.2,0.367,0.467,0.7,0.801,1
		c0.767,0.7,1.699,1.033,2.8,1c0.767,0,1.149-0.267,1.149-0.8c0-0.133-0.05-0.25-0.149-0.35c0.2-0.133,0.3-0.333,0.3-0.6
		c0-0.3-0.267-0.5-0.8-0.6c-0.733-0.133-1.3-0.417-1.7-0.85c-0.3-0.367-0.467-0.783-0.5-1.25c0.066-0.3,0.217-0.583,0.45-0.85
		c0.434-0.467,0.934-0.7,1.5-0.7c0.366-0.033,0.767,0.017,1.2,0.15c0.466,0,0.699-0.233,0.699-0.7c0-0.167-0.05-0.3-0.149-0.4
		c0.033-0.033,0.066-0.066,0.1-0.1c0.134-0.133,0.2-0.284,0.2-0.45c0-0.267-0.184-0.483-0.55-0.65c-0.3-0.167-0.65-0.25-1.05-0.25
		c-0.067-0.033-0.134-0.067-0.2-0.1c-0.367-0.167-0.834-0.233-1.4-0.2c-1,0.034-1.934,0.4-2.8,1.1c-0.934,0.767-1.4,1.7-1.4,2.8
		c0,1,0.384,1.833,1.15,2.5l0.1,0.1C153.917,51.617,154,51.683,154.1,51.75z M157.1,54.5c-0.466-0.233-1-0.35-1.6-0.35
		c-0.667,0.033-1.267,0.2-1.8,0.5c-0.566,0.333-0.851,0.667-0.851,1c0,0.434,0.25,0.65,0.75,0.65l0.301-0.05
		c-0.267,0.833-0.4,1.883-0.4,3.15c0,0.567,0.05,1.05,0.15,1.45c0.166,0.6,0.5,0.867,1,0.8h0.05c0.033,0.167,0.066,0.333,0.1,0.5
		c0.134,0.533,0.467,0.8,1,0.8c0.566,0,0.867-0.267,0.9-0.8l0.05-0.6c0.033-0.1,0.05-0.216,0.05-0.35l0.05-0.35l0.9,1
		c0.366,0.4,0.733,0.6,1.1,0.6c0.534,0,0.801-0.233,0.801-0.7c0-0.1-0.034-0.233-0.101-0.4c0.134-0.1,0.2-0.283,0.2-0.55
		c0-0.167-0.167-0.5-0.5-1c-0.2-0.267-0.384-0.5-0.55-0.7c0.467-0.467,0.7-0.983,0.7-1.55c0-0.1,0-0.183,0-0.25
		c0.066-0.233,0.1-0.466,0.1-0.7c0-0.633-0.283-1.15-0.85-1.55C158.184,54.717,157.667,54.533,157.1,54.5z M157.6,63.7
		c-0.566-0.3-1.199-0.434-1.899-0.4c-1.066,0.034-1.967,0.383-2.7,1.05c-0.767,0.7-1.15,1.6-1.15,2.7c0,1,0.301,1.817,0.9,2.45
		l0.15,0.15c0.133,0.133,0.283,0.267,0.449,0.4c0.134,0.267,0.317,0.517,0.551,0.75c0.666,0.733,1.583,1.083,2.75,1.05
		c1.1-0.033,2.033-0.383,2.8-1.05c0.8-0.7,1.2-1.566,1.2-2.6c0-0.034,0-0.067,0-0.1c0.066-0.267,0.1-0.55,0.1-0.85
		c0-0.933-0.3-1.75-0.9-2.45C159.25,64.133,158.5,63.767,157.6,63.7z M155.75,69c-0.033-0.067-0.066-0.117-0.1-0.15
		c-0.233-0.3-0.367-0.65-0.4-1.05c0.1-0.367,0.25-0.667,0.45-0.9c0.333-0.433,0.75-0.65,1.25-0.65c0.166,0,0.333,0.017,0.5,0.05
		c0.033,0.167,0.05,0.35,0.05,0.55c0,0.566-0.184,1.05-0.55,1.45C156.65,68.667,156.25,68.9,155.75,69z M153.4,79.6
		c0.166,0.4,0.316,0.7,0.449,0.9c0.167,0.267,0.467,0.4,0.9,0.4c0.4,0,0.733-0.2,1-0.6c0.167-0.3,0.366-0.683,0.6-1.15
		c0.167,0.2,0.367,0.317,0.601,0.35c0.2,0.433,0.35,0.717,0.45,0.85c0.233,0.3,0.517,0.433,0.85,0.4c0.434,0,0.833-0.333,1.2-1
		c0.166-0.3,0.467-0.967,0.899-2c0.434-1.033,0.717-1.75,0.851-2.15c0.2-0.6,0.3-0.983,0.3-1.15c0-0.067,0-0.133,0-0.2
		c0.066-0.367,0.1-0.617,0.1-0.75c0-0.4-0.283-0.6-0.85-0.6c-0.134,0-0.267,0.033-0.4,0.1c-0.066-0.3-0.35-0.45-0.85-0.45
		c-0.4,0.067-0.717,0.267-0.95,0.6l-0.8,2.25c-0.267-0.267-0.566-0.383-0.9-0.35c-0.1,0-0.199,0.017-0.3,0.05
		c-0.267-0.3-0.583-0.434-0.95-0.4c-0.399,0-0.716,0.183-0.949,0.55l-0.45-1.85c-0.101-0.7-0.434-1.017-1-0.95
		c-0.167,0-0.3,0.033-0.4,0.1c-0.166-0.333-0.45-0.483-0.85-0.45c-0.634,0-0.95,0.383-0.95,1.15c0,0.367,0.033,0.717,0.1,1.05
		c0.067,0.5,0.267,1.3,0.601,2.4c0.366,1.267,0.7,2.1,1,2.5C152.866,79.433,153.1,79.567,153.4,79.6z M154.35,82.7
		c-0.033-0.067-0.066-0.117-0.1-0.15c-0.167-0.2-0.417-0.3-0.75-0.3c-0.566,0-0.9,0.417-1,1.25l-0.1,2.1
		c0,1.233,0.066,2.05,0.199,2.45c0.101,0.333,0.184,0.567,0.25,0.7c0.134,0.133,0.334,0.2,0.601,0.2c0.066,0,0.133,0,0.2,0
		c0,0.167,0.017,0.3,0.05,0.4c0.133,0.367,0.233,0.583,0.3,0.65c0.1,0.167,0.3,0.233,0.6,0.2c0.634,0,0.95-0.4,0.95-1.2v-0.25
		c0.066-0.2,0.101-0.433,0.101-0.7V87.3c0.133,0.167,0.267,0.317,0.399,0.45c0.834,1.067,1.517,1.767,2.05,2.1
		c0.4,0.2,0.684,0.3,0.851,0.3c0.467-0.033,0.783-0.283,0.95-0.75c0.1-0.267,0.166-0.683,0.199-1.25
		c0.067-0.433,0.101-1.066,0.101-1.9c0-1.7-0.117-2.9-0.351-3.6c-0.133-0.333-0.416-0.5-0.85-0.5c-0.167,0-0.3,0.033-0.4,0.1
		c-0.166-0.3-0.449-0.45-0.85-0.45c-0.566,0-0.85,0.267-0.85,0.8v0.1c0,0.233,0.033,0.883,0.1,1.95c-0.6-0.767-1.1-1.35-1.5-1.75
		c-0.167-0.2-0.417-0.3-0.75-0.3C154.583,82.6,154.45,82.633,154.35,82.7z M155.05,98.55c-0.033,0.1-0.05,0.217-0.05,0.35
		c0,0.633,0.45,0.934,1.35,0.9c0.801-0.033,1.417-0.283,1.851-0.75c0.366-0.4,0.55-0.883,0.55-1.45c0-0.067,0-0.133,0-0.2
		c0.066-0.233,0.1-0.483,0.1-0.75c0-0.467-0.283-1-0.85-1.6h0.05c0.601-0.066,0.9-0.433,0.9-1.1c0-0.1,0-0.2,0-0.3
		c0.066-0.2,0.1-0.417,0.1-0.65c0-0.533-0.166-0.967-0.5-1.3c-0.333-0.3-0.767-0.434-1.3-0.4c-0.333-0.267-0.767-0.383-1.3-0.35
		c-0.634,0.033-1.2,0.283-1.7,0.75c-0.467,0.5-0.7,1.05-0.7,1.65c0,0.467,0.15,0.883,0.45,1.25c0.134,0.2,0.434,0.5,0.9,0.9
		l0.05,0.05c0.033,0,0.066,0.017,0.1,0.05l0.75,1c0,0.033,0,0.066,0,0.1c0,0.167-0.083,0.25-0.25,0.25l-1.05-0.1
		c-0.434,0-0.65,0.25-0.65,0.75C153.85,98.2,154.25,98.517,155.05,98.55z M157.2,94.2c-0.134-0.167-0.233-0.3-0.3-0.4
		c0.032-0.032,0.065-0.049,0.1-0.05h0.15c0.033,0.033,0.05,0.15,0.05,0.35C157.2,94.133,157.2,94.167,157.2,94.2z"/>
	<path style="fill-rule:evenodd;clip-rule:evenodd;fill:#AA9A34;" d="M165.05,29.85c-0.066,0-0.116,0-0.149,0v-0.2
		C164.967,29.683,165.017,29.75,165.05,29.85z M162.8,32.7c0.033-0.1,0.05-0.217,0.05-0.35l-0.6-4.1c0-0.3,0.033-0.617,0.1-0.95
		c0.034-0.367,0.267-0.566,0.7-0.6l1.601-0.1c0.5,0,0.816,0.133,0.949,0.4l-1.3,0.05c-0.434,0.034-0.666,0.233-0.7,0.6
		c-0.166,1-0.25,1.817-0.25,2.45c0,0.833,0.084,1.633,0.25,2.4c0.034,0.1,0.067,0.183,0.101,0.25h-0.3h-0.15
		C163.083,32.75,162.934,32.733,162.8,32.7z M155.8,32.6c-0.066,0.1-0.166,0.183-0.3,0.25c0.033-0.133,0.05-0.267,0.05-0.4
		l-0.1-0.55c-0.134-0.566-0.316-1.2-0.55-1.9c0.1-0.5,0.25-1.233,0.449-2.2l0.101-0.35c0.1-0.5,0.366-0.75,0.8-0.75
		c0.233,0,0.45,0.1,0.65,0.3l0.149,0.2c-0.133,0.133-0.25,0.333-0.35,0.6l-0.101,0.35c-0.399,1.8-0.616,2.8-0.649,3l-0.101,1.35
		C155.849,32.534,155.832,32.568,155.8,32.6z M152.55,27c-0.2,0.2-0.366,0.517-0.5,0.95c-0.767,2.233-1.149,3.733-1.149,4.5
		c0,0.033,0,0.083,0,0.15c-0.101,0.133-0.267,0.2-0.5,0.2h-0.051c-0.166,0-0.3-0.033-0.399-0.1c0.033-0.034,0.083-0.083,0.149-0.15
		c0.4-0.466,0.601-0.966,0.601-1.5c0-0.367-0.233-0.617-0.7-0.75c0.066-0.367,0.167-0.767,0.3-1.2c0.033-0.1,0.066-0.2,0.101-0.3
		c0.066-0.2,0.133-0.383,0.199-0.55l0.2-0.65c0.267-0.8,0.601-1.2,1-1.2C152.1,26.4,152.35,26.6,152.55,27z M152.7,30.6l0.3-1.1
		l0.35,1.05L152.7,30.6z M159.75,30.35c0.233-0.3,0.566-0.75,1-1.35l0.05,0.2c0,0.033,0.066,0.617,0.2,1.75
		c0.1,0.733,0.2,1.25,0.3,1.55c0,0.033,0.017,0.05,0.05,0.05c-0.1,0.067-0.199,0.117-0.3,0.15c-0.066,0-0.133,0-0.2,0
		c-0.366,0-0.633-0.167-0.8-0.5c-0.066-0.267-0.149-0.65-0.25-1.15c0-0.167-0.017-0.316-0.05-0.45
		C159.75,30.5,159.75,30.417,159.75,30.35z M158.35,30.1c-0.133,0.167-0.3,0.25-0.5,0.25c-0.033,0-0.066,0-0.1,0s-0.066,0-0.1,0
		L157.6,30.3l0.15-1L158.35,30.1z M153.2,32.75c-0.167-0.133-0.316-0.35-0.45-0.65l-0.1-0.25l1.1-0.1l0.25,0.7
		c0.033,0.1,0.066,0.183,0.1,0.25c-0.1,0.1-0.233,0.15-0.399,0.15c-0.033,0-0.066,0-0.101,0
		C153.467,32.85,153.333,32.817,153.2,32.75z M147.2,32.95h-0.05c-0.4,0.033-0.767-0.05-1.101-0.25c-0.166-0.1-0.333-0.217-0.5-0.35
		l-0.05-0.05c-0.033-0.033-0.066-0.066-0.1-0.1c-0.534-0.567-0.801-1.317-0.801-2.25c0-0.867,0.317-1.65,0.95-2.35
		c0.634-0.667,1.384-1.017,2.25-1.05c0.634,0,1.066,0.117,1.3,0.35h-0.05c-0.866,0.033-1.616,0.383-2.25,1.05
		c-0.6,0.667-0.899,1.45-0.899,2.35c0,0.934,0.267,1.684,0.8,2.25C146.833,32.717,147,32.85,147.2,32.95z M160.75,27.2
		c-0.066,0.033-0.15,0.1-0.25,0.2c-0.066,0.033-0.333,0.333-0.8,0.9l-0.4,0.55l-0.75-0.95c0.667-0.833,1.15-1.25,1.45-1.25
		C160.333,26.65,160.583,26.833,160.75,27.2z M165.4,31.8h-0.351L165,31.45C165.2,31.483,165.333,31.6,165.4,31.8z M153.35,39.1
		c0.233-0.1,0.45-0.267,0.65-0.5c0.267-0.367,0.4-0.8,0.4-1.3c0-0.133-0.017-0.267-0.051-0.4c-0.033-0.233-0.133-0.467-0.3-0.7
		c-0.033-0.034-0.066-0.067-0.1-0.1c0.133-0.067,0.267-0.1,0.399-0.1c0.4-0.033,0.717,0.15,0.95,0.55
		c0.233,0.3,0.351,0.667,0.351,1.1c0,0.533-0.134,0.967-0.4,1.3c-0.267,0.367-0.634,0.55-1.1,0.55
		C153.85,39.533,153.583,39.4,153.35,39.1z M152.8,40.55c-0.467,0-0.883-0.1-1.25-0.3c-0.166-0.1-0.316-0.217-0.45-0.35l-0.25-0.3
		c-0.466-0.567-0.699-1.3-0.699-2.2c0-0.933,0.283-1.717,0.85-2.35c0.566-0.566,1.25-0.85,2.05-0.85c0.5-0.034,0.95,0.066,1.351,0.3
		c-0.034,0-0.067,0-0.101,0c-0.8,0.033-1.483,0.333-2.05,0.9c-0.566,0.633-0.85,1.417-0.85,2.35c0,0.9,0.233,1.633,0.699,2.2
		C152.3,40.217,152.533,40.417,152.8,40.55z M156.6,39.65c0.367-0.533,0.551-1.167,0.551-1.9c0-0.8-0.217-1.5-0.65-2.1V34.9
		l0.05-0.3c0.066-0.467,0.617-0.7,1.65-0.7h1.35c0.3,0.033,0.483,0.15,0.55,0.35h-0.649c-1.033,0-1.584,0.233-1.65,0.7l-0.05,0.3
		l-0.1,2.65c0,0.867,0.066,1.617,0.199,2.25c-0.066,0.067-0.133,0.117-0.199,0.15c-0.101,0.034-0.217,0.05-0.351,0.05
		c-0.233,0-0.416-0.067-0.55-0.2c-0.066-0.1-0.116-0.217-0.15-0.35C156.6,39.733,156.6,39.683,156.6,39.65z M159.3,37.35
		c-0.033,0-0.083,0-0.149,0v-0.2C159.217,37.217,159.267,37.283,159.3,37.35z M147.5,29.8c0.066,0,0.134,0,0.2,0h0.05l0.9,0.1
		c0.199,0.067,0.366,0.167,0.5,0.3l-0.2-0.05c-0.634,0-0.95,0.25-0.95,0.75c0,0.467,0.25,0.7,0.75,0.7h0.45
		c-0.2,0.2-0.417,0.3-0.65,0.3c-0.3,0-0.55-0.15-0.75-0.45V31.4c0.033-0.033,0.084-0.083,0.15-0.15h-0.25
		c-0.167-0.3-0.25-0.633-0.25-1C147.45,30.083,147.467,29.933,147.5,29.8z M156,52.45c-0.7-0.067-1.333-0.3-1.9-0.7
		c-0.1-0.067-0.183-0.133-0.25-0.2l-0.1-0.1c-0.767-0.667-1.15-1.5-1.15-2.5c0-1.1,0.467-2.034,1.4-2.8c0.866-0.7,1.8-1.066,2.8-1.1
		c0.566-0.033,1.033,0.034,1.4,0.2c0.066,0.033,0.133,0.067,0.2,0.1c-0.134,0-0.25,0-0.351,0c-1,0.033-1.916,0.4-2.75,1.1
		c-0.967,0.8-1.45,1.75-1.45,2.85c0,0.967,0.4,1.8,1.2,2.5C155.35,52.067,155.667,52.283,156,52.45z M155.1,61.6
		c-0.133,0.033-0.267,0.05-0.399,0.05h-0.05c-0.5,0.067-0.834-0.2-1-0.8c-0.101-0.4-0.15-0.883-0.15-1.45
		c0-1.267,0.134-2.316,0.4-3.15L153.6,56.3c-0.5,0-0.75-0.216-0.75-0.65c0-0.333,0.284-0.667,0.851-1c0.533-0.3,1.133-0.467,1.8-0.5
		c0.6,0,1.134,0.117,1.6,0.35c-0.133,0-0.25,0-0.35,0c-0.667,0.033-1.267,0.2-1.8,0.5c-0.566,0.333-0.851,0.667-0.851,1
		c0,0.433,0.267,0.65,0.801,0.65l0.25-0.05c-0.233,0.833-0.351,1.883-0.351,3.15c0,0.7,0.033,1.183,0.101,1.45
		C154.934,61.367,155,61.5,155.1,61.6z M158.1,61.1c-0.133,0.033-0.267,0.05-0.399,0.05c-0.3,0-0.584-0.133-0.851-0.4V59.8l1,1.1
		C157.917,60.967,158,61.033,158.1,61.1z M157,56.05c0.3,0.1,0.45,0.35,0.45,0.75c0,0.367-0.2,0.7-0.601,1L157,56.05z M154.9,70.55
		c-0.601-0.066-1.117-0.25-1.551-0.55v0.05c-0.166-0.133-0.316-0.267-0.449-0.4l-0.15-0.15c-0.6-0.633-0.9-1.45-0.9-2.45
		c0-1.1,0.384-2,1.15-2.7c0.733-0.667,1.634-1.017,2.7-1.05c0.7-0.033,1.333,0.1,1.899,0.4c-0.233-0.034-0.449-0.05-0.649-0.05
		c-1.066,0.033-1.967,0.383-2.7,1.05c-0.767,0.7-1.15,1.6-1.15,2.7c0,1,0.301,1.817,0.9,2.45
		C154.267,70.15,154.566,70.383,154.9,70.55z M156.85,65.35c0.067-0.033,0.134-0.05,0.2-0.05c0.533-0.033,0.967,0.167,1.3,0.6
		c0.301,0.367,0.45,0.8,0.45,1.3c0,0.566-0.184,1.05-0.55,1.45c-0.366,0.434-0.85,0.667-1.45,0.7c-0.399,0.033-0.75-0.083-1.05-0.35
		c0.5-0.1,0.9-0.333,1.2-0.7c0.366-0.4,0.55-0.883,0.55-1.45c0-0.2-0.017-0.383-0.05-0.55c-0.066-0.267-0.2-0.517-0.4-0.75
		C156.983,65.45,156.917,65.383,156.85,65.35z M157.75,75.4l0.8-2.25c0.233-0.333,0.55-0.533,0.95-0.6c0.5,0,0.783,0.15,0.85,0.45
		c-0.199,0.1-0.383,0.267-0.55,0.5l-1.25,3.35l-0.5-1C157.95,75.65,157.85,75.5,157.75,75.4z M152.8,72.55
		c-0.366,0.133-0.55,0.483-0.55,1.05l0.1,1.05c0.067,0.5,0.267,1.3,0.601,2.4c0.366,1.267,0.7,2.1,1,2.5
		c-0.101,0.034-0.217,0.05-0.351,0.05c-0.066,0-0.133,0-0.199,0c-0.301-0.033-0.534-0.167-0.7-0.4c-0.3-0.4-0.634-1.233-1-2.5
		c-0.334-1.1-0.533-1.9-0.601-2.4c-0.066-0.333-0.1-0.683-0.1-1.05c0-0.767,0.316-1.15,0.95-1.15
		C152.35,72.067,152.634,72.217,152.8,72.55z M156.55,75.1c-0.333,0.066-0.6,0.283-0.8,0.65l-0.7,1.4l-0.399-1.9
		c0.233-0.367,0.55-0.55,0.949-0.55C155.967,74.667,156.283,74.8,156.55,75.1z M156.35,79.15c-0.033-0.033-0.066-0.066-0.1-0.1
		c-0.033-0.033-0.066-0.083-0.1-0.15c0.133-0.3,0.3-0.7,0.5-1.2l0.35,0.8c0.233,0.433,0.4,0.733,0.5,0.9
		c-0.134,0.067-0.267,0.1-0.4,0.1c-0.066,0-0.116,0-0.149,0C156.717,79.467,156.517,79.35,156.35,79.15z M157,84.65
		c-0.066-1.066-0.1-1.717-0.1-1.95v-0.1c0-0.533,0.283-0.8,0.85-0.8c0.4,0,0.684,0.15,0.85,0.45c-0.3,0.1-0.449,0.333-0.449,0.7
		c0,0.233,0.05,1.35,0.149,3.35C157.833,85.667,157.4,85.117,157,84.65z M154.35,82.7c-0.133,0.033-0.233,0.1-0.3,0.2
		c-0.133,0.167-0.233,0.483-0.3,0.95l-0.1,2.1c0,1.233,0.066,2.05,0.199,2.45c0.034,0.133,0.084,0.267,0.15,0.4
		c-0.1,0.067-0.217,0.117-0.35,0.15c-0.067,0-0.134,0-0.2,0c-0.267,0-0.467-0.067-0.601-0.2c-0.066-0.133-0.149-0.367-0.25-0.7
		c-0.133-0.4-0.199-1.216-0.199-2.45l0.1-2.1c0.1-0.833,0.434-1.25,1-1.25c0.333,0,0.583,0.1,0.75,0.3
		C154.283,82.583,154.316,82.633,154.35,82.7z M155.65,87.3l-0.101-1.25c1.134,1.4,1.983,2.317,2.55,2.75
		c-0.1,0.034-0.199,0.05-0.3,0.05c-0.267,0-0.55-0.1-0.85-0.3c-0.267-0.2-0.566-0.466-0.9-0.8
		C155.917,87.617,155.783,87.467,155.65,87.3z M155.35,98.55c-0.033,0-0.066,0-0.1,0c-0.066,0-0.134,0-0.2,0
		c-0.8-0.033-1.2-0.35-1.2-0.95c0-0.5,0.217-0.75,0.65-0.75l1.05,0.1c0.167,0,0.25-0.083,0.25-0.25c0-0.034,0-0.067,0-0.1l-0.75-1
		c-0.033-0.033-0.066-0.05-0.1-0.05l-0.05-0.05c-0.467-0.4-0.767-0.7-0.9-0.9c-0.3-0.367-0.45-0.783-0.45-1.25
		c0-0.6,0.233-1.15,0.7-1.65c0.5-0.467,1.066-0.717,1.7-0.75c0.533-0.034,0.967,0.083,1.3,0.35h-0.05
		c-0.634,0.034-1.2,0.284-1.7,0.75c-0.467,0.5-0.7,1.05-0.7,1.65c0,0.466,0.15,0.883,0.45,1.25c0.134,0.2,0.434,0.5,0.9,0.9
		c0.6,0.467,0.899,0.867,0.899,1.2c0,0.167-0.083,0.25-0.25,0.25c-0.366-0.1-0.717-0.133-1.05-0.1c-0.434,0-0.65,0.25-0.65,0.75
		C155.1,98.183,155.184,98.383,155.35,98.55z M157.4,93.65c-0.101,0.033-0.184,0.067-0.25,0.1H157c-0.034,0-0.067,0-0.1,0
		c-0.067-0.133-0.101-0.267-0.101-0.4c0-0.367,0.101-0.55,0.3-0.55c0.134,0,0.2,0.117,0.2,0.35
		C157.3,93.35,157.333,93.517,157.4,93.65z"/>
	<path style="fill-rule:evenodd;clip-rule:evenodd;fill:#621F04;" d="M164.9,29.25l-0.051-0.9l0.5-0.05
		c0.567,0,0.983-0.066,1.25-0.2c0.134,0.1,0.2,0.25,0.2,0.45c0,0.467-0.517,0.7-1.55,0.7H164.9z M166.05,30.95
		c0.101,0.066,0.15,0.2,0.15,0.4c0,0.167-0.033,0.3-0.101,0.4c-0.066,0-0.116,0-0.149,0l-0.55,0.05c-0.067-0.2-0.2-0.316-0.4-0.35
		l-0.05-0.35l0.6-0.05C165.75,31.05,165.917,31.017,166.05,30.95z M163.4,32.75h0.3c0.166,0.267,0.434,0.383,0.8,0.35h0.6
		c0.601,0,1.051-0.067,1.351-0.2c0.1,0.067,0.149,0.2,0.149,0.4c0,0.5-0.55,0.75-1.649,0.75h-0.601c-0.466,0-0.75-0.2-0.85-0.6
		C163.467,33.217,163.434,32.983,163.4,32.75z M161.05,32.7c0.101-0.034,0.2-0.083,0.3-0.15c0.134,0.367,0.384,0.517,0.75,0.45
		c0.267,0,0.467-0.05,0.601-0.15l0.05,0.45c0,0.434-0.25,0.65-0.75,0.65c-0.4,0-0.667-0.167-0.8-0.5
		C161.134,33.283,161.083,33.033,161.05,32.7z M158.35,30.1l0.351,0.45l0.399,0.15c0.233,0,0.417-0.1,0.551-0.3
		c0.033-0.033,0.066-0.05,0.1-0.05c0,0.066,0,0.15,0,0.25c0.033,0.133,0.05,0.283,0.05,0.45l-0.25,0.3
		c-0.133,0.2-0.316,0.3-0.55,0.3c-0.134,0-0.267-0.066-0.4-0.2l-0.85-1.1c0.033,0,0.066,0,0.1,0
		C158.05,30.35,158.217,30.267,158.35,30.1z M155.8,32.6c0.032-0.032,0.049-0.066,0.05-0.1c0.001,0.467,0.218,0.7,0.65,0.7
		c0.366,0,0.583-0.184,0.65-0.55l0.449-2.35l0.051,0.05l-0.601,3.25c-0.133,0.367-0.35,0.55-0.649,0.55c-0.467,0-0.7-0.233-0.7-0.7
		L155.8,32.6z M153.7,32.85c0.166,0,0.3-0.05,0.399-0.15c0.2,0.333,0.467,0.5,0.801,0.5c0.199,0,0.366-0.05,0.5-0.15v0.35
		c0,0.5-0.217,0.75-0.65,0.75c-0.366,0-0.65-0.25-0.85-0.75L153.7,32.85z M150.9,32.6c0.033,0.367,0.267,0.55,0.699,0.55
		c0.467-0.033,0.7-0.283,0.7-0.75l0.101-0.55h0.25l0.1,0.25c0.134,0.3,0.283,0.517,0.45,0.65l-0.9,0.05l-0.1,0.55
		c-0.033,0.167-0.084,0.3-0.15,0.4c-0.1,0.2-0.283,0.3-0.55,0.3c-0.467,0.067-0.7-0.15-0.7-0.65
		C150.8,33.2,150.833,32.933,150.9,32.6z M147.2,32.95c0.333,0.233,0.733,0.35,1.2,0.35c0.6,0,1.116-0.2,1.55-0.6
		c0.1,0.066,0.233,0.1,0.399,0.1h0.051c-0.101,0.233-0.25,0.467-0.45,0.7c-0.434,0.5-0.983,0.75-1.65,0.75
		c-0.666,0-1.25-0.267-1.75-0.8c-0.2-0.233-0.366-0.483-0.5-0.75c0.334,0.2,0.7,0.283,1.101,0.25H147.2z M147.5,29.8
		c0.033-0.367,0.167-0.7,0.4-1c0.333-0.4,0.733-0.6,1.199-0.6l0.801,0.15c0.166,0,0.3-0.017,0.399-0.05
		c0.066,0.1,0.101,0.233,0.101,0.4c0,0.033,0,0.066,0,0.1c-0.034,0.1-0.067,0.2-0.101,0.3c-0.1,0.133-0.283,0.2-0.55,0.2l-0.3-0.1
		c-0.167-0.067-0.316-0.083-0.45-0.05c-0.467,0-0.866,0.2-1.2,0.6c0,0.033-0.017,0.05-0.05,0.05h-0.05
		C147.634,29.8,147.566,29.8,147.5,29.8z M153,38.15c0-0.066,0-0.117,0-0.15c0-0.6,0.134-1.083,0.4-1.45
		c0.166-0.233,0.35-0.383,0.55-0.45c0.033,0.033,0.066,0.066,0.1,0.1c0.167,0.233,0.267,0.466,0.3,0.7c-0.033,0-0.066,0-0.1,0
		c-0.4,0.033-0.717,0.233-0.95,0.6C153.167,37.667,153.066,37.883,153,38.15z M152.8,40.55c0.367,0.233,0.816,0.333,1.351,0.3
		c0.833,0,1.533-0.283,2.1-0.85c0.134-0.1,0.25-0.217,0.35-0.35c0,0.033,0,0.083,0,0.15c0.034,0.133,0.084,0.25,0.15,0.35
		c-0.134,0.3-0.333,0.567-0.6,0.8c-0.567,0.566-1.267,0.85-2.101,0.85c-0.866,0.034-1.566-0.267-2.1-0.9
		c-0.167-0.2-0.3-0.417-0.4-0.65C151.917,40.45,152.333,40.55,152.8,40.55z M159.15,36.6l-0.101-0.95l1.351-0.1
		c0.3-0.033,0.55-0.117,0.75-0.25c0.1,0.1,0.149,0.25,0.149,0.45c0,0.4-0.333,0.65-1,0.75L159.15,36.6z M159.3,39.55l-0.05-0.9
		l0.6-0.05c0.2-0.033,0.351-0.067,0.45-0.1c0.134,0.067,0.2,0.2,0.2,0.4c0,0.367-0.25,0.583-0.75,0.65H159.3z M157.65,40.3
		c0.066-0.033,0.133-0.083,0.199-0.15c0.067,0.367,0.301,0.55,0.7,0.55c0.3,0,0.517-0.117,0.65-0.35v0.3c0,0.667-0.25,1-0.75,1
		c-0.4,0-0.634-0.183-0.7-0.55C157.684,40.833,157.65,40.567,157.65,40.3z M156,49.3c-0.033-0.1-0.05-0.2-0.05-0.3
		c0-0.533,0.217-1.033,0.649-1.5c0.434-0.467,0.934-0.7,1.5-0.7c0.334-0.033,0.717,0.017,1.15,0.15c0.167,0,0.316-0.05,0.45-0.15
		c0.1,0.1,0.149,0.233,0.149,0.4c0,0.466-0.233,0.7-0.699,0.7c-0.434-0.133-0.834-0.183-1.2-0.15c-0.566,0-1.066,0.233-1.5,0.7
		C156.217,48.717,156.066,49,156,49.3z M154.1,51.75c0.567,0.4,1.2,0.633,1.9,0.7c0.566,0.267,1.184,0.383,1.85,0.35
		c0.367,0,0.65-0.066,0.851-0.2c0.1,0.1,0.149,0.217,0.149,0.35c0,0.533-0.383,0.8-1.149,0.8c-1.101,0.033-2.033-0.3-2.8-1
		C154.566,52.45,154.3,52.117,154.1,51.75z M158.7,59.1c-0.167-0.233-0.3-0.417-0.4-0.55c0.533-0.4,0.9-0.816,1.101-1.25
		c0,0.067,0,0.15,0,0.25C159.4,58.117,159.167,58.633,158.7,59.1z M158.1,61.1c0.301,0.267,0.584,0.4,0.851,0.4
		c0.233,0,0.434-0.05,0.6-0.15c0.066,0.167,0.101,0.3,0.101,0.4c0,0.467-0.267,0.7-0.801,0.7c-0.366,0-0.733-0.2-1.1-0.6l-0.9-1
		v-0.1c0.267,0.267,0.551,0.4,0.851,0.4C157.833,61.15,157.967,61.133,158.1,61.1z M155.1,61.6c0.167,0.267,0.434,0.4,0.801,0.4
		c0.433,0,0.716-0.15,0.85-0.45l-0.05,0.6c-0.033,0.533-0.334,0.8-0.9,0.8c-0.533,0-0.866-0.267-1-0.8
		c-0.033-0.167-0.066-0.333-0.1-0.5C154.833,61.65,154.967,61.633,155.1,61.6z M153.35,70.05V70c0.434,0.3,0.95,0.483,1.551,0.55
		c0.533,0.267,1.149,0.383,1.85,0.35c1.1-0.033,2.033-0.383,2.8-1.05c0.566-0.5,0.934-1.083,1.101-1.75c0,0.033,0,0.066,0,0.1
		c0,1.033-0.4,1.9-1.2,2.6c-0.767,0.667-1.7,1.017-2.8,1.05c-1.167,0.033-2.084-0.317-2.75-1.05
		C153.667,70.567,153.483,70.317,153.35,70.05z M155.25,67.8c0-0.066,0-0.117,0-0.15c0-0.7,0.184-1.267,0.55-1.7
		c0.3-0.367,0.65-0.567,1.05-0.6c0.067,0.033,0.134,0.1,0.2,0.2c0.2,0.233,0.334,0.483,0.4,0.75c-0.167-0.033-0.334-0.05-0.5-0.05
		c-0.5,0-0.917,0.217-1.25,0.65C155.5,67.133,155.35,67.433,155.25,67.8z M156.95,79.5c0.033,0,0.083,0,0.149,0
		c0.134,0,0.267-0.033,0.4-0.1c0.233,0.3,0.517,0.45,0.85,0.45c0.434-0.033,0.834-0.367,1.2-1c0.167-0.3,0.467-0.967,0.9-2
		c0.5-1.1,0.8-1.833,0.899-2.2c0.034-0.167,0.084-0.3,0.15-0.4c0,0.067,0,0.133,0,0.2c0,0.167-0.1,0.55-0.3,1.15
		c-0.134,0.4-0.417,1.117-0.851,2.15c-0.433,1.033-0.733,1.7-0.899,2c-0.367,0.667-0.767,1-1.2,1c-0.333,0.033-0.616-0.1-0.85-0.4
		C157.3,80.217,157.15,79.933,156.95,79.5z M153.95,79.55c0.2,0.333,0.5,0.467,0.899,0.4c0.434,0,0.767-0.2,1-0.6
		c0.067-0.1,0.167-0.25,0.301-0.45c0.033,0.067,0.066,0.117,0.1,0.15c0.033,0.034,0.066,0.067,0.1,0.1
		c-0.233,0.467-0.433,0.85-0.6,1.15c-0.267,0.4-0.6,0.6-1,0.6c-0.434,0-0.733-0.133-0.9-0.4c-0.133-0.2-0.283-0.5-0.449-0.9
		c0.066,0,0.133,0,0.199,0C153.733,79.6,153.85,79.583,153.95,79.55z M156.05,87.75c0.334,0.333,0.634,0.6,0.9,0.8
		c0.3,0.2,0.583,0.3,0.85,0.3c0.101,0,0.2-0.017,0.3-0.05c0.067,0.034,0.117,0.067,0.15,0.1c0.333,0.2,0.6,0.3,0.8,0.3
		c0.467-0.034,0.783-0.284,0.95-0.75c0.033-0.1,0.066-0.2,0.1-0.3c-0.033,0.567-0.1,0.983-0.199,1.25
		c-0.167,0.467-0.483,0.717-0.95,0.75c-0.167,0-0.45-0.1-0.851-0.3C157.566,89.517,156.884,88.817,156.05,87.75z M153.65,88.95
		c0.133-0.034,0.25-0.083,0.35-0.15c0.033,0.133,0.066,0.233,0.1,0.3c0.134,0.133,0.334,0.2,0.601,0.2
		c0.399-0.033,0.684-0.216,0.85-0.55V89c0,0.8-0.316,1.2-0.95,1.2c-0.3,0.033-0.5-0.034-0.6-0.2c-0.066-0.067-0.167-0.283-0.3-0.65
		C153.667,89.25,153.65,89.117,153.65,88.95z M155.35,98.55c0.2,0.233,0.584,0.35,1.15,0.35c0.8-0.033,1.4-0.283,1.8-0.75
		c0.2-0.233,0.351-0.483,0.45-0.75c0,0.067,0,0.133,0,0.2c0,0.566-0.184,1.05-0.55,1.45c-0.434,0.467-1.05,0.717-1.851,0.75
		c-0.899,0.034-1.35-0.267-1.35-0.9c0-0.133,0.017-0.25,0.05-0.35c0.066,0,0.134,0,0.2,0C155.283,98.55,155.316,98.55,155.35,98.55z
		 M158,95.05c-0.1-0.1-0.217-0.216-0.35-0.35c-0.167-0.167-0.317-0.333-0.45-0.5c0-0.034,0-0.067,0-0.1c0-0.2-0.017-0.317-0.05-0.35
		c0.066-0.033,0.149-0.067,0.25-0.1c0.1,0.3,0.35,0.45,0.75,0.45c0.366-0.033,0.633-0.184,0.8-0.45c0,0.1,0,0.2,0,0.3
		c0,0.667-0.3,1.033-0.9,1.1H158z M156.9,93.75c0.032,0,0.065,0,0.1,0c-0.034,0.001-0.067,0.018-0.1,0.05V93.75z"/>
	<path style="fill-rule:evenodd;clip-rule:evenodd;fill:#6A7E2E;" d="M121.55,60.5l-1.2,1.3c-0.433,0.534-0.666,1.1-0.699,1.7
		c0,0.333,0.033,0.567,0.1,0.7c0.7,0.066,1.75,0.1,3.15,0.1c0.366-2.5,1.383-3.716,3.05-3.65c-0.533,0.233-0.917,0.767-1.15,1.6
		c-0.166,0.667-0.217,1.35-0.149,2.05v0.05c1.533,0.066,2.716,0.133,3.55,0.2c0-0.633,0.116-1.15,0.35-1.55
		c0.134-0.333,0.5-0.733,1.101-1.2c0.199-0.167,0.466-0.316,0.8-0.45c0.2-0.067,0.467-0.184,0.8-0.35h0.1c-0.666,0.567-1,1.567-1,3
		v0.75l2,0.25c1.301,0,2.167,0.05,2.601,0.15c-0.233,0.3-0.434,0.633-0.601,1c-0.1,0.233-0.183,0.583-0.25,1.05l-0.05,0.25
		c-0.434-0.067-0.717-0.117-0.85-0.15c-0.2-0.033-0.65-0.017-1.351,0.05c-0.566,0-1.017-0.05-1.35-0.15
		c-0.634-0.233-0.983-0.8-1.05-1.7c0-1.033-0.05-1.75-0.15-2.15c-0.399,0.267-0.666,0.816-0.8,1.65c-0.1,0.8-0.05,1.45,0.15,1.95
		c-2.334,0.3-3.784,0.15-4.351-0.45c-0.3-0.333-0.45-0.967-0.45-1.9c0.101-1,0.15-1.684,0.15-2.05c-0.434,0.6-0.7,1.133-0.8,1.6
		c-0.033,0.167-0.05,0.633-0.05,1.4l-0.15,0.4L122.65,66c-1.034,0.133-1.917,0.033-2.65-0.3c-0.7-0.233-1.167-0.633-1.4-1.2
		c-0.466-1.233-0.333-2.417,0.4-3.55c0.434-0.167,0.816-0.267,1.15-0.3C120.384,60.583,120.85,60.533,121.55,60.5z M135.2,65.1
		c0.066-0.2,0.149-0.367,0.25-0.5l-0.4,0.4l0.05-1c0.233-0.733,0.784-1.317,1.65-1.75c0.767-0.433,1.55-0.633,2.35-0.6
		c-1.133,0.533-1.733,1.3-1.8,2.3v1.55l2.4,0.6c0-0.3,0.05-0.6,0.149-0.9c0.367-0.867,1.017-1.583,1.95-2.15
		c-0.434,0.4-0.583,0.9-0.45,1.5l0.101-0.05l-0.15,0.25c-0.2,0.6-0.25,1.167-0.149,1.7c0.233-0.434,0.5-0.85,0.8-1.25
		c0,0.667,0,1.333,0,2c-0.033,0.167-0.066,0.35-0.101,0.55l-0.05,0.4c-0.566,0.133-0.95-0.167-1.149-0.9
		c-0.134-0.533-0.167-1.117-0.101-1.75l-0.85,0.95c-0.233,0.233-0.434,0.517-0.601,0.85c-0.233,0.434-0.333,0.767-0.3,1
		c-0.399,0.067-1-0.017-1.8-0.25c-0.9-0.233-1.4-0.533-1.5-0.9c-0.033-0.133-0.017-0.383,0.05-0.75c0.066-0.4,0.101-0.65,0.101-0.75
		c0.066-0.566,0.233-1.033,0.5-1.4C135.583,64.717,135.267,65,135.2,65.1z"/>
	<path style="fill-rule:evenodd;clip-rule:evenodd;fill:#7D9436;" d="M119,60.95l-0.45,0.2c0.066-0.033,0.134-0.066,0.2-0.1
		c0.5-0.233,0.967-0.367,1.4-0.4C119.816,60.683,119.434,60.783,119,60.95z M131.25,61c-0.333,0.167-0.6,0.283-0.8,0.35
		c-0.334,0.133-0.601,0.283-0.8,0.45c-0.601,0.467-0.967,0.867-1.101,1.2c-0.233,0.4-0.35,0.917-0.35,1.55
		c-0.834-0.066-2.017-0.133-3.55-0.2V64.3c-0.067-0.7-0.017-1.383,0.149-2.05c0.233-0.833,0.617-1.367,1.15-1.6
		c-1.667-0.066-2.684,1.15-3.05,3.65c-1.4,0-2.45-0.033-3.15-0.1c-0.066-0.133-0.1-0.367-0.1-0.7c0.033-0.6,0.267-1.167,0.699-1.7
		l1.2-1.3L121,61.15c-0.4,0.567-0.667,1.283-0.8,2.15c0.133,0.034,0.5,0.034,1.1,0c0.5-0.033,0.867,0,1.101,0.1
		c0.166-0.5,0.3-0.867,0.399-1.1c0.134-0.466,0.316-0.816,0.55-1.05c0.2-0.233,0.517-0.483,0.95-0.75c0.667,0,1.434,0.017,2.3,0.05
		c-0.399,0.267-0.733,0.65-1,1.15c-0.267,0.533-0.35,1-0.25,1.4c0.5,0.1,1.267,0.117,2.301,0.05c0.199-0.733,0.483-1.217,0.85-1.45
		C128.967,61.4,129.884,61.167,131.25,61z M135.05,65l-0.1,0.15c-0.434-0.1-1.3-0.15-2.601-0.15l-2-0.25V64c0-1.433,0.334-2.433,1-3
		l0.351-0.05c-0.566,0.7-0.9,1.483-1,2.35h1.649c0.034,0,0.301,0.034,0.801,0.1c0.433,0.067,0.699,0.083,0.8,0.05l0.25-0.1
		c0.033-0.067,0.083-0.133,0.149-0.2l0.351-0.9c0.233-0.5,0.649-0.867,1.25-1.1c0.033-0.033,0.316-0.133,0.85-0.3l-3.149-0.1
		c0.767,0,1.6,0.017,2.5,0.05c1.1,0,3.033,0.383,5.8,1.15V62c-1.033-0.3-1.75-0.483-2.15-0.55c-0.533,0.167-1,0.466-1.399,0.9
		c-0.4,0.5-0.534,0.983-0.4,1.45c0.434,0.067,1.083,0.067,1.95,0c-0.134-0.8,0.533-1.333,2-1.6c0,0.233,0,0.483,0,0.75
		c-0.066,0.033-0.117,0.066-0.15,0.1c-0.934,0.567-1.583,1.284-1.95,2.15c-0.1,0.3-0.149,0.6-0.149,0.9l-2.4-0.6v-1.55
		c0.066-1,0.667-1.767,1.8-2.3c-0.8-0.033-1.583,0.167-2.35,0.6c-0.866,0.433-1.417,1.017-1.65,1.75L135.05,65z M141.95,65.2
		c-0.3,0.4-0.566,0.816-0.8,1.25c-0.101-0.534-0.051-1.1,0.149-1.7l0.15-0.25c0.166-0.167,0.333-0.317,0.5-0.45
		C141.95,64.417,141.95,64.8,141.95,65.2z"/>
	<path style="fill-rule:evenodd;clip-rule:evenodd;fill:#3B4619;" d="M134.95,65.15l0.1-0.15l0.4-0.4
		c-0.101,0.133-0.184,0.3-0.25,0.5c-0.267,0.533-0.417,1.117-0.45,1.75c-0.033,0.667,0.1,1.117,0.4,1.35
		c0.433,0.333,1.199,0.6,2.3,0.8c0.399,0.067,0.934,0.2,1.6,0.4c0.101-0.233,0.2-0.517,0.3-0.85c-0.066,0.5,0.167,0.883,0.7,1.15
		c0.267,0.133,0.8,0.283,1.601,0.45c0-0.433,0.083-0.867,0.25-1.3c0,0.533,0,1.066,0,1.6c-1.567-0.333-3.417-0.717-5.551-1.15
		c-1.033-0.2-2.216-0.283-3.55-0.25c-1.3,0.067-2.116,0.1-2.45,0.1h-6.75h-2.25c-1,0-2-0.217-3-0.65
		c-1.466-0.667-1.916-2.4-1.35-5.2c0.033-0.267,0.116-0.517,0.25-0.75c0.033-0.1,0.083-0.2,0.15-0.3
		c0.199-0.367,0.466-0.65,0.8-0.85l0.35-0.25h0.101c-0.767,0.4-1.217,1.35-1.351,2.85c-0.1,0.733-0.133,1.233-0.1,1.5
		c0.066,0.467,0.316,0.9,0.75,1.3c0.7,0.667,1.717,1,3.05,1c0.967,0.1,1.533,0.034,1.7-0.2c0.1-0.133,0.166-0.367,0.2-0.7
		c0.033-0.433,0.066-0.75,0.1-0.95l0.15-0.4c-0.067,1.267,0.433,2.067,1.5,2.4c0.333,0.1,0.767,0.183,1.3,0.25
		c0.3,0.033,0.75,0.066,1.35,0.1l0.75,0.15c0.3,0.033,0.55,0.033,0.75,0c0.066-0.4,0.066-0.817,0-1.25c0.634,1.4,2.3,1.933,5,1.6
		c0.101-0.3,0.184-0.75,0.25-1.35l0.05-0.25c0.067-0.467,0.15-0.817,0.25-1.05C134.517,65.783,134.717,65.45,134.95,65.15z"/>
	<path style="fill-rule:evenodd;clip-rule:evenodd;fill:#556424;" d="M118.55,61.15l0.45-0.2c-0.733,1.133-0.866,2.316-0.4,3.55
		c0.233,0.567,0.7,0.967,1.4,1.2c0.733,0.333,1.616,0.433,2.65,0.3l0.35-0.05c-0.033,0.2-0.066,0.517-0.1,0.95
		c-0.034,0.333-0.101,0.567-0.2,0.7c-0.167,0.233-0.733,0.3-1.7,0.2c-1.333,0-2.35-0.333-3.05-1c-0.434-0.4-0.684-0.833-0.75-1.3
		c-0.033-0.267,0-0.767,0.1-1.5c0.134-1.5,0.584-2.45,1.351-2.85H118.55z M141.9,68.85c-0.167,0.433-0.25,0.867-0.25,1.3
		c-0.801-0.167-1.334-0.316-1.601-0.45c-0.533-0.267-0.767-0.65-0.7-1.15c-0.1,0.333-0.199,0.617-0.3,0.85
		c-0.666-0.2-1.2-0.333-1.6-0.4c-1.101-0.2-1.867-0.467-2.3-0.8c-0.301-0.233-0.434-0.684-0.4-1.35
		c0.033-0.633,0.184-1.217,0.45-1.75c0.066-0.1,0.383-0.383,0.95-0.85c-0.267,0.367-0.434,0.833-0.5,1.4
		c0,0.1-0.034,0.35-0.101,0.75c-0.066,0.367-0.083,0.617-0.05,0.75c0.1,0.367,0.6,0.667,1.5,0.9c0.8,0.233,1.4,0.317,1.8,0.25
		c-0.033-0.233,0.066-0.566,0.3-1c0.167-0.333,0.367-0.617,0.601-0.85l0.85-0.95c-0.066,0.633-0.033,1.217,0.101,1.75
		c0.199,0.733,0.583,1.033,1.149,0.9l0.05-0.4c0.034-0.2,0.067-0.383,0.101-0.55C141.917,67.767,141.9,68.317,141.9,68.85z
		 M134.05,67.45c-0.066,0.6-0.149,1.05-0.25,1.35c-2.7,0.333-4.366-0.2-5-1.6c0.066,0.433,0.066,0.85,0,1.25
		c-0.2,0.033-0.45,0.033-0.75,0l-0.75-0.15c-0.6-0.033-1.05-0.066-1.35-0.1c-0.533-0.067-0.967-0.15-1.3-0.25
		c-1.067-0.333-1.567-1.133-1.5-2.4c0-0.767,0.017-1.233,0.05-1.4c0.1-0.467,0.366-1,0.8-1.6c0,0.367-0.05,1.05-0.15,2.05
		c0,0.933,0.15,1.566,0.45,1.9c0.566,0.6,2.017,0.75,4.351,0.45c-0.2-0.5-0.25-1.15-0.15-1.95c0.134-0.833,0.4-1.383,0.8-1.65
		c0.101,0.4,0.15,1.117,0.15,2.15c0.066,0.9,0.416,1.467,1.05,1.7c0.333,0.1,0.783,0.15,1.35,0.15c0.7-0.067,1.15-0.083,1.351-0.05
		C133.333,67.333,133.616,67.383,134.05,67.45z"/>
	<path style="fill-rule:evenodd;clip-rule:evenodd;fill:#A3C147;" d="M124.3,60.5c-0.434,0.267-0.75,0.517-0.95,0.75
		c-0.233,0.233-0.416,0.583-0.55,1.05c-0.1,0.233-0.233,0.6-0.399,1.1c-0.233-0.1-0.601-0.133-1.101-0.1
		c-0.6,0.034-0.967,0.034-1.1,0c0.133-0.867,0.399-1.583,0.8-2.15l0.55-0.65c0.434-0.033,0.983-0.033,1.65,0l1.149-0.05L124.3,60.5z
		 M131.25,61c-1.366,0.167-2.283,0.4-2.75,0.7c-0.366,0.233-0.65,0.716-0.85,1.45c-1.034,0.067-1.801,0.05-2.301-0.05
		c-0.1-0.4-0.017-0.867,0.25-1.4c0.267-0.5,0.601-0.883,1-1.15V60.5l1.2,0.05c0.101,0,0.217,0.017,0.351,0.05l5.5,0.15l3.149,0.1
		c-0.533,0.167-0.816,0.267-0.85,0.3c-0.601,0.233-1.017,0.6-1.25,1.1l-0.351,0.9c-0.066,0.067-0.116,0.133-0.149,0.2l-0.25,0.1
		c-0.101,0.033-0.367,0.017-0.8-0.05c-0.5-0.066-0.767-0.1-0.801-0.1H130.7c0.1-0.867,0.434-1.65,1-2.35L131.35,61H131.25z
		 M141.95,62.2c-1.467,0.267-2.134,0.8-2,1.6c-0.867,0.067-1.517,0.067-1.95,0c-0.134-0.466,0-0.95,0.4-1.45
		c0.399-0.434,0.866-0.733,1.399-0.9c0.4,0.066,1.117,0.25,2.15,0.55C141.95,62.033,141.95,62.1,141.95,62.2z M141.95,64.05
		c-0.167,0.133-0.334,0.284-0.5,0.45l-0.101,0.05c-0.133-0.6,0.017-1.1,0.45-1.5c0.033-0.033,0.084-0.066,0.15-0.1
		C141.95,63.317,141.95,63.683,141.95,64.05z"/>
	
		<radialGradient id="SVGID_15_" cx="82.9663" cy="-113.9546" r="24.529" gradientTransform="matrix(0.157 0.9876 0.6329 -0.1656 182.9028 -47.8611)" gradientUnits="userSpaceOnUse">
		<stop  offset="0.2902" style="stop-color:#695D17"/>
		<stop  offset="1" style="stop-color:#D3C045"/>
	</radialGradient>
	<path style="fill-rule:evenodd;clip-rule:evenodd;fill:url(#SVGID_15_);" d="M117.25,62.55c0-0.033,0-0.066,0-0.1
		c0.033-0.1,0.083-0.167,0.15-0.2C117.333,62.35,117.283,62.45,117.25,62.55z M117,63.3c-0.566,2.8-0.116,4.534,1.35,5.2
		c1,0.433,2,0.65,3,0.65h2.25c0.667,2.233,1.067,4.133,1.2,5.7c0.167,2.2-0.35,3.316-1.55,3.35c-1.3,0.033-2.733-1.534-4.3-4.7
		C116.983,69.5,116.333,66.1,117,63.3z"/>
	<path style="fill-rule:evenodd;clip-rule:evenodd;fill:#642004;" d="M148.35,92.5c-0.033,1.567-0.566,2.817-1.6,3.75
		c-1.2,1.1-3.25,2-6.15,2.7c-2.899,0.7-5.35,1.15-7.35,1.35l-2.15,0.15l-0.149-3.5c-0.101-1.1-1.134-1.2-3.101-0.3
		c-1,0.434-3.25,1.7-6.75,3.8c-2.333,1.367-5.733,3.717-10.199,7.05c-0.367-0.967-0.084-1.95,0.85-2.95
		c0.167-0.166,0.333-0.333,0.5-0.5c0.033-0.033,0.316-0.233,0.85-0.6L113.7,103c0.7-0.533,1.566-1.183,2.6-1.95
		c7.7-5.4,12.417-8.216,14.15-8.45c1.467-0.2,2.267,1.617,2.399,5.45c3.5-0.133,6.517-0.5,9.051-1.1
		C145.866,95.95,148.017,94.467,148.35,92.5z"/>
	
		<radialGradient id="SVGID_16_" cx="106.0596" cy="-113.6445" r="47.7501" gradientTransform="matrix(0.1779 0.984 0.8345 -0.1509 206.6718 -37.3639)" gradientUnits="userSpaceOnUse">
		<stop  offset="0.2902" style="stop-color:#695D17"/>
		<stop  offset="1" style="stop-color:#D3C045"/>
	</radialGradient>
	<path style="fill-rule:evenodd;clip-rule:evenodd;fill:url(#SVGID_16_);" d="M104.2,106.7c0.233,0.267,0.517,0.583,0.85,0.95
		c1.267,2.399,5.684,6.066,13.25,11c7.5,4.866,12,7.3,13.5,7.3c0.134,0,0.267,0,0.4,0c-0.101,0.934-0.184,1.5-0.25,1.7
		c-0.834,3.066-2.634,4.783-5.4,5.149c-2.866,0.367-5.7-0.649-8.5-3.05c-1.733-1.467-3.95-4.066-6.649-7.8
		c-1.867-2.566-3.7-6.101-5.5-10.601C105.1,109.384,104.533,107.833,104.2,106.7z"/>
</g>
<g>
	
		<radialGradient id="SVGID_17_" cx="77.9707" cy="-22.3696" r="117.2491" gradientTransform="matrix(0.3674 0.9301 0.9301 -0.3674 41.611 -16.436)" gradientUnits="userSpaceOnUse">
		<stop  offset="0.2157" style="stop-color:#C1B141"/>
		<stop  offset="1" style="stop-color:#7B6F28"/>
	</radialGradient>
	<path style="fill-rule:evenodd;clip-rule:evenodd;fill:url(#SVGID_17_);" d="M70.95,131.7c0.4,0.366,0.583,0.8,0.55,1.3
		c0,0.6-0.283,1.1-0.85,1.5l1.75,3.05l1.9-3.35c-0.4-0.334-0.6-0.767-0.6-1.3c0-0.534,0.2-0.983,0.6-1.351
		c0.367-0.366,0.833-0.583,1.4-0.649c0.533-0.034,0.983,0.1,1.35,0.399c0.4,0.334,0.583,0.75,0.55,1.25c0,0.434-0.15,0.834-0.45,1.2
		c-0.267,0.366-0.633,0.616-1.1,0.75l0.65,2.95l3.6-1.9c-0.233-0.3-0.35-0.616-0.35-0.95c0-0.433,0.167-0.85,0.5-1.25
		c0.367-0.366,0.783-0.6,1.25-0.699c0.466-0.101,0.867-0.034,1.2,0.199c0.3,0.233,0.45,0.584,0.45,1.051
		c0,0.433-0.167,0.866-0.5,1.3c-0.333,0.399-0.733,0.649-1.2,0.75H81.3L80,139.4c0.933,0.166,1.4,0.733,1.4,1.699
		c0,0.567-0.25,1.134-0.75,1.7c0.133,0.3,0.2,0.634,0.2,1c0.167,3.967-0.25,6.617-1.25,7.95c-1.667,2.2-3.333,3.5-5,3.9
		c-0.7,0.166-1.667,0.149-2.9-0.051c-0.1,0.233-0.184,0.7-0.25,1.4l0.45,0.4c0.767,0.767,1.217,1.399,1.35,1.899
		c0.433,0.167,0.867,0.267,1.3,0.3l0.5,0.101l0.75-0.3c0.167-0.334,0.333-0.483,0.5-0.45c0.2,0,0.3,0.083,0.3,0.25
		c0,0.133-0.067,0.267-0.2,0.399l-0.1,0.15l0.15,0.1c0.066,0.034,0.233,0.051,0.5,0.051c0.1-0.034,0.2-0.017,0.3,0.05
		c0.133,0.033,0.217,0.1,0.25,0.2c0,0.366-0.2,0.566-0.6,0.6l0.3,0.15c0.1,0.1,0.117,0.216,0.05,0.35s-0.183,0.217-0.35,0.25
		l-0.35,0.05l0.1,0.101c0.133,0.199,0.033,0.366-0.3,0.5c-0.2,0.033-0.55-0.034-1.05-0.2l-0.2-0.05l-0.55-0.301
		c-0.167,0.067-0.35,0.067-0.55,0c-0.967-0.199-1.733-0.517-2.3-0.949c-0.367-0.267-0.567-0.534-0.6-0.801l-0.1-0.1l-0.15,0.35
		c-0.667,1.567-1.317,2.7-1.95,3.4l0.15,0.05c0.3,0.066,0.517,0.15,0.65,0.25c0.1,0.066,0.3,0.233,0.6,0.5l0.8,0.65
		c0.467-0.3,0.85-0.517,1.15-0.65l0.65-0.2l0.5-0.399c0.333-0.134,0.55-0.05,0.65,0.25c0.034,0.066-0.017,0.184-0.15,0.35l0.3-0.05
		c0.167,0.1,0.216,0.233,0.15,0.4l-0.2,0.3l0.1,0.1c0.067,0.066,0.083,0.167,0.05,0.3c-0.066,0.301-0.183,0.467-0.35,0.5
		c-0.167,0.101-0.25,0.134-0.25,0.101l-0.1,0.1c-0.133,0.2-0.333,0.417-0.6,0.65c-0.533,0.267-0.9,0.483-1.1,0.649
		c-0.5,0.4-0.917,0.584-1.25,0.551c-0.133-0.034-0.3-0.15-0.5-0.351c-0.2-0.166-0.316-0.3-0.35-0.399
		c-0.033-0.034-0.033-0.084,0-0.15c-0.367-0.066-0.783-0.3-1.25-0.7l-0.8-0.55c-0.333,0-0.683-0.116-1.05-0.35l-1.95-1.051
		c-0.733,0.367-1.483,0.551-2.25,0.551c-0.733,0.033-1.2-0.134-1.4-0.5H61l-1.15-0.2c-0.1,0.2-0.233,0.35-0.4,0.45
		c-0.2,0.166-0.483,0.316-0.85,0.449l-0.15,0.101c0,0.3-0.017,0.45-0.05,0.45c-0.167,0.1-0.283,0.149-0.35,0.149
		c-0.033,0-0.117-0.05-0.25-0.149l-0.15-0.45c-0.133,0-0.233-0.033-0.3-0.101c-0.133-0.133-0.2-0.3-0.2-0.5l0.05-0.25
		c-0.1,0.034-0.167-0.05-0.2-0.25c-0.067-0.233,0-0.399,0.2-0.5l0.8-0.75c0.2-0.166,0.5-0.316,0.9-0.449
		c0.4-0.301,0.717-0.4,0.95-0.301l0.3,0.25l0.9,0.15c0.3,0.066,0.65,0.1,1.05,0.1l0.4,0.2l0.8-0.149
		c-0.267-0.367-0.433-0.733-0.5-1.101c-0.066-0.5,0.284-1.133,1.05-1.899l2.2-2.301c-0.833,0.233-1.483,0.334-1.95,0.301
		l-1.55,0.899c0.267,0.267,0.383,0.434,0.35,0.5c-0.1,0.2-0.25,0.3-0.45,0.3c-0.133-0.033-0.267-0.116-0.4-0.25l-0.1-0.1l-0.15,0.1
		c-0.133,0.067-0.233,0.217-0.3,0.45c0,0.101-0.05,0.2-0.15,0.3C61.25,159.95,61.133,160,61,160s-0.25-0.05-0.35-0.15
		c-0.133-0.166-0.183-0.333-0.15-0.5l-0.3,0.301c-0.167,0.066-0.3,0.05-0.4-0.051c-0.133-0.066-0.183-0.183-0.15-0.35l0.05-0.3
		L59.6,159c-0.1,0.1-0.2,0.116-0.3,0.05c-0.167-0.033-0.233-0.149-0.2-0.35c0.066-0.4,0.267-0.717,0.6-0.95l0.2-0.2
		c0.434-0.434,0.867-0.733,1.3-0.899h0.05c0.633-0.334,1.483-0.634,2.55-0.9c0.133-0.066,1.017-0.25,2.65-0.55
		c0.933-0.134,1.517-0.15,1.75-0.05l0.6-0.45c-0.733-0.3-1.4-0.667-2-1.101c-2.566-1.933-3.85-4.233-3.85-6.899
		c-0.034-0.967,0.05-1.884,0.25-2.75c-0.7-0.566-1.05-1.217-1.05-1.95c0-0.566,0.233-1.05,0.7-1.45c0.433-0.366,0.967-0.55,1.6-0.55
		l-1.3-3.25H62.8c-0.533-0.066-0.983-0.3-1.35-0.7c-0.367-0.399-0.55-0.833-0.55-1.3s0.184-0.833,0.55-1.1s0.816-0.384,1.35-0.351
		c0.5,0.066,0.934,0.283,1.3,0.65c0.367,0.399,0.55,0.816,0.55,1.25c0,0.399-0.133,0.733-0.4,1c1.1,0.533,2.367,1.083,3.8,1.649
		l0.75-3.149c-0.867-0.3-1.3-0.9-1.3-1.8c0-0.534,0.2-0.967,0.6-1.301c0.4-0.333,0.883-0.5,1.45-0.5
		C70.117,131.134,70.583,131.333,70.95,131.7z"/>
	
		<radialGradient id="SVGID_18_" cx="77.9692" cy="-22.374" r="117.2329" gradientTransform="matrix(0.3673 0.9301 0.9301 -0.3673 41.62 -16.4375)" gradientUnits="userSpaceOnUse">
		<stop  offset="0.2157" style="stop-color:#C1B141"/>
		<stop  offset="1" style="stop-color:#7B6F28"/>
	</radialGradient>
	<path style="fill-rule:evenodd;clip-rule:evenodd;fill:url(#SVGID_18_);" d="M76.9,155.95l0.4-0.25c0.667-0.5,1.417-1.167,2.25-2
		c1.3,2.133,1.95,4.434,1.95,6.899c0,3.801-1.4,7.051-4.2,9.75c-2.833,2.667-6.25,4-10.25,4s-7.4-1.333-10.2-4
		c-2.833-2.699-4.25-5.949-4.25-9.75c0-2.833,0.833-5.416,2.5-7.75c1.633-2.267,3.8-3.916,6.5-4.949
		c0.133,1.166,0.55,2.283,1.25,3.35c-2.1,0.8-3.817,2.1-5.15,3.9c-1.333,1.833-2,3.866-2,6.1c0,2.967,1.117,5.5,3.35,7.6
		c2.2,2.101,4.867,3.15,8,3.15s5.8-1.05,8-3.15c2.233-2.1,3.35-4.633,3.35-7.6C78.4,159.35,77.9,157.583,76.9,155.95z"/>
</g>
<g>
	<path style="fill-rule:evenodd;clip-rule:evenodd;fill:#93872B;" d="M26.8,121.45l-0.35,8.3c-0.167,6.4-0.15,11.733,0.05,16
		c0.333,6.833,0.7,12.384,1.1,16.65c-0.934-0.034-2.083-0.2-3.45-0.5c-2.733-0.567-5.2-1.45-7.4-2.65s-4.183-7.434-5.95-18.7
		L8.75,124L26.8,121.45z"/>
</g>
</svg>
