<?xml version="1.0" encoding="iso-8859-1"?>
<!-- Generator: Adobe Illustrator 15.1.0, SVG Export Plug-In . SVG Version: 6.00 Build 0)  -->
<!DOCTYPE svg PUBLIC "-//W3C//DTD SVG 1.1//EN" "http://www.w3.org/Graphics/SVG/1.1/DTD/svg11.dtd">
<svg version="1.1" id="Layer_1" xmlns="http://www.w3.org/2000/svg" xmlns:xlink="http://www.w3.org/1999/xlink" x="0px" y="0px"
	 width="107.6px" height="192.05px" viewBox="0 0 107.6 192.05" style="enable-background:new 0 0 107.6 192.05;"
	 xml:space="preserve">
<g>
	
		<linearGradient id="SVGID_1_" gradientUnits="userSpaceOnUse" x1="18.7261" y1="-2.0859" x2="174.1701" y2="-2.0859" gradientTransform="matrix(0.3924 0.9198 -0.9198 0.3924 -2.982616e-004 2.550483e-004)">
		<stop  offset="0" style="stop-color:#696250"/>
		<stop  offset="1" style="stop-color:#4A4637"/>
	</linearGradient>
	<path style="fill-rule:evenodd;clip-rule:evenodd;fill:url(#SVGID_1_);" d="M80.1,12.3l0.45,21.85c0.334,16,0.483,26.267,0.45,30.8
		c-0.066,7.3-0.066,41.149,0,101.55h-0.4H0.45c0.033-0.333,0.066-0.667,0.1-1c0.367-4.233,0.55-9.733,0.55-16.5
		c0.667-59.667,1-93.5,1-101.5v-36l10.8-0.05l29.95,0.15c0.566,0,1.133,0,1.7,0c0.767,0,1.534,0,2.3,0l33.2-0.05L80.1,12.3z
		 M76.7,15.7c0-0.067,0-0.133,0-0.2l-0.05-0.2h-0.2c-18.066-0.5-28.733-0.75-32-0.75L6.2,14.9L5.85,61.6h0.4V62l0.25,0.05
		c0.1,0,8.433,0.117,25,0.35c5.5,0,20.833-0.117,46-0.35h0.25V48.9c0-1.9-0.217-12.883-0.65-32.95V15.7h-0.25
		C76.816,15.7,76.767,15.7,76.7,15.7z M76.2,16.2c0.066,2.8,0.283,13.55,0.649,32.25V61.1c-2.133,0.033-9.183,0.1-21.149,0.2
		c-12.867,0.1-21.067,0.15-24.6,0.15c-6.6,0-14.717-0.117-24.35-0.35L7.1,15.85l37.75-0.35C47.95,15.5,58.4,15.733,76.2,16.2z
		 M30.2,39.4v0.25h0.3L30.45,40L53.1,41l0.15-5.7l-0.5-6.85H52l-0.05-0.8H51.7V27.4l-14.25-0.05c-2.1-0.033-3.983-0.017-5.65,0.05
		l-1.9,0.1l0.05,11.9H30.2z M34.55,45.25c-0.167-0.233-0.316-0.483-0.45-0.75l-0.45-1.1h-3.3c-0.267,0.267-0.533,0.567-0.8,0.9
		c-0.5,0.667-0.7,1.117-0.6,1.35c-0.034,0.133-0.034,0.233,0,0.3c0,0.033,0.017,0.066,0.05,0.1l-0.05,0.15
		c-0.1,0.466-0.1,0.816,0,1.05c0.167,0.367,1.566,0.633,4.2,0.8c1.767,1.034,5.117,1.6,10.05,1.7c3.133,0.067,5.767-0.2,7.9-0.8
		c2.034-0.6,2.917-1.284,2.65-2.05c-0.167-0.533-0.434-1.15-0.8-1.85c-0.367-0.733-0.567-1.15-0.6-1.25v-0.05l-0.2,0.05H52.1
		c0.033-0.033,0.066-0.083,0.1-0.15h-3.85c-0.067,0.267-0.233,0.55-0.5,0.85c-0.6,0.533-1.467,0.8-2.6,0.8
		c-2.8,0.034-5.067,0.05-6.8,0.05C36.717,45.317,35.417,45.283,34.55,45.25z M5.6,111v0.4h0.25c0.066,0,3.333,0.066,9.8,0.199
		c7.133,0.134,12.417,0.2,15.85,0.2c5.5,0,20.733-0.1,45.7-0.3h0.2l0.05-0.25c0.2-6.767,0.3-11.083,0.3-12.95
		c0-1.9-0.217-12.883-0.65-32.95V65.1H76.7c0-0.067,0-0.133,0-0.2l-0.05-0.25h-33.2c-24.467,0.267-36.817,0.4-37.05,0.4H6.2l-1,45.7
		L5.15,111H5.6z M76.2,65.6c0.066,2.833,0.283,13.583,0.649,32.25c0,1.233-0.116,5.467-0.35,12.7
		c-1.866,0.033-8.85,0.084-20.95,0.15c-12.667,0.1-20.816,0.149-24.45,0.149c-6.8,0-15.133-0.116-25-0.35l1-44.55L76.2,65.6z
		 M37.95,65.25c1.966-0.067,3.8-0.1,5.5-0.1l1.45,0.05L37.95,65.25z M30.5,90.8l-0.05,0.3L36,91.6l17.1,0.5l0.15-5.65l-0.5-6.85
		c-0.267,0-0.517,0-0.75,0l-0.05-0.8H51.7v-0.25L29.9,78.6l0.05,11.95h0.25v0.25H30.5z M33.15,99.2c1.733,1,5.083,1.55,10.05,1.649
		c3.167,0.067,5.8-0.199,7.9-0.8c2.034-0.566,2.917-1.233,2.65-2c-0.167-0.533-0.434-1.15-0.8-1.85
		c-0.367-0.733-0.567-1.15-0.6-1.25v-0.1l-0.2,0.05c0-0.033,0.017-0.066,0.05-0.1h-3.85c-0.067,0.267-0.233,0.55-0.5,0.85
		c-0.6,0.533-1.467,0.8-2.6,0.8c-2.8,0.033-5.067,0.033-6.8,0c-1.767-0.034-3.083-0.067-3.95-0.1c-0.133-0.233-0.267-0.467-0.4-0.7
		l-0.45-1.1h-3.3c-0.267,0.267-0.533,0.567-0.8,0.9c-0.5,0.667-0.7,1.117-0.6,1.35c-0.034,0.133-0.034,0.233,0,0.3L29,97.15
		L28.95,97.3c-0.1,0.467-0.1,0.816,0,1.05C29.117,98.75,30.517,99.033,33.15,99.2z M76.2,114.65c0.066,2.8,0.283,13.55,0.649,32.25
		c0,2.8,0.101,7.8,0.301,15c-2.101,0.033-9.2,0.1-21.301,0.199c-13,0.101-21.25,0.15-24.75,0.15c-6.8,0-15.133-0.116-25-0.35
		l1.3-47.75h36.1C47.2,114.15,58.1,114.316,76.2,114.65z M5.6,162.4v0.449h0.25c0.1,0,8.65,0.101,25.65,0.301
		c5.5,0,20.95-0.101,46.35-0.301h0.25v-0.25c-0.233-8.3-0.35-13.399-0.35-15.3c0-1.866-0.217-12.833-0.65-32.899v-0.25h-0.25
		c-0.033,0-0.083,0-0.149,0c0-0.067,0-0.134,0-0.2l-0.05-0.25h-0.2c-18.934-0.3-30.05-0.45-33.35-0.45H6.5L5.15,162.4H5.6z
		 M30.2,141.05v0.25h0.3l-0.05,0.3l5.55,0.5l17.1,0.5l0.15-5.649l-0.5-6.851c-0.267,0-0.517,0-0.75,0l-0.05-0.8H51.7v-0.25
		l-21.8,0.05l0.05,11.95H30.2z M34.5,146.85c-0.133-0.233-0.267-0.466-0.4-0.699l-0.45-1.101h-3.3c-0.267,0.267-0.533,0.566-0.8,0.9
		c-0.5,0.666-0.7,1.116-0.6,1.35c-0.034,0.134-0.034,0.233,0,0.3L29,147.65l-0.05,0.149c-0.1,0.467-0.1,0.816,0,1.05
		c0.167,0.4,1.566,0.684,4.2,0.851c1.733,1,5.083,1.55,10.05,1.649c3.167,0.067,5.8-0.199,7.9-0.8c2.034-0.566,2.917-1.233,2.65-2
		c-0.167-0.533-0.434-1.149-0.8-1.85c-0.367-0.733-0.567-1.15-0.6-1.25v-0.101l-0.2,0.051c0-0.034,0.017-0.067,0.05-0.101h-3.85
		c-0.067,0.267-0.233,0.55-0.5,0.851c-0.6,0.533-1.467,0.8-2.6,0.8c-2.8,0.033-5.067,0.033-6.8,0
		C36.683,146.917,35.367,146.884,34.5,146.85z"/>
	
		<linearGradient id="SVGID_2_" gradientUnits="userSpaceOnUse" x1="10.2319" y1="-41.895" x2="47.9793" y2="-41.895" gradientTransform="matrix(0.3921 0.9199 -0.9199 0.3921 4.261136e-004 -2.396107e-005)">
		<stop  offset="0" style="stop-color:#696250"/>
		<stop  offset="1" style="stop-color:#4A4637"/>
	</linearGradient>
	<path style="fill-rule:evenodd;clip-rule:evenodd;fill:url(#SVGID_2_);" d="M94.1,0.5l-14,11.8l-0.05-0.75
		c-9.066-0.267-20.934-0.517-35.6-0.75c-9.167-0.133-18.633-0.117-28.4,0.05L4.1,11.15c1.133,0.1,4.066,0.2,8.8,0.3L2.1,11.5L21.6,0
		L94.1,0.5z"/>
	<path style="fill-rule:evenodd;clip-rule:evenodd;fill:#736D57;" d="M6.25,61.6c0.4,0,1.567,0.017,3.5,0.05l4.8,0.1
		c4.1,0.067,7.883,0.117,11.35,0.15h2.5c0.867,0.033,1.767,0.05,2.7,0.05c5.5,0,20.833-0.117,46-0.35h0.25V48.45
		c0-1.9-0.216-12.817-0.649-32.75c0.066,0,0.116,0,0.149,0h0.25v0.25C77.533,36.017,77.75,47,77.75,48.9v13.15H77.5
		c-25.167,0.233-40.5,0.35-46,0.35c-16.567-0.233-24.9-0.35-25-0.35L6.25,62V61.6z M76.2,16.2c-17.8-0.467-28.25-0.7-31.35-0.7
		L7.1,15.85L6.75,61.1c-0.133,0-0.267,0-0.4,0l0.3-45.7l37.8-0.35c3.1,0,13.684,0.233,31.75,0.7C76.2,15.85,76.2,16,76.2,16.2z
		 M5.6,111c1.4,0.033,9.9,0.15,25.5,0.35c5.5,0,20.717-0.1,45.65-0.3H77v-0.25c0.233-6.733,0.35-11.05,0.35-12.95
		c0-1.899-0.216-12.816-0.649-32.75H77.1v0.25c0.434,20.066,0.65,31.05,0.65,32.95c0,1.867-0.1,6.184-0.3,12.95l-0.05,0.25h-0.2
		c-24.967,0.2-40.2,0.3-45.7,0.3c-3.433,0-8.717-0.066-15.85-0.2c-6.467-0.133-9.733-0.199-9.8-0.199H5.6V111z M37.95,65.25
		l6.95-0.05l31.3-0.05c0,0.133,0,0.283,0,0.45L7.1,65.95l-1,44.55c-0.133,0-0.267,0-0.4,0l0.95-44.95
		c1.633-0.033,3.233-0.066,4.8-0.1L37.95,65.25z M76.2,114.65c-18.101-0.334-29-0.5-32.7-0.5H7.4L6.1,161.9c-0.133,0-0.267,0-0.4,0
		L7,113.75h36.1c5.267,0,16.3,0.15,33.1,0.45C76.2,114.3,76.2,114.45,76.2,114.65z M5.6,162.4c1.433,0.033,9.933,0.149,25.5,0.35
		c5.5,0,20.95-0.116,46.35-0.35h0.25v-0.25c-0.033-0.067-0.101-2.284-0.2-6.65c-0.1-4.4-0.15-7.267-0.15-8.6
		c0-1.9-0.216-12.817-0.649-32.75c0.066,0,0.116,0,0.149,0h0.25v0.25c0.434,20.066,0.65,31.033,0.65,32.899c0,1.9,0.116,7,0.35,15.3
		v0.25h-0.25C52.45,163.05,37,163.15,31.5,163.15c-17-0.2-25.55-0.301-25.65-0.301H5.6V162.4z"/>
	<path style="fill-rule:evenodd;clip-rule:evenodd;fill:#454132;" d="M76.7,15.7c0.434,19.933,0.649,30.85,0.649,32.75V61.6H77.1
		c-25.167,0.233-40.5,0.35-46,0.35c-0.934,0-1.833-0.017-2.7-0.05h-2.5c-3.467-0.033-7.25-0.083-11.35-0.15l-4.8-0.1
		c-1.933-0.033-3.1-0.05-3.5-0.05h-0.4L6.2,14.9l38.25-0.35c3.267,0,13.934,0.25,32,0.75h0.2l0.05,0.2
		C76.7,15.567,76.7,15.633,76.7,15.7z M6.75,61.1c9.633,0.233,17.75,0.35,24.35,0.35c3.533,0,11.733-0.05,24.6-0.15
		c11.967-0.1,19.017-0.167,21.149-0.2V48.45C76.483,29.75,76.267,19,76.2,16.2c0-0.2,0-0.35,0-0.45
		c-18.066-0.467-28.65-0.7-31.75-0.7L6.65,15.4l-0.3,45.7C6.483,61.1,6.617,61.1,6.75,61.1z M76.7,65.1
		c0.434,19.933,0.649,30.85,0.649,32.75c0,1.9-0.116,6.217-0.35,12.95v0.25h-0.25c-24.933,0.2-40.15,0.3-45.65,0.3
		C15.5,111.15,7,111.033,5.6,111H5.15l0.05-0.25l1-45.7h0.2c0.233,0,12.583-0.133,37.05-0.4h33.2l0.05,0.25
		C76.7,64.967,76.7,65.033,76.7,65.1z M6.1,110.5c9.867,0.233,18.2,0.35,25,0.35c3.633,0,11.783-0.05,24.45-0.149
		c12.101-0.066,19.084-0.117,20.95-0.15c0.233-7.233,0.35-11.467,0.35-12.7C76.483,79.183,76.267,68.433,76.2,65.6
		c0-0.167,0-0.317,0-0.45L44.9,65.2l-1.45-0.05c-1.7,0-3.534,0.033-5.5,0.1l-26.5,0.2c-1.567,0.033-3.167,0.066-4.8,0.1L5.7,110.5
		C5.833,110.5,5.967,110.5,6.1,110.5z M6.1,161.9c9.867,0.233,18.2,0.35,25,0.35c3.5,0,11.75-0.05,24.75-0.15
		c12.101-0.1,19.2-0.166,21.301-0.199c-0.2-7.2-0.301-12.2-0.301-15c-0.366-18.7-0.583-29.45-0.649-32.25c0-0.2,0-0.351,0-0.45
		c-16.8-0.3-27.833-0.45-33.1-0.45H7L5.7,161.9C5.833,161.9,5.967,161.9,6.1,161.9z M76.7,114.15
		c0.434,19.933,0.649,30.85,0.649,32.75c0,1.333,0.051,4.199,0.15,8.6c0.1,4.366,0.167,6.583,0.2,6.65v0.25h-0.25
		c-25.4,0.233-40.85,0.35-46.35,0.35c-15.567-0.2-24.067-0.316-25.5-0.35H5.15l1.35-49.15h36.6c3.3,0,14.417,0.15,33.35,0.45h0.2
		l0.05,0.25C76.7,114.017,76.7,114.083,76.7,114.15z"/>
	<path style="fill-rule:evenodd;clip-rule:evenodd;fill:#968F77;" d="M12.9,11.45c-4.733-0.1-7.667-0.2-8.8-0.3l11.95-0.3
		c9.767-0.167,19.233-0.184,28.4-0.05c14.666,0.233,26.533,0.483,35.6,0.75l-33.2,0.05c-0.767,0-1.533,0-2.3,0
		c-0.566,0-1.133,0-1.7,0L12.9,11.45z"/>
	<path style="fill-rule:evenodd;clip-rule:evenodd;fill:#413D30;" d="M30.5,39.65l21.65-0.1L52,28.45h0.75l0.5,6.85L53.1,41
		L30.45,40L30.5,39.65z M50.2,29.9l-17.6,0.05L32.65,38H31.9l-0.05-8.8l18.35-0.05V29.9z M33.6,45.15L33.65,45l0.05-1.45l-0.3,0.15
		c0.067-0.1,0.15-0.2,0.25-0.3l0.45,1.1c0.133,0.267,0.283,0.517,0.45,0.75C34.15,45.217,33.833,45.183,33.6,45.15z M33.15,48.05
		c1.5,0.1,3.434,0.167,5.8,0.2c7,0.067,10.933-0.383,11.8-1.35l1.45-1.65l0.15-1.45c0.033,0.1,0.233,0.517,0.6,1.25
		c0.366,0.7,0.633,1.317,0.8,1.85c0.267,0.767-0.616,1.45-2.65,2.05c-2.133,0.6-4.767,0.867-7.9,0.8
		C38.267,49.65,34.917,49.083,33.15,48.05z M52,79.6c0.233,0,0.483,0,0.75,0l0.5,6.85L53.1,92.1L36,91.6l-5.55-0.5l0.05-0.3
		l21.65-0.1L52,79.6z M52.35,94.95c0.033,0.1,0.233,0.517,0.6,1.25c0.366,0.7,0.633,1.316,0.8,1.85c0.267,0.767-0.616,1.434-2.65,2
		c-2.1,0.601-4.733,0.867-7.9,0.8c-4.967-0.1-8.317-0.649-10.05-1.649c1.533,0.1,3.467,0.149,5.8,0.149
		c7,0.101,10.933-0.333,11.8-1.3l1.45-1.7L52.35,94.95z M50.2,81.05L32.6,81.1l0.05,8H31.9l-0.05-8.75L50.2,80.3V81.05z M34.5,96.35
		c-0.4-0.033-0.7-0.067-0.9-0.1l0.05-0.15l0.05-1.4l-0.35,0.15c0.1-0.1,0.2-0.2,0.3-0.3l0.45,1.1
		C34.233,95.883,34.367,96.117,34.5,96.35z M30.5,141.3l21.65-0.1L52,130.1c0.233,0,0.483,0,0.75,0l0.5,6.851L53.1,142.6L36,142.1
		l-5.55-0.5L30.5,141.3z M50.2,131.55l-17.6,0.05l0.05,8H31.9l-0.05-8.75l18.35-0.05V131.55z M33.65,145.05l0.45,1.101
		c0.133,0.233,0.267,0.466,0.4,0.699c-0.4-0.033-0.7-0.066-0.9-0.1l0.05-0.15l0.05-1.399l-0.35,0.149
		C33.45,145.25,33.55,145.15,33.65,145.05z M33.15,149.7c1.533,0.1,3.467,0.149,5.8,0.149c7,0.101,10.933-0.333,11.8-1.3l1.45-1.7
		l0.15-1.399c0.033,0.1,0.233,0.517,0.6,1.25c0.366,0.7,0.633,1.316,0.8,1.85c0.267,0.767-0.616,1.434-2.65,2
		c-2.1,0.601-4.733,0.867-7.9,0.8C38.233,151.25,34.883,150.7,33.15,149.7z"/>
	<path style="fill-rule:evenodd;clip-rule:evenodd;fill:#DCD8CB;" d="M51.7,27.65l-14-0.05c-2.1-0.033-3.983-0.017-5.65,0.05
		l-1.9,0.1L30.2,39.4h-0.25L29.9,27.5l1.9-0.1c1.667-0.066,3.55-0.083,5.65-0.05L51.7,27.4V27.65z M50.2,29.15h0.2l0.2,4.9
		c0,0.867-0.067,2.233-0.2,4.1l-18.5,0.1V38h0.75l17.5-0.1c0.133-1.867,0.2-3.233,0.2-4.1l-0.15-3.9V29.15z M33.4,43.7h0.25
		c-0.2,0.2-0.367,0.4-0.5,0.6c-0.1,0.167-0.15,0.3-0.15,0.4c-0.067-0.167-0.017-0.4,0.15-0.7C33.217,43.9,33.3,43.8,33.4,43.7z
		 M29,46.05c-0.033-0.033-0.05-0.066-0.05-0.1c-0.034-0.067-0.034-0.167,0-0.3c0.233,0.567,3.566,0.9,10,1
		c3.466,0.067,6.033,0.017,7.7-0.15c2-0.2,3.367-0.6,4.1-1.2h0.05v0.05c-1.433,1.167-5.383,1.7-11.85,1.6
		C32.783,46.917,29.467,46.617,29,46.05z M51.7,78.8l-21.55,0.05l0.05,11.7h-0.25L29.9,78.6l21.8-0.05V78.8z M28.95,96.8
		c0.267,0.566,3.6,0.9,10,1c3.566,0.033,6.133-0.033,7.7-0.2c2-0.166,3.367-0.55,4.1-1.149h0.05v0.05c-1.5,1.167-5.45,1.7-11.85,1.6
		c-6.2-0.1-9.517-0.416-9.95-0.949L28.95,97.1C28.917,97.033,28.917,96.933,28.95,96.8z M32.65,89.1l17.5-0.1
		c0.133-1.833,0.2-3.183,0.2-4.05l-0.15-3.9V80.3h0.2l0.2,4.9c0,0.867-0.067,2.216-0.2,4.05l-18.5,0.1V89.1H32.65z M33,95.85
		c-0.067-0.2-0.017-0.434,0.15-0.7c0.067-0.1,0.133-0.2,0.2-0.3h0.3c-0.2,0.2-0.367,0.4-0.5,0.6
		C33.083,95.583,33.033,95.717,33,95.85z M51.7,129.3l-21.55,0.05l0.05,11.7h-0.25L29.9,129.1l21.8-0.05V129.3z M31.9,139.6h0.75
		l17.5-0.1c0.133-1.833,0.2-3.184,0.2-4.05l-0.15-3.9v-0.75h0.2l0.2,4.9c0,0.866-0.067,2.217-0.2,4.05l-18.5,0.1V139.6z
		 M33.35,145.35h0.3c-0.2,0.2-0.367,0.4-0.5,0.601c-0.066,0.133-0.117,0.267-0.15,0.399c-0.067-0.199-0.017-0.433,0.15-0.699
		C33.217,145.55,33.283,145.45,33.35,145.35z M29,147.65l-0.05-0.051c-0.034-0.066-0.034-0.166,0-0.3c0.267,0.566,3.6,0.9,10,1
		c3.566,0.033,6.133-0.033,7.7-0.2c2-0.166,3.367-0.55,4.1-1.149h0.05V147c-1.5,1.167-5.45,1.7-11.85,1.6
		C32.75,148.5,29.433,148.184,29,147.65z"/>
	
		<linearGradient id="SVGID_3_" gradientUnits="userSpaceOnUse" x1="40.1934" y1="5.1265" x2="65.1896" y2="5.1265" gradientTransform="matrix(0.8311 0.5561 -0.5561 0.8311 -1.264215e-004 1.223087e-004)">
		<stop  offset="0" style="stop-color:#B3AFA5"/>
		<stop  offset="0.1294" style="stop-color:#DEDACD"/>
		<stop  offset="0.2706" style="stop-color:#A4A198"/>
		<stop  offset="0.698" style="stop-color:#75746B"/>
		<stop  offset="0.7843" style="stop-color:#79786F"/>
		<stop  offset="0.8627" style="stop-color:#84837A"/>
		<stop  offset="0.9373" style="stop-color:#97968C"/>
		<stop  offset="1" style="stop-color:#ACABA0"/>
	</linearGradient>
	<path style="fill-rule:evenodd;clip-rule:evenodd;fill:url(#SVGID_3_);" d="M30.5,39.65h-0.3V39.4l-0.05-11.65l1.9-0.1
		c1.667-0.066,3.55-0.083,5.65-0.05l14,0.05h0.25l0.05,0.8l0.15,11.1L30.5,39.65z M50.2,29.15L31.85,29.2L31.9,38v0.25l18.5-0.1
		c0.133-1.867,0.2-3.233,0.2-4.1l-0.2-4.9H50.2z"/>
	
		<linearGradient id="SVGID_4_" gradientUnits="userSpaceOnUse" x1="38.6001" y1="-24.7705" x2="54.5834" y2="-24.7705" gradientTransform="matrix(0.3926 0.9197 -0.9197 0.3926 4.326701e-004 5.191565e-005)">
		<stop  offset="0" style="stop-color:#ADA99C"/>
		<stop  offset="1" style="stop-color:#6B6960"/>
	</linearGradient>
	<path style="fill-rule:evenodd;clip-rule:evenodd;fill:url(#SVGID_4_);" d="M32.65,38l-0.05-8.05l17.6-0.05l0.15,3.9
		c0,0.867-0.067,2.233-0.2,4.1L32.65,38z"/>
	
		<linearGradient id="SVGID_5_" gradientUnits="userSpaceOnUse" x1="48.9502" y1="14.5361" x2="67.5466" y2="14.5361" gradientTransform="matrix(0.8308 0.5566 -0.5566 0.8308 -5.155802e-005 -5.650520e-005)">
		<stop  offset="0" style="stop-color:#B3AFA5"/>
		<stop  offset="0.1294" style="stop-color:#DEDACD"/>
		<stop  offset="0.2706" style="stop-color:#A4A198"/>
		<stop  offset="0.698" style="stop-color:#75746B"/>
		<stop  offset="0.7843" style="stop-color:#79786F"/>
		<stop  offset="0.8627" style="stop-color:#84837A"/>
		<stop  offset="0.9373" style="stop-color:#97968C"/>
		<stop  offset="1" style="stop-color:#ACABA0"/>
	</linearGradient>
	<path style="fill-rule:evenodd;clip-rule:evenodd;fill:url(#SVGID_5_);" d="M52.1,43.8c-0.167,0.2-0.3,0.383-0.4,0.55
		c-0.3,0.367-0.6,0.683-0.9,0.95h-0.05c-0.733,0.6-2.1,1-4.1,1.2c-1.667,0.167-4.233,0.217-7.7,0.15c-6.434-0.1-9.767-0.433-10-1
		c-0.1-0.233,0.1-0.683,0.6-1.35c0.267-0.333,0.534-0.633,0.8-0.9h3.3c-0.1,0.1-0.183,0.2-0.25,0.3c-0.1,0.1-0.183,0.2-0.25,0.3
		c-0.167,0.3-0.217,0.533-0.15,0.7c0.033,0.133,0.1,0.233,0.2,0.3c0.066,0.033,0.2,0.083,0.4,0.15c0.233,0.033,0.55,0.067,0.95,0.1
		c0.867,0.033,2.167,0.067,3.9,0.1c1.733,0,4-0.017,6.8-0.05c1.133,0,2-0.267,2.6-0.8c0.267-0.3,0.433-0.583,0.5-0.85h3.85
		C52.167,43.717,52.133,43.767,52.1,43.8z"/>
	
		<linearGradient id="SVGID_6_" gradientUnits="userSpaceOnUse" x1="49.2832" y1="15.2461" x2="68.4412" y2="15.2461" gradientTransform="matrix(0.8312 0.5559 -0.5559 0.8312 -6.353855e-005 -7.104874e-005)">
		<stop  offset="0" style="stop-color:#A4A198"/>
		<stop  offset="1" style="stop-color:#54534D"/>
	</linearGradient>
	<path style="fill-rule:evenodd;clip-rule:evenodd;fill:url(#SVGID_6_);" d="M33.4,43.7l0.3-0.15L33.65,45l-0.05,0.15
		c-0.2-0.066-0.333-0.117-0.4-0.15c-0.1-0.067-0.167-0.167-0.2-0.3c0-0.1,0.05-0.233,0.15-0.4c0.133-0.2,0.3-0.4,0.5-0.6H33.4z
		 M33.15,48.05c-2.633-0.167-4.033-0.433-4.2-0.8c-0.1-0.233-0.1-0.583,0-1.05L29,46.05c0.467,0.567,3.783,0.867,9.95,0.9
		c6.466,0.1,10.417-0.434,11.85-1.6V45.3c0.3-0.267,0.6-0.583,0.9-0.95c0.1-0.167,0.233-0.35,0.4-0.55h0.05l0.2-0.05v0.05
		l-0.15,1.45l-1.45,1.65c-0.867,0.967-4.8,1.417-11.8,1.35C36.583,48.217,34.65,48.15,33.15,48.05z"/>
	
		<linearGradient id="SVGID_7_" gradientUnits="userSpaceOnUse" x1="40.9468" y1="-47.7607" x2="175.6247" y2="-47.7607" gradientTransform="matrix(0.3924 0.9198 -0.9198 0.3924 6.893277e-005 2.427101e-004)">
		<stop  offset="0" style="stop-color:#474233"/>
		<stop  offset="1" style="stop-color:#363329"/>
	</linearGradient>
	<path style="fill-rule:evenodd;clip-rule:evenodd;fill:url(#SVGID_7_);" d="M80.1,12.3l14-11.8c0.667,62,1,96.5,1,103.5
		c0,6.9,0.167,20.733,0.5,41.5c0,0.333,0,0.667,0,1l-14.6,20c-0.066-60.4-0.066-94.25,0-101.55c0.033-4.534-0.116-14.8-0.45-30.8
		L80.1,12.3z"/>
	
		<linearGradient id="SVGID_8_" gradientUnits="userSpaceOnUse" x1="68.6367" y1="47.6382" x2="93.6329" y2="47.6382" gradientTransform="matrix(0.8311 0.5561 -0.5561 0.8311 -1.264215e-004 1.223087e-004)">
		<stop  offset="0" style="stop-color:#B3AFA5"/>
		<stop  offset="0.1294" style="stop-color:#DEDACD"/>
		<stop  offset="0.2706" style="stop-color:#A4A198"/>
		<stop  offset="0.698" style="stop-color:#75746B"/>
		<stop  offset="0.7843" style="stop-color:#79786F"/>
		<stop  offset="0.8627" style="stop-color:#84837A"/>
		<stop  offset="0.9373" style="stop-color:#97968C"/>
		<stop  offset="1" style="stop-color:#ACABA0"/>
	</linearGradient>
	<path style="fill-rule:evenodd;clip-rule:evenodd;fill:url(#SVGID_8_);" d="M51.7,78.8h0.25L52,79.6l0.15,11.1L30.5,90.8h-0.3
		v-0.25l-0.05-11.7L51.7,78.8z M50.2,80.3l-18.35,0.05l0.05,8.75v0.25l18.5-0.1c0.133-1.833,0.2-3.183,0.2-4.05l-0.2-4.9H50.2z"/>
	
		<linearGradient id="SVGID_9_" gradientUnits="userSpaceOnUse" x1="77.418" y1="57.0293" x2="96.0143" y2="57.0293" gradientTransform="matrix(0.8308 0.5566 -0.5566 0.8308 -5.155802e-005 -5.650520e-005)">
		<stop  offset="0" style="stop-color:#B3AFA5"/>
		<stop  offset="0.1294" style="stop-color:#DEDACD"/>
		<stop  offset="0.2706" style="stop-color:#A4A198"/>
		<stop  offset="0.698" style="stop-color:#75746B"/>
		<stop  offset="0.7843" style="stop-color:#79786F"/>
		<stop  offset="0.8627" style="stop-color:#84837A"/>
		<stop  offset="0.9373" style="stop-color:#97968C"/>
		<stop  offset="1" style="stop-color:#ACABA0"/>
	</linearGradient>
	<path style="fill-rule:evenodd;clip-rule:evenodd;fill:url(#SVGID_9_);" d="M34.5,96.35c0.867,0.033,2.183,0.066,3.95,0.1
		c1.733,0.033,4,0.033,6.8,0c1.133,0,2-0.267,2.6-0.8c0.267-0.3,0.433-0.583,0.5-0.85h3.85c-0.034,0.034-0.05,0.067-0.05,0.1
		c-0.2,0.233-0.35,0.434-0.45,0.6c-0.3,0.367-0.6,0.683-0.9,0.95h-0.05c-0.733,0.6-2.1,0.983-4.1,1.149
		c-1.566,0.167-4.133,0.233-7.7,0.2c-6.4-0.1-9.733-0.434-10-1c-0.1-0.233,0.1-0.683,0.6-1.35c0.267-0.333,0.534-0.633,0.8-0.9h3.3
		c-0.1,0.1-0.2,0.2-0.3,0.3c-0.067,0.1-0.133,0.2-0.2,0.3c-0.167,0.267-0.217,0.5-0.15,0.7c0.033,0.1,0.1,0.183,0.2,0.25
		c0.066,0.033,0.2,0.083,0.4,0.15C33.8,96.283,34.1,96.317,34.5,96.35z"/>
	
		<linearGradient id="SVGID_10_" gradientUnits="userSpaceOnUse" x1="77.7178" y1="57.7285" x2="96.8757" y2="57.7285" gradientTransform="matrix(0.8312 0.5559 -0.5559 0.8312 -6.353855e-005 -7.104874e-005)">
		<stop  offset="0" style="stop-color:#A4A198"/>
		<stop  offset="1" style="stop-color:#54534D"/>
	</linearGradient>
	<path style="fill-rule:evenodd;clip-rule:evenodd;fill:url(#SVGID_10_);" d="M50.8,96.45c0.3-0.267,0.6-0.583,0.9-0.95
		c0.1-0.167,0.25-0.367,0.45-0.6l0.2-0.05v0.1l-0.15,1.4l-1.45,1.7c-0.867,0.967-4.8,1.4-11.8,1.3c-2.333,0-4.267-0.05-5.8-0.149
		c-2.633-0.167-4.033-0.45-4.2-0.851c-0.1-0.233-0.1-0.583,0-1.05L29,97.15c0.433,0.533,3.75,0.85,9.95,0.949
		c6.4,0.101,10.35-0.433,11.85-1.6V96.45z M33.35,94.85l0.35-0.15l-0.05,1.4l-0.05,0.15c-0.2-0.067-0.333-0.117-0.4-0.15
		c-0.1-0.067-0.167-0.15-0.2-0.25c0.033-0.133,0.083-0.267,0.15-0.4c0.133-0.2,0.3-0.4,0.5-0.6H33.35z"/>
	
		<linearGradient id="SVGID_11_" gradientUnits="userSpaceOnUse" x1="85.6436" y1="-4.6987" x2="101.6268" y2="-4.6987" gradientTransform="matrix(0.3926 0.9197 -0.9197 0.3926 4.326701e-004 5.191565e-005)">
		<stop  offset="0" style="stop-color:#ADA99C"/>
		<stop  offset="1" style="stop-color:#6B6960"/>
	</linearGradient>
	<path style="fill-rule:evenodd;clip-rule:evenodd;fill:url(#SVGID_11_);" d="M32.65,89.1l-0.05-8l17.6-0.05l0.15,3.9
		c0,0.867-0.067,2.216-0.2,4.05L32.65,89.1z"/>
	
		<linearGradient id="SVGID_12_" gradientUnits="userSpaceOnUse" x1="96.7188" y1="89.6104" x2="121.715" y2="89.6104" gradientTransform="matrix(0.8311 0.5561 -0.5561 0.8311 -1.264215e-004 1.223087e-004)">
		<stop  offset="0" style="stop-color:#B3AFA5"/>
		<stop  offset="0.1294" style="stop-color:#DEDACD"/>
		<stop  offset="0.2706" style="stop-color:#A4A198"/>
		<stop  offset="0.698" style="stop-color:#75746B"/>
		<stop  offset="0.7843" style="stop-color:#79786F"/>
		<stop  offset="0.8627" style="stop-color:#84837A"/>
		<stop  offset="0.9373" style="stop-color:#97968C"/>
		<stop  offset="1" style="stop-color:#ACABA0"/>
	</linearGradient>
	<path style="fill-rule:evenodd;clip-rule:evenodd;fill:url(#SVGID_12_);" d="M30.5,141.3h-0.3v-0.25l-0.05-11.7l21.55-0.05h0.25
		l0.05,0.8l0.15,11.101L30.5,141.3z M50.2,130.8l-18.35,0.05l0.05,8.75v0.25l18.5-0.1c0.133-1.833,0.2-3.184,0.2-4.05l-0.2-4.9H50.2
		z"/>
	
		<linearGradient id="SVGID_13_" gradientUnits="userSpaceOnUse" x1="132.0889" y1="15.1274" x2="148.0722" y2="15.1274" gradientTransform="matrix(0.3926 0.9197 -0.9197 0.3926 4.326701e-004 5.191565e-005)">
		<stop  offset="0" style="stop-color:#ADA99C"/>
		<stop  offset="1" style="stop-color:#6B6960"/>
	</linearGradient>
	<path style="fill-rule:evenodd;clip-rule:evenodd;fill:url(#SVGID_13_);" d="M32.65,139.6l-0.05-8l17.6-0.05l0.15,3.9
		c0,0.866-0.067,2.217-0.2,4.05L32.65,139.6z"/>
	
		<linearGradient id="SVGID_14_" gradientUnits="userSpaceOnUse" x1="105.5244" y1="98.9854" x2="124.1208" y2="98.9854" gradientTransform="matrix(0.8308 0.5566 -0.5566 0.8308 -5.155802e-005 -5.650520e-005)">
		<stop  offset="0" style="stop-color:#B3AFA5"/>
		<stop  offset="0.1294" style="stop-color:#DEDACD"/>
		<stop  offset="0.2706" style="stop-color:#A4A198"/>
		<stop  offset="0.698" style="stop-color:#75746B"/>
		<stop  offset="0.7843" style="stop-color:#79786F"/>
		<stop  offset="0.8627" style="stop-color:#84837A"/>
		<stop  offset="0.9373" style="stop-color:#97968C"/>
		<stop  offset="1" style="stop-color:#ACABA0"/>
	</linearGradient>
	<path style="fill-rule:evenodd;clip-rule:evenodd;fill:url(#SVGID_14_);" d="M52.15,145.4c-0.2,0.233-0.35,0.433-0.45,0.6
		c-0.3,0.366-0.6,0.684-0.9,0.95h-0.05c-0.733,0.6-2.1,0.983-4.1,1.149c-1.566,0.167-4.133,0.233-7.7,0.2c-6.4-0.1-9.733-0.434-10-1
		c-0.1-0.233,0.1-0.684,0.6-1.35c0.267-0.334,0.534-0.634,0.8-0.9h3.3c-0.1,0.101-0.2,0.2-0.3,0.3c-0.067,0.101-0.133,0.2-0.2,0.301
		c-0.167,0.267-0.217,0.5-0.15,0.699c0.033,0.101,0.1,0.184,0.2,0.25c0.066,0.034,0.2,0.084,0.4,0.15c0.2,0.033,0.5,0.066,0.9,0.1
		c0.867,0.034,2.183,0.067,3.95,0.101c1.733,0.033,4,0.033,6.8,0c1.133,0,2-0.267,2.6-0.8c0.267-0.301,0.433-0.584,0.5-0.851h3.85
		C52.167,145.333,52.15,145.366,52.15,145.4z"/>
	
		<linearGradient id="SVGID_15_" gradientUnits="userSpaceOnUse" x1="105.791" y1="99.7061" x2="124.949" y2="99.7061" gradientTransform="matrix(0.8312 0.5559 -0.5559 0.8312 -6.353855e-005 -7.104874e-005)">
		<stop  offset="0" style="stop-color:#A4A198"/>
		<stop  offset="1" style="stop-color:#54534D"/>
	</linearGradient>
	<path style="fill-rule:evenodd;clip-rule:evenodd;fill:url(#SVGID_15_);" d="M33.35,145.35l0.35-0.149l-0.05,1.399l-0.05,0.15
		c-0.2-0.066-0.333-0.116-0.4-0.15c-0.1-0.066-0.167-0.149-0.2-0.25c0.033-0.133,0.083-0.267,0.15-0.399
		c0.133-0.2,0.3-0.4,0.5-0.601H33.35z M33.15,149.7c-2.633-0.167-4.033-0.45-4.2-0.851c-0.1-0.233-0.1-0.583,0-1.05L29,147.65
		c0.433,0.533,3.75,0.85,9.95,0.949c6.4,0.101,10.35-0.433,11.85-1.6v-0.05c0.3-0.267,0.6-0.584,0.9-0.95
		c0.1-0.167,0.25-0.366,0.45-0.6l0.2-0.051v0.101l-0.15,1.399l-1.45,1.7c-0.867,0.967-4.8,1.4-11.8,1.3
		C36.617,149.85,34.683,149.8,33.15,149.7z"/>
	
		<linearGradient id="SVGID_16_" gradientUnits="userSpaceOnUse" x1="167.46" y1="-40.291" x2="186.96" y2="-40.291" gradientTransform="matrix(5.128206e-005 1 -1 -0.001 4.040232e-004 2.135169e-004)">
		<stop  offset="0" style="stop-color:#A69B7E"/>
		<stop  offset="1" style="stop-color:#ACABA0;stop-opacity:0"/>
		<stop  offset="1" style="stop-color:#4A4637"/>
	</linearGradient>
	<path style="fill-rule:evenodd;clip-rule:evenodd;fill:url(#SVGID_16_);" d="M80.6,166.5L79.65,192L1.7,192.05L0,165.5h0.55
		c-0.033,0.333-0.066,0.667-0.1,1H80.6z"/>
	<path style="fill-rule:evenodd;clip-rule:evenodd;fill:#2E281A;" d="M95.6,145.5c-0.333-20.767-0.5-34.6-0.5-41.5
		c0-7-0.333-41.5-1-103.5c7.067,88.133,11.084,134.15,12.051,138.05c0.966,3.934,1.449,6.25,1.449,6.95H95.6z"/>
</g>
</svg>
