<?xml version="1.0" encoding="iso-8859-1"?>
<!-- Generator: Adobe Illustrator 15.1.0, SVG Export Plug-In . SVG Version: 6.00 Build 0)  -->
<!DOCTYPE svg PUBLIC "-//W3C//DTD SVG 1.1//EN" "http://www.w3.org/Graphics/SVG/1.1/DTD/svg11.dtd">
<svg version="1.1" id="FlashAICB" xmlns="http://www.w3.org/2000/svg" xmlns:xlink="http://www.w3.org/1999/xlink" x="0px" y="0px"
	 width="341.65px" height="373px" viewBox="0 0 341.65 373" style="enable-background:new 0 0 341.65 373;" xml:space="preserve">
<g>
	<g>
		<path style="fill-rule:evenodd;clip-rule:evenodd;fill:#5B3317;" d="M225.6,33.6c-0.066,2.6,0.167,4.716,0.7,6.35
			c0.4,1.233,1.167,2.533,2.3,3.9c0.834,1.033,1.25,2.1,1.25,3.2c0,1.034-0.1,3.65-0.3,7.85c-0.066,4.267,0.184,7.867,0.75,10.8
			c0.467,2.366,0.967,5.167,1.5,8.4c0.533,1.966,1.366,2.566,2.5,1.8c0.533-0.367,1.167-1.1,1.9-2.2c0.333-0.5,1.183-0.667,2.55-0.5
			c1.2,0.167,2.066-0.15,2.6-0.95c0.2-0.233,0.518,0.233,0.95,1.4c0.134,0.4,0.5,2.434,1.101,6.1c0.399,2.6,1.217,4.417,2.449,5.45
			c1.601,1.366,2.601,2.116,3,2.25c0.5,0.2,1.717,0.183,3.65-0.05c1.833-0.2,3.5-0.15,5,0.15c1.2,0.267,2.184,0.667,2.95,1.2
			c1.1,0.733,2.283,1.867,3.55,3.4c1.8,2.133,2.983,4.25,3.55,6.35c0.467,1.733,1.733,3.767,3.8,6.1
			c2.101,2.4,3.351,4.216,3.75,5.45c1.066,3.134,3.584,6.684,7.551,10.65c1.033,1.033,2.149,2.366,3.35,4
			c0.934,1.066,2.033,1.5,3.3,1.3c0.9-0.133,1.351-1.033,1.351-2.7c0-1.466,0.883-2.033,2.649-1.7c1.134,0.2,3.601-0.45,7.4-1.95
			c2.899-1.167,5.017-0.816,6.35,1.05c1.2,1.633,2.7,3.9,4.5,6.8c1.667,2.033,3.717,2.867,6.15,2.5c1.933-0.3,3.883-0.733,5.85-1.3
			c1.533-0.367,3.283-0.367,5.25,0c3.267,0.566,7.417,1.216,12.45,1.95v17.55c-5.767,1.2-11.7,2.366-17.8,3.5
			c-12.233,2.3-19.184,3.35-20.851,3.15c-2.633-0.3-39.149-11.25-109.55-32.85l-0.45-93.6l14.2-24.85L216.05,1h14.15l0.05,3.5
			c-0.1,2.767-0.533,5.267-1.3,7.5c-1.067,3.2-1.8,5.7-2.2,7.5c-0.6,2.533-0.9,4.917-0.9,7.15
			C225.85,28.283,225.767,30.6,225.6,33.6z"/>
		<path style="fill-rule:evenodd;clip-rule:evenodd;fill:#5B3317;" d="M240.05,47.95c1.8-0.2,3.2,1.133,4.2,4
			c0.767,2.267,1.15,4.917,1.15,7.95c0,2.4-1.2,3.9-3.601,4.5c-2.366,0.6-4.134-0.017-5.3-1.85c-1.1-1.767-1.184-4.6-0.25-8.5
			C237.217,50.15,238.483,48.117,240.05,47.95z"/>
		<path style="fill-rule:evenodd;clip-rule:evenodd;fill:#5B3317;" d="M289.65,113.85c-0.734,0.767-1.434,0.983-2.101,0.65
			c-1.5-0.733-2.634-2.367-3.399-4.9c-0.768-2.567-0.234-3.75,1.6-3.55c3.934,0.4,5.684,2.083,5.25,5.05
			C290.833,112.2,290.383,113.117,289.65,113.85z"/>
		<path style="fill-rule:evenodd;clip-rule:evenodd;fill:#5B3317;" d="M296.85,112.25c2.268-0.8,3.518-0.45,3.75,1.05
			c0.2,1.5-0.449,2.634-1.949,3.4c-1.301,0.667-2.234,0.2-2.801-1.4C295.316,113.7,295.65,112.684,296.85,112.25z"/>
		<path style="fill-rule:evenodd;clip-rule:evenodd;fill:#5B3317;" d="M31.65,36.45c-0.667-6.367-1-10.083-1-11.15
			c0-1.9,0.333-4.267,1-7.1c0.867-3.567,1.417-6.384,1.65-8.45c0.367-2.934,0.634-5.367,0.8-7.3l0.101-2H52.85l34.601,25.3
			L245.4,259.1l95.6,51.5v35.051c-5.767-0.9-9.533-1.351-11.3-1.351c-0.567,0-1.917,0.15-4.05,0.45
			c-2.167,0.3-4.518,0.45-7.051,0.45c-2.399,0-4.017,0.467-4.85,1.399c-1.3,1.367-2.934,2.367-4.9,3
			c-2.666,1.134-4.383,1.768-5.149,1.9c-0.667,0.133-3.4,0.1-8.2-0.1c-3.834-0.167-6.35-1.25-7.55-3.25
			c-0.634-1.101-1.101-1.783-1.4-2.051c-0.733-0.6-1.884-0.899-3.45-0.899c-2.633,0-4.949,0.083-6.949,0.25
			c-2,0.133-3.533,0.2-4.601,0.2c-1.566,0-2.6-0.184-3.1-0.551c-0.967-0.732-1.55-1.149-1.75-1.25c-1.2-0.5-3.333-0.982-6.4-1.449
			c-3.3-0.5-6.2-0.75-8.7-0.75c-1.133,0-3.184,0.55-6.149,1.649c-3.267,1.233-7.867,2.017-13.8,2.351
			c-6.101,0.333-9.317,0.316-9.65-0.051c-0.133-0.433-0.334-0.816-0.6-1.149c-0.5-0.634-1.533-1.283-3.101-1.95
			c-2.7-1.1-5.433-3.066-8.2-5.9c-2.5-2.6-4.35-4.033-5.55-4.3c-0.767-0.167-3.616-0.283-8.55-0.35
			c-4.367-0.101-7.566-0.567-9.6-1.4c-2.101-0.866-2.934-1.767-2.5-2.7c0.8-1.767,1.183-2.783,1.149-3.05
			c-0.2-1.167-1.1-2.05-2.7-2.649c-2.934-0.768-5.732-1.518-8.399-2.25c-2.867-0.801-5.083-0.634-6.65,0.5
			c-2.033,1.433-4.25,2.149-6.65,2.149c-3.067,0-4.783-0.583-5.15-1.75c-0.867-2.767-1.816-4.7-2.85-5.8
			c-2.033-2.233-4.667-3.967-7.9-5.2c-3.3-0.967-5.4-1.6-6.3-1.899c-1.767-0.567-3.034-0.9-3.8-1c-1.9-0.301-5.517-0.551-10.85-0.75
			c-5.1-0.2-7.967-0.434-8.6-0.7c-1.067-1-2.934-2.25-5.601-3.75c-3.066-1.7-4.733-3.417-5-5.15c-0.566-3.167-1.25-5.433-2.05-6.8
			c-1.633-2.733-2.8-4.833-3.5-6.3c-0.633-1.434-1.25-2.75-1.85-3.95c-1.434-2.934-4.25-4.7-8.45-5.3
			c-2.566-0.367-4.133-0.634-4.7-0.8c-1.933-0.5-4.05-1.417-6.35-2.75c-2.167-1.268-4.267-3.384-6.3-6.351
			c-1.867-3.133-3.167-5.149-3.9-6.05c-1-1.2-2.316-2.083-3.95-2.65c-1.066-0.333-2.717-0.649-4.95-0.949
			c-1.767-0.2-3.566-1.834-5.399-4.9c-1.8-3.066-2.817-6.15-3.05-9.25c-0.133-2.3,0.133-4.434,0.8-6.4
			c0.833-2.433,1.316-4.449,1.45-6.05c0.2-2.7,0-9.149-0.6-19.35c-0.6-9.733-1.15-16.3-1.65-19.7c-0.333-2.367-1.6-4.45-3.8-6.25
			c-3-2.434-4.833-4.184-5.5-5.25c-1.267-1.967-1.883-3.717-1.85-5.25c0.233-1.967,0.267-3.917,0.1-5.85
			c-0.2-2.4-0.033-4.216,0.5-5.45c0.834-1.534,1.55-3.117,2.15-4.75c0.7-1.934,0.1-6.517-1.8-13.75
			c-2.067-7.967-3.101-12.117-3.101-12.45c0-0.833-0.133-2.7-0.399-5.6c-0.3-2.867-0.45-5.283-0.45-7.25
			c0-1.667-1.316-5.167-3.95-10.5c-2.566-5.2-3.767-8.8-3.6-10.8c0.2-2.6,0.399-4.167,0.6-4.7c0.2-0.5,0.733-1.3,1.6-2.4
			c0.733-1.066,0.967-3.85,0.7-8.35c-0.466-5.233-0.7-8.816-0.7-10.75c0-2.066-0.067-4.283-0.2-6.65c-0.167-2.333-0.25-4.1-0.25-5.3
			c0-1.467,0.183-2.867,0.55-4.2c0.566-2.066,0.983-3.917,1.25-5.55C32.333,45.717,32.217,41.883,31.65,36.45z"/>
		<path style="fill-rule:evenodd;clip-rule:evenodd;fill:#5B3317;" d="M20.9,37.7c0.367-1.034,1.25-1.184,2.65-0.45
			c1.533,0.767,2.417,2.7,2.65,5.8c0.233,3.067-0.333,5.5-1.7,7.3c-1.367,1.8-2.717,2.033-4.05,0.7
			c-1.134-1.133-1.45-3.533-0.95-7.2C19.833,41.583,20.3,39.533,20.9,37.7z"/>
		<path style="fill-rule:evenodd;clip-rule:evenodd;fill:#5B3317;" d="M24.45,113.6c2.233,0.2,3.816,2.75,4.75,7.65
			c0.833,4.434,0.866,8.533,0.1,12.3c-0.633,3.167-2.017,4.067-4.15,2.7c-2.033-1.267-3.75-3.783-5.15-7.55
			c-1.3-3.467-1.4-6.917-0.3-10.35C20.767,114.983,22.35,113.4,24.45,113.6z"/>
		<path style="fill-rule:evenodd;clip-rule:evenodd;fill:#5B3317;" d="M44.4,200.1c0.767,2.467,0.784,4.9,0.05,7.301
			c-0.733,2.5-1.934,3.033-3.601,1.6c-1.733-1.533-1.816-4.167-0.25-7.9c0.634-1.433,1.3-2.316,2-2.649
			C43.367,198.117,43.967,198.667,44.4,200.1z"/>
		<path style="fill-rule:evenodd;clip-rule:evenodd;fill:#5B3317;" d="M61.7,258.65c3.1,0.833,5.233,3.35,6.399,7.55
			c1.067,3.967,0.867,6.933-0.6,8.899c-1.267,1.667-2.667,2-4.2,1c-1.267-0.866-2.983-2.982-5.15-6.35
			c-1.933-3-2.433-5.783-1.5-8.35C57.583,258.934,59.267,258.017,61.7,258.65z"/>
		<path style="fill-rule:evenodd;clip-rule:evenodd;fill:#5B3317;" d="M79.9,286.2c-1.733-1.333-1.583-3.134,0.45-5.4
			c2.034-2.3,3.8-2.733,5.3-1.3c4.5,4.333,5.267,7,2.3,8c-1.134,0.4-2.534,0.45-4.2,0.15C82.083,287.35,80.8,286.867,79.9,286.2z"/>
		<path style="fill-rule:evenodd;clip-rule:evenodd;fill:#5B3317;" d="M136.7,311.9c5.133,1,7.2,2.649,6.2,4.949
			c-0.867,2.033-2.783,3.351-5.75,3.95c-2.3,0.434-4.767,0.351-7.4-0.25c-2.7-0.633-4.383-1.583-5.05-2.85
			c-0.767-1.601-0.034-3.117,2.2-4.55C129.367,311.55,132.633,311.133,136.7,311.9z"/>
		<path style="fill-rule:evenodd;clip-rule:evenodd;fill:#5B3317;" d="M167.75,329.2c-1.066-1.067-1.083-2.3-0.05-3.7
			c1-1.367,2.05-1.75,3.149-1.15c2.634,1.434,3.117,2.917,1.45,4.45c-0.667,0.567-1.45,0.917-2.35,1.05
			C169.017,329.95,168.283,329.733,167.75,329.2z"/>
		<path style="fill-rule:evenodd;clip-rule:evenodd;fill:#5B3317;" d="M257.35,348.3c8.167,1.601,11.884,4.05,11.15,7.351
			c-0.566,2.6-3.383,5.033-8.45,7.3c-3.634,1.633-6.483,1.933-8.55,0.899c-1.4-0.699-3.15-2.633-5.25-5.8
			c-1.934-2.899-1.9-5.45,0.1-7.649C248.517,348,252.184,347.3,257.35,348.3z"/>
		<path style="fill-rule:evenodd;clip-rule:evenodd;fill:#5B3317;" d="M286.65,353.6c3.066,1.233,3.416,2.717,1.05,4.45
			c-2.333,1.667-4.75,2.25-7.25,1.75c-1.067-0.2-1.7-0.767-1.9-1.7c-0.167-0.899,0.067-1.816,0.7-2.75
			C280.95,352.883,283.416,352.3,286.65,353.6z"/>
	</g>
	<g>
		<path style="fill-rule:evenodd;clip-rule:evenodd;fill:#5B3317;" d="M13.85,19.2c-0.466,0-0.899,0.066-1.3,0.2
			c-0.433,0.167-0.783,0.633-1.05,1.4s-0.333,1.534-0.2,2.3c0.134,1.233,0.717,1.85,1.75,1.85l0.75-0.1c0.867-0.2,1.5-0.65,1.9-1.35
			c0.366-0.633,0.5-1.333,0.399-2.1c-0.066-0.6-0.267-1.1-0.6-1.5C15.066,19.434,14.517,19.2,13.85,19.2z M16.4,17.25
			c1.367,0.833,2.15,2.1,2.35,3.8c0.167,1.4-0.083,2.667-0.75,3.8c-0.767,1.333-1.95,2.183-3.55,2.55c-0.434,0.133-0.9,0.2-1.4,0.2
			c-1.167,0-2.133-0.367-2.9-1.1c-0.8-0.733-1.3-1.733-1.5-3c-0.2-1.4-0.05-2.717,0.45-3.95c0.567-1.4,1.434-2.283,2.601-2.65
			C13.467,16.3,15.033,16.417,16.4,17.25z"/>
		<path style="fill-rule:evenodd;clip-rule:evenodd;fill:#5B3317;" d="M9.9,82.75c0.233,0.1,0.983,0.3,2.25,0.6
			c2.5,0.566,4.267,1.283,5.3,2.15c1.767,1.467,2.649,3.867,2.649,7.2c0,2.8-1,4.883-3,6.25c-1.566,1.133-3.566,1.7-6,1.7
			c-2.533,0-4.633-0.5-6.3-1.5c-1.233-0.733-2.017-2.3-2.35-4.7c-0.333-2.233-0.2-4.434,0.399-6.6c0.567-2.067,1.5-3.567,2.8-4.5
			C6.917,82.417,8.333,82.217,9.9,82.75z M15.8,87.55c-0.7-0.6-2.116-1.133-4.25-1.6l-2.5-0.65c-0.3-0.1-0.566-0.15-0.8-0.15
			c-1.233,0-2.184,1.133-2.85,3.4c-0.466,1.733-0.583,3.5-0.35,5.3c0.2,1.667,0.567,2.667,1.1,3c1.267,0.733,2.917,1.1,4.95,1.1
			c1.867,0,3.367-0.384,4.5-1.15c1.233-0.9,1.851-2.267,1.851-4.1C17.45,90.233,16.9,88.517,15.8,87.55z"/>
		<path style="fill-rule:evenodd;clip-rule:evenodd;fill:#5B3317;" d="M15.25,150.55c-0.233-0.033-0.55-0.05-0.95-0.05
			c-0.733,0-1.283,0.2-1.65,0.6c-0.667,0.8-0.85,2.333-0.55,4.6c0.4,2.7,1.101,5.083,2.101,7.15c1.066,2.233,2.149,3.35,3.25,3.35
			c0.133,0,0.399-0.067,0.8-0.2c0.533-0.233,0.917-0.883,1.15-1.95c0.2-1.066,0.217-2.383,0.05-3.95c-0.3-2.4-0.934-4.617-1.9-6.65
			C16.684,151.617,15.917,150.65,15.25,150.55z M14.3,147.8c0.434,0,0.9,0.05,1.4,0.15c1.566,0.267,2.983,1.75,4.25,4.45
			c1.066,2.267,1.767,4.733,2.1,7.4c0.567,4.733-0.35,7.617-2.75,8.65c-0.633,0.267-1.25,0.4-1.85,0.4
			c-2.167,0-4.017-1.534-5.55-4.6c-1.167-2.333-1.966-5.05-2.4-8.15c-0.434-3.067-0.05-5.317,1.15-6.75
			C11.55,148.316,12.767,147.8,14.3,147.8z"/>
		<path style="fill-rule:evenodd;clip-rule:evenodd;fill:#5B3317;" d="M3.7,163c0.866,0,1.616,0.517,2.25,1.55
			c2.333,4,3.017,6.85,2.05,8.55c-0.667,1.1-1.816,1.65-3.45,1.65c-0.5,0-1.167-0.083-2-0.25c-0.933-0.167-1.616-0.733-2.05-1.7
			c-0.434-1-0.583-2.267-0.45-3.8c0.134-1.4,0.467-2.65,1-3.75C1.75,163.75,2.633,163,3.7,163z M3.7,165.95
			c-0.333,0.5-0.617,1.267-0.851,2.3c-0.233,1.133-0.267,2.1-0.1,2.9c0.1,0.5,0.217,0.75,0.35,0.75l1.45,0.15
			c0.634,0,1.017-0.1,1.15-0.3C6.1,170.85,5.434,168.917,3.7,165.95z"/>
		<path style="fill-rule:evenodd;clip-rule:evenodd;fill:#5B3317;" d="M42.75,244.25c-1.267-2.733-2.483-4.25-3.65-4.55l-0.35-0.05
			c-0.533,0-1.083,0.433-1.65,1.3c-1.1,1.8-1.8,4.6-2.1,8.399c-0.3,3.4-0.233,5.518,0.2,6.351c0.3,0.399,0.933,0.833,1.899,1.3
			c1.167,0.566,2.284,0.85,3.351,0.85c2.033,0,3.25-1.217,3.649-3.649C44.667,250.833,44.217,247.517,42.75,244.25z M38.75,237
			l1,0.15c2,0.5,3.783,2.5,5.35,6c1.733,3.767,2.267,7.583,1.601,11.449c-0.3,1.867-1,3.317-2.101,4.351
			c-1.1,1.033-2.483,1.55-4.149,1.55c-1.434,0-2.917-0.367-4.45-1.1c-1.434-0.667-2.434-1.417-3-2.25
			c-0.733-1.101-0.95-3.617-0.65-7.551c0.267-4.1,1-7.283,2.2-9.55C35.684,238.017,37.083,237,38.75,237z"/>
		<path style="fill-rule:evenodd;clip-rule:evenodd;fill:#5B3317;" d="M101.55,317.95c1.2,1.066,2.617,1.6,4.25,1.6
			c1.167,0,2.217-0.25,3.15-0.75c0.933-0.533,1.517-1.183,1.75-1.95c0.433-1.3-0.3-2.683-2.2-4.149c-1.533-1.134-3.033-1.7-4.5-1.7
			c-0.934,0-1.767,0.217-2.5,0.65c-0.733,0.433-1.25,1.033-1.55,1.8C99.383,315.017,99.917,316.517,101.55,317.95z M100,309.5
			c1.167-0.767,2.5-1.15,4-1.15c2.1,0,4.133,0.733,6.1,2.2c2.9,2.167,3.95,4.55,3.15,7.15c-0.467,1.3-1.383,2.383-2.75,3.25
			c-1.434,0.866-3,1.3-4.7,1.3c-2.3,0-4.316-0.767-6.05-2.3c-1.2-1.067-2-2.25-2.4-3.55c-0.399-1.301-0.366-2.584,0.101-3.851
			C97.95,311.283,98.8,310.267,100,309.5z"/>
		<path style="fill-rule:evenodd;clip-rule:evenodd;fill:#5B3317;" d="M203.15,337.8c1.5,0.9,2.016,2.3,1.55,4.2
			c-0.333,1.167-0.983,2.184-1.95,3.05c-1.1,0.967-2.267,1.45-3.5,1.45c-1.167,0-2.184-0.434-3.05-1.3
			c-0.767-0.767-1.267-1.634-1.5-2.601c-0.2-0.933-0.117-1.85,0.25-2.75c0.366-0.933,1-1.683,1.899-2.25
			c0.867-0.566,1.834-0.85,2.9-0.85C200.916,336.75,202.05,337.1,203.15,337.8z M202.1,341.3c0.167-0.6,0.066-1.017-0.3-1.25
			c-0.7-0.399-1.384-0.6-2.05-0.6c-1.167,0-1.95,0.467-2.35,1.399c-0.367,0.834-0.134,1.65,0.699,2.45
			c0.367,0.367,0.75,0.55,1.15,0.55c0.566,0,1.15-0.283,1.75-0.85C201.566,342.467,201.934,341.9,202.1,341.3z"/>
		<path style="fill-rule:evenodd;clip-rule:evenodd;fill:#5B3317;" d="M192.85,347.3c0.9,1.333,1.283,2.967,1.15,4.9
			c-0.066,1.066-0.367,2.533-0.9,4.399c-0.566,2-1.934,3-4.1,3c-0.967,0-2.167-0.25-3.6-0.75c-0.834-0.267-2.084-0.767-3.75-1.5
			c-1.367-0.633-2.334-1.033-2.9-1.199c-1.066-0.334-1.85-1.067-2.35-2.2c-0.467-1.134-0.584-2.467-0.351-4
			c0.333-2.033,1.116-3.733,2.351-5.101c1.399-1.5,3.033-2.149,4.899-1.949C188.1,343.5,191.283,344.967,192.85,347.3z
			 M190.55,355.85c0.467-1.666,0.733-2.949,0.8-3.85c0.101-1.3-0.133-2.383-0.699-3.25c-1.134-1.633-3.684-2.7-7.65-3.2h-0.3
			c-0.967,0-1.851,0.517-2.65,1.55c-0.7,0.934-1.149,2.033-1.35,3.301c-0.134,0.732-0.134,1.399,0,2
			c0.167,0.666,0.466,1.083,0.899,1.25c0.768,0.232,1.801,0.649,3.101,1.25c3.1,1.333,5.2,2,6.3,2
			C189.833,356.9,190.35,356.55,190.55,355.85z"/>
		<path style="fill-rule:evenodd;clip-rule:evenodd;fill:#5B3317;" d="M266.35,362.9c1.101,0,1.934,0.482,2.5,1.449
			c0.5,0.867,0.684,1.983,0.551,3.351c-0.134,1.267-0.484,2.383-1.051,3.35c-0.732,1.3-1.649,1.95-2.75,1.95
			c-0.399,0-0.783-0.1-1.149-0.3c-1-0.5-1.667-1.333-2-2.5c-0.3-1.067-0.317-2.2-0.05-3.4c0.3-1.2,0.816-2.149,1.55-2.85
			C264.65,363.25,265.45,362.9,266.35,362.9z M266.35,365.55c-0.267,0-0.517,0.184-0.75,0.55c-0.267,0.367-0.467,0.817-0.6,1.351
			c-0.133,0.633-0.15,1.217-0.05,1.75c0.1,0.566,0.316,0.933,0.649,1.1c0.301-0.167,0.584-0.7,0.851-1.6
			c0.3-0.967,0.383-1.817,0.25-2.55C266.666,365.75,266.55,365.55,266.35,365.55z"/>
		<path style="fill-rule:evenodd;clip-rule:evenodd;fill:#5B3317;" d="M271.1,88.15c-0.467-1.333-0.517-2.716-0.149-4.15
			c0.366-1.434,1.05-2.617,2.05-3.55c1-0.9,2.117-1.35,3.35-1.35c0.7,0,1.316,0.133,1.851,0.4c3.633,1.6,6.167,3.267,7.6,5
			c1.067,1.333,1.467,2.65,1.2,3.95c-0.3,1.4-1.267,2.517-2.9,3.35c-1.5,0.767-3.184,1.15-5.05,1.15s-3.433-0.367-4.7-1.1
			C272.75,90.95,271.666,89.717,271.1,88.15z M277.15,81.9c-0.301-0.1-0.567-0.15-0.801-0.15c-0.6,0-1.166,0.283-1.699,0.85
			c-0.533,0.533-0.9,1.216-1.101,2.05c-0.2,0.733-0.217,1.45-0.05,2.15c0.267,1.167,0.983,2.067,2.15,2.7
			c0.967,0.533,2.1,0.8,3.399,0.8s2.483-0.233,3.55-0.7c1.066-0.467,1.667-1.034,1.801-1.7c0.133-0.7-0.334-1.533-1.4-2.5
			C281.733,84.233,279.783,83.066,277.15,81.9z"/>
		<path style="fill-rule:evenodd;clip-rule:evenodd;fill:#5B3317;" d="M248.65,33.4c-1.934-0.633-3.384-1.966-4.351-4
			c-0.933-2.033-1.183-4.383-0.75-7.05c0.467-2.934,1.616-5.383,3.45-7.35c2.1-2.233,4.617-3.184,7.55-2.85
			c3.7,0.467,6.317,1.15,7.851,2.05c2.633,1.566,3.949,4.216,3.949,7.95c0,3.367-1.316,6.233-3.949,8.6
			c-2.533,2.267-5.567,3.4-9.101,3.4C251.7,34.15,250.15,33.9,248.65,33.4z M248.5,17.3c-1.2,1.5-1.967,3.317-2.3,5.45
			c-0.3,1.8-0.2,3.434,0.3,4.9c0.566,1.667,1.55,2.733,2.95,3.2c1.2,0.433,2.483,0.65,3.85,0.65c2.8,0,5.25-0.917,7.351-2.75
			c2.033-1.833,3.05-4.033,3.05-6.6c0-2.667-0.851-4.533-2.55-5.6c-1.167-0.733-3.484-1.316-6.95-1.75l-0.75-0.05
			C251.55,14.75,249.9,15.6,248.5,17.3z"/>
		<path style="fill-rule:evenodd;clip-rule:evenodd;fill:#5B3317;" d="M263.3,38c0.2-1.6,0.884-3.066,2.05-4.4
			c1.233-1.4,2.566-2.1,4-2.1c0.934,0,1.768,0.3,2.5,0.9c0.867,0.7,1.434,1.6,1.7,2.7s0.184,2.25-0.25,3.45
			c-0.399,1.2-1.083,2.217-2.05,3.05c-1.1,0.9-2.334,1.35-3.7,1.35c-0.467,0-0.983-0.083-1.55-0.25c-1-0.267-1.75-0.817-2.25-1.65
			C263.283,40.184,263.133,39.167,263.3,38z M269.35,34.15c-0.666,0-1.366,0.45-2.1,1.35s-1.184,1.867-1.35,2.9
			c-0.134,1.034,0.133,1.617,0.8,1.75c0.899,0.267,1.767,0.1,2.6-0.5c0.733-0.5,1.233-1.167,1.5-2c0.533-1.333,0.333-2.383-0.6-3.15
			C269.934,34.267,269.65,34.15,269.35,34.15z"/>
		<path style="fill-rule:evenodd;clip-rule:evenodd;fill:#5B3317;" d="M318.05,108.15c0,1.3-0.417,2.367-1.25,3.2
			c-0.967,0.867-2.25,1.3-3.85,1.3c-1.8,0-3.217-0.45-4.25-1.35c-0.833-0.767-1.3-1.75-1.4-2.95c-0.134-1.434,0.283-2.784,1.25-4.05
			c0.934-1.267,2.101-2.033,3.5-2.3c1.567-0.267,2.967,0.316,4.2,1.75C317.45,105.05,318.05,106.517,318.05,108.15z M312.7,104.65
			h-0.2c-0.733,0.133-1.367,0.567-1.9,1.3c-0.5,0.733-0.717,1.466-0.649,2.2c0.066,1.233,1.066,1.85,3,1.85c0.933,0,1.6-0.2,2-0.6
			c0.3-0.3,0.45-0.716,0.45-1.25c0-0.833-0.283-1.617-0.851-2.35C313.95,105.033,313.333,104.65,312.7,104.65z"/>
	</g>
	<g>
		<path style="fill-rule:evenodd;clip-rule:evenodd;fill:#5B4636;" d="M11.8,17.75c2.934-0.967,4.684-0.05,5.25,2.75
			c0.567,2.8-0.517,4.55-3.25,5.25c-2.5,0.633-3.9-0.4-4.2-3.1C9.3,19.983,10.033,18.35,11.8,17.75z"/>
		<path style="fill-rule:evenodd;clip-rule:evenodd;fill:#5B4636;" d="M9.15,83.65c1.333,0.434,3.383,1.034,6.15,1.8
			c2.1,1.167,3.15,3.45,3.15,6.85c0,3.567-1.8,5.7-5.4,6.4c-3.066,0.6-5.7,0.233-7.9-1.1c-0.8-0.5-1.367-1.6-1.7-3.3
			c-0.267-1.667-0.25-3.4,0.05-5.2C4.333,84.5,6.217,82.684,9.15,83.65z"/>
		<path style="fill-rule:evenodd;clip-rule:evenodd;fill:#5B4636;" d="M15.1,148.85c2.101,0.367,3.733,3.2,4.9,8.5
			c1.2,5.367,0.684,8.533-1.55,9.5c-2.067,0.867-3.9-0.2-5.5-3.2c-1.2-2.267-2.034-4.983-2.5-8.15c-0.333-2.4-0.134-4.167,0.6-5.3
			C11.816,149,13.167,148.55,15.1,148.85z"/>
		<path style="fill-rule:evenodd;clip-rule:evenodd;fill:#5B4636;" d="M2.5,172.8c-1.667-0.333-2.05-2.25-1.15-5.75
			c0.334-1.366,0.784-2.3,1.351-2.8c0.633-0.566,1.233-0.367,1.8,0.6c2.1,3.566,2.767,5.966,2,7.2
			C5.9,172.983,4.566,173.233,2.5,172.8z"/>
		<path style="fill-rule:evenodd;clip-rule:evenodd;fill:#5B4636;" d="M39.1,238.05c1.567,0.4,3.067,2.134,4.5,5.2
			c1.567,3.533,2.05,7.117,1.45,10.75c-0.566,3.5-2.45,5.083-5.65,4.75c-2.7-0.267-4.583-1.184-5.65-2.75
			c-0.934-1.434-0.934-4.85,0-10.25C34.75,239.983,36.533,237.417,39.1,238.05z"/>
		<path style="fill-rule:evenodd;clip-rule:evenodd;fill:#5B4636;" d="M108.95,311.25c1.866,1.4,2.816,2.867,2.85,4.4
			c0.033,1.366-0.6,2.533-1.9,3.5c-1.3,0.933-2.833,1.383-4.6,1.35c-1.9-0.033-3.566-0.684-5-1.95
			c-1.433-1.267-2.183-2.649-2.25-4.149c-0.033-1.4,0.483-2.601,1.55-3.601C102.2,308.367,105.316,308.517,108.95,311.25z"/>
		<path style="fill-rule:evenodd;clip-rule:evenodd;fill:#5B4636;" d="M202.15,338.55c1.732,1.033,1.666,2.583-0.2,4.65
			c-1.8,2.066-3.517,2.283-5.15,0.649c-1.667-1.666-1.767-3.3-0.3-4.899C198,337.35,199.883,337.217,202.15,338.55z"/>
		<path style="fill-rule:evenodd;clip-rule:evenodd;fill:#5B4636;" d="M182.85,343.85c5,0.601,8.018,2.184,9.051,4.75
			c0.633,1.567,0.5,3.983-0.4,7.25c-0.566,1.934-2.35,2.467-5.35,1.601c-3.533-1.5-5.967-2.483-7.301-2.95
			c-2.066-0.7-2.566-2.717-1.5-6.05C178.45,345.083,180.283,343.55,182.85,343.85z"/>
		<path style="fill-rule:evenodd;clip-rule:evenodd;fill:#5B4636;" d="M266,363.8c1.633,0,2.166,1.384,1.6,4.15
			c-0.566,2.8-1.533,3.866-2.899,3.2c-1.333-0.667-1.8-2.067-1.4-4.2C263.7,364.85,264.6,363.8,266,363.8z"/>
		<path style="fill-rule:evenodd;clip-rule:evenodd;fill:#5B4636;" d="M272.1,83.3c0.467-1.233,1.167-2.15,2.101-2.75
			c1.033-0.633,2.083-0.716,3.149-0.25c7.467,3.3,9.851,6.3,7.15,9c-1.033,1-2.55,1.617-4.55,1.85c-2.067,0.233-3.833-0.05-5.3-0.85
			C271.816,88.7,270.967,86.367,272.1,83.3z"/>
		<path style="fill-rule:evenodd;clip-rule:evenodd;fill:#5B4636;" d="M248.7,31.75c-1.9-0.633-3.184-2.033-3.851-4.2
			c-0.633-2-0.649-4.2-0.05-6.6c0.601-2.4,1.684-4.333,3.25-5.8c1.733-1.633,3.733-2.316,6-2.05c3.533,0.433,5.967,1.05,7.3,1.85
			c2.233,1.3,3.351,3.566,3.351,6.8c0,3.7-1.667,6.617-5,8.75C256.333,32.633,252.666,33.05,248.7,31.75z"/>
		<path style="fill-rule:evenodd;clip-rule:evenodd;fill:#5B4636;" d="M270.7,33.05c1.7,1.367,1.917,3.2,0.649,5.5
			c-1.267,2.333-3.05,3.167-5.35,2.5c-1.1-0.3-1.7-1.05-1.8-2.25c-0.101-1.066,0.2-2.216,0.899-3.45c0.7-1.233,1.533-2.083,2.5-2.55
			C268.733,32.233,269.767,32.316,270.7,33.05z"/>
		<path style="fill-rule:evenodd;clip-rule:evenodd;fill:#5B4636;" d="M311.95,102.95c0.966-0.167,1.866,0.15,2.7,0.95
			c0.833,0.767,1.366,1.7,1.6,2.8c0.7,2.833-0.517,4.25-3.65,4.25c-3.1,0-4.533-1.25-4.3-3.75
			C308.5,104.733,309.717,103.316,311.95,102.95z"/>
	</g>
	<g>
		<path style="fill-rule:evenodd;clip-rule:evenodd;fill:#351C0A;" d="M216.55,0v10.15c0.333,16.233,2.017,31.45,5.05,45.65
			c4.566,21.6,11.75,37.9,21.551,48.9c11.199,12.533,26.1,22.216,44.699,29.05c9.301,3.4,17.483,5.55,24.551,6.45l29.25,0.9v196.1
			c-4.834,0.2-11.334,0.2-19.5,0H307.05V337.1l-13.3,0.101c-9.9,0-27.133-2.567-51.7-7.7c-25.3-5.267-44.45-10.45-57.45-15.55
			c-40.633-14.2-71.983-33.967-94.05-59.3c-2.267-2.567-4.4-5.45-6.4-8.65c-0.966-1.333-1.783-2.583-2.45-3.75
			c-4.833-8.333-9.167-17.95-13-28.85c-3.733-10.667-6.5-21.167-8.3-31.5c-2.067-12.867-3.583-22.133-4.55-27.8
			c-1.666-9.767-3.416-17.95-5.25-24.55c-1.733-6.333-2.716-20.066-2.95-41.2c-0.033-2.8,0.067-20.083,0.3-51.85
			c-0.167-9.2-0.217-18.05-0.15-26.55L47.95,0H216.55z"/>
	</g>
	<g>
		<path style="fill-rule:evenodd;clip-rule:evenodd;fill:#331B09;" d="M329.6,178.85c0.101,0.367,0.316,1.133,0.65,2.3
			c0.233,0.9,0.684,1.983,1.35,3.25c0.566,1.667,0.783,4.35,0.65,8.05c-0.1,2.7,0.2,5.55,0.9,8.55c0.732,3.2,1.1,5.35,1.1,6.45
			v6.649c0,1-0.05,2.75-0.15,5.25c-0.033,2.301,0.018,3.983,0.15,5.051c0.2,1.633,0.283,2.5,0.25,2.6
			c-0.033,0.733-0.35,2.533-0.95,5.4c-0.6,2.866-0.933,4.649-1,5.35c-0.033,0.033-0.134,1.233-0.3,3.6l-0.35,4
			c-0.4-0.166-0.817-0.416-1.25-0.75c-0.9-0.666-1.484-1.416-1.75-2.25c-0.601-1.5-1.018-2.683-1.25-3.55
			c-0.467-1.533-0.484-2.783-0.051-3.75c0.167-0.399,0.45-1.467,0.851-3.2c0.233-1.133,0.649-1.949,1.25-2.449
			c0.767-0.667,1.216-1.15,1.35-1.45s0.2-1.033,0.2-2.2s-0.15-2.367-0.45-3.6c-0.267-1.233-0.566-1.934-0.899-2.101
			c-0.634-1.533-1.033-2.6-1.2-3.2c-0.101-0.399-0.15-0.883-0.15-1.449c-0.1,0.399-0.217,0.783-0.35,1.149
			c-0.267,0.733-0.517-0.017-0.75-2.25c-0.233-2.3-0.333-4.3-0.3-6c0.066-1.667,0.1-2.95,0.1-3.85c0.267-1.134,0.45-2.033,0.55-2.7
			c0.134-1.233-0.267-3.55-1.2-6.95c-0.8-2.899-1.833-5.899-3.1-9c-0.967-2.366-1.5-4.033-1.6-5c-0.134-1.2,0.383-1.883,1.55-2.05
			c1.767-0.3,2.7-0.5,2.8-0.6c0.9-0.667,1.566-2,2-4l-0.35-3.65l0.55,1.3c0.399,1.134,0.667,2.467,0.8,4
			C329.383,177.4,329.5,178.417,329.6,178.85z M329.9,220.05c0.666,1.667,0.75,2.05,0.25,1.15
			C329.65,220.3,329.566,219.917,329.9,220.05z"/>
		<path style="fill-rule:evenodd;clip-rule:evenodd;fill:#331B09;" d="M288.3,166.15l2.351-1.65c1.533-1,2.3-1.217,2.3-0.65
			c0,0.4,0.767,1.933,2.3,4.6c1.5,2.566,2.184,4.017,2.05,4.35l1.601,4.15c1.199,3,2.217,5.066,3.05,6.2
			c0.466,0.6,1.167,1.684,2.1,3.25c0.533,0.9,1.05,1.467,1.55,1.7c0.233,0.101,0.634-0.732,1.2-2.5c0.233-0.833,0.616,0.9,1.15,5.2
			c0.466,3.667,1.366,7.567,2.7,11.7c0.967,2.967,1.283,5.05,0.949,6.25c-0.232,0.833-0.55,1.5-0.949,2
			c-0.234,0.267-0.467,1.6-0.7,4c-0.267,2.566-0.351,4.983-0.25,7.25c0.066,1.167,0.149,2.417,0.25,3.75c0,0.333,0.1,0.434,0.3,0.3
			c0.1-0.066,0.233-0.2,0.4-0.399c0.232-0.101-0.117,1.366-1.051,4.399c-0.366,1.2-1.1,3.9-2.199,8.101
			c-0.533,1.967-1.134,3.6-1.801,4.899c-1.1,2.434-1.982,4.317-2.649,5.65l-2.351,5l-2.3,2.649c-0.267,0.067-0.533,0.067-0.8,0
			c-0.566-0.133-0.85-0.467-0.85-1c0-0.866-0.351-2.5-1.051-4.899c-0.8-2.733-1.566-4.533-2.3-5.4c-1-0.899-1.6-1.5-1.8-1.8
			c-0.334-0.434-0.283-1.283,0.15-2.55c0.5-1.467,0.899-3.233,1.199-5.3c0.301-2,0.45-3.783,0.45-5.351c0-1.233-0.1-3.217-0.3-5.95
			l-0.35-3.699c-1.768,8.666-3.101,13.333-4,14c-0.567,0.399-1.567,0.899-3,1.5l-2,0.8H281.3l-0.45,2.149
			c-0.267,1.567-0.333,2.634-0.199,3.2c0.133,0.434,0.333,1.417,0.6,2.95c0.146,0.678,0.304,1.236,0.475,1.675
			c-1.471-2.401-3.379-4.276-5.725-5.625c-1.4-0.8-3.5-1.35-6.3-1.649c-2.833-0.268-4.833-0.717-6-1.351
			c-1.534-0.6-2.467-0.983-2.8-1.149c-0.334-0.134-1.184-1.084-2.551-2.851c-2.199-2.267-3.717-3.85-4.55-4.75
			c-1.399-1.5-2.1-3.25-2.1-5.25v-11.3l1.399,3.15c1.033,2.166,1.9,3.449,2.601,3.85c1,0.6,1.866,1,2.6,1.2
			c0.934,0.233,1.4,0.05,1.4-0.55c0-0.5,0.25-1.134,0.75-1.9c0.633-1.033,1.05-1.833,1.25-2.4c0.866-2.666,1.3-4.666,1.3-6
			c-0.2-2.899-0.3-5.449-0.3-7.649c0-1.4-0.717-4.05-2.15-7.95l-2.2-5.4l1.801,0.45c1.5,0.634,3.016,1.717,4.55,3.25
			c0.899,0.9,2.633,2.217,5.2,3.95c1.8,1.2,2.949,2.434,3.449,3.7c0.601,1.533,1.867,1.5,3.801-0.101
			c1.899-1.566,2.85-3.083,2.85-4.55v-10.65l4.65,6.65l1.649-5.35c0.233-1.534,0.567-3.2,1-5c0.7-2.2,1.217-3.934,1.55-5.2
			c0.667-2.333,0.934-3.917,0.801-4.75c-0.134-0.833-0.4-1.967-0.801-3.4L288.3,166.15z"/>
		<path style="fill-rule:evenodd;clip-rule:evenodd;fill:#331B09;" d="M267.8,155.15c2.767,2.467,4.283,6.133,4.55,11
			c0.066,1.367,0.018,3.217-0.149,5.55c-0.134,1.9-0.083,3.833,0.149,5.8c0.2,1.667,0.5,3.533,0.9,5.6
			c0.267,1.433,0.4,2.55,0.4,3.35c0,1.566-0.101,3.35-0.301,5.35c-0.899,0-1.833-0.217-2.8-0.649c-1.933-0.9-3.116-2.467-3.55-4.7
			c-0.367-2-1.483-4.617-3.35-7.85c-1.734-3-2.601-4.7-2.601-5.1v-4.35c0-0.533,0.45-1.816,1.351-3.85
			c0.866-2.066,1.3-3.45,1.3-4.15v-8.3l1.25,0.45C265.983,153.733,266.934,154.35,267.8,155.15z"/>
		<path style="fill-rule:evenodd;clip-rule:evenodd;fill:#331B09;" d="M281.05,166.5c1.833,1.333,2.817,2.55,2.95,3.65
			c0.133,1.067,0.1,2.1-0.1,3.1c-0.101,0.6-0.301,1.566-0.601,2.9c-0.2,1.567-0.533,3.784-1,6.65l-2.95-6
			c-0.5-0.966-0.767-1.733-0.8-2.3c-0.1-1.1-0.283-2.217-0.55-3.35c-0.4-1.6-0.467-2.983-0.2-4.15c0.366-1,0.55-1.717,0.55-2.15
			L281.05,166.5z"/>
		<path style="fill-rule:evenodd;clip-rule:evenodd;fill:#331B09;" d="M253.35,184.8l1.551,2.2c1.066,1.833,1.666,3.65,1.8,5.45
			c0.133,1.7,0.183,3.116,0.149,4.25c-0.1,2-0.149,3.25-0.149,3.75c0,1.533-0.434,3.366-1.3,5.5c-0.467,1.1-0.917,2.033-1.351,2.8
			c-1.767-1.767-2.767-3.2-3-4.3c-0.134-0.733-0.167-1.733-0.1-3c0.2-1.9,0.35-3.567,0.45-5c0.066-1.101,0.433-2.75,1.1-4.95
			C253.066,189.533,253.35,187.3,253.35,184.8z"/>
		<path style="fill-rule:evenodd;clip-rule:evenodd;fill:#331B09;" d="M221.1,186.2c0-2.034,0.117-4.05,0.351-6.05
			c0.1-1,0.2-1.283,0.3-0.85c0.233,1.233,0.566,2.184,1,2.85c0.333,0.5,1.767,1.65,4.3,3.45c2.8,2,5.134,4.067,7,6.2l1,1.3l5,5
			c0.567,0.567,0.866,1.067,0.9,1.5c0.033,0.334,0.066,1.167,0.1,2.5c0.2,1.467,0.55,2.75,1.05,3.851
			c0.7,1.5,2.134,3.883,4.301,7.149c1.1,1.634,1.666,2.617,1.699,2.95c0.033,0.3-0.333,0.217-1.1-0.25
			c-2.867-1.733-4.733-2.633-5.6-2.7c-1.268-0.133-2.25-0.6-2.95-1.399c-1-1.233-2.233-2.217-3.7-2.95c-1.8-0.9-2.9-1.934-3.3-3.1
			c-0.534-1.4-0.983-2.25-1.351-2.551c-1.066-1-1.85-1.699-2.35-2.1c-0.834-0.7-1.95-1.333-3.35-1.9
			c-1.301-0.533-2.033-1.633-2.2-3.3c-0.233-2.467-0.384-3.8-0.45-4C221.316,190.767,221.1,188.9,221.1,186.2z"/>
		<path style="fill-rule:evenodd;clip-rule:evenodd;fill:#331B09;" d="M242.75,144.85c0.467,1.566,0.9,3.45,1.3,5.65
			c0.233,1.333,0.783,3.45,1.65,6.35l-0.65,4c-0.134,0.633-0.183,1.55-0.149,2.75c0.1,2.267,0.149,3.783,0.149,4.55
			c0,1.667,0.45,3.733,1.351,6.2c0.433,1.2,0.866,2.25,1.3,3.15c-3.101-1.8-5.65-3.367-7.65-4.7c-1.167-0.8-1.983-1.966-2.45-3.5
			c-0.633-2.267-1.033-3.533-1.199-3.8c-0.567-1-0.917-2.35-1.051-4.05c-0.1-2.4-0.199-4.483-0.3-6.25
			c-0.134-2.634,0.283-6.1,1.25-10.4l1.45-5.6l-0.15,1.65c-0.133,1.367-0.199,2.816-0.199,4.35c0,1.8,0.416,2.583,1.25,2.35
			c0.8-0.267,2.05-1.5,3.75-3.7c1.1-1.434,1.533-1.934,1.3-1.5C242.967,143.684,242.65,144.517,242.75,144.85z"/>
		<path style="fill-rule:evenodd;clip-rule:evenodd;fill:#331B09;" d="M207.1,176.15c-1-0.5-1.783-1.417-2.35-2.75
			c-1-2.333-1.867-4.083-2.6-5.25c-1.234-1.9-1.768-3.566-1.601-5c0.4-1.333,0.601-2.333,0.601-3c-0.234-4.2-0.351-8.85-0.351-13.95
			c0-3.2,0.167-3.817,0.5-1.85c0.167,0.966,0.333,2.25,0.5,3.85l1.2,4.8c1.4,4.333,3.55,9.283,6.45,14.85l2.55,5.05
			c1.633,3.667,2.233,6.184,1.8,7.55c-0.333,1.133-0.55,1.5-0.649,1.1c-0.334-1.167-0.9-1.966-1.7-2.4c-0.7-0.4-1.384-0.9-2.05-1.5
			C208.833,177.15,208.066,176.65,207.1,176.15z"/>
	</g>
	<g>
		<path style="fill-rule:evenodd;clip-rule:evenodd;fill:#3A1D0A;" d="M341.2,264.45l0.45,0.3v72.45l-3.2,0.1
			c-10.733-0.7-21.934-1.316-33.601-1.85c-2.566-0.134-7.232-0.15-14-0.05c-5.666,0.033-9.883-0.101-12.649-0.4
			c-7.034-0.833-14.267-2.167-21.7-4c-3.267-0.833-5.717-1.383-7.35-1.65c-2.567-0.399-5.45-0.6-8.65-0.6h-1.95
			c-7.733-1.633-15-3.316-21.8-5.05c-1.8-1.601-4.184-3.45-7.15-5.55c-2.6-1.867-4.416-3.067-5.449-3.601
			c-0.9-0.433-2.5-1.533-4.801-3.3c-2.3-1.767-4.116-3.316-5.449-4.65c-1.033-1.066-1.867-2.217-2.5-3.449
			c-0.768-1.601-1.25-2.533-1.45-2.801c-0.667-0.866,0.683-1.467,4.05-1.8c3.333-0.333,6.117-0.167,8.35,0.5
			c2.033,0.601,4.4,0.884,7.101,0.851c1.133-0.033,6.167-0.317,15.1-0.851c6-0.366,8.517-0.75,7.55-1.149
			c-0.899-0.268-1.6-0.483-2.1-0.65c-0.867-0.3-1.217-0.583-1.05-0.85c0.267-0.4-0.117-1.45-1.15-3.15
			c-1.167-1.934-1.667-3.55-1.5-4.85c0.101-0.9,0.2-1.4,0.3-1.5c0.066-0.101,0.301-0.051,0.7,0.149c1.567,0.9,3.45,1.351,5.65,1.351
			c3.333,0,5.466-0.033,6.399-0.101c0.9-0.066,2.467-0.333,4.7-0.8c1.866-0.367,1.684-0.633-0.55-0.8l-3.9-0.101
			c-2.366-1.467-7.232-5.6-14.6-12.399c-4.633-4.233-5.8-7.134-3.5-8.7c1.133-0.767,2.733-1.117,4.8-1.05l8,1.3
			c1.567,0.333,4.417,0.717,8.55,1.15c4.467,0.467,7.533,0.833,9.2,1.1c2.2,0.367,3.384,0.4,3.55,0.1
			c0.066-0.133-0.083-0.316-0.449-0.55c-0.601-2.667-0.9-4.583-0.9-5.75c0-0.767,0.5-1.033,1.5-0.8
			c0.633,0.167,1.916,0.566,3.85,1.2c0.867,0.267,2.75,0.583,5.65,0.95c2.733,0.366,4.833,0.8,6.3,1.3
			c1.434,0.467,2.817,0.767,4.15,0.899c2.2,0.167,4.366,0.45,6.5,0.851c2.899,0.566,4.816,0.717,5.75,0.45
			c0.533-0.134,1.433-0.434,2.7-0.9c1.6-0.2,4.033-0.383,7.3-0.55c3.399-0.2,6.283-0.3,8.649-0.3h10.65c1,0,2.65,0.149,4.95,0.449
			c2.267,0.268,4.017,0.4,5.25,0.4c1.399,0,2.466-0.117,3.2-0.35c1.699-0.5,2.85-0.817,3.449-0.95
			C336.767,263.85,339.133,263.85,341.2,264.45z"/>
		<path style="fill-rule:evenodd;clip-rule:evenodd;fill:#3F2009;" d="M341.25,273.4l0.4,0.199v55.15
			c-6.634,0-10.768-0.133-12.4-0.4c-1.334-0.3-2.383-0.5-3.15-0.6c-1.3-0.2-3.366-0.3-6.199-0.3c-1.867,0-4.533-0.367-8-1.101
			c-3.467-0.767-7.15-1.149-11.051-1.149c-3.533,0-6.616,0.1-9.25,0.3c-3.699,0.267-8.449,0.467-14.25,0.6
			c-7.366,0.2-11.399,0.167-12.1-0.1c-0.2-0.1-0.417-0.35-0.65-0.75c-0.199-0.5-0.684-0.95-1.449-1.35
			c-1.434-0.801-0.084-1.533,4.05-2.2c4.333-0.667,6.233-1.267,5.7-1.8c-0.667-0.667-1.768-1.434-3.301-2.301
			c-1.934-1.1-3.35-1.967-4.25-2.6c-1.133-0.8-2.684-1.383-4.649-1.75c-3-0.566-5.45-1.167-7.351-1.8
			c-0.934-0.3-3.199-1.333-6.8-3.101c-2.467-1.199-5.967-2.232-10.5-3.1c-4.5-0.867-6.8-1.316-6.899-1.35
			c0.333,0.166-0.317,0.166-1.95,0c-3.833-0.301-5.75-1.483-5.75-3.551c0-0.5,1.1-0.75,3.3-0.75c2.8,0,4.35-0.033,4.65-0.1
			c0.467-0.133,1.683-0.3,3.649-0.5c2.033-0.233,3.783-0.517,5.25-0.85c1.667-0.367,3.116-0.551,4.351-0.551
			c0.866,0,2.666,0.033,5.399,0.101c2.467,0,4.317-0.4,5.55-1.2c1.134-0.767,1.2-1.4,0.2-1.9c-0.733-0.366-1.316-1.066-1.75-2.1
			l-0.45-1.45l2.65-0.05c2.1-0.066,3.883-0.2,5.35-0.4c2.367-0.3,7.384-0.732,15.051-1.3c1.899-0.2,1.633-0.417-0.801-0.649
			c-0.333-0.033-3.166-0.268-8.5-0.7c-2.899-0.233-8.217-0.967-15.949-2.2c-1.967-0.333-3.851-0.85-5.65-1.55
			c-1.967-0.8-3.5-1.317-4.6-1.55c-1.634-0.367-2.351-1.15-2.15-2.351l0.85-1.649l1.15-0.95c0.967-0.667,1.916-1.101,2.85-1.3
			c1.467-0.301,3.983-1.033,7.551-2.2l3.899-0.2c2.934-0.167,5.317-0.25,7.15-0.25c1.866,0,3.683-0.283,5.45-0.85
			c0.899-0.301,1.6-0.601,2.1-0.9c-1.467-0.9-3.684-1.65-6.65-2.25c-1.732-0.367-0.717-0.4,3.051-0.1
			c5.1,0.366,7.783,0.55,8.05,0.55c1.267,0,2.466,0.1,3.6,0.3c1.667,0.267,4.75,0.9,9.25,1.9c3.601,0.833,5.483,1.133,5.65,0.899
			c0.3-0.433,1.383-0.583,3.25-0.45c2.899,0.2,4.95,0.2,6.149,0c0.934-0.133,2.867-0.566,5.801-1.3
			c2.6-0.566,9.232-0.433,19.899,0.4C331.383,272.383,336.45,272.867,341.25,273.4z"/>
		<path style="fill-rule:evenodd;clip-rule:evenodd;fill:#3F2009;" d="M251.6,315.45c1.733,0,2.717,0.667,2.95,2s-0.45,2-2.05,2
			c-1.334,0-2.834-0.101-4.5-0.3c-2.033-0.233-3.65-0.434-4.85-0.601c-1.734-0.233-3.268-0.717-4.601-1.45
			c-1.267-0.699-2.683-1.833-4.25-3.399c-1.3-1.3-0.75-1.634,1.65-1c1.433,0.366,3.983,1.133,7.649,2.3
			c1.967,0.533,3.351,0.783,4.15,0.75C248.316,315.717,249.6,315.617,251.6,315.45z"/>
		<path style="fill-rule:evenodd;clip-rule:evenodd;fill:#3A1D0A;" d="M284.5,284.9c-2.434-0.567-4.084-1.184-4.95-1.851
			c-0.899-0.667,0.384-1.183,3.851-1.55c3.566-0.4,7.75-0.467,12.55-0.2c7.167,0.4,10.466,1.2,9.899,2.4
			c-0.467,1-2.283,1.683-5.449,2.05c-1.567,0.167-3.117,0.217-4.65,0.15c-2.633-0.101-4.184-0.15-4.65-0.15
			C289.1,285.75,286.9,285.467,284.5,284.9z"/>
		<path style="fill-rule:evenodd;clip-rule:evenodd;fill:#3A1D0A;" d="M286.2,310.15c-2.367,0.199-4.25,0.166-5.65-0.101
			c-1.399-0.366-2.616-0.633-3.649-0.8c-0.768-0.1-1.117-0.383-1.051-0.85c0.033-0.434,0.4-0.884,1.101-1.351
			c1.833-1.233,4.183-1.683,7.05-1.35c3.833,0.433,5.916,1.233,6.25,2.399C290.583,309.233,289.233,309.917,286.2,310.15z"/>
		<path style="fill-rule:evenodd;clip-rule:evenodd;fill:#44220A;" d="M307.05,300.35c2.3,0.467,3.134,1.084,2.5,1.851
			c-0.634,0.8-2.35,1.083-5.149,0.85c-2.867-0.233-3.801-0.866-2.801-1.899C302.633,300.117,304.45,299.85,307.05,300.35z"/>
		<path style="fill-rule:evenodd;clip-rule:evenodd;fill:#44220A;" d="M300.5,320.25c1.3-0.7,2.883-1.2,4.75-1.5l5-0.3
			c2.367-0.134,4.117-0.384,5.25-0.75c1.767-0.601,4.133-1.5,7.1-2.7l-0.449,1.35c-0.268,0.768-0.533,1.317-0.801,1.65
			c-0.333,0.467-0.816,0.8-1.449,1c-0.033,0-0.5,0.367-1.4,1.1c-0.7,0.567-1.85,0.934-3.45,1.101c-1.5,0.167-2.8,0.217-3.899,0.149
			c-2.2-0.1-4.15-0.149-5.851-0.149h-6.25L300.5,320.25z"/>
		<path style="fill-rule:evenodd;clip-rule:evenodd;fill:#3F2009;" d="M220.2,308.8c3.566,0.467,5.899,1.067,7,1.8
			c1.767,1.167,4.433,3.533,8,7.101c0.566,0.566,0.833,0.866,0.8,0.899c0,0.067-0.316,0-0.95-0.199
			c-2.566-0.768-5.183-1.301-7.85-1.601c-1.601-0.167-4.934-0.417-10-0.75c-3.167-0.167-5.601-0.517-7.3-1.05
			c-1.768-0.533-2.9-1-3.4-1.4c-0.533-0.666-1.316-1.383-2.35-2.149l-10.25-7.101l4.85,1.2c3.767,0.967,7.033,1.9,9.8,2.8
			c2.5,0.834,3.833,1.167,4,1c0.567-0.566,1.45-0.899,2.65-1L220.2,308.8z"/>
	</g>
	<g>
		<g>
			<path style="fill-rule:evenodd;clip-rule:evenodd;fill:#3A1E0B;" d="M111.25,154.45c0.733,1.2,1.083,2.216,1.05,3.05
				c-1.1,5.934-0.15,9.117,2.85,9.55l-0.65,2l-2.65,1.75c-2.666,1.167-4.85,1.617-6.55,1.35c0.934-3.933,1.384-5.933,1.35-6
				c-1.7-2.233-2.583-4.667-2.65-7.3c-0.033-0.667,0.25-3.517,0.85-8.55l1.65,0.55c1.333,0.367,2.617,0.55,3.85,0.55
				C110.283,152.3,110.583,153.316,111.25,154.45z"/>
			<path style="fill-rule:evenodd;clip-rule:evenodd;fill:#3A1E0B;" d="M124.25,160.2l1.8,0.4l-1.8,7.55
				c-0.434,2.067-0.816,3.55-1.15,4.45c-0.1,0.3-0.149,0.883-0.149,1.75l0.1,2.3c-0.433-2.267-0.917-3.767-1.45-4.5
				c-0.533-0.7-1.666-2.45-3.399-5.25c0.866-0.233,1.399-1.316,1.6-3.25c0.1-2.133,0.25-3.517,0.45-4.15
				c0.2-0.3,0.783-0.25,1.75,0.15c0.833,0.367,1.25,0.317,1.25-0.15l0.05-0.65L124.25,160.2z"/>
			<path style="fill-rule:evenodd;clip-rule:evenodd;fill:#3A1E0B;" d="M87.9,2.7c2.933,0,6.633,0.133,11.1,0.4
				c-2.133,0.3-4.483,0.716-7.05,1.25c-5.101,1.033-8.667,2.1-10.7,3.2C79.217,8.65,77.566,9.8,76.3,11L75,12.45l4.75-1.55
				c3.467-1.033,6.033-1.55,7.7-1.55h4c-1.934,0.9-3.9,1.833-5.9,2.8c-4,2-6.183,3.284-6.55,3.85l-0.9,1.3l24.45-1.75
				c0.2,0-1.967,0.567-6.5,1.7c-5.833,1.467-9.45,2.816-10.85,4.05c-1.167,1.034-2.351,1.934-3.55,2.7
				c-0.4,0.267-0.383,0.4,0.05,0.4c0.167,0,1.25-0.133,3.25-0.4c2-0.3,3.866-0.45,5.6-0.45h6.2c-2,0.434-4.083,0.983-6.25,1.65
				c-4.367,1.333-7.017,2.55-7.95,3.65l-2.2,2.65l1.15-0.25c1.267-0.233,3.1-0.434,5.5-0.6l5.75-0.45
				c-1.267,0.233-2.65,0.6-4.15,1.1c-3.033,1.034-5.2,2.284-6.5,3.75L79,38.6h8.9c1.6,0,1.45,0.45-0.45,1.35
				c-2.7,1.267-4.184,2.15-4.45,2.65c-0.434,0.9,0.367,1.583,2.4,2.05c1.933,0.467,5.284,0.817,10.05,1.05l9.3,0.45
				c-2.5,0.367-5.15,0.85-7.95,1.45c-5.533,1.167-8.95,2.316-10.25,3.45l-3.1,2.65l4.149-0.45c3.034-0.3,5.2-0.45,6.5-0.45H99
				c-1.7,0.233-3.483,0.534-5.35,0.9c-3.7,0.733-5.917,1.466-6.65,2.2c-0.8,0.833-0.434,1.333,1.1,1.5
				c1.267,0.167,2.967,0.117,5.101-0.15l3.55-0.45c-1.467,0.667-2.983,1.45-4.55,2.35c-3.101,1.767-4.833,3.2-5.2,4.3l-0.9,2.65
				l5.101-0.4c3.733-0.3,6.333-0.45,7.8-0.45h3.55c-2.3,0.434-4.65,1.083-7.05,1.95c-4.833,1.667-7.517,3.517-8.05,5.55l-1.351,4.9
				l1.851-1.55c1.399-1.034,2.566-1.55,3.5-1.55h2.2c-0.6,0.3-1.25,0.733-1.95,1.3c-1.4,1.2-2.384,2.533-2.95,4l-1.3,3.55h15.95
				c-2.3,0.534-4.633,1.2-7,2c-4.733,1.667-7.283,3.233-7.65,4.7c-0.434,1.833-0.55,2.9-0.35,3.2c0.233,0.333,1.1,0.3,2.6-0.1
				l3.1-0.9c-0.233,0.233-0.533,0.6-0.899,1.1c-0.733,1.067-1.467,2.333-2.2,3.8c-0.733,1.433-1.35,3.033-1.85,4.8
				c-0.267,0.934-0.533,1.983-0.8,3.15c-0.066,0.167-0.583,0.367-1.55,0.6c-0.9,0.233-1.433,1.217-1.6,2.95
				c-0.101,1.267-0.784,4.167-2.05,8.7c-1.133,4.034-1.617,6.617-1.45,7.75c0.233,1.7,0.5,2.95,0.8,3.75
				c0.4,1,1.017,1.817,1.85,2.45c0.601,0.433,1.334,0.8,2.2,1.1c0.767,0.4,1.5,1.216,2.2,2.45c1.2,2.067,1.95,3.983,2.25,5.75
				l1.3,1.2c1.267,5.733,1.45,12.383,0.55,19.95c-0.366,2.9-0.45,5.134-0.25,6.7c0.3,2.3,1.184,4.55,2.65,6.75
				c-2.833,3.2-4.4,5.267-4.7,6.2c-0.366,1.1-0.333,2.9,0.1,5.4c0.233,1.3,0.5,2.767,0.8,4.4c0,0.667,3.917,6.983,11.75,18.95
				c7.866,12,12.667,18.983,14.399,20.95c1.767,2,4.117,4.366,7.05,7.1c2.9,2.733,5.133,4.667,6.7,5.8c0.267,0.2,2,0.867,5.2,2
				c2.367,0.8,4.333,2.351,5.9,4.65c1.566,2.267,2.933,4.017,4.1,5.25c1.233,1.333,1.934,2.1,2.1,2.3
				c0.233,0.3,0.35,1.017,0.35,2.15c0,0.899,0.783,1.949,2.35,3.149c2.634,2.067,6.917,6.067,12.851,12
				c1.133,1.101,2.966,4.2,5.5,9.3c1.966,3.934,4.133,6.15,6.5,6.65c2.3,0.5,4.133,1.467,5.5,2.9c1.066,1.166,1.883,1.683,2.45,1.55
				c0.967-0.2,1.717-0.101,2.25,0.3c0.366,0.233,1.1,0.867,2.199,1.9c0.601,0.467,1.167,1.1,1.7,1.899
				c0.533,0.733,1.45,1.583,2.75,2.55c1.233,0.9,2.467,1.867,3.7,2.9c0.934,0.733,1.617,1.25,2.05,1.55
				c0.267,0.167,1.184,0.583,2.75,1.25c1.533,0.667,2.983,1.434,4.351,2.3c1,0.634,1.699,1.15,2.1,1.551
				c0.467,0.433,1.833,1.383,4.1,2.85c2.667,1.7,4.667,2.833,6,3.4c0.801,0.333,1.917,0.683,3.351,1.05l2.649,0.899
				c-1.267,0.067-2.916,0.033-4.949-0.1c-4.067-0.3-8.033-1.017-11.9-2.15c-2-0.566-4.783-1.017-8.35-1.35
				c-1.667-0.167-3.768-1.184-6.301-3.05c-3.1-2.267-6.75-4.533-10.949-6.8c-3.867-2.033-6.434-3.167-7.7-3.4
				c-0.9-0.2-1.833-0.55-2.8-1.05l-1.2-0.75c-1.767-1.167-2.8-2.2-3.101-3.101c-0.066-0.166-1.149-1.5-3.25-4
				c-2.166-2.5-3.6-4.717-4.3-6.649c-0.933-3.101-1.6-5.217-2-6.351c-0.6-1.899-1.267-3.033-2-3.399
				c-0.733-0.367-1.917-1.3-3.55-2.8l-2.2-2.101l-6.65-2.649c-1.067-0.434-2.1-1.217-3.1-2.351c-0.967-1.066-1.566-2.05-1.8-2.95
				c-0.367-1.699-1.15-3.482-2.35-5.35c-1.867-2.9-4.333-5.117-7.4-6.65c-3.633-1.633-5.833-2.633-6.6-3
				c-0.966-0.467-1.716-1.25-2.25-2.35c-0.833-2-1.5-3.566-2-4.7c-0.966-2.1-2.083-3.783-3.35-5.05
				c-0.667-0.667-3.033-2.316-7.1-4.95c-3.3-2.133-5.217-3.883-5.75-5.25c-0.601-2.133-1.05-3.649-1.351-4.55
				c-0.5-1.467-1.383-2.75-2.649-3.85c-1.034-0.9-2-1.917-2.9-3.051c-0.566-0.767-1.083-1.232-1.55-1.399
				c-0.9-0.3-1.717-0.434-2.45-0.4c-0.933,0.067-1.3,0.5-1.1,1.3c0.2,0.733,0.517,1.551,0.95,2.45c0.267,0.5,0.7,1.3,1.3,2.4
				l1.75,3.55c-2,0-3.867-0.867-5.601-2.6c-1.366-1.367-2.45-3.018-3.25-4.95l-4-9.75V204.1c0-1.1-0.216-2.767-0.649-5l-0.7-3
				l-4.4-3.1l-0.45,8c-3.033,0.633-6.067,0.95-9.1,0.95c-2.033-7-3.583-13.684-4.65-20.05c-2.067-12.867-3.583-22.133-4.55-27.8
				c-1.666-9.767-3.416-17.95-5.25-24.55c-1.733-6.333-2.716-20.066-2.95-41.2c-0.033-2.8,0.067-20.083,0.3-51.85
				c-0.167-9.2-0.217-18.05-0.15-26.55L47.95,0H86.3l-6.85,0.9c-2,0.233-3.784,0.583-5.351,1.05C72.533,2.45,72.4,2.7,73.7,2.7H87.9
				z"/>
		</g>
		<path style="fill-rule:evenodd;clip-rule:evenodd;fill:#3A1E0B;" d="M143.9,179.05l3.9-13.1l-0.05,1.7
			c-0.066,1.267-0.2,2.184-0.4,2.75c-0.133,0.434-0.2,1.617-0.2,3.55c0,2.2-0.083,3.816-0.25,4.85c-0.2,1.367-0.2,2.617,0,3.75
			c0.167,0.9,0.617,3.05,1.35,6.45c0.867,4.434,2.934,12.717,6.2,24.85l1.3,7.101c0.167,0.767,0.367,2.3,0.6,4.6
			c0.367,2.267,0.917,4.134,1.65,5.601c0.667,1.333,2.633,3.566,5.9,6.699c3.4,3.233,5.267,5.15,5.6,5.75
			c0.434,0.7,3.633,3.967,9.6,9.801c6.301,6.133,10.051,9.967,11.25,11.5c1.5,1.866,5.051,4.649,10.65,8.35
			c1.566,1.033,5.117,3.267,10.65,6.7c2.366,1.5,5.033,3.583,8,6.25c0.967,0.7,2.133,1.283,3.5,1.75
			c1.467,0.5,2.516,0.649,3.149,0.45c0.533-0.167,1.2,0.449,2,1.85c1.3,2.233,1.967,3.383,2,3.45c0.9,1.2,2.233,2.683,4,4.45
			c-1.467,0-3.25-0.584-5.35-1.75c-1.134-0.667-1.75-0.768-1.851-0.301c-0.166,0.601-0.583,0.834-1.25,0.7
			c-0.833-0.133-1.684-0.733-2.55-1.8c-1.366-1.667-2.433-2.833-3.2-3.5c-1.033-0.9-2.767-1.917-5.199-3.05
			c-2.301-1.067-3.817-1.967-4.551-2.7c-0.732-0.733-1.184-1.083-1.35-1.05c-0.434,0.1-1.316-0.15-2.65-0.75
			c-3.533-1.333-6.517-2.483-8.949-3.45c-4.5-1.8-8.033-3.6-10.601-5.4c-2.5-1.8-3.85-2.933-4.05-3.399
			c0.2-0.233,0.083-0.583-0.35-1.05c-0.301-0.301-1.217-0.934-2.75-1.9c-1.334-0.833-2.351-1.684-3.051-2.55
			c-0.767-0.934-1.232-1.717-1.399-2.351c-0.233-1.066-0.5-2.199-0.8-3.399c-0.367-1.4-1.684-3.134-3.95-5.2
			c-3.667-3.367-5.75-5.333-6.25-5.9c-1.733-1.933-3.417-3.533-5.05-4.8c-2.233-1.667-4.25-3.167-6.05-4.5
			c-2.333-1.767-3.816-3.066-4.45-3.899c-0.567-1.101-1.15-2.167-1.75-3.2c-0.533-0.9-1.25-1.867-2.15-2.9
			c-0.733-0.833-1.35-1.8-1.85-2.899c-0.6-1.367-1-3.25-1.2-5.65c-0.101-1.4-0.15-3.5-0.15-6.3c0-0.833,0.15-2.684,0.45-5.55
			c0.267-2.2,0.267-4.051,0-5.551C140.9,197.434,141.533,189.083,143.9,179.05z"/>
		<path style="fill-rule:evenodd;clip-rule:evenodd;fill:#3A1E0B;" d="M172.65,206.3c-0.367-2.033-0.268-5.733,0.3-11.1l1-7.5
			l0.05,4.95c0.066,1.833,0.2,3.583,0.4,5.25c0.166,1.5,0.982,3.199,2.449,5.1c1.533,1.967,2.351,3.217,2.45,3.75
			c0.2,1,0.45,1.816,0.75,2.45c0.101,0.2,0.583,1.017,1.45,2.45c0.467,0.732,1.983,3.517,4.55,8.35c2.567,4.667,4.3,7.35,5.2,8.05
			c0.9,0.733,1.45,1.767,1.65,3.101c0.399,2.933,0.6,4.416,0.6,4.449c0.333,1.334,0.816,2.184,1.45,2.551
			c1.133,0.6,1.966,1.232,2.5,1.899c0.8,0.934,2.167,2.134,4.1,3.601c1.733,1.333,2.733,2.199,3,2.6c0.333,0.5,1.267,1.583,2.8,3.25
			c1.768,1.934,2.917,3.217,3.45,3.85c0.601,0.768,1.25,1.417,1.95,1.95c0.633,0.5,1.166,1.033,1.6,1.601
			c0.467,0.6,0.834,1.449,1.101,2.55c0.3,1.3,0.667,2.366,1.1,3.2c0.134,0.267,0.616,1.399,1.45,3.399
			c0.533,1.233,1.233,2.467,2.1,3.7c0.9,1.267,4.967,4.5,12.2,9.7c3.533,2.566,6.717,4.816,9.55,6.75
			c-0.467-0.3-1.666-0.667-3.6-1.101c-2.066-0.467-3.383-0.85-3.95-1.149c-0.899-0.367-1.55-0.667-1.95-0.9
			c-0.666-0.333-1.649-1.066-2.949-2.2c-1.033-0.866-2.101-1.55-3.2-2.05c-1.267-0.566-2.567-1.366-3.9-2.399s-2.033-1.5-2.1-1.4
			c-0.2,0.367-1.117,0.25-2.75-0.35c-1.9-0.7-2.983-1.301-3.25-1.801c-0.434-0.866-0.833-1.449-1.2-1.75
			c-2.066-1.467-3.983-2.949-5.75-4.449c-0.967-0.801-1.733-2.051-2.3-3.75c-0.867-2.667-1.733-4.817-2.601-6.45
			c-1.199-2.2-1.899-3.317-2.1-3.351c-1.1,0-2.033-0.217-2.8-0.649c-1.9-1.067-3.2-2.05-3.9-2.95c-0.6-0.733-1.366-2.267-2.3-4.6
			c-0.633-1.567-1.233-2.75-1.8-3.551c-0.8-1.033-1.534-2.217-2.2-3.55c-0.767-1.533-2.7-3.899-5.8-7.1
			c-2.967-3-4.583-4.917-4.851-5.75c-0.366-1.134-0.899-2.2-1.6-3.2c-0.834-1.1-1.483-1.95-1.95-2.55
			c-0.433-0.601-0.533-2.267-0.3-5C173.017,210.833,172.983,208.2,172.65,206.3z"/>
		<path style="fill-rule:evenodd;clip-rule:evenodd;fill:#3A1E0B;" d="M190.35,184.6c-1.833-2.4-2.232-6.233-1.199-11.5l2.1-7.15
			v7.1c0,0.767,0.283,1.767,0.85,3c0.334,0.733,0.934,1.95,1.801,3.65c0.566,1.1,2.217,2.533,4.949,4.3
			c1.367,0.9,2.684,1.684,3.95,2.35l2.4,2.35c1.7,1.899,2.816,3.783,3.35,5.649c0.567,1.867,2,3.301,4.3,4.301
			c1.134,0.533,2.217,0.866,3.25,1l4.9,4l3.55-0.9l0.851,1.35c0.3,0.467,0.866,1.634,1.699,3.5c0.834,1.733,1.601,2.783,2.301,3.15
			c0.566,0.3,0.717,1.25,0.449,2.85c-0.3,2.033-0.149,3.75,0.45,5.15c0.7,1.533,1.2,3.033,1.5,4.5c0.533,2.367,0.917,3.967,1.15,4.8
			c0.566,1.833,1.85,3.4,3.85,4.7c1.067,0.7,2.45,1.5,4.15,2.4c0.7,0.5,1.283,1.732,1.75,3.699c0.6,2.567,1.05,4.15,1.35,4.75
			c0.967,1.9,2.15,5,3.55,9.301c0.9,2.666,3.417,6.816,7.551,12.449l-3.101-2.25l-4.899-4.85c-1.067-1.066-2.15-2-3.25-2.8
			c-1.834-1.3-2.817-2-2.95-2.101l-4.9-4c-1.1-0.866-1.85-1.482-2.25-1.85c-0.399-0.367-1.267-1.233-2.6-2.6
			c-1.3-1.301-2.034-2.067-2.2-2.301c-0.167-0.199-0.467-0.767-0.9-1.699c-0.399-0.768-0.684-1.733-0.85-2.9
			c-0.167-1.733-0.334-3.267-0.5-4.6c-0.2-1.667-1.517-2.834-3.95-3.5l-3.6-0.5c-2.667-2.967-4.284-5.033-4.851-6.2
			c-1.5-3.033-2.399-5.117-2.699-6.25c-0.134-0.533-0.184-1.7-0.15-3.5c0-1.9-0.084-3.384-0.25-4.45c-0.2-1.133-1.3-2.733-3.3-4.8
			c-2.233-2.134-3.65-3.5-4.25-4.101c-0.601-0.566-0.95-0.883-1.05-0.949c-0.334-0.101-1.018-0.518-2.051-1.25
			c-1.033-0.733-1.467-1.101-1.3-1.101c0.567,0,0.7-0.383,0.4-1.149c-0.434-1.101-0.784-1.834-1.05-2.2
			c-0.268-0.367-0.95-1.101-2.051-2.2c-1.033-0.9-1.8-1.566-2.3-2C193.467,188.483,192.15,186.934,190.35,184.6z"/>
		<path style="fill-rule:evenodd;clip-rule:evenodd;fill:#3A1E0B;" d="M251.15,230.7c0.366-1.467,0.699-3.983,1-7.55l0.35-4.851
			l0.9,2.45c0.566,1.934,0.85,3.633,0.85,5.1c0,1.367,0.15,2.601,0.45,3.7c0.3,1.134,0.45,1.817,0.45,2.05
			c0,1.301,1.766,3.233,5.3,5.801c2.1,1.467,4.033,2.933,5.8,4.399l1.2,1.2c1.167,0.967,2.683,1.9,4.55,2.8
			c1.7,0.833,2.883,1.867,3.55,3.101c0.866,1.566,1.616,2.6,2.25,3.1c1.767,1.5,5.3,4.167,10.601,8c-2.067,0-4.283-0.15-6.65-0.45
			c-1.434-0.167-2.417-0.517-2.95-1.05c-0.533-0.767-1.167-1.45-1.899-2.05c-0.834-0.634-1.817-1.3-2.95-2
			c-1.467-0.867-2.55-1.533-3.25-2c-1.067-0.7-1.667-1.267-1.8-1.7c-0.234-0.867-0.384-1.333-0.45-1.4
			c-0.367-0.566-1.15-1.083-2.351-1.55c-1.666-0.566-3.1-1.083-4.3-1.55c-1.833-0.7-3.25-1.45-4.25-2.25
			c-1.1-0.9-2.2-2.217-3.3-3.95c-1.267-2.033-2.133-3.7-2.6-5C251.017,233.383,250.85,231.934,251.15,230.7z"/>
		<g>
			<path style="fill-rule:evenodd;clip-rule:evenodd;fill:#3A1E0B;" d="M216.55,0v10.15c0.233,10.267,1.017,20.233,2.351,29.9
				c1.899,14.034,4.8,26.384,8.699,37.05c0.4,9.167,0.417,14.667,0.051,16.5c-0.467,2.167-0.551,4-0.25,5.5
				c0.166,1,0.467,1.75,0.899,2.25l-5.1-5.5v3.55c0,1.067,0.167,2.5,0.5,4.3c0.399,2.133,0.683,4.55,0.85,7.25
				c0.2,3.133,1.8,8.95,4.8,17.45c1.533,4.233,3.033,8.167,4.5,11.8l-3.1-3.1c-0.934-0.934-1.717-1.95-2.35-3.05
				c-0.567-1.2-1.051-2.116-1.45-2.75c-0.333-0.667-0.851-1.4-1.55-2.2c-1.033-1.233-2.817-2.784-5.351-4.65
				c-2.8-2.067-4.267-3.167-4.399-3.3c-1.533-1.6-3.15-4.117-4.851-7.55c-0.899-1.767-1.183-0.934-0.85,2.5
				c0.566,5.867,0.85,9.017,0.85,9.45c0,2.977,0.408,5.019,1.226,6.125c-2.057-2.623-4.099-4.948-6.125-6.975
				c-0.967-0.967-1.7-2.417-2.2-4.35c-0.267-0.934-0.567-2.6-0.9-5c-0.2-1.3-0.25-2.717-0.149-4.25l0.149-1.95
				c-2.066,1.467-3.7,2.35-4.899,2.65c-0.7,0.167-1.4,0.934-2.101,2.3c-0.866,1.633-1.35,2.5-1.45,2.6
				c-0.434,0.466-0.333-0.567,0.301-3.1c0.633-2.534,1.283-4.467,1.949-5.8c0.367-0.767,1.066-1.783,2.101-3.05
				c0.8-1,1.283-1.9,1.45-2.7c0.166-0.733,0.467-2.866,0.899-6.4c0.434-3.566,0.717-5.716,0.851-6.45c0.6-3,0.899-5.817,0.899-8.45
				c0-2.7-0.45-5.8-1.35-9.3c-0.2-0.733-0.601-1.2-1.2-1.4c-0.8-0.1-1.434-0.233-1.9-0.4c-0.533-0.2-2.166-0.983-4.899-2.35
				l-3.95-2.05h3.1c2.066,0,4.733-0.6,8-1.8L197.9,60.8c-1.101-1.1-3.5-2.25-7.2-3.45l-5.2-1.45l1.5-0.2
				c1.233-0.167,2.5-0.25,3.8-0.25c2.067,0,5.033,0.45,8.9,1.35c-1.2-1.2-3.134-2.833-5.8-4.9c-1.634-1.3-4.417-1.983-8.351-2.05
				l-5.399,0.3l5.199-2.35c3.768-1.633,6.483-2.633,8.15-3c2.633-0.566,4.85-1,6.65-1.3l-2.7-2.65
				c-1.101-1.133-2.317-2.067-3.65-2.8l-1.649-0.75h9.3c-0.5-0.667-1.2-1.4-2.101-2.2c-1.767-1.633-3.583-2.833-5.449-3.6
				c-1.834-0.733-4.884-1.4-9.15-2l-5.9-0.65l4.851-2.2c2.033-0.933,5.167-1.133,9.399-0.6c2.101,0.267,4,0.617,5.7,1.05l-3.55-2.7
				c-1.467-1.1-4.717-2.017-9.75-2.75l-7.1-0.8l1.6-0.2c1.4-0.167,2.934-0.25,4.6-0.25c2.667,0,7.101,0.45,13.301,1.35l-3.551-3.55
				c-1.467-1.467-4.866-3.1-10.199-4.9l-7.551-2.2h4c2.667,0,8.584,1.183,17.75,3.55c-0.434-0.433-1.283-1-2.55-1.7
				c-2.5-1.4-5.783-2.75-9.85-4.05c-4.067-1.3-7.95-2.133-11.65-2.5l-4.35-0.2l6.2-1.25c4.433-0.9,7.383-1.567,8.85-2
				c1.233-0.367,2.6-0.25,4.1,0.35c1.867,0.767,3.467,1.15,4.801,1.15c2.967,0,5.633-0.15,8-0.45l-4.851-3.1
				c-0.5-0.3-1.149-0.6-1.95-0.9H216.55z"/>
		</g>
		<path style="fill-rule:evenodd;clip-rule:evenodd;fill:#351C0A;" d="M92.65,158.2l0.8,7.7c0.5,5.367,0.683,8.667,0.55,9.9
			c-0.133,1.267-0.633,2.483-1.5,3.65l-1.2,1.35l-9.6-2.65c-4-7.767-6.233-12.767-6.7-15c-0.267-1.367,0.383-5.383,1.95-12.05
			l2.399-9.55l8,5.65c1.867,1.333,2.917,2.35,3.15,3.05c0.167,0.5,0.55,1.7,1.15,3.6c0.833,1.667,1.25,2.716,1.25,3.15
			C92.9,157.3,92.816,157.7,92.65,158.2z"/>
		<path style="fill-rule:evenodd;clip-rule:evenodd;fill:#351C0A;" d="M91.65,181.15l-1.1,0.3l-0.2,1.9
			c-0.3,1.233-0.866,1.716-1.7,1.45c-0.9-0.3-1.417-0.966-1.55-2c-0.066-0.633,0.017-1.633,0.25-3c0.134-0.933,0.684-1.2,1.65-0.8
			C89.867,179.333,90.75,180.05,91.65,181.15z"/>
		<path style="fill-rule:evenodd;clip-rule:evenodd;fill:#351C0A;" d="M112.3,160.85c-0.967,0-1.933-0.05-2.9-0.15l-1.1-0.2
			c-0.5-0.066-1-0.2-1.5-0.4c-1-0.367-1.5-0.9-1.5-1.6c0-0.767,0.4-1.233,1.2-1.4c0.633-0.167,1.783-0.133,3.45,0.1
			c1.1,0.133,2.2,0.783,3.3,1.95c0.566,0.567,1.017,1.133,1.35,1.7H112.3z"/>
		<path style="fill-rule:evenodd;clip-rule:evenodd;fill:#351C0A;" d="M72.05,112.9c-0.167,2.4-0.733,4.317-1.7,5.75
			c-0.966,1.434-2.183,2.083-3.649,1.95c-1.233-0.133-1.767-0.867-1.601-2.2c0.4-1.533,0.601-2.583,0.601-3.15
			c0-0.7,0.45-1.95,1.35-3.75l1.3-2.55l1.95,0.85C71.566,110.633,72.15,111.667,72.05,112.9z"/>
		<path style="fill-rule:evenodd;clip-rule:evenodd;fill:#351C0A;" d="M89.6,102.45c0.867,1.1,1,2.816,0.4,5.15
			c-0.967,3.767-2.367,5.95-4.2,6.55c-0.566,0.167-1.15,0.184-1.75,0.05l-0.7-0.3c-0.666-1.767-1-3.083-1-3.95
			c0-0.567-0.216-1.3-0.649-2.2L81,106.6v-5.65c0-0.833,0.233-2.25,0.7-4.25l0.649-2.75l0.4,1.25c0.566,1.1,1.533,2.35,2.9,3.75
			C86.783,100.05,88.1,101.217,89.6,102.45z"/>
		<path style="fill-rule:evenodd;clip-rule:evenodd;fill:#351C0A;" d="M91,187.15c1.533,0,2.333,0.166,2.4,0.5
			c0.2,1.1,0.5,1.916,0.9,2.449l3.7,8c-0.9,0-1.684-0.333-2.35-1c-0.333-0.333-0.817-0.616-1.45-0.85
			c-0.8-0.333-1.534-0.717-2.2-1.15c-0.8-0.533-1.667-1-2.6-1.399c-0.933-0.367-1.617-0.667-2.05-0.9c-0.566-0.3-1.566-1.383-3-3.25
			l-2-2.75L85.2,187C87.4,187.1,89.333,187.15,91,187.15z"/>
	</g>
	<g>
		<path style="fill-rule:evenodd;clip-rule:evenodd;fill:#311A09;" d="M136.7,20c-1.601,0.267-8.117,1.133-19.55,2.6
			c-7.7,0.966-11.983,1.716-12.85,2.25l-2.2,1.35l4.4-4.9l8.4-2.35c7.034-1.6,14.15-2.583,21.35-2.95
			c7.333-0.367,13.8-0.217,19.4,0.45c3.1,0.366,6.683,0.95,10.75,1.75c3.867,0.6,9.05,1.933,15.55,4
			c-5.7-0.667-11.851-1.25-18.45-1.75C150.267,19.417,141.333,19.267,136.7,20z"/>
		<path style="fill-rule:evenodd;clip-rule:evenodd;fill:#311A09;" d="M141.7,33.6c-6.534-0.867-12.2-1.117-17-0.75
			c-9.634,0.767-15.25,1.35-16.851,1.75L91.45,39.5l11.5-6.65l2.7-1.15c2.5-0.967,5.6-1.917,9.3-2.85
			c2.966-0.733,5.833-1.483,8.6-2.25c1.634-0.367,3.5-0.35,5.6,0.05c0.233,0.034,2.367,0.284,6.4,0.75
			c2.267,0.267,4.267,0.75,6,1.45c1.867,0.733,3.833,1.983,5.9,3.75c1.033,0.9,1.883,1.716,2.55,2.45
			C147.7,34.55,144.934,34.066,141.7,33.6z"/>
		<path style="fill-rule:evenodd;clip-rule:evenodd;fill:#311A09;" d="M173.5,54.6c6.8,1.767,12.283,4.716,16.45,8.85
			c-0.134-0.034-1.017-0.15-2.65-0.35c-1.267-0.133-2.167-0.45-2.7-0.95c-0.566-0.566-1.184-0.9-1.85-1
			c-1.267-0.066-2.566-0.183-3.9-0.35c-2.366-0.133-4.267-0.3-5.699-0.5c-2.533-0.333-5.667-1.05-9.4-2.15
			c-3.7-1.133-9.233-2.133-16.6-3l-10-1l3.65-1.4c3.1-0.934,6.317-1.5,9.65-1.7c3.333-0.2,8.183,0.333,14.55,1.6
			C168.167,53.283,171,53.934,173.5,54.6z"/>
		<path style="fill-rule:evenodd;clip-rule:evenodd;fill:#311A09;" d="M117.25,65.55l-11.15,1.9l5-3c4.134-2.2,8.233-3.867,12.3-5
			c4.067-1.1,9.133-1.434,15.2-1c3.034,0.233,5.65,0.566,7.851,1c4.433,0,9.233,1.033,14.399,3.1c2.601,1.034,4.75,2.067,6.45,3.1
			c-4.733-0.267-13.167-0.7-25.3-1.3C134.434,63.983,126.184,64.383,117.25,65.55z"/>
		<path style="fill-rule:evenodd;clip-rule:evenodd;fill:#311A09;" d="M182.1,80.85c3,1.133,5.316,2.283,6.95,3.45
			c4.652,2.465,7.978,4.215,9.976,5.25c-2.222-0.794-6.181-1.511-11.875-2.15c-10-1.133-16.768-2.017-20.301-2.65
			c-6.1-1.1-13.183-1.583-21.25-1.45l-10.25,0.55l7.601-2.55c6.433-1.767,13.066-2.833,19.899-3.2
			C169.717,77.733,176.133,78.65,182.1,80.85z"/>
		<path style="fill-rule:evenodd;clip-rule:evenodd;fill:#311A09;" d="M139.35,90.95c6.2,2.966,8.867,4.45,8,4.45H129.6
			c-4.433,0-10.267,0.883-17.5,2.65l-9.55,2.65l1.8-1.3c1.7-1.2,3.75-2.533,6.15-4c2.434-1.466,7.967-2.65,16.6-3.55
			C131.434,91.417,135.517,91.117,139.35,90.95z"/>
	</g>
	<g>
		<g>
			<path style="fill-rule:evenodd;clip-rule:evenodd;fill:#301A06;" d="M280.6,160.3c0.233,0.833,0.283,1.367,0.15,1.6l-0.3,0.05
				C280.45,161.483,280.5,160.934,280.6,160.3z"/>
			<path style="fill-rule:evenodd;clip-rule:evenodd;fill:#301A06;" d="M215.5,35.5c0.867-7.967,1.367-12.7,1.5-14.2v-0.25
				c1,15.7,3.15,29.934,6.45,42.7c4.6,17.733,11.167,31.383,19.7,40.95c11.199,12.533,26.1,22.216,44.699,29.05
				c9.301,3.4,17.483,5.55,24.551,6.45l29.25,0.9v11c-1.067,0.633-2.768,1.1-5.101,1.4c-1.933,0.3-3.733,0.5-5.399,0.6l-1.9,0.1
				c-0.233-0.333-0.566-0.617-1-0.85c-0.9-0.434-1.9-0.383-3,0.15c-0.867,0.467-1.383,0.45-1.55-0.05
				c-0.067-0.167-0.434,0.3-1.101,1.4c-0.8,1.333-1.3,2.966-1.5,4.9c-0.3,2.833-0.467,4.3-0.5,4.4c-0.5,2-0.783,3.2-0.85,3.6
				c-0.2,1.333-0.15,3.017,0.15,5.05c0.1,0.733,0.416,2.05,0.949,3.95c0.268,1,0.4,2.8,0.4,5.4c0,2.233,0.166,5.317,0.5,9.25
				c0,2.866-0.834,4.433-2.5,4.699c-1.967,0.334-3.233,0.084-3.8-0.75c-0.567-0.732-0.851-2.482-0.851-5.25v-14.6
				c-0.566,1.434-1.232,2.467-2,3.1c-1.566,1.2-2.899-0.284-4-4.45c-1.133-4.333-2.467-7.433-4-9.3c-0.434-0.6-1.767-1.717-4-3.35
				c-0.767-0.566-1.732-1.7-2.899-3.4c-0.867-1.267-1.667-1.9-2.4-1.9h-2c-3.833-0.3-6.35-0.45-7.55-0.45
				c-2.2,0-3.684,0.733-4.45,2.2c-0.267,0.633-0.5,1.417-0.7,2.35l-0.149-0.55c-0.233-0.7-0.483-2.7-0.75-6
				c-0.2-2.767-0.55-4.316-1.05-4.65c-0.234-0.167-0.567-0.8-1-1.9c-0.467-1.233-1.467-2.534-3-3.9
				c-1.234-1.1-1.934-2.267-2.101-3.5c-0.134-1-1.05-2.05-2.75-3.15c-1.634-1.033-2.733-1.883-3.3-2.55
				c-0.167-0.2-0.7-0.383-1.6-0.55c-1.101-0.2-2.467,0.417-4.101,1.85l-2.1,2.15c-1.467,1.167-2.65,2.35-3.55,3.55
				c-0.033,0.066-0.4,2.633-1.101,7.7c-0.399,2.767-1.217,1.233-2.45-4.6c-0.732-3.3-1.184-5.267-1.35-5.9V138
				c0.367-2.367,0.583-4,0.65-4.9c0.066-1.434-0.734-2.617-2.4-3.55l-4-2.2c-2.066,0-3.55-0.3-4.45-0.9
				c-1.066-0.733-2.116-1.717-3.149-2.95c-1.434-1.733-2.15-3.267-2.15-4.6c0-1.3-0.367-3.9-1.1-7.8l-1.15-5.5
				c-0.667-0.233-1.316-0.567-1.95-1c-1.333-0.9-2-1.9-2-3c0-0.967-0.149-2.1-0.45-3.4c-0.3-1.333-0.449-2.267-0.449-2.8
				c0-0.6,0.05-0.617,0.149-0.05c0.067,0.167,0.017-0.417-0.149-1.75c-0.301-2.767-0.917-6.25-1.851-10.45
				c-1.134-5.367-2.3-9.417-3.5-12.15c-0.866-2.066-1.533-3.434-2-4.1c-0.134-0.2-0.35-0.9-0.649-2.1
				c-1.234-4.9-2.268-8.3-3.101-10.2c-0.333-0.767-0.866-1.65-1.6-2.65c-0.4-0.534-0.601-1.284-0.601-2.25
				C214.35,47.833,214.733,43.1,215.5,35.5z"/>
			<path style="fill-rule:evenodd;clip-rule:evenodd;fill:#301A06;" d="M250.25,138.3c-0.033,1.167-0.167,0.934-0.4-0.7
				C249.583,135.967,249.717,136.2,250.25,138.3z"/>
		</g>
		<path style="fill-rule:evenodd;clip-rule:evenodd;fill:#301A06;" d="M321.25,182.15c0.166-0.733,0.166-2.483,0-5.25
			c-0.133-2-0.133-2.7,0-2.1c0.5,2.534,1.383,5.934,2.65,10.2c0.467,1.533,1.266,3.85,2.399,6.95c1.067,2.967,1.75,4.95,2.05,5.95
			c0.334,1.133,0.467,2.316,0.4,3.55c-0.1,1.533-0.084,2.717,0.05,3.55c0.167,1.233,0.217,2.117,0.15,2.65L328.8,209
			c0,0.467-0.167,1.233-0.5,2.3c-0.433,1.4-0.717,2.4-0.85,3c-0.167,0.833-0.55,1.967-1.15,3.4c-0.8,1.833-1.3,3.066-1.5,3.7
			c-0.366,1.1-0.55,2.433-0.55,4c0,0.899,0.033,2.232,0.1,4c0,0.899,0.15,1.933,0.45,3.1c0.3,1.2,0.45,2.233,0.45,3.1
			c0,0.634,0.083,1.801,0.25,3.5c0.133,1.7,0.2,3.634,0.2,5.801c0,2.666,0.017,4.232,0.05,4.699c0,0.033,0.133,0.684,0.4,1.95
			c0.166,0.767,0.25,2.483,0.25,5.15s0.066,4.366,0.199,5.1c0.268,1.467,0.551,2.783,0.851,3.95c-2.067-0.267-3.833-0.4-5.3-0.4
			c-1.5,0-3.134-0.149-4.9-0.449c-1.1-0.2-2.617-0.4-4.55-0.601l-2.55-0.3l3.1-2.65l1.35-1.8c0.533-0.7,0.783-1.3,0.75-1.8
			c-0.199-0.7-0.3-1.434-0.3-2.2c0-1.033,0.15-1.816,0.45-2.35c0.233-0.4,0.816-1.083,1.75-2.05c0.767-0.733,1.15-1.567,1.15-2.5
			c-0.167-1.167-0.25-2.117-0.25-2.851c0-1.167,0.016-1.933,0.05-2.3c0.066-0.5,0.2-1.066,0.399-1.7c0.301-0.8,0.5-1.383,0.601-1.75
			c0.2-0.633,0.3-1.233,0.3-1.8c0-0.434-0.066-1.1-0.2-2c-0.167-0.867-0.25-1.533-0.25-2c0-0.533-0.217-1.283-0.649-2.25l-0.7-1.3
			c-0.3-2.367-0.45-3.983-0.45-4.851c0-0.866,0.75-2.8,2.25-5.8c0.3-0.633,0.467-1.649,0.5-3.05c0.066-1.434,0.184-2.333,0.35-2.7
			c2.033-4.066,2.851-7.483,2.45-10.25c-0.866-2.467-1.384-4.217-1.55-5.25c-0.167-1.233-0.217-2.267-0.15-3.1
			c0.101-1.434,0.15-2.333,0.15-2.7c0-1.033-0.1-1.733-0.3-2.1c-0.333-0.634-0.534-1.117-0.601-1.45
			C320.083,188.417,320.383,185.983,321.25,182.15z"/>
		<path style="fill-rule:evenodd;clip-rule:evenodd;fill:#301A06;" d="M331.9,222.75c0.6,1.167,0.6,5,0,11.5
			c-1.467-2.066-2.2-3.684-2.2-4.85c0-2.768,0.066-4.7,0.2-5.801C330.233,221,330.9,220.717,331.9,222.75z"/>
		<path style="fill-rule:evenodd;clip-rule:evenodd;fill:#301A06;" d="M169.75,277.55c0.4,1.7,0.916,2.8,1.55,3.3
			c0.934,0.768,2.25,1.301,3.95,1.601c0.833,0.133,1.583,0.2,2.25,0.2l4.45,0.399l1.75,2.7c0.767,1.1,1,2.017,0.7,2.75
			c-0.167,0.4-0.4,0.667-0.7,0.8l1.35,2.2c0.467,0.733,0.733,1.1,0.8,1.1c0.2,0,0.667,0.367,1.4,1.101
			c0.767,0.767,1.117,1.05,1.05,0.85c-0.1-0.566,0.15-0.85,0.75-0.85c0.567,0,1.15-0.067,1.75-0.2c0.601-0.167,1.2-0.25,1.8-0.25
			c2.367,0,4.283-0.133,5.75-0.4c1.5-0.3,2.384-0.3,2.65,0l1,0.9c0.767,0.733,1.333,1.467,1.7,2.2
			c0.433,0.866,0.783,1.383,1.05,1.55c0.233,0.133,0.916,0.2,2.05,0.2h4.851c1.232,0,2.35-0.083,3.35-0.25
			c1.8-0.333,2.9-0.533,3.3-0.601c1.667-0.232,2.634-0.366,2.9-0.399c0.466-0.033,1.433-0.05,2.899-0.05
			c2.066,0,5.467,0.583,10.2,1.75c-1.767,0-3.683,0.149-5.75,0.449l-4,0.45c-1.2,0.134-2.35,0.333-3.45,0.601
			c-0.732,0.199-1.666,0.3-2.8,0.3s-1.933,0.083-2.399,0.25c-0.768,0.267-1.584,0.467-2.45,0.6c-1.034,0.167-1.601,0.217-1.7,0.15
			c-0.334-0.101-1.25-0.15-2.75-0.15c-1.767,0-2.767-0.033-3-0.1c-1.434-0.467-2.2-0.717-2.3-0.75
			c-1.267-0.333-2.217-0.634-2.851-0.9c-0.732-0.333-1.566-0.633-2.5-0.899c-1.166-0.334-2.066-0.45-2.699-0.351
			c-1.2,0.233-2.217,0.351-3.051,0.351h-4l-2.649-0.9c-0.867-0.267-1.267-0.434-1.2-0.5c0.2-0.1,0-0.367-0.6-0.8
			c-0.734-0.567-1.4-1-2-1.3c-0.734-0.334-1.4-0.65-2-0.95c-0.934-0.434-1.584-0.733-1.95-0.9c-0.601-0.3-1.267-0.733-2-1.3
			c-0.767-0.566-1.534-0.883-2.3-0.95c-1,0.033-1.867,0.05-2.601,0.05c-0.899,0-1.533-0.316-1.9-0.949
			c-0.367-0.967-0.767-1.834-1.2-2.601c-0.5-0.833-1.317-1.533-2.45-2.1c-1.333-0.667-2.15-1.15-2.45-1.45
			c-0.533-0.533-1.283-1.883-2.25-4.05l-1.3-3.05c-0.167-1.233-1.05-2.283-2.65-3.15c-1.933-0.833-3.267-1.55-4-2.15
			c-0.899-0.732-1.533-1.1-1.899-1.1l-0.3,0.2c-2.067-2.067-3.55-3.25-4.45-3.55c-0.567-0.2-1.101-0.917-1.601-2.15l-0.6-1.85
			l0.85-3.101c-0.566-1.467-1.3-2.649-2.2-3.55c-0.1-0.1-0.6-0.7-1.5-1.8c-0.6-0.767-1.433-1.5-2.5-2.2
			c-0.767-0.5-1.65-1.283-2.65-2.35c-1.066-1.134-2.4-2.268-4-3.4c-1.7-1.2-2.55-2.017-2.55-2.45c0-0.467-0.184-0.833-0.55-1.1
			c-0.733-0.567-1.466-1.333-2.2-2.3l-0.9-1.25c-1.5-2.067-2.683-3.851-3.55-5.351c-0.6-0.967-1.45-3.017-2.55-6.149
			c-0.967-2.667-1.601-4.601-1.9-5.801c-0.433-1.732-0.683-2.833-0.75-3.3c-0.2-1.633-0.1-3.5,0.3-5.6l5.8-27.05V201l-0.45,4
			c-0.601,3.833-1.2,6.483-1.8,7.95c-0.333,0.933-0.417,1.75-0.25,2.45c0.1,0.467,0.333,1.283,0.7,2.449
			c0.5,2.4,1.101,4.467,1.8,6.2c0.567,1.5,2.183,5.351,4.85,11.55c0.367,0.867,2.7,2.384,7,4.551c4.9,2.467,7.45,3.767,7.65,3.899
			c0.733,0.567,1.5,1.384,2.3,2.45c0.033,0,0.6,0.8,1.7,2.4c1.8,2.666,4.167,5.033,7.1,7.1c1.8,1.267,3.184,2.316,4.15,3.15
			c0.567,0.5,1.4,1.232,2.5,2.199c0.733,0.567,1.55,1.817,2.45,3.75c1.134,2.467,2.384,4.617,3.75,6.45
			C168.316,273.483,169.283,275.483,169.75,277.55z"/>
		<path style="fill-rule:evenodd;clip-rule:evenodd;fill:#301A06;" d="M189.95,259.55c1.466,0.601,2.5,0.9,3.1,0.9l0.05,1.05
			c0.066,0.8,0.2,1.483,0.4,2.05c0.2,0.7,0.717,1.634,1.55,2.8c0.833,1.2,1.783,2.334,2.851,3.4c1.333,1.333,2.75,2.417,4.25,3.25
			c2.066,1.167,5.232,2.45,9.5,3.85c3.633,1.2,6.166,2.25,7.6,3.15c1.833,1.133,3.15,1.867,3.95,2.2l2.2,0.85
			c1.5,0.601,7.717,2.083,18.649,4.45c-1.467,0.3-3.083,0.45-4.85,0.45c-0.833,0-2.65,0.083-5.45,0.25c-2.8,0.133-4.834,0.2-6.1,0.2
			h-1.375c-0.563-0.017-1.82-0.384-3.775-1.101l-2.85-1.1l-5.301-1.351c-0.767-0.199-1.449-0.666-2.05-1.399
			c-0.866-1.134-1.667-2.15-2.399-3.05c-0.934-1.134-2.134-2.018-3.601-2.65c-0.033,0-1.35-0.45-3.95-1.35
			c-0.967-0.301-2.166-1.067-3.6-2.301c-1.733-1.5-3.05-2.5-3.95-3c-1.3-0.732-2.35-1.467-3.149-2.199L190.8,268
			c-3.833-1.767-6.2-2.95-7.1-3.55c-0.634-0.434-1.851-1.867-3.65-4.3c-1.767-2.367-2.767-3.9-3-4.601
			c-0.3-0.866-2.517-3.967-6.649-9.3c0-0.467-1.7-2.133-5.101-5c-4.066-3.434-6.65-5.767-7.75-7c-1.467-1.633-2.283-5.233-2.45-10.8
			l0.2-7.8v2.199l0.8,3.5c0.601,2.567,1.084,4.5,1.45,5.801c0.4,1.433,1.184,3.017,2.35,4.75c0.933,1.399,1.917,2.633,2.95,3.699
			c0.7,0.667,1.917,1.518,3.65,2.551c2.633,1.566,4.383,2.633,5.25,3.199c1.767,1.2,4.367,3.834,7.8,7.9
			c3.067,3.633,4.9,6.033,5.5,7.2c0.4,0.767,1.05,1.399,1.95,1.899C187.166,258.417,188.15,258.816,189.95,259.55z"/>
		<path style="fill-rule:evenodd;clip-rule:evenodd;fill:#301A06;" d="M255.15,267.55c-0.367,0.233-1.051,0.467-2.051,0.7
			c-2,0.434-4.566,0.65-7.699,0.65c-3.134,0-5.101-0.117-5.9-0.351c-0.667-0.366-1.517-0.7-2.55-1
			c-2.067-0.6-5.317-0.899-9.75-0.899c-1.134,0-2.184,0.149-3.15,0.449c-0.967,0.301-1.7,0.45-2.2,0.45c-1.1,0-1.866-0.066-2.3-0.2
			c-0.733-0.267-1.283-0.8-1.649-1.6c-3.734-7.267-6.101-11.4-7.101-12.4c-0.733-0.732-3.55-3.033-8.45-6.899l-7.1-5.55
			c-2.133-4.601-3.9-7.7-5.3-9.301c-1.467-1.666-3.317-5.482-5.55-11.449l-0.65-1.875c-0.982-1.423-1.583-2.447-1.8-3.075
			c-0.2-0.567-0.333-1.333-0.4-2.3l-0.05-1.25l2.25,6.625c0.38,0.531,0.813,1.123,1.3,1.774l1.25,2.25
			c1.134,1.634,2.351,2.817,3.65,3.55c1.767,1,2.833,1.667,3.2,2c0.699,0.567,1.55,1.667,2.55,3.301
			c0.933,1.5,3.017,2.55,6.25,3.149c1.733,0.333,3.933,0.617,6.6,0.851c1.101,0.199,2.101,0.033,3-0.5
			c0.434-0.268,0.767-0.551,1-0.851l4.9,3.601c0.866,0.566,2.2,1.149,4,1.75c-0.3,1.767-0.9,3.1-1.8,4
			c-1.367,1.333-2.551,2.366-3.551,3.1c-0.732,0.566-0.517,1.85,0.65,3.85c0.6,1,1.267,1.934,2,2.801l0.15,4.55
			c0.232,1.467,0.633,2.767,1.199,3.899c0.467,0.9,0.7,1.268,0.7,1.101c0-0.434,0.217-0.517,0.65-0.25
			c0.366,0.267,0.95,0.533,1.75,0.8c0.933,0.3,1.966,0.783,3.1,1.45c1.267,0.7,2.467,0.917,3.601,0.649
			c0.633-0.133,1.5-0.35,2.6-0.649c0.5,0,1.883,0.333,4.15,1c2.633,0.767,5.1,1.316,7.399,1.649
			C248.184,267.7,251.883,267.85,255.15,267.55z"/>
		<path style="fill-rule:evenodd;clip-rule:evenodd;fill:#301A06;" d="M252.5,253.35c0.533,1.101,1.583,2.167,3.15,3.2
			c0.766,0.533,1.482,0.95,2.149,1.25l2.7,0.8c2.3,0.667,4.65,1.283,7.05,1.851c3.866,0.899,8.9,2.816,15.101,5.75h-3.101
			c-1.066,0-1.933-0.134-2.6-0.4c-0.667-0.3-1.434-0.45-2.3-0.45c-0.967,0-1.817-0.183-2.551-0.55
			c-1.1-0.566-2.166-0.983-3.199-1.25c-1.268-0.333-2.334-0.55-3.2-0.649c-1.3-0.2-2.601-0.434-3.9-0.7
			c-2.033-0.4-3.35-0.684-3.95-0.851c-0.166-0.066-0.916-0.366-2.25-0.899c-1.033-0.434-3.399-2.601-7.1-6.5
			c-3.6-3.8-5.517-6.067-5.75-6.8c-0.367-0.967-0.65-1.75-0.85-2.351c-0.334-1.066-0.5-2.066-0.5-3c0-0.767-1.367-2.55-4.101-5.35
			c-2.933-3-4.533-4.917-4.8-5.75c-0.367-1.101-1.066-2.9-2.1-5.4l-1.45-3.45l0.45-13.75v2.65l0.25,1.4
			c0.133,1.1,0.199,2.116,0.199,3.05c0,0.833,0.316,1.85,0.95,3.05c0.767,1.434,1.2,2.333,1.3,2.7c0.167,0.7,0.917,1.816,2.25,3.35
			c2.101,2.367,3.417,3.917,3.95,4.65c0.934,1.267,2.067,2.083,3.4,2.45c1.833,0.533,3.5,1.333,5,2.399l1.8,1.351l-1.8,7.1
			c-0.167,0.533,0.583,2.217,2.25,5.05C249.85,248.833,251.033,250.85,252.5,253.35z"/>
		<g>
			<path style="fill-rule:evenodd;clip-rule:evenodd;fill:#301A06;" d="M50.6,129.55c-1.466-5.3-2.383-15.616-2.75-30.95
				c-0.267-10.034-0.3-24.383-0.1-43.05c0.467,6.7,1.267,18.55,2.4,35.55c1.034,13.966,1.784,21.9,2.25,23.8
				c0.6,2.5,1.667,7.417,3.2,14.75c1.434,7,2.284,11.267,2.55,12.8c0.1,0.533,0.517,1.533,1.25,3c0.534,1.066,0.717,2.283,0.55,3.65
				c-0.2,1.466-0.034,3.316,0.5,5.55c0.233,1.1,0.5,2.05,0.8,2.85l2.5,14.55c1.7,10.034,2.65,15.983,2.85,17.851
				c0.067,0.732,0.217,2.6,0.45,5.6c0.134,1.667,0.283,2.767,0.45,3.3c0.633,2.101,1.667,4.017,3.1,5.75
				c0.367,0.467,0.667,0.467,0.9,0c0.167-0.233,0.367-0.649,0.6-1.25c0.434-0.633,1.267,1.4,2.5,6.101
				c2.867,11.066,5.367,19.649,7.5,25.75c2.733,7.699,5.25,11.982,7.55,12.85c0.767,0.3,1,0.333,0.7,0.1
				c0.167,0.033,2.15,1.051,5.95,3.051c3.7,1.933,6.75,4.316,9.15,7.149c3.833,4.567,5.966,7.05,6.399,7.45
				c1.8,1.667,3.084,3.184,3.851,4.55c0.466,0.767,1.55,1.617,3.25,2.55c1.033,0.567,2.533,1.567,4.5,3
				c1.167,0.867,2.767,1.65,4.8,2.351c2.6,0.866,8,4.25,16.2,10.149c8.1,5.834,12.616,9.551,13.55,11.15
				c0.8,1.4,1.55,2.267,2.25,2.6c0.167,0.067,1.483,0.384,3.95,0.95c1.333,0.3,2.116,0.233,2.35-0.2
				c0.067-0.166,0.617,0.2,1.65,1.101c1.033,0.899,2.05,1.816,3.05,2.75c0.8,0.667,2.15,1.366,4.05,2.1
				c1.8,0.733,3.333,1.283,4.601,1.65c0.933,0.233,3.232,0.866,6.899,1.899c1.934,0.567,2.851,0.917,2.75,1.051
				c-0.267,0.267,2.083,1.399,7.05,3.399c3,1.167,5.851,2.434,8.551,3.8c-8.533-2.433-15.384-4.649-20.551-6.649
				c-40.633-14.2-71.983-33.967-94.05-59.3c-2.267-2.567-4.4-5.45-6.4-8.65c-0.966-1.333-1.783-2.583-2.45-3.75
				c-4.833-8.333-9.167-17.95-13-28.85c-3.733-10.667-6.5-21.167-8.3-31.5c-2.067-12.867-3.583-22.133-4.55-27.8
				C54.184,144.333,52.434,136.15,50.6,129.55z"/>
		</g>
		<path style="fill-rule:evenodd;clip-rule:evenodd;fill:#301A06;" d="M175.35,87.1l-2.3,1.65l0.75,1.4
			c0.366,0.934,0.267,1.5-0.3,1.7c-0.434,0.167-1.417,0.066-2.95-0.3c-0.533-0.1,0.017,0.15,1.65,0.75
			c0.7,0.267,2.55,0.85,5.55,1.75c1.6,0.5,3,1.1,4.2,1.8c0.5,0.267,1.55,0.783,3.149,1.55c0.768,0.333,1.483,0.85,2.15,1.55
			l1.8,1.75l-9.3,1.35c-2.233,0-4.383,0.117-6.45,0.35c-4.133,0.434-5.833,1.2-5.1,2.3c0.533,0.833,2.399,2.8,5.6,5.9
			c2.9,2.833,4.434,4.566,4.601,5.2c0.166,0.667,0.982,1.9,2.449,3.7c1.5,1.867,2.316,3,2.45,3.4c0.134,0.467,1.45,3.017,3.95,7.65
			c2.467,5.134,3.8,9.233,4,12.3c0.166,3.033,0.916,5.533,2.25,7.5c0.666,1,1.4,2.05,2.2,3.15c0,0.066,0.35,0.934,1.05,2.6
			c0.467,1.167,0.7,2.383,0.7,3.65c0,2.167,0.25,4.883,0.75,8.15c0.6,4.133,1.399,7.184,2.399,9.15c0.768,1.534,1.65,2.833,2.65,3.9
			c1.1,1.167,1.983,2.366,2.65,3.6c0.666,1.2,1.366,2.717,2.1,4.55c0.166,0.409,0.332,0.775,0.5,1.101
			c-0.277-0.313-0.561-0.629-0.85-0.95c-2.467-2.667-4.533-4.367-6.2-5.1c-2.434-0.833-4.083-1.417-4.95-1.75
			c-1.367-0.533-2.233-1.433-2.6-2.7c-0.268-1-0.817-2.284-1.65-3.85c-0.667-1.267-1-2.2-1-2.8c0-1.866-0.584-3.933-1.75-6.2
			c-0.367-0.733-0.633-1.85-0.8-3.35l-0.101-2c-0.3,0.233-0.6,0.566-0.899,1c-0.601,0.9-0.9,1.9-0.9,3v4.9
			c0,1.467-0.134,2.65-0.399,3.55c-1.2,1.533-2.317,3-3.351,4.4c-2.033,2.767-3.134,5.133-3.3,7.1c-0.133,1.633-0.4,3.149-0.8,4.55
			c-0.101,0.967,0.3,2.267,1.2,3.9c0.766,1.333,1.5,2.533,2.199,3.6c0.334,0.633,0.5,1.5,0.5,2.6c0,0.601-0.166,1.617-0.5,3.051
			c-0.166,0.767,0,1.232,0.5,1.399c0.301,0.101,1.233,1.75,2.801,4.95c1.566,3.167,2.85,4.917,3.85,5.25
			c0.9,0.3,1.166,0.667,0.8,1.1c-0.1,0.167,0.517,0.101,1.851-0.199c1.766-0.4,3.083-0.367,3.949,0.1
			c0.233,0.133,0.983,0.833,2.25,2.1c0.601,0.601,2.283,2,5.051,4.2c2.133,1.934,2.383,2.9,0.75,2.9h-7.101
			c-0.899,0-1.25-0.05-1.05-0.15c0.1-0.033-0.45,0.017-1.65,0.15c-1.767,0.366-2.866,0.566-3.3,0.6c-0.6,0.067-1.267-0.283-2-1.05
			c-1.2-1.167-2.533-2.65-4-4.45c-1.333-1.467-2.233-2.517-2.7-3.149c-0.767-1-1.35-2.167-1.75-3.5
			c-0.267-0.967-0.55-1.717-0.85-2.25c-0.3-0.5-0.6-1.367-0.9-2.601c-0.333-1.333-0.767-2.816-1.3-4.45
			c-0.533-1.633-0.85-2.666-0.95-3.1c-0.1-0.5-0.517-0.917-1.25-1.25c-0.633-0.267-0.949-0.883-0.949-1.85
			c0-0.9,0.05-0.851,0.149,0.149c0.067,0.333,0.017-0.616-0.149-2.85c-0.134-2.2-0.268-3.75-0.4-4.65c-0.033-0.3-0.05-0.967-0.05-2
			c0-1.3-0.434-3.383-1.3-6.25l-1.351-3.95c-1.267-2.067-2.15-3.6-2.65-4.6c-0.9-1.7-1.35-3.566-1.35-5.6
			c0-5.4-0.133-12.55-0.4-21.45c-0.333-12.2-0.783-19.25-1.35-21.15l-1.35-4.4c-0.3-1.267-0.534-2.216-0.7-2.85
			c-0.333-1.066-1.133-2.783-2.4-5.15c-1.5-2.8-3.066-5.25-4.7-7.35c-1.567-2.033-2.817-3.283-3.75-3.75
			c-1.1-0.433-1.883-0.767-2.35-1c-0.833-0.366-1.517-0.917-2.05-1.65c-0.3-0.9-0.55-1.466-0.75-1.7
			c-0.233-0.267-1.467-0.583-3.7-0.95c-3.566-0.6-7.417-0.9-11.55-0.9c-1.467,0-3.767-0.067-6.9-0.2l-4.2-0.25l-0.9,0.05
			c0.233-0.067,2.467-0.384,6.7-0.95c3.399-0.434,5.6-0.533,6.6-0.3c0.6-0.067,4.017-1.3,10.25-3.7c5.033-1.9,9.533-3.083,13.5-3.55
			c1-0.1,1.567-0.233,1.7-0.4c0.133-0.2,0.083-0.8-0.15-1.8c-0.133-2.3-0.25-3.816-0.35-4.55c-0.2-1.134-1.117-1.983-2.75-2.55
			c-2.133-0.9-3.717-1.55-4.75-1.95c-1.8-0.7-4.05-1.233-6.75-1.6c-2.767-0.367-6.783-0.633-12.05-0.8l-7.05-0.1l6.2-1
			c4.733-0.733,8.584-1.284,11.55-1.65c1.3-0.167,3.483-0.7,6.55-1.6c1.933-0.567,4.783-0.767,8.55-0.6
			c2.833,0.133,5.45,0.1,7.85-0.1c1.367-0.133,3.334,0.05,5.9,0.55c4.733,0.867,10.5,2.05,17.3,3.55
			c-2.433-0.067-4.983-0.083-7.649-0.05c-5.334,0.067-8.551,0.367-9.65,0.9c-2.566,0.533-4.333,0.9-5.3,1.1
			c-1.634,0.4-1.2,1.217,1.3,2.45c3.166,1.6,5.25,2.767,6.25,3.5c1.1,0.8,1.967,1.85,2.6,3.15
			C177.166,84.533,176.75,85.767,175.35,87.1z M209.45,191.65c-0.313-0.313-0.629-0.796-0.95-1.45c0.85,0.981,1.617,1.914,2.3,2.8
			L209.45,191.65z"/>
		<path style="fill-rule:evenodd;clip-rule:evenodd;fill:#301A06;" d="M153.5,99.9c-1.867,0.2-3.617,0.034-5.25-0.5
			c-1.467-0.5-2.217,0.117-2.25,1.85c0,2.066-0.3,3.217-0.9,3.45c-1.033,0.433-1.45,3.966-1.25,10.6
			c0.2,6.434,0.767,11.184,1.7,14.25c0.733,2.3,1.65,3.884,2.75,4.75c2,1.5,3.017,2.284,3.05,2.35c0.834,1,1.601,2.15,2.3,3.45
			c0.8,1.433,1.35,2.35,1.65,2.75c0.567,0.733,0.817,2.017,0.75,3.85c-0.033,1.066-0.133,2.9-0.3,5.5c0,1.333-0.05,3.966-0.15,7.9
			c-0.066,3.633-0.017,6.167,0.15,7.6c0.3,2.366,0.6,3.7,0.9,4l0.65,3.45c0.6,2.5,1.267,4.317,2,5.45
			c0.733,1.066,1.033,1.966,0.9,2.7c-0.067,0.4-0.217,0.967-0.45,1.7c0,0.733-0.217,1.55-0.65,2.45c-0.5,1-1.166,1.816-2,2.45
			c-0.767,0.566-1.05,1.416-0.85,2.55c0.133,0.667,0.417,1.733,0.85,3.2l1.351,6.25c0.167,0.833,0.216,2.366,0.149,4.6
			c-0.1,4.1-0.149,6.85-0.149,8.25c0,2.967-0.15,4.367-0.45,4.2l-0.45-1.101l-3.1-4c-1.267-1.633-1.9-2.616-1.9-2.949
			c0.233-0.667,0.267-1.75,0.1-3.25c-0.167-1.801-0.383-3.101-0.65-3.9c-0.3-0.633-0.517-1.25-0.65-1.85
			c-0.533-1.334-0.966-2.45-1.3-3.351c-0.633-1.667-0.95-3.217-0.95-4.649c0-1.101-0.166-2.417-0.5-3.95
			c-0.366-1.833-0.633-3.917-0.8-6.25c-0.3-4.434-0.45-7.833-0.45-10.2c0-1.566,0.017-2.6,0.05-3.1c0.133-1.2,0.267-2.683,0.4-4.45
			c0.134-1.467,0.283-2.65,0.45-3.55c0.133-0.667,0.267-2.3,0.4-4.9c0.2-3,0.15-5.566-0.15-7.7c-0.367-1.8-0.6-2.933-0.7-3.4
			c-0.2-1-1.833-2.083-4.9-3.25c-2.767-1.066-4.833-1.6-6.2-1.6c-0.934,0-1.55,0.634-1.851,1.9c-0.166,0.8-0.433,2.533-0.8,5.2
			c-0.6,2.934-1.05,4.55-1.35,4.85c-0.5-0.733-1.05-1.7-1.65-2.9c-1.2-2.434-1.983-4.867-2.35-7.3c-0.434-2.7-0.684-5.366-0.75-8
			c-0.034-2.333,0.066-4.1,0.3-5.3c0.2-0.9,1.15-1.983,2.85-3.25c0.867-0.633,1.7-1.184,2.5-1.65c-0.066-0.667-0.25-1.417-0.55-2.25
			c-0.6-1.7-1.45-3.017-2.55-3.95c-1.1-0.9-1.316-1.917-0.65-3.05c1.167-1.5,1.967-2.85,2.4-4.05c1.033-2.2,1.783-3.8,2.25-4.8
			c0.767-1.733,1.05-3.233,0.85-4.5c-0.133-1.033-0.366-1.533-0.7-1.5c-1,0.133-2.25-0.25-3.75-1.15
			c-1.833-1.133-5.783-1.85-11.85-2.15l-8.55-0.1l6.05-1.4c4.533-0.934,8-1.5,10.4-1.7c2.133-0.167,4.133-0.15,6,0.05
			c2.399,0.267,4.383,0.4,5.95,0.4c2.433,0,5.967,0.75,10.6,2.25c2.333,0.733,4.417,1.466,6.25,2.2
			C155.15,99.633,154.4,99.8,153.5,99.9z"/>
		<path style="fill-rule:evenodd;clip-rule:evenodd;fill:#301A06;" d="M219.6,145.65l0.051-7.2l0.5,1.65
			c0.366,1.333,0.649,2.55,0.85,3.65c0.3,1.767,1.483,3.983,3.55,6.65l1.55,1.75c1.334,1.7,2.733,3.934,4.2,6.7
			c1.434,2.667,2.116,4.4,2.05,5.2c-0.033,0.534-0.116,1.6-0.25,3.2c0.134,1.467,0.617,2.4,1.45,2.8c1.167,0.534,2,1.233,2.5,2.1
			c0.767,1.3,1.15,3.1,1.15,5.4c0,1.134-0.083,2.15-0.25,3.05c-1.467-0.3-2.5-1.05-3.101-2.25c-0.399-0.767-1.033-1.467-1.899-2.1
			c-0.534-0.367-1.384-0.85-2.55-1.45c-0.367-0.167-1.417-0.75-3.15-1.75c-1.467-0.866-2.633-1.466-3.5-1.8
			c-1.133-0.434-2.184-1.167-3.15-2.2c-1.033-1.066-1.75-2.25-2.149-3.55c-0.333-1-0.767-2.05-1.3-3.15
			c-0.5-1.1-0.817-1.833-0.95-2.2c-0.333-1.033-0.65-2.45-0.95-4.25c-0.434-2.3-0.55-3.833-0.35-4.6
			c0.166-0.566,1.85,0.85,5.05,4.25c2.733,2.9,3.7,3.55,2.899,1.95C220.55,154.934,219.8,150.983,219.6,145.65z"/>
		<path style="fill-rule:evenodd;clip-rule:evenodd;fill:#301A06;" d="M112.35,110.55c1.067-1.1,2.084-2.017,3.05-2.75v3.1
			c0,2.667,0.3,4.75,0.9,6.25c0.333,0.867,0.434,1.9,0.3,3.1c-0.2,2-0.3,3.033-0.3,3.1c0,1.1-0.3,2.433-0.9,4
			c-0.6,1.566-1.333,2.9-2.2,4c-0.733,0.933-2.067,1.066-4,0.4l-2.7-1.3c-0.8-0.6-1.6-1.267-2.4-2
			c-1.633-1.467-2.45-2.583-2.45-3.35c0-0.5,0.933-1.7,2.8-3.6c2.066-2.066,3.35-3.816,3.85-5.25
			C108.867,114.583,110.217,112.684,112.35,110.55z"/>
		<path style="fill-rule:evenodd;clip-rule:evenodd;fill:#301A06;" d="M130.2,187.15c0.167-0.534,0.55-1.25,1.149-2.15
			c0.934-1.367,1.601-0.434,2,2.8c0.434,3.233,0.217,6.15-0.649,8.75c-0.601,1.8-0.9,2.45-0.9,1.95c0-1.434-0.3-2.233-0.9-2.4
			c-0.8-0.199-1.283-0.949-1.45-2.25c-0.167-1.066-0.117-2.383,0.149-3.949C129.833,188.533,130.033,187.617,130.2,187.15z"/>
		<path style="fill-rule:evenodd;clip-rule:evenodd;fill:#301A06;" d="M321.25,257.65l5.35,4.149
			c0.434,0.267,0.717,1.583,0.851,3.95l-1.851,2.55c-0.333,0.467-0.533,0.7-0.6,0.7c-0.167,0-0.533,0.217-1.1,0.65
			c-0.533,0.467-0.801,0.649-0.801,0.55c0-0.233-0.283-0.3-0.85-0.2c-1.667,0.3-2.667-0.033-3-1l0.35-1.7c-2-0.2-3.783-0.533-5.35-1
			c-0.767-0.2-1.184-0.283-1.25-0.25c-0.167,0.167-0.75,0.25-1.75,0.25h-4.3c-0.833,0-2.134-0.05-3.9-0.149L300.6,266h2l1.5-0.25
			c1.134-0.267,1.967-0.55,2.5-0.85c0.434-0.233,0.967-0.351,1.601-0.351c0.667,0,1.316-0.183,1.95-0.55
			c0.633-0.333,1.583-0.883,2.85-1.65c1.166-0.633,2.15-1.083,2.95-1.35c1.167-0.367,2.017-0.717,2.55-1.05
			C319.267,259.483,320.184,258.717,321.25,257.65z"/>
		<path style="fill-rule:evenodd;clip-rule:evenodd;fill:#301A06;" d="M251.45,254.2c1.833,1.467,2.8,2.399,2.899,2.8
			c0.134,0.467,0.301,0.95,0.5,1.45c0.134,0.533,0.2,1.267,0.2,2.2c0,0.8-0.033,1.149-0.1,1.05c-0.2-0.3-0.434-0.267-0.7,0.1
			c-0.3,0.467-0.267,0.917,0.1,1.351c0.2,0.199,0.434,0.366,0.7,0.5l0.101,3.899c-0.967-1.933-1.884-3.566-2.75-4.899l-0.601-0.95
			c0.167,0.1,0.134-0.134-0.1-0.7c-0.167-0.467-0.517-0.967-1.05-1.5c-0.567-0.566-1.101-1.4-1.601-2.5l-0.6-1.35
			c0.2,0.366,0.183,0.267-0.05-0.301c-0.301-0.699-0.45-1.683-0.45-2.949l0.1-1.7C248.416,251.533,249.55,252.7,251.45,254.2z"/>
		<path style="fill-rule:evenodd;clip-rule:evenodd;fill:#3A1E0B;" d="M314.25,247.7c0.4,0.133,0.533,0.45,0.4,0.95
			c-0.268,0.899-0.4,1.467-0.4,1.699c0,0.567-0.434,1.018-1.3,1.351L311.6,252l-0.35,2.35c-0.2,0.867-0.633,1.533-1.3,2
			c-0.733,0.5-1.167,0.783-1.3,0.851c-0.5,0.233-1.184,0.5-2.051,0.8c-0.467,0.167-1,0.483-1.6,0.95c-0.467,0.366-1.267,0.6-2.4,0.7
			c-1.232,0.133-2.1,0.517-2.6,1.149l-0.35,0.851c0-0.2,0.033-0.467,0.1-0.801c0.166-0.666,0.45-1.283,0.85-1.85
			c0.334-0.434,0.634-0.9,0.9-1.4c0.2-0.333,0.566-0.649,1.1-0.949c0.533-0.268,0.917-0.768,1.15-1.5
			c0.4-1.301,0.684-2.117,0.85-2.45c0.4-0.8,0.584-1.417,0.551-1.851c-0.134-0.566-0.2-1.183-0.2-1.85c0-0.833,0.3-1.35,0.899-1.55
			c0.367-0.101,1.066-0.25,2.101-0.45C309.45,246.533,311.55,246.767,314.25,247.7z"/>
		<path style="fill-rule:evenodd;clip-rule:evenodd;fill:#3A1E0B;" d="M315.95,210.4c0.667-1.334,1-4.101,1-8.301l1.649,2l0.65,3
			l-0.3,1.65c-0.233,1.167-0.351,1.95-0.351,2.35c0,0.667-0.55,1.768-1.649,3.301c-1.567,3.767-2.684,5.982-3.351,6.649v-4.3
			c0-0.5,0.117-0.967,0.351-1.4c0.2-0.433,0.633-1.083,1.3-1.949c0.566-0.7,0.85-1.4,0.85-2.101L315.95,210.4z"/>
		<path style="fill-rule:evenodd;clip-rule:evenodd;fill:#3A1E0B;" d="M313.25,232.7c0.566,0,0.85,0.733,0.85,2.2
			c0,0.699-0.05,1.416-0.149,2.149c-1.134-0.233-1.917-0.683-2.351-1.35c-0.366-0.533-0.383-1.15-0.05-1.851
			C311.916,233.083,312.483,232.7,313.25,232.7z"/>
		<path style="fill-rule:evenodd;clip-rule:evenodd;fill:#3A1E0B;" d="M329.9,220.05c-0.067,0.467-0.051,1.25,0.05,2.351
			c-0.034,1.033-0.384,1.816-1.05,2.35c-0.533,0.434-0.884,0.934-1.051,1.5c-0.066,0.2-0.267,0.133-0.6-0.2c-1-1-1.334-2-1-3
			c0.233-0.667,0.934-1.583,2.1-2.75C329.55,219.1,330.066,219.017,329.9,220.05z"/>
		<path style="fill-rule:evenodd;clip-rule:evenodd;fill:#3A1E0B;" d="M325.9,170.15c1.232-2,2-1.716,2.3,0.85
			c0.3,2.633-0.017,4.233-0.95,4.8c-0.7,0.434-1.233,0.25-1.6-0.55c-0.268-0.6-0.4-1.3-0.4-2.1c0-0.4,0.117-1.017,0.35-1.85
			L325.9,170.15z"/>
		<path style="fill-rule:evenodd;clip-rule:evenodd;fill:#301A06;" d="M226.9,317.5c0.366,0.133,1.766,0.267,4.199,0.4
			c1.103,0.062,2.053,0.078,2.851,0.05l-4.55,0.95c-5.301,0-8.518,0.116-9.65,0.35c-0.7,0.167-1.167,0.25-1.4,0.25
			c-0.232,0.033-0.866,0.05-1.899,0.05H212.1c-0.833,0-2.633-0.333-5.399-1l-3.9-1l2.8,0.25c2,0.134,3.283,0.05,3.851-0.25
			c0.866-0.433,1.649-0.917,2.35-1.45c0.8-0.666,0.9-1.033,0.3-1.1H209.9l-1.101-2.1l-7-5.65c0.866,0.3,2.351,1.167,4.45,2.6
			c1.533,1.033,2.934,2.051,4.2,3.051c0.433,0.366,0.733,0.366,0.899,0c0.268-0.601,1.084-0.717,2.45-0.351
			c1.233,0.333,2.733,0.684,4.5,1.05c1.366,0.334,2.517,0.768,3.45,1.301c1.566,0.899,2.9,1.566,4,2
			C226.316,317.133,226.7,317.333,226.9,317.5z M235.2,317.7c0.8-0.2,1.116-0.2,0.95,0c-0.535,0.143-1.268,0.226-2.2,0.25
			L235.2,317.7z"/>
	</g>
</g>
</svg>
