<?xml version="1.0" encoding="iso-8859-1"?>
<!-- Generator: Adobe Illustrator 15.1.0, SVG Export Plug-In . SVG Version: 6.00 Build 0)  -->
<!DOCTYPE svg PUBLIC "-//W3C//DTD SVG 1.1//EN" "http://www.w3.org/Graphics/SVG/1.1/DTD/svg11.dtd">
<svg version="1.1" id="FlashAICB" xmlns="http://www.w3.org/2000/svg" xmlns:xlink="http://www.w3.org/1999/xlink" x="0px" y="0px"
	 width="290.7px" height="218.15px" viewBox="0 0 290.7 218.15" style="enable-background:new 0 0 290.7 218.15;"
	 xml:space="preserve">
<g>
	<g>
		<path style="fill-rule:evenodd;clip-rule:evenodd;fill:#613A22;" d="M276.55,3.8c3.833-0.167,7-0.017,9.5,0.45
			c0.033,2.333,0.434,7.117,1.2,14.35c0.267,2.367,0.583,14.2,0.95,35.5c0.399,21.633,1.083,37.45,2.05,47.45
			c1.233,12.733-0.133,27.983-4.1,45.75c-3.801,17.101-8.2,29-13.2,35.7c-4.533,6.033-11.884,11.483-22.05,16.35
			c-8.934,4.267-19.334,7.784-31.2,10.551c-10.533,2.5-27.601,4.566-51.2,6.199c-22.5,1.567-42.867,2.233-61.1,2
			c-25.767-0.366-44.517-1.267-56.25-2.699c-20.6-2.567-32.55-7.284-35.85-14.15c-3.233-6.733-6.283-17.833-9.15-33.3
			c-1.5-8.134-3.017-17.55-4.55-28.25c-0.833-4.834-1.233-12.8-1.2-23.9c0-5.533,0.083-10.6,0.25-15.2l31.9-4.5L79.7,82.8l16.05-4.9
			c12.833-4.167,24.566-8.417,35.2-12.75c6.1-2.5,14.3-6.4,24.6-11.7c8.9-4.6,14.017-7.067,15.351-7.4
			c3.267-0.833,15.066-5.833,35.399-15c6.533-2.933,22.833-10.367,48.9-22.3C261.8,5.717,268.917,4.066,276.55,3.8z"/>
		<path style="fill-rule:evenodd;clip-rule:evenodd;fill:#55351E;" d="M278.1,3.3l1.051-0.15l0.05,2.35l-0.351,0.05
			c-0.732,0-2.183,1.2-4.35,3.6c-2.2,2.434-3.3,4.117-3.3,5.05c0,1-0.2,1.95-0.601,2.85c-0.467,1.067-1.399,2.517-2.8,4.35
			c-1.167,1.6-2.017,3.267-2.55,5c-0.367,1.633-0.633,2.684-0.8,3.15c-0.2,0.6-0.217,2.684-0.05,6.25l0.3,5.2
			c0.133,0.5,0.183,1.367,0.149,2.6c0,2.5-0.3,5.6-0.899,9.3c-0.567,3.7-1.851,5.417-3.851,5.15c-0.633-0.1-1.3-0.383-2-0.85
			l-0.85-0.7l2.75-0.1c1.367-7.633,1.75-12.15,1.15-13.55c-0.334-0.867-0.45-2.15-0.351-3.85c0.067-0.9,0.167-2.117,0.3-3.65
			c0-0.934-0.25-1.583-0.75-1.95c-0.433-0.3-1.149-0.45-2.149-0.45c-0.934,0-2.434,0.183-4.5,0.55c-2,0.333-3.384,0.633-4.15,0.9
			c-0.3,0.1-1.3,0.717-3,1.85c-1.533,1.033-2.733,1.583-3.6,1.65c-0.934,0.067-1.667,1.15-2.2,3.25
			c-0.467,2.267-0.816,3.567-1.05,3.9c-0.233,0.333-0.233,1.133,0,2.4c0.233,1.3,0.217,2.167-0.05,2.6
			c-0.268,0.467,0.517,1.45,2.35,2.95c1.6,1.367,2.217,2.05,1.85,2.05c-0.566,0,0.851,1.617,4.25,4.85c1.733,1.6,3.5,3.2,5.301,4.8
			L251,74.8c0,6.733-0.167,11.85-0.5,15.35c-0.2,2.2,1.1,5.75,3.9,10.65c1.399,2.467,2.816,4.7,4.25,6.7
			c-0.934,2.566-1.733,4.483-2.4,5.75c-0.4,0.8-1.883,2.4-4.45,4.8l-2.7,2.45l1-0.95c1.334-1.366,2.101-2.35,2.301-2.95
			c0.166-0.466,0.517-1.3,1.05-2.5c0.366-1.166,0.35-2.25-0.05-3.25c-0.601-1.466-1.268-2.733-2-3.8
			c-0.934-1.3-1.733-1.917-2.4-1.85c-0.6,0.1-1.167-0.367-1.7-1.4l-0.649-1.6l-1.45-5.3L241.85,94
			c-0.333,3.2-0.816,5.917-1.449,8.15c-0.467,1.7-1.15,2.983-2.051,3.85c-0.866,0.867-2.267,1.667-4.199,2.4
			c-1.467,0.567-2.533,1.117-3.2,1.65c-1.434,1.167-2.617,2.05-3.55,2.65c-1.733,1.166-2.884,1.8-3.45,1.899
			c-0.733,0-1.667,0.15-2.8,0.45c-1.4,0.4-3.983-0.066-7.75-1.399l-5.2-2.101h8.149c0.601,0,1.768-0.416,3.5-1.25
			c0.934-0.466,2.217-1.133,3.851-2c1.267-0.633,2.75-1.867,4.45-3.7v-1.95l3.25-16.35c-0.4-2.867-1.084-5.1-2.051-6.7
			c-0.5-0.833-1.366-1.534-2.6-2.1c-1.167-0.533-1.9-1.117-2.2-1.75c-0.366-0.7,0.167-2.75,1.601-6.15
			c1.666-3.967,2.566-6.4,2.699-7.3c0.2-1.3,0.184-2.583-0.05-3.85c-0.267-1.6-0.399-2.534-0.399-2.8c0-0.7-0.351-1.517-1.051-2.45
			c-0.899-1.167-1.467-2.15-1.699-2.95c-0.334-1.033-1.033-1.667-2.101-1.9c-1.833-0.4-2.783-0.617-2.85-0.65
			c-0.8-0.4-1.767-0.55-2.9-0.45l-1.45,0.3h-4.3c-1.1,0-1.967,0.067-2.6,0.2c-0.033,0-1.25,0.3-3.65,0.9
			c-1.233,0.333-2.633,1.017-4.2,2.05c-1.566,1.033-3.133,1.75-4.699,2.15c-1.9,0.466-4.584,0.867-8.051,1.2l-4.6,0.3
			c-0.333,0.7-0.816,1.417-1.45,2.15c-1.233,1.5-2.533,2.4-3.899,2.7c-1.367,0.3-2.351,1.233-2.95,2.8L173.1,74.3l-2.449,6.75
			l-0.95-3.35l-3.351-3.8c-2.566-0.633-4.649-0.95-6.25-0.95c-0.8,0-1.683,0.1-2.649,0.3s-1.851,0.3-2.65,0.3h-9.149
			c-2.4,0-3.517,0.633-3.351,1.9l0.95,1.85c-3.833,2.8-6.55,4.684-8.15,5.65c-1,0.6-1.867,2.15-2.6,4.65l-0.8,3.55l-4.3,11.5
			L124,107c-0.633,1.933-1.583,4.017-2.85,6.25c-0.333,0.6-0.783,1.783-1.35,3.55c-0.233,0.8-0.917,1.384-2.05,1.75
			c-1.2,0.4-2.6,0.767-4.2,1.101L111.5,120l2-1.5c1.533-1.2,2.8-2.316,3.8-3.35c1-1,1.55-2.334,1.65-4
			c0.033-0.867-0.033-1.617-0.2-2.25l1.45-5.25l-2.9-9.15l-2.4-0.95c-1-0.4-2.5-0.367-4.5,0.1l-2.75,0.85
			c-2.533,0-5.083-0.167-7.65-0.5c-1.667-0.2-2.95-0.133-3.85,0.2c-0.966,0.533-1.767,0.95-2.4,1.25c-0.8,0.4-1.867,0.6-3.2,0.6
			c-1.566-0.066-2.75-0.1-3.55-0.1c-1.1,0-2.066,0.116-2.9,0.35c-0.467,0.133-1.433,0.5-2.9,1.1c-0.867,0.333-1.567,1.05-2.1,2.15
			c-0.567,1.133-1.133,1.85-1.7,2.15c-0.8,0.4-1.617,1.483-2.45,3.25L74,107.5c-0.3,2.866-0.783,4.95-1.45,6.25
			c-0.4,0.8-0.6,1.833-0.6,3.1l0.15,1.7c0.3,2.233,0.617,3.834,0.95,4.8c0.333,0.967,0.5,4.65,0.5,11.051
			c0,0.6-0.167,1.75-0.5,3.449l-0.5,2.351l-2.85,2.45l-1.95,4.399c-1.934-0.267-3.367-0.883-4.3-1.85
			c-0.6-0.566-1.417-1.184-2.45-1.851l-1.4-0.8h-5.8c-0.6,0-1.583-0.116-2.95-0.35L49,141.85c-0.167,0.301-0.4,0.584-0.7,0.851
			c-0.667,0.566-1.4,0.85-2.2,0.85c-0.667,0-1.133,0.483-1.4,1.45c-0.4,1.333-0.884,2.283-1.45,2.85
			c-0.8,0.801-2.417,0.884-4.85,0.25l-3.35-1.199l1.8-0.2c1.466-0.233,2.8-0.65,4-1.25c0.966-0.467,1.367-0.7,1.2-0.7
			c-0.466,0-0.55-0.233-0.25-0.7c0.634-0.967,1.75-2.899,3.35-5.8l2.9-1.45l2.4,0.25c1.767,0.167,3.05,0.25,3.85,0.25
			c0.8,0,1.684-0.717,2.65-2.149c0.467-0.733,0.866-1.467,1.2-2.2l1.9-4.3l0.5-3.351c0.333-2.434,0.5-4.05,0.5-4.85
			c0-1.267-0.483-2.217-1.45-2.851l-0.5-2.449l0.5-1.5c0.3-1.2,0.45-2.301,0.45-3.301c0-0.8-0.017-1.167-0.05-1.1
			c-0.1,0.267-0.233,0.15-0.4-0.35c-0.333-0.933-1.467-1.883-3.4-2.85l-1.85-1.25c-0.733-0.466-1.633-0.433-2.7,0.1
			c-2.333,1.167-3.85,1.867-4.55,2.1c-1.133,0.367-2.867,1.333-5.2,2.9c-1.7,1.133-3.183,1.617-4.45,1.45
			c-1.1-0.166-2.6-0.25-4.5-0.25c-1.8,0-3.184-0.083-4.15-0.25l-3.55-0.899c0.167,1.133-0.133,1.75-0.9,1.85
			c-1.333,0.066-2.184,0.15-2.55,0.25c-0.466,0.134-1.05,0.684-1.75,1.65c-0.633,0.899-1.267,1.3-1.9,1.2
			c-1.133-0.134-1.733-0.2-1.8-0.2c-0.633,0.133-1.033,0.434-1.2,0.899c-0.066,0.134-0.15,0.684-0.25,1.65
			c-0.433,2.9-0.65,4.616-0.65,5.15c0,0.466-0.233,0.966-0.7,1.5c-0.533,0.6-1.1,0.899-1.7,0.899c-0.533,0-1.233-0.267-2.1-0.8
			l-1.1-0.8l1.55,0.149c0.433,0,0.75-0.649,0.95-1.949v-3.2c0-0.533-0.05-1.483-0.15-2.851c0-2.3-0.316-3.649-0.95-4.05
			c-1.133-0.633-2.167-0.95-3.1-0.95c-0.267,0-0.717,0.167-1.35,0.5c-0.733,0.367-1.45,0.584-2.15,0.65
			c-0.8,0.066-1.417,0.3-1.85,0.7l-0.45,0.55v-4.65c0-0.833,0.233-3.067,0.7-6.7l2.55-1.55c1.9-1.067,3.317-1.733,4.25-2l6.75,2.95
			c1.767-1.733,4.017-2.85,6.75-3.35c2.5-0.5,3.8-0.35,3.9,0.45l40.05-9.95c4.9-1.134,16.367-4.6,34.4-10.4
			c20.434-6.6,32.85-11.15,37.25-13.65c3.833-2.167,18.3-8.467,43.4-18.9c26.833-11.167,41.55-17.367,44.149-18.6
			c4.5-2.133,14.583-8.083,30.25-17.85c1.767,0.267,3.517-0.017,5.25-0.85C265.566,5.467,271.333,4,278.1,3.3z"/>
		<path style="fill-rule:evenodd;clip-rule:evenodd;fill:#55351E;" d="M68.7,169.85c1.033-0.399,1.667-1.25,1.9-2.55
			c0.133-0.633,0.15-1.233,0.05-1.8l0.9,1.4c0.733,1.033,1.4,1.85,2,2.449c0.6,0.634,0.833,1.517,0.7,2.65
			c-0.066,0.467-0.3,1.35-0.7,2.65c-0.366,1.033-1.167,2.466-2.4,4.3c-0.4,0.6-0.716,1.45-0.95,2.55
			c-0.167,1.366-0.333,2.45-0.5,3.25c-0.2,0.9-0.7,1.767-1.5,2.6c-1.033,1-1.667,1.733-1.9,2.2c-0.366,0.767-1.233,1-2.6,0.7
			c-2.267-0.467-3.483-0.7-3.65-0.7c-1.366,0-2.283-0.033-2.75-0.1c-0.7-0.134-1.383-0.417-2.05-0.851
			c-0.367-0.233-1.184-0.649-2.45-1.25c-1.167-0.566-2.116-1.116-2.85-1.649c-0.533-0.4-1.083-0.934-1.65-1.601
			c-0.433-0.5-1-0.933-1.7-1.3c-0.8-0.399-1.683-1.316-2.65-2.75l-1.2-2.05l7.2,0.5l2.6,0.95c1.833,0.633,3.05,0.95,3.65,0.95h3.85
			c0.8,0,1.784-0.483,2.95-1.45c0.7-0.533,1.8-1.483,3.3-2.851c1-0.8,1.7-2.083,2.1-3.85C68.6,171.384,68.7,170.583,68.7,169.85z"/>
		<path style="fill-rule:evenodd;clip-rule:evenodd;fill:#55351E;" d="M50.65,121.75c-0.08,0.39-0.029,1.123,0.15,2.2
			c0.333,1.967,0.05,3.05-0.85,3.25c-1,0.2-1.7,0.666-2.1,1.399l-0.3,1l-3.35-0.5c-1.4-0.199-2.783-1.216-4.15-3.05l-1.6-2.7
			l2.35,1.2c1.667,0.8,2.8,1.2,3.4,1.2c0.967,0,2.25-0.483,3.85-1.45L50.65,121.75z"/>
		<path style="fill-rule:evenodd;clip-rule:evenodd;fill:#55351E;" d="M97.2,125.05c0.4-0.267,0.683-0.517,0.85-0.75l3.35-3.35
			c0.967,0,2.583-1.767,4.85-5.3l0.45,4.35c0,1.6-0.317,2.884-0.95,3.85c-0.4,0.567-0.7,1.2-0.9,1.9
			c-0.2,0.833-0.383,1.483-0.55,1.95c-0.566,1.767-2,3.033-4.3,3.8c-1.167,0.4-2.066,0.533-2.7,0.4l-1.65-0.4
			c-0.633,0-1.316-0.167-2.05-0.5c-1.333-0.767-2.733-1.55-4.2-2.35l-1.8-1c0.733,0.366,0.85,0.383,0.35,0.05
			c-0.6-0.4-1.733-1.483-3.4-3.25l-2.35-2.55l6.7,3.35l1.55,0.25c1.3,0.167,2.55,0.25,3.75,0.25
			C95.4,125.75,96.4,125.517,97.2,125.05z"/>
		<path style="fill-rule:evenodd;clip-rule:evenodd;fill:#55351E;" d="M109.1,150.3c0.6-0.434,0.95-1.666,1.05-3.7
			c0.034-1.066,0.017-2.399-0.05-4c0-1,1.433-0.517,4.3,1.45c0.6,0.4,1.483,0.601,2.65,0.601c0.634,0,1.517-0.051,2.65-0.15
			c0.667,0,1.417-0.316,2.25-0.95c0.5-0.399,1.35-1.2,2.55-2.399c0.833-0.834,1.316-1.534,1.45-2.101c0.1-0.366,0.1-0.95,0-1.75
			c0-0.967,0.483-3.05,1.45-6.25l5.75,7.7l2.9,6.7c-0.333,1.934-1.45,4.184-3.35,6.75c-0.967,1.3-1.45,1.916-1.45,1.85
			c0-0.1-0.483,0.4-1.45,1.5c-0.966,1.134-1.433,1.667-1.4,1.601c0.133-0.267-0.2,0-1,0.8c-1,1.033-1.617,1.017-1.85-0.05
			c-0.133-0.5-0.167-1.117-0.1-1.851v-1.45c0-0.966-0.483-2.083-1.45-3.35h-2.85c-1.3,0.634-3.233,1.75-5.8,3.35
			c-1.267,0.801-1.784,1.217-1.55,1.25c0.733,0.134,0.934,0.684,0.6,1.65c-0.4,1.2-1.8,2.366-4.2,3.5l-10.2,3.7
			c-2.233,0.8-3.2,1.133-2.9,1c0.966-0.334,0.966-0.351,0-0.05c-1.167,0.399-2.233,0.449-3.2,0.149c-1.3-0.399-2-0.6-2.1-0.6
			c-0.6,0-1.983-0.8-4.15-2.4L84.6,160.4l1.9,1.399l1.7,0.25c1.6,0.167,3.6,0.25,6,0.25c2.433,0,4.683-1.033,6.75-3.1
			c1.033-1.066,1.833-2.117,2.4-3.15l2.2-2.45C107.184,151.866,108.367,150.767,109.1,150.3z"/>
		<path style="fill-rule:evenodd;clip-rule:evenodd;fill:#55351E;" d="M151.85,100.1l-4.75-0.3l13-5.3l2.4-3.85h6.25l4.8-2.9
			l3.851,0.95l4.35-3.35l1.5-1.4c1.033-1.034,1.65-1.85,1.85-2.45c0.334-0.967,0.167-3.533-0.5-7.7l3.851,3.85l-1.9,10.1
			l-3.399,4.35c-1.601,1.6-2.867,2.716-3.801,3.35c-0.6,0.4-0.783,0.85-0.55,1.35l0.55,0.6c0.634,1.6,1.268,3.517,1.9,5.75
			c0.367,1.267,0.4,2.267,0.1,3c-0.399,1-0.6,1.767-0.6,2.3c0,1.066-0.517,2.184-1.55,3.35c-0.567,0.634-1.8,1.75-3.7,3.351
			c-1.4,1.166-2.467,1.883-3.2,2.149c-0.6,0.2-1.783,0.3-3.55,0.3H155.3c-1.2,0-2.366,0.167-3.5,0.5l-1.35,0.45l-5.75-2.399
			c-1.4-0.601-2.467-1.5-3.2-2.7l-0.65-1.65h3.35c1.233,0,3.066-0.467,5.5-1.399c2.2-0.834,3.45-1.2,3.75-1.101
			c0.7,0.267,3.233,0.617,7.6,1.05l1.9-0.199c1.467-0.234,2.6-0.65,3.399-1.25l3.351-2.4l0.95-3.85l-0.051-1.9
			c-0.066-1.434-0.199-2.55-0.399-3.35l-5.3-1.95c-1.601,1.6-3.518,2.883-5.75,3.85C157.75,99.9,155.316,100.167,151.85,100.1z"/>
		<path style="fill-rule:evenodd;clip-rule:evenodd;fill:#55351E;" d="M180.75,139.7c0.167,0.833,0.8,2,1.9,3.5
			c1,1.366,1.5,2.283,1.5,2.75c0,0.7-0.384,1.666-1.15,2.899c-0.7,1.134-1.45,2.084-2.25,2.851c-0.566,0.6-0.733,1.416-0.5,2.45
			l0.5,1.399c0.233,0.9,0.434,1.9,0.6,3c0.334,2.267,0.301,4-0.1,5.2c-0.7,2.134-1.35,3.717-1.95,4.75
			c-1.066,1.733-2.333,2.717-3.8,2.95c-1.3,0.166-2.25,0.217-2.85,0.149c-1.067-0.1-1.884-0.149-2.45-0.149h-5.3L163,179.6
			c-0.2,0.801-1.233,1.45-3.1,1.95l-2.7,0.45c-0.233,0.967-0.533,1.934-0.9,2.9c-0.733,1.933-1.399,2.899-2,2.899
			c-0.467,0-1.899-0.233-4.3-0.7c-2.4-0.5-3.85-0.75-4.35-0.75c-0.601,0-1.184-0.55-1.75-1.649l-0.65-1.7l7.2-5.3
			c1.033-0.8,1.667-1.684,1.899-2.65c0.134-0.467,0.15-0.866,0.051-1.2l4.3-1.449c0.6-0.2,0.95-0.75,1.05-1.65
			c0.033-0.434,0.017-0.85-0.05-1.25l-0.5-4.8l7.2,1.95l2-0.601c1.533-0.5,2.8-0.95,3.8-1.35c1-0.4,1.616-1.167,1.85-2.3
			c0.134-0.534,0.15-1.051,0.05-1.551l0.301-3.05c0.267-2.166,0.5-3.55,0.699-4.149c0.301-0.967,1.101-2.417,2.4-4.351
			c-2.566-0.967-4.65-1.45-6.25-1.45c-1.033,0-2.867-0.233-5.5-0.699l-3.65-0.7l10.551-3.851h2.899l1.45-0.8
			c0.967-0.733,1.45-1.6,1.45-2.6c0-1.601-1.283-4.483-3.851-8.65l3.851,0.95C179.017,135.366,180.45,138.1,180.75,139.7z"/>
		<path style="fill-rule:evenodd;clip-rule:evenodd;fill:#55351E;" d="M258.65,122.85c0.199,1,0.35,2.75,0.449,5.25l0.051,3.4
			c-1.934,3.533-3.851,5.95-5.75,7.25c-1.268,0.833-1.934,1.533-2,2.1c0,0.067,0.183,0.65,0.55,1.75
			c1.267,4.067,1.899,7.267,1.899,9.601c0,1.566-0.316,2.934-0.949,4.1c-0.733,1.367-2.018,2.733-3.851,4.101
			c-1.633,1.233-2.7,2.383-3.2,3.449c-0.267,1.233-0.482,2.167-0.649,2.801c-0.167,0.699-0.134,2.017,0.1,3.949
			c0.267,2.4,0.4,3.967,0.4,4.7c0,1.601-0.017,2.65-0.05,3.15c-0.067,0.733-0.217,1.434-0.45,2.1c-0.3,1.3-0.567,2.283-0.8,2.95
			c-0.467,1.267-1,1.9-1.601,1.9c-0.6,0-2.3-0.084-5.1-0.25l-4.05-0.25l5.3-0.95c0.8-0.2,1.366-0.9,1.7-2.101
			c0.166-0.6,0.25-1.183,0.25-1.75v-5.3c0-0.533-1-1.2-3-2c-2.7-1.033-4.434-1.8-5.2-2.3c-1.2-0.8-2.684-1.45-4.45-1.95l-2.3-0.5
			c-1.5-1.1-2.934-2.233-4.3-3.399c-2.733-2.334-3.7-3.601-2.9-3.801c1.3-0.3,2.583-1.583,3.85-3.85l-2.399-3.35h7.2l4.8-3.351
			l1-2.399c0.633-1.767,0.95-3.051,0.95-3.851c0-1.3-0.167-2.583-0.5-3.85l2.899-4.851l4.8,1l1.25-1.149
			c0.9-0.9,1.45-1.65,1.65-2.25c0.333-0.967,0.333-2.566,0-4.8l-5.75-1.45l8.65-2.4l4.8-4.3l3.2,0.55
			C257.283,121.083,258.45,121.85,258.65,122.85z"/>
		<path style="fill-rule:evenodd;clip-rule:evenodd;fill:#55351E;" d="M271.25,89.45c0.9-2.567,1.35-4.567,1.35-6
			c0-0.967,1.283-2.25,3.851-3.85V94c-0.967,1.933-2.083,3.867-3.351,5.8c-1.533,2.333-3.449,3.767-5.75,4.3
			c-0.8,0.2-1.933-0.133-3.399-1l-1.9-1.4l2.351-0.9c1.666-0.733,2.8-1.4,3.399-2c0.533-0.5,0.45-1.5-0.25-3
			c-0.6-1.267-0.667-1.867-0.2-1.8C268.783,94.2,270.083,92.683,271.25,89.45z"/>
		<path style="fill-rule:evenodd;clip-rule:evenodd;fill:#55351E;" d="M215.15,163c1.3-0.634,2.017-0.7,2.149-0.2
			c0.167,0.467,0.167,1.351,0,2.65L215.4,167.6c-0.634,0.801-1.117,1.517-1.45,2.15c-0.233,0.434-0.567,0.684-1,0.75
			c-0.067,0-0.7,0-1.9,0c-0.7,0-1.1-0.033-1.2-0.1v-0.15l-6.699-4.35l4.3,0.5h2.899l3.601-1.2c0.733-0.2,1.149-0.533,1.25-1
			C215.267,163.934,215.25,163.533,215.15,163z"/>
		<path style="fill-rule:evenodd;clip-rule:evenodd;fill:#55351E;" d="M211.55,126l2.9-0.25c0.467,0,0.866,0.8,1.2,2.4v2.649
			c-0.801,1.3-1.533,2.351-2.2,3.15c-0.5,0.633-0.917,1.083-1.25,1.35c-0.434,0.334-1.05,0.684-1.851,1.05l-2.649,0.95l-7.2-2.649
			h5.5l1.95-1.45l1.149-1.55c0.867-1.067,1.601-1.75,2.2-2.051c0.601-0.3,0.817-0.866,0.65-1.699
			C211.883,127.434,211.75,126.8,211.55,126z"/>
		<path style="fill-rule:evenodd;clip-rule:evenodd;fill:#55351E;" d="M273.35,151.7c0.467-0.3,0.217-1.9-0.75-4.8l3.65,3.149
			c-0.667,2.066-1,3.584-1,4.55v3.351c-0.633,1.467-1.267,2.6-1.9,3.399c-0.433,0.567-0.866,0.917-1.3,1.051
			c-0.333,0.1-1.033,0.149-2.1,0.149c-0.8,0-1.8-0.316-3-0.95l-1.55-1l2.899-0.199l1.15-1.051c0.866-0.733,1.6-1.199,2.2-1.399
			c0.6-0.2,0.783-0.934,0.55-2.2c-0.134-0.634-0.317-1.25-0.55-1.85l0.25-0.7C272.233,152.634,272.717,152.134,273.35,151.7z"/>
		<path style="fill-rule:evenodd;clip-rule:evenodd;fill:#55351E;" d="M96.15,187.05c-0.7,0-1.633-0.233-2.8-0.7l-1.55-0.75
			l1.2-0.149c0.9-0.167,1.55-0.351,1.95-0.55c0.4-0.2,0.7-0.467,0.9-0.801c0.1-0.166,0.267-0.533,0.5-1.1c0.2-0.4,0.267-1,0.2-1.8
			c-0.033-0.4-0.1-0.934-0.2-1.601c0-0.466,0.167-1.35,0.5-2.649l2.15,1.7c0.033,0.433,0.083,0.899,0.15,1.399
			c0.133,1,0.25,1.65,0.35,1.95c0.133,0.366,0.05,0.967-0.25,1.8c-0.3,0.834-0.617,1.367-0.95,1.601c-0.033,0.033-0.267,0.366-0.7,1
			C97.3,186.833,96.816,187.05,96.15,187.05z"/>
		<path style="fill-rule:evenodd;clip-rule:evenodd;fill:#55351E;" d="M195.2,172.95c-1.067-2.601-2.3-5.033-3.7-7.3l4.1,3.85
			c2.9,3,4.75,5.566,5.551,7.7c0.8,2.133,1.467,4.066,2,5.8l0.55,1.9l0.649,6.399l-3.199,5.15c-3,2.133-5.367,4.483-7.101,7.05
			c-1.066,1.6-2.45,1.65-4.149,0.15l-2.25-2.7l2.6-2.601c0.9-0.899,1.833-1.716,2.8-2.449c0.967-0.767,1.733-1.434,2.3-2
			c0.801-0.801,1.15-2.767,1.051-5.9c-0.033-1.533-0.167-3-0.4-4.4C197.6,181.733,197.333,178.184,195.2,172.95z"/>
		<path style="fill-rule:evenodd;clip-rule:evenodd;fill:#55351E;" d="M172.25,190.65c-1.733,2.433-4.25,4.466-7.55,6.1
			c-3.601,1.8-7.067,2.55-10.4,2.25c-2.933-0.267-4.45-1.2-4.55-2.8c-0.066-0.8,0.167-1.566,0.7-2.3l14.75,0.6l4.25-2.9
			C172.117,189.9,173.05,189.583,172.25,190.65z"/>
		<path style="fill-rule:evenodd;clip-rule:evenodd;fill:#482D1D;" d="M72.3,89.3l0.45,0.05c0.434,0.2,0.967,0.733,1.6,1.6L77.4,95
			c-0.966,1.267-1.783,2.383-2.45,3.35c-0.634,0.8-1.067,1.383-1.3,1.75c-0.4,0.6-0.6,1.3-0.6,2.1c0,0.566-0.55,2.05-1.65,4.45
			c-1.133,2.4-1.7,4.117-1.7,5.15c0,1.2,0.083,2.45,0.25,3.75l0.2,1.55l1.45,2.051c0.966,1.6,1.45,3,1.45,4.199v9.15l-2.4,3.35
			c-1.6,1.601-3.2,2.717-4.8,3.351c-1,0.434-2.333,0.733-4,0.899L59.6,140.2l2.4-1.45c1.6-1.134,2.4-2.1,2.4-2.9
			c0-0.233-0.25-1.199-0.75-2.899c-0.267-0.967-0.017-1.45,0.75-1.45c0.833,0,1.717-0.917,2.65-2.75c0.8-1.6,1.2-2.767,1.2-3.5
			c0.3-3.5,0.133-5.9-0.5-7.2c-0.767-1.566-1.167-2.366-1.2-2.399c-0.233-0.767-0.15-1.567,0.25-2.4c0.267-0.5,0.534-1.684,0.8-3.55
			c0.233-1.6,0.6-2.667,1.1-3.2c0.7-0.7,1.233-1.367,1.6-2c0.3-0.567,0.583-1.333,0.85-2.3c0.3-1.3,0.617-3.067,0.95-5.3l-4.05-2.25
			c-0.533-0.267-1.45-0.933-2.75-2l-1.85-1.5l-4.35-0.5l10.85-6l7.45-1.7L75.9,87L72.3,89.3z"/>
		<path style="fill-rule:evenodd;clip-rule:evenodd;fill:#482D1D;" d="M67.3,141.6l2.4,1c-1.3,1.601-1.95,3.034-1.95,4.301
			c0,0.8-0.55,1.05-1.65,0.75l-1.7-0.75l-0.95-1.9l1-1.3C65.316,142.733,66.267,142.033,67.3,141.6z"/>
		<path style="fill-rule:evenodd;clip-rule:evenodd;fill:#482D1D;" d="M48.05,138.75l-0.625,0.275
			C47.278,138.56,47.487,138.469,48.05,138.75z M47.8,139.8c0.333,0.566,0.733,1.167,1.2,1.8l-0.95,2.45l-1.95-0.5
			c-0.7-0.166-1.167,0.184-1.4,1.05c-0.434,1.5-0.917,2.584-1.45,3.25c-0.8,1.034-2.017,1.75-3.65,2.15l-2.15,0.3l4-4.2
			c0.633-0.966,0.75-1.649,0.35-2.05c-0.4-0.399-0.033-1.166,1.1-2.3c0.567-0.566,1.167-1.083,1.8-1.55l2.725-1.175
			C47.487,139.216,47.612,139.475,47.8,139.8z"/>
		<path style="fill-rule:evenodd;clip-rule:evenodd;fill:#482D1D;" d="M101.4,126.7c1.2-1,2.367-3.134,3.5-6.4
			c0.567-1.666,1.017-3.217,1.35-4.649l0.45,4.35l-0.45,7.7c-0.733,0.733-1.533,1.434-2.4,2.1c-1.767,1.334-3.05,1.9-3.85,1.7
			s-1.767-0.25-2.9-0.15l-1.45,0.15l-7.7-3.8l5.8,0.95c1.4,0.199,3.1-0.067,5.1-0.801C99.85,127.483,100.7,127.1,101.4,126.7z"/>
		<path style="fill-rule:evenodd;clip-rule:evenodd;fill:#482D1D;" d="M89.4,83.9l13-4.3l19.55-8.25l-2.2,9
			c-0.3-0.034-0.533,0.017-0.7,0.15c-0.333,0.3-0.1,0.883,0.7,1.75c0.767,0.9,1.65,1.566,2.65,2c0.6,0.267,1.617,0.633,3.05,1.1
			l4.85,1.95l0.45,2.85l-1.9,5.8l0.2-1.1c-0.1-0.8-0.65-1.4-1.65-1.8c-0.566-0.233-1.283-0.667-2.15-1.3c-0.566-0.4-1.3-0.6-2.2-0.6
			h-5.75c-0.167-0.333-0.4-0.65-0.7-0.95c-0.667-0.667-1.4-1-2.2-1h-4.3l-2.45,2.4l-4.8-0.45l-3.35,1.4
			c-0.167,0.5-0.4,0.95-0.7,1.35c-0.667,0.8-1.4,1-2.2,0.6c-0.633-0.3-1.183-0.333-1.65-0.1c-0.167,0.067-0.25-0.217-0.25-0.85
			c0-1.3-0.1-2.9-0.3-4.8l0.2-3.4L89.4,83.9z"/>
		<path style="fill-rule:evenodd;clip-rule:evenodd;fill:#482D1D;" d="M148.45,64.75c-1.167-0.033-2.65,0.433-4.45,1.4l-2.4,1.4
			l1-0.1c0.433,0.167,0.1,0.85-1,2.05c-1.067,1.167-1.967,2.383-2.7,3.65c-0.6,1.267-1.066,2.133-1.4,2.6
			c-0.233,0.333-0.5,1.033-0.8,2.1c-0.233,0.8-0.617,1.383-1.15,1.75l-5.25,3.35l-1.45,3.35l0.25-3.55c0.466-2.467,1.5-4,3.1-4.6
			l1.2-2.4c0.667-1.567,0.65-2.367-0.05-2.4c-0.867,0-1.417-0.784-1.65-2.35c-0.267-1.6,0.066-2.75,1-3.45l11.05-8.15l3.35-1.15
			c2.233-0.567,3.351-0.35,3.351,0.65c0.133,1.8,0.149,3.083,0.05,3.85C150.333,64.117,149.65,64.783,148.45,64.75z"/>
		<path style="fill-rule:evenodd;clip-rule:evenodd;fill:#482D1D;" d="M183.05,41.05l-6.45,9.35c-1.066,0.533-1.916,1.45-2.55,2.75
			c-0.399,0.8-0.767,1.75-1.1,2.85l-0.351,1.45l-0.5,3.85l-2.399,2.4l1.45,3.85l-1.45,10.1v-7.7L163,66.6l0.05-0.95
			c0.233-0.8,0.851-1.6,1.851-2.4s1.816-2.1,2.449-3.9c0.334-0.867,0.551-1.667,0.65-2.4l-0.3-3.05l-4.3-4l4.149-2.5
			c3.101-1.7,5.5-2.533,7.2-2.5s3.6-0.6,5.7-1.9C181.483,42.367,182.35,41.717,183.05,41.05z"/>
		<path style="fill-rule:evenodd;clip-rule:evenodd;fill:#482D1D;" d="M122.6,100.25l7.2-8.15c-0.333,2.867-0.65,4.95-0.95,6.25
			c-0.2,0.8-0.5,1.75-0.9,2.85l-3.45,8.7c0,2.867-0.483,5.267-1.45,7.2c-0.6,1.2-2.066,1.884-4.4,2.051l-3.3-0.15l4.85-2.4l0.5-3.05
			c0.3-2.166,0.45-3.55,0.45-4.15c0-0.967,0.483-2.733,1.45-5.3V100.25z"/>
		<path style="fill-rule:evenodd;clip-rule:evenodd;fill:#482D1D;" d="M179.35,97.4c0.167,0.967,0.367,1.934,0.601,2.9
			c0.467,1.9,0.899,2.85,1.3,2.85c0.633,0,0.467,1.767-0.5,5.3l-2.4,6.25c-2.866,2.566-4.783,3.85-5.75,3.85
			c-0.6,0-1.666,0.316-3.199,0.95l-2.101,0.95l-10.1-1.9c-2.867,0.3-5.117,0.3-6.75,0c-1-0.2-2.9-1.383-5.7-3.55l-3.9-3.2l7.7,2.9
			l6.25,0.45l3.351-0.95c0.566-0.167,1.316-0.217,2.25-0.15c1.566,0.101,2.433,0.15,2.6,0.15c0.633,0,2.15,0.017,4.55,0.05
			c2.233-0.066,3.75-0.4,4.55-1c0.801-0.6,1.617-2.3,2.45-5.1c0.4-1.4,0.717-2.75,0.95-4.05L179.35,97.4z"/>
		<path style="fill-rule:evenodd;clip-rule:evenodd;fill:#482D1D;" d="M217.85,26.95c7.167-2.833,11.95-4.85,14.351-6.05
			c3.866-1.9,8.517-4.783,13.95-8.65c-2.334,3.5-4.033,5.816-5.101,6.95c-0.5,0.533-1.1,1.45-1.8,2.75
			c-0.6,1.2-1.167,2.017-1.7,2.45c-0.333,0.3-1.233,0.617-2.7,0.95c-1.033,0.233-1.566,0.816-1.6,1.75
			c-0.033,1.033-0.133,2.383-0.3,4.05l-0.25,2.25l3.35,1c0.333,0.633,0.5,1.434,0.5,2.4c0,1.233-0.483,2.833-1.45,4.8
			c-0.967,1.933-1.449,3.7-1.449,5.3c0,0.8,0.183,2,0.55,3.6l0.5,2.15l-3.9-6.25l1.4-2.9l-4.45-2.65l-8.5-3.6l1.8-2
			c1.067-1.367,1.167-2.083,0.3-2.15c-0.767-0.067-1.899-0.383-3.399-0.95c-1.533-0.6-2.517-0.917-2.95-0.95
			c-0.633-0.067-2.033-0.15-4.2-0.25l-3-0.15L217.85,26.95z"/>
		<path style="fill-rule:evenodd;clip-rule:evenodd;fill:#482D1D;" d="M260.05,35.9l-2.899-5.3l-3.351-3.35l4.8-4.85l0.101-4.45
			c-0.3-2.5-1.617-3.817-3.95-3.95c-1.4-0.1-2.783-0.167-4.15-0.2l-1.6-0.05l4.85-3.15c3.5-2.133,5.934-3.25,7.301-3.35
			c2.166-0.133,5.166-1.333,9-3.6c0.333,3.567,0.416,5.817,0.25,6.75c-0.067,0.434-0.9,1.1-2.5,2c-1.567,0.867-2.384,1.633-2.45,2.3
			c0,0.233,0.083,1.267,0.25,3.1c0.133,1.233,0.017,2.133-0.351,2.7l-2.899,4.35l-0.95,2.4c0.633,1.6,0.8,2.883,0.5,3.85
			L260.05,35.9z"/>
		<path style="fill-rule:evenodd;clip-rule:evenodd;fill:#482D1D;" d="M235.1,95.45V91.6l1.95-6.25L238,79.1l2.4,4.35
			c0.633,3.833,0.633,6.55,0,8.15c-0.4,1-0.684,2.833-0.851,5.5l-0.1,3.65l-3.4,6.75c-1.399,2.8-3.483,4.2-6.25,4.2
			c-2.7-0.566-4.3-0.851-4.8-0.851c-0.533,0,0.383-0.783,2.75-2.35c2.934-1.934,4.583-3.083,4.95-3.45
			c0.6-0.566,1.05-1.533,1.35-2.9c0.167-0.767,0.367-1.883,0.601-3.35C234.95,97.533,235.1,96.417,235.1,95.45z"/>
		<path style="fill-rule:evenodd;clip-rule:evenodd;fill:#482D1D;" d="M275.5,82.95c0.633,3.833,0.95,6.083,0.95,6.75
			c0,3.533-0.15,5.767-0.45,6.7c-0.1,0.333-0.2,1.083-0.3,2.25c-0.101,1-0.333,1.867-0.7,2.6c-0.4,0.8-1.8,1.517-4.2,2.15l-3.45,0.7
			l1.9-1.9l0.85-1.05c0.801-0.7,1.801-1.15,3-1.35c1.2-0.2,1.4-0.9,0.601-2.1l-1.55-1.75L275.5,82.95z"/>
		<path style="fill-rule:evenodd;clip-rule:evenodd;fill:#482D1D;" d="M258.65,122.85c0.967,4.5,1.133,7.384,0.5,8.65
			c-0.567,1.3-0.983,2.25-1.25,2.85c-0.5,1.034-1.051,1.851-1.65,2.45c-1.967,2.066-3.4,4-4.3,5.8c-0.4,0.801-0.283,1.434,0.35,1.9
			c0.333,0.267,0.7,0.434,1.101,0.5c0.3,1.9,0.3,3.667,0,5.3l-1.45,7.2c-0.467,0.566-1.134,1.184-2,1.85
			c-1.667,1.367-3.4,2.351-5.2,2.95c-1.8,0.601-2.917,0.783-3.35,0.55l-0.051-0.55l-3.35-3.35l1.45-0.5
			c0.967-0.334,1.917-0.967,2.85-1.9v-4.85l1.4-0.4c1.066-0.399,1.883-0.899,2.45-1.5c0.467-0.467,0.649-1.533,0.55-3.2
			c-0.067-1.399,0.233-2.1,0.899-2.1c0.667,0,1.467-2.566,2.4-7.7V132l3.4-0.5l2.85-9.6L258.65,122.85z"/>
		<path style="fill-rule:evenodd;clip-rule:evenodd;fill:#482D1D;" d="M238.95,163.75c0.8,0,1.533,0.566,2.2,1.7
			c0.3,0.533,0.533,1.083,0.699,1.649h-3.35c-0.4,0-1.083,0.167-2.05,0.5c-1,0.301-1.934,0.45-2.8,0.45c-1,0-1.7-0.25-2.101-0.75
			c-0.5-0.934-1.083-1.8-1.75-2.6c-0.8-1-1.2-1.934-1.2-2.8c0-0.467,0.084-0.817,0.25-1.051h3.351l4.85,2.9H238.95z"/>
		<path style="fill-rule:evenodd;clip-rule:evenodd;fill:#482D1D;" d="M232.4,53.85l1.25-6.95c0.5,1.434,0.75,2.55,0.75,3.35
			c0.166,1.933,0.183,3.45,0.05,4.55c-0.067,0.7,0.35,1.4,1.25,2.1c0.433,0.333,0.883,0.6,1.35,0.8c0.8,1.3,1.351,2.267,1.65,2.9
			c0.2,0.367,0.267,0.85,0.2,1.45l-0.2,1.45c0,0.767-1.351,1.717-4.05,2.85c-0.7,0.3-1.051,0.833-1.051,1.6
			c0.134,0.866,0.15,1.466,0.051,1.8c-0.101,0.5-1.15,1.517-3.15,3.05c-1.967,1.534-2.833,1.95-2.6,1.25
			c0.232-0.667,0.533-1.966,0.899-3.9c0.367-1.8,0.55-2.9,0.55-3.3c0-0.367,0.268-0.917,0.801-1.65
			c0.533-0.733,0.982-1.233,1.35-1.5c0.467-0.3,1.833-1.5,4.1-3.6C234.8,57.533,233.733,55.45,232.4,53.85z"/>
		<polygon style="fill-rule:evenodd;clip-rule:evenodd;fill:#6D4126;" points="45.15,115.15 49,120 46.6,120 41.8,121.45 
			36.75,121.45 38.45,118.05 		"/>
		<path style="fill-rule:evenodd;clip-rule:evenodd;fill:#6D4126;" d="M57.2,157.35l4.3-1l2.4,2.4l-4.8,0.5l7.7,4.8l-3.35-0.95
			c-1.634-0.466-2.983-0.716-4.05-0.75c-0.933-0.066-2.15,0.017-3.65,0.25c-1.1,0.2-2.167,0.851-3.2,1.95
			c-1.066,1.167-1.767,1.8-2.1,1.9c-0.6,0.2-1.15,0.833-1.65,1.899c-0.5,1.334-0.917,2.317-1.25,2.95c-0.4,0.8-1.316,2.15-2.75,4.05
			L42.75,178l-1.45-12.5l3.15-3.3c2.233-2.334,3.75-3.8,4.55-4.4c0.867-0.633,2.117-0.95,3.75-0.95
			C53.783,156.85,55.267,157.017,57.2,157.35z"/>
		<path style="fill-rule:evenodd;clip-rule:evenodd;fill:#6D4126;" d="M37,134.4l8.15,3.85c-2.867,0.333-5.1,0.983-6.7,1.95
			c-1.033,0.6-1.583,1.184-1.65,1.75L37,142.6l-1.95-1v-4.8L37,134.4z"/>
		<path style="fill-rule:evenodd;clip-rule:evenodd;fill:#6D4126;" d="M97.6,119l-2.9,2.45l-5.8,1.899L84.6,120l-0.5-0.8
			c-0.167-0.566,0.15-0.95,0.95-1.15c3.034-0.7,5.117-1.333,6.25-1.899c0.067-0.034,0.684-0.567,1.85-1.601
			c0.567-0.5,1.467-0.633,2.7-0.399c2.1,0.366,4.117,1.033,6.05,2l-0.95,1.899L97.6,119z"/>
		<path style="fill-rule:evenodd;clip-rule:evenodd;fill:#6D4126;" d="M112.95,97.85l3.85,0.95l-5.3,2.9l-4.15-0.25
			c-1.067,1.133-1.767,2.183-2.1,3.15c-0.2,0.6-0.333,1.733-0.4,3.4l-0.05,2.35l-2.4-3.85l-0.5-1.6c-0.333-1.2-0.5-2.1-0.5-2.7
			c0-0.967,0.817-1.934,2.45-2.9l3.8-1.45H112.95z"/>
		<path style="fill-rule:evenodd;clip-rule:evenodd;fill:#6D4126;" d="M112,129.6l4.15-0.25c2.967-0.166,4.95-0.25,5.95-0.25h3.35
			l-1.9,1.95c-0.966,1.601-1.45,3.033-1.45,4.3c0,0.801-0.317,1.217-0.95,1.25l-0.95-0.25c-1.934-0.666-3.7-1-5.3-1
			c-0.933,0-1.7,0.45-2.3,1.351c-0.767,1.2-1.284,1.883-1.55,2.05c-0.6,0.4-1.5,0.116-2.7-0.85l-1.65-1.551l0.85-2.1
			c0.634-1.533,1.15-2.6,1.55-3.2C109.767,130.083,110.733,129.6,112,129.6z"/>
		<path style="fill-rule:evenodd;clip-rule:evenodd;fill:#6D4126;" d="M100,140.65c2.867,1.6,3.816,2.399,2.85,2.399h-4.3
			c-0.8,0-1.05,0.483-0.75,1.45l0.75,1.45l-3.85,2.899h-2.4c-1,0-1.533,0.717-1.6,2.15l0.15,2.15l-2.4,5.8L87.5,157l0.45-11.05
			c0-0.967,0.8-2.417,2.4-4.351l3.4-1.399L100,140.65z"/>
		<path style="fill-rule:evenodd;clip-rule:evenodd;fill:#6D4126;" d="M120.2,157.95l2.85-1.4v2.4c-0.3,2.566-0.933,4.316-1.9,5.25
			c-0.6,0.6-1.35,0.783-2.25,0.55l-1.15-0.55l-0.4-1.851c-0.233-1.366-0.25-2.35-0.05-2.949
			C117.6,158.434,118.566,157.95,120.2,157.95z"/>
		<path style="fill-rule:evenodd;clip-rule:evenodd;fill:#6D4126;" d="M91.8,173.35c1.934,1.601,2.9,2.884,2.9,3.851
			c0,2.233-0.167,4-0.5,5.3c-0.2,0.8-0.65,1.2-1.35,1.2l-1.05-0.25L88.45,182l-0.95-6.25l1.45-1
			C90.05,174.017,91,173.55,91.8,173.35z"/>
		<path style="fill-rule:evenodd;clip-rule:evenodd;fill:#6D4126;" d="M150.45,88.7l1.55-2.45c1.2-1.667,2.3-2.6,3.3-2.8
			c1.601-0.333,3.684-0.817,6.25-1.45h12.5l4.3-6.25l6.25-1.95l0.5,7.7l-3.85,1.95c-1.6,1.267-2.883,1.9-3.85,1.9h-13l-1.9,3.35
			c-1.934,0.333-3.383,0.5-4.35,0.5c-0.601,0-1.9,0.483-3.9,1.45l-2.8,1.45l-6.75,2.4l2-2.9C148.2,89.667,149.45,88.7,150.45,88.7z"
			/>
		<path style="fill-rule:evenodd;clip-rule:evenodd;fill:#6D4126;" d="M170.65,102.65c0.399,0.733,0.666,1.434,0.8,2.1
			c0.267,1.367-0.317,1.95-1.75,1.75c-1.4-0.2-2.7-0.25-3.9-0.15l-1.399,0.15c-1.9-0.3-3.5-0.45-4.801-0.45
			c-0.6,0-1.5,0.083-2.699,0.25c-1.2,0.133-2.217,0.2-3.051,0.2c-1,0-1.949,0.1-2.85,0.3l-1.1,0.3l-6.15,0.4l-2.9,1.4l0.95-3.85
			c0.5-0.133,1.5-0.583,3-1.35c1.533-0.7,2.783-1.05,3.75-1.05c0.4,0,1.317,0.133,2.75,0.4c0.8,0.133,1.483,0,2.05-0.4
			c0.967-0.633,2.9-1.75,5.801-3.35l3.85-0.95h3.8l2.9,1.45L170.65,102.65z"/>
		<path style="fill-rule:evenodd;clip-rule:evenodd;fill:#6D4126;" d="M150,133.95l2.45-0.95c2-0.667,3.899-1,5.7-1
			c1.8,0,3.633-0.483,5.5-1.45c0.899-0.467,1.633-0.95,2.199-1.45l6.75,1.45c-2.232,0.967-4,1.45-5.3,1.45
			c-0.6,0-1.35,0.35-2.25,1.05c-1.033,0.733-2.05,1.184-3.05,1.351c-0.934,0.166-1.816,0.383-2.65,0.649
			c-0.6,0.2-1.149,0.3-1.649,0.3c-0.467,0-1.417,0.267-2.851,0.801c-1.6,0.6-2.899,0.983-3.899,1.149
			c-1.2,0.2-1.884,1.066-2.05,2.601l0.149,2.199l-1-3.85L150,133.95z"/>
		<path style="fill-rule:evenodd;clip-rule:evenodd;fill:#6D4126;" d="M155.75,147.85c0.4-0.399,0.917-0.517,1.55-0.35
			c0.333,0.066,0.617,0.184,0.851,0.35l11.55,1.95H163c-1.133,0-2.383,0.417-3.75,1.25c-1.633,1-2.633,1.55-3,1.65
			c-1.3,0.3-4.033,0.45-8.2,0.45c-1.2,0-1.95,0.8-2.25,2.399l-0.149,2.4v-6.25l1.949-3.351L155.75,147.85z"/>
		<path style="fill-rule:evenodd;clip-rule:evenodd;fill:#6D4126;" d="M147.6,163.25l7.2,1.45L152.4,167.1l-6.75,4.351h-1.45
			c-0.567,0-1.217-0.233-1.95-0.7l-0.9-0.75l0.1-2.35c0.167-1.7,0.45-2.851,0.85-3.45c0.4-0.566,1.4-0.9,3-1
			C146.1,163.167,146.867,163.184,147.6,163.25z"/>
		<path style="fill-rule:evenodd;clip-rule:evenodd;fill:#6D4126;" d="M137,179.15l-2.9,1.399l-4.8-1.399l4.35-3.4l7.7-0.45
			c0.333,0.4,0.567,0.8,0.7,1.2c0.333,0.8,0.1,1.2-0.7,1.2C140.55,177.7,139.1,178.184,137,179.15z"/>
		<path style="fill-rule:evenodd;clip-rule:evenodd;fill:#6D4126;" d="M210.6,149.8l4.801,2.9c-3.867,1.899-7.067,3.184-9.601,3.85
			c-1.533,0.367-2.683,1.884-3.45,4.55c-0.566,2.101-0.866,3.134-0.899,3.101c-0.2-0.4-0.667-1.717-1.4-3.95
			c-0.333-1.134-0.667-2.217-1-3.25l1.65-2.25c1.2-1.6,2.083-2.616,2.649-3.05c0.634-0.434,1.667-0.8,3.101-1.101
			C207.15,150.434,208.533,150.167,210.6,149.8z"/>
		<path style="fill-rule:evenodd;clip-rule:evenodd;fill:#6D4126;" d="M213.45,87.3c-0.567,0.6-0.817,1.817-0.75,3.65l1.25,13.15
			l-2.65,4.35l-2.649-5.8L205.8,91.6l0.45-6.7l3.4-6.05l6.899-3.05l8-0.05l-0.5,2.9l-1.45,4.3L220.7,86.3l-1-2.85
			C216.5,85.05,214.417,86.333,213.45,87.3z"/>
		<path style="fill-rule:evenodd;clip-rule:evenodd;fill:#6D4126;" d="M212.5,55.55c-0.6,0-1.417,0.883-2.45,2.65l-1.399,2.65
			c-0.167,0.466-0.417,0.95-0.75,1.45c-0.733,0.934-1.601,1.4-2.601,1.4h-3.85L202,56l4.55-1.65l8.351-0.5l3.85,1.2
			C215.55,55.383,213.467,55.55,212.5,55.55z"/>
		<path style="fill-rule:evenodd;clip-rule:evenodd;fill:#6D4126;" d="M260.1,75.75c0.301-0.867,0.768-1.583,1.4-2.15
			c0.833-0.8,2.133-1.534,3.9-2.2l7.199,1.95c-2.866,0.633-4.783,1.267-5.75,1.9c-1.066,0.7-2.517,2.783-4.35,6.25l-3.35,6.25v-1.9
			c0-1.133,0.1-2.883,0.3-5.25C259.684,78.033,259.9,76.417,260.1,75.75z"/>
		<path style="fill-rule:evenodd;clip-rule:evenodd;fill:#6D4126;" d="M252.4,37.25l5.3-1.4c-1.267,1.6-2.384,2.716-3.351,3.35
			c-0.6,0.4-1.05,1.167-1.35,2.3c-0.233,1.367-0.434,2.367-0.6,3c-0.2,0.8-0.268,2.217-0.2,4.25l0.1,2.85l-2.75-4.7l0.2-2.8
			c0.233-2.167,0.65-3.967,1.25-5.4c0.467-1.1,0.7-1.583,0.7-1.45C251.7,37.75,251.934,37.75,252.4,37.25z"/>
		<path style="fill-rule:evenodd;clip-rule:evenodd;fill:#6D4126;" d="M206.8,125.5c-2.333,0.967-3.8,1.85-4.399,2.65
			c-0.601,0.8-1.018,1.933-1.25,3.399l-0.2,1.9l-3.851-2.9l0.5-5.75l1.5-0.7c1.367-0.5,2.95-0.75,4.75-0.75l6.25,0.95
			C209.066,124.634,207.967,125.033,206.8,125.5z"/>
		<path style="fill-rule:evenodd;clip-rule:evenodd;fill:#6D4126;" d="M225.95,126.25c1.3-0.333,3.633-1.5,7-3.5l5.55,3.95l-5.8,0.5
			c-3.533,0.633-5.934,0.95-7.2,0.95c-0.8,0-1.75,0.8-2.85,2.399c-1.134,1.934-1.95,3.217-2.45,3.851
			c-0.601,0.8-1.184,1.199-1.75,1.199l-0.65-0.25l0.5-7.649L225.95,126.25z"/>
		<path style="fill-rule:evenodd;clip-rule:evenodd;fill:#6D4126;" d="M266.85,145.95l5.301-1.9c-1.301,3.834-2.268,6.233-2.9,7.2
			c-0.967,1.467-1.45,2.9-1.45,4.3c0,0.9-0.417,1.65-1.25,2.25c-0.967,0.667-1.983,0.566-3.05-0.3c-1-0.8-1.617-1.934-1.85-3.4
			c-0.134-0.699-0.167-1.333-0.101-1.899l1.95-2.05C264.934,148.55,266.05,147.15,266.85,145.95z"/>
		<path style="fill-rule:evenodd;clip-rule:evenodd;fill:#6D4126;" d="M78.8,138.75l2.9,1.45c-0.634,2.233-1.117,4.149-1.45,5.75
			c-0.167,0.967-0.684,1.35-1.55,1.149c-1.033-0.433-1.8-0.649-2.3-0.649c-0.6,0-0.85-0.8-0.75-2.4
			c0.034-0.833,0.133-1.649,0.3-2.45L78.8,138.75z"/>
		<path style="fill-rule:evenodd;clip-rule:evenodd;fill:#55351E;" d="M34.25,114.2c0.767-0.167,1.467,0.149,2.1,0.95
			c0.7,0.899,0.75,1.866,0.15,2.899s-1.417,1.533-2.45,1.5c-0.966-0.066-1.533-0.45-1.7-1.149c-0.2-0.801-0.167-1.601,0.1-2.4
			C32.783,115.033,33.383,114.434,34.25,114.2z"/>
		<path style="fill-rule:evenodd;clip-rule:evenodd;fill:#55351E;" d="M85.25,108.1c1.133-0.467,2.267-0.45,3.4,0.05
			s1.7,1.233,1.7,2.2c0,0.9-0.5,1.567-1.5,2c-0.9,0.367-1.9,0.45-3,0.25c-1-0.166-1.633-0.816-1.9-1.949
			C83.684,109.45,84.117,108.6,85.25,108.1z"/>
		<path style="fill-rule:evenodd;clip-rule:evenodd;fill:#55351E;" d="M111.85,106.5c1.567,0,1.983,2.033,1.25,6.1
			c-0.133,0.834-0.8,1.167-2,1c-0.633-0.1-1.567-0.383-2.8-0.85c-0.733-0.333-0.683-1.45,0.15-3.35
			C109.316,107.467,110.45,106.5,111.85,106.5z"/>
		<path style="fill-rule:evenodd;clip-rule:evenodd;fill:#55351E;" d="M135.9,127.35c-1.6-0.166-2.716-0.517-3.35-1.05
			c-0.767-0.633-1.15-1.783-1.15-3.45c0-1.6,0.333-2.5,1-2.699c0.4-0.134,1.45,0.017,3.15,0.449c0.8,0.2,1.384,1.417,1.75,3.65
			C137.667,126.483,137.2,127.517,135.9,127.35z"/>
		<path style="fill-rule:evenodd;clip-rule:evenodd;fill:#55351E;" d="M132.1,101.55c0.867-1.6,1.917-2.4,3.15-2.4
			c1.4,0,2.217,0.6,2.45,1.8c0.133,0.633,0.066,1.633-0.2,3c-0.167,0.833-0.684,1.35-1.55,1.55c-0.934,0.233-2.017,0.033-3.25-0.6
			C131.467,104.3,131.267,103.183,132.1,101.55z"/>
		<path style="fill-rule:evenodd;clip-rule:evenodd;fill:#55351E;" d="M201.15,105.65c0.366,2.434-0.117,4.333-1.45,5.7
			c-0.867,0.834-2.333,0.567-4.4-0.8c-1.733-1.133-2.95-2.267-3.649-3.4c-0.467-0.8-0.283-1.65,0.55-2.55
			c0.833-0.934,2.05-1.583,3.649-1.95C198.95,101.95,200.717,102.95,201.15,105.65z"/>
		<path style="fill-rule:evenodd;clip-rule:evenodd;fill:#55351E;" d="M200.35,69.35c2.167-0.133,3.25,0.6,3.25,2.2
			c0,0.534-0.35,1.817-1.05,3.85c-0.233,0.8-0.983,0.95-2.25,0.45c-1.566-0.8-2.733-1.367-3.5-1.7c-1.167-0.5-1.333-1.4-0.5-2.7
			C197.133,70.15,198.483,69.45,200.35,69.35z"/>
		<path style="fill-rule:evenodd;clip-rule:evenodd;fill:#55351E;" d="M217.3,61.95l0.65-1.25c0.767-0.9,1.95-1.55,3.55-1.95
			c1.7-0.434,2.55,0.583,2.55,3.05c0,2.233-0.433,3.883-1.3,4.95c-0.533,0.667-1.6,0.066-3.2-1.8L217.3,61.95z"/>
		<path style="fill-rule:evenodd;clip-rule:evenodd;fill:#55351E;" d="M243.6,113.25c2.634-0.3,4.167,0.417,4.601,2.15
			c0.433,1.633-0.033,2.833-1.4,3.6c-1,0.6-2.233,0.483-3.7-0.35c-1.199-0.667-2.1-1.5-2.699-2.5
			C239.467,114.55,240.533,113.583,243.6,113.25z"/>
		<path style="fill-rule:evenodd;clip-rule:evenodd;fill:#55351E;" d="M266.7,60.35c2-0.133,3.149,0.816,3.45,2.85
			c0.3,2-0.317,3.5-1.851,4.5c-1.3,0.9-2.733,0.7-4.3-0.6c-1.4-1.2-2.1-2.383-2.1-3.55C261.9,61.65,263.5,60.583,266.7,60.35z"/>
		<path style="fill-rule:evenodd;clip-rule:evenodd;fill:#55351E;" d="M191.35,143.05c1.601-0.434,2.7,0.351,3.301,2.351
			c0.5,1.8,0.467,3.483-0.101,5.05c-0.399,1.1-1.35,1.434-2.85,1c-0.434-0.134-1.617-0.684-3.55-1.65
			c-1.033-0.5-1.167-1.616-0.4-3.35C188.483,144.65,189.684,143.517,191.35,143.05z"/>
		<path style="fill-rule:evenodd;clip-rule:evenodd;fill:#55351E;" d="M36.2,155.25c2.033,1.033,2.316,2.2,0.85,3.5
			c-1.5,1.4-2.65,1.616-3.45,0.65c-0.633-0.801-0.567-1.801,0.2-3C34.533,155.2,35.333,154.816,36.2,155.25z"/>
		<path style="fill-rule:evenodd;clip-rule:evenodd;fill:#5B554D;" d="M33.3,113.25c0.767-0.167,1.467,0.15,2.1,0.95
			c0.667,0.899,0.717,1.866,0.15,2.899c-0.6,1.034-1.417,1.534-2.45,1.5c-0.967-0.066-1.55-0.466-1.75-1.199
			c-0.2-0.767-0.15-1.551,0.15-2.351C31.833,114.083,32.434,113.483,33.3,113.25z"/>
		<path style="fill-rule:evenodd;clip-rule:evenodd;fill:#5B554D;" d="M84.25,107.15c1.133-0.467,2.267-0.45,3.4,0.05
			c1.167,0.5,1.75,1.233,1.75,2.2c0,0.9-0.5,1.55-1.5,1.95c-0.9,0.367-1.9,0.467-3,0.301c-1-0.167-1.633-0.834-1.9-2
			C82.7,108.45,83.117,107.617,84.25,107.15z"/>
		<path style="fill-rule:evenodd;clip-rule:evenodd;fill:#5B554D;" d="M110.9,105.55c1.567,0,1.983,2.034,1.25,6.101
			c-0.2,1.333-1.8,1.366-4.8,0.1c-0.733-0.3-0.683-1.4,0.15-3.3C108.367,106.517,109.5,105.55,110.9,105.55z"/>
		<path style="fill-rule:evenodd;clip-rule:evenodd;fill:#5B554D;" d="M134.6,119.65c0.8,0.199,1.383,1.399,1.75,3.6
			c0.333,2.233-0.15,3.283-1.45,3.15c-1.6-0.2-2.7-0.551-3.3-1.051c-0.767-0.633-1.15-1.783-1.15-3.449c0-1.601,0.333-2.5,1-2.7
			C131.85,119.066,132.9,119.217,134.6,119.65z"/>
		<path style="fill-rule:evenodd;clip-rule:evenodd;fill:#5B554D;" d="M134.3,98.2c1.4,0,2.217,0.6,2.45,1.8
			c0.133,0.633,0.066,1.633-0.2,3c-0.167,0.833-0.7,1.35-1.6,1.55c-0.9,0.233-1.983,0.034-3.25-0.6c-1.2-0.634-1.384-1.75-0.55-3.35
			C132.017,99,133.066,98.2,134.3,98.2z"/>
		<path style="fill-rule:evenodd;clip-rule:evenodd;fill:#5B554D;" d="M200.2,104.7c0.333,2.466-0.167,4.35-1.5,5.649
			c-0.833,0.867-2.283,0.617-4.351-0.75c-1.767-1.167-2.982-2.3-3.649-3.4c-0.467-0.8-0.283-1.65,0.55-2.55
			c0.833-0.933,2.05-1.583,3.65-1.95C198.033,101,199.8,102,200.2,104.7z"/>
		<path style="fill-rule:evenodd;clip-rule:evenodd;fill:#5B554D;" d="M199.35,68.35c2.2-0.133,3.301,0.617,3.301,2.25
			c0,0.533-0.351,1.816-1.051,3.85c-0.267,0.8-1.017,0.95-2.25,0.45c-1.566-0.8-2.732-1.367-3.5-1.7
			c-1.166-0.534-1.35-1.434-0.55-2.7C196.133,69.2,197.483,68.483,199.35,68.35z"/>
		<path style="fill-rule:evenodd;clip-rule:evenodd;fill:#5B554D;" d="M216.35,61l0.65-1.25c0.767-0.9,1.934-1.55,3.5-1.95
			c1.7-0.433,2.566,0.583,2.6,3.05c0,2.233-0.433,3.883-1.3,4.95c-0.533,0.667-1.6,0.067-3.2-1.8L216.35,61z"/>
		<path style="fill-rule:evenodd;clip-rule:evenodd;fill:#5B554D;" d="M242.65,112.3c2.6-0.3,4.133,0.417,4.6,2.15
			c0.434,1.633-0.033,2.833-1.4,3.6c-1.033,0.601-2.267,0.483-3.699-0.35c-1.233-0.7-2.134-1.55-2.7-2.55
			c-0.467-0.801-0.45-1.434,0.05-1.9S241.05,112.467,242.65,112.3z"/>
		<path style="fill-rule:evenodd;clip-rule:evenodd;fill:#5B554D;" d="M265.75,59.4c2-0.167,3.15,0.783,3.45,2.85
			c0.267,2-0.351,3.5-1.851,4.5c-1.3,0.9-2.732,0.683-4.3-0.65c-1.433-1.167-2.149-2.333-2.149-3.5
			C260.9,60.7,262.517,59.633,265.75,59.4z"/>
		<path style="fill-rule:evenodd;clip-rule:evenodd;fill:#5B554D;" d="M190.4,142.1c1.6-0.433,2.683,0.351,3.25,2.351
			c0.533,1.8,0.517,3.483-0.051,5.05c-0.399,1.1-1.35,1.434-2.85,1c-0.434-0.134-1.617-0.684-3.55-1.65
			c-1.033-0.533-1.167-1.666-0.4-3.399C187.533,143.684,188.733,142.566,190.4,142.1z"/>
		<path style="fill-rule:evenodd;clip-rule:evenodd;fill:#5B554D;" d="M35.2,154.3c2.033,1.033,2.333,2.2,0.9,3.5
			c-1.5,1.4-2.65,1.617-3.45,0.65c-0.633-0.8-0.583-1.8,0.15-3C33.566,154.25,34.367,153.866,35.2,154.3z"/>
		<path style="fill-rule:evenodd;clip-rule:evenodd;fill:#514C45;" d="M33.3,114.5c0.767-0.1,1.467,0.15,2.1,0.75
			c0.667,0.7,0.717,1.434,0.15,2.2c-0.6,0.8-1.417,1.166-2.45,1.1c-0.967-0.033-1.55-0.316-1.75-0.85
			c-0.167-0.601-0.117-1.2,0.15-1.8C31.833,115.134,32.434,114.667,33.3,114.5z"/>
		<path style="fill-rule:evenodd;clip-rule:evenodd;fill:#514C45;" d="M84.8,108.05c1-0.4,2.017-0.4,3.05,0
			c1.033,0.434,1.55,1.034,1.55,1.8c0,0.733-0.45,1.266-1.35,1.6c-0.833,0.3-1.733,0.383-2.7,0.25
			c-0.933-0.167-1.517-0.717-1.75-1.65C83.367,109.083,83.767,108.417,84.8,108.05z"/>
		<path style="fill-rule:evenodd;clip-rule:evenodd;fill:#514C45;" d="M111.25,106.85c1.2,0,1.533,1.667,1,5
			c-0.1,0.667-0.617,0.934-1.55,0.801c-0.467-0.067-1.184-0.301-2.15-0.7c-0.566-0.267-0.533-1.167,0.1-2.7
			C109.316,107.65,110.184,106.85,111.25,106.85z"/>
		<path style="fill-rule:evenodd;clip-rule:evenodd;fill:#514C45;" d="M135,120.85c0.6,0.167,1.05,1.15,1.35,2.95
			c0.3,1.834-0.067,2.7-1.1,2.601c-1.267-0.134-2.133-0.417-2.6-0.851c-0.633-0.533-0.95-1.483-0.95-2.85
			c0-1.334,0.267-2.084,0.8-2.25C132.833,120.35,133.667,120.483,135,120.85z"/>
		<path style="fill-rule:evenodd;clip-rule:evenodd;fill:#514C45;" d="M134.95,99.45c1.6,0,2.15,1.283,1.65,3.85
			c-0.133,0.667-0.517,1.083-1.15,1.25c-0.667,0.2-1.467,0.05-2.4-0.45c-0.9-0.5-1.033-1.4-0.4-2.7
			C133.25,100.1,134.017,99.45,134.95,99.45z"/>
		<path style="fill-rule:evenodd;clip-rule:evenodd;fill:#514C45;" d="M200.2,105.35c0.3,2.2-0.134,3.883-1.3,5.05
			c-0.733,0.767-1.983,0.55-3.75-0.65c-1.533-1.033-2.601-2.05-3.2-3.05c-0.434-0.733-0.283-1.5,0.45-2.3
			c0.732-0.833,1.8-1.417,3.199-1.75C198.3,102.017,199.833,102.917,200.2,105.35z"/>
		<path style="fill-rule:evenodd;clip-rule:evenodd;fill:#514C45;" d="M199.9,69c1.833-0.133,2.75,0.533,2.75,2
			c0,0.4-0.283,1.583-0.851,3.55c-0.233,0.7-0.866,0.833-1.899,0.4c-1.334-0.767-2.317-1.3-2.95-1.6
			c-0.967-0.434-1.101-1.233-0.4-2.4C197.25,69.75,198.367,69.1,199.9,69z"/>
		<path style="fill-rule:evenodd;clip-rule:evenodd;fill:#514C45;" d="M221.4,57.8c1.133-0.433,1.699,0.583,1.699,3.05
			c0,2.233-0.283,3.883-0.85,4.95c-0.367,0.667-1.083,0.067-2.15-1.8l-1.5-3l0.45-1.25C219.55,58.85,220.333,58.2,221.4,57.8z"/>
		<path style="fill-rule:evenodd;clip-rule:evenodd;fill:#514C45;" d="M243.55,113.25c2.101-0.233,3.333,0.384,3.7,1.85
			c0.367,1.367,0,2.367-1.1,3c-0.801,0.5-1.783,0.4-2.95-0.3c-1-0.566-1.75-1.267-2.25-2.1c-0.367-0.7-0.351-1.25,0.05-1.65
			C241.4,113.684,242.25,113.417,243.55,113.25z"/>
		<path style="fill-rule:evenodd;clip-rule:evenodd;fill:#514C45;" d="M266.3,61.3c1.667-0.1,2.634,0.633,2.9,2.2
			c0.233,1.533-0.3,2.667-1.601,3.4c-1.1,0.667-2.3,0.5-3.6-0.5c-1.2-0.933-1.8-1.833-1.8-2.7
			C262.267,62.233,263.633,61.433,266.3,61.3z"/>
		<path style="fill-rule:evenodd;clip-rule:evenodd;fill:#514C45;" d="M191.3,144c1.2-0.333,2.017,0.283,2.45,1.85
			c0.4,1.4,0.383,2.7-0.05,3.9c-0.3,0.866-1,1.134-2.101,0.8c-0.333-0.1-1.232-0.533-2.699-1.3c-0.768-0.4-0.867-1.267-0.301-2.6
			C189.167,145.25,190.066,144.366,191.3,144z"/>
		<path style="fill-rule:evenodd;clip-rule:evenodd;fill:#514C45;" d="M35.35,155.5c1.9,0.733,2.183,1.6,0.85,2.6
			c-1.434,1.067-2.517,1.233-3.25,0.5c-0.6-0.6-0.55-1.35,0.15-2.25C33.8,155.45,34.55,155.167,35.35,155.5z"/>
	</g>
	<path style="fill-rule:evenodd;clip-rule:evenodd;fill:#55351E;" d="M34.15,130.05c0,0.7-0.167,1.834-0.5,3.4
		c-0.133,0.767-0.667,1.666-1.6,2.7c-0.366,0.433-0.8,0.6-1.3,0.5c-0.7-0.134-1.217-0.134-1.55,0c-0.533,0.199-0.884,0.533-1.05,1
		c-0.167,0.566-0.35,1.033-0.55,1.399c-0.233,0.434-0.284,1-0.15,1.7c0.2,1.134,0.3,1.9,0.3,2.3c0,0.667-0.017,1.15-0.05,1.45
		c-0.067,0.267-0.1,0.7-0.1,1.3c0,0.7-0.284,1.117-0.85,1.25c-1.233,0.3-1.967,0.517-2.2,0.65c-0.767,0.399-1.233,0.6-1.4,0.6
		c-0.1-0.066-0.233-0.1-0.4-0.1s-0.8-0.167-1.9-0.5c-0.367-0.101-0.8-0.467-1.3-1.101c-0.267-0.333-0.533-0.916-0.8-1.75
		c-0.133-0.399-0.233-0.783-0.3-1.149l1.45,0.95c0.4,0.333,1.083,0.383,2.05,0.149c0.933-0.267,1.533-0.633,1.8-1.1
		c0.333-0.7,0.333-1.934,0-3.7c-0.133-0.6-0.3-2.1-0.5-4.5c-0.1-1.267,0-2.75,0.3-4.45c-1.066,1.134-2.433,1.25-4.1,0.351
		l-2.15-1.65l1.6,0.15c1.167,0.066,2.083,0.066,2.75,0c1.067-0.101,1.817-0.851,2.25-2.25c1.067,0.767,1.65,1.416,1.75,1.949
		c0.167,0.9,0.434,1.801,0.8,2.7c0.267,0.634,0.733,0.867,1.4,0.7c0.367-0.1,0.966-0.267,1.8-0.5c0.534,0,1.15-0.2,1.85-0.6
		c0.367-0.233,0.767-0.517,1.2-0.851c0.333-0.233,0.65-1.366,0.95-3.399C33.983,128.616,34.15,129.417,34.15,130.05z"/>
	<path style="fill-rule:evenodd;clip-rule:evenodd;fill:#55351E;" d="M31.65,168.2c0.7-0.733,0.983-1.717,0.85-2.95
		c-0.066-0.634-0.217-1.184-0.45-1.65c1.2,1.067,1.9,1.967,2.1,2.7c0.733,1.834,1.167,3.334,1.3,4.5c0.1,1.2,0.1,2.533,0,4
		c-0.067,0.767-0.2,1.533-0.4,2.3c-0.4,1.334-0.7,2.483-0.9,3.45c-0.333,1.566-0.7,2.483-1.1,2.75c-0.5,0.134-0.933,0.3-1.3,0.5
		s-0.967,0.351-1.8,0.45c-0.833,0.1-1.417,0.267-1.75,0.5c-0.367,0.233-0.65,0.316-0.85,0.25c-0.434-0.233-0.833-0.366-1.2-0.4
		c-0.566-0.066-0.95-0.466-1.15-1.199c-0.333-1.2-0.6-1.967-0.8-2.301c-0.367-0.633-0.7-0.983-1-1.05
		c-0.467-0.133-0.767-0.25-0.9-0.35l-2.6-2.601l5,1.45h2.55c0.3,0,0.633-0.066,1-0.2c0.5-0.199,1.05-0.35,1.65-0.449
		c0.7-0.134,1.017-0.667,0.95-1.601c-0.034-1.399-0.017-2.217,0.05-2.45C31.233,172.884,31.483,171,31.65,168.2z"/>
	<path style="fill-rule:evenodd;clip-rule:evenodd;fill:#55351E;" d="M104.7,200.65c-0.367-0.867-0.7-1.684-1-2.45l3.05,3.05
		c0.667,0.667,1.333,1,2,1c0.4,0,0.917-0.066,1.55-0.2c0.467,0,1.25-0.25,2.35-0.75c1.067-0.533,1.833-1.033,2.3-1.5
		c0.2-0.2,0.533-0.733,1-1.6c0.467-0.834,1.1-1.584,1.9-2.25c0.833-0.7,1.25-2.384,1.25-5.05v-3.75
		c1.433,0.066,2.583-0.851,3.45-2.75c0.434-0.934,0.733-1.884,0.9-2.851l0.3,2.55c-0.3,0.634-0.566,1.384-0.8,2.25
		c-0.3,1.233-0.4,2.301-0.3,3.2c0.067,0.467,0.233,1.217,0.5,2.25c0.3,1.101,0.5,2,0.6,2.7c0.133,0.833,0.167,1.6,0.1,2.3
		c-0.167,1.8-0.25,2.8-0.25,3c-0.067,1.2-0.4,2.017-1,2.45c-1.6,1.066-2.55,1.75-2.85,2.05c-1.133,1.134-1.934,1.834-2.4,2.101
		l-2.1,0.8c-0.833,0.333-1.667,0.383-2.5,0.149c-0.934-0.366-1.7-0.633-2.3-0.8c-1.167-0.333-2.5-1.25-4-2.75
		C106.05,203.4,105.467,202.35,104.7,200.65z"/>
	<path style="fill-rule:evenodd;clip-rule:evenodd;fill:#55351E;" d="M79.85,201.75c1.367,0,2.617-0.967,3.75-2.9
		c0.533-0.966,0.933-1.816,1.2-2.55c0.233,2.434,0.35,4.3,0.35,5.601c0,0.866-0.15,1.767-0.45,2.699
		c-0.167,0.601-0.667,1.884-1.5,3.851c-0.6,1.434-1.35,2.1-2.25,2c-1.3-0.467-2.467-0.7-3.5-0.7c-1.267,0-2.3-0.167-3.1-0.5
		c-1.1-0.634-2.217-1.217-3.35-1.75c-1.4-0.667-2.25-1.483-2.55-2.45c-0.134-0.467-0.134-0.883,0-1.25l1.8,1.101
		c1.333,0.733,2.333,1.166,3,1.3c1.066,0.233,2.833-0.3,5.3-1.601l0.2-1.399C78.983,202.233,79.35,201.75,79.85,201.75z"/>
	<path style="fill-rule:evenodd;clip-rule:evenodd;fill:#6D4126;" d="M7.7,113.1c1.167,1.9,1.7,3.334,1.6,4.301
		c-0.066,0.6-0.3,1.366-0.7,2.3L8,120.95L6.9,117.1c-0.2-0.6-0.183-1.233,0.05-1.899C7.083,114.8,7.333,114.1,7.7,113.1z"/>
	<path style="fill-rule:evenodd;clip-rule:evenodd;fill:#6D4126;" d="M17.5,127.35c0-0.199,0.25-0.466,0.75-0.8
		c0.3-0.2,0.9-0.566,1.8-1.1c0.434-0.3,0.85-0.2,1.25,0.3c0.333,0.434,0.5,0.866,0.5,1.3c0,0.233-0.183,0.316-0.55,0.25
		c-0.6-0.1-1-0.133-1.2-0.1c-0.3,0.066-0.616,0.283-0.95,0.649c-0.4,0.467-0.667,0.733-0.8,0.801
		C17.767,128.884,17.5,128.45,17.5,127.35z"/>
	<path style="fill-rule:evenodd;clip-rule:evenodd;fill:#6D4126;" d="M28.55,127.35l2.7,1.301c-0.733,0.633-1.316,1.383-1.75,2.25
		c-0.267,0.533-0.833,0.683-1.7,0.449l-1.2-0.449l-0.15-0.851c-0.067-0.633-0.067-1.166,0-1.6c0.066-0.434,0.3-0.717,0.7-0.851
		C27.316,127.533,27.783,127.45,28.55,127.35z"/>
	<path style="fill-rule:evenodd;clip-rule:evenodd;fill:#6D4126;" d="M21.3,135.425c-0.153,0.301-0.319,1.293-0.5,2.976
		c-0.233,2-0.433,3.183-0.6,3.55c-0.2,0.467-0.483,0.55-0.85,0.25L18.9,141.6l-0.2-0.85c-0.133-0.667-0.167-1.233-0.1-1.7
		c0.066-0.434,0.7-1.35,1.9-2.75C20.93,135.845,21.196,135.554,21.3,135.425z"/>
	<path style="fill-rule:evenodd;clip-rule:evenodd;fill:#6D4126;" d="M26.8,163.4l1.75,1.3l-0.95,0.5c-0.4,0.2-0.633,0.383-0.7,0.55
		l0.05,0.25l0.95,1.25c-1.167,0-2.066,0.05-2.7,0.15c-0.4,0.1-0.633,0.25-0.7,0.449c-0.033,0.301-0.083,0.534-0.15,0.7
		c-0.033,0.066-0.434,0.816-1.2,2.25c-0.833,1.5-1.433,2.733-1.8,3.7c-0.434,1-0.75,1.217-0.95,0.65
		c-0.133-0.301-0.25-0.801-0.35-1.5c-0.1-0.301-0.167-0.9-0.2-1.801c-0.033-1.066,0.033-1.85,0.2-2.35
		c0.2-0.733,0.634-1.967,1.3-3.7l2.15-1C25.033,164.066,26.133,163.6,26.8,163.4z"/>
	<path style="fill-rule:evenodd;clip-rule:evenodd;fill:#6D4126;" d="M69.8,201.1c0.034-0.733,0.117-1.267,0.25-1.6
		c0.434-0.967,1.017-1.717,1.75-2.25c0.4-0.267,1.117-0.566,2.15-0.9c1.5-0.466,2.866-0.966,4.1-1.5
		c0.767-0.333,1.634,0.684,2.6,3.051l-1.75,0.149c-0.8,0.066-1.3,0.101-1.5,0.101c-0.233,0.033-0.7,0.149-1.4,0.35
		c-0.633,0.2-0.967,0.533-1,1c-0.033,0.5-0.083,0.767-0.15,0.8c-0.1,0.033-0.483,0.033-1.15,0c-0.667-0.033-1.184,0.017-1.55,0.15
		c-0.4,0.133-0.917,0.434-1.55,0.899l-0.85,0.7L69.8,201.1z"/>
	<path style="fill-rule:evenodd;clip-rule:evenodd;fill:#6D4126;" d="M114.15,181.55c0.667-0.733,1.383-1.017,2.15-0.85
		c0.367,0.1,0.667,0.267,0.9,0.5c0.833,1.066,1.1,1.816,0.8,2.25c-0.2,0.267-0.717,0.399-1.55,0.399l-1.2-0.1
		c-1.6,0.767-2.55,1.25-2.85,1.45c-0.2,0.133-0.367,0.133-0.5,0l-0.15-0.3l0.6-1C112.883,183.066,113.483,182.283,114.15,181.55z"/>
	<path style="fill-rule:evenodd;clip-rule:evenodd;fill:#6D4126;" d="M114.6,188.75c0.1,0.3,0.15,0.634,0.15,1
		c0.033,0.8-0.217,1.434-0.75,1.9c-0.233,0.199-1.066,0.683-2.5,1.449c-1.367,0.7-2.566,1.551-3.6,2.551
		c-1.167,1.1-1.883,1.5-2.15,1.199c-0.1-0.133-0.083-0.533,0.05-1.199c0.267-1.167,0.8-2.567,1.6-4.2c0.467-0.9,1.467-1.517,3-1.851
		C111.3,189.434,112.7,189.15,114.6,188.75z"/>
	<path style="fill-rule:evenodd;clip-rule:evenodd;fill:#482D1D;" d="M72.3,170c0,2.866-0.316,4.467-0.95,4.8
		c-0.4,0.2-0.75,0.783-1.05,1.75c-0.033,0.033-0.267,0.95-0.7,2.75c-0.2,0.7-0.633,1.667-1.3,2.9
		c-0.733,1.267-1.216,2.116-1.45,2.55c-0.3,0.566-0.833,0.934-1.6,1.1c-0.467,0.101-1.167,0.15-2.1,0.15c-0.433,0-1.2-0.15-2.3-0.45
		c-1.034-0.267-1.65-0.383-1.85-0.35c-0.2,0.066-0.483,0.267-0.85,0.6c-0.333,0.267-0.583,0.4-0.75,0.4
		c-0.6,0-1.783-0.384-3.55-1.15c-0.767-0.333-2.2-0.866-4.3-1.6c-0.8-0.267-1.75-0.717-2.85-1.351l-1.35-0.899l2.1,0.149
		c0.533,0,1.233-0.267,2.1-0.8L54.5,182c0.566,0.2,1.017,0.233,1.35,0.1c0.466-0.166,0.817-0.25,1.05-0.25
		c0.367,0,0.9,0.184,1.6,0.551c0.7,0.366,1.3,0.55,1.8,0.55c2.167,0,3.917-0.733,5.25-2.2c0.534-0.6,1.05-1.116,1.55-1.55
		c0.233-0.267,0.417-0.667,0.55-1.2l1.6-6.55l2.1,0.149C71.65,171.6,71.967,171.066,72.3,170z"/>
	<path style="fill-rule:evenodd;clip-rule:evenodd;fill:#482D1D;" d="M31.25,179.75c0.867-0.1,1.934-1.75,3.2-4.95
		c-0.1,1.4-0.517,2.783-1.25,4.15c-1.033,1.866-2.217,3.05-3.55,3.55c-0.8,0.267-1.867,0.15-3.2-0.35c-0.4-0.134-1-0.567-1.8-1.301
		l-1.1-1.1l5.15,0.8L31.25,179.75z"/>
	<path style="fill-rule:evenodd;clip-rule:evenodd;fill:#482D1D;" d="M104.4,200.1l-0.2-0.449l1.55,0.949
		c1.434,0.567,3.167,0.667,5.2,0.301c2-0.334,3.883-1.25,5.65-2.75c0.9-0.767,1.583-1.5,2.05-2.2c0.733-3.634,1.05-5.667,0.95-6.101
		l-0.5-2.699l1.6-0.5l1.75-1.9c0.233,1.7,0.133,2.767-0.3,3.2c-0.267,0.267-0.483,0.833-0.65,1.7l-0.15,1.199
		c-0.1,2.667-0.2,4.584-0.3,5.75c-0.1,0.867-0.833,2.184-2.2,3.95c-1.333,1.733-2.367,2.767-3.1,3.101c-1.2,0.533-2.533,0.8-4,0.8
		c-0.867,0-2.033-0.367-3.5-1.101c-1.434-0.699-2.417-1.35-2.95-1.949C104.9,200.934,104.6,200.5,104.4,200.1z"/>
	<path style="fill-rule:evenodd;clip-rule:evenodd;fill:#55351E;" d="M33.85,200.3l1.25,0.101c0.966,0.033,1.75,0,2.35-0.101
		c0.633-0.1,1.083-0.3,1.35-0.6c0.2-0.167,0.467-0.533,0.8-1.101c0.333-0.433,0.533-1.033,0.6-1.8c0.066-0.5,0.1-1.416,0.1-2.75
		c0-2.1,0.083-3.633,0.25-4.6l0.95-4.3c0.5,1.267,0.833,2.216,1,2.85c0.633,3.233,1.033,5.083,1.2,5.55
		c0.1,0.267,0.133,0.767,0.1,1.5c-0.066,1.267-0.1,1.967-0.1,2.101c0,1.199-0.483,2.966-1.45,5.3c-0.233,0.566-0.45,0.8-0.65,0.7
		c-0.534-0.301-1.284-0.367-2.25-0.2c-1.2,0.2-2.017,0.184-2.45-0.05c-0.433-0.367-0.9-0.684-1.4-0.95
		c-0.6-0.3-1.05-0.667-1.35-1.101L33.85,200.3z"/>
	<path style="fill-rule:evenodd;clip-rule:evenodd;fill:#55351E;" d="M57.85,201c0.333,0,0.883-0.483,1.65-1.45
		c0.6-0.767,0.934-1,1-0.7c0.1,0.434,0.217,1.184,0.35,2.25c0.1,0.967,0.15,1.65,0.15,2.051c0,0.366-0.283,1.033-0.85,2
		c-0.533,0.899-1.05,1.6-1.55,2.1c-0.433,0.434-1.017,0.767-1.75,1c-0.433,0.134-1.133,0.283-2.1,0.45
		c-0.6,0.1-1.417-0.517-2.45-1.851l-1.4-2l2.7,0.4c1.867,0.2,3.05,0.15,3.55-0.15C57.95,204.6,58.184,203.233,57.85,201z"/>
</g>
<path style="fill-rule:evenodd;clip-rule:evenodd;fill:#482D1D;" d="M268,3.6c1.233-0.333,2.667-0.55,4.3-0.65
	c1.7-0.134,3.167-0.083,4.4,0.15c2.733,0.5,4.433,0.85,5.1,1.05c1.833,0.533,3.15,1.333,3.95,2.4c0.066,1.5,0.117,2.633,0.15,3.4
	c0.066,1.3,0.166,2.366,0.3,3.2c-1.333,0.067-3.067,0.1-5.2,0.1c-2.833-0.033-4.583-0.05-5.25-0.05
	c-2.6,0.033-6.684,1.167-12.25,3.4c-6.233,2.533-10.333,3.966-12.3,4.3c-6.601,1.2-13.533,3.15-20.8,5.85
	c-3.434,1.3-10.084,4.1-19.95,8.4c-7.067,3.1-11.8,5.233-14.2,6.4c-3.566,1.7-8.184,4.117-13.85,7.25
	c-6.268,3.5-11.551,6.233-15.851,8.2c-0.533,0.233-1.917,0.667-4.149,1.3c-1.9,0.5-3.233,1.017-4,1.55
	c-0.167,0.1-1.467,0.483-3.9,1.15c-2.566,0.7-4,1.117-4.3,1.25c-2.567,0.267-4.767,0.9-6.6,1.9c-2.7,1.5-4.317,2.333-4.85,2.5
	c-0.5,0.233-1.017,0.533-1.55,0.9c-1.8,1.233-3.867,2.434-6.2,3.6c-1.133,0.6-3.333,1.65-6.6,3.15c-6,2.767-11.517,4.517-16.55,5.25
	c-2.467,0.367-5.183,1.184-8.15,2.45c-3.833,1.733-7.2,3.167-10.1,4.3c-1.833,0.733-4.667,1.367-8.5,1.9
	c-3.9,0.533-6.833,1.183-8.8,1.95c-1.5,0.6-4.8,2.033-9.9,4.3c-3.167,1.433-6.283,2.566-9.35,3.4c-2.333,0.633-4.883,1.767-7.65,3.4
	c-3.1,1.933-5.4,3.333-6.9,4.2c-5.434,3.2-10.35,4.2-14.75,3c-4.733-1.3-7.45-2.017-8.15-2.15c-3.167-0.633-5.9-0.716-8.2-0.25
	c-2.667,0.534-4.633-0.316-5.9-2.55c-1.267-2.267-0.583-3.833,2.05-4.7c2.567-0.833,7.367-1.783,14.4-2.85
	c1.1-0.167,2.783-0.167,5.05,0c2.267,0.2,3.95,0.2,5.05,0c1.233-0.233,2.934-0.833,5.1-1.8c2.3-1.033,4-1.683,5.1-1.95
	c0.6-0.134,4.117-0.833,10.55-2.1c4.3-0.867,7.817-1.817,10.55-2.85c1.567-0.6,4.017-2.05,7.35-4.35
	c2.933-2.033,5.383-3.267,7.35-3.7c1.4-0.3,4.167-0.7,8.3-1.2c3.433-0.434,6.183-0.983,8.25-1.65c2.133-0.7,5.35-1.767,9.65-3.2
	c3.733-1.2,7-2.133,9.8-2.8c0.833-0.2,2.617-0.733,5.35-1.6c1.967-0.6,3.784-1.033,5.45-1.3c2.5-0.367,5.933-1.317,10.3-2.85
	c3.9-1.333,8.284-3.467,13.15-6.4c2.767-1.7,6.851-4.3,12.25-7.8c2.067-1.267,5.05-2.367,8.95-3.3c4.4-1.067,7.417-1.983,9.05-2.75
	c0.8-0.367,2.017-1.1,3.65-2.2c1.533-1.033,2.783-1.75,3.75-2.15c5.233-2.267,9.017-3.983,11.35-5.15c1.934-1,4.367-2.367,7.3-4.1
	c3.7-2.167,6.117-3.567,7.25-4.2c4.834-2.767,11.301-5.45,19.4-8.05c2.233-0.733,5.3-1.633,9.2-2.7c3.333-1.066,6.2-2.533,8.6-4.4
	c1.667-1.3,3.617-2.233,5.851-2.8c0.033,0,2.183-0.417,6.449-1.25c1.367-0.267,3.15-0.867,5.351-1.8
	C265.167,4.55,266.934,3.9,268,3.6z"/>
<path style="fill-rule:evenodd;clip-rule:evenodd;fill:#5F4B23;" d="M262.7,2.65c2.467-1,4.233-1.65,5.3-1.95
	c1.233-0.333,2.667-0.55,4.3-0.65c1.7-0.133,3.167-0.083,4.4,0.15c2.967,0.566,4.667,0.917,5.1,1.05
	c1.833,0.566,3.15,1.383,3.95,2.45c0.066,1.5,0.117,2.616,0.15,3.35c0.066,1.3,0.166,2.367,0.3,3.2c-1.367,0.066-3.101,0.1-5.2,0.1
	c-3.033,0-4.783,0-5.25,0c-2.6,0.033-6.684,1.167-12.25,3.4c-6.3,2.533-10.4,3.967-12.3,4.3c-6.634,1.167-13.567,3.117-20.8,5.85
	c-3.601,1.333-10.25,4.133-19.95,8.4c-7,3.067-11.733,5.184-14.2,6.35c-3.533,1.667-8.15,4.083-13.85,7.25
	c-6.268,3.5-11.551,6.233-15.851,8.2c-0.5,0.233-1.883,0.667-4.149,1.3c-1.9,0.5-3.233,1.033-4,1.6c-0.134,0.1-1.434,0.483-3.9,1.15
	c-2.533,0.667-3.967,1.083-4.3,1.25c-2.567,0.267-4.767,0.883-6.6,1.85c-2.733,1.5-4.35,2.333-4.85,2.5l-1.55,0.9
	c-1.8,1.233-3.867,2.45-6.2,3.65c-0.9,0.467-3.1,1.5-6.6,3.1c-5.8,2.733-11.316,4.483-16.55,5.25c-2.467,0.4-5.183,1.217-8.15,2.45
	c-3.833,1.767-7.2,3.216-10.1,4.35c-1.833,0.7-4.667,1.316-8.5,1.85c-3.9,0.534-6.833,1.184-8.8,1.95c-1.5,0.6-4.8,2.033-9.9,4.3
	c-3.167,1.434-6.283,2.567-9.35,3.4c-7.033,2.3-12.233,3.95-15.6,4.95c-5.9,1.733-11.267,2.5-16.1,2.3
	c-5.3-0.233-10.917,0.233-16.85,1.4c-2.667,0.566-4.15-0.35-4.45-2.75c-0.333-2.434,0.833-4.067,3.5-4.9
	c1.767-0.6,4.15-1.167,7.15-1.7c0.2-0.033,2.617-0.434,7.25-1.2c1.1-0.167,2.783-0.167,5.05,0c2.267,0.2,3.95,0.2,5.05,0
	c1.233-0.233,2.934-0.816,5.1-1.75c2.333-1.033,4.034-1.683,5.1-1.95c0.967-0.233,4.483-0.95,10.55-2.15
	c4.3-0.833,7.817-1.767,10.55-2.8c1.567-0.6,4.017-2.066,7.35-4.4c2.933-2.033,5.383-3.267,7.35-3.7c1.3-0.267,4.067-0.667,8.3-1.2
	c3.4-0.434,6.15-0.983,8.25-1.65c2.133-0.7,5.35-1.767,9.65-3.2c3.733-1.2,7-2.133,9.8-2.8c0.767-0.2,2.55-0.717,5.35-1.55
	c1.967-0.6,3.784-1.033,5.45-1.3c2.3-0.367,5.733-1.317,10.3-2.85c3.867-1.333,8.25-3.483,13.15-6.45c2.767-1.7,6.851-4.3,12.25-7.8
	c2.067-1.267,5.05-2.367,8.95-3.3c4.4-1.067,7.417-1.983,9.05-2.75c0.767-0.367,1.983-1.1,3.65-2.2c1.533-1,2.783-1.7,3.75-2.1
	c5.233-2.233,9.017-3.967,11.35-5.2c1.934-0.967,4.367-2.317,7.3-4.05c3.768-2.233,6.184-3.65,7.25-4.25
	c4.733-2.667,11.2-5.35,19.4-8.05c2.233-0.7,5.3-1.583,9.2-2.65c3.3-1.1,6.167-2.583,8.6-4.45c1.667-1.3,3.617-2.233,5.851-2.8
	c0.033,0,2.183-0.417,6.449-1.25C258.717,4.183,260.5,3.583,262.7,2.65z"/>
</svg>
