<?xml version="1.0" encoding="iso-8859-1"?>
<!-- Generator: Adobe Illustrator 15.1.0, SVG Export Plug-In . SVG Version: 6.00 Build 0)  -->
<!DOCTYPE svg PUBLIC "-//W3C//DTD SVG 1.1//EN" "http://www.w3.org/Graphics/SVG/1.1/DTD/svg11.dtd">
<svg version="1.1" id="FlashAICB" xmlns="http://www.w3.org/2000/svg" xmlns:xlink="http://www.w3.org/1999/xlink" x="0px" y="0px"
	 width="318.25px" height="498px" viewBox="0 0 318.25 498" style="enable-background:new 0 0 318.25 498;" xml:space="preserve">
<g>
	<path style="fill-rule:evenodd;clip-rule:evenodd;fill:#F4FAFA;" d="M158.45,21.2c0.899,0.633,2.583,2.2,5.05,4.7
		c2.967,2.967,5.134,5.05,6.5,6.25l7.1,5.65c-2.866,0.534-5.316,1.367-7.35,2.5c-4.4,2.4-6.6,5.8-6.6,10.2
		c0,0.367,0.216,2.633,0.649,6.8c1.934-4.8,3.417-7.583,4.45-8.35c1.267-0.9,4.684-1.434,10.25-1.6c-3.9,4.033-6.9,7.683-9,10.95
		c-1.566,2.833-2.566,4.583-3,5.25c-0.6,0.934-1.55,1.467-2.85,1.6c-0.4,0.033-3.233,0.05-8.5,0.05c-2.6,0-4.217,0.466-4.85,1.4
		c-1.033,1.5-1.95,2.45-2.75,2.85c-2.066-1.233-4-2.934-5.8-5.1c-3.267-3.967-5.55-8.967-6.85-15c0.367,0.733,1.684,2.383,3.95,4.95
		c2.4,2.7,4.467,4.85,6.2,6.45l1,0.8c-3.066-3.933-5.316-7.316-6.75-10.15c-1.733-3.566-2.6-7.017-2.6-10.35
		c0-14.466,1.117-21.7,3.35-21.7c1.633,0,3.25,0.883,4.85,2.65c1.567,1.733,2.967,2.6,4.2,2.6c1.3,0,2.783-0.383,4.45-1.15
		C156.45,22.083,158.083,21.333,158.45,21.2z M178.65,47.3c1-0.566,1.699-0.983,2.1-1.25c1.4-0.966,2.6-2.017,3.6-3.15
		c3.034,1.934,4.884,3.083,5.551,3.45l-3.551-0.1C182.884,46.25,180.316,46.6,178.65,47.3z M198,202.85
		c0.667-1.6,1.217-5.25,1.65-10.95c0.3-4.333,0.449-8.133,0.449-11.4c0-3.833-1.1-7.333-3.3-10.5c-3.467-4.967-6.1-9.767-7.899-14.4
		c-0.934-2.367-1.684-5.4-2.25-9.1c-0.4-2.6-1.217-4.633-2.45-6.1c-1.101-1.3-1.566-4.117-1.4-8.45
		c0.167-4.633-0.133-7.667-0.899-9.1c-2.267-2.533-4.25-4.817-5.95-6.85c-3.267-3.967-4.9-7.517-4.9-10.65
		c0-1.367,0.95-2.717,2.851-4.05c1.066-0.733,3.183-1.85,6.35-3.35c6.1-2.967,9.15-5.684,9.15-8.15c0-1.2-0.467-4-1.4-8.4
		s-1.4-6.816-1.4-7.25c0-0.933,0.983-1.816,2.95-2.65c2.066-0.933,4.55-1.483,7.45-1.65c-4.533,1.3-6.8,2.816-6.8,4.55
		c0,0.033,1.616,1.783,4.85,5.25c3.2,4.133,4.8,7.917,4.8,11.35c0,0.3-0.383,2.35-1.149,6.15c-0.767,3.833-1.15,5.867-1.15,6.1
		c0,3.1,0.617,8.117,1.851,15.05c1.533,8.6,3.316,14.934,5.35,19c0.233-0.267,0.45-2.383,0.65-6.35
		c0.166-3.567,0.816-5.35,1.949-5.35c2.034,0,3.95,2.7,5.75,8.1c1.767,5.4,3.233,12.933,4.4,22.6c0.233,2.1,0.583,3.617,1.05,4.55
		c0.134,0.233,0.7,1.017,1.7,2.35c2,2.667,4.066,8.017,6.2,16.05c0.767,3.1,1.149,4.7,1.149,4.8c0.601,3.034,0.9,5.934,0.9,8.7
		c0,1.767-0.717,4.083-2.15,6.95c-1.466,2.9-2.199,4.966-2.199,6.2c0,2.434,0.199,4.833,0.6,7.2s0.6,3.667,0.6,3.9
		c0,0.567-0.116,1.233-0.35,2c-0.267,0.933-0.6,1.65-1,2.15c-3.3-2.8-5.634-4.85-7-6.15c-2.267-2.167-4.4-4.867-6.4-8.1
		c-0.8-1.3-1.233-2.2-1.3-2.7c0-0.1,0.117-0.733,0.351-1.9c0.633-3,0.166-8.583-1.4-16.75c-0.733-3.867-1.733-6.8-3-8.8
		c-1.2-1.9-1.866-3.233-2-4l-0.4-0.75c-0.233,1.533-0.35,2.633-0.35,3.3c0.6,9.267,0.9,14.233,0.9,14.9
		c-0.267,1.9-0.684,3.816-1.25,5.75C200.983,199.85,199.6,202.15,198,202.85z M196.25,205c1.066,1.167,2.35,1.917,3.85,2.25
		c0.034,0.033,1.384,0.2,4.051,0.5c3.433,0.433,6.033,2.533,7.8,6.3c2.133,4.567,4.684,8.284,7.649,11.15
		c4.467,4.3,9.317,6.017,14.551,5.15c0.066-0.667,0.1-3.967,0.1-9.9l1.15-0.15c1.166,0.067,2.55,0.6,4.149,1.6
		c1.733,1.033,3.267,2.333,4.601,3.9c0.199,1.5,0.399,2.6,0.6,3.3c0.333,1.167,1.033,2.2,2.1,3.1
		c2.834,10.167,5.917,17.899,9.25,23.2c2.034,3.233,4.667,6.083,7.9,8.55c2.8,2.166,4.616,4.2,5.45,6.1
		c1.366,3.101,2.05,8.367,2.05,15.8c0,4.867-0.85,7.65-2.55,8.351c-1-1-2.3-2.5-3.9-4.5c-1.133-1.434-2.399-2.684-3.8-3.75
		c-0.533-1-1.167-2.066-1.9-3.2c-0.966-5.3-2.033-8.85-3.199-10.65c-3.434-5.199-6.301-10.1-8.601-14.699
		c0.467,2.433,0.851,6,1.15,10.699c0.533,7.301,0.833,11.417,0.899,12.351c0.967,10.2,2.934,17.467,5.9,21.8l0.05,0.65l-0.3,7.3
		c0,3.7,1.25,6.783,3.75,9.25c0.7,0.7,1.816,1.7,3.35,3c1.334,1.267,2.367,2.533,3.101,3.8c-2.033,0.6-3.2,2.533-3.5,5.8
		c0.033,4,0.05,6.816,0.05,8.45c0,0.866-0.616,3.134-1.85,6.8c-1.233,3.7-1.851,8.05-1.851,13.05c0,3.7,0.7,8.767,2.101,15.2
		c1.399,6.434,2.1,9.917,2.1,10.45l-0.2-0.25c-1.767-8.5-3.483-15.05-5.149-19.65c-0.9-2.466-1.351-5.017-1.351-7.649
		c0-0.134,0.351-3.601,1.05-10.4c0.7-7.767,1.051-14.149,1.051-19.149c0-1.467-1.434-3.067-4.301-4.801
		c-2.199-1.366-6.216-3.333-12.05-5.899c2.167-1.467,3.667-2.717,4.5-3.75c0.8-0.934,1.2-1.9,1.2-2.9c0-1.1-1.783-3.899-5.35-8.399
		c-3.567-4.301-5.351-6.517-5.351-6.65c0-0.233,0.267-2.283,0.8-6.15c0.534-3.866,0.801-6.633,0.801-8.3c0-2.767-0.634-5.2-1.9-7.3
		c-0.667-1.134-2.033-2.767-4.1-4.9c-4.034-4.166-6.051-8.816-6.051-13.949c0-5.834,0.95-10.734,2.851-14.7
		c0.399-0.767,1.083-1.983,2.05-3.65c0.667-1.066,1.033-1.883,1.1-2.45l-0.199-0.8c-3.934,3.767-7.367,8.25-10.301,13.45
		c-3.699,6.566-5.55,12.684-5.55,18.35c0,3.5,0.25,6.051,0.75,7.65c0.533,1.134,0.851,2.134,0.95,3c-1.3-1.366-2.35-3.05-3.15-5.05
		c-0.699-1.7-1.05-3.084-1.05-4.15c0-4.434,1.134-9.866,3.4-16.3c2.233-6.433,3.35-10.333,3.35-11.7c0-3.066-4.283-7.05-12.85-11.95
		c-10-5.067-16.434-8.367-19.3-9.9c-3.767-2-6.534-3.934-8.301-5.8c-1.066-1.133-2.216-2.883-3.449-5.25
		c-2.9-5.667-7.834-11.217-14.801-16.65c-1.166-0.9-3.266-1.483-6.3-1.75c-3.933-0.333-6.767-0.767-8.5-1.3
		c-4.2-1.267-6.3-4.467-6.3-9.6l0.15-4.8c0.833,4.034,1.833,6.6,3,7.7c1.267,1.2,3.783,1.8,7.55,1.8c4.933,0,9.383-2.466,13.35-7.4
		c3.4-4.233,5.101-8,5.101-11.3c0-4.033-1.917-8.983-5.75-14.85c-3.967-6.1-7.567-9.15-10.8-9.15c-0.934,0.267-1.967,0.533-3.1,0.8
		c-2.233,0.533-4.15,0.8-5.75,0.8c-0.4,0-1.083-0.3-2.05-0.9c-0.967-0.633-2.233-0.95-3.8-0.95c-3.833,0-6.583,1.333-8.25,4
		c-1.167,1.9-2.15,5.45-2.95,10.65c-1.167,7.333-2.15,12.5-2.95,15.5c-1.767,6.733-4.417,12.883-7.95,18.45l-0.3-3.35
		c0-2.567,0.433-5.967,1.3-10.2c0.9-4.533,1.4-8.083,1.5-10.65c0.1-3.4,0.117-7.767,0.05-13.1c0-1.566-0.517-4.283-1.55-8.15
		c-1.066-3.833-1.6-6.3-1.6-7.4c0-4.167,1.316-7.133,3.95-8.9l-0.1,5.95c-0.1,3.667-0.133,7.6-0.1,11.8
		c0.066,8.333,0.45,14.333,1.15,18c0.566-3.367,2.95-11.75,7.15-25.15c3.833-13.867,5.667-25.2,5.5-34
		c1.133-0.466,2.95-0.917,5.45-1.35c2.167-0.367,3.75-0.833,4.75-1.4c3.133-1.867,4.767-7,4.9-15.4c0.233,0.767,0.35,3.1,0.35,7
		c0.333,2.6,0.8,5.383,1.4,8.35c1.233,5.933,2.617,9.967,4.15,12.1c1.467,2,3.583,4.333,6.35,7c2.167,2.133,3.483,3.767,3.95,4.9
		c2.134,5.167,4.733,9.567,7.8,13.2c1.9,2.233,2.851,5.033,2.851,8.4c0,7.867-0.283,13.383-0.851,16.55
		c-0.566,3.167-0.85,7.867-0.85,14.1c0,1.5,2.217,4.5,6.65,9c4.666,4.767,7.116,7.483,7.35,8.15c0.967,2.767,2.233,5.317,3.8,7.65
		C193.134,203.6,194.783,205,196.25,205z M229.35,294.8l3.9,6.5c0.167,3.834,0.25,6.084,0.25,6.75c0,2.8-0.517,4.417-1.55,4.851
		c-0.233,0.066-1.867,0.066-4.9,0c-7.733-4.067-13.633-7.617-17.7-10.65c-5.399-4.033-9.25-6.75-11.55-8.15l-0.55-0.449
		c-0.134-4.5-1-7.667-2.6-9.5c-1.101-1.267-3.25-2.417-6.45-3.45c-4.134-1.334-7.316-2.684-9.55-4.05
		c-4.167-2.5-8.101-6.233-11.801-11.2l0.4-1.2c-0.1-0.4-0.05-0.75,0.15-1.05l0.3-0.351l-0.45,1.4c1.2,1.2,4.583,2.467,10.15,3.8
		c2.866,0.7,6.1,1.434,9.699,2.2c0.767,0.267,2.4,1.684,4.9,4.25c2.4,2.467,4.1,3.783,5.1,3.95c0.2-0.033,0.384-0.084,0.551-0.15
		c0.066-0.066,0.1-0.316,0.1-0.75c0-1-0.3-1.8-0.9-2.399c-0.899-0.634-1.649-1.25-2.25-1.851c-2.433-2.5-4.25-7.467-5.449-14.899
		c0.366,0.433,0.866,1.116,1.5,2.05c0.666,0.833,1.533,1.55,2.6,2.149c3,1.634,8.483,2.834,16.45,3.601
		c0.033-0.167,0.05,0.083,0.05,0.75l-1.55,4.649c0,1.534,1.083,3.601,3.25,6.2c1.866,2.233,3.2,3.5,4,3.8
		c-1.233,0.334-3.217,0.417-5.95,0.25l-0.3-0.05c1.467,1.134,4.45,2.95,8.95,5.45C222.283,289.55,226.017,292.066,229.35,294.8z
		 M129.5,339.4c-0.433-0.601-1-1.184-1.7-1.75c-0.733-0.567-1.267-0.851-1.6-0.851c-1.833,0-3.583,0.834-5.25,2.5
		c-1.667,1.667-3.6,2.5-5.8,2.5c-2.1,0-4.05-0.383-5.85-1.149c-2.066-0.9-3.1-2.034-3.1-3.4c0-0.1,0.1-1.033,0.3-2.8
		c0.167-1.8,0.267-3.584,0.3-5.351c0.3-1.1,1.717-5.683,4.25-13.75c0.8-2.6,1.2-5.083,1.2-7.449c0-1.434-0.267-3.851-0.8-7.25
		c-0.534-3.4-0.8-6.15-0.8-8.25c0-3.7,1.65-6.334,4.95-7.9c2.133-1,6.633-2.667,13.5-5c2.6-1.134,4.017-2.866,4.25-5.2
		c0.133-1.6,0.033-5.217-0.3-10.85c0-3.233,0.817-5.717,2.45-7.45c0.5-0.533,1.317-1.3,2.45-2.3c1.1-1.033,2.033-2.084,2.8-3.15
		c4.867-7.167,6.833-23.483,5.9-48.95l0.45-1.25c0.333,3.1,1.167,8.95,2.5,17.55c1.467,9.733,2.533,15.9,3.2,18.5
		c-0.5-0.367-1.017-0.7-1.55-1l-0.15,3.3c0,2.033,0.283,5.6,0.85,10.7c0.566,5.133,0.85,8.25,0.85,9.35c0,6.1-2.15,10.2-6.45,12.3
		c-2.167,0.867-3.667,1.483-4.5,1.851c-1.333,0.633-2,1.466-2,2.5c0,0.466,0.233,0.883,0.7,1.25c0.267,0.199,0.767,0.566,1.5,1.1
		c1.467,1.333,2.2,3.733,2.2,7.2c0,4.6-1.217,7.85-3.65,9.75c-0.833,0.633-3.583,1.8-8.25,3.5c-3.867,1.399-6.8,3.434-8.8,6.1
		c-2.867,3.9-4.633,9.783-5.3,17.65v0.95c2.333-3.467,3.817-5.467,4.45-6c1.7-1.467,4.25-2.2,7.65-2.2c2.2,0,3.4,1.35,3.6,4.05
		c-0.067,4.066,0.15,7.417,0.65,10.05c-1.1,1.134-1.934,2.601-2.5,4.4c-0.367,1.6-0.55,2.416-0.55,2.45
		c-0.233,0.333-0.483,0.683-0.75,1.05c-0.566,0.8-0.95,1.517-1.15,2.149L129.5,339.4z M107.65,370.4c-0.066,0.399-0.1,0.933-0.1,1.6
		c0,0.434,0.017,0.667,0.05,0.7V372.6c0.3,2.034,0.6,3.65,0.9,4.851c-2.3-4.667-3.667-10.95-4.1-18.851
		c-0.1-1.866-0.316-3.283-0.65-4.25c0.233,0.134,0.467,0.25,0.7,0.351c2.1,0.967,3.167,1.45,3.2,1.45
		c0.767,0.5,1.15,1.149,1.15,1.949c0,0.467-0.4,1.717-1.2,3.75c-0.833,2.034-1.25,3.801-1.25,5.301c0,0.733,0.066,1.633,0.2,2.699
		l1.15-0.05L107.65,370.4z M99.65,351.7c-0.333-0.033-0.683-0.05-1.05-0.05c-4.1,1-6.567,1.566-7.4,1.699
		c0.033-0.466,0.433-1.8,1.2-4c0.7-2.1,1.167-3.35,1.4-3.75C95.633,348.033,97.583,350.066,99.65,351.7z M86.45,317.7
		c0-2.834,0.517-5.25,1.55-7.25s2.283-3,3.75-3l0.2,6.1c0,3.134-0.15,5.4-0.45,6.8c-0.533,2.334-1.583,3.784-3.15,4.351l-1.1-4.05
		C86.883,319.184,86.617,318.2,86.45,317.7z M54.3,287.8l-0.25-0.45c0-2.733-1.167-5.05-3.5-6.949c-2.367-1.934-5.2-2.9-8.5-2.9
		c-0.066-3.1,0.733-5.316,2.4-6.65c1.2-0.966,3.183-1.649,5.95-2.05c3.667-0.533,5.95-0.967,6.85-1.3c2.4-0.8,4.05-2.233,4.95-4.3
		c0.267-0.566,1.433-4.667,3.5-12.3c2.333-8,4.433-13.5,6.3-16.5c1.933-3.133,3.733-6.65,5.4-10.55
		c2.434-5.767,3.533-10.35,3.3-13.75c-0.267-3.8,1.566-11.017,5.5-21.65c2-5.434,4.216-11.233,6.65-17.4
		c0.133-0.167,0.2,0.083,0.2,0.75c0,0.633-0.8,3.817-2.4,9.55c-1.633,5.733-2.45,12.583-2.45,20.55c0,2.267,0.7,6.333,2.1,12.2
		c1.4,5.867,2.1,9.683,2.1,11.45c0,4.7-1.8,10.05-5.4,16.05c-4.167,7-6.767,13.3-7.8,18.9l-0.05-5.9c0-0.566,0.35-2.35,1.05-5.35
		c0.7-3.033,1.267-5.233,1.7-6.6l0.4-1.45c-1.133,2.533-4.05,6.683-8.75,12.45c-3.533,4.333-5.3,8.233-5.3,11.699
		c0,2.667,0.35,5.034,1.05,7.101c0.667,2.066,1,3.316,1,3.75c0,2.666-1.1,4-3.3,4c-1.467,0-2.65-0.233-3.55-0.7
		c-0.9-0.5-1.7-0.75-2.4-0.75c-1.2,0-2,0.384-2.4,1.15c-1.8,3.5-3.233,6.116-4.3,7.85L54.3,287.8z M96.8,280.25
		c-1.566,3.5-2.6,5.634-3.1,6.4c-1.067,1.6-2.35,2.399-3.85,2.399c-2.934,0-5.367-1.733-7.3-5.2c-2.233-4.033-3.3-9.699-3.2-17
		c1.467,5.233,2.467,8.65,3,10.25c0.8,2.5,1.583,3.75,2.35,3.75c2.3,0,4.083-0.899,5.35-2.699c1-1.4,1.967-3.9,2.9-7.5
		c0.566-2.167,1.583-6.034,3.05-11.601c1.567-5.333,3.45-10.283,5.65-14.85l0.05-0.7c-0.034,1.5,0.267,2.5,0.9,3
		c0.533,0.4,1.533,0.6,3,0.6c1.167,0,1.967-0.1,2.4-0.3c0.367-0.2,1.517-0.85,3.45-1.95l0.4-0.15c-1.767,5.434-3.45,9.833-5.05,13.2
		C103.367,265.2,100.033,272.65,96.8,280.25z M140.55,9.55c0.5-0.1,1.267-0.4,2.3-0.9c0.733-0.233,1.5-0.217,2.3,0.05
		c0.3,0.1,0.6,0.233,0.9,0.4c-0.1,0.033-0.216,0.066-0.35,0.1C144.767,9.367,143.05,9.483,140.55,9.55z M137.55,10.15l-4.05,1.35
		c0.233-0.2,0.833-0.483,1.8-0.85C136.4,10.217,137.15,10.05,137.55,10.15z M127.8,14.5c-0.133,0.142-0.2,0.525-0.2,1.15
		c0,1.133,0.583,2.983,1.75,5.55c0.033,0.033,0.066,0.083,0.1,0.15c-0.067-0.067-0.117-0.133-0.15-0.2c-1.4-2.167-2.1-3.95-2.1-5.35
		c0-0.4,0.05-0.667,0.15-0.8C127.416,14.901,127.566,14.734,127.8,14.5z M130.95,24.55c0.333,0.7,0.55,1.184,0.65,1.45
		c0.733,2,1.2,5.567,1.4,10.7c0.1,4.933,0.2,7.65,0.3,8.15l1,3c-1.066-1.267-1.933-2.417-2.6-3.45c-1.3-1.9-1.95-4.4-1.95-7.5
		c0-0.7,0.267-2.167,0.8-4.4c0.534-2.2,0.8-4.117,0.8-5.75C131.35,26.083,131.217,25.35,130.95,24.55z M133.2,102.55
		c-0.067,0.6-0.55,2.267-1.45,5c-0.933,2.867-1.617,4.733-2.05,5.6c0-2.267,0.167-4.1,0.5-5.5
		C130.733,105.283,131.733,103.583,133.2,102.55z M207.05,67.2c-1.399,0.6-3.55,1.2-6.45,1.8c0.534-0.167,0.967-0.483,1.301-0.95
		c0.767-0.5,2.55-1,5.35-1.5L207.05,67.2z M163.2,258.9c-1-1.134-2.417-3.867-4.25-8.2c-1.667-3.934-2.717-6.75-3.15-8.45
		c2.567,4.3,4.483,7.134,5.75,8.5C161.717,251.017,162.267,253.733,163.2,258.9z M245.65,248.55c0,0.434,0.3,1.967,0.899,4.601
		c0.533,2.466,0.867,3.883,1,4.25L245.65,248.55z"/>
	<path style="fill-rule:evenodd;clip-rule:evenodd;fill:#FFFFFF;" d="M207.05,58.35c0.5,1.5,0.75,2.683,0.75,3.55
		c0,1.467-0.184,3.017-0.55,4.65c-2.8,0.5-4.583,1-5.35,1.5c-0.334,0.467-0.767,0.784-1.301,0.95c-0.3,0-1.5,0.283-3.6,0.85
		c-2.9,0.167-5.384,0.717-7.45,1.65c-1.967,0.833-2.95,1.717-2.95,2.65c0,0.434,0.467,2.85,1.4,7.25s1.4,7.2,1.4,8.4
		c0,2.467-3.051,5.184-9.15,8.15c-3.167,1.5-5.283,2.617-6.35,3.35c-1.9,1.333-2.851,2.684-2.851,4.05
		c0,3.133,1.634,6.683,4.9,10.65c1.7,2.033,3.684,4.317,5.95,6.85c0.767,1.433,1.066,4.467,0.899,9.1
		c-0.166,4.333,0.3,7.15,1.4,8.45c1.233,1.467,2.05,3.5,2.45,6.1c0.566,3.7,1.316,6.733,2.25,9.1c1.8,4.633,4.433,9.433,7.899,14.4
		c2.2,3.167,3.3,6.667,3.3,10.5c0,3.267-0.149,7.067-0.449,11.4c-0.434,5.7-0.983,9.35-1.65,10.95c-1.033,0.167-2.267-0.467-3.7-1.9
		c-1.533-1.467-2.616-2.2-3.25-2.2c1.101,1.8,2.184,3.25,3.25,4.35c0.566,0.566,1.217,1.2,1.95,1.9c-1.467,0-3.116-1.4-4.95-4.2
		c-1.566-2.333-2.833-4.883-3.8-7.65c-0.233-0.667-2.684-3.383-7.35-8.15c-4.434-4.5-6.65-7.5-6.65-9
		c0-6.233,0.283-10.933,0.85-14.1c0.567-3.167,0.851-8.683,0.851-16.55c0-3.367-0.95-6.167-2.851-8.4
		c-3.066-3.633-5.666-8.034-7.8-13.2c-0.467-1.133-1.783-2.767-3.95-4.9c-2.766-2.667-4.883-5-6.35-7
		c-1.533-2.133-2.917-6.167-4.15-12.1c-0.6-2.967-1.067-5.75-1.4-8.35c0-3.9-0.117-6.233-0.35-7c-0.133,8.4-1.767,13.533-4.9,15.4
		c-1,0.567-2.583,1.034-4.75,1.4c-2.5,0.433-4.317,0.883-5.45,1.35l-0.05-2.2v2.2c-1.467,1.034-2.467,2.733-3,5.1
		c-0.333,1.4-0.5,3.233-0.5,5.5c-0.167,0.267-1.934,2.15-5.3,5.65c-2.833,2.967-4.417,5.35-4.75,7.15
		c-2.633,1.767-3.95,4.733-3.95,8.9c0,1.1,0.533,3.566,1.6,7.4c1.034,3.867,1.55,6.583,1.55,8.15c0.066,5.333,0.05,9.7-0.05,13.1
		c-0.1,2.567-0.6,6.117-1.5,10.65c-0.867,4.233-1.3,7.633-1.3,10.2l0.3,3.35c3.534-5.567,6.184-11.717,7.95-18.45
		c0.8-3,1.783-8.167,2.95-15.5c0.8-5.2,1.783-8.75,2.95-10.65c1.667-2.667,4.417-4,8.25-4c1.567,0,2.833,0.316,3.8,0.95
		c0.966,0.6,1.65,0.9,2.05,0.9c1.6,0,3.517-0.267,5.75-0.8c1.133-0.267,2.167-0.533,3.1-0.8c3.233,0,6.833,3.05,10.8,9.15
		c3.833,5.867,5.75,10.817,5.75,14.85c0,3.3-1.7,7.066-5.101,11.3c-3.967,4.934-8.417,7.4-13.35,7.4c-3.767,0-6.284-0.6-7.55-1.8
		c-1.167-1.1-2.167-3.667-3-7.7l-0.15,4.8c0,5.133,2.1,8.333,6.3,9.6c1.733,0.533,4.567,0.966,8.5,1.3
		c3.034,0.267,5.134,0.85,6.3,1.75c6.967,5.433,11.9,10.983,14.801,16.65c1.233,2.367,2.383,4.117,3.449,5.25
		c1.767,1.867,4.534,3.8,8.301,5.8c2.866,1.533,9.3,4.833,19.3,9.9c8.566,4.9,12.85,8.883,12.85,11.95
		c0,1.367-1.116,5.267-3.35,11.7c-2.267,6.434-3.4,11.866-3.4,16.3c0,1.066,0.351,2.45,1.05,4.15c0.801,2,1.851,3.684,3.15,5.05
		c0,0.733-0.283,1.667-0.85,2.8c-0.534,1.066-1.017,1.75-1.45,2.05c-0.8-0.3-2.134-1.566-4-3.8c-2.167-2.6-3.25-4.666-3.25-6.2
		l1.55-4.649c0-0.667-0.017-0.917-0.05-0.75c-7.967-0.767-13.45-1.967-16.45-3.601c-1.066-0.6-1.934-1.316-2.6-2.149
		c-0.634-0.934-1.134-1.617-1.5-2.05c1.199,7.433,3.017,12.399,5.449,14.899c0.601,0.601,1.351,1.217,2.25,1.851
		c0.601,0.6,0.9,1.399,0.9,2.399c0,0.434-0.033,0.684-0.1,0.75c-0.167,0.066-0.351,0.117-0.551,0.15c-1-0.167-2.699-1.483-5.1-3.95
		c-2.5-2.566-4.134-3.983-4.9-4.25c-3.6-0.767-6.833-1.5-9.699-2.2c-5.567-1.333-8.95-2.6-10.15-3.8l0.45-1.4l-0.3,0.351
		c-0.2,0.3-0.25,0.649-0.15,1.05l-0.4,1.2c-0.433-1.3-0.8-2.25-1.1-2.851c-0.566-1.1-1.417-2.333-2.55-3.699
		c-0.934-5.167-1.483-7.884-1.65-8.15c-1.267-1.366-3.183-4.2-5.75-8.5c-0.066-0.233-0.517-1.2-1.35-2.9
		c-0.867-1.7-1.417-2.684-1.65-2.95c-0.667-2.6-1.733-8.767-3.2-18.5c-1.333-8.6-2.167-14.45-2.5-17.55l-0.45,1.25
		c0.934,25.467-1.033,41.783-5.9,48.95c-0.767,1.066-1.7,2.117-2.8,3.15c-1.133,1-1.95,1.767-2.45,2.3
		c-1.633,1.733-2.45,4.217-2.45,7.45c0.333,5.633,0.434,9.25,0.3,10.85c-0.233,2.334-1.65,4.066-4.25,5.2
		c-6.867,2.333-11.367,4-13.5,5c-3.3,1.566-4.95,4.2-4.95,7.9c0,2.1,0.267,4.85,0.8,8.25c0.533,3.399,0.8,5.816,0.8,7.25
		c0,2.366-0.4,4.85-1.2,7.449c-2.533,8.067-3.95,12.65-4.25,13.75c0-1.1-0.017-3.85-0.05-8.25l-0.05,1.051
		c-0.467,2.433-1.4,5.666-2.8,9.699c-1.267,3.634-2.167,5.9-2.7,6.801c-0.034,0.033-1.3,0.933-3.8,2.699
		c-2.233,1.534-3.433,3.034-3.6,4.5c-0.233,0.4-0.7,1.65-1.4,3.75c-0.767,2.2-1.167,3.534-1.2,4c0.833-0.133,3.3-0.699,7.4-1.699
		c0.367,0,0.717,0.017,1.05,0.05c1.733,0.166,2.95,0.75,3.65,1.75c0.167,0.233,0.317,0.533,0.45,0.899
		c0.333,0.967,0.55,2.384,0.65,4.25c0.434,7.9,1.8,14.184,4.1,18.851c-0.3-1.2-0.6-2.816-0.9-4.851c1.4,7.034,2.1,10.601,2.1,10.7
		l-0.25,2.101c-4.034-1.434-6.383-4.301-7.05-8.601c-0.367-2.399-0.35-5.85,0.05-10.35c0-0.667-0.217-1.351-0.65-2.05
		c-0.433-0.7-0.966-1.267-1.6-1.7l1.75-2.65c-4.5-0.533-7.083-0.8-7.75-0.8c-2.733,0-4.817,0.517-6.25,1.55
		c-1.233,0.834-1.817,1.851-1.75,3.05c-0.233-0.833-0.733-3.483-1.5-7.949c0-4.101,1.233-7.534,3.7-10.301s3.7-6.017,3.7-9.75
		c0-1.366-0.15-2.383-0.45-3.05c-1.1-2.366-2.2-5.066-3.3-8.1c1.566-0.566,2.617-2.017,3.15-4.351c0.3-1.399,0.45-3.666,0.45-6.8
		l-0.2-6.1c1.767-1.767,3.367-5.9,4.8-12.4c1.233-5.566,1.85-9.967,1.85-13.2c0-1.433-0.083-2.866-0.25-4.3l-1.35,2.7
		c3.233-7.6,6.567-15.05,10-22.35c1.6-3.367,3.284-7.767,5.05-13.2l-0.4,0.15c-1.934,1.1-3.083,1.75-3.45,1.95
		c-0.433,0.2-1.233,0.3-2.4,0.3c-1.467,0-2.467-0.2-3-0.6c-0.633-0.5-0.934-1.5-0.9-3l-0.05,0.7c-2.2,4.566-4.083,9.517-5.65,14.85
		c-1.467,5.566-2.483,9.434-3.05,11.601c-0.934,3.6-1.9,6.1-2.9,7.5c-1.267,1.8-3.05,2.699-5.35,2.699c-0.767,0-1.55-1.25-2.35-3.75
		c-0.533-1.6-1.533-5.017-3-10.25l-0.15-6.35c1.033-5.6,3.633-11.9,7.8-18.9c3.6-6,5.4-11.35,5.4-16.05c0-1.767-0.7-5.583-2.1-11.45
		c-1.4-5.867-2.1-9.934-2.1-12.2c0-7.967,0.816-14.816,2.45-20.55c1.6-5.733,2.4-8.917,2.4-9.55c0-0.667-0.066-0.917-0.2-0.75
		c-2.434,6.167-4.65,11.967-6.65,17.4c-3.934,10.633-5.767,17.85-5.5,21.65c0.233,3.4-0.867,7.983-3.3,13.75
		c-1.667,3.9-3.467,7.417-5.4,10.55c-1.867,3-3.967,8.5-6.3,16.5c-2.067,7.633-3.233,11.733-3.5,12.3c-0.9,2.066-2.55,3.5-4.95,4.3
		c-0.9,0.333-3.183,0.767-6.85,1.3c-2.767,0.4-4.75,1.084-5.95,2.05c-1.667,1.334-2.467,3.551-2.4,6.65
		c-6.733,0.667-10.75,1.95-12.05,3.85c-1.1,3.2-3.05,6.25-5.85,9.15l-1.1,0.65L23,289.6c0-2.033,1.617-9.899,4.85-23.6
		c3.433-14.467,5.25-22.533,5.45-24.2c0.367-3.167,1.583-7.3,3.65-12.4c2.3-5.633,4.533-9.45,6.7-11.45
		c1.467-1.367,2.95-4.4,4.45-9.1c2.633-8.1,4.667-13.9,6.1-17.4c1.933-4.667,4.233-9.367,6.9-14.1c3.233-5.733,5.183-9.3,5.85-10.7
		c4.033-8.433,7.133-21.55,9.3-39.35c0.533-4.3,2.35-7.433,5.45-9.4c1.667-1.033,2.75-1.816,3.25-2.35c1-1.1,1.6-2.6,1.8-4.5
		c0.633-6.267,0.817-11.95,0.55-17.05c-0.167-2.667-0.383-5.417-0.65-8.25c0-0.1,2.517-7.017,7.55-20.75
		c5-15.667,7.5-28.433,7.5-38.3c0-0.667-0.284-4.317-0.85-10.95c0-3.8,2.75-7.483,8.25-11.05c4.867-3.133,9-4.7,12.4-4.7
		c9.267,0,17.15,2.9,23.65,8.7c-0.8-0.267-1.566-0.284-2.3-0.05c-1.033,0.5-1.8,0.8-2.3,0.9c-1,0.1-2,0.3-3,0.6
		c-0.4-0.1-1.15,0.067-2.25,0.5c-0.966,0.367-1.566,0.65-1.8,0.85c-2.6,0.933-4.267,1.683-5,2.25c-0.267,0.367-0.5,0.6-0.7,0.7v0.05
		c-0.234,0.234-0.384,0.401-0.45,0.5c-0.1,0.133-0.15,0.4-0.15,0.8c0,1.4,0.7,3.184,2.1,5.35c0.034,0.067,0.083,0.133,0.15,0.2
		c0.7,1.133,1.2,2.2,1.5,3.2c0.267,0.8,0.4,1.534,0.4,2.2c0,1.633-0.267,3.55-0.8,5.75c-0.533,2.233-0.8,3.7-0.8,4.4
		c0,3.1,0.65,5.6,1.95,7.5c0.667,1.033,1.533,2.184,2.6,3.45l-1-3l1.6,4.5c1.3,6.033,3.583,11.033,6.85,15
		c1.8,2.167,3.733,3.867,5.8,5.1c0.8-0.4,1.717-1.35,2.75-2.85c0.633-0.934,2.25-1.4,4.85-1.4c5.267,0,8.1-0.017,8.5-0.05
		c1.3-0.133,2.25-0.667,2.85-1.6c0.434-0.667,1.434-2.417,3-5.25c2.1-3.267,5.1-6.917,9-10.95l0.15-0.05
		c1.666-0.7,4.233-1.05,7.699-1.05l3.551,0.1c4.033,2.167,7.399,4.2,10.1,6.1C202.467,54.217,204.816,56.183,207.05,58.35z
		 M255.8,239.25l-0.3-0.4l0.3,0.35V239.25z M270.4,269.35l-0.45-0.75l0.45,0.7V269.35z M274.6,318.2l0.101,0.45l-0.25-1L274.6,318.2
		z M266.2,300.6h0.05l0.85,0.95L266.2,300.6z M255.55,302.9l-0.05-0.65v-0.6L255.55,302.9z M266.25,340.45l0.15-1.351
		c0.1-1.666,0.166-3.116,0.199-4.35C266.667,336.917,266.55,338.816,266.25,340.45z M241.55,318.2
		c5.834,2.566,9.851,4.533,12.05,5.899c2.867,1.733,4.301,3.334,4.301,4.801c0,5-0.351,11.383-1.051,19.149
		c-0.699,6.8-1.05,10.267-1.05,10.4c0,2.633,0.45,5.184,1.351,7.649c1.666,4.601,3.383,11.15,5.149,19.65
		c-2.2-2.3-4.416-8.5-6.649-18.6c-2.2-9.934-3.301-18.483-3.301-25.65c0-5.3-2.116-9.866-6.35-13.7
		c-1.833-1.267-3.35-2.383-4.55-3.35c0-0.033,0-0.066,0-0.101c0.133-0.966,0.2-1.683,0.2-2.149c0-0.667-0.067-1.983-0.2-3.95
		L241.55,318.2z M196.75,293.3l0.5,0.351l0.55,0.449L196.75,293.3z M168.45,284.6l1.5-0.949c1.633-0.534,2.733-0.801,3.3-0.801
		c0.667,0,1.75,0.184,3.25,0.551c-0.6-0.134-1.95-0.017-4.05,0.35C170.283,284.083,168.95,284.366,168.45,284.6z M156.55,295.95
		c1.4-1.334,4.483-4.4,9.25-9.2c-1.5,1.767-3.149,3.583-4.95,5.45c-2,2.1-3.533,3.5-4.6,4.2c-0.167,0.133-0.333,0.233-0.5,0.3
		c0.1-0.066,0.367-0.3,0.8-0.7V295.95z M153.65,300.75l0.4-0.95l-0.3,0.75C153.717,300.616,153.683,300.684,153.65,300.75z
		 M129.5,339.4l0.15-0.551L129.5,340V339.4z M115.95,359.55c0.066-0.8,0.316-2.2,0.75-4.2c0.466-2.3,0.85-3.699,1.15-4.199
		C117.417,352.083,116.783,354.884,115.95,359.55z M107.7,369.8l0.3-1.25l-0.35,1.851L107.7,369.8z M30.25,286.05
		c2.2,2.434,3.3,3.983,3.3,4.65c0,4.6-0.983,8.333-2.95,11.2c-1.633,2.399-3.434,3.6-5.4,3.6l-2.2-0.05l-0.1-2.4
		c0-3.7,1.367-7.5,4.1-11.399c0.667-0.934,1.533-2.117,2.6-3.551C30.267,287.1,30.483,286.417,30.25,286.05z M44.55,296
		c0.333,1.033,0.75,3.033,1.25,6c0.467,2.8,0.7,4.483,0.7,5.05c0,4.601-1.1,8.3-3.3,11.101c-1.3,1.666-3.1,3.066-5.4,4.199
		c-1.633,0.801-2.683,3.15-3.15,7.051c-0.2,4.066-0.433,6.433-0.7,7.1c-0.833,2.3-2.8,4.767-5.9,7.4c-2.367,2-3.933,3.649-4.7,4.949
		c1.566-3.267,3.4-6.449,5.5-9.55c1.4-2.066,2.1-3.816,2.1-5.25c0-4.733-1.7-8-5.1-9.8c-1.733-0.767-2.917-1.366-3.55-1.8
		c-1.066-0.7-1.6-1.65-1.6-2.851c0-2.899,1.433-5.183,4.3-6.85c1.667-0.934,4.383-2.283,8.15-4.05c1.133-0.767,2.017-1.867,2.65-3.3
		c0.333-0.834,0.75-2.117,1.25-3.851C38.183,298.417,40.683,296.566,44.55,296z M68.55,311.4c0.467,0,0.867,0.166,1.2,0.5
		c0.333,0.333,0.5,0.733,0.5,1.199c0,0.467-0.167,0.867-0.5,1.2c-0.333,0.334-0.733,0.5-1.2,0.5c-0.466,0-0.867-0.166-1.2-0.5
		c-0.333-0.333-0.5-0.733-0.5-1.2c0-0.466,0.167-0.866,0.5-1.199C67.683,311.566,68.083,311.4,68.55,311.4z M46.9,336.95v-9.45h7.15
		v9.45H46.9z M21.6,310.7c-0.533,0.2-1.533,0.467-3,0.8c-1.367,0.333-2.117,0.5-2.25,0.5c-1.333,0-2-0.7-2-2.1
		c0-1.534,0.65-2.9,1.95-4.101c0.767-0.7,2.317-1.733,4.65-3.1L21.6,310.7z M13.05,330.6c1.1,0,2.034,0.634,2.8,1.9
		c0.767,1.233,1.15,2.733,1.15,4.5s-0.383,3.283-1.15,4.55c-0.767,1.233-1.7,1.851-2.8,1.851c-1.1,0-2.033-0.617-2.8-1.851
		c-0.767-1.267-1.15-2.783-1.15-4.55s0.383-3.267,1.15-4.5C11.017,331.233,11.95,330.6,13.05,330.6z M17.5,330.1
		c-0.067-0.199-0.05-0.399,0.05-0.6c0-0.467,0.15-0.833,0.45-1.1c0.033-0.034,1.017-0.817,2.95-2.351c0.066,1.2,0.05,2.2-0.05,3
		c-0.2,1.467-0.85,2.283-1.95,2.45C18.117,331,17.633,330.533,17.5,330.1z M26.6,333.8c-0.767,0.4-1.517,0.45-2.25,0.15l-0.1-3.25
		l4,2C27.583,333.2,27.033,333.566,26.6,333.8z M27.6,368.05c-0.033,3.533-0.117,5.7-0.25,6.5c-0.3,1.8-1.083,2.967-2.35,3.5
		c-0.567,1.101-0.85-0.583-0.85-5.05l0.1-4.95H27.6z M15.6,366.05c-0.1,1.733-0.4,3.101-0.9,4.101
		c-0.534,0.767-0.85,1.216-0.95,1.35c-0.933,0.467-1.433,0.35-1.5-0.35c0.067-1.067,0.283-1.9,0.65-2.5
		C13.333,367.917,14.233,367.05,15.6,366.05z M12.2,389.4c-1-1.534-1.5-3.384-1.5-5.551c0-2.166,0.5-4,1.5-5.5
		c0.966-1.533,2.133-2.3,3.5-2.3s2.55,0.767,3.55,2.3c0.967,1.5,1.45,3.334,1.45,5.5c0,2.167-0.483,4.017-1.45,5.551
		c-1,1.5-2.183,2.25-3.55,2.25S13.167,390.9,12.2,389.4z M21,374.05c-0.233,0.101-0.467,0.2-0.7,0.3
		c-0.433,0.2-0.867,0.284-1.3,0.25l1.25-3.25c0.567,0.2,0.85,0.634,0.85,1.301L21,374.05z M27,380.65c0.567,0,1.05,0.267,1.45,0.8
		c0.367,0.533,0.55,1.184,0.55,1.95s-0.183,1.416-0.55,1.949c-0.4,0.534-0.883,0.801-1.45,0.801s-1.033-0.267-1.4-0.801
		c-0.4-0.533-0.6-1.183-0.6-1.949s0.2-1.417,0.6-1.95C25.967,380.917,26.433,380.65,27,380.65z M149.2,317.8
		c0.867-0.866,1.917-1.3,3.15-1.3s2.283,0.434,3.15,1.3c0.867,0.867,1.3,1.9,1.3,3.101c0,1.199-0.433,2.233-1.3,3.1
		s-1.917,1.3-3.15,1.3s-2.283-0.434-3.15-1.3s-1.3-1.9-1.3-3.1C147.9,319.7,148.333,318.667,149.2,317.8z M139.55,335.05
		c0-1.2,0.3-2.217,0.9-3.05c0.566-0.866,1.267-1.3,2.1-1.3c0.833,0,1.55,0.434,2.15,1.3c0.566,0.833,0.85,1.85,0.85,3.05
		s-0.283,2.233-0.85,3.101c-0.6,0.833-1.317,1.25-2.15,1.25c-0.833,0-1.533-0.417-2.1-1.25
		C139.85,337.283,139.55,336.25,139.55,335.05z M91.1,372.6c-1,4.233-2.95,8.75-5.85,13.551c-2.467,4.1-3.7,6.966-3.7,8.6
		c0,1.2,0.717,2.767,2.15,4.7c1.4,1.934,2.1,3.666,2.1,5.2c0,1.366-0.917,2.6-2.75,3.699c-2.466,1.467-4.517,3.817-6.15,7.051
		c-0.733-1.367-1.417-3.184-2.05-5.45c-0.867-3.134-1.3-6.184-1.3-9.15c0-5.833,1.85-12.533,5.55-20.1
		c1.566-3.2,4.167-7.65,7.8-13.351c0.9,0.7,1.783,1.65,2.65,2.851C90.25,371.134,90.767,371.934,91.1,372.6z M82,417.8l0.3-0.2
		c0.5-0.233,2.034-1.216,4.6-2.949C86.133,415.417,84.5,416.467,82,417.8z M110.9,393.65c0.533-0.567,1.2-0.851,2-0.851
		c0.8,0,1.483,0.283,2.05,0.851c0.533,0.566,0.8,1.25,0.8,2.05s-0.267,1.483-0.8,2.05c-0.567,0.566-1.25,0.85-2.05,0.85
		c-0.8,0-1.467-0.283-2-0.85c-0.566-0.566-0.85-1.25-0.85-2.05S110.333,394.217,110.9,393.65z M147.9,367.4c0,5.166-0.1,8.1-0.3,8.8
		c-0.4,1.3-1.783,1.95-4.15,1.95c-3.034,0-6.617-2.067-10.75-6.2c-4.367-4.4-6.55-8.634-6.55-12.7c0-1.4,1-2.434,3-3.1
		c2.4-0.834,3.934-1.834,4.6-3c0.033,0,0.05-0.967,0.05-2.9c0.434-1.934,1.684-2.9,3.75-2.9c5.367,0,8.7,3.334,10,10
		c0.4,2.067,0.583,4.367,0.55,6.9L147.9,367.4z M153.55,359.35c0.534-0.533,1.167-0.8,1.9-0.8c0.733,0,1.367,0.267,1.9,0.8
		c0.533,0.5,0.8,1.117,0.8,1.851s-0.267,1.366-0.8,1.899c-0.533,0.5-1.167,0.75-1.9,0.75c-0.733,0-1.367-0.25-1.9-0.75
		c-0.533-0.533-0.8-1.166-0.8-1.899S153.017,359.85,153.55,359.35z M126.5,369.65c0,0.8-0.267,1.483-0.8,2.05
		c-0.567,0.566-1.25,0.85-2.05,0.85c-0.8,0-1.467-0.283-2-0.85c-0.566-0.566-0.85-1.25-0.85-2.05c0-0.801,0.284-1.483,0.85-2.051
		c0.533-0.566,1.2-0.85,2-0.85c0.8,0,1.483,0.283,2.05,0.85C126.233,368.167,126.5,368.85,126.5,369.65z M216.1,334.55
		c-0.699,0.7-1.55,1.05-2.55,1.05s-1.85-0.35-2.55-1.05c-0.7-0.733-1.05-1.6-1.05-2.6s0.35-1.851,1.05-2.55
		c0.7-0.733,1.55-1.101,2.55-1.101s1.851,0.367,2.55,1.101c0.7,0.699,1.051,1.55,1.051,2.55S216.8,333.816,216.1,334.55z
		 M202.55,352c0-1.866,0.533-3.45,1.601-4.75c1.066-1.3,2.366-1.95,3.899-1.95s2.834,0.65,3.9,1.95s1.6,2.884,1.6,4.75
		s-0.533,3.45-1.6,4.75s-2.367,1.95-3.9,1.95s-2.833-0.65-3.899-1.95C203.083,355.45,202.55,353.866,202.55,352z M242.75,427.6
		c-7.833-0.267-12.35-0.333-13.55-0.199c-4.467,0.433-6.7,2.017-6.7,4.75c0,2.666,1.65,4.416,4.95,5.25
		c1.8,0.466,4.233,0.767,7.3,0.899c1.533,0.2,3.7,2.134,6.5,5.8c3.267,4.267,5.233,6.65,5.9,7.15c-1.367-0.733-2.801-1.733-4.301-3
		c-2.399-1.967-3.6-2.967-3.6-3c-2.866-2.134-6.3-3.2-10.3-3.2c-6.867,0-13.351,2.05-19.45,6.15l-5.75,4.25
		c-1.733,1.267-3.017,1.899-3.85,1.899c-0.601,0-0.967-0.267-1.101-0.8c-0.033-0.133-0.05-0.45-0.05-0.95
		c0-6.333,2.333-12.433,7-18.3c5.1-6.399,11.033-9.6,17.8-9.6c3.9,0,7.283,0.267,10.15,0.8
		C235.467,425.866,238.483,426.566,242.75,427.6z M247.05,462.1c-0.333,0.534-0.733,0.801-1.2,0.801
		c-0.466,0-0.866-0.267-1.199-0.801c-0.334-0.566-0.5-1.233-0.5-2s0.166-1.416,0.5-1.949c0.333-0.567,0.733-0.851,1.199-0.851
		c0.467,0,0.867,0.283,1.2,0.851c0.334,0.533,0.5,1.183,0.5,1.949S247.384,461.533,247.05,462.1z M244.85,473.4H241.2v-4.9h3.649
		V473.4z M228.2,444.05c5.066,3.167,8.233,5.25,9.5,6.25c3.2,2.434,4.8,4.5,4.8,6.2c0,1.5-1.233,2.634-3.7,3.4
		c-2.733,0.866-4.316,2-4.75,3.399c-0.934-1.066-2.233-3.633-3.899-7.7c-1.834-4.366-2.75-7.466-2.75-9.3
		c0-0.434,0.1-0.899,0.3-1.399C227.866,444.5,228.033,444.217,228.2,444.05z M230.5,490.05c-0.333,0-0.616-0.283-0.85-0.85
		c-0.233-0.601-0.351-1.316-0.351-2.15c0-0.833,0.117-1.533,0.351-2.1c0.233-0.601,0.517-0.9,0.85-0.9s0.616,0.3,0.85,0.9
		c0.233,0.566,0.351,1.267,0.351,2.1c0,0.834-0.117,1.55-0.351,2.15C231.116,489.767,230.833,490.05,230.5,490.05z M109.05,420.3
		c-0.466,0.267-0.9,0.4-1.3,0.4c-1.533,0-1.817-2.217-0.85-6.65c2.2,2,3.3,3.334,3.3,4C110.2,419.083,109.817,419.833,109.05,420.3z
		 M84.9,444.1c0.667,0.667,1,1.483,1,2.45s-0.333,1.8-1,2.5c-0.7,0.667-1.533,1-2.5,1s-1.783-0.333-2.45-1
		c-0.7-0.7-1.05-1.533-1.05-2.5s0.35-1.783,1.05-2.45c0.667-0.699,1.483-1.05,2.45-1.05S84.2,443.4,84.9,444.1z M83.7,428
		c0-2.1,0.9-3.767,2.7-5c2.233-1.533,5.733-2.3,10.5-2.3c2.1,0,3.9,0.833,5.4,2.5c1.567,1.767,2.35,4.083,2.35,6.95
		c0,2.566-0.433,4.483-1.3,5.75c-0.434,0.6-1.417,1.433-2.95,2.5c-2.967,1.966-4.566,5.816-4.8,11.55l-1.55,0.1
		c-3.466,0-6.15-2.6-8.05-7.8C84.467,438.083,83.7,433.333,83.7,428z M87.25,453.45c0.133-0.467,0.45-1.167,0.95-2.101
		c1.8,1.567,2.7,2.684,2.7,3.351c0,0.6-0.183,1.116-0.55,1.55c-0.4,0.467-0.934,0.733-1.6,0.8l-1.5-0.399
		c0-0.101-0.033-0.267-0.1-0.5c-0.1-0.267-0.15-0.584-0.15-0.95C87,454.533,87.083,453.95,87.25,453.45z M97.15,468.55l-0.3-1.7
		c0.1-1.333,0.333-3.166,0.7-5.5l4,6.7c-0.566,0.233-1.45,0.417-2.65,0.55C97.733,468.7,97.15,468.684,97.15,468.55z M14.75,401.5
		h4.5v4.5h-4.5V401.5z M0,401.95c0-0.2,0.3-0.8,0.9-1.8c0.767-1.267,1.667-2.417,2.7-3.45c0.1,0.866,0.15,1.633,0.15,2.3
		c0,1.733-0.167,2.95-0.5,3.65c-0.267,0.6-0.717,0.899-1.35,0.899C0.633,403.55,0,403.017,0,401.95z M3.85,407.35
		c0.3,0.434,0.45,0.967,0.45,1.601c0,0.633-0.15,1.166-0.45,1.6c-0.333,0.434-0.733,0.65-1.2,0.65s-0.85-0.217-1.15-0.65
		c-0.333-0.434-0.5-0.967-0.5-1.6c0-0.634,0.167-1.167,0.5-1.601c0.3-0.433,0.683-0.649,1.15-0.649S3.517,406.917,3.85,407.35z
		 M4.2,424.2c-0.6,0-1.184-0.334-1.75-1c-0.467-0.566-0.7-1.033-0.7-1.4c0-0.033,0.4-0.616,1.2-1.75l2.65,2.65
		c-0.2,0.467-0.367,0.8-0.5,1C4.9,424.033,4.6,424.2,4.2,424.2z"/>
	<path style="fill-rule:evenodd;clip-rule:evenodd;fill:#DDEAF9;" d="M184.35,42.9c-1,1.133-2.199,2.184-3.6,3.15
		c-0.4,0.267-1.1,0.684-2.1,1.25l-0.15,0.05c-5.566,0.167-8.983,0.7-10.25,1.6c-1.033,0.767-2.517,3.55-4.45,8.35
		c-0.434-4.167-0.649-6.433-0.649-6.8c0-4.4,2.199-7.8,6.6-10.2c2.033-1.133,4.483-1.966,7.35-2.5
		C179.366,39.5,181.783,41.2,184.35,42.9z M200.6,69c2.9-0.6,5.051-1.2,6.45-1.8c-1.899,3.733-2.85,6.45-2.85,8.15
		c1.5,3.633,2.983,7.583,4.45,11.85c2.966,8.566,4.449,14.617,4.449,18.15c0,4.433,0.834,9.05,2.5,13.85
		c3.334,8.667,6.667,17.483,10,26.45c1.334,3.6,2.517,6.017,3.551,7.25c0.3,0.333,0.55,0.633,0.75,0.9
		c0.333,0.434,0.5,0.667,0.5,0.7c0,0.333,0,0.7,0,1.1c-0.134,4.433-0.2,13.15-0.2,26.15c0.633,6.2,0.95,9.633,0.95,10.3
		c0,2.567-0.733,4.934-2.2,7.1c-1.5,2.2-2.25,3.75-2.25,4.65c0.7,7.733,1.033,12.6,1,14.6c1-2.367,2.1-5.683,3.3-9.95
		c1.066-3.067,2.283-4.6,3.65-4.6c3.333,0,5.616,2.933,6.85,8.8c0.9,6.833,1.783,11.217,2.65,13.15
		c-1.334-1.566-2.867-2.867-4.601-3.9c-1.6-1-2.983-1.533-4.149-1.6l-1.15,0.15c0,5.933-0.033,9.233-0.1,9.9
		c-5.233,0.867-10.084-0.85-14.551-5.15c-2.966-2.867-5.517-6.583-7.649-11.15c-1.767-3.767-4.367-5.867-7.8-6.3
		c-2.667-0.3-4.017-0.467-4.051-0.5c-1.5-0.333-2.783-1.083-3.85-2.25c-0.733-0.7-1.384-1.333-1.95-1.9
		c-1.066-1.1-2.149-2.55-3.25-4.35c0.634,0,1.717,0.733,3.25,2.2c1.434,1.433,2.667,2.066,3.7,1.9c1.6-0.7,2.983-3,4.15-6.9
		c0.566-1.934,0.983-3.85,1.25-5.75c0-0.667-0.301-5.633-0.9-14.9c0-0.667,0.116-1.767,0.35-3.3l0.4,0.75c0.134,0.767,0.8,2.1,2,4
		c1.267,2,2.267,4.933,3,8.8c1.566,8.167,2.033,13.75,1.4,16.75c-0.233,1.167-0.351,1.8-0.351,1.9c0.066,0.5,0.5,1.4,1.3,2.7
		c2,3.233,4.134,5.934,6.4,8.1c1.366,1.3,3.7,3.35,7,6.15c0.4-0.5,0.733-1.217,1-2.15c0.233-0.767,0.35-1.433,0.35-2
		c0-0.233-0.199-1.533-0.6-3.9s-0.6-4.767-0.6-7.2c0-1.233,0.733-3.3,2.199-6.2c1.434-2.867,2.15-5.184,2.15-6.95
		c0-2.767-0.3-5.667-0.9-8.7c0-0.1-0.383-1.7-1.149-4.8c-2.134-8.033-4.2-13.383-6.2-16.05c-1-1.333-1.566-2.117-1.7-2.35
		c-0.467-0.934-0.816-2.45-1.05-4.55c-1.167-9.667-2.634-17.2-4.4-22.6c-1.8-5.4-3.716-8.1-5.75-8.1
		c-1.133,0-1.783,1.783-1.949,5.35c-0.2,3.966-0.417,6.083-0.65,6.35c-2.033-4.066-3.816-10.4-5.35-19
		c-1.233-6.933-1.851-11.95-1.851-15.05c0-0.233,0.384-2.267,1.15-6.1c0.767-3.8,1.149-5.85,1.149-6.15c0-3.433-1.6-7.217-4.8-11.35
		c-3.233-3.467-4.85-5.217-4.85-5.25c0-1.733,2.267-3.25,6.8-4.55C199.1,69.283,200.3,69,200.6,69z M277.8,321.6
		c-1.899-2.1-2.967-3.233-3.2-3.399l-0.149-0.55c-1.101-2.067-2.217-4.667-3.351-7.801c-0.966-2.666-2.3-5.433-4-8.3l-0.85-0.95
		c-0.967-3.199-1.55-5.3-1.75-6.3c-0.167-0.533-1.25-3.316-3.25-8.35c1.4,1.066,2.667,2.316,3.8,3.75c1.601,2,2.9,3.5,3.9,4.5
		c1.7-0.7,2.55-3.483,2.55-8.351c0-7.433-0.684-12.699-2.05-15.8c-0.834-1.899-2.65-3.934-5.45-6.1
		c-3.233-2.467-5.866-5.316-7.9-8.55c-3.333-5.301-6.416-13.034-9.25-23.2c1,0.767,2.75,2.066,5.25,3.9
		c2.067,1.5,3.2,2.417,3.4,2.75l0.3,0.4c0.601,2.1,1.117,3.767,1.55,5c0.767,2.233,2.301,5.267,4.601,9.1
		c1.866,4.301,2.833,6.483,2.899,6.551c0.467,0.533,2.167,3.433,5.101,8.699l0.45,0.75l1.6,9.5c2.6,12.301,4.083,20.95,4.45,25.95
		c0.666,8.4,1.116,13.467,1.35,15.2v1.2C277.8,321.337,277.8,321.471,277.8,321.6z M259.35,282.75c-0.633-0.9-1.25-1.816-1.85-2.75
		c-1.233-1.9-2.066-3.667-2.5-5.3l-0.3-1.15c0.1,2.733,0.6,6.851,1.5,12.351c0.833,5.233,1.25,8.283,1.25,9.149
		c-0.367-0.2-0.9-0.566-1.601-1.1c-0.6-0.533-0.933-0.816-1-0.851c0.067,0.4,0.284,3.034,0.65,7.9v0.65v0.6
		c-2.967-4.333-4.934-11.6-5.9-21.8c-0.066-0.934-0.366-5.05-0.899-12.351c-0.3-4.699-0.684-8.267-1.15-10.699
		c2.3,4.6,5.167,9.5,8.601,14.699C257.316,273.9,258.384,277.45,259.35,282.75z M266.6,334.75c-0.033,1.233-0.1,2.684-0.199,4.35
		l-0.15,1.351c-1,3.033-1.85,7.899-2.55,14.6c-0.667,6.134-1,11.5-1,16.101c0,4,0.55,7.75,1.649,11.25
		c0.7,2.267,2.134,5.683,4.301,10.25c-1.733-2.134-2.717-3.317-2.95-3.551c-0.601-0.5-1.667-1.533-3.2-3.1
		c0-0.533-0.7-4.017-2.1-10.45c-1.4-6.434-2.101-11.5-2.101-15.2c0-5,0.617-9.35,1.851-13.05c1.233-3.666,1.85-5.934,1.85-6.8
		c0-1.634-0.017-4.45-0.05-8.45c0.3-3.267,1.467-5.2,3.5-5.8c0.1,0.233,0.2,0.566,0.3,1c0.4,1.5,0.634,2.616,0.7,3.35
		C266.583,331.566,266.634,332.95,266.6,334.75z M227.05,312.9c3.033,0.066,4.667,0.066,4.9,0c1.033-0.434,1.55-2.051,1.55-4.851
		c0-0.666-0.083-2.916-0.25-6.75c0.767,0.9,1.384,2.316,1.85,4.25c0.367,1.601,0.551,3.117,0.551,4.55
		c0,1.101-0.217,2.217-0.65,3.351c-0.4,1.1-0.917,2.033-1.55,2.8c-0.533-0.366-1.717-1.017-3.55-1.95
		C228.267,313.467,227.316,313,227.05,312.9z M215.45,281.6c0.434-0.3,0.916-0.983,1.45-2.05c0.566-1.133,0.85-2.066,0.85-2.8
		c-0.1-0.866-0.417-1.866-0.95-3c-0.5-1.6-0.75-4.15-0.75-7.65c0-5.666,1.851-11.783,5.55-18.35c2.934-5.2,6.367-9.683,10.301-13.45
		l0.199,0.8c-0.066,0.566-0.433,1.383-1.1,2.45c-0.967,1.667-1.65,2.883-2.05,3.65c-1.9,3.966-2.851,8.866-2.851,14.7
		c0,5.133,2.017,9.783,6.051,13.949c2.066,2.134,3.433,3.767,4.1,4.9c1.267,2.1,1.9,4.533,1.9,7.3c0,1.667-0.267,4.434-0.801,8.3
		c-0.533,3.867-0.8,5.917-0.8,6.15c0,0.134,1.783,2.35,5.351,6.65c3.566,4.5,5.35,7.3,5.35,8.399c0,1-0.4,1.967-1.2,2.9
		c-0.833,1.033-2.333,2.283-4.5,3.75l-0.1,0.05c0.733-5.1-0.95-10.9-5.05-17.4c-2.634-3.933-4.667-7.1-6.101-9.5
		c-2.533-4.233-4.633-8.449-6.3-12.649l-0.25-1.55c-0.1,3.366,0.667,6.866,2.3,10.5c1.834,3.5,2.934,5.883,3.3,7.149
		c-3.333-2.733-7.066-5.25-11.199-7.55c-4.5-2.5-7.483-4.316-8.95-5.45l0.3,0.05C212.233,282.017,214.217,281.934,215.45,281.6z
		 M166.85,265.45c3.7,4.967,7.634,8.7,11.801,11.2c2.233,1.366,5.416,2.716,9.55,4.05c3.2,1.033,5.35,2.184,6.45,3.45
		c1.6,1.833,2.466,5,2.6,9.5l-0.5-0.351c-1.333-0.767-3.833-1.816-7.5-3.149c-3.267-1.167-7.5-3.417-12.7-6.75h-0.05
		c-1.5-0.367-2.583-0.551-3.25-0.551c-0.566,0-1.667,0.267-3.3,0.801c-2.867-2.4-5.351-5.551-7.45-9.45
		c-1.767-3.8-2.884-6.101-3.35-6.9c0.5,9.167,0.75,15.101,0.75,17.8c0,3.767-1.117,7.384-3.351,10.851V296
		c-0.433,0.4-0.7,0.634-0.8,0.7c-0.2,0.133-0.767,1.166-1.7,3.1l-0.4,0.95l-0.25,0.6l-0.6,1.45c0,1.867-0.65,3.45-1.95,4.75
		c-1.333,1.3-2.934,1.95-4.8,1.95c-0.633-0.5-1.333-0.917-2.1-1.25c-0.534-0.233-0.883-0.35-1.05-0.35c-1.2,0-1.967,1.116-2.3,3.35
		c-0.067,2.3-0.1,3.467-0.1,3.5c0,2.934,0.15,5.55,0.45,7.85c-1.367,1.534-3.483,3.601-6.35,6.2c-0.5-2.633-0.717-5.983-0.65-10.05
		c-0.2-2.7-1.4-4.05-3.6-4.05c-3.4,0-5.95,0.733-7.65,2.2c-0.633,0.533-2.117,2.533-4.45,6v-0.95c0.667-7.867,2.433-13.75,5.3-17.65
		c2-2.666,4.934-4.7,8.8-6.1c4.667-1.7,7.417-2.867,8.25-3.5c2.433-1.9,3.65-5.15,3.65-9.75c0-3.467-0.733-5.867-2.2-7.2
		c-0.733-0.533-1.233-0.9-1.5-1.1c-0.466-0.367-0.7-0.784-0.7-1.25c0-1.034,0.667-1.867,2-2.5c0.833-0.367,2.333-0.983,4.5-1.851
		c4.3-2.1,6.45-6.2,6.45-12.3c0-1.1-0.283-4.217-0.85-9.35c-0.567-5.101-0.85-8.667-0.85-10.7l0.15-3.3c0.533,0.3,1.05,0.633,1.55,1
		c0.233,0.267,0.784,1.25,1.65,2.95c0.833,1.7,1.283,2.667,1.35,2.9c0.434,1.7,1.483,4.517,3.15,8.45
		c1.833,4.333,3.25,7.066,4.25,8.2c1.133,1.366,1.983,2.6,2.55,3.699C166.05,263.2,166.417,264.15,166.85,265.45z M124.85,343.35
		c-0.633,0.034-1.733-0.066-3.3-0.3c-1.633-0.2-2.566-0.3-2.8-0.3c-1.067,0-2.017,0.8-2.85,2.4c-0.767,1.466-1.15,2.966-1.15,4.5
		c0.533,5.033,0.8,7.883,0.8,8.55c0,1.033,0.1,1.717,0.3,2.05c-0.233,0.934-0.684,1.717-1.35,2.35c-0.6,0.567-1.967,1.567-4.1,3
		l-1.25,0.9c-0.433,0.634-0.816,1.316-1.15,2.05l-0.3,1.25l-1.15,0.05c-0.133-1.066-0.2-1.966-0.2-2.699
		c0-1.5,0.417-3.267,1.25-5.301c0.8-2.033,1.2-3.283,1.2-3.75c0-0.8-0.383-1.449-1.15-1.949c-0.033,0-1.1-0.483-3.2-1.45
		c-0.233-0.101-0.467-0.217-0.7-0.351c-0.133-0.366-0.283-0.666-0.45-0.899c-0.7-1-1.917-1.584-3.65-1.75
		c-2.066-1.634-4.017-3.667-5.85-6.101c0.167-1.466,1.367-2.966,3.6-4.5c2.5-1.767,3.767-2.666,3.8-2.699
		c0.533-0.9,1.433-3.167,2.7-6.801c1.4-4.033,2.333-7.267,2.8-9.699l0.05-1.051c0.033,4.4,0.05,7.15,0.05,8.25
		c-0.033,1.767-0.133,3.551-0.3,5.351c-0.2,1.767-0.3,2.7-0.3,2.8c0,1.366,1.033,2.5,3.1,3.4c1.8,0.767,3.75,1.149,5.85,1.149
		c2.2,0,4.133-0.833,5.8-2.5c1.667-1.666,3.417-2.5,5.25-2.5c0.333,0,0.867,0.283,1.6,0.851c0.7,0.566,1.267,1.149,1.7,1.75v0.6
		c0,0.934-0.45,1.733-1.35,2.4C127.25,343.033,126.15,343.35,124.85,343.35z M96.8,280.25l1.35-2.7c0.167,1.434,0.25,2.867,0.25,4.3
		c0,3.233-0.617,7.634-1.85,13.2c-1.433,6.5-3.033,10.634-4.8,12.4c-1.467,0-2.717,1-3.75,3s-1.55,4.416-1.55,7.25
		c-0.6-1.566-1.883-3.05-3.85-4.45c-1.033-0.733-2.65-1.634-4.85-2.7c1.3-0.6,2.967-1.399,5-2.399c1.4-0.9,2.1-2.167,2.1-3.801
		c0-1.8-0.25-3.133-0.75-4c-0.767-0.966-1.434-1.8-2-2.5c-2.434-3-4.567-8.767-6.4-17.3l0.1,2.25c0,7.101-1.033,11.45-3.1,13.05
		c-0.1,0.067-0.917,0.467-2.45,1.2c-0.9,0.434-1.483,1.117-1.75,2.05c-1.833-2.433-3.25-4.166-4.25-5.199
		c-1.733-1.767-4.233-3.067-7.5-3.9l-2.45-2.2l0.05-0.05c1.066-1.733,2.5-4.35,4.3-7.85c0.4-0.767,1.2-1.15,2.4-1.15
		c0.7,0,1.5,0.25,2.4,0.75c0.9,0.467,2.083,0.7,3.55,0.7c2.2,0,3.3-1.334,3.3-4c0-0.434-0.333-1.684-1-3.75
		c-0.7-2.066-1.05-4.434-1.05-7.101c0-3.466,1.767-7.366,5.3-11.699c4.7-5.767,7.617-9.917,8.75-12.45l-0.4,1.45
		c-0.433,1.367-1,3.567-1.7,6.6c-0.7,3-1.05,4.783-1.05,5.35l0.05,5.9l0.15,6.35c-0.1,7.301,0.967,12.967,3.2,17
		c1.934,3.467,4.367,5.2,7.3,5.2c1.5,0,2.783-0.8,3.85-2.399C94.2,285.884,95.233,283.75,96.8,280.25z M133.2,102.55v-2.2l0.05,2.2
		c0.167,8.8-1.667,20.133-5.5,34c-4.2,13.4-6.583,21.784-7.15,25.15c-0.7-3.667-1.083-9.667-1.15-18c-0.034-4.2,0-8.133,0.1-11.8
		l0.1-5.95c0.333-1.8,1.917-4.184,4.75-7.15c3.367-3.5,5.133-5.383,5.3-5.65c0.433-0.867,1.117-2.733,2.05-5.6
		C132.65,104.817,133.133,103.15,133.2,102.55z M133.3,44.85c-0.1-0.5-0.2-3.217-0.3-8.15c-0.2-5.133-0.667-8.7-1.4-10.7
		c-0.1-0.267-0.317-0.75-0.65-1.45c-0.3-1-0.8-2.066-1.5-3.2c-0.034-0.067-0.067-0.117-0.1-0.15c-1.167-2.567-1.75-4.417-1.75-5.55
		c0-0.625,0.066-1.008,0.2-1.15v-0.05c0.2-0.1,0.434-0.333,0.7-0.7c0.733-0.567,2.4-1.317,5-2.25l4.05-1.35c1-0.3,2-0.5,3-0.6
		c2.5-0.066,4.217-0.183,5.15-0.35c0.133-0.034,0.25-0.067,0.35-0.1c1.534,1.133,3.317,3.1,5.35,5.9
		c1.867,2.533,3.017,3.983,3.45,4.35l3.6,1.85c-0.367,0.133-2,0.883-4.9,2.25c-1.667,0.767-3.15,1.15-4.45,1.15
		c-1.233,0-2.633-0.867-4.2-2.6c-1.6-1.767-3.217-2.65-4.85-2.65c-2.233,0-3.35,7.233-3.35,21.7c0,3.333,0.867,6.784,2.6,10.35
		c1.434,2.833,3.684,6.217,6.75,10.15l-1-0.8c-1.733-1.6-3.8-3.75-6.2-6.45c-2.267-2.566-3.583-4.216-3.95-4.95L133.3,44.85z
		 M157.85,261.15l-0.75-1.75c-0.2,0.166-0.3,0.583-0.3,1.25c0,2,0.784,4.216,2.351,6.649C158.85,265.2,158.417,263.15,157.85,261.15
		z M23.35,348.85c0.767-1.3,2.333-2.949,4.7-4.949c3.1-2.634,5.067-5.101,5.9-7.4c0.267-0.667,0.5-3.033,0.7-7.1
		c0.467-3.9,1.517-6.25,3.15-7.051c2.3-1.133,4.1-2.533,5.4-4.199c2.2-2.801,3.3-6.5,3.3-11.101c0-0.566-0.233-2.25-0.7-5.05
		c-0.5-2.967-0.917-4.967-1.25-6c0.367-0.033,0.883,0.066,1.55,0.3c0.6,0.2,1,0.4,1.2,0.601c0.534,0.733,0.967,1.716,1.3,2.949
		c1.267,4.134,2.05,6.801,2.35,8c0.466,1.667,0.7,3.417,0.7,5.25c0,2.233-0.45,4.117-1.35,5.65c-0.333,0.566-1.333,1.8-3,3.7
		c-2.9,3.3-4.35,7.816-4.35,13.55c0,6.1-2.667,11.417-8,15.95c-4.5,3.833-8.633,5.75-12.4,5.75l-1.4-0.15l-0.1-0.149
		c-0.1-0.2-0.15-0.517-0.15-0.95c0-1.134,0.017-1.75,0.05-1.851c0.133-0.333,0.767-1.916,1.9-4.75
		C22.95,349.55,23.117,349.217,23.35,348.85z M82,417.8c-0.567,0.334-0.95,0.533-1.15,0.601c-0.267,0.133-0.617,0.199-1.05,0.199
		c-1.133,0-2.1-1.066-2.9-3.199c1.633-3.233,3.684-5.584,6.15-7.051c1.833-1.1,2.75-2.333,2.75-3.699c0-1.534-0.7-3.267-2.1-5.2
		c-1.434-1.934-2.15-3.5-2.15-4.7c0-1.634,1.233-4.5,3.7-8.6c2.9-4.801,4.85-9.317,5.85-13.551c0.867,2.767,1.183,5.417,0.95,7.95
		c-0.233,2.467,0.067,4.983,0.9,7.55c-0.967,0.9-1.55,3.45-1.75,7.65c0,0.2,0,2.8,0,7.8c0,1.9-1.5,4.084-4.5,6.55
		c-3.034,2.467-4.55,4.45-4.55,5.95l0.15,1.55L82,417.8z M245.65,248.55l1.899,8.851c-0.133-0.367-0.467-1.784-1-4.25
		C245.95,250.517,245.65,248.983,245.65,248.55z M249.4,368.9c-0.9,0.699-1.7,1.699-2.4,3c-1,1.8-1.5,3.733-1.5,5.8
		c0,4.467,1.25,9.066,3.75,13.8c2.467,4.7,3.7,9.05,3.7,13.05c0,0.967-0.3,1.667-0.9,2.101c-0.399,0.3-0.85,0.449-1.35,0.449
		c-3.2-1.199-5.2-1.8-6-1.8c-0.967-1.233-1.8-2.816-2.5-4.75c-0.867-2.366-1.367-3.666-1.5-3.899l-0.3-0.45
		c1.433,0.666,2.533,1,3.3,1c1.166,0,1.75-0.55,1.75-1.65c0-0.5-1.7-3.666-5.101-9.5c-3.433-5.833-5.149-9.416-5.149-10.75
		c0-2.767,0.35-5.416,1.05-7.95c0.667-2.566,1-5.216,1-7.949c0-2.567,1.017-4.267,3.05-5.101c2.566-1.1,4.084-2.05,4.55-2.85
		l0.051-0.9c0.233,0.733,0.666,1.483,1.3,2.25c0.767,0.9,1.3,1.634,1.6,2.2C249,357.467,249.533,362.1,249.4,368.9z M306.65,372.45
		c1.433,2.8,3.233,5.649,5.399,8.55c1.3,1.767,1.95,3.283,1.95,4.55c0,1.8-0.267,2.851-0.8,3.15c-0.066,0.033-0.617,0.017-1.65-0.05
		c-1.533-0.134-2.166,2.649-1.899,8.35l-0.051,0.4c-3.233-0.7-5.033-1.051-5.399-1.051c-2.334-4.066-3.5-7.267-3.5-9.6
		c0-1.533,0.217-4.333,0.649-8.4c0-1.866-0.683-4.233-2.05-7.1c-1.399-2.866-2.1-5.417-2.1-7.65l0.05-2.8l0.15-0.149
		c0.166-0.2,0.316-0.534,0.449-1c0.2,0.199,1.101,1.633,2.7,4.3C302.583,367.083,304.616,369.917,306.65,372.45z M247.15,451.25
		c-0.667-0.5-2.634-2.884-5.9-7.15c-2.8-3.666-4.967-5.6-6.5-5.8c-3.066-0.133-5.5-0.434-7.3-0.899c-3.3-0.834-4.95-2.584-4.95-5.25
		c0-2.733,2.233-4.317,6.7-4.75c1.2-0.134,5.717-0.067,13.55,0.199c2.066,0.567,4.5,1.95,7.3,4.15c2.233,1.8,3.967,3.467,5.2,5
		c-0.833,0.767-1.366,1.316-1.6,1.65c-0.301,0.533-0.45,1.233-0.45,2.1c0,1.667,0.517,3.884,1.55,6.65s1.55,5.399,1.55,7.899
		c0,2.233-0.35,4.283-1.05,6.15c-0.934,2-1.6,3.684-2,5.05c-0.6-2.866-1.15-6.083-1.65-9.65
		C251,454.267,249.517,452.483,247.15,451.25z"/>
	<path style="fill-rule:evenodd;clip-rule:evenodd;fill:#BACDDF;" d="M207.05,67.2l0.2-0.65c0.366-1.633,0.55-3.183,0.55-4.65
		c0-0.867-0.25-2.05-0.75-3.55V58.3c1.533,1.633,2.95,3.35,4.25,5.15c1.634,3.267,2.517,5.1,2.65,5.5
		c4.7,32.5,9.467,58.783,14.3,78.85c0.533,2.034,1.083,4.034,1.65,6c-0.2-0.267-0.45-0.566-0.75-0.9
		c-1.034-1.233-2.217-3.65-3.551-7.25c-3.333-8.967-6.666-17.783-10-26.45c-1.666-4.8-2.5-9.417-2.5-13.85
		c0-3.533-1.483-9.583-4.449-18.15c-1.467-4.267-2.95-8.217-4.45-11.85C204.2,73.65,205.15,70.933,207.05,67.2z M246.85,232.2
		c-1.066-0.9-1.767-1.934-2.1-3.1c-0.2-0.7-0.4-1.8-0.6-3.3c-0.867-1.933-1.75-6.316-2.65-13.15c-1.233-5.867-3.517-8.8-6.85-8.8
		c-1.367,0-2.584,1.533-3.65,4.6c-1.2,4.267-2.3,7.583-3.3,9.95c0.033-2-0.3-6.867-1-14.6c0-0.9,0.75-2.45,2.25-4.65
		c1.467-2.167,2.2-4.533,2.2-7.1c0-0.667-0.317-4.1-0.95-10.3c0-13,0.066-21.717,0.2-26.15c4.733,17.7,8.666,32.733,11.8,45.1
		l13.6,38.5l-0.3-0.35c-0.2-0.333-1.333-1.25-3.4-2.75C249.6,234.267,247.85,232.967,246.85,232.2z M269.95,268.6
		c-2.934-5.267-4.634-8.166-5.101-8.699c-0.066-0.067-1.033-2.25-2.899-6.551l5.2,7.25c0.899,1.567,1.6,3.067,2.1,4.5
		c0.3,0.9,0.684,2.301,1.15,4.2L269.95,268.6z M274.6,318.2c0.233,0.166,1.301,1.3,3.2,3.399c0.012,0.248,0.028,0.481,0.05,0.7
		c0.034,1.867-0.017,3.283-0.149,4.25l-0.8,1.8c-0.767-0.6-1.317-2.116-1.65-4.55c-0.167-1.3-0.35-3.017-0.55-5.149L274.6,318.2z
		 M266.25,300.6h-0.05c-1.066-1-2.566-2.05-4.5-3.149c-2.033-1.101-3.45-1.9-4.25-2.4c0-0.866-0.417-3.916-1.25-9.149
		c-0.9-5.5-1.4-9.617-1.5-12.351l0.3,1.15c0.434,1.633,1.267,3.399,2.5,5.3c0.6,0.934,1.217,1.85,1.85,2.75
		c0.733,1.134,1.367,2.2,1.9,3.2c2,5.033,3.083,7.816,3.25,8.35C264.7,295.3,265.283,297.4,266.25,300.6z M233.25,301.3l-3.9-6.5
		c-0.366-1.267-1.466-3.649-3.3-7.149c-1.633-3.634-2.399-7.134-2.3-10.5l0.25,1.55c1.667,4.2,3.767,8.416,6.3,12.649
		c1.434,2.4,3.467,5.567,6.101,9.5c4.1,6.5,5.783,12.301,5.05,17.4c0.133,1.967,0.2,3.283,0.2,3.95c0,0.467-0.067,1.184-0.2,2.149
		c0,0.034,0,0.067,0,0.101c-0.101,0.833-0.2,1.399-0.3,1.7c-1.233-1.9-2.267-3.601-3.101-5.101l-0.05-0.1
		c-0.167-0.233-0.917-1.05-2.25-2.45c-1.333-1.366-2.1-2.116-2.3-2.25c0.633-0.767,1.149-1.7,1.55-2.8
		c0.434-1.134,0.65-2.25,0.65-3.351c0-1.433-0.184-2.949-0.551-4.55C234.634,303.616,234.017,302.2,233.25,301.3z M169.95,283.65
		l-1.5,0.949l-2.65,2.15c-4.767,4.8-7.85,7.866-9.25,9.2c2.233-3.467,3.351-7.084,3.351-10.851c0-2.699-0.25-8.633-0.75-17.8
		c0.466,0.8,1.583,3.101,3.35,6.9C164.6,278.1,167.083,281.25,169.95,283.65z M153.4,301.35l0.25-0.6
		c0.033-0.066,0.067-0.134,0.1-0.2L153.4,301.35z M140.95,322.6c-0.3-2.3-0.45-4.916-0.45-7.85c0-0.033,0.033-1.2,0.1-3.5
		c0.333-2.233,1.1-3.35,2.3-3.35c0.167,0,0.517,0.116,1.05,0.35c0.767,0.333,1.466,0.75,2.1,1.25l-2-0.1
		c0.267,3.033,0.4,4.966,0.4,5.8c0,1.166-0.083,1.899-0.25,2.2l-2.1,3.949L140.95,322.6z M117.85,351.15
		c-0.3,0.5-0.684,1.899-1.15,4.199c-0.434,2-0.684,3.4-0.75,4.2l-0.1,0.7c-0.2-0.333-0.3-1.017-0.3-2.05
		c0-0.667-0.267-3.517-0.8-8.55c0-1.534,0.383-3.034,1.15-4.5c0.833-1.601,1.783-2.4,2.85-2.4c0.233,0,1.167,0.1,2.8,0.3
		c1.567,0.233,2.667,0.334,3.3,0.3c-1.3,0.301-2.567,1.301-3.8,3C119.75,348.517,118.683,350.116,117.85,351.15z M68.5,299.1
		c0.267-0.933,0.85-1.616,1.75-2.05c1.533-0.733,2.35-1.133,2.45-1.2c2.066-1.6,3.1-5.949,3.1-13.05l-0.1-2.25
		c1.833,8.533,3.966,14.3,6.4,17.3c0.566,0.7,1.233,1.534,2,2.5c0.5,0.867,0.75,2.2,0.75,4c0,1.634-0.7,2.9-2.1,3.801
		c-2.033,1-3.7,1.8-5,2.399c-2.6-1.033-4.667-2.95-6.2-5.75C70.283,301.866,69.267,299.967,68.5,299.1z M157.85,261.15
		c0.566,2,1,4.05,1.3,6.149c-1.567-2.434-2.351-4.649-2.351-6.649c0-0.667,0.1-1.084,0.3-1.25L157.85,261.15z M86.9,414.65
		c-2.566,1.733-4.1,2.716-4.6,2.949l-0.15-1.55c0-1.5,1.517-3.483,4.55-5.95c3-2.466,4.5-4.649,4.5-6.55c0-5,0-7.6,0-7.8
		c0.2-4.2,0.783-6.75,1.75-7.65c0.566,1,2.117,3.367,4.65,7.101c2.233,3.833,3.35,7.149,3.35,9.95c0,1.899-0.6,3.366-1.8,4.399
		C97.217,411.184,93.133,412.884,86.9,414.65z M244.7,405.3c0.8,0,2.8,0.601,6,1.8c0.5,0,0.95-0.149,1.35-0.449
		c0.601-0.434,0.9-1.134,0.9-2.101c0-4-1.233-8.35-3.7-13.05c-2.5-4.733-3.75-9.333-3.75-13.8c0-2.066,0.5-4,1.5-5.8
		c0.7-1.301,1.5-2.301,2.4-3c0,4.833,0.333,8.433,1,10.8c0.6,2.166,1.949,4.767,4.05,7.8c2.533,3.7,3.783,6.184,3.75,7.45
		c-0.566,1.934-0.851,4.316-0.851,7.149c0,3.801,0.733,6.75,2.2,8.851c1.467,2.1,2.2,4.033,2.2,5.8c0,1.134-0.1,1.967-0.3,2.5
		c-0.334,0.8-0.967,1.2-1.9,1.2c-1.8,0-3.816-1.017-6.05-3.05C250.7,414.8,247.767,410.767,244.7,405.3z M304.2,396.35
		c0.366,0,2.166,0.351,5.399,1.051l0.051-0.4c-0.267-5.7,0.366-8.483,1.899-8.35c1.033,0.066,1.584,0.083,1.65,0.05
		c0.533-0.3,0.8-1.351,0.8-3.15c0-1.267-0.65-2.783-1.95-4.55c-2.166-2.9-3.967-5.75-5.399-8.55c2.6,2.767,4.883,6.3,6.85,10.6
		c2.167,4.667,3.333,8.934,3.5,12.8c0.066,1.434,0.3,3.417,0.7,5.95c0.366,2.334,0.55,3.834,0.55,4.5c0,1.101-0.267,2.267-0.8,3.5
		c-2.434-0.8-5.45-2.833-9.05-6.1c-3.167-2.867-4.75-4.467-4.75-4.8C303.65,397.267,303.833,396.417,304.2,396.35z M253.25,466.25
		c0.4-1.366,1.066-3.05,2-5.05c0.7-1.867,1.05-3.917,1.05-6.15c0-2.5-0.517-5.133-1.55-7.899s-1.55-4.983-1.55-6.65
		c0-0.866,0.149-1.566,0.45-2.1c0.233-0.334,0.767-0.884,1.6-1.65c3.8,8.333,5.816,14.483,6.05,18.45
		c-0.267,7.566-0.399,16.133-0.399,25.7c0,1.767,0.583,4.233,1.75,7.399c1.133,3.2,1.699,5.601,1.699,7.2l-0.149,1.8
		c-0.2,0-0.467,0.233-0.8,0.7c-0.767-1.1-2.351-5.75-4.75-13.95C255.75,474.083,253.95,468.15,253.25,466.25z"/>
</g>
</svg>
