<?xml version="1.0" encoding="iso-8859-1"?>
<!-- Generator: Adobe Illustrator 15.1.0, SVG Export Plug-In . SVG Version: 6.00 Build 0)  -->
<!DOCTYPE svg PUBLIC "-//W3C//DTD SVG 1.1//EN" "http://www.w3.org/Graphics/SVG/1.1/DTD/svg11.dtd">
<svg version="1.1" id="FlashAICB" xmlns="http://www.w3.org/2000/svg" xmlns:xlink="http://www.w3.org/1999/xlink" x="0px" y="0px"
	 width="192.45px" height="108.75px" viewBox="0 0 192.45 108.75" style="enable-background:new 0 0 192.45 108.75;"
	 xml:space="preserve">
<g>
	<path style="fill-rule:evenodd;clip-rule:evenodd;fill:#613A22;" d="M191.35,9.2c0.067,1.167,0.101,11.033,0.101,29.6l0.35,52.05
		c0.2,9.434-0.1,14.95-0.899,16.551c-0.334,0.699-0.9,1.1-1.7,1.199c-1.067-0.033-1.95,0.017-2.65,0.15H2.35
		c-1.133,0-1.817-1.083-2.05-3.25C0.1,103.733,0,98.634,0,90.2l0.05-51.4c0-7.767,0.067-14.216,0.2-19.35
		c0.133-4.9,0.283-6.7,0.45-5.4l95.05-3.5C159.184,8.45,191.05,8,191.35,9.2z"/>
	<path style="fill-rule:evenodd;clip-rule:evenodd;fill:#6D4126;" d="M14.5,35.85v6.35l-3.65,2.65l-4.7-2.3
		c0-0.7,0.05-1.85,0.15-3.45c0.067-1.2,0.067-1.883,0-2.05c-0.033-0.167-0.15-0.433-0.35-0.8c-0.134-0.433-0.067-1,0.2-1.7
		c0.467-1.133,1.917-2.8,4.35-5l2,2.4C13.833,33.717,14.5,35.017,14.5,35.85z"/>
	<path style="fill-rule:evenodd;clip-rule:evenodd;fill:#6D4126;" d="M10.5,46.85c0.566-0.434,1.2-0.117,1.9,0.95
		c0.4,0.667,1.1,1.917,2.1,3.75c-1.767,1.1-2.65,1.983-2.65,2.65c0,0.466-0.2,1.083-0.6,1.85c-0.4,0.667-0.867,1.267-1.4,1.8
		c-0.4,0.434-0.917,1.117-1.55,2.051l-0.8,1.3L7.2,59.85c-0.233-1-0.35-1.767-0.35-2.3c0-0.434,0.05-1.166,0.15-2.2
		c0.1-1.066,0.15-1.899,0.15-2.5c0-1.1-0.55-2.317-1.65-3.65l2-1.65l1,0.05C9.267,47.533,9.934,47.283,10.5,46.85z"/>
	<path style="fill-rule:evenodd;clip-rule:evenodd;fill:#6D4126;" d="M8.5,69.55l0.65,2.3c-0.2,1.334-0.3,2.334-0.3,3v3.7
		c-0.5-0.399-1.034-0.833-1.6-1.3c-1.1-0.934-1.8-1.616-2.1-2.05C4.883,74.8,4.8,74.184,4.9,73.35
		c0.067-0.433,0.15-0.816,0.25-1.149l0.8-0.851C6.684,70.684,7.533,70.083,8.5,69.55z"/>
	<path style="fill-rule:evenodd;clip-rule:evenodd;fill:#6D4126;" d="M8.5,81.85c0.267,0.467,0.483,0.967,0.65,1.5
		c0.333,1.067,0.233,1.801-0.3,2.2c-0.567,0.434-1.017,1-1.35,1.7L7.15,88.2v3.649l-1.65-4.3l0.35-3.35l0.7-0.9
		C7.15,82.634,7.8,82.15,8.5,81.85z"/>
	<path style="fill-rule:evenodd;clip-rule:evenodd;fill:#6D4126;" d="M19.15,66.2V60.85c0-0.933,0.284-1.683,0.85-2.25
		c0.5-0.5,1.117-0.75,1.85-0.75c0.867,0,0.966-1.216,0.3-3.649l0.35-3l2.65-4l0.55-2.05c0.4-1.233,0.783-1.55,1.15-0.95
		c0.667,1.1,0.667,2.65,0,4.65l-1.35,2v2.35l0.65,4c-0.2,0.899-0.417,1.684-0.65,2.35c-0.133,0.434-0.566,0.95-1.3,1.55l-1.05,0.75
		c-0.867,1.567-1.533,2.9-2,4c-0.3,0.801-0.716,1.2-1.25,1.2C19.4,67.05,19.15,66.767,19.15,66.2z"/>
	<path style="fill-rule:evenodd;clip-rule:evenodd;fill:#6D4126;" d="M48.5,50.2l3.35,1.35c-2,0-3.333,0.217-4,0.65
		c-0.333,0.233-0.85,0.45-1.55,0.65c-0.767,0.233-1.366,0.467-1.8,0.7c-0.467,0.233-0.783,0.767-0.95,1.601
		c-0.167,0.833-0.4,1.3-0.7,1.399c-0.4,0.134-1.25,0.05-2.55-0.25l-1.8-0.45c-0.233-0.866-0.233-1.75,0-2.649l3-2L48.5,50.2z"/>
	<path style="fill-rule:evenodd;clip-rule:evenodd;fill:#6D4126;" d="M75.15,27.85c-1.533,0-2.633,0.117-3.3,0.35
		c-0.333,0.133-0.784,0.2-1.35,0.2s-1.017,0.05-1.35,0.15c-0.667,0.2-1.667,0.3-3,0.3c-0.933,0-1.7,0.45-2.3,1.35
		c-0.3,0.433-0.95,1-1.95,1.7l-1.4,0.95v-1c0-0.667,0.117-1.333,0.35-2l1.65-2l1-0.35c0.9-0.3,1.9-0.517,3-0.65
		c0.9-0.1,1.633-0.25,2.2-0.45c0.433-0.133,0.917-0.2,1.45-0.2L75.15,27.85z"/>
	<path style="fill-rule:evenodd;clip-rule:evenodd;fill:#6D4126;" d="M67.15,34.55c2,0.434,4.233,0.767,6.7,1h-3l-5,1.3
		c-0.567,0.133-1.3,0.4-2.2,0.8L62.5,38.2l-3.65,1.35l0.65-3l3.85-1.7C64.816,34.417,66.083,34.317,67.15,34.55z"/>
	<path style="fill-rule:evenodd;clip-rule:evenodd;fill:#6D4126;" d="M81.5,44.2l4.35,1.35c-3.567,2-5.684,3-6.35,3h-7
		c-1.1,0-2.1,0.55-3,1.65l-1,1.65l1-3.65l1-0.7c0.767-0.5,1.434-0.816,2-0.95c0.9-0.233,2.45-0.566,4.65-1L81.5,44.2z"/>
	<path style="fill-rule:evenodd;clip-rule:evenodd;fill:#6D4126;" d="M57.75,60.3l-1.9,1.55c-2,0-3.333,0.117-4,0.351
		c-0.4,0.133-0.633,0.566-0.7,1.3v1.05l3.7,1.65c1.533,0.7,2.767,1.733,3.7,3.1c0.467,0.7,0.783,1.334,0.95,1.9l-5-2.351h-6
		c-0.367,0-0.85,0.4-1.45,1.2c-0.866,1.167-1.6,2-2.2,2.5c-0.867,0.7-1.483,1.634-1.85,2.8c-0.333,1.467-0.617,2.634-0.85,3.5
		c-0.267,1.134-0.283,2.134-0.05,3l0.4,1l2.45,1.351c1.6,1,2.333,1.783,2.2,2.35c-0.1,0.5-1.233,0.351-3.4-0.45
		c-2.367-0.899-3.667-1.316-3.9-1.25c-0.4,0.134-1.133,1.634-2.2,4.5l-1.5,4.2l-0.3-5.7c0-1.333,0.55-3.666,1.65-7l1.35-7
		c0.133-0.8,0.75-2.1,1.85-3.899c0.6-0.934,1.316-2.066,2.15-3.4c0.433-0.899,1.533-2.017,3.3-3.35l1.35-2.65l2.3-0.95
		c1.733-0.633,3.083-0.883,4.05-0.75c1.533,0.233,3.966,0.134,7.3-0.3C60.316,58.684,59.184,59.267,57.75,60.3z"/>
	<path style="fill-rule:evenodd;clip-rule:evenodd;fill:#6D4126;" d="M92.85,71.2l6.3,2.649l-3,1H88.5c-1.1,0-2.367,0.334-3.8,1
		l-1.85,1l1.65-3.3l1.65-0.899c1.167-0.601,1.95-0.967,2.35-1.101C89.167,71.316,90.617,71.2,92.85,71.2z"/>
	<path style="fill-rule:evenodd;clip-rule:evenodd;fill:#6D4126;" d="M77.5,81.55l2.35-1.35l4.3-0.351l1,2l-0.65,1
		c-0.267,0.434-0.85,0.95-1.75,1.551l-1.25,0.8l-3,0.35c-1.233,0.134-2.1,0.667-2.6,1.601l-0.4,1.399l0.35-2.7L77.5,81.55z"/>
	<path style="fill-rule:evenodd;clip-rule:evenodd;fill:#6D4126;" d="M110.5,43.2l-0.35,11.35h-2l-2-4.35l0.35-4.35l1.35-4.3l2-4
		C110.283,40.65,110.5,42.533,110.5,43.2z"/>
	<path style="fill-rule:evenodd;clip-rule:evenodd;fill:#6D4126;" d="M116.15,65.85l1.35,0.351l1.65,0.649
		c0.232,2.667,0.35,4.667,0.35,6c0,1.834-0.45,3.617-1.35,5.351c-0.301,0.633-1.2,1.533-2.7,2.7c-1.3,1-2.617,1.883-3.95,2.649
		c-0.967,0.533-2.033,0.75-3.2,0.65l-1.45-0.351l0.75-2.5c0.533-1.767,0.95-2.933,1.25-3.5c0.434-0.866,0.768-2.533,1-5l1.301-4
		L116.15,65.85z"/>
	<path style="fill-rule:evenodd;clip-rule:evenodd;fill:#6D4126;" d="M135.85,40.55l-0.699,2.65l-5-1.65l-2.301-3l1.45-1.4
		c1.067-0.933,1.8-1.466,2.2-1.6c0.667-0.233,1.667-0.466,3-0.7l1.35,3V40.55z"/>
	<polygon style="fill-rule:evenodd;clip-rule:evenodd;fill:#6D4126;" points="157.85,27.55 150.5,32.2 147.5,33.2 143.85,35.2 
		138.85,32.85 145.5,29.85 	"/>
	<path style="fill-rule:evenodd;clip-rule:evenodd;fill:#6D4126;" d="M157.15,57.55l3,0.3l1.699,3.7l-2.35,2.3v3h-3
		c-0.7,0-1.517,0.233-2.45,0.7l-1.2,0.65l-4,4.649l0.301-5.649l2.35-5.351L157.15,57.55z"/>
	<polygon style="fill-rule:evenodd;clip-rule:evenodd;fill:#6D4126;" points="172.15,24.55 170.15,34.85 165.15,36.85 161.85,36.85 
		163.15,33.55 165.85,31.2 	"/>
	<path style="fill-rule:evenodd;clip-rule:evenodd;fill:#6D4126;" d="M175.85,75.55l3,2.65c-0.467,0.899-0.8,1.684-1,2.35
		c-0.133,0.434-0.899,1.167-2.3,2.2l-2.05,1.45l-3.35-0.65l1-5L175.85,75.55z"/>
	<polygon style="fill-rule:evenodd;clip-rule:evenodd;fill:#6D4126;" points="140.85,89.55 137.85,89.85 137.85,86.85 145.5,83.55 
		149.85,83.55 149.85,87.55 143.15,87.2 	"/>
	<polygon style="fill-rule:evenodd;clip-rule:evenodd;fill:#6D4126;" points="137.5,73.2 138.85,77.55 136.5,78.2 135.5,74.55 	"/>
	<path style="fill-rule:evenodd;clip-rule:evenodd;fill:#55351E;" d="M191.35,9.2c0.067,1.2,0.101,5.2,0.101,12H0.25
		c0.1-6.5,0.25-8.883,0.45-7.15l95.05-3.5C159.184,8.45,191.05,8,191.35,9.2z"/>
	<path style="fill-rule:evenodd;clip-rule:evenodd;fill:#55351E;" d="M18.85,29.7c-1-1.667-2.667-3.333-5-5L7.6,21.25L0.25,21.2
		l15.3-3.7l30.8-0.3l12.5,0.5l-1,4l-7.15,3c-0.233,0.667-0.434,1.35-0.6,2.05c-0.333,1.434-0.35,2.267-0.05,2.5
		c0.367,0.267,0.283,1.117-0.25,2.55c-0.566,1.467-1.217,2.434-1.95,2.9c-0.633,0.433-1.567,0.816-2.8,1.15l-1.7,0.35l-3,2
		c-0.333,0.267-0.667,0.6-1,1c-0.667,0.833-1,1.667-1,2.5c0,0.833-0.167,2.75-0.5,5.75l-0.5,4.25l-1.5,2.5
		c-0.633,1.033-1.4,2.017-2.3,2.95l-1.2,1.05v4c0,1.666-0.833,3.333-2.5,5c-0.633,0.633-2.233,1.483-4.8,2.55l-3.7,1.45l2.15-2
		c1.5-1.5,2.45-2.667,2.85-3.5c1-2,1.5-3.834,1.5-5.5v-4.5c0-0.634,0.3-1.383,0.9-2.25c0.333-0.5,0.867-1.25,1.6-2.25
		c0.6-0.867,0.9-1.817,0.9-2.85c0-1.367-0.467-3.083-1.4-5.15c-1.333-3-2.833-6.833-4.5-11.5c-0.833,0.1-1.733,0.083-2.7-0.05
		C20.75,31.383,19.483,30.733,18.85,29.7z"/>
	<path style="fill-rule:evenodd;clip-rule:evenodd;fill:#55351E;" d="M137.85,22.2l-5.699,5.45l-6.301,1.05l-5,5.5
		c-0.333,3.333-0.5,5.833-0.5,7.5c0,1.033,0.601,3.083,1.801,6.15c1.3,3.066,2.033,4.85,2.199,5.35c0.134,0.367,1.2,2.033,3.2,5
		c1.867,2.767,2.8,4.434,2.8,5c0,0.934-0.199,2.434-0.6,4.5c-0.467,2.333-0.934,3.833-1.4,4.5c-0.399,0.633-0.433,1.733-0.1,3.3
		l3.1,10.2l-7.5,0.5c-1.666,1-3.833,2-6.5,3c-1.666,0.633-4.333,0.733-8,0.3l-5-0.8h6.5l3.15-2c2.167-1.5,3.45-2.667,3.85-3.5l4-8
		l-1-12c0-0.4-1-1.767-3-4.101c-2-2.333-3-3.966-3-4.899c0-0.667-0.333-2.5-1-5.5c-0.666-3-1-5.333-1-7c0-1.6-0.232-3.133-0.699-4.6
		c-0.334-1.167-0.434-1.967-0.301-2.4c0.334-1-1-4.333-4-10c-3-1.233-6.133-2.467-9.399-3.7c-6.464-2.362-10.439-3.462-11.925-3.3
		l33.825-4.5l25,4.5L137.85,22.2z"/>
	<path style="fill-rule:evenodd;clip-rule:evenodd;fill:#55351E;" d="M77.35,20.2c-0.667-1.333-2-2.5-4-3.5l15.5-1
		c1.667,4.333,2.5,7.333,2.5,9c0,1.033-0.667,2.017-2,2.95l-2,1.05c-1,3.667-2,5.833-3,6.5c-0.633,0.433-1.733,0.983-3.3,1.65
		l-2.2,0.85c-0.333,2.667-0.833,4.5-1.5,5.5c-0.434,0.667-1.117,1-2.05,1c-0.3,0-1.616-0.167-3.95-0.5
		c-1.467-0.2-3.733-0.767-6.8-1.7l-4.2-1.3l12-1l0.75-1.35c0.667-1,1.417-1.717,2.25-2.15c0.833-0.4,1.417-1.934,1.75-4.6
		c0.167-1.333,0.25-2.633,0.25-3.9l2.5-2.5L77.35,20.2z"/>
	<path style="fill-rule:evenodd;clip-rule:evenodd;fill:#55351E;" d="M165.85,15.7h10.5c1.268,0,2.167,0.566,2.7,1.7
		c0.367,1.367,0.634,2.3,0.8,2.8c0.167,0.5,0.834,3.667,2,9.5c0.233,1.1,0.117,3.233-0.35,6.4c-0.434,2.7-0.816,4.566-1.15,5.6
		c-0.199,0.633-0.433,1.566-0.699,2.8l-0.301,1.7c-1.666,1-3.166,1.833-4.5,2.5c-0.8,0.4-1.416,1-1.85,1.8
		c-0.434,0.967-0.816,1.7-1.15,2.2c-0.399,0.633-0.85,1.483-1.35,2.55l-0.65,1.45l3,7.5c0.334,2.333,0.5,4,0.5,5v4.5l-11.5,6
		c-0.5,0.5-1.1,1-1.8,1.5c-1.433,1-2.667,1.5-3.7,1.5s-3.517-0.667-7.449-2l-5.551-2l14-0.5l10-11l-5.5-19v-6l9.5-2.5l0.301-2.2
		c0.267-1.566,0.5-2.667,0.699-3.3c0.2-0.6,0.367-1.633,0.5-3.1c0.301-3.233,0.467-5.033,0.5-5.4c0.2-1.867-0.982-4.1-3.55-6.7
		L165.85,15.7z"/>
	<path style="fill-rule:evenodd;clip-rule:evenodd;fill:#55351E;" d="M165.85,15.7c3.867-0.167,6.301-0.167,7.301,0
		c0.767,0.133,1.833,0.133,3.199,0c1.967-0.2,2.301,0.316,1,1.55c-2.232,2.133-3.399,3.283-3.5,3.45
		c-0.166,0.333-0.783,1.167-1.85,2.5c-0.7,0.867-1,1.667-0.9,2.4c0.101,0.8-0.467,1.15-1.699,1.05c-1.533-0.3-2.551-0.45-3.051-0.45
		c-0.633,0-1.399-0.083-2.3-0.25l-1.2-0.25c-4.333-1.333-7-2-8-2h-9.5l-3-0.5c-2-0.333-3.5-0.5-4.5-0.5c-2.1,0-5.6,0.333-10.5,1
		l15.301-3.8C153.75,17.3,161.483,15.9,165.85,15.7z"/>
	<path style="fill-rule:evenodd;clip-rule:evenodd;fill:#55351E;" d="M66.8,22.6c-1.3,0.066-2.616,0.1-3.95,0.1
		c-1.733,0-2.75-0.034-3.05-0.1c-0.467-0.267-1.116-0.567-1.95-0.9c-1.034-0.4-2.184-0.184-3.45,0.65l-1.55,1.35l-14.5,0.5
		l10.2-4.25c7.067-2.833,11.333-4.25,12.8-4.25c1.167,0,4.917,0.5,11.25,1.5s10.083,1.5,11.25,1.5c1.633,0,1.85,0.833,0.65,2.5
		c-1.133,1.533-2.684,2.867-4.65,4c-1.467,0.833-2.767,0.95-3.9,0.35c-1.233-1-2.284-1.733-3.15-2.2
		c-0.933-0.5-1.717-0.567-2.35-0.2c-0.634,0.333-1.167,0.35-1.6,0.05C68.217,22.8,67.533,22.6,66.8,22.6z"/>
	<path style="fill-rule:evenodd;clip-rule:evenodd;fill:#55351E;" d="M52.35,89.2l-3-3L51.9,86.1
		c1.933-0.166,3.417-0.466,4.45-0.899c1.667-0.667,4.167-3.334,7.5-8v-9c0.833-0.2,1-1.767,0.5-4.7c-0.233-1.434-0.567-2.866-1-4.3
		l8.5,7.5l1.5,11l-1.5,6l-3.5,6.5l-5,4l-3.5,1.5c-0.167,0.934-0.5,1.866-1,2.8c-1,1.934-2.333,3-4,3.2s-4.833-0.733-9.5-2.8
		l-6.5-3.2l4.7-0.3c3.233-0.267,5.167-0.5,5.8-0.7c1-0.334,2.167-1.167,3.5-2.5L52.35,89.2z"/>
	<path style="fill-rule:evenodd;clip-rule:evenodd;fill:#55351E;" d="M172.85,88.7c5.2-1.233,8.101-3.517,8.7-6.851
		c0.3-1.666,0.067-3.216-0.7-4.649l3.5,6l-3.5,16l-9.5,0.5l-4-5.5l0.95-2.3C169.333,90.233,170.85,89.167,172.85,88.7z"/>
	<path style="fill-rule:evenodd;clip-rule:evenodd;fill:#55351E;" d="M136.5,7.85c1.667,0.133,10.95,0.233,27.85,0.3
		c8.434,0.034,16.7,0.05,24.801,0.05l1,9.65c-9.334-0.2-15-0.083-17,0.35c-2,0.433-30,0.65-84,0.65
		c-5.933-0.833-11.917-1.533-17.95-2.1c-11.967-1.066-20.25-0.917-24.85,0.45c-4.667,1.4-9.317,3.6-13.95,6.6l-5.55,4.05L2.3,18
		l-1.1-4.7c-0.1-3.167,1.45-4.75,4.65-4.75c2.733,0,13.033-0.216,30.9-0.65c17.9-0.466,27.7-0.7,29.4-0.7
		c5.333,0,17.267,0.066,35.8,0.2C123.25,7.567,134.767,7.717,136.5,7.85z"/>
	<path style="fill-rule:evenodd;clip-rule:evenodd;fill:#55351E;" d="M90.5,46.85c0.434,0.3,0.8,0.967,1.1,2
		c0.133,0.467,0.316,1.367,0.55,2.7c0.133,0.7,0.233,1.4,0.3,2.1l0.05,0.9c0,0.566,0.033,1.167,0.1,1.8
		c0.1,1.334,0.283,2.284,0.55,2.851c0.5,0.967,0.883,1.983,1.15,3.05c0.333,1.467,0.283,2.566-0.15,3.3
		c-0.333,0.566-0.517,0.767-0.55,0.601c-0.067-0.4-0.317-0.601-0.75-0.601c-1.133,0-2.25-0.116-3.35-0.35l-2.35-0.351
		c-1.333,1.801-2.55,2.7-3.65,2.7c-0.7,0-2.3-0.45-4.8-1.35l-3.55-1.351l2.45-0.25c1.667-0.267,2.633-0.616,2.9-1.05
		c0.133-0.166,0.75-0.967,1.85-2.399c0.933-1.233,1.533-2.101,1.8-2.601c0.367-0.7,0.7-1.166,1-1.399
		c0.3-0.267,0.867-0.467,1.7-0.601c0.7-0.133,0.733-1.399,0.1-3.8c-0.3-1.2-0.667-2.383-1.1-3.55c1.533-0.133,2.267-0.95,2.2-2.45
		c-0.033-0.733-0.217-1.467-0.55-2.2L90.5,46.85z"/>
	<path style="fill-rule:evenodd;clip-rule:evenodd;fill:#55351E;" d="M100.85,82.85c0.134,0.434,0.551,1,1.25,1.7
		c0.4,0.367,0.983,0.917,1.75,1.65c0.4,0.399,0.45,0.967,0.15,1.7c-0.434,0.767-0.717,1.316-0.85,1.649
		c-0.134,0.4-0.45,0.783-0.95,1.15c-0.667,0.434-1.233,0.816-1.7,1.149c-0.566,0.434-0.8,1.284-0.7,2.551l0.351,1.8
		c-1.101,0.434-2.101,0.55-3,0.35c-0.567-0.133-1.101-0.366-1.601-0.7c-0.6-0.433-1.066-0.767-1.4-1
		c-0.4-0.267-1.017-0.399-1.85-0.399c-0.967,0.066-1.683,0.1-2.15,0.1c-0.533,0-1.2,0.384-2,1.15l-1,1.149
		c-1.533,0.467-3.083,0.7-4.65,0.7c-0.967,0-2.15-0.55-3.55-1.649l-1.8-1.7l-1.65-3l1.75,0.5c1.333,0.333,2.417,0.5,3.25,0.5
		c0.867,0,1.483-0.15,1.85-0.45c0.033-0.066,0.3-0.467,0.8-1.2c0.233-0.333,0.534-0.816,0.9-1.45c0.333-0.533,0.7-0.949,1.1-1.25
		c0.4-0.267,0.833-0.767,1.3-1.5c0.267-0.433,0.616-1.033,1.05-1.8c0.434-0.666,0.55-1.783,0.35-3.35l2.65,0.649l7,4.351
		c0.434-0.834,0.283-1.8-0.45-2.9l-1.2-1.45v-4l1-1c0.667-0.666,2.434-1.433,5.301-2.3c-0.867,1.767-1.417,3.2-1.65,4.3
		C100.233,80.116,100.35,81.45,100.85,82.85z"/>
	<path style="fill-rule:evenodd;clip-rule:evenodd;fill:#55351E;" d="M149.85,83.55l1.351,0.25c1.066,0.2,1.95,0.45,2.649,0.75
		c0.7,0.267,1.117,0.617,1.25,1.05l0.051,0.601c0.666,2,1,3.55,1,4.649c0,2.2-0.768,3.767-2.301,4.7
		c-0.566,0.334-1.199,1.017-1.899,2.05c-0.733,1.067-1.434,1.817-2.101,2.25c-0.833,0.567-1.967,0.9-3.399,1L135.85,100.2l4-0.65
		l1.301-2c-0.434-2-0.867-3.45-1.301-4.35c-0.3-0.566-0.166-0.967,0.4-1.2c0.267-0.1,0.566-0.15,0.9-0.15l2.1,0.65
		c1.9,0.5,4.1,0.95,6.6,1.35L150.7,92.9c0.633-0.7,1.017-1.267,1.149-1.7C152.05,90.533,151.383,87.983,149.85,83.55z"/>
	<path style="fill-rule:evenodd;clip-rule:evenodd;fill:#55351E;" d="M147.15,39.85c0.467-0.667,1.25-2,2.35-4l1.35-0.3
		c0.867-0.233,2.2-1.133,4-2.7c2.867-2.434,4.417-3.65,4.65-3.65c0.133,0,0.184,0.05,0.15,0.15c-0.101,0.233-0.15,0.517-0.15,0.85
		l0.35,5.65l-4,4l-2.699,5c0,1.8,0.116,3.25,0.35,4.35c0.333,1.566-0.117,2.566-1.35,3c-1.4,0.5-2.733,1.05-4,1.65
		c-0.334,0.167-1,0.417-2,0.75c-0.834,0.267-1.5,0.583-2,0.95c-0.567,0.434-0.9,1.184-1,2.25c0,0.066,0,0.983,0,2.75
		c0,0.834-0.2,2-0.601,3.5c-0.433,1.533-0.899,2.8-1.399,3.8c-0.367,0.767-0.768,0.767-1.2,0c-0.667-1.166-1.15-1.833-1.45-2
		c-0.833-0.399-1.833-2.283-3-5.649c-0.233-0.667-1.017-2.55-2.35-5.65L132.8,51c-0.1-2.2,0.134-2.917,0.7-2.15
		c1.566,2.133,2.816,2.6,3.75,1.4c0.367-0.5,0.783-1.633,1.25-3.4c0.133-0.5,0.066-1.083-0.2-1.75c-0.3-0.8-0.45-1.317-0.45-1.55
		c0-0.4,0.117-0.95,0.351-1.65c0.167-0.4,0.383-0.966,0.649-1.7c0.2-0.667,0.2-2,0-4l2.301,4.65l1.5,0.45
		c1.066,0.3,1.8,0.384,2.199,0.25C145.883,41.184,146.65,40.617,147.15,39.85z"/>
	<path style="fill-rule:evenodd;clip-rule:evenodd;fill:#55351E;" d="M46.85,61.85l-1.35,4.7c-1.233,0.834-2.333,1.75-3.3,2.75
		l-1.05,1.25l-2.3,3.3l-1.35,7c-0.233,0.667-0.45,1.45-0.65,2.351l-0.7,2.649l0.7,3.7l-0.7,2.3L37.5,94.2
		c-1.767-2.233-3.1-3.566-4-4c-0.566-0.267-1.4-0.517-2.5-0.75l-1.5-0.25c-0.6,0-1.217-0.066-1.85-0.2
		c-1.3-0.267-2.017-0.75-2.15-1.45c-0.467-2.3-0.583-3.967-0.35-5c0.233-0.899,0.233-2.899,0-6l0.25,1.05
		c0.567,0.667,1.817,0.867,3.75,0.601c2.133-0.3,3.483-0.617,4.05-0.95c0.267-0.167,0.7-0.733,1.3-1.7
		c0.367-0.6,0.75-1.633,1.15-3.1c0.367-1.434,0.65-2.3,0.85-2.601c0.167-0.233,0.717-0.699,1.65-1.399
		c0.867-0.634,1.433-1.267,1.7-1.9c0.867-2.267,1.3-3.717,1.3-4.35c0-0.667-0.767-2-2.3-4l1.75,0.25
		c1.333,0.1,2.417,0.017,3.25-0.25c0.633-0.2,1.2-0.634,1.7-1.3c0.467-0.667,1.117-1.117,1.95-1.351c1.566-0.467,3.35-0.8,5.35-1
		l1,4.3c-0.567,0-1.167,0.034-1.8,0.101c-1.267,0.1-2.116,0.3-2.55,0.6c-0.4,0.267-0.967,0.733-1.7,1.4L46.85,61.85z"/>
	<path style="fill-rule:evenodd;clip-rule:evenodd;fill:#55351E;" d="M13.5,38.55c0-1.966-0.5-4.05-1.5-6.25
		c-0.5-1.1-1-2.017-1.5-2.75c3.767,2,5.983,3.667,6.65,5c0.433,0.833,0.683,1.684,0.75,2.55c-0.033,0.833-0.05,1.417-0.05,1.75
		s-0.117,1.233-0.35,2.7c-0.233,1.434-0.35,2.317-0.35,2.65c0,0.433,0.4,1.783,1.2,4.05l1.15,3.3c-0.667,2.2-1.217,3.634-1.65,4.3
		c-1.7,2.434-2.934,4.101-3.7,5c-0.7,0.834-1.283,2.034-1.75,3.601l-0.55,2.1l-0.35-3.7l1.65-4.3L12.5,55.5
		c-0.434-2.167-0.65-3.6-0.65-4.3c0-0.534-0.217-1.217-0.65-2.05c-0.467-0.833-0.7-1.6-0.7-2.3c0-0.567,0.5-1.8,1.5-3.7
		C13,41.217,13.5,39.684,13.5,38.55z"/>
	<path style="fill-rule:evenodd;clip-rule:evenodd;fill:#55351E;" d="M12.9,72.4c-0.433-1.233-0.9-2.301-1.4-3.2
		c4,3.566,6,5.899,6,7v5.649c0,0.834-0.117,1.5-0.35,2c-0.433,0.801-0.867,1.7-1.3,2.7l-1.35,3l-2.35-4.35l-0.3-1.351
		c-0.133-1-0.133-1.767,0-2.3c0.1-0.467,0.45-1.017,1.05-1.649c0.567-0.601,0.883-1.051,0.95-1.351
		C14.117,76.884,13.8,74.833,12.9,72.4z"/>
	<path style="fill-rule:evenodd;clip-rule:evenodd;fill:#482D1D;" d="M43.15,8.55c-0.2,2-0.317,3.434-0.35,4.3
		c-0.033,0.566-0.7,1.517-2,2.85l-1.95,1.85v1.3c0,0.533,0.25,1.1,0.75,1.7c0.7,0.833,1.117,1.384,1.25,1.65
		c0.267,0.566,1.183,1.633,2.75,3.2c0.767,0.767,1.517,1.483,2.25,2.15l-1.7,1.65H42.5c-0.767,0-1.25,0.033-1.45,0.1
		c-0.1,0-0.5,0.184-1.2,0.55c-0.567,0.3-0.8,0.783-0.7,1.45l0.35,0.9l-2,7l-0.65-7.65c0-0.667-0.667-1.9-2-3.7v-6.3
		c0-0.833-1.5-1.917-4.5-3.25l-4.5-1.75c-0.4-0.4-0.833-0.883-1.3-1.45c-1-1.167-1.733-2.233-2.2-3.2
		c-0.467-0.966-0.083-1.6,1.15-1.9c0.633-0.133,1.3-0.183,2-0.15l12.85-2.8L43.15,8.55z"/>
	<path style="fill-rule:evenodd;clip-rule:evenodd;fill:#482D1D;" d="M88.85,15.7l-2.4,2c-0.4,0.367-0.417,0.783-0.05,1.25
		c0.233,0.3,0.717,0.833,1.45,1.6c0.333,0.434,0.716,0.833,1.15,1.2c0.233,0.3,0.283,0.783,0.15,1.45
		c-0.033,0.833-0.083,1.367-0.15,1.6c-0.066,0.367-0.45,0.833-1.15,1.4c-0.567,0.466-0.967,0.617-1.2,0.45
		c-0.1-0.066-0.267,0.233-0.5,0.9c-0.767,2.333-1.317,3.767-1.65,4.3c-0.434,0.667-0.7,1.05-0.8,1.15
		c-0.267,0.267-0.784,0.55-1.55,0.85l-3.65,1.7l2.65-4.35c0-1.434,0.05-2.367,0.15-2.8c0.167-0.566,0.567-1.083,1.2-1.55
		c0.467-0.333,0.816-0.333,1.05,0c0.1,0.133,0.2-0.2,0.3-1l0.65-4.3c-0.434-0.066-0.95-0.25-1.55-0.55c-1.167-0.6-2.1-1.533-2.8-2.8
		c-0.533-0.934-0.95-2.184-1.25-3.75c-0.2-1.067-0.55-1.717-1.05-1.95c-0.567-0.267-1.4-0.783-2.5-1.55l-1.5-1.1
		c-1.167-0.267-2.05-0.533-2.65-0.8c-1.233-0.566-0.467-0.85,2.3-0.85c4.434,0,10.65,0.117,18.65,0.35L88.85,15.7z"/>
	<path style="fill-rule:evenodd;clip-rule:evenodd;fill:#482D1D;" d="M77.35,43.2c-0.067,0.833-0.35,1.25-0.85,1.25
		c-0.867-0.167-1.75-0.25-2.65-0.25c-1.133,0-3.25-0.383-6.35-1.15l-4.35-1.2h5c1.133,0,2.583-0.217,4.35-0.65l1.15-0.35
		c0.9-0.333,1.633-0.767,2.2-1.3C76.95,40.65,77.45,41.867,77.35,43.2z"/>
	<path style="fill-rule:evenodd;clip-rule:evenodd;fill:#482D1D;" d="M34.15,45.85l3-4.65v3c0,0.4,0.233,1.15,0.7,2.25
		c0.433,1.1,0.65,2.017,0.65,2.75c0,0.833-0.184,1.5-0.55,2l-0.6,0.5c-0.333,1-0.833,1.833-1.5,2.5
		c-0.233,0.233-0.717,0.816-1.45,1.75c-0.667,0.866-1.35,1.616-2.05,2.25c-0.767,0.7-0.7,1.399,0.2,2.1c0.467,0.367,1,0.667,1.6,0.9
		l-1.65,4c-0.7,1.666-2.517,2.95-5.45,3.85l-4.2,0.8l7-2.649l0.25-9c-0.034-0.767-0.117-1.434-0.25-2c-0.233-0.9-0.133-1.567,0.3-2
		L31,53.9c0.667-0.267,1.283-0.617,1.85-1.05c0.867-0.667,1.2-1.55,1-2.65L34.15,45.85z"/>
	<path style="fill-rule:evenodd;clip-rule:evenodd;fill:#482D1D;" d="M119.1,87.2c0.533-1.033,1-1.7,1.4-2c1.333-1,2-2.117,2-3.351
		c0-0.399,0.217-0.783,0.65-1.149c0.232-0.2,0.683-0.584,1.35-1.15c0.667-0.666,1.117-1.45,1.35-2.35c2.2,2.434,3.2,4.217,3,5.35
		c-0.133,0.7-0.35,1.4-0.649,2.101l-0.351,0.899l-2.899,1.9c0.167-0.167,0.017-0.134-0.45,0.1c-0.434,0.233-0.65,0.316-0.65,0.25
		c0-0.166-0.232-0.25-0.699-0.25c-0.533,0-0.967,0.334-1.301,1l-0.35,1l-1.65,2.3l-8.699-1.3h1.699c0.801,0,1.533-0.1,2.2-0.3
		c0.567-0.167,1.333-0.517,2.3-1.05C118.017,88.833,118.6,88.167,119.1,87.2z"/>
	<path style="fill-rule:evenodd;clip-rule:evenodd;fill:#482D1D;" d="M124.5,58.55l-0.15-5.35c1.667,2.899,2.601,4.684,2.801,5.35
		c0.1,0.3,0.6,0.851,1.5,1.65c0.8,0.733,1.199,1.283,1.199,1.649c0,1.267-0.449,2.5-1.35,3.7c-0.4,0.533-0.633,1.033-0.7,1.5
		l0.05,0.5c-0.467,1.334-1.133,2.334-2,3l-0.35-1.35c-0.233-1-0.35-1.783-0.35-2.351v-5L124.85,60.7
		C124.617,59.8,124.5,59.083,124.5,58.55z"/>
	<path style="fill-rule:evenodd;clip-rule:evenodd;fill:#482D1D;" d="M125.15,15.55c-0.5,0.4-0.983,0.85-1.45,1.35
		c-0.867,1.034-1.117,1.817-0.75,2.35l1.899,2.6c0.667,0.9,0.667,1.566,0,2c-0.333,0.233-0.783,0.4-1.35,0.5
		c-0.566,0.133-1.017,0.3-1.35,0.5c-0.4,0.3-0.717,0.883-0.95,1.75l-0.2,1.25c-0.566,0.233-0.95,0.683-1.15,1.35
		c-0.467,1.333-1.033,2.333-1.699,3c-0.434,0.466-0.717,0.983-0.851,1.55c-0.1,0.367-0.149,0.967-0.149,1.8v5l-1.25-4.1
		c-0.768-3-1.018-5.2-0.75-6.6c0.267-1.3,0.166-2.733-0.301-4.3L115,23.6c0-1.333-0.283-2.133-0.85-2.4
		c-0.334-0.167-0.768-0.483-1.301-0.95c-0.399-0.367-0.85-0.6-1.35-0.7l-1.35-0.35c-0.067-0.067-0.184-0.25-0.351-0.55
		c-0.3-0.566-0.649-1.4-1.05-2.5c-0.467-1.3-1.117-2.55-1.95-3.75c-0.866-1.167-1.533-1.716-2-1.65c-0.399,0.033-1.399-0.267-3-0.9
		l-2.3-1l12-1.3c1.767-0.233,6.55-0.233,14.35,0l10.65,3c-2,0.434-3.833,1.034-5.5,1.8c-1.033,0.5-2.316,1.183-3.85,2.05
		L125.15,15.55z"/>
	<path style="fill-rule:evenodd;clip-rule:evenodd;fill:#482D1D;" d="M141.5,9.2h12.35c2,0,10.768,0.55,26.301,1.65
		c0.899,0,1.85,0.167,2.85,0.5c-1.9,3-3.3,4.783-4.2,5.35c-0.566,0.333-1.017,0.75-1.35,1.25l-0.3,0.6
		c0.232,1.333,0.35,2.884,0.35,4.65c0,1.1-0.267,3.316-0.8,6.65l-0.851,4.7l-0.35-7.7c0-1.533-0.55-3.583-1.65-6.15
		c-0.666-1.467-1.35-2.2-2.05-2.2c-0.633,0-1-0.167-1.1-0.5c-0.2-0.6-0.8-0.816-1.8-0.65c-1.268,0.333-2.184,0.5-2.75,0.5
		c-0.533,0-0.801,0.033-0.801,0.1c0.101,0.167-0.066,0.367-0.5,0.6c-0.566,0.267-1.066,0.617-1.5,1.05l-0.5,0.6h-1l-4.699-0.65
		l-6,0.65c-2.2,0-3.634-0.217-4.301-0.65h-6l4-3.35l-4.899-3.85L141.5,9.2z"/>
	<path style="fill-rule:evenodd;clip-rule:evenodd;fill:#482D1D;" d="M174.15,44.2l4,1.65l-4.65,2.35c-1,0.5-1.95,1.2-2.85,2.1
		c-0.867,0.867-1.467,1.717-1.801,2.55c-0.3,0.7-0.949,1.7-1.949,3l-1.4,1.7l-0.35-5c0-0.9,0.116-2.133,0.35-3.7l0.85-0.9
		c0.667-0.667,1.268-1.133,1.801-1.4c0.267-0.133,1.183-0.45,2.75-0.95C172.3,45.2,173.383,44.733,174.15,44.2z"/>
	<path style="fill-rule:evenodd;clip-rule:evenodd;fill:#482D1D;" d="M156.35,82.7c-1.033,0.066-2.433-0.267-4.199-1l-2.301-1.15
		l2.301-0.05c1.699-0.066,3.033-0.167,4-0.3c0.666-0.101,2.566-0.267,5.699-0.5c0.097-0.009,0.188-0.025,0.275-0.05
		c-0.027,0.018-0.052,0.034-0.075,0.05C159.05,81.667,157.15,82.667,156.35,82.7z M170.15,64.55l-0.301-7.85
		c1.533,3.899,2.75,7.066,3.65,9.5c0.566,1.533,0.717,3.233,0.45,5.1l-0.601,2.4c-0.467,0.467-1.05,0.95-1.75,1.45
		c-1.399,0.966-2.649,1.483-3.75,1.55c-0.864,0.062-2.59,0.928-5.175,2.6c0.166-0.23,0.241-0.548,0.226-0.95
		c0-1.166,0.199-2,0.6-2.5c0.566-0.666,1.1-1.416,1.6-2.25c0.268-0.433,0.617-1.017,1.051-1.75c0.199-0.3,0.75-0.666,1.649-1.1
		c1-0.467,1.783-0.983,2.351-1.55c0.666-0.634,0.883-1.367,0.649-2.2C170.367,65.6,170.15,64.783,170.15,64.55z"/>
	<path style="fill-rule:evenodd;clip-rule:evenodd;fill:#482D1D;" d="M103.85,86.2c-0.166,0.399-0.316,0.833-0.449,1.3
		c-0.301,0.967-0.384,1.65-0.25,2.05c0.232,0.667-0.65,1.434-2.65,2.3c-0.434,1.334-0.983,2.334-1.65,3
		c-0.399,0.434-1.083,0.284-2.05-0.449l-1.3-1.2l-1.35,1.649l-4-0.3c-0.2,0.4-0.6,0.816-1.2,1.25c-1.167,0.867-2.65,1.45-4.45,1.75
		c-1.8,0.267-3.35-0.1-4.65-1.1L78.5,94.85l5.35,1l4-3.649l1.3-1.65l0.35-2l3-0.35h6.65C100.283,88.2,101.85,87.533,103.85,86.2z"/>
	<path style="fill-rule:evenodd;clip-rule:evenodd;fill:#482D1D;" d="M102.15,84.55l-3.65-4c0-0.899,0.217-1.8,0.65-2.7l3-3.3
		c-0.867,3.101-1.301,5.101-1.301,6c0,0.533,0.217,1.367,0.65,2.5L102.15,84.55z"/>
	<path style="fill-rule:evenodd;clip-rule:evenodd;fill:#482D1D;" d="M181.75,88.6c0.9-0.933,1.6-1.85,2.1-2.75
		c-0.899,4-1.683,6.334-2.35,7c-0.833,0.9-1.533,1.617-2.1,2.15c-1.101,0.967-2.067,1.583-2.9,1.85
		c-0.667,0.233-0.95,0.317-0.85,0.25c0.232-0.267,0.183-0.449-0.15-0.55c-0.4-0.133-1.133-0.233-2.2-0.3l-1.45-0.05l-0.35-2.65
		l1.15-0.7c1-0.5,2.066-0.833,3.199-1C177.95,91.583,179.917,90.5,181.75,88.6z"/>
	<path style="fill-rule:evenodd;clip-rule:evenodd;fill:#482D1D;" d="M155.85,87.85c0.667,2,0.667,3.667,0,5
		c-0.399,0.834-1.083,1.867-2.05,3.101l-1.3,1.6l-2.65,2.3c-2.467,1.134-4.25,1.467-5.35,1c-0.7-0.267-1.9-0.449-3.6-0.55l-2.4-0.1
		c1.566-1.767,2.45-2.65,2.65-2.65c0.232,0,0.017-1-0.65-3l1.2,0.95c0.933,0.6,1.75,0.833,2.45,0.7l4,0.35l2.699-1
		c1.867-0.8,2.867-1.467,3-2c0.2-0.899,0.417-2.233,0.65-4L155.85,87.85z"/>
	<path style="fill-rule:evenodd;clip-rule:evenodd;fill:#55351E;" d="M24.15,38.2c1.3-0.167,2.133,0.35,2.5,1.55
		c0.367,1.133,0.2,2.4-0.5,3.8c-0.633,1.3-1.567,1.684-2.8,1.15c-1.233-0.5-1.85-1.45-1.85-2.85c0-1.367,0.15-2.267,0.45-2.7
		C22.283,38.65,23.017,38.333,24.15,38.2z"/>
	<path style="fill-rule:evenodd;clip-rule:evenodd;fill:#55351E;" d="M48.5,41.2c0.967,0.3,1.2,1.167,0.7,2.6
		c-0.467,1.4-1.15,2.2-2.05,2.4c-0.833,0.167-1.583-0.1-2.25-0.8c-0.633-0.7-0.883-1.55-0.75-2.55c0.2-1.1,0.534-1.767,1-2
		C45.75,40.55,46.867,40.667,48.5,41.2z"/>
	<path style="fill-rule:evenodd;clip-rule:evenodd;fill:#55351E;" d="M74.85,54.55c1.2-0.167,2.117,0.467,2.75,1.9
		c0.566,1.3,0.65,2.434,0.25,3.399c-0.534,1.267-2.434,0.934-5.7-1c-0.8-0.466-0.8-1.283,0-2.449
		C72.917,55.3,73.816,54.684,74.85,54.55z"/>
	<path style="fill-rule:evenodd;clip-rule:evenodd;fill:#55351E;" d="M96.5,31.55c0.967,0,1.533,0.934,1.7,2.8
		c0.167,1.833-0.184,3-1.05,3.5c-0.768,0.467-1.5,0.483-2.2,0.05c-0.6-0.333-1.083-0.9-1.45-1.7c-0.434-0.9-0.45-1.85-0.05-2.85
		C93.917,32.15,94.934,31.55,96.5,31.55z"/>
	<path style="fill-rule:evenodd;clip-rule:evenodd;fill:#55351E;" d="M100.5,44.55c-0.6,0.434-1.167,0.5-1.7,0.2
		c-0.066-0.033-0.717-0.55-1.95-1.55c-0.8-0.633-0.816-1.284-0.05-1.95s1.55-0.8,2.351-0.4c0.767,0.4,1.333,0.983,1.699,1.75
		C101.25,43.434,101.133,44.083,100.5,44.55z"/>
	<path style="fill-rule:evenodd;clip-rule:evenodd;fill:#55351E;" d="M143,27.65c0.1,0.4-0.217,1.15-0.95,2.25
		c-0.467,0.733-1.2,1.034-2.2,0.9c-1.1-0.267-1.883-0.466-2.35-0.6c-0.7-0.2-0.717-0.784-0.05-1.75c0.7-0.967,1.6-1.5,2.7-1.6
		C141.95,26.717,142.9,26.983,143,27.65z"/>
	<path style="fill-rule:evenodd;clip-rule:evenodd;fill:#55351E;" d="M178.65,61.55c-1.233-0.5-2.4-1.283-3.5-2.35
		c-0.867-0.867-0.917-1.851-0.15-2.95c0.8-1.134,2.083-1.7,3.85-1.7c1.2,0,2.25,0.867,3.15,2.601c0.934,1.733,0.983,3.083,0.15,4.05
		C181.417,62.1,180.25,62.217,178.65,61.55z"/>
	<path style="fill-rule:evenodd;clip-rule:evenodd;fill:#55351E;" d="M105.15,61.85c0.967,0.334,1.366,1.4,1.199,3.2
		c-0.133,1.767-0.633,2.816-1.5,3.15c-0.866,0.333-1.967,0.184-3.3-0.45c-1.366-0.667-2.05-1.4-2.05-2.2c0-0.866,0.7-1.767,2.1-2.7
		C103.033,61.884,104.217,61.55,105.15,61.85z"/>
	<path style="fill-rule:evenodd;clip-rule:evenodd;fill:#5B554D;" d="M23.15,36.2c1.3-0.167,2.133,0.35,2.5,1.55
		c0.367,1.133,0.2,2.4-0.5,3.8c-0.633,1.3-1.567,1.684-2.8,1.15c-1.233-0.5-1.85-1.45-1.85-2.85c0-1.367,0.15-2.267,0.45-2.7
		C21.283,36.65,22.017,36.333,23.15,36.2z"/>
	<path style="fill-rule:evenodd;clip-rule:evenodd;fill:#5B554D;" d="M44.15,38.85c0.6-0.3,1.717-0.184,3.35,0.35
		c0.967,0.3,1.2,1.167,0.7,2.6c-0.467,1.4-1.15,2.2-2.05,2.4c-0.833,0.167-1.583-0.1-2.25-0.8c-0.633-0.7-0.883-1.55-0.75-2.55
		C43.35,39.75,43.684,39.083,44.15,38.85z"/>
	<path style="fill-rule:evenodd;clip-rule:evenodd;fill:#5B554D;" d="M73.85,52.55c1.2-0.167,2.117,0.467,2.75,1.9
		c0.566,1.3,0.65,2.434,0.25,3.399c-0.534,1.267-2.434,0.934-5.7-1c-0.8-0.466-0.8-1.283,0-2.45
		C71.917,53.3,72.816,52.684,73.85,52.55z"/>
	<path style="fill-rule:evenodd;clip-rule:evenodd;fill:#5B554D;" d="M95.5,29.55c0.967,0,1.533,0.934,1.7,2.8
		c0.167,1.833-0.184,3-1.05,3.5c-0.767,0.467-1.5,0.483-2.2,0.05c-0.6-0.333-1.083-0.9-1.45-1.7c-0.434-0.9-0.45-1.85-0.05-2.85
		C92.917,30.15,93.934,29.55,95.5,29.55z"/>
	<path style="fill-rule:evenodd;clip-rule:evenodd;fill:#5B554D;" d="M98.15,38.85c0.767,0.4,1.333,0.983,1.699,1.75
		c0.4,0.833,0.283,1.483-0.35,1.95c-0.6,0.434-1.167,0.5-1.7,0.2c-0.066-0.033-0.717-0.55-1.95-1.55
		c-0.8-0.633-0.817-1.284-0.05-1.95S97.35,38.45,98.15,38.85z"/>
	<path style="fill-rule:evenodd;clip-rule:evenodd;fill:#5B554D;" d="M141.05,27.9c-0.467,0.733-1.2,1.034-2.2,0.9
		c-1.1-0.267-1.883-0.466-2.35-0.6c-0.7-0.2-0.717-0.784-0.05-1.75c0.7-0.967,1.6-1.5,2.7-1.6c1.8-0.133,2.75,0.133,2.85,0.8
		C142.1,26.05,141.783,26.8,141.05,27.9z"/>
	<path style="fill-rule:evenodd;clip-rule:evenodd;fill:#5B554D;" d="M177.85,52.55c1.2,0,2.25,0.867,3.15,2.601
		c0.934,1.733,0.983,3.083,0.15,4.05c-0.733,0.899-1.9,1.017-3.5,0.35c-1.233-0.5-2.4-1.283-3.5-2.35
		c-0.867-0.867-0.917-1.851-0.15-2.95C174.8,53.117,176.083,52.55,177.85,52.55z"/>
	<path style="fill-rule:evenodd;clip-rule:evenodd;fill:#5B554D;" d="M104.15,59.85c0.967,0.334,1.366,1.4,1.199,3.2
		c-0.133,1.767-0.633,2.816-1.5,3.15c-0.866,0.333-1.967,0.184-3.3-0.45c-1.366-0.667-2.05-1.4-2.05-2.2c0-0.866,0.7-1.767,2.1-2.7
		C102.033,59.884,103.217,59.55,104.15,59.85z"/>
	<path style="fill-rule:evenodd;clip-rule:evenodd;fill:#514C45;" d="M23.15,36.85c1.3-0.133,2.133,0.333,2.5,1.4
		c0.367,1,0.2,2.133-0.5,3.4c-0.633,1.167-1.567,1.517-2.8,1.05c-1.233-0.467-1.85-1.317-1.85-2.55s0.15-2.05,0.45-2.45
		C21.283,37.267,22.017,36.983,23.15,36.85z"/>
	<path style="fill-rule:evenodd;clip-rule:evenodd;fill:#514C45;" d="M44.15,39.8c0.6-0.233,1.717-0.133,3.35,0.3
		c0.967,0.267,1.2,0.983,0.7,2.15c-0.467,1.167-1.15,1.817-2.05,1.95c-0.833,0.167-1.583-0.05-2.25-0.65
		c-0.633-0.6-0.883-1.3-0.75-2.1C43.35,40.55,43.684,40,44.15,39.8z"/>
	<path style="fill-rule:evenodd;clip-rule:evenodd;fill:#514C45;" d="M74.35,54.55c1.033-0.1,1.8,0.317,2.3,1.25
		c0.5,0.9,0.567,1.667,0.2,2.3c-0.434,0.834-2.017,0.617-4.75-0.649c-0.7-0.334-0.717-0.884-0.05-1.65
		C72.684,55.033,73.45,54.617,74.35,54.55z"/>
	<path style="fill-rule:evenodd;clip-rule:evenodd;fill:#514C45;" d="M95.6,30.85c0.933,0,1.466,0.75,1.6,2.25
		c0.167,1.5-0.15,2.45-0.95,2.85c-1.333,0.667-2.483,0.216-3.45-1.35c-0.4-0.7-0.417-1.45-0.05-2.25
		C93.184,31.35,94.133,30.85,95.6,30.85z"/>
	<path style="fill-rule:evenodd;clip-rule:evenodd;fill:#514C45;" d="M96.4,40.3c0.666-0.5,1.35-0.6,2.05-0.3
		c0.633,0.267,1.116,0.7,1.45,1.3c0.333,0.634,0.232,1.117-0.301,1.45c-0.5,0.333-1,0.383-1.5,0.15
		c-0.066-0.033-0.633-0.417-1.699-1.15C95.7,41.283,95.7,40.8,96.4,40.3z"/>
	<path style="fill-rule:evenodd;clip-rule:evenodd;fill:#514C45;" d="M142.05,27.1c0.067,0.233-0.217,0.7-0.85,1.4
		c-0.367,0.434-0.967,0.617-1.8,0.55c-0.934-0.167-1.601-0.283-2-0.35c-0.601-0.1-0.601-0.467,0-1.1c0.566-0.633,1.316-0.967,2.25-1
		C141.15,26.5,141.95,26.667,142.05,27.1z"/>
	<path style="fill-rule:evenodd;clip-rule:evenodd;fill:#514C45;" d="M178.3,55.2c1.067,0,2,0.55,2.8,1.649
		c0.801,1.134,0.851,2.017,0.15,2.65c-0.667,0.566-1.7,0.634-3.1,0.2c-1.101-0.334-2.117-0.834-3.051-1.5
		c-0.8-0.566-0.866-1.2-0.199-1.9C175.6,55.566,176.733,55.2,178.3,55.2z"/>
	<path style="fill-rule:evenodd;clip-rule:evenodd;fill:#514C45;" d="M104.25,61.2c0.934,0.233,1.316,1.066,1.15,2.5
		c-0.167,1.399-0.667,2.25-1.5,2.55c-0.834,0.267-1.867,0.134-3.101-0.4c-1.3-0.5-1.95-1.083-1.95-1.75c0-0.699,0.667-1.416,2-2.149
		C102.217,61.217,103.35,60.967,104.25,61.2z"/>
</g>
<path style="fill-rule:evenodd;clip-rule:evenodd;fill:#482D1D;" d="M149,13.75c-8.233,0.434-13.85,0.633-16.85,0.6
	c-6.567,0-12.084-0.55-16.551-1.65c-5.076-0.035-12.643-0.218-22.7-0.55c-10.466-0.367-18.483-0.517-24.05-0.45
	c-3.8,0.066-11.034,0.267-21.7,0.6c-9.133,0.267-16.35,0.4-21.65,0.4c-6,0.066-11.633,0.4-16.9,1c-3.1,0.8-5.15,1.2-6.15,1.2
	c-1.6-0.033-2.384-1.433-2.35-4.2c0-2.934,1.033-4.684,3.1-5.25C3.533,5.35,6,5.267,10.6,5.2c2.267-0.034,5.417-0.333,9.45-0.9
	c4.4-0.633,7.567-1,9.5-1.1c11.367-0.5,28.8-0.017,52.3,1.45c22.867,1.434,40.3,1.8,52.3,1.1c4.133-0.233,10.232-0.417,18.3-0.55
	c8.233-0.133,14.283-0.3,18.149-0.5c7.667-0.367,12.483-0.434,14.45-0.2c6.634,0.767,8.8,3.333,6.5,7.7l-0.1,1.45
	c-4.867,0.333-11.934,0.383-21.2,0.15C160.583,13.5,153.5,13.483,149,13.75z"/>
<path style="fill-rule:evenodd;clip-rule:evenodd;fill:#5F4B23;" d="M149,10.75c-8.233,0.434-13.85,0.633-16.85,0.6
	c-6.567,0-12.084-0.55-16.551-1.65c-5.076-0.035-12.643-0.218-22.7-0.55C82.434,8.783,74.417,8.633,68.85,8.7
	c-3.8,0.066-11.034,0.267-21.7,0.6C38.017,9.567,30.8,9.7,25.5,9.7c-6,0.066-11.633,0.4-16.9,1c-3.1,0.8-5.15,1.2-6.15,1.2
	c-1.6-0.033-2.384-1.433-2.35-4.2c0-2.934,1.033-4.684,3.1-5.25C3.533,2.35,6,2.267,10.6,2.2c2.267-0.034,5.417-0.333,9.45-0.9
	c4.4-0.633,7.567-1,9.5-1.1c11.367-0.5,28.8-0.017,52.3,1.45c22.867,1.434,40.3,1.8,52.3,1.1c4.133-0.233,10.232-0.417,18.3-0.55
	c8.233-0.133,14.283-0.3,18.149-0.5c7.667-0.367,12.483-0.434,14.45-0.2c6.634,0.767,8.8,3.333,6.5,7.7l-0.1,1.45
	c-4.867,0.333-11.934,0.383-21.2,0.15C160.583,10.5,153.5,10.483,149,10.75z"/>
</svg>
