<?xml version="1.0" encoding="iso-8859-1"?>
<!-- Generator: Adobe Illustrator 15.1.0, SVG Export Plug-In . SVG Version: 6.00 Build 0)  -->
<!DOCTYPE svg PUBLIC "-//W3C//DTD SVG 1.1//EN" "http://www.w3.org/Graphics/SVG/1.1/DTD/svg11.dtd">
<svg version="1.1" id="FlashAICB" xmlns="http://www.w3.org/2000/svg" xmlns:xlink="http://www.w3.org/1999/xlink" x="0px" y="0px"
	 width="991.25px" height="249.05px" viewBox="0 0 991.25 249.05" style="enable-background:new 0 0 991.25 249.05;"
	 xml:space="preserve">
<path style="fill-rule:evenodd;clip-rule:evenodd;fill:#6E5E25;" d="M983.4,145.85c5.934,9.567,8.5,18.667,7.699,27.301
	c-0.933,10.066-6.449,18.949-16.55,26.649c-36.1,27.467-193.433,43.8-472,49c-81.1,1.5-172.433-4.35-274-17.55
	c-32.8-4.3-69.866-9.8-111.2-16.5c-53.233-8.634-80.167-13-80.8-13.1C24.45,199.85,15.267,196.033,9,190.2
	c-5.5-5.134-8.483-11.533-8.95-19.2c-0.433-6.866,1.134-14,4.7-21.4c3.333-7,7.817-13,13.45-18c10.667-9.466,23.1-18.917,37.3-28.35
	c17.567-11.733,32.267-19.434,44.1-23.1c19.533-6.1,41.05-11.65,64.55-16.65c23.733-5.067,38.184-8.4,43.35-10
	c4.233-1.3,19.867-5.717,46.9-13.25c22.9-6.367,39.7-11.417,50.4-15.15c20.9-7.3,50.233-13.483,88-18.55
	c39-5.267,72.784-7.367,101.351-6.3C516.05,1.05,537.566,2.967,558.7,6c17.566,2.533,32.017,5.35,43.35,8.45
	c2.333,0.633,29.167,5.883,80.5,15.75c46.767,8.966,75.367,15.55,85.8,19.75c8.867,3.566,37.484,13.333,85.851,29.3
	c48.366,16,76.967,25.767,85.8,29.3c7.2,2.9,14.75,7.6,22.65,14.1C971.45,129.917,978.367,137.65,983.4,145.85z"/>
<path style="fill-rule:evenodd;clip-rule:evenodd;fill:#645622;" d="M86.05,103.75c-0.066,0.467-0.8,1.117-2.2,1.95
	c-1.4,0.8-3.05,1.533-4.95,2.2c-1.867,0.7-3.45,1.133-4.75,1.3c-1.267,0.2-1.85,0.066-1.75-0.4c0.067-0.466,0.8-1.1,2.2-1.9
	c1.4-0.833,3.033-1.6,4.9-2.3c1.867-0.733,3.45-1.167,4.75-1.3C85.517,103.133,86.117,103.283,86.05,103.75z"/>
<path style="fill-rule:evenodd;clip-rule:evenodd;fill:#645622;" d="M410.7,14c-2.067,0.167-3.833,0.066-5.3-0.3
	c-1.467-0.367-2.2-0.917-2.2-1.65c0-0.7,0.733-1.367,2.2-2c1.466-0.667,3.233-1.083,5.3-1.25c2.066-0.167,3.833-0.05,5.3,0.35
	c1.467,0.367,2.2,0.917,2.2,1.65s-0.733,1.4-2.2,2C414.533,13.433,412.767,13.833,410.7,14z"/>
<path style="fill-rule:evenodd;clip-rule:evenodd;fill:#645622;" d="M85.1,90.55c1.867-0.833,3.45-1.35,4.75-1.55
	c1.3-0.167,1.95,0.017,1.95,0.55c0,0.534-0.65,1.284-1.95,2.25c-1.333,0.934-2.917,1.817-4.75,2.65c-1.8,0.833-3.35,1.35-4.65,1.55
	c-1.3,0.2-1.95,0.033-1.95-0.5s0.65-1.283,1.95-2.25C81.75,92.283,83.3,91.383,85.1,90.55z"/>
<path style="fill-rule:evenodd;clip-rule:evenodd;fill:#645622;" d="M207,57.75c0,0.633-0.7,1.383-2.1,2.25
	c-1.367,0.8-3.033,1.483-5,2.05c-1.966,0.567-3.65,0.833-5.05,0.8c-1.367-0.034-2.05-0.367-2.05-1s0.684-1.367,2.05-2.2
	c1.4-0.867,3.083-1.583,5.05-2.15c1.967-0.567,3.633-0.833,5-0.8C206.3,56.767,207,57.117,207,57.75z"/>
<path style="fill-rule:evenodd;clip-rule:evenodd;fill:#645622;" d="M116.25,91.5c-0.066,0.566-0.816,1.233-2.25,2
	c-1.433,0.733-3.133,1.333-5.1,1.8c-1.933,0.5-3.566,0.733-4.9,0.7c-1.3-0.033-1.933-0.333-1.9-0.9c0.067-0.567,0.817-1.233,2.25-2
	c1.433-0.733,3.133-1.35,5.1-1.85s3.6-0.733,4.9-0.7C115.684,90.617,116.317,90.933,116.25,91.5z"/>
<path style="fill-rule:evenodd;clip-rule:evenodd;fill:#645622;" d="M36.15,144.25c0,0.5-0.633,1.217-1.9,2.15
	c-1.233,0.899-2.733,1.767-4.5,2.6c-1.8,0.833-3.316,1.384-4.55,1.65c-1.233,0.233-1.85,0.116-1.85-0.351s0.617-1.184,1.85-2.149
	c1.3-0.967,2.816-1.851,4.55-2.65c1.733-0.833,3.233-1.384,4.5-1.65C35.517,143.616,36.15,143.75,36.15,144.25z"/>
<path style="fill-rule:evenodd;clip-rule:evenodd;fill:#645622;" d="M57.45,109.1c0.066,0.533-0.5,1.333-1.7,2.4
	c-1.2,1.066-2.667,2.1-4.4,3.1s-3.217,1.683-4.45,2.05c-1.2,0.367-1.833,0.3-1.9-0.2c-0.033-0.5,0.533-1.3,1.7-2.4
	c1.167-1.066,2.6-2.117,4.3-3.15c1.733-1.033,3.233-1.717,4.5-2.05C56.767,108.483,57.417,108.566,57.45,109.1z"/>
<path style="fill-rule:evenodd;clip-rule:evenodd;fill:#645622;" d="M106.85,120.75c0,0.566-0.667,1.3-2,2.2
	c-1.3,0.866-2.883,1.633-4.75,2.3c-1.833,0.667-3.417,1.05-4.75,1.15c-1.333,0.1-2-0.134-2-0.7s0.667-1.284,2-2.15
	c1.333-0.9,2.917-1.683,4.75-2.35c1.833-0.7,3.417-1.083,4.75-1.15C106.184,119.95,106.85,120.183,106.85,120.75z"/>
<path style="fill-rule:evenodd;clip-rule:evenodd;fill:#645622;" d="M177.7,65.65c-0.033,0.633-0.783,1.317-2.25,2.05
	c-1.434,0.733-3.15,1.316-5.15,1.75c-2,0.466-3.683,0.65-5.05,0.55c-1.333-0.1-1.983-0.45-1.95-1.05c0.067-0.6,0.833-1.284,2.3-2.05
	c1.433-0.767,3.15-1.383,5.15-1.85c1.967-0.433,3.633-0.6,5-0.5C177.117,64.683,177.767,65.05,177.7,65.65z"/>
<path style="fill-rule:evenodd;clip-rule:evenodd;fill:#645622;" d="M136.45,103.15c0,0.6-0.667,1.333-2,2.2
	c-1.333,0.833-2.95,1.583-4.85,2.25c-1.9,0.633-3.517,0.983-4.85,1.05c-1.333,0.033-2-0.233-2-0.8c0-0.567,0.667-1.284,2-2.15
	c1.333-0.9,2.95-1.667,4.85-2.3c1.867-0.667,3.483-1.017,4.85-1.05C135.783,102.316,136.45,102.583,136.45,103.15z"/>
<path style="fill-rule:evenodd;clip-rule:evenodd;fill:#645622;" d="M62.85,142.6c0,0.534-0.65,1.233-1.95,2.101
	c-1.267,0.866-2.816,1.684-4.65,2.45c-1.8,0.733-3.333,1.183-4.6,1.35c-1.267,0.167-1.9,0-1.9-0.5s0.633-1.2,1.9-2.1
	c1.3-0.934,2.833-1.767,4.6-2.5c1.833-0.733,3.383-1.184,4.65-1.351C62.2,141.884,62.85,142.066,62.85,142.6z"/>
<path style="fill-rule:evenodd;clip-rule:evenodd;fill:#645622;" d="M14.8,153c0,0.467-0.616,1.184-1.85,2.15
	c-1.233,0.966-2.717,1.883-4.45,2.75c-1.733,0.899-3.2,1.517-4.4,1.85c-1.2,0.3-1.8,0.233-1.8-0.2s0.6-1.133,1.8-2.1
	c1.2-0.967,2.667-1.917,4.4-2.851c1.733-0.899,3.217-1.5,4.45-1.8C14.184,152.467,14.8,152.533,14.8,153z"/>
<path style="fill-rule:evenodd;clip-rule:evenodd;fill:#645622;" d="M174.45,88c0,0.633-0.684,1.367-2.05,2.2
	c-1.333,0.833-2.983,1.533-4.95,2.1c-1.934,0.567-3.567,0.85-4.9,0.85c-1.366,0-2.05-0.3-2.05-0.9c0-0.633,0.684-1.367,2.05-2.2
	c1.333-0.867,2.967-1.6,4.9-2.2c1.967-0.567,3.617-0.833,4.95-0.8C173.767,87.05,174.45,87.367,174.45,88z"/>
<path style="fill-rule:evenodd;clip-rule:evenodd;fill:#645622;" d="M198.55,90.75c0,0.633-0.7,1.35-2.1,2.15
	c-1.367,0.8-3.033,1.467-5,2c-1.967,0.5-3.633,0.717-5,0.65c-1.367-0.066-2.05-0.417-2.05-1.05c0-0.6,0.684-1.317,2.05-2.15
	c1.4-0.8,3.066-1.467,5-2c1.967-0.534,3.633-0.767,5-0.7C197.85,89.75,198.55,90.117,198.55,90.75z"/>
<path style="fill-rule:evenodd;clip-rule:evenodd;fill:#645622;" d="M20.25,169.45c0,0.467-0.617,1.149-1.85,2.05
	c-1.267,0.9-2.767,1.733-4.5,2.5c-1.767,0.767-3.25,1.267-4.45,1.5c-1.233,0.233-1.85,0.134-1.85-0.3c0-0.467,0.617-1.15,1.85-2.05
	c1.233-0.9,2.717-1.75,4.45-2.551c1.733-0.8,3.233-1.316,4.5-1.55C19.633,168.85,20.25,168.983,20.25,169.45z"/>
<path style="fill-rule:evenodd;clip-rule:evenodd;fill:#645622;" d="M45.9,162.65c1.267-0.167,1.9,0,1.9,0.5
	c0,0.533-0.633,1.216-1.9,2.05c-1.267,0.866-2.8,1.649-4.6,2.35c-1.767,0.733-3.283,1.167-4.55,1.3c-1.267,0.167-1.9,0-1.9-0.5
	c0-0.466,0.633-1.133,1.9-2c1.267-0.866,2.783-1.666,4.55-2.399C43.1,163.217,44.633,162.783,45.9,162.65z"/>
<path style="fill-rule:evenodd;clip-rule:evenodd;fill:#645622;" d="M58.95,174.7c0,0.533-0.633,1.2-1.9,2
	c-1.3,0.8-2.85,1.517-4.65,2.149c-1.8,0.634-3.333,1-4.6,1.101c-1.267,0.1-1.9-0.101-1.9-0.601s0.633-1.166,1.9-2
	c1.267-0.833,2.8-1.566,4.6-2.199c1.8-0.634,3.35-1,4.65-1.101C58.317,173.95,58.95,174.167,58.95,174.7z"/>
<path style="fill-rule:evenodd;clip-rule:evenodd;fill:#645622;" d="M79.35,119.45c0,0.533-0.65,1.25-1.95,2.15
	c-1.267,0.933-2.816,1.783-4.65,2.55c-1.833,0.767-3.383,1.234-4.65,1.4c-1.3,0.167-1.95-0.017-1.95-0.55s0.65-1.25,1.95-2.15
	c1.267-0.934,2.817-1.8,4.65-2.6c1.833-0.767,3.383-1.233,4.65-1.4C78.7,118.717,79.35,118.917,79.35,119.45z"/>
<path style="fill-rule:evenodd;clip-rule:evenodd;fill:#645622;" d="M137.2,128.5c0,0.566-0.667,1.267-2,2.1
	c-1.367,0.834-3,1.534-4.9,2.101c-1.9,0.566-3.517,0.85-4.85,0.85c-1.333,0-2-0.283-2-0.85s0.667-1.267,2-2.101
	c1.333-0.833,2.95-1.55,4.85-2.149c1.9-0.566,3.534-0.851,4.9-0.851C136.533,127.6,137.2,127.9,137.2,128.5z"/>
<path style="fill-rule:evenodd;clip-rule:evenodd;fill:#645622;" d="M162.5,109.7c0,0.6-0.683,1.316-2.05,2.15
	c-1.367,0.833-3,1.517-4.9,2.05c-1.933,0.567-3.566,0.85-4.9,0.85c-1.367-0.033-2.05-0.35-2.05-0.95c0-0.6,0.683-1.316,2.05-2.15
	c1.333-0.833,2.967-1.533,4.9-2.1c1.9-0.566,3.534-0.833,4.9-0.8S162.5,109.1,162.5,109.7z"/>
<path style="fill-rule:evenodd;clip-rule:evenodd;fill:#645622;" d="M182.85,119.65c0,0.633-0.683,1.333-2.05,2.1
	c-1.4,0.8-3.066,1.433-5,1.9c-1.933,0.5-3.583,0.717-4.95,0.65c-1.367-0.1-2.05-0.45-2.05-1.05c0-0.633,0.684-1.333,2.05-2.1
	c1.367-0.8,3.017-1.45,4.95-1.95c1.967-0.5,3.634-0.7,5-0.6C182.167,118.667,182.85,119.017,182.85,119.65z"/>
<path style="fill-rule:evenodd;clip-rule:evenodd;fill:#645622;" d="M95.5,149.8c0,0.566-0.65,1.267-1.95,2.101
	c-1.3,0.8-2.883,1.517-4.75,2.149c-1.866,0.634-3.45,0.983-4.75,1.05c-1.3,0.034-1.95-0.216-1.95-0.75c0-0.533,0.65-1.216,1.95-2.05
	c1.3-0.833,2.884-1.566,4.75-2.2c1.833-0.633,3.417-0.983,4.75-1.05C94.85,148.983,95.5,149.233,95.5,149.8z"/>
<path style="fill-rule:evenodd;clip-rule:evenodd;fill:#645622;" d="M142.8,151.45c0,0.6-0.667,1.283-2,2.05
	c-1.366,0.767-3,1.4-4.9,1.9s-3.517,0.733-4.85,0.699c-1.333-0.066-2-0.383-2-0.949c0-0.601,0.667-1.284,2-2.051
	c1.333-0.8,2.95-1.449,4.85-1.949c1.9-0.534,3.534-0.767,4.9-0.7C142.133,150.517,142.8,150.85,142.8,151.45z"/>
<path style="fill-rule:evenodd;clip-rule:evenodd;fill:#645622;" d="M28.85,187.2c0,0.467-0.617,1.116-1.85,1.95
	c-1.2,0.833-2.683,1.633-4.45,2.399c-1.767,0.733-3.25,1.2-4.45,1.4c-1.233,0.2-1.85,0.083-1.85-0.351
	c0-0.466,0.617-1.116,1.85-1.949c1.233-0.9,2.717-1.717,4.45-2.45c1.7-0.767,3.184-1.25,4.45-1.45
	C28.233,186.583,28.85,186.733,28.85,187.2z"/>
<path style="fill-rule:evenodd;clip-rule:evenodd;fill:#645622;" d="M122.8,147.85c0,0.567-0.667,1.25-2,2.051
	c-1.333,0.8-2.95,1.466-4.85,2c-1.867,0.566-3.467,0.85-4.8,0.85c-1.3,0-1.95-0.283-1.95-0.85c0-0.567,0.65-1.25,1.95-2.051
	c1.367-0.833,2.967-1.517,4.8-2.05c1.9-0.566,3.517-0.85,4.85-0.85C122.133,146.983,122.8,147.283,122.8,147.85z"/>
<path style="fill-rule:evenodd;clip-rule:evenodd;fill:#645622;" d="M166.7,135.3c1.367,0.066,2.05,0.417,2.05,1.05
	c0,0.634-0.683,1.334-2.05,2.101c-1.333,0.767-2.983,1.383-4.95,1.85c-1.933,0.467-3.566,0.667-4.9,0.601
	c-1.367-0.067-2.05-0.4-2.05-1c0-0.601,0.684-1.284,2.05-2.051c1.333-0.8,2.967-1.449,4.9-1.949
	C163.717,135.4,165.367,135.2,166.7,135.3z"/>
<path style="fill-rule:evenodd;clip-rule:evenodd;fill:#645622;" d="M32,128.4c0.067,0.466-0.45,1.283-1.55,2.449
	c-1.1,1.134-2.467,2.267-4.1,3.4c-1.667,1.134-3.067,1.95-4.2,2.45c-1.2,0.467-1.833,0.467-1.9,0
	c-0.033-0.467,0.483-1.283,1.55-2.45c1.1-1.167,2.45-2.316,4.05-3.45c1.633-1.133,3.05-1.934,4.25-2.399
	C31.3,127.934,31.934,127.934,32,128.4z"/>
<path style="fill-rule:evenodd;clip-rule:evenodd;fill:#645622;" d="M71.25,193.15c0,0.533-0.65,1.166-1.95,1.899
	c-1.267,0.733-2.816,1.384-4.65,1.95c-1.833,0.533-3.383,0.8-4.65,0.8c-1.3,0.033-1.95-0.2-1.95-0.7c0-0.533,0.65-1.183,1.95-1.949
	c1.267-0.733,2.817-1.384,4.65-1.95c1.8-0.566,3.35-0.851,4.65-0.851C70.6,192.35,71.25,192.616,71.25,193.15z"/>
<path style="fill-rule:evenodd;clip-rule:evenodd;fill:#645622;" d="M110.15,207.75c0,0.566-0.667,1.2-2,1.9
	c-1.3,0.666-2.9,1.216-4.8,1.649c-1.867,0.4-3.45,0.55-4.75,0.45c-1.333-0.1-2-0.417-2-0.95c0-0.566,0.667-1.2,2-1.899
	c1.333-0.7,2.917-1.267,4.75-1.7c1.867-0.434,3.467-0.584,4.8-0.45C109.483,206.85,110.15,207.184,110.15,207.75z"/>
<path style="fill-rule:evenodd;clip-rule:evenodd;fill:#645622;" d="M83.85,206.55c-1.833,0.467-3.383,0.684-4.65,0.65
	c-1.3-0.033-1.95-0.316-1.95-0.851c0-0.533,0.65-1.149,1.95-1.85c1.267-0.733,2.816-1.333,4.65-1.8c1.833-0.5,3.4-0.733,4.7-0.7
	c1.3,0.033,1.95,0.333,1.95,0.9c0,0.533-0.65,1.166-1.95,1.899C87.25,205.5,85.684,206.083,83.85,206.55z"/>
<path style="fill-rule:evenodd;clip-rule:evenodd;fill:#645622;" d="M144.35,198.75c0,0.6-0.667,1.233-2,1.9
	c-1.367,0.699-3,1.233-4.9,1.6c-1.9,0.366-3.517,0.483-4.85,0.35c-1.333-0.133-2-0.483-2-1.05c0-0.6,0.667-1.25,2-1.95
	c1.333-0.699,2.95-1.233,4.85-1.6c1.9-0.4,3.533-0.517,4.9-0.35C143.684,197.783,144.35,198.15,144.35,198.75z"/>
<path style="fill-rule:evenodd;clip-rule:evenodd;fill:#645622;" d="M97.1,171.2c0,0.566-0.667,1.233-2,2
	c-1.3,0.767-2.883,1.416-4.75,1.95c-1.833,0.533-3.4,0.8-4.7,0.8c-1.3,0-1.95-0.267-1.95-0.8c0-0.534,0.65-1.2,1.95-2
	c1.333-0.767,2.917-1.434,4.75-2c1.833-0.534,3.417-0.801,4.75-0.801C96.45,170.35,97.1,170.634,97.1,171.2z"/>
<path style="fill-rule:evenodd;clip-rule:evenodd;fill:#645622;" d="M170.35,192.05c1.933-0.333,3.583-0.416,4.95-0.25
	c1.367,0.2,2.05,0.617,2.05,1.25c0,0.601-0.683,1.233-2.05,1.9c-1.366,0.7-3.017,1.217-4.95,1.55s-3.583,0.417-4.95,0.25
	c-1.367-0.2-2.05-0.6-2.05-1.2c0-0.6,0.683-1.25,2.05-1.95C166.767,192.9,168.417,192.384,170.35,192.05z"/>
<path style="fill-rule:evenodd;clip-rule:evenodd;fill:#645622;" d="M154.55,175.3c0,0.634-0.683,1.3-2.05,2
	c-1.333,0.7-2.967,1.267-4.9,1.7c-1.9,0.434-3.517,0.583-4.85,0.45c-1.367-0.101-2.05-0.45-2.05-1.05c0-0.601,0.683-1.267,2.05-2
	c1.333-0.7,2.95-1.267,4.85-1.7s3.533-0.601,4.9-0.5C153.867,174.333,154.55,174.7,154.55,175.3z"/>
<path style="fill-rule:evenodd;clip-rule:evenodd;fill:#645622;" d="M125.25,175.4c0,0.566-0.667,1.233-2,2
	c-1.333,0.733-2.95,1.333-4.85,1.8c-1.867,0.467-3.466,0.666-4.8,0.6s-2-0.383-2-0.95c0-0.566,0.667-1.216,2-1.949
	c1.333-0.767,2.933-1.384,4.8-1.851c1.9-0.5,3.517-0.717,4.85-0.649C124.583,174.467,125.25,174.8,125.25,175.4z"/>
<path style="fill-rule:evenodd;clip-rule:evenodd;fill:#645622;" d="M196.05,170.85c0,0.667-0.683,1.351-2.05,2.051
	c-1.367,0.699-3.033,1.216-5,1.55c-1.967,0.366-3.65,0.45-5.05,0.25c-1.367-0.167-2.05-0.55-2.05-1.15c0-0.633,0.684-1.3,2.05-2
	c1.4-0.733,3.083-1.283,5.05-1.649c1.934-0.367,3.6-0.45,5-0.25C195.367,169.816,196.05,170.217,196.05,170.85z"/>
<path style="fill-rule:evenodd;clip-rule:evenodd;fill:#645622;" d="M176.2,156.15c0,0.633-0.684,1.316-2.05,2.05
	c-1.367,0.7-3.033,1.267-5,1.7c-1.933,0.433-3.566,0.583-4.9,0.449c-1.367-0.1-2.05-0.466-2.05-1.1c0-0.6,0.683-1.267,2.05-2
	c1.333-0.733,2.967-1.333,4.9-1.8c1.967-0.434,3.633-0.584,5-0.45S176.2,155.517,176.2,156.15z"/>
<path style="fill-rule:evenodd;clip-rule:evenodd;fill:#645622;" d="M309.1,28.9c0.067,0.633-0.6,1.333-2,2.1s-3.1,1.383-5.1,1.85
	c-2,0.466-3.717,0.667-5.15,0.6c-1.433-0.1-2.183-0.467-2.25-1.1c-0.034-0.633,0.65-1.333,2.05-2.1c1.366-0.8,3.05-1.434,5.05-1.9
	c2-0.467,3.733-0.65,5.2-0.55C308.333,27.9,309.066,28.267,309.1,28.9z"/>
<path style="fill-rule:evenodd;clip-rule:evenodd;fill:#645622;" d="M387.1,13.7c0,0.733-0.733,1.433-2.2,2.1
	c-1.434,0.633-3.184,1.067-5.25,1.3c-2.067,0.233-3.834,0.183-5.3-0.15c-1.467-0.333-2.2-0.85-2.2-1.55c0-0.7,0.733-1.383,2.2-2.05
	c1.466-0.667,3.233-1.133,5.3-1.4c2.033-0.233,3.783-0.167,5.25,0.2C386.367,12.483,387.1,13,387.1,13.7z"/>
<path style="fill-rule:evenodd;clip-rule:evenodd;fill:#645622;" d="M344.45,21.05c0,0.7-0.717,1.417-2.15,2.15
	c-1.466,0.7-3.216,1.2-5.25,1.5c-2.033,0.333-3.783,0.366-5.25,0.1c-1.433-0.267-2.149-0.75-2.149-1.45
	c0-0.7,0.716-1.417,2.149-2.15c1.467-0.7,3.217-1.217,5.25-1.55c2.034-0.333,3.784-0.35,5.25-0.05
	C343.733,19.867,344.45,20.35,344.45,21.05z"/>
<path style="fill-rule:evenodd;clip-rule:evenodd;fill:#645622;" d="M327.25,42.7c1.434,0.267,2.15,0.75,2.15,1.45
	c0,0.7-0.717,1.4-2.15,2.1s-3.184,1.217-5.25,1.55c-2.033,0.333-3.767,0.367-5.2,0.1c-1.433-0.267-2.149-0.733-2.149-1.4
	c0-0.7,0.716-1.417,2.149-2.15c1.434-0.7,3.167-1.217,5.2-1.55C324.066,42.467,325.816,42.433,327.25,42.7z"/>
<path style="fill-rule:evenodd;clip-rule:evenodd;fill:#645622;" d="M244.85,68.75c1.4-0.767,3.1-1.367,5.1-1.8
	c2-0.434,3.717-0.567,5.15-0.4c1.4,0.167,2.1,0.583,2.1,1.25c0,0.633-0.7,1.35-2.1,2.15c-1.433,0.733-3.15,1.333-5.15,1.8
	c-2,0.433-3.7,0.566-5.1,0.4c-1.433-0.133-2.15-0.533-2.15-1.2C242.7,70.283,243.417,69.55,244.85,68.75z"/>
<path style="fill-rule:evenodd;clip-rule:evenodd;fill:#645622;" d="M274,43.1c0,0.667-0.7,1.383-2.1,2.15
	c-1.433,0.767-3.15,1.367-5.15,1.8c-2.033,0.434-3.75,0.567-5.15,0.4c-1.433-0.134-2.15-0.534-2.15-1.2s0.717-1.4,2.15-2.2
	c1.4-0.767,3.117-1.383,5.15-1.85c2-0.434,3.717-0.55,5.15-0.35C273.3,42.017,274,42.433,274,43.1z"/>
<path style="fill-rule:evenodd;clip-rule:evenodd;fill:#645622;" d="M286.65,59.25c2.033-0.367,3.767-0.45,5.2-0.25
	c1.433,0.233,2.15,0.7,2.15,1.4c0,0.667-0.717,1.367-2.15,2.1c-1.433,0.767-3.167,1.316-5.2,1.65c-2,0.367-3.717,0.45-5.15,0.25
	c-1.434-0.2-2.15-0.65-2.15-1.35c0-0.667,0.716-1.367,2.15-2.1C282.934,60.183,284.65,59.617,286.65,59.25z"/>
<path style="fill-rule:evenodd;clip-rule:evenodd;fill:#645622;" d="M328.95,67.4c1.433,0.3,2.15,0.783,2.15,1.45
	c0,0.7-0.717,1.4-2.15,2.1c-1.467,0.7-3.217,1.183-5.25,1.45c-2.033,0.3-3.767,0.317-5.2,0.05c-1.434-0.3-2.15-0.784-2.15-1.45
	c0-0.7,0.716-1.4,2.15-2.1c1.434-0.7,3.167-1.2,5.2-1.5C325.733,67.1,327.483,67.1,328.95,67.4z"/>
<path style="fill-rule:evenodd;clip-rule:evenodd;fill:#645622;" d="M367.85,48.15c0,0.7-0.717,1.383-2.15,2.05
	c-1.467,0.667-3.233,1.116-5.3,1.35c-2.034,0.267-3.784,0.233-5.25-0.1c-1.434-0.333-2.15-0.85-2.15-1.55
	c0-0.7,0.717-1.383,2.15-2.05c1.466-0.667,3.216-1.133,5.25-1.4c2.066-0.233,3.833-0.184,5.3,0.15
	C367.133,46.933,367.85,47.45,367.85,48.15z"/>
<path style="fill-rule:evenodd;clip-rule:evenodd;fill:#645622;" d="M289.15,79.5c0,0.667-0.717,1.367-2.15,2.1
	s-3.167,1.267-5.2,1.6c-2,0.366-3.716,0.433-5.149,0.2c-1.434-0.233-2.15-0.683-2.15-1.35c0-0.667,0.717-1.367,2.15-2.1
	c1.433-0.733,3.149-1.284,5.149-1.65c2.034-0.367,3.767-0.433,5.2-0.2S289.15,78.8,289.15,79.5z"/>
<path style="fill-rule:evenodd;clip-rule:evenodd;fill:#645622;" d="M228.35,68.55c0,0.667-0.7,1.4-2.1,2.2s-3.083,1.45-5.05,1.95
	c-2,0.466-3.684,0.65-5.05,0.55c-1.4-0.1-2.1-0.467-2.1-1.1s0.7-1.35,2.1-2.15c1.4-0.833,3.083-1.5,5.05-2s3.65-0.7,5.05-0.6
	C227.65,67.533,228.35,67.917,228.35,68.55z"/>
<path style="fill-rule:evenodd;clip-rule:evenodd;fill:#645622;" d="M410.75,38.45c1.467-0.6,3.233-0.983,5.3-1.15
	c2.067-0.133,3.851,0,5.351,0.4c1.466,0.4,2.183,0.966,2.149,1.7c0,0.733-0.733,1.4-2.2,2c-1.433,0.6-3.2,0.967-5.3,1.1
	c-2.066,0.167-3.833,0.05-5.3-0.35s-2.2-0.95-2.2-1.65C408.55,39.767,409.283,39.083,410.75,38.45z"/>
<path style="fill-rule:evenodd;clip-rule:evenodd;fill:#645622;" d="M248.35,96.5c0,0.667-0.7,1.383-2.1,2.15
	c-1.4,0.733-3.1,1.3-5.1,1.7s-3.7,0.517-5.1,0.35c-1.4-0.167-2.1-0.583-2.1-1.25c0-0.667,0.7-1.367,2.1-2.1
	c1.4-0.767,3.1-1.35,5.1-1.75c2-0.434,3.7-0.55,5.1-0.35C247.65,95.417,248.35,95.833,248.35,96.5z"/>
<path style="fill-rule:evenodd;clip-rule:evenodd;fill:#645622;" d="M269.25,107.9c0,0.667-0.717,1.367-2.15,2.1
	c-1.4,0.7-3.117,1.217-5.15,1.55c-2,0.367-3.7,0.434-5.1,0.2c-1.433-0.2-2.15-0.633-2.15-1.3c0-0.667,0.717-1.367,2.15-2.1
	c1.4-0.7,3.1-1.233,5.1-1.6s3.717-0.434,5.15-0.2S269.25,107.233,269.25,107.9z"/>
<path style="fill-rule:evenodd;clip-rule:evenodd;fill:#645622;" d="M293.05,121.35c0,0.667-0.716,1.35-2.149,2.05
	c-1.434,0.7-3.15,1.184-5.15,1.45c-2.033,0.3-3.75,0.317-5.15,0.05c-1.433-0.267-2.15-0.733-2.15-1.4s0.717-1.35,2.15-2.05
	c1.4-0.7,3.117-1.2,5.15-1.5c2.033-0.3,3.75-0.317,5.15-0.05C292.333,120.2,293.05,120.683,293.05,121.35z"/>
<path style="fill-rule:evenodd;clip-rule:evenodd;fill:#645622;" d="M368.65,78.75c0,0.733-0.733,1.417-2.2,2.05
	c-1.434,0.633-3.184,1.067-5.25,1.3c-2.067,0.2-3.817,0.133-5.25-0.2c-1.467-0.333-2.2-0.85-2.2-1.55c0-0.7,0.733-1.383,2.2-2.05
	c1.467-0.667,3.217-1.117,5.25-1.35c2.066-0.2,3.816-0.117,5.25,0.25C367.917,77.533,368.65,78.05,368.65,78.75z"/>
<path style="fill-rule:evenodd;clip-rule:evenodd;fill:#645622;" d="M208.55,137.25c0,0.634-0.7,1.316-2.1,2.05
	c-1.367,0.733-3.033,1.316-5,1.75c-1.967,0.4-3.65,0.517-5.05,0.351c-1.367-0.134-2.05-0.517-2.05-1.15s0.683-1.316,2.05-2.05
	c1.4-0.767,3.083-1.351,5.05-1.75c1.933-0.434,3.6-0.566,5-0.4C207.85,136.217,208.55,136.616,208.55,137.25z"/>
<path style="fill-rule:evenodd;clip-rule:evenodd;fill:#645622;" d="M395.95,62.75c0,0.733-0.733,1.417-2.2,2.05
	s-3.233,1.034-5.3,1.2c-2.067,0.167-3.817,0.066-5.25-0.3c-1.467-0.367-2.2-0.9-2.2-1.6c0-0.7,0.733-1.367,2.2-2
	c1.467-0.667,3.217-1.083,5.25-1.25c2.066-0.2,3.833-0.1,5.3,0.3C395.217,61.517,395.95,62.05,395.95,62.75z"/>
<path style="fill-rule:evenodd;clip-rule:evenodd;fill:#645622;" d="M313.8,95.35c0,0.667-0.716,1.35-2.149,2.05
	c-1.467,0.7-3.2,1.184-5.2,1.45c-2.033,0.3-3.767,0.316-5.2,0.05c-1.434-0.3-2.15-0.783-2.15-1.45c0-0.667,0.716-1.35,2.15-2.05
	c1.434-0.7,3.167-1.2,5.2-1.5c2.033-0.3,3.767-0.3,5.2,0C313.083,94.167,313.8,94.65,313.8,95.35z"/>
<path style="fill-rule:evenodd;clip-rule:evenodd;fill:#645622;" d="M374.75,107.6c0,0.7-0.733,1.367-2.2,2
	c-1.466,0.633-3.233,1.033-5.3,1.2c-2.066,0.167-3.816,0.083-5.25-0.25c-1.467-0.367-2.184-0.9-2.15-1.6
	c0-0.733,0.716-1.417,2.15-2.05c1.467-0.633,3.217-1.033,5.25-1.2c2.066-0.2,3.833-0.117,5.3,0.25
	C374.017,106.316,374.75,106.867,374.75,107.6z"/>
<path style="fill-rule:evenodd;clip-rule:evenodd;fill:#645622;" d="M233.85,113.3c0,0.667-0.7,1.367-2.1,2.1s-3.1,1.317-5.1,1.75
	c-1.966,0.4-3.65,0.517-5.05,0.35s-2.1-0.583-2.1-1.25c0-0.633,0.7-1.317,2.1-2.05c1.4-0.767,3.083-1.367,5.05-1.8
	c1.967-0.4,3.667-0.517,5.1-0.35C233.15,112.25,233.85,112.667,233.85,113.3z"/>
<path style="fill-rule:evenodd;clip-rule:evenodd;fill:#645622;" d="M355.15,95.95c0,0.7-0.717,1.366-2.15,2
	c-1.467,0.633-3.233,1.066-5.3,1.3c-2.067,0.233-3.817,0.183-5.25-0.15c-1.434-0.333-2.15-0.85-2.15-1.55
	c0-0.7,0.717-1.383,2.15-2.05c1.467-0.633,3.217-1.067,5.25-1.3c2.066-0.233,3.833-0.184,5.3,0.15
	C354.434,94.683,355.15,95.217,355.15,95.95z"/>
<path style="fill-rule:evenodd;clip-rule:evenodd;fill:#645622;" d="M216.55,101.7c0,0.633-0.7,1.333-2.1,2.1
	c-1.4,0.8-3.083,1.417-5.05,1.85c-1.966,0.467-3.633,0.633-5,0.5c-1.4-0.1-2.1-0.467-2.1-1.1s0.7-1.35,2.1-2.15
	c1.367-0.8,3.034-1.433,5-1.9c1.967-0.434,3.65-0.583,5.05-0.45C215.85,100.683,216.55,101.066,216.55,101.7z"/>
<path style="fill-rule:evenodd;clip-rule:evenodd;fill:#645622;" d="M402.65,95.4c0,0.733-0.733,1.4-2.2,2
	c-1.434,0.6-3.2,0.967-5.3,1.1c-2.101,0.167-3.867,0.05-5.3-0.35c-1.467-0.367-2.2-0.917-2.2-1.65c0-0.7,0.733-1.367,2.2-2
	c1.466-0.6,3.233-0.983,5.3-1.15c2.066-0.133,3.833-0.017,5.3,0.35C401.917,94.1,402.65,94.667,402.65,95.4z"/>
<path style="fill-rule:evenodd;clip-rule:evenodd;fill:#645622;" d="M149.05,77.55c-0.033,0.633-0.767,1.35-2.2,2.15
	c-1.4,0.767-3.083,1.433-5.05,2c-1.966,0.533-3.616,0.783-4.95,0.75c-1.333-0.034-1.983-0.333-1.95-0.9
	c0.034-0.6,0.75-1.316,2.15-2.15c1.434-0.8,3.117-1.483,5.05-2.05c1.933-0.534,3.583-0.784,4.95-0.75
	C148.417,76.633,149.083,76.95,149.05,77.55z"/>
<path style="fill-rule:evenodd;clip-rule:evenodd;fill:#645622;" d="M246.95,45.2c0,0.633-0.7,1.366-2.1,2.2
	c-1.4,0.8-3.1,1.45-5.1,1.95c-2,0.466-3.7,0.65-5.1,0.55c-1.4-0.133-2.1-0.517-2.1-1.15c0-0.667,0.7-1.4,2.1-2.2
	c1.4-0.833,3.1-1.5,5.1-2c1.967-0.5,3.667-0.683,5.1-0.55C246.25,44.133,246.95,44.533,246.95,45.2z"/>
<path style="fill-rule:evenodd;clip-rule:evenodd;fill:#645622;" d="M224,185.55c0,0.634-0.7,1.283-2.1,1.95
	c-1.367,0.667-3.05,1.15-5.05,1.45c-1.967,0.3-3.65,0.333-5.05,0.1c-1.4-0.267-2.1-0.717-2.1-1.35c0-0.634,0.7-1.283,2.1-1.95
	c1.4-0.667,3.083-1.15,5.05-1.45c1.967-0.333,3.65-0.366,5.05-0.1C223.3,184.434,224,184.884,224,185.55z"/>
<path style="fill-rule:evenodd;clip-rule:evenodd;fill:#645622;" d="M273.6,142.25c2-0.267,3.716-0.267,5.15,0
	c1.434,0.3,2.15,0.783,2.15,1.45c0,0.666-0.717,1.35-2.15,2.05c-1.434,0.667-3.15,1.134-5.15,1.4c-2.033,0.267-3.75,0.267-5.15,0
	c-1.434-0.267-2.15-0.733-2.15-1.4s0.717-1.35,2.15-2.05C269.85,143.033,271.567,142.55,273.6,142.25z"/>
<path style="fill-rule:evenodd;clip-rule:evenodd;fill:#645622;" d="M269.3,174.3c0,0.667-0.7,1.334-2.1,2
	c-1.434,0.667-3.15,1.117-5.15,1.351c-2,0.267-3.7,0.25-5.1-0.051c-1.434-0.3-2.15-0.783-2.15-1.449c0-0.667,0.717-1.317,2.15-1.95
	c1.433-0.7,3.133-1.167,5.1-1.4c2-0.267,3.717-0.25,5.15,0.05C268.6,173.15,269.3,173.634,269.3,174.3z"/>
<path style="fill-rule:evenodd;clip-rule:evenodd;fill:#645622;" d="M242.05,138c0,0.667-0.7,1.35-2.1,2.05
	c-1.4,0.7-3.1,1.217-5.1,1.55c-1.967,0.367-3.65,0.45-5.05,0.25c-1.4-0.233-2.116-0.666-2.15-1.3c0-0.633,0.7-1.316,2.1-2.05
	c1.434-0.7,3.133-1.233,5.1-1.6c1.967-0.367,3.667-0.434,5.1-0.2C241.35,136.9,242.05,137.333,242.05,138z"/>
<path style="fill-rule:evenodd;clip-rule:evenodd;fill:#645622;" d="M254.65,159.75c0,0.667-0.7,1.333-2.1,2
	c-1.433,0.667-3.15,1.15-5.15,1.45c-2,0.267-3.7,0.283-5.1,0.05c-1.4-0.267-2.1-0.717-2.1-1.35c0-0.667,0.7-1.334,2.1-2
	c1.4-0.7,3.1-1.2,5.1-1.5c2-0.301,3.717-0.317,5.15-0.051C253.95,158.616,254.65,159.083,254.65,159.75z"/>
<path style="fill-rule:evenodd;clip-rule:evenodd;fill:#645622;" d="M339.25,169.35c0,0.7-0.717,1.351-2.15,1.95
	c-1.433,0.634-3.183,1.033-5.25,1.2s-3.817,0.083-5.25-0.25c-1.433-0.366-2.15-0.9-2.15-1.6c0-0.7,0.717-1.367,2.15-2
	c1.466-0.634,3.216-1.034,5.25-1.2c2.067-0.167,3.817-0.066,5.25,0.3S339.25,168.65,339.25,169.35z"/>
<path style="fill-rule:evenodd;clip-rule:evenodd;fill:#645622;" d="M308,162.05c0,0.667-0.717,1.316-2.15,1.95
	s-3.167,1.066-5.2,1.3c-2.034,0.233-3.767,0.184-5.2-0.149c-1.434-0.334-2.15-0.834-2.15-1.5c0-0.667,0.717-1.334,2.15-2
	c1.433-0.634,3.167-1.067,5.2-1.301c2.033-0.233,3.767-0.183,5.2,0.15S308,161.35,308,162.05z"/>
<path style="fill-rule:evenodd;clip-rule:evenodd;fill:#645622;" d="M403.9,164c0,0.733-0.733,1.384-2.2,1.95
	c-1.434,0.566-3.2,0.916-5.3,1.05c-2.101,0.1-3.867-0.066-5.3-0.5c-1.467-0.4-2.2-0.967-2.2-1.7c0-0.7,0.733-1.35,2.2-1.95
	c1.466-0.566,3.233-0.916,5.3-1.05c2.1-0.1,3.866,0.066,5.3,0.5C403.167,162.7,403.9,163.267,403.9,164z"/>
<path style="fill-rule:evenodd;clip-rule:evenodd;fill:#645622;" d="M348,116.35c0,0.7-0.733,1.367-2.2,2
	c-1.433,0.6-3.183,1-5.25,1.2c-2.033,0.2-3.783,0.133-5.25-0.2c-1.433-0.367-2.149-0.9-2.149-1.6s0.733-1.367,2.2-2
	c1.433-0.633,3.183-1.05,5.25-1.25s3.817-0.117,5.25,0.25C347.283,115.083,348,115.617,348,116.35z"/>
<path style="fill-rule:evenodd;clip-rule:evenodd;fill:#645622;" d="M363.15,147.5c0,0.733-0.733,1.4-2.2,2
	c-1.434,0.634-3.184,1.017-5.25,1.15c-2.067,0.166-3.817,0.066-5.25-0.301c-1.467-0.366-2.2-0.899-2.2-1.6s0.733-1.366,2.2-2
	s3.217-1.033,5.25-1.2c2.033-0.166,3.783-0.066,5.25,0.3C362.417,146.25,363.15,146.8,363.15,147.5z"/>
<path style="fill-rule:evenodd;clip-rule:evenodd;fill:#645622;" d="M223.1,155.55c0,0.634-0.7,1.316-2.1,2.05
	c-1.4,0.667-3.1,1.184-5.1,1.551c-1.966,0.366-3.65,0.449-5.05,0.25c-1.367-0.233-2.05-0.667-2.05-1.301c0-0.633,0.684-1.3,2.05-2
	c1.4-0.733,3.083-1.267,5.05-1.6c2-0.366,3.7-0.434,5.1-0.2C222.4,154.5,223.1,154.917,223.1,155.55z"/>
<path style="fill-rule:evenodd;clip-rule:evenodd;fill:#645622;" d="M335.8,134.55c0,0.7-0.733,1.367-2.2,2
	c-1.433,0.634-3.167,1.066-5.2,1.3c-2.034,0.233-3.784,0.184-5.25-0.149c-1.434-0.367-2.15-0.884-2.15-1.55
	c0-0.7,0.717-1.384,2.15-2.051c1.466-0.633,3.216-1.066,5.25-1.3c2.033-0.233,3.767-0.166,5.2,0.2
	C335.066,133.333,335.8,133.85,335.8,134.55z"/>
<path style="fill-rule:evenodd;clip-rule:evenodd;fill:#645622;" d="M422.15,135.8c0,0.733-0.733,1.384-2.2,1.95s-3.233,0.9-5.3,1
	c-2.101,0.1-3.867-0.066-5.3-0.5c-1.467-0.4-2.2-0.967-2.2-1.7c0-0.7,0.733-1.35,2.2-1.95c1.466-0.566,3.233-0.916,5.3-1.05
	c2.066-0.1,3.833,0.066,5.3,0.5S422.15,135.066,422.15,135.8z"/>
<path style="fill-rule:evenodd;clip-rule:evenodd;fill:#645622;" d="M397.85,126.95c0,0.733-0.733,1.399-2.2,2
	c-1.434,0.566-3.184,0.934-5.25,1.1c-2.101,0.134-3.867,0-5.3-0.399c-1.467-0.4-2.2-0.967-2.2-1.7c0-0.7,0.733-1.351,2.2-1.95
	c1.466-0.6,3.233-0.983,5.3-1.15c2.033-0.133,3.783,0.017,5.25,0.45C397.117,125.7,397.85,126.25,397.85,126.95z"/>
<path style="fill-rule:evenodd;clip-rule:evenodd;fill:#645622;" d="M162.15,213.9c0,0.6-0.683,1.232-2.05,1.899
	c-1.333,0.634-2.967,1.117-4.9,1.45c-1.934,0.3-3.567,0.366-4.9,0.2c-1.366-0.2-2.05-0.601-2.05-1.2s0.684-1.233,2.05-1.9
	c1.333-0.633,2.967-1.133,4.9-1.5c1.9-0.333,3.533-0.383,4.9-0.149C161.467,212.9,162.15,213.3,162.15,213.9z"/>
<path style="fill-rule:evenodd;clip-rule:evenodd;fill:#645622;" d="M195.65,206.1c0,0.634-0.683,1.267-2.05,1.9
	c-1.4,0.667-3.067,1.134-5,1.4c-1.933,0.3-3.6,0.333-5,0.1s-2.1-0.667-2.1-1.3c0-0.601,0.7-1.233,2.1-1.9
	c1.4-0.666,3.067-1.149,5-1.45c1.967-0.3,3.633-0.333,5-0.1C194.967,205.017,195.65,205.467,195.65,206.1z"/>
<path style="fill-rule:evenodd;clip-rule:evenodd;fill:#645622;" d="M310.3,186.65c0,0.666-0.716,1.316-2.149,1.949
	c-1.467,0.634-3.2,1.034-5.2,1.2c-2.033,0.2-3.767,0.134-5.2-0.2c-1.434-0.366-2.15-0.883-2.15-1.55c0-0.7,0.716-1.35,2.15-1.95
	c1.434-0.633,3.167-1.05,5.2-1.25c2.033-0.199,3.767-0.116,5.2,0.25C309.583,185.434,310.3,185.95,310.3,186.65z"/>
<path style="fill-rule:evenodd;clip-rule:evenodd;fill:#645622;" d="M366.95,178.55c1.467-0.566,3.233-0.916,5.3-1.05
	c2.033-0.134,3.783,0.017,5.25,0.45c1.467,0.399,2.2,0.95,2.2,1.649c0,0.733-0.733,1.384-2.2,1.95
	c-1.434,0.566-3.184,0.917-5.25,1.05c-2.066,0.134-3.816,0-5.25-0.399c-1.467-0.4-2.2-0.967-2.2-1.7
	C364.8,179.8,365.517,179.15,366.95,178.55z"/>
<path style="fill-rule:evenodd;clip-rule:evenodd;fill:#645622;" d="M345.5,187.5c0,0.7-0.717,1.35-2.15,1.95
	c-1.467,0.633-3.217,1.017-5.25,1.149c-2.034,0.167-3.784,0.051-5.25-0.35c-1.433-0.4-2.15-0.934-2.15-1.6
	c0-0.7,0.717-1.351,2.15-1.95c1.466-0.601,3.216-0.983,5.25-1.15c2.033-0.166,3.783-0.066,5.25,0.3
	C344.783,186.25,345.5,186.8,345.5,187.5z"/>
<path style="fill-rule:evenodd;clip-rule:evenodd;fill:#645622;" d="M324.2,218.4c0,0.666-0.733,1.3-2.2,1.899
	c-1.434,0.601-3.167,0.967-5.2,1.101c-2.066,0.133-3.8,0-5.2-0.4c-1.433-0.367-2.15-0.9-2.15-1.6c0-0.667,0.717-1.301,2.15-1.9
	s3.167-0.967,5.2-1.1c2.034-0.134,3.767-0.018,5.2,0.35C323.467,217.15,324.2,217.7,324.2,218.4z"/>
<path style="fill-rule:evenodd;clip-rule:evenodd;fill:#645622;" d="M245.85,230c1.4-0.6,3.1-1,5.1-1.2
	c2-0.167,3.717-0.083,5.15,0.25c1.4,0.333,2.1,0.833,2.1,1.5s-0.7,1.3-2.1,1.9c-1.433,0.6-3.15,0.983-5.15,1.149
	c-2,0.167-3.7,0.084-5.1-0.25c-1.4-0.3-2.1-0.783-2.1-1.449C243.75,231.233,244.45,230.6,245.85,230z"/>
<path style="fill-rule:evenodd;clip-rule:evenodd;fill:#645622;" d="M275.05,203.1c0,0.667-0.716,1.317-2.149,1.95
	c-1.4,0.601-3.117,1-5.15,1.2c-2,0.2-3.7,0.15-5.1-0.15c-1.433-0.333-2.15-0.833-2.15-1.5c0-0.666,0.717-1.316,2.15-1.949
	c1.4-0.601,3.1-1.017,5.1-1.25c2.033-0.2,3.75-0.134,5.15,0.199C274.333,201.934,275.05,202.434,275.05,203.1z"/>
<path style="fill-rule:evenodd;clip-rule:evenodd;fill:#645622;" d="M297.1,218.75c0,0.667-0.717,1.3-2.15,1.9
	c-1.434,0.633-3.15,1.017-5.15,1.149c-2.033,0.167-3.767,0.066-5.2-0.3c-1.433-0.367-2.15-0.884-2.15-1.55
	c0-0.667,0.717-1.3,2.15-1.9c1.433-0.633,3.167-1.033,5.2-1.2c2-0.133,3.717-0.017,5.15,0.351
	C296.383,217.566,297.1,218.083,297.1,218.75z"/>
<path style="fill-rule:evenodd;clip-rule:evenodd;fill:#645622;" d="M416.4,184.8c0,0.733-0.733,1.384-2.2,1.95
	s-3.233,0.884-5.3,0.95c-2.067,0.1-3.834-0.066-5.3-0.5c-1.467-0.434-2.2-1.017-2.2-1.75s0.733-1.384,2.2-1.95
	c1.466-0.566,3.233-0.884,5.3-0.95c2.066-0.1,3.833,0.084,5.3,0.55C415.667,183.533,416.4,184.1,416.4,184.8z"/>
<path style="fill-rule:evenodd;clip-rule:evenodd;fill:#645622;" d="M366.8,205.2c0,0.7-0.716,1.35-2.149,1.95
	c-1.467,0.566-3.233,0.899-5.3,1c-2.034,0.133-3.784-0.017-5.25-0.45c-1.433-0.4-2.15-0.95-2.15-1.65s0.717-1.35,2.15-1.95
	c1.466-0.566,3.216-0.916,5.25-1.05c2.067-0.133,3.833,0.017,5.3,0.45C366.083,203.9,366.8,204.467,366.8,205.2z"/>
<path style="fill-rule:evenodd;clip-rule:evenodd;fill:#645622;" d="M229.35,223.05c0,0.634-0.7,1.267-2.1,1.9
	c-1.4,0.6-3.083,1.017-5.05,1.25s-3.65,0.2-5.05-0.101c-1.4-0.3-2.1-0.783-2.1-1.449c0-0.634,0.7-1.25,2.1-1.851
	c1.4-0.633,3.083-1.066,5.05-1.3s3.65-0.2,5.05,0.1C228.65,221.934,229.35,222.417,229.35,223.05z"/>
<path style="fill-rule:evenodd;clip-rule:evenodd;fill:#645622;" d="M407.65,210.75c0,0.733-0.733,1.366-2.2,1.9
	c-1.434,0.566-3.184,0.883-5.25,0.949c-2.067,0.101-3.833-0.066-5.3-0.5c-1.467-0.467-2.2-1.05-2.2-1.75
	c0-0.733,0.733-1.383,2.2-1.949c1.466-0.567,3.233-0.884,5.3-0.95c2.066-0.066,3.816,0.116,5.25,0.55
	C406.917,209.434,407.65,210.017,407.65,210.75z"/>
<path style="fill-rule:evenodd;clip-rule:evenodd;fill:#645622;" d="M410.9,228.4c1.466-0.567,3.233-0.884,5.3-0.95
	c2.1-0.033,3.866,0.166,5.3,0.6c1.467,0.467,2.2,1.066,2.2,1.8s-0.733,1.367-2.2,1.9c-1.467,0.566-3.233,0.866-5.3,0.9
	c-2.067,0.066-3.833-0.134-5.3-0.601c-1.467-0.467-2.2-1.05-2.2-1.75C408.7,229.566,409.434,228.934,410.9,228.4z"/>
<path style="fill-rule:evenodd;clip-rule:evenodd;fill:#645622;" d="M340.9,238.45c0,0.7-0.717,1.333-2.15,1.899
	c-1.467,0.567-3.217,0.9-5.25,1c-2.033,0.134-3.783-0.017-5.25-0.449c-1.434-0.4-2.15-0.95-2.15-1.65s0.716-1.333,2.15-1.9
	c1.467-0.566,3.217-0.899,5.25-1c2.033-0.133,3.783,0.017,5.25,0.45C340.184,237.2,340.9,237.75,340.9,238.45z"/>
<path style="fill-rule:evenodd;clip-rule:evenodd;fill:#645622;" d="M387.5,227.75c0,0.733-0.733,1.366-2.2,1.9
	c-1.433,0.566-3.2,0.883-5.3,0.949c-2.066,0.101-3.816-0.066-5.25-0.5c-1.467-0.433-2.2-1.017-2.2-1.75
	c0-0.699,0.733-1.333,2.2-1.899c1.467-0.567,3.217-0.884,5.25-0.95c2.066-0.1,3.833,0.083,5.3,0.55
	C386.767,226.483,387.5,227.05,387.5,227.75z"/>
<path style="fill-rule:evenodd;clip-rule:evenodd;fill:#645622;" d="M219.05,207.55c0,0.667-0.7,1.316-2.1,1.95
	c-1.4,0.633-3.083,1.066-5.05,1.3c-1.966,0.267-3.65,0.267-5.05,0c-1.367-0.233-2.05-0.684-2.05-1.35c0-0.634,0.684-1.267,2.05-1.9
	c1.4-0.666,3.083-1.116,5.05-1.35c1.967-0.267,3.65-0.267,5.05,0C218.35,206.467,219.05,206.917,219.05,207.55z"/>
<path style="fill-rule:evenodd;clip-rule:evenodd;fill:#645622;" d="M245.85,196c1.4-0.667,3.1-1.116,5.1-1.35s3.717-0.2,5.15,0.1
	c1.4,0.333,2.1,0.816,2.1,1.45c0,0.666-0.7,1.316-2.1,1.95c-1.433,0.633-3.15,1.066-5.15,1.3s-3.7,0.217-5.1-0.05
	c-1.4-0.301-2.1-0.784-2.1-1.45C243.75,197.283,244.45,196.634,245.85,196z"/>
<path style="fill-rule:evenodd;clip-rule:evenodd;fill:#645622;" d="M812.9,69.8c0,0.6-0.684,0.9-2.051,0.9
	c-1.366,0-3.033-0.3-5-0.9c-1.967-0.633-3.633-1.367-5-2.2c-1.366-0.867-2.05-1.617-2.05-2.25s0.684-0.967,2.05-1
	c1.367,0,3.033,0.316,5,0.95c1.934,0.6,3.601,1.35,5,2.25C812.217,68.417,812.9,69.167,812.9,69.8z"/>
<path style="fill-rule:evenodd;clip-rule:evenodd;fill:#645622;" d="M488.05,2.85c0,0.433-0.733,0.816-2.2,1.15
	c-1.467,0.333-3.233,0.517-5.3,0.55c-2.1,0.034-3.883-0.1-5.35-0.4c-1.467-0.3-2.2-0.667-2.2-1.1c0-0.433,0.733-0.816,2.2-1.15
	c1.5-0.333,3.283-0.517,5.35-0.55c2.101-0.034,3.867,0.1,5.3,0.4C487.316,2.05,488.05,2.417,488.05,2.85z"/>
<path style="fill-rule:evenodd;clip-rule:evenodd;fill:#645622;" d="M612.65,26c0,0.733-0.717,1.267-2.15,1.6
	c-1.467,0.367-3.233,0.45-5.3,0.25c-2.067-0.2-3.833-0.617-5.3-1.25s-2.2-1.3-2.2-2c0-0.733,0.733-1.284,2.2-1.65
	c1.467-0.367,3.232-0.45,5.3-0.25c2.066,0.2,3.833,0.633,5.3,1.3C611.934,24.633,612.65,25.3,612.65,26z"/>
<path style="fill-rule:evenodd;clip-rule:evenodd;fill:#645622;" d="M521.5,25.1c0,0.733-0.733,1.333-2.2,1.8
	c-1.466,0.5-3.25,0.733-5.35,0.7c-2.101-0.034-3.884-0.3-5.351-0.8s-2.199-1.117-2.199-1.85c0-0.733,0.732-1.35,2.199-1.85
	c1.5-0.534,3.283-0.784,5.351-0.75c2.066,0.033,3.85,0.316,5.35,0.85C520.767,23.733,521.5,24.367,521.5,25.1z"/>
<path style="fill-rule:evenodd;clip-rule:evenodd;fill:#645622;" d="M457.9,23.1c0,0.733-0.733,1.383-2.2,1.95
	c-1.467,0.567-3.25,0.9-5.35,1c-2.1,0.067-3.867-0.1-5.3-0.5c-1.466-0.433-2.2-1.017-2.2-1.75s0.733-1.383,2.2-1.95
	c1.467-0.6,3.233-0.95,5.3-1.05c2.1-0.1,3.883,0.083,5.35,0.55C457.167,21.783,457.9,22.367,457.9,23.1z"/>
<path style="fill-rule:evenodd;clip-rule:evenodd;fill:#645622;" d="M509.35,56.3c0,0.733-0.732,1.35-2.199,1.85
	s-3.25,0.75-5.351,0.75c-2.066,0-3.833-0.25-5.3-0.75s-2.2-1.117-2.2-1.85s0.733-1.35,2.2-1.85c1.467-0.534,3.233-0.8,5.3-0.8
	c2.101,0,3.884,0.267,5.351,0.8C508.617,54.95,509.35,55.566,509.35,56.3z"/>
<path style="fill-rule:evenodd;clip-rule:evenodd;fill:#645622;" d="M566.95,9.85c0,0.533-0.733,0.95-2.2,1.25
	c-1.467,0.3-3.233,0.4-5.3,0.3c-2.067-0.1-3.833-0.383-5.3-0.85c-1.467-0.433-2.2-0.917-2.2-1.45c0-0.567,0.733-1,2.2-1.3
	c1.467-0.333,3.232-0.433,5.3-0.3c2.066,0.1,3.833,0.383,5.3,0.85C566.217,8.816,566.95,9.316,566.95,9.85z"/>
<path style="fill-rule:evenodd;clip-rule:evenodd;fill:#645622;" d="M529.15,45.5c1.467-0.5,3.232-0.717,5.3-0.65
	c2.066,0.066,3.85,0.367,5.35,0.9c1.467,0.566,2.2,1.217,2.2,1.95c0,0.7-0.733,1.283-2.2,1.75c-1.466,0.5-3.25,0.716-5.35,0.65
	c-2.101-0.067-3.866-0.367-5.3-0.9c-1.467-0.534-2.2-1.167-2.2-1.9S527.684,45.967,529.15,45.5z"/>
<path style="fill-rule:evenodd;clip-rule:evenodd;fill:#645622;" d="M446.8,62.35c1.467-0.6,3.233-0.934,5.3-1
	c2.1-0.067,3.883,0.133,5.35,0.6c1.467,0.433,2.2,1.017,2.2,1.75c0,0.733-0.733,1.383-2.2,1.95c-1.467,0.567-3.25,0.883-5.35,0.95
	c-2.067,0.066-3.833-0.117-5.3-0.55c-1.466-0.466-2.2-1.05-2.2-1.75C444.6,63.566,445.333,62.917,446.8,62.35z"/>
<path style="fill-rule:evenodd;clip-rule:evenodd;fill:#645622;" d="M568.05,44.95c0-0.733,0.733-1.3,2.2-1.7
	c1.5-0.434,3.283-0.583,5.35-0.45c2.067,0.133,3.834,0.5,5.301,1.1s2.199,1.25,2.199,1.95c0,0.733-0.732,1.3-2.199,1.7
	c-1.467,0.434-3.233,0.583-5.301,0.45c-2.066-0.133-3.85-0.483-5.35-1.05C568.783,46.35,568.05,45.683,568.05,44.95z"/>
<path style="fill-rule:evenodd;clip-rule:evenodd;fill:#645622;" d="M608.65,58.6c0,0.733-0.733,1.283-2.2,1.65
	c-1.434,0.4-3.2,0.517-5.3,0.35c-2.066-0.167-3.834-0.567-5.301-1.2c-1.467-0.6-2.199-1.25-2.199-1.95c0-0.733,0.732-1.3,2.199-1.7
	c1.467-0.367,3.234-0.483,5.301-0.35c2.066,0.167,3.833,0.567,5.3,1.2S608.65,57.9,608.65,58.6z"/>
<path style="fill-rule:evenodd;clip-rule:evenodd;fill:#645622;" d="M433.85,78.9c0,0.7-0.733,1.35-2.2,1.95
	c-1.467,0.566-3.233,0.917-5.3,1.05c-2.1,0.1-3.867-0.066-5.3-0.5c-1.466-0.4-2.2-0.967-2.2-1.7c0-0.7,0.733-1.35,2.2-1.95
	c1.467-0.6,3.233-0.967,5.3-1.1c2.067-0.1,3.833,0.067,5.3,0.5C433.117,77.583,433.85,78.167,433.85,78.9z"/>
<path style="fill-rule:evenodd;clip-rule:evenodd;fill:#645622;" d="M452,109c0,0.733-0.733,1.383-2.2,1.95
	c-1.5,0.566-3.283,0.883-5.35,0.95c-2.067,0.067-3.833-0.117-5.3-0.55c-1.467-0.467-2.2-1.05-2.2-1.75c0-0.733,0.733-1.383,2.2-1.95
	c1.466-0.566,3.233-0.9,5.3-1c2.066-0.066,3.85,0.133,5.35,0.6C451.267,107.717,452,108.3,452,109z"/>
<path style="fill-rule:evenodd;clip-rule:evenodd;fill:#645622;" d="M478.5,40.85c0,0.733-0.733,1.367-2.2,1.9
	c-1.5,0.566-3.283,0.867-5.35,0.9c-2.067,0.067-3.833-0.133-5.3-0.6c-1.467-0.466-2.217-1.066-2.25-1.8
	c0.033-0.733,0.783-1.383,2.25-1.95c1.466-0.533,3.233-0.833,5.3-0.9c2.066-0.033,3.85,0.184,5.35,0.65
	C477.767,39.517,478.5,40.117,478.5,40.85z"/>
<path style="fill-rule:evenodd;clip-rule:evenodd;fill:#645622;" d="M529.95,76.9c1.467-0.467,3.233-0.683,5.3-0.65
	c2.066,0.066,3.85,0.367,5.35,0.9c1.467,0.567,2.2,1.217,2.2,1.95c0,0.7-0.733,1.283-2.2,1.75c-1.5,0.5-3.283,0.716-5.35,0.65
	c-2.066-0.033-3.833-0.333-5.3-0.9c-1.467-0.534-2.2-1.167-2.2-1.9C527.75,77.967,528.483,77.367,529.95,76.9z"/>
<path style="fill-rule:evenodd;clip-rule:evenodd;fill:#645622;" d="M570.25,66.5c0,0.733-0.733,1.316-2.2,1.75
	c-1.466,0.433-3.233,0.6-5.3,0.5c-2.1-0.1-3.883-0.434-5.35-1c-1.467-0.567-2.2-1.217-2.2-1.95s0.733-1.316,2.2-1.75
	c1.5-0.466,3.283-0.65,5.35-0.55s3.834,0.45,5.3,1.05C569.517,65.117,570.25,65.767,570.25,66.5z"/>
<path style="fill-rule:evenodd;clip-rule:evenodd;fill:#645622;" d="M592,85.75c0,0.733-0.733,1.3-2.2,1.7
	c-1.466,0.433-3.233,0.583-5.3,0.45s-3.833-0.483-5.3-1.05c-1.467-0.6-2.2-1.267-2.2-2c0-0.7,0.733-1.267,2.2-1.7
	c1.467-0.433,3.233-0.583,5.3-0.45c2.066,0.133,3.834,0.5,5.3,1.1C591.267,84.367,592,85.017,592,85.75z"/>
<path style="fill-rule:evenodd;clip-rule:evenodd;fill:#645622;" d="M480.7,89c0,0.733-0.733,1.367-2.2,1.9
	c-1.5,0.567-3.283,0.867-5.35,0.9c-2.067,0.034-3.834-0.2-5.3-0.7c-1.467-0.467-2.217-1.067-2.25-1.8c0-0.7,0.733-1.333,2.2-1.9
	c1.5-0.533,3.284-0.816,5.351-0.85c2.066-0.033,3.85,0.184,5.35,0.65C479.967,87.7,480.7,88.3,480.7,89z"/>
<path style="fill-rule:evenodd;clip-rule:evenodd;fill:#645622;" d="M548.9,109.25c0,0.733-0.733,1.333-2.2,1.8
	c-1.434,0.467-3.2,0.667-5.3,0.6c-2.066-0.033-3.851-0.333-5.351-0.9c-1.466-0.533-2.2-1.167-2.2-1.9s0.734-1.333,2.2-1.8
	c1.5-0.466,3.284-0.683,5.351-0.65c2.1,0.067,3.866,0.383,5.3,0.95C548.167,107.883,548.9,108.517,548.9,109.25z"/>
<path style="fill-rule:evenodd;clip-rule:evenodd;fill:#645622;" d="M521.7,96.1c0,0.733-0.733,1.333-2.2,1.8
	c-1.467,0.5-3.25,0.733-5.35,0.7c-2.066,0-3.851-0.267-5.351-0.8c-1.466-0.5-2.2-1.117-2.2-1.85c0-0.733,0.734-1.35,2.2-1.85
	c1.5-0.5,3.284-0.75,5.351-0.75c2.066,0.033,3.85,0.316,5.35,0.85C520.967,94.733,521.7,95.367,521.7,96.1z"/>
<path style="fill-rule:evenodd;clip-rule:evenodd;fill:#645622;" d="M577,100.25c-0.033,0.7-0.783,1.267-2.25,1.7
	c-1.467,0.433-3.233,0.616-5.3,0.55c-2.067-0.1-3.833-0.434-5.3-1c-1.467-0.567-2.2-1.217-2.2-1.95s0.733-1.316,2.2-1.75
	c1.467-0.466,3.232-0.65,5.3-0.55c2.066,0.1,3.85,0.45,5.35,1.05C576.267,98.867,577,99.517,577,100.25z"/>
<path style="fill-rule:evenodd;clip-rule:evenodd;fill:#645622;" d="M469.25,136.9c0,0.733-0.733,1.366-2.2,1.899
	c-1.466,0.533-3.25,0.816-5.35,0.851c-2.067,0.066-3.833-0.134-5.3-0.601c-1.467-0.467-2.2-1.066-2.2-1.8s0.733-1.384,2.2-1.95
	c1.466-0.533,3.233-0.833,5.3-0.899c2.1-0.034,3.883,0.199,5.35,0.699C468.517,135.566,469.25,136.167,469.25,136.9z"/>
<path style="fill-rule:evenodd;clip-rule:evenodd;fill:#645622;" d="M441.35,167.5c0,0.733-0.733,1.366-2.2,1.9
	c-1.434,0.566-3.2,0.883-5.3,0.949c-2.067,0.067-3.833-0.116-5.3-0.55c-1.466-0.467-2.2-1.066-2.2-1.8s0.733-1.384,2.2-1.95
	c1.467-0.533,3.233-0.833,5.3-0.899c2.067-0.067,3.833,0.133,5.3,0.6C440.617,166.184,441.35,166.767,441.35,167.5z"/>
<path style="fill-rule:evenodd;clip-rule:evenodd;fill:#645622;" d="M513,169c0,0.733-0.733,1.35-2.2,1.85
	c-1.5,0.5-3.283,0.75-5.35,0.75c-2.067,0-3.851-0.25-5.351-0.75c-1.467-0.5-2.199-1.116-2.199-1.85s0.732-1.35,2.199-1.85
	c1.5-0.534,3.283-0.801,5.351-0.801c2.066,0,3.85,0.267,5.35,0.801C512.267,167.65,513,168.267,513,169z"/>
<path style="fill-rule:evenodd;clip-rule:evenodd;fill:#645622;" d="M481.1,158.4c0,0.733-0.733,1.366-2.2,1.899
	c-1.467,0.5-3.233,0.767-5.3,0.8c-2.1,0.034-3.883-0.199-5.35-0.699c-1.467-0.467-2.2-1.067-2.2-1.801s0.733-1.366,2.2-1.899
	c1.5-0.533,3.283-0.816,5.35-0.851c2.067-0.033,3.833,0.2,5.3,0.7C480.367,157.05,481.1,157.667,481.1,158.4z"/>
<path style="fill-rule:evenodd;clip-rule:evenodd;fill:#645622;" d="M550.6,167.25c0,0.7-0.732,1.283-2.199,1.75
	c-1.467,0.5-3.233,0.733-5.301,0.7c-2.066-0.033-3.85-0.334-5.35-0.9c-1.467-0.533-2.2-1.166-2.2-1.899s0.733-1.334,2.2-1.801
	c1.5-0.466,3.283-0.683,5.35-0.649c2.067,0.066,3.834,0.366,5.301,0.899C549.867,165.884,550.6,166.517,550.6,167.25z"/>
<path style="fill-rule:evenodd;clip-rule:evenodd;fill:#645622;" d="M490.9,120.1c-2.101-0.034-3.884-0.3-5.351-0.8
	c-1.466-0.5-2.2-1.117-2.2-1.85c0.033-0.733,0.783-1.35,2.25-1.85c1.5-0.534,3.283-0.784,5.35-0.75c2.066,0,3.833,0.267,5.3,0.8
	c1.467,0.5,2.2,1.117,2.2,1.85s-0.733,1.35-2.2,1.85C494.75,119.85,492.967,120.1,490.9,120.1z"/>
<path style="fill-rule:evenodd;clip-rule:evenodd;fill:#645622;" d="M586.2,168.9c0,0.733-0.733,1.333-2.2,1.8
	c-1.5,0.434-3.283,0.616-5.35,0.55c-2.101-0.1-3.867-0.434-5.301-1c-1.467-0.533-2.199-1.167-2.199-1.9s0.732-1.316,2.199-1.75
	c1.467-0.466,3.234-0.666,5.301-0.6c2.066,0.1,3.85,0.434,5.35,1C585.467,167.566,586.2,168.2,586.2,168.9z"/>
<path style="fill-rule:evenodd;clip-rule:evenodd;fill:#645622;" d="M546.65,141.4c0-0.7,0.732-1.284,2.199-1.75
	c1.467-0.467,3.234-0.684,5.301-0.65c2.1,0.066,3.883,0.384,5.35,0.95c1.467,0.533,2.2,1.166,2.2,1.899s-0.733,1.334-2.2,1.801
	c-1.467,0.466-3.25,0.666-5.35,0.6c-2.066-0.066-3.834-0.384-5.301-0.95C547.383,142.767,546.65,142.134,546.65,141.4z"/>
<path style="fill-rule:evenodd;clip-rule:evenodd;fill:#645622;" d="M529.7,132.8c0,0.733-0.733,1.334-2.2,1.8
	c-1.467,0.5-3.25,0.733-5.35,0.7c-2.066-0.033-3.834-0.3-5.301-0.8c-1.467-0.533-2.199-1.167-2.199-1.9s0.732-1.35,2.199-1.85
	s3.234-0.733,5.301-0.7c2.1,0.033,3.883,0.316,5.35,0.851C528.967,131.434,529.7,132.066,529.7,132.8z"/>
<path style="fill-rule:evenodd;clip-rule:evenodd;fill:#645622;" d="M606,148.35c0,0.7-0.733,1.267-2.2,1.7
	c-1.466,0.434-3.216,0.584-5.25,0.45c-2.066-0.1-3.833-0.434-5.3-1s-2.2-1.217-2.2-1.95s0.733-1.316,2.2-1.75s3.233-0.583,5.3-0.45
	c2.067,0.101,3.817,0.45,5.25,1.051C605.267,146.967,606,147.616,606,148.35z"/>
<path style="fill-rule:evenodd;clip-rule:evenodd;fill:#645622;" d="M584.9,125.75c0,0.733-0.733,1.316-2.2,1.75s-3.233,0.6-5.3,0.5
	s-3.834-0.434-5.301-1s-2.199-1.217-2.199-1.95c0-0.7,0.732-1.267,2.199-1.7c1.467-0.467,3.234-0.65,5.301-0.55
	c2.066,0.1,3.833,0.45,5.3,1.05C584.167,124.417,584.9,125.05,584.9,125.75z"/>
<path style="fill-rule:evenodd;clip-rule:evenodd;fill:#645622;" d="M490.7,12c1.6,0.4,2.467,0.933,2.6,1.6
	c0.167,0.667-0.417,1.267-1.75,1.8c-1.3,0.533-3,0.85-5.1,0.95c-2.067,0.1-3.884-0.05-5.45-0.45s-2.434-0.933-2.6-1.6
	c-0.167-0.633,0.416-1.233,1.75-1.8c1.366-0.533,3.066-0.85,5.1-0.95C487.316,11.45,489.133,11.6,490.7,12z"/>
<path style="fill-rule:evenodd;clip-rule:evenodd;fill:#645622;" d="M775.5,55.95c1.4,0.866,2.1,1.616,2.1,2.25
	c0,0.633-0.699,0.983-2.1,1.05c-1.367,0.066-3.05-0.184-5.05-0.75c-1.967-0.533-3.65-1.233-5.05-2.1
	c-1.4-0.833-2.101-1.566-2.101-2.2c0-0.667,0.7-1.034,2.101-1.1c1.399-0.067,3.083,0.183,5.05,0.75
	C772.417,54.383,774.1,55.083,775.5,55.95z"/>
<path style="fill-rule:evenodd;clip-rule:evenodd;fill:#645622;" d="M735.1,43.7c0,0.533-0.699,0.85-2.1,0.95
	c-1.434,0.1-3.15-0.033-5.15-0.4c-2.033-0.4-3.732-0.917-5.1-1.55c-1.434-0.667-2.15-1.267-2.15-1.8s0.717-0.867,2.15-1
	c1.4-0.1,3.1,0.033,5.1,0.4c2,0.4,3.717,0.934,5.15,1.6C734.4,42.566,735.1,43.167,735.1,43.7z"/>
<path style="fill-rule:evenodd;clip-rule:evenodd;fill:#645622;" d="M734.5,53.65c2,0.4,3.717,0.983,5.15,1.75
	c1.434,0.8,2.149,1.533,2.149,2.2c0,0.667-0.716,1.083-2.149,1.25c-1.4,0.167-3.117,0.05-5.15-0.35c-2-0.4-3.717-0.983-5.15-1.75
	c-1.433-0.767-2.149-1.483-2.149-2.15c0-0.667,0.717-1.1,2.149-1.3C730.783,53.1,732.5,53.217,734.5,53.65z"/>
<path style="fill-rule:evenodd;clip-rule:evenodd;fill:#645622;" d="M669.5,55.5c0,0.7-0.733,1.2-2.2,1.5
	c-1.433,0.267-3.183,0.267-5.25,0c-2.066-0.267-3.816-0.75-5.25-1.45c-1.433-0.667-2.149-1.35-2.149-2.05s0.717-1.2,2.149-1.5
	c1.467-0.3,3.217-0.317,5.25-0.05c2.034,0.267,3.784,0.75,5.25,1.45C668.767,54.1,669.5,54.8,669.5,55.5z"/>
<path style="fill-rule:evenodd;clip-rule:evenodd;fill:#645622;" d="M694.5,36.75c-0.033,0.5-0.783,0.8-2.25,0.9
	c-1.467,0.067-3.2-0.1-5.2-0.5c-2.033-0.4-3.75-0.917-5.149-1.55c-1.367-0.633-2.033-1.217-2-1.75c0.033-0.534,0.783-0.833,2.25-0.9
	c1.434-0.1,3.166,0.05,5.199,0.45c2,0.4,3.7,0.934,5.101,1.6C693.85,35.633,694.533,36.217,694.5,36.75z"/>
<path style="fill-rule:evenodd;clip-rule:evenodd;fill:#645622;" d="M694.15,57.2c1.434-0.267,3.166-0.233,5.199,0.1
	c2.033,0.367,3.768,0.917,5.2,1.65c1.434,0.733,2.15,1.433,2.15,2.1c0,0.667-0.717,1.133-2.15,1.4
	c-1.433,0.233-3.167,0.183-5.2-0.15c-2.066-0.367-3.8-0.9-5.199-1.6c-1.467-0.7-2.2-1.4-2.2-2.1
	C691.95,57.9,692.684,57.433,694.15,57.2z"/>
<path style="fill-rule:evenodd;clip-rule:evenodd;fill:#645622;" d="M731.05,77.75c1.434-0.2,3.15-0.1,5.15,0.3
	c2,0.367,3.717,0.934,5.149,1.7c1.4,0.733,2.101,1.433,2.101,2.1c0,0.667-0.7,1.1-2.101,1.3c-1.433,0.2-3.149,0.117-5.149-0.25
	c-2.033-0.367-3.75-0.917-5.15-1.65c-1.433-0.767-2.149-1.483-2.149-2.15C728.9,78.433,729.617,77.983,731.05,77.75z"/>
<path style="fill-rule:evenodd;clip-rule:evenodd;fill:#645622;" d="M772,70.5c1.967,0.467,3.667,1.1,5.1,1.9
	c1.4,0.833,2.101,1.567,2.101,2.2s-0.7,1.017-2.101,1.15c-1.399,0.133-3.1-0.033-5.1-0.5s-3.7-1.1-5.1-1.9
	c-1.4-0.8-2.101-1.517-2.101-2.15c0-0.667,0.7-1.067,2.101-1.2C768.334,69.867,770.033,70.033,772,70.5z"/>
<path style="fill-rule:evenodd;clip-rule:evenodd;fill:#645622;" d="M694.45,74.95c2.033,0.3,3.767,0.816,5.2,1.55
	c1.434,0.7,2.149,1.4,2.149,2.1c0,0.667-0.716,1.133-2.149,1.4s-3.167,0.25-5.2-0.05c-2.033-0.333-3.767-0.833-5.2-1.5
	c-1.434-0.7-2.15-1.4-2.15-2.1c0-0.7,0.717-1.184,2.15-1.45C690.684,74.6,692.417,74.617,694.45,74.95z"/>
<path style="fill-rule:evenodd;clip-rule:evenodd;fill:#645622;" d="M637.65,43.5c1.434,0.667,2.149,1.35,2.149,2.05
	c0,0.7-0.716,1.217-2.149,1.55c-1.467,0.333-3.233,0.383-5.301,0.15c-2.066-0.233-3.816-0.667-5.25-1.3
	c-1.467-0.667-2.199-1.35-2.199-2.05c0-0.733,0.732-1.267,2.199-1.6c1.467-0.333,3.217-0.383,5.25-0.15
	C634.417,42.383,636.184,42.833,637.65,43.5z"/>
<path style="fill-rule:evenodd;clip-rule:evenodd;fill:#645622;" d="M832,85.6c0,0.6-0.684,0.917-2.05,0.95
	c-1.4,0.034-3.067-0.233-5-0.8c-1.934-0.567-3.583-1.267-4.95-2.1c-1.4-0.833-2.1-1.566-2.1-2.2c0-0.634,0.699-0.967,2.1-1
	c1.367-0.034,3.017,0.233,4.95,0.8c1.933,0.566,3.6,1.283,5,2.15C831.316,84.233,832,84.967,832,85.6z"/>
<path style="fill-rule:evenodd;clip-rule:evenodd;fill:#645622;" d="M653.05,79.25c2.034,0.267,3.784,0.733,5.25,1.4
	c1.434,0.667,2.15,1.35,2.15,2.05c0,0.7-0.717,1.2-2.15,1.5c-1.433,0.333-3.183,0.383-5.25,0.15c-2.066-0.233-3.816-0.667-5.25-1.3
	c-1.466-0.667-2.2-1.35-2.2-2.05s0.734-1.217,2.2-1.55C649.267,79.083,651.017,79.017,653.05,79.25z"/>
<path style="fill-rule:evenodd;clip-rule:evenodd;fill:#645622;" d="M681.75,101.25c0,0.7-0.717,1.2-2.15,1.5
	c-1.433,0.333-3.183,0.367-5.25,0.1c-2.066-0.233-3.816-0.684-5.25-1.35c-1.433-0.667-2.149-1.35-2.149-2.05
	c0-0.7,0.717-1.217,2.149-1.55c1.467-0.3,3.217-0.333,5.25-0.1c2.033,0.267,3.783,0.733,5.25,1.4
	C681.033,99.867,681.75,100.55,681.75,101.25z"/>
<path style="fill-rule:evenodd;clip-rule:evenodd;fill:#645622;" d="M705.75,121.85c0,0.7-0.717,1.2-2.15,1.5
	c-1.433,0.3-3.166,0.316-5.199,0.05s-3.768-0.733-5.2-1.4c-1.434-0.7-2.15-1.383-2.15-2.05c0-0.7,0.717-1.2,2.15-1.5
	c1.433-0.3,3.167-0.317,5.2-0.05s3.767,0.75,5.199,1.45C705.033,120.517,705.75,121.183,705.75,121.85z"/>
<path style="fill-rule:evenodd;clip-rule:evenodd;fill:#645622;" d="M779.95,102.9c0,0.667-0.7,1.067-2.101,1.2
	c-1.399,0.167-3.1,0.033-5.1-0.4c-2-0.434-3.7-1.017-5.1-1.75c-1.4-0.767-2.101-1.483-2.101-2.15c0-0.667,0.7-1.083,2.101-1.25
	c1.434-0.167,3.133-0.033,5.1,0.4c2,0.466,3.7,1.083,5.1,1.85C779.25,101.566,779.95,102.267,779.95,102.9z"/>
<path style="fill-rule:evenodd;clip-rule:evenodd;fill:#645622;" d="M619.15,114.2c0,0.733-0.733,1.3-2.2,1.7
	c-1.434,0.4-3.184,0.517-5.25,0.35c-2.067-0.133-3.833-0.517-5.3-1.15c-1.467-0.6-2.2-1.25-2.2-1.95c0-0.733,0.733-1.3,2.2-1.7
	c1.434-0.4,3.199-0.534,5.3-0.4c2.033,0.167,3.783,0.55,5.25,1.15C618.417,112.833,619.15,113.5,619.15,114.2z"/>
<path style="fill-rule:evenodd;clip-rule:evenodd;fill:#645622;" d="M798.9,92.8c1.967,0.5,3.633,1.15,5,1.95
	c1.399,0.8,2.1,1.517,2.1,2.15s-0.7,1-2.1,1.1c-1.367,0.1-3.033-0.083-5-0.55c-2-0.5-3.684-1.15-5.051-1.95
	c-1.399-0.8-2.1-1.517-2.1-2.15s0.7-1,2.1-1.1C795.25,92.15,796.934,92.333,798.9,92.8z"/>
<path style="fill-rule:evenodd;clip-rule:evenodd;fill:#645622;" d="M845.55,135.05c0,0.601-0.683,0.95-2.05,1.05
	c-1.367,0.067-3.017-0.133-4.95-0.6c-1.966-0.467-3.633-1.083-5-1.85c-1.366-0.767-2.05-1.467-2.05-2.101c0-0.633,0.684-1,2.05-1.1
	c1.4-0.101,3.067,0.1,5,0.6c1.934,0.467,3.583,1.101,4.95,1.9C844.867,133.717,845.55,134.417,845.55,135.05z"/>
<path style="fill-rule:evenodd;clip-rule:evenodd;fill:#645622;" d="M726.4,102.1c0,0.667-0.717,1.133-2.15,1.4
	c-1.4,0.233-3.117,0.183-5.15-0.15c-2.033-0.333-3.75-0.85-5.149-1.55c-1.434-0.7-2.15-1.383-2.15-2.05s0.717-1.133,2.15-1.4
	c1.399-0.267,3.116-0.233,5.149,0.1c2.033,0.333,3.75,0.85,5.15,1.55C725.684,100.733,726.4,101.433,726.4,102.1z"/>
<path style="fill-rule:evenodd;clip-rule:evenodd;fill:#645622;" d="M785.75,130.9c0,0.633-0.7,1.05-2.1,1.25
	c-1.367,0.166-3.051,0.066-5.051-0.301c-1.967-0.366-3.666-0.916-5.1-1.649c-1.4-0.733-2.1-1.417-2.1-2.05
	c0-0.667,0.699-1.101,2.1-1.301c1.4-0.166,3.1-0.066,5.1,0.301c1.967,0.399,3.65,0.966,5.051,1.699
	C785.05,129.583,785.75,130.267,785.75,130.9z"/>
<path style="fill-rule:evenodd;clip-rule:evenodd;fill:#645622;" d="M638.05,92.6c2.034,0.2,3.784,0.633,5.25,1.3
	c1.467,0.633,2.2,1.3,2.2,2c0,0.7-0.733,1.233-2.2,1.6c-1.433,0.333-3.183,0.4-5.25,0.2c-2.066-0.167-3.833-0.567-5.3-1.2
	c-1.434-0.633-2.15-1.317-2.15-2.05c0-0.7,0.717-1.233,2.15-1.6C634.217,92.483,635.983,92.4,638.05,92.6z"/>
<path style="fill-rule:evenodd;clip-rule:evenodd;fill:#645622;" d="M766.9,114.75c0,0.667-0.7,1.083-2.101,1.25
	c-1.399,0.2-3.1,0.117-5.1-0.25s-3.7-0.917-5.101-1.65c-1.433-0.733-2.149-1.434-2.149-2.1s0.717-1.1,2.149-1.3
	c1.434-0.2,3.134-0.1,5.101,0.3c2,0.367,3.7,0.917,5.1,1.65C766.2,113.383,766.9,114.083,766.9,114.75z"/>
<path style="fill-rule:evenodd;clip-rule:evenodd;fill:#645622;" d="M627.55,77.4c0,0.733-0.733,1.283-2.2,1.65
	c-1.433,0.333-3.183,0.417-5.25,0.25c-2.066-0.167-3.833-0.566-5.3-1.2c-1.466-0.633-2.2-1.3-2.2-2c0-0.733,0.734-1.284,2.2-1.65
	c1.467-0.367,3.233-0.467,5.3-0.3c2.067,0.2,3.817,0.617,5.25,1.25C626.816,76.033,627.55,76.7,627.55,77.4z"/>
<path style="fill-rule:evenodd;clip-rule:evenodd;fill:#645622;" d="M812.3,127.7c0,0.633-0.683,1-2.05,1.1
	c-1.367,0.134-3.033-0.017-5-0.45c-1.967-0.433-3.65-1.017-5.05-1.75c-1.366-0.767-2.05-1.466-2.05-2.1
	c-0.033-0.633,0.649-1.033,2.05-1.2c1.366-0.133,3.05,0.017,5.05,0.45c1.967,0.467,3.633,1.083,5,1.85
	C811.617,126.366,812.3,127.066,812.3,127.7z"/>
<path style="fill-rule:evenodd;clip-rule:evenodd;fill:#645622;" d="M561.3,24.2c0,0.733-0.733,1.316-2.2,1.75
	c-1.433,0.4-3.199,0.566-5.3,0.5c-2.1-0.1-3.883-0.434-5.35-1c-1.467-0.567-2.2-1.217-2.2-1.95s0.733-1.317,2.2-1.75
	c1.5-0.467,3.283-0.65,5.35-0.55c2.067,0.1,3.833,0.45,5.3,1.05C560.566,22.816,561.3,23.467,561.3,24.2z"/>
<path style="fill-rule:evenodd;clip-rule:evenodd;fill:#645622;" d="M652.6,28.3c0,0.7-0.717,1.2-2.149,1.5
	c-1.434,0.267-3.184,0.267-5.25,0c-2.067-0.267-3.817-0.75-5.25-1.45c-1.467-0.667-2.2-1.35-2.2-2.05c0-0.7,0.733-1.2,2.2-1.5
	c1.467-0.333,3.217-0.35,5.25-0.05c2.033,0.267,3.783,0.75,5.25,1.45C651.883,26.9,652.6,27.6,652.6,28.3z"/>
<path style="fill-rule:evenodd;clip-rule:evenodd;fill:#645622;" d="M635.3,171.55c0,0.733-0.733,1.3-2.2,1.7
	c-1.433,0.4-3.183,0.533-5.25,0.4c-2.066-0.134-3.833-0.483-5.3-1.051c-1.466-0.6-2.2-1.25-2.2-1.949c0-0.733,0.734-1.301,2.2-1.7
	c1.467-0.434,3.233-0.584,5.3-0.45c2.067,0.167,3.817,0.533,5.25,1.1C634.566,170.2,635.3,170.85,635.3,171.55z"/>
<path style="fill-rule:evenodd;clip-rule:evenodd;fill:#645622;" d="M693.5,141.2c0,0.7-0.717,1.2-2.15,1.5
	c-1.433,0.333-3.166,0.383-5.199,0.149c-2.066-0.233-3.816-0.666-5.25-1.3c-1.434-0.633-2.15-1.3-2.15-2s0.717-1.217,2.15-1.55
	s3.184-0.384,5.25-0.15c2.033,0.233,3.767,0.667,5.199,1.301C692.783,139.816,693.5,140.5,693.5,141.2z"/>
<path style="fill-rule:evenodd;clip-rule:evenodd;fill:#645622;" d="M681.8,169.8c0,0.7-0.716,1.233-2.149,1.601
	c-1.434,0.333-3.167,0.416-5.2,0.25c-2.067-0.167-3.817-0.567-5.25-1.2c-1.467-0.601-2.2-1.25-2.2-1.95s0.733-1.233,2.2-1.6
	c1.433-0.367,3.183-0.467,5.25-0.301c2.033,0.2,3.767,0.617,5.2,1.25C681.084,168.45,681.8,169.1,681.8,169.8z"/>
<path style="fill-rule:evenodd;clip-rule:evenodd;fill:#645622;" d="M654,124.85c0,0.7-0.733,1.233-2.2,1.6
	c-1.433,0.333-3.183,0.416-5.25,0.25c-2.033-0.167-3.783-0.566-5.25-1.2c-1.466-0.633-2.2-1.3-2.2-2s0.734-1.233,2.2-1.6
	c1.467-0.4,3.217-0.5,5.25-0.3c2.067,0.2,3.817,0.617,5.25,1.25C653.267,123.483,654,124.15,654,124.85z"/>
<path style="fill-rule:evenodd;clip-rule:evenodd;fill:#645622;" d="M666.85,151.2c0,0.7-0.717,1.233-2.149,1.6
	c-1.434,0.334-3.184,0.417-5.25,0.25c-2.067-0.166-3.817-0.566-5.25-1.2c-1.434-0.6-2.15-1.25-2.15-1.949
	c0-0.733,0.717-1.284,2.15-1.65c1.467-0.366,3.217-0.45,5.25-0.25c2.033,0.167,3.783,0.566,5.25,1.2
	C666.133,149.833,666.85,150.5,666.85,151.2z"/>
<path style="fill-rule:evenodd;clip-rule:evenodd;fill:#645622;" d="M751.45,179.85c0,0.667-0.7,1.134-2.101,1.4
	c-1.433,0.3-3.149,0.316-5.149,0.05c-2.033-0.233-3.75-0.684-5.15-1.35c-1.433-0.634-2.149-1.283-2.149-1.95s0.717-1.15,2.149-1.45
	c1.434-0.3,3.15-0.316,5.15-0.05s3.717,0.717,5.149,1.35C750.75,178.517,751.45,179.184,751.45,179.85z"/>
<path style="fill-rule:evenodd;clip-rule:evenodd;fill:#645622;" d="M720.65,166.05c0,0.667-0.717,1.167-2.15,1.5
	c-1.434,0.3-3.166,0.334-5.2,0.101c-2.033-0.233-3.75-0.667-5.149-1.301c-1.434-0.633-2.15-1.3-2.15-2c0-0.666,0.717-1.166,2.15-1.5
	c1.399-0.333,3.116-0.383,5.149-0.149c2.034,0.267,3.767,0.717,5.2,1.35C719.934,164.717,720.65,165.384,720.65,166.05z"/>
<path style="fill-rule:evenodd;clip-rule:evenodd;fill:#645622;" d="M813.5,188.2c0,0.633-0.684,1.05-2.05,1.25
	c-1.4,0.233-3.067,0.184-5-0.15c-1.967-0.333-3.65-0.833-5.05-1.5c-1.4-0.666-2.101-1.316-2.101-1.95c0-0.633,0.7-1.066,2.101-1.3
	c1.399-0.233,3.083-0.184,5.05,0.15c1.933,0.333,3.6,0.85,5,1.55C812.816,186.917,813.5,187.566,813.5,188.2z"/>
<path style="fill-rule:evenodd;clip-rule:evenodd;fill:#645622;" d="M759.95,131.85c0,0.667-0.7,1.101-2.101,1.301
	c-1.433,0.233-3.149,0.166-5.149-0.2c-2-0.334-3.7-0.867-5.101-1.601c-1.433-0.733-2.149-1.433-2.149-2.1
	c0.033-0.667,0.75-1.1,2.149-1.3c1.467-0.233,3.184-0.167,5.15,0.2c1.967,0.333,3.667,0.883,5.1,1.649
	C759.25,130.5,759.95,131.184,759.95,131.85z"/>
<path style="fill-rule:evenodd;clip-rule:evenodd;fill:#645622;" d="M774.65,164.6c0,0.634-0.7,1.084-2.101,1.351
	c-1.433,0.233-3.133,0.2-5.1-0.101c-2-0.333-3.7-0.833-5.101-1.5c-1.433-0.699-2.149-1.366-2.149-2c0-0.666,0.717-1.116,2.149-1.35
	c1.4-0.267,3.101-0.233,5.101,0.1c1.967,0.301,3.667,0.801,5.1,1.5C773.95,163.267,774.65,163.934,774.65,164.6z"/>
<path style="fill-rule:evenodd;clip-rule:evenodd;fill:#645622;" d="M634.35,138.6c0,0.7-0.732,1.25-2.199,1.65
	s-3.233,0.517-5.301,0.35c-2.033-0.133-3.783-0.517-5.25-1.149c-1.467-0.601-2.199-1.25-2.199-1.95c0-0.733,0.732-1.3,2.199-1.7
	c1.434-0.366,3.184-0.483,5.25-0.35c2.067,0.166,3.834,0.55,5.301,1.149C633.617,137.2,634.35,137.866,634.35,138.6z"/>
<path style="fill-rule:evenodd;clip-rule:evenodd;fill:#645622;" d="M735.65,142.4c1.399-0.267,3.116-0.25,5.149,0.05
	c2,0.3,3.717,0.8,5.15,1.5c1.399,0.666,2.1,1.333,2.1,2c0,0.666-0.7,1.133-2.1,1.399c-1.434,0.267-3.15,0.25-5.15-0.05
	c-2.033-0.3-3.75-0.783-5.149-1.45c-1.434-0.699-2.15-1.383-2.15-2.05C733.5,143.134,734.217,142.667,735.65,142.4z"/>
<path style="fill-rule:evenodd;clip-rule:evenodd;fill:#645622;" d="M830.65,167.75c0,0.6-0.684,0.983-2.051,1.15
	c-1.366,0.133-3.033,0.017-5-0.351c-1.933-0.399-3.583-0.95-4.949-1.649c-1.4-0.7-2.101-1.367-2.101-2c0-0.634,0.7-1.034,2.101-1.2
	c1.366-0.167,3.017-0.05,4.949,0.35c1.967,0.4,3.634,0.967,5,1.7C829.967,166.45,830.65,167.116,830.65,167.75z"/>
<path style="fill-rule:evenodd;clip-rule:evenodd;fill:#645622;" d="M807.8,154.2c0,0.633-0.683,1.05-2.05,1.25
	c-1.367,0.166-3.05,0.066-5.05-0.3c-1.967-0.367-3.634-0.917-5-1.65c-1.4-0.733-2.101-1.417-2.101-2.05c0-0.634,0.7-1.033,2.101-1.2
	c1.399-0.2,3.066-0.116,5,0.25c1.967,0.4,3.649,0.967,5.05,1.7C807.117,152.9,807.8,153.566,807.8,154.2z"/>
<path style="fill-rule:evenodd;clip-rule:evenodd;fill:#645622;" d="M484.55,187c0,0.733-0.733,1.366-2.2,1.9
	c-1.5,0.5-3.284,0.767-5.35,0.8s-3.85-0.2-5.35-0.7c-1.467-0.5-2.2-1.116-2.2-1.85s0.733-1.351,2.2-1.851
	c1.5-0.533,3.283-0.816,5.35-0.85s3.85,0.2,5.35,0.7C483.816,185.65,484.55,186.267,484.55,187z"/>
<path style="fill-rule:evenodd;clip-rule:evenodd;fill:#645622;" d="M569.85,189.8c0,0.7-0.732,1.283-2.199,1.75
	c-1.467,0.5-3.233,0.717-5.301,0.65c-2.066-0.033-3.833-0.334-5.3-0.9c-1.466-0.533-2.2-1.166-2.2-1.899s0.734-1.334,2.2-1.801
	c1.467-0.466,3.233-0.683,5.3-0.649c2.067,0.066,3.834,0.366,5.301,0.899C569.117,188.417,569.85,189.066,569.85,189.8z"/>
<path style="fill-rule:evenodd;clip-rule:evenodd;fill:#645622;" d="M532.1,197.35c0,0.733-0.732,1.351-2.199,1.851
	s-3.233,0.733-5.301,0.7c-2.1-0.034-3.883-0.301-5.35-0.801c-1.467-0.533-2.2-1.166-2.2-1.899s0.733-1.351,2.2-1.851
	s3.25-0.733,5.35-0.699c2.067,0.033,3.834,0.316,5.301,0.85C531.367,196,532.1,196.616,532.1,197.35z"/>
<path style="fill-rule:evenodd;clip-rule:evenodd;fill:#645622;" d="M507.25,215c0,0.733-0.733,1.35-2.2,1.85
	c-1.5,0.533-3.283,0.801-5.35,0.801c-2.067,0-3.851-0.25-5.35-0.75c-1.467-0.5-2.2-1.117-2.2-1.851s0.733-1.35,2.2-1.85
	c1.5-0.533,3.283-0.8,5.35-0.8c2.066,0,3.85,0.25,5.35,0.75C506.517,213.65,507.25,214.267,507.25,215z"/>
<path style="fill-rule:evenodd;clip-rule:evenodd;fill:#645622;" d="M447.25,198.9c0,0.733-0.733,1.366-2.2,1.899
	c-1.466,0.566-3.233,0.867-5.3,0.9c-2.066,0.066-3.85-0.15-5.35-0.65c-1.467-0.467-2.2-1.05-2.2-1.75c0-0.733,0.733-1.366,2.2-1.899
	c1.5-0.534,3.283-0.834,5.35-0.9s3.833,0.134,5.3,0.6C446.517,197.566,447.25,198.167,447.25,198.9z"/>
<path style="fill-rule:evenodd;clip-rule:evenodd;fill:#645622;" d="M471,216c0.033,0.733-0.684,1.366-2.15,1.9
	c-1.5,0.533-3.284,0.816-5.35,0.85s-3.85-0.2-5.35-0.7c-1.467-0.467-2.2-1.066-2.2-1.8s0.733-1.367,2.2-1.9
	c1.5-0.533,3.283-0.816,5.35-0.85c2.1-0.033,3.883,0.2,5.35,0.7C470.316,214.667,471.033,215.267,471,216z"/>
<path style="fill-rule:evenodd;clip-rule:evenodd;fill:#645622;" d="M605.6,188.1c0,0.733-0.732,1.317-2.199,1.75
	c-1.467,0.434-3.233,0.601-5.301,0.5c-2.066-0.066-3.833-0.383-5.3-0.949c-1.466-0.567-2.2-1.217-2.2-1.95
	c0-0.7,0.734-1.267,2.2-1.7c1.467-0.467,3.233-0.65,5.3-0.55c2.067,0.066,3.834,0.399,5.301,1
	C604.867,186.767,605.6,187.4,605.6,188.1z"/>
<path style="fill-rule:evenodd;clip-rule:evenodd;fill:#645622;" d="M543.05,219.55c0,0.733-0.733,1.351-2.2,1.851
	s-3.232,0.732-5.3,0.699c-2.1-0.033-3.883-0.3-5.35-0.8c-1.467-0.533-2.2-1.167-2.2-1.899c0-0.733,0.733-1.351,2.2-1.851
	s3.25-0.733,5.35-0.7c2.067,0.033,3.833,0.317,5.3,0.851C542.316,218.2,543.05,218.816,543.05,219.55z"/>
<path style="fill-rule:evenodd;clip-rule:evenodd;fill:#645622;" d="M462.75,241.2c1.467,0.5,2.2,1.116,2.2,1.85
	s-0.733,1.367-2.2,1.9c-1.467,0.5-3.233,0.767-5.3,0.8c-2.067,0.033-3.85-0.2-5.35-0.7c-1.467-0.467-2.2-1.066-2.2-1.8
	s0.733-1.35,2.2-1.85c1.5-0.534,3.283-0.817,5.35-0.851C459.517,240.517,461.283,240.733,462.75,241.2z"/>
<path style="fill-rule:evenodd;clip-rule:evenodd;fill:#645622;" d="M571.35,214.45c1.467-0.467,3.234-0.684,5.301-0.65
	c2.066,0.066,3.833,0.367,5.3,0.9c1.467,0.566,2.2,1.217,2.2,1.95c0,0.699-0.733,1.283-2.2,1.75c-1.467,0.466-3.233,0.666-5.3,0.6
	c-2.066-0.033-3.834-0.333-5.301-0.9c-1.467-0.533-2.199-1.166-2.199-1.899C569.15,215.5,569.883,214.917,571.35,214.45z"/>
<path style="fill-rule:evenodd;clip-rule:evenodd;fill:#645622;" d="M609.7,228.25c0,0.733-0.733,1.333-2.2,1.8
	c-1.467,0.434-3.233,0.617-5.3,0.55c-2.067-0.066-3.833-0.383-5.3-0.949c-1.467-0.534-2.2-1.167-2.2-1.9c0-0.7,0.733-1.283,2.2-1.75
	c1.467-0.434,3.232-0.634,5.3-0.6c2.066,0.066,3.833,0.383,5.3,0.949C608.967,226.917,609.7,227.55,609.7,228.25z"/>
<path style="fill-rule:evenodd;clip-rule:evenodd;fill:#645622;" d="M489.05,235.6c2.067,0,3.851,0.25,5.351,0.75
	c1.467,0.5,2.199,1.117,2.199,1.851s-0.732,1.35-2.199,1.85c-1.5,0.533-3.284,0.8-5.351,0.8c-2.066,0-3.85-0.25-5.35-0.75
	c-1.467-0.5-2.2-1.116-2.2-1.85s0.733-1.35,2.2-1.85C485.2,235.866,486.983,235.6,489.05,235.6z"/>
<path style="fill-rule:evenodd;clip-rule:evenodd;fill:#645622;" d="M531.1,245.1c0,0.834-0.732,1.517-2.199,2.051
	c-1.467,0.566-3.25,0.85-5.351,0.85c-2.1-0.033-3.883-0.333-5.35-0.9c-1.467-0.566-2.2-1.267-2.2-2.1s0.733-1.533,2.2-2.1
	c1.5-0.567,3.283-0.834,5.35-0.801c2.067,0,3.851,0.301,5.351,0.9C530.367,243.566,531.1,244.267,531.1,245.1z"/>
<path style="fill-rule:evenodd;clip-rule:evenodd;fill:#645622;" d="M571.3,237.7c0,0.733-0.733,1.333-2.2,1.8
	c-1.467,0.5-3.232,0.717-5.3,0.65c-2.1-0.034-3.866-0.317-5.3-0.851c-1.467-0.533-2.2-1.167-2.2-1.899
	c0-0.733,0.733-1.334,2.2-1.801s3.233-0.683,5.3-0.649c2.067,0.033,3.833,0.316,5.3,0.85S571.3,236.967,571.3,237.7z"/>
<path style="fill-rule:evenodd;clip-rule:evenodd;fill:#645622;" d="M722.95,190.75c0,0.667-0.717,1.167-2.15,1.5
	c-1.433,0.333-3.167,0.4-5.2,0.2c-2-0.2-3.717-0.617-5.149-1.25c-1.434-0.634-2.15-1.283-2.15-1.95s0.717-1.184,2.15-1.55
	c1.399-0.334,3.116-0.4,5.149-0.2c2.033,0.233,3.768,0.667,5.2,1.3C722.233,189.434,722.95,190.083,722.95,190.75z"/>
<path style="fill-rule:evenodd;clip-rule:evenodd;fill:#645622;" d="M790.55,197.35c0,0.634-0.7,1.084-2.1,1.351
	c-1.4,0.233-3.083,0.217-5.05-0.05c-2-0.267-3.7-0.717-5.101-1.351c-1.399-0.666-2.1-1.316-2.1-1.95c0-0.666,0.7-1.133,2.1-1.399
	c1.434-0.267,3.134-0.25,5.101,0.05c1.967,0.267,3.649,0.733,5.05,1.4C789.85,196.066,790.55,196.717,790.55,197.35z"/>
<path style="fill-rule:evenodd;clip-rule:evenodd;fill:#645622;" d="M757.55,198.25c0,0.667-0.7,1.15-2.1,1.45
	c-1.434,0.267-3.15,0.283-5.15,0.05s-3.7-0.667-5.1-1.3c-1.434-0.601-2.15-1.233-2.15-1.9c0-0.666,0.717-1.149,2.15-1.45
	c1.399-0.333,3.1-0.383,5.1-0.149c2,0.267,3.717,0.717,5.15,1.35C756.85,196.934,757.55,197.583,757.55,198.25z"/>
<path style="fill-rule:evenodd;clip-rule:evenodd;fill:#645622;" d="M734.5,222.15c1.434,0.6,2.15,1.232,2.15,1.899
	s-0.717,1.184-2.15,1.55c-1.4,0.334-3.117,0.417-5.15,0.25c-2-0.166-3.717-0.55-5.149-1.149c-1.434-0.601-2.15-1.233-2.15-1.9
	s0.717-1.184,2.15-1.55c1.433-0.367,3.149-0.467,5.149-0.3C731.383,221.15,733.1,221.55,734.5,222.15z"/>
<path style="fill-rule:evenodd;clip-rule:evenodd;fill:#645622;" d="M670.55,226.15c0,0.699-0.733,1.25-2.2,1.649
	c-1.467,0.434-3.217,0.583-5.25,0.45c-2.033-0.1-3.783-0.434-5.25-1c-1.433-0.566-2.149-1.2-2.149-1.9
	c0-0.733,0.717-1.3,2.149-1.699c1.434-0.434,3.184-0.584,5.25-0.45c2.033,0.133,3.783,0.483,5.25,1.05
	C669.816,224.85,670.55,225.483,670.55,226.15z"/>
<path style="fill-rule:evenodd;clip-rule:evenodd;fill:#645622;" d="M687.6,200.6c0,0.667-0.717,1.184-2.149,1.551
	c-1.434,0.399-3.167,0.517-5.2,0.35c-2.066-0.134-3.816-0.5-5.25-1.1c-1.434-0.601-2.15-1.25-2.15-1.95s0.717-1.25,2.15-1.65
	c1.467-0.366,3.217-0.467,5.25-0.3s3.767,0.55,5.2,1.15C686.883,199.25,687.6,199.9,687.6,200.6z"/>
<path style="fill-rule:evenodd;clip-rule:evenodd;fill:#645622;" d="M709.8,220.2c0,0.666-0.716,1.183-2.149,1.55
	c-1.434,0.4-3.167,0.517-5.2,0.35c-2.033-0.133-3.767-0.5-5.2-1.1s-2.15-1.25-2.15-1.95c0-0.667,0.717-1.2,2.15-1.6
	c1.467-0.367,3.2-0.467,5.2-0.3c2,0.166,3.733,0.55,5.2,1.149C709.084,218.9,709.8,219.533,709.8,220.2z"/>
<path style="fill-rule:evenodd;clip-rule:evenodd;fill:#645622;" d="M825.3,208.7c0,0.633-0.683,1.05-2.05,1.25
	c-1.367,0.233-3.033,0.2-5-0.101c-1.934-0.267-3.6-0.733-5-1.399c-1.367-0.634-2.05-1.267-2.05-1.9c0-0.633,0.683-1.066,2.05-1.3
	c1.4-0.233,3.066-0.2,5,0.1c1.934,0.301,3.6,0.784,5,1.45C824.617,207.434,825.3,208.066,825.3,208.7z"/>
<path style="fill-rule:evenodd;clip-rule:evenodd;fill:#645622;" d="M778.15,218.35c0,0.667-0.7,1.15-2.101,1.45
	c-1.399,0.3-3.083,0.333-5.05,0.101c-2-0.233-3.7-0.65-5.1-1.25c-1.4-0.601-2.101-1.233-2.101-1.9s0.7-1.15,2.101-1.45
	c1.399-0.333,3.1-0.383,5.1-0.149c2,0.267,3.684,0.699,5.05,1.3C777.45,217.083,778.15,217.717,778.15,218.35z"/>
<path style="fill-rule:evenodd;clip-rule:evenodd;fill:#645622;" d="M701.9,237.75c0,0.667-0.717,1.2-2.15,1.6
	c-1.434,0.4-3.166,0.533-5.2,0.4c-2.033-0.1-3.783-0.434-5.25-1c-1.433-0.6-2.149-1.233-2.149-1.9c0-0.699,0.717-1.25,2.149-1.649
	c1.434-0.4,3.184-0.533,5.25-0.4c2.034,0.134,3.767,0.483,5.2,1.05C701.184,236.417,701.9,237.05,701.9,237.75z"/>
<path style="fill-rule:evenodd;clip-rule:evenodd;fill:#645622;" d="M640.85,213.45c0,0.7-0.717,1.267-2.149,1.7
	c-1.467,0.433-3.233,0.6-5.3,0.5c-2.066-0.134-3.816-0.483-5.25-1.051c-1.467-0.566-2.2-1.199-2.2-1.899s0.733-1.267,2.2-1.7
	s3.217-0.6,5.25-0.5c2.066,0.1,3.833,0.45,5.3,1.05C640.133,212.116,640.85,212.75,640.85,213.45z"/>
<path style="fill-rule:evenodd;clip-rule:evenodd;fill:#645622;" d="M815,227.85c1.4,0.634,2.1,1.267,2.1,1.9
	c0,0.633-0.699,1.083-2.1,1.35c-1.367,0.267-3.033,0.283-5,0.051c-1.967-0.233-3.633-0.667-5-1.301c-1.4-0.6-2.1-1.217-2.1-1.85
	c0-0.634,0.699-1.1,2.1-1.4c1.367-0.267,3.033-0.283,5-0.05C811.934,226.816,813.6,227.25,815,227.85z"/>
<path style="fill-rule:evenodd;clip-rule:evenodd;fill:#645622;" d="M648,240.4c0,0.966-0.733,1.767-2.2,2.399
	c-1.433,0.601-3.183,0.867-5.25,0.8c-2.066-0.1-3.833-0.533-5.3-1.3s-2.2-1.633-2.2-2.6s0.733-1.767,2.2-2.4
	c1.467-0.633,3.233-0.899,5.3-0.8c2.067,0.1,3.817,0.533,5.25,1.3C647.267,238.566,648,239.434,648,240.4z"/>
<path style="fill-rule:evenodd;clip-rule:evenodd;fill:#645622;" d="M622.7,191.65c2.033,0.1,3.783,0.449,5.25,1.05
	c1.467,0.566,2.2,1.2,2.2,1.899c0,0.7-0.733,1.267-2.2,1.7s-3.217,0.601-5.25,0.5c-2.067-0.133-3.833-0.483-5.3-1.05
	s-2.2-1.2-2.2-1.9c0-0.733,0.733-1.316,2.2-1.75C618.867,191.667,620.633,191.517,622.7,191.65z"/>
<path style="fill-rule:evenodd;clip-rule:evenodd;fill:#645622;" d="M670.55,190.25c0,0.7-0.733,1.25-2.2,1.65
	c-1.433,0.399-3.183,0.517-5.25,0.35c-2.066-0.134-3.816-0.5-5.25-1.1c-1.433-0.601-2.149-1.267-2.149-2
	c0-0.7,0.717-1.25,2.149-1.65c1.467-0.366,3.217-0.483,5.25-0.35c2.067,0.166,3.817,0.55,5.25,1.149
	C669.816,188.9,670.55,189.55,670.55,190.25z"/>
<path style="fill-rule:evenodd;clip-rule:evenodd;fill:#645622;" d="M853.2,85.45c-1.934-0.7-3.567-1.5-4.9-2.4
	c-1.366-0.9-2.05-1.65-2.05-2.25c0-0.633,0.684-0.917,2.05-0.85c1.367,0.066,3,0.45,4.9,1.15c1.899,0.7,3.533,1.517,4.899,2.45
	c1.334,0.934,2,1.684,2,2.25c0,0.6-0.666,0.867-2,0.8C856.767,86.5,855.133,86.117,853.2,85.45z"/>
<path style="fill-rule:evenodd;clip-rule:evenodd;fill:#645622;" d="M884.05,92.9c1.9,0.733,3.517,1.55,4.851,2.45
	c1.333,0.933,2,1.683,2,2.25c0,0.566-0.667,0.816-2,0.75c-1.334-0.1-2.95-0.517-4.851-1.25c-1.899-0.7-3.517-1.5-4.85-2.4
	c-1.333-0.9-2-1.65-2-2.25c0-0.567,0.667-0.817,2-0.75C880.533,91.8,882.15,92.2,884.05,92.9z"/>
<path style="fill-rule:evenodd;clip-rule:evenodd;fill:#645622;" d="M871.85,108.1c0,0.566-0.666,0.85-2,0.85
	c-1.333-0.034-2.949-0.367-4.85-1c-1.9-0.6-3.517-1.317-4.85-2.15c-1.367-0.867-2.051-1.6-2.051-2.2s0.684-0.883,2.051-0.85
	c1.333,0,2.949,0.316,4.85,0.95c1.9,0.633,3.517,1.383,4.85,2.25C871.184,106.816,871.85,107.533,871.85,108.1z"/>
<path style="fill-rule:evenodd;clip-rule:evenodd;fill:#645622;" d="M947.8,117.75c0,0.533-0.649,0.683-1.95,0.45
	c-1.266-0.233-2.816-0.784-4.649-1.65c-1.866-0.9-3.434-1.816-4.7-2.75c-1.3-1-1.95-1.767-1.95-2.3s0.65-0.684,1.95-0.45
	c1.334,0.233,2.9,0.767,4.7,1.6c1.833,0.867,3.384,1.8,4.649,2.8C947.15,116.45,947.8,117.217,947.8,117.75z"/>
<path style="fill-rule:evenodd;clip-rule:evenodd;fill:#645622;" d="M901.4,111.35c0,0.533-0.667,0.75-2,0.65
	c-1.301-0.1-2.9-0.483-4.801-1.15c-1.866-0.7-3.449-1.483-4.75-2.35c-1.333-0.9-2-1.633-2-2.2c0-0.566,0.667-0.816,2-0.75
	c1.334,0.1,2.917,0.5,4.75,1.2c1.867,0.7,3.467,1.5,4.801,2.4C900.733,110.05,901.4,110.783,901.4,111.35z"/>
<path style="fill-rule:evenodd;clip-rule:evenodd;fill:#645622;" d="M937.85,123.3c0,0.534-0.649,0.717-1.949,0.55
	c-1.268-0.2-2.816-0.684-4.65-1.45c-1.833-0.767-3.4-1.617-4.7-2.55c-1.3-0.934-1.95-1.667-1.95-2.2s0.65-0.717,1.95-0.55
	c1.333,0.167,2.9,0.65,4.7,1.45c1.8,0.767,3.35,1.617,4.65,2.55C937.2,122.033,937.85,122.767,937.85,123.3z"/>
<path style="fill-rule:evenodd;clip-rule:evenodd;fill:#645622;" d="M960.15,140.9c0,0.5-0.634,0.649-1.9,0.449
	c-1.267-0.199-2.8-0.699-4.6-1.5c-1.801-0.767-3.334-1.616-4.601-2.55c-1.3-0.899-1.95-1.616-1.95-2.149c0-0.5,0.65-0.65,1.95-0.45
	c1.267,0.2,2.8,0.7,4.601,1.5c1.8,0.8,3.333,1.666,4.6,2.6C959.517,139.7,960.15,140.4,960.15,140.9z"/>
<path style="fill-rule:evenodd;clip-rule:evenodd;fill:#645622;" d="M894.1,131.2c0,0.566-0.649,0.833-1.949,0.8
	c-1.301-0.066-2.9-0.417-4.801-1.05c-1.899-0.634-3.5-1.367-4.8-2.2c-1.333-0.833-2-1.533-2-2.1c0-0.567,0.667-0.834,2-0.801
	c1.333,0.034,2.934,0.367,4.8,1c1.867,0.634,3.467,1.384,4.801,2.25C893.45,129.934,894.1,130.634,894.1,131.2z"/>
<path style="fill-rule:evenodd;clip-rule:evenodd;fill:#645622;" d="M926.55,134.45c0,0.533-0.649,0.733-1.95,0.6
	c-1.3-0.1-2.866-0.5-4.699-1.2c-1.867-0.699-3.45-1.483-4.75-2.35c-1.301-0.9-1.95-1.616-1.95-2.15c0-0.533,0.649-0.75,1.95-0.649
	c1.3,0.1,2.883,0.5,4.75,1.2c1.866,0.733,3.434,1.533,4.699,2.399C925.9,133.2,926.55,133.917,926.55,134.45z"/>
<path style="fill-rule:evenodd;clip-rule:evenodd;fill:#645622;" d="M934.45,149.45c1.267,0.1,2.816,0.5,4.649,1.2
	c1.801,0.699,3.351,1.483,4.65,2.35c1.267,0.866,1.9,1.566,1.9,2.1c0,0.5-0.634,0.7-1.9,0.601c-1.3-0.134-2.85-0.55-4.65-1.25
	c-1.833-0.667-3.383-1.434-4.649-2.3c-1.3-0.867-1.95-1.567-1.95-2.101S933.15,149.316,934.45,149.45z"/>
<path style="fill-rule:evenodd;clip-rule:evenodd;fill:#645622;" d="M848.8,115.4c0,0.6-0.683,0.917-2.05,0.95
	c-1.333,0.033-2.967-0.217-4.9-0.75c-1.933-0.534-3.566-1.184-4.899-1.95c-1.366-0.8-2.05-1.517-2.05-2.15
	c0-0.6,0.684-0.917,2.05-0.95c1.366-0.066,3,0.167,4.899,0.7c1.934,0.566,3.567,1.25,4.9,2.05
	C848.117,114.1,848.8,114.8,848.8,115.4z"/>
<path style="fill-rule:evenodd;clip-rule:evenodd;fill:#645622;" d="M907.6,160.8c0,0.533-0.649,0.8-1.949,0.8
	c-1.301,0-2.9-0.283-4.801-0.85c-1.866-0.566-3.467-1.25-4.8-2.05c-1.3-0.8-1.95-1.483-1.95-2.05c0-0.567,0.65-0.851,1.95-0.851
	c1.367,0,2.967,0.3,4.8,0.9c1.867,0.566,3.467,1.25,4.801,2.05C906.95,159.55,907.6,160.233,907.6,160.8z"/>
<path style="fill-rule:evenodd;clip-rule:evenodd;fill:#645622;" d="M881.05,141.75c1.9,0.566,3.517,1.267,4.851,2.1
	c1.333,0.801,2,1.483,2,2.051c0,0.566-0.667,0.85-2,0.85c-1.334,0.033-2.95-0.233-4.851-0.8c-1.899-0.601-3.517-1.283-4.85-2.05
	c-1.333-0.801-2-1.5-2-2.101c0-0.566,0.667-0.866,2-0.899C877.566,140.9,879.184,141.184,881.05,141.75z"/>
<path style="fill-rule:evenodd;clip-rule:evenodd;fill:#645622;" d="M932.45,161.4c0,0.533-0.65,0.767-1.95,0.699
	c-1.267-0.066-2.816-0.416-4.65-1.05c-1.833-0.633-3.399-1.366-4.699-2.2c-1.301-0.8-1.95-1.483-1.95-2.05
	c0-0.533,0.649-0.767,1.95-0.7c1.333,0.067,2.899,0.417,4.699,1.051c1.801,0.633,3.351,1.366,4.65,2.199
	C931.8,160.184,932.45,160.866,932.45,161.4z"/>
<path style="fill-rule:evenodd;clip-rule:evenodd;fill:#645622;" d="M855.65,207.75c-1.367,0.167-3,0.083-4.9-0.25
	c-1.934-0.333-3.583-0.85-4.95-1.55c-1.366-0.667-2.05-1.3-2.05-1.9c0-0.6,0.684-1,2.05-1.2c1.4-0.166,3.05-0.066,4.95,0.301
	c1.9,0.366,3.533,0.883,4.9,1.55c1.333,0.666,2,1.3,2,1.899C857.65,207.167,856.983,207.55,855.65,207.75z"/>
<path style="fill-rule:evenodd;clip-rule:evenodd;fill:#645622;" d="M895.7,204.5c-1.866-0.434-3.467-1-4.8-1.7
	c-1.334-0.7-2-1.333-2-1.899c0-0.567,0.666-0.9,2-1c1.333-0.101,2.934,0.066,4.8,0.5c1.866,0.433,3.467,1,4.8,1.699
	c1.3,0.7,1.95,1.334,1.95,1.9s-0.65,0.9-1.95,1S897.6,204.934,895.7,204.5z"/>
<path style="fill-rule:evenodd;clip-rule:evenodd;fill:#645622;" d="M854.95,155.25c-1.934-0.5-3.567-1.134-4.9-1.9
	c-1.366-0.767-2.033-1.449-2-2.05c0-0.6,0.684-0.934,2.05-1c1.367-0.1,3,0.101,4.9,0.601s3.533,1.149,4.9,1.949
	c1.333,0.767,2,1.45,2,2.051c0,0.6-0.684,0.933-2.051,1C858.517,155.934,856.883,155.717,854.95,155.25z"/>
<path style="fill-rule:evenodd;clip-rule:evenodd;fill:#645622;" d="M944,208.95c0.066,0.6-0.533,1-1.8,1.2
	c-1.3,0.199-2.884,0.133-4.75-0.2c-1.866-0.334-3.483-0.834-4.851-1.5c-1.399-0.7-2.133-1.367-2.199-2
	c-0.101-0.634,0.482-1.05,1.75-1.25c1.3-0.167,2.883-0.084,4.75,0.25c1.899,0.366,3.533,0.883,4.899,1.55
	C943.2,207.667,943.934,208.316,944,208.95z"/>
<path style="fill-rule:evenodd;clip-rule:evenodd;fill:#645622;" d="M896.1,184.85c-1.333,0.067-2.933-0.133-4.8-0.6
	c-1.899-0.467-3.517-1.066-4.85-1.8s-2-1.384-2-1.95c0-0.6,0.667-0.934,2-1c1.366-0.066,2.983,0.15,4.85,0.65
	c1.867,0.466,3.467,1.083,4.8,1.85c1.301,0.733,1.95,1.384,1.95,1.95S897.4,184.816,896.1,184.85z"/>
<path style="fill-rule:evenodd;clip-rule:evenodd;fill:#645622;" d="M853.4,177.2c-1.367-0.733-2.051-1.4-2.051-2
	c0-0.601,0.684-0.95,2.051-1.05c1.333-0.134,2.949,0.017,4.85,0.449c1.934,0.434,3.566,1.017,4.9,1.75c1.366,0.733,2.033,1.4,2,2
	c0.033,0.567-0.634,0.917-2,1.051c-1.334,0.1-2.967-0.067-4.9-0.5C856.35,178.467,854.733,177.9,853.4,177.2z"/>
<path style="fill-rule:evenodd;clip-rule:evenodd;fill:#645622;" d="M957.85,203.5c0,0.5-0.633,0.733-1.899,0.7
	s-2.8-0.334-4.601-0.9c-1.8-0.533-3.333-1.166-4.6-1.899c-1.3-0.767-1.95-1.4-1.95-1.9c0-0.533,0.65-0.783,1.95-0.75
	c1.267,0.033,2.8,0.316,4.6,0.85c1.834,0.567,3.367,1.233,4.601,2C957.217,202.333,957.85,202.967,957.85,203.5z"/>
<path style="fill-rule:evenodd;clip-rule:evenodd;fill:#645622;" d="M933.85,181.35c0,0.534-0.649,0.784-1.949,0.75
	c-1.268-0.033-2.816-0.333-4.65-0.899c-1.833-0.566-3.4-1.233-4.7-2c-1.3-0.8-1.95-1.467-1.95-2s0.65-0.8,1.95-0.8
	c1.3,0.033,2.867,0.333,4.7,0.899c1.8,0.566,3.35,1.25,4.65,2.05C933.2,180.15,933.85,180.816,933.85,181.35z"/>
<path style="fill-rule:evenodd;clip-rule:evenodd;fill:#645622;" d="M969.2,182.9c0,0.5-0.634,0.683-1.9,0.55
	c-1.233-0.101-2.75-0.483-4.55-1.15c-1.767-0.633-3.3-1.366-4.6-2.2c-1.268-0.833-1.9-1.5-1.9-2s0.633-0.699,1.9-0.6
	c1.3,0.134,2.833,0.533,4.6,1.2c1.767,0.633,3.283,1.383,4.55,2.25C968.566,181.783,969.2,182.434,969.2,182.9z"/>
<path style="fill-rule:evenodd;clip-rule:evenodd;fill:#645622;" d="M976.55,159.75c0.034,0.5-0.583,0.684-1.85,0.55
	c-1.267-0.166-2.8-0.583-4.601-1.25c-1.833-0.666-3.399-1.416-4.699-2.25c-1.301-0.833-1.967-1.5-2-2s0.583-0.684,1.85-0.55
	s2.816,0.55,4.65,1.25c1.8,0.667,3.35,1.434,4.649,2.3C975.85,158.634,976.517,159.283,976.55,159.75z"/>
<path style="fill-rule:evenodd;clip-rule:evenodd;fill:#645622;" d="M922.65,108.45c0,0.566-0.65,0.75-1.95,0.55
	c-1.333-0.167-2.917-0.65-4.75-1.45c-1.866-0.767-3.45-1.617-4.75-2.55c-1.333-0.967-2-1.717-2-2.25c0-0.567,0.667-0.767,2-0.6
	s2.917,0.65,4.75,1.45c1.866,0.8,3.45,1.667,4.75,2.6C922,107.167,922.65,107.917,922.65,108.45z"/>
<path style="fill-rule:evenodd;clip-rule:evenodd;fill:#645622;" d="M890,219.8c0,0.566-0.666,0.934-2,1.101
	c-1.333,0.166-2.934,0.066-4.8-0.301c-1.9-0.366-3.517-0.866-4.851-1.5c-1.333-0.633-2-1.25-2-1.85c0-0.566,0.667-0.934,2-1.1
	c1.367-0.134,2.984-0.034,4.851,0.3c1.866,0.333,3.467,0.85,4.8,1.55C889.334,218.633,890,219.233,890,219.8z"/>
</svg>
