<?xml version="1.0" encoding="iso-8859-1"?>
<!-- Generator: Adobe Illustrator 15.1.0, SVG Export Plug-In . SVG Version: 6.00 Build 0)  -->
<!DOCTYPE svg PUBLIC "-//W3C//DTD SVG 1.1//EN" "http://www.w3.org/Graphics/SVG/1.1/DTD/svg11.dtd">
<svg version="1.1" id="FlashAICB" xmlns="http://www.w3.org/2000/svg" xmlns:xlink="http://www.w3.org/1999/xlink" x="0px" y="0px"
	 width="63.85px" height="177.15px" viewBox="0 0 63.85 177.15" style="enable-background:new 0 0 63.85 177.15;"
	 xml:space="preserve">
<g>
	<g>
		<g>
			<path style="fill-rule:evenodd;clip-rule:evenodd;fill:#613A22;" d="M42.7,11.6c8.434-1.4,12.917-2.133,13.45-2.2
				c3.467-0.367,5.333,0.033,5.6,1.2c1.934,8.767,2.533,30.867,1.8,66.3c-1.233,39.633-2.017,65.317-2.35,77.05
				c-0.333,12.399-4.517,19.833-12.55,22.3c-5.733,1.733-14.301,0.95-25.7-2.35c-4-1.134-8.033-4.184-12.1-9.15
				c-4.333-5.267-6.483-10.217-6.45-14.85c0.166-15.634-0.483-38.5-1.95-68.601C1.15,55.367,0.934,32.517,1.8,12.75
				C13.033,14.65,26.667,14.267,42.7,11.6z"/>
			<path style="fill-rule:evenodd;clip-rule:evenodd;fill:#55351E;" d="M59.1,20.75c-0.633,1.433-0.883,2.533-0.75,3.3
				c-0.699,0.4-1.3,1.85-1.8,4.35c-0.533,2.667-1.083,4.267-1.649,4.8c-0.134,0.167-0.483-1.2-1.051-4.1
				c-0.566-2.867-0.933-4.233-1.1-4.1c-0.566-0.7-1.4-0.85-2.5-0.45l-1.45,0.8c-0.966-0.633-2.733-1.05-5.3-1.25
				c-1.6-0.133-3.233,0.15-4.9,0.85L36.55,26v0.05c-0.767,0.133-1.267,0.583-1.5,1.35c-0.366,1.233-0.716,2.067-1.05,2.5
				c-0.267,0.367-1.2,1.067-2.8,2.1c-1.333,0.867-2.083,1.617-2.25,2.25c-0.134-1.067-0.15-1.933-0.05-2.6
				c0.399-2.233,0.166-4.417-0.7-6.55c-0.333-0.8-0.634-1.567-0.9-2.3c-0.2-0.5-0.55-1.05-1.05-1.65c-0.467-0.6-1.366-0.867-2.7-0.8
				l-1.8,0.25l-5.15-0.4c-1.8-0.7-3.2-0.917-4.2-0.65c-2.167,0.567-5.25,1.217-9.25,1.95c-0.233-1.6-0.317-3.517-0.25-5.75
				c0.066-2.3,0-4.233-0.2-5.8C6.867,9.583,15.767,8.533,29.4,6.8C41.533,5.433,48.767,5.033,51.1,5.6
				c5.234,1.267,8.684,3.383,10.351,6.35c0.833,1.466,1.25,3.566,1.25,6.3c0,0.533-0.517,0.95-1.55,1.25
				C60.017,19.833,59.334,20.25,59.1,20.75z"/>
			<path style="fill-rule:evenodd;clip-rule:evenodd;fill:#55351E;" d="M12.3,39.75c0.767,1.267,1.017,2.6,0.75,4
				c-0.3,1.933-0.3,3.267,0,4c0.134,0.267,0.45,0.917,0.95,1.95c0.533,1.066,1.15,1.917,1.85,2.55c0.767,0.733,1.5,2.15,2.2,4.25
				c0.567,1.733,0.967,3.433,1.2,5.1c0.134,0.9,0.684,2.117,1.65,3.65c0.966,1.533,1.483,2.7,1.55,3.5
				c0.1,1.067-0.017,1.933-0.35,2.6c-0.167,0.267-0.683,0.917-1.55,1.95c-0.5,0.633-0.95,1.617-1.35,2.95
				c-0.5,1.9-0.8,2.95-0.9,3.15l-3,6.95c-0.233,1.566-0.55,3.333-0.95,5.3c-0.167,1.399-0.317,2.333-0.45,2.8
				c-0.134,0.6-0.601,1.533-1.4,2.8c-0.9,1.366-1.417,2.116-1.55,2.25c-0.033,0-0.65,0.217-1.85,0.65c-0.833,0.3-1.433,0.8-1.8,1.5
				l0.5-1.75l0.95-1.45c0.733-1.066,1.417-1.834,2.05-2.3c0.634-0.434,0.917-1.267,0.851-2.5c-0.034-0.634-0.134-1.217-0.3-1.75
				L12.3,85.8l-1.5,0.55c-0.733,0.233-1.783,0.517-3.149,0.85c-1.367,0.3-2.2,0.45-2.5,0.45l-1.05-0.1L4.05,85.4
				c0.7-0.133,1.384-0.35,2.05-0.65c1.034-0.533,1.65-0.883,1.85-1.05c0.233-0.167,0.5-0.45,0.8-0.85c0.1-0.133,0.45-0.467,1.05-1
				c0.467-0.4,0.8-0.867,1-1.4c0.367-0.867,0.733-2.184,1.101-3.95l0.55-1.1c0.434-0.8,0.883-1.417,1.35-1.85
				c0.667-0.6,1.117-1.066,1.351-1.4c0.3-0.5,0.533-1.183,0.7-2.05c0.267-1.233,0.15-3.533-0.35-6.9l-1.3-5.05l-3.2-5.6
				c-0.033-3.1-0.283-4.35-0.75-3.75c-0.967,1.3-2.133,1.467-3.5,0.5c-0.934-0.667-1.866-1.767-2.8-3.3v-0.5
				c0.667,0.6,1.267,0.9,1.8,0.9c1.033,0,2.033-0.783,3-2.35C9.35,42.983,10.533,41.55,12.3,39.75z"/>
			<path style="fill-rule:evenodd;clip-rule:evenodd;fill:#55351E;" d="M55.7,98.45c-0.4-5.634-0.3-7.684,0.3-6.15
				c0.634,1.533,1,4.334,1.1,8.4c0.101,4.066-0.149,6.533-0.75,7.399c-0.566,0.801-1.266,1.217-2.1,1.25
				c-0.366,0.034-1.533-0.1-3.5-0.399c-1.033-0.134-1.8-0.2-2.3-0.2c-0.434,0-1.116-0.066-2.05-0.2c-1.134-0.2-1.783-0.85-1.95-1.95
				c-0.066-0.533-0.033-1.066,0.1-1.6l1.851-1.3l1.25-3.05l3.699,0.85L55.7,98.45z"/>
			<path style="fill-rule:evenodd;clip-rule:evenodd;fill:#55351E;" d="M50.2,60.55l0.85,0.25c0.7,0.133,1.434,0.067,2.2-0.2
				c0.7-0.233,1.334-1.217,1.9-2.95c0.633-1.933,1.133-3.066,1.5-3.4l3.8,4.5l-2.5-1.3c-0.3,2-0.967,3.466-2,4.4
				c-0.667,0.6-1.233,0.967-1.7,1.1c-0.533,0.1-0.983,0.167-1.35,0.2c-0.834,0.267-1.5,0.434-2,0.5
				c-0.934,0.133-1.75-0.083-2.45-0.65s-1.267-1.767-1.7-3.6c-0.2-0.9-0.35-1.75-0.45-2.55L50.2,60.55z"/>
			<path style="fill-rule:evenodd;clip-rule:evenodd;fill:#55351E;" d="M20.9,93.2l2.25,8.2l0.35,6.8l-1.95,5.899
				c-1.3,2.4-2.166,4.517-2.6,6.351c-0.3,1.133-0.767,1.916-1.4,2.35l-0.899,0.351c-1.3-0.301-2.834-0.75-4.601-1.351
				c-1.133-0.434-1.833-0.7-2.1-0.8c-0.267-0.066-0.967-0.1-2.1-0.1c-0.966,0-1.6,0.55-1.9,1.649c-0.367,1.2-0.833,1.867-1.4,2H4.4
				v-4L5.55,120l3.601-4.1h4.899c0.934,0,1.584-0.45,1.95-1.351c0.2-0.533,0.517-1.45,0.95-2.75c1.1-1.967,1.65-4.684,1.65-8.149
				c0-0.733-0.817-1.4-2.45-2l-2.45-0.7l1.45-0.2c1.033-0.167,1.75-0.25,2.149-0.25C17.934,100.5,19.134,98.066,20.9,93.2z"/>
			<path style="fill-rule:evenodd;clip-rule:evenodd;fill:#55351E;" d="M27.9,84.1l0.35-0.1l1.65-0.75l2.149,1.5l2.9-0.75
				l0.649-0.95c0.434-0.733,0.7-1.417,0.801-2.05c-0.167,2.667-0.417,4.517-0.75,5.55c-0.2,0.633-0.851,1.2-1.95,1.7l-1.65,0.55
				H29.65c-0.601,0-1.2-0.533-1.8-1.6L27.9,84.1z"/>
			<path style="fill-rule:evenodd;clip-rule:evenodd;fill:#55351E;" d="M41.45,128.15l1,4.55v8.149l-1.351,8.2l-2.899,6.8
				l-3.95-1.35c-0.633,2.7-1.166,4.5-1.6,5.4c-0.301,0.633-1.017,1.199-2.15,1.699c-1,0.4-1.816,0.601-2.45,0.601
				c-0.6,0-1.5-0.283-2.7-0.851c-1.367-0.633-2.2-1.267-2.5-1.899c-0.267-0.566-0.133-0.733,0.4-0.5c0.267,0.1,0.566,0.267,0.9,0.5
				l2.149-1.2c1.567-0.8,2.7-1.3,3.4-1.5s0.85-1.233,0.45-3.1c-0.2-0.967-0.467-1.9-0.8-2.801l1-1.8l4.9-1.85l0.35-2.05
				c0.2-1.634,0.301-3.217,0.301-4.75c-0.867,0.6-1.851,0.899-2.95,0.899c-1.333,0-2.634-0.3-3.9-0.899
				c-0.399-0.2-0.899-1.084-1.5-2.65c-0.3-0.8-0.566-1.583-0.8-2.35l2.3,0.25c1.834,0.133,3.567,0.199,5.2,0.199
				c1.634,0,3.334-1.283,5.1-3.85C40.217,130.733,40.917,129.45,41.45,128.15z"/>
			<path style="fill-rule:evenodd;clip-rule:evenodd;fill:#55351E;" d="M22.6,50.25c-0.333,0.367-0.517,1.05-0.55,2.05
				c-0.033,1.034-0.1,1.6-0.2,1.7c-0.267,0.267-0.65,0.283-1.15,0.05L20.5,50l3.15-6.05c0.5-0.8,0.7-2.284,0.6-4.45l1.5,3.75
				l-0.9,3.95C23.95,48.6,23.2,49.617,22.6,50.25z"/>
			<path style="fill-rule:evenodd;clip-rule:evenodd;fill:#55351E;" d="M48.75,157.4l4.8-0.301c0.934,0,2.2,1.65,3.8,4.95l0.801-8.6
				c0.699,3.467,1.05,6.333,1.05,8.6c0,1.4-0.134,2.417-0.4,3.05c-0.399,0.733-0.75,1.45-1.05,2.15
				c-0.333,0.866-0.75,1.517-1.25,1.95c-0.566,0.333-0.95,0.6-1.15,0.8c-0.399,0.434-1.1,0.917-2.1,1.45
				c-1.166,0.6-2.066,0.833-2.7,0.7c-0.566-0.134-1.366-0.834-2.399-2.101l-1.4-1.899h2.4l3.399-1.5l1-1.45
				c0.667-1.134,1-2.184,1-3.15C54.55,161.417,52.617,159.866,48.75,157.4z"/>
			<path style="fill-rule:evenodd;clip-rule:evenodd;fill:#55351E;" d="M13.95,136.9c1.167-0.967,1.866-1.45,2.1-1.45
				c0.4,0,0.65,2.6,0.75,7.8c0,2.366-0.25,4.15-0.75,5.35c-0.366,0.9-0.966,2.067-1.8,3.5c-0.866,1.467-1.583,2.551-2.15,3.25
				c-0.534,0.667-1.583,0.567-3.15-0.3L8.8,154.7l-0.1-0.15l-1.4-3.899l3.9-0.301l3.55-6.35c-0.633-1.667-1.2-2.5-1.7-2.5
				c-0.3,0-1.149-0.533-2.55-1.6L8.55,138.3h3.75L13.95,136.9z"/>
			<g>
				<path style="fill-rule:evenodd;clip-rule:evenodd;fill:#482D1D;" d="M17.95,70.65c0,1.767-0.316,3.083-0.95,3.95
					c-0.2,0.3-0.767,1.833-1.7,4.6c-0.866,2.566-1.616,4.15-2.25,4.75c-0.767,1.066-1.333,1.8-1.7,2.2
					c-0.567,0.7-1.5,1.117-2.8,1.25c-1.3,0.1-2.783,0.033-4.45-0.2v-1c0.867-0.1,1.667-0.15,2.4-0.15c1.5,0,3.434-1.683,5.8-5.05
					c0.334-0.433,0.884-1.183,1.65-2.25c0.633-1.033,1.083-2.05,1.35-3.05C15.8,73.733,16.684,72.05,17.95,70.65z"/>
				<path style="fill-rule:evenodd;clip-rule:evenodd;fill:#482D1D;" d="M3.95,46.4h1.8c1.233,0,2.417-0.35,3.55-1.05l0.9-0.75
					c0.667-0.567,1.116-1.017,1.35-1.35c0.233,0.7,0.167,1.317-0.2,1.85c-0.9,1.333-1.833,2.4-2.8,3.2
					c-0.8,0.633-2.333,0.034-4.6-1.8V46.4z"/>
			</g>
			<path style="fill-rule:evenodd;clip-rule:evenodd;fill:#55351E;" d="M31.2,103.85c1.1,0.567,1.75,1.851,1.95,3.851
				c0.166,1.934-0.15,3.3-0.95,4.1c-0.733,0.733-1.65,0.601-2.75-0.399c-1.033-0.9-1.816-2.15-2.35-3.75
				c-0.534-1.534-0.35-2.733,0.55-3.601C28.55,103.184,29.733,103.116,31.2,103.85z"/>
			<path style="fill-rule:evenodd;clip-rule:evenodd;fill:#55351E;" d="M36.2,53.25c0.899-0.2,1.483,0.483,1.75,2.05
				c0.3,1.534,0.134,2.75-0.5,3.65c-0.566,0.8-1.134,0.933-1.7,0.4c-0.366-0.333-0.934-1.2-1.7-2.6
				c-0.533-0.967-0.483-1.783,0.15-2.45C34.667,53.833,35.334,53.483,36.2,53.25z"/>
			<path style="fill-rule:evenodd;clip-rule:evenodd;fill:#55351E;" d="M10.8,28.7c0.867,0.833,1.3,1.65,1.3,2.45
				c0,0.767-0.333,1.267-1,1.5c-0.534,0.167-1.2-0.066-2-0.7L8,30.9l0.65-1.85C9.217,28.017,9.934,27.9,10.8,28.7z"/>
			<path style="fill-rule:evenodd;clip-rule:evenodd;fill:#55351E;" d="M32.15,124.3c1.467-0.2,2.283,0.783,2.449,2.95
				c0.134,2.1-0.366,3.616-1.5,4.55c-1,0.8-1.816,0.917-2.449,0.351c-0.5-0.5-0.917-1.5-1.25-3c-0.3-1.301-0.184-2.4,0.35-3.301
				C30.283,124.983,31.084,124.467,32.15,124.3z"/>
			<path style="fill-rule:evenodd;clip-rule:evenodd;fill:#55351E;" d="M45.25,68.4c1.566,0,2.384,1.217,2.45,3.65
				c0.066,2.367-0.366,3.7-1.3,4c-1.634,0.6-3.184-0.117-4.65-2.15c-0.767-1.1-0.767-2.283,0-3.55
				C42.55,69.05,43.717,68.4,45.25,68.4z"/>
			<path style="fill-rule:evenodd;clip-rule:evenodd;fill:#5B554D;" d="M30.7,102.3c1.1,0.566,1.75,1.851,1.95,3.851
				c0.166,1.966-0.15,3.35-0.95,4.149c-0.733,0.733-1.65,0.601-2.75-0.399c-1.033-0.934-1.816-2.2-2.35-3.801
				c-0.534-1.5-0.35-2.683,0.55-3.55C28.05,101.684,29.233,101.6,30.7,102.3z"/>
			<path style="fill-rule:evenodd;clip-rule:evenodd;fill:#5B554D;" d="M35.6,51.5c0.9-0.233,1.484,0.45,1.75,2.05
				c0.301,1.534,0.117,2.75-0.55,3.65c-0.533,0.8-1.1,0.933-1.7,0.4C34.767,57.267,34.2,56.4,33.4,55
				c-0.533-0.967-0.483-1.783,0.149-2.45C34.017,52.05,34.7,51.7,35.6,51.5z"/>
			<path style="fill-rule:evenodd;clip-rule:evenodd;fill:#5B554D;" d="M10.2,26.95c0.866,0.833,1.3,1.65,1.3,2.45
				c0,0.767-0.333,1.267-1,1.5c-0.533,0.167-1.2-0.083-2-0.75L7.4,29.1L8,27.3C8.6,26.267,9.333,26.15,10.2,26.95z"/>
			<path style="fill-rule:evenodd;clip-rule:evenodd;fill:#5B554D;" d="M31.55,122.55c1.467-0.2,2.284,0.783,2.45,2.95
				c0.134,2.066-0.366,3.583-1.5,4.55c-1,0.8-1.816,0.917-2.45,0.351c-0.5-0.467-0.933-1.467-1.3-3c-0.3-1.301-0.167-2.4,0.4-3.301
				C29.684,123.233,30.483,122.717,31.55,122.55z"/>
			<path style="fill-rule:evenodd;clip-rule:evenodd;fill:#5B554D;" d="M41,71.7c-0.8-1.1-0.8-2.284,0-3.55
				c0.767-1.3,1.917-1.95,3.45-1.95c1.6,0,2.417,1.216,2.45,3.65c0.066,2.367-0.367,3.717-1.301,4.05C44,74.5,42.467,73.767,41,71.7
				z"/>
			<path style="fill-rule:evenodd;clip-rule:evenodd;fill:#514C45;" d="M31,104.5c0.934,0.4,1.483,1.35,1.65,2.85
				c0.166,1.434-0.101,2.45-0.801,3.051c-0.633,0.533-1.399,0.433-2.3-0.301c-0.866-0.666-1.533-1.6-2-2.8
				c-0.433-1.133-0.267-2.017,0.5-2.649C28.816,104.017,29.8,103.967,31,104.5z"/>
			<path style="fill-rule:evenodd;clip-rule:evenodd;fill:#514C45;" d="M35.6,52.75c0.9-0.167,1.484,0.383,1.75,1.65
				c0.268,1.233,0.084,2.233-0.55,3c-0.533,0.633-1.1,0.733-1.7,0.3c-0.333-0.267-0.899-0.967-1.699-2.1
				c-0.533-0.8-0.483-1.467,0.149-2C34.017,53.2,34.7,52.917,35.6,52.75z"/>
			<path style="fill-rule:evenodd;clip-rule:evenodd;fill:#514C45;" d="M10.4,29.25c0.767,0.433,1.149,0.883,1.149,1.35
				c0,0.433-0.3,0.717-0.899,0.85c-0.434,0.1-1.017-0.034-1.75-0.4l-0.95-0.6l0.55-1C9.033,28.85,9.667,28.783,10.4,29.25z"/>
			<path style="fill-rule:evenodd;clip-rule:evenodd;fill:#514C45;" d="M32,124.75c1.233-0.134,1.9,0.583,2,2.15
				c0.134,1.533-0.283,2.633-1.25,3.3c-0.833,0.6-1.5,0.684-2,0.25c-0.4-0.334-0.767-1.05-1.1-2.15
				c-0.233-0.967-0.117-1.783,0.35-2.45C30.434,125.217,31.1,124.85,32,124.75z"/>
			<path style="fill-rule:evenodd;clip-rule:evenodd;fill:#514C45;" d="M44.9,68.8c1.3,0,1.983,0.833,2.05,2.5
				c0.033,1.633-0.333,2.567-1.101,2.8c-1.366,0.4-2.633-0.1-3.8-1.5c-0.633-0.767-0.633-1.583,0-2.45
				C42.684,69.25,43.634,68.8,44.9,68.8z"/>
			<path style="fill-rule:evenodd;clip-rule:evenodd;fill:#6D4126;" d="M7.05,37.4c0.7-0.533,1.2-0.8,1.5-0.8
				c0.534,0,1.2,0.133,2,0.4c0.8,0.267,1,0.4,0.601,0.4c-0.3,0-0.733,0.184-1.3,0.55l-0.75,0.5c-0.867,1.066-1.617,1.867-2.25,2.4
				c-0.367,0.3-0.733,0.417-1.1,0.35c-0.467-0.133-0.783-0.167-0.95-0.1C4.5,41.2,4.233,41.5,4,42v-3.25
				c0.566-0.367,1.267-0.55,2.1-0.55L7.05,37.4z"/>
			<path style="fill-rule:evenodd;clip-rule:evenodd;fill:#6D4126;" d="M12.45,71.55c0.566,0,1.3,0.184,2.2,0.55
				c0.899,0.333,1.116,0.5,0.649,0.5c-0.399,0-0.933,0.35-1.6,1.05l-0.85,1.05l-1.9,0.8h-1.5c-0.566,0-1,0.133-1.3,0.4
				c-0.567,0.467-1,0.783-1.3,0.95c-0.6,0.3-0.833,0.816-0.7,1.55c0.233,1.133,0.333,1.767,0.3,1.9c-0.066,0.567,0.1,1.1,0.5,1.6
				c0.2,0.233,0.417,0.417,0.65,0.55c-1.4,0-2.35,0.083-2.85,0.25c-0.1,0.033-0.333,0.233-0.7,0.6v-2.7
				c0.4-1.033,0.767-2.2,1.101-3.5l1.5-2.9l2.05-1.6L12.45,71.55z"/>
			<path style="fill-rule:evenodd;clip-rule:evenodd;fill:#6D4126;" d="M52,89.25c1.134,0,1.867,0.384,2.2,1.15
				c0.333,0.699,0.217,1.183-0.351,1.449c-0.333,0.167-0.716,0.733-1.149,1.7c-0.601,1.233-1.15,2.134-1.65,2.7
				c-0.633,0.7-1.2,1-1.7,0.9c-0.6-0.301-1.166-0.45-1.699-0.45c-0.634,0-1.301,0.583-2,1.75l-0.801,1.75V95.35l0.9-0.85
				c0.8-0.733,1.65-1.467,2.55-2.2c0.5-0.399,1.25-1.133,2.25-2.2C51.084,89.533,51.566,89.25,52,89.25z"/>
			<path style="fill-rule:evenodd;clip-rule:evenodd;fill:#6D4126;" d="M27.9,77.55l0.8-0.1c1.6,0,3.116,0.55,4.55,1.65
				c0.733,0.566,1.3,1.117,1.7,1.65l-1.45,0.5L30.65,81l-1,0.75c-0.4,0.3-0.634,0.233-0.7-0.2c-0.033-0.233-0.033-0.5,0-0.8
				L27.9,80.5V77.55z"/>
			<path style="fill-rule:evenodd;clip-rule:evenodd;fill:#6D4126;" d="M4.3,109.8l0.25-0.25l3.3-0.899l1.25-2.15
				c0.933-1.667,1.6-3.066,2-4.2l3.9,2.25l-3.6,3.2c-0.867,1.8-1.517,3.316-1.95,4.55c-0.267,0.733-0.65,1.033-1.15,0.9
				c-0.633-0.3-1.116-0.45-1.45-0.45c-0.8,0-1.633,0.3-2.5,0.9L4.3,109.8z"/>
			<path style="fill-rule:evenodd;clip-rule:evenodd;fill:#6D4126;" d="M15.225,94.85l1.075-3l1.95-0.449
				c-0.434,0.3-0.9,0.699-1.4,1.199C16.098,93.353,15.556,94.103,15.225,94.85z"/>
			<path style="fill-rule:evenodd;clip-rule:evenodd;fill:#6D4126;" d="M20.45,39.95c0.5,0,0.767-0.034,0.8-0.1
				c0.1-0.3,0.2-0.5,0.3-0.6c1.5,0.333,2.101,0.733,1.8,1.2c-0.133,0.2-0.417,0.466-0.85,0.8c-0.5,0.367-0.967,0.8-1.4,1.3
				l-0.7,0.75L20.45,39.95z"/>
			<path style="fill-rule:evenodd;clip-rule:evenodd;fill:#6D4126;" d="M6,145.75l-0.95-6.15c3.2,1.034,5.05,1.551,5.55,1.551
				c0.767,0,1.017,0.699,0.75,2.1c-1,1.2-1.8,1.917-2.4,2.15C8.583,145.533,7.6,145.65,6,145.75z"/>
			<path style="fill-rule:evenodd;clip-rule:evenodd;fill:#6D4126;" d="M12.9,131.2c0,2.6-0.45,4.017-1.351,4.25
				c-0.866,0.233-1.55,0.35-2.05,0.35c-0.3,0-0.616-0.399-0.95-1.2c-0.133-0.433-0.25-0.85-0.35-1.25l1.9-1.05
				C11.5,131.566,12.434,131.2,12.9,131.2z"/>
			<path style="fill-rule:evenodd;clip-rule:evenodd;fill:#6D4126;" d="M49.75,165.7c-0.566,0.1-1.3,0.033-2.2-0.2l-1.2-0.4
				l-0.199-3.05l1.399-3.1l2.8,0.95c0.334,0.933,0.567,1.866,0.7,2.8C51.283,164.566,50.85,165.566,49.75,165.7z"/>
			<path style="fill-rule:evenodd;clip-rule:evenodd;fill:#6D4126;" d="M48.75,153.75l4.6-2.75l2.2-0.35l1,2.8
				c-0.267,0.6-0.666,0.899-1.2,0.899c-0.899-0.033-1.649-0.066-2.25-0.1c-1.199-0.066-1.916-0.033-2.149,0.1
				c-0.233,0.134-0.667,0.067-1.3-0.199L48.75,153.75z"/>
			<path style="fill-rule:evenodd;clip-rule:evenodd;fill:#6D4126;" d="M25.15,141.75l2.899,3.2l0.351,2.7
				c-1.3,0.633-2.167,1.55-2.601,2.75c-0.267,0.767-0.683,1.75-1.25,2.949l-0.75,1.601l-1.3-4.101l0.9-6.5
				C23.733,143.217,24.316,142.35,25.15,141.75z"/>
		</g>
		<path style="fill-rule:evenodd;clip-rule:evenodd;fill:#55351E;" d="M38.6,33.65l1.2-5.3c0.034,0.933,0.084,1.617,0.15,2.05
			c0.6,2.4,0.833,4.167,0.7,5.3c-0.134,0.8-0.167,1.533-0.101,2.2c0.067,1.1,0.101,1.717,0.101,1.85c0,0.567,0.066,1.433,0.199,2.6
			c0.167,1.3,0.268,2.2,0.301,2.7c0.133,1.633-0.084,2.767-0.65,3.4c-0.166,0.2-0.517,0.517-1.05,0.95l-0.8,0.6l0.399-0.45
			c0.167-0.2,0.233-0.683,0.2-1.45c0-0.434-0.033-0.934-0.1-1.5l-0.101-4.55l-0.25,1.9c-1,0.933-1.933,1.716-2.8,2.35
			c-0.533,0.333-0.9,0.467-1.1,0.4c-0.533-0.167-0.967-0.25-1.301-0.25c-0.666,0-1.166-0.25-1.5-0.75l-0.35-0.8l2.7,0.15
			c0.866,0,1.634-0.533,2.3-1.6c0.367-0.534,0.65-0.75,0.85-0.65c0.101,0.034,0.167,0,0.2-0.1l0.8-4.35V33.65z"/>
		<path style="fill-rule:evenodd;clip-rule:evenodd;fill:#55351E;" d="M57.5,70.6c0.367-0.1,0.733-1.2,1.1-3.3v9.2
			c0,1.567-0.283,3.067-0.85,4.5c-0.2,0.6-0.483,0.867-0.85,0.8c-0.467-0.233-0.884-0.383-1.25-0.45
			c-0.434-0.067-0.983-0.333-1.65-0.8l-0.9-0.65l0.9-0.1c0.733-0.133,1.483-0.367,2.25-0.7c0.767-0.3,1.167-0.767,1.2-1.4
			c0-0.3-0.066-0.717-0.2-1.25c0-0.2-0.233-1.167-0.7-2.9C56.283,71.85,56.6,70.867,57.5,70.6z"/>
		<path style="fill-rule:evenodd;clip-rule:evenodd;fill:#55351E;" d="M42.9,91.15c-0.167,0.566-0.4,0.8-0.7,0.699
			c-0.7-0.267-1.083-0.399-1.15-0.399c-0.466,0-0.866-0.2-1.2-0.601L39.45,90.2l2.5-0.45l0.95-3.9
			C43.167,88.45,43.167,90.217,42.9,91.15z"/>
		<path style="fill-rule:evenodd;clip-rule:evenodd;fill:#55351E;" d="M33.3,62.5l0.851,0.25c0.6,0.3,0.983,0.833,1.149,1.6
			c0.167,0.767,0.2,1.45,0.101,2.05c-0.2,0.9-0.367,1.783-0.5,2.65c-0.167,1.067-0.316,1.583-0.45,1.55
			c-0.167-0.267-0.316-0.367-0.45-0.3c-0.166,0.067-0.816,0.083-1.95,0.05c-1.233-0.033-2-0.05-2.3-0.05
			c-0.434,0-0.717-0.183-0.85-0.55c-0.134-0.367-0.084-0.55,0.149-0.55c0.634,0,1.667-0.633,3.101-1.9
			c0.666-0.6,1.05-1.316,1.149-2.15C33.367,64.617,33.367,63.733,33.3,62.5z"/>
		<path style="fill-rule:evenodd;clip-rule:evenodd;fill:#55351E;" d="M55.4,117.5l0.8,0.15c0.566,0.333,0.967,1.017,1.2,2.05
			c0.199,1,0.25,1.916,0.149,2.75c-0.133,1.033-0.233,1.983-0.3,2.85c-0.066,1.066-0.267,2.066-0.6,3
			c-0.533,1.566-0.816,2.384-0.851,2.45c-0.233,0.733-0.616,1.184-1.149,1.35c-1.134,0.301-1.733,0.467-1.801,0.5
			c-0.5,0.301-0.949,0.184-1.35-0.35c-0.633-0.866-1.15-1.417-1.55-1.65c-0.634-0.366-1.25-0.949-1.851-1.75
			c-0.533-0.767-0.899-1.233-1.1-1.399c-0.2-0.167,0.467-0.217,2-0.15c0.834,0.033,1.983,0.084,3.45,0.15
			c0.6,0,1.116-0.434,1.55-1.3c0.233-0.467,0.566-1.167,1-2.101C55.533,123.316,55.667,121.134,55.4,117.5z"/>
		<path style="fill-rule:evenodd;clip-rule:evenodd;fill:#55351E;" d="M47,115.1c0.8,1.867,1.167,3.217,1.1,4.051
			c-0.066,0.533-0.3,0.783-0.699,0.75c-0.733-0.101-1.434-0.15-2.101-0.15c-0.833,0-1.483-0.35-1.95-1.05l-0.449-1.05h2.5L47,115.1z
			"/>
		<path style="fill-rule:evenodd;clip-rule:evenodd;fill:#55351E;" d="M56.7,139.95c-0.167,2.8-0.3,4.517-0.4,5.149
			c-0.033,0.334-0.2,0.601-0.5,0.801c-0.433,0.267-0.7,0.466-0.8,0.6c-0.267,0.267-0.684,0.316-1.25,0.15
			c-0.467-0.134-1.3-0.5-2.5-1.101c-0.866-0.467-1.267-0.733-1.2-0.8c0.067-0.033,0.2-0.033,0.4,0l4-0.9L56.7,139.95z"/>
		<path style="fill-rule:evenodd;clip-rule:evenodd;fill:#6D4126;" d="M28.95,62.8c0.066-0.8,0.133-1.283,0.2-1.45
			c0.133-0.267,0.466-0.4,1-0.4c0.433,0,0.85,0.233,1.25,0.7c0.399,0.4,0.6,0.783,0.6,1.15c0,0.233-0.166,0.367-0.5,0.4
			c-0.6,0.1-0.967,0.167-1.1,0.2c-0.334,0.133-0.617,0.483-0.851,1.05c-0.267,0.633-0.466,1.066-0.6,1.3
			C28.684,66.283,28.684,65.3,28.95,62.8z"/>
		<path style="fill-rule:evenodd;clip-rule:evenodd;fill:#6D4126;" d="M34.4,32.55c1.866-1.533,2.75-1.783,2.649-0.75
			c-0.066,0.633-0.216,1.067-0.45,1.3c-0.366,0.433-0.566,0.667-0.6,0.7c-0.166,0.333-0.75,1.317-1.75,2.95
			c-0.2,0.333-0.4,0.983-0.6,1.95c-0.334,1.4-0.667,2.633-1,3.7c-0.434,1.367-0.584,1.617-0.45,0.75c0.066-0.433,0.184-1,0.35-1.7
			l0.05-1.9c0.067-1.466,0.167-2.75,0.301-3.85c0.133-0.967,0.366-1.583,0.699-1.85C33.967,33.517,34.233,33.083,34.4,32.55z"/>
		<path style="fill-rule:evenodd;clip-rule:evenodd;fill:#6D4126;" d="M50.75,54.55c-0.866-0.1-1.4-0.15-1.6-0.15
			c-0.4,0-0.917,0.283-1.551,0.85l-0.85,0.85l0.4-4.35c0.166-0.733,1.449-1.417,3.85-2.05l2.8,0.95
			c0.267,0.833,0.317,1.45,0.15,1.85c-0.566,1.233-1.15,1.917-1.75,2.05C51.967,54.617,51.483,54.617,50.75,54.55z"/>
		<path style="fill-rule:evenodd;clip-rule:evenodd;fill:#6D4126;" d="M50.6,38.95l2.15,1.4c-0.467,0.3-1.5,0.667-3.1,1.1
			c-0.967,0.267-1.45,0.633-1.45,1.1l0.3,0.6l-0.7-0.9l0.9-1.5C49.434,39.75,50.066,39.15,50.6,38.95z"/>
		<path style="fill-rule:evenodd;clip-rule:evenodd;fill:#6D4126;" d="M53.9,67.7c0.733-0.4,1.449-0.733,2.149-1L57,67.95l-1.5,0.9
			c0,0.967-0.116,1.6-0.35,1.9c-0.267,0.267-0.467,0.467-0.601,0.6c-0.267,0.267-0.517,0.633-0.75,1.1
			c-0.233,0.466-0.483,1.233-0.75,2.3l-0.3,1.45l-0.4-2.2l0.051-0.6c0.033-0.5,0.1-0.917,0.199-1.25c0.167-0.533,0.25-1.1,0.25-1.7
			l0.15-2.2L53.9,67.7z"/>
		<path style="fill-rule:evenodd;clip-rule:evenodd;fill:#6D4126;" d="M41.15,84.6c-0.066,1.033-0.283,1.867-0.65,2.5
			c-0.233,0.4-0.55,0.733-0.95,1l-0.5,0.25l0.05-0.55c0.034-0.4,0.101-0.733,0.2-1C39.467,86.367,40.084,85.633,41.15,84.6z"/>
		<path style="fill-rule:evenodd;clip-rule:evenodd;fill:#6D4126;" d="M44.5,114.05c0.8,0.733,1.1,1.316,0.9,1.75
			c-0.101,0.233-0.384,0.334-0.851,0.3c-0.533-0.1-0.866-0.149-1-0.149c-0.166,0-0.366-0.101-0.6-0.3l-0.3-0.351l0.5-0.55
			C43.55,114.35,44,114.116,44.5,114.05z"/>
		<path style="fill-rule:evenodd;clip-rule:evenodd;fill:#6D4126;" d="M53.25,117.65c0.733,0.733,0.967,1.416,0.7,2.05l-0.8,2
			c-0.134,0.366-0.384,0.6-0.75,0.7c-0.767,0.233-1.367,0.466-1.801,0.699l-1.75,1c-0.366,0.167-0.666,0.25-0.899,0.25
			c-0.167,0-0.233-0.017-0.2-0.05c0.2-0.166,0.316-0.35,0.35-0.55c0.034-0.267,0.384-0.684,1.051-1.25
			c0.366-0.333,0.983-0.866,1.85-1.6c0.533-0.467,1.05-1.084,1.55-1.851C52.95,118.417,53.184,117.95,53.25,117.65z"/>
		<path style="fill-rule:evenodd;clip-rule:evenodd;fill:#6D4126;" d="M36.8,128.4c0.034-0.267,0.75-0.417,2.15-0.45
			c1.5,0,2.1,0.05,1.8,0.149c-0.166,0.067-0.483,0.483-0.95,1.25c-0.5,0.867-0.85,1.434-1.05,1.7c-0.3,0.566-0.533,0.983-0.7,1.25
			c-0.333,0.467-0.75,0.834-1.25,1.101s-1.2,0.399-2.1,0.399l-1.25-0.1l2-1.7c0.566-0.467,0.934-1.066,1.1-1.8
			C36.65,129.8,36.733,129.2,36.8,128.4z"/>
		<path style="fill-rule:evenodd;clip-rule:evenodd;fill:#6D4126;" d="M54.6,139.6c-0.266,1.267-0.583,2-0.949,2.2
			c-0.767,0.467-1.601,0.884-2.5,1.25c-0.634,0.267-0.851,0.167-0.65-0.3c0.1-0.233,0.267-0.5,0.5-0.8l1.1-0.851
			C53,140.434,53.834,139.934,54.6,139.6z"/>
	</g>
	<path style="fill-rule:evenodd;clip-rule:evenodd;fill:#482D1D;" d="M55.05,7.05C57.684,7.816,59.467,8.8,60.4,10
		c0.967,1.233,1.333,3.117,1.1,5.65c-0.166-0.2-0.483-0.383-0.95-0.55c-0.533-0.2-0.85-0.333-0.95-0.4
		c0.101,1.033-0.116,1.683-0.649,1.95c-0.733,0.167-1.3,0.4-1.7,0.7c-0.133,0.066-0.4,0.117-0.8,0.15c-0.333,0-0.601,0.1-0.8,0.3
		c-0.167,0.2-0.25,0.733-0.25,1.6c0,0.9-0.051,1.467-0.15,1.7c-0.533-1.067-1.783-2.25-3.75-3.55c-1.9-1.233-3.533-1.983-4.9-2.25
		c-0.366-0.066-0.916,0.017-1.649,0.25c-0.7,0.233-1.25,0.284-1.65,0.15c-0.533-0.167-0.966-0.617-1.3-1.35
		c-0.366-0.733-0.75-1.2-1.15-1.4c-0.732-0.333-2.383-0.117-4.949,0.65C33.3,14.4,31.85,15.2,31.55,16
		c-0.166,0.4-0.116,1.017,0.15,1.85c0.333,1,0.5,1.6,0.5,1.8c0,0.434-0.116,1.1-0.351,2c-0.199,0.867-0.3,1.517-0.3,1.95
		c-1.2,0.433-2.033-0.133-2.5-1.7c-0.233-0.833-0.517-2.05-0.85-3.65c-0.767-1.467-1.934-2.434-3.5-2.9
		c-1.167-0.367-2.8-0.483-4.9-0.35c-1.3,0.1-3.366,0.45-6.2,1.05c-2.7,0.567-4.8,0.9-6.3,1C7.167,17.05,6.533,17,5.4,16.9
		C4.533,16.8,3.917,16.833,3.55,17c-0.333,0.133-0.666,0.5-1,1.1c-0.333,0.5-0.733,0.783-1.2,0.85L1.5,17c0.066-0.434,0.1-1.1,0.1-2
		c0-0.733-0.067-1.8-0.2-3.2l17.2-4.15c1.067-0.8,2.5-1.533,4.3-2.2c1.633-0.634,3.166-1.067,4.6-1.3c2.4-0.433,5.367-0.433,8.9,0
		c2,0.267,4.949,0.684,8.85,1.25C49.283,5.767,52.55,6.316,55.05,7.05z"/>
	<path style="fill-rule:evenodd;clip-rule:evenodd;fill:#5F4B23;" d="M59.6,5.65L59.25,5c1.434-0.267,2.4,0.833,2.9,3.3
		c0.399,2.034,0.416,3.8,0.05,5.3c-1.066-0.034-2.3-0.3-3.7-0.8c-0.633-0.233-1.833-0.75-3.6-1.55c-1.667-0.767-3.65-1.35-5.95-1.75
		c-1.033-0.167-3.167-0.417-6.4-0.75c-2.933-0.333-6.083-0.167-9.45,0.5c-0.666,0.133-2,0.5-4,1.1c-1.667,0.5-3.017,0.8-4.05,0.9
		c-0.566,0.066-1.6,0.1-3.1,0.1c-1.3,0.033-2.316,0.117-3.05,0.25c-0.834,0.167-2.5,0.233-5,0.2c-2.134-0.033-3.684,0.15-4.65,0.55
		C7.483,13.25,6.066,13.867,5,14.2c-1.9,0.633-3.267,0.483-4.1-0.45c-0.567-0.667-0.867-1.867-0.9-3.6c0-1.767,0.3-2.933,0.9-3.5
		c0.133-0.133,0.633-0.367,1.5-0.7c0.966-0.333,1.55-0.567,1.75-0.7c1.267-0.8,2.3-1.317,3.1-1.55C10.95,2.566,15.7,2,21.5,2
		c1.667,0,3.833-0.283,6.5-0.85C31.066,0.483,33.233,0.1,34.5,0c1.334-0.1,3,0.117,5,0.65c2.367,0.633,4,0.983,4.9,1.05
		c0.166,0,1.184,0.033,3.05,0.1c1.233,0.034,2.25,0.133,3.05,0.3c2.6,0.533,4.217,0.9,4.85,1.1C57.15,3.767,58.566,4.583,59.6,5.65z
		"/>
</g>
</svg>
