<?xml version="1.0" encoding="iso-8859-1"?>
<!-- Generator: Adobe Illustrator 15.1.0, SVG Export Plug-In . SVG Version: 6.00 Build 0)  -->
<!DOCTYPE svg PUBLIC "-//W3C//DTD SVG 1.1//EN" "http://www.w3.org/Graphics/SVG/1.1/DTD/svg11.dtd">
<svg version="1.1" id="FlashAICB" xmlns="http://www.w3.org/2000/svg" xmlns:xlink="http://www.w3.org/1999/xlink" x="0px" y="0px"
	 width="207.15px" height="226.7px" viewBox="0 0 207.15 226.7" style="enable-background:new 0 0 207.15 226.7;"
	 xml:space="preserve">
<g>
	<g>
		<path style="fill-rule:evenodd;clip-rule:evenodd;fill:#613A22;" d="M191.6,21.35c5.033,2.167,7.984,3.933,8.851,5.3
			c2.167,3.4,3.866,12.117,5.1,26.15c1.134,13.2,1.667,28.583,1.601,46.15c-0.066,17.967-0.75,34.399-2.051,49.3
			c-1.467,16.366-3.482,28.217-6.05,35.55c-5.1,14.5-13.833,24.934-26.2,31.3c-10.366,5.334-25.949,8.851-46.75,10.551
			c-20.833,1.699-40.8,1.366-59.899-1c-21.267-2.634-35.983-7.301-44.15-14c-7.6-6.233-12.783-14.15-15.55-23.75
			c-1.1-3.767-2.066-8.584-2.9-14.45c-0.5-3.434-1.25-9.033-2.25-16.8c-1.4-10.2-1.7-26.634-0.9-49.3c0.4-12,1.1-25.934,2.1-41.8
			c0.3-5.9,1.233-12.667,2.8-20.3c0.8-3.833,1.55-7.067,2.25-9.7c9.867-7.633,23.983-14.367,42.35-20.2
			c21.1-6.667,41.183-9.684,60.25-9.05c21.033,0.733,41.533,3.85,61.5,9.35C179.533,16.816,186.167,19.05,191.6,21.35z"/>
		<path style="fill-rule:evenodd;clip-rule:evenodd;fill:#55351E;" d="M185.65,36.1c-0.967-0.767-2.884-1.55-5.75-2.35
			c-1.801-0.5-3.733-0.65-5.801-0.45l-2.5,0.45c0,2.1-0.6,4.467-1.8,7.1c-0.767,1.633-1.966,4.033-3.6,7.2L164,52.3l-0.7-7.1
			l-1.85-3.55l-0.101-1.75c0.033-1.333,0.2-2.333,0.5-3c0.834-1.9,0.95-3.867,0.351-5.9c-0.233-0.8-0.434-1.567-0.601-2.3
			c-0.133-0.467-0.416-1.017-0.85-1.65c-0.733-1.066-2.416-1.6-5.05-1.6l-5.8-1.6c-1.934-1.034-3.5-1.55-4.7-1.55
			s-5.4-0.267-12.601-0.8c-2.366-0.167-4.083,0.15-5.149,0.95c-0.2,0.133-1.017,1.133-2.45,3c-0.666,0.866-1.75,1.8-3.25,2.8
			c-2.066,1.367-3.517,2.4-4.35,3.1c-1.367,1.167-1.717,6.6-1.051,16.3l1.4,14.15c-0.3,1.9-0.666,3.883-1.1,5.95
			c-0.9,4.167-1.733,6.65-2.5,7.45c-0.733,0.833-1.801,3.066-3.2,6.7l-1.851,5.15c-0.3,1-0.717,2.1-1.25,3.3
			c-1.1,2.433-2.25,4.233-3.449,5.4c-1.434,1.367-2.367,2.233-2.8,2.6s-1.183,0.95-2.25,1.75c-0.3,0.233-1.333,1.35-3.1,3.35
			c-1.434,1.6-2.934,2.716-4.5,3.35c-1.633,0.667-4.167,0.934-7.6,0.8l-4.65-0.4l6.1-1.6c4.267-1.333,6.917-2.65,7.95-3.95
			c0.067-0.1,1.167-1.617,3.3-4.55c1.3-1.833,2.733-3.467,4.3-4.9c1.767-1.567,3.1-4.9,4-10c0.699-4.167,0.934-7.817,0.699-10.95
			c-0.166-2.434-1.133-6.05-2.899-10.85c-1.8-4.867-3.233-7.7-4.3-8.5c-0.634-0.433-1.5-1.15-2.601-2.15
			c-0.966-0.867-1.917-1.6-2.85-2.2c-1.1-0.7-1.934-2.966-2.5-6.8c-0.5-3.333-0.634-5.8-0.4-7.4c0.2-1.1,0.167-2.567-0.1-4.4
			c-0.267-1.7-0.583-2.867-0.95-3.5c-0.3-0.467-0.9-1.017-1.8-1.65c-1.2-0.733-2.167-1.367-2.9-1.9c-1-0.733-2.399-1.183-4.2-1.35
			c-1.4-0.133-3.617-0.083-6.65,0.15c-1.967,0.133-3.7,0.433-5.2,0.9c-2.167,0.667-4.167,1.167-6,1.5
			c-3.633,0.633-5.917,1.05-6.85,1.25c-1.601,0.333-4.25,0.966-7.95,1.9c-3.333,0.833-5.267,2.3-5.8,4.4
			c-0.101,2.867-0.334,5.217-0.7,7.05c-0.434,2.3-0.134,4.033,0.9,5.2c0.5,0.6,1.05,0.967,1.65,1.1c2.167,2.633,3.6,4.75,4.3,6.35
			c0.467,1.033,0.55,1.85,0.25,2.45c-0.033,0.067-0.583,0.684-1.649,1.85c-0.634,0.667-1,1.45-1.101,2.35c0,0.033,0,0.7,0,2
			c0,0.7-0.466,1.517-1.399,2.45c-1.034,1-2.134,1.5-3.3,1.5c-1.067,0-2.35-0.134-3.85-0.4l-1.95-0.4L37.4,62
			c1.7-0.2,2.85-0.533,3.45-1c0.733-0.6,1.317-1.783,1.75-3.55c0.466-1.767,0.6-3.35,0.4-4.75c-0.167-1.3-1.45-2.884-3.85-4.75
			c-2.3-1.733-4.5-2.917-6.601-3.55c-1.633-0.5-3.316-0.717-5.05-0.65c-1.8,0.167-3.133,0.25-4,0.25c-1.1,0-3.25-0.633-6.45-1.9
			c-2.633-1.067-4.7-2.017-6.2-2.85c-0.9-0.467-1.883-0.617-2.95-0.45L6.55,39.25l1.4-5.3l5.45-6.15
			c1.733-1.867,11.583-5.517,29.55-10.95C62.316,11.017,77.5,7.566,88.5,6.5c11.467-1.133,26.25-0.55,44.35,1.75
			c16.967,2.167,29.033,4.733,36.2,7.7c12.2,5.066,19.117,7.95,20.75,8.65c7.267,3.167,11.25,5.183,11.95,6.05
			c1.1,1.367,2.066,2.867,2.9,4.5c-0.867-0.3-1.783-0.55-2.75-0.75c-1.934-0.4-3.134-0.35-3.601,0.15
			c-0.466,0.467-0.6,1.6-0.399,3.4l0.399,2.5l-1.1,9.1c0,0.333-0.2,0.733-0.601,1.2c-0.766,0.9-2.116,1.683-4.05,2.35
			c-1.966,0.633-4,0.566-6.1-0.2l-2.601-1.4l5.801-2.75l0.35-6.3C190,41.65,188.55,39.533,185.65,36.1z"/>
		<path style="fill-rule:evenodd;clip-rule:evenodd;fill:#55351E;" d="M24.25,104.45c-0.9-0.5-1.65-1.7-2.25-3.6
			c-0.3-0.967-0.517-1.883-0.65-2.75l3.05,2.15c2.533,1.5,5,2.5,7.399,3c2.434,0.5,5.034,0,7.8-1.5c1.367-0.767,2.5-1.583,3.4-2.45
			l1.1-4c0.8-2.867,1.4-4.833,1.8-5.9c0.6-1.467,0.533-3.816-0.2-7.05c-0.333-1.6-0.75-3.067-1.25-4.4l4.35,8.3
			c0.7,1.4,0.934,2.733,0.7,4c-0.467,2.267-0.7,3.7-0.7,4.3c0,2.733-1.333,6.034-4,9.9c-0.833,1.233-2.517,2.417-5.05,3.55
			c-1.2,0.566-2.1,0.967-2.7,1.2c-1.033,0.4-1.933,0.517-2.7,0.35c-1.034-0.133-1.8-0.25-2.3-0.35c-0.899-0.167-1.933-0.567-3.1-1.2
			c-1.033-0.567-1.917-1.217-2.65-1.95C25.6,105.35,24.917,104.816,24.25,104.45z"/>
		<path style="fill-rule:evenodd;clip-rule:evenodd;fill:#55351E;" d="M33.55,131.9c-0.433-1.5-0.966-2.884-1.6-4.15l4.8,7
			c0.167,0.967,0.434,2.233,0.8,3.8c0.2,0.967,0.3,2.434,0.3,4.4l-0.05,2.6c-0.167,2.134-0.25,3.983-0.25,5.55
			c0,0.934-0.283,1.934-0.85,3c-0.6,1-0.95,1.65-1.05,1.95c-0.101,0.334,0.033,0.9,0.399,1.7c0.467,0.934,0.784,1.634,0.95,2.1
			c0.233,0.601,0.483,1.65,0.75,3.15l0.3,2.1v6.4c0,1.467-0.399,2.45-1.2,2.95c-1.133,0.467-2.067,0.95-2.8,1.45
			c-0.833,0.566-1.533,1.633-2.1,3.199c-0.733,1.9-1.184,2.967-1.35,3.2c-0.467,0.634-1.3,0.834-2.5,0.601
			c-0.4-0.067-1.433-0.367-3.1-0.9c-0.767-0.233-1.667-1.616-2.7-4.15c-0.5-1.267-0.933-2.5-1.3-3.699l2.05,0.449
			c1.601,0.267,2.967,0.4,4.101,0.4c1.1,0,2.233-0.533,3.399-1.6c0.567-0.534,1.034-1.067,1.4-1.601l0.95-1.649
			c0.666-1.267,1.05-2.267,1.149-3c0.2-1.167,0.117-2.534-0.25-4.101H31.4c-0.334,0-1.067,0.134-2.2,0.4
			c-0.967,0.233-1.75,0.3-2.35,0.2c-0.867-0.167-1.417-0.317-1.65-0.45c-0.333-0.167-0.75-0.601-1.25-1.3
			c-0.3-0.434-0.967-1.017-2-1.75c-1.1-0.801-2.033-1.684-2.8-2.65c-0.9-1.066-1.8-2.55-2.7-4.45
			c-0.434-0.967-0.783-1.816-1.05-2.55l1.45,1.5c1.167,1.134,2.2,2,3.1,2.6c0.866,0.601,1.8,0.834,2.8,0.7
			c0.5-0.066,0.9-0.2,1.2-0.399l1.45-1c1-0.733,1.666-1.284,2-1.65c0.533-0.566,1.517-2.417,2.95-5.55l2.9-4.351L32.5,141.2
			c-0.267-0.967,0.083-2.05,1.05-3.25C34.417,136.884,34.417,134.866,33.55,131.9z"/>
		<path style="fill-rule:evenodd;clip-rule:evenodd;fill:#55351E;" d="M78.9,129.7l0.25-2.101c0.633,4.334,0.866,6.851,0.7,7.551
			c-0.067,0.566-0.117,1-0.15,1.3c-0.067,0.533-0.25,1.217-0.55,2.05c-0.3,0.866-1.101,2-2.4,3.4l-1.85,1.8
			c-0.8,1.566-1.601,2.434-2.4,2.6c-0.566,0.134-1.566-0.717-3-2.55c-1.4-1.767-2.283-3.25-2.65-4.45c-0.233-0.7,0.2-0.783,1.3-0.25
			c0.566,0.267,1.149,0.601,1.75,1l4.05-0.75l2.35-5.2L78.9,129.7z"/>
		<path style="fill-rule:evenodd;clip-rule:evenodd;fill:#55351E;" d="M104.9,168.45c-0.533,0.5-0.917,0.75-1.15,0.75
			c-0.367,0-0.883-0.2-1.55-0.601c-1.367-0.833-2.117-1.283-2.25-1.35c-0.733-0.4-1.517-0.934-2.35-1.6l-1.05-0.851h8.3l2.25-2.45
			l2.9-4.85c0.7-0.934,1.383-1.45,2.05-1.55c2.634-0.3,3.833-1.783,3.601-4.45c-0.134-1.333-0.518-2.634-1.15-3.9l3.6,2.7
			c0.9,2.3,1.434,4.434,1.601,6.4c0.1,1.233-0.167,2.583-0.8,4.05l-1,1.85l-3.15,1.45h-3.35c-1.4,0-2.084,0.45-2.051,1.351
			l0.45,1.35c-0.6,0.333-1.566,0.583-2.899,0.75C106.133,167.6,105.467,167.917,104.9,168.45z"/>
		<path style="fill-rule:evenodd;clip-rule:evenodd;fill:#55351E;" d="M91.65,155.35v3.051c0,1.6-0.134,2.75-0.4,3.449
			c-0.5,1.367-0.75,2.067-0.75,2.101c-0.434,0.934-0.9,1.533-1.4,1.8l-3,1.75c-0.433,0.233-0.583,0.634-0.45,1.2
			c0.233,1.1,0.316,2,0.25,2.7c-0.067,1.1-0.417,1.716-1.05,1.85l-0.95-0.1c-0.267,1.166-0.584,2.033-0.95,2.6
			c-0.267,0.366-0.634,0.6-1.1,0.7c-0.733,0.066-1.367,0.133-1.9,0.2c-1.067,0.133-2.45,0.199-4.15,0.199
			c-0.733,0-1.417-0.283-2.05-0.85L73,175.1h3.95l3.8-3.699l0.3-1.551c0.2-1.166,0.3-2.017,0.3-2.55c-2.667,0.134-4.65,0.134-5.95,0
			c-0.767-0.1-1.267-0.35-1.5-0.75c-0.367-0.633-0.667-1.033-0.9-1.2c-0.566-0.433-1.333-1.233-2.3-2.399
			c-0.934-1.134-1.483-1.934-1.65-2.4c-0.133-0.3,1.083,0.184,3.65,1.45c2.833,1.366,4.45,2.05,4.85,2.05
			c1.733,0,2.934-0.149,3.601-0.45c0.466-0.199,1.316-0.433,2.55-0.699c1.133-0.267,1.866-0.4,2.2-0.4c1,0,1.933-0.283,2.8-0.85
			C89.367,161.217,90.35,159.116,91.65,155.35z"/>
		<path style="fill-rule:evenodd;clip-rule:evenodd;fill:#55351E;" d="M61.25,179.9c1.434-0.367,2.283-1.7,2.55-4
			c0.134-1.134,0.117-2.25-0.05-3.351l1.2,5.7l-1.7,4.35c-0.667,1.434-1.417,2.517-2.25,3.25c-0.533,0.467-1.283,0.733-2.25,0.801
			c-1.4,0-2.633,0-3.7,0c-1.366,0-2.233-0.45-2.6-1.351c-0.167-0.434-0.217-0.883-0.15-1.35l7.2-0.8l0.4-1.551
			C60.267,180.566,60.717,180,61.25,179.9z"/>
		<path style="fill-rule:evenodd;clip-rule:evenodd;fill:#55351E;" d="M15.55,109.8c-0.267-0.733-0.6-1.4-1-2l0.95,0.2
			c0.633,0.133,1.15,1.683,1.55,4.65l0.75,2.95c0.134,1.267,0.067,2.617-0.2,4.051c-0.133,0.866-0.75,1.517-1.85,1.949l-1.6,0.351
			l-1.55,1.3c-0.633,0.134-1.917-0.017-3.85-0.45c-1.2-0.267-2.017-0.633-2.45-1.1L6,121.1l3.9,0.2l2.5-1.45
			c0.5-0.3,0.8-0.649,0.899-1.05c0.034-0.133,0.05-0.633,0.05-1.5l0.55-1.5c0.5-1.1,1.033-2,1.6-2.7
			C16.066,112.4,16.083,111.3,15.55,109.8z"/>
		<path style="fill-rule:evenodd;clip-rule:evenodd;fill:#55351E;" d="M148.25,56.95c0.867,0.667,1.717,1.95,2.55,3.85
			c0.667,1.567,1.134,3.083,1.4,4.55c0.134,0.8,0.783,1.9,1.95,3.3c1.1,1.4,1.684,2.45,1.75,3.15c0.1,0.967-0.051,1.733-0.45,2.3
			c-0.167,0.267-0.75,0.85-1.75,1.75c-0.601,0.566-1.116,1.466-1.55,2.7c-0.601,1.7-0.95,2.633-1.051,2.8l-3.5,6.25l-1.1,4.8
			c-0.2,1.267-0.367,2.1-0.5,2.5c-0.2,0.567-0.767,1.4-1.7,2.5c-1.066,1.267-1.667,1.95-1.8,2.05c-0.066,0.033-0.783,0.233-2.15,0.6
			c-1.002,0.273-1.727,0.74-2.175,1.4l0.625-1.65l1.101-1.3c0.866-0.967,1.666-1.65,2.399-2.05c0.767-0.4,1.117-1.15,1.05-2.25
			c-0.033-0.567-0.149-1.083-0.35-1.55l1.1-5.55l-1.8,0.5c-0.833,0.233-2.066,0.5-3.7,0.8c-1.533,0.267-2.482,0.4-2.85,0.4
			c-0.4,0-1.066-0.05-2-0.15c-1.033-0.133-1.75-0.25-2.15-0.35l-2.649-0.95L132,87.1c2.233-0.233,3.85-0.55,4.85-0.95
			c1.2-0.467,1.934-0.767,2.2-0.9c0.233-0.133,0.517-0.383,0.851-0.75c0.133-0.167,0.533-0.467,1.199-0.9
			c0.567-0.367,0.967-0.784,1.2-1.25c0.467-0.8,0.917-2,1.351-3.6l0.6-0.95c0.5-0.733,1.033-1.3,1.6-1.7
			c0.768-0.534,1.268-0.967,1.5-1.3c0.4-0.433,0.7-1.033,0.9-1.8c0.267-1.133,0.117-3.217-0.45-6.25l-1.55-4.55l-3.7-5
			c-0.033-2.8-0.333-3.917-0.899-3.35c-1.467,1.5-3.25,1.35-5.351-0.45l-2.75-3.15L134.5,51c0.733,0.467,1.367,0.7,1.9,0.7
			c1.199,0,2.366-0.717,3.5-2.15c0.732-0.966,2.133-2.25,4.199-3.85c0.867,1.1,1.15,2.3,0.851,3.6c-0.4,1.733-0.4,2.934,0,3.6
			c0.167,0.233,0.517,0.817,1.05,1.75C146.667,55.583,147.417,56.35,148.25,56.95z"/>
		<path style="fill-rule:evenodd;clip-rule:evenodd;fill:#55351E;" d="M186.25,107.8c-0.5,0-1.3-0.066-2.4-0.2
			c-1.366-0.167-2.133-0.733-2.3-1.7c-0.066-0.5-0.017-0.983,0.15-1.45l2.149-1.2l1.45-2.75l4.351,0.75l5.05-2.75
			c-0.467-5.067-0.351-6.917,0.35-5.55c0.733,1.433,1.15,3.966,1.25,7.6c0.101,3.633-0.2,5.85-0.899,6.65
			c-0.667,0.7-1.467,1.083-2.4,1.15c-0.467,0-1.833-0.117-4.1-0.35C187.7,107.867,186.816,107.8,186.25,107.8z"/>
		<path style="fill-rule:evenodd;clip-rule:evenodd;fill:#55351E;" d="M61.05,129.3l1.3,1.351c0.933,1.133,1.466,2.267,1.6,3.399
			c0.133,1.134-0.067,2.733-0.6,4.8l-0.85,2.7l0.4,3.15c0.233,2.633,0.1,4.866-0.4,6.7c-0.3,1.166-0.75,2.25-1.35,3.25l-0.8,1.1
			l-0.2-1.55c-0.233-1.066-0.65-1.601-1.25-1.601c-0.601,0-1.017,0.134-1.25,0.4l-0.2,0.4c-0.7,2.366-1.417,3.683-2.15,3.949
			c-0.267,0.101-0.733,0.7-1.399,1.801c-0.634,1-1.367,1.583-2.2,1.75c-0.9,0.166-2.017-0.167-3.35-1l-1.7-1.351h6.1l1.45-3.95
			l0.4-1.699c0.333-1.334,0.567-2.483,0.7-3.45c0.233-1.566-0.133-3.55-1.1-5.95c0-1.134-0.95-2-2.85-2.6l-2.9-0.551l2.15-1.55
			c0.9-0.666,2.133-0.6,3.7,0.2c0.8,0.366,1.5,0.816,2.101,1.35l1.05-0.399c0.933-0.334,1.783-1.517,2.55-3.55
			C60.467,135.1,60.816,132.733,61.05,129.3z"/>
		<path style="fill-rule:evenodd;clip-rule:evenodd;fill:#55351E;" d="M89.95,59l2.2-4.35l1.399,3.95l-0.35,3.55l-1.45,4.75
			l-0.7,1.6c-0.3,0.633-0.933,1.15-1.899,1.55l-1.351,0.4c-1.433,0.533-2.633,0.667-3.6,0.4c-0.533-0.133-1.017-0.467-1.45-1
			c-0.533-0.667-1.017-1.117-1.45-1.35c-0.6-0.333-1.267-0.883-2-1.65l-0.899-1.1L86,66.1l3.6-2.35l0.2-1.3
			C89.9,61.316,89.95,60.167,89.95,59z"/>
		<path style="fill-rule:evenodd;clip-rule:evenodd;fill:#55351E;" d="M56.4,87.45l7.55-2.35l1.1-1.1
			c0.833-0.934,1.55-1.883,2.15-2.85c0.433-0.7,0.45-1.9,0.05-3.6c-0.3-1.3,0.05-2.083,1.05-2.35c1.8-0.5,2.767-2.034,2.9-4.6
			c0.033-1.267-0.1-2.5-0.4-3.7l2.2,4.35l0.7,7.1l-2.5,9.1l-3.65,3.95c-1.899,0.267-3.216,0.267-3.95,0
			c-0.367-0.133-0.45-0.217-0.25-0.25c0.667-0.1,1.233-0.283,1.7-0.55c0.767-0.4,1.25-0.883,1.45-1.45c0.2-0.6-0.05-0.9-0.75-0.9
			L56.4,87.45z"/>
		<path style="fill-rule:evenodd;clip-rule:evenodd;fill:#55351E;" d="M120.05,85.35c0.733-0.567,1.217-1.017,1.45-1.35
			c0.4-0.533,1.367-2.267,2.9-5.2c0.366,0.633,0.6,1.417,0.699,2.35c0.134,1.333-0.35,2.6-1.449,3.8c-0.434,0.466-0.667,1-0.7,1.6
			c0,0.767,0,1.383,0,1.85c0,0.533-0.217,1.217-0.65,2.05c-0.633,1.133-1.033,1.966-1.2,2.5c-0.3,0.866-0.416,1.933-0.35,3.2
			l0.2,1.7c-0.667,0-1.2-0.05-1.601-0.15l-1.449-0.5c-0.367-0.134-0.65-0.134-0.851,0l-0.85,0.95c-0.434,0.467-0.65,0.717-0.65,0.75
			c-0.033,0-0.45,0.167-1.25,0.5l-0.55-0.95l-1,0.3c-0.3,0.1-0.65,0.4-1.05,0.9c-0.434,0.567-1,1.017-1.7,1.35
			c-0.767,0.367-1.25,0.55-1.45,0.55c-0.233-0.066-0.517-0.1-0.85-0.1l-3.15,0.15l1.2-0.45c0.9-0.333,1.65-0.5,2.25-0.5
			c0.967,0,2.017-0.883,3.15-2.65l0.55-1c0.433-0.733,0.833-1.3,1.2-1.7c0.566-0.633,1.232-1.617,2-2.95
			c0.267-0.367,0.633-0.6,1.1-0.7c0.566-0.133,0.867-0.217,0.9-0.25c0.199-0.167,0.649-0.733,1.35-1.7c0.767-1.067,0.983-1.4,0.65-1
			c-0.834,1.066-1.801,1.267-2.9,0.6l-1.4-1.35h2.45c0.3,0,0.967-0.634,2-1.9L120.05,85.35z"/>
		<path style="fill-rule:evenodd;clip-rule:evenodd;fill:#55351E;" d="M114.9,107.5l1.5,1.6l0.399,1.85l-0.6,2.85
			c-0.067,0.367-0.601,0.467-1.601,0.3l-1.449-0.3c-0.101,0.566-0.15,1.184-0.15,1.851c0,0.466-0.2,1.267-0.6,2.399
			c-0.4,1.033-0.717,1.733-0.95,2.101l-0.95,1.449v1.2c0.9,1.634,1.35,3,1.35,4.101c0,0.633-0.05,1.066-0.149,1.3
			c-0.333,0.7-0.533,1.149-0.601,1.35c-0.232,0.667-0.899,0.867-2,0.601c-1.133-0.4-1.8-0.601-2-0.601c-0.166,0-0.6-0.1-1.3-0.3
			c-0.733-0.2-1.316-0.3-1.75-0.3c-0.466,0-0.899-0.2-1.3-0.601l-0.45-0.649l-2.45-1h2.85c0.767,0,1.083-0.351,0.95-1.05
			l1.699-1.601c0.4-0.434,0.467-1.05,0.2-1.85l-0.95-1.65l-0.05-1.3c-0.033-0.9-0.017-1.483,0.05-1.75
			c0.134-0.4,0.65-1.017,1.551-1.85l3.199,0.399l0.2-2.05c0-0.533-0.767-1.75-2.3-3.65l2.85,0.6l1.75-0.2
			c0.634-0.133,1.134-0.684,1.5-1.65L114.9,107.5z"/>
		<path style="fill-rule:evenodd;clip-rule:evenodd;fill:#55351E;" d="M85,143.85l-1.15-3.05h5.35l3.25-0.649l3.8-9.601
			c0.1,1.101,0.6,2.733,1.5,4.9c0.566,1.366,0.733,2.217,0.5,2.55l-0.5,0.1l-0.2,3.101c-0.233,1.2-0.933,2.55-2.1,4.05
			c-0.7,0.934-1.567,1.316-2.6,1.15l-1.35-0.5l-3.25-0.2L85,143.85z"/>
		<path style="fill-rule:evenodd;clip-rule:evenodd;fill:#482D1D;" d="M94.5,140.35c0.733-0.466,1.133-1.466,1.2-3
			c0.033-1.033,0.15-1.383,0.35-1.05c0.467,0.867,0.417,2.2-0.149,4l-1,2.5c-1,1.101-2.267,1.65-3.8,1.65
			c-0.967,0-2.267-0.101-3.9-0.3L85,143.85l1.85-0.75c1.466-0.566,2.75-0.933,3.85-1.1c1.167-0.167,1.9-0.333,2.2-0.5
			C93.167,141.366,93.7,140.983,94.5,140.35z"/>
		<path style="fill-rule:evenodd;clip-rule:evenodd;fill:#6D4126;" d="M90.8,132.65l-0.95,0.399c-0.4,1.101-0.784,1.65-1.15,1.65
			h-1.55c-0.467,0-1.417,0.75-2.851,2.25c-0.7,0.767-1.066,1.166-1.1,1.2l0.15-0.2l-0.75-2.2l0.85-1.75
			c0.667-1.233,1.15-2.017,1.45-2.35l1.899-2.25l1.5-0.2c0.601-0.066,1.134-0.084,1.601-0.05c0.833,0.033,1.316,0.05,1.45,0.05
			l3.25,1.2c-0.767,0.966-1.467,1.517-2.1,1.649C92.1,132.15,91.533,132.35,90.8,132.65z"/>
		<path style="fill-rule:evenodd;clip-rule:evenodd;fill:#6D4126;" d="M109.25,108.95c-0.4,0-0.867-0.067-1.4-0.2l-0.699-0.2
			l-0.551-0.95c-0.333-0.667-0.333-1.1,0-1.3c0.5-0.267,1.184-0.533,2.051-0.8l2.1-0.4l1.9,0.4l0.8,0.8l-1.55,1.45L109.25,108.95z"
			/>
		<path style="fill-rule:evenodd;clip-rule:evenodd;fill:#6D4126;" d="M105.65,113.45c-0.334-0.167-0.967-0.25-1.9-0.25
			c-1.066,0.033-1.833,0.05-2.3,0.05c-0.567,0-0.833-0.133-0.8-0.4c0-0.133,0.066-0.267,0.2-0.4l0.5-0.85c0.4-0.567,0.75-0.9,1.05-1
			c0.5-0.133,1.767-0.2,3.8-0.2l1.149,3.5C106.717,113.9,106.15,113.75,105.65,113.45z"/>
		<path style="fill-rule:evenodd;clip-rule:evenodd;fill:#6D4126;" d="M100.85,118.35l1.5-0.399c1.067-0.267,1.817-0.417,2.25-0.45
			c0.4-0.033,0.518,0.217,0.351,0.75c-0.3,0.8-0.45,1.25-0.45,1.35v2.65c0,0.333-0.15,0.684-0.45,1.05
			c-0.466,0.533-0.883,1-1.25,1.4c-0.466,0.533-1.216,0.717-2.25,0.55l-1.399-0.35l-0.95-2.45v-2.25l0.6-1.65L100.85,118.35z"/>
		<path style="fill-rule:evenodd;clip-rule:evenodd;fill:#6D4126;" d="M116.1,131.05l-0.25-0.5c-0.1-0.366,0.051-0.684,0.45-0.95
			l2.851-1.85l0.449-0.8c0.334-0.566,0.617-0.9,0.851-1c0.733-0.3,1.5-0.45,2.3-0.45h1.35c-0.266,0.6-0.55,1.116-0.85,1.55
			c-0.533,0.9-0.767,1-0.7,0.3c0.034-0.267-0.167-0.199-0.6,0.2c-0.967,0.8-1.583,1.283-1.851,1.45c-0.766,0.5-1.266,0.866-1.5,1.1
			c-0.232,0.233-0.5,0.617-0.8,1.15c-0.366,0.667-0.55,1.483-0.55,2.45v7.75l-0.95-5.101c-0.267-1.133-0.399-2.017-0.399-2.649
			C115.9,133.134,115.967,132.25,116.1,131.05z"/>
		<path style="fill-rule:evenodd;clip-rule:evenodd;fill:#6D4126;" d="M123.9,113.45l-1.15,0.45c-0.4,0.133-0.8,0.333-1.2,0.6
			c-0.366,0.2-0.667,0.333-0.899,0.4c-0.268,0.066-0.533,0.233-0.801,0.5c-0.3,0.267-0.533,0.433-0.699,0.5
			c-0.268,0.1-0.518,0.35-0.75,0.75c-0.334,0.533-0.601,0.966-0.801,1.3l-0.75,1.25l0.051-1.5c0.033-1.066,0.083-1.867,0.149-2.4
			c0.101-0.5,0.434-0.934,1-1.3c0.333-0.233,0.767-0.483,1.3-0.75c0.367-0.267,1-0.533,1.9-0.8L123.9,113.45z"/>
		<path style="fill-rule:evenodd;clip-rule:evenodd;fill:#6D4126;" d="M105.65,139.6l1.1-2.449l3.85-0.801l1.301,0.601
			c-0.5,0.533-1.134,1.017-1.9,1.45c-0.467,0.233-0.75,0.716-0.85,1.449c0,0.733-0.033,1.2-0.101,1.4
			c-0.066,0.267-0.316,0.384-0.75,0.35l-0.6-0.149L105.65,139.6z"/>
		<path style="fill-rule:evenodd;clip-rule:evenodd;fill:#55351E;" d="M195.95,57.05l-2.3,2.85l1.199,1.4
			c0.834,1.133,1.334,2.3,1.5,3.5c0.167,1.233,0.2,2.2,0.101,2.9c0,0.033-0.167,0.7-0.5,2c-0.2,1.3-0.4,2.333-0.601,3.1
			c-0.333,1.333-0.899,2.35-1.699,3.05c-0.801,0.667-2.051,0.867-3.75,0.6l-2.301-0.6l4.95-3.7l0.601-1.4
			c0.434-1.133,0.732-2.3,0.899-3.5c0.134-1.033-0.267-1.9-1.2-2.6c-1.1-0.8-1.717-1.566-1.85-2.3L195.95,57.05z"/>
		<path style="fill-rule:evenodd;clip-rule:evenodd;fill:#55351E;" d="M151.4,103.2c0-0.7-0.95-1.317-2.851-1.85l-2.85-0.6l4.2-0.4
			c0.767,0,2.166-2.184,4.199-6.55l2.65,7.35l0.4,6.15l-2.301,5.3c-1.533,2.167-2.55,4.067-3.05,5.7c-0.3,1.033-0.833,1.75-1.6,2.15
			l-1.05,0.3c-1.533-0.267-3.316-0.667-5.351-1.2c-1.333-0.434-2.149-0.684-2.45-0.75c-0.333-0.066-1.166-0.1-2.5-0.1
			c-1.1,0-1.833,0.5-2.199,1.5c-0.367,1.066-0.9,1.666-1.601,1.8c-0.966,0.167-2.583,0.083-4.85-0.25l-3.15-0.6l9.15-3.25l4.2-3.65
			h5.699c1.067,0,1.817-0.417,2.25-1.25c0.268-0.467,0.65-1.283,1.15-2.45C150.767,108.75,151.4,106.3,151.4,103.2z"/>
		<path style="fill-rule:evenodd;clip-rule:evenodd;fill:#55351E;" d="M127.05,147.65c0.2-0.434,0.45-0.817,0.75-1.15l4.2,2.85
			l3.45-0.8l2.649-1.25l3.4,2.45l4.6-1.2l1-1.55c0.7-1.2,1.117-2.316,1.25-3.35c-0.232,4.333-0.6,7.316-1.1,8.949
			c-0.333,1.034-1.383,1.95-3.15,2.75l-2.6,0.95h-3.8c-0.634,0-1.333-0.467-2.101-1.399l-0.949-1.45l-1.5,1.2
			c-0.301,0-0.65-0.051-1.051-0.15c-0.766-0.2-1.3-0.55-1.6-1.05c-0.5-0.967-0.916-1.7-1.25-2.2c-0.566-0.934-1.166-1.566-1.8-1.9
			C126.816,149.017,126.684,148.45,127.05,147.65z"/>
		<path style="fill-rule:evenodd;clip-rule:evenodd;fill:#55351E;" d="M169.7,132.2c1.899,0,3.866-1.15,5.899-3.45
			c1-1.167,1.817-2.333,2.45-3.5l1.15,4.1v7.351l-1.5,7.35l-3.45,6.101l-4.55-1.2c-0.767,2.434-1.4,4.066-1.9,4.899
			c-0.366,0.534-1.216,1.034-2.55,1.5c-1.166,0.367-2.1,0.551-2.8,0.551s-1.767-0.25-3.2-0.75c-1.566-0.601-2.533-1.167-2.9-1.7
			c-0.3-0.533-0.133-0.684,0.5-0.45c0.334,0.1,0.684,0.25,1.051,0.45l2.5-1.05c1.833-0.767,3.149-1.233,3.949-1.4
			c0.801-0.167,0.984-1.1,0.551-2.8c-0.233-0.834-0.533-1.667-0.9-2.5l1.1-1.65l5.75-1.649l0.4-1.851
			c0.233-1.467,0.35-2.883,0.35-4.25c-1.033,0.533-2.183,0.8-3.449,0.8c-1.5,0-3.018-0.267-4.551-0.8c-0.467-0.2-1.05-1-1.75-2.399
			c-0.333-0.733-0.633-1.434-0.899-2.101l2.649,0.2C165.767,132.134,167.8,132.2,169.7,132.2z"/>
		<path style="fill-rule:evenodd;clip-rule:evenodd;fill:#55351E;" d="M142.65,175.1c0.8-0.866,1.3-2.416,1.5-4.649
			c0.1-1.134,0.116-2.184,0.05-3.15l3.8,6.55l-2.3,6.95c-2.267,2.467-4.167,4.233-5.7,5.3c-0.867,0.634-1.333,1.834-1.4,3.601
			c-0.033,1.767-0.199,2.75-0.5,2.95c-0.533,0.366-1.35,0.433-2.449,0.199c-1-0.199-1.834-0.533-2.5-1
			c-1.101-0.8-3.518-1.483-7.25-2.05c-1.5-0.2-2.533-0.35-3.101-0.45c-0.8-0.166-1.533-0.433-2.2-0.8
			c-0.633-0.333-1.717-1.583-3.25-3.75l-2.1-3.2l3.4,2.2c2.833,1.566,5.767,2.617,8.8,3.15c3,0.5,5.1,0.45,6.3-0.15
			c0.6-0.333,0.9-0.7,0.9-1.1l3.5-4.75C140.584,177.65,142.084,175.7,142.65,175.1z"/>
		<path style="fill-rule:evenodd;clip-rule:evenodd;fill:#55351E;" d="M171.95,179.15l1.95-1.9c1.267-1.5,1.899-2.9,1.899-4.2
			c0-0.533-1.833-1.717-5.5-3.55l-5.55-2.6l9.1-0.4c1.134,0,2.684,1.1,4.65,3.3c0.967,1.066,1.834,2.15,2.6,3.25l1.551-11.45
			c1.267,4.634,1.899,8.45,1.899,11.45c0,1.867-0.25,3.233-0.75,4.101c-0.767,0.966-1.417,1.916-1.95,2.85
			c-0.6,1.167-1.399,2.033-2.399,2.6c-1.033,0.434-1.75,0.784-2.15,1.051c-0.8,0.6-2.133,1.233-4,1.899
			c-2.233,0.834-3.95,1.15-5.149,0.95c-1.101-0.167-2.634-1.1-4.601-2.8l-2.6-2.5h4.55L171.95,179.15z"/>
		<path style="fill-rule:evenodd;clip-rule:evenodd;fill:#55351E;" d="M147.05,197.75l-4-1.85h7.601l3.399-1.601
			c2.333-1.1,3.733-1.649,4.2-1.649c0.767,0,1.283,3,1.55,9c0,2.699-0.517,4.733-1.55,6.1c-0.767,1.033-2,2.384-3.7,4.05
			c-1.7,1.667-3.116,2.9-4.25,3.7c-0.933,0.667-2.483,0.733-4.649,0.2c-2.101-0.667-3.351-1-3.75-1
			c-0.9,0.066-1.667,0.116-2.301,0.149c-1.199,0.067-2.333,0.017-3.399-0.149c-1.101-0.167-3.2-1.167-6.3-3l-4.351-2.7l12.55,1.2
			l10.25-0.4l7.25-7.35c-1.266-1.9-2.399-2.851-3.399-2.851C151.566,199.6,149.85,198.983,147.05,197.75z"/>
		<path style="fill-rule:evenodd;clip-rule:evenodd;fill:#55351E;" d="M82.15,200l-3.8-4.5l9.15,3.7l4.55-0.45l4.55-3.25l-7.2-4.1
			l2.25-0.051c1.7-0.066,3.1-0.183,4.2-0.35s1.433-1.233,1-3.2c-0.233-0.967-0.567-1.934-1-2.899l6.85,3.649
			c0.634,0.367,0.95,0.95,0.95,1.75c-0.134,1.033-0.2,1.816-0.2,2.351c0,1.133-0.517,2.333-1.55,3.6
			c-1.334,1.6-3.101,2.583-5.3,2.95c-1.4,0.233-3.133,0.666-5.2,1.3c-1.467,0.467-2.9,0.7-4.3,0.7c-1.567,0-2.867-0.2-3.9-0.601
			L82.15,200z"/>
		<path style="fill-rule:evenodd;clip-rule:evenodd;fill:#55351E;" d="M40.65,204.1l4.95-0.85c0.8-0.167,0.983-1.3,0.55-3.4
			c-0.233-1.033-0.534-2.066-0.9-3.1l5.7,0.8L54,194.3c0,3.8-0.133,6.384-0.4,7.75c-0.2,0.967-1.467,2.05-3.8,3.25
			c-2.233,1.167-4.267,1.851-6.1,2.05c-1.967,0.334-3.267,0.551-3.9,0.65c-1,0.167-1.733,0.083-2.2-0.25
			c-0.467-0.333-1.3-1.45-2.5-3.35l-1.65-2.75L40.65,204.1z"/>
		<path style="fill-rule:evenodd;clip-rule:evenodd;fill:#55351E;" d="M77.2,209h5.7c0.8,0,1.55-0.616,2.25-1.85
			c0.333-0.601,0.6-1.217,0.8-1.851l6.1-0.8c2.534-0.267,5.2-0.684,8-1.25l-1.55,3.3l-7.2,1.2l-0.399,5.3l-3.8,5.351l-8,2
			l-10.65-3.65l4.1,0.85c3.167,0.534,5.867,0.801,8.101,0.801c2.2,0,3.45-0.483,3.75-1.45c0.166-0.533,0.183-1.417,0.05-2.65
			L77.2,209z"/>
		<path style="fill-rule:evenodd;clip-rule:evenodd;fill:#55351E;" d="M115.65,213.5l2.649,2l-2.649,3.7h-4.2
			c-0.8,0-1.983-0.4-3.55-1.2l-2.15-1.25l6.45-0.4L115.65,213.5z"/>
		<g>
			<path style="fill-rule:evenodd;clip-rule:evenodd;fill:#482D1D;" d="M108.4,74l2.25-2c1.566-1.533,2.5-2.7,2.8-3.5
				c0.467-1.333,1.899-3.567,4.3-6.7c-0.7,3.4-1.166,6.55-1.4,9.45c-0.199,2.066-0.6,3.917-1.199,5.55
				c-0.5,1.367-1.434,3.2-2.801,5.5c-0.967,1.667-1.683,3.567-2.149,5.7c-0.533,2.333-0.9,3.733-1.101,4.2
				c-0.366,0.767-1.433,2.05-3.199,3.85c-2.634,2.667-5.05,5.333-7.25,8c-2.7,3.3-5.917,4.75-9.65,4.35
				c-1.167-0.133-2.316-0.433-3.45-0.9l-1.35-0.7h7.55c1.8,0,3.133-0.816,4-2.45c0.467-0.934,1.066-2.35,1.8-4.25
				c0.967-1.6,3.733-4.633,8.3-9.1l0.9-1.6c0.6-1.4,0.9-2.833,0.9-4.3c0-1.867,0.083-3.967,0.25-6.3
				C108.033,76.367,108.2,74.767,108.4,74z"/>
			<path style="fill-rule:evenodd;clip-rule:evenodd;fill:#482D1D;" d="M144.95,85.45c-0.9,0.966-1.55,1.633-1.95,2
				c-0.7,0.633-1.8,1-3.3,1.1c-1.567,0.1-3.601,0.017-6.101-0.25l-3.3-0.45l2.601-0.25c1.934-0.167,3.399-0.25,4.399-0.25
				c1.767,0,4.034-1.517,6.8-4.55c0.367-0.4,0.984-1.083,1.851-2.05c0.8-0.934,1.35-1.85,1.649-2.75
				c0.567-1.733,1.584-3.25,3.051-4.55c0,1.6-0.367,2.8-1.101,3.6c-0.233,0.267-0.899,1.633-2,4.1
				C146.55,83.45,145.684,84.883,144.95,85.45z"/>
			<path style="fill-rule:evenodd;clip-rule:evenodd;fill:#482D1D;" d="M139.7,53.35c-0.634,0.4-1.75,0.25-3.351-0.45l-2.149-1.2
				h2.2c1.467,0,2.85-0.317,4.149-0.95l1.101-0.7c0.767-0.533,1.283-0.95,1.55-1.25c0.3,0.633,0.233,1.2-0.2,1.7
				C141.566,51.933,140.467,52.883,139.7,53.35z"/>
			<path style="fill-rule:evenodd;clip-rule:evenodd;fill:#482D1D;" d="M35.8,143.9c0.967-3.667,1.45-4.584,1.45-2.75
				c0.233,5,0.333,8.316,0.3,9.949c-0.1,2.5-0.8,4.983-2.1,7.45c-0.533,0.967-1.2,1.9-2,2.8c-0.8,0.867-1.483,1.434-2.05,1.7
				c-0.7,0.334-1.517,0.517-2.45,0.55c-1.2,0.034-2.283-0.216-3.25-0.75c-0.9-0.466-2.267-1.5-4.1-3.1l-2.45-2.25l2.1,0.9
				c1.566,0.6,2.8,0.899,3.7,0.899c0.933,0,1.8-0.233,2.6-0.7c0.3-0.199,1-0.75,2.101-1.649c1.466-1.233,2.55-3.2,3.25-5.9
				C33.367,149.184,34.333,146.8,35.8,143.9z"/>
			<path style="fill-rule:evenodd;clip-rule:evenodd;fill:#482D1D;" d="M35.4,175.45c-0.867,0.434-1.584,1.116-2.15,2.05
				c-0.833,1.434-1.45,2.434-1.85,3c-0.634,0.9-1.334,1.6-2.101,2.1c-0.733,0.5-1.45,0.634-2.149,0.4c-0.834-0.467-1.55-0.8-2.15-1
				c-0.733-0.233-1.566-1.184-2.5-2.85l-1.15-2.45l2.9,1.55c0.733,0.4,1.55,0.616,2.45,0.65c0.967,0,1.833-0.217,2.6-0.65
				c1.934-1,2.9-2.05,2.9-3.15c0-0.566,0.217-1.199,0.65-1.899s0.933-1.25,1.5-1.65c0.567-0.399,1.317-0.184,2.25,0.65
				c0.933,0.833,1.15,1.533,0.65,2.1C37.017,174.533,36.4,174.917,35.4,175.45z"/>
		</g>
		<path style="fill-rule:evenodd;clip-rule:evenodd;fill:#55351E;" d="M57.8,71.65c1.9,0.167,2.967,0.8,3.2,1.9
			c0.066,0.267-0.033,1.483-0.3,3.65c-0.167,1.267-1.134,1.6-2.9,1c-1.7-0.534-2.783-1.267-3.25-2.2
			c-0.366-0.867-0.216-1.817,0.45-2.85C55.7,72.05,56.633,71.55,57.8,71.65z"/>
		<path style="fill-rule:evenodd;clip-rule:evenodd;fill:#55351E;" d="M60.35,32.55l2.5,1.45c1.5,1.267,1.867,2.633,1.1,4.1
			c-0.767,1.533-1.85,1.983-3.25,1.35c-0.567-0.267-1.65-1.117-3.25-2.55c-0.867-0.767-0.934-1.633-0.2-2.6
			C57.983,33.333,59.017,32.75,60.35,32.55z"/>
		<path style="fill-rule:evenodd;clip-rule:evenodd;fill:#55351E;" d="M14.1,56.35c1.733-2.167,3.183-2.6,4.35-1.3
			c1.566,1.7,2.433,3.7,2.6,6c0.167,2.434-0.7,4.117-2.6,5.05c-1.8,0.9-3.333,0.783-4.6-0.35c-1.067-0.967-1.7-2.283-1.9-3.95
			C11.75,60.2,12.467,58.383,14.1,56.35z"/>
		<path style="fill-rule:evenodd;clip-rule:evenodd;fill:#55351E;" d="M56.9,107.75c1.1-1.033,2.483-1.217,4.149-0.55
			c2.3,0.866,3.601,2.1,3.9,3.7c0.267,1.233-0.067,2.367-1,3.4c-0.733,0.8-1.733,0.934-3,0.4c-1.267-0.5-2.55-1.55-3.85-3.15
			C55.867,110.05,55.8,108.783,56.9,107.75z"/>
		<path style="fill-rule:evenodd;clip-rule:evenodd;fill:#55351E;" d="M134.75,74.8c2.5,0.733,3.033,1.867,1.6,3.4
			c-1.5,1.533-2.883,1.85-4.149,0.95c-1-0.767-1.067-1.75-0.2-2.95C132.867,75,133.783,74.533,134.75,74.8z"/>
		<path style="fill-rule:evenodd;clip-rule:evenodd;fill:#55351E;" d="M180.95,71.25c1.566,0.566,2.483,1.9,2.75,4
			c0.3,2.033-0.134,3.467-1.3,4.3c-1.033,0.767-2.316,0.633-3.851-0.4c-1.466-0.967-2.583-2.283-3.35-3.95
			c-0.733-1.6-0.467-2.833,0.8-3.7C177.267,70.6,178.917,70.517,180.95,71.25z"/>
		<path style="fill-rule:evenodd;clip-rule:evenodd;fill:#55351E;" d="M171.95,57.85c1.033-0.2,1.733,0.4,2.1,1.8
			c0.333,1.4,0.117,2.5-0.649,3.3c-0.634,0.7-1.301,0.816-2,0.35c-0.4-0.267-1.066-1.033-2-2.3c-0.634-0.867-0.566-1.617,0.199-2.25
			C170.133,58.316,170.917,58.017,171.95,57.85z"/>
		<path style="fill-rule:evenodd;clip-rule:evenodd;fill:#55351E;" d="M142.35,35.7c1.033,0.767,1.551,1.517,1.551,2.25
			c0,0.667-0.4,1.1-1.2,1.3c-0.601,0.167-1.384-0.033-2.351-0.6l-1.25-0.95l0.7-1.65C140.467,35.083,141.316,34.967,142.35,35.7z"/>
		<path style="fill-rule:evenodd;clip-rule:evenodd;fill:#55351E;" d="M167.25,121.8c1.733-0.2,2.684,0.667,2.85,2.601
			c0.167,1.899-0.416,3.267-1.75,4.1c-1.166,0.733-2.116,0.833-2.85,0.3c-0.6-0.434-1.1-1.316-1.5-2.649
			c-0.333-1.134-0.184-2.117,0.45-2.95C165.084,122.4,166.017,121.934,167.25,121.8z"/>
		<path style="fill-rule:evenodd;clip-rule:evenodd;fill:#55351E;" d="M190,134.85c1.467,0,2.233,0.867,2.3,2.601
			c0.067,1.7-0.333,2.666-1.2,2.899c-1.533,0.434-2.982-0.083-4.35-1.55c-0.733-0.8-0.733-1.649,0-2.55
			C187.483,135.316,188.566,134.85,190,134.85z"/>
		<path style="fill-rule:evenodd;clip-rule:evenodd;fill:#55351E;" d="M55.65,119.05c1.966,0,2.983,0.8,3.05,2.4
			c0.033,1.399-0.5,2.7-1.6,3.899c-0.733,0.834-1.617,0.834-2.65,0l-1.3-1.55l0.35-2.35C53.934,119.85,54.65,119.05,55.65,119.05z"
			/>
		<path style="fill-rule:evenodd;clip-rule:evenodd;fill:#5B554D;" d="M57.1,70.05c1.9,0.167,2.966,0.8,3.2,1.9
			c0.067,0.3-0.033,1.517-0.3,3.65c-0.167,1.267-1.15,1.617-2.95,1.05c-1.733-0.566-2.8-1.316-3.2-2.25
			c-0.367-0.833-0.217-1.783,0.45-2.85C55,70.45,55.934,69.95,57.1,70.05z"/>
		<path style="fill-rule:evenodd;clip-rule:evenodd;fill:#5B554D;" d="M59.65,31l2.5,1.4c1.5,1.267,1.866,2.633,1.1,4.1
			c-0.767,1.533-1.85,1.983-3.25,1.35c-0.566-0.267-1.65-1.117-3.25-2.55c-0.867-0.733-0.934-1.6-0.2-2.6
			C57.283,31.767,58.316,31.2,59.65,31z"/>
		<path style="fill-rule:evenodd;clip-rule:evenodd;fill:#5B554D;" d="M17.75,53.5c1.566,1.733,2.417,3.717,2.55,5.95
			c0.167,2.466-0.683,4.167-2.55,5.1c-1.8,0.9-3.333,0.767-4.6-0.4c-1.067-0.967-1.7-2.283-1.9-3.95
			c-0.233-1.567,0.483-3.384,2.15-5.45C15.1,52.617,16.55,52.2,17.75,53.5z"/>
		<path style="fill-rule:evenodd;clip-rule:evenodd;fill:#5B554D;" d="M60.35,105.6c2.267,0.9,3.567,2.133,3.9,3.7
			c0.267,1.3-0.066,2.434-1,3.4c-0.733,0.8-1.75,0.933-3.05,0.4c-1.267-0.534-2.533-1.583-3.8-3.15c-1.233-1.5-1.3-2.767-0.2-3.8
			C57.267,105.117,58.65,104.933,60.35,105.6z"/>
		<path style="fill-rule:evenodd;clip-rule:evenodd;fill:#5B554D;" d="M134,73.25c2.5,0.7,3.033,1.816,1.6,3.35
			c-1.5,1.566-2.866,1.883-4.1,0.95c-1-0.733-1.066-1.716-0.2-2.95C132.167,73.4,133.066,72.95,134,73.25z"/>
		<path style="fill-rule:evenodd;clip-rule:evenodd;fill:#5B554D;" d="M180.25,69.7c1.566,0.566,2.483,1.9,2.75,4
			c0.267,2.033-0.166,3.45-1.3,4.25c-1.033,0.767-2.333,0.65-3.9-0.35c-1.466-0.967-2.583-2.284-3.35-3.95
			c-0.7-1.633-0.434-2.883,0.8-3.75C176.517,69,178.184,68.933,180.25,69.7z"/>
		<path style="fill-rule:evenodd;clip-rule:evenodd;fill:#5B554D;" d="M171.2,56.25c1.066-0.2,1.767,0.417,2.1,1.85
			c0.333,1.367,0.117,2.466-0.649,3.3c-0.634,0.7-1.283,0.817-1.95,0.35c-0.4-0.3-1.067-1.083-2-2.35
			c-0.634-0.867-0.567-1.6,0.2-2.2C169.434,56.733,170.2,56.417,171.2,56.25z"/>
		<path style="fill-rule:evenodd;clip-rule:evenodd;fill:#5B554D;" d="M141.6,34.15c1.033,0.733,1.551,1.467,1.551,2.2
			c0,0.7-0.4,1.15-1.2,1.35c-0.601,0.167-1.384-0.05-2.351-0.65l-1.25-0.95l0.75-1.65C139.767,33.517,140.6,33.417,141.6,34.15z"/>
		<path style="fill-rule:evenodd;clip-rule:evenodd;fill:#5B554D;" d="M166.5,120.2c1.733-0.167,2.7,0.717,2.9,2.649
			c0.166,1.9-0.434,3.267-1.801,4.101c-1.166,0.733-2.1,0.833-2.8,0.3c-0.6-0.434-1.1-1.333-1.5-2.7
			c-0.366-1.133-0.233-2.116,0.4-2.95C164.334,120.833,165.267,120.366,166.5,120.2z"/>
		<path style="fill-rule:evenodd;clip-rule:evenodd;fill:#5B554D;" d="M189.3,133.25c1.467,0,2.233,0.884,2.3,2.65
			c0.033,1.699-0.383,2.666-1.25,2.899c-1.566,0.434-3-0.1-4.3-1.6c-0.733-0.8-0.733-1.65,0-2.55
			C186.783,133.717,187.867,133.25,189.3,133.25z"/>
		<path style="fill-rule:evenodd;clip-rule:evenodd;fill:#5B554D;" d="M54.95,117.45c1.933,0,2.933,0.816,3,2.45
			c0.066,1.399-0.45,2.699-1.55,3.899c-0.767,0.8-1.667,0.783-2.7-0.05l-1.3-1.55l0.35-2.351
			C53.184,118.25,53.917,117.45,54.95,117.45z"/>
		<path style="fill-rule:evenodd;clip-rule:evenodd;fill:#514C45;" d="M57.1,70.05c1.9,0.167,2.966,0.8,3.2,1.9
			c0.067,0.3-0.033,1.517-0.3,3.65c-0.167,1.267-1.15,1.617-2.95,1.05c-1.733-0.566-2.8-1.316-3.2-2.25
			c-0.367-0.833-0.217-1.783,0.45-2.85C55,70.45,55.934,69.95,57.1,70.05z"/>
		<path style="fill-rule:evenodd;clip-rule:evenodd;fill:#514C45;" d="M60.2,32.55l2.15,1.1c1.267,1,1.583,2.067,0.95,3.2
			c-0.667,1.2-1.6,1.55-2.8,1.05c-0.434-0.2-1.35-0.85-2.75-1.95c-0.733-0.6-0.783-1.284-0.15-2.05
			C58.2,33.167,59.066,32.717,60.2,32.55z"/>
		<path style="fill-rule:evenodd;clip-rule:evenodd;fill:#514C45;" d="M18.05,56.1c1.4,1.333,2.15,2.883,2.25,4.65
			c0.167,1.9-0.583,3.2-2.25,3.9c-1.566,0.7-2.917,0.6-4.05-0.3c-0.934-0.733-1.5-1.75-1.7-3.05c-0.167-1.233,0.467-2.65,1.9-4.25
			C15.733,55.417,17.017,55.1,18.05,56.1z"/>
		<path style="fill-rule:evenodd;clip-rule:evenodd;fill:#514C45;" d="M60.85,107.9c1.966,0.633,3.1,1.5,3.4,2.6
			c0.233,0.9-0.066,1.7-0.9,2.4c-0.633,0.567-1.517,0.667-2.65,0.3c-1.134-0.367-2.25-1.117-3.35-2.25
			c-1.067-1.067-1.117-1.967-0.15-2.7C58.133,107.55,59.35,107.433,60.85,107.9z"/>
		<path style="fill-rule:evenodd;clip-rule:evenodd;fill:#514C45;" d="M134.15,74.25c2.333,0.6,2.833,1.517,1.5,2.75
			c-1.4,1.267-2.684,1.533-3.851,0.8c-0.966-0.6-1.033-1.4-0.2-2.4C132.434,74.4,133.283,74.017,134.15,74.25z"/>
		<path style="fill-rule:evenodd;clip-rule:evenodd;fill:#514C45;" d="M180.7,71.9c1.333,0.434,2.116,1.434,2.35,3
			c0.2,1.5-0.183,2.567-1.149,3.2c-0.867,0.566-1.95,0.466-3.25-0.3c-1.233-0.733-2.167-1.716-2.801-2.95
			c-0.6-1.2-0.366-2.117,0.7-2.75C177.617,71.433,179,71.367,180.7,71.9z"/>
		<path style="fill-rule:evenodd;clip-rule:evenodd;fill:#514C45;" d="M171.2,57.4c1.066-0.167,1.767,0.317,2.1,1.45
			s0.117,2.033-0.649,2.7c-0.634,0.567-1.283,0.667-1.95,0.3c-0.4-0.233-1.067-0.867-2-1.9c-0.634-0.7-0.567-1.3,0.2-1.8
			C169.434,57.783,170.2,57.533,171.2,57.4z"/>
		<path style="fill-rule:evenodd;clip-rule:evenodd;fill:#514C45;" d="M141.85,36.2c0.9,0.433,1.351,0.85,1.351,1.25
			c0,0.4-0.333,0.65-1,0.75c-0.533,0.1-1.233-0.017-2.101-0.35L139,37.3l0.65-0.9C140.25,35.867,140.983,35.8,141.85,36.2z"/>
		<path style="fill-rule:evenodd;clip-rule:evenodd;fill:#514C45;" d="M167,122.2c1.434-0.134,2.217,0.5,2.35,1.899
			c0.134,1.4-0.35,2.4-1.449,3c-0.967,0.534-1.75,0.601-2.351,0.2c-0.466-0.3-0.866-0.95-1.2-1.95
			c-0.3-0.833-0.183-1.55,0.351-2.149C165.2,122.634,165.967,122.3,167,122.2z"/>
		<path style="fill-rule:evenodd;clip-rule:evenodd;fill:#514C45;" d="M189.7,135.15c1.2,0,1.833,0.6,1.899,1.8
			c0.033,1.166-0.3,1.833-1,2c-1.3,0.267-2.5-0.101-3.6-1.101c-0.566-0.566-0.566-1.149,0-1.75
			C187.633,135.467,188.533,135.15,189.7,135.15z"/>
		<path style="fill-rule:evenodd;clip-rule:evenodd;fill:#514C45;" d="M55.3,119.45c1.733,0,2.617,0.583,2.65,1.75
			c0.066,0.967-0.384,1.883-1.35,2.75c-0.667,0.6-1.45,0.583-2.35-0.05L53.1,122.8l0.3-1.649
			C53.8,120.017,54.434,119.45,55.3,119.45z"/>
		<path style="fill-rule:evenodd;clip-rule:evenodd;fill:#6D4126;" d="M24.6,93.35c-0.6,0.333-0.967,0.117-1.1-0.65
			c-0.066-0.4-0.066-0.833,0-1.3l1.05-2.7c0.9-2.2,1.884-4.2,2.95-6c0.967-1.7,1.934-2.483,2.9-2.35c1.7,0.167,2.767,0.167,3.2,0
			l5.8-2.4c1.933,0,3.017,0.267,3.25,0.8c-0.367,0.733-0.784,1.45-1.25,2.15c-0.967,1.367-1.75,1.967-2.351,1.8
			c-0.533-0.167-0.95,0.3-1.25,1.4c-0.533,1.867-0.966,3.117-1.3,3.75c-0.533,1.433-0.867,2.283-1,2.55
			c-0.133,0.3-0.633,0.367-1.5,0.2c-1.467-0.267-2.917-0.4-4.35-0.4c-0.7,0-1.584,0.433-2.65,1.3C25.6,92.633,24.8,93.25,24.6,93.35
			z"/>
		<path style="fill-rule:evenodd;clip-rule:evenodd;fill:#6D4126;" d="M94.3,83.1c0.467-2.367,1.667-5.133,3.601-8.3
			c0.966,3.967,1.333,6.6,1.1,7.9c-0.133,0.833-0.6,1.95-1.4,3.35l-1.15,1.8c-0.967,2.9-2.167,5.133-3.6,6.7
			c-0.9,0.967-2.2,1.467-3.9,1.5l-8-1.5c-2.4-0.5-2.517-0.917-0.35-1.25c1.067-0.167,2.383-0.283,3.95-0.35l6.15-3.9l1.65-2.3
			C93.517,85.05,94.167,83.833,94.3,83.1z"/>
		<path style="fill-rule:evenodd;clip-rule:evenodd;fill:#6D4126;" d="M74.4,130.2c-0.2,0.434-0.733,0.866-1.601,1.3l-1.25,0.5
			c-0.3,1.233-1,2.2-2.1,2.9l-2.4,1.3l0.45-2.05c0.367-1.5,0.7-2.634,1-3.4c0.267-0.733,0.733-1.283,1.4-1.65
			c1.333-0.733,2.05-1.133,2.149-1.199c1.101-0.867,1.967-1.4,2.601-1.601c1.466,0.134,2.183,0.566,2.149,1.3l-0.5,1.051
			C75.367,128.983,74.733,129.5,74.4,130.2z"/>
		<path style="fill-rule:evenodd;clip-rule:evenodd;fill:#6D4126;" d="M27.95,127.45c2-0.601,3.533-0.25,4.6,1.05
			c0.534,0.667,0.867,1.384,1,2.15l-1.1-1.15c-0.4-0.434-1.233-0.167-2.5,0.8c-1.533,1.167-2.567,1.783-3.1,1.851
			c-0.767,0.1-1.034,0.517-0.8,1.25l0.55,1.05c-1.433,0-3.117,0.1-5.05,0.3c-1.033,0.1-1.75,0.634-2.149,1.6
			c-0.5,1.2-1.217,2.034-2.15,2.5c-1.233,0.601-2,1.851-2.3,3.75l-0.1,2.65l-0.25-4.35c0-1.167,0.617-3.317,1.85-6.45l6.15-4.05
			L27.95,127.45z"/>
		<path style="fill-rule:evenodd;clip-rule:evenodd;fill:#6D4126;" d="M11.45,107.8c1.533,0.4,2.116,0.6,1.75,0.6
			c-0.167,0-0.567,0.283-1.2,0.85c-0.667,0.566-1.184,0.85-1.55,0.85c-0.4,0-1.1,0.716-2.1,2.15L7,114.35l0.15-1.1
			c0.1-0.8,0.233-1.417,0.399-1.85l0.2-0.45c0.233-0.367,0.417-0.733,0.55-1.1c0.067-0.233,0.15-0.567,0.25-1
			c0.101-0.3,0.534-0.55,1.3-0.75C10.483,107.9,11.017,107.8,11.45,107.8z"/>
		<path style="fill-rule:evenodd;clip-rule:evenodd;fill:#6D4126;" d="M99.7,159.4l-2.45,3.199l0.9-4.699l0.8-2.25
			c0.6-1.5,1.083-2.301,1.45-2.4c0.6-0.167,1.183-0.417,1.75-0.75l3.6,0.25l1.8-2.95c0.233-0.3,0.567-0.833,1-1.6
			c0.434-0.566,0.934-0.851,1.5-0.851c0.9,0,1.95-0.083,3.15-0.25c-0.9,1.301-1.8,2.034-2.7,2.2c-1.133,0.2-1.967,1.017-2.5,2.45
			l-0.65,2.5l2,0.95c-0.666,0.166-1.366,0.316-2.1,0.45c-1.467,0.233-2.333,0.25-2.6,0.05c-0.367-0.267-0.9-0.384-1.601-0.351
			c-0.767,0.034-1.35,0.233-1.75,0.601c-0.333,0.267-0.616,0.816-0.85,1.649C100.15,158.533,99.9,159.134,99.7,159.4z"/>
		<path style="fill-rule:evenodd;clip-rule:evenodd;fill:#6D4126;" d="M32.2,165.4c0.866,0,1.133,0.633,0.8,1.899
			c-0.3,1.2-0.833,2.117-1.6,2.75c-0.334,0.267-0.7,0.9-1.101,1.9c-0.333,0.8-0.95,1.434-1.85,1.899c-1,0.467-1.833,0.601-2.5,0.4
			c-0.634-0.366-1.134-0.6-1.5-0.7c-0.434-0.133-1.05-0.416-1.85-0.85l-1.05-0.601l0.8-0.699c0.667-0.634,1.283-1.384,1.85-2.25
			c0.467-0.667,0.717-0.95,0.75-0.851c0.133,0.3,0.5,0.3,1.1,0c0.634-0.3,1.217-0.5,1.75-0.6c0.534-0.101,1.117-0.283,1.75-0.55
			C30.783,166.55,31.667,165.967,32.2,165.4z"/>
		<path style="fill-rule:evenodd;clip-rule:evenodd;fill:#6D4126;" d="M61.75,170.9c-0.9-0.101-1.55,0.283-1.95,1.149
			c-0.466,1.033-0.733,1.566-0.8,1.601c-0.3,0.1-0.517,0.533-0.65,1.3l-0.1,1.149l-1-0.55c-1.066-0.633-2.05-0.1-2.95,1.601
			c-0.399,0.8-0.983,1.583-1.75,2.35l-1,0.95l0.05-2.4c0.033-1.7,0.1-2.899,0.2-3.6c0.101-0.601,0.867-1.134,2.3-1.601
			c1.833-0.6,2.966-1.066,3.4-1.399c0.733-0.566,1.667-0.834,2.8-0.8C60.867,170.684,61.35,170.767,61.75,170.9z"/>
		<path style="fill-rule:evenodd;clip-rule:evenodd;fill:#6D4126;" d="M74.2,159.05c-1-0.467-1.934-0.684-2.8-0.649l-1,0.199
			l2.6-1.949l1.55-0.551c1.267-0.366,2.467-0.55,3.601-0.55c1.866,0,3.649-0.133,5.35-0.399l3.6-0.9l3,0.45l-0.8,0.649
			c-0.633,0.567-1.167,1.051-1.6,1.45c-0.8,0.7-1.533,1.233-2.2,1.601c-0.667,0.399-1.033,0.616-1.1,0.649c-0.034,0-0.267,0-0.7,0
			l-2.95-0.25c-1.333,0.867-2.333,1.3-3,1.3c-0.533,0-0.95-0.05-1.25-0.149C76.1,159.85,75.333,159.55,74.2,159.05z"/>
		<path style="fill-rule:evenodd;clip-rule:evenodd;fill:#6D4126;" d="M139.7,42.8c0.634,0,1.417,0.133,2.35,0.4
			c0.967,0.233,1.2,0.35,0.7,0.35c-0.367,0-0.867,0.167-1.5,0.5l-0.9,0.45c-1.033,0.967-1.916,1.683-2.649,2.15
			c-0.4,0.267-0.817,0.367-1.25,0.3c-0.567-0.1-0.95-0.117-1.15-0.05c-0.366,0.1-0.767,0.483-1.2,1.15l-0.55,1v-3.1
			c0-0.7,0.55-1.2,1.65-1.5c0.566-0.134,1.116-0.2,1.649-0.2l1.15-0.7C138.8,43.05,139.367,42.8,139.7,42.8z"/>
		<path style="fill-rule:evenodd;clip-rule:evenodd;fill:#6D4126;" d="M133.55,83.85c0.733-0.8,1.467-2.317,2.2-4.55l1.75-2.6
			l2.4-1.45l4.35-0.95c0.667,0,1.517,0.167,2.55,0.5c1.067,0.3,1.317,0.45,0.75,0.45c-0.466,0-1.083,0.316-1.85,0.95l-1,0.95
			l-2.2,0.75h-1.75c-0.666,0-1.166,0.1-1.5,0.3c-0.733,0.433-1.25,0.716-1.55,0.85c-0.7,0.3-0.967,0.767-0.8,1.4
			c0.267,1.033,0.383,1.616,0.35,1.75c-0.066,0.5,0.133,0.966,0.6,1.4c0.234,0.233,0.467,0.4,0.7,0.5c-1.6,0-2.683,0.083-3.25,0.25
			c-0.3,0.1-1.033,0.7-2.2,1.8c-0.933,0.934-1.366,1.283-1.3,1.05C132.2,85.8,132.783,84.683,133.55,83.85z"/>
		<path style="fill-rule:evenodd;clip-rule:evenodd;fill:#6D4126;" d="M187.3,97.3c-0.733-0.267-1.399-0.4-2-0.4
			c-0.733,0-1.5,0.533-2.3,1.6l-0.95,1.6v-4.35l1.05-0.8c0.9-0.667,1.884-1.333,2.95-2c0.601-0.367,1.467-1.017,2.601-1.95
			c0.633-0.533,1.199-0.8,1.699-0.8c1.301,0,2.167,0.35,2.601,1.05c0.366,0.667,0.233,1.117-0.4,1.35
			c-0.366,0.133-0.816,0.633-1.35,1.5c-0.667,1.1-1.3,1.917-1.9,2.45C188.566,97.183,187.9,97.433,187.3,97.3z"/>
		<path style="fill-rule:evenodd;clip-rule:evenodd;fill:#6D4126;" d="M83.1,39.65l3.25-1.55c-0.467,2.367-1.067,3.933-1.8,4.7
			c-0.6,0.733-1.05,1.267-1.35,1.6c-0.533,0.567-1.167,1.1-1.9,1.6c-1.7,0.767-3.149,1.683-4.35,2.75
			c-0.733,0.667-1.067,2.383-1,5.15l0.3,3.95l-2.2-7.15l1.851-5.5l4.649-2.75c1.2-0.667,1.983-1.333,2.351-2
			C83.1,40.117,83.167,39.85,83.1,39.65z"/>
		<path style="fill-rule:evenodd;clip-rule:evenodd;fill:#6D4126;" d="M121.65,78.2c0.3-0.233,0.833-0.083,1.6,0.45l-1.45,1.4
			c-0.667,1.067-1.283,1.867-1.85,2.4l-3.601,2.8l1.551-1.7c0.3-0.333,0.633-1.066,1-2.2l1.449-1.9L121.65,78.2z"/>
		<path style="fill-rule:evenodd;clip-rule:evenodd;fill:#6D4126;" d="M143.45,140.6c1.134,0.867,2.017,1.75,2.649,2.65l-2.3,0.8
			l-4.55-0.399l-1.55,1.199c-0.634,0.534-1,0.417-1.101-0.35c-0.066-0.366-0.066-0.783,0-1.25l-3.449-0.85
			c-1,0.566-2.018,0.699-3.051,0.399c-0.633-0.166-0.633-0.684,0-1.55c0.334-0.467,0.717-0.9,1.15-1.3l1.5-1
			c1.233-0.7,2.383-1.05,3.45-1.05C138.733,137.9,141.15,138.8,143.45,140.6z"/>
		<path style="fill-rule:evenodd;clip-rule:evenodd;fill:#6D4126;" d="M142.65,101.95l4.6,2.05l-4.2,2.9
			c-1.033,1.633-1.8,2.983-2.3,4.05c-0.3,0.667-0.75,0.933-1.35,0.8c-0.733-0.267-1.301-0.4-1.7-0.4c-1.3,0-3.2,0.816-5.7,2.45
			c-1.367,0.9-2.166,1.25-2.4,1.05c-0.166-0.133-0.116-0.616,0.15-1.45c0.233-0.8,2-2.433,5.3-4.9l3.8-0.8l1.45-1.95
			C141.4,104.25,142.184,102.983,142.65,101.95z"/>
		<path style="fill-rule:evenodd;clip-rule:evenodd;fill:#6D4126;" d="M147.55,95.2l1.2-2.6l2.3-0.45
			C149.338,93.076,148.172,94.093,147.55,95.2z"/>
		<path style="fill-rule:evenodd;clip-rule:evenodd;fill:#6D4126;" d="M137.35,166.9l2.7,0.6c1.7,0.467,2.317,0.95,1.851,1.45
			c-0.334,0.366-1.051,0.833-2.15,1.399c-1.3,0.667-2.483,1.434-3.55,2.301c-1.267,1.033-2.533,1.949-3.8,2.75l-1.551,0.899H124
			c-2.511,0-4.203,0.267-5.075,0.8l-0.625,1.25l0.3-1c0.092-0.087,0.199-0.17,0.325-0.25l2.025-4.05l3.05-3.3l2.25-0.8
			c1.967-0.533,4.133-0.8,6.5-0.8s3.617-0.051,3.75-0.15S136.917,167.533,137.35,166.9z"/>
		<path style="fill-rule:evenodd;clip-rule:evenodd;fill:#6D4126;" d="M130,186.1l-6.35-3.25l3.8-0.399l1.399-0.4
			c1.067-0.399,2-0.95,2.801-1.649l4.949,1.199c-0.766,1.634-1.916,3-3.449,4.101C132.184,186.4,131.133,186.533,130,186.1z"/>
		<path style="fill-rule:evenodd;clip-rule:evenodd;fill:#6D4126;" d="M86.15,191.25c-1-0.566-1.7-0.917-2.101-1.05
			c-0.466-0.167-0.417-0.834,0.15-2c0.3-0.566,0.633-1.134,1-1.7l1.65-0.65c1.267-0.433,2.367-0.75,3.3-0.949
			c1.267-0.267,3.166-0.267,5.7,0l-1.15,3.25c-1.767,1.633-3.533,2.716-5.3,3.25C88.3,191.767,87.217,191.717,86.15,191.25z"/>
		<path style="fill-rule:evenodd;clip-rule:evenodd;fill:#6D4126;" d="M81.4,192.25l8,3.25c-0.767,1.634-1.4,2.866-1.9,3.7
			c-0.333,0.5-1.316,0.316-2.95-0.55l-2.399-1.5c-1.267-0.834-2.534-1.384-3.8-1.65c-1-0.2-1.167-0.733-0.5-1.6
			C78.583,193,79.767,192.45,81.4,192.25z"/>
		<path style="fill-rule:evenodd;clip-rule:evenodd;fill:#6D4126;" d="M42.55,191.4l1.3-0.4c1.067-0.267,2.167-0.4,3.3-0.4
			l2.899,1.95c1.833,1.367,2.517,2.217,2.05,2.55c-0.467,0.334-1.117,0.5-1.95,0.5c-1-0.066-1.75-0.1-2.25-0.1
			c-0.534,0-1.367-0.2-2.5-0.6c-1.134-0.4-1.95-0.601-2.45-0.601c-0.634,0-0.884-0.483-0.75-1.45
			C42.267,192.384,42.383,191.9,42.55,191.4z"/>
		<path style="fill-rule:evenodd;clip-rule:evenodd;fill:#6D4126;" d="M35.35,197.15c4.433-0.167,7.35,0.333,8.75,1.5
			c0.7,0.566,0.95,1.149,0.75,1.75l-4.2,2.05H36.1c-0.267-0.267-0.567-0.684-0.9-1.25c-0.7-1.066-1.283-2.283-1.75-3.65
			c-0.4-1.166-0.467-1.633-0.2-1.399C34.05,196.816,34.75,197.15,35.35,197.15z"/>
		<path style="fill-rule:evenodd;clip-rule:evenodd;fill:#6D4126;" d="M77.95,202.85c0.5,0,1.9,1.233,4.2,3.7l-3.05,0.8l-4.2-1.199
			l0.8-2.9L77.95,202.85z"/>
		<path style="fill-rule:evenodd;clip-rule:evenodd;fill:#6D4126;" d="M72.25,211.05l6.85,4.9l-5.3,2l-5.35-1.2l0.75-4.9l0.95-0.399
			C70.917,211.184,71.617,211.05,72.25,211.05z"/>
		<path style="fill-rule:evenodd;clip-rule:evenodd;fill:#6D4126;" d="M139.5,204.45l-10.15,0.05c-0.967,0-1-0.616-0.1-1.85
			c0.434-0.601,0.967-1.217,1.6-1.851l3.801-3.649l5.449,1.05c3.801,0.666,6.184,1,7.15,1c0.934,0,1.467,0.416,1.6,1.25l-0.1,1.2
			c-2.033,1.333-3.684,2.149-4.95,2.449C143,204.267,141.566,204.384,139.5,204.45z"/>
		<path style="fill-rule:evenodd;clip-rule:evenodd;fill:#6D4126;" d="M144.95,193.05c-0.634,0-1.267-0.467-1.9-1.399l-0.75-1.45
			l3.9-1.2c2.767-0.833,4.634-1.25,5.6-1.25c0,0.767-0.116,1.533-0.35,2.3c-0.434,1.566-1.2,2.434-2.3,2.601
			C147.35,192.917,145.95,193.05,144.95,193.05z"/>
		<path style="fill-rule:evenodd;clip-rule:evenodd;fill:#6D4126;" d="M166.65,177.95c-1.101,0.1-2.518,0-4.25-0.3l-2.25-0.5
			l-0.351-4.101l2.65-4.1l5.35,1.25c0.634,1.233,1.067,2.483,1.3,3.75C169.533,176.45,168.717,177.783,166.65,177.95z"/>
		<path style="fill-rule:evenodd;clip-rule:evenodd;fill:#6D4126;" d="M177.7,157.95l1.899,3.649c-0.533,0.834-1.3,1.25-2.3,1.25
			c-1.7-0.066-3.133-0.116-4.3-0.149c-2.233-0.066-3.583-0.017-4.05,0.149c-0.467,0.167-1.317,0.084-2.55-0.25l-1.65-0.6l8.75-3.65
			L177.7,157.95z"/>
		<path style="fill-rule:evenodd;clip-rule:evenodd;fill:#6D4126;" d="M159.05,137.5l3.4,2.85l0.399,2.45
			c-1.533,0.566-2.55,1.384-3.05,2.45c-0.3,0.7-0.783,1.583-1.45,2.65l-0.85,1.449L156,145.7l1.05-5.9
			C157.417,138.8,158.084,138.033,159.05,137.5z"/>
	</g>
	<path style="fill-rule:evenodd;clip-rule:evenodd;fill:#482D1D;" d="M120.15,4.4l0.449,0.45c1.867,0.966,4.934,1.55,9.2,1.75
		c5.034,0.2,8.284,0.483,9.75,0.85c2.4,0.633,5.101,1.116,8.101,1.45c1.566,0.167,4.35,0.383,8.35,0.65
		c1.667,0.133,4.017,0.267,7.05,0.4c2.567,0.267,4.817,0.866,6.75,1.8c1.233,0.6,2.617,1.517,4.15,2.75
		c2.2,1.733,3.483,2.733,3.85,3c1,0.667,2.184,1.15,3.55,1.45c0.768,0.167,1.984,0.4,3.65,0.7c1.367,0.367,3,1,4.9,1.9
		c1.066,0.5,2.649,1.267,4.75,2.3c1.8,0.867,3.133,1.716,4,2.55c0.967,0.934,1.85,2.283,2.649,4.05c1.101,2.333,1.733,3.733,1.9,4.2
		c0.634,1.767,0.833,3.317,0.6,4.65c-1.466-0.667-3.35-1.867-5.649-3.6c-2.634-2-4.5-3.317-5.601-3.95
		c-0.233-0.133-0.899-0.417-2-0.85c-0.966-0.367-1.566-0.65-1.8-0.85c-0.4-0.367-0.867-1.033-1.4-2
		c-0.467-0.867-0.982-1.45-1.55-1.75c-0.566-0.333-1.316-0.483-2.25-0.45c-1.5,0.033-2.283,0.05-2.35,0.05
		c-1.101-0.133-2.4-0.483-3.9-1.05c-2.333-0.867-3.6-1.333-3.8-1.4c-0.666-0.2-2.184-0.733-4.55-1.6
		c-1.934-0.733-3.483-1.233-4.65-1.5c-1.6-0.367-4.3-0.75-8.1-1.15c-3.5-0.4-6.15-0.85-7.95-1.35c-1.533-0.434-3.633-0.617-6.3-0.55
		c-2.967,0.034-5.05-0.05-6.25-0.25c-1-0.167-2.9-0.733-5.7-1.7c-2.333-0.8-4.333-1.217-6-1.25c-12.2-0.2-21.333-0.067-27.4,0.4
		c-1.133,0.1-4.45,0.15-9.95,0.15c-4.267,0-7.534,0.233-9.8,0.7c-1.034,0.233-2.75,0.85-5.15,1.85c-2.1,0.833-3.85,1.333-5.25,1.5
		l-6,0.85c-1.9,0.3-3.583,0.767-5.05,1.4c-0.601,0.267-2.184,1.1-4.75,2.5c-1.134,0.633-3.101,1.267-5.9,1.9S40,26.6,38.9,27.2
		c-0.4,0.233-0.934,0.733-1.601,1.5c-0.633,0.8-1.216,1.35-1.75,1.65c-0.3,0.167-0.833,0.283-1.6,0.35
		c-0.767,0.033-1.3,0.133-1.6,0.3c-0.833,0.4-1.667,1.05-2.5,1.95c-1.034,1.066-1.784,1.767-2.25,2.1
		c-0.667,0.467-1.85,0.983-3.55,1.55c-1.733,0.566-2.95,1.083-3.649,1.55c-1.4,1.133-2.417,1.883-3.05,2.25
		c-0.967,0.633-2.183,0.983-3.65,1.05c-2.467,0.167-4.634,0.116-6.5-0.15c-0.467-2.133-0.067-4.45,1.2-6.95
		c1.166-2.367,2.649-4.067,4.45-5.1c0.767-0.434,2.017-0.883,3.75-1.35c1.833-0.467,3.1-0.883,3.8-1.25
		c1.433-0.7,3.25-1.65,5.45-2.85c1.833-0.833,3.783-1.283,5.85-1.35c0.3-1.134,1.183-2.184,2.65-3.15
		c1.067-0.733,2.317-1.35,3.75-1.85c0.3-0.1,0.983-0.267,2.05-0.5c0.833-0.2,1.533-0.45,2.1-0.75c0.4-0.2,1.217-0.8,2.45-1.8
		c0.967-0.8,1.833-1.3,2.6-1.5c1.3-0.367,3.601-0.65,6.9-0.85c2.933-0.2,5.25-0.65,6.95-1.35c1.833-0.733,3.8-1.317,5.899-1.75
		c1.267-0.267,3.284-0.617,6.05-1.05c1.233-0.233,4.75-0.566,10.55-1C87.883,6.533,91.333,5.833,94,4.8c3.3-1.3,7.633-1.7,13-1.2
		C114.133,4.267,118.517,4.533,120.15,4.4z"/>
	<path style="fill-rule:evenodd;clip-rule:evenodd;fill:#5F4B23;" d="M120.15,1.05l0.449,0.4c1.867,1,4.934,1.6,9.2,1.8
		c5.067,0.2,8.317,0.483,9.75,0.85c2.434,0.6,5.134,1.066,8.101,1.4c1.767,0.2,4.55,0.433,8.35,0.7
		c1.667,0.133,4.017,0.267,7.05,0.4c2.567,0.267,4.817,0.867,6.75,1.8c1.233,0.6,2.617,1.5,4.15,2.7c2.1,1.7,3.384,2.7,3.85,3
		c1,0.7,2.184,1.183,3.55,1.45c0.768,0.167,1.984,0.4,3.65,0.7c1.4,0.367,3.033,1,4.9,1.9c1.066,0.5,2.649,1.283,4.75,2.35
		c1.8,0.867,3.133,1.717,4,2.55c0.967,0.934,1.85,2.267,2.649,4c1.134,2.434,1.767,3.85,1.9,4.25c0.634,1.767,0.833,3.317,0.6,4.65
		c-1.466-0.667-3.35-1.884-5.649-3.65c-2.601-1.966-4.467-3.267-5.601-3.9c-2.133-0.8-3.399-1.383-3.8-1.75s-0.867-1.033-1.4-2
		c-0.467-0.833-0.982-1.417-1.55-1.75c-0.566-0.3-1.316-0.433-2.25-0.4c-1.433,0.033-2.216,0.05-2.35,0.05
		c-1.101-0.133-2.4-0.483-3.9-1.05c-2.333-0.867-3.6-1.333-3.8-1.4c-0.666-0.2-2.184-0.733-4.55-1.6
		c-1.934-0.733-3.483-1.233-4.65-1.5c-1.6-0.367-4.3-0.75-8.1-1.15c-3.5-0.4-6.15-0.85-7.95-1.35c-1.533-0.4-3.633-0.583-6.3-0.55
		c-2.934,0.033-5.017-0.067-6.25-0.3c-1.033-0.167-2.934-0.733-5.7-1.7c-2.333-0.8-4.333-1.217-6-1.25
		c-12.566-0.134-21.7,0.017-27.4,0.45c-1.1,0.067-4.417,0.1-9.95,0.1c-4.233,0-7.5,0.25-9.8,0.75c-1.1,0.233-2.817,0.833-5.15,1.8
		c-2.1,0.867-3.85,1.383-5.25,1.55c-0.867,0.1-2.867,0.383-6,0.85c-1.9,0.3-3.583,0.767-5.05,1.4c-0.601,0.267-2.184,1.1-4.75,2.5
		c-1.101,0.6-3.067,1.216-5.9,1.85c-2.767,0.633-4.717,1.267-5.85,1.9c-0.4,0.233-0.934,0.733-1.601,1.5
		c-0.633,0.767-1.216,1.3-1.75,1.6c-0.3,0.2-0.833,0.316-1.6,0.35c-0.767,0.067-1.3,0.184-1.6,0.35c-0.833,0.4-1.667,1.033-2.5,1.9
		c-1.067,1.067-1.817,1.767-2.25,2.1c-0.7,0.5-1.883,1.033-3.55,1.6c-1.767,0.566-2.983,1.083-3.649,1.55
		c-1.4,1.1-2.417,1.85-3.05,2.25c-0.967,0.633-2.183,0.983-3.65,1.05c-2.767,0.133-4.934,0.083-6.5-0.15
		C6.733,35.816,7.133,33.5,8.4,31c1.166-2.367,2.649-4.067,4.45-5.1c0.767-0.433,2.017-0.883,3.75-1.35
		c1.833-0.466,3.1-0.883,3.8-1.25c1.433-0.7,3.25-1.65,5.45-2.85c1.833-0.833,3.783-1.3,5.85-1.4c0.3-1.1,1.183-2.15,2.65-3.15
		c1.067-0.7,2.317-1.3,3.75-1.8c0.233-0.1,0.917-0.284,2.05-0.55c0.833-0.2,1.533-0.45,2.1-0.75c0.4-0.233,1.217-0.833,2.45-1.8
		c0.967-0.767,1.833-1.267,2.6-1.5c1.267-0.333,3.567-0.617,6.9-0.85c2.933-0.167,5.25-0.6,6.95-1.3
		c1.866-0.767,3.833-1.367,5.899-1.8c1.267-0.233,3.284-0.583,6.05-1.05c1.133-0.2,4.65-0.533,10.55-1
		C87.883,3.2,91.333,2.517,94,1.45c3.3-1.333,7.633-1.75,13-1.25C114.233,0.867,118.617,1.15,120.15,1.05z"/>
	<path style="fill-rule:evenodd;clip-rule:evenodd;fill:#482D1D;" d="M108.5,56.95c-0.166-1.434-0.934-3.067-2.3-4.9
		c-0.533-0.7-1.767-2.1-3.7-4.2c-0.167-0.2-0.417-0.667-0.75-1.4c-0.2-0.467-0.633-0.767-1.3-0.9c-0.1-2.7-0.65-4.45-1.65-5.25
		c-0.667-0.533-2.8-1.283-6.399-2.25l5.475-0.7c-0.929-1.53-1.571-3.93-1.925-7.2c-0.467-4.367-1.134-7.267-2-8.7
		c-0.167-0.333-0.517-0.583-1.05-0.75c-0.567-0.2-0.934-0.4-1.101-0.6c-0.167-0.233-0.333-0.717-0.5-1.45
		c-0.167-0.7-0.383-1.183-0.649-1.45c-0.767-0.8-2-1.384-3.7-1.75c-2.233-0.467-3.6-0.817-4.1-1.05c1.5-1.233,4.733-1.8,9.7-1.7
		c2.667,0.066,6.184,0.25,10.55,0.55c3.067,0,6.084,0.167,9.051,0.5c-0.268,0.6-0.518,1.033-0.75,1.3
		c0.8,0.233,1.816,0.35,3.05,0.35c0.7,0,1.733,0,3.1,0c0.3,1.333-1.866,2.8-6.5,4.4c-5,1.7-7.716,3.6-8.149,5.7
		c-0.233,1.1-0.084,2.533,0.449,4.3c0.567,1.867,0.783,3.284,0.65,4.25c-0.033,0.233-0.367,1.284-1,3.15
		c-0.167,0.5,0.233,1.4,1.2,2.7c0.333,0.434,1.083,1.15,2.25,2.15c0.767,0.7,1.267,1.483,1.5,2.35c0.467,1.633,0.783,3.75,0.95,6.35
		C109.1,53.65,108.967,55.717,108.5,56.95z"/>
	<path style="fill-rule:evenodd;clip-rule:evenodd;fill:#482D1D;" d="M21,35.5c1.133-0.633,2.767-1.45,4.9-2.45
		c1.1-0.566,2.566-1.483,4.399-2.75c1.634-0.933,3.233-1.417,4.8-1.45c-0.333,2.3-0.5,3.566-0.5,3.8
		c-0.067,1.167,0.117,2.35,0.55,3.55c0.166,0.433,0.55,1.116,1.149,2.05c0.534,0.8,0.851,1.45,0.95,1.95l-2.1,0.8v-1.2
		c-0.733-0.066-1.601,0.25-2.601,0.95c-1.066,0.733-1.883,1.117-2.45,1.15c-0.7,0.067-1.483-0.15-2.35-0.65
		c-1.267-0.733-2-1.133-2.2-1.2c-0.733-0.267-2.167-0.4-4.3-0.4c-1.967-0.033-3.35-0.267-4.15-0.7
		C17.633,37.816,18.934,36.667,21,35.5z"/>
	<path style="fill-rule:evenodd;clip-rule:evenodd;fill:#482D1D;" d="M167.65,34.55c-0.934,1.434-1.334,2.75-1.2,3.95l-0.851-0.45
		c-0.066-1.433,0.15-3.083,0.65-4.95c0.1-0.333,0.617-1.95,1.55-4.85c-0.667-0.2-1.216-0.917-1.649-2.15
		c-0.5-1.367-0.983-2.25-1.45-2.65c-1.267-1.067-2.717-2.05-4.351-2.95c-1.933-1.067-3.533-1.684-4.8-1.85
		c0-0.533,0.034-0.917,0.101-1.15c3.033-0.167,5.399-0.184,7.1-0.05c2.867,0.233,5.117,0.917,6.75,2.05
		c1.133,0.767,1.717,1.533,1.75,2.3c-0.233,1.1-0.4,2.15-0.5,3.15c-0.1,1.4-0.184,2.417-0.25,3.05c-0.133,1.167-0.35,2.133-0.65,2.9
		C169.75,31.167,169.017,32.383,167.65,34.55z"/>
	<path style="fill-rule:evenodd;clip-rule:evenodd;fill:#482D1D;" d="M187.25,25.95c1.733,1.167,3.084,2.267,4.05,3.3
		c0.967,1.033,1.417,2.55,1.351,4.55c-0.111,0.987-0.211,1.854-0.301,2.6c-0.424-1.206-1.323-2.206-2.699-3
		c-1.066-0.6-1.7-1.017-1.9-1.25c-0.3-0.467-0.666-1.017-1.1-1.65c-0.233-0.333-0.783-1.283-1.65-2.85
		c-0.7-1.3-1.333-2.316-1.9-3.05C183.733,24.133,185.117,24.583,187.25,25.95z M192.35,36.4c0.119,0.323,0.202,0.656,0.25,1
		c-0.033,2.267-0.05,4.167-0.05,5.7l-0.45-4.2C192.158,38.297,192.242,37.464,192.35,36.4z"/>
</g>
</svg>
