<?xml version="1.0" encoding="iso-8859-1"?>
<!-- Generator: Adobe Illustrator 15.1.0, SVG Export Plug-In . SVG Version: 6.00 Build 0)  -->
<!DOCTYPE svg PUBLIC "-//W3C//DTD SVG 1.1//EN" "http://www.w3.org/Graphics/SVG/1.1/DTD/svg11.dtd">
<svg version="1.1" id="FlashAICB" xmlns="http://www.w3.org/2000/svg" xmlns:xlink="http://www.w3.org/1999/xlink" x="0px" y="0px"
	 width="252.55px" height="417.45px" viewBox="0 0 252.55 417.45" style="enable-background:new 0 0 252.55 417.45;"
	 xml:space="preserve">
<g>
	<path style="fill-rule:evenodd;clip-rule:evenodd;fill:#DDEAF9;" d="M205.3,265.6c-2.267-3.3-4.684-6.933-7.25-10.899
		c-5.1-7.934-8.566-13.851-10.399-17.75c-1.601-3.4-3.65-5.95-6.15-7.65c-4.233-2.866-6.833-4.783-7.8-5.75
		c-1.167-2.833-2.367-5.434-3.601-7.8c-2.366-4.634-4.833-6.95-7.399-6.95c-0.834,0-1.533,0.184-2.101,0.55
		c0-0.1,0.017-0.199,0.051-0.3c1.233-4.767,1.85-9.716,1.85-14.85c0-0.967-1.083-3.017-3.25-6.15c-2.366-3.2-3.733-5.1-4.1-5.7
		l0.1,2.65c-0.033-0.033-0.483-0.883-1.35-2.55c-0.934-2-1.65-4.017-2.15-6.05l1.2,0.9c3.7,1.9,6.649,6,8.85,12.3
		c0.967,3.167,1.667,5.367,2.101,6.6c0.733,2.1,1.449,3.417,2.149,3.95c2,1.5,4.25,3.083,6.75,4.75c1.8,1.367,3.4,3.033,4.8,5
		c0.233-0.7,0.417-1.05,0.551-1.05l0.25-5.3c-3.7-23.233-7.45-38.6-11.25-46.1l-0.45-1.35l0.2,0.7
		c-6.467-4.367-9.7-10.883-9.7-19.55l1.149-4.95l0.2,1.15c0.4,3.033,1.017,4.867,1.851,5.5l-0.25-1.15
		c-0.2-1.133-0.384-2.883-0.551-5.25c-0.166-2-0.25-3.35-0.25-4.05c0-0.667,0.134-3.683,0.4-9.05c0.233-4.2,0.25-7.833,0.05-10.9
		c-0.666-9.466-3.517-18.35-8.55-26.65c0.767,3.533,0.517,6.033-0.75,7.5c-0.767,0.867-2.316,1.55-4.65,2.05
		c-2.333,0.466-3.833,1.083-4.5,1.85c-1.133,1.267-1.233,3.567-0.3,6.9l-0.75-1.35c-0.866-6.867-2.25-12.583-4.149-17.15
		c-1.867-4.467-2.834-6.934-2.9-7.4c3,0.034,5.134-0.95,6.4-2.95c1.3-2.033,1.949-5.4,1.949-10.1c0-1.5-0.166-3.35-0.5-5.55v-1.1
		h-0.149c-0.434-2.467-1.033-5.35-1.8-8.65c-1.834-7.733-3.834-13.534-6-17.4v3l-1.45-6l-0.15-0.6c1.3,1.633,4,4.667,8.101,9.1
		c3.233,3.5,5.75,6.583,7.55,9.25c5.3,7.9,9.149,19.2,11.55,33.9c0.866,5.233,2.017,9.95,3.45,14.15
		c0.033,0.066,1.283,3.167,3.75,9.3c2.767,7,4.149,15.85,4.149,26.55c0,0.566-0.083,1.367-0.25,2.4
		c-0.166,1.133-0.35,1.983-0.55,2.55l-0.3,0.45c-0.733-3.6-1.167-7.533-1.3-11.8c-0.134-3.233-0.867-6.966-2.2-11.2l-0.5-0.75
		c-0.366,0.867-0.55,3.183-0.55,6.95c0.033,3.633,0.05,5.483,0.05,5.55c0,0.066-0.233,1.883-0.7,5.45
		c-0.467,3.567-0.7,6.05-0.7,7.45c0,5.6,1.367,10.617,4.101,15.05l-0.2-6.1c0-0.733,0.283-1.367,0.85-1.9
		c0.534-0.466,1.084-0.7,1.65-0.7c2.167,0,5.667,7.55,10.5,22.65c4.434,15.3,6.717,23.1,6.85,23.4
		c2.567,6.267,5.25,13.434,8.051,21.5c3.366,9.767,5.05,15.817,5.05,18.15l-0.05,1.8c-1.2,0.134-2.134,0.2-2.801,0.2
		c-6,0-10.333-3.533-13-10.6c-1.366-3.634-2.399-7.934-3.1-12.9c-0.167,0.367-0.35,1.133-0.55,2.3c-0.233,1.167-0.351,2-0.351,2.5
		c0,7.934,1.101,13.767,3.301,17.5c2.566,4.267,7.216,7.084,13.949,8.45c2,0.4,4.784,3.117,8.351,8.15
		c4.5,6.3,7.633,10.25,9.399,11.85c5.534,4.934,9.317,9.884,11.351,14.851c0.133,0.333,0.666,1.899,1.6,4.699
		c0.467,1.4,1,2.367,1.601,2.9c0.533,0.467,1.483,0.95,2.85,1.45c1.434,0.5,2.517,1.033,3.25,1.6c2.667,2.066,4.434,6.7,5.3,13.9
		l0.25,1.85c-1.967-7.467-7.583-14.184-16.85-20.149c-2.467-1.601-6.101-3.684-10.9-6.25C209.35,268.2,206.6,266.6,205.3,265.6z
		 M184.95,320.55c-3.667-2.666-6.316-4.6-7.95-5.8c-0.2-0.134-0.366-0.25-0.5-0.35c-0.967-0.733-1.75-1.483-2.35-2.25
		c-1.134-1.4-1.684-2.867-1.65-4.4l-0.1-0.85c-0.4,0.466-0.767,1.05-1.101,1.75c-0.399,0.899-0.55,1.633-0.45,2.199
		c-0.333,0-0.966,0.167-1.899,0.5c0.066-2.199,0.733-4.783,2-7.75c0.633-1.533,1.283-2.883,1.95-4.05l2-1.8l0.899,0.85
		c0.9,1.4,1.95,3.617,3.15,6.65c0.7,1.8,1.5,2.7,2.399,2.7c0.7,0,1.301-0.517,1.801-1.55c0.466-0.934,0.699-1.884,0.699-2.851
		c0-3.399-1.283-6.533-3.85-9.399c-1.134-1.4-1.816-3.351-2.05-5.851c-1.2-8.967-4.684-18.45-10.45-28.45
		c-5.533-8.233-8.3-12.633-8.3-13.199c0-0.667,0.066-1.2,0.2-1.601l1.449,0.5l4.15,2.5c1.167,1.066,3.167,2.55,6,4.45
		s4.6,2.917,5.3,3.05c0.8,0.167,1.783,0.117,2.95-0.149c1.167-1.067,1.85-3.634,2.05-7.7l1.351,1.25c1.267,1.467,2.267,2.95,3,4.45
		c-0.534-0.101-1.051-0.167-1.551-0.2c-1.033-0.033-1.517,0.1-1.449,0.399c-0.167,1.134-0.417,1.9-0.75,2.301
		c-0.567,0.699-1.617,1.05-3.15,1.05c-2.533,0-4.934-0.384-7.2-1.15c-2.767-0.934-5.733-2.533-8.899-4.8
		c2.333,3.434,4.566,6.05,6.699,7.85c2.7,2.267,5.434,3.4,8.2,3.4c2.334,0,4.45-1.017,6.351-3.05c1.366-1.434,2.199-2.733,2.5-3.9
		c0.166,0.533,0.483,1.684,0.949,3.45c0.467,1.733,0.733,2.8,0.801,3.2c-0.067,0.666,0.149,1.566,0.649,2.7
		c0.2,0.566,0.65,1.449,1.351,2.649c0.566,1.033,0.933,1.65,1.1,1.851l0.05,0.05c0.167,0.366,0.417,1.184,0.75,2.45
		c0.3,1.166,0.45,1.8,0.45,1.899c0,1.5-0.483,2.733-1.45,3.7c-0.267,0.3-1.333,1.1-3.2,2.4c-3.133,2.199-4.699,5.449-4.699,9.75
		c0,7.267,0.866,13.149,2.6,17.649c2.467,6.367,4.05,11.65,4.75,15.851c-0.233-0.134-0.517-0.267-0.85-0.4l-0.301-0.15
		c-0.5-0.233-1.066-0.466-1.699-0.699l-1.95-0.801C185.467,320.75,185.217,320.65,184.95,320.55z M125,237.5
		c0.133-0.267,0.417-1.184,0.85-2.75c0.4-1.533,0.633-2.517,0.7-2.95v-1.95c0-1.899-0.3-3.333-0.9-4.3
		c-0.333-0.6-1.066-1.333-2.2-2.2c-2.733-2.1-4.784-5.233-6.15-9.399l-0.1-0.851c-2.034,3.034-3.25,4.767-3.65,5.2
		c-0.8,0.9-1.7,1.351-2.7,1.351c-1.9,0-3.567-1.717-5-5.15c-0.767-1.9-1.8-4.6-3.1-8.1l-0.8-0.65c-1,7.167-1.833,11.267-2.5,12.3
		c0.1-3.166,0.35-7.616,0.75-13.35c0-0.667-0.1-1.417-0.3-2.25c-0.2-0.133-0.633-0.2-1.3-0.2c-0.733,0-1.533,0.233-2.4,0.7
		c-1.633,0.933-2.833,2.617-3.6,5.05c-0.934,3.566-1.417,5.566-1.45,6v-1.1c-0.1-1.601-0.267-3.551-0.5-5.851
		c0-2.566,0.55-4.583,1.65-6.05c0.7-0.867,1.934-2.05,3.7-3.55c3.567-3.567,5.35-10.267,5.35-20.1c0-1-0.267-4.7-0.8-11.1
		c0-0.233,0.184-1.267,0.55-3.1c0.4-1.833,0.667-2.933,0.8-3.3l0.1,1.25c0.067,9.767,0.467,17.917,1.2,24.45
		c1.433,12.4,4.617,18.6,9.55,18.6c0.467,0,3.883-1.566,10.25-4.7c6.566-3.2,10.2-5.217,10.9-6.05c-1.801,2.7-3.384,5.267-4.75,7.7
		c-2.7,4.7-4.05,8.7-4.05,12c0,1.4,0.467,3.284,1.4,5.65c1.3,2.934,2.3,5.217,3,6.85c2.7,6.467,3.783,12.184,3.25,17.15
		c-0.033,0.033-0.05,0.066-0.05,0.1l-0.15-1.199c-0.133-1.101-0.267-2.567-0.399-4.4c-0.134-1.366-0.367-2.3-0.7-2.8l-0.2-1.351
		c-0.533,1.667-1.083,3.15-1.65,4.45c-0.333,0.733-1.05,2.267-2.149,4.601l-0.3,0.25C126.95,241.9,126.233,240.267,125,237.5z
		 M60.15,292.95c-0.367,0.5-0.667,1.2-0.9,2.1l-0.15,0.65l-0.25,2.399c-0.567,1.067-1.184,2.067-1.85,3
		c-0.7,1.034-1.083,1.601-1.15,1.7c-0.067-1.133-0.2-2.483-0.4-4.05c-0.2-1.434-0.3-2.283-0.3-2.55c0-0.367,0.367-2.733,1.1-7.101
		c0.7-4.366,1.05-7.699,1.05-10c0.067-2.633,0.434-5.416,1.1-8.35c0.967-4.167,2.367-7.533,4.2-10.1
		c6.333-8.367,11.15-15.601,14.45-21.7c5.5-10.334,8-19.351,7.5-27.05c1.367,4.833,2.25,8.066,2.65,9.699
		c0.6,2.5,0.833,5.667,0.7,9.5c-1.167,2.834-2.133,5.051-2.9,6.65c-1.333,2.833-2.8,5.434-4.4,7.8c-0.567,0.367-1.1,0.767-1.6,1.2
		l-0.75,0.8c-3.8,1.967-6.333,4.983-7.6,9.05c-0.7,4.2-1.3,6.867-1.8,8c-1.367,2.167-2.684,4.351-3.95,6.551
		c-2.566,4.399-3.95,7.366-4.15,8.899c-0.233,1.733-0.383,4.134-0.45,7.2C60.267,290.283,60.217,292.184,60.15,292.95z M48.3,260.25
		c0.167-0.434,0.684-2.4,1.55-5.9c0.833-3.466,1.283-5.433,1.35-5.899c-0.167,0.6-0.934,1.566-2.3,2.899
		c-1.133,1.134-2,1.9-2.6,2.301c-0.133-0.367-0.466-2.584-1-6.65c-0.433-3.434-1.1-5.783-2-7.05l-0.15,0.149
		c0.633-0.933,1.633-3.033,3-6.3c1.233-3.033,1.917-4.866,2.05-5.5l0.2-1.35c-1.1,3.533-2.9,6.434-5.4,8.7
		c-3.233,3-5.3,5.216-6.2,6.649c-2,3.233-5.066,5.95-9.2,8.15c-4.333,2.333-6.85,3.983-7.55,4.95l1.35,0.25
		c-0.1,0.933-0.383,1.666-0.85,2.199c-0.5,0.534-1.033,0.75-1.6,0.65c-0.6-0.134-1.083-0.533-1.45-1.2
		c-0.4-0.666-0.567-1.399-0.5-2.2c0.367-1.066,0.967-2.05,1.8-2.949c1.2-1.367,2.684-2.217,4.45-2.551
		c0.933-0.166,2.767-1.416,5.5-3.75c3.167-2.699,6.233-5.783,9.2-9.25c8.4-9.767,13.033-19,13.9-27.7v10
		c0.2,1.433-0.617,4.783-2.45,10.05c-1.933,5.5-2.9,8.583-2.9,9.25c0,5.5,1.2,8.25,3.6,8.25c1.767,0,3.566-1,5.4-3
		c2.267-2.467,4.3-6.233,6.1-11.3c0.3-1.2,0.517-1.601,0.65-1.2c-0.4,4.899-0.633,7.483-0.7,7.75c-0.933,1.967-2.316,5.7-4.15,11.2
		c-0.467,1.966-1.633,4.483-3.5,7.55c-1.6,2.633-2.717,4.217-3.35,4.75l-2.05,1.55c0-1.167-0.05-2.1-0.15-2.8L48.3,260.25z
		 M54.9,304.95l-0.25,1.149c-0.1,0.267-0.967,2-2.6,5.2c-1,2-1.466,3.517-1.4,4.55L50.5,316.2c0.233-0.733-0.333-2.834-1.7-6.3
		c0.867-1.4,1.784-2.301,2.75-2.7C52.85,306.634,53.967,305.884,54.9,304.95z M123.85,2.25c0,1.067,0.066,2.183,0.2,3.35
		c-1.033-0.767-1.75-1.467-2.15-2.1c-0.3-0.433-0.75-1.367-1.35-2.8c0.267,0.133,0.55,0.267,0.85,0.4
		C122.867,1.767,123.683,2.15,123.85,2.25z M112.2,59.55c0.367-0.367,2.05-1.383,5.05-3.05c0.567-0.567,1.133-2.05,1.7-4.45
		c0.6-2.533,0.9-4.933,0.9-7.2c0-0.667-0.233-3.55-0.7-8.65c0.567,1.4,1.233,3.917,2,7.55c0.7,3.433,1.05,5.617,1.05,6.55
		c0,7.167-2.517,10.75-7.55,10.75c-0.867,0-1.783-0.1-2.75-0.3L112.2,59.55z M119.55,94.75c0.934-0.167,1.917-0.533,2.95-1.1
		c0.833-0.433,1.317-0.75,1.45-0.95c0.533-0.733,0.917-1.45,1.15-2.15c0.167-0.466,0.4-1.633,0.7-3.5
		c0.034-0.267,0.067-0.55,0.1-0.85c0.5-3.434,1.15-8.767,1.95-16c1.367,3.066,2.134,7.167,2.301,12.3c0,5.333-1.15,9.333-3.45,12
		c-1.633,1.9-3.417,2.85-5.35,2.85c-0.667,0-1.8-0.167-3.4-0.5c-1.6-0.367-2.5-0.633-2.7-0.8l0.65-0.6l0.9-0.5L119.55,94.75z
		 M126.3,154c-0.367,0.3-1.15,0.6-2.35,0.9c-1.2,0.267-2.017,0.367-2.45,0.3l-2.3-0.15c-0.434-1.433-1.684-5-3.75-10.7
		c-0.434-1.167-0.65-3.067-0.65-5.7c0-2.8,0.317-4.867,0.95-6.2c0.367-0.733,1.067-1.483,2.1-2.25c1.8-1.434,2.5-4.567,2.1-9.4
		l0.25,1.5c0.3,3.3,2.15,5.75,5.55,7.35c3.167,1.5,6.3,1.767,9.4,0.8l0.05,0.35c-0.367,0.7-1.084,1.4-2.15,2.1
		c-1.733,1.133-2.7,1.783-2.899,1.95c-2.434,2-3.65,5.117-3.65,9.35c0,0.333,0.134,1.433,0.4,3.3
		c0.267,1.833,0.399,2.917,0.399,3.25c0,0.467-0.116,1.083-0.35,1.85C126.717,153.3,126.5,153.767,126.3,154z M154.7,222.5
		c1.166-1.7,2.217-3.55,3.149-5.55c-0.066,0.7-0.149,1.467-0.25,2.3c-0.366,3.267-1.033,5.65-2,7.15
		c-1.433,2.166-3.75,3.25-6.949,3.25c-0.4,0-0.867-0.034-1.4-0.101l-0.7-0.149l0.8-0.351c1.7-0.533,3-1.149,3.9-1.85
		C152.45,226.233,153.6,224.667,154.7,222.5z M154.2,345.7l-0.351-0.851l0.15,0.7l-0.8-0.45l-0.8-0.35l0.05-0.2
		c0.133-0.166,0.399-0.25,0.8-0.25c1.3,0,1.95-1.649,1.95-4.95c0-0.899-0.617-2.566-1.851-5c-1.267-2.466-1.899-5.05-1.899-7.75
		c0-1.199,0.383-2.066,1.149-2.6c0.434-0.3,0.9-0.45,1.4-0.45c0.9,0,1.767,0.233,2.6,0.7c0.4,0.233,0.75,0.467,1.051,0.7
		c0.566,0,1.116-0.3,1.649-0.9c0.3-0.3,0.584-0.649,0.851-1.05c1.033,1.566,2.566,3.083,4.6,4.55c1.8,1.3,2.917,2.45,3.35,3.45
		l-0.899,0.9l-0.55,0.05h-0.101l0.351,0.399v0.051c-0.101,0.366-0.233,1.083-0.4,2.149c-0.167,1.134-0.25,1.934-0.25,2.4
		c0.566,7.033,0.85,10.883,0.85,11.55s-0.066,1.017-0.199,1.05c-0.434-0.033-0.983-0.017-1.65,0.05
		c0.333,1.467,0.017,2.684-0.95,3.65c-0.833,0.833-1.783,1.25-2.85,1.25c-0.634,0-1.417-0.283-2.351-0.85
		c-0.066-0.167-0.133-0.317-0.199-0.45l-0.15-0.3c-0.333-0.801-0.634-1.567-0.9-2.301c-0.3-0.633-0.949-1.666-1.949-3.1
		c-0.2-0.333-0.384-0.6-0.551-0.8L154.2,345.7z"/>
	<path style="fill-rule:evenodd;clip-rule:evenodd;fill:#BACDDF;" d="M232.85,291.85c-0.733-2.233-2.6-4.366-5.6-6.399
		c-0.7-0.467-3.767-2.184-9.2-5.15c-8.5-4.666-13.217-10-14.149-16l1.399,1.3c1.3,1,4.05,2.601,8.25,4.801
		c4.8,2.566,8.434,4.649,10.9,6.25c9.267,5.966,14.883,12.683,16.85,20.149l-0.25-1.85c-0.866-7.2-2.633-11.834-5.3-13.9
		c-0.733-0.566-1.816-1.1-3.25-1.6c-1.366-0.5-2.316-0.983-2.85-1.45c-0.601-0.533-1.134-1.5-1.601-2.9
		c-0.934-2.8-1.467-4.366-1.6-4.699c-2.033-4.967-5.816-9.917-11.351-14.851c-1.767-1.6-4.899-5.55-9.399-11.85
		c-3.566-5.033-6.351-7.75-8.351-8.15c-6.733-1.366-11.383-4.184-13.949-8.45c-2.2-3.733-3.301-9.566-3.301-17.5
		c0-0.5,0.117-1.333,0.351-2.5c0.2-1.167,0.383-1.934,0.55-2.3c0.7,4.967,1.733,9.267,3.1,12.9c2.667,7.066,7,10.6,13,10.6
		c0.667,0,1.601-0.066,2.801-0.2l0.05-1.8c0-2.333-1.684-8.383-5.05-18.15c-2.801-8.066-5.483-15.233-8.051-21.5
		c-0.133-0.3-2.416-8.1-6.85-23.4c-4.833-15.1-8.333-22.65-10.5-22.65c-0.566,0-1.116,0.233-1.65,0.7
		c-0.566,0.534-0.85,1.167-0.85,1.9l0.2,6.1c-2.733-4.433-4.101-9.45-4.101-15.05c0-1.4,0.233-3.883,0.7-7.45
		c0.467-3.566,0.7-5.383,0.7-5.45c0-0.067-0.017-1.917-0.05-5.55c0-3.767,0.184-6.083,0.55-6.95l0.5,0.75
		c1.333,4.233,2.066,7.967,2.2,11.2c0.133,4.267,0.566,8.2,1.3,11.8l0.3-0.45c0.2-0.566,0.384-1.417,0.55-2.55
		c0.167-1.033,0.25-1.833,0.25-2.4c0-10.7-1.383-19.55-4.149-26.55c-2.467-6.133-3.717-9.233-3.75-9.3
		c-1.434-4.2-2.584-8.917-3.45-14.15c-2.4-14.7-6.25-26-11.55-33.9c-1.8-2.667-4.316-5.75-7.55-9.25
		c-4.101-4.433-6.801-7.466-8.101-9.1l-0.35-0.55c-1.634-2.833-3.267-6.583-4.9-11.25c-1.3-3.733-2.05-6.25-2.25-7.55
		c-0.133-1.167-0.2-2.283-0.2-3.35c9.3,13.733,16.2,24.8,20.7,33.2c4.967,9.267,8.767,18.466,11.4,27.6
		c8.666,29.833,15.316,53.967,19.95,72.4c2.133,8.6,5.633,19.833,10.5,33.7c6.233,17.833,11.3,33.15,15.199,45.95
		c2.9,9.967,4.733,16.101,5.5,18.4c0.967,2.866,2.351,5.533,4.15,8c1.4,1.9,5.116,6.783,11.15,14.65
		c0.267,0.366,4.833,5.333,13.699,14.899c7.301,7.867,10.95,12.617,10.95,14.25c0,0.434-0.3,2.517-0.899,6.25
		c-0.467,3.066-0.5,7.334-0.101,12.8v0.9c-1.467-1.267-3.267-3.333-5.399-6.2C238.884,296.717,236.283,294.316,232.85,291.85z
		 M154.7,222.5l-1.45,2.15l0.55-0.95c1.134-2.8,1.783-4.717,1.95-5.75c0.5-2.934,0.75-8.483,0.75-16.65
		c0-6.633-0.417-12.066-1.25-16.3l-0.1-2.65c0.366,0.6,1.733,2.5,4.1,5.7c2.167,3.133,3.25,5.184,3.25,6.15
		c0,5.133-0.616,10.083-1.85,14.85c-0.034,0.101-0.051,0.2-0.051,0.3c-0.899,0.534-1.55,1.434-1.949,2.7
		c-0.2,0.634-0.467,2.267-0.801,4.9C156.917,218.95,155.866,220.8,154.7,222.5z M196.8,273.25l-0.1,0.25
		c-0.634,0.934-0.95,2.15-0.95,3.65c0.134,2.199,0.2,4.183,0.2,5.949c0,0.233-1.283,1.867-3.851,4.9c-2.6,3.033-3.899,6-3.899,8.9
		c0,4.966,1.45,11.149,4.35,18.55c3.7,8.5,6.367,14.684,8,18.55v0.85l-0.2,0.801c-1-0.767-1.666-1.517-2-2.25
		c-0.199-0.467-0.399-1.167-0.6-2.101c-0.667-2.166-3.05-4.934-7.15-8.3l-0.1-0.1c-0.7-4.2-2.283-9.483-4.75-15.851
		c-1.733-4.5-2.6-10.383-2.6-17.649c0-4.301,1.566-7.551,4.699-9.75c1.867-1.301,2.934-2.101,3.2-2.4c0.967-0.967,1.45-2.2,1.45-3.7
		c0-0.1-0.15-0.733-0.45-1.899c-0.333-1.267-0.583-2.084-0.75-2.45l-0.05-0.05c-0.2-0.267-1.017-1.767-2.45-4.5
		c-0.5-1.134-0.717-2.034-0.649-2.7l0.3-0.5c0.467,0.566,1.5,2.434,3.1,5.6C193.316,270.184,195.066,272.25,196.8,273.25z
		 M177,314.75c1.634,1.2,4.283,3.134,7.95,5.8l-0.601-0.2c-2.566-0.5-4.833-2.116-6.8-4.85
		C177.35,315.233,177.167,314.983,177,314.75z M170.85,310.85c-0.1-0.566,0.051-1.3,0.45-2.199c0.334-0.7,0.7-1.284,1.101-1.75
		l0.1,0.85c-0.033,1.533,0.517,3,1.65,4.4C173.083,311.483,171.983,311.05,170.85,310.85z M88.4,229.85
		c-0.066-3.166,1.333-5.55,4.2-7.149c0.767-0.467,1.983-1.117,3.65-1.95c1.433-0.8,2.5-1.7,3.2-2.7c0.667-1.033,1.5-5.133,2.5-12.3
		l0.8,0.65c1.3,3.5,2.333,6.2,3.1,8.1c1.433,3.434,3.1,5.15,5,5.15c1,0,1.9-0.45,2.7-1.351c0.4-0.434,1.617-2.166,3.65-5.2
		l0.1,0.851c1.367,4.166,3.417,7.3,6.15,9.399c1.133,0.867,1.867,1.601,2.2,2.2c0.6,0.967,0.9,2.4,0.9,4.3v1.95
		c-0.066,0.434-0.3,1.417-0.7,2.95c-0.434,1.566-0.717,2.483-0.85,2.75c0.767-2.833,0.117-6.4-1.95-10.7
		c-2.066-4.333-4.517-7.083-7.35-8.25c-2.434,3.334-4.167,5.884-5.2,7.65c-1.8,3.133-2.3,6.717-1.5,10.75l-0.1,0.3
		c-1.467-3.533-2.217-7.566-2.25-12.1c0-1.2-0.217-1.967-0.65-2.301c-0.533-0.433-1.7-0.649-3.5-0.649c-2.833,0-4.933,0.233-6.3,0.7
		C93.167,223.967,90.567,226.283,88.4,229.85z M87.9,231.1l0.2-0.5c-0.633,2.4-1.4,4.75-2.3,7.051
		c-1.767,4.566-3.417,7.166-4.95,7.8l-0.25,0.1c1.6-2.366,3.066-4.967,4.4-7.8C85.767,236.15,86.733,233.934,87.9,231.1z
		 M48.3,260.25l-0.45-2.1c-0.3-1.233-0.817-2.733-1.55-4.5c0.6-0.4,1.467-1.167,2.6-2.301c1.367-1.333,2.133-2.3,2.3-2.899
		c-0.067,0.467-0.517,2.434-1.35,5.899C48.983,257.85,48.467,259.816,48.3,260.25z M60.15,292.95c0.067-0.767,0.117-2.667,0.15-5.7
		c0.067-3.066,0.217-5.467,0.45-7.2c0.2-1.533,1.583-4.5,4.15-8.899c1.267-2.2,2.583-4.384,3.95-6.551c0.5-1.133,1.1-3.8,1.8-8
		c1.267-4.066,3.8-7.083,7.6-9.05l-0.65,0.75l-1.1,1.25c0.667,3.934-0.55,7.8-3.65,11.601c-2.133,2.566-3.35,4.083-3.65,4.55
		c-1.233,1.833-1.95,3.684-2.15,5.55C65.817,282.55,63.517,289.783,60.15,292.95z M54.65,306.1l0.25-1.149l0.95-2.15
		c0.066-0.1,0.45-0.666,1.15-1.7c0.667-0.933,1.283-1.933,1.85-3c-0.233,1.467-0.9,3.034-2,4.7
		C55.65,304.434,54.917,305.533,54.65,306.1z M43.15,240.1c-0.167,0.233-0.333,0.45-0.5,0.65L42,241.4
		c-4.133,5.8-8.517,9.649-13.15,11.55c-4.1,0.967-6.583,1.866-7.45,2.7l-1.35-0.25c0.7-0.967,3.217-2.617,7.55-4.95
		c4.133-2.2,7.2-4.917,9.2-8.15c0.9-1.434,2.967-3.649,6.2-6.649c2.5-2.267,4.3-5.167,5.4-8.7l-0.2,1.35
		c-0.133,0.634-0.817,2.467-2.05,5.5C44.783,237.066,43.783,239.167,43.15,240.1z M83.2,355.85c-0.4,0.233-0.767,0.551-1.1,0.95
		c-2.467,2.3-5.333,5.25-8.6,8.851C64.567,376.217,59.583,382.1,58.55,383.3l-0.05-1.1c-0.633,0.866-1.7,2.133-3.2,3.8l-0.05-1.75
		c0-0.1,4.183-6.25,12.55-18.45c9.133-12.133,15.65-18.2,19.55-18.2c2.733,0,5.467,0.7,8.2,2.101c2.733,1.399,4.9,2.1,6.5,2.1
		c1.8,0,3.267-0.55,4.4-1.649c0.633-0.601,1.35-1.551,2.15-2.851c0.467,0.634,0.9,1.367,1.3,2.2c0.434,0.866,0.65,1.483,0.65,1.85
		c0,0.934-0.316,1.733-0.95,2.4c-0.133,0.134-0.983,0.816-2.55,2.05c0.267,0.667,1.284,1.884,3.05,3.65
		c1.433,1.467,2.083,2.6,1.95,3.399l-0.15,0.351c-3-2.467-5.8-4.684-8.4-6.65c-5.1-3.866-9.083-5.8-11.95-5.8
		C89.783,350.75,87,352.45,83.2,355.85z M159.1,353.65c0.934,0.566,1.717,0.85,2.351,0.85c1.066,0,2.017-0.417,2.85-1.25
		c0.967-0.967,1.283-2.184,0.95-3.65c0.667-0.066,1.217-0.083,1.65-0.05c0.133-0.033,0.199-0.383,0.199-1.05
		s-0.283-4.517-0.85-11.55c0-0.467,0.083-1.267,0.25-2.4c0.167-1.066,0.3-1.783,0.4-2.149v-0.051l0.899,1.15
		c1.533,3.333,3.15,7.517,4.851,12.55c1.633,4.9,2.449,7.884,2.449,8.95c0,1.033-0.433,1.566-1.3,1.6
		c-1.267-0.166-2.3-0.283-3.1-0.35c-3.3-0.267-5.566,1.6-6.8,5.6c-0.367-0.3-1.084-1.316-2.15-3.05c-1.066-1.7-1.8-3.017-2.2-3.95
		c-0.033-0.1-0.066-0.183-0.1-0.25l-0.05-0.199L159.1,353.65z M185.65,253.4l0.85,0.149l-0.1,1.75c-0.301,1.167-1.134,2.467-2.5,3.9
		c-1.9,2.033-4.017,3.05-6.351,3.05c-2.767,0-5.5-1.134-8.2-3.4c-2.133-1.8-4.366-4.416-6.699-7.85
		c3.166,2.267,6.133,3.866,8.899,4.8c2.267,0.767,4.667,1.15,7.2,1.15c1.533,0,2.583-0.351,3.15-1.05
		c0.333-0.4,0.583-1.167,0.75-2.301c-0.067-0.3,0.416-0.433,1.449-0.399C184.6,253.233,185.116,253.3,185.65,253.4z M167.2,331.9
		l0.899-0.9l-0.149,0.8L167.2,331.9z"/>
	<path style="fill-rule:evenodd;clip-rule:evenodd;fill:#FFFFFF;" d="M23.25,249.6c-1.767,0.334-3.25,1.184-4.45,2.551
		c-0.833,0.899-1.433,1.883-1.8,2.949c-0.133-0.866-1.15-2.85-3.05-5.949c0-1.733,1.25-3.95,3.75-6.65
		c1.5-1.667,4.367-4.55,8.6-8.65c8.8-9.066,14.2-18.416,16.2-28.05c2.2-10.7,6.9-25.816,14.1-45.35
		c7.667-20.867,11.633-31.833,11.9-32.9c5.233-20.5,10.95-37.483,17.15-50.95c2.267-4.934,3.95-9.4,5.05-13.4
		c1.6-5.833,3.133-14.2,4.6-25.1c0.167-1.333,1.417-4.133,3.75-8.4c2.833-5.2,4.284-7.9,4.35-8.1c0.6-1.367,1.9-4.817,3.9-10.35
		c2.1-5.133,4.034-8.3,5.8-9.5c-1.133,3.067-1.833,7.733-2.1,14c-0.1,1.867-0.15,5.533-0.15,11c1.2,2.9,2.383,5.883,3.55,8.95
		c2.367,6.133,3.55,10.1,3.55,11.9c0,0.9-0.067,2.333-0.2,4.3c-0.133,2.467-0.3,4-0.5,4.6c-3,1.667-4.683,2.683-5.05,3.05
		c-0.2-0.1-0.733-0.5-1.6-1.2c-0.8-0.667-1.283-1.083-1.45-1.25l-0.05,2.7c0,3.8,0.566,6.383,1.7,7.75
		c0.267-0.1,1.65-1.017,4.15-2.75c1.867-1.3,3.517-1.95,4.95-1.95c2.133,0,3.75,3.1,4.85,9.3c0.8,4.367,1.2,8.717,1.2,13.05
		c0,0.333-0.017,0.667-0.05,1c-0.033,0.3-0.066,0.583-0.1,0.85c-0.267,1.3-0.8,2.483-1.6,3.55c-0.9,1.133-2.45,2.517-4.65,4.15
		l-2.75,0.2c-1.867-0.067-3.433,0.667-4.7,2.2c-1.4,1.633-1.983,3.75-1.75,6.35l-0.4-0.85c-1.6-5.367-2.6-8.8-3-10.3
		c-0.934-3.434-1.583-5.817-1.95-7.15l-0.2,1.05c-0.3,3.5-1.117,15.467-2.45,35.9c-1.333,20.833-2,31.983-2,33.45l0.2,10.65
		c0.534,6.4,0.8,10.1,0.8,11.1c0,9.833-1.783,16.533-5.35,20.1c-1.767,1.5-3,2.683-3.7,3.55c-1.1,1.467-1.65,3.483-1.65,6.05
		c0.233,2.3,0.4,4.25,0.5,5.851v1.1c0.033-0.434,0.517-2.434,1.45-6c-0.033,0.467-0.283,1.767-0.75,3.9
		c-0.467,2.033-0.8,3.383-1,4.05c-3.2-1.066-5.3-2.733-6.3-5v0.95c-0.167-0.801-0.383-2.867-0.65-6.2
		c-0.267-3.034-0.55-4.983-0.85-5.85c-2.5,6.5-3.983,11.167-4.45,14c-0.133,0.9-0.3,4.367-0.5,10.4
		c-0.167,4.733-2.85,11.483-8.05,20.25c-5.066,8.566-7.55,13.95-7.45,16.15c-1.833,2.566-3.233,5.933-4.2,10.1
		c-0.667,2.934-1.033,5.717-1.1,8.35c-0.9,1.334-2.216,4.017-3.95,8.051c-1.633,3.8-2.767,6.767-3.4,8.899
		c-1.6-0.7-2.817-1.416-3.65-2.149c-1.566-1.367-2.35-4.267-2.35-8.7c0-0.967,0.683-3.117,2.05-6.45c1.333-3.2,1.933-6.1,1.8-8.7
		l2.75-7.85c0.633-0.533,1.75-2.117,3.35-4.75c1.867-3.066,3.033-5.584,3.5-7.55c4.7-4.167,9.017-12.717,12.95-25.65
		c3.2-10.5,4.8-17.817,4.8-21.95c0-0.667-0.033-0.917-0.1-0.75c-5.233,7.667-8.667,14.134-10.3,19.4c-0.867,4.633-1.7,7.967-2.5,10
		c-0.133-0.4-0.35,0-0.65,1.2c-0.6,0.733-2.367,2.483-5.3,5.25c-2.833,2.633-4.466,4.1-4.9,4.399c-0.1-0.434-0.183-0.649-0.25-0.649
		l-0.1-2.851c0-5.133,1.067-9.399,3.2-12.8c2.4-3.767,3.817-7.85,4.25-12.25c0.4-4.333,1.633-12.25,3.7-23.75
		c1.7-9.433,2.733-19.117,3.1-29.05L65,162.3c-2.5,8.167-5.817,17.017-9.95,26.55c-3.1,7.167-5.233,13.767-6.4,19.8
		c-1.4,7.167-5.233,15.1-11.5,23.8C30.05,241.184,25.417,246.9,23.25,249.6z M131.7,25.55l-0.5-1.15l0.35,0.55L131.7,25.55z
		 M140.95,54.6h0.149v1.1v9.9c-3.166-1.633-5.233-1.184-6.199,1.35c-0.467,1.5-0.851,2.633-1.15,3.4c-0.5,1.3-1.167,2.15-2,2.55
		c-0.267-1.1-0.917-3.083-1.95-5.95c-0.866-3-1.3-6.117-1.3-9.35c0-2.434,0.467-4.383,1.4-5.85c1.233-1.933,3.199-2.9,5.899-2.9
		c2.934,0,4.45,1.917,4.55,5.75H140.95z M167.15,157.45l-0.25-0.65l-0.2-0.7L167.15,157.45z M196.8,273.25l0.5-0.5l-0.6,0.75
		L196.8,273.25z M189.65,322.5c0.333,0.134,0.616,0.267,0.85,0.4l0.1,0.1C190.366,322.866,190.05,322.7,189.65,322.5z
		 M184.35,320.35l0.601,0.2c0.267,0.101,0.517,0.2,0.75,0.3C185.267,320.684,184.816,320.517,184.35,320.35z M172.9,299.55
		c-2.101,1.101-3.584,3.134-4.45,6.101c-0.434,2.8-0.65,4.216-0.65,4.25l0.25,2.3c-0.133,0.399-0.25,1.116-0.35,2.149
		c-0.066,1.134-0.117,1.851-0.15,2.15l-0.149,0.8c-0.634-0.5-1.517-2.7-2.65-6.6c-1.1-3.667-1.65-5.884-1.65-6.65
		c0-2.434,1-4.75,3-6.95c2-2.233,3-4.316,3-6.25c-7.1-15.1-10.816-22.949-11.149-23.55c-0.867-1.467-3.851-4.316-8.95-8.55
		c-5.366-4.434-9.083-6.967-11.15-7.6c1.7-0.634,2.934-0.95,3.7-0.95c6.767,0,13.101,5.583,19,16.75
		c1.467,2.8,3.483,6.633,6.05,11.5c2.101,3.5,4.084,5.25,5.95,5.25c1.134,0,2.117,0.517,2.95,1.55c0.5,0.6,1.316,1.616,2.45,3.05
		c0.233,2.5,0.916,4.45,2.05,5.851c-0.3,1.166-0.7,2.05-1.2,2.649c-0.666,0.834-1.666,1.434-3,1.8l-0.899-0.85L172.9,299.55z
		 M78.25,247.55l0.75-0.8c0.5-0.434,1.033-0.833,1.6-1.2l0.25-0.1c-0.633,0.399-1.25,0.833-1.85,1.3l-1.4,1.55L78.25,247.55z
		 M47.85,258.15l0.45,2.1l0.05,0.7L47.85,258.15z M42.65,240.75c0.167-0.2,0.333-0.417,0.5-0.65l0.15-0.149
		C43.1,240.217,42.883,240.483,42.65,240.75z M126.3,154c1.3,0.133,3.667,0.65,7.101,1.55c4.666,1.167,8.116,2.367,10.35,3.6
		c0.7,2.867,1.05,5.667,1.05,8.4c0,2.4,0.117,3.95,0.351,4.65c0.733,2.066,2.483,4.883,5.25,8.45c1.833,2.367,2.75,5.85,2.75,10.45
		c0.3,14.167,0.449,21.3,0.449,21.4c0,2.7-1.6,6.283-4.8,10.75c-2.833,3.967-4.467,5.95-4.899,5.95c-2.167,0-4.917-1.601-8.25-4.8
		c-4.434-4.233-6.65-9.434-6.65-15.601c0-3.233,1.533-6.716,4.6-10.45c3.067-3.7,4.601-6.283,4.601-7.75
		c0-0.333-0.05-1.517-0.15-3.55c-0.1-2.633-0.166-5.517-0.2-8.65c-0.833,3.5-2,6.184-3.5,8.05c-1.267,1.633-2.583,2.45-3.949,2.45
		c-1.4,0-3.684,0.15-6.851,0.45c-3.167,0.3-5.316,0.45-6.45,0.45c-2.8,0-5.95-4.833-9.45-14.5c-3.2-8.833-4.8-15.367-4.8-19.6
		l0.2-8.15l0.6,0.5c0.067,0.034,2.434,1.65,7.1,4.85c3.133,2.133,5.883,3.2,8.25,3.2c0.8,0,1.633-0.3,2.5-0.9
		c0.433,0.066,1.25-0.034,2.45-0.3C125.15,154.6,125.933,154.3,126.3,154z M126.1,246.1v-2.149h3.75v2.149H126.1z M179.25,255.4
		c-1.167,0.267-2.15,0.316-2.95,0.149c-1.6-2.033-5.366-4.533-11.3-7.5l-4.15-2.5c-2.133-1.633-3.199-3.55-3.199-5.75
		c0-2.666,1.6-4.967,4.8-6.899c1.733-1.067,4.316-2.45,7.75-4.15c4.566,6.634,7.017,10.25,7.35,10.85c1.267,2.5,1.9,5.75,1.9,9.75
		L179.25,255.4z M119.65,224.8c0.533,0,0.983,0.267,1.35,0.8c0.367,0.534,0.55,1.167,0.55,1.9s-0.183,1.366-0.55,1.9
		c-0.367,0.533-0.817,0.8-1.35,0.8s-0.983-0.267-1.35-0.8c-0.367-0.534-0.55-1.167-0.55-1.9s0.183-1.366,0.55-1.9
		C118.667,225.066,119.117,224.8,119.65,224.8z M104.25,232.8c0.367,0,0.683,0.283,0.95,0.851c0.233,0.533,0.35,1.199,0.35,2
		c0,0.8-0.117,1.483-0.35,2.05c-0.267,0.533-0.583,0.8-0.95,0.8s-0.667-0.267-0.9-0.8c-0.267-0.566-0.4-1.25-0.4-2.05
		c0-0.801,0.133-1.467,0.4-2C103.583,233.083,103.883,232.8,104.25,232.8z M102.75,251.85c0.433-0.433,0.95-0.649,1.55-0.649
		c0.6,0,1.117,0.217,1.55,0.649c0.433,0.4,0.65,0.9,0.65,1.5c0,0.601-0.217,1.117-0.65,1.551c-0.434,0.399-0.95,0.6-1.55,0.6
		c-0.6,0-1.117-0.2-1.55-0.6c-0.433-0.434-0.65-0.95-0.65-1.551C102.1,252.75,102.317,252.25,102.75,251.85z M110.1,252.35
		c1.566,0.034,2.75,1.25,3.55,3.65c0.767,2.3,0.983,5,0.65,8.1c-0.333,3.233-1.183,5.917-2.55,8.051
		c-1.6,2.433-3.617,3.649-6.05,3.649c-0.2,0-1.2-1.816-3-5.45c-1.9-3.899-2.85-6.517-2.85-7.85c0-0.033,2.1-1.75,6.3-5.15
		C110.017,254.083,111.333,252.417,110.1,252.35z M114.15,272.8c0.567,0,1.067,0.217,1.5,0.65c0.4,0.399,0.6,0.883,0.6,1.45
		c0,0.566-0.2,1.066-0.6,1.5c-0.433,0.399-0.933,0.6-1.5,0.6c-0.566,0-1.05-0.2-1.45-0.6c-0.434-0.434-0.65-0.934-0.65-1.5
		c0-0.567,0.217-1.051,0.65-1.45C113.1,273.017,113.583,272.8,114.15,272.8z M110,277.35c0.6,0,2.75,2.034,6.45,6.101
		c0,0.3-1.383,1.45-4.15,3.45c-2.833,2.066-4.617,3.1-5.35,3.1c-1.467,0-2.2-0.783-2.2-2.35c0-1.867,0.5-3.967,1.5-6.301
		C107.383,278.684,108.633,277.35,110,277.35z M143.75,262.4h3.75v3.8h-3.75V262.4z M152.4,268.8
		c2.866,2.033,4.583,3.983,5.149,5.851c0.667,2.966,1.316,5.5,1.95,7.6c0.833,2.667,1.366,4.434,1.6,5.3v2.75
		c-0.199,0.066-0.633,0.101-1.3,0.101c-3.033,0-5.85-2.65-8.45-7.95c-2.267-4.667-3.399-8.9-3.399-12.7
		C147.95,267.017,149.434,266.7,152.4,268.8z M39.45,251.2c-0.267,0.333-0.583,0.5-0.95,0.5s-0.683-0.167-0.95-0.5
		c-0.267-0.367-0.4-0.783-0.4-1.25s0.133-0.867,0.4-1.2c0.267-0.366,0.583-0.55,0.95-0.55s0.683,0.184,0.95,0.55
		c0.267,0.333,0.4,0.733,0.4,1.2S39.717,250.833,39.45,251.2z M35.2,258.3c0,0.667-0.184,1.25-0.55,1.75
		c-0.367,0.467-0.8,0.7-1.3,0.7s-0.934-0.233-1.3-0.7c-0.367-0.5-0.55-1.083-0.55-1.75c0-0.666,0.183-1.233,0.55-1.7
		c0.367-0.5,0.8-0.75,1.3-0.75s0.933,0.25,1.3,0.75C35.017,257.066,35.2,257.634,35.2,258.3z M21.05,271.8l-0.15,1.05
		c-0.533-0.5-1.017-1.267-1.45-2.3c-0.4-0.833-0.6-1.416-0.6-1.75c0-5.233,2.883-10.05,8.65-14.45
		c0.667,1.334,1.65,3.017,2.95,5.051c1.066,1.633,1.6,2.55,1.6,2.75c0,0.866-1.883,2.149-5.65,3.85
		C22.7,267.7,20.917,269.634,21.05,271.8z M16.75,262.15c-0.267,0.233-0.55,0.35-0.85,0.35l-1.8-0.1L14,260.35l3.5,1L16.75,262.15z
		 M8.85,290c-0.2-0.3-0.3-0.667-0.3-1.1c0-0.434,0.1-0.801,0.3-1.101c0.2-0.3,0.45-0.45,0.75-0.45c0.3,0,0.55,0.15,0.75,0.45
		c0.2,0.3,0.3,0.667,0.3,1.101c0,0.433-0.1,0.8-0.3,1.1c-0.2,0.3-0.45,0.45-0.75,0.45C9.3,290.45,9.05,290.3,8.85,290z M6.35,295.45
		c0.7,2.434,1.05,5.383,1.05,8.85s-0.35,6.417-1.05,8.851c-0.733,2.433-1.617,3.649-2.65,3.649c-1.034,0-1.9-1.217-2.6-3.649
		C0.367,310.717,0,307.767,0,304.3s0.367-6.416,1.1-8.85c0.7-2.434,1.566-3.65,2.6-3.65C4.733,291.8,5.617,293.017,6.35,295.45z
		 M13.5,293.35l0.1,2.75c0,0.4-0.117,0.967-0.35,1.7c-0.433,1.233-0.717,2.066-0.85,2.5c0.2,0.134-0.033,0.2-0.7,0.2
		c-0.733,0-1.1-0.65-1.1-1.95c0-0.467,0.3-2.2,0.9-5.2H13.5z M33.5,291c-0.367-0.366-0.55-0.8-0.55-1.3s0.183-0.934,0.55-1.3
		c0.367-0.367,0.8-0.551,1.3-0.551s0.934,0.184,1.3,0.551c0.367,0.366,0.55,0.8,0.55,1.3s-0.183,0.934-0.55,1.3s-0.8,0.55-1.3,0.55
		S33.867,291.366,33.5,291z M65.55,303.05c0.2,0.3,0.3,0.667,0.3,1.101c0,0.399-0.2,0.833-0.6,1.3
		c-0.633,0.666-1.533,0.783-2.7,0.35c0-0.666,0.817-1.816,2.45-3.45C65.333,302.717,65.517,302.95,65.55,303.05z M63.4,318.65
		c-0.933,1.166-2.05,1.75-3.35,1.75c-1.3,0-2.4-0.584-3.3-1.75c-0.933-1.2-1.4-2.634-1.4-4.301c0-1.666,0.467-3.083,1.4-4.25
		c0.9-1.199,2-1.8,3.3-1.8c1.3,0,2.417,0.601,3.35,1.8c0.9,1.167,1.35,2.584,1.35,4.25C64.75,316.017,64.3,317.45,63.4,318.65z
		 M46,325.5c0,0.3,0.433,1.85,1.3,4.65c0.867,2.8,1.3,4.616,1.3,5.449c0,1.467-0.333,2.45-1,2.95c-0.367,0.3-0.967,0.45-1.8,0.45
		c-3.267,0-5.7-2.1-7.3-6.3c-1.033-2.7-1.55-5.3-1.55-7.8c0-1.867,0.517-3.733,1.55-5.601c1.067-1.866,1.6-3.316,1.6-4.35
		c4.6-0.134,6.9,1.733,6.9,5.6c0,0.334-0.167,1.167-0.5,2.5C46.167,324.35,46,325.167,46,325.5z M50.5,338.35
		c2.667,2.667,4,4.334,4,5c0,0.634-0.167,1.15-0.5,1.551c-0.3,0.366-0.7,0.55-1.2,0.55c-1.966,0-2.95-0.9-2.95-2.7
		c0-0.333,0.1-1.05,0.3-2.15C50.383,339.434,50.5,338.684,50.5,338.35z M54,375.8c0.433-8.899,2.333-16.05,5.7-21.45
		c0.566-0.899,1.933-2.783,4.1-5.649c1.534-2.033,2.6-3.816,3.2-5.351l1,2c0.7-2.699,3.783-4.649,9.25-5.85
		c2.767-0.634,7.483-1.167,14.15-1.6c-1.2,1.466-2.967,2.75-5.3,3.85c-0.8,0.366-2.983,1.217-6.55,2.55
		c-5.733,2.101-9.383,4.834-10.95,8.2c-2.533,5.434-5.233,10.4-8.1,14.9C57.867,371.5,55.7,374.3,54,375.8z M82.1,356.8
		c0.333-0.399,0.7-0.717,1.1-0.95c0.867-0.566,1.85-0.767,2.95-0.6c1.767,0.3,3.467,1.517,5.1,3.65c1.533,2.033,2.3,3.916,2.3,5.649
		c0,3.334-1.3,5.934-3.9,7.8c-3.6,2.601-6.133,5.4-7.6,8.4l-0.1,0.95c-0.9-0.934-1.65-2-2.25-3.2c-0.633-1.333-0.95-2.55-0.95-3.65
		C78.75,365.483,79.867,359.467,82.1,356.8z M30.15,299.15c1.2-1.534,2.65-2.301,4.35-2.301s3.15,0.767,4.35,2.301
		c1.2,1.533,1.8,3.383,1.8,5.55c0,2.166-0.6,4.017-1.8,5.55c-1.2,1.533-2.65,2.3-4.35,2.3s-3.15-0.767-4.35-2.3
		c-1.2-1.533-1.8-3.384-1.8-5.55C28.35,302.533,28.95,300.684,30.15,299.15z M19.8,313.65c1.434-1.767,2.167-2.7,2.2-2.801
		c2.667,5.167,4.217,9.2,4.65,12.101c0.467,3.133-0.417,4.7-2.65,4.7c-1.167,0-2.317-0.667-3.45-2c-1.4-1.7-2.1-3.983-2.1-6.851
		C18.45,316.467,18.9,314.75,19.8,313.65z M13,330c-0.567,0-1.05-0.3-1.45-0.9c-0.433-0.6-0.65-1.333-0.65-2.199
		c0-0.867,0.217-1.601,0.65-2.2c0.4-0.601,0.883-0.9,1.45-0.9s1.067,0.3,1.5,0.9c0.4,0.6,0.6,1.333,0.6,2.2
		c0,0.866-0.2,1.6-0.6,2.199C14.067,329.7,13.567,330,13,330z M80.85,387.75c0.667-1.267,1.467-1.9,2.4-1.9s1.733,0.634,2.4,1.9
		c0.667,1.233,1,2.733,1,4.5s-0.333,3.283-1,4.55c-0.667,1.233-1.467,1.851-2.4,1.851s-1.733-0.617-2.4-1.851
		c-0.667-1.267-1-2.783-1-4.55S80.183,388.983,80.85,387.75z M73.8,374.55c-0.5,0-0.933-0.184-1.3-0.55s-0.55-0.8-0.55-1.3
		s0.183-0.934,0.55-1.3c0.367-0.367,0.8-0.551,1.3-0.551s0.934,0.184,1.3,0.551c0.367,0.366,0.55,0.8,0.55,1.3
		s-0.183,0.934-0.55,1.3S74.3,374.55,73.8,374.55z M160.15,323c-0.267,0.4-0.551,0.75-0.851,1.05c-0.533,0.601-1.083,0.9-1.649,0.9
		c-0.301-0.233-0.65-0.467-1.051-0.7c-0.833-0.467-1.699-0.7-2.6-0.7c-0.5,0-0.967,0.15-1.4,0.45c-0.767,0.533-1.149,1.4-1.149,2.6
		c0,2.7,0.633,5.284,1.899,7.75c1.233,2.434,1.851,4.101,1.851,5c0,3.301-0.65,4.95-1.95,4.95c-0.4,0-0.667,0.084-0.8,0.25
		l-0.05,0.2l0.8,0.35c-4.334-0.533-7.233-1.1-8.7-1.699c-2.333-0.9-3.5-3.584-3.5-8.051c0-1.866,0.35-3.566,1.05-5.1
		c0.667-1.533,1-4.25,1-8.15c0-1.666,0.967-2.983,2.9-3.949c1.633-0.801,3.483-1.2,5.55-1.2
		C154.967,316.95,157.85,318.967,160.15,323z M154,345.55l-0.15-0.7l0.351,0.851L154,345.55z M105.75,300.25
		c-0.267-0.6-0.367-1.066-0.3-1.4c0.133-1.033,0.983-2.199,2.55-3.5c0.333,2,0.5,3.334,0.5,4c0,0.767-0.467,1.15-1.4,1.15
		c-0.4,0-0.65-0.017-0.75-0.05L105.75,300.25z M106.05,363.4c0,0.833-0.283,1.55-0.85,2.149c-0.6,0.566-1.3,0.851-2.1,0.851
		c-0.8,0-1.483-0.284-2.05-0.851c-0.6-0.6-0.9-1.316-0.9-2.149c0-0.834,0.3-1.534,0.9-2.101c0.567-0.6,1.25-0.899,2.05-0.899
		c0.8,0,1.5,0.3,2.1,0.899C105.767,361.866,106.05,362.566,106.05,363.4z M155.9,347.5c1,1.434,1.649,2.467,1.949,3.1
		c0.267,0.733,0.567,1.5,0.9,2.301c-0.434-0.967-0.917-1.967-1.45-3C156.767,348.9,156.3,348.1,155.9,347.5z M155.3,370.05v-4.45
		h2.7v4.45H155.3z M220.45,295.9c0-0.301,0.133-0.551,0.399-0.75c0.267-0.233,0.584-0.351,0.95-0.351
		c0.367,0,0.684,0.117,0.95,0.351c0.267,0.199,0.4,0.449,0.4,0.75c0,0.3-0.134,0.566-0.4,0.8c-0.267,0.2-0.583,0.3-0.95,0.3
		c-0.366,0-0.684-0.1-0.95-0.3C220.583,296.467,220.45,296.2,220.45,295.9z M235.95,302.5c0-0.866,0.25-1.6,0.75-2.2
		c0.5-0.633,1.1-0.95,1.8-0.95s1.3,0.317,1.8,0.95c0.5,0.601,0.75,1.334,0.75,2.2s-0.25,1.616-0.75,2.25c-0.5,0.6-1.1,0.9-1.8,0.9
		s-1.3-0.301-1.8-0.9C236.2,304.116,235.95,303.366,235.95,302.5z M229.75,312.3c0-0.767,0.5-1.75,1.5-2.95
		c1.134-1.333,2.217-2,3.25-2c2.267,0,4.45,1.25,6.55,3.75c2.167,2.567,3.25,5.351,3.25,8.351c0,6.333-1.3,9.5-3.899,9.5
		c-2.2,0-3.601-1.084-4.2-3.25c-0.334-1.233-0.617-3.117-0.851-5.65c-0.166-0.7-1.199-1.75-3.1-3.149
		C230.583,315.667,229.75,314.134,229.75,312.3z M210.15,338.9c-1.601,0-3.617-1.483-6.051-4.45c-2.6-3.2-3.899-6.184-3.899-8.95
		c0-0.667,0.1-1.55,0.3-2.65c5-0.199,8.35,1.767,10.05,5.9c0.8,1.967,1.2,4.717,1.2,8.25c0,0.634-0.2,1.134-0.6,1.5
		C210.85,338.767,210.517,338.9,210.15,338.9z M198.15,318.7c-0.467,0.434-1.017,0.649-1.65,0.649s-1.184-0.216-1.65-0.649
		c-0.466-0.467-0.699-1.017-0.699-1.65c0-0.633,0.233-1.166,0.699-1.6c0.467-0.467,1.017-0.7,1.65-0.7s1.184,0.233,1.65,0.7
		c0.466,0.434,0.699,0.967,0.699,1.6C198.85,317.684,198.616,318.233,198.15,318.7z M171.55,317.65
		c0.4-0.567,0.884-0.851,1.45-0.851s1.05,0.283,1.45,0.851c0.399,0.533,0.6,1.199,0.6,2c0,0.8-0.2,1.483-0.6,2.05
		c-0.4,0.533-0.884,0.8-1.45,0.8s-1.05-0.267-1.45-0.8c-0.399-0.566-0.6-1.25-0.6-2.05C170.95,318.85,171.15,318.184,171.55,317.65z
		 M167.95,331.8c-0.5,0.134-0.934,0.184-1.3,0.15l0.55-0.05L167.95,331.8z M170,331.85c2.2,1.367,3.25,2.601,3.15,3.7
		c-0.034,0.5-0.101,0.767-0.2,0.8c-1.733-0.066-2.7-1.166-2.9-3.3L170,331.85z M198.5,358.85c-0.6,0-1.1-0.216-1.5-0.649
		c-0.434-0.434-0.65-0.95-0.65-1.55c0-0.601,0.217-1.117,0.65-1.551c0.4-0.433,0.9-0.649,1.5-0.649s1.116,0.217,1.55,0.649
		c0.4,0.434,0.601,0.95,0.601,1.551c0,0.6-0.2,1.116-0.601,1.55C199.616,358.634,199.1,358.85,198.5,358.85z M252.5,306.15
		c-0.066,0.233-0.4,0.35-1,0.35c-0.9,0-1.6-0.767-2.1-2.3c-0.434-1.334-0.65-2.967-0.65-4.9c0-2.066,0.417-3.55,1.25-4.45
		c0.566,1.101,1.066,2.134,1.5,3.101c0.866,1.899,1.2,3.2,1,3.899V306.15z M249.95,334.3l-0.75,0.15
		c-1.634-1.434-2.367-4.3-2.2-8.601c1.4,2.567,2.283,4.267,2.65,5.101c0.233,0.6,0.35,1.166,0.35,1.7L249.95,334.3z M62,413.35
		l1.5,3.5c-0.033,0.233-0.05,0.384-0.05,0.45c-0.067,0.101-0.3,0.15-0.7,0.15c-0.367,0-0.583-0.017-0.65-0.05
		c-0.133-0.134-0.283-0.233-0.45-0.301c0-0.033-0.033-0.1-0.1-0.199c-0.066-0.134-0.1-0.4-0.1-0.801
		C61.45,415.434,61.633,414.517,62,413.35z M53.35,398.65c0.5-1.167,1.117-1.75,1.85-1.75c0.733,0,1.367,0.583,1.9,1.75
		c0.5,1.166,0.75,2.583,0.75,4.25c0,1.666-0.25,3.083-0.75,4.25c-0.533,1.166-1.167,1.75-1.9,1.75c-0.733,0-1.35-0.584-1.85-1.75
		c-0.533-1.167-0.8-2.584-0.8-4.25C52.55,401.233,52.817,399.816,53.35,398.65z M51.5,412.35l3,1.5
		c-0.367,0.801-0.667,1.233-0.9,1.301c-0.333,0.133-1.167,0.017-2.5-0.351l-0.05-0.75L51.5,412.35z"/>
	<path style="fill-rule:evenodd;clip-rule:evenodd;fill:#F4FAFA;" d="M131.7,25.55l1.45,6v-3c2.166,3.867,4.166,9.667,6,17.4
		c0.767,3.3,1.366,6.183,1.8,8.65h-0.601c-0.1-3.833-1.616-5.75-4.55-5.75c-2.7,0-4.666,0.967-5.899,2.9
		c-0.934,1.467-1.4,3.417-1.4,5.85c0,3.233,0.434,6.35,1.3,9.35c1.033,2.867,1.684,4.85,1.95,5.95c0.833-0.4,1.5-1.25,2-2.55
		c0.3-0.767,0.684-1.9,1.15-3.4c0.966-2.534,3.033-2.983,6.199-1.35v-9.9c0.334,2.2,0.5,4.05,0.5,5.55c0,4.7-0.649,8.067-1.949,10.1
		c-1.267,2-3.4,2.983-6.4,2.95c0.066,0.467,1.033,2.934,2.9,7.4c1.899,4.566,3.283,10.283,4.149,17.15l0.75,1.35
		c-0.934-3.333-0.833-5.633,0.3-6.9c0.667-0.767,2.167-1.383,4.5-1.85c2.334-0.5,3.884-1.184,4.65-2.05
		c1.267-1.467,1.517-3.967,0.75-7.5c5.033,8.3,7.884,17.184,8.55,26.65c0.2,3.067,0.184,6.7-0.05,10.9
		c-0.267,5.367-0.4,8.383-0.4,9.05c0,0.7,0.084,2.05,0.25,4.05c0.167,2.367,0.351,4.117,0.551,5.25l0.25,1.15
		c-0.834-0.633-1.45-2.467-1.851-5.5l-0.2-1.15l-1.149,4.95c0,8.667,3.233,15.183,9.7,19.55l0.25,0.65
		c3.8,7.5,7.55,22.867,11.25,46.1l-0.25,5.3c-0.134,0-0.317,0.35-0.551,1.05c-1.399-1.967-3-3.634-4.8-5
		c-2.5-1.667-4.75-3.25-6.75-4.75c-0.7-0.533-1.416-1.85-2.149-3.95c-0.434-1.233-1.134-3.434-2.101-6.6
		c-2.2-6.3-5.149-10.4-8.85-12.3l-1.2-0.9c0.5,2.033,1.217,4.05,2.15,6.05c0.866,1.667,1.316,2.517,1.35,2.55
		c0.833,4.233,1.25,9.667,1.25,16.3c0,8.167-0.25,13.717-0.75,16.65c-0.167,1.033-0.816,2.95-1.95,5.75l-0.55,0.95l1.45-2.15
		c-1.101,2.167-2.25,3.733-3.45,4.7c-0.9,0.7-2.2,1.316-3.9,1.85l-0.8,0.351l0.7,0.149c0.533,0.066,1,0.101,1.4,0.101
		c3.199,0,5.517-1.084,6.949-3.25c0.967-1.5,1.634-3.884,2-7.15c0.101-0.833,0.184-1.6,0.25-2.3c0.334-2.634,0.601-4.267,0.801-4.9
		c0.399-1.267,1.05-2.166,1.949-2.7c0.567-0.366,1.267-0.55,2.101-0.55c2.566,0,5.033,2.316,7.399,6.95
		c1.233,2.366,2.434,4.967,3.601,7.8c0.967,0.967,3.566,2.884,7.8,5.75c2.5,1.7,4.55,4.25,6.15,7.65
		c1.833,3.899,5.3,9.816,10.399,17.75c2.566,3.967,4.983,7.6,7.25,10.899l-1.399-1.3c0.933,6,5.649,11.334,14.149,16
		c5.434,2.967,8.5,4.684,9.2,5.15c3,2.033,4.866,4.166,5.6,6.399c-19.366-13.633-30.333-20.449-32.899-20.449
		c-0.566,0-1.45,0.449-2.65,1.35l-0.5,0.5c-1.733-1-3.483-3.066-5.25-6.2c-1.6-3.166-2.633-5.033-3.1-5.6l-0.3,0.5
		c-0.067-0.4-0.334-1.467-0.801-3.2c-0.466-1.767-0.783-2.917-0.949-3.45l0.1-1.75l-0.85-0.149c-0.733-1.5-1.733-2.983-3-4.45
		l-1.351-1.25c-0.2,4.066-0.883,6.633-2.05,7.7l0.2-6.051c0-4-0.634-7.25-1.9-9.75c-0.333-0.6-2.783-4.216-7.35-10.85
		c-3.434,1.7-6.017,3.083-7.75,4.15c-3.2,1.933-4.8,4.233-4.8,6.899c0,2.2,1.066,4.117,3.199,5.75l-1.449-0.5
		c-0.134,0.4-0.2,0.934-0.2,1.601c0,0.566,2.767,4.966,8.3,13.199c5.767,10,9.25,19.483,10.45,28.45
		c-1.134-1.434-1.95-2.45-2.45-3.05c-0.833-1.033-1.816-1.55-2.95-1.55c-1.866,0-3.85-1.75-5.95-5.25
		c-2.566-4.867-4.583-8.7-6.05-11.5c-5.899-11.167-12.233-16.75-19-16.75c-0.767,0-2,0.316-3.7,0.95l-4.5-5.7
		c-0.133-0.467-0.283-1.05-0.449-1.75l-0.2-0.851c0-0.033,0.017-0.066,0.05-0.1c0.533-4.967-0.55-10.684-3.25-17.15
		c-0.7-1.633-1.7-3.916-3-6.85c-0.933-2.366-1.4-4.25-1.4-5.65c0-3.3,1.35-7.3,4.05-12c1.366-2.434,2.949-5,4.75-7.7
		c-0.7,0.833-4.334,2.85-10.9,6.05c-6.367,3.133-9.783,4.7-10.25,4.7c-4.933,0-8.117-6.2-9.55-18.6
		c-0.733-6.533-1.133-14.683-1.2-24.45l-0.1-1.25c-0.133,0.367-0.4,1.467-0.8,3.3c-0.367,1.833-0.55,2.867-0.55,3.1l-0.2-10.65
		c0-1.467,0.667-12.617,2-33.45c1.333-20.433,2.15-32.4,2.45-35.9l0.2-1.05c0.367,1.333,1.017,3.716,1.95,7.15
		c0.4,1.5,1.4,4.933,3,10.3l0.4,0.85c-0.233-2.6,0.35-4.717,1.75-6.35c1.267-1.533,2.833-2.267,4.7-2.2l-0.9,0.5l-0.65,0.6
		c0.2,0.167,1.1,0.434,2.7,0.8c1.6,0.333,2.733,0.5,3.4,0.5c1.933,0,3.717-0.95,5.35-2.85c2.3-2.667,3.45-6.667,3.45-12
		c-0.167-5.133-0.934-9.233-2.301-12.3c-0.8,7.233-1.449,12.566-1.95,16c0.033-0.333,0.05-0.667,0.05-1c0-4.333-0.4-8.684-1.2-13.05
		c-1.1-6.2-2.717-9.3-4.85-9.3c-1.433,0-3.083,0.65-4.95,1.95c-2.5,1.733-3.883,2.65-4.15,2.75c-1.133-1.367-1.7-3.95-1.7-7.75
		l0.05-2.7c0.167,0.167,0.65,0.583,1.45,1.25c0.867,0.7,1.4,1.1,1.6,1.2l-0.3,1.2c0.967,0.2,1.883,0.3,2.75,0.3
		c5.033,0,7.55-3.583,7.55-10.75c0-0.933-0.35-3.117-1.05-6.55c-0.767-3.633-1.433-6.15-2-7.55c0.467,5.1,0.7,7.983,0.7,8.65
		c0,2.267-0.3,4.667-0.9,7.2c-0.567,2.4-1.133,3.883-1.7,4.45c0.2-0.6,0.367-2.133,0.5-4.6c0.133-1.967,0.2-3.4,0.2-4.3
		c0-1.8-1.184-5.767-3.55-11.9c-1.167-3.067-2.35-6.05-3.55-8.95c0-5.467,0.05-9.133,0.15-11c0.267-6.267,0.967-10.933,2.1-14
		c0.4-0.233,1.333-0.583,2.8-1.05c1.533-0.5,2.517-0.733,2.95-0.7h0.05l1.5,0.35c0.033,0.133,0.083,0.25,0.15,0.35
		c0.6,1.433,1.05,2.367,1.35,2.8c0.4,0.633,1.117,1.333,2.15,2.1c0.2,1.3,0.95,3.816,2.25,7.55c1.634,4.667,3.267,8.417,4.9,11.25
		L131.7,25.55z M119.55,94.75c2.2-1.633,3.75-3.017,4.65-4.15c0.8-1.067,1.333-2.25,1.6-3.55c-0.3,1.867-0.533,3.034-0.7,3.5
		c-0.233,0.7-0.617,1.417-1.15,2.15c-0.133,0.2-0.617,0.517-1.45,0.95C121.467,94.217,120.483,94.583,119.55,94.75z M23.25,249.6
		c2.167-2.699,6.8-8.416,13.9-17.149c6.267-8.7,10.1-16.634,11.5-23.8c1.167-6.033,3.3-12.633,6.4-19.8
		c4.133-9.533,7.45-18.383,9.95-26.55l0.3-1.85c-0.367,9.933-1.4,19.617-3.1,29.05c-2.067,11.5-3.3,19.417-3.7,23.75
		c-0.433,4.4-1.85,8.483-4.25,12.25c-2.133,3.4-3.2,7.667-3.2,12.8l0.1,2.851c0.067,0,0.15,0.216,0.25,0.649
		c0.434-0.3,2.067-1.767,4.9-4.399c2.934-2.767,4.7-4.517,5.3-5.25c-1.8,5.066-3.833,8.833-6.1,11.3c-1.833,2-3.633,3-5.4,3
		c-2.4,0-3.6-2.75-3.6-8.25c0-0.667,0.967-3.75,2.9-9.25c1.833-5.267,2.65-8.617,2.45-10.05v-10c-0.867,8.7-5.5,17.933-13.9,27.7
		c-2.967,3.467-6.034,6.551-9.2,9.25C26.017,248.184,24.183,249.434,23.25,249.6z M168.05,312.2l-0.25-2.3
		c0-0.034,0.217-1.45,0.65-4.25c0.866-2.967,2.35-5,4.45-6.101c-0.667,1.167-1.317,2.517-1.95,4.05c-1.267,2.967-1.934,5.551-2,7.75
		L168.05,312.2z M88.1,230.6l-0.2,0.5c0.133-3.833-0.1-7-0.7-9.5c-0.4-1.633-1.284-4.866-2.65-9.699c0.5,7.699-2,16.716-7.5,27.05
		c-3.3,6.1-8.117,13.333-14.45,21.7c-0.1-2.2,2.383-7.584,7.45-16.15c5.2-8.767,7.883-15.517,8.05-20.25
		c0.2-6.033,0.367-9.5,0.5-10.4c0.467-2.833,1.95-7.5,4.45-14c0.3,0.867,0.583,2.816,0.85,5.85c0.267,3.333,0.483,5.399,0.65,6.2
		v-0.95c1,2.267,3.1,3.934,6.3,5c0.2-0.667,0.533-2.017,1-4.05c0.467-2.134,0.717-3.434,0.75-3.9c0.767-2.433,1.967-4.117,3.6-5.05
		c0.867-0.467,1.667-0.7,2.4-0.7c0.667,0,1.1,0.067,1.3,0.2c0.2,0.833,0.3,1.583,0.3,2.25c-0.4,5.733-0.65,10.184-0.75,13.35
		c-0.7,1-1.767,1.9-3.2,2.7c-1.667,0.833-2.883,1.483-3.65,1.95c-2.867,1.6-4.267,3.983-4.2,7.149L88.1,230.6z M54.9,304.95
		c-0.933,0.934-2.05,1.684-3.35,2.25c-0.966,0.399-1.883,1.3-2.75,2.7c-0.167-0.301-0.9-1.167-2.2-2.601c0-1,0.7-2.483,2.1-4.45
		c0.667-0.966,1.35-1.866,2.05-2.699c0-0.467-0.1-1.233-0.3-2.301c-0.233-1-0.4-1.6-0.5-1.8c0.633-2.133,1.767-5.1,3.4-8.899
		c1.733-4.034,3.05-6.717,3.95-8.051c0,2.301-0.35,5.634-1.05,10c-0.733,4.367-1.1,6.733-1.1,7.101c0,0.267,0.1,1.116,0.3,2.55
		c0.2,1.566,0.333,2.917,0.4,4.05L54.9,304.95z M48.5,263.75l2.05-1.55l-2.75,7.85C47.833,269.184,48.067,267.083,48.5,263.75z
		 M57.4,249.9c1.833-5.5,3.217-9.233,4.15-11.2c0.067-0.267,0.3-2.851,0.7-7.75c0.8-2.033,1.633-5.367,2.5-10
		c1.633-5.267,5.067-11.733,10.3-19.4c0.067-0.167,0.1,0.083,0.1,0.75c0,4.133-1.6,11.45-4.8,21.95
		C66.417,237.184,62.1,245.733,57.4,249.9z M121.5,155.2c-0.867,0.6-1.7,0.9-2.5,0.9c-2.367,0-5.117-1.067-8.25-3.2
		c-4.667-3.2-7.033-4.816-7.1-4.85l-0.6-0.5l-0.2,8.15c0,4.233,1.6,10.767,4.8,19.6c3.5,9.667,6.65,14.5,9.45,14.5
		c1.133,0,3.283-0.15,6.45-0.45c3.167-0.3,5.45-0.45,6.851-0.45c1.366,0,2.683-0.816,3.949-2.45c1.5-1.867,2.667-4.55,3.5-8.05
		c0.034,3.133,0.101,6.017,0.2,8.65c0.101,2.034,0.15,3.217,0.15,3.55c0,1.467-1.533,4.05-4.601,7.75
		c-3.066,3.733-4.6,7.217-4.6,10.45c0,6.167,2.217,11.367,6.65,15.601c3.333,3.199,6.083,4.8,8.25,4.8
		c0.433,0,2.066-1.983,4.899-5.95c3.2-4.467,4.8-8.05,4.8-10.75c0-0.1-0.149-7.233-0.449-21.4c0-4.6-0.917-8.083-2.75-10.45
		c-2.767-3.566-4.517-6.383-5.25-8.45c-0.233-0.7-0.351-2.25-0.351-4.65c0-2.733-0.35-5.533-1.05-8.4
		c-2.233-1.233-5.684-2.433-10.35-3.6c-3.434-0.9-5.801-1.417-7.101-1.55c0.2-0.233,0.417-0.7,0.65-1.4
		c0.233-0.767,0.35-1.383,0.35-1.85c0-0.333-0.133-1.417-0.399-3.25c-0.267-1.867-0.4-2.967-0.4-3.3c0-4.233,1.217-7.35,3.65-9.35
		c0.199-0.167,1.166-0.817,2.899-1.95c1.066-0.7,1.783-1.4,2.15-2.1l-0.05-0.35c-3.101,0.966-6.233,0.7-9.4-0.8
		c-3.4-1.6-5.25-4.05-5.55-7.35l-0.25-1.5c0.4,4.833-0.3,7.967-2.1,9.4c-1.033,0.767-1.733,1.517-2.1,2.25
		c-0.633,1.333-0.95,3.4-0.95,6.2c0,2.633,0.217,4.533,0.65,5.7c2.066,5.7,3.316,9.267,3.75,10.7L121.5,155.2z M176.3,255.55
		c-0.7-0.133-2.467-1.149-5.3-3.05s-4.833-3.384-6-4.45C170.934,251.017,174.7,253.517,176.3,255.55z M175.8,298.6
		c1.334-0.366,2.334-0.966,3-1.8c0.5-0.6,0.9-1.483,1.2-2.649c2.566,2.866,3.85,6,3.85,9.399c0,0.967-0.233,1.917-0.699,2.851
		c-0.5,1.033-1.101,1.55-1.801,1.55c-0.899,0-1.699-0.9-2.399-2.7C177.75,302.217,176.7,300,175.8,298.6z M54,375.8
		c1.7-1.5,3.867-4.3,6.5-8.399c2.867-4.5,5.567-9.467,8.1-14.9c1.566-3.366,5.217-6.1,10.95-8.2c3.567-1.333,5.75-2.184,6.55-2.55
		c2.333-1.1,4.1-2.384,5.3-3.85c4.733,0,8.783,0.916,12.15,2.75c3.367,1.833,5.05,4.05,5.05,6.649c-0.8,1.3-1.517,2.25-2.15,2.851
		c-1.133,1.1-2.6,1.649-4.4,1.649c-1.6,0-3.767-0.7-6.5-2.1c-2.733-1.4-5.466-2.101-8.2-2.101c-3.9,0-10.417,6.067-19.55,18.2
		c-8.367,12.2-12.55,18.351-12.55,18.45L55.3,386c1.5-1.667,2.567-2.934,3.2-3.8l0.05,1.1l-1.45,1.4c-0.9,1-1.633,1.983-2.2,2.95
		c-0.733,3.933-1.283,6.316-1.65,7.149L52.7,395.4c-0.133-0.334-0.25-0.983-0.35-1.95c-0.1-0.934-0.15-1.667-0.15-2.2
		C52.2,388.783,52.8,383.634,54,375.8z M191.25,269.15c-0.167-0.2-0.533-0.817-1.1-1.851c-0.7-1.2-1.15-2.083-1.351-2.649
		C190.233,267.384,191.05,268.884,191.25,269.15z"/>
</g>
</svg>
