<?xml version="1.0" encoding="iso-8859-1"?>
<!-- Generator: Adobe Illustrator 15.1.0, SVG Export Plug-In . SVG Version: 6.00 Build 0)  -->
<!DOCTYPE svg PUBLIC "-//W3C//DTD SVG 1.1//EN" "http://www.w3.org/Graphics/SVG/1.1/DTD/svg11.dtd">
<svg version="1.1" id="FlashAICB" xmlns="http://www.w3.org/2000/svg" xmlns:xlink="http://www.w3.org/1999/xlink" x="0px" y="0px"
	 width="265.7px" height="436.15px" viewBox="0 0 265.7 436.15" style="enable-background:new 0 0 265.7 436.15;"
	 xml:space="preserve">
<g>
	<path style="fill-rule:evenodd;clip-rule:evenodd;fill:#5E513E;" d="M166.6,67.55l2.351,10.75c-0.066,2.034-0.05,5.934,0.05,11.7
		c0.1,5.5,0.15,8.417,0.15,8.75l-0.301,7.95c-1.066,0.167-2.1,0.267-3.1,0.3c0.333-0.6,0.7-1.683,1.1-3.25
		c0.334-1.367,0.5-2.183,0.5-2.45c0-0.667-0.316-3.6-0.949-8.8c-0.667-5.2-1-8.317-1-9.35c0-2.133,0.116-4.816,0.35-8.05
		C166.017,71.667,166.3,69.15,166.6,67.55z M153.6,78.2c3.067,2.7,5.284,6.35,6.65,10.95c1.434,6.633,2.717,12.434,3.85,17.4
		c-0.066-0.066-0.149-0.15-0.25-0.25c-0.133-0.2-0.25-0.383-0.35-0.55c3.066,6.9,5.467,12.333,7.2,16.3
		c3.2,7.367,4.8,12.867,4.8,16.5c0,4.133-1.316,6.817-3.95,8.05c-0.666-6.434-2.366-13.3-5.1-20.6
		c-1.101-2.967-3.834-9.35-8.2-19.15c-3.533-7.934-6.066-14.533-7.6-19.8c-2.2-7.633-3.284-15.167-3.25-22.6l1.149,4.95
		c-0.2,1.567-0.3,2.684-0.3,3.35c0,1.6,0.384,3.033,1.15,4.3c0.767,1.267,1.633,1.9,2.6,1.9c0.434,0,0.816-0.117,1.15-0.35
		C153.384,78.467,153.533,78.333,153.6,78.2z M169.35,158.85c-3.399-1.867-8.416-4.517-15.05-7.95l-0.6-1.55l0.55,1.5
		c-2.5-1.267-4-2.067-4.5-2.4c-0.467-0.333-1.233-1.067-2.3-2.2l3.25-0.15c0.434,0,2.55,0.316,6.35,0.95
		c3.733,0.6,6.566,1.1,8.5,1.5c6.066,3.167,13.5,10.317,22.3,21.45c8.134,10.3,12.2,16.717,12.2,19.25c0,1.333-0.75,2.267-2.25,2.8
		c-1.533,0.267-2.333,0.4-2.399,0.4c-0.301,0-1.267-0.25-2.9-0.75c-1.767-0.534-2.833-0.833-3.2-0.9c0.533,1.6,1.45,2.883,2.75,3.85
		c0.767,0.533,1.983,1.233,3.65,2.1c2.967,1.733,4.45,4.95,4.45,9.65c0,4.3-0.684,7.95-2.051,10.95
		c-1.366,3.034-2.05,5.417-2.05,7.15c0,0.533,1.45,3.417,4.351,8.65c3.233,5.833,5.233,9.816,6,11.949
		c0.267,0.733,0.383,3.017,0.35,6.851c0,3.467,0.816,6.833,2.45,10.1c4.7,9.367,9.916,17.367,15.649,24
		c1.733,2,2.851,3.684,3.351,5.05c0.7,1.801,1.05,4.467,1.05,8c0,2.267-0.35,3.934-1.05,5c-0.834,1.233-2.184,1.733-4.05,1.5
		c1.466,2.267,3.416,3.784,5.85,4.551c1.4,0.466,3.684,1.1,6.85,1.899c2.067,0.867,3.101,2.667,3.101,5.4
		c0,4.267,0.017,6.434,0.05,6.5c1.2,3.866,2.634,7.133,4.3,9.8c0.934,1.467,2.217,3.316,3.851,5.55
		c2.533,4.134,3.8,11.783,3.8,22.95c0,1.5,0.5,3.2,1.5,5.1c1.366,2.4,2.45,4.417,3.25,6.051c3.166,6.5,4.75,14.75,4.75,24.75
		c0,1.966-2.4,4.066-7.2,6.3c-5.6,2.267-9.184,3.85-10.75,4.75l-3.5-0.55c-1.9-0.4-3.566-0.817-5-1.25
		c-2.066-0.634-5.3-1.767-9.7-3.4l-1.3-0.7c14.634,1.434,24.25,0.566,28.85-2.6c1.934-1.367,3.233-3.267,3.9-5.7
		c0.467-1.7,0.7-4.25,0.7-7.65c0.133-1.133,0.166-2.133,0.1-3c-0.166-1.566-0.8-2.816-1.899-3.75
		c-1.767-0.233-3.2,0.884-4.301,3.351c-1.066,3.2-1.966,5.467-2.699,6.8c1.066-4.366,1.6-7.417,1.6-9.15
		c0-4.966-1.35-10.816-4.05-17.55c-2.634-6.633-4.867-9.95-6.7-9.95c-0.2,0-1.733,0.25-4.6,0.75c0.166,1.4,0.35,3.317,0.55,5.75
		c0.166,2.2,0.25,3.601,0.25,4.2c0,7.4-1.334,12.667-4,15.8c-2.467,2.9-6.5,4.351-12.101,4.351c-1.933,0-4.166-0.4-6.699-1.2
		c-2.167-0.8-3.4-1.2-3.7-1.2c-1.2,0-2.45,1.184-3.75,3.55c-1.3,2.367-2.884,3.551-4.75,3.551c-0.767,0-1.867-0.034-3.3-0.101
		c-1.9-0.133-3.434-0.283-4.601-0.45c0.033-4.666-0.149-8-0.55-10c4,0.967,8.483-0.816,13.45-5.35c3.5-3.233,5.883-6.134,7.149-8.7
		c0.567,0.634,0.884,0.95,0.95,0.95c0.167,1.233,0.25,2.184,0.25,2.85c-0.133,2.801-0.217,4.717-0.25,5.75
		c-0.066,1.667,0.117,3.017,0.55,4.051c-1.533-0.367-2.666-0.5-3.399-0.4c1.566,1.467,2.399,2.233,2.5,2.3
		c1.533,0.8,4.116,1.2,7.75,1.2c4.833,0,7.767-1.267,8.8-3.8c0.366-0.9,0.7-4.601,1-11.101c0.767-2.133,1.167-3.6,1.2-4.399
		l0.399-15.75c0-12.367-3.216-22.8-9.649-31.3c-2-2.667-5.134-6.15-9.4-10.45c-4.767-4.767-8.149-8.367-10.149-10.8l0.149-1.15
		c3.4,2.733,6.667,4.783,9.8,6.15c2.567,1.133,4.7,1.699,6.4,1.699c1.634,0,3-0.25,4.1-0.75c1.7-0.8,2.551-2.133,2.551-4
		c0-1.699-2.067-4.833-6.2-9.399c-1.867-2.033-6.417-6.684-13.65-13.95c-13.233-13.233-19.85-21.783-19.85-25.65
		c0-2.133,1.066-4.35,3.2-6.649c2.1-2.267,3.116-4.117,3.05-5.55c-0.134-2.267,0.083-5.367,0.649-9.301
		c0.634-4.233,0.95-6.966,0.95-8.2c0-3.167-0.483-5.867-1.45-8.1c-0.433-1.033-1.466-2.783-3.1-5.25c-3.066-4.533-4.6-10.3-4.6-17.3
		c0-0.667,0.066-1.733,0.199-3.2l0.351,0.95c0.133,1.5,0.583,2.7,1.35,3.6c0.8,0.867,1.783,1.3,2.95,1.3c0.6,0,1.1-0.383,1.5-1.15
		c0.467-0.933,0.7-2.317,0.7-4.15c0-2.934-0.851-5.767-2.55-8.5c-1.233-1.967-2.767-3.717-4.601-5.25
		c-0.267-0.233-1.684-1.25-4.25-3.05c-2.767-2.667-5.366-4.733-7.8-6.2c-0.3-0.167-0.634-0.367-1-0.6
		C171.55,159.8,170.583,159.25,169.35,158.85z M143.2,188.55l1.149-17.95l0.45-7.1c0.134,2.633,1.584,8.383,4.351,17.25
		c2.633,8.467,3.949,15.367,3.949,20.7c0,4.367-0.633,8.267-1.899,11.7c-1.3,3.4-1.95,6.6-1.95,9.6c0.2,8.1,0.233,13.033,0.1,14.8
		c-1.699-1.133-3.166-2.95-4.399-5.45c-0.7-1.433-1.667-3.649-2.9-6.649c-2.566-5.367-6.7-8.05-12.4-8.05
		c-0.967,0-2.083,0.233-3.35,0.7l0.35-0.35c2.1-1.267,3.3-2.033,3.6-2.3c0.5-0.467,0.75-1.15,0.75-2.05l-0.15-3.15
		c1.933-0.267,4.167-0.217,6.7,0.15c1.8,0.3,2.95,0.217,3.45-0.25c0.7-0.667,1.2-2.55,1.5-5.65
		C142.7,202.2,142.934,196.883,143.2,188.55z M79.35,177.9c-0.3,3.4,0.417,6.733,2.15,10c1.467,2.767,3.517,5.25,6.15,7.45
		c0.4,1.2,0.533,2.1,0.4,2.7l-0.8,0.2c-1.7-0.4-3.567-1.917-5.6-4.55c-2.267-2.9-3.4-5.633-3.4-8.2c0-0.533,0.1-1.15,0.3-1.85
		c0.233-0.767,0.383-2.417,0.45-4.95l-0.45-4.15L78.9,176L79.35,177.9z M67.7,225.55l-0.05-0.1c1.033-0.634,1.783-1,2.25-1.101
		c0.333-0.066,1.583-0.133,3.75-0.199l0.6-0.4l2.7-10.3l3.15-11.95l0.1,6.25c0,6.767-0.483,11.816-1.45,15.15
		c-1.033,3.666-2.733,5.5-5.1,5.5c-1.1,0-2.3-0.351-3.6-1.051C68.85,226.75,68.067,226.15,67.7,225.55z M69.45,309.05l-1.4-0.05
		c0.233,0,0.65-0.2,1.25-0.6c3.3-2.667,5.367-5.317,6.2-7.95c0.433-1.434,0.65-4.4,0.65-8.9v-3.6c0-1.033-0.45-9.634-1.35-25.8
		c2.5,8.267,3.8,12.583,3.9,12.949c1.1,4.5,1.65,9.301,1.65,14.4c0,6.866-0.867,11.967-2.6,15.3
		C75.917,308.366,73.15,309.783,69.45,309.05z M101,405.3c-0.033,0.033-0.067,0.066-0.1,0.101c0-0.134-0.017-0.351-0.05-0.65
		c-0.133-0.566-0.367-1.467-0.7-2.7c-0.5-1.666-0.883-2.866-1.15-3.6l-0.05-0.15l-0.05-0.05c-0.267-0.566-0.867-1.25-1.8-2.05
		c-0.9-0.8-1.9-1.517-3-2.15c0.3-3.767,0.333-10.333,0.1-19.7l0.75,0.551c1.5,0.566,3,3.35,4.5,8.35
		c1.667,5.634,2.417,11.55,2.25,17.75l-0.25,3.4c-0.067,0-0.15,0.116-0.25,0.35C101.1,404.983,101.033,405.167,101,405.3z
		 M191.05,398.2c-0.166,1.233-0.366,2.684-0.6,4.35c-0.434,2.434-1.05,4.334-1.851,5.7c-2,3.366-6.333,5.05-13,5.05
		c-0.933,0-3.116-0.267-6.55-0.8c-1.533-0.267-2.684,0.134-3.45,1.2c0.067,1.033,0.517,2.5,1.351,4.399c0,0.4-0.05,0.617-0.15,0.65
		c-0.166-0.066-0.3-0.1-0.399-0.1c-1.834-0.4-3.351-1-4.551-1.801c-1.166-0.966-2.033-1.683-2.6-2.149
		c-2.1-1.767-5.616-2.65-10.55-2.65c-1.934,0-3.65,1.25-5.15,3.75c-1.7,3.533-3.033,6.3-4,8.3
		c-3.967,8.034-9.566,12.051-16.8,12.051c-1.033,0-2.567-0.317-4.6-0.95c7.767-4.7,13.2-9.117,16.3-13.25
		c3.366-4.467,5.05-9.867,5.05-16.2c0-8.434-1.8-16.366-5.4-23.8c-1.833-3.566-3.133-6.15-3.899-7.75
		c-1.233-2.667-1.95-5.033-2.15-7.101c3.6,8.301,8.417,15.351,14.45,21.15c4.733,4.533,8.767,7.2,12.1,8
		c2.034,0.5,3.667,1.366,4.9,2.6c0.467,0.467,1.333,1.667,2.6,3.601c2,3,5.2,4.5,9.601,4.5c5.8,0,9.2-0.7,10.2-2.101
		c2.933,0,5.433-1.333,7.5-4C190.033,400.017,190.583,399.134,191.05,398.2z M188.1,376.45c0.067,5.533,0.167,10.267,0.301,14.2
		c0,5.1-1.567,8.767-4.7,11c1.3-5.134,2.133-8.851,2.5-11.15c0.399-2.467,0.6-5.316,0.6-8.55c0-0.467-1.3-2.367-3.899-5.7
		c-2.634-3.434-4-5.417-4.101-5.95l1.25,0.15C181.217,370.35,183.9,372.35,188.1,376.45z M151.2,46.8
		c-5.7,1.633-10.134-0.316-13.3-5.85c-2.567-4.5-3.851-10.15-3.851-16.95l0.05-15.3c1.034,2.2,2.584,6.066,4.65,11.6l1.1,3.15
		c1.634,5.233,2.983,9.3,4.051,12.2C145.866,40.95,148.3,44.667,151.2,46.8z M28.85,348.9c0.867-1.167,1.467-2.117,1.8-2.851
		c0.533-1.066,0.833-2.434,0.9-4.1v-0.05c0.067-0.167,0.133-0.351,0.2-0.551c0.933-2.899,3.5-7.783,7.7-14.649l1.35-2.55
		l-1.35,7.199c-1.367,8.567-3.5,14.817-6.4,18.75c-2.867,3.9-6.75,5.851-11.65,5.851c-1.2,0-2.083-0.084-2.65-0.25
		c-0.467-0.134-0.95-0.417-1.45-0.851c0.434-0.3,2.434-0.966,6-2C26.1,352.05,27.95,350.733,28.85,348.9z M27.85,397.8
		c-2.2-0.033-3.85,0.05-4.95,0.25c-1.566,0.334-6.85,2.5-15.85,6.5L5.6,405.3L4.1,406c0.433-1.267,2.233-2.783,5.4-4.55
		c3.233-1.8,5-2.983,5.3-3.55c1.2-2.367,1.75-4.134,1.65-5.301c-0.434-1.6-0.65-3.416-0.65-5.449c0-2.801,0.95-5.434,2.85-7.9
		c2.5-3.267,6.267-5.55,11.3-6.85c-2.8,3.333-4.784,6.35-5.95,9.05c-1.067,2.434-1.6,4.95-1.6,7.55c0,2.366,0.567,4.283,1.7,5.75
		C24.733,395.583,25.983,396.6,27.85,397.8z M73.45,119.1c0.566,1,1.566,2.133,3,3.4c1.433,1.267,2.566,2.017,3.4,2.25
		c-0.233,4.7-0.367,13.533-0.4,26.5c-0.4,2.267-0.867,3.8-1.4,4.6c-0.7,1.066-1.833,1.6-3.4,1.6c-3.3,0-5.233-1.3-5.8-3.9
		c4.933-0.533,7.967-1.633,9.1-3.3c0.566-0.833,0.85-3.133,0.85-6.9c0-4.867-1-9.2-3-13c-2.033-3.833-3.05-6.467-3.05-7.9
		C72.75,121.783,72.983,120.667,73.45,119.1z M115.95,294.2c-1.3,1.467-2.667,2.717-4.1,3.75c-1.833,1.366-3.7,2.149-5.6,2.35
		c1.7,0.033,4,0.117,6.9,0.25c4.267,0,7.667-1.366,10.2-4.1c3.033-3.334,4.583-8.533,4.65-15.601c0.233,2.134,0.433,4.617,0.6,7.45
		c0.167,2.4,0.25,3.934,0.25,4.601c0,3.267-1.45,6.583-4.35,9.949c-4.367,5.067-10.833,7.601-19.4,7.601c-3.067,0-5.333-0.334-6.8-1
		c-1.167-0.533-2.183-1.517-3.05-2.95c-1.067-1.967-2.033-3.6-2.9-4.9c-1.6-2.333-3.684-4.583-6.25-6.75l1.75,0.051
		c3.3,0.333,6.633,0.783,10,1.35c2.233,0.366,4.117,0.55,5.65,0.55c1.333,0,3.083-0.2,5.25-0.6
		C111.45,295.7,113.85,295.033,115.95,294.2z M126.95,273.3c0.066-0.366,0.05-1.899-0.05-4.6l0.35,4.8L126.95,273.3z M68.05,309
		l-0.65,0.3c-1.233,0.533-2.183,0.8-2.85,0.8c-1.033,0-2.216-0.383-3.55-1.149l6.9,0.05H68.05z M58.1,374.2
		c0.3-0.134,0.85-0.3,1.65-0.5c0.867-0.267,1.683-0.717,2.45-1.351c5.333-4.533,10.633-19.699,15.9-45.5
		c0,4.101,0.6,11.084,1.8,20.95c1.167,9.9,1.75,15.834,1.75,17.8c0,3.467-0.583,6.267-1.75,8.4c-1.033,1.9-2.3,2.85-3.8,2.85
		c-2.333,0-4.184,0.95-5.55,2.851c-1.466,2.633-2.65,4.7-3.55,6.2c-3.667,6.033-10.367,9.05-20.1,9.05
		c-2.133,0-3.633-0.117-4.5-0.351c-1-0.267-1.75-0.816-2.25-1.649h0.45c4.367-0.267,8.35-1.9,11.95-4.9
		c3.567-3,5.184-6.066,4.85-9.2C57.1,376.116,57.333,374.566,58.1,374.2z M150.1,338.7c0-0.667,0.034-1.05,0.101-1.15l7.6,1.8
		c1.667,0,3.717-1.416,6.15-4.25c3.233-3.733,4.85-8.35,4.85-13.85c0-0.1-0.017-3.6-0.05-10.5c0.267-8.566,1.167-17.2,2.7-25.9
		c-0.601,10.801,0,18.483,1.8,23.051c1.3,3.399,1.967,5.116,2,5.149c0.634,2.267,0.95,5.184,0.95,8.75c0,8-0.584,13.983-1.75,17.95
		c-1.867,6.366-5.367,9.55-10.5,9.55c-2.4,0-5.3-1.267-8.7-3.8C151.816,342.9,150.1,340.634,150.1,338.7z M102.85,300.2
		c0.194,0,0.485,0,0.875,0c-0.126-0.003-0.234-0.02-0.325-0.05L102.85,300.2z M172.55,312.25c-0.399-3.134-0.983-5.6-1.75-7.4
		c1.767,9.167,1.084,17.134-2.05,23.9c-0.8,1.733-2.017,3.783-3.65,6.15c-1.267,1.866-1.933,3.116-2,3.75l0.301,1.1
		c0.1,0,0.233,0.033,0.399,0.1c0.2,0.067,0.483,0.101,0.851,0.101c3.366,0,5.683-2.134,6.949-6.4c0.934-3.1,1.4-7.899,1.4-14.399
		C173,316.983,172.85,314.684,172.55,312.25z M192.5,392.4c0-0.4,0-0.801,0-1.2l0.1,0.8L192.5,392.4z"/>
	<path style="fill-rule:evenodd;clip-rule:evenodd;fill:#6C5D45;" d="M150.6,168.05l-1.149-1.9c1.399,4.5,2.083,8.367,2.05,11.6
		c-0.033,1.733,0.6,3.167,1.9,4.3c0.033,1.434,0.033,13.684,0,36.75l0.199-1.65c0.5,1.533,0.667,3.433,0.5,5.7
		c2,2.867,3.7,4.667,5.101,5.4c1.133,0.6,3.066,0.9,5.8,0.9c0.033,0,2.45-0.801,7.25-2.4c4.8-2.3,7.2-5.167,7.2-8.6
		c0-3.033-0.467-5.133-1.4-6.3c-0.666-0.833-1.983-1.483-3.95-1.95c-2.899-0.733-5-1.383-6.3-1.95
		c-2.866-1.267-5.616-3.284-8.25-6.05l0.25-0.3c0.267-0.2,0.601-0.3,1-0.3c0.2,0,1.25,0.5,3.15,1.5c1.866,1,2.934,1.5,3.2,1.5
		c2.966,0,4.649-1.417,5.05-4.25c0.033-0.3-0.017-4.583-0.15-12.85l0.2-1.35c0.4,7.1,2.134,12.5,5.2,16.2
		c0.5,0.633,1.783,1.934,3.85,3.9c1.533,1.5,2.65,2.883,3.351,4.15c0.199-0.8,0.383-1.9,0.55-3.3c0.166-1.3,0.25-2.216,0.25-2.75
		c0-3.933-0.767-7.483-2.3-10.65c-1.567-3.167-2.351-5.383-2.351-6.65c0-0.567,0.917-2.783,2.75-6.65
		c1.667-3.567,2.25-6.817,1.75-9.75c1.834,1.533,3.367,3.283,4.601,5.25c1.699,2.733,2.55,5.566,2.55,8.5
		c0,1.833-0.233,3.217-0.7,4.15c-0.4,0.767-0.9,1.15-1.5,1.15c-1.167,0-2.15-0.433-2.95-1.3c-0.767-0.9-1.217-2.1-1.35-3.6
		l-0.351-0.95c-0.133,1.467-0.199,2.534-0.199,3.2c0,7,1.533,12.767,4.6,17.3c1.634,2.467,2.667,4.217,3.1,5.25
		c0.967,2.233,1.45,4.934,1.45,8.1c0,1.233-0.316,3.966-0.95,8.2c-0.566,3.934-0.783,7.034-0.649,9.301
		c0.066,1.433-0.95,3.283-3.05,5.55c-2.134,2.3-3.2,4.517-3.2,6.649c0,3.867,6.616,12.417,19.85,25.65
		c7.233,7.267,11.783,11.917,13.65,13.95c4.133,4.566,6.2,7.7,6.2,9.399c0,1.867-0.851,3.2-2.551,4c-1.1,0.5-2.466,0.75-4.1,0.75
		c-1.7,0-3.833-0.566-6.4-1.699c-3.133-1.367-6.399-3.417-9.8-6.15l-0.149,1.15c2,2.433,5.383,6.033,10.149,10.8
		c4.267,4.3,7.4,7.783,9.4,10.45c6.434,8.5,9.649,18.933,9.649,31.3l-0.399,15.75c-0.033,0.8-0.434,2.267-1.2,4.399
		c0.3-3.767,0.45-6.883,0.45-9.35c-0.367,5.533-0.667,8.8-0.9,9.8c-0.2,0.8-0.983,2.351-2.35,4.65
		c0.633-2.8,1.017-8.717,1.149-17.75c0.101-4.533,0.117-8.816,0.051-12.851c0-4.733-2.467-9.5-7.4-14.3
		c-3.167-2.866-5.616-5.133-7.35-6.8c-3.167-3.033-5.851-6-8.051-8.9c-5.133-6.8-8.517-10.833-10.149-12.1c-2.533-2-6.267-3-11.2-3
		l-3,0.25c0,3.333-0.134,6.684-0.4,10.05c-0.267,3.334-0.399,8.8-0.399,16.4c0,4.767-0.15,8.366-0.45,10.8
		c-0.1,0.634-0.35,1.783-0.75,3.45l-1.55,6.55c-1.634,2.634-3.816,5.316-6.55,8.05c-1.367,1.367-2.051,3.217-2.051,5.55
		c0,0.534,0.684,1.467,2.051,2.801c1.366,1.366,2.25,1.899,2.649,1.6c3.867,4.667,6.217,7.434,7.05,8.3
		c1.667,1.767,3.75,3.434,6.25,5v1.4c-4.199-4.101-6.883-6.101-8.05-6l-1.25-0.15c0.101,0.533,1.467,2.517,4.101,5.95
		c2.6,3.333,3.899,5.233,3.899,5.7c0,3.233-0.2,6.083-0.6,8.55c-0.367,2.3-1.2,6.017-2.5,11.15l-2.75,3.1l0.95,0.1
		c-1,1.4-4.4,2.101-10.2,2.101c-4.4,0-7.601-1.5-9.601-4.5c-1.267-1.934-2.133-3.134-2.6-3.601c-1.233-1.233-2.866-2.1-4.9-2.6
		c-3.333-0.8-7.366-3.467-12.1-8c-6.033-5.8-10.85-12.85-14.45-21.15c0.2,2.067,0.917,4.434,2.15,7.101
		c0.767,1.6,2.066,4.184,3.899,7.75c3.601,7.434,5.4,15.366,5.4,23.8c0,6.333-1.684,11.733-5.05,16.2
		c-3.1,4.133-8.534,8.55-16.3,13.25c-0.367-0.101-1.433-0.65-3.2-1.65c-1.833-1.033-3.1-1.8-3.8-2.3l-0.25-0.2
		c0.7,0.167,1.867,0.367,3.5,0.601c1.633,0.199,2.717,0.3,3.25,0.3c5.267,0,10.033-2.851,14.3-8.55
		c4.233-5.667,6.35-11.95,6.35-18.851c0-0.066-3.149-6.467-9.45-19.2s-9.45-20.25-9.45-22.55c0-1.899,0.45-3.666,1.35-5.3
		c0.567-0.967,1.567-2.55,3-4.75c2.9-5.2,4.35-13.066,4.35-23.6c0-4.767-1.434-8.384-4.3-10.851c-2.9-2.467-6.533-3.166-10.9-2.1
		l-0.1-0.7l-8.175,0.25c-2.273-0.14-4.281-0.307-6.025-0.5c-3.733-0.434-6.767-1.816-9.1-4.15c-0.1,0.867-1.233,3.351-3.4,7.45
		c-2.467,4.634-3.717,6.983-3.75,7.05c-0.267,0.7-0.633,4.351-1.1,10.95c-0.467,6.601-0.7,11.4-0.7,14.4c0,1.5,1.233,3.533,3.7,6.1
		c1.467,1.566,4.167,4.316,8.1,8.25c7.867,8.634,11.8,18,11.8,28.101c0,0.633-0.3,1.883-0.9,3.75c-0.6,1.899-1.117,3.183-1.55,3.85
		c0.167-6.2-0.583-12.116-2.25-17.75c-1.5-5-3-7.783-4.5-8.35l-0.75-0.551c0.233,9.367,0.2,15.934-0.1,19.7L85,388.65
		c-0.833-0.367-2.467-0.9-4.9-1.601c-2.233-0.666-3.417-1-3.55-1c-1.767,0-5.533,3.167-11.3,9.5c-5.8,6.3-9.117,9.45-9.95,9.45
		c-2.066-0.167-4.667-0.583-7.8-1.25c-6.233-1.333-12.133-3.25-17.7-5.75l-1.55-0.2c1.7-2.967,5.3-5.616,10.8-7.95
		c7.567-3.233,11.983-5.283,13.25-6.149c2.333-1.566,4.034-4.5,5.1-8.8c0.6-2.301,1.2-5.334,1.8-9.101
		c0.466-1.633,2.8-6.35,7-14.149c3.833-7.134,5.75-11.434,5.75-12.9c0-2.366-0.45-5.017-1.35-7.95s-1.35-5.3-1.35-7.1
		c0-0.334,0.083-2.434,0.25-6.3c0.1-4.034,0.083-6.817-0.05-8.351c3.7,0.733,6.466-0.684,8.3-4.25c1.733-3.333,2.6-8.434,2.6-15.3
		c0-5.1-0.55-9.9-1.65-14.4c-0.1-0.366-1.4-4.683-3.9-12.949c-1.1-6.367-1.85-12.417-2.25-18.15c-0.367-5.7-0.583-8.733-0.65-9.1
		c-0.367-1.9-1.267-3.384-2.7-4.45c-1.1-0.8-3.867-2.217-8.3-4.25l-0.85-0.601c0.567-0.033,3.117-0.05,7.65-0.05
		c0.367,0.601,1.15,1.2,2.35,1.8c1.3,0.7,2.5,1.051,3.6,1.051c2.367,0,4.067-1.834,5.1-5.5c0.967-3.334,1.45-8.384,1.45-15.15
		l-0.1-6.25l-3.15,11.95c0.4-11.934,0.283-18.633-0.35-20.1c-0.167-0.4-0.417-0.684-0.75-0.85c-0.267-0.4-0.4-1.533-0.4-3.4
		s0.95-7.167,2.85-15.9l0.7,5.5c-0.067,2.533-0.217,4.183-0.45,4.95c-0.2,0.7-0.3,1.317-0.3,1.85c0,2.567,1.133,5.3,3.4,8.2
		c2.033,2.633,3.9,4.15,5.6,4.55l0.8-0.2c0.133-0.6,0-1.5-0.4-2.7c1.167,0.867,2.067,1.45,2.7,1.75c0.5,1.233,1.483,2.633,2.95,4.2
		c0.733,0.8,1.617,1.717,2.65,2.75c-4.367-0.933-7.367-2.1-9-3.5c-1.2-1.033-2.6-1.55-4.2-1.55c-0.733,0-1.2,0.033-1.4,0.1
		c-0.467,0.1-0.7,0.367-0.7,0.8c0.567,5.133,0.85,8.033,0.85,8.7c0,7.367-0.667,14.383-2,21.05c-1.367,5.233-2.05,8.017-2.05,8.35
		c-0.067,3.833,0.066,8,0.4,12.5c0,0.267,0,0.533,0,0.8c0,0.533,0.083,1.467,0.25,2.8c0.066,0.367,0.117,0.7,0.15,1
		c0.133,1.367,0.283,2.75,0.45,4.15c-0.3,1.667,0.117,4.267,1.25,7.8c0.233,0.767,0.917,2.634,2.05,5.601
		c-0.733,5.899,0.733,10.916,4.4,15.05c3.333,3.8,7.3,5.7,11.9,5.7c3.534,0,8.483-1.867,14.85-5.601
		c6.533-3.833,9.8-6.967,9.8-9.399c0-8.967-1.367-18.233-4.1-27.801c-1.667-5.933-4.333-13.267-8-22c-0.033-6-0.133-9.733-0.3-11.2
		l0.35-1.8c0.5-0.033,2.567,0.05,6.2,0.25c2.233,0,3.8-0.567,4.7-1.7c0.267-0.3,1.733-2.933,4.4-7.9c0.867,0.2,2.45,0.833,4.75,1.9
		c2.033,0.967,3.366,1.45,4,1.45c3.233,0,5.333-2.35,6.3-7.05c0.566-2.767,1.217-7.433,1.95-14c-0.267,8.333-0.5,13.65-0.7,15.95
		c-0.3,3.1-0.8,4.983-1.5,5.65c-0.5,0.467-1.65,0.55-3.45,0.25c-2.533-0.367-4.767-0.417-6.7-0.15l0.15,3.15
		c0,0.9-0.25,1.583-0.75,2.05c-0.3,0.267-1.5,1.033-3.6,2.3l-0.35,0.35c1.267-0.467,2.383-0.7,3.35-0.7c5.7,0,9.833,2.683,12.4,8.05
		c1.233,3,2.2,5.217,2.9,6.649c1.233,2.5,2.7,4.317,4.399,5.45c0.134-1.767,0.101-6.7-0.1-14.8c0-3,0.65-6.2,1.95-9.6
		c1.267-3.433,1.899-7.333,1.899-11.7c0-5.333-1.316-12.233-3.949-20.7c-2.767-8.867-4.217-14.617-4.351-17.25l-0.45,7.1
		c-0.466-2.434-1.699-5.35-3.699-8.75c-2.167-3.767-3.767-7.533-4.801-11.3c-0.833-3.066-1.616-9.583-2.35-19.55
		c-0.634-8.067-2.133-14.3-4.5-18.7c1.933,3.067,3.75,6.367,5.45,9.9c1.566,3.4,2.566,5.566,3,6.5c-0.233,2.1-0.316,3.966-0.25,5.6
		c0.133,3.133,1.45,5.95,3.95,8.45c0.133,0.067,0.666,0.283,1.6,0.65c0.967,0.367,1.65,0.617,2.05,0.75V144
		c1.8-0.4,4-0.567,6.601-0.5c2.566,0.067,4.199,0.033,4.899-0.1c2.767-0.6,4.15-4,4.15-10.2c0-6.1-1.3-11.434-3.9-16
		c-0.666-1.2-2.833-4.05-6.5-8.55c-1.267-1.566-2.434-4.367-3.5-8.4c-1.5-5.733-2.333-8.833-2.5-9.3
		c-1.066-2.967-3.666-4.817-7.8-5.55c-2.167-0.4-3.55-0.733-4.15-1c-1.266-0.566-2.033-1.5-2.3-2.8c-0.367-1.8-0.533-4.583-0.5-8.35
		c0-2.267,0.05-6.483,0.15-12.65l0.2,0.25c0.567,6.733,1.117,11.033,1.65,12.9c1.033,3.4,2.983,5.1,5.851,5.1
		c2.267,0,3.883-1.117,4.85-3.35c0.833-1.933,1.25-4.867,1.25-8.8c0-8.434-0.65-14.6-1.95-18.5c-0.833-2.534-2.25-4.65-4.25-6.35
		c-2.166-1.8-3.6-3.533-4.3-5.2c-1.3-3.1-1.95-8.15-1.95-15.15c0-1.067-0.283-3.833-0.85-8.3c-0.567-4.6-1.017-7.517-1.35-8.75
		l0.5-2.65l0.8,0.4c1.4,1.633,2.8,3.8,4.2,6.5L134.05,24c0,6.8,1.283,12.45,3.851,16.95c3.166,5.533,7.6,7.483,13.3,5.85l7.3,7.4
		c1.7,1.867,3.45,3.65,5.25,5.35c1.1,1.434,2.05,4.1,2.85,8c-0.3,1.6-0.583,4.117-0.85,7.55c-0.233,3.233-0.35,5.917-0.35,8.05
		c0,1.033,0.333,4.15,1,9.35c0.633,5.2,0.949,8.133,0.949,8.8c0,0.267-0.166,1.083-0.5,2.45c-0.399,1.567-0.767,2.65-1.1,3.25
		c-0.8-0.133-1.35-0.283-1.65-0.45c-1.133-4.966-2.416-10.767-3.85-17.4c-1.366-4.6-3.583-8.25-6.65-10.95
		c0.434-0.434,0.65-1.167,0.65-2.2c0-0.667-0.05-5.95-0.15-15.85c-1.433,0.367-2.633,1.583-3.6,3.65
		c-0.333,0.733-0.983,2.6-1.95,5.6l-1.149-4.95c-0.034,7.433,1.05,14.966,3.25,22.6c1.533,5.267,4.066,11.867,7.6,19.8
		c4.366,9.8,7.1,16.183,8.2,19.15c2.733,7.3,4.434,14.167,5.1,20.6c-0.434,0.133-2.783,0.217-7.05,0.25c0,0.1-0.25,0.233-0.75,0.4
		l1.8,1.3c-1.934-0.4-4.767-0.9-8.5-1.5c-3.8-0.633-5.916-0.95-6.35-0.95l-3.25,0.15c1.066,1.133,1.833,1.867,2.3,2.2
		c0.5,0.333,2,1.133,4.5,2.4l1.55,4.15c-3.267,0.133-5.366,0.6-6.3,1.4c-0.7,0.633-1.05,1.967-1.05,4c0,1.767,0.45,3.617,1.35,5.55
		C150.434,167.35,150.7,168.05,150.6,168.05z M172.25,160.5c0.366,0.233,0.7,0.433,1,0.6c2.434,1.467,5.033,3.533,7.8,6.2
		c-2-0.533-3.316-1.083-3.95-1.65C175.866,164.183,174.25,162.467,172.25,160.5z M154.3,150.9c6.634,3.434,11.65,6.083,15.05,7.95
		c-0.399-0.133-0.816-0.25-1.25-0.35c-2.267-0.333-3.966-0.617-5.1-0.85C158.566,156.85,155.667,154.6,154.3,150.9z M222.45,377
		c-2,0.967-3.017,1.467-3.05,1.5c-1.5,0.5-3.184,0.55-5.051,0.15c-0.433-1.034-0.616-2.384-0.55-4.051
		c0.033-1.033,0.117-2.949,0.25-5.75c0-0.666-0.083-1.616-0.25-2.85c-0.066,0-0.383-0.316-0.95-0.95
		c-1.267,2.566-3.649,5.467-7.149,8.7c-4.967,4.533-9.45,6.316-13.45,5.35c-0.2-0.933-0.483-1.933-0.85-3
		c7.433,0.101,12.35-0.85,14.75-2.85c2.199-1.866,3.3-5.684,3.3-11.45c0-2.7-0.084-4.733-0.25-6.1c-0.101-1.101-0.434-3.667-1-7.7
		c0.2,1.1,1.55,3.267,4.05,6.5c2.6,3.267,4.083,6.1,4.45,8.5c0.467,2.866,0.85,6.283,1.149,10.25
		C218.384,375.75,219.917,377,222.45,377z M192.5,391.2l0.3-2.101c1.167,0.167,2.7,0.317,4.601,0.45
		c1.433,0.066,2.533,0.101,3.3,0.101c1.866,0,3.45-1.184,4.75-3.551c1.3-2.366,2.55-3.55,3.75-3.55c0.3,0,1.533,0.4,3.7,1.2
		c2.533,0.8,4.767,1.2,6.699,1.2c5.601,0,9.634-1.45,12.101-4.351c2.666-3.133,4-8.399,4-15.8c0-0.6-0.084-2-0.25-4.2
		c-0.2-2.433-0.384-4.35-0.55-5.75c2.866-0.5,4.399-0.75,4.6-0.75c1.833,0,4.066,3.317,6.7,9.95c2.7,6.733,4.05,12.584,4.05,17.55
		c0,1.733-0.533,4.784-1.6,9.15c0.733-1.333,1.633-3.6,2.699-6.8c1.101-2.467,2.534-3.584,4.301-3.351
		c1.1,0.934,1.733,2.184,1.899,3.75c0.066,0.867,0.033,1.867-0.1,3c0,3.4-0.233,5.95-0.7,7.65c-0.667,2.434-1.967,4.333-3.9,5.7
		c-4.6,3.166-14.216,4.033-28.85,2.6l-1.05-0.55c-6.4-4.566-12.134-7.983-17.2-10.25c-4.1-1.833-7.35-2.75-9.75-2.75
		c-0.134,0-0.5,0.134-1.1,0.4c-0.767,0.366-1.417,0.767-1.95,1.199L192.6,392L192.5,391.2z M79.45,151.25l-0.1,26.65L78.9,176
		c0.067-5.6-0.517-9.333-1.75-11.2c-0.867-1.333-2.45-1.983-4.75-1.95c-3.167,0.033-5.3-0.15-6.4-0.55c-2.6-0.966-4.8-3.3-6.6-7
		l0.2-1.75c0.5,0.567,1.1,1.417,1.8,2.55c0.6,0.833,1.283,1.25,2.05,1.25c1.933,0,3.316-0.883,4.15-2.65
		c0.533-1.133,0.8-2.483,0.8-4.05c0-0.333,0.017-3.35,0.05-9.05c0-5.767-0.1-9.233-0.3-10.4c-0.467-3-1.45-7.15-2.95-12.45
		c-1.167-4.133-1.75-7.25-1.75-9.35c0-0.667,0.15-3.267,0.45-7.8l0.55-0.15c0.3,0.233,0.733,0.716,1.3,1.45
		c0.5,0.667,0.817,1.133,0.95,1.4c0.466,1.6,1.65,4.4,3.55,8.4c1.633,3.466,2.7,5.6,3.2,6.4c-0.467,1.566-0.7,2.683-0.7,3.35
		c0,1.433,1.017,4.066,3.05,7.9c2,3.8,3,8.133,3,13c0,3.767-0.283,6.066-0.85,6.9c-1.133,1.667-4.167,2.767-9.1,3.3
		c0.566,2.6,2.5,3.9,5.8,3.9c1.567,0,2.7-0.534,3.4-1.6C78.583,155.05,79.05,153.517,79.45,151.25z M30.65,346.05
		c0.067-0.8,0.367-2.166,0.9-4.1C31.483,343.616,31.183,344.983,30.65,346.05z M39.45,326.7c-4.2,6.866-6.767,11.75-7.7,14.649
		c0.7-2.466,1.767-5.767,3.2-9.899c2.667-7.7,4.167-14.5,4.5-20.4V326.7z M28.85,348.9c-0.9,1.833-2.75,3.149-5.55,3.949
		c-3.566,1.034-5.566,1.7-6,2c0.5,0.434,0.983,0.717,1.45,0.851c0.567,0.166,1.45,0.25,2.65,0.25c4.9,0,8.783-1.95,11.65-5.851
		c2.9-3.933,5.034-10.183,6.4-18.75c0.066,3.233,0.1,5.184,0.1,5.851c0,2.133-0.3,3.616-0.9,4.45c-1,1.366-2,4.6-3,9.699
		c-1.2,1.134-2.25,2.25-3.15,3.351c-1.767,2.133-2.717,4.033-2.85,5.7c-1.367,0.433-3.617,1.75-6.75,3.949
		c-2.5,1.767-4.95,2.65-7.35,2.65c-2.566,0-4.816-0.9-6.75-2.7c-2-1.866-3.417-4.5-4.25-7.899c0.034-1.167-0.066-2.601-0.3-4.301
		c-0.3-2.3-0.467-3.6-0.5-3.899l0.05,0.1c0.833,2.167,1.9,3.934,3.2,5.3c1.633,1.7,3.483,2.551,5.55,2.551
		c0.067,0,1.95-0.9,5.65-2.7C22.5,351.417,26.05,349.9,28.85,348.9z M175.4,238.1l2.699-2.6l-5.8,2.9
		c-2.2-0.067-5.083-0.584-8.649-1.551c-3.101-0.933-4.684-1.399-4.75-1.399c-3.367,0-4.917,3.55-4.65,10.649
		c0.267,3.667,0.4,6.233,0.4,7.7c0.033,2.533-0.334,4-1.101,4.4c-4.166,2.1-6.633,3.383-7.399,3.85
		c-0.801,0.533-1.284,1.634-1.45,3.3c-0.2,2.4-0.733,4.134-1.601,5.2c-1.199,1.066-2.183,2.033-2.949,2.9l-0.351,0.3
		c0.167-0.634,0.566-1.767,1.2-3.4c0.467-1.133,0.7-2.233,0.7-3.3c0-1.467-0.25-2.616-0.75-3.45c-0.834-1.366-1.55-3.083-2.15-5.149
		c1.367-0.566,3.084-1.167,5.15-1.8c1.267-0.4,2.05-0.801,2.35-1.2c0.4-0.533,0.601-4.2,0.601-11c0-6-2.25-11.084-6.75-15.25
		c-3.634-3.367-6.917-5.05-9.851-5.05c-4.2,0-7.767,1.149-10.7,3.449c-2.434,1.9-3.65,3.733-3.65,5.5c0,1.034,0.667,2.434,2,4.2
		c0.8,1.101,2.283,3.033,4.45,5.8c4.3,6.134,6.517,12.834,6.65,20.101c0.133,7.899,0.633,12.899,1.5,15c1.034,2.566,1.7,6.1,2,10.6
		c-1.7,3.233-2.95,5.667-3.75,7.3c-1.367,2.867-2.05,5.483-2.05,7.851c0,0.666,0.25,1.883,0.75,3.649
		c0.533,1.934,1.067,3.301,1.6,4.101c0.4,1.866,1.283,3.633,2.65,5.3c1.967,2.467,4.434,3.7,7.4,3.7c2.8,0,5.216-0.783,7.25-2.351
		c2.199-1.733,3.483-4.116,3.85-7.149l-0.15-0.9c0.301,0.8,0.584,3.717,0.851,8.75c0.233,4.101,0.35,6.8,0.35,8.101
		c0,2.733,0.25,4.6,0.75,5.6c0.533,1.033,1.566,1.55,3.101,1.55c4.633,0,7.8-0.883,9.5-2.649c1.199-1.233,1.8-3.184,1.8-5.851
		c0-6.066-0.417-12.983-1.25-20.75c-0.834-7.8-1.25-13.767-1.25-17.899c0-1.834,0.366-3.117,1.1-3.851
		c0.4-0.399,1.334-0.883,2.8-1.45c3.467-1.233,6.167-4.05,8.101-8.449c1.833-4.134,2.934-7.684,3.3-10.65
		c0.333-2.7,0.5-9.05,0.5-19.05c0-2.3-0.134-4.517-0.4-6.65C177.95,237.55,176.634,237.9,175.4,238.1z M127.25,273.5l-0.35-4.8
		c0.1,2.7,0.117,4.233,0.05,4.6l-1.5-1.149c-0.934,8.1-1.55,12.616-1.85,13.55c-0.967,2.967-3.517,5.8-7.65,8.5
		c-2.1,0.833-4.5,1.5-7.2,2c-2.167,0.399-3.917,0.6-5.25,0.6c-1.533,0-3.417-0.184-5.65-0.55c-3.367-0.566-6.7-1.017-10-1.35
		l-1.75-0.051c2.566,2.167,4.65,4.417,6.25,6.75c0.867,1.301,1.833,2.934,2.9,4.9c0.867,1.434,1.883,2.417,3.05,2.95
		c1.467,0.666,3.733,1,6.8,1c8.566,0,15.033-2.533,19.4-7.601c2.9-3.366,4.35-6.683,4.35-9.949c0-0.667-0.083-2.2-0.25-4.601
		c-0.167-2.833-0.367-5.316-0.6-7.45l0.15-4C128.15,275.083,127.85,273.967,127.25,273.5z M74.8,262.15
		c0.9,16.166,1.35,24.767,1.35,25.8v3.6c0,4.5-0.217,7.467-0.65,8.9c-0.833,2.633-2.9,5.283-6.2,7.95v-0.15L67.9,309l-6.9-0.05
		c1.333,0.767,2.517,1.149,3.55,1.149c0.667,0,1.617-0.267,2.85-0.8c-3.233,2.134-5.517,3.2-6.85,3.2c-1.033,0-1.983-0.9-2.85-2.7
		c-1.2-2.434-1.95-6.05-2.25-10.85v-8.9c0.667,4.101,1.983,7.434,3.95,10s4.133,3.851,6.5,3.851c2.033,0,3.6-0.5,4.7-1.5
		c1.267-1.101,2.217-3.084,2.85-5.95C74.617,291.217,75.067,279.783,74.8,262.15z M58.1,374.2c-0.767,0.366-1,1.916-0.7,4.649
		c0.333,3.134-1.283,6.2-4.85,9.2c-3.6,3-7.583,4.634-11.95,4.9h-0.45c0.5,0.833,1.25,1.383,2.25,1.649
		c0.867,0.233,2.367,0.351,4.5,0.351c9.733,0,16.434-3.017,20.1-9.05c0.9-1.5,2.083-3.567,3.55-6.2
		c1.367-1.9,3.217-2.851,5.55-2.851c1.5,0,2.767-0.949,3.8-2.85c1.167-2.134,1.75-4.934,1.75-8.4c0-1.966-0.583-7.899-1.75-17.8
		c-1.2-9.866-1.8-16.85-1.8-20.95c-5.267,25.801-10.567,40.967-15.9,45.5c-0.767,0.634-1.583,1.084-2.45,1.351
		C58.95,373.9,58.4,374.066,58.1,374.2z M132.85,335.35c0.434,2.667,0.65,6.884,0.65,12.65c0,0.634,0.634,1.184,1.9,1.65
		c0.933,0.333,1.6,0.5,2,0.5c2.267,0,3.883-0.667,4.85-2c1.033-1.4,1.55-3.7,1.55-6.9c0-3.533-0.934-6.417-2.8-8.65
		c-1.733-2.066-5.05-4.466-9.95-7.199C131.95,330.333,132.55,333.65,132.85,335.35z M150.1,338.7c0,1.934,1.717,4.2,5.15,6.8
		c3.4,2.533,6.3,3.8,8.7,3.8c5.133,0,8.633-3.184,10.5-9.55c1.166-3.967,1.75-9.95,1.75-17.95c0-3.566-0.316-6.483-0.95-8.75
		c-0.033-0.033-0.7-1.75-2-5.149c-1.8-4.567-2.4-12.25-1.8-23.051c-1.533,8.7-2.434,17.334-2.7,25.9c0.033,6.9,0.05,10.4,0.05,10.5
		c0,5.5-1.616,10.116-4.85,13.85c-2.434,2.834-4.483,4.25-6.15,4.25l-7.6-1.8C150.134,337.65,150.1,338.033,150.1,338.7z
		 M143.75,352.8c-2.6,0-5.2,0.884-7.8,2.65c-3,2.033-4.5,4.467-4.5,7.3c0,5.134,2.333,10.833,7,17.1c4.8,6.4,9.366,9.601,13.7,9.601
		c0.866,0,2.949-0.316,6.25-0.95c3.3-0.667,5.05-1,5.25-1c2.899,0,6.517,0.566,10.85,1.7c2.333,0.6,5.25,1.434,8.75,2.5
		c1.6-9.533-3.116-18.684-14.15-27.45c-4.3-3.4-8.933-6.184-13.899-8.35C150.533,353.833,146.717,352.8,143.75,352.8z"/>
	<path style="fill-rule:evenodd;clip-rule:evenodd;fill:#4C4336;" d="M168.95,78.3c2.333,10.133,4.383,19.7,6.149,28.7l9.351,46.85
		c3.066,8.967,5.733,15.05,8,18.25c1.267,1.767,2.767,3.25,4.5,4.45c1.399,1.567,2.833,5.133,4.3,10.7c1.866,7,4.4,19.35,7.6,37.05
		l1.2,5.15c3.3,19.066,11.117,41.283,23.45,66.649c3.533,7.233,7.917,15.684,13.15,25.351c4.5,8.3,7.05,13.166,7.649,14.6
		c1.834,4.3,2.816,7.601,2.95,9.9c0.667,12.033,1.3,21.05,1.9,27.05c0.233,2.3,1.433,6.434,3.6,12.4
		c1.967,5.366,2.95,10.433,2.95,15.199c0,1.167-0.134,2.417-0.4,3.75c-0.399,2.134-1.033,3.617-1.899,4.45
		c-0.5,0.167-2.067,0.434-4.7,0.8c-1.8,0.233-3.184,0.384-4.15,0.45c-0.467,0.033-0.85,0.05-1.149,0.05
		c-0.534,0-1.167-0.017-1.9-0.05c-2-0.133-4.667-0.416-8-0.85c1.566-0.9,5.15-2.483,10.75-4.75c4.8-2.233,7.2-4.334,7.2-6.3
		c0-10-1.584-18.25-4.75-24.75c-0.8-1.634-1.884-3.65-3.25-6.051c-1-1.899-1.5-3.6-1.5-5.1c0-11.167-1.267-18.816-3.8-22.95
		c-1.634-2.233-2.917-4.083-3.851-5.55c-1.666-2.667-3.1-5.934-4.3-9.8c-0.033-0.066-0.05-2.233-0.05-6.5
		c0-2.733-1.033-4.533-3.101-5.4c-3.166-0.8-5.449-1.434-6.85-1.899c-2.434-0.767-4.384-2.284-5.85-4.551
		c1.866,0.233,3.216-0.267,4.05-1.5c0.7-1.066,1.05-2.733,1.05-5c0-3.533-0.35-6.199-1.05-8c-0.5-1.366-1.617-3.05-3.351-5.05
		c-5.733-6.633-10.949-14.633-15.649-24c-1.634-3.267-2.45-6.633-2.45-10.1c0.033-3.834-0.083-6.117-0.35-6.851
		c-0.767-2.133-2.767-6.116-6-11.949c-2.9-5.233-4.351-8.117-4.351-8.65c0-1.733,0.684-4.116,2.05-7.15
		c1.367-3,2.051-6.65,2.051-10.95c0-4.7-1.483-7.917-4.45-9.65c-1.667-0.867-2.884-1.567-3.65-2.1c-1.3-0.967-2.217-2.25-2.75-3.85
		c0.367,0.067,1.434,0.367,3.2,0.9c1.634,0.5,2.6,0.75,2.9,0.75c0.066,0,0.866-0.133,2.399-0.4c1.5-0.533,2.25-1.466,2.25-2.8
		c0-2.533-4.066-8.95-12.2-19.25c-8.8-11.133-16.233-18.283-22.3-21.45l-1.8-1.3c0.5-0.167,0.75-0.3,0.75-0.4
		c4.267-0.033,6.616-0.117,7.05-0.25c2.634-1.233,3.95-3.917,3.95-8.05c0-3.633-1.6-9.133-4.8-16.5c-1.733-3.966-4.134-9.4-7.2-16.3
		c0.1,0.167,0.217,0.35,0.35,0.55c0.101,0.1,0.184,0.184,0.25,0.25c0.301,0.167,0.851,0.317,1.65,0.45c1-0.033,2.033-0.133,3.1-0.3
		l0.301-7.95c0-0.333-0.051-3.25-0.15-8.75C168.9,84.233,168.884,80.333,168.95,78.3z M214.35,378.65
		c1.867,0.399,3.551,0.35,5.051-0.15c0.033-0.033,1.05-0.533,3.05-1.5c0.267-0.134,1.25-0.95,2.95-2.45
		c1.699-1.5,2.633-2.366,2.8-2.6c1.366-2.3,2.149-3.851,2.35-4.65c0.233-1,0.533-4.267,0.9-9.8c0,2.467-0.15,5.583-0.45,9.35
		c-0.3,6.5-0.634,10.2-1,11.101c-1.033,2.533-3.967,3.8-8.8,3.8c-3.634,0-6.217-0.4-7.75-1.2c-0.101-0.066-0.934-0.833-2.5-2.3
		C211.684,378.15,212.816,378.283,214.35,378.65z M191.45,395.4c-0.134,0.8-0.267,1.733-0.4,2.8
		c-0.467,0.934-1.017,1.816-1.649,2.649c-2.067,2.667-4.567,4-7.5,4l-0.95-0.1l2.75-3.1c3.133-2.233,4.7-5.9,4.7-11
		c-0.134-3.934-0.233-8.667-0.301-14.2v-1.4v-6.95c0.467,1.434,1,2.784,1.601,4.051c0.733,1.566,1.3,2.883,1.7,3.949
		c0.366,1.067,0.649,2.067,0.85,3c0.4,2,0.583,5.334,0.55,10l-0.3,2.101c0,0.399,0,0.8,0,1.2L191.45,395.4z M115.95,294.2
		c4.133-2.7,6.683-5.533,7.65-8.5c0.3-0.934,0.917-5.45,1.85-13.55l1.5,1.149l0.3,0.2c0.6,0.467,0.9,1.583,0.9,3.35l-0.15,4
		c-0.067,7.067-1.617,12.267-4.65,15.601c-2.533,2.733-5.934,4.1-10.2,4.1c-2.9-0.133-5.2-0.217-6.9-0.25
		c1.9-0.2,3.767-0.983,5.6-2.35C113.283,296.917,114.65,295.667,115.95,294.2z M102.85,300.2l0.55-0.05
		c0.091,0.03,0.199,0.047,0.325,0.05C103.335,300.2,103.044,300.2,102.85,300.2z M172.55,312.25c0.3,2.434,0.45,4.733,0.45,6.9
		c0,6.5-0.467,11.3-1.4,14.399c-1.267,4.267-3.583,6.4-6.949,6.4c-0.367,0-0.65-0.033-0.851-0.101c-0.166-0.066-0.3-0.1-0.399-0.1
		l-0.301-1.1c0.067-0.634,0.733-1.884,2-3.75c1.634-2.367,2.851-4.417,3.65-6.15c3.134-6.767,3.816-14.733,2.05-23.9
		C171.566,306.65,172.15,309.116,172.55,312.25z"/>
	<path style="fill-rule:evenodd;clip-rule:evenodd;fill:#76664D;" d="M251.5,410.05c-1.634-0.033-2.833-0.083-3.6-0.149
		c-1.534-0.134-4.167-0.551-7.9-1.25l3.5,0.55C246.833,409.634,249.5,409.917,251.5,410.05z M263.4,408.8
		c-1.167,0.8-4.117,1.217-8.851,1.25c0.967-0.066,2.351-0.217,4.15-0.45C261.333,409.233,262.9,408.967,263.4,408.8z M181.05,167.3
		c2.566,1.8,3.983,2.817,4.25,3.05c0.5,2.933-0.083,6.183-1.75,9.75c-1.833,3.867-2.75,6.083-2.75,6.65
		c0,1.267,0.783,3.483,2.351,6.65c1.533,3.167,2.3,6.717,2.3,10.65c0,0.534-0.084,1.45-0.25,2.75c-0.167,1.4-0.351,2.5-0.55,3.3
		c-0.7-1.267-1.817-2.65-3.351-4.15c-2.066-1.967-3.35-3.267-3.85-3.9c-3.066-3.7-4.8-9.1-5.2-16.2l-0.2,1.35
		c0.134,8.267,0.184,12.55,0.15,12.85c-0.4,2.833-2.084,4.25-5.05,4.25c-0.267,0-1.334-0.5-3.2-1.5c-1.9-1-2.95-1.5-3.15-1.5
		c-0.399,0-0.733,0.1-1,0.3l-0.25,0.3c2.634,2.767,5.384,4.783,8.25,6.05c1.3,0.566,3.4,1.216,6.3,1.95
		c1.967,0.467,3.284,1.117,3.95,1.95c0.934,1.167,1.4,3.267,1.4,6.3c0,3.433-2.4,6.3-7.2,8.6c-4.8,1.6-7.217,2.4-7.25,2.4
		c-2.733,0-4.667-0.301-5.8-0.9c-1.4-0.733-3.101-2.533-5.101-5.4c0.167-2.267,0-4.167-0.5-5.7l-0.199,1.65
		c0.033-23.066,0.033-35.316,0-36.75l0.75,0.1l-0.301,6.9c0,3.4,0.317,5.883,0.95,7.45c0.767,2,2.167,3,4.2,3
		c0.667,0,1.316-0.033,1.95-0.1c0.333-4.667,0.7-9.417,1.1-14.25c0.134-1.767,0.2-3.433,0.2-5c0-2.9-0.616-6.85-1.85-11.85
		c-1.233-5.033-2.467-8.633-3.7-10.8c-1.367-0.133-2.467,0.417-3.3,1.65c-0.867,1.3-1.301,3.217-1.301,5.75
		c0,1.5,0.117,3.533,0.351,6.1l-1.851-2.95c0.101,0-0.166-0.7-0.8-2.1c-0.899-1.934-1.35-3.784-1.35-5.55c0-2.033,0.35-3.367,1.05-4
		c0.934-0.8,3.033-1.267,6.3-1.4l-1.55-4.15l-0.55-1.5l0.6,1.55c1.367,3.7,4.267,5.95,8.7,6.75c1.134,0.233,2.833,0.517,5.1,0.85
		c0.434,0.1,0.851,0.217,1.25,0.35c1.233,0.4,2.2,0.95,2.9,1.65c2,1.967,3.616,3.683,4.85,5.15
		C177.733,166.217,179.05,166.767,181.05,167.3z M171.45,175.45c0,0.8,0.566,3.983,1.7,9.55c1.133,5.6,1.699,8.783,1.699,9.55
		c0,0.434,0.217,1.383,0.65,2.85l0.6,2.1c0-0.2,0.101-4.083,0.301-11.65c-0.367-7.833-1.9-12.783-4.601-14.85l-0.149,0.5
		C171.517,174.133,171.45,174.783,171.45,175.45z M129.15,1.45l0.75,0.75l-0.8-0.4L129.15,1.45z M129.65,60.85
		c1.333,2.1,2.9,4.883,4.7,8.35c0.867,1.633,1.584,2.45,2.15,2.45c1.3,0,2.134-0.617,2.5-1.85c0.333-1.066,0.5-3.267,0.5-6.6
		c0-12.167-4.55-19.967-13.65-23.4c-0.1-0.1-2.633-1.867-7.6-5.3c-2.1-1.333-3.233-2.033-3.4-2.1c-0.133,0-0.3,0-0.5,0
		c-0.167-0.2-0.3-0.4-0.4-0.6c-1.2-1.8-1.8-3.983-1.8-6.55l1.55-4.4c4.1,0,7.617-1.6,10.55-4.8c2.9-3.2,4.35-7.066,4.35-11.6
		c0.333,1.233,0.783,4.15,1.35,8.75c0.566,4.466,0.85,7.233,0.85,8.3c0,7,0.65,12.05,1.95,15.15c0.7,1.667,2.134,3.4,4.3,5.2
		c2,1.7,3.417,3.816,4.25,6.35c1.3,3.9,1.95,10.066,1.95,18.5c0,3.933-0.417,6.867-1.25,8.8c-0.967,2.233-2.583,3.35-4.85,3.35
		c-2.867,0-4.817-1.7-5.851-5.1C130.767,71.883,130.217,67.583,129.65,60.85z M102.3,158.2c-1.767,1.2-3.333,2.75-4.7,4.65
		c-1.567,2.066-2.3,3.816-2.2,5.25c-0.467,1.133-0.95,2.383-1.45,3.75l-0.55,1.7c-2.267-2.1-3.733-4.683-4.4-7.75
		c-0.267-1.267-0.4-3.117-0.4-5.55c0-0.333-0.05-2.217-0.15-5.65c0-3.633,0.216-6.267,0.65-7.9c0.467-1.8,1.816-4.017,4.05-6.65
		c2-2.4,3-4.05,3-4.95c0-1.333-0.5-2.417-1.5-3.25c-0.133-0.1-1.3-0.8-3.5-2.1c-3.7-2.167-6.25-5.65-7.65-10.45
		c0.667-2.5,1.467-5.7,2.4-9.6c2.467-7.967,7.1-19.717,13.9-35.25c1.2,0.667,1.967,1.2,2.3,1.6c0.5,0.633,0.75,1.65,0.75,3.05
		c0,0.633-0.483,2.867-1.45,6.7c-0.867,3.367-1.4,5.35-1.6,5.95c-0.867,1.1-1.883,3.1-3.05,6c-1.067,2.7-1.6,4.433-1.6,5.2
		c0,0.667,0.184,1.2,0.55,1.6c0.233,0.3,0.7,0.65,1.4,1.05c-0.2,1.267-0.517,2.933-0.95,5c-0.233,1-0.35,2.083-0.35,3.25
		c0,2.033,0.517,3.767,1.55,5.2c1.066,1.467,2.4,2.2,4,2.2c0.066,0,3.5-1.633,10.3-4.9c6.767-3.8,10.15-7,10.15-9.6
		c0-0.333,0.034-2.717,0.1-7.15c-0.033-4.633-0.2-7.833-0.5-9.6c-0.4-2.2-2.017-3.617-4.85-4.25c-2.667-0.6-4-1.433-4-2.5
		c0-0.333,0.167-1.4,0.5-3.2c0.333-1.833,0.5-2.917,0.5-3.25c0-0.033,0.017-1.283,0.05-3.75c0.133-2.9,0.433-5.55,0.9-7.95
		c1.533-7.667,4.55-11.5,9.05-11.5c0.733,0,2.7,2.333,5.9,7c-0.1,6.167-0.15,10.383-0.15,12.65c-0.033,3.767,0.133,6.55,0.5,8.35
		c0.267,1.3,1.034,2.233,2.3,2.8c0.601,0.267,1.983,0.6,4.15,1c4.134,0.733,6.733,2.583,7.8,5.55c0.167,0.466,1,3.566,2.5,9.3
		c1.066,4.033,2.233,6.833,3.5,8.4c3.667,4.5,5.834,7.35,6.5,8.55c2.601,4.566,3.9,9.9,3.9,16c0,6.2-1.384,9.6-4.15,10.2
		c-0.7,0.133-2.333,0.167-4.899,0.1c-2.601-0.067-4.801,0.1-6.601,0.5c0.134-0.8,0.55-2.65,1.25-5.55c0.601-2.833,0.9-5,0.9-6.5
		c0-6.6-1.767-13.05-5.3-19.35c-0.067-0.133-1.567-2.6-4.5-7.4c-1.767-2.9-3.051-5.383-3.851-7.45c-0.233,0.7-0.434,1.7-0.6,3
		c-0.167,1.133-0.25,1.983-0.25,2.55c0,1.934,0.55,5.567,1.649,10.9c0.101,3.767,0.567,6.683,1.4,8.75c0.1,0.2,0.4,0.716,0.9,1.55
		c0.366,1.633,0.716,3.033,1.05,4.2c-0.434-0.934-1.434-3.1-3-6.5c-1.7-3.534-3.517-6.833-5.45-9.9c2.367,4.4,3.866,10.633,4.5,18.7
		c0.733,9.967,1.517,16.483,2.35,19.55c1.034,3.767,2.634,7.534,4.801,11.3c2,3.4,3.233,6.316,3.699,8.75l-1.149,17.95
		c-0.733,6.567-1.384,11.233-1.95,14c-0.967,4.7-3.066,7.05-6.3,7.05c-0.634,0-1.967-0.483-4-1.45c-2.3-1.066-3.883-1.7-4.75-1.9
		c-2.667,4.967-4.133,7.6-4.4,7.9c-0.9,1.133-2.466,1.7-4.7,1.7c-3.633-0.2-5.7-0.283-6.2-0.25l-0.35,1.8
		c-0.5-1.7-1.333-3.133-2.5-4.3c-1.033-1.067-1.983-1.6-2.85-1.6c-1.167,0-2.35,0.15-3.55,0.45c0.233-0.6,0.383-1.2,0.45-1.8l2,0.7
		c-0.133-0.434-0.283-0.75-0.45-0.95l-2.5-1.15c0.2-0.667,0.3-1.533,0.3-2.6l-5.6,2.4c-4.067,0.567-6.817,1.617-8.25,3.15
		c-2.167,2.167-4.267,6.917-6.3,14.25c-2.233,8.066-3.383,16.25-3.45,24.55c-0.333-4.5-0.467-8.667-0.4-12.5
		c0-0.333,0.683-3.116,2.05-8.35c1.333-6.667,2-13.684,2-21.05c0-0.667-0.283-3.567-0.85-8.7c0-0.433,0.233-0.7,0.7-0.8
		c0.2-0.067,0.667-0.1,1.4-0.1c1.6,0,3,0.517,4.2,1.55c1.633,1.4,4.633,2.567,9,3.5c-1.034-1.033-1.917-1.95-2.65-2.75
		c-1.466-1.566-2.45-2.966-2.95-4.2c1.066,0.3,2.017,0.3,2.85,0c0.933-0.367,1.35-1.083,1.25-2.15l0.6,0.85
		c0.534,2.233,1.6,3.717,3.2,4.45c1.367,0.633,3.733,0.95,7.1,0.95c0.767,0,1.967-0.383,3.6-1.15c2.133-1,4.1-2.333,5.9-4
		c5.3-4.9,7.95-11.483,7.95-19.75c0-0.033-0.55-1.883-1.65-5.55c-1.133-3.867-1.7-6.283-1.7-7.25c0-2.167,1.8-4.633,5.4-7.4
		c3.6-2.733,5.4-5.017,5.4-6.85c0-0.833-0.183-1.433-0.55-1.8c-0.534-0.567-1.5-0.85-2.9-0.85c-3.633,0-8.183,1.316-13.65,3.95
		C107.717,153.117,104.1,155.667,102.3,158.2z M141.15,142.75l3.649,1.4c-0.399-0.133-1.083-0.383-2.05-0.75
		C141.816,143.033,141.283,142.817,141.15,142.75z M172.3,238.4c-4.6,1.666-9.316,2.649-14.149,2.949
		c-1.301,0.067-2.117,0.25-2.45,0.551c-0.4,0.399-0.601,1.283-0.601,2.649c-0.1,3.767-0.149,6.417-0.149,7.95
		c-0.033,2.6,0.1,4.533,0.399,5.8c0.801,3.134,3.5,4.7,8.101,4.7c1.133,0,1.7-1.083,1.7-3.25c0-5.233,0.333-8.833,1-10.8
		c1.3-3.867,4.383-7.483,9.25-10.851c1.233-0.199,2.55-0.55,3.949-1.05c0.267,2.134,0.4,4.351,0.4,6.65c0,10-0.167,16.35-0.5,19.05
		c-0.366,2.967-1.467,6.517-3.3,10.65c-1.934,4.399-4.634,7.216-8.101,8.449c-1.466,0.567-2.399,1.051-2.8,1.45
		c-0.733,0.733-1.1,2.017-1.1,3.851c0,4.133,0.416,10.1,1.25,17.899c0.833,7.767,1.25,14.684,1.25,20.75
		c0,2.667-0.601,4.617-1.8,5.851c-1.7,1.767-4.867,2.649-9.5,2.649c-1.534,0-2.567-0.517-3.101-1.55c-0.5-1-0.75-2.866-0.75-5.6
		c0-1.301-0.116-4-0.35-8.101c-0.267-5.033-0.55-7.95-0.851-8.75l0.15,0.9c-0.366,3.033-1.65,5.416-3.85,7.149
		c-2.034,1.567-4.45,2.351-7.25,2.351c-2.967,0-5.434-1.233-7.4-3.7c-1.367-1.667-2.25-3.434-2.65-5.3
		c1.033,0.967,2.566,1.85,4.6,2.649c2.566,0,5.033-2.35,7.399-7.05c3.034-6.033,4.551-14.267,4.551-24.7
		c0-0.666-0.067-1.916-0.2-3.75c-6.8,0.7-10.767,2.184-11.9,4.45c-0.3,0.601-0.467,1.55-0.5,2.851c0,1.233-0.166,2.116-0.5,2.649
		c-0.3-4.5-0.966-8.033-2-10.6c-0.867-2.101-1.367-7.101-1.5-15c-0.133-7.267-2.35-13.967-6.65-20.101
		c-2.167-2.767-3.65-4.699-4.45-5.8c-1.333-1.767-2-3.166-2-4.2c0-1.767,1.216-3.6,3.65-5.5c2.933-2.3,6.5-3.449,10.7-3.449
		c2.934,0,6.217,1.683,9.851,5.05c4.5,4.166,6.75,9.25,6.75,15.25c0,6.8-0.2,10.467-0.601,11c-0.3,0.399-1.083,0.8-2.35,1.2
		c-2.066,0.633-3.783,1.233-5.15,1.8c0.601,2.066,1.316,3.783,2.15,5.149c0.5,0.834,0.75,1.983,0.75,3.45
		c0,1.066-0.233,2.167-0.7,3.3c-0.634,1.634-1.033,2.767-1.2,3.4l0.351-0.3c0.767-0.867,1.75-1.834,2.949-2.9
		c0.867-1.066,1.4-2.8,1.601-5.2c0.166-1.666,0.649-2.767,1.45-3.3c0.767-0.467,3.233-1.75,7.399-3.85
		c0.767-0.4,1.134-1.867,1.101-4.4c0-1.467-0.134-4.033-0.4-7.7c-0.267-7.1,1.283-10.649,4.65-10.649
		c0.066,0,1.649,0.467,4.75,1.399C167.217,237.816,170.1,238.333,172.3,238.4z M110.85,228.6c3.667,8.733,6.333,16.067,8,22
		c2.733,9.567,4.1,18.834,4.1,27.801c0,2.433-3.267,5.566-9.8,9.399c-6.367,3.733-11.316,5.601-14.85,5.601
		c-4.6,0-8.566-1.9-11.9-5.7c-3.667-4.134-5.133-9.15-4.4-15.05c4.167,8.899,7.083,14.517,8.75,16.85c0.133-0.934,0.233-1.4,0.3-1.4
		l0.05-3.149c0-3.4-0.6-8.217-1.8-14.45c-0.633-3.233-1.383-7.033-2.25-11.4c0.9,0.834,2.15,1.601,3.75,2.301
		c1.4,0.6,2.383,0.899,2.95,0.899c2.3,0,4.217-0.783,5.75-2.35c2.167-2.134,3.483-5.667,3.95-10.601
		c0.533-5.333,1.983-9.033,4.35-11.1c1.067-0.967,1.8-1.9,2.2-2.8C110.6,233.983,110.883,231.7,110.85,228.6z M78.65,257l0.05,2.25
		c-0.167-1.4-0.317-2.783-0.45-4.15C78.383,255.967,78.517,256.6,78.65,257z M69.3,308.4c-0.6,0.399-1.017,0.6-1.25,0.6l1.4,0.05
		c0.133,1.533,0.15,4.316,0.05,8.351c-0.167,3.866-0.25,5.966-0.25,6.3c0,1.8,0.45,4.166,1.35,7.1s1.35,5.584,1.35,7.95
		c0,1.467-1.917,5.767-5.75,12.9c-4.2,7.8-6.534,12.517-7,14.149c-0.6,3.767-1.2,6.8-1.8,9.101c-1.066,4.3-2.767,7.233-5.1,8.8
		c-1.267,0.866-5.683,2.916-13.25,6.149c-5.5,2.334-9.1,4.983-10.8,7.95l1.55,0.2l-1.95-0.2c-1.867-1.2-3.117-2.217-3.75-3.05
		c-1.133-1.467-1.7-3.384-1.7-5.75c0-2.6,0.533-5.116,1.6-7.55c1.167-2.7,3.15-5.717,5.95-9.05c-5.034,1.3-8.8,3.583-11.3,6.85
		c-1.9,2.467-2.85,5.1-2.85,7.9c0,2.033,0.217,3.85,0.65,5.449c0.1,1.167-0.45,2.934-1.65,5.301c-0.3,0.566-2.066,1.75-5.3,3.55
		c-3.167,1.767-4.967,3.283-5.4,4.55l1.5-0.7l-5.2,2.65C0.133,401.25,0,396.866,0,394.8c0-3.6,0.633-9.717,1.9-18.35
		c1.5-10.3,2.383-16.983,2.65-20.05c0.833,3.399,2.25,6.033,4.25,7.899c1.934,1.8,4.184,2.7,6.75,2.7c2.4,0,4.85-0.884,7.35-2.65
		c3.133-2.199,5.383-3.517,6.75-3.949c-0.2,1.3-0.3,2.283-0.3,2.949c0,2.567,0.9,4.617,2.7,6.15c1.733,1.434,3.967,2.15,6.7,2.15
		c1.8,0,4.183-3.051,7.15-9.15c5.4-11,8.567-17.3,9.5-18.9c1.833-3.1,3.567-6.466,5.2-10.1c2.4-5.366,3.6-9.4,3.6-12.1
		c0-0.767-0.383-1.967-1.15-3.601c-0.933-1.967-1.917-2.95-2.95-2.95c-6.533,0-10.934,1.101-13.2,3.301
		c-1.667,1.566-2.55,4.399-2.65,8.5c-0.167,6.066-0.45,9.966-0.85,11.699c-1.1,4.934-3.683,9.267-7.75,13c1-5.1,2-8.333,3-9.699
		c0.6-0.834,0.9-2.317,0.9-4.45c0-0.667-0.033-2.617-0.1-5.851l1.35-7.199l-1.35,2.55v-15.65c-0.333,5.9-1.833,12.7-4.5,20.4
		c-1.434,4.133-2.5,7.434-3.2,9.899c-0.067,0.2-0.133,0.384-0.2,0.551v0.05c-0.533,1.934-0.833,3.3-0.9,4.1
		c-0.333,0.733-0.933,1.684-1.8,2.851c-2.8,1-6.35,2.517-10.65,4.55c-3.7,1.8-5.583,2.7-5.65,2.7c-2.066,0-3.917-0.851-5.55-2.551
		c-1.3-1.366-2.367-3.133-3.2-5.3c-0.033-1.767,0.45-4.383,1.45-7.85c0.9-3.134,1.783-5.533,2.65-7.2c0.133,2.2,0.9,3.917,2.3,5.15
		c1.233,1.066,2.716,1.6,4.45,1.6c7.267,0,13.133-2.85,17.6-8.55c4.867-6.2,7.3-14.95,7.3-26.25l-0.1-2.351
		C30.05,307.116,24.9,309.5,24,310c-0.133,0.1-2.4,1.684-6.8,4.75c1.267-2.733,2.066-5.15,2.4-7.25
		c0.167-1.134,0.383-2.616,0.65-4.45c11.4-6.233,19.167-13.05,23.3-20.45c0.934-1.699,2.017-3.683,3.25-5.949
		c1.133-1.4,2.817-2.101,5.05-2.101c1.767,0,3.733,1.101,5.9,3.3c2.167,2.167,3.717,3.25,4.65,3.25c2.3,0,4.217-2.199,5.75-6.6
		c1.633-4.566,2.45-10.434,2.45-17.6c0-4-0.15-6.9-0.45-8.7c-0.467-2.634-1.45-5.017-2.95-7.15c-3.1-4.399-10.7-10.066-22.8-17
		c-0.033-1.566,0.917-3.6,2.85-6.1c1.867-2.434,3.3-3.65,4.3-3.65c0.333,0,1.333,0.167,3,0.5c1.667,0.3,2.667,0.45,3,0.45
		c2.5,0,5.383-3.85,8.65-11.55c3.533-8.3,5.3-16.617,5.3-24.95c0-6.533-3.017-11.067-9.05-13.6c-4.067-1.7-6.15-2.583-6.25-2.65
		c-1.9-1.1-2.85-2.617-2.85-4.55c0-2.733,1.5-7.367,4.5-13.9c1.5-3.233,3-6.417,4.5-9.55c0-1.6-0.3-5.817-0.9-12.65
		c-0.6-6.8-1.05-11.133-1.35-13c0.1-0.4,0.583-1.5,1.45-3.3c1.034-2.133,1.817-3.45,2.35-3.95c-0.3,4.533-0.45,7.133-0.45,7.8
		c0,2.1,0.583,5.217,1.75,9.35c1.5,5.3,2.483,9.45,2.95,12.45c0.2,1.167,0.3,4.633,0.3,10.4c-0.034,5.7-0.05,8.717-0.05,9.05
		c0,1.567-0.267,2.917-0.8,4.05c-0.833,1.767-2.217,2.65-4.15,2.65c-0.767,0-1.45-0.417-2.05-1.25c-0.7-1.133-1.3-1.983-1.8-2.55
		l-0.2,1.75c1.8,3.7,4,6.034,6.6,7c1.1,0.4,3.233,0.583,6.4,0.55c2.3-0.033,3.883,0.617,4.75,1.95c1.233,1.867,1.817,5.6,1.75,11.2
		l-0.35-1.45L79,178.7l-0.7-5.5c-1.9,8.733-2.85,14.033-2.85,15.9s0.133,3,0.4,3.4c0.333,0.167,0.583,0.45,0.75,0.85
		c0.633,1.467,0.75,8.167,0.35,20.1l-2.7,10.3l-0.6,0.4c-2.167,0.066-3.417,0.133-3.75,0.199c-0.467,0.101-1.217,0.467-2.25,1.101
		l0.05,0.1c-4.534,0-7.083,0.017-7.65,0.05l0.85,0.601c4.434,2.033,7.2,3.45,8.3,4.25c1.433,1.066,2.333,2.55,2.7,4.45
		c0.067,0.366,0.283,3.399,0.65,9.1c0.4,5.733,1.15,11.783,2.25,18.15c0.267,17.633-0.183,29.066-1.35,34.3
		c-0.633,2.866-1.583,4.85-2.85,5.95c-1.1,1-2.667,1.5-4.7,1.5c-2.367,0-4.533-1.284-6.5-3.851s-3.283-5.899-3.95-10v8.9
		c0.3,4.8,1.05,8.416,2.25,10.85c0.867,1.8,1.816,2.7,2.85,2.7c1.333,0,3.617-1.066,6.85-3.2l0.65-0.3H67.9l1.4-0.75V308.4z
		 M101,405.3c0.033-0.133,0.1-0.316,0.2-0.55c0.1-0.233,0.183-0.35,0.25-0.35l0.25-3.4c0.433-0.667,0.95-1.95,1.55-3.85
		c0.6-1.867,0.9-3.117,0.9-3.75c0-10.101-3.933-19.467-11.8-28.101c-3.934-3.934-6.633-6.684-8.1-8.25c-2.467-2.566-3.7-4.6-3.7-6.1
		c0-3,0.233-7.8,0.7-14.4c0.467-6.6,0.833-10.25,1.1-10.95c0.033-0.066,1.283-2.416,3.75-7.05c2.167-4.1,3.3-6.583,3.4-7.45
		c2.333,2.334,5.367,3.717,9.1,4.15c1.744,0.193,3.752,0.36,6.025,0.5c-5.827-0.182-10.486,1.769-13.975,5.85
		c-3.967,4.667-5.95,11.601-5.95,20.801c0,2.033,0.55,3.866,1.65,5.5c1.467,2.133,3.617,3.199,6.45,3.199
		c14.7,0,22.05-7.25,22.05-21.75c0-0.666-0.65-5.05-1.95-13.149c4.367-1.066,8-0.367,10.9,2.1c2.867,2.467,4.3,6.084,4.3,10.851
		c0,10.533-1.45,18.399-4.35,23.6c-1.433,2.2-2.433,3.783-3,4.75c-0.9,1.634-1.35,3.4-1.35,5.3c0,2.3,3.15,9.816,9.45,22.55
		s9.45,19.134,9.45,19.2c0,6.9-2.116,13.184-6.35,18.851c-4.267,5.699-9.034,8.55-14.3,8.55c-0.533,0-1.617-0.101-3.25-0.3
		c-1.633-0.233-2.8-0.434-3.5-0.601l-0.05-0.05c-2.155-2.269-4.655-7.985-7.5-17.15C102.417,410.417,101.633,407.566,101,405.3z
		 M114.8,363.5c-2.267,2.7-4.083,4.967-5.45,6.8c-2.533,3.4-3.867,6.684-4,9.851l-1.4,24.149c0,1.7,0.3,2.917,0.9,3.65
		c0.566,0.733,1.45,1.1,2.65,1.1c1.467,0,2.433-0.316,2.9-0.95c0.467-0.566,0.7-1.733,0.7-3.5c0-7.3,1.167-15.483,3.5-24.55
		c2.333-9.1,3.5-13.733,3.5-13.899C118.1,365.483,117,364.6,114.8,363.5z M100.85,404.75c-1-3.467-1.617-5.566-1.85-6.3
		c0.267,0.733,0.65,1.934,1.15,3.6C100.483,403.283,100.717,404.184,100.85,404.75z M228.2,371.95c-0.167,0.233-1.101,1.1-2.8,2.6
		c-1.7,1.5-2.684,2.316-2.95,2.45c-2.533,0-4.066-1.25-4.601-3.75c-0.3-3.967-0.683-7.384-1.149-10.25
		c-0.367-2.4-1.851-5.233-4.45-8.5c-2.5-3.233-3.85-5.4-4.05-6.5c0.566,4.033,0.899,6.6,1,7.7c0.166,1.366,0.25,3.399,0.25,6.1
		c0,5.767-1.101,9.584-3.3,11.45c-2.4,2-7.317,2.95-14.75,2.85c-0.4-1.066-0.967-2.383-1.7-3.949
		c-0.601-1.267-1.134-2.617-1.601-4.051v6.95c-2.5-1.566-4.583-3.233-6.25-5c-0.833-0.866-3.183-3.633-7.05-8.3
		c-0.399,0.3-1.283-0.233-2.649-1.6c-1.367-1.334-2.051-2.267-2.051-2.801c0-2.333,0.684-4.183,2.051-5.55
		c2.733-2.733,4.916-5.416,6.55-8.05c-0.634,2.934-1.733,5.783-3.3,8.55c-1.367,2.367-2.051,3.867-2.051,4.5
		c0,0.4,0.034,0.733,0.101,1c0.066,0.233,0.1,0.367,0.1,0.4c2.101,0.2,4.816,0.467,8.15,0.8c3.233,0,6.35-3.217,9.35-9.65
		c2.834-6.1,4.25-11.983,4.25-17.649c0-6.167-0.483-10.584-1.45-13.25c-1.133-3.101-3.933-7.2-8.399-12.3
		c-0.4,0.399-0.867,1.166-1.4,2.3c-0.5,1.033-0.75,1.649-0.75,1.85c0.2,3,0.217,6.233,0.05,9.7c-0.3,6.866-1.333,12.6-3.1,17.2
		c0.4-1.667,0.65-2.816,0.75-3.45c0.3-2.434,0.45-6.033,0.45-10.8c0-7.601,0.133-13.066,0.399-16.4c0.267-3.366,0.4-6.717,0.4-10.05
		l3-0.25c4.934,0,8.667,1,11.2,3c1.633,1.267,5.017,5.3,10.149,12.1c2.2,2.9,4.884,5.867,8.051,8.9
		c1.733,1.667,4.183,3.934,7.35,6.8c4.934,4.8,7.4,9.566,7.4,14.3c0.066,4.034,0.05,8.317-0.051,12.851
		C229.217,363.233,228.833,369.15,228.2,371.95z M64.45,101.45c0.333,0.233,0.767,0.667,1.3,1.3c0.567,0.7,0.883,1.217,0.95,1.55
		c-0.133-0.267-0.45-0.733-0.95-1.4C65.183,102.167,64.75,101.683,64.45,101.45z M53.3,137.15l2.05-7.6l-0.2,0.9
		c0,0.1-0.283,1.167-0.85,3.2C53.733,135.65,53.4,136.817,53.3,137.15z M128.3,237.45c1.067-1.101,1.6-2.417,1.6-3.95
		s-0.533-2.833-1.6-3.9c-1.066-1.1-2.367-1.649-3.9-1.649s-2.833,0.55-3.9,1.649c-1.067,1.067-1.6,2.367-1.6,3.9
		s0.533,2.85,1.6,3.95c1.067,1.066,2.367,1.6,3.9,1.6S127.233,238.517,128.3,237.45z M159.75,208.15c-1.4,0-2.583,0.733-3.55,2.2
		c-1,1.433-1.5,3.183-1.5,5.25c0,2.066,0.5,3.833,1.5,5.3c0.967,1.433,2.149,2.149,3.55,2.149s2.6-0.717,3.6-2.149
		c0.967-1.467,1.45-3.234,1.45-5.3c0-2.067-0.483-3.817-1.45-5.25C162.35,208.883,161.15,208.15,159.75,208.15z M159.1,284.25
		c-2.233,1.1-3.85,4.616-4.85,10.55c-0.9,5.267-1.35,12.767-1.35,22.5c0,2.967,0.483,5.566,1.449,7.8
		c0.767,1.834,1.534,2.867,2.301,3.101l0.399-0.851c0.101-0.399,0.134-4.733,0.101-13c0.133-10.033,0.683-19.433,1.649-28.199
		l1.3-3.301L159.1,284.25z M63.25,342.05c0.867-0.866,1.15-2.383,0.85-4.55l-0.65-3.35l-0.6,1.85c-0.567,1.967-0.85,3.434-0.85,4.4
		c0,0.5,0.167,0.883,0.5,1.149C62.667,341.717,62.917,341.884,63.25,342.05z M132.85,335.35c-0.3-1.699-0.899-5.017-1.8-9.949
		c4.9,2.733,8.217,5.133,9.95,7.199c1.866,2.233,2.8,5.117,2.8,8.65c0,3.2-0.517,5.5-1.55,6.9c-0.967,1.333-2.583,2-4.85,2
		c-0.4,0-1.067-0.167-2-0.5c-1.267-0.467-1.9-1.017-1.9-1.65C133.5,342.233,133.283,338.017,132.85,335.35z M143.75,352.8
		c2.967,0,6.783,1.033,11.45,3.101c4.967,2.166,9.6,4.949,13.899,8.35c11.034,8.767,15.75,17.917,14.15,27.45
		c-3.5-1.066-6.417-1.9-8.75-2.5c-4.333-1.134-7.95-1.7-10.85-1.7c-0.2,0-1.95,0.333-5.25,1c-3.301,0.634-5.384,0.95-6.25,0.95
		c-4.334,0-8.9-3.2-13.7-9.601c-4.667-6.267-7-11.966-7-17.1c0-2.833,1.5-5.267,4.5-7.3C138.55,353.684,141.15,352.8,143.75,352.8z
		 M147.7,366.1v-10.8h-10.8v10.8H147.7z M191.45,395.4l1.05-3l0.1-0.4l0.351-0.65c-0.033,0.134-0.2,0.634-0.5,1.5
		C192.217,393.483,191.884,394.333,191.45,395.4z"/>
	<path style="fill-rule:evenodd;clip-rule:evenodd;fill:#827155;" d="M154.15,182.15h0.399c0.267-1,0.4-1.85,0.4-2.55
		c0-1.133-0.084-1.934-0.25-2.4c-0.167-0.6-0.917-2.667-2.25-6.2c-0.233-2.567-0.351-4.6-0.351-6.1c0-2.533,0.434-4.45,1.301-5.75
		c0.833-1.233,1.933-1.783,3.3-1.65c1.233,2.167,2.467,5.767,3.7,10.8c1.233,5,1.85,8.95,1.85,11.85c0,1.567-0.066,3.233-0.2,5
		c-0.399,4.833-0.767,9.583-1.1,14.25c-0.634,0.067-1.283,0.1-1.95,0.1c-2.033,0-3.434-1-4.2-3c-0.633-1.567-0.95-4.05-0.95-7.45
		L154.15,182.15z M171.45,175.45c0-0.667,0.066-1.317,0.2-1.95l0.149-0.5c2.7,2.067,4.233,7.017,4.601,14.85
		c-0.2,7.566-0.301,11.45-0.301,11.65l-0.6-2.1c-0.434-1.467-0.65-2.417-0.65-2.85c0-0.767-0.566-3.95-1.699-9.55
		C172.017,179.433,171.45,176.25,171.45,175.45z M115.1,16.55c1-0.5,1.917-1.517,2.75-3.05c0.967-1.733,2.717-5.7,5.25-11.9
		c0.6-0.4,1.3-0.767,2.1-1.1c0.667-0.267,1.066-0.4,1.2-0.4c1.2,0,2.117-0.033,2.75-0.1v1.45L129.1,1.8l-0.5,2.65
		c0,4.533-1.45,8.4-4.35,11.6c-2.933,3.2-6.45,4.8-10.55,4.8l0.15-0.65C114.05,19.467,114.467,18.25,115.1,16.55z M129.45,60.6
		c-3.2-4.667-5.167-7-5.9-7c-4.5,0-7.517,3.833-9.05,11.5c-0.467,2.4-0.767,5.05-0.9,7.95c-0.033,2.467-0.05,3.717-0.05,3.75
		c0,0.333-0.167,1.417-0.5,3.25c-0.333,1.8-0.5,2.867-0.5,3.2c0,1.067,1.333,1.9,4,2.5c2.833,0.633,4.45,2.05,4.85,4.25
		c0.3,1.767,0.467,4.967,0.5,9.6c-0.066,4.433-0.1,6.816-0.1,7.15c0,2.6-3.383,5.8-10.15,9.6c-6.8,3.267-10.233,4.9-10.3,4.9
		c-1.6,0-2.934-0.733-4-2.2c-1.033-1.433-1.55-3.167-1.55-5.2c0-1.167,0.117-2.25,0.35-3.25c0.434-2.067,0.75-3.733,0.95-5
		c1-0.367,2.066-1.883,3.2-4.55c1.3-3.066,2.133-4.8,2.5-5.2c0.667-0.733,1.75-1.167,3.25-1.3c0.833-0.1,2.25-0.2,4.25-0.3
		c3.833-0.533,6.667-3,8.5-7.4c-4.4-0.033-7.617,0.083-9.65,0.35c-3.467,0.433-6.583,1.95-9.35,4.55c0.2-0.6,0.733-2.583,1.6-5.95
		c0.967-3.833,1.45-6.066,1.45-6.7c0-1.4-0.25-2.417-0.75-3.05c-0.333-0.4-1.1-0.933-2.3-1.6h-0.05l0.85-1.9
		c0.333-0.5,0.717-2.283,1.15-5.35c0.067-0.434,0.35-2.733,0.85-6.9l0.75-7.95c1.433,0,2.417-1.684,2.95-5.05
		c0.567-3.333,1.65-5,3.25-5c2.5,0,6.217,0.934,11.15,2.8c2.8,1.033,6.8,2.65,12,4.85l0.1,0.05c-0.867-2.5-1.917-4.583-3.15-6.25
		c-0.967-1.333-2.233-2.65-3.8-3.95c9.1,3.434,13.65,11.233,13.65,23.4c0,3.333-0.167,5.533-0.5,6.6c-0.366,1.233-1.2,1.85-2.5,1.85
		c-0.566,0-1.283-0.816-2.15-2.45c-1.8-3.467-3.366-6.25-4.7-8.35L129.45,60.6z M90.35,197.1c-0.633-0.3-1.533-0.883-2.7-1.75
		c-2.633-2.2-4.683-4.684-6.15-7.45c-1.733-3.267-2.45-6.6-2.15-10l0.1-26.65c0.033-12.967,0.167-21.8,0.4-26.5
		c0.733,0,1.35-0.183,1.85-0.55s0.75-0.817,0.75-1.35c0.3-0.6,0.566-1.467,0.8-2.6c0-0.067,0-0.117,0-0.15l0.1-1.3
		c0.033,0.167,0.083,0.333,0.15,0.5c1.4,4.8,3.95,8.284,7.65,10.45c2.2,1.3,3.367,2,3.5,2.1c1,0.833,1.5,1.917,1.5,3.25
		c0,0.9-1,2.55-3,4.95c-2.233,2.633-3.583,4.85-4.05,6.65c-0.434,1.633-0.65,4.267-0.65,7.9c0.1,3.433,0.15,5.316,0.15,5.65
		c0,2.433,0.133,4.283,0.4,5.55c0.667,3.067,2.133,5.65,4.4,7.75l0.55-1.7c0.5-1.367,0.983-2.617,1.45-3.75c0.3,2,0.967,3,2,3
		c0.267,0,3.45-3.167,9.55-9.5c6.1-6.367,9.383-9.95,9.85-10.75c-3.4,2.2-6.583,3.95-9.55,5.25c-2.533,1-4.183,1.7-4.95,2.1
		c1.8-2.534,5.417-5.083,10.85-7.65c5.467-2.633,10.017-3.95,13.65-3.95c1.4,0,2.367,0.283,2.9,0.85
		c0.367,0.367,0.55,0.966,0.55,1.8c0,1.833-1.8,4.117-5.4,6.85c-3.6,2.767-5.4,5.233-5.4,7.4c0,0.967,0.566,3.383,1.7,7.25
		c1.1,3.667,1.65,5.517,1.65,5.55c0,8.267-2.65,14.85-7.95,19.75c-1.8,1.667-3.767,3-5.9,4c-1.633,0.767-2.833,1.15-3.6,1.15
		c-3.367,0-5.733-0.317-7.1-0.95c-1.6-0.733-2.667-2.217-3.2-4.45l-0.6-0.85c0.1,1.066-0.317,1.783-1.25,2.15
		C92.367,197.4,91.417,197.4,90.35,197.1z M137.45,128.7c-0.334-1.167-0.684-2.567-1.05-4.2c0.6,1.033,1.533,2.567,2.8,4.6
		l0.649,0.2c0.4-0.533,0.634-0.9,0.7-1.1c0.267-0.667,0.4-1.75,0.4-3.25c0-3.167-0.684-6.1-2.05-8.8
		c-0.834-1.667-2.434-4.55-4.801-8.65l-0.05,5.05c0,0.567,0.017,1.117,0.05,1.65c-1.1-5.333-1.649-8.967-1.649-10.9
		c0-0.566,0.083-1.417,0.25-2.55c0.166-1.3,0.366-2.3,0.6-3c0.8,2.067,2.084,4.55,3.851,7.45c2.933,4.8,4.433,7.267,4.5,7.4
		c3.533,6.3,5.3,12.75,5.3,19.35c0,1.5-0.3,3.667-0.9,6.5c-0.7,2.9-1.116,4.75-1.25,5.55v0.15l-3.649-1.4
		c-2.5-2.5-3.817-5.317-3.95-8.45C137.134,132.667,137.217,130.8,137.45,128.7z M172.3,238.4l5.8-2.9l-2.699,2.6
		c-4.867,3.367-7.95,6.983-9.25,10.851c-0.667,1.967-1,5.566-1,10.8c0,2.167-0.567,3.25-1.7,3.25c-4.601,0-7.3-1.566-8.101-4.7
		c-0.3-1.267-0.433-3.2-0.399-5.8c0-1.533,0.05-4.184,0.149-7.95c0-1.366,0.2-2.25,0.601-2.649c0.333-0.301,1.149-0.483,2.45-0.551
		C162.983,241.05,167.7,240.066,172.3,238.4z M101.15,208.75l2.5,1.15c0.167,0.2,0.317,0.517,0.45,0.95l-2-0.7
		c-0.067,0.6-0.217,1.2-0.45,1.8c1.2-0.3,2.383-0.45,3.55-0.45c0.867,0,1.816,0.533,2.85,1.6c1.167,1.167,2,2.6,2.5,4.3
		c0.167,1.467,0.267,5.2,0.3,11.2c0.033,3.101-0.25,5.384-0.85,6.851c-0.4,0.899-1.133,1.833-2.2,2.8
		c-2.367,2.066-3.816,5.767-4.35,11.1c-0.467,4.934-1.784,8.467-3.95,10.601c-1.533,1.566-3.45,2.35-5.75,2.35
		c-0.567,0-1.55-0.3-2.95-0.899c-1.6-0.7-2.85-1.467-3.75-2.301c0.867,4.367,1.617,8.167,2.25,11.4c1.2,6.233,1.8,11.05,1.8,14.45
		l-0.05,3.149c-0.066,0-0.167,0.467-0.3,1.4c-1.667-2.333-4.583-7.95-8.75-16.85c-1.133-2.967-1.817-4.834-2.05-5.601
		c-1.133-3.533-1.55-6.133-1.25-7.8L78.65,257c0.567,1.033,1.167,1.866,1.8,2.5l0.75,0.5c0.267-1.866,1.383-7.2,3.35-16
		c1.633-7.4,2.6-13.134,2.9-17.2c0.3-4.133,2.417-7.816,6.35-11.05c1.034-0.867,2.517-2.033,4.45-3.5
		C99.75,211.017,100.717,209.85,101.15,208.75z M95.85,208.55c-2.5,1.067-4.517,1.867-6.05,2.4c-1.133,0.367-1.867,0.617-2.2,0.75
		C89.033,210.167,91.783,209.117,95.85,208.55z M104.625,315.75l8.175-0.25l0.1,0.7c1.3,8.1,1.95,12.483,1.95,13.149
		c0,14.5-7.35,21.75-22.05,21.75c-2.833,0-4.983-1.066-6.45-3.199c-1.1-1.634-1.65-3.467-1.65-5.5c0-9.2,1.983-16.134,5.95-20.801
		C94.139,317.519,98.798,315.568,104.625,315.75z M114.8,363.5c2.2,1.1,3.3,1.983,3.3,2.65c0,0.166-1.167,4.8-3.5,13.899
		c-2.333,9.066-3.5,17.25-3.5,24.55c0,1.767-0.233,2.934-0.7,3.5c-0.467,0.634-1.433,0.95-2.9,0.95c-1.2,0-2.083-0.366-2.65-1.1
		c-0.6-0.733-0.9-1.95-0.9-3.65l1.4-24.149c0.133-3.167,1.467-6.45,4-9.851C110.717,368.467,112.533,366.2,114.8,363.5z
		 M180.25,337.2c1.767-4.601,2.8-10.334,3.1-17.2c0.167-3.467,0.15-6.7-0.05-9.7c0-0.2,0.25-0.816,0.75-1.85
		c0.533-1.134,1-1.9,1.4-2.3c4.467,5.1,7.267,9.199,8.399,12.3c0.967,2.666,1.45,7.083,1.45,13.25c0,5.666-1.416,11.55-4.25,17.649
		c-3,6.434-6.116,9.65-9.35,9.65c-3.334-0.333-6.05-0.6-8.15-0.8c0-0.033-0.033-0.167-0.1-0.4c-0.066-0.267-0.101-0.6-0.101-1
		c0-0.633,0.684-2.133,2.051-4.5c1.566-2.767,2.666-5.616,3.3-8.55L180.25,337.2z M109.65,31.6l2.65-7.4l-0.15,1.05
		c0,2.567,0.6,4.75,1.8,6.55c0.1,0.2,0.233,0.4,0.4,0.6C113.483,32.3,111.917,32.033,109.65,31.6z M153.6,78.2
		c-0.066,0.133-0.216,0.267-0.449,0.4c-0.334,0.233-0.717,0.35-1.15,0.35c-0.967,0-1.833-0.633-2.6-1.9
		c-0.767-1.267-1.15-2.7-1.15-4.3c0-0.667,0.1-1.783,0.3-3.35c0.967-3,1.617-4.867,1.95-5.6c0.967-2.066,2.167-3.283,3.6-3.65
		c0.101,9.9,0.15,15.184,0.15,15.85C154.25,77.033,154.033,77.767,153.6,78.2z M53.3,137.15c0.1-0.333,0.434-1.5,1-3.5
		c0.567-2.033,0.85-3.1,0.85-3.2c0.333-0.3,0.65-1.017,0.95-2.15c0.367-1.367,0.533-2.8,0.5-4.3c1.733-8.6,2.9-13.65,3.5-15.15
		c0.3,1.867,0.75,6.2,1.35,13c0.6,6.833,0.9,11.05,0.9,12.65c-1.5,3.133-3,6.317-4.5,9.55c-3,6.534-4.5,11.167-4.5,13.9
		c0,1.933,0.95,3.45,2.85,4.55c0.1,0.067,2.183,0.95,6.25,2.65c6.033,2.533,9.05,7.067,9.05,13.6c0,8.333-1.767,16.65-5.3,24.95
		c-3.267,7.7-6.15,11.55-8.65,11.55c-0.333,0-1.333-0.15-3-0.45c-1.667-0.333-2.667-0.5-3-0.5c-1,0-2.433,1.217-4.3,3.65
		c-1.933,2.5-2.883,4.533-2.85,6.1c12.1,6.934,19.7,12.601,22.8,17c1.5,2.134,2.483,4.517,2.95,7.15c0.3,1.8,0.45,4.7,0.45,8.7
		c0,7.166-0.817,13.033-2.45,17.6c-1.533,4.4-3.45,6.6-5.75,6.6c-0.933,0-2.483-1.083-4.65-3.25c-2.167-2.199-4.133-3.3-5.9-3.3
		c-2.233,0-3.917,0.7-5.05,2.101c-1.233,2.267-2.316,4.25-3.25,5.949c-4.133,7.4-11.9,14.217-23.3,20.45
		c0.3-1.633,1.55-9.033,3.75-22.2c1.967-12.033,4.2-24.449,6.7-37.25h0.45c0.767,0,1.233-0.433,1.4-1.3
		c0.067-0.533,0.133-1.5,0.2-2.899c0.433-2.834,2.617-4.25,6.55-4.25c3.367,0,7.15,0.6,11.35,1.8c2.1,0.6,4.083,1.2,5.95,1.8
		c0.433,0,0.7-0.3,0.8-0.9c0.033-0.199,0.05-0.767,0.05-1.699c0-0.4-2-1.667-6-3.801c-4.1-2.199-6.167-3.333-6.2-3.399
		c-0.233-0.367-0.583-0.584-1.05-0.65c-0.5-0.1-1.367-0.149-2.6-0.149c-1.7,0-3,0.267-3.9,0.8c-1.267,0.8-2.9,2.6-4.9,5.399
		c0.034-0.1,1.417-4.449,4.15-13.05c1.833-5.7,2.783-10.35,2.85-13.95c1.4-1.867,2.483-4.883,3.25-9.05
		c0.034-0.233,0.55-4.066,1.55-11.5c0.6-4.533,1.367-7.816,2.3-9.85c1.267-2.8,3.1-4.2,5.5-4.2c0.467,0,1.75,0.267,3.85,0.8
		c2.1,0.534,3.517,0.8,4.25,0.8c1.3,0,2.5-0.1,3.6-0.3c-0.667-1.433-3.184-3.133-7.55-5.1c-4.667-2.133-8.583-3.1-11.75-2.9
		c0.867-6.066,2.2-11.816,4-17.25C49.7,146.1,51.2,142.217,53.3,137.15z M7.9,333.25l6.1-12.1c1.633-2.534,2.7-4.667,3.2-6.4
		c4.4-3.066,6.667-4.65,6.8-4.75c0.9-0.5,6.05-2.884,15.45-7.15l0.1,2.351c0,11.3-2.433,20.05-7.3,26.25
		c-4.467,5.7-10.333,8.55-17.6,8.55c-1.733,0-3.217-0.533-4.45-1.6C8.8,337.167,8.033,335.45,7.9,333.25z M29.65,360.4
		c0.133-1.667,1.083-3.567,2.85-5.7c0.9-1.101,1.95-2.217,3.15-3.351c4.067-3.733,6.65-8.066,7.75-13
		c0.4-1.733,0.684-5.633,0.85-11.699c0.1-4.101,0.983-6.934,2.65-8.5c2.267-2.2,6.667-3.301,13.2-3.301
		c1.033,0,2.017,0.983,2.95,2.95c0.767,1.634,1.15,2.834,1.15,3.601c0,2.699-1.2,6.733-3.6,12.1c-1.633,3.634-3.367,7-5.2,10.1
		c-0.933,1.601-4.1,7.9-9.5,18.9c-2.967,6.1-5.35,9.15-7.15,9.15c-2.733,0-4.967-0.717-6.7-2.15c-1.8-1.533-2.7-3.583-2.7-6.15
		C29.35,362.684,29.45,361.7,29.65,360.4z M159.75,208.15c1.4,0,2.6,0.733,3.6,2.2c0.967,1.433,1.45,3.183,1.45,5.25
		c0,2.066-0.483,3.833-1.45,5.3c-1,1.433-2.199,2.149-3.6,2.149s-2.583-0.717-3.55-2.149c-1-1.467-1.5-3.234-1.5-5.3
		c0-2.067,0.5-3.817,1.5-5.25C157.167,208.883,158.35,208.15,159.75,208.15z M128.3,237.45c-1.066,1.066-2.367,1.6-3.9,1.6
		s-2.833-0.533-3.9-1.6c-1.067-1.101-1.6-2.417-1.6-3.95s0.533-2.833,1.6-3.9c1.067-1.1,2.367-1.649,3.9-1.649s2.833,0.55,3.9,1.649
		c1.067,1.067,1.6,2.367,1.6,3.9S129.367,236.35,128.3,237.45z M129.1,311.7c-0.533-0.8-1.067-2.167-1.6-4.101
		c-0.5-1.767-0.75-2.983-0.75-3.649c0-2.367,0.683-4.983,2.05-7.851c0.8-1.633,2.05-4.066,3.75-7.3c0.334-0.533,0.5-1.416,0.5-2.649
		c0.033-1.301,0.2-2.25,0.5-2.851c1.134-2.267,5.101-3.75,11.9-4.45c0.133,1.834,0.2,3.084,0.2,3.75
		c0,10.434-1.517,18.667-4.551,24.7c-2.366,4.7-4.833,7.05-7.399,7.05C131.667,313.55,130.133,312.667,129.1,311.7z M159.1,284.25
		l1-1.4l-1.3,3.301c-0.967,8.767-1.517,18.166-1.649,28.199c0.033,8.267,0,12.601-0.101,13l-0.399,0.851
		c-0.767-0.233-1.534-1.267-2.301-3.101c-0.966-2.233-1.449-4.833-1.449-7.8c0-9.733,0.449-17.233,1.35-22.5
		C155.25,288.866,156.866,285.35,159.1,284.25z M63.25,342.05c-0.333-0.166-0.583-0.333-0.75-0.5c-0.333-0.267-0.5-0.649-0.5-1.149
		c0-0.967,0.283-2.434,0.85-4.4l0.6-1.85l0.65,3.35C64.4,339.667,64.117,341.184,63.25,342.05z M147.7,366.1h-10.8v-10.8h10.8V366.1
		z"/>
	<path style="fill-rule:evenodd;clip-rule:evenodd;fill:#928164;" d="M152.45,171c1.333,3.533,2.083,5.6,2.25,6.2
		c0.166,0.466,0.25,1.267,0.25,2.4c0,0.7-0.134,1.55-0.4,2.55h-0.399l-0.75-0.1c-1.301-1.133-1.934-2.566-1.9-4.3
		c0.033-3.233-0.65-7.1-2.05-11.6l1.149,1.9L152.45,171z M78.65,257c-0.133-0.4-0.267-1.033-0.4-1.9c-0.033-0.3-0.083-0.633-0.15-1
		c-0.167-1.333-0.25-2.267-0.25-2.8c0-0.267,0-0.533,0-0.8c0.066-8.3,1.217-16.483,3.45-24.55c2.034-7.333,4.133-12.083,6.3-14.25
		c0.333-0.133,1.066-0.383,2.2-0.75c1.534-0.534,3.55-1.333,6.05-2.4l5.6-2.4c0,1.067-0.1,1.934-0.3,2.6
		c-0.433,1.1-1.4,2.267-2.9,3.5c-1.933,1.467-3.417,2.633-4.45,3.5c-3.933,3.233-6.05,6.917-6.35,11.05
		c-0.3,4.066-1.267,9.8-2.9,17.2c-1.966,8.8-3.083,14.134-3.35,16l-0.75-0.5C79.817,258.866,79.217,258.033,78.65,257z
		 M103.35,52.35c0.066-4.6,0.833-8.633,2.3-12.1c0.833-1.933,2.167-4.817,4-8.65c2.267,0.433,3.833,0.7,4.7,0.8c0.2,0,0.367,0,0.5,0
		c0.167,0.067,1.3,0.767,3.4,2.1c4.967,3.433,7.5,5.2,7.6,5.3c1.566,1.3,2.833,2.617,3.8,3.95c1.233,1.667,2.283,3.75,3.15,6.25
		l-0.1-0.05c-5.2-2.2-9.2-3.817-12-4.85c-4.934-1.867-8.65-2.8-11.15-2.8c-1.6,0-2.683,1.667-3.25,5
		C105.767,50.667,104.783,52.35,103.35,52.35z M123.1,1.6c-2.533,6.2-4.283,10.167-5.25,11.9c-0.833,1.533-1.75,2.55-2.75,3.05
		c0.867-2.367,2.083-5.117,3.65-8.25C120.65,4.567,122.1,2.333,123.1,1.6z M97.1,105.6c-0.7-0.4-1.167-0.75-1.4-1.05
		c-0.367-0.4-0.55-0.933-0.55-1.6c0-0.767,0.533-2.5,1.6-5.2c1.167-2.9,2.183-4.9,3.05-6c2.767-2.6,5.883-4.117,9.35-4.55
		c2.033-0.267,5.25-0.383,9.65-0.35c-1.833,4.4-4.667,6.867-8.5,7.4c-2,0.1-3.417,0.2-4.25,0.3c-1.5,0.133-2.583,0.567-3.25,1.3
		c-0.367,0.4-1.2,2.133-2.5,5.2C99.167,103.717,98.1,105.233,97.1,105.6z M56.6,124c0.033,1.5-0.133,2.933-0.5,4.3
		c-0.3,1.133-0.617,1.85-0.95,2.15l0.2-0.9L56.6,124z M39.8,207.35c0.1-0.6,0.733-6.133,1.9-16.6
		c1.333-11.333,2.367-19.567,3.1-24.7c3.167-0.2,7.083,0.767,11.75,2.9c4.367,1.966,6.883,3.667,7.55,5.1c-1.1,0.2-2.3,0.3-3.6,0.3
		c-0.733,0-2.15-0.267-4.25-0.8c-2.1-0.533-3.383-0.8-3.85-0.8c-2.4,0-4.233,1.4-5.5,4.2c-0.933,2.033-1.7,5.316-2.3,9.85
		c-1,7.434-1.517,11.267-1.55,11.5C42.283,202.467,41.2,205.483,39.8,207.35z M30.7,243.6h-0.15c0-0.033,0.05-0.05,0.15-0.05
		l2.1-9.2c2-2.8,3.633-4.6,4.9-5.399c0.9-0.533,2.2-0.8,3.9-0.8c1.233,0,2.1,0.05,2.6,0.149c0.466,0.066,0.816,0.283,1.05,0.65
		c0.033,0.066,2.1,1.2,6.2,3.399c4,2.134,6,3.4,6,3.801c0,0.933-0.017,1.5-0.05,1.699c-0.1,0.601-0.367,0.9-0.8,0.9
		c-1.867-0.6-3.85-1.2-5.95-1.8c-4.2-1.2-7.983-1.8-11.35-1.8c-3.933,0-6.117,1.416-6.55,4.25c-0.067,1.399-0.133,2.366-0.2,2.899
		c-0.167,0.867-0.633,1.3-1.4,1.3H30.7z M136.4,124.5c-0.5-0.833-0.801-1.35-0.9-1.55c-0.833-2.067-1.3-4.983-1.4-8.75
		c-0.033-0.534-0.05-1.083-0.05-1.65l0.05-5.05c2.367,4.1,3.967,6.983,4.801,8.65c1.366,2.7,2.05,5.633,2.05,8.8
		c0,1.5-0.134,2.583-0.4,3.25c-0.066,0.2-0.3,0.566-0.7,1.1l-0.649-0.2C137.934,127.067,137,125.533,136.4,124.5z M102.3,158.2
		c0.767-0.4,2.417-1.1,4.95-2.1c2.967-1.3,6.15-3.05,9.55-5.25c-0.466,0.8-3.75,4.383-9.85,10.75c-6.1,6.333-9.284,9.5-9.55,9.5
		c-1.033,0-1.7-1-2-3c-0.1-1.434,0.633-3.184,2.2-5.25C98.967,160.95,100.533,159.4,102.3,158.2z"/>
</g>
</svg>
