<?xml version="1.0" encoding="iso-8859-1"?>
<!-- Generator: Adobe Illustrator 15.1.0, SVG Export Plug-In . SVG Version: 6.00 Build 0)  -->
<!DOCTYPE svg PUBLIC "-//W3C//DTD SVG 1.1//EN" "http://www.w3.org/Graphics/SVG/1.1/DTD/svg11.dtd">
<svg version="1.1" id="FlashAICB" xmlns="http://www.w3.org/2000/svg" xmlns:xlink="http://www.w3.org/1999/xlink" x="0px" y="0px"
	 width="329.5px" height="105.05px" viewBox="0 0 329.5 105.05" style="enable-background:new 0 0 329.5 105.05;"
	 xml:space="preserve">
<g>
	<path style="fill-rule:evenodd;clip-rule:evenodd;fill:#613A22;" d="M176.05,9.4c3.334,0.067,20.9-0.15,52.7-0.65
		c15.9-0.267,31.467-0.533,46.7-0.8L316,8.35c0.6,1.333,1.417,3.033,2.45,5.1c2.033,4.133,4.083,8.066,6.149,11.8
		c2.567,4.633,3.917,13.8,4.051,27.5c0.1,13.9-1.2,23.283-3.9,28.15c-2.934,5.3-11.566,10.533-25.9,15.699
		c-15.267,5.5-30.35,8.267-45.25,8.301c-8.899,0-27.25-0.117-55.05-0.351c-22.5-0.233-35.7-0.267-39.6-0.1
		c-16.467,0.7-33.434,0.783-50.9,0.25c-19.933-0.634-34.066-1.967-42.4-4C54.783,98.066,44.167,95.033,33.8,91.6
		C21.333,87.467,14.066,84.25,12,81.95C6.333,75.583,2.684,68.8,1.05,61.6c-1.7-7.533-1.316-16.016,1.15-25.45
		c2.433-9.3,5.733-16.217,9.9-20.75c3.867-4.167,8.75-6.583,14.65-7.25c4.3-0.5,18.35,0.167,42.15,2
		c24.233,1.867,37.184,2.733,38.85,2.6c5.2-0.367,16.45-1,33.75-1.9C161.033,9.817,172.55,9.333,176.05,9.4z"/>
	<g>
		<g>
			<path style="fill-rule:evenodd;clip-rule:evenodd;fill:#55351E;" d="M203.1,27.3c-0.866-0.2-1.716-0.566-2.55-1.1
				c-1.2,0.133-1.5,1.5-0.899,4.1c0.899,3.867,1.35,5.833,1.35,5.9c-0.033,1.1-0.417,2.117-1.15,3.05
				c-0.933,0.967-1.583,1.717-1.949,2.25c-0.434,0.733-0.534,1.55-0.301,2.45c0.101,0.4,0.4,1.133,0.9,2.2
				c0.3,0.633,0.267,1.75-0.1,3.35c-0.367,1.5-0.817,2.6-1.351,3.3c-0.434,0.533-1.899,0.9-4.399,1.101L189,54l2-0.35
				c1.467-0.334,2.483-0.851,3.05-1.55c0.533-0.667,0.717-1.467,0.55-2.4c-0.1-0.5-0.25-1.15-0.449-1.95c0-0.667,0.133-2,0.399-4
				l0.05-4l-7.199-5.8l-2.9-7.05c-2.167-1.367-3.583-2.4-4.25-3.1c-0.434-0.433-1.9-0.85-4.4-1.25c-2.166-0.367-3.8-0.55-4.899-0.55
				c-1.7-0.033-4.267,0.25-7.7,0.85c-1.2,0.233-2.15,0.316-2.85,0.25c-1.033-0.1-2.083-0.117-3.15-0.05
				c-0.967,0.067-2.35,0.917-4.15,2.55c-1.733,1.566-3.717,2.316-5.95,2.25c-2.267-0.033-4.35-0.184-6.25-0.45
				c-1.867-0.267-3.1-0.4-3.7-0.4c-1.1-0.033-2.4,0.283-3.9,0.95c-1.767,0.867-3.167,1.5-4.2,1.9c-1.267,0.533-2.167,0.8-2.7,0.8
				c-0.633-0.1-1.283-0.167-1.95-0.2c-0.1,0.3,0.1,1.283,0.6,2.95c0.534,1.667,0.733,2.8,0.6,3.4
				c-0.167,0.733-0.617,1.284-1.35,1.65c-0.466,0.2-1.25,0.4-2.35,0.6c-0.7,0.133-1.133,0.483-1.3,1.05c0,0.066-0.033,0.6-0.1,1.6
				c0,0.433-0.167,1.167-0.5,2.2l-0.55,1.45c-2.7,1.066-4.267,1.933-4.7,2.6c-0.3,0.4,0.134,2.2,1.3,5.399l1.85,4.65l4.25,4.05
				c1.733,2.5,2.7,4.084,2.9,4.75c0.2,0.667,0.383,2.45,0.55,5.351c-0.466,1.533-0.816,2.85-1.05,3.949
				c-0.367,1.534-0.717,2.65-1.05,3.351c-0.3,0.533-0.733,0.866-1.3,1c-0.7,0.066-1.283,0.149-1.75,0.25
				c-0.566,0.133-1.017,0.166-1.35,0.1l-0.3-0.1l-3.7,0.899c-0.4,0.101-0.716,0.45-0.95,1.051c-0.3,0.699-0.883,1.233-1.75,1.6
				c-0.967,0.4-2.817,0.267-5.55-0.4l-3.75-1.149l4.65,0.45c1.833,0.166,2.833,0.116,3-0.15c0.5-0.866,0.833-1.35,1-1.45
				c0.434-0.267,0.934-1.033,1.5-2.3c0.567-1.333,1.9-2.75,4-4.25c2.2-1.6,3.067-3.4,2.6-5.4c-0.267-1.066-0.75-2.383-1.45-3.949
				c0.033-0.767-0.35-1.334-1.15-1.7c-1.5-0.7-2.533-1.267-3.1-1.7c-1.1-0.866-2.067-1.3-2.9-1.3c-0.966,0.166-1.783,0.233-2.45,0.2
				c-1-0.034-1.6-0.051-1.8-0.051c-0.2-0.033-0.7-0.149-1.5-0.35c-0.366-0.066-0.966-0.3-1.8-0.7c-0.767-0.3-1.717-0.533-2.85-0.7
				c-1.2-0.166-1.833-0.017-1.9,0.45c-0.2,0.9-0.35,1.4-0.45,1.5c-0.533,0.566-0.933,0.983-1.2,1.25c-0.5,0.434-1.233,1-2.2,1.7
				l-2.35,1.6c-1,0.7-2.033,1.217-3.1,1.551l-1.3,0.35l2.05-3.6l0.9-0.551c0.733-0.433,1.45-0.783,2.15-1.05
				c0.667-0.267,1.083-0.8,1.25-1.6c0.3-1.467,0.467-2.267,0.5-2.4c0.467-1.1,1.267-2.083,2.4-2.95l2.4-2.95l-0.05-1.5
				c-0.033-1.1-0.117-1.933-0.25-2.5c-0.233-1.1-0.35-1.867-0.35-2.3c0.067-1,0.55-2,1.45-3c0.867-0.967,1.316-2.583,1.35-4.85
				c0.033-1.133-0.034-2.183-0.2-3.15l-0.3-1.85c-0.267-1.533-0.667-3.15-1.2-4.85c-0.433-1.333-0.633-1.883-0.6-1.65
				c0.067,0.667-0.066,0.767-0.4,0.3c-0.4-0.566-0.95-0.917-1.65-1.05c-1-0.1-1.883-0.217-2.65-0.35s-1.983-0.483-3.65-1.05
				c-1.633-0.6-2.85-0.967-3.65-1.1c-0.966-0.133-1.767,0.017-2.4,0.45c-0.633,0.566-1.183,0.95-1.65,1.15
				c-0.833,0.4-2.383,0.6-4.65,0.6c-2-0.067-3.017,0.683-3.05,2.25c-0.033,0.867-0.183,1.566-0.45,2.1
				c-0.3,0.6-0.85,1.217-1.65,1.85c-0.667,0.5-0.866,1.117-0.6,1.85c0.367,1.133,0.55,1.75,0.55,1.85c0,0.533,0.75,1.35,2.25,2.45
				c0.067,0.034,1.067,0.684,3,1.95c0.434,0.3,0.1,0.683-1,1.15c-0.133,0.067-1.15,0.434-3.05,1.1
				c-0.534,0.233-0.883,0.283-1.05,0.15c-0.4-0.333-1.15-0.617-2.25-0.85c-2.066-0.466-3.3-0.733-3.7-0.8
				c-0.833-0.133-1.483-0.133-1.95,0c-0.4,0.133-1.033,0.5-1.9,1.1l-1.15,0.85l-1,1c-0.333,0.333-0.533,0.45-0.6,0.35
				c-0.167-0.233-0.534-0.367-1.1-0.4c-0.566,0-1.017,0.283-1.35,0.85c-0.5,0.767-1.066,1.35-1.7,1.75
				c-0.833,0.533-2.184,0.4-4.05-0.4l-2.55-1.35H53c1.566-0.033,2.617-0.117,3.15-0.25c0.667-0.133,1.3-0.433,1.9-0.9
				c0.6-0.434,0.983-0.9,1.15-1.4c0.167-0.5,0.417-0.867,0.75-1.1c0.333-0.3,0.983-0.684,1.95-1.15
				c0.833-0.367,1.083-0.817,0.75-1.35c-0.167-0.333-0.5-0.883-1-1.65c-0.133-0.567,0.133-1.934,0.8-4.1
				c0.333-1.067,0.667-2.083,1-3.05l0.55-2l0.05-2.5c-1.3-2.7-2.45-4.216-3.45-4.55c-2.633-1-4.617-1.7-5.95-2.1
				c-0.933-0.3-1.783-0.717-2.55-1.25c-1.267-0.867-2.017-1.367-2.25-1.5l-13.5-1.1c-1.034,0.6-2.217,1.55-3.55,2.85
				c-2.033,1.967-3.167,3.033-3.4,3.2c-0.867,0.566-2.3,0.95-4.3,1.15c-2-1.133-4.133-1.8-6.4-2s-4.483,0.067-6.65,0.8l-3.2-0.4
				c0.067-0.267-0.05-0.6-0.35-1c-0.2-0.3-0.083-0.783,0.35-1.45c0.667-1.034,1.367-2.034,2.1-3l0.4-0.6c1.5-1.733,3.15-3.4,4.95-5
				l1.4-1.15l97.05,4.8c0.434,0,1.483,0.133,3.15,0.4l2.8,0.15c17.633-1.566,28.566-2.316,32.8-2.25
				c2.7,0.067,12.066,0.167,28.1,0.3l42.301-1.5l1.6-0.45c1.233-0.2,2.583-0.483,4.05-0.85c1.3-0.233,2.967-0.333,5-0.3l27.601,0.25
				c4.8-0.5,14.783-0.8,29.949-0.9c9.367-0.434,14.717-0.5,16.051-0.2c0.533,0.1,3.899,0.1,10.1,0c2.533,7.5,4.333,12.7,5.4,15.6
				c-0.601-0.2-2.2-0.983-4.801-2.35c-2.1-1.1-3.75-1.667-4.949-1.7c-2.434-0.034-4.834,0.533-7.2,1.7
				c-1.7-0.733-4.05-0.45-7.05,0.85c-0.967,0.4-2.117,0.55-3.45,0.45c-1.601-0.167-2.9-0.267-3.9-0.3
				c-4.899-0.066-8.45-0.017-10.649,0.15c-1.233,0.133-2.051,0.333-2.45,0.6L278.95,23c-0.667,0.633-1.65,1.233-2.95,1.8
				c0.4,1.034,0.667,1.75,0.8,2.15c0.267,0.733,0.384,1.3,0.351,1.7c0,0.333-0.301,0.833-0.9,1.5c-0.667,0.767-1.05,1.367-1.15,1.8
				c-0.166,0.6-0.716,1.333-1.649,2.2c-0.834,0.767-1.634,1.333-2.4,1.7c-1,0.433-1.783,0.783-2.35,1.05c-1,0.5-1.8,1.017-2.4,1.55
				c-1.366,1.333-2.05,2.65-2.05,3.95c0.033,0.833,0.05,1.434,0.05,1.8c0,0.633-0.149,1.15-0.45,1.55
				c-2.6,3.533-4.183,5.383-4.75,5.55c-0.5,0.133-0.116,0.983,1.15,2.55c1.233,1.467,2.467,2.65,3.7,3.551
				c1.533,1.133,2.85,2.6,3.95,4.399c-1.4,0.3-2.834,0.684-4.301,1.15c-2.899,0.866-4.5,1.649-4.8,2.35
				c-0.333,1.101-0.6,1.917-0.8,2.45c-0.3,0.934-0.717,1.667-1.25,2.2c-0.3,0.3-1.017,1.25-2.15,2.85
				c-0.899,1.367-1.666,2.167-2.3,2.4c-0.733,0.267-2.217,0.25-4.45-0.05c-1.866-0.267-3.149-0.534-3.85-0.801
				c-0.4-0.133-1.75-0.416-4.05-0.85l-3.3-0.6l2.85-1.101c2.134-0.767,3.767-1.133,4.9-1.1c1,0.033,2.033-0.7,3.1-2.2
				c1.167-1.667,1.934-2.566,2.3-2.7c0.566-0.2,1.05-0.05,1.45,0.45c0.167,0.167,0.25-0.2,0.25-1.1
				c0.033-1.767,0.184-4.2,0.45-7.301c0.033-0.966-0.4-1.933-1.3-2.899l-1.301-1.15l-2.6-3.7l0.8-0.65
				c0.733-0.467,1.584-0.684,2.55-0.65c0.7,0,1.167-0.066,1.4-0.2c0.333-0.267,1.217-0.5,2.65-0.7c1.533-0.233,2.699-0.783,3.5-1.65
				c0.966-1.067,1.716-1.717,2.25-1.95c2.199-0.9,3.333-2.1,3.399-3.6c0-0.434-0.05-0.983-0.149-1.65
				c-0.101-0.667-0.15-1.216-0.15-1.65c0-0.167,0.2-0.65,0.6-1.45c0.233-0.567,0.167-1.317-0.199-2.25
				c-0.467-1.167-1.084-1.917-1.851-2.25c-0.767-0.3-2.233-0.467-4.399-0.5c-6.534-0.133-10.2-0.317-11-0.55l-7-1.45l-0.601-3.35
				l5.7-0.6l1.05-2.95c-0.899-0.466-2-0.933-3.3-1.4c-1-0.367-2.866-0.316-5.6,0.15c-2.733,0.467-4.434,1.017-5.101,1.65
				c-1.133,0.966-2.033,1.733-2.7,2.3c-1.199,1.067-2,1.933-2.399,2.6c-0.767,1.2-1.9,2.283-3.4,3.25
				c-0.366,0.233-0.633-0.167-0.8-1.2c-0.233-1.333-0.5-2.15-0.8-2.45c-1-1.034-3.101-1.417-6.3-1.15
				c-0.801,0.067-2,0.434-3.601,1.1c-1.399,0.533-2.767,0.783-4.1,0.75C205.4,27.617,204.033,27.5,203.1,27.3z"/>
			<path style="fill-rule:evenodd;clip-rule:evenodd;fill:#55351E;" d="M324.35,55.85c0.467-2.366,0.301-4.466-0.5-6.3
				c-0.399-0.9-0.85-1.583-1.35-2.05l2.95,1.4c0.633,1.567,1.166,3.017,1.6,4.35c0.267,0.833,0.5,1.816,0.7,2.95l0.2,1.399
				c0,1.334-0.134,2.784-0.4,4.351c-0.133,1-0.35,1.666-0.649,2c-0.467,0.399-0.934,0.816-1.4,1.25
				c-0.434,0.467-0.684,0.666-0.75,0.6c-0.167-0.166-0.583-0.149-1.25,0.05c-0.833,0.267-1.083,0.817-0.75,1.65
				c0.566,1.033,0.9,1.816,1,2.35l0.2,1.601l-0.101,0.1l-0.75,1c-0.699,0.834-1.6,1.767-2.699,2.8c-0.5,0.5-1.351,1.25-2.551,2.25
				L316.4,78.7h-0.15c-0.866,0-1.483,0.149-1.85,0.45c-0.2,0.199-0.45,0.649-0.75,1.35c-1.634,0.967-3.417,1.967-5.351,3
				c-1.2-0.066-2.583-0.316-4.149-0.75l-2-0.65l6.35-0.55c0.8-0.1,1.733-0.816,2.8-2.149c1.334-1.7,2.101-2.617,2.3-2.75
				c0.267-0.167,1.101-0.5,2.5-1c1.101-0.4,1.851-0.917,2.25-1.551c0.667-1.1,0.801-2.55,0.4-4.35L318.9,66
				c0.166-2.667,0.399-4.4,0.699-5.2c0.233-0.633,1.067-1.45,2.5-2.45C323.467,57.417,324.217,56.583,324.35,55.85z"/>
			<path style="fill-rule:evenodd;clip-rule:evenodd;fill:#55351E;" d="M275.5,76.1l-1.2-2.149l1.351,1.35l1.8,0.3
				c1.333,0.2,2.283,0.233,2.85,0.101c0.9-0.2,1.9-0.617,3-1.25l0.75-0.8c0.5-0.601,0.834-1.101,1-1.5
				c0.233-0.667,0.783-1.217,1.65-1.65l3.35-0.6l0.25-1.601c0.267-1.166,0.667-1.967,1.2-2.399c0.833-0.667,1.434-1.967,1.8-3.9
				c0.2-0.967,0.3-1.866,0.3-2.7c1.534,2.033,2.284,3.384,2.25,4.05c0,1.434,0.2,2.65,0.601,3.65c0.267,0.7,0.116,1.583-0.45,2.65
				L295.05,71l-1.7,1.3c-0.466,1.767-1.033,2.75-1.699,2.95c-0.4,0.1-0.934,0.134-1.601,0.1c-1.066-0.1-1.767-0.149-2.1-0.149
				c-0.7-0.033-1.3,0.116-1.8,0.45l-0.551,0.5c-0.1,0.267-0.416,0.55-0.949,0.85c-1,0.6-2.467,0.95-4.4,1.05
				C278.283,78.15,276.7,77.5,275.5,76.1z"/>
			<path style="fill-rule:evenodd;clip-rule:evenodd;fill:#55351E;" d="M253.75,81.95c-0.5,0.166-1.033,0.25-1.6,0.25
				c-0.7-0.033-1.834-0.334-3.4-0.9l-2.2-0.899h3.101c2.199,0,3.716-0.067,4.55-0.2c0.833-0.134,1.316-0.334,1.45-0.601
				c0.033-0.133,0-0.25-0.101-0.35l1.4-3l1.5-1.3c1.133-0.867,1.983-1.283,2.55-1.25c0.4,2.866,0.366,4.75-0.1,5.649
				c-0.367,0.7-0.667,1.101-0.9,1.2c-0.333,0.167-1.384,0.4-3.15,0.7C255.583,81.45,254.55,81.684,253.75,81.95z"/>
			<path style="fill-rule:evenodd;clip-rule:evenodd;fill:#55351E;" d="M204.75,69.45c0.333-0.7,0.566-1.417,0.7-2.15l3.649-0.25
				l1-0.3c0.4-0.134,0.517-0.767,0.351-1.9c-0.066-0.666-0.25-1.816-0.55-3.449c-0.101-0.867-0.25-1.517-0.45-1.95
				c-0.233-0.467-0.4-0.934-0.5-1.4c-0.134-0.7,0.133-2.184,0.8-4.45c0.333-1.133,0.667-2.2,1-3.2c0.167,2.667,0.35,4.9,0.55,6.7
				c0.134,1.233,0.25,2,0.351,2.301c0.033,0.1,0.233,0.449,0.6,1.05c0.434,0.666,1.066,2,1.9,4c-0.233,1.333-0.367,2.45-0.4,3.35
				c0,0.601-0.217,1.066-0.65,1.4c0,0.033-0.466,0.333-1.399,0.899c-0.4,0.267-0.917,0.784-1.55,1.551l-0.801,1.05
				c-0.933,1.533-1.3,2.866-1.1,4c0.134,0.7,0.333,1.133,0.6,1.3c0.167,0.1,0.301,0.116,0.4,0.05c-0.267,1.101-0.85,2.2-1.75,3.3
				c-0.566,0.7-1.233,0.95-2,0.75l-1-0.5c-1.1,0.2-2.434,0.634-4,1.301c-1.033,0.399-1.717,0.616-2.05,0.649
				c-0.634-0.033-1.4-0.066-2.3-0.1c-1.134-0.033-2.75-0.4-4.851-1.101l-2.8-1.05l6.65,0.5l1.3-0.7
				c0.967-0.466,1.666-0.767,2.1-0.899c0.4-0.134,0.9-0.601,1.5-1.4c0.834-1.066,1.351-1.7,1.55-1.899
				c0.334-0.334,0.4-1.351,0.2-3.051c-0.2-1.533-0.133-2.3,0.2-2.3C203.134,71.583,204.05,70.884,204.75,69.45z"/>
			<path style="fill-rule:evenodd;clip-rule:evenodd;fill:#55351E;" d="M161.95,43.15l0.5,1.25c0.033,0.267,0.117,0.533,0.25,0.8
				c0.267,0.6,0.667,1.017,1.2,1.25c0.9,0.367,2.317,0.3,4.25-0.2c0.866-0.167,1.3-0.733,1.3-1.7c0-0.3,0.434-1.133,1.3-2.5
				c0.4-0.667,0.816-1.316,1.25-1.95c0.333,1.333,0.316,2.833-0.05,4.5c-0.233,1.033-0.45,1.667-0.65,1.9
				c-0.267,0.133-0.483,0.317-0.649,0.55c-0.434,0.667-1.45,1.233-3.051,1.7c-0.8,0.267-1.25,0.417-1.35,0.45
				c-0.233,0.033-0.7,0.033-1.4,0c-0.633,0-1.033,0.25-1.2,0.75l-0.1,0.75c1,0.833,1.584,1.5,1.75,2c0.066,0.267,0.3,0.783,0.7,1.55
				c0.434,0.767,0.684,1.267,0.75,1.5c0.1,0.3,0.083,0.85-0.05,1.65l-0.25,1.1h2l2.5-0.95l2-2.5c0.5-0.399,0.85-0.283,1.05,0.351
				c0.2,0.633,0.25,1.149,0.15,1.55l-1,2.149c-0.834,1-1.434,1.834-1.801,2.5c-0.199,0.4-0.267,1.017-0.199,1.851
				c0.1,0.934,0.149,1.566,0.149,1.899l0.2,3.75l-1.55,1.7c-0.634,0.7-1,1.283-1.101,1.75l0.051,0.5
				c-0.834,0.3-1.584,0.367-2.25,0.2c-0.5-0.134-0.867-0.217-1.101-0.25s-0.783-0.05-1.65-0.05l-3.25-0.05
				c-0.333,0-0.733-0.101-1.2-0.301c-0.467-0.166-0.817-0.25-1.05-0.25c-0.3-0.033-0.85,0.084-1.65,0.351l-1.1,0.35
				c-1,0.3-1.75,0.45-2.25,0.45c-0.3,0-1.316-0.267-3.05-0.8l-2.45-0.8h2.65c1.833-0.067,2.967-0.2,3.4-0.4
				c0.233-0.1,1.083-0.816,2.55-2.15c1.3-1.166,2.133-1.75,2.5-1.75c0.4,0,0.817-0.267,1.25-0.8c0.567-0.666,0.917-1.05,1.05-1.149
				c0.5-0.334,0.767-1.5,0.8-3.5l0.05-1.25l0.5-1.351c0.3-1,0.4-1.717,0.3-2.149c-0.167-0.667-1.034-3.267-2.6-7.8
				c-2.533,1.3-4.05,2.117-4.55,2.45c-0.366,0.3-0.667,0.534-0.9,0.7c-0.4,0.233-1.033,0.4-1.9,0.5c-0.833,0.1-1.9-0.134-3.2-0.7
				l-1.75-0.9l3.75,0.05c0.4,0.033,0.867-0.1,1.4-0.4c0.933-0.466,1.466-0.733,1.6-0.8c0.867-0.3,2.067-1.183,3.6-2.65L161.95,43.15
				z"/>
			<path style="fill-rule:evenodd;clip-rule:evenodd;fill:#55351E;" d="M41.45,69.9L42.6,68.8c1.033-0.833,2.167-1.434,3.4-1.8
				c1.167-0.366,1.566-0.85,1.2-1.45c-0.5-0.8-0.717-1.233-0.65-1.3c0.333-0.5,0.517-1.833,0.55-4c1.466-1.6,0.917-3.483-1.65-5.65
				c-2.934-1.966-4.4-3.116-4.4-3.45c0-1.033,3.534,1.283,10.6,6.95c0.3,0.301,0.3,0.834,0,1.601c-0.367,0.967-0.55,1.5-0.55,1.6
				c0,0.3,0.317,0.816,0.95,1.55c0.333,0.4,0.833,0.983,1.5,1.75c0.233,0.367,0.333,0.884,0.3,1.551
				c-0.067,0.767-0.017,1.35,0.15,1.75c0.2,0.533,0.283,1.066,0.25,1.6l-0.05,0.65l2.25,0.3c0.566,0,1.816-0.483,3.75-1.45
				c0.366-0.167,0.967-1.134,1.8-2.9c0.7-1.466,1.05-2.066,1.05-1.8c0,0.634-0.066,1.367-0.2,2.2c-0.2,1.033-0.417,1.717-0.65,2.05
				c-0.2,0.3-0.483,0.834-0.85,1.601l-0.45,1.1c-3.533,1.6-5.55,2.4-6.05,2.4c-1.2,0-2.767-0.284-4.7-0.851
				c-1.033-0.3-1.7-0.366-2-0.2C47.717,72.866,47.3,73,46.9,73c-0.733-0.033-1.133,0.55-1.2,1.75l0.1,1.75
				c-0.833-0.033-2.25,0.017-4.25,0.15c-1.233,0.1-2.1,0.416-2.6,0.949l-0.4,0.75c-2.366,0.601-3.8,0.9-4.3,0.9
				c-1.167,0-2.417-0.1-3.75-0.3c-2.3-0.367-3.467-0.55-3.5-0.55c-1.566-0.301-2.883-0.667-3.95-1.101
				c-1.033-0.434,0.034-0.5,3.2-0.2c1.566,0.167,3.25,0.367,5.05,0.601l2.75-0.2c0.5,0,1.6-0.733,3.3-2.2l1.3-0.95
				c0.934-0.699,1.517-1.199,1.75-1.5C40.733,72.384,41.083,71.4,41.45,69.9z"/>
		</g>
		<g>
			<path style="fill-rule:evenodd;clip-rule:evenodd;fill:#482D1D;" d="M43.65,72.45c-0.867,0.8-2.167,1.517-3.9,2.149l-2.4,0.7
				l3.05-2.45l1.05-2.949c0.033-0.034,0.983-0.45,2.85-1.25c1.634-0.7,2.2-1.25,1.7-1.65c-0.467-0.4-0.4-1.184,0.2-2.35
				c0.767-1.434,1.15-2.317,1.15-2.65c0-1,0.867-2.483,2.6-4.45c0.933,2.367,1.383,4.217,1.35,5.55c0,1,0.034,1.667,0.1,2
				c0.1,0.334,0.383,1,0.85,2l-2.55,3.45c-0.667,0-1.417,0.066-2.25,0.2C45.783,71.05,44.517,71.616,43.65,72.45z"/>
			<path style="fill-rule:evenodd;clip-rule:evenodd;fill:#482D1D;" d="M102,55.05l5-0.95c0.067,0.5,0.017,1-0.15,1.5
				c-0.333,1-1.133,1.483-2.4,1.45c-1.233-0.033-2.2,0.351-2.9,1.15l-0.65,1.149L102,55.05z"/>
			<path style="fill-rule:evenodd;clip-rule:evenodd;fill:#482D1D;" d="M125.7,69.45c0,1.1-0.05,2-0.15,2.7
				c-0.133,0.933-0.45,2.25-0.95,3.949c-0.367,1.767-0.684,2.834-0.95,3.2c-0.267,0.367-1.316,0.834-3.15,1.4
				c-1.667,0.533-3,1.116-4,1.75l-1.05,0.85l-0.3-1.7l1.65-2c1.2-1.399,2.117-2.316,2.75-2.75c1.034-0.633,1.9-1.616,2.6-2.949
				l0.05-2.5l-0.45-3c0.833-0.801,1.35-1.784,1.55-2.95c0.067-0.566,0.067-1.066,0-1.5C124.934,66.316,125.733,68.15,125.7,69.45z"
				/>
			<path style="fill-rule:evenodd;clip-rule:evenodd;fill:#482D1D;" d="M162.2,71.15c-1.233-0.034-2.434-0.134-3.6-0.301l-1.4-0.3
				l1.2-0.35c0.934-0.3,1.717-0.65,2.35-1.05c1-0.667,2.184-1.983,3.55-3.95l2.601-3.95l1.25,0.55c0.8,0.5,1.199,1.167,1.199,2
				c-0.033,1.634,0.167,3.967,0.601,7c0.267,1.8-0.566,2.434-2.5,1.9C164.95,71.7,163.2,71.184,162.2,71.15z"/>
			<path style="fill-rule:evenodd;clip-rule:evenodd;fill:#482D1D;" d="M268.5,29.15l-0.2-1.3c-0.166-1.1-0.233-2.167-0.2-3.2
				l5.5-0.4c-0.033,1.333-0.233,2.667-0.6,4c-0.2,0.8-0.85,1.783-1.95,2.95l-1.6,1.45L268.5,29.15z"/>
			<path style="fill-rule:evenodd;clip-rule:evenodd;fill:#482D1D;" d="M197.55,82.1c2.934-1.3,4.934-2.35,6-3.149
				s1.733-1.95,2-3.45c0.134-0.733,0.167-1.4,0.101-2c3.399-3.634,5.966-6.934,7.699-9.9l0.801,0.851c0.333,0.333,0.216,1-0.351,2
				c-0.866,1.434-1.566,2.649-2.1,3.649c-0.7,1.301-1.117,2.017-1.25,2.15c-0.267,0.1-0.634,0.25-1.101,0.45
				c-0.6,0.3-0.866,1.083-0.8,2.35c0.066,1.066,0.3,2.066,0.7,3c0.267,0.634,0.05,1.367-0.65,2.2l-1.1,1.1
				c-1.033,1.101-2.717,1.95-5.05,2.551c-1.467,0.399-3.4,0.5-5.8,0.3l-3.2-0.45L197.55,82.1z"/>
			<path style="fill-rule:evenodd;clip-rule:evenodd;fill:#482D1D;" d="M284.95,75.7l-1.351,0.75l1.551-2.2
				c1.033-1.667,1.55-2.917,1.55-3.75c0.033-0.833,1.3-1.634,3.8-2.4c1.267-0.399,2.533-0.716,3.8-0.949l0.75,3.85
				c-0.899,0.434-1.467,0.866-1.7,1.3c-0.267,0.5-0.933,1.117-2,1.851c-1.3,0.866-2.433,1.216-3.399,1.05
				C287.05,75.033,286.05,75.2,284.95,75.7z"/>
			<path style="fill-rule:evenodd;clip-rule:evenodd;fill:#482D1D;" d="M326.25,61.25c0.4-0.566,0.816-1.4,1.25-2.5l0.45-1.15
				c0.033-1.333-0.367-3.566-1.2-6.7c1.1,1.8,1.85,3.15,2.25,4.05l0.5,0.899c-0.2,1.733-0.267,2.551-0.2,2.45
				c-0.434,2.101-1.1,4.467-2,7.101l-0.1,0.199c-0.367,0.4-0.517,0.517-0.45,0.351c0.167-0.467,0.083-0.7-0.25-0.7l-1-0.05l0.2,3.45
				c-0.367,0.666-0.983,1.633-1.851,2.899l-0.75,1c-0.333,0.4-0.6,0.684-0.8,0.851c0.267-1.4,0.3-2.367,0.101-2.9l-0.65-2l1.75-2.65
				l-2.3-2.05l3-0.95l0.75-0.449C325.517,62.033,325.95,61.65,326.25,61.25z"/>
		</g>
		<path style="fill-rule:evenodd;clip-rule:evenodd;fill:#6D4126;" d="M35.9,49.85l7.7,3.4c1,0.533,1.733,1.467,2.2,2.8l1.45,2.75
			c-3.333,0.3-5.667,0.434-7,0.4c-2.066-0.066-3.4-0.184-4-0.351c-0.4-0.1-1.566-0.149-3.5-0.149h-5
			c-1.233-0.033-2.15,0.416-2.75,1.35L24.45,61.4c-0.3,0-0.583-0.051-0.85-0.15c-0.534-0.167-0.75-0.467-0.65-0.9
			c0.1-0.333,0.4-1.066,0.9-2.199c0.433-1.134,0.667-2.051,0.7-2.75c0.034-0.801,0.434-1.617,1.2-2.45
			c0.633-0.7,1.35-1.284,2.15-1.75c0.833-0.467,2.083-0.934,3.75-1.4L35.9,49.85z"/>
		<path style="fill-rule:evenodd;clip-rule:evenodd;fill:#6D4126;" d="M20.75,67.75c1.367-0.7,2.316-1.15,2.85-1.35
			c0.433-0.167,0.917-0.233,1.45-0.2c0.967,0.066,1.9,0.066,2.8,0c1.167-0.066,1.95-0.084,2.35-0.05c0.7,0.1,1.167,0.149,1.4,0.149
			l13.5,0.75l-4.55,1.4c-1.833,0.3-3.333,0.434-4.5,0.399l-6.5-0.1c-2,0.134-3.833,0.184-5.5,0.15
			c-1.033-0.034-2.183,0.233-3.45,0.8L19,70.55l-0.2-1.75L20.75,67.75z"/>
		<path style="fill-rule:evenodd;clip-rule:evenodd;fill:#6D4126;" d="M14.4,36.95l3.5-1.2l5.55-0.4L22.4,37.1L18.15,38
			c-1.367,1.667-2.733,2.983-4.1,3.95c-0.8,0.6-1.366,1.267-1.7,2c-0.233,0.733-0.433,1.216-0.6,1.45c-0.2,0.3-0.533,1.217-1,2.75
			l-0.6,2.2C9.684,49.583,9.2,48.767,8.7,47.9c-0.967-1.767-1.45-2.967-1.45-3.6c0.033-1,0.4-2.15,1.1-3.45L9.4,39.9
			c0.9-0.733,1.817-1.316,2.75-1.75C13.15,37.683,13.9,37.283,14.4,36.95z"/>
		<path style="fill-rule:evenodd;clip-rule:evenodd;fill:#6D4126;" d="M10.5,58.15L9,58.35c-0.7,0.101-1.4,0.584-2.1,1.45
			c-0.633,0.834-0.95,1.584-0.95,2.25c-0.033,0.533-0.233,1.65-0.6,3.351L4.8,67.8L4.35,65.9c-0.3-1.334-0.45-2.217-0.45-2.65
			c0-0.634,0.184-1.4,0.55-2.3c0.4-1.066,0.917-1.867,1.55-2.4c0.733-0.6,1.7-0.85,2.9-0.75C9.5,57.866,10.033,57.983,10.5,58.15z"
			/>
		<path style="fill-rule:evenodd;clip-rule:evenodd;fill:#6D4126;" d="M42.95,29.35l-2.4-0.65l0.3-1.5l5.5,0.1l2.95,0.8l-1.5,1
			c-1.833-0.067-3.083-0.017-3.75,0.15C43.65,29.35,43.283,29.383,42.95,29.35z"/>
		<path style="fill-rule:evenodd;clip-rule:evenodd;fill:#6D4126;" d="M37.7,38.95l-0.9,2.65l-0.4-1.55
			c-0.233-1.1-0.233-1.917,0-2.45c0.233-0.6,0.633-1.117,1.2-1.55c0.567-0.433,1.1-0.65,1.6-0.65l5.25-0.15l-2.3,1.2
			c-1,0.167-2,0.483-3,0.95C38.517,37.7,38.033,38.217,37.7,38.95z"/>
		<path style="fill-rule:evenodd;clip-rule:evenodd;fill:#6D4126;" d="M31.6,27.75c0.3,0.2,0.367,0.867,0.2,2l-2-0.5l0.45-0.95
			C30.684,27.7,31.133,27.517,31.6,27.75z"/>
		<path style="fill-rule:evenodd;clip-rule:evenodd;fill:#6D4126;" d="M60.65,50.05c2.1,0.467,3.034,1.233,2.8,2.3
			c-0.634,1.167-1,1.917-1.1,2.25c-0.233,0.801-1.083,1.2-2.55,1.2c-0.3,0-0.533-0.2-0.7-0.6c-0.067-0.233-0.15-0.617-0.25-1.15
			c-0.1-0.3,0.167-1.066,0.8-2.3C59.983,51.15,60.316,50.583,60.65,50.05z"/>
		<path style="fill-rule:evenodd;clip-rule:evenodd;fill:#6D4126;" d="M95.85,40.5c0.167,0.5,0.233,1.017,0.2,1.55
			c-0.066,1.034-0.566,1.583-1.5,1.65c-0.733,0.066-1.083,0.117-1.05,0.15c0.2,0.066,0.05,0.183-0.45,0.35
			c-0.633,0.2-1.2,0.466-1.7,0.8c-0.633,0.5-1.25,0.95-1.85,1.35c-0.9,0.633-1.383,0.95-1.45,0.95c-0.066,0-0.083-0.316-0.05-0.95
			c0-0.833,0.184-1.75,0.55-2.75l1.1-0.85c0.867-0.6,1.667-0.883,2.4-0.85c0.6,0.033,1.117-0.1,1.55-0.4
			C94.2,41.067,94.95,40.733,95.85,40.5z"/>
		<path style="fill-rule:evenodd;clip-rule:evenodd;fill:#6D4126;" d="M84.45,66.55L83.4,65.5l2.75-0.95
			c0.5-0.166,0.85-0.75,1.05-1.75l1.3-2.95v-1.5L84.25,58c-1,0-1.917,0.066-2.75,0.2c-0.533,0.1-1.2,0.616-2,1.55l-1.05,1.4
			l0.6-4.25l2.25-0.7l11.75,1c-0.033,0.833-0.133,1.566-0.3,2.2c-0.333,1.166-0.85,2-1.55,2.5c-0.4,0.3-0.733,0.933-1,1.899
			l-0.3,1.3c-0.867,0.834-1.883,1.483-3.05,1.95C86.117,67.35,85.317,67.184,84.45,66.55z"/>
		<path style="fill-rule:evenodd;clip-rule:evenodd;fill:#6D4126;" d="M80.65,50.95l2.8-0.45c2-0.3,3.316-0.45,3.95-0.45l3.5,0.7
			c2.434,0.467,3.85,0.7,4.25,0.7C95.817,51.483,96.133,52,96.1,53l-2.5,0.45L80.65,50.95z"/>
		<path style="fill-rule:evenodd;clip-rule:evenodd;fill:#6D4126;" d="M101.3,69.6c0.5-0.666,1.45-2.483,2.85-5.449l1.2-0.351
			c0.967-0.233,1.816-0.35,2.55-0.35l3-0.2l6.25,1.4c0.5,0.1,0.883,0.449,1.15,1.05c0.134,0.333,0.317,0.816,0.55,1.45
			c0.333,0.5,0.233,1.833-0.3,4l-0.75-1.25c-0.5-0.834-1.316-1.434-2.45-1.801l-3,0.45c-0.6,0.066-0.95,0.4-1.05,1
			c-0.167,0.7-0.333,1.101-0.5,1.2c-0.333,0.2-0.983,0.25-1.95,0.15l-2.3-0.2c-0.533-0.033-2.383,0.35-5.55,1.149
			c-0.467,0.101-0.633-0.133-0.5-0.699C100.6,70.65,100.867,70.134,101.3,69.6z"/>
		<path style="fill-rule:evenodd;clip-rule:evenodd;fill:#6D4126;" d="M100.95,75.6l1.6-1.3c1.467-0.633,3.1-0.333,4.9,0.9
			c0.5,0.333,2.233,0.866,5.2,1.6l-2.25,1.45c-2,0.134-3.417,0.2-4.25,0.2c-0.466-0.033-1.4,0.083-2.8,0.35
			c-1.767,0.3-2.85,0.467-3.25,0.5c-0.733,0.101-1.283,0.25-1.65,0.45l-0.35,0.3l0.1-3.75L100.95,75.6z"/>
		<path style="fill-rule:evenodd;clip-rule:evenodd;fill:#6D4126;" d="M109.1,80.75c0.5,0,1.833-0.316,4-0.95
			c-1,1.334-1.85,2.233-2.55,2.7c-0.366,0.3-0.767,0.45-1.2,0.45c-0.667,0.033-1.184,0.1-1.55,0.2
			c-0.633,0.166-1.65-0.084-3.05-0.75l-1.9-1.051h1.4c1.033,0,1.817-0.05,2.35-0.149c0.433-0.066,0.9-0.184,1.4-0.351
			C108.4,80.75,108.767,80.717,109.1,80.75z"/>
		<path style="fill-rule:evenodd;clip-rule:evenodd;fill:#6D4126;" d="M76.65,69.95c-0.257-0.628-0.615-1.169-1.075-1.625
			l2.475,2.325l0.4,5c0.133,1.666,0.033,2.75-0.3,3.25c-0.333,0.466-1.517,1.033-3.55,1.699c-0.467,0.2-0.867,0.334-1.2,0.4
			c-0.6,0.134-1.367,0.134-2.3,0c-0.934-0.1-2.3-0.4-4.1-0.9L64.6,79.4l6,0.1l1.35-0.45c0.933-0.366,1.5-0.7,1.7-1
			c0.333-0.467,0.833-1.033,1.5-1.7l0.55-2.75C76.967,72.566,77.283,71.35,76.65,69.95z"/>
		<path style="fill-rule:evenodd;clip-rule:evenodd;fill:#6D4126;" d="M159.6,42.15c-0.267,0.333-0.617,0.667-1.05,1
			c-0.9,0.667-1.816,0.983-2.75,0.95l-2.5-0.05c-1.966,0-3.216,0.067-3.75,0.2c-0.4,0.1-0.95,0.667-1.65,1.7l-0.9,1.5l-0.5-2.5
			l3.35-3.2l1-0.75l3.5-0.15L159.6,42.15z"/>
		<path style="fill-rule:evenodd;clip-rule:evenodd;fill:#6D4126;" d="M165.15,38.55c0.733-0.167,1.733-0.233,3-0.2
			c0.833,0,2.083,0.183,3.75,0.55l-2.851,3.95l-3.5,0.2c-0.533-0.033-1.133-0.25-1.8-0.65l-0.9-0.65l0.05-0.45
			c0.1-0.4,0.25-0.75,0.45-1.05c0.2-0.233,0.45-0.583,0.75-1.05C164.366,38.867,164.717,38.65,165.15,38.55z"/>
		<path style="fill-rule:evenodd;clip-rule:evenodd;fill:#6D4126;" d="M158.9,52.65l2.4,4.55l-2.25,0.2
			c-1.033,0.833-1.8,1.566-2.3,2.199l-2.85,4.7l-3.25-0.05c-0.733-0.033-1.45,0.2-2.15,0.7c-0.967,0.633-1.75,1.05-2.35,1.25
			c-0.933,0.3-1.3-0.066-1.1-1.101c0.1-0.533,0.317-1.267,0.65-2.199c0-0.5,0.367-2.067,1.1-4.7l5.75-1.9l3.8-1.95L158.9,52.65z"/>
		<path style="fill-rule:evenodd;clip-rule:evenodd;fill:#6D4126;" d="M159.45,62.7c-0.1,0.5-0.284,1-0.55,1.5
			c-0.566,1.033-1.316,1.583-2.25,1.649c-0.933,0.101-1.383,0.051-1.35-0.149c0.034-0.101,0.15-0.217,0.35-0.351L157,64.1
			C158,63.267,158.817,62.8,159.45,62.7z"/>
		<path style="fill-rule:evenodd;clip-rule:evenodd;fill:#6D4126;" d="M134.8,42.7c-0.667,0-1.417,0.083-2.25,0.25
			c-1.1,0.233-1.85,0.367-2.25,0.4c-0.7,0.1-1.283,0.45-1.75,1.05c-0.433,0.7-0.783,1.167-1.05,1.4c-0.3,0.3-0.617,1.267-0.95,2.9
			l-0.4,2.35L124.5,47l0.15-1.35c0.167-1.033,0.467-1.9,0.9-2.6c0.434-0.7,1.267-1.283,2.5-1.75c1.967-0.733,2.983-1.117,3.05-1.15
			l9.7,2.65L134.8,42.7z"/>
		<path style="fill-rule:evenodd;clip-rule:evenodd;fill:#6D4126;" d="M188.85,41.2l5-0.4l-0.8,3c-0.366,1.467-0.55,2.383-0.55,2.75
			c0,1.133-0.35,2.367-1.05,3.7c-0.233,0.433-0.667,0.633-1.3,0.6c-0.834-0.067-1.5-0.117-2-0.15c-0.5,0-0.733-0.034-0.7-0.1
			c0.166-0.167,0.083-0.383-0.25-0.65c-0.4-0.333-1.101-0.483-2.101-0.45l-1.399,0.15l-1-0.05l-1.65-5.25l1.3-2.25l1.551-0.45
			C185.333,41.317,186.983,41.167,188.85,41.2z"/>
		<path style="fill-rule:evenodd;clip-rule:evenodd;fill:#6D4126;" d="M201.45,54.5c0.066-0.233,0.033-0.583-0.101-1.05l9.4-3.05
			c0.1,0.833,0.066,1.583-0.1,2.25c-0.467,1.534-1.667,2.75-3.601,3.65c-0.967,0.467-1.483,0.9-1.55,1.3
			c-0.033,0.534-0.1,0.851-0.2,0.95c-0.3,0.267-0.6,0.634-0.899,1.101c-0.5,0.767-0.801,1.216-0.9,1.35
			c-0.366,0.434-1.116,0.9-2.25,1.4c-0.566,0.199-2,0.699-4.3,1.5c-1.167,0.399-2.233,0.866-3.2,1.399
			c-0.3,0.167-0.417,0.084-0.35-0.25c0.166-0.666,0.283-2.166,0.35-4.5l1.55-1.25c1.3-1,2.634-1.967,4-2.899
			C200.667,55.5,201.384,54.866,201.45,54.5z"/>
		<path style="fill-rule:evenodd;clip-rule:evenodd;fill:#6D4126;" d="M202.65,65.75c-1.7,1.634-2.801,2.517-3.301,2.65l-3.8,1.199
			l-4.75-0.1l0.8-1.7l7.301-1.149C200.066,66.517,201.316,66.217,202.65,65.75z"/>
		<path style="fill-rule:evenodd;clip-rule:evenodd;fill:#6D4126;" d="M184.9,78.9l0.1-5l3.3-2.2l1.15-0.101
			c0.967-0.066,1.916-0.083,2.85-0.05l4,0.05l2.95,0.551c-0.667,0.333-1.417,0.583-2.25,0.75c-0.5,0.066-1.05,0.083-1.65,0.05
			c-1.133-0.101-1.75-0.15-1.85-0.15l-4.75-0.05c-0.667,0.8-1.35,1.783-2.05,2.95L184.9,78.9z"/>
		<path style="fill-rule:evenodd;clip-rule:evenodd;fill:#6D4126;" d="M169.15,79.35l1.699-0.449
			c1.233-0.334,2.167-0.483,2.801-0.45c1,0,2.899,0.783,5.699,2.35l-6.5-0.1c-1.399-0.033-2.649,0.6-3.75,1.899
			c-0.866,1.067-1.316,1.983-1.35,2.75c0,0.434-0.45,0.767-1.35,1l-1.4,0.2l-1.45-2.8l2.05-2.05
			C167.1,80.333,168.283,79.55,169.15,79.35z"/>
		<path style="fill-rule:evenodd;clip-rule:evenodd;fill:#6D4126;" d="M132.7,80.775c0.025-1.669,0.176-2.777,0.45-3.325
			c0.333-0.634,1.017-0.983,2.05-1.05c0.667,0,2.083,0.05,4.25,0.149l2-0.7l3,0.301c0.466,0,0.85,0.116,1.15,0.35
			c0.6,0.467,1.033,0.783,1.3,0.95c0.633,0.3,0.95,0.684,0.95,1.149l-0.2,0.601c-1.667-0.2-2.917-0.55-3.75-1.05
			c-0.5-0.301-1.117-0.417-1.85-0.351c-1.3,0.167-2.1,0.25-2.4,0.25c-0.8-0.033-1.65,0.101-2.55,0.4
			c-1.133,0.434-2.117,0.767-2.95,1C133.437,79.65,132.954,80.092,132.7,80.775c0,0.15,0,0.309,0,0.475l0.1,2.7l-0.3-2
			C132.511,81.497,132.578,81.105,132.7,80.775z"/>
		<path style="fill-rule:evenodd;clip-rule:evenodd;fill:#6D4126;" d="M166.7,23.3c1.7,0.034,2.517,0.483,2.45,1.35
			c-0.434,1.067-0.7,1.8-0.801,2.2c-0.1,0.533-0.55,0.683-1.35,0.45l-1.15-0.5l-2.45-2.3l0.9-0.6
			C165.033,23.467,165.833,23.267,166.7,23.3z"/>
		<path style="fill-rule:evenodd;clip-rule:evenodd;fill:#6D4126;" d="M229.75,38.1c-1.333,0.667-2.116,1.033-2.35,1.1
			c-0.867,0.267-1.351,0.533-1.45,0.8c-0.267,0.6-0.467,0.983-0.601,1.15L225.2,37.4l2.5-1.45l5.25,0.1c1.666,0.034,3,0.434,4,1.2
			c0.467,0.4,0.783,0.783,0.95,1.15c-1.467-0.533-3.2-0.816-5.2-0.85C231.533,37.517,230.55,37.7,229.75,38.1z"/>
		<path style="fill-rule:evenodd;clip-rule:evenodd;fill:#6D4126;" d="M227.05,56.7l0.851-1.15c0.733-0.767,1.466-1.2,2.199-1.3
			c0.667-0.066,1.65-0.033,2.95,0.1c1.733,0.167,2.917,0.25,3.55,0.25c1.334,0.034,1.45,0.25,0.351,0.65
			c-1.134,0.4-2.584,0.583-4.351,0.55l-1.524-0.024c-1.521,0.987-2.611,1.879-3.275,2.675c-0.434,0.533-0.75,1.566-0.95,3.1
			L226.7,63.7c-0.434-0.867-0.617-1.617-0.55-2.25c0-0.134,0.116-0.55,0.35-1.25C226.667,59.7,226.85,58.533,227.05,56.7z"/>
		<path style="fill-rule:evenodd;clip-rule:evenodd;fill:#6D4126;" d="M255.95,37.75l5.95,2.85l-1.5-0.05
			c-1.334,0-2.767,0.067-4.301,0.2c-1.666,0.3-2.75,0.433-3.25,0.4c-0.3,0-0.517-0.283-0.649-0.85c-0.033-0.3-0.05-0.6-0.05-0.9
			l0.85-0.75C253.8,38.15,254.783,37.85,255.95,37.75z"/>
		<path style="fill-rule:evenodd;clip-rule:evenodd;fill:#6D4126;" d="M246.1,49.5h-3.149l0.85-4c0.233-0.9,0.667-1.45,1.3-1.65
			c0.134-0.067,1.367-0.233,3.7-0.5l6.45,2.6c-2.667,1.3-4.384,2.25-5.15,2.85C249.634,49.167,248.3,49.4,246.1,49.5z"/>
		<path style="fill-rule:evenodd;clip-rule:evenodd;fill:#6D4126;" d="M240.95,56.15c0.967-0.601,2.017-1.067,3.149-1.4
			c1.7-0.467,3.417-0.467,5.15,0c0.866,0.267,1.566,0.566,2.1,0.9c-0.033,0.833-0.3,1.416-0.8,1.75
			c-0.233,0.133-0.684,0.333-1.35,0.6c-0.667,0.233-1.134,0.434-1.4,0.6l-2.8,1.45l-1.3,1.7l0.5,0.75c0.434,0.5,0.85,0.767,1.25,0.8
			c0.666,0,1.483,0.684,2.45,2.05c-2.034,1.467-3.634,2.267-4.801,2.4l-4.5,0.4c-0.764,0.092-1.181,0.366-1.25,0.824L236.2,63.35
			c-0.101-0.633,0.467-1.883,1.7-3.75c0.633-0.933,1.267-1.816,1.899-2.649L240.95,56.15z"/>
		<path style="fill-rule:evenodd;clip-rule:evenodd;fill:#6D4126;" d="M212.5,33.4c2.467,1.4,3.45,2.167,2.95,2.3l-2.5,0.7
			l-3.55,1.7l-1.25-0.25l0.05-3c0.033-0.434,0.35-0.717,0.95-0.85C209.583,33.9,210.7,33.7,212.5,33.4z"/>
		<path style="fill-rule:evenodd;clip-rule:evenodd;fill:#6D4126;" d="M216.55,41.4c0.233,0.233,0.334,0.5,0.3,0.8
			c-0.033,0.3-0.199,0.483-0.5,0.55c-0.533,0.1-0.783,0.383-0.75,0.85c0.134,0.6,0.2,1.066,0.2,1.4c-0.033,0.433-0.383,0.767-1.05,1
			l-1,0.2l-1.45-1.8l1.8-1.95C215.1,41.15,215.917,40.8,216.55,41.4z"/>
		<path style="fill-rule:evenodd;clip-rule:evenodd;fill:#6D4126;" d="M283.95,68.45l-4.601,0.75c-1.366,0.166-2.233,0.7-2.6,1.6
			l-0.2,1.3l-1.2-2.5L276.2,66.9c0.633-1.867,1.05-2.95,1.25-3.25c0.333-0.5,1.35-1.4,3.05-2.7l1.4-0.75
			c1.033-0.533,1.75-0.851,2.149-0.95c0.634-0.134,2.8-0.167,6.5-0.1l1.2,1l-2.05,3.199c-0.233,0.367-0.55,0.65-0.95,0.851
			c-0.366,0.2-1.066,0.483-2.1,0.85c-0.667,0.233-0.95,0.4-0.851,0.5c0.334,0.267,0.367,0.684,0.101,1.25
			C285.566,67.533,284.917,68.083,283.95,68.45z"/>
		<path style="fill-rule:evenodd;clip-rule:evenodd;fill:#6D4126;" d="M255.95,75.75c-0.167,0.066-0.45,0.333-0.851,0.8
			c-0.267,0.3-0.733,0.434-1.399,0.4c-0.634-0.033-1.233,0.149-1.8,0.55c-0.801,0.566-1.467,0.934-2,1.1
			c-0.834,0.301-1.584,0.434-2.25,0.4l-0.75-0.2l5.35-4.399c0.667-0.467,1.833-1.017,3.5-1.65L257,72.4
			c1.134-0.233,2.483-0.334,4.05-0.301C258.316,74.2,256.616,75.417,255.95,75.75z"/>
		<path style="fill-rule:evenodd;clip-rule:evenodd;fill:#6D4126;" d="M266.85,81.95l0.801-1.351c0.733-0.933,1.566-1.55,2.5-1.85
			c0.466,2.167,0.616,3.667,0.449,4.5c-0.133,0.5-0.433,0.8-0.899,0.9l-1.4,0.3c-0.399,0.2-0.767-0.15-1.1-1.05
			C267.033,82.934,266.917,82.45,266.85,81.95z"/>
		<path style="fill-rule:evenodd;clip-rule:evenodd;fill:#6D4126;" d="M306.85,28.95l-5-0.35c-1.333-0.033-2.416,0.117-3.25,0.45
			c-2,0.733-4.199,2.35-6.6,4.85c-1.233,1.3-2,2.267-2.3,2.9c-0.2,0.467-0.45,0.817-0.75,1.05c-0.601,0.467-0.884-0.567-0.851-3.1
			c0.067-2.533,0.317-4.083,0.75-4.65c0.601-0.767,1.417-1.467,2.45-2.1c1.533-0.933,3.233-1.433,5.101-1.5L306.85,28.95z"/>
		<path style="fill-rule:evenodd;clip-rule:evenodd;fill:#6D4126;" d="M281.85,41.2l4.25,0.35c1.334,0.034,2.334,0.217,3,0.55
			l0.5-0.75c0.233-0.333,0.767-0.5,1.601-0.5c0.467,0,1.283,0.033,2.45,0.1c1.166,0,2.316,0.183,3.449,0.55
			c-1.166,0.467-2.083,0.783-2.75,0.95c-0.366,0.1-0.716,0.25-1.05,0.45c-0.566,0.3-1.066,0.55-1.5,0.75
			c-0.6,0.3-0.883,0.7-0.85,1.2c0.066,1.066,0.083,1.667,0.05,1.8c-0.1,0.633-0.333,0.817-0.7,0.55l-0.55-0.6
			c-1.3-0.667-2.2-1.267-2.7-1.8c-0.3-0.3-1-0.45-2.1-0.45c-1.434,0.1-2.566,0.133-3.4,0.1c-1.2-0.034-1.95-0.034-2.25,0
			c-0.233,0.033-0.733,0.183-1.5,0.45c-0.633,0.2-1.283,0.583-1.95,1.15l-0.85,0.8l1.35-4.75l0.95-0.45
			C278.366,41.317,279.884,41.167,281.85,41.2z"/>
		<path style="fill-rule:evenodd;clip-rule:evenodd;fill:#6D4126;" d="M273.4,52.8c4,0.9,5.416,1.351,4.25,1.351
			c-0.834-0.034-1.733,0.233-2.7,0.8c-0.934,0.5-1.467,0.95-1.601,1.35c-0.133,0.3-0.55,0.384-1.25,0.25l-1-0.3l-1.5-1.75l0.801-0.7
			C271.167,53.333,272.167,53,273.4,52.8z"/>
		<path style="fill-rule:evenodd;clip-rule:evenodd;fill:#6D4126;" d="M308.5,46.7l2.15-0.65c2.033-0.466,4.5-0.767,7.399-0.9
			c2.967,1.4,4.45,2.184,4.45,2.35s-0.55,0.6-1.65,1.3c-1.199,0.767-2.25,1.3-3.149,1.6c-0.834,0.3-1.217,1.017-1.15,2.15
			l0.351,1.601c-0.7,0.8-1.384,1.199-2.051,1.199c-2-0.1-4-0.05-6,0.15c-1.033,0.1-1.933,0.733-2.699,1.9l-0.851,1.75l0.351-6.75
			L308.5,46.7z"/>
		<path style="fill-rule:evenodd;clip-rule:evenodd;fill:#6D4126;" d="M300.65,65.55l3.1-4.399L314,61.55l2.75,0.351L315.2,64.6
			c-0.867,1.134-1.634,1.784-2.3,1.95c-0.4,0.101-0.867,0.75-1.4,1.95l-0.65,1.75c-1.333-0.833-2.333-1.35-3-1.55
			c-0.366-0.101-1.199,0.233-2.5,1c-1.333,0.767-2.1,1.149-2.3,1.149c-1.066,0-1.883-0.433-2.45-1.3
			c-0.3-0.399-0.383-1.184-0.25-2.35C300.417,66.6,300.517,66.05,300.65,65.55z"/>
		<path style="fill-rule:evenodd;clip-rule:evenodd;fill:#6D4126;" d="M300,78.85c0.733-0.699,1.467-1.199,2.2-1.5
			c0.6-0.233,1.267-0.517,2-0.85c0.767-0.3,2.116-0.65,4.05-1.05c0.3,0.3,0.533,0.666,0.7,1.1c0.399,0.834,0.383,1.566-0.05,2.2
			c-0.334,0.5-0.5,0.717-0.5,0.65c0-0.2-0.167-0.184-0.5,0.05c-0.4,0.3-0.75,0.5-1.051,0.6c-0.366,0.101-0.767,0.217-1.199,0.351
			c-0.534,0.199-1.384,0.3-2.551,0.3c-1.366-0.066-2.35-0.117-2.949-0.15c-1.334,0-2.25-0.1-2.75-0.3c-0.301-0.1-0.101-0.2,0.6-0.3
			c0.366-0.066,0.75-0.117,1.15-0.15L300,78.85z"/>
		<path style="fill-rule:evenodd;clip-rule:evenodd;fill:#6D4126;" d="M308.8,32.45l1.75-1.7l2.101,0.9
			c1.533,0.7,2.649,1.267,3.35,1.7c0.267,0.167,0.75,0.517,1.45,1.05c0.2,0.167,0.55,0.25,1.05,0.25
			c0.833,0.033,1.066,0.95,0.7,2.75c-1-0.5-1.834-0.767-2.5-0.8l-2.25,0.25c-1,0.133-2,0.6-3,1.4c-0.667,0.533-1.033,0.533-1.101,0
			c-0.033-0.3,0-0.8,0.101-1.5c0-0.233,0.3-0.517,0.899-0.85c0.634-0.367,1.017-0.733,1.15-1.1
			C312.667,34.3,311.434,33.517,308.8,32.45z"/>
		<path style="fill-rule:evenodd;clip-rule:evenodd;fill:#55351E;" d="M21.85,25.85c0.8,0.133,1.6,0.583,2.4,1.35
			c0.867,0.8,1.3,1.617,1.3,2.45c-0.033,0.867-0.233,1.434-0.6,1.7c-0.367,0.233-1.184,0.4-2.45,0.5c-1.2,0.1-2.25-0.25-3.15-1.05
			c-0.867-0.767-1.3-1.617-1.3-2.55C18.117,26.217,19.383,25.417,21.85,25.85z"/>
		<path style="fill-rule:evenodd;clip-rule:evenodd;fill:#55351E;" d="M54.75,32.95c-0.267-0.9,0.017-1.55,0.85-1.95
			c0.8-0.4,1.683-0.317,2.65,0.25c1.467,0.867,2.017,1.767,1.65,2.7l-0.95,1.1c-0.634-0.066-1.283-0.2-1.95-0.4
			C55.7,34.25,54.95,33.683,54.75,32.95z"/>
		<path style="fill-rule:evenodd;clip-rule:evenodd;fill:#55351E;" d="M52.85,39.15c0.933,0.6,1.117,1.333,0.55,2.2
			c-0.566,0.833-1.267,1.183-2.1,1.05c-0.767-0.167-0.883-0.867-0.35-2.1C51.517,39.067,52.15,38.683,52.85,39.15z"/>
		<path style="fill-rule:evenodd;clip-rule:evenodd;fill:#55351E;" d="M89.3,34c0.1,1.067-0.283,2.017-1.15,2.85
			c-0.8,0.767-1.917,0.617-3.35-0.45c-1.4-1.066-2.083-2.033-2.05-2.9c0-1,0.317-1.7,0.95-2.1c0.867-0.533,2.216-0.383,4.05,0.45
			C88.65,32.25,89.167,32.967,89.3,34z"/>
		<path style="fill-rule:evenodd;clip-rule:evenodd;fill:#55351E;" d="M73.8,56.8c0.833,0.033,1.417,0.617,1.75,1.75
			c0.333,1.101,0.217,1.783-0.35,2.05c-0.567,0.267-1.35,0.267-2.35,0c-1.1-0.3-1.633-0.75-1.6-1.35
			C71.25,57.616,72.1,56.8,73.8,56.8z"/>
		<path style="fill-rule:evenodd;clip-rule:evenodd;fill:#55351E;" d="M130.1,54.6c0.833,1,1.117,2.067,0.85,3.2
			c-0.233,1.101-0.8,1.7-1.7,1.8c-0.8,0.101-1.6-0.316-2.4-1.25c-0.733-0.833-1.167-1.683-1.3-2.55
			c-0.133-0.967,0.284-1.733,1.25-2.3C127.833,52.867,128.934,53.233,130.1,54.6z"/>
		<path style="fill-rule:evenodd;clip-rule:evenodd;fill:#55351E;" d="M144.7,33.1c0.566-0.533,1.417-0.75,2.55-0.65
			c2.667,0.267,3.817,1.05,3.45,2.35c-0.333,1.133-1.267,1.934-2.8,2.4c-1.033,0.333-1.966,0.2-2.8-0.4
			c-0.767-0.566-1.15-1.2-1.15-1.9C143.983,34.133,144.233,33.533,144.7,33.1z"/>
		<path style="fill-rule:evenodd;clip-rule:evenodd;fill:#55351E;" d="M181.95,35.6c1.1,0.133,1.7,0.717,1.8,1.75
			c0.1,0.867-0.1,1.533-0.6,2c-0.367,0.367-1.017,0.283-1.95-0.25c-0.9-0.5-1.417-1.017-1.55-1.55
			c-0.101-0.566,0.033-1.033,0.399-1.4C180.483,35.683,181.116,35.5,181.95,35.6z"/>
		<path style="fill-rule:evenodd;clip-rule:evenodd;fill:#55351E;" d="M205.85,47.15c-0.733-0.7-1.083-1.5-1.05-2.4
			c0-0.733,0.267-1.2,0.8-1.4c0.467-0.2,1.534-0.283,3.2-0.25c0.2,0.467,0.334,0.983,0.4,1.55c0.1,1.167-0.217,2.067-0.95,2.7
			C207.417,48.017,206.616,47.95,205.85,47.15z"/>
		<path style="fill-rule:evenodd;clip-rule:evenodd;fill:#55351E;" d="M204.95,38.05c0.533-0.167,1.1-0.25,1.7-0.25
			c0.333,0,0.583,0.434,0.75,1.3c0.133,0.8,0.116,1.283-0.051,1.45c-1.033,1-1.966,1.217-2.8,0.65c-0.8-0.5-1.1-1.15-0.899-1.95
			C203.75,38.717,204.184,38.317,204.95,38.05z"/>
		<path style="fill-rule:evenodd;clip-rule:evenodd;fill:#55351E;" d="M244.65,39c-1.034,0.4-1.917,0.133-2.65-0.8l-0.8-1.5l1.1-2.3
			c1.033-1.267,2.267-1.217,3.7,0.15s1.917,2.367,1.45,3C247.217,37.883,246.283,38.367,244.65,39z"/>
		<path style="fill-rule:evenodd;clip-rule:evenodd;fill:#55351E;" d="M234,46.8c1.1,0.233,1.816,0.85,2.15,1.85
			c0.233,0.733,0.25,1.467,0.05,2.2c-0.134,0.433-0.4,0.633-0.8,0.6c-0.667-0.067-1.25-0.117-1.75-0.15c-1.567,0-2.467-0.6-2.7-1.8
			c-0.101-0.733,0.116-1.4,0.649-2C232.2,46.833,233,46.6,234,46.8z"/>
		<path style="fill-rule:evenodd;clip-rule:evenodd;fill:#55351E;" d="M226.8,71.7c1.634,0.566,2.15,1.566,1.55,3
			c-0.6,1.333-1.399,2.066-2.399,2.2c-0.634,0.1-1.4-0.334-2.3-1.301l-1.15-1.5l1-1.6C224.4,71.5,225.5,71.233,226.8,71.7z"/>
		<path style="fill-rule:evenodd;clip-rule:evenodd;fill:#55351E;" d="M307.15,38.45c0.6-0.267,1.116,0.35,1.55,1.85
			c0.399,1.5,0.2,2.467-0.601,2.9c-0.733,0.433-1.699,0.133-2.899-0.9l-1.55-1.65l0.8-0.65
			C305.184,39.467,306.083,38.95,307.15,38.45z"/>
		<path style="fill-rule:evenodd;clip-rule:evenodd;fill:#55351E;" d="M281.5,34.7c0.967,0.4,1.5,1.2,1.6,2.4
			c0.067,1.2-0.333,1.983-1.199,2.35c-0.801,0.333-1.567,0.183-2.301-0.45c-0.666-0.567-1.05-1.267-1.149-2.1
			c-0.101-0.767,0.166-1.4,0.8-1.9C279.917,34.5,280.667,34.4,281.5,34.7z"/>
		<path style="fill-rule:evenodd;clip-rule:evenodd;fill:#55351E;" d="M300.35,54.55c1.467-0.066,2.233,0.584,2.301,1.95
			c0.066,1.267-0.301,2.217-1.101,2.85c-0.533,0.4-1.267,0.051-2.2-1.05l-1.25-1.8l0.45-0.95
			C299.017,54.917,299.616,54.583,300.35,54.55z"/>
		<path style="fill-rule:evenodd;clip-rule:evenodd;fill:#5B554D;" d="M20.65,24.8c0.833,0.167,1.633,0.633,2.4,1.4
			c0.867,0.8,1.284,1.617,1.25,2.45c0,0.833-0.2,1.383-0.6,1.65c-0.333,0.233-1.15,0.417-2.45,0.55c-1.2,0.1-2.25-0.25-3.15-1.05
			c-0.867-0.767-1.284-1.617-1.25-2.55C16.85,25.15,18.117,24.333,20.65,24.8z"/>
		<path style="fill-rule:evenodd;clip-rule:evenodd;fill:#5B554D;" d="M57.05,30.25c1.434,0.867,1.967,1.75,1.6,2.65L57.7,34
			c-0.634-0.033-1.283-0.15-1.95-0.35c-1.3-0.4-2.05-0.967-2.25-1.7c-0.233-0.9,0.05-1.55,0.85-1.95
			C55.15,29.567,56.05,29.65,57.05,30.25z"/>
		<path style="fill-rule:evenodd;clip-rule:evenodd;fill:#5B554D;" d="M51.65,38.15c0.9,0.6,1.067,1.333,0.5,2.2
			c-0.566,0.833-1.267,1.167-2.1,1c-0.767-0.133-0.866-0.817-0.3-2.05C50.283,38.067,50.917,37.683,51.65,38.15z"/>
		<path style="fill-rule:evenodd;clip-rule:evenodd;fill:#5B554D;" d="M86.55,30.8c0.867,0.4,1.367,1.117,1.5,2.15
			c0.134,1.066-0.233,2.017-1.1,2.85c-0.833,0.8-1.967,0.65-3.4-0.45c-1.4-1.067-2.083-2.033-2.05-2.9c0.033-1,0.367-1.7,1-2.1
			C83.367,29.817,84.717,29.967,86.55,30.8z"/>
		<path style="fill-rule:evenodd;clip-rule:evenodd;fill:#5B554D;" d="M72.55,55.8c0.833,0.033,1.417,0.617,1.75,1.75
			c0.333,1.101,0.233,1.767-0.3,2c-0.566,0.267-1.35,0.267-2.35,0c-1.1-0.267-1.65-0.7-1.65-1.3
			C70.067,56.583,70.917,55.767,72.55,55.8z"/>
		<path style="fill-rule:evenodd;clip-rule:evenodd;fill:#5B554D;" d="M128.85,53.6c0.833,1,1.117,2.067,0.85,3.2
			c-0.233,1.066-0.8,1.667-1.7,1.8c-0.8,0.101-1.6-0.333-2.4-1.3c-0.733-0.833-1.15-1.684-1.25-2.55
			c-0.167-0.967,0.233-1.733,1.2-2.3C126.617,51.85,127.717,52.233,128.85,53.6z"/>
		<path style="fill-rule:evenodd;clip-rule:evenodd;fill:#5B554D;" d="M143.45,32.05c0.6-0.533,1.466-0.75,2.6-0.65
			c2.634,0.3,3.767,1.083,3.4,2.35c-0.333,1.133-1.25,1.95-2.75,2.45c-1.067,0.333-2.017,0.183-2.85-0.45
			c-0.767-0.567-1.133-1.2-1.1-1.9C142.75,33.117,142.983,32.517,143.45,32.05z"/>
		<path style="fill-rule:evenodd;clip-rule:evenodd;fill:#5B554D;" d="M180.7,34.55c1.1,0.133,1.7,0.717,1.8,1.75
			c0.1,0.867-0.1,1.55-0.6,2.05c-0.367,0.367-1.017,0.283-1.95-0.25c-0.9-0.5-1.4-1.017-1.5-1.55c-0.134-0.566,0-1.05,0.399-1.45
			C179.283,34.633,179.9,34.45,180.7,34.55z"/>
		<path style="fill-rule:evenodd;clip-rule:evenodd;fill:#5B554D;" d="M204.6,46.15c-0.699-0.7-1.05-1.5-1.05-2.4
			c0.033-0.733,0.316-1.217,0.851-1.45c0.5-0.2,1.566-0.283,3.199-0.25c0.2,0.467,0.334,1,0.4,1.6c0.1,1.167-0.233,2.05-1,2.65
			C206.2,47,205.4,46.95,204.6,46.15z"/>
		<path style="fill-rule:evenodd;clip-rule:evenodd;fill:#5B554D;" d="M205.45,36.8c0.333,0,0.583,0.434,0.75,1.3
			c0.133,0.8,0.116,1.283-0.05,1.45c-1.034,1-1.983,1.217-2.851,0.65c-0.767-0.534-1.066-1.184-0.899-1.95
			c0.133-0.533,0.583-0.933,1.35-1.2C204.35,36.85,204.917,36.767,205.45,36.8z"/>
		<path style="fill-rule:evenodd;clip-rule:evenodd;fill:#5B554D;" d="M244.75,33.5c1.434,1.4,1.934,2.417,1.5,3.05
			c-0.233,0.367-1.184,0.85-2.85,1.45c-1.034,0.4-1.917,0.133-2.65-0.8l-0.8-1.5l1.149-2.3C242.134,32.1,243.35,32.133,244.75,33.5z
			"/>
		<path style="fill-rule:evenodd;clip-rule:evenodd;fill:#5B554D;" d="M232.75,45.8c1.1,0.233,1.816,0.85,2.15,1.85
			c0.233,0.733,0.25,1.467,0.05,2.2c-0.101,0.4-0.367,0.6-0.8,0.6c-0.634-0.1-1.2-0.15-1.7-0.15c-1.601-0.066-2.517-0.667-2.75-1.8
			c-0.101-0.733,0.116-1.4,0.649-2C230.95,45.8,231.75,45.567,232.75,45.8z"/>
		<path style="fill-rule:evenodd;clip-rule:evenodd;fill:#5B554D;" d="M225.55,70.65c1.667,0.6,2.184,1.616,1.55,3.05
			c-0.6,1.333-1.399,2.066-2.399,2.2c-0.634,0.1-1.4-0.334-2.3-1.301l-1.15-1.5l1-1.6C223.184,70.5,224.283,70.217,225.55,70.65z"/>
		<path style="fill-rule:evenodd;clip-rule:evenodd;fill:#5B554D;" d="M305.95,37.4c0.566-0.267,1.066,0.35,1.5,1.85
			c0.399,1.5,0.2,2.483-0.601,2.95c-0.733,0.4-1.699,0.083-2.899-0.95l-1.55-1.65l0.8-0.65
			C303.967,38.45,304.884,37.933,305.95,37.4z"/>
		<path style="fill-rule:evenodd;clip-rule:evenodd;fill:#5B554D;" d="M280.25,33.7c1,0.367,1.55,1.167,1.65,2.4
			c0.066,1.2-0.351,1.983-1.25,2.35c-0.801,0.333-1.567,0.183-2.301-0.45c-0.633-0.567-1.017-1.267-1.149-2.1
			c-0.101-0.8,0.166-1.45,0.8-1.95C278.667,33.45,279.417,33.367,280.25,33.7z"/>
		<path style="fill-rule:evenodd;clip-rule:evenodd;fill:#5B554D;" d="M299.15,53.55c1.466-0.1,2.216,0.55,2.25,1.95
			c0.066,1.267-0.301,2.2-1.101,2.8c-0.533,0.434-1.267,0.101-2.2-1l-1.25-1.8l0.5-0.95C297.816,53.917,298.417,53.583,299.15,53.55
			z"/>
		<path style="fill-rule:evenodd;clip-rule:evenodd;fill:#514C45;" d="M21.1,25.8c0.7,0.133,1.4,0.517,2.1,1.15
			c0.767,0.7,1.133,1.383,1.1,2.05c-0.033,0.7-0.2,1.167-0.5,1.4c-0.3,0.2-1.017,0.35-2.15,0.45c-1.033,0.066-1.95-0.233-2.75-0.9
			c-0.733-0.633-1.1-1.333-1.1-2.1C17.867,26.117,18.967,25.433,21.1,25.8z"/>
		<path style="fill-rule:evenodd;clip-rule:evenodd;fill:#514C45;" d="M57.05,30.7c1.434,0.767,1.967,1.55,1.6,2.35L57.7,34
			c-0.634-0.033-1.283-0.15-1.95-0.35c-1.3-0.367-2.05-0.867-2.25-1.5c-0.233-0.8,0.05-1.367,0.85-1.7
			C55.15,30.117,56.05,30.2,57.05,30.7z"/>
		<path style="fill-rule:evenodd;clip-rule:evenodd;fill:#514C45;" d="M51.65,38.6c0.9,0.533,1.067,1.183,0.5,1.95
			c-0.566,0.7-1.267,0.983-2.1,0.85c-0.767-0.133-0.866-0.733-0.3-1.8C50.283,38.533,50.917,38.2,51.65,38.6z"/>
		<path style="fill-rule:evenodd;clip-rule:evenodd;fill:#514C45;" d="M84.05,35.6c-1.233-0.833-1.833-1.567-1.8-2.2
			c0-0.767,0.283-1.3,0.85-1.6c0.767-0.4,1.967-0.283,3.6,0.35c0.8,0.3,1.25,0.85,1.35,1.65c0.1,0.8-0.233,1.517-1,2.15
			C86.35,36.55,85.35,36.433,84.05,35.6z"/>
		<path style="fill-rule:evenodd;clip-rule:evenodd;fill:#514C45;" d="M72.55,56.05c0.833,0.033,1.417,0.584,1.75,1.65
			c0.333,1.033,0.233,1.666-0.3,1.899c-0.566,0.233-1.35,0.233-2.35,0c-1.1-0.3-1.65-0.716-1.65-1.25
			C70.067,56.783,70.917,56.017,72.55,56.05z"/>
		<path style="fill-rule:evenodd;clip-rule:evenodd;fill:#514C45;" d="M128.95,54.6c0.733,0.767,1,1.617,0.8,2.551
			c-0.233,0.866-0.767,1.35-1.6,1.449c-0.7,0.067-1.417-0.283-2.15-1.05c-0.667-0.666-1.066-1.35-1.2-2.05
			c-0.133-0.767,0.233-1.384,1.1-1.85C126.9,53.184,127.917,53.5,128.95,54.6z"/>
		<path style="fill-rule:evenodd;clip-rule:evenodd;fill:#514C45;" d="M144.1,32.5c0.5-0.5,1.233-0.7,2.2-0.6
			c2.267,0.233,3.233,0.934,2.9,2.1c-0.267,1.033-1.05,1.767-2.35,2.2c-0.9,0.3-1.7,0.183-2.4-0.35
			c-0.667-0.5-0.983-1.083-0.95-1.75C143.5,33.433,143.7,32.9,144.1,32.5z"/>
		<path style="fill-rule:evenodd;clip-rule:evenodd;fill:#514C45;" d="M180.7,36.05c1.1,0.1,1.7,0.467,1.8,1.1
			c0.1,0.533-0.1,0.95-0.6,1.25c-0.367,0.233-1.017,0.184-1.95-0.15c-0.9-0.333-1.417-0.667-1.55-1
			c-0.101-0.333,0.033-0.633,0.399-0.9C179.267,36.083,179.9,35.983,180.7,36.05z"/>
		<path style="fill-rule:evenodd;clip-rule:evenodd;fill:#514C45;" d="M204.8,46.3c-0.7-0.533-1.033-1.117-1-1.75
			c0-0.533,0.25-0.883,0.75-1.05c0.467-0.167,1.483-0.233,3.05-0.2c0.2,0.333,0.317,0.717,0.351,1.15c0.1,0.867-0.2,1.533-0.9,2
			C206.283,46.917,205.533,46.867,204.8,46.3z"/>
		<path style="fill-rule:evenodd;clip-rule:evenodd;fill:#514C45;" d="M205.45,37.25c0.333,0.033,0.583,0.417,0.75,1.15
			c0.133,0.7,0.116,1.133-0.05,1.3c-1.067,0.867-2.017,1.05-2.851,0.55c-0.767-0.467-1.066-1.05-0.899-1.75
			c0.1-0.467,0.55-0.8,1.35-1C204.283,37.333,204.85,37.25,205.45,37.25z"/>
		<path style="fill-rule:evenodd;clip-rule:evenodd;fill:#514C45;" d="M244.8,34.55c1.367,1.067,1.851,1.85,1.45,2.35
			c-0.233,0.267-1.134,0.65-2.7,1.15c-1.033,0.3-1.899,0.083-2.6-0.65l-0.75-1.2l1.05-1.8C242.25,33.433,243.434,33.483,244.8,34.55
			z"/>
		<path style="fill-rule:evenodd;clip-rule:evenodd;fill:#514C45;" d="M232.85,46.8c1.034,0.167,1.717,0.65,2.051,1.45
			c0.233,0.567,0.25,1.133,0.05,1.7c-0.101,0.333-0.351,0.5-0.75,0.5c-0.601-0.067-1.15-0.117-1.65-0.15c-1.5,0-2.366-0.466-2.6-1.4
			c-0.101-0.566,0.1-1.083,0.6-1.55C231.116,46.817,231.884,46.633,232.85,46.8z"/>
		<path style="fill-rule:evenodd;clip-rule:evenodd;fill:#514C45;" d="M225.9,71.9c1.3,0.433,1.716,1.199,1.25,2.3
			c-0.467,1.033-1.101,1.6-1.9,1.7c-0.5,0.1-1.1-0.233-1.8-1l-0.95-1.15l0.8-1.25C224,71.733,224.866,71.533,225.9,71.9z"/>
		<path style="fill-rule:evenodd;clip-rule:evenodd;fill:#514C45;" d="M305.9,38.9c0.566-0.2,1.066,0.233,1.5,1.3
			c0.433,1.066,0.25,1.75-0.551,2.05c-0.733,0.267-1.699,0.033-2.899-0.7l-1.55-1.15l0.8-0.45
			C303.934,39.617,304.833,39.267,305.9,38.9z"/>
		<path style="fill-rule:evenodd;clip-rule:evenodd;fill:#514C45;" d="M280.25,35.15c0.967,0.267,1.5,0.833,1.6,1.7
			c0.101,0.867-0.3,1.417-1.199,1.65c-0.801,0.233-1.567,0.133-2.301-0.3c-0.633-0.434-1.017-0.95-1.149-1.55
			c-0.134-0.533,0.133-0.983,0.8-1.35C278.667,34.967,279.417,34.917,280.25,35.15z"/>
		<path style="fill-rule:evenodd;clip-rule:evenodd;fill:#514C45;" d="M299.1,55.3c1.467-0.033,2.233,0.384,2.301,1.25
			c0.066,0.834-0.301,1.45-1.101,1.851c-0.533,0.267-1.267,0.033-2.2-0.7l-1.25-1.15l0.45-0.6
			C297.767,55.55,298.366,55.333,299.1,55.3z"/>
	</g>
	<path style="fill-rule:evenodd;clip-rule:evenodd;fill:#55351E;" d="M122.05,98.55L118.4,97l1.75-0.05
		c1.467-0.066,2.9-0.233,4.3-0.5c1.367-0.233,2.15-0.967,2.35-2.2c0.134-0.733,0.267-1.983,0.4-3.75l1.4-2.65
		c0.933-1.533,1.383-1.733,1.35-0.6c-0.034,1.1,0.167,2.533,0.6,4.3l0.6,2.351c-0.133,0.666-0.367,1.383-0.7,2.149
		c-0.7,1.566-1.617,2.617-2.75,3.15S124.684,99.517,122.05,98.55z"/>
	<path style="fill-rule:evenodd;clip-rule:evenodd;fill:#55351E;" d="M81.85,79.8c0.1-2.767,0.633-3.467,1.6-2.1
		c0.966,1.366,1.167,3.649,0.6,6.85c-0.566,3.2-1.517,5.117-2.85,5.75c-1.1,0.533-2.1,0.667-3,0.4c-1.1-0.533-2.1-0.917-3-1.15
		c-1.1-0.3-2.534-0.866-4.3-1.7l-2.3-1.1l5.35,0.1l8.05-2.5L81.85,79.8z"/>
	<path style="fill-rule:evenodd;clip-rule:evenodd;fill:#55351E;" d="M179.95,85.5l1.85,10.7l-4.05,1.25
		c-0.767-0.467-1.533-1-2.3-1.601c-1.533-1.267-2.3-2.316-2.3-3.149c0.033-1.101,0.166-1.95,0.399-2.55
		c0.334-0.867,1.134-2.217,2.4-4.051c0.934-1.3,1.45-1.816,1.55-1.55C177.8,85.384,178.616,85.7,179.95,85.5z"/>
	<path style="fill-rule:evenodd;clip-rule:evenodd;fill:#55351E;" d="M231.35,84.45l1.15,9.35l-6.7,0.55l-3.25-2.699l6.65-1.25
		l0.55-2C230.25,86.866,230.783,85.55,231.35,84.45z"/>
	<path style="fill-rule:evenodd;clip-rule:evenodd;fill:#6D4126;" d="M124.65,85.8c1.086-0.348,0.603-0.014-1.45,1
		C123.638,86.293,124.122,85.96,124.65,85.8z M123.2,86.8c-0.762,0.86-1.395,2.228-1.9,4.101c-0.9,3.267-1.866,5.3-2.9,6.1
		c-1.4,1.1-1.8,0.1-1.2-3c0.333-1.566,0.783-3.233,1.35-5C120.547,88.071,122.097,87.338,123.2,86.8z"/>
	<path style="fill-rule:evenodd;clip-rule:evenodd;fill:#6D4126;" d="M224.7,83.65c1.166,0.033,1.45,0.916,0.85,2.649
		c-0.6,1.667-1.8,2.334-3.6,2c-1.834-0.333-2.167-1.2-1-2.6C222.05,84.333,223.3,83.65,224.7,83.65z"/>
</g>
<path style="fill-rule:evenodd;clip-rule:evenodd;fill:#482D1D;" d="M166.65,7c8.333-1.167,13.666-1.75,16-1.75
	c1.533,0,7.033,0.317,16.5,0.95c8.5,0.566,13.5,0.75,15,0.55c1.333-0.167,5.3-0.783,11.899-1.85
	c6.533-0.967,11.233-1.35,14.101-1.15c2.566,0.2,8.416,0.017,17.55-0.55c10.267-0.633,16.75-0.95,19.45-0.95
	c2.267,0,4.949-0.067,8.05-0.2c1.6-0.066,3.916,0,6.95,0.2c3,0.2,5.983,0.533,8.949,1c3.334,0.533,5.684,0.867,7.051,1
	c2.966,0.267,5.017,0.683,6.149,1.25c1.4,0.667,2.717,2.05,3.95,4.15c1.1,1.8,1.75,3.367,1.95,4.7l-0.05,1.4
	c-2-1.333-4.334-2.5-7-3.5c-1.767-0.667-3.25-1-4.45-1c-2.533,0.167-5.384,0.333-8.55,0.5c-3.667,0.2-5.917,0.267-6.75,0.2
	c-1.5-0.133-2.75-0.2-3.75-0.2c-8.101,0-17.284,0.767-27.551,2.3c-4.5,0.667-8.316,0.75-11.449,0.25
	c-4.634-0.7-8.467-1.05-11.5-1.05c-5.334,0-8.417,0.067-9.25,0.2c-1.167,0.367-2.75,0.8-4.75,1.3
	c-2.667,0.667-4.267,1.017-4.801,1.05c-0.966-0.033-2.199-0.05-3.699-0.05c-19.334-0.333-31.167-0.5-35.5-0.5
	c-7.567,0-17.567,0.667-30,2c-7.233,0.833-11.833,1.35-13.8,1.55c-2.733,0.3-5.467,0.45-8.2,0.45c-4.233,0-7.633,0.05-10.2,0.15
	c-4.167,0.133-8.934,0.417-14.3,0.85c-6.3,0.533-11.066,0.7-14.3,0.5c-3.8-0.233-8.7-1.067-14.7-2.5
	c-4.867-1.167-7.233-1.617-7.1-1.35c0.267,0.2,0.434,0.367,0.5,0.5c0.134,0.233-0.167,0.35-0.9,0.35c-3.333,0-7.5-0.333-12.5-1
	c-3.033-0.4-5.3-0.733-6.8-1c-1.8-0.333-3.7-0.667-5.7-1c-2.433-0.4-6.017-0.333-10.75,0.2c-5.167,0.7-8.75,1.133-10.75,1.3
	c-3.1,0.267-5.466,0.15-7.1-0.35c-1.767-0.533-2.4-1.417-1.9-2.65c0.367-0.933,1.583-2,3.65-3.2c2.434-1.4,3.884-2.333,4.35-2.8
	c0.867-0.867,2.2-1.367,4-1.5h5.5c0.1,0,1.9,0.067,5.4,0.2c2.067,0.066,4.1,0,6.1-0.2c6-0.6,12.167-0.267,18.5,1
	c1.8,0.367,4.467,0.45,8,0.25c2.767-0.167,5.934,0.417,9.5,1.75c1.4,0.533,3.567,1.017,6.5,1.45c2.534,0.367,4.534,0.55,6,0.55
	c5.667,0,9.833-0.167,12.5-0.5c2.667-0.333,9-0.167,19,0.5c20-1.333,30.667-2,32-2C153.983,8.75,158.317,8.167,166.65,7z"/>
<path style="fill-rule:evenodd;clip-rule:evenodd;fill:#5F4B23;" d="M166.65,5c8.333-1.167,13.666-1.75,16-1.75
	c1.533,0,7.033,0.317,16.5,0.95c8.5,0.566,13.5,0.75,15,0.55c1.333-0.167,5.3-0.783,11.899-1.85
	c6.533-0.967,11.233-1.35,14.101-1.15c2.566,0.2,8.416,0.017,17.55-0.55c10.267-0.633,16.75-0.95,19.45-0.95
	c2.267,0,4.949-0.067,8.05-0.2c1.6-0.066,3.916,0,6.95,0.2c3,0.2,5.983,0.533,8.949,1c3.334,0.533,5.684,0.867,7.051,1
	c2.966,0.267,5.017,0.683,6.149,1.25c1.4,0.667,2.717,2.05,3.95,4.15c1.1,1.8,1.75,3.367,1.95,4.7l-0.05,1.4
	c-2-1.333-4.334-2.5-7-3.5c-1.767-0.667-3.25-1-4.45-1c-2.533,0.167-5.384,0.333-8.55,0.5c-3.667,0.2-5.917,0.267-6.75,0.2
	c-1.5-0.133-2.75-0.2-3.75-0.2c-8.101,0-17.284,0.767-27.551,2.3c-4.5,0.667-8.316,0.75-11.449,0.25
	c-4.634-0.7-8.467-1.05-11.5-1.05c-5.334,0-8.417,0.067-9.25,0.2c-1.167,0.367-2.75,0.8-4.75,1.3
	c-2.667,0.667-4.267,1.017-4.801,1.05c-0.966-0.033-2.199-0.05-3.699-0.05c-19.334-0.333-31.167-0.5-35.5-0.5
	c-7.567,0-17.567,0.667-30,2c-7.233,0.833-11.833,1.35-13.8,1.55c-2.733,0.3-5.467,0.45-8.2,0.45c-4.233,0-7.633,0.05-10.2,0.15
	c-4.167,0.133-8.934,0.417-14.3,0.85c-6.3,0.533-11.066,0.7-14.3,0.5c-3.8-0.233-8.7-1.067-14.7-2.5
	c-4.867-1.167-7.233-1.617-7.1-1.35c0.267,0.2,0.434,0.367,0.5,0.5c0.134,0.233-0.167,0.35-0.9,0.35c-3.333,0-7.5-0.333-12.5-1
	c-3.033-0.4-5.3-0.733-6.8-1c-1.8-0.333-3.7-0.667-5.7-1c-2.433-0.4-6.017-0.333-10.75,0.2c-5.167,0.7-8.75,1.133-10.75,1.3
	c-3.1,0.267-5.216,0.233-6.35-0.1c-1.267-0.4-1.65-1.2-1.15-2.4c0.4-1,1.367-2.15,2.9-3.45c0.833-0.7,2.034-1.716,3.6-3.05
	c0.867-0.867,2.2-1.367,4-1.5h5.5c0.1,0,1.9,0.067,5.4,0.2c2.067,0.066,4.1,0,6.1-0.2c6-0.6,12.167-0.267,18.5,1
	c1.8,0.367,4.467,0.45,8,0.25c2.767-0.167,5.934,0.417,9.5,1.75c1.4,0.533,3.567,1.017,6.5,1.45c2.534,0.367,4.534,0.55,6,0.55
	c5.667,0,9.833-0.167,12.5-0.5c2.667-0.333,9-0.167,19,0.5c20-1.333,30.667-2,32-2C153.983,6.75,158.317,6.167,166.65,5z"/>
<path style="fill-rule:evenodd;clip-rule:evenodd;fill:#482D1D;" d="M114.9,29.3c0.233,2.1,0.333,3.517,0.3,4.25
	c0.1,1.4,0.183,2.517,0.25,3.35c0.1,1.6-0.05,2.883-0.45,3.85c-0.4,1.067-1.483,2.167-3.25,3.3c-1.333,0.833-1.9,2.217-1.7,4.15
	c-1.866,0.167-3.167,0.183-3.9,0.05l2-1.5c-1.066-1.733-0.75-3.017,0.95-3.85c2.2-1.066,3.367-1.95,3.5-2.65
	c0.2-1-0.15-1.933-1.05-2.8c-1.4-1.3-2.15-2.034-2.25-2.2c-0.6-1.033-0.966-2.383-1.1-4.05c-0.067-0.934-0.117-2.383-0.15-4.35
	c-0.8-0.2-2.3-1.25-4.5-3.15c-2.1-1.8-3.4-3.083-3.9-3.85c2.434-0.167,6.083-0.483,10.95-0.95c4.3-0.333,8-0.35,11.1-0.05
	c-0.5,0.667-1.833,1.65-4,2.95c-1.733,1-2.733,2.233-3,3.7C114.6,26.133,114.667,27.4,114.9,29.3z"/>
<path style="fill-rule:evenodd;clip-rule:evenodd;fill:#482D1D;" d="M69.4,30.1c-0.6,1.533-1.017,2.75-1.25,3.65l-2,1
	c0.5-0.467,1-2.217,1.5-5.25c0.467-2.867,0.633-4.767,0.5-5.7c-0.167-1.333-0.816-2.466-1.95-3.4c-1.9-1.633-2.867-2.467-2.9-2.5
	c0.6-0.533,1.583-0.983,2.95-1.35c1.3-0.3,2.383-0.4,3.25-0.3c1.967,0.267,3,0.817,3.1,1.65c-0.233,1.3-0.367,2.467-0.4,3.5
	c0.133,1.567,0.15,2.483,0.05,2.75c-0.967,1.2-1.467,1.9-1.5,2.1C70.517,27.05,70.067,28.333,69.4,30.1z"/>
<path style="fill-rule:evenodd;clip-rule:evenodd;fill:#482D1D;" d="M178.6,18.4c-0.866-0.233-2.283-0.383-4.25-0.45
	c-1.699-0.067-2.983-0.3-3.85-0.7c-1.366-0.7-2.333-1.183-2.9-1.45c-0.63-0.27-1.354-0.445-2.175-0.525
	c2.939,0.05,7.197-0.142,12.775-0.575c6.066-0.467,10.717-0.583,13.95-0.35c-1.367,0.667-2.284,1.183-2.75,1.55
	c-0.767,0.667-1.017,1.583-0.75,2.75c0.267,0.033,0.8,0.184,1.6,0.45c0.667,0.233,1.233,0.316,1.7,0.25
	c0.533,2.7,0.866,5.517,1,8.45c0.233,4.2-0.184,6.684-1.25,7.45c-0.167-0.5-0.184-1-0.05-1.5l0.5-3
	c0.233-1.267-0.051-2.233-0.851-2.9c-1.133-0.667-1.967-1.3-2.5-1.9c-0.233-0.267-0.533-0.767-0.899-1.5
	c-0.334-0.7-0.684-1.217-1.051-1.55c-0.666-0.633-1.966-1.483-3.899-2.55C180.983,19.283,179.533,18.633,178.6,18.4z"/>
<path style="fill-rule:evenodd;clip-rule:evenodd;fill:#482D1D;" d="M224.65,21.25c0.136-0.103,0.295-0.211,0.475-0.325
	c-0.072-0.084-0.131-0.175-0.175-0.275c-0.267-0.633-0.417-2.066-0.45-4.3c-1.866-0.067-3.25-0.133-4.15-0.2
	c0.7-0.2,1.767-0.483,3.2-0.85c1.167-0.5,1.884-1.316,2.15-2.45c1.233-0.3,2.217-0.317,2.95-0.05c0.833,0.267,1.466,0.934,1.899,2
	c0.7,1.733,0.217,3.117-1.45,4.15c-1.797,0.774-3.122,1.433-3.975,1.975c0.135,0.172,0.318,0.322,0.55,0.45l3.476,0.375
	c-1.609,0.112-2.768-0.013-3.476-0.375L224.65,21.25z"/>
<path style="fill-rule:evenodd;clip-rule:evenodd;fill:#482D1D;" d="M261.55,20.2c0.167,0.7,0.167,1.183,0,1.45
	c-0.6,0.967-1.666,2.083-3.2,3.35c-1.767,1.333-3,2.25-3.699,2.75v-1.5c-0.534-0.567-0.867-1.383-1-2.45
	c3.633-0.033,4.566-1.4,2.8-4.1c-0.9-1.4-2.2-3.017-3.9-4.85c-0.233-0.067-0.717-0.25-1.45-0.55c-0.121-0.054-0.237-0.104-0.35-0.15
	c2.005,0.431,4.571,0.381,7.7-0.15c4.166-0.7,7.066-0.917,8.7-0.65c-2.7,1.867-4.584,3.7-5.65,5.5
	C261.4,19.05,261.417,19.5,261.55,20.2z"/>
</svg>
