<?xml version="1.0" encoding="iso-8859-1"?>
<!-- Generator: Adobe Illustrator 15.1.0, SVG Export Plug-In . SVG Version: 6.00 Build 0)  -->
<!DOCTYPE svg PUBLIC "-//W3C//DTD SVG 1.1//EN" "http://www.w3.org/Graphics/SVG/1.1/DTD/svg11.dtd">
<svg version="1.1" id="FlashAICB" xmlns="http://www.w3.org/2000/svg" xmlns:xlink="http://www.w3.org/1999/xlink" x="0px" y="0px"
	 width="137.85px" height="191.2px" viewBox="0 0 137.85 191.2" style="enable-background:new 0 0 137.85 191.2;"
	 xml:space="preserve">
<path style="fill-rule:evenodd;clip-rule:evenodd;fill:#C2BDB0;" d="M85.4,2.75L83.5,2.3c-0.3-0.066-1.184-0.35-2.65-0.85
	c-1.166-0.4-1.916-0.617-2.25-0.65c0.267-0.033,1.051,0.184,2.351,0.65c1.5,0.533,2.366,0.816,2.6,0.85l2.4,0.55L85.4,2.75z
	 M71.85,60.25v5.1L71.7,62.5v-6.05v-3.7L71.85,60.25z M83.7,191.2c-0.967,0-1.934,0-2.9,0c-3.071-0.033-6.188-0.1-9.35-0.2
	l0.899-0.15v-6.75v-0.25c0.4-3.3,0.601-15.683,0.601-37.149c0-20.767-0.2-42.101-0.601-64V61.5c0.5-2.4,1.733-5.95,3.7-10.65
	c2.033-4.8,3.3-8.35,3.8-10.65l-0.05,0.1c0.033-0.07,0.05-0.136,0.05-0.2c0.801-3.1,1.4-5.434,1.801-7c0.6-2.467,1-4.633,1.199-6.5
	c-0.066,1.566,0.467,2.017,1.601,1.35c1.066-0.567,2.066-1.55,3-2.95c-0.033,1.167,0.233,2.067,0.8,2.7c0.6,0.7,1.45,0.933,2.55,0.7
	l0.101,0.95c1.767-1.434,3.133-3.233,4.1-5.4c1.9,4.433,3.25,8.2,4.05,11.3c0.934,3.833,1.367,7.867,1.3,12.1
	c1.567,0.333,3.117-0.367,4.65-2.1c1.8,2.833,2.684,7.183,2.65,13.05c-0.034,3.267-0.301,7.867-0.801,13.8
	c-0.366-0.4-1.017-1.417-1.949-3.05c-0.733-1.267-1.517-2.15-2.351-2.65c-0.833,5.233-0.566,8.233,0.8,9
	c0.434,0.233,1.567,0.083,3.4-0.45c1.066-0.333,1.733,0.8,2,3.4c0.033,0.333-0.417,2.4-1.35,6.2c-0.667,2.667-0.2,4.284,1.399,4.85
	c0.101,1.5,0.134,3.717,0.101,6.65c-0.034,3-0.017,5.2,0.05,6.601c1.133-0.867,2.3-1.084,3.5-0.65c1.066,0.4,1.883,1.217,2.45,2.45
	c0.366,0.866,0.483,2.383,0.35,4.55c-0.167,3-0.25,4.533-0.25,4.6c0.333,7.367,0.55,11.801,0.65,13.301
	c0.399,5.033,1.017,9.416,1.85,13.149l0.1,0.55c-0.1,0.634-0.25,1.2-0.449,1.7c-0.567-0.633-1.034-1.45-1.4-2.45
	c-0.233-0.566-0.5-1.483-0.8-2.75c-0.134,2.067-0.184,4.617-0.15,7.65c0,1.7,0.017,4.25,0.05,7.65c0.034,1.033,0.184,3.233,0.45,6.6
	c0.066,3.033-0.399,5.033-1.399,6c-1.301-0.7-2.084-1.95-2.351-3.75c-0.1-2.2-0.2-3.816-0.3-4.85
	c-0.134,0.633-0.233,1.699-0.3,3.199c-0.066,1.367-0.217,2.4-0.45,3.101l-0.6-2.101c-0.067,3.067-0.384,6.551-0.95,10.45
	c-0.601,4-1.2,6.483-1.8,7.45c-0.301,0.434-0.95,1.033-1.95,1.8c-0.533,0.434-1.283,0.983-2.25,1.65c-1.667,1.233-2.967,1.8-3.9,1.7
	c-1.3-0.134-2.017-1.517-2.149-4.15c0.066,2.233-0.9,3.783-2.9,4.65c-2.1,0.899-3.434,0.133-4-2.301
	c-0.267,0.5-0.816,2.2-1.65,5.101c-0.933,2.3-2.05,2.649-3.35,1.05c-0.533,0.566-0.75,1.517-0.65,2.85L83.7,191.2z M97.1,77.1v-0.45
	c2.134-3.233,3.684-6.183,4.65-8.85c1.267-3.566,1.333-6.233,0.2-8c-0.233,0.133-0.684,0.25-1.351,0.35
	c-0.666,0.067-1.066,0.133-1.199,0.2c-0.101-0.4-0.634-3.633-1.601-9.7c-0.633-4.033-1.616-7.133-2.95-9.3
	c-0.166,0.2-0.6,0.483-1.3,0.85c-0.6,0.3-1.033,0.683-1.3,1.15c-0.767-0.633-1.467-1.917-2.1-3.85
	c-0.7-2.133-1.301-3.517-1.801-4.15l-6.5,16C81.316,53.817,80.6,58.1,79.7,64.2c-0.767,5.3-1.566,9.5-2.4,12.6
	c-0.934,3.633-1.333,8.434-1.2,14.4c0.067,3.4,0.317,8.2,0.75,14.399c0.167,3.167,0.167,7.851,0,14.051
	c-0.133,6.3-0.133,10.983,0,14.05c0.301,7.366,0.584,12.083,0.851,14.149c0.8,6.034,2.416,10.45,4.85,13.25
	c1.066-1.533,1.667-3.3,1.8-5.3c-0.366,9.2-0.55,13.917-0.55,14.15c0.2,6.166,1.4,10.434,3.601,12.8c1.366-2.4,2.55-5.8,3.55-10.2
	c0.967-4.967,1.649-8.45,2.05-10.45c0.767-3.767,1.3-6.616,1.6-8.55c0.5-3.1,0.767-5.95,0.801-8.55
	c0.166,1.333,0.517,2.434,1.05,3.3c1.934-4.666,2.833-10.8,2.7-18.399c-0.034-1.534-0.5-7.867-1.4-19c0.967-3.4,1.634-5.967,2-7.7
	c0.634-3.033,0.634-5.5,0-7.4c-0.2,0.233-0.616,0.5-1.25,0.8c-0.634,0.334-1,0.551-1.1,0.65c-0.2-2.267-0.117-5.717,0.25-10.35
	c0.399-4.6,0.483-8.066,0.25-10.4L97.1,77.1z M71.775,0c-0.124,0.003-0.3,0.053-0.525,0.15c-0.233,0-0.6,0.067-1.1,0.2H69.9V0
	H71.775z M38.55,5.525C40.351,4.75,42.201,4.076,44.1,3.5c0.3-0.1,0.617-0.183,0.95-0.25c-2.167,0.633-4.267,1.367-6.3,2.2
	C38.683,5.474,38.617,5.499,38.55,5.525z M72.15,0c0,1.733-0.084,4.217-0.25,7.45c-0.167,0.367-0.334,0.75-0.5,1.15L71.35,8.7
	L71.4,8.5c0.267-1.167,0.433-2.55,0.5-4.15c0-0.167,0-1.617,0-4.35C72,0,72.083,0,72.15,0z M66.2,0.075
	C66.977,0.039,67.76,0.013,68.55,0l-0.2,0.05H67.45H67C66.734,0.059,66.468,0.067,66.2,0.075z M70,173.1l-0.15,17.851
	c-2.7-0.093-5.434-0.21-8.2-0.351c0.3-1.267,0.483-2.767,0.55-4.5c0-2.133,0.017-3.883,0.05-5.25c-0.667,2.301-1.017,3.467-1.05,3.5
	c-0.167,0.134-1.233,0.134-3.2,0c-0.1,0-0.333-0.283-0.7-0.85c-0.333-0.533-0.767-0.767-1.3-0.7c-0.433,0.066-0.783,0.483-1.05,1.25
	c-0.3,0.8-0.55,1.25-0.75,1.351c-0.233,0.133-0.517,0.383-0.85,0.75c-0.267,0.333-0.617,0.566-1.05,0.699
	c-1.8,0.5-3.716,0.167-5.75-1c-1.933-1.133-3.167-2.483-3.7-4.05c-0.233-0.733-0.467-1.95-0.7-3.649
	c-0.267-1.801-0.483-3.034-0.65-3.7c-0.133,0.2-0.45,0.916-0.95,2.149c-0.367,0.967-0.75,1.551-1.15,1.75
	c-0.933,0.434-2.15,0.267-3.65-0.5c-1.433-0.767-2.25-1.6-2.45-2.5c-2.466,1.5-4.75,0.851-6.85-1.949
	c-1.667-2.267-2.717-4.934-3.15-8c-1.466,0.233-2.617-0.267-3.45-1.5c-0.733-1.067-1.083-2.384-1.05-3.95
	c-1.9,0.066-3.083-2.233-3.55-6.9c-0.167-5.233-0.3-8.434-0.4-9.6c-0.133,0.233-0.283,0.416-0.45,0.55
	c-0.267,0.2-0.417,0.316-0.45,0.35c-0.3-3.433-0.483-5.8-0.55-7.1c-0.133-3.066,0.033-5.384,0.5-6.95c0.2-0.7,0.65-1.399,1.35-2.1
	c0.833-0.867,1.4-1.584,1.7-2.15c0.4-0.767,0.617-1.983,0.65-3.649c0.033-1.367-0.033-2.65-0.2-3.851
	c-1.267-6.399-2.133-11.217-2.6-14.45C14,98.533,13.9,93.567,14.5,89.2c0.1-0.667,0.6-3.517,1.5-8.55
	c0.633-3.633,1.017-6.617,1.15-8.95c1.333-0.7,2.167-1.233,2.5-1.6c0.533-0.5,0.9-1.617,1.1-3.35c0.2-1.467,0.317-3.617,0.35-6.45
	c0.033-2.966,0.133-5.117,0.3-6.45c0.033-0.233,0.083-2.017,0.15-5.35c0.067-2.3,0.333-4.033,0.8-5.2c0.3-0.733,0.85-1.75,1.65-3.05
	c0.867-1.4,1.45-2.367,1.75-2.9c0.567-0.967,1.267-2.483,2.1-4.55c0.833-1.966,1.533-3.417,2.1-4.35V28.4
	c0.333,0.2,0.633,0.483,0.9,0.85c1.1-2.1,1.667-3.167,1.7-3.2c1.367-0.933,2.367-1.733,3-2.4c0.567-0.066,1.184,0.167,1.85,0.7
	c1,0.8,1.6,3.083,1.8,6.85c0.2,4.066,0.617,6.566,1.25,7.5c1.333-1.534,2.233-4.217,2.7-8.05c0.533-4.033,1.233-6.7,2.1-8
	c0.6-0.9,1.3-1.566,2.1-2c1.133-0.533,2.167-1.1,3.1-1.7c2.8-1.333,4.85-2.383,6.15-3.15c2.3-1.3,3.717-2.95,4.25-4.95
	c2.2,1.566,3.933,1.233,5.2-1c0.3-0.5,1.067-2.684,2.3-6.55l0.25-0.7L68.45,3.05c0,1.733-0.033,3-0.101,3.8l0.551,8.5l0.05-5.2
	l0.1-3.25l0.45,19.05l-0.6-10.6L68.85,23.4c-0.633-6.8-1.466-9.316-2.5-7.55c-0.5,0.867-0.684,7.15-0.55,18.85
	c0.133,13.667,0.15,21.383,0.05,23.15c-0.333,5.333-0.5,18.6-0.5,39.8c0,23.233,0.333,37.633,1,43.199c1,8.334,2.167,20.667,3.5,37
	L70,173.1z M70.6,144.95L70.15,158.8c-0.067-4.233-0.051-7.333,0.05-9.3l0.05-1.4L70.6,144.95z M23.35,73.5
	c-0.5,1.867-0.633,3.733-0.4,5.6l0.25-0.05c-0.133,3.934-0.45,7.184-0.95,9.75c-0.967,4.434-1.5,7.034-1.6,7.8
	c-0.467,3.434-0.233,6.101,0.7,8l1.05-0.3c0.733,1.267,1.2,3.017,1.4,5.25c0.1,1.267,0.117,3.134,0.05,5.601l3.05-4.2
	c0.167,9.633,0.283,14.883,0.35,15.75c0.467,6.333,1.717,11.316,3.75,14.95c0.467-5.301,0.867-9.317,1.2-12.051
	c0.566-4.899,1.633-8.783,3.2-11.649c1.5,2.233,2.783,0.717,3.85-4.55c0.767-3.667,1.283-8.101,1.55-13.301
	c0,1.2,0.167,2.15,0.5,2.851c1.067-0.934,1.883-2.334,2.45-4.2c0.1-0.4,0.433-2.033,1-4.9c0.367,5.1,0.183,13.05-0.55,23.85
	c-0.7,10.434-0.817,18.333-0.35,23.7c0.3,3.333,1.566,7.449,3.8,12.35c2.967,6.634,4.684,10.65,5.15,12.05
	c0.133-4.7,0.767-11.184,1.9-19.45c1.233-9.133,1.966-15.6,2.2-19.399c0.133-2.066,0.25-3.4,0.35-4c0.2-1.4,0.567-2.7,1.1-3.9
	c-1.3,5-1.434,10.117-0.4,15.351c1.833-11.2,2.7-20.834,2.6-28.9c-0.167-10.7-1.95-20.1-5.35-28.2c-0.034,0.2-0.2,0.817-0.5,1.85
	c-0.2,0.767-0.317,1.4-0.35,1.9c0.033-2.8,0.25-8.716,0.65-17.75c0.3-7.4,0.4-13.283,0.3-17.65c0.4-2.5,0.583-4.933,0.55-7.3
	c-0.033-2.633-0.35-4.833-0.95-6.6c-2.133,1.967-3.5,4.3-4.1,7c0.034-1.333-0.117-2.667-0.45-4c-1.4,0.667-2.333,1.667-2.8,3
	c0.5-3.967,0.767-6.933,0.8-8.9l-5.5,15.5c-0.434-0.633-0.717-1.617-0.85-2.95c-0.067-1.5-0.167-2.583-0.3-3.25
	c-0.833,0.6-1.467,1.533-1.9,2.8c-0.267,0.733-0.617,1.85-1.05,3.35c-0.267-3.2-1.767-3.65-4.5-1.35c-2.233,1.833-3.9,3.816-5,5.95
	c-3.267,6.333-5.083,11.95-5.45,16.85l0.5-1.65C23.8,66.533,23.483,69.667,23.35,73.5z M41.6,71.45l-0.05-0.05
	c-0.2-0.1-0.283-0.2-0.25-0.3c0.1-0.2,0.2-0.167,0.3,0.1l0.05-0.1L41.6,71.45z M37.9,69.45c-0.066,1.667-0.083,2.566-0.05,2.7
	c0.033,1.467,0.25,2.65,0.65,3.55c-0.067,0.033-0.133,0.083-0.2,0.15c-0.433-0.867-0.633-2.1-0.6-3.7
	C37.767,71.083,37.833,70.183,37.9,69.45z M72.2,155.05v-1.7l0.05,0.101v4.3L72.2,155.05z M9.525,185.325
	c-0.592-0.068-1.184-0.144-1.775-0.226l0.6,0.051L9.525,185.325z M109.35,156.15c0,1.433,0.184,2.916,0.551,4.449
	C109.967,157.866,109.783,156.384,109.35,156.15z"/>
<path style="fill-rule:evenodd;clip-rule:evenodd;fill:#68645A;" d="M9.7,34.4C7,41.233,4.967,49.1,3.6,58
	c-0.367,2.4-0.617,4.367-0.75,5.9v103.3c-0.5,7-0.6,12.684-0.3,17.05l0.3,0.1L3.2,184.4l-2,1.25c-1.1-32.867-1.434-53.967-1-63.301
	c0.233-4.666,0.35-14.6,0.35-29.8c0-14.233,0.1-22.75,0.3-25.55c0.267-3.033,0.933-8.017,2-14.95c1.133-7.233,1.8-11.8,2-13.7l4.7-8
	L9.7,34.4z"/>
<path style="fill-rule:evenodd;clip-rule:evenodd;fill:#BBB6A9;" d="M107.25,190.45L83.7,191.2l0.649-0.351
	c-0.1-1.333,0.117-2.283,0.65-2.85c1.3,1.6,2.417,1.25,3.35-1.05c0.834-2.9,1.384-4.601,1.65-5.101c0.566,2.434,1.9,3.2,4,2.301
	c2-0.867,2.967-2.417,2.9-4.65c0.133,2.634,0.85,4.017,2.149,4.15c0.934,0.1,2.233-0.467,3.9-1.7c0.967-0.667,1.717-1.217,2.25-1.65
	c1-0.767,1.649-1.366,1.95-1.8c0.6-0.967,1.199-3.45,1.8-7.45c0.566-3.899,0.883-7.383,0.95-10.45l0.6,2.101
	c0.233-0.7,0.384-1.733,0.45-3.101c0.066-1.5,0.166-2.566,0.3-3.199c0.1,1.033,0.2,2.649,0.3,4.85c0.267,1.8,1.05,3.05,2.351,3.75
	c1-0.967,1.466-2.967,1.399-6c-0.267-3.366-0.416-5.566-0.45-6.6c-0.033-3.4-0.05-5.95-0.05-7.65
	c-0.033-3.033,0.017-5.583,0.15-7.65c0.3,1.267,0.566,2.184,0.8,2.75c0.366,1,0.833,1.817,1.4,2.45c0.199-0.5,0.35-1.066,0.449-1.7
	l-0.1-0.55c-0.833-3.733-1.45-8.116-1.85-13.149c-0.101-1.5-0.317-5.934-0.65-13.301c0-0.066,0.083-1.6,0.25-4.6
	c0.134-2.167,0.017-3.684-0.35-4.55c-0.567-1.233-1.384-2.05-2.45-2.45c-1.2-0.434-2.367-0.217-3.5,0.65
	c-0.066-1.4-0.084-3.601-0.05-6.601c0.033-2.933,0-5.15-0.101-6.65c-1.6-0.566-2.066-2.183-1.399-4.85
	c0.933-3.8,1.383-5.867,1.35-6.2c-0.267-2.6-0.934-3.733-2-3.4c-1.833,0.533-2.967,0.683-3.4,0.45c-1.366-0.767-1.633-3.767-0.8-9
	c0.834,0.5,1.617,1.383,2.351,2.65c0.933,1.633,1.583,2.65,1.949,3.05c0.5-5.934,0.767-10.533,0.801-13.8
	c0.033-5.867-0.851-10.216-2.65-13.05c-1.533,1.733-3.083,2.433-4.65,2.1c0.067-4.233-0.366-8.267-1.3-12.1
	c-0.8-3.1-2.149-6.867-4.05-11.3c-0.967,2.167-2.333,3.966-4.1,5.4L90.8,28.4c-1.1,0.233-1.95,0-2.55-0.7
	c-0.566-0.633-0.833-1.534-0.8-2.7c-0.934,1.4-1.934,2.383-3,2.95c-1.134,0.667-1.667,0.216-1.601-1.35
	c-0.199,1.867-0.6,4.033-1.199,6.5c-0.4,1.566-1,3.9-1.801,7c0,0.063-0.017,0.13-0.05,0.2l0.05-0.1c-0.5,2.3-1.767,5.85-3.8,10.65
	c-1.967,4.7-3.2,8.25-3.7,10.65v-5.15c-0.233,1-0.399,2.3-0.5,3.9l-0.149-7.5L71.55,30c0.267-1.6,0.967-3.783,2.101-6.55
	c1.233-3,2-5.15,2.3-6.45c0.1-0.433,0.184-1.833,0.25-4.2c0.033-1.933,0.25-3.25,0.649-3.95C77.65,7.517,78.6,6.767,79.7,6.6
	c0.366-0.067,1.467,0.017,3.3,0.25c2.733,0.3,4.75,0.583,6.05,0.85c2.334,0.466,4.233,1.167,5.7,2.1
	c0.533,0.333,2.083,1.75,4.65,4.25c1.733,1.667,3.566,2.617,5.5,2.85c-0.233,2.4,0.267,4.55,1.5,6.45
	c0.267,0.367,0.833,0.833,1.699,1.4c0.834,0.567,1.4,1.1,1.7,1.6c0.267,0.433,0.467,1.133,0.601,2.1
	c0.133,1.1,0.283,1.833,0.449,2.2c0.634,1.4,1.784,3,3.45,4.8c2.2,2.4,3.517,3.883,3.95,4.45c1.833,2.567,2.884,5.383,3.15,8.45
	c0.267,3.467,0.416,7.517,0.449,12.15v12.2c0,0.466-0.149,1.95-0.449,4.45c-0.267,2.033-0.284,3.417-0.051,4.15
	c0.233,0.7,0.601,1.217,1.101,1.55c0.566,0.333,0.916,0.667,1.05,1c1.2,2.633,1.667,6.1,1.4,10.4
	c-0.167,2.434-0.517,5.95-1.051,10.55v0.75c0,0.233-0.133,2.434-0.399,6.601c-0.2,2.8-0.25,5-0.15,6.6
	c0.066,1.033,0.351,2.85,0.851,5.45c0.466,2.3,0.699,4.166,0.699,5.6c0.034,1.5-0.083,4-0.35,7.5c-0.1,3.101,0.2,5.434,0.9,7
	c0.899-0.967,1.716-2.166,2.449-3.6c0.067,1.767,0.301,5.483,0.7,11.149c0.3,5.767,0.15,10.434-0.45,14
	c-0.833,4.9-2.517,8.101-5.05,9.601c0.033-0.334-0.05-0.917-0.25-1.75c-0.2-0.867-0.3-1.45-0.3-1.75
	c-0.533,1.666-1.45,3.184-2.75,4.55c-0.767,0.833-2.017,2.1-3.75,3.8c-0.6,0.7-1.1,1.851-1.5,3.45c-0.4,1.634-0.767,2.667-1.1,3.1
	C112.333,188.25,110.283,189.45,107.25,190.45z M61.65,190.6l-43.725-4.125c-0.063-0.009-0.121-0.017-0.175-0.024
	c-0.433-1.066-1.517-2.7-3.25-4.9c-0.067-0.066-0.117-0.133-0.15-0.2c-0.333-0.399-0.633-0.783-0.9-1.149
	c-0.4-0.533-0.733-1.033-1-1.5c-0.3-0.434-0.534-0.834-0.7-1.2c-0.2-0.333-0.35-0.65-0.45-0.95c-0.033-0.033-0.05-0.066-0.05-0.1
	c-0.433-1.167-0.867-2.834-1.3-5c-0.5-2.467-0.9-4.167-1.2-5.101c-1-3.3-1.633-5.633-1.9-7c-0.567-3.166-0.9-6.767-1-10.8
	c1.033-3.434,1.683-5.95,1.95-7.55c0.434-2.634,0.45-5.366,0.05-8.2c-0.1-0.899-0.483-3.184-1.15-6.85
	C7.233,111.583,7.133,97.9,6.4,84.9l-0.1-2.3c-0.4-8.867-0.05-16.783,1.05-23.75C7.483,58.05,7.8,57.1,8.3,56
	c0.667-1.333,1.067-2.233,1.2-2.7c0.233-0.7,0.4-1.517,0.5-2.45c0.067-0.667,0.133-1.217,0.2-1.65c0.066-0.367,0.117-0.65,0.15-0.85
	c0.267-1.267,0.733-2.817,1.4-4.65c0.933-2.633,1.467-4.133,1.6-4.5l0.25-0.8c0.467-1.2,0.85-2.083,1.15-2.65
	c1.033-2.033,3.1-5.05,6.2-9.05c1.5-2.034,2.65-3.567,3.45-4.6c1.434-1.767,2.8-3,4.1-3.7c0.4-0.2,1.05-0.383,1.95-0.55
	c0.867-0.133,1.5-0.317,1.9-0.55c0.3-0.133,0.633-0.5,1-1.1c0.433-0.667,0.767-1.083,1-1.25c0.9-0.6,1.967-0.983,3.2-1.15
	c1.167-0.133,2.267-0.017,3.3,0.35l0.4,0.1c4.067-3.2,6.733-5.2,8-6c3.533-2.167,6.717-3.167,9.55-3c0.2-1.467,1.5-2.533,3.9-3.2
	c2.6-0.733,4.033-1.4,4.3-2h0.45l-0.4,0.85C67.65,1,68.1,1.233,68.4,1.6l0.35,0.55l0.3,0.9V6.9c-0.133,1.2-0.2,2.017-0.2,2.45
	l0.101,0.8l-0.05,5.2l-0.551-8.5c0.067-0.8,0.101-2.067,0.101-3.8L68.6,2.6l-0.25,0.7c-1.233,3.867-2,6.05-2.3,6.55
	c-1.267,2.233-3,2.566-5.2,1c-0.533,2-1.95,3.65-4.25,4.95c-1.3,0.767-3.35,1.817-6.15,3.15c-0.934,0.6-1.967,1.167-3.1,1.7
	c-0.8,0.434-1.5,1.1-2.1,2c-0.867,1.3-1.567,3.967-2.1,8c-0.467,3.833-1.367,6.517-2.7,8.05c-0.633-0.934-1.05-3.434-1.25-7.5
	c-0.2-3.767-0.8-6.05-1.8-6.85c-0.667-0.533-1.283-0.767-1.85-0.7c-0.633,0.667-1.633,1.467-3,2.4c-0.033,0.034-0.6,1.1-1.7,3.2
	c-0.267-0.367-0.567-0.65-0.9-0.85v0.05c-0.567,0.933-1.267,2.383-2.1,4.35c-0.833,2.067-1.533,3.583-2.1,4.55
	c-0.3,0.533-0.883,1.5-1.75,2.9c-0.8,1.3-1.35,2.317-1.65,3.05c-0.467,1.167-0.733,2.9-0.8,5.2c-0.066,3.333-0.117,5.117-0.15,5.35
	c-0.167,1.333-0.267,3.483-0.3,6.45c-0.033,2.833-0.15,4.983-0.35,6.45c-0.2,1.733-0.567,2.85-1.1,3.35
	c-0.333,0.367-1.167,0.9-2.5,1.6c-0.133,2.333-0.517,5.316-1.15,8.95c-0.9,5.033-1.4,7.883-1.5,8.55
	c-0.6,4.367-0.5,9.333,0.3,14.899c0.467,3.233,1.333,8.051,2.6,14.45c0.167,1.2,0.233,2.483,0.2,3.851
	c-0.033,1.666-0.25,2.883-0.65,3.649c-0.3,0.566-0.867,1.283-1.7,2.15c-0.7,0.7-1.15,1.399-1.35,2.1
	c-0.467,1.566-0.633,3.884-0.5,6.95c0.067,1.3,0.25,3.667,0.55,7.1c0.033-0.033,0.183-0.149,0.45-0.35
	c0.167-0.134,0.317-0.316,0.45-0.55c0.1,1.166,0.233,4.366,0.4,9.6c0.467,4.667,1.65,6.967,3.55,6.9
	c-0.033,1.566,0.317,2.883,1.05,3.95c0.833,1.233,1.983,1.733,3.45,1.5c0.434,3.066,1.483,5.733,3.15,8
	c2.1,2.8,4.383,3.449,6.85,1.949c0.2,0.9,1.017,1.733,2.45,2.5c1.5,0.767,2.717,0.934,3.65,0.5c0.4-0.199,0.783-0.783,1.15-1.75
	c0.5-1.233,0.817-1.949,0.95-2.149c0.167,0.666,0.383,1.899,0.65,3.7c0.233,1.699,0.467,2.916,0.7,3.649
	c0.533,1.566,1.767,2.917,3.7,4.05c2.034,1.167,3.95,1.5,5.75,1c0.434-0.133,0.784-0.366,1.05-0.699
	c0.333-0.367,0.617-0.617,0.85-0.75c0.2-0.101,0.45-0.551,0.75-1.351c0.267-0.767,0.617-1.184,1.05-1.25
	c0.533-0.066,0.967,0.167,1.3,0.7c0.367,0.566,0.6,0.85,0.7,0.85c1.967,0.134,3.033,0.134,3.2,0c0.033-0.033,0.383-1.199,1.05-3.5
	c-0.033,1.367-0.05,3.117-0.05,5.25C62.133,187.833,61.95,189.333,61.65,190.6z M109.35,156.15c0.434,0.233,0.617,1.716,0.551,4.449
	C109.533,159.066,109.35,157.583,109.35,156.15z"/>
<path style="fill-rule:evenodd;clip-rule:evenodd;fill:#A9A499;" d="M118.95,189.35c-0.167,0.034-0.316,0.051-0.45,0.051
	l-11.25,1.05c3.033-1,5.083-2.2,6.15-3.601c0.333-0.433,0.699-1.466,1.1-3.1c0.4-1.6,0.9-2.75,1.5-3.45
	c1.733-1.7,2.983-2.967,3.75-3.8c1.3-1.366,2.217-2.884,2.75-4.55c0,0.3,0.1,0.883,0.3,1.75c0.2,0.833,0.283,1.416,0.25,1.75
	c2.533-1.5,4.217-4.7,5.05-9.601c0.601-3.566,0.75-8.233,0.45-14c-0.399-5.666-0.633-9.383-0.7-11.149
	c-0.733,1.434-1.55,2.633-2.449,3.6c-0.7-1.566-1-3.899-0.9-7c0.267-3.5,0.384-6,0.35-7.5c0-1.434-0.233-3.3-0.699-5.6
	c-0.5-2.601-0.784-4.417-0.851-5.45c-0.1-1.6-0.05-3.8,0.15-6.6c0.267-4.167,0.399-6.367,0.399-6.601v-0.75
	c0.534-4.6,0.884-8.116,1.051-10.55c0.267-4.3-0.2-7.767-1.4-10.4c-0.134-0.333-0.483-0.667-1.05-1
	c-0.5-0.333-0.867-0.85-1.101-1.55c-0.233-0.733-0.216-2.117,0.051-4.15c0.3-2.5,0.449-3.983,0.449-4.45V60.5
	c-0.033-4.633-0.183-8.683-0.449-12.15c-0.267-3.067-1.317-5.883-3.15-8.45c-0.434-0.566-1.75-2.05-3.95-4.45
	c-1.666-1.8-2.816-3.4-3.45-4.8c-0.166-0.367-0.316-1.1-0.449-2.2c-0.134-0.967-0.334-1.667-0.601-2.1c-0.3-0.5-0.866-1.033-1.7-1.6
	c-0.866-0.567-1.433-1.033-1.699-1.4c-1.233-1.9-1.733-4.05-1.5-6.45c-1.934-0.233-3.767-1.183-5.5-2.85
	c-2.567-2.5-4.117-3.917-4.65-4.25c-1.467-0.933-3.366-1.633-5.7-2.1c-1.3-0.267-3.316-0.55-6.05-0.85
	c-1.833-0.233-2.934-0.317-3.3-0.25C78.6,6.767,77.65,7.517,76.85,8.85c-0.399,0.7-0.616,2.017-0.649,3.95
	c-0.066,2.367-0.15,3.767-0.25,4.2c-0.3,1.3-1.066,3.45-2.3,6.45c-1.134,2.767-1.834,4.95-2.101,6.55L71.5,19.5
	c1-1.5,1.783-3.45,2.35-5.85c0.233-1.066,0.584-3.167,1.051-6.3c0.133-1.4,0.233-2.4,0.3-3c0.1-0.867,0.25-1.533,0.45-2
	c0.1-0.067,0.199-0.117,0.3-0.15c0-0.034,0.017-0.067,0.05-0.1c0.467-0.133,0.9-0.217,1.3-0.25c1-0.133,2.334-0.067,4,0.2
	c1.9,0.367,3.267,0.6,4.101,0.7c1.3,0.3,2.533,0.667,3.699,1.1c1.167,0.4,2.117,0.867,2.851,1.4c0.467,0.333,1.217,0.9,2.25,1.7
	C95.1,7.517,96.267,8.1,97.7,8.7c0.833,0.367,2.1,0.9,3.8,1.6c1.467,0.667,2.75,1.483,3.85,2.45c0.801,0.733,1.801,1.85,3,3.35
	c0.767,0.967,2.483,2.333,5.15,4.1c2.467,1.633,4.05,3.017,4.75,4.15c0.333,0.566,0.783,1.566,1.35,3
	c0.534,1.5,0.967,2.533,1.301,3.1c0.1,0.233,0.533,0.95,1.3,2.15c0.5,0.767,0.85,1.517,1.05,2.25c0.4,1.333,0.717,3.3,0.95,5.9
	c0.267,3,0.5,5,0.7,6c0.133,0.767,0.267,2.3,0.399,4.6c0.101,2,0.283,3.5,0.55,4.5c0.233,0.8,0.617,1.633,1.15,2.5
	c0.2,0.333,1.066,1.517,2.6,3.55c1.134,1.467,1.9,2.783,2.301,3.95c1.166,3.233,1.683,7.55,1.55,12.95
	c-0.066,3.034-0.267,7.483-0.601,13.35c-0.033,5.767-0.366,14.417-1,25.95c-0.633,11.534-0.966,20.184-1,25.95
	c0,2.367,0.051,4.717,0.15,7.05c0.233,7.634,0.35,12.551,0.35,14.75c0,3.301-0.05,5.5-0.149,6.601
	c-0.267,2.366-0.884,4.517-1.851,6.45c-1.033,2.033-1.899,3.466-2.6,4.3c-0.6,0.733-1.9,1.649-3.9,2.75
	c-1.866,1.066-3.066,2.017-3.6,2.85L118.95,189.35z M69.9,0.35H68.85l0.2,2.7l-0.3-0.9L68.4,1.6C68.1,1.233,67.65,1,67.05,0.9
	l0.4-0.85h0.899L68.55,0H69.9V0.35z M69.05,6.9l-0.1,3.25l-0.101-0.8C68.85,8.917,68.917,8.1,69.05,6.9z M67,0.05
	c-0.267,0.6-1.7,1.267-4.3,2c-2.4,0.667-3.7,1.733-3.9,3.2c-2.833-0.167-6.017,0.833-9.55,3c-1.267,0.8-3.933,2.8-8,6l-0.4-0.1
	c-1.033-0.367-2.133-0.483-3.3-0.35c-1.233,0.167-2.3,0.55-3.2,1.15c-0.233,0.167-0.567,0.583-1,1.25c-0.367,0.6-0.7,0.966-1,1.1
	c-0.4,0.233-1.033,0.417-1.9,0.55c-0.9,0.167-1.55,0.35-1.95,0.55c-1.3,0.7-2.667,1.934-4.1,3.7c-0.8,1.033-1.95,2.566-3.45,4.6
	c-3.1,4-5.167,7.017-6.2,9.05c-0.3,0.567-0.683,1.45-1.15,2.65l-0.25,0.8c-0.133,0.367-0.667,1.867-1.6,4.5
	c-0.667,1.833-1.133,3.383-1.4,4.65c-0.033,0.2-0.083,0.483-0.15,0.85c-0.067,0.433-0.133,0.983-0.2,1.65
	c-0.1,0.933-0.267,1.75-0.5,2.45c-0.133,0.467-0.533,1.367-1.2,2.7c-0.5,1.1-0.816,2.05-0.95,2.85C6.25,65.817,5.9,73.733,6.3,82.6
	l0.1,2.3c0.733,13,0.833,26.683,0.3,41.05c-0.9-4.934-1.35-8.95-1.35-12.05c0-3.801,0.066-8.717,0.2-14.75
	c0.2-8,0.317-12.934,0.35-14.8V80.4c0-9.033,0.017-14.066,0.05-15.1c0.133-5.767,0.566-10.7,1.3-14.8
	c0.033-0.2,0.067-0.383,0.1-0.55l2.35-8.5c0.066-0.2,0.15-0.4,0.25-0.6c0.033-0.133,0.066-0.233,0.1-0.3l0.1-0.35
	c0.1-0.267,1.467-3.617,4.1-10.05c1.9-4.533,3.417-7.7,4.55-9.5c1.3-2.1,2.95-4.05,4.95-5.85c0.7-0.633,1.45-1.25,2.25-1.85
	c1.1-0.833,2.517-1.6,4.25-2.3c1.967-0.733,3.433-1.316,4.4-1.75c0.934-0.4,1.7-0.783,2.3-1.15c1.2-0.8,2.05-1.367,2.55-1.7
	c0.9-0.566,1.833-0.983,2.8-1.25c0.367-0.1,0.967-0.1,1.8,0c0.8,0.1,1.4,0.083,1.8-0.05C46.733,4.483,47.767,4,49,3.3l2.75-1.55
	c0.167-0.1,0.283-0.167,0.35-0.2h0.2l0.75-0.15c0.323-0.055,0.648-0.105,0.975-0.15L66.2,0.075C66.468,0.067,66.734,0.059,67,0.05z
	 M17.75,186.45l-8.225-1.125L8.35,185.15l-1.3-2.65c-0.054-0.118-0.104-0.235-0.15-0.35c-0.099-0.241-0.182-0.475-0.25-0.7
	L6.4,180.8c-0.967-3.033-1.65-7.35-2.05-12.95c-0.434-8-0.1-13.85,1-17.55l0.5-1.75c0.1,4.033,0.433,7.634,1,10.8
	c0.267,1.367,0.9,3.7,1.9,7c0.3,0.934,0.7,2.634,1.2,5.101c0.433,2.166,0.867,3.833,1.3,5c0,0.033,0.017,0.066,0.05,0.1
	c0.1,0.3,0.25,0.617,0.45,0.95c0.167,0.366,0.4,0.767,0.7,1.2c0.267,0.467,0.6,0.967,1,1.5c0.267,0.366,0.566,0.75,0.9,1.149
	c0.033,0.067,0.083,0.134,0.15,0.2C16.233,183.75,17.317,185.384,17.75,186.45z"/>
<path style="fill-rule:evenodd;clip-rule:evenodd;fill:#88837B;" d="M129.55,187.9h-0.05c-0.467,0.066-0.934,0.149-1.4,0.25
	l-9.149,1.199l0.3-0.55c0.533-0.833,1.733-1.783,3.6-2.85c2-1.101,3.301-2.017,3.9-2.75c0.7-0.834,1.566-2.267,2.6-4.3
	c0.967-1.934,1.584-4.084,1.851-6.45c0.1-1.101,0.149-3.3,0.149-6.601c0-2.199-0.116-7.116-0.35-14.75
	c-0.1-2.333-0.15-4.683-0.15-7.05c0.034-5.767,0.367-14.416,1-25.95c0.634-11.533,0.967-20.183,1-25.95
	c0.334-5.867,0.534-10.316,0.601-13.35c0.133-5.4-0.384-9.716-1.55-12.95c-0.4-1.167-1.167-2.483-2.301-3.95
	c-1.533-2.033-2.399-3.217-2.6-3.55c-0.533-0.867-0.917-1.7-1.15-2.5c-0.267-1-0.449-2.5-0.55-4.5c-0.133-2.3-0.267-3.833-0.399-4.6
	c-0.2-1-0.434-3-0.7-6c-0.233-2.6-0.55-4.567-0.95-5.9c-0.2-0.733-0.55-1.483-1.05-2.25c-0.767-1.2-1.2-1.917-1.3-2.15
	c-0.334-0.567-0.767-1.6-1.301-3.1c-0.566-1.434-1.017-2.434-1.35-3c-0.7-1.133-2.283-2.517-4.75-4.15
	c-2.667-1.767-4.384-3.133-5.15-4.1c-1.199-1.5-2.199-2.617-3-3.35c-1.1-0.967-2.383-1.783-3.85-2.45c-1.7-0.7-2.967-1.233-3.8-1.6
	c-1.434-0.6-2.601-1.184-3.5-1.75c-1.033-0.8-1.783-1.367-2.25-1.7c-0.733-0.533-1.684-1-2.851-1.4
	c-1.166-0.434-2.399-0.8-3.699-1.1l0.55,0.1c3.733,0.367,7.434,1.183,11.1,2.45c3.934,1.333,7.217,3,9.851,5
	c1.533,1.167,3.966,2.983,7.3,5.45c2.833,2.267,5.05,4.333,6.649,6.2c1.7,2,3.351,4.75,4.95,8.25c1.066,2.3,2.267,5.35,3.601,9.15
	c0.666,1.833,1.066,4.316,1.199,7.45c0.2,4.067,0.384,6.583,0.551,7.55l0.3,1.7c0.366,1.367,0.899,3.017,1.6,4.95
	c0.434,1.1,1.066,2.733,1.9,4.9c1,15.667,1.3,26.15,0.899,31.45c-0.399,5.567-0.733,13.384-1,23.45
	c-0.267,10.867-0.316,19.884-0.149,27.05c0.1,5,0.316,8.5,0.649,10.5c0.767,4.601,0.784,9.551,0.051,14.851
	C134.467,179.7,132.517,184.6,129.55,187.9z M71.5,19.5L71.4,8.6c0.166-0.4,0.333-0.783,0.5-1.15c0,0.333-0.017,0.683-0.051,1.05
	v0.1c0.7-2.1,1.184-3.417,1.45-3.95c0.566-1.1,1.351-1.867,2.351-2.3c-0.2,0.467-0.351,1.133-0.45,2c-0.066,0.6-0.167,1.6-0.3,3
	c-0.467,3.133-0.817,5.233-1.051,6.3C73.283,16.05,72.5,18,71.5,19.5z M71.775,0H71.9c0,2.733,0,4.183,0,4.35
	c-0.067,1.6-0.233,2.983-0.5,4.15l-0.15-8.15h-1.1c0.5-0.133,0.866-0.2,1.1-0.2C71.476,0.053,71.651,0.003,71.775,0z M38.55,5.525
	c0.067-0.026,0.133-0.051,0.2-0.075c2.033-0.833,4.133-1.567,6.3-2.2l7.05-1.7c-0.067,0.034-0.184,0.1-0.35,0.2L49,3.3
	c-1.233,0.7-2.267,1.184-3.1,1.45c-0.4,0.133-1,0.15-1.8,0.05c-0.833-0.1-1.434-0.1-1.8,0c-0.966,0.267-1.9,0.684-2.8,1.25
	c-0.5,0.333-1.35,0.9-2.55,1.7c-0.6,0.367-1.367,0.75-2.3,1.15c-0.967,0.434-2.433,1.017-4.4,1.75L37.7,5.9
	C37.973,5.764,38.256,5.639,38.55,5.525z M9.7,34.4c0.066-0.167,0.133-0.333,0.2-0.5l1.45-3.4c0.1-0.233,0.217-0.483,0.35-0.75
	c2.367-5,5.1-9.033,8.2-12.1c0.033-0.066,0.083-0.117,0.15-0.15c0.067-0.067,0.133-0.133,0.2-0.2c0.033-0.066,0.083-0.117,0.15-0.15
	c0.067-0.066,0.133-0.133,0.2-0.2c0.033-0.067,0.083-0.117,0.15-0.15c0.067-0.066,0.133-0.133,0.2-0.2l2.8-1.8
	c-2,1.8-3.65,3.75-4.95,5.85c-1.133,1.8-2.65,4.967-4.55,9.5c-2.633,6.434-4,9.783-4.1,10.05l-0.1,0.35
	c-0.033,0.067-0.066,0.167-0.1,0.3c-0.1,0.2-0.184,0.4-0.25,0.6l-2.35,8.5c-0.033,0.167-0.067,0.35-0.1,0.55
	c-0.733,4.1-1.167,9.033-1.3,14.8C5.917,66.333,5.9,71.367,5.9,80.4v3.95c-0.033,1.867-0.15,6.8-0.35,14.8
	c-0.133,6.033-0.2,10.949-0.2,14.75c0,3.1,0.45,7.116,1.35,12.05c0.667,3.666,1.05,5.95,1.15,6.85c0.4,2.834,0.383,5.566-0.05,8.2
	c-0.267,1.6-0.917,4.116-1.95,7.55l-0.5,1.75c-1.1,3.7-1.434,9.55-1,17.55c0.4,5.601,1.083,9.917,2.05,12.95l0.25,0.65
	c0.068,0.226,0.151,0.459,0.25,0.7l-3.7,2.25l-0.35-0.051l-0.3-0.1c-0.3-4.366-0.2-10.05,0.3-17.05V63.9
	c0.133-1.533,0.383-3.5,0.75-5.9C4.967,49.1,7,41.233,9.7,34.4z M72.35,82.7c0.4,21.899,0.601,43.233,0.601,64
	c0,21.467-0.2,33.85-0.601,37.149v0.25c-0.233,1.534-0.466,1.084-0.699-1.35L71.6,179.2c0-3.134,0.2-11.184,0.601-24.15l0.05,2.7
	v-4.3l-0.05-0.101l-1.55-2.8c0.1-1.6,0.083-3.467-0.051-5.6l-0.35,3.149c0.667-58.466,0.35-98.05-0.95-118.75l0.05-3l0.15-0.4
	c0.833-1.3,1.566,8.867,2.2,30.5v6.05c-0.033,1.467-0.033,3.717,0,6.75c0.033,2.933,0.017,5.017-0.05,6.25
	c-0.534,11.967-0.801,19.85-0.801,23.65v24.5c0,1.133-0.066,4.05-0.199,8.75c0,4.267,0.3,6.733,0.899,7.399l0.55-2.6
	c0.233-1.4,0.301-2.7,0.2-3.9L72.35,82.7z"/>
<path style="fill-rule:evenodd;clip-rule:evenodd;fill:#78736C;" d="M71.9,7.45c0.166-3.233,0.25-5.717,0.25-7.45
	c5.6,0.133,10.8,0.617,15.6,1.45l8.1,1.9c0.233,0.066,0.467,0.133,0.7,0.2c0.3,0.1,0.617,0.2,0.95,0.3l6.2,2.4
	c5.833,2.6,11.116,6.05,15.85,10.35c6.367,5.767,11.334,15.383,14.9,28.85l0.1,0.4c0.033,0.1,0.066,0.217,0.101,0.35
	c0.033,0.133,0.066,0.283,0.1,0.45c0.6,2.333,1.116,4.6,1.55,6.8c0.733,3.7,1.25,7.183,1.55,10.45v103.3c0,2.7,0,6.383,0,11.05
	c0,3.6-0.083,6.3-0.25,8.1l-6.399,1.25c-0.579,0.129-1.129,0.229-1.65,0.301c2.967-3.301,4.917-8.2,5.851-14.7
	c0.733-5.3,0.716-10.25-0.051-14.851c-0.333-2-0.55-5.5-0.649-10.5c-0.167-7.166-0.117-16.183,0.149-27.05
	c0.267-10.066,0.601-17.883,1-23.45c0.4-5.3,0.101-15.783-0.899-31.45c-0.834-2.167-1.467-3.8-1.9-4.9
	c-0.7-1.933-1.233-3.583-1.6-4.95l-0.3-1.7c-0.167-0.967-0.351-3.483-0.551-7.55c-0.133-3.133-0.533-5.617-1.199-7.45
	c-1.334-3.8-2.534-6.85-3.601-9.15c-1.6-3.5-3.25-6.25-4.95-8.25c-1.6-1.867-3.816-3.934-6.649-6.2
	c-3.334-2.467-5.767-4.283-7.3-5.45c-2.634-2-5.917-3.667-9.851-5c-3.666-1.267-7.366-2.083-11.1-2.45l-2.4-0.55
	c-0.233-0.033-1.1-0.316-2.6-0.85c-1.3-0.467-2.084-0.684-2.351-0.65c0.334,0.034,1.084,0.25,2.25,0.65
	c1.467,0.5,2.351,0.783,2.65,0.85l1.9,0.45c-0.834-0.1-2.2-0.333-4.101-0.7c-1.666-0.267-3-0.333-4-0.2
	C76.9,1.883,76.467,1.967,76,2.1c-0.033,0.033-0.05,0.066-0.05,0.1c-0.101,0.033-0.2,0.083-0.3,0.15c-1,0.433-1.784,1.2-2.351,2.3
	c-0.267,0.533-0.75,1.85-1.45,3.95V8.5C71.884,8.133,71.9,7.783,71.9,7.45z M72.35,61.5v21.2l-0.05,50.6
	c0.101,1.2,0.033,2.5-0.2,3.9l-0.55,2.6c-0.6-0.666-0.899-3.133-0.899-7.399c0.133-4.7,0.199-7.617,0.199-8.75v-24.5
	c0-3.8,0.267-11.684,0.801-23.65c0.066-1.233,0.083-3.317,0.05-6.25c-0.033-3.033-0.033-5.283,0-6.75l0.149,2.85v-5.1
	c0.101-1.6,0.267-2.9,0.5-3.9V61.5z M70.15,158.8l0.449-13.85c0.134,2.133,0.15,4,0.051,5.6l1.55,2.8v1.7
	c-0.4,12.967-0.601,21.017-0.601,24.15l0.051,3.55c0,2.134-0.2,3.833-0.601,5.1c-0.333-2.699-0.55-5.833-0.649-9.399
	c-0.034-1.434-0.051-4.667-0.051-9.7C70.35,166.783,70.283,163.467,70.15,158.8z"/>
<path style="fill-rule:evenodd;clip-rule:evenodd;fill:#A6A292;" d="M71.7,52.75v3.7c-0.634-21.633-1.367-31.8-2.2-30.5l-0.15,0.4
	l-0.05,3l-0.45-5.95l0.051-8.05l0.6,10.6L69.05,6.9V3.05l-0.2-2.7H69.9h0.25h1.1L71.4,8.5L71.35,8.7L71.4,8.6l0.1,10.9L71.55,30
	L71.7,52.75z M69.85,190.95L70,173.1l0.15-14.3c0.133,4.667,0.199,7.983,0.199,9.95c0,5.033,0.017,8.267,0.051,9.7
	c0.1,3.566,0.316,6.7,0.649,9.399c0.4-1.267,0.601-2.966,0.601-5.1c0.233,2.434,0.466,2.884,0.699,1.35v6.75L71.45,191
	C70.918,190.985,70.385,190.969,69.85,190.95z"/>
<path style="fill-rule:evenodd;clip-rule:evenodd;fill:#CAC5B8;" d="M97.1,76.65c0-1.467-0.066-3.467-0.199-6
	c-0.101-1.833-0.483-5.117-1.15-9.85c-0.566-4.1-0.866-7.417-0.9-9.95l-8,4.5c-1.5,1.333-2.616,3.767-3.35,7.3
	c-0.667,3.067-0.85,5.8-0.55,8.2L84.35,70c0.867,2.167,1.434,5.217,1.7,9.15c0.334,5,0.601,8.017,0.8,9.05
	c0.233,1.167,0.667,3.966,1.301,8.399c0.733,4.034,1.699,6.567,2.899,7.601c4.101-5.467,6.117-14.5,6.05-27.1l0.801-0.6
	c0.233,2.333,0.149,5.8-0.25,10.4c-0.367,4.633-0.45,8.083-0.25,10.35c0.1-0.1,0.466-0.316,1.1-0.65c0.634-0.3,1.05-0.566,1.25-0.8
	c0.634,1.9,0.634,4.367,0,7.4c-0.366,1.733-1.033,4.3-2,7.7c0.9,11.133,1.366,17.466,1.4,19c0.133,7.6-0.767,13.733-2.7,18.399
	c-0.533-0.866-0.884-1.967-1.05-3.3c-0.034,2.6-0.301,5.45-0.801,8.55c-0.3,1.934-0.833,4.783-1.6,8.55
	c-0.4,2-1.083,5.483-2.05,10.45c-1,4.4-2.184,7.8-3.55,10.2c-2.2-2.366-3.4-6.634-3.601-12.8c0-0.233,0.184-4.95,0.55-14.15
	c-0.133,2-0.733,3.767-1.8,5.3c-2.434-2.8-4.05-7.216-4.85-13.25c-0.267-2.066-0.55-6.783-0.851-14.149
	c-0.133-3.066-0.133-7.75,0-14.05c0.167-6.2,0.167-10.884,0-14.051c-0.433-6.199-0.683-11-0.75-14.399
	c-0.133-5.967,0.267-10.767,1.2-14.4c0.834-3.1,1.634-7.3,2.4-12.6c0.899-6.1,1.616-10.383,2.149-12.85l6.5-16
	c0.5,0.633,1.101,2.017,1.801,4.15c0.633,1.933,1.333,3.217,2.1,3.85c0.267-0.467,0.7-0.85,1.3-1.15c0.7-0.367,1.134-0.65,1.3-0.85
	c1.334,2.167,2.317,5.267,2.95,9.3c0.967,6.067,1.5,9.3,1.601,9.7c0.133-0.067,0.533-0.133,1.199-0.2
	c0.667-0.1,1.117-0.217,1.351-0.35c1.133,1.767,1.066,4.434-0.2,8C100.783,70.467,99.233,73.417,97.1,76.65z M68.85,23.4l0.45,5.95
	c1.3,20.7,1.617,60.283,0.95,118.75l-0.05,1.4c-0.101,1.967-0.117,5.066-0.05,9.3L70,173.1l-0.15,4.75
	c-1.333-16.333-2.5-28.666-3.5-37c-0.667-5.566-1-19.966-1-43.199c0-21.2,0.167-34.467,0.5-39.8c0.1-1.767,0.083-9.483-0.05-23.15
	c-0.133-11.7,0.05-17.983,0.55-18.85C67.383,14.083,68.217,16.6,68.85,23.4z M23.2,79.05l1.1-0.25
	c0.733,9.467,2.417,19.15,5.05,29.05c1.1-1.199,1.983-2.933,2.65-5.199c0.5-1.634,0.8-3.184,0.9-4.65
	c0.033,1.233,0.317,2.5,0.85,3.8c0.667-1.934,1.067-4.267,1.2-7c0-0.633-0.017-3.033-0.05-7.2c0.133-0.2,1.033-1.317,2.7-3.35
	c1.133-1.367,1.733-2.65,1.8-3.85c0.067,0.567,0.184,1,0.35,1.3c0.1,0.2,0.267,0.517,0.5,0.95c0.667-1.233,1.067-3.017,1.2-5.35
	c0-0.6-0.017-2.267-0.05-5c0.167-0.267,0.317-0.517,0.45-0.75V71.5c-0.1-0.033-0.184-0.05-0.25-0.05l0.05-0.35l0.1-0.25
	c0-0.067,0.017-0.133,0.05-0.2c0.367-0.833,0.75-1.8,1.15-2.9c-0.434,5.567-0.434,11.5,0,17.8c2.367-4.3,3.75-10.25,4.15-17.85
	c0.333-6.534-0.067-12.85-1.2-18.95c-0.933,0.333-1.9,0.933-2.9,1.8c-0.433,0.367-1.267,1.167-2.5,2.4
	c-0.667-3.6-1.65-6.483-2.95-8.65c-1.8,0.6-3.417,1.9-4.85,3.9c-0.034-0.3-0.2-0.5-0.5-0.6l-1.4,2.3h-0.05l-4.9,16.45V65.5
	c-0.233,0.867-0.667,2.217-1.3,4.05c-0.566,1.667-0.966,2.983-1.2,3.95c0.133-3.833,0.45-6.967,0.95-9.4l-0.5,1.65
	c0.367-4.9,2.184-10.517,5.45-16.85c1.1-2.133,2.767-4.117,5-5.95c2.733-2.3,4.233-1.85,4.5,1.35c0.433-1.5,0.783-2.617,1.05-3.35
	c0.434-1.267,1.067-2.2,1.9-2.8c0.133,0.667,0.233,1.75,0.3,3.25c0.133,1.333,0.417,2.317,0.85,2.95l5.5-15.5
	c-0.033,1.967-0.3,4.933-0.8,8.9c0.467-1.333,1.4-2.333,2.8-3c0.333,1.333,0.483,2.667,0.45,4c0.6-2.7,1.967-5.033,4.1-7
	c0.6,1.767,0.917,3.967,0.95,6.6c0.033,2.367-0.15,4.8-0.55,7.3c0.1,4.367,0,10.25-0.3,17.65c-0.4,9.034-0.617,14.95-0.65,17.75
	c0.033-0.5,0.15-1.133,0.35-1.9c0.3-1.033,0.466-1.65,0.5-1.85c3.4,8.1,5.183,17.5,5.35,28.2c0.1,8.066-0.767,17.7-2.6,28.9
	c-1.034-5.233-0.9-10.351,0.4-15.351c-0.533,1.2-0.9,2.5-1.1,3.9c-0.1,0.6-0.217,1.934-0.35,4c-0.233,3.8-0.967,10.267-2.2,19.399
	c-1.133,8.267-1.767,14.75-1.9,19.45c-0.466-1.399-2.183-5.416-5.15-12.05c-2.233-4.9-3.5-9.017-3.8-12.35
	c-0.467-5.367-0.35-13.267,0.35-23.7c0.733-10.8,0.917-18.75,0.55-23.85c-0.567,2.867-0.9,4.5-1,4.9
	c-0.567,1.866-1.383,3.267-2.45,4.2c-0.333-0.7-0.5-1.65-0.5-2.851c-0.267,5.2-0.783,9.634-1.55,13.301
	c-1.067,5.267-2.35,6.783-3.85,4.55c-1.566,2.866-2.633,6.75-3.2,11.649c-0.333,2.733-0.733,6.75-1.2,12.051
	c-2.033-3.634-3.283-8.617-3.75-14.95c-0.067-0.867-0.183-6.117-0.35-15.75l-3.05,4.2c0.066-2.467,0.05-4.334-0.05-5.601
	c-0.2-2.233-0.667-3.983-1.4-5.25l-1.05,0.3c-0.934-1.899-1.167-4.566-0.7-8c0.1-0.766,0.633-3.366,1.6-7.8
	C22.75,86.233,23.067,82.983,23.2,79.05z M54,95.35c-1.933-5.133-3.15-8.633-3.65-10.5l1,21c-1.067,1.934-1.483,5.233-1.25,9.9
	c0.133,2.566,0.383,6.083,0.75,10.55c0.033,1.233-0.017,3.634-0.15,7.2c0.066,3.2,0.633,5.434,1.7,6.7c1.2-0.967,2.1-3.3,2.7-7
	c0.467-3.967,0.783-6.467,0.95-7.5c0.7-3.934,1.15-7.217,1.35-9.851c0.3-3.733,0.217-7.033-0.25-9.899
	C56.717,103.25,55.667,99.717,54,95.35z M91.35,116.85l-1,6.5c-0.133,1.7-0.5,4.733-1.1,9.101c-0.333,3.899-0.1,6.833,0.7,8.8
	c0.366,0.2,0.783,0.217,1.25,0.05c0.833-2.833,1.116-6.85,0.85-12.05C91.583,123.483,91.35,119.35,91.35,116.85z"/>
<path style="fill-rule:evenodd;clip-rule:evenodd;fill:#D2CCBF;" d="M97.1,76.65v0.45c0.067,12.6-1.949,21.633-6.05,27.1
	c-1.2-1.033-2.166-3.566-2.899-7.601c-0.634-4.433-1.067-7.233-1.301-8.399c-0.199-1.034-0.466-4.05-0.8-9.05
	c-0.267-3.933-0.833-6.983-1.7-9.15l-1.399,0.85c-0.3-2.4-0.117-5.133,0.55-8.2c0.733-3.533,1.85-5.967,3.35-7.3l8-4.5
	c0.034,2.533,0.334,5.85,0.9,9.95c0.667,4.733,1.05,8.017,1.15,9.85C97.033,73.183,97.1,75.183,97.1,76.65z M92.85,72.6
	c-0.966-8.467-1.466-13.717-1.5-15.75l-2-0.5c-1.233,3.5-1.866,6.566-1.899,9.2c-0.033,1.367,0.25,4.267,0.85,8.7
	c0.033,0.333,0.017,2.433-0.05,6.3c-0.066,2.6,0.3,4.567,1.1,5.9C92.083,84.983,93.25,80.367,92.85,72.6z M23.2,79.05l-0.25,0.05
	c-0.233-1.867-0.1-3.733,0.4-5.6c0.233-0.967,0.633-2.283,1.2-3.95c0.633-1.833,1.067-3.183,1.3-4.05v0.85l4.9-16.45h0.05l1.4-2.3
	c0.3,0.1,0.466,0.3,0.5,0.6c1.433-2,3.05-3.3,4.85-3.9c1.3,2.167,2.284,5.05,2.95,8.65c1.233-1.233,2.067-2.034,2.5-2.4
	c1-0.867,1.967-1.466,2.9-1.8c1.133,6.1,1.533,12.417,1.2,18.95c-0.4,7.6-1.783,13.55-4.15,17.85c-0.434-6.3-0.434-12.233,0-17.8
	c-0.4,1.1-0.784,2.067-1.15,2.9c0.067-0.433,0.133-0.867,0.2-1.3l0.15-1.4c0.133-2.233-0.017-4.75-0.45-7.55
	c-0.267,0.3-0.717,0.75-1.35,1.35c0.033-1.533-0.133-3.7-0.5-6.5c-0.333-2.9-0.5-5.033-0.5-6.4l-5,6.5c-2.3,0.167-3.9,2.566-4.8,7.2
	c-0.667,3.4-0.85,6.517-0.55,9.35l0.4-0.8c0,0.867-0.033,2.183-0.1,3.95c0,1.5,0.217,2.75,0.65,3.75
	c0.767-0.533,1.283-1.017,1.55-1.45c0.6,2.033,0.833,4.85,0.7,8.45c-0.233,4.8-0.317,7.65-0.25,8.55c0.8-0.667,1.367-1.7,1.7-3.1
	c0.467-1.833,0.817-2.967,1.05-3.4l0.2-0.25c0.033,4.167,0.05,6.566,0.05,7.2c-0.133,2.733-0.534,5.066-1.2,7
	c-0.533-1.3-0.817-2.566-0.85-3.8c-0.1,1.467-0.4,3.017-0.9,4.65c-0.667,2.267-1.55,4-2.65,5.199
	c-2.633-9.899-4.317-19.583-5.05-29.05L23.2,79.05z M54,95.35c1.667,4.367,2.717,7.9,3.15,10.6c0.467,2.866,0.55,6.166,0.25,9.899
	c-0.2,2.634-0.65,5.917-1.35,9.851c-0.167,1.033-0.483,3.533-0.95,7.5c-0.6,3.7-1.5,6.033-2.7,7c-1.066-1.267-1.633-3.5-1.7-6.7
	c0.133-3.566,0.183-5.967,0.15-7.2c-0.367-4.467-0.617-7.983-0.75-10.55c-0.233-4.667,0.183-7.967,1.25-9.9l-1-21
	C50.85,86.717,52.067,90.217,54,95.35z M91.35,116.85c0,2.5,0.233,6.634,0.7,12.4c0.267,5.2-0.017,9.217-0.85,12.05
	c-0.467,0.167-0.884,0.15-1.25-0.05c-0.8-1.967-1.033-4.9-0.7-8.8c0.6-4.367,0.967-7.4,1.1-9.101L91.35,116.85z"/>
<path style="fill-rule:evenodd;clip-rule:evenodd;fill:#D7D1C3;" d="M92.85,72.6c0.4,7.767-0.767,12.383-3.5,13.85
	c-0.8-1.333-1.166-3.3-1.1-5.9c0.066-3.867,0.083-5.966,0.05-6.3c-0.6-4.433-0.883-7.333-0.85-8.7c0.033-2.633,0.666-5.7,1.899-9.2
	l2,0.5C91.384,58.883,91.884,64.133,92.85,72.6z M41.65,71.1l-0.05,0.1c-0.1-0.267-0.2-0.3-0.3-0.1c-0.033,0.1,0.05,0.2,0.25,0.3
	l0.05,0.05c0.066,0,0.15,0.017,0.25,0.05v0.05c-0.133,0.233-0.283,0.483-0.45,0.75c0.033,2.733,0.05,4.4,0.05,5
	c-0.133,2.333-0.534,4.117-1.2,5.35c-0.233-0.433-0.4-0.75-0.5-0.95c-0.167-0.3-0.283-0.733-0.35-1.3
	c-0.066,1.2-0.667,2.483-1.8,3.85c-1.667,2.033-2.567,3.15-2.7,3.35l-0.2,0.25c-0.233,0.433-0.583,1.566-1.05,3.4
	c-0.333,1.4-0.9,2.433-1.7,3.1c-0.067-0.9,0.017-3.75,0.25-8.55c0.133-3.6-0.1-6.417-0.7-8.45c-0.267,0.433-0.783,0.917-1.55,1.45
	c-0.434-1-0.65-2.25-0.65-3.75c0.067-1.767,0.1-3.083,0.1-3.95L29,71.9c-0.3-2.833-0.117-5.95,0.55-9.35
	c0.9-4.633,2.5-7.033,4.8-7.2l5-6.5c0,1.367,0.167,3.5,0.5,6.4c0.367,2.8,0.533,4.967,0.5,6.5c0.633-0.6,1.083-1.05,1.35-1.35
	c0.433,2.8,0.583,5.317,0.45,7.55L42,69.35c-0.067,0.433-0.133,0.867-0.2,1.3c-0.033,0.067-0.05,0.133-0.05,0.2L41.65,71.1z
	 M37.9,69.45c-0.066,0.733-0.133,1.633-0.2,2.7c-0.034,1.6,0.167,2.833,0.6,3.7c0.067-0.067,0.133-0.117,0.2-0.15
	c-0.4-0.9-0.617-2.083-0.65-3.55C37.817,72.017,37.833,71.117,37.9,69.45z"/>
</svg>
