<?xml version="1.0" encoding="iso-8859-1"?>
<!-- Generator: Adobe Illustrator 15.1.0, SVG Export Plug-In . SVG Version: 6.00 Build 0)  -->
<!DOCTYPE svg PUBLIC "-//W3C//DTD SVG 1.1//EN" "http://www.w3.org/Graphics/SVG/1.1/DTD/svg11.dtd">
<svg version="1.1" id="FlashAICB" xmlns="http://www.w3.org/2000/svg" xmlns:xlink="http://www.w3.org/1999/xlink" x="0px" y="0px"
	 width="553.15px" height="116.55px" viewBox="0 0 553.15 116.55" style="enable-background:new 0 0 553.15 116.55;"
	 xml:space="preserve">
<path style="fill-rule:evenodd;clip-rule:evenodd;fill:#5F8717;" d="M535.3,37.7c5,2.066,9.083,5.417,12.25,10.05
	c2.967,4.3,4.75,9.117,5.351,14.45c0.633,5.333,0,10.267-1.9,14.8c-2.033,4.833-5.217,8.483-9.55,10.95
	c-8.667,4.934-24.567,10.033-47.7,15.3c-22.367,5.066-37.767,7.316-46.2,6.75c-4.833-0.3-18.899,0.783-42.2,3.25
	c-23.767,2.533-40.3,3.6-49.6,3.2c-10.434-0.434-19.1-2.733-26-6.9c-6.967-5.267-13.134-9.066-18.5-11.399
	c-7.667-3.334-22.267-4.584-43.8-3.75c-20.667,0.767-34.934,2.733-42.8,5.899c-10.8,4.4-26.883,4.05-48.25-1.05
	c-8.033-2.5-14.933-4.167-20.7-5c-10.333-1.434-21.733-0.667-34.2,2.3c-13.167,3.134-25.717,3.65-37.65,1.55
	c-8.967-1.6-16.767-4.449-23.4-8.55c-1.733-1.066-6.083-2.95-13.05-5.649c-8.333-3.167-14.667-5.784-19-7.851
	C11.733,68.083,2.333,59.033,0.2,48.9C-1.033,42.933,3.233,36.95,13,30.95c7.367-4.534,16.467-8.383,27.3-11.55
	c5.533-1.6,15.9-4.95,31.1-10.05c14.867-4.533,28.167-7.467,39.9-8.8c11.3-1.3,21.917-0.333,31.85,2.9
	c2.533,0.8,5.883,2.017,10.05,3.65c3.433,1.267,6.183,1.95,8.25,2.05c7.267,0.4,20.683,6.15,40.25,17.25
	c4.066,2.333,11.366,4.5,21.9,6.5c4.6,0.867,12.6,2.117,24,3.75c7.3,1.033,16.15,1.367,26.55,1c9.867-0.367,18.367-1.25,25.5-2.65
	c3.966-0.767,12.366-3.15,25.199-7.15c11.7-3.633,19.851-5.733,24.45-6.3c5.9-0.733,13.517-2.383,22.851-4.95
	c8.199-2.267,14.783-4.383,19.75-6.35c8.566-3.4,19.199-5.1,31.899-5.1c10.167,0,19.717,0.983,28.65,2.95
	c6.7,1.467,19.733,5.733,39.1,12.8C508.316,27,522.9,32.6,535.3,37.7z"/>
<path style="fill-rule:evenodd;clip-rule:evenodd;fill:#507C0D;" d="M35.2,32c0,0.567-0.684,1.067-2.05,1.5
	c-1.4,0.4-3.083,0.6-5.05,0.6c-1.934,0-3.6-0.2-5-0.6c-1.367-0.433-2.05-0.933-2.05-1.5s0.684-1.05,2.05-1.45
	c1.4-0.4,3.066-0.6,5-0.6c1.966,0,3.65,0.2,5.05,0.6C34.517,30.95,35.2,31.433,35.2,32z"/>
<path style="fill-rule:evenodd;clip-rule:evenodd;fill:#507C0D;" d="M70.7,24.45c0,0.566-0.7,1.05-2.1,1.45
	c-1.367,0.4-3.034,0.6-5,0.6c-1.967,0-3.633-0.2-5-0.6c-1.4-0.4-2.1-0.883-2.1-1.45c0-0.567,0.7-1.067,2.1-1.5
	c1.4-0.4,3.066-0.6,5-0.6c1.933,0,3.6,0.2,5,0.6C70,23.383,70.7,23.883,70.7,24.45z"/>
<path style="fill-rule:evenodd;clip-rule:evenodd;fill:#507C0D;" d="M82.4,13.2c0,0.566-0.683,1.066-2.05,1.5
	c-1.4,0.4-3.067,0.6-5,0.6c-1.934,0-3.6-0.2-5-0.6c-1.4-0.434-2.1-0.934-2.1-1.5c0-0.567,0.7-1.05,2.1-1.45
	c1.367-0.4,3.033-0.6,5-0.6c1.966,0,3.633,0.2,5,0.6S82.4,12.633,82.4,13.2z"/>
<path style="fill-rule:evenodd;clip-rule:evenodd;fill:#507C0D;" d="M110.15,32.45c0,0.566-0.683,1.05-2.05,1.45s-3.034,0.6-5,0.6
	c-1.967,0-3.65-0.2-5.05-0.6C96.683,33.5,96,33.017,96,32.45c0-0.567,0.683-1.067,2.05-1.5c1.4-0.4,3.083-0.6,5.05-0.6
	c1.933,0,3.6,0.2,5,0.6C109.467,31.383,110.15,31.883,110.15,32.45z"/>
<path style="fill-rule:evenodd;clip-rule:evenodd;fill:#507C0D;" d="M154.5,28c0,0.567-0.684,1.05-2.05,1.45
	c-1.367,0.4-3.034,0.6-5,0.6c-1.967,0-3.634-0.2-5-0.6c-1.4-0.4-2.1-0.883-2.1-1.45s0.7-1.067,2.1-1.5c1.4-0.4,3.066-0.6,5-0.6
	c1.933,0,3.6,0.2,5,0.6C153.816,26.933,154.5,27.433,154.5,28z"/>
<path style="fill-rule:evenodd;clip-rule:evenodd;fill:#507C0D;" d="M133.15,11.75c1.933,0,3.6,0.2,5,0.6
	c1.367,0.433,2.05,0.933,2.05,1.5c0,0.566-0.684,1.05-2.05,1.45c-1.4,0.4-3.067,0.6-5,0.6s-3.6-0.2-5-0.6
	c-1.4-0.4-2.1-0.883-2.1-1.45c0-0.567,0.7-1.067,2.1-1.5C129.55,11.95,131.217,11.75,133.15,11.75z"/>
<path style="fill-rule:evenodd;clip-rule:evenodd;fill:#507C0D;" d="M191.9,21.4c0,0.567-0.683,1.067-2.05,1.5
	c-1.4,0.4-3.083,0.6-5.05,0.6c-1.933,0-3.6-0.2-5-0.6c-1.367-0.433-2.05-0.933-2.05-1.5c0-0.566,0.683-1.05,2.05-1.45
	c1.367-0.4,3.033-0.6,5-0.6s3.65,0.2,5.05,0.6C191.217,20.35,191.9,20.833,191.9,21.4z"/>
<path style="fill-rule:evenodd;clip-rule:evenodd;fill:#507C0D;" d="M109.25,5.8c0,0.567-0.7,1.067-2.1,1.5
	c-1.4,0.4-3.067,0.6-5,0.6s-3.6-0.2-5-0.6c-1.367-0.433-2.05-0.933-2.05-1.5c0-0.566,0.683-1.05,2.05-1.45c1.4-0.4,3.067-0.6,5-0.6
	s3.6,0.2,5,0.6S109.25,5.233,109.25,5.8z"/>
<path style="fill-rule:evenodd;clip-rule:evenodd;fill:#507C0D;" d="M46.25,48.05c1.367,0.4,2.05,0.883,2.05,1.45
	s-0.683,1.067-2.05,1.5c-1.4,0.4-3.067,0.6-5,0.6c-1.967,0-3.65-0.2-5.05-0.6c-1.367-0.433-2.05-0.933-2.05-1.5
	s0.683-1.05,2.05-1.45c1.4-0.4,3.083-0.6,5.05-0.6S44.883,47.65,46.25,48.05z"/>
<path style="fill-rule:evenodd;clip-rule:evenodd;fill:#507C0D;" d="M18.8,51.1c0,0.566-0.683,1.066-2.05,1.5
	c-1.4,0.4-3.083,0.6-5.05,0.6c-1.934,0-3.6-0.2-5-0.6c-1.367-0.434-2.05-0.934-2.05-1.5c0-0.567,0.683-1.05,2.05-1.45
	c1.366-0.4,3.033-0.6,5-0.6c1.966,0,3.65,0.2,5.05,0.6C18.117,50.05,18.8,50.533,18.8,51.1z"/>
<path style="fill-rule:evenodd;clip-rule:evenodd;fill:#507C0D;" d="M83,41.1c0,0.566-0.684,1.05-2.05,1.45
	c-1.367,0.4-3.034,0.6-5,0.6c-1.967,0-3.634-0.2-5-0.6c-1.4-0.4-2.1-0.883-2.1-1.45c0-0.567,0.7-1.067,2.1-1.5
	c1.4-0.4,3.066-0.6,5-0.6c1.933,0,3.6,0.2,5,0.6C82.316,40.033,83,40.533,83,41.1z"/>
<path style="fill-rule:evenodd;clip-rule:evenodd;fill:#507C0D;" d="M61.75,70.5c0,0.566-0.684,1.066-2.05,1.5
	c-1.4,0.4-3.067,0.6-5,0.6c-1.934,0-3.6-0.199-5-0.6c-1.4-0.434-2.1-0.934-2.1-1.5s0.7-1.05,2.1-1.45c1.4-0.399,3.066-0.6,5-0.6
	c1.933,0,3.6,0.2,5,0.6C61.066,69.45,61.75,69.934,61.75,70.5z"/>
<path style="fill-rule:evenodd;clip-rule:evenodd;fill:#507C0D;" d="M85.9,79.15c0,0.566-0.683,1.066-2.05,1.5
	c-1.4,0.399-3.083,0.6-5.05,0.6c-1.933,0-3.6-0.2-5-0.6c-1.367-0.434-2.05-0.934-2.05-1.5c0-0.567,0.683-1.051,2.05-1.45
	c1.367-0.4,3.033-0.601,5-0.601s3.65,0.2,5.05,0.601C85.217,78.1,85.9,78.583,85.9,79.15z"/>
<path style="fill-rule:evenodd;clip-rule:evenodd;fill:#507C0D;" d="M194.1,42.05c0,0.567-0.684,1.05-2.05,1.45s-3.033,0.6-5,0.6
	s-3.65-0.2-5.05-0.6c-1.367-0.4-2.05-0.883-2.05-1.45c0-0.566,0.683-1.066,2.05-1.5c1.4-0.4,3.083-0.6,5.05-0.6
	c1.934,0,3.6,0.2,5,0.6C193.417,40.983,194.1,41.483,194.1,42.05z"/>
<path style="fill-rule:evenodd;clip-rule:evenodd;fill:#507C0D;" d="M248.2,39.05c1.4-0.4,3.083-0.6,5.05-0.6s3.633,0.2,5,0.6
	c1.367,0.4,2.05,0.883,2.05,1.45s-0.683,1.067-2.05,1.5c-1.4,0.4-3.067,0.6-5,0.6c-1.967,0-3.65-0.2-5.05-0.6
	c-1.367-0.433-2.05-0.933-2.05-1.5S246.833,39.45,248.2,39.05z"/>
<path style="fill-rule:evenodd;clip-rule:evenodd;fill:#507C0D;" d="M227.8,45.1c0,0.566-0.683,1.066-2.05,1.5
	c-1.4,0.4-3.083,0.6-5.05,0.6c-1.934,0-3.6-0.2-5-0.6c-1.367-0.434-2.05-0.934-2.05-1.5c0-0.567,0.683-1.05,2.05-1.45
	c1.366-0.4,3.033-0.6,5-0.6c1.966,0,3.65,0.2,5.05,0.6C227.117,44.05,227.8,44.533,227.8,45.1z"/>
<path style="fill-rule:evenodd;clip-rule:evenodd;fill:#507C0D;" d="M207.45,69.2c0,0.566-0.7,1.066-2.1,1.5
	c-1.4,0.399-3.067,0.6-5,0.6c-1.934,0-3.6-0.2-5-0.6c-1.4-0.434-2.1-0.934-2.1-1.5s0.7-1.05,2.1-1.45c1.367-0.4,3.033-0.6,5-0.6
	c1.966,0,3.633,0.199,5,0.6C206.75,68.15,207.45,68.634,207.45,69.2z"/>
<path style="fill-rule:evenodd;clip-rule:evenodd;fill:#507C0D;" d="M143.7,75.1c0,0.567-0.684,1.051-2.05,1.45
	c-1.367,0.4-3.033,0.601-5,0.601s-3.65-0.2-5.05-0.601c-1.367-0.399-2.05-0.883-2.05-1.45c0-0.566,0.684-1.066,2.05-1.5
	c1.4-0.399,3.083-0.6,5.05-0.6c1.933,0,3.6,0.2,5,0.6C143.017,74.033,143.7,74.533,143.7,75.1z"/>
<path style="fill-rule:evenodd;clip-rule:evenodd;fill:#507C0D;" d="M160.05,53c0,0.567-0.683,1.067-2.05,1.5
	c-1.4,0.4-3.067,0.6-5,0.6c-1.934,0-3.6-0.2-5-0.6c-1.4-0.433-2.1-0.933-2.1-1.5s0.7-1.05,2.1-1.45c1.367-0.4,3.033-0.6,5-0.6
	s3.633,0.2,5,0.6C159.367,51.95,160.05,52.433,160.05,53z"/>
<path style="fill-rule:evenodd;clip-rule:evenodd;fill:#507C0D;" d="M181.4,67.9c0,0.566-0.683,1.05-2.05,1.449
	c-1.4,0.4-3.067,0.601-5,0.601c-1.934,0-3.6-0.2-5-0.601c-1.4-0.399-2.1-0.883-2.1-1.449c0-0.567,0.7-1.067,2.1-1.5
	c1.4-0.4,3.066-0.601,5-0.601c1.933,0,3.6,0.2,5,0.601C180.717,66.833,181.4,67.333,181.4,67.9z"/>
<path style="fill-rule:evenodd;clip-rule:evenodd;fill:#507C0D;" d="M287.95,44c1.933,0,3.6,0.2,5,0.6
	c1.366,0.433,2.05,0.933,2.05,1.5c0,0.566-0.684,1.05-2.05,1.45c-1.367,0.4-3.033,0.6-5,0.6s-3.634-0.2-5-0.6
	c-1.4-0.4-2.101-0.883-2.101-1.45c0-0.567,0.7-1.067,2.101-1.5C284.35,44.2,286.017,44,287.95,44z"/>
<path style="fill-rule:evenodd;clip-rule:evenodd;fill:#507C0D;" d="M248.1,60.55c0,0.566-0.7,1.066-2.1,1.5
	c-1.4,0.4-3.067,0.601-5,0.601c-1.934,0-3.6-0.2-5-0.601c-1.367-0.434-2.05-0.934-2.05-1.5s0.683-1.05,2.05-1.45
	c1.4-0.399,3.066-0.6,5-0.6c1.933,0,3.6,0.2,5,0.6C247.4,59.5,248.1,59.983,248.1,60.55z"/>
<path style="fill-rule:evenodd;clip-rule:evenodd;fill:#507C0D;" d="M174.7,86.2c0,0.566-0.684,1.066-2.05,1.5
	c-1.4,0.399-3.067,0.6-5,0.6s-3.6-0.2-5-0.6c-1.4-0.434-2.1-0.934-2.1-1.5s0.7-1.05,2.1-1.45c1.367-0.4,3.033-0.6,5-0.6
	s3.633,0.199,5,0.6S174.7,85.634,174.7,86.2z"/>
<path style="fill-rule:evenodd;clip-rule:evenodd;fill:#507C0D;" d="M115.45,66.1c0,0.567-0.7,1.051-2.1,1.45
	c-1.367,0.4-3.034,0.601-5,0.601c-1.967,0-3.633-0.2-5-0.601c-1.367-0.399-2.05-0.883-2.05-1.45c0-0.566,0.684-1.066,2.05-1.5
	c1.4-0.399,3.066-0.6,5-0.6c1.933,0,3.6,0.2,5,0.6C114.75,65.033,115.45,65.533,115.45,66.1z"/>
<path style="fill-rule:evenodd;clip-rule:evenodd;fill:#507C0D;" d="M286.75,66.5c0,0.566-0.684,1.066-2.05,1.5
	c-1.4,0.4-3.067,0.6-5,0.6c-1.934,0-3.601-0.199-5-0.6c-1.4-0.434-2.1-0.934-2.1-1.5s0.7-1.05,2.1-1.45c1.399-0.399,3.066-0.6,5-0.6
	c1.933,0,3.6,0.2,5,0.6C286.066,65.45,286.75,65.934,286.75,66.5z"/>
<path style="fill-rule:evenodd;clip-rule:evenodd;fill:#507C0D;" d="M301.9,82.15c0,0.566-0.684,1.066-2.051,1.5
	c-1.399,0.399-3.083,0.6-5.05,0.6c-1.934,0-3.6-0.2-5-0.6c-1.366-0.434-2.05-0.934-2.05-1.5c0-0.567,0.684-1.051,2.05-1.45
	c1.367-0.4,3.033-0.601,5-0.601s3.65,0.2,5.05,0.601C301.217,81.1,301.9,81.583,301.9,82.15z"/>
<path style="fill-rule:evenodd;clip-rule:evenodd;fill:#507C0D;" d="M135.1,88.3c0,0.566-0.684,1.066-2.05,1.5
	c-1.4,0.4-3.083,0.601-5.05,0.601c-1.934,0-3.6-0.2-5-0.601c-1.367-0.434-2.05-0.934-2.05-1.5s0.683-1.05,2.05-1.45
	c1.367-0.399,3.033-0.6,5-0.6s3.65,0.2,5.05,0.6C134.417,87.25,135.1,87.733,135.1,88.3z"/>
<path style="fill-rule:evenodd;clip-rule:evenodd;fill:#507C0D;" d="M223.45,86.5c0,0.566-0.7,1.066-2.1,1.5
	c-1.4,0.4-3.067,0.6-5,0.6c-1.934,0-3.6-0.199-5-0.6c-1.4-0.434-2.1-0.934-2.1-1.5s0.7-1.05,2.1-1.45c1.367-0.399,3.033-0.6,5-0.6
	c1.966,0,3.633,0.2,5,0.6C222.75,85.45,223.45,85.934,223.45,86.5z"/>
<path style="fill-rule:evenodd;clip-rule:evenodd;fill:#507C0D;" d="M249.75,89.95c1.4,0.399,2.1,0.883,2.1,1.45
	c0,0.566-0.7,1.05-2.1,1.449c-1.367,0.4-3.033,0.601-5,0.601s-3.633-0.2-5-0.601c-1.4-0.399-2.1-0.883-2.1-1.449
	c0-0.567,0.7-1.051,2.1-1.45c1.367-0.4,3.033-0.601,5-0.601S248.383,89.55,249.75,89.95z"/>
<path style="fill-rule:evenodd;clip-rule:evenodd;fill:#507C0D;" d="M267.7,79.55c0,0.566-0.7,1.05-2.1,1.45
	c-1.367,0.4-3.034,0.6-5,0.6c-1.967,0-3.633-0.199-5-0.6c-1.4-0.4-2.1-0.884-2.1-1.45s0.7-1.066,2.1-1.5c1.4-0.399,3.066-0.6,5-0.6
	c1.933,0,3.6,0.2,5,0.6C267,78.483,267.7,78.983,267.7,79.55z"/>
<path style="fill-rule:evenodd;clip-rule:evenodd;fill:#507C0D;" d="M213.5,99.6c0,0.567-0.684,1.067-2.05,1.5
	c-1.4,0.4-3.083,0.601-5.05,0.601c-1.933,0-3.6-0.2-5-0.601c-1.367-0.433-2.05-0.933-2.05-1.5c0-0.566,0.683-1.05,2.05-1.449
	c1.367-0.4,3.033-0.601,5-0.601s3.65,0.2,5.05,0.601C212.816,98.55,213.5,99.033,213.5,99.6z"/>
<path style="fill-rule:evenodd;clip-rule:evenodd;fill:#507C0D;" d="M103.8,92.9c0,0.566-0.683,1.066-2.05,1.5
	c-1.4,0.399-3.083,0.6-5.05,0.6c-1.934,0-3.6-0.2-5-0.6c-1.367-0.434-2.05-0.934-2.05-1.5c0-0.567,0.683-1.051,2.05-1.45
	c1.366-0.4,3.033-0.601,5-0.601c1.966,0,3.65,0.2,5.05,0.601C103.117,91.85,103.8,92.333,103.8,92.9z"/>
<path style="fill-rule:evenodd;clip-rule:evenodd;fill:#507C0D;" d="M105.25,51.3c0,0.567-0.684,1.067-2.05,1.5
	c-1.4,0.4-3.067,0.6-5,0.6c-1.967,0-3.65-0.2-5.05-0.6c-1.367-0.433-2.05-0.933-2.05-1.5c0-0.566,0.683-1.05,2.05-1.45
	c1.4-0.4,3.083-0.6,5.05-0.6c1.966,0,3.633,0.2,5,0.6C104.566,50.25,105.25,50.733,105.25,51.3z"/>
<path style="fill-rule:evenodd;clip-rule:evenodd;fill:#507C0D;" d="M143.7,45.6c0,0.566-0.684,1.066-2.05,1.5
	c-1.4,0.4-3.067,0.6-5,0.6c-1.967,0-3.65-0.2-5.05-0.6c-1.367-0.434-2.05-0.934-2.05-1.5c0-0.567,0.684-1.05,2.05-1.45
	c1.4-0.4,3.083-0.6,5.05-0.6s3.633,0.2,5,0.6S143.7,45.033,143.7,45.6z"/>
<path style="fill-rule:evenodd;clip-rule:evenodd;fill:#507C0D;" d="M385.85,34.85c0,0.566-0.699,1.066-2.1,1.5
	c-1.4,0.4-3.066,0.6-5,0.6s-3.6-0.2-5-0.6c-1.367-0.434-2.05-0.934-2.05-1.5c0-0.567,0.683-1.05,2.05-1.45
	c1.366-0.4,3.033-0.6,5-0.6s3.633,0.2,5,0.6C385.15,33.8,385.85,34.283,385.85,34.85z"/>
<path style="fill-rule:evenodd;clip-rule:evenodd;fill:#507C0D;" d="M355.9,26.4c0,0.567-0.684,1.067-2.051,1.5
	c-1.399,0.4-3.083,0.6-5.05,0.6c-1.934,0-3.6-0.2-5-0.6c-1.366-0.433-2.05-0.933-2.05-1.5c0-0.566,0.684-1.05,2.05-1.45
	c1.367-0.4,3.033-0.6,5-0.6s3.65,0.2,5.05,0.6C355.217,25.35,355.9,25.833,355.9,26.4z"/>
<path style="fill-rule:evenodd;clip-rule:evenodd;fill:#507C0D;" d="M426.2,33c0,0.567-0.684,1.067-2.05,1.5
	c-1.4,0.4-3.084,0.6-5.051,0.6c-1.933,0-3.6-0.2-5-0.6c-1.366-0.433-2.05-0.933-2.05-1.5s0.684-1.05,2.05-1.45
	c1.4-0.4,3.067-0.6,5-0.6c1.967,0,3.65,0.2,5.051,0.6C425.517,31.95,426.2,32.433,426.2,33z"/>
<path style="fill-rule:evenodd;clip-rule:evenodd;fill:#507C0D;" d="M449.6,26.9c-1.399-0.4-2.1-0.883-2.1-1.45
	c0-0.567,0.7-1.067,2.1-1.5c1.4-0.4,3.067-0.6,5-0.6c1.934,0,3.601,0.2,5,0.6c1.4,0.433,2.101,0.933,2.101,1.5
	c0,0.566-0.7,1.05-2.101,1.45c-1.366,0.4-3.033,0.6-5,0.6S450.967,27.3,449.6,26.9z"/>
<path style="fill-rule:evenodd;clip-rule:evenodd;fill:#507C0D;" d="M411.6,18.65c0,0.567-0.683,1.067-2.05,1.5
	c-1.399,0.4-3.083,0.6-5.05,0.6c-1.934,0-3.6-0.2-5-0.6c-1.367-0.433-2.05-0.933-2.05-1.5c0-0.566,0.683-1.05,2.05-1.45
	c1.366-0.4,3.033-0.6,5-0.6s3.65,0.2,5.05,0.6C410.917,17.6,411.6,18.083,411.6,18.65z"/>
<path style="fill-rule:evenodd;clip-rule:evenodd;fill:#507C0D;" d="M464.4,13.2c0,0.566-0.684,1.066-2.051,1.5
	c-1.399,0.4-3.066,0.6-5,0.6c-1.933,0-3.6-0.2-5-0.6c-1.399-0.434-2.1-0.934-2.1-1.5c0-0.567,0.7-1.05,2.1-1.45
	c1.367-0.4,3.033-0.6,5-0.6s3.634,0.2,5,0.6C463.717,12.15,464.4,12.633,464.4,13.2z"/>
<path style="fill-rule:evenodd;clip-rule:evenodd;fill:#507C0D;" d="M501.15,33.45c0,0.566-0.684,1.05-2.051,1.45
	c-1.366,0.4-3.033,0.6-5,0.6s-3.649-0.2-5.05-0.6c-1.366-0.4-2.05-0.883-2.05-1.45c0-0.567,0.684-1.067,2.05-1.5
	c1.4-0.4,3.083-0.6,5.05-0.6c1.934,0,3.601,0.2,5,0.6C500.467,32.383,501.15,32.883,501.15,33.45z"/>
<path style="fill-rule:evenodd;clip-rule:evenodd;fill:#507C0D;" d="M359.1,49.05c0,0.567-0.683,1.05-2.05,1.45
	c-1.366,0.4-3.033,0.6-5,0.6s-3.649-0.2-5.05-0.6c-1.367-0.4-2.05-0.883-2.05-1.45c0-0.566,0.683-1.066,2.05-1.5
	c1.4-0.4,3.083-0.6,5.05-0.6c1.934,0,3.601,0.2,5,0.6C358.417,47.983,359.1,48.483,359.1,49.05z"/>
<path style="fill-rule:evenodd;clip-rule:evenodd;fill:#507C0D;" d="M439.3,50.5c0,0.567-0.684,1.067-2.05,1.5
	c-1.4,0.4-3.066,0.6-5,0.6c-1.967,0-3.65-0.2-5.05-0.6c-1.367-0.433-2.05-0.933-2.05-1.5s0.683-1.05,2.05-1.45
	c1.399-0.4,3.083-0.6,5.05-0.6s3.633,0.2,5,0.6C438.616,49.45,439.3,49.933,439.3,50.5z"/>
<path style="fill-rule:evenodd;clip-rule:evenodd;fill:#507C0D;" d="M403.8,57.1c0,0.566-0.684,1.066-2.05,1.5
	c-1.4,0.4-3.083,0.6-5.05,0.6c-1.934,0-3.601-0.2-5-0.6c-1.367-0.434-2.05-0.934-2.05-1.5c0-0.567,0.683-1.05,2.05-1.45
	c1.366-0.4,3.033-0.6,5-0.6s3.649,0.2,5.05,0.6C403.116,56.05,403.8,56.533,403.8,57.1z"/>
<path style="fill-rule:evenodd;clip-rule:evenodd;fill:#507C0D;" d="M380.45,71.2c0,0.566-0.7,1.066-2.101,1.5
	c-1.399,0.399-3.066,0.6-5,0.6c-1.933,0-3.6-0.2-5-0.6c-1.399-0.434-2.1-0.934-2.1-1.5s0.7-1.05,2.1-1.45c1.367-0.4,3.033-0.6,5-0.6
	s3.634,0.199,5,0.6C379.75,70.15,380.45,70.634,380.45,71.2z"/>
<path style="fill-rule:evenodd;clip-rule:evenodd;fill:#507C0D;" d="M324.05,58c0,0.567-0.684,1.066-2.05,1.5
	c-1.4,0.4-3.066,0.6-5,0.6s-3.6-0.199-5-0.6c-1.4-0.434-2.1-0.933-2.1-1.5s0.699-1.05,2.1-1.45c1.366-0.4,3.033-0.6,5-0.6
	s3.633,0.2,5,0.6C323.366,56.95,324.05,57.433,324.05,58z"/>
<path style="fill-rule:evenodd;clip-rule:evenodd;fill:#507C0D;" d="M346.4,71.9c0,0.566-0.684,1.05-2.051,1.449
	c-1.399,0.4-3.066,0.601-5,0.601c-1.933,0-3.6-0.2-5-0.601c-1.399-0.399-2.1-0.883-2.1-1.449c0-0.567,0.7-1.067,2.1-1.5
	c1.4-0.4,3.067-0.601,5-0.601c1.934,0,3.601,0.2,5,0.601C345.717,70.833,346.4,71.333,346.4,71.9z"/>
<path style="fill-rule:evenodd;clip-rule:evenodd;fill:#507C0D;" d="M474,42.1c0,0.566-0.684,1.05-2.05,1.45
	c-1.367,0.4-3.033,0.6-5,0.6s-3.634-0.2-5-0.6c-1.4-0.4-2.101-0.883-2.101-1.45c0-0.567,0.7-1.067,2.101-1.5
	c1.399-0.4,3.066-0.6,5-0.6c1.933,0,3.6,0.2,5,0.6C473.316,41.033,474,41.533,474,42.1z"/>
<path style="fill-rule:evenodd;clip-rule:evenodd;fill:#507C0D;" d="M414.1,74.55c0,0.566-0.699,1.066-2.1,1.5
	c-1.4,0.4-3.066,0.601-5,0.601s-3.6-0.2-5-0.601c-1.367-0.434-2.05-0.934-2.05-1.5s0.683-1.05,2.05-1.45c1.4-0.399,3.066-0.6,5-0.6
	s3.6,0.2,5,0.6C413.4,73.5,414.1,73.983,414.1,74.55z"/>
<path style="fill-rule:evenodd;clip-rule:evenodd;fill:#507C0D;" d="M328.65,91.75c1.366-0.4,3.033-0.6,5-0.6
	c1.966,0,3.633,0.199,5,0.6c1.366,0.4,2.05,0.884,2.05,1.45s-0.684,1.066-2.05,1.5c-1.4,0.399-3.067,0.6-5,0.6
	c-1.934,0-3.601-0.2-5-0.6c-1.4-0.434-2.101-0.934-2.101-1.5S327.25,92.15,328.65,91.75z"/>
<path style="fill-rule:evenodd;clip-rule:evenodd;fill:#507C0D;" d="M450.7,70.05c1.366,0.4,2.05,0.884,2.05,1.45
	s-0.684,1.066-2.05,1.5c-1.4,0.4-3.067,0.6-5,0.6c-1.934,0-3.601-0.199-5-0.6c-1.4-0.434-2.101-0.934-2.101-1.5s0.7-1.05,2.101-1.45
	c1.399-0.399,3.066-0.6,5-0.6C447.633,69.45,449.3,69.65,450.7,70.05z"/>
<path style="fill-rule:evenodd;clip-rule:evenodd;fill:#507C0D;" d="M476.9,80.15c0,0.566-0.684,1.066-2.051,1.5
	c-1.399,0.399-3.083,0.6-5.05,0.6c-1.934,0-3.6-0.2-5-0.6c-1.366-0.434-2.05-0.934-2.05-1.5c0-0.567,0.684-1.051,2.05-1.45
	c1.367-0.4,3.033-0.601,5-0.601s3.65,0.2,5.05,0.601C476.217,79.1,476.9,79.583,476.9,80.15z"/>
<path style="fill-rule:evenodd;clip-rule:evenodd;fill:#507C0D;" d="M370.45,89.5c0,0.566-0.7,1.066-2.101,1.5
	c-1.399,0.4-3.066,0.6-5,0.6c-1.933,0-3.6-0.199-5-0.6c-1.399-0.434-2.1-0.934-2.1-1.5s0.7-1.05,2.1-1.45
	c1.367-0.399,3.033-0.6,5-0.6s3.634,0.2,5,0.6C369.75,88.45,370.45,88.934,370.45,89.5z"/>
<path style="fill-rule:evenodd;clip-rule:evenodd;fill:#507C0D;" d="M402.85,95.4c0,0.566-0.699,1.05-2.1,1.449
	c-1.367,0.4-3.033,0.601-5,0.601s-3.634-0.2-5-0.601c-1.4-0.399-2.1-0.883-2.1-1.449c0-0.567,0.699-1.051,2.1-1.45
	c1.366-0.4,3.033-0.601,5-0.601s3.633,0.2,5,0.601C402.15,94.35,402.85,94.833,402.85,95.4z"/>
<path style="fill-rule:evenodd;clip-rule:evenodd;fill:#507C0D;" d="M440.7,88.55c0,0.566-0.7,1.05-2.101,1.45
	c-1.366,0.4-3.033,0.6-5,0.6s-3.633-0.199-5-0.6c-1.399-0.4-2.1-0.884-2.1-1.45s0.7-1.066,2.1-1.5c1.4-0.399,3.067-0.6,5-0.6
	c1.934,0,3.601,0.2,5,0.6C440,87.483,440.7,87.983,440.7,88.55z"/>
<path style="fill-rule:evenodd;clip-rule:evenodd;fill:#507C0D;" d="M461.2,102.85c0,0.567-0.7,1.067-2.101,1.5
	c-1.399,0.4-3.066,0.601-5,0.601c-1.933,0-3.6-0.2-5-0.601c-1.366-0.433-2.05-0.933-2.05-1.5c0-0.566,0.684-1.05,2.05-1.449
	c1.367-0.4,3.033-0.601,5-0.601s3.634,0.2,5,0.601C460.5,101.8,461.2,102.283,461.2,102.85z"/>
<path style="fill-rule:evenodd;clip-rule:evenodd;fill:#507C0D;" d="M369.45,106.15c1.366,0.399,2.05,0.883,2.05,1.449
	c0,0.567-0.684,1.067-2.05,1.5c-1.4,0.4-3.084,0.601-5.05,0.601c-1.934,0-3.601-0.2-5-0.601c-1.367-0.433-2.051-0.933-2.051-1.5
	c0-0.566,0.684-1.05,2.051-1.449c1.366-0.4,3.033-0.601,5-0.601C366.366,105.55,368.05,105.75,369.45,106.15z"/>
<path style="fill-rule:evenodd;clip-rule:evenodd;fill:#507C0D;" d="M423,106.2c0,0.566-0.684,1.05-2.05,1.45
	c-1.4,0.399-3.084,0.6-5.05,0.6c-1.967,0-3.634-0.2-5-0.6c-1.367-0.4-2.051-0.884-2.051-1.45s0.684-1.05,2.051-1.45
	c1.366-0.4,3.033-0.6,5-0.6c1.966,0,3.649,0.199,5.05,0.6C422.316,105.15,423,105.634,423,106.2z"/>
<path style="fill-rule:evenodd;clip-rule:evenodd;fill:#507C0D;" d="M532.65,74.6c1.366,0.434,2.05,0.934,2.05,1.5
	c0,0.567-0.684,1.051-2.05,1.45c-1.367,0.4-3.034,0.601-5,0.601c-1.967,0-3.65-0.2-5.051-0.601c-1.366-0.399-2.05-0.883-2.05-1.45
	c0-0.566,0.684-1.066,2.05-1.5c1.4-0.399,3.084-0.6,5.051-0.6C529.583,74,531.25,74.2,532.65,74.6z"/>
<path style="fill-rule:evenodd;clip-rule:evenodd;fill:#507C0D;" d="M551.05,54c0,0.567-0.684,1.067-2.05,1.5
	c-1.4,0.4-3.066,0.6-5,0.6s-3.6-0.2-5-0.6c-1.4-0.433-2.1-0.933-2.1-1.5s0.699-1.05,2.1-1.45c1.366-0.4,3.033-0.6,5-0.6
	s3.633,0.2,5,0.6C550.366,52.95,551.05,53.433,551.05,54z"/>
<path style="fill-rule:evenodd;clip-rule:evenodd;fill:#507C0D;" d="M506.45,67.1c0,0.567-0.7,1.051-2.101,1.45
	c-1.366,0.4-3.033,0.601-5,0.601s-3.633-0.2-5-0.601c-1.366-0.399-2.05-0.883-2.05-1.45c0-0.566,0.684-1.066,2.05-1.5
	c1.4-0.399,3.067-0.6,5-0.6c1.934,0,3.601,0.2,5,0.6C505.75,66.033,506.45,66.533,506.45,67.1z"/>
<path style="fill-rule:evenodd;clip-rule:evenodd;fill:#507C0D;" d="M524.1,88.3c0,0.566-0.683,1.066-2.05,1.5
	c-1.399,0.4-3.083,0.601-5.05,0.601c-1.934,0-3.6-0.2-5-0.601c-1.367-0.434-2.05-0.934-2.05-1.5s0.683-1.05,2.05-1.45
	c1.366-0.399,3.033-0.6,5-0.6s3.65,0.2,5.05,0.6C523.417,87.25,524.1,87.733,524.1,88.3z"/>
<path style="fill-rule:evenodd;clip-rule:evenodd;fill:#507C0D;" d="M492.75,92.45c1.366,0.399,2.05,0.883,2.05,1.45
	c0,0.566-0.684,1.066-2.05,1.5c-1.4,0.399-3.083,0.6-5.05,0.6c-1.934,0-3.601-0.2-5-0.6c-1.367-0.434-2.05-0.934-2.05-1.5
	c0-0.567,0.683-1.051,2.05-1.45c1.366-0.4,3.033-0.601,5-0.601S491.35,92.05,492.75,92.45z"/>
<path style="fill-rule:evenodd;clip-rule:evenodd;fill:#507C0D;" d="M496.25,52.3c0,0.567-0.684,1.067-2.05,1.5
	c-1.4,0.4-3.067,0.6-5,0.6c-1.967,0-3.65-0.2-5.05-0.6c-1.367-0.433-2.051-0.933-2.051-1.5c0-0.566,0.684-1.05,2.051-1.45
	c1.399-0.4,3.083-0.6,5.05-0.6s3.633,0.2,5,0.6C495.566,51.25,496.25,51.733,496.25,52.3z"/>
<path style="fill-rule:evenodd;clip-rule:evenodd;fill:#507C0D;" d="M532.65,45.15c1.366,0.4,2.05,0.883,2.05,1.45
	c0,0.566-0.684,1.066-2.05,1.5c-1.4,0.4-3.067,0.6-5,0.6c-1.967,0-3.65-0.2-5.051-0.6c-1.366-0.434-2.05-0.934-2.05-1.5
	c0-0.567,0.684-1.05,2.05-1.45c1.4-0.4,3.084-0.6,5.051-0.6C529.616,44.55,531.283,44.75,532.65,45.15z"/>
<path style="fill-rule:evenodd;clip-rule:evenodd;fill:#507C0D;" d="M326.5,36c0,0.567-0.684,1.05-2.05,1.45
	c-1.367,0.4-3.033,0.6-5,0.6s-3.634-0.2-5-0.6c-1.4-0.4-2.101-0.883-2.101-1.45s0.7-1.067,2.101-1.5c1.399-0.4,3.066-0.6,5-0.6
	c1.933,0,3.6,0.2,5,0.6C325.816,34.933,326.5,35.433,326.5,36z"/>
</svg>
