<?xml version="1.0" encoding="iso-8859-1"?>
<!-- Generator: Adobe Illustrator 15.1.0, SVG Export Plug-In . SVG Version: 6.00 Build 0)  -->
<!DOCTYPE svg PUBLIC "-//W3C//DTD SVG 1.1//EN" "http://www.w3.org/Graphics/SVG/1.1/DTD/svg11.dtd">
<svg version="1.1" id="FlashAICB" xmlns="http://www.w3.org/2000/svg" xmlns:xlink="http://www.w3.org/1999/xlink" x="0px" y="0px"
	 width="339.35px" height="41.8px" viewBox="0 0 339.35 41.8" style="enable-background:new 0 0 339.35 41.8;" xml:space="preserve"
	>
<symbol  id="FlashAICB_x2F_Layer_71_copy_x2F__x3C_Path_x3E_" viewBox="0 -9.25 27.8 9.25">
	<g id="Layer_1_8_">
		
			<radialGradient id="SVGID_1_" cx="13.8999" cy="-4.6001" r="13.925" gradientTransform="matrix(1 0 0 0.3321 0 -3.0723)" gradientUnits="userSpaceOnUse">
			<stop  offset="0" style="stop-color:#000000;stop-opacity:0.4196"/>
			<stop  offset="1" style="stop-color:#000000;stop-opacity:0"/>
		</radialGradient>
		<path style="fill-rule:evenodd;clip-rule:evenodd;fill:url(#SVGID_1_);" d="M27.8-4.6c0-1.3-1.35-2.4-4.05-3.3
			s-5.983-1.35-9.85-1.35S6.75-8.8,4.05-7.9C1.35-7,0-5.9,0-4.6c0,1.267,1.35,2.35,4.05,3.25C6.783-0.45,10.067,0,13.9,0
			c3.867,0,7.15-0.45,9.85-1.35S27.8-3.333,27.8-4.6z"/>
	</g>
</symbol>
<symbol  id="FlashAICB_x2F_Layer_71_copy_x2F__x3C_Path_x3E__x5F_1" viewBox="0 -6.9 25.05 6.9">
	<g id="Layer_1_7_">
		
			<radialGradient id="SVGID_2_" cx="12.5249" cy="-3.4502" r="12.5269" gradientTransform="matrix(1 0 0 0.2729 0 -2.5088)" gradientUnits="userSpaceOnUse">
			<stop  offset="0" style="stop-color:#000000;stop-opacity:0.4196"/>
			<stop  offset="1" style="stop-color:#000000;stop-opacity:0"/>
		</radialGradient>
		<path style="fill-rule:evenodd;clip-rule:evenodd;fill:url(#SVGID_2_);" d="M25.05-3.45c0-0.966-1.216-1.783-3.65-2.45
			c-2.467-0.667-5.433-1-8.9-1c-3.433,0-6.383,0.333-8.85,1C1.217-5.233,0-4.417,0-3.45C0-2.517,1.217-1.7,3.65-1
			c2.467,0.667,5.417,1,8.85,1c3.467,0,6.433-0.333,8.9-1C23.833-1.667,25.05-2.483,25.05-3.45z"/>
	</g>
</symbol>
<symbol  id="FlashAICB_x2F_Layer_71_copy_x2F__x3C_Path_x3E__x5F_2" viewBox="0 -6.55 19.6 6.55">
	<g id="Layer_1_6_">
		
			<radialGradient id="SVGID_3_" cx="9.7998" cy="-3.2998" r="9.7873" gradientTransform="matrix(1 0 0 0.3333 0 -2.2002)" gradientUnits="userSpaceOnUse">
			<stop  offset="0" style="stop-color:#000000;stop-opacity:0.4196"/>
			<stop  offset="1" style="stop-color:#000000;stop-opacity:0"/>
		</radialGradient>
		<path style="fill-rule:evenodd;clip-rule:evenodd;fill:url(#SVGID_3_);" d="M19.6-3.3c0-0.9-0.95-1.667-2.85-2.3
			C14.817-6.233,12.5-6.55,9.8-6.55c-2.7,0-5,0.316-6.9,0.95C0.967-4.967,0-4.2,0-3.3C0-2.4,0.967-1.633,2.9-1
			c1.9,0.667,4.2,1,6.9,1c2.7,0,5.017-0.333,6.95-1C18.65-1.633,19.6-2.4,19.6-3.3z"/>
	</g>
</symbol>
<symbol  id="FlashAICB_x2F_Layer_71_copy_x2F__x3C_Path_x3E__x5F_3" viewBox="0 -10.3 31.95 10.3">
	<g id="Layer_1_5_">
		
			<radialGradient id="SVGID_4_" cx="15.9751" cy="-5.1499" r="15.9726" gradientTransform="matrix(1 0 0 0.3229 0 -3.4873)" gradientUnits="userSpaceOnUse">
			<stop  offset="0" style="stop-color:#000000;stop-opacity:0.4196"/>
			<stop  offset="1" style="stop-color:#000000;stop-opacity:0"/>
		</radialGradient>
		<path style="fill-rule:evenodd;clip-rule:evenodd;fill:url(#SVGID_4_);" d="M31.95-5.15c0-1.434-1.55-2.65-4.65-3.65
			c-3.133-1-6.9-1.5-11.3-1.5c-4.433,0-8.2,0.5-11.3,1.5C1.567-7.8,0-6.583,0-5.15C0-3.717,1.567-2.5,4.7-1.5C7.8-0.5,11.567,0,16,0
			c4.4,0,8.167-0.5,11.3-1.5C30.4-2.5,31.95-3.717,31.95-5.15z"/>
	</g>
</symbol>
<symbol  id="FlashAICB_x2F_Layer_71_copy_x2F__x3C_Path_x3E__x5F_4" viewBox="0 -5.85 15.8 5.85">
	<g id="Layer_1_4_">
		
			<radialGradient id="SVGID_5_" cx="7.8999" cy="-2.8999" r="7.875" gradientTransform="matrix(1 0 0 0.3714 0 -1.8228)" gradientUnits="userSpaceOnUse">
			<stop  offset="0" style="stop-color:#000000;stop-opacity:0.4196"/>
			<stop  offset="1" style="stop-color:#000000;stop-opacity:0"/>
		</radialGradient>
		<path style="fill-rule:evenodd;clip-rule:evenodd;fill:url(#SVGID_5_);" d="M15.8-2.9c0-0.833-0.767-1.533-2.3-2.1
			s-3.4-0.85-5.6-0.85C5.733-5.85,3.867-5.567,2.3-5C0.767-4.433,0-3.733,0-2.9c0,0.8,0.767,1.483,2.3,2.05
			C3.867-0.283,5.733,0,7.9,0c2.167,0,4.033-0.283,5.6-0.85C15.033-1.417,15.8-2.1,15.8-2.9z"/>
	</g>
</symbol>
<symbol  id="FlashAICB_x2F_Layer_71_copy_x2F__x3C_Path_x3E__x5F_5" viewBox="0.009 -11.801 33.273 11.803">
	<g id="Layer_1_3_">
		
			<radialGradient id="SVGID_6_" cx="16.646" cy="-5.8999" r="17.1422" gradientTransform="matrix(0.9688 0.2477 -0.0608 0.2377 0.1602 -8.6206)" gradientUnits="userSpaceOnUse">
			<stop  offset="0" style="stop-color:#000000;stop-opacity:0.4196"/>
			<stop  offset="1" style="stop-color:#000000;stop-opacity:0"/>
		</radialGradient>
		<path style="fill-rule:evenodd;clip-rule:evenodd;fill:url(#SVGID_6_);" d="M33.25-1.65c0.267-1.133-1.117-2.517-4.15-4.15
			S22.267-8.833,17.7-10c-4.6-1.167-8.617-1.767-12.05-1.8c-3.467-0.034-5.333,0.517-5.6,1.65C-0.25-9.017,1.117-7.633,4.15-6
			c3.067,1.633,6.883,3.033,11.45,4.2c4.566,1.167,8.583,1.767,12.05,1.8C31.083,0.033,32.95-0.517,33.25-1.65z"/>
	</g>
</symbol>
<symbol  id="FlashAICB_x2F_Layer_71_copy_x2F__x3C_Path_x3E__x5F_6" viewBox="0 -11.7 49.45 11.7">
	<g id="Layer_1_2_">
		
			<radialGradient id="SVGID_7_" cx="24.7251" cy="-5.8501" r="24.7861" gradientTransform="matrix(1 0 0 0.2352 0 -4.4741)" gradientUnits="userSpaceOnUse">
			<stop  offset="0" style="stop-color:#000000;stop-opacity:0.4196"/>
			<stop  offset="1" style="stop-color:#000000;stop-opacity:0"/>
		</radialGradient>
		<path style="fill-rule:evenodd;clip-rule:evenodd;fill:url(#SVGID_7_);" d="M49.45-5.85c0-1.633-2.417-3.017-7.25-4.15
			c-4.8-1.133-10.617-1.7-17.45-1.7S12.083-11.133,7.25-10S0-7.483,0-5.85c0,1.6,2.417,2.967,7.25,4.1C12.117-0.583,17.95,0,24.75,0
			S37.367-0.583,42.2-1.75C47.033-2.883,49.45-4.25,49.45-5.85z"/>
	</g>
</symbol>
<g>
	
		<use xlink:href="#FlashAICB_x2F_Layer_71_copy_x2F__x3C_Path_x3E__x5F_6"  width="49.45" height="11.7" y="-11.7" transform="matrix(1 0 0 -1 289.9004 19.7998)" style="overflow:visible;opacity:0.6797;enable-background:new    ;"/>
	
		<use xlink:href="#FlashAICB_x2F_Layer_71_copy_x2F__x3C_Path_x3E__x5F_5"  width="33.273" height="11.803" x="0.009" y="-11.801" transform="matrix(1 0 0 -1 256.0996 8.9502)" style="overflow:visible;opacity:0.6797;enable-background:new    ;"/>
	
		<use xlink:href="#FlashAICB_x2F_Layer_71_copy_x2F__x3C_Path_x3E__x5F_4"  width="15.8" height="5.85" y="-5.85" transform="matrix(1 0 0 -1 270.7002 28.4004)" style="overflow:visible;opacity:0.6797;enable-background:new    ;"/>
	
		<use xlink:href="#FlashAICB_x2F_Layer_71_copy_x2F__x3C_Path_x3E__x5F_3"  width="31.95" height="10.3" y="-10.3" transform="matrix(1 0 0 -1 184.1504 15)" style="overflow:visible;opacity:0.6797;enable-background:new    ;"/>
	
		<use xlink:href="#FlashAICB_x2F_Layer_71_copy_x2F__x3C_Path_x3E__x5F_2"  width="19.6" height="6.55" y="-6.55" transform="matrix(1 0 0 -1 168 35.25)" style="overflow:visible;opacity:0.6797;enable-background:new    ;"/>
	
		<use xlink:href="#FlashAICB_x2F_Layer_71_copy_x2F__x3C_Path_x3E__x5F_1"  width="25.05" height="6.9" y="-6.9" transform="matrix(1 0 0 -1 71.5498 19.4502)" style="overflow:visible;opacity:0.6797;enable-background:new    ;"/>
	
		<use xlink:href="#FlashAICB_x2F_Layer_71_copy_x2F__x3C_Path_x3E_"  width="27.8" height="9.25" y="-9.25" transform="matrix(1 0 0 -1 3.2002 32.2002)" style="overflow:visible;opacity:0.6797;enable-background:new    ;"/>
</g>
<g>
	<path style="fill-rule:evenodd;clip-rule:evenodd;fill:#618D1E;" d="M212.35,18.65c-0.633,1.633-2.666,2.984-6.1,4.05
		c-3.233,1.033-6.083,1.383-8.55,1.05c-3.733-0.5-7.283-1.667-10.65-3.5c-3.333-1.8-4.2-2.967-2.6-3.5l2.399-1.6
		c2.134-1.066,4.617-1.6,7.45-1.6c0.101,0,2.9,0.1,8.4,0.3c2.533,0.1,4.45-0.067,5.75-0.5c2.166-0.7,3.467-1.467,3.899-2.3l0.5,2.55
		C213.083,15.566,212.917,17.25,212.35,18.65z"/>
	<path style="fill-rule:evenodd;clip-rule:evenodd;fill:#618D1E;" d="M255.7,18l-2.45-0.6l1.5-0.45
		c1.467-0.367,2.95-1.284,4.45-2.75c0.566-0.534,1.366-1.35,2.399-2.45l1.351-1.55l5.8-2.15l-1.9,0.2L264.65,9.1
		c0.1-0.567,1.116-1.617,3.05-3.15c1.633-1.333,3.399-2.45,5.3-3.35c2.233-1.034,4.217-1.55,5.95-1.55c1.233,0,1.967,0.35,2.2,1.05
		l1.35,0.45c1.3,0.367,2.05,1.7,2.25,4c0.066,1.1-0.2,2.134-0.8,3.1c-0.467,0.8-1.233,1.684-2.3,2.65
		c-1.233,1.134-2.867,1.917-4.9,2.35l-1.7-4.9l0.15,3.2c0.1,1.133,0.1,1.833,0,2.1l-0.7,0.65c-0.366,0.366-1.733,0.816-4.1,1.35
		c-2.634,0.6-5.284,1-7.95,1.2C260.05,18.417,257.8,18.333,255.7,18z"/>
	<path style="fill-rule:evenodd;clip-rule:evenodd;fill:#618D1E;" d="M299.55,28.2c-1.366-0.066-3.1-0.3-5.2-0.7l-2.8-0.55l1.55-1.3
		c1.067-0.867,2.367-1.717,3.9-2.551c2.1-1.1,4.083-1.8,5.95-2.1c2.833-0.434,5.217,0,7.149,1.3c0.967,0.667,1.65,1.367,2.051,2.101
		c-1.367,1.833-2.784,3.1-4.25,3.8c-0.9,0.467-2.167,0.633-3.801,0.5C302.167,28.467,300.65,28.3,299.55,28.2z"/>
	<path style="fill-rule:evenodd;clip-rule:evenodd;fill:#618D1E;" d="M317.9,18.15c6.399,0.167,10.649,0.317,12.75,0.45
		c1.6,0.1,3.216-0.15,4.85-0.75c0.833-0.267,1.5-0.567,2-0.9c-0.566,1.566-1.733,3.25-3.5,5.05c-1.7,1.733-3.483,3.1-5.35,4.1
		c-3,1.667-4.567,2.534-4.7,2.601c-1.667,0.633-3.601,0.75-5.8,0.35c-2.634-0.533-4.483-1.1-5.551-1.7
		c-1.166-0.699-2.017-1.783-2.55-3.25c-0.5-1.466,0.184-2.85,2.05-4.149C313.866,18.717,315.8,18.117,317.9,18.15z"/>
	<path style="fill-rule:evenodd;clip-rule:evenodd;fill:#618D1E;" d="M283.35,30.15L283.2,31.35c-0.334,0.801-1.066,1.25-2.2,1.351
		c-1.134,0.1-2.25-0.083-3.35-0.55l-1.25-0.75c0.566-0.267,0.566-0.684,0-1.25c-0.367-0.367-0.834-0.4-1.4-0.101l-0.8,0.5
		L270.6,27.6l2.25-0.05c1.733-0.033,3.134-0.1,4.2-0.2C279.15,27.184,281.25,28.117,283.35,30.15z"/>
	<path style="fill-rule:evenodd;clip-rule:evenodd;fill:#618D1E;" d="M182.2,36.1c1.6,0.567,3.3,0.851,5.1,0.851l-1.55,1.55
		c-1.667,1.033-3.983,1.634-6.95,1.8c-2.967,0.2-5.566-0.416-7.8-1.85l-2.4-2.15c-1.267-1.133,0.35-1.583,4.85-1.35
		C177.65,35.117,180.566,35.5,182.2,36.1z"/>
	<path style="fill-rule:evenodd;clip-rule:evenodd;fill:#618D1E;" d="M82.8,18.7c1.967-0.367,4.017-0.45,6.15-0.25
		c2.933,0.3,4.466,0.3,4.6,0l0.95,1.25l-0.75,0.75c-0.566,0.6-1,1.116-1.3,1.55c-0.3,0.533-1.05,1.083-2.25,1.65
		c-1.1,0.533-2.333,0.967-3.7,1.3c-1.066,0.267-2.133,0.333-3.2,0.2l-1.25-0.301c0-0.666-0.216-1.199-0.65-1.6
		c-0.3-0.267-0.583-0.184-0.85,0.25c-0.133,0.2-0.25,0.434-0.35,0.7h-2.05c-0.767,0-1.867-0.4-3.3-1.2l-1.95-1.25
		c1.934-0.2,3.7-0.733,5.3-1.6C79.467,19.483,81,19,82.8,18.7z"/>
	<path style="fill-rule:evenodd;clip-rule:evenodd;fill:#618D1E;" d="M34.2,31.2c-2.833,2.833-4.75,4.383-5.75,4.649
		c-0.633,0.2-1.083,0.384-1.35,0.551c-0.133,0.1-0.2,0.166-0.2,0.199c-0.233-0.1-0.5-0.183-0.8-0.25
		c-0.633-0.133-1.167-0.066-1.6,0.2c-0.667,0.434-1,0.75-1,0.95c-1.933,1.8-3.533,2.7-4.8,2.7h-1.85l-2.2-2.4l-0.2,1
		c-0.267,0.7-0.833,1.15-1.7,1.351c-0.867,0.166-1.683,0.283-2.45,0.35l-0.95,0.05c-1.367-0.5-2.533-1.066-3.5-1.7
		c-1.967-1.3-2.017-2.333-0.15-3.1c0.6-0.733,1.483-1.45,2.65-2.15c2.333-1.433,4.95-2.116,7.85-2.05
		c2.733,0.067,5.483,0.033,8.25-0.1c3.167-0.167,5-0.25,5.5-0.25H34.2z"/>
</g>
<g>
	
		<linearGradient id="SVGID_8_" gradientUnits="userSpaceOnUse" x1="128.5835" y1="-236.8213" x2="135.3811" y2="-236.8213" gradientTransform="matrix(0.4487 0.8937 -0.8937 0.4487 1.839697e-004 -2.349317e-004)">
		<stop  offset="0" style="stop-color:#57811A"/>
		<stop  offset="0.4118" style="stop-color:#5D891C"/>
		<stop  offset="1" style="stop-color:#618D1E"/>
	</linearGradient>
	<path style="fill-rule:evenodd;clip-rule:evenodd;fill:url(#SVGID_8_);" d="M258.95,16.9l-2.3-0.35l1.85-0.2
		c1.566-0.333,4.116-1.617,7.65-3.85c1.433-0.867,3.083-2.033,4.949-3.5c2.067-1.6,3.551-2.767,4.45-3.5
		c1.134-0.867,2.384-1.7,3.75-2.5l1.7-0.9c0.366-0.067,0.866,0.133,1.5,0.6c0.333,0.233,0.616,0.466,0.85,0.7l0.301,0.65
		c0.166,0.567,0.25,1.2,0.25,1.9c0,0.566-0.017,0.8-0.051,0.7c-0.066-0.267-0.166-0.3-0.3-0.1c-0.233,0.434-0.517,0.65-0.85,0.65
		l0.35,1.3c0.233,0.833,0.117,1.117-0.35,0.85l-0.5-0.45c-0.233-0.167-1.05-0.316-2.45-0.45l-2-0.2l0.85,2.55
		c0.334,1.134,0.284,1.85-0.149,2.15l-0.55-0.25c-0.2-0.067-0.65-0.5-1.351-1.3l-1-1.2l0.15,2.75c0,0.966-0.4,1.6-1.2,1.9l-0.3-5.95
		l-0.851,3.8c-0.366,1.3-0.833,2.15-1.399,2.55l0.7-4.85l-0.45,1.05c-0.4,0.8-0.816,1.5-1.25,2.1c-0.5,0.7-0.917,1.184-1.25,1.45
		c-0.2,0.167-0.816,0.533-1.851,1.1c-1.233,0.733-2.133,1.1-2.699,1.1l-0.351-1.1l-2.05,0.65
		C261.884,17.017,260.616,17.066,258.95,16.9z"/>
	
		<linearGradient id="SVGID_9_" gradientUnits="userSpaceOnUse" x1="17.3892" y1="323.3516" x2="19.9071" y2="323.3516" gradientTransform="matrix(0.1191 -0.9929 0.9929 0.1191 -1.758263e-004 2.499446e-004)">
		<stop  offset="0" style="stop-color:#57811A"/>
		<stop  offset="0.4118" style="stop-color:#5D891C"/>
		<stop  offset="1" style="stop-color:#618D1E"/>
	</linearGradient>
	<path style="fill-rule:evenodd;clip-rule:evenodd;fill:url(#SVGID_9_);" d="M336.025,18.15c-1.012,0.478-2.12,0.945-3.325,1.4
		c-3,1.134-5.217,1.65-6.65,1.55c-5.2-0.3-8.783-0.266-10.75,0.101l-4.85,1.2c0.467-0.467,0.983-0.95,1.55-1.45
		c1.167-1.034,2.066-1.65,2.7-1.85l1.55-0.55l-1.2,1.3l0.55-0.35c0.534-0.267,1.2-0.467,2-0.6l2.4-0.45l-1.3,1.8
		c0.2-0.2,0.483-0.4,0.85-0.6c0.733-0.4,1.533-0.617,2.4-0.65l3.05-0.1l-0.85,1.25c0.399,0.3,0.833,0.267,1.3-0.1
		c0.267-0.233,0.583-0.433,0.95-0.6c0.199-0.067,0.366-0.117,0.5-0.15l0.199,0.15c0.067,0.133,0,0.333-0.199,0.6l-0.551,0.65
		l1.4-0.7c1-0.467,1.65-0.7,1.95-0.7c0.566,0,1.717-0.15,3.45-0.45C334.437,18.61,335.395,18.377,336.025,18.15z"/>
	
		<linearGradient id="SVGID_10_" gradientUnits="userSpaceOnUse" x1="23.6357" y1="-301.6924" x2="27.0607" y2="-301.6924" gradientTransform="matrix(2.919708e-004 1 -1 -0.001 -2.867721e-004 -9.377988e-005)">
		<stop  offset="0" style="stop-color:#57811A"/>
		<stop  offset="0.4118" style="stop-color:#5D891C"/>
		<stop  offset="1" style="stop-color:#618D1E"/>
	</linearGradient>
	<path style="fill-rule:evenodd;clip-rule:evenodd;fill:url(#SVGID_10_);" d="M293.9,26.7l-0.851-0.2l2.351-0.65
		c3.866-1.232,6.6-1.982,8.199-2.25c2.301-0.399,4.317-0.433,6.051-0.1l0.149,0.6c0.101,0.4,0.283,0.834,0.55,1.301
		c-0.133,0.566-1.433,1.366-3.899,2.399l0.649-0.6c0.301-0.233,0.65-0.75,1.051-1.55l0.5-1.101c-1.067,0.967-2.351,1.817-3.851,2.55
		c-0.967,0.467-1.7,0.667-2.2,0.601l-0.5-0.25l0.4-0.25c0.267-0.167,1.316-1.05,3.15-2.65l-3.101,1.7
		c-1.033,0.533-1.717,0.783-2.05,0.75l-0.2-0.25l0.7-0.5c0.3-0.2,0.616-0.5,0.95-0.9l0.399-0.55l-2.8,1.2
		c-0.733,0.3-1.283,0.5-1.649,0.6H297.6l1.95-1.35c-0.866,0.5-1.967,0.917-3.3,1.25C295.417,26.733,294.634,26.8,293.9,26.7z"/>
	
		<linearGradient id="SVGID_11_" gradientUnits="userSpaceOnUse" x1="28.2354" y1="-277.1167" x2="31.5104" y2="-277.1167" gradientTransform="matrix(3.053435e-004 1 -1 -0.001 -4.168487e-004 -9.473111e-005)">
		<stop  offset="0" style="stop-color:#57811A"/>
		<stop  offset="0.4118" style="stop-color:#5D891C"/>
		<stop  offset="1" style="stop-color:#618D1E"/>
	</linearGradient>
	<path style="fill-rule:evenodd;clip-rule:evenodd;fill:url(#SVGID_11_);" d="M282.6,31l-0.5,0.6c-0.5,0.4-1.166,0.601-2,0.601
		c-0.8,0-1.566-0.15-2.3-0.45l-0.8-0.5c0.233-0.566,0.033-0.934-0.6-1.1c-0.4-0.101-0.851-0.101-1.351,0L274.4,30.3l-2.75-2.399
		l1.399,0.149c0.134,0.033,1,0.134,2.601,0.3c1.399,0.167,2.5,0.351,3.3,0.551C280.316,29.267,281.533,29.967,282.6,31z"/>
	
		<linearGradient id="SVGID_12_" gradientUnits="userSpaceOnUse" x1="34.0913" y1="-196.8633" x2="39.0617" y2="-196.8633" gradientTransform="matrix(0.0905 0.9959 -0.9959 0.0905 -4.366189e-004 -1.163855e-004)">
		<stop  offset="0" style="stop-color:#57811A"/>
		<stop  offset="0.4118" style="stop-color:#5D891C"/>
		<stop  offset="1" style="stop-color:#618D1E"/>
	</linearGradient>
	<path style="fill-rule:evenodd;clip-rule:evenodd;fill:url(#SVGID_12_);" d="M192.9,15.45c1.166-0.1,2.733-0.034,4.699,0.2
		c2.167,0.267,4,0.367,5.5,0.3c1.9-0.067,3.983-0.684,6.25-1.85c1.134-0.567,2.067-1.133,2.801-1.7
		c0.239-0.24,0.381-0.532,0.425-0.875l0.024,0.225c0.034,0.633,0,1.066-0.1,1.3c-0.134,0.4-1.1,1.034-2.9,1.9l0.7-0.15
		c0.467-0.1,1.267-0.366,2.4-0.8l-0.25,0.45c-0.267,0.333-0.566,0.616-0.9,0.85c-0.566,0.4-1.967,1.034-4.2,1.9h1.976l-5.075,0.9
		l3.35,0.45c1.601,0.2,3.184,0.233,4.75,0.1c-0.366,0.267-1.6,0.483-3.699,0.65c-1.334,0.1-2.817,0.05-4.45-0.15L202.1,18.8
		l2.551,1.45c1.1,0.566,2.566,0.9,4.399,1c-0.7,0.3-1.633,0.45-2.8,0.45c-0.733,0-2.2-0.367-4.4-1.1l-3.05-1.15l3.351,1.899
		c0.888,0.494,1.871,0.777,2.949,0.851H201.4c-1.301,0-2.917-0.4-4.851-1.2l-2.5-1.25l1,0.7c0.834,0.566,1.667,1.05,2.5,1.45
		l4.3,2.3h-1.399c-4,0-7.4-0.851-10.2-2.55c-1.767-1.067-3.1-2-4-2.8l-0.8-0.9l2.45-1.15C189.8,16,191.467,15.55,192.9,15.45z"/>
	
		<linearGradient id="SVGID_13_" gradientUnits="userSpaceOnUse" x1="174.4189" y1="-31.0264" x2="181.1504" y2="-31.0264" gradientTransform="matrix(0.9285 0.3714 -0.3714 0.9285 -3.297031e-004 1.459718e-004)">
		<stop  offset="0" style="stop-color:#57811A"/>
		<stop  offset="0.4118" style="stop-color:#5D891C"/>
		<stop  offset="1" style="stop-color:#618D1E"/>
	</linearGradient>
	<path style="fill-rule:evenodd;clip-rule:evenodd;fill:url(#SVGID_13_);" d="M181.35,37.55c1.317,0.284,2.317,0.417,3,0.4
		c-2.275,0.553-4.309,0.903-6.1,1.05c-1.233,0.1-2.066,0.066-2.5-0.1L175.5,38.6l3.2-0.399h-1c-2.434,0-4.45-0.217-6.05-0.65
		c-0.9-0.233-1.767-0.633-2.601-1.2l-0.95-0.8l1.8-0.1c1.533-0.033,3.066,0.05,4.6,0.25c1.366,0.133,2.566,0.417,3.6,0.85
		C179.366,37.05,180.45,37.384,181.35,37.55z"/>
	
		<linearGradient id="SVGID_14_" gradientUnits="userSpaceOnUse" x1="29.0747" y1="-81.5078" x2="30.7813" y2="-81.5078" gradientTransform="matrix(0.0879 0.9961 -0.9961 0.0879 -2.063587e-004 1.160875e-004)">
		<stop  offset="0" style="stop-color:#57811A"/>
		<stop  offset="0.4118" style="stop-color:#5D891C"/>
		<stop  offset="1" style="stop-color:#618D1E"/>
	</linearGradient>
	<path style="fill-rule:evenodd;clip-rule:evenodd;fill:url(#SVGID_14_);" d="M89.8,22.45c-0.5,0.899-1.083,1.434-1.75,1.6
		L86.6,24.3v-0.7l-2.35,0.7c-0.133,0.434-0.35,0.467-0.65,0.101c-0.267-0.334-0.583-0.65-0.95-0.95
		c-0.433-0.367-0.783-0.55-1.05-0.55c-0.233,0-0.533,0.35-0.9,1.05c-0.167,0.333-0.317,0.667-0.45,1c-1.633,0-2.733-0.101-3.3-0.3
		l-0.8-0.351l1.25-0.8c-0.667,0.2-1.333,0.233-2,0.1c-0.4-0.1-0.867-0.316-1.4-0.649l-0.7-0.5l6.2-0.75
		c0.733-0.101,2.184-0.4,4.35-0.9c1.967-0.466,3.583-0.75,4.85-0.85l5.35-0.45l-0.45,0.7c-0.467,0.6-1.033,1.167-1.7,1.7
		c-1.033,0.833-1.8,1.316-2.3,1.449L89.8,22.45z"/>
	
		<linearGradient id="SVGID_15_" gradientUnits="userSpaceOnUse" x1="37.0088" y1="-15.9219" x2="39.494" y2="-15.9219" gradientTransform="matrix(0.0905 0.9959 -0.9959 0.0905 4.801676e-004 -1.163855e-004)">
		<stop  offset="0" style="stop-color:#57811A"/>
		<stop  offset="0.4118" style="stop-color:#5D891C"/>
		<stop  offset="1" style="stop-color:#618D1E"/>
	</linearGradient>
	<path style="fill-rule:evenodd;clip-rule:evenodd;fill:url(#SVGID_15_);" d="M20.05,36.85L18,38.7l-0.25-1.351
		c-0.333,0.967-0.733,1.384-1.2,1.25c-0.3-0.1-0.65-0.283-1.05-0.55L15,37.65c-0.767,1.433-1.517,2.25-2.25,2.449
		c-0.933,0.268-2.8,0.067-5.6-0.6c-0.933-0.233-1.683-0.767-2.25-1.6c-0.667-0.9-0.333-1.434,1-1.601l0.25-0.1
		c0.733-0.167,2.45-0.517,5.15-1.05c2.967-0.567,5.117-0.917,6.45-1.051c0.6-0.066,2.067-0.166,4.4-0.3
		c2.567-0.166,5.6-0.55,9.1-1.149c0.833-0.101,1.65-0.301,2.45-0.601c-2,2.134-3.367,3.283-4.1,3.45l-2.25,0.55
		c-0.833-0.3-1.617-0.399-2.35-0.3c-0.433,0.033-0.833,0.2-1.2,0.5c-1.2,0.934-1.816,1.4-1.85,1.4
		c-1.267,0.933-2.184,1.517-2.75,1.75L20.05,36.85z"/>
</g>
<g>
	<path style="fill-rule:evenodd;clip-rule:evenodd;fill:#79A233;" d="M330.3,20.5l4.601-1.55c-3.634,1.767-6.717,2.649-9.25,2.649
		c-2.601-0.033-4.517-0.033-5.75,0c-2.101,0.034-3.667,0.15-4.7,0.351l-2.45,0.55l1.65,0.25c1.166,0.2,1.933,0.367,2.3,0.5
		c0.3,0.134,0.75,0.367,1.35,0.7c0.601,0.3,1.2,0.467,1.8,0.5l2.2,0.2c-1.633,0.199-2.816,0.199-3.55,0
		c-0.934-0.334-1.667-0.617-2.2-0.851c-1.066-0.366-1.816-0.55-2.25-0.55c-2,0-3.133,0.05-3.399,0.15c-1,0.433-1.667,0.816-2,1.149
		l-0.7,0.601c-0.233-0.067-0.351-0.334-0.351-0.801V23.6l1.351-0.5c0.899-0.333,1.399-0.466,1.5-0.399l2.6-0.95
		c2.233-0.633,4.533-0.934,6.9-0.9c1.934,0.033,4.083,0.083,6.45,0.15C328,21,329.3,20.833,330.3,20.5z"/>
	<path style="fill-rule:evenodd;clip-rule:evenodd;fill:#79A233;" d="M298.35,25.15l-5.3,1.399l3.65-1.45l-1-0.1l3.85-0.85
		c0.967-0.233,2.233-0.617,3.8-1.15c1.233-0.366,2.217-0.35,2.95,0.05c0.167,0.101,0.233,0.483,0.2,1.15h-1.1
		C303,24.2,300.65,24.517,298.35,25.15z"/>
	<path style="fill-rule:evenodd;clip-rule:evenodd;fill:#79A233;" d="M258.7,15.95l-0.9,0.25c1.904-0.595,3.521-1.312,4.851-2.15
		c0.933-0.6,2.1-1.25,3.5-1.95l1.8-0.9h-2.3l-1.9-0.3l1.45-0.35c1.399-0.066,2.517-0.283,3.35-0.65
		c1.267-0.466,3.134-1.783,5.601-3.95c0.966-0.833,2.183-1.7,3.649-2.6l1.9-1.15c0.333-0.3,1.083-0.567,2.25-0.8
		c0.6-0.133,1.35-0.283,2.25-0.45c0.6-0.2,0.866-0.517,0.8-0.95l0.25,0.05c0.167,0.067,0.333,0.167,0.5,0.3
		c0.3,0.2,0.417,0.6,0.35,1.2c-0.399,0.267-1.183,0.483-2.35,0.65c-0.667,0.133-1.116,0.167-1.35,0.1
		c-0.367-0.066-0.617-0.1-0.75-0.1c-0.434,0-1.067,0.3-1.9,0.9c-0.333,0.233-1.083,0.833-2.25,1.8c-1.934,1.6-3.083,2.6-3.45,3
		c-0.1,0.133-0.166,0.383-0.2,0.75c0,0.233-0.017,0.717-0.05,1.45c-0.1,0.867-0.399,1.983-0.899,3.35l0.25-3.5L273.1,8.3l-2.5,1.55
		c-2.966,1.933-5.433,3.367-7.399,4.3C261.7,14.85,260.2,15.45,258.7,15.95z"/>
	<path style="fill-rule:evenodd;clip-rule:evenodd;fill:#79A233;" d="M284.65,31.3c0.133,0.2,0.017,0.467-0.351,0.8
		c-0.633-0.3-1.2-0.666-1.7-1.1c-0.533-0.5-1.566-0.967-3.1-1.4l-7.45-1.8l2.601,0.351c1.933,0.3,3.366,0.55,4.3,0.75
		c1.666,0.399,3.083,1.066,4.25,2C283.733,31.3,284.217,31.434,284.65,31.3z"/>
	<path style="fill-rule:evenodd;clip-rule:evenodd;fill:#79A233;" d="M187.4,17.35c-1.5,0.533-2.65,1.083-3.45,1.65
		c-0.767,0.5-1.316,0.684-1.65,0.55c-0.233,0.034-0.533-0.066-0.899-0.3c-0.233-0.133-0.4-0.35-0.5-0.65l-0.101-0.35
		c0.334,0.333,1.417,0.2,3.25-0.4c1-0.333,2.25-0.8,3.75-1.4c0.667-0.267,2.017-0.6,4.05-1c1.967-0.367,3.317-0.567,4.051-0.6
		c0.966-0.067,2.566,0.05,4.8,0.35h-3.325c0.331,0.006,1.239,0.106,2.725,0.3c1.634,0.233,2.634,0.35,3,0.35
		c0.767,0.033,3-0.567,6.7-1.8c-2.434,1-4.383,1.667-5.85,2c-0.8,0.2-2.467,0.25-5,0.15c-3.101-0.1-5.15-0.117-6.15-0.05
		C191.134,16.217,189.333,16.617,187.4,17.35z"/>
	<path style="fill-rule:evenodd;clip-rule:evenodd;fill:#79A233;" d="M184.35,37.8l-2.3-0.149c-0.633-0.067-2.05-0.351-4.25-0.851
		c-2.233-0.533-3.684-0.833-4.35-0.899c-0.834-0.067-2.084-0.033-3.75,0.1l-2.3,0.2h-0.7c-0.133,0-0.233-0.101-0.3-0.3l-0.2-1
		l3.05,0.199c0.934,0,2.483,0.134,4.65,0.4c2.466,0.3,4.116,0.6,4.949,0.9C180.083,36.867,181.917,37.333,184.35,37.8z"/>
	<path style="fill-rule:evenodd;clip-rule:evenodd;fill:#79A233;" d="M96.5,17.55l0.1,1.9c-0.434-0.2-1.05-0.267-1.85-0.2
		c-3.5,0.667-6.117,1.05-7.85,1.15c-1,0.034-2.4,0.267-4.2,0.7c-2.067,0.5-3.267,0.768-3.6,0.801l-3,0.199l4.05-0.85
		c0.833-0.133,2.483-0.467,4.95-1c2.267-0.467,3.95-0.717,5.05-0.75c2.067-0.066,3.617-0.35,4.65-0.85L96.5,17.55z"/>
	<path style="fill-rule:evenodd;clip-rule:evenodd;fill:#79A233;" d="M19.1,33.45c1.533,0,4.633-0.15,9.3-0.45l-2.15,0.3
		c-0.867,0.134-4.067,0.4-9.6,0.8C15.383,34.2,13.4,34.566,10.7,35.2c-2.2,0.5-4.083,0.983-5.65,1.45
		c-2.267,0.767-3.583,1.183-3.95,1.25c-0.167,0.033-0.267,0.033-0.3,0c0-0.101-0.117-0.217-0.35-0.351
		c-0.233-0.133-0.383-0.333-0.45-0.6v-0.3l10.2-1.95c0.933-0.134,2.466-0.4,4.6-0.8C16.7,33.6,18.133,33.45,19.1,33.45z"/>
</g>
</svg>
