<?xml version="1.0" encoding="iso-8859-1"?>
<!-- Generator: Adobe Illustrator 15.1.0, SVG Export Plug-In . SVG Version: 6.00 Build 0)  -->
<!DOCTYPE svg PUBLIC "-//W3C//DTD SVG 1.1//EN" "http://www.w3.org/Graphics/SVG/1.1/DTD/svg11.dtd">
<svg version="1.1" id="FlashAICB" xmlns="http://www.w3.org/2000/svg" xmlns:xlink="http://www.w3.org/1999/xlink" x="0px" y="0px"
	 width="175.65px" height="81.85px" viewBox="0 0 175.65 81.85" style="enable-background:new 0 0 175.65 81.85;"
	 xml:space="preserve">
<g>
	<g>
		<g>
			<path style="fill-rule:evenodd;clip-rule:evenodd;fill:#633B21;" d="M56.65,3.3c5.367-0.6,10.667-0.667,15.9-0.2
				c4.9,0.433,11.833,1.566,20.8,3.4c14.967,3.067,30.934,7.567,47.9,13.5c15.066,5.267,24.05,9.067,26.95,11.4
				c2.399,1.934,4.316,5.3,5.75,10.1c1.399,4.767,1.934,9.6,1.6,14.5c-0.267,4.1-0.95,7.45-2.05,10.05l-1.6,2.65
				c-0.233,0.967-0.767,2.116-1.601,3.45c-1.7,2.699-4.1,5.033-7.2,7c-3.3,2.133-9.833,2.916-19.6,2.35
				c-5.267-0.366-9.816-0.684-13.65-0.95c-7.333-0.5-13.55-0.767-18.649-0.8c-4.934-0.033-8.7,0.083-11.3,0.35
				c-5,0.5-8.233,0.801-9.7,0.9c-9.467,0.6-15.067,0.884-16.8,0.85c-6.467-0.133-11.217-1.35-14.25-3.649
				c-2.066-1.533-6.767-2.934-14.1-4.2c-7.867-1.366-14.466-3.634-19.8-6.8C18.217,63,12.533,58.833,8.2,54.7
				c-3.967-3.8-6.233-7.017-6.8-9.65c-0.7-3.333-1.133-5.933-1.3-7.8c-0.233-2.967,0.033-5.383,0.8-7.25
				c0.233-0.6,0.517-2.733,0.85-6.4c0.233-2.733,1.283-5.033,3.15-6.9c5.6-5.6,14.533-9.35,26.8-11.25
				C38.3,4.45,46.617,3.733,56.65,3.3z"/>
		</g>
		<g>
			<path style="fill-rule:evenodd;clip-rule:evenodd;fill:#57351D;" d="M1.75,23.6c0.233-2.733,1.283-5.033,3.15-6.9
				c5.533-5.534,14.283-9.25,26.25-11.15c6.467-1,14.767-1.716,24.9-2.15c15.3,1.567,30.867,3.3,46.7,5.2
				c13.934,3.333,28.05,7.583,42.35,12.75c12.867,4.633,20.567,7.983,23.101,10.05c2.399,1.934,4.316,5.3,5.75,10.1
				c1.399,4.767,1.934,9.6,1.6,14.5c-0.267,4.1-0.95,7.45-2.05,10.05l-1.6,2.65c-0.233,0.967-0.767,2.116-1.601,3.45
				c-1.7,2.699-4.1,5.033-7.2,7c-3.3,2.133-9.833,2.916-19.6,2.35c-5.267-0.366-9.816-0.684-13.65-0.95
				c-7.333-0.5-13.55-0.767-18.649-0.8c-4.934-0.033-8.7,0.083-11.3,0.35c-5,0.5-8.233,0.801-9.7,0.9
				c-9.467,0.6-15.067,0.884-16.8,0.85c-6.467-0.133-11.217-1.35-14.25-3.649l-0.5-0.351c0.567-0.166,0.983-0.25,1.25-0.25
				c0.7,0,2.267,0.084,4.7,0.25c2.467,0.167,3.983,0.25,4.55,0.25c0.733,0,1.533-0.233,2.4-0.699c0.5-0.233,1.117-0.584,1.85-1.051
				c0.767-0.366,2.85,0.301,6.25,2c0.667,0.334,10.333,0.25,29-0.25c1.399,0,2.449-0.066,3.149-0.199
				c0.533-0.067,1.15-0.25,1.851-0.551c0.399-0.166,2.533-0.1,6.399,0.2c3.733,0.3,5.684,0.316,5.851,0.05
				c0.267-0.399,0.916-0.833,1.949-1.3c1.134-0.5,2.233-0.816,3.301-0.95c0.933-0.1,2.433,0.301,4.5,1.2
				c1.1,0.5,2.35,1.101,3.75,1.8c0.5,0.2,1.149,0.217,1.949,0.051L142.9,78.1c0.5,0,1.5-0.166,3-0.5l10.5-2.25l0.5-1.75l-0.5-2.75
				c-2.834-4.166-4.417-6-4.75-5.5c-0.2,0.334-0.784,0.601-1.75,0.801c-0.2,0.066-1.034,0.216-2.5,0.449
				c-0.634,0.101-1.117-0.283-1.45-1.149c-0.167-0.434-0.267-0.884-0.3-1.351c-2.5,0-4.084-0.083-4.75-0.25
				c-0.434-0.1-0.867-0.116-1.301-0.05c-0.633,0.134-1.199,0.233-1.699,0.3c-0.601,0.101-1.117,0.5-1.551,1.2
				c-0.6,1-0.916,1.517-0.949,1.55c-0.4,0.4-1.334,0.45-2.801,0.15c-1.5-0.333-2.316-0.8-2.449-1.4
				c-0.134-0.633-0.434-1.116-0.9-1.449c-0.467-0.334-1.333-0.684-2.6-1.051c-0.867-0.267-2.5-0.183-4.9,0.25
				c-2.333,0.4-3.783,0.483-4.35,0.25c-2.067-0.866-4.4-0.949-7-0.25c-1.301,0.367-2.684,0.301-4.15-0.199
				c-1.267-0.434-3.217-1.45-5.85-3.051c-2.067-1.233-4.067-1.517-6-0.85l-2.25,1.35c-0.801,0.434-1.65,0.95-2.551,1.551
				c-1.833,1.267-3.066,2.416-3.7,3.449c-0.467,0.767-1.15,2.084-2.05,3.95c-0.767,1.601-1.333,2.617-1.7,3.05
				c-0.433,0.567-1.833,0.834-4.2,0.801c-2.067-0.034-3.583-0.217-4.55-0.551c-0.6-0.199-0.75-0.649-0.45-1.35
				c0.466-1.066,0.7-1.7,0.7-1.9v-7.25c0-0.3-0.467-0.899-1.4-1.8c-1.3-1.2-2.333-2.184-3.1-2.95
				c-0.933-0.933-2.133-1.333-3.6-1.199c-1.433,0.3-2.316,0.449-2.65,0.449c-0.4,0-1.1,0.5-2.1,1.5l-1.4,1.5
				c-0.3-0.333-0.6-0.699-0.9-1.1c-0.633-0.8-1-1.35-1.1-1.65c-0.1-0.3-0.5-0.8-1.2-1.5c-0.767-0.733-1.284-1.233-1.55-1.5
				c-0.333-0.333-0.733-0.3-1.2,0.101c-0.4,0.366-0.667,0.833-0.8,1.399c-0.1,0.434-0.967,0.684-2.6,0.75h-2.4
				c-2-1.833-4-3.75-6-5.75l-2.5-2.5l-3.5-1c-2-0.166-3.25-0.083-3.75,0.25c-0.467,0.334-1.617,0.467-3.45,0.4
				c-2.067-0.1-3.833-0.483-5.3-1.15c-1.867-1.066-3.133-1.767-3.8-2.1c-1.033-0.533-1.85-0.5-2.45,0.1
				c-0.867,0.867-1.433,1.4-1.7,1.601c-0.367,0.267-0.55,0.233-0.55-0.101c0-0.233-0.316-0.933-0.95-2.1
				c-0.767-1.366-1.284-2.5-1.55-3.4c-0.233-0.833-0.467-1.267-0.7-1.3c-0.7-0.133-1.633-0.7-2.8-1.7c-1.4-1.2-2.117-1.6-2.15-1.2
				l-0.1,0.7c-0.833-0.4-1.517-0.767-2.05-1.1c-1.033-0.6-1.6-1.15-1.7-1.65c-0.066-0.434-0.367-0.684-0.9-0.75
				c-0.567-0.1-1.117,0.083-1.65,0.55C0.167,32.583,0.433,31.2,0.9,30C1.133,29.4,1.417,27.267,1.75,23.6z"/>
			<path style="fill-rule:evenodd;clip-rule:evenodd;fill:#472B18;" d="M166.1,45.75c0.067,0.1-0.083,0.717-0.449,1.85
				c-0.2,0.601-0.267,1.4-0.2,2.4c0.133,1.7,0.2,2.566,0.2,2.6c0,1.2-0.067,2.184-0.2,2.95c-0.267,1.267-0.783,2.617-1.55,4.05
				c-0.733,1.367-1.167,3.851-1.301,7.45l0.051,5.05l-0.25-1.75c-0.067-0.366-0.384-1.35-0.95-2.949
				c-0.667-1.7-1.184-3.551-1.55-5.551c-0.334-1.733-0.617-3.75-0.851-6.05c-0.166-1.866-0.383-3.267-0.649-4.2
				c-0.301-1.133-1.534-2.483-3.7-4.05c-2.767-1.8-4.867-3.2-6.3-4.2l-0.5-4l4.1,0.95c3.3,0.834,6.35,1.767,9.15,2.8
				C164.116,44.2,165.767,45.083,166.1,45.75z"/>
			<path style="fill-rule:evenodd;clip-rule:evenodd;fill:#472B18;" d="M167.7,31.05l0.5,0.35c2.399,1.934,4.316,5.3,5.75,10.1
				c1.399,4.767,1.934,9.6,1.6,14.5c-0.267,4.1-0.95,7.45-2.05,10.05l-1.6,2.65c-0.233,0.967-0.767,2.116-1.601,3.45
				c-1.7,2.699-4.1,5.033-7.2,7c-3.3,2.133-9.833,2.916-19.6,2.35c-6.233-0.467-11.616-0.833-16.15-1.1
				c0.267-0.067,0.45-0.167,0.551-0.301c0.733-0.733,3.316-0.899,7.75-0.5c1.566,0.134,3.517,0.233,5.85,0.301
				c2.6,0.066,4.483,0.05,5.65-0.051c0.833-0.066,1.75,0,2.75,0.2c0.833,0.2,1.5,0.217,2,0.05c0.3-0.1,1.066-0.25,2.3-0.449
				c1.033-0.134,1.934-0.4,2.7-0.801c0.666-0.333,2.066-0.8,4.199-1.399c1.934-0.667,3.2-1.45,3.801-2.351
				c0.533-0.767,1.25-1.716,2.149-2.85c0.834-1.033,1.367-1.75,1.601-2.15c0.633-1.066,1.133-2.316,1.5-3.75
				c0.1-0.333,0.199-1.1,0.3-2.3c0.2-1.366,0.6-2.767,1.2-4.2c0.633-1.466,0.783-3.199,0.449-5.199
				c-0.166-1.167-0.566-3.017-1.199-5.551c-0.467-2.533-1.017-4.333-1.65-5.399c-1-1.667-2.616-2.784-4.85-3.35L167.7,31.05z"/>
		</g>
		<g>
			<path style="fill-rule:evenodd;clip-rule:evenodd;fill:#6E431E;" d="M0.05,36.35v-1.4c0.534-0.467,0.9-0.617,1.1-0.45
				c0.233,0.133,0.383,0.633,0.45,1.5c0.133,1.833,0.5,4.1,1.1,6.8c0.767,3.566,1.617,5.867,2.55,6.9
				c1.433,1.533,1.983,1.967,1.65,1.3l-0.7-1.15c-0.467-1.033-0.667-2.199-0.6-3.5c0.1-2.1,0.483-3.6,1.15-4.5
				c0.333,2.233,0.833,4.617,1.5,7.15c0.567,2.134,1.033,3.6,1.4,4.4c0.5,1.066,1.25,2,2.25,2.8c1.467,1.1,2.8,2.316,4,3.649
				l0.75-0.25c0.633-0.033,1.217,0.334,1.75,1.101c0.867,1.133,1.533,1.95,2,2.45c0.934,0.899,2.55,2.25,4.85,4.05
				C18.217,63,12.533,58.833,8.2,54.7c-3.967-3.8-6.233-7.017-6.8-9.65C0.6,41.45,0.15,38.55,0.05,36.35z"/>
			<path style="fill-rule:evenodd;clip-rule:evenodd;fill:#6E431E;" d="M21.9,48.5c-0.267,0.434-0.3,1.384-0.1,2.85
				c0.133,1.067,0.333,2.017,0.6,2.851c0.133,0.333,0.184,0.416,0.15,0.25c-0.1-0.434-0.15-0.8-0.15-1.101
				c0-0.566,0.567-1.616,1.7-3.149c0,0.533-0.067,1.2-0.2,2c-0.167,1.233,0.117,3.333,0.85,6.3c0.267,1.134,0.983,2.616,2.15,4.45
				c0.6,0.899,1.167,1.7,1.7,2.399L22.75,58.2l0.15,0.5l2,4.5c-0.667-0.233-1.433-1.066-2.3-2.5c-0.733-1.2-1.4-2.517-2-3.95
				c-0.667-1.6-1-2.783-1-3.55c0-0.566-0.15-1.55-0.45-2.95c-0.267-1.2-0.35-1.884-0.25-2.05c0.233-0.367,0.934-0.601,2.1-0.7
				C22.133,47.4,22.433,47.733,21.9,48.5z"/>
			<path style="fill-rule:evenodd;clip-rule:evenodd;fill:#6E431E;" d="M44.9,57.2c0.567,0,0.85,1.383,0.85,4.149
				c0,0.634,0.283,0.551,0.85-0.25c0.267-0.399,0.533-0.866,0.8-1.399c0.133,0.533,0.133,1.2,0,2c-0.033,0.366,0.1,0.883,0.4,1.55
				c0.434,0.767,0.7,1.517,0.8,2.25c0.133,0.934-0.05,1.184-0.55,0.75c-0.7-0.8-1.25-1.434-1.65-1.9
				c-0.467-0.533-0.55,0.301-0.25,2.5c0.4,2.5,0.6,3.884,0.6,4.15c0,0.4-0.333,0.35-1-0.15c-0.633-0.466-1.3-1.133-2-2
				c-0.633-0.8-1.083-2.267-1.35-4.399c-0.267-2.066-0.267-3.884,0-5.45c0.2-1.267,0.567-1.934,1.1-2
				C43.8,56.934,44.267,57,44.9,57.2z"/>
			<path style="fill-rule:evenodd;clip-rule:evenodd;fill:#6E431E;" d="M57.4,59.7c0.567-0.834,0.934-0.75,1.1,0.25l0.1,1.75
				c0.1,0.434,0.15,1.267,0.15,2.5L59.1,71l-0.7-1.8c-0.433-1.233-0.767-2.967-1-5.2c-0.1,0.467-0.2,1.366-0.3,2.7
				c-0.067,0.833,0.133,2.25,0.6,4.25l0.7,2.75c-0.433-0.4-0.9-0.983-1.4-1.75c-0.967-1.533-1.55-3.184-1.75-4.95
				c-0.2-1.733,0.1-3.467,0.9-5.2C56.55,60.934,56.967,60.233,57.4,59.7z"/>
		</g>
		<path style="fill-rule:evenodd;clip-rule:evenodd;fill:#784728;" d="M56.65,3.3c5.367-0.6,10.667-0.667,15.9-0.2
			c4.9,0.433,11.833,1.566,20.8,3.4c14.967,3.067,30.934,7.567,47.9,13.5c15.066,5.267,24.05,9.067,26.95,11.4
			c0.133,0.1,0.517,0.467,1.149,1.1c1.967,3.567,2.051,6.383,0.25,8.45c-1.433,1.6-3.433,2.399-6,2.399
			c-0.933,0-4.083-0.35-9.449-1.05c-3.634-0.5-4.934-0.366-3.9,0.4c1.934,1.434,3.6,2.934,5,4.5c2,2.2,3,4.033,3,5.5
			s-0.783,2.633-2.35,3.5c-0.467,0.267-2.567,1.1-6.301,2.5c-2.566,0.967-6.683,1.083-12.35,0.35c-5.233-0.7-10.684-1.934-16.35-3.7
			c-12.934-4.066-28.867-7.066-47.8-9c-4.9-0.5-8.517-1.233-10.85-2.199c-1.233-0.5-2.667-1.467-4.3-2.9
			c-3.2-2.767-9.55-4.733-19.05-5.9c-11.367-1.4-20.783-4.383-28.25-8.95c-2.3-1.4-4.283-2.883-5.95-4.45L2.9,20v-0.7
			c0.467-0.833,1.133-1.7,2-2.6c5.6-5.6,14.533-9.35,26.8-11.25C38.3,4.45,46.617,3.733,56.65,3.3z"/>
		<g>
			<path style="fill-rule:evenodd;clip-rule:evenodd;fill:#8A5525;" d="M169.3,32.45l0.05,0.05c1.967,3.567,2.051,6.383,0.25,8.45
				c-1.433,1.6-3.433,2.399-6,2.399c-1.233,0-3.666-0.25-7.3-0.75c-3.366-0.5-5.366-0.716-6-0.649
				c-0.566,0.133-1.583,0.1-3.05-0.101l-7.35-1.5l6.3,0.2c4.899,0.167,9.05,0.4,12.45,0.7c3.566,0.333,6.316,0.033,8.25-0.9
				c1.767-0.867,2.716-2.167,2.85-3.9c0.066-1.233,0.1-1.917,0.1-2.05C169.816,33.7,169.634,33.05,169.3,32.45z"/>
			<path style="fill-rule:evenodd;clip-rule:evenodd;fill:#8A5525;" d="M120.9,55.35c-3.767-1.133-7-2.05-9.7-2.75
				c7.467,1.267,12.866,2.101,16.2,2.5c3.666,0.434,8.35,1.034,14.05,1.801c4.233,0.366,7.467,0.017,9.7-1.051
				c3.199-1.533,4.899-2.383,5.1-2.55c0.733-0.6,0.934-1.75,0.6-3.45c-0.1-0.399-0.649-1.316-1.649-2.75
				c2.033,2.2,3.05,4.067,3.05,5.601c0,1.467-0.783,2.633-2.35,3.5c-0.467,0.267-2.567,1.1-6.301,2.5
				c-2.566,0.967-6.683,1.083-12.35,0.35C132.017,58.35,126.566,57.116,120.9,55.35z"/>
		</g>
	</g>
	<g>
		<path style="fill-rule:evenodd;clip-rule:evenodd;fill:#6E4225;" d="M90.4,33.85c-0.733,0-0.75-0.55-0.051-1.65
			c0.367-0.633,1-1.534,1.9-2.7c0.833-1.267,2.116-1.317,3.85-0.15l0.7-1c0.634-0.7,1.4-1.15,2.3-1.35
			c1.034-0.233,1.684-0.067,1.95,0.5s0,1.067-0.8,1.5c-0.333,0.2-0.934,0.483-1.8,0.85c-0.634,0.3-1.2,0.633-1.7,1
			C94.05,32.85,91.934,33.85,90.4,33.85z"/>
		<path style="fill-rule:evenodd;clip-rule:evenodd;fill:#6E4225;" d="M102.6,31.5c1.034,0.367,1.534,0.867,1.5,1.5
			c-0.033,0.667-0.649,1-1.85,1s-1.7-0.483-1.5-1.45C100.983,31.55,101.6,31.2,102.6,31.5z"/>
		<path style="fill-rule:evenodd;clip-rule:evenodd;fill:#6E4225;" d="M78.15,38.25c0.367-0.767,1.233-1.067,2.6-0.9
			c1.5,0.2,2.767,0.55,3.8,1.05c1.233,0.533,1.583,1.067,1.05,1.6c-0.467,0.467-1.217,0.6-2.25,0.4c-2.333-0.467-3.533-0.7-3.6-0.7
			C78.283,39.533,77.75,39.05,78.15,38.25z"/>
		<path style="fill-rule:evenodd;clip-rule:evenodd;fill:#6E4225;" d="M89.6,36.85c1.567,0.233,2.15,0.566,1.75,1
			c-0.366,0.4-1.183,0.566-2.449,0.5c-1.134-0.067-1.551-0.367-1.25-0.9C87.95,36.883,88.6,36.683,89.6,36.85z"/>
		<path style="fill-rule:evenodd;clip-rule:evenodd;fill:#6E4225;" d="M136.75,45c1.134,0,1.983,0.184,2.55,0.55
			c0.667,0.4,0.767,0.95,0.3,1.65c-0.399,0.633-1.149,0.866-2.25,0.7c-1.333-0.367-2.366-0.601-3.1-0.7
			c-1.066-0.167-1.233-0.584-0.5-1.25C134.483,45.316,135.483,45,136.75,45z"/>
		<path style="fill-rule:evenodd;clip-rule:evenodd;fill:#6E4225;" d="M143.25,44c1.233,0.167,1.7,0.467,1.4,0.9
			c-0.267,0.433-0.95,0.699-2.051,0.8c-0.899,0.066-1.149-0.217-0.75-0.851C142.283,44.217,142.75,43.934,143.25,44z"/>
		<path style="fill-rule:evenodd;clip-rule:evenodd;fill:#6E4225;" d="M120.6,50c-1.5,0-2.133-0.316-1.899-0.95
			c0.2-0.566,0.767-0.967,1.7-1.2c1.333-0.3,2.85-0.283,4.55,0.051c1.934,0.366,2.7,0.966,2.3,1.8
			c-0.333,0.733-1.134,1.017-2.4,0.85C122.184,50.184,120.767,50,120.6,50z"/>
		<path style="fill-rule:evenodd;clip-rule:evenodd;fill:#6E4225;" d="M135.25,52.2c1.6,0.066,2.967,0.533,4.1,1.399
			c1.067,0.834,1.25,1.467,0.551,1.9c-0.567,0.366-1.367,0.45-2.4,0.25c-1.366-0.366-2.5-0.667-3.4-0.9
			c-1.267-0.3-1.666-0.833-1.199-1.6C133.366,52.483,134.15,52.134,135.25,52.2z"/>
		<path style="fill-rule:evenodd;clip-rule:evenodd;fill:#6E4225;" d="M162.6,37.5c1.767-0.1,3.184-0.017,4.25,0.25
			c1.301,0.367,1.551,0.95,0.75,1.75c-0.8,0.8-1.767,1.217-2.899,1.25c-0.4,0-1.601-0.183-3.601-0.55
			c-1.466-0.267-2.033-0.75-1.699-1.45C159.733,38.05,160.8,37.633,162.6,37.5z"/>
		<path style="fill-rule:evenodd;clip-rule:evenodd;fill:#6E4225;" d="M160.25,33.35c0.934,0.367,1.366,0.7,1.3,1
			c-0.033,0.333-0.75,0.5-2.149,0.5c-1.4,0-1.817-0.317-1.25-0.95C158.75,33.233,159.45,33.05,160.25,33.35z"/>
		<path style="fill-rule:evenodd;clip-rule:evenodd;fill:#6E4225;" d="M86.6,19c1.133,0.167,1.85,0.283,2.15,0.35
			c0.634,0.2,0.8,0.483,0.5,0.85c-0.267,0.333-0.616,0.483-1.05,0.45c-0.667-0.1-1.317-0.15-1.95-0.15c-1,0-1.517-0.283-1.55-0.85
			C84.7,19.083,85.333,18.867,86.6,19z"/>
		<path style="fill-rule:evenodd;clip-rule:evenodd;fill:#6E4225;" d="M80.25,21.2c-0.767,0-0.95-0.4-0.55-1.2
			c0.433-0.833,1-1.05,1.7-0.65c0.867,0.467,1.1,0.9,0.7,1.3C81.733,21.017,81.117,21.2,80.25,21.2z"/>
	</g>
	<g>
		<path style="fill-rule:evenodd;clip-rule:evenodd;fill:#633B21;" d="M71.35,11.45c-5.633,0.533-9.033,0.833-10.2,0.9
			c-1.566,0.1-2,0.6-1.3,1.5c0.533,0.667,1.55,1.417,3.05,2.25c0.867,0.467,1.517,0.967,1.95,1.5c0.8,0.933,1.4,1.6,1.8,2
			c1.467,1.367,2.434,2.6,2.9,3.7l0.25,1.3c-0.033,0.167-0.133,0.3-0.3,0.4c-0.333,0.167-0.817,0.033-1.45-0.4
			c-0.633-0.4-1.233-0.467-1.8-0.2l-0.7,0.55l2.35,1.9c-0.9-0.567-1.6-0.95-2.1-1.15c-1.233-0.434-2.117-0.667-2.65-0.7
			c-1.2-0.133-2.783,0.017-4.75,0.45c-2.066,0.466-3.283,1.383-3.65,2.75c-0.3,1.033-0.083,2.5,0.65,4.4l-26.5-12l4.45-7.05
			c3.133-4.867,5.066-7.767,5.8-8.7c0.867-1.133,5.583-1.8,14.15-2c8.5-0.2,16.95,0.133,25.35,1
			c7.867,0.833,19.817,3.383,35.85,7.65c15.1,4.033,24.983,7.15,29.65,9.35c4.199,1.967,7.35,4.25,9.449,6.85
			c2.101,2.533,2.7,4.75,1.801,6.65c-0.867,1.833-2.784,3.017-5.75,3.55c-2.767,0.533-7.184,0.6-13.25,0.2
			c-5.367-0.333-10.101-1.6-14.2-3.8c-3.2-1.667-6.134-3.983-8.8-6.95c-3.667-4.067-12.417-8.617-26.25-13.65
			C82.55,12.033,77.283,11.283,71.35,11.45z"/>
	</g>
	<g>
		<path style="fill-rule:evenodd;clip-rule:evenodd;fill:#446618;" d="M41.5,14.1c2.833-3.8,5.083-6.167,6.75-7.1
			c1.933-1.033,9.833-1.45,23.7-1.25C85.55,5.983,94.366,6.567,98.4,7.5c4.3,1.033,13.316,4.05,27.05,9.05
			c14.3,5.2,22.233,8.467,23.8,9.8c1.8,1.533,2.417,3.217,1.85,5.05c-0.6,2-2.433,3.317-5.5,3.95
			c-5.899,1.233-12.966,0.733-21.199-1.5c-6.101-1.667-9.767-3.833-11-6.5c-0.733-1.567-1.301-2.6-1.7-3.1
			c-1.033-1.2-2.9-2.617-5.601-4.25c-3.8-2.233-8.966-4.383-15.5-6.45c-7.833-2.466-14.616-3.7-20.35-3.7
			c-5.267,0-8.817,0.5-10.65,1.5c-0.6,0.3-0.983,0.65-1.15,1.05l-0.05,0.45l0.35-0.45c0.467-0.167,1.3,0.1,2.5,0.8
			c1.2,0.7,2.083,1.783,2.65,3.25l0.5,2.05c0.067,0.233-0.1,0.55-0.5,0.95c-0.8,0.767-2.35,1.566-4.65,2.4
			c-2.267,0.833-4.217,2.316-5.85,4.45c-1.267,2.1-2.033,3.284-2.3,3.55L37.75,19.5L41.5,14.1z"/>
	</g>
	<g>
		<path style="fill-rule:evenodd;clip-rule:evenodd;fill:#577820;" d="M61.4,31.35c4.434,3.1,9.1,7.1,14,12
			c1.533,1.534,1.05,2.367-1.45,2.5c-2.534,0.134-6.383-0.533-11.55-2c-2.3-0.666-6.05-2.116-11.25-4.35
			c-3.267-1.433-6.517-2.15-9.75-2.15c-4.167,0-9.316-0.783-15.45-2.35c-6-1.567-10.017-3.117-12.05-4.65
			C8.533,27.483,5.067,25.1,3.5,23.2c-2.767-3.367-0.967-7.483,5.4-12.35c6.167-4.733,12.667-7.5,19.5-8.3
			c1.6-0.2,4.383-0.367,8.35-0.5c3.433-0.1,6.15-0.333,8.15-0.7c5.867-1.067,12.633-1.5,20.3-1.3c8.367,0.2,15.767,1.133,22.2,2.8
			c4.5,1.167,12.316,3.017,23.449,5.55c9.733,2.333,16.417,4.317,20.051,5.95c5.399,2.4,9.216,4.217,11.449,5.45
			c3.233,1.767,5.417,3.45,6.551,5.05c5.1,7.167,1.233,10.033-11.601,8.6c-8.467-0.934-14.566-2.2-18.3-3.8
			c-3.2-1.333-5.066-3.1-5.6-5.3c-0.434-1.733-1.617-3.167-3.551-4.3c-0.166-0.1-2.483-1.167-6.949-3.2
			c-2.301-1.033-4.684-2.033-7.15-3l-3-1.15c-1.233-0.667-3.15-1.333-5.75-2c-5.2-1.333-11.233-2-18.1-2
			c-7.133,0-11.017,0.466-11.65,1.4c-0.367,0.533,0.517,1.283,2.65,2.25c3.667,1.633,3.583,3.6-0.25,5.9
			c-5.167,2.4-8.25,4.1-9.25,5.1c-1.2,1.2-0.367,2.467,2.5,3.8C58.133,29.65,60.967,31.05,61.4,31.35z"/>
		<path style="fill-rule:evenodd;clip-rule:evenodd;fill:#577820;" d="M14.35,5.65c0.066-0.867,0.167-1.517,0.3-1.95l0.4-1
			c-0.033,0.633-0.017,1.283,0.05,1.95c0.167,1.367,0.566,2.184,1.2,2.45c1,0.4,0.2,1.15-2.4,2.25c-0.5-1.5-1.167-2.333-2-2.5
			L10.65,6.6l3.65,0.25L14.35,5.65z"/>
		<path style="fill-rule:evenodd;clip-rule:evenodd;fill:#577820;" d="M22.2,1.65c-0.1,1.067-0.05,1.75,0.15,2.05l0.5,0.75L24.1,3.2
			c0.4-0.333,0.85-0.583,1.35-0.75c-0.333,0.267-0.617,0.583-0.85,0.95c-0.467,0.733-0.383,1.367,0.25,1.9
			c0.633,0.534-0.117,0.917-2.25,1.15L19.2,6.7c0-1.1-0.333-1.767-1-2l-1-0.4h1.05c0.733,0.034,1.217,0.117,1.45,0.25l0.65,0.4V4.3
			c0.033-0.566,0.15-1.15,0.35-1.75c0.333-0.9,0.917-1.683,1.75-2.35C22.35,0.667,22.267,1.15,22.2,1.65z"/>
		<path style="fill-rule:evenodd;clip-rule:evenodd;fill:#577820;" d="M139.3,17l-1-1c1.334,0.667,2.2,1.383,2.601,2.15l0.649,1.1
			l0.101-1c0.199-0.767,0.616-1.383,1.25-1.85c1-0.767,1.75-1.233,2.25-1.4c-1.4,2-2.067,3.333-2,4l0.149,1l0.7-0.5
			c0.533-0.367,1-0.567,1.4-0.6l1-0.15c-0.434,0.267-0.834,0.6-1.2,1c-0.733,0.833-0.95,1.667-0.65,2.5s-0.383,0.883-2.05,0.15
			l-2.6-1.4C140.167,19,139.967,17.667,139.3,17z"/>
		<path style="fill-rule:evenodd;clip-rule:evenodd;fill:#497114;" d="M42.5,7.7c-0.033,0.466-0.733,0.783-2.1,0.95
			c-1.3,0.167-2.883,0.15-4.75-0.05C33.817,8.367,32.267,8.017,31,7.55c-1.267-0.466-1.883-0.933-1.85-1.4
			c0.067-0.467,0.767-0.783,2.1-0.95c1.3-0.167,2.883-0.15,4.75,0.05c1.833,0.233,3.4,0.583,4.7,1.05
			C41.967,6.8,42.567,7.267,42.5,7.7z"/>
		<path style="fill-rule:evenodd;clip-rule:evenodd;fill:#497114;" d="M24.05,21.1c-0.033,0.467-0.716,0.783-2.05,0.95
			c-1.367,0.167-2.967,0.133-4.8-0.1c-1.867-0.233-3.417-0.583-4.65-1.05c-1.267-0.467-1.883-0.933-1.85-1.4
			c0.066-0.467,0.767-0.783,2.1-0.95c1.367-0.167,2.967-0.133,4.8,0.1c1.867,0.2,3.417,0.533,4.65,1
			C23.517,20.15,24.117,20.633,24.05,21.1z"/>
		<path style="fill-rule:evenodd;clip-rule:evenodd;fill:#497114;" d="M60.75,35c-0.1,0.467-0.817,0.733-2.15,0.8
			c-1.333,0.034-2.917-0.133-4.75-0.5c-1.833-0.367-3.35-0.833-4.55-1.4c-1.233-0.6-1.8-1.133-1.7-1.6
			c0.066-0.433,0.783-0.683,2.15-0.75c1.333-0.033,2.917,0.133,4.75,0.5s3.35,0.833,4.55,1.4C60.283,34.05,60.85,34.567,60.75,35z"
			/>
		<path style="fill-rule:evenodd;clip-rule:evenodd;fill:#497114;" d="M143.45,22.65c-0.101,0.434-0.834,0.667-2.2,0.7
			s-2.95-0.15-4.75-0.55c-1.8-0.4-3.316-0.9-4.55-1.5c-1.2-0.6-1.75-1.133-1.65-1.6c0.101-0.434,0.834-0.667,2.2-0.7
			c1.333-0.033,2.917,0.15,4.75,0.55c1.8,0.4,3.316,0.9,4.55,1.5C143,21.683,143.55,22.217,143.45,22.65z"/>
		<path style="fill-rule:evenodd;clip-rule:evenodd;fill:#497114;" d="M131.4,29.15c-0.134,0.467-0.867,0.684-2.2,0.65
			c-1.367-0.033-2.95-0.283-4.75-0.75c-1.8-0.5-3.283-1.083-4.45-1.75c-1.2-0.633-1.733-1.167-1.6-1.6
			c0.1-0.434,0.833-0.65,2.199-0.65c1.334,0.034,2.9,0.284,4.7,0.75c1.8,0.467,3.3,1.034,4.5,1.7
			C130.967,28.133,131.5,28.683,131.4,29.15z"/>
		<path style="fill-rule:evenodd;clip-rule:evenodd;fill:#497114;" d="M107.6,11.35c-0.133,0.433-0.866,0.65-2.199,0.65
			c-1.367,0-2.95-0.233-4.75-0.7c-1.801-0.466-3.301-1.017-4.5-1.65C94.95,8.983,94.417,8.433,94.55,8
			c0.134-0.467,0.867-0.683,2.2-0.65c1.366,0,2.95,0.233,4.75,0.7c1.8,0.434,3.3,0.983,4.5,1.65
			C107.167,10.333,107.7,10.883,107.6,11.35z"/>
	</g>
	<g>
		<path style="fill-rule:evenodd;clip-rule:evenodd;fill:#446618;" d="M51,23.85c0.767,1.767,0.983,2.566,0.65,2.4
			c-0.633-0.133-1.233-0.35-1.8-0.65c-1.133-0.567-2.133-1.517-3-2.85c-0.867-1.3-0.733-2.833,0.4-4.6c0.6-0.867,1.267-1.6,2-2.2
			c-0.067,0.7-0.35,1.783-0.85,3.25c-0.3,0.9-0.35,1.633-0.15,2.2l0.4,0.55l0.25-1.25c0.133-0.5,0.833-1.15,2.1-1.95
			c-0.433,0.633-0.717,1.533-0.85,2.7c-0.066,0.733,0.05,1.35,0.35,1.85C50.667,23.567,50.833,23.75,51,23.85z"/>
		<path style="fill-rule:evenodd;clip-rule:evenodd;fill:#446618;" d="M59.6,13.5c0.033,0.433,0.083,0.883,0.15,1.35
			c0.167,0.967,0.383,1.6,0.65,1.9c0.467,0.5,0.967,0.75,1.5,0.75l-3.5,2.75c0.3-0.8,0.333-1.533,0.1-2.2
			c-0.233-0.667-0.617-1.066-1.15-1.2l-1-0.25l1-0.1c0.7,0,1.2,0.067,1.5,0.2L59.5,17l-0.15-1.2c-0.1-0.867-0.1-1.433,0-1.7
			L59.6,13.5z"/>
		<path style="fill-rule:evenodd;clip-rule:evenodd;fill:#446618;" d="M58.15,6.85L58.5,7.2l0.85-1.25c0.167-0.3,0.383-0.5,0.65-0.6
			c-0.4,0.933-0.517,1.733-0.35,2.4C59.817,8.417,59.1,9.167,57.5,10l-0.25-1.1c-0.133-0.833-0.167-1.566-0.1-2.2l0.2-1.5
			L58.15,6.85z"/>
		<path style="fill-rule:evenodd;clip-rule:evenodd;fill:#446618;" d="M89.4,12.45c0.066-1.133-0.317-1.917-1.15-2.35L87,9.45
			c1.4,0.167,2.267,0.466,2.6,0.9L90.1,11c0.334-1.167,0.417-2,0.25-2.5L90.1,7.75c0.667,1,1.101,1.9,1.301,2.7l0.35,1.15l1.5-1.15
			L94,10c-1.167,1.167-1.7,2.117-1.6,2.85c0.1,0.467-0.367,0.533-1.4,0.2L89.4,12.45z"/>
		<path style="fill-rule:evenodd;clip-rule:evenodd;fill:#446618;" d="M111.85,18.6c0.5,0.5,0.767,0.967,0.801,1.4l0.1,0.7
			c0.4-1.333,0.366-2.367-0.1-3.1L112,16.5l1.3,1.4c0.8,1.167,1.066,2.434,0.8,3.8l-0.699,3.25l-1.75-2.7l0.149-0.95
			c0.101-0.7,0.134-1.267,0.101-1.7L111.85,18.6z"/>
		<path style="fill-rule:evenodd;clip-rule:evenodd;fill:#446618;" d="M130.55,31.1l1.15,0.5c0.8,0.367,1.3,0.65,1.5,0.85l0.5,0.4
			l0.05-0.85c0.066-0.667,0.267-1.3,0.6-1.9c0.567-0.934,0.983-1.55,1.25-1.85c-0.166,0.667-0.283,1.367-0.35,2.1
			c-0.167,1.467-0.05,2.383,0.35,2.75l1,0.85l0.551-0.75c0.366-0.534,0.55-0.983,0.55-1.35V31c0.767,1.667,0.85,2.867,0.25,3.6
			c-0.367,0.467-1.367,0.633-3,0.5l-2.351-0.35c-0.166-1.667-0.55-2.683-1.149-3.05L130.55,31.1z"/>
	</g>
	<g>
		<path style="fill-rule:evenodd;clip-rule:evenodd;fill:#57351D;" d="M99.55,61.65c0.667,0.433,1.05,1.25,1.15,2.449
			c0.066,1.267-0.267,2.217-1,2.851c-0.634,0.566-1.566,0.399-2.8-0.5c-0.467-0.334-1.367-1.167-2.7-2.5
			c-0.767-0.733-0.45-1.533,0.95-2.4C96.55,60.684,98.017,60.717,99.55,61.65z"/>
		<path style="fill-rule:evenodd;clip-rule:evenodd;fill:#57351D;" d="M66.15,58.9c1.1,0.133,1.85,0.8,2.25,2
			c0.4,1.233-0.1,2.017-1.5,2.35c-1.367,0.333-2.45,0.283-3.25-0.15c-0.667-0.366-1.033-0.899-1.1-1.6
			c-0.066-0.566,0.333-1.167,1.2-1.8C64.617,59.066,65.417,58.8,66.15,58.9z"/>
		<path style="fill-rule:evenodd;clip-rule:evenodd;fill:#57351D;" d="M48.15,49.65c0.233,0.1,1,0.216,2.3,0.35
			c1.267,0.267,2.05,0.816,2.35,1.65c0.333,0.899,0.317,1.55-0.05,1.949c-0.133,0.134-0.833,0.517-2.1,1.15
			c-0.9,0.434-1.85,0.316-2.85-0.35c-0.767-0.5-1.4-1.167-1.9-2c-0.4-0.667-0.316-1.367,0.25-2.101
			C46.683,49.533,47.35,49.316,48.15,49.65z"/>
		<path style="fill-rule:evenodd;clip-rule:evenodd;fill:#57351D;" d="M36.8,49.9c1.034,0.133,1.75,0.3,2.15,0.5
			c0.4,0.233,0.6,0.566,0.6,1c0,0.933-0.833,1.517-2.5,1.75c-0.733,0.1-1.483,0.017-2.25-0.25l-0.9-0.4L33.4,52
			c-0.433-0.434-0.7-0.75-0.8-0.95c-0.2-0.434-0.05-0.816,0.45-1.149c0.467-0.301,1.067-0.417,1.8-0.351
			C35.25,49.583,35.9,49.7,36.8,49.9z"/>
		<path style="fill-rule:evenodd;clip-rule:evenodd;fill:#57351D;" d="M31.65,53.5c0.733,0.134,1.1,0.533,1.1,1.2
			c0.033,0.633-0.25,1.116-0.85,1.45c-0.867,0.466-1.733,0.05-2.6-1.25c-0.267-0.367-0.117-0.717,0.45-1.051
			C30.283,53.483,30.917,53.366,31.65,53.5z"/>
		<path style="fill-rule:evenodd;clip-rule:evenodd;fill:#57351D;" d="M11.9,42.15c0.567,0.5,1,1.183,1.3,2.05
			c0.233,0.733,0.3,1.333,0.2,1.8c-0.033,0.366-0.2,0.583-0.5,0.65c-0.3,0.066-0.8-0.017-1.5-0.25c-0.633-0.233-1.2-0.983-1.7-2.25
			c-0.467-1.2-0.567-2-0.3-2.4C9.9,40.983,10.733,41.116,11.9,42.15z"/>
		<path style="fill-rule:evenodd;clip-rule:evenodd;fill:#57351D;" d="M115.8,65.4c0.967,0.199,1.483,0.649,1.55,1.35
			c0.034,0.233-0.066,0.816-0.3,1.75c-0.1,0.434-0.399,0.65-0.899,0.65c-0.767-0.101-1.434-0.15-2-0.15
			c-0.667,0-1.384-0.217-2.15-0.65l-0.95-0.699l0.351-1c0.199-0.534,0.716-0.934,1.55-1.2C113.816,65.184,114.767,65.167,115.8,65.4
			z"/>
		<path style="fill-rule:evenodd;clip-rule:evenodd;fill:#57351D;" d="M142.3,69.65c1.167-0.101,2.2,0.316,3.101,1.25l-0.101,1.35
			c-0.1,0.533-0.983,0.95-2.649,1.25c-0.634,0.134-1.367-0.1-2.2-0.7c-0.8-0.566-1.233-1.116-1.3-1.649
			c-0.034-0.5,0.149-0.851,0.55-1.051C140.1,69.9,140.967,69.75,142.3,69.65z"/>
		<path style="fill-rule:evenodd;clip-rule:evenodd;fill:#57351D;" d="M144.8,66.4c0.634-0.067,1.05,0.283,1.25,1.05
			c0.2,0.733,0.15,1.383-0.149,1.95c-0.233,0.466-0.851,0.433-1.851-0.101c-1-0.566-1.5-1.116-1.5-1.649
			c0-0.467,0.184-0.784,0.55-0.95C143.366,66.6,143.934,66.5,144.8,66.4z"/>
		<path style="fill-rule:evenodd;clip-rule:evenodd;fill:#57351D;" d="M169.05,48.65c0.5-0.134,0.967,0.133,1.4,0.8
			c0.467,0.633,0.666,1.366,0.6,2.2c-0.066,0.666-0.25,1.283-0.55,1.85l-0.45,0.65l-0.649,0.1c-0.301,0.066-0.667-0.434-1.101-1.5
			s-0.649-1.9-0.649-2.5c0-0.5,0.133-0.884,0.399-1.15C168.25,48.9,168.583,48.75,169.05,48.65z"/>
		<path style="fill-rule:evenodd;clip-rule:evenodd;fill:#57351D;" d="M171.9,55.15c0.666-0.233,1.133-0.034,1.399,0.6
			c0.167,0.434,0.25,1.184,0.25,2.25c0,0.833-0.316,1.283-0.95,1.35c-0.566,0.101-1.133-0.1-1.699-0.6
			c-0.467-0.4-0.551-1.066-0.25-2C170.917,55.884,171.333,55.35,171.9,55.15z"/>
		<path style="fill-rule:evenodd;clip-rule:evenodd;fill:#57351D;" d="M89.8,56.25c1-0.033,1.467,0.75,1.4,2.35
			c-0.101,1.567-0.65,2.584-1.65,3.051c-0.967,0.399-2.1,0.1-3.4-0.9c-1.267-1-1.767-1.866-1.5-2.6
			C85.05,57.083,86.767,56.45,89.8,56.25z"/>
		<path style="fill-rule:evenodd;clip-rule:evenodd;fill:#57351D;" d="M104.9,58.9c0.399,0.133,0.866,0.449,1.399,0.949
			s0.733,0.851,0.601,1.051c-0.134,0.166-0.601,0.166-1.4,0c-0.833-0.2-1.4-0.45-1.7-0.75c-0.399-0.4-0.517-0.767-0.35-1.101
			C103.616,58.684,104.1,58.634,104.9,58.9z"/>
	</g>
	<g>
		<path style="fill-rule:evenodd;clip-rule:evenodd;fill:#5E574F;" d="M98.65,60.45c0.699,0.434,1.083,1.267,1.149,2.5
			c0.101,1.233-0.217,2.184-0.95,2.85c-0.633,0.566-1.566,0.4-2.8-0.5c-0.6-0.399-1.5-1.233-2.7-2.5
			c-0.767-0.767-0.466-1.583,0.9-2.45C95.65,59.483,97.116,59.517,98.65,60.45z"/>
		<path style="fill-rule:evenodd;clip-rule:evenodd;fill:#5E574F;" d="M65.3,57.7c1.1,0.133,1.85,0.8,2.25,2
			c0.4,1.267-0.1,2.066-1.5,2.399c-1.367,0.334-2.45,0.267-3.25-0.199c-0.667-0.367-1.05-0.884-1.15-1.551
			c-0.033-0.566,0.383-1.166,1.25-1.8C63.767,57.917,64.567,57.634,65.3,57.7z"/>
		<path style="fill-rule:evenodd;clip-rule:evenodd;fill:#5E574F;" d="M47.3,48.45c0.2,0.1,0.95,0.217,2.25,0.35
			c1.267,0.267,2.05,0.816,2.35,1.65c0.333,0.899,0.333,1.55,0,1.95C51.733,52.6,51.033,53,49.8,53.6
			c-0.9,0.434-1.85,0.317-2.85-0.35c-0.767-0.5-1.4-1.184-1.9-2.05c-0.4-0.667-0.316-1.367,0.25-2.101
			C45.833,48.366,46.5,48.15,47.3,48.45z"/>
		<path style="fill-rule:evenodd;clip-rule:evenodd;fill:#5E574F;" d="M35.9,48.7c1,0.133,1.717,0.316,2.15,0.55
			c0.4,0.2,0.6,0.517,0.6,0.95c0,0.934-0.833,1.517-2.5,1.75c-0.733,0.1-1.467,0.033-2.2-0.2l-0.9-0.4l-0.5-0.5
			c-0.433-0.433-0.7-0.767-0.8-1c-0.2-0.433-0.067-0.816,0.4-1.149c0.467-0.3,1.067-0.417,1.8-0.351
			C34.383,48.417,35.033,48.533,35.9,48.7z"/>
		<path style="fill-rule:evenodd;clip-rule:evenodd;fill:#5E574F;" d="M30.8,52.35c0.733,0.134,1.1,0.517,1.1,1.15
			c0,0.667-0.283,1.15-0.85,1.45c-0.867,0.5-1.75,0.083-2.65-1.25c-0.267-0.367-0.117-0.717,0.45-1.05
			C29.383,52.316,30.033,52.217,30.8,52.35z"/>
		<path style="fill-rule:evenodd;clip-rule:evenodd;fill:#5E574F;" d="M11.05,40.95c0.567,0.5,0.983,1.2,1.25,2.1
			c0.233,0.733,0.317,1.334,0.25,1.8c-0.066,0.367-0.25,0.584-0.55,0.65c-0.3,0.033-0.783-0.066-1.45-0.3
			c-0.667-0.233-1.233-0.967-1.7-2.2c-0.467-1.2-0.567-2-0.3-2.4C9.083,39.833,9.917,39.95,11.05,40.95z"/>
		<path style="fill-rule:evenodd;clip-rule:evenodd;fill:#5E574F;" d="M110.15,66.45l0.399-1c0.2-0.533,0.7-0.917,1.5-1.15
			c0.834-0.267,1.783-0.3,2.851-0.1c0.966,0.2,1.483,0.666,1.55,1.399c0.033,0.233-0.066,0.817-0.3,1.75
			c-0.101,0.434-0.4,0.65-0.9,0.65c-0.767-0.1-1.417-0.15-1.95-0.15c-0.7,0-1.434-0.233-2.2-0.699L110.15,66.45z"/>
		<path style="fill-rule:evenodd;clip-rule:evenodd;fill:#5E574F;" d="M141.4,68.45c1.166-0.066,2.216,0.35,3.149,1.25
			c0,0.434-0.05,0.899-0.149,1.399c-0.067,0.534-0.934,0.95-2.601,1.25c-0.666,0.134-1.416-0.116-2.25-0.75
			c-0.767-0.566-1.184-1.116-1.25-1.649c-0.066-0.5,0.101-0.851,0.5-1.05C139.2,68.7,140.066,68.55,141.4,68.45z"/>
		<path style="fill-rule:evenodd;clip-rule:evenodd;fill:#5E574F;" d="M143.9,65.2c0.633-0.033,1.066,0.333,1.3,1.1
			c0.2,0.7,0.149,1.334-0.15,1.9c-0.233,0.467-0.866,0.434-1.899-0.101c-1-0.566-1.5-1.116-1.5-1.649c0-0.467,0.183-0.783,0.55-0.95
			C142.467,65.4,143.033,65.3,143.9,65.2z"/>
		<path style="fill-rule:evenodd;clip-rule:evenodd;fill:#5E574F;" d="M168.15,47.45c0.5-0.134,0.983,0.133,1.449,0.8
			c0.434,0.667,0.617,1.4,0.551,2.2c-0.034,0.7-0.217,1.316-0.551,1.85l-0.449,0.65L168.55,53.1c-0.3,0.034-0.666-0.483-1.1-1.55
			c-0.434-1.033-0.65-1.85-0.65-2.45c0-0.533,0.117-0.916,0.351-1.149C167.316,47.75,167.65,47.583,168.15,47.45z"/>
		<path style="fill-rule:evenodd;clip-rule:evenodd;fill:#5E574F;" d="M171.05,53.95c0.667-0.233,1.117-0.033,1.351,0.6
			c0.166,0.434,0.25,1.2,0.25,2.3c0,0.801-0.301,1.25-0.9,1.351c-0.566,0.066-1.134-0.134-1.7-0.601c-0.467-0.433-0.566-1.1-0.3-2
			C170.05,54.7,170.483,54.15,171.05,53.95z"/>
		<path style="fill-rule:evenodd;clip-rule:evenodd;fill:#5E574F;" d="M88.9,55.1c1-0.066,1.466,0.7,1.399,2.301
			c-0.1,1.6-0.649,2.616-1.649,3.05c-0.967,0.434-2.083,0.133-3.351-0.9c-1.267-1-1.767-1.866-1.5-2.6
			C84.2,55.917,85.9,55.3,88.9,55.1z"/>
		<path style="fill-rule:evenodd;clip-rule:evenodd;fill:#5E574F;" d="M104.05,57.7c0.4,0.133,0.867,0.45,1.4,0.95
			c0.533,0.533,0.733,0.883,0.6,1.05c-0.133,0.2-0.6,0.2-1.399,0c-0.834-0.167-1.417-0.417-1.75-0.75
			c-0.367-0.367-0.467-0.717-0.301-1.05C102.767,57.533,103.25,57.467,104.05,57.7z"/>
	</g>
	<g>
		<path style="fill-rule:evenodd;clip-rule:evenodd;fill:#472B18;" d="M41.7,35.7c0.5,0.133,1.283,0.3,2.35,0.5
			c1.733,0.633,3.85,1.5,6.35,2.6c3.6,1.534,6.1,2.75,7.5,3.65c2.2,1.434,7.417,2.816,15.65,4.149
			c1.034,0.134,1.717-0.149,2.05-0.85c0.167-0.366,0.233-0.75,0.2-1.15c0.1,0.634,0.217,1.351,0.35,2.15
			c0.3,1.566,0.633,2.767,1,3.6l1.75,3.5c-0.9-0.399-1.517-0.816-1.85-1.25c-0.179-0.209-0.413-0.676-0.7-1.399
			c-0.016,0.051-0.032,0.101-0.05,0.149c-0.233,0.667-0.716,1.634-1.45,2.9l-1.05,1.7L73.55,54.6
			c-0.167-0.933-0.716-2.517-1.65-4.75c-0.066,0.667-0.233,1.584-0.5,2.75c-0.133,0.733-0.467,1.551-1,2.45l-0.75,1.15l-0.05-0.9
			c-0.067-0.733-0.167-1.467-0.3-2.2c-0.267-1.166-0.933-2.5-2-4c-0.333,0.4-0.633,1.434-0.9,3.101
			c-0.133,1.033-0.633,2.083-1.5,3.149l-1.25,1.25l0.2-1.899c0.1-1.467,0.083-2.667-0.05-3.601c-0.267-1.5-0.6-2.666-1-3.5
			L62.4,48.7c-0.133,0.467-0.533,1.2-1.2,2.2l-0.9,1.3l-0.15-2.75c-0.066-1.4-0.65-2.65-1.75-3.75l-0.35,1.5
			c-0.167,0.633-0.316,1.6-0.45,2.899l-0.2,1.75l-1.25-1.25c-0.533-0.533-1.033-1.683-1.5-3.449c-0.267-0.9-0.467-1.75-0.6-2.551
			c-0.167,1.733-0.466,3.184-0.9,4.351c-0.233,0.733-0.783,1.416-1.65,2.05l-1.2,0.7l0.1-0.8c0.1-0.7,0.267-1.517,0.5-2.45
			c0.434-1.5,0.15-3.533-0.85-6.101V43.7c0,0.6-0.2,1.217-0.6,1.85l-0.65,0.8l-0.15-1c-0.066-0.666-0.983-1.75-2.75-3.25v1.851
			c0,0.8-0.117,1.649-0.35,2.55l-0.4,1.1L41.9,41.45c-0.4,0.5-0.683,1.25-0.85,2.25c-0.1,0.633-0.066,1.366,0.1,2.2l0.25,1.05
			l-1.35-1.101c-0.5-0.433-1.066-1.466-1.7-3.1c-0.567-1.467-0.917-2.183-1.05-2.15c-0.2,0.033-0.35,0.367-0.45,1
			c-0.067,0.834-0.133,1.45-0.2,1.851L36.4,46.35c-0.167-0.133-0.35-0.366-0.55-0.699c-0.434-0.601-0.783-1.284-1.05-2.051
			c-0.433-1.267-0.65-2.433-0.65-3.5c-0.566,0.4-1.1,1.35-1.6,2.85c-0.3,0.934-0.466,1.967-0.5,3.1l0.1,1.4
			c-0.167-0.167-0.383-0.384-0.65-0.65c-0.467-0.533-0.833-1.066-1.1-1.6c-0.233-0.533-0.217-1.533,0.05-3
			c0.133-0.767,0.283-1.467,0.45-2.1c-0.4,0.4-1.017,1.15-1.85,2.25c-0.533,0.667-0.883,1.601-1.05,2.801l-0.1,1.55L27.05,44.1
			c-0.367-1.1-0.466-2.333-0.3-3.7c0.1-0.667,0.233-1.233,0.4-1.7c-0.233,0.433-1.183,1.183-2.85,2.25
			c-1.033,0.7-1.966,1.066-2.8,1.1l-0.95-0.1l0.5-0.601c0.434-0.466,0.85-0.883,1.25-1.25c0.667-0.6,1.284-1.567,1.85-2.9
			c-0.9,0.6-2.433,1.1-4.6,1.5c-1.367,0.267-2.633,0.2-3.8-0.2l-1.35-0.65h0.9c0.567,0,1.517-0.467,2.85-1.4l-1.6-0.25
			c-0.7-0.1-1.633-0.567-2.8-1.4l-1.6-1.2l-0.1,1l-0.4,1.6l-1.5-1.6C9.517,33.9,9.033,33,8.7,31.9
			c-0.167-0.533-0.267-1.017-0.3-1.45l-0.5,1.4L7.65,34.6l-0.6-0.9c-0.267-0.367-0.517-1.117-0.75-2.25
			c-0.1-0.567-0.183-1.1-0.25-1.6c-0.1,0.4-0.183,1.017-0.25,1.85c-0.066,0.533-0.066,1.25,0,2.15l0.1,1.25l-1-1.65
			c-0.4-0.667-0.617-1.7-0.65-3.1c-0.033-0.7-0.017-1.333,0.05-1.9L3.55,29.1c-0.3,0.267-0.566,0.617-0.8,1.05l-0.2,0.55v-3.75
			c0-2,0.083-3.4,0.25-4.2c0.034,1.533,1.567,2.783,4.6,3.75c1.6,0.533,3.817,1.233,6.65,2.1c1.434,0.8,3.684,1.733,6.75,2.8
			c3.034,1.067,5.867,1.917,8.5,2.55c2.2,0.533,4.184,0.667,5.95,0.4c0.9-0.1,1.583-0.267,2.05-0.5V33.1c0-0.5-0.55-1.467-1.65-2.9
			l1.1,1.3c0.9,1.033,1.75,1.95,2.55,2.75C40.067,35.017,40.867,35.5,41.7,35.7z"/>
		<path style="fill-rule:evenodd;clip-rule:evenodd;fill:#446618;" d="M42.05,34.2c1.733,0.633,3.85,1.5,6.35,2.6
			c3.6,1.534,6.1,2.75,7.5,3.65c2.2,1.434,7.417,2.816,15.65,4.149c1.667,0.233,3.25,0.15,4.75-0.25c0.067,1-0.017,2.2-0.25,3.601
			c-0.167,0.899-0.066,1.816,0.3,2.75l0.55,1.149c-0.667-0.466-1.167-0.916-1.5-1.35c-0.2-0.233-0.367-0.767-0.5-1.6
			c-0.033-0.434-0.066-0.834-0.1-1.2l-0.5,1.649c-0.2,0.667-0.683,1.634-1.45,2.9l-1.05,1.7L71.55,52.6
			c-0.167-0.933-0.716-2.517-1.65-4.75c-0.066,0.667-0.233,1.584-0.5,2.75c-0.133,0.733-0.467,1.551-1,2.45l-0.75,1.15l-0.05-0.9
			c-0.067-0.733-0.167-1.467-0.3-2.2c-0.267-1.166-0.933-2.5-2-4c-0.333,0.4-0.633,1.434-0.9,3.101
			c-0.133,1.033-0.633,2.083-1.5,3.149l-1.25,1.25l0.2-1.899c0.1-1.467,0.083-2.667-0.05-3.601c-0.267-1.5-0.6-2.666-1-3.5
			L60.4,46.7c-0.133,0.467-0.533,1.2-1.2,2.2l-0.9,1.3l-0.15-2.75c-0.066-1.4-0.65-2.65-1.75-3.75l-0.35,1.5
			c-0.167,0.633-0.316,1.6-0.45,2.899l-0.2,1.75l-1.25-1.25c-0.533-0.533-1.033-1.683-1.5-3.449c-0.267-0.9-0.467-1.75-0.6-2.551
			c-0.167,1.733-0.466,3.184-0.9,4.351c-0.233,0.733-0.783,1.416-1.65,2.05l-1.2,0.7l0.1-0.8c0.1-0.7,0.267-1.517,0.5-2.45
			c0.434-1.5,0.15-3.533-0.85-6.1v1.35c0,0.6-0.2,1.217-0.6,1.85l-0.65,0.8l-0.15-1c-0.066-0.666-0.983-1.75-2.75-3.25v1.85
			c0,0.8-0.117,1.649-0.35,2.55l-0.4,1.1L39.9,39.45c-0.4,0.5-0.683,1.25-0.85,2.25c-0.1,0.633-0.066,1.366,0.1,2.2l0.25,1.05
			l-1.35-1.101c-0.5-0.433-1.066-1.466-1.7-3.1c-0.567-1.467-0.917-2.183-1.05-2.15c-0.2,0.033-0.35,0.367-0.45,1
			c-0.067,0.833-0.133,1.45-0.2,1.85L34.4,44.35c-0.167-0.133-0.35-0.366-0.55-0.699c-0.434-0.601-0.783-1.284-1.05-2.051
			c-0.433-1.266-0.65-2.433-0.65-3.5c-0.566,0.4-1.1,1.35-1.6,2.85c-0.3,0.934-0.466,1.967-0.5,3.1l0.1,1.4
			c-0.167-0.167-0.383-0.384-0.65-0.65c-0.467-0.533-0.833-1.066-1.1-1.6c-0.233-0.533-0.217-1.533,0.05-3
			c0.133-0.767,0.283-1.467,0.45-2.1c-0.4,0.4-1.017,1.15-1.85,2.25c-0.533,0.667-0.883,1.6-1.05,2.8l-0.1,1.55L25.05,42.1
			c-0.367-1.1-0.466-2.333-0.3-3.7c0.1-0.667,0.233-1.233,0.4-1.7c-0.233,0.433-1.183,1.183-2.85,2.25
			c-1.033,0.7-1.966,1.066-2.8,1.1l-0.95-0.1l0.5-0.6c0.434-0.467,0.85-0.883,1.25-1.25c0.667-0.6,1.284-1.567,1.85-2.9
			c-0.9,0.6-2.433,1.1-4.6,1.5c-1.367,0.267-2.633,0.2-3.8-0.2l-1.35-0.65h0.9c0.567,0,1.517-0.467,2.85-1.4l-1.6-0.25
			c-0.7-0.1-1.633-0.567-2.8-1.4l-1.6-1.2l-0.1,1l-0.4,1.6l-1.5-1.6C7.517,31.9,7.033,31,6.7,29.9
			c-0.167-0.533-0.267-1.017-0.3-1.45l-0.5,1.4L5.65,32.6l-0.6-0.9c-0.267-0.367-0.517-1.117-0.75-2.25
			c-0.1-0.567-0.183-1.1-0.25-1.6c-0.1,0.4-0.183,1.017-0.25,1.85c-0.066,0.533-0.066,1.25,0,2.15l0.1,1.25l-1-1.65
			c-0.4-0.667-0.617-1.7-0.65-3.1c-0.033-0.7-0.017-1.333,0.05-1.9L1.55,27.1c-0.3,0.267-0.566,0.617-0.8,1.05l-0.2,0.55v-3.75
			c0-2,0.534-4.083,1.6-6.25c0.067,1.633,1.367,3.233,3.9,4.8c1.4,0.867,3.4,1.9,6,3.1c1.434,0.8,3.684,1.733,6.75,2.8
			c3.034,1.067,5.867,1.917,8.5,2.55c2.2,0.533,4.184,0.667,5.95,0.4c0.9-0.1,1.583-0.267,2.05-0.5V31.1c0-0.5-0.55-1.467-1.65-2.9
			l1.25,0.55c0.967,0.533,1.85,1.183,2.65,1.95c1.133,1.167,1.9,1.917,2.3,2.25C40.517,33.517,41.25,33.933,42.05,34.2z"/>
		<g>
			<path style="fill-rule:evenodd;clip-rule:evenodd;fill:#476918;" d="M13.75,35.75c1.067,0.2,2.083,0.2,3.05,0
				c1.869-0.374,3.452-0.524,4.75-0.45c-0.441,0.034-0.791,0.25-1.05,0.65c-0.933,0.333-1.917,0.583-2.95,0.75
				c-1.367,0.267-2.633,0.2-3.8-0.2l-1.35-0.65h0.9L13.75,35.75z"/>
			<path style="fill-rule:evenodd;clip-rule:evenodd;fill:#476918;" d="M34.55,37.6c0.1,0,0.3,0.35,0.6,1.05
				c-0.133,0.133-0.233,0.5-0.3,1.1c-0.067,0.767-0.133,1.333-0.2,1.7L34.4,44.35c-0.267-0.233-0.55-0.6-0.85-1.1l0.1,0.1l0.25-2.85
				c0.067-0.4,0.133-1.017,0.2-1.85C34.2,38.017,34.35,37.667,34.55,37.6z"/>
			<path style="fill-rule:evenodd;clip-rule:evenodd;fill:#476918;" d="M25.05,36.1c-0.633,0.333-0.983,0.9-1.05,1.7
				c-0.567,0.434-1.133,0.817-1.7,1.15c-1.033,0.7-1.966,1.066-2.8,1.1l-0.95-0.1l0.8-0.95c0.733-0.2,1.467-0.533,2.2-1
				C23.217,36.9,24.383,36.267,25.05,36.1z"/>
			<path style="fill-rule:evenodd;clip-rule:evenodd;fill:#476918;" d="M31.4,37.1l0.2,1.65c-0.434,0.633-0.783,1.367-1.05,2.2
				c-0.3,0.934-0.466,1.967-0.5,3.1l0.1,1.4c-0.5-0.467-0.967-1.017-1.4-1.65l0.65,0.7l-0.1-1.4c0.034-1.133,0.2-2.167,0.5-3.1
				C30.3,38.5,30.833,37.533,31.4,37.1z"/>
			<path style="fill-rule:evenodd;clip-rule:evenodd;fill:#476918;" d="M2.75,20.5c-0.367-0.367-0.65-0.75-0.85-1.15l0.25-0.65
				C2.217,19.367,2.417,19.967,2.75,20.5z"/>
			<path style="fill-rule:evenodd;clip-rule:evenodd;fill:#476918;" d="M1.55,25.5c-0.066,0.467-0.083,1.017-0.05,1.65
				c-0.3,0.267-0.55,0.6-0.75,1l-0.2,0.55v-2.3l0.25-0.3L1.55,25.5z"/>
			<path style="fill-rule:evenodd;clip-rule:evenodd;fill:#476918;" d="M3.8,29.7c-0.066,0.533-0.066,1.25,0,2.15l0.1,1.25
				l-0.75-1.25c-0.133-1.5-0.167-2.533-0.1-3.1c0.067-0.833,0.15-1.467,0.25-1.9c0.133,1,0.3,1.9,0.5,2.7V29.7z"/>
			<path style="fill-rule:evenodd;clip-rule:evenodd;fill:#476918;" d="M5.3,28.35l0.35-0.85c0.067,0.533,0.217,1.117,0.45,1.75
				l-0.05,0.1l-0.15,0.5L5.65,32.6l-0.7-1.05c0-1.2,0.066-2.1,0.2-2.7L5.3,28.35z"/>
			<path style="fill-rule:evenodd;clip-rule:evenodd;fill:#476918;" d="M10.05,32.6l-0.4,1.6l-1.5-1.6L7.5,31.7l1.4,1.55l0.4-1.65
				l0.1-1l1.6,1.25c1.167,0.833,2.1,1.3,2.8,1.4c1.067,0.167,1.983,0.533,2.75,1.1c-1.066-0.333-1.8-0.383-2.2-0.15
				c-0.7-0.167-1.6-0.65-2.7-1.45l-1.5-1.15L10.05,32.6z"/>
			<path style="fill-rule:evenodd;clip-rule:evenodd;fill:#476918;" d="M26.3,39.35c0.833-1.067,1.45-1.817,1.85-2.25
				c-0.2,0.8-0.367,1.633-0.5,2.5l-0.6,0.75c-0.533,0.667-0.883,1.6-1.05,2.8l-0.1,1.55l-0.7-2.05
				C25.367,41.217,25.733,40.117,26.3,39.35z"/>
			<path style="fill-rule:evenodd;clip-rule:evenodd;fill:#476918;" d="M64.55,46.1l0.7,1.101c-0.333,0.434-0.617,1.434-0.85,3
				c-0.133,1.033-0.633,2.083-1.5,3.149l-1.25,1.25l0.2-1.899c1.033-1.2,1.633-2.351,1.8-3.45
				C63.917,47.583,64.217,46.533,64.55,46.1z"/>
			<path style="fill-rule:evenodd;clip-rule:evenodd;fill:#476918;" d="M60.05,44.6c0.167,0.367,0.35,0.884,0.55,1.551l-0.2,0.55
				c-0.133,0.467-0.533,1.2-1.2,2.2l-0.9,1.3l-0.1-1.9c0.8-1.166,1.283-2.017,1.45-2.55L60.05,44.6z"/>
			<path style="fill-rule:evenodd;clip-rule:evenodd;fill:#476918;" d="M69.15,46.85l0.65,1.65l-0.4,2.1
				c-0.133,0.733-0.467,1.551-1,2.45l-0.75,1.15L67.5,52.35c0.567-0.899,0.95-1.816,1.15-2.75
				C68.917,48.434,69.083,47.517,69.15,46.85z"/>
			<path style="fill-rule:evenodd;clip-rule:evenodd;fill:#476918;" d="M71.8,53.95l-0.3-1.601c1.133-1.866,1.817-3.199,2.05-4
				l0.5-1.6c0.067,0.9,0.184,1.634,0.35,2.2l-0.1,0.399c-0.2,0.667-0.683,1.634-1.45,2.9L71.8,53.95z"/>
			<path style="fill-rule:evenodd;clip-rule:evenodd;fill:#476918;" d="M75.6,49.7c-0.367-0.934-0.467-1.834-0.3-2.7
				c0.167-0.833,0.25-1.667,0.25-2.5l0.75-0.15c0.067,1-0.017,2.2-0.25,3.601c-0.167,0.899-0.066,1.816,0.3,2.75l0.55,1.149
				c-0.667-0.466-1.167-0.916-1.5-1.35l-0.2-0.4l0.95,0.75L75.6,49.7z"/>
			<path style="fill-rule:evenodd;clip-rule:evenodd;fill:#476918;" d="M39.8,39.6c-0.4,0.6-0.65,1.3-0.75,2.1
				c-0.1,0.633-0.066,1.366,0.1,2.2l0.25,1.05l-1.35-1.101c-0.233-0.199-0.5-0.533-0.8-1h0.05L38.65,44l-0.25-1.05
				c-0.167-0.834-0.2-1.566-0.1-2.2c0.167-1,0.45-1.75,0.85-2.25L39.8,39.6z"/>
			<path style="fill-rule:evenodd;clip-rule:evenodd;fill:#476918;" d="M45.7,41.85l-1.8-1.75v1.85c0,0.8-0.117,1.649-0.35,2.55
				l-0.4,1.1l-0.6-1.25c0.4-1.199,0.6-2.316,0.6-3.35v-1.9C44.417,40.2,45.267,41.116,45.7,41.85z"/>
			<path style="fill-rule:evenodd;clip-rule:evenodd;fill:#476918;" d="M48,41.85c-0.033,0.534-0.233,1.117-0.6,1.75l-0.6,0.75
				l-0.15-1c0-0.066-0.066-0.233-0.2-0.5c0.566-0.699,0.85-1.399,0.85-2.1v-1.4C47.567,40.083,47.8,40.917,48,41.85z"/>
			<path style="fill-rule:evenodd;clip-rule:evenodd;fill:#476918;" d="M51.3,41.6c0.133,0.767,0.317,1.567,0.55,2.4
				c-0.233,1.333-0.467,2.316-0.7,2.95c-0.233,0.733-0.783,1.416-1.65,2.05l-1.2,0.7l0.2-1.5c0.967-0.634,1.6-1.367,1.9-2.2
				C50.833,44.833,51.133,43.366,51.3,41.6z"/>
			<path style="fill-rule:evenodd;clip-rule:evenodd;fill:#476918;" d="M56.5,43.8l-0.1-0.1l-0.35,1.5
				c-0.167,0.633-0.316,1.6-0.45,2.899l-0.2,1.75l-1.25-1.25l-0.5-0.75l1,1l0.2-1.75c0.133-1.267,0.283-2.216,0.45-2.85l0.35-1.5
				L56.5,43.8z"/>
		</g>
	</g>
	<g>
		<path style="fill-rule:evenodd;clip-rule:evenodd;fill:#633B21;" d="M70.55,13.35l1.85-0.5c1.367-0.333,2.367-0.5,3-0.5
			c0.7,0,1.333,0.1,1.9,0.3c0.3,0.1,1.05,0.417,2.25,0.95c0.867,0.367,0.65,0.883-0.65,1.55c-1.066,0.533-2.15,0.883-3.25,1.05
			C74.517,16.4,72.817,15.45,70.55,13.35z"/>
		<path style="fill-rule:evenodd;clip-rule:evenodd;fill:#633B21;" d="M98.9,43.6l2.25-0.6c1.666-0.434,2.966-0.65,3.899-0.65
			c1.033,0,1.983,0.233,2.851,0.7c0.533,0.3,1.366,0.9,2.5,1.8c0.933,0.733,0.983,1.25,0.149,1.551
			c-0.767,0.3-2.184,0.366-4.25,0.199c-1.833-0.166-3.483-0.583-4.95-1.25C100.083,44.783,99.267,44.2,98.9,43.6z"/>
		<path style="fill-rule:evenodd;clip-rule:evenodd;fill:#633B21;" d="M123.15,35.1c1.533,0.3,3,0.983,4.399,2.05
			c0.767,0.533,1.517,1.184,2.25,1.95c0.334,0.267,0.101,0.683-0.7,1.25c-0.666,0.467-1.517,0.883-2.55,1.25
			c-1.666,0.567-4.25,0.317-7.75-0.75c-1.6-0.5-3.25-1.35-4.95-2.55c-1.666-1.167-2.733-2.2-3.199-3.1l4.899-0.35
			C119.116,34.717,121.65,34.8,123.15,35.1z"/>
		<path style="fill-rule:evenodd;clip-rule:evenodd;fill:#633B21;" d="M162,29.65c0.3-0.767,1.066-0.867,2.3-0.3
			c1.4,0.633,2.167,1.267,2.3,1.9c0.134,0.567-0.216,0.85-1.05,0.85c-0.8,0-1.566-0.117-2.3-0.35c-0.767-0.233-1.217-0.5-1.35-0.8
			L162,29.65z"/>
	</g>
	<g>
		<path style="fill-rule:evenodd;clip-rule:evenodd;fill:#6E655C;" d="M127.9,38.35c-0.334,0.333-0.784,0.667-1.351,1
			c-1.166,0.667-2.383,1-3.649,1c-3.034,0-5.867-0.583-8.5-1.75c-1.567-0.7-3.15-2.117-4.75-4.25c-0.4-0.533-0.417-1.15-0.051-1.85
			c0.434-0.767,1.117-1.15,2.051-1.15c0.666,0,1.933-0.217,3.8-0.65c1.8-0.267,3.366-0.05,4.7,0.65
			C124.95,33.917,127.533,36.25,127.9,38.35z"/>
		<path style="fill-rule:evenodd;clip-rule:evenodd;fill:#6E655C;" d="M102.4,39.6c0.699,0,1.683,0.417,2.949,1.25
			c1.134,0.766,2.233,1.683,3.301,2.75c1.5,1.5,0.166,2.25-4,2.25c-1.5,0-3.15-0.433-4.95-1.3c-1.967-0.899-3.066-1.883-3.3-2.95
			c-0.2-0.966,0.449-1.583,1.949-1.85C98.95,39.65,100.3,39.6,102.4,39.6z"/>
		<path style="fill-rule:evenodd;clip-rule:evenodd;fill:#6E655C;" d="M73.3,10.7c1,0.1,1.817,0.333,2.45,0.7
			c0.267,0.133,0.783,0.483,1.55,1.05c0.434,0.3,0.317,0.716-0.35,1.25c-0.934,0.6-1.567,1.017-1.9,1.25
			c-0.533,0.4-1.483,0.417-2.85,0.05c-1.434-0.367-2.567-0.967-3.4-1.8c-0.833-0.833-0.683-1.5,0.45-2
			C70.317,10.7,71.667,10.533,73.3,10.7z"/>
		<path style="fill-rule:evenodd;clip-rule:evenodd;fill:#6E655C;" d="M162.65,26.85c2,1.1,2.866,2.1,2.6,3
			c-0.2,0.667-0.9,1.167-2.1,1.5c-0.733,0.2-1.634-0.133-2.7-1c-0.134-0.1-0.983-0.934-2.55-2.5c-0.733-0.733-0.417-1.25,0.949-1.55
			C160.217,26,161.483,26.183,162.65,26.85z"/>
		<path style="fill-rule:evenodd;clip-rule:evenodd;fill:#857A6F;" d="M73.3,10.7l0.45,0.1c-0.4,0.133-0.85,0.383-1.35,0.75
			c-0.5,0.4-0.85,0.667-1.05,0.8c-0.3,0.2-0.567,0.283-0.8,0.25c-0.7-0.167-1.083-0.25-1.15-0.25c-0.533-0.033-0.85-0.2-0.95-0.5
			c0.267-0.434,0.883-0.767,1.85-1C71.233,10.65,72.233,10.6,73.3,10.7z"/>
		<path style="fill-rule:evenodd;clip-rule:evenodd;fill:#857A6F;" d="M102.4,39.6c0.633,0.033,0.949,0.133,0.949,0.3
			c0,0.133-0.199,0.25-0.6,0.35c-0.267,0.1-0.467,0.5-0.6,1.2L102,42.5c-0.2-0.134-0.4-0.3-0.6-0.5c-0.434-0.4-0.65-0.733-0.65-1
			c0-0.5-0.384-0.75-1.15-0.75c-1,0-1.733,0.25-2.199,0.75c-0.2,0.267-0.334,0.384-0.4,0.35c-0.066,0-0.184-0.133-0.35-0.399
			c-0.134-0.267-0.067-0.483,0.199-0.65c0.233-0.133,0.834-0.316,1.801-0.55C99.583,39.55,100.833,39.5,102.4,39.6z"/>
		<path style="fill-rule:evenodd;clip-rule:evenodd;fill:#857A6F;" d="M113.4,31.2l-1.5,1.5c-0.301,0.333-0.5,0.517-0.601,0.55
			c-0.033,0-0.3-0.083-0.8-0.25c-0.4-0.1-0.55-0.333-0.45-0.7c0.066-0.333,0.267-0.6,0.601-0.8C111.05,31.3,111.967,31.2,113.4,31.2
			z"/>
		<path style="fill-rule:evenodd;clip-rule:evenodd;fill:#857A6F;" d="M118.6,30.7c0.5,0.033,0.917,0.167,1.25,0.4
			c0.167,0.1,0.267,0.183,0.301,0.25c-1.5,0.167-2.334,0.3-2.5,0.4c-0.101,0.1-0.351,0.467-0.75,1.1
			c-0.367,0.566-0.617,0.983-0.75,1.25c-0.067,0.2-0.367,0.233-0.9,0.1c-0.5-0.1-0.967-0.267-1.4-0.5
			c-0.399-0.233-0.699-0.55-0.899-0.95c-0.233-0.433-0.267-0.783-0.101-1.05c0.134-0.267,0.351-0.434,0.65-0.5
			c0.233-0.034,0.7-0.1,1.4-0.2C116.9,30.767,118.134,30.667,118.6,30.7z"/>
		<path style="fill-rule:evenodd;clip-rule:evenodd;fill:#857A6F;" d="M161.5,26.5l-1.9,0.7c-0.366,0-0.716,0-1.05,0
			c-0.7-0.034-1.017-0.117-0.95-0.25c0.101-0.2,0.334-0.383,0.7-0.55c0.434-0.2,0.917-0.3,1.45-0.3
			C160.517,26.1,161.1,26.233,161.5,26.5z"/>
		<path style="fill-rule:evenodd;clip-rule:evenodd;fill:#544E47;" d="M69.55,13.85l2.5,0.85c0.633,0.2,1.25,0.167,1.85-0.1
			c0.367-0.167,0.633-0.467,0.8-0.9l1.4-0.1c0.633-0.033,1.033-0.417,1.2-1.15l0.35,0.7l-0.5,0.5c-0.2,0.2-0.517,0.417-0.95,0.65
			c-0.6,0.333-0.983,0.55-1.15,0.65c-0.333,0.233-0.633,0.367-0.9,0.4c-0.133,0.033-0.533,0.05-1.2,0.05
			c-0.467,0-1.184-0.25-2.15-0.75L69.55,13.85z"/>
		<path style="fill-rule:evenodd;clip-rule:evenodd;fill:#544E47;" d="M106.55,43.8c0.167-0.2,0.334-0.316,0.5-0.35
			c0.134,0,0.316,0.116,0.55,0.35s0.434,0.334,0.601,0.3c0.333-0.033,0.483-0.199,0.45-0.5c0.366,0.233,0.633,0.5,0.8,0.801
			c0.1,0.199,0.133,0.333,0.1,0.399c-0.166,0.134-0.333,0.267-0.5,0.4c-0.533,0.467-1.866,0.7-4,0.7c-1,0-1.95-0.134-2.85-0.4
			l-1.101-0.4c0.233,0.034,0.717,0.051,1.45,0.051c0.7,0,1.117-0.017,1.25-0.051l0.75-0.3c0.5-0.166,0.934-0.283,1.3-0.35
			c0.367-0.033,0.534-0.084,0.5-0.15c-0.066-0.066-0.083-0.116-0.05-0.149L106.55,43.8z"/>
		<path style="fill-rule:evenodd;clip-rule:evenodd;fill:#544E47;" d="M103.15,44.1c0.366-0.1,0.55-0.033,0.55,0.2
			c0,0.267-0.2,0.434-0.601,0.5c-0.399,0.033-0.583-0.05-0.55-0.25S102.783,44.2,103.15,44.1z"/>
		<path style="fill-rule:evenodd;clip-rule:evenodd;fill:#544E47;" d="M125.4,36.05c0.066-0.2,0.116-0.466,0.149-0.8
			c0.033-0.167,0.2-0.133,0.5,0.1c0.434,0.367,1.101,1.15,2,2.35l0.15,1.1l-1.851,0.9c-0.833,0.433-1.649,0.667-2.449,0.7
			c-0.267,0.033-1.284,0.017-3.051-0.05c-1.133-0.067-2.55-0.383-4.25-0.95l-2.199-0.8c0.267,0,1.283,0.2,3.05,0.6
			c0.233,0.066,0.6,0.05,1.1-0.05c0.566-0.133,1.033-0.2,1.4-0.2c0.5,0,0.899-0.05,1.2-0.15c0.199-0.033,0.433-0.1,0.699-0.2
			c0.334-0.1,0.75-0.45,1.25-1.05c0.2-0.267,0.45-0.333,0.75-0.2c0.4,0.167,0.634,0.25,0.7,0.25c0.2-0.033,0.384-0.217,0.55-0.55
			C125.167,36.85,125.267,36.517,125.4,36.05z"/>
		<path style="fill-rule:evenodd;clip-rule:evenodd;fill:#544E47;" d="M117.95,37.7c1.166,0.133,1.566,0.367,1.2,0.7
			c-0.233,0.2-0.483,0.267-0.75,0.2c-0.367-0.133-0.684-0.217-0.95-0.25c-0.367-0.067-0.45-0.2-0.25-0.4
			C117.366,37.783,117.616,37.7,117.95,37.7z"/>
		<path style="fill-rule:evenodd;clip-rule:evenodd;fill:#544E47;" d="M120.6,37.85c0.233,0.033,0.367,0.117,0.4,0.25
			c0.033,0.167-0.083,0.267-0.35,0.3c-0.267,0.067-0.4-0.017-0.4-0.25C120.217,37.917,120.333,37.817,120.6,37.85z"/>
		<path style="fill-rule:evenodd;clip-rule:evenodd;fill:#544E47;" d="M162.55,30.4c0.2-0.033,0.45-0.167,0.75-0.4
			c0.4-0.3,0.733-0.517,1-0.65c0.566-0.3,0.917-0.217,1.05,0.25c0,0.333-0.1,0.617-0.3,0.85c-0.666,0.733-1.566,1.066-2.7,1
			c-0.6-0.034-1.283-0.383-2.05-1.05l-0.95-1.05l1.25,0.6h0.25c0.233,0.033,0.417,0.117,0.551,0.25c0.199,0.167,0.366,0.267,0.5,0.3
			C162.033,30.5,162.25,30.467,162.55,30.4z"/>
		<path style="fill-rule:evenodd;clip-rule:evenodd;fill:#544E47;" d="M162.15,29.3c0.199,0.1,0.216,0.233,0.05,0.4
			c-0.2,0.167-0.384,0.233-0.55,0.2c-0.167-0.033-0.184-0.183-0.051-0.45C161.733,29.183,161.917,29.133,162.15,29.3z"/>
	</g>
</g>
</svg>
