<?xml version="1.0" encoding="iso-8859-1"?>
<!-- Generator: Adobe Illustrator 15.1.0, SVG Export Plug-In . SVG Version: 6.00 Build 0)  -->
<!DOCTYPE svg PUBLIC "-//W3C//DTD SVG 1.1//EN" "http://www.w3.org/Graphics/SVG/1.1/DTD/svg11.dtd">
<svg version="1.1" id="FlashAICB" xmlns="http://www.w3.org/2000/svg" xmlns:xlink="http://www.w3.org/1999/xlink" x="0px" y="0px"
	 width="246.4px" height="84.65px" viewBox="0 0 246.4 84.65" style="enable-background:new 0 0 246.4 84.65;" xml:space="preserve"
	>
<g>
	<g>
		<path style="fill-rule:evenodd;clip-rule:evenodd;fill:#633B21;" d="M220.3,18.35c1.867,0.9,4.5,1.633,7.9,2.2
			c3.666,0.6,6.25,1.184,7.75,1.75c2.1,0.8,3.767,2.05,5,3.75c2.066,1,3.55,2.583,4.45,4.75c0.732,1.7,1.066,3.9,1,6.6
			c-0.034,1.033-0.233,3.317-0.601,6.85c-0.267,2.3-0.85,4.116-1.75,5.45c-0.267,0.899-0.684,1.6-1.25,2.1
			c-0.233,0.233-0.667,0.434-1.3,0.601c-1.033,1-1.983,2-2.85,3c-0.5,0.633-1.167,1.649-2,3.05c-0.7,1.2-1.4,2.149-2.101,2.85
			c-0.899,0.9-2.366,1.584-4.399,2.05c-2.268,0.4-3.867,0.75-4.801,1.051c-2.233,0.699-5.25,2.033-9.05,4
			c-0.633,0.399-1.35,0.75-2.149,1.05c-2.534,1.233-4.684,2.133-6.45,2.7c-2.4,0.767-4.75,1.133-7.05,1.1
			c-3.301-0.233-5.801-0.4-7.5-0.5L187.3,73.2l-0.5,0.2c-0.434,0.166-0.866,0.55-1.3,1.149c-0.5,0.634-0.9,1.017-1.2,1.15
			c-0.399,0.166-1,0.2-1.8,0.1c-0.934-0.066-1.55-0.083-1.85-0.05c-0.967,0.134-2.134,0.384-3.5,0.75
			c-1.534,0.366-2.667,0.616-3.4,0.75c-0.4,0.1-1.017,0.1-1.85,0c-0.867-0.1-1.5-0.116-1.9-0.05c-0.367,0.767-0.816,1.366-1.35,1.8
			c-1.7,1.333-3.733,2.134-6.101,2.4c-1.133,0.133-3.434,0.133-6.899,0c-2.4-0.067-6.134-0.334-11.2-0.801l-1.2,0.25
			c-1.367,0.634-2.35,1.084-2.95,1.351c-1.033,0.467-2.167,0.666-3.399,0.6c-2.5-0.3-4.351-0.5-5.551-0.6
			c-2.033-0.2-3.883-0.15-5.55,0.149c-0.3,0.067-1.05,0.367-2.25,0.9c-0.933,0.434-1.7,0.616-2.3,0.55c-0.3-0.033-0.7-0.3-1.2-0.8
			c-0.5-0.533-0.883-0.816-1.15-0.85c-1.6-0.233-3.466-0.184-5.6,0.149c-4.9,1.634-8.417,2.417-10.55,2.351
			c-1.8-0.034-3.816-0.467-6.05-1.301c-0.9-0.333-2.9-1.199-6-2.6c-2.534-0.8-6.684-1.667-12.45-2.6
			c-5.367-0.9-9.483-1.867-12.35-2.9c-3.767-1.333-8.133-2.15-13.1-2.45c-0.833-0.066-3.267,0.15-7.3,0.65
			c-3.033,0.399-5.316,0.217-6.85-0.55c-1.733-0.834-3.367-2.034-4.9-3.601c-0.934-0.934-2.233-2.483-3.9-4.649
			c-0.633-0.834-1.534-1.733-2.7-2.7c-1.367-1.066-2.4-1.867-3.1-2.4c-1.5-0.3-2.633-0.533-3.4-0.7c-1.333-0.3-2.433-0.666-3.3-1.1
			c-2.133-1.033-3.434-2.45-3.9-4.25c-0.667-2.434-1.333-4.033-2-4.8C10.717,47.833,9.2,46.934,6.9,46
			c-1.966-0.8-3.333-2.033-4.1-3.7c-1.333-2.933-2.066-6.433-2.2-10.5c-0.167-4.533,0.55-8.083,2.15-10.65l-2,1.3L0.8,21.2
			c0.567-9.067,9.467-14.733,26.7-17c5.767-0.733,12.667-1.117,20.7-1.15c4.3,0,9.483,0.067,15.55,0.2c7.033,0,17.566-0.1,31.6-0.3
			C109.383,2.717,119.9,2.6,126.9,2.6c5.732,0,14.482-0.133,26.25-0.4c10.333,0.033,19.033,0.783,26.1,2.25
			C193.783,7.55,207.467,12.183,220.3,18.35z"/>
		<g>
			<path style="fill-rule:evenodd;clip-rule:evenodd;fill:#57351D;" d="M84,79.1L81.8,78.7c0.1-0.134,0.317-0.566,0.65-1.3
				c0.267-0.534,0.533-0.884,0.8-1.051c1.333-0.866,3.267-1.3,5.8-1.3c1.4,0,3.483,0.084,6.25,0.25c0.4-0.8,0.667-1.883,0.8-3.25
				c0.2-2.1,0.316-3.217,0.35-3.35c0.966,0.3,2.233,1.733,3.8,4.3c1.6,2.6,2.25,4.366,1.95,5.3c2,0.967,5.167,0.983,9.5,0.05
				c4.066-0.866,7.066-2.05,9-3.55l0.25,1.4c1.633-0.3,2.899,0.283,3.8,1.75c0.6-0.601,1.233-1.566,1.9-2.9
				c0.699-1.533,1.267-2.566,1.699-3.1c0,0.133,0.067,0.45,0.2,0.95c0.134,0.533,0.2,0.933,0.2,1.199
				c0.167-0.5,0.583-1.149,1.25-1.949c0.767-0.9,1.4-1.334,1.9-1.301c0.899,0.101,1.35,0.517,1.35,1.25
				c-0.033,1.301-0.017,2.034,0.05,2.2c0.667,1.834,1.417,2.834,2.25,3c0.601,0.101,2.15,0.25,4.65,0.45
				c0.033-0.833,0.05-2.217,0.05-4.15c0-1.8,0.033-3.183,0.1-4.149c0.233,0.133,0.934,0.316,2.101,0.55
				c0.967,0.2,1.55,0.434,1.75,0.7c0.3,0.366,0.45,1.2,0.45,2.5c0.033,1.3,0.232,2.2,0.6,2.7c0.267-0.167,0.767-0.351,1.5-0.551
				c0.7-0.199,1.15-0.366,1.35-0.5c0.167,0.267,0.117,0.417-0.149,0.45c0.833,0.2,1.717,0.134,2.649-0.2
				c0.834-0.3,1.567-0.733,2.2-1.3c0.467,2,0.833,3.15,1.101,3.45c0.433,0.434,1.683,0.816,3.75,1.15
				c0.366,0.066,1.149,0.233,2.35,0.5c1.167,0.233,2.066,0.383,2.7,0.449c-2.533,0.801-5.517,1.084-8.95,0.851
				c-4.066-0.5-7.2-0.834-9.4-1L144.2,77.85c-1-0.3-1.767-0.267-2.3,0.101c-0.567,0.399-0.801,1.116-0.7,2.149
				c-1.8,0.267-3.817,0.217-6.05-0.149c-2.067-0.334-4-0.867-5.801-1.601c-0.166-0.066-0.283-0.5-0.35-1.3
				c-0.033-0.666-0.45-0.934-1.25-0.8c-0.3,0.033-0.533,0.283-0.7,0.75c-0.2,0.5-0.417,0.8-0.649,0.9
				c-0.5,0.233-1.084,0.699-1.75,1.399c-0.467,0.5-1.25,0.816-2.351,0.95c-1.2,0.167-3.533,0.267-7,0.3
				c-2.9,0.066-5.25,0.3-7.05,0.7c-3.833,0.9-6.4,1.283-7.7,1.15c-2.8-0.233-4.083-1.917-3.85-5.051
				C92.4,78.384,88.167,78.967,84,79.1z"/>
			<path style="fill-rule:evenodd;clip-rule:evenodd;fill:#57351D;" d="M200.5,67.7c0.094-0.095,0.277-0.277,0.55-0.55
				c0.4-0.367,0.601-0.483,0.601-0.351l-0.101,0.15L200.5,67.7z"/>
			<path style="fill-rule:evenodd;clip-rule:evenodd;fill:#57351D;" d="M172.9,67.85c1.267-1.3,1.732-2.833,1.399-4.6l-1-0.5
				c-1.333,1.333-2.3,2.3-2.899,2.9c-1.101,1.033-1.784,2.183-2.051,3.449C170.116,69.634,171.633,69.217,172.9,67.85z
				 M214.35,62.25c2.801-0.9,4.934-1.25,6.4-1.05c-0.267,1.033-1.617,2.133-4.05,3.3c-2.8,1.167-4.601,1.934-5.4,2.3
				c-0.733,0.334-2.3,1.367-4.7,3.101c-1.6,1.133-3.199,1.75-4.8,1.85c-4.1,0.1-7.184,0.184-9.25,0.25
				c-3.633,0.134-6.583,0.667-8.85,1.6c-0.4,0.167-1.05,0.584-1.95,1.25c-0.733,0.5-1.45,0.817-2.15,0.95
				c-0.833,0.167-2.05,0.101-3.649-0.2c-1.634-0.3-2.851-0.399-3.65-0.3c-1.3,0.167-3.25,0.95-5.85,2.351
				c0.7-0.9,1.083-1.367,1.149-1.4c0.467-0.533,1-0.9,1.601-1.1c0.767-0.301,1.95-0.417,3.55-0.351c1.8,0.101,3.066,0.066,3.8-0.1
				c0.667-0.134,1.783-0.351,3.351-0.65c1.366-0.267,2.366-0.55,3-0.85c0.633-0.267,1.55-0.9,2.75-1.9
				c0.866-0.733,1.916-1.2,3.149-1.399c1.167-0.2,3.483-0.317,6.95-0.351c3.1-0.233,5.033-1.1,5.8-2.6l0.351-0.2
				c-0.867-0.366-2.018-0.566-3.45-0.6c-1.667,0.066-2.917,0.1-3.75,0.1c0.733-0.634,0.983-1.45,0.75-2.45
				c0.2-0.399,0.35-0.833,0.45-1.3c-1.4,0.066-3.5,0.5-6.301,1.3c-2.767,0.767-4.883,1.184-6.35,1.25
				c1.633-0.733,3.133-1.75,4.5-3.05c-1.833,1.3-3.967,2.616-6.4,3.95c-3.233,0.7-4.967,1.566-5.199,2.6l-3.2,1.3l-0.7,0.101V70.1
				c-3.833,1.434-7.184,2.217-10.05,2.351c1.833-0.667,3.5-1.75,5-3.25c1.733-1.7,2.55-3.334,2.45-4.9
				c-2.233,1.2-3.917,2.101-5.051,2.7c-2.033,1.066-3.8,1.55-5.3,1.45c0.3-0.533,0.434-1.15,0.4-1.851
				c-0.067-0.767-0.101-1.366-0.101-1.8c-1,0.134-1.717-0.1-2.149-0.7c-0.4-0.533-0.517-1.283-0.351-2.25
				c-0.366,0.034-1,0.017-1.899-0.05c-0.867-0.1-1.5-0.116-1.9-0.05c-0.066-0.9-0.05-1.55,0.05-1.95
				c-3.967,0.533-7.699,0.684-11.199,0.45c0-0.167-0.101-0.483-0.301-0.95c-0.166-0.434-0.25-0.767-0.25-1
				c-3.267,0.4-5.399-0.583-6.399-2.95c-0.8-0.166-1.517-0.233-2.15-0.199c-1.733,3.8-3.316,7.616-4.75,11.449
				c0-1.533-1.149-2.783-3.45-3.75c-2.233-0.966-3.316-2.466-3.25-4.5c-0.233,0-0.633-0.083-1.2-0.25
				c-0.533-0.199-0.883-0.3-1.05-0.3c0.4-0.233,0.983-0.717,1.75-1.45c-1.667,0.167-3.083-0.066-4.25-0.699
				c-0.733,0.533-1.733,1.033-3,1.5l-0.1,0.05c-0.533,0.066-1.133,0.25-1.8,0.55c-3.434,0.767-5.467,0.017-6.1-2.25
				c-1.4,1.033-2.483,1.767-3.25,2.2c-1,0.566-2.15,1.1-3.45,1.6c-1.233,0.3-1.983,0.483-2.25,0.55c-0.367,0.101-0.9,0.584-1.6,1.45
				c-0.6,0.667-1.133,1.783-1.6,3.351c-0.467,1.533-0.917,2.55-1.35,3.05c0.566-2.934,0.483-6.217-0.25-9.851
				c-0.8-0.066-2.017-0.083-3.65-0.05c-1.634,0-2.85-0.033-3.65-0.1c0.034-0.2,0.017-0.5-0.05-0.9
				c-0.033-0.467-0.05-0.783-0.05-0.95c-1.4-0.066-2.5-0.133-3.3-0.199c-1.466-0.134-2.517-0.384-3.15-0.75
				c-0.367-0.2-0.517-0.617-0.45-1.25c0.067-0.667-0.1-1.101-0.5-1.301c-0.633-0.333-1.667-0.449-3.1-0.35
				c-1.6,0.2-2.7,0.283-3.3,0.25c-0.233-0.967-0.333-1.616-0.3-1.95c-2.3,0.2-4.034,0.3-5.2,0.3c-2.133-0.066-3.316-0.833-3.55-2.3
				c-0.2,0.167-1.867,1.084-5,2.75c-1.667,0.9-2.684,2.467-3.05,4.7c-0.133,0.767-0.233,1.684-0.3,2.75
				c-0.033,1.233,0.017,2.15,0.15,2.75c0.233,0.934,1.017,2.033,2.35,3.3c1.4,1.334,2.283,2.517,2.65,3.55l-0.8,0.551
				c1.2,1.133,2.983,3.066,5.35,5.8l-1.4-0.4c-0.667-0.2-1.75-0.434-3.25-0.7c-1.433-0.233-2.517-0.466-3.25-0.699
				c-0.6-0.2-0.917-0.467-0.95-0.801c-0.067-0.433-0.25-0.767-0.55-1c-0.566-0.433-1.116-0.616-1.65-0.55
				c-0.167,0-0.466-0.583-0.9-1.75c0.033-1.934,0.05-3.399,0.05-4.399c-0.033-1.801-0.85-2.584-2.45-2.351
				c-0.1,1.134-0.1,2.684,0,4.65c-0.1,1.566-0.65,2.8-1.65,3.7c-3.067,1.399-4.7,2.133-4.9,2.199c-0.7,0.167-1.5,0.217-2.4,0.15
				c-0.566-0.033-1.433-0.134-2.6-0.3c-1.366-0.867-2.716-2.017-4.05-3.45c-0.833-0.866-1.967-2.233-3.4-4.1
				c-0.767-1.034-2.383-2.5-4.85-4.4c0.867,0.333,1.983,1.167,3.35,2.5c1.367,1.3,2.483,2.116,3.35,2.45
				c0.133-0.233,0.15-0.5,0.05-0.8c0.934,1.399,2.316,2.416,4.15,3.05c2.067,0.7,3.55,0.35,4.45-1.05
				c0.367,0.966,1.3,1.433,2.8,1.399c1.5,0,2.534-0.483,3.1-1.45c0.267-0.466,0.2-1.649-0.2-3.55c-0.4-1.899-0.783-3-1.15-3.3
				c0.133-0.3,0.934-1.434,2.4-3.4c0.934-1.333,1.417-2.566,1.45-3.699c-0.566-0.067-1.383-0.101-2.45-0.101
				c-1.167-0.033-2-0.066-2.5-0.1c0.2-1.601-0.483-2.45-2.05-2.55c-2,0.199-3.434,0.25-4.3,0.149c-0.4-0.033-1.217-0.267-2.45-0.7
				c-1-0.366-1.883-0.5-2.65-0.399c-0.267-0.934-1.067-1.4-2.4-1.4c-1.233,0-2.134,0.351-2.7,1.05
				c-0.367,0.467-0.566,1.233-0.6,2.301c0,0.6,0.017,1.449,0.05,2.55c-1.634,0.7-3.083,0.866-4.35,0.5
				c-0.133-0.8-0.184-1.384-0.15-1.75c-0.3,0.033-0.784-0.084-1.45-0.351c-0.7-0.3-1.167-0.449-1.4-0.449
				c0.667-1.733,0.35-3.101-0.95-4.101c-1.4-1.066-1.95-2.3-1.65-3.7c-2.434,0-4.25-0.05-5.45-0.149
				c0.067-0.233,0.05-0.617-0.05-1.15c-0.066-0.566-0.083-0.966-0.05-1.2c-2.3,0.233-4.367-0.133-6.2-1.1
				c-1.767-0.933-3.117-2.333-4.05-4.2c-0.4-2.7-0.467-5.267-0.2-7.7c0.267-2.733,0.934-4.967,2-6.7l-2,1.3L0.8,21.2
				c0.567-9.067,9.467-14.733,26.7-17c5.767-0.733,12.667-1.117,20.7-1.15c4.3,0,9.483,0.067,15.55,0.2
				c6.434,0,19.283-0.15,38.55-0.45l17.1,28.1c-3.1-1.167-6.683-2.283-10.75-3.35c-8.733-2.3-19.667-3.917-32.8-4.85
				c-14.733-0.8-25.767-1.567-33.1-2.3c-5.733-0.7-10.05-1.2-12.95-1.5c-5.133-0.566-9.466-0.783-13-0.65L2.3,32.75
				c0.034,1.4,0.75,2.067,2.15,2c2.167-0.067,3.4-0.033,3.7,0.1c0.233,0.1,0.6,0.55,1.1,1.35c0.5,0.833,0.967,1.367,1.4,1.6
				c0.467,0.267,1.267,0.55,2.4,0.85c1.233,0.3,1.983,0.517,2.25,0.65c1.2,0.567,2.167,1.217,2.9,1.95
				c0.333,0.367,0.983,1.25,1.95,2.65c0.167,0.3,0.517,0.6,1.05,0.899c0.533,0.3,0.9,0.617,1.1,0.95c0.233,0.4,0.3,0.983,0.2,1.75
				c-0.066,0.634,0.15,1.167,0.65,1.6c0.867-1.466,1.267-3.566,1.2-6.3c1.3-0.3,2.466,0.034,3.5,1c1.466,1.367,2.45,2.15,2.95,2.351
				c1.2,0.5,3.517,0.699,6.95,0.6c0.733,0,3.316-0.184,7.75-0.55c3.167-0.267,5.733-0.217,7.7,0.149c-0.3,1.067-0.85,2.45-1.65,4.15
				c-0.6,1.566-0.833,3.134-0.7,4.7c0.733-0.134,1.433-0.8,2.1-2c0.966-1.733,1.533-2.7,1.7-2.9c0.733-0.866,1.35-1.416,1.85-1.649
				c0.367-0.2,1.133-0.483,2.3-0.851c1.833-0.733,3.483-1.033,4.95-0.899c0.934,0.1,2.617,0.55,5.05,1.35c1.3,0.467,2.6,0.8,3.9,1
				c0.733,0.1,2.15,0.267,4.25,0.5c1.233,0.134,2.8,0.6,4.7,1.4c2.034,0.833,3.583,1.333,4.65,1.5
				c1.067,0.199,3.117,0.25,6.15,0.149c2.4,0.3,3.366,1.601,2.9,3.9c1.066,0.3,1.883,0.1,2.45-0.601c0.8-1,1.467-1.6,2-1.8
				c0.733-0.267,1.967-0.3,3.7-0.1c1.7,0.2,2.934,0.166,3.7-0.101c0.633-0.233,1.65-0.783,3.05-1.649
				c1.1-0.667,2.117-1.05,3.05-1.15c0.733-0.1,1.75-0.149,3.05-0.149c1.433,0,2.55,0.066,3.35,0.199
				c0.333,0.867,1.033,1.367,2.1,1.5c0.6,0.067,1.583,0.067,2.95,0c-0.367,1.667,0.116,2.667,1.45,3
				c-0.033,0.467,0.1,1.017,0.399,1.65c0.367,0.767,0.567,1.233,0.601,1.4c1.666-1.134,2.933-2.051,3.8-2.75
				c1.333-1.134,2.383-2.25,3.15-3.351c1.267,0.434,3.116,0.617,5.55,0.55c0.666,2.634,5.267,4.067,13.8,4.301
				c4.2,0.133,6.95,0.333,8.25,0.6c2.366,0.5,3.4,1.483,3.1,2.95c0.233,0.033,0.634,0.083,1.2,0.149c0.5,0.067,0.884,0.067,1.15,0
				c0.166,0.301,0.333,0.65,0.5,1.051c0.5-0.267,1.75-1.084,3.75-2.45c1.533-1.033,2.85-1.717,3.95-2.05
				c0,0.166,0.083,0.583,0.25,1.25c0.199,0.666,0.283,1.149,0.25,1.449c2.5,0.534,5.399,0.067,8.699-1.399
				c3.7-1.634,6.4-2.417,8.101-2.351l0.1,1.351c2.7,0.267,5.184,0.149,7.45-0.351c0,0.367,0.033,0.65,0.1,0.851
				c0.733,0.066,1.851,0.1,3.351,0.1c1.533-0.033,2.666-0.017,3.399,0.05c0.267,0.367,0.351,0.983,0.25,1.851h0.7
				c0.3,0.033,0.517,0.083,0.65,0.149c-0.533,0.2-1.351,0.434-2.45,0.7c-1.1,0.233-1.917,0.45-2.45,0.65
				c1.033,0.166,2.634,0.184,4.8,0.05c-0.199,0.2-0.366,0.467-0.5,0.8c-0.133,0.367-0.233,0.584-0.3,0.65
				C209.133,63.7,211.316,63.217,214.35,62.25z"/>
			<path style="fill-rule:evenodd;clip-rule:evenodd;fill:#57351D;" d="M117,68.25c0.434-0.233,0.684-0.45,0.75-0.65l0.05-0.199
				c1.6,0.433,2.034,1.216,1.3,2.35c-0.667,1-1.6,1.717-2.8,2.15c-1.133,0.399-2.466,0.517-4,0.35c-1.433-0.134-2.633-0.467-3.6-1
				c0.4-0.233,1.866-0.583,4.4-1.05C115.133,69.8,116.434,69.15,117,68.25z"/>
			<path style="fill-rule:evenodd;clip-rule:evenodd;fill:#57351D;" d="M105.35,76.2c-0.167-0.934,0.167-1.584,1-1.95
				c0.367-0.167,1.183-0.333,2.45-0.5l-0.5,0.5c0.567,0.2,0.934,0.55,1.1,1.05C108.434,76.3,107.083,76.6,105.35,76.2z"/>
			<path style="fill-rule:evenodd;clip-rule:evenodd;fill:#57351D;" d="M83.3,62.25c0.4,1.967,0.067,3.35-1,4.15v-0.65L83.3,62.25z"
				/>
			<path style="fill-rule:evenodd;clip-rule:evenodd;fill:#57351D;" d="M67.65,67.75C68.55,67.316,71,67.2,75,67.4
				c3.733,0.233,6.167-0.101,7.3-1c0.1,2.199-0.066,3.666-0.5,4.399c-0.5,0.967-1.667,1.5-3.5,1.601c-2.133,0.1-4.216-0.2-6.25-0.9
				C69.517,70.667,68.05,69.417,67.65,67.75z"/>
			<polygon style="fill-rule:evenodd;clip-rule:evenodd;fill:#57351D;" points="86.3,67.25 86.8,66.75 86.65,67.3 			"/>
			<path style="fill-rule:evenodd;clip-rule:evenodd;fill:#57351D;" d="M86.35,72.2c-0.267-1.667-0.167-3.3,0.3-4.9
				c2.133,0,3.167,1.017,3.1,3.05C89.717,72.35,88.583,72.967,86.35,72.2z"/>
			<path style="fill-rule:evenodd;clip-rule:evenodd;fill:#57351D;" d="M33.85,61.85c0.767-0.033,1.983-0.066,3.65-0.1
				c1.3-0.233,1.9-1.066,1.8-2.5l1.5,2c1.534,0.434,2.034,1.116,1.5,2.05c-0.5,0.867-1.533,1.566-3.1,2.101
				c-1.667,0.566-3.017,0.616-4.05,0.149C33.883,65.017,33.45,63.783,33.85,61.85z"/>
			<path style="fill-rule:evenodd;clip-rule:evenodd;fill:#57351D;" d="M152.85,68c-0.5-0.634-1.183-1.05-2.05-1.25h2.5
				C153.233,67.217,153.083,67.634,152.85,68z"/>
			<path style="fill-rule:evenodd;clip-rule:evenodd;fill:#57351D;" d="M145.8,71.2c0.2-1.267,1.25-1.95,3.15-2.05
				c2.166-0.134,3.467-0.517,3.899-1.15c0.733,0.9,0.733,1.833,0,2.8c-0.433,0.533-1.55,0.783-3.35,0.75
				C147.533,71.35,146.3,71.233,145.8,71.2z"/>
			<path style="fill-rule:evenodd;clip-rule:evenodd;fill:#57351D;" d="M161.1,77.7c-1.166,0.133-2.083,0.184-2.75,0.149
				c-1-0.066-1.85-0.316-2.55-0.75c-0.033-1.6,1.134-2.716,3.5-3.35l-1,1c0.934-0.833,1.75-0.833,2.45,0S161.566,76.566,161.1,77.7z
				"/>
			<path style="fill-rule:evenodd;clip-rule:evenodd;fill:#57351D;" d="M182.3,69.75c0.533,2.134-0.883,3.134-4.25,3
				c-3.366-0.134-5.3-1.017-5.8-2.65l0.7-0.25c1.033-0.166,2.35-0.283,3.95-0.35c2.333-0.1,3.633-0.167,3.899-0.2
				c1.066,0.066,1.833,0.084,2.3,0.05L182.3,69.75z"/>
			<path style="fill-rule:evenodd;clip-rule:evenodd;fill:#57351D;" d="M119.7,65.2c-0.8,0.2-1.6,0.25-2.4,0.149
				c-1.2-0.166-2.083-0.699-2.65-1.6c0.3-0.233,0.667-0.6,1.1-1.1c0.4-0.434,0.9-0.684,1.5-0.75c0-2.267,0.017-3.983,0.05-5.15
				l2,2.5c0.333,0.8,0.5,1.783,0.5,2.95C119.833,62.533,119.8,63.533,119.7,65.2z"/>
			<path style="fill-rule:evenodd;clip-rule:evenodd;fill:#472B18;" d="M108.65,27.55c4.067,1.067,7.65,2.184,10.75,3.35l12.4,20.35
				c0.634,0.733,1.417,1.25,2.351,1.55c-0.768,1.101-1.817,2.217-3.15,3.351c-0.867,0.699-2.134,1.616-3.8,2.75
				c-0.033-0.167-0.233-0.634-0.601-1.4c-0.3-0.634-0.433-1.184-0.399-1.65c-1.334-0.333-1.817-1.333-1.45-3
				c-1.367,0.067-2.35,0.067-2.95,0c-1.066-0.133-1.767-0.633-2.1-1.5c-0.8-0.133-1.917-0.199-3.35-0.199
				c-1.3,0-2.317,0.05-3.05,0.149c-0.933,0.101-1.95,0.483-3.05,1.15c-1.4,0.866-2.417,1.416-3.05,1.649
				c-0.767,0.267-2,0.301-3.7,0.101c-1.733-0.2-2.967-0.167-3.7,0.1c-0.533,0.2-1.2,0.8-2,1.8c-0.566,0.7-1.383,0.9-2.45,0.601
				c0.466-2.3-0.5-3.601-2.9-3.9c-3.034,0.101-5.083,0.05-6.15-0.149c-1.066-0.167-2.616-0.667-4.65-1.5
				c-1.9-0.801-3.466-1.267-4.7-1.4c-2.1-0.233-3.517-0.4-4.25-0.5c-1.3-0.2-2.6-0.533-3.9-1c-2.433-0.8-4.116-1.25-5.05-1.35
				c-1.467-0.134-3.117,0.166-4.95,0.899c-1.167,0.367-1.933,0.65-2.3,0.851c-0.5,0.233-1.117,0.783-1.85,1.649
				c-0.167,0.2-0.733,1.167-1.7,2.9c-0.667,1.2-1.367,1.866-2.1,2c-0.133-1.566,0.1-3.134,0.7-4.7c0.8-1.7,1.35-3.083,1.65-4.15
				c-1.967-0.366-4.534-0.416-7.7-0.149c-4.434,0.366-7.017,0.55-7.75,0.55c-3.434,0.1-5.75-0.1-6.95-0.6
				c-0.5-0.2-1.483-0.983-2.95-2.351c-1.034-0.966-2.2-1.3-3.5-1c0.066,2.733-0.333,4.834-1.2,6.3c-0.5-0.433-0.716-0.966-0.65-1.6
				c0.1-0.767,0.033-1.35-0.2-1.75c-0.2-0.333-0.566-0.65-1.1-0.95c-0.534-0.3-0.884-0.6-1.05-0.899
				c-0.966-1.4-1.617-2.284-1.95-2.65c-0.733-0.733-1.7-1.383-2.9-1.95c-0.267-0.133-1.017-0.35-2.25-0.65
				c-1.133-0.3-1.933-0.583-2.4-0.85c-0.433-0.233-0.9-0.767-1.4-1.6c-0.5-0.8-0.867-1.25-1.1-1.35c-0.3-0.133-1.533-0.167-3.7-0.1
				c-1.4,0.067-2.117-0.6-2.15-2l14.5-14.5c3.534-0.133,7.867,0.083,13,0.65c2.9,0.3,7.217,0.8,12.95,1.5
				c7.333,0.733,18.367,1.5,33.1,2.3C88.983,23.633,99.917,25.25,108.65,27.55z"/>
			<path style="fill-rule:evenodd;clip-rule:evenodd;fill:#472B18;" d="M162.7,79.35c1.033-0.366,1.899-0.733,2.6-1.1l1.15-0.6
				c-0.8,0.899-1.7,1.449-2.7,1.649C163.583,79.333,163.233,79.35,162.7,79.35z"/>
			<path style="fill-rule:evenodd;clip-rule:evenodd;fill:#472B18;" d="M220.3,18.35c1.867,0.9,4.5,1.633,7.9,2.2
				c3.666,0.6,6.25,1.184,7.75,1.75c2.1,0.8,3.767,2.05,5,3.75c2.066,1,3.55,2.583,4.45,4.75c0.732,1.7,1.066,3.9,1,6.6
				c-0.034,1.033-0.233,3.317-0.601,6.85c-0.267,2.3-0.85,4.116-1.75,5.45c-0.267,0.899-0.684,1.6-1.25,2.1
				c-0.233,0.233-0.667,0.434-1.3,0.601c-1.033,1-1.983,2-2.85,3c-0.5,0.633-1.167,1.649-2,3.05c-0.7,1.2-1.4,2.149-2.101,2.85
				c-0.899,0.9-2.366,1.584-4.399,2.05c-2.268,0.4-3.867,0.75-4.801,1.051c-2.233,0.699-5.25,2.033-9.05,4
				c-0.633,0.399-1.35,0.75-2.149,1.05c-2.534,1.233-4.684,2.133-6.45,2.7c-2.4,0.767-4.75,1.133-7.05,1.1
				c-3.301-0.233-5.801-0.4-7.5-0.5L187.3,73.2l-0.5,0.2c-0.434,0.166-0.866,0.55-1.3,1.149c-0.5,0.634-0.9,1.017-1.2,1.15
				c-0.399,0.166-1,0.2-1.8,0.1c-0.934-0.066-1.55-0.083-1.85-0.05c-0.967,0.134-2.134,0.384-3.5,0.75
				c-1.534,0.366-2.667,0.616-3.4,0.75c-0.4,0.1-1.017,0.1-1.85,0c-0.867-0.1-1.5-0.116-1.9-0.05c-0.367,0.767-0.816,1.366-1.35,1.8
				c-1.7,1.333-3.733,2.134-6.101,2.4c-1.133,0.133-3.434,0.133-6.899,0c-2.4-0.067-6.134-0.334-11.2-0.801l-1.2,0.25
				c-1.367,0.634-2.35,1.084-2.95,1.351c-1.033,0.467-2.167,0.666-3.399,0.6c-2.5-0.3-4.351-0.5-5.551-0.6
				c-2.033-0.2-3.883-0.15-5.55,0.149c-0.3,0.067-1.05,0.367-2.25,0.9c-0.933,0.434-1.7,0.616-2.3,0.55c-0.3-0.033-0.7-0.3-1.2-0.8
				c-0.5-0.533-0.883-0.816-1.15-0.85c-1.6-0.233-3.466-0.184-5.6,0.149c-4.9,1.634-8.417,2.417-10.55,2.351
				c-1.8-0.034-3.816-0.467-6.05-1.301c-0.9-0.333-2.9-1.199-6-2.6c-2.167-0.7-4.4-1.25-6.7-1.65c4.167-0.133,8.4-0.716,12.7-1.75
				c-0.233,3.134,1.05,4.817,3.85,5.051c1.3,0.133,3.867-0.25,7.7-1.15c1.8-0.4,4.15-0.634,7.05-0.7c3.467-0.033,5.8-0.133,7-0.3
				c1.101-0.134,1.884-0.45,2.351-0.95c0.666-0.7,1.25-1.166,1.75-1.399c0.232-0.101,0.449-0.4,0.649-0.9
				c0.167-0.467,0.4-0.717,0.7-0.75c0.8-0.134,1.217,0.134,1.25,0.8c0.066,0.8,0.184,1.233,0.35,1.3
				c1.801,0.733,3.733,1.267,5.801,1.601c2.232,0.366,4.25,0.416,6.05,0.149c-0.101-1.033,0.133-1.75,0.7-2.149
				c0.533-0.367,1.3-0.4,2.3-0.101l0.149,1.351c2.2,0.166,5.334,0.5,9.4,1c3.434,0.233,6.417-0.05,8.95-0.851
				c0.533,0,0.883-0.017,1.05-0.05c1-0.2,1.9-0.75,2.7-1.649c2.6-1.4,4.55-2.184,5.85-2.351c0.8-0.1,2.017,0,3.65,0.3
				c1.6,0.301,2.816,0.367,3.649,0.2c0.7-0.133,1.417-0.45,2.15-0.95c0.9-0.666,1.55-1.083,1.95-1.25
				c2.267-0.933,5.217-1.466,8.85-1.6c2.066-0.066,5.15-0.15,9.25-0.25c1.601-0.1,3.2-0.717,4.8-1.85
				c2.4-1.733,3.967-2.767,4.7-3.101c0.8-0.366,2.601-1.133,5.4-2.3c2.433-1.167,3.783-2.267,4.05-3.3
				c-1.467-0.2-3.6,0.149-6.4,1.05c-3.033,0.967-5.217,1.45-6.55,1.45c0.066-0.066,0.167-0.283,0.3-0.65
				c0.134-0.333,0.301-0.6,0.5-0.8c-2.166,0.134-3.767,0.116-4.8-0.05c0.533-0.2,1.351-0.417,2.45-0.65
				c1.1-0.267,1.917-0.5,2.45-0.7c-0.134-0.066-0.351-0.116-0.65-0.149h-0.7c0.101-0.867,0.017-1.483-0.25-1.851
				c-0.733-0.066-1.866-0.083-3.399-0.05c-1.5,0-2.617-0.033-3.351-0.1c-0.066-0.2-0.1-0.483-0.1-0.851
				c-2.267,0.5-4.75,0.617-7.45,0.351l-0.1-1.351c-1.7-0.066-4.4,0.717-8.101,2.351c-3.3,1.467-6.199,1.934-8.699,1.399
				c0.033-0.3-0.051-0.783-0.25-1.449c-0.167-0.667-0.25-1.084-0.25-1.25c-1.101,0.333-2.417,1.017-3.95,2.05
				c-2,1.366-3.25,2.184-3.75,2.45c-0.167-0.4-0.334-0.75-0.5-1.051c-0.267,0.067-0.65,0.067-1.15,0
				c-0.566-0.066-0.967-0.116-1.2-0.149c0.301-1.467-0.733-2.45-3.1-2.95c-1.3-0.267-4.05-0.467-8.25-0.6
				c-8.533-0.233-13.134-1.667-13.8-4.301c-2.434,0.067-4.283-0.116-5.55-0.55c0.899-1.267,1.449-2.649,1.649-4.149
				c0.867-7.3-4.6-13.217-16.4-17.75L102.3,2.8c10.934-0.133,19.134-0.2,24.601-0.2c5.732,0,14.482-0.133,26.25-0.4
				c10.333,0.033,19.033,0.783,26.1,2.25C193.783,7.55,207.467,12.183,220.3,18.35z"/>
			<path style="fill-rule:evenodd;clip-rule:evenodd;fill:#472B18;" d="M53.8,70.85c0.3,0.233,0.483,0.567,0.55,1
				c0.033,0.334,0.35,0.601,0.95,0.801c0.733,0.233,1.817,0.466,3.25,0.699c1.5,0.267,2.583,0.5,3.25,0.7
				c-2.933-0.666-5.933-1.083-9-1.25c-0.833-0.066-3.267,0.15-7.3,0.65c-3.033,0.399-5.316,0.217-6.85-0.55
				c-0.2-0.101-0.65-0.334-1.35-0.7c1.167,0.166,2.034,0.267,2.6,0.3c0.9,0.066,1.7,0.017,2.4-0.15c0.2-0.066,1.833-0.8,4.9-2.199
				c1-0.9,1.55-2.134,1.65-3.7c-0.1-1.967-0.1-3.517,0-4.65c1.6-0.233,2.417,0.55,2.45,2.351c0,1-0.017,2.466-0.05,4.399
				c0.434,1.167,0.733,1.75,0.9,1.75C52.684,70.233,53.233,70.417,53.8,70.85z"/>
			<path style="fill-rule:evenodd;clip-rule:evenodd;fill:#472B18;" d="M135.8,48.65c-0.2,1.5-0.75,2.883-1.649,4.149
				c-0.934-0.3-1.717-0.816-2.351-1.55L119.4,30.9C131.2,35.433,136.667,41.35,135.8,48.65z"/>
			<path style="fill-rule:evenodd;clip-rule:evenodd;fill:#472B18;" d="M174.3,63.25c0.333,1.767-0.133,3.3-1.399,4.6
				c-1.268,1.367-2.784,1.784-4.551,1.25c0.267-1.267,0.95-2.416,2.051-3.449c0.6-0.601,1.566-1.567,2.899-2.9L174.3,63.25z"/>
			<path style="fill-rule:evenodd;clip-rule:evenodd;fill:#6E431E;" d="M36.15,55.25c0.7,0.366,1.017,1.033,0.95,2
				c-0.034,0.566-0.184,0.934-0.45,1.1c-0.367,0.267-0.617,0.5-0.75,0.7l-1.2,1.9c-2.1,1.3-3.333,0.7-3.7-1.8s0.4-3.9,2.3-4.2h0.8
				l-0.25-0.05C34.917,54.9,35.684,55.017,36.15,55.25z"/>
			<path style="fill-rule:evenodd;clip-rule:evenodd;fill:#6E431E;" d="M29.45,54.3c-1.1,0.066-1.567-0.616-1.4-2.05
				c0.167-1.4,0.85-1.95,2.05-1.65h0.35c0.233-0.033,0.517-0.017,0.85,0.051c0.2,0.466,0.067,1.183-0.4,2.149
				C30.434,53.767,29.95,54.267,29.45,54.3z"/>
			<polygon style="fill-rule:evenodd;clip-rule:evenodd;fill:#6E431E;" points="68.8,59.25 70.45,58.95 70.15,59.25 			"/>
			<path style="fill-rule:evenodd;clip-rule:evenodd;fill:#6E431E;" d="M68.45,65.3c-1.7-0.333-2.083-1.267-1.15-2.8
				c0.4-0.667,1.35-1.75,2.85-3.25c2.9-0.066,5.083,0.066,6.55,0.4c2.466,0.566,3.483,1.75,3.05,3.55
				c-2.1,0.033-3.667,0.066-4.7,0.1c-1.3,0.033-2.083,0.066-2.35,0.101c-0.867,0.1-1.65,0.283-2.35,0.55
				c-0.167,0.066-0.467,0.35-0.9,0.85C69.083,65.2,68.75,65.366,68.45,65.3z"/>
			<path style="fill-rule:evenodd;clip-rule:evenodd;fill:#6E431E;" d="M83.4,71.25c-0.933-0.6-1.017-1.467-0.25-2.6
				c0.733-1.101,1.617-1.567,2.65-1.4l-0.35,1c0.066,0.934-0.017,1.733-0.25,2.4C84.867,71.583,84.267,71.783,83.4,71.25z"/>
			<path style="fill-rule:evenodd;clip-rule:evenodd;fill:#6E431E;" d="M56.8,52.6c2.634-0.133,4.267-0.1,4.9,0.101
				c1.4,0.399,1.183,1.45-0.65,3.149c-2.4,2.301-4.017,2.483-4.85,0.551c-0.333-0.733-0.3-1.483,0.1-2.25
				c0.4-0.834,1.117-1.351,2.15-1.551H56.8z"/>
			<path style="fill-rule:evenodd;clip-rule:evenodd;fill:#6E431E;" d="M60.1,62.25c0.9-0.233,1.583,0.066,2.05,0.9
				c0.467,0.833,0.3,1.533-0.5,2.1c-0.867,0.634-1.6,0.533-2.2-0.3C58.883,64.116,59,63.333,59.8,62.6L60.1,62.25z"/>
			<path style="fill-rule:evenodd;clip-rule:evenodd;fill:#6E431E;" d="M113.85,57.15c0.9-0.134,1.517,0,1.85,0.399
				c0.3,0.367,0.466,1.084,0.5,2.15c0.033,1.133-0.067,1.783-0.3,1.95c-0.133,0.133-0.833,0.333-2.1,0.6h0.3
				c-0.5,0.033-1.65,0.167-3.45,0.4c-1.4,0.199-2.566,0.283-3.5,0.25c-0.2-0.934,0.25-1.917,1.35-2.95
				c0.934-0.9,2.083-1.634,3.45-2.2C112.65,57.583,113.283,57.384,113.85,57.15z"/>
			<path style="fill-rule:evenodd;clip-rule:evenodd;fill:#6E431E;" d="M117.35,67.3c0.1-0.3,0.117-0.7,0.05-1.2
				c0.467,0.267,0.6,0.7,0.4,1.301L117.35,67.3z"/>
			<path style="fill-rule:evenodd;clip-rule:evenodd;fill:#6E431E;" d="M117.35,67.3c-0.067,0.367-0.184,0.684-0.35,0.95
				c-0.967,0.533-2.65,1.017-5.05,1.45c-3.2,0.6-4.384,0.017-3.55-1.75c0.867-1.8,2.434-2.584,4.7-2.351l-0.65,0.351
				c0.533-0.2,1.3-0.316,2.3-0.351c1.133-0.033,1.983,0.101,2.55,0.4v1.25L117.35,67.3z"/>
			<path style="fill-rule:evenodd;clip-rule:evenodd;fill:#6E431E;" d="M117.35,67.3l-0.05-0.05V66l0.1,0.1
				C117.467,66.6,117.45,67,117.35,67.3z"/>
			<path style="fill-rule:evenodd;clip-rule:evenodd;fill:#6E431E;" d="M117,68.25c0.167-0.267,0.283-0.583,0.35-0.95l0.45,0.101
				l-0.05,0.199C117.684,67.8,117.434,68.017,117,68.25z"/>
			<path style="fill-rule:evenodd;clip-rule:evenodd;fill:#6E431E;" d="M105.75,71.35c0.6,2.101,0.066,2.801-1.6,2.101
				c-0.566-0.267-0.883-0.566-0.95-0.9c-0.034-0.366,0.383-0.566,1.25-0.6l-0.65-0.7C104.167,71.15,104.816,71.184,105.75,71.35z"/>
			<path style="fill-rule:evenodd;clip-rule:evenodd;fill:#6E431E;" d="M137.45,73.25c-2.3,0.233-3.55-0.583-3.75-2.45
				c-0.2-1.833,0.717-3.116,2.75-3.85l1,0.3c0.733-0.667,1.267-0.55,1.6,0.35c0.101,0.233,0.233,1.017,0.4,2.351
				c0.133,1.366,0.083,2.25-0.15,2.649C139.066,72.967,138.45,73.184,137.45,73.25z"/>
			<path style="fill-rule:evenodd;clip-rule:evenodd;fill:#6E431E;" d="M147.15,68.3l-2-0.149c-0.301-1.067,0.216-1.851,1.55-2.351
				c1.267-0.5,2.283-0.467,3.05,0.101c1.033,0.767,1.133,1.5,0.3,2.199C149.217,68.767,148.25,68.833,147.15,68.3z"/>
			<path style="fill-rule:evenodd;clip-rule:evenodd;fill:#6E431E;" d="M141.75,64.9c-0.3,0.1-0.684,0.149-1.15,0.149
				S139.75,65,139.45,64.9c-0.134-0.534-0.117-0.934,0.05-1.2c0.133-0.2,0.45-0.351,0.95-0.45l-0.351-0.3
				c0.7-0.066,1.2,0.083,1.5,0.45C141.9,63.733,141.95,64.233,141.75,64.9z"/>
			<path style="fill-rule:evenodd;clip-rule:evenodd;fill:#6E431E;" d="M187.7,65.35c0.433,1.101,0.55,2.167,0.35,3.2
				c-0.399,0.2-0.717,0.334-0.95,0.4V67.6c-0.1,1.101-1.433,1.684-4,1.75l1.2-0.6c-0.767,0.233-1.934,0.417-3.5,0.55
				c-2.5-0.233-4.066-0.366-4.7-0.399l0.051-0.351c1.399-0.633,3.133-1.5,5.199-2.6C183.983,65.417,186.1,65.217,187.7,65.35z"/>
			<path style="fill-rule:evenodd;clip-rule:evenodd;fill:#6E431E;" d="M176.15,68.55c0.232-1.033,1.966-1.899,5.199-2.6
				C179.283,67.05,177.55,67.917,176.15,68.55z"/>
			<path style="fill-rule:evenodd;clip-rule:evenodd;fill:#6E431E;" d="M180.8,69.3c1.566-0.133,2.733-0.316,3.5-0.55l-1.2,0.6
				C182.633,69.384,181.866,69.366,180.8,69.3z"/>
			<path style="fill-rule:evenodd;clip-rule:evenodd;fill:#6E431E;" d="M191.85,67.2c-0.267-1.134-0.033-2.066,0.7-2.8
				s1.684-0.983,2.851-0.75l0.05,0.149c-0.467,0.867-1.2,1.667-2.2,2.4l1.45,0.05c-0.434,0.333-0.967,0.566-1.601,0.7l-0.3,0.3
				C192.267,67.25,191.95,67.233,191.85,67.2z"/>
			<path style="fill-rule:evenodd;clip-rule:evenodd;fill:#6E431E;" d="M193.25,66.2c1-0.733,1.733-1.533,2.2-2.4
				c0.233,1-0.017,1.816-0.75,2.45L193.25,66.2z"/>
		</g>
	</g>
	<g>
		<path style="fill-rule:evenodd;clip-rule:evenodd;fill:#57351D;" d="M18.55,49.25c0.967-0.134,1.95,0.217,2.95,1.05
			c0.934,0.767,1.5,1.65,1.7,2.65c0.2,0.833-0.25,1.1-1.35,0.8c-1.434-0.5-2.45-0.833-3.05-1c-0.833-0.233-1.25-0.85-1.25-1.85
			C17.517,49.9,17.85,49.35,18.55,49.25z"/>
		<path style="fill-rule:evenodd;clip-rule:evenodd;fill:#57351D;" d="M40.8,52c0.934,0.134,1.217,0.65,0.85,1.55
			c-0.367,0.934-0.9,1.334-1.6,1.2c-0.7-0.134-0.983-0.65-0.85-1.55C39.333,52.3,39.867,51.9,40.8,52z"/>
		<path style="fill-rule:evenodd;clip-rule:evenodd;fill:#57351D;" d="M43.8,55c1.034,0.267,1.167,0.9,0.4,1.9
			c-0.733,1-1.534,1.199-2.4,0.6c-0.833-0.6-0.933-1.217-0.3-1.85C42.133,55.017,42.9,54.8,43.8,55z"/>
		<path style="fill-rule:evenodd;clip-rule:evenodd;fill:#57351D;" d="M68.8,54.25c1.233,0,2.167,0.434,2.8,1.3
			c0.466,0.634,0.7,1.367,0.7,2.2c0,0.634-0.75,1.033-2.25,1.2c-1.5,0.166-2.5-0.066-3-0.7S66.5,56.8,66.9,55.8
			C67.3,54.767,67.934,54.25,68.8,54.25z"/>
		<path style="fill-rule:evenodd;clip-rule:evenodd;fill:#57351D;" d="M88.8,61.5c0.967,0.134,1.367,0.583,1.2,1.35
			S89.35,64,88.55,64c-0.767,0-1.1-0.434-1-1.3C87.65,61.833,88.066,61.434,88.8,61.5z"/>
		<path style="fill-rule:evenodd;clip-rule:evenodd;fill:#57351D;" d="M104.8,64.5c1.067,0.6,1.184,1.417,0.35,2.45
			c-0.833,1.066-1.533,1.25-2.1,0.55c-0.533-0.667-0.583-1.434-0.15-2.3C103.333,64.267,103.967,64.033,104.8,64.5z"/>
		<path style="fill-rule:evenodd;clip-rule:evenodd;fill:#57351D;" d="M81.55,73.5c1.7,0.233,2.434,0.934,2.2,2.1
			c-0.267,1.167-1.167,1.551-2.7,1.15c-1.433-0.366-2-1.033-1.7-2C79.617,73.75,80.35,73.333,81.55,73.5z"/>
		<path style="fill-rule:evenodd;clip-rule:evenodd;fill:#57351D;" d="M127.3,68.25c1.4,0.6,1.65,1.434,0.75,2.5
			c-0.899,1.066-1.899,1.4-3,1c-1.033-0.4-1.2-1.2-0.5-2.4C125.25,68.15,126.167,67.783,127.3,68.25z"/>
		<path style="fill-rule:evenodd;clip-rule:evenodd;fill:#57351D;" d="M136.05,58.75c0.8,0.533,1.217,0.816,1.25,0.85
			c0.434,0.4,0.601,0.867,0.5,1.4c-0.3,1.434-1.3,1.934-3,1.5c-1-0.233-1.233-1.05-0.7-2.45C134.6,58.65,135.25,58.217,136.05,58.75
			z"/>
		<path style="fill-rule:evenodd;clip-rule:evenodd;fill:#57351D;" d="M149.8,62c0.934-0.134,1.25,0.25,0.95,1.15
			c-0.3,0.899-0.783,1.35-1.45,1.35s-0.95-0.384-0.85-1.15C148.517,62.583,148.967,62.134,149.8,62z"/>
		<path style="fill-rule:evenodd;clip-rule:evenodd;fill:#57351D;" d="M163.8,69.25c1.5-0.1,1.816,0.316,0.95,1.25
			c-0.9,0.967-1.717,1.384-2.45,1.25c-0.667-0.134-0.8-0.566-0.399-1.3C162.267,69.717,162.9,69.316,163.8,69.25z"/>
		<path style="fill-rule:evenodd;clip-rule:evenodd;fill:#57351D;" d="M197.3,67.75c0.767,0,1.083,0.45,0.95,1.35
			c-0.1,0.9-0.583,1.284-1.45,1.15c-0.899-0.134-1.283-0.583-1.149-1.35C195.783,68.134,196.333,67.75,197.3,67.75z"/>
		<path style="fill-rule:evenodd;clip-rule:evenodd;fill:#57351D;" d="M202.8,63.25c1.467,0.566,1.851,1.167,1.15,1.8
			c-0.634,0.634-1.434,0.867-2.4,0.7c-0.8-0.134-1.033-0.684-0.7-1.65C201.15,63.167,201.8,62.884,202.8,63.25z"/>
	</g>
	<g>
		<path style="fill-rule:evenodd;clip-rule:evenodd;fill:#5E574F;" d="M17.55,48.25c0.967-0.134,1.95,0.217,2.95,1.05
			c0.934,0.767,1.5,1.65,1.7,2.65c0.2,0.833-0.25,1.1-1.35,0.8c-1.434-0.5-2.45-0.833-3.05-1c-0.833-0.233-1.25-0.85-1.25-1.85
			C16.517,48.9,16.85,48.35,17.55,48.25z"/>
		<path style="fill-rule:evenodd;clip-rule:evenodd;fill:#5E574F;" d="M39.8,51c0.934,0.134,1.217,0.65,0.85,1.55
			c-0.367,0.934-0.9,1.334-1.6,1.2c-0.7-0.134-0.983-0.65-0.85-1.55C38.333,51.3,38.867,50.9,39.8,51z"/>
		<path style="fill-rule:evenodd;clip-rule:evenodd;fill:#5E574F;" d="M42.8,54c1.034,0.267,1.167,0.9,0.4,1.9
			c-0.733,1-1.534,1.199-2.4,0.6c-0.833-0.6-0.933-1.217-0.3-1.85C41.133,54.017,41.9,53.8,42.8,54z"/>
		<path style="fill-rule:evenodd;clip-rule:evenodd;fill:#5E574F;" d="M67.8,53.25c1.233,0,2.167,0.434,2.8,1.3
			c0.466,0.634,0.7,1.367,0.7,2.2c0,0.634-0.75,1.033-2.25,1.2c-1.5,0.166-2.5-0.066-3-0.7S65.5,55.8,65.9,54.8
			C66.3,53.767,66.934,53.25,67.8,53.25z"/>
		<path style="fill-rule:evenodd;clip-rule:evenodd;fill:#5E574F;" d="M87.8,60.5c0.967,0.134,1.367,0.583,1.2,1.35
			S88.35,63,87.55,63c-0.767,0-1.1-0.434-1-1.3C86.65,60.833,87.066,60.434,87.8,60.5z"/>
		<path style="fill-rule:evenodd;clip-rule:evenodd;fill:#5E574F;" d="M103.8,63.5c1.067,0.6,1.184,1.417,0.35,2.45
			c-0.833,1.066-1.533,1.25-2.1,0.55c-0.533-0.667-0.583-1.434-0.15-2.3C102.333,63.267,102.967,63.033,103.8,63.5z"/>
		<path style="fill-rule:evenodd;clip-rule:evenodd;fill:#5E574F;" d="M80.55,72.5c1.7,0.233,2.434,0.934,2.2,2.1
			c-0.267,1.167-1.167,1.551-2.7,1.15c-1.433-0.366-2-1.033-1.7-2C78.617,72.75,79.35,72.333,80.55,72.5z"/>
		<path style="fill-rule:evenodd;clip-rule:evenodd;fill:#5E574F;" d="M126.3,67.25c1.4,0.6,1.65,1.434,0.75,2.5
			c-0.899,1.066-1.899,1.4-3,1c-1.033-0.4-1.2-1.2-0.5-2.4C124.25,67.15,125.167,66.783,126.3,67.25z"/>
		<path style="fill-rule:evenodd;clip-rule:evenodd;fill:#5E574F;" d="M135.05,57.75c0.8,0.533,1.217,0.816,1.25,0.85
			c0.434,0.4,0.601,0.867,0.5,1.4c-0.3,1.434-1.3,1.934-3,1.5c-1-0.233-1.233-1.05-0.7-2.45C133.6,57.65,134.25,57.217,135.05,57.75
			z"/>
		<path style="fill-rule:evenodd;clip-rule:evenodd;fill:#5E574F;" d="M148.8,61c0.934-0.134,1.25,0.25,0.95,1.15
			c-0.3,0.899-0.783,1.35-1.45,1.35s-0.95-0.384-0.85-1.15C147.517,61.583,147.967,61.134,148.8,61z"/>
		<path style="fill-rule:evenodd;clip-rule:evenodd;fill:#5E574F;" d="M162.8,68.25c1.5-0.1,1.816,0.316,0.95,1.25
			c-0.9,0.967-1.717,1.384-2.45,1.25c-0.667-0.134-0.8-0.566-0.399-1.3C161.267,68.717,161.9,68.316,162.8,68.25z"/>
		<path style="fill-rule:evenodd;clip-rule:evenodd;fill:#5E574F;" d="M196.3,66.75c0.767,0,1.083,0.45,0.95,1.35
			c-0.1,0.9-0.583,1.284-1.45,1.15c-0.899-0.134-1.283-0.583-1.149-1.35C194.783,67.134,195.333,66.75,196.3,66.75z"/>
		<path style="fill-rule:evenodd;clip-rule:evenodd;fill:#5E574F;" d="M201.8,62.25c1.467,0.566,1.851,1.167,1.15,1.8
			c-0.634,0.634-1.434,0.867-2.4,0.7c-0.8-0.134-1.033-0.684-0.7-1.65C200.15,62.167,200.8,61.884,201.8,62.25z"/>
	</g>
	<g>
		<path style="fill-rule:evenodd;clip-rule:evenodd;fill:#5C4F1F;" d="M187.6,8.3c9,2,15.733,3.983,20.2,5.95
			c4.066,1.8,10.367,4.183,18.9,7.15c7.633,2.633,12.666,4.25,15.1,4.85c1.767,0.433,3,1.783,3.7,4.05
			c0.434,1.367,0.7,3.35,0.8,5.95c0.033,1.667-1.2,3.75-3.7,6.25c-2.3,2.267-5.066,4.35-8.3,6.25c-3,1.733-6.767,3.15-11.3,4.25
			s-8.434,1.517-11.7,1.25c-11-1-19.333-1.667-25-2c-2.1-0.134-7.267,0.583-15.5,2.15c-7.899,1.466-14.566,1.916-20,1.35
			c-4.767-0.5-10.333-1.684-16.7-3.55c-5.5-1.634-9.933-2.45-13.3-2.45c-3.633,0-9.483,0.083-17.55,0.25
			c-8.1,0.167-13.083,0.25-14.95,0.25c-3.133,0-6.667-0.483-10.6-1.45c-3.6-0.866-7.9-2.217-12.9-4.05c-3.5-1.267-7.517-1.6-12.05-1
			c-5.533,0.733-9.684,0.9-12.45,0.5c-3.167-0.467-8.05-1.867-14.65-4.2c-6.233-2.233-11.017-3.5-14.35-3.8
			c-5-0.467-8.333-2.117-10-4.95c-1.267-2.133-1.6-5.15-1-9.05c0.434-2.833,2.434-5.4,6-7.7c1.934-1.233,4.934-2.667,9-4.3
			c2.5-1,6.567-2,12.2-3s10.066-1.5,13.3-1.5c2.167,0,6.667-0.067,13.5-0.2c6.167-0.1,10.167-0.033,12,0.2
			c3.034,0.433,7.233,0.817,12.6,1.15c4.233,0.233,7.2,0.35,8.9,0.35c13,0,21.833-0.333,26.5-1c2.634-0.367,11.867-0.517,27.7-0.45
			c16.533,0.1,25.633,0.083,27.3-0.05C172.566,5.483,178.667,6.333,187.6,8.3z"/>
		<path style="fill-rule:evenodd;clip-rule:evenodd;fill:#6E5E25;" d="M187.6,2.8c9,2,15.733,3.983,20.2,5.95
			c4.733,2.1,10.033,4.317,15.9,6.65c6.133,2.434,10.166,3.883,12.1,4.35c1.967,0.5,4.05,2.017,6.25,4.55
			c2.2,2.534,3.316,4.7,3.351,6.5c0.066,1.7-1.018,3.784-3.25,6.25c-2.134,2.333-4.75,4.4-7.851,6.2c-3,1.733-6.767,3.15-11.3,4.25
			s-8.434,1.517-11.7,1.25c-2.167-0.167-6.083-0.25-11.75-0.25c-6,0-10.417-0.083-13.25-0.25c-1.866-0.1-7.45,0.116-16.75,0.65
			c-8.633,0.466-15.717,0.416-21.25-0.15c-4.6-0.467-9.75-1.4-15.45-2.8c-4.566-1.134-8.583-1.7-12.05-1.7
			c-3.633,0-9.483,0.083-17.55,0.25c-8.1,0.167-13.083,0.25-14.95,0.25c-3.4,0-7.517-0.483-12.35-1.45
			c-5.167-1-10.05-2.35-14.65-4.05c-3.533-1.3-7.05-1.8-10.55-1.5c-4.667,0.4-8.316,0.4-10.95,0c-3.433-0.5-8.25-1.667-14.45-3.5
			c-6.3-1.833-10.983-3-14.05-3.5c-4.533-0.7-7.517-1.983-8.95-3.85c-1.233-1.633-1.583-4.183-1.05-7.65
			c0.467-2.967,2.3-5.95,5.5-8.95c2.7-2.5,5.534-4.35,8.5-5.55c2.5-1,6.567-2,12.2-3s10.066-1.5,13.3-1.5
			c2.167,0,6.667-0.067,13.5-0.2c6.167-0.1,10.167-0.033,12,0.2c3.034,0.433,7.233,0.817,12.6,1.15c4.233,0.233,7.2,0.35,8.9,0.35
			c13,0,21.833-0.333,26.5-1c2.634-0.367,11.867-0.517,27.7-0.45c16.533,0.1,25.633,0.083,27.3-0.05
			C172.566-0.017,178.667,0.833,187.6,2.8z"/>
		<path style="fill-rule:evenodd;clip-rule:evenodd;fill:#645622;" d="M35.85,28.05c0,0.467-0.65,0.867-1.95,1.2
			c-1.3,0.333-2.883,0.5-4.75,0.5s-3.45-0.167-4.75-0.5c-1.333-0.333-2-0.733-2-1.2c0-0.433,0.667-0.816,2-1.15
			c1.333-0.333,2.917-0.5,4.75-0.5s3.417,0.167,4.75,0.5C35.2,27.2,35.85,27.583,35.85,28.05z"/>
		<path style="fill-rule:evenodd;clip-rule:evenodd;fill:#645622;" d="M83.35,34.1c-0.034,0.467-0.717,0.8-2.05,1
			c-1.366,0.2-2.966,0.217-4.8,0.05c-1.833-0.167-3.4-0.483-4.7-0.95c-1.267-0.434-1.883-0.883-1.85-1.35
			c0.066-0.467,0.767-0.8,2.1-1c1.333-0.2,2.917-0.217,4.75-0.05c1.867,0.167,3.434,0.483,4.7,0.95
			C82.8,33.183,83.417,33.633,83.35,34.1z"/>
		<path style="fill-rule:evenodd;clip-rule:evenodd;fill:#645622;" d="M104.3,21.25c0,0.467-0.65,0.867-1.95,1.2
			c-1.3,0.333-2.883,0.5-4.75,0.5s-3.467-0.167-4.8-0.5c-1.3-0.333-1.95-0.733-1.95-1.2s0.65-0.85,1.95-1.15
			c1.333-0.333,2.934-0.5,4.8-0.5c1.833,0,3.417,0.167,4.75,0.5C103.65,20.4,104.3,20.783,104.3,21.25z"/>
		<path style="fill-rule:evenodd;clip-rule:evenodd;fill:#645622;" d="M80.35,4.55c0,0.467-0.65,0.867-1.95,1.2
			c-1.3,0.333-2.883,0.5-4.75,0.5s-3.45-0.167-4.75-0.5c-1.333-0.333-2-0.733-2-1.2c0-0.433,0.667-0.816,2-1.15
			c1.333-0.333,2.917-0.5,4.75-0.5s3.417,0.167,4.75,0.5C79.7,3.7,80.35,4.083,80.35,4.55z"/>
		<path style="fill-rule:evenodd;clip-rule:evenodd;fill:#645622;" d="M148.3,24.25c0,0.467-0.649,0.867-1.95,1.2
			c-1.3,0.333-2.883,0.5-4.75,0.5c-1.866,0-3.449-0.167-4.75-0.5c-1.333-0.333-2-0.733-2-1.2c0-0.433,0.667-0.817,2-1.15
			c1.334-0.333,2.917-0.5,4.75-0.5c1.834,0,3.417,0.167,4.75,0.5C147.65,23.4,148.3,23.783,148.3,24.25z"/>
		<path style="fill-rule:evenodd;clip-rule:evenodd;fill:#645622;" d="M127.35,5.55c-1.866,0-3.449-0.167-4.75-0.5
			c-1.3-0.333-1.95-0.733-1.95-1.2S121.3,3,122.6,2.7c1.333-0.333,2.917-0.5,4.75-0.5c1.834,0,3.417,0.167,4.75,0.5
			c1.334,0.333,2,0.716,2,1.15c0,0.467-0.666,0.867-2,1.2C130.8,5.383,129.217,5.55,127.35,5.55z"/>
		<path style="fill-rule:evenodd;clip-rule:evenodd;fill:#645622;" d="M194.4,6.35c0,0.467-0.65,0.85-1.95,1.15
			c-1.334,0.333-2.917,0.5-4.75,0.5c-1.867,0-3.467-0.167-4.8-0.5c-1.301-0.3-1.95-0.683-1.95-1.15s0.649-0.867,1.95-1.2
			c1.333-0.333,2.933-0.5,4.8-0.5c1.866,0,3.45,0.167,4.75,0.5C193.75,5.483,194.4,5.883,194.4,6.35z"/>
		<path style="fill-rule:evenodd;clip-rule:evenodd;fill:#645622;" d="M211.2,21.85c0,0.467-0.65,0.867-1.95,1.2
			c-1.3,0.333-2.884,0.5-4.75,0.5c-1.867,0-3.467-0.167-4.8-0.5c-1.3-0.333-1.95-0.733-1.95-1.2s0.65-0.85,1.95-1.15
			c1.333-0.333,2.933-0.5,4.8-0.5c1.833,0,3.417,0.167,4.75,0.5C210.55,21,211.2,21.383,211.2,21.85z"/>
		<path style="fill-rule:evenodd;clip-rule:evenodd;fill:#645622;" d="M162.7,42.2c0,0.466-0.65,0.85-1.95,1.149
			c-1.333,0.334-2.917,0.5-4.75,0.5s-3.417-0.166-4.75-0.5c-1.333-0.3-2-0.683-2-1.149c0-0.467,0.667-0.867,2-1.2
			c1.3-0.333,2.883-0.5,4.75-0.5c1.866,0,3.45,0.167,4.75,0.5S162.7,41.733,162.7,42.2z"/>
		<path style="fill-rule:evenodd;clip-rule:evenodd;fill:#645622;" d="M224.9,40.75c0,0.467-0.65,0.883-1.95,1.25
			s-2.884,0.567-4.75,0.6c-1.867,0.033-3.45-0.1-4.75-0.4c-1.334-0.3-2-0.684-2-1.15c-0.033-0.466,0.6-0.867,1.899-1.2
			c1.334-0.367,2.917-0.567,4.75-0.6c1.867-0.033,3.467,0.1,4.801,0.4C224.2,39.917,224.866,40.283,224.9,40.75z"/>
		<path style="fill-rule:evenodd;clip-rule:evenodd;fill:#645622;" d="M33.2,8.25c0,0.467-0.65,0.867-1.95,1.2
			c-1.3,0.333-2.883,0.5-4.75,0.5s-3.467-0.167-4.8-0.5c-1.3-0.333-1.95-0.733-1.95-1.2S20.4,7.4,21.7,7.1
			c1.333-0.333,2.933-0.5,4.8-0.5c1.833,0,3.417,0.167,4.75,0.5C32.55,7.4,33.2,7.783,33.2,8.25z"/>
	</g>
</g>
</svg>
