<?xml version="1.0" encoding="iso-8859-1"?>
<!-- Generator: Adobe Illustrator 15.1.0, SVG Export Plug-In . SVG Version: 6.00 Build 0)  -->
<!DOCTYPE svg PUBLIC "-//W3C//DTD SVG 1.1//EN" "http://www.w3.org/Graphics/SVG/1.1/DTD/svg11.dtd">
<svg version="1.1" id="FlashAICB" xmlns="http://www.w3.org/2000/svg" xmlns:xlink="http://www.w3.org/1999/xlink" x="0px" y="0px"
	 width="104.3px" height="152.05px" viewBox="0 0 104.3 152.05" style="enable-background:new 0 0 104.3 152.05;"
	 xml:space="preserve">
<symbol  id="FlashAICB_x5F_0_x2F_Layer_7_x2F__x3C_Path_x3E_" viewBox="-0.018 -10.35 77.869 10.352">
	<g id="Layer_1_2_">
		<path style="fill-rule:evenodd;clip-rule:evenodd;" d="M77.6-7.45l0.25-0.1l-1.8-1.05c-2.233-0.5-4.167-1.083-5.8-1.75l-0.2,0.05
			L69.7-8.9c-0.1,0.5-1.8,0.65-5.1,0.45c-1.733-0.1-5.067-0.4-10-0.9c-2.167,1.434-6.417,1.934-12.75,1.5
			c-6.967-0.8-11.583-1.2-13.85-1.2c-1.533,0-2.8-0.4-3.8-1.2c-0.4-0.3-2.167,0.25-5.3,1.65c-2.8,0.667-5.533,0.983-8.2,0.95
			c-1.467-0.033-3.3-0.267-5.5-0.7C5.033-8.317,4.75-8.3,4.35-8.3L5-8.35c-0.9,0.033-1.8,0.033-2.7,0l-1.65,1.5
			c-0.633,0.033-0.816,0.3-0.55,0.8c0.133,0.267,0.283,0.367,0.45,0.3c0.133-0.067,0.2-0.017,0.2,0.15c0,0.1,0.283,0.133,0.85,0.1
			c0.566,0,0.867,0.283,0.9,0.85C2.5-4.417,2.567-4.2,2.7-4l0.65,0.4L3.9-3.4h0.9c0.133,0,0.35-0.3,0.65-0.9
			C5.683-4.833,5.883-5.067,6.05-5C6.25-4.933,6.567-4.583,7-3.95c0.267,0.4,0.733,1.1,1.4,2.1c0.2,0.033,1.983,0.1,5.35,0.2
			c2,0.066,2.967,0.617,2.9,1.65c7.7,0.033,23.5-0.333,47.4-1.1c0.733,0,2.684-0.55,5.85-1.65c3.133-1.1,4.817-1.65,5.05-1.65
			c0.367,0,0.75-0.333,1.15-1c0.4-0.7,0.65-1.067,0.75-1.1C77.183-6.633,77.433-6.95,77.6-7.45z"/>
	</g>
</symbol>
<g>
	<g>
		
			<radialGradient id="SVGID_1_" cx="41.8267" cy="143.3984" r="47.9139" gradientTransform="matrix(1 -0.0076 -0.0235 -0.2958 14.741 185.74)" gradientUnits="userSpaceOnUse">
			<stop  offset="0" style="stop-color:#000000;stop-opacity:0.698"/>
			<stop  offset="1" style="stop-color:#000000;stop-opacity:0"/>
		</radialGradient>
		<path style="fill-rule:evenodd;clip-rule:evenodd;fill:url(#SVGID_1_);" d="M87.75,131c9.533,2.634,14.3,5.783,14.3,9.45
			c0,1.767-1.7,3.467-5.1,5.1c-3.566,1.733-7.75,2.717-12.55,2.95c-2.634-0.366-4.4-0.55-5.301-0.55
			c-0.3,0.1-0.533,0.116-0.699,0.05c-0.4-0.167,0.399-0.2,2.399-0.1c1.867,0.033,2.667,0.033,2.4,0
			c-0.367-0.067-1.45-0.434-3.25-1.101c-1.667-0.6-2.75-0.916-3.25-0.95c-1.767,0-3.634-0.3-5.601-0.899
			c-1.899-0.566-3.767-0.834-5.6-0.8c-1.833-0.834-3.316-1.45-4.45-1.851c-2-0.733-3.684-0.6-5.05,0.4
			c-4,1.333-6.55,2.149-7.65,2.45c-1.633,0.433-3.65,0.767-6.05,1c-0.9,0.1-1.466,0.75-1.7,1.949l-0.15-0.05
			c-1.034-0.2-2.35-0.566-3.95-1.1c-2.033-0.7-3.333-1.134-3.9-1.3c-2.767-0.767-5.633-1.117-8.6-1.051
			c-1.467,0.034-3.3,0.267-5.5,0.7c2.034,0.775,2.993,1.158,2.875,1.15c0.049-0.004-0.976-0.387-3.075-1.15
			c-1.033-0.066-1.683,0.25-1.95,0.95c-0.367,0.934-1,1.566-1.9,1.9c-6.733-3.567-10.1-6.134-10.1-7.7
			c0-3.667,4.767-6.816,14.3-9.45c9.567-2.6,21.083-3.9,34.55-3.9C66.7,127.1,78.217,128.4,87.75,131z"/>
		
			<use xlink:href="#FlashAICB_x5F_0_x2F_Layer_7_x2F__x3C_Path_x3E_"  width="77.869" height="10.352" x="-0.018" y="-10.35" transform="matrix(1 0 0 -1 13.2998 136.9502)" style="overflow:visible;opacity:0.2109;enable-background:new    ;"/>
	</g>
	<path style="fill-rule:evenodd;clip-rule:evenodd;fill:#2D3D03;" d="M64.25,113.85c3.134-2.866,5.167-4.8,6.1-5.8
		c2.301-2.467,3.967-4.934,5-7.399c0.233-0.534,0.417-1.184,0.551-1.95c0.1-0.467,0.233-1.134,0.399-2
		c0.101,0.866,0.15,2.649,0.15,5.35c0.033,0.967,0.233,2,0.6,3.101c0.5,1.267,0.867,2.25,1.101,2.949c1.5,4,2.25,8.051,2.25,12.15
		c-0.167,2.3-0.25,4.017-0.25,5.15c0,0.733-0.117,1.433-0.351,2.1c-0.1,0.3-0.383,0.95-0.85,1.95c-0.934,2-2.5,3.866-4.7,5.6
		c-1.467,1.167-3.566,2.483-6.3,3.95c-1.101,0.7-2,1.233-2.7,1.6c-1.267,0.634-2.25,0.767-2.95,0.4l-11.15-5.65
		c-0.1-0.733,0.167-2.083,0.8-4.05c0.566-1.967,1.45-3.967,2.649-6c0.9-1.5,2.167-3.3,3.801-5.399
		C59.733,118.233,61.684,116.217,64.25,113.85z"/>
	<path style="fill-rule:evenodd;clip-rule:evenodd;fill:#2D3D03;" d="M37.5,94.45c0.167-0.867,0.467-2.15,0.9-3.851
		c-0.133,1.067,0.233,2.65,1.1,4.75c2.533,6.167,5.067,10.733,7.6,13.7c2.2,2.601,3.566,4.316,4.1,5.15
		c1.267,1.967,1.883,4.017,1.85,6.149c0,0.567-0.017,1.017-0.05,1.351c-0.066,0.6-0.2,1-0.4,1.2l3.801,15.5
		c-1.634,0.1-2.884,0.149-3.75,0.149c-1.567,0-2.767-0.233-3.601-0.7c-0.733-0.399-1.417-0.983-2.05-1.75
		c-0.333-0.399-0.867-1.149-1.6-2.25c-0.333-0.466-1.233-1.55-2.7-3.25c-1.133-1.3-1.917-2.483-2.35-3.55
		c-2.267-5.3-3.4-11.333-3.4-18.1c0-1.566-0.034-3.983-0.1-7.25C36.883,98.833,37.1,96.417,37.5,94.45z"/>
	<path style="fill-rule:evenodd;clip-rule:evenodd;fill:#283603;" d="M43.75,119.3c0.3,0.733,0.65,1.2,1.05,1.4
		c1.034,0.6,1.267-0.267,0.7-2.601c-0.3-1.199-0.7-2.666-1.2-4.399c0.733,0.733,1.567,1.783,2.5,3.149c0.133,0.2,0.333,0.5,0.6,0.9
		c0.233,0.333,0.483,0.566,0.75,0.7c0.167-0.334,0.283-1.134,0.35-2.4c0.167-1.066,0.567-1.583,1.2-1.55s1.216,0.7,1.75,2
		c0.666,1.566,1.1,2.634,1.3,3.2c0.434,1.233,0.684,2.35,0.75,3.35c0.134,2.066-0.283,4.467-1.25,7.2c-0.5,1.366-0.817,2.2-0.95,2.5
		c-0.533,1.1-1.066,1.75-1.6,1.95l0.9-0.9l-0.25,0.101c-0.567-1.067-1.317-2.034-2.25-2.9c-0.367-0.333-1.65-1.283-3.85-2.85
		c-1.6-1.101-2.7-2.217-3.3-3.351c-0.4-0.767-0.7-1.7-0.9-2.8c-0.033-0.3-0.167-1.3-0.4-3c-0.133-0.967-0.2-3.167-0.2-6.6
		c0-0.493,0.033-1.36,0.1-2.601c0.119,0.396,0.27,0.813,0.45,1.25c0.167,0.4,0.75,1.601,1.75,3.601c0.8,1.699,1.25,2.683,1.35,2.949
		C43.333,118.366,43.55,118.934,43.75,119.3z M39.2,107.25c0.267,0.566,0.383,1.4,0.35,2.5v0.05
		C39.245,108.814,39.128,107.965,39.2,107.25z"/>
	<path style="fill-rule:evenodd;clip-rule:evenodd;fill:#283603;" d="M78.3,121.85c0.4,1.801,0.5,3.15,0.3,4.051
		c-0.199,0.8-0.816,1.883-1.85,3.25c-1.066,1.366-2.333,2.75-3.8,4.149c-0.634,0.601-1.434,1.267-2.4,2
		c-1.133,0.8-1.967,1.4-2.5,1.8c-1.133,0.834-1.883,1.351-2.25,1.551c-0.8,0.433-1.649,0.666-2.55,0.699
		c-3.134,0.134-5.3,0.15-6.5,0.051c-0.167-0.634-0.25-1.634-0.25-3c-0.066-1-0.316-2.434-0.75-4.301
		c-0.134-1.166,0.017-2.566,0.45-4.199c0.6-2.2,0.934-3.567,1-4.101l1.399-0.649c0.467-1.733,1.567-3.25,3.301-4.551
		c0.666-0.466,1.466-1.166,2.399-2.1c0.033,0.6-0.116,1.316-0.45,2.15c-0.5,1.399-0.75,2.116-0.75,2.149
		c3.067-1.467,5.617-3.866,7.65-7.2c0.561-0.899,0.994-1.691,1.3-2.375c-0.317,1.089-0.718,2.548-1.2,4.375
		c-0.633,2.567-1.267,4.567-1.899,6c-0.367,0.967-0.867,1.95-1.5,2.95c-0.233,0.3-0.417,0.533-0.55,0.7
		c-0.2,0.267-0.334,0.517-0.4,0.75c0.134-0.033,1.6-0.35,4.4-0.95c1.866-0.366,3.199-0.95,4-1.75c1.5-1.399,2.25-3.066,2.25-5
		C77.517,118.533,77.9,119.717,78.3,121.85z"/>
	<path style="fill-rule:evenodd;clip-rule:evenodd;fill:#364A04;" d="M38.25,91.4c-0.076,0.608-0.284,1.416-0.625,2.425
		c0.11-0.675,0.152-1.217,0.125-1.625L38.25,91.4z M37.625,93.825c-0.02,0.152-0.044,0.311-0.075,0.475
		c-0.2,1.033-0.316,1.717-0.35,2.05v2.25c0.1,4.267,0.15,7.45,0.15,9.551c0,2.666,0.05,4.533,0.15,5.6
		c0.2,2.134,0.633,3.917,1.3,5.35c1,2.067,1.567,4.084,1.7,6.051c0.133,1.233,0.05,1.916-0.25,2.05c-0.367,0.2-0.95-0.101-1.75-0.9
		c-0.867-0.934-1.5-2.2-1.9-3.8c-0.9-3.167-1.35-5.917-1.35-8.25c0-1.366-0.033-3.467-0.1-6.3c-0.033-2.533,0-4.634,0.1-6.3
		c0.067-1.301,0.533-3.034,1.4-5.2C37.051,95.462,37.376,94.587,37.625,93.825z"/>
	<path style="fill-rule:evenodd;clip-rule:evenodd;fill:#445E04;" d="M47.05,44.7c-0.767-3.167-1.5-5.883-2.2-8.15l2.65-2.4
		c1.9-1.633,3.117-2.517,3.65-2.65c0.9-0.233,3.7-1.617,8.4-4.15C57.783,40.983,57,50.167,57.2,54.9
		c0.666,9.667,1.25,18.467,1.75,26.4c1.033,15.467,1.5,26.101,1.399,31.9c-0.1,4.7-0.783,11.616-2.05,20.75l-1.899,12.3
		c-0.534,0.267-1.284,0.483-2.25,0.65c-2,0.3-4.15,0.183-6.45-0.351c-2.3-0.566-3.817-1.533-4.55-2.899l-0.4-1.851l3.8-7.05
		c2.633-6.267,4.167-13.283,4.6-21.05c0.733-12.967,0.3-30.634-1.3-53C49.517,56.333,48.583,51,47.05,44.7z"/>
	<path style="fill-rule:evenodd;clip-rule:evenodd;fill:#3D5404;" d="M47.05,44.7c-0.767-3.167-1.5-5.883-2.2-8.15l2.65-2.4
		c1.9-1.633,3.117-2.517,3.65-2.65c0.9-0.233,3.7-1.617,8.4-4.15C57.783,40.983,57,50.167,57.2,54.9
		c0.666,9.667,1.25,18.467,1.75,26.4c1.033,15.467,1.5,26.101,1.399,31.9c-0.1,4.7-0.783,11.616-2.05,20.75l-1.899,12.3
		c-0.534,0.267-1.284,0.483-2.25,0.65c-2,0.3-4.15,0.183-6.45-0.351c-2.3-0.566-3.817-1.533-4.55-2.899l-0.4-1.851l1.2-1.85
		c0.966-1.634,1.867-3.467,2.7-5.5c0.5-0.267,0.967-0.617,1.4-1.05c0.167-0.2,0.567-0.717,1.2-1.551c0.067,0.967,0.1,2.217,0.1,3.75
		c-0.033,2.034-0.05,3.284-0.05,3.75c0.3-1.233,0.733-3.233,1.3-6c0.633-2.399,1.417-4.267,2.35-5.6
		c0.066,0.967,0.116,1.684,0.149,2.15c0.101,0.899,0.301,1.55,0.601,1.949c1.133-2.267,1.899-5.017,2.3-8.25
		c0.267-2.166,0.4-5.033,0.4-8.6c0-9.233-0.084-15.616-0.25-19.15c-0.067-1.267-0.317-2.783-0.75-4.55
		C54.8,88.866,54.45,87.4,54.35,86.9c-0.133-0.667-0.199-1.584-0.199-2.75c0-1.4-0.034-2.334-0.101-2.801
		c-0.066-0.699-0.166-2.033-0.3-4c-0.2-1.766-0.583-3.016-1.15-3.75c-0.1,0.1-0.35,0.233-0.75,0.4c-0.4,0.133-0.667,0.3-0.8,0.5
		l-0.4-1.35l-0.8-12.45C49.517,56.333,48.583,51,47.05,44.7z"/>
	<path style="fill-rule:evenodd;clip-rule:evenodd;fill:#344704;" d="M47.05,44.7c-0.767-3.167-1.5-5.883-2.2-8.15l2.65-2.4
		c1.9-1.633,3.117-2.517,3.65-2.65c0.9-0.233,3.7-1.617,8.4-4.15C57.783,40.983,57,50.167,57.2,54.9
		c0.666,9.667,1.25,18.467,1.75,26.4c1.033,15.467,1.5,26.101,1.399,31.9c-0.1,4.7-0.783,11.616-2.05,20.75l-1.899,12.3
		c-0.534,0.267-1.284,0.483-2.25,0.65c-2,0.3-4.15,0.183-6.45-0.351c-2.3-0.566-3.817-1.533-4.55-2.899l-0.4-1.851l0.65-0.95
		c0.533-0.8,1.067-1.716,1.6-2.75c0.633,0.101,1.267-0.033,1.9-0.399c-0.033,0.967-0.017,1.649,0.05,2.05
		c0.066,0.667,0.417,1.167,1.05,1.5c0.833,0.5,1.517,0.417,2.05-0.25c0.333-0.4,0.85-1.1,1.55-2.1l0.1,1.05
		c0.2-0.267,0.5-0.9,0.899-1.9c0.334-0.866,0.7-1.45,1.101-1.75l0.1,0.5c1.2-0.066,1.967-1.283,2.3-3.649
		c0.167-1.267,0.267-2.934,0.301-5c0.1-0.7,0.199-1.75,0.3-3.15c0.133-1.267,0.283-2.316,0.45-3.15c0.433-2.166,0.699-4.866,0.8-8.1
		c0.166-5.1,0.267-7.833,0.3-8.2c0.033-0.366,0.217-1.783,0.55-4.25c0.2-1.767,0.267-3.233,0.2-4.399
		c-0.134-2.134-0.733-5.284-1.8-9.45c-0.9-3.3-1.434-6.283-1.601-8.95c-0.166-2.667-0.3-4.35-0.399-5.05
		c-0.3-1.934-0.867-3.467-1.7-4.6c-0.733,0.8-1.417,1.217-2.05,1.25c-0.034-0.2-0.034-0.4,0-0.6c-0.333,0.4-0.65,0.683-0.95,0.85
		l-0.65-9.65C49.517,56.333,48.583,51,47.05,44.7z"/>
	<path style="fill-rule:evenodd;clip-rule:evenodd;fill:#486305;" d="M52.45,86.95c-0.424-1.034-0.607-2.484-0.55-4.351
		c0.033-1.199,0.117-2.883,0.25-5.05c1.133,1.434,1.933,4.634,2.399,9.601c0.167,1.566,0.25,3.966,0.25,7.199v7.75
		c0.167,2.233,0.267,3.967,0.3,5.2c0.101,2.233-0.1,3.834-0.6,4.8l-0.45-0.55c-0.2-0.267-0.316-0.517-0.35-0.75
		c-0.233,0.634-0.334,1.533-0.3,2.7c0.066,1.333,0.1,2.283,0.1,2.85c-0.033,1.267-0.233,2.634-0.6,4.101
		c-0.2,0.8-0.617,2.116-1.25,3.95c-0.233-2.233-0.167-5.317,0.2-9.25c0.4-4.733,0.6-7.834,0.6-9.301V86.95z"/>
	<path style="fill-rule:evenodd;clip-rule:evenodd;fill:#2D3D03;" d="M46.9,59.6c1.067-1.467,2.333-2.733,3.8-3.8
		c4-2.966,5.983-2.133,5.95,2.5c-0.167,2.934-0.25,5.133-0.25,6.6c0.066,1.1,0.1,2.033,0.1,2.8c-0.033,1.4-0.267,2.133-0.7,2.2
		c-0.467,0.067-0.95-0.467-1.45-1.6c-0.233-0.6-0.5-1.3-0.8-2.1c-0.267,0.433-0.6,0.667-1,0.7c-0.399,0.033-0.733-0.167-1-0.6
		c-0.6,0.567-1.25,0.867-1.95,0.9c-0.1-0.9-0.117-1.5-0.05-1.8l-3.65-2.9C45.5,62.067,45.833,61.1,46.9,59.6z"/>
	<path style="fill-rule:evenodd;clip-rule:evenodd;fill:#2D3D03;" d="M44.85,140.9c0.667,1.233,1.467,1.816,2.4,1.75
		c0.567-0.034,1.483-0.184,2.75-0.45c0.167,0,0.45,0.166,0.85,0.5c0.367,0.3,0.717,0.399,1.05,0.3c0.466-0.134,0.817-0.467,1.05-1
		c0.366-0.866,0.566-1.333,0.6-1.4c0.334-0.466,0.884-1.333,1.65-2.6c0.767-1.033,1.517-1.583,2.25-1.65
		c0.767,2.134,0.967,4.334,0.6,6.601c-0.434,2.467-1.45,3.916-3.05,4.35c-1.3,0.367-3.483,0.134-6.55-0.7
		c-3.367-0.933-4.567-2.116-3.6-3.55V140.9z"/>
	<path style="fill-rule:evenodd;clip-rule:evenodd;fill:#364A04;" d="M33.3,86.15c0-1.601,0.367-4.034,1.1-7.301
		c0.567-3,1.15-4.716,1.75-5.149c0.167,1.333,0.283,2.316,0.35,2.95c0.133,1.167,0.367,2.133,0.7,2.9c0.6,1.467,1.6,2.983,3,4.55
		c0.667,0.7,1.966,1.967,3.9,3.801c0.566,0.566,2,1.649,4.3,3.25c1.867,1.333,3.2,2.566,4,3.699c0.533,0.801,0.866,1.767,1,2.9
		c0.066,0.467,0.1,1.5,0.1,3.1l0.8-0.5c0.134,1.067-0.3,2.301-1.3,3.7c-0.934,1.334-1.9,2.167-2.9,2.5
		c-0.967,0.334-2.434,0.45-4.4,0.351c-1.9-0.134-3.317-0.4-4.25-0.801c-3.267-1.366-5.55-4.233-6.85-8.6
		C33.733,94.566,33.3,90.783,33.3,86.15z"/>
	<path style="fill-rule:evenodd;clip-rule:evenodd;fill:#2D3D03;" d="M54.15,97.25c0.699,1.434,1.1,2.717,1.199,3.85l0.25-0.25
		c0,4.7-0.783,7.45-2.35,8.25c-0.733,0.367-1.383,0.25-1.95-0.35c-0.767-0.833-1.216-1.283-1.35-1.35
		c-0.4-0.167-0.934-0.15-1.6,0.05c-1.033,0.333-1.617,0.5-1.75,0.5c-2.333,0.3-4.383-0.117-6.15-1.25
		c-1.633-1.033-2.95-2.65-3.95-4.851c1.267,1.4,3.35,2.45,6.25,3.15c3.2,0.733,5.033,0.134,5.5-1.8c0.267-1.066,0.1-2.117-0.5-3.15
		c-0.133-0.2-0.817-1.083-2.05-2.649c-1.3-1.534-2.233-2.767-2.8-3.7c-0.933-1.434-1.533-2.884-1.8-4.351
		c1.533,2.034,2.717,3.517,3.55,4.45c1.6,1.767,3.05,2.967,4.35,3.601c1.333,0.633,2.15,0.6,2.45-0.101
		c0.066-0.133,0.15-1.133,0.25-3C52.533,94.634,53.35,95.616,54.15,97.25z"/>
	<path style="fill-rule:evenodd;clip-rule:evenodd;fill:#283603;" d="M52.7,100.85l1.05,1.851c0.066,0.967,0.083,1.684,0.05,2.149
		c-0.033,0.801-0.283,1.417-0.75,1.851s-1.417,0.649-2.85,0.649c-1.367,0-2.367-0.149-3-0.449c0.2-0.534,0.816-0.967,1.85-1.301
		c1.3-0.433,2.083-0.767,2.35-1c0.567-0.466,0.95-1.033,1.15-1.699C52.684,102.434,52.733,101.75,52.7,100.85z"/>
	<path style="fill-rule:evenodd;clip-rule:evenodd;fill:#4E6B06;" d="M34.25,96.05c-0.467-1.733-0.7-4.25-0.7-7.55
		c0-1.7,0.4-4.083,1.2-7.15c0.767-3.066,1.15-5.417,1.15-7.05c0.2,0.934-0.066,3.217-0.8,6.851c-0.2,1.033-0.3,2.3-0.3,3.8
		c0.034,1.7,0.05,2.967,0.05,3.8c0.033,2.4,0.4,5.033,1.1,7.9c0.533,2.066,0.867,3.267,1,3.6c0.302,0.794,0.661,1.452,1.075,1.975
		C36.149,100.414,34.891,98.355,34.25,96.05z"/>
	<path style="fill-rule:evenodd;clip-rule:evenodd;fill:#364A04;" d="M16.05,24.6c1.233-0.2,2.75-0.3,4.55-0.3
		c1,0,2.517,0.017,4.55,0.05c3.4-0.067,5.983,0.533,7.75,1.8L43,29.3c0,2.467-0.833,4.983-2.5,7.55C39.1,39.017,37.267,41,35,42.8
		c-0.933,0.733-2.517,1.633-4.75,2.7c-1.667,0.9-2.917,1.533-3.75,1.9c-1.433,0.667-2.767,1.067-4,1.2
		c-3.867,0.467-6.717,0.7-8.55,0.7c-3.767-0.066-6.767-0.816-9-2.25c-2.867-1.833-4.5-3.466-4.9-4.9c0.7-0.2,1.85-0.233,3.45-0.1
		c1.4-0.033,2.733-0.45,4-1.25c0.566-0.367,1.383-0.933,2.45-1.7c0.933-0.667,1.783-1.167,2.55-1.5c0.2-0.067,0.683-0.2,1.45-0.4
		c0.6-0.133,1.05-0.3,1.35-0.5c-2.133-0.167-3.716-0.367-4.75-0.6c-1.566-0.4-3-1.1-4.3-2.1c-1.2-0.9-2.2-2.066-3-3.5
		c-0.667-1.1-1.033-1.7-1.1-1.8c-0.4-0.833-0.617-1.5-0.65-2c0.6-0.167,1.5-0.2,2.7-0.1c1.366,0.1,2.283,0.117,2.75,0.05
		c1.167-0.1,2.683-0.417,4.55-0.95C13.767,25.1,15.283,24.733,16.05,24.6z"/>
	<path style="fill-rule:evenodd;clip-rule:evenodd;fill:#2D3D03;" d="M40.35,70.5c-1.133,0.067-3.583,0.05-7.35-0.05l-7.8-0.3
		c-0.7-0.066-1.517-0.233-2.45-0.5c-1.067-0.333-1.85-0.7-2.35-1.1c4.5-1.966,7.3-4.4,8.4-7.3c1.333-3.367,2.1-5.233,2.3-5.6
		c1.1-1.967,2.617-3.217,4.55-3.75l17.6-14.6c0.767,0.534,1.267,1.617,1.5,3.25c0.134,1.833,0.283,3.083,0.45,3.75
		c0.3,1.233,0.483,2.534,0.55,3.9c0,4.7-0.066,7.883-0.2,9.55c-0.1,1.467-0.566,3.283-1.399,5.45
		c-0.567,1.367-1.483,2.517-2.75,3.45c-0.867,0.667-2.183,1.4-3.95,2.2C45.417,69.783,43.05,70.333,40.35,70.5z"/>
	<path style="fill-rule:evenodd;clip-rule:evenodd;fill:#364A04;" d="M39.6,69.7c-1.133,0.066-3.583,0.05-7.35-0.05
		c-3.5-0.033-6.117-0.133-7.85-0.3c-1.1-0.1-1.816-0.167-2.15-0.2c-0.867-0.167-1.533-0.433-2-0.8c3.8-1.667,6.4-4.3,7.8-7.9
		c1.333-3.4,2.1-5.267,2.3-5.6c1.1-1.967,2.6-3.217,4.5-3.75l17.6-14.55c0.767,0.534,1.267,1.6,1.5,3.2
		c0.166,1.867,0.333,3.133,0.5,3.8c0.333,1.434,0.5,2.733,0.5,3.9c0.066,4.233,0.017,7.4-0.15,9.5c-0.133,1.7-0.616,3.517-1.45,5.45
		c-0.566,1.367-1.483,2.533-2.75,3.5c-0.833,0.6-2.133,1.317-3.9,2.15C44.633,68.983,42.267,69.533,39.6,69.7z"/>
	<path style="fill-rule:evenodd;clip-rule:evenodd;fill:#435C05;" d="M67.45,48.2c3.833,1.566,5.866,2.417,6.1,2.55
		c2.233,1.167,3.816,2.4,4.75,3.7c1.134,1.5,2.084,3.183,2.851,5.05c0.767,1.967,1.216,3.833,1.35,5.6
		c0.066,0.967,0.083,2.2,0.05,3.7c-0.033,1.667-0.05,2.9-0.05,3.7c0,1.067-0.017,1.65-0.05,1.75c-0.967-0.667-2.316-1.333-4.05-2
		c-2.534-1-3.934-1.567-4.2-1.7c-2.8-1.333-5.084-2.533-6.851-3.6c-1.767-1.1-3.816-3.3-6.149-6.6c-1.167-1.4-1.983-2.467-2.45-3.2
		c-0.767-1.3-0.934-2.566-0.5-3.8l4.45-7.5C62.634,46.083,64.217,46.867,67.45,48.2z"/>
	<path style="fill-rule:evenodd;clip-rule:evenodd;fill:#364A04;" d="M62.7,44.3c-0.066,0.233,1.517,1.017,4.75,2.35
		c3.833,1.533,5.866,2.367,6.1,2.5c2.167,1.167,3.75,2.4,4.75,3.7c1.134,1.5,2.084,3.183,2.851,5.05
		c0.767,1.967,1.216,3.833,1.35,5.6c0.066,1,0.083,2.25,0.05,3.75c-0.033,1.667-0.05,2.9-0.05,3.7c0,1.066-0.017,1.65-0.05,1.75
		c-0.967-0.7-2.316-1.383-4.05-2.05c-2.4-0.933-3.801-1.5-4.2-1.7c-2.7-1.233-4.983-2.434-6.851-3.6
		c-1.8-1.133-3.85-3.317-6.149-6.55c-1.167-1.4-1.983-2.483-2.45-3.25c-0.767-1.3-0.934-2.566-0.5-3.8L62.7,44.3z"/>
	<path style="fill-rule:evenodd;clip-rule:evenodd;fill:#364A04;" d="M98.15,39.9c-1.733-0.3-3.817-0.35-6.25-0.15
		c-2.767,0.3-4.851,0.5-6.25,0.6c-3.667,0.3-7.233,0.233-10.7-0.2c-2.934-0.367-5.3-0.917-7.101-1.65
		c-2-0.667-3.066-1.283-3.199-1.85l-5-7.2c0.1-0.5,0.583-0.883,1.449-1.15c0.467-0.133,1.117-0.283,1.95-0.45
		c0.867-0.267,2.033-0.65,3.5-1.15c1.267-0.367,2.483-0.55,3.65-0.55c5.767,0.067,10.133,0.167,13.1,0.3
		c2.533,0.1,5.101,0.783,7.7,2.05c2.467,1.233,4.616,2.817,6.45,4.75c0.633,0.667,1.633,1.65,3,2.95
		c1.166,1.167,2.066,2.216,2.7,3.15c0.767,1.2,1.149,2.05,1.149,2.55c-0.7-0.1-1.717-0.417-3.05-0.95
		C99.85,40.383,98.816,40.033,98.15,39.9z"/>
	<path style="fill-rule:evenodd;clip-rule:evenodd;fill:#364A04;" d="M41.75,11.5c0.367-0.5,0.867-1.267,1.5-2.3
		c0.633-0.833,1.333-1.434,2.1-1.8c0.733-0.333,1.267-0.483,1.6-0.45c0.3,0,0.8,0.233,1.5,0.7c0.667,0.434,2.7,1.85,6.1,4.25
		c0.267,0.2,0.684,0.483,1.25,0.85c0.434,0.333,0.733,0.7,0.9,1.1c0.2,0.433,0.267,1.066,0.2,1.9c-0.067,0.9-0.101,1.533-0.101,1.9
		L56.9,22.1l-17.55-4.2c-0.4-1-0.267-2.133,0.4-3.4C40.15,13.767,40.817,12.767,41.75,11.5z"/>
	<path style="fill-rule:evenodd;clip-rule:evenodd;fill:#364A04;" d="M64.95,8.45c0.133-0.233,0.366-0.8,0.7-1.7
		c0.566,1.167,1.916,3.067,4.05,5.7c1.533,2.4,1.616,4.433,0.25,6.1c-1.134,1.333-2.434,2.4-3.9,3.2c-1.6,0.867-3.2,1.283-4.8,1.25
		l-7.1-3.55c0.833-0.7,1.916-1.967,3.25-3.8c1.366-1.867,2.449-3.15,3.25-3.85c0.133-0.1,0.899-0.6,2.3-1.5
		C63.884,9.733,64.55,9.117,64.95,8.45z"/>
	<path style="fill-rule:evenodd;clip-rule:evenodd;fill:#2D3D03;" d="M69.65,53.05L82.5,61.6c-0.333,0.633-0.833,1.267-1.5,1.9
		c-0.733,0.667-1.4,1.1-2,1.3c-0.033,0.233,0,1.383,0.1,3.45c-1.233-1.167-2.416-1.967-3.55-2.4c-0.434-0.167-1.066-0.333-1.899-0.5
		c-0.9-0.2-1.551-0.367-1.95-0.5c-0.233-0.067-0.517-0.233-0.851-0.5c-0.399-0.3-0.666-0.483-0.8-0.55
		c-2.934-1.6-5.1-2.783-6.5-3.55c-1.5-0.7-2.583-1.283-3.25-1.75c-0.633-0.5-1.017-0.967-1.149-1.4
		c-0.134-0.434-0.167-0.967-0.101-1.6c0.066-0.667,0.217-1.15,0.45-1.45c0.434-0.566,1.45-0.917,3.05-1.05
		c0.867-0.067,1.967-0.083,3.3-0.05C67.684,52.883,68.95,52.917,69.65,53.05z"/>
	<path style="fill-rule:evenodd;clip-rule:evenodd;fill:#2D3D03;" d="M36.85,47.7c0.967-1.367,2.65-2.15,5.05-2.35
		c0.934-0.1,2.85-0.033,5.75,0.2c0.434,0.034,1.35,0.083,2.75,0.15c1.3,0.133,2.167,0.466,2.6,1c0.333,0.433,0.55,1.267,0.65,2.5
		c0.566,1.667,0.899,2.95,1,3.85c0.133,0.867,0.133,1.967,0,3.3c-0.233,0.033-0.667-0.083-1.301-0.35
		c-0.8-0.367-1.233-0.567-1.3-0.6c-0.8-0.267-1.4-0.367-1.8-0.3c-0.467,0.1-1.033,0.433-1.7,1c-0.3,0.267-0.667,0.7-1.1,1.3
		c-0.434,0.633-0.784,1.067-1.05,1.3c-1.033,0.966-2.683,1.933-4.95,2.9c-0.4,0.167-0.9,0.25-1.5,0.25c-0.8-0.033-1.3-0.033-1.5,0
		c-0.5,0.1-1.05,0.4-1.65,0.9c-0.733,0.6-1.25,0.983-1.55,1.15c-1.167,0.6-2.417,1.067-3.75,1.4c-1.467,0.367-2.783,0.483-3.95,0.35
		c1.5-0.633,2.383-1.017,2.65-1.15c1.033-0.6,1.667-1.3,1.9-2.1c-0.567,0.033-1.15-0.033-1.75-0.2c-0.767-0.233-1.217-0.567-1.35-1
		c0.867-0.2,1.533-0.4,2-0.6c0.333-0.2,0.967-0.65,1.9-1.35c0.767-0.6,1.434-1,2-1.2c0.367-0.133,0.867-0.216,1.5-0.25
		c0.767-0.066,1.267-0.117,1.5-0.15V56.6L36.85,47.7z"/>
	<path style="fill-rule:evenodd;clip-rule:evenodd;fill:#2D3D03;" d="M2.3,44.5c0.467,0.6,1,1.1,1.6,1.5
		c0.4,0.233,1.05,0.55,1.95,0.95c1.333,0.566,3,0.85,5,0.85c0.466,0,1.283,0.034,2.45,0.1c1.034,0.033,1.784-0.083,2.25-0.35
		l2.4,1.85c-0.7,0.367-1.25,0.583-1.65,0.65c-0.767,0.167-2.267,0.083-4.5-0.25c-1.733-0.3-3.133-0.683-4.2-1.15
		c-2.467-1.1-3.934-1.8-4.4-2.1c-2.667-1.8-3.667-3.367-3-4.7L2.3,44.5z"/>
	<path style="fill-rule:evenodd;clip-rule:evenodd;fill:#2D3D03;" d="M12.2,35.4c0.267,0.633-0.5,1.267-2.3,1.9l0.15-1.4
		c-0.9-0.1-1.667-0.316-2.3-0.65c-0.033-0.033-0.7-0.483-2-1.35c-1.367-0.966-2.267-1.75-2.7-2.35
		c-0.654-0.981-1.113-2.14-1.375-3.475c0.456,0.889,1.447,2.097,2.975,3.625c0.367,0.4,0.867,0.716,1.5,0.95
		c0.367,0.167,0.934,0.383,1.7,0.65c0.333,0.134,0.833,0.4,1.5,0.8c0.633,0.367,1.133,0.617,1.5,0.75
		c0.167,0.066,0.417,0.117,0.75,0.15C11.934,35.067,12.133,35.2,12.2,35.4z"/>
	<path style="fill-rule:evenodd;clip-rule:evenodd;fill:#2D3D03;" d="M85.85,27.05c2.967,0.2,4.767,0.733,5.4,1.6
		c0.667,0.9,0.5,2.083-0.5,3.55c-0.366,0.566-0.55,0.883-0.55,0.95c0,0.133,0.283,0.3,0.85,0.5c0.5,0.233,1.417,0.55,2.75,0.95
		c1.2,0.4,2.017,0.833,2.45,1.3c-3.2-0.533-4.967-0.816-5.3-0.85c-2.066-0.2-3.851-0.133-5.351,0.2c-1,0.233-1.55,0.5-1.649,0.8
		c-0.066,0.267,0.283,0.667,1.05,1.2c0.866,0.633,1.717,1.017,2.55,1.15c0.533,0.1,1.283,0.15,2.25,0.15
		c1.033,0,1.783,0.034,2.25,0.1c1.233,0.167,3.066,0.517,5.5,1.05c1.7,0.3,2.983,0.65,3.851,1.05c0.233,0.1,0.683,0.267,1.35,0.5
		c0.566,0.233,0.917,0.467,1.05,0.7c-0.767,0-1.767-0.3-3-0.9c-1.399-0.7-2.366-1.1-2.899-1.2c-1.867-0.4-3.884-0.434-6.051-0.1
		c-2.066,0.3-4,0.85-5.8,1.65l-9.6,6.95c-1.2-0.1-2.084-0.184-2.65-0.25c-0.967-0.1-1.833-0.3-2.6-0.6
		c-1.733-0.733-3.667-1.883-5.8-3.45c-0.467-0.367-2.233-1.783-5.301-4.25c-1.5-1.033-2.683-1.933-3.55-2.7
		c-1.6-1.434-2.316-2.7-2.149-3.8c0.199-1.267,1.267-2.35,3.199-3.25c1.267-0.6,2.817-1.066,4.65-1.4
		c1.866-0.333,4.667-0.733,8.4-1.2C75.75,26.817,80.816,26.684,85.85,27.05z"/>
	<path style="fill-rule:evenodd;clip-rule:evenodd;fill:#2D3D03;" d="M41,12.7c0.4-0.2,1.283-0.017,2.65,0.55
		c1.067,0.434,1.733,0.15,2-0.85c0.1-0.333,0.133-0.85,0.1-1.55c-0.033-0.667,0-1.167,0.1-1.5c0.767,0.267,1.583,0.783,2.45,1.55
		c0.3,0.267,0.983,0.934,2.05,2c0.566,0.567,0.883,0.867,0.95,0.9c0.333,0.233,0.733,0.333,1.2,0.3c0.2-0.033,0.65-0.233,1.35-0.6
		c0.567-0.3,1.017-0.383,1.351-0.25c0.633,0.267,1.1,1.017,1.399,2.25c0.301,0.967,0.167,1.833-0.399,2.6
		c-0.4,0.566-1.101,1.15-2.101,1.75c-1,0.7-1.767,1.2-2.3,1.5c-0.966,0.6-1.8,0.95-2.5,1.05c-1.966,0.267-3.8-0.017-5.5-0.85
		l0.1-2.1c-0.5,0.867-1.433,0.083-2.8-2.35C39.8,14.733,39.767,13.267,41,12.7z"/>
	<path style="fill-rule:evenodd;clip-rule:evenodd;fill:#2D3D03;" d="M65.95,15.9L59,16.3c-0.033-0.866,0.134-1.667,0.5-2.4
		c0.4-0.767,0.967-1.367,1.7-1.8c0.267-0.1,0.616-0.25,1.05-0.45c0.4-0.167,0.733-0.367,1-0.6c0.434-0.366,0.884-0.783,1.35-1.25
		c0.334-0.167,0.867,0.017,1.601,0.55c1.2,0.9,1.866,1.417,2,1.55c0.767,0.7,1.116,1.417,1.05,2.15
		c-0.033,0.733-0.434,1.267-1.2,1.6C67.417,15.917,66.717,16,65.95,15.9z"/>
	<path style="fill-rule:evenodd;clip-rule:evenodd;fill:#2D3D03;" d="M13.55,33.65c0.067-0.233,0.534-0.517,1.4-0.85
		c0.466-0.167,1.033-0.366,1.7-0.6c0.233-0.1,0.85-0.4,1.85-0.9c0.9-0.5,1.367-0.9,1.4-1.2c-3.833-0.3-5.767-0.45-5.8-0.45
		c-2.133-0.233-4.034-0.65-5.7-1.25c3.233,0.067,5.383,0.083,6.45,0.05c2.367-0.067,4.5-0.317,6.4-0.75
		c-0.1-0.3-0.617-0.717-1.55-1.25c-0.9-0.467-1.317-0.95-1.25-1.45l10.35-3.15c5.1,0,7.75,1.117,7.95,3.35
		c0.067,0.566-0.017,1.183-0.25,1.85c-0.1,0.3-0.35,0.867-0.75,1.7c-0.6,1.533-1.1,2.583-1.5,3.15c-0.6,0.867-1.717,1.684-3.35,2.45
		c-1.367,0.667-2.7,1.133-4,1.4c-2.967,0.6-6.3,0.517-10-0.25C14.5,34.967,13.383,34.35,13.55,33.65z"/>
	<path style="fill-rule:evenodd;clip-rule:evenodd;fill:#2D3D03;" d="M10.05,41.15l3.95,0.9c0.367,1.333,0.633,2.383,0.8,3.15
		c0.3,1.4,0.017,2.367-0.85,2.9c-0.6,0.367-1.583,0.333-2.95-0.1c-1.333-0.433-2.133-0.967-2.4-1.6c-0.067-0.2-0.1-0.566-0.1-1.1
		c0.033-0.5-0.017-0.867-0.15-1.1c-0.233-0.434-0.733-0.684-1.5-0.75c-0.867-0.034-1.483-0.1-1.85-0.2
		C7.667,43.25,9.35,42.55,10.05,41.15z"/>
	<path style="fill-rule:evenodd;clip-rule:evenodd;fill:#435C05;" d="M97.75,38.75l-0.3,0.15c-1.9,0-2.95-0.167-3.15-0.5
		c-0.2-0.3-0.233-0.517-0.1-0.65c0.133-0.167,0.383-0.233,0.75-0.2c0.1-0.4-0.05-0.716-0.45-0.95c0.467-0.233,1.134-0.317,2-0.25
		c0.833,0.066,1.467,0.233,1.9,0.5c0.833,0.433,1.133,0.9,0.899,1.4C99.066,38.717,98.55,38.883,97.75,38.75z"/>
	<path style="fill-rule:evenodd;clip-rule:evenodd;fill:#435C05;" d="M95.4,34.3c-0.834-0.333-1.567-0.65-2.2-0.95
		c-1.233-0.567-1.434-1.033-0.601-1.4c0.7-0.333,1.534-0.133,2.5,0.6c0.367,0.3,1.017,0.934,1.95,1.9
		c-0.066,0.1-0.149,0.133-0.25,0.1c-0.1-0.033-0.184-0.066-0.25-0.1L95.4,34.3z"/>
	<path style="fill-rule:evenodd;clip-rule:evenodd;fill:#435C05;" d="M80,65.3l0.3-0.3c1.066,0.667,1.434,2.283,1.101,4.85
		c-0.667-0.233-1.217-0.917-1.65-2.05C79.25,66.567,79.333,65.733,80,65.3z"/>
	<path style="fill-rule:evenodd;clip-rule:evenodd;fill:#435C05;" d="M41.9,67.5c-2.633,0.3-4.85,0.35-6.65,0.15
		c-1.833-0.2-2.967-0.55-3.4-1.05c0.333-0.2,0.85-0.367,1.55-0.5c0.8-0.1,1.35-0.217,1.65-0.35c0.3-0.133,0.9-0.333,1.8-0.6
		c0.733-0.233,1.316-0.467,1.75-0.7c1.433-0.7,3.533-1.883,6.3-3.55c0.833-0.4,1.6-0.9,2.3-1.5c0.2-0.167,0.417-0.417,0.65-0.75
		c0.233-0.233,0.55-0.35,0.95-0.35l0.35-0.65c0.5-0.433,1.117-0.517,1.85-0.25c0.667,0.267,1.066,0.7,1.2,1.3
		c0.166,0.867,0.017,1.667-0.45,2.4c-0.2,0.3-0.75,0.917-1.65,1.85c-1.4,1.4-2.617,2.417-3.65,3.05
		C45.05,66.833,43.533,67.333,41.9,67.5z"/>
	<path style="fill-rule:evenodd;clip-rule:evenodd;fill:#435C05;" d="M19.9,27.75c-0.7,0.3-2.667,0.467-5.9,0.5
		c-3.4,0.033-5.117-0.233-5.15-0.8c0.767-0.367,2.05-0.583,3.85-0.65c1.1-0.233,1.783-0.35,2.05-0.35c1.267-0.067,2.1-0.067,2.5,0
		c0.367,0.066,0.683,0.233,0.95,0.5c0.333,0.333,0.6,0.55,0.8,0.65L19.9,27.75z"/>
	<path style="fill-rule:evenodd;clip-rule:evenodd;fill:#435C05;" d="M15.85,30.65l-0.3,0.65c-0.466,0.5-0.917,0.833-1.35,1
		c-0.434,0.167-1,0.217-1.7,0.15c-0.934-0.067-1.883-0.233-2.85-0.5c-1.4-0.434-2-1-1.8-1.7c1-0.066,2.333-0.017,4,0.15
		C13.85,30.567,15.183,30.65,15.85,30.65z"/>
	<path style="fill-rule:evenodd;clip-rule:evenodd;fill:#435C05;" d="M50.6,12.75c-0.2-0.1-0.434-0.3-0.7-0.6
		c-0.367-0.367-0.6-0.6-0.7-0.7c-0.667-0.367-1.184-0.684-1.55-0.95c-0.667-0.433-0.933-0.85-0.8-1.25
		c1.867-0.133,3.183,0.3,3.95,1.3c0.367,0.5,0.5,0.934,0.4,1.3c-0.067,0.3-0.3,0.65-0.7,1.05L50.6,12.75z"/>
	<path style="fill-rule:evenodd;clip-rule:evenodd;fill:#435C05;" d="M30.55,63.95c-0.633,0.9-1.767,1.35-3.4,1.35
		c0.2-0.667,0.617-1.233,1.25-1.7c0.7-0.533,1.367-0.7,2-0.5v0.45L30.55,63.95z"/>
	<path style="fill-rule:evenodd;clip-rule:evenodd;fill:#9C2430;" d="M36.95,4.45L35.9,4.7c-0.5,0-0.833-0.133-1-0.4
		c-0.267-0.267-1.4-0.45-3.4-0.55l-4.25-0.2L27.2,3.4l7.1-0.8L30,2.05L25.4,2l-3.15-0.45L22.1,1.6c-0.467,0.2-0.783,0.433-0.95,0.7
		c-0.3,0.333-0.117,1.167,0.55,2.5l0.6,1.15C21.233,5.517,20.133,5.233,19,5.1l-0.75-0.05c-1.567-0.233-2.867-0.017-3.9,0.65
		L14.2,5.75c-1-1.233-0.784-2.217,0.65-2.95c1.933-0.933,4.033-1.4,6.3-1.4l0.05-0.05l6.35-0.2c1.767-0.1,3.983,0.133,6.65,0.7
		C36.167,2.184,37.083,3.05,36.95,4.45z M35.75,7.55l-0.5,1.4L34.6,8c-0.867-1.033-2.067-1.65-3.6-1.85L30.9,6.1
		c-1.367-0.233-2.383,0.1-3.05,1c-1.333,0.6-2.067,0.167-2.2-1.3c0-0.433,0.217-0.716,0.65-0.85l1.55-0.4
		c1.233-0.2,2.566-0.033,4,0.5C33.483,5.684,34.783,6.517,35.75,7.55z"/>
	<path style="fill-rule:evenodd;clip-rule:evenodd;fill:#F27987;" d="M35.35,9.1l0.7,3.8c0.133,1.267,0.517,2.517,1.15,3.75
		l2.15,3.4l0.8,2.3l1.5,3l-0.8-0.9L36.3,17c-0.7-1.3-1.15-2.633-1.35-4c-0.2-1.4-0.1-2.75,0.3-4.05L35.35,9.1z M34.2,1.85
		c-2.667-0.567-4.883-0.8-6.65-0.7l-6.35,0.2L21.15,1.4c-2.267,0-4.367,0.467-6.3,1.4c-1.434,0.733-1.65,1.717-0.65,2.95l0.15-0.05
		l0.95,1.25l1.5,1.2c1.1,0.733,2.483,1.3,4.15,1.7l2.45,0.7c1.267,0.534,2.434,1.184,3.5,1.95c1.3,0.9,2.533,1.917,3.7,3.05
		c1.133,1.067,2.083,2.184,2.85,3.35l2.25,3.5l-6.9-7.3c-1.367-1.3-3.1-2.333-5.2-3.1l-6.4-2.4c-2.567-1.067-4.284-2.583-5.15-4.55
		c-0.566-1.3-0.5-2.517,0.2-3.65l11.5-1.2C26.317-0.066,28.4-0.05,30,0.25c1.867,0.367,3.833,0.9,5.9,1.6
		c0.467,0.1,0.883,0.283,1.25,0.55c1.233,0.633,1.567,1.667,1,3.1L37.6,5.7l-0.9,0.65l-0.05-0.9l0.3-1
		C37.083,3.05,36.167,2.184,34.2,1.85z"/>
	<path style="fill-rule:evenodd;clip-rule:evenodd;fill:#C23E4D;" d="M21.8,7.3c-2.566-1.066-4.733-1.183-6.5-0.35L14.35,5.7
		c1.033-0.667,2.333-0.883,3.9-0.65L19,5.1l3.5,2.45L21.8,7.3z M30.1,12.8l4.45,4.1l-0.45-0.95l2.8,2.4l-0.1-0.3l0.1,0.1l1.25,1.8
		c0.367,0.833,0.5,1.683,0.4,2.55l0.4,0.85c0.5,1.167,0.716,2.383,0.65,3.65c-0.733-0.733-1.583-1.733-2.55-3l-0.45-0.95l-0.9-3.7
		h-0.05l-0.7-0.65L35,18.8l-0.35-0.4c-2.267-2.033-3.816-3.533-4.65-4.5l-1.65-2l2.9,2.45L30.1,12.8z"/>
	<path style="fill-rule:evenodd;clip-rule:evenodd;fill:#D95564;" d="M36.7,6.35C36.2,7.083,35.967,7.867,36,8.7
		c0,0.5,0.133,1.066,0.4,1.7c0.4,0.934,0.85,1.733,1.35,2.4l1.4,1.65l2.45,2.1c0.9,0.7,1.9,1.2,3,1.5v0.05l0.1,0.05h-0.1
		c-2.333-0.033-4.4-0.85-6.2-2.45l-1.1-1.1l0.75,1.7c0.833,1.434,2.05,2.567,3.65,3.4l-0.05,0.45L41.5,20.1l-2.15-0.05l-2.15-3.4
		c-0.633-1.233-1.017-2.483-1.15-3.75l-0.7-3.8l0.5,1.05c-0.133-0.6-0.184-1.133-0.15-1.6l0.05-1l0.9-2.1L36.7,6.35z M33.25,10.5
		c-0.2,1.633,0.067,3.383,0.8,5.25c-1.867-1.867-3.167-4.017-3.9-6.45c-0.433-1.4,0.2-2,1.9-1.8l0.15,0.2
		C33.167,8.567,33.517,9.5,33.25,10.5z M22.5,7.55L19,5.1c1.133,0.133,2.233,0.417,3.3,0.85c0.667,0.267,1.284,0.583,1.85,0.95
		c1.867,1.1,3.434,2.3,4.7,3.6l1.75,2.1l3.5,3.35l0.45,0.95l-4.45-4.1l-1.2-1.3l-2.55-2C25.25,8.7,23.967,8.05,22.5,7.55z
		 M26.55,14.5c-1.733-0.933-3.783-1.717-6.15-2.35l-0.15-0.05c-1.533,1.233-1.767,2.7-0.7,4.4l1.05,1.25
		c0.433,0.434,1,0.867,1.7,1.3c1.633,0.867,3.3,1.9,5,3.1c1.467,1.034,3.05,1.817,4.75,2.35l0.45,0.4l-1.2-3.2v-0.15l-1.6-3.85
		C29.167,16.434,28.117,15.367,26.55,14.5z M28.8,15.1l6.9,7.3l2.25,3.7c0.5,0.8,1.133,1.583,1.9,2.35L39.6,27
		c0.066-1.267-0.15-2.483-0.65-3.65l-0.4-0.85c0.1-0.867-0.033-1.717-0.4-2.55l2.7,4.5l-0.15-0.2l1.05,3.45
		c-0.133,1.3-0.85,2.05-2.15,2.25l-7.1-3.9c-1.533-0.9-3.2-1.517-5-1.85l-5.3-1.05c-2.367-0.466-4-1.55-4.9-3.25
		c-0.733-1.333-1.333-2.65-1.8-3.95L12.15,8.2c-0.867-1.534-1.3-3.017-1.3-4.45c0-0.7,0.183-1.25,0.55-1.65l0.85-0.7
		c-0.7,1.133-0.767,2.35-0.2,3.65c0.867,1.967,2.583,3.483,5.15,4.55l6.4,2.4C25.7,12.767,27.433,13.8,28.8,15.1z M36.3,17l1.25,2
		l-0.65-0.85l-0.1-0.1L36.3,17z"/>
	<path style="fill-rule:evenodd;clip-rule:evenodd;fill:#AB2834;" d="M31.85,5.05c-1.434-0.533-2.767-0.7-4-0.5l-1.55,0.4
		c-0.433,0.133-0.65,0.417-0.65,0.85c0.133,1.467,0.867,1.9,2.2,1.3L27.8,7.25c-0.2,1.067,0.15,2.15,1.05,3.25
		c-1.267-1.3-2.833-2.5-4.7-3.6c-0.566-0.367-1.183-0.683-1.85-0.95L21.7,4.8c-0.667-1.333-0.85-2.167-0.55-2.5
		c0.167-0.267,0.483-0.5,0.95-0.7l0.15-0.05L25.4,2L30,2.05l4.3,0.55l-7.1,0.8l0.05,0.15l4.25,0.2c2,0.1,3.133,0.283,3.4,0.55
		c0.167,0.267,0.5,0.4,1,0.4l1.05-0.25l-0.3,1l-0.9,2.1C34.783,6.517,33.483,5.684,31.85,5.05z M37.7,6.7l0.2-0.5l0.8,1.55
		l-0.45,2.45c-0.3,1.233-0.033,2.433,0.8,3.6l2.55,2.75l-2.45-2.1l-1.4-1.65l-0.1-0.2l-0.6-1.75c-0.267-0.833-0.316-1.583-0.15-2.25
		C37.033,8.1,37.3,7.467,37.7,6.7z M22.55,10.2c1.3-0.1,2.467,0.033,3.5,0.4c0.733,0.267,1.5,0.7,2.3,1.3l1.65,2
		c0.833,0.967,2.383,2.467,4.65,4.5L35,18.8l-0.05-0.1l0.7,0.65h0.05l0.9,3.7L37.05,24c0.967,1.267,1.817,2.267,2.55,3l0.25,1.45
		c-0.767-0.767-1.4-1.55-1.9-2.35l-4.5-7.2c-0.767-1.167-1.717-2.283-2.85-3.35c-1.167-1.133-2.4-2.15-3.7-3.05
		c-1.066-0.767-2.233-1.417-3.5-1.95L22.55,10.2z"/>
	<path style="fill-rule:evenodd;clip-rule:evenodd;fill:#D94A59;" d="M37.7,6.7c-0.4,0.767-0.667,1.4-0.8,1.9
		c-0.167,0.667-0.117,1.417,0.15,2.25l0.6,1.75l0.1,0.2c-0.5-0.667-0.95-1.466-1.35-2.4C36.133,9.767,36,9.2,36,8.7
		c-0.033-0.833,0.2-1.617,0.7-2.35l0.9-0.65l0.55-0.2L37.7,6.7z M23.1,9.1c-0.934-0.434-2.083-0.817-3.45-1.15L16.95,8
		c-0.1,0-0.15,0.05-0.15,0.15l-1.5-1.2c1.767-0.833,3.934-0.717,6.5,0.35l0.7,0.25c1.467,0.5,2.75,1.15,3.85,1.95l2.55,2l2.35,2.85
		l-2.9-2.45c-0.8-0.6-1.567-1.033-2.3-1.3L23.1,9.1z M30.4,20.9c-0.867-1.4-1.917-2.767-3.15-4.1c-1.367-1.566-3.167-2.5-5.4-2.8
		c-0.4,0.434-0.467,0.967-0.2,1.6c0.367,0.933,0.95,1.717,1.75,2.35l8.65,6.55c-1.7-0.533-3.283-1.316-4.75-2.35
		c-1.7-1.2-3.367-2.233-5-3.1c-0.7-0.433-1.267-0.866-1.7-1.3l-1.05-1.25c-1.066-1.7-0.833-3.167,0.7-4.4l0.15,0.05
		c2.367,0.633,4.417,1.417,6.15,2.35c1.567,0.867,2.617,1.934,3.15,3.2l1.6,3.85v0.15l1.2,3.2l-0.4-0.35
		c-0.4-1.133-0.9-2.216-1.5-3.25L30.4,20.9z M38.4,15.7c1.8,1.6,3.867,2.417,6.2,2.45l0.55,0.55l0.9,1.15l0.2,2.8l-0.3,0.55
		l-0.05-0.05c0.167-0.7-0.083-1.483-0.75-2.35c-0.5-0.8-1.183-1.383-2.05-1.75l-1-0.25l0.05,0.1l1.9,2.05
		c0.667,0.767,0.784,1.517,0.35,2.25l-0.3,0.35l-1.15-1.4l-0.6-1.2l-0.5-0.2l-0.1,0.2l1,2.45l-0.35,0.5l-1.15-1.2l-0.7-1l-0.8-0.35
		l-0.4-1.3l2.15,0.05l0.15,0.05l0.05-0.45c-1.6-0.833-2.817-1.967-3.65-3.4l-0.75-1.7L38.4,15.7z"/>
	<path style="fill-rule:evenodd;clip-rule:evenodd;fill:#C23140;" d="M35.85,10.15l-0.5-1.05l-0.1-0.15l0.5-1.4l-0.05,1
		C35.667,9.017,35.717,9.55,35.85,10.15z M35.25,8.95c-0.4,1.3-0.5,2.65-0.3,4.05c0.2,1.367,0.65,2.7,1.35,4l0.5,1.05l0.1,0.3
		l-2.85-2.6c-0.733-1.867-1-3.617-0.8-5.25c0.267-1-0.083-1.933-1.05-2.8l-0.15-0.2c-1.7-0.2-2.333,0.4-1.9,1.8
		c0.733,2.434,2.033,4.583,3.9,6.45L30.6,12.6l-1.75-2.1c-0.9-1.1-1.25-2.183-1.05-3.25l0.05-0.15c0.667-0.9,1.683-1.233,3.05-1
		L31,6.15c1.533,0.2,2.733,0.817,3.6,1.85L35.25,8.95z M38.7,7.75c0.7,2.267,1.216,3.684,1.55,4.25l1,1.65
		c0.333,0.467,0.85,1.017,1.55,1.65c0.7,0.7,1.167,1.333,1.4,1.9l0.375,0.85c-1.09-0.305-2.082-0.805-2.975-1.5l-2.55-2.75
		c-0.833-1.167-1.1-2.366-0.8-3.6L38.7,7.75z M26.05,10.6c-1.033-0.367-2.2-0.5-3.5-0.4l0.85,0.35l-2.45-0.7
		c-1.667-0.4-3.05-0.967-4.15-1.7c0-0.1,0.05-0.15,0.15-0.15l2.7-0.05c1.367,0.333,2.517,0.716,3.45,1.15L26.05,10.6z M30.6,21.3
		c0.6,1.034,1.1,2.117,1.5,3.25l-0.05-0.05l-8.65-6.55c-0.8-0.633-1.383-1.417-1.75-2.35c-0.267-0.633-0.2-1.167,0.2-1.6
		c2.233,0.3,4.033,1.233,5.4,2.8c1.233,1.333,2.283,2.7,3.15,4.1L30.6,21.3z M39.75,21.35l0.8,0.35l0.7,1l1.15,1.2l0.35-0.5l-1-2.45
		l0.1-0.2l0.5,0.2l0.6,1.2l1.15,1.4l0.3-0.35c0.434-0.733,0.317-1.483-0.35-2.25l-1.9-2.05l-0.05-0.1l1,0.25
		c0.867,0.367,1.55,0.95,2.05,1.75c0.667,0.867,0.917,1.65,0.75,2.35l0.05,0.05l0.3-0.55l-0.2-2.8L47,22.5
		c0.167,0.6,0.05,1.317-0.35,2.15c-0.4,0.8-1.033,1.45-1.9,1.95c-0.9,0.467-1.683,0.683-2.35,0.65l-0.65,0.45l-1.05-3.45l0.15,0.2
		l0.8,0.9l-1.5-3L39.75,21.35z M15.5,15.95c0.467,1.3,1.067,2.617,1.8,3.95c0.9,1.7,2.534,2.784,4.9,3.25l5.3,1.05
		c1.8,0.333,3.467,0.95,5,1.85l4.7,2.75c-1.833,0.1-3.434-0.25-4.8-1.05v0.05l-7.9-0.75l-2.75-0.6c-1.3-0.333-2.467-0.767-3.5-1.3
		c-1.833-0.966-3.433-2.433-4.8-4.4c-1.333-2.066-1.7-4.033-1.1-5.9c0.566-2.033,0.5-4.25-0.2-6.65L15.5,15.95z"/>
	<path style="fill-rule:evenodd;clip-rule:evenodd;fill:#F27987;" d="M87.95,9.45h-0.2L87.4,9.2V9.15L83,8.95
		c-2.634-0.1-4.167-0.117-4.6-0.05L73.35,9.1c-1.066,0.066-2.166,0.283-3.3,0.65c-0.8,0.267-1.8,0.667-3,1.2
		c-1.434,0.7-2.666,1.367-3.7,2l-2.3,1.35l2.65-2.4c1.7-0.966,3.633-1.9,5.8-2.8l7.85-0.55c5.7-0.133,9.351-0.066,10.95,0.2
		c2.066,0.4,3.717,1.25,4.95,2.55c0.767,0.833,1.35,1.784,1.75,2.85v0.15l0.6,2.2l0.051,0.6c0.166,1.367,0.116,2.8-0.15,4.3
		c-0.3,1.8-0.8,3.35-1.5,4.65c-0.434,0.867-1.134,1.717-2.1,2.55c-1.034,0.967-2.184,1.767-3.45,2.4
		c-1.533,0.833-2.95,1.317-4.25,1.45l-3.3-0.3l-0.351-0.1c-0.467-0.233-1.149-0.85-2.05-1.85l-5.7-5.75l0.3-0.4L77.8,28l1.351,0.95
		c0.533,0.367,1.183,0.716,1.949,1.05c1.767,0.7,3.851,0.3,6.25-1.2c2.233-1.4,3.934-3.183,5.101-5.35
		c1.366-2.4,1.899-4.65,1.6-6.75v-0.25l-0.25-0.9c-0.333-1.2-0.983-2.3-1.95-3.3L89.8,10.6L87.95,9.45z"/>
	<path style="fill-rule:evenodd;clip-rule:evenodd;fill:#D95564;" d="M86.6,10.45c-0.5,0.9-0.966,1.867-1.399,2.9l-0.101,0.2
		l-0.3,0.75H84.65l-1.45,1.85l0.95-1.85c0.366-0.9,0.583-1.667,0.649-2.3c-0.033-1.267-0.95-2.1-2.75-2.5L77.8,9.4
		c-1.633,0.267-2.783,0.917-3.45,1.95c-0.166,0.233-0.199,0.55-0.1,0.95c0.1,0.367,0.05,0.667-0.15,0.9l-5.5-0.55
		c-2.199-0.133-3.767,0.1-4.699,0.7l-5.65,4.3l2.45-0.8c1.566-0.533,2.816-0.85,3.75-0.95l-4.4,1.75l-0.1,0.05l-2.4,1L57,19.05
		c-0.2,0-0.634,0.233-1.3,0.7l-2.45,1.7l-2,1.85h0.05l-0.15,0.1l0.15,0.1l-1.45,0.85l0.05-0.6l0.4-1.05l3.25-3
		c1.367-1.1,2.384-1.65,3.05-1.65L56.9,18l0.75-0.6l0.1-0.3c0.634-0.833,1.733-1.767,3.3-2.8l2.3-1.35c1.034-0.633,2.267-1.3,3.7-2
		c1.2-0.534,2.2-0.934,3-1.2c1.134-0.367,2.233-0.583,3.3-0.65L78.4,8.9c0.433-0.066,1.966-0.05,4.6,0.05l4.4,0.2V9.2l0.35,0.25h0.2
		C87.316,9.717,86.866,10.05,86.6,10.45z M86.75,21.5l-2.2-1.1c-1.133-0.7-1.55-1.267-1.25-1.7c0.334-0.633,2.351-1.15,6.05-1.55
		l3.9-0.4l-0.5,1.1l-1.5,2.35l-1.7,1.75l-3.2,2.6L86.15,24.1c-0.534-0.9-1.467-1.583-2.801-2.05l-2.6-0.35l-3.1,0.15
		c-1.2,0.2-2.217,0.533-3.051,1l-0.5-0.25c1.067-0.833,3.017-1.333,5.851-1.5c1.133-0.033,2.5,0,4.1,0.1L86.75,21.5z M85.05,27.6
		L81.9,28.85l-0.45-0.15l0.45-0.75l4.449-3.4c0.233,0.534,0.384,1.217,0.45,2.05L85.05,27.6z M66.15,18.55l3.8,0.7L60,19.5l-6,2.6
		c-1.066,0.5-1.866,0.917-2.4,1.25l-0.3-0.05l4.15-2.5c1.233-0.733,2.366-1.35,3.399-1.85c1.2-0.534,2.317-0.817,3.351-0.85
		C63.4,18,64.717,18.15,66.15,18.55z M77.3,17.65l0.851-0.2v-0.4l0.25,0.5l-0.25,0.2L77.2,18.1L77.3,17.65z M57.5,25.95
		c-0.634,1-0.684,1.95-0.15,2.85l1.4,1.3l-1.15-0.4c-0.633-0.3-1.033-0.6-1.199-0.9L56,27.2l-0.1-0.05l-0.15,1.3
		c-0.033,0.433,0.15,0.833,0.55,1.2l-0.1,0.05l-0.851-0.1L54.9,29.25l0.199-0.9l0.551-1.5l0.5-1c0.433-0.633,1.183-1.267,2.25-1.9
		c1-0.5,2.083-0.817,3.25-0.95l1.75-0.2l3.1,1.1c2.033,0.9,3.566,1.817,4.6,2.75l1.5,1.85c-0.333-0.333-0.8-0.6-1.399-0.8l-1.3-0.4
		L68.8,27.25c-0.866-0.1-1.85-0.35-2.95-0.75l-1.199-0.75l-0.9-0.9L63.6,24.8l1.45,2.4l1.15,1.5l-0.9-0.3
		c-1-0.433-1.783-0.95-2.35-1.55c-0.5-0.5-0.75-0.9-0.75-1.2c-0.033,0.733,0.2,1.65,0.7,2.75l0.699,1.25l-1.1-0.4
		c-0.767-0.367-1.384-0.85-1.85-1.45c-0.367-0.4-0.7-1.017-1-1.85l0.05-0.05c-0.367,0.2-0.351,0.833,0.05,1.9l0.95,2.15L60.6,30
		c-0.5-0.333-1.05-0.9-1.649-1.7c-0.634-0.9-1.101-1.716-1.4-2.45L57.5,25.95z M52.55,23.4c0.7-0.167,1.467-0.45,2.3-0.85l-1.6,0.95
		L52.55,23.4z"/>
	<path style="fill-rule:evenodd;clip-rule:evenodd;fill:#9C2430;" d="M89.8,10.6c-0.934-0.067-1.866,0.3-2.8,1.1l-1.8,1.65
		c0.434-1.033,0.899-2,1.399-2.9c0.267-0.4,0.717-0.733,1.351-1L89.8,10.6z M84.8,14.3l9.15,2.35l0.1,0.05h-0.1l-4.601,0.45
		c-3.699,0.4-5.716,0.917-6.05,1.55c-0.3,0.433,0.117,1,1.25,1.7l2.2,1.1l-2.7-0.3c-1.6-0.1-2.967-0.133-4.1-0.1
		c-2.834,0.167-4.783,0.667-5.851,1.5C73.7,22.867,73.4,23.184,73.2,23.55l-0.2,0.4l-2.05-1.55l-0.2-0.05l8.35-2.9h0.351
		c0.967-0.1,1.7-0.333,2.2-0.7c0.6-0.367,1.216-1.05,1.85-2.05L84.8,14.3z M66,20.55c1.5,0.534,2.884,1.2,4.15,2l2.6,1.9h0.05
		l5.7,5.75c0.9,1,1.583,1.617,2.05,1.85l0.351,0.1L77.85,31.9l-0.1-0.05c-0.4-1.333-1.184-2.633-2.35-3.9l-2.75-2.4L72.6,25.5
		c-1.199-0.767-2.433-1.4-3.699-1.9L68,23.35c-0.733-0.267-1.616-0.45-2.65-0.55L61.65,23c-1.167,0.133-2.25,0.45-3.25,0.95
		c-1.067,0.633-1.817,1.267-2.25,1.9l-0.5,1l-0.551,1.5l-0.199,0.9v0.65c-2.7-1.333-4.3-2.816-4.8-4.45
		c-0.167-0.434-0.25-0.8-0.25-1.1l2.7-0.95l0.7,0.1l3.65-2c0.899-0.433,1.699-0.783,2.399-1.05c1.4-0.467,2.7-0.7,3.9-0.7L66,20.55z
		 M65.85,15.95L66.7,16.3l0.399,0.55L68.7,18.2l-4.3-0.6c-1.5-0.1-2.983-0.067-4.45,0.1l0.1-0.05l4.4-1.75L65.85,15.95z M77.6,14
		l-1-2.1c0.134-0.2,0.4-0.316,0.801-0.35L78.1,11.5c0.634,0.2,0.934,0.6,0.9,1.2l-0.6,1.75l-0.2,1.45L77.6,14z"/>
	<path style="fill-rule:evenodd;clip-rule:evenodd;fill:#AB2834;" d="M91.25,20.2l1.5-2.35l0.5-1.1l0.7-0.05l-5.25,8.05
		c-0.834,1.1-1.45,1.75-1.851,1.95l-0.05-0.1c-0.066-0.833-0.217-1.517-0.45-2.05l3.2-2.6L91.25,20.2z M83.5,16.7
		c-0.634,1-1.25,1.683-1.85,2.05c-0.5,0.367-1.233,0.6-2.2,0.7H79.1l-8.35,2.9c-1.2-0.833-2.467-1.483-3.8-1.95
		c-1.2-0.433-2.45-0.65-3.75-0.65l-0.55-0.05c-0.667,0-1.784,0.2-3.351,0.6c-0.434,0.134-1.017,0.4-1.75,0.8l-2.7,1.45
		c-0.833,0.4-1.6,0.684-2.3,0.85l-2.7,0.95l1.45-0.85l-0.15-0.1l0.15-0.1l0.3,0.05c0.534-0.333,1.333-0.75,2.4-1.25l6-2.6l9.95-0.25
		l0.3-0.05h3.55l3.25-0.4l1.05-0.25h0.25l3.4-1.05L82,17.05l1.2-0.9l1.45-1.85H84.8L83.5,16.7z M87,11.7
		c0.934-0.8,1.866-1.167,2.8-1.1l2.05,1.65c0.967,1,1.617,2.1,1.95,3.3l0.25,0.9v0.25l-0.1-0.05L84.8,14.3l0.3-0.75l0.101-0.2
		L87,11.7z M80,10.35c0.2,0.167,0.3,0.367,0.3,0.6l-1.7,6.35l-0.05,0.05l-0.149,0.2l-0.25-0.5V17l-0.101-0.15l-1.149-2.2
		c-0.867-1.933-1.084-3.25-0.65-3.95c0.3-0.4,0.667-0.667,1.1-0.8c0.4-0.1,0.851-0.1,1.351,0L80,10.35z M71.5,13.65l1.85,0.15
		c1.367,0.367,2.434,0.983,3.2,1.85c0.5,0.667,0.75,1.333,0.75,2l-0.1,0.45l-6.45,0.25L68.7,18.2L67.1,16.85L66.7,16.3l-0.851-0.35
		L64.45,15.9l5-1.85L71.5,13.65z M65.35,22.8c1.034,0.1,1.917,0.284,2.65,0.55l0.9,0.25c1.267,0.5,2.5,1.133,3.699,1.9l0.051,0.05
		l2.75,2.4c1.166,1.267,1.949,2.566,2.35,3.9L75.2,31.1l-1.5-0.2l-1.3,0.15c-1.9,0.667-3.851,1.067-5.851,1.2
		c-4.033,0.233-7.916-0.55-11.649-2.35v-0.65l0.449,0.35l0.851,0.1l0.1-0.05c-0.399-0.367-0.583-0.767-0.55-1.2l0.15-1.3L56,27.2
		l0.4,1.6c0.166,0.3,0.566,0.6,1.199,0.9l1.15,0.4l-1.4-1.3c-0.533-0.9-0.483-1.85,0.15-2.85l0.05-0.1
		c0.3,0.733,0.767,1.55,1.4,2.45c0.6,0.8,1.149,1.367,1.649,1.7l0.101-0.05l-0.95-2.15c-0.4-1.066-0.417-1.7-0.05-1.9l-0.05,0.05
		c0.3,0.833,0.633,1.45,1,1.85c0.466,0.6,1.083,1.083,1.85,1.45l1.1,0.4L62.9,28.4c-0.5-1.1-0.733-2.017-0.7-2.75
		c0,0.3,0.25,0.7,0.75,1.2c0.566,0.6,1.35,1.117,2.35,1.55l0.9,0.3l-1.15-1.5l-1.45-2.4l0.15,0.05l0.9,0.9l1.199,0.75
		c1.101,0.4,2.084,0.65,2.95,0.75L69.9,27.3l1.3,0.4c0.6,0.2,1.066,0.466,1.399,0.8l-1.5-1.85c-1.033-0.933-2.566-1.85-4.6-2.75
		l-3.1-1.1H65.35z M79,12.7c0.033-0.6-0.267-1-0.9-1.2L77.4,11.55C77,11.583,76.733,11.7,76.6,11.9l1,2.1l0.601,1.9l0.2-1.45
		L79,12.7z M74.6,22.85c0.967,0.7,1.967,1.85,3,3.45l1.551,2.65L77.8,28l-4.7-3.95l-0.1-0.1l0.2-0.4c0.2-0.366,0.5-0.683,0.899-0.95
		L74.6,22.85z"/>
	<path style="fill-rule:evenodd;clip-rule:evenodd;fill:#C23140;" d="M94.05,16.7c0.3,2.1-0.233,4.35-1.6,6.75
		c-1.167,2.167-2.867,3.95-5.101,5.35c-2.399,1.5-4.483,1.9-6.25,1.2c-0.767-0.333-1.416-0.683-1.949-1.05L77.6,26.3
		c-1.033-1.6-2.033-2.75-3-3.45c0.834-0.467,1.851-0.8,3.051-1l3.1-0.15l2.6,0.35c1.334,0.467,2.267,1.15,2.801,2.05l0.199,0.45
		l-4.449,3.4l-0.45,0.75l0.45,0.15l3.149-1.25l1.75-1l0.05,0.1c0.4-0.2,1.017-0.85,1.851-1.95l5.25-8.05H94.05z"/>
	<path style="fill-rule:evenodd;clip-rule:evenodd;fill:#F27987;" d="M63.7,11.9l-2.65,2.4c-1.566,1.034-2.666,1.967-3.3,2.8
		l-0.1,0.3L56.9,18L56.6,18.05c1.834-2.167,3.767-3.917,5.801-5.25L63.7,11.9z M63.2,19.75c1.3,0,2.55,0.217,3.75,0.65
		c1.333,0.467,2.6,1.117,3.8,1.95l0.2,0.05L73,23.95l0.1,0.1l-0.3,0.4h-0.05l-2.6-1.9c-1.267-0.8-2.65-1.466-4.15-2L63.2,19.75z
		 M62.2,18.1c-1.033,0.033-2.15,0.316-3.351,0.85c-1.033,0.5-2.166,1.117-3.399,1.85l-4.15,2.5h-0.05l2-1.85l4.3-2.75l2.4-1
		c1.467-0.167,2.95-0.2,4.45-0.1l6.35,0.75l6.45-0.25l0.95-0.35l0.25-0.2l0.149-0.2l0.05-0.05l3.801-0.95l-0.65,1.15l-3.4,1.05H78.1
		l-1.05,0.25l-3.25,0.4h-3.55l-0.3,0.05l-3.8-0.7C64.717,18.15,63.4,18,62.2,18.1z"/>
	<path style="fill-rule:evenodd;clip-rule:evenodd;fill:#AB2834;" d="M83.2,16.15l-1.2,0.9l0.4-0.7L78.6,17.3l1.7-6.35
		c0-0.233-0.1-0.434-0.3-0.6L78.7,9.9c-0.5-0.1-0.95-0.1-1.351,0c-0.433,0.133-0.8,0.4-1.1,0.8c-0.434,0.7-0.217,2.017,0.65,3.95
		l1.149,2.2L78.15,17v0.45l-0.851,0.2c0-0.667-0.25-1.333-0.75-2c-0.767-0.867-1.833-1.483-3.2-1.85l-1.85-0.15l-2.05,0.4l-5,1.85
		c-0.934,0.1-2.184,0.417-3.75,0.95l-2.45,0.8l5.65-4.3c0.933-0.6,2.5-0.833,4.699-0.7l5.5,0.55c0.2-0.233,0.25-0.534,0.15-0.9
		c-0.1-0.4-0.066-0.716,0.1-0.95c0.667-1.033,1.817-1.684,3.45-1.95l4.25,0.1c1.8,0.4,2.717,1.233,2.75,2.5
		c-0.066,0.633-0.283,1.4-0.649,2.3L83.2,16.15z"/>
	<path style="fill-rule:evenodd;clip-rule:evenodd;fill:#F27987;" d="M85.35,41.65l-3.6-2.25c-1.434-0.833-2.816-1.533-4.15-2.1
		l-5.649-2.5c-1.233-0.6-2.983-1.3-5.25-2.1c-2.066-0.733-4.233-0.95-6.5-0.65L49.9,33.7l2.5,1.15l-1.65-0.2
		c-0.867-0.4-1.817-0.583-2.85-0.55h-0.25l0.25-1.85l0.05-0.2l1.8-0.6l0.2,0.2l-0.3,1.05l10-1.8l6.3,0.2
		c2.033,0.533,4.033,1.267,6,2.2l10.7,5.2c1,0.467,2.433,1.267,4.3,2.4c1.366,0.833,2.684,1.85,3.95,3.05
		c1.233,1.167,2.3,2.383,3.199,3.65l2.65,4.05c0.967,1.5,0.967,2.983,0,4.45c-0.833,1.5-2.217,2.65-4.15,3.45L80.9,62l-5.45,0.55
		c-2.134,0.2-4-0.216-5.601-1.25l1.45,0.1c2.233,0.2,4.417,0.2,6.55,0c2.134-0.133,4.184-0.533,6.15-1.2l5.35-1.7
		c1.667-0.5,3.334-1.183,5-2.05c1.667-1.1,2.15-2.483,1.45-4.15c-0.666-1.5-1.566-2.933-2.7-4.3c-0.966-1.2-2.199-2.417-3.699-3.65
		C87.9,43.217,86.55,42.317,85.35,41.65z M50.85,39l0.7-1.8l0.601,0.4l0.25,0.75c0.333,1.566,0.55,2.933,0.649,4.1
		c0.033,1.3,0.617,2.517,1.75,3.65h0.05c0.601,0.533,1.267,0.967,2,1.3c1.434,0.6,2.767,1.333,4,2.2c1.467,1.133,2.617,2.2,3.45,3.2
		l1.95,2.85l-2.1-1.6l0.399,0.2l-0.3-0.4l-0.1,0.2l-9.25-6.3c-1.601-1.167-2.634-2.533-3.101-4.1
		C51.333,42.183,51.017,40.633,50.85,39z"/>
	<path style="fill-rule:evenodd;clip-rule:evenodd;fill:#AB2834;" d="M65.3,45.55c1.467,0.934,3.134,1.7,5,2.3l16.5,4.35
		c1.733,0.5,3.584,1.133,5.55,1.9c1.233,0.5,1.9,1.233,2,2.2c-0.866,0.4-1.866,0.567-3,0.5l-0.5-0.05
		c-1.833-0.2-3.616-0.55-5.35-1.05l-14-4.3c-2.1-0.7-3.967-1.483-5.6-2.35c-0.601-1.3-1.301-2.6-2.101-3.9l-1.149-1.5
		C63.483,44.317,64.366,44.95,65.3,45.55z M66.5,60.4l3.35,0.9c1.601,1.034,3.467,1.45,5.601,1.25L80.9,62L92.6,59.55
		c-1.466,0.833-3.05,1.417-4.75,1.75l-11,1.8c-1.899,0.267-3.75,0.25-5.55-0.05l-0.5-0.15L66.5,60.4z"/>
	<path style="fill-rule:evenodd;clip-rule:evenodd;fill:#AB2834;" d="M89.4,44.35c1.5,1.233,2.733,2.45,3.699,3.65
		c1.134,1.367,2.034,2.8,2.7,4.3c0.7,1.667,0.217,3.05-1.45,4.15V56.3c1.7-1.167,1.834-2.517,0.4-4.05
		c-1.2-1.3-2.917-2.25-5.15-2.85l-1.35-0.5c-1.7-0.533-3.616-0.967-5.75-1.3l-7.95-1.85l-2.399-1.7l3.85,1.1
		c-3.3-2.6-6.816-4.933-10.55-7L63.35,37l2.75,0.2c1.767,0.8,3.567,1.733,5.4,2.8l4.5,2.5c1.566,0.767,3.3,1.233,5.2,1.4
		c1.366,0.067,1.783-0.316,1.25-1.15c-0.767-1.367-2.033-2.45-3.8-3.25c-1.334-0.6-3.051-1.233-5.15-1.9l2.8,0.3
		c1.867,0.3,3.684,0.8,5.45,1.5l3.6,2.25C86.55,42.317,87.9,43.217,89.4,44.35z M60.2,34.7l-6.45,0.4l-1.35-0.25l-2.5-1.15
		l10.3-1.65c2.633,0.233,5.149,0.817,7.55,1.75l-6.4,0.3C61.116,34.4,60.733,34.6,60.2,34.7z M50.75,34.65l1.45,1.1l-1.2-0.5
		c-0.3,0.267-0.45,0.533-0.45,0.8c0,1.034,0.1,2.017,0.3,2.95c0.167,1.633,0.483,3.183,0.95,4.65c0.467,1.567,1.5,2.934,3.101,4.1
		l9.25,6.3c1.166,1.067,2.149,2.2,2.949,3.4L68,58.5c0.9,0.9,1.517,1.833,1.85,2.8l-3.35-0.9c-1.7-0.5-3.483-1.2-5.35-2.1
		l-5.101-2.65c-1.566-0.8-3.217-1.816-4.95-3.05c-1.467-1.067-2.6-2.25-3.4-3.55c-1-1.433-1.6-2.917-1.8-4.45
		c-0.233-1.6,0.133-3.067,1.1-4.4c0.933-1.4,0.983-2.817,0.15-4.25c-0.367-0.767-0.5-1.534-0.4-2.3
		c0.033-0.566,0.417-1.033,1.15-1.4l-0.25,1.85h0.25C48.933,34.067,49.883,34.25,50.75,34.65z M54.7,45.55l-0.95-7
		c0.8,0.9,1.434,1.867,1.9,2.9C56.283,42.917,55.967,44.283,54.7,45.55z M71.9,53.4l5.6-0.1l8,2.4c1.733,0.5,3.517,0.85,5.35,1.05
		L85.2,57l-11.4-1.5L68.1,54l-0.449-1.05L71.9,53.4z"/>
	<path style="fill-rule:evenodd;clip-rule:evenodd;fill:#D95564;" d="M52.95,35.1c1.767,0.633,3.517,1.066,5.25,1.3
		c1.8,0.633,3.483,1.333,5.05,2.1c1.233,0.633,2.75,1.5,4.55,2.6l8.351,5.85c1.566,1.133,3.5,1.966,5.8,2.5
		c2.166,0.4,4.267,0.216,6.3-0.55l1.35,0.5c2.233,0.6,3.95,1.55,5.15,2.85c1.434,1.533,1.3,2.883-0.4,4.05
		c-0.1-0.966-0.767-1.7-2-2.2c-1.966-0.767-3.816-1.4-5.55-1.9l-16.5-4.35c-1.866-0.6-3.533-1.367-5-2.3
		c-0.934-0.6-1.816-1.233-2.649-1.9l-1.851-1.6l-8.1-5.75l0.2,0.25c0.466,0.7,0.75,1.367,0.85,2l1.05,7.55
		c-1.133-1.133-1.717-2.35-1.75-3.65c-0.1-1.167-0.316-2.534-0.649-4.1l-0.25-0.75l-0.601-0.4l-0.7,1.8
		c-0.2-0.933-0.3-1.917-0.3-2.95c0-0.267,0.15-0.533,0.45-0.8l1.2,0.5l-1.45-1.1l1.65,0.2L52.95,35.1z M54.85,46.1
		c1.4-0.934,2.4-2.167,3-3.7l0.301-0.9c2.333,1.6,4.199,3.367,5.6,5.3l0.4,0.45c0.666,1.3,0.85,2.65,0.55,4.05l-0.4,1.5
		c-0.833-1-1.983-2.066-3.45-3.2c-1.233-0.867-2.566-1.6-4-2.2C56.116,47.067,55.45,46.633,54.85,46.1z M52.85,36.1
		c4.667,2.733,8.9,5.45,12.7,8.15l0.601,0.2L66.3,44.4l0.351-0.6c0.066-1.566-0.967-2.8-3.101-3.7l-5.2-2.2
		C56.483,37.167,54.65,36.567,52.85,36.1z M69.85,59.55c0.334,0.6,0.767,1.184,1.301,1.75c-0.9-2.5-2.067-4.983-3.5-7.45L73.8,55.5
		L85.2,57l5.649-0.25l0.5,0.05c1.134,0.067,2.134-0.1,3-0.5v0.15c-1.666,0.867-3.333,1.55-5,2.05L84,60.2
		c-1.967,0.667-4.017,1.066-6.15,1.2c-2.133,0.2-4.316,0.2-6.55,0l-1.45-0.1c-0.333-0.966-0.949-1.9-1.85-2.8l-0.9-1.05
		c-0.8-1.2-1.783-2.333-2.949-3.4l2.1,1.6C67.816,56.817,69.017,58.117,69.85,59.55z M64.15,54.05l0.1-0.2l0.3,0.4L64.15,54.05z"/>
	<path style="fill-rule:evenodd;clip-rule:evenodd;fill:#821E28;" d="M60.2,34.7c0.533-0.1,0.916-0.3,1.149-0.6l6.4-0.3
		c-2.4-0.933-4.917-1.517-7.55-1.75c2.267-0.3,4.434-0.083,6.5,0.65c2.267,0.8,4.017,1.5,5.25,2.1l5.649,2.5
		c1.334,0.567,2.717,1.267,4.15,2.1c-1.767-0.7-3.583-1.2-5.45-1.5l-18.1-1.5l-4.45-1.3L60.2,34.7z M52.7,36.3l8.1,5.75l1.851,1.6
		l1.149,1.5c0.8,1.3,1.5,2.6,2.101,3.9l-2.15-2.25c-1.4-1.933-3.267-3.7-5.6-5.3l-0.301,0.9c-0.6,1.533-1.6,2.767-3,3.7H54.8
		l-0.1-0.55c1.267-1.267,1.583-2.633,0.95-4.1c-0.467-1.034-1.101-2-1.9-2.9c-0.1-0.633-0.384-1.3-0.85-2L52.7,36.3z"/>
	<path style="fill-rule:evenodd;clip-rule:evenodd;fill:#B11A39;" d="M74.55,45.75l7.95,1.85c2.134,0.333,4.05,0.767,5.75,1.3
		c-2.033,0.767-4.134,0.95-6.3,0.55c-2.3-0.534-4.233-1.367-5.8-2.5L74.55,45.75z"/>
	<path style="fill-rule:evenodd;clip-rule:evenodd;fill:#9C2430;" d="M58.35,37.9l5.2,2.2c2.134,0.9,3.167,2.133,3.101,3.7
		L66.3,44.4l-0.149,0.05l-0.601-0.2c-3.8-2.7-8.033-5.417-12.7-8.15C54.65,36.567,56.483,37.167,58.35,37.9z M66.1,37.2l7.4,0.4
		c2.1,0.667,3.816,1.3,5.15,1.9c1.767,0.8,3.033,1.883,3.8,3.25c0.533,0.833,0.116,1.217-1.25,1.15c-1.9-0.167-3.634-0.633-5.2-1.4
		L71.5,40C69.667,38.934,67.866,38,66.1,37.2z M67.8,41.1c-1.8-1.1-3.316-1.967-4.55-2.6c-1.566-0.767-3.25-1.467-5.05-2.1L63.35,37
		l2.101,1.15c3.733,2.067,7.25,4.4,10.55,7l-3.85-1.1L67.8,41.1z M67.65,52.95l-1.75-3.9c1.633,0.867,3.5,1.65,5.6,2.35l6,1.9
		l-5.6,0.1L67.65,52.95z"/>
	<path style="fill-rule:evenodd;clip-rule:evenodd;fill:#AA1229;" d="M52.4,34.85l1.35,0.25l4.45,1.3
		c-1.733-0.233-3.483-0.667-5.25-1.3L52.4,34.85z"/>
	<path style="fill-rule:evenodd;clip-rule:evenodd;fill:#9C2430;" d="M68.1,54l-0.449-0.15c1.433,2.467,2.6,4.95,3.5,7.45
		c-0.534-0.566-0.967-1.15-1.301-1.75c-0.833-1.433-2.033-2.733-3.6-3.9L64.3,52.8l0.4-1.5c0.3-1.4,0.116-2.75-0.55-4.05l1.75,1.8
		L68.1,54z"/>
	<path style="fill-rule:evenodd;clip-rule:evenodd;fill:#F27987;" d="M7.9,37.15c0.333-1.433,1.367-2.583,3.1-3.45
		c1.633-0.9,3.5-1.317,5.6-1.25l6.05,0.1c2.367,0.067,3.95-0.667,4.75-2.2c0.333-0.667,0.967-1.2,1.9-1.6l5.75-0.2
		c1.833,0.634,2.8,1.667,2.9,3.1c0.1,1.4,0.35,2.833,0.75,4.3c0.1,0.433,0.417,0.75,0.95,0.95l1.05-1c1.3,0,2.517,0.2,3.65,0.6
		l3.5,0.2l1.05-0.1l-2.25,7.95c-0.333,1.333-0.583,2.717-0.75,4.15v0.2l-0.75-0.5l-0.05-0.05c-1.833-0.967-3.9-0.6-6.2,1.1
		l-4.8,4.15L31.45,55l-3.65,1.2h-0.1l-5.9-0.35l-5.05-0.9c-1.367-0.4-2.317-1.034-2.85-1.9c-0.8-1.367-1.033-2.75-0.7-4.15
		c0.167-0.733,0.183-1.417,0.05-2.05c-0.1-0.667-0.383-1.333-0.85-2c-0.833-1.3-1.833-2.55-3-3.75
		C8.267,39.9,7.767,38.583,7.9,37.15z M10.8,39.5l2.95,3.6c0.633,0.733,1,1.55,1.1,2.45l-0.05,4.8c0,0.833,0.15,1.617,0.45,2.35
		c0.1,0.433,0.4,0.767,0.9,1l0.25,0.05c1.6,0.667,3.267,1.1,5,1.3l1.7,0.15l5.55-0.4c1.6-0.333,2.8-0.983,3.6-1.95l0.4-0.6
		c0.733-1.167,1.333-2.4,1.8-3.7l1.25-3.9c0.333-1.433,0.75-2.683,1.25-3.75l0.5-1.05l1.8-2.5l0.3-0.35
		c-1.267-0.167-2.1-0.667-2.5-1.5l-0.15-0.2l-1.6-4.15c-0.533-1.533-1.983-2.133-4.35-1.8c-1.833,0.3-3.267,1.017-4.3,2.15
		c-1.033,1.033-2.433,1.55-4.2,1.55L16.3,33.4c-2.133,0.3-3.816,1.05-5.05,2.25C9.95,36.85,9.8,38.133,10.8,39.5z"/>
	<path style="fill-rule:evenodd;clip-rule:evenodd;fill:#AB2834;" d="M8.6,40.2c-0.667-0.967-0.9-1.983-0.7-3.05
		c-0.133,1.434,0.367,2.75,1.5,3.95c1.167,1.2,2.167,2.45,3,3.75c0.467,0.667,0.75,1.333,0.85,2c0.133,0.633,0.117,1.316-0.05,2.05
		c-0.333,1.4-0.1,2.783,0.7,4.15c0.533,0.867,1.483,1.5,2.85,1.9l5.05,0.9l5.9,0.35l5.85-0.1c1.9-0.1,3.733-0.4,5.5-0.9
		c1.934-0.6,3.534-1.483,4.8-2.65c1.167-1.1,1.85-2.316,2.05-3.65v-0.2c0.167-1.434,0.417-2.817,0.75-4.15l0.75-2.85l0.4,3
		c0.167,1.033,0.2,2.183,0.1,3.45c-0.267,1.467-0.933,2.783-2,3.95c-1.133,1.2-2.6,2.167-4.4,2.9l-7.8,2.1l-7.9,0.75l7,0.5
		l6.25-0.65l-1.25,1.25c-1.433,1.1-3.267,1.75-5.5,1.95c-2.066,0.167-4.75-0.133-8.05-0.9L20,59.2c-0.4-0.367-0.583-0.684-0.55-0.95
		c-2.233-1.1-3.967-2.2-5.2-3.3c-1.233-1.067-1.767-2.284-1.6-3.65c0.167-1.3,0.167-2.6,0-3.9l-0.05-0.25
		c-0.2-1.367-0.784-2.6-1.75-3.7L8.6,40.2z M16.3,41.3l-2.15-1.2c1.233-1.133,2.917-1.75,5.05-1.85l4,0.1l5.9,1.25l-2.85-0.25
		c-1.3-0.133-2.683-0.15-4.15-0.05l-1.4,0.2C19.133,39.767,17.667,40.367,16.3,41.3z M29.85,45.3
		c-0.567,1.167-1.483,2.284-2.75,3.35l-4.35,2.8c-1.933,0.933-3.683,1.65-5.25,2.15l-0.1-0.05l-1,0.2l-0.25-0.05
		c-0.5-0.233-0.8-0.567-0.9-1l0.2-1.3c1.9,0.067,3.4-0.467,4.5-1.6c1.233-1.133,2.816-1.933,4.75-2.4
		C26.633,46.967,28.35,46.267,29.85,45.3z M23,35.65L18.6,35c1.467-0.333,2.933-0.35,4.4-0.05l3.25,0.8l2.1,0.9h-0.4
		c1.867,1.167,4.017,1.8,6.45,1.9v-0.4l0.45,0.25c0.4,0.133,0.633,0.35,0.7,0.65c0.2,1.067-0.517,1.4-2.15,1l0.15-0.15h-1l0.5-0.1
		l-0.3-0.1c-1.567-0.5-3.083-1.2-4.55-2.1c-0.667-0.434-1.534-0.85-2.6-1.25C24.633,36.017,23.767,35.783,23,35.65z M36.95,40.9
		c-0.5,1.067-0.917,2.317-1.25,3.75l-1.25,3.9c-0.467,1.3-1.067,2.534-1.8,3.7l-0.4,0.6c-0.8,0.967-2,1.617-3.6,1.95l-5.55,0.4
		c2-0.434,3.75-1.017,5.25-1.75c1.7-0.8,2.867-1.883,3.5-3.25c0.566-1.3,0.95-2.6,1.15-3.9c1.033-1.133,1.817-2.316,2.35-3.55
		c0.267-0.6,0.483-1.317,0.65-2.15l1.45-0.75L36.95,40.9z M39.25,37.35L36,37.2l-0.9,0.2l-0.45,0.2l-1.3-0.75c0.8,0.2,1.467,0.2,2,0
		c0.3-0.067,0.617-0.25,0.95-0.55c0.4-0.3,0.6-0.633,0.6-1l0.15,0.2c0.4,0.833,1.233,1.333,2.5,1.5L39.25,37.35z M33.85,42.5
		l-2.85,6c-0.5-0.733-1.317-0.917-2.45-0.55l-0.25,0.1c1.9-1.733,3.284-3.716,4.15-5.95l-0.15,1.95L33.85,42.5z"/>
	<path style="fill-rule:evenodd;clip-rule:evenodd;fill:#C23140;" d="M17.7,35.95c1.833,0.133,3.6,0.433,5.3,0.9l10.05,2.95
		l-0.5,0.1l-3.45-0.3l-5.9-1.25l-4-0.1c-2.133,0.1-3.817,0.717-5.05,1.85c-1.267-0.8-1.9-1.733-1.9-2.8l0.1-0.55
		C14.05,35.983,15.833,35.717,17.7,35.95z M20.15,44.3l6.8-2.8c1.633-0.633,3.5-1.167,5.6-1.6h1l-0.15,0.15l-0.05,0.1l-3.85,1.5
		c-1.267,0.633-2.717,1.417-4.35,2.35l-7.75,4.6c1.133-0.9,2.017-1.983,2.65-3.25C20.217,44.983,20.25,44.633,20.15,44.3z M41.5,55
		c-0.767,1.1-1.483,2.267-2.15,3.5c-0.6,1.167-1.7,2.033-3.3,2.6c-1.933,0.667-3.883,0.883-5.85,0.65l-9.55-2.15l-0.3-0.15L20,59.2
		l4.25,0.8c3.3,0.767,5.983,1.067,8.05,0.9c2.233-0.2,4.067-0.85,5.5-1.95l1.25-1.25l-6.25,0.65l-7-0.5l7.9-0.75L41.5,55z"/>
	<path style="fill-rule:evenodd;clip-rule:evenodd;fill:#D95564;" d="M15.9,35c-1.633,0.2-2.816,0.783-3.55,1.75l-0.1,0.55
		c0,1.067,0.633,2,1.9,2.8l2.15,1.2l0.2,0.15l-0.05,0.1c0.767,0.267,1.417,0.567,1.95,0.9c0.767,0.533,1.35,1.15,1.75,1.85
		c0.1,0.333,0.067,0.684-0.1,1.05c-0.633,1.267-1.517,2.35-2.65,3.25l-1.65,1.5c-0.433,0.433-0.533,0.867-0.3,1.3l-0.2,1.3
		c-0.3-0.733-0.45-1.517-0.45-2.35l0.05-4.8c-0.1-0.9-0.467-1.716-1.1-2.45l-2.95-3.6c-1-1.367-0.85-2.65,0.45-3.85
		c1.233-1.2,2.917-1.95,5.05-2.25l6.15-0.35c1.767,0,3.167-0.517,4.2-1.55c1.033-1.133,2.467-1.85,4.3-2.15
		c2.367-0.333,3.816,0.267,4.35,1.8l1.6,4.15c0,0.367-0.2,0.7-0.6,1c-0.333,0.3-0.65,0.483-0.95,0.55c-0.533,0.2-1.2,0.2-2,0
		c-1.133-0.7-1.833-1.5-2.1-2.4c-0.167-0.467-0.233-0.917-0.2-1.35c0-0.567,0.417-0.983,1.25-1.25l0.75,0.25
		c0.1-1.233-0.683-1.65-2.35-1.25c-1.833,0.433-2.6,1.35-2.3,2.75l0.1,0.25c0.467,1.467,1.767,2.55,3.9,3.25l0.2,0.15l-4.25-0.6
		l-2.1-0.9L23,34.95c-1.467-0.3-2.933-0.284-4.4,0.05C17.7,34.9,16.8,34.9,15.9,35z M10.85,43.45c0.966,1.1,1.55,2.333,1.75,3.7
		l0.05,0.25c0.167,1.3,0.167,2.6,0,3.9c-0.167,1.367,0.367,2.583,1.6,3.65c1.233,1.1,2.967,2.2,5.2,3.3
		c-0.034,0.267,0.15,0.583,0.55,0.95l0.35,0.25L19.2,59.1L16.55,58c-1.7-0.867-3.017-1.967-3.95-3.3c-0.667-1-1.067-2.017-1.2-3.05
		c-0.167-0.833-0.25-1.816-0.25-2.95l0.05-1.25C11.267,46.05,11.15,44.717,10.85,43.45z M32.45,42.1
		c-0.867,2.233-2.25,4.217-4.15,5.95l0.25-0.1c1.133-0.367,1.95-0.184,2.45,0.55l2-2.2c-0.2,1.3-0.583,2.6-1.15,3.9
		c-0.633,1.367-1.8,2.45-3.5,3.25c-1.5,0.733-3.25,1.316-5.25,1.75l-1.7-0.15c-1.733-0.2-3.4-0.633-5-1.3l1-0.2l0.1,0.05
		c1.567-0.5,3.317-1.217,5.25-2.15l4.35-2.8c1.267-1.066,2.183-2.183,2.75-3.35C31.083,44.3,31.95,43.233,32.45,42.1z M33.55,56.1
		l-5.75,0.1l3.65-1.2l2.65-1.4l4.8-4.15c2.3-1.7,4.367-2.067,6.2-1.1l0.05,0.05l0.75,0.5c-0.2,1.333-0.883,2.55-2.05,3.65
		c-1.267,1.167-2.867,2.05-4.8,2.65C37.283,55.7,35.45,56,33.55,56.1z"/>
	<path style="fill-rule:evenodd;clip-rule:evenodd;fill:#9C2430;" d="M18.4,42.45c-0.533-0.333-1.183-0.633-1.95-0.9l0.05-0.1
		l-0.2-0.15c1.367-0.933,2.833-1.533,4.4-1.8l1.4-0.2c1.467-0.1,2.85-0.083,4.15,0.05l6.3,0.55c-2.1,0.434-3.966,0.967-5.6,1.6
		l-6.8,2.8C19.75,43.6,19.167,42.983,18.4,42.45z M12.35,36.75c0.733-0.967,1.917-1.55,3.55-1.75c0.9-0.1,1.8-0.1,2.7,0l4.4,0.65
		c0.767,0.133,1.633,0.367,2.6,0.7c1.066,0.4,1.933,0.816,2.6,1.25c1.466,0.9,2.983,1.6,4.55,2.1L23,36.85
		c-1.7-0.467-3.467-0.767-5.3-0.9C15.833,35.717,14.05,35.983,12.35,36.75z M32.3,31.85c-0.833,0.267-1.25,0.683-1.25,1.25
		c-0.033,0.433,0.034,0.883,0.2,1.35c0.267,0.9,0.967,1.7,2.1,2.4l1.3,0.75l0.45-0.2l0.9-0.2l3.25,0.15l-1.8,2.5L36,40.6
		c-0.167,0.833-0.383,1.55-0.65,2.15c-0.533,1.233-1.317,2.417-2.35,3.55l-2,2.2l2.85-6l-1.55,1.55l0.15-1.95
		c-0.5,1.133-1.367,2.2-2.6,3.2c-1.5,0.967-3.217,1.667-5.15,2.1c-1.934,0.467-3.517,1.267-4.75,2.4c-1.1,1.133-2.6,1.667-4.5,1.6
		c-0.233-0.433-0.133-0.867,0.3-1.3l1.65-1.5l7.75-4.6c1.633-0.933,3.083-1.717,4.35-2.35l3.85-1.5l0.05-0.1
		c1.633,0.4,2.35,0.067,2.15-1c-0.066-0.3-0.3-0.517-0.7-0.65l-0.45-0.25v0.4c-2.433-0.1-4.583-0.733-6.45-1.9h0.4l4.25,0.6
		l1.95,0.5L32.4,37.1c-2.133-0.7-3.433-1.783-3.9-3.25l-0.1-0.25c-0.3-1.4,0.467-2.317,2.3-2.75c1.667-0.4,2.45,0.017,2.35,1.25
		L32.3,31.85z"/>
	<path style="fill-rule:evenodd;clip-rule:evenodd;fill:#EEBC60;" d="M39.25,19.2l-1.45,0.75c-2.133,1.333-3.1,2.917-2.9,4.75
		l0.1,0.65c0.433,1.467,1.75,2.733,3.95,3.8c2.533,1.233,5.417,1.767,8.65,1.6c3.233-0.1,5.966-0.833,8.2-2.2
		c1.9-1.2,2.867-2.566,2.9-4.1l-0.05-0.65c-0.2-1.8-1.534-3.3-4-4.5c-2.534-1.167-5.417-1.7-8.65-1.6l2.05-0.25
		c2.934-0.1,5.617,0.517,8.05,1.85c1.134,0.6,2.051,1.267,2.75,2c0.7,0.8,1.101,1.6,1.2,2.4c0.267,2.3-0.8,4.216-3.2,5.75
		c-2.399,1.4-5.266,2.15-8.6,2.25l-4.2-0.2l-4.5-1.1c-3.433-1.133-5.3-2.816-5.6-5.05c-0.1-0.8,0.033-1.533,0.4-2.2
		c0.2-0.4,0.717-1.066,1.55-2c0.467-0.566,1.217-1.083,2.25-1.55L39.25,19.2z"/>
	<path style="fill-rule:evenodd;clip-rule:evenodd;fill:#E7A01E;" d="M35.9,21.15c-0.833,0.934-1.35,1.6-1.55,2
		c-0.367,0.667-0.5,1.4-0.4,2.2c0.3,2.233,2.167,3.917,5.6,5.05l4.5,1.1l4.2,0.2c3.333-0.1,6.2-0.85,8.6-2.25
		c2.4-1.534,3.467-3.45,3.2-5.75c-0.1-0.8-0.5-1.6-1.2-2.4c-0.699-0.733-1.616-1.4-2.75-2c-2.433-1.333-5.116-1.95-8.05-1.85
		l-3.2,0.35c-1.567,0.167-2.934,0.434-4.1,0.8l-2.6,1C37.117,20.067,36.367,20.583,35.9,21.15z M34.05,18.4
		c3.1-2,6.983-3.066,11.65-3.2c4.633-0.2,8.75,0.566,12.35,2.3c1.233,0.6,2.3,1.267,3.2,2c1.6,2,2.45,3.467,2.55,4.4l0.05,0.55
		c0.067,2.367-1.333,4.45-4.199,6.25c-3.101,1.966-7,3.017-11.7,3.15c-4.8,0.167-8.9-0.583-12.3-2.25c-3.3-1.6-5.2-3.55-5.7-5.85
		l-0.1-0.55c-0.133-1.067,0.3-2.633,1.3-4.7C31.583,20.033,32.55,19.333,34.05,18.4z"/>
	<path style="fill-rule:evenodd;clip-rule:evenodd;fill:#A77311;" d="M40.75,18.6c1.167-0.367,2.533-0.633,4.1-0.8L46,17.7
		c3.233-0.1,6.116,0.433,8.65,1.6c2.466,1.2,3.8,2.7,4,4.5l0.05,0.65c-0.4-1.534-1.7-2.833-3.9-3.9c-2.533-1.167-5.417-1.7-8.65-1.6
		c-3.233,0.133-5.967,0.867-8.2,2.2c-1.9,1.2-2.883,2.6-2.95,4.2l-0.1-0.65c-0.2-1.833,0.767-3.417,2.9-4.75L40.75,18.6z M37.4,23.8
		c0.6-0.3,1.317-0.45,2.15-0.45L42,23.7c0.733,0.333,1.117,0.716,1.15,1.15c0.033,0.233-0.033,0.467-0.2,0.7L42.2,25.1
		c-0.633-0.267-1.467-0.4-2.5-0.4c-0.967,0.066-1.75,0.267-2.35,0.6l-0.7,0.5c-0.233-0.167-0.35-0.383-0.35-0.65
		c-0.033-0.466,0.25-0.883,0.85-1.25L37.4,23.8z M28.55,29.9c0.5,2.733,2.633,4.983,6.4,6.75c3.933,1.867,8.5,2.7,13.7,2.5
		c5.2-0.2,9.517-1.367,12.95-3.5c3.301-2.066,4.851-4.483,4.65-7.25l0.1,0.9c0.4,2.867-1.133,5.384-4.6,7.55
		c-3.467,2.233-7.783,3.417-12.95,3.55c-5.233,0.2-9.816-0.65-13.75-2.55c-3.9-1.9-6.05-4.267-6.45-7.1L28.55,29.9z M28.3,27.5
		l-0.1-0.45l0.35-2.25c0.3,3.733,2.267,6.45,5.9,8.15c3.933,1.9,8.5,2.75,13.7,2.55c5.234-0.2,9.567-1.367,13-3.5
		c3.133-2.033,4.483-4.733,4.05-8.1l0.75,1.75v0.5c0.166,2.667-1.384,5.017-4.65,7.05c-3.5,2.2-7.833,3.367-13,3.5
		c-5.267,0.2-9.816-0.633-13.65-2.5c-3.633-1.733-5.75-3.9-6.35-6.5V27.5z M46.35,19.9l2.5,0.4c0.667,0.3,1.033,0.684,1.1,1.15
		l-0.2,0.7L49,21.7c-0.733-0.3-1.567-0.434-2.5-0.4c-0.967,0.067-1.75,0.267-2.35,0.6l-0.65,0.5c-0.267-0.2-0.4-0.433-0.4-0.7
		c-0.067-0.467,0.217-0.867,0.85-1.2C44.617,20.167,45.417,19.967,46.35,19.9z M57.3,25.2l-0.75-0.5c-0.7-0.3-1.55-0.417-2.55-0.35
		c-0.967,0.066-1.75,0.25-2.35,0.55L51,25.4l-0.4-0.65c-0.033-0.433,0.267-0.833,0.9-1.2c0.667-0.366,1.45-0.55,2.35-0.55
		c0.9-0.1,1.75,0.017,2.551,0.35c0.699,0.333,1.066,0.7,1.1,1.1L57.3,25.2z M50.65,29.05l-0.8-0.45l-2.5-0.4
		c-0.9,0.066-1.7,0.267-2.4,0.6l-0.6,0.45l-0.4-0.6c-0.1-0.466,0.183-0.883,0.85-1.25c0.7-0.333,1.483-0.517,2.35-0.55l2.55,0.4
		c0.667,0.267,1.05,0.633,1.15,1.1L50.65,29.05z"/>
	<path style="fill-rule:evenodd;clip-rule:evenodd;fill:#DD9816;" d="M37.15,23.9c-0.6,0.367-0.883,0.784-0.85,1.25
		c0,0.267,0.117,0.483,0.35,0.65l0.75,0.5l2.55,0.35l1.7-0.3l0.65-0.25l0.65-0.55c0.167-0.233,0.233-0.466,0.2-0.7
		c-0.033-0.434-0.417-0.817-1.15-1.15l-2.45-0.35c-0.833,0-1.55,0.15-2.15,0.45L37.15,23.9z M35,25.35c0.067-1.6,1.05-3,2.95-4.2
		c2.233-1.333,4.966-2.066,8.2-2.2c3.233-0.1,6.117,0.433,8.65,1.6c2.2,1.067,3.5,2.367,3.9,3.9c-0.033,1.533-1,2.9-2.9,4.1
		c-2.233,1.367-4.966,2.1-8.2,2.2c-3.233,0.167-6.117-0.367-8.65-1.6C36.75,28.083,35.433,26.817,35,25.35z M46.35,19.9
		c-0.934,0.067-1.733,0.267-2.4,0.6c-0.633,0.333-0.917,0.733-0.85,1.2c0,0.267,0.133,0.5,0.4,0.7l0.75,0.45l2.5,0.35
		c0.933,0,1.733-0.184,2.4-0.55l0.6-0.5l0.2-0.7c-0.067-0.467-0.434-0.85-1.1-1.15L46.35,19.9z M57.3,25.2l0.2-0.75
		c-0.033-0.4-0.4-0.767-1.1-1.1C55.6,23.017,54.75,22.9,53.85,23c-0.899,0-1.683,0.184-2.35,0.55c-0.633,0.367-0.933,0.767-0.9,1.2
		L51,25.4c0.2,0.2,0.467,0.367,0.8,0.5c0.634,0.267,1.45,0.4,2.45,0.4c0.967-0.033,1.767-0.233,2.4-0.6L57.3,25.2z M50.85,28.35
		c-0.1-0.467-0.483-0.833-1.15-1.1l-2.55-0.4c-0.867,0.033-1.65,0.217-2.35,0.55c-0.667,0.367-0.95,0.784-0.85,1.25l0.4,0.6
		l0.75,0.5l2.5,0.35c1.033-0.067,1.816-0.25,2.35-0.55l0.7-0.5L50.85,28.35z"/>
	<path style="fill-rule:evenodd;clip-rule:evenodd;fill:#851F29;" d="M36.65,25.8l0.7-0.5c0.6-0.333,1.383-0.533,2.35-0.6
		c1.033,0,1.867,0.133,2.5,0.4l0.75,0.45L42.3,26.1l-0.65,0.25l-1.7,0.3L37.4,26.3L36.65,25.8z M49.75,22.15l-0.6,0.5
		c-0.667,0.367-1.467,0.55-2.4,0.55l-2.5-0.35L43.5,22.4l0.65-0.5c0.6-0.333,1.383-0.533,2.35-0.6c0.933-0.033,1.767,0.1,2.5,0.4
		L49.75,22.15z M54.25,26.3c-1,0-1.816-0.133-2.45-0.4c-0.333-0.133-0.6-0.3-0.8-0.5l0.65-0.5c0.6-0.3,1.383-0.483,2.35-0.55
		c1-0.067,1.85,0.05,2.55,0.35l0.75,0.5l-0.649,0.5C56.017,26.067,55.217,26.267,54.25,26.3z M49.85,28.6l0.8,0.45l-0.7,0.5
		c-0.534,0.3-1.317,0.483-2.35,0.55l-2.5-0.35l-0.75-0.5l0.6-0.45c0.7-0.333,1.5-0.533,2.4-0.6L49.85,28.6z"/>
	<path style="fill-rule:evenodd;clip-rule:evenodd;fill:#D39215;" d="M28.55,24.8c0.267-1.233,1.133-2.667,2.6-4.3
		c-1,2.067-1.433,3.633-1.3,4.7l0.1,0.55c0.5,2.3,2.4,4.25,5.7,5.85c3.4,1.667,7.5,2.417,12.3,2.25c4.7-0.133,8.6-1.184,11.7-3.15
		c2.866-1.8,4.267-3.883,4.199-6.25L63.8,23.9c-0.1-0.933-0.95-2.4-2.55-4.4c2.2,1.6,3.517,3.067,3.95,4.4
		c0.434,3.367-0.917,6.067-4.05,8.1c-3.434,2.133-7.767,3.3-13,3.5c-5.2,0.2-9.767-0.65-13.7-2.55
		C30.817,31.25,28.85,28.533,28.55,24.8z M28.3,27.7c0.6,2.6,2.717,4.767,6.35,6.5c3.833,1.867,8.383,2.7,13.65,2.5
		c5.167-0.133,9.5-1.3,13-3.5c3.267-2.034,4.816-4.383,4.65-7.05l0.3,1.95v0.3c0.2,2.767-1.35,5.184-4.65,7.25
		c-3.433,2.133-7.75,3.3-12.95,3.5c-5.2,0.2-9.767-0.633-13.7-2.5c-3.767-1.767-5.9-4.017-6.4-6.75L28.3,27.7z"/>
	<path style="fill-rule:evenodd;clip-rule:evenodd;fill:#2E4004;" d="M45.8,129.75c1.967,1.866,3.45,3.85,4.45,5.95
		c1.233,2.633,1.884,6.416,1.95,11.35l0.1,0.15c0.134,0.767-1.1,1.166-3.7,1.2c-2.8-0.101-4.367-0.15-4.7-0.15
		c-2.4,0-5-0.316-7.8-0.95c-0.934-0.2-1.967-0.666-3.1-1.399c-1.233-0.834-2.2-1.45-2.9-1.851c-2.033-1.166-3.684-2.616-4.95-4.35
		c-2.367-3.334-4.217-7.617-5.55-12.851c-0.4-1.6-0.65-3.483-0.75-5.649c0-0.334,0-2.233,0-5.7c0-0.533-0.1-1.6-0.3-3.2
		c-0.233-1.566-0.35-2.633-0.35-3.2c0-0.233-0.067-0.483-0.2-0.75c-0.1-0.199-0.083-0.416,0.05-0.649c0.467,0.399,1.017,1,1.65,1.8
		c0.667,0.833,1.117,1.5,1.35,2c0.467,0.866,1.15,1.75,2.05,2.65c0.233,0.233,1.05,1,2.45,2.3c1.667,1.5,4,3.066,7,4.7
		c4.1,2.267,6.55,3.649,7.35,4.149C42.367,126.9,44.333,128.384,45.8,129.75z"/>
	<path style="fill-rule:evenodd;clip-rule:evenodd;fill:#364A04;" d="M45,130.55c1.967,1.867,3.45,3.851,4.45,5.95
		c1.3,2.733,1.95,6.517,1.95,11.35l0.15,0.101c0.1,0.767-1.15,1.166-3.75,1.2C45,149.05,43.433,149,43.1,149c-2.5,0-5.1-0.3-7.8-0.9
		c-0.933-0.233-1.966-0.699-3.1-1.399c-1.867-1.2-2.833-1.816-2.9-1.851c-2.1-1.199-3.767-2.649-5-4.35
		c-2.367-3.333-4.216-7.616-5.55-12.85c-0.4-1.601-0.65-3.483-0.75-5.65c-0.033-0.667-0.05-2.566-0.05-5.7v-4.95
		c0-1.6,0.066-2.55,0.2-2.85c0.367,0.333,0.767,0.934,1.2,1.8c0.433,1,0.733,1.667,0.9,2c0.467,0.867,1.15,1.75,2.05,2.65
		c0.4,0.434,1.233,1.2,2.5,2.3c1.633,1.5,3.95,3.066,6.95,4.7c4.167,2.267,6.617,3.633,7.35,4.1
		C41.6,127.717,43.567,129.217,45,130.55z"/>
	<path style="fill-rule:evenodd;clip-rule:evenodd;fill:#3D5405;" d="M92.35,115.75c0.034,3.7-0.183,6.833-0.649,9.4
		c-0.634,3.633-2.434,7.05-5.4,10.25c-1.866,2.366-3.283,4.166-4.25,5.399c-1.767,2.167-3.434,3.667-5,4.5
		c-1.666,0.867-2.983,1.483-3.95,1.851c-1.466,0.6-2.866,0.949-4.199,1.05c-1.034,0.1-3.134,0.149-6.301,0.149
		c-5.166,0.267-9.033,0.317-11.6,0.15l-0.1-0.55c-0.033-0.733,0.317-1.684,1.05-2.851c0.434-0.633,1.033-1.5,1.8-2.6
		c2.233-3.3,4.7-6.017,7.4-8.15c0.1-0.1,0.633-0.583,1.6-1.449c0.667-0.567,1.233-1,1.7-1.301c0.899-0.533,2.383-1.183,4.45-1.949
		c4.466-1.934,7.767-3.483,9.899-4.65c3.2-1.733,5.55-3.217,7.05-4.45c2.301-1.934,3.917-4.149,4.851-6.649
		c1.002-2.817,1.502-5.218,1.5-7.2C92.3,110.666,92.35,113.683,92.35,115.75z"/>
	<path style="fill-rule:evenodd;clip-rule:evenodd;fill:#2E4004;" d="M44.3,129.2l1.6,1.05c0.133,0.8,0.65,1.684,1.55,2.65
		c0.5,0.533,1.216,1.283,2.15,2.25c1.233,1.633,2.15,3.199,2.75,4.699c0.334,0.9,0.5,2.117,0.5,3.65
		c-0.1,1.767-0.149,3.033-0.149,3.8c0,0.7-0.15,1.134-0.45,1.3c-0.134,0.067-0.65,0.117-1.55,0.15c-1.633,0.1-3.684,0.134-6.15,0.1
		c-2.733-0.066-4.783-0.1-6.15-0.1c-2,0-3.667-0.384-5-1.15c-1-0.5-1.8-0.933-2.4-1.3c-1.133-0.7-1.717-1.3-1.75-1.8
		c0.333,0.066,1.767,0.316,4.3,0.75c2.233,0.167,3.017-0.417,2.35-1.75c-0.066-0.134-0.233-0.267-0.5-0.4
		c-0.367-0.199-0.583-0.316-0.65-0.35l-1.25-1.15c-2.133-1.733-3.683-3.283-4.65-4.649c-2.233-3.033-3.383-6.434-3.45-10.2
		c0.5,1.066,1.467,2.767,2.9,5.1c0.133,0.2,0.534,0.917,1.2,2.15c0.467,0.866,0.9,1.533,1.3,2c0.767,0.866,2.034,1.566,3.8,2.1
		c0.967,0.267,2.4,0.617,4.3,1.051c1.934,0.566,3.3,0.699,4.1,0.399c0.367-0.133,0.7-0.383,1-0.75
		c0.167-0.233,0.417-0.583,0.75-1.05c0.567-0.667,0.9-1.316,1-1.95c0.067-0.366,0.067-1.184,0-2.45
		C45.617,131.417,45.133,130.033,44.3,129.2z"/>
	<path style="fill-rule:evenodd;clip-rule:evenodd;fill:#3D5405;" d="M42.3,131.45c0.6,1.033,0.917,2.083,0.95,3.149
		c0.033,1-0.217,1.717-0.75,2.15c-0.467,0.366-1.217,0.566-2.25,0.6c-2.233,0-3.783-0.133-4.65-0.399
		c-0.533-0.167-1.117-0.566-1.75-1.2c-0.2-0.2-0.684-0.75-1.45-1.65c-0.833-0.933-1.467-1.649-1.9-2.149
		c-0.7-0.867-1.217-1.667-1.55-2.4c-0.367-1.434-0.767-2.467-1.2-3.1c-0.933-1.167-1.6-2.066-2-2.7c-0.733-1.1-1.067-2.167-1-3.2
		l0.8,0.5c0.667-0.133,1.467,0.05,2.4,0.55c0.233,0.134,0.917,0.601,2.05,1.4c0.967,0.667,2.667,1.634,5.1,2.9
		c2.2,1.199,3.867,2.199,5,3C41,129.566,41.733,130.417,42.3,131.45z"/>
	<path style="fill-rule:evenodd;clip-rule:evenodd;fill:#3D5405;" d="M19.1,112.65c-0.033,0.833,0.45,1.8,1.45,2.899
		c1.367,1.533,2.1,2.384,2.2,2.55c1.1,1.934,1.683,3.5,1.75,4.7c0.033,0.566-0.017,1.634-0.15,3.2c-0.1,1.366-0.1,2.417,0,3.15
		c0.1,0.566,0.333,1.199,0.7,1.899c0.2,0.4,0.517,0.983,0.95,1.75l1.5,3c1.367,2.334,2.6,4,3.7,5
		c-1.267,0.134-2.55-0.416-3.85-1.649c-0.633-0.567-1.567-1.7-2.8-3.4c-1.533-2.066-2.466-3.384-2.8-3.95
		c-1.067-1.6-1.767-3.066-2.1-4.399c-0.333-1.233-0.6-2.884-0.8-4.95c-0.033-0.434-0.15-1.25-0.35-2.45
		c-0.167-1.033-0.267-1.85-0.3-2.45c-0.1-1.899,0.066-3.133,0.5-3.7L19.1,112.65z"/>
	<path style="fill-rule:evenodd;clip-rule:evenodd;fill:#364A04;" d="M92.1,108.6c0.075-0.645,0.116-1.236,0.125-1.774
		c0.084,3.908,0.125,6.883,0.125,8.925c0.034,3.7-0.183,6.833-0.649,9.4c-0.634,3.633-2.434,7.05-5.4,10.25
		c-1.866,2.366-3.283,4.166-4.25,5.399c-1.767,2.167-3.434,3.667-5,4.5c-1.666,0.867-2.983,1.483-3.95,1.851
		c-1.466,0.6-2.866,0.949-4.199,1.05c-1.034,0.1-3.134,0.149-6.301,0.149c-5.166,0.267-9.033,0.317-11.6,0.15l-0.1-0.55
		c-0.033-0.767,0.45-1.917,1.45-3.45c0.733,0.1,1.65,0.4,2.75,0.9c1.367,0.6,2.334,0.85,2.9,0.75c0.366-0.067,0.833-0.334,1.4-0.801
		c0.6-0.466,1.083-0.75,1.449-0.85c0.434-0.1,0.934-0.2,1.5-0.3c0.4-0.167,0.717-0.533,0.95-1.101
		c0.033-0.066,0.05-0.216,0.05-0.449c-0.033-0.2-0.017-0.334,0.051-0.4c0.166-0.2,0.399-0.3,0.699-0.3c0.434,0,0.7-0.017,0.801-0.05
		c0.433-0.101,1.05-0.367,1.85-0.801c0.934-0.533,1.417-0.949,1.45-1.25c0.033-0.3-0.084-0.616-0.351-0.949
		c-0.333-0.4-0.533-0.7-0.6-0.9c0.267-0.233,0.833-0.45,1.7-0.65c1.434-0.233,2.283-0.383,2.55-0.449
		c0.9-0.2,1.717-0.483,2.45-0.851c0.267-0.133,0.8-0.434,1.6-0.899c0.634-0.467,0.851-0.934,0.65-1.4
		c-0.033-0.066-0.167-0.15-0.4-0.25s-0.366-0.217-0.399-0.35c-0.067-0.301,0.133-0.601,0.6-0.9c0.267-0.134,0.6-0.3,1-0.5
		c0.3-0.134,1.167-0.434,2.6-0.9c1.267-0.533,1.801-1.083,1.601-1.649c-0.634-0.167-0.417-0.601,0.649-1.3
		c0.534-0.367,1.2-0.784,2-1.25c0.2-0.2,0.384-0.534,0.551-1c0.199-0.534,0.366-0.884,0.5-1.051c0.166-0.199,0.517-0.449,1.05-0.75
		c0.5-0.267,0.816-0.533,0.95-0.8c0.1-0.2,0.133-0.483,0.1-0.85c-0.066-0.467-0.083-0.75-0.05-0.851c0.1-0.366,0.366-0.733,0.8-1.1
		c0.667-0.634,1.017-0.967,1.05-1c1.367-1.566,2.3-3.5,2.8-5.8C91.866,112.217,92.033,110.6,92.1,108.6z"/>
	<path style="fill-rule:evenodd;clip-rule:evenodd;fill:#4E6B06;" d="M57.05,138.6c-0.267,0.434-0.767,1.017-1.5,1.75
		c-0.733,0.7-1.233,1.267-1.5,1.7c-0.934,1.5-1.684,2.45-2.25,2.851c0.267-1.267,0.75-2.483,1.45-3.65c0.5-0.767,1.283-1.8,2.35-3.1
		c2.801-3.367,5.384-5.617,7.75-6.75c1.301-0.634,3.233-1.584,5.801-2.851c2.233-1.066,4.216-1.916,5.949-2.55l3.4-1.3
		c0.3-0.101,0.884-0.283,1.75-0.55c0.767-0.267,1.25-0.551,1.45-0.851l-0.5,0.8c-0.434,0.567-1.316,1.051-2.65,1.45
		c-1.366,0.434-2.717,1.084-4.05,1.95c-0.667,0.467-1.634,0.9-2.9,1.3c-1.5,0.5-2.5,0.867-3,1.101
		c-0.533,0.267-1.283,0.699-2.25,1.3c-0.966,0.633-1.716,1.066-2.25,1.3C61.233,133.833,58.884,135.866,57.05,138.6z"/>
	<path style="fill-rule:evenodd;clip-rule:evenodd;fill:#2E4004;" d="M82.9,134.7l0.399,0.149c0.834-0.533,1.533-1.449,2.101-2.75
		c0,2.434-1.084,4.567-3.25,6.4c-1.767,1.5-2.684,2.283-2.75,2.35c-1.034,1-1.667,1.983-1.9,2.95c0,0.867-0.167,1.517-0.5,1.95
		c-0.233,0.3-0.8,0.684-1.7,1.15c-0.866,0.433-1.533,0.699-2,0.8c-1.333,0.166-2.35,0.366-3.05,0.6c-0.967,0.3-2.366,0.45-4.2,0.45
		c-4.434,0-7.767-0.033-10-0.1c-1.666-0.101-2.583-0.15-2.75-0.15c-1.1-0.134-2-0.35-2.7-0.65c-0.667-0.3-1.184-0.833-1.55-1.6
		c-0.433-0.934-0.183-1.583,0.75-1.95c0.534-0.2,1.184,0.017,1.95,0.65c0.434,0.366,1.017,0.85,1.75,1.45
		c0.366,0.199,0.884,0.383,1.55,0.55c0.834,0.2,1.367,0.35,1.601,0.45c1.366,0.466,2.616,0.533,3.75,0.199
		c0.6-0.166,1.383-0.533,2.35-1.1c0.5-0.2,1.25-0.45,2.25-0.75c1.033-0.3,1.783-0.566,2.25-0.8c0.7-0.3,1.85-0.55,3.45-0.75
		c0.633-0.134,1.7-0.55,3.2-1.25c0.666-0.267,1.25-0.684,1.75-1.25c0.3-0.3,0.75-0.867,1.35-1.7
		C78.9,137.7,80.866,135.934,82.9,134.7z"/>
	<path style="fill-rule:evenodd;clip-rule:evenodd;fill:#354F0C;" d="M36.85,146.55c-0.165,0.058-0.323,0.107-0.475,0.15
		c0.173,0.215,0.415,0.499,0.725,0.85c0.207,0.252,0.374,0.477,0.5,0.675L36.85,146.55z M10.05,146.25c-1.566-0.6-2.566-1.25-3-1.95
		c0.467,0.033,1.417,0.467,2.85,1.3c1.167,0.667,2.133,0.834,2.9,0.5v-0.3c-0.633-0.1-1.15-0.333-1.55-0.7
		c0.633-0.3,1.533-0.433,2.7-0.399c0.667,0.033,1.617,0.066,2.85,0.1c-0.167-0.3-0.583-0.566-1.25-0.8c-0.9-0.333-1.4-0.533-1.5-0.6
		c0.733-0.067,1.8,0.166,3.2,0.699c1.433,0.5,2.483,0.733,3.15,0.7c-1.333-0.934-2.383-1.8-3.15-2.6
		c0.567,0.1,1.383,0.383,2.45,0.85c1.066,0.5,1.9,0.783,2.5,0.851h1.9c0.566,0.033,1.233,0.133,2,0.3
		c0.433,0.1,1.083,0.267,1.95,0.5c0.067,0,0.25,0.066,0.55,0.2c0.167,0.066,0.333,0.083,0.5,0.05c-0.767-1.2-2.5-2.517-5.2-3.95
		c1.4-0.033,2.783,0.45,4.15,1.45c0.8,0.566,1.934,1.533,3.4,2.899c0.066-0.899-0.167-1.816-0.7-2.75
		c-0.233-0.333-0.817-1.1-1.75-2.3c1.3,0.533,2.617,1.4,3.95,2.601c0.484,0.464,1.068,1.072,1.75,1.824
		c-0.112-0.281-0.245-0.573-0.4-0.875c-0.8-1.3-1.383-2.267-1.75-2.899c0.567,0.666,1.517,1.55,2.85,2.649
		c1.633,1.334,2.617,1.867,2.95,1.601c-0.267-0.7-0.867-1.9-1.8-3.601c-0.8-1.5-1.35-2.716-1.65-3.649
		c0.067-0.033,1.5,2.133,4.3,6.5c0.167,0.233,0.533,0.75,1.1,1.55c0.445,0.611,0.82,1.069,1.125,1.375
		c-0.014,0.394-0.072,0.786-0.175,1.175c-0.167,0.767-0.467,1.3-0.9,1.601c-0.267,0.166-0.8,0.233-1.6,0.199
		c-0.867-0.1-1.417-0.149-1.65-0.149c-0.733-0.033-1.3-0.066-1.7-0.101c-0.767-0.033-1.35,0-1.75,0.101
		c-0.533,0.267-0.983,0.45-1.35,0.55c-0.966,0.267-2.216,0.116-3.75-0.45c-1.667-0.8-2.833-1.35-3.5-1.649L24.9,149.1
		c-0.8,0.233-1.783-0.05-2.95-0.85c-0.367-0.267-0.6-0.434-0.7-0.5c-0.167-0.1-0.417-0.116-0.75-0.05
		c-0.6,0.333-1.333,0.649-2.2,0.95c-1.5,0.366-3.25,0.449-5.25,0.25c-1.9-0.2-3.616-0.584-5.15-1.15c0.5-0.1,1.417-0.05,2.75,0.15
		c1.2,0.199,2.1,0.166,2.7-0.101C12.95,147.467,11.85,146.95,10.05,146.25z"/>
	<path style="fill-rule:evenodd;clip-rule:evenodd;fill:#354F0C;" d="M50.65,143.75c1.2,1.9,1.767,3.616,1.7,5.15
		c0,1.333-0.283,2.216-0.85,2.649c-0.7,0.533-2.267,0.55-4.7,0.05c-2.4-0.5-3.633-1.066-3.7-1.699c0.033-0.134,0.133-0.2,0.3-0.2
		l0.65,0.35c-0.4-2.866-0.716-4.649-0.95-5.35c0.566,0.399,1.2,0.967,1.9,1.7c0.367,0.399,0.933,1.017,1.7,1.85l-0.05-3.1
		c0-0.233-0.083-1.084-0.25-2.551c-0.1-1.366,0-2.166,0.3-2.399C48.133,140.6,49.45,141.783,50.65,143.75z"/>
	<path style="fill-rule:evenodd;clip-rule:evenodd;fill:#354F0C;" d="M68.1,146.1c-0.399,0.801-0.733,1.417-1,1.851
		c-0.466,0.8-0.949,1.316-1.449,1.55c-0.567,0.3-1.384,0.434-2.45,0.4c-0.334,0-1.15-0.067-2.45-0.2
		c-0.11-0.01-0.219-0.019-0.325-0.025c2.52-3.666,6.528-7.357,12.025-11.075c0.033,0.434-0.184,1.017-0.65,1.75
		c-0.533,0.767-0.883,1.284-1.05,1.551C69.717,143.366,68.833,144.767,68.1,146.1z M60.425,149.675
		c-0.161,0.238-0.319,0.479-0.475,0.726c-0.034-0.247-0.042-0.53-0.025-0.851C60.071,149.597,60.238,149.638,60.425,149.675z
		 M59.925,149.55c-0.273-0.071-0.465-0.172-0.575-0.3c-0.1-0.134-0.25-0.6-0.449-1.4l-2.9,2.2c-0.366-1.333,1.217-3.267,4.75-5.8
		c0.033,0.634-0.116,1.65-0.45,3.05C60.079,148.186,59.954,148.936,59.925,149.55z"/>
	<path style="fill-rule:evenodd;clip-rule:evenodd;fill:#354F0C;" d="M92.4,145.4c-0.7,1.566-1.584,2.899-2.65,4
		c-0.6,0.666-1.066,1.166-1.4,1.5c-0.6,0.6-1.149,0.983-1.649,1.149c-0.134-0.2-0.3-0.533-0.5-1c-0.2-0.434-0.384-0.75-0.55-0.95
		c-0.7,0.967-1.317,1.534-1.851,1.7c-0.399,0.101-0.816,0.05-1.25-0.149c-0.5-0.233-0.733-0.551-0.7-0.95
		c-1.133,0.133-1.983,0.233-2.55,0.3c-1,0.1-1.866,0.1-2.6,0l0.05-2.7c-0.4,0.066-1.267,0.55-2.6,1.45
		c-1.134,0.8-2.084,1.083-2.851,0.85c-0.233-0.066-0.5-0.233-0.8-0.5c-0.366-0.399-0.616-0.633-0.75-0.699
		c0.967-0.601,1.583-1.034,1.85-1.301l3.301,0.65c1.233-2.5,2.25-5.167,3.05-8c0.366,0.333,0.533,1.25,0.5,2.75
		c-0.058,1.416-0.1,2.366-0.125,2.85c0.063-0.681,0.338-1.447,0.825-2.3c1.767-3.2,3.466-5.25,5.1-6.149
		c0.667,0.533,0.517,1.899-0.45,4.1c-1.2,2.4-1.883,3.934-2.05,4.6c1.267-1.833,2.017-3.216,2.25-4.149
		c0.134,0.833,0.167,1.85,0.1,3.05c0,0.2-0.149,0.733-0.449,1.6c-0.233,0.801-0.334,1.301-0.301,1.5c0,0.233,0.017,0.384,0.051,0.45
		c0.033,0.101,0.133,0.217,0.3,0.351c0.399-1,1.2-2.534,2.399-4.601c1.101-1.967,1.851-3.517,2.25-4.649
		c-0.066,0.466-0.1,1.066-0.1,1.8c0,1.066,0,1.684,0,1.85c0.033,1.2,0.05,2.117,0.05,2.75c0.033,1.2-0.1,2.117-0.399,2.75
		c0.199-0.333,0.633-0.95,1.3-1.85c0.333-0.467,0.967-1.601,1.899-3.4c0.767-1.467,1.467-2.55,2.101-3.25
		C93.5,142.066,93.233,143.6,92.4,145.4z"/>
	<path style="fill-rule:evenodd;clip-rule:evenodd;fill:#658022;" d="M59.9,145.1c-0.067,0.967-0.284,1.733-0.65,2.301
		c-0.02,0.039-0.12,0.155-0.3,0.35c-0.226,0.688-0.626,1.337-1.2,1.95c-1.066,1.166-2.233,1.467-3.5,0.899
		c0.066-0.666,0.583-1.5,1.55-2.5c1.267-1.3,1.983-2.066,2.15-2.3c0.2-0.3,0.583-0.833,1.149-1.6c0.467-0.667,0.75-1.2,0.851-1.601
		C59.95,144,59.934,144.833,59.9,145.1z"/>
	<path style="fill-rule:evenodd;clip-rule:evenodd;fill:#658022;" d="M46,140.1l-0.65-0.55c1.7,0.434,2.9,1.934,3.6,4.5
		c0.367,1.4,0.617,3.45,0.75,6.15c-1.133-1.033-1.917-1.8-2.35-2.3c-0.7-0.834-1.05-1.817-1.05-2.95c0-0.434,0.05-1.267,0.15-2.5
		C46.45,141.35,46.3,140.566,46,140.1z"/>
	<path style="fill-rule:evenodd;clip-rule:evenodd;fill:#658022;" d="M45.75,147.3l0.8,1.601c0,0.033,0,0.1,0,0.199
		c0,0.034-0.033,0.051-0.1,0.051c-0.733-0.367-1.45-1.117-2.15-2.25c0-0.034-0.5-0.983-1.5-2.851l-1.5-2.7
		c0.9,0.634,1.8,1.517,2.7,2.65C44.967,145.267,45.55,146.366,45.75,147.3z"/>
	<path style="fill-rule:evenodd;clip-rule:evenodd;fill:#658022;" d="M38.8,145.8c0.016,0.006,0.033,0.006,0.05,0l0.2,1.101
		c-0.233,0.166-0.433,0.199-0.6,0.1c-0.233-0.233-0.434-0.434-0.6-0.6c-1.233-1.134-2.3-2.65-3.2-4.551
		c-0.867-1.8-1.383-3.566-1.55-5.3c0.833,1.367,2.1,3.417,3.8,6.15l0.8,1.399C38.367,145.267,38.733,145.833,38.8,145.8z"/>
	<path style="fill-rule:evenodd;clip-rule:evenodd;fill:#658022;" d="M34.85,146.25l0.4,0.3c-0.767-0.166-1.6-0.7-2.5-1.6
		c-0.4-0.4-1.033-1.167-1.9-2.3c-0.767-0.934-1.35-1.667-1.75-2.2c-0.733-0.934-1.217-1.733-1.45-2.4
		c0.833-0.5,2.25,0.517,4.25,3.05C33.767,143.5,34.75,145.217,34.85,146.25z"/>
	<path style="fill-rule:evenodd;clip-rule:evenodd;fill:#658022;" d="M30.8,145.75l0.9,0.9c-0.067,0.6-1.083,0.3-3.05-0.9
		s-2.967-2.116-3-2.75C27.25,143.134,28.967,144.05,30.8,145.75z"/>
	<path style="fill-rule:evenodd;clip-rule:evenodd;fill:#658022;" d="M16.875,145.275c0.167,0.536,0.258,1.045,0.275,1.524
		l-0.4-1.05C16.814,145.606,16.856,145.448,16.875,145.275c-0.165-0.546-0.406-1.121-0.725-1.726c-0.833-1.366-1.433-2.35-1.8-2.95
		c0.633,0.067,1.267,0.784,1.9,2.15C16.748,143.797,16.956,144.639,16.875,145.275z"/>
	<path style="fill-rule:evenodd;clip-rule:evenodd;fill:#658022;" d="M15.45,146.15l-1.85-2.4c-0.133-0.333-0.4-0.733-0.8-1.2
		c-0.6-0.733-0.917-1.116-0.95-1.149c0.9-0.067,1.75,0.483,2.55,1.649C15.167,144.15,15.517,145.184,15.45,146.15z"/>
	<path style="fill-rule:evenodd;clip-rule:evenodd;fill:#658022;" d="M16.8,141.6c-0.2-1.966,0.133-2.866,1-2.699
		c0.534,1.5,0.4,3.166-0.4,5v1.55C17.385,145,17.185,143.717,16.8,141.6z"/>
	<path style="fill-rule:evenodd;clip-rule:evenodd;fill:#658022;" d="M100.2,143.85c0.267,0.967,0.133,2.067-0.4,3.301
		c-0.6,1.333-1.399,2-2.399,2l-0.2-0.4c-0.066,0.066-0.334,0.417-0.8,1.05c-0.367,0.467-0.7,0.733-1,0.8
		c-0.101-0.633-0.15-0.966-0.15-1c-0.2,0.067-0.583,0.434-1.15,1.101c-0.466,0.6-0.883,0.883-1.25,0.85
		c-0.399,0-0.616-0.366-0.649-1.1c-0.066-0.733-0.233-1.117-0.5-1.15l-0.15-1.35c-0.133-0.367-0.033-1.167,0.3-2.4
		c0.301-1.233,0.601-2.133,0.9-2.7c0.4,0.233,0.6,1.267,0.6,3.101c-0.033,1.399-0.133,2.566-0.3,3.5c0.4-1.167,1-3.066,1.8-5.7
		c0.801-2.3,1.733-4.017,2.801-5.15c0.366,0.5,0.55,1.2,0.55,2.101c0.033,1-0.283,2.233-0.95,3.7c-0.767,1.6-1.583,2.566-2.45,2.899
		c0.867-0.267,1.816-0.767,2.851-1.5C97.983,145.566,98.833,144.917,100.2,143.85z"/>
</g>
</svg>
