<?xml version="1.0" encoding="iso-8859-1"?>
<!-- Generator: Adobe Illustrator 15.1.0, SVG Export Plug-In . SVG Version: 6.00 Build 0)  -->
<!DOCTYPE svg PUBLIC "-//W3C//DTD SVG 1.1//EN" "http://www.w3.org/Graphics/SVG/1.1/DTD/svg11.dtd">
<svg version="1.1" id="FlashAICB" xmlns="http://www.w3.org/2000/svg" xmlns:xlink="http://www.w3.org/1999/xlink" x="0px" y="0px"
	 width="80.8px" height="127.1px" viewBox="0 0 80.8 127.1" style="enable-background:new 0 0 80.8 127.1;" xml:space="preserve">
<symbol  id="FlashAICB_x5F_0_x2F_Layer_7_x2F__x3C_Path_x3E_" viewBox="-0.024 -9 51.774 9.002">
	<g id="Layer_1_2_">
		<path style="fill-rule:evenodd;clip-rule:evenodd;" d="M51.6-6.5l0.15-0.1l-1.2-0.85C49.117-7.883,47.833-8.4,46.7-9l-0.1,0.05
			l-0.25,1.2c-0.067,0.433-1.2,0.567-3.4,0.4c-1.367-0.1-3.583-0.367-6.65-0.8c-1.433,1.267-4.25,1.7-8.45,1.3
			c-4.633-0.7-7.717-1.05-9.25-1.05c-1.033,0-1.867-0.333-2.5-1c-0.267-0.3-1.45,0.167-3.55,1.4c-1.8,0.6-3.617,0.883-5.45,0.85
			c-0.633-0.033-1.85-0.233-3.65-0.6L2.9-7.2l0.45-0.05c-0.6,0.033-1.2,0.033-1.8,0L0.4-6C0-5.933-0.117-5.683,0.05-5.25
			c0.1,0.233,0.2,0.317,0.3,0.25S0.5-5.033,0.5-4.9s0.183,0.183,0.55,0.15s0.567,0.2,0.6,0.7C1.65-3.983,1.7-3.8,1.8-3.5l0.45,0.4
			L2.6-2.95h0.6c0.1,0,0.233-0.25,0.4-0.75c0.167-0.5,0.316-0.716,0.45-0.65c0.133,0.067,0.333,0.367,0.6,0.9
			C5.217-2.35,5.533-1.733,5.6-1.6c0.1,0.033,1.283,0.1,3.55,0.2c1.3,0.033,1.934,0.5,1.9,1.4C16.183,0.033,26.7-0.283,42.6-0.95
			c0.467,0,1.75-0.483,3.85-1.45c2.1-0.934,3.233-1.4,3.4-1.4c0.233,0,0.483-0.284,0.75-0.85c0.267-0.633,0.433-0.967,0.5-1
			C51.3-5.783,51.467-6.067,51.6-6.5z"/>
	</g>
</symbol>
<g>
	<g>
		<g>
			<g>
				
					<radialGradient id="SVGID_1_" cx="41.3057" cy="115.9688" r="31.864" gradientTransform="matrix(1 -0.0098 -0.0235 -0.3872 9.7751 160.8074)" gradientUnits="userSpaceOnUse">
					<stop  offset="0" style="stop-color:#000000;stop-opacity:0.698"/>
					<stop  offset="1" style="stop-color:#000000;stop-opacity:0"/>
				</radialGradient>
				<path style="fill-rule:evenodd;clip-rule:evenodd;fill:url(#SVGID_1_);" d="M25.25,117.5c1.4,0.7,2.033,1.033,1.9,1l-2-1
					c-0.7-0.066-1.15,0.2-1.35,0.8c-0.233,0.834-0.65,1.4-1.25,1.7c-4.466-3.167-6.7-5.4-6.7-6.7c0-3.2,3.167-5.934,9.5-8.2
					c6.367-2.3,14.033-3.449,23-3.449c8.934,0,16.584,1.149,22.95,3.449c6.334,2.267,9.5,5,9.5,8.2c0,1.533-1.133,3.017-3.399,4.45
					c-2.367,1.5-5.15,2.35-8.351,2.55c-1.733-0.333-2.899-0.483-3.5-0.45c-0.2,0.067-0.35,0.067-0.45,0
					c-0.3-0.1,0.233-0.133,1.601-0.1c1.2,0.066,1.717,0.083,1.55,0.05c-0.2-0.066-0.917-0.399-2.15-1
					c-1.1-0.533-1.816-0.8-2.149-0.8c-1.167,0-2.4-0.267-3.7-0.8c-1.267-0.467-2.517-0.7-3.75-0.7
					c-1.233-0.733-2.217-1.267-2.95-1.6c-1.366-0.634-2.483-0.517-3.35,0.35c-2.7,1.167-4.4,1.866-5.101,2.1
					c-1.1,0.4-2.433,0.7-4,0.9c-0.6,0.1-0.983,0.667-1.149,1.7l-0.1-0.05c-0.667-0.167-1.533-0.483-2.6-0.95
					c-1.267-0.566-2.15-0.934-2.65-1.101c-1.9-0.666-3.8-0.983-5.7-0.949C28.267,116.934,27.05,117.134,25.25,117.5z"/>
				
					<use xlink:href="#FlashAICB_x5F_0_x2F_Layer_7_x2F__x3C_Path_x3E_"  width="51.774" height="9.002" x="-0.024" y="-9" transform="matrix(1 0 0 -1 21.7998 110.25)" style="overflow:visible;opacity:0.2109;enable-background:new    ;"/>
			</g>
			<path style="fill-rule:evenodd;clip-rule:evenodd;fill:#2D3D03;" d="M21.45,119.9c0.066-0.5,0.333-0.834,0.8-1
				c0.267-0.134,0.733-0.284,1.4-0.45c0.533-0.233,2.217-0.733,5.05-1.5c2.167-0.601,3.75-1.283,4.75-2.05l16.25-0.75
				c3.399,0,5.767,0.066,7.1,0.199c2.5,0.267,4.767,0.851,6.8,1.75c1.767,0.801,2.75,1.25,2.95,1.351
				c1.334,0.833,1.684,1.633,1.05,2.399c-0.466,0.634-1.699,0.95-3.699,0.95c-2.101-0.1-3.4-0.116-3.9-0.05
				c-0.033,0.634,0.283,1.6,0.95,2.9c0.633,1.199,0.85,2.199,0.649,3c-4.333-1.101-7.6-1.917-9.8-2.45
				c-3.866-0.9-7.149-1.417-9.85-1.55L41.85,122c-2.1,0.866-4.149,1.25-6.149,1.15c-0.1-0.467,0.033-0.95,0.4-1.45
				c0.2-0.3,0.533-0.717,1-1.25c-1-0.134-2.633-0.101-4.9,0.1c-2.167,0.167-3.817,0.15-4.95-0.05
				C25.85,120.233,23.917,120.033,21.45,119.9z"/>
			<path style="fill-rule:evenodd;clip-rule:evenodd;fill:#3D5405;" d="M31.5,51.35l-1.6,2.15c-0.7-0.567-1.417-1.317-2.15-2.25
				c-1.2-1.533-1.8-3-1.8-4.4c0-1.133,0.933-3.467,2.8-7c1.867-3.4,2.7-5.633,2.5-6.7c1.633,4.167,2.45,8.4,2.45,12.7
				C33.7,47.65,32.967,49.483,31.5,51.35z M45.6,33.1c1.733-2.434,3.917-4.517,6.551-6.25c0.1,2.5,0.1,5,0,7.5
				c-0.034,0.9-0.267,1.75-0.7,2.55c-1.3,2.533-3.283,4.383-5.95,5.55c-1.3-2.167-1.634-4.45-1-6.85
				C44.7,34.767,45.066,33.933,45.6,33.1z M53.5,64.9c-1.934,1.8-4.283,2.699-7.05,2.699c-0.4-4.633,1.166-8.716,4.7-12.25
				c2.267-2.233,4.8-4.067,7.6-5.5c0.1,3.333-0.45,6.667-1.65,10C56.333,61.816,55.134,63.5,53.5,64.9z M61.15,72.95
				c-1.7,4.733-4.834,8.116-9.4,10.149c-1.6,0.767-3.267,0.967-5,0.601c-0.066-0.101-0.1-0.267-0.1-0.5
				c0.066-0.7,0.166-1.4,0.3-2.101c0.399-2.267,1.333-4.316,2.8-6.149c0.767-0.867,1.6-1.483,2.5-1.851c3-1.199,6.134-2,9.4-2.399
				C61.55,71.566,61.384,72.316,61.15,72.95z M35.7,82.85c0.2,0.434,0.216,0.9,0.05,1.4c-0.6,2.1-1.6,4.134-3,6.1
				c-1.633-0.699-2.933-1.783-3.9-3.25c-2.1-3.133-3.5-6.583-4.2-10.35h0.5l6.5,2.1C33.65,79.45,35,80.783,35.7,82.85z M36.95,96.25
				c1.667,0.4,3.05,1.267,4.149,2.6l0.4,0.5c-0.233-2.133-0.316-4.5-0.25-7.1c1.3,0.866,2.684,1.417,4.15,1.65
				c2.699,0.6,4.517,2.116,5.449,4.55c0.301-0.434,0.767-1.351,1.4-2.75c0.767-1.467,3.316-3.533,7.65-6.2v6.7
				c0.066,1.5-0.267,2.883-1,4.149c-2.067,3.667-5.317,6-9.75,7L48.6,106.4l-0.1,0.199l-1.5,1.5c-1.4-0.733-2.233-1.35-2.5-1.85
				c-0.7,0.634-1.333,1.6-1.9,2.9l-1.35-0.301c-3.667-0.899-6.467-2.899-8.4-6l-2-7.6C32.65,95.483,34.683,95.816,36.95,96.25z"/>
			<path style="fill-rule:evenodd;clip-rule:evenodd;fill:#3D5404;" d="M22.45,36.25c4.267,7.633,7.9,16.967,10.9,28
				c2.867,10.9,4.583,19.866,5.15,26.9c0.5,6.833,1.083,12.017,1.75,15.55c0.8-0.634,1.634-0.95,2.5-0.95
				c0.767,0,1.316,0.134,1.65,0.4c0,0.066,0.033,0.1,0.1,0.1L45,96.5c0.4-13.467,0.316-24.217-0.25-32.25l-1.05-13.1l-0.2-0.95
				l-1.85-26.45h3.3l2.8,39.5c0.434,5,0.733,8.65,0.9,10.95c0.3,4.666,0.333,9.05,0.1,13.149c-0.233,3.867-0.35,6.917-0.35,9.15
				c-0.101,5.7,0.666,9.816,2.3,12.35c-0.434-3.899,0.25-9.399,2.05-16.5c2.9-11.733,4.533-17.783,4.9-18.149h0.05l3.05,1.7
				c-1.566,7.533-3.184,13.733-4.85,18.6c-1.7,5.066-2.184,9.434-1.45,13.1c0.6-0.133,1.116-0.199,1.55-0.199
				c1.3,0,2.434,0.333,3.4,1c1,0.699,1.5,1.6,1.5,2.699l-0.051,0.25c-1.166-0.233-2.133-0.35-2.899-0.35
				c-0.667,0-1.733,0.15-3.2,0.45l-0.35,0.05v2.1c-1-0.166-2.301-0.25-3.9-0.25h-1.25c-0.2,0.267-0.3,0.434-0.3,0.5
				c-0.066,0.034-0.101,0.534-0.101,1.5c0,2.867,1.284,5.367,3.851,7.5c-1.134-0.066-1.9-0.216-2.3-0.449
				c-0.334-0.167-0.767-0.75-1.301-1.75c0,1.3-0.466,2.3-1.399,3c-0.767,0.533-1.75,0.8-2.95,0.8c-1.5,0-2.583-0.267-3.25-0.8
				c-0.8-0.567-1.083-1.417-0.85-2.551c-0.601,0.9-1.484,1.351-2.65,1.351c-1.033,0-1.833-0.15-2.4-0.45
				c-0.833-0.4-1.25-1.033-1.25-1.9c0-0.1,0.033-0.183,0.1-0.25c1.733-0.333,3.167-0.716,4.3-1.149c1.967-0.7,3.217-1.517,3.75-2.45
				c0.3-0.434,0.45-0.934,0.45-1.5c0-0.467-0.233-1.134-0.7-2l-0.15-0.35c-0.1,0-0.183-0.051-0.25-0.15l-2.25-1.8
				c-0.733-0.367-1.6-0.601-2.6-0.7l-1.4-0.05c-1.7,0-3.317,0.383-4.85,1.149c-0.733-0.433-1.317-0.767-1.75-1
				c-1.667-1.066-3.467-1.449-5.4-1.149c2.667-1.967,5.617-2.95,8.85-2.95c1.167,0,2.316,0.134,3.45,0.4l0.6,0.199
				c-0.467-3.166-0.883-8.25-1.25-15.25c-0.233-6.699-2.1-15.783-5.6-27.25c-3.433-11.333-6.983-19.4-10.65-24.2L22.45,36.25z"/>
			<path style="fill-rule:evenodd;clip-rule:evenodd;fill:#3D5404;" d="M24.5,116.35l2.95-3c0.966-1.033,2.066-1.866,3.3-2.5
				c1.533-0.767,3.15-1.149,4.85-1.149l1.4,0.05c1,0.1,1.867,0.333,2.6,0.7l2.25,1.8c0.067,0.1,0.15,0.15,0.25,0.15l0.15,0.35
				c0.467,0.866,0.7,1.533,0.7,2c0,0.566-0.15,1.066-0.45,1.5c-0.533,0.934-1.783,1.75-3.75,2.45
				c-1.133,0.434-2.567,0.816-4.3,1.149c-1.2,0.101-2.434,0.15-3.7,0.15c-1.233,0-2.917-0.217-5.05-0.65
				c-2.167-0.366-3.817-0.583-4.95-0.649C21.917,118.267,23.167,117.483,24.5,116.35z M62.25,119.6
				c-0.7-1.366-1.483-2.449-2.35-3.25c-1.4-1.399-3.233-2.316-5.5-2.75v-2.1l0.35-0.05c1.467-0.3,2.533-0.45,3.2-0.45
				c0.767,0,1.733,0.116,2.899,0.35c1.601,0.5,3.2,1.351,4.801,2.551c2.733,2.133,5.216,3.366,7.449,3.699H72.9
				c-2.434,1.7-4.983,2.551-7.65,2.551C64.55,120.15,63.55,119.967,62.25,119.6z"/>
			<path style="fill-rule:evenodd;clip-rule:evenodd;fill:#3D5404;" d="M54.4,113.6c2.267,0.434,4.1,1.351,5.5,2.75
				c0.866,0.801,1.649,1.884,2.35,3.25c0.533,1.034,1.167,2.617,1.9,4.75l0.3,1.051v1.699c-3.134-0.366-5.8-1.033-8-2
				c-1.367-0.633-2.517-1.3-3.45-2l-0.3-0.25c-2.566-2.133-3.851-4.633-3.851-7.5c0-0.966,0.034-1.466,0.101-1.5
				c0-0.066,0.1-0.233,0.3-0.5h1.25C52.1,113.35,53.4,113.434,54.4,113.6z"/>
			<path style="fill-rule:evenodd;clip-rule:evenodd;fill:#2D3D03;" d="M26.95,50.9c-0.4-0.467-0.784-0.667-1.15-0.6
				c-0.533,0.067-0.85,0.083-0.95,0.05c-0.333-0.867-0.65-1.567-0.95-2.1c0-0.533-0.183-0.934-0.55-1.2L22.85,46l-2.65-7.5
				l1.45-1.45l1.3,0.25c4.066,7.367,7.533,16.35,10.4,26.95c2.867,10.9,4.583,19.866,5.15,26.9c0.5,6.833,1.083,12.017,1.75,15.55
				c0.8-0.634,1.634-0.95,2.5-0.95c0.467,0,0.816,0.05,1.05,0.15L43.9,106c0.767,1.033,1.366,1.8,1.8,2.3
				c0.767,0.9,1.483,1.533,2.149,1.9c1.101,0.566,2.233,0.75,3.4,0.55c1.3-0.2,2.217-0.8,2.75-1.8
				c0.333-0.101,1.017,0.149,2.05,0.75c0.934,0.566,1.533,1.017,1.8,1.35l-1.5,0.15c-0.445,0-0.787-0.009-1.024-0.025l0.725,0.075
				l-1.149,0.2l-0.2,0.05v2.1c-1.867-0.3-3.267-0.449-4.2-0.449h-1.25c-0.066,0-0.134,0.083-0.2,0.25
				c-0.066,0.166-0.1,0.283-0.1,0.35c-0.066,0.066-0.101,0.6-0.101,1.6c0,2.367,0.867,4.467,2.601,6.301
				c0,0.533-0.017,0.85-0.05,0.949L51,122.65l-0.6-0.25c-0.334-0.167-0.767-0.75-1.301-1.75c0,0.566-0.1,1.1-0.3,1.6
				c-0.866-0.5-1.783-1.55-2.75-3.15c-1.166-1.899-1.95-3.05-2.35-3.449c-0.233,0.3-0.5,0.767-0.8,1.399
				c-0.267,0.667-0.5,1.117-0.7,1.351l-0.05-1.65c0.199-0.2,0.316-0.366,0.35-0.5c0.3-0.434,0.45-0.934,0.45-1.5
				c0-0.467-0.233-1.134-0.7-2l-0.15-0.35c-0.1,0-0.183-0.051-0.25-0.15l-2.25-1.8c-0.733-0.367-1.6-0.601-2.6-0.7l-1.4-0.05
				c-1.7,0-3.317,0.383-4.85,1.149l-0.85-0.5c0.733-0.566,1.817-1.116,3.25-1.649c-0.3-0.233-0.8-0.566-1.5-1
				c-0.6-0.4-0.967-0.834-1.1-1.3c0.267,0,1.85,0.1,4.75,0.3c1.934,0.133,3.467,0.033,4.6-0.3c-0.066-0.834-0.367-1.801-0.9-2.9
				c-0.733-1.6-1.15-2.533-1.25-2.8c-0.167-0.5-0.3-1.217-0.4-2.15C37.217,97.517,37.1,96.8,37,96.4c-0.533-2.101-0.8-4.167-0.8-6.2
				c0-1.4-0.133-3.25-0.4-5.55c-0.333-2.667-0.533-4.483-0.6-5.45c-0.1-1.367-0.45-3.05-1.05-5.05c-0.9-2.867-1.4-4.534-1.5-5
				c-0.2-0.934-0.467-2.284-0.8-4.051C31.483,63.566,31,62.267,30.4,61.2c-0.1-0.167-0.75-0.9-1.95-2.2
				c-0.733-0.767-1-1.65-0.8-2.65c0.033-0.167,0.184-0.383,0.45-0.65c0.2-0.233,0.3-0.55,0.3-0.95c-0.033-0.3-0.2-0.8-0.5-1.5
				C27.733,52.917,27.417,52.133,26.95,50.9z"/>
			<path style="fill-rule:evenodd;clip-rule:evenodd;fill:#2D3D03;" d="M38.2,107.65l0.75,1c-0.333,0.8-1.284,1.699-2.85,2.699
				c-1.367,0.867-2.567,1.434-3.6,1.7c0.367-1.066,1.15-2.149,2.35-3.25C36.017,108.7,37.133,107.983,38.2,107.65z"/>
			<path style="fill-rule:evenodd;clip-rule:evenodd;fill:#2D3D03;" d="M41.2,25.9l3,0.75c1.1-0.133,1.684,1.25,1.75,4.15
				c-0.167,3.167-0.25,4.983-0.25,5.45c0.133,1.6,0.2,2.883,0.2,3.85c0.033,1.8-0.2,2.983-0.7,3.55
				c-0.066-1.333-0.167-3.367-0.3-6.1c-0.067-0.767-0.284-1.667-0.65-2.7c-0.533-1.534-0.833-2.417-0.9-2.65
				c-0.1-0.367-0.566-1.417-1.399-3.15C41.35,27.816,41.1,26.767,41.2,25.9z"/>
			<path style="fill-rule:evenodd;clip-rule:evenodd;fill:#2D3D03;" d="M45.2,44.65l0.5-1c1.333-0.066,2.149,2.684,2.45,8.25
				c0.033,0.633,0.05,4.117,0.05,10.45c0,2.1,0.133,5.25,0.399,9.45c0.267,4.101,0.384,7.25,0.351,9.45
				c-0.033,1.366-0.233,2.6-0.601,3.7c-0.466,1.333-0.933,1.149-1.399-0.55c-0.233-0.834-0.3-2.067-0.2-3.7
				c0.033-0.9,0.1-2.167,0.2-3.8c0-4.867-0.017-7.601-0.05-8.2c-0.034-1.634-0.067-4.167-0.101-7.6c-0.033-3-0.217-5.5-0.55-7.5
				c-0.167-1.067-0.434-2.55-0.8-4.45C45.184,47.55,45.1,46.05,45.2,44.65z"/>
			<path style="fill-rule:evenodd;clip-rule:evenodd;fill:#2D3D03;" d="M55.7,81.65l1.75,1.25c0.866,1.033,1,2.517,0.399,4.449
				C56.95,89.583,56.333,91.2,56,92.2c-0.467,1.434-0.767,3.033-0.9,4.8c-0.1,1.1-0.149,2.767-0.149,5
				c-0.033,0.866-0.15,1.833-0.351,2.9c-0.3,1.267-0.533,2.216-0.699,2.85c-0.233,1.167-0.417,1.816-0.551,1.95
				c-0.233,0.267-0.883,0.416-1.949,0.45c-1.101,0.1-1.967,0.166-2.601,0.199c-1.166,0.034-2.033-0.05-2.6-0.25
				c-0.667-0.267-1.066-0.633-1.2-1.1c-0.167-0.533,0.217-0.8,1.15-0.8l0.3-3.8c0.566,0.199,0.967,0.699,1.2,1.5
				c0.199-2.267,0.6-3.934,1.199-5c0.4,0.166,0.867,1.116,1.4,2.85c0.434,1.434,1.15,1.983,2.15,1.65
				c0.033-0.634,0.316-1.483,0.85-2.551c0.566-1.133,0.884-2.017,0.95-2.649c0.066-0.667,0.217-1.55,0.45-2.65
				c0.267-1.166,0.433-2.05,0.5-2.649c0.1-0.601,0.483-2.4,1.149-5.4c0.434-2.8,0.15-4.417-0.85-4.85
				C55.384,83.15,55.467,82.15,55.7,81.65z"/>
			<path style="fill-rule:evenodd;clip-rule:evenodd;fill:#4D690C;" d="M44.45,50.65c0.2,2.867,0.267,5.033,0.2,6.5
				c-1.167-0.133-1.817-3.033-1.95-8.7c-0.101-4.067,0-7.583,0.3-10.55c1.134,2.767,1.7,6.434,1.7,11L44.45,50.65z"/>
			<path style="fill-rule:evenodd;clip-rule:evenodd;fill:#4D690C;" d="M45.7,59.65c-0.066,0.633-0.05,1.633,0.05,3
				c0.1,1.267,0.083,2.25-0.05,2.95c0.033-0.466-0.167-1.5-0.601-3.1c-0.3-1.267-0.267-2.3,0.101-3.1L45.7,59.65z"/>
			<path style="fill-rule:evenodd;clip-rule:evenodd;fill:#4D690C;" d="M54.45,86.15c0.833-0.434,1.283-0.051,1.35,1.149
				c0.066,1.033-0.083,1.9-0.45,2.601c-0.833,1.733-1.35,1.816-1.55,0.25c-0.2-1.534-0.066-2.867,0.4-4H54.45z"/>
			<path style="fill-rule:evenodd;clip-rule:evenodd;fill:#4E6B06;" d="M26,114.65c0.9-0.967,1.717-1.717,2.45-2.25
				c0.7-0.5,1.583-0.851,2.65-1.051c0.633-0.133,1.583-0.283,2.85-0.449l0.5-0.75c-0.5,1.767-1.9,3.35-4.2,4.75
				c-2.033,1.233-4.05,2-6.05,2.3C24.433,116.533,25.033,115.684,26,114.65z"/>
			<path style="fill-rule:evenodd;clip-rule:evenodd;fill:#4E6B06;" d="M39.1,111.15c1,0.133,1.45,0.733,1.35,1.8
				c-0.066,0.733-0.667,1.467-1.8,2.2c-2.367,1.666-6.183,2.233-11.45,1.699c0.867-0.233,1.783-0.666,2.75-1.3
				c1.433-0.934,2.283-1.467,2.55-1.6c0.4-0.2,1.25-0.533,2.55-1c1.09-0.528,1.64-1.12,1.65-1.775
				c-0.188-0.009-0.355-0.017-0.5-0.024h0.5v0.024C37.289,111.184,38.089,111.175,39.1,111.15z"/>
			<path style="fill-rule:evenodd;clip-rule:evenodd;fill:#4E6B06;" d="M52.7,115.4h0.5c-0.667-0.167-1.217-0.4-1.65-0.7
				c1.134-0.134,2.634,0.083,4.5,0.649c1.767,0.534,3.134,1.15,4.101,1.851c2.267,1.7,3.366,4.399,3.3,8.1
				c-1.533-2.366-2.717-4-3.55-4.899c-0.867-0.934-2.017-1.834-3.45-2.7C54.783,116.733,53.533,115.967,52.7,115.4z"/>
			<path style="fill-rule:evenodd;clip-rule:evenodd;fill:#4E6B06;" d="M58.15,111.35c0.533,0.067,1.267,0.2,2.199,0.4
				c1.233,0.2,2.884,0.983,4.95,2.35c2.033,1.4,3.634,2.184,4.8,2.351c-0.699,0-2.017-0.334-3.949-1
				c-0.567-0.267-1-0.467-1.301-0.601c-0.5-0.233-0.949-0.383-1.35-0.449c-0.333-0.067-1.267-0.051-2.8,0.05
				c-0.746,0.042-1.354-0.016-1.825-0.175c-0.602-0.112-1.243-0.287-1.925-0.525c-1.667-0.6-1.983-1.267-0.95-2
				C56.467,111.384,57.184,111.25,58.15,111.35z M58.875,114.275c0.657,0.118,1.266,0.159,1.825,0.125l-2.5-0.5
				C58.38,114.057,58.605,114.182,58.875,114.275z"/>
			<path style="fill-rule:evenodd;clip-rule:evenodd;fill:#4E6B06;" d="M58.45,109.15h-3.2c-0.066-0.267-0.066-0.567,0-0.9
				c1.1-0.233,2.066-0.184,2.9,0.15l0.05,0.5L58.45,109.15z"/>
			<path style="fill-rule:evenodd;clip-rule:evenodd;fill:#4E6B06;" d="M44.2,118.15h1.5c0.899,0.666,1.1,1.699,0.6,3.1
				c-0.533,1.4-1.399,1.95-2.6,1.65c-0.066-0.467,0.066-1.284,0.399-2.45C44.366,119.384,44.4,118.616,44.2,118.15z"/>
			<path style="fill-rule:evenodd;clip-rule:evenodd;fill:#2D3D03;" d="M64.7,119.75c-0.8-0.134-1.367-0.283-1.7-0.45
				c-0.4-0.2-0.866-0.566-1.4-1.1c-0.133-0.134-0.633-0.566-1.5-1.3c-0.699-0.567-1.083-0.967-1.149-1.2
				c3.899,1.2,6.1,1.85,6.6,1.95c2.767,0.633,5.066,0.633,6.9,0l-0.75,1C70.167,119.917,67.833,120.283,64.7,119.75z"/>
			<path style="fill-rule:evenodd;clip-rule:evenodd;fill:#243302;" d="M44.25,110.2c-0.566-0.367-1.583-0.884-3.05-1.55
				c-1.066-0.667-1.483-1.584-1.25-2.75l2.5,0.25c0.3,0.433,1,0.883,2.1,1.35c1.167,0.533,1.967,1.033,2.4,1.5
				c0.899,1,1.3,2.066,1.2,3.2c-0.167,1.267-0.983,2.066-2.45,2.399c-0.066-1.6-0.117-2.433-0.15-2.5
				C45.384,111.3,44.95,110.667,44.25,110.2z"/>
			<g>
				<path style="fill-rule:evenodd;clip-rule:evenodd;fill:#DB4D5F;" d="M64.5,58c-0.967-0.434-2-0.55-3.1-0.35
					c-2,0.5-3.551,0.934-4.65,1.3l-2.5,0.95c-1.1,0.533-1.9,1.283-2.4,2.25L51.2,63.6c-0.134,0-0.25-0.05-0.351-0.15
					c-0.533-0.267-0.5-0.884,0.101-1.85c0.733-1.233,1.633-2.133,2.7-2.7l1.6-0.55c0.7-0.2,1.333-0.5,1.9-0.9l1.85-1.2
					c0.467-0.2,1.884-0.083,4.25,0.35C63.783,57.033,64.2,57.5,64.5,58z M61,63l-0.6,0.45c0.699,1.066,1.699,1.717,3,1.95
					l0.449-1.45c-0.633-0.867-1.433-1.233-2.399-1.1C61.25,62.85,61.1,62.9,61,63z M59.5,63.25c-2.134-0.2-2.3,0.533-0.5,2.2
					l2.4,2.2c1.033,0.833,2.1,1.25,3.199,1.25c0.733,0.066,1.5-0.034,2.301-0.301l0.25-0.449c0.6-0.9,0.85-1.917,0.75-3.051
					c-0.667-1.6-1.834-2.649-3.5-3.149c-0.634-0.1-1.233-0.1-1.801,0c2,0.566,3.051,1.866,3.15,3.899L65.5,65.95
					c-0.1,0.1-0.233,0.149-0.4,0.149c-1.133,0.467-2.35,0.551-3.649,0.25c-0.7-0.699-1.217-1.449-1.55-2.25L59.5,63.25z
					 M59.35,60.85c0.601-0.534,1.351-0.767,2.25-0.7l2,0.2c1.167,0.133,2.134,0.383,2.9,0.75v0.05L67.4,62
					c0.733,0.867,1.1,1.917,1.1,3.15c0.066,1.466-0.267,2.75-1,3.85h-0.1l-5,0.75c-3.801-0.8-5.801-2.483-6-5.05V64.1
					c0.533-1.366,1.383-2.366,2.55-3L59.35,60.85z M59.1,60.2l-3.949,2.65l-0.4,0.8c-0.366,0.633-0.55,1.367-0.55,2.2
					c-0.033,0.767,0.2,1.517,0.7,2.25c0.533,0.733,1.116,1.334,1.75,1.801c0.399,0.399,0.733,0.666,1,0.8
					c1.166,0.767,2.416,1.316,3.75,1.649c1.366,0.5,2.783,0.75,4.25,0.75l0.6-0.1c0.967-0.033,2.033-0.25,3.2-0.65
					c1.3-1.033,2.066-2.533,2.3-4.5c-0.2-1.399-0.667-2.85-1.4-4.35l-0.5-0.85c-0.566-0.8-1.199-1.483-1.899-2.05
					c0.6-0.467,1.166-0.333,1.7,0.4l0.949,1.45c0.534,0.633,0.917,1.283,1.15,1.95c0.6,1.533,0.767,3.216,0.5,5.05
					c-0.167,0.866-0.45,1.767-0.85,2.7H71.35c-1.033,0.666-2.033,1.199-3,1.6c-1.233,0.533-2.533,0.9-3.899,1.1
					c-0.601-0.1-1.2-0.25-1.8-0.449c-1.334-0.367-2.684-0.95-4.051-1.75c-1.3-0.667-2.517-1.434-3.649-2.301
					c-0.967-1.166-1.55-2.5-1.75-4c-0.134-0.733-0.2-1.3-0.2-1.699c0-0.9,0.066-1.734,0.2-2.5c0.666-0.7,1.416-1.25,2.25-1.65
					l3.8-1.4L59.1,60.2z M50.45,69.85l3.8,3.25l1.7,2.801c0.333,0.566,0.684,1.05,1.05,1.449c1.033,1.134,2.283,1.851,3.75,2.15
					c1.667-0.1,3.316-0.533,4.95-1.3c1-0.467,2-0.8,3-1l0.8-0.95c0.2-1.967,0.566-2.667,1.1-2.1L70.9,74.5l0.25,1.85l-2.4,3.301
					c-0.533,0.733-1.134,1.316-1.8,1.75c-1.434,0.8-2.934,1.199-4.5,1.199c-1.7-0.1-3.267-0.716-4.7-1.85
					c-1.3-1-2.384-2.283-3.25-3.85L53.4,75.1c-1.367-0.466-2.617-1.083-3.75-1.85c-1.367-0.9-2.334-2.15-2.9-3.75
					c-0.366-1.2-0.5-2.417-0.4-3.65L46.45,65.2l0.8-2c0.4-0.733,0.767-0.917,1.1-0.55c-0.866,0.934-1.1,1.966-0.699,3.1
					C48.15,67.35,49.083,68.717,50.45,69.85z M71.6,60.45c0.634,0.566,1.351,1.333,2.15,2.3c1.134,1.434,1.967,2.934,2.5,4.5
					c0.333,0.866,0.5,1.767,0.5,2.7c0,1.7-0.25,3.3-0.75,4.8c-0.5,1.4-1.25,2.6-2.25,3.6L71,81.15c0.767-0.967,1.417-2.034,1.95-3.2
					c0.733-1.467,1.3-3.084,1.7-4.851l0.199-1.949c0.067-0.301,0.167-0.567,0.301-0.801c0.166-0.6,0.25-1.1,0.25-1.5
					c0-1.3-0.467-2.466-1.4-3.5l-3.1-4c0.066-0.4,0.267-0.7,0.6-0.9H71.6z"/>
				<path style="fill-rule:evenodd;clip-rule:evenodd;fill:#941F2C;" d="M64.5,58.65c-0.1,0.3-0.4,0.867-0.9,1.7l-2-0.2
					c-0.899-0.066-1.649,0.167-2.25,0.7L58.95,61.1l0.3-2l-3.8,1.4l1.3-1.55c1.1-0.367,2.65-0.8,4.65-1.3
					c1.1-0.2,2.133-0.083,3.1,0.35V58.65z M61,63c0.1-0.1,0.25-0.15,0.45-0.15c0.967-0.133,1.767,0.233,2.399,1.1L63.4,65.4
					c-1.301-0.233-2.301-0.884-3-1.95L61,63z M59.9,64.1c0.333,0.801,0.85,1.551,1.55,2.25c1.3,0.301,2.517,0.217,3.649-0.25
					L64.6,68.9c-1.1,0-2.166-0.417-3.199-1.25l-2.4-2.2c-1.8-1.667-1.634-2.4,0.5-2.2L59.9,64.1z M48.25,63
					c-0.3,1.767,0.434,2.983,2.2,3.65v3.199c-1.367-1.133-2.3-2.5-2.8-4.1c-0.4-1.134-0.167-2.167,0.699-3.1L48.25,63z M54.95,70.35
					c1.133,0.867,2.35,1.634,3.649,2.301c1.367,0.8,2.717,1.383,4.051,1.75c0.6,0.199,1.199,0.35,1.8,0.449
					c1.366-0.199,2.666-0.566,3.899-1.1c0.967-0.4,1.967-0.934,3-1.6l-0.75,2c-0.533-0.567-0.899,0.133-1.1,2.1l-0.8,0.95
					c-1,0.2-2,0.533-3,1c-1.634,0.767-3.283,1.2-4.95,1.3c-1.467-0.3-2.717-1.017-3.75-2.15c-0.366-0.399-0.717-0.883-1.05-1.449
					l-1.7-2.801l-1.5-1.25c-0.233-1-0.35-1.866-0.35-2.6c0-1,0.083-1.85,0.25-2.55L53,64.65c0,0.399,0.066,0.966,0.2,1.699
					C53.4,67.85,53.983,69.184,54.95,70.35z M56.25,67.5l0.15-2.75c0.225,2.538,2.225,4.205,6,5l5-0.75
					c-0.267,0.833-0.4,1.366-0.4,1.6c-0.366,1.034-0.816,1.867-1.35,2.5c-1.467,0-2.884-0.25-4.25-0.75
					c-1.334-0.333-2.584-0.883-3.75-1.649c-0.267-0.134-0.601-0.4-1-0.8C56.384,69.233,56.25,68.434,56.25,67.5z M54.5,76.9
					c0.866,1.566,1.95,2.85,3.25,3.85c1.434,1.134,3,1.75,4.7,1.85c1.566,0,3.066-0.399,4.5-1.199c0.666-0.434,1.267-1.017,1.8-1.75
					l1.85-2.45L70,78.85c-0.467,1.134-0.8,1.9-1,2.301c-0.366,0.833-0.884,1.517-1.55,2.05c-1.134,0.833-2.283,1.467-3.45,1.899
					l-1.05,0.4c-0.467,0.167-0.967,0.283-1.5,0.35l-0.7,0.5c-1.366-0.033-2.616-0.5-3.75-1.399c-1.5-1.2-2.767-2.367-3.8-3.5
					l0.2-6.351L54.5,76.9z M74,65.35c0.934,1.034,1.4,2.2,1.4,3.5c0,0.4-0.084,0.9-0.25,1.5c-0.134,0.233-0.233,0.5-0.301,0.801
					V70.85c-1.199,3.667-2.433,5.5-3.699,5.5L70.9,74.5c1.1-0.134,1.949-1.35,2.55-3.65c0.566-2.3,0.55-3.966-0.05-5
					c-0.334-0.6-1.167-2.016-2.5-4.25v-0.25L74,65.35z"/>
				<path style="fill-rule:evenodd;clip-rule:evenodd;fill:#B33443;" d="M64.4,61.95c1.666,0.5,2.833,1.55,3.5,3.149
					c0.1,1.134-0.15,2.15-0.75,3.051L66.9,68.6C66.1,68.866,65.333,68.967,64.6,68.9l0.5-2.801c0.167,0,0.301-0.05,0.4-0.149
					l0.25-0.101c-0.1-2.033-1.15-3.333-3.15-3.899C63.167,61.85,63.767,61.85,64.4,61.95z M58.95,61.1
					c-1.167,0.633-2.017,1.633-2.55,3l-0.15,3.4c0,0.934,0.134,1.733,0.4,2.4c-0.634-0.467-1.217-1.067-1.75-1.801
					c-0.5-0.733-0.733-1.483-0.7-2.25c0-0.833,0.184-1.566,0.55-2.2l0.4-0.8L59.1,60.2L58.95,61.1z M67.5,61.9l0.45-1.3
					c0.7,0.566,1.333,1.25,1.899,2.05l0.5,0.85c0.733,1.5,1.2,2.95,1.4,4.35c-0.233,1.967-1,3.467-2.3,4.5
					c-1.167,0.4-2.233,0.617-3.2,0.65l-0.6,0.1c0.533-0.633,0.983-1.466,1.35-2.5c0-0.233,0.134-0.767,0.4-1.6h0.1
					c0.733-1.1,1.066-2.384,1-3.85c0-1.234-0.366-2.284-1.1-3.15l-0.9-0.85L67.5,61.9z M51.2,63.6l0.649-1.45
					c0.5-0.967,1.301-1.717,2.4-2.25l2.5-0.95l-1.3,1.55c-0.834,0.4-1.584,0.95-2.25,1.65c-0.134,0.767-0.2,1.6-0.2,2.5l-0.35,2.05
					c-0.167,0.7-0.25,1.55-0.25,2.55c0,0.733,0.116,1.6,0.35,2.6l-2.3-2V66.65c-0.066-0.667,0-1.467,0.2-2.4l0.199-0.8
					C50.95,63.55,51.066,63.6,51.2,63.6z M53.4,75.1l-0.2,6.351c-1.533-0.667-2.566-1.4-3.101-2.2l-2.6-4.15
					c-0.9-1.6-1.4-3.183-1.5-4.75c-0.1-1.767,0.017-3.267,0.35-4.5c-0.1,1.233,0.034,2.45,0.4,3.65c0.566,1.6,1.533,2.85,2.9,3.75
					C50.783,74.017,52.033,74.634,53.4,75.1z M60.75,86.35l0.7-0.5c0.533-0.066,1.033-0.183,1.5-0.35
					C62.384,85.833,61.65,86.116,60.75,86.35z M70.9,61.6c1.333,2.233,2.166,3.65,2.5,4.25c0.6,1.034,0.616,2.7,0.05,5
					C72.85,73.15,72,74.366,70.9,74.5L70.6,74.15l0.75-2H71.4c0.399-0.934,0.683-1.834,0.85-2.7c0.267-1.834,0.1-3.517-0.5-5.05
					c-0.233-0.667-0.616-1.317-1.15-1.95L70.9,61.6z M74.85,71.15L74.65,73.1c-0.4,1.767-0.967,3.384-1.7,4.851
					c-0.533,1.166-1.184,2.233-1.95,3.2c-0.467,0.633-1.083,1.133-1.85,1.5c-0.567,0.333-1.134,0.517-1.7,0.55
					c0.666-0.533,1.184-1.217,1.55-2.05c0.2-0.4,0.533-1.167,1-2.301l0.6-1.649l0.551-0.851c1.267,0,2.5-1.833,3.699-5.5V71.15z"/>
			</g>
			<g>
				<path style="fill-rule:evenodd;clip-rule:evenodd;fill:#942B37;" d="M34.65,2.95c-1.5-0.2-2.983-0.15-4.45,0.15
					c0-0.367,0.1-0.733,0.3-1.1c0.167-0.233,0.3-0.367,0.4-0.4c3.6,0.767,7.35,1.066,11.25,0.9h0.1l-0.1,0.85
					c-2.333-0.434-4.3,0.066-5.9,1.5h0.25C36.433,4.883,36.4,4.933,36.4,5c-0.1,0.433-0.017,0.816,0.25,1.15l-1.5,0.2l-1.2-3.15
					L34.65,2.95z M52.1,3.35C49.934,3.816,47.7,3.917,45.4,3.65l0.8-0.55c2.133-0.267,4.066-0.217,5.8,0.15L52.1,3.35z M61.35,3.35
					l-0.6,0.5c-1.533,1.867-3.7,2.75-6.5,2.65C53.884,5.9,53.8,5.283,54,4.65V4.4l1.45-0.8c-1.434-1.534-3.334-2-5.7-1.4
					c0-0.434,0.333-0.833,1-1.2C54.583,1,58.116,1.783,61.35,3.35z M47.75,7.85c-3.566-1.133-6.917-0.7-10.05,1.3l-0.2,0.2
					l0.75-0.15c-2.3,2.9-3.05,6.116-2.25,9.65c0.367,1.267,0.617,2.517,0.75,3.75c-1.9-3.367-2.933-7-3.1-10.9
					c-0.033-0.767-0.333-1.5-0.9-2.2c-0.533-0.533-1.133-0.917-1.8-1.15l-3.1-1.4l-0.85-1c3.867,1.533,7.533,1.95,11,1.25
					c3.5-0.7,7.033-0.8,10.6-0.3L47.75,7.85z"/>
				<path style="fill-rule:evenodd;clip-rule:evenodd;fill:#DB4D5F;" d="M33.5,0.9C38.833,1.6,44,1.3,49,0
					c1.033,0.367,1.184,0.7,0.45,1L49.4,0.85L42.25,2.5h-0.1c-3.9,0.167-7.65-0.133-11.25-0.9l-0.15-0.1C31.583,1,32.5,0.8,33.5,0.9
					z M33.2,0.45c-4.1,0.533-6.95,2.116-8.55,4.75c-0.066,0.167-0.033,0.3,0.1,0.4c1.333,0.667,2.367,1.117,3.1,1.35l3.4,1.55
					c-2.133,0.767-4.017,0.65-5.65-0.35c-1.2-0.633-2.367-1.05-3.5-1.25C20.167,6.7,19.8,6.066,21,5c1.333-1,2.633-1.8,3.9-2.4
					c0.934-0.4,2.05-1.017,3.35-1.85C29.55-0.15,31.2-0.25,33.2,0.45z M33.95,3.2c-1.3,0.4-2.617,0.95-3.95,1.65
					c-0.267,0.167-0.3,0.3-0.1,0.4c1.4,1.133,3.15,1.5,5.25,1.1l1.5-0.2c4.4-0.867,8.883-0.8,13.45,0.2
					c0.267,0.566-0.233,0.75-1.5,0.55C45.033,6.4,41.5,6.5,38,7.2c-3.467,0.7-7.133,0.283-11-1.25c-1.3-0.567-1.017-1.267,0.85-2.1
					c0.733-0.333,1.517-0.583,2.35-0.75c1.466-0.3,2.95-0.35,4.45-0.15L33.95,3.2z M46.1,3.1c0.867-0.5,1.834-0.784,2.9-0.85
					l0.75-0.05c2.366-0.6,4.267-0.134,5.7,1.4L54,4.4c-3.4,0.767-6.934,0.85-10.6,0.25c-2.301-0.4-4.601-0.333-6.9,0.2h-0.25
					c1.6-1.434,3.567-1.934,5.9-1.5l3.25,0.3c2.3,0.267,4.533,0.167,6.699-0.3L52,3.25c-1.733-0.367-3.667-0.417-5.8-0.15L46.35,3
					L46.1,3.1z M61.9,1.95c1.399,0.7,1.966,1.333,1.699,1.9c-0.399,0.566-0.966,1.1-1.699,1.6L59.2,6.6
					c-1.7,0.566-4.033,0.783-7,0.65c-0.634-0.3,0.05-0.55,2.05-0.75c2.8,0.1,4.967-0.783,6.5-2.65l0.6-0.5
					C58.116,1.783,54.583,1,50.75,1c0.9-0.434,2.233-0.6,4-0.5C58.017,0.833,60.4,1.316,61.9,1.95z M65.75,4.7l0.1,0.15
					c0.101,0.9-0.466,1.483-1.699,1.75c-1.834,0.733-4.134,1.483-6.9,2.25C54.684,9.517,52.1,9.6,49.5,9.1
					c-3.7-0.633-7.45-0.6-11.25,0.1L37.5,9.35l0.2-0.2c3.133-2,6.483-2.433,10.05-1.3c0.833,0.233,1.8,0.35,2.9,0.35
					c3.767,0.1,7.466-0.567,11.1-2L65.75,4.7z"/>
				<path style="fill-rule:evenodd;clip-rule:evenodd;fill:#B33443;" d="M33.5,0.9c-1-0.1-1.917,0.1-2.75,0.6l0.15,0.1
					c-0.1,0.033-0.233,0.167-0.4,0.4c-0.2,0.367-0.3,0.733-0.3,1.1c-0.833,0.167-1.617,0.417-2.35,0.75
					C25.983,4.683,25.7,5.383,27,5.95l0.85,1c-0.733-0.233-1.767-0.684-3.1-1.35c-0.133-0.1-0.167-0.233-0.1-0.4
					c1.6-2.634,4.45-4.217,8.55-4.75C33.4,0.617,33.5,0.767,33.5,0.9z M42.25,2.5l7.15-1.65c0,0.5-0.134,0.966-0.4,1.4
					c-1.066,0.066-2.033,0.35-2.9,0.85L46.35,3L45.4,3.65l-3.25-0.3L42.25,2.5z M22.1,6.9c1.133,0.2,2.3,0.617,3.5,1.25
					c1.633,1,3.517,1.117,5.65,0.35l-0.3-0.15c0.667,0.233,1.267,0.617,1.8,1.15c0.567,0.7,0.867,1.433,0.9,2.2
					c0.167,3.9,1.2,7.533,3.1,10.9c-0.133-1.233-0.383-2.483-0.75-3.75c-0.8-3.534-0.05-6.75,2.25-9.65
					c3.8-0.7,7.55-0.733,11.25-0.1c2.6,0.5,5.184,0.417,7.75-0.25c2.767-0.767,5.066-1.517,6.9-2.25
					c-1.5,1.767-2.301,3.716-2.4,5.85c-0.033,2.133-0.8,3.983-2.3,5.55c-3.367,3.667-7.434,6.367-12.2,8.1
					c-3.767,1.4-7.4,1.483-10.9,0.25V25.6c-0.934-0.233-1.883-0.534-2.85-0.9c-3.567-1.3-6.4-3.45-8.5-6.45
					c-0.4-0.567-0.65-1.184-0.75-1.85C23.683,13.1,22.967,9.933,22.1,6.9z M61.75,6.2c-3.634,1.433-7.333,2.1-11.1,2
					c-1.101,0-2.067-0.117-2.9-0.35L48.6,6.9c1.267,0.2,1.767,0.017,1.5-0.55c-4.566-1-9.05-1.067-13.45-0.2
					C36.383,5.816,36.3,5.433,36.4,5c0-0.067,0.033-0.117,0.1-0.15c2.3-0.534,4.6-0.6,6.9-0.2C47.066,5.25,50.6,5.167,54,4.4v0.25
					c-0.2,0.633-0.116,1.25,0.25,1.85c-2,0.2-2.684,0.45-2.05,0.75c2.967,0.133,5.3-0.083,7-0.65l2.7-1.15
					C61.8,5.617,61.75,5.867,61.75,6.2z M30,4.85c1.333-0.7,2.65-1.25,3.95-1.65l1.2,3.15c-2.1,0.4-3.85,0.033-5.25-1.1
					C29.7,5.15,29.733,5.017,30,4.85z"/>
			</g>
			<g>
				<path style="fill-rule:evenodd;clip-rule:evenodd;fill:#B33443;" d="M14.7,24.35c-3.1-1.367-5.05-1.4-5.85-0.1
					c-2.9,4.167-2.4,6.717,1.5,7.65c0.667,0.667,1.05,1.067,1.15,1.2c0.567,0.566,1.233,1.4,2,2.5c-1.733,0.1-3.683-0.1-5.85-0.6
					c-2.433-0.5-3.75-1.7-3.95-3.6c-1.034-8.9,3.017-12.5,12.15-10.8l1.65,0.5l0.75,5.6c-0.633,1.366-1.683,2.517-3.15,3.45
					c-0.167-0.566-0.217-1.083-0.15-1.55L15,28.1h0.1C17.833,27,17.7,25.75,14.7,24.35z M10.5,28.25c0.1,0.5,0.433,0.75,1,0.75
					l1.65,2.15c-2.767,1-3.85,0.1-3.25-2.7c0.867-3.934,2.4-4.3,4.6-1.1c0,0.133-0.05,0.216-0.15,0.25
					c-2.333,1.333-3.283,1.017-2.85-0.95c-0.233-0.333-0.45-0.333-0.65,0C10.45,27.15,10.333,27.683,10.5,28.25z M23.75,28
					c-0.8,1.566-1.717,2.883-2.75,3.95l-0.5-1c0.167-0.4,0.25-1.1,0.25-2.1c-0.067-0.934-0.317-2.5-0.75-4.7
					c-0.5-2.2-0.75-3.717-0.75-4.55c-0.033-1.5,0.3-2.4,1-2.7l0.2-0.05l1,0.9c1.966,2.233,2.816,5.2,2.55,8.9
					C23.9,27.45,23.817,27.9,23.75,28z"/>
				<path style="fill-rule:evenodd;clip-rule:evenodd;fill:#DB4D5F;" d="M14.5,27.35c-2.2-3.2-3.733-2.833-4.6,1.1
					c-0.6,2.8,0.483,3.7,3.25,2.7c0.833-0.267,1.483-0.6,1.95-1c1.467-0.933,2.517-2.083,3.15-3.45c0.367-0.733,0.6-1.5,0.7-2.3
					L19,23.85l0.1,0.1l0.35,1.2c0.433,1.6,0.533,2.917,0.3,3.95c-0.533,2.2-2.533,3.25-6,3.15c-1.167,0-2.3-0.117-3.4-0.35
					c-3.9-0.933-4.4-3.483-1.5-7.65c0.8-1.3,2.75-1.267,5.85,0.1c3,1.4,3.133,2.65,0.4,3.75H15c-1.533,0.667-2.7,0.966-3.5,0.9
					c-0.567,0-0.9-0.25-1-0.75c-0.167-0.567-0.05-1.1,0.35-1.6c0.2-0.333,0.417-0.333,0.65,0c-0.433,1.967,0.517,2.283,2.85,0.95
					C14.45,27.566,14.5,27.483,14.5,27.35z M24.4,20.15c0.6,1.1,1,2.35,1.2,3.75c0.167,1.533,0.133,2.85-0.1,3.95
					c-0.533,3.5-2.783,6.333-6.75,8.5c-3.167,1.733-6.25,2.15-9.25,1.25c-0.9-0.233-1.9-0.65-3-1.25
					c-1.433-0.934-2.85-2.15-4.25-3.65c-3.9-4.233-2.75-8.05,3.45-11.45c5.367-2.9,9.3-2.95,11.8-0.15l-1.65-0.5
					C6.717,18.9,2.667,22.5,3.7,31.4c0.2,1.9,1.517,3.1,3.95,3.6c2.167,0.5,4.117,0.7,5.85,0.6c3.067-0.3,5.567-1.517,7.5-3.65
					c1.033-1.067,1.95-2.384,2.75-3.95c0.067-0.1,0.15-0.55,0.25-1.35c0.267-3.7-0.583-6.667-2.55-8.9l-1-0.9
					c0.833,0.267,1.633,0.716,2.4,1.35c0.467,0.466,0.917,1.05,1.35,1.75L24.4,20.15z"/>
				<path style="fill-rule:evenodd;clip-rule:evenodd;fill:#942B37;" d="M21,31.95c-1.933,2.133-4.433,3.35-7.5,3.65
					c-0.767-1.1-1.433-1.934-2-2.5c-0.1-0.133-0.483-0.534-1.15-1.2c1.1,0.233,2.233,0.35,3.4,0.35c3.467,0.1,5.467-0.95,6-3.15
					c0.167,0.633,0.333,1.083,0.5,1.35c0,0.1,0.083,0.267,0.25,0.5L21,31.95z M9.5,37.6c3,0.9,6.083,0.483,9.25-1.25
					c3.967-2.167,6.217-5,6.75-8.5c0.2,2.1,0.45,3.65,0.75,4.65L29,38.65c0.633,1.4,0.55,3-0.25,4.8c-0.733,1.833-2.033,3.167-3.9,4
					c-2.7,1.2-4.983,1.35-6.85,0.45c-1.333-0.566-2.667-1.867-4-3.9l-1.55-2.65c-0.7-1.1-1.267-1.9-1.7-2.4L9.5,37.6z M11.5,29
					c0.8,0.066,1.967-0.233,3.5-0.9l-0.05,0.5c-0.067,0.466-0.017,0.983,0.15,1.55c-0.467,0.4-1.117,0.733-1.95,1L11.5,29z"/>
			</g>
			<path style="fill-rule:evenodd;clip-rule:evenodd;fill:#3D5405;" d="M45.25,44.9c0-4.367,2-7.8,6-10.3l5.5-3.1
				c2.267-1.267,4.1-2.617,5.5-4.05v7.15c-1.134,4.2-3.55,7.25-7.25,9.15c-2.566,1.333-5.767,2.05-9.6,2.15L45.25,44.9z M35.6,42.35
				c1.066,1.6,1.617,3.4,1.65,5.4v0.75c-0.1,2.433-0.95,4.6-2.55,6.5c-1,1.6-2.367,2.833-4.1,3.7
				c-2.867-6.833-1.367-12.534,4.5-17.1L35.6,42.35z M40.1,69.65c-0.366,1.767-0.95,3.466-1.75,5.1c-1.533-3.566-2.2-7.4-2-11.5
				c2.267,1.1,4.117,2.65,5.55,4.65c2.566,3.633,4,7.649,4.3,12.05c-1.134,0.399-2.283,0.3-3.45-0.3
				c-0.467-0.2-0.934-0.467-1.4-0.801c0.101-0.933,0.15-2.066,0.15-3.399C41.5,73.35,41.033,71.417,40.1,69.65z M46.7,85.9
				c2.133,1.267,3.566,2.416,4.3,3.449c0.8,0.967,1.3,2.217,1.5,3.75c0.366,1.367,0.366,2.617,0,3.75l-1.3,4.65
				c-0.533-0.733-1.851-2.167-3.95-4.3c-0.7-0.667-1.25-1.367-1.65-2.101C45,94.1,44.7,93.066,44.7,92
				C44.7,90.5,45.366,88.467,46.7,85.9z M36.95,90.85C32.783,92.25,28.8,91.634,25,89c-0.5-0.333-1.183-0.616-2.05-0.85L21.2,90.6
				l-0.3-0.649c0.367-4.834,3.067-7.2,8.1-7.101c2.567,0,4.483,1.117,5.75,3.351C35.55,87.566,36.283,89.116,36.95,90.85z
				 M62.7,97.9c2.399,2.566,3.55,5.633,3.45,9.199c-4-0.5-6.75-2.533-8.25-6.1c-0.601-1.366-1.4-2.583-2.4-3.65l-0.85-0.699
				C57.483,94.85,60.167,95.267,62.7,97.9z M27.65,102.95c-1.233-1.967-1.8-4.167-1.7-6.601c4.5,2.667,8.233,6.084,11.2,10.25
				C33.15,108.1,29.983,106.884,27.65,102.95z"/>
			<path style="fill-rule:evenodd;clip-rule:evenodd;fill:#344704;" d="M37.25,47.75c3.5,2.333,6.066,5.45,7.7,9.35l-1.2,0.35
				c-3.6,1.066-6.617,0.25-9.05-2.45c1.6-1.9,2.45-4.067,2.55-6.5V47.75z M42.2,36.85c-4.967,0.167-8.5-1.867-10.6-6.1
				c2.533,0.2,5.15,0.583,7.85,1.15c2.366,0.6,3.717,2.1,4.05,4.5C43.1,36.667,42.667,36.816,42.2,36.85z M29.2,56.4l-3.7,2.05
				c-4.4,2.267-7.983,1.417-10.75-2.55c-1.133-1.566-1.967-3.3-2.5-5.2c4.9,0.6,9.517,1.767,13.85,3.5
				c1.133,0.533,1.967,1.366,2.5,2.5L29.2,56.4z M34.35,73.6c-3.733,1.101-7.017,0.267-9.85-2.5c-2-1.966-3.1-4.283-3.3-6.949
				c4.966,0.6,8.867,2.966,11.7,7.1L34.35,73.6z M33.7,73.4c-0.2,0-0.35,0.066-0.45,0.199l-0.1,0.15
				C33.283,73.75,33.467,73.634,33.7,73.4z M43.75,82.35c1.3,0.267,2.417,0.601,3.35,1c4.801,1.601,6.917,4.9,6.351,9.9L52.5,93.1
				c-0.2-1.533-0.7-2.783-1.5-3.75c-0.733-1.033-2.167-2.183-4.3-3.449c-1.334,2.566-2,4.6-2,6.1c0,1.066,0.3,2.1,0.899,3.1
				c-0.6,2.067-1.566,3.517-2.899,4.351c0.333-0.667,0.434-1.334,0.3-2c-0.2-1.667-0.283-3.283-0.25-4.851
				c-0.233,0.134-0.45,0.351-0.65,0.65c-0.899,1.134-1.683,2.017-2.35,2.65c-0.4,0.533-0.733,1.033-1,1.5l-0.5,1.449v0.101
				L38.2,99.1c-0.2,0.767-0.35,1.134-0.45,1.101l-0.8-8.601c3.133-1.199,5.366-3.699,6.7-7.5L43.75,82.35z M54.45,93.35
				c0.7-2.033,2.033-3.449,4-4.25l11.55-5c-0.833,4.2-3.333,7.15-7.5,8.851c-2.533,1.1-5.134,1.316-7.8,0.649L54.45,93.35z
				 M52.5,106.85c0.233,0.934,0.2,1.884-0.1,2.851c-3.301-0.9-5.384-3.101-6.25-6.601c-0.467-1.866-0.767-3.733-0.9-5.6
				c2.5,1.4,4.417,3.217,5.75,5.45C51.667,104.15,52.167,105.45,52.5,106.85z"/>
			<path style="fill-rule:evenodd;clip-rule:evenodd;fill:#364A04;" d="M38.35,74.75c0.8-1.634,1.383-3.333,1.75-5.1
				c0.934,1.767,1.4,3.699,1.4,5.8c0,1.333-0.05,2.467-0.15,3.399c-0.133,0.834-0.333,1.551-0.6,2.15
				c-0.667,1.634-1.933,2.967-3.8,4H36l0.2-2.4l0.05-0.199V82.1L36.2,81.9v-0.45c0-1.767,0.5-3.55,1.5-5.351L38.35,74.75z
				 M42.1,93.25c0.2-0.3,0.417-0.517,0.65-0.65c-0.033,1.567,0.05,3.184,0.25,4.851c0.134,0.666,0.033,1.333-0.3,2
				c-0.4,0.633-0.967,1.35-1.7,2.149c-0.533,0.534-1.05,0.7-1.55,0.5c-0.434-0.333-0.7-0.75-0.8-1.25
				c-0.133-0.399-0.267-1.066-0.4-2l0.5-1.449c0.267-0.467,0.6-0.967,1-1.5C40.417,95.267,41.2,94.384,42.1,93.25z"/>
			<path style="fill-rule:evenodd;clip-rule:evenodd;fill:#2D3D03;" d="M26.95,54.4l-1,0.5c2.833,0.033,3.783,0.617,2.85,1.75
				c-0.9,1.033-2.383,1.783-4.45,2.25c-1.8,0.434-3.45,0.6-4.95,0.5c-2.333-0.167-3.4-1.066-3.2-2.7c0.233,0,1.55,0.05,3.95,0.15
				c1.7,0.066,2.95-0.067,3.75-0.4c-0.1-0.5-0.65-0.917-1.65-1.25c-1.333-0.5-2.1-0.817-2.3-0.95c0.867,0.2,2.017,0.283,3.45,0.25
				C24.2,54.5,25.383,54.467,26.95,54.4z"/>
			<path style="fill-rule:evenodd;clip-rule:evenodd;fill:#2D3D03;" d="M34.35,47.3c-1.267,2.567-2.317,4.85-3.15,6.85
				c0.267-0.1,0.65-0.283,1.15-0.55c0.5-0.3,0.883-0.5,1.15-0.6c0.5,1.267,0.183,2.483-0.95,3.65c-1.133,1.133-2.333,1.55-3.6,1.25
				c-0.1-0.733-0.1-1.233,0-1.5l-0.25-0.25c-0.034-1.467,0.283-3,0.95-4.6c0.033,0.267,0.2,0.867,0.5,1.8
				c0.567-0.567,1.25-1.583,2.05-3.05C33,48.9,33.717,47.9,34.35,47.3z"/>
			<path style="fill-rule:evenodd;clip-rule:evenodd;fill:#2D3D03;" d="M31.95,70.4l1,0.25c0.267,0.767,0.333,1.517,0.2,2.25
				c-0.933,0.133-2.033,0.05-3.3-0.25c-1.533-0.367-2.25-0.934-2.15-1.7h2.4c-0.633-0.434-1.05-1-1.25-1.7
				C29.517,69.55,30.55,69.934,31.95,70.4z"/>
			<path style="fill-rule:evenodd;clip-rule:evenodd;fill:#2D3D03;" d="M39,82.35c-0.667,1.167-1.433,1.851-2.3,2.051
				c-0.067-1,0.1-2.2,0.5-3.601c0.466-1.6,0.716-2.733,0.75-3.399v1c0.2-0.467,0.433-0.867,0.7-1.2c0,1.866,0.017,3.267,0.05,4.2
				c0.433-0.034,0.767-0.284,1-0.75c0.066-0.101,0.233-0.567,0.5-1.4C39.967,80.384,39.567,81.417,39,82.35z"/>
			<path style="fill-rule:evenodd;clip-rule:evenodd;fill:#2D3D03;" d="M34.45,82.4l0.25-0.5c0.4,0.466,0.583,1.199,0.55,2.199
				c-0.1,1.367-0.133,2.15-0.1,2.351c0.4,1.166,0.617,1.983,0.65,2.45c0.1,0.733-0.3,1.383-1.2,1.949
				c-0.533,0.367-1.15,0.567-1.85,0.601c-0.5,0-1.183-0.084-2.05-0.25c-1.467-0.367-2.917-0.884-4.35-1.55
				c-2-0.967-2.95-1.851-2.85-2.65c1.6,0.833,2.883,1.417,3.85,1.75c1.6,0.533,2.95,0.616,4.05,0.25
				c-0.5-0.366-1.316-0.75-2.45-1.15c-1.167-0.433-1.983-0.816-2.45-1.149c1.467-0.033,2.933-0.033,4.4,0
				c-1.2-0.4-2.033-0.767-2.5-1.101c-0.9-0.6-1.217-1.316-0.95-2.149c0.367,0,1.017,0.149,1.95,0.45c0.8,0.267,1.467,0.35,2,0.25
				c-0.1-0.601-0.4-1.233-0.9-1.9c-0.6-0.767-0.983-1.366-1.15-1.8c0.9-0.066,1.833,0.066,2.8,0.399
				C33.117,81.217,33.883,81.733,34.45,82.4z"/>
			<path style="fill-rule:evenodd;clip-rule:evenodd;fill:#2D3D03;" d="M38.2,96.15l-1.25,1.75c-0.1-1.034,0.6-2.084,2.1-3.15
				c0.833-0.6,2.033-1.366,3.601-2.3c-1.434,1.934-2.667,4.416-3.7,7.45c0.667,0.133,1.316-0.084,1.95-0.65
				c0.3,0.9,0.05,1.517-0.75,1.85c-0.8,0.334-1.467,0.2-2-0.399c-0.3-0.4-0.433-1.134-0.4-2.2C37.817,97.5,37.967,96.717,38.2,96.15
				z"/>
			<path style="fill-rule:evenodd;clip-rule:evenodd;fill:#2D3D03;" d="M36.9,99.85c0.296,2.209,0.58,3.676,0.85,4.4
				c-0.628-0.17-1.495-0.687-2.6-1.55c-0.967-0.767-2.117-1.75-3.45-2.95c1.133-0.066,1.783-0.233,1.95-0.5
				c0.233-0.267,0.184-0.934-0.15-2C35.167,96.616,36.3,97.483,36.9,99.85z M37.75,104.25c0.339,0.096,0.614,0.096,0.825,0
				l-0.625,0.4C37.886,104.561,37.819,104.427,37.75,104.25z"/>
			<path style="fill-rule:evenodd;clip-rule:evenodd;fill:#2D3D03;" d="M36.6,106.5c-0.4,0.3-1.2,0.434-2.4,0.4
				c-0.967,0.1-1.684,0.116-2.15,0.05c-0.8-0.101-1.25-0.517-1.35-1.25l2.5-0.05c-0.067-0.134-0.45-0.551-1.15-1.25
				c-0.466-0.5-0.75-0.983-0.85-1.45c0.767,0.267,1.933,0.717,3.5,1.35c1.315,0.459,2.474,0.668,3.475,0.625
				C37.423,105.776,36.898,106.302,36.6,106.5z"/>
			<path style="fill-rule:evenodd;clip-rule:evenodd;fill:#2D3D03;" d="M41.2,105.65c0.1-0.7,0.566-1.483,1.399-2.351
				c0.101-0.1,0.817-0.733,2.15-1.899c0.434,1.166,0.184,2.416-0.75,3.75c-1,1.399-2.017,1.483-3.05,0.25L41.2,105.65z"/>
			<path style="fill-rule:evenodd;clip-rule:evenodd;fill:#2D3D03;" d="M48.7,91.4c0.8,0.066,1.833,0.85,3.1,2.35
				c1.267,1.467,1.9,2.6,1.9,3.4l-0.5-0.5c-0.134,0.267-0.25,1.183-0.351,2.75c-0.066,1.267-0.399,2.1-1,2.5
				c-0.666,0.399-1.399,0.283-2.199-0.351c-0.801-0.633-1.117-1.35-0.95-2.149c0.233,0.1,0.6,0.316,1.1,0.649
				c0.467,0.3,0.834,0.5,1.101,0.601c-0.334-1.067-0.851-2.534-1.551-4.4C48.85,94.616,48.634,93,48.7,91.4z"/>
			<path style="fill-rule:evenodd;clip-rule:evenodd;fill:#2D3D03;" d="M55.7,99.15l-0.5,0.25c-0.934-0.367-1.467-0.7-1.601-1
				c-0.1-0.233-0.149-0.817-0.149-1.75c-0.033-0.434-0.15-1-0.351-1.7c-0.133-0.601-0.116-1.2,0.051-1.8
				c0.466-1.567,1.649-2.534,3.55-2.9c1.1-0.2,2.85-0.467,5.25-0.8c-0.566,1.333-1.517,2.267-2.851,2.8
				c-0.866,0.333-2.166,0.566-3.899,0.7c-0.134,1.399,0.666,2.816,2.399,4.25c1.767,1.467,2.601,2.983,2.5,4.55
				C59.7,101.583,59.05,101,58.15,100C57.517,99.3,56.7,99.017,55.7,99.15z"/>
			<path style="fill-rule:evenodd;clip-rule:evenodd;fill:#2D3D03;" d="M52.45,106.15l0.5,2L52.9,109.1
				c-1.134,0.434-2.101-0.383-2.9-2.449c-0.634-1.7-0.9-3.117-0.8-4.25c0.767,0.066,1.383,0.6,1.85,1.6
				C51.616,105.2,52.083,105.917,52.45,106.15z"/>
			<path style="fill-rule:evenodd;clip-rule:evenodd;fill:#2D3D03;" d="M45.45,75.15l0.25,0.5c0.166,0.433,0.267,0.983,0.3,1.649
				c0.066,0.834-0.05,1.384-0.35,1.65c-0.4,0.333-1.084,0.316-2.051-0.05c-0.966-0.4-1.433-0.884-1.399-1.45
				c0.434,0,1.066-0.101,1.899-0.3c-0.333-0.334-0.933-0.634-1.8-0.9c-0.666-0.233-1.116-0.684-1.35-1.35
				c-0.2-0.467-0.233-1.067-0.101-1.801c0.167-0.8,0.434-1.267,0.801-1.399C41.983,72.967,43.25,74.116,45.45,75.15z"/>
			<path style="fill-rule:evenodd;clip-rule:evenodd;fill:#2D3D03;" d="M51.95,57c0.967-0.867,1.633-1.45,2-1.75
				c-0.334,0.967-0.9,2.233-1.7,3.8c-0.8,1.6-1.35,2.8-1.65,3.6c-0.133,0.833-0.283,1.45-0.449,1.85
				c-0.233,0.667-0.65,0.816-1.25,0.45c-0.4-0.267-0.601-0.967-0.601-2.1c0-0.6,0.05-1.417,0.15-2.45l-1-0.25
				c0.3-0.333,0.666-0.6,1.1-0.8c0.267-0.133,0.717-0.35,1.351-0.65C50.467,58.367,51.15,57.8,51.95,57z"/>
			<path style="fill-rule:evenodd;clip-rule:evenodd;fill:#2D3D03;" d="M45,44.2c0.2-0.267,0.616-0.7,1.25-1.3
				c0.634-0.8,1.134-1.35,1.5-1.65c0.434-0.4,1.083-0.833,1.95-1.3c0.6-0.333,1.517-0.833,2.75-1.5
				c0.976-0.651,1.634-1.401,1.975-2.25L53.7,38.15c0.533-0.267,1.2-0.683,2-1.25c0.934-0.7,1.583-1.167,1.95-1.4
				c0.133,1.5-0.217,2.8-1.051,3.9c-0.433,0.6-1.85,1.417-4.25,2.45c-2.133,0.9-3.25,1.667-3.35,2.3c0.6,0.033,1.517,0.05,2.75,0.05
				c-0.4,0.966-1.434,1.583-3.1,1.85c-0.967,0.133-2.284,0.167-3.95,0.1C44.566,45.316,44.667,44.667,45,44.2z"/>
			<path style="fill-rule:evenodd;clip-rule:evenodd;fill:#2D3D03;" d="M45.4,35.4c0.166-0.267,0.433-0.45,0.8-0.55
				c0.5-0.133,0.833-0.25,1-0.35c0.6-0.434,1.434-1.3,2.5-2.6l-0.5,1.25c0.434-0.033,1.25,0.067,2.45,0.3
				c0.066,1.366-0.634,2.716-2.101,4.05c-1.399,1.267-2.767,1.9-4.1,1.9c0-0.3-0.066-0.983-0.2-2.05
				C45.184,36.35,45.233,35.7,45.4,35.4z"/>
			<path style="fill-rule:evenodd;clip-rule:evenodd;fill:#2D3D03;" d="M41.95,34.15V33.9c0.366,1.367-0.55,1.817-2.75,1.35
				c-2.067-0.467-3.367-1.067-3.9-1.8c0.2-0.134,1.583-0.017,4.15,0.35C40.65,33.967,41.483,34.083,41.95,34.15z"/>
			<path style="fill-rule:evenodd;clip-rule:evenodd;fill:#4C6905;" d="M60.7,30.15c-0.434,0.934-1.316,1.934-2.65,3
				c-0.3,0.233-1.416,1.017-3.35,2.35c-0.533,0.367-1.283,0.783-2.25,1.25c-1.167,0.566-1.934,0.95-2.3,1.15
				c-0.334,0.2-1,0.817-2,1.85c-0.801,0.767-1.534,1.233-2.2,1.4c-0.233-1.7,1.434-3.767,5-6.2c0.566-0.367,2.149-1.1,4.75-2.2
				c2.2-0.934,3.616-1.8,4.25-2.6H60.7z"/>
			<path style="fill-rule:evenodd;clip-rule:evenodd;fill:#4C6905;" d="M58.45,34.65L58.2,33.9c1.833-0.333,2.467,0.517,1.899,2.55
				c-0.533,2.033-1.566,3.116-3.1,3.25c0.566-0.767,0.95-1.534,1.15-2.3C58.316,36.733,58.417,35.816,58.45,34.65z"/>
			<path style="fill-rule:evenodd;clip-rule:evenodd;fill:#4C6905;" d="M49.45,31.4c-0.233,0.934-0.8,1.55-1.7,1.85
				c-0.566,0.167-1.417,0.217-2.55,0.15c-0.267-1.333,0.383-2.617,1.95-3.85c0.566-0.433,1.899-1.216,4-2.35
				c0,0.533-0.267,1.167-0.801,1.9c-0.566,0.733-0.866,1.333-0.899,1.8V31.4z"/>
			<path style="fill-rule:evenodd;clip-rule:evenodd;fill:#4C6905;" d="M40.9,33.4c-1.783-0.004-3.433-0.204-4.95-0.6
				c-1.2-0.3-2.767-0.85-4.7-1.65c0.7,0,2.05-0.017,4.05-0.05c1.8,0.033,3.083,0.216,3.85,0.55c0.367,0.167,0.733,0.483,1.1,0.95
				C40.496,32.949,40.713,33.215,40.9,33.4z"/>
			<path style="fill-rule:evenodd;clip-rule:evenodd;fill:#4C6905;" d="M34.45,42.4c-0.034,1.667-0.483,3.45-1.35,5.35
				c-1,2.167-2.2,3.383-3.6,3.65c-0.2-1.467,0.233-2.9,1.3-4.3c0.6-0.8,1.567-2.034,2.9-3.7L34.45,42.4z"/>
			<path style="fill-rule:evenodd;clip-rule:evenodd;fill:#4C6905;" d="M35.2,45.65c-0.041,0.147-0.132,0.373-0.275,0.675
				c0.006-0.142,0.014-0.283,0.025-0.425L35.2,45.65z M34.925,46.325c-0.152,1.918-0.244,3.36-0.275,4.325
				c-0.467,0.133-0.95,0.133-1.45,0c-0.133-0.667,0.1-1.5,0.7-2.5C34.358,47.373,34.7,46.765,34.925,46.325z"/>
			<path style="fill-rule:evenodd;clip-rule:evenodd;fill:#4C6905;" d="M23.2,54.4c-1.767,0.033-3.6-0.183-5.5-0.65
				c-2.467-0.6-4.05-1.45-4.75-2.55c5.9-0.434,9.65,0.466,11.25,2.7L23.2,54.4z"/>
			<path style="fill-rule:evenodd;clip-rule:evenodd;fill:#4C6905;" d="M36.45,63.9l0.5,1c0.9,1.866,1.533,3.283,1.9,4.25
				c0.667,1.733,0.533,3.183-0.4,4.35c-1.034-0.733-1.8-2.283-2.3-4.65C35.683,66.517,35.783,64.866,36.45,63.9z"/>
			<path style="fill-rule:evenodd;clip-rule:evenodd;fill:#4C6905;" d="M21.45,64.4l1.25,0.5c1.267,0.1,2.617,0.466,4.05,1.1
				c1.8,0.8,2.683,1.667,2.65,2.6c-0.6-0.1-1.367-0.399-2.3-0.899c-0.6-0.334-1.55-0.851-2.85-1.55
				C23.05,65.483,22.117,64.9,21.45,64.4z"/>
			<path style="fill-rule:evenodd;clip-rule:evenodd;fill:#4C6905;" d="M66.7,86.9l-2,2c-0.434,1.199-1.601,2.133-3.5,2.8
				c-1.834,0.666-3.334,0.75-4.5,0.25c0.2-0.4,0.666-0.733,1.399-1c0.434-0.134,1.034-0.334,1.801-0.601
				C62.934,89.116,65.2,87.967,66.7,86.9z"/>
			<path style="fill-rule:evenodd;clip-rule:evenodd;fill:#4C6905;" d="M56.45,97.4l1.5-0.5c1.233-0.7,2.7,0,4.399,2.1
				c1.667,2.066,2.301,3.767,1.9,5.1c-2.066-2.767-3.167-4.233-3.3-4.399C59.384,98,57.884,97.233,56.45,97.4z"/>
			<path style="fill-rule:evenodd;clip-rule:evenodd;fill:#4C6905;" d="M59.95,101.65c-0.127,0.149-0.201,0.308-0.226,0.475
				c-0.168-0.071-0.343-0.146-0.524-0.225L59.95,101.65z M60.05,103.2c-0.283-0.394-0.392-0.752-0.325-1.075
				c0.512,0.238,0.92,0.447,1.226,0.625c0.7,0.434,0.883,0.967,0.55,1.6C60.9,104.116,60.417,103.733,60.05,103.2z"/>
			<path style="fill-rule:evenodd;clip-rule:evenodd;fill:#4C6905;" d="M46.45,85.9c-0.867,3.566-1.134,6.183-0.8,7.85
				c0.199,1.066,0.983,2.2,2.35,3.4c1.4,1.199,2.2,2.183,2.4,2.949c-2.367-0.199-4.084-1.983-5.15-5.35
				c-1.033-3.233-0.884-5.767,0.45-7.6L46.45,85.9z"/>
			<path style="fill-rule:evenodd;clip-rule:evenodd;fill:#4C6905;" d="M47.7,87.9l1,1.5c0.899-0.134,1.75,0.233,2.55,1.1
				c0.3,0.3,0.866,1.116,1.7,2.45c-0.8-0.167-1.917-0.834-3.351-2C47.967,89.65,47.333,88.634,47.7,87.9z"/>
			<path style="fill-rule:evenodd;clip-rule:evenodd;fill:#4C6905;" d="M33.7,82.4c-2.6-0.634-3.767-1.534-3.5-2.7
				c0.833-0.167,1.7,0,2.6,0.5c0.9,0.533,1.367,1.184,1.4,1.95L33.7,82.4z"/>
			<path style="fill-rule:evenodd;clip-rule:evenodd;fill:#4C6905;" d="M24.7,77.15h0.5c0.6,0.866,1.133,1.8,1.6,2.8
				c0.667,1.366,0.95,2.35,0.85,2.95c-1.4-0.034-2.283-0.7-2.65-2C24.8,80.267,24.7,79.017,24.7,77.15z"/>
			<path style="fill-rule:evenodd;clip-rule:evenodd;fill:#4C6905;" d="M26.95,84.9l1,0.25c-1.667,0.033-3.083,0.55-4.25,1.55
				c-0.534,0.467-1.55,1.666-3.05,3.6c0-1.3,0.217-2.316,0.65-3.05c0.467-0.833,1.284-1.517,2.45-2.05
				C25.15,84.6,26.217,84.5,26.95,84.9z"/>
			<path style="fill-rule:evenodd;clip-rule:evenodd;fill:#4C6905;" d="M35.2,103.65l2.5,1.25c-1.633,1.333-4.083,0.933-7.35-1.2
				c-3.267-2.101-4.65-4.101-4.15-6c2.066,1.233,3.6,2.149,4.6,2.75C32.567,101.55,34.033,102.616,35.2,103.65z"/>
			<path style="fill-rule:evenodd;clip-rule:evenodd;fill:#4C6905;" d="M43.725,87.2c0.465-1.459,0.707-2.977,0.726-4.55l1.5,0.25
				c-0.101,0.199-0.267,0.633-0.5,1.3c-0.2,0.7-0.367,1.184-0.5,1.45C44.626,86.244,44.218,86.761,43.725,87.2
				c-0.383,1.17-0.908,2.304-1.574,3.399c-1.834,3-4.083,3.95-6.75,2.851c-0.033-0.934,0.75-1.867,2.35-2.8
				c0.867-0.5,2.033-1.101,3.5-1.801c1.233-0.767,1.934-1.216,2.1-1.35C43.477,87.405,43.602,87.305,43.725,87.2z"/>
			<path style="fill-rule:evenodd;clip-rule:evenodd;fill:#4C6905;" d="M58.225,51.275c-0.005-0.297-0.088-0.573-0.25-0.825
				l0.476,0.7C58.372,51.189,58.298,51.23,58.225,51.275z M52.9,53.95c1.321-0.677,3.096-1.568,5.324-2.675
				c0.001,1.077-1.073,2.418-3.225,4.025c-2.7,2-4.8,2.867-6.3,2.6C48.967,56.533,50.366,55.217,52.9,53.95z"/>
			<path style="fill-rule:evenodd;clip-rule:evenodd;fill:#4C6905;" d="M40.95,51.8c0.866,2,1.533,3.117,2,3.35l0.5,1
				c-1.334-0.566-2.55-1.467-3.65-2.7c-1.133-1.333-1.75-2.667-1.85-4C39.217,49.283,40.217,50.066,40.95,51.8z"/>
		</g>
	</g>
</g>
</svg>
