<?xml version="1.0" encoding="iso-8859-1"?>
<!-- Generator: Adobe Illustrator 15.1.0, SVG Export Plug-In . SVG Version: 6.00 Build 0)  -->
<!DOCTYPE svg PUBLIC "-//W3C//DTD SVG 1.1//EN" "http://www.w3.org/Graphics/SVG/1.1/DTD/svg11.dtd">
<svg version="1.1" id="FlashAICB" xmlns="http://www.w3.org/2000/svg" xmlns:xlink="http://www.w3.org/1999/xlink" x="0px" y="0px"
	 width="70.9px" height="83.7px" viewBox="0 0 70.9 83.7" style="enable-background:new 0 0 70.9 83.7;" xml:space="preserve">
<symbol  id="FlashAICB_x2F_Layer_10_x2F__x3C_Group_x3E__x5F_5" viewBox="0 -10.3 28.8 10.3">
	<g id="Layer_1_3_">
		<g>
			
				<radialGradient id="SVGID_1_" cx="421.1572" cy="91.8232" r="14.2011" gradientTransform="matrix(0.9999 0.0123 0.0238 -0.4806 -408.9082 31.04)" gradientUnits="userSpaceOnUse">
				<stop  offset="0" style="stop-color:#000000;stop-opacity:0.698"/>
				<stop  offset="1" style="stop-color:#000000;stop-opacity:0"/>
			</radialGradient>
			<path style="fill-rule:evenodd;clip-rule:evenodd;fill:url(#SVGID_1_);" d="M23.6-10.3c-0.8,0.167-1.317,0.25-1.55,0.25
				c-0.066-0.034-0.133-0.034-0.2,0c-0.133,0.066,0.1,0.083,0.7,0.05c0.534-0.033,0.767-0.033,0.7,0
				c-0.1,0.033-0.417,0.217-0.95,0.55C21.8-9.15,21.483-9,21.35-9c-0.533,0-1.083,0.133-1.65,0.4c-0.567,0.267-1.117,0.4-1.65,0.4
				c-0.566,0.4-1.017,0.7-1.35,0.9c-0.6,0.333-1.1,0.267-1.5-0.2c-1.233-0.667-1.983-1.05-2.25-1.15c-0.467-0.233-1.05-0.4-1.75-0.5
				c-0.267-0.033-0.434-0.35-0.5-0.95l-0.05,0.05c-0.1,0.033-0.883,0.417-2.35,1.15C7.533-8.567,6.7-8.4,5.8-8.4
				C5.433-8.433,4.883-8.55,4.15-8.75C4.783-9.117,5.067-9.3,5-9.3L4.1-8.75c-0.267,0.033-0.434-0.1-0.5-0.4
				c-0.067-0.167-0.133-0.467-0.2-0.9C2.767-9.883,2.067-9.767,1.3-9.7C0.9-9.233,0.583-8.65,0.35-7.95C0.117-7.35,0-6.85,0-6.45
				C0-4.683,1.4-3.167,4.2-1.9C7.033-0.633,10.433,0,14.4,0s7.367-0.633,10.2-1.9c2.8-1.267,4.2-2.783,4.2-4.55
				c0-0.833-0.5-1.65-1.5-2.45C26.267-9.7,25.033-10.167,23.6-10.3z"/>
			
				<use xlink:href="#FlashAICB_x2F_Layer_10_x2F__x3C_Path_x3E_"  width="22.979" height="4.954" x="0.021" y="-4.95" transform="matrix(1 0 0 1 2.6001 -4.75)" style="overflow:visible;opacity:0.2109;enable-background:new    ;"/>
		</g>
	</g>
</symbol>
<symbol  id="FlashAICB_x2F_Layer_10_x2F__x3C_Path_x3E_" viewBox="0.021 -4.95 22.979 4.954">
	<g id="Layer_1_2_">
		<path style="fill-rule:evenodd;clip-rule:evenodd;" d="M22.15-2.1c0.1,0,0.217-0.167,0.35-0.5c0.1-0.333,0.167-0.5,0.2-0.5
			c0.1-0.066,0.167-0.217,0.2-0.45L23-3.6l-0.55-0.5c-0.567-0.2-1.133-0.483-1.7-0.85H20.7l-0.1,0.7C20.533-3.917,19.05-4,16.15-4.5
			c-0.633,0.7-1.883,0.933-3.75,0.7c-2.066-0.367-3.433-0.55-4.1-0.55c-0.466,0-0.85-0.183-1.15-0.55C7.05-5.067,6.533-4.8,5.6-4.1
			C4.8-3.8,4-3.65,3.2-3.65C2.833-3.683,2.283-3.8,1.55-4L1.3-3.95L1.475-4C1.221-3.935,0.962-3.935,0.7-4L0.2-3.3
			C0.033-3.267-0.017-3.133,0.05-2.9C0.083-2.767,0.133-2.717,0.2-2.75C0.233-2.783,0.25-2.767,0.25-2.7
			c0,0.067,0.083,0.083,0.25,0.05c0.167,0,0.25,0.133,0.25,0.4L0.8-1.9L1-1.7l0.15,0.05h0.3C1.583-2.217,1.7-2.467,1.8-2.4
			c0.067,0.033,0.3,0.55,0.7,1.55c0.033,0,0.567,0.017,1.6,0.05C4.7-0.767,4.983-0.5,4.95,0c2.267,0.033,6.933-0.133,14-0.5
			c0.2,0,0.767-0.267,1.7-0.8C21.583-1.833,22.083-2.1,22.15-2.1z"/>
	</g>
</symbol>
<g>
	
		<use xlink:href="#FlashAICB_x2F_Layer_10_x2F__x3C_Group_x3E__x5F_5"  width="28.8" height="10.3" y="-10.3" transform="matrix(1 0 0 -1 22.7998 70.75)" style="overflow:visible;opacity:0.6914;enable-background:new    ;"/>
	<path style="fill-rule:evenodd;clip-rule:evenodd;fill:#4F6910;" d="M54.1,4.1c1.7,1.6,2.551,3.183,2.551,4.75
		c0,0.8-0.65,1.7-1.95,2.7c-1.134,0.867-2.134,1.35-3,1.45l0.05-1.05c0-1.067-0.35-1.85-1.05-2.35c-0.767-0.434-1.8-0.65-3.101-0.65
		l-2.85,0.2l-0.6-0.85c-0.334-0.333-0.5-1.033-0.5-2.1c0-0.9,0.433-1.817,1.3-2.75c1.033-1.134,2.416-1.7,4.149-1.7
		C50.7,1.75,52.366,2.533,54.1,4.1z M54.6,13.65c1.767,0,3.367,0.567,4.801,1.7c1.433,1.133,2.149,2.233,2.149,3.3
		c0,0.667-0.583,1.25-1.75,1.75l-2.25,0.8c-1.399,0.366-2.733,0.55-4,0.55c-1.667,0-2.95-0.45-3.85-1.35l-0.55-0.65
		c-0.4-0.6-0.65-1.317-0.75-2.15c0.732-0.567,1.55-0.95,2.449-1.15c0.367-0.967,0.601-1.833,0.7-2.6L54.6,13.65z M49.4,23.35
		c0,1.2-0.467,2.433-1.4,3.7l-0.3,0.45c-1.3,1.7-2.834,2.55-4.601,2.55c-0.399,0-1.633-0.65-3.699-1.95L37.7,27L37.1,27.65
		c-0.866,0.867-1.883,1.3-3.05,1.3c-0.933,0-1.85-0.567-2.75-1.7c-0.833-1.033-1.25-2.133-1.25-3.3c0-1.467,0.667-2.85,2-4.15
		l0.1-0.1v0.1c0,1.967,1.283,3.4,3.85,4.3l0.15,0.05c0.866,0.3,1.8,0.3,2.8,0c0.899-0.267,2.017-0.433,3.35-0.5l3.8-0.3l-0.25-0.4
		l1.051-0.3c0.666-0.667,1.25-1.367,1.75-2.1l0.199,0.25c0.233,0.333,0.367,0.7,0.4,1.1L49.4,23.35z M51.35,26.7
		c1.767-0.9,3.45-1.35,5.051-1.35c1.199,0,2.017,0.6,2.449,1.8l0.301,1.15c-2.534,1.133-4.351,2.167-5.45,3.1l-0.4,0.45
		c-1.333,1.433-2,3.283-2,5.55l0.25,7.75c0,0.566,0.533,1.267,1.601,2.1l1.8,1.15c1.666,0.966,2.933,1.449,3.8,1.449
		c1.233,0,2.467-0.5,3.7-1.5c0.733-0.633,1.416-1.35,2.05-2.149c1.167-1.467,1.983-2.867,2.45-4.2c1,0.167,1.816,0.517,2.45,1.05
		c1,0.767,1.5,1.717,1.5,2.851c0,1.733-0.5,3.25-1.5,4.55c-1.367,1.866-3.45,2.8-6.25,2.8l-1.2-0.1c-0.2,0.466-0.483,1-0.851,1.6
		c-1.3,2.1-2.75,3.15-4.35,3.15c-1.467,0-3.283-0.983-5.45-2.95l-0.5-0.5c-0.767-0.667-1.399-1.367-1.899-2.101
		c-0.2-0.333-0.417-0.75-0.65-1.25l0.3-0.25L47.5,50.9c-1.1,0-2.033-0.267-2.8-0.801L43.85,49.4l-0.1-0.15
		c-0.533-0.533-0.934-1.25-1.2-2.15c-0.2,0.267-0.399,0.4-0.6,0.4l-2.15-0.35c0,2.333-1.333,3.566-4,3.699L35.15,50.9l-2.05-0.25
		l-1.2-0.4c-0.733-0.333-1.433-0.833-2.1-1.5c-0.667-0.667-1.183-1.483-1.55-2.45L28,45.6c-0.133-0.6-0.233-1.25-0.3-1.949v-0.9
		c0.066-1.033,0.417-1.934,1.05-2.7l0.6-0.55l0.55-0.35l-0.55-0.7c-0.267-0.534-0.4-1.134-0.4-1.8c0-1.9,0.783-3.533,2.35-4.9
		l0.45-0.35c1.566-1.2,3.517-1.8,5.85-1.8c0.934,0,1.817,0.333,2.65,1l0.65,0.6c-4.067,0.8-6.55,3.083-7.45,6.85l-0.3,1.6l0.15,0.1
		l-0.1,0.7c0,1.333,1.433,2.833,4.3,4.5l3.85,1.899l0.5,0.2l0.65-0.1c-0.167-0.5-0.267-1.017-0.3-1.55L42.15,44.3c0-2,1-3.633,3-4.9
		c1-0.633,2-1.05,3-1.25L46.3,35.8c-0.333-0.533-0.5-1.5-0.5-2.9c0-1.566,0.917-3.05,2.75-4.45L51.35,26.7z M13.85,24.95
		c0.5,0.566,1.05,1.05,1.65,1.45c0.5,0.3,1.017,0.45,1.55,0.45c0.767,0,1.517-0.267,2.25-0.8l0.75-0.7l1.15,0.2h0.1
		c1,0.267,1.5,0.733,1.5,1.4c0,1.233-0.333,2.216-1,2.95c-0.833,0.934-2.283,1.4-4.35,1.4l-2.55-0.2l-0.55-0.15
		c-0.633-0.3-0.95-0.717-0.95-1.25l0.1-0.55c-0.9-0.3-1.833-0.983-2.8-2.05l-0.25-0.3c-1.267-1.5-1.9-3.083-1.9-4.75
		c0-0.667,0.45-1.6,1.35-2.8c0.8-1.033,1.55-1.767,2.25-2.2l1.4,2.3L13.2,19.8c-0.567,0.833-0.85,1.367-0.85,1.6
		C12.35,22.533,12.85,23.717,13.85,24.95z M25.75,49.7c0,1.033-0.184,2.033-0.55,3c-0.467,1.333-1.333,2.866-2.6,4.6l-0.45,0.55
		c-0.7,0.9-1.45,1.667-2.25,2.301c-1.2,0.933-2.3,1.399-3.3,1.399c-0.534,0-1.1-0.434-1.7-1.3c-0.566-0.833-0.85-1.5-0.85-2
		c0-0.6,0.117-1.283,0.35-2.05c0.333-1.167,1.033-2.384,2.1-3.65l1.3-1.649l0.4-0.65c0.267-0.634,0.433-1.066,0.5-1.3l0.7-1.2
		c1.133-1.733,2.333-2.6,3.6-2.6c0.9,0,1.617,0.566,2.15,1.699l0.35,0.95C25.667,48.3,25.75,48.934,25.75,49.7z M3.9,54.3
		c1.567,1.7,3.434,2.55,5.6,2.55l3.9-0.399c0.3,0.366,0.45,0.783,0.45,1.25c0,0.967-0.284,1.816-0.85,2.55
		c-0.7,0.866-1.767,1.3-3.2,1.3c-2.167,0-4.3-0.649-6.4-1.95C1.133,58.2,0,56.566,0,54.7l0.05-0.9c0.1-0.333,0.3-0.733,0.6-1.2
		L3.2,53.45L3.9,54.3z"/>
	<path style="fill-rule:evenodd;clip-rule:evenodd;fill:#3D5404;" d="M54.55,36.75c0,3.367-0.467,6.866-1.399,10.5
		c-1.067-0.833-1.601-1.533-1.601-2.1L51.3,37.4c0-2.267,0.667-4.117,2-5.55C54.133,34.15,54.55,35.783,54.55,36.75z M51.35,26.7
		l-2.8,1.75L48,27.05c0.934-1.267,1.4-2.5,1.4-3.7l-0.15-1.45h0.1L51.35,26.7z M50.8,54.45l-2.1,4.85l-2-1.75l2.2-5.2
		C49.4,53.083,50.033,53.783,50.8,54.45z M46.1,52.8c-1.166,1-2.283,2.066-3.35,3.2l-1.35,0.1C41.1,56.4,40.8,56.6,40.5,56.7
		l-0.9,0.05l-0.149,1.6c0.399,0.2,0.7,0.45,0.899,0.75C39.45,60.866,39,63.3,39,66.4l0.1,8.199c0.033,0,0.067-0.066,0.101-0.199
		l0.3-1.051c0.1-0.366,0.233-0.699,0.4-1L43.6,64.3l2.45-0.1L45.4,65.35c-0.101,0.167-0.384,0.7-0.851,1.601l-1.25,3.3l-0.2,1.15
		l-0.05,0.05v0.1c-0.467,2.467-0.733,4.717-0.8,6.75l-6.2,1.5l-1.35-8.25c-0.5-2.833-1.05-5.467-1.65-7.899
		c-0.133,2-0.2,4.633-0.2,7.899l0.1,4.5l2,4.05l-1.6,0.4H33.3l-5.45-9.55V70.9l-3.1-4.65l-4.85-6.1c0.8-0.634,1.55-1.4,2.25-2.301
		c0.733,1,1.733,2.467,3,4.4L31,72.35l-0.65-4.85l0.6-0.4c0.933-0.733,1.4-2.066,1.4-4c0-1.199-0.117-2.05-0.35-2.55
		c-0.1-0.267-0.417-0.7-0.95-1.3l-0.1-0.05L31.4,57.1l-3.15-10.8c0.367,0.967,0.883,1.783,1.55,2.45
		c0.667,0.667,1.367,1.167,2.1,1.5l0.55,2.6l0.65-2.199l2.05,0.25L35.8,50.85L35.4,51.7c-0.434,1.066-0.784,2.1-1.05,3.1
		c-0.333,1.267-0.55,2.233-0.65,2.9l-0.1,0.6l2.1,9.9c0.033-1.967,0.133-3.65,0.3-5.05L36.15,62c0.199-1.634,0.649-3.167,1.35-4.6
		l0.1-0.25c0.334-0.767,0.783-1.534,1.351-2.301L39.8,53.7c1.267-1.767,2.583-3.25,3.95-4.45l0.1,0.15L44.7,50.1
		c0.767,0.534,1.7,0.801,2.8,0.801l1.05-0.051L46.1,52.8z M22.95,25.05c0.8,0.667,1.566,1.75,2.3,3.25l2.05,4.85
		c0.833,2.367,1.517,4.483,2.05,6.35l-0.6,0.55c-0.633,0.767-0.983,1.667-1.05,2.7v0.9C27.767,44.35,27.867,45,28,45.6l-0.85-2.649
		l-0.1-0.101V42.7l-2.45-6.6c-0.967-2.4-1.9-4.467-2.8-6.2c0.667-0.733,1-1.717,1-2.95c0-0.667-0.5-1.134-1.5-1.4h-0.1v-0.7
		c0.1-0.5,0.466-0.583,1.1-0.25L22.95,25.05z"/>
	<path style="fill-rule:evenodd;clip-rule:evenodd;fill:#304203;" d="M20.35,30.15l1-3.65c2.033-0.167,3.816,1.85,5.35,6.05
		c1.333,3.633,1.883,6.583,1.65,8.85c-0.4-0.767-0.767-2-1.1-3.7c-0.367-1.667-0.75-2.85-1.15-3.55c-0.467-0.8-1.417-1.5-2.85-2.1
		C21.717,31.417,20.75,30.783,20.35,30.15z"/>
	<path style="fill-rule:evenodd;clip-rule:evenodd;fill:#304203;" d="M19.65,60.15L20,58.5c-0.067-0.5-0.05-0.934,0.05-1.3
		c1.3-0.334,2.667,0.533,4.1,2.6c1.233,1.8,1.95,3.45,2.15,4.95c-0.367-0.366-1.6-1.134-3.7-2.3
		C20.8,61.45,19.816,60.684,19.65,60.15z"/>
	<path style="fill-rule:evenodd;clip-rule:evenodd;fill:#304203;" d="M36,61.85c1.967,7.634,2.217,12.467,0.75,14.5
		c-1.033-0.833-1.55-3.033-1.55-6.6c0.033-4.4-0.033-6.934-0.2-7.6c-0.233-0.834-1.283-3.233-3.15-7.2c-1.4-3-2.017-5.483-1.85-7.45
		l0.35-0.35c0.267,0.166,0.883,0.833,1.85,2c0.7,0.833,1.5,1.183,2.4,1.05c0.133,0.733,0.1,1.85-0.1,3.35
		c-0.167,1.3-0.133,2.4,0.1,3.3L36,61.85z"/>
	<path style="fill-rule:evenodd;clip-rule:evenodd;fill:#304203;" d="M48,49.2c0.1,0.967-0.384,2.233-1.45,3.8
		c-1.3,1.667-2.167,2.8-2.6,3.4c-1.134,1.899-2.05,3.35-2.75,4.35c-1.2,1.8-2.384,2.934-3.55,3.4c0.566-3.233,1.433-5.817,2.6-7.75
		c0.333-0.534,1.167-1.584,2.5-3.15c0.833-1.333,0.4-2.033-1.3-2.1c0.399-0.534,1.033-1.301,1.899-2.301h0.301
		C44.616,48.816,46.066,48.934,48,49.2z"/>
	<path style="fill-rule:evenodd;clip-rule:evenodd;fill:#304203;" d="M48,51.85l1-0.699c1.733-1.067,2.267-0.284,1.6,2.35
		c-0.366,1.4-0.983,3.05-1.85,4.95c-0.5,1.166-1.033,2.783-1.6,4.85c-0.667,2.5-1.134,4.134-1.4,4.9C45.45,69,45,70.384,44.4,72.35
		c-0.567,1.834-1.034,3.217-1.4,4.15c-0.634,1.5-1.267,2.45-1.9,2.85c-0.6,0.367-1.733,0.517-3.399,0.45
		c-0.033-0.566,0.45-1.566,1.45-3c1.366-1.934,2.066-2.95,2.1-3.05c1.133-2.1,1.934-3.85,2.4-5.25c0.199-0.6,0.533-1.717,1-3.35
		c0.399-1.4,0.75-2.517,1.05-3.351c1.1-2.967,1.683-4.566,1.75-4.8C47.917,55.3,48.1,53.583,48,51.85z"/>
	<path style="fill-rule:evenodd;clip-rule:evenodd;fill:#4E6B04;" d="M25.35,35.15c0.133,0.667,0.55,1.934,1.25,3.8
		c0.6,1.566,0.933,2.85,1,3.85c-1.733,0.434-2.9-0.467-3.5-2.7c-0.333-1.2-0.583-2.934-0.75-5.2c0.1-0.033,0.316-0.117,0.65-0.25
		c0.3-0.1,0.517-0.15,0.65-0.15L25.35,35.15z"/>
	<path style="fill-rule:evenodd;clip-rule:evenodd;fill:#4E6B04;" d="M41.35,54.15C39.917,55.684,39,56.733,38.6,57.3
		c-0.933,1.233-1.55,2.467-1.85,3.7c-0.233-1.5,0.2-3.384,1.3-5.65c1.2-2.433,2.517-3.716,3.95-3.85L41.35,54.15z"/>
	<path style="fill-rule:evenodd;clip-rule:evenodd;fill:#3D5405;" d="M51.1,26.05c0.434-1.133,1.551-2.25,3.351-3.35
		c0.899-0.534,1.933-1.034,3.1-1.5l4.601-1.4v1.3c0,2.667-0.634,4.583-1.9,5.75C59.816,27.217,59.4,27.5,59,27.7l-0.15-0.55
		c-0.433-1.2-1.25-1.8-2.449-1.8c-1.601,0-3.284,0.45-5.051,1.35L51.1,26.05z M41.95,47.5c0.2,0,0.399-0.134,0.6-0.4
		c0.267,0.9,0.667,1.617,1.2,2.15c-1.367,1.2-2.684,2.684-3.95,4.45l-0.55-0.55c-0.333-0.434-0.5-0.834-0.5-1.2
		c0-0.467,0.566-1.667,1.7-3.601L41,47.4L41.95,47.5z M38.2,54.05l0.75,0.8c-0.567,0.767-1.017,1.534-1.351,2.301l-0.1,0.25
		c-0.7,1.433-1.15,2.966-1.35,4.6L36,63.15c-0.434-0.534-0.884-1.317-1.35-2.351c-0.6-1.333-0.917-2.366-0.95-3.1
		c0.1-0.667,0.316-1.634,0.65-2.9l0.25-0.6c0.633-1.334,0.9-2.167,0.8-2.5C36.066,52.4,37,53.184,38.2,54.05z M42.75,56
		c1.2,0,2.517,0.517,3.95,1.55l2,1.75l1.8,1.851c0.866,0.8,1.5,1.283,1.9,1.449C50.3,63.467,48.184,64,46.05,64.2l-2.45,0.1
		c-0.866-0.033-1.633-0.233-2.3-0.6c-0.833-0.5-1.25-1.217-1.25-2.15l0.4-1.95l-0.101-0.5c-0.199-0.3-0.5-0.55-0.899-0.75l0.149-1.6
		l0.9-0.05c0.3-0.101,0.6-0.3,0.9-0.601L42.75,56z M53.65,64.5c0.232,1.533-0.467,3.3-2.101,5.3c-1.633,2-3.3,3-5,3
		c-0.7,0-1.616-0.316-2.75-0.95l-0.75-0.399l0.05-0.05l0.2-1.15l1.25-3.3c0.533-0.367,1.283-0.75,2.25-1.15
		c1.533-0.533,3.75-0.967,6.65-1.3H53.65z M26.2,17v0.15c0,0.633,0.116,1.317,0.35,2.05l0.7,1.9c0.733,1.767,1.1,3,1.1,3.7
		c0,0.8-0.3,1.55-0.9,2.25c-0.367,0.5-0.884,0.867-1.55,1.1l-0.65,0.15c-0.733-1.5-1.5-2.583-2.3-3.25L22.3,24.6l-0.75-2.75
		l-0.2-1.15l1.45-1.9c1.233-1.433,2.284-2.417,3.15-2.95L26.2,17z M13.5,29.15l-0.1,0.55c0,0.533,0.317,0.95,0.95,1.25l-2,0.15
		c-1.5,0-2.883-0.434-4.15-1.3c-0.934-0.667-1.684-1.433-2.25-2.3l4.5-0.7l0.25,0.3C11.667,28.167,12.6,28.85,13.5,29.15z
		 M13.5,34.2l1.95,0.75c0.9,0.267,1.683,0.4,2.35,0.4l3.5-0.4c1.3,0,2.4,0.383,3.3,1.15l2.45,6.6v0.149h-0.1l-0.9,0.301H26
		c-0.934,0.399-2.367,0.616-4.3,0.649c-1.967,0.066-3.733-1.184-5.3-3.75l-1.55-3.25C14.383,35.633,13.933,34.767,13.5,34.2z
		 M30.05,27.9l1.45,2.65l0.25,0.85l-0.45,0.35c-1.566,1.367-2.35,3-2.35,4.9c0,0.667,0.133,1.267,0.4,1.8l0.55,0.7l-0.55,0.35
		c-0.534-1.867-1.217-3.983-2.05-6.35l-0.8-2l0.6-0.85C27.733,29.566,28.717,28.767,30.05,27.9z M29.05,48.85l2,6.9L28.6,54.9
		c0.566,1.767,1.316,3.166,2.25,4.199l0.1,0.101l0.1,0.05c0.534,0.6,0.85,1.033,0.95,1.3c0.233,0.5,0.35,1.351,0.35,2.55
		c0,1.934-0.467,3.267-1.4,4l-0.6,0.4l-1.6,0.75l-3.6-6V61.1c0-1.267,0.35-2.449,1.05-3.55l1.85-2.8l-0.1-0.05
		c-1.333-0.5-2.25-1.167-2.75-2c0.366-0.967,0.55-1.967,0.55-3c0-0.767-0.083-1.4-0.25-1.9C26.8,48,27.983,48.35,29.05,48.85z
		 M24.75,66.25l3.1,4.65L27.5,71.35l-1.35,1.301c-1.6,1.366-3.117,2.05-4.55,2.05c-2.534,0-4.684-0.851-6.45-2.55
		c-1.267-1.2-2.2-2.684-2.8-4.45L13,67.6c0.6-0.133,1.717-0.566,3.35-1.3c0.8-0.366,1.716-0.733,2.75-1.1l1.35-0.25
		C22.017,64.95,23.45,65.384,24.75,66.25z M35.05,73.45l0.75,4.45l-1.65,0.5l-1.2-2.351l-0.1-3.2
		C33.783,72.917,34.517,73.116,35.05,73.45z M29.2,73.15l3.05,5.399c-1.633-0.133-3.133-0.583-4.5-1.35
		c-1.767-1-2.567-2.184-2.4-3.55L29.2,73.15z"/>
	<path style="fill-rule:evenodd;clip-rule:evenodd;fill:#304203;" d="M23.7,65.85c0.633,0.067,1.366,0.5,2.2,1.301
		c0.833,0.833,1.25,1.55,1.25,2.149l0.5-0.649c0.167,0.866,0.233,1.466,0.2,1.8c-0.1,0.333-0.4,0.783-0.9,1.35
		c-0.9,1.033-1.45,1.65-1.65,1.851c-0.633,0.533-1.35,0.866-2.15,1c-1.4,0.233-2.55,0.267-3.45,0.1c-1.167-0.2-2.167-0.717-3-1.55
		c0.4-0.066,1-0.066,1.8,0s1.4,0.05,1.8-0.05c1.467-0.334,2.583-0.834,3.35-1.5c0.567-0.534,0.75-1.051,0.55-1.551
		c-0.2-0.466-0.667-0.783-1.4-0.949c-1.1-0.101-1.917-0.184-2.45-0.25c-0.934-0.101-1.7-0.4-2.3-0.9
		c0.534-0.233,1.25-0.35,2.15-0.35c0.533,0,1.3,0,2.3,0c0.733-0.034,1.167-0.15,1.3-0.351C23.9,67.134,23.867,66.65,23.7,65.85z"/>
	<path style="fill-rule:evenodd;clip-rule:evenodd;fill:#304203;" d="M28.85,64.3c0.466,0.134,0.883-0.05,1.25-0.55
		c0.4-0.6,0.75-0.9,1.05-0.9c0.267,0.767,0.333,1.551,0.2,2.351c-0.167,0.833-0.517,1.533-1.05,2.1c-0.433,0.5-1.133,0.851-2.1,1.05
		c-1.1,0.2-1.55-0.149-1.35-1.05l0.65-0.149c-0.267-0.334-0.567-0.95-0.9-1.851c-0.234-0.654-0.451-1.171-0.65-1.55
		c0.139,0.167,0.323,0.317,0.55,0.45c0.4,0.233,0.75,0.233,1.05,0c0.233-0.167,0.383-0.65,0.45-1.45c0.066-0.866,0.167-1.4,0.3-1.6
		c0.1,0.366,0.2,0.883,0.3,1.55C28.7,63.467,28.783,64,28.85,64.3z"/>
	<path style="fill-rule:evenodd;clip-rule:evenodd;fill:#304203;" d="M36.35,75.8l-0.5,0.2c0.033,0.733-0.333,1.25-1.1,1.55
		c-0.567,0.233-1.267,0.316-2.1,0.25c-1.167-0.033-1.433-0.267-0.8-0.7c1.167-0.767,1.783-1.199,1.85-1.3
		c-0.2-0.233-0.733-0.399-1.6-0.5c-0.8-0.1-1.284-0.366-1.45-0.8c0.867-0.066,2.2-0.083,4-0.05c-0.066-0.2-0.117-0.566-0.15-1.101
		c0.566,0.067,1.033,0.351,1.4,0.851C36.267,74.7,36.417,75.233,36.35,75.8z"/>
	<path style="fill-rule:evenodd;clip-rule:evenodd;fill:#304203;" d="M31.15,71.8c0-1.566,0.434-2.616,1.3-3.149
		c0.133,1.966,0.133,3.399,0,4.3c-1.434,0.133-2.4,0.3-2.9,0.5c-0.066-0.033-0.133-0.184-0.2-0.45l-0.7-0.2
		c-0.033-0.1-0.066-0.3-0.1-0.6c0.1,0,0.3-0.017,0.6-0.05c0.067-0.2,0.15-0.534,0.25-1c0.1-0.367,0.133-0.7,0.1-1
		c0.267,0.133,0.55,0.399,0.85,0.8C30.717,71.384,30.983,71.667,31.15,71.8z"/>
	<path style="fill-rule:evenodd;clip-rule:evenodd;fill:#304203;" d="M32.15,78.3c0.133,0.066,0.65,0.134,1.55,0.2
		c0.566,0.033,0.9,0.3,1,0.8c0.133,0.733-0.15,1.017-0.85,0.851c-0.733-0.167-1.067-0.551-1-1.15L32.15,78.3z"/>
	<path style="fill-rule:evenodd;clip-rule:evenodd;fill:#304203;" d="M45.15,59.95c-1.534,0-2.684,0.017-3.45,0.05
		c-0.2,0.7,0.05,1.2,0.75,1.5c0.866,0.333,1.333,0.6,1.399,0.8c0.167,0.334-0.05,0.533-0.649,0.601
		c-0.434,0.033-0.884,0.017-1.351-0.051c-1.199-0.199-1.933-0.8-2.199-1.8c-0.233-0.833-0.117-1.8,0.35-2.899l0.35-0.65
		c0,1.134,0.717,1.767,2.15,1.9C44.133,59.533,45.017,59.717,45.15,59.95z"/>
	<path style="fill-rule:evenodd;clip-rule:evenodd;fill:#304203;" d="M51.5,62.65L51.35,62.8c-1.1,0-1.8-0.017-2.1-0.05
		c-0.9-0.134-1.434-0.45-1.6-0.95C48.95,61.634,50.233,61.917,51.5,62.65z"/>
	<path style="fill-rule:evenodd;clip-rule:evenodd;fill:#304203;" d="M53,64.65L52.65,65.3c0.066,0.033,0.149,0.05,0.25,0.05
		c0.033,0,0.066,0.034,0.1,0.101c-0.4,1-0.7,1.733-0.9,2.2c-0.366,0.767-0.85,1.383-1.449,1.85c-0.2,0.167-1.15,0.583-2.851,1.25
		c-1.467,0.533-2.149,0.95-2.05,1.25c-0.3-0.134-1.217-0.316-2.75-0.55c-0.033-0.5,0.566-0.917,1.8-1.25
		c0.667-0.167,1.517-0.4,2.55-0.7C48.85,68.667,50.733,67.05,53,64.65z"/>
	<path style="fill-rule:evenodd;clip-rule:evenodd;fill:#304203;" d="M49.65,65.3L49.35,66c-0.8,0.267-1.533,0.6-2.199,1
		c-0.034,0.033-0.584,0.45-1.65,1.25c-0.7,0.533-1.3,0.767-1.8,0.7c-0.467-1.467,0.166-2.5,1.899-3.101
		C46.667,65.483,48.017,65.3,49.65,65.3z"/>
	<path style="fill-rule:evenodd;clip-rule:evenodd;fill:#304203;" d="M22.2,41.25c-1.9-0.7-2.967-1.483-3.2-2.35
		c0.167,0,0.733,0.217,1.7,0.65c0.833,0.333,1.45,0.35,1.85,0.05c0.5-0.367,0.45-0.75-0.15-1.15c-0.5-0.333-1.083-0.55-1.75-0.65
		c0.4,0.034,1.333-0.017,2.8-0.15c1.267,0,2,0.333,2.2,1l0.5,0.35c0.167,0.5,0.217,1.483,0.15,2.95
		C25.3,42.116,23.933,41.883,22.2,41.25z"/>
	<path style="fill-rule:evenodd;clip-rule:evenodd;fill:#304203;" d="M26.5,36.5c-0.033-1.067,0.417-2.4,1.35-4
		c-0.067,1.2-0.017,2.017,0.15,2.45c0.5,0.066,0.816,0.417,0.95,1.05c0.133,0.5,0.15,1.033,0.05,1.6
		c-0.133,0.833-0.483,1.367-1.05,1.6c-0.567,0.267-0.767-0.2-0.6-1.4L26.5,36.5z"/>
	<path style="fill-rule:evenodd;clip-rule:evenodd;fill:#304203;" d="M51.4,26.45c-0.023,0.065-0.04,0.132-0.051,0.2L50.15,26.5
		C50.453,26.5,50.869,26.483,51.4,26.45c0.277-1.2,1.428-2.1,3.449-2.7c0.233-0.1,1.834-0.4,4.801-0.9
		c-0.801,0.7-1.217,1.2-1.25,1.5c-0.034,0.2,0.017,0.383,0.149,0.55c0.167,0.167,0.25,0.3,0.25,0.4
		c0.066,1.233,0.017,2.05-0.149,2.45c-0.467-1.067-1.733-1.6-3.801-1.6C53.4,26.295,52.25,26.395,51.4,26.45z"/>
	<path style="fill-rule:evenodd;clip-rule:evenodd;fill:#304203;" d="M49.5,22.35c0.066,0.933-0.083,1.633-0.45,2.1
		c-0.366,0.433-1,0.733-1.899,0.9c-0.534,0.066-0.934,0.117-1.2,0.15c-0.434,0.066-0.8,0.183-1.101,0.35
		c-0.366,0.2-0.683,0.583-0.949,1.15c-0.301,0.633-0.551,1.033-0.75,1.2c-0.634-0.833-1.417-1.434-2.351-1.8
		c-1.1-0.4-2.05-0.25-2.85,0.45c-0.167,0.133-0.417,0.466-0.75,1c-0.267,0.4-0.601,0.683-1,0.85c-0.4,0.133-1.184,0.167-2.35,0.1
		c0.3-0.1,0.7-0.2,1.2-0.3c0.367-0.133,0.634-0.417,0.8-0.85c0.167-0.433,0.15-0.9-0.05-1.4c-0.167-0.5-0.45-0.817-0.85-0.95
		c-0.333-0.1-0.934,0.083-1.8,0.55c-0.533,0.3-0.917,0.033-1.15-0.8c-0.1-0.367-0.117-0.917-0.05-1.65c0.066-0.733,0.2-1.2,0.4-1.4
		l6.8-1c1.466-0.067,3.199,0.066,5.199,0.4C45.517,21.6,47.233,21.917,49.5,22.35z"/>
	<path style="fill-rule:evenodd;clip-rule:evenodd;fill:#304203;" d="M55.75,17.3c-1.733,0.167-2.367,0.784-1.9,1.85
		c0.334,0.8,1.367,1.184,3.101,1.15c2.033,0,3.166,0.067,3.399,0.2c-2.566,0.7-4.517,0.967-5.85,0.8l0.15,0.5
		c-1.034,0-1.567,0-1.601,0c-0.434-0.1-0.733-0.417-0.899-0.95c-0.134-0.4-0.184-0.983-0.15-1.75c0.033-0.434,0.083-1.034,0.15-1.8
		c0.066-1.167,0.416-2.066,1.05-2.7c0.767-0.7,1.7-0.784,2.8-0.25c-0.1,0.133-0.517,0.4-1.25,0.8c-0.5,0.267-0.733,0.65-0.7,1.15
		c0.333,0.1,0.783,0.15,1.351,0.15c0.633,0,1.066,0.017,1.3,0.05c0.399,0.033,0.833,0.15,1.3,0.35c0.3,0.1,0.733,0.25,1.3,0.45
		C57.833,17.233,56.65,17.233,55.75,17.3z"/>
	<path style="fill-rule:evenodd;clip-rule:evenodd;fill:#304203;" d="M49.5,2.65c0.533,0.033,1.033,0.417,1.5,1.15
		c0.667,1,1.066,1.55,1.2,1.65C52.6,5.816,52.85,6,52.95,6c-0.067,0.133-0.117,0.467-0.15,1c0,0.767,0.05,1.267,0.15,1.5
		c0.3,0.467,0.733,0.783,1.3,0.95c0.533,0.133,1.066,0.116,1.6-0.05c-0.5,1.133-0.949,1.917-1.35,2.35
		c-0.733,0.833-1.517,0.967-2.35,0.4L50,9.65c-1.667-0.767-2.5-2.117-2.5-4.05c-0.033-0.7,0.1-1.35,0.4-1.95
		C48.267,2.917,48.8,2.583,49.5,2.65z"/>
	<path style="fill-rule:evenodd;clip-rule:evenodd;fill:#304203;" d="M26.15,16.15c0,1,0.184,1.917,0.55,2.75
		c0.566,0.967,1,1.783,1.3,2.45c0.4,0.9,0.667,1.783,0.8,2.65c0.2,1.2,0.05,2.083-0.45,2.65c-0.6,0.733-1.417,1.017-2.45,0.85
		s-1.767-0.667-2.2-1.5c-0.4-0.733-0.5-1.9-0.3-3.5c0.167-1.533,0.483-2.633,0.95-3.3c0.066,0.933,0.15,1.716,0.25,2.35
		c0.2,1.233,0.5,1.434,0.9,0.6c0.233-0.467,0.316-1.283,0.25-2.45c-0.033-1.3,0-2.15,0.1-2.55L26.15,16.15z"/>
	<path style="fill-rule:evenodd;clip-rule:evenodd;fill:#304203;" d="M16.15,29.5c0.167-0.567,0.55-0.85,1.15-0.85l0.05-0.5
		l2.15-1.35c0.633-0.167,1.017,0,1.15,0.5c0.133,0.4,0.083,0.9-0.15,1.5c-0.1,0.367-0.15,0.567-0.15,0.6
		c-0.034,0-0.2,0.083-0.5,0.25c-0.3,0.167-0.917,0.217-1.85,0.15C17.233,29.767,16.617,29.667,16.15,29.5z"/>
	<path style="fill-rule:evenodd;clip-rule:evenodd;fill:#304203;" d="M11.85,28l2,0.15l-0.05,2.8c-0.966,0.066-1.783,0.033-2.45-0.1
		c-0.867-0.167-0.767-0.517,0.3-1.05c-1.4-0.333-1.833-0.667-1.3-1C10.683,28.6,11.183,28.333,11.85,28z"/>
	<path style="fill-rule:evenodd;clip-rule:evenodd;fill:#304203;" d="M47.65,33c-0.034-0.733,0.383-1.533,1.25-2.4
		c0.699-0.7,1.517-1.284,2.449-1.75c0.667-0.267,1.301-0.684,1.9-1.25c0.833-0.767,0.816-1.3-0.05-1.6c0.8-0.033,1.333,0.1,1.6,0.4
		c0.3,0.3,0.333,0.817,0.101,1.55c0.399,0.033,1.017,0.066,1.85,0.1c0.667,0.133,1.033,0.5,1.1,1.1c0.033,0.5-0.233,1.067-0.8,1.7
		c-0.667,0.667-1.133,1.117-1.399,1.35c-1.034,1.1-2.101,1.783-3.2,2.05c-0.601,0.167-1.917,0.25-3.95,0.25L47.65,33z"/>
	<path style="fill-rule:evenodd;clip-rule:evenodd;fill:#304203;" d="M38,49.95c-0.733,0.7-1.733,0.816-3,0.35
		c-1.167-0.434-2-1.333-2.5-2.7c-0.434-1.333-0.434-2.6,0-3.8V44c-0.067,1,0.15,1.9,0.65,2.7c0.567,0.866,1.333,1.35,2.3,1.45
		c0.5,0.066,1.133-0.417,1.899-1.45c0.634-0.834,1.167-0.917,1.601-0.25c0.267,0.399,0.267,1.017,0,1.85
		C38.684,49.033,38.366,49.583,38,49.95z"/>
	<path style="fill-rule:evenodd;clip-rule:evenodd;fill:#304203;" d="M16.35,58.8l2.8-10c0.267-1.033,0.917-1.5,1.95-1.399
		c0.933,0.1,1.633,0.566,2.1,1.399c0.667,1.134,0.65,2.8-0.05,5c-0.367,1.2-1.283,2.467-2.75,3.8
		C18.733,59.1,17.383,59.5,16.35,58.8z"/>
	<path style="fill-rule:evenodd;clip-rule:evenodd;fill:#304203;" d="M15.25,55.35c1.5,1.2,1.933,2.384,1.3,3.551
		c-0.167,0.267-0.35,0.433-0.55,0.5c-0.233,0.066-0.45,0.149-0.65,0.25c-0.6,0.399-1.05,0.683-1.35,0.85
		c-0.633,0.4-1.45,0.634-2.45,0.7c-1.133-0.033-2-0.05-2.6-0.05c-0.367,0.033-0.684,0.066-0.95,0.1c-0.467,0-0.75-0.033-0.85-0.1
		c-0.233-0.233-0.233-0.434,0-0.601c0.2-0.133,0.417-0.2,0.65-0.2c-0.2-0.5-0.883-0.916-2.05-1.25C4.45,58.767,3.633,58.4,3.3,58
		c-0.4-0.5-0.617-1.15-0.65-1.95C2.617,55.316,2.733,54.634,3,54l8.65-0.85C13.45,54.116,14.65,54.85,15.25,55.35z"/>
	<path style="fill-rule:evenodd;clip-rule:evenodd;fill:#304203;" d="M66.35,42.95c0.301,0.033,0.733,0.033,1.301,0
		c0.466,0,0.85,0.116,1.149,0.35c0.4,0.3,0.617,0.733,0.65,1.3c0.033,0.2-0.017,0.7-0.15,1.5c-0.1,0.733-0.3,1.334-0.6,1.801
		c-0.4,0.533-0.75,1.017-1.05,1.449c-0.667,1-0.417,1.617,0.75,1.851c-0.4,0.434-0.983,0.8-1.75,1.1
		c-0.733,0.3-1.434,0.467-2.101,0.5c-0.3,0.033-0.684-0.033-1.149-0.2c-0.5-0.166-0.867-0.25-1.101-0.25
		c-0.733,0.034-1.649,0.367-2.75,1c-1.133,0.634-1.866,1.25-2.2,1.851c-0.166-0.066-0.833-0.533-2-1.4c-0.833-0.6-1.5-0.866-2-0.8
		c-0.1,0.767,0.067,1.533,0.5,2.3c0.267,0.467,0.7,1.134,1.301,2c-1.067-0.166-2.051-0.583-2.95-1.25
		c-0.967-0.7-1.65-1.55-2.05-2.55c-0.5-1.233-0.584-2.116-0.25-2.65c0.333-0.533,1.066-0.416,2.199,0.351
		c-0.366-0.467-0.517-0.983-0.449-1.55L59.85,42.8C61.283,42.833,63.45,42.884,66.35,42.95z"/>
	<path style="fill-rule:evenodd;clip-rule:evenodd;fill:#304203;" d="M47.35,44.8l2.65-1c0.7,1.733,0.967,3.467,0.8,5.2
		c-0.566,0.033-1.1-0.05-1.6-0.25c-0.567-0.3-1.033-0.533-1.4-0.7c-0.5-0.267-1.066-0.434-1.7-0.5c-0.767-0.033-1.35-0.066-1.75-0.1
		c0.2-0.601,0.851-0.867,1.95-0.8C46.167,45.45,46.517,44.833,47.35,44.8z"/>
	<path style="fill-rule:evenodd;clip-rule:evenodd;fill:#4F6910;" d="M22.85,67.3c-1.267,0-2.983,0.05-5.15,0.15
		c-2.4,0.133-4.117,0.2-5.15,0.2c1.733-0.467,3.034-0.95,3.9-1.45c0.366-0.2,0.833-0.483,1.4-0.851c0.5-0.267,1-0.433,1.5-0.5
		c0.733-0.1,1.617,0.034,2.65,0.4c1.233,0.4,1.617,0.917,1.15,1.55L22.85,67.3z"/>
	<path style="fill-rule:evenodd;clip-rule:evenodd;fill:#4F6910;" d="M23.15,69.65l-1.5,0.5c-0.333,0.866-1.25,1.116-2.75,0.75
		c-1.533-0.367-2.2-0.884-2-1.551C18.267,69.25,20.35,69.35,23.15,69.65z"/>
	<path style="fill-rule:evenodd;clip-rule:evenodd;fill:#4F6910;" d="M28,55.15v0.35c0,1.233-0.167,2.616-0.5,4.15
		c-0.367,1.633-0.817,2.966-1.35,4c-0.566-0.334-0.867-1-0.9-2c-0.033-0.834,0.083-1.617,0.35-2.351c0.133-0.333,0.583-1,1.35-2
		C27.583,56.467,27.933,55.75,28,55.15z"/>
	<path style="fill-rule:evenodd;clip-rule:evenodd;fill:#4F6910;" d="M28.15,59.8l0.2-0.3c0,0.3,0.117,0.983,0.35,2.05
		c0.133,0.8,0.15,1.5,0.05,2.101c-0.633-0.134-0.95-0.717-0.95-1.75C27.767,61.1,27.883,60.4,28.15,59.8z"/>
	<path style="fill-rule:evenodd;clip-rule:evenodd;fill:#4F6910;" d="M32,72.8c0.4-0.1,0.85-0.05,1.35,0.15
		c0.5,0.233,0.816,0.533,0.95,0.899c-0.367,0.2-0.85,0.301-1.45,0.301L32,74.5c-0.467,0.167-1,0.217-1.6,0.15
		c-0.633-0.034-1.15-0.184-1.55-0.45c1.333-0.267,2.1-0.45,2.3-0.55c0.1-0.034,0.233-0.167,0.4-0.4
		C31.683,73.017,31.833,72.866,32,72.8z"/>
	<path style="fill-rule:evenodd;clip-rule:evenodd;fill:#4F6910;" d="M50.5,65.15L51.35,65c-0.166,1.434-1.217,2.733-3.149,3.9
		c-1.834,1.1-3.467,1.5-4.9,1.199c0.167-0.566,0.617-1.116,1.351-1.649c0.399-0.3,1.017-0.684,1.85-1.15
		c0.333-0.2,0.967-0.649,1.9-1.35C49.3,65.35,50,65.083,50.5,65.15z"/>
	<path style="fill-rule:evenodd;clip-rule:evenodd;fill:#4F6910;" d="M40.85,57.15h0.301c-0.034-1,1.466-0.967,4.5,0.1
		c3.033,1.066,4.466,2.533,4.3,4.4c-0.934-0.601-2.584-1.334-4.95-2.2c-1.4-0.5-2.25-0.767-2.55-0.8
		c-0.8-0.101-1.283-0.184-1.45-0.25C40.533,58.167,40.483,57.75,40.85,57.15z"/>
	<path style="fill-rule:evenodd;clip-rule:evenodd;fill:#4F6910;" d="M47.15,62.15h0.35c-0.434,0.466-1.217,0.533-2.35,0.199
		c-1.101-0.3-1.7-0.75-1.801-1.35c0.533-0.066,1.184,0.05,1.95,0.35C45.733,61.517,46.35,61.783,47.15,62.15z"/>
	<path style="fill-rule:evenodd;clip-rule:evenodd;fill:#253302;" d="M46,64.5v0.3c0.1,0.667-0.1,1.384-0.6,2.15
		c-0.467,0.666-1.018,1.166-1.65,1.5c-0.1-0.167-0.217-0.634-0.35-1.4c-0.101-0.566-0.334-0.866-0.7-0.899
		c-0.033-0.934,0.3-1.483,1-1.65H46z"/>
	<path style="fill-rule:evenodd;clip-rule:evenodd;fill:#253302;" d="M44,72.15v0.5c-0.167,0.433-0.45,0.683-0.85,0.75
		c-0.2,0.033-0.584,0-1.15-0.101c0-0.133-0.017-0.566-0.05-1.3c0-0.667,0.083-1.066,0.25-1.2c0.3-0.233,0.649-0.133,1.05,0.3
		C43.283,71.134,43.533,71.483,44,72.15z"/>
	<path style="fill-rule:evenodd;clip-rule:evenodd;fill:#253302;" d="M40,62.3c-0.131,0.07-0.265,0.087-0.4,0.05
		c-0.333-0.1-0.533-0.449-0.6-1.05c-0.1-0.899,0.217-1.666,0.95-2.3C39.982,59.387,39.999,60.486,40,62.3z"/>
	<path style="fill-rule:evenodd;clip-rule:evenodd;fill:#253302;" d="M57.3,53.45c-0.434,0.1-1.033,0.083-1.8-0.05
		c-0.9-0.167-1.517-0.25-1.85-0.25c-0.801,0.066-1.4,0.199-1.801,0.399c-0.1,0.066-0.283,0.283-0.55,0.65
		c-0.167,0.267-0.434,0.366-0.8,0.3l0.025,0.075c-0.069-0.101-0.161-0.159-0.275-0.175c-0.4-0.034-0.634-0.067-0.7-0.101
		c-0.366-0.1-0.583-0.166-0.649-0.2c-0.034,0-0.117-0.216-0.25-0.649c-0.268-0.867-0.167-1.667,0.3-2.4
		c0.433-0.666,1.017-1.017,1.75-1.05c0.3-0.033,0.816,0.033,1.55,0.2c0.767,0.2,1.283,0.3,1.55,0.3c0.3,0.033,0.75,0.017,1.351-0.05
		c0.5,0,0.899,0.116,1.199,0.35c0.367,0.233,0.634,0.634,0.801,1.2C57.316,52.467,57.366,52.95,57.3,53.45z"/>
	<path style="fill-rule:evenodd;clip-rule:evenodd;fill:#253302;" d="M20.5,27.5l-0.5-1c1.367,0,2.417,0.167,3.15,0.5
		c0.8,0.4,1.583,1.117,2.35,2.15c0.533,0.8,1.017,2.05,1.45,3.75c-0.934-1.167-2.2-2.183-3.8-3.05
		c-0.767-0.333-1.35-0.617-1.75-0.85C20.667,28.533,20.367,28.033,20.5,27.5z"/>
	<path style="fill-rule:evenodd;clip-rule:evenodd;fill:#253302;" d="M26.85,17.8l1,3c0.833,2.333,0.667,3.784-0.5,4.35
		c-0.6,0.3-1.5,0.233-2.7-0.2c-1.233-0.4-1.55-0.884-0.95-1.45c0.1-0.1,0.417-0.167,0.95-0.2c0.567-0.066,0.917-0.15,1.05-0.25
		c0.233-0.167,0.517-0.633,0.85-1.4C26.75,21.05,26.85,19.767,26.85,17.8z"/>
	<path style="fill-rule:evenodd;clip-rule:evenodd;fill:#253302;" d="M40,24.3l1-2.15c1.767-0.133,3.283,0.083,4.55,0.65
		c-0.066,0.934-0.333,1.75-0.8,2.45c-0.533,0.8-1.217,1.167-2.05,1.1c-0.533-0.067-1.117-0.3-1.75-0.7
		C40.217,25.217,39.9,24.767,40,24.3z"/>
	<path style="fill-rule:evenodd;clip-rule:evenodd;fill:#253302;" d="M33.85,50.5l1-0.5c-0.167,0.366-0.25,0.934-0.25,1.7
		c0,0.833-0.05,1.416-0.15,1.75c-0.733,0.233-1.617-0.5-2.65-2.2c-1-1.634-1.433-2.767-1.3-3.4c0.5,0.2,1.066,0.634,1.7,1.301
		C32.9,49.85,33.45,50.3,33.85,50.5z"/>
	<path style="fill-rule:evenodd;clip-rule:evenodd;fill:#253302;" d="M16.1,58.3l2.1-7.75c0.8-0.866,1.616-1.434,2.45-1.7
		c1.1-0.366,1.75,0.034,1.95,1.2c0.167,1.167-0.05,2.767-0.65,4.8c-0.2,0.667-0.6,1.317-1.2,1.95c-0.533,0.533-1.15,0.967-1.85,1.3
		c-0.467,0.233-0.95,0.4-1.45,0.5C16.75,58.733,16.3,58.634,16.1,58.3z"/>
	<path style="fill-rule:evenodd;clip-rule:evenodd;fill:#253302;" d="M24.2,21.05c0.633,1.133,0.966,1.733,1,1.8
		c0.267,0.633,0.35,1.3,0.25,2c-0.167,1.533-0.833,2.517-2,2.95c-0.934,0.167-1.65,0.333-2.15,0.5c-0.5,0.267-0.95,0.434-1.35,0.5
		c-0.634,0.1-1.333,0.117-2.1,0.05c-0.934-0.067-1.583-0.284-1.95-0.65c-0.367-0.4-0.517-1.067-0.45-2L24.2,21.05z"/>
	<path style="fill-rule:evenodd;clip-rule:evenodd;fill:#253302;" d="M43.7,13.55c0.433-0.433,1.166-0.533,2.2-0.3
		c0.6,0.167,1.333,0.417,2.199,0.75c2.233,0.733,3.4,1.117,3.5,1.15c1.733,0.7,2.65,1.383,2.75,2.05c0.033,0.233,0,0.583-0.1,1.05
		c-0.1,0.5-0.15,0.867-0.15,1.1c0.033,0.8,0.283,1.333,0.75,1.6c0.134,0.1,0.733,0.283,1.801,0.55c-0.134,0.333-0.434,0.65-0.9,0.95
		c-0.6,0.267-1.017,0.466-1.25,0.6c-1,0.667-1.8,1.05-2.4,1.15c-0.733,0-1.25,0.033-1.55,0.1c-0.467,0.1-0.684,0.483-0.649,1.15
		c-1.034-0.534-2.4-0.833-4.101-0.9h-2.2c-0.333,0.067-0.899,0.284-1.699,0.65c-0.733,0.3-1.351,0.466-1.851,0.5
		c-1.033,0.1-2.149-0.083-3.35-0.55c-1.434-0.533-2.1-1.267-2-2.2L43.7,13.55z"/>
	<path style="fill-rule:evenodd;clip-rule:evenodd;fill:#253302;" d="M67.2,45.6c0.733,0.801,0.816,1.717,0.25,2.75
		c-0.101,0.2-0.351,0.483-0.75,0.851c-0.367,0.333-0.601,0.616-0.7,0.85c-0.066,0.233-0.033,0.617,0.1,1.15
		c0.167,0.5,0.2,0.833,0.101,1c-0.134,0.267-0.351,0.399-0.65,0.399c-0.399-0.033-0.717-0.05-0.95-0.05
		c-1.6,0.334-2.833,0.5-3.699,0.5c-2.134,0.101-3.334,0.684-3.601,1.75c-0.366-0.066-0.8-0.316-1.3-0.75c-0.6-0.533-1-0.85-1.2-0.95
		c-0.366-0.233-1.066-0.316-2.1-0.25c-0.5,0.101-0.834,0.134-1,0.101c-0.3-0.033-0.517-0.283-0.65-0.75
		c-0.033-0.2-0.017-0.467,0.05-0.8c0.067-0.367,0.101-0.634,0.101-0.801c-1.033,0.034-1.917-0.383-2.65-1.25
		c-0.267-0.333-0.717-0.733-1.35-1.199c-0.634-0.434-1.05-0.784-1.25-1.051c0.333-0.166,0.767-0.383,1.3-0.649
		c0.434-0.233,0.75-0.566,0.95-1L63.1,43.7c0.601-0.066,1.334,0.116,2.2,0.55C66.1,44.65,66.733,45.1,67.2,45.6z"/>
	<g>
		<path style="fill-rule:evenodd;clip-rule:evenodd;fill:#E34A22;" d="M19.5,16.7l0.5,0.25l1.1,4.35l-1.5,1.8L19,21.4l0.8-3.85
			L19.5,16.7z M13,18.95l0.95,0.35L16,19.5v0.65l-2.6,0.4L13,18.95z M11.35,22.2l3.2,1.3l1.75,2.15c-1.633,0-3.017-0.417-4.15-1.25
			c-1.133-0.8-1.7-1.783-1.7-2.95L11.35,22.2z M11.25,20.45l0.5-0.05l3.8,0.7L16,22.3h-3.75L11.25,20.45z M10.65,24.95l-0.45-2.7
			l3.2,4.3l2.4,1.85h-0.9L10.65,24.95z M19.6,24c0.4,0,0.8-0.1,1.2-0.3l-0.95,2.85L19.6,24z"/>
		<path style="fill-rule:evenodd;clip-rule:evenodd;fill:#F76031;" d="M17.5,17.7l1.15,0.45l-3.1,2.95l-3.8-0.7l2.65-3.3L13.7,17
			l-2.25,2l0.3-0.9l-1.3,3.35c0,1.167,0.566,2.15,1.7,2.95c1.133,0.833,2.517,1.25,4.15,1.25l3.3-2.55l1.5-1.8L20,16.95l2.75,1.8
			l-0.15-0.7c-1.034-0.867-2.017-1.566-2.95-2.1c-2.033-1.167-3.967-1.284-5.8-0.35c2.4-1.434,4.816-1.267,7.25,0.5
			c2.8,2,3.7,4.55,2.7,7.65c-1.033,3.267-3.333,4.816-6.9,4.65l2.95-1.85l0.95-2.85C20.4,23.9,20,24,19.6,24l-0.85,1.1l-5.35,1.45
			l-3.2-4.3l-0.15-1.4c0.567-1.9,1.45-3.367,2.65-4.4l2.8-0.4l4.3,1.5L19,21.4l-4.45,2.1l-3.2-1.3l-0.1-1.75l1,1.85H16
			c0.833,0,1.517-0.417,2.05-1.25c0.567-0.8,0.85-1.833,0.85-3.1C18.467,17.417,18,17.333,17.5,17.7z M15.05,19.1L16.3,18l-1.45,0.4
			L15.05,19.1z M13.4,20.55l2.6-0.4l1.1-1.05l-0.2-1L16,19.5l-2.05-0.2l1.5-1.8L13,18.95L13.4,20.55z M9.85,21.8l0.35,0.45l0.45,2.7
			l-0.85-2.5L9.85,21.8z M10.65,24.95l4.25,3.45c-1.367,0-2.533-0.333-3.5-1s-1.45-1.45-1.45-2.35l1.15,1.5L10.65,24.95z"/>
		<path style="fill-rule:evenodd;clip-rule:evenodd;fill:#FF885B;" d="M18.9,17.95l-0.25,0.2L17.5,17.7
			C18,17.333,18.467,17.417,18.9,17.95z M19.5,16.7l0.3,0.85l-4.3-1.5l-2.8,0.4l1.15-0.85c1.833-0.934,3.767-0.817,5.8,0.35
			c0.934,0.533,1.917,1.233,2.95,2.1l0.15,0.7L20,16.95L19.5,16.7z M14.4,17.1l-2.65,3.3l-0.5,0.05l0.1,1.75l-0.9-0.75l1.3-3.35
			l-0.3,0.9l2.25-2L14.4,17.1z M13,18.95l2.45-1.45l-1.5,1.8L13,18.95z M10.2,22.25l-0.45-0.6l0.3-0.8L10.2,22.25z M11.1,26.55
			l-1.15-1.5l-0.15-2.6L11.1,26.55z"/>
		<path style="fill-rule:evenodd;clip-rule:evenodd;fill:#C43D19;" d="M14.85,18.4L16.3,18l-1.25,1.1L14.85,18.4z M19.6,23.1
			l-3.3,2.55l-1.75-2.15L19,21.4L19.6,23.1z M16,20.15V19.5l0.9-1.4l0.2,1L16,20.15z M18.65,18.15l0.25-0.2
			c0,1.267-0.283,2.3-0.85,3.1c-0.533,0.833-1.216,1.25-2.05,1.25l-0.45-1.2L18.65,18.15z M16.9,28.4l-1.05,0.05L15.8,28.4
			l-2.4-1.85l5.35-1.45L19.6,24l0.25,2.55L16.9,28.4z"/>
	</g>
	<g>
		<path style="fill-rule:evenodd;clip-rule:evenodd;fill:#FF885B;" d="M46.9,1l1.149-0.45L50,2.8l0.2,1.45L46.9,1l-2.5,3.9
			L44.6,2.15L43.7,1.6c-3.167-1.3-6.533-0.467-10.1,2.5c2.933-4.267,6.75-5.2,11.45-2.8l0.45,0.25L46.9,1z M42.15,7.75l1,1.3
			l-3.351,1.7l2.75-2L42.15,7.75z M44.15,8.95V9.7L42.8,10.35L44.15,8.95z M38.8,9.9l-0.6,0.55l0.05-0.9L38.8,9.9z M37,7.55
			L30.2,8.5l-1.5,4.65l2.8,0.7l-3.45,1.4l0.4-1.5c-0.434-1.2-0.534-2.4-0.3-3.6c0.5-2.6,2.15-4,4.95-4.2l3.2,0.55L37,7.55z
			 M36.7,15.25l-1.65-1.6l0.5-2.8l0.95,3.1l6.9,0.15c-1.768,0.8-3.801,1.133-6.101,1L36.7,15.25z M45.05,6.4l0.9,1.05l-8.45-0.3
			C39.2,6.35,41.717,6.1,45.05,6.4z M51.95,7.2H52.6L51.9,11.35l-4.351,7.5l-0.6,0.05c1.866-3.167,3.183-6.717,3.95-10.65L51.35,7.7
			L51.95,7.2z M46.9,8.5l1.149,1.3l0.351,1.35L46.9,8.5z M43.1,21.8l1.15-1l4.4-1.35L43.1,21.8z M33.35,11.2l2.75-3.1l-3.35,5.175
			l0.05-0.925L33.35,11.2z M34.5,21.6l-0.45,0.9h-1.6L34.5,21.6z"/>
		<path style="fill-rule:evenodd;clip-rule:evenodd;fill:#C43D19;" d="M50,2.8l1.95,4.4L51.35,7.7L50.2,4.25L50,2.8z M44.4,4.9
			l0.649,1.5c-3.333-0.3-5.85-0.05-7.55,0.75L37,7.55L36.3,6.5l-3.2-0.55L33.05,5.1l6.101,0.3l4.55-3.8L44.6,2.15L44.4,4.9z
			 M39.05,7.55l2.9,1.55l-3.75,1.35l0.6-0.55l2.351-0.65L38.7,8.1l-1.9,1.95L39.05,7.55z M35.55,10.85l-0.5,2.8l1.65,1.6
			c-0.533-0.3-0.934-0.583-1.2-0.85l-0.2-0.15c-1.667-1.8-1.333-3.5,1-5.1L35.55,10.85z M41.95,16.55l4.1,0.7l-8.1,0.1L41,16.6
			L41.95,16.55z M44.9,11.95L44.65,9.5l1.149,1.05l0.2,2.3l-2.6,1.25l-6.9-0.15l-0.3-2.65l0.7,1.25L44.8,13.3L44.9,11.95z
			 M44.45,17.8l0.75,1.6l-0.95,1.4l-1.15,1l0.65-0.25l-2,2.85c-2.9,1.133-6.117,1.133-9.65,0l9.35-0.6L43,20.85l-2.2,0.25
			l-1.649-0.85l-5.601-1.8l-0.1-2.575c0.033,0.435,0.333,0.81,0.9,1.125c0.566,0.367,1.266,0.55,2.1,0.55L44.45,17.8z M48.55,12.15
			l2.351-3.9c-0.768,3.933-2.084,7.483-3.95,10.65H46.85l0.9-3.35L48.55,12.15z M31.75,14.2l1.8,6.75l-3.7-6.35L31.75,14.2z"/>
		<path style="fill-rule:evenodd;clip-rule:evenodd;fill:#F76031;" d="M48.5,2.55l1.2,6L48.05,9.8L46.9,8.5l1,1.65l0.649,2l-0.8,3.4
			L47.6,12l-1.449,3.6l-4.2,0.95L41,16.6l-3.7-1.5c2.3,0.133,4.333-0.2,6.101-1l2.6-1.25l-0.2-2.3L44.65,9.5l0.25,2.45l-0.801-1.4
			L36.2,11.3l0.3,2.65l-0.95-3.1l0.75-1.7c-2.333,1.6-2.667,3.3-1,5.1l0.2,0.15l-2.75-1.1l3.35-5.2l-2.75,3.1
			c-0.9,0-1.633-0.267-2.2-0.8c-0.633-0.5-0.95-1.133-0.95-1.9L37,7.55l0.5-0.4l8.45,0.3l-0.9-1.05L44.4,4.9L46.9,1L48.5,2.55z
			 M42.15,7.75l0.399,1l-2.75,2l3.351-1.7L42.15,7.75z M44.15,9.7V8.95l-1.351,1.4L44.15,9.7z M41.1,8
			c-0.533-0.3-1.217-0.45-2.05-0.45l-2.25,2.5l1.9-1.95l2.45,1.15L38.8,9.9l-0.55-0.35l-0.05,0.9l3.75-1.35
			C41.95,8.667,41.667,8.3,41.1,8z M36.45,17.55l-2.55-2.1l4.05,1.9l8.1-0.1l1.5-1.1L47.35,17l-2.899,0.8L36.45,17.55z M52.6,7.2
			c1.467,3.733,1.551,7.566,0.25,11.5L42.65,25.05l-0.9-0.65l2-2.85l4.9-2.1l-4.4,1.35l0.95-1.4l1.649-0.5h0.101l0.6-0.05
			c1.167,0,2.2-0.733,3.101-2.2c0.833-1.433,1.25-3.2,1.25-5.3L52.6,7.2z M51.4,22.75L46.65,24l6.199-5.2L51.4,22.75z M36.2,20.2
			l0.55,0.9l-1.65,0.3l0.9,0.5l-0.4,0.55h0.851L32.5,23.5l-0.55-1.05l0.1-0.2l-4.8-4.15l0.8-2.85l3.45-1.4l1.3-1.5l-0.05,0.95v0.25
			l0.7,2.25l0.1,2.65l5.601,1.8L36.2,20.2z M29.85,14.6l3.7,6.35l-1.8-6.75L29.85,14.6z M34.05,22.5l0.45-0.9l-2.05,0.9H34.05z"/>
		<path style="fill-rule:evenodd;clip-rule:evenodd;fill:#E34A22;" d="M50.2,4.25L51.35,7.7L50.9,8.25l-2.351,3.9l-0.649-2l0.5,1
			L48.05,9.8l1.65-1.25l-1.2-6L50.2,4.25z M39.15,5.4L33.05,5.1l0.55-1c3.567-2.967,6.933-3.8,10.1-2.5L39.15,5.4z M41.95,9.1
			l-2.9-1.55c0.833,0,1.517,0.15,2.05,0.45C41.667,8.3,41.95,8.667,41.95,9.1z M36.7,15.25l0.6-0.15l3.7,1.5l-3.05,0.75l-4.05-1.9
			l2.55,2.1c-0.834,0-1.534-0.183-2.1-0.55c-0.6-0.333-0.9-0.733-0.9-1.2l-0.7-2.25V13.3l2.75,1.1
			C35.767,14.667,36.167,14.95,36.7,15.25z M44.8,13.3L36.9,12.55l-0.7-1.25l7.899-0.75l0.801,1.4L44.8,13.3z M47.6,12l0.15,3.55
			l-0.2,0.6l-1.5,1.1l-4.1-0.7l4.2-0.95L47.6,12z M50.65,16.65c-0.9,1.467-1.934,2.2-3.101,2.2l4.351-7.5
			C51.9,13.45,51.483,15.217,50.65,16.65z M47.35,17l-0.5,1.9L45.2,19.4l-0.75-1.6L47.35,17z M46.65,24l-4,1.05L52.85,18.7v0.1
			L46.65,24z M41.45,23.8l-9.35,0.6l-0.15-1.95l0.55,1.05l3.95-1.05H35.6L36,21.9l-0.9-0.5l1.65-0.3l-0.55-0.9l2.95,0.05L40.8,21.1
			l2.2-0.25L41.45,23.8z M33.35,11.2l-0.55,1.15l-1.3,1.5l-2.8-0.7l1.5-4.65c0,0.767,0.316,1.4,0.95,1.9
			C31.717,10.933,32.45,11.2,33.35,11.2z M28.7,21c-0.967-0.8-1.45-1.767-1.45-2.9l4.8,4.15C30.717,22.25,29.6,21.833,28.7,21z"/>
	</g>
	<g>
		<path style="fill-rule:evenodd;clip-rule:evenodd;fill:#FF885B;" d="M52.4,41.9l-0.851,2.4l-0.2-1.899l0.9-1.601l0.2,0.65
			L52.4,41.9z M62.85,36.15l-2.6,1.25l1-1.3l5.35-0.85l0.551,1.15L65.4,36L62.85,36.15z M62.05,31.15l3.65,0.8
			c-5.233-0.2-9.567,1.733-13,5.8c-2.101,2.533-2.533,5.316-1.3,8.35l1.5,3.7c-3.134-3.666-3.717-7.666-1.75-12
			c1.066-2.3,2.666-4.1,4.8-5.4c2.066-1.267,4.366-1.75,6.899-1.45L62.05,31.15z M64.6,39.55c0.167,0.167,0.25,0.434,0.25,0.8
			l-0.55,1.9V41.9l0.4-1.4L64,39.25C64.267,39.25,64.467,39.35,64.6,39.55z M65.15,37.5l0.6,1.65l-0.55-1.2l-4,1.15l1.45-1
			c0.767-0.534,1.383-0.85,1.85-0.95C64.9,37.083,65.116,37.2,65.15,37.5z M61,42l0.85,0.85l2-1.3H63.9l-1.65,2.2L61,42.15V42z
			 M61.8,33.6l3.95-0.2c-3.4,0.633-6.783,2.383-10.15,5.25c0-1.533,1.033-2.833,3.101-3.9C59.733,34.217,60.767,33.833,61.8,33.6z
			 M66.75,33.35l2.3,3.7l-2.1-2.9L65.85,33.4L66.75,33.35z M68.5,38.3L66.95,45.9L66.9,46c-0.967,1.934-2.084,2.967-3.351,3.1
			l-0.5,0.051l0.7-1.551c2.667-2.333,3.95-5.166,3.85-8.5l0.75-1.8L68.5,38.3z M60.2,45.95l-0.75,0.55
			c-0.667-0.533-0.934-1.65-0.8-3.35C58.717,44.55,59.233,45.483,60.2,45.95z M59.1,50.9L55.4,50.85l-2.7-4.35l0.7,0.85l-1-4.949
			l5.5,8.3L59.1,50.9z M59.3,46.95l-1.899-2.5c-0.934-2.4-0.284-4.45,1.949-6.15c-1.1,1.8-1.649,3.867-1.649,6.2L59.3,46.95z"/>
		<path style="fill-rule:evenodd;clip-rule:evenodd;fill:#C43D19;" d="M52.45,41.45c0.3-2.167,1.633-4.034,4-5.6
			c1.278-0.862,2.737-1.521,4.375-1.975c-0.713,0.22-1.421,0.512-2.125,0.875c-2.067,1.066-3.101,2.367-3.101,3.9l-0.35,1.5
			c-0.5,2.1-0.2,3.85,0.9,5.25L56.1,45.55h0.15l0.65,0.75l1.1,4c2.467-0.5,4.383-1.399,5.75-2.7l-0.7,1.551L59.1,50.9L57.9,50.7
			l-5.5-8.3L52.45,41.45z M63.95,34.9l2.899,0.15l1.5,2.25l-0.75,1.8c-0.033-0.767-0.166-1.617-0.399-2.55l-0.05-0.15L66.6,35.25
			l-5.35,0.85L63.95,34.9z M61.45,40.65l0.2-0.4c0.166-0.233,0.416-0.417,0.75-0.55c0.466-0.3,1-0.45,1.6-0.45l0.7,1.25l-0.4,1.4
			l-0.2-0.35h-0.25c-0.5,0-0.967,0.133-1.399,0.4c-0.4,0.267-0.601,0.566-0.601,0.899L61,42C61,41.5,61.15,41.05,61.45,40.65z
			 M69.05,36.15l0.45,1.9l-0.45-1l-2.3-3.7L69.05,36.15z M56.85,45.8l0.551-1.35l1.899,2.5L56.85,45.8z"/>
		<path style="fill-rule:evenodd;clip-rule:evenodd;fill:#F76031;" d="M48.95,32.85c3.033-3.067,6.767-4.534,11.2-4.4
			c1.3,0.066,2.482,0.383,3.55,0.95c4,1.967,6.333,4.983,7,9.05l-1.2,3.1c0.133-1.1,0.133-2.267,0-3.5l-0.45-1.9l-2.3-2.8l-0.9,0.05
			l1.101,0.75l1.2,2.85l-2.4-3.3l-1.8,1.2l-2.7,1.2l-0.85,1.1l-4,2.6L56.15,45.4c-1.101-1.4-1.4-3.15-0.9-5.25l0.35-1.5
			c3.367-2.867,6.75-4.617,10.15-5.25l-3.95,0.2c-2.033,0.466-3.816,1.216-5.35,2.25c-2.367,1.566-3.7,3.433-4,5.6l-0.2-0.65
			l-0.9,1.601l0.2,1.899l0.15,2.55l-0.3-0.75c-1.233-3.033-0.801-5.816,1.3-8.35c3.433-4.067,7.767-6,13-5.8l-3.65-0.8l0.8-0.2
			c-2.533-0.3-4.833,0.183-6.899,1.45c-2.134,1.3-3.733,3.1-4.8,5.4c-1.967,4.334-1.384,8.334,1.75,12L52.1,48l3.301,2.85L59.1,50.9
			l3.95-1.75l0.5-0.051l-0.2,0.15c-1.467,1-2.75,1.783-3.85,2.35l-4.7-0.649c1.566,1.3,3.167,1.95,4.8,1.95
			c-3.3,0.166-6.217-0.801-8.75-2.9c-2.767-2.267-4.149-5-4.149-8.2c-0.167-1.7-0.101-3.333,0.2-4.9
			C47.133,35.367,47.816,34.017,48.95,32.85z M52.4,42.4l1,4.949l-0.7-0.85l-1.15-2.2l0.851-2.4V42.4z M60.25,37.4l2.6-1.25l-2.35,3
			l2.15-1.05l-1.45,1l4-1.15l0.55,1.2l-0.6-1.65c-0.034-0.3-0.25-0.417-0.65-0.35l1.4-0.65L65.4,36l1.75,0.4l0.05,0.15
			c-0.934,3.9-2.25,7.316-3.95,10.25l-0.8,0.25c-1.934,0.5-3.783,0.25-5.55-0.75l-0.65-0.75l3.05,1.4l-1.6-2.45
			c0-2.333,0.55-4.4,1.649-6.2L60.25,37.4z M63.5,38.55l-2.45,1.3c-0.899,0.8-0.917,1.566-0.05,2.3l1.25,1.6l1.65-2.2H64.1
			L63.5,42.9L61.55,44.3L60.5,43.15l0.05,2.25c1.101,0.366,2.351-0.684,3.75-3.15l0.55-1.9l0.051-0.8L63.5,38.55z M63.85,41.55
			l-2,1.3c0-0.333,0.2-0.633,0.601-0.899C62.883,41.683,63.35,41.55,63.85,41.55z M66.95,45.9L68.5,38.3c0.267,1.8,0.2,3.4-0.2,4.8
			C68,44.134,67.55,45.066,66.95,45.9z M58.65,43.15c-0.134,1.699,0.133,2.816,0.8,3.35l0.75-0.55
			C59.233,45.483,58.717,44.55,58.65,43.15z"/>
		<path style="fill-rule:evenodd;clip-rule:evenodd;fill:#E34A22;" d="M65.4,36l0.5,0.5l-1.4,0.65c-0.467,0.1-1.083,0.417-1.85,0.95
			l-2.15,1.05l2.35-3L65.4,36z M60.4,37.2l-0.15,0.2l-0.9,0.9c-2.233,1.7-2.883,3.75-1.949,6.15L56.85,45.8l-0.6-0.25H56.1
			L56.15,45.4L56.4,39.8L60.4,37.2z M64.9,39.55l-0.051,0.8c0-0.367-0.083-0.633-0.25-0.8c-0.133-0.2-0.333-0.3-0.6-0.3
			c-0.6,0-1.134,0.15-1.6,0.45c-0.334,0.133-0.584,0.316-0.75,0.55l-0.2,0.4C61.15,41.05,61,41.5,61,42v0.15
			c-0.867-0.734-0.85-1.5,0.05-2.3l2.45-1.3L64.9,39.55z M64.3,42.25c-1.399,2.467-2.649,3.517-3.75,3.15l-0.05-2.25l1.05,1.149
			L63.5,42.9l0.6-1.351l0.2,0.35V42.25z M66.85,35.05L63.95,34.9l1.8-1.2L66.85,35.05z M68.15,37l-1.2-2.85l2.1,2.9l0.45,1
			c0.133,1.233,0.133,2.4,0,3.5l1.2-3.1c-0.8,3.267-1.884,6.233-3.25,8.899c-1.167,2.233-2.817,3.834-4.95,4.801
			c-0.5,0.267-1.117,0.483-1.85,0.649l-0.301,0.05L59.6,52.9c-1.633,0-3.233-0.65-4.8-1.95l4.7,0.649
			c1.1-0.566,2.383-1.35,3.85-2.35l0.2-0.15c1.267-0.133,2.384-1.166,3.351-3.1l0.05-0.1c0.6-0.834,1.05-1.767,1.35-2.801
			c0.4-1.399,0.467-3,0.2-4.8l-0.15-1L68.15,37z M67.6,39.1c0.101,3.333-1.183,6.167-3.85,8.5c-1.367,1.301-3.283,2.2-5.75,2.7
			l-1.1-4c1.767,1,3.616,1.25,5.55,0.75l0.8-0.25c1.7-2.934,3.017-6.35,3.95-10.25C67.434,37.483,67.566,38.333,67.6,39.1z
			 M55.4,50.85L52.1,48L51.7,46.85l-0.15-2.55L55.4,50.85z"/>
	</g>
	<g>
		<path style="fill-rule:evenodd;clip-rule:evenodd;fill:#F76031;" d="M41.6,30.25c3.467,0.1,5.851,1.5,7.15,4.2l-0.25,2.2
			l-0.65-1.25L47.45,38L47,37.65l0.05,2.9l0.5-0.6l-1.25,5.3l-2.649,1.4L42.55,46.6l-1-0.35l1.601-1.65l0.35-0.05l1.25-0.399
			l2.2-6.601c0.2-1.033-0.084-1.517-0.851-1.45l-0.85-1.15l-2.2-1.3l-0.45-0.1h-0.05l-2.5-0.6l2.45-0.25l-0.7-0.25l0.95-0.3
			c-2.467-1.133-4.884-1-7.25,0.4c-2.733,1.633-3.65,4.034-2.75,7.2l1.6,4.9l-2.55-2.8l-0.5-7.3l1.05-1.15l4.3-3l0.55-0.15
			C38.7,30.117,40.167,30.117,41.6,30.25z M37.7,34.6l-1.351,2.35c-0.3,1.1-0.3,1.983,0,2.65c1.567,3.5,3.801,4.167,6.7,2l0.15-0.15
			l1.399-4.3l-1.3-0.9l-0.1,5.2l-0.05-3.9l-1.25-0.9l0.05,0.6L41.2,38.7L39.1,38c0.067,0.633,0.233,1.05,0.5,1.25L39.9,40.1L37.2,39
			l0.55,1.45l-1.4-3.5L39.2,34.2l3.55,0.2c1.934,0.8,3.184,2.233,3.75,4.3l-1-1l-0.3,2.7l-1,2.05c-2.533,1.133-4.917,0.967-7.15-0.5
			c-0.967-0.667-1.649-1.5-2.05-2.5l-0.15-1.05c0.933-2.333,2.05-4.017,3.35-5.05L37.7,34.6z M39.35,35.8l3.301,0.35L39.35,34.5
			l-1.699,3.6L39.35,35.8z M37.2,45.75l-0.351,0.2l-1.399-0.7L37.2,45.75z M36.9,44.8l-3.2-4.4l-0.15-5.25l2.4-0.75l-0.65,1
			c-0.867,1.567-1.117,3.2-0.75,4.9l5.55,4.55L36.9,44.8z"/>
		<path style="fill-rule:evenodd;clip-rule:evenodd;fill:#F76031;" d="M36.65,30.4l-2.75,1.25c0.967-0.733,2.067-1.2,3.3-1.4
			L36.65,30.4z M40.35,41.8l-2.05,0.05L37.2,39L40.35,41.8z M39.6,39.25l1.95-0.05c0,1.2-0.55,1.5-1.649,0.9L39.6,39.25z
			 M43.05,41.6l-1.7,0.15l1.801-4.2l0.05,3.9L43.05,41.6z M46.5,38.7l-1.3,1.7l0.3-2.7L46.5,38.7z M48.75,34.45
			c1.133,2.866,1.05,5.716-0.25,8.55c-0.533,1.134-1.283,2-2.25,2.6L44.1,46.4l2.2-1.15l2.2-8.6L48.75,34.45z M38.85,43.8l-3.35-2.7
			L35,39.45c0.4,1,1.083,1.833,2.05,2.5c2.233,1.467,4.617,1.633,7.15,0.5l-0.4,1.1C42.033,44.217,40.383,44.3,38.85,43.8z
			 M40.8,47.25L36.25,48c-1.2-0.6-2.25-1.4-3.15-2.4c-0.833-0.933-1.483-1.866-1.95-2.8c-0.867-2.233-0.816-4.983,0.15-8.25l0.5,7.3
			c1.067,3.733,3.533,5.567,7.4,5.5L40.8,47.25z M42.55,46.6c-1.934,0.467-3.833,0.25-5.7-0.649l0.351-0.2l4.35,0.5L42.55,46.6z
			 M33.7,40.4l3.2,4.4c-0.9,0-1.65-0.416-2.25-1.25C34.017,42.684,33.7,41.633,33.7,40.4z"/>
		<path style="fill-rule:evenodd;clip-rule:evenodd;fill:#FF885B;" d="M45.25,34.95l0.85,1.15c0.767-0.067,1.051,0.417,0.851,1.45
			l-2.2,6.601L43.5,44.55l-0.55,0.05h0.2l-1.601,1.65l-4.35-0.5l-1.75-0.5l1.399,0.7c1.867,0.899,3.767,1.116,5.7,0.649l1.101,0.051
			c-0.967,0.3-1.917,0.5-2.851,0.6l-1.6,0.1c-3.867,0.067-6.333-1.767-7.4-5.5l2.55,2.8l-1.6-4.9l0.8-4.6l0.15,5.25
			c0,1.233,0.316,2.284,0.95,3.15c0.6,0.834,1.35,1.25,2.25,1.25l3.199,0.05l-1.25-1.05c1.533,0.5,3.184,0.417,4.95-0.25l0.4-1.1
			l1-2.05l1.3-1.7c-0.566-2.067-1.816-3.5-3.75-4.3L45.25,34.95z M38.8,34.6l-2.45,2.35L37.7,34.6H38.8z M36.35,36.95l1.95,4.9
			l2.05-0.05L37.2,39l2.7,1.1c1.1,0.6,1.649,0.3,1.649-0.9l-1.95,0.05c-0.267-0.2-0.433-0.617-0.5-1.25l2.101,0.7l0.75-1.45
			l-0.05-0.6l1.25,0.9l-1.801,4.2l1.7-0.15c-2.899,2.167-5.133,1.5-6.7-2C36.05,38.933,36.05,38.05,36.35,36.95z M43.2,41.45
			l0.1-5.2l1.3,0.9L43.2,41.45z M48.5,36.65l-1.55,5.95l0.6-2.649l-0.5,0.6L47,37.65L47.45,38l0.399-2.6L48.5,36.65z M33.9,31.65
			l2.75-1.25l-4.3,3L33.9,31.65z M35,39.45l0.5,1.65l-0.95-0.8l0.3-1.9L35,39.45z"/>
		<path style="fill-rule:evenodd;clip-rule:evenodd;fill:#C43D19;" d="M42.75,34.4l-3.55-0.2l-0.4,0.4h-1.1l0.5-1.25
			c-1.3,1.033-2.417,2.716-3.35,5.05l-0.3,1.9c-0.367-1.7-0.117-3.333,0.75-4.9l0.65-1l-2.4,0.75l-0.8,4.6
			c-0.9-3.167,0.017-5.567,2.75-7.2c2.366-1.4,4.783-1.533,7.25-0.4l-0.95,0.3l0.7,0.25l-2.45,0.25l2.5,0.6h0.05l0.45,0.1l2.2,1.3
			L42.75,34.4z M39.35,34.5l3.301,1.65L39.35,35.8l-1.699,2.3L39.35,34.5z M31.15,42.8c0.467,0.934,1.117,1.867,1.95,2.8
			c0.9,1,1.95,1.801,3.15,2.4c-1.767,0-3.267-1.267-4.5-3.8L31.15,42.8z"/>
	</g>
	<g>
		<path style="fill-rule:evenodd;clip-rule:evenodd;fill:#E34A22;" d="M13.4,42.15L8.3,43.9l-1.35,2.55L7.9,44.1l0.3-0.449l2.75-2.4
			l1.1-0.1L13.4,42.15z M17.45,41.55c1.3,0.9,2.333,1.934,3.1,3.101c0.967,1.5,1.45,3.183,1.45,5.05c0,2.6-0.85,4.866-2.55,6.8
			c-1.8,1.9-3.9,2.967-6.3,3.2c-2.566,0.3-4.967-0.267-7.2-1.7c-2.233-1.467-3.5-3.517-3.8-6.15L2.8,52.7v-2.3l1.8,4.05
			c2.466,0.866,4.767,0.816,6.9-0.15c2.3-1,3.95-2.649,4.95-4.95c0.233-0.5,0.35-1.083,0.35-1.75l0.3,3.101l-0.4,0.6l-5.05,3.851
			l4.8-2.65c2.767-2.233,3.55-5,2.35-8.3c-0.3-0.733-0.617-1.367-0.95-1.9L17.45,41.55z M16.6,45.8c-0.4-1.833-1.467-3.366-3.2-4.6
			l2.95,2L16.6,45.8z M13.55,48.9l-2.2,3.1l-2.2,0.55l-1.95-1.7L9.1,51.4c0.566,0,1.083-0.334,1.55-1c0.4-0.634,0.6-1.434,0.6-2.4
			l0.2,0.5l1.5-2.25l0.65,2.1L13.55,48.9z M12.4,43.8l-3.4,1l0.55-0.95l2.5-0.55L12.4,43.8z M9.1,46.65h3.05l-3.35,1.6l0.75,1.55
			L8.8,50.3l-0.5-3l0.45,0.851L9.1,46.65z M6.4,49.35L6.6,50.2l-0.3,1.25L6.4,49.35z M3.65,48.2c0-2.033,0.633-3.783,1.9-5.25
			c1.267-1.434,2.784-2.15,4.55-2.15l-4.15,4.75l-1.05,0.9l0.05,0.3L3.65,48.2z M3.15,48.2L2.7,49.3l-0.45,0.8L2.6,46.2L3.15,48.2z"
			/>
		<path style="fill-rule:evenodd;clip-rule:evenodd;fill:#F76031;" d="M13.4,41.2c1.733,1.233,2.8,2.767,3.2,4.6l0.2,1.8
			c0,0.667-0.117,1.25-0.35,1.75c-1,2.301-2.65,3.95-4.95,4.95c-2.133,0.967-4.434,1.017-6.9,0.15c3.1,0,5.733-0.566,7.9-1.7
			c2.167-1.167,3.25-2.533,3.25-4.1l0.1-3.851L13.4,42.15l-1.35-1L13.4,41.2z M14.85,39.1c1.9,0,3.533,1.267,4.9,3.8l0.8,1.75
			c-0.767-1.167-1.8-2.2-3.1-3.101L14.85,39.1z M11.95,40.4l-1.85,0.4c-1.767,0-3.284,0.717-4.55,2.15
			c-1.267,1.467-1.9,3.217-1.9,5.25L3.3,49.3l0.45,2.95l-0.4-0.5L2.8,50.4l0.55-1.65l-0.2-0.55l-0.55-2l0.45-1.95l0.8-0.8
			c1.367-1.467,2.966-2.5,4.8-3.1c3.467-1.1,6.533-0.45,9.2,1.95c0.333,0.533,0.65,1.167,0.95,1.9c1.2,3.3,0.417,6.066-2.35,8.3
			l0.25-1.2l1.45-2.45l0.1-4.25l-1.4-2.35L15.8,41.6L11.95,40.4z M12.05,43.3l1.9,0.25l0.5,6.25l-2.1,1.2l1.2-2.1l0.05-0.551
			L13,44.4L12.4,43.8L12.05,43.3z M6.95,46.45L6.4,49.35L6.3,51.45l2.55,1.399h-2.3L5.45,51.7L4.9,46.45l3-2.351L6.95,46.45z
			 M7.45,49.25L9.1,51.4L7.2,50.85v-0.1L7.45,49.25z M2.8,52.7L2.15,51.85l0.1-1.75l0.45-0.8L2.8,50.4V52.7z"/>
		<path style="fill-rule:evenodd;clip-rule:evenodd;fill:#FF885B;" d="M11.95,40.4l3.85,1.2l0.55,1.6l-2.95-2l-1.35-0.05l-1.1,0.1
			L11.95,40.4z M17.85,42.3c-2.667-2.4-5.733-3.05-9.2-1.95c-1.833,0.6-3.433,1.633-4.8,3.1l-0.8,0.8l0.3-0.35
			c3-3.7,6.833-5.3,11.5-4.8l2.6,2.45L17.85,42.3z M18.15,48.85l-1.15-6l1.25,1.75L18.15,48.85z M16.45,52.5l-4.8,2.65L16.7,51.3
			L16.45,52.5z M12.4,45.55l-3.6,0.9c0.8-1.601,1.867-2,3.2-1.2L12.4,45.55z M11.45,48.5l-0.2-0.5l1.05-0.9L11.45,48.5z M9.2,48.6
			l1.7-1.199L10,48.85L9.2,48.6z M7.2,48.75l0.25,0.5l-0.25,1.5L6.6,50.2L6.4,49.35l0.55-2.899L8.3,43.9l1.25-0.051L9,44.8
			L7.2,48.75z M8.25,54.05c3.5-0.399,6-2.2,7.5-5.399c0,1.566-1.083,2.933-3.25,4.1c-2.167,1.134-4.8,1.7-7.9,1.7l-1.25-2.7l0.4,0.5
			L3.3,49.3c0.7,1.834,1.817,3.283,3.35,4.351C7.117,53.983,7.65,54.116,8.25,54.05z M3.35,48.75L2.8,50.4L2.7,49.3l0.45-1.1
			L3.35,48.75z"/>
		<path style="fill-rule:evenodd;clip-rule:evenodd;fill:#C43D19;" d="M11.95,40.4l-6,5.15l4.15-4.75L11.95,40.4z M16.85,42.25
			l1.3,6.6L17.1,50.7l-0.75-7.5l-0.55-1.6L16.85,42.25z M15.75,48.65c-1.5,3.199-4,5-7.5,5.399c-0.6,0.066-1.133-0.066-1.6-0.399
			C5.117,52.583,4,51.134,3.3,49.3l0.35-1.1l1.3-1.45l0.5,4.95l1.1,1.149h2.3L6.3,51.45l0.3-1.25l0.6,0.55v0.1l1.95,1.7l2.2-0.55
			l2.2-3.1l-1.2,2.1l2.1-1.2l-0.5-6.25l-1.9-0.25l-2.5,0.55L8.3,43.9l5.1-1.75l2.45,2.649L15.75,48.65z M12,45.25
			c-1.333-0.8-2.4-0.4-3.2,1.2l3.6-0.9L12,45.25z M11.25,48c0,0.967-0.2,1.767-0.6,2.4c-0.467,0.666-0.983,1-1.55,1l-1.65-2.15
			l-0.25-0.5L9,44.8l3.4-1L13,44.4l0.6,3.949l-0.65-2.1l-1.5,2.25l0.85-1.4L11.25,48z M8.3,47.3l0.5,3l0.75-0.5L8.8,48.25l3.35-1.6
			H9.1l-0.35,1.5L8.3,47.3z M10,48.85l0.9-1.449L9.2,48.6L10,48.85z"/>
	</g>
	<path style="fill-rule:evenodd;clip-rule:evenodd;fill:#384D00;" d="M47.7,77.3c-1.8,1.834-2.9,2.9-3.3,3.2
		c-0.367,0.3-0.75,0.533-1.15,0.7c-0.233,0.166-0.4,0.267-0.5,0.3c-0.167,0.1-0.35,0.134-0.55,0.1
		c-0.101-0.033-0.233-0.149-0.4-0.35c-0.167-0.167-0.3-0.267-0.399-0.3c-0.233-0.033-0.367-0.017-0.4,0.05
		c-0.1,0.133-0.199,0.199-0.3,0.2c0.064,0.002-0.052,0.135-0.351,0.399c-0.066,0.034-0.166,0.017-0.3-0.05l-0.25-0.1
		c-0.767,0.333-1.167,0.5-1.2,0.5c-0.333,0.066-0.816,0.017-1.449-0.15c-1.101-0.467-1.75-0.666-1.95-0.6
		c-0.134,0.033-0.284,0.166-0.45,0.399c-0.233,0.267-0.383,0.417-0.45,0.45c-0.433,0.3-0.816,0.384-1.15,0.25
		c-0.4-0.267-0.8-0.467-1.2-0.6v0.25c-1.233-0.767-2.25-1.267-3.05-1.5c1.182,0.066,2.065,0.066,2.65,0
		c0.067,0.033,0.184,0.166,0.35,0.399c0.133,0.167,0.283,0.284,0.45,0.351l-0.15-0.9c-0.144,0.066-0.36,0.116-0.65,0.15
		c-1.3-1.267-3.433-2.316-6.4-3.15c1-0.033,2.15,0.134,3.45,0.5c1.4,0.4,2.433,0.9,3.1,1.5c-1.034-1.533-2.167-2.899-3.4-4.1
		c1.2-0.134,2.567,0.416,4.1,1.649c1.467,1.167,2.367,2.351,2.7,3.551c0.033-0.4-0.116-1.384-0.45-2.95
		c-0.233-1.3-0.233-2.25,0-2.851c0.4,0.4,0.784,1.15,1.15,2.25c0.434,1.4,0.7,2.217,0.8,2.45c0.301-1.166,0.95-2.434,1.95-3.8
		c0.566-0.767,1.434-1.917,2.601-3.45c-0.7,3.233-1.067,5.467-1.101,6.7c0.167-0.366,0.783-1.033,1.851-2
		c2.133-2.033,3.466-3.25,4-3.65c-0.134,0.434-0.45,1.034-0.95,1.801c-0.533,0.833-0.884,1.383-1.05,1.649
		c-0.733,1.334-1.367,2.617-1.9,3.851c0.333-0.067,1.066-0.517,2.2-1.351c0.033-0.033,0.866-0.649,2.5-1.85
		c1.033-0.767,1.916-1.316,2.649-1.65C49.283,75.884,48.733,76.467,47.7,77.3z"/>
	<path style="fill-rule:evenodd;clip-rule:evenodd;fill:#577820;" d="M31.75,79.9c1.333,0.767,2.117,1.566,2.35,2.399
		c0.1,0.634,0.05,1.05-0.15,1.25c-0.134,0.167-0.667,0.184-1.6,0.05c-0.867-0.1-1.367-0.199-1.5-0.3l-0.75-0.1
		c-1.426-1.499-2.751-2.466-3.975-2.9c1.146,0.284,2.554,0.75,4.225,1.4c-0.067-0.367-0.333-0.8-0.8-1.3
		c-0.5-0.534-0.8-0.95-0.9-1.25C29.383,78.884,30.417,79.134,31.75,79.9z"/>
	<path style="fill-rule:evenodd;clip-rule:evenodd;fill:#577820;" d="M37.6,83.05c0-0.434,0.017-1.133,0.051-2.1
		c0-0.837-0.092-1.487-0.275-1.95c0.141,0.33,0.449,0.797,0.925,1.4c0.467,0.566,0.767,1.033,0.9,1.399
		c0.066-0.434,0.283-0.983,0.649-1.649c0.4-0.834,0.65-1.367,0.75-1.601c0.067,0.7,0.117,1.267,0.15,1.7
		c0.033,0.866-0.033,1.417-0.2,1.65s-0.517,0.433-1.05,0.6c-0.566,0.167-0.917,0.15-1.05-0.05L37.6,83.05z"/>
	<path style="fill-rule:evenodd;clip-rule:evenodd;fill:#577820;" d="M41.35,83.2c1.667-1.767,2.917-3.917,3.75-6.45
		c-0.1,2.767-0.149,4.233-0.149,4.4c-0.367,2.066-1.233,2.833-2.601,2.3L41.35,83.2z"/>
</g>
</svg>
