<?xml version="1.0" encoding="iso-8859-1"?>
<!-- Generator: Adobe Illustrator 15.1.0, SVG Export Plug-In . SVG Version: 6.00 Build 0)  -->
<!DOCTYPE svg PUBLIC "-//W3C//DTD SVG 1.1//EN" "http://www.w3.org/Graphics/SVG/1.1/DTD/svg11.dtd">
<svg version="1.1" id="FlashAICB" xmlns="http://www.w3.org/2000/svg" xmlns:xlink="http://www.w3.org/1999/xlink" x="0px" y="0px"
	 width="122.9px" height="154.15px" viewBox="0 0 122.9 154.15" style="enable-background:new 0 0 122.9 154.15;"
	 xml:space="preserve">
<symbol  id="FlashAICB_x2F_Layer_1_x2F__x3C_Path_x3E_" viewBox="0.005 -6.2 30.445 6.2">
	<g id="Layer_1_2_">
		<path style="fill-rule:evenodd;clip-rule:evenodd;" d="M25.05-0.65c0.3,0,1.067-0.333,2.3-1c1.233-0.667,1.883-1,1.95-1
			c0.267,0,0.517-0.417,0.75-1.25c0.133-0.067,0.233-0.25,0.3-0.55l0.1-0.05l-0.7-0.6c-0.867-0.333-1.617-0.7-2.25-1.1l-0.1,0.05
			L27.25-5.3c-0.067,0.466-2.033,0.367-5.9-0.3c-0.833,0.867-2.483,1.167-4.95,0.9c-2.733-0.466-4.55-0.7-5.45-0.7
			c-0.6,0-1.083-0.233-1.45-0.7C9.333-6.3,8.633-5.983,7.4-5.15C6.3-4.75,5.233-4.567,4.2-4.6c-0.333,0-1.05-0.117-2.15-0.35H1.7
			L1.95-5L0.9-4.95L0.25-4.1c-0.233,0.033-0.3,0.2-0.2,0.5C0.083-3.433,0.133-3.383,0.2-3.45c0.066-0.033,0.1,0,0.1,0.1
			c0,0.067,0.117,0.083,0.35,0.05c0.2,0,0.317,0.167,0.35,0.5l0.05,0.4L1.3-2.15l0.2,0.1h0.35c0.066,0,0.15-0.167,0.25-0.5
			C2.233-2.883,2.317-3.033,2.35-3S2.7-2.333,3.3-1.1c0.034,0,0.717,0.033,2.05,0.1c0.8,0.033,1.183,0.367,1.15,1
			C9.533,0,15.717-0.217,25.05-0.65z"/>
	</g>
</symbol>
<g>
	<g>
		
			<radialGradient id="SVGID_1_" cx="60.1704" cy="150.8574" r="18.8262" gradientTransform="matrix(0.9999 -0.0113 -0.0232 -0.4502 11.2894 218.6906)" gradientUnits="userSpaceOnUse">
			<stop  offset="0" style="stop-color:#000000;stop-opacity:0.4196"/>
			<stop  offset="1" style="stop-color:#000000;stop-opacity:0"/>
		</radialGradient>
		<path style="fill-rule:evenodd;clip-rule:evenodd;fill:url(#SVGID_1_);" d="M48.85,148.25c0-2.2,1.867-4.066,5.6-5.6
			c3.733-1.567,8.233-2.351,13.5-2.351s9.767,0.783,13.5,2.351c3.733,1.533,5.6,3.399,5.6,5.6c0,2-1.566,3.75-4.7,5.25l-0.55-0.25
			c-0.133-0.1-0.833-0.283-2.1-0.55c-0.167-0.033-0.601-0.25-1.3-0.65c-0.667-0.366-1.084-0.566-1.25-0.6
			c-0.7,0-1.434-0.167-2.2-0.5c-0.733-0.334-1.467-0.5-2.2-0.5c-0.7-0.5-1.267-0.867-1.7-1.101c-0.8-0.433-1.467-0.35-2,0.25
			c-1.566,0.801-2.566,1.284-3,1.45c-0.633,0.267-1.416,0.467-2.35,0.601c-0.367,0.033-0.584,0.416-0.65,1.149l-0.1-0.05
			c-0.4-0.134-0.917-0.35-1.55-0.65c-0.934-0.466-1.434-0.716-1.5-0.75c-1.1-0.466-2.217-0.666-3.35-0.6
			c-0.333,0-1.05,0.116-2.15,0.35h-0.35l0.25,0.051c-1.267-0.101-2.383,0.149-3.35,0.75C49.55,150.767,48.85,149.55,48.85,148.25z"
			/>
		
			<use xlink:href="#FlashAICB_x2F_Layer_1_x2F__x3C_Path_x3E_"  width="30.445" height="6.2" x="0.005" y="-6.2" transform="matrix(1 0 0 -1 52.3501 146.1504)" style="overflow:visible;opacity:0.1484;enable-background:new    ;"/>
	</g>
	<path style="fill-rule:evenodd;clip-rule:evenodd;fill:#123800;" d="M46.4,42.15c3.7-0.3,6.2-0.45,7.5-0.45
		c2.9,0,5.367,0.366,7.4,1.1c1.566,0.567,3.134,1.7,4.7,3.4c1.366,1.433,2.517,3,3.45,4.7c0.967,1.767,1.517,4.017,1.649,6.75
		c0.167,2.667-0.083,5.017-0.75,7.05c-0.366,1.066-0.983,2.167-1.85,3.3c-1.066,1.333-1.866,2.333-2.4,3
		c-2.333,3.167-4.533,5.883-6.6,8.15c-1.233,1.399-2.133,2.433-2.7,3.1c-1.033,1.134-2.017,2.1-2.95,2.9
		c-0.934,0.8-2.1,1.649-3.5,2.55c-1.6,1.033-2.817,1.833-3.65,2.399l-3.3,2.5c-1.333,1-2.483,1.767-3.45,2.301
		c-1.233,0.699-2.767,1.3-4.6,1.8c-2.167,0.533-3.767,0.916-4.8,1.149c-8,1.801-12.917,1.65-14.75-0.449
		c-0.133-0.134-0.333-0.25-0.6-0.351c-0.133-0.033-0.167-0.217-0.1-0.55c0.033-0.267,0.533-0.733,1.5-1.4
		c0.5-0.366,1.1-0.767,1.8-1.199c0.367-0.267,0.9-0.551,1.6-0.851c0.767-0.333,1.283-0.583,1.55-0.75c1.667-1,2.35-2.283,2.05-3.85
		c-0.133-0.566-0.817-2.033-2.05-4.4c-1.433,0.233-3.167,0.167-5.2-0.2c-2.3-0.5-4-0.833-5.1-1c0.467-0.433,1.183-1.183,2.15-2.25
		c0.867-0.899,1.7-1.482,2.5-1.75c0.567-0.199,1.567-0.35,3-0.449c1.333-0.067,2.333-0.267,3-0.601
		c4.067-2.033,6.983-5.417,8.75-10.15c-0.566-0.133-1.316-0.15-2.25-0.05c-1,0.133-1.75,0.2-2.25,0.2
		c0.367-1.2,2.383-2.883,6.05-5.05c1.133-0.667,2.4-1.2,3.8-1.6c0.467-0.133,1.767-0.433,3.9-0.9c-0.566-0.133-1.917-0.367-4.05-0.7
		c-1.633-0.233-2.983-0.55-4.05-0.95c-1.367-0.5-2.95-1.317-4.75-2.45c-1-0.633-2.5-1.583-4.5-2.85c0.934-1.233,2.95-1.8,6.05-1.7
		c4.133,0.133,6.4,0.15,6.8,0.05c-1.733-1.367-3.2-2.833-4.4-4.4c-1.633-2.167-2.367-4.05-2.2-5.65c1.434-0.333,3.05-0.2,4.85,0.4
		c2.767,0.9,4.283,1.367,4.55,1.4L46.4,42.15z"/>
	<path style="fill-rule:evenodd;clip-rule:evenodd;fill:#123800;" d="M104.75,65.55c1.8,1,3.25,1.517,4.35,1.55
		c0.334,1.833-0.899,3.433-3.699,4.8c-1.867,0.9-4,1.534-6.4,1.9c2.233,0.9,3.833,1.583,4.8,2.05c1.7,0.867,2.8,2.284,3.3,4.25
		c0.667,2.5-0.149,4.801-2.449,6.9c-1.767,1.634-3.95,2.467-6.551,2.5c-1.432,0-2.939-0.233-4.524-0.7
		c1.389,0.698,2.664,1.748,3.825,3.15c1.8,2.233,2.566,4.5,2.3,6.8c-0.4,0.066-1.184,0.134-2.351,0.2
		c-1.033,0.066-1.816,0.166-2.35,0.3c-0.5,0.134-1.283,0.434-2.35,0.9c-1,0.433-1.801,0.699-2.4,0.8c-1.366,0.233-3.066,0.3-5.1,0.2
		c-2.9-0.167-4.584-0.25-5.051-0.25c0.767,0.767,1.301,1.35,1.601,1.75c0.533,0.666,0.783,1.399,0.75,2.199
		c-2.601,0.367-4.55,0.617-5.851,0.75c-2.267,0.267-4.216,0.367-5.85,0.301c-1.8-0.067-3.05-0.2-3.75-0.4
		c-0.033,0-0.384-0.167-1.05-0.5c-0.434-0.233-0.816-0.316-1.15-0.25c-0.5,0.066-0.85,0.267-1.05,0.6
		c-0.366,0.601-0.616,0.967-0.75,1.101c-0.9,0.934-2.317,1.767-4.25,2.5c-0.767,0.3-2.367,0.8-4.8,1.5
		c-3.133,0.866-5.4,1.434-6.8,1.7c-3.2,0.6-5.533,0.616-7,0.05c0.867-0.601,1.65-1.566,2.35-2.9c0.933-1.733,1.55-2.8,1.85-3.2
		c0.566-0.733,1.45-1.616,2.65-2.649c1.5-1.3,2.45-2.167,2.85-2.601c-0.934,0.934-2.717,1.584-5.35,1.95
		c-2.9,0.233-4.85,0.417-5.85,0.55c-2.3,0.4-4.167,0.667-5.6,0.801c-2.7,0.233-4.383-0.051-5.05-0.851
		c0.067-0.066,1.667-2.149,4.8-6.25c2.1-2.733,4.05-4.233,5.85-4.5l9.45-17.9c0.8-0.533,1.85-1.033,3.15-1.5
		c0.7-0.267,1.783-0.667,3.25-1.2c1.3-0.5,3.717-1.55,7.25-3.15c3-1.366,5.434-2.366,7.3-3c4-1.4,7.217-2.417,9.65-3.05
		c3.566-0.934,6.883-1.467,9.95-1.6c2.3-0.1,4.333-0.017,6.1,0.25c2,0.333,3.967,0.934,5.9,1.8
		C102.417,64.233,103.783,65.017,104.75,65.55z"/>
	<path style="fill-rule:evenodd;clip-rule:evenodd;fill:#123800;" d="M85.25,42.2c0.7,1.633,1.233,5.483,1.6,11.55
		c5.467-1.967,10-2.633,13.601-2c0.366,2.833,0.483,4.75,0.35,5.75c-0.267,1.934-1.25,3.434-2.95,4.5c-1.399,0.9-3.35,1.6-5.85,2.1
		c-2.934,0.633-4.934,0.483-6-0.45l-15.5,11.7c-5.267-0.2-8.85-1.55-10.75-4.05c-1.133-1.466-1.783-3.483-1.95-6.05
		c-0.133-2.2,0.1-4.35,0.7-6.45c1-3.466,3.434-6.9,7.3-10.3c2.167-1.867,5.65-4.333,10.45-7.4C80.75,38.267,83.75,38.633,85.25,42.2
		z"/>
	<path style="fill-rule:evenodd;clip-rule:evenodd;fill:#103000;" d="M35.95,98.1c1.133-0.166,2.533-0.783,4.2-1.85
		c0.9-0.6,2.2-1.483,3.9-2.65l0.55,0.45c0.066,0.101,0.117,0.167,0.15,0.2c0.067,0.066,0.167,0.083,0.3,0.05
		c0.067,1.101,0.767,1.9,2.1,2.4c1.567,0.399,2.617,0.767,3.15,1.1c-2.1,1-4.533,1.634-7.3,1.9
		C39.567,100.033,37.217,99.5,35.95,98.1z"/>
	<path style="fill-rule:evenodd;clip-rule:evenodd;fill:#103000;" d="M26.55,94.65l3.65-6.601c-0.3-0.866,0.083-1.733,1.15-2.6
		c0.566-0.5,1.45-1.117,2.65-1.851c1.9-1.466,3.5-2.5,4.8-3.1c2.1-0.967,3.934-1.15,5.5-0.55c1.167,0.434,2.467,1.5,3.9,3.2
		c1.566,2,2.667,3.35,3.3,4.05c1.1,0.899,1.967,1.616,2.6,2.149c1.167,1.034,1.767,1.9,1.8,2.601c-1.8,0.434-3.967,0.25-6.5-0.55
		c-2.867-1.067-4.967-1.801-6.3-2.2c-1.267-0.367-1.983-0.351-2.15,0.05c-0.133,0.934-0.483,1.816-1.05,2.65
		c-1.233,1.866-3.283,2.816-6.15,2.85C30.417,94.483,28.017,94.45,26.55,94.65z"/>
	<path style="fill-rule:evenodd;clip-rule:evenodd;fill:#103000;" d="M97.3,85.7c-2.8,3.133-7.399,4.983-13.8,5.55
		c3.033,1.3,6.684,1.733,10.95,1.3C92.85,94.116,89.7,95.233,85,95.9c-2.8,0.366-4.7,0.55-5.7,0.55c-2.333,0-4.133-0.5-5.399-1.5
		c-1.567-1.233-1.934-2.75-1.101-4.55c0.733-1.567,2.25-3.084,4.55-4.551c2.233-1.433,4.534-2.399,6.9-2.899
		c2.533-0.5,4.467-0.283,5.8,0.649L97.3,85.7z"/>
	<path style="fill-rule:evenodd;clip-rule:evenodd;fill:#103000;" d="M77.3,102.05c0.945,0.426,1.063,0.875,0.351,1.351
		c-0.601,0.433-1.384,0.733-2.351,0.899c-1.333,0.2-2.899,0.184-4.7-0.05c-2.866-0.4-4.416-0.6-4.649-0.6
		C69.584,102.905,73.367,102.372,77.3,102.05z"/>
	<path style="fill-rule:evenodd;clip-rule:evenodd;fill:#103000;" d="M70.1,65.6l-1.449-2.15c0.233,1.433,0.166,3-0.2,4.7
		c-0.434,1.967-1.15,3.3-2.15,4c-0.566,0.4-1.316,0.583-2.25,0.55c-1-0.034-1.649-0.333-1.95-0.9c-0.233-0.466-0.149-1.35,0.25-2.65
		c0.2-0.7,0.483-1.55,0.851-2.55c0.133-0.434,0.733-2.15,1.8-5.15c0.733-2.067,1.25-3.8,1.55-5.2c0.8,1.033,1.55,2.517,2.25,4.45
		C69.4,62.367,69.833,64,70.1,65.6z"/>
	<path style="fill-rule:evenodd;clip-rule:evenodd;fill:#103000;" d="M51.8,52.2l-1.2,3.15c1.733,1.367,2.933,2.867,3.6,4.5
		c0.8,1.933,0.75,3.85-0.15,5.75c-0.633,1.367-1.8,2.083-3.5,2.15c-1.167,0.033-2.683-0.267-4.55-0.9c-6.9-2.467-9.933-4.8-9.1-7
		c0.2-0.567,1.184-1.267,2.95-2.1c0.9-0.434,1.9-0.867,3-1.3c0.767-0.367,2.2-1.2,4.3-2.5C49.15,52.816,50.7,52.233,51.8,52.2z"/>
	<path style="fill-rule:evenodd;clip-rule:evenodd;fill:#5C3C10;" d="M67.95,69.6c0.066,1.767,0.083,3.117,0.05,4.05
		c0,2.867,0.017,4.484,0.05,4.85c0.2,1.833,0.167,3.283-0.1,4.35c-0.434,1.834-0.834,3.25-1.2,4.25c-0.767,2.134-1.033,3.7-0.8,4.7
		c0.1,0.467,0.333,1.101,0.7,1.9c0.433,0.934,0.699,1.566,0.8,1.899c0.333,1.034,0.6,2.75,0.8,5.15c0.1,1.366,0.25,2.233,0.45,2.6
		c-0.033,0.233,0,0.4,0.1,0.5c0.066,0.101,0.316,0.051,0.75-0.149c0.518-0.218,1.025-0.359,1.525-0.425
		c-0.169,0.344-0.311,0.652-0.425,0.925c-0.5,1.1-0.733,1.95-0.7,2.55c0,0.533,0.25,1.116,0.75,1.75c0.7,0.833,1.1,1.35,1.2,1.55
		c0.866,1.601,1.399,2.884,1.6,3.851l0.35,2.25c0,0.533,0.034,0.883,0.101,1.05c0.1,0.366,0.35,0.783,0.75,1.25
		c0.399,0.467,0.649,0.833,0.75,1.1c0.066,0.233,0.1,0.917,0.1,2.05c0,0.733,0.084,1.65,0.25,2.75
		c0.233,1.801,0.351,2.717,0.351,2.75c0.066,0.767-0.051,2.384-0.351,4.851L75.4,134.35c-0.067,0.267-0.067,0.551,0,0.851
		c0.1,0.399,0.149,0.649,0.149,0.75c0,0.267-0.1,0.666-0.3,1.2c-0.2,0.533-0.316,0.933-0.35,1.199
		c-0.267,1.301-0.417,2.284-0.45,2.95c-0.101,1.566,0.066,2.816,0.5,3.75c0.733,1.367,1.267,2.417,1.6,3.15
		c0.4,0.934,0.95,1.666,1.65,2.2c-0.566-0.034-0.967-0.017-1.2,0.05c-0.233,0.233-0.384,0.35-0.45,0.35
		c-0.5,0.167-1.1,0.25-1.8,0.25c-2.833,0-4.533-0.017-5.1-0.05c-2-0.267-3.517-0.4-4.551-0.4c-1.166-0.033-2.883,0.051-5.149,0.25
		c-0.567,0.101-1,0.167-1.3,0.2c-0.5,0.033-0.917-0.066-1.25-0.3l-1.75-1.4c0.6-0.267,1.35-0.767,2.25-1.5
		c1.1-0.899,1.833-1.466,2.2-1.699c0.7-0.467,1.516-1.134,2.45-2c0.233-0.233,0.7-0.65,1.4-1.25c0.633-0.567,1.066-1.051,1.3-1.45
		c0.134-0.233,0.267-0.65,0.4-1.25c0.233-0.434,0.699-1.066,1.399-1.9c0.533-0.866,0.934-1.767,1.2-2.7c0.134-0.5,0.2-1.699,0.2-3.6
		c0-1.1,0.133-2.717,0.399-4.85c0.067-0.334,0.217-0.917,0.45-1.75c0.2-0.733,0.316-1.367,0.351-1.9c0-0.533,0.05-1.316,0.149-2.35
		c0-0.367,0.033-1,0.101-1.9c0-0.8-0.067-1.417-0.2-1.85c-0.134-0.4-0.384-0.967-0.75-1.7l-0.4-2.101
		c-0.233-0.899-0.75-1.883-1.55-2.949c-1.333-1.733-2.017-2.634-2.05-2.7c-0.4-0.634-0.75-1.467-1.05-2.5
		c-0.167-0.566-0.4-1.45-0.7-2.65l-0.55,0.351c0.161-0.243,0.194-0.743,0.1-1.5c-0.1-1.034-0.283-1.7-0.55-2
		c0.3-0.134,0.517-0.084,0.649,0.149c0.101,0.334,0.2,0.566,0.301,0.7c0.133,0.233,0.366,0.483,0.699,0.75
		c0.367,0.3,0.617,0.533,0.75,0.7c0.2,0.233,0.551,0.767,1.051,1.6c0.433,0.7,0.833,1.184,1.199,1.45
		c-0.133-1.5-0.25-2.483-0.35-2.95c-0.167-1.033-0.434-1.983-0.8-2.85c-0.2-0.5-0.634-1.384-1.3-2.65
		c-0.534-1.166-0.834-2.083-0.9-2.75c-0.167-1.7-0.35-2.899-0.55-3.6c-0.066-0.233-0.184-0.267-0.351-0.101
		c-0.166,0.2-0.283,0.167-0.35-0.1c-0.2-0.6-0.3-1.333-0.3-2.2c0-0.5,0.017-1.25,0.05-2.25c0.033-0.933,0.05-2.333,0.05-4.2
		c0.033-0.466,0.167-1.116,0.4-1.949c0.233-0.867,0.366-1.517,0.399-1.95c0-0.1-0.083-1-0.25-2.7c-0.133-1.333-0.05-2.184,0.25-2.55
		c0.334,4.966,0.867,9.184,1.601,12.649c0.467,0.067,0.85-0.267,1.149-1c0.067-0.133,0.233-0.732,0.5-1.8
		c0.034-0.133,0.15-1.2,0.351-3.2c0.066-0.899,0.217-2.35,0.45-4.35c0.199-1.8,0.199-3.25,0-4.35c-0.101-0.5-0.301-1.367-0.601-2.6
		c-0.3-1.066-0.483-1.933-0.55-2.6c-0.267-2.367-0.434-4.1-0.5-5.2c1.167,2.3,1.866,4.1,2.1,5.4
		C67.717,67.316,67.917,68.8,67.95,69.6z M71.4,103.25c-0.11,0.006-0.219,0.015-0.325,0.025c0.213-0.447,0.471-0.956,0.774-1.525
		c-0.066,0.134-0.116,0.434-0.149,0.9C71.7,103.017,71.6,103.217,71.4,103.25z"/>
	<g>
		<path style="fill-rule:evenodd;clip-rule:evenodd;fill:#4A320A;" d="M71.85,101.775c-0.067,0.131-0.117,0.423-0.149,0.875
			c0,0.366-0.101,0.566-0.3,0.6L71.1,103.3L71.85,101.775z"/>
		<path style="fill-rule:evenodd;clip-rule:evenodd;fill:#4A320A;" d="M67.35,65.15c0.367,2.167,0.567,3.65,0.601,4.45
			c0.066,1.767,0.083,3.117,0.05,4.05c0,2.867,0.017,4.484,0.05,4.85c0.2,1.833,0.167,3.283-0.1,4.35
			c-0.434,1.834-0.834,3.25-1.2,4.25c-0.767,2.134-1.033,3.7-0.8,4.7c0.1,0.467,0.333,1.101,0.7,1.9
			c0.433,0.934,0.699,1.566,0.8,1.899c0.333,1.034,0.6,2.75,0.8,5.15c0.1,1.366,0.25,2.233,0.45,2.6c-0.033,0.233,0,0.4,0.1,0.5
			c0.066,0.067,0.3,0.034,0.7-0.1c0.566-0.233,1.1-0.384,1.6-0.45c-0.8,1.533-1.183,2.684-1.149,3.45c0,0.533,0.25,1.116,0.75,1.75
			c0.7,0.833,1.1,1.35,1.2,1.55c0.866,1.601,1.399,2.884,1.6,3.851l0.35,2.25c0,0.533,0.034,0.883,0.101,1.05
			c0.1,0.366,0.35,0.783,0.75,1.25c0.399,0.467,0.649,0.833,0.75,1.1c0.066,0.233,0.1,0.917,0.1,2.05c0,0.733,0.084,1.65,0.25,2.75
			c0.233,1.801,0.351,2.717,0.351,2.75c0.066,0.767-0.051,2.384-0.351,4.851L75.4,134.35c-0.067,0.267-0.067,0.551,0,0.851
			c0.1,0.399,0.149,0.649,0.149,0.75c0,0.267-0.1,0.666-0.3,1.2c-0.2,0.533-0.316,0.933-0.35,1.199
			c-0.267,1.301-0.417,2.284-0.45,2.95c-0.101,1.566,0.066,2.816,0.5,3.75c0.733,1.367,1.267,2.417,1.6,3.15
			c0.4,0.934,0.95,1.666,1.65,2.2c-0.566-0.034-0.967-0.017-1.2,0.05c-0.233,0.233-0.384,0.35-0.45,0.35
			c-0.5,0.167-1.1,0.25-1.8,0.25c-2.833,0-4.533-0.017-5.1-0.05c-2-0.267-3.517-0.4-4.551-0.4c-1.166-0.033-2.883,0.051-5.149,0.25
			c-0.567,0.101-1,0.167-1.3,0.2c-0.5,0.033-0.917-0.066-1.25-0.3l-1.75-1.4c0.6-0.267,1.35-0.767,2.25-1.5
			c1.1-0.899,1.833-1.466,2.2-1.699l0.05-0.051c0.333,0.2,0.617,0.334,0.85,0.4c0.533,0.134,1.15,0.2,1.85,0.2
			c0.867,0,1.483-0.101,1.851-0.3l-0.25,0.899c0.166-0.366,0.717-1.116,1.649-2.25c0.733-0.934,1.15-1.767,1.25-2.5
			c-0.066,2.066-0.066,3.617,0,4.65c0.2-0.233,0.483-0.55,0.851-0.95c0.333-0.4,0.55-0.767,0.649-1.1
			c0.101-0.301,0.184-0.7,0.25-1.2c0.101-0.434,0.267-0.834,0.5-1.2c0.334-0.6,0.534-1.3,0.601-2.1
			c0.066-0.434,0.116-1.184,0.149-2.25c0.167,0.399,0.233,1.033,0.2,1.899c-0.033,1.033-0.033,1.7,0,2
			c0.566-0.7,0.867-1.833,0.9-3.399c0.066-1.9,0.184-3.101,0.35-3.601l0.15,1c0-1.1,0.05-2.767,0.149-5
			c-0.033-0.6-0.183-1.649-0.449-3.149c-0.2-1.367-0.15-2.4,0.149-3.101l0.65,0.851c-0.066-0.834-0.084-2.117-0.05-3.851
			c-0.067-1.5-0.301-2.733-0.7-3.7c-0.233-0.566-0.267-1.3-0.101-2.199c0.167-1,0.184-1.75,0.051-2.25
			c-0.134-0.534-0.45-0.983-0.95-1.351c-0.934-0.6-1.417-0.916-1.45-0.95c-0.3-0.267-0.717-0.699-1.25-1.3
			c-0.167-0.133-0.45-0.366-0.85-0.7c-0.4-0.267-0.75-0.35-1.051-0.25L66,109.4c-0.233-0.334-0.583-0.817-1.05-1.45
			c-0.4-0.634-0.75-1.467-1.05-2.5c-0.167-0.566-0.4-1.45-0.7-2.65l-0.55,0.351c0.199-0.334,0.233-0.95,0.1-1.851
			c-0.134-0.866-0.316-1.416-0.55-1.649c0.3-0.134,0.517-0.084,0.649,0.149c0.101,0.334,0.2,0.566,0.301,0.7
			c0.133,0.233,0.366,0.483,0.699,0.75c0.367,0.3,0.617,0.533,0.75,0.7c0.2,0.233,0.551,0.767,1.051,1.6
			c0.433,0.7,0.833,1.184,1.199,1.45c-0.133-1.5-0.25-2.483-0.35-2.95c-0.167-1.033-0.434-1.983-0.8-2.85
			c-0.2-0.5-0.634-1.384-1.3-2.65c-0.534-1.166-0.834-2.083-0.9-2.75c-0.167-1.7-0.35-2.899-0.55-3.6
			c-0.066-0.233-0.184-0.267-0.351-0.101c-0.166,0.2-0.283,0.167-0.35-0.1c-0.2-0.6-0.3-1.333-0.3-2.2c0-0.5,0.017-1.25,0.05-2.25
			c0.033-0.933,0.05-2.333,0.05-4.2c0.033-0.466,0.167-1.116,0.4-1.949c0.233-0.867,0.366-1.517,0.399-1.95c0-0.1-0.083-1-0.25-2.7
			c-0.133-1.333-0.05-2.184,0.25-2.55c0.334,4.966,0.867,9.184,1.601,12.649c0.467,0.067,0.85-0.267,1.149-1
			c0.067-0.133,0.233-0.732,0.5-1.8c0.034-0.133,0.15-1.2,0.351-3.2c0.066-0.899,0.217-2.35,0.45-4.35c0.199-1.8,0.199-3.25,0-4.35
			c-0.101-0.5-0.301-1.367-0.601-2.6c-0.3-1.066-0.483-1.933-0.55-2.6c-0.267-2.367-0.434-4.1-0.5-5.2
			C66.417,62.05,67.116,63.85,67.35,65.15z"/>
	</g>
	<path style="fill-rule:evenodd;clip-rule:evenodd;fill:#362607;" d="M68.6,104.95l1.65,0.25c-0.233,0.666-0.333,1.184-0.3,1.55
		c0,0.533,0.25,1.116,0.75,1.75c0.7,0.833,1.1,1.35,1.2,1.55c0.866,1.601,1.399,2.884,1.6,3.851l0.35,2.25
		c0,0.533,0.034,0.883,0.101,1.05c0.1,0.366,0.35,0.783,0.75,1.25c0.399,0.467,0.649,0.833,0.75,1.1c0.066,0.233,0.1,0.917,0.1,2.05
		c0,0.733,0.084,1.65,0.25,2.75c0.233,1.801,0.351,2.717,0.351,2.75c0.066,0.767-0.051,2.384-0.351,4.851L75.4,134.35
		c-0.067,0.267-0.067,0.551,0,0.851c0.1,0.399,0.149,0.649,0.149,0.75c0,0.267-0.1,0.666-0.3,1.2c-0.2,0.533-0.316,0.933-0.35,1.199
		c-0.267,1.301-0.417,2.284-0.45,2.95c-0.101,1.566,0.066,2.816,0.5,3.75c0.733,1.367,1.267,2.417,1.6,3.15
		c0.4,0.934,0.95,1.666,1.65,2.2c-0.566-0.034-0.967-0.017-1.2,0.05c-0.233,0.233-0.384,0.35-0.45,0.35
		c-0.5,0.167-1.1,0.25-1.8,0.25c-2.833,0-4.533-0.017-5.1-0.05c-2-0.267-3.517-0.4-4.551-0.4c-1.166-0.033-2.883,0.051-5.149,0.25
		L59.9,150.9c-0.1-0.267-0.117-0.567-0.05-0.9c1.7-0.134,2.633-0.217,2.8-0.25c0.866-0.267,1.449-0.934,1.75-2
		c0.399,0.434,0.699,0.75,0.899,0.95c0.4,0.366,0.75,0.616,1.05,0.75c1.567-2.233,2.717-3.733,3.45-4.5
		c1.101,1.267,1.8,1.149,2.101-0.351c0.166-0.8,0.3-1.933,0.399-3.399l0.55,0.2c0.434-0.567,0.65-1.5,0.65-2.801
		c0.033-1.5,0.134-2.483,0.3-2.949c0-2.034,0.184-4.584,0.55-7.65c0.134-1.167,0.051-2.65-0.25-4.45c-0.166-1-0.416-2.434-0.75-4.3
		c-0.333-3.2-0.816-5.783-1.449-7.75c-0.2-0.6-0.5-1.083-0.9-1.45c-0.634-0.566-1.017-0.95-1.15-1.149
		C69.217,108.033,68.8,106.717,68.6,104.95z"/>
	<path style="fill-rule:evenodd;clip-rule:evenodd;fill:#362607;" d="M65.85,81.65c0.067-0.167,0.317-1.134,0.75-2.9
		c2.834,0.967,3.051,3.533,0.65,7.7c-1.134,2.033-1.783,4.866-1.95,8.5c-0.5-1.033-1.066-1.684-1.7-1.95
		c-0.133,0.8-0.199,1.35-0.199,1.65c-0.5-0.7-0.684-1.767-0.551-3.2l-3.5-6.5c0-1.667,0.233-3.333,0.7-5
		c0.667-2.333,1.584-3.1,2.75-2.3c0.533,0.4,0.834,1.367,0.9,2.9c0.066,1.9,0.166,3,0.3,3.3C64.833,83.45,65.45,82.717,65.85,81.65z
		"/>
	<path style="fill-rule:evenodd;clip-rule:evenodd;fill:#362607;" d="M62.85,55.95c-0.066-0.4,0-0.717,0.2-0.95
		c1.934,2.066,3.367,4.15,4.3,6.25c1.267,2.8,1.434,5.283,0.5,7.45c-0.333-0.467-0.75-1.6-1.25-3.4c-0.199-0.667-0.55-1.667-1.05-3
		c-0.399-1.2-0.633-2.233-0.7-3.1L62.85,55.95z"/>
	<path style="fill-rule:evenodd;clip-rule:evenodd;fill:#362607;" d="M66.1,92.95h0.5c1.467,3.733,2.334,6.133,2.601,7.2
		c0.733,2.899,0.684,5.333-0.15,7.3c-0.934-0.334-1.316-1.2-1.149-2.601c0.199-1.933,0.25-3.05,0.149-3.35
		c-0.133-0.4-0.517-1.15-1.149-2.25c-0.467-0.833-0.733-1.684-0.801-2.55V92.95z"/>
	<path style="fill-rule:evenodd;clip-rule:evenodd;fill:#362607;" d="M65.85,102.7c0.101,0.267,0.601,1.184,1.5,2.75
		c0.733,1.2,1.051,2.116,0.95,2.75c-0.133,1.366-0.666,1.684-1.6,0.95c-0.4-0.301-0.584-1.101-0.55-2.4
		c0.033-0.7,0.1-1.55,0.199-2.55L65.85,102.7z"/>
	<path style="fill-rule:evenodd;clip-rule:evenodd;fill:#785225;" d="M68.45,113.2l0.3,0.2c0.533,1.133,0.884,1.933,1.05,2.399
		c0.233,0.8,0.367,1.684,0.4,2.65c-0.134-0.467-0.434-1.167-0.9-2.101C68.7,114.583,68.417,113.533,68.45,113.2z"/>
	<path style="fill-rule:evenodd;clip-rule:evenodd;fill:#785225;" d="M70.85,121.2L70.6,118.6c0.034,0.167,0.217,0.834,0.551,2
		c0.233,0.767,0.333,1.467,0.3,2.101c-0.101,1.934-0.417,3.184-0.95,3.75c-0.134-0.601-0.083-1.467,0.15-2.601
		C70.85,122.684,70.917,121.8,70.85,121.2z"/>
	<path style="fill-rule:evenodd;clip-rule:evenodd;fill:#785225;" d="M71.1,128.35c-0.137,0.103-0.262,0.236-0.375,0.4
		c-0.01-0.13-0.018-0.264-0.024-0.4H71.1z M70.725,128.75c0.084,1.836,0.125,3.236,0.125,4.2c0,1.434-0.316,2.934-0.949,4.5
		c-0.9,1.8-1.534,3.133-1.9,4c-0.688,1.475-1.038,2.899-1.05,4.274c-0.004-0.368-0.038-0.943-0.101-1.725
		c-0.033-0.733,0-1.316,0.101-1.75c0.133-0.533,0.517-1.25,1.149-2.15c0.233-0.466,0.434-1.083,0.601-1.85
		c0.2-0.934,0.35-1.566,0.45-1.9c0.399-1.233,0.666-3.017,0.8-5.35C70.124,129.983,70.382,129.233,70.725,128.75z"/>
	<path style="fill-rule:evenodd;clip-rule:evenodd;fill:#785225;" d="M71.2,134.625v2.625c-0.033,0.533-0.2,1.267-0.5,2.2
		c-0.334,0.967-0.517,1.684-0.55,2.149c-0.134-0.333-0.184-0.816-0.15-1.449c0-0.601,0.066-1.101,0.2-1.5
		c0.133-0.534,0.399-1.301,0.8-2.301C71.077,135.808,71.145,135.232,71.2,134.625z"/>
	<path style="fill-rule:evenodd;clip-rule:evenodd;fill:#785225;" d="M68.5,135.65c-0.134,0.833-0.384,1.733-0.75,2.699
		c-0.467,1.134-0.833,1.983-1.1,2.551c-0.273,0.665-0.531,1.231-0.775,1.699c-0.008,0.018-0.017,0.034-0.025,0.051
		c-0.229,0.434-0.446,0.783-0.649,1.05c-0.7,0.833-1.601,1.366-2.7,1.6c1.099-0.753,1.933-1.595,2.5-2.524
		c-0.265,0.026-0.564,0.052-0.9,0.074c0.134-0.366,0.417-0.816,0.851-1.35c0.533-0.6,0.866-1.033,1-1.3
		c0.3-0.5,0.767-1.233,1.399-2.2C67.917,137.134,68.3,136.35,68.5,135.65z"/>
	<path style="fill-rule:evenodd;clip-rule:evenodd;fill:#5C3C10;" d="M57.4,106.05c0.1-0.434,0.217-0.566,0.35-0.399
		c0.1,0.133,0.183,0.399,0.25,0.8c0.067,1.3,0.15,2.267,0.25,2.899c0.3,1.567,1.133,2.884,2.5,3.95
		c0.533,0.467,1.283,0.867,2.25,1.2c1.533,0.533,2.333,0.816,2.4,0.85c1.399,0.667,2.767,1.217,4.1,1.65
		c0.533,0.134,0.95,0.4,1.25,0.8l0.1,0.25c0.334,0.434,0.534,1.017,0.601,1.75c0.133,0.601,0.149,0.983,0.05,1.15
		c-0.233,0.467-0.717,0.45-1.45-0.05c-0.066-0.067-0.267-0.25-0.6-0.551c-0.2-0.233-0.4-0.383-0.601-0.449
		c-0.399-0.067-0.683-0.117-0.85-0.15c-0.3-0.1-0.667-0.35-1.1-0.75c-0.5-0.434-0.851-0.717-1.051-0.85
		c-0.466-0.301-1.216-0.617-2.25-0.95c-0.399-0.267-0.716-0.467-0.949-0.601c-0.134-0.066-0.601-0.216-1.4-0.449
		c-0.5-0.167-0.933-0.434-1.3-0.801c-1.233-1.233-2.017-2.966-2.35-5.199c-0.1-0.5-0.133-1.217-0.1-2.15
		C57.4,106.866,57.367,106.217,57.4,106.05z"/>
	<path style="fill-rule:evenodd;clip-rule:evenodd;fill:#4A320A;" d="M62.25,114.2c0.333,0.133,0.95,0.333,1.85,0.6
		c0.801,0.233,1.417,0.467,1.851,0.7c0.434,0.2,0.983,0.5,1.649,0.9c0.167,0.1,0.483,0.3,0.95,0.6c0.367,0.233,0.684,0.4,0.95,0.5
		c0.5,0.134,0.884,0.384,1.15,0.75c1.033,1.4,1.267,2.417,0.699,3.05c-0.166-0.2-0.399-0.366-0.699-0.5
		c-0.367-0.1-0.65-0.2-0.851-0.3c-0.2-0.134-0.616-0.366-1.25-0.7c-0.566-0.366-0.95-0.666-1.149-0.899
		c0.333,0,0.583-0.034,0.75-0.101c-0.267-0.2-0.733-0.45-1.4-0.75c0.6,0.233,1.167,0.316,1.7,0.25c-0.5-0.3-0.767-0.483-0.8-0.55
		c0.048-0.024,0.089-0.032,0.125-0.025c-0.268-0.161-0.609-0.387-1.025-0.675c-0.4-0.233-0.816-0.366-1.25-0.399h0.3
		c-0.066-0.267-0.533-0.551-1.399-0.851c-1-0.366-1.584-0.633-1.75-0.8l0.1-0.05c-0.2-0.134-0.783-0.417-1.75-0.851
		c-0.667-0.333-1.2-0.666-1.6-1c-0.3-0.267-0.833-1-1.6-2.199l-0.1,0.199c-0.233-0.233-0.383-0.683-0.45-1.35
		s-0.017-1.184,0.15-1.55l0.5-0.9c0.233,0.033,0.367,0.384,0.4,1.05c0.034,0.733,0.067,1.167,0.1,1.301
		c0.067,0.333,0.233,0.783,0.5,1.35c0.267,0.6,0.434,1.05,0.5,1.35c0.434,0.134,0.917,0.434,1.45,0.9
		C61.45,113.75,61.917,114.066,62.25,114.2z"/>
	<path style="fill-rule:evenodd;clip-rule:evenodd;fill:#362607;" d="M70.65,117.7l0.25,0.2c0.833,0.566,1.316,1.25,1.449,2.05
		c0.034,0.366-0.05,0.833-0.25,1.399c-0.233,0.601-0.399,0.567-0.5-0.1l-0.05,0.45c-0.333,0-0.434-0.184-0.3-0.55
		c-0.233-0.034-0.517-0.15-0.85-0.351c-0.301-0.2-0.817-0.5-1.551-0.899c0.367,0,0.9,0.05,1.601,0.149
		c-0.101-0.066-0.134-0.166-0.101-0.3c0.2-0.1,0.434-0.1,0.7,0c-0.033-0.267-0.316-0.566-0.85-0.9c-0.3-0.199-0.7-0.449-1.2-0.75
		c0.178-0.029,0.345-0.021,0.5,0.025c-0.198-0.08-0.715-0.389-1.55-0.925c0.3,0,0.75,0.083,1.35,0.25
		C69.9,117.616,70.35,117.7,70.65,117.7z"/>
	<path style="fill-rule:evenodd;clip-rule:evenodd;fill:#2D5907;" d="M94.25,56.4c-1.434,1.167-3.483,2-6.15,2.5l-2.55,0.3
		c-3.333,0.3-6.233,0.017-8.7-0.85L75.5,58l0.35-1.15l5.15-0.8l6.1-2.3l5.75-2.7L87,53.15l-10.65,2.3l1.101-3.5l1.25-0.8
		c2.7-1.466,5.7-2.383,9-2.75l0.399-0.05l7.351-0.1l2.45-0.35c0.933-0.2,1.716-0.6,2.35-1.2l0.3-0.05
		C98.05,51.617,95.95,54.867,94.25,56.4z M64.1,15.25L64.05,15c0.434,0.733,1.566,2.25,3.4,4.55c1.2,1.5,1.866,3.217,2,5.15v1.85
		l1.95-3.1c0.767-1.4,1.3-2.733,1.6-4c0.533,2.966,1.467,5.8,2.8,8.5c1.233,2.5,1.967,5.083,2.2,7.75
		c0.233,2.533,0.017,4.667-0.65,6.4c-0.399,1.033-1.583,2.917-3.55,5.65l-0.5,0.6l-3.95,2.3l4.25-6.4
		c1.934-3.934,2.75-7.717,2.45-11.35c-0.1-0.933-0.566-2.5-1.399-4.7c-0.867-2.367-1.351-4.217-1.45-5.55h-0.25
		c-1.134,3.1-2.584,5.95-4.351,8.55l-5.1,6.95c-0.634,0.934-1.134,1.767-1.5,2.5l0.3-1.75c-0.866,0.467-1.6,0.733-2.2,0.8
		l-0.35-0.95c0.9-0.3,1.85-0.783,2.85-1.45c0.134-0.866,0.317-1.583,0.551-2.15c0.666-1.733,1.517-3.233,2.55-4.5l2.95-3.2
		l-0.051-1.1c-0.1-1.1-0.666-2.567-1.699-4.4L64.55,17.6C64.65,16.8,64.5,16.017,64.1,15.25z M63.3,20.5l-3.05,3.8
		c-2.6,2.967-4.05,5.467-4.35,7.5l-1.4-1.75c0.167-1.066,0.75-2.133,1.75-3.2c0.4-0.467,1.783-1.65,4.15-3.55
		c1.534-1.3,2.65-2.483,3.35-3.55L63.3,20.5z M45.05,28c2.5,0.133,4.833,1.083,7,2.85l0.2,0.2l1.15,1.4l0.4,0.9
		c-0.8-0.467-1.7-0.833-2.7-1.1c-2.5-0.767-4.85-1.05-7.05-0.85l-3.9,0.7l-3.95-0.25c-1.934-0.233-3.15-0.483-3.65-0.75
		c1.233,1.2,2.85,2.117,4.85,2.75c2,0.6,3.85,0.833,5.55,0.7l5.75-0.8l4.2,0.45c0.5,0,0.95,0.083,1.35,0.25l0.05,0.3l-1.05,0.1
		c-1.567,0.167-3.167,0.55-4.8,1.15l-0.8,0.3c-1.933,0.833-4.066,1.35-6.4,1.55c-1.833,0.167-3.583,0-5.25-0.5
		c-1.167-0.3-2.217-0.717-3.15-1.25c-3.3-1.8-5.184-4.434-5.65-7.9c1.6,0.633,3.783,0.9,6.55,0.8l10.65-1.05L45.05,28z M56.7,40.65
		l1.05,2.55c0.533,1.2,1.017,3.2,1.45,6c-0.8-1.434-2.034-2.833-3.7-4.2c-2.233-1.867-3.917-3.533-5.05-5l2.3-0.05
		C54.25,40.05,55.567,40.283,56.7,40.65z M49.6,40.15c0.066,2.133-0.217,4.434-0.85,6.9l-0.5,2.65l-2.7-3.25
		c-1.767-1.7-3.583-2.7-5.45-3l8.15-2.95L49.6,40.15z M61.45,43.85l0.2,0.15c0.833,1,1.517,2.25,2.05,3.75l0.5,2.6l0.149,3.15
		l-2.75-9.3L61.45,43.85z M3.95,55.15L9.1,58.9c1.7,1.233,3.483,1.784,5.35,1.65l2.05-0.5c1.867-0.6,4.467-1.75,7.8-3.45l2.8-1.35
		c2.733-1.233,4.7-2,5.9-2.3l-3.1,1.85l1.85-0.2c1.4-0.167,3.433,0.183,6.1,1.05l0.05,0.05l0.25,0.45
		c-2.5-0.5-4.583-0.683-6.25-0.55c-3.133,0.3-6.683,1.767-10.65,4.4c-2.367,1.633-5.75,4.184-10.15,7.65l-0.2,0.3l1.2,0.25
		l-0.95,0.85L7.7,68.8c0-0.133-0.167-0.2-0.5-0.2c1.767-1.233,3.6-2.784,5.5-4.65l2.55-2.6l-2.8,0.5
		c-2.4,0.267-4.483-0.534-6.25-2.4c-2.034-2.034-4.1-3.2-6.2-3.5c1.467-0.733,4.133-2.884,8-6.45c2.867-2.633,5.9-4.1,9.1-4.4
		c3.9-0.333,7.6,0.383,11.1,2.15l3.15,2.05c-3.5-1.767-7.133-2.5-10.9-2.2c-3.333,0.367-6.667,1.433-10,3.2
		C7.717,51.8,5.55,53.417,3.95,55.15z M40.65,57.95h0.05c-3.333,3.767-5.8,6.366-7.4,7.8c-0.466,0.367-0.867,0.9-1.2,1.6l-0.45-0.15
		c-0.767-0.833-1.483-1.367-2.15-1.6l-0.9-0.35l3.65-2.3c2.667-1.733,4.733-3.034,6.2-3.9L40.65,57.95z M32.1,67.35l-0.1,0.2
		l-0.1-0.15L32.1,67.35z M49.8,79.3c0.034,1.601-0.05,3.3-0.25,5.101l-1.15-0.65c-1.7-0.967-3.783-1.967-6.25-3
		c0.167-1.733,0.517-3.117,1.05-4.15l0.45,0.45C44.917,78.15,46.967,78.9,49.8,79.3z M58.9,60.15c0.567-1.466,0.95-2.833,1.15-4.1
		l0.9,9.55c-1.4-0.6-2.633-1.434-3.7-2.5L58.9,60.15z"/>
	<path style="fill-rule:evenodd;clip-rule:evenodd;fill:#184700;" d="M64.2,16.9l2.7,5.05c1.033,1.833,1.6,3.3,1.699,4.4l0.051,1.1
		l-2.95,3.2c-1.033,1.267-1.884,2.767-2.55,4.5c-0.233,0.567-0.417,1.284-0.551,2.15c-1,0.667-1.95,1.15-2.85,1.45
		c-0.833-2.267-2.117-4.583-3.85-6.95c0.3-2.033,1.75-4.533,4.35-7.5l3.05-3.8l0.45-0.75C64.25,18.717,64.4,17.767,64.2,16.9z
		 M74.65,28.2c0.833,2.2,1.3,3.767,1.399,4.7c0.3,3.633-0.517,7.417-2.45,11.35l-4.25,6.4L66.45,53.5l-1.8,1.35L64.35,53.5
		L64.2,50.35c1.566-1.6,2.916-3.45,4.05-5.55c1.533-2.9,2.733-6.25,3.6-10.05l-0.149-1.5l-0.15,0.05c-0.733,2.567-2.467,5.8-5.2,9.7
		c-1.233,1.8-2.116,3.383-2.649,4.75c-0.533-1.5-1.217-2.75-2.05-3.75l-0.2-0.15l-0.3-1.05l0.149-0.5l0.7-1.65
		c0.366-0.733,0.866-1.566,1.5-2.5l5.1-6.95c1.767-2.6,3.217-5.45,4.351-8.55h0.25C73.3,23.983,73.783,25.833,74.65,28.2z
		 M43.15,26.35l-10.2,0.9l-2.4-4.75c5,0.6,8.784,1.617,11.35,3.05L43.15,26.35z M41.45,52.4c-1.034-0.633-2.117-1.716-3.25-3.25
		c-1.733-2.167-2.667-4.117-2.8-5.85c-0.033-0.267,0.083-1.5,0.35-3.7l0.05-0.7l3.05,0.55l4.6-0.3l5.1-1.55l-0.3,2.9l-8.15,2.95
		c1.867,0.3,3.683,1.3,5.45,3L41.8,52.3L41.45,52.4z M17.95,51.95l4.1-0.75c2.633-0.233,5.917,0.116,9.85,1.05l2.05,0.45L33,52.95
		c-1.2,0.3-3.167,1.066-5.9,2.3l-2.8,1.35c-3.333,1.7-5.933,2.85-7.8,3.45l-2.05,0.5c-1.867,0.134-3.65-0.417-5.35-1.65l-5.15-3.75
		c1.6-1.733,3.767-3.35,6.5-4.85c3.333-1.767,6.667-2.833,10-3.2c3.767-0.3,7.4,0.433,10.9,2.2l2.15,1.45l-2.05-0.4l-4.7-0.3
		l-8.05,1.6L17.95,51.95z M38.3,56.2l1.05,0.25l-7.5,1.45c-2.6,0.9-4.883,2.45-6.85,4.65c2.967-1.533,5.183-2.583,6.65-3.15
		c2.167-0.833,4.283-1.316,6.35-1.45h2.65l-2.2,1.1c-1.467,0.867-3.534,2.167-6.2,3.9l-3.65,2.3l-2.75-0.9
		c-1.833-0.467-3.4-0.633-4.7-0.5c-2.733,0.267-5.75,1.716-9.05,4.35l-1.2-0.25l0.2-0.3c4.4-3.466,7.783-6.017,10.15-7.65
		c3.967-2.633,7.517-4.1,10.65-4.4c1.667-0.133,3.75,0.05,6.25,0.55l0.05,0.05H38.3z M40.15,62.25l1.4-0.1
		c1.8,0.534,4.15,1.3,7.05,2.3l4.85,1.85l1.6,2.05c1.967,2.9,3.567,5.6,4.8,8.1l-0.2,0.4c-0.267-0.8-0.633-1.434-1.1-1.9
		c-0.533-0.667-1.433-1.3-2.7-1.9l-3.6-1.75c-1.4-0.9-2.617-2.066-3.65-3.5v0.1c0.133,1.534,0.767,2.833,1.9,3.9
		c0.667,0.667,1.9,1.45,3.7,2.35l3.75,1.95l1.45,1.25l-1.4,3.2l-0.7-0.2l-7.5-1.05c-2.833-0.399-4.883-1.149-6.15-2.25L43.2,76.6
		c-0.667-0.767-1.217-1.65-1.65-2.65c-0.5-1.3-0.85-2.884-1.05-4.75L40.15,62.25z"/>
	<path style="fill-rule:evenodd;clip-rule:evenodd;fill:#3F5E0D;" d="M46.25,82.35L47.1,83c2.433,1.467,4.433,3.033,6,4.7
		c3.133,3.333,5.6,5.684,7.4,7.05c1.066,0.833,2.017,1.816,2.85,2.95c0.4,0.566,1.117,1.733,2.15,3.5
		c0.5,0.833,0.816,1.583,0.95,2.25c0.166,0.733,0.184,1.633,0.05,2.7c-0.033,0.3-0.233,1.149-0.6,2.55
		c-0.128,0.455-0.212,0.872-0.25,1.25c-0.327-2.253-1.777-5.136-4.351-8.65c-0.6-0.8-1.4-1.85-2.4-3.149
		c-0.833-1.134-1.566-2.2-2.2-3.2c-1.5-2.467-3.55-4.8-6.15-7c-0.367-0.3-1.267-1.066-2.7-2.3c-1.333-1.134-2.25-1.867-2.75-2.2
		c-0.667-0.5-0.684-0.816-0.05-0.95C45.55,82.367,45.95,82.316,46.25,82.35z"/>
	<path style="fill-rule:evenodd;clip-rule:evenodd;fill:#3F5E0D;" d="M44.95,54.55c0.9,0.5,2,1.284,3.3,2.35
		c1.667,1.4,2.7,2.233,3.1,2.5c1.5,1.034,2.617,1.8,3.35,2.3c1.3,0.933,2.3,1.85,3,2.75c0.3,0.366,1.05,1.75,2.25,4.15
		c0.933,1.8,1.916,2.966,2.95,3.5c-0.2,0.6-0.233,1.45-0.101,2.55c0.233,1.667,0.351,2.55,0.351,2.65
		c-0.034,1.367-0.051,2.384-0.051,3.05c0,1.233,0.034,2.284,0.101,3.15c-0.4-0.934-0.851-2.4-1.351-4.4
		c-0.566-2-1.033-3.466-1.399-4.399c-1.034-2.6-3.067-5.167-6.1-7.7c-2.434-2.1-6.483-5.3-12.15-9.6
		c-5.186-3.962-9.145-7.128-11.875-9.5c-0.119,0.023-0.236,0.048-0.35,0.075L29.7,49.45c-0.833-0.3-1.05-0.634-0.65-1
		c0.228-0.205,0.536-0.363,0.925-0.475l0.075-0.325c0.092,0.081,0.184,0.165,0.275,0.25c0.09-0.02,0.182-0.037,0.275-0.05
		c0.733-0.067,1.5,0.15,2.3,0.65c0.833,0.667,1.483,1.15,1.95,1.45c1.133,0.7,2.8,1.5,5,2.4C42.317,53.316,44.017,54.05,44.95,54.55
		z"/>
	<path style="fill-rule:evenodd;clip-rule:evenodd;fill:#3F5E0D;" d="M53.6,25.2c-0.011,0.488,0.022,1.047,0.1,1.675
		c-0.582-1.16-0.982-2.201-1.2-3.125L53.6,25.2z M53.7,26.875c0.557,1.127,1.29,2.369,2.2,3.725c1.967,2.9,3.184,5.1,3.65,6.6
		c0.9,2.9,1.467,5.733,1.7,8.5c0.467,4.9,0.75,8.116,0.85,9.65c0.233,3.6,0.267,6.816,0.101,9.65c-0.566-0.9-0.917-2.333-1.05-4.3
		c-0.2-2.667-0.351-4.2-0.45-4.6c-0.233-1.133-0.717-2.784-1.45-4.95c-0.733-2.133-1.233-3.783-1.5-4.95
		c-0.7-3.2-1.283-6.184-1.75-8.95c-0.1-0.566-0.583-2.583-1.45-6.05C54.11,29.508,53.827,28.066,53.7,26.875z"/>
	<path style="fill-rule:evenodd;clip-rule:evenodd;fill:#3F5E0D;" d="M77.05,48.15l1.2-0.35c0.366,2.634,0.2,5.65-0.5,9.05
		c-1.033,3.9-1.8,6.816-2.3,8.75c-0.566,2.066-1.684,5.183-3.351,9.35c-2.033,5.1-3.366,7.55-4,7.35
		c-1.199-0.399-1.716-1.85-1.55-4.35c0.134-2.067,0.517-3.667,1.15-4.8c0.366-0.667,1.1-1.767,2.2-3.3c1-1.367,1.699-2.483,2.1-3.35
		c1.566-3.233,2.634-5.8,3.2-7.7c0.3-1.033,0.566-2.8,0.8-5.3C76.233,51.133,76.583,49.35,77.05,48.15z"/>
	<path style="fill-rule:evenodd;clip-rule:evenodd;fill:#3F5E0D;" d="M72.5,91.7c0.233-0.566,0.667-1.367,1.3-2.4
		c0.667-1.233,1.851-3.2,3.55-5.899c1.4-2.467,2.25-4.684,2.551-6.65l1.949,2.35c-1.966,1.834-3.6,4.551-4.899,8.15
		c-1.267,4.2-2.267,7.25-3,9.15c-0.667,2.3-1.351,4.149-2.05,5.55c-1.334,2.767-2.551,3.267-3.65,1.5c-0.6-1-0.467-2.25,0.4-3.75
		c0.5-0.8,1.233-1.9,2.199-3.3c0.2-0.434,0.467-1.2,0.801-2.301C71.95,93,72.233,92.2,72.5,91.7z"/>
	<path style="fill-rule:evenodd;clip-rule:evenodd;fill:#3F5E0D;" d="M82.7,96.05c0.833,0.467,1.316,0.717,1.45,0.75
		c0.3,0.101,0.866,0.084,1.699-0.05c-0.733-0.3-1.3-0.533-1.699-0.7c-0.667-0.3-1.184-0.6-1.551-0.899
		c4.767-0.801,8.551,1.416,11.351,6.649c-2.8,0.3-4.967,0.517-6.5,0.65c-2.8,0.267-4.95,0.1-6.45-0.5
		c-0.7-0.267-1.316-0.617-1.85-1.05c-0.667-0.5-1.067-1.034-1.2-1.601c-0.2-0.733-0.084-1.5,0.35-2.3
		c0.467-0.833,1.084-1.233,1.851-1.2l-0.601-0.7c0.7-0.133,1.267-0.1,1.7,0.101C81.55,95.333,82.033,95.616,82.7,96.05z"/>
	<path style="fill-rule:evenodd;clip-rule:evenodd;fill:#3F5E0D;" d="M83.65,90.25l0.3,0.7c-0.267-1.167,0.533-1.983,2.399-2.45
		c1.434-0.333,2.817-0.4,4.15-0.2c2.1,0.3,4.217,1.117,6.35,2.45c1.601,0.967,3.434,2.384,5.5,4.25
		c-4.533,0.434-8.216,0.566-11.05,0.4C85.934,95.033,83.384,93.316,83.65,90.25z"/>
	<path style="fill-rule:evenodd;clip-rule:evenodd;fill:#4D6E1A;" d="M73.3,100.45l-0.2,0.8c1.634-0.167,2.584-0.25,2.851-0.25
		c1.033,0.033,1.866,0.366,2.5,1c0.6,0.566,1.184,1.616,1.75,3.15c0.566,1.533,0.816,2.666,0.75,3.399
		c-0.566,0.033-1.25-0.116-2.05-0.45c-1.034-0.433-1.7-0.683-2-0.75c-0.334-0.1-1.067-0.166-2.2-0.199c-1-0.034-1.733-0.167-2.2-0.4
		c-1.167-0.634-1.55-1.634-1.15-3C71.616,102.917,72.267,101.816,73.3,100.45z"/>
	<path style="fill-rule:evenodd;clip-rule:evenodd;fill:#51751B;" d="M22.1,28.55c-0.633,0.733-1.35,1-2.15,0.8
		c-0.8-0.233-1.217-0.85-1.25-1.85l0.3-0.35c-0.533-1.566-1.6-2.917-3.2-4.05c-0.933-0.667-2.466-1.6-4.6-2.8l5.55,0.9
		c2.333,0.566,3.933,1.417,4.8,2.55c0.567,0.7,0.934,1.5,1.1,2.4C22.817,27.15,22.633,27.95,22.1,28.55z"/>
	<path style="fill-rule:evenodd;clip-rule:evenodd;fill:#51751B;" d="M91.55,17.75c0.167,0.367,0.233,0.917,0.2,1.65
		c-0.033,1.467-0.866,2.767-2.5,3.9c-1.5,1-3.066,1.517-4.7,1.55c0.033-0.333,0.184-1.117,0.45-2.35c0.167-1,0.267-1.8,0.3-2.4
		c0.033-0.833-0.1-1.784-0.399-2.85c-0.167-0.533-0.483-1.434-0.95-2.7l1,3.45c-0.334-0.467-0.634-1.4-0.9-2.8
		c-0.267-1.3-0.616-2.167-1.05-2.6c0.566-0.367,1.15-0.3,1.75,0.2c0.6,0.7,1.033,1.167,1.3,1.4c0.434,0.433,0.733,0.683,0.9,0.75
		c0.2,0.1,0.6,0.133,1.2,0.1c0.1,0.8,0.283,1.267,0.55,1.4c0.233,0.1,0.767,0.216,1.6,0.35C90.934,17,91.35,17.316,91.55,17.75z"/>
	<path style="fill-rule:evenodd;clip-rule:evenodd;fill:#557820;" d="M53.6,52.65c-0.067-1-0.467-2.316-1.2-3.95
		c-0.767-1.733-1.2-3.017-1.3-3.85c1.9,0.833,3.3,1.483,4.2,1.95c1.567,0.867,2.567,1.983,3,3.35c0.434,1.534,0.583,2.817,0.45,3.85
		c-0.033,0.3-0.15,0.783-0.35,1.45c-0.167,0.566-0.233,1.05-0.2,1.45c0,1.6-0.1,2.767-0.3,3.5c-0.4,1.534-1.217,2.117-2.45,1.75
		c-0.667-0.2-1-0.733-1-1.6c-0.034-0.5,0.017-1.216,0.15-2.15c0.1-2.167-0.067-4.216-0.5-6.15L53.6,52.65z"/>
	<path style="fill-rule:evenodd;clip-rule:evenodd;fill:#557820;" d="M111.625,78.65c0.448-0.183,1.124-0.5,2.025-0.95
		c1.433-0.6,2.25-0.767,2.449-0.5c0.367,0.533,0.034,1.217-1,2.05c-1.166,0.8-1.85,1.267-2.05,1.4c-1.066,1.166-2,2.1-2.8,2.8
		c-1.533,1.366-2.45,1.467-2.75,0.3c-1.434,1.833-4.467,2.583-9.1,2.25c-1.467-0.1-2.601-1.017-3.4-2.75
		c-0.9-1.934-1.783-3.05-2.65-3.35c0.5-0.367,1.483-0.467,2.95-0.301c0.5,0.067,1.533,0.268,3.101,0.601
		c2.5,0.6,4.666,0.85,6.5,0.75C107.823,80.791,110.065,80.024,111.625,78.65z"/>
	<path style="fill-rule:evenodd;clip-rule:evenodd;fill:#557820;" d="M107.55,73.3l0.3-0.5c0.7,0.034,1.301,0.333,1.801,0.9
		c0.466,0.533,0.733,1.167,0.8,1.9c0.033,0.8-0.217,1.25-0.75,1.35c-0.8,0-1.467,0-2,0c-0.867,0.066-1.517,0.1-1.95,0.1
		c-0.833,0-1.434-0.2-1.8-0.6c-0.134-0.134-0.2-0.333-0.2-0.6c0-0.3-0.033-0.517-0.1-0.65c-0.434-0.634-1.184-1.233-2.25-1.8
		C103.434,72.934,105.483,72.9,107.55,73.3z"/>
	<path style="fill-rule:evenodd;clip-rule:evenodd;fill:#557820;" d="M41.45,106.6c0.733-0.033,1.933-0.066,3.6-0.1
		c1.467-0.066,2.633-0.233,3.5-0.5c0.133-0.033,0.25-0.15,0.35-0.35c0.133-0.2,0.25-0.334,0.35-0.4c0.8-0.4,2-0.667,3.6-0.8
		c2.367-0.233,3.617-0.367,3.75-0.4l-1.45,0.65c0.467-0.033,1.233-0.101,2.3-0.2c0.933-0.033,1.683,0.017,2.25,0.15
		c0.033,0.767-0.684,1.683-2.15,2.75c-1.033,0.699-2.117,1.3-3.25,1.8c-1.133,0.434-2.733,0.684-4.8,0.75c-2.467,0.1-3.8-0.3-4-1.2
		c0.167-0.066,0.55-0.167,1.15-0.3c0.5-0.134,0.867-0.3,1.1-0.5C45.083,107.816,42.983,107.366,41.45,106.6z"/>
	<path style="fill-rule:evenodd;clip-rule:evenodd;fill:#557820;" d="M73.35,102.05l-1.55-0.35c0.334-0.434,1.417-0.55,3.25-0.351
		c1.767,0.2,2.934,0.551,3.5,1.051c0.634,0.533,0.867,1.517,0.7,2.949c-0.333-0.133-1.233-0.85-2.7-2.149
		C75.483,102.267,74.417,101.884,73.35,102.05z"/>
	<path style="fill-rule:evenodd;clip-rule:evenodd;fill:#4D6E1A;" d="M97.8,93.1L85.75,90.7c-0.533,0.133-1.316,0.2-2.35,0.2
		C83.233,90,84.2,89.3,86.3,88.8c1.767-0.399,3.217-0.533,4.351-0.399c1.733,0.199,3.449,0.883,5.149,2.05
		c0.867,0.6,2.283,1.816,4.25,3.649L97.8,93.1z"/>
	<path style="fill-rule:evenodd;clip-rule:evenodd;fill:#4D6E1A;" d="M91.325,100.475c0.043,0.077,0.085,0.152,0.125,0.226
		c-0.967-0.167-1.9-0.684-2.8-1.55c-0.566-0.298-1.199-0.631-1.9-1C84.684,97.017,83,96.2,81.7,95.7c2-0.767,3.934-0.584,5.8,0.55
		C88.978,97.182,90.253,98.59,91.325,100.475z"/>
	<path style="fill-rule:evenodd;clip-rule:evenodd;fill:#4D6E1A;" d="M96,49.6l1.8-0.35c0.101,1.434-0.583,2.883-2.05,4.35
		c-1.366,1.333-2.767,2.15-4.2,2.45c-2.033,0.4-4.5-0.033-7.399-1.3c2.466-0.3,4.466-0.867,6-1.7c0.233-0.133,1.183-0.783,2.85-1.95
		C94.233,50.233,95.233,49.733,96,49.6z"/>
	<path style="fill-rule:evenodd;clip-rule:evenodd;fill:#304D04;" d="M53.15,42.15c2.167,1.167,3.517,2.034,4.05,2.6
		c1.4,1.533,2.267,3.517,2.6,5.95c0.267,1.833,0.434,4.216,0.5,7.15c0,1.1-0.417,2.466-1.25,4.1c-0.966,1.866-1.933,2.466-2.9,1.8
		c-0.633-0.467-0.667-1.367-0.1-2.7c0.3-0.733,0.733-1.6,1.3-2.6c0.3-0.867,0.417-1.917,0.35-3.15c-0.034-0.7-0.133-1.767-0.3-3.2
		c-0.066-0.8-0.15-1.967-0.25-3.5c-0.2-1.267-0.7-2.267-1.5-3c-0.066-0.067-1.133-0.9-3.2-2.5c-1.367-1.034-2.25-2.034-2.65-3
		l-0.1-1C50.133,40.167,51.283,41.184,53.15,42.15z"/>
	<path style="fill-rule:evenodd;clip-rule:evenodd;fill:#304D04;" d="M35.75,92.825c1.002-1.274,1.403-2.782,1.2-4.525l1.3-0.149
		c0.2,1.3-0.217,2.5-1.25,3.6C36.54,92.143,36.124,92.501,35.75,92.825z M15.2,91.05c0.8,0.566,1.417,1.033,1.85,1.4
		C18.783,93.816,20,94.7,20.7,95.1c1.333,0.801,2.75,1.284,4.25,1.45c2.867,0.334,5.566-0.184,8.1-1.55
		c0.237-0.129,0.462-0.263,0.675-0.4c0.093-0.081,0.185-0.165,0.275-0.25c0.42-0.376,1.003-0.884,1.75-1.524
		c-0.518,0.653-1.193,1.245-2.025,1.774c-1.192,1.069-2.5,1.836-3.925,2.301c-1.267,0.399-2.9,0.633-4.9,0.699
		c-1.133,0.034-2.25-0.216-3.35-0.75c-0.633-0.333-1.6-0.966-2.9-1.899c-0.967-0.7-1.933-1.566-2.9-2.601
		c-1.067-1.166-1.783-2.199-2.15-3.1C14,89.917,14.533,90.517,15.2,91.05z"/>
	<path style="fill-rule:evenodd;clip-rule:evenodd;fill:#304D04;" d="M33.45,104.75c-0.261-0.348-0.494-0.681-0.7-1
		c0.6,0.866,1.317,1.55,2.15,2.05c1.967,1.167,3.317,1.934,4.05,2.3c1.5,0.767,2.966,1.334,4.4,1.7c2.667,0.667,5.667,0.733,9,0.2
		c1.3-0.233,2.733-0.967,4.3-2.2c0.467-0.333,1.7-1.416,3.7-3.25l3-0.25c-1.399,0.467-2.85,1.417-4.35,2.851
		c-1.9,1.899-3.167,3.05-3.8,3.449c-1.2,0.767-2.65,1.25-4.35,1.45c-1.633,0.167-3.167,0.05-4.6-0.35c-3.267-0.967-6.5-2.3-9.7-4
		C35.583,107.2,34.55,106.217,33.45,104.75z"/>
	<path style="fill-rule:evenodd;clip-rule:evenodd;fill:#3D5C0D;" d="M10.35,32.2C9.683,31.833,9.233,31.467,9,31.1
		c-0.333-0.534-0.5-1.717-0.5-3.55c-0.033-0.767,0.3-1.783,1-3.05s1.017-2.283,0.95-3.05c0.133,0.667-0.034,1.583-0.5,2.75
		c-0.567,1.267-0.85,2.167-0.85,2.7c-0.033,1.267,0.467,2.4,1.5,3.4c1.533,1.567,2.383,2.483,2.55,2.75L12,33
		C11.7,32.833,11.15,32.566,10.35,32.2z"/>
	<path style="fill-rule:evenodd;clip-rule:evenodd;fill:#3D5C0D;" d="M76.4,18c0.533-1.233,1.216-2.25,2.05-3.05
		c-0.134,0.233-0.417,0.6-0.851,1.1c-0.399,0.467-0.666,0.85-0.8,1.15c-0.166,0.466-0.184,1.417-0.05,2.85
		c0.267,3,0.934,4.833,2,5.5l-0.3,0.2c-0.934,0.066-1.45,0.083-1.55,0.05c-0.233-0.1-0.483-0.533-0.75-1.3
		c-0.434-1.2-0.634-2.2-0.601-3C75.583,20.367,75.866,19.2,76.4,18z"/>
	<path style="fill-rule:evenodd;clip-rule:evenodd;fill:#354F0B;" d="M87.35,53.75l-6.1,2.3L76.1,56.8l-2.6,8.1
		c-1.267,4.7-2.167,7.517-2.7,8.45c-0.633,0.966-0.95,2.066-0.95,3.3C69.15,78.617,68.866,80.2,69,81.4l0.15,4.1l-2.5-6.25L66,72.35
		l1.1-4.2v0.05l0.301-1.1c0.267-0.9,2.25-5.3,5.949-13.2l0.25-0.4c4.134-8.733,8.117-16.65,11.95-23.75
		c-4.6,11.733-6.816,17.883-6.649,18.45L76.6,55.4l10.65-2.25L93.1,51L87.35,53.75z M102.65,60.85c-1.534-0.4-3.284-0.567-5.25-0.5
		l-0.25,0.05l-1.5,0.05c-7.5,5.6-11.95,9.966-13.351,13.1L75.85,86.5c-0.933,1.9-1.666,3.583-2.199,5.05
		c-0.867,2.2-1.434,4.017-1.7,5.45c-0.733-0.533-1.3-1.233-1.7-2.1l-0.1-0.15c-0.334-0.866-0.551-1.717-0.65-2.55
		c-0.1-0.8-0.1-1.584,0-2.351c0.167-1.232,0.566-2.433,1.2-3.6l5.149-9.9c0.9-1.633,1.983-3.25,3.25-4.85
		c1.301-1.633,4.517-4.566,9.65-8.8c0.634-0.567,2.033-1.467,4.2-2.7c2.633-1.467,6.684-3.533,12.149-6.2l-7.25,5l1.95-0.1
		c2,0,3.717,0.35,5.15,1.05c2.1,1.066,3.866,2.967,5.3,5.7C108.483,63.083,105.95,61.55,102.65,60.85z M56.15,31.8
		c1.733,2.3,3.017,4.6,3.85,6.9l1.7,5.1l0.149,0.35l2.65,8.95l0.9,4.8c-1.167,5.534-2.034,7.5-2.601,5.9l-0.05-0.1l-2.4-7.2
		l-0.9-7.3c-0.434-2.833-0.917-4.85-1.45-6.05l-3.45-8.4l-0.05-0.3c-0.5-0.2-0.95-0.3-1.35-0.3l-4.2-0.4L43.2,34.5
		c-1.833,0.167-3.684-0.066-5.55-0.7c-1.967-0.6-3.583-1.5-4.85-2.7c0.534,0.267,1.75,0.5,3.65,0.7l3.95,0.25l3.9-0.65
		c2.3-0.2,4.65,0.067,7.05,0.8c1.2,0.4,2.1,0.783,2.7,1.15l-2.7-6.8l1.2,1.2l0.2,0.1L56.15,31.8z M54.55,55.35
		c0.067,0.867-0.05,2.25-0.35,4.15L54,61.6l2.55,2.4c1.8,2.066,3.567,4.917,5.3,8.55l0.101,0.15L62,72.75l0.05,0.6
		c0,1.267,0.084,2.683,0.25,4.25l0.45,4.75L62.3,81.2c-0.7,1.399-1.4,3.05-2.1,4.95c-0.9,2.433-1.4,4.399-1.5,5.899l-0.15-1.85
		c-0.2-2.333,0.667-5.667,2.601-10l0.399-0.8l-1.45-2.95c-1.367-2.667-2.967-5.384-4.8-8.15l-1.6-2c-1.9-2.1-4.75-4.6-8.55-7.5
		l-0.95-0.6l-5.95-0.3c-2.133,0.2-4.25,0.7-6.35,1.5c-1.5,0.534-3.717,1.583-6.65,3.15c1.9-2.133,4.183-3.7,6.85-4.7l7.5-1.4
		l2.25-0.15l-3.8-2.65l-5.9-1.4c-3.9-0.934-7.183-1.3-9.85-1.1l-4.1,0.8l-0.6,0.2l1.35-0.5l8.05-1.6l4.7,0.25l2.05,0.45L27.4,46.6
		c0.6-1.434,0.917-1.934,0.95-1.5l23.3,14.75l1.85-9.75C54,51.566,54.35,53.316,54.55,55.35z M72.1,34.75
		c-0.899,3.867-2.1,7.2-3.6,10c-1.134,2.1-2.483,3.967-4.05,5.6l-0.5-2.6c0.566-1.434,1.45-3.033,2.649-4.8
		c2.733-3.833,4.467-7.067,5.2-9.7h0.15L72.1,34.75z M48.85,67.8c0.967,1.367,2.183,2.517,3.65,3.45l3.6,1.8
		c1.333,0.6,2.233,1.217,2.7,1.85c0.5,0.534,0.867,1.167,1.1,1.9l-0.25,0.55l-1.45-1.3l-3.75-1.95c-1.667-0.767-2.9-1.534-3.7-2.3
		c-1.133-1.066-1.767-2.366-1.9-3.9V67.8z"/>
	<g>
		<path style="fill-rule:evenodd;clip-rule:evenodd;fill:#4D6E1A;" d="M62.3,81.2l0.65,1.1c0.2,1.834,0.35,3.134,0.45,3.9
			c0.233,1.3,0.583,2.316,1.05,3.05l0.2,2L59.9,94.4v0.05L56.85,90.6c-0.267-3.3,0.2-6.649,1.4-10.05l1.85-4.1l1.45,2.899
			L61.15,80.1L58.5,90l0.2,1.975c-0.076-0.949,0.424-2.892,1.5-5.824C60.9,84.25,61.6,82.6,62.3,81.2z"/>
		<path style="fill-rule:evenodd;clip-rule:evenodd;fill:#4D6E1A;" d="M31.35,100.55l0.05,0.25l7.1,0.351l6.65-1.4
			c2.867-0.767,5.033-1.217,6.5-1.35c3.133-0.301,5.4,0.399,6.8,2.1l1.225,1.45l-5.775,0.2l-9.65,2.05l-0.9,0.05l-0.6-0.1
			c1.267,0.433,3.883,0.666,7.85,0.699l5.5-1.1c1.467-0.1,3.367,0.066,5.7,0.5l0.5,0.1l0.101,0.15l0.1,0.2l-0.7,0.05l-1.15,0.35
			c-1,0.733-1.9,1.5-2.7,2.301c-2.1,2.199-4.15,3.399-6.15,3.6c-4.167,0.4-8.55-0.434-13.15-2.5
			C34.117,106.4,31.683,103.75,31.35,100.55z"/>
		<path style="fill-rule:evenodd;clip-rule:evenodd;fill:#496919;" d="M88.1,12.95l3.25,2.25c1,1.033,1.567,2.4,1.7,4.1
			c0.233,2.434-1.133,4.717-4.1,6.85l-5.75,3.8c-0.566,0.4-0.983,0.75-1.25,1.05c-0.367-0.934-1.084-1.983-2.15-3.15l-1.1-1.4
			c-0.733-1.1-1.267-2.284-1.601-3.55l-0.55-2.85c-0.2-2.233,0.934-4.583,3.4-7.05c1.934-1.9,3.233-3.533,3.899-4.9
			C84.684,10.033,86.1,11.65,88.1,12.95z M85.65,19.75l-0.801-3.8c0.233,1.433-0.116,3.566-1.05,6.4l-1.95,6.25l-0.05,0.3l0.65,0.9
			l1.2-0.75l1.3-3.95C85.517,23.1,85.75,21.316,85.65,19.75z"/>
		<path style="fill-rule:evenodd;clip-rule:evenodd;fill:#4D6E1A;" d="M30.9,70.2l1.3-0.25l-0.95,1.1L30,73.55
			c-0.867,1.333-2.067,2.467-3.6,3.4c-1.4,0.9-2.783,1.434-4.15,1.6c-1.2,0.101-4.383-0.316-9.55-1.25
			c-5.233-0.933-8.1-1.383-8.6-1.35l7.3-6.9l0.15-0.2l0.8-0.65c3.267-2.667,6.283-4.134,9.05-4.4c1.5-0.1,3.05,0.083,4.65,0.55
			l3.7,1.2c0.733,0.3,1.45,0.833,2.15,1.6l0.45,0.2l-0.2,0.05l-1.7,0.25L25.2,67.9c-1.8,0.133-3.633,0.633-5.5,1.5l-0.4,0.15
			c-1,0.534-1.816,1.017-2.45,1.45l3.6-0.8H30.9z"/>
		<path style="fill-rule:evenodd;clip-rule:evenodd;fill:#4D6E1A;" d="M49.85,40.15L50.7,40c1.167,1.533,2.85,3.184,5.05,4.95
			c1.633,1.333,2.867,2.75,3.7,4.25l0.85,6.85c-0.2,1.3-0.583,2.65-1.15,4.05l-1.65,3L56.55,64L54,61.6l0.2-2.1
			c0.3-1.9,0.417-3.283,0.35-4.15c-0.2-2.034-0.55-3.784-1.05-5.25l-1.85,9.75l-3.2-2.1c-0.3-0.767-0.467-1.4-0.5-1.9
			c-0.067-0.7-0.05-1.7,0.05-3l1-5.8C49.633,44.583,49.917,42.283,49.85,40.15z"/>
		<path style="fill-rule:evenodd;clip-rule:evenodd;fill:#496919;" d="M24.65,26.1c0.1,1.2-0.483,2.583-1.75,4.15l-4.6,4.6l0.55-0.7
			c0-0.767,0.117-1.6,0.35-2.5c0.267-1.1,0.367-2.017,0.3-2.75c-0.133-1.433-0.75-2.767-1.85-4l-1.825-1.575
			c0.357,0.322,0.682,0.747,0.975,1.275c0.733,1.267,1.15,2.517,1.25,3.75L17.7,31.5c-0.3,1.467-0.434,2.467-0.4,3v0.05l-3.95-1.35
			c-2.667-1-4.1-2.583-4.3-4.75c-0.1-0.833,0.1-2.2,0.6-4.1c0.467-1.767,0.667-3.083,0.6-3.95L9.7,19.45L8.85,18.5L8.8,18.25
			c3.333,1.033,6.383,1.8,9.15,2.3C22.183,21.684,24.417,23.533,24.65,26.1z"/>
		<path style="fill-rule:evenodd;clip-rule:evenodd;fill:#4D6E1A;" d="M109.5,72.85c3.8,2.3,7.3,3.15,10.5,2.55
			c-1.533,0.934-4.15,3.517-7.85,7.75c-2.834,3.3-6,5.1-9.5,5.399c-4.167,0.4-6.934-1.45-8.301-5.55
			c-0.366-1.066-0.683-3.033-0.949-5.9c-0.301-1.5-0.9-2.633-1.801-3.4c0.233-0.167,0.483-0.3,0.75-0.4l-0.1-0.1l0.7-0.4h0.2
			c1.6-1,3.233-1.566,4.899-1.7c1.601-0.133,3.7,0,6.3,0.4C106.816,71.9,108.533,72.35,109.5,72.85z M109.15,79.1
			c-0.634,0.101-2.817-0.383-6.551-1.45l-5.8-1.6L96.65,76.2c1.566,1.667,2.966,2.783,4.199,3.35
			c1.334,0.733,2.983,1.017,4.95,0.851l2.5-0.551l2.4-1.25v-0.1L109.15,79.1z"/>
		<path style="fill-rule:evenodd;clip-rule:evenodd;fill:#4D6E1A;" d="M18.55,94.45L12,88.5l4.25-0.15c2.833-0.267,5.3-1.1,7.4-2.5
			c2.167-1.5,4.067-2.316,5.7-2.449c1.433-0.101,2.933,0.166,4.5,0.8L37,84.05L31.85,87c-3.434,2.134-6.083,3.267-7.95,3.4
			L22.15,90.3l-1.2,0.101l2.65,0.449l2.55,0.101c2.2-0.2,4.767-1.233,7.7-3.101L37.2,85.9h0.05c0.367-0.033,0.767-0.184,1.2-0.45
			c0.364-0.231,0.547-0.398,0.55-0.5v0.5l-0.1,0.2l-1.4,1.85l0.35,1.05c0.2,1.9-1.117,3.834-3.95,5.8c-2.6,1.7-5.033,2.65-7.3,2.851
			C23.633,97.5,20.95,96.583,18.55,94.45z"/>
	</g>
	<g>
		<path style="fill-rule:evenodd;clip-rule:evenodd;fill:#3D5C0D;" d="M85.65,19.75c0.1,1.566-0.134,3.35-0.7,5.35l-1.3,3.95
			l-1.2,0.75l-0.65-0.9l0.05-0.3l1.95-6.25c0.934-2.833,1.283-4.967,1.05-6.4L85.65,19.75z M111.05,78.45v0.1l-2.6,1.3L105.8,80.4
			c-1.967,0.166-3.616-0.117-4.95-0.851c-1.233-0.566-2.633-1.683-4.199-3.35l0.149-0.15l5.8,1.6c3.667,1.034,5.917,1.517,6.75,1.45
			L111.05,78.45z M17.65,24.9c1.1,1.233,1.717,2.567,1.85,4c0.067,0.733-0.033,1.65-0.3,2.75c-0.233,0.9-0.35,1.733-0.35,2.5
			l-0.55,0.7v0.05l-1.05-0.35V34.5c-0.033-0.533,0.1-1.533,0.4-3l0.4-3.15c-0.167-1.333-0.583-2.583-1.25-3.75
			c-0.419-0.646-0.778-1.104-1.075-1.375L17.65,24.9z M32.35,67.35l1.85,0.7l-0.25,0.25H33.9c-0.333,0.267-0.9,0.817-1.7,1.65
			l-1.3,0.25H20.45l-3.6,0.8c0.633-0.434,1.45-0.917,2.45-1.45l0.4-0.15c1.867-0.867,3.7-1.367,5.5-1.5l5.25-0.25l1.7-0.25l0.1,0.15
			L32.35,67.35z M37,84.1l2.2,0.25v0.601c-0.5,0.167-1.167,0.45-2,0.85h-0.05l-3.3,2c-3,1.9-5.567,2.95-7.7,3.15l-5.2-0.5l1.2-0.101
			l1.75,0.101c1.9-0.2,4.55-1.351,7.95-3.45L37,84.1z M59.85,102.4l0.55,0.1l1.4,0.4l0.601,1.5L62.3,104.35l-0.5-0.1
			c-2.333-0.434-4.233-0.6-5.7-0.5l-5.5,1.1c-3.967-0.033-6.583-0.267-7.85-0.699l0.6,0.1l0.9-0.05l9.7-1.851L59.85,102.4z"/>
	</g>
	<path style="fill-rule:evenodd;clip-rule:evenodd;fill:#5C8027;" d="M57.05,101.45c-4.733,0.533-8.283,0.899-10.65,1.1
		c-4.167,0.3-7.7,0.15-10.6-0.45c0.733-0.033,4.733-0.533,12-1.5c6.9-0.633,10.333-0.216,10.3,1.25L57.05,101.45z"/>
	<path style="fill-rule:evenodd;clip-rule:evenodd;fill:#5C8027;" d="M26.3,83.65l2.45,2.05c1.533,1.5,1.167,2.6-1.1,3.3
		c-0.867,0.267-2.533,0.517-5,0.75c-2.7,0.233-5.9,0.017-9.6-0.65c0.8-0.066,2.067-0.133,3.8-0.199
		c1.533-0.134,2.75-0.384,3.65-0.75C21.767,87.617,22.933,87,24,86.3C25.633,85.233,26.4,84.35,26.3,83.65z"/>
	<path style="fill-rule:evenodd;clip-rule:evenodd;fill:#5C8027;" d="M29.4,70.55l-0.45,0.8c-0.233,1.633-1.9,2.583-5,2.85
		c-1.534,0.133-3.75,0.066-6.65-0.2c-0.966-0.1-2.8-0.066-5.5,0.1c-2.4,0.167-4.2,0.117-5.4-0.15c1.367-1.134,3.467-1.934,6.3-2.4
		c1.633-0.3,3.95-0.5,6.95-0.6C25.017,70.783,28.267,70.65,29.4,70.55z"/>
	<path style="fill-rule:evenodd;clip-rule:evenodd;fill:#5C8027;" d="M24.35,67.75c-1.867,0.5-3.367,0.883-4.5,1.15
		c-2.1,0.534-3.633,0.717-4.6,0.55c1.033-1.467,3.383-2.417,7.05-2.85c3.833-0.5,5.983,0.25,6.45,2.25L24.35,67.75z"/>
	<path style="fill-rule:evenodd;clip-rule:evenodd;fill:#5C8027;" d="M26.95,77.05L30,77.3c0.467,2.467-0.583,3.967-3.15,4.5
		c-2.333,0.467-4.5,0.101-6.5-1.1c0.4-0.167,1.133-0.333,2.2-0.5c0.934-0.167,1.65-0.4,2.15-0.7c0.4-0.233,0.8-0.6,1.2-1.1
		C26.133,78.1,26.483,77.65,26.95,77.05z"/>
	<g>
		<path style="fill-rule:evenodd;clip-rule:evenodd;fill:#F29674;" d="M58.65,1.3l0.55,0.25l1.75-0.85
			C59.283,2.333,58.367,4.1,58.2,6V2.45L56.95,1.9c-4.2-1.333-8.4,0.117-12.6,4.35C47.583,0.45,52.35-1.2,58.65,1.3z M65.6,4.5
			L61,0.7L62.4,0l2.8,2.7L65.6,4.5z M69,8c0.634,1.667,0.5,3.467-0.4,5.4L63.9,23.55l-1.15,0.6c4.033-7.933,5.45-12.8,4.25-14.6
			l0.45-0.75l0.7-0.7L69,8z M92.55,30.85c0.934,0.233,1.367,1.2,1.3,2.9c-0.533,3.8-1.366,7.5-2.5,11.1L88.65,46.3L89,46.15
			l-2.25,3.2l-6.85,0.9l-2.7-0.2l2.25,0.55c3.1,0.7,6.066,0.333,8.899-1.1l1.601-0.3c-1.367,0.8-2.767,1.466-4.2,2l-2.45,0.7
			c-5.934,1.534-10-0.367-12.2-5.7l4.351,3.35L72.35,42.5c-0.399-1.867-0.233-4.35,0.5-7.45c-0.3,3.267,0.017,5.967,0.95,8.1
			c0.2,1.967,0.816,3.483,1.851,4.55c1.066,1.066,2.3,1.45,3.699,1.15l4.95-1.2l-2.1-1.1c2.399,0.2,4.934-0.55,7.6-2.25l2.95-9.55
			c-0.033-2.733-1.5-4.2-4.4-4.4h2.4L92.55,30.85z M96,31.7c0.6,4.767,0.116,8.083-1.45,9.95l0.55-4.4l-1.949,5.3
			c0.566-3.7,0.816-6.616,0.75-8.75l0.75,0.45c-0.233-3.066-0.934-5.783-2.101-8.15L92.5,26l0.35,0.3H92.9
			C94.366,27.533,95.4,29.333,96,31.7z M85.9,34.2l2.05,0.95L85.8,42.4l2.55-0.85c-4.166,4.4-7.699,4.2-10.6-0.6
			c-0.533-0.867-0.65-2.25-0.35-4.15c0.267,2.434,1.083,4.233,2.449,5.4l1.25,1.45L84.2,42.9L79,39.7l4.35,0.7
			c1.7,0.5,2.5-0.2,2.4-2.1l-3,0.85c-0.5-0.267-0.833-0.833-1-1.7l2.4,0.2H84.3l0.8,0.1l1-2.6L85.9,34.2z M88.55,41.25
			c0.834-2.9,0.65-5.633-0.55-8.2L90.15,34C90.717,37.066,90.184,39.483,88.55,41.25z M96.25,65.9c1.7,2.167,2.3,4.05,1.8,5.65
			l-0.149,0.6l-1.5-1.65c-1.267-4.434-3.884-7.467-7.851-9.1L86.9,59.5l1.3,0.4l8,5.9L96.25,65.9z M85.4,63.3l2.25,0.3l-1.7-0.05
			c-0.733,1.367-1,3.15-0.8,5.35l-0.45-2.25c-0.134-1.233-0.134-2.15,0-2.75C84.767,63.434,85,63.233,85.4,63.3z M85.2,60.5
			l-1.45,1.75L82.6,65.3v3.75l-1-1.9l1.95-6.65H85.2z M89.6,66.8l1.7,3.7c-0.866,0.4-1.767,0.483-2.7,0.25l-0.149-0.1
			c1.267-0.566,1.616-1.75,1.05-3.55l-0.05-0.05h0.05L89.6,66.8z M83.65,80.65l2.35,2.3l-2.35-0.8l-1.351-1.9l0.851,0.1L83.65,80.65
			z M89.55,75.9l3.75-0.55l-4,0.85c-3.267-0.167-5.283-2.034-6.05-5.6C84.65,72.833,86.75,74.6,89.55,75.9z M92.8,74.9
			c-1.033,0.5-2.483,0.217-4.35-0.85c1.7,0.667,3.1,0.567,4.2-0.3L92.8,74.9z M95.7,82l-6.5,0.8L94.35,81.4l-8-0.301
			c4,0.067,7.517-0.633,10.551-2.1l0.899-1.3C98.1,79.167,97.4,80.6,95.7,82z M93.1,84.35c-6,1.667-10.966,0.2-14.899-4.399
			c-2.134-2.5-3.384-5.35-3.75-8.55c-0.334-3.167,0.333-6.117,2-8.85c-1.167,3.467-1.601,6.05-1.3,7.75L77.55,64
			c-1.3,4.6-0.816,9.283,1.45,14.05c1.733,3.767,4.733,5.783,9,6.05L93.1,84.35z M70.75,32.7l2.15-3.25
			c1.214-1.327,2.547-2.344,4-3.05L70.75,32.7z M58.5,12.25c-0.3,1.133-1.917,2.15-4.85,3.05l4.75-4.05L58.5,12.25z M52.15,11.55
			l-2.25,1.1c-0.6,0.233-0.867,0.6-0.8,1.1c0.066,0.733,0.25,1.2,0.55,1.4l2.2-0.05l3.6,0.65c-1.934,0.733-4.267,0.533-7-0.6
			l0.7,3.4c3.067,0.467,6.017,0.267,8.85-0.6c-2.167,1.3-4.733,1.966-7.7,2l-0.75,0.25l-2-2.85V14.7l0.7-2.05l3.85-1.1H52.15z
			 M54.95,13.1c0.633-0.467,1.1-1.1,1.4-1.9l-0.7-1.25l1.45,1.5c-1.067,1.566-2.434,2.45-4.1,2.65c0.733-0.267,1.317-0.55,1.75-0.85
			L54.95,13.1z M49,10.25c-3.233-0.9-6.083-0.233-8.55,2c-1.367,1.6-1.85,3.667-1.45,6.2c1.367,0.866,2.617,1.066,3.75,0.6l-1.5,0.8
			c-1.167-0.333-2.1,0.133-2.8,1.4l0.4-2c-0.7-1.5-1-3.033-0.9-4.6c0.4-3.433,2.367-5.417,5.9-5.95l2.7,0.6L49,10.25z M44.3,18.5
			l-0.05-1.55l0.5-1.55l3.2-4.25l-3.65,7V18.5z M44.45,29.75c-2.8-0.7-5.017-2.316-6.65-4.85l0.4-2.2c0.3,1.966,1.25,3.55,2.85,4.75
			c1.333,0.933,3.017,1.533,5.05,1.8h0.3l1.05-0.65L47,29.8l-1.65,0.05l-0.3-0.1H44.45z M59.95,26.4c3-0.733,6.166-2.5,9.5-5.3
			c-3.767,4.5-7.4,6.767-10.9,6.8L59.95,26.4z M49.6,9.75c1.933-2.333,5.15-2.967,9.65-1.9l1.3,1.25
			c-2.533-0.934-5.017-1.15-7.45-0.65C51.8,8.75,50.633,9.184,49.6,9.75z M26.65,32.45l0.55,0.85c-3.7-2.733-7.7-3.183-12-1.35
			c-2.333,0.966-4.267,2.466-5.8,4.5l-0.9,1.1l0.3-0.45c3.367-5.1,8.083-7.6,14.15-7.5L26.65,32.45z M19.4,31.55l5.05,1.15
			l0.95,1.95l-4.05-2.2L18.2,32.8L19.4,31.55z M16.1,37.6l-1.8,5.25l0.35,0.65l-0.15,1.9l-0.8-0.6l-0.35-1.1l0.4-3.8l1.4-3.4
			l1.55-0.25L16.1,37.6z M17.9,42.65l-1.1-0.2l2.1-1.75L17.9,42.65z M20.05,37.8l0.55,0.4l-4.55,1.5
			C16.883,37.566,18.217,36.934,20.05,37.8z M10.25,47.8L9.35,44c1.1,2.233,2.717,3.967,4.85,5.2c0.7,0.4,1.4,0.5,2.1,0.3
			c4.367-0.867,7.35-3.483,8.95-7.85c0.2,2.1-1.05,4.017-3.75,5.75s-5.983,2.767-9.85,3.1L9.7,47.1L10.25,47.8z M20.75,50.5
			l6.05-5.45l-0.2,1.5L20.75,50.5z M28.4,41.65l-2.25-7.55l1.8,2.15L28.4,41.65z M40.5,69.3l-0.45,0.4l-2.1-0.6
			C38.717,68.4,39.567,68.467,40.5,69.3z M32.5,68.55c-2.367,2.2-3.733,4.267-4.1,6.2l-0.85,0.2l0.35,3l-1.7-1.15l1.75-6.05
			l0.3,0.75l2.95-3L32.5,68.55z M25.9,78.2l1.25,4.649l-1.9-4.25l-0.2-1.35L25.9,78.2z M31.3,65.95c3-1.934,6.367-2.034,10.1-0.3
			c1.934,0.934,3.783,2.017,5.55,3.25l1.7,4.65c-1.7-3.033-3.85-5.066-6.45-6.1L41.3,67l0.65,1.5c-2.034-1.9-4.633-2.55-7.8-1.95
			L29.4,67.7L31.3,65.95z M30.25,72l4.1-2.95c-1.633,1.233-2.4,2.384-2.3,3.45L30.25,72z M78.8,66.3l0.2-1.1l1.75-4.25
			c-1.667,4.433-1.4,9.167,0.8,14.2c-1.767-0.8-2.733-2.7-2.899-5.7C78.65,68.417,78.7,67.367,78.8,66.3z"/>
		<path style="fill-rule:evenodd;clip-rule:evenodd;fill:#F46F46;" d="M63.25,2.55l2.15,7.55l-1,1.1L60.55,9.1l-1.3-1.25L58.2,6
			c0.167-1.9,1.083-3.667,2.75-5.3H61L63.25,2.55z M86.9,30.4l1.449-0.05c2.9,0.2,4.367,1.667,4.4,4.4l-1.2-0.25v4.35l-1.3,3.6
			c-3.733,2.733-7.417,3.35-11.05,1.85c-1.601-0.633-2.767-1.667-3.5-3.1l-0.351-1.6c1.067-4,2.534-7.034,4.4-9.1l-1.15,2.05
			c-0.8,1.567-1.199,2.983-1.199,4.25c-0.301,1.9-0.184,3.284,0.35,4.15c2.9,4.8,6.434,5,10.6,0.6l0.2-0.3
			c1.634-1.767,2.167-4.184,1.601-7.25L88,33.05c1.2,2.567,1.384,5.3,0.55,8.2l-0.6-6.1L85.9,34.2l0.199,0.95l-1,2.6l-0.8-0.1H84.15
			l-2.4-0.2c0.167,0.866,0.5,1.433,1,1.7l0.6,1.25L79,39.7l0.85,2.5c-1.366-1.167-2.183-2.967-2.449-5.4c0.666-1.9,2-3.7,4-5.4
			L86.9,30.4z M81.65,31.75c-2.101,2.934-2.817,5.05-2.15,6.35c0.3-1.567,1.1-2.983,2.4-4.25c1.899-1.233,3.583-1.467,5.05-0.7
			C85.95,31.85,84.184,31.383,81.65,31.75z M82.5,29.2l3.8-1.35l-6,0.5l6.3-1.5c-4.033-0.8-7.733,0.333-11.1,3.4
			c-4,3.6-5.05,7.684-3.15,12.25l3.101,7.05L71.1,46.2l-1.75-11.3l1.4-2.2l6.15-6.3l0.8-0.35c2.366-0.8,4.633-1.35,6.8-1.65
			c5.3-1.2,9.184,0.083,11.65,3.85L96,31.7c-0.6-2.367-1.634-4.167-3.1-5.4H92.85L92.5,26l0.05,0.1
			c1.167,2.367,1.867,5.083,2.101,8.15L93.9,33.8c0.066,2.134-0.184,5.05-0.75,8.75l1.949-5.3l-1.199,8.7l-3.95,3.25l-1.601,0.3
			l-1.6-0.15l2.25-3.2l2.3-0.9l-1.8,0.65l1.85-1.05c1.134-3.6,1.967-7.3,2.5-11.1c0.067-1.7-0.366-2.667-1.3-2.9l-5.3-1.75
			l-0.7-0.05L82.5,29.2z M114.05,45.05l4.8-1.4l1.2,0.15l-1.5,2.25c-0.899,1.467-1.316,2.6-1.25,3.4l0.351,0.95l-0.7-0.3
			c-1.634-0.934-2.834-1.383-3.601-1.35c-1.133,0.1-2.399,0.9-3.8,2.4l-1.8,1.95l-1.6-0.35c0.699-0.967,1.017-2,0.949-3.1
			l-0.149-0.95l0.6-0.8c1.367-1.633,2.834-2.5,4.4-2.6L114.05,45.05z M96.2,65.8l-8-5.9c2.166,0.667,3.967,1.617,5.399,2.85
			C94.7,63.684,95.566,64.7,96.2,65.8z M85.35,60.45c4.067,2.333,7.233,5.267,9.5,8.8c0.4,1.6,0.667,3.184,0.801,4.75
			c0.1,1.8-1.384,3.05-4.45,3.75l-1.15,0.45l0.55-0.65l2.7-2.2l-3.75,0.55c-2.8-1.3-4.899-3.066-6.3-5.3l-0.65-1.55V65.3
			c0.467,3.7,1.434,6.15,2.9,7.35c-0.9-3.133-1.167-5.133-0.8-6l0.45,2.25c-0.2-2.2,0.066-3.983,0.8-5.35l1.7,0.05l-2.25-0.3
			c-0.4-0.066-0.634,0.134-0.7,0.6L84.6,62l-0.85,0.25l1.45-1.75L85.35,60.45z M81.45,59.3L81,60.35l1.45-0.85l4,0.05l-3.05,0.5
			c-1.634,0.6-2.2,1.717-1.7,3.35L81.6,67.15l0.851,1.65c-1.533,1.434-1.233,3.45,0.899,6.05l6.45,3.35
			c-2.3,0.533-4.517-0.066-6.649-1.8l-1.601-1.25c-2.2-5.033-2.467-9.767-0.8-14.2L79,65.2l-0.2,1.1
			c-1.033,1.934-1.283,4.35-0.75,7.25c0.601,2.9,2.3,5.167,5.101,6.8l-0.851-0.1l1.351,1.9l2.35,0.8l3.05,1.2L88,84.1
			c-4.267-0.267-7.267-2.283-9-6.05c-2.267-4.767-2.75-9.45-1.45-14.05l-2.399,6.3c-0.301-1.7,0.133-4.283,1.3-7.75
			c-1.667,2.733-2.334,5.684-2,8.85c0.366,3.2,1.616,6.05,3.75,8.55c3.934,4.6,8.899,6.066,14.899,4.399l-2.5-0.05L95.7,82
			c1.7-1.4,2.399-2.833,2.1-4.3l0.101-5.55l0.149-0.6l0.101,0.3l0.75,5.75c-0.334,2.4-1.45,4.117-3.351,5.15
			c2.334-1.1,3.95-2.616,4.851-4.55c-1.634,3.899-4.334,6.783-8.101,8.649c-1.833,0.9-5.05,0.9-9.649,0
			c-3.934-0.732-6.534-1.55-7.801-2.449c-1.699-1.134-2.899-2.667-3.6-4.601c-2.033-5.167-1.75-10.316,0.85-15.45
			c0.767-1.434,1.767-2.633,3-3.6c4.601-3.7,9.4-4.816,14.4-3.35l3,3.05c-1.134-0.767-2.517-1.384-4.15-1.85L85.9,58.1L81.45,59.3z
			 M86,69.45c0.1,2.6,0.967,3.033,2.6,1.3c0.934,0.233,1.834,0.15,2.7-0.25l0.101,0.75l-3.7,1.2c1.467,0.7,2.95,0.883,4.45,0.55
			c1.833-2.333,1.283-4.35-1.65-6.05l-2-1.7l-0.85-0.5l-1.9,1.1L86,69.45z M84.25,81l10.1,0.4L89.2,82.8L86,82.95l-2.35-2.3
			L84.25,81z M92.65,73.75c-1.101,0.867-2.5,0.967-4.2,0.3c1.866,1.067,3.316,1.35,4.35,0.85L92.65,73.75z M68.6,13.4
			c0.9-1.933,1.034-3.733,0.4-5.4c2.333,4.7,2.884,9.633,1.65,14.8c-3.334,3.967-7.434,7.067-12.3,9.3l-1.25-0.7l1.45-3.5
			c3.5-0.033,7.134-2.3,10.9-6.8c-3.334,2.8-6.5,4.566-9.5,5.3l1-1.85l1.149-0.1l1.801-0.9c1.533-0.167,2.75-1.216,3.649-3.15
			C68.483,18.4,68.833,16.066,68.6,13.4z M63.05,14c0.767,0.767,1.167,1.717,1.2,2.85l-0.5,2.5l-0.55-4.525
			c0.148,1.574-0.352,3.149-1.5,4.725l-5.25,1.7L55.2,21.4l-4.9-1.45c2.967-0.034,5.534-0.7,7.7-2l3.2-1.9
			c0.467-1.4,0.283-2.383-0.55-2.95l-1.55-1.2l0.6,3.15l-1.2-1.75c-0.933,1.2-1.95,2.017-3.05,2.45l-3.6-0.65l-2.2,0.05
			c-0.3-0.2-0.483-0.667-0.55-1.4c-0.067-0.5,0.2-0.867,0.8-1.1l2.25-1.1H52.1l-3.85,1.1l0.05-0.25l-0.4,0.4
			c-2.333,2.2-2.417,4.284-0.25,6.25l0.25,0.15l-3.6-1.05l3.65-7l-3.2,4.25c-1.1,0.1-2.05-0.15-2.85-0.75
			c-0.867-0.667-1.35-1.466-1.45-2.4c2.466-2.233,5.316-2.9,8.55-2l0.6-0.5c1.033-0.566,2.2-1,3.5-1.3
			c3.433,0.466,5.767,1.267,7,2.4l2.5,2.3L63.05,14z M63.35,30.25c3.134-1.667,5.567-4.117,7.301-7.35L69.3,28.1L63.35,30.25z
			 M63.4,21.2c-0.967,1.2-2.15,1.65-3.55,1.35L49.5,23.2l-3.55-2.45l5.45,2l10.4-1.1l1.8-1.55L63.4,21.2z M58.4,11.25l-4.75,4.05
			c2.934-0.9,4.55-1.917,4.85-3.05L58.4,11.25z M53,14.1c1.667-0.2,3.033-1.083,4.1-2.65l-1.45-1.5l0.7,1.25
			c-0.3,0.8-0.767,1.433-1.4,1.9c0.433-0.367,0.667-0.833,0.7-1.4c-0.033-0.5-0.45-0.934-1.25-1.3c-0.8-0.3-1.717-0.4-2.75-0.3
			l-2.35,2.1c2.367-1.3,4.133-1.384,5.3-0.25c-0.667,0.966-1.65,1.35-2.95,1.15l-0.75-0.4v1.2c1.766,0.064,3.024-0.136,3.775-0.6
			C54.246,13.583,53.688,13.85,53,14.1z M46.1,26.1c0.433,0.4,0.983,0.683,1.65,0.85l2.2,0.25l0.35,0.5l-2.05,0.6l1.2,0.45L49,29.55
			l6.95-1.25c-4.667,2.9-8.284,3.884-10.85,2.95L44.35,30l0.1-0.25h0.6l0.3,0.1L47,29.8l0.45-1.2l-1.05,0.65h-0.3
			c-2.033-0.267-3.717-0.867-5.05-1.8c-1.6-1.2-2.55-2.784-2.85-4.75l0.25-1.45c0.7-1.267,1.633-1.733,2.8-1.4L40.7,20.2
			c0.367,3.133,2.183,5.2,5.45,6.2L46.1,26.1z M72.85,35.05c1.167-1.4,2.717-2.883,4.65-4.45c-1.2,1.933-2.217,3.85-3.05,5.75
			c-0.767,1.6-0.55,3.7,0.649,6.3l9.2,5l-4.95,1.2l-5.55-5.7C72.866,41.017,72.55,38.316,72.85,35.05z M22.95,29.6
			c2.466-0.2,4.716,1.233,6.75,4.3l1.2,2.15c-1.033-1.366-2.45-2.566-4.25-3.6L22.95,29.6z M17.15,32.3
			c-2.3,0.2-4.183,1.317-5.65,3.35c-1.433,1.967-2.033,4.267-1.8,6.9L9.35,44l0.9,3.8L9.7,47.1l-0.85-1.6l0.5-2.2L8.1,40.1l0.4-2.55
			l0.9-1.1c1.533-2.034,3.467-3.534,5.8-4.5c4.3-1.833,8.3-1.384,12,1.35l1.4,2.35c1.933,4.133,1.267,7.767-2,10.9l0.2-1.5l1.6-3.4
			l-0.45-5.4l-2.05-2.9l-1.45-0.65l-5.05-1.15L17.15,32.3z M14.65,43.5l2.4,2.55l-2.5-0.5L14.5,45.4L14.65,43.5z M19.9,35.25
			l2.45,0.1l1.35,7.95l-2.55,1.8l1.3-2.85v-0.7l-1.25-5l-0.8-0.65L19.9,35.25z M14.7,36.8l-0.95,3.1l-0.4,3.8
			c0,1.2,0.033,2.1,0.1,2.7l3.4,1.55l-2.95,0.2l-1.5-1.35l-1.3-6.6L14.7,36.8z M11.65,50.5c3.867-0.333,7.15-1.367,9.85-3.1
			s3.95-3.65,3.75-5.75l-0.4-4.85l-3.4-3.15l-1.8-1.1l1.7-0.1c2.4,1.4,3.95,3.233,4.65,5.5l0.45,2.3
			c0.1,0.733,0.017,1.517-0.25,2.35c-1,3-2.917,5.3-5.75,6.9C17.85,50.934,14.917,51.267,11.65,50.5z M40.05,69.7
			c-0.133,1.866-1.8,3.75-5,5.65l-6.65-0.6c0.367-1.934,1.733-4,4.1-6.2l-1.3-0.05l-2.95,3l-0.3-0.75L26.2,76.8
			c0.2,2,1.367,3.65,3.5,4.95c2.133,1.2,4.6,1.667,7.4,1.4l5.4-4.95l2.3-3.3l-2.6-7.45c2.6,1.033,4.75,3.066,6.45,6.1l-1.7-4.65
			c-1.767-1.233-3.617-2.316-5.55-3.25c-3.733-1.733-7.1-1.633-10.1,0.3C35.267,63.083,39.5,63,44,65.7
			c5.167,3.133,7.133,7.466,5.9,13c-1.3,5.833-5.066,8.917-11.3,9.25l4.85-3.75l1.2-5.2c-0.633,0.5-1.3,0.767-2,0.8l-1.25,2.05
			c-2.533,2.301-5.583,3.417-9.15,3.351l-6.35-7l-0.5-2.4c0.7-3.333,2.033-6.033,4-8.1l4.75-1.15c3.167-0.6,5.767,0.05,7.8,1.95
			l-0.75,6.85c-1.867,2.5-4.35,3.95-7.45,4.35l-5.85-1.75l-0.35-3L29.5,78l6.55-0.55c1.4-0.134,2.55-1,3.45-2.6
			c0.867-1.567,1.2-3.417,1-5.55c-0.933-0.833-1.783-0.9-2.55-0.2L40.05,69.7z M33.9,71.9l2-2.05l-2.4,0.85L33.9,71.9z M32.05,72.5
			c-0.1-1.066,0.667-2.217,2.3-3.45L30.25,72l1.05,2.75l4.4-1.15l1.8-1.95l-0.55-1.8L35.6,72.5H32.05z M28.9,87.05
			c-1.833-1.033-2.8-2.35-2.9-3.95l2.15,2.5l-1-2.75l8,5.351C32.75,88.434,30.667,88.05,28.9,87.05z"/>
		<path style="fill-rule:evenodd;clip-rule:evenodd;fill:#CF562E;" d="M44.35,6.25c4.2-4.233,8.4-5.684,12.6-4.35l-5.4,5.4L43.7,7.6
			L44.35,6.25z M65.6,4.5l1.851,4.3L67,9.55l-2.55,5.2L64.4,11.2l1-1.1l-2.15-7.55L65.6,4.5z M96.15,28.25L97.3,30.9l0.2,0.7
			c0.8,3.167,0.6,6.5-0.6,10c-0.634,1.966-1.65,3.6-3.051,4.9l-3.899,2.7l3.95-3.25l0.649-4.3c1.566-1.867,2.05-5.183,1.45-9.95
			L96.15,28.25z M91.55,34.5l1.2,0.25l-1.2,4.1V34.5z M85.75,38.3c0.1,1.9-0.7,2.6-2.4,2.1l-0.6-1.25L85.75,38.3z M89.8,44.3
			c-2.666,1.7-5.2,2.45-7.6,2.25l-5.5-3.05l-1-2.3c0.733,1.433,1.899,2.466,3.5,3.1c3.633,1.5,7.316,0.884,11.05-1.85L89.8,44.3z
			 M88.35,41.55L85.8,42.4l2.15-7.25l0.6,6.1L88.35,41.55z M88.35,49.5c-2.833,1.434-5.8,1.8-8.899,1.1l-2.25-0.55l2.7,0.2l6.85-0.9
			L88.35,49.5z M85.75,51.2c-2.366,1.066-4.767,1.783-7.2,2.15c-2.033,0.267-3.616,0-4.75-0.8L72.65,51.4l-2.4-3.55
			c-1.6-3.167-1.9-7.483-0.9-12.95l1.75,11.3c2.2,5.333,6.267,7.233,12.2,5.7L85.75,51.2z M109.55,51.15c1.4-1.5,2.667-2.3,3.8-2.4
			c0.767-0.033,1.967,0.417,3.601,1.35l0.7,0.3l2.1,0.3h0.95l0.05,0.85l-2.9,2.7c-1.233,1.767-2.466,2.733-3.699,2.9H113l-1.6-1.8
			c-1.2-1.167-2.417-1.917-3.65-2.25L109.55,51.15z M93.6,62.75c-1.433-1.233-3.233-2.184-5.399-2.85l-1.3-0.4l-0.45,0.05l-4-0.05
			L87,58.55l1.35,0.05c1.634,0.466,3.017,1.083,4.15,1.85l-3-3.05c3.366,2.7,6.05,5.367,8.05,8c1.367,1.767,2.316,6.034,2.851,12.8
			c-0.9,1.934-2.517,3.45-4.851,4.55c1.9-1.033,3.017-2.75,3.351-5.15l-0.75-5.75l-0.101-0.3c0.5-1.6-0.1-3.483-1.8-5.65l-0.05-0.1
			C95.566,64.7,94.7,63.684,93.6,62.75z M84.7,63.9c-0.134,0.6-0.134,1.517,0,2.75c-0.367,0.867-0.101,2.867,0.8,6
			c-1.467-1.2-2.434-3.65-2.9-7.35l1.15-3.05L84.6,62L84.7,63.9z M85.75,65.85l1.9-1.1l0.85,0.5l-1-0.15
			c-0.333,0.1-0.55,0.283-0.65,0.55c-0.333,0.667-0.449,1.383-0.35,2.15c-0.033,0.467,0.05,0.85,0.25,1.15l0.3,0.5
			c0.4,0.566,0.867,0.966,1.4,1.2l0.149,0.1c-1.633,1.733-2.5,1.3-2.6-1.3L85.75,65.85z M90.05,66.75l0.45,0.2
			c2.934,1.7,3.483,3.716,1.65,6.05c-1.5,0.333-2.983,0.15-4.45-0.55l3.7-1.2L91.3,70.5l-1.7-3.7L90.05,66.75z M88.55,61.4
			c3.967,1.633,6.584,4.667,7.851,9.1c0.8,2.233,0.666,4.333-0.4,6.3c-1.3,1.434-2.9,1.75-4.8,0.95c3.066-0.7,4.55-1.95,4.45-3.75
			c-0.134-1.566-0.4-3.15-0.801-4.75c-2.267-3.533-5.433-6.467-9.5-8.8C86.65,60.75,87.717,61.066,88.55,61.4z M62.6,13.15l-2.5-2.3
			c-1.233-1.133-3.567-1.934-7-2.4c2.433-0.5,4.917-0.284,7.45,0.65l2.8,3.25C62.75,12.517,62.5,12.783,62.6,13.15z M63.2,14.825
			l0.55,4.525L63.6,20.1l-1.8,1.55l-5.35-0.4l5.25-1.7C62.849,17.974,63.349,16.399,63.2,14.825z M67.55,20.4
			c-0.899,1.934-2.116,2.983-3.649,3.15L68.6,13.4C68.833,16.066,68.483,18.4,67.55,20.4z M62.1,24.45l-1.149,0.1l-1.1-2
			c1.4,0.3,2.583-0.15,3.55-1.35L62.1,24.45z M59.7,15.05l0.05,1.75c-3.1,1.034-6.517,1-10.25-0.1l-1.05-1.55
			c2.733,1.133,5.066,1.333,7,0.6c1.1-0.434,2.117-1.25,3.05-2.45L59.7,15.05z M43.05,18.6l-0.3,0.45
			c-1.133,0.467-2.383,0.267-3.75-0.6c-0.4-2.534,0.083-4.6,1.45-6.2c0.1,0.934,0.583,1.733,1.45,2.4c0.8,0.6,1.75,0.85,2.85,0.75
			l-0.5,1.55l0.05,1.55v-0.35l3.6,1.05c0.434,0.4,0.983,0.733,1.65,1l0.75-0.25l4.9,1.45l-3.8,1.35l-5.45-2l3.55,2.45
			c-1.067,0.1-1.983-0.05-2.75-0.45c-0.767-0.367-1.2-0.833-1.3-1.4l0.45,3.3l7.4,1.65l2.2,0.9l2.8-0.55l-1.65,4
			c-2.933,1.733-6.9,2.35-11.9,1.85l-0.4-2.5l0.75,1.25c2.566,0.934,6.183-0.05,10.85-2.95L49,29.55l0.45-0.8l-1.2-0.45l2.05-0.6
			l-0.35-0.5l-2.2-0.25c-0.667-0.167-1.217-0.45-1.65-0.85l-2.55-7.85L43.05,18.6z M44.3,29.75c-1.6,0.1-3.05-0.3-4.35-1.2
			c-1.267-0.933-1.983-2.15-2.15-3.65c1.633,2.534,3.85,4.15,6.65,4.85H44.3z M79,39.7l5.2,3.2L81.1,43.65l-1.25-1.45L79,39.7z
			 M75.65,47.7c-1.034-1.067-1.65-2.583-1.851-4.55l5.55,5.7C77.95,49.15,76.717,48.767,75.65,47.7z M19.65,32.55l1.8,1.1l-6.3,2.85
			l-1.4,3.4l0.95-3.1l0.25-0.6l3.25-3.4L19.65,32.55z M16.1,37.6l0.6-1.35l3.2-1l0.5,0.65L16.1,37.6z M11.15,40.55l-1.45,2
			c-0.233-2.633,0.367-4.933,1.8-6.9c1.467-2.033,3.35-3.15,5.65-3.35l-4.8,6.55L11.1,40.2L11.15,40.55z M19.7,42l1.65-3l1.1,2.55
			v0.7l-2.5,4.3l-2.7,0.9l-2.7-1.9l2.5,0.5c0.733-0.1,1.35-0.6,1.85-1.5c0.467-0.966,0.633-2.017,0.5-3.15L19.7,42z M16.55,39.95
			l3.85-0.4L16.25,42l1.2,1.9l-0.95,0.75l-0.95-3.8l0.65,1.05L16.55,39.95z M8.85,45.5l2.8,5c3.267,0.767,6.2,0.434,8.8-1
			c2.833-1.6,4.75-3.9,5.75-6.9c0.267-0.833,0.35-1.617,0.25-2.35l0.75,3.95l-0.4,0.85l-6.05,5.45l5.85-3.95
			c3.267-3.133,3.933-6.767,2-10.9l-1.95-3.2c1.8,1.033,3.217,2.233,4.25,3.6c1.467,1.934,2.3,4.05,2.5,6.35
			c0.3,3.3-0.55,6.284-2.55,8.95c-1.9,2.566-4.434,4.2-7.6,4.9c-3.4,0.6-6.55,0.117-9.45-1.45c-3.033-1.566-4.917-4.017-5.65-7.35
			L8.1,40.1l0.95,2.5L8.6,44.1L8.85,45.5z M26.2,76.8l1.7,1.15l5.85,1.75l3.35,3.45c-2.8,0.267-5.267-0.2-7.4-1.4
			C27.567,80.45,26.4,78.8,26.2,76.8z M27.55,74.95l0.85-0.2l6.65,0.6l1,2.1L29.5,78L27.55,74.95z M35.6,72.5l0.1,1.1l-4.4,1.15
			L30.25,72l1.8,0.5H35.6z M27.15,82.85L25.9,78.2l6.35,7L36.7,88.1L35.15,88.2L27.15,82.85z M41.95,68.5L41.3,67l0.9,0.45l2.6,7.45
			l-2.3,3.3l-1.3-2.85L41.95,68.5z M44.65,79l-1.2,5.2l-0.8-4.4C43.35,79.767,44.017,79.5,44.65,79z"/>
		<path style="fill-rule:evenodd;clip-rule:evenodd;fill:#B84A2C;" d="M59.25,7.85c-4.5-1.067-7.717-0.434-9.65,1.9l-0.6,0.5
			L46.55,9.3l-2.7-0.6L43.7,7.6l7.85-0.3l5.4-5.4l1.25,0.55V6L59.25,7.85z M68.15,8.1l-0.7,0.7L65.6,4.5L65.2,2.7L68.15,8.1z
			 M86.55,29.05l0.7,0.05l3.5,1.25L86.9,30.4l-5.5,1c-2,1.7-3.334,3.5-4,5.4c0-1.267,0.399-2.683,1.199-4.25l1.15-2.05
			c-1.866,2.066-3.333,5.1-4.4,9.1l0.351,1.6l1,2.3L75.1,42.65c-1.199-2.6-1.416-4.7-0.649-6.3c0.833-1.9,1.85-3.817,3.05-5.75
			c-1.934,1.566-3.483,3.05-4.65,4.45c-0.733,3.1-0.899,5.583-0.5,7.45c-1.899-4.566-0.85-8.65,3.15-12.25
			c3.366-3.066,7.066-4.2,11.1-3.4l-6.3,1.5l6-0.5l-3.8,1.35L86.55,29.05z M86.95,33.15c-1.467-0.767-3.15-0.533-5.05,0.7
			c-1.301,1.267-2.101,2.683-2.4,4.25c-0.667-1.3,0.05-3.417,2.15-6.35C84.184,31.383,85.95,31.85,86.95,33.15z M89.2,51.7L78.65,54
			c-2.034,0.167-3.65-0.316-4.851-1.45c1.134,0.8,2.717,1.067,4.75,0.8c2.434-0.367,4.834-1.083,7.2-2.15
			c1.434-0.534,2.833-1.2,4.2-2l3.899-2.7c1.4-1.3,2.417-2.934,3.051-4.9c1.199-3.5,1.399-6.833,0.6-10l1.1,3.75
			c0.034,0.667-0.066,1.65-0.3,2.95l-0.5,2.85c-0.2,2.167-0.934,4.067-2.2,5.7c-0.733,0.933-1.6,1.783-2.6,2.55
			C91.667,50.5,90.4,51.267,89.2,51.7z M117.65,50.4l-0.351-0.95c-0.066-0.8,0.351-1.934,1.25-3.4l0.601-1l2.899-0.15l-2.3,5.8
			L117.65,50.4z M88.55,61.4c-0.833-0.333-1.899-0.65-3.2-0.95L85.2,60.5h-1.65l-1.95,6.65L81.7,63.4
			c-0.5-1.633,0.066-2.75,1.7-3.35l3.5-0.55L88.55,61.4z M87,58.55l-4.55,0.95L81,60.35l0.45-1.05l4.45-1.2l2.449,0.5L87,58.55z
			 M82.6,69.05l0.65,1.55c0.767,3.566,2.783,5.433,6.05,5.6l4-0.85l-2.7,2.2l-0.55,0.65l1.15-0.45c1.899,0.8,3.5,0.483,4.8-0.95
			c1.066-1.966,1.2-4.066,0.4-6.3l1.5,1.65L97.8,77.7L96.9,79c-3.034,1.467-6.551,2.167-10.551,2.1l-2.1-0.1l-1.1-0.65
			c-2.801-1.633-4.5-3.899-5.101-6.8c-0.533-2.9-0.283-5.316,0.75-7.25c-0.1,1.067-0.149,2.117-0.149,3.15
			c0.166,3,1.133,4.9,2.899,5.7l1.601,1.25c2.133,1.734,4.35,2.333,6.649,1.8l-6.45-3.35c-2.133-2.6-2.433-4.617-0.899-6.05
			L82.6,69.05z M89.5,67.1c0.566,1.8,0.217,2.983-1.05,3.55c-0.533-0.233-1-0.633-1.4-1.2l-0.3-0.5c-0.2-0.3-0.283-0.684-0.25-1.15
			c-0.1-0.767,0.017-1.483,0.35-2.15c0.101-0.267,0.317-0.45,0.65-0.55l1,0.15l2,1.7l-0.45-0.2L89.6,66.8l-0.1,0.25h-0.05L89.5,67.1
			z M89.05,84.15L86,82.95L95.7,82L90.6,84.3L89.05,84.15z M63.05,14l-0.45-0.85c-0.1-0.367,0.15-0.633,0.75-0.8l-2.8-3.25
			l3.851,2.1l0.05,3.55L67,9.55c1.2,1.8-0.217,6.667-4.25,14.6l-0.65,0.3L63.4,21.2l0.85-4.35C64.217,15.717,63.816,14.767,63.05,14
			z M70.65,22.9c-1.733,3.233-4.167,5.684-7.301,7.35l-5,1.85c4.867-2.233,8.966-5.333,12.3-9.3V22.9z M54.95,13.1l-0.2,0.15
			c-0.733,0.5-2.017,0.717-3.85,0.65v-1.2l0.75,0.4c1.3,0.2,2.283-0.184,2.95-1.15c-1.167-1.134-2.934-1.05-5.3,0.25l2.35-2.1
			c1.033-0.1,1.95,0,2.75,0.3c0.8,0.367,1.217,0.8,1.25,1.3C55.617,12.267,55.383,12.733,54.95,13.1z M60.65,13.1
			c0.833,0.566,1.017,1.55,0.55,2.95l-3.2,1.9c-2.833,0.866-5.783,1.066-8.85,0.6l-0.7-3.4l1.05,1.55
			c3.733,1.1,7.15,1.133,10.25,0.1l-0.05-1.75l-0.6-3.15L60.65,13.1z M48.3,12.4l-0.05,0.25l-0.7,2.05v2.65l2,2.85
			c-0.667-0.267-1.216-0.6-1.65-1l-0.25-0.15c-2.167-1.966-2.083-4.05,0.25-6.25L48.3,12.4z M43.05,18.6l0.5-0.35l2.55,7.85
			l0.05,0.3c-3.267-1-5.083-3.066-5.45-6.2l2.05-1.15L43.05,18.6z M49.5,23.2l10.35-0.65l1.1,2l-1,1.85l-1.4,1.5l-1.45,3.5
			c-3.533,1.8-7.65,2.167-12.35,1.1c5,0.5,8.967-0.117,11.9-1.85l1.65-4l-2.8,0.55l-2.2-0.9l-7.4-1.65l-0.45-3.3
			c0.1,0.566,0.533,1.033,1.3,1.4C47.517,23.15,48.433,23.3,49.5,23.2z M55.2,21.4l1.25-0.15l5.35,0.4l-10.4,1.1L55.2,21.4z
			 M19.4,31.55l-7.05,7.3l4.8-6.55L19.4,31.55z M16.7,36.25l-1.55,0.25l6.3-2.85l3.4,3.15l0.4,4.85
			c-1.6,4.367-4.583,6.983-8.95,7.85c-0.7,0.2-1.4,0.1-2.1-0.3c-2.133-1.233-3.75-2.967-4.85-5.2l0.35-1.45l1.45-2l1.25,6.25
			l1.5,1.35l2.95-0.2l-3.4-1.55l0.25-1.6l0.8,0.6l0.05,0.15l2.7,1.9l2.7-0.9l2.5-4.3l-1.3,2.85l2.55-1.8l-1.35-7.95l-2.45-0.1
			L16.7,36.25z M20.4,35.9l0.8,0.65l1.25,5L21.35,39l-1.65,3l0.95-1.85L19.4,41.4c0.133,1.133-0.033,2.184-0.5,3.15
			c-0.5,0.9-1.117,1.4-1.85,1.5l-2.4-2.55l-0.35-0.65l1.8-5.25L20.4,35.9z M15.55,40.85l0.95,3.8l0.95-0.75l-1.2-1.9l4.15-2.45
			l-3.85,0.4L16.2,41.9L15.55,40.85z M18.9,40.7l-2.1,1.75l1.1,0.2L18.9,40.7z M16.05,39.7l4.55-1.5l-0.55-0.4
			C18.217,36.934,16.883,37.566,16.05,39.7z M27.2,44.2l-1.8-9.55l-0.95-1.95l1.45,0.65l2.5,8.3L27.2,44.2z M40.5,69.3
			c0.2,2.134-0.133,3.983-1,5.55c-0.9,1.6-2.05,2.466-3.45,2.6l-1-2.1c3.2-1.9,4.867-3.784,5-5.65L40.5,69.3z M35.6,72.5l1.35-2.65
			l0.55,1.8l-1.8,1.95L35.6,72.5z M33.5,70.7l2.4-0.85l-2,2.05L33.5,70.7z M32.25,85.2c3.567,0.066,6.617-1.05,9.15-3.351l1.25-2.05
			l0.8,4.4l-4.85,3.75l-1.8,0.2L36.7,88.1L32.25,85.2z M33.75,79.7c3.1-0.4,5.583-1.85,7.45-4.35l1.3,2.85l-5.4,4.95L33.75,79.7z"/>
		<path style="fill-rule:evenodd;clip-rule:evenodd;fill:#FF885B;" d="M8.85,45.5L8.6,44.1l0.45-1.5l0.3,0.7L8.85,45.5z M14.7,36.8
			l-3.6,3.4l3.85-4L14.7,36.8z M19.4,41.4l1.25-1.25L19.7,42L19.4,41.4z M25.05,77.25l0.35-1.45l0.5,2.4L25.05,77.25z M28.15,85.6
			L26,83.1l-0.75-4.5L28.15,85.6z"/>
		<path style="fill-rule:evenodd;clip-rule:evenodd;fill:#CF562E;" d="M13.45,46.4c-0.067-0.6-0.1-1.5-0.1-2.7l0.35,1.1L13.45,46.4z
			 M26,37.95c-0.7-2.267-2.25-4.1-4.65-5.5l4.05,2.2L26,37.95z M27.95,36.25l-1.8-2.15l-0.25-0.75L27.95,36.25z"/>
		<path style="fill-rule:evenodd;clip-rule:evenodd;fill:#124304;" d="M106.15,52.75l-1.45-0.05l-2.15,0.45
			c0.367-1,0.566-2.15,0.601-3.45l-0.301-7.05l2.65,3.25c0.733,0.833,1.217,1.767,1.45,2.8l0.149,0.95
			C107.167,50.75,106.85,51.783,106.15,52.75z M113.25,57.5L113,57.15h1.15c1.233-0.167,2.466-1.133,3.699-2.9l1.45,0.45
			c1.733,0.5,2.934,0.733,3.601,0.7c-0.267,0.333-0.767,0.717-1.5,1.15c-1,0.634-2.117,1-3.351,1.1L113.25,57.5z"/>
		<path style="fill-rule:evenodd;clip-rule:evenodd;fill:#4B6006;" d="M98.7,57.7l-0.75-0.2c0.666-1.566,1.55-2.7,2.649-3.4
			c0.534-0.434,1.184-0.75,1.95-0.95l2.15-0.45l1.45,0.05l1.6,0.35c1.233,0.333,2.45,1.083,3.65,2.25l1.6,1.8l1.85,2.95
			c-0.966-0.967-2.55-1.733-4.75-2.3c-2.133-0.533-4.116-0.7-5.949-0.5l-3.101,0.5L98.7,57.7z"/>
	</g>
	<path style="fill-rule:evenodd;clip-rule:evenodd;fill:#123800;" d="M39.8,90.35c-0.933,0.5-1.566,0.834-1.9,1
		c-0.566,0.233-1.283,0.051-2.15-0.55c-0.167-0.1-0.55-0.7-1.15-1.8c-0.229-0.382-0.571-0.615-1.025-0.7
		c1.208-0.02,2.866,0.03,4.975,0.15c2.633,0.066,4.567-0.3,5.8-1.101c1.933-1.267,3.183-3.3,3.75-6.1
		c0.7-3.333,1.483-5.533,2.35-6.6L51,73.6c-0.267,0.966-0.333,2.35-0.2,4.15c0.167,2.267,0.233,3.667,0.2,4.2
		c-0.067,2.1-0.1,3.233-0.1,3.399c0,1.034,0.133,2.117,0.4,3.25c-0.9-0.199-1.85-0.133-2.85,0.2c-1.1,0.467-1.967,0.783-2.6,0.95
		c-0.567,0.134-1.567,0.233-3,0.3C41.45,90.083,40.433,90.184,39.8,90.35z"/>
	<path style="fill-rule:evenodd;clip-rule:evenodd;fill:#123800;" d="M29.9,55.45c-1.1-0.167-2.833-0.117-5.2,0.15
		c2.966-1.3,4.95-2.3,5.95-3c2.033-1.5,3.1-3.35,3.2-5.55l0.65-0.4c1.5-0.5,2.483,0.25,2.95,2.25c0.133,0.7,0.233,2.3,0.3,4.8
		c-2.1-0.3-3.633-0.367-4.6-0.2c0.3,1.566,0.117,2.383-0.55,2.45C31.533,55.75,30.633,55.583,29.9,55.45z"/>
	<path style="fill-rule:evenodd;clip-rule:evenodd;fill:#123800;" d="M68.95,31.4c-0.101,0.034-1.867,0.45-5.3,1.25
		c-0.7,0.167-1.483,0.567-2.351,1.2c-0.833,0.667-1.533,1.066-2.1,1.2c-0.1,0.034-0.767-0.033-2-0.2c-0.7-0.1-1.25,0.283-1.65,1.15
		c-0.6-0.033-1.15-0.267-1.65-0.7c-0.633-0.6-1.083-0.966-1.35-1.1c-0.696-0.292-1.563-0.517-2.6-0.675
		c-0.204,0.032-0.404,0.057-0.6,0.075l-1-0.25c0.576,0.043,1.109,0.102,1.6,0.175c2.456-0.334,5.939-1.376,10.45-3.125
		c4.6-1.8,8.417-2.733,11.45-2.8C71.983,29.333,71.017,30.6,68.95,31.4z"/>
	<path style="fill-rule:evenodd;clip-rule:evenodd;fill:#123800;" d="M81.5,53.9c1.566-0.1,2.816-0.283,3.75-0.55
		c1.434-0.4,3.184-1.217,5.25-2.45c1.134-0.7,2.8-1.733,5-3.1c-0.467,1.567-1.467,3.134-3,4.7s-3.083,2.6-4.65,3.1
		c-1.933,0.633-3.767,0.983-5.5,1.05c-1.033,0.034-1.816-0.1-2.35-0.4c-0.066-0.033-0.717-0.533-1.95-1.5L77.7,54.1
		C78.5,54.033,79.767,53.967,81.5,53.9z"/>
	<path style="fill-rule:evenodd;clip-rule:evenodd;fill:#123800;" d="M72.1,81.05l1.4,0.9c1.066,0.899,1.85,1.566,2.35,2
		c0.9,0.767,1.684,1.366,2.351,1.8c1.267,0.867,1.866,1.45,1.8,1.75c-0.033,0.233-0.767,0.684-2.2,1.35
		c-1.033,0.601-1.767,0.967-2.2,1.101c-0.666,0.167-1.35-0.184-2.05-1.05c-0.6-0.7-0.983-1.967-1.149-3.801
		C72.267,84.1,72.167,82.75,72.1,81.05z"/>
	<path style="fill-rule:evenodd;clip-rule:evenodd;fill:#2A4D06;" d="M59.45,144.75c0.4,1.467,0.933,2.4,1.6,2.8
		c0.4-1.7,0.65-2.983,0.75-3.85c0.107-1.01,0.107-1.867,0-2.575c0.606,2.196,1.04,3.888,1.3,5.075c0.493,2.186,0.56,4.219,0.2,6.1
		c0.3,0,0.533,0.033,0.7,0.101l-0.8,0.35c0.031-0.137,0.064-0.27,0.1-0.4c-0.133,0.405-0.2,0.688-0.2,0.851
		c-1.166-0.2-1.767-0.3-1.8-0.3c-0.767-0.034-1.2,0.233-1.3,0.8c-0.267,0.033-0.6-0.101-1-0.4s-0.717-0.45-0.95-0.45
		c-0.267,0-0.667,0.25-1.2,0.75c-0.533,0.434-0.983,0.617-1.35,0.551c0.067-0.267,0.15-0.467,0.25-0.601
		c-0.3-0.066-0.75-0.116-1.35-0.149c-0.633-0.034-1.1-0.084-1.4-0.15c0.6-0.066,1.117-0.316,1.55-0.75c-0.233-0.167-0.8-0.167-1.7,0
		c-0.967,0.2-1.65,0.217-2.05,0.05c0.1-0.5,0.35-0.833,0.75-1c0.267-0.1,0.667-0.217,1.2-0.35c-1.167-0.167-2-0.967-2.5-2.4
		c0.567-0.033,1.3,0.05,2.2,0.25c1.167,0.233,1.9,0.367,2.2,0.4c-0.033-0.4-0.233-0.934-0.6-1.601c-0.367-0.633-0.566-1.166-0.6-1.6
		c1.497,0,2.355,0.509,2.575,1.525c-0.239-1.243-0.098-3.352,0.425-6.325c0.1,1.7,0.733,3.916,1.9,6.649
		c0.6-0.5,0.867-1.633,0.8-3.399c-0.066-0.934-0.217-2.134-0.45-3.601C59,142.733,59.25,143.95,59.45,144.75z"/>
	<path style="fill-rule:evenodd;clip-rule:evenodd;fill:#2A4D06;" d="M70.9,147.25c0.166,0.267,0.267,0.8,0.3,1.6
		c0.066,0.834,0.166,1.367,0.3,1.601c-0.1-2.434,1.816-4.483,5.75-6.15c-0.267,0.434-0.5,1.101-0.7,2
		c-0.267,1.167-0.434,1.867-0.5,2.101c0.267-0.434,1.233-0.717,2.9-0.851c0.934-0.033,2.1-0.066,3.5-0.1
		c-0.967,0.267-2.017,0.783-3.15,1.55c-1.3,1-2.267,1.717-2.899,2.15c0.833-0.434,1.716-0.567,2.649-0.4
		c0.101,0.566,0.117,0.95,0.05,1.15c0.867,0.233,1.834,0.133,2.9-0.301c-0.9,0.534-1.684,0.884-2.35,1.051
		c-0.834,0.166-1.684,0.1-2.551-0.2c-1-0.467-1.75-0.767-2.25-0.9c-0.133-0.033-0.449-0.017-0.949,0.05
		c-0.367,0.034-0.65-0.116-0.851-0.449c-0.533,0.666-1.184,0.933-1.95,0.8c0.034-0.2,0.017-0.5-0.05-0.9
		c-0.467,0.267-0.983,0.417-1.55,0.45s-1.05-0.066-1.45-0.3c0.467-0.2,1.066-0.533,1.8-1h-0.3c0.476-0.085,0.81-0.318,1-0.7
		C70.684,149.233,70.8,148.483,70.9,147.25z"/>
	<path style="fill-rule:evenodd;clip-rule:evenodd;fill:#446E17;" d="M57.5,153.3c-0.6-1.366-1.567-2.6-2.9-3.7
		c-1.333-1.066-2.617-1.683-3.85-1.85c0.567-0.267,1.267-0.217,2.1,0.15c0.3,0.1,0.95,0.449,1.95,1.05c1.4,0.866,2.3,2.133,2.7,3.8
		V153.3z"/>
	<path style="fill-rule:evenodd;clip-rule:evenodd;fill:#446E17;" d="M55.7,143.55c0.5,2.566,0.716,4.25,0.65,5.05
		c-0.3,0.067-0.667-0.233-1.1-0.899l0.4,0.95c-0.5-0.967-0.816-1.75-0.95-2.351c-0.167-0.733-0.15-1.649,0.05-2.75
		c0.067-0.333-0.15-0.967-0.65-1.899c-0.5-0.9-0.667-1.517-0.5-1.851c0.033,0.7,0.333,1.334,0.9,1.9
		C55.167,142.333,55.567,142.95,55.7,143.55z"/>
	<path style="fill-rule:evenodd;clip-rule:evenodd;fill:#446E17;" d="M57.3,146.9c0.333-1.5,0.284-3.45-0.15-5.851
		c0.7,1.167,1.083,1.816,1.15,1.95c0.367,0.9,0.383,1.7,0.05,2.4c-0.067,0.166-0.2,0.35-0.4,0.55c-0.2,0.233-0.35,0.434-0.45,0.6
		L57.3,146.9z"/>
	<path style="fill-rule:evenodd;clip-rule:evenodd;fill:#446E17;" d="M58.1,147.5c0.195-0.946,0.495-2.146,0.9-3.6
		c0.567,1.066,0.45,3.333-0.35,6.8c-0.167-0.134-0.267-0.351-0.3-0.65c0-0.166-0.017-0.434-0.05-0.8
		c-0.06-0.241-0.16-0.532-0.3-0.875l-0.1,0.125c0.014-0.088,0.031-0.18,0.05-0.275c-0.158-0.383-0.358-0.824-0.6-1.324
		C57.695,146.986,57.945,147.187,58.1,147.5z"/>
	<path style="fill-rule:evenodd;clip-rule:evenodd;fill:#446E17;" d="M62.3,140.65c0.634,1.267,0.95,2.75,0.95,4.449
		c0,1.2-0.184,2.801-0.55,4.801c-0.101,0.767-0.184,1.233-0.25,1.399c-0.101,0.467-0.283,0.884-0.55,1.25c0-0.094,0-0.86,0-2.3
		c0.033-0.583,0.017-1.217-0.051-1.9l0.101,0.5c0.066-0.433-0.017-1.083-0.25-1.949c-0.2-0.9-0.3-1.551-0.3-1.95l0.75,1.899
		c0.267-0.566,0.35-1.566,0.25-3C62.267,142.217,62.233,141.15,62.3,140.65z M61.9,150.25c-0.034,0.583-0.117,1.116-0.25,1.6
		c-0.434,0.101-0.617-0.517-0.551-1.85c0.067-1.134,0.2-1.983,0.4-2.55c0.267,0.633,0.4,1.467,0.4,2.5
		C61.9,150.053,61.9,150.153,61.9,150.25z"/>
	<path style="fill-rule:evenodd;clip-rule:evenodd;fill:#446E17;" d="M60.05,150.45l-0.15,0.35c-0.5,0.3-0.617-0.366-0.35-2
		c0.133-0.866,0.333-1.883,0.6-3.05c0.467,0.3,0.65,1.017,0.55,2.15c-0.067,0.5-0.233,1.35-0.5,2.55
		C60.167,150.55,60.117,150.55,60.05,150.45z"/>
	<path style="fill-rule:evenodd;clip-rule:evenodd;fill:#446E17;" d="M71.35,150.1c0.233-1.066,0.267-2.899,0.101-5.5
		c0.066,0.101,0.483,0.733,1.25,1.9c0.566,0.833,0.883,1.5,0.95,2c-0.134-1.366-0.167-2.333-0.101-2.9
		c0.101-1.166,0.533-1.816,1.3-1.949c-0.033,0.466-0.166,1.05-0.399,1.75c-0.334,1.066-0.517,1.649-0.55,1.75
		c-0.134,0.8-0.25,1.449-0.351,1.949c-0.2,0.967-0.434,1.584-0.7,1.851c-0.333,0.333-0.649,0.333-0.949,0
		c-0.301-0.334-0.284-0.667,0.05-1L71.35,150.1z"/>
	<path style="fill-rule:evenodd;clip-rule:evenodd;fill:#446E17;" d="M75.1,151.6l-0.25-0.399c-0.166-2.066,0.65-3.75,2.45-5.05
		c0.267-0.167,0.717-0.517,1.351-1.051c0.6-0.399,1.116-0.566,1.55-0.5c-0.134,0.467-0.566,1-1.3,1.601
		c-0.801,0.6-1.334,1-1.601,1.2c-0.967,0.933-1.55,1.566-1.75,1.899C75.083,149.967,74.934,150.733,75.1,151.6z"/>
	<path style="fill-rule:evenodd;clip-rule:evenodd;fill:#446E17;" d="M77.45,141.3c0.033,0.609,0.05,1.06,0.05,1.351
		c0.033,0.566,0.017,1.017-0.05,1.35c-0.066,0.434-0.384,0.95-0.95,1.55c-0.079,0.094-0.154,0.186-0.225,0.275
		c0.188-0.375,0.381-0.884,0.574-1.525C77.271,142.973,77.471,141.973,77.45,141.3z"/>
	<path style="fill-rule:evenodd;clip-rule:evenodd;fill:#446E17;" d="M75.7,146.35l0.649,0.851c-0.6,0.033-0.966-0.066-1.1-0.3
		c-0.1-0.167-0.116-0.517-0.05-1.051c0.166-1.133,0.25-2.833,0.25-5.1c0.767,0.3,1.1,1.167,1,2.6
		C76.384,144.55,76.134,145.55,75.7,146.35z"/>
	<path style="fill-rule:evenodd;clip-rule:evenodd;fill:#446E17;" d="M77.7,151.95c0.166-0.5,0.483-1.066,0.95-1.7
		c0.3-0.333,0.716-0.85,1.25-1.55c0.166,0.666-0.034,1.5-0.601,2.5s-1.184,1.55-1.85,1.649L77.7,151.95z"/>
	<path style="fill-rule:evenodd;clip-rule:evenodd;fill:#446E17;" d="M78.45,152.85c0.733-0.3,1.5-0.966,2.3-2
		c0.2,0.5,0.116,0.967-0.25,1.4c-0.333,0.4-0.767,0.6-1.3,0.6H78.45z"/>
	<path style="fill-rule:evenodd;clip-rule:evenodd;fill:#446E17;" d="M70.15,150.65h0.5c-0.834,0.366-1.351,0.283-1.551-0.25
		c-0.066-0.2-0.1-0.817-0.1-1.851c0.3,0.367,0.5,0.7,0.6,1c0.101-0.166,0.233-0.733,0.4-1.7c0.4,0.134,0.6,0.551,0.6,1.25
		C70.566,149.733,70.417,150.25,70.15,150.65z"/>
	<path style="fill-rule:evenodd;clip-rule:evenodd;fill:#446E17;" d="M77.35,149c0.301-0.533,0.867-0.983,1.7-1.35
		c0.8-0.4,1.533-0.567,2.2-0.5c-0.3,0.566-0.733,1.033-1.3,1.399c-0.566,0.334-1.167,0.483-1.8,0.45H77.35z"/>
	<path style="fill-rule:evenodd;clip-rule:evenodd;fill:#668A30;" d="M49.55,39.45c0.467,0.366,0.75,1.433,0.85,3.2
		c0.1,1.2,0.1,2.4,0,3.6c-0.1,1.167-0.533,2.867-1.3,5.1s-1.217,3.95-1.35,5.15c-0.533-1.1-0.767-2.617-0.7-4.55
		c0.067-1.833,0.367-3.384,0.9-4.65c1.167-2.9,1.6-5.517,1.3-7.85H49.55z"/>
	<path style="fill-rule:evenodd;clip-rule:evenodd;fill:#668A30;" d="M53.25,50.3l-0.2,1.55c-0.466-0.333-0.783-0.867-0.95-1.6
		c-0.167-0.6-0.217-1.233-0.15-1.9c1.966,1.4,3.066,3.4,3.3,6c0.2,2.267-0.25,4.566-1.35,6.9c0.2-1.4,0.167-3.217-0.1-5.45
		C53.467,52.767,53.283,50.934,53.25,50.3z"/>
	<path style="fill-rule:evenodd;clip-rule:evenodd;fill:#668A30;" d="M20.1,70.75l-1.35-0.55c2.3-0.233,4.367-0.083,6.2,0.45
		c-0.034,0.733-1.367,1.117-4,1.15c-2.633,0.034-4.017-0.216-4.15-0.75L20.1,70.75z"/>
	<path style="fill-rule:evenodd;clip-rule:evenodd;fill:#668A30;" d="M22.85,67.95c0.333-0.767,1.117-0.983,2.35-0.65
		c1.167,0.3,1.917,0.767,2.25,1.4c-1.034,0.167-2.083,0.233-3.15,0.2c-1.267-0.066-2.283-0.267-3.05-0.6L22.85,67.95z"/>
	<path style="fill-rule:evenodd;clip-rule:evenodd;fill:#668A30;" d="M61.5,82.55l-0.65,2.05l0.65-0.05c0.267,0.834,0.2,1.834-0.2,3
		c-0.1,0.367-0.55,1.067-1.35,2.101c-0.301,0.4-0.518,0.792-0.65,1.175c0.194-1.759,0.361-3,0.5-3.726
		C60.133,85.3,60.7,83.783,61.5,82.55z"/>
	<path style="fill-rule:evenodd;clip-rule:evenodd;fill:#668A30;" d="M59.6,81.7c-0.934,0.5-1.533,1.783-1.8,3.85
		c-0.3,2.567-0.55,4.033-0.75,4.4c-0.2-1.066-0.1-2.833,0.3-5.3c0.3-1.934,0.667-3.384,1.1-4.351c0.533-1.133,0.867-1.399,1-0.8
		c0.033,1.033,0.083,1.717,0.15,2.05V81.7z"/>
	<path style="fill-rule:evenodd;clip-rule:evenodd;fill:#668A30;" d="M49.8,101.85c-1-0.033-1.767-0.133-2.3-0.3
		c0.067-0.6,0.8-0.983,2.2-1.149c0.767-0.101,1.733-0.15,2.9-0.15l-3,0.45c5.267-0.434,8.017-0.3,8.25,0.399
		c0.1,0.267,0.05,0.45-0.15,0.551c-0.267,0.066-0.483,0.133-0.65,0.199c-0.733,0.334-2.35,0.351-4.85,0.051
		C51.167,101.866,50.367,101.85,49.8,101.85z"/>
	<path style="fill-rule:evenodd;clip-rule:evenodd;fill:#668A30;" d="M56.5,104.4c2.485-0.239,3.185,0.244,2.1,1.449
		c-0.533,0.634-1.483,1.067-2.85,1.301c-1.133,0.199-2.2,0.233-3.2,0.1c0.233-0.5,0.4-0.783,0.5-0.85
		c-0.466-0.134-1.15-0.167-2.05-0.101c-0.933,0.033-1.617,0.017-2.05-0.05c0.4-0.667,1.566-1.2,3.5-1.6
		C54.25,104.25,55.6,104.167,56.5,104.4z"/>
	<path style="fill-rule:evenodd;clip-rule:evenodd;fill:#668A30;" d="M85.05,96.3L81.9,94.9c2.267,0.767,3.517,1.199,3.75,1.3
		c1.666,0.7,2.55,1.467,2.649,2.3c-0.633,0.033-1.467-0.2-2.5-0.7c-1.2-0.533-1.7-1.066-1.5-1.6
		C84.533,96.167,84.783,96.2,85.05,96.3z"/>
	<path style="fill-rule:evenodd;clip-rule:evenodd;fill:#668A30;" d="M93.325,101.9c-2.072,1.028-5.798,1.146-11.175,0.35
		c-1.2-0.167-2.117-0.366-2.75-0.6c-1.067-0.4-1.801-0.967-2.2-1.7c-0.667-1.134-0.617-2.066,0.149-2.8
		c0.667-0.667,1.601-1.017,2.801-1.051c-1.2,0.467-1.667,1.317-1.4,2.551c0.233,1.199,1.066,2.017,2.5,2.449
		c1.4,0.434,3.417,0.717,6.05,0.851C89.585,102.05,91.594,102.032,93.325,101.9z"/>
	<path style="fill-rule:evenodd;clip-rule:evenodd;fill:#668A30;" d="M73.9,106.7c-0.867-0.033-1.617-0.233-2.25-0.601
		c-0.801-0.5-1.017-1.133-0.65-1.899c0.167,0.467,0.283,0.816,0.35,1.05c0.134,0.4,0.367,0.7,0.7,0.9
		c0.416,0.271,1.05,0.454,1.9,0.55c0.191-0.008,0.524-0.041,1-0.101c0.399-0.033,0.733-0.033,1,0
		c0.188,0.027,0.405,0.077,0.649,0.15l2.25,0.5c0.334,0.233,0.617,0.483,0.851,0.75c-0.4-0.1-1.017-0.35-1.851-0.75
		c-0.476-0.218-0.893-0.385-1.25-0.5c-1.036,0.046-1.919,0.029-2.649-0.05H73.9z"/>
	<path style="fill-rule:evenodd;clip-rule:evenodd;fill:#668A30;" d="M78.1,104.475c-0.405-0.344-1.022-0.752-1.85-1.225
		c-0.934-0.533-1.566-0.95-1.9-1.25c0.767-0.267,1.601-0.017,2.5,0.75C77.545,103.296,77.962,103.871,78.1,104.475z"/>
	<path style="fill-rule:evenodd;clip-rule:evenodd;fill:#668A30;" d="M84.25,91.35l1,1.601c1.9,0.967,4.267,1.583,7.1,1.85
		c0.634,0.066,1.634,0.101,3,0.101c1.233,0.033,2.217,0.166,2.95,0.399c-1.967,0.767-4.583,0.9-7.85,0.4
		c-1.8-0.334-3.101-0.733-3.9-1.2C85.483,93.833,84.717,92.783,84.25,91.35z"/>
	<path style="fill-rule:evenodd;clip-rule:evenodd;fill:#668A30;" d="M90,90.15l-2.75-0.601c2.434,0.3,3.85,0.483,4.25,0.55
		c2.134,0.434,3.033,1.034,2.7,1.801c-0.2,0.5-1.367,0.533-3.5,0.1c-2.101-0.434-3.283-0.917-3.55-1.45
		C87.384,90.45,88.333,90.316,90,90.15z"/>
	<path style="fill-rule:evenodd;clip-rule:evenodd;fill:#668A30;" d="M118.2,76.35l0.7,0.3c-0.601,0.733-1.584,1.55-2.95,2.45
		c-1.634,1.134-2.667,1.9-3.101,2.301c-1.933,1.866-3.433,3.233-4.5,4.1c-1.933,1.533-3.866,2.45-5.8,2.75
		c-2.366,0.333-4.267-0.4-5.7-2.2c0.5-0.1,1.167-0.133,2-0.1c1,0.066,1.667,0.083,2,0.05c1.267-0.133,2.267-0.283,3-0.45
		c1-0.233,1.917-0.6,2.75-1.1c0.667-0.4,2.483-2.017,5.45-4.851C114.217,77.5,116.267,76.417,118.2,76.35z"/>
	<path style="fill-rule:evenodd;clip-rule:evenodd;fill:#577D1E;" d="M84.9,13.95l1,0.1c1.166,0.167,1.933,0.733,2.3,1.7
		c0.267,0.667,0.316,1.684,0.149,3.05c-0.233,2.6-1.033,4.083-2.399,4.45c-0.167-0.934-0.184-2.316-0.05-4.15
		c-0.034-0.534-0.217-1.383-0.551-2.55C85.083,15.45,84.934,14.583,84.9,13.95z"/>
	<path style="fill-rule:evenodd;clip-rule:evenodd;fill:#577D1E;" d="M16.3,23.05L16.6,23c1.933-0.333,3.183,0.617,3.75,2.85
		c0.233,0.833,0.233,1.566,0,2.2c-0.267,0.634-0.717,0.884-1.35,0.75c-0.233-1.466-0.467-2.517-0.7-3.15
		C17.867,24.55,17.2,23.684,16.3,23.05z"/>
	<path style="fill-rule:evenodd;clip-rule:evenodd;fill:#577D1E;" d="M10.2,28.7c-0.333-1.134-0.284-2.117,0.15-2.95l0.3-0.35
		c0.367-0.133,0.9-0.417,1.6-0.85c0.667-0.3,1.267-0.333,1.8-0.1c0.767,0.4,0.95,1.267,0.55,2.6c-0.567,0.1-0.983,0.15-1.25,0.15
		c0.066,1.1,0.1,1.917,0.1,2.45c-0.034,0.967-0.467,1.35-1.3,1.15C11.25,30.6,10.6,29.9,10.2,28.7z"/>
	<path style="fill-rule:evenodd;clip-rule:evenodd;fill:#4D6E1A;" d="M43.35,32.65L40.7,32.3c-0.633,0.267-1.617,0.317-2.95,0.15
		c-0.4-0.034-1.417-0.2-3.05-0.5c-2.1-0.4-3.434-1.117-4-2.15c3.533,0,7.066,0.233,10.6,0.7c0.967,0.133,1.534,0.333,1.7,0.6
		C43.067,31.633,43.183,32.15,43.35,32.65z"/>
	<path style="fill-rule:evenodd;clip-rule:evenodd;fill:#4D6E1A;" d="M43.05,34.15l2.9,0.25c0.4-0.167,0.716-0.15,0.95,0.05
		c0.233,0.2,0.283,0.5,0.15,0.9c-0.133,0.433-0.533,0.716-1.2,0.85c-0.733,0.1-1.233,0.167-1.5,0.2
		c-5.7,0.667-8.717,0.284-9.05-1.15l3.9-0.75C40.767,34.2,42.05,34.083,43.05,34.15z"/>
	<path style="fill-rule:evenodd;clip-rule:evenodd;fill:#386611;" d="M32.7,57.45l-1.9,0.95c-0.933,0.034-1.983,0.284-3.15,0.75
		c-1.867,0.733-2.883,1.133-3.05,1.2c-0.333-0.733,0.316-1.633,1.95-2.7c1.333-0.867,2.517-1.433,3.55-1.7
		c0.533-0.134,1.183-0.217,1.95-0.25c1.034-0.034,1.633,0.1,1.8,0.4c0.2,0.367,0.133,0.7-0.2,1
		C33.383,57.333,33.067,57.45,32.7,57.45z"/>
	<path style="fill-rule:evenodd;clip-rule:evenodd;fill:#386611;" d="M42.75,46.5l-0.5-0.2c0.1,0.767,0.15,1.5,0.15,2.2
		c-1.133,0.333-2.217-0.167-3.25-1.5c-0.967-1.233-1.383-2.4-1.25-3.5c0.567,0.434,1.367,0.95,2.4,1.55
		C41.567,45.783,42.383,46.267,42.75,46.5z"/>
	<path style="fill-rule:evenodd;clip-rule:evenodd;fill:#386611;" d="M49.3,43.9c-0.833-0.433-2.033-0.633-3.6-0.6
		c-1.767,0.034-2.934-0.05-3.5-0.25c0.733-0.7,1.75-1.233,3.05-1.6c1.133-0.333,2.3-0.5,3.5-0.5c0.167,0.733,0.217,1.233,0.15,1.5
		L49.3,43.9z"/>
	<path style="fill-rule:evenodd;clip-rule:evenodd;fill:#386611;" d="M55.25,43.1c-0.733,0.1-1.45-0.217-2.15-0.95
		c-0.4-0.4-0.934-1.033-1.6-1.9c0.533-0.167,1.317-0.217,2.35-0.15c1.066,0.066,1.767,0.216,2.1,0.45
		c0.633,0.467,0.983,1.05,1.05,1.75c0.033,0.767-0.367,1.184-1.2,1.25L55.25,43.1z"/>
	<path style="fill-rule:evenodd;clip-rule:evenodd;fill:#386611;" d="M54.85,68.8c0.533,0.9,0.983,1.617,1.35,2.15
		c-0.4,0.233-0.967,0.3-1.7,0.2c-0.177-0.025-0.561-0.117-1.15-0.275c-1.104-0.76-2.62-1.752-4.55-2.975
		c-2.066-1.367-3.683-2.667-4.85-3.9c0.5,0.2,1.983,0.7,4.45,1.5c1.9,0.6,3.383,1.15,4.45,1.65C53.683,67.55,54.35,68.1,54.85,68.8z
		"/>
</g>
</svg>
