<?xml version="1.0" encoding="iso-8859-1"?>
<!-- Generator: Adobe Illustrator 15.1.0, SVG Export Plug-In . SVG Version: 6.00 Build 0)  -->
<!DOCTYPE svg PUBLIC "-//W3C//DTD SVG 1.1//EN" "http://www.w3.org/Graphics/SVG/1.1/DTD/svg11.dtd">
<svg version="1.1" id="FlashAICB" xmlns="http://www.w3.org/2000/svg" xmlns:xlink="http://www.w3.org/1999/xlink" x="0px" y="0px"
	 width="162.9px" height="46.6px" viewBox="0 0 162.9 46.6" style="enable-background:new 0 0 162.9 46.6;" xml:space="preserve">
<symbol  id="FlashAICB_x2F_Layer_11_copy_2_x2F__x3C_Path_x3E_" viewBox="0 -2.756 8.595 2.756">
	<g id="Layer_1_8_">
		<path style="fill-rule:evenodd;clip-rule:evenodd;" d="M6.35-0.3l1,0.3c1.267-0.033,1.566-0.433,0.9-1.2
			C7.617-1.933,6.867-2.417,6-2.65C5.233-2.85,4.15-2.767,2.75-2.4C1.317-2.033,0.4-1.583,0-1.05c0.733,0.1,1.767,0.267,3.1,0.5
			C4.3-0.383,5.383-0.3,6.35-0.3z"/>
	</g>
</symbol>
<symbol  id="FlashAICB_x2F_Layer_11_copy_2_x2F__x3C_Path_x3E__x5F_0" viewBox="0 -43.6 132.7 43.59">
	<g id="Layer_1_9_">
		<path style="fill-rule:evenodd;clip-rule:evenodd;" d="M122.2-0.15c5.175-0.315,8.675-0.499,10.5-0.55
			c-1.712,0.003-3.646-0.063-5.8-0.2c-3-0.233-5.25-0.4-6.75-0.5c-2.6-0.133-4.617-0.333-6.05-0.6c-1.967-0.333-3.95-0.9-5.95-1.7
			c-2.566-1.033-3.867-1.566-3.9-1.6c-1.533-0.567-2.883-0.95-4.05-1.15c-2.667-0.433-5.633-1.533-8.9-3.3
			c-3.7-2.233-6.483-3.883-8.35-4.95c-2.733-1.566-5.233-2.716-7.5-3.45c-2.367-0.767-5.083-1.3-8.15-1.6
			c1.5-1.767,6.034-3,13.6-3.7c5-0.433,11.417-1.483,19.25-3.15c1.233-0.267,3.017-0.9,5.35-1.9c1.753-0.737,3.195-1.271,4.325-1.6
			c-0.505,0.095-1.097,0.161-1.775,0.2c-1.5,0.066-2.45,0.133-2.85,0.2c-0.633,0.1-1.517,0.367-2.65,0.8
			c-1.167,0.4-2.066,0.667-2.7,0.8c-1.3,0.233-2.934,0.25-4.9,0.05c-0.1,0-1.7-0.217-4.8-0.65c-2.566-0.1-4.45-0.283-5.65-0.55
			c-2.067-0.467-3.167-1.617-3.3-3.45c-0.067-1.233,0.283-3.066,1.05-5.5c0.733-2.367,1.033-4.167,0.9-5.4
			c-1.566,1.6-2.65,3.567-3.25,5.9c-0.267,0.9-0.433,2.3-0.5,4.2c-0.1,1.933-0.267,3.317-0.5,4.15c-0.333,1.133-1.433,2.15-3.3,3.05
			c-0.067,0.033-1.667,0.65-4.8,1.85c-1.233,0.467-3.233,1.067-6,1.8c-2.667,0.7-4.65,1.316-5.95,1.85
			c-3.267,1.367-6.533,2.267-9.8,2.7c-6.367,0.8-11.35,1.267-14.95,1.4c-2.767,0.133-5.883,0.517-9.35,1.15
			c-0.6,0.1-3.683,0.733-9.25,1.9c-1.067,0.2-2.517,0.417-4.35,0.65c-2.533,0.3-3.983,0.483-4.35,0.55
			c-0.6,0.1-1.75,0.117-3.45,0.05C1.917-12.433,0.8-12.317,0-12.05c0.367,1.2,1.217,2.767,2.55,4.7L20.9-7.7
			c1.233-0.533,3.117-1.383,5.65-2.55c2.267-0.967,4.233-1.567,5.9-1.8c1.4-0.2,3.133-0.35,5.2-0.45
			c1.167-0.067,2.883-0.133,5.15-0.2c4.2-0.167,7.017-0.233,8.45-0.2c3.2,0.1,5.883,0.5,8.05,1.2c1.667,0.534,3.817,0.85,6.45,0.95
			c1.5,0.033,3.733,0.05,6.7,0.05c2.433,0.1,5.283,0.383,8.55,0.85c1.3,0.2,4.15,0.7,8.55,1.5c1.4,0.267,3.284,1.017,5.65,2.25
			c2.5,1.267,4.417,2.067,5.75,2.4c1.1,0.267,2.716,0.767,4.85,1.5c2.1,0.733,3.7,1.233,4.8,1.5
			C113.6-0.033,117.467,0.15,122.2-0.15z"/>
	</g>
</symbol>
<symbol  id="FlashAICB_x2F_Layer_11_copy_2_x2F__x3C_Path_x3E__x5F_1" viewBox="0 -5.213 9.861 5.213">
	<g id="Layer_1_7_">
		<path style="fill-rule:evenodd;clip-rule:evenodd;" d="M7.15,0l-0.3-0.7c1.633,0,2.6-0.017,2.9-0.05c0.5-1.8-0.683-3.1-3.55-3.9
			C3.567-5.383,1.5-5.4,0-4.7c1.067,1.034,2.2,1.917,3.4,2.65C3.967-1.683,5.217-1,7.15,0z"/>
	</g>
</symbol>
<symbol  id="FlashAICB_x2F_Layer_11_copy_2_x2F__x3C_Path_x3E__x5F_2" viewBox="0 -2.663 12.05 2.67">
	<g id="Layer_1_6_">
		<path style="fill-rule:evenodd;clip-rule:evenodd;" d="M12.05-0.95v-0.7L11.1-2.1c-2.9-0.433-5.233-0.617-7-0.55
			C2.567-2.45,1.2-2.083,0-1.55C0.4-1.217,0.817-1.033,1.25-1c0.3,0.033,0.8,0.05,1.5,0.05c0.467,0.034,1.233,0.2,2.3,0.5
			C6.117-0.183,6.833-0.033,7.2,0c0.667,0.033,1.433-0.05,2.3-0.25C10-0.383,10.85-0.617,12.05-0.95z"/>
	</g>
</symbol>
<symbol  id="FlashAICB_x2F_Layer_11_copy_2_x2F__x3C_Path_x3E__x5F_3" viewBox="0.002 -4.782 8.148 4.782">
	<g id="Layer_1_5_">
		<path style="fill-rule:evenodd;clip-rule:evenodd;" d="M4.8,0l3.35-0.35c-0.5-1.233-1.367-2.3-2.6-3.2
			c-1.4-1.034-2.767-1.417-4.1-1.15C-0.317-4.333-0.467-3.55,1-2.35C1.433-2.017,2.7-1.233,4.8,0z"/>
	</g>
</symbol>
<symbol  id="FlashAICB_x2F_Layer_11_copy_2_x2F__x3C_Path_x3E__x5F_4" viewBox="0 -6.627 19.35 6.623">
	<g id="Layer_1_4_">
		<path style="fill-rule:evenodd;clip-rule:evenodd;" d="M6.7-0.05c2,0.2,4.283-0.25,6.85-1.35c2.534-1.067,4.467-2.383,5.8-3.95
			C18.417-6.117,16.5-6.533,13.6-6.6c-2.7-0.1-4.783,0.083-6.25,0.55C4.983-5.317,2.533-3.417,0-0.35L6.7-0.05z"/>
	</g>
</symbol>
<symbol  id="FlashAICB_x2F_Layer_11_copy_2_x2F__x3C_Path_x3E__x5F_5" viewBox="0 -7.04 11.564 7.04">
	<g id="Layer_1_3_">
		<path style="fill-rule:evenodd;clip-rule:evenodd;" d="M6.4-5.6C6.133-5.867,6-6.133,6-6.4C3.767-6.933,1.767-7.133,0-7
			c0.133,1.733,1,3.2,2.6,4.4C2.967-2.333,4.483-1.467,7.15,0l4.35-1.35c0.1-0.367,0.083-0.816-0.05-1.35
			C9.65-3.133,7.967-4.1,6.4-5.6z"/>
	</g>
</symbol>
<symbol  id="FlashAICB_x2F_Layer_11_copy_2_x2F__x3C_Path_x3E__x5F_6" viewBox="0 -2.9 13.3 2.9">
	<g id="Layer_1_2_">
		<path style="fill-rule:evenodd;clip-rule:evenodd;" d="M7.6,0l5.7-0.7c-0.633-0.133-1.517-0.5-2.65-1.1
			c-1-0.534-1.933-0.833-2.8-0.9c-2-0.133-3.333-0.2-4-0.2C2.183-2.9,0.9-2.717,0-2.35c1.033,1,2.2,1.667,3.5,2
			C4.4-0.15,5.767-0.033,7.6,0z"/>
	</g>
</symbol>
<g>
	
		<use xlink:href="#FlashAICB_x2F_Layer_11_copy_2_x2F__x3C_Path_x3E__x5F_6"  width="13.3" height="2.9" y="-2.9" transform="matrix(1 0 0 -1 61.6001 26.3496)" style="overflow:visible;opacity:0.3008;enable-background:new    ;"/>
	
		<use xlink:href="#FlashAICB_x2F_Layer_11_copy_2_x2F__x3C_Path_x3E__x5F_5"  width="11.564" height="7.04" y="-7.04" transform="matrix(1 0 0 -1 95.4004 29.7002)" style="overflow:visible;opacity:0.3008;enable-background:new    ;"/>
	
		<use xlink:href="#FlashAICB_x2F_Layer_11_copy_2_x2F__x3C_Path_x3E__x5F_4"  width="19.35" height="6.623" y="-6.627" transform="matrix(1 0 0 -1 133.2002 8)" style="overflow:visible;opacity:0.3008;enable-background:new    ;"/>
	
		<use xlink:href="#FlashAICB_x2F_Layer_11_copy_2_x2F__x3C_Path_x3E__x5F_3"  width="8.148" height="4.782" x="0.002" y="-4.782" transform="matrix(1 0 0 -1 61.3999 31.3496)" style="overflow:visible;opacity:0.3008;enable-background:new    ;"/>
	
		<use xlink:href="#FlashAICB_x2F_Layer_11_copy_2_x2F__x3C_Path_x3E__x5F_2"  width="12.05" height="2.67" y="-2.663" transform="matrix(1 0 0 -1 150.8496 2.3999)" style="overflow:visible;opacity:0.3008;enable-background:new    ;"/>
	
		<use xlink:href="#FlashAICB_x2F_Layer_11_copy_2_x2F__x3C_Path_x3E__x5F_1"  width="9.861" height="5.213" y="-5.213" transform="matrix(1 0 0 -1 131.0498 31.3496)" style="overflow:visible;opacity:0.3008;enable-background:new    ;"/>
	
		<use xlink:href="#FlashAICB_x2F_Layer_11_copy_2_x2F__x3C_Path_x3E_"  width="8.595" height="2.756" y="-2.756" transform="matrix(1 0 0 -1 118.5498 36.0498)" style="overflow:visible;opacity:0.3008;enable-background:new    ;"/>
</g>
<g>
	<path style="fill-rule:evenodd;clip-rule:evenodd;fill:#494309;" d="M69.2,25.35l5.7,0.7c-0.633,0.134-1.517,0.5-2.65,1.101
		c-1,0.533-1.933,0.833-2.8,0.899c-2,0.134-3.333,0.2-4,0.2c-1.667,0-2.95-0.184-3.85-0.55c1.033-1,2.2-1.667,3.5-2
		C66,25.5,67.367,25.384,69.2,25.35z"/>
	<path style="fill-rule:evenodd;clip-rule:evenodd;fill:#494309;" d="M106.9,30.05c0.433,2.066-0.967,3.634-4.2,4.7
		c-2.5,0.833-4.934,1.15-7.3,0.95c0.133-1.733,1-3.2,2.6-4.4c0.367-0.267,1.884-1.133,4.55-2.6L106.9,30.05z"/>
	<path style="fill-rule:evenodd;clip-rule:evenodd;fill:#494309;" d="M140.55,13.05c-2.366-0.733-4.816-2.633-7.35-5.7l6.7-0.3
		c2-0.2,4.283,0.25,6.85,1.35c2.533,1.067,4.467,2.383,5.8,3.95c-0.933,0.767-2.85,1.183-5.75,1.25
		C144.1,13.7,142.017,13.517,140.55,13.05z"/>
	<path style="fill-rule:evenodd;clip-rule:evenodd;fill:#494309;" d="M66.2,30.35l3.35,0.351c-0.5,1.233-1.366,2.3-2.6,3.2
		c-1.4,1.033-2.767,1.416-4.1,1.149c-1.767-0.366-1.917-1.149-0.45-2.35C62.833,32.366,64.1,31.583,66.2,30.35z"/>
	<path style="fill-rule:evenodd;clip-rule:evenodd;fill:#494309;" d="M158.05,1.4c0.667-0.033,1.434,0.05,2.3,0.25
		c0.5,0.133,1.351,0.367,2.551,0.7v0.7c-1.367,0.934-3.4,1.333-6.101,1.2c-2.366-0.133-4.35-0.566-5.95-1.3
		c0.4-0.333,0.817-0.517,1.25-0.55c0.301-0.033,0.801-0.05,1.5-0.05c0.467-0.034,1.233-0.2,2.301-0.5
		C156.967,1.583,157.684,1.434,158.05,1.4z"/>
	<path style="fill-rule:evenodd;clip-rule:evenodd;fill:#494309;" d="M138.2,30.35l-0.3,0.7c1.633,0,2.6,0.017,2.899,0.05
		c0.5,1.801-0.683,3.101-3.55,3.9c-2.633,0.733-4.7,0.75-6.2,0.05c1.067-1.033,2.2-1.916,3.4-2.649
		C135.017,32.033,136.267,31.35,138.2,30.35z"/>
	<path style="fill-rule:evenodd;clip-rule:evenodd;fill:#494309;" d="M124.9,35.35l1-0.3c1.267,0.033,1.566,0.434,0.899,1.2
		c-0.633,0.733-1.383,1.217-2.25,1.45c-0.767,0.2-1.85,0.116-3.25-0.25c-1.433-0.367-2.35-0.816-2.75-1.351
		c0.733-0.1,1.767-0.267,3.101-0.5C122.85,35.434,123.934,35.35,124.9,35.35z"/>
</g>
<g>
	<path style="fill-rule:evenodd;clip-rule:evenodd;fill:#3A3607;" d="M158.9,1.8l0.5,0.5c-0.267,0.534-0.767,0.8-1.5,0.8
		c-0.733-0.034-1.233-0.3-1.5-0.8C156.967,2.133,157.8,1.967,158.9,1.8z"/>
	<path style="fill-rule:evenodd;clip-rule:evenodd;fill:#3A3607;" d="M67.4,30.3h0.5c0.133,0.9-0.267,1.65-1.2,2.25
		c-0.9,0.601-1.767,0.767-2.6,0.5c0.2-0.467,0.783-0.967,1.75-1.5C66.783,31.017,67.3,30.6,67.4,30.3z"/>
	<path style="fill-rule:evenodd;clip-rule:evenodd;fill:#3A3607;" d="M72.9,26.8C71.267,26.9,70,26.967,69.1,27
		c-1.6,0.033-2.817-0.1-3.65-0.4c0.6-0.399,1.917-0.583,3.95-0.55C71.467,26.05,72.633,26.3,72.9,26.8z"/>
	<path style="fill-rule:evenodd;clip-rule:evenodd;fill:#3A3607;" d="M103.4,28.8l0.25,0.25c2.199-0.233,2.933,0.351,2.199,1.75
		c-0.366,0.667-1.533,1.351-3.5,2.05c-1.399,0.5-2.732,0.884-4,1.15C99.684,30.6,101.367,28.866,103.4,28.8z"/>
	<path style="fill-rule:evenodd;clip-rule:evenodd;fill:#3A3607;" d="M135.9,6.55c0.933-0.033,1.916,0.134,2.949,0.5
		c0.601,0.2,1.534,0.55,2.801,1.05c0.3,0.1,1.183,0.55,2.649,1.35c0.335,0.182,0.644,0.34,0.925,0.475
		c-0.386-0.082-0.827-0.157-1.324-0.225c-1.567-0.233-2.634-0.467-3.2-0.7c-1.4-0.633-2.467-1.083-3.2-1.35
		c-1.267-0.5-2.383-0.7-3.35-0.6L135.9,6.55z"/>
	<path style="fill-rule:evenodd;clip-rule:evenodd;fill:#3A3607;" d="M125.65,35.3v0.25c-1.033,0.533-2.017,0.65-2.95,0.351
		C123.434,35.366,124.417,35.167,125.65,35.3z"/>
	<path style="fill-rule:evenodd;clip-rule:evenodd;fill:#3A3607;" d="M137.65,31.05v0.25c-0.367,0.134-0.95,0.783-1.75,1.95
		c-0.634,0.9-1.567,1.233-2.801,1c0.434-0.333,1.2-0.866,2.301-1.6C136.4,31.983,137.15,31.45,137.65,31.05z"/>
</g>
<g>
	
		<use xlink:href="#FlashAICB_x2F_Layer_11_copy_2_x2F__x3C_Path_x3E__x5F_0"  width="132.7" height="43.59" y="-43.6" transform="matrix(1 0 0 -1 2 3)" style="overflow:visible;opacity:0.1484;enable-background:new    ;"/>
</g>
<g>
	<path style="fill-rule:evenodd;clip-rule:evenodd;fill:#4B3717;" d="M15.7,14.8c-4.967-0.333-8.184-0.667-9.65-1
		c-1.633-0.366-3.116-0.917-4.45-1.65L0.05,11.1c-0.066-0.534-0.017-1.15,0.15-1.85C0.533,7.85,1.267,6.767,2.4,6
		c1.1-0.733,2.35-1.184,3.75-1.35c0.7-0.1,1.284-0.117,1.75-0.05l4.9,1.35c3.5,1.066,5.884,2,7.15,2.8
		c1.466,0.934,5.7,2.066,12.7,3.4c6.633,1.267,12.367,2.1,17.2,2.5c10.433,0.9,21.35-0.45,32.75-4.05
		c3.768-1.2,8.717-2.917,14.851-5.15c4.434-1.634,7.616-2.65,9.55-3.05c1.833-0.367,5.217-0.633,10.15-0.8
		c5.199-0.2,8.866-0.467,11-0.8c4.366-0.7,9.366-0.95,15-0.75C134.75,0.983,128.3,1.733,123.8,2.3c-4.899,0.534-8.566,0.967-11,1.3
		c-4.267,0.566-7.333,1.216-9.2,1.95c-4.633,1.8-8.533,3.3-11.699,4.5c-5.967,2.333-10,3.967-12.101,4.9
		c-2.733,1.233-7.167,2.483-13.3,3.75c0.033,0.033,0.267,0.316,0.7,0.85c0.3,0.4,0.617,0.75,0.95,1.05
		c1.167,1.066,3.95,2.183,8.35,3.35c4.434,1.267,8.184,1.934,11.25,2c6.867,0.2,12.767,0.983,17.7,2.35c1.399,0.4,3.767,1.4,7.1,3
		c1.033,0.434,2.167,0.816,3.4,1.15c2.133,0.533,3.25,0.816,3.35,0.85c-2.2-0.133-4.916-0.566-8.149-1.3
		c-3.567-0.833-6.25-1.434-8.051-1.8c-2.1-0.434-4.732-0.667-7.899-0.7c-4.167-0.033-6.767-0.1-7.8-0.2l-0.7-0.05
		c-1.634,2.634-2.617,5.283-2.95,7.95c-0.167,1.5,0.05,2.783,0.65,3.85c0.066,0.101,0.899,1.167,2.5,3.2
		c-1.667,0.033-3.117-0.8-4.351-2.5c-1.1-1.467-1.716-3.066-1.85-4.8c-0.2-1.733-0.184-3.566,0.05-5.5l0.2-2.75l-3.6-0.3
		c-1.767-0.134-3.4-0.45-4.9-0.95c-1.233-0.434-2.717-1.134-4.45-2.101c-0.467-0.267-2.367-0.983-5.7-2.149
		c-2.566-0.9-4.283-1.867-5.15-2.9c-2.566,0.267-4.55,0.3-5.95,0.1c-2-0.3-6.483-1.15-13.45-2.55c-6.667-1.333-10.717-2.1-12.15-2.3
		C24.533,15.417,21.233,15.167,15.7,14.8z"/>
	<g>
		<path style="fill-rule:evenodd;clip-rule:evenodd;fill:#3C2C12;" d="M62,16.25c0.733-0.133,1.983-0.017,3.75,0.35
			c1.6,0.3,2.767,0.316,3.5,0.05L69,16.3c0.333-0.1,1.283-0.316,2.85-0.65c1.2-0.267,2.15-0.55,2.85-0.85
			c-0.767-0.233-1.333-0.383-1.7-0.45c0.533-0.167,1.567-0.567,3.1-1.2c1.4-0.5,2.467-0.716,3.2-0.65
			c-0.233,0.333-0.55,0.6-0.95,0.8c3.067-1.066,7.667-2.7,13.8-4.9c5.899-2.133,10.35-3.716,13.35-4.75c1.566-0.267,3.9-0.5,7-0.7
			c3.167-0.2,5.5-0.417,7-0.65c0.934-0.133,3.017-0.216,6.25-0.25L123.8,2.3c-4.899,0.534-8.566,0.967-11,1.3
			c-4.267,0.566-7.333,1.216-9.2,1.95c-4.633,1.8-8.533,3.3-11.699,4.5c-5.967,2.333-10,3.967-12.101,4.9
			c-2.7,1.2-6.933,2.417-12.7,3.65l-0.55-0.25c-1-0.567-1.733-0.983-2.2-1.25C63.483,16.633,62.7,16.35,62,16.25z"/>
		<path style="fill-rule:evenodd;clip-rule:evenodd;fill:#3C2C12;" d="M131.85,0.85l0.4-0.1c0.267-0.1,0.783-0.184,1.55-0.25
			c0.867-0.066,1.483-0.15,1.851-0.25c2.8-0.133,5.316-0.184,7.55-0.15l-13.05,1.65C130.65,1.583,131.217,1.283,131.85,0.85z"/>
		<path style="fill-rule:evenodd;clip-rule:evenodd;fill:#3C2C12;" d="M30.9,14.1c1.934,0.367,3.467,0.716,4.6,1.05
			c-2.167,0-3.767-0.066-4.8-0.2c1.1,0.433,2.433,0.716,4,0.85c0.833,0.067,2.267,0.117,4.3,0.15c1.133,0.033,2.717,0.3,4.75,0.8
			c2.167,0.533,3.75,0.833,4.75,0.9c-0.433-0.4-1.1-0.716-2-0.95c-1.033-0.233-1.783-0.434-2.25-0.6c0.5,0.133,1.434,0.333,2.8,0.6
			c1.134,0.233,2.05,0.466,2.75,0.7c1.134,0.4,2.333,0.684,3.6,0.85c0.767,0.1,1.95,0.25,3.55,0.45
			c-0.733,0.333-1.267,0.533-1.6,0.6c0.667,0.2,1.417,0.083,2.25-0.35c1.133-0.534,1.883-0.833,2.25-0.9c0,1,0.9,2,2.7,3
			c1.8,1.034,3.284,1.417,4.45,1.15c0.9,0.533,2.517,1.116,4.85,1.75c-0.067,0.133-0.15,0.283-0.25,0.45
			c1.033,0.933,2.683,1.5,4.95,1.699C77.817,26.2,79.6,26.3,81.9,26.4c0.366,0.633,0.949,1.083,1.75,1.35
			c-1.467,1.033-2.45,3.85-2.95,8.45l-0.05,0.3c-0.1-1.934-0.066-3.616,0.1-5.05l0.2-2.75l-3.6-0.3c-1.767-0.134-3.4-0.45-4.9-0.95
			c-1.233-0.434-2.717-1.134-4.45-2.101c-0.467-0.267-2.367-0.983-5.7-2.149c-2.566-0.9-4.283-1.867-5.15-2.9
			c-2.566,0.267-4.55,0.3-5.95,0.1c-2-0.3-6.483-1.15-13.45-2.55c-6.667-1.333-10.717-2.1-12.15-2.3
			c-1.067-0.133-4.367-0.383-9.9-0.75c-4.967-0.333-8.184-0.667-9.65-1c-1.633-0.366-3.116-0.917-4.45-1.65L0.05,11.1
			c-0.033-0.4,0-0.883,0.1-1.45c0.167-1.133,0.6-2.083,1.3-2.85c0.4,0.333,1,0.85,1.8,1.55C3.684,8.617,4.367,8.934,5.3,9.3
			c0.967,0.4,1.65,0.7,2.05,0.9c-0.233-0.034-0.767-0.034-1.6,0C5.083,10.233,4.567,10.167,4.2,10c0.233,0.633,1.1,0.95,2.6,0.95
			c0.833,0,1.967-0.05,3.4-0.15c1.933,0.034,3.183,0.067,3.75,0.1c1.438,0.098,2.655,0.248,3.65,0.45
			c-1.209-0.276-2.109-0.692-2.7-1.25c1.367,0,2.633,0.15,3.8,0.45c1.633,0.4,2.5,1,2.6,1.8c0.8-0.034,1.65,0.033,2.55,0.2
			c0.5,0.134,1.3,0.35,2.4,0.65C26.917,13.367,28.467,13.667,30.9,14.1z"/>
		<path style="fill-rule:evenodd;clip-rule:evenodd;fill:#3C2C12;" d="M91.5,28.6c-0.533-0.666-0.967-1.116-1.3-1.35
			c1-0.134,2.283,0.033,3.85,0.5c1.9,0.533,3.2,0.833,3.9,0.9c0.767,0.066,1.816-0.117,3.149-0.551c0.834-0.1,1.567-0.05,2.2,0.15
			c0.134,0.066,0.817,0.366,2.05,0.9c1.034,0.466,2.867,0.916,5.5,1.35l1.7,0.8c1.033,0.434,2.167,0.816,3.4,1.15
			c2.133,0.533,3.25,0.816,3.35,0.85c-2.2-0.133-4.916-0.566-8.149-1.3c-3.567-0.833-6.25-1.434-8.051-1.8
			c-2.066-0.4-4.6-0.634-7.6-0.7c-4.4-0.066-6.9-0.116-7.5-0.15c0.167-0.633,0.517-0.916,1.05-0.85
			C90.283,28.634,91.1,28.667,91.5,28.6z"/>
		<polygon style="fill-rule:evenodd;clip-rule:evenodd;fill:#3C2C12;" points="67.5,22 67,22.2 66.25,21.7 		"/>
		<path style="fill-rule:evenodd;clip-rule:evenodd;fill:#735425;" d="M49.85,14.65c3.533,0.333,7.066,0.4,10.6,0.2
			c-1.233,0.5-3.034,0.55-5.4,0.15l2.05,0.7c-0.633,0.433-1.733,0.517-3.3,0.25c-1.7-0.4-2.866-0.634-3.5-0.7
			c-3.667-0.467-6.1-0.733-7.3-0.8c0.367,0.066,0.934,0.267,1.7,0.6c-0.934,0.434-2.333,0.384-4.2-0.15c-2-0.7-3.35-1.167-4.05-1.4
			c-0.7-0.2-1.717-0.6-3.05-1.2C40.1,13.533,45.583,14.316,49.85,14.65z"/>
		<path style="fill-rule:evenodd;clip-rule:evenodd;fill:#735425;" d="M19.65,8.85c-0.466-0.167-1.233-0.35-2.3-0.55
			C16.283,8.1,15.5,7.917,15,7.75c0.233,0.2,0.35,0.467,0.35,0.8c-1.1,0-2.633-0.417-4.6-1.25c-1.867-0.833-3.4-1.2-4.6-1.1
			c0.503-0.237,0.978-0.329,1.425-0.275C6.133,5.693,5.092,5.385,4.45,5C5.717,4.6,6.867,4.467,7.9,4.6l4.9,1.35
			c3.5,1.066,5.884,2,7.15,2.8c0.6,0.367,1.8,0.816,3.6,1.35l0.65,0.55c-0.633-0.1-1.4-0.367-2.3-0.8
			C20.7,9.283,19.95,8.95,19.65,8.85z"/>
		<path style="fill-rule:evenodd;clip-rule:evenodd;fill:#735425;" d="M72.95,13.65c-2.4,0.833-4.45,1.05-6.15,0.65v-0.05
			c5.167-0.7,10.434-1.917,15.8-3.65c3.768-1.2,8.717-2.917,14.851-5.15c1.156-0.426,2.231-0.81,3.225-1.15L89.1,8.9
			c-1.6,0.667-3.783,1.367-6.55,2.1c-3.466,0.9-5.733,1.533-6.8,1.9l0.95-0.1c-0.2,0.1-1.017,0.4-2.45,0.9l-1.6-0.15L72.95,13.65z
			 M105.4,3.1c-1.068,0.152-2.019,0.344-2.851,0.575c1.877-0.624,3.36-1.049,4.45-1.275c1.467-0.267,3.017-0.45,4.65-0.55
			c-0.867,0.333-1.533,0.55-2,0.65C109.483,2.533,108.066,2.733,105.4,3.1z"/>
		<path style="fill-rule:evenodd;clip-rule:evenodd;fill:#735425;" d="M62.3,17.2l0.7-0.25c0.957-0.154,2.157,0.43,3.6,1.75h-0.1
			c0.3,0.333,0.833,0.966,1.6,1.9c0.867,0.767,2.316,1.483,4.35,2.15c1.566,0.767,2.816,1.25,3.75,1.45
			c-1.567-0.033-2.633-0.084-3.2-0.15c-1.133-0.167-2.167-0.533-3.1-1.1c-1.633-1.034-2.883-1.767-3.75-2.2
			c-0.9-0.467-1.65-1-2.25-1.6C63.533,18.783,63,18.133,62.3,17.2z"/>
		<path style="fill-rule:evenodd;clip-rule:evenodd;fill:#735425;" d="M85.05,27.35c-0.233,0.4-0.616,0.784-1.149,1.15L84.05,28
			c0.134-0.1,0.267-0.233,0.4-0.4C84.583,27.467,84.783,27.384,85.05,27.35z"/>
		<path style="fill-rule:evenodd;clip-rule:evenodd;fill:#735425;" d="M84.5,28.95c-0.833,0.733-1.483,1.767-1.95,3.1
			c-0.399,1.167-0.6,2.434-0.6,3.8c-0.066-1.899-0.033-3.133,0.1-3.699c0.101-0.4,0.351-0.867,0.75-1.4
			c0.434-0.566,0.7-1.017,0.8-1.35l0.2-0.7L84.5,28.95z"/>
		<polygon style="fill-rule:evenodd;clip-rule:evenodd;fill:#735425;" points="83.6,28.65 83.9,28.5 83.8,28.7 		"/>
		<path style="fill-rule:evenodd;clip-rule:evenodd;fill:#735425;" d="M96.65,26.8l-2.5-0.5c1.566,0.167,3.116,0.367,4.649,0.601
			C98.3,26.9,97.583,26.866,96.65,26.8z"/>
	</g>
</g>
</svg>
