<?xml version="1.0" encoding="iso-8859-1"?>
<!-- Generator: Adobe Illustrator 15.1.0, SVG Export Plug-In . SVG Version: 6.00 Build 0)  -->
<!DOCTYPE svg PUBLIC "-//W3C//DTD SVG 1.1//EN" "http://www.w3.org/Graphics/SVG/1.1/DTD/svg11.dtd">
<svg version="1.1" id="Layer_1" xmlns="http://www.w3.org/2000/svg" xmlns:xlink="http://www.w3.org/1999/xlink" x="0px" y="0px"
	 width="179.1px" height="113.8px" viewBox="0 0 179.1 113.8" style="enable-background:new 0 0 179.1 113.8;" xml:space="preserve"
	>
<g>
	<path style="fill-rule:evenodd;clip-rule:evenodd;fill:#645622;" d="M161.75,14.55c1.1,0.167,2.384,0.3,3.85,0.4
		c1.334,0.133,2.801,0.65,4.4,1.55c1.4,0.8,2.616,1.733,3.65,2.8l0.1,0.1c0.467,0.533,0.884,1.217,1.25,2.05
		c0.233,0.533,0.55,1.333,0.95,2.4c-0.967-0.8-1.884-1.35-2.75-1.65c-0.134,0.6-0.533,1.017-1.2,1.25
		c-0.4,0.167-1.017,0.283-1.85,0.35c-0.4,0.034-0.934,0.017-1.601-0.05l-0.399-0.2c-0.567-0.167-1.267-0.283-2.101-0.35
		c-0.7-0.567-1.25-0.934-1.649-1.1c-0.4-0.167-1.084-0.3-2.051-0.4c-1.233-0.167-1.949-0.267-2.149-0.3
		c-3.066-0.566-5.584-1.566-7.55-3l-2.2-1.7c-1.134-0.867-2.084-1.517-2.851-1.95c-1.233-1.2-2.6-1.983-4.1-2.35h0.15
		c1.899,0.067,3.899,0.934,6,2.6c3.166,2.5,4.949,3.85,5.35,4.05c0.833,0.467,1.684,0.8,2.55,1c0.434,0.1,1.3,0.233,2.601,0.4
		c0.899,0.1,2.1,0.533,3.6,1.3c1.6,0.8,2.8,1.267,3.6,1.4c-0.033-0.167-0.033-0.417,0-0.75c0.034-0.367,0.051-0.617,0.051-0.75
		c1.3,0.767,2.283,1.083,2.949,0.95c-0.066-0.2-0.383-0.934-0.949-2.2c0.199,0.033,0.616,0.017,1.25-0.05
		c-0.4-1.033-1.601-2.083-3.601-3.15c-2.333-1.067-3.899-1.833-4.7-2.3L161.75,14.55z M168.55,23.75c0.601,0.233,1.2,0.567,1.8,1
		c-1.066-0.067-1.899-0.217-2.5-0.45c-0.267-0.1-0.583-0.25-0.949-0.45l-0.15-0.15c-0.233-0.133-0.45-0.284-0.65-0.45h0.051
		l0.35,0.05L168.55,23.75z M172.6,26.3c-0.133-0.267-0.233-0.45-0.3-0.55v-1.9c0.334,0.033,0.566,0.217,0.7,0.55
		c0.2,0.533,0.333,0.833,0.4,0.9c0.233,0.3,0.466,0.467,0.699,0.5c0.267,0.034,0.5,0.117,0.7,0.25c0.767,0.534,1.334,1.267,1.7,2.2
		c0.1,0.333,0.333,1.267,0.7,2.8c-0.434,0.034-0.934-0.066-1.5-0.3c-0.834-0.3-1.517-1.05-2.05-2.25
		C173.184,27.5,172.833,26.767,172.6,26.3z M178.55,27.2c0.101,0.066,0.2,0.117,0.3,0.15l0.101,0.6L178.55,27.2z M121.4,11.95
		h-0.051c-0.066-0.034-0.133-0.05-0.199-0.05c-0.9-0.2-1.884-0.35-2.95-0.45c-1.533-0.6-2.733-1.067-3.601-1.4l-1.25-0.35
		c1.733,0.133,4.184,0.2,7.351,0.2c3.366,0.367,5.767,0.684,7.2,0.95c-0.134-0.1-0.317-0.333-0.551-0.7
		c-0.233-0.4-0.383-0.633-0.449-0.7c0.166,0.066,0.449,0.066,0.85,0c0.4-0.067,0.684-0.083,0.85-0.05
		c-0.066-1.267-0.066-2.217,0-2.85V6.5l0.551,0.1v0.05c0.1,0.333,0.216,0.85,0.35,1.55c0.167,0.566,0.384,0.983,0.65,1.25
		c0.8,0.867,2.283,1.333,4.449,1.4c2.867,0.1,4.483,0.2,4.851,0.3c0.5,0.167,1.05,0.55,1.649,1.15
		c-0.166,0.034-1.083,0.217-2.75,0.55c-1.1,0.233-2.033,0.333-2.8,0.3c-1.8-0.1-3.166-0.267-4.1-0.5c-1.834-0.433-2.834-1.15-3-2.15
		c-0.233,0.133-0.367,0.45-0.4,0.95c0,0.267,0.017,0.667,0.05,1.2c-0.333,0.067-0.75,0.017-1.25-0.15
		c-0.699-0.267-1.116-0.417-1.25-0.45c-0.566-0.1-1.267-0.15-2.1-0.15C122.6,11.933,121.9,11.95,121.4,11.95z M108.15,8.4
		c0.933,0.6,2.166,0.983,3.699,1.15c-2.166,0-3.466-0.033-3.899-0.1C107.917,9.15,107.983,8.8,108.15,8.4z M108.7,7.3l0.1-0.45
		c-0.399,0.033-0.983,0.3-1.75,0.8c-0.566,0.4-1.2,0.5-1.899,0.3c-0.534-0.133-1.233-0.417-2.101-0.85
		c-0.934-0.434-1.633-0.733-2.1-0.9L99.2,5.85c2.033-0.2,3.633-0.184,4.8,0.05c0.267,0.067,0.733,0.25,1.4,0.55
		c0.566,0.233,1.05,0.383,1.449,0.45c-0.066-0.733,0.051-1.383,0.351-1.95c0.5,0.066,0.916-0.034,1.25-0.3
		c0.2-0.167,0.45-0.467,0.75-0.9V3.7l0.399,0.2c0.2,0.133,0.467,0.35,0.801,0.65c0.466,0.434,0.8,0.717,1,0.85L108.7,7.3z M91.1,3.6
		c0.067-0.7,0.184-1.267,0.351-1.7C91.083,2.133,90.8,2.55,90.6,3.15C90.366,3.883,90.15,4.367,89.95,4.6
		c-0.334,0.367-0.8,0.65-1.4,0.85c-0.733,0.233-1.2,0.417-1.4,0.55c-0.233,0.167-0.55,0.533-0.95,1.1c-0.034,0-0.067,0.017-0.1,0.05
		c-1.6,0.367-2.8,0.633-3.6,0.8c-0.7,0.167-1.35,0.3-1.95,0.4L78.9,8.5h-0.05l-3.3-0.75C74.717,7.583,73.967,7.5,73.3,7.5
		l-0.15-0.35l-0.05-0.2C72.867,6.417,72.75,6,72.75,5.7c-0.433,0.267-1.033,0.75-1.8,1.45c-0.767,0.733-1.367,1.233-1.8,1.5
		c-2.233,1.434-4.917,0.85-8.05-1.75c0.633,1.333,0.316,1.983-0.95,1.95c-0.733-0.033-1.533-0.583-2.4-1.65
		C56.983,6.233,56.067,5.85,55,6.05c-0.267,0.9,0.15,1.717,1.25,2.45c1.133,0.8,1.633,1.567,1.5,2.3l-1.8,0.05
		c-0.5,0.033-0.9,0.1-1.2,0.2c-0.333,0.2-0.633,0.35-0.9,0.45c-0.1,0.067-0.25,0.2-0.45,0.4c-0.133,0.133-0.4,0.233-0.8,0.3
		c-0.8,0.133-1.817,0.117-3.05-0.05c-1.367-0.2-2.4-0.333-3.1-0.4h0.1c0-0.667-0.233-1.267-0.7-1.8c-0.367-0.4-0.8-0.667-1.3-0.8
		L44.05,9l-0.3,3.35c-0.4,0.467-0.917,0.983-1.55,1.55c-0.242,0.226-0.5,0.426-0.775,0.6L40.5,14.95l-2.15,0.45
		c-0.934,0.067-2.367-0.033-4.3-0.3H34l-0.5-0.9l0.9,0.25c1.567,0.167,2.967,0.1,4.2-0.2c1.2-0.333,2.033-0.733,2.5-1.2
		c0.467-0.5,0.8-1.316,1-2.45c0.066-0.867,0.15-1.434,0.25-1.7c0.167-0.433,0.7-0.6,1.6-0.5c0.433,0.067,1,0.333,1.7,0.8
		c0.767,0.533,1.383,0.85,1.85,0.95c1.167,0.267,2.8,0.333,4.9,0.2c2.5-0.133,3.733-0.6,3.7-1.4c-0.6-0.4-1.067-0.717-1.4-0.95
		c-0.6-0.4-0.967-0.833-1.1-1.3c-0.333-1.2-0.05-1.883,0.85-2.05c0.533-0.133,1.417-0.133,2.65,0c0.5-1.033,1.733-1.3,3.7-0.8
		c0.333,0.1,1.7,0.633,4.1,1.6c1.4,0.633,2.8,0.917,4.2,0.85c1.633-0.066,2.883-0.617,3.75-1.65c0.4,0.567,0.917,1.017,1.55,1.35
		c0.567,0.267,0.9,0.517,1,0.75c0.967,0.133,2.283-0.017,3.95-0.45c2.1-0.566,3.35-0.867,3.75-0.9c0.267-0.033,1.167,0.033,2.7,0.2
		c1.2,0.1,2.05,0.017,2.55-0.25C88.683,5.183,89,4.9,89.3,4.5c0.4-0.567,0.65-0.917,0.75-1.05c-0.7-0.333-1.167-0.917-1.4-1.75
		c0.2-0.2,0.567-0.367,1.1-0.5l0.6,0.15L90.45,1.7l1.25,0.05C91.6,2.25,91.4,2.867,91.1,3.6z M93.4,5.85h-0.25
		c-0.867,0-1.384-0.033-1.551-0.1C91.4,5.65,91.25,5.3,91.15,4.7C91.316,5,91.8,5.3,92.6,5.6L93.4,5.85z M14.95,20.05
		c0.033,0.034,0.05,0.067,0.05,0.1c0.067,0.133,0.133,0.267,0.2,0.4c0.667,2,0.216,3.333-1.35,4c-0.133,0.067-0.417,0.117-0.85,0.15
		c-0.333,0-0.567,0.1-0.7,0.3c-0.133,0.167-0.2,0.567-0.2,1.2c0.033,0.6-0.083,1.033-0.35,1.3c-0.633,0.667-1.367,0.733-2.2,0.2
		c-1-0.667-1.733-0.934-2.2-0.8c0.767,0.967,0.8,2,0.1,3.1c-0.367,0.633-1.083,1.467-2.15,2.5l0.55,0.25L5.7,32.9l-0.65,0.45
		c-0.466-0.7-0.383-1.267,0.25-1.7c0.934-0.667,1.467-1.15,1.6-1.45c0.233-0.633,0.217-1.3-0.05-2c-0.267-0.667-0.667-1.167-1.2-1.5
		c0.267-0.367,0.783-0.55,1.55-0.55c0.433-0.033,1.066-0.033,1.9,0c0.3-1.066-0.167-2-1.4-2.8c0.833-0.6,2.183-0.5,4.05,0.3
		c1.567,0.633,2.6,0.317,3.1-0.95C15.183,21.833,15.217,20.95,14.95,20.05z M30.4,12.75c-0.066,1.733-0.267,3-0.6,3.8l-1.2,0.05
		c-0.267-0.2-0.533-0.35-0.8-0.45l-1.45-0.5c-0.067-0.033-0.15-0.05-0.25-0.05c-0.967-0.133-1.8,0-2.5,0.4
		c-0.167,0.1-0.633,0.483-1.4,1.15c-0.534,0.467-1.083,0.75-1.65,0.85c-0.6,0.1-1.316,0.083-2.15-0.05c-0.5-0.034-1.333-0.367-2.5-1
		c-1.066-0.567-1.917-0.817-2.55-0.75c0.1,0.466,0.4,1.25,0.9,2.35c-0.1-0.167-0.2-0.316-0.3-0.45
		c-1.567-1.633-2.583-2.85-3.05-3.65c0.9-0.067,2.45,0.367,4.65,1.3c1.833,0.767,3.383,0.833,4.65,0.2
		c0.267-0.133,0.917-0.65,1.95-1.55c0.767-0.667,1.533-1.066,2.3-1.2c0.3-0.034,0.816,0.017,1.55,0.15
		c0.733,0.1,1.267,0.133,1.6,0.1c0.433-0.067,1.15-0.333,2.15-0.8L30.4,12.75z"/>
	<path style="fill-rule:evenodd;clip-rule:evenodd;fill:#746629;" d="M154.75,12.45l-0.45,0.05c-0.7-0.1-1.283,0.033-1.75,0.4
		c-0.533,0.434-0.6,0.967-0.2,1.6c0.2,0.367,0.834,0.683,1.9,0.95c1.066,0.267,1.783,0.3,2.15,0.1c0.633-0.333,0.816-1.05,0.55-2.15
		c0.833,0.3,1.684,0.55,2.55,0.75c0.634,0.133,1.384,0.267,2.25,0.4l0.6,0.35c0.801,0.467,2.367,1.233,4.7,2.3
		c2,1.066,3.2,2.117,3.601,3.15c-0.634,0.066-1.051,0.083-1.25,0.05c0.566,1.267,0.883,2,0.949,2.2
		c-0.666,0.133-1.649-0.184-2.949-0.95c0,0.133-0.017,0.383-0.051,0.75c-0.033,0.333-0.033,0.583,0,0.75c-0.8-0.133-2-0.6-3.6-1.4
		c-1.5-0.767-2.7-1.2-3.6-1.3c-1.301-0.167-2.167-0.3-2.601-0.4c-0.866-0.2-1.717-0.533-2.55-1c-0.4-0.2-2.184-1.55-5.35-4.05
		c-2.101-1.667-4.101-2.533-6-2.6h-0.15l-0.3-0.05c-0.667-0.133-1.367-0.15-2.101-0.05c-0.6-0.6-1.149-0.983-1.649-1.15
		c-0.367-0.1-1.983-0.2-4.851-0.3c-2.166-0.067-3.649-0.533-4.449-1.4c-0.267-0.267-0.483-0.684-0.65-1.25
		c-0.134-0.7-0.25-1.217-0.35-1.55c0.533,0.067,1.033,0.1,1.5,0.1c0.966,0,2.683-0.133,5.149-0.4c-0.467,0.2-0.75,0.433-0.85,0.7
		c-0.2,0.534-0.05,0.917,0.45,1.15c0.133,0.1,0.633,0.25,1.5,0.45c1.333,0.3,2.75,0.434,4.25,0.4c1.966,0,3.216-0.367,3.75-1.1
		c0.333-0.434,0.449-0.833,0.35-1.2c0.5,0.167,1.134,0.383,1.9,0.65c0.666,0.2,1.416,0.367,2.25,0.5
		c0.633,0.167,1.216,0.567,1.75,1.2c0.333,0.367,0.733,0.883,1.199,1.55c0.434,0.567,0.917,1,1.45,1.3
		C154.1,12.117,154.417,12.283,154.75,12.45z M147.15,14.5c0.133,0.067,0.283,0.15,0.449,0.25c0.767,0.433,1.717,1.083,2.851,1.95
		c-0.634-0.467-1.184-0.85-1.65-1.15C148.233,15.15,147.684,14.8,147.15,14.5z M168.55,23.75l-2.05-0.45l-0.35-0.05
		c-0.035-0.001-0.068-0.018-0.101-0.05c0.834,0.066,1.533,0.183,2.101,0.35L168.55,23.75z M172.1,25.55l0.2,0.2
		c0.066,0.1,0.167,0.283,0.3,0.55C172.4,25.967,172.233,25.717,172.1,25.55z M178.95,27.95l-0.101-0.6
		c0.367,1.133,0.301,2.083-0.199,2.85c0.033-0.067,0.066-0.133,0.1-0.2C179.05,29.4,179.116,28.717,178.95,27.95z M145.1,6.7
		c-0.399-0.133-0.783-0.233-1.149-0.3c0.233,0.033,0.467,0.083,0.7,0.15C144.783,6.583,144.934,6.633,145.1,6.7z M160.8,15.7
		c-0.934,0.233-1.25,0.633-0.95,1.2c0.334,0.533,0.917,0.717,1.75,0.55c0.067-0.4,0.017-0.767-0.149-1.1L160.8,15.7z M113.35,9.7
		c-0.5,0-1-0.05-1.5-0.15c-1.533-0.167-2.767-0.55-3.699-1.15l0.55-1.1l2.7-1.9c0.233,0.133,0.433,0.217,0.6,0.25
		c0.634,0.133,1.733,0,3.3-0.4c1.533-0.4,2.884-0.5,4.05-0.3c0.434-0.034,0.917-0.067,1.45-0.1c1.033,0,1.95,0.1,2.75,0.3
		c0.8,0.233,1.967,0.583,3.5,1.05c0.533,0.133,1.05,0.25,1.55,0.35c-0.066,0.633-0.066,1.583,0,2.85
		c-0.166-0.033-0.449-0.017-0.85,0.05c-0.4,0.066-0.684,0.066-0.85,0c0.066,0.066,0.216,0.3,0.449,0.7
		c0.233,0.367,0.417,0.6,0.551,0.7c-1.434-0.267-3.834-0.583-7.2-0.95C117.533,9.9,115.083,9.833,113.35,9.7z M121.15,11.9
		c-0.867-0.167-1.733-0.3-2.601-0.4c-1.467-0.067-2.783-0.133-3.95-0.2c1.067,0.034,2.267,0.083,3.601,0.15
		C119.267,11.55,120.25,11.7,121.15,11.9z M121.75,4.9c-0.134,0-0.884,0.017-2.25,0.05c-3.4,0.566-5.283,1.133-5.65,1.7
		c0.2,0.1,0.45,0.283,0.75,0.55c0.301,0.267,0.534,0.433,0.7,0.5c0.934,0.466,2.267,0.733,4,0.8c1.3,0.067,2.2-0.25,2.7-0.95
		C122.533,6.817,122.45,5.933,121.75,4.9z M109.2,3.75c-0.3,0.433-0.55,0.733-0.75,0.9c-0.334,0.267-0.75,0.367-1.25,0.3
		c-0.3,0.566-0.417,1.216-0.351,1.95c-0.399-0.066-0.883-0.217-1.449-0.45c-0.667-0.3-1.134-0.483-1.4-0.55
		c-1.167-0.233-2.767-0.25-4.8-0.05c-0.767-0.067-1.733-0.083-2.9-0.05C95,5.833,94.033,5.85,93.4,5.85L92.6,5.6
		C91.8,5.3,91.316,5,91.15,4.7C91.017,4.467,91,4.1,91.1,3.6C91.4,2.867,91.6,2.25,91.7,1.75c1.3,0.033,3.184,0,5.649-0.1
		c2.934-0.1,5.217,0,6.851,0.3c0.767,0.133,1.85,0.566,3.25,1.3c0.2,0.067,0.533,0.15,1,0.25C108.75,3.567,109,3.65,109.2,3.75z
		 M101.15,1.85l-0.4-0.2c-0.033,0-2.333,0.05-6.9,0.15c-1.133,0.967-1.6,1.7-1.399,2.2c0.133,0.433,0.583,0.683,1.35,0.75
		c0.434,0,1-0.017,1.7-0.05c1.7,0,2.934-0.117,3.7-0.35C100.634,3.95,101.283,3.117,101.15,1.85z M33.5,14.2
		c-1.067-1.667-2.067-2.567-3-2.7l-0.1,1.25l-0.65-0.1c-1,0.467-1.717,0.733-2.15,0.8c-0.333,0.033-0.867,0-1.6-0.1
		c-0.733-0.133-1.25-0.184-1.55-0.15c-0.767,0.133-1.534,0.533-2.3,1.2c-1.033,0.9-1.683,1.417-1.95,1.55
		c-1.267,0.633-2.817,0.566-4.65-0.2c-2.2-0.933-3.75-1.367-4.65-1.3c0.467,0.8,1.483,2.017,3.05,3.65c0.1,0.133,0.2,0.283,0.3,0.45
		c0.2,0.434,0.433,0.934,0.7,1.5c0.267,0.9,0.233,1.784-0.1,2.65c-0.5,1.267-1.533,1.583-3.1,0.95c-1.867-0.8-3.217-0.9-4.05-0.3
		c1.233,0.8,1.7,1.733,1.4,2.8c-0.833-0.033-1.467-0.033-1.9,0c-0.767,0-1.284,0.184-1.55,0.55c0.533,0.333,0.934,0.833,1.2,1.5
		c0.267,0.7,0.283,1.367,0.05,2c-0.133,0.3-0.667,0.783-1.6,1.45c-0.633,0.434-0.716,1-0.25,1.7L5.7,32.9
		c-0.8,0.667-1.4,0.934-1.8,0.8l-0.35-0.25c-0.1-0.3-0.333-0.434-0.7-0.4c-0.467,0.1-0.8,0.133-1,0.1c-0.167,0-0.3-0.083-0.4-0.25
		c-0.333-0.5-0.284-1.783,0.15-3.85c0.967-1.966,1.483-3.1,1.55-3.4c0.033-0.267,0.1-1.167,0.2-2.7c0.1-1,0.316-1.617,0.65-1.85
		c0.633-0.233,1.233-0.55,1.8-0.95c0.467-0.333,0.85-0.8,1.15-1.4c0.066-0.167,0.183-0.45,0.35-0.85L7,18.7
		c0.567,0.433,1.283,0.75,2.15,0.95c1.033,0.233,1.7,0.133,2-0.3c0.2-0.333,0.017-1.367-0.55-3.1c-0.3-0.8-0.8-1.533-1.5-2.2
		c0.633-0.8,1.367-1.433,2.2-1.9c1.167-0.633,2.733-0.9,4.7-0.8c1.933,0.1,3.317,0.1,4.15,0c0.167,0.6,0.617,1.017,1.35,1.25
		c0.7,0.2,1.517,0.167,2.45-0.1c0.533-0.167,1.1-0.467,1.7-0.9c0.667-0.467,1.1-0.917,1.3-1.35L27.1,9.4
		c-0.733-0.066-1.267-0.1-1.6-0.1c0.6-0.033,1.517,0.05,2.75,0.25c0.833,0.034,1.5-0.033,2-0.2c0.4-0.133,0.9-0.383,1.5-0.75
		L31.2,8.95c-0.4,0.867-0.467,1.617-0.2,2.25s0.95,1.066,2.05,1.3c0.967,0.233,1.817,0.233,2.55,0c1.066-0.333,1.633-1.15,1.7-2.45
		c0.067-1.2-0.283-2.233-1.05-3.1c0.1,0,0.2,0,0.3,0c0.633,0.033,1.417,0.1,2.35,0.2c0.733-0.033,1.4-0.333,2-0.9
		c0.5-0.533,0.917-0.983,1.25-1.35c0,0.867,0.217,1.45,0.65,1.75c0.167,0.133,0.833,0.383,2,0.75c1.367,0.4,2.25,0.617,2.65,0.65
		c1,0.034,1.733-0.367,2.2-1.2C50.283,5.683,49.933,4.733,48.6,4c-1.167-0.633-2.567-0.917-4.2-0.85
		c-0.633,0.233-1.25,0.667-1.85,1.3c0.633-0.7,1.333-1.167,2.1-1.4c0.6-0.2,1.4-0.283,2.4-0.25c0.6,0,1.45,0.017,2.55,0.05
		c0.367-0.033,0.867-0.017,1.5,0.05C51.833,2.967,52.317,3,52.55,3c1.034-0.033,2.25-0.383,3.65-1.05
		c5.3-1.467,10.566-1.967,15.8-1.5c0.733,0.066,1.65,0.066,2.75,0c-0.633,0.2-1.033,0.483-1.2,0.85
		c-0.233,0.434-0.167,1.05,0.2,1.85c0.3,0.7,0.783,1.133,1.45,1.3c0.533,0.167,1.25,0.183,2.15,0.05
		c1.167-0.1,1.983-0.583,2.45-1.45c0.4-0.7,0.567-1.7,0.5-3C80.833,0.017,81.283,0,81.65,0c2.033,0.067,4.733,0.467,8.1,1.2
		c-0.533,0.133-0.9,0.3-1.1,0.5c0.233,0.833,0.7,1.417,1.4,1.75c-0.1,0.133-0.35,0.483-0.75,1.05c-0.3,0.4-0.617,0.683-0.95,0.85
		C87.85,5.617,87,5.7,85.8,5.6c-1.533-0.167-2.433-0.233-2.7-0.2c-0.4,0.033-1.65,0.333-3.75,0.9
		c-1.667,0.434-2.983,0.583-3.95,0.45c-0.1-0.233-0.433-0.483-1-0.75c-0.633-0.333-1.15-0.783-1.55-1.35
		c-0.867,1.033-2.117,1.583-3.75,1.65c-1.4,0.067-2.8-0.216-4.2-0.85c-2.4-0.967-3.767-1.5-4.1-1.6c-1.966-0.5-3.2-0.233-3.7,0.8
		c-1.233-0.133-2.117-0.133-2.65,0c-0.9,0.167-1.184,0.85-0.85,2.05c0.133,0.466,0.5,0.9,1.1,1.3c0.333,0.233,0.8,0.55,1.4,0.95
		c0.033,0.8-1.2,1.267-3.7,1.4c-2.1,0.133-3.733,0.066-4.9-0.2c-0.467-0.1-1.083-0.417-1.85-0.95c-0.7-0.467-1.267-0.733-1.7-0.8
		c-0.9-0.1-1.434,0.067-1.6,0.5c-0.1,0.267-0.184,0.833-0.25,1.7c-0.2,1.133-0.533,1.95-1,2.45c-0.467,0.467-1.3,0.867-2.5,1.2
		c-1.233,0.3-2.633,0.367-4.2,0.2L33.5,14.2z M34.05,15.1l0.15,0.35L34,15.1H34.05z M43.75,12.35c-0.4,0.5-0.9,1.017-1.5,1.55
		c-0.261,0.229-0.536,0.429-0.825,0.6c0.275-0.174,0.533-0.374,0.775-0.6C42.833,13.333,43.35,12.817,43.75,12.35z M75.55,7.75
		l3.3,0.75c-0.345,0.029-0.762,0.021-1.25-0.025C77.56,8.469,77.518,8.46,77.475,8.45H77.45c-0.034,0-0.067,0-0.1,0
		c-0.033-0.034-0.067-0.034-0.1,0c0-0.034-0.017-0.05-0.05-0.05c-0.867-0.3-1.417-0.467-1.65-0.5L75.5,8.2L75.55,7.75z M73.3,7.9
		h0.15l0.175,0.025C73.508,7.911,73.4,7.902,73.3,7.9z M86.2,7.1c0.3-0.067,0.6-0.117,0.9-0.15c-0.333,0.066-0.667,0.133-1,0.2
		C86.133,7.117,86.167,7.1,86.2,7.1z M73.25,7.9c-0.263-0.029-0.497-0.046-0.7-0.05h0.25l0.1-0.15L73.25,7.9z M70.25,0.35
		C66.55,0.15,62.8,0.467,59,1.3l-0.05,0.15c0.367,0.1,1.117,0.333,2.25,0.7c0.9,0.3,1.65,0.483,2.25,0.55
		c1.633,0.2,2.95,0.133,3.95-0.2C68.533,2.133,69.483,1.417,70.25,0.35z M34.3,7.2c-0.133,0.033-0.25,0.066-0.35,0.1
		c0.033-0.033,0.066-0.05,0.1-0.05C34.117,7.217,34.2,7.2,34.3,7.2z"/>
	<path style="fill-rule:evenodd;clip-rule:evenodd;fill:#3C291A;" d="M144.5,19.25c-0.1-0.367-0.25-0.767-0.45-1.2
		c-0.733-1.767-1.717-3.316-2.95-4.65c0.101-0.033,0.2-0.05,0.301-0.05c1.333-0.1,2.35-0.067,3.05,0.1l2.7,1.05
		c0.533,0.3,1.083,0.65,1.649,1.05c0.467,0.3,1.017,0.684,1.65,1.15l2.2,1.7c1.966,1.434,4.483,2.434,7.55,3
		c0.2,0.033,0.916,0.133,2.149,0.3c0.967,0.1,1.65,0.233,2.051,0.4c0.399,0.167,0.949,0.533,1.649,1.1
		c0.032,0.032,0.065,0.049,0.101,0.05H166.1c0.2,0.167,0.417,0.317,0.65,0.45l0.15,0.15c0.366,0.2,0.683,0.35,0.949,0.45
		c0.601,0.233,1.434,0.383,2.5,0.45c0.7,0.133,1.25,0.367,1.65,0.7c0.033,0.033,0.066,0.066,0.1,0.1
		c0.134,0.167,0.301,0.417,0.5,0.75c0.233,0.467,0.584,1.2,1.051,2.2c0.533,1.2,1.216,1.95,2.05,2.25
		c0.566,0.233,1.066,0.333,1.5,0.3l0.45-0.05c0.399-0.133,0.733-0.383,1-0.75l-0.75,16.2l-0.101,1.1c-1.233,2.667-2.1,3.067-2.6,1.2
		l-0.4-3.65c-1.233-0.867-2.517-1.917-3.85-3.15c-2.667-2.434-4.283-4.483-4.851-6.15c-0.533-1.633-0.699-3.15-0.5-4.55
		c0.301-1.133,0.417-1.8,0.351-2l-1.25-5.35c-0.334-0.066-0.533-0.1-0.601-0.1c-1.1,0.167-2.183,0.233-3.25,0.2
		c-1.866-0.1-3.716-0.533-5.55-1.3l-3.5-2c-0.1-0.367-0.2-0.75-0.3-1.15c-0.267-0.767-0.467-1.167-0.6-1.2L150.1,19.1
		c-0.833,0.833-1.05,2.333-0.649,4.5c0.233,1.233,0.684,3.066,1.35,5.5c0.101,0.467,0.167,0.933,0.2,1.4
		c0.1,1.133,0.066,2.283-0.1,3.45c-0.2,1.233-0.684,3.183-1.45,5.85c-0.566,1.934-1.517,1.4-2.851-1.6l-1.8-5.1V20.45
		C144.733,20.083,144.634,19.683,144.5,19.25z M86.65,9.1c-1.748,0.33-4.764,0.121-9.05-0.625c0.488,0.045,0.905,0.054,1.25,0.025
		h0.05l1.65-0.15c0.6-0.1,1.25-0.233,1.95-0.4c0.8-0.167,2-0.434,3.6-0.8c0.333-0.066,0.667-0.133,1-0.2l2.35-0.2
		c2.899-0.033,5.383,0.233,7.45,0.8c0.666,0.2,1.683,0.284,3.05,0.25c1.366,0,2.35,0.083,2.95,0.25
		c0.466,0.133,1.083,0.45,1.85,0.95c0.833,0.533,1.45,0.867,1.85,1c1.7,0.6,3.4,0.95,5.101,1.05l2.899,0.25
		c1.167,0.067,2.483,0.133,3.95,0.2c0.867,0.1,1.733,0.233,2.601,0.4c0.066,0,0.133,0.017,0.199,0.05h0.051
		c1.333,0.3,2.616,0.7,3.85,1.2c1.767,0.733,3.934,1.083,6.5,1.05c1.267,0,3.483-0.167,6.65-0.5h0.1c-0.7,0.2-1.417,0.417-2.15,0.65
		c-3,1-4.633,1.917-4.899,2.75c-0.367,1.1-1.367,1.767-3,2c-0.101,1.233-0.434,3.9-1,8c-0.533,3.733-0.601,7.55-0.2,11.45
		c0.566,5.167,0.85,7.8,0.85,7.9c0,2.4-0.55,1.883-1.649-1.55c-1.101-3.467-1.65-6.5-1.65-9.1c0-1.9-0.116-4.4-0.35-7.5
		c-0.233-3.1-0.351-5.267-0.351-6.5V15c-0.466-0.433-1.183-0.55-2.149-0.35c-1.066,0.267-1.783,0.283-2.15,0.05
		c-0.033-0.034-0.066-0.05-0.1-0.05c-1.367-0.8-2.367-0.967-3-0.5c-0.334,0.233-0.533,0.55-0.601,0.95
		c-0.066,0-0.149,0.017-0.25,0.05c-0.3-0.233-0.767-0.367-1.399-0.4l-1.5,0.15c-0.167-0.033-0.316-0.066-0.45-0.1
		c-1.6-0.433-3.083-1.216-4.45-2.35c-0.133-0.1-0.416-0.184-0.85-0.25c-0.467-0.067-0.767-0.15-0.9-0.25
		c-0.066,0.633-0.1,1.25-0.1,1.85c0.033,0.633,0,1.3-0.101,2c-0.267,2.233-1.166,5.75-2.699,10.55c-0.9,2.733-2,5.883-3.301,9.45
		c0-3.133,0.233-6.033,0.7-8.7c0.667-3.667,1.184-6.7,1.55-9.1c0.233-1.367,0.434-2.6,0.601-3.7c0.333-2.566,0.5-4.517,0.5-5.85
		c-0.767,1.4-1.15,2.066-1.15,2L94.1,7.8l-1.05-0.35c-0.3-0.1-0.616-0.167-0.95-0.2c-0.233-0.033-0.483-0.05-0.75-0.05
		c-1.333,0-2.417,0.417-3.25,1.25C87.8,8.75,87.317,8.967,86.65,9.1z M138.2,37.2c0-0.133,0-0.267,0-0.4
		c0.866,1,1.166,1.883,0.899,2.65c-0.267,0.867-0.85,1.333-1.75,1.4c-0.233,0-0.533-0.033-0.899-0.1
		c-0.367-0.067-0.816-0.167-1.351-0.3c-1.733-0.467-2.733-1.35-3-2.65c-0.033-0.133-0.05-0.25-0.05-0.35
		c0.5,0.433,1.184,0.767,2.05,1c1.034,0.267,1.784,0.4,2.25,0.4c0.067,0,0.134,0,0.2,0c0.134,0,0.233,0,0.3,0
		c0.667-0.033,1.101-0.35,1.301-0.95C138.217,37.667,138.233,37.433,138.2,37.2z M41.2,26c-0.833,0.133-1.383,0.2-1.65,0.2
		c-0.267,0-1.9-0.2-4.9-0.6c-1.3-0.2-2.933-0.017-4.9,0.55c-0.3,0.1-0.617,0.2-0.95,0.3c0,1.333-0.233,3.333-0.7,6
		c-0.667-0.434-1.417-0.784-2.25-1.05c-1.667-0.566-2.917-0.433-3.75,0.4c-0.733,0.733-0.6,2.017,0.4,3.85
		c1.567,2.833,2.55,5.1,2.95,6.8c0.833,3.633,1.583,8.716,2.25,15.25c0.867,8.133,1.45,17.05,1.75,26.75
		c0.167,5.8,0.816,15.434,1.95,28.899l-20.15-0.55l-3.05-0.1H8.1C4.8,89.733,2.967,76.8,2.6,73.9C0.5,57.233-0.333,45.417,0.1,38.45
		c0.267-1.733,0.717-3.583,1.35-5.55c0.1,0.167,0.233,0.25,0.4,0.25c0.2,0.033,0.533,0,1-0.1c0.367-0.033,0.6,0.1,0.7,0.4L3.9,33.7
		c0.4,0.133,1-0.133,1.8-0.8l0.15-0.15c0.066-0.067,0.133-0.133,0.2-0.2c0.034-0.033,0.067-0.066,0.1-0.1
		c1.133-1.167,1.867-1.883,2.2-2.15c0.5-0.566,0.967-1,1.4-1.3c0.367-0.267,1-0.583,1.9-0.95c0.8-0.3,1.383-0.617,1.75-0.95
		c0.167-0.567,0.317-0.934,0.45-1.1c0.167-0.2,0.533-0.55,1.1-1.05c0.5-0.434,0.833-0.817,1-1.15c0.2-0.466,0.25-1,0.15-1.6
		c-0.167-0.7-0.3-1.217-0.4-1.55c0.7-0.3,1.9-0.583,3.6-0.85c1.067-0.167,2-0.5,2.8-1c1.467-0.9,2.283-1.383,2.45-1.45
		c0.934-0.4,2.284-0.65,4.05-0.75l1.2-0.05c0.167,0,0.583,0.017,1.25,0.05l2.45,0.05c0.333,0,0.717,0.017,1.15,0.05h0.45
		c0.4-0.2,1.083-0.367,2.05-0.5c1.033-0.167,1.7-0.3,2-0.4l0.15-0.05c1.034-0.367,2.534-1.067,4.5-2.1
		c0.8-0.367,1.75-0.667,2.85-0.9L46.6,12.7c0.6-0.1,1.45-0.184,2.55-0.25l2.4-0.1c2.767,0,6.184-0.383,10.25-1.15
		c0.967-0.167,1.817-0.317,2.55-0.45c-0.167,0.067-0.35,0.133-0.55,0.2c-0.8,0.267-1.7,0.583-2.7,0.95
		c-0.633,0.233-1.283,0.5-1.95,0.8c-0.433,0.133-0.883,0.3-1.35,0.5c-1.4,0.566-2.367,1.4-2.9,2.5c-0.233,0.566-0.35,1.066-0.35,1.5
		c0.4,0.4,0.95,1.65,1.65,3.75l0.6,3.5c0.167,1,0.667,2.417,1.5,4.25l0.05-0.4c0.333,1.267,0.7,2.65,1.1,4.15
		c-0.967-0.967-1.917-1.867-2.85-2.7c-1.733-1.5-3.45-2.817-5.15-3.95c-1.567-1.066-3.467-1.333-5.7-0.8
		C43.75,25.467,42.233,25.8,41.2,26z M54.5,31.075c0.01,0.026,0.027,0.051,0.05,0.075c0.8,1.033,1.1,2.017,0.9,2.95
		c-0.133,0.7-0.9,0.8-2.3,0.3l-2.05-0.95c-0.067-0.5-0.067-0.95,0-1.35c2.066,0.933,3.183,1,3.35,0.2c0.066-0.2,0.083-0.4,0.05-0.6
		C54.532,31.478,54.532,31.27,54.5,31.075z M68.55,35.8c0.367,0.267,0.85,0.5,1.45,0.7c0.667,0.2,1.233,0.283,1.7,0.25
		c0.433,0.033,0.783-0.05,1.05-0.25c0.333-0.267,0.583-1.067,0.75-2.4c0.067-0.633,0.1-1.184,0.1-1.65c0-0.133,0-0.25,0-0.35
		c0-0.3,0-0.567,0-0.8c-0.033-0.3-0.083-0.583-0.15-0.85c-0.1-0.4-0.317-0.733-0.65-1c-0.6-2.567-1.05-5.35-1.35-8.35
		c-0.467-4.833-1.583-8.55-3.35-11.15c1.8-0.567,3.017-1.267,3.65-2.1c0.2,0,0.433,0,0.7,0h0.1c0.204,0.004,0.437,0.021,0.7,0.05
		h0.05c0.1,0.002,0.208,0.011,0.325,0.025L74.8,8.1v2.35c0,1.733,0.133,3.633,0.4,5.7c0.1,0.633,0.4,2.517,0.9,5.65
		c0.1,1.2,0.2,2.5,0.3,3.9c0.033,1.667-0.033,3.617-0.2,5.85c-0.33,4.225-0.755,5.708-1.275,4.45L74.9,35.95l-0.1-0.15
		c-0.1-0.233-0.183-0.466-0.25-0.7c-0.033,0.2-0.066,0.4-0.1,0.6c-0.2,1.533-0.534,2.45-1,2.75c-0.534,0.367-1.35,0.383-2.45,0.05
		c-1.167-0.367-1.9-0.933-2.2-1.7C68.667,36.467,68.583,36.133,68.55,35.8z M29.65,43.15c0.833,0,1.883-0.1,3.15-0.3V42.8
		c-0.033-0.267-0.05-0.517-0.05-0.75l-0.1-0.5c-0.1-0.6-0.233-1.167-0.4-1.7c0.3,0.333,0.583,0.85,0.85,1.55
		c0.367,1.033,0.6,2.167,0.7,3.4c-2.9,0.434-4.9,0.434-6,0c-0.733-0.3-0.867-0.9-0.4-1.8C27.967,43.1,28.717,43.15,29.65,43.15z"/>
	<path style="fill-rule:evenodd;clip-rule:evenodd;fill:#4F371E;" d="M155.8,113.05c4.101-37.833,5.983-60.033,5.65-66.6
		c-0.267-5.567-0.45-11.233-0.55-17L160.85,24c1.067,0.033,2.15-0.033,3.25-0.2c0.067,0,0.267,0.034,0.601,0.1l1.25,5.35
		c0.066,0.2-0.05,0.867-0.351,2c-0.199,1.4-0.033,2.917,0.5,4.55c0.567,1.667,2.184,3.717,4.851,6.15
		c1.333,1.233,2.616,2.283,3.85,3.15l0.4,3.65c0.5,1.867,1.366,1.467,2.6-1.2l0.101-1.1l-0.75,15.25
		c-0.967,23.366-1.417,40.366-1.351,51C168.866,112.833,162.2,112.95,155.8,113.05z M151,30.5l0.45,1.3l0.649,33.3
		c0,0.867-0.483,6.384-1.449,16.551c-1.733,18.033-2.733,28.55-3,31.55c-2.067,0.033-4.134,0.066-6.2,0.1v-4.2
		c0.1-4.866,0.149-8.283,0.149-10.25c0-3.199-0.267-5.783-0.8-7.75c-0.566-1.933-1.066-4.517-1.5-7.75l-0.5-4.25l-1.35,15.351
		l-3.351,12c-2.199-4.9-3.3-8.45-3.3-10.65v-16l-2.05,13.05c-1.434,9.534-2.417,16.417-2.95,20.65c-4.8,0.066-9.6,0.116-14.399,0.15
		C115.6,60.983,118.066,32.8,118.8,29.1c0.4-2.1,0.617-5.1,0.65-9c0-0.267,0.017-0.517,0.05-0.75c0.1-1.733,0.167-3.3,0.2-4.7
		c0.033,0,0.066,0.017,0.1,0.05c0.367,0.233,1.084,0.216,2.15-0.05c0.967-0.2,1.684-0.083,2.149,0.35v6.8
		c0,1.233,0.117,3.4,0.351,6.5c0.233,3.1,0.35,5.6,0.35,7.5c0,2.6,0.55,5.633,1.65,9.1c1.1,3.434,1.649,3.95,1.649,1.55
		c0-0.1-0.283-2.733-0.85-7.9c-0.4-3.9-0.333-7.716,0.2-11.45c0.899,8.467,2.017,23.583,3.35,45.35l3.8,2.25
		c2.667,0.767,4.284-0.65,4.851-4.25c0.467-2.9,0.916-10.283,1.35-22.15c0.434-11.667,0.867-18.733,1.3-21.2
		c0.567-2.934,1.367-5.55,2.4-7.85c0.134,0.433,0.233,0.833,0.3,1.2V33.1l1.8,5.1c1.334,3,2.284,3.533,2.851,1.6
		c0.767-2.667,1.25-4.617,1.45-5.85C151.066,32.783,151.1,31.633,151,30.5z M103.4,26.35l0.05,2.1c0,0.966-0.75,4.75-2.25,11.35
		c-1.9,8.367-3.15,14.133-3.75,17.3c-0.667,3.634-1.55,11.284-2.65,22.95c-0.1,0.967-0.184,1.934-0.25,2.9
		c0-2.767-0.017-5.684-0.05-8.75c-0.267-19.133-0.4-29.717-0.4-31.75c0-3.1-0.166-5.85-0.5-8.25c-0.233-1.8-0.733-4.383-1.5-7.75
		c-0.5-2.2-0.583-6.467-0.25-12.8c0.134-2.6,0.217-4.733,0.25-6.4c0.334,0.033,0.65,0.1,0.95,0.2L94.1,7.8v1.3
		c0,3.566,0.233,13.35,0.7,29.35c1.767-7.567,3.316-13.117,4.65-16.65c0.833-2.233,1.649-4.683,2.45-7.35l0.899-3.35l0.15,3.2
		c-0.167,1.1-0.367,2.333-0.601,3.7c-0.366,2.4-0.883,5.433-1.55,9.1c-0.467,2.667-0.7,5.566-0.7,8.7
		C101.4,32.233,102.5,29.083,103.4,26.35z M77.75,8.65c0.333,0.033,0.617,0.05,0.85,0.05c-0.3-0.034-0.65-0.1-1.05-0.2
		c-0.013-0.013-0.03-0.021-0.05-0.025L77.475,8.45c0.043,0.01,0.084,0.019,0.125,0.025c4.286,0.746,7.302,0.955,9.05,0.625
		c0.7,2.633,0.967,5.75,0.8,9.35c-0.133,2.667-0.133,6.45,0,11.35l-1,4.25c-0.667,3.2-1,5.784-1,7.75c0,3.1,0.45,9.983,1.35,20.65
		L85.2,81.85c-1.167,14.334-1.917,24.983-2.25,31.95l-18.25-0.05c-0.2-11.866-0.717-26.884-1.55-45.05
		c-0.767-16.5-1.333-26.367-1.7-29.6c-0.133-1.267-1.75-4.383-4.85-9.35c0.933,0.833,1.883,1.733,2.85,2.7
		c-0.4-1.5-0.767-2.883-1.1-4.15l0.1-0.8c0.566,0.767,1.283,1.583,2.15,2.45c1,1,1.95,1.833,2.85,2.5c0-1.567-0.067-3.2-0.2-4.9
		c1.667,0.567,2.617,0.2,2.85-1.1c0.3-1.4,0.167-3.6-0.4-6.6l-0.9-4.05c-0.9-0.833-1.9-1.867-3-3.1
		c-0.233-0.267-0.466-0.534-0.7-0.8c1-0.367,1.9-0.683,2.7-0.95c0.2-0.067,0.383-0.133,0.55-0.2c1.667-0.3,2.65-0.5,2.95-0.6
		c0.267-0.066,0.534-0.133,0.8-0.2c1.767,2.6,2.883,6.316,3.35,11.15c0.3,3,0.75,5.783,1.35,8.35c-0.333-0.267-0.767-0.467-1.3-0.6
		c-1.2-0.3-2.1,0.017-2.7,0.95c-1.267,1.867-1.6,3.534-1,5c0.133,0.367,0.383,0.7,0.75,1c0.034,0.333,0.117,0.667,0.25,1
		c0.3,0.767,1.034,1.333,2.2,1.7c1.1,0.333,1.917,0.317,2.45-0.05c0.466-0.3,0.8-1.217,1-2.75c0.033-0.2,0.066-0.4,0.1-0.6
		c0.067,0.233,0.15,0.467,0.25,0.7l-0.65,3.6c-0.467,2.767-0.7,5.117-0.7,7.05V65.8c0.9,20.9,1.35,27.783,1.35,20.65
		c0-5.767,0.483-13.15,1.45-22.15c0.867-8.133,1.6-13.15,2.2-15.05c0.433-1.3-0.05-3.917-1.45-7.85v-0.05
		c1.233-6.1,2.05-10.617,2.45-13.55c0.267-1.966,0.45-4.667,0.55-8.1l0.1-4.6c0-0.867-0.117-1.8-0.35-2.8
		C79.35,10.467,78.683,9.25,77.75,8.65z M77.45,8.45V8.5c-0.067-0.033-0.133-0.05-0.2-0.05c0.033-0.034,0.067-0.034,0.1,0
		C77.383,8.45,77.417,8.45,77.45,8.45z M77.45,8.6l-0.9,3.75c-0.566,3.233-0.716,6.383-0.45,9.45c-0.5-3.133-0.8-5.017-0.9-5.65
		c-0.267-2.066-0.4-3.967-0.4-5.7V8.1l0.7,0.1v0.05C76.267,8.383,76.917,8.5,77.45,8.6z M8.2,112.7l3.05,0.1
		c-0.767,0-1.533-0.017-2.3-0.05c-0.167,0-0.317,0-0.45,0C8.391,112.723,8.291,112.706,8.2,112.7z M52.3,113.65
		c-2.833-0.034-5.633-0.067-8.4-0.101c-4.233-0.066-8.4-0.133-12.5-0.2c-1.133-13.466-1.783-23.1-1.95-28.899
		c-0.3-9.7-0.883-18.617-1.75-26.75c-0.667-6.534-1.417-11.617-2.25-15.25c-0.4-1.7-1.383-3.967-2.95-6.8
		c-1-1.833-1.133-3.117-0.4-3.85c0.833-0.833,2.083-0.966,3.75-0.4c0.833,0.267,1.583,0.617,2.25,1.05c0.467-2.667,0.7-4.667,0.7-6
		c0.333-0.1,0.65-0.2,0.95-0.3c0.1,0.333,0.233,0.667,0.4,1c0.434,1,1.317,2.983,2.65,5.95c0.4,1.5,1.833,4.3,4.3,8.4
		c1,1.667,2,3.333,3,5c0.5,1.033,0.783,1.783,0.85,2.25c0.1,0.7-0.05,2.117-0.45,4.25c-0.1,0.467,0.483-0.35,1.75-2.45
		c1.533,3.333,3.267,7.084,5.2,11.25C48.783,65,50.4,82.283,52.3,113.65z M76.4,25.7c0.233,4.1,0.367,9.15,0.4,15.15L74.925,36
		c0.52,1.258,0.945-0.225,1.275-4.45C76.367,29.317,76.433,27.367,76.4,25.7z M32.25,39.85c-0.067-0.167-0.117-0.317-0.15-0.45
		c-0.733-2.033-1.733-2.566-3-1.6c-1.167,0.934-2.017,1.883-2.55,2.85c-0.633,1.1-0.55,1.817,0.25,2.15
		c0.167,0.067,0.367,0.133,0.6,0.2c-0.467,0.9-0.333,1.5,0.4,1.8c1.1,0.434,3.1,0.434,6,0c-0.1-1.233-0.333-2.367-0.7-3.4
		C32.833,40.7,32.55,40.183,32.25,39.85z"/>
	<path style="fill-rule:evenodd;clip-rule:evenodd;fill:#4E441C;" d="M141.1,13.4l-2.149,0.25c-0.167,0.033-0.316,0.05-0.45,0.05
		h-0.1c-3.167,0.333-5.384,0.5-6.65,0.5c-2.566,0.033-4.733-0.317-6.5-1.05c-1.233-0.5-2.517-0.9-3.85-1.2
		c0.5,0,1.199-0.017,2.1-0.05c0.833,0,1.533,0.05,2.1,0.15c0.134,0.034,0.551,0.184,1.25,0.45c0.5,0.167,0.917,0.217,1.25,0.15
		c-0.033-0.533-0.05-0.933-0.05-1.2c0.033-0.5,0.167-0.817,0.4-0.95c0.166,1,1.166,1.717,3,2.15c0.934,0.233,2.3,0.4,4.1,0.5
		c0.767,0.033,1.7-0.066,2.8-0.3c1.667-0.333,2.584-0.517,2.75-0.55c0.733-0.1,1.434-0.083,2.101,0.05l0.3,0.05
		c1.5,0.367,2.866,1.15,4.1,2.35c-0.166-0.1-0.316-0.183-0.449-0.25l-2.7-1.05c-0.7-0.167-1.717-0.2-3.05-0.1
		C141.3,13.35,141.2,13.367,141.1,13.4z M170.35,24.75c-0.6-0.433-1.199-0.767-1.8-1c0.667,0.067,1.2,0.083,1.601,0.05
		c0.833-0.066,1.449-0.183,1.85-0.35c0.667-0.233,1.066-0.65,1.2-1.25c0.866,0.3,1.783,0.85,2.75,1.65
		c0.066,0.167,0.133,0.316,0.2,0.45c0.633,1.4,1.433,2.367,2.399,2.9l0.4,0.75c0.166,0.767,0.1,1.45-0.2,2.05
		c-0.033,0.067-0.066,0.133-0.1,0.2v0.05c-0.267,0.367-0.601,0.617-1,0.75l-0.45,0.05c-0.367-1.533-0.601-2.466-0.7-2.8
		c-0.366-0.933-0.934-1.667-1.7-2.2c-0.2-0.133-0.434-0.216-0.7-0.25c-0.233-0.033-0.466-0.2-0.699-0.5
		c-0.067-0.066-0.2-0.367-0.4-0.9c-0.134-0.333-0.366-0.517-0.7-0.55v1.9l-0.2-0.2c-0.033-0.033-0.066-0.066-0.1-0.1
		C171.6,25.117,171.05,24.883,170.35,24.75z M87.1,6.95c-0.3,0.033-0.6,0.083-0.9,0.15c0.4-0.567,0.716-0.934,0.95-1.1
		c0.2-0.133,0.667-0.317,1.4-0.55c0.601-0.2,1.066-0.483,1.4-0.85c0.2-0.233,0.416-0.717,0.649-1.45c0.2-0.6,0.483-1.017,0.851-1.25
		c-0.167,0.434-0.283,1-0.351,1.7C91,4.1,91.017,4.467,91.15,4.7c0.1,0.6,0.25,0.95,0.449,1.05c0.167,0.067,0.684,0.1,1.551,0.1
		h0.25c0.633,0,1.6-0.017,2.899-0.05c1.167-0.033,2.134-0.017,2.9,0.05l1.75,0.35c0.467,0.167,1.166,0.466,2.1,0.9
		c0.867,0.433,1.566,0.717,2.101,0.85c0.699,0.2,1.333,0.1,1.899-0.3c0.767-0.5,1.351-0.767,1.75-0.8l-0.1,0.45l-0.55,1.1
		c-0.167,0.4-0.233,0.75-0.2,1.05c0.434,0.066,1.733,0.1,3.899,0.1c0.5,0.1,1,0.15,1.5,0.15l1.25,0.35
		c0.867,0.333,2.067,0.8,3.601,1.4c-1.334-0.067-2.533-0.117-3.601-0.15l-2.899-0.25c-1.7-0.1-3.4-0.45-5.101-1.05
		c-0.399-0.133-1.017-0.467-1.85-1c-0.767-0.5-1.384-0.817-1.85-0.95c-0.601-0.167-1.584-0.25-2.95-0.25
		c-1.367,0.034-2.384-0.05-3.05-0.25c-2.067-0.566-4.551-0.833-7.45-0.8L87.1,6.95z M73.3,7.9h-0.05L72.9,7.7l-0.1,0.15h-0.25h-0.1
		c-0.267,0-0.5,0-0.7,0c-0.633,0.833-1.85,1.533-3.65,2.1c-0.267,0.066-0.533,0.133-0.8,0.2c-0.3,0.1-1.283,0.3-2.95,0.6
		c-0.733,0.133-1.583,0.283-2.55,0.45c-4.066,0.767-7.483,1.15-10.25,1.15l-2.4,0.1c-1.1,0.066-1.95,0.15-2.55,0.25l0.05,0.05
		c-1.1,0.233-2.05,0.533-2.85,0.9c-1.966,1.033-3.466,1.733-4.5,2.1l-0.15,0.05c-0.3,0.1-0.967,0.233-2,0.4
		c-0.967,0.133-1.65,0.3-2.05,0.5h-0.45c-0.433-0.034-0.816-0.05-1.15-0.05l-2.45-0.05c-0.667-0.033-1.083-0.05-1.25-0.05
		c0.333-0.8,0.534-2.066,0.6-3.8l0.1-1.25c0.933,0.133,1.933,1.033,3,2.7l0.5,0.9l0.2,0.35l-0.15-0.35
		c1.934,0.267,3.367,0.367,4.3,0.3l2.15-0.45l0.925-0.45c0.289-0.171,0.564-0.372,0.825-0.6c0.6-0.533,1.1-1.05,1.5-1.55L44.05,9
		l0.5,0.15c0.5,0.133,0.934,0.4,1.3,0.8c0.467,0.533,0.7,1.133,0.7,1.8h-0.1c0.7,0.067,1.733,0.2,3.1,0.4
		c1.233,0.167,2.25,0.184,3.05,0.05c0.4-0.067,0.667-0.167,0.8-0.3c0.2-0.2,0.35-0.333,0.45-0.4c0.267-0.1,0.566-0.25,0.9-0.45
		c0.3-0.1,0.7-0.167,1.2-0.2l1.8-0.05c0.133-0.733-0.367-1.5-1.5-2.3c-1.1-0.733-1.517-1.55-1.25-2.45
		c1.067-0.2,1.983,0.184,2.75,1.15c0.867,1.066,1.667,1.617,2.4,1.65c1.267,0.033,1.583-0.617,0.95-1.95
		c3.133,2.6,5.816,3.184,8.05,1.75c0.434-0.267,1.033-0.767,1.8-1.5c0.767-0.7,1.367-1.183,1.8-1.45c0,0.3,0.117,0.716,0.35,1.25
		l0.05,0.2L73.3,7.5c0.667,0,1.417,0.083,2.25,0.25L75.5,8.2l-0.7-0.1l-1.175-0.175L73.45,7.9H73.3z M5.85,32.75L5.3,32.5
		c1.067-1.033,1.784-1.867,2.15-2.5c0.7-1.1,0.667-2.133-0.1-3.1c0.467-0.133,1.2,0.133,2.2,0.8c0.833,0.533,1.567,0.466,2.2-0.2
		c0.267-0.267,0.383-0.7,0.35-1.3c0-0.633,0.066-1.034,0.2-1.2c0.133-0.2,0.367-0.3,0.7-0.3c0.433-0.034,0.717-0.083,0.85-0.15
		c1.566-0.667,2.017-2,1.35-4c-0.067-0.133-0.133-0.267-0.2-0.4c0-0.033-0.017-0.066-0.05-0.1c-0.267-0.566-0.5-1.066-0.7-1.5
		c-0.5-1.1-0.8-1.883-0.9-2.35c0.633-0.067,1.483,0.183,2.55,0.75c1.167,0.633,2,0.966,2.5,1c0.833,0.133,1.55,0.15,2.15,0.05
		c0.567-0.1,1.117-0.383,1.65-0.85c0.767-0.667,1.233-1.05,1.4-1.15c0.7-0.4,1.533-0.533,2.5-0.4c0.1,0,0.183,0.017,0.25,0.05
		l1.45,0.5c0.267,0.1,0.534,0.25,0.8,0.45c-1.767,0.1-3.117,0.35-4.05,0.75c-0.167,0.066-0.983,0.55-2.45,1.45
		c-0.8,0.5-1.733,0.833-2.8,1c-1.7,0.267-2.9,0.55-3.6,0.85c0.1,0.333,0.233,0.85,0.4,1.55c0.1,0.6,0.05,1.133-0.15,1.6
		c-0.167,0.333-0.5,0.717-1,1.15c-0.567,0.5-0.934,0.85-1.1,1.05c-0.133,0.167-0.283,0.533-0.45,1.1
		c-0.367,0.333-0.95,0.65-1.75,0.95c-0.9,0.367-1.533,0.684-1.9,0.95c-0.433,0.3-0.9,0.733-1.4,1.3
		c-0.333,0.267-1.067,0.983-2.2,2.15c-0.033,0.033-0.066,0.066-0.1,0.1C5.983,32.617,5.917,32.683,5.85,32.75z M75.5,8.2l0.05-0.3
		c0.233,0.033,0.784,0.2,1.65,0.5c0.033,0,0.05,0.017,0.05,0.05c0.067,0,0.133,0.017,0.2,0.05c0.033,0,0.066,0,0.1,0
		c0.4,0.1,0.75,0.167,1.05,0.2c-0.233,0-0.517-0.017-0.85-0.05c-0.1-0.033-0.2-0.05-0.3-0.05c-0.534-0.1-1.184-0.217-1.95-0.35V8.2z
		"/>
	<path style="fill-rule:evenodd;clip-rule:evenodd;fill:#7F6F2D;" d="M135.8,6.35V6.3c0.3-0.033,0.601-0.066,0.9-0.1l0.399-0.05
		c1.7-0.2,3.134-0.267,4.301-0.2c0.166,0.033,0.333,0.05,0.5,0.05l2.05,0.4c0.366,0.067,0.75,0.167,1.149,0.3l0.15,0.05
		c0.1,0.367-0.017,0.767-0.35,1.2c-0.534,0.733-1.784,1.1-3.75,1.1c-1.5,0.034-2.917-0.1-4.25-0.4c-0.867-0.2-1.367-0.35-1.5-0.45
		c-0.5-0.233-0.65-0.617-0.45-1.15C135.05,6.783,135.333,6.55,135.8,6.35z M154.75,12.45h0.05c0.167,0.1,0.351,0.2,0.55,0.3
		c0.5,0.233,1.034,0.45,1.601,0.65c0.267,1.1,0.083,1.817-0.55,2.15c-0.367,0.2-1.084,0.167-2.15-0.1
		c-1.066-0.267-1.7-0.583-1.9-0.95c-0.399-0.633-0.333-1.167,0.2-1.6c0.467-0.367,1.05-0.5,1.75-0.4L154.75,12.45z M160.8,15.7
		l0.65,0.65c0.166,0.333,0.217,0.7,0.149,1.1c-0.833,0.167-1.416-0.017-1.75-0.55C159.55,16.333,159.866,15.933,160.8,15.7z
		 M121.75,4.9c0.7,1.033,0.783,1.917,0.25,2.65c-0.5,0.7-1.4,1.017-2.7,0.95c-1.733-0.067-3.066-0.333-4-0.8
		c-0.166-0.067-0.399-0.233-0.7-0.5c-0.3-0.267-0.55-0.45-0.75-0.55c0.367-0.566,2.25-1.133,5.65-1.7
		C120.866,4.917,121.616,4.9,121.75,4.9z M101.15,1.85c0.133,1.267-0.517,2.1-1.95,2.5c-0.767,0.233-2,0.35-3.7,0.35
		c-0.7,0.033-1.267,0.05-1.7,0.05C93.033,4.683,92.583,4.433,92.45,4c-0.2-0.5,0.267-1.233,1.399-2.2c4.567-0.1,6.867-0.15,6.9-0.15
		L101.15,1.85z M74.75,0.45c0.033,0,0.067,0,0.1,0c0.533-0.034,1.183-0.083,1.95-0.15c1.1-0.1,2.05-0.183,2.85-0.25
		c0.2,0,0.4-0.017,0.6-0.05h0.05v0.05c0.067,1.3-0.1,2.3-0.5,3c-0.466,0.867-1.283,1.35-2.45,1.45c-0.9,0.133-1.617,0.117-2.15-0.05
		c-0.667-0.167-1.15-0.6-1.45-1.3c-0.367-0.8-0.433-1.417-0.2-1.85C73.717,0.933,74.117,0.65,74.75,0.45z M42.15,4.9
		c0.067-0.1,0.15-0.183,0.25-0.25c0.033-0.066,0.083-0.133,0.15-0.2c0.6-0.633,1.217-1.067,1.85-1.3
		c1.633-0.066,3.033,0.217,4.2,0.85c1.333,0.733,1.683,1.683,1.05,2.85c-0.467,0.833-1.2,1.233-2.2,1.2
		c-0.4-0.033-1.284-0.25-2.65-0.65c-1.167-0.367-1.833-0.617-2-0.75C42.367,6.35,42.15,5.767,42.15,4.9z M36.25,6.95
		c0.767,0.867,1.117,1.9,1.05,3.1c-0.066,1.3-0.633,2.117-1.7,2.45c-0.733,0.233-1.583,0.233-2.55,0
		c-1.1-0.233-1.783-0.667-2.05-1.3s-0.2-1.383,0.2-2.25l0.55-0.35l0.2-0.15c0.933-0.567,1.6-0.95,2-1.15
		c0.1-0.033,0.216-0.066,0.35-0.1l0.05-0.05C34.883,7.017,35.517,6.95,36.25,6.95z M25.5,9.3c0.333,0,0.867,0.034,1.6,0.1
		l-0.15,0.85c-0.2,0.433-0.633,0.883-1.3,1.35c-0.6,0.433-1.167,0.733-1.7,0.9c-0.934,0.267-1.75,0.3-2.45,0.1
		c-0.733-0.233-1.183-0.65-1.35-1.25c0.2-0.033,0.367-0.067,0.5-0.1c0.467-0.1,1.25-0.45,2.35-1.05
		C23.967,9.667,24.8,9.367,25.5,9.3z M7.3,17.9l0.3-0.85c0.4-1.167,0.9-2.167,1.5-3c0.7,0.667,1.2,1.4,1.5,2.2
		c0.566,1.733,0.75,2.767,0.55,3.1c-0.3,0.433-0.967,0.533-2,0.3C8.283,19.45,7.567,19.133,7,18.7L7.3,17.9z M70.25,0.35
		c-0.767,1.066-1.717,1.783-2.85,2.15c-1,0.333-2.316,0.4-3.95,0.2c-0.6-0.067-1.35-0.25-2.25-0.55c-1.133-0.367-1.883-0.6-2.25-0.7
		L59,1.3C62.8,0.467,66.55,0.15,70.25,0.35z"/>
	<path style="fill-rule:evenodd;clip-rule:evenodd;fill:#593D23;" d="M138.5,13.7c0.134,0,0.283-0.017,0.45-0.05l2.149-0.25
		c1.233,1.333,2.217,2.883,2.95,4.65c0.2,0.434,0.351,0.833,0.45,1.2c-1.033,2.3-1.833,4.917-2.4,7.85
		c-0.433,2.467-0.866,9.533-1.3,21.2c-0.434,11.867-0.883,19.25-1.35,22.15c-0.566,3.6-2.184,5.017-4.851,4.25l-3.8-2.25
		c-1.333-21.767-2.45-36.883-3.35-45.35c0.566-4.1,0.899-6.767,1-8c1.633-0.233,2.633-0.9,3-2c0.267-0.833,1.899-1.75,4.899-2.75
		C137.083,14.117,137.8,13.9,138.5,13.7z M93.9,113.8c0.433-5.8,0.649-16.083,0.649-30.85c0.066-0.967,0.15-1.934,0.25-2.9
		c1.101-11.666,1.983-19.316,2.65-22.95c0.6-3.167,1.85-8.933,3.75-17.3c1.5-6.6,2.25-10.383,2.25-11.35l-0.05-2.1
		c1.533-4.8,2.433-8.317,2.699-10.55c0.101-0.7,0.134-1.367,0.101-2c0-0.6,0.033-1.216,0.1-1.85c0.134,0.1,0.434,0.183,0.9,0.25
		c0.434,0.066,0.717,0.15,0.85,0.25c1.367,1.133,2.851,1.917,4.45,2.35l-0.4,1l0.351,18.5c0.233,7.534,0.35,12.7,0.35,15.5
		c0,4.434,0.217,13.767,0.65,28c2.233-25.333,3.783-40.667,4.649-46c0.601-3.633,1.051-7.533,1.351-11.7c-0.033,3.9-0.25,6.9-0.65,9
		c-0.733,3.7-3.2,31.883-7.399,84.55C105.167,113.717,99.333,113.767,93.9,113.8z M155.8,113.05
		c-2.767,0.033-5.483,0.084-8.149,0.15c0.267-3,1.267-13.517,3-31.55c0.966-10.167,1.449-15.684,1.449-16.551l-0.649-33.3L151,30.5
		c-0.033-0.467-0.1-0.933-0.2-1.4c-0.666-2.434-1.116-4.267-1.35-5.5c-0.4-2.167-0.184-3.667,0.649-4.5l0.801-0.75
		c0.133,0.033,0.333,0.433,0.6,1.2c0.1,0.4,0.2,0.784,0.3,1.15l3.5,2c1.834,0.767,3.684,1.2,5.55,1.3l0.051,5.45
		c0.1,5.767,0.283,11.433,0.55,17C161.783,53.017,159.9,75.217,155.8,113.05z M132.05,37.45c0,0.1,0.017,0.216,0.05,0.35
		c0.267,1.3,1.267,2.184,3,2.65c0.534,0.133,0.983,0.233,1.351,0.3v0.4c0.233,5.1,0.35,9.317,0.35,12.65c0,3.934,0.667,3.634,2-0.9
		c1.334-4.566,2-8.717,2-12.45V17.1l-4.7-0.65v17.3c-1.267-1.033-2.366-1.467-3.3-1.3c-0.7,0.133-1.2,0.517-1.5,1.15
		c-0.3,0.6-0.366,1.333-0.2,2.2C131.233,36.433,131.55,36.983,132.05,37.45z M102.95,14.3l-0.15-3.2l-0.899,3.35
		c-0.801,2.667-1.617,5.117-2.45,7.35c-1.334,3.534-2.884,9.083-4.65,16.65c-0.467-16-0.7-25.784-0.7-29.35V7.8l8.2,2.65
		c0,0.066,0.384-0.6,1.15-2C103.45,9.783,103.283,11.733,102.95,14.3z M94.1,9.1l0.2,3.85c0,0.633,0.167,1.4,0.5,2.3
		c0.4,1.067,0.65,1.883,0.75,2.45c0.167,1-0.083,5.333-0.75,13c0.5-2.333,0.75-4,0.75-5c0-0.534,0.4-1.767,1.2-3.7
		c0.9-2.2,1.417-3.633,1.55-4.3c0.2-0.9,0.217-1.967,0.05-3.2c-0.199-1.667-0.3-2.6-0.3-2.8c0-0.733-0.649-1.383-1.95-1.95L94.1,9.1
		z M63.25,27.55c-0.133-1.2-0.283-2.45-0.45-3.75c-0.833-5.5-2.05-9.2-3.65-11.1c0.667-0.3,1.317-0.567,1.95-0.8
		c0.233,0.267,0.467,0.533,0.7,0.8c1.1,1.233,2.1,2.267,3,3.1l0.9,4.05c0.566,3,0.7,5.2,0.4,6.6
		C65.867,27.75,64.917,28.117,63.25,27.55z M54.5,31.075V31.05c-0.133-0.6-0.45-1.233-0.95-1.9c-0.833-1.1-1.65-1.333-2.45-0.7
		c-0.867,0.7-1.2,1.7-1,3l0.3,0.15c0,0.033,0,0.083,0,0.15c0.233,0.133,0.467,0.25,0.7,0.35c-0.067,0.4-0.067,0.85,0,1.35l2.05,0.95
		c1.4,0.5,2.167,0.4,2.3-0.3c0.2-0.934-0.1-1.917-0.9-2.95C54.527,31.126,54.51,31.102,54.5,31.075z M41.2,26
		c1.033-0.2,2.55-0.533,4.55-1c2.233-0.533,4.133-0.267,5.7,0.8c1.7,1.133,3.417,2.45,5.15,3.95c3.1,4.967,4.717,8.083,4.85,9.35
		c0.367,3.233,0.933,13.1,1.7,29.6c0.833,18.166,1.35,33.184,1.55,45.05c-4.2-0.033-8.333-0.066-12.4-0.1
		C50.4,82.283,48.783,65,47.45,61.8c-1.934-4.166-3.667-7.917-5.2-11.25c0.067-0.133,0.133-0.267,0.2-0.4
		c1.533-2.633,2.6-6.383,3.2-11.25l0.45-6.45L41.2,26z"/>
	<path style="fill-rule:evenodd;clip-rule:evenodd;fill:#654427;" d="M119.45,20.1c-0.3,4.167-0.75,8.066-1.351,11.7
		c-0.866,5.333-2.416,20.667-4.649,46c-0.434-14.233-0.65-23.566-0.65-28c0-2.8-0.116-7.966-0.35-15.5L112.1,15.8l0.4-1
		c0.134,0.034,0.283,0.067,0.45,0.1l-0.4,0.05V27.2c0,2.333,0.25,8.5,0.75,18.5c1.167-7.833,1.917-12.667,2.25-14.5
		c0.334-1.833,0.5-5.417,0.5-10.75c0-1.4,0.05-2.45,0.15-3.15c0.066-0.7,0.1-1.066,0.1-1.1c0-0.467-0.149-0.817-0.45-1.05
		c0.101-0.033,0.184-0.05,0.25-0.05c0.067-0.4,0.267-0.717,0.601-0.95c0.633-0.467,1.633-0.3,3,0.5c-0.033,1.4-0.101,2.967-0.2,4.7
		C119.467,19.583,119.45,19.833,119.45,20.1z M136.45,40.75c0.366,0.067,0.666,0.1,0.899,0.1c0.9-0.067,1.483-0.533,1.75-1.4
		c0.267-0.767-0.033-1.65-0.899-2.65c-0.033-0.8-0.617-1.716-1.75-2.75c-0.134-0.1-0.25-0.2-0.351-0.3v-17.3l4.7,0.65v23.35
		c0,3.733-0.666,7.883-2,12.45c-1.333,4.534-2,4.833-2,0.9c0-3.333-0.116-7.55-0.35-12.65V40.75z M77.45,8.45h0.025L77.5,8.475
		c0.02,0.003,0.037,0.012,0.05,0.025c-0.033,0-0.066,0-0.1,0V8.45z M77.75,8.65c0.933,0.6,1.6,1.817,2,3.65
		c0.233,1,0.35,1.934,0.35,2.8L80,19.7c-0.1,3.433-0.283,6.133-0.55,8.1c-0.4,2.934-1.217,7.45-2.45,13.55v0.05
		c-0.067,0.333-0.133,0.684-0.2,1.05c0-0.534,0-1.067,0-1.6c-0.033-6-0.167-11.05-0.4-15.15c-0.1-1.4-0.2-2.7-0.3-3.9
		c-0.267-3.066-0.117-6.216,0.45-9.45l0.9-3.75C77.55,8.6,77.65,8.617,77.75,8.65z M59.15,12.7c1.6,1.9,2.817,5.6,3.65,11.1
		c0.167,1.3,0.317,2.55,0.45,3.75c0.133,1.7,0.2,3.333,0.2,4.9c-0.9-0.667-1.85-1.5-2.85-2.5c-0.867-0.867-1.583-1.684-2.15-2.45
		l0.35-3.3c0.2-1.467,0.184-2.784-0.05-3.95l-0.45-1.3l-3-3l0.9,5c-0.7-2.1-1.25-3.35-1.65-3.75c0-0.434,0.117-0.934,0.35-1.5
		c0.533-1.1,1.5-1.934,2.9-2.5C58.267,13,58.717,12.833,59.15,12.7z M42.25,50.55c-1.267,2.1-1.85,2.917-1.75,2.45
		c0.4-2.133,0.55-3.55,0.45-4.25c-0.067-0.467-0.35-1.217-0.85-2.25c0.233,0.4,0.467,0.8,0.7,1.2c0.167,0.5,0.083-2.917-0.25-10.25
		v-4c-1.033-0.833-1.783-2-2.25-3.5c-0.4-1.233-1.933-2.233-4.6-3l-3.9-0.75l1.15,2.1c0.833,1.667,1.45,3.267,1.85,4.8
		c-1.333-2.967-2.216-4.95-2.65-5.95c-0.167-0.333-0.3-0.667-0.4-1c1.967-0.566,3.6-0.75,4.9-0.55c3,0.4,4.633,0.6,4.9,0.6
		c0.267,0,0.817-0.067,1.65-0.2l4.9,6.45l-0.45,6.45c-0.6,4.867-1.667,8.617-3.2,11.25C42.383,50.283,42.317,50.417,42.25,50.55z"/>
	<path style="fill-rule:evenodd;clip-rule:evenodd;fill:#504C45;" d="M138.2,37.2c0.033,0.233,0.017,0.466-0.05,0.7
		c-0.2,0.6-0.634,0.917-1.301,0.95c-0.066,0-0.166,0-0.3,0c-0.066-0.033-0.133-0.05-0.2-0.05c-0.3-0.066-0.666-0.15-1.1-0.25
		c-1.233-0.267-1.95-0.867-2.15-1.8c-0.133-0.6-0.083-1.1,0.15-1.5c0.2-0.467,0.55-0.733,1.05-0.8c0.533-0.1,1.15,0.066,1.851,0.5
		c0.233,0.167,0.5,0.367,0.8,0.6C137.65,36.15,138.066,36.7,138.2,37.2z M51.1,32.1c-0.233-0.1-0.467-0.217-0.7-0.35
		c0-0.067,0-0.117,0-0.15c-0.133-1,0.184-1.75,0.95-2.25c0.733-0.5,1.483-0.317,2.25,0.55c0.566,0.633,0.867,1.233,0.9,1.8
		c0.033,0.2,0.017,0.4-0.05,0.6C54.283,33.1,53.167,33.033,51.1,32.1z M73.6,32.1c0,0.1,0,0.217,0,0.35
		c0,0.466-0.033,1.017-0.1,1.65c-0.167,1.333-0.417,2.133-0.75,2.4c-0.267,0.2-0.617,0.283-1.05,0.25
		c-0.233-0.033-0.467-0.1-0.7-0.2c-0.867-0.333-1.417-0.833-1.65-1.5c-0.4-1.267-0.15-2.733,0.75-4.4
		c0.433-0.8,1.083-1.066,1.95-0.8c0.4,0.133,0.733,0.316,1,0.55c0.233,0.233,0.383,0.517,0.45,0.85
		C73.533,31.483,73.567,31.767,73.6,32.1z M29.65,43.15c-0.566-0.033-1.017-0.133-1.35-0.3c-0.6-0.267-0.667-0.85-0.2-1.75
		c0.433-0.867,1.083-1.667,1.95-2.4c0.934-0.8,1.667-0.35,2.2,1.35c0.167,0.467,0.3,0.967,0.4,1.5l0.1,0.5
		c0,0.233,0.017,0.483,0.05,0.75v0.05C31.533,43.05,30.483,43.15,29.65,43.15z"/>
	<path style="fill-rule:evenodd;clip-rule:evenodd;fill:#5A554D;" d="M138.2,36.8c0,0.133,0,0.267,0,0.4
		c-0.134-0.5-0.55-1.05-1.25-1.65c-0.3-0.233-0.566-0.433-0.8-0.6c-0.7-0.434-1.317-0.6-1.851-0.5c-0.5,0.066-0.85,0.333-1.05,0.8
		c-0.233,0.4-0.283,0.9-0.15,1.5c0.2,0.933,0.917,1.533,2.15,1.8c0.434,0.1,0.8,0.184,1.1,0.25c0.067,0,0.134,0.017,0.2,0.05
		c-0.066,0-0.133,0-0.2,0c-0.466,0-1.216-0.133-2.25-0.4c-0.866-0.233-1.55-0.567-2.05-1c-0.5-0.467-0.816-1.017-0.95-1.65
		c-0.166-0.867-0.1-1.6,0.2-2.2c0.3-0.633,0.8-1.017,1.5-1.15c0.934-0.167,2.033,0.267,3.3,1.3c0.101,0.1,0.217,0.2,0.351,0.3
		C137.583,35.083,138.167,36,138.2,36.8z M71.7,36.75c-0.467,0.033-1.034-0.05-1.7-0.25c-0.6-0.2-1.083-0.433-1.45-0.7
		c-0.367-0.3-0.617-0.633-0.75-1c-0.6-1.466-0.267-3.133,1-5c0.6-0.933,1.5-1.25,2.7-0.95c0.533,0.133,0.967,0.333,1.3,0.6
		c0.333,0.267,0.55,0.6,0.65,1c0.066,0.267,0.117,0.55,0.15,0.85c0,0.233,0,0.5,0,0.8c-0.033-0.333-0.067-0.617-0.1-0.85
		c-0.067-0.333-0.217-0.617-0.45-0.85c-0.267-0.233-0.6-0.417-1-0.55c-0.867-0.267-1.517,0-1.95,0.8c-0.9,1.667-1.15,3.133-0.75,4.4
		c0.233,0.667,0.783,1.167,1.65,1.5C71.233,36.65,71.467,36.717,71.7,36.75z M54.5,31.075c0.032,0.195,0.032,0.403,0,0.625
		c-0.033-0.567-0.333-1.167-0.9-1.8c-0.767-0.867-1.517-1.05-2.25-0.55c-0.767,0.5-1.083,1.25-0.95,2.25l-0.3-0.15
		c-0.2-1.3,0.133-2.3,1-3c0.8-0.633,1.617-0.4,2.45,0.7c0.5,0.667,0.817,1.3,0.95,1.9V31.075z M32.65,41.55
		c-0.1-0.533-0.233-1.033-0.4-1.5c-0.533-1.7-1.267-2.15-2.2-1.35c-0.867,0.733-1.517,1.533-1.95,2.4c-0.467,0.9-0.4,1.483,0.2,1.75
		c0.333,0.167,0.784,0.267,1.35,0.3c-0.933,0-1.683-0.05-2.25-0.15c-0.233-0.067-0.433-0.133-0.6-0.2
		c-0.8-0.333-0.883-1.05-0.25-2.15c0.534-0.967,1.383-1.917,2.55-2.85c1.267-0.966,2.267-0.433,3,1.6
		c0.033,0.133,0.083,0.283,0.15,0.45C32.417,40.383,32.55,40.95,32.65,41.55z"/>
	<path style="fill-rule:evenodd;clip-rule:evenodd;fill:#755631;" d="M115.85,15.15c0.301,0.233,0.45,0.583,0.45,1.05
		c0,0.033-0.033,0.4-0.1,1.1c-0.101,0.7-0.15,1.75-0.15,3.15c0,5.333-0.166,8.917-0.5,10.75c-0.333,1.833-1.083,6.667-2.25,14.5
		c-0.5-10-0.75-16.167-0.75-18.5V14.95l0.4-0.05l1.5-0.15C115.083,14.783,115.55,14.917,115.85,15.15z M94.1,9.1l2,0.65
		c1.301,0.567,1.95,1.217,1.95,1.95c0,0.2,0.101,1.133,0.3,2.8c0.167,1.233,0.15,2.3-0.05,3.2c-0.133,0.667-0.649,2.1-1.55,4.3
		c-0.8,1.933-1.2,3.167-1.2,3.7c0,1-0.25,2.667-0.75,5c0.667-7.667,0.917-12,0.75-13c-0.1-0.567-0.35-1.383-0.75-2.45
		c-0.333-0.9-0.5-1.667-0.5-2.3L94.1,9.1z M58.35,28.3l-0.05,0.4c-0.833-1.833-1.333-3.25-1.5-4.25l-0.6-3.5l-0.9-5l3,3l0.45,1.3
		c0.233,1.167,0.25,2.483,0.05,3.95l-0.35,3.3L58.35,28.3z M40.1,46.5c-1-1.667-2-3.333-3-5c-2.467-4.1-3.9-6.9-4.3-8.4
		c-0.4-1.533-1.017-3.133-1.85-4.8l-1.15-2.1l3.9,0.75c2.667,0.767,4.2,1.767,4.6,3c0.467,1.5,1.217,2.667,2.25,3.5v4
		c0.333,7.333,0.417,10.75,0.25,10.25C40.567,47.3,40.333,46.9,40.1,46.5z"/>
	<path style="fill-rule:evenodd;clip-rule:evenodd;fill:#432E1D;" d="M141.45,113.3l-15.65,0.2c0.533-4.233,1.517-11.116,2.95-20.65
		l2.05-13.05v16c0,2.2,1.101,5.75,3.3,10.65l3.351-12L138.8,79.1l0.5,4.25c0.434,3.233,0.934,5.817,1.5,7.75
		c0.533,1.967,0.8,4.551,0.8,7.75c0,1.967-0.05,5.384-0.149,10.25V113.3z M94.55,82.95c0,14.767-0.217,25.05-0.649,30.85H82.95
		c0.333-6.967,1.083-17.616,2.25-31.95l1.6-19.399c-0.9-10.667-1.35-17.55-1.35-20.65c0-1.966,0.333-4.55,1-7.75l1-4.25
		c-0.133-4.9-0.133-8.683,0-11.35c0.167-3.6-0.1-6.717-0.8-9.35c0.667-0.133,1.15-0.35,1.45-0.65c0.833-0.833,1.917-1.25,3.25-1.25
		c0.267,0,0.517,0.017,0.75,0.05c-0.033,1.667-0.116,3.8-0.25,6.4c-0.333,6.333-0.25,10.6,0.25,12.8
		c0.767,3.367,1.267,5.95,1.5,7.75c0.334,2.4,0.5,5.15,0.5,8.25c0,2.033,0.134,12.617,0.4,31.75
		C94.533,77.267,94.55,80.184,94.55,82.95z M74.925,36l1.875,4.85c0,0.533,0,1.066,0,1.6c0.067-0.367,0.133-0.717,0.2-1.05
		c1.4,3.934,1.883,6.55,1.45,7.85c-0.6,1.9-1.333,6.917-2.2,15.05c-0.967,9-1.45,16.384-1.45,22.15c0,7.133-0.45,0.25-1.35-20.65
		V46.45c0-1.934,0.233-4.284,0.7-7.05l0.65-3.6l0.1,0.15L74.925,36z"/>
</g>
</svg>
