<?xml version="1.0" encoding="iso-8859-1"?>
<!-- Generator: Adobe Illustrator 15.1.0, SVG Export Plug-In . SVG Version: 6.00 Build 0)  -->
<!DOCTYPE svg PUBLIC "-//W3C//DTD SVG 1.1//EN" "http://www.w3.org/Graphics/SVG/1.1/DTD/svg11.dtd">
<svg version="1.1" id="FlashAICB" xmlns="http://www.w3.org/2000/svg" xmlns:xlink="http://www.w3.org/1999/xlink" x="0px" y="0px"
	 width="29.45px" height="11.9px" viewBox="0 0 29.45 11.9" style="enable-background:new 0 0 29.45 11.9;" xml:space="preserve">
<g>
	<path style="fill-rule:evenodd;clip-rule:evenodd;fill:#466E13;" d="M29.4,5.75c-0.267,1.8-0.384,2.783-0.351,2.95L28.9,9.6
		c-0.967-0.233-1.533-0.816-1.7-1.75L26.95,5.95c-1.601,2.6-2.816,4.1-3.65,4.5l-1.3,0.6c0.867-1.166,1.3-2.1,1.3-2.8v-2.1
		C22.8,7.616,22.117,8.6,21.25,9.1l-1.3,0.75c0.3-1.1,0.35-1.883,0.149-2.35l-0.3-0.7c-1.433,1.134-2.383,2.066-2.85,2.8l-1.101,1.9
		c-0.333-1.233-0.449-2.283-0.35-3.15c0.033-0.533,0.117-0.983,0.25-1.35l0.15-0.4c-0.667,0.334-1.567,1.034-2.7,2.101
		c-0.7,0.666-1.3,1.166-1.8,1.5l-0.5,0.25L11.3,8.6c-0.3,0.034-0.616,0.117-0.95,0.25C9.684,9.116,9.25,9.5,9.05,10
		c-0.366,0.8-0.783,1.4-1.25,1.8c-0.3-0.666-0.433-1.5-0.4-2.5c0.034-0.633,0.1-1.166,0.2-1.6l0.15-0.5
		C5.917,9.1,4.483,10.366,3.45,11L1.9,11.9l1-3.301C2,9.167,1.217,9.5,0.55,9.6C0.283,8.267,0.117,7.4,0.05,7
		c-0.1-0.833-0.033-1.5,0.2-2C0.583,4.333,0.9,3.85,1.2,3.55C1.434,3.316,1.833,2.967,2.4,2.5c2-0.633,4.717-1.167,8.15-1.6
		c1.9-0.267,4.517-0.566,7.851-0.9c0-0.067,1.183,0.017,3.55,0.25c2.533,0.233,4.217,0.533,5.05,0.9c1,0.4,1.684,0.95,2.05,1.65
		C29.384,3.467,29.5,4.45,29.4,5.75z"/>
</g>
</svg>
