<?xml version="1.0" encoding="iso-8859-1"?>
<!-- Generator: Adobe Illustrator 15.1.0, SVG Export Plug-In . SVG Version: 6.00 Build 0)  -->
<!DOCTYPE svg PUBLIC "-//W3C//DTD SVG 1.1//EN" "http://www.w3.org/Graphics/SVG/1.1/DTD/svg11.dtd">
<svg version="1.1" id="FlashAICB" xmlns="http://www.w3.org/2000/svg" xmlns:xlink="http://www.w3.org/1999/xlink" x="0px" y="0px"
	 width="39.35px" height="22.15px" viewBox="0 0 39.35 22.15" style="enable-background:new 0 0 39.35 22.15;" xml:space="preserve"
	>
<symbol  id="FlashAICB_x2F_Layer_5_x2F__x3C_Path_x3E__x5F_3" viewBox="0 -7.439 24.894 7.427">
	<g id="Layer_1_3_">
		<path style="fill-rule:evenodd;clip-rule:evenodd;" d="M24.55-1.95c0.567-0.367,0.434-0.983-0.4-1.85c-0.9-0.9-2.2-1.5-3.9-1.8
			c-2.567-0.6-4.583-1.05-6.05-1.35c-2.667-0.5-5.1-0.617-7.3-0.35C4.667-7,2.85-6.55,1.45-5.95C0.75-5.65,0.267-5.367,0-5.1
			l9.55,4.15c2.733,1,5.9,1.2,9.5,0.6C21.717-0.783,23.55-1.317,24.55-1.95z"/>
	</g>
</symbol>
<symbol  id="FlashAICB_x2F_Layer_5_x2F__x3C_Path_x3E__x5F_7" viewBox="0 -11.409 25.457 11.408">
	<g id="Layer_1_2_">
		<path style="fill-rule:evenodd;clip-rule:evenodd;" d="M7.35-0.05c6.566,0.3,11.633-0.784,15.2-3.25
			c1.333-0.9,2.217-1.85,2.65-2.85c0.4-0.9,0.333-1.533-0.2-1.9c-1.2-0.8-2.6-1.434-4.2-1.9c-2.167-0.633-4.983-1.1-8.45-1.4
			c-3.2-0.267-6.217,0.367-9.05,1.9C1.9-8.683,0.8-7.883,0-7.05L7.35-0.05z"/>
	</g>
</symbol>
<g>
	
		<use xlink:href="#FlashAICB_x2F_Layer_5_x2F__x3C_Path_x3E__x5F_7"  width="25.457" height="11.408" y="-11.409" transform="matrix(1 0 0 -1 0 7.9502)" style="overflow:visible;opacity:0.3008;enable-background:new    ;"/>
	<path style="fill-rule:evenodd;clip-rule:evenodd;fill:#94897B;" d="M18.9,5.2l2.45,10.1L11,19L0,15c0.133-2.233,0.566-4.233,1.3-6
		l1.05-2c0.933-1.233,2-2.45,3.2-3.65C7.95,0.983,9.767-0.133,11,0c1.267,0.133,2.967,1.033,5.1,2.7C17.167,3.566,18.1,4.4,18.9,5.2
		z"/>
	<path style="fill-rule:evenodd;clip-rule:evenodd;fill:#787066;" d="M0.55,11.4H0.6c1.233,0.5,2.333,0.767,3.3,0.8
		C5,12.233,6.1,12,7.2,11.5c0.866-0.333,2.083-0.5,3.65-0.5c1.633,0.033,2.833-0.083,3.6-0.35c1-0.333,1.883-1.05,2.65-2.15
		c0.733-1.066,1.25-2.25,1.55-3.55L18.9,5.2l2.45,10.1L11,19L0,15C0.1,13.7,0.283,12.5,0.55,11.4z"/>
	<path style="fill-rule:evenodd;clip-rule:evenodd;fill:#635C55;" d="M8.1,11.6l-0.05-0.25c0.5,0.267,0.967,0.75,1.4,1.45
		c0.7,1.033,1.116,1.634,1.25,1.8c1.2,1.4,2.833,1.684,4.9,0.851c1.167-0.434,2-1.2,2.5-2.3c0.9-0.733,1.583-1.684,2.05-2.851
		l1.199,5L11,19L0,15l0.1-1.2c1.867,1.5,4.066,2.283,6.6,2.351c0.333,0,0.633-0.101,0.9-0.301c0.267-0.232,0.433-0.5,0.5-0.8
		C8.434,13.883,8.434,12.733,8.1,11.6z"/>
	
		<use xlink:href="#FlashAICB_x2F_Layer_5_x2F__x3C_Path_x3E__x5F_3"  width="24.894" height="7.427" y="-7.439" transform="matrix(1 0 0 -1 14.4502 14.7002)" style="overflow:visible;opacity:0.3008;enable-background:new    ;"/>
	<path style="fill-rule:evenodd;clip-rule:evenodd;fill:#94897B;" d="M27.85,9l3.2,2.5c2.2,1.8,3.483,3.066,3.851,3.8
		c1.033,2.134,0.283,3.7-2.25,4.7c-1.434,0.6-2.851,1.017-4.25,1.25c-1.567,0.267-3.483,0.383-5.75,0.35
		c-1.867-0.033-3.483-0.283-4.851-0.75c-1.866-0.633-2.983-0.982-3.35-1.05c-1.134-0.2-0.983-1,0.45-2.399
		c2.167-1.834,3.684-3.283,4.55-4.351c1.2-1.4,2.267-2.3,3.2-2.7C22.783,10.316,24.517,9.867,27.85,9z"/>
	<path style="fill-rule:evenodd;clip-rule:evenodd;fill:#787066;" d="M34.9,15.3c1.033,2.134,0.283,3.7-2.25,4.7
		c-1.434,0.6-2.851,1.017-4.25,1.25c-1.567,0.267-3.483,0.383-5.75,0.35c-1.867-0.033-3.483-0.283-4.851-0.75
		c-1.866-0.633-2.983-0.982-3.35-1.05c-0.767-0.133-1-0.483-0.7-1.05c0.233-0.434,0.85-1.1,1.85-2c1.633,0.833,3.534,1.417,5.7,1.75
		c2.134,0.333,4.033,0.316,5.7-0.05c0.833-0.2,1.684-1.017,2.55-2.45c0.434-0.767,0.667-1.167,0.7-1.2
		c0.3-0.399,0.667-0.633,1.1-0.7c0.768-0.133,1.351-0.366,1.75-0.699L33.15,13.3C34.083,14.2,34.667,14.867,34.9,15.3z"/>
	<path style="fill-rule:evenodd;clip-rule:evenodd;fill:#635C55;" d="M32.5,15.55c0.934,0.934,1.8,1.733,2.6,2.4
		C34.7,18.85,33.884,19.533,32.65,20c-1.434,0.6-2.851,1.017-4.25,1.25c-1.567,0.267-3.483,0.383-5.75,0.35
		c-1.867-0.033-3.483-0.283-4.851-0.75c-1.866-0.633-2.983-0.982-3.35-1.05c-0.6-0.1-0.867-0.35-0.8-0.75
		c0.067-0.3,0.383-0.75,0.95-1.35c1.133,1.467,2.783,2.5,4.95,3.1c1.967,0.533,3.917,0.634,5.851,0.3
		c1.633-0.267,3.05-0.982,4.25-2.149C30.884,17.45,31.833,16.316,32.5,15.55z"/>
</g>
</svg>
