<?xml version="1.0" encoding="iso-8859-1"?>
<!-- Generator: Adobe Illustrator 15.1.0, SVG Export Plug-In . SVG Version: 6.00 Build 0)  -->
<!DOCTYPE svg PUBLIC "-//W3C//DTD SVG 1.1//EN" "http://www.w3.org/Graphics/SVG/1.1/DTD/svg11.dtd">
<svg version="1.1" id="FlashAICB" xmlns="http://www.w3.org/2000/svg" xmlns:xlink="http://www.w3.org/1999/xlink" x="0px" y="0px"
	 width="280.55px" height="51.5px" viewBox="0 0 280.55 51.5" style="enable-background:new 0 0 280.55 51.5;" xml:space="preserve"
	>
<symbol  id="FlashAICB_x2F_Layer_5_x2F__x3C_Path_x3E__x5F_27" viewBox="0 -3.753 17.347 3.753">
	<g id="Layer_1_10_">
		<path style="fill-rule:evenodd;clip-rule:evenodd;" d="M13.4-3.3c-1.066,0.133-3.883,0.017-8.45-0.35C1.65-3.917,0-3.667,0-2.9
			c0,0.967,1.15,1.7,3.45,2.2C5.45-0.233,7.967,0,11,0c2.833,0,4.817-0.65,5.95-1.95C18.05-3.283,16.867-3.733,13.4-3.3z"/>
	</g>
</symbol>
<symbol  id="FlashAICB_x2F_Layer_5_x2F__x3C_Path_x3E__x5F_28" viewBox="-0.049 -4.495 17.749 4.526">
	<g id="Layer_1_9_">
		<path style="fill-rule:evenodd;clip-rule:evenodd;" d="M8.95,0c5.833-0.267,8.75-1.083,8.75-2.45c0-0.7-0.583-1.367-1.75-2
			c-3.133,0.434-7.034,0.434-11.7,0C2.583-4.583,1.367-4.417,0.6-3.95C-0.1-3.517-0.233-2.967,0.2-2.3C1.3-0.567,4.217,0.2,8.95,0z"
			/>
	</g>
</symbol>
<symbol  id="FlashAICB_x2F_Layer_5_x2F__x3C_Path_x3E__x5F_29" viewBox="-0.007 -3.925 14.67 3.925">
	<g id="Layer_1_8_">
		<path style="fill-rule:evenodd;clip-rule:evenodd;" d="M10.2,0c3.933-0.467,5.267-1.15,4-2.05c-1-0.7-2.817-1.25-5.45-1.65
			C6.75-4,4.8-4,2.9-3.7C0.867-3.4-0.1-2.867,0-2.1c0.1,0.667,1.833,1.217,5.2,1.65C6.867-0.25,8.533-0.1,10.2,0z"/>
	</g>
</symbol>
<symbol  id="FlashAICB_x2F_Layer_5_x2F__x3C_Path_x3E__x5F_30" viewBox="0.02 -2.792 14.49 2.792">
	<g id="Layer_1_7_">
		<path style="fill-rule:evenodd;clip-rule:evenodd;" d="M7.95,0c1.6-0.233,3.017-0.483,4.25-0.75c2.533-0.6,2.983-1.083,1.35-1.45
			c-2.1-0.5-4.733-0.683-7.9-0.55C2.317-2.617,0.467-2.167,0.1-1.4c-0.367,0.667,0.533,1.083,2.7,1.25
			C3.133-0.117,4.85-0.067,7.95,0z"/>
	</g>
</symbol>
<symbol  id="FlashAICB_x2F_Layer_5_x2F__x3C_Path_x3E__x5F_31" viewBox="-0.007 -5.75 14.637 5.737">
	<g id="Layer_1_6_">
		<path style="fill-rule:evenodd;clip-rule:evenodd;" d="M8.85-0.05c4.433,0.233,6.316-0.65,5.65-2.65c-0.3-1-1.067-2.017-2.3-3.05
			c-1.333,0-2.8,0.1-4.4,0.3C4.567-5.017,2.25-4.267,0.85-3.2C-0.617-2.1-0.2-1.3,2.1-0.8C3.333-0.5,5.583-0.25,8.85-0.05z"/>
	</g>
</symbol>
<symbol  id="FlashAICB_x2F_Layer_5_x2F__x3C_Path_x3E__x5F_32" viewBox="0 -5.475 17.671 5.467">
	<g id="Layer_1_5_">
		<path style="fill-rule:evenodd;clip-rule:evenodd;" d="M11.65-0.1c4.867-0.533,6.783-1.533,5.75-3c-0.5-0.733-1.5-1.417-3-2.05
			c-3.2-0.434-6.183-0.434-8.95,0C2.717-4.75,0.9-4.117,0-3.25C0.8-2.617,1.883-2,3.25-1.4C5.983-0.233,8.783,0.2,11.65-0.1z"/>
	</g>
</symbol>
<symbol  id="FlashAICB_x2F_Layer_5_x2F__x3C_Path_x3E__x5F_33" viewBox="0.013 -6.5 16.897 6.501">
	<g id="Layer_1_4_">
		<path style="fill-rule:evenodd;clip-rule:evenodd;" d="M10.4-0.15c3.3-0.467,5.35-1.667,6.15-3.6c0.4-0.967,0.467-1.883,0.2-2.75
			H8c-3.633,0-6.05,0.417-7.25,1.25c-0.6,0.433-0.833,0.867-0.7,1.3c0.4,0.8,1.133,1.567,2.2,2.3C4.383-0.217,7.1,0.283,10.4-0.15z"
			/>
	</g>
</symbol>
<symbol  id="FlashAICB_x2F_Layer_5_x2F__x3C_Path_x3E__x5F_34" viewBox="0 -6.2 18.75 6.242">
	<g id="Layer_1_3_">
		<path style="fill-rule:evenodd;clip-rule:evenodd;" d="M10.55,0c3.067-0.267,5.35-1.183,6.85-2.75c0.767-0.8,1.217-1.567,1.35-2.3
			C15.483-5.817,11.667-6.2,7.3-6.2c-2.7,0-4.733,0.467-6.1,1.4C0.533-4.333,0.133-3.867,0-3.4c0.7,0.633,1.65,1.25,2.85,1.85
			C5.283-0.317,7.85,0.2,10.55,0z"/>
	</g>
</symbol>
<symbol  id="FlashAICB_x2F_Layer_5_x2F__x3C_Path_x3E__x5F_35" viewBox="0 -6.4 17.15 6.427">
	<g id="Layer_1_2_">
		<path style="fill-rule:evenodd;clip-rule:evenodd;" d="M15.4-1.8c0.833-0.667,1.417-1.35,1.75-2.05V-5.8
			C14.317-6.2,10.8-6.4,6.6-6.4c-2.633,0-4.533,0.25-5.7,0.75C0.333-5.417,0.033-5.167,0-4.9c1.467,1.033,2.467,1.95,3,2.75
			C3.4-1.583,4.2-1.1,5.4-0.7C6.5-0.3,7.717-0.067,9.05,0C11.583,0.167,13.7-0.433,15.4-1.8z"/>
	</g>
</symbol>
<g>
	
		<use xlink:href="#FlashAICB_x2F_Layer_5_x2F__x3C_Path_x3E__x5F_35"  width="17.15" height="6.427" y="-6.4" transform="matrix(1 0 0 -1 95.0498 24.2998)" style="overflow:visible;opacity:0.3008;enable-background:new    ;"/>
	
		<use xlink:href="#FlashAICB_x2F_Layer_5_x2F__x3C_Path_x3E__x5F_34"  width="18.75" height="6.242" y="-6.2" transform="matrix(1 0 0 -1 67.2002 21.3999)" style="overflow:visible;opacity:0.3008;enable-background:new    ;"/>
	
		<use xlink:href="#FlashAICB_x2F_Layer_5_x2F__x3C_Path_x3E__x5F_33"  width="16.897" height="6.501" x="0.013" y="-6.5" transform="matrix(1 0 0 -1 41.1499 32.9502)" style="overflow:visible;opacity:0.3008;enable-background:new    ;"/>
	
		<use xlink:href="#FlashAICB_x2F_Layer_5_x2F__x3C_Path_x3E__x5F_32"  width="17.671" height="5.467" y="-5.475" transform="matrix(1 0 0 -1 196.2002 31.75)" style="overflow:visible;opacity:0.3008;enable-background:new    ;"/>
	
		<use xlink:href="#FlashAICB_x2F_Layer_5_x2F__x3C_Path_x3E__x5F_31"  width="14.637" height="5.737" x="-0.007" y="-5.75" transform="matrix(1 0 0 -1 237 13.5)" style="overflow:visible;opacity:0.3008;enable-background:new    ;"/>
	
		<use xlink:href="#FlashAICB_x2F_Layer_5_x2F__x3C_Path_x3E__x5F_30"  width="14.49" height="2.792" x="0.02" y="-2.792" transform="matrix(1 0 0 -1 147.75 2.5)" style="overflow:visible;opacity:0.3008;enable-background:new    ;"/>
	
		<use xlink:href="#FlashAICB_x2F_Layer_5_x2F__x3C_Path_x3E__x5F_29"  width="14.67" height="3.925" x="-0.007" y="-3.925" transform="matrix(1 0 0 -1 0 19.25)" style="overflow:visible;opacity:0.3008;enable-background:new    ;"/>
	
		<use xlink:href="#FlashAICB_x2F_Layer_5_x2F__x3C_Path_x3E__x5F_28"  width="17.749" height="4.526" x="-0.049" y="-4.495" transform="matrix(1 0 0 -1 262.8496 36.9004)" style="overflow:visible;opacity:0.3008;enable-background:new    ;"/>
	
		<use xlink:href="#FlashAICB_x2F_Layer_5_x2F__x3C_Path_x3E__x5F_27"  width="17.347" height="3.753" y="-3.753" transform="matrix(1 0 0 -1 158.5 47.75)" style="overflow:visible;opacity:0.3008;enable-background:new    ;"/>
	<path style="fill-rule:evenodd;clip-rule:evenodd;fill:#94897B;" d="M103,15.95c2.167-0.367,4.017,0.95,5.55,3.95
		c0.767,1.467,1.317,2.983,1.65,4.55v4.3c-2.6,0.867-5.667,1.3-9.2,1.3c-2.233,0-3.883-0.55-4.95-1.649l-0.9-1.7
		c1.3-2.233,2.167-4.233,2.6-6c0.333-1.267,1.033-2.351,2.1-3.25C100.85,16.617,101.9,16.117,103,15.95z"/>
	<path style="fill-rule:evenodd;clip-rule:evenodd;fill:#94897B;" d="M68.2,25.1l-1-1.649c0.566-0.767,1.35-1.5,2.35-2.2
		c2-1.434,4.1-2.033,6.3-1.8c2.5,0.267,4.367,1.35,5.6,3.25c0.6,0.933,0.95,1.85,1.05,2.75c-2.667,0.866-5.767,1.3-9.3,1.3
		C70.967,26.75,69.3,26.2,68.2,25.1z"/>
	<path style="fill-rule:evenodd;clip-rule:evenodd;fill:#94897B;" d="M43.05,33.45c1.8-1.5,4.067-2,6.8-1.5
		c2.767,0.466,4.483,1.7,5.15,3.7c0.367,0.967,0.434,1.899,0.2,2.8h-7.35c-3.067,0-5.1-0.434-6.1-1.3L41.2,35.85
		C41.533,35.017,42.15,34.217,43.05,33.45z"/>
	<path style="fill-rule:evenodd;clip-rule:evenodd;fill:#94897B;" d="M206.5,30.75c4.733,0.566,6.6,1.633,5.6,3.2
		c-0.5,0.767-1.466,1.483-2.899,2.149c-3.134,0.434-6.033,0.434-8.7,0c-1.667-0.3-3.05-0.717-4.15-1.25L195.2,34.1l3.2-1.949
		C201.066,30.916,203.767,30.45,206.5,30.75z"/>
	<path style="fill-rule:evenodd;clip-rule:evenodd;fill:#94897B;" d="M245.85,11.45c4.434-0.3,6.317,0.616,5.65,2.75
		c-0.3,1.066-1.066,2.149-2.3,3.25c-1.334,0-2.8-0.117-4.4-0.351c-3.233-0.433-5.55-1.216-6.95-2.35
		c-1.466-1.167-1.05-2.017,1.25-2.55C240.434,11.867,242.684,11.617,245.85,11.45z"/>
	<path style="fill-rule:evenodd;clip-rule:evenodd;fill:#94897B;" d="M147.85,2.1c-0.267-1.133,0.518-1.8,2.351-2
		c1-0.1,2.434-0.1,4.3,0l3.6,1.5c2.101,1.101,2.467,1.934,1.101,2.5c-1.8,0.7-4.033,0.867-6.7,0.5
		C149.7,4.2,148.15,3.367,147.85,2.1z"/>
	<path style="fill-rule:evenodd;clip-rule:evenodd;fill:#94897B;" d="M9.2,17.45c3.533,0.566,4.733,1.417,3.6,2.55
		c-0.933,0.934-2.583,1.633-4.95,2.1c-1.8,0.367-3.55,0.367-5.25,0c-1.8-0.399-2.667-1.066-2.6-2c0.1-0.866,1.667-1.566,4.7-2.1
		C6.2,17.733,7.7,17.55,9.2,17.45z"/>
	<path style="fill-rule:evenodd;clip-rule:evenodd;fill:#94897B;" d="M278,38.65c0,0.732-0.5,1.433-1.5,2.1
		c-0.667-0.1-1.583-0.184-2.75-0.25c-2.333-0.1-4.75-0.017-7.25,0.25c-1.434,0.166-2.467,0-3.1-0.5
		c-0.634-0.467-0.767-1.05-0.4-1.75c0.934-1.834,3.434-2.633,7.5-2.4C275.5,36.367,278,37.217,278,38.65z"/>
	<path style="fill-rule:evenodd;clip-rule:evenodd;fill:#94897B;" d="M169.85,50.75c-0.866-0.2-3.25,0-7.149,0.6
		c-2.8,0.434-4.2,0.018-4.2-1.25c0-1.566,0.983-2.767,2.95-3.6c1.667-0.7,3.8-1.05,6.399-1.05c2.4,0,4.067,1.05,5,3.149
		c0.367,0.834,0.317,1.467-0.149,1.9C172.2,50.967,171.25,51.05,169.85,50.75z"/>
	<path style="fill-rule:evenodd;clip-rule:evenodd;fill:#787066;" d="M105.75,16.5c1.3,0.833,2.434,2.417,3.4,4.75
		c0.5,1.133,0.85,2.2,1.05,3.2v4.3c-2.6,0.867-5.667,1.3-9.2,1.3c-2.233,0-3.883-0.55-4.95-1.649l-0.9-1.7l0.05-0.15
		c0.633,0.366,1.3,0.517,2,0.45c0.733-0.1,1.383-0.467,1.95-1.1c0.6-0.7,1.75-1.6,3.45-2.7c1.466-0.934,2.5-1.917,3.1-2.95
		c0.1-0.2,0.083-0.867-0.05-2C105.55,17.184,105.583,16.6,105.75,16.5z"/>
	<path style="fill-rule:evenodd;clip-rule:evenodd;fill:#787066;" d="M68.2,25.1l-1-1.649c0.167-0.267,0.417-0.567,0.75-0.9
		c0.733,0.9,1.65,1.367,2.75,1.4h0.1l1.3,0.2c0.4,0.034,0.783-0.033,1.15-0.2c0.233-0.067,0.6-0.233,1.1-0.5
		c0.566-0.267,1.083-0.684,1.55-1.25c0.534-0.634,0.8-1.217,0.8-1.75l-0.1-0.9c2.2,0.434,3.85,1.55,4.95,3.35
		c0.534,0.9,0.85,1.75,0.95,2.55c-2.667,0.866-5.767,1.3-9.3,1.3C70.967,26.75,69.3,26.2,68.2,25.1z"/>
	<path style="fill-rule:evenodd;clip-rule:evenodd;fill:#787066;" d="M48.7,35.05c1.466-0.7,2.566-1.533,3.3-2.5
		c1.767,0.767,2.833,1.983,3.2,3.65c0.167,0.833,0.167,1.583,0,2.25h-7.35c-2.467,0-4.267-0.3-5.4-0.9
		c-0.733-0.366-1.15-0.816-1.25-1.35c0.267,0.066,0.783,0.25,1.55,0.55c0.733,0.267,1.267,0.333,1.6,0.2
		C45.417,36.45,46.867,35.816,48.7,35.05z"/>
	<path style="fill-rule:evenodd;clip-rule:evenodd;fill:#787066;" d="M208.6,31.1c3.367,0.634,4.467,1.667,3.301,3.101
		c-0.567,0.7-1.467,1.333-2.7,1.899c-3.134,0.434-6.033,0.434-8.7,0c-1.667-0.3-3.05-0.717-4.15-1.25L195.2,34.1
		c0.167-0.133,0.399-0.316,0.7-0.55c0.633-0.433,1.316-0.833,2.05-1.2c0.1,0.134,0.25,0.25,0.45,0.351
		c3.366,1.8,6.55,1.633,9.55-0.5C208.384,31.867,208.6,31.5,208.6,31.1z"/>
	<path style="fill-rule:evenodd;clip-rule:evenodd;fill:#787066;" d="M251,12.2c0.9,0.667,0.866,1.75-0.1,3.25
		c-0.467,0.733-1.034,1.399-1.7,2c-1.334,0-2.8-0.117-4.4-0.351c-3.233-0.433-5.55-1.216-6.95-2.35
		c-1.1-0.867-1.116-1.583-0.05-2.15l0.5,0.25c4.9,1.733,9.117,1.517,12.65-0.649H251z"/>
	<path style="fill-rule:evenodd;clip-rule:evenodd;fill:#787066;" d="M147.85,2.1c-0.133-0.566-0.017-1.017,0.351-1.35
		c0.566,1.133,1.566,1.7,3,1.7c1-0.034,3.217-0.367,6.649-1c2.367,1.167,2.817,2.05,1.351,2.649c-1.8,0.7-4.033,0.867-6.7,0.5
		C149.7,4.2,148.15,3.367,147.85,2.1z"/>
	<path style="fill-rule:evenodd;clip-rule:evenodd;fill:#787066;" d="M1.9,20.15c0.6,0.3,1.133,0.45,1.6,0.45
		c1.566,0,3.083-0.267,4.55-0.8c1.634-0.6,2.434-1.316,2.4-2.15c2.667,0.633,3.383,1.467,2.15,2.5c-1,0.867-2.583,1.517-4.75,1.95
		c-1.8,0.367-3.55,0.367-5.25,0c-1.8-0.399-2.667-1.066-2.6-2c0.066-0.267,0.2-0.483,0.4-0.649C0.566,19.517,1.066,19.75,1.9,20.15z
		"/>
	<path style="fill-rule:evenodd;clip-rule:evenodd;fill:#787066;" d="M277.8,38c-0.1,0.434-0.066,0.833,0.101,1.2
		c-0.233,0.566-0.7,1.083-1.4,1.55c-0.667-0.1-1.583-0.184-2.75-0.25c-2.333-0.1-4.75-0.017-7.25,0.25c-1.6,0.2-2.7-0.017-3.3-0.65
		c-0.566-0.6-0.517-1.283,0.149-2.05c0.167,0.601,0.617,0.9,1.351,0.9c1.7-0.034,3.8-0.217,6.3-0.55c1.366-0.2,3.45-0.5,6.25-0.9
		C277.45,37.633,277.634,37.8,277.8,38z"/>
	<path style="fill-rule:evenodd;clip-rule:evenodd;fill:#787066;" d="M173.05,49.4c0.067,0.6-0.133,1.033-0.6,1.3
		c-0.566,0.3-1.434,0.316-2.601,0.05c-0.866-0.2-3.25,0-7.149,0.6c-2.8,0.434-4.2,0.018-4.2-1.25V50
		c0.867,0.166,1.684-0.017,2.45-0.55c1.267-0.9,2.8-1.617,4.6-2.15c0.867-0.267,2.517-0.649,4.95-1.149l0.6,0.399
		c-0.699,0.3-0.982,0.851-0.85,1.65c0.134,0.833,0.617,1.25,1.45,1.25L173.05,49.4z"/>
	<path style="fill-rule:evenodd;clip-rule:evenodd;fill:#635C55;" d="M105.75,16.5c1.3,0.833,2.434,2.417,3.4,4.75
		c0.5,1.133,0.85,2.2,1.05,3.2v4.3c-2.6,0.867-5.667,1.3-9.2,1.3c-2.467,0-4.2-0.667-5.2-2l0.3,0.15c1.767,0.5,3.566,0.7,5.4,0.6
		c2.033-0.1,3.767-0.583,5.2-1.45c0.667-0.399,1.167-0.899,1.5-1.5c0.366-0.666,0.483-1.366,0.35-2.1c-0.2-1.2-1.133-2.434-2.8-3.7
		c0.066-0.267,0.033-0.933-0.1-2C105.55,17.117,105.583,16.6,105.75,16.5z"/>
	<path style="fill-rule:evenodd;clip-rule:evenodd;fill:#635C55;" d="M68.25,25.2c-0.533-0.534-0.883-1.117-1.05-1.75
		c2.133,1.333,4.267,2.133,6.4,2.399c2.667,0.334,4.65-0.383,5.95-2.149c0.6-0.833,0.634-1.784,0.1-2.851
		c1.034,0.733,1.817,1.717,2.35,2.95c0.267,0.634,0.434,1.184,0.5,1.65c-2.667,0.866-5.767,1.3-9.3,1.3
		C71.033,26.75,69.383,26.233,68.25,25.2z"/>
	<path style="fill-rule:evenodd;clip-rule:evenodd;fill:#635C55;" d="M54.45,34.85l0.1-0.199c0.733,1.199,0.95,2.467,0.65,3.8h-7.35
		c-4.034,0-6.25-0.717-6.65-2.15c2.667,1.333,5.216,1.884,7.65,1.65c0.966-0.101,1.716-0.583,2.25-1.45c0.2-0.267,0.433-0.7,0.7-1.3
		c0.1-0.333,0.15-0.467,0.15-0.4c0.033,0.233,0.183,0.434,0.45,0.601c0.367,0.199,0.75,0.25,1.15,0.149
		C53.983,35.416,54.283,35.184,54.45,34.85z"/>
	<path style="fill-rule:evenodd;clip-rule:evenodd;fill:#635C55;" d="M210.55,31.6c1.967,0.7,2.334,1.667,1.101,2.9
		c-0.634,0.6-1.45,1.133-2.45,1.6c-3.134,0.434-6.033,0.434-8.7,0c-1.667-0.3-3.05-0.717-4.15-1.25L195.2,34.1l0.149-0.149
		c3.167,1,6,1.466,8.5,1.399C207.384,35.25,209.616,34,210.55,31.6z"/>
	<path style="fill-rule:evenodd;clip-rule:evenodd;fill:#635C55;" d="M246.75,15.7c1.7-0.3,3.25-1.317,4.65-3.05
		c0.433,0.767,0.199,1.8-0.7,3.1c-0.467,0.633-0.967,1.2-1.5,1.7c-1.334,0-2.8-0.117-4.4-0.351c-3.233-0.433-5.55-1.216-6.95-2.35
		c-1-0.767-1.149-1.4-0.449-1.9c-0.067,0.367-0.017,0.717,0.149,1.05c0.167,0.333,0.467,0.55,0.9,0.65
		c0.899,0.2,2.267,0.517,4.1,0.95C244.184,15.833,245.583,15.9,246.75,15.7z"/>
	<path style="fill-rule:evenodd;clip-rule:evenodd;fill:#635C55;" d="M147.85,2.1l-0.05-0.3c0.367,0.667,1.184,1.134,2.45,1.4
		c0.066,0.033,1.05,0.167,2.95,0.399c2.333,0.4,4.184-0.149,5.55-1.649c1.5,0.933,1.65,1.649,0.45,2.149
		c-1.8,0.7-4.033,0.867-6.7,0.5C149.7,4.2,148.15,3.367,147.85,2.1z"/>
	<path style="fill-rule:evenodd;clip-rule:evenodd;fill:#635C55;" d="M11.85,18.1c1.6,0.634,1.733,1.4,0.4,2.3
		c-1.066,0.733-2.533,1.3-4.4,1.7c-1.8,0.367-3.55,0.367-5.25,0c-1.8-0.399-2.667-1.066-2.6-2l0.1-0.3l0.35,0.35
		c1.767,1.433,3.816,1.917,6.15,1.45C8.9,21.167,10.65,20,11.85,18.1z"/>
	<path style="fill-rule:evenodd;clip-rule:evenodd;fill:#635C55;" d="M277.8,38.05c-0.1,0.366-0.066,0.75,0.101,1.15
		c-0.233,0.566-0.7,1.083-1.4,1.55c-0.667-0.1-1.583-0.184-2.75-0.25c-2.333-0.1-4.75-0.017-7.25,0.25
		c-1.2,0.133-2.134,0.033-2.8-0.3c-0.634-0.333-0.917-0.784-0.851-1.351c0.167,0.2,0.367,0.351,0.601,0.45
		c1.967,0.767,4.333,1.033,7.1,0.8C273.45,40.083,275.866,39.316,277.8,38.05z"/>
	<path style="fill-rule:evenodd;clip-rule:evenodd;fill:#635C55;" d="M172.65,49.4h0.399c0.067,0.6-0.133,1.033-0.6,1.3
		c-0.566,0.3-1.434,0.316-2.601,0.05c-0.933-0.2-3.216-0.017-6.85,0.55c-2.733,0.434-4.217,0.15-4.45-0.85
		c0.4,0.366,0.851,0.5,1.351,0.399l1.8-0.399c1.934,0,3.467-0.65,4.6-1.95l3.101-1.7c-0.334,0.233-0.567,0.517-0.7,0.851
		c-0.867,0.266-1.167,0.883-0.9,1.85c0.233,0.934,0.817,1.283,1.75,1.05C170.816,50.217,171.85,49.833,172.65,49.4z"/>
</g>
</svg>
