<?xml version="1.0" encoding="iso-8859-1"?>
<!-- Generator: Adobe Illustrator 15.1.0, SVG Export Plug-In . SVG Version: 6.00 Build 0)  -->
<!DOCTYPE svg PUBLIC "-//W3C//DTD SVG 1.1//EN" "http://www.w3.org/Graphics/SVG/1.1/DTD/svg11.dtd">
<svg version="1.1" id="FlashAICB" xmlns="http://www.w3.org/2000/svg" xmlns:xlink="http://www.w3.org/1999/xlink" x="0px" y="0px"
	 width="99.9px" height="105px" viewBox="0 0 99.9 105" style="enable-background:new 0 0 99.9 105;" xml:space="preserve">
<radialGradient id="SVGID_1_" cx="51.6504" cy="100.75" r="11.85" gradientTransform="matrix(1 0 0 -0.6635 0 167.5978)" gradientUnits="userSpaceOnUse">
	<stop  offset="0" style="stop-color:#000000;stop-opacity:0.6863"/>
	<stop  offset="1" style="stop-color:#000000;stop-opacity:0"/>
</radialGradient>
<path style="fill-rule:evenodd;clip-rule:evenodd;fill:url(#SVGID_1_);" d="M42.1,103.75l0.85-0.85c0.366-0.101,1-0.15,1.9-0.15
	c0.867,0,1.5-0.066,1.9-0.2c0.467-0.133,1.133-0.383,2-0.75c0.233-0.066,0.616-0.1,1.15-0.1c0.533,0.033,0.916,0,1.149-0.101
	c-0.399,0-0.816-0.05-1.25-0.149c-0.467-0.101-0.9-0.167-1.3-0.2c0-0.033-0.184-0.083-0.55-0.15c-0.367-0.033-0.55-0.083-0.55-0.149
	c-0.4-0.101-0.833-0.134-1.3-0.101c1.167-0.3,2.466-0.366,3.9-0.199c0.866,0.1,2.167,0.3,3.9,0.6c4.6,0.533,7.466,0.833,8.6,0.9
	c-0.134,0.3-0.333,0.449-0.6,0.449h-0.95c-1,0.301-1.733,0.417-2.2,0.351l0.15,0.45c-0.534,0.066-0.917,0.1-1.15,0.1
	c0.133,0.2,0.3,0.55,0.5,1.05c-1.033,0.033-2.316-0.133-3.85-0.5c-1.733-0.399-3-0.616-3.801-0.649c-0.566-0.034-2.1,0.05-4.6,0.25
	c-0.1,0-0.767-0.067-2-0.2C43.1,103.35,42.467,103.45,42.1,103.75z"/>
<radialGradient id="SVGID_2_" cx="52.7002" cy="101.5498" r="9.45" gradientTransform="matrix(1 0 0 -0.3862 0 140.7728)" gradientUnits="userSpaceOnUse">
	<stop  offset="0" style="stop-color:#000000;stop-opacity:0.4078"/>
	<stop  offset="1" style="stop-color:#000000;stop-opacity:0"/>
</radialGradient>
<path style="fill-rule:evenodd;clip-rule:evenodd;fill:url(#SVGID_2_);" d="M40.15,103.8c-0.5,0.066-0.883,0-1.15-0.2
	c0.033,0,0.4-0.05,1.1-0.149c0.466-0.033,0.767-0.134,0.9-0.3h-0.35c0.1-0.101,0.35-0.184,0.75-0.25c0.333-0.067,0.55-0.2,0.65-0.4
	c-0.2-0.134-0.517-0.184-0.95-0.15c-0.6,0.034-0.917,0.051-0.95,0.051c0.4-0.267,1.35-0.517,2.85-0.75
	c0.733,0,1.017-0.051,0.85-0.15c1.133,0,2.083-0.184,2.85-0.55l-0.4-0.101l0.5-0.199c1.167,0,2.833-0.067,5-0.2
	c1.9-0.033,3.517,0.083,4.851,0.35c0.533,0.367,1.133,0.634,1.8,0.8l2.45,0.5c0.433,0.134,1.1,0.284,2,0.45l0.1,0.101
	c-0.5,0-0.783,0.017-0.85,0.05c0.366,0.066,0.933,0.166,1.699,0.3c-0.199,0.066-0.883,0.1-2.05,0.1c-0.934,0-1.566,0.15-1.899,0.45
	l-0.2,0.4L59,104.35l0.4,0.551c-1.233,0.066-3.067,0.1-5.5,0.1c-0.2,0-0.551-0.083-1.051-0.25c-0.366-0.167-0.717-0.167-1.05,0
	c-0.133,0.2-0.383,0.316-0.75,0.35c-1.333-0.033-2.333-0.033-3,0c0.267-0.133,0.4-0.3,0.4-0.5l-0.5-0.05L48,104.15
	c-1.733-0.134-3.15-0.117-4.25,0.05c-0.767,0.267-1.317,0.333-1.65,0.2c-0.3-0.301-0.55-0.5-0.75-0.601
	C41.15,103.733,40.75,103.733,40.15,103.8z"/>
<path style="fill-rule:evenodd;clip-rule:evenodd;fill:#4B7022;" d="M92.3,22.2c-0.434,0.533-0.55,2.033-0.35,4.5
	c0.233-0.767,0.416-1.35,0.55-1.75c0.3-0.8,0.684-1.083,1.15-0.85c0.166,0.1,0.366,0.417,0.6,0.95c0.233,0.7,0.366,1.083,0.4,1.15
	c0.066-0.367,0.05-0.8-0.051-1.3c0.2,0.467,0.384,1,0.551,1.6c0.533,2,0.583,4.767,0.149,8.3c-0.366-0.1-0.75-0.316-1.149-0.65
	c-0.867-0.6-1.45-1.4-1.75-2.4c-0.301-0.967-0.434-1.967-0.4-3l0.2-1.25l-1.45,1.2c-0.6,0.5-1.55,1.017-2.85,1.55l-1.7,0.65
	c-0.033-0.4,0.017-0.883,0.149-1.45c0.267-1.167,0.767-2.2,1.5-3.1c0.546-0.671,1.012-1.229,1.4-1.675
	c0.194-0.23,0.369-0.43,0.525-0.6c0.028-0.027,0.053-0.052,0.074-0.075c0.2-0.2,0.367-0.35,0.5-0.45c0-0.033,0.017-0.05,0.051-0.05
	C91.066,22.833,91.7,22.4,92.3,22.2z M73.75,36.35c0.068-0.076,0.135-0.15,0.2-0.225c0.011,0.088,0.011,0.18,0,0.275
	C73.878,36.386,73.812,36.37,73.75,36.35z M65.525,53.75L65.85,54c0.5,0.634,0.934,1.6,1.301,2.9
	c0.466,1.566,0.517,3.716,0.149,6.449c-1.2-0.366-2-1.166-2.399-2.399c-0.145-0.452-0.235-0.919-0.275-1.4
	c0.11-0.52,0.185-0.92,0.225-1.2l0.301-2.1c0.054,0.032,0.104,0.065,0.149,0.1c0.2,0.134,0.384,0.584,0.55,1.351
	c0.167,0.767,0.384,1.267,0.65,1.5c0.143-1.795-0.241-3.236-1.15-4.325L65.525,53.75z M27.65,50c-0.363-0.193-0.663-0.435-0.9-0.725
	c-0.116-0.148-0.216-0.306-0.3-0.475c-0.027-0.057-0.052-0.115-0.075-0.175c-0.081-0.129-0.156-0.288-0.225-0.475
	c-0.167-0.433-0.25-0.783-0.25-1.05c0-0.193,0.008-0.343,0.025-0.45L25,47.1c-0.533,0.267-1.367,0.55-2.5,0.85L21,48.3
	c-0.033-0.2,0.017-0.466,0.15-0.8c0.2-0.633,0.633-1.2,1.3-1.7c0.272-0.206,0.522-0.398,0.75-0.575
	c0.04-0.04,0.082-0.082,0.125-0.125c0.208-0.232,0.45-0.415,0.725-0.55c0.064-0.024,0.13-0.049,0.2-0.075
	c0.181-0.114,0.331-0.206,0.45-0.275c0.396-0.241,0.771-0.424,1.125-0.55c0.343-0.117,0.668-0.184,0.975-0.2l0.65,0.4
	c0.243,0.197,0.476,0.447,0.7,0.75c0.241,0.293,0.441,0.585,0.6,0.875c0.367,0.653,0.55,1.312,0.55,1.975l-0.025,0.2
	c0.05,0.811-0.024,1.744-0.225,2.8C28.514,50.354,28.047,50.204,27.65,50z M9.475,35.65c0.223,0.188,0.447,0.371,0.675,0.55
	l0.025,0.025c0.162,0.352,0.337,0.744,0.525,1.175c0.633,1.333,0.683,2.517,0.15,3.55c-1.567-1.067-2.667-2.017-3.3-2.85l-0.9-1.25
	c-0.033,0.933-0.483,1.867-1.35,2.8c-0.533,0.6-1.25,0.967-2.15,1.1l-1.2,0.05c0.167-0.633,0.383-1.333,0.65-2.1
	c0.6-1.534,1.217-2.667,1.85-3.4c0.548-0.632,1.073-1.132,1.575-1.5C6.034,34.134,6.026,34.583,6,35.15
	c-0.033,0.667,0.017,1.167,0.15,1.5c0.167-0.767,0.3-1.217,0.4-1.35c0.2-0.233,0.633-0.183,1.3,0.15c0.8,0.433,1.467,1.05,2,1.85
	C9.691,36.602,9.566,36.052,9.475,35.65z M9.375,35.325c-0.009-0.029-0.018-0.054-0.025-0.075l0.55,0.425l0.05,0.05L9.375,35.325z
	 M8.3,33.825c-0.319-0.135-0.769-0.227-1.35-0.275l-0.15-0.1l0.125,0.1c-0.15-0.01-0.309-0.019-0.475-0.025
	c0.133-0.089,0.267-0.165,0.4-0.225c0.355-0.193,0.63-0.277,0.825-0.25H7.7c0.518,0.23,1.001,0.672,1.45,1.325L9.175,34.4
	c-0.149-0.103-0.299-0.211-0.45-0.325L8.7,34.05c-0.042-0.038-0.091-0.071-0.15-0.1c-0.08-0.067-0.164-0.134-0.25-0.2
	C8.303,33.773,8.303,33.798,8.3,33.825z M34.6,36.05l0.05,0.15c-0.761-0.313-1.294-0.762-1.6-1.35c-0.267-0.533-0.367-1.067-0.3-1.6
	l0.15-0.65l-1.35,0.65c-0.566,0.267-1.433,0.533-2.6,0.8l-1.6,0.35c-0.033-0.2,0.017-0.45,0.15-0.75c0.2-0.633,0.65-1.183,1.35-1.65
	c1.133-0.8,1.917-1.317,2.35-1.55c0.093-0.055,0.185-0.104,0.275-0.15c0.145-0.058,0.287-0.1,0.425-0.125
	c0.253-0.04,0.503-0.032,0.75,0.025c0.109,0.382,0.06,0.791-0.15,1.225c-0.04,0.087-0.09,0.179-0.15,0.275
	c-0.167,0.3-0.434,0.733-0.8,1.3c0.367-0.1,0.7-0.3,1-0.6c0.05-0.05,0.133-0.15,0.25-0.3c0.133-0.15,0.3-0.35,0.5-0.6
	c0.09-0.11,0.174-0.21,0.25-0.3c0.068,0,0.135-0.008,0.2-0.025c0.139-0.032,0.255-0.107,0.35-0.225h0.825
	c0.231,0.314,0.439,0.681,0.625,1.1c0.264,0.564,0.406,1.247,0.425,2.05c0.001,0.169-0.007,0.345-0.025,0.525
	c0.009,0.018,0.017,0.035,0.025,0.05c-0.05,0.128-0.109,0.27-0.175,0.425c-0.233,0.133-0.45,0.267-0.65,0.4
	c-0.146,0.093-0.263,0.177-0.35,0.25l0.05,0.1C34.85,35.972,34.767,36.039,34.6,36.05z M25.725,17.55
	c-0.084-0.023-0.168-0.048-0.25-0.075c-1.137-0.344-2.012-0.702-2.625-1.075l-1.15-0.75l0.15,0.75c0.066,0.633-0.033,1.25-0.3,1.85
	c-0.367,0.967-1.133,1.6-2.3,1.9c-0.3-2.167-0.25-3.867,0.15-5.1c0.328-0.924,0.695-1.633,1.1-2.125
	c0.084,0.009,0.167,0.034,0.25,0.075c0.2,0.1,0.433,0.517,0.7,1.25c0.167,0.5,0.283,0.883,0.35,1.15c-0.1-1.133,0.333-1.45,1.3-0.95
	c0.615,0.307,1.231,0.791,1.85,1.45l0.5,0.8C25.506,17.008,25.598,17.292,25.725,17.55z M23.15,13.2
	c-0.298-0.199-0.615-0.383-0.95-0.55c-0.14-0.083-0.29-0.149-0.45-0.2C22.187,12.572,22.654,12.822,23.15,13.2z M25.3,16.225
	c0.062-0.554-0.155-1.129-0.65-1.725c0.16,0.138,0.327,0.288,0.5,0.45c0.881,0.849,1.298,1.724,1.25,2.625L26,16.95L25.3,16.225z
	 M45.275,60.825H45.25c-1.309-0.293-2.176-0.651-2.6-1.075c-0.026-0.026-0.251-0.16-0.675-0.4c-0.113-0.058-0.238-0.124-0.375-0.199
	c-0.294-0.185-0.511-0.351-0.65-0.5l0.2,1c0.067,0.866-0.066,1.733-0.4,2.6c-0.367,0.833-1.017,1.517-1.95,2.05l-1.35,0.55
	c-0.467-3.033-0.4-5.399,0.2-7.1c0.533-1.467,1.133-2.533,1.8-3.2c0.333-0.333,0.617-0.533,0.85-0.6
	c0.16,0.013,0.318,0.038,0.475,0.075L40.8,54h0.15h0.1c0.094,0,0.194,0.009,0.3,0.025c0.168,0.042,0.351,0.108,0.55,0.199
	c0.265,0.123,0.557,0.299,0.875,0.525c-0.292-0.167-0.566-0.25-0.825-0.25h-0.3c-0.582,0.059-0.907,0.184-0.975,0.375
	c-0.63,0.239-1.056,0.798-1.275,1.675c-0.167,0.634-0.233,1.55-0.2,2.75c0.633-1.066,1.066-1.684,1.3-1.85
	c0.415-0.352,1.057-0.484,1.925-0.4c-0.008-0.031-0.016-0.064-0.025-0.1c1.05,0.313,2.116,0.746,3.2,1.3
	c0.066,0,0.133-0.05,0.2-0.15c-0.4-0.633-0.85-1.25-1.35-1.85c-0.274-0.331-0.541-0.614-0.8-0.85
	c0.085,0.064,0.168,0.131,0.25,0.199c0.119,0.096,0.261,0.212,0.425,0.351c0.074,0.043,0.149,0.093,0.225,0.149
	c0.2,0.167,0.317,0.351,0.35,0.551c0,0.023,0,0.048,0,0.074c0.293,0.269,0.61,0.561,0.95,0.875c0.867,0.767,1.433,1.65,1.7,2.65
	c0.133,0.5,0.184,0.917,0.15,1.25c-0.839-0.204-1.597-0.42-2.275-0.65H45.35C45.328,60.845,45.303,60.837,45.275,60.825z
	 M50.85,48.75c-0.249,0.075-0.524,0.15-0.824,0.225c-0.166,0.041-0.341,0.083-0.525,0.125l-1.55,0.35c-0.034-0.2,0-0.45,0.1-0.75
	c0.233-0.633,0.7-1.184,1.4-1.65c0.166-0.119,0.324-0.236,0.475-0.35c0.293-0.205,0.561-0.389,0.8-0.55
	c0.43-0.288,0.771-0.505,1.025-0.65c0.37-0.2,0.728-0.358,1.075-0.475c0.229-0.078,0.455-0.136,0.675-0.175V44.8
	c0-0.061,0.05-0.111,0.15-0.15c0.1-0.033,0.267-0.05,0.5-0.05c0.25,0,0.483,0.108,0.699,0.325c0.025,0.021,0.05,0.047,0.075,0.075
	c0.041,0.042,0.083,0.091,0.125,0.15c0.134,0.167,0.283,0.383,0.45,0.65c-0.031,0.046-0.064,0.08-0.1,0.1
	c0.259,0.334,0.492,0.734,0.699,1.2c0.5,1.066,0.567,2.55,0.2,4.45c-0.451-0.079-0.852-0.195-1.2-0.35
	c-0.052-0.026-0.102-0.051-0.149-0.075v-0.05c-0.503-0.44-0.937-0.949-1.3-1.525c-0.101-0.133-0.217-0.45-0.351-0.95
	c-0.1-0.434-0.166-0.65-0.2-0.65L52.85,48l-0.175,0.025L52.1,48.3C51.779,48.451,51.363,48.601,50.85,48.75z M52.5,24.425
	c-0.292,0.146-0.559,0.238-0.8,0.275h-0.3c-0.101-0.467-0.167-1-0.2-1.6c-0.066-1.2,0.05-2.133,0.35-2.8
	c0.254-0.526,0.528-0.976,0.825-1.35c0.128-0.152,0.262-0.293,0.4-0.425L52.75,18.5c0-0.092,0.059-0.175,0.175-0.25
	c0.045-0.036,0.103-0.069,0.175-0.1L53.475,18l0.075-0.025l0.05-0.025l0.025,0.025c0.046-0.011,0.088-0.019,0.125-0.025
	c0.667,0.033,1.4,0.267,2.2,0.7c0.434,0.267,1.2,0.783,2.3,1.55c1.1,0.767,1.6,1.583,1.5,2.45c-1.9-0.367-3.3-0.767-4.2-1.2
	l-1.125-0.575c0.203-0.132,0.479-0.207,0.825-0.225c0.366-0.033,0.9-0.033,1.6,0c-0.199-0.433-0.716-0.883-1.55-1.35l-1.725-1
	c-0.027,0.004-0.052,0.013-0.075,0.025c0.049,0.404,0.099,0.863,0.15,1.375l0.05,0.6c0.019,0.276,0.019,0.51,0,0.7l0.35,0.35
	c0.06-0.154,0.151-0.288,0.275-0.4c0.227,0.581,0.168,1.23-0.175,1.95c0,0.137-0.067,0.287-0.2,0.45
	c-0.006,0.02-0.014,0.036-0.025,0.05c-0.146,0.181-0.371,0.38-0.675,0.6c-0.257,0.171-0.498,0.313-0.725,0.425H52.5z M52.575,10.525
	c-0.009-0.099-0.018-0.199-0.025-0.3L51.875,9.4c0.029,0.118,0.054,0.234,0.075,0.35c-0.569-0.732-1.02-1.391-1.351-1.975
	c-0.091-0.185-0.174-0.36-0.25-0.525l-0.8-1.75c-0.3,1.067-1.1,1.983-2.4,2.75c-0.59,0.331-1.256,0.522-2,0.575
	C44.848,8.837,44.531,8.829,44.2,8.8l-1.5-0.35l1.4-2.2c1.133-1.6,2.2-2.717,3.2-3.35c1.333-0.867,2.517-1.367,3.55-1.5
	c0.263-0.035,0.488-0.043,0.676-0.025C50.838,2.071,50.279,3.146,49.85,4.6c0.634-1.1,1.2-1.333,1.7-0.7c0.167,0.2,0.5,0.934,1,2.2
	c0-1.133-0.017-1.983-0.05-2.55c-0.089-0.828-0.306-1.536-0.65-2.125c0.023,0.006,0.049,0.014,0.075,0.025h0.025
	c0.273,0.205,0.523,0.463,0.75,0.775c0.331,0.449,0.614,1.007,0.85,1.675c0.167,0.567,0.467,1.767,0.9,3.6
	c0.233,1.133,0.166,2.167-0.2,3.1c-0.2,0.5-0.417,0.867-0.65,1.1C53.229,11.292,52.889,10.9,52.575,10.525z M55.95,12.9
	c0.5-2.967,0.434-5.283-0.2-6.95c-0.328-0.883-0.695-1.616-1.1-2.2c0.292,0.146,0.625,0.313,1,0.5c0.933,0.533,1.5,1.117,1.699,1.75
	L58.2,6.5c0.1-0.833-0.483-1.667-1.75-2.5c-0.934-0.63-1.733-0.964-2.4-1c-0.065-0.071-0.132-0.138-0.2-0.2L52.95,2.2L55,2.7
	c1.533,0.466,2.8,1.017,3.8,1.65c0.564,0.376,1.04,0.734,1.425,1.075C60.468,4.978,60.859,4.57,61.4,4.2
	c1.933-1.267,3.35-1.934,4.25-2L66.3,2.55c0.533,0.367,1,0.934,1.4,1.7c0.467,0.933,0.517,2.217,0.149,3.85
	c-1.116-0.181-1.907-0.581-2.375-1.2c0.081-0.785,0.156-1.618,0.226-2.5h-0.2c-0.099,0.604-0.207,1.238-0.325,1.9
	c-0.012-0.017-0.02-0.033-0.024-0.05c-0.112-0.319-0.146-0.636-0.101-0.95l0.15-0.55L63.9,5.3c-0.534,0.233-1.334,0.467-2.4,0.7
	l-0.6,0.125c0.281,0.331,0.447,0.64,0.5,0.925c-1.167,0-1.967-0.033-2.4-0.1L58.35,6.8c-0.133,1.5-0.483,2.833-1.05,4
	c-0.366,0.7-0.7,1.267-1,1.7L55.95,12.9z M71.525,13.8v-0.025c-0.195-0.092-0.379-0.191-0.551-0.3
	c-0.169-0.118-0.327-0.243-0.475-0.375l-0.4-0.275c0.067-0.219,0.101-0.511,0.101-0.875v-1.1c0.514-0.071,1.03-0.038,1.55,0.1
	l0.05-0.3l0.05,0.05l-0.024,0.275c0.652,0.167,1.311,0.508,1.975,1.025c-0.333-0.5-0.85-1.067-1.55-1.7
	c-0.647-0.583-1.264-1.007-1.85-1.275c0.761,0.245,1.544,0.686,2.35,1.325c0.467,0.333,1.4,1.15,2.8,2.45
	c0.834,0.8,1.334,1.617,1.5,2.45c0.066,0.4,0.05,0.733-0.05,1c-2.5-0.9-4.316-1.717-5.45-2.45H71.525z M68.2,36.95
	c-0.01,0.016-0.018,0.032-0.025,0.05l0.3-2.275c0.011,0.016,0.019,0.033,0.025,0.05c0.219,0.612,0.136,1.304-0.25,2.075
	C68.233,36.881,68.217,36.915,68.2,36.95z M72.675,36.125c-1.267-0.288-2.241-0.596-2.925-0.925l-1.225-0.6H68.5l0.05-0.4l-0.1-0.05
	c-0.467-0.033-1,0.05-1.601,0.25l-0.5,3.875h-0.024c-0.234,0.068-0.493,0.127-0.775,0.175c-0.1-0.467-0.166-1-0.2-1.6
	c-0.033-1.2,0.101-2.133,0.4-2.8c0.154-0.32,0.313-0.612,0.475-0.875c0.143-0.005,0.284,0.003,0.426,0.025
	c0.267,0.033,0.683,0.1,1.25,0.2c0.3,0.033,0.866,0.017,1.699-0.05c0.667-0.033,1.217,0,1.65,0.1
	c-0.165-0.248-0.34-0.473-0.525-0.675c0.435,0.292,0.992,0.685,1.676,1.175c0.594,0.401,1.019,0.818,1.274,1.25
	c0.099,0.17,0.173,0.345,0.226,0.525c-0.203,0.176-0.403,0.359-0.601,0.55C73.083,36.223,72.875,36.173,72.675,36.125z M65.05,54.55
	c-0.062-0.068-0.128-0.136-0.2-0.2l0.2-0.35c-0.593,0.655-0.935,1.564-1.024,2.725c-0.06,0.055-0.117,0.112-0.176,0.176
	c-0.466,0.5-0.816,0.866-1.05,1.1c-0.516,0.516-0.841,1.032-0.975,1.55c-0.199,0.082-0.407,0.166-0.625,0.25l-1.45,0.5
	c-0.033-0.3,0-0.666,0.1-1.1c0.2-0.9,0.617-1.7,1.25-2.4c0.967-1.1,1.667-1.85,2.101-2.25c0.053-0.046,0.103-0.087,0.149-0.125
	L63.15,55.75c0.133-0.066,0.35-0.25,0.649-0.55c0.338-0.364,0.604-0.881,0.8-1.55c0.208-0.079,0.408-0.129,0.601-0.15l0.05,0.025
	C65.201,53.883,65.135,54.225,65.05,54.55z M66.7,3.5c-0.356-0.453-0.789-0.72-1.3-0.8H65.35l-0.3,0.15
	c0,0.633-0.033,1.117-0.1,1.45c0.119-0.105,0.235-0.188,0.35-0.25C65.99,3.655,66.607,3.972,67.15,5
	C67.217,4.467,67.066,3.967,66.7,3.5z M69.975,12.75L69.9,12.7c0.267,0.9,0,1.833-0.801,2.8c-0.533,0.6-1.366,1.017-2.5,1.25
	l-1.6,0.2c0-0.633,0.05-1.333,0.15-2.1c0.061-0.411,0.136-0.794,0.225-1.15H65.4c0.025-0.153,0.05-0.295,0.074-0.425
	c0.079-0.258,0.162-0.5,0.25-0.725c0.079-0.175,0.171-0.308,0.275-0.4c0.366-0.367,0.75-0.75,1.15-1.15
	c0.316-0.172,0.941-0.231,1.875-0.175c0.159,0.178,0.334,0.47,0.524,0.875C69.665,11.987,69.807,12.337,69.975,12.75z M66.15,11.65
	c0.033-0.051,0.066-0.101,0.1-0.15c0.03-0.007,0.063-0.016,0.1-0.025C66.254,11.554,66.188,11.613,66.15,11.65z M54.85,45.325
	c0.059,0.048,0.117,0.098,0.176,0.15c-0.047-0.074-0.105-0.149-0.176-0.225V45.325z M52.4,47.775
	c0.007-0.023,0.015-0.048,0.024-0.075c-0.098,0.081-0.206,0.164-0.325,0.25C52.205,47.892,52.305,47.833,52.4,47.775z
	 M34.375,30.675c0.022,0.008,0.048,0.016,0.075,0.025h-0.1v-0.025H34.375z"/>
<path style="fill-rule:evenodd;clip-rule:evenodd;fill:#635024;" d="M73.9,35.725c-0.053-0.18-0.127-0.355-0.226-0.525l1.675-1.55
	c2.367-2.2,6.034-4.75,11-7.65c1.202-0.689,2.344-1.331,3.426-1.925c-0.156,0.17-0.331,0.37-0.525,0.6
	c-0.832,0.528-1.698,1.087-2.6,1.675c-1.729,1.141-3.313,2.224-4.75,3.25l-0.351,0.2c-2.333,1.3-4.017,2.417-5.05,3.35
	c-0.3,0.233-0.684,0.617-1.15,1.15c-0.5,0.534-0.883,0.917-1.149,1.15C74.096,35.538,73.996,35.63,73.9,35.725z M43.475,63.275
	c-0.335-1.204-0.619-2.204-0.85-3L42.65,60.3c0.3,0.3,0.75,0.667,1.35,1.101c0.5,0.466,0.833,1,1,1.6c0.133,0.6,0.333,1.75,0.6,3.45
	c0.233,1.5,0.483,2.649,0.75,3.45c0.433,1.267,0.667,2.767,0.7,4.5c0,1.033,0,1.633,0,1.8c0.067,0.767,0.267,1.2,0.6,1.3l0.05-0.25
	c0.167,0.4,0.333,1.033,0.5,1.9c0.167,0.966,0.316,1.649,0.45,2.05c0.667,1.967,1.017,3.434,1.05,4.399L49.35,84.95
	c-0.166,0.5-0.166,1.399,0,2.7c0.301,1.933,0.45,2.933,0.45,3c0.134,1.433,0.601,2.699,1.4,3.8L50.35,84
	c0.034,0.233,0.217,1.866,0.551,4.9c0.267,2.5,0.466,4.05,0.6,4.649c0.002-0.033,0.002-0.066,0-0.1l0.2-2.25
	c0.066-4.5,0.133-7.084,0.2-7.75l-0.101,3.3c0.467-1.033,0.7-3.066,0.7-6.1c0-1.967-0.017-3.067-0.05-3.301L52.2,75.95
	c0.051,1.874,0.009,3.766-0.125,5.675c0.023-0.563,0.049-1.237,0.075-2.025c0.03-0.987,0.047-1.812,0.05-2.475
	c0.002-0.776-0.015-1.335-0.05-1.675V75.4c0-0.134,0.066-0.367,0.199-0.7c0.067,0,0.117,0.033,0.15,0.1c0.4-1.399,0.533-3.3,0.4-5.7
	c-0.233-2.633-0.351-4.55-0.351-5.75v-2.1c0.024-1.049,0.024-1.949,0-2.7c0.066-1.066,0.117-1.916,0.15-2.55
	c0.066-1.167-0.017-1.967-0.25-2.4l-0.05,0.25c0,0.246,0,0.496,0,0.75c-0.036-1.457-0.028-2.641,0.024-3.55
	C52.842,51.23,53.05,51.88,53.05,53l0.45-0.8c0.134,2.899,0.184,6.467,0.15,10.7c0,2.399-0.017,5.983-0.051,10.75
	c0,2.233-0.166,5.533-0.5,9.899c-0.366,4.367-0.55,7.684-0.55,9.95c0,0.3,0,0.884,0,1.75c0,0.2-0.05,0.7-0.149,1.5
	c-0.101,0.6-0.101,1.066,0,1.4L52.8,97.9c0.3,0.6,0.334,1.25,0.101,1.949c-0.14,0.459-0.349,0.642-0.625,0.551
	c0.216-0.318,0.324-0.669,0.324-1.051c-0.033-0.533-0.3-0.899-0.8-1.1c-0.044,0.053-0.102,0.136-0.175,0.25
	c-0.022-0.351-0.063-0.717-0.125-1.1c-0.167-0.967-0.283-1.717-0.35-2.25c0,0.6-0.15,1-0.45,1.199L50.65,96.4l-0.15,0.1l-0.35-0.7
	L50.6,97.9v0.05V98l0.25,1.5l-0.125-0.125l-0.074-0.45L49.6,93.3c-0.333-1.2-0.566-3.2-0.7-6l-0.425-2.25l-0.925-4.875l0.1,0.476
	c-0.233-1.867-0.517-3.45-0.85-4.75c-0.2-1.101-0.35-1.917-0.45-2.45c-0.233-0.967-0.5-1.75-0.8-2.351l-0.175-0.3
	c-0.127-0.703-0.51-2.295-1.15-4.774L44.4,66.65C44.233,64.417,44.1,63,44,62.4l0.05,2.05c-0.1-0.467-0.183-0.816-0.25-1.05
	c-0.133-0.4-0.283-0.7-0.45-0.9l-0.05,0.1L43.475,63.275z M25.1,43.325c0.233,0.104,0.458,0.204,0.675,0.3l0.05,0.025
	c-0.354,0.126-0.729,0.31-1.125,0.55c-0.12,0.069-0.27,0.161-0.45,0.275c-0.07,0.025-0.136,0.05-0.2,0.075
	c-0.129-0.028-0.246-0.062-0.35-0.1c-1.067-0.333-2.034-0.867-2.9-1.6l0.1,0.45c-0.367-0.333-1.066-0.767-2.1-1.3l-0.2-0.2
	c-0.978-0.56-1.944-1.144-2.9-1.75c-0.6-0.466-1.034-0.767-1.3-0.9c-1.066-0.7-1.667-1.117-1.8-1.25c-0.567-0.467-0.9-0.967-1-1.5
	c0.4,0.1,0.75,0.3,1.05,0.6c0.167,0.167,0.417,0.45,0.75,0.85c0.333,0.333,0.75,0.6,1.25,0.8c0.667,0.3,1.133,0.533,1.4,0.7
	c0.767,0.467,1.917,1.217,3.45,2.25c1.367,0.9,2.583,1.55,3.65,1.95l-1.6-1.2c0.367,0.066,0.967,0.233,1.8,0.5
	c0.657,0.219,1.215,0.36,1.675,0.425C25.046,43.296,25.071,43.313,25.1,43.325z M12.675,36.775
	c-0.419-0.256-0.794-0.498-1.125-0.725l-0.025-0.025C11.899,36.272,12.282,36.522,12.675,36.775z M35.05,47.8l-0.75-0.4l-0.1,0.1
	c-0.633,0.333-0.35,0.75,0.85,1.25c1.467,0.633,2.25,1.05,2.35,1.25H38c-0.067-0.4-0.167-0.667-0.3-0.8
	c0.233,0.133,0.617,0.283,1.15,0.45c0.193-0.225,0.218-0.467,0.075-0.725c0.194,0.041,0.402,0.082,0.625,0.125
	c-0.086-0.26-0.195-0.568-0.325-0.925l0.125,0.325l0.2-0.25c0.267-0.367,0.25-0.967-0.05-1.8c-0.3-0.8-0.667-1.2-1.1-1.2l-0.05,0.6
	c-0.146-0.346-0.295-0.713-0.45-1.1c-0.071-0.178-0.137-0.354-0.2-0.525c-0.107-0.835-0.274-1.56-0.5-2.175
	c-0.133-0.333-0.35-0.8-0.65-1.4l-0.8-1.35c-0.245-0.654-0.454-1.213-0.625-1.675L35.5,37.35c0.367,0.033,0.65,0.167,0.85,0.4
	c0.133,0.167,0.316,0.517,0.55,1.05c0.3,0.667,0.617,1.6,0.95,2.8c0.367,1.367,0.633,2.283,0.8,2.75
	c0.133,0.333,0.333,0.65,0.6,0.95c0.133,0.167,0.367,0.417,0.7,0.75c0.333,0.4,0.733,1.284,1.2,2.65c0.067,0.2,0.267,0.85,0.6,1.95
	c0.2,0.833,0.433,1.45,0.7,1.85l-0.2-0.05c-0.1-0.267-0.317-0.65-0.65-1.15c-0.333-0.5-0.55-0.883-0.65-1.15
	c-0.034,0.067-0.417,0.067-1.15,0c-0.6-0.033-0.883,0.25-0.85,0.85c-0.333-0.1-1.133-0.533-2.4-1.3
	c-1.066-0.667-1.867-0.95-2.4-0.85c-0.8-0.4-1.316-0.733-1.55-1c-0.422-0.39-0.372-0.765,0.15-1.125
	c0.032-0.007,0.065-0.015,0.1-0.025C33.744,47.09,34.478,47.457,35.05,47.8z M32.725,29.275l-0.05,0.025
	c-0.196,0.101-0.354,0.284-0.475,0.55l-0.35,0.2c-1.371-2.787-2.171-4.554-2.4-5.3c0.167,0.467,0.8,1.883,1.9,4.25
	c0.033-0.533-0.083-1.183-0.35-1.95c-0.4-0.867-0.683-1.5-0.85-1.9l-1.1-2.3c-0.566-0.733-0.917-1.2-1.05-1.4
	c0-0.034-0.017-0.05-0.05-0.05c-0.033-0.066-0.066-0.132-0.1-0.2c-0.722-1.361-1.255-2.319-1.6-2.875
	c0.288,0.261,0.671,0.886,1.15,1.875c0.633,0.867,1,1.4,1.1,1.6l0.55,1.05c0.5,0.767,0.817,1.367,0.95,1.8l0.15,0.5
	c0.434,0.8,1,1.667,1.7,2.6C32.014,27.961,32.306,28.47,32.725,29.275z M25.475,17.475c0.082,0.027,0.166,0.052,0.25,0.075
	c0.023,0.052,0.048,0.103,0.075,0.15l0.175,0.275L25.75,17.7l0.05,0.1L25.475,17.475z M39.05,41l1.8,4.35l-4.2-9.15
	c-0.09-0.22-0.173-0.429-0.25-0.625l0.15-0.2c0.217,0.488,0.45,1.013,0.7,1.575C37.942,38.473,38.542,39.823,39.05,41z
	 M45.725,62.55l-0.475-1.725h0.025C45.423,61.374,45.574,61.948,45.725,62.55z M52.825,45.025c-0.071-1.452-0.112-2.619-0.125-3.5
	c0-0.167,0-0.325,0-0.475c0-1.878,0.017-3.562,0.05-5.05l0.15,1.35c0.199-0.1,0.449-0.5,0.75-1.2c0.133,1.133,0.267,2.967,0.399,5.5
	c0,0.2-0.1,0.95-0.3,2.25c-0.053,0.281-0.086,0.531-0.1,0.75c-0.101,0.039-0.15,0.089-0.15,0.15v0.05
	C53.28,44.889,53.055,44.947,52.825,45.025z M53.95,23.35c0.129,1.45,0.179,2.35,0.149,2.7l-0.175-2.65
	C53.937,23.386,53.944,23.37,53.95,23.35z M52.5,24.425h0.025l0.024,0.825c0.601-0.367,0.967-0.55,1.101-0.55
	c0.033,0.9,0.017,2.183-0.051,3.85c-0.033,1.467,0.067,2.733,0.301,3.8c-0.601,0.4-0.95,1.033-1.051,1.9l-0.074,1.225
	c0.041-1.297,0.1-2.438,0.175-3.425l0.3,0.15c0.2-0.667,0.233-1.6,0.1-2.8c-0.199-1.333-0.316-2.283-0.35-2.85l-0.35-0.2
	c0.051,0.534,0.108,1.276,0.175,2.225c-0.023-0.266-0.049-0.541-0.075-0.825c-0.084-0.976-0.15-1.809-0.2-2.5
	C52.531,24.952,52.515,24.677,52.5,24.425z M52.9,18.075c-0.187,0.03-0.37,0.063-0.551,0.1c-0.015-0.398-0.031-0.824-0.05-1.275
	c-0.012-0.308-0.02-0.6-0.024-0.875L52.3,16.25c0,0.033,0.101,0.083,0.3,0.15c0.134,0.1,0.217,0.2,0.25,0.3
	C52.948,16.963,52.965,17.421,52.9,18.075z M70.275,23.55c-0.424,1.918-0.849,3.469-1.275,4.65c-0.434,1.733-0.533,2.783-0.3,3.15
	c0.033,0.133,0.116,0.233,0.25,0.3l0.075-0.4c-0.025,0.152-0.05,0.327-0.075,0.525c-0.288-0.058-0.588-0.083-0.9-0.075
	c-0.051,0-0.101,0-0.149,0c-0.18,0.005-0.354,0.021-0.525,0.05c0.056-0.241,0.114-0.491,0.175-0.75
	c0.251-1.02,0.476-1.87,0.675-2.55c-0.149,0.55-0.308,1.183-0.475,1.9c0.667-1,1.167-2.067,1.5-3.2c0.366-1.3,0.417-2.383,0.15-3.25
	L69.325,24c0.039-0.207,0.073-0.407,0.1-0.6c0.286-0.877,0.444-1.377,0.476-1.5c0.16-0.672,0.168-1.239,0.024-1.7l0.45-2.325
	c0.217,0.501,0.325,1.192,0.325,2.075c-0.047,0.381-0.097,0.798-0.15,1.25C70.442,22.108,70.351,22.892,70.275,23.55z M64.85,50.7
	c-0.199,0.133-0.35,0.267-0.449,0.4c0-0.7,0.35-1.767,1.05-3.2c0.7-1.4,1-2.566,0.899-3.5L65.4,45.35l-0.051-1.3
	c-0.166,0.833-0.483,2.9-0.949,6.2c0.1-0.833,0.267-2.067,0.5-3.7c0.333-2.1,0.583-3.383,0.75-3.85
	c0.115-0.405,0.282-1.389,0.5-2.95c0.466-0.233,0.767-0.517,0.899-0.85c0,0.367-0.116,0.817-0.35,1.35c-0.2,0.5-0.3,0.883-0.3,1.15
	c0.433-0.3,0.883-0.717,1.35-1.25L68.175,37c0.008-0.018,0.016-0.034,0.025-0.05c-0.109,0.793-0.227,1.66-0.351,2.6L67.7,40.7
	l4.975-4.575c0.2,0.048,0.408,0.098,0.625,0.15c-0.528,0.492-1.028,1.018-1.5,1.575l-2.25,2.85c-0.333,0.433-0.684,0.733-1.05,0.9
	c-0.5,0.167-0.934,0.3-1.3,0.4c-0.233,0.433-0.384,1.2-0.45,2.3c-0.066,1.1-0.2,1.883-0.4,2.35c-0.199,0.467-0.517,1.167-0.949,2.1
	C65.11,49.444,64.928,50.094,64.85,50.7z M65.25,53.525L65.2,53.5c-0.192,0.021-0.393,0.071-0.601,0.15
	c0.057-0.188,0.106-0.388,0.15-0.601c0.15-0.751,0.192-1.46,0.125-2.125L65.35,50.3C65.423,51.495,65.389,52.57,65.25,53.525z
	 M53.8,95c0.049,0.271,0.1,0.521,0.15,0.75c0.366-0.134,0.666-0.35,0.899-0.65c0.134-0.166,0.284-0.616,0.45-1.35
	c0.048-0.21,0.09-0.402,0.125-0.575L56.65,90.6c0.233-0.533,0.433-1.35,0.6-2.449c0.233-1.167,0.417-1.983,0.55-2.45
	c0.167-0.467,0.5-1.25,1-2.351c0.434-1,0.733-1.783,0.9-2.35c0.866-3.4,1.184-6.384,0.95-8.95c0.233-0.6,0.449-1.467,0.649-2.6
	c0.233-1.233,0.434-2.101,0.601-2.601c0.333-0.767,0.566-1.35,0.699-1.75c0.267-0.699,0.351-1.333,0.25-1.899
	c-0.327-0.033-0.702,0.158-1.125,0.575c0.04-0.171,0.081-0.346,0.125-0.525c0.08-0.317,0.213-1.018,0.4-2.1l0.75-0.9
	c0.5,1.3,0.517,3.017,0.05,5.15C62.816,66.6,62.434,68.3,61.9,70.5l-0.851,5.3c-0.066,0.7-0.366,2.217-0.899,4.55
	c-0.367,1.767-0.567,3.217-0.601,4.351v-1.8C59.15,83.667,58.9,84.634,58.8,85.8c-0.166,1.566-0.3,2.533-0.399,2.9
	c-0.167,0.7-0.367,1.733-0.601,3.1c-0.066,0.4-0.366,1.184-0.899,2.351c-0.4,0.866-0.617,1.566-0.65,2.1
	c0-0.667-0.05-1.167-0.15-1.5c0,0.5-0.216,1.017-0.649,1.55c-0.467,0.601-0.934,0.884-1.4,0.851c-0.133-0.301-0.2-0.9-0.2-1.801
	L53.8,95z M85.15,26.75c-1.467,0.833-2.884,1.717-4.25,2.65l1.5-0.7C82.667,28.533,83.583,27.883,85.15,26.75z M64.85,7.925
	L65.15,6.25c0.005,0.017,0.013,0.033,0.024,0.05C65.071,6.824,64.963,7.365,64.85,7.925z M63.1,15.4
	c0.467,0.233,0.617,0.983,0.45,2.25c-0.072,0.436-0.155,0.835-0.25,1.2c-0.131,0.49-0.28,0.923-0.45,1.3
	c-0.933,1.934-1.416,2.967-1.449,3.1c-0.134,0.467-0.334,1.217-0.601,2.25l0.55-1.05c-0.458,0.986-0.983,2.003-1.574,3.05
	c0.178-0.337,0.353-0.67,0.524-1l-0.25-0.65c-0.366,0.167-0.7,0.533-1,1.1c-0.333,0.7-0.583,1.183-0.75,1.45
	c0.521-1.022,1.104-2.389,1.75-4.1c0.267-0.5,0.65-1.183,1.15-2.05c0.366-0.733,0.633-1.433,0.8-2.1c0.333-0.9,0.6-1.617,0.8-2.15
	c0.334-0.967,0.45-1.683,0.351-2.15l-0.2,0.05C63.001,15.734,63.051,15.568,63.1,15.4z M64.2,15.525
	c-0.185,0.846-0.385,1.663-0.601,2.45c0.198-0.795,0.39-1.62,0.575-2.475L64.2,15.525z M56.25,31.05l-0.1,0.1
	c-0.301,0.3-0.601,0.5-0.9,0.6c-0.566,0.2-0.934,0.333-1.1,0.4l0.3-0.9c-0.018-0.19-0.034-0.373-0.05-0.55
	c0.033,0.301,0.066,0.618,0.1,0.95c0.139-0.09,0.28-0.19,0.425-0.3C55.381,31.38,55.822,31.28,56.25,31.05z M53.4,16.95
	c0.023,0.275,0.058,0.617,0.1,1.025h-0.025C53.439,17.568,53.415,17.226,53.4,16.95z M52.75,38.55l-0.05,2.5
	c0,0.067,0.05,1.35,0.149,3.85c0.233-0.3,0.4-0.867,0.5-1.7c0.134-1.167,0.134-2.9,0-5.2L52.75,38.55z M68.5,34.6h0.025
	c-0.01,0.061-0.018,0.119-0.025,0.175c-0.007-0.017-0.015-0.034-0.025-0.05L68.5,34.6z M66.325,38.275h0.024l-0.074,0.6
	C66.292,38.668,66.309,38.468,66.325,38.275z M41.9,54.225c-0.199-0.091-0.382-0.157-0.55-0.199c-0.158-0.554-0.258-0.979-0.3-1.275
	l0.35,0.05l0.4,1C41.833,53.908,41.866,54.05,41.9,54.225z"/>
<path style="fill-rule:evenodd;clip-rule:evenodd;fill:#3F601B;" d="M95.3,34.8c0.434-3.533,0.384-6.3-0.149-8.3
	c-0.167-0.6-0.351-1.133-0.551-1.6c0.101,0.5,0.117,0.934,0.051,1.3c-0.034-0.067-0.167-0.45-0.4-1.15
	c-0.233-0.533-0.434-0.85-0.6-0.95c-0.467-0.233-0.851,0.05-1.15,0.85c-0.134,0.4-0.316,0.983-0.55,1.75
	c-0.2-2.467-0.084-3.967,0.35-4.5c0.233-0.3,0.601-0.25,1.101,0.15l1.1,0.35c1.3,0.533,2.366,1.183,3.2,1.95
	c1.333,1.233,2.066,2.3,2.2,3.2c-1,0-1.667-0.05-2-0.15L97.3,27.5l-0.149,1.6c-0.2,1.267-0.45,2.316-0.75,3.15
	C95.934,33.583,95.566,34.433,95.3,34.8z M67.3,63.35c0.367-2.733,0.316-4.883-0.149-6.449C66.783,55.6,66.35,54.634,65.85,54
	l-0.324-0.25l0.024-0.15l1.05,0.351c1.101,0.434,2,0.934,2.7,1.5c1.101,0.967,1.7,1.8,1.8,2.5c-0.8,0-1.35-0.033-1.649-0.101
	L69,57.7l-0.15,1.25c-0.166,0.967-0.383,1.767-0.649,2.399C67.8,62.417,67.5,63.083,67.3,63.35z M9.375,35.325L6.95,33.55
	c0.581,0.048,1.031,0.14,1.35,0.275c0.026,0.252-0.008,0.394-0.1,0.425c0,0.033,0.216,0.233,0.65,0.6l0.5,0.4
	C9.357,35.271,9.366,35.296,9.375,35.325z M9.475,35.65c0.091,0.402,0.216,0.952,0.375,1.65c-0.533-0.8-1.2-1.417-2-1.85
	c-0.667-0.333-1.1-0.383-1.3-0.15c-0.1,0.133-0.233,0.583-0.4,1.35c-0.133-0.333-0.183-0.833-0.15-1.5
	c0.026-0.566,0.034-1.016,0.025-1.35c-0.502,0.368-1.027,0.868-1.575,1.5c-0.633,0.733-1.25,1.867-1.85,3.4
	c-0.267,0.767-0.483,1.466-0.65,2.1c-0.1-0.3-0.167-0.966-0.2-2C1.717,38.133,1.8,37.35,2,36.45l0.3-1.15l-0.55-0.05L0,34.75
	l0.55-0.5c0.567-0.4,1.3-0.733,2.2-1c1.495-0.432,3.136-0.499,4.925-0.2c-0.195-0.027-0.47,0.057-0.825,0.25
	c-0.133,0.061-0.267,0.136-0.4,0.225c0.166,0.006,0.324,0.015,0.475,0.025l2.275,1.9C9.289,35.52,9.38,35.586,9.475,35.65z
	 M32.85,46.7c-0.035,0.01-0.068,0.018-0.1,0.025c-0.057,0.017-0.124,0.025-0.2,0.025l-0.2-0.05l-0.85-0.1
	c-0.124,0-0.424,0.433-0.9,1.3c-0.029,0.063-0.062,0.129-0.1,0.2h-0.05c-0.127,0.34-0.277,0.657-0.45,0.95l-0.95,1.4
	c0.201-1.056,0.275-1.989,0.225-2.8l0.025-0.2c0-0.663-0.183-1.322-0.55-1.975c-0.159-0.29-0.359-0.582-0.6-0.875
	c-0.224-0.303-0.457-0.553-0.7-0.75l-0.65-0.4l1.5,0.35c1.133,0.3,2.067,0.65,2.8,1.05c1.039,0.606,1.664,1.139,1.875,1.6H33
	l0.05,0.1l-0.025,0.025c0.012,0.024,0.02,0.049,0.025,0.075c-0.036,0-0.069,0-0.1,0C32.917,46.67,32.884,46.687,32.85,46.7z
	 M36.55,35.375l-0.15,0.2V35.55c-0.02,0.017-0.037,0.034-0.05,0.05c-0.5,0.566-0.85,0.85-1.05,0.85c-0.167,0-0.333-0.067-0.5-0.2
	c-0.102-0.077-0.169-0.144-0.2-0.2c0.167-0.011,0.25-0.078,0.25-0.2l-0.05-0.1c0.087-0.073,0.204-0.157,0.35-0.25
	c0.2-0.133,0.417-0.267,0.65-0.4c0.066-0.155,0.125-0.297,0.175-0.425c-0.008-0.015-0.016-0.032-0.025-0.05
	c0.018-0.18,0.026-0.355,0.025-0.525c-0.019-0.803-0.161-1.486-0.425-2.05c-0.186-0.418-0.394-0.785-0.625-1.1H34.1
	c-0.095,0.118-0.211,0.193-0.35,0.225c-0.065,0.017-0.132,0.025-0.2,0.025c-0.076,0.09-0.16,0.19-0.25,0.3
	c-0.2,0.25-0.367,0.45-0.5,0.6c-0.117,0.15-0.2,0.25-0.25,0.3c-0.3,0.3-0.633,0.5-1,0.6c0.367-0.567,0.633-1,0.8-1.3
	c0.06-0.096,0.11-0.188,0.15-0.275c0.209-0.434,0.259-0.842,0.15-1.225c-0.247-0.057-0.497-0.065-0.75-0.025
	c-0.138,0.025-0.28,0.067-0.425,0.125c-0.041,0.014-0.083,0.031-0.125,0.05l0.5-0.3l0.35-0.2c0.121-0.266,0.279-0.449,0.475-0.55
	l0.05-0.025c0.047-0.027,0.105-0.052,0.175-0.075c0.265,0.014,0.498,0.039,0.7,0.075c0.292,0.039,0.525,0.097,0.7,0.175
	c0.167,0.066,0.35,0.216,0.55,0.45v0.075L34.95,30c1.2,0.3,2.183,0.65,2.95,1.05c1.233,0.667,1.9,1.25,2,1.75
	c-0.9,0-1.517-0.033-1.85-0.1l-0.5-0.1c-0.073,0.705-0.239,1.346-0.5,1.925v0.025c0,0.106-0.142,0.348-0.425,0.725L36.55,35.375z
	 M23.15,13.2c0.418,0.271,0.801,0.57,1.15,0.9c0.133,0.133,0.25,0.266,0.35,0.4c0.495,0.596,0.711,1.171,0.65,1.725l-0.45-0.475
	l0.1,0.15c-0.619-0.659-1.235-1.143-1.85-1.45c-0.967-0.5-1.4-0.184-1.3,0.95c-0.066-0.267-0.183-0.65-0.35-1.15
	c-0.267-0.733-0.5-1.15-0.7-1.25c-0.083-0.042-0.166-0.066-0.25-0.075c-0.405,0.492-0.772,1.201-1.1,2.125
	c-0.4,1.233-0.45,2.934-0.15,5.1c-0.167-0.233-0.45-0.767-0.85-1.6c-0.233-0.5-0.417-1.133-0.55-1.9l-0.15-1l-0.45,0.1l-1.55,0.1
	l0.25-0.55c0.333-0.466,0.816-0.933,1.45-1.4c0.519-0.373,1.085-0.689,1.7-0.95c0.161-0.349,0.528-0.565,1.1-0.65
	c0.577-0.075,1.094-0.025,1.55,0.15c0.16,0.051,0.31,0.117,0.45,0.2C22.535,12.817,22.852,13.001,23.15,13.2z M54.425,20.875
	c-0.037,0.026-0.07,0.051-0.1,0.075c-0.124,0.112-0.216,0.246-0.275,0.4L53.7,21c0.019-0.19,0.019-0.424,0-0.7l-0.05-0.6
	c-0.052-0.512-0.102-0.971-0.15-1.375c0.023-0.013,0.048-0.021,0.075-0.025l1.725,1c0.834,0.467,1.351,0.917,1.55,1.35
	c-0.699-0.033-1.233-0.033-1.6,0C54.903,20.668,54.628,20.743,54.425,20.875z M52.925,18.25c-0.116,0.075-0.175,0.158-0.175,0.25
	l0.025,0.025c-0.139,0.132-0.272,0.273-0.4,0.425c-0.297,0.374-0.571,0.824-0.825,1.35c-0.3,0.667-0.416,1.6-0.35,2.8
	c0.033,0.6,0.1,1.133,0.2,1.6c-0.233-0.167-0.567-0.617-1-1.35c-0.301-0.467-0.534-1.033-0.7-1.7l-0.15-0.85l-0.5,0.1L47.2,21
	l0.35-0.45c0.367-0.4,0.917-0.816,1.65-1.25c0.898-0.485,1.948-0.86,3.149-1.125c0.181-0.037,0.364-0.07,0.551-0.1V18.1
	C52.907,18.141,52.915,18.191,52.925,18.25z M45.15,8.825c0.744-0.053,1.41-0.245,2-0.575c1.3-0.767,2.1-1.683,2.4-2.75l0.8,1.75
	c0.076,0.165,0.159,0.34,0.25,0.525L50.55,7.8c-0.733,0.434-1.867,0.867-3.4,1.3L45.1,9.65C45.076,9.414,45.093,9.139,45.15,8.825z
	 M42.7,8.45c-0.067-0.367,0.033-1.167,0.3-2.4c0.133-0.8,0.45-1.683,0.95-2.65l0.7-1.2L44,1.95L42,0.8l0.8-0.4
	c0.8-0.267,1.8-0.4,3-0.4c1.853,0.031,3.786,0.473,5.8,1.325L51.7,1.2c0.049,0.071,0.099,0.146,0.149,0.225
	c0.345,0.589,0.562,1.297,0.65,2.125c0.033,0.567,0.05,1.417,0.05,2.55c-0.5-1.267-0.833-2-1-2.2c-0.5-0.633-1.066-0.4-1.7,0.7
	c0.43-1.454,0.988-2.529,1.676-3.225c-0.188-0.019-0.413-0.01-0.676,0.025c-1.033,0.133-2.216,0.633-3.55,1.5
	c-1,0.633-2.066,1.75-3.2,3.35L42.7,8.45z M52.95,2.2l0.899,0.6c0.068,0.062,0.135,0.129,0.2,0.2c0.667,0.036,1.467,0.37,2.4,1
	c1.267,0.833,1.85,1.667,1.75,2.5L57.35,6c-0.199-0.633-0.767-1.217-1.699-1.75c-0.375-0.187-0.708-0.354-1-0.5
	c0.404,0.584,0.771,1.317,1.1,2.2c0.634,1.667,0.7,3.983,0.2,6.95c-0.434-0.1-0.9-0.267-1.4-0.5
	c-0.93-0.496-1.588-1.121-1.975-1.875c0.313,0.375,0.654,0.767,1.024,1.175c0.233-0.233,0.45-0.6,0.65-1.1
	c0.366-0.934,0.434-1.967,0.2-3.1c-0.434-1.833-0.733-3.033-0.9-3.6c-0.235-0.667-0.519-1.226-0.85-1.675
	C52.785,2.214,52.869,2.206,52.95,2.2z M67.85,8.1c0.367-1.633,0.317-2.917-0.149-3.85c-0.4-0.767-0.867-1.333-1.4-1.7L65.65,2.2
	l1.5,0.3c1.133,0.233,2.05,0.533,2.75,0.9c1.166,0.567,1.8,1.067,1.899,1.5c-0.833,0-1.416-0.033-1.75-0.1L69.6,4.75
	c-0.1,0.833-0.366,1.567-0.8,2.2c-0.233,0.4-0.467,0.716-0.7,0.95L67.85,8.1z M64.2,15.525L64.175,15.5
	c0.268-1.212,0.51-2.479,0.726-3.8h0.05c0.133-0.494,0.2-0.877,0.2-1.15c0-0.207,0.017-0.391,0.05-0.55h-0.05
	c0.034-0.276,0.067-0.56,0.1-0.85c0.779-0.132,1.612-0.215,2.5-0.25c0.918-0.296,1.784-0.262,2.6,0.1
	c0.018,0.008,0.034,0.016,0.051,0.025c0.586,0.268,1.202,0.692,1.85,1.275c0.7,0.633,1.217,1.2,1.55,1.7
	c-0.664-0.517-1.322-0.858-1.975-1.025L71.85,10.7l-0.05-0.05l-0.05,0.3c-0.52-0.138-1.036-0.171-1.55-0.1v1.1
	c0,0.364-0.033,0.656-0.101,0.875c-0.017,0.046-0.033,0.087-0.05,0.125c-0.027-0.07-0.053-0.137-0.075-0.2
	c-0.168-0.413-0.31-0.763-0.425-1.05c-0.19-0.405-0.365-0.697-0.524-0.875c-0.934-0.056-1.559,0.002-1.875,0.175
	c-0.4,0.4-0.784,0.783-1.15,1.15c-0.104,0.092-0.196,0.225-0.275,0.4c-0.088,0.226-0.171,0.467-0.25,0.725
	c-0.024,0.13-0.049,0.272-0.074,0.425h-0.025c-0.089,0.356-0.164,0.739-0.225,1.15C65.05,15.617,65,16.317,65,16.95
	C64.784,16.708,64.518,16.232,64.2,15.525z M65.55,38.45c-0.2-0.167-0.533-0.617-1-1.35c-0.267-0.467-0.483-1.033-0.649-1.7
	l-0.15-0.85l-0.5,0.1l-1.85,0.1l0.3-0.45c0.366-0.4,0.934-0.816,1.7-1.25c0.934-0.504,2.024-0.888,3.274-1.15
	c0.217-0.069,0.45-0.119,0.7-0.15c0.171-0.028,0.346-0.045,0.525-0.05c0.049,0,0.099,0,0.149,0c0.313-0.008,0.612,0.017,0.9,0.075
	c0.672,0.145,1.264,0.478,1.774,1c0.186,0.202,0.36,0.427,0.525,0.675c-0.434-0.1-0.983-0.133-1.65-0.1
	c-0.833,0.066-1.399,0.083-1.699,0.05c-0.567-0.1-0.983-0.167-1.25-0.2c-0.142-0.022-0.283-0.03-0.426-0.025
	c-0.162,0.263-0.32,0.555-0.475,0.875c-0.3,0.667-0.434,1.6-0.4,2.8C65.384,37.45,65.45,37.983,65.55,38.45z M64.025,56.725
	c0.09-1.16,0.432-2.069,1.024-2.725l-0.2,0.35c0.072,0.064,0.139,0.132,0.2,0.2c-0.091,0.392-0.208,0.758-0.35,1.101
	c-0.105,0.252-0.255,0.519-0.45,0.8c-0.048,0.041-0.09,0.091-0.125,0.149C64.096,56.638,64.063,56.68,64.025,56.725z M66.7,3.5
	c0.366,0.467,0.517,0.967,0.45,1.5c-0.543-1.028-1.16-1.345-1.851-0.95c-0.114,0.062-0.23,0.145-0.35,0.25
	c0.066-0.333,0.1-0.816,0.1-1.45l0.3-0.15H65.4C65.911,2.78,66.344,3.047,66.7,3.5z M63.6,13.55c-0.044-0.267-0.077-0.55-0.1-0.85
	l-0.05-1.1h-0.7l-2.55-0.35l0.55-0.55c0.6-0.4,1.483-0.784,2.65-1.15c0.382-0.111,0.782-0.211,1.199-0.3
	c-0.041,0.19-0.083,0.381-0.125,0.575L64.5,10c0,0.233-0.134,1-0.4,2.3L64,12.35l-0.15,0.75h-0.125
	C63.682,13.242,63.64,13.392,63.6,13.55z M66.15,11.65c0.037-0.037,0.104-0.096,0.199-0.175c-0.036,0.009-0.069,0.018-0.1,0.025
	C66.217,11.549,66.184,11.599,66.15,11.65z M53.475,17.975H53.5h0.05L53.475,18V17.975z M56.3,51.55c0.367-1.9,0.3-3.383-0.2-4.45
	c-0.207-0.466-0.44-0.866-0.699-1.2c0.035-0.02,0.068-0.054,0.1-0.1c-0.167-0.267-0.316-0.483-0.45-0.65
	c-0.042-0.059-0.084-0.108-0.125-0.15l0.575,0.1c1.2,0.3,2.184,0.65,2.95,1.05c1.233,0.633,1.899,1.2,2,1.7
	c-0.9,0-1.517-0.033-1.851-0.1l-0.5-0.1c-0.1,0.967-0.366,1.817-0.8,2.55L56.3,51.55z M54.85,45.325V45.25
	c0.07,0.076,0.129,0.151,0.176,0.225C54.967,45.423,54.908,45.373,54.85,45.325z M52.4,47.775c-0.096,0.058-0.195,0.117-0.301,0.175
	c0.119-0.086,0.228-0.169,0.325-0.25C52.415,47.727,52.407,47.751,52.4,47.775z M34.375,30.675H34.35V30.7h0.1
	C34.423,30.691,34.397,30.683,34.375,30.675z M43.65,55.4c0.259,0.235,0.526,0.519,0.8,0.85c0.5,0.6,0.95,1.217,1.35,1.85
	c-0.066,0.101-0.133,0.15-0.2,0.15c-1.084-0.554-2.15-0.987-3.2-1.3c0.009,0.035,0.017,0.068,0.025,0.1
	c-0.868-0.084-1.51,0.049-1.925,0.4c-0.233,0.166-0.667,0.783-1.3,1.85c-0.034-1.2,0.033-2.116,0.2-2.75
	c0.219-0.877,0.645-1.436,1.275-1.675c0.068-0.191,0.393-0.316,0.975-0.375h0.3c0.258,0,0.533,0.083,0.825,0.25
	C43.05,54.93,43.342,55.146,43.65,55.4z M37.45,64.85c-0.267-0.3-0.684-1.033-1.25-2.199c-0.333-0.7-0.6-1.584-0.8-2.65l-0.2-1.4
	l-0.6,0.15l-2.25,0.15l0.4-0.75c0.433-0.667,1.117-1.334,2.05-2c1.5-1.067,3.333-1.801,5.5-2.2c-0.233,0.066-0.517,0.267-0.85,0.6
	c-0.667,0.667-1.267,1.733-1.8,3.2C37.05,59.45,36.983,61.816,37.45,64.85z M65.15,56.25l0.199-1.375
	c0.909,1.089,1.293,2.53,1.15,4.325c-0.267-0.233-0.483-0.733-0.65-1.5c-0.166-0.767-0.35-1.217-0.55-1.351
	C65.254,56.315,65.204,56.282,65.15,56.25z"/>
<path style="fill-rule:evenodd;clip-rule:evenodd;fill:#395718;" d="M67.725,75.525c-0.422-0.098-0.73-0.373-0.925-0.825
	c-0.267-0.601-0.25-1.267,0.05-2l0.7-0.5c-0.1,0.467,0.117,1.033,0.65,1.7c0.147,0.179,0.256,0.354,0.325,0.524
	c-0.239,0.314-0.481,0.64-0.726,0.976C67.772,75.438,67.747,75.479,67.725,75.525z M68.3,75.525c0.111-0.169,0.228-0.335,0.351-0.5
	c-0.018,0.16-0.067,0.319-0.15,0.475C68.433,75.514,68.366,75.521,68.3,75.525z M76.525,70.35c-0.091-0.113-0.165-0.247-0.226-0.399
	l0.3-0.15c0.834,0.167,1.334,0.483,1.5,0.95c-0.664,0.173-1.164,0.072-1.5-0.3C76.571,70.419,76.546,70.386,76.525,70.35z
	 M77.05,68.25c0.336-0.077,0.669-0.144,1-0.2c-0.294,0.02-0.636,0.078-1.024,0.175C77,68.14,76.983,68.048,76.975,67.95
	c-0.05-0.521,0.142-1.188,0.575-2c0.733-1.267,1.117-2.017,1.15-2.25c0.934,0.399,1.366,1.166,1.3,2.3c-0.066,1.1-0.6,1.767-1.6,2
	c0.399-0.033,0.833,0.116,1.3,0.45c0.434,0.333,0.7,0.684,0.8,1.05c-0.5-0.066-1.017-0.134-1.55-0.2
	C77.85,69.134,77.217,68.783,77.05,68.25z M29.425,65.5c-0.147-0.049-0.305-0.115-0.475-0.2c-0.333-0.166-0.95-0.75-1.85-1.75
	c-0.667-0.767-1.033-1.767-1.1-3c0.3,0.334,0.733,0.566,1.3,0.7c0.667,0.134,1.117,0.283,1.35,0.45c0.367,0.267,0.65,0.666,0.85,1.2
	c0.2,0.5,0.267,0.966,0.2,1.399c0.9-0.833,1.433-1.467,1.6-1.899c-0.133,0.399-0.267,1.183-0.4,2.35
	c-0.174,0.673-0.583,0.947-1.225,0.825c-0.008-0.045-0.016-0.087-0.025-0.125l-0.6-0.9C29.196,64.851,29.321,65.167,29.425,65.5z
	 M22.875,65.575c-0.541-0.442-0.982-0.9-1.325-1.375c0.335,0.546,0.76,1.071,1.275,1.575c-0.04,0.18-0.098,0.371-0.175,0.574
	c-0.467,1.167-0.967,1.434-1.5,0.801c-0.566-0.7-0.683-1.25-0.35-1.65c-0.367,0.4-0.75,0.767-1.15,1.1
	c0.233-0.5,0.333-0.916,0.3-1.25c-0.034-0.333-0.2-0.716-0.5-1.149c1.1-0.533,2.017-0.617,2.75-0.25
	C22.795,64.234,23.02,64.776,22.875,65.575z M41.275,27.125c-0.461-0.222-0.82-0.397-1.075-0.525c-0.5-0.267-0.833-0.533-1-0.8
	c-0.2-0.3-0.284-0.733-0.25-1.3c0-0.667-0.034-1.117-0.1-1.35c1.967,0.5,2.9,1.783,2.8,3.85l-0.175,0.075L41.35,27.15
	C41.329,27.14,41.304,27.132,41.275,27.125z M56.525,38.675c0.468-0.41,0.81-0.727,1.024-0.95c0.031-0.011,0.064-0.02,0.101-0.025
	c1.133-0.167,1.767-0.4,1.899-0.7l0.15,1c-0.134,0.667-0.55,1.067-1.25,1.2c-0.3,0.066-0.934,0.05-1.9-0.05
	C56.517,38.981,56.508,38.823,56.525,38.675z M41.9,21.075c-0.077,0.012-0.152,0.021-0.225,0.025h-0.05
	c-0.238-0.006-0.463-0.04-0.675-0.1c-0.034,0-0.067,0-0.1,0c-0.833-0.3-1.567-1.05-2.2-2.25c-0.6-1.133-0.917-2.217-0.95-3.25
	c1.833,0.833,3.1,2.25,3.8,4.25c0.233-0.667,0.85-1.417,1.85-2.25c-0.067,0.067-0.017,0.45,0.15,1.15
	c0.167,0.767,0.217,1.233,0.15,1.4c-0.167,0.4-0.55,0.7-1.15,0.9C42.292,21.011,42.092,21.053,41.9,21.075z M61.1,31.25
	c0.066-0.216,0.133-0.433,0.2-0.65c-0.083,0.203-0.166,0.403-0.25,0.6c-0.133-1.034-0.2-1.717-0.2-2.05
	c0.067-0.833,0.45-1.267,1.15-1.3c0.233,0.633,0.333,1.316,0.3,2.05c-0.1,0.9-0.416,1.434-0.95,1.6L61.1,31.25z M58.675,67.525
	c-0.042-0.001-0.084-0.001-0.125,0c-0.457-0.079-0.807-0.555-1.05-1.426c-0.2-0.6-0.316-1.267-0.35-2
	c0.1,0.534,0.399,1.067,0.899,1.601l0.25-3.25c0.834,0.967,1.267,1.533,1.3,1.7c0.167,0.5,0.284,1.033,0.351,1.6
	c0.033,0.7-0.101,1.167-0.4,1.4C59.223,67.398,58.932,67.523,58.675,67.525z"/>
<path style="fill-rule:evenodd;clip-rule:evenodd;fill:#453719;" d="M50.275,100.2c0.041-0.004,0.083-0.004,0.125,0h0.05
	c0.202-0.261,0.303-0.478,0.3-0.65L50.725,99.4L50.7,99.35l0.024,0.025L50.85,99.5L50.6,98v-0.05c0.134,0.133,0.284,0.399,0.45,0.8
	c0.074,0.162,0.141,0.304,0.2,0.425c0.077,0.143,0.145,0.251,0.2,0.325l0.2,0.35c0.241,0.309,0.449,0.492,0.625,0.551
	c0.276,0.091,0.485-0.092,0.625-0.551C53.134,99.15,53.1,98.5,52.8,97.9L52.4,98.15c-0.101-0.334-0.101-0.801,0-1.4
	c0.1-0.8,0.149-1.3,0.149-1.5c0-0.866,0-1.45,0-1.75c0-2.267,0.184-5.583,0.55-9.95c0.334-4.366,0.5-7.666,0.5-9.899
	c0.034-4.767,0.051-8.351,0.051-10.75c0.033-4.233-0.017-7.801-0.15-10.7L53.05,53c0-1.12-0.208-1.77-0.625-1.95H52.4
	c0.022-0.26,0.047-0.501,0.074-0.725c0.041-0.442,0.1-0.783,0.176-1.025c0.097-0.308,0.163-0.741,0.199-1.3l0.25-0.05
	c0.034,0,0.101,0.216,0.2,0.65c0.134,0.5,0.25,0.816,0.351,0.95c0.363,0.577,0.797,1.085,1.3,1.525v0.05v0.725
	c0.2,1.5,0.25,3.216,0.149,5.15c-0.033,0.634-0.133,2.217-0.3,4.75c0,0.967-0.066,2.967-0.2,6c0.034,0.967,0.017,2.483-0.05,4.55
	L53.9,87.2c-0.2,3.7-0.284,5.8-0.25,6.3c0.041,0.557,0.091,1.057,0.149,1.5l0.05,0.35c0,0.9,0.067,1.5,0.2,1.801
	c0.467,0.033,0.934-0.25,1.4-0.851c0.434-0.533,0.649-1.05,0.649-1.55c0.101,0.333,0.15,0.833,0.15,1.5
	c0.033-0.533,0.25-1.233,0.65-2.1c0.533-1.167,0.833-1.95,0.899-2.351c0.233-1.366,0.434-2.399,0.601-3.1
	c0.1-0.367,0.233-1.334,0.399-2.9c0.101-1.166,0.351-2.133,0.75-2.899v1.8c0.033-1.134,0.233-2.584,0.601-4.351
	c0.533-2.333,0.833-3.85,0.899-4.55l0.851-5.3c0.533-2.2,0.916-3.9,1.149-5.1c0.467-2.134,0.45-3.851-0.05-5.15l-0.75,0.9
	c-0.033-0.733-0.066-1.267-0.1-1.601L61.75,60c0.008-0.15,0.032-0.301,0.075-0.45c0.134-0.518,0.459-1.034,0.975-1.55
	c0.233-0.233,0.584-0.6,1.05-1.1c0.059-0.063,0.116-0.121,0.176-0.176c0.037-0.045,0.07-0.087,0.1-0.125
	c0.035-0.059,0.077-0.108,0.125-0.149c0.195-0.281,0.345-0.548,0.45-0.8c0.142-0.343,0.259-0.709,0.35-1.101
	c0.085-0.325,0.151-0.667,0.2-1.024c0.139-0.955,0.173-2.03,0.1-3.226l-0.475,0.625c-0.004-0.046-0.013-0.088-0.025-0.125v-0.1
	c0.078-0.606,0.261-1.256,0.551-1.95c0.433-0.933,0.75-1.633,0.949-2.1c0.2-0.467,0.334-1.25,0.4-2.35
	c0.066-1.1,0.217-1.867,0.45-2.3c0.366-0.1,0.8-0.233,1.3-0.4c0.366-0.167,0.717-0.467,1.05-0.9l2.25-2.85
	c0.472-0.558,0.972-1.083,1.5-1.575c0.197-0.191,0.397-0.374,0.601-0.55c0.096-0.095,0.195-0.187,0.3-0.275
	c0.267-0.233,0.649-0.617,1.149-1.15c0.467-0.533,0.851-0.917,1.15-1.15c1.033-0.933,2.717-2.05,5.05-3.35l0.351-0.2
	c-2.559,1.816-4.658,3.45-6.301,4.9c-0.512,0.448-1.062,0.99-1.649,1.625c-0.065,0.075-0.132,0.149-0.2,0.225
	c-0.876,0.967-1.825,2.134-2.85,3.5c-1.601,2.133-2.784,3.467-3.551,4L67.15,45c-0.2,1.067-0.617,3.167-1.25,6.3l-0.351,2.3
	l-0.024,0.15l-0.176,1.125L65.15,56.25l-0.301,2.1c-0.04,0.28-0.114,0.681-0.225,1.2c-0.077,0.35-0.169,0.749-0.275,1.2
	c-0.199,1.066-0.333,1.934-0.399,2.6c-0.066,1-0.4,3.084-1,6.25c-0.066,0.5-0.2,1.483-0.4,2.95c-0.011,0.106-0.02,0.215-0.024,0.325
	l-0.275,1.6V74.5c0.277,0.698,0.728,1.231,1.35,1.6l1.426,3.95c0.724-1.541,1.624-3.05,2.699-4.524
	c0.022-0.046,0.048-0.087,0.075-0.125c0.244-0.336,0.486-0.661,0.726-0.976c0.783-1.341,1.85-2.541,3.199-3.6
	c1.348-1.066,2.506-1.808,3.476-2.226c0.972-0.408,1.563-0.625,1.774-0.649c0.009,0.098,0.025,0.189,0.051,0.274
	c0.389-0.097,0.73-0.155,1.024-0.175c-0.331,0.057-0.664,0.123-1,0.2l-3.725,2l2.225,0.05c0.355,0.036,0.681,0.053,0.976,0.05
	c0.021,0.036,0.046,0.069,0.074,0.101c-0.081,0.016-0.164,0.033-0.25,0.05c-0.666,0.1-1.183,0.15-1.55,0.15l-2.125,0.1
	c-0.286,0.234-0.578,0.484-0.875,0.75c-1.236,1.12-2.286,2.295-3.149,3.525c-0.123,0.165-0.239,0.331-0.351,0.5
	c-0.479,0.741-0.896,1.499-1.25,2.274c-0.399,0.867-1.316,3.184-2.75,6.95c-1.133,3-2.017,5.017-2.649,6.05
	c-0.867,1.5-2.017,3.184-3.45,5.05c-0.508,0.667-0.95,1.217-1.325,1.65c-0.225,0.633-0.466,1.3-0.725,2
	c-0.017,0.06-0.033,0.126-0.051,0.2c0.017,0.133,0.051,0.233,0.101,0.3c0.128,0.336,0.245,0.569,0.35,0.7
	c0.134,0.133,0.384,0.316,0.75,0.55c0.334,0.2,0.55,0.35,0.65,0.45c-0.167-0.233-0.417-0.467-0.75-0.7c-0.4-0.267-0.667-0.5-0.8-0.7
	l-0.075-0.149c0.154,0.144,0.43,0.327,0.825,0.55c0.433,0.233,0.783,0.399,1.05,0.5c1.434,0.7,2.633,1.017,3.6,0.95
	c-0.6,0.267-1.416,0.35-2.45,0.25c-1.133-0.2-1.949-0.334-2.449-0.4c1.233,0.533,1.933,0.816,2.1,0.85
	c-1.041,0-1.882-0.05-2.525-0.149c0.157,0.213,0.333,0.43,0.525,0.649c0.366,0.4,0.9,1,1.6,1.801c-1.233-0.233-2.233-0.45-3-0.65
	c-1.466-0.333-2.216-0.767-2.25-1.3c-0.633-0.434-1.6-0.566-2.899-0.4c-1.434,0.267-2.467,0.4-3.1,0.4
	c-0.981,0-1.907,0.059-2.775,0.175c0.52-0.211,0.928-0.453,1.225-0.725c-0.205-0.046-0.421-0.071-0.65-0.075
	c0.724-0.1,1.624-0.225,2.7-0.375c0.47-0.188,1.062-0.563,1.775-1.125c-1.109-0.152-1.818-0.244-2.125-0.275
	c0.26-0.109,0.501-0.201,0.725-0.274c0.399,0.034,1.007-0.024,1.825-0.176L50.275,100.2z M42.05,103.625
	c-0.019,0.021-0.035,0.046-0.05,0.075c0.151,0.064,0.326,0.106,0.525,0.125c-0.338,0.096-0.663,0.204-0.975,0.325
	C41.686,103.954,41.853,103.779,42.05,103.625z M55.55,102.075c-0.063,0.21-0.12,0.386-0.175,0.524
	c0.577,0.387,1.169,0.736,1.775,1.051C56.479,103.077,55.945,102.553,55.55,102.075z M26.75,49.275
	c0.237,0.291,0.537,0.532,0.9,0.725c0.233,0.667,0.466,1.317,0.7,1.95c0.267,0.667,0.9,2.399,1.9,5.2
	c1.033,2.633,1.9,4.366,2.6,5.199c3.767,4.434,6.383,7.317,7.85,8.65c0.933,0.866,2.216,2.733,3.85,5.6
	c1.233,2.167,2.167,3.967,2.8,5.4c0.313,0.674,0.688,1.69,1.125,3.05L48.9,87.3c0.133,2.8,0.367,4.8,0.7,6l1.051,5.625
	c-0.567-1.229-1.468-4.238-2.7-9.024c-1.534-5.867-2.567-9.334-3.1-10.4c-0.798-1.596-2.356-3.954-4.675-7.075
	c-0.051-0.045-0.093-0.087-0.125-0.125c-0.633-0.767-1.85-1.316-3.65-1.649c-2.033-0.267-3.45-0.467-4.25-0.601
	c-2-0.333-3.967-0.983-5.9-1.95c-1.402-0.711-2.543-1.486-3.425-2.324c-0.515-0.504-0.94-1.029-1.275-1.575
	c0.343,0.475,0.785,0.933,1.325,1.375c1.498,1.261,3.756,2.42,6.775,3.475c0.049,0.019,0.099,0.035,0.15,0.05
	c0.034-0.181,0.05-0.38,0.05-0.6c0-1.114-0.142-2.114-0.425-3c-0.104-0.333-0.229-0.649-0.375-0.95l0.6,0.9
	c0.009,0.038,0.017,0.08,0.025,0.125c0.136,0.572,0.344,1.264,0.625,2.075c0.143,0.599,0.176,1.149,0.1,1.649
	c1.337,0.416,2.887,0.666,4.65,0.75c0.133,0,0.534,0.066,1.2,0.2c0.467,0.066,0.85,0.083,1.15,0.05
	c0.313-0.031,0.63-0.123,0.95-0.274c-1.939-2.47-3.706-4.528-5.3-6.176c-1.733-1.8-3.65-6.066-5.75-12.8
	C27.107,50.436,26.924,49.845,26.75,49.275z M24.05,44.55c-0.275,0.135-0.516,0.318-0.725,0.55c-0.16-0.095-0.318-0.195-0.475-0.3
	c-2.133-1.367-3.483-2.3-4.05-2.8c1.034,0.533,1.733,0.967,2.1,1.3l-0.1-0.45c0.867,0.733,1.833,1.267,2.9,1.6
	C23.804,44.488,23.921,44.521,24.05,44.55z M11.6,36.4c0.1,0.533,0.433,1.033,1,1.5c0.133,0.133,0.733,0.55,1.8,1.25
	c0.267,0.133,0.7,0.434,1.3,0.9c-1.884-1.188-3.726-2.463-5.525-3.825L10.15,36.2c-0.228-0.18-0.452-0.363-0.675-0.55
	c-0.095-0.063-0.187-0.13-0.275-0.2l-2.275-1.9L6.8,33.45l0.15,0.1l2.425,1.775l0.575,0.4l-0.05-0.05L9.35,35.25l-0.5-0.4
	c-0.434-0.367-0.65-0.567-0.65-0.6c0.092-0.031,0.125-0.172,0.1-0.425c0.003-0.027,0.003-0.052,0-0.075
	c0.086,0.066,0.17,0.133,0.25,0.2c0.059,0.029,0.109,0.062,0.15,0.1l0.025,0.025c0.15,0.113,0.3,0.222,0.45,0.325
	c0.542,0.391,1.117,0.791,1.725,1.2c0.186,0.124,0.369,0.24,0.55,0.35v0.025l-0.1,0.375L11.6,36.4z M25.775,43.625
	c-0.216-0.096-0.441-0.196-0.675-0.3V43.3c-0.424-1.695-0.674-3.012-0.75-3.95L24.2,36.7l1.05,4.85
	C25.42,42.253,25.595,42.945,25.775,43.625z M44.325,55.95c-0.165-0.139-0.306-0.255-0.425-0.351
	c-0.082-0.068-0.165-0.135-0.25-0.199c-0.308-0.254-0.6-0.471-0.875-0.65c-0.318-0.227-0.61-0.402-0.875-0.525
	c-0.034-0.175-0.067-0.316-0.1-0.425l-0.4-1l-0.35-0.05c0.042,0.296,0.143,0.722,0.3,1.275C41.244,54.009,41.144,54,41.05,54h-0.1
	l-0.4-1.7l-0.65-0.35c-0.833-0.167-2.017-0.684-3.55-1.55c-1.533-0.9-2.55-1.467-3.05-1.7c-0.7-0.333-1.5-0.583-2.4-0.75
	c-0.101-0.017-0.2-0.034-0.3-0.05c0.476-0.867,0.776-1.3,0.9-1.3l0.85,0.1l0.2,0.05c0.076,0,0.143-0.008,0.2-0.025
	c-0.522,0.36-0.572,0.735-0.15,1.125c0.233,0.267,0.75,0.6,1.55,1c0.533-0.1,1.333,0.183,2.4,0.85c1.267,0.767,2.067,1.2,2.4,1.3
	c-0.034-0.6,0.25-0.883,0.85-0.85c0.733,0.067,1.117,0.067,1.15,0c0.1,0.267,0.316,0.65,0.65,1.15c0.333,0.5,0.55,0.883,0.65,1.15
	l0.2,0.05c-0.267-0.4-0.5-1.017-0.7-1.85c-0.333-1.1-0.533-1.75-0.6-1.95c-0.467-1.367-0.867-2.25-1.2-2.65
	c-0.333-0.333-0.567-0.583-0.7-0.75c-0.267-0.3-0.467-0.617-0.6-0.95c-0.167-0.467-0.433-1.383-0.8-2.75
	c-0.333-1.2-0.65-2.133-0.95-2.8c-0.233-0.533-0.417-0.883-0.55-1.05c-0.2-0.233-0.483-0.367-0.85-0.4l-0.375,0.225L35.1,37.6
	l-0.325-0.975c-0.053-0.178-0.094-0.319-0.125-0.425l-0.05-0.15c0.031,0.057,0.098,0.124,0.2,0.2c0.167,0.133,0.333,0.2,0.5,0.2
	c0.2,0,0.55-0.284,1.05-0.85c0.013-0.017,0.03-0.033,0.05-0.05v0.025c0.077,0.196,0.16,0.405,0.25,0.625l4.2,9.15L39.05,41
	c0.044,0.092,0.086,0.184,0.125,0.275l1.975,4.175c1.5,3.433,2.467,6.367,2.9,8.8C44.173,54.89,44.265,55.457,44.325,55.95z
	 M26.4,17.575l1.05,1.675c1,1.567,1.65,2.517,1.95,2.85c0.434,0.533,0.934,1.583,1.5,3.15c1.197,1.665,2.097,3.006,2.7,4.025
	c-0.203-0.036-0.436-0.061-0.7-0.075c-0.069,0.023-0.127,0.048-0.175,0.075c-0.419-0.805-0.711-1.313-0.875-1.525
	c-0.7-0.933-1.267-1.8-1.7-2.6L30,24.65c-0.133-0.433-0.45-1.033-0.95-1.8L28.5,21.8c-0.1-0.2-0.467-0.733-1.1-1.6
	c-0.479-0.989-0.862-1.614-1.15-1.875L26.2,18.3l-0.15-0.1H26l-0.2-0.4l-0.05-0.1l0.225,0.275L25.8,17.7
	c-0.026-0.048-0.051-0.098-0.075-0.15c-0.127-0.258-0.219-0.542-0.275-0.85l-0.5-0.8l-0.1-0.15l0.45,0.475L26,16.95L26.4,17.575z
	 M45.25,60.825l0.475,1.725L46.2,64.3c0.333,1.134,0.783,2.884,1.35,5.25c0.667,2.867,1.017,4.7,1.05,5.5c0.033,0.7,0.3,2.2,0.8,4.5
	c0.566,2.566,0.883,4.05,0.949,4.45L51.2,94.45c-0.8-1.101-1.267-2.367-1.4-3.8c0-0.067-0.149-1.067-0.45-3
	c-0.166-1.301-0.166-2.2,0-2.7L49.7,85.6c-0.033-0.966-0.384-2.433-1.05-4.399c-0.133-0.4-0.283-1.084-0.45-2.05
	c-0.167-0.867-0.333-1.5-0.5-1.9l-0.05,0.25c-0.333-0.1-0.533-0.533-0.6-1.3c0-0.167,0-0.767,0-1.8
	c-0.033-1.733-0.267-3.233-0.7-4.5c-0.267-0.801-0.517-1.95-0.75-3.45C45.333,64.75,45.133,63.6,45,63c-0.167-0.6-0.5-1.134-1-1.6
	c-0.6-0.434-1.05-0.801-1.35-1.101l-0.025-0.024c-0.272-0.277-0.489-0.586-0.65-0.926c0.423,0.24,0.648,0.374,0.675,0.4
	C43.074,60.174,43.941,60.532,45.25,60.825z M52.075,81.625c-0.057,0.873-0.114,1.481-0.175,1.825c-0.067,0.666-0.134,3.25-0.2,7.75
	l-0.2,2.25c-0.3-5.72-0.45-10.037-0.45-12.95c0-0.866-0.35-4.583-1.05-11.15c-0.6-5.5-0.7-9.383-0.3-11.649
	c0.377-2.138,0.485-5.046,0.325-8.725c0.3-0.075,0.575-0.15,0.824-0.225c0.063,1.335,0.13,2.868,0.2,4.6
	c0.066,2.233,0.033,4.7-0.1,7.4c-0.101,1.733,0.033,4.217,0.399,7.45c0.323,2.701,0.607,5.676,0.851,8.925
	c-0.003,0.663-0.02,1.487-0.05,2.475C52.124,80.388,52.099,81.063,52.075,81.625z M56.525,38.675
	c-0.484,0.427-1.093,0.943-1.825,1.55l0.149,4.7C54.634,44.708,54.4,44.6,54.15,44.6c-0.233,0-0.4,0.017-0.5,0.05
	c0.014-0.219,0.047-0.469,0.1-0.75c0.2-1.3,0.3-2.05,0.3-2.25c-0.133-2.533-0.267-4.367-0.399-5.5c-0.301,0.7-0.551,1.1-0.75,1.2
	L52.75,36c0.002-0.033,0.002-0.067,0-0.1l0.025-0.425l0.074-1.225c0.101-0.867,0.45-1.5,1.051-1.9
	c-0.233-1.067-0.334-2.333-0.301-3.8c0.067-1.667,0.084-2.95,0.051-3.85c-0.134,0-0.5,0.183-1.101,0.55l-0.024-0.825
	c0.227-0.112,0.468-0.254,0.725-0.425c0.304-0.22,0.529-0.419,0.675-0.6l0.175,2.65c-0.014,0.291,0.003,0.783,0.051,1.475
	c0.002,0.041,0.002,0.083,0,0.125l0.25,3.05c0.016,0.177,0.032,0.36,0.05,0.55l-0.3,0.9c0.166-0.066,0.533-0.2,1.1-0.4
	c0.3-0.1,0.6-0.3,0.9-0.6l0.1-0.1c0.733-0.466,1.4-1.316,2-2.55l0.05-0.1c0.167-0.267,0.417-0.75,0.75-1.45
	c0.3-0.567,0.634-0.934,1-1.1l0.25,0.65c-0.172,0.33-0.347,0.663-0.524,1L59.2,28.475c-1.276,2.159-2.826,4.434-4.65,6.825v3.75
	c0.303,0.19,0.569,0.19,0.8,0c0.134-0.133,0.551-0.45,1.25-0.95c0.337-0.265,0.828-0.848,1.476-1.75
	c0.641-0.907,1.632-2.624,2.975-5.15c0.084-0.197,0.167-0.397,0.25-0.6c-0.067,0.217-0.134,0.434-0.2,0.65
	c-0.881,2.599-2.031,4.716-3.449,6.35c-0.031,0.036-0.064,0.078-0.101,0.125C57.335,37.948,56.993,38.265,56.525,38.675z
	 M41.275,27.125c0.029,0.007,0.054,0.015,0.075,0.025l0.125-0.075l0.25,0.7c0.587,0.174,1.195,0.315,1.825,0.425
	c0.325,0.088,0.992,0.43,2,1.025c-1.753-4.381-3.037-7.056-3.85-8.025l-0.075-0.1h0.05c0.073-0.004,0.148-0.013,0.225-0.025
	l0.3-0.025c2.104,3.26,3.937,7.144,5.5,11.65c1.555,4.502,2.455,7.585,2.7,9.25h0.05c0.3-0.034,0.6-0.1,0.899-0.2
	c0.349-0.116,0.799-0.35,1.351-0.7c0,0.15,0,0.309,0,0.475c-0.248,0.155-0.515,0.313-0.8,0.475l-1.4,0.775
	c0.064,0.663,0.14,1.788,0.225,3.375c-0.239,0.162-0.507,0.345-0.8,0.55c-0.146-2.701-0.389-4.935-0.725-6.7
	c-0.331-1.816-1.414-5.075-3.25-9.775L45.8,30.1c-0.833-0.5-1.417-0.867-1.75-1.1c-0.167-0.1-0.517-0.233-1.05-0.4
	c-0.767-0.2-1.4-0.4-1.9-0.6c-0.633-0.233-1.383-0.7-2.25-1.4l-1.05-1c0.967,0.87,2.108,1.537,3.425,2
	C41.254,27.448,41.271,27.29,41.275,27.125z M52.575,10.525c0.077,0.766,0.169,1.674,0.274,2.725c0,0.667,0.167,1.65,0.5,2.95
	c0,0.021,0,0.046,0,0.075v0.05L53.4,16.95c0.015,0.276,0.039,0.618,0.074,1.025V18L53.1,18.15c-0.072,0.031-0.13,0.064-0.175,0.1
	c-0.01-0.059-0.018-0.109-0.024-0.15v-0.025c0.064-0.654,0.048-1.112-0.051-1.375c-0.033-0.1-0.116-0.2-0.25-0.3
	c-0.199-0.066-0.3-0.117-0.3-0.15l-0.024-0.225L52.25,15.9l-0.1-3.125c0.001-0.054,0.001-0.104,0-0.15
	C52.116,11.848,52.1,11.406,52.1,11.3c0-0.466-0.05-0.983-0.149-1.55c-0.021-0.116-0.046-0.232-0.075-0.35l0.675,0.825
	C52.558,10.326,52.566,10.426,52.575,10.525z M65.25,9.15c-0.032,0.291-0.065,0.574-0.1,0.85h0.05
	c-0.033,0.159-0.05,0.343-0.05,0.55c0,0.273-0.067,0.656-0.2,1.15H64.9c-0.216,1.32-0.458,2.587-0.726,3.8
	c-0.186,0.855-0.377,1.68-0.575,2.475l-0.3,0.875c0.095-0.365,0.178-0.765,0.25-1.2c0.167-1.267,0.017-2.017-0.45-2.25l0.375-1.375
	c0.042-0.162,0.084-0.32,0.125-0.475c0.04-0.158,0.082-0.308,0.125-0.45h0.125L64,12.35l0.1-0.05c0.267-1.3,0.4-2.066,0.4-2.3
	l-0.025-0.175C64.517,9.631,64.559,9.44,64.6,9.25c0.087-0.449,0.17-0.891,0.25-1.325c0.113-0.56,0.222-1.101,0.325-1.625
	c0.118-0.662,0.227-1.295,0.325-1.9h0.2c-0.069,0.882-0.145,1.715-0.226,2.5C65.405,7.696,65.33,8.446,65.25,9.15z M70.7,19.95
	c0-0.883-0.108-1.574-0.325-2.075L70.35,17.85l0.45-2.25l0.05-0.55c0-0.504,0.042-1.029,0.125-1.575
	c0.172,0.108,0.355,0.208,0.551,0.3V13.8c-0.041,1.12-0.183,2.286-0.426,3.5C70.997,17.788,70.864,18.671,70.7,19.95z M69.025,31.25
	l-0.075,0.4c-0.134-0.066-0.217-0.167-0.25-0.3c-0.233-0.367-0.134-1.417,0.3-3.15c0.427-1.182,0.852-2.732,1.275-4.65
	c0.01-0.036,0.018-0.069,0.024-0.1l-0.2,1.85c-0.1,1.034-0.449,2.967-1.05,5.8L69.025,31.25z M62.85,20.15l-1.5,4.3L60.8,25.5
	c0.267-1.033,0.467-1.783,0.601-2.25C61.434,23.117,61.917,22.083,62.85,20.15z M68.475,34.725L68.175,37l-0.425,3.15
	c-0.467,0.533-0.917,0.95-1.35,1.25c0-0.267,0.1-0.65,0.3-1.15c0.233-0.533,0.35-0.983,0.35-1.35
	c-0.133,0.333-0.434,0.617-0.899,0.85l0.05-0.375c0.016-0.118,0.032-0.243,0.05-0.375c0.005-0.038,0.013-0.08,0.025-0.125l0.074-0.6
	l0.5-3.875c0.601-0.2,1.134-0.283,1.601-0.25l0.1,0.05l-0.05,0.4L68.475,34.725z M59.975,73.15
	c-0.639-0.787-1.114-1.971-1.425-3.551v-2.074c0.041-0.001,0.083-0.001,0.125,0c0.316,1.889,0.842,3.313,1.575,4.274
	C60.169,72.22,60.077,72.67,59.975,73.15z M58.85,90.8c-0.058,0.424-0.174,0.966-0.35,1.625c1.156-1.417,1.873-2.325,2.15-2.725
	c0.199-0.3,0.8-1.584,1.8-3.851c0.635-1.428,1.16-2.62,1.575-3.574c-0.217-1.519-0.425-2.76-0.625-3.726
	c-0.193-0.965-0.66-1.948-1.4-2.95c-0.192,0.579-0.409,1.696-0.65,3.351c-0.267,1.666-0.399,2.633-0.399,2.899
	s-0.384,1.567-1.15,3.9C59.467,86.884,59.15,88.566,58.85,90.8z M50.75,100.1c-0.363,0.694-0.839,1.228-1.425,1.601
	c0.173-0.103,0.614-0.186,1.325-0.25c0.157-0.018,0.308-0.051,0.449-0.101h0.025L50.9,99.825c-0.027,0.032-0.053,0.065-0.075,0.1
	C50.805,99.985,50.779,100.043,50.75,100.1z"/>
<path style="fill-rule:evenodd;clip-rule:evenodd;fill:#8C7131;" d="M56.325,100.15L56.4,100.3c0.133,0.2,0.399,0.434,0.8,0.7
	c0.333,0.233,0.583,0.467,0.75,0.7c-0.101-0.101-0.316-0.25-0.65-0.45c-0.366-0.233-0.616-0.417-0.75-0.55
	c-0.104-0.131-0.222-0.364-0.35-0.7c-0.05-0.066-0.084-0.167-0.101-0.3L56.325,100.15z M55.55,102.075
	c0.396,0.478,0.929,1.002,1.601,1.575c-0.606-0.314-1.198-0.664-1.775-1.051C55.43,102.461,55.487,102.285,55.55,102.075z
	 M50.275,100.2l-0.226,0.149c-0.817,0.151-1.426,0.21-1.825,0.176c-0.047-0.011-0.088-0.02-0.125-0.025
	c0.533-0.467,1.35-0.634,2.45-0.5L50.275,100.2z M42.525,103.825c-0.199-0.019-0.374-0.061-0.525-0.125
	c0.015-0.029,0.031-0.054,0.05-0.075c0.282-0.49,0.849-0.799,1.7-0.925c0.505-0.11,0.972-0.151,1.4-0.125
	c0.229,0.004,0.445,0.029,0.65,0.075c-0.296,0.271-0.705,0.514-1.225,0.725c-0.177,0.081-0.369,0.156-0.575,0.225
	C43.415,103.78,42.923,103.855,42.525,103.825z M11.6,36.4l-0.25-0.05l0.1-0.375V35.95l0.075,0.075l0.025,0.025
	c0.331,0.228,0.706,0.469,1.125,0.725l3.875,2.35c0.893,0.513,1.826,1.038,2.8,1.575c0.071,0.038,0.146,0.08,0.225,0.125l1.7,0.8
	c0.958,0.43,2.233,0.988,3.825,1.675c-0.029-0.004-0.054-0.012-0.075-0.025c-0.459-0.064-1.018-0.206-1.675-0.425
	c-0.833-0.267-1.434-0.434-1.8-0.5l1.6,1.2c-1.066-0.4-2.283-1.05-3.65-1.95c-1.533-1.033-2.683-1.783-3.45-2.25
	c-0.267-0.167-0.733-0.4-1.4-0.7c-0.5-0.2-0.917-0.467-1.25-0.8c-0.333-0.4-0.583-0.684-0.75-0.85C12.35,36.7,12,36.5,11.6,36.4z
	 M39.225,48.125L39.1,47.8c-0.087-0.251-0.187-0.526-0.3-0.825L38.35,45.8l0.05-0.6c0.434,0,0.8,0.4,1.1,1.2
	c0.3,0.833,0.317,1.434,0.05,1.8l-0.2,0.25L39.225,48.125z M38.925,48.925c0.143,0.258,0.118,0.5-0.075,0.725
	c-0.533-0.167-0.917-0.316-1.15-0.45c0.133,0.133,0.233,0.4,0.3,0.8h-0.6c-0.1-0.2-0.883-0.617-2.35-1.25
	c-1.2-0.5-1.483-0.917-0.85-1.25l0.1-0.1l0.75,0.4l0.1,0.05c0.661,0.351,1.911,0.701,3.75,1.05L38.925,48.925z M35.75,39.25
	l0.8,1.35c0.3,0.6,0.517,1.066,0.65,1.4c0.226,0.615,0.393,1.339,0.5,2.175c-0.003,0.024-0.003,0.049,0,0.075l-2-5.1L35.75,39.25z
	 M27.95,21.4c0.033,0,0.05,0.017,0.05,0.05c0.133,0.2,0.483,0.667,1.05,1.4l1.1,2.3c0.167,0.4,0.45,1.033,0.85,1.9
	c0.267,0.767,0.383,1.417,0.35,1.95c-1.1-2.367-1.733-3.783-1.9-4.25C29.29,24.173,28.79,23.056,27.95,21.4z M52.825,28.575
	c-0.066-0.949-0.124-1.691-0.175-2.225l0.35,0.2c0.033,0.567,0.15,1.517,0.35,2.85c0.134,1.2,0.101,2.133-0.1,2.8l-0.3-0.15V32
	c0.046-0.487,0.029-1.32-0.05-2.5L52.825,28.575z M63.35,54.425c0.027-0.152,0.044-0.261,0.051-0.325c0.566-2,0.899-3.283,1-3.85
	c0.466-3.3,0.783-5.367,0.949-6.2l0.051,1.3l0.949-0.95c0.101,0.934-0.199,2.1-0.899,3.5c-0.7,1.434-1.05,2.5-1.05,3.2
	c0.1-0.133,0.25-0.267,0.449-0.4v0.1c0.013,0.037,0.021,0.079,0.025,0.125c0.067,0.665,0.025,1.374-0.125,2.125
	c-0.044,0.213-0.094,0.413-0.15,0.601c-0.195,0.669-0.462,1.186-0.8,1.55c-0.3,0.3-0.517,0.483-0.649,0.55L63.35,54.425z
	 M50.6,97.95V97.9L50.15,95.8l0.35,0.7l0.15-0.1l0.05-0.051c0.3-0.199,0.45-0.6,0.45-1.199c0.066,0.533,0.183,1.283,0.35,2.25
	c0.062,0.383,0.103,0.749,0.125,1.1c0.073-0.114,0.131-0.197,0.175-0.25c0.5,0.2,0.767,0.566,0.8,1.1
	c0,0.382-0.108,0.732-0.324,1.051c-0.176-0.059-0.384-0.242-0.625-0.551l-0.2-0.35c-0.056-0.074-0.123-0.183-0.2-0.325
	c-0.06-0.121-0.126-0.263-0.2-0.425C50.884,98.35,50.733,98.083,50.6,97.95z M85.15,26.75c-1.567,1.133-2.483,1.783-2.75,1.95
	l-1.5,0.7C82.267,28.467,83.684,27.583,85.15,26.75z M58.3,28.4l-0.05,0.1c-0.6,1.233-1.267,2.083-2,2.55
	c-0.428,0.23-0.869,0.331-1.325,0.3H54.9c0.343-0.275,0.692-0.6,1.05-0.975l3.1-4.675c0.462-0.894,0.928-1.877,1.4-2.95
	c0.92-2.076,1.754-4.359,2.5-6.85l0.2-0.05c0.1,0.467-0.017,1.183-0.351,2.15c-0.2,0.533-0.467,1.25-0.8,2.15
	c-0.167,0.667-0.434,1.367-0.8,2.1c-0.5,0.867-0.884,1.55-1.15,2.05C59.404,26.011,58.821,27.377,58.3,28.4z M69.925,20.2
	c0.144,0.46,0.136,1.027-0.024,1.7c-0.031,0.123-0.189,0.623-0.476,1.5c-0.022,0.083-0.048,0.166-0.075,0.25
	c0.111-0.612,0.179-1.079,0.2-1.4v-0.2c0-0.167,0.117-0.75,0.351-1.75v-0.15C69.906,20.168,69.915,20.185,69.925,20.2z
	 M68.225,28.45l0.426-1.35v-0.05l0.649-3L69.325,24l0.075-0.1c0.267,0.867,0.216,1.95-0.15,3.25c-0.333,1.133-0.833,2.2-1.5,3.2
	C67.917,29.633,68.075,29,68.225,28.45z M52.75,38.55l0.6-0.55c0.134,2.3,0.134,4.033,0,5.2c-0.1,0.833-0.267,1.4-0.5,1.7
	c-0.1-2.5-0.149-3.783-0.149-3.85L52.75,38.55z M47.55,80.175L46.9,76.75c-0.967-3.733-1.467-5.667-1.5-5.8l-0.05-0.2l0.025,0.05
	l0.175,0.3c0.3,0.601,0.567,1.384,0.8,2.351c0.1,0.533,0.25,1.35,0.45,2.45c0.333,1.3,0.617,2.883,0.85,4.75L47.55,80.175z
	 M43.475,63.275L43.3,62.6l0.05-0.1c0.167,0.2,0.316,0.5,0.45,0.9c0.067,0.233,0.15,0.583,0.25,1.05L44,62.4
	c0.1,0.6,0.233,2.017,0.4,4.25l-0.175-0.625L43.475,63.275z M55.425,93.175L55.475,93c0.091-0.313,0.165-0.53,0.226-0.65l0.149-0.3
	l3-13c0.034-1.066,0.367-2.85,1-5.35c0.041-0.184,0.083-0.366,0.125-0.55c0.103-0.48,0.194-0.931,0.275-1.351v-0.024l0.325-1.976
	c-0.003-0.038-0.003-0.071,0-0.1c0.012-0.05,0.02-0.1,0.024-0.15c0.073-0.87,0.314-2.211,0.726-4.024L61.5,64.7
	c0.063-0.291,0.13-0.591,0.2-0.9l0.024-0.024c0.423-0.417,0.798-0.608,1.125-0.575c0.101,0.566,0.017,1.2-0.25,1.899
	c-0.133,0.4-0.366,0.983-0.699,1.75c-0.167,0.5-0.367,1.367-0.601,2.601c-0.2,1.133-0.416,2-0.649,2.6
	c0.233,2.566-0.084,5.55-0.95,8.95c-0.167,0.566-0.467,1.35-0.9,2.35c-0.5,1.101-0.833,1.884-1,2.351
	c-0.133,0.467-0.316,1.283-0.55,2.45c-0.167,1.1-0.366,1.916-0.6,2.449L55.425,93.175z M52.4,54.6c0-0.254,0-0.504,0-0.75l0.05-0.25
	c0.233,0.434,0.316,1.233,0.25,2.4c-0.033,0.634-0.084,1.483-0.15,2.55c-0.045-0.863-0.078-1.672-0.1-2.425
	c-0.002-0.056-0.002-0.113,0-0.175c-0.013-0.3-0.021-0.592-0.025-0.875C52.42,54.916,52.411,54.758,52.4,54.6z M52.15,75.4
	c-0.099-1.568-0.082-3.968,0.05-7.2l0.3-5.476c0.021-0.976,0.037-1.816,0.05-2.524v1.05v2.1c0,1.2,0.117,3.117,0.351,5.75
	c0.133,2.4,0,4.301-0.4,5.7c-0.033-0.066-0.083-0.1-0.15-0.1C52.217,75.033,52.15,75.267,52.15,75.4z M51.9,83.45
	c0.061-0.344,0.118-0.952,0.175-1.825c0.134-1.909,0.176-3.801,0.125-5.675l0.25,1.399c0.033,0.233,0.05,1.334,0.05,3.301
	c0,3.033-0.233,5.066-0.7,6.1L51.9,83.45z M50.75,100.1c0.029-0.057,0.055-0.114,0.075-0.175c0.022-0.034,0.048-0.067,0.075-0.1
	l0.225,1.524H51.1c-0.142,0.05-0.292,0.083-0.449,0.101c-0.711,0.064-1.152,0.147-1.325,0.25
	C49.911,101.327,50.387,100.794,50.75,100.1z"/>
</svg>
