<?xml version="1.0" encoding="iso-8859-1"?>
<!-- Generator: Adobe Illustrator 15.1.0, SVG Export Plug-In . SVG Version: 6.00 Build 0)  -->
<!DOCTYPE svg PUBLIC "-//W3C//DTD SVG 1.1//EN" "http://www.w3.org/Graphics/SVG/1.1/DTD/svg11.dtd">
<svg version="1.1" id="FlashAICB" xmlns="http://www.w3.org/2000/svg" xmlns:xlink="http://www.w3.org/1999/xlink" x="0px" y="0px"
	 width="140.35px" height="67.7px" viewBox="0 0 140.35 67.7" style="enable-background:new 0 0 140.35 67.7;" xml:space="preserve"
	>
<radialGradient id="SVGID_1_" cx="690.125" cy="1198.3496" r="19.6021" gradientTransform="matrix(1.3178 0 0 -0.4141 -839.7996 555.0755)" gradientUnits="userSpaceOnUse">
	<stop  offset="0.251" style="stop-color:#000000;stop-opacity:0.7608"/>
	<stop  offset="1" style="stop-color:#000000;stop-opacity:0"/>
</radialGradient>
<path style="fill-rule:evenodd;clip-rule:evenodd;fill:url(#SVGID_1_);" d="M95.537,58.78c0,2.252-2.525,4.169-7.577,5.753
	s-11.158,2.375-18.318,2.375c-7.16,0-13.244-0.791-18.252-2.375c-5.051-1.584-7.577-3.501-7.577-5.753
	c0-2.25,2.526-4.168,7.577-5.751c5.008-1.584,11.092-2.377,18.252-2.377c7.16,0,13.267,0.793,18.318,2.377
	C93.012,54.612,95.537,56.53,95.537,58.78z"/>
<path style="fill-rule:evenodd;clip-rule:evenodd;fill:#334A18;" d="M86.511,52.967c0.967,0.083,2.46,0.166,4.48,0.25
	c-0.176,0.291-0.615,0.625-1.318,1c-0.396,0.209-0.923,0.479-1.582,0.813c-1.185,0.751-2.636,1.313-4.349,1.688
	c-1.01,0.25-2.592,0.5-4.743,0.75c-0.615,0.041-0.988,0.104-1.121,0.188c-0.219,0.083-0.396,0.375-0.526,0.876
	c1.186-0.042,2.592,0.354,4.218,1.187c0.877,0.501,2.151,1.251,3.82,2.252c-0.526,0.333-1.515,0.5-2.965,0.5l-5.535-0.063
	c0.659,1.084,0.923,2.209,0.791,3.376c-2.679-0.792-4.699-1.229-6.063-1.313c-1.054-0.084-2.174-0.354-3.36-0.813l-0.725-0.313
	l-0.395,0.313c-0.527,0.459-1.45,0.834-2.768,1.126c-1.098,0.625-1.955,1.042-2.569,1.25c-0.308,0.167-0.835,0.354-1.582,0.563
	v-1.938c0.308-1.166,0.46-2.041,0.46-2.625v-0.438c-1.141-0.208-2.13-0.667-2.965-1.375c-0.571-0.459-1.34-0.959-2.306-1.501
	c-1.142-0.583-1.977-1.041-2.503-1.375c-0.748-0.459-1.516-0.709-2.306-0.751c-2.284,0.042-3.822-0.104-4.612-0.437
	c3.382-1.959,7.533-2.793,12.453-2.501l2.768,0.375c1.098,0.167,2.416,0.292,3.954,0.375c0.877,0.041,2.195,0.084,3.954,0.125
	c1.098,0.083,2.415-0.208,3.953-0.875c2.328-1.085,3.58-1.646,3.756-1.688c1.01-0.292,1.933-0.376,2.768-0.251
	c0.614,0.083,1.757,0.313,3.426,0.688C84.467,52.695,85.632,52.883,86.511,52.967z"/>
<path style="fill-rule:evenodd;clip-rule:evenodd;fill:#43611F;" d="M76.824,64.97c-0.878-0.333-1.561-0.563-2.043-0.688
	c-0.746-0.291-1.427-0.459-2.042-0.5l-1.846-0.249c-0.044,0-0.285-0.146-0.725-0.438c-0.395-0.125-0.879-0.188-1.449-0.188
	c-0.045-0.459,0.284-0.771,0.988-0.938c0.487-0.153,0.991-0.217,1.514-0.188c0.044-0.004,0.088-0.004,0.133,0
	c0.845,0.064,1.789,0.313,2.833,0.749C76.034,63.365,76.911,64.179,76.824,64.97z"/>
<path style="fill-rule:evenodd;clip-rule:evenodd;fill:#43611F;" d="M74.979,61.844l0.659,0.313c0.526,0,0.834,0.271,0.922,0.813
	c0.132,0.5-0.153,0.563-0.856,0.188c-0.352-0.125-0.725-0.417-1.121-0.875C74.145,61.782,74.275,61.636,74.979,61.844z"/>
<path style="fill-rule:evenodd;clip-rule:evenodd;fill:#43611F;" d="M60.813,65.408l0.197-0.188c0.835-0.584,1.846-0.834,3.031-0.75
	c-0.351,0.375-0.877,0.708-1.58,1c-0.792,0.333-1.407,0.479-1.846,0.438C60.615,65.699,60.68,65.533,60.813,65.408z"/>
<path style="fill-rule:evenodd;clip-rule:evenodd;fill:#43611F;" d="M49.611,54.967l0.526,0.25c1.01,0,1.735,0.292,2.175,0.876
	c-0.571,0.041-1.296,0.021-2.175-0.063c-1.054-0.084-1.757-0.126-2.108-0.126C48.907,55.279,49.435,54.967,49.611,54.967z"/>
<path style="fill-rule:evenodd;clip-rule:evenodd;fill:#43611F;" d="M88.355,53.654l0.593,0.188
	c-0.131,0.291-0.615,0.563-1.449,0.813c-0.791,0.25-1.34,0.333-1.647,0.25c-0.22,0.125-0.506,0.063-0.856-0.188
	c-0.528-0.375-0.836-0.584-0.923-0.626c0.44-0.29,1.143-0.416,2.109-0.374C87.323,53.758,88.048,53.737,88.355,53.654z"/>
<path style="fill-rule:evenodd;clip-rule:evenodd;fill:#43611F;" d="M85.72,53.342c-0.265,0.083-0.638,0.104-1.12,0.062
	c-0.527-0.083-0.923-0.145-1.187-0.187v-0.438c0.352-0.041,0.835,0.021,1.45,0.188c0.659,0.209,1.142,0.292,1.449,0.25L85.72,53.342
	z"/>
<path style="fill-rule:evenodd;clip-rule:evenodd;fill:#567D42;" d="M69.181,51.466c0.22,0.125,0.439,0.416,0.659,0.876
	c0.176,0.458,0.373,0.729,0.593,0.812c3.075,1.251,5.403,1.939,6.984,2.063c2.856,0.166,5.865,1.126,9.027,2.876
	c3.207,1.71,4.897,3.335,5.074,4.877c-3.031-0.751-7.095-1.084-12.19-1l-1.317-0.126c-4.833-1.124-8.764-0.749-11.795,1.126
	l-2.042,0.75c-2.064,0.917-4.394,1.396-6.984,1.438c-1.538,0.041-3.932-0.126-7.183-0.501c-2.241-0.333-4.481-1.021-6.722-2.063
	c-3.162-1.459-4.523-3.063-4.085-4.814c3.646,1.292,7.072,1.521,10.279,0.688c0.747-0.208,1.625-0.584,2.636-1.125
	c1.23-0.709,2.042-1.146,2.439-1.313c0.747-0.334,1.669-0.521,2.767-0.563h2.965l-0.988-1c-0.571-0.377-2.197-0.876-4.876-1.501
	c-2.328-0.501-3.646-1.085-3.954-1.751c3.382-0.541,6.063-0.876,8.04-1c2.987-0.166,5.623,0.021,7.907,0.563
	C68.17,51.194,69.093,51.425,69.181,51.466z"/>
<path style="fill-rule:evenodd;clip-rule:evenodd;fill:#43611F;" d="M69.181,51.403c0.22,0.125,0.439,0.417,0.659,0.876
	c0.176,0.416,0.373,0.667,0.593,0.75c0.526,0.208,1.384,0.25,2.57,0.124c1.493-0.124,2.394-0.166,2.701-0.124
	c3.162,0.166,6.26,1.062,9.291,2.688c3.382,1.791,5.557,4,6.523,6.627c-2.197-0.501-4.481-0.793-6.854-0.876
	c-1.405-0.083-3.733-0.083-6.984,0c-4.568,0.042-6.874,0.063-6.918,0.063c-2.329,0.168-4.525,0.688-6.589,1.563
	c-2.109,0.875-4.438,1.334-6.984,1.376c-1.669,0.041-4.064-0.146-7.183-0.563c-2.197-0.251-4.438-0.896-6.722-1.938
	c-3.162-1.376-4.523-2.897-4.085-4.564c3.69,1.209,7.117,1.417,10.279,0.625c0.792-0.166,1.669-0.521,2.636-1.063
	c1.318-0.709,2.131-1.125,2.439-1.25c0.747-0.292,1.669-0.459,2.767-0.501c0.571-0.041,1.56-0.041,2.965,0l-0.988-0.938
	c-0.571-0.333-2.197-0.813-4.876-1.438c-2.328-0.499-3.646-1.063-3.954-1.688c3.382-0.542,6.063-0.854,8.04-0.938
	c2.987-0.166,5.623,0.021,7.907,0.563C67.907,51.028,68.83,51.236,69.181,51.403z"/>
<g>
	<path style="fill-rule:evenodd;clip-rule:evenodd;fill:#334A18;" d="M84.281,56.924l0.79,0.313l1.252,0.874
		c-0.352-0.125-0.879-0.249-1.581-0.375c-0.834-0.166-1.362-0.271-1.582-0.313c-0.746-0.209-1.845-0.313-3.295-0.313
		c-2.372,0.126-3.864,0.396-4.479,0.813c-0.528,0.375-0.638,0.666-0.33,0.875c0.219,0.166,0.638,0.334,1.253,0.5
		c-0.133,0.125-0.419,0.229-0.857,0.313c-0.438,0.126-0.746,0.271-0.923,0.438c-0.438,0.541-0.131,1,0.923,1.375
		c-2.636,0-4.503,0.063-5.601,0.188c-1.933,0.208-3.822,0.688-5.667,1.438c-0.659,0.292-1.405,0.542-2.241,0.751l0.33-0.313
		c0.482-0.584,0.593-1.167,0.33-1.751c-0.176-0.542-0.615-1-1.318-1.375c-0.835-0.459-1.977-0.71-3.426-0.751
		c-0.615-0.042-1.846,0-3.691,0.126c-3.162,0.166-5.645,0.083-7.445-0.251l1.449,0.125h0.264c1.713,0.167,3.36,0.063,4.942-0.313
		c0.308-0.083,0.725-0.166,1.252-0.251c0.438-0.124,0.703-0.375,0.79-0.749c0.264-0.876-0.504-1.522-2.306-1.938l1.45-0.688
		c0.747-0.292,1.669-0.459,2.767-0.501c0.571-0.041,1.56-0.041,2.965,0l-0.989-0.938c-0.571-0.375-2.13-0.834-4.678-1.375
		c0.703-0.167,1.691-0.313,2.965-0.438c1.362-0.166,2.35-0.313,2.965-0.438c0.482-0.084,1.164-0.313,2.042-0.688
		c0.879-0.334,1.56-0.542,2.042-0.625c0.264-0.041,0.681-0.063,1.252-0.063l0.528,0.126c1.493,0.25,2.416,0.458,2.767,0.625
		c0.22,0.125,0.438,0.417,0.659,0.876c0.176,0.416,0.374,0.667,0.593,0.75c0.526,0.208,1.384,0.25,2.57,0.124
		c1.493-0.124,2.394-0.166,2.701-0.124c2.328,0.124,4.7,0.688,7.115,1.688c-0.482-0.083-0.833-0.063-1.054,0.063
		c-0.352,0.166-0.526,0.375-0.526,0.625c0,0.249,0.153,0.458,0.461,0.625l0.396,0.188C82.326,56.506,83.051,56.756,84.281,56.924z"
		/>
	<path style="fill-rule:evenodd;clip-rule:evenodd;fill:#4D7024;" d="M57.858,59.924l0.855,0.25
		c2.153,0.251,2.878,0.917,2.175,2.001c-0.176,0.334-0.506,0.542-0.989,0.625c-0.043,0.041-0.44,0.084-1.187,0.126
		c-2.152,0.374-3.14,0.187-2.965-0.563c-2.548,0.333-4.196,0.25-4.942-0.25c0.087-0.251,0.527-0.541,1.318-0.876
		c0.44-0.166,1.01-0.396,1.713-0.688C54.76,60.133,56.1,59.924,57.858,59.924z"/>
	<path style="fill-rule:evenodd;clip-rule:evenodd;fill:#4D7024;" d="M51.269,60.362l0.197,0.187
		c-0.482,0.459-1.56,0.751-3.229,0.876c-1.8,0.166-2.723-0.125-2.767-0.876C48.237,60.008,50.17,59.944,51.269,60.362z"/>
	<path style="fill-rule:evenodd;clip-rule:evenodd;fill:#4D7024;" d="M45.536,59.861l-2.833,0.063
		c0.439-0.042,1.098-0.187,1.977-0.438c-0.792,0-1.407,0-1.846,0c-0.79,0-1.383-0.084-1.778-0.25
		c0.746-0.25,1.625-0.292,2.636-0.125c0.57,0.125,1.405,0.291,2.503,0.5L45.536,59.861z"/>
	<path style="fill-rule:evenodd;clip-rule:evenodd;fill:#4D7024;" d="M47.512,59.236c0.308,0.166,0.462,0.292,0.462,0.375
		l-0.792-0.375H47.512z"/>
	<path style="fill-rule:evenodd;clip-rule:evenodd;fill:#4D7024;" d="M47.512,59.236c-0.482-0.209-0.79-0.375-0.923-0.501
		c0.264-0.083,0.593-0.083,0.989,0c0.527,0.042,0.879,0.063,1.055,0.063v-0.188c0.659-0.042,1.647-0.021,2.965,0.062
		c-0.089-0.25-0.198-0.416-0.33-0.499c0.308-0.126,0.79-0.229,1.449-0.313c0.087-0.126,0.153-0.229,0.198-0.313
		c0.131-0.126,0.33-0.168,0.592-0.126c0.484,0.084,0.726,0.292,0.726,0.625c0,0.292-0.176,0.563-0.527,0.813
		c-0.703,0.458-1.713,0.667-3.031,0.625C49.182,59.36,48.127,59.277,47.512,59.236z"/>
	<path style="fill-rule:evenodd;clip-rule:evenodd;fill:#4D7024;" d="M86.192,59.549v0.375c-0.177,0.041-0.923-0.166-2.241-0.625
		c-0.879-0.334-1.317-0.063-1.317,0.813c-0.835-0.333-1.429-0.542-1.78-0.625c-0.613-0.167-1.119,0-1.515,0.5
		c-0.659-0.083-1.187-0.313-1.581-0.688c-0.528-0.417-0.55-0.876-0.066-1.375c0.396-0.417,1.098-0.584,2.108-0.501
		c0.527,0.042,1.274,0.084,2.24,0.126l-0.264-0.126c1.45,0,2.834,0.333,4.152,1c1.361,0.625,2.438,1.501,3.229,2.627
		c-0.133-0.126-0.396-0.271-0.791-0.438c-0.439-0.208-0.725-0.354-0.856-0.438C86.806,59.715,86.367,59.508,86.192,59.549z"/>
	<path style="fill-rule:evenodd;clip-rule:evenodd;fill:#4D7024;" d="M84.545,56.924c-0.264-0.126-0.659-0.271-1.187-0.438
		c-0.703-0.166-1.12-0.271-1.252-0.313l-0.132-0.188c-0.133-0.709,0.637-0.938,2.307-0.688c2.636,1.376,4.59,2.919,5.864,4.627
		l-0.066,0.813c-1.011-0.667-1.581-1.292-1.713-1.876c-1.406-0.751-2.504-1.292-3.295-1.625L84.545,56.924z"/>
	<path style="fill-rule:evenodd;clip-rule:evenodd;fill:#4D7024;" d="M82.106,56.173c0.132,0.041,0.549,0.146,1.252,0.313
		c0.527,0.167,0.923,0.313,1.187,0.438l0.526,0.313l-0.79-0.313C83.051,56.756,82.326,56.506,82.106,56.173z"/>
</g>
<path style="fill-rule:evenodd;clip-rule:evenodd;fill:#567D42;" d="M4.211,31.022l-4.217-5.189
	c-0.044-0.625,0.022-1.021,0.198-1.188c0.966,2.209,2.723,3.73,5.271,4.564c2.59,0.834,4.15,1.333,4.678,1.5
	c2.592,1.292,5.25,2.271,7.973,2.938c1.977,0.459,8.302,1.71,18.978,3.751c10.323,2.335,16.846,4.73,19.569,7.19
	c2.636,2.418,5.359,5.835,8.171,10.253c-1.713-4.835-3.471-8.711-5.271-11.628c-3.997-6.337-9.796-12.233-17.396-17.694
	c-4.13-2.96-7.885-7.024-11.267-12.192L27.01,6.451c-0.043-0.584-0.022-1,0.066-1.25c0.395,0.917,0.879,1.688,1.45,2.313l0.33,0.5
	c0.614,0.917,1.405,1.896,2.372,2.938c1.01,1.209,2.503,2.689,4.48,4.44c4.042,3.459,8.369,5.917,12.981,7.376
	c0.967,0.333,2.021,0.438,3.162,0.313l1.846,1.188c4.436,2.667,8.236,7.668,11.399,15.005c2.547,5.919,4.02,11.274,4.415,16.067
	c1.01-0.5,2.153-0.813,3.426-0.938l2.504-4.188c0.615-1.168,2.263-3.188,4.942-6.064c3.074-3.293,6.391-6.461,9.949-9.504
	c11.993-4.167,23.567-6.815,34.726-7.939l0.131,1.313c-5.051,0.708-9.378,1.604-12.979,2.689c-6.063,1.792-11.4,4.335-16.013,7.627
	c-5.535,3.875-13.025,10.045-22.469,18.506l-0.065,0.625c-0.484,0.501-1.187,0.958-2.109,1.376l-0.396,0.438V59.03
	c-0.835,0.334-1.582,0.501-2.24,0.501c-0.264,0.416-0.548,0.667-0.856,0.75l0.79,1.501c-0.527-0.584-1.076-1.126-1.647-1.626
	c-0.352-0.209-0.572-0.396-0.659-0.563l-0.988-0.625c-9.225-4.168-15.046-7.087-17.461-8.753
	c-6.325-4.335-15.441-7.981-27.345-10.941C13.897,37.564,8.384,34.814,4.211,31.022z"/>
<path style="fill-rule:evenodd;clip-rule:evenodd;fill:#354E17;" d="M4.211,29.772l-3.493-4.314c1.464,1.563,3.88,2.959,7.248,4.188
	c2.504,0.958,5.887,1.875,10.147,2.751c1.977,0.417,8.324,1.646,19.043,3.689c10.235,2.334,16.737,4.752,19.504,7.252
	c2.636,2.418,5.359,5.836,8.171,10.254c-1.713-4.836-3.471-8.711-5.271-11.629c-3.997-6.336-9.796-12.232-17.396-17.693
	c-4.13-2.96-7.885-7.024-11.267-12.191L27.01,5.201c1.669,2.25,5.337,5.126,11.003,8.628c3.295,2.042,8.522,5.105,15.683,9.19
	c4.436,2.667,8.236,7.668,11.399,15.005c2.547,5.918,4.02,11.274,4.415,16.066c1.01-0.499,2.153-0.812,3.426-0.938l2.504-4.188
	c2.592-4.96,4.591-8.315,5.996-10.065c4.13-5.127,9.269-8.544,15.419-10.253c6.062-1.709,12.606-2.521,19.637-2.438
	c3.513,0,6.412,0.188,8.696,0.563c-5.051,0.708-9.378,1.604-12.979,2.688c-6.063,1.792-11.4,4.335-16.013,7.627
	c-5.535,3.876-13.025,10.045-22.469,18.506l-0.065,0.625c-0.484,0.501-1.187,0.959-2.109,1.377l-0.396,0.437v-0.25
	c-0.835,0.333-1.582,0.501-2.24,0.501c-0.264,0.416-0.548,0.666-0.856,0.749l0.79,1.501c-0.527-0.584-1.076-1.126-1.647-1.625
	c-0.352-0.209-0.572-0.397-0.659-0.563l-0.988-0.625c-9.225-4.167-15.046-7.086-17.461-8.753c-6.325-4.335-15.441-7.98-27.345-10.94
	C13.897,36.314,8.384,33.564,4.211,29.772z"/>
<g>
	<path style="fill-rule:evenodd;clip-rule:evenodd;fill:#2F4514;" d="M38.42,20.722l0.526,0.688
		c0.615,0.708,1.647,1.292,3.098,1.751l4.085,2.125c0.264,0.209,0.944,0.772,2.042,1.689c0.792,0.667,1.472,1.188,2.042,1.563
		l2.769,1.563l1.844,1.75c0.528,0.501,1.34,1.355,2.439,2.564c1.054,1.042,1.977,1.75,2.767,2.125
		c-0.175-1.292-0.901-2.876-2.173-4.751c-1.494-2-2.504-3.459-3.032-4.377l0.792,0.563l-0.198,0.313
		c0.659,0.416,1.867,1.417,3.624,3.001c0.659,0.667,1.362,1.479,2.109,2.438c0.219,0.292,0.856,1.418,1.91,3.376
		c0.792,1.46,1.582,2.439,2.374,2.939l0.131-0.875c2.284,5.585,3.602,10.544,3.953,14.879c1.011-0.499,2.153-0.812,3.426-0.938
		l2.505-4.188c1.317-2.751,2.482-4.939,3.493-6.564l2.107-2.001c0.132-0.167,0.417-0.563,0.857-1.188
		c0.308-0.46,0.614-0.793,0.921-1c0.046,0.708-0.043,1.541-0.262,2.5c-0.133,0.541-0.352,1.354-0.659,2.438
		c-1.318,1.418-2.153,2.627-2.505,3.627c2.108-1.709,4.174-3.542,6.194-5.502c1.011-0.5,1.934-0.771,2.768-0.813l-0.791,1.688
		c0.659,0.168,1.537-0.021,2.636-0.563c-3.251,2.542-8.742,7.212-16.473,14.005l-0.065,0.626c-0.484,0.5-1.187,0.958-2.109,1.376
		l-0.396,0.437v-0.25c-0.835,0.333-1.582,0.501-2.241,0.501c-0.264,0.416-0.548,0.667-0.855,0.75l0.79,1.5
		c-0.528-0.583-1.076-1.126-1.647-1.625c-0.351-0.209-0.571-0.396-0.659-0.563l-0.988-0.626c-9.225-4.167-15.046-7.086-17.462-8.753
		c-6.325-4.335-15.441-7.981-27.345-10.941l-3.954-1.188l3.031,0.251c1.23,0.041,3.338,0.459,6.325,1.25l5.009,1.313
		c2.59,0.834,4.875,1.271,6.852,1.313c0.792,0.167,1.977,0.479,3.559,0.938c1.405,0.376,2.57,0.563,3.493,0.563
		c-0.615-0.749-1.933-1.542-3.954-2.375c-0.44-0.167-1.889-0.667-4.349-1.501c-2.856-1.084-4.964-1.729-6.327-1.938
		c0.704-0.042,1.714,0.146,3.032,0.562c1.713,0.542,2.723,0.834,3.031,0.876l2.042,0.5c0.703,0.292,1.735,0.813,3.096,1.563
		c0.748,0.292,1.911,0.625,3.493,1c1.625,0.333,2.812,0.646,3.558,0.938c1.186,0.46,2.438,0.729,3.755,0.813
		c1.01,0.334,1.933,0.729,2.769,1.188c0-0.458-0.089-0.916-0.264-1.375l0.066-0.375l-0.264-0.126l-0.131-0.313
		c0.659,0.376,1.339,0.854,2.042,1.438c2.636,2.418,5.359,5.836,8.171,10.254c-1.713-4.836-3.471-8.712-5.271-11.629
		c-3.998-6.337-9.796-12.233-17.396-17.694c-2.548-1.876-4.986-4.189-7.314-6.94l-0.132-0.126l0.329,0.25l0.067,0.063
		C35.828,18.305,36.926,19.388,38.42,20.722z"/>
	<path style="fill-rule:evenodd;clip-rule:evenodd;fill:#2F4514;" d="M100.359,29.819c0.275-0.083,0.551-0.167,0.823-0.249
		C100.91,29.651,100.635,29.736,100.359,29.819c-3.605,1.259-6.922,3.458-9.951,6.596l-4.81,4.814
		c-2.109,0.917-3.471,2.063-4.086,3.438c0.133-0.708,0.264-1.229,0.396-1.563c1.098-1.25,2.151-2.166,3.162-2.75l0.264-0.188
		c0-0.292,0.109-0.604,0.329-0.938c0.528-0.291,1.142-0.791,1.846-1.5c0.747-0.75,1.251-1.271,1.515-1.563
		c1.451-1.375,2.526-2.313,3.229-2.813c1.187-0.917,2.459-1.625,3.822-2.126L100.359,29.819z"/>
	<path style="fill-rule:evenodd;clip-rule:evenodd;fill:#2F4514;" d="M81.513,44.668c0.615-1.375,1.977-2.521,4.086-3.438
		c-2.021,1.96-4.086,3.793-6.194,5.502c0.352-1,1.187-2.209,2.505-3.627C81.776,43.439,81.646,43.96,81.513,44.668z"/>
	<path style="fill-rule:evenodd;clip-rule:evenodd;fill:#3E591A;" d="M93.177,32.476c-1.318,0.834-2.68,1.917-4.086,3.251
		c-0.263,0.292-0.834,0.834-1.714,1.626c-0.834,0.749-1.405,1.375-1.713,1.875c-0.571,0.334-1.119,0.479-1.646,0.438
		c-0.132-0.584,0-1.313,0.395-2.188c0.44-1,0.659-1.708,0.659-2.125l1.054-1.25c0.792-0.667,1.89-1.438,3.295-2.314
		c1.23-0.584,3.295-1.333,6.194-2.25c4.349-1.375,7.929-1.917,10.741-1.625c-2.417,0.625-4.854,1.375-7.314,2.25
		C96.58,30.747,94.626,31.518,93.177,32.476z"/>
	<path style="fill-rule:evenodd;clip-rule:evenodd;fill:#3E591A;" d="M89.024,36.165c-0.264,0.292-0.768,0.813-1.515,1.563
		c-0.704,0.709-1.317,1.209-1.846,1.5c0.308-0.5,0.879-1.126,1.713-1.875c0.88-0.792,1.451-1.334,1.714-1.626
		c1.406-1.334,2.768-2.417,4.086-3.251c1.449-0.958,3.403-1.729,5.864-2.313l-2.965,1.063c-1.363,0.5-2.636,1.209-3.822,2.126
		C91.551,33.852,90.476,34.79,89.024,36.165z"/>
	<path style="fill-rule:evenodd;clip-rule:evenodd;fill:#3E591A;" d="M92.979,37.478c-0.482,0.335-1.142,0.896-1.977,1.689
		c-0.791,0.541-1.647,0.583-2.57,0.124c0.527-0.584,1.23-0.875,2.109-0.875c-0.352-0.249-0.703-0.375-1.055-0.375
		c0.747-0.75,1.318-1.313,1.713-1.688c0.659-0.626,1.318-1.085,1.978-1.377c0.308-0.124,1.032-0.313,2.174-0.562
		c0.966-0.335,1.406-0.709,1.317-1.126c-0.702-0.083-1.163-0.104-1.384-0.062c0.923-1.418,2.68-2.355,5.271-2.813
		c3.383-0.667,5.404-1.167,6.063-1.501c2.151,0,3.382,0.042,3.689,0.125c-0.923,0.084-1.955,0.459-3.098,1.126
		c-1.318,0.75-2.328,1.209-3.031,1.375c-1.713,0-2.943,0.209-3.689,0.625c-0.395,0.208-0.79,0.604-1.187,1.188
		c-0.396,0.667-0.725,1.105-0.988,1.313c-0.526,0.459-1.405,0.938-2.636,1.438C94.361,36.687,93.462,37.145,92.979,37.478z"/>
	<path style="fill-rule:evenodd;clip-rule:evenodd;fill:#3E591A;" d="M37.892,14.344c-1.449-1-2.57-1.896-3.36-2.688l0.526,0.187
		c3.646,2.418,9.862,6.128,18.648,11.13l0.46,0.313c0.528,0.917,0.813,1.772,0.857,2.563c0.22-0.166,0.373-0.396,0.46-0.688
		c0.572,0.042,0.857,0.792,0.857,2.25c0.615-0.166,1.274,0.292,1.977,1.376c0.703,1.083,0.967,1.917,0.791,2.501h-0.066
		c-1.054-1.25-2.195-2.355-3.426-3.314l0.065-0.125l-4.678-4.001c-1.054-0.625-1.845-1.147-2.372-1.563
		c-0.835-1-1.56-1.667-2.175-2.001c-0.835-0.291-1.449-0.541-1.845-0.75c-0.439-0.25-0.967-0.688-1.581-1.313
		c-0.792-0.751-1.318-1.23-1.582-1.438C39.869,15.7,38.683,14.887,37.892,14.344z"/>
	<path style="fill-rule:evenodd;clip-rule:evenodd;fill:#3E591A;" d="M55.618,27.975c1.23,0.959,2.372,2.064,3.426,3.314
		c-1.757-1.585-2.965-2.585-3.624-3.001L55.618,27.975z"/>
	<path style="fill-rule:evenodd;clip-rule:evenodd;fill:#3E591A;" d="M32.95,14.532c-0.571-1.209-0.835-2.167-0.79-2.875
		c2.503,1.667,6.391,4.73,11.663,9.19c0.746,0.625,2.042,1.438,3.888,2.438c1.757,0.958,3.053,1.834,3.888,2.625
		c0.482,0.459,1.383,1.25,2.701,2.376c1.054,1.084,1.582,2.042,1.582,2.875l0.856,1.064c-0.659-0.459-1.911-1.167-3.755-2.126
		c-1.187-1.125-2.394-2.126-3.624-3.001c-0.835-0.541-1.911-1.146-3.229-1.813c-1.098-0.833-2.13-1.417-3.097-1.75l-0.988-0.375
		c-1.099-0.542-2.131-1.209-3.098-2.001l-0.526-0.438c-0.748-1.292-1.23-2.043-1.451-2.25c-0.175-0.167-0.46-0.334-0.855-0.5
		c-0.484-0.209-0.813-0.375-0.989-0.5l-0.593-0.75l0.197,0.437C34.07,16.491,33.478,15.617,32.95,14.532z"/>
	<path style="fill-rule:evenodd;clip-rule:evenodd;fill:#3E591A;" d="M38.42,20.722l0.526,0.438
		c0.966,0.792,1.999,1.459,3.098,2.001c-1.45-0.459-2.482-1.043-3.098-1.751L38.42,20.722z"/>
	<path style="fill-rule:evenodd;clip-rule:evenodd;fill:#3E591A;" d="M46.129,25.286c1.318,0.667,2.394,1.272,3.229,1.813
		c1.23,0.875,2.438,1.876,3.624,3.001l-2.769-1.563c-0.57-0.375-1.25-0.896-2.042-1.563C47.073,26.058,46.393,25.495,46.129,25.286z
		"/>
	<path style="fill-rule:evenodd;clip-rule:evenodd;fill:#3E591A;" d="M24.055,34.54c2.899-0.042,6.15,0.208,9.752,0.749l4.349,1.002
		l-0.264,0.124c0.395,0.125,1.165,0.292,2.306,0.501c1.01,0.166,1.779,0.354,2.307,0.562c-0.439,0.292-0.747,0.48-0.923,0.563
		c0.746,0.292,1.845,0.604,3.294,0.938c1.625,0.333,2.723,0.604,3.295,0.813c0.703,0.209,1.802,0.604,3.294,1.188
		c1.405,0.583,2.504,0.979,3.294,1.187l0.198,0.501v0.124l-2.504,0.063c-1.274-0.5-2.943-1.043-5.007-1.626
		c-2.812-0.792-4.547-1.292-5.206-1.5c-1.756-0.625-2.987-1.022-3.689-1.188l-0.659-0.313l3.031,0.876
		c-4.48-1.376-7.357-2.229-8.631-2.564c-3.338-0.874-6.304-1.417-8.896-1.625c-2.548-0.209-5.359-0.835-8.435-1.876
		c-0.308-0.083-0.681-0.271-1.12-0.563C17.092,33.852,20.496,34.54,24.055,34.54z"/>
	<path style="fill-rule:evenodd;clip-rule:evenodd;fill:#3E591A;" d="M13.841,32.476c-1.538-0.625-2.812-1.333-3.822-2.125
		c0.571,0.125,1.208,0.417,1.911,0.875C12.37,31.518,13.006,31.935,13.841,32.476z"/>
	<path style="fill-rule:evenodd;clip-rule:evenodd;fill:#3E591A;" d="M38.551,38.541c0.703,0.166,1.933,0.563,3.689,1.188
		c0.659,0.208,2.394,0.708,5.206,1.5c2.064,0.583,3.733,1.126,5.007,1.626c-1.318-0.084-2.57-0.354-3.755-0.813
		c-0.746-0.291-1.933-0.604-3.558-0.938c-1.582-0.375-2.745-0.708-3.493-1C40.286,39.354,39.254,38.833,38.551,38.541z"/>
	<polygon style="fill-rule:evenodd;clip-rule:evenodd;fill:#3E591A;" points="55.024,42.293 54.958,42.668 54.76,42.167 	"/>
	<path style="fill-rule:evenodd;clip-rule:evenodd;fill:#3E591A;" d="M38.551,40.792l-2.108-1.25h-0.527L38.551,40.792z
		 M23.33,37.041c-1.802-0.251-3.163-0.479-4.086-0.688c-1.625-0.375-2.811-0.979-3.557-1.813c1.8-0.083,3.908,0.188,6.325,0.813
		c1.405,0.334,3.448,0.896,6.127,1.688c1.055,0.291,2.504,0.666,4.35,1.126c1.581,0.416,2.898,0.874,3.954,1.375
		c1.449,0.166,2.503,0.625,3.162,1.375c-0.526,0.084-1.054,0.084-1.582,0l-0.659-0.125c-1.493-0.25-3.558-0.646-6.193-1.188
		l-2.374-0.875C26.867,37.937,25.043,37.374,23.33,37.041z"/>
	<path style="fill-rule:evenodd;clip-rule:evenodd;fill:#3E591A;" d="M31.172,39.604c2.635,0.543,4.7,0.938,6.193,1.188l0.659,0.125
		C36.047,40.875,33.762,40.438,31.172,39.604z"/>
</g>
<path style="fill-rule:evenodd;clip-rule:evenodd;fill:#2D4520;" d="M69.147-0.27c-0.552,2.894,0.668,10.095,3.657,21.602
	c3.339,12.837,4.811,21.111,4.414,24.82c-0.482,4.71-2.021,8.461-4.612,11.254c-1.317,1.417-2.568,2.354-3.755,2.813
	c-0.527-2.084-0.395-6.043,0.396-11.879c0.484-3.668,0.395-8.42-0.264-14.255c-1.01-6.627-1.713-11.461-2.108-14.504
	c-0.482-3.793-0.242-8.316,0.725-13.566L69.147-0.27z"/>
<path style="fill-rule:evenodd;clip-rule:evenodd;fill:#44671B;" d="M66.875,19.581c-0.395-3.793-0.198-8.316,0.593-13.566
	l1.284-6.316c-0.456,2.898,0.544,10.108,2.999,21.633c2.767,12.837,3.997,21.111,3.689,24.82c-0.396,4.71-1.669,8.461-3.822,11.254
	c-1.054,1.417-2.086,2.354-3.096,2.813c-0.439-2.084-0.33-6.043,0.329-11.879c0.396-3.668,0.308-8.42-0.264-14.255
	C67.797,27.458,67.226,22.624,66.875,19.581z"/>
<g>
	<path style="fill-rule:evenodd;clip-rule:evenodd;fill:#365215;" d="M74.463,39.479c0.044-0.834,0.021-1.96-0.065-3.377
		c-0.177-1.834-0.265-2.96-0.265-3.376c1.099,6.211,1.538,10.67,1.318,13.38c-0.396,4.71-1.669,8.461-3.822,11.254
		c-1.054,1.417-2.086,2.354-3.097,2.813c-0.395-1.792-0.373-5.105,0.066-9.941c0.22,0.292,0.462,0.459,0.725,0.501
		c0.045-0.542,0.242-1.292,0.593-2.251c0.395-1.043,0.637-1.792,0.725-2.251l0.726-5.314c0.088-1.042,0.131-2.646,0.131-4.814
		v-2.751l0.066,0.438c0.132,0.416,0.22,0.896,0.264,1.438c0.044,0.292,0.087,0.792,0.131,1.5c0.089,0.792,0.264,2.354,0.528,4.689
		c0.264,1.917,0.417,3.46,0.46,4.627C73.694,45.21,74.199,43.021,74.463,39.479z"/>
	<path style="fill-rule:evenodd;clip-rule:evenodd;fill:#365215;" d="M68.401,18.847l1.12,7.44c-0.835-1.834-1.318-4.21-1.449-7.128
		c-0.176-1.5-0.286-2.709-0.33-3.626c-0.089-1.667,0.044-2.917,0.395-3.751C68.137,15.241,68.225,17.596,68.401,18.847z"/>
	<path style="fill-rule:evenodd;clip-rule:evenodd;fill:#4F781F;" d="M68.203,11.406l-0.131,0.375l0.131-1.501l0.989,1.126
		c-0.131,1.459,0.087,3.335,0.659,5.627c0.747,3.043,1.165,4.919,1.252,5.627c0.131,0.834,0.264,2.126,0.395,3.876
		c0.132,1.542,0.396,2.793,0.791,3.751c0.835,2.252,0.944,3.96,0.329,5.127c-0.088,0.042-0.197,0.042-0.329,0
		c0.176-1.335,0.176-2.272,0-2.813c-0.088-0.25-0.483-0.771-1.186-1.563l-0.33,0.313c-0.922-4.084-1.494-6.69-1.712-7.815
		C68.498,19.149,68.212,15.106,68.203,11.406z"/>
	<path style="fill-rule:evenodd;clip-rule:evenodd;fill:#4F781F;" d="M67.479,24.536c-0.044,0-0.066-0.229-0.066-0.688l0.131-2.001
		c1.054,1.626,1.846,4.502,2.372,8.628c0.176,1.917,0.264,3.418,0.264,4.501c0,0.459,0.021,1.168,0.065,2.126
		c0.044,0.876,0,1.563-0.131,2.064c-0.044,0.375-0.396,1.166-1.054,2.375c0-1.458-0.133-3.688-0.396-6.689
		c-0.131-3.96-0.439-7.399-0.921-10.316H67.479z"/>
</g>
<path style="fill-rule:evenodd;clip-rule:evenodd;fill:#44671B;" d="M1.971,48.402l9.291-2.438
	c8.04-1.626,16.584-2.375,25.632-2.251c7.951,0.126,15.133,2.355,21.546,6.69c3.866,2.626,7.007,5.647,9.423,9.065
	c0.615,0.291,1.142,0.438,1.582,0.438c2.064-2.71,4.48-5.355,7.248-7.939c4.393-4.211,8.697-7.274,12.915-9.191
	c13.222-6.168,24.203-9.003,32.946-8.503c4.788,0.251,9.202,0.959,13.243,2.126c1.978,0.584,3.493,1.125,4.547,1.626
	c-0.482-0.167-1.516-0.251-3.096-0.251c-3.12-0.083-7.359,0.209-12.718,0.876c-5.185,0.625-10.608,2.104-16.275,4.438
	c-6.94,3.126-12.938,5.627-17.988,7.503c-8.084,3.084-14.584,6.043-19.504,8.878c0,0.042-0.286,0.438-0.857,1.188
	c-0.352,0.459-0.703,0.792-1.054,1.001c-0.966-0.792-1.977-1.501-3.031-2.126c-7.951-2.459-13.53-4.168-16.737-5.127
	c-10.366-3.001-16.122-4.626-17.263-4.876C22.727,47.735,12.777,47.36,1.971,48.402z"/>
<g>
	<path style="fill-rule:evenodd;clip-rule:evenodd;fill:#365215;" d="M54.76,50.295c0.615,0.376,1.911,0.917,3.888,1.627
		c1.625,0.625,2.834,1.271,3.624,1.938c0.308,0.25,0.879,0.959,1.713,2.126c1.054,1.292,1.735,2.063,2.042,2.313
		c0.571,0.5,1.56,1.188,2.965,2.063l-2.372-1.251c-0.087,0.334-0.065,0.646,0.066,0.938l-0.725-0.501l-0.197-0.25
		c-0.527-0.541-0.901-0.959-1.121-1.251c-0.439-0.416-0.901-0.771-1.384-1.063c-1.187-0.834-2.153-1.479-2.899-1.938
		c-1.318-0.876-2.306-1.335-2.965-1.376v0.813c-0.746,0.042-1.735-0.375-2.965-1.25c-1.493-1.042-2.438-1.647-2.833-1.813
		c-1.625-0.625-3.779-1.167-6.458-1.625c-3.734-0.584-5.931-0.959-6.589-1.126c0.966,0.709,2.592,1.438,4.876,2.188
		c2.285,0.751,3.91,1.459,4.876,2.126c-0.44,0.25-0.659,0.563-0.659,0.938c-6.415-2.042-10.719-3.314-12.916-3.813
		c-6.282-1.46-12.849-2.23-19.701-2.314c6.633-0.375,11.069-0.562,13.31-0.562c1.669,0,4.106-0.063,7.313-0.188
		c0.264,0,1.076,0.063,2.439,0.188c1.01,0.041,1.8,0.021,2.372-0.063c-0.22-0.125-0.615-0.271-1.187-0.438
		c-0.526-0.166-0.901-0.333-1.12-0.5c2.767-0.25,4.349-0.334,4.744-0.25c1.361,0.208,3.493,0.916,6.392,2.125
		C51.664,48.773,53.486,49.504,54.76,50.295z"/>
	<path style="fill-rule:evenodd;clip-rule:evenodd;fill:#365215;" d="M87.181,45.605c1.01-0.708,1.932-1.146,2.767-1.313
		c-0.087,0.209-0.153,0.542-0.198,1c4.92-2.209,8.282-3.688,10.082-4.438c3.954-1.626,7.469-2.793,10.543-3.501
		c2.153-0.501,4.656-0.792,7.513-0.876c0.834-0.041,3.359-0.063,7.577-0.063c6.369,0,11.025,0.479,13.969,1.438
		c-2.943-0.334-7.907-0.084-14.892,0.75c-4.393,0.542-8.719,1.604-12.98,3.188c-1.273,0.459-5.403,2.188-12.388,5.19l-1.911,0.25
		c0.527-0.71,1.516-1.459,2.965-2.252c1.669-0.791,2.812-1.375,3.427-1.75c1.713-1.041,3.646-1.96,5.798-2.751
		c-1.757,0.124-3.82,0.729-6.194,1.813c-2.679,1.333-4.634,2.292-5.863,2.876c-4.086,2.041-7.358,3.355-9.818,3.939
		c-0.308-0.876-1.361-0.855-3.163,0.062c-1.933,1.167-3.097,1.835-3.491,2.001c-0.221,0.125-0.813,0.396-1.78,0.813
		c-0.615,0.292-1.098,0.563-1.449,0.813l1.647-1.563c2.46-1.666,4.283-2.938,5.469-3.813C85.862,46.628,86.653,46.023,87.181,45.605
		z"/>
	<path style="fill-rule:evenodd;clip-rule:evenodd;fill:#365215;" d="M75.979,55.234l-0.593,1.188l-0.528,0.813l-1.515,0.812
		C74.397,57.214,75.274,56.276,75.979,55.234z"/>
	<path style="fill-rule:evenodd;clip-rule:evenodd;fill:#2F4712;" d="M103.653,43.23c-0.615,0.375-1.758,0.959-3.427,1.75
		c-1.449,0.793-2.438,1.542-2.965,2.252l1.911-0.25l-8.896,3.563c-5.711,2.168-10.851,4.397-15.42,6.691l0.528-0.813l0.593-1.188
		l0.33-0.499c0.351-0.626,0.812-1.272,1.383-1.939c0.352-0.249,0.834-0.521,1.449-0.813c0.967-0.416,1.56-0.688,1.78-0.813
		c0.395-0.166,1.559-0.834,3.491-2.001c1.802-0.917,2.855-0.938,3.163-0.062c2.46-0.584,5.732-1.898,9.818-3.939
		c1.229-0.584,3.185-1.543,5.863-2.876c2.374-1.085,4.438-1.689,6.194-1.813C107.3,41.271,105.366,42.189,103.653,43.23z"/>
	<path style="fill-rule:evenodd;clip-rule:evenodd;fill:#2F4712;" d="M63.261,56.985c0.483,0.292,0.945,0.646,1.384,1.063
		c0.22,0.292,0.593,0.71,1.121,1.251l0.197,0.25l-0.131-0.063c-7.951-2.459-13.53-4.168-16.737-5.127l-1.449-0.438
		c0-0.375,0.219-0.688,0.659-0.938c-0.966-0.667-2.592-1.375-4.876-2.126c-2.284-0.75-3.91-1.479-4.876-2.188
		c0.659,0.167,2.855,0.542,6.589,1.126c2.679,0.458,4.833,1,6.458,1.625c0.395,0.166,1.339,0.771,2.833,1.813
		c1.23,0.875,2.219,1.292,2.965,1.25v-0.813c0.659,0.041,1.647,0.5,2.965,1.376C61.108,55.506,62.074,56.151,63.261,56.985z"/>
	<path style="fill-rule:evenodd;clip-rule:evenodd;fill:#2F4712;" d="M68.993,60.362l0.527,0.562l-0.79,0.625
		c-0.484-0.416-1.165-0.916-2.043-1.499c-0.131-0.292-0.153-0.604-0.066-0.938L68.993,60.362z"/>
	<path style="fill-rule:evenodd;clip-rule:evenodd;fill:#2F4712;" d="M68.73,61.549l0.79-0.625l0.066,0.063
		c-0.395,0.375-0.637,0.584-0.725,0.625L68.73,61.549z"/>
</g>
</svg>
