<?xml version="1.0" encoding="iso-8859-1"?>
<!-- Generator: Adobe Illustrator 15.1.0, SVG Export Plug-In . SVG Version: 6.00 Build 0)  -->
<!DOCTYPE svg PUBLIC "-//W3C//DTD SVG 1.1//EN" "http://www.w3.org/Graphics/SVG/1.1/DTD/svg11.dtd">
<svg version="1.1" id="Layer_1" xmlns="http://www.w3.org/2000/svg" xmlns:xlink="http://www.w3.org/1999/xlink" x="0px" y="0px"
	 width="26.3px" height="146.9px" viewBox="0 0 26.3 146.9" style="enable-background:new 0 0 26.3 146.9;" xml:space="preserve">
<g>
	<path style="fill-rule:evenodd;clip-rule:evenodd;fill:#948854;" d="M15.85,2.35C15.783,2.45,15.7,2.533,15.6,2.6
		c-0.166,0.133-0.383,0.2-0.649,0.2c-0.367,0-0.584,0-0.65,0c-0.2,0.167-0.366,0.267-0.5,0.3l-0.45,0.15
		c-1.2-0.067-2.083-0.1-2.649-0.1c0.033,0,0.367-0.05,1-0.15c0.4-0.133,0.833-0.2,1.3-0.2c0.733,0,1.316-0.1,1.75-0.3
		c0.134-0.067,0.233-0.133,0.3-0.2c-0.3-0.033-0.684-0.117-1.149-0.25c-0.834-0.033-1.484-0.066-1.95-0.1
		c0,0.1-0.017,0.216-0.05,0.35h-1.45c-0.167,0-0.3,0.017-0.4,0.05c-0.1,0.1-0.267,0.2-0.5,0.3C9.25,2.783,9.033,2.867,8.9,2.9
		C8.8,2.967,8.717,3.033,8.65,3.1C9.517,3.4,9.967,3.55,10,3.55h0.9l-0.15,0.2c-0.5-0.033-0.933-0.1-1.3-0.2
		C8.95,3.45,8.633,3.333,8.5,3.2C8.1,3.433,7.817,3.517,7.65,3.45l0.6-0.35C8.383,3.033,8.567,2.883,8.8,2.65
		C9.033,2.517,9.267,2.4,9.5,2.3c-0.367,0-0.683-0.05-0.95-0.15c-0.333-0.1-0.5-0.233-0.5-0.4V1.7l-2.3-0.15
		c-0.1,0.233,0.033,0.483,0.4,0.75C6.517,2.567,7,2.767,7.6,2.9c-0.833,0-1.383-0.066-1.65-0.2c-0.1-0.067-0.5-0.483-1.2-1.25
		L4.15,1.4c0.033-0.167,0.333-0.233,0.9-0.2c0.034,0,0.067,0,0.1,0C5.583,1,6.133,0.867,6.8,0.8c0.5-0.033,1.233-0.033,2.2,0
		l0.8,0.25c-1.367,0-2.133,0.017-2.3,0.05C7.167,1.233,6.9,1.333,6.7,1.4l0.9,0.1c0.133,0,0.316,0.033,0.55,0.1
		c0.067-0.067,0.2-0.117,0.4-0.15L10.4,1.5L10,1.55C9.833,1.617,9.567,1.667,9.2,1.7c-0.133,0-0.25,0.017-0.35,0.05h-0.1
		c-0.133,0-0.25,0-0.35,0C8.367,1.917,8.9,2,10,2c0.1,0,0.2,0,0.3,0c0.034,0,0.067,0,0.1,0s0.067,0,0.1,0
		c0.7,0,1.083-0.017,1.15-0.05L11,1.9L10.5,2c0.167-0.233,0.467-0.433,0.9-0.6c0.233-0.133,0.483-0.217,0.75-0.25L12.3,1h1.2
		c0.233,0,0.45,0.017,0.65,0.05c0.065,0,0.149,0,0.25,0C14.365,1.051,14.332,1.068,14.3,1.1c0.066,0,0.15,0.017,0.25,0.05
		c0.634,0.067,1.033,0.267,1.2,0.6c0.066,0.133,0.116,0.267,0.15,0.4h0.149C16.05,2.25,15.983,2.317,15.85,2.35z M11.55,1.75
		C11.517,1.683,11.5,1.633,11.5,1.6c-0.133,0-0.25,0.017-0.35,0.05C11.183,1.683,11.317,1.717,11.55,1.75z M10.65,0.65L10.9,0.3
		c-0.1,0.233-0.183,0.6-0.25,1.1C10.417,1.333,10.417,1.083,10.65,0.65z M15.1,2.05c0-0.066-0.017-0.117-0.05-0.15
		c-0.066-0.1-0.217-0.183-0.45-0.25c-0.233-0.033-0.399-0.066-0.5-0.1c-0.267-0.066-0.5-0.133-0.699-0.2L12.45,1.6
		c-0.233,0-0.45,0-0.65,0c0.034,0.033,0.067,0.083,0.1,0.15c0.033,0,0.067,0,0.1,0l1.45-0.05C14.083,1.767,14.6,1.867,15,2
		L15.1,2.05z"/>
	<path style="fill-rule:evenodd;clip-rule:evenodd;fill:#BCAC6A;" d="M15.85,2.35c0.134-0.033,0.2-0.1,0.2-0.2H15.9
		c-0.034-0.133-0.084-0.267-0.15-0.4c-0.167-0.333-0.566-0.533-1.2-0.6c-0.1-0.033-0.184-0.05-0.25-0.05
		c0.032-0.032,0.065-0.049,0.101-0.05c-0.101,0-0.185,0-0.25,0C13.95,1.017,13.733,1,13.5,1h-1.2l-0.15,0.15
		c-0.267,0.033-0.517,0.117-0.75,0.25c-0.433,0.167-0.733,0.367-0.9,0.6L11,1.9l0.65,0.05C11.583,1.983,11.2,2,10.5,2
		c-0.033,0-0.067,0-0.1,0s-0.066,0-0.1,0c-0.1,0-0.2,0-0.3,0C8.9,2,8.367,1.917,8.4,1.75c0.1,0,0.217,0,0.35,0h0.1
		C8.95,1.717,9.067,1.7,9.2,1.7C9.567,1.667,9.833,1.617,10,1.55l0.4-0.05L8.55,1.45c-0.2,0.033-0.333,0.083-0.4,0.15
		C7.917,1.533,7.733,1.5,7.6,1.5L6.7,1.4c0.2-0.066,0.466-0.167,0.8-0.3c0.167-0.033,0.933-0.05,2.3-0.05L9,0.8
		c-0.967-0.033-1.7-0.033-2.2,0C6.133,0.867,5.583,1,5.15,1.2c-0.033,0-0.066,0-0.1,0c-0.566-0.034-0.867,0.033-0.9,0.2l0.6,0.05
		c0.7,0.767,1.1,1.183,1.2,1.25C6.217,2.833,6.767,2.9,7.6,2.9C7,2.767,6.517,2.567,6.15,2.3c-0.367-0.267-0.5-0.517-0.4-0.75
		l2.3,0.15v0.05c0,0.167,0.167,0.3,0.5,0.4C8.817,2.25,9.133,2.3,9.5,2.3C9.267,2.4,9.033,2.517,8.8,2.65
		C8.567,2.883,8.383,3.033,8.25,3.1l-0.6,0.35C7.817,3.517,8.1,3.433,8.5,3.2c0.133,0.133,0.45,0.25,0.95,0.35
		c0.367,0.1,0.8,0.167,1.3,0.2l0.15-0.2H10c-0.033,0-0.483-0.15-1.35-0.45C8.717,3.033,8.8,2.967,8.9,2.9
		c0.133-0.033,0.35-0.117,0.65-0.25c0.233-0.1,0.4-0.2,0.5-0.3c0.1-0.033,0.233-0.05,0.4-0.05h1.45c0.033-0.133,0.05-0.25,0.05-0.35
		c0.466,0.033,1.116,0.066,1.95,0.1c0.466,0.133,0.85,0.217,1.149,0.25c-0.066,0.067-0.166,0.133-0.3,0.2
		C14.316,2.7,13.733,2.8,13,2.8c-0.467,0-0.9,0.067-1.3,0.2c-0.633,0.1-0.967,0.15-1,0.15c0.566,0,1.45,0.033,2.649,0.1L13.8,3.1
		c0.134-0.033,0.3-0.133,0.5-0.3c0.066,0,0.283,0,0.65,0c0.267,0,0.483-0.066,0.649-0.2C15.7,2.533,15.783,2.45,15.85,2.35z
		 M17.05,2.65c-0.399,0.233-0.899,0.483-1.5,0.75c-1.767,0.767-3.783,1.133-6.05,1.1C7.733,4.467,6.15,3.95,4.75,2.95L3.15,1.5
		L4.8,0.75C6.333,0.25,8.167,0,10.3,0c2.167,0,3.983,0.367,5.45,1.1C16.483,1.433,17,1.783,17.3,2.15L17.2,2.5
		C17.134,2.533,17.083,2.583,17.05,2.65z M15.1,2.05L15,2c-0.4-0.133-0.917-0.233-1.55-0.3L12,1.75c-0.033,0-0.067,0-0.1,0
		c-0.033-0.067-0.066-0.117-0.1-0.15c0.2,0,0.417,0,0.65,0l0.95-0.25c0.199,0.066,0.433,0.133,0.699,0.2
		c0.101,0.034,0.267,0.067,0.5,0.1c0.233,0.067,0.384,0.15,0.45,0.25C15.083,1.933,15.1,1.983,15.1,2.05z M10.65,0.65
		c-0.233,0.434-0.233,0.684,0,0.75c0.067-0.5,0.15-0.867,0.25-1.1L10.65,0.65z M11.55,1.75c-0.233-0.033-0.367-0.067-0.4-0.1
		c0.1-0.033,0.217-0.05,0.35-0.05C11.5,1.633,11.517,1.683,11.55,1.75z"/>
	<linearGradient id="SVGID_1_" gradientUnits="userSpaceOnUse" x1="3.1875" y1="69.1353" x2="20.3125" y2="69.1353">
		<stop  offset="0" style="stop-color:#BFBEBB"/>
		<stop  offset="0.2941" style="stop-color:#DFDDD7"/>
		<stop  offset="1" style="stop-color:#686661"/>
	</linearGradient>
	<path style="fill-rule:evenodd;clip-rule:evenodd;fill:url(#SVGID_1_);" d="M17.05,2.65c0.033-0.066,0.084-0.117,0.15-0.15
		c0.066-0.133,0.133-0.25,0.2-0.35L17.1,27.85c-0.1,11.3-0.116,21.167-0.05,29.6L17,56.55c-1.434,0.7-3.434,1.1-6,1.2
		c-2.9,0.067-5.017-0.433-6.35-1.5c0-4.8,0-8.8,0-12c1.867,0.767,3.817,1.1,5.85,1c2.4-0.133,4.55-0.483,6.45-1.05l0.1-14.05
		c-2.166,1.167-4.6,1.7-7.3,1.6c-2.1-0.1-3.883-0.783-5.35-2.05c-0.066-3.067-0.167-6.217-0.3-9.45c1.8,0.867,3.683,1.367,5.65,1.5
		c2.633,0.133,5.1-0.417,7.4-1.65L17.3,8.45C14.733,9.883,11.717,10.4,8.25,10c-1.667-0.2-3.233-0.9-4.7-2.1l0.1,2.9l-0.5-9.3
		L4.35,3C5.583,4.067,7.3,4.7,9.5,4.9c1.9,0.167,3.7-0.133,5.4-0.9l0.5-0.25c0.166-0.067,0.316-0.15,0.449-0.25
		c0.101-0.067,0.217-0.133,0.351-0.2l0.35-0.25c0.298-0.208,0.556-0.416,0.775-0.625C17.241,2.5,17.15,2.575,17.05,2.65z M4.45,81.2
		c0.033-4.566,0.066-8.8,0.1-12.7c1.133,1.2,3.034,1.867,5.7,2c2.667,0.1,4.95-0.25,6.85-1.05v-0.9c0.034,1.6,0.067,3.133,0.101,4.6
		c0.033,2.254,0.116,4.854,0.25,7.8V81c-1.9,1.167-4.3,1.75-7.2,1.75C8.183,82.75,6.25,82.233,4.45,81.2z M4.35,93.25
		c0.8,2,2.683,3,5.65,3c3.267,0,5.917-0.566,7.95-1.7c0.166,3.733,0.35,7.8,0.55,12.2c-0.5,0.9-1.333,1.583-2.5,2.05
		c-1.366,0.5-3.45,0.816-6.25,0.95c-2.3,0.033-4.15-0.283-5.55-0.95L4.05,121.4c1.3,1.666,3.284,2.533,5.95,2.6
		c4.3,0.134,7.366-0.967,9.2-3.3c0.2,3.566,0.399,7.3,0.6,11.2v0.1c-0.066,1.533-0.916,2.684-2.55,3.45c-1.467,0.666-3.8,1.1-7,1.3
		c-2.2,0.134-4.317-0.384-6.35-1.55l-0.025,0.675C4.063,119.755,4.221,105.546,4.35,93.25z"/>
	<path style="fill-rule:evenodd;clip-rule:evenodd;fill:#E3D8A8;" d="M3.15,1.5l1.6,1.45c1.4,1,2.983,1.517,4.75,1.55
		c2.267,0.033,4.283-0.333,6.05-1.1c0.601-0.267,1.101-0.517,1.5-0.75c0.101-0.075,0.191-0.15,0.275-0.225
		c-0.22,0.209-0.478,0.417-0.775,0.625L16.2,3.3c-0.134,0.067-0.25,0.133-0.351,0.2c-0.133,0.1-0.283,0.183-0.449,0.25L14.9,4
		c-1.7,0.767-3.5,1.067-5.4,0.9C7.3,4.7,5.583,4.067,4.35,3L3.15,1.5z"/>
	<linearGradient id="SVGID_2_" gradientUnits="userSpaceOnUse" x1="6" y1="14.835" x2="17" y2="14.835">
		<stop  offset="0" style="stop-color:#4D4C4B"/>
		<stop  offset="0.2941" style="stop-color:#706F6C"/>
		<stop  offset="1" style="stop-color:#1A1918"/>
	</linearGradient>
	<path style="fill-rule:evenodd;clip-rule:evenodd;fill:url(#SVGID_2_);" d="M4.1,20.25c-0.033-0.8-0.067-1.583-0.1-2.35
		c-0.067-1.4-0.133-2.816-0.2-4.25L3.65,10.8l-0.1-2.9c1.467,1.2,3.034,1.9,4.7,2.1c3.467,0.4,6.483-0.117,9.05-1.55L17.15,20.1
		c-2.301,1.233-4.767,1.783-7.4,1.65C7.783,21.617,5.9,21.117,4.1,20.25z"/>
	<linearGradient id="SVGID_3_" gradientUnits="userSpaceOnUse" x1="6" y1="37.4834" x2="17" y2="37.4834">
		<stop  offset="0" style="stop-color:#4D4C4B"/>
		<stop  offset="0.2941" style="stop-color:#706F6C"/>
		<stop  offset="1" style="stop-color:#1A1918"/>
	</linearGradient>
	<path style="fill-rule:evenodd;clip-rule:evenodd;fill:url(#SVGID_3_);" d="M4.65,44.25L4.6,40.3c-0.033-3.4-0.1-6.933-0.2-10.6
		c1.467,1.267,3.25,1.95,5.35,2.05c2.7,0.1,5.134-0.433,7.3-1.6l-0.1,14.05c-1.9,0.566-4.05,0.917-6.45,1.05
		C8.467,45.35,6.517,45.017,4.65,44.25z"/>
	<linearGradient id="SVGID_4_" gradientUnits="userSpaceOnUse" x1="6" y1="63.3584" x2="17" y2="63.3584">
		<stop  offset="0" style="stop-color:#4D4C4B"/>
		<stop  offset="0.2941" style="stop-color:#706F6C"/>
		<stop  offset="1" style="stop-color:#1A1918"/>
	</linearGradient>
	<path style="fill-rule:evenodd;clip-rule:evenodd;fill:url(#SVGID_4_);" d="M4.65,56.25c1.333,1.067,3.45,1.567,6.35,1.5
		c2.566-0.1,4.566-0.5,6-1.2l0.05,0.9v3.9c0,0.3,0,0.6,0,0.9l0.05,6.3v0.9c-1.899,0.8-4.183,1.15-6.85,1.05
		c-2.667-0.133-4.567-0.8-5.7-2L4.6,56.2L4.65,56.25z"/>
	<linearGradient id="SVGID_5_" gradientUnits="userSpaceOnUse" x1="6" y1="88.625" x2="17" y2="88.625">
		<stop  offset="0" style="stop-color:#4D4C4B"/>
		<stop  offset="0.2941" style="stop-color:#706F6C"/>
		<stop  offset="1" style="stop-color:#1A1918"/>
	</linearGradient>
	<path style="fill-rule:evenodd;clip-rule:evenodd;fill:url(#SVGID_5_);" d="M17.95,94.55c-2.033,1.134-4.684,1.7-7.95,1.7
		c-2.967,0-4.85-1-5.65-3l0.1-12.05c1.8,1.033,3.733,1.55,5.8,1.55c2.9,0,5.3-0.583,7.2-1.75c0.101,3.625,0.284,8.125,0.55,13.5
		L17.95,94.55z"/>
	<linearGradient id="SVGID_6_" gradientUnits="userSpaceOnUse" x1="6" y1="115.3301" x2="17" y2="115.3301">
		<stop  offset="0" style="stop-color:#4D4C4B"/>
		<stop  offset="0.2941" style="stop-color:#706F6C"/>
		<stop  offset="1" style="stop-color:#1A1918"/>
	</linearGradient>
	<path style="fill-rule:evenodd;clip-rule:evenodd;fill:url(#SVGID_6_);" d="M19.2,120.7c-1.834,2.333-4.9,3.434-9.2,3.3
		c-2.667-0.066-4.65-0.934-5.95-2.6L4.2,108.8c1.4,0.667,3.25,0.983,5.55,0.95c2.8-0.134,4.884-0.45,6.25-0.95
		c1.167-0.467,2-1.149,2.5-2.05c0.033-0.033,0.05-0.066,0.05-0.1L19.2,120.7z"/>
	<linearGradient id="SVGID_7_" gradientUnits="userSpaceOnUse" x1="6" y1="139.0498" x2="17" y2="139.0498">
		<stop  offset="0" style="stop-color:#4D4C4B"/>
		<stop  offset="0.2941" style="stop-color:#706F6C"/>
		<stop  offset="1" style="stop-color:#1A1918"/>
	</linearGradient>
	<path style="fill-rule:evenodd;clip-rule:evenodd;fill:url(#SVGID_7_);" d="M19.8,132c0.066,1.533,0.15,3.1,0.25,4.7
		c0,0.3,0.017,0.616,0.05,0.95c0,0.199,0.017,0.416,0.051,0.649c0.033,1.033,0.083,2.084,0.149,3.15l-0.149,0.75l-1,1.2
		c-0.667,0.866-1.483,1.483-2.45,1.85c-0.601,0.233-1.617,0.45-3.05,0.65c-0.301,0.033-0.584,0.066-0.851,0.1h-0.05
		c-0.4,0.033-0.783,0.066-1.15,0.1c-1.133,0-2.133-0.133-3-0.399l-2.05-1c-0.267-0.167-0.533-0.334-0.8-0.5
		c-0.2-0.134-0.4-0.267-0.6-0.4l-0.6-0.45c-0.033-0.033-0.066-0.05-0.1-0.05c-0.034-0.033-0.067-0.066-0.1-0.1
		c-0.133-0.134-0.317-0.233-0.55-0.3l0.05-4.976c0-0.108,0-0.217,0-0.325l0.025-1.725L3.9,135.2c2.033,1.166,4.15,1.684,6.35,1.55
		c3.2-0.2,5.533-0.634,7-1.3C18.884,134.684,19.733,133.533,19.8,132z"/>
	
		<radialGradient id="SVGID_8_" cx="13.1504" cy="142" r="13.1625" gradientTransform="matrix(1 0 0 -0.4691 0 208.6173)" gradientUnits="userSpaceOnUse">
		<stop  offset="0" style="stop-color:#000000;stop-opacity:0.5882"/>
		<stop  offset="1" style="stop-color:#000000;stop-opacity:0"/>
	</radialGradient>
	<path style="fill-rule:evenodd;clip-rule:evenodd;fill:url(#SVGID_8_);" d="M5.75,144.2c-0.5-0.066-1.067-0.134-1.7-0.2
		c-1.667-0.2-2.966-0.55-3.9-1.05C0.05,142.65,0,142.333,0,142c0-1.733,1.283-3.2,3.85-4.4c0,0.108,0,0.217,0,0.325L3.8,142.9
		c0.233,0.066,0.417,0.166,0.55,0.3c0.033,0.033,0.066,0.066,0.1,0.1c0.033,0,0.066,0.017,0.1,0.05l0.6,0.45
		C5.35,143.934,5.55,144.066,5.75,144.2z M20.05,136.7c0.834,0.233,1.634,0.533,2.4,0.899c2.566,1.2,3.85,2.667,3.85,4.4
		c0,1.4-0.934,2.667-2.8,3.8c-2.2,0.967-5.2,1.283-9,0.95c-0.833-0.066-1.8-0.283-2.9-0.65c0.367-0.033,0.75-0.066,1.15-0.1h0.05
		c0.867,0.066,1.566,0.083,2.101,0.05c1.3-0.066,2.483-0.383,3.55-0.95c2.467-1.233,3.934-2.416,4.399-3.55
		c0.301-0.767,0.167-1.467-0.399-2.1c-0.533-0.634-1.283-1.017-2.25-1.15h-0.05c-0.034-0.233-0.051-0.45-0.051-0.649
		C20.066,137.316,20.05,137,20.05,136.7z"/>
	
		<radialGradient id="SVGID_9_" cx="15.75" cy="142.5498" r="6.525" gradientTransform="matrix(1 0 0 -0.841 0 262.4337)" gradientUnits="userSpaceOnUse">
		<stop  offset="0" style="stop-color:#000000;stop-opacity:0.3255"/>
		<stop  offset="1" style="stop-color:#000000;stop-opacity:0.3255"/>
	</radialGradient>
	<path style="fill-rule:evenodd;clip-rule:evenodd;fill:url(#SVGID_9_);" d="M20.15,138.3h0.05c0.967,0.134,1.717,0.517,2.25,1.15
		c0.566,0.633,0.7,1.333,0.399,2.1c-0.466,1.134-1.933,2.316-4.399,3.55c-1.066,0.567-2.25,0.884-3.55,0.95
		c-0.534,0.033-1.233,0.017-2.101-0.05c0.267-0.033,0.55-0.066,0.851-0.1c1.433-0.2,2.449-0.417,3.05-0.65
		c0.967-0.366,1.783-0.983,2.45-1.85l1-1.2l0.149-0.75C20.233,140.384,20.184,139.333,20.15,138.3z"/>
</g>
</svg>
