<?xml version="1.0" encoding="iso-8859-1"?>
<!-- Generator: Adobe Illustrator 15.1.0, SVG Export Plug-In . SVG Version: 6.00 Build 0)  -->
<!DOCTYPE svg PUBLIC "-//W3C//DTD SVG 1.1//EN" "http://www.w3.org/Graphics/SVG/1.1/DTD/svg11.dtd">
<svg version="1.1" id="FlashAICB" xmlns="http://www.w3.org/2000/svg" xmlns:xlink="http://www.w3.org/1999/xlink" x="0px" y="0px"
	 width="131.95px" height="78.35px" viewBox="0 0 131.95 78.35" style="enable-background:new 0 0 131.95 78.35;"
	 xml:space="preserve">
<symbol  id="arrow" viewBox="0 -78.35 110.2 78.35">
	<g id="Layer_1_3_">
		<path style="fill-rule:evenodd;clip-rule:evenodd;fill:#FFFFFF;fill-opacity:0.4196;" d="M106.85-30.9
			c2.233-2.3,3.35-5.05,3.35-8.25c0-3.233-1.117-5.967-3.35-8.2l-27.6-27.6c-2.233-2.267-4.933-3.4-8.1-3.4
			c-3.133,0-5.833,1.133-8.1,3.4L61.2-73.1c-2.233,2.233-3.35,4.917-3.35,8.05c0,3.167,1.117,5.867,3.35,8.1l5.05,5.05h-54.8
			c-3.133,0-5.833,1.117-8.1,3.35C1.117-46.317,0-43.617,0-40.45v2.6c0,3.167,1.117,5.867,3.35,8.1s4.933,3.35,8.1,3.35h54.8
			l-5.05,5.05c-2.233,2.233-3.35,4.934-3.35,8.1c0,3.133,1.117,5.833,3.35,8.1l1.85,1.8C65.317-1.117,68.017,0,71.15,0
			c3.167,0,5.867-1.117,8.1-3.35L106.85-30.9z"/>
		<path style="fill-rule:evenodd;clip-rule:evenodd;fill:#D4D4D4;fill-opacity:0;" d="M106.85-30.9c2.233-2.3,3.35-5.05,3.35-8.25
			l-0.05-1.1c-21.033,4.633-42.833,6.583-65.4,5.85C29.15-34.9,14.233-36.617,0-39.55v1.7c0,3.167,1.117,5.867,3.35,8.1
			s4.933,3.35,8.1,3.35h54.8l-5.05,5.05c-2.233,2.233-3.35,4.934-3.35,8.1c0,3.133,1.117,5.833,3.35,8.1l1.85,1.8
			C65.317-1.117,68.017,0,71.15,0c3.167,0,5.867-1.117,8.1-3.35L106.85-30.9z"/>
		<linearGradient id="SVGID_1_" gradientUnits="userSpaceOnUse" x1="58.8501" y1="-13.2334" x2="78.8251" y2="-13.2334">
			<stop  offset="0" style="stop-color:#FFFFFF;stop-opacity:0"/>
			<stop  offset="0.502" style="stop-color:#FFFFFF"/>
			<stop  offset="1" style="stop-color:#FFFFFF;stop-opacity:0"/>
		</linearGradient>
		<path style="fill-rule:evenodd;clip-rule:evenodd;fill:url(#SVGID_1_);" d="M64.8-5.1l-1.85-1.8c-2.233-2.267-3.35-4.967-3.35-8.1
			c0-3.167,1.117-5.867,3.35-8.1l1.55-1.5l0.4-0.65l-2.7,2.65c-2.233,2.233-3.35,4.933-3.35,8.1c0,3.133,1.117,5.833,3.35,8.1
			l1.85,1.8c2,2,4.417,3.117,7.25,3.35c2.767,0.2,5.283-0.517,7.55-2.15c-2.233,1.367-4.65,1.9-7.25,1.6
			C68.934-2.1,66.667-3.2,64.8-5.1z"/>
		<linearGradient id="SVGID_2_" gradientUnits="userSpaceOnUse" x1="1" y1="-39.5498" x2="67.5503" y2="-39.5498">
			<stop  offset="0" style="stop-color:#FFFFFF;stop-opacity:0"/>
			<stop  offset="0.502" style="stop-color:#FFFFFF"/>
			<stop  offset="1" style="stop-color:#FFFFFF;stop-opacity:0"/>
		</linearGradient>
		<path style="fill-rule:evenodd;clip-rule:evenodd;fill:url(#SVGID_2_);" d="M66.95-27.65l0.6-0.5H13.2
			c-3.167,0-5.867-1.117-8.1-3.35c-2.233-2.233-3.35-4.933-3.35-8.1v-2.6c0-1.867,0.434-3.617,1.3-5.25
			c0.833-1.6,1.983-2.934,3.45-4c-1.667,1-3,2.367-4,4.1S1-43.733,1-41.7v2.6c0,3.167,1.117,5.867,3.35,8.1
			c2.233,2.233,4.934,3.35,8.1,3.35H66.95z"/>
		<linearGradient id="SVGID_3_" gradientUnits="userSpaceOnUse" x1="58.8877" y1="-65.7749" x2="68.0127" y2="-65.7749">
			<stop  offset="0" style="stop-color:#FFFFFF;stop-opacity:0"/>
			<stop  offset="0.502" style="stop-color:#FFFFFF"/>
			<stop  offset="1" style="stop-color:#FFFFFF;stop-opacity:0"/>
		</linearGradient>
		<path style="fill-rule:evenodd;clip-rule:evenodd;fill:url(#SVGID_3_);" d="M62.2-58.2l4.55,4.55H68l-5.05-5.05
			c-2.233-2.233-3.35-4.934-3.35-8.1c0-3.133,1.117-5.816,3.35-8.05l1.85-1.85c0.333-0.333,0.8-0.733,1.4-1.2
			c-0.9,0.6-1.617,1.167-2.15,1.7l-1.85,1.85c-2.233,2.233-3.35,4.917-3.35,8.05C58.85-63.133,59.967-60.433,62.2-58.2z"/>
		<use xlink:href="#shadow"  width="72.275" height="78.35" y="-78.35" style="overflow:visible;"/>
	</g>
</symbol>
<symbol  id="shadow" viewBox="0 -78.35 72.275 78.35">
	<g id="Layer_1_2_">
		<path style="fill-rule:evenodd;clip-rule:evenodd;" d="M72.275-0.05c-2.658-0.237-4.983-1.337-6.975-3.3l-1.85-1.8
			c-2.233-2.267-3.35-4.967-3.35-8.1c0-3.167,1.117-5.867,3.35-8.1l5.05-5.05h-2.25l-5.05,5.05c-2.233,2.233-3.35,4.934-3.35,8.1
			c0,3.133,1.117,5.833,3.35,8.1l1.85,1.8C65.317-1.117,68.017,0,71.15,0C71.534,0,71.909-0.017,72.275-0.05z M11.45-26.4h1.975
			c-3.049-0.066-5.658-1.183-7.825-3.35c-2.233-2.233-3.35-4.933-3.35-8.1v-2.6c0-3.167,1.117-5.867,3.35-8.1
			c2.198-2.167,4.807-3.283,7.825-3.35H11.45c-3.133,0-5.833,1.117-8.1,3.35C1.117-46.317,0-43.617,0-40.45v2.6
			c0,3.167,1.117,5.867,3.35,8.1S8.283-26.4,11.45-26.4z M66.25-51.9h2.25l-5.05-5.05c-2.233-2.233-3.35-4.933-3.35-8.1
			c0-3.133,1.117-5.817,3.35-8.05l1.85-1.85c1.992-1.992,4.317-3.108,6.975-3.35c-0.366-0.034-0.741-0.05-1.125-0.05
			c-3.133,0-5.833,1.133-8.1,3.4L61.2-73.1c-2.233,2.233-3.35,4.917-3.35,8.05c0,3.167,1.117,5.867,3.35,8.1L66.25-51.9z"/>
	</g>
</symbol>
<use xlink:href="#arrow"  width="110.2" height="78.35" y="-78.35" transform="matrix(1 0 0 -1 0 0)" style="overflow:visible;opacity:0.3203;"/>
</svg>
