<?xml version="1.0" encoding="iso-8859-1"?>
<!-- Generator: Adobe Illustrator 15.1.0, SVG Export Plug-In . SVG Version: 6.00 Build 0)  -->
<!DOCTYPE svg PUBLIC "-//W3C//DTD SVG 1.1//EN" "http://www.w3.org/Graphics/SVG/1.1/DTD/svg11.dtd">
<svg version="1.1" id="Layer_1" xmlns="http://www.w3.org/2000/svg" xmlns:xlink="http://www.w3.org/1999/xlink" x="0px" y="0px"
	 width="60.8px" height="25.85px" viewBox="0 0 60.8 25.85" style="enable-background:new 0 0 60.8 25.85;" xml:space="preserve">
<g>
	
		<linearGradient id="SVGID_1_" gradientUnits="userSpaceOnUse" x1="-0.6377" y1="-56.0967" x2="4.8985" y2="-56.0967" gradientTransform="matrix(-0.3432 0.9393 -0.9393 -0.3432 -6.017089e-004 3.597736e-004)">
		<stop  offset="0" style="stop-color:#B23F2F"/>
		<stop  offset="0.2941" style="stop-color:#D36041"/>
		<stop  offset="1" style="stop-color:#641C11"/>
	</linearGradient>
	<path style="fill-rule:evenodd;clip-rule:evenodd;fill:url(#SVGID_1_);" d="M50,16.55c0-0.033,0.017-0.05,0.05-0.05l4.9,1.6
		c0.2,0.067,0.416,0.134,0.649,0.2c-0.767,0.101-1.333,0.533-1.699,1.3c-0.367,0.767-0.417,1.65-0.15,2.65
		c0.267,1.066,0.884,2.116,1.85,3.15C55.4,25.333,55.2,25.267,55,25.2l-4.85-1.7c-1.7-1.5-2.5-2.967-2.4-4.4
		C47.816,17.733,48.566,16.884,50,16.55z"/>
	
		<linearGradient id="SVGID_2_" gradientUnits="userSpaceOnUse" x1="-0.0864" y1="-32.6563" x2="6.0805" y2="-32.6563" gradientTransform="matrix(-0.3284 0.9446 -0.9446 -0.3284 4.305243e-004 5.251169e-005)">
		<stop  offset="0" style="stop-color:#BFBEBB"/>
		<stop  offset="0.2941" style="stop-color:#DFDDD7"/>
		<stop  offset="1" style="stop-color:#686661"/>
	</linearGradient>
	<path style="fill-rule:evenodd;clip-rule:evenodd;fill:url(#SVGID_2_);" d="M50,16.55c-1.434,0.334-2.184,1.184-2.25,2.55
		c-0.1,1.434,0.7,2.9,2.4,4.4c-2.667-0.967-4.967-1.783-6.9-2.45c-0.8-0.967-1.3-1.899-1.5-2.8c-0.233-0.934-0.217-1.767,0.05-2.5
		s0.733-1.2,1.4-1.4C45.366,15.05,47.634,15.783,50,16.55z M55.6,18.3c0.9,0.267,1.817,0.55,2.75,0.851l1.45,0.35
		c0.9,0.533,1.184,1.533,0.851,3c-0.467,1.934-1.284,3.05-2.45,3.35l-1.65-0.1c-0.333-0.134-0.649-0.25-0.95-0.35
		c-0.966-1.034-1.583-2.084-1.85-3.15c-0.267-1-0.217-1.884,0.15-2.65C54.267,18.833,54.833,18.4,55.6,18.3z M25.7,14.5
		c-1.667-0.634-3.517-1.35-5.55-2.15c-0.6-0.833-1.017-1.65-1.25-2.45c-0.4-1.433-0.167-2.566,0.7-3.4
		c2.233,0.8,4.333,1.533,6.3,2.2c-1.066,0.5-1.617,1.3-1.65,2.4C24.15,12.1,24.633,13.233,25.7,14.5z M31.35,10.5
		c2,0.667,4.134,1.367,6.4,2.1c-1.3,0.367-1.967,1.2-2,2.5c-0.1,1.233,0.566,2.567,2,4c-1.1-0.399-1.866-0.683-2.3-0.85
		c-0.8-0.3-2.101-0.783-3.9-1.45c-0.666-0.899-1.1-1.75-1.3-2.55c-0.233-0.833-0.233-1.6,0-2.3C30.45,11.283,30.816,10.8,31.35,10.5
		z M14.2,10L8.6,7.8l0.75,0.25C8.817,7.283,8.467,6.567,8.3,5.9C7.933,4.5,8.133,3.383,8.9,2.55l-5.25-2
		C2.85,0.983,2.4,1.717,2.3,2.75C2.267,3.65,2.633,4.633,3.4,5.7L1.75,5.05L1,4.35C0.6,3.983,0.317,3.5,0.15,2.9
		c-0.2-0.667-0.167-1.25,0.1-1.75c0.2-0.433,0.6-0.75,1.2-0.95C1.75,0.1,2.033,0.033,2.3,0l8.9,3.4
		c1.466,0.533,2.883,1.067,4.25,1.6L14.2,4.55c-0.833,0.434-1.267,1.167-1.3,2.2C12.8,7.717,13.233,8.8,14.2,10z"/>
	
		<linearGradient id="SVGID_3_" gradientUnits="userSpaceOnUse" x1="-0.2549" y1="-43.2188" x2="5.2814" y2="-43.2188" gradientTransform="matrix(-0.3432 0.9393 -0.9393 -0.3432 -6.017089e-004 3.597736e-004)">
		<stop  offset="0" style="stop-color:#B23F2F"/>
		<stop  offset="0.2941" style="stop-color:#D36041"/>
		<stop  offset="1" style="stop-color:#641C11"/>
	</linearGradient>
	<path style="fill-rule:evenodd;clip-rule:evenodd;fill:url(#SVGID_3_);" d="M37.75,12.6c0.134,0.066,0.283,0.117,0.45,0.15l5,1.6
		c-0.667,0.2-1.134,0.667-1.4,1.4s-0.283,1.566-0.05,2.5c0.2,0.9,0.7,1.833,1.5,2.8l-5.5-1.95c-1.434-1.433-2.1-2.767-2-4
		C35.783,13.8,36.45,12.967,37.75,12.6z"/>
	
		<linearGradient id="SVGID_4_" gradientUnits="userSpaceOnUse" x1="-0.0605" y1="-30.916" x2="5.4757" y2="-30.916" gradientTransform="matrix(-0.3432 0.9393 -0.9393 -0.3432 -6.017089e-004 3.597736e-004)">
		<stop  offset="0" style="stop-color:#B23F2F"/>
		<stop  offset="0.2941" style="stop-color:#D36041"/>
		<stop  offset="1" style="stop-color:#641C11"/>
	</linearGradient>
	<path style="fill-rule:evenodd;clip-rule:evenodd;fill:url(#SVGID_4_);" d="M31.35,10.5c-0.533,0.3-0.899,0.783-1.1,1.45
		c-0.233,0.7-0.233,1.467,0,2.3c0.2,0.8,0.634,1.65,1.3,2.55l-5.85-2.25V14.5c-1.067-1.267-1.55-2.4-1.45-3.4
		c0.033-1.1,0.583-1.9,1.65-2.4l2.4,0.8c0.167,0.067,0.317,0.117,0.45,0.15c0.2,0.067,0.417,0.133,0.65,0.2L31.35,10.5z"/>
	
		<linearGradient id="SVGID_5_" gradientUnits="userSpaceOnUse" x1="-0.2339" y1="-18.7168" x2="5.3024" y2="-18.7168" gradientTransform="matrix(-0.3432 0.9393 -0.9393 -0.3432 -6.017089e-004 3.597736e-004)">
		<stop  offset="0" style="stop-color:#B23F2F"/>
		<stop  offset="0.2941" style="stop-color:#D36041"/>
		<stop  offset="1" style="stop-color:#641C11"/>
	</linearGradient>
	<path style="fill-rule:evenodd;clip-rule:evenodd;fill:url(#SVGID_5_);" d="M15.45,5l3.6,1.3c0.2,0.067,0.383,0.133,0.55,0.2
		c-0.867,0.833-1.1,1.967-0.7,3.4c0.233,0.8,0.65,1.617,1.25,2.45c-1.133-0.434-2.316-0.9-3.55-1.4L14.2,10
		c-0.967-1.2-1.4-2.283-1.3-3.25c0.033-1.033,0.467-1.767,1.3-2.2L15.45,5z"/>
	
		<linearGradient id="SVGID_6_" gradientUnits="userSpaceOnUse" x1="-0.3657" y1="-7.2651" x2="5.1705" y2="-7.2651" gradientTransform="matrix(-0.3432 0.9393 -0.9393 -0.3432 -6.017089e-004 3.597736e-004)">
		<stop  offset="0" style="stop-color:#B23F2F"/>
		<stop  offset="0.2941" style="stop-color:#D36041"/>
		<stop  offset="1" style="stop-color:#641C11"/>
	</linearGradient>
	<path style="fill-rule:evenodd;clip-rule:evenodd;fill:url(#SVGID_6_);" d="M8.6,7.8L3.4,5.7C2.633,4.633,2.267,3.65,2.3,2.75
		c0.1-1.033,0.55-1.767,1.35-2.2l5.25,2C8.133,3.383,7.933,4.5,8.3,5.9c0.167,0.667,0.517,1.383,1.05,2.15L8.6,7.8z"/>
</g>
</svg>
