<?xml version="1.0" encoding="iso-8859-1"?>
<!-- Generator: Adobe Illustrator 15.1.0, SVG Export Plug-In . SVG Version: 6.00 Build 0)  -->
<!DOCTYPE svg PUBLIC "-//W3C//DTD SVG 1.1//EN" "http://www.w3.org/Graphics/SVG/1.1/DTD/svg11.dtd">
<svg version="1.1" id="FlashAICB" xmlns="http://www.w3.org/2000/svg" xmlns:xlink="http://www.w3.org/1999/xlink" x="0px" y="0px"
	 width="39.3px" height="103.15px" viewBox="0 0 39.3 103.15" style="enable-background:new 0 0 39.3 103.15;" xml:space="preserve"
	>
<symbol  id="FlashAICB_x2F_Layer_5_x2F__x3C_Path_x3E_" viewBox="0.017 -4 17.533 4">
	<g id="Layer_1_2_">
		<path style="fill-rule:evenodd;clip-rule:evenodd;" d="M16.9-1.7c0.167,0,0.317-0.267,0.45-0.8c0.066-0.067,0.117-0.2,0.15-0.4
			h0.05l-0.4-0.4c-0.433-0.133-0.867-0.367-1.3-0.7L15.8-3.95L15.7-3.4c-0.034,0.3-1.167,0.233-3.4-0.2
			c-0.466,0.533-1.417,0.717-2.85,0.55C7.883-3.35,6.833-3.5,6.3-3.5c-0.333,0-0.617-0.15-0.85-0.45
			c-0.067-0.1-0.467,0.117-1.2,0.65c-0.5,0.233-1.1,0.35-1.8,0.35c-0.167,0-0.583-0.083-1.25-0.25H0.55l-0.4,0.55
			c-0.133,0.033-0.167,0.133-0.1,0.3c0.034,0.1,0.067,0.133,0.1,0.1c0.033,0,0.05,0.033,0.05,0.1c0,0.033,0.066,0.05,0.2,0.05
			c0.1,0,0.167,0.1,0.2,0.3l0.05,0.25l0.1,0.15L0.9-1.3h0.2c0.033,0,0.083-0.117,0.15-0.35c0.033-0.233,0.083-0.333,0.15-0.3
			C1.567-1.517,1.733-1.1,1.9-0.7c0.033,0,0.434,0.017,1.2,0.05C3.567-0.617,3.783-0.4,3.75,0c1.733,0,5.3-0.15,10.7-0.45
			C14.75-0.45,15.567-0.867,16.9-1.7z"/>
	</g>
</symbol>
<g>
	<g>
		<g>
			
				<radialGradient id="SVGID_1_" cx="14.5684" cy="100.1846" r="10.8384" gradientTransform="matrix(0.9999 -0.0127 -0.0231 -0.504 6.8936 150.6273)" gradientUnits="userSpaceOnUse">
				<stop  offset="0" style="stop-color:#000000;stop-opacity:0.4196"/>
				<stop  offset="1" style="stop-color:#000000;stop-opacity:0"/>
			</radialGradient>
			<path style="fill-rule:evenodd;clip-rule:evenodd;fill:url(#SVGID_1_);" d="M19.15,93.6c3.033,0,5.633,0.5,7.8,1.5
				c2.133,1,3.2,2.217,3.2,3.65c0,1.3-0.9,2.434-2.7,3.4l-0.3-0.2L25.9,101.6c-0.767-0.5-1.25-0.75-1.45-0.75
				c-0.367,0-0.783-0.116-1.25-0.35c-0.434-0.2-0.851-0.3-1.25-0.3c-0.434-0.334-0.767-0.584-1-0.75
				c-0.467-0.267-0.851-0.217-1.15,0.149c-0.9,0.533-1.483,0.851-1.75,0.95c-0.366,0.167-0.816,0.3-1.35,0.4
				c-0.2,0.066-0.333,0.316-0.4,0.75v-0.05l-1.8-0.9c-0.533-0.267-1.167-0.4-1.9-0.4c-0.167,0-0.583,0.084-1.25,0.25H11.3
				c-0.733-0.066-1.383,0.101-1.95,0.5c-0.8-0.733-1.2-1.517-1.2-2.35c0-1.434,1.083-2.65,3.25-3.65
				C13.533,94.1,16.117,93.6,19.15,93.6z"/>
			
				<use xlink:href="#FlashAICB_x2F_Layer_5_x2F__x3C_Path_x3E_"  width="17.533" height="4" x="0.017" y="-4" transform="matrix(1 0 0 -1 10.1499 97.4004)" style="overflow:visible;opacity:0.1484;enable-background:new    ;"/>
		</g>
		<path style="fill-rule:evenodd;clip-rule:evenodd;fill:#688F2E;" d="M23.6,26.8c-0.133,5.767-0.333,9.317-0.6,10.65
			c-0.167,0.866-0.583,6.55-1.25,17.05c-0.633,9.333-1.017,15.55-1.15,18.65c-0.066,1.732-0.083,6.716-0.05,14.949L20.6,99.95
			c-0.533,0.333-1.25,0.5-2.149,0.5c-0.567,0.033-1.083-0.017-1.55-0.15l-0.5-0.149l0.4-2.4c0.267-2.033,0.4-4.117,0.4-6.25
			c0-1.634,0.4-9,1.2-22.1c0.8-13.268,1.2-21.084,1.2-23.45c0-4.534-0.066-10.034-0.199-16.5L23.6,26.8z"/>
		<path style="fill-rule:evenodd;clip-rule:evenodd;fill:#53751F;" d="M23.6,26.8c-0.1,5.767-0.267,9.317-0.5,10.65
			c-0.166,0.9-0.517,6.583-1.05,17.05c-0.533,9.566-0.85,15.783-0.95,18.65c-0.066,1.732-0.083,6.716-0.05,14.949L21.1,99.95
			c-0.433,0.333-1.05,0.5-1.85,0.5c-0.467,0.033-0.883-0.017-1.25-0.15l-0.4-0.149l0.3-2.4c0.233-2.033,0.333-4.117,0.3-6.25
			c0-1.566,0.35-8.934,1.05-22.1c0.667-13.2,1-21.017,1-23.45c0-4.534-0.05-10.034-0.15-16.5L23.6,26.8z"/>
		<path style="fill-rule:evenodd;clip-rule:evenodd;fill:#3F5918;" d="M21.5,45.8c0.267-2.667-0.033-3.9-0.9-3.7l-0.35-1.2
			L20.1,29.45l3.5-2.65c-0.1,5.767-0.267,9.317-0.5,10.65c-0.166,0.9-0.517,6.583-1.05,17.05c-0.533,9.566-0.85,15.783-0.95,18.65
			c-0.066,1.732-0.083,6.716-0.05,14.949L21.1,99.95c-0.433,0.333-1.05,0.5-1.85,0.5c-0.467,0.033-0.883-0.017-1.25-0.15l-0.4-0.149
			l0.3-2.101c0.167-1.8,0.267-3.649,0.3-5.55c0.233-0.7,0.566-1.2,1-1.5l0.2,0.4c0.133-1.367,0.05-3.967-0.25-7.801
			c-0.234-3.333-0.134-5.933,0.3-7.8c0.866-3.633,1.3-7.649,1.3-12.05c0-1.467-0.033-3.684-0.1-6.65c-0.033-2.666,0-4.883,0.1-6.649
			C20.783,50.183,21.033,48.633,21.5,45.8z"/>
		<path style="fill-rule:evenodd;clip-rule:evenodd;fill:#5A8021;" d="M15.2,43.15c0.667,0.934,1.616,1.934,2.85,3
			c1.2,1.2,1.917,2.533,2.15,4c0.2,1.1,0.066,1.6-0.4,1.5L19.65,51.6c-0.134,0.133-0.4,0.183-0.8,0.15
			c-0.434-0.067-0.717-0.117-0.85-0.15c-1.033-0.167-1.8-0.617-2.3-1.35c-3-4.167-4.05-8.184-3.15-12.05
			c0.267,0.9,0.667,1.816,1.2,2.75C13.95,41.283,14.434,42.017,15.2,43.15z"/>
		<path style="fill-rule:evenodd;clip-rule:evenodd;fill:#4B6B1C;" d="M12.45,43.85c-0.2-0.967-0.317-1.967-0.35-3
			c0-1.267,0.183-2.15,0.55-2.65c-0.167,0.8-0.167,1.883,0,3.25c0.3,1.9,0.684,3.366,1.15,4.4c0.567,1.233,0.934,1.983,1.1,2.25
			c0.434,0.767,0.917,1.283,1.45,1.55c0.4,0.2,0.716,0.167,0.95-0.1c0.233-0.3,0.233-0.7,0-1.2c-1-1.6-1.733-2.833-2.2-3.7
			c0.367,0.3,0.9,0.867,1.6,1.7c0.133,0.133,0.417,0.466,0.85,1c0.434,0.466,0.75,0.716,0.95,0.75c0.367,0.1,0.467-0.117,0.3-0.65
			c-0.1-0.3-0.267-0.717-0.5-1.25l0.45,0.75c0,0.033,0.316,0.517,0.95,1.45c0.366,0.533,0.616,1.067,0.75,1.6
			c0.1,0.633,0.133,1.017,0.1,1.15l-0.05,0.4c-0.033,0.034-0.15,0.067-0.35,0.1c-0.467,0.1-1,0.083-1.601-0.05
			c-0.8-0.167-1.4-0.35-1.8-0.55c-0.667-0.3-1.233-0.783-1.7-1.45C13.85,48,12.983,46.083,12.45,43.85z"/>
		<path style="fill-rule:evenodd;clip-rule:evenodd;fill:#3F5918;" d="M17.65,48.6c-0.162-0.297-0.27-0.58-0.325-0.85
			c0.248,0.458,0.739,1.042,1.475,1.75c0.934,0.9,1.434,1.066,1.5,0.5c0.533,1.133,0.4,1.733-0.399,1.8
			c-0.7,0.133-1.5,0.117-2.4-0.05c-1.105-0.221-2.197-1.313-3.275-3.275c0.243,0.348,0.701,0.823,1.375,1.425
			c0.433,0.367,1.066,0.617,1.9,0.75c0.4,0.067,0.667,0.033,0.8-0.1c0.134-0.133,0.083-0.466-0.15-1
			C18.117,49.417,17.95,49.1,17.65,48.6z"/>
		<path style="fill-rule:evenodd;clip-rule:evenodd;fill:#374F12;" d="M20.25,50.95c0.267,0,0.417,0.033,0.45,0.1
			c0.133,0.167,0.133,0.317,0,0.45c-0.2,0.2-0.3,0.316-0.3,0.35c-0.033,0.1-0.051,0.283-0.051,0.55
			c0.034,0.232,0.018,0.399-0.05,0.5l-0.25-0.15v0.4c0-0.034-0.083-0.284-0.25-0.75c-0.066-0.2-0.25-0.367-0.55-0.5
			c-0.133-0.033-0.367-0.066-0.7-0.1c-0.3,0-0.533-0.033-0.7-0.1c0.5-0.067,0.833-0.167,1-0.3c0.267-0.2,0.284-0.566,0.05-1.1
			l0.05-0.25c0.1,0.434,0.366,0.717,0.8,0.85C19.816,50.933,19.983,50.95,20.25,50.95z"/>
		<path style="fill-rule:evenodd;clip-rule:evenodd;fill:#688F2E;" d="M16,45.95c0.333,0.566,0.517,1.083,0.55,1.55
			c-0.3-0.067-0.716-0.383-1.25-0.95c-0.566-0.566-0.95-1.05-1.15-1.45c0.233-0.133,0.184-0.583-0.15-1.35
			c-0.32-0.728-0.453-1.236-0.4-1.525c0.128,0.164,0.594,0.922,1.4,2.275C15.2,44.833,15.533,45.316,16,45.95z"/>
		<path style="fill-rule:evenodd;clip-rule:evenodd;fill:#688F2E;" d="M14.8,42.15c0.067,0.3,0.5,0.883,1.3,1.75l1.25,1.55
			l-0.4,0.05c0.066,0.133,0.283,0.316,0.65,0.55c0.267,0.167,0.417,0.367,0.45,0.6c-0.333,0.067-0.733-0.1-1.2-0.5
			c-0.167-0.167-0.3-0.383-0.4-0.65c-0.1-0.333-0.217-0.583-0.35-0.75c-0.434-0.4-0.75-0.8-0.95-1.2l-0.5-1.25l0.2,0.2L14.8,42.15z"
			/>
		<path style="fill-rule:evenodd;clip-rule:evenodd;fill:#374F12;" d="M21.1,95.3l0.15-0.85c-0.033,0.566-0.05,1.017-0.05,1.35
			c-0.033,0.634,0.05,1.066,0.25,1.3c0.333,0.467,0.85,0.634,1.55,0.5c0.4-0.1,0.967-0.283,1.7-0.55c-0.9,1.667-2.15,2.833-3.75,3.5
			c-1.733,0.733-3.367,0.583-4.9-0.45c0.567-0.666,0.934-1.149,1.1-1.449c0.333-0.567,0.5-1.167,0.5-1.801
			c0.034,0.267,0.133,0.467,0.3,0.601c0.066,0.066,0.216,0.183,0.45,0.35c0.067-0.333,0.15-0.866,0.25-1.6
			c0.133-0.634,0.367-1.084,0.7-1.351L19.7,95.1c0.133-1.433,0.483-2.366,1.05-2.8c0.267,0.333,0.4,0.816,0.4,1.45
			C21.117,94.45,21.1,94.967,21.1,95.3z"/>
		<path style="fill-rule:evenodd;clip-rule:evenodd;fill:#5A8021;" d="M4.5,67.25c0.1-2.434,0.434-4.6,1-6.5l0.45-1.25
			c0.233,0.833,0.566,1.684,1,2.55L7.4,63.2c0.367,0.767,0.934,1.633,1.7,2.6c1.1,1.367,1.767,2.217,2,2.55
			c2.9,4.167,4.8,7.017,5.7,8.551c1.233,2.066,1.917,4.066,2.05,6c0.3,1.699,0.417,2.732,0.35,3.1c-0.066,0.2-0.167,0.9-0.3,2.1
			c-0.133,1.233-0.183,1.95-0.15,2.15l-0.2,0.55C17.917,91.167,17.4,91.366,17,91.4c-0.434,0-1.017-0.184-1.75-0.551
			c-0.533-0.267-1.4-0.933-2.6-2c-1.066-0.866-2.066-1.85-3-2.949c-1.8-2.367-2.983-4.417-3.55-6.15
			c-0.8-2.566-1.284-4.65-1.45-6.25C4.483,72.1,4.434,70.017,4.5,67.25z"/>
		<path style="fill-rule:evenodd;clip-rule:evenodd;fill:#4B6B1C;" d="M5.6,63.9c0.1-1.467,0.283-2.733,0.55-3.801
			c0.1,0.367,0.367,1.017,0.8,1.95L7.4,63.2c0.367,0.767,0.934,1.633,1.7,2.6c1.1,1.367,1.767,2.217,2,2.55
			c2.9,4.167,4.8,7.017,5.7,8.551c1.233,2.066,1.917,4.066,2.05,6c0.3,1.699,0.417,2.732,0.35,3.1c-0.066,0.2-0.167,0.9-0.3,2.1
			c-0.133,1.233-0.183,1.95-0.15,2.15l-0.2,0.55l-0.95,0.45c-0.467-0.2-1.2-0.617-2.2-1.25c-0.733-0.467-1.716-1.384-2.95-2.75
			c-0.134-0.134-1.567-1.767-4.3-4.9c-1.5-1.699-2.4-4.767-2.7-9.199C5.25,70.283,5.3,67.2,5.6,63.9z"/>
		<path style="fill-rule:evenodd;clip-rule:evenodd;fill:#3F5918;" d="M6.9,69.8c-0.267-0.233-0.816-0.2-1.65,0.101
			c0-2.634,0.05-4.65,0.15-6.051c0.133-1.666,0.317-3.1,0.55-4.3c0.233,0.8,0.566,1.634,1,2.5L7.4,63.2
			c0.367,0.767,0.934,1.633,1.7,2.6c1.1,1.367,1.767,2.217,2,2.55c2.9,4.167,4.8,7.017,5.7,8.551c1.233,2.066,1.917,4.066,2.05,6
			c0.3,1.699,0.417,2.732,0.35,3.1c-0.066,0.2-0.167,0.9-0.3,2.1c-0.133,1.233-0.183,1.95-0.15,2.15l-0.2,0.55l-0.95,0.45
			c-0.467-0.2-1.2-0.617-2.2-1.25c-0.5-0.333-1.167-0.917-2-1.75c1.034,0.5,1.817,0.55,2.35,0.15c0.434-0.301,0.65-0.784,0.65-1.45
			c-0.033-0.9-0.466-2.05-1.3-3.45l2.5,2.7l0.25-2.55c0.133-1.167-0.333-3.15-1.4-5.95c-1.034-2.667-1.867-4.267-2.5-4.8
			c-0.767-0.601-1.517-0.917-2.25-0.95c-0.867,0-1.467,0.5-1.8,1.5c-0.267,0.933,0.217,2.483,1.45,4.649
			c0.6,1.101,1.233,2.101,1.9,3c-0.333-0.3-0.717-0.683-1.15-1.149c-0.833-0.967-1.45-1.9-1.85-2.8c-0.3-0.733-0.867-2.15-1.7-4.25
			C7.816,71.1,7.267,70.066,6.9,69.8z"/>
		<path style="fill-rule:evenodd;clip-rule:evenodd;fill:#374F12;" d="M7.85,70.3C7.583,69.7,7.4,69.15,7.3,68.65
			c-0.271-1.596-0.313-2.921-0.125-3.976c0.49,0.461,0.899,0.953,1.225,1.476c0.467,0.732,0.583,1.267,0.35,1.6
			c-0.2,0.133-0.35,0.3-0.45,0.5c-0.1,0.2-0.116,0.517-0.05,0.95c0,0.666,0.066,1.267,0.2,1.8c0.3,0.633,0.466,1.116,0.5,1.45
			c-0.167-0.101-0.3-0.283-0.4-0.55c-0.033-0.167-0.1-0.4-0.2-0.7L7.85,70.3z"/>
		<path style="fill-rule:evenodd;clip-rule:evenodd;fill:#374F12;" d="M18.8,84.65c0.134-0.134,0.3,0.05,0.5,0.55
			c0.467,1.066,0.7,1.933,0.7,2.6c0,0.134-0.033,0.483-0.1,1.05C20,89.517,20.033,90,20,90.3c0,1.267-0.25,2.017-0.75,2.25
			c-0.4,0.2-0.816,0.184-1.25-0.05c-0.333-0.134-0.583-0.267-0.75-0.4c-0.434-0.399-0.75-0.616-0.95-0.649
			c0-0.267,0.2-0.567,0.6-0.9c0.467-0.399,0.733-0.684,0.8-0.85c0.2-0.434,0.133-1.017-0.2-1.75c-0.367-0.867-0.533-1.467-0.5-1.8
			l0.05,0.1c0.1,0.167,0.267,0.3,0.5,0.4c0.267,0.133,0.483,0.149,0.65,0.05c0.167-0.101,0.283-0.483,0.35-1.15
			C18.65,85.05,18.733,84.75,18.8,84.65z"/>
		<path style="fill-rule:evenodd;clip-rule:evenodd;fill:#5A8021;" d="M8.55,74.6L8.4,74.55c-1.533-0.833-2.183-1.483-1.95-1.95
			c0.466,0.033,0.95,0.283,1.45,0.75S8.617,74.233,8.55,74.6z"/>
		<path style="fill-rule:evenodd;clip-rule:evenodd;fill:#5A8021;" d="M9.05,76l0.25-0.25c0.8,1.333,0.85,2.017,0.15,2.05
			c-0.2,0-0.667-0.366-1.4-1.1c-1.033-0.834-1.466-1.483-1.3-1.95c0.367,0.066,0.816,0.233,1.35,0.5
			C8.7,75.517,9.017,75.767,9.05,76z"/>
		<path style="fill-rule:evenodd;clip-rule:evenodd;fill:#5A8021;" d="M14.2,83l0.2,0.25c0.2,0.2,0.367,0.583,0.5,1.15l0.25,0.6
			c0.067,0.366-0.017,0.65-0.25,0.85c-0.267,0.2-0.617,0.184-1.05-0.05c-0.267-0.167-0.333-0.267-0.2-0.3
			c0.233-0.066,0.367-0.117,0.4-0.15c0.067-0.133,0.034-0.233-0.1-0.3c-0.2-0.033-0.367-0.083-0.5-0.149
			c-0.034,0-0.467-0.284-1.3-0.851c-0.4-0.2-0.716-0.366-0.95-0.5c-0.467-0.267-0.684-0.5-0.65-0.7c0.367-0.033,0.9,0.033,1.6,0.2
			c-0.5-0.399-0.883-0.7-1.15-0.899c-0.867-0.667-1.483-1.184-1.85-1.551c-0.267-0.199-0.367-0.383-0.3-0.55
			c0.633,0.101,1.283,0.3,1.95,0.601c0.833,0.399,1.667,0.883,2.5,1.449C13.9,82.5,14.2,82.8,14.2,83z"/>
		<path style="fill-rule:evenodd;clip-rule:evenodd;fill:#5A8021;" d="M14.15,80.9c0.2-1.2,0.617-2.034,1.25-2.5
			c0.067,0.133,0.1,0.3,0.1,0.5c0.133,0.033,0.316-0.034,0.55-0.2c0.134,0.1,0.217,0.283,0.25,0.55
			c-0.033,0.333-0.05,0.55-0.05,0.65l0.1,1.75c0,0.933-0.25,1.383-0.75,1.35c-0.367-0.033-0.667-0.316-0.9-0.85
			c-0.2-0.467-0.3-0.867-0.3-1.2L14.15,80.9z"/>
		<path style="fill-rule:evenodd;clip-rule:evenodd;fill:#5A8021;" d="M16.95,82.775c0.361,0.601,0.461,1.159,0.3,1.675
			c-0.333-0.101-0.533-0.351-0.6-0.75C16.617,83.339,16.717,83.031,16.95,82.775z"/>
		<path style="fill-rule:evenodd;clip-rule:evenodd;fill:#5A8021;" d="M12.05,76.4h-0.2c-0.3-0.134-0.317-0.551-0.05-1.25
			c0.267-0.7,0.534-1.067,0.8-1.101C13.3,73.917,13.117,74.7,12.05,76.4z"/>
		<path style="fill-rule:evenodd;clip-rule:evenodd;fill:#5A8021;" d="M13.35,75.8c0.5,0.033,0.833,0.233,1,0.601
			c0.167,0.366,0.133,0.85-0.1,1.449c-0.267,0.601-0.583,0.967-0.95,1.101l-0.05-0.9c-0.066,0.101-0.3,0.233-0.7,0.4
			c-0.076-1.015,0.074-1.698,0.45-2.05l-0.2,0.1C12.633,76,12.816,75.767,13.35,75.8z"/>
		<path style="fill-rule:evenodd;clip-rule:evenodd;fill:#5A8021;" d="M31.7,63.9c0,5.066-0.434,9-1.3,11.8
			c-0.533,1.8-1.267,3.45-2.2,4.95c-1.233,1.933-2.55,3.066-3.95,3.399c-1.667,0.434-2.934,0.15-3.8-0.85
			c-0.721-0.814-1.063-1.998-1.025-3.55c-0.008-2.84,0.45-5.522,1.375-8.051c0.9-2.5,2.351-5.05,4.351-7.649
			c0.033-0.033,0.866-0.95,2.5-2.75c0.967-1.067,1.616-2.067,1.949-3c0.334-0.867,0.617-1.967,0.851-3.3
			c0.133-0.768,0.3-1.9,0.5-3.4c-0.066,1.467,0.033,3.533,0.3,6.2C31.55,60.6,31.7,62.667,31.7,63.9z"/>
		<path style="fill-rule:evenodd;clip-rule:evenodd;fill:#3F5918;" d="M30.95,52.1l0.5-0.25c0.3,1.1,0.467,2.617,0.5,4.55
			c0.066,2.166,0.167,3.649,0.3,4.449c0.533,3.267,0.233,6.75-0.9,10.45c-0.666,2.367-1.183,4.134-1.55,5.3
			c-0.666,2-1.399,3.684-2.2,5.051c-0.5,0.866-1,1.449-1.5,1.75c-0.333,0.199-1.05,0.433-2.149,0.699c-0.634,0.167-1.3,0.551-2,1.15
			c-0.833,0.667-1.5,1.116-2,1.35c-0.233-0.5-0.351-1.183-0.351-2.05c0-0.467,0.018-1.167,0.051-2.1
			c0.899,1.2,2.199,1.383,3.899,0.55c1.4-0.667,2.467-1.6,3.2-2.8c0.634-1.067,1.184-2.533,1.65-4.4
			c0.267-1.033,0.616-2.583,1.05-4.649c0.267-1.034,0.649-2.518,1.149-4.45C31,65.033,31.2,63.5,31.2,62.1
			C31.2,57.133,31.117,53.8,30.95,52.1z"/>
		<path style="fill-rule:evenodd;clip-rule:evenodd;fill:#4B6B1C;" d="M25.45,67.65c-0.066,0.933-0.483,2.699-1.25,5.3
			c-0.634,2.233-0.884,4.033-0.75,5.399c0.866-0.1,1.767-0.85,2.7-2.25c0.433-0.633,1.033-1.75,1.8-3.35
			c0.033,1.833,0.017,3.184-0.05,4.05c-0.134,1.4-0.533,2.65-1.2,3.75c-0.833,1.333-1.967,2.25-3.4,2.75
			c-1.372,0.496-2.655,0.446-3.85-0.149c0.019-2.086,0.151-3.936,0.399-5.551c0.301-1.767,0.801-3.717,1.5-5.85l0.101,2.15
			c0.633-0.467,1.333-1.45,2.1-2.95C24.483,69.184,25.117,68.083,25.45,67.65z M19.45,83.15c0,0.145,0,0.295,0,0.449l-0.5-0.75
			C19.115,82.957,19.282,83.058,19.45,83.15z"/>
		<path style="fill-rule:evenodd;clip-rule:evenodd;fill:#3F5918;" d="M21.8,83.95c-2.166,0.233-3.2-0.134-3.1-1.101l0.5-1.75
			c-0.134-1.533,0.35-2.967,1.45-4.3c0.066,0.8,0.083,1.384,0.05,1.75c1.167-1.399,1.899-2.633,2.2-3.7
			C23,76.883,23.05,78,23.05,78.2c0,1.433-0.2,2.483-0.6,3.149c0.399-0.066,1.05-0.05,1.95,0.051
			C24.733,82.833,23.867,83.684,21.8,83.95z"/>
		<path style="fill-rule:evenodd;clip-rule:evenodd;fill:#374F12;" d="M21.95,78.1H21.7c0.033-0.733,0.417-1.467,1.149-2.199
			c0.067,0.8-0.066,2.05-0.399,3.75c-0.3,1.633-0.384,2.866-0.25,3.699c2,0.367,3.833-1.183,5.5-4.649
			c0.333,3.366-1.833,5.517-6.5,6.45c-0.101,1.166-0.167,2.033-0.2,2.6c-0.1,1.033-0.133,1.883-0.1,2.55
			c-1.4,0.4-1.884-1.417-1.45-5.45c0.033-0.699,0.184-1.3,0.45-1.8c0.166-0.3,0.483-0.85,0.949-1.649c0.2-0.367,0.4-0.934,0.601-1.7
			C21.65,78.9,21.816,78.366,21.95,78.1z"/>
		<path style="fill-rule:evenodd;clip-rule:evenodd;fill:#688F2E;" d="M30.45,61.35L30.2,63.1c-0.967,1.934-1.7,3.334-2.2,4.2
			c-0.833,1.467-1.783,2.733-2.85,3.8c0.199-0.433,0.399-1.166,0.6-2.199c0.2-0.967,0.483-1.717,0.85-2.25
			c0.301-0.467,0.95-1.334,1.95-2.601C29.417,62.95,30.05,62.05,30.45,61.35z"/>
		<path style="fill-rule:evenodd;clip-rule:evenodd;fill:#688F2E;" d="M28.95,67.35l-0.5,1.25c-0.367,2.233-2.2,4.884-5.5,7.95
			c0.033-1.6,0.767-3.283,2.2-5.05C25.95,70.5,27.217,69.116,28.95,67.35z"/>
		<path style="fill-rule:evenodd;clip-rule:evenodd;fill:#688F2E;" d="M22.45,70.6l-0.75,1.5c-0.134-1,0.083-2.116,0.649-3.35
			c0.334-0.7,0.867-1.717,1.601-3.05c0.133,1.399,0.167,2.483,0.1,3.25C23.95,70.316,23.417,70.866,22.45,70.6z"/>
		<path style="fill-rule:evenodd;clip-rule:evenodd;fill:#688F2E;" d="M25.25,65.85c-0.174,0.552-0.273,1.052-0.3,1.5l-0.25-1
			C24.889,66.177,25.071,66.01,25.25,65.85c0.249-0.846,0.666-1.813,1.25-2.899c1.233-2.367,1.934-3.783,2.1-4.25
			c0.167,1.8-0.1,3.267-0.8,4.399C27.445,63.662,26.596,64.578,25.25,65.85z"/>
		<path style="fill-rule:evenodd;clip-rule:evenodd;fill:#688F2E;" d="M31.15,54.55c-0.301,1.533-0.45,2.417-0.45,2.65
			c0,0.866-0.134,1.683-0.4,2.45c-0.399,1.1-0.933,1.333-1.6,0.699l0.5,0.25c-0.5-0.733-0.367-2.1,0.399-4.1
			c0.9-2.4,1.351-3.867,1.351-4.4C31.316,52.6,31.384,53.417,31.15,54.55z"/>
		<path style="fill-rule:evenodd;clip-rule:evenodd;fill:#364D14;" d="M31.45,34.8c0.3,0.167,0.783,0.383,1.45,0.65
			c-0.533-0.034-1.75,0.233-3.65,0.8c-1.467,0.433-2.684,0.4-3.65-0.1c0.2,0.9,0.301,1.4,0.301,1.5
			c-0.067,0.333-0.483,0.434-1.25,0.3c-0.467-0.067-1.117-0.333-1.95-0.8c-0.833-0.5-1.467-0.783-1.9-0.85l-0.3,1.5
			c-0.5-0.1-0.883-0.35-1.15-0.75c-0.3-0.4-0.45-0.867-0.45-1.4c-1.633,0.767-2.65,1.217-3.05,1.35c-1.4,0.433-2.367,0.367-2.9-0.2
			c0.233-0.167,0.8-0.417,1.7-0.75c0.733-0.267,1.267-0.566,1.6-0.9c-1.367,0.1-2.417,0.133-3.15,0.1c-1.367,0-2.25-0.317-2.65-0.95
			c0.333,0,0.883,0,1.65,0c0.667,0,1.167-0.117,1.5-0.35l0.65,0.2c0.934,0.067,1.25-0.35,0.95-1.25c-0.134-0.5-0.333-1.15-0.6-1.95
			c2.433,0.966,5.55,1.517,9.35,1.65c1.033,0.033,4.233-0.017,9.6-0.15c-1.133,0.866-2.267,1.383-3.399,1.55
			C30.483,34.3,30.917,34.566,31.45,34.8z"/>
		<path style="fill-rule:evenodd;clip-rule:evenodd;fill:#4B6B1C;" d="M17.625,31.75c1.133,0.328,2.124,0.461,2.975,0.4l0.15-0.35
			c-1.4-0.033-2.417-0.05-3.05-0.05C17.677,31.75,17.652,31.75,17.625,31.75z M31.25,31.45c0.1,0,0.45-0.083,1.05-0.25
			c0.4-0.1,0.767-0.1,1.101,0c-0.9,1.566-2.717,2.316-5.45,2.25c0.434,0.167,0.95,0.65,1.55,1.45c0.6,0.767,1.117,1.184,1.55,1.25
			c-1.166-0.033-3.166-0.517-6-1.45c-2.399-0.833-4.383-1.083-5.95-0.75c-2.399,0.5-3.916,0.75-4.55,0.75
			c-1.833,0.066-3.2-0.45-4.1-1.55c2.033-0.2,3.466-0.467,4.3-0.8c0.881-0.392,1.839-0.591,2.875-0.6
			c-0.104-0.031-0.213-0.064-0.325-0.1c-1.533-0.467-2.316-1.083-2.35-1.85c1.8,0.034,4.55,0.15,8.25,0.35
			c1.434,0,2.95,0.267,4.55,0.8C29.184,31.417,30.35,31.583,31.25,31.45z"/>
		<path style="fill-rule:evenodd;clip-rule:evenodd;fill:#53751F;" d="M20.95,32.85c-0.667,1.333-2,2.316-4,2.95
			c-2.067,0.667-3.7,0.55-4.9-0.35c0.134-0.067,0.75-0.25,1.85-0.55c0.733-0.233,1.333-0.55,1.8-0.95c0.966-0.733,1.6-1.167,1.9-1.3
			c-0.833,0-1.667-0.1-2.5-0.3c-1.167-0.233-1.833-0.583-2-1.05c1-0.066,2.267-0.083,3.8-0.05l3.85,0.05l-0.8-0.85
			c2.267,0,3.6,0.017,4,0.05c1.533,0.133,2.8,0.517,3.8,1.15c0.8,0.467,2.017,1.083,3.65,1.85c-0.567,0.233-1.367,0.267-2.4,0.1
			c-1.333-0.233-2.15-0.35-2.45-0.35c0.3,0.467,0.5,1.267,0.601,2.4c0.066,1.1,0,1.9-0.2,2.4c-0.8-0.1-1.7-0.367-2.7-0.8
			c-1.033-0.467-1.866-0.967-2.5-1.5c-0.434-0.367-0.7-0.8-0.8-1.3C20.917,34.25,20.917,33.717,20.95,32.85z"/>
		<path style="fill-rule:evenodd;clip-rule:evenodd;fill:#3F5917;" d="M17.25,32.55c-1.367,0-2.184-0.017-2.45-0.05
			c-1.133-0.167-1.7-0.617-1.7-1.35C14.53,32.04,15.913,32.506,17.25,32.55z"/>
		<path style="fill-rule:evenodd;clip-rule:evenodd;fill:#3F5917;" d="M17.35,33.9c-0.667,0.333-1.017,0.5-1.05,0.5
			c0.134-0.267,0.5-0.583,1.1-0.95c0.6-0.367,0.934-0.667,1-0.9c-0.466-0.066-0.733-0.133-0.8-0.2c-0.1-0.1,0.117-0.15,0.65-0.15
			l0.2-0.4c0.899,0,1.467,0.067,1.7,0.2c0.333,0.167,0.433,0.6,0.3,1.3c-0.134,0.6-0.3,1.05-0.5,1.35c-0.2,0.3-0.533,0.617-1,0.95
			c-1.034,0.667-2.184,1.05-3.45,1.15c-1.5,0.1-2.6-0.3-3.3-1.2c1.267,0.6,2.433,0.833,3.5,0.7c0.8-0.1,1.466-0.35,2-0.75
			c0.6-0.5,0.866-1.117,0.8-1.85C18.167,33.583,17.783,33.667,17.35,33.9z"/>
		<path style="fill-rule:evenodd;clip-rule:evenodd;fill:#3F5917;" d="M21.45,32.8c1.833-0.5,3.267-0.55,4.3-0.15
			c0.767,0.3,1.2,0.9,1.3,1.8c-0.05,0.833-0.075,1.483-0.075,1.95c-0.029-0.238-0.104-0.538-0.225-0.9
			c-0.167-0.567-0.35-0.95-0.55-1.15c-0.634-0.633-1.134-0.817-1.5-0.55c-0.134,0.1-0.217,0.317-0.25,0.65
			c0.033,0.4,0.05,0.667,0.05,0.8c-0.434-0.6-1-1-1.7-1.2c-0.767-0.267-1.383-0.133-1.85,0.4l-0.45-0.4
			c-0.434-0.066-0.434-0.283,0-0.65C20.833,33.133,21.15,32.933,21.45,32.8z"/>
		<path style="fill-rule:evenodd;clip-rule:evenodd;fill:#3F5917;" d="M24.85,32.05c0.195-0.194,0.878-0.244,2.051-0.15
			c-0.2-0.009-0.4,0.057-0.601,0.2c1.367,0.433,2.2,0.7,2.5,0.8c0.967,0.233,1.834,0.367,2.601,0.4c-0.067,0.267-0.533,0.4-1.4,0.4
			c-0.934-0.034-1.517-0.05-1.75-0.05c-0.833-0.066-1.533-0.25-2.1-0.55c-0.033,0-0.45-0.3-1.25-0.9
			c-0.109-0.087-0.218-0.162-0.325-0.225L24.85,32.05z"/>
		<path style="fill-rule:evenodd;clip-rule:evenodd;fill:#2E4211;" d="M11.75,34.2h0.45c0.233,0,0.7,0.017,1.4,0.05
			c0.633,0.033,1.066-0.05,1.3-0.25c-0.4,0.4-0.966,0.683-1.7,0.85C12.333,35.05,11.85,34.833,11.75,34.2z"/>
		<path style="fill-rule:evenodd;clip-rule:evenodd;fill:#2E4211;" d="M20.45,37.35c-0.101-0.1-0.217-0.383-0.351-0.85
			c-0.1-0.434-0.216-0.684-0.35-0.75c-0.133-0.067-0.35-0.033-0.65,0.1c-0.3,0.167-0.516,0.267-0.649,0.3
			c-1.282,0.193-2.198,0.318-2.75,0.375c0.962-0.18,1.845-0.539,2.65-1.075c0.6-0.4,1.233-1.034,1.9-1.9
			c0.267,0.3,0.583,0.833,0.95,1.6c0.066,0.1,0.35,0.333,0.85,0.7c0.4,0.3,0.65,0.583,0.75,0.85c-1.033-0.6-1.816-0.934-2.35-1
			C20.417,36.267,20.417,36.816,20.45,37.35z"/>
		<path style="fill-rule:evenodd;clip-rule:evenodd;fill:#2E4211;" d="M29.5,36.15c-0.116,0.012-0.241,0.003-0.375-0.025
			C29.242,36.074,29.351,36,29.45,35.9L29.5,36.15z M28.7,36.2c-0.367,0-0.65,0-0.851,0c-0.366,0-0.616-0.034-0.75-0.1
			c-0.166-0.133-0.216-0.383-0.149-0.75c0.3,0,0.717,0.133,1.25,0.4c0.348,0.195,0.655,0.32,0.925,0.375
			C28.993,36.175,28.852,36.2,28.7,36.2z"/>
		<path style="fill-rule:evenodd;clip-rule:evenodd;fill:#2E4211;" d="M29.95,34.45c0.133,0.033,0.316,0.066,0.55,0.1
			c0.967,0.367,1.533,0.583,1.7,0.65c-0.667-0.067-1.217-0.1-1.65-0.1c-0.669,0-1.027,0.15-1.075,0.45
			c-0.282-0.215-0.59-0.516-0.925-0.9c-0.666-0.767-1.25-1.217-1.75-1.35c0.733,0,1.851,0.05,3.351,0.15l0.25,0.4
			c-0.033,0.066-0.15,0.117-0.351,0.15c-0.233,0.033-0.35,0.066-0.35,0.1C29.634,34.267,29.717,34.383,29.95,34.45z"/>
		<path style="fill-rule:evenodd;clip-rule:evenodd;fill:#2E4211;" d="M32.7,32.65H32.1c0.096-0.062,0.179-0.128,0.25-0.2
			L32.7,32.65z M31.15,33.05c-0.601,0.167-0.95,0.034-1.051-0.4h2C31.857,32.819,31.54,32.952,31.15,33.05z"/>
		<path style="fill-rule:evenodd;clip-rule:evenodd;fill:#668C2D;" d="M16.925,30.925L16.6,31.05c0.767-0.1,0.966,0.067,0.6,0.5
			c-0.2,0.2-0.617,0.25-1.25,0.15c-1.1-0.067-1.934-0.233-2.5-0.5C15.076,31.261,16.234,31.169,16.925,30.925z"/>
		<path style="fill-rule:evenodd;clip-rule:evenodd;fill:#668C2D;" d="M17.95,32.55l-0.5-0.1c0.133-0.1,0.316-0.117,0.55-0.05
			c0.167,0.667-0.583,1.417-2.25,2.25c-1.467,0.633-2.684,0.8-3.65,0.5c0.233-0.1,0.633-0.183,1.2-0.25
			c0.467-0.033,0.833-0.15,1.1-0.35c0.333-0.2,0.883-0.633,1.65-1.3C16.75,32.717,17.383,32.483,17.95,32.55z"/>
		<path style="fill-rule:evenodd;clip-rule:evenodd;fill:#668C2D;" d="M16.4,34.55c0.648-0.324,1.157-0.49,1.525-0.5H17.7
			c0.333-0.066,0.466,0.034,0.4,0.3c-0.1,0.267-0.233,0.466-0.4,0.6c-0.534,0.433-1.4,0.566-2.6,0.4
			C15.434,35.083,15.867,34.816,16.4,34.55z"/>
		<path style="fill-rule:evenodd;clip-rule:evenodd;fill:#668C2D;" d="M20.25,33.7c0.361,0.065,0.744,0.382,1.15,0.95
			c0.3,0.367,0.666,0.867,1.1,1.5c1.1,1.1,2.434,1.7,4,1.8c-1.033,0.1-2.316-0.367-3.85-1.4c-1-0.733-1.517-1.117-1.551-1.15
			C20.533,34.867,20.25,34.3,20.25,33.7L20,34.05V33.7C20.082,33.688,20.165,33.688,20.25,33.7z"/>
		<path style="fill-rule:evenodd;clip-rule:evenodd;fill:#668C2D;" d="M24.45,34.2c1.558,0.078,2.291,0.995,2.2,2.75
			c-0.233,0-0.567-0.2-1-0.6c-0.4-0.333-0.7-0.633-0.9-0.9C24.517,35.083,24.417,34.667,24.45,34.2z"/>
		<path style="fill-rule:evenodd;clip-rule:evenodd;fill:#668C2D;" d="M26.7,33.45l-0.2,0.35c0.733,0.567,1.45,1.167,2.15,1.8
			c-0.567,0-1.134-0.217-1.7-0.65C26.25,34.45,26.167,33.95,26.7,33.45z"/>
		<path style="fill-rule:evenodd;clip-rule:evenodd;fill:#668C2D;" d="M27.75,32.2c-0.033,0-0.383-0.167-1.05-0.5
			c-0.5-0.233-0.733-0.483-0.7-0.75c0.434-0.067,0.867,0.05,1.3,0.35c0,0.034,0.317,0.333,0.95,0.9c-0.167-0.067-0.3-0.117-0.4-0.15
			L27.75,32.2z"/>
		<path style="fill-rule:evenodd;clip-rule:evenodd;fill:#374F12;" d="M18.475,97.8H18.45l-0.05,0.8l0.7,1.351
			C19.214,99.311,19.006,98.595,18.475,97.8z M10.6,101.2c-1.233-0.033-2.083-0.267-2.55-0.7c0.434-0.033,0.967-0.033,1.6,0
			c0.367,0.033,0.9,0.083,1.6,0.15c-0.566-0.301-0.883-0.65-0.95-1.051c0.434-0.033,0.9,0.033,1.4,0.2
			c0.3,0.101,0.75,0.267,1.35,0.5c-1.333-1.066-1.983-1.95-1.95-2.649c1.128,0.171,2.354,0.847,3.675,2.024
			c-0.941-1.061-1.517-2.019-1.725-2.875c0.733,0.233,1.517,0.833,2.35,1.8c-0.733-1-1.066-2.333-1-4
			c0.967,0.2,2.017,0.884,3.15,2.051c0.379,0.399,0.687,0.782,0.925,1.149c2.088-0.062,3.664,0.389,4.725,1.351
			c0.066,0.066,0.149,0.25,0.25,0.55c0.1,0.3,0.2,0.483,0.3,0.55c0.233,0.167,0.967,0.3,2.2,0.4c0.967,0.066,1.467,0.35,1.5,0.85
			c-0.467,0.1-1.217,0.133-2.25,0.1c-1-0.033-1.75,0.017-2.25,0.15c-0.167,0.033-0.3,0.15-0.4,0.35
			c-0.1,0.233-0.25,0.351-0.45,0.351c-0.232,0.033-0.666-0.017-1.3-0.15c-0.6-0.1-1.05-0.149-1.35-0.149l-0.05,0.399
			c-0.601,0.233-1.084,0.117-1.45-0.35c-0.333,0.8-0.884,1.1-1.65,0.899c0.087-0.305,0.179-0.529,0.275-0.675
			c-0.38,0.337-0.889,0.462-1.525,0.375c-0.733-0.1-0.85-0.483-0.35-1.149l-1.2,0.149c0-0.133-0.017-0.35-0.05-0.649
			C12.25,101.217,11.3,101.233,10.6,101.2z"/>
		<path style="fill-rule:evenodd;clip-rule:evenodd;fill:#5A8021;" d="M14.6,99.8c-0.391-0.431-0.774-0.83-1.15-1.2
			c0.104,0.003,0.204,0.003,0.3,0L14.6,99.8z M13.45,98.6c-0.983-0.023-2.067-0.323-3.25-0.899c-1.434-0.7-2.3-1.5-2.6-2.4
			C9.103,95.098,11.053,96.197,13.45,98.6z"/>
		<path style="fill-rule:evenodd;clip-rule:evenodd;fill:#5A8021;" d="M15.1,98.95c-0.667,0-1.233-0.434-1.7-1.3
			c-0.367-0.7-0.583-1.467-0.65-2.301c0.667,0.467,1.3,1.15,1.9,2.051c0.333,0.5,0.817,1.232,1.45,2.199L15.1,98.95z"/>
		<path style="fill-rule:evenodd;clip-rule:evenodd;fill:#5A8021;" d="M16.35,95.1c0.574,0.741,0.991,1.408,1.25,2
			c-0.133-0.791-0.099-1.475,0.1-2.05c0.5,0.233,0.95,0.934,1.35,2.101c0.367,1.166,0.45,2.017,0.25,2.55
			c-0.133,0.366-0.316,0.633-0.55,0.8c-0.1,0.066-0.383,0.217-0.85,0.45l-1-0.851c0.034-0.899-0.417-2.133-1.35-3.699
			c-1.167-1.934-1.833-3.184-2-3.75C14.383,92.883,15.316,93.7,16.35,95.1z"/>
		<path style="fill-rule:evenodd;clip-rule:evenodd;fill:#5A8021;" d="M20.9,100.95c-0.233-0.5-0.067-1.25,0.5-2.25
			c0.6-1.033,1.283-1.55,2.05-1.55c-0.033,0.566-0.333,1.183-0.9,1.85c-0.767,0.833-1.2,1.366-1.3,1.6L20.9,100.95z"/>
		<path style="fill-rule:evenodd;clip-rule:evenodd;fill:#688F2E;" d="M18.1,100.6l0.3,0.7c-0.8,0.434-1.417,0.101-1.85-1
			c-0.133-0.3-0.283-0.783-0.45-1.45c-0.167-0.666-0.317-1.149-0.45-1.449c-0.133-0.334-0.417-0.917-0.85-1.75
			c-0.333-0.768-0.45-1.384-0.35-1.851c0.933,0,1.75,0.934,2.45,2.8C17.5,98.733,17.9,100.066,18.1,100.6z"/>
		<path style="fill-rule:evenodd;clip-rule:evenodd;fill:#688F2E;" d="M13.6,99.1l2.5,2.5c-0.534,0-1.617-0.6-3.25-1.8
			c-1.667-1.267-2.5-2.167-2.5-2.7c0.533,0.067,1.1,0.351,1.7,0.851C12.883,98.616,13.4,99,13.6,99.1z"/>
		<path style="fill-rule:evenodd;clip-rule:evenodd;fill:#688F2E;" d="M21.6,100.95c0.167-0.4,0.551-0.783,1.15-1.15
			c0.066,0.367,0.033,0.717-0.1,1.05c-0.134,0.301-0.317,0.5-0.551,0.601L21.6,100.95z"/>
		<g>
			<path style="fill-rule:evenodd;clip-rule:evenodd;fill:#FEC763;" d="M37.25,5.45c-2.2-0.6-4.333-0.333-6.4,0.8L32.95,4.4
				c2.333-0.633,4.45-0.333,6.35,0.9l-0.1,1.05L36.05,8.1c-3.1,1.466-4.75,3.9-4.95,7.3c-0.033,1.9-0.633,3.567-1.8,5l-3.35-5.6
				l3.399-4.7c2.2-2.3,4.967-3.784,8.301-4.45L37.25,5.45z M4.35,12.3c-0.667,0-1.233-0.2-1.7-0.6c-0.466-0.467-0.7-0.967-0.7-1.5
				L4.3,9.1h0.3c2.633-0.167,5.15,0.25,7.55,1.25c-0.8,1.5-0.933,3.117-0.4,4.85l0.15,0.6c-0.133-0.433-0.75-1.233-1.85-2.4
				C9.017,12.267,7.117,11.9,4.35,12.3z"/>
			<path style="fill-rule:evenodd;clip-rule:evenodd;fill:#E38145;" d="M37.65,5.65C34.316,6.316,31.55,7.8,29.35,10.1
				c0.101-1.1,0.601-2.383,1.5-3.85c2.067-1.133,4.2-1.4,6.4-0.8L37.65,5.65z"/>
			
				<radialGradient id="SVGID_2_" cx="3.1113" cy="41.9316" r="25.8448" gradientTransform="matrix(0.7071 -0.7071 -0.4396 -0.4396 48.0857 48.0851)" gradientUnits="userSpaceOnUse">
				<stop  offset="0" style="stop-color:#C32B20"/>
				<stop  offset="1" style="stop-color:#FEC763"/>
			</radialGradient>
			<path style="fill-rule:evenodd;clip-rule:evenodd;fill:url(#SVGID_2_);" d="M33.5,19c-0.267,1.733-0.934,3.233-2,4.5
				c-0.1,0.167-0.6,0.7-1.5,1.6c0.1-1.2-0.033-2.45-0.4-3.75l-0.3-0.95c1.167-1.433,1.767-3.1,1.8-5c0.2-3.4,1.851-5.833,4.95-7.3
				c-0.433,1.8-0.517,3.716-0.25,5.75l0.05,0.65l-0.25-0.45c-0.666-1.167-1-2.05-1-2.65L34.4,12.05
				c-0.167,0.367-0.301,1.217-0.4,2.55C33.967,15.533,33.8,17,33.5,19z"/>
			<path style="fill-rule:evenodd;clip-rule:evenodd;fill:#C12532;" d="M35.05,20.2c-1.2,3.133-3.083,5.783-5.649,7.95
				c0.366-1,0.566-2.017,0.6-3.05c0.9-0.9,1.4-1.434,1.5-1.6c1.066-1.267,1.733-2.767,2-4.5c0.3-2,0.467-3.467,0.5-4.4
				c0.1-1.333,0.233-2.184,0.4-2.55L34.6,11.4c0,0.6,0.334,1.483,1,2.65l0.25,0.45C36.05,16.5,35.783,18.4,35.05,20.2z M21.65,18.2
				c2.066,2.966,3.1,5.716,3.1,8.25c0,2.333-0.566,4.417-1.7,6.25l-0.95,1.75H21.9c-0.634,0.033-1.217-0.017-1.75-0.15
				c-0.634-0.7-1.134-1.9-1.5-3.6c-0.466-2.067-0.7-4.35-0.7-6.85l0.25-2c0-1.667-0.184-3.367-0.55-5.1
				c-0.466-1.967-1.117-3.3-1.95-4C17.8,13.717,19.783,15.533,21.65,18.2z"/>
			<path style="fill-rule:evenodd;clip-rule:evenodd;fill:#F4AF58;" d="M30.3,0.15c3.4,0.267,4.283,1.684,2.65,4.25L30.85,6.25
				C29.95,7.717,29.45,9,29.35,10.1l-1.699,2.35C26.517,7.517,28.134,4.167,32.5,2.4L30.7,1c-1.033,0.1-2.101,0.316-3.2,0.65
				c-0.9,0.367-1.917,1.283-3.05,2.75c-1.066,1.434-1.583,3.8-1.55,7.1l-2.7-2.2l1.1-4.6l2.2-2.75
				C25.6,0.617,27.867,0.017,30.3,0.15z"/>
			
				<radialGradient id="SVGID_3_" cx="26" cy="17.9502" r="13.125" gradientTransform="matrix(1 0 0 -0.9895 0 35.7123)" gradientUnits="userSpaceOnUse">
				<stop  offset="0" style="stop-color:#C32B20"/>
				<stop  offset="1" style="stop-color:#FEC763"/>
			</radialGradient>
			<path style="fill-rule:evenodd;clip-rule:evenodd;fill:url(#SVGID_3_);" d="M25.95,14.8l-3.05-3.3
				c-0.033-3.3,0.483-5.667,1.55-7.1c1.133-1.467,2.149-2.383,3.05-2.75C28.6,1.316,29.667,1.1,30.7,1l1.8,1.4
				c-4.366,1.767-5.983,5.117-4.85,10.05L25.95,14.8z"/>
			<path style="fill-rule:evenodd;clip-rule:evenodd;fill:#FDC662;" d="M21.3,4.7c-0.066-1.134-0.649-1.684-1.75-1.65
				c-1,0.167-1.917,0.133-2.75-0.1c-2.8-0.534-4.1,0.466-3.9,3l-2.3-1.3c-0.034-3.1,1.6-4.467,4.9-4.1c2.667,0.1,5.4-0.083,8.2-0.55
				l-0.2,1.95L21.3,4.7z"/>
			
				<radialGradient id="SVGID_4_" cx="21.75" cy="29.2002" r="17.225" gradientTransform="matrix(1 0 0 -0.9898 0 58.1037)" gradientUnits="userSpaceOnUse">
				<stop  offset="0" style="stop-color:#C32B20"/>
				<stop  offset="1" style="stop-color:#FEC763"/>
			</radialGradient>
			<path style="fill-rule:evenodd;clip-rule:evenodd;fill:url(#SVGID_4_);" d="M20.2,9.3l2.7,2.2l3.05,3.3l3.35,5.6l0.3,0.95
				c0.367,1.3,0.5,2.55,0.4,3.75c-0.033,1.033-0.233,2.05-0.6,3.05c-1.167,3.633-3.601,5.733-7.301,6.3l0.95-1.75
				c1.134-1.833,1.7-3.917,1.7-6.25c0-2.534-1.033-5.284-3.1-8.25c-1.867-2.667-3.851-4.483-5.95-5.45c0.833,0.7,1.483,2.033,1.95,4
				c0.367,1.733,0.55,3.433,0.55,5.1l-0.25,2c0,2.5,0.233,4.783,0.7,6.85c0.367,1.7,0.867,2.9,1.5,3.6
				c-0.9-0.233-1.7-0.783-2.4-1.65c-2.167-2.3-3.55-4.967-4.15-8l-1.85-9.45c-0.533-1.733-0.4-3.35,0.4-4.85
				c0.567-1.067,1.467-1.8,2.7-2.2l1.4-0.25L20.2,9.3z"/>
			
				<radialGradient id="SVGID_5_" cx="17.2002" cy="8.5" r="6.1625" gradientTransform="matrix(1 0 0 -0.9899 0 16.9138)" gradientUnits="userSpaceOnUse">
				<stop  offset="0" style="stop-color:#DA7F2C"/>
				<stop  offset="1" style="stop-color:#FEC763"/>
			</radialGradient>
			<path style="fill-rule:evenodd;clip-rule:evenodd;fill:url(#SVGID_5_);" d="M16.25,7.9L12.9,5.95c-0.2-2.534,1.1-3.534,3.9-3
				c0.833,0.233,1.75,0.267,2.75,0.1c1.101-0.033,1.684,0.517,1.75,1.65l-1.1,4.6L16.25,7.9z"/>
			<path style="fill-rule:evenodd;clip-rule:evenodd;fill:#E17B42;" d="M12.15,10.35c-2.4-1-4.917-1.417-7.55-1.25H4.3l-1.35-1
				c0.9-1.434,2.267-2.25,4.1-2.45c2.833-0.033,5.434,0.8,7.8,2.5C13.617,8.55,12.717,9.283,12.15,10.35z"/>
			<path style="fill-rule:evenodd;clip-rule:evenodd;fill:#FEBA3D;" d="M4.3,9.1l-2.35,1.1C1.15,9.733,0.566,9.1,0.2,8.3
				C0,7.9-0.033,7.483,0.1,7.05C0.2,6.816,0.4,6.667,0.7,6.6c0.7-0.2,1.25-0.534,1.65-1c0.1-1.067,0.716-1.633,1.85-1.7
				c2.167-0.033,4.3,0.217,6.4,0.75l5.65,3.25l-1.4,0.25c-2.367-1.7-4.967-2.533-7.8-2.5c-1.833,0.2-3.2,1.017-4.1,2.45L4.3,9.1z"/>
			
				<radialGradient id="SVGID_6_" cx="25.0322" cy="-10.2559" r="27.4668" gradientTransform="matrix(0.3681 0.9298 0.5807 -0.2299 15.4908 -6.1321)" gradientUnits="userSpaceOnUse">
				<stop  offset="0" style="stop-color:#C32B20"/>
				<stop  offset="1" style="stop-color:#FEC763"/>
			</radialGradient>
			<path style="fill-rule:evenodd;clip-rule:evenodd;fill:url(#SVGID_6_);" d="M4.35,12.3c2.767-0.4,4.667-0.033,5.7,1.1
				c1.1,1.167,1.717,1.967,1.85,2.4l1.7,8.85c0.6,3.033,1.983,5.7,4.15,8c-2.434-0.933-4.05-2.683-4.85-5.25
				c-1.033-3.433-2.333-6.783-3.9-10.05C8,15.117,6.45,13.433,4.35,12.3z"/>
		</g>
	</g>
</g>
</svg>
