<?xml version="1.0" encoding="iso-8859-1"?>
<!-- Generator: Adobe Illustrator 15.1.0, SVG Export Plug-In . SVG Version: 6.00 Build 0)  -->
<!DOCTYPE svg PUBLIC "-//W3C//DTD SVG 1.1//EN" "http://www.w3.org/Graphics/SVG/1.1/DTD/svg11.dtd">
<svg version="1.1" id="FlashAICB" xmlns="http://www.w3.org/2000/svg" xmlns:xlink="http://www.w3.org/1999/xlink" x="0px" y="0px"
	 width="324.3px" height="78.15px" viewBox="0 0 324.3 78.15" style="enable-background:new 0 0 324.3 78.15;" xml:space="preserve"
	>
<g>
	<g>
		<path style="fill-rule:evenodd;clip-rule:evenodd;fill:#2A4013;" d="M150.05,76.45c-0.267,0.333-0.417,0.566-0.45,0.7
			c0,0.066,0.033,0.233,0.1,0.5l0.85-0.301C150.65,76.884,150.483,76.583,150.05,76.45z M65.05,56.35l0.9,0.051l0.2-0.301
			L65.05,56.35z M19,38.4c0,0.233-0.017,0.4-0.05,0.5c0.333-0.2,0.4-0.55,0.2-1.05C19.05,38.017,19,38.2,19,38.4z M164.7,59.6
			l0.3,0.45l1.5-0.649L164.7,59.6z M83.05,56.9c-1.2,0.033-1.933,0.066-2.2,0.1c-0.767,0.167-1.333,0.283-1.7,0.35
			c-0.633,0.101-1.2,0.051-1.7-0.149c-0.1,0.467-1.117,0.75-3.05,0.85c-1.8,0.066-3-0.017-3.6-0.25l-0.1-0.85
			c-0.6,0.399-1.067,0.533-1.4,0.399c-0.3-0.133-0.366-0.517-0.2-1.149c-1,0.233-2.05,0.3-3.15,0.2c-0.434,0.566-1.1,0.899-2,1
			c-1.1,0.033-1.917,0.05-2.45,0.05c-0.267,0.666-0.767,1.133-1.5,1.399c-0.667,0.267-1.383,0.317-2.15,0.15
			c-0.067-0.2-0.05-0.366,0.05-0.5c-2.433,1.366-4.267,1.684-5.5,0.95c0.633-0.434,0.967-0.667,1-0.7
			c-0.867,0.033-1.517,0.033-1.95,0c-0.7-0.033-1.25-0.15-1.65-0.35l0.85-0.325c-0.108-0.02-0.408-0.128-0.9-0.325l0.5-0.9
			c-0.6,0.2-1.05,0.267-1.35,0.2c-0.233-0.033-0.566-0.2-1-0.5c-0.267,0.101-0.6,0.15-1,0.15c-0.5-0.033-0.85-0.033-1.05,0
			c0.033-0.134,0.033-0.384,0-0.75c-0.067-0.367-0.083-0.634-0.05-0.8c-0.2,0.399-0.4,0.566-0.6,0.5
			c-0.467-0.167-0.817-0.233-1.05-0.2c0.3-1.167,0.133-1.884-0.5-2.15c-1.033-0.133-1.867-0.316-2.5-0.55
			c0.3-0.5,0.784-0.866,1.45-1.1l-1.1-0.2c-0.1-1.033,0.434-1.601,1.6-1.7l-1.05-0.7c0.5-0.467,1.217-0.7,2.15-0.7
			c-1-0.133-1.817-0.366-2.45-0.699c0.533-0.301,1.2-1.184,2-2.65c-0.3,0.1-0.7,0.116-1.2,0.05c-0.4-0.033-1.133-0.267-2.2-0.7
			c-0.833-0.366-1.567-0.466-2.2-0.3c0.1-0.133,0.233-0.45,0.4-0.95c0.134-0.433,0.3-0.767,0.5-1l-2.9,0.301
			c0.267-0.233,0.633-0.784,1.1-1.65c-0.367,0-1.217,0.417-2.55,1.25c-1,0.634-1.884,0.616-2.65-0.05
			c-0.2,1.399-1.15,2.25-2.85,2.55c-1.667,0.3-2.367-0.35-2.1-1.95c-0.367,0.667-0.934,1.084-1.7,1.25
			c-0.566,0.101-1.316,0.066-2.25-0.1c0.034-0.101,0.05-0.351,0.05-0.75c0.033-0.367,0.1-0.65,0.2-0.851
			c-0.3,0.067-0.733,0.051-1.3-0.05c-0.633-0.066-1.05-0.1-1.25-0.1c0.033-0.066,0.15-0.316,0.35-0.75
			c0.133-0.367,0.316-0.65,0.55-0.851c-0.533,0.167-1.316,0.084-2.35-0.25l0.55-0.55c0.233-0.233,0.5-0.4,0.8-0.5
			c-0.233,0.067-0.533,0.083-0.9,0.05c-0.534-0.067-0.833-0.1-0.9-0.1v-0.1c-0.233,0.167-0.717,0.217-1.45,0.15
			c0.033-0.066,0.117-0.333,0.25-0.8c0.066-0.233,0.25-0.467,0.55-0.7c-0.2,0.067-0.466,0.1-0.8,0.1
			c-0.367-0.033-0.583-0.05-0.65-0.05c0.1-0.167,0.216-0.534,0.35-1.1c-0.867,0.633-2,0.8-3.4,0.5v-0.9
			c-1.066-0.233-1.783-0.333-2.15-0.3l0.15-0.05c-2.333,0-3.733-0.017-4.2-0.05c0.033-0.067,0.083-0.217,0.15-0.45
			C7.783,35.017,7.867,34.833,8,34.7l-2-0.25c-0.267,0.133-0.566,0.2-0.9,0.2c-0.567,0.033-0.883,0.05-0.95,0.05
			c0.133-0.167,0.317-0.5,0.55-1c-0.733-0.067-1.25-0.067-1.55,0c-0.066-0.067-0.083-0.217-0.05-0.45c0-0.267,0-0.417,0-0.45
			c-0.467,0.034-0.784,0-0.95-0.1l0.65-0.6c0.333-0.3,0.634-0.517,0.9-0.65c-0.867-0.2-1.434-0.317-1.7-0.35
			c0.233-0.167,0.55-0.434,0.95-0.8c0.4-0.3,0.783-0.5,1.15-0.6H2.85c0.2-0.534,0.333-0.833,0.4-0.9c-0.2-0.066-0.434-0.2-0.7-0.4
			c-0.333-0.2-0.533-0.316-0.6-0.35c0.233-0.133,0.583-0.267,1.05-0.4l-1.2-0.5c0.634-0.1,0.967-0.15,1-0.15
			c-1.2-0.3-1.933-1.117-2.2-2.45c0.2-0.066,0.466-0.216,0.8-0.45c-0.167-0.067-0.4-0.217-0.7-0.45
			c-0.333-0.267-0.567-0.433-0.7-0.5c0.333-0.367,0.767-0.617,1.3-0.75c0.233-0.066,0.784-0.15,1.65-0.25
			c-0.053-0.105-0.136-0.146-0.25-0.125c0.71-0.213,1.527-0.638,2.45-1.275L40.8,24.4c3.067,0.934,5.65,2.1,7.75,3.5
			c2.867,1.867,4.583,4.017,5.15,6.45c0.167,0.767,0.3,1.917,0.4,3.45c0.1,1.867,0,3.2-0.3,4l19.35-3.05
			c1.6-0.367,4.184,0.033,7.75,1.2c1.934,0.633,4.434,1.55,7.5,2.75c4.5,1.566,7.667,2.866,9.5,3.899
			c1.367,0.767,2.333,1.617,2.9,2.551c0.534,0.899,0.884,2.166,1.05,3.8v0.35l2.65-1.899c1.233-0.9,3.184-0.467,5.85,1.3
			c2.6,1.733,4.183,3.55,4.75,5.45c0.733-0.134,2.083-0.167,4.05-0.101l16-1.3c1.867,0.5,4.883,0.483,9.05-0.05
			c5.466-0.733,8.933-1.101,10.4-1.101l6.15-2.949c7.6-3.134,15.167-4.9,22.7-5.301c2.533-0.1,4.75-0.017,6.649,0.25
			c3.301,0.5,5.067,1.534,5.301,3.101l1.149,0.05l-4.05-6c-0.033-1,0.517-1.75,1.65-2.25c0.633-0.267,1.633-0.566,3-0.9l3.3-0.949
			c0.833-2.7,2.767-4.834,5.8-6.4c2.733-1.4,5.316-1.867,7.75-1.4c2.467,0.466,4.233,1.783,5.3,3.95
			c3.367-0.5,8.483-1.15,15.351-1.95c6.767-0.8,11.85-1.45,15.25-1.95c1.466-0.233,3.649-0.5,6.55-0.8
			c2.934-0.333,5.133-0.617,6.6-0.85c8.334-1.333,15.967-3.184,22.9-5.55c0.767-0.233,2.133-0.75,4.1-1.55
			c1.8-0.633,3.25-0.867,4.351-0.7c0.333,0.866,0.767,1.616,1.3,2.25c0.399,0.466,1.35,1.633,2.85,3.5c0.333-1,0.767-1.967,1.3-2.9
			c0.5-0.933,0.967-1.566,1.4-1.9c1.066-0.833,3.217-1.283,6.45-1.35c3.533-0.1,5.483,0.567,5.85,2c0.567-0.033,0.934,0.1,1.101,0.4
			c0.267,0.533,0.433,0.833,0.5,0.9c0.066,0.066,0.416,0.25,1.05,0.55c0.566,0.267,0.866,0.45,0.899,0.55
			c0.467,1.033,0.434,2-0.1,2.9c-0.533,0.933-1.367,1.283-2.5,1.05l-9,4.35c-0.7,0.066-1.467,0.066-2.3,0
			c1.533,2.267,3.8,5.667,6.8,10.2c1.233-0.5,2.483-2.167,3.75-5c1.533-3.467,2.533-5.5,3-6.1c0.434,1.3,1.316,2.15,2.65,2.55
			c1.933,0.633,3.133,1.133,3.6,1.5c0.9,0.733,1.333,1.3,1.3,1.7c-0.167,0.634-0.233,1.351-0.2,2.15c-1.133,0.1-2.133,0.417-3,0.95
			c0.101,0.233,0.167,0.583,0.2,1.05c0.033,0.5,0.083,0.816,0.15,0.95c-0.267,0.133-0.467,0.233-0.601,0.3
			c-0.199,0.1-0.433,0.15-0.699,0.15l0.399,0.899c-1.5-0.033-2.616-0.05-3.35-0.05c-1.367-0.033-2.434,0.116-3.2,0.45
			c0.233,0.767,0,1.333-0.7,1.7c-0.566,0.333-1.25,0.433-2.05,0.3c-0.167,0.8-0.233,1.333-0.2,1.6c-1.033,0.233-2-0.017-2.899-0.75
			c-0.233,0.9-0.351,1.4-0.351,1.5l-0.35-0.6c-0.167,0.633-0.7,0.967-1.601,1c-1.066-0.033-1.85-0.05-2.35-0.05
			c-1.333,1.199-3.566,1.866-6.7,2c-0.267,1.399-1.566,1.716-3.899,0.949c0.066,0.567,0.149,0.983,0.25,1.25
			c-0.434,0.067-1.017,0.084-1.75,0.051c-0.867-0.034-1.417-0.051-1.65-0.051l0.05,1c-0.899,0.167-2.533-0.083-4.899-0.75
			c-2.5-0.699-3.75-1.399-3.75-2.1c-0.934,0.167-1.717,0.167-2.351,0c-0.333,1.134-1.1,1.65-2.3,1.55l-0.05-0.8
			c-0.667,1.066-1.733,1.283-3.2,0.65c0.121-0.942,0.797-1.534,2.025-1.775c-0.139-0.001-0.297-0.009-0.476-0.025
			c-0.533-0.066-0.833-0.1-0.899-0.1c0.033-0.167,0.017-0.517-0.051-1.05c-0.066-0.467-0.066-0.834,0-1.101
			c-0.633,0.167-1.05,0.233-1.25,0.2c-0.233-0.033-0.517-0.2-0.85-0.5c-1.1-0.066-2.1,0.533-3,1.8c-0.833,1.2-1.8,1.65-2.9,1.351
			c-0.033-0.167-0.033-0.351,0-0.55c-1.1,1.267-2.433,1.716-4,1.35c0.034-0.267,0.034-0.717,0-1.35
			c-1.333,0.866-2.633,1.283-3.899,1.25l-0.45-0.851c-0.1-0.033-0.316-0.017-0.65,0.05c-0.366,0.067-0.583,0.101-0.649,0.101
			L256.1,54.1c-0.767,0.534-1.616,0.767-2.55,0.7c-0.1,0.733-0.6,1.167-1.5,1.3c-0.733,0.134-1.483,0.067-2.25-0.199
			c-0.533,0.466-1.05,0.649-1.55,0.55c-0.566-0.134-0.833-0.55-0.8-1.25c-0.334,0.3-0.7,0.45-1.101,0.45
			c-0.699,0.033-1.083,0.05-1.149,0.05c0.033-0.233,0-0.65-0.101-1.25c-0.933-0.101-1.866-0.101-2.8,0l1.45-0.4
			c-1.033,0.134-1.667,0.184-1.9,0.15c-0.666-0.066-0.916-0.417-0.75-1.05c-0.767,1.566-1.333,2.583-1.699,3.05
			c-0.601,0.733-1.767,0.833-3.5,0.3c0.3,0.667,0.399,1.267,0.3,1.8c-0.101,0.5-0.367,0.684-0.8,0.55
			c-0.167,0.834-0.884,1.134-2.15,0.9c-1.066-0.2-1.983-0.616-2.75-1.25l-0.05,0.85c-0.434-0.066-0.733-0.116-0.9-0.149
			c-0.233-0.066-0.483-0.3-0.75-0.7c-0.366,0.434-0.85,0.65-1.45,0.65c-0.566,0-1.033-0.184-1.399-0.551
			c-1.033,0.867-2,1.034-2.9,0.5c0.033-0.033,0.283-0.267,0.75-0.699c0.232-0.233,0.475-0.408,0.726-0.525
			c-0.972,0.33-2.43,0.372-4.375,0.125c-1.634,0.267-2.851,0.1-3.65-0.5c-0.033,0.866-0.417,1.316-1.15,1.35
			c-0.733,0.034-1.383-0.283-1.949-0.949c0.166,0.699,0.017,1.183-0.45,1.449c-0.4,0.233-0.967,0.233-1.7,0l-0.1-0.85
			c-0.467,0.566-1.667,0.85-3.601,0.85c-0.233,0.233-0.733,0.483-1.5,0.75c-0.6,0.233-1.017,0.667-1.25,1.301
			c-0.066,0.199-0.116,0.449-0.149,0.75c0,0.199-0.101,0.399-0.301,0.6c0.867,0.667,1.101,1.283,0.7,1.85
			c-0.399,0.601-1.066,0.667-2,0.2c0.4,0.267,0.634,0.517,0.7,0.75c0,0.033,0,0.417,0,1.15c-1.134,0.2-2.366,0.033-3.7-0.5
			c-0.2,0.233-0.316,0.517-0.35,0.85c-0.834-0.1-1.367-0.166-1.601-0.2c0,1.134-0.633,1.534-1.899,1.2L196.1,67.1
			c-1.6,0-2.8-0.017-3.6-0.05c0.033-0.233,0.033-0.6,0-1.1c-0.667,0.3-1.25,0.316-1.75,0.05c-0.5-0.3-0.717-0.833-0.65-1.6
			c-1.6,0.666-2.699,0.483-3.3-0.551c-0.066,0.534-0.083,0.9-0.05,1.101c-1.634,0.366-2.866,0.583-3.7,0.649
			c-1.467,0.167-2.666-0.116-3.6-0.85c0.066,1,0.066,2,0,3c-1.334-0.134-2.316-0.15-2.95-0.05c0.267,1,0.05,1.733-0.65,2.2
			c-0.666,0.466-1.149,0.083-1.449-1.15c-0.267,0.233-0.634,0.384-1.101,0.45c-0.533,0.066-0.934,0.133-1.2,0.2
			c0-0.101-0.083-0.384-0.25-0.851c-0.1-0.366-0.133-0.684-0.1-0.95c-0.134,0.733-0.434,1.233-0.9,1.5
			c-0.5,0.334-1.066,0.334-1.699,0c0.066-0.233,0.083-0.649,0.05-1.25c-1.233-0.033-2.15-0.1-2.75-0.199
			c-0.134,0.5-0.334,0.85-0.601,1.05c0.167,0,0.367,0.033,0.601,0.1c0.1,0.2,0.1,0.384,0,0.55c-0.733,0.067-1.267,0.101-1.601,0.101
			c-0.233,0.633-0.6,0.967-1.1,1c-0.521,0-0.929-0.316-1.225-0.95c0.54,1.247,0.415,2.413-0.375,3.5c-0.234,0-0.634,0.017-1.2,0.05
			c-0.534,0.066-0.934,0.084-1.2,0.05c0.233,0.801,0.316,1.667,0.25,2.601c-0.767,0.1-1.684,0.066-2.75-0.101
			c-1.7-0.267-2.617-0.399-2.75-0.399c0.066,0.166,0.066,0.467,0,0.899c-0.066,0.467-0.083,0.784-0.05,0.95
			c-0.367,0.033-0.867-0.033-1.5-0.2c-0.667-0.133-1.15-0.199-1.45-0.199c-0.066,0.633-0.083,1.1-0.05,1.399
			c-0.534,0.167-1.067,0.167-1.6,0l-0.15-0.399c-1.434,0.366-2.917,0.433-4.45,0.199c-1.767-0.3-2.8-0.966-3.1-2
			c-1.033,0.301-2.483,0.351-4.35,0.15c0.067-0.066,0.2-0.267,0.4-0.6c0.167-0.267,0.333-0.467,0.5-0.601
			c-0.934,0-1.617-0.017-2.05-0.05c-0.833-0.033-1.483-0.134-1.95-0.3c0.1-0.066,0.283-0.283,0.55-0.65
			c0.267-0.333,0.5-0.566,0.7-0.7c-0.267,0.034-0.684,0.034-1.25,0c-0.567-0.066-0.983-0.083-1.25-0.05
			c-0.034-0.233-0.1-0.55-0.2-0.95c-0.9,0-1.55,0-1.95,0c-0.733-0.033-1.316-0.199-1.75-0.5c-0.767,0.733-1.6,1.034-2.5,0.9
			c-0.966-0.167-1.383-0.833-1.25-2c-0.633,0.3-1.433,0.283-2.4-0.05c0.1-0.101,0.25-0.283,0.45-0.55c0.167-0.2,0.35-0.367,0.55-0.5
			c-1,0.033-1.75,0.05-2.25,0.05c-0.867-0.033-1.566-0.15-2.1-0.351c0.167-0.233,0.384-0.583,0.65-1.05
			c-0.767,0.066-1.35,0.101-1.75,0.101c-0.634-0.034-1.167-0.167-1.6-0.4c0.1-0.066,0.316-0.233,0.65-0.5
			c0.233-0.2,0.483-0.35,0.75-0.45c-1.8,0.533-3.45,0.5-4.95-0.1c0.134-0.233,0.284-0.634,0.45-1.2c0.2-0.467,0.434-0.833,0.7-1.1
			c-0.934,0.133-1.8-0.084-2.6-0.65c0.1-0.1,0.25-0.333,0.45-0.7c0.167-0.267,0.367-0.483,0.6-0.649c-0.367,0.1-0.783,0.1-1.25,0
			c-0.5-0.101-0.883-0.184-1.15-0.25l0.2-0.351c-0.967,0.101-2.317,0.066-4.05-0.1l0.05-0.851c-1.2,0.834-3.017,1.117-5.45,0.851
			c0.1-0.2,0.2-0.55,0.3-1.05c0.1-0.5,0.217-0.867,0.35-1.101c-0.933,0.533-2.133,0.684-3.6,0.45c0.233-0.634,0.733-1.167,1.5-1.6
			c-0.833,0.233-1.517,0.133-2.05-0.301L96.7,58.65c-1.5,0.533-2.534,0.816-3.1,0.85c-1.233,0.033-2.034-0.533-2.4-1.7
			c-0.434,0.467-0.983,0.7-1.65,0.7c-0.667,0.033-1.25-0.184-1.75-0.65l0.4-1c-1.567,0.267-2.817,0.317-3.75,0.15
			c0.396-0.185,0.662-0.293,0.8-0.325C84.701,56.762,83.967,56.837,83.05,56.9z"/>
		<path style="fill-rule:evenodd;clip-rule:evenodd;fill:#2A4013;" d="M202.45,11c-0.033-0.267,0-0.684,0.1-1.25
			c0.934-0.067,1.601,0.316,2,1.15c0.334,0.733,0.417,1.567,0.25,2.5l-5.649,5.65c-1.634-1.2-2.934-2.55-3.9-4.05
			c-1.333-2.033-0.75-3.033,1.75-3c-0.1-0.267-0.15-0.65-0.15-1.15c0.034-0.534,0.017-0.9-0.05-1.1c0.8-0.067,2.017,0.15,3.65,0.65
			l0.35-0.7c0.101,0.1,0.384,0.3,0.851,0.6C202.017,10.533,202.283,10.767,202.45,11z"/>
		<path style="fill-rule:evenodd;clip-rule:evenodd;fill:#2A4013;" d="M123.4,15.4c0.833-0.3,1.934-0.433,3.3-0.4
			c0.8,0,1.95,0.017,3.45,0.05l10.35,15.7c-4.867,1.667-11.767,1.65-20.7-0.05c-2.9-0.1-5.333-1.083-7.3-2.95
			c-0.333-0.7-0.267-1.367,0.2-2c-0.567-1.367-0.617-2.35-0.15-2.95c0.4-0.5,1.517-1.05,3.35-1.65
			c-0.433-0.533-0.483-1.017-0.15-1.45c0.248-0.358,0.64-0.558,1.175-0.6c-0.978-0.035-1.586-0.485-1.825-1.35
			c1.133-0.1,2.833-0.117,5.1-0.05c-0.367-0.1-0.75-0.284-1.15-0.55c-0.433-0.3-0.767-0.533-1-0.7c0.667-0.034,1.634-0.034,2.9,0
			c1.133-0.034,2.05-0.267,2.75-0.7C123.533,15.717,123.434,15.6,123.4,15.4z"/>
	</g>
	<g>
		<path style="fill-rule:evenodd;clip-rule:evenodd;fill:#314D15;" d="M49.25,52.15c0.9-0.034,1.767-0.233,2.6-0.601
			C50.817,51.417,49.95,51.616,49.25,52.15z M247.95,50.8l0.45-0.5C247.566,50.767,247.417,50.934,247.95,50.8z M306.45,22.2
			c0.066,1.033,0.066,1.8,0,2.3c1.366-0.733,2.566-0.85,3.6-0.35c1.101,0.567,1.417,1.65,0.95,3.25c-0.1,0.067-0.25,0-0.45-0.2
			c-0.233-0.2-0.434-0.284-0.6-0.25c-0.233,0.933-0.316,2.083-0.25,3.45c0.934-1.133,2-1.883,3.2-2.25c1.366-0.4,2.366-0.066,3,1
			c0.5-0.233,1.149-0.333,1.949-0.3c0.967,0.066,1.601,0.066,1.9,0c-0.1,0.333-0.134,0.95-0.1,1.85c0,0.733-0.134,1.333-0.4,1.8
			c1.6-0.567,2.467-0.083,2.6,1.45c0.101,1.4-0.333,2.716-1.3,3.95c1.434,1.167,1.7,2.466,0.8,3.9
			c-0.899,1.434-1.866,1.367-2.899-0.2c-0.101,0.934-0.117,1.5-0.05,1.7c-0.434-0.066-1.184-0.033-2.25,0.101
			c-1.067,0.166-1.834,0.199-2.301,0.1c0.267,0.467,0.4,1.1,0.4,1.9c0,0.966,0.05,1.6,0.15,1.899c-1.867,0.4-3.9,0.117-6.101-0.85
			c0.066,0.267,0.101,0.633,0.101,1.1c-0.034,0.533-0.034,0.9,0,1.101c-1.867,0.3-4.5-0.101-7.9-1.2
			c0.134,0.566,0.066,1.333-0.2,2.3c-0.267,1.1-0.383,1.816-0.35,2.15c-2.267-0.067-4.117-1.067-5.55-3
			c0.1,0.366,0.116,0.899,0.05,1.6c-0.101,0.7-0.117,1.2-0.05,1.5c-2.367,0.533-4.084-0.217-5.15-2.25
			c0.333,2.167-0.267,3.366-1.8,3.6c-1.566,0.233-2.334-0.733-2.3-2.899c-0.4,0.467-0.784,0.717-1.15,0.75
			c-0.6,0.066-1.116,0.2-1.55,0.399c-0.101-0.366-0.267-0.949-0.5-1.75c-0.2-0.699-0.267-1.333-0.2-1.899
			c-0.3,1.399-0.866,2.483-1.7,3.25c-0.934,0.899-2.05,1.166-3.35,0.8c-0.267-0.9-0.267-1.866,0-2.9l-0.25,0.25
			c-0.601-0.899-1.767-1.399-3.5-1.5c-1.601-0.1-2.667-0.816-3.2-2.149c-2.167,2.833-3.7,3.5-4.6,2
			c0.133,1.033-0.034,1.816-0.5,2.35c-0.667,0.566-1.2,1.066-1.601,1.5l-0.5-1.3c-0.533,1.167-1.467,1.95-2.8,2.35
			c-1.134,0.334-2.417,0.367-3.85,0.101c0.033-0.233,0.017-0.65-0.051-1.25c-0.1-0.566-0.116-0.983-0.05-1.25
			c-1.566,1.767-3.399,2.616-5.5,2.55c-0.434-0.767-0.684-1.6-0.75-2.5l-1.6,0.55c-1.101,1.066-2.467,1.55-4.101,1.45
			c-1.699-0.1-3-0.816-3.899-2.15c-0.3,1.267-0.867,2.084-1.7,2.45c-0.833,0.367-1.833,0.233-3-0.399
			c0.267,1.733-0.184,2.8-1.35,3.199c-1.2,0.4-2.334-0.149-3.4-1.649c0.634,2.566,0.116,3.733-1.55,3.5
			c-1.533-0.233-2.95-1.167-4.25-2.8c-0.533,0.267-1.05,0.6-1.55,1c-0.067-0.301-0.25-0.717-0.551-1.25
			c-0.333-0.601-0.55-1.034-0.649-1.301c-0.2,0.867-0.584,1.517-1.15,1.95c-0.967,0.733-1.5,1.15-1.6,1.25V53.7
			c-0.267,0.666-0.667,1.233-1.2,1.7c-0.9,0.833-1.384,1.283-1.45,1.35l0.05-1.85c-3.3,1.399-6.033,1.983-8.199,1.75
			c0.1-0.4,0.267-0.784,0.5-1.15h-2.2c-0.134,0.8-0.283,1.4-0.45,1.8c-2.1,0.7-3.583,0.117-4.45-1.75
			c-0.6,2.367-1.633,4.084-3.1,5.15c0.7,2.467-0.3,3.366-3,2.7c-2.733-0.7-4.233-1.584-4.5-2.65c-0.467,1.733-1.2,2.616-2.2,2.65
			c-1,0-1.783-0.834-2.35-2.5c-0.301,0.366-0.784,0.716-1.45,1.05c-0.767,0.366-1.217,0.616-1.351,0.75
			c-0.1-0.533-0.1-1.066,0-1.601c-0.933,0.767-1.566,1.301-1.899,1.601l-0.25-1.2c-1.434,0.033-2.367,0.767-2.8,2.2
			c-0.233,1.899-0.434,3.3-0.601,4.2c-1.3,0.166-2.5-0.117-3.6-0.851c-0.9-0.633-1.467-1.416-1.7-2.35
			c0.033,0.333,0.05,0.7,0.05,1.1c-0.033,0.8-0.033,1.316,0,1.55c-0.7-0.399-1.233-0.733-1.6-1c-0.733-0.433-1.233-1.116-1.5-2.05
			c-0.3,1.967-1.267,3.533-2.9,4.7c0-0.2-0.116-0.8-0.35-1.8c-0.2-0.834-0.25-1.533-0.15-2.101c-0.8-0.233-1.333-0.449-1.6-0.649
			c-0.3-0.267-0.667-0.55-1.101-0.851c-0.767,2.101-1.366,3.5-1.8,4.2c-0.733,1.233-2.066,1.334-4,0.3
			c0.133,1.334-0.1,2.284-0.7,2.851c-0.633,0.566-1.567,0.566-2.8,0c-0.133,1.033-0.183,1.783-0.15,2.25
			c-1.967-0.066-3.45-0.867-4.45-2.4c-0.2,1.066-0.284,1.851-0.25,2.351c-0.8,0.133-1.55-0.067-2.25-0.601
			c-0.633-0.5-1.167-1.233-1.6-2.2c0.1,0.834-0.033,1.684-0.4,2.551c-0.434,0.899-0.717,1.517-0.85,1.85c0-0.3-0.117-0.8-0.35-1.5
			c-0.267-0.767-0.417-1.283-0.45-1.55c-0.5,1.2-1.083,1.783-1.75,1.75c-0.667-0.033-1.183-0.684-1.55-1.95
			c-2.1,0.2-4.133-0.033-6.1-0.7l0.7-1.95l-1.95-1.949c0.633,2.566,0.017,3.833-1.85,3.8c-1.8-0.066-3.15-1.117-4.05-3.15
			c-0.333,0.667-0.7,1.05-1.1,1.15c-0.533,0.2-0.95,0.434-1.25,0.7c0-0.4-0.117-1.334-0.35-2.801c-0.466,0.567-1.017,0.9-1.65,1
			c-0.867,0.134-1.433,0.267-1.7,0.4c-0.167-0.167-0.2-0.45-0.1-0.85l0.15-0.851c-0.433,0.233-0.883,0.367-1.35,0.4
			c-0.066,0-0.517,0-1.35,0c0.034-1.3-0.433-2.184-1.4-2.65c-0.867-0.399-1.983-0.434-3.35-0.1c0.167-0.167,0.517-0.667,1.05-1.5
			c0.467-0.7,0.867-1.2,1.2-1.5c-0.867,0.133-1.733,0.083-2.6-0.15c-0.833-0.267-1.383-0.434-1.65-0.5
			c-0.3,1.634-1.117,2.233-2.45,1.8c-1.367-0.399-1.85-1.449-1.45-3.149c-0.566,0.434-1.233,0.684-2,0.75
			c-1.167,0.133-1.867,0.233-2.1,0.3c0.1-0.134,0.2-0.483,0.3-1.05c0.133-0.566,0.25-0.967,0.35-1.2c-1.7,1.134-3.867,1.434-6.5,0.9
			c0.066-0.167,0.133-0.684,0.2-1.551c0.033-0.8,0.133-1.366,0.3-1.699c-0.467,0.466-1.2,0.866-2.2,1.199
			c-1.367,0.467-2.117,0.733-2.25,0.801c0.067-0.167,0.183-0.75,0.35-1.75c0.133-0.834,0.367-1.517,0.7-2.051
			c-1.966,0.7-3.883,0.767-5.75,0.2c0.1-0.166,0.233-0.616,0.4-1.35c0.167-0.533,0.4-0.983,0.7-1.351
			c-1.467,1.101-2.917,1.917-4.35,2.45c-1.933,0.667-3.316,0.517-4.15-0.45c-0.9,1.2-2.1,2.051-3.6,2.551
			c-1.466,0.5-2.966,0.616-4.5,0.35c0.133-0.167,0.383-0.55,0.75-1.15c0.333-0.566,0.617-0.983,0.85-1.25
			c-1.667,0.267-2.983,0.4-3.95,0.4c-1.467,0.033-2.8-0.134-4-0.5c0.066-0.634,0.283-1.15,0.65-1.55
			c-1.467,1.467-3.083,2.149-4.85,2.05l-0.2-1.45c-0.433,1.533-1.183,2.45-2.25,2.75c-1.133,0.3-1.9-0.283-2.3-1.75
			c-0.5,1.867-1.4,2.684-2.7,2.45c-1.333-0.233-1.75-1.15-1.25-2.75c-0.466,1.2-1.35,1.967-2.65,2.3
			c-1.167,0.267-2.45,0.15-3.85-0.35c-0.033-1.334,0.367-2.351,1.2-3.05c-0.967,0.1-1.883,0.05-2.75-0.15
			c0.133-0.233,0.283-0.833,0.45-1.8c0.167-0.834,0.433-1.483,0.8-1.95c-0.5-0.434-0.767-0.684-0.8-0.75
			c-0.067-0.167-0.083-0.9-0.05-2.2c-0.033-0.267-0.217-0.434-0.55-0.5c-0.467-0.1-0.717-0.166-0.75-0.2
			c0.467-0.066,1.167-0.233,2.1-0.5c-2.534,0.134-4.517-0.066-5.95-0.6c0.033-2.467,1.983-3.384,5.85-2.75l-0.9-1.9l-6.25-0.25
			c0.033-0.1,0.133-0.283,0.3-0.55c-0.3-0.066-0.8-0.133-1.5-0.2c-0.667-0.033-1.133-0.1-1.4-0.2c-0.833,1.1-1.934,1.85-3.3,2.25
			c-1.3,0.367-2.65,0.4-4.05,0.1v-1.6c-0.167,1.434-0.8,2.25-1.9,2.45c-1.133,0.2-1.817-0.433-2.05-1.899c-0.633,0.4-1.3,0.6-2,0.6
			c-1.133,0.034-1.783,0.067-1.95,0.1l1.2-1.5c-0.267,0.133-0.683,0.233-1.25,0.3c-0.633,0.066-1.05,0.133-1.25,0.2
			c0.167-0.4,0.333-1.117,0.5-2.15c0.167-0.967,0.383-1.7,0.65-2.2c-1.367,0.5-2.284,0.9-2.75,1.2c-0.333-0.067-0.5-0.267-0.5-0.6
			c0-0.2,0-0.4,0-0.6c-1.233,0.467-2.1,0.817-2.6,1.05c-0.133-0.8-0.333-1.317-0.6-1.55c-0.433,0.534-1,0.883-1.7,1.05
			c-0.966,0.2-1.55,0.35-1.75,0.45c0.1-0.4,0.083-1.183-0.05-2.35c-0.6,0.633-1.283,1.017-2.05,1.15c-0.534,0.066-1.4,0.033-2.6-0.1
			c0.066-0.167,0.133-0.517,0.2-1.05c0.067-0.534,0.167-0.934,0.3-1.2c-0.5,0.5-1,0.833-1.5,1c-1.033,0.333-1.583,0.517-1.65,0.55
			c0.233-0.466,0.483-1.05,0.75-1.75c0.267-0.533,0.767-1.05,1.5-1.55c-1.1-0.067-1.85-0.083-2.25-0.05
			c0.133-0.1,0.466-0.483,1-1.15c0.433-0.6,0.867-1.033,1.3-1.3c-0.4,0.033-1.083,0-2.05-0.1c-0.934-0.133-1.633-0.167-2.1-0.1
			c0.133-0.066,0.816-0.417,2.05-1.05c0.8-0.4,1.5-0.683,2.1-0.85c-2.2,0.533-3.933,0.083-5.2-1.35
			c0.333-0.066,0.85-0.216,1.55-0.45c0.633-0.167,1.25-0.233,1.85-0.2c-1.267-0.3-2.167-0.5-2.7-0.6c0.4-1.033,0.817-1.667,1.25-1.9
			c0.5-0.3,1.367-0.35,2.6-0.15c-0.867-0.267-1.4-0.533-1.6-0.8c-0.167-0.367-0.433-0.733-0.8-1.1c0.767-0.067,2.017-0.1,3.75-0.1
			c1.6,0,2.833-0.05,3.7-0.15c-1.133-1-1.833-1.583-2.1-1.75c0.833-0.067,1.85,0.033,3.05,0.3c0.667,0.133,1.617,0.367,2.85,0.7
			l0.2-1.7c0.233,0.133,0.8,0.3,1.7,0.5c0.6,0.167,1.133,0.583,1.6,1.25c-0.067-0.367-0.067-0.883,0-1.55
			c0.066-0.733,0.083-1.233,0.05-1.5c0.733,0.1,1.467,0.383,2.2,0.85c0.7,0.466,1.267,1.033,1.7,1.7L59.8,30.05
			c2.067,0.233,4.267,1.467,6.6,3.7c2.9,2.767,4.9,4.417,6,4.95c1.1-0.667,2.333-0.9,3.7-0.7c-2.9-0.633-4.783-1.75-5.65-3.35
			c1.767-0.6,3.933-0.816,6.5-0.65c0.167-0.7,0.5-1.233,1-1.6c0.633-0.5,1-0.833,1.1-1c0.4,0.9,0.65,1.517,0.75,1.85
			c0.034-1.967,1-3.067,2.9-3.3c1.066-0.133,2.816-0.133,5.25,0c0,0.233,0.117,0.85,0.35,1.85c0.233,0.9,0.3,1.6,0.2,2.1
			c0.967-1,2.1-1.6,3.4-1.8c1.3-0.2,2.567,0,3.8,0.6c0.2-1.833,1.383-2.8,3.55-2.9c2.133-0.066,3.433,0.684,3.9,2.25h6.95
			c-1.667,0.267-3.15,0.9-4.45,1.9c2.767,0.733,3.767,1.767,3,3.1c-1.633,1.7-2.783,2.983-3.45,3.851c-0.467,0.6-0.583,1.3-0.35,2.1
			c0.167,0.6-0.383,1.333-1.65,2.2c-0.4,0.233-1.1,0.383-2.1,0.45c8.767,2.233,16.566,3.833,23.4,4.8c8.533,1.2,16.467,1.6,23.8,1.2
			c-3.267-0.601-5.533-1.384-6.8-2.351c0.633-0.566,1.85-1.45,3.65-2.649c1.567-1.034,2.733-1.983,3.5-2.851
			c-1.133-1.467-3.45-2.5-6.95-3.1c-3.867-0.7-6.4-1.55-7.6-2.55c1.8-1.533,4.133-2.883,7-4.05c1.566-0.633,4.117-1.5,7.65-2.6
			c-2.767,0.267-4.833-0.35-6.2-1.85c-1.433-1.566-0.583-3,2.55-4.3c-0.233,0-0.833-0.2-1.8-0.6c-0.966-0.367-1.633-0.567-2-0.6
			c-0.1-0.2-0.15-0.4-0.15-0.6c-1.566-0.167-3.05-0.417-4.45-0.75c-0.367-0.1-1.1-0.617-2.2-1.55c-0.8-0.7-1.9-0.9-3.3-0.6
			c0.1-0.367,0.25-0.967,0.45-1.8c-0.867-0.067-2.267-0.1-4.2-0.1c-1.833,0.033-3.233,0-4.2-0.1c0.1-0.3,0.233-0.883,0.4-1.75
			c-1.467,0.167-3.05-0.333-4.75-1.5c0.167-0.066,0.567-0.3,1.2-0.7c0.533-0.333,1.017-0.55,1.45-0.65
			c-0.7,0.034-1.316-0.117-1.85-0.45c-0.8-0.533-1.267-0.817-1.4-0.85c0.133-0.533,0.567-1.167,1.3-1.9
			c-0.133-0.133-0.383-0.2-0.75-0.2c-0.267,0-0.434-0.183-0.5-0.55c1.333-1.367,3.367-1.817,6.1-1.35L121.9,10
			c2.067-0.967,4.85-0.933,8.35,0.1c3.6,1.033,5.75,2.55,6.45,4.55c0.733,0.2,1.75,0.267,3.05,0.2l0.1,1.15
			c0.5-0.233,1.25-0.35,2.25-0.35c1.133,0,1.85-0.05,2.15-0.15c0.233,1,0.983,2.133,2.25,3.4c1.467,0.434,3.183,1.133,5.15,2.1
			c1.133,0.567,2.95,1.483,5.45,2.75c0.267,0.133,2.367,1.1,6.3,2.9c2.6,1.2,4.699,2.3,6.3,3.3c0.666,0.4,1.85,1.017,3.55,1.85
			c1.833,0.867,3.134,1.517,3.9,1.95c3.133-1.7,8.233-4.217,15.3-7.55c5.967-2.967,9.866-5.434,11.7-7.4l-2.45-0.7
			c0.066-0.167,0.2-0.483,0.399-0.95c0.101-0.333,0.267-0.667,0.5-1c-0.633-0.3-1.083-0.767-1.35-1.4
			c-0.366-0.8-0.634-1.267-0.8-1.4c0.366-0.167,1.5-0.9,3.399-2.2c1.267-0.867,2.5-1.217,3.7-1.05
			c-0.267-0.833-0.116-1.55,0.45-2.15c0.533-0.567,1.35-0.967,2.45-1.2c1.533,0.167,2.399,1.35,2.6,3.55
			c0.167,2.034-0.184,3.517-1.05,4.45c1.733,1.1,2.55,2.833,2.45,5.2c-1.033,0.4-3.217,0.283-6.55-0.35
			c-1.067,3.333-1.767,6.167-2.101,8.5c-0.2,2.566-0.35,4.433-0.45,5.6c-0.166,2.033-0.566,3.7-1.199,5l1.449-0.1
			c6.4-0.1,13.601-0.117,21.601-0.05c1.767-1.267,4.566-2.75,8.399-4.45c-0.366-0.8-0.233-1.6,0.4-2.4
			c0.667-0.867,1.85-1.6,3.55-2.2c-0.533-0.033-1.116-0.233-1.75-0.6c-0.767-0.467-1.267-0.733-1.5-0.8
			c0.3-0.533,0.65-1.033,1.05-1.5c-1.833-0.333-3.533-0.8-5.1-1.4c-1.634-0.6-2.65-1.167-3.05-1.7c1.166-0.167,2.25-0.233,3.25-0.2
			c0.2-0.433,0.133-0.816-0.2-1.15c0.4,0.233,0.983,0.35,1.75,0.35c0.866,0.033,1.434,0.083,1.7,0.15c0.133-0.333,0.2-0.933,0.2-1.8
			c1.166,0.167,2.366-0.2,3.6-1.1c1.2-0.9,2.384-1.267,3.55-1.1c0.2-1.033,0.233-1.9,0.101-2.6l-0.7,1.35
			c0.1-2.1,0.899-3.017,2.399-2.75c1.4,0.233,2.384,1.133,2.95,2.7c1.566,0.133,2.884,0.417,3.95,0.85
			c0.096,1.312-0.129,2.229-0.675,2.75c0.143,0.672,0.135,1.456-0.025,2.35c-0.434,0-0.767,0.017-1,0.05
			c1.134,0.633,1.9,1.233,2.3,1.8c1.601,2.233,1.917,3.817,0.95,4.75c-0.857,0.792-2.366,0.917-4.524,0.375
			c0.049,0.064,0.107,0.139,0.175,0.225c-0.032-0.012-0.065-0.02-0.101-0.025c0.444,0.678,0.561,1.604,0.351,2.775
			c4.767,1.933,6.8,3.767,6.1,5.5h7.351c0.733,0,2.383-0.117,4.949-0.35c2.801-0.267,4.967-0.433,6.5-0.5
			c0.733-3.533,2.384-6.417,4.95-8.65c2.867-2.5,5.783-2.95,8.75-1.35c3-2.3,5.967-3.917,8.9-4.85
			C299.7,22.15,302.95,21.867,306.45,22.2z"/>
		<path style="fill-rule:evenodd;clip-rule:evenodd;fill:#2C4214;" d="M62.5,16.15c3.934-0.133,6.4,2.467,7.4,7.8l1.15,0.25
			c-0.066,0.1-0.333,0.65-0.8,1.65c-0.367,0.767-0.9,1.333-1.6,1.7c0.633,0.367,1.15,0.9,1.55,1.6c0.533,0.934,0.833,1.434,0.9,1.5
			c-0.534,0.133-1.383,0.2-2.55,0.2l-0.2,1.1c-1.833,0.233-3.733-0.167-5.7-1.2c0.367-1.033,0.284-1.8-0.25-2.3
			c-0.533-0.467-1.466-0.634-2.8-0.5c1.4-0.667,1.45-1.983,0.15-3.95c-1.1-1.667-2.35-2.917-3.75-3.75
			c2.767-0.1,4.467-1.067,5.1-2.9c-1.034-0.434-1.9-0.684-2.6-0.75c0.467-0.5,1.017-0.817,1.65-0.95c0.367-0.1,1.15-0.183,2.35-0.25
			V16.15h-0.55c-0.167,0.333-0.233,0.567-0.2,0.7c0.033,0.233,0.283,0.417,0.75,0.55V16.15z"/>
	</g>
	<g>
		<path style="fill-rule:evenodd;clip-rule:evenodd;fill:#385C19;" d="M88.45,24.05l-2-1.3c1.233,0.033,2.466,0.65,3.7,1.85
			c1.867,1.9,2.833,2.867,2.9,2.9c0.167,1.133,0.35,1.9,0.55,2.3c0.233,0.4,0.783,0.934,1.65,1.6c-1.133,0.4-2,0.6-2.6,0.6
			c0.233,0.233,0.467,0.6,0.7,1.1c0.233,0.533,0.417,0.883,0.55,1.05c-1.167,1.533-2.717,2.083-4.65,1.65l-0.2,1.5
			c-1.1,0.133-2.4-0.017-3.9-0.45c-1.8-0.567-3.117-0.867-3.95-0.9l-0.05,0.15c-0.367,0.2-0.783,0.35-1.25,0.45l0.55,0.2
			c-0.167,0.467-0.3,0.767-0.4,0.9c-0.1,0.233-0.333,0.533-0.7,0.9c1,1.1,1.267,2.05,0.8,2.851c-0.467,0.767-1.433,1.017-2.9,0.75
			c-0.333,0.966-0.933,1.6-1.8,1.899c-0.833,0.3-1.817,0.283-2.95-0.05c0.133-0.267,0.333-0.833,0.6-1.7
			c-1.267,0.601-2.517,0.767-3.75,0.5c-0.667-0.033-1.15-0.017-1.45,0.05c-0.3,1.167-1.217,1.801-2.75,1.9s-2.467,0.733-2.8,1.9
			c-0.2-0.101-0.6-0.217-1.2-0.351c-0.533-0.1-0.983-0.283-1.35-0.55c-0.3,2.366-1.617,3.05-3.95,2.05
			c-0.1,0.134-0.017-0.166,0.25-0.899l0.25-0.801c-0.4,0.801-0.883,1.217-1.45,1.25c-0.867-0.1-1.667-0.116-2.4-0.05
			c0.033-0.6,0.183-1.2,0.45-1.8c-0.467,0-1.017-0.1-1.65-0.3c-0.767-0.233-1.25-0.367-1.45-0.4c0.333-0.3,0.8-0.8,1.4-1.5
			c0.6-0.566,1.317-0.916,2.15-1.05l-1.05-0.85c0.1,0,0.566-0.134,1.4-0.4c0.667-0.2,1.25-0.283,1.75-0.25
			c-1.267-0.167-2-0.467-2.2-0.9c-0.2-0.4,0.083-0.9,0.85-1.5c-0.467,0.333-0.783,0.5-0.95,0.5c-0.6-0.1-1-0.133-1.2-0.1
			c0.367-0.5,0.85-0.75,1.45-0.75c-0.467-0.1-1.217-0.1-2.25,0c0-0.2,0.117-0.867,0.35-2c-0.733-0.267-1.283-0.433-1.65-0.5
			c0.1,0,0.05-0.217-0.15-0.65c-1,0.467-3.9,0.4-8.7-0.2c-4.667-0.6-7.8-1.233-9.4-1.9c0.233-0.033,0.75-0.167,1.55-0.4
			c0.8-0.233,1.4-0.367,1.8-0.4l0.25-1.1c0.767,0,2.05-0.217,3.85-0.65l-2.65-0.55c-0.5,0.533-0.967,0.833-1.4,0.9
			c-0.633-0.033-1.25,0-1.85,0.1c0.066-0.4,0.066-1.133,0-2.2c-0.4,0.267-0.983,0.45-1.75,0.55c-0.833,0.1-1.367,0.217-1.6,0.35
			c0.066-0.167,0.15-0.55,0.25-1.15c0.066-0.6,0.167-1.034,0.3-1.3c-0.533,0.467-1.1,0.733-1.7,0.8c-1.1,0.1-1.784,0.183-2.05,0.25
			l0.6-0.85c0.333-0.5,0.633-0.85,0.9-1.05c-0.4,0-0.883-0.1-1.45-0.3l-1-0.35c0.433-0.233,1.133-0.816,2.1-1.75
			c-0.4,0.1-0.933,0.2-1.6,0.3c-0.767,0.1-1.317,0.183-1.65,0.25l-0.15,1.1c-0.933,0.1-1.733,0.1-2.4,0c-0.3-0.033-0.433,0-0.4,0.1
			c-0.533,0.033-1.25-0.066-2.15-0.3c-1.133-0.267-1.867-0.417-2.2-0.45c-0.133-0.167-0.2-0.45-0.2-0.85
			c0.034-0.233,0.05-0.55,0.05-0.95c-1.133-0.133-1.95-0.267-2.45-0.4c0.2-0.467,0.5-0.833,0.9-1.1c-0.1-0.033-0.333-0.033-0.7,0
			c-0.167,0.033-0.25-0.117-0.25-0.45c1.566-0.167,2.867-0.217,3.9-0.15c-1.467-0.433-2.583-0.717-3.35-0.85
			c0.1-0.367,0.533-0.767,1.3-1.2c-1.534-0.733-2.383-1.117-2.55-1.15c0.367,0.067,0.883,0.067,1.55,0
			c0.367-0.033,0.883-0.083,1.55-0.15c-0.9-0.333-1.517-0.55-1.85-0.65c1.467-0.833,3.2-1.283,5.2-1.35l-0.95-0.1l-0.25,0.1
			l-0.1-0.1l-1.1-0.05l0.8-0.3c-0.367-0.434-0.433-0.917-0.2-1.45c0.333,0.1,1.083,0.133,2.25,0.1c0.967,0,1.717,0.133,2.25,0.4
			l0.15-1.15c1.2-0.133,2.066-0.167,2.6-0.1c0.767,0.1,1.467,0.467,2.1,1.1c0.267-1,0.6-1.567,1-1.7
			c0.267-0.1,1.017,0.017,2.25,0.35c-0.1-0.333-0.1-0.65,0-0.95c1.6-0.233,2.783-0.316,3.55-0.25c1.2,0.1,2.233,0.517,3.1,1.25
			c1.067-1.1,2.8-1.633,5.2-1.6c2.3,0.033,3.983,0.5,5.05,1.4c0.5-0.367,1.133-0.583,1.9-0.65c0.933-0.067,1.517-0.133,1.75-0.2
			c0.133,0.8,0.2,1.417,0.2,1.85c1.667-1.067,3.2-1.617,4.6-1.65c1.267-0.067,2.783,0.316,4.55,1.15c0.034,0.767,0.1,1.367,0.2,1.8
			c1.367,0.133,2.3,0.5,2.8,1.1c0.6,0.667,0.367,1.45-0.7,2.35c0.4-0.033,0.833,0.05,1.3,0.25c0.567,0.233,0.934,0.367,1.1,0.4
			c-0.067,2.833-0.9,4.417-2.5,4.75c-0.433,1.567-0.667,2.4-0.7,2.5c0.733-0.333,1.1-0.4,1.1-0.2c-0.1,0.667-0.1,1.4,0,2.2
			c0.033,0.833,0.05,1.267,0.05,1.3c-0.167,0.4-0.083,0.684,0.25,0.85c-0.534,0.2-0.684,0.4-0.45,0.6
			c0.2,0.167,0.317,0.383,0.35,0.65c0.933-0.467,2.333-0.7,4.2-0.7l-0.95-0.05c0.333-0.267,0.7-0.617,1.1-1.05
			c0.4-0.367,0.867-0.65,1.4-0.85c-0.3-0.6-0.117-1.083,0.55-1.45c0.6-0.3,1.5-0.483,2.7-0.55c-1.434-0.1-2.167-0.15-2.2-0.15
			c1.833-0.434,4.783-1.434,8.85-3C83.167,22.533,86.15,22.683,88.45,24.05z"/>
		<path style="fill-rule:evenodd;clip-rule:evenodd;fill:#385C19;" d="M141.85,23.15c0.566-0.233,1.333-0.333,2.3-0.3
			c1.167,0.066,1.917,0.066,2.25,0c-0.133,0.133-0.333,0.467-0.6,1c-0.133,0.3-0.533,0.6-1.2,0.9c0.5-0.133,1.167-0.133,2,0
			c0.967,0.167,1.583,0.25,1.85,0.25c-0.034,0.5-0.167,1.05-0.4,1.65c0.733,0.2,1.117,0.35,1.15,0.45c0.3,0.633,0.566,1.1,0.8,1.4
			c0.6-0.2,1.3-0.2,2.1,0c1,0.233,1.583,0.35,1.75,0.35c-0.3,1.033-0.533,1.816-0.7,2.35c-0.333,1-0.717,1.767-1.15,2.3
			c0.633,0,1.367,0.267,2.2,0.8c0.433,0.267,1.033,0.65,1.8,1.15c-1.067,0.466-2.383,0.7-3.95,0.7l0.4,0.05
			c0.167,0.9,0.083,1.683-0.25,2.35c-0.333,0.667-0.867,1.117-1.6,1.35c1.1-0.066,1.816,0.167,2.15,0.7
			c0.333,0.567,0.083,1.301-0.75,2.2c0.367-0.066,0.917-0.033,1.65,0.101c0.767,0.1,1.267,0.133,1.5,0.1
			c-0.333,0.767-0.683,1.366-1.05,1.8c3.066-0.6,5.267,0.066,6.6,2l-1.55,0.4c1,0,1.767,0.184,2.3,0.55
			c0.6,0.434,0.916,1.167,0.95,2.2c-0.4,0.166-0.917,0.217-1.55,0.149l0.9,1.9c-0.833-0.167-1.6-0.15-2.3,0.05
			c0.4,0.2,0.85,0.55,1.35,1.05c0.6,0.601,0.967,0.95,1.1,1.051c-1.833,0.466-3.85,0.816-6.05,1.05
			c1.2,0.467,1.883,0.934,2.05,1.399c0,0.7,0.033,1.4,0.1,2.101c-2.833,0.233-5.117-0.167-6.85-1.2c0.233,0.3,0.35,0.65,0.35,1.05
			c0,0.533,0.05,0.967,0.15,1.3c-2.6,0.934-3.883,0.167-3.85-2.3c-0.133,0.867-0.167,1.45-0.1,1.75c-1.367-0.1-2.184-0.1-2.45,0
			c0.1-0.434,0.2-1.2,0.3-2.3c-0.167,0-0.417,0.066-0.75,0.2c-0.3,0.133-0.583,0.184-0.85,0.149c-0.333-0.466-0.8-0.916-1.4-1.35
			c-0.733-0.467-1.216-0.833-1.45-1.1c0.2,2.733,0.283,4.216,0.25,4.449c-0.233,1.467-1.167,2.117-2.8,1.95
			c0.034-0.1,0.05-0.366,0.05-0.8s-0.017-0.7-0.05-0.8c-0.333,2-1.55,3.25-3.65,3.75s-3.167-0.384-3.2-2.65
			c-0.367,0.334-0.9,0.584-1.6,0.75c-0.833,0.2-1.35,0.351-1.55,0.45l-0.15-1.2c-0.5,0.267-1.25,0.384-2.25,0.351
			c-1.167-0.034-1.883-0.017-2.15,0.05c0.2-0.566,0.25-1.066,0.15-1.5c-0.066-0.2,0.217-0.517,0.85-0.95
			c-1.467,0.066-2.5,0.083-3.1,0.05c-1.1-0.066-2.033-0.3-2.8-0.7c0.3-0.166,0.933-0.633,1.9-1.399c-1-0.167-1.833-0.184-2.5-0.05
			l1.1-1.801c-0.3-0.1-0.817-0.366-1.55-0.8c-0.566,0.834-1.35,1.3-2.35,1.4c-1.034,0.1-1.9-0.267-2.6-1.101
			c-0.934,0.467-1.917,0.65-2.95,0.551c-1.1-0.134-1.933-0.584-2.5-1.351c0-0.566,0.25-0.85,0.75-0.85l-1.95-0.3
			c-0.6,0.199-1.184,0.25-1.75,0.149c-0.1-0.033-0.633-0.184-1.6-0.45c0.467-0.199,1.05-0.483,1.75-0.85
			c0.6-0.267,1.25-0.434,1.95-0.5c-4.1,0-6.566-0.033-7.4-0.1c1.033-0.834,1.583-1.267,1.65-1.301
			c-1.133,0.2-2.316,0.301-3.55,0.301c-1.5,0-1.667-0.301-0.5-0.9l-3.85-0.4c-2.033,0.5-4.1,0.184-6.2-0.949
			c2.233-0.5,3.9-0.95,5-1.351c-0.2,0-0.684-0.133-1.45-0.399c-0.833-0.267-1.4-0.434-1.7-0.5c0.167-0.067,0.55-0.367,1.15-0.9
			c0.433-0.4,1-0.667,1.7-0.8c-0.3-0.134-0.667-0.367-1.1-0.7c-0.466-0.366-0.783-0.583-0.95-0.65
			c0.833-0.767,1.967-1.233,3.4-1.399c0.867-0.134,2.1-0.15,3.7-0.05c0.8-0.7,1.533-1.083,2.2-1.15l-0.55-0.1
			c1.2-0.333,2.217-0.533,3.05-0.6l2.3-1.4c-0.467,0-1.034-0.083-1.7-0.25c-0.767-0.2-1.267-0.316-1.5-0.35
			c1.667-0.9,2.55-1.35,2.65-1.35c-0.1-0.767-0.1-1.5,0-2.2l-1.5-0.45c0.367-0.167,0.8-0.45,1.3-0.85
			c0.5-0.333,1.15-0.517,1.95-0.55c-0.7-0.066-1.3-0.25-1.8-0.55c-0.533-0.333-1-0.6-1.4-0.8c0.367-0.267,0.65-0.433,0.85-0.5
			c0.167-0.066,0.55-0.15,1.15-0.25c0.066-0.167,0.083-0.483,0.05-0.95c-0.033-0.4,0.017-0.667,0.15-0.8
			c0.267-0.033,0.684-0.066,1.25-0.1c0.5-0.034,0.9-0.083,1.2-0.15c0-0.8,0.183-1.25,0.55-1.35l-0.35-0.15
			c-0.333-0.6-0.283-1.15,0.15-1.65c0.433-0.2,1.216-0.25,2.35-0.15c0.034-0.233,0.05-0.55,0.05-0.95
			c0.033-0.333,0.117-0.633,0.25-0.9c1.533,0.767,3.316,0.833,5.35,0.2c2.566-0.833,4.417-1.184,5.55-1.05l0.25-1.8
			c2.5-0.3,4.883,0.267,7.15,1.7l-0.45-1.7c1-0.167,1.833-0.133,2.5,0.1c0.733,0.233,1.417,0.717,2.05,1.45
			c0.733-0.8,1.417-1.05,2.05-0.75c0.6,0.267,1.067,0.633,1.4,1.1c0.267,0.6,0.983,0.317,2.15-0.85c0.667,0.867,0.867,1.35,0.6,1.45
			c-0.2,0.067-0.233,0.117-0.1,0.15c1.033-0.7,1.9-0.983,2.6-0.85C141.217,21.433,141.683,22.05,141.85,23.15z"/>
		<path style="fill-rule:evenodd;clip-rule:evenodd;fill:#385C19;" d="M243.5,20.2c0.167,0.167,0.483,0.533,0.95,1.1
			c-1.267,0.034-2.2,0.05-2.8,0.05c0.433,0.066,0.683,0.3,0.75,0.7c-1.4,0.3-2.317,0.534-2.75,0.7c1.133,0.1,1.8,0.383,2,0.85
			c0.066,0.2,0.083,1,0.05,2.4c-0.867,0.133-1.584,0.183-2.15,0.15c0.733,0.133,1.7,0.367,2.9,0.7
			c-0.601,0.833-1.134,1.383-1.601,1.65c1.101,1.433,0.834,2.933-0.8,4.5c-1.467,1.4-3.05,2.2-4.75,2.4
			c0.934,0.2,1.684,0.233,2.25,0.1c0.233,1.3,0.3,1.9,0.2,1.8c-0.333-0.066-0.967-0.033-1.9,0.1c-0.833,0.1-1.466,0.083-1.899-0.05
			c1.066,0.967,1.383,1.783,0.95,2.45c-0.434,0.667-1.417,0.983-2.95,0.95c0.533,0.2,1.217,0.6,2.05,1.2
			c-5.6,0.399-10.483,0.3-14.65-0.3c-0.666,0.767-1.517,1.183-2.55,1.25c-0.967,0.066-1.967-0.2-3-0.801l0.25-0.1
			c-1.833,0.2-3.85,0.184-6.05-0.05c0.167-0.033,0.717-0.217,1.65-0.55c-0.434,0.1-0.967,0.1-1.601,0
			c-0.899-0.167-1.399-0.25-1.5-0.25c0.2-1.333-0.184-2.284-1.149-2.851c-1.233-0.5-2.067-1-2.5-1.5
			c-1.367,0.633-2.733,0.833-4.101,0.6l2.45,1.35c-0.1,0.267-0.316,0.433-0.65,0.5c-0.333,0.067-0.533,0.167-0.6,0.3
			c0.9,0.367,1.55,0.75,1.95,1.15c-0.601,1.5-2.233,2.883-4.9,4.149c-2.666,1.267-4.8,1.65-6.399,1.15
			c0.566,0.6,0.866,1.267,0.899,2c0.033,1.1,0.084,1.767,0.15,2c-1.033,0.167-2.25,0.134-3.65-0.1c-1.6-0.334-2.8-0.567-3.6-0.7
			c-0.033,1.8-0.717,2.967-2.05,3.5c-1.167,0.467-2.65,0.434-4.45-0.101c-0.3-0.3-0.316-0.616-0.05-0.949
			c-0.467,0.199-1.034,0.3-1.7,0.3c-0.9,0-1.467,0.017-1.7,0.05c0.1-0.167,0.283-0.733,0.55-1.7c-1,0.367-2.166,0.434-3.5,0.2
			c-1.6-0.233-2.666-0.833-3.2-1.8l1.851-0.65c-0.434,0-1-0.083-1.7-0.25c-0.866-0.2-1.384-0.316-1.55-0.35
			c0.434-0.967,1.184-1.617,2.25-1.95c0.899-0.267,1.934-0.283,3.1-0.05c-0.5-0.134-0.899-0.351-1.2-0.65
			c0.667-0.866,1.733-1.45,3.2-1.75c0.767-0.2,2.084-0.35,3.95-0.45L177.2,40.9c1.133-0.301,1.967-0.584,2.5-0.851
			c-1.167,0-2.084-0.1-2.75-0.3c-1.7,0.467-3.233,0.7-4.601,0.7c-1.8-0.033-2.866-0.534-3.199-1.5c-0.567,1.133-1.434,1.5-2.601,1.1
			c-1.166-0.367-1.866-1.216-2.1-2.55l-5.9-0.15c0.1-0.133,0.3-0.533,0.6-1.2c0.267-0.6,0.567-1.05,0.9-1.35
			c-0.566,0.133-1.367,0.083-2.4-0.15c-1.233-0.333-1.95-0.5-2.15-0.5c0.433-0.767,1.017-1.333,1.75-1.7
			c0.7-0.367,1.45-0.517,2.25-0.45c-0.633-0.4-0.95-0.883-0.95-1.45c-0.033-0.633,0.317-1.25,1.05-1.85
			c-0.333,0.066-0.85,0.066-1.55,0c-0.7-0.1-1.2-0.117-1.5-0.05c0.1-0.167,0.3-0.717,0.6-1.65c0.233-0.667,0.633-1.217,1.2-1.65
			c-0.4,0.066-0.7,0.083-0.9,0.05c-2.7,0.467-5.267,0.217-7.7-0.75c-2.733-1.033-3.617-2.533-2.65-4.5
			c-0.3-0.033-0.817-0.15-1.55-0.35c-0.7-0.233-1.117-0.35-1.25-0.35c0.1-0.067,0.434-0.3,1-0.7c0.434-0.3,0.534-0.45,0.3-0.45
			c-0.7,0.1-1.7-0.083-3-0.55c-1.267-0.433-2.3-1.133-3.1-2.1c-1.533,0.133-3.417-0.15-5.65-0.85c0.6-0.867,0.933-1.35,1-1.45
			c-0.333,0.033-0.983,0-1.95-0.1c-0.867-0.067-1.517-0.05-1.95,0.05c-0.133-0.267-0.133-0.45,0-0.55
			c0.133-0.133,0.167-0.267,0.1-0.4c-0.667,0.233-1.4,0.283-2.2,0.15c-0.833-0.233-1.434-0.367-1.8-0.4
			c0.733-0.633,1.567-1.133,2.5-1.5l-0.45,0.05c-0.293-0.002-0.369-0.127-0.225-0.375s-0.032-0.389-0.525-0.425
			c-0.38-0.211-1.688-0.236-3.925-0.075c-2.237,0.161-3.579-0.014-4.025-0.525c0.167,0,0.6-0.083,1.3-0.25
			c0.767-0.167,1.367-0.233,1.8-0.2c-0.4-0.133-0.85-0.367-1.35-0.7c-0.633-0.434-1.033-0.684-1.2-0.75
			c0.433-0.033,1.267-0.15,2.5-0.35l0.3-1.5c1.333,0.1,2.217,0.133,2.65,0.1c-0.5-0.4-0.6-0.617-0.3-0.65
			c0.2,0,0.633-0.017,1.3-0.05c-0.733-0.433-1.033-1.183-0.9-2.25c1.1-0.2,1.833-0.45,2.2-0.75c0.233-0.2,0.617-0.783,1.15-1.75
			l2.15,0.4c0.733,0.133,1.35,0.583,1.85,1.35V0.2c1.733-0.3,3.367-0.25,4.9,0.15c1.767,0.4,3,1.183,3.7,2.35
			c-0.233-1.1-0.383-1.733-0.45-1.9c1.033-0.033,2.033,0.25,3,0.85c0.833,0.567,1.567,1.317,2.2,2.25c0.3-0.467,0.75-0.833,1.35-1.1
			c0.667-0.333,1.05-0.55,1.15-0.65c0.1,0.7,0.117,1.483,0.05,2.35c0.067,0,0.35-0.05,0.85-0.15c0.5-0.133,0.867-0.2,1.1-0.2
			l0.05,1.7c0.4,0,1.317,0.2,2.75,0.6c1.3,0.333,2.367,0.466,3.2,0.4l-0.5,0.9c1.066-0.833,3.083-0.8,6.05,0.1v-1.7
			c0.267,0.133,0.816,0.233,1.65,0.3c0.6,0.066,1.133,0.316,1.6,0.75c0.434-0.934,0.8-1.417,1.1-1.45
			c0.267-0.033,0.983-0.117,2.15-0.25c-0.1,0.267-0.083,0.833,0.05,1.7c0.7-1.133,2.134-1.583,4.3-1.35
			c2.2,0.2,3.684,0.983,4.45,2.35c0-1.133,0.367-1.784,1.101-1.95c0.767-0.2,1.666,0.167,2.699,1.1c0.101-0.5,0.334-1.133,0.7-1.9
			c1.2,0.2,2.233,0.7,3.101,1.5c0.866,0.8,1.416,1.767,1.649,2.9c0.8-0.8,1.684-1.133,2.65-1c0.967,0.167,1.8,0.733,2.5,1.7
			c0.8-1.167,1.566-1.683,2.3-1.55s1.333,0.867,1.8,2.2c1.134-1.067,2.134-1.217,3-0.45c0.834,0.667,1.233,1.75,1.2,3.25l1.8,0.15
			c0.033,0.2,0.184,0.983,0.45,2.35c0.2,0.9,0.483,1.583,0.85,2.05c0.7,0.534,1.567,0.6,2.601,0.2c-0.4,0.1-0.75,0.067-1.05-0.1
			c-0.334-0.533-0.301-1.083,0.1-1.65c0.5,0.033,1.417-0.033,2.75-0.2c-0.1-0.9-0.033-1.566,0.2-2c0.166-0.3,0.616-0.95,1.35-1.95
			c-1.767-0.267-2.983-1.184-3.649-2.75c-0.634-1.6,0.149-2.233,2.35-1.9l0.25,1.15c1-0.6,1.967-0.8,2.9-0.6
			c0.933,0.167,1.699,0.75,2.3,1.75c2.1-0.567,4.066-0.267,5.899,0.9l0.2-0.55c1.434,0.233,3.617,0.2,6.55-0.1
			c2.801-0.267,5-0.233,6.601,0.1c1.033,0.233,2.85,0.933,5.45,2.1c2.433,1.066,4.399,1.7,5.899,1.9
			c0.867,1.333,0.983,2.517,0.351,3.55c-0.601,1.033-1.667,1.417-3.2,1.15C242.833,19.717,243.267,19.933,243.5,20.2z"/>
		<path style="fill-rule:evenodd;clip-rule:evenodd;fill:#385C19;" d="M280.9,38c-0.9,0.333-1.917,0.4-3.051,0.2
			c-0.066,1.333-0.783,2.35-2.149,3.05c-1.367,0.7-1.8,0.333-1.3-1.1c-1.067,1.433-2.834,1.767-5.301,1
			c-0.566,1.066-1.35,1.649-2.35,1.75c-1,0.066-1.75-0.351-2.25-1.25c-1.1,0.899-2.267,1.333-3.5,1.3c-1.366,0-2.233-0.65-2.6-1.95
			c-1.101,0.467-2.117,0.667-3.051,0.6c-1.066-0.066-1.783-0.483-2.149-1.25c-1.934,0.767-4.684,0.467-8.25-0.899
			c0.666-0.667,1.5-1.117,2.5-1.35c0.918-0.229,1.867-0.229,2.85,0c-0.229-0.065-0.896-0.282-2-0.65
			c0.233-0.134,0.733-0.517,1.5-1.15c0.566-0.466,1.167-0.783,1.8-0.95c-2.6,0.167-4.85-0.267-6.75-1.3
			c0.134-0.033,0.467-0.233,1-0.6c0.467-0.3,1-0.517,1.601-0.65c0.166-0.733,0.267-1.15,0.3-1.25c0.033-0.1,0.2-0.383,0.5-0.85
			c-0.533-0.4-0.8-0.7-0.8-0.9c0.066-0.466,0-0.966-0.2-1.5c0.366-0.1,0.967-0.216,1.8-0.35c0.167-0.8,0.384-1.4,0.65-1.8
			c0.1-0.167,0.416-0.517,0.95-1.05c-0.534-1.534,0.699-2.233,3.699-2.1c4.167,0.167,6.434,0.183,6.801,0.05h1.024
			c-0.1-0.017-0.191-0.05-0.274-0.1c-0.301-0.167-0.25-0.483,0.149-0.95c0.5,0.167,1.267,0.4,2.3,0.7
			c0.134-1.034,0.25-1.65,0.351-1.85c0.6,0.066,1.366,0.117,2.3,0.15c0.733,0.066,1.384,0.4,1.95,1c1.899-1.1,3.633-1.934,5.2-2.5
			c1.533-0.533,3.416-1.017,5.649-1.45c3.7-0.633,6.316-1,7.851-1.1c3.899-0.267,6.233,0.25,7,1.55
			c1.899-0.733,4.333-0.817,7.3-0.25c2.833,0.566,4.983,1.433,6.45,2.6c0.433,1.533,0.649,3.033,0.649,4.5L307.9,25.5
			c0.232,1.433-0.033,2.417-0.801,2.95c-0.8,0.533-1.816,0.45-3.05-0.25c0.134,0.9,0.25,1.5,0.351,1.8c-0.367-0.1-1-0.083-1.9,0.05
			c-0.934,0.133-1.583,0.167-1.95,0.1c-0.267,2.2-1.066,4.333-2.399,6.4c-1.601,2.5-3.051,2.633-4.351,0.4
			c-0.166,1.066-0.7,1.816-1.6,2.25c-0.834,0.366-1.834,0.4-3,0.1l0.5-0.65c-0.967,0.367-2.483,0.367-4.55,0
			c0.133-0.1,0.399-0.383,0.8-0.85c0.399-0.466,0.717-0.783,0.95-0.95c-2.467-0.6-3.733-0.9-3.801-0.9
			C282.634,36.917,281.9,37.6,280.9,38z"/>
		<path style="fill-rule:evenodd;clip-rule:evenodd;fill:#385C19;" d="M304.05,32.65c2.134-1,4.25-1.4,6.351-1.2
			c-0.067-0.2-0.268-0.667-0.601-1.4c0.601-0.333,1.267-0.55,2-0.65c0.667-1.566,1.917-2.15,3.75-1.75c1.067,0.2,2.667,0.6,4.8,1.2
			c0,1.133,0.15,1.85,0.45,2.15c0.233,0.233,0.767,0.617,1.601,1.15c-0.533,0.8-0.884,1.283-1.051,1.45
			c-0.199,0.2-0.866,0.333-2,0.4c0.033,0.967-0.133,1.566-0.5,1.8c-0.267,0.167-1.033,0.284-2.3,0.35
			c-0.1,1.167-0.633,1.85-1.6,2.05c-0.8,0.133-1.8-0.067-3-0.6c-1.2,2.3-3.717,3.917-7.55,4.85c-3.733,0.934-6.817,0.8-9.25-0.4
			c1.967-0.7,3.85-1.283,5.649-1.75l-0.75-1.4c0.134-0.2,0.417-0.433,0.851-0.7c0.333-0.267,0.55-0.517,0.649-0.75
			C300.617,35.45,301.45,33.85,304.05,32.65z"/>
	</g>
	<g>
		
			<radialGradient id="SVGID_1_" cx="114.8481" cy="45.9814" r="5.6902" gradientTransform="matrix(0.9995 -0.0308 -0.0264 -0.525 3.5181 70.074)" gradientUnits="userSpaceOnUse">
			<stop  offset="0" style="stop-color:#000000;stop-opacity:0.6196"/>
			<stop  offset="1" style="stop-color:#000000;stop-opacity:0"/>
		</radialGradient>
		<path style="fill-rule:evenodd;clip-rule:evenodd;fill:url(#SVGID_1_);" d="M116.95,39.45c1.566-0.034,2.917,0.216,4.05,0.75
			c1.133,0.533,1.717,1.217,1.75,2.05c0.066,0.833-0.45,1.55-1.55,2.15c-1.067,0.633-2.384,0.966-3.95,1
			c-1.566,0.066-2.917-0.184-4.05-0.75c-1.134-0.534-1.733-1.217-1.8-2.051c-0.033-0.833,0.483-1.55,1.55-2.149
			C114.05,39.85,115.383,39.517,116.95,39.45z"/>
		
			<radialGradient id="SVGID_2_" cx="114.6855" cy="45.2549" r="4.7016" gradientTransform="matrix(0.9996 -0.0292 -0.0292 -0.5476 3.737 69.9869)" gradientUnits="userSpaceOnUse">
			<stop  offset="0" style="stop-color:#857839"/>
			<stop  offset="1" style="stop-color:#FFF6E3"/>
		</radialGradient>
		<path style="fill-rule:evenodd;clip-rule:evenodd;fill:url(#SVGID_2_);" d="M118.7,40.55c0.066,0.101,0.066,0.2,0,0.3l0.55-0.05
			c1.1,0.033,1.934,0.334,2.5,0.9c-0.5,0.566-1.3,0.916-2.4,1.05h-0.55l0.05,0.3c-0.067,0.367-0.367,0.7-0.9,1l-0.8,0.351
			c-0.267-0.067-0.533-0.167-0.8-0.301c-0.567-0.267-0.9-0.583-1-0.949V42.85h-0.55c-0.7-0.033-1.316-0.183-1.85-0.449l-0.6-0.4
			l0.55-0.45c0.5-0.333,1.1-0.533,1.8-0.6h0.55l-0.05-0.3c0.1-0.601,0.667-1.067,1.7-1.4C117.934,39.517,118.533,39.95,118.7,40.55z
			"/>
		<path style="fill-rule:evenodd;clip-rule:evenodd;fill:#C4A656;" d="M118.35,41.05c0.167,0.233,0.117,0.45-0.15,0.65l-0.15,0.1
			l0.15,0.101c0.3,0.166,0.383,0.383,0.25,0.649c-0.467,0.101-0.884,0.066-1.25-0.1l-0.15-0.05l-0.15,0.1
			c-0.2,0.1-0.466,0.15-0.8,0.15h-0.4l-0.05-0.25c-0.033-0.167,0.034-0.317,0.2-0.45l0.2-0.101l-0.2-0.05
			c-0.2-0.133-0.284-0.283-0.25-0.45c0-0.066,0.017-0.133,0.05-0.199l0.4-0.051c0.3,0,0.567,0.034,0.8,0.101l0.15,0.1l0.15-0.1
			C117.483,41.033,117.883,40.983,118.35,41.05z"/>
	</g>
	<g>
		
			<radialGradient id="SVGID_3_" cx="59.9941" cy="21.521" r="5.7275" gradientTransform="matrix(0.9952 0.0982 0.2706 -0.5412 -16.1283 32.256)" gradientUnits="userSpaceOnUse">
			<stop  offset="0" style="stop-color:#000000;stop-opacity:0.6196"/>
			<stop  offset="1" style="stop-color:#000000;stop-opacity:0"/>
		</radialGradient>
		<path style="fill-rule:evenodd;clip-rule:evenodd;fill:url(#SVGID_3_);" d="M55.1,27.05c-0.434,0.867-1.35,1.55-2.75,2.05
			c-1.434,0.5-2.934,0.667-4.5,0.5c-1.567-0.133-2.75-0.567-3.55-1.3c-0.833-0.7-1.033-1.483-0.6-2.35
			c0.433-0.867,1.35-1.55,2.75-2.05c1.4-0.467,2.9-0.633,4.5-0.5c1.566,0.167,2.767,0.6,3.6,1.3
			C55.35,25.4,55.533,26.183,55.1,27.05z"/>
		
			<radialGradient id="SVGID_4_" cx="59.5073" cy="20.707" r="4.7351" gradientTransform="matrix(0.9952 0.0977 0.2825 -0.5676 -15.7218 31.5906)" gradientUnits="userSpaceOnUse">
			<stop  offset="0" style="stop-color:#857839"/>
			<stop  offset="1" style="stop-color:#FFF6E3"/>
		</radialGradient>
		<path style="fill-rule:evenodd;clip-rule:evenodd;fill:url(#SVGID_4_);" d="M50.7,23c0.9,0.4,1.25,0.917,1.05,1.55l-0.15,0.3
			l0.55,0.05c1.067,0.167,1.717,0.583,1.95,1.25c-0.833,0.533-1.817,0.783-2.95,0.75l-0.55-0.05l-0.15,0.3
			c-0.267,0.367-0.75,0.684-1.45,0.95l-1,0.25c-0.2-0.1-0.4-0.233-0.6-0.4c-0.4-0.367-0.55-0.75-0.45-1.15l0.2-0.3l-0.55-0.05
			c-0.667-0.134-1.184-0.384-1.55-0.75l-0.4-0.5l0.8-0.4c0.7-0.267,1.417-0.383,2.15-0.35l0.55,0.05l0.1-0.3
			C48.717,23.6,49.533,23.2,50.7,23z"/>
		<path style="fill-rule:evenodd;clip-rule:evenodd;fill:#C4A656;" d="M51.1,25.05c0.033,0.267-0.133,0.483-0.5,0.65l-0.25,0.05
			l0.15,0.1c0.167,0.233,0.117,0.483-0.15,0.75c-0.5,0.033-0.883-0.05-1.15-0.25l-0.1-0.1l-0.2,0.05c-0.3,0.1-0.6,0.133-0.9,0.1
			l-0.4-0.1l0.05-0.25c0.1-0.167,0.267-0.3,0.5-0.4l0.2-0.1l-0.1-0.1c-0.133-0.134-0.15-0.3-0.05-0.5
			c0.066-0.067,0.133-0.134,0.2-0.2h0.45c0.3,0.033,0.533,0.117,0.7,0.25l0.1,0.1l0.2-0.1C50.283,24.9,50.7,24.917,51.1,25.05z"/>
	</g>
	<g>
		
			<radialGradient id="SVGID_5_" cx="19.2075" cy="20.5313" r="6.5152" gradientTransform="matrix(0.9787 -0.2053 -0.2648 -0.5028 15.3872 29.2134)" gradientUnits="userSpaceOnUse">
			<stop  offset="0" style="stop-color:#000000;stop-opacity:0.6196"/>
			<stop  offset="1" style="stop-color:#000000;stop-opacity:0"/>
		</radialGradient>
		<path style="fill-rule:evenodd;clip-rule:evenodd;fill:url(#SVGID_5_);" d="M35.1,13.6c0.466,0.9,0.25,1.8-0.65,2.7
			c-0.9,0.934-2.233,1.567-4,1.9c-1.767,0.366-3.434,0.366-5,0c-1.6-0.367-2.634-1-3.1-1.9c-0.467-0.9-0.25-1.8,0.65-2.7
			c0.934-0.9,2.267-1.534,4-1.9c1.767-0.367,3.45-0.367,5.05,0C33.617,12.066,34.633,12.7,35.1,13.6z"/>
		
			<radialGradient id="SVGID_6_" cx="19.3047" cy="19.9063" r="5.3788" gradientTransform="matrix(0.9784 -0.2068 -0.2789 -0.5252 15.2644 28.7479)" gradientUnits="userSpaceOnUse">
			<stop  offset="0" style="stop-color:#857839"/>
			<stop  offset="1" style="stop-color:#FFF6E3"/>
		</radialGradient>
		<path style="fill-rule:evenodd;clip-rule:evenodd;fill:url(#SVGID_6_);" d="M25.9,13.35c-0.2-0.7,0.2-1.317,1.2-1.85l1.05,0.15
			c0.8,0.2,1.35,0.5,1.65,0.9l0.15,0.3l0.65-0.1c1.267-0.2,2.35-0.05,3.25,0.45c-0.233,0.733-0.95,1.283-2.15,1.65l-0.65,0.1
			c0.134,0.133,0.2,0.25,0.2,0.35c0.2,0.667-0.184,1.284-1.15,1.85c-1.333-0.066-2.25-0.417-2.75-1.05
			c-0.1-0.1-0.15-0.217-0.15-0.35c-0.2,0.1-0.4,0.15-0.6,0.15c-0.8,0.133-1.6,0.1-2.4-0.1l-0.9-0.35l0.4-0.65
			c0.433-0.466,1.017-0.8,1.75-1l0.65-0.1L25.9,13.35z"/>
		<path style="fill-rule:evenodd;clip-rule:evenodd;fill:#C4A656;" d="M27.3,15.25c-0.133-0.2-0.133-0.383,0-0.55l0.15-0.15
			L27.2,14.5c-0.233-0.067-0.4-0.2-0.5-0.4l-0.1-0.3l0.45-0.1c0.367-0.067,0.7-0.083,1-0.05l0.2,0.05l0.15-0.1
			c0.3-0.267,0.717-0.4,1.25-0.4c0.333,0.233,0.4,0.483,0.2,0.75L29.7,14.1l0.25,0.05c0.433,0.133,0.633,0.35,0.6,0.65
			C30.083,15,29.6,15.066,29.1,15l-0.2-0.1l-0.1,0.15c-0.2,0.167-0.483,0.284-0.85,0.35l-0.45,0.05
			C27.434,15.383,27.367,15.316,27.3,15.25z"/>
	</g>
	<g>
		
			<radialGradient id="SVGID_7_" cx="45.8008" cy="-4.3838" r="4.227" gradientTransform="matrix(0.9256 0.3785 0.6801 -0.4968 7.1387 -5.2145)" gradientUnits="userSpaceOnUse">
			<stop  offset="0" style="stop-color:#000000;stop-opacity:0.6196"/>
			<stop  offset="1" style="stop-color:#000000;stop-opacity:0"/>
		</radialGradient>
		<path style="fill-rule:evenodd;clip-rule:evenodd;fill:url(#SVGID_7_);" d="M51.35,13.95c0.2,0.733-0.083,1.383-0.85,1.95
			c-0.8,0.567-1.867,0.9-3.2,1c-1.333,0.1-2.533-0.066-3.6-0.5c-1.067-0.467-1.717-1.05-1.95-1.75c-0.2-0.733,0.1-1.383,0.9-1.95
			c0.8-0.567,1.867-0.9,3.2-1c1.333-0.1,2.533,0.066,3.6,0.5C50.517,12.633,51.15,13.217,51.35,13.95z"/>
		
			<radialGradient id="SVGID_8_" cx="45.1528" cy="-5.1489" r="3.4866" gradientTransform="matrix(0.925 0.38 0.7134 -0.5199 8.5582 -6.2361)" gradientUnits="userSpaceOnUse">
			<stop  offset="0" style="stop-color:#857839"/>
			<stop  offset="1" style="stop-color:#FFF6E3"/>
		</radialGradient>
		<path style="fill-rule:evenodd;clip-rule:evenodd;fill:url(#SVGID_8_);" d="M45,15.4h-0.85l-0.25-0.45
			c-0.066-0.367,0.05-0.7,0.35-1l0.3-0.2l-0.4-0.15c-0.433-0.233-0.683-0.534-0.75-0.9c-0.033-0.167-0.033-0.317,0-0.45l0.85-0.15
			c0.633-0.067,1.217-0.017,1.75,0.15l0.35,0.15l0.3-0.2c0.667-0.4,1.5-0.55,2.5-0.45c0.434,0.5,0.4,0.983-0.1,1.45l-0.3,0.2
			l0.4,0.15c0.667,0.367,0.9,0.817,0.7,1.35c-0.9,0.267-1.75,0.267-2.55,0l-0.4-0.15l-0.25,0.2C46.217,15.217,45.667,15.367,45,15.4
			z"/>
		<path style="fill-rule:evenodd;clip-rule:evenodd;fill:#C4A656;" d="M47.5,13.85h-0.15v0.1c0,0.133-0.083,0.267-0.25,0.4
			l-0.25,0.15c-0.1,0-0.2-0.033-0.3-0.1c-0.233-0.1-0.383-0.217-0.45-0.35v-0.1L45.9,14c-0.233,0-0.45-0.05-0.65-0.15L45,13.7
			l0.15-0.15c0.167-0.133,0.367-0.216,0.6-0.25h0.2l-0.05-0.1c0-0.233,0.167-0.417,0.5-0.55c0.4,0.067,0.65,0.217,0.75,0.45v0.1
			l0.2-0.05c0.4,0,0.716,0.1,0.95,0.3C48.167,13.65,47.9,13.783,47.5,13.85z"/>
	</g>
	<g>
		
			<radialGradient id="SVGID_9_" cx="129.5571" cy="35.9731" r="5.6902" gradientTransform="matrix(0.9995 -0.0308 -0.0264 -0.525 2.7523 54.8217)" gradientUnits="userSpaceOnUse">
			<stop  offset="0" style="stop-color:#000000;stop-opacity:0.6196"/>
			<stop  offset="1" style="stop-color:#000000;stop-opacity:0"/>
		</radialGradient>
		<path style="fill-rule:evenodd;clip-rule:evenodd;fill:url(#SVGID_9_);" d="M136.95,31.75c0.066,0.833-0.45,1.55-1.55,2.15
			c-1.066,0.633-2.383,0.967-3.95,1c-1.567,0.067-2.917-0.183-4.05-0.75c-1.133-0.533-1.733-1.217-1.8-2.05
			c-0.034-0.833,0.483-1.55,1.55-2.15c1.1-0.6,2.434-0.934,4-1c1.567-0.034,2.917,0.216,4.05,0.75
			C136.333,30.233,136.917,30.917,136.95,31.75z"/>
		
			<radialGradient id="SVGID_10_" cx="129.4297" cy="35.1743" r="4.7018" gradientTransform="matrix(0.9996 -0.0292 -0.0292 -0.5476 2.9045 54.3972)" gradientUnits="userSpaceOnUse">
			<stop  offset="0" style="stop-color:#857839"/>
			<stop  offset="1" style="stop-color:#FFF6E3"/>
		</radialGradient>
		<path style="fill-rule:evenodd;clip-rule:evenodd;fill:url(#SVGID_10_);" d="M129.4,30.15c0.1-0.6,0.667-1.066,1.7-1.4
			c1.033,0.267,1.633,0.7,1.8,1.3c0.067,0.1,0.067,0.2,0,0.3l0.55-0.05c1.1,0.034,1.933,0.333,2.5,0.9c-0.5,0.6-1.3,0.95-2.4,1.05
			H133l0.05,0.3c-0.066,0.367-0.366,0.717-0.9,1.05l-0.8,0.35c-0.267-0.067-0.534-0.167-0.8-0.3c-0.566-0.3-0.9-0.633-1-1v-0.3H129
			c-0.7-0.034-1.316-0.184-1.85-0.45l-0.6-0.4l0.55-0.45c0.5-0.333,1.1-0.533,1.8-0.6h0.55L129.4,30.15z"/>
		<path style="fill-rule:evenodd;clip-rule:evenodd;fill:#C4A656;" d="M129.8,30.85c0-0.067,0.017-0.133,0.05-0.2l0.4-0.05
			c0.3,0,0.566,0.033,0.8,0.1l0.15,0.1l0.15-0.1c0.333-0.167,0.733-0.217,1.2-0.15c0.167,0.233,0.117,0.467-0.15,0.7l-0.15,0.05
			l0.15,0.1c0.3,0.2,0.383,0.417,0.25,0.65c-0.466,0.1-0.883,0.083-1.25-0.05l-0.15-0.1L131.1,32c-0.2,0.1-0.467,0.15-0.8,0.15h-0.4
			l-0.05-0.25c-0.034-0.167,0.033-0.316,0.2-0.45l0.2-0.05l-0.2-0.1C129.883,31.167,129.8,31.017,129.8,30.85z"/>
	</g>
	<g>
		
			<radialGradient id="SVGID_11_" cx="84.6045" cy="25.8066" r="5.7273" gradientTransform="matrix(0.9865 0.1637 0.3056 -0.5238 -21.7983 37.3683)" gradientUnits="userSpaceOnUse">
			<stop  offset="0" style="stop-color:#000000;stop-opacity:0.6196"/>
			<stop  offset="1" style="stop-color:#000000;stop-opacity:0"/>
		</radialGradient>
		<path style="fill-rule:evenodd;clip-rule:evenodd;fill:url(#SVGID_11_);" d="M75.25,38.65c-0.5,0.833-1.467,1.45-2.9,1.85
			c-1.467,0.4-2.983,0.467-4.55,0.2c-1.533-0.233-2.683-0.75-3.45-1.55c-0.767-0.767-0.917-1.566-0.45-2.4
			c0.5-0.833,1.467-1.45,2.9-1.85c1.434-0.367,2.934-0.433,4.5-0.2c1.567,0.233,2.733,0.75,3.5,1.55
			C75.566,37.017,75.717,37.816,75.25,38.65z"/>
		
			<radialGradient id="SVGID_12_" cx="84.25" cy="25.0244" r="4.7371" gradientTransform="matrix(0.9865 0.1635 0.3192 -0.546 -21.5046 36.7891)" gradientUnits="userSpaceOnUse">
			<stop  offset="0" style="stop-color:#857839"/>
			<stop  offset="1" style="stop-color:#FFF6E3"/>
		</radialGradient>
		<path style="fill-rule:evenodd;clip-rule:evenodd;fill:url(#SVGID_12_);" d="M65.25,36.65L64.9,36.1l0.85-0.35
			c0.733-0.2,1.45-0.267,2.15-0.2l0.5,0.1l0.2-0.3c0.466-0.6,1.3-0.95,2.5-1.05c0.867,0.434,1.183,0.967,0.95,1.6l-0.2,0.3l0.55,0.1
			c1.067,0.233,1.684,0.684,1.85,1.35c-0.833,0.5-1.816,0.684-2.95,0.55l-0.55-0.1l-0.15,0.3c-0.3,0.367-0.817,0.667-1.55,0.9
			l-1,0.2c-0.2-0.1-0.4-0.25-0.6-0.45c-0.367-0.4-0.483-0.8-0.35-1.2l0.2-0.3l-0.55-0.1C66.117,37.316,65.617,37.05,65.25,36.65z"/>
		<path style="fill-rule:evenodd;clip-rule:evenodd;fill:#C4A656;" d="M68.5,36.1c0.033-0.067,0.083-0.133,0.15-0.2l0.45,0.05
			c0.3,0.033,0.533,0.116,0.7,0.25l0.1,0.15l0.2-0.1c0.466-0.1,0.9-0.067,1.3,0.1c0,0.267-0.2,0.483-0.6,0.65l-0.2,0.05l0.1,0.1
			c0.167,0.233,0.1,0.467-0.2,0.7c-0.5,0-0.883-0.1-1.15-0.3l-0.1-0.1l-0.2,0.05c-0.267,0.066-0.55,0.066-0.85,0l-0.4-0.1l0.05-0.2
			c0.1-0.167,0.267-0.3,0.5-0.4l0.25-0.1l-0.15-0.1C68.383,36.467,68.4,36.3,68.5,36.1z"/>
	</g>
	<g>
		
			<radialGradient id="SVGID_13_" cx="61.479" cy="42.4668" r="6.5138" gradientTransform="matrix(0.9787 -0.2053 -0.2648 -0.5028 31.8269 60.4249)" gradientUnits="userSpaceOnUse">
			<stop  offset="0" style="stop-color:#000000;stop-opacity:0.6196"/>
			<stop  offset="1" style="stop-color:#000000;stop-opacity:0"/>
		</radialGradient>
		<path style="fill-rule:evenodd;clip-rule:evenodd;fill:url(#SVGID_13_);" d="M87.15,25.1c0.467,0.9,0.25,1.8-0.65,2.7
			c-0.9,0.934-2.233,1.583-4,1.95s-3.434,0.35-5-0.05c-1.6-0.367-2.633-1-3.1-1.9c-0.466-0.9-0.25-1.8,0.65-2.7
			c0.9-0.9,2.233-1.534,4-1.9c1.767-0.367,3.434-0.367,5,0C85.65,23.566,86.684,24.2,87.15,25.1z"/>
		
			<radialGradient id="SVGID_14_" cx="61.4541" cy="41.9619" r="5.3788" gradientTransform="matrix(0.9784 -0.2068 -0.2789 -0.5252 32.1769 60.5998)" gradientUnits="userSpaceOnUse">
			<stop  offset="0" style="stop-color:#857839"/>
			<stop  offset="1" style="stop-color:#FFF6E3"/>
		</radialGradient>
		<path style="fill-rule:evenodd;clip-rule:evenodd;fill:url(#SVGID_14_);" d="M81.85,24.05c0.1,0.1,0.15,0.217,0.15,0.35
			c0.2-0.1,0.4-0.15,0.6-0.15c1.267-0.2,2.367-0.05,3.3,0.45c-0.267,0.767-1,1.316-2.2,1.65l-0.6,0.1l0.2,0.35
			c0.134,0.434-0.033,0.867-0.5,1.3l-0.7,0.55c-1.3-0.066-2.2-0.417-2.7-1.05l-0.15-0.3l-0.65,0.1c-0.8,0.133-1.583,0.1-2.35-0.1
			l-0.9-0.35l0.4-0.65c0.434-0.466,1.017-0.8,1.75-1l0.65-0.1c-0.133-0.134-0.2-0.25-0.2-0.35c-0.134-0.4,0.017-0.833,0.45-1.3
			c0.233-0.233,0.467-0.417,0.7-0.55l1.1,0.15C81,23.35,81.55,23.65,81.85,24.05z"/>
		<path style="fill-rule:evenodd;clip-rule:evenodd;fill:#C4A656;" d="M81.7,24.7c0.3,0.233,0.35,0.483,0.15,0.75l-0.1,0.15
			l0.2,0.05c0.433,0.133,0.65,0.367,0.65,0.7c-0.467,0.167-0.95,0.216-1.45,0.15l-0.2-0.05l-0.15,0.1
			c-0.2,0.167-0.466,0.284-0.8,0.35l-0.5,0.05l-0.2-0.2c-0.1-0.2-0.083-0.383,0.05-0.55l0.15-0.15L79.25,26
			c-0.267-0.067-0.45-0.2-0.55-0.4l-0.05-0.25l0.45-0.15c0.333-0.067,0.65-0.083,0.95-0.05l0.25,0.1l0.1-0.15
			C80.733,24.833,81.167,24.7,81.7,24.7z"/>
	</g>
	<g>
		
			<radialGradient id="SVGID_15_" cx="103.9111" cy="-15.207" r="4.2277" gradientTransform="matrix(0.9256 0.3785 0.6801 -0.4968 24.763 -18.0879)" gradientUnits="userSpaceOnUse">
			<stop  offset="0" style="stop-color:#000000;stop-opacity:0.6196"/>
			<stop  offset="1" style="stop-color:#000000;stop-opacity:0"/>
		</radialGradient>
		<path style="fill-rule:evenodd;clip-rule:evenodd;fill:url(#SVGID_15_);" d="M114.5,30.4c-0.8,0.567-1.85,0.9-3.15,1
			c-1.333,0.1-2.55-0.066-3.65-0.5c-1.067-0.433-1.7-1.017-1.9-1.75c-0.2-0.733,0.1-1.383,0.9-1.95c0.8-0.567,1.866-0.9,3.2-1
			c1.3-0.1,2.5,0.066,3.6,0.5c1.066,0.466,1.7,1.05,1.9,1.75C115.6,29.183,115.3,29.833,114.5,30.4z"/>
		
			<radialGradient id="SVGID_16_" cx="103.1475" cy="-16.0586" r="3.4904" gradientTransform="matrix(0.925 0.38 0.7134 -0.5199 26.6923 -19.4494)" gradientUnits="userSpaceOnUse">
			<stop  offset="0" style="stop-color:#857839"/>
			<stop  offset="1" style="stop-color:#FFF6E3"/>
		</radialGradient>
		<path style="fill-rule:evenodd;clip-rule:evenodd;fill:url(#SVGID_16_);" d="M113.15,26.25c0.434,0.5,0.417,0.983-0.05,1.45
			l-0.35,0.2l0.4,0.15c0.7,0.367,0.95,0.817,0.75,1.35c-0.9,0.267-1.767,0.267-2.6,0l-0.35-0.15l-0.3,0.2
			c-0.4,0.267-0.933,0.417-1.6,0.45h-0.85l-0.25-0.45c-0.1-0.367,0-0.7,0.3-1l0.3-0.2c-0.133,0-0.25-0.05-0.35-0.15
			c-0.434-0.2-0.684-0.483-0.75-0.85c-0.034-0.2-0.034-0.367,0-0.5l0.85-0.15c0.634-0.034,1.217,0.017,1.75,0.15l0.35,0.2l0.3-0.25
			C111.367,26.333,112.184,26.183,113.15,26.25z"/>
		<path style="fill-rule:evenodd;clip-rule:evenodd;fill:#C4A656;" d="M111.2,27.6v0.1h0.2c0.4-0.034,0.717,0.05,0.95,0.25
			c-0.133,0.2-0.4,0.333-0.8,0.4h-0.2l0.05,0.1c0,0.133-0.083,0.267-0.25,0.4L110.9,29c-0.1,0-0.2-0.033-0.3-0.1
			c-0.233-0.066-0.383-0.167-0.45-0.3v-0.15l-0.2,0.05c-0.233,0-0.467-0.033-0.7-0.1L109,28.25l0.2-0.2
			c0.167-0.133,0.366-0.216,0.6-0.25h0.2l-0.05-0.1c0-0.233,0.167-0.4,0.5-0.5C110.85,27.267,111.1,27.4,111.2,27.6z"/>
	</g>
	<g>
		
			<radialGradient id="SVGID_17_" cx="141.8643" cy="53.8711" r="5.691" gradientTransform="matrix(0.9995 -0.0308 -0.0264 -0.525 4.1218 82.0974)" gradientUnits="userSpaceOnUse">
			<stop  offset="0" style="stop-color:#000000;stop-opacity:0.6196"/>
			<stop  offset="1" style="stop-color:#000000;stop-opacity:0"/>
		</radialGradient>
		<path style="fill-rule:evenodd;clip-rule:evenodd;fill:url(#SVGID_17_);" d="M150.2,49.3c0.033,0.834-0.483,1.55-1.55,2.15
			c-1.1,0.633-2.433,0.967-4,1c-1.566,0.066-2.917-0.184-4.05-0.75c-1.133-0.533-1.733-1.217-1.8-2.05
			c-0.033-0.834,0.5-1.551,1.6-2.15c1.067-0.6,2.383-0.934,3.95-1c1.566-0.033,2.917,0.217,4.05,0.75
			C149.566,47.783,150.167,48.467,150.2,49.3z"/>
		
			<radialGradient id="SVGID_18_" cx="141.6782" cy="53.1035" r="4.702" gradientTransform="matrix(0.9996 -0.0292 -0.0292 -0.5476 4.3851 82.1248)" gradientUnits="userSpaceOnUse">
			<stop  offset="0" style="stop-color:#857839"/>
			<stop  offset="1" style="stop-color:#FFF6E3"/>
		</radialGradient>
		<path style="fill-rule:evenodd;clip-rule:evenodd;fill:url(#SVGID_18_);" d="M139.75,49.05l0.6-0.45
			c0.5-0.333,1.083-0.533,1.75-0.6h0.55v-0.3c0.1-0.601,0.65-1.066,1.65-1.4c1.067,0.267,1.667,0.7,1.8,1.3
			c0.066,0.101,0.066,0.2,0,0.301l0.55-0.051c1.1,0.034,1.934,0.334,2.5,0.9c-0.5,0.566-1.3,0.917-2.4,1.05h-0.55l0.05,0.3
			c-0.066,0.367-0.367,0.7-0.9,1l-0.8,0.351c-0.267-0.066-0.533-0.167-0.8-0.3c-0.566-0.267-0.9-0.584-1-0.95v-0.3h-0.55
			c-0.7-0.034-1.317-0.184-1.85-0.45L139.75,49.05z"/>
		<path style="fill-rule:evenodd;clip-rule:evenodd;fill:#C4A656;" d="M144.55,48.25c0.367-0.167,0.767-0.217,1.2-0.15
			c0.167,0.233,0.117,0.45-0.15,0.65l-0.15,0.1l0.15,0.101c0.3,0.166,0.383,0.383,0.25,0.649c-0.467,0.101-0.867,0.084-1.2-0.05
			l-0.2-0.1l-0.15,0.1c-0.2,0.101-0.466,0.15-0.8,0.15h-0.4l-0.05-0.25c-0.033-0.167,0.05-0.316,0.25-0.45l0.15-0.1l-0.2-0.051
			c-0.167-0.133-0.25-0.283-0.25-0.449c0-0.067,0.017-0.134,0.05-0.2l0.4-0.05c0.3,0,0.566,0.033,0.8,0.1l0.15,0.1L144.55,48.25z"/>
	</g>
	<g>
		
			<radialGradient id="SVGID_19_" cx="195.376" cy="28.7837" r="5.7273" gradientTransform="matrix(0.9952 0.0982 0.2706 -0.5412 -21.5711 43.1416)" gradientUnits="userSpaceOnUse">
			<stop  offset="0" style="stop-color:#000000;stop-opacity:0.6196"/>
			<stop  offset="1" style="stop-color:#000000;stop-opacity:0"/>
		</radialGradient>
		<path style="fill-rule:evenodd;clip-rule:evenodd;fill:url(#SVGID_19_);" d="M186.35,47.3c-0.433,0.867-1.35,1.55-2.75,2.05
			c-1.433,0.5-2.933,0.667-4.5,0.5c-1.566-0.133-2.75-0.566-3.55-1.3c-0.833-0.7-1.033-1.483-0.6-2.35c0.434-0.834,1.35-1.5,2.75-2
			c1.434-0.5,2.934-0.684,4.5-0.55c1.566,0.166,2.767,0.6,3.6,1.3C186.6,45.65,186.783,46.434,186.35,47.3z"/>
		
			<radialGradient id="SVGID_20_" cx="194.9248" cy="28.0898" r="4.7354" gradientTransform="matrix(0.9952 0.0977 0.2825 -0.5676 -21.3272 42.8537)" gradientUnits="userSpaceOnUse">
			<stop  offset="0" style="stop-color:#857839"/>
			<stop  offset="1" style="stop-color:#FFF6E3"/>
		</radialGradient>
		<path style="fill-rule:evenodd;clip-rule:evenodd;fill:url(#SVGID_20_);" d="M179.35,44.8l0.15-0.35c0.467-0.601,1.283-1,2.45-1.2
			c0.899,0.4,1.25,0.917,1.05,1.55c0,0.033-0.05,0.15-0.15,0.351h0.551c1.066,0.199,1.699,0.616,1.899,1.25
			c-0.8,0.533-1.767,0.783-2.899,0.75L181.85,47.1L181.7,47.4c-0.267,0.399-0.75,0.733-1.45,1l-1,0.25c-0.2-0.101-0.4-0.233-0.6-0.4
			c-0.4-0.366-0.551-0.75-0.45-1.15l0.2-0.35l-0.551-0.05c-0.666-0.101-1.183-0.334-1.55-0.7l-0.399-0.5l0.8-0.4
			c0.7-0.3,1.399-0.433,2.1-0.399L179.35,44.8z"/>
		<path style="fill-rule:evenodd;clip-rule:evenodd;fill:#C4A656;" d="M180.9,45.35l0.199-0.05c0.434-0.133,0.851-0.133,1.25,0
			c0.034,0.267-0.149,0.483-0.55,0.65l-0.2,0.1l0.15,0.101c0.167,0.233,0.116,0.466-0.15,0.699c-0.5,0.034-0.883-0.033-1.149-0.199
			l-0.15-0.15l-0.2,0.1c-0.267,0.101-0.55,0.134-0.85,0.101l-0.4-0.101l0.051-0.25c0.1-0.166,0.267-0.316,0.5-0.449l0.199-0.051
			l-0.1-0.1c-0.134-0.134-0.15-0.3-0.05-0.5c0.066-0.066,0.133-0.134,0.2-0.2h0.399c0.3,0,0.55,0.066,0.75,0.2L180.9,45.35z"/>
	</g>
	<g>
		
			<radialGradient id="SVGID_21_" cx="157.8081" cy="71.3008" r="6.5138" gradientTransform="matrix(0.9787 -0.2053 -0.2648 -0.5028 53.4366 101.452)" gradientUnits="userSpaceOnUse">
			<stop  offset="0" style="stop-color:#000000;stop-opacity:0.6196"/>
			<stop  offset="1" style="stop-color:#000000;stop-opacity:0"/>
		</radialGradient>
		<path style="fill-rule:evenodd;clip-rule:evenodd;fill:url(#SVGID_21_);" d="M195.35,31.9c0.467,0.9,0.25,1.8-0.649,2.7
			c-0.9,0.9-2.233,1.533-4,1.9c-1.733,0.367-3.4,0.367-5,0c-1.601-0.4-2.634-1.05-3.101-1.95c-0.466-0.9-0.25-1.8,0.65-2.7
			s2.233-1.534,4-1.9c1.767-0.367,3.434-0.367,5,0C193.85,30.316,194.884,30.967,195.35,31.9z"/>
		
			<radialGradient id="SVGID_22_" cx="157.6367" cy="70.9551" r="5.3788" gradientTransform="matrix(0.9784 -0.2068 -0.2789 -0.5252 54.4092 102.4705)" gradientUnits="userSpaceOnUse">
			<stop  offset="0" style="stop-color:#857839"/>
			<stop  offset="1" style="stop-color:#FFF6E3"/>
		</radialGradient>
		<path style="fill-rule:evenodd;clip-rule:evenodd;fill:url(#SVGID_22_);" d="M187.35,29.75l1.051,0.15c0.8,0.2,1.35,0.5,1.649,0.9
			c0.101,0.1,0.15,0.217,0.15,0.35l0.6-0.15c1.3-0.167,2.4,0,3.3,0.5c-0.267,0.733-0.983,1.267-2.149,1.6l-0.65,0.1l0.2,0.35
			c0.134,0.434-0.033,0.867-0.5,1.3l-0.7,0.55c-1.3-0.066-2.2-0.4-2.7-1l-0.149-0.35l-0.601,0.15c-0.8,0.1-1.6,0.05-2.399-0.15
			l-0.9-0.35l0.4-0.6c0.434-0.467,1.017-0.8,1.75-1l0.649-0.15l-0.199-0.3C185.95,30.95,186.35,30.316,187.35,29.75z"/>
		<path style="fill-rule:evenodd;clip-rule:evenodd;fill:#C4A656;" d="M188.5,32l0.15-0.15c0.3-0.267,0.716-0.4,1.25-0.4
			c0.333,0.233,0.399,0.483,0.199,0.75l-0.149,0.15l0.25,0.05c0.399,0.167,0.6,0.4,0.6,0.7c-0.467,0.2-0.95,0.25-1.45,0.15
			l-0.199-0.05L189,33.35c-0.2,0.133-0.467,0.25-0.8,0.35l-0.45,0.05c-0.066-0.067-0.134-0.15-0.2-0.25
			c-0.133-0.167-0.133-0.35,0-0.55l0.15-0.1l-0.25-0.1c-0.267-0.067-0.45-0.2-0.55-0.4l-0.051-0.25l0.45-0.15
			c0.367-0.067,0.7-0.067,1,0L188.5,32z"/>
	</g>
	<g>
		
			<radialGradient id="SVGID_23_" cx="98.0449" cy="-46.5078" r="4.2273" gradientTransform="matrix(0.9256 0.3785 0.6801 -0.4968 75.7323 -55.3176)" gradientUnits="userSpaceOnUse">
			<stop  offset="0" style="stop-color:#000000;stop-opacity:0.6196"/>
			<stop  offset="1" style="stop-color:#000000;stop-opacity:0"/>
		</radialGradient>
		<path style="fill-rule:evenodd;clip-rule:evenodd;fill:url(#SVGID_23_);" d="M138.75,6.5c-0.8,0.566-1.867,0.9-3.2,1
			c-1.333,0.1-2.533-0.067-3.6-0.5c-1.067-0.434-1.7-1.017-1.9-1.75c-0.2-0.733,0.1-1.383,0.9-1.95c0.767-0.566,1.816-0.9,3.15-1
			c1.333-0.1,2.533,0.067,3.6,0.5c1.1,0.467,1.75,1.05,1.95,1.75C139.85,5.283,139.55,5.933,138.75,6.5z"/>
		
			<radialGradient id="SVGID_24_" cx="97.2422" cy="-47.3809" r="3.4866" gradientTransform="matrix(0.925 0.38 0.7134 -0.5199 78.7566 -57.3857)" gradientUnits="userSpaceOnUse">
			<stop  offset="0" style="stop-color:#857839"/>
			<stop  offset="1" style="stop-color:#FFF6E3"/>
		</radialGradient>
		<path style="fill-rule:evenodd;clip-rule:evenodd;fill:url(#SVGID_24_);" d="M134.9,2.85c0.667-0.4,1.5-0.55,2.5-0.45
			c0.434,0.467,0.4,0.934-0.1,1.4c-0.033,0.034-0.133,0.1-0.3,0.2l0.4,0.15c0.7,0.367,0.95,0.817,0.75,1.35
			c-0.9,0.267-1.767,0.267-2.6,0l-0.35-0.15l-0.3,0.2c-0.4,0.267-0.933,0.417-1.6,0.45h-0.9l-0.25-0.45
			c-0.066-0.333,0.05-0.65,0.35-0.95l0.3-0.2l-0.4-0.15c-0.4-0.233-0.633-0.533-0.7-0.9c-0.034-0.167-0.034-0.317,0-0.45l0.85-0.15
			c0.634-0.067,1.2-0.017,1.7,0.15l0.4,0.15L134.9,2.85z"/>
		<path style="fill-rule:evenodd;clip-rule:evenodd;fill:#C4A656;" d="M135.8,4.45l-0.2,0.05l0.05,0.1c0,0.133-0.083,0.25-0.25,0.35
			l-0.3,0.15c-0.1,0-0.2-0.034-0.3-0.1c-0.2-0.067-0.333-0.167-0.4-0.3V4.6h-0.2c-0.233,0-0.467-0.034-0.7-0.1l-0.25-0.15l0.15-0.2
			c0.167-0.1,0.367-0.167,0.6-0.2l0.2-0.05V3.8c0-0.2,0.167-0.367,0.5-0.5c0.4,0.067,0.633,0.2,0.7,0.4l0.05,0.1h0.2
			c0.367,0,0.667,0.083,0.9,0.25C136.417,4.283,136.167,4.417,135.8,4.45z"/>
	</g>
	<g>
		
			<radialGradient id="SVGID_25_" cx="230.3086" cy="18.7778" r="5.6881" gradientTransform="matrix(1 -0.0088 -0.0154 -0.5253 0.8384 28.637)" gradientUnits="userSpaceOnUse">
			<stop  offset="0" style="stop-color:#000000;stop-opacity:0.6196"/>
			<stop  offset="1" style="stop-color:#000000;stop-opacity:0"/>
		</radialGradient>
		<path style="fill-rule:evenodd;clip-rule:evenodd;fill:url(#SVGID_25_);" d="M234.8,14.6c1.101,0.566,1.667,1.267,1.7,2.1
			c0.033,0.833-0.5,1.55-1.6,2.15c-1.101,0.566-2.434,0.867-4,0.9c-1.567,0-2.9-0.283-4-0.85c-1.134-0.566-1.717-1.267-1.75-2.1
			c-0.034-0.833,0.5-1.55,1.6-2.15s2.434-0.9,4-0.9C232.316,13.717,233.667,14,234.8,14.6z"/>
		
			<radialGradient id="SVGID_26_" cx="230.2852" cy="17.9907" r="4.7009" gradientTransform="matrix(1 -0.008 -0.016 -0.5505 0.8088 27.8912)" gradientUnits="userSpaceOnUse">
			<stop  offset="0" style="stop-color:#857839"/>
			<stop  offset="1" style="stop-color:#FFF6E3"/>
		</radialGradient>
		<path style="fill-rule:evenodd;clip-rule:evenodd;fill:url(#SVGID_26_);" d="M229,14.9c0.1-0.6,0.667-1.05,1.7-1.35
			c1.033,0.3,1.633,0.75,1.8,1.35v0.3c0.167-0.067,0.35-0.067,0.55,0c1.101,0.033,1.917,0.333,2.45,0.9c-0.5,0.6-1.3,0.933-2.4,1
			h-0.55v0.3c-0.066,0.367-0.366,0.7-0.899,1l-0.801,0.35c-0.267-0.067-0.533-0.167-0.8-0.3c-0.533-0.3-0.85-0.65-0.95-1.05
			c-0.033-0.1-0.033-0.2,0-0.3l-0.55,0.05c-0.7-0.033-1.316-0.2-1.85-0.5L226.1,16.2l0.601-0.45c0.5-0.3,1.1-0.483,1.8-0.55h0.55
			L229,14.9z"/>
		<path style="fill-rule:evenodd;clip-rule:evenodd;fill:#C4A656;" d="M230.9,15.5c0.366-0.133,0.783-0.167,1.25-0.1
			c0.133,0.233,0.066,0.45-0.2,0.65l-0.15,0.1l0.15,0.1c0.3,0.167,0.366,0.383,0.2,0.65c-0.434,0.067-0.834,0.033-1.2-0.1l-0.15-0.1
			l-0.149,0.1c-0.233,0.1-0.5,0.15-0.801,0.15l-0.399-0.05l-0.05-0.2c-0.034-0.167,0.033-0.317,0.199-0.45l0.2-0.1l-0.2-0.05
			c-0.166-0.133-0.25-0.284-0.25-0.45c0-0.1,0.017-0.183,0.051-0.25l1.199,0.1l0.15,0.1L230.9,15.5z"/>
	</g>
	<g>
		
			<radialGradient id="SVGID_27_" cx="168.4111" cy="9.1265" r="5.7274" gradientTransform="matrix(0.993 0.1179 0.2815 -0.5369 -7.1064 13.5524)" gradientUnits="userSpaceOnUse">
			<stop  offset="0" style="stop-color:#000000;stop-opacity:0.6196"/>
			<stop  offset="1" style="stop-color:#000000;stop-opacity:0"/>
		</radialGradient>
		<path style="fill-rule:evenodd;clip-rule:evenodd;fill:url(#SVGID_27_);" d="M159.8,25.85c1.434-0.467,2.934-0.6,4.5-0.4
			c1.566,0.167,2.75,0.616,3.55,1.35c0.834,0.767,1.017,1.567,0.551,2.4c-0.434,0.833-1.367,1.483-2.801,1.95
			c-1.433,0.467-2.933,0.617-4.5,0.45c-1.567-0.2-2.75-0.667-3.55-1.4c-0.8-0.733-0.983-1.517-0.55-2.35
			C157.467,26.983,158.4,26.316,159.8,25.85z"/>
		
			<radialGradient id="SVGID_28_" cx="167.9316" cy="8.1753" r="4.7338" gradientTransform="matrix(0.9929 0.1188 0.2958 -0.5598 -6.509 12.3212)" gradientUnits="userSpaceOnUse">
			<stop  offset="0" style="stop-color:#857839"/>
			<stop  offset="1" style="stop-color:#FFF6E3"/>
		</radialGradient>
		<path style="fill-rule:evenodd;clip-rule:evenodd;fill:url(#SVGID_28_);" d="M158.3,27.65l-0.35-0.5l0.85-0.4
			c0.7-0.233,1.4-0.333,2.1-0.3l0.55,0.05l0.15-0.3c0.466-0.6,1.284-0.983,2.45-1.15c0.9,0.4,1.25,0.917,1.05,1.55l-0.199,0.35
			l0.55,0.05c1.066,0.2,1.7,0.617,1.899,1.25c-0.8,0.533-1.767,0.767-2.899,0.7l-0.55-0.05l-0.15,0.3c-0.3,0.366-0.8,0.667-1.5,0.9
			l-1,0.25c-0.2-0.1-0.4-0.233-0.6-0.4c-0.4-0.367-0.533-0.767-0.4-1.2l0.2-0.3l-0.6-0.05C159.217,28.267,158.7,28.017,158.3,27.65z
			"/>
		<path style="fill-rule:evenodd;clip-rule:evenodd;fill:#C4A656;" d="M161.3,28.4l-0.4-0.1l0.05-0.25c0.1-0.167,0.267-0.3,0.5-0.4
			l0.2-0.1l-0.1-0.1c-0.1-0.134-0.1-0.3,0-0.5c0.034-0.067,0.083-0.134,0.15-0.2h0.45c0.3,0.033,0.533,0.117,0.699,0.25l0.101,0.15
			l0.2-0.1c0.466-0.1,0.899-0.083,1.3,0.05c0,0.267-0.184,0.483-0.55,0.65l-0.25,0.05l0.149,0.1c0.167,0.233,0.117,0.483-0.149,0.75
			c-0.5,0.033-0.884-0.066-1.15-0.3l-0.15-0.1l-0.199,0.1C161.883,28.417,161.6,28.433,161.3,28.4z"/>
	</g>
	<g>
		
			<radialGradient id="SVGID_29_" cx="146.4365" cy="44.3926" r="6.5144" gradientTransform="matrix(0.9829 -0.1843 -0.2553 -0.5087 32.0532 63.8646)" gradientUnits="userSpaceOnUse">
			<stop  offset="0" style="stop-color:#000000;stop-opacity:0.6196"/>
			<stop  offset="1" style="stop-color:#000000;stop-opacity:0"/>
		</radialGradient>
		<path style="fill-rule:evenodd;clip-rule:evenodd;fill:url(#SVGID_29_);" d="M158.95,12.8c0.9-0.867,2.233-1.466,4-1.8
			s3.45-0.3,5.05,0.1c1.566,0.4,2.583,1.066,3.05,2c0.467,0.9,0.233,1.8-0.7,2.7c-0.933,0.867-2.283,1.467-4.05,1.8
			c-1.8,0.333-3.467,0.3-5-0.1c-1.6-0.4-2.616-1.067-3.05-2C157.783,14.6,158.017,13.7,158.95,12.8z"/>
		
			<radialGradient id="SVGID_30_" cx="146.5234" cy="43.9814" r="5.3812" gradientTransform="matrix(0.9826 -0.1858 -0.2671 -0.5319 32.2776 64.2741)" gradientUnits="userSpaceOnUse">
			<stop  offset="0" style="stop-color:#857839"/>
			<stop  offset="1" style="stop-color:#FFF6E3"/>
		</radialGradient>
		<path style="fill-rule:evenodd;clip-rule:evenodd;fill:url(#SVGID_30_);" d="M160.1,15l-0.9-0.35l0.45-0.6
			c0.434-0.433,1.017-0.75,1.75-0.95L162,13c-0.1-0.2-0.15-0.317-0.15-0.35c-0.2-0.7,0.2-1.316,1.2-1.85l1.101,0.2
			c0.767,0.2,1.3,0.5,1.6,0.9l0.15,0.35l0.6-0.15c1.3-0.133,2.4,0.05,3.3,0.55c-0.267,0.767-1,1.3-2.2,1.6l-0.649,0.1l0.2,0.35
			c0.133,0.433-0.034,0.866-0.5,1.3l-0.75,0.55c-1.301-0.1-2.2-0.483-2.7-1.15l-0.15-0.3l-0.6,0.1
			C161.65,15.3,160.867,15.233,160.1,15z"/>
		<path style="fill-rule:evenodd;clip-rule:evenodd;fill:#C4A656;" d="M163.35,13.9l-0.199-0.1c-0.267-0.066-0.45-0.2-0.551-0.4
			l-0.05-0.25L163,13c0.333-0.067,0.65-0.067,0.95,0l0.25,0.05l0.1-0.15c0.334-0.233,0.767-0.35,1.3-0.35
			c0.301,0.233,0.351,0.5,0.15,0.8l-0.15,0.1l0.25,0.05c0.434,0.167,0.634,0.4,0.601,0.7c-0.467,0.2-0.95,0.25-1.45,0.15l-0.2-0.05
			l-0.149,0.1c-0.2,0.167-0.467,0.283-0.801,0.35l-0.5,0.05l-0.199-0.25c-0.101-0.2-0.084-0.383,0.05-0.55L163.35,13.9z"/>
	</g>
	<g>
		
			<radialGradient id="SVGID_31_" cx="112.9478" cy="-50.2827" r="4.2265" gradientTransform="matrix(0.9168 0.3993 0.6921 -0.4821 83.2444 -57.987)" gradientUnits="userSpaceOnUse">
			<stop  offset="0" style="stop-color:#000000;stop-opacity:0.6196"/>
			<stop  offset="1" style="stop-color:#000000;stop-opacity:0"/>
		</radialGradient>
		<path style="fill-rule:evenodd;clip-rule:evenodd;fill:url(#SVGID_31_);" d="M155.9,13.05c-0.833,0.567-1.917,0.867-3.25,0.9
			c-1.333,0.066-2.517-0.134-3.55-0.6c-1.067-0.467-1.7-1.05-1.9-1.75c-0.2-0.733,0.116-1.383,0.95-1.95
			c0.8-0.533,1.867-0.833,3.2-0.9c1.333-0.067,2.533,0.117,3.6,0.55c1.066,0.467,1.683,1.067,1.85,1.8
			C157,11.833,156.7,12.483,155.9,13.05z"/>
		
			<radialGradient id="SVGID_32_" cx="112.5186" cy="-50.7358" r="3.4879" gradientTransform="matrix(0.9175 0.3978 0.7239 -0.5053 85.5975 -59.749)" gradientUnits="userSpaceOnUse">
			<stop  offset="0" style="stop-color:#857839"/>
			<stop  offset="1" style="stop-color:#FFF6E3"/>
		</radialGradient>
		<path style="fill-rule:evenodd;clip-rule:evenodd;fill:url(#SVGID_32_);" d="M150.45,12.4h-0.9l-0.2-0.45
			c-0.1-0.367,0.017-0.7,0.35-1l0.3-0.2c-0.167,0-0.3-0.05-0.4-0.15c-0.4-0.233-0.633-0.534-0.7-0.9
			c-0.033-0.167-0.033-0.317,0-0.45l0.85-0.1c0.633-0.066,1.217-0.017,1.75,0.15l0.35,0.15l0.3-0.2c0.667-0.367,1.483-0.5,2.45-0.4
			c0.433,0.5,0.4,0.983-0.1,1.45l-0.3,0.2l0.4,0.15c0.667,0.367,0.9,0.817,0.7,1.35c-0.9,0.233-1.767,0.217-2.6-0.05l-0.35-0.15
			l-0.3,0.2C151.65,12.233,151.117,12.367,150.45,12.4z"/>
		<path style="fill-rule:evenodd;clip-rule:evenodd;fill:#C4A656;" d="M151.35,11c-0.233,0-0.45-0.033-0.65-0.1l-0.25-0.15l0.15-0.2
			c0.167-0.1,0.367-0.167,0.6-0.2h0.2v-0.1c0-0.233,0.167-0.417,0.5-0.55c0.4,0.1,0.633,0.25,0.7,0.45l0.05,0.1h0.15
			c0.4,0,0.717,0.083,0.95,0.25c-0.133,0.233-0.4,0.367-0.8,0.4l-0.2,0.05l0.05,0.1c0,0.133-0.083,0.25-0.25,0.35l-0.25,0.15
			c-0.1,0-0.2-0.033-0.3-0.1c-0.233-0.1-0.383-0.217-0.45-0.35V11H151.35z"/>
	</g>
	<g>
		
			<radialGradient id="SVGID_33_" cx="229.9395" cy="38.2627" r="5.6902" gradientTransform="matrix(0.9995 -0.0308 -0.0264 -0.525 2.9275 58.3109)" gradientUnits="userSpaceOnUse">
			<stop  offset="0" style="stop-color:#000000;stop-opacity:0.6196"/>
			<stop  offset="1" style="stop-color:#000000;stop-opacity:0"/>
		</radialGradient>
		<path style="fill-rule:evenodd;clip-rule:evenodd;fill:url(#SVGID_33_);" d="M237.45,31c0.066,0.833-0.45,1.55-1.55,2.15
			c-1.101,0.633-2.434,0.967-4,1c-1.567,0.067-2.917-0.183-4.051-0.75c-1.133-0.533-1.716-1.217-1.75-2.05
			c-0.033-0.833,0.483-1.55,1.551-2.15c1.066-0.6,2.383-0.934,3.949-1c1.567-0.034,2.917,0.216,4.051,0.75
			C236.816,29.483,237.417,30.167,237.45,31z"/>
		
			<radialGradient id="SVGID_34_" cx="229.8057" cy="37.3633" r="4.7016" gradientTransform="matrix(0.9996 -0.0292 -0.0292 -0.5476 3.0853 57.7825)" gradientUnits="userSpaceOnUse">
			<stop  offset="0" style="stop-color:#857839"/>
			<stop  offset="1" style="stop-color:#FFF6E3"/>
		</radialGradient>
		<path style="fill-rule:evenodd;clip-rule:evenodd;fill:url(#SVGID_34_);" d="M229.9,29.4c0.1-0.6,0.666-1.066,1.699-1.4
			c1.034,0.267,1.634,0.7,1.801,1.3v0.3l0.55-0.05c1.1,0.034,1.916,0.333,2.45,0.9c-0.467,0.6-1.25,0.95-2.351,1.05h-0.55v0.3
			c-0.066,0.367-0.366,0.717-0.9,1.05l-0.75,0.35c-0.267-0.067-0.533-0.167-0.8-0.3c-0.566-0.3-0.899-0.633-1-1
			c-0.033-0.1-0.033-0.2,0-0.3h-0.55c-0.7-0.034-1.316-0.184-1.85-0.45l-0.65-0.4l0.6-0.45c0.5-0.333,1.101-0.533,1.801-0.6h0.55
			L229.9,29.4z"/>
		<path style="fill-rule:evenodd;clip-rule:evenodd;fill:#C4A656;" d="M230.55,30.7l0.15-0.1l-0.15-0.05
			c-0.2-0.133-0.3-0.283-0.3-0.45c0-0.067,0.017-0.133,0.05-0.2l0.4-0.05c0.333,0,0.616,0.033,0.85,0.1l0.15,0.1l0.149-0.1
			c0.334-0.167,0.733-0.217,1.2-0.15c0.167,0.233,0.101,0.45-0.2,0.65l-0.149,0.1l0.2,0.1c0.267,0.167,0.333,0.383,0.199,0.65
			c-0.433,0.1-0.833,0.083-1.199-0.05l-0.15-0.1l-0.15,0.1c-0.233,0.1-0.5,0.15-0.8,0.15H230.4l-0.051-0.25
			C230.316,30.983,230.384,30.833,230.55,30.7z"/>
	</g>
	<g>
		
			<radialGradient id="SVGID_35_" cx="174.8701" cy="40.6797" r="6.5134" gradientTransform="matrix(0.9922 -0.1247 -0.2226 -0.522 25.6517 60.1485)" gradientUnits="userSpaceOnUse">
			<stop  offset="0" style="stop-color:#000000;stop-opacity:0.6196"/>
			<stop  offset="1" style="stop-color:#000000;stop-opacity:0"/>
		</radialGradient>
		<path style="fill-rule:evenodd;clip-rule:evenodd;fill:url(#SVGID_35_);" d="M193.65,14.1c1.533,0.533,2.5,1.267,2.899,2.2
			c0.4,0.934,0.117,1.817-0.85,2.65c-1,0.8-2.384,1.316-4.15,1.55c-1.8,0.233-3.467,0.1-5-0.4s-2.517-1.233-2.95-2.2
			c-0.399-0.933-0.1-1.8,0.9-2.6c0.967-0.833,2.35-1.367,4.15-1.6C190.417,13.467,192.083,13.6,193.65,14.1z"/>
		
			<radialGradient id="SVGID_36_" cx="174.8711" cy="40.1553" r="5.3894" gradientTransform="matrix(0.9921 -0.1255 -0.2347 -0.546 25.922 60.3135)" gradientUnits="userSpaceOnUse">
			<stop  offset="0" style="stop-color:#857839"/>
			<stop  offset="1" style="stop-color:#FFF6E3"/>
		</radialGradient>
		<path style="fill-rule:evenodd;clip-rule:evenodd;fill:url(#SVGID_36_);" d="M187.4,15.3c-0.167-0.7,0.267-1.3,1.3-1.8
			c1.333,0.2,2.217,0.633,2.649,1.3c0.067,0.067,0.117,0.184,0.15,0.35l0.6-0.1c1.301-0.066,2.384,0.184,3.25,0.75
			c-0.333,0.733-1.1,1.217-2.3,1.45L192.4,17.3c0.1,0.1,0.149,0.217,0.149,0.35c0.101,0.434-0.083,0.85-0.55,1.25l-0.75,0.5
			c-0.333-0.033-0.7-0.117-1.1-0.25c-0.767-0.233-1.284-0.566-1.551-1l-0.1-0.35l-0.65,0.1c-0.8,0.033-1.566-0.083-2.3-0.35
			l-0.899-0.4l0.449-0.6c0.467-0.433,1.067-0.716,1.801-0.85l0.649-0.05C187.45,15.55,187.4,15.433,187.4,15.3z"/>
		<path style="fill-rule:evenodd;clip-rule:evenodd;fill:#C4A656;" d="M191.25,16.2c0,0.066-0.05,0.1-0.15,0.1l0.25,0.1
			c0.4,0.167,0.584,0.417,0.551,0.75c-0.467,0.133-0.95,0.15-1.45,0.05l-0.2-0.1c-0.066,0.066-0.116,0.1-0.15,0.1
			c-0.199,0.133-0.483,0.233-0.85,0.3h-0.45l-0.2-0.2c-0.066-0.2-0.033-0.383,0.101-0.55l0.149-0.15l-0.25-0.05
			c-0.233-0.133-0.399-0.3-0.5-0.5c-0.033-0.1-0.05-0.183-0.05-0.25l0.45-0.1c0.366-0.034,0.7-0.017,1,0.05l0.2,0.1l0.149-0.15
			c0.334-0.233,0.767-0.333,1.301-0.3C191.45,15.667,191.483,15.933,191.25,16.2z"/>
	</g>
	<g>
		
			<radialGradient id="SVGID_37_" cx="164.9199" cy="-51.9409" r="4.227" gradientTransform="matrix(0.9256 0.3785 0.6801 -0.4968 84.5795 -61.7799)" gradientUnits="userSpaceOnUse">
			<stop  offset="0" style="stop-color:#000000;stop-opacity:0.6196"/>
			<stop  offset="1" style="stop-color:#000000;stop-opacity:0"/>
		</radialGradient>
		<path style="fill-rule:evenodd;clip-rule:evenodd;fill:url(#SVGID_37_);" d="M201.2,23.85c1.333-0.1,2.533,0.066,3.6,0.5
			c1.066,0.466,1.7,1.05,1.9,1.75c0.2,0.733-0.084,1.383-0.851,1.95c-0.8,0.567-1.866,0.9-3.199,1c-1.334,0.1-2.534-0.066-3.601-0.5
			c-1.066-0.466-1.717-1.05-1.95-1.75c-0.199-0.733,0.101-1.383,0.9-1.95C198.8,24.283,199.866,23.95,201.2,23.85z"/>
		
			<radialGradient id="SVGID_38_" cx="164.0752" cy="-52.9478" r="3.4866" gradientTransform="matrix(0.925 0.38 0.7134 -0.5199 88.0099 -64.1281)" gradientUnits="userSpaceOnUse">
			<stop  offset="0" style="stop-color:#857839"/>
			<stop  offset="1" style="stop-color:#FFF6E3"/>
		</radialGradient>
		<path style="fill-rule:evenodd;clip-rule:evenodd;fill:url(#SVGID_38_);" d="M199.6,24.25c0.634-0.033,1.217,0.017,1.75,0.15
			l0.351,0.2l0.3-0.25c0.667-0.367,1.5-0.517,2.5-0.45c0.434,0.5,0.4,0.983-0.1,1.45l-0.301,0.2l0.4,0.15
			c0.667,0.366,0.9,0.816,0.7,1.35c-0.9,0.267-1.75,0.267-2.55,0l-0.4-0.15L202,27.1c-0.434,0.267-0.983,0.417-1.65,0.45h-0.85
			l-0.25-0.45c-0.066-0.367,0.05-0.7,0.35-1l0.301-0.2c-0.167,0-0.301-0.05-0.4-0.15c-0.434-0.2-0.684-0.483-0.75-0.85
			c-0.033-0.2-0.033-0.367,0-0.5L199.6,24.25z"/>
		<path style="fill-rule:evenodd;clip-rule:evenodd;fill:#C4A656;" d="M201.1,25.45h0.2l-0.05-0.1c0-0.233,0.167-0.417,0.5-0.55
			c0.4,0.1,0.65,0.25,0.75,0.45v0.1h0.2c0.399-0.034,0.717,0.05,0.95,0.25c-0.134,0.2-0.4,0.333-0.801,0.4H202.7v0.1
			c0,0.133-0.084,0.267-0.25,0.4l-0.25,0.15c-0.101,0-0.2-0.033-0.3-0.1c-0.233-0.066-0.384-0.167-0.45-0.3V26.1l-0.2,0.05
			c-0.233,0-0.45-0.033-0.65-0.1l-0.25-0.15l0.15-0.2C200.667,25.566,200.866,25.483,201.1,25.45z"/>
	</g>
	<g>
		
			<radialGradient id="SVGID_39_" cx="310.7676" cy="5.4629" r="5.7273" gradientTransform="matrix(0.9952 0.0982 0.2706 -0.5412 -4.094 8.1875)" gradientUnits="userSpaceOnUse">
			<stop  offset="0" style="stop-color:#000000;stop-opacity:0.6196"/>
			<stop  offset="1" style="stop-color:#000000;stop-opacity:0"/>
		</radialGradient>
		<path style="fill-rule:evenodd;clip-rule:evenodd;fill:url(#SVGID_39_);" d="M312.35,36.3c-0.433,0.867-1.35,1.55-2.75,2.05
			c-1.433,0.5-2.933,0.667-4.5,0.5c-1.566-0.133-2.75-0.567-3.55-1.3c-0.833-0.7-1.033-1.483-0.6-2.35c0.433-0.833,1.35-1.5,2.75-2
			c1.433-0.5,2.933-0.684,4.5-0.55c1.566,0.167,2.767,0.6,3.6,1.3C312.6,34.65,312.783,35.433,312.35,36.3z"/>
		
			<radialGradient id="SVGID_40_" cx="310.3896" cy="4.8354" r="4.7354" gradientTransform="matrix(0.9952 0.0977 0.2825 -0.5676 -3.6715 7.3773)" gradientUnits="userSpaceOnUse">
			<stop  offset="0" style="stop-color:#857839"/>
			<stop  offset="1" style="stop-color:#FFF6E3"/>
		</radialGradient>
		<path style="fill-rule:evenodd;clip-rule:evenodd;fill:url(#SVGID_40_);" d="M305.5,33.45c0.467-0.6,1.283-1,2.45-1.2
			c0.899,0.4,1.25,0.917,1.05,1.55c0,0.034-0.05,0.15-0.15,0.35h0.551c1.066,0.2,1.699,0.617,1.899,1.25
			c-0.8,0.533-1.767,0.783-2.899,0.75l-0.551-0.05l-0.149,0.3c-0.267,0.4-0.75,0.733-1.45,1l-1,0.25c-0.2-0.1-0.4-0.233-0.6-0.4
			c-0.4-0.367-0.551-0.75-0.45-1.15l0.2-0.35l-0.551-0.05c-0.666-0.1-1.183-0.333-1.55-0.7l-0.399-0.5l0.8-0.4
			c0.7-0.3,1.399-0.434,2.1-0.4l0.55,0.1L305.5,33.45z"/>
		<path style="fill-rule:evenodd;clip-rule:evenodd;fill:#C4A656;" d="M305.65,34.05h0.399c0.3,0,0.55,0.067,0.75,0.2l0.101,0.1
			l0.199-0.05c0.434-0.133,0.851-0.133,1.25,0c0.033,0.267-0.149,0.483-0.55,0.65l-0.2,0.1l0.15,0.1
			c0.167,0.233,0.117,0.467-0.15,0.7c-0.5,0.033-0.883-0.034-1.149-0.2l-0.15-0.15l-0.2,0.1c-0.267,0.1-0.55,0.133-0.85,0.1
			l-0.4-0.1l0.051-0.25c0.1-0.167,0.267-0.317,0.5-0.45l0.199-0.05l-0.1-0.1c-0.133-0.133-0.15-0.3-0.05-0.5
			C305.517,34.183,305.583,34.117,305.65,34.05z"/>
	</g>
	<g>
		
			<radialGradient id="SVGID_41_" cx="232.7217" cy="91.2793" r="6.5138" gradientTransform="matrix(0.9787 -0.2053 -0.2648 -0.5028 68.4095 129.8789)" gradientUnits="userSpaceOnUse">
			<stop  offset="0" style="stop-color:#000000;stop-opacity:0.6196"/>
			<stop  offset="1" style="stop-color:#000000;stop-opacity:0"/>
		</radialGradient>
		<path style="fill-rule:evenodd;clip-rule:evenodd;fill:url(#SVGID_41_);" d="M278.35,34.9c0.467,0.9,0.25,1.8-0.649,2.7
			c-0.9,0.9-2.233,1.533-4,1.9c-1.733,0.367-3.4,0.367-5,0c-1.601-0.4-2.634-1.05-3.101-1.95c-0.466-0.9-0.25-1.8,0.65-2.7
			s2.233-1.534,4-1.9c1.767-0.367,3.434-0.367,5,0C276.85,33.316,277.884,33.967,278.35,34.9z"/>
		
			<radialGradient id="SVGID_42_" cx="232.4463" cy="91.0566" r="5.3788" gradientTransform="matrix(0.9784 -0.2068 -0.2789 -0.5252 69.8232 131.5004)" gradientUnits="userSpaceOnUse">
			<stop  offset="0" style="stop-color:#857839"/>
			<stop  offset="1" style="stop-color:#FFF6E3"/>
		</radialGradient>
		<path style="fill-rule:evenodd;clip-rule:evenodd;fill:url(#SVGID_42_);" d="M270.35,32.75l1.051,0.15c0.8,0.2,1.35,0.5,1.649,0.9
			c0.101,0.1,0.15,0.217,0.15,0.35l0.6-0.15c1.3-0.167,2.4,0,3.3,0.5c-0.267,0.733-0.983,1.267-2.149,1.6l-0.65,0.1l0.2,0.35
			c0.134,0.434-0.033,0.867-0.5,1.3l-0.7,0.55c-1.3-0.066-2.2-0.4-2.7-1l-0.149-0.35l-0.601,0.15c-0.8,0.1-1.6,0.05-2.399-0.15
			l-0.9-0.35l0.4-0.6c0.434-0.467,1.017-0.8,1.75-1l0.649-0.15l-0.199-0.3C268.95,33.95,269.35,33.316,270.35,32.75z"/>
		<path style="fill-rule:evenodd;clip-rule:evenodd;fill:#C4A656;" d="M271.3,34.95l0.2,0.05l0.15-0.15
			c0.3-0.267,0.716-0.4,1.25-0.4c0.333,0.233,0.399,0.483,0.199,0.75l-0.149,0.15l0.25,0.05c0.399,0.167,0.6,0.4,0.6,0.7
			c-0.467,0.2-0.95,0.25-1.45,0.15l-0.199-0.05L272,36.35c-0.2,0.133-0.467,0.25-0.8,0.35l-0.45,0.05
			c-0.066-0.067-0.134-0.15-0.2-0.25c-0.133-0.167-0.133-0.35,0-0.55l0.15-0.1l-0.25-0.1c-0.267-0.067-0.45-0.2-0.55-0.4
			l-0.051-0.25l0.45-0.15C270.667,34.883,271,34.883,271.3,34.95z"/>
	</g>
	<g>
		
			<radialGradient id="SVGID_43_" cx="251.8652" cy="33.9707" r="5.6881" gradientTransform="matrix(1 -0.0088 -0.0154 -0.5253 1.517 51.8066)" gradientUnits="userSpaceOnUse">
			<stop  offset="0" style="stop-color:#000000;stop-opacity:0.6196"/>
			<stop  offset="1" style="stop-color:#000000;stop-opacity:0"/>
		</radialGradient>
		<path style="fill-rule:evenodd;clip-rule:evenodd;fill:url(#SVGID_43_);" d="M258.5,31.7c0.033,0.833-0.5,1.55-1.6,2.15
			c-1.101,0.566-2.434,0.867-4,0.9c-1.567,0-2.9-0.283-4-0.85c-1.134-0.566-1.717-1.267-1.75-2.1c-0.034-0.833,0.5-1.55,1.6-2.15
			s2.434-0.9,4-0.9c1.566-0.033,2.917,0.25,4.05,0.85C257.9,30.167,258.467,30.867,258.5,31.7z"/>
		
			<radialGradient id="SVGID_44_" cx="251.8477" cy="33.166" r="4.6994" gradientTransform="matrix(1 -0.008 -0.016 -0.5505 1.4907 51.4177)" gradientUnits="userSpaceOnUse">
			<stop  offset="0" style="stop-color:#857839"/>
			<stop  offset="1" style="stop-color:#FFF6E3"/>
		</radialGradient>
		<path style="fill-rule:evenodd;clip-rule:evenodd;fill:url(#SVGID_44_);" d="M250.5,30.2h0.55L251,29.9
			c0.1-0.6,0.667-1.05,1.7-1.35c1.033,0.3,1.633,0.75,1.8,1.35v0.3c0.167-0.067,0.35-0.067,0.55,0c1.101,0.033,1.917,0.333,2.45,0.9
			c-0.5,0.6-1.3,0.933-2.4,1h-0.55v0.3c-0.066,0.367-0.366,0.7-0.899,1l-0.801,0.35c-0.267-0.067-0.533-0.167-0.8-0.3
			c-0.533-0.3-0.85-0.65-0.95-1.05c-0.033-0.1-0.033-0.2,0-0.3l-0.55,0.05c-0.7-0.033-1.316-0.2-1.85-0.5L248.1,31.2l0.601-0.45
			C249.2,30.45,249.8,30.267,250.5,30.2z"/>
		<path style="fill-rule:evenodd;clip-rule:evenodd;fill:#C4A656;" d="M251.85,31.95l-0.399-0.05l-0.05-0.2
			c-0.034-0.167,0.033-0.317,0.199-0.45l0.2-0.1l-0.2-0.05c-0.166-0.133-0.25-0.284-0.25-0.45c0-0.1,0.017-0.183,0.051-0.25
			l1.199,0.1l0.15,0.1l0.15-0.1c0.366-0.133,0.783-0.167,1.25-0.1c0.133,0.233,0.066,0.45-0.2,0.65l-0.15,0.1l0.15,0.1
			c0.3,0.167,0.366,0.383,0.2,0.65c-0.434,0.067-0.834,0.033-1.2-0.1l-0.15-0.1l-0.149,0.1C252.417,31.9,252.15,31.95,251.85,31.95z
			"/>
	</g>
	<g>
		
			<radialGradient id="SVGID_45_" cx="254.6885" cy="57.3613" r="6.5134" gradientTransform="matrix(0.9922 -0.1247 -0.2226 -0.522 36.1707 84.8137)" gradientUnits="userSpaceOnUse">
			<stop  offset="0" style="stop-color:#000000;stop-opacity:0.6196"/>
			<stop  offset="1" style="stop-color:#000000;stop-opacity:0"/>
		</radialGradient>
		<path style="fill-rule:evenodd;clip-rule:evenodd;fill:url(#SVGID_45_);" d="M282.55,22.3c0.4,0.934,0.117,1.817-0.85,2.65
			c-1,0.8-2.384,1.316-4.15,1.55c-1.8,0.233-3.467,0.1-5-0.4s-2.517-1.233-2.95-2.2c-0.399-0.933-0.1-1.8,0.9-2.6
			c0.967-0.833,2.35-1.367,4.15-1.6c1.767-0.233,3.433-0.1,5,0.4C281.184,20.633,282.15,21.367,282.55,22.3z"/>
		
			<radialGradient id="SVGID_46_" cx="254.623" cy="56.8984" r="5.3882" gradientTransform="matrix(0.9921 -0.1255 -0.2347 -0.546 36.7304 85.4618)" gradientUnits="userSpaceOnUse">
			<stop  offset="0" style="stop-color:#857839"/>
			<stop  offset="1" style="stop-color:#FFF6E3"/>
		</radialGradient>
		<path style="fill-rule:evenodd;clip-rule:evenodd;fill:url(#SVGID_46_);" d="M273.4,21.3c-0.167-0.7,0.267-1.3,1.3-1.8
			c1.333,0.2,2.217,0.633,2.649,1.3c0.067,0.067,0.117,0.184,0.15,0.35l0.6-0.1c1.301-0.066,2.384,0.184,3.25,0.75
			c-0.333,0.733-1.1,1.217-2.3,1.45L278.4,23.3c0.1,0.1,0.149,0.217,0.149,0.35c0.101,0.434-0.083,0.85-0.55,1.25l-0.75,0.5
			c-0.333-0.033-0.7-0.117-1.1-0.25c-0.767-0.233-1.284-0.566-1.551-1l-0.1-0.35l-0.65,0.1c-0.8,0.033-1.566-0.083-2.3-0.35
			l-0.899-0.4l0.449-0.6c0.467-0.433,1.067-0.716,1.801-0.85l0.649-0.05C273.45,21.55,273.4,21.433,273.4,21.3z"/>
		<path style="fill-rule:evenodd;clip-rule:evenodd;fill:#C4A656;" d="M275.85,21.7c0.334-0.233,0.767-0.333,1.301-0.3
			c0.3,0.267,0.333,0.533,0.1,0.8c0,0.066-0.05,0.1-0.15,0.1l0.25,0.1c0.4,0.167,0.584,0.417,0.551,0.75
			c-0.467,0.133-0.95,0.15-1.45,0.05l-0.2-0.1c-0.066,0.066-0.116,0.1-0.15,0.1c-0.199,0.133-0.483,0.233-0.85,0.3h-0.45l-0.2-0.2
			c-0.066-0.2-0.033-0.383,0.101-0.55l0.149-0.15l-0.25-0.05c-0.233-0.133-0.399-0.3-0.5-0.5c-0.033-0.1-0.05-0.183-0.05-0.25
			l0.45-0.1c0.366-0.034,0.7-0.017,1,0.05l0.2,0.1L275.85,21.7z"/>
	</g>
	<g>
		
			<radialGradient id="SVGID_47_" cx="231.0811" cy="-93.8735" r="4.227" gradientTransform="matrix(0.9256 0.3785 0.6801 -0.4968 152.8614 -111.6554)" gradientUnits="userSpaceOnUse">
			<stop  offset="0" style="stop-color:#000000;stop-opacity:0.6196"/>
			<stop  offset="1" style="stop-color:#000000;stop-opacity:0"/>
		</radialGradient>
		<path style="fill-rule:evenodd;clip-rule:evenodd;fill:url(#SVGID_47_);" d="M306.85,24.05c-0.8,0.567-1.866,0.9-3.199,1
			c-1.334,0.1-2.533-0.066-3.601-0.5c-1.066-0.466-1.717-1.05-1.95-1.75c-0.199-0.733,0.101-1.383,0.9-1.95
			c0.8-0.567,1.867-0.9,3.2-1s2.533,0.066,3.6,0.5c1.067,0.466,1.7,1.05,1.9,1.75C307.9,22.833,307.617,23.483,306.85,24.05z"/>
		
			<radialGradient id="SVGID_48_" cx="230.1025" cy="-95.0303" r="3.4866" gradientTransform="matrix(0.925 0.38 0.7134 -0.5199 157.96 -115.0967)" gradientUnits="userSpaceOnUse">
			<stop  offset="0" style="stop-color:#857839"/>
			<stop  offset="1" style="stop-color:#FFF6E3"/>
		</radialGradient>
		<path style="fill-rule:evenodd;clip-rule:evenodd;fill:url(#SVGID_48_);" d="M305.5,19.9c0.434,0.5,0.4,0.983-0.1,1.45l-0.301,0.2
			l0.4,0.15c0.667,0.366,0.9,0.816,0.7,1.35c-0.9,0.267-1.75,0.267-2.55,0l-0.4-0.15L303,23.1c-0.434,0.267-0.983,0.417-1.65,0.45
			h-0.85l-0.25-0.45c-0.066-0.367,0.05-0.7,0.35-1l0.301-0.2c-0.167,0-0.301-0.05-0.4-0.15c-0.434-0.2-0.684-0.483-0.75-0.85
			c-0.033-0.2-0.033-0.367,0-0.5l0.85-0.15c0.634-0.033,1.217,0.017,1.75,0.15l0.351,0.2l0.3-0.25
			C303.667,19.983,304.5,19.833,305.5,19.9z"/>
		<path style="fill-rule:evenodd;clip-rule:evenodd;fill:#C4A656;" d="M303.7,21.35c0.399-0.034,0.717,0.05,0.95,0.25
			c-0.134,0.2-0.4,0.333-0.801,0.4H303.7v0.1c0,0.133-0.083,0.267-0.25,0.4l-0.25,0.15c-0.101,0-0.2-0.033-0.3-0.1
			c-0.233-0.066-0.384-0.167-0.45-0.3V22.1l-0.2,0.05c-0.233,0-0.45-0.033-0.65-0.1l-0.25-0.15l0.15-0.2
			c0.167-0.134,0.367-0.217,0.6-0.25h0.2l-0.05-0.1c0-0.233,0.167-0.417,0.5-0.55c0.4,0.1,0.65,0.25,0.75,0.45v0.1H303.7z"/>
	</g>
</g>
</svg>
