<?xml version="1.0" encoding="iso-8859-1"?>
<!-- Generator: Adobe Illustrator 15.1.0, SVG Export Plug-In . SVG Version: 6.00 Build 0)  -->
<!DOCTYPE svg PUBLIC "-//W3C//DTD SVG 1.1//EN" "http://www.w3.org/Graphics/SVG/1.1/DTD/svg11.dtd">
<svg version="1.1" id="FlashAICB" xmlns="http://www.w3.org/2000/svg" xmlns:xlink="http://www.w3.org/1999/xlink" x="0px" y="0px"
	 width="20.3px" height="152.95px" viewBox="0 0 20.3 152.95" style="enable-background:new 0 0 20.3 152.95;" xml:space="preserve"
	>
<g>
	<path style="fill-rule:evenodd;clip-rule:evenodd;fill:#1C1914;" d="M13.125,10.125L11,7.2L10.95,0
		c0.377,0.151,0.744,0.276,1.1,0.375l0.125,0.05C12.562,0.55,12.887,0.642,13.15,0.7h0.05l-0.05,9.45L13.125,10.125z"/>
	<path style="fill-rule:evenodd;clip-rule:evenodd;fill:#24201B;" d="M13.125,10.125L12.95,32.6l-2-4.6l0.075-3.85
		c0.05-2.4,0.091-4.55,0.125-6.45c0.033-1.4,0-4.15-0.101-8.25C11.024,8.665,11.008,7.915,11,7.2L13.125,10.125z"/>
	<path style="fill-rule:evenodd;clip-rule:evenodd;fill:#443E31;" d="M10.95,28l2,4.6c-0.145,9.828-0.395,20.777-0.75,32.85
		c-0.812,27.743-1.319,45.269-1.525,52.575c-0.202-0.043-0.41-0.118-0.625-0.226h-0.8c-0.133,0-0.3,0.05-0.5,0.15l-0.025,0.024
		C9.074,102.578,9.616,80.687,10.35,52.3C10.599,42.673,10.799,34.573,10.95,28z"/>
	<path style="fill-rule:evenodd;clip-rule:evenodd;fill:#393329;" d="M10.675,118.025c0.18,0.032,0.355,0.04,0.525,0.024
		c0.1,0.167,0.416,0.517,0.95,1.05c0.203,0.015,0.387,0.082,0.55,0.2c0.1,0.081,0.184,0.181,0.25,0.3
		c-1.101-0.166-2.117-0.25-3.05-0.25c-1.122,0-2.264,0.101-3.425,0.301H6.45L6.5,119.6c0.133-0.133,0.367-0.25,0.7-0.35
		c0.039-0.03,0.081-0.063,0.125-0.1c0.208-0.19,0.467-0.524,0.775-1h0.05c0.178-0.01,0.37-0.068,0.575-0.176l0.025-0.024
		c0.2-0.101,0.367-0.15,0.5-0.15h0.8C10.265,117.907,10.473,117.982,10.675,118.025z"/>
	<linearGradient id="SVGID_1_" gradientUnits="userSpaceOnUse" x1="5.4502" y1="122.2998" x2="14.0498" y2="122.2998">
		<stop  offset="0" style="stop-color:#B29F79"/>
		<stop  offset="0.149" style="stop-color:#756954"/>
		<stop  offset="0.4902" style="stop-color:#494032"/>
		<stop  offset="0.8275" style="stop-color:#6B5F49"/>
		<stop  offset="1" style="stop-color:#B29F79"/>
	</linearGradient>
	<path style="fill-rule:evenodd;clip-rule:evenodd;fill:url(#SVGID_1_);" d="M5.625,125H5.6c0-0.178-0.017-0.328-0.05-0.45
		c-0.012-0.049-0.029-0.099-0.05-0.149l0.35-0.601c0-0.166-0.117-0.366-0.35-0.6c0.033-0.167,0.15-0.334,0.35-0.5
		c0-0.233-0.133-0.467-0.4-0.7c0.433-0.366,0.5-0.717,0.2-1.05c0.033-0.2,0.184-0.367,0.45-0.5c0.128-0.16,0.253-0.428,0.375-0.8
		c1.161-0.2,2.303-0.301,3.425-0.301c0.933,0,1.95,0.084,3.05,0.25c-0.066-0.119-0.15-0.219-0.25-0.3
		c0.216,0.162,0.399,0.412,0.55,0.75c0.267,0.667,0.517,1.066,0.75,1.2l-0.025,0.05c-0.12,0.235-0.179,0.46-0.175,0.675
		c-0.004,0.212,0.063,0.403,0.2,0.575c0,0.101-0.05,0.2-0.15,0.3c-0.1,0.101-0.149,0.184-0.149,0.25c0,0.134,0.05,0.25,0.149,0.351
		c0.134,0.133,0.2,0.217,0.2,0.25c-0.233,0.2-0.316,0.55-0.25,1.05c0.031,0.167,0.081,0.351,0.15,0.55h-0.025
		c-1.522-0.399-3.131-0.6-4.825-0.6C7.941,124.7,6.783,124.8,5.625,125z"/>
	
		<radialGradient id="SVGID_2_" cx="11.4502" cy="146.75" r="14.5" gradientTransform="matrix(1 0 0 -1.5845 0 379.2728)" gradientUnits="userSpaceOnUse">
		<stop  offset="0" style="stop-color:#FFFFFF"/>
		<stop  offset="0.1451" style="stop-color:#FCFCF7"/>
		<stop  offset="0.3725" style="stop-color:#F5F3E2"/>
		<stop  offset="0.651" style="stop-color:#EAE6C0"/>
		<stop  offset="0.9647" style="stop-color:#DAD390"/>
		<stop  offset="1" style="stop-color:#D8D08A"/>
	</radialGradient>
	<path style="fill-rule:evenodd;clip-rule:evenodd;fill:url(#SVGID_2_);" d="M13.975,121.3H14c-0.13,0.243-0.196,0.468-0.2,0.675
		C13.796,121.76,13.854,121.535,13.975,121.3z M5.625,125c1.158-0.2,2.316-0.3,3.475-0.3c1.694,0,3.302,0.2,4.825,0.6
		c0.076,0.189,0.167,0.356,0.275,0.5c-0.066,0.334-0.033,0.834,0.1,1.5c0.367,0.9,0.617,1.8,0.75,2.7
		c0.233,1.4,0.95,3.116,2.15,5.15c1.333,2.199,2.149,3.949,2.45,5.25c0.133,0.333,0.199,0.6,0.199,0.8v0.05
		c0.4,0.233,0.534,0.55,0.4,0.95c-0.233,0.467-0.35,0.816-0.35,1.05c0,2.9-1.051,5.267-3.15,7.1c-1.934,1.7-4.233,2.567-6.9,2.601
		c-2.267-0.033-4.4-0.9-6.4-2.601c-2.3-1.933-3.45-4.3-3.45-7.1c0-2.267,0.717-4.634,2.15-7.1c1.6-2.801,2.5-4.851,2.7-6.15
		L5,129.25c0.033-0.467,0.083-1.25,0.15-2.35l0.35-1.15C5.588,125.484,5.63,125.234,5.625,125z"/>
</g>
</svg>
