<?xml version="1.0" encoding="iso-8859-1"?>
<!-- Generator: Adobe Illustrator 15.1.0, SVG Export Plug-In . SVG Version: 6.00 Build 0)  -->
<!DOCTYPE svg PUBLIC "-//W3C//DTD SVG 1.1//EN" "http://www.w3.org/Graphics/SVG/1.1/DTD/svg11.dtd">
<svg version="1.1" id="FlashAICB" xmlns="http://www.w3.org/2000/svg" xmlns:xlink="http://www.w3.org/1999/xlink" x="0px" y="0px"
	 width="374.75px" height="139.1px" viewBox="0 0 374.75 139.1" style="enable-background:new 0 0 374.75 139.1;"
	 xml:space="preserve">
<path style="fill-rule:evenodd;clip-rule:evenodd;fill:#5E5140;" d="M111.45,108c-0.6,1.434-0.883,2.8-0.85,4.1
	c-0.1,0.101-0.2,0.2-0.3,0.301c-0.433,0.433-0.617,0.983-0.55,1.649l0.75,1.65c0.433,0.566,1.033,1.1,1.8,1.6
	c0.1,0.066,0.217,0.134,0.35,0.2c1.2,1.5,2.917,2.917,5.15,4.25c4.333,2.533,10.317,4.583,17.95,6.15
	c1.833,0.366,3.817-0.067,5.95-1.301c0.133-0.033,0.267-0.066,0.4-0.1l0.15-0.05c1.633-0.434,3.833-1.351,6.6-2.75l0.75-0.351
	c0.233-0.133,0.467-0.25,0.7-0.35c2.333-0.4,4.167-0.684,5.5-0.85c2.9-0.367,5.483-0.384,7.75-0.051c2.5,0.367,4.883,0.4,7.15,0.101
	c2.667-0.4,4.883-1.267,6.65-2.601c0.333-0.233,0.617-0.683,0.85-1.35c0.233-0.733,0.466-1.217,0.7-1.45
	c0.767-0.833,1.75-1.583,2.95-2.25c1.4-0.7,2.467-1.25,3.2-1.649c0.9-0.434,1.55-0.784,1.95-1.051c0.7-0.433,1.184-1,1.45-1.699
	c0.233-0.601,0.283-1.567,0.149-2.9c-0.166-1.566-0.233-2.566-0.199-3c0.1-0.733,0.333-1.517,0.699-2.35
	c0.467-0.934,0.75-1.634,0.851-2.101c0.166-0.7,0.267-1.399,0.3-2.1c0.566-0.033,1.1-0.05,1.6-0.05
	c0.767-1.801,0.95-4.4,0.551-7.801c-0.067-0.6-0.134-1.166-0.2-1.699c0.399-1.367,0.684-2.601,0.85-3.7
	c0.134-0.9,0.233-2.134,0.3-3.7c0.167-1.333,0.634-2.417,1.4-3.25c0.2-0.233,0.566-0.417,1.1-0.55c0.534-0.167,0.834-0.3,0.9-0.4
	c0.467-0.6,0.8-1.3,1-2.1c0.1-0.467,0.267-1.283,0.5-2.45c0-0.057,0.009-0.099,0.025-0.125l0.024-0.025
	c0.101-0.133,0.184-0.25,0.25-0.35l0.525-0.875c0.345-0.675,0.637-1.4,0.875-2.175c0.6-0.4,1.684-0.583,3.25-0.55
	c2.066,0.067,4.467,0.4,7.2,1c3.133,0.767,5.5,1.317,7.1,1.65c2.167,0,4.1,0,5.8,0c3.233,0.033,5.101,0.384,5.601,1.05
	c0.066,0.067,0.133,0.334,0.199,0.801c-3.366,2.767-5.35,4.199-5.949,4.3c0.133-1.3,0.149-2.667,0.05-4.101
	c-0.634-0.233-1.684-0.666-3.15-1.3c-1.3-0.5-2.383-0.649-3.25-0.45c-0.866,0.2-1.649,0.534-2.35,1c-0.5,0.2-1.384-0.017-2.65-0.649
	c-1.467-0.733-2.383-1.117-2.75-1.15c-0.333-0.033-1.149,0.184-2.45,0.65c-1.066,0.399-1.716,0.633-1.949,0.7
	c-0.634,0.166-1.351,0.25-2.15,0.25l-0.85,7.649c-0.233,2-1.067,3.084-2.5,3.25c-3.233,0.4-4.934,0.634-5.101,0.7
	c0.033,0.267,0.066,0.533,0.101,0.8c3.1,5.467,3.833,10.134,2.199,14c-0.466,1.066-1.616,2.117-3.449,3.15c-1.834,1-2.95,2-3.351,3
	c-0.333,0.833-0.217,2.5,0.351,5c0.5,2.434,0.5,4.217,0,5.35c-0.534,1.167-1.65,2.084-3.351,2.75c-1.867,0.7-3,1.316-3.4,1.851
	c-0.4,0.5-0.55,1.25-0.45,2.25c0.1,1.3,0.117,2.1,0.05,2.399c-0.233,1.2-0.633,2.25-1.2,3.15c-0.4,0.6-1.117,1.45-2.15,2.55
	c-2.467,2.7-4.367,4.634-5.7,5.8c-2.5,2.134-4.767,3.4-6.8,3.8c0.067-1.1,0.517-3.133,1.35-6.1c0.733-2.566,1.017-4.65,0.85-6.25
	c-0.9,0.033-2.2,0.517-3.9,1.45c-1.633,0.934-2.85,1.366-3.65,1.3c0.034-2.467-1.283-4.066-3.95-4.8c-2.533-0.7-4.617-0.367-6.25,1
	c-0.233,0.2-0.483,0.633-0.75,1.3s-0.533,1.1-0.8,1.3c-0.4,0.334-1.3,0.65-2.7,0.95c-2.2,0.934-3.833,1.783-4.9,2.55
	c-1.867,1.3-2.867,2.733-3,4.3c-0.633,0.067-1.2-0.183-1.7-0.75c-0.633-0.666-1.117-1.066-1.45-1.199
	c-0.466-0.167-1.183-0.233-2.15-0.2c-0.533,0.033-1.25,0.083-2.15,0.149c-1.033,0-2.783,0.117-5.25,0.351
	c-2.067-0.033-3.433-0.7-4.1-2c-0.2-0.367-0.367-1.467-0.5-3.3c-0.066-1.367-0.6-2.284-1.6-2.75c-0.633-0.301-1.716-0.267-3.25,0.1
	c-1.733,0.434-2.9,0.6-3.5,0.5c0.967-1.366,0.95-3.083-0.05-5.15c-0.933-1.933-2.133-3.233-3.6-3.899
	c-0.3-0.134-1.383-0.283-3.25-0.45c-0.2-0.033-0.717-0.316-1.55-0.85c-0.7-0.267-1.1,0.267-1.2,1.6c-1.467-0.967-2.233-2.634-2.3-5
	c-0.067-1.967,0.316-3.866,1.15-5.7c0.567-1.2,1.167-2.033,1.8-2.5c0.534-0.434,1.467-0.8,2.8-1.1c-0.434-1.4-1.283-3.334-2.55-5.8
	c0.9-1.2,1.95-2.017,3.15-2.45c1.466-0.334,2.65-0.65,3.55-0.95c0.8-0.3,1.617-0.816,2.45-1.55c0.833-0.867,1.433-1.467,1.8-1.8
	c0.233-0.2,0.5-0.567,0.8-1.101c0.267-0.434,0.633-0.767,1.1-1c0.533-0.3,1.333-0.434,2.4-0.399c1.167,0.066,1.983,0.083,2.45,0.05
	c-0.133-0.767,0.6-2.634,2.2-5.601c1.066-1.933,0.333-3.116-2.2-3.55c0.267-1.233-0.217-2.2-1.45-2.899
	c-0.667-0.4-1.716-0.867-3.15-1.4c-0.433-0.233-1.133-0.75-2.1-1.55c-0.867-0.733-1.583-1.217-2.15-1.45
	c-0.6-0.267-1.65-0.4-3.15-0.4c-1.433-0.033-2.45-0.216-3.05-0.55c-0.767-0.399-1.467-1.116-2.1-2.15c-0.733-1.2-1.333-2-1.8-2.4
	c-0.733,0.833-1.35,1.417-1.85,1.75c-0.567,0.333-1.35,0.6-2.35,0.8c-0.2,0.034-0.517,0.017-0.95-0.05
	c-1.1,0.833-2.35,1.616-3.75,2.35c-0.467,0.867-0.883,1.45-1.25,1.75c-0.6,0.467-1.333,0.784-2.2,0.95
	c-0.5,0.101-1.317,0.25-2.45,0.45c-0.9,0.2-2.417,0.767-4.55,1.7c-1.934,0.833-3.483,1.333-4.65,1.5c-3.1,0.467-6.333,0.166-9.7-0.9
	c-0.333-0.1-0.667-0.217-1-0.35c-0.067,0-0.133,0-0.2,0c-1.6,0.066-3.1-0.134-4.5-0.601c-0.767-0.267-2.133-0.883-4.1-1.85
	c-0.5-0.233-2.017-0.667-4.55-1.3c-1.933-0.467-3.317-1.15-4.15-2.05c-0.5-0.534-1-1.4-1.5-2.601c-0.6-1.533-1.017-2.483-1.25-2.85
	s-0.65-0.983-1.25-1.85c-0.567-0.733-0.983-1.367-1.25-1.9c-1.333-2.4-2.1-3.75-2.3-4.05c-0.667-0.967-1.667-2.05-3-3.25
	c-3.1-2.7-5.15-5.017-6.15-6.95c-0.933-1.8-0.867-3.233,0.2-4.3c1.533-1.467,2.35-2.55,2.45-3.25c0.167-1.2-0.2-2.033-1.1-2.5
	c-0.5-0.267-1.434-0.566-2.8-0.9c-1.7-0.633-2.533-1.183-2.5-1.65c0.067-1.6,0.017-2.633-0.15-3.1c-0.6-1.833-2.167-2.3-4.7-1.4
	c-3.2,1.167-5.167,1.6-5.9,1.3c-0.433-0.167-0.75-0.35-0.95-0.55c-0.367-0.4-0.633-0.667-0.8-0.8c-0.133-0.1-0.217-0.4-0.25-0.9
	s-0.117-0.8-0.25-0.9c-0.233-0.167-0.566-0.217-1-0.15c-0.467,0.066-0.783,0.066-0.95,0c-0.3-0.133-0.85-0.2-1.65-0.2
	c-0.433,0-0.833-0.35-1.2-1.05c-0.2-0.367-0.25-1.017-0.15-1.95c0.1-1.033,0.1-1.717,0-2.05c-0.3-0.9-0.934-1.8-1.9-2.7
	c-0.9-0.833-1.767-1.367-2.6-1.6C7.75,18.85,6.6,18.633,5,18.4c-1.5-0.267-2.583-0.5-3.25-0.7L1.4,17.6l-0.45-1.75
	c-0.1-0.333-0.2-0.667-0.3-1l2.6,0.35c2.2,0.2,4.133,0.167,5.8-0.1c0.434,0.3,0.85,0.667,1.25,1.1c0.567,0.667,1.35,1.9,2.35,3.7
	c0.133,0.267,0.434,1.05,0.9,2.35c0.4,1.167,0.717,1.9,0.95,2.2c1.467,1.9,4.1,3.083,7.9,3.55c3.733,0.433,6.717,0.033,8.95-1.2
	c0.6-0.333,1.117-0.733,1.55-1.2c0.367,0,0.7,0.017,1,0.05c0.5,0.667,1.417,1.233,2.75,1.7c0.2,0.066,0.383,0.133,0.55,0.2
	c0.267,0.4,0.533,0.9,0.8,1.5c0.433,0.9,1.183,1.567,2.25,2c-0.067,0.233-0.183,0.534-0.35,0.9c-0.333,0.667-0.45,1.183-0.35,1.55
	c0.2,0.7,0.967,1.583,2.3,2.65c1.3,1,2.017,1.934,2.15,2.8c0.133,0.933-0.333,1.917-1.4,2.95c-1.067,1-1.467,2.083-1.2,3.25
	c0.2,0.9,0.967,1.483,2.3,1.75c1.6,0.3,2.6,0.667,3,1.1c0.5,0.5,0.8,1.233,0.9,2.2c0.133,1.333,0.25,2.133,0.35,2.4
	c0.4,1.167,1.267,2.667,2.6,4.5c1.6,2.233,2.6,3.733,3,4.5c0.1,0.167,0.684,1.667,1.75,4.5c0.667,1.733,1.483,3.033,2.45,3.9
	c1.9,1.733,4.183,2.566,6.85,2.5c0.367,0.233,0.8,0.434,1.3,0.6c1.367,0.5,2.767,0.7,4.2,0.601c1.033-0.066,2.017-0.45,2.95-1.15
	c1.233-0.934,2.117-1.5,2.65-1.7c0.167-0.066,0.367-0.133,0.6-0.199c0.333-0.067,0.7-0.15,1.1-0.25
	c1.533-0.233,3.583-0.25,6.15-0.051c3.833,0.301,6.483,0.217,7.95-0.25c2.333-0.7,4.583-1.716,6.75-3.05
	c1.1-0.7,3.117-2.117,6.05-4.25c1.333-0.966,2.467-1.15,3.4-0.55c1.2,1.1,2.25,2.017,3.15,2.75c0.433,0.367,1.383,0.983,2.85,1.85
	c1.1,0.667,1.883,1.3,2.35,1.9c0.133,0.133,0.133,0.467,0,1c-0.1,0.566-0.117,0.917-0.05,1.05c0.4,0.733,1.183,1.283,2.35,1.65
	c1.333,0.366,2.25,0.649,2.75,0.85c1.367,0.533,2.383,1.066,3.05,1.601c0.867,0.733,1.45,1.733,1.75,3
	c0.4,1.666,0.583,3.683,0.55,6.05c-0.067,2.8-0.534,4.6-1.4,5.399c-0.167,0.167-0.517,0.317-1.05,0.45
	c-0.567,0.134-0.933,0.25-1.1,0.351c-1.633,1-2.566,1.6-2.8,1.8c-1.167,0.866-2.367,1.566-3.6,2.1
	c-2.433,1.101-4.067,2.217-4.9,3.351c-1.167,1.566-1.3,3.583-0.4,6.05c0.333,0.066,0.667,0.116,1,0.149
	c-0.333,2.134-0.534,3.301-0.6,3.5C111.533,107.333,111.483,107.634,111.45,108z M366.75,36.15c-0.1-0.5-0.25-1.05-0.45-1.65
	c-0.366-1.333-0.55-2.233-0.55-2.7c0.066-1.5,0.783-2.716,2.15-3.65c0.8-0.566,2.149-1.283,4.05-2.15
	c0.666-0.367,1.399-0.833,2.2-1.4c0.267,0.933,0.466,1.733,0.6,2.4c-1.1,1.9-2.684,3.683-4.75,5.35
	c-1.134,0.933-1.85,1.583-2.15,1.95C367.384,34.833,367.017,35.45,366.75,36.15z M372.95,21.25l0.85,2.2
	c0.066,0.233,0.134,0.466,0.2,0.7L372.95,21.25z M366.8,41.55c0.134,0.633,0.3,1.333,0.5,2.1c0.733,2.633,0.384,4.483-1.05,5.55
	c-0.533,0.4-1.483,0.75-2.85,1.05c-1.9,0.367-2.934,0.583-3.101,0.65c-1.3,0.434-2.533,1.083-3.7,1.95
	c-0.399,0.3-1.5,1.217-3.3,2.75c-1.233,1.033-2.383,1.583-3.45,1.65c-0.666,0.033-1.933-0.017-3.8-0.15
	c-1.066,0.033-2.217,0.15-3.45,0.35c-1.566,0.267-2.683,0.583-3.35,0.95c-0.434,0.267-1.384,1.017-2.85,2.25
	c-1.101,0.934-2.217,1.567-3.351,1.9c-0.166,0.067-1.833,0.2-5,0.4c-2.399,0.133-3.95,0.633-4.649,1.5
	c-0.534,0.667-0.733,1.867-0.601,3.6c0.167,2.267,0.217,3.566,0.15,3.9c-0.334,1.934-1.117,3.366-2.351,4.3
	c-1.199,0.9-2.767,1.3-4.699,1.2c-1.101-0.066-1.784-0.217-2.051-0.45c-0.199-0.134-0.633-0.5-1.3-1.1
	c-0.566-0.4-1.783-0.967-3.649-1.7c-1.667-0.667-2.801-1.25-3.4-1.75c-0.7-0.601-1.066-1.167-1.1-1.7c0-0.767-0.117-1.4-0.351-1.9
	c2.601,1.033,5.65,1.55,9.15,1.55c2.066,0.199,3.6,0.283,4.6,0.25c1.7-0.067,2.9-0.7,3.601-1.9c0.533-0.933,0.85-2.033,0.949-3.3
	c0.067-0.7,0.117-1.684,0.15-2.95c0.167-2.033,1.6-3.283,4.3-3.75c1.367-0.233,2.601-0.6,3.7-1.1c0.267-0.1,1.384-0.683,3.35-1.75
	c1.167-0.633,2.684-1.066,4.551-1.3c1.899,0.1,3.517,0.183,4.85,0.25c4.333,0.133,7.517-0.367,9.55-1.5
	c0.601-0.333,1.617-1.05,3.05-2.15c1.334-1.067,2.384-1.8,3.15-2.2c1-0.533,2.5-1.317,4.5-2.35c1.6-1,2.616-2.233,3.05-3.7
	C366.65,42.617,366.733,42.15,366.8,41.55z M257.95,58.05c0.033-0.433,0.05-0.883,0.05-1.35c0.033-3.034,0.1-4.8,0.2-5.3
	c0.666-2.867,2.25-5.017,4.75-6.45c2.366-1.367,4.899-1.733,7.6-1.1c0.9,0.2,2.8,1.2,5.7,3c1,0.633,2.283,1.233,3.85,1.8
	c2.2,0.8,3.567,1.317,4.101,1.55c0.934,0.4,2.116,1,3.55,1.8c1.733,0.967,2.75,1.683,3.05,2.15c0.3,0.5,0.467,1.4,0.5,2.7
	c0.066,1.233,0.334,2.167,0.8,2.8c0.534,0.7,1.517,1.55,2.95,2.55c1.601,1.1,2.65,1.9,3.15,2.4c0.967,0.967,1.783,1.733,2.45,2.3
	c-1.801-0.167-2.767-0.267-2.9-0.3c-4.9-1.567-8.134-4.333-9.7-8.3c-0.1-0.233-0.1-0.65,0-1.25c0.066-0.566,0.017-1-0.149-1.3
	c-0.134-0.233-0.417-0.433-0.851-0.6c-0.434-0.167-0.7-0.333-0.8-0.5c-0.066-0.133-0.267-0.333-0.6-0.6
	c-0.334-0.3-0.567-0.533-0.7-0.7c-0.101-0.167-0.084-0.55,0.05-1.15c0.134-0.567,0.116-0.967-0.05-1.2
	c-0.7-0.933-2.167-1.517-4.4-1.75c-2.767-0.333-4.399-0.6-4.899-0.8c-0.4-0.167-0.95-0.517-1.65-1.05
	c-0.667-0.533-1.233-0.883-1.7-1.05c-1.733-0.533-3.666-0.533-5.8,0c-1.6,0.433-2.816,1.283-3.65,2.55
	c-0.133,0.2-0.85,1.7-2.149,4.5C260.167,54.567,259.25,56.117,257.95,58.05z M236.55,73.45c0.566-1,0.934-1.634,1.101-1.9
	c0.566-0.833,1.216-1.617,1.949-2.35c0.101-0.1,0.284-0.15,0.551-0.15c0.3-0.033,0.517-0.117,0.649-0.25
	c0.267-0.3,0.566-0.816,0.9-1.55c0.333-0.7,0.6-1.167,0.8-1.4c0.267-0.3,0.767-0.667,1.5-1.1c0.7-0.433,1.217-0.833,1.55-1.2
	c0.2-0.267,0.4-0.533,0.601-0.8c3.566,1.033,6.316,1.217,8.25,0.55c-0.7,1.2-1.25,2.3-1.65,3.3c-1,0.066-2.4,0.083-4.2,0.05
	c-1.399,0.2-2.517,0.95-3.35,2.25c-0.601,0.967-1.233,2.617-1.9,4.95c-0.666,2.301-1.366,4-2.1,5.101
	c-0.967,1.6-1.733,2.833-2.3,3.7c-1,1.5-1.9,2.533-2.7,3.1c0-0.134,0.133-2.783,0.399-7.95
	C236.7,76.066,236.684,74.616,236.55,73.45z"/>
<path style="fill-rule:evenodd;clip-rule:evenodd;fill:#4E4539;" d="M293.85,56.25c0.233,1.4,0.434,2.433,0.601,3.1l0.149,0.5
	c0.233,0.8,0.517,1.4,0.851,1.8c1.566,2.2,4.666,3.934,9.3,5.2c3.434,0.933,7.066,1.483,10.9,1.65c0.5-1.5,0.966-3.55,1.399-6.15
	c0.566-2.067,1.75-3.767,3.55-5.1c0.2-0.133,0.4-0.267,0.601-0.4c0.066-0.033,0.133-0.083,0.2-0.15l1.149-0.65
	c0.334-0.167,0.65-0.316,0.95-0.45c2.333-0.967,5.2-1.567,8.6-1.8c0.267-0.033,0.534-0.05,0.801-0.05l4.8-0.2
	c2.6-0.2,4.684-0.466,6.25-0.8h0.149c0.034-0.033,0.067-0.05,0.101-0.05c1.3-0.333,2.883-0.9,4.75-1.7
	c0.333-0.167,1.85-0.883,4.55-2.15c1.6-0.733,2.717-1.367,3.35-1.9h0.051c0.199-0.2,0.35-0.383,0.449-0.55
	c0.034-0.033,0.067-0.083,0.101-0.15c0.166-0.333,0.3-0.717,0.399-1.15l0.95-3.7l5-10.15l0.375-0.6
	c0.042-0.066,0.084-0.133,0.125-0.2c0.151-0.227,0.293-0.452,0.425-0.675c0.043-0.077,0.085-0.152,0.125-0.225l6.5-11.1l-0.6-0.95
	c0.467,0.667,0.983,1.517,1.55,2.55l0.65,1.2l1.05,2.9l0.15,0.4v0.05c-0.801,0.566-1.534,1.033-2.2,1.4
	c-1.9,0.867-3.25,1.583-4.05,2.15c-1.367,0.934-2.084,2.15-2.15,3.65c0,0.467,0.184,1.367,0.55,2.7c0.2,0.6,0.351,1.15,0.45,1.65
	c0.1,0.567,0.134,1.033,0.1,1.4c0,1.167,0,2.083,0,2.75c0,0.467-0.017,0.883-0.05,1.25c-0.066,0.6-0.149,1.067-0.25,1.4
	c-0.434,1.466-1.45,2.7-3.05,3.7c-2,1.033-3.5,1.817-4.5,2.35c-0.767,0.4-1.816,1.133-3.15,2.2c-1.433,1.1-2.449,1.816-3.05,2.15
	c-2.033,1.133-5.217,1.633-9.55,1.5c-1.333-0.067-2.95-0.15-4.85-0.25c-1.867,0.233-3.384,0.667-4.551,1.3
	c-1.966,1.067-3.083,1.65-3.35,1.75c-1.1,0.5-2.333,0.867-3.7,1.1c-2.7,0.467-4.133,1.717-4.3,3.75
	c-0.033,1.267-0.083,2.25-0.15,2.95c-0.1,1.267-0.416,2.367-0.949,3.3c-0.7,1.2-1.9,1.833-3.601,1.9c-1,0.033-2.533-0.051-4.6-0.25
	c-3.5,0-6.55-0.517-9.15-1.55c-0.967-0.434-1.883-0.917-2.75-1.45c-0.2-0.133-0.416-0.3-0.649-0.5
	c-0.667-0.566-1.483-1.333-2.45-2.3c-0.5-0.5-1.55-1.3-3.15-2.4c-1.434-1-2.416-1.85-2.95-2.55c-0.466-0.633-0.733-1.566-0.8-2.8
	c-0.033-1.3-0.2-2.2-0.5-2.7c-0.3-0.467-1.316-1.183-3.05-2.15c-1.434-0.8-2.616-1.4-3.55-1.8c-0.533-0.233-1.9-0.75-4.101-1.55
	c-1.566-0.566-2.85-1.167-3.85-1.8c-2.9-1.8-4.8-2.8-5.7-3c-2.7-0.633-5.233-0.267-7.6,1.1c-2.5,1.433-4.084,3.583-4.75,6.45
	c-0.101,0.5-0.167,2.267-0.2,5.3c0,0.466-0.017,0.917-0.05,1.35c-0.2,1.567-0.65,2.8-1.351,3.7c-0.533,0.7-1.267,1.217-2.199,1.55
	c-1.934,0.667-4.684,0.483-8.25-0.55c-0.2,0.267-0.4,0.533-0.601,0.8c-0.333,0.367-0.85,0.767-1.55,1.2
	c-0.733,0.433-1.233,0.8-1.5,1.1c-0.2,0.233-0.467,0.7-0.8,1.4c-0.334,0.733-0.634,1.25-0.9,1.55
	c-0.133,0.133-0.35,0.217-0.649,0.25c-0.267,0-0.45,0.05-0.551,0.15c-0.733,0.733-1.383,1.517-1.949,2.35
	c-0.167,0.267-0.534,0.9-1.101,1.9c-0.133,0.166-0.267,0.366-0.399,0.6c-1.167,2.134-2.084,3.55-2.75,4.25
	c-1.334,1.434-2.817,1.95-4.45,1.55c0.833-0.733,1.166-1.466,1-2.199c-0.066-0.434-0.283-1.167-0.65-2.2
	c0-0.101-0.033-0.75-0.1-1.95c-0.033-0.434-0.066-0.8-0.101-1.1c-0.066-0.467-0.133-0.733-0.199-0.801
	c-0.5-0.666-2.367-1.017-5.601-1.05c-1.7,0-3.633,0-5.8,0c-1.6-0.333-3.967-0.883-7.1-1.65c-2.733-0.6-5.134-0.933-7.2-1
	c-1.566-0.033-2.65,0.15-3.25,0.55c0.233-0.8,0.416-1.65,0.55-2.55c0.467-0.967,1.7-1.433,3.7-1.4l1.5,0.05
	c0.399,0.034,0.833,0.083,1.3,0.15c0.2,0.033,0.417,0.083,0.65,0.15l1.1,0.35c0.4,0.1,0.8,0.25,1.2,0.45
	c0.098,0.049,0.198,0.099,0.3,0.15c1.5,0.667,2.533,1.083,3.1,1.25l3.351,0.7c0.416,0.069,0.85,0.136,1.3,0.2l2.15,0.3
	c0.8,0.067,1.633,0.133,2.5,0.2c3.199,0.2,6.35,0.183,9.449-0.05c0.334-1.267,1.217-2.566,2.65-3.9c0.2-0.167,0.4-0.333,0.6-0.5
	c0.101-0.1,0.217-0.2,0.351-0.3l2.7-1.75c0.566-0.333,1.149-0.633,1.75-0.9l2-0.7c1.1-0.333,2.066-0.417,2.899-0.25
	c1.5,0.433,2.983,0.733,4.45,0.9c0.134-0.233,0.283-0.467,0.45-0.7l0.95-1.6c1.566-2.567,3.666-6.067,6.3-10.5
	c0.6-0.8,1.2-1.534,1.8-2.2l2.225-2.2c0.578-0.49,1.17-0.931,1.775-1.325l0.55-0.35c0.069-0.046,0.137-0.087,0.2-0.125l5.35-1.8
	l1.051-0.05c1.399-0.033,2.716,0.184,3.949,0.65l0.851,0.35c0.566,0.267,1.133,0.6,1.7,1c1.495,1.391,2.837,2.591,4.024,3.6
	l1.976,1.65c0.8,0.633,2.533,1.6,5.199,2.9c2.467,1.167,4.051,2.117,4.75,2.85l0.051,0.05l0.199,0.25
	C293.217,54.017,293.55,54.95,293.85,56.25z M11.45,14.4l0.1-0.85c0.1-0.2,0.15-0.4,0.15-0.6l0.35,0.2
	c1.267,0.667,2.1,1.383,2.5,2.15c0.2,0.6,0.417,1.184,0.65,1.75l0.65,1.45c0.033,0.033,0.066,0.083,0.1,0.15
	c0.733,1.5,2.383,3.117,4.95,4.85c0.133,0.1,0.633,0.55,1.5,1.35c0.333,0.3,1.15,0.6,2.45,0.9c0.7,0.2,1.816,0.233,3.35,0.1
	c0.743-0.038,1.593-0.104,2.55-0.2c0.8-0.066,1.517-0.083,2.15-0.05c-0.433,0.467-0.95,0.867-1.55,1.2
	c-2.233,1.233-5.217,1.633-8.95,1.2c-3.8-0.467-6.433-1.65-7.9-3.55c-0.233-0.3-0.55-1.034-0.95-2.2
	c-0.466-1.3-0.767-2.083-0.9-2.35c-1-1.8-1.783-3.033-2.35-3.7c-0.4-0.434-0.816-0.8-1.25-1.1C9.917,14.933,10.717,14.7,11.45,14.4z
	 M192.2,88.15c-0.467-3.934-0.7-6.067-0.7-6.4c0-0.434-0.05-1.217-0.15-2.35c-0.066-1-0.017-1.767,0.15-2.301l0.15-0.35
	c0.053-0.154,0.12-0.305,0.199-0.45l0.275-0.45c0.351-0.486,0.843-0.92,1.475-1.3c0.4-0.2,1.233-0.583,2.5-1.149
	c0.958-0.43,1.684-0.938,2.176-1.525c-0.017,0.026-0.025,0.068-0.025,0.125c-0.233,1.167-0.4,1.983-0.5,2.45
	c-0.2,0.8-0.533,1.5-1,2.1c-0.066,0.101-0.366,0.233-0.9,0.4c-0.533,0.133-0.899,0.316-1.1,0.55c-0.767,0.833-1.233,1.917-1.4,3.25
	c-0.066,1.566-0.166,2.8-0.3,3.7C192.884,85.55,192.6,86.783,192.2,88.15z M141.7,126.6c-2.133,1.233-4.117,1.667-5.95,1.301
	c-7.633-1.567-13.617-3.617-17.95-6.15c-2.233-1.333-3.95-2.75-5.15-4.25c0.267,0.167,0.55,0.333,0.85,0.5l0.3,0.2
	c0.534,0.267,1.083,0.533,1.65,0.8c2.7,1.2,4.25,1.934,4.65,2.2c4.167,2.833,7.633,4.649,10.4,5.45c0.067,0.033,0.133,0.05,0.2,0.05
	c0.3,0.1,0.617,0.184,0.95,0.25c0.033,0,0.1,0.017,0.2,0.05c0.1,0,0.217,0.017,0.35,0.05l8.25-0.149
	C140.85,126.8,141.267,126.7,141.7,126.6z M190.25,97.7c-0.033,0.7-0.134,1.399-0.3,2.1c-0.101,0.467-0.384,1.167-0.851,2.101
	c-0.366,0.833-0.6,1.616-0.699,2.35c-0.034,0.434,0.033,1.434,0.199,3c0.134,1.333,0.084,2.3-0.149,2.9
	c-0.267,0.699-0.75,1.267-1.45,1.699c-0.4,0.267-1.05,0.617-1.95,1.051c-0.733,0.399-1.8,0.949-3.2,1.649
	c-1.2,0.667-2.184,1.417-2.95,2.25c-0.233,0.233-0.467,0.717-0.7,1.45c-0.233,0.667-0.517,1.116-0.85,1.35
	c-1.767,1.334-3.983,2.2-6.65,2.601c-2.267,0.3-4.65,0.267-7.15-0.101c-2.267-0.333-4.85-0.316-7.75,0.051
	c-1.333,0.166-3.167,0.449-5.5,0.85c0.534-0.3,1.05-0.55,1.55-0.75l3.4-1.45c1.767-0.566,4.217-0.916,7.35-1.05
	c4.033-0.2,6.517-0.366,7.45-0.5c2.667-0.4,4.583-1.066,5.75-2c0.767-0.6,2.017-2.167,3.75-4.7c0.267-0.366,1.017-1.316,2.25-2.85
	c0.967-1.2,1.65-2.2,2.05-3c0.367-0.733,0.633-1.934,0.8-3.601c0.133-1.666,0.35-2.783,0.65-3.35c0.667-1.2,1.534-1.884,2.601-2.05
	C188.733,97.7,189.517,97.7,190.25,97.7z M123.1,70.1c0.3,0.167,1.467,0.733,3.5,1.7c1.033,0.5,1.9,0.95,2.6,1.351l0.45,0.3
	c0.369,0.259,0.686,0.509,0.95,0.75c0.267,0.233,0.483,0.467,0.65,0.7s0.3,0.483,0.4,0.75c0.4,0.866,0.617,1.983,0.65,3.35
	c0,0.033,0,0.066,0,0.1l-0.3,4.5c-0.033,0.034-0.05,0.084-0.05,0.15c-0.3,2.967-0.717,5.167-1.25,6.6
	c-0.867,2.233-2.267,3.817-4.2,4.75c-0.767,0.367-3.267,0.801-7.5,1.301c-3,0.333-4.967,1.566-5.9,3.699
	c-0.367,0.801-0.667,1.95-0.9,3.45v0.05c-0.333-0.033-0.667-0.083-1-0.149c-0.9-2.467-0.767-4.483,0.4-6.05
	c0.833-1.134,2.467-2.25,4.9-3.351c1.233-0.533,2.433-1.233,3.6-2.1c0.233-0.2,1.167-0.8,2.8-1.8c0.167-0.101,0.533-0.217,1.1-0.351
	c0.533-0.133,0.883-0.283,1.05-0.45c0.867-0.8,1.333-2.6,1.4-5.399c0.033-2.367-0.15-4.384-0.55-6.05c-0.3-1.267-0.883-2.267-1.75-3
	c-0.667-0.534-1.683-1.067-3.05-1.601c-0.5-0.2-1.417-0.483-2.75-0.85c-1.167-0.367-1.95-0.917-2.35-1.65
	c-0.067-0.133-0.05-0.483,0.05-1.05c0.133-0.533,0.133-0.867,0-1c-0.466-0.6-1.25-1.233-2.35-1.9
	c-1.467-0.867-2.417-1.483-2.85-1.85c-0.9-0.733-1.95-1.65-3.15-2.75c-0.934-0.6-2.067-0.417-3.4,0.55
	c-2.933,2.133-4.95,3.55-6.05,4.25c-2.167,1.333-4.417,2.35-6.75,3.05c-1.467,0.467-4.117,0.551-7.95,0.25
	c-2.566-0.199-4.617-0.183-6.15,0.051c0.167-0.034,0.35-0.084,0.55-0.15l1.85-0.5c2.633-0.733,4.517-1.2,5.65-1.4
	c0.7-0.133,1.9-0.167,3.6-0.1c1.6,0.033,2.8-0.05,3.6-0.25c0.767-0.167,1.817-0.533,3.15-1.1c1.267-0.5,2.25-0.967,2.95-1.4
	l0.1-0.05c0.733-0.434,1.433-0.967,2.1-1.6l0.1-0.15c0.034-0.067,0.083-0.117,0.15-0.15h0.05c0.933-0.9,1.517-1.45,1.75-1.65
	c1.1-1,2.283-1.633,3.55-1.9c0.267-0.067,0.55-0.117,0.85-0.15h0.2c0.333-0.033,0.683-0.05,1.05-0.05l4.2,1.15
	c0.267,0.133,0.533,0.3,0.8,0.5c0.167,0.1,0.333,0.216,0.5,0.35c0.033,0.034,0.067,0.067,0.1,0.1c-0.6-2.566-1.183-4.133-1.75-4.7
	c-0.533-0.5-1.25-0.75-2.15-0.75c-0.032,0-0.066,0-0.1,0c-0.107,0.008-0.224,0.024-0.35,0.05l-1.85,0.05V56.5
	c1.9-0.2,3.5-0.067,4.8,0.4c1.5,0.533,2.883,1.583,4.15,3.15c1,1.4,1.733,2.333,2.2,2.8c0.733,0.767,1.733,1.316,3,1.65
	c0.333,0.067,1.133,0.017,2.4-0.15c1.133-0.167,1.917-0.1,2.35,0.2c0.4,0.267,0.583,0.75,0.55,1.45s0.017,1.1,0.15,1.2
	c0.6,0.566,1.383,1.1,2.35,1.6c-1.633-0.533-2.917-0.75-3.85-0.65c-0.066,0-0.117,0.017-0.15,0.05c-0.033,0-0.067,0-0.1,0
	c-0.066,0-0.133,0.017-0.2,0.05c-1.067,0.167-1.917,0.783-2.55,1.85c-0.267-0.167-0.433-0.266-0.5-0.3
	c-0.314-0.209-0.614-0.426-0.9-0.65c0.275,0.225,0.558,0.442,0.85,0.65L123.1,70.1z M33.9,25.65c0.9,0.1,1.6,0.3,2.1,0.6
	c0.067,0.033,0.117,0.067,0.15,0.1c0.333,0.233,0.684,0.633,1.05,1.2c-0.167-0.066-0.35-0.133-0.55-0.2
	C35.317,26.883,34.4,26.317,33.9,25.65z M62.3,66.55c0.233,0.3,0.467,0.567,0.7,0.8c0.133,0.167,0.283,0.316,0.45,0.45
	c0.5,0.467,1.017,0.883,1.55,1.25c0.033,0.034,0.067,0.067,0.1,0.1c0.267,0.167,0.566,0.35,0.9,0.55c0.2,0.1,0.4,0.2,0.6,0.3
	c2.167,1.033,4.633,1.384,7.4,1.05c0.667-0.066,1.433-0.2,2.3-0.399c-0.233,0.066-0.433,0.133-0.6,0.199
	c-0.534,0.2-1.417,0.767-2.65,1.7c-0.933,0.7-1.917,1.084-2.95,1.15c-1.434,0.1-2.833-0.101-4.2-0.601
	c-0.5-0.166-0.933-0.366-1.3-0.6c-2.667,0.066-4.95-0.767-6.85-2.5c-0.967-0.867-1.783-2.167-2.45-3.9
	c-1.066-2.833-1.65-4.333-1.75-4.5c-0.4-0.767-1.4-2.267-3-4.5c-1.333-1.833-2.2-3.333-2.6-4.5c-0.1-0.267-0.217-1.067-0.35-2.4
	c-0.1-0.967-0.4-1.7-0.9-2.2c-0.4-0.433-1.4-0.8-3-1.1c-1.333-0.267-2.1-0.85-2.3-1.75c-0.267-1.167,0.133-2.25,1.2-3.25
	c1.066-1.033,1.533-2.017,1.4-2.95c-0.133-0.867-0.85-1.8-2.15-2.8c-1.333-1.066-2.1-1.95-2.3-2.65
	c-0.1-0.367,0.017-0.883,0.35-1.55c0.167-0.367,0.283-0.667,0.35-0.9c0.2,0.067,0.4,0.133,0.6,0.2c0.267,0.1,0.8,0.15,1.6,0.15
	l-0.05-0.05c0.267,0.033,0.55,0.05,0.85,0.05c1.1,0.033,1.817,0.283,2.15,0.75c0.667,0.9,0.7,2.467,0.1,4.7
	c-0.056,0.222-0.105,0.438-0.15,0.65c-0.033,0.167-0.067,0.333-0.1,0.5l-0.15,0.45c-0.4,1.667-0.55,2.733-0.45,3.2
	c0.233,1.133,0.85,2.1,1.85,2.9c1.333,0.9,2.4,1.684,3.2,2.35c1.733,1.434,3.1,2.9,4.1,4.4c0.767,1.133,1.65,2.817,2.65,5.05
	c0.433,0.967,0.867,1.867,1.3,2.7l3.45,6.05c0.3,0.5,0.617,0.933,0.95,1.3L62.3,66.55z M110.6,112.1c-0.033-1.3,0.25-2.666,0.85-4.1
	c-0.034,0.333-0.067,0.7-0.1,1.1c-0.067,0.967-0.133,1.634-0.2,2C111.083,111.366,110.9,111.7,110.6,112.1z"/>
<path style="fill-rule:evenodd;clip-rule:evenodd;fill:#6B6557;" d="M349.7,24.35c0.2-0.367,0.517-0.617,0.95-0.75v3.9
	c0,7.733-0.917,11.6-2.75,11.6c-0.801,0-1.384-0.2-1.75-0.6c0.1-1.667,0.5-3.883,1.199-6.65c0.2-0.733,0.784-2.817,1.75-6.25
	C349.267,25.267,349.467,24.85,349.7,24.35z M348.75,25.6c-1.7,6-2.616,10.3-2.75,12.9c-0.833-0.9-0.833-2.85,0-5.85
	C346.634,30.35,347.55,28,348.75,25.6z M337.65,32.55c-0.167,0.4-0.75,0.95-1.75,1.65c-1.034,0.767-2.5,1.133-4.4,1.1
	c-1.066,0-2.7-0.033-4.9-0.1c-0.566,0.033-1.566,0.066-3,0.1c-1.267,0.067-2.25,0.217-2.949,0.45c-0.733,0.267-1.967,0.933-3.7,2
	c-1.566,0.967-2.851,1.567-3.851,1.8c-0.8-4.933,2.25-7.816,9.15-8.65c2.167-0.267,4.967-0.35,8.4-0.25
	c3.699,0.133,5.75,0.184,6.149,0.15l-1,0.55C337.366,31.45,337.983,31.85,337.65,32.55z M273.35,30.95l-1.199-0.25
	c0.533-1.167,1.416-2.167,2.649-3c0.634-0.434,1.601-0.967,2.9-1.6c1.366-0.667,2.316-1.184,2.85-1.55
	c2.167-1.333,4.101-2.2,5.8-2.6c1.467-0.367,3.634-0.55,6.5-0.55l0.5,3.3c0.034,1.367,0.034,2.316,0,2.85
	c-0.033,1.034-0.183,1.917-0.449,2.65c-1.233-0.434-2.483-0.65-3.75-0.65c-1.601-0.033-2.767,0.35-3.5,1.15
	c-0.434,0.466-0.684,1.533-0.75,3.2c-0.034,1.533-0.351,2.483-0.95,2.85c-1.367,0.9-2.767,0.7-4.2-0.6
	c-1.4-1.3-1.917-2.733-1.55-4.3c-0.601-0.2-1.384-0.367-2.351-0.5C275.283,31.25,274.45,31.117,273.35,30.95z M306,20.55h4.55
	c0.167,3.167-0.467,5.184-1.899,6.05c-1.2,0.7-2.567,0.566-4.101-0.4c-1.533-0.967-2.283-2.05-2.25-3.25
	C302.333,21.583,303.566,20.783,306,20.55z M315.65,46.25c2.033-0.1,3.566-0.133,4.6-0.1c1.767,0,3.233,0.25,4.4,0.75
	c0.533,3.167-1.9,4.85-7.301,5.05c-2.833,0.1-6.583-0.167-11.25-0.8c0.7-2.267,1.851-3.783,3.45-4.55c1.267-0.6,3.3-0.9,6.101-0.9
	V46.25z M252.45,16.45l-3.05,3.3c-1.767,0.367-3.034,0.717-3.801,1.05c-1,0.434-2.083,1.184-3.25,2.25
	c-1.133,1.034-2.366,2.817-3.699,5.35c-1.367,2.6-2.467,4.317-3.301,5.15c-0.233-2.066-0.083-4.55,0.45-7.45
	c0.601-3.233,1.467-5.533,2.601-6.9c0.899-1.1,2.933-1.934,6.1-2.5c2.866-0.5,5.333-0.617,7.4-0.35L252.45,16.45z M309,57.95
	c-1.134,0.066-2.316-0.233-3.55-0.9c-0.2-2.1,0.649-2.95,2.55-2.55l4.05,1.65C311.316,57.283,310.3,57.883,309,57.95z M219.25,46.2
	c0.134-1.067,0.417-2.333,0.85-3.8c0.334-1.2,0.767-4.066,1.301-8.6c0.833-5,2.083-7.65,3.75-7.95l3.55-1.7
	c0,6.2-0.167,10.483-0.5,12.85c-0.834,5.4-2.667,9.017-5.5,10.85C220.033,49.65,218.884,49.1,219.25,46.2z M233.2,39.55
	c0.1-0.8,0.467-1.583,1.1-2.35c0.2-0.233,0.867-0.9,2-2l2,1.65C237.833,39.25,236.134,40.15,233.2,39.55z M207.05,40.9
	c2.601-0.5,4.267-0.933,5-1.3l2.5,0.55c-3.6-0.367-7.25,0.667-10.95,3.1c-3.233,2.133-6.05,4.983-8.449,8.55
	c-1.434-4.4,0.383-7.5,5.449-9.3C201.967,42.033,204.116,41.5,207.05,40.9z M203.75,32.8c2.033,0.133,3.45,0.2,4.25,0.2l2,1.1
	c-0.634,0-2.233,0.15-4.8,0.45c-2.033,0.2-3.634,0.2-4.8,0C200.934,33.45,202.05,32.867,203.75,32.8z M156.75,54.1
	c0.533-0.733,1.383-1.833,2.55-3.3c0.934-1.3,1.517-2.45,1.75-3.45c0.267-1.133,0.2-2.533-0.2-4.2c-0.533-2.4-0.817-3.8-0.85-4.2
	c-0.033-0.5-0.033-1.017,0-1.55l-0.75-0.1l-3.8-0.45c0.8-0.967,1.617-1.7,2.45-2.2c2.267-1.467,5.483-1.983,9.65-1.55
	c0.1,0.967-0.133,1.933-0.7,2.9c-0.8,1.4-1.25,2.267-1.35,2.6c-0.4,1.333-0.583,3.033-0.55,5.1c0.1,2.333,0.133,4.066,0.1,5.2
	c-0.133,3.8-0.883,6.184-2.25,7.15c-1.2,0.867-3.65,1.034-7.35,0.5C155.65,55.883,156.083,55.067,156.75,54.1z M185.125,34.775
	c0.133-0.167,0.275-0.325,0.425-0.475v-0.05c0.034-0.067,0.067-0.133,0.1-0.2l0.5-0.6c0.567-0.733,1.25-1.534,2.05-2.4V31
	c0.133-0.133,0.434-0.333,0.899-0.6c0.301-0.167,0.534-0.45,0.7-0.85h5.55c-6.033,1.6-9.35,5.333-9.95,11.2
	c0.2,7.533-0.333,13.35-1.6,17.45c-1.966-1.767-3.083-4.133-3.35-7.1c-0.2-2.367,0.133-4.983,1-7.85V43.2h0.05l0.25-0.85
	c0.167-0.533,0.417-1.467,0.75-2.8c0.333-1.2,0.7-2.1,1.1-2.7L185.125,34.775z M164.7,80c-0.633,0.6-1.2,0.95-1.7,1.05
	c-1.033,0.233-2.9,0.267-5.6,0.101c-3.267-0.167-5.25-0.233-5.95-0.2c-0.267-1.967,0.4-3.217,2-3.75
	c0.233-0.101,1.733-0.3,4.5-0.601c1.4-0.166,3.683-0.55,6.85-1.149c2.934-0.533,5.2-0.884,6.8-1.05l-0.5,3.3
	c-0.467,0.166-1.25,0.35-2.35,0.55c-1.033,0.167-1.817,0.35-2.35,0.55C165.933,78.967,165.367,79.366,164.7,80z M160.85,106.55
	l6.6,0.4h0.1c-1.566,2.267-3.966,3.783-7.2,4.55c-3.033,0.767-5.85,0.684-8.45-0.25c0.2-1.267,0.967-2.167,2.3-2.7
	c1.633-0.399,2.75-0.8,3.35-1.2c0.4-0.233,0.717-0.55,0.95-0.949L160.85,106.55z M140,41.65c1.533,0.067,2.983-0.05,4.35-0.35l3,2.2
	c0.367,1.867-0.283,3.467-1.95,4.8c-2.2,1.267-3.767,2.184-4.7,2.75c-2.467,1.6-4.15,3.317-5.05,5.15
	c-0.433,0.9-1.167,3.35-2.2,7.35c-3.167,0.2-5.333-2-6.5-6.6c-1.067-4.167-0.95-7.7,0.35-10.6c1.167-2.5,2.983-4,5.45-4.5
	C133.317,41.717,135.733,41.65,140,41.65z M148.15,19.6c0.067-0.633,0.25-0.983,0.55-1.05c0.466,0,0.867,0,1.2,0h1.5
	C150.4,19.65,149.317,20,148.15,19.6z M161.45,26.45c0.133,1.267-0.284,2.1-1.25,2.5c-1,0.4-1.917,0.1-2.75-0.9L160,26.4
	C160.867,26.4,161.35,26.417,161.45,26.45z M135.9,34c-0.1-1.333,0.667-2.55,2.3-3.65c1.633-1.067,3-1.283,4.1-0.65l6.1-1.65
	c-1.6,2.467-3.367,4.167-5.3,5.1C141.2,34.05,138.8,34.333,135.9,34z M130.35,97.5l-2.65,5c-1.233-0.4-1.8-1.267-1.7-2.6l0.1-0.65
	c0.066-0.366,0.167-0.7,0.3-1c0.667-1.667,2.383-2.733,5.15-3.2l0.3-0.05c0.633-0.9,1.2-1.65,1.7-2.25
	c1.7-1.866,3.284-2.65,4.75-2.35l-4.05,4.399c-0.333,0-0.867,0.033-1.6,0.101l-0.8,0.1C131.35,95.733,130.85,96.566,130.35,97.5z
	 M64.95,19.25c0.233-0.8,0.617-1.4,1.15-1.8c0.566-0.4,1.217-0.55,1.95-0.45l3.05,1.1c0.167,1.633-0.617,2.45-2.35,2.45
	C67.217,20.55,65.95,20.117,64.95,19.25z M143.85,82.65l1,0.55c-0.267,0.566-0.467,1.583-0.6,3.05c-0.2,1.8-0.367,2.967-0.5,3.5
	c-0.867,0.2-1.65,0.2-2.35,0c-0.066-1.066,0.2-2.283,0.8-3.65C142.533,85.333,143.083,84.184,143.85,82.65z M26.15,18.1
	c0.8-0.867,1.8-1.05,3-0.55h1.55c-0.233,0.333-0.9,1.817-2,4.45c-1.133,1.967-2.133,1.783-3-0.55C25.2,20.117,25.35,19,26.15,18.1z
	 M79.7,25.85c-2.067,1.367-4.767,2.85-8.1,4.45c-2.4,1.733-3.867,4.6-4.4,8.6c-0.8-0.7-1.284-2.483-1.45-5.35
	c-0.2-2.867,0.05-4.85,0.75-5.95c0.933-1.434,2.817-2.35,5.65-2.75c1.434-0.2,3.6-0.25,6.5-0.15L79.7,25.85z"/>
<path style="fill-rule:evenodd;clip-rule:evenodd;fill:#5C574B;" d="M212.55,8.7c2.101-0.267,8.767-1.067,20-2.4
	c1.167-0.133,2.334-0.25,3.5-0.35L218.4,8.05C216.333,8.283,214.384,8.5,212.55,8.7z M7.55,6.4c0.633-0.233,1.3-0.45,2-0.65
	c-0.633,0.2-1.233,0.4-1.8,0.6L7.55,6.4z M12.05,13.15l0.35,0.15c1.1,0.633,1.85,1.35,2.25,2.15c0.167,0.533,0.35,1.066,0.55,1.6
	c-0.233-0.566-0.45-1.15-0.65-1.75C14.15,14.533,13.317,13.817,12.05,13.15z M11.45,14.4c-0.733,0.3-1.534,0.533-2.4,0.7
	c-1.667,0.267-3.6,0.3-5.8,0.1c0.467,0.033,0.917,0.05,1.35,0.05c1.433,0.1,2.767,0.05,4-0.15c0.467-0.4,0.983-0.733,1.55-1
	l0.55,0.55L11.45,14.4z M36,26.25c-0.5-0.3-1.2-0.5-2.1-0.6c-0.3-0.033-0.633-0.05-1-0.05c-0.633-0.033-1.35-0.017-2.15,0.05
	c-0.957,0.096-1.807,0.163-2.55,0.2c-0.034-0.001-0.067-0.001-0.1,0c-2.233-0.333-3.85-1.067-4.85-2.2
	c-0.4-0.467-0.717-1.183-0.95-2.15c-0.233-1.033-0.483-1.75-0.75-2.15c-0.333-0.533-0.966-1.184-1.9-1.95c-1-0.867-1.667-1.5-2-1.9
	l-2.15-2.75c1.6-0.167,2.783-0.3,3.55-0.4c1.367-0.167,2.517-0.4,3.45-0.7c0.533-0.167,1.283-0.5,2.25-1
	c1.4-0.7,2.25-1.117,2.55-1.25c2.1,0.267,3.567,0.434,4.4,0.5c0.167,1.233,0.55,3.167,1.15,5.8c0.4,0.066,1.9-0.034,4.5-0.3
	c2.167-0.233,3.483-0.1,3.95,0.4c0.7,0.667,1.083,1.8,1.15,3.4c0.1,1.566,0.533,2.683,1.3,3.35c0.3,0.267,1.35,0.583,3.15,0.95
	c1.367,0.267,2.15,1.033,2.35,2.3c0.2,0.967,0.167,1.667-0.1,2.1c-0.267,0.5-0.833,0.75-1.7,0.75c-0.267,0.967-0.284,1.833-0.05,2.6
	c4.934,0.133,8.283,0.583,10.05,1.35c3.133,1.3,4.833,4,5.1,8.1c0.167,2.9-0.167,4.867-1,5.9c-0.5,0.633-1.733,1.233-3.7,1.8
	c-0.767-0.566-1.434-1.333-2-2.3c-0.533-1-0.85-2.017-0.95-3.05c-1.267-0.566-2.917-1-4.95-1.3c-0.2-0.533-0.383-1.967-0.55-4.3
	c-0.1-1.6-0.633-2.767-1.6-3.5c-0.566-0.434-1.216-0.717-1.95-0.85c0.233,0.867,0.066,2.333-0.5,4.4
	c0.044-0.211,0.094-0.428,0.15-0.65c0.6-2.233,0.567-3.8-0.1-4.7c-0.333-0.467-1.05-0.717-2.15-0.75c-0.3,0-0.583-0.017-0.85-0.05
	c-0.267-0.4-0.45-1.167-0.55-2.3c-0.1-0.933-0.45-1.65-1.05-2.15C40.3,26.467,38.7,26.25,36,26.25z M66.25,9.9l0.9,0.6
	c1.4,0.867,2.583,1.467,3.55,1.8c1.033,0.367,2.283,0.617,3.75,0.75c0.267,0.4,0.45,0.633,0.55,0.7c1.167,0.633,2.967,0.9,5.4,0.8
	c2.667-0.2,4.5-0.3,5.5-0.3c0.6,0,2.15-0.133,4.65-0.4c2.567-0.233,4.583-0.367,6.05-0.4c0.633,0.333,1.15,0.683,1.55,1.05
	s0.934,1.083,1.6,2.15c0.6,0.967,1.15,1.633,1.65,2c0.767,0.567,1.883,0.917,3.35,1.05c0.7,0.933,1.867,1.85,3.5,2.75
	c1.933,0.933,3.333,1.617,4.2,2.05c0.566,1.5,0.783,3.2,0.65,5.1c-0.133,1.767-0.55,3.483-1.25,5.15l0.6-0.6
	c1.133-1.5,1.833-2.45,2.1-2.85c0.667-1.066,1.117-2.033,1.35-2.9c0,1.267-0.783,2.8-2.35,4.6l-1.1,1.15l-1,1.45l0.4-0.85
	c-0.667,0.6-1.767,1.5-3.3,2.7c-1.5,1.2-2.617,2.133-3.35,2.8c-3.8-2.6-6.583-5.3-8.35-8.1c-0.067-0.066-0.633-1.3-1.7-3.7
	c-0.667-1.5-1.433-2.4-2.3-2.7c-0.367-0.1-1.117,0.133-2.25,0.7c-1.333,0.667-2.133,1.017-2.4,1.05
	c-0.767,0.167-1.934,0.217-3.5,0.15c-1.633-0.066-2.784-0.05-3.45,0.05c0.033,2.6,0.033,4.55,0,5.85c0,2.3-0.35,4.15-1.05,5.55
	c-2.367,4.833-7.017,7.8-13.95,8.9c0.267-1.133,0.417-2.65,0.45-4.55c0.033-1.6-0.017-2.883-0.15-3.85
	c-0.333-2.867-2.1-5.633-5.3-8.3c-2.933-2.433-5.867-3.867-8.8-4.3c0.367-2.267,0.517-3.8,0.45-4.6
	c-0.133-1.367-0.767-2.617-1.9-3.75c-0.233-0.267-1.383-0.867-3.45-1.8c-1.3-0.6-1.883-1.617-1.75-3.05c0.133-1.2,0.7-2.066,1.7-2.6
	c0.367-0.2,1.333-0.483,2.9-0.85c1.934-0.434,4.45-0.684,7.55-0.75C60.783,9.533,63.55,9.633,66.25,9.9z M115.55,25.15
	c-0.333-0.7-0.833-1.4-1.5-2.1c-0.833-0.867-2.833-2.167-6-3.9c-2.167-1.467-3.233-3.066-3.2-4.8c0,1.667,1.066,3.233,3.2,4.7
	c3.167,1.767,5.167,3.083,6,3.95C114.717,23.7,115.217,24.417,115.55,25.15z M115.025,11.475l0.125-0.025
	c3.533-0.8,6.434-1.684,8.7-2.65L124,8.75l-0.1,0.05c4.067,0.1,8.65,0.367,13.75,0.8c2,2.233,2.917,4.483,2.75,6.75
	c1.233,0.333,2.05-0.083,2.45-1.25c0.233-0.7,0.55-1.883,0.95-3.55l0.75-1.25c5.9,0.667,9.3,1.1,10.2,1.3
	c4.267,0.9,7.367,2.417,9.3,4.55c0.7,0.767,1.367,1.867,2,3.3c0.667,1.667,1.167,2.883,1.5,3.65c0.934,2.433,1.75,4.267,2.45,5.5
	c0.2,0.4,0.65,0.75,1.35,1.05c0.633,0.267,1.033,0.633,1.2,1.1c0.1,0.267,0.184,0.683,0.25,1.25l-0.55,1.55
	c-0.9,2.934-1.017,6.934-0.35,12c0.867,6.633,1.283,10.717,1.25,12.25c0,1.233-0.167,2.383-0.5,3.45
	c-1.367,1.3-4.017,1.983-7.95,2.05c-5.434,0.133-8.2,0.2-8.3,0.2c3.434,0.967,6.667,1.617,9.7,1.95c-0.7,0.066-1.833,0.1-3.4,0.1
	c2.367,0.633,4.2,0.983,5.5,1.05c1.6,0.033,2.867-0.333,3.8-1.1c1.5-0.2,2.667-0.583,3.5-1.15c2.5-1.7,3.817-4.934,3.95-9.7
	c0.1-2.633,0.033-6.333-0.2-11.1c0.767,0.1,1.5,0,2.2-0.3c-0.867,2.867-1.2,5.483-1,7.85c0.267,2.967,1.383,5.333,3.35,7.1
	c1.267-4.1,1.8-9.917,1.6-17.45c0.6-5.867,3.917-9.6,9.95-11.2h-5.55c-0.166,0.4-0.399,0.684-0.7,0.85
	c-0.466,0.267-0.767,0.467-0.899,0.6c-0.066-0.733-0.217-1.933-0.45-3.6c-0.167-1.433-0.066-2.5,0.3-3.2c0.4-0.767,2-1.7,4.8-2.8
	c2.467-0.967,4.317-1.533,5.551-1.7c1.433-0.2,3.05-0.034,4.85,0.5c2.1,0.667,3.517,1.633,4.25,2.9c0.2,0.333,0.2,1,0,2
	c-0.2,0.967-0.217,1.617-0.05,1.95c0.533,1,2.149,2.1,4.85,3.3c2.601,1.167,4.167,2.467,4.7,3.9c0.3,0.867,0.4,2.033,0.3,3.5
	c-0.133,1.4-0.399,2.567-0.8,3.5c-0.6,1.367-1.684,2.8-3.25,4.3c-1.233,1.167-1.983,2.733-2.25,4.7
	c-0.366,3.167-0.667,4.95-0.9,5.35c-0.566,1.066-2.116,1.867-4.649,2.4c-1.601,0.3-3.033,0.817-4.3,1.55
	c-1.434,0.9-2.65,1.617-3.65,2.15c-1.167,0.6-2.467,1.017-3.9,1.25c-0.633,0.133-2.083,0.3-4.35,0.5
	c0.467,0.566,1.05,1.05,1.75,1.45c0.767,0.333,1.3,0.6,1.6,0.8c-3.533,4.967-6.333,7.85-8.399,8.649
	c-1.667,0.634-3.867,0.667-6.6,0.101c-2.934-0.601-4.917-1.65-5.95-3.15l1.3,2.9l-1.85-0.45c0.667,0.566,1.5,1.134,2.5,1.7
	c1,1.566,2.2,2.666,3.6,3.3c1.167,0.5,2.733,0.75,4.7,0.75c3.1-0.033,4.7-0.05,4.8-0.05c0.167,1.2-0.083,2.934-0.75,5.2
	c-0.633,2.233-0.833,3.966-0.6,5.199c0.133,0.601,0.433,1.267,0.9,2c0.5,0.733,0.783,1.284,0.85,1.65
	c-1.066,0.467-2.116,1.217-3.149,2.25l-2.7-0.35c0.1,1.033-0.4,2.333-1.5,3.899c-1,1.367-2.017,2.4-3.05,3.101
	c-1.534,1.066-3.55,1.566-6.05,1.5c-2.433-0.067-4.517-0.65-6.25-1.75c0.067-0.567,0.117-1.4,0.15-2.5
	c0.167-2.467-0.15-4.067-0.95-4.801c-0.667-0.633-2.367-1.199-5.1-1.699l4.05-2.75c-2.466-0.134-3.85,0.633-4.15,2.3
	c0.033,2.366-0.083,4.166-0.35,5.399c-0.433,2.134-1.667,3.634-3.7,4.5c-3.033,1.267-4.85,2.167-5.45,2.7
	c0.667,0.867,1.833,1.483,3.5,1.851c1.633,0.366,3.35,0.433,5.15,0.199c-0.6,0.4-1.716,0.801-3.35,1.2
	c-1.333,0.533-2.1,1.434-2.3,2.7c2.6,0.934,5.417,1.017,8.45,0.25c3.233-0.767,5.633-2.283,7.2-4.55c0.567,0.267,1.35,0.5,2.35,0.7
	c1.3,0.233,2.367,0.416,3.2,0.55c0.033,2.333-1.017,3.916-3.15,4.75l-1.85,0.149c-0.533,0.134-1.283,0.4-2.25,0.801
	c-1.033,0.433-1.783,0.716-2.25,0.85c-0.667,0.2-1.467,0.4-2.4,0.6c-0.567,0.101-1.383,0.233-2.45,0.4
	c-0.8,0.134-1.683,0.333-2.65,0.6l-1.55,0.5c-0.966,0.367-2.15,1.051-3.55,2.051c-0.8,0.533-1.983,1.35-3.55,2.449
	c-1.9,0.334-3.867,0.45-5.9,0.351c-2.1-0.101-3.7-0.417-4.8-0.95c0.733-0.5,2.117-0.65,4.15-0.45c2.133,0.233,3.617,0.167,4.45-0.2
	c1.8-0.8,3.017-2.517,3.65-5.149c0.467-1.934,0.583-4.167,0.35-6.7c-1.3,3.167-4.133,5.767-8.5,7.8
	c-4.733,2.2-8.117,1.75-10.15-1.35c-1.1,1.366-2.434,2.416-4,3.149c-1.7,0.767-3.367,1.017-5,0.75c-1-0.166-2.383-0.55-4.15-1.149
	c-2.066-0.667-3.25-1.217-3.55-1.65c-0.433-0.633-0.683-2.333-0.75-5.1c-0.1-2.667-0.017-4.517,0.25-5.55
	c0.433-1.767,1.183-3.034,2.25-3.801c1.6-0.066,2.783-0.133,3.55-0.199l0.25,0.649l0.7-0.75c2.333-0.233,4.25-0.616,5.75-1.149
	c-0.1,1.333,0.467,2.199,1.7,2.6l2.65-5c0.7-0.566,1.25-1.116,1.65-1.65l0.65-0.949c0.733-0.067,1.267-0.101,1.6-0.101l4.05-4.399
	c-1.466-0.301-3.05,0.483-4.75,2.35c0.4-1.533,0.35-3.184-0.15-4.95c1.767-0.566,3.483-1.85,5.15-3.85c-1.3-0.2-2.667-0.334-4.1-0.4
	c-0.867-0.2-1.483-1.033-1.85-2.5c-0.1-0.467-0.117-1.166-0.05-2.1c0.067-0.967,0.083-1.617,0.05-1.95
	c0.267-0.833,0.633-1.366,1.1-1.6c0.8-0.334,2.667,0.166,5.6,1.5c2.7,1.233,4.717,1.283,6.05,0.149c1.2-1,1.7-2.6,1.5-4.8
	c-0.233-2.9-0.233-4.717,0-5.45c0.3-0.933,0.767-1.883,1.4-2.85c0.833-1.2,1.333-1.967,1.5-2.3l0.25,0.1c1.5,0.4,2.417-0.267,2.75-2
	c0.467-2.467,0.867-3.867,1.2-4.2c0.633-0.633,1.566-1.117,2.8-1.45c-0.667,0.967-1.1,1.783-1.3,2.45c3.7,0.534,6.15,0.367,7.35-0.5
	c1.367-0.966,2.117-3.35,2.25-7.15c0.034-1.133,0-2.867-0.1-5.2c-0.034-2.067,0.15-3.767,0.55-5.1c0.1-0.333,0.55-1.2,1.35-2.6
	c0.566-0.967,0.8-1.933,0.7-2.9c-4.167-0.434-7.383,0.083-9.65,1.55c-1.267-2.3-2.583-4.133-3.95-5.5l-1-2.2
	c-1.133,0.367-1.8,1.05-2,2.05c-0.067,1.267-0.25,2.233-0.55,2.9c-0.066,0.2-0.05,0.7,0.05,1.5c0.133,0.7,0.15,1.133,0.05,1.3
	c-0.3,0.433-0.933,0.716-1.9,0.85c-1.067,0.167-1.767,0.4-2.1,0.7c-0.367,0.367-0.7,1.133-1,2.3c-0.3,1.034-0.75,1.717-1.35,2.05
	c-0.533,0.3-1.45,0.417-2.75,0.35c-1.333-0.034-2.25,0.083-2.75,0.35c0.367,0.167,0.817,0.284,1.35,0.35
	c-4.267,0-6.683,0.067-7.25,0.2c-2.467,0.5-4.283,2-5.45,4.5c-1.3,2.9-1.417,6.433-0.35,10.6c1.167,4.6,3.333,6.8,6.5,6.6
	c1.033-4,1.767-6.45,2.2-7.35c0.9-1.833,2.583-3.55,5.05-5.15c0.933-0.566,2.5-1.483,4.7-2.75c1.667-1.333,2.317-2.933,1.95-4.8
	l-3-2.2l0.3,0.2c2.167-0.133,3.55,0.333,4.15,1.4c0.233,0.4,0.383,1.517,0.45,3.35c0.067,2.233,0.1,3.367,0.1,3.4
	c0.2,1.4,0.267,2.517,0.2,3.35c-0.033,0.733-0.216,1.983-0.55,3.75v0.05c-0.4,0.667-0.783,1.2-1.15,1.6s-1.1,1.033-2.2,1.9
	c-0.867,0.633-1.467,1.284-1.8,1.95c-0.267,0.567-0.417,1.233-0.45,2c0,0.933-0.017,1.617-0.05,2.05c-1.8,2.434-4.467,3.65-8,3.65
	c-0.733,0.033-1.617-0.083-2.65-0.35c-0.6-0.167-1.5-0.434-2.7-0.8c-0.967-0.5-1.75-1.033-2.35-1.6c-0.133-0.1-0.183-0.5-0.15-1.2
	s-0.15-1.183-0.55-1.45c-0.434-0.3-1.217-0.367-2.35-0.2c-1.267,0.167-2.067,0.217-2.4,0.15c-1.267-0.333-2.267-0.883-3-1.65
	c-0.467-0.467-1.2-1.4-2.2-2.8c-1.267-1.566-2.65-2.617-4.15-3.15c-1.3-0.467-2.9-0.6-4.8-0.4c0.633-3.633,1.717-6.683,3.25-9.15
	c1.133-1.767,3.284-4.483,6.45-8.15c2.667-3.467,4.083-6.684,4.25-9.65c0.267-4.6-4.067-8.3-13-11.1
	c-0.667-2.767,0.967-4.983,4.9-6.65C114.263,11.679,114.638,11.571,115.025,11.475z M185.55,34.25v0.05
	c-0.15,0.15-0.292,0.309-0.425,0.475C185.258,34.601,185.399,34.426,185.55,34.25z M306,20.55c-2.434,0.233-3.667,1.034-3.7,2.4
	c-0.033,1.2,0.717,2.283,2.25,3.25c1.533,0.966,2.9,1.1,4.101,0.4c1.433-0.867,2.066-2.883,1.899-6.05H306z M273.35,30.95
	c1.101,0.167,1.934,0.3,2.5,0.4c0.967,0.133,1.75,0.3,2.351,0.5c-0.367,1.566,0.149,3,1.55,4.3c1.434,1.3,2.833,1.5,4.2,0.6
	c0.6-0.367,0.916-1.317,0.95-2.85c0.066-1.667,0.316-2.733,0.75-3.2c0.733-0.8,1.899-1.184,3.5-1.15c1.267,0,2.517,0.217,3.75,0.65
	c0.267-0.733,0.416-1.617,0.449-2.65c0.034-0.533,0.034-1.483,0-2.85l-0.5-3.3c-2.866,0-5.033,0.184-6.5,0.55
	c-1.699,0.4-3.633,1.267-5.8,2.6c-0.533,0.367-1.483,0.883-2.85,1.55c-1.3,0.633-2.267,1.167-2.9,1.6c0.733-1.467,1.967-3.6,3.7-6.4
	c1-0.533,2.45-1.267,4.35-2.2c1.634-0.8,2.817-1.517,3.551-2.15c0.5-0.4,1.233-1.217,2.199-2.45c0.9-1.167,1.7-2,2.4-2.5
	c2.9-2,9.233-2.3,19-0.9c-0.5,2.167-0.1,3.483,1.2,3.95c0.399,0.167,1.95,0.267,4.649,0.3c2.101-0.167,3.784-0.283,5.051-0.35
	c2.333-0.133,3.933,0.133,4.8,0.8c0.666,0.534,1.45,1.8,2.35,3.8c0.967,2.066,1.767,3.417,2.4,4.05c0.833,0.833,2.866,1.934,6.1,3.3
	c2.467,1.033,3.9,2.45,4.3,4.25l0.2,1.35l-0.2,0.95c-0.233,0.8-0.383,1.267-0.449,1.4c-0.367,0.434-0.917,0.833-1.65,1.2
	c-0.366,0.167-1.184,0.467-2.45,0.9c0.134,0.967-0.184,1.817-0.95,2.55c-1,0.733-1.733,1.317-2.199,1.75
	c-0.233,0.233-0.483,0.7-0.75,1.4c-0.267,0.7-0.5,1.117-0.7,1.25c-1.066,0.767-2.7,1.2-4.9,1.3c-1.566,0.1-3.649,0.017-6.25-0.25
	c4.9,1.533,8.467,2.433,10.7,2.7c3.8,0.4,6.65-1,8.55-4.2c2.334,2.067,2.566,4.083,0.7,6.05c-1.434,1.534-3.967,2.934-7.6,4.2
	c-0.267,0-0.534,0.017-0.801,0.05c-3.399,0.233-6.267,0.833-8.6,1.8c-4-0.333-6.033-0.5-6.1-0.5c-2.367,0-3.967,0.483-4.801,1.45
	c-0.5,0.633-0.75,2.1-0.75,4.4c0.134,2.6,0.184,4.316,0.15,5.15l-1.05,0.6c-1.934,0.167-3.533,0.117-4.8-0.15
	c-0.233-0.066-0.5-0.133-0.801-0.2c-1.533-0.5-2.666-1.35-3.399-2.55c-0.934-1.466-1.084-3.2-0.45-5.2
	c0.967-3.167,1.467-4.934,1.5-5.3c0.033-0.5-0.134-1.05-0.5-1.65c-0.4-0.6-0.6-1.1-0.6-1.5c0-0.367,0.183-1.017,0.55-1.95
	c0.366-1.067,0.583-1.767,0.649-2.1c0.767-4.4,0.7-8.684-0.199-12.85c-1.034-4.767-3.017-8.367-5.95-10.8
	c0.333,5.033,0.416,9.05,0.25,12.05c-0.267,5.6-1.783,8.917-4.55,9.95c-1.301,0.5-2.417,0.167-3.351-1
	c-1.233-1.534-2.066-2.383-2.5-2.55c-0.3-0.1-0.583-0.15-0.85-0.15l-0.15-0.55l-0.6,0.55c-0.167,0.033-0.584,0.133-1.25,0.3
	c-0.5,0.133-0.934,0.217-1.3,0.25c-2.101,0.034-3.567-0.2-4.4-0.7c-0.1-0.133-0.316-0.483-0.65-1.05c-0.3-0.5-0.6-0.9-0.899-1.2
	c-0.066-0.167-0.434-1.75-1.101-4.75c-0.767-0.2-1.85-0.05-3.25,0.45C272.583,33.05,272.917,32.017,273.35,30.95z M356.6,15.15v1.25
	l1.25,0.05c0.467,0.667,0.834,1.5,1.101,2.5c0.434,1.7,0.333,2.9-0.3,3.6c-0.967,0.667-1.667,1.383-2.101,2.15
	c-0.666,1.233-0.967,2.117-0.899,2.65c0.267,0.633,0.433,1.367,0.5,2.2c0.166,2.133,0,4.083-0.5,5.85
	c-0.467,1.8-1.351,3.733-2.65,5.8c0.866,0.133,1.517,0.183,1.95,0.15v1.35c-1.967,0.466-3.417,0.733-4.351,0.8
	c-0.833,0.067-1.683,0.183-2.55,0.35c-0.533-0.067-1.1-0.7-1.7-1.9c-0.333-0.767-0.449-1.917-0.35-3.45
	c0.134-2.6,1.05-6.9,2.75-12.9l0.35-1.35c0.301-1,0.784-2.85,1.45-5.55c0.767-2.233,1.767-3.534,3-3.9
	C354.717,14.467,355.733,14.583,356.6,15.15z M357.45,46.25c-0.033,0.067-0.066,0.117-0.101,0.15c-0.1,0.167-0.25,0.35-0.449,0.55
	l0.35-0.45C357.316,46.4,357.384,46.317,357.45,46.25z M364.3,30.45c0.099-0.168,0.198-0.334,0.3-0.5
	c0.046-0.061,0.087-0.119,0.125-0.175C364.593,29.998,364.451,30.223,364.3,30.45z M349.7,24.35c-0.233,0.5-0.434,0.917-0.601,1.25
	c-0.966,3.433-1.55,5.517-1.75,6.25c-0.699,2.767-1.1,4.983-1.199,6.65c0.366,0.4,0.949,0.6,1.75,0.6c1.833,0,2.75-3.867,2.75-11.6
	v-3.9C350.217,23.733,349.9,23.983,349.7,24.35z M337.65,32.55c0.333-0.7-0.284-1.1-1.851-1.2l1-0.55
	c-0.399,0.034-2.45-0.017-6.149-0.15c-3.434-0.1-6.233-0.017-8.4,0.25c-6.9,0.833-9.95,3.717-9.15,8.65
	c1-0.233,2.284-0.833,3.851-1.8c1.733-1.067,2.967-1.733,3.7-2c0.699-0.233,1.683-0.383,2.949-0.45c1.434-0.033,2.434-0.066,3-0.1
	c2.2,0.066,3.834,0.1,4.9,0.1c1.9,0.034,3.366-0.333,4.4-1.1C336.9,33.5,337.483,32.95,337.65,32.55z M315.65,46.25V45.7
	c-2.801,0-4.834,0.3-6.101,0.9c-1.6,0.767-2.75,2.283-3.45,4.55c4.667,0.633,8.417,0.9,11.25,0.8c5.4-0.2,7.834-1.883,7.301-5.05
	c-1.167-0.5-2.634-0.75-4.4-0.75C319.217,46.117,317.684,46.15,315.65,46.25z M320.55,45c-2-0.433-3.767-0.567-5.3-0.4
	C316.05,44.6,317.816,44.733,320.55,45z M252.45,16.45l-0.4,0.45l0.4,1.75c0.166,0.633,0.533,1.65,1.1,3.05
	c0.566,1.333,0.917,2.35,1.05,3.05c0.4,1.767,0.217,3.283-0.55,4.55c-1.133,1.4-1.967,2.633-2.5,3.7c-0.166,0.3-0.166,0.867,0,1.7
	c0.101,0.833,0.084,1.367-0.05,1.6c-0.667,1.034-1.934,1.583-3.8,1.65c-2.033,0.066-3.316,0.383-3.851,0.95
	c-0.767,0.8-1.133,2.133-1.1,4c0.033,2.833,0.033,4.367,0,4.6c-0.3,1.867-1.267,4.417-2.9,7.65c-0.899,1.767-1.933,3.05-3.1,3.85
	c-1.566,0.8-2.917,1.517-4.05,2.15c-0.467-1.967-1.033-5.7-1.7-11.2c-0.566-4.767-1.3-8.55-2.2-11.35c-0.3,1.066-1.8,4.283-4.5,9.65
	c-2.033,4.033-2.899,7.383-2.6,10.05c0.2-0.033,0.6,0,1.2,0.1c0.566,0.1,0.966,0.117,1.199,0.05c0.067,1.767,0.067,3.566,0,5.4
	c-1.033,0.233-2.233-0.033-3.6-0.8c-1.434-0.8-2.55-1.15-3.35-1.05l-0.051,0.05c-0.366-1.6-0.533-2.733-0.5-3.4l0.051-1.6
	c0.133-1.433,0.483-3.167,1.05-5.2c0.333-1.133,0.8-2.817,1.399-5.05l0.15-0.6c-0.366,2.9,0.783,3.45,3.45,1.65
	c2.833-1.833,4.666-5.45,5.5-10.85c0.333-2.367,0.5-6.65,0.5-12.85l-3.55,1.7c-1.667,0.3-2.917,2.95-3.75,7.95
	c-0.7-1.133-2.301-2.2-4.801-3.2c-2.399-0.934-3.899-2.067-4.5-3.4c-1.333-2.9-0.433-4.367,2.7-4.4c3.8,0.567,6.101,0.8,6.9,0.7
	c1.967-0.2,5.017-2.05,9.149-5.55c1.434,0.3,3.551-0.184,6.351-1.45c3.133-1.433,5.25-2.167,6.35-2.2c0.566-0.033,1.233,0.034,2,0.2
	c0.934,0.2,1.584,0.317,1.95,0.35c1.9-0.067,3.033-0.067,3.4,0c0.433,0.033,0.767,0.533,1,1.5c-2.067-0.267-4.534-0.15-7.4,0.35
	c-3.167,0.566-5.2,1.4-6.1,2.5c-1.134,1.367-2,3.667-2.601,6.9c-0.533,2.9-0.684,5.383-0.45,7.45c0.834-0.833,1.934-2.55,3.301-5.15
	c1.333-2.533,2.566-4.316,3.699-5.35c1.167-1.066,2.25-1.816,3.25-2.25c0.767-0.333,2.034-0.683,3.801-1.05L252.45,16.45z
	 M240.15,61.05c-0.601,0.267-1.184,0.567-1.75,0.9c0.199-0.133,0.416-0.267,0.649-0.4C239.417,61.35,239.783,61.183,240.15,61.05z
	 M243.65,60c0.6-0.067,1.399,0.033,2.399,0.3c1.367,0.333,2.517,0.567,3.45,0.7c-1.467-0.167-2.95-0.467-4.45-0.9
	c-0.833-0.167-1.8-0.083-2.899,0.25C242.717,60.15,243.217,60.033,243.65,60z M263,42.475c-0.605,0.394-1.197,0.835-1.775,1.325
	c0.275-0.242,0.551-0.475,0.825-0.7C262.364,42.878,262.681,42.67,263,42.475z M270.15,40.15l0.35-0.05l1.1,0.05
	c0.834,0.1,1.667,0.317,2.5,0.65C272.866,40.333,271.55,40.117,270.15,40.15z M280.675,45.75c-1.188-1.009-2.529-2.209-4.024-3.6
	c0.267,0.2,0.533,0.4,0.8,0.6C278.65,43.9,279.725,44.9,280.675,45.75z M250.9,58.7c1.066-1.833,2.416-4.217,4.05-7.15
	c0.767-1.233,1.517-2.35,2.25-3.35C254.566,52.633,252.467,56.133,250.9,58.7z M293.85,56.25c-0.3-1.3-0.633-2.233-1-2.8
	c0.4,0.533,0.717,1.35,0.95,2.45C293.833,56,293.85,56.117,293.85,56.25z M309,57.95c1.3-0.067,2.316-0.667,3.05-1.8L308,54.5
	c-1.9-0.4-2.75,0.45-2.55,2.55C306.684,57.717,307.866,58.017,309,57.95z M203.75,32.8c-1.7,0.067-2.816,0.65-3.35,1.75
	c1.166,0.2,2.767,0.2,4.8,0c2.566-0.3,4.166-0.45,4.8-0.45l-2-1.1C207.2,33,205.783,32.933,203.75,32.8z M207.05,40.9
	c-2.934,0.6-5.083,1.133-6.45,1.6c-5.066,1.8-6.883,4.9-5.449,9.3c2.399-3.566,5.216-6.417,8.449-8.55
	c3.7-2.433,7.351-3.467,10.95-3.1l-2.5-0.55C211.316,39.967,209.65,40.4,207.05,40.9z M233.2,39.55c2.934,0.6,4.633-0.3,5.1-2.7
	l-2-1.65c-1.133,1.1-1.8,1.767-2,2C233.667,37.967,233.3,38.75,233.2,39.55z M159.25,37.3l0.75,0.1c-0.033,0.533-0.033,1.05,0,1.55
	L159.25,37.3z M204.2,64.5c-2-0.033-3.233,0.433-3.7,1.4c-0.134,0.9-0.316,1.75-0.55,2.55c-0.238,0.775-0.53,1.5-0.875,2.175
	c0.267-0.563,0.458-1.121,0.575-1.675l0.149-0.55c0.134-0.5,0.3-1.183,0.5-2.05c0.233-0.667,0.566-1.133,1-1.4
	C201.9,64.583,202.866,64.433,204.2,64.5z M216.7,67.75c0.233,0.033,0.467,0.067,0.7,0.1c0.199,0.033,0.399,0.066,0.6,0.1
	C217.55,67.886,217.116,67.819,216.7,67.75z M213.35,67.05c-0.566-0.167-1.6-0.583-3.1-1.25c-0.102-0.051-0.202-0.101-0.3-0.15
	c1.6,0.7,2.5,1.083,2.7,1.15L213.35,67.05z M192.125,75.85c0.295-0.441,0.687-0.824,1.175-1.149c0.033-0.033,0.134-0.084,0.3-0.15
	C192.968,74.93,192.476,75.363,192.125,75.85z M164.7,80c0.667-0.634,1.233-1.033,1.7-1.2c0.533-0.2,1.317-0.383,2.35-0.55
	c1.1-0.2,1.883-0.384,2.35-0.55l0.5-3.3c-1.6,0.166-3.867,0.517-6.8,1.05c-3.167,0.6-5.45,0.983-6.85,1.149
	c-2.767,0.301-4.267,0.5-4.5,0.601c-1.6,0.533-2.267,1.783-2,3.75c0.7-0.033,2.683,0.033,5.95,0.2c2.7,0.166,4.567,0.133,5.6-0.101
	C163.5,80.95,164.067,80.6,164.7,80z M167.45,106.95l-6.6-0.4c1.4-0.6,2.35-1.35,2.85-2.25c0.066-0.133,0.216-0.45,0.45-0.95
	C165.083,105.15,166.183,106.35,167.45,106.95z M148.15,19.6c1.167,0.4,2.25,0.05,3.25-1.05h-1.5c-0.333,0-0.733,0-1.2,0
	C148.4,18.617,148.217,18.967,148.15,19.6z M132,83.6l-0.1,0.9c-0.2,1.667-0.383,2.9-0.55,3.7c-0.167,0.767-0.383,1.483-0.65,2.149
	c0.533-1.433,0.95-3.633,1.25-6.6C131.95,83.684,131.967,83.634,132,83.6z M135.9,34c2.9,0.333,5.3,0.05,7.2-0.85
	c1.933-0.933,3.7-2.633,5.3-5.1l-6.1,1.65c-1.1-0.633-2.466-0.417-4.1,0.65C136.567,31.45,135.8,32.667,135.9,34z M161.45,26.45
	c-0.1-0.034-0.583-0.05-1.45-0.05l-2.55,1.65c0.833,1,1.75,1.3,2.75,0.9C161.167,28.55,161.583,27.717,161.45,26.45z M129.65,73.45
	c0.184,0.121,0.35,0.237,0.5,0.35c0.167,0.134,0.317,0.267,0.45,0.4C130.335,73.959,130.019,73.709,129.65,73.45z M60.65,50.4
	c2.533,0.167,4.184-0.1,4.95-0.8l0.05-0.1c2.967,0.4,6.033,0.517,9.2,0.35c3.333-0.167,6.1-0.617,8.3-1.35
	c2.1-0.7,3.767-2.05,5-4.05c0.7-1.133,1.617-3.284,2.75-6.45c0.4-0.067,0.967-0.033,1.7,0.1c0.767,0.133,1.333,0.3,1.7,0.5
	c-0.2,1.333,0.167,3.117,1.1,5.35c3.233-0.633,5.717-1.034,7.45-1.2c-1.333,1.733-2.15,3.483-2.45,5.25
	c-0.066,0.367-0.033,1.317,0.1,2.85c0.133,1.3,0.067,2.217-0.2,2.75c-0.6,1.066-1.733,1.65-3.4,1.75
	c-1.967,0.133-3.267,0.45-3.9,0.95c-0.5,0.4-1.033,1.367-1.6,2.9c-0.433,1.133-1.3,1.8-2.6,2c-1.8,0.267-3.017-0.817-3.65-3.25
	c-0.733-2.8-1.383-4.3-1.95-4.5c-1.333-0.467-2.333,0.05-3,1.55c-0.6,1.933-1.067,3.267-1.4,4c-1,2.2-1.8,3.733-2.4,4.6
	c-1.033,1.467-2.3,2.483-3.8,3.05c-0.733,0.3-1.7,0.483-2.9,0.55c-0.667,0.033-1.65,0.033-2.95,0H65.5
	c-0.933-2.167-2.433-5.3-4.5-9.4c-0.1-0.2-0.083-0.633,0.05-1.3c0.1-0.667,0.067-1.1-0.1-1.3c-0.333-0.434-1.1-0.8-2.3-1.1
	c-1.5-0.367-2.383-0.633-2.65-0.8c-0.167-0.333-0.183-0.667-0.05-1C57.683,52.1,59.25,51.467,60.65,50.4z M62.3,66.55l1.15,1.25
	c-0.167-0.133-0.317-0.283-0.45-0.45C62.767,67.117,62.533,66.85,62.3,66.55z M101.2,63.55c-0.067,0.034-0.117,0.083-0.15,0.15
	l0.05-0.15H101.2z M106.55,60c-1.267,0.267-2.45,0.9-3.55,1.9l0.05-0.1c0.7-0.6,1.383-1.05,2.05-1.35
	C105.533,60.25,106.017,60.1,106.55,60z M156.95,69.4l0.5-1.1c-3,1.267-4.7,2.45-5.1,3.55c-0.333,0.934,0.15,1.551,1.45,1.851
	c1.3,0.3,2.367,0.1,3.2-0.601C157.933,72.3,157.917,71.066,156.95,69.4z M143.85,82.65c-0.767,1.533-1.317,2.683-1.65,3.449
	c-0.6,1.367-0.867,2.584-0.8,3.65c0.7,0.2,1.483,0.2,2.35,0c0.133-0.533,0.3-1.7,0.5-3.5c0.133-1.467,0.333-2.483,0.6-3.05
	L143.85,82.65z M64.95,19.25c1,0.867,2.267,1.3,3.8,1.3c1.733,0,2.517-0.816,2.35-2.45L68.05,17c-0.733-0.1-1.383,0.05-1.95,0.45
	C65.567,17.85,65.183,18.45,64.95,19.25z M61.8,48.5l-0.3,0.2l-0.55-0.15C61.317,48.55,61.6,48.533,61.8,48.5z M79.7,25.85
	l-1.05-1.15c-2.9-0.1-5.066-0.05-6.5,0.15c-2.833,0.4-4.717,1.316-5.65,2.75c-0.7,1.1-0.95,3.083-0.75,5.95
	c0.167,2.867,0.65,4.65,1.45,5.35c0.533-4,2-6.867,4.4-8.6C74.933,28.7,77.633,27.217,79.7,25.85z M26.15,18.1
	c-0.8,0.9-0.95,2.017-0.45,3.35c0.867,2.333,1.867,2.517,3,0.55c1.1-2.633,1.767-4.117,2-4.45h-1.55
	C27.95,17.05,26.95,17.233,26.15,18.1z"/>
<path style="fill-rule:evenodd;clip-rule:evenodd;fill:#49453B;" d="M60.65,50.4c0.567-0.433,1.067-0.933,1.5-1.5l-0.65-0.2l0.3-0.2
	l0.7-0.05c0.433-0.667,0.75-1.35,0.95-2.05c-0.5,0.967-1.05,1.667-1.65,2.1c-0.2,0.033-0.483,0.05-0.85,0.05l0.55,0.15
	c-1.167,0.7-2.383,0.6-3.65-0.3c1.967-0.566,3.2-1.167,3.7-1.8c0.833-1.033,1.167-3,1-5.9c-0.267-4.1-1.966-6.8-5.1-8.1
	c-1.767-0.767-5.117-1.217-10.05-1.35c-0.233-0.767-0.217-1.633,0.05-2.6c0.867,0,1.433-0.25,1.7-0.75
	c0.267-0.433,0.3-1.133,0.1-2.1c-0.2-1.267-0.983-2.033-2.35-2.3c-1.8-0.367-2.85-0.683-3.15-0.95c-0.767-0.667-1.2-1.783-1.3-3.35
	c-0.067-1.6-0.45-2.733-1.15-3.4c-0.466-0.5-1.783-0.633-3.95-0.4c-2.6,0.267-4.1,0.367-4.5,0.3c-0.6-2.633-0.983-4.567-1.15-5.8
	c-0.833-0.066-2.3-0.233-4.4-0.5c2.733-1.167,4.867-1.417,6.4-0.75c0.733,0.333,1.767,1.267,3.1,2.8c1.233,1.466,2.417,2.4,3.55,2.8
	c0.1-0.633,0.25-1.233,0.45-1.8l0.4,0.05l0.15-1.65c0.7-1.633,1.733-2.75,3.1-3.35c1.3-0.567,3.117-0.717,5.45-0.45
	c0.867,0.1,3.1,0.217,6.7,0.35c2.8,0.133,4.983,0.383,6.55,0.75c0.8,0.2,1.417,0.45,1.85,0.75c0.467,0.4,0.883,0.733,1.25,1
	c-2.7-0.267-5.467-0.367-8.3-0.3c-3.1,0.066-5.617,0.316-7.55,0.75c-1.566,0.367-2.533,0.65-2.9,0.85c-1,0.533-1.567,1.4-1.7,2.6
	c-0.133,1.434,0.45,2.45,1.75,3.05c2.067,0.933,3.217,1.533,3.45,1.8c1.133,1.133,1.767,2.383,1.9,3.75
	c0.067,0.8-0.083,2.333-0.45,4.6c2.933,0.433,5.867,1.867,8.8,4.3c3.2,2.667,4.967,5.434,5.3,8.3c0.133,0.967,0.184,2.25,0.15,3.85
	c-0.034,1.9-0.184,3.417-0.45,4.55c6.933-1.1,11.583-4.067,13.95-8.9c0.7-1.4,1.05-3.25,1.05-5.55c0.033-1.3,0.033-3.25,0-5.85
	c0.667-0.1,1.817-0.117,3.45-0.05c1.566,0.067,2.733,0.017,3.5-0.15c0.267-0.033,1.066-0.383,2.4-1.05
	c1.133-0.567,1.883-0.8,2.25-0.7c0.867,0.3,1.633,1.2,2.3,2.7c1.067,2.4,1.633,3.633,1.7,3.7c1.767,2.8,4.55,5.5,8.35,8.1
	c0.733-0.667,1.85-1.6,3.35-2.8c1.534-1.2,2.633-2.1,3.3-2.7l-0.4,0.85l1-1.45l1.1-1.15c1.567-1.8,2.35-3.333,2.35-4.6
	c0.1-0.367,0.15-0.733,0.15-1.1l-0.5-2.15c-0.333-0.733-0.833-1.45-1.5-2.15c-0.833-0.867-2.833-2.183-6-3.95
	c-2.133-1.466-3.2-3.033-3.2-4.7c0-0.367,0.05-0.75,0.15-1.15c3.748-0.526,7.09-1.101,10.025-1.725
	c-0.387,0.096-0.762,0.204-1.125,0.325c-3.933,1.667-5.566,3.883-4.9,6.65c8.933,2.8,13.267,6.5,13,11.1
	c-0.167,2.967-1.583,6.184-4.25,9.65c-3.167,3.667-5.317,6.383-6.45,8.15c-1.533,2.467-2.617,5.517-3.25,9.15v0.05
	c-0.033,0-0.083,0-0.15,0c-0.333-0.1-0.633-0.216-0.9-0.35c-1.533-1-2.25-2.784-2.15-5.35c0.066-1.434,0.4-3.55,1-6.35
	c-2.6,0.5-4.283,3.017-5.05,7.55c-0.333,2.133-0.483,5.667-0.45,10.6c0.1-0.367,0.283-0.683,0.55-0.95l4.2-1.25
	c-0.667,0.3-1.35,0.75-2.05,1.35L103,61.9c-0.233,0.2-0.817,0.75-1.75,1.65h-0.05h-0.1c-0.767,0.133-2.017,0.05-3.75-0.25
	c-0.667-0.1-1.667-0.5-3-1.2c-1.333-0.733-2.184-1.117-2.55-1.15c-0.566-0.034-2.55,0.633-5.95,2c-3.033,0.767-4.483-0.267-4.35-3.1
	c-0.633,0.733-1.2,2.083-1.7,4.05c-0.5,1.767-1.216,3.067-2.15,3.9c-1.333,1.167-3.167,1.65-5.5,1.45c-0.066,0-2.15-0.383-6.25-1.15
	l-0.4-0.9h1.25c1.3,0.033,2.283,0.033,2.95,0c1.2-0.067,2.167-0.25,2.9-0.55c1.5-0.566,2.767-1.583,3.8-3.05
	c0.6-0.867,1.4-2.4,2.4-4.6c0.333-0.733,0.8-2.067,1.4-4c0.667-1.5,1.667-2.017,3-1.55c0.566,0.2,1.216,1.7,1.95,4.5
	c0.633,2.433,1.85,3.517,3.65,3.25c1.3-0.2,2.167-0.867,2.6-2c0.567-1.534,1.1-2.5,1.6-2.9c0.633-0.5,1.933-0.816,3.9-0.95
	c1.667-0.1,2.8-0.684,3.4-1.75c0.267-0.533,0.333-1.45,0.2-2.75c-0.133-1.533-0.167-2.483-0.1-2.85c0.3-1.767,1.117-3.517,2.45-5.25
	c-1.733,0.167-4.217,0.567-7.45,1.2c-0.933-2.233-1.3-4.017-1.1-5.35c-0.367-0.2-0.933-0.367-1.7-0.5
	c-0.733-0.133-1.3-0.167-1.7-0.1c-1.133,3.167-2.05,5.317-2.75,6.45c-1.233,2-2.9,3.35-5,4.05c-2.2,0.733-4.967,1.183-8.3,1.35
	c-3.167,0.167-6.233,0.05-9.2-0.35l-0.05,0.1C64.833,50.3,63.183,50.567,60.65,50.4z M74.45,13.05l1.5,0.1
	c1.533,0.1,3.45-0.133,5.75-0.7c2.6-0.6,4.45-0.934,5.55-1c1.567-0.067,3.133,0.05,4.7,0.35c1.767,0.333,3.316,0.883,4.65,1.65
	c-1.467,0.033-3.483,0.167-6.05,0.4c-2.5,0.267-4.05,0.4-4.65,0.4c-1,0-2.833,0.1-5.5,0.3c-2.433,0.1-4.233-0.167-5.4-0.8
	C74.9,13.683,74.717,13.45,74.45,13.05z M104.75,19.7c0.967,0.066,1.683,0.133,2.15,0.2c0.8,0.1,1.45,0.283,1.95,0.55
	c1.633,0.8,2.833,2.15,3.6,4.05c-0.867-0.433-2.267-1.117-4.2-2.05C106.617,21.55,105.45,20.633,104.75,19.7z M172.8,32
	c-0.066-0.567-0.15-0.983-0.25-1.25c-0.167-0.467-0.566-0.833-1.2-1.1c-0.7-0.3-1.15-0.65-1.35-1.05
	c-0.7-1.233-1.517-3.067-2.45-5.5c-0.333-0.767-0.833-1.983-1.5-3.65c-0.633-1.434-1.3-2.534-2-3.3
	c-1.933-2.133-5.033-3.65-9.3-4.55c-0.9-0.2-4.3-0.633-10.2-1.3l-0.75,1.25c-0.4,1.667-0.716,2.85-0.95,3.55
	c-0.4,1.167-1.217,1.583-2.45,1.25c0.167-2.267-0.75-4.517-2.75-6.75c-5.1-0.434-9.683-0.7-13.75-0.8l0.1-0.05
	c0.133-0.067,0.25-0.133,0.35-0.2c1.967-0.8,4.15-1.367,6.55-1.7c3.533-0.5,5.9-0.117,7.1,1.15c0.433,0.5,0.7,1.067,0.8,1.7
	l0.05,0.6l1.3-0.5c1.8-0.566,3.65-0.883,5.55-0.95c2.833-0.1,5.9,0.45,9.2,1.65c0.8,0.3,2.383,0.433,4.75,0.4
	c2.233-0.066,3.7,0.117,4.4,0.55c0.8,0.466,1.284,1.117,1.45,1.95c0.3,1.467,0.483,2.3,0.55,2.5c0.3,0.833,0.5,1.383,0.6,1.65
	c0.167,0.434,0.467,0.934,0.9,1.5c0.4,0.534,1.35,1.333,2.85,2.4c1.3,0.933,2.184,1.867,2.65,2.8c0.833,1.7,1.167,3.167,1,4.4
	C173.983,29.15,173.567,30.267,172.8,32z M173.6,75.45c2.133,1.133,4.816,1.816,8.05,2.05c3.8,0.066,6.633,0.15,8.5,0.25
	c0.366,1.3,0.25,2.7-0.351,4.2c-0.866,2.3-1.333,3.649-1.399,4.05c-0.167,0.934-0.167,2.1,0,3.5c0.267,1.934,0.399,3.1,0.399,3.5
	c-0.399,0.066-0.967,0.233-1.7,0.5c-0.066-0.366-0.35-0.917-0.85-1.65c-0.467-0.733-0.767-1.399-0.9-2
	c-0.233-1.233-0.033-2.966,0.6-5.199c0.667-2.267,0.917-4,0.75-5.2c-0.1,0-1.7,0.017-4.8,0.05c-1.967,0-3.533-0.25-4.7-0.75
	C175.8,78.116,174.6,77.017,173.6,75.45z M166.1,65.45c-3.033-0.333-6.267-0.983-9.7-1.95c0.1,0,2.867-0.067,8.3-0.2
	c3.933-0.066,6.583-0.75,7.95-2.05c-0.5,1.4-1.333,2.45-2.5,3.15C169.15,64.967,167.8,65.317,166.1,65.45z M252.45,16.45l-0.55-0.1
	c-0.233-0.967-0.567-1.467-1-1.5c-0.367-0.067-1.5-0.067-3.4,0c-0.366-0.033-1.017-0.15-1.95-0.35c-0.767-0.167-1.434-0.233-2-0.2
	c-1.1,0.034-3.217,0.767-6.35,2.2c-2.8,1.267-4.917,1.75-6.351,1.45c-4.133,3.5-7.183,5.35-9.149,5.55c-0.8,0.1-3.101-0.133-6.9-0.7
	c-3.133,0.034-4.033,1.5-2.7,4.4c0.601,1.333,2.101,2.466,4.5,3.4c2.5,1,4.101,2.066,4.801,3.2c-0.534,4.534-0.967,7.4-1.301,8.6
	c-0.433,1.467-0.716,2.733-0.85,3.8l-0.15,0.6c-0.6,2.233-1.066,3.917-1.399,5.05c-0.566,2.033-0.917,3.767-1.05,5.2
	c0.066-1.367,0.483-4.183,1.25-8.45c0.6-3.467,0.8-6.017,0.6-7.65c-1.066,1.4-2.05,4.233-2.95,8.5c-0.866,4-2,6.733-3.399,8.2
	c-0.801,0.833-3.084,1.633-6.851,2.4c-3.233,0.667-5.217,2.067-5.95,4.2L198.4,63.9c-0.233,1.033-0.601,2.05-1.101,3.05
	c-0.8,1.566-1.8,2.867-3,3.899c-2.5,2.167-5.85,3.5-10.05,4c-3.567,0.4-7.333,0.184-11.3-0.649l-1.3-2.9
	c1.033,1.5,3.017,2.55,5.95,3.15c2.733,0.566,4.933,0.533,6.6-0.101c2.066-0.8,4.866-3.683,8.399-8.649
	c-0.3-0.2-0.833-0.467-1.6-0.8c-0.7-0.4-1.283-0.883-1.75-1.45c2.267-0.2,3.717-0.367,4.35-0.5c1.434-0.233,2.733-0.65,3.9-1.25
	c1-0.534,2.217-1.25,3.65-2.15c1.267-0.733,2.699-1.25,4.3-1.55c2.533-0.533,4.083-1.333,4.649-2.4c0.233-0.4,0.534-2.184,0.9-5.35
	c0.267-1.967,1.017-3.533,2.25-4.7c1.566-1.5,2.65-2.933,3.25-4.3c0.4-0.933,0.667-2.1,0.8-3.5c0.101-1.467,0-2.633-0.3-3.5
	c-0.533-1.433-2.1-2.733-4.7-3.9c-2.7-1.2-4.316-2.3-4.85-3.3c-0.167-0.333-0.15-0.983,0.05-1.95c0.2-1,0.2-1.667,0-2
	c-0.733-1.267-2.15-2.233-4.25-2.9c-1.8-0.534-3.417-0.7-4.85-0.5c-1.233,0.167-3.084,0.733-5.551,1.7c-2.8,1.1-4.399,2.033-4.8,2.8
	c-0.366,0.7-0.467,1.767-0.3,3.2c0.233,1.667,0.384,2.867,0.45,3.6v0.05c-0.8,0.867-1.483,1.667-2.05,2.4l-0.5,0.6
	c-0.033,0.067-0.066,0.133-0.1,0.2c-0.15,0.176-0.292,0.351-0.425,0.525L183.6,36.85c-0.4,0.6-0.767,1.5-1.1,2.7
	c-0.333,1.333-0.583,2.267-0.75,2.8l-0.25,0.85h-0.05v0.05c-0.7,0.3-1.434,0.4-2.2,0.3c0.233,4.767,0.3,8.467,0.2,11.1
	c-0.133,4.767-1.45,8-3.95,9.7c-0.833,0.566-2,0.95-3.5,1.15c1.3-1.133,2.183-3.267,2.65-6.4c0.3-1.934,0.467-4.2,0.5-6.8
	c0.033-1.5,0.033-3.767,0-6.8c0-0.767-0.133-2.933-0.4-6.5c-0.167-3.333-0.033-5.417,0.4-6.25c0.733-1.3,2.283-1.983,4.65-2.05
	c2.434-0.1,3.967-0.6,4.6-1.5c0.533-0.767,0.717-2.333,0.55-4.7c-0.133-2.367,0.083-3.95,0.65-4.75
	c0.267-0.367,0.617-0.617,1.05-0.75c0.567-0.167,0.966-0.333,1.2-0.5c1,0,2.017-0.1,3.051-0.3c1.8-1.434,3.399-3,4.8-4.7
	c2.1,0.1,4.75,0.433,7.95,1c3.3,0.667,5.533,1.083,6.699,1.25c1.2,0.2,2.584,0.767,4.15,1.7c1.366,0.867,2.684,1.283,3.95,1.25
	c1.2-0.034,2.684-0.417,4.45-1.15c2-0.9,3.5-1.55,4.5-1.95c1.066-0.434,2.033-0.7,2.899-0.8c2.233-0.267,3.851-0.5,4.851-0.7
	c1.267-0.167,2.75-0.583,4.449-1.25c2.2-0.934,3.45-1.45,3.75-1.55c1.5-0.566,2.784-0.883,3.851-0.95
	c2.666-0.167,4.616,0.417,5.85,1.75c0.867,0.933,1.717,2.783,2.55,5.55c1.867,3.833,3.167,6.65,3.9,8.45
	c1.3,3.2,0.934,5.833-1.1,7.9c-0.4,0.367-1.084,0.733-2.051,1.1c-0.899,0.333-1.533,0.7-1.899,1.1
	c-0.233,0.267-0.517,0.983-0.851,2.15c-0.333,1.133-0.583,1.75-0.75,1.85c-0.733,0.566-2.083,0.8-4.05,0.7
	c-2.033-0.133-3.35,0-3.95,0.4c1.601,0.667,2.784,1.1,3.551,1.3c1.666,0.5,2.883,0.617,3.649,0.35c0.533-0.2,0.983-0.55,1.351-1.05
	c0.433-0.667,0.783-1.1,1.05-1.3c0.166-0.133,0.366-0.467,0.6-1c0.167-0.533,0.351-0.867,0.55-1c0.233-0.2,0.717-0.283,1.45-0.25
	c0.767,0.033,1.283-0.033,1.55-0.2c3.733-2.167,6.101-5.533,7.101-10.1c0.3-1.3,0.267-2.767-0.101-4.4
	c-0.199-0.9-0.517-2.217-0.949-3.95c-0.167-0.934-0.184-1.8-0.051-2.6c3.134,0.167,5.551,0.25,7.25,0.25
	c3.167,0.033,5.434-0.6,6.801-1.9c0.3-0.3,0.517-0.583,0.649-0.85c0.867-0.2,2-0.517,3.4-0.95c4-1.5,7-2.6,9-3.3
	c3.533-1.267,6.483-2,8.85-2.2c2.2-0.167,4.717,0.1,7.55,0.8c3.167,0.9,5.517,1.517,7.051,1.85c1.466,0.333,4.383,0.4,8.75,0.2
	c3.8-0.2,6.583,0.133,8.35,1c0.033,1.033,0.833,2.233,2.4,3.6c2.066,1.767,3.199,2.8,3.399,3.1c1.2,1.8,2.084,3.933,2.65,6.4
	c0.633,2.7,0.75,5.183,0.35,7.45l-0.2-1.35c-0.399-1.8-1.833-3.217-4.3-4.25c-3.233-1.367-5.267-2.467-6.1-3.3
	c-0.634-0.633-1.434-1.983-2.4-4.05c-0.899-2-1.684-3.267-2.35-3.8c-0.867-0.667-2.467-0.933-4.8-0.8
	c-1.267,0.067-2.95,0.183-5.051,0.35c-2.699-0.033-4.25-0.133-4.649-0.3c-1.3-0.466-1.7-1.783-1.2-3.95c-9.767-1.4-16.1-1.1-19,0.9
	c-0.7,0.5-1.5,1.333-2.4,2.5c-0.966,1.233-1.699,2.05-2.199,2.45c-0.733,0.633-1.917,1.35-3.551,2.15
	c-1.899,0.933-3.35,1.667-4.35,2.2c-1.733,2.8-2.967,4.934-3.7,6.4c-1.233,0.833-2.116,1.833-2.649,3l1.199,0.25
	c-0.433,1.066-0.767,2.1-1,3.1c1.4-0.5,2.483-0.65,3.25-0.45c0.667,3,1.034,4.583,1.101,4.75l-0.5-0.4
	c-0.434-0.267-1.05-0.5-1.851-0.7c-0.933-0.2-1.783-0.25-2.55-0.15c-0.8,0.1-1.383,0.383-1.75,0.85c-0.333,0.4-0.566,0.917-0.7,1.55
	L268.65,39c-0.634-0.467-1.267-1.133-1.9-2c-0.5-0.7-0.95-1.067-1.35-1.1c-0.567-0.033-1.534,0.417-2.9,1.35
	c-0.967,0.7-2.283,1.8-3.95,3.3c-1.767,1.633-2.934,2.85-3.5,3.65c-0.666,0.9-1.133,1.966-1.399,3.2
	c-0.367,1.733-0.634,2.817-0.801,3.25c-0.8,1.967-2.033,3.783-3.699,5.45c-1.634,1.6-3.467,2.9-5.5,3.9
	c-0.434,0.033-0.934,0.15-1.5,0.35l-2,0.7c-0.367,0.133-0.733,0.3-1.101,0.5c-1.5,0.3-2.95,0.35-4.35,0.15
	c-2.634-0.333-4.167-1.35-4.601-3.05c-0.3-1.1-0.6-3.55-0.899-7.35c-0.233,6.267-0.75,10.583-1.55,12.95
	c-1.567,4.867-4.384,5.317-8.45,1.35c-1-1-1.684-2.2-2.05-3.6c0.8-0.1,1.916,0.25,3.35,1.05c1.366,0.767,2.566,1.034,3.6,0.8
	c0.067-1.833,0.067-3.633,0-5.4c-0.233,0.066-0.633,0.05-1.199-0.05c-0.601-0.1-1-0.133-1.2-0.1c-0.3-2.667,0.566-6.017,2.6-10.05
	c2.7-5.367,4.2-8.583,4.5-9.65c0.9,2.8,1.634,6.583,2.2,11.35c0.667,5.5,1.233,9.233,1.7,11.2c1.133-0.633,2.483-1.35,4.05-2.15
	c1.167-0.8,2.2-2.083,3.1-3.85c1.634-3.233,2.601-5.783,2.9-7.65c0.033-0.233,0.033-1.767,0-4.6c-0.033-1.867,0.333-3.2,1.1-4
	c0.534-0.566,1.817-0.883,3.851-0.95c1.866-0.067,3.133-0.617,3.8-1.65c0.134-0.233,0.15-0.767,0.05-1.6
	c-0.166-0.833-0.166-1.4,0-1.7c0.533-1.067,1.367-2.3,2.5-3.7c0.767-1.267,0.95-2.783,0.55-4.55c-0.133-0.7-0.483-1.717-1.05-3.05
	c-0.566-1.4-0.934-2.417-1.1-3.05l-0.4-1.75L252.45,16.45z M320.55,45c-2.733-0.267-4.5-0.4-5.3-0.4
	C316.783,44.433,318.55,44.567,320.55,45z M357.85,16.45c2.101-0.034,3.667-0.017,4.7,0.05c0.033,1.367,0.05,2.383,0.05,3.05
	c0,1.2-0.133,2.2-0.399,3c-0.267,0.833-0.867,1.767-1.8,2.8c-0.967,1.066-1.584,1.933-1.851,2.6l0.9,0.15
	c0.333,1.933,0.033,4.316-0.9,7.15c-1.467,4.667-2.217,7.033-2.25,7.1c-0.3,1.3-0.434,2.533-0.399,3.7l0.05,0.75h0.149
	c-4.133,1.167-7.449,1.9-9.949,2.2c-4.233,0.467-7.017,1.933-8.351,4.4c-0.033,0.033-0.066,0.083-0.1,0.15l-4.8,0.2
	c3.633-1.267,6.166-2.667,7.6-4.2c1.866-1.966,1.634-3.983-0.7-6.05c-1.899,3.2-4.75,4.6-8.55,4.2c-2.233-0.267-5.8-1.167-10.7-2.7
	c2.601,0.267,4.684,0.35,6.25,0.25c2.2-0.1,3.834-0.533,4.9-1.3c0.2-0.133,0.434-0.55,0.7-1.25c0.267-0.7,0.517-1.167,0.75-1.4
	c0.466-0.433,1.199-1.017,2.199-1.75c0.767-0.733,1.084-1.583,0.95-2.55c1.267-0.433,2.084-0.733,2.45-0.9
	c0.733-0.367,1.283-0.767,1.65-1.2c-1.034,3-2.867,5.567-5.5,7.7c-2.667,2.167-5.5,3.367-8.5,3.6c1.633,0.3,2.933,0.533,3.899,0.7
	c1.834,0.3,3.2,0.267,4.101-0.1c0.899-0.367,1.933-1.3,3.1-2.8c0.667-0.833,1.6-2.117,2.8-3.85c1.733-2.2,3.05-5.167,3.95-8.9
	c0.5-2.167,1.217-5.6,2.15-10.3c0.8-3.233,1.267-5.05,1.399-5.45c0.834-2.333,1.851-3.8,3.05-4.4c0.534-0.267,1.351-0.267,2.45,0
	c1.101,0.233,1.967,0.183,2.601-0.15c0.399,1.066,0.633,2.466,0.699,4.2c-0.866-0.566-1.883-0.683-3.05-0.35
	c-1.233,0.367-2.233,1.667-3,3.9c-0.666,2.7-1.149,4.55-1.45,5.55l-0.35,1.35c-1.2,2.4-2.116,4.75-2.75,7.05
	c-0.833,3-0.833,4.95,0,5.85c-0.1,1.533,0.017,2.683,0.35,3.45c0.601,1.2,1.167,1.833,1.7,1.9c0.867-0.167,1.717-0.283,2.55-0.35
	c0.934-0.067,2.384-0.333,4.351-0.8v-1.35c-0.434,0.033-1.084-0.017-1.95-0.15c1.3-2.067,2.184-4,2.65-5.8
	c0.5-1.767,0.666-3.717,0.5-5.85c-0.067-0.833-0.233-1.566-0.5-2.2c-0.067-0.533,0.233-1.417,0.899-2.65
	c0.434-0.767,1.134-1.483,2.101-2.15c0.633-0.7,0.733-1.9,0.3-3.6C358.684,17.95,358.316,17.117,357.85,16.45z M285.2,40.75
	c-1.2,0.967-2.684,1.333-4.45,1.1c-1.167-0.167-2-0.583-2.5-1.25c0.833,0.5,2.3,0.733,4.4,0.7c0.366-0.033,0.8-0.117,1.3-0.25
	C284.616,40.883,285.033,40.783,285.2,40.75z M285.95,40.75c0.267,0,0.55,0.05,0.85,0.15c0.434,0.167,1.267,1.017,2.5,2.55
	c0.934,1.167,2.05,1.5,3.351,1c2.767-1.034,4.283-4.35,4.55-9.95c0.166-3,0.083-7.017-0.25-12.05c2.934,2.433,4.916,6.033,5.95,10.8
	c0.899,4.167,0.966,8.45,0.199,12.85c-0.066,0.333-0.283,1.033-0.649,2.1c-0.367,0.933-0.55,1.583-0.55,1.95
	c0,0.4,0.199,0.9,0.6,1.5c0.366,0.6,0.533,1.15,0.5,1.65c-0.033,0.367-0.533,2.133-1.5,5.3c-0.634,2-0.483,3.733,0.45,5.2
	c0.733,1.2,1.866,2.05,3.399,2.55c-0.3-0.067-0.616-0.15-0.949-0.25c-1.867-0.467-2.95-0.767-3.25-0.9
	c-0.867-0.367-1.817-1.017-2.851-1.95c-0.467-0.433-1.05-1.067-1.75-1.9c-0.6-0.767-1.083-1.283-1.45-1.55
	c2.267-0.367,3.75-1.966,4.45-4.8c0.634-2.667,0.816-6.233,0.55-10.7c-0.466-7-0.699-10.583-0.699-10.75l-0.5-6.05
	c0.333,10.467-1.684,16.3-6.051,17.5c-1.933,0.567-3.433,0.467-4.5-0.3C287.483,44.067,286.684,42.75,285.95,40.75z M323.5,55.6
	c-0.3,0.133-0.616,0.283-0.95,0.45L321.4,56.7c-1.233-0.4-2.517-0.45-3.851-0.15c-1.333,0.3-2.283,0.867-2.85,1.7
	c-0.233,0.333-0.384,1.133-0.45,2.4c-0.033,1.367-0.134,2.233-0.3,2.6c-0.566,1.267-1.217,2.217-1.95,2.85
	c0.033-0.833-0.017-2.55-0.15-5.15c0-2.3,0.25-3.767,0.75-4.4c0.834-0.966,2.434-1.45,4.801-1.45
	C317.467,55.1,319.5,55.267,323.5,55.6z M306.15,66.55c1.267,0.267,2.866,0.317,4.8,0.15c-0.8,0.3-1.8,0.367-3,0.2
	C307.583,66.867,306.983,66.75,306.15,66.55z M159.25,37.3l0.75,1.65c0.033,0.4,0.317,1.8,0.85,4.2c0.4,1.667,0.467,3.067,0.2,4.2
	c-0.233,1-0.816,2.15-1.75,3.45c-1.167,1.467-2.017,2.567-2.55,3.3c-1.233,0.333-2.167,0.816-2.8,1.45
	c-0.333,0.333-0.733,1.733-1.2,4.2c-0.333,1.733-1.25,2.4-2.75,2l-0.25-0.1c-0.167,0.333-0.667,1.1-1.5,2.3
	c-0.633,0.966-1.1,1.917-1.4,2.85c-0.233,0.733-0.233,2.55,0,5.45c0.2,2.2-0.3,3.8-1.5,4.8c-1.333,1.134-3.35,1.084-6.05-0.149
	c-2.933-1.334-4.8-1.834-5.6-1.5c-0.467,0.233-0.833,0.767-1.1,1.6c-0.033-0.667-0.35-1.116-0.95-1.35
	c-0.1-0.267-0.233-0.517-0.4-0.75s-0.383-0.467-0.65-0.7c-0.133-0.134-0.283-0.267-0.45-0.4c0.233-1.733,1.9-2.583,5-2.55
	c4.267,0.066,6.533,0.05,6.8-0.05c1.9-0.733,3-1.784,3.3-3.15c0.033-0.133,0.083-2,0.15-5.6c-0.633,1.633-1.316,2.917-2.05,3.85
	c0.033-0.433,0.05-1.117,0.05-2.05c0.033-0.767,0.184-1.433,0.45-2c0.333-0.667,0.933-1.317,1.8-1.95c1.1-0.867,1.833-1.5,2.2-1.9
	s0.75-0.933,1.15-1.6v-0.05c0.333-1.767,0.517-3.017,0.55-3.75c0.067-0.833,0-1.95-0.2-3.35c0-0.033-0.033-1.167-0.1-3.4
	c-0.067-1.833-0.217-2.95-0.45-3.35c-0.6-1.066-1.983-1.533-4.15-1.4l-0.3-0.2c-1.367,0.3-2.817,0.417-4.35,0.35
	c-0.533-0.066-0.983-0.183-1.35-0.35c0.5-0.267,1.417-0.383,2.75-0.35c1.3,0.066,2.217-0.05,2.75-0.35
	c0.6-0.333,1.05-1.017,1.35-2.05c0.3-1.167,0.633-1.933,1-2.3c0.333-0.3,1.033-0.533,2.1-0.7c0.967-0.133,1.6-0.417,1.9-0.85
	c0.1-0.167,0.083-0.6-0.05-1.3c-0.1-0.8-0.117-1.3-0.05-1.5c0.3-0.667,0.483-1.633,0.55-2.9c0.2-1,0.867-1.683,2-2.05l1,2.2
	c1.367,1.367,2.683,3.2,3.95,5.5c-0.833,0.5-1.65,1.233-2.45,2.2L159.25,37.3z M169.95,112.95c2.133-0.834,3.183-2.417,3.15-4.75
	c-0.833-0.134-1.9-0.316-3.2-0.55c-1-0.2-1.783-0.434-2.35-0.7h-0.1c-1.267-0.601-2.367-1.8-3.3-3.601
	c-0.233,0.5-0.383,0.817-0.45,0.95c-0.5,0.9-1.45,1.65-2.85,2.25l-2.35-0.149c-0.233,0.399-0.55,0.716-0.95,0.949
	c-1.8,0.233-3.517,0.167-5.15-0.199c-1.667-0.367-2.833-0.983-3.5-1.851c0.6-0.533,2.417-1.434,5.45-2.7
	c2.033-0.866,3.267-2.366,3.7-4.5c0.267-1.233,0.383-3.033,0.35-5.399c0.3-1.667,1.684-2.434,4.15-2.3l-4.05,2.75
	c2.733,0.5,4.433,1.066,5.1,1.699c0.8,0.733,1.117,2.334,0.95,4.801c-0.033,1.1-0.083,1.933-0.15,2.5
	c1.733,1.1,3.817,1.683,6.25,1.75c2.5,0.066,4.517-0.434,6.05-1.5c1.033-0.7,2.05-1.733,3.05-3.101c1.1-1.566,1.6-2.866,1.5-3.899
	l2.7,0.35c-0.567,0.566-1.233,1.333-2,2.3c-1.1,1.367-1.717,2.117-1.85,2.25c-2.333,2.601-4.017,4.184-5.05,4.75
	c-1.233,0.733-3.333,1.217-6.3,1.45c1.067,0.434,2.733,0.7,5,0.8c2.233,0.066,3.867,0.334,4.9,0.8c-0.1,2.7-1.066,4.284-2.9,4.75
	C174.65,113.116,172.717,113.15,169.95,112.95z M115.45,119c-0.567-0.267-1.117-0.533-1.65-0.8l-0.3-0.2
	c-0.3-0.167-0.583-0.333-0.85-0.5c-0.133-0.066-0.25-0.134-0.35-0.2c-0.1-0.166-0.2-0.35-0.3-0.55l-0.45-1.95
	c-0.033-0.166-0.05-0.333-0.05-0.5c0-0.066,0-0.133,0-0.2c-0.067-1.5,0.2-3.6,0.8-6.3c0.9-4.133,1.35-6.233,1.35-6.3l2.1-0.15
	c-1.067,0.767-1.817,2.034-2.25,3.801c-0.267,1.033-0.35,2.883-0.25,5.55c0.067,2.767,0.317,4.467,0.75,5.1
	c0.3,0.434,1.483,0.983,3.55,1.65c1.767,0.6,3.15,0.983,4.15,1.149c1.633,0.267,3.3,0.017,5-0.75c1.566-0.733,2.9-1.783,4-3.149
	c2.033,3.1,5.417,3.55,10.15,1.35c4.367-2.033,7.2-4.633,8.5-7.8c0.233,2.533,0.117,4.767-0.35,6.7
	c-0.633,2.633-1.85,4.35-3.65,5.149c-0.833,0.367-2.317,0.434-4.45,0.2c-2.033-0.2-3.417-0.05-4.15,0.45
	c1.1,0.533,2.7,0.85,4.8,0.95c2.034,0.1,4-0.017,5.9-0.351c-1.534,0.967-2.9,1.517-4.1,1.65c-1.133,0.1-3.267-0.2-6.4-0.9
	c-3.267-0.733-5-1.35-5.2-1.85c3.167,0,5.75-0.767,7.75-2.3c-0.833,0.133-2.6,0.2-5.3,0.2c-2.3,0-3.983,0.149-5.05,0.449
	c-0.433,0.134-0.8,0.584-1.1,1.351c-0.267,0.733-0.683,1.184-1.25,1.35c-0.9,0.267-2.033,0.15-3.4-0.35
	c-0.767-0.267-1.867-0.667-3.3-1.2c-0.333-0.1-1.767-0.333-4.3-0.7C115.667,119.017,115.55,119,115.45,119z M156.95,69.4
	c0.966,1.667,0.983,2.9,0.05,3.7c-0.833,0.7-1.9,0.9-3.2,0.601c-1.3-0.3-1.783-0.917-1.45-1.851c0.4-1.1,2.1-2.283,5.1-3.55
	L156.95,69.4z M123.15,70.1h-0.05l-0.5-0.3c-0.292-0.208-0.575-0.425-0.85-0.65c0.286,0.224,0.586,0.441,0.9,0.65
	C122.717,69.833,122.883,69.933,123.15,70.1z M119.3,101.15l0.95-0.101l-0.7,0.75L119.3,101.15z"/>
<path style="fill-rule:evenodd;clip-rule:evenodd;fill:#3C3931;" d="M364.725,29.775c-0.038,0.056-0.079,0.115-0.125,0.175
	c-0.102,0.166-0.201,0.332-0.3,0.5c-0.041,0.066-0.083,0.133-0.125,0.2l-0.375,0.6l-5,10.15l-0.95,3.7
	c-0.1,0.433-0.233,0.816-0.399,1.15c-0.066,0.067-0.134,0.15-0.2,0.25l-0.35,0.45h-0.051c-0.633,0.533-1.75,1.167-3.35,1.9
	c-2.7,1.267-4.217,1.983-4.55,2.15c-1.867,0.8-3.45,1.367-4.75,1.7c-0.033,0-0.066,0.017-0.101,0.05h-0.149
	c-1.566,0.333-3.65,0.6-6.25,0.8c0.033-0.066,0.066-0.117,0.1-0.15c1.334-2.467,4.117-3.933,8.351-4.4
	c2.5-0.3,5.816-1.033,9.949-2.2h-0.149l-0.05-0.75c-0.034-1.167,0.1-2.4,0.399-3.7c0.033-0.067,0.783-2.434,2.25-7.1
	c0.934-2.833,1.233-5.217,0.9-7.15l-0.9-0.15c0.267-0.667,0.884-1.534,1.851-2.6c0.933-1.033,1.533-1.967,1.8-2.8
	c0.267-0.8,0.399-1.8,0.399-3c0-0.667-0.017-1.683-0.05-3.05c-1.033-0.067-2.6-0.083-4.7-0.05l-1.25-0.05v-1.25
	c-0.066-1.733-0.3-3.133-0.699-4.2c-0.634,0.333-1.5,0.383-2.601,0.15c-1.1-0.267-1.916-0.267-2.45,0
	c-1.199,0.6-2.216,2.066-3.05,4.4c-0.133,0.4-0.6,2.217-1.399,5.45c-0.934,4.7-1.65,8.133-2.15,10.3c-0.9,3.733-2.217,6.7-3.95,8.9
	c-1.2,1.733-2.133,3.017-2.8,3.85c-1.167,1.5-2.2,2.433-3.1,2.8c-0.9,0.367-2.267,0.4-4.101,0.1c-0.967-0.167-2.267-0.4-3.899-0.7
	c3-0.233,5.833-1.434,8.5-3.6c2.633-2.133,4.466-4.7,5.5-7.7c0.066-0.133,0.216-0.6,0.449-1.4l0.2-0.95
	c0.4-2.267,0.283-4.75-0.35-7.45c-0.566-2.467-1.45-4.6-2.65-6.4c-0.2-0.3-1.333-1.333-3.399-3.1c-1.567-1.367-2.367-2.567-2.4-3.6
	c-1.767-0.867-4.55-1.2-8.35-1c-4.367,0.2-7.284,0.133-8.75-0.2c-1.534-0.333-3.884-0.95-7.051-1.85c-2.833-0.7-5.35-0.967-7.55-0.8
	c-2.366,0.2-5.316,0.934-8.85,2.2c-2,0.7-5,1.8-9,3.3c-1.4,0.434-2.533,0.75-3.4,0.95c-0.133,0.267-0.35,0.55-0.649,0.85
	c-1.367,1.3-3.634,1.933-6.801,1.9c-1.699,0-4.116-0.083-7.25-0.25c-0.133,0.8-0.116,1.667,0.051,2.6
	c0.433,1.733,0.75,3.05,0.949,3.95c0.367,1.633,0.4,3.1,0.101,4.4c-1,4.567-3.367,7.934-7.101,10.1
	c-0.267,0.167-0.783,0.233-1.55,0.2c-0.733-0.033-1.217,0.05-1.45,0.25c-0.199,0.133-0.383,0.467-0.55,1
	c-0.233,0.533-0.434,0.867-0.6,1c-0.267,0.2-0.617,0.633-1.05,1.3c-0.367,0.5-0.817,0.85-1.351,1.05
	c-0.767,0.267-1.983,0.15-3.649-0.35c-0.767-0.2-1.95-0.633-3.551-1.3c0.601-0.4,1.917-0.533,3.95-0.4
	c1.967,0.1,3.316-0.133,4.05-0.7c0.167-0.1,0.417-0.717,0.75-1.85c0.334-1.167,0.617-1.883,0.851-2.15c0.366-0.4,1-0.767,1.899-1.1
	c0.967-0.367,1.65-0.733,2.051-1.1c2.033-2.067,2.399-4.7,1.1-7.9c-0.733-1.8-2.033-4.617-3.9-8.45
	c-0.833-2.767-1.683-4.617-2.55-5.55c-1.233-1.333-3.184-1.917-5.85-1.75c-1.066,0.066-2.351,0.383-3.851,0.95
	c-0.3,0.1-1.55,0.617-3.75,1.55c-1.699,0.667-3.183,1.083-4.449,1.25c-1,0.2-2.617,0.433-4.851,0.7
	c-0.866,0.1-1.833,0.367-2.899,0.8c-1,0.4-2.5,1.05-4.5,1.95c-1.767,0.733-3.25,1.117-4.45,1.15c-1.267,0.033-2.584-0.383-3.95-1.25
	c-1.566-0.934-2.95-1.5-4.15-1.7c-1.166-0.167-3.399-0.583-6.699-1.25c-3.2-0.567-5.851-0.9-7.95-1c-1.4,1.7-3,3.267-4.8,4.7
	c-1.034,0.2-2.051,0.3-3.051,0.3c-0.233,0.167-0.633,0.333-1.2,0.5c-0.433,0.133-0.783,0.383-1.05,0.75
	c-0.567,0.8-0.783,2.383-0.65,4.75c0.167,2.367-0.017,3.933-0.55,4.7c-0.633,0.9-2.167,1.4-4.6,1.5
	c-2.367,0.066-3.917,0.75-4.65,2.05c-0.433,0.833-0.566,2.917-0.4,6.25c0.267,3.567,0.4,5.733,0.4,6.5c0.033,3.033,0.033,5.3,0,6.8
	c-0.033,2.6-0.2,4.867-0.5,6.8c-0.467,3.133-1.35,5.267-2.65,6.4c-0.933,0.767-2.2,1.133-3.8,1.1c-1.3-0.067-3.133-0.417-5.5-1.05
	c1.566,0,2.7-0.033,3.4-0.1c1.7-0.133,3.05-0.483,4.05-1.05c1.167-0.7,2-1.75,2.5-3.15c0.333-1.067,0.5-2.217,0.5-3.45
	c0.033-1.533-0.383-5.617-1.25-12.25c-0.667-5.066-0.55-9.066,0.35-12L172.8,32c0.767-1.733,1.184-2.85,1.25-3.35
	c0.167-1.233-0.167-2.7-1-4.4c-0.466-0.933-1.35-1.867-2.65-2.8c-1.5-1.067-2.45-1.867-2.85-2.4c-0.433-0.566-0.733-1.066-0.9-1.5
	c-0.1-0.267-0.3-0.816-0.6-1.65c-0.066-0.2-0.25-1.033-0.55-2.5c-0.167-0.833-0.65-1.483-1.45-1.95c-0.7-0.434-2.167-0.617-4.4-0.55
	c-2.367,0.033-3.95-0.1-4.75-0.4c-3.3-1.2-6.367-1.75-9.2-1.65c-1.9,0.066-3.75,0.383-5.55,0.95l-1.3,0.5l-0.05-0.6
	c-0.1-0.633-0.367-1.2-0.8-1.7c-1.2-1.267-3.567-1.65-7.1-1.15c-2.4,0.333-4.583,0.9-6.55,1.7c-0.1,0.067-0.217,0.133-0.35,0.2
	l-0.15,0.05c-2.267,0.967-5.167,1.85-8.7,2.65l-0.125,0.025c-2.935,0.624-6.277,1.199-10.025,1.725c-0.1,0.4-0.15,0.783-0.15,1.15
	c-0.033,1.733,1.033,3.333,3.2,4.8c3.167,1.733,5.167,3.033,6,3.9c0.667,0.7,1.167,1.4,1.5,2.1l0.5,2.15
	c0,0.367-0.05,0.733-0.15,1.1c-0.233,0.867-0.683,1.833-1.35,2.9c-0.267,0.4-0.966,1.35-2.1,2.85l-0.6,0.6
	c0.7-1.667,1.117-3.383,1.25-5.15c0.133-1.9-0.083-3.6-0.65-5.1c-0.767-1.9-1.967-3.25-3.6-4.05c-0.5-0.267-1.15-0.45-1.95-0.55
	c-0.467-0.066-1.183-0.133-2.15-0.2c-1.467-0.133-2.583-0.483-3.35-1.05c-0.5-0.367-1.05-1.033-1.65-2
	c-0.667-1.066-1.2-1.783-1.6-2.15s-0.917-0.717-1.55-1.05c-1.333-0.767-2.883-1.317-4.65-1.65c-1.567-0.3-3.133-0.417-4.7-0.35
	c-1.1,0.066-2.95,0.4-5.55,1c-2.3,0.566-4.217,0.8-5.75,0.7l-1.5-0.1c-1.467-0.133-2.717-0.383-3.75-0.75
	c-0.967-0.333-2.15-0.933-3.55-1.8l-0.9-0.6c-0.367-0.267-0.783-0.6-1.25-1c-0.433-0.3-1.05-0.55-1.85-0.75
	C61.583,7.783,59.4,7.533,56.6,7.4c-3.6-0.133-5.833-0.25-6.7-0.35c-2.333-0.267-4.15-0.117-5.45,0.45
	c-1.367,0.6-2.4,1.717-3.1,3.35L41.2,12.5l-0.4-0.05c-0.2,0.566-0.35,1.167-0.45,1.8c-1.133-0.4-2.317-1.333-3.55-2.8
	c-1.333-1.534-2.367-2.467-3.1-2.8c-1.534-0.667-3.667-0.417-6.4,0.75c-0.3,0.133-1.15,0.55-2.55,1.25
	c-0.967,0.5-1.717,0.833-2.25,1c-0.933,0.3-2.083,0.533-3.45,0.7c-0.767,0.1-1.95,0.233-3.55,0.4l2.15,2.75c0.333,0.4,1,1.033,2,1.9
	c0.934,0.767,1.567,1.417,1.9,1.95c0.267,0.4,0.517,1.117,0.75,2.15c0.233,0.967,0.55,1.683,0.95,2.15c1,1.133,2.617,1.867,4.85,2.2
	c0.033-0.001,0.066-0.001,0.1,0c-1.534,0.133-2.65,0.1-3.35-0.1c-1.3-0.3-2.117-0.6-2.45-0.9c-0.867-0.8-1.367-1.25-1.5-1.35
	c-2.566-1.733-4.217-3.35-4.95-4.85c-0.034-0.066-0.067-0.117-0.1-0.15l-0.65-1.45c-0.2-0.533-0.383-1.066-0.55-1.6
	c-0.4-0.8-1.15-1.517-2.25-2.15l-0.35-0.15l-0.35-0.2c0,0.2-0.05,0.4-0.15,0.6l-0.1,0.85l-0.75,0.25l-0.55-0.55
	c-0.566,0.267-1.083,0.6-1.55,1c-1.233,0.2-2.567,0.25-4,0.15c-0.434,0-0.883-0.017-1.35-0.05l-2.6-0.35H0.6L0.25,13.6
	c-0.067-0.233-0.133-0.483-0.2-0.75L0,12.75l0.05-0.95l0.2-0.65l0.25-0.4l0.3-0.35l1.15-1.05l1.8-1.1c0.6-0.367,1.533-0.85,2.8-1.45
	l1-0.4l0.2-0.05c0.567-0.2,1.167-0.4,1.8-0.6L15.65,4c1.8-0.433,4.65-1,8.55-1.7l7.95-0.95c1.767-0.167,3.55-0.317,5.35-0.45
	l2.8-0.2c0.833-0.067,1.583-0.117,2.25-0.15c12.333-0.733,26-0.75,41-0.05c10.767,0.467,24.383,1.45,40.85,2.95l2.55,0.25
	c0.333,0.033,0.683,0.066,1.05,0.1c0.5,0.034,1,0.083,1.5,0.15l23.4,2.4c0.4,0.033,0.817,0.066,1.25,0.1l0.8,0.1
	c3.8,0.4,7.867,0.85,12.2,1.35c5.267,0.667,9.233,1.15,11.9,1.45c0.3,0.033,0.6,0.066,0.9,0.1c0.5,0.066,1,0.117,1.5,0.15
	c1.867,0.2,3.617,0.333,5.25,0.4l4.25,0.1c2.767,0,5.733-0.1,8.899-0.3L210.2,8.95c0.767-0.067,1.55-0.15,2.35-0.25
	c1.834-0.2,3.783-0.417,5.851-0.65l17.649-2.1l24.2-2.85c3.467-0.4,6.917-0.75,10.35-1.05L272.9,1.9
	c4.899-0.467,9.216-0.833,12.949-1.1c5.9-0.367,11.483-0.617,16.75-0.75l16.551,0.1c4.533,0.133,9.483,0.5,14.85,1.1l6.35,1.05
	c2.101,0.4,4.45,0.934,7.051,1.6c0.233,0.067,0.483,0.133,0.75,0.2l1.25,0.35c1.333,0.367,2.866,0.85,4.6,1.45l1.8,0.65
	c1.101,0.5,1.816,0.833,2.15,1c1.566,0.7,3.383,1.7,5.45,3l3,2.2c1.233,1.1,2.533,2.45,3.899,4.05l0.45,0.7l0.6,0.95l-6.5,11.1
	C364.81,29.623,364.768,29.698,364.725,29.775z M257.2,48.2c-0.733,1-1.483,2.117-2.25,3.35c-1.634,2.934-2.983,5.317-4.05,7.15
	l-0.95,1.6c-0.167,0.233-0.316,0.467-0.45,0.7c-0.934-0.133-2.083-0.367-3.45-0.7c-1-0.267-1.8-0.367-2.399-0.3
	c2.033-1,3.866-2.3,5.5-3.9c1.666-1.667,2.899-3.483,3.699-5.45c0.167-0.433,0.434-1.517,0.801-3.25
	c0.267-1.233,0.733-2.3,1.399-3.2c0.566-0.8,1.733-2.017,3.5-3.65c1.667-1.5,2.983-2.6,3.95-3.3c1.366-0.933,2.333-1.383,2.9-1.35
	c0.399,0.033,0.85,0.4,1.35,1.1c0.634,0.867,1.267,1.533,1.9,2l0.699,0.5c0.134-0.633,0.367-1.15,0.7-1.55
	c0.367-0.467,0.95-0.75,1.75-0.85c0.767-0.1,1.617-0.05,2.55,0.15c0.801,0.2,1.417,0.433,1.851,0.7l0.5,0.4
	c0.3,0.3,0.6,0.7,0.899,1.2c0.334,0.567,0.551,0.917,0.65,1.05c0.5,0.667,1.333,1.083,2.5,1.25c1.767,0.233,3.25-0.133,4.45-1.1
	l0.6-0.55l0.15,0.55c0.733,2,1.533,3.317,2.399,3.95c1.067,0.767,2.567,0.867,4.5,0.3c4.367-1.2,6.384-7.033,6.051-17.5l0.5,6.05
	c0,0.167,0.233,3.75,0.699,10.75c0.267,4.467,0.084,8.034-0.55,10.7c-0.7,2.833-2.184,4.433-4.45,4.8
	c0.367,0.267,0.851,0.784,1.45,1.55c0.7,0.833,1.283,1.467,1.75,1.9c1.033,0.933,1.983,1.583,2.851,1.95
	c0.3,0.133,1.383,0.433,3.25,0.9c0.333,0.1,0.649,0.183,0.949,0.25c0.301,0.066,0.567,0.133,0.801,0.2
	c0.833,0.2,1.433,0.317,1.8,0.35c1.2,0.167,2.2,0.1,3-0.2l1.05-0.6c0.733-0.633,1.384-1.583,1.95-2.85
	c0.166-0.367,0.267-1.233,0.3-2.6c0.066-1.267,0.217-2.066,0.45-2.4c0.566-0.833,1.517-1.4,2.85-1.7
	c1.334-0.3,2.617-0.25,3.851,0.15c-0.067,0.066-0.134,0.117-0.2,0.15c-0.2,0.133-0.4,0.267-0.601,0.4
	c-1.8,1.333-2.983,3.033-3.55,5.1c-0.434,2.6-0.899,4.65-1.399,6.15c-3.834-0.167-7.467-0.717-10.9-1.65
	c-4.634-1.267-7.733-3-9.3-5.2c-0.334-0.4-0.617-1-0.851-1.8l-0.149-0.5c-0.167-0.667-0.367-1.7-0.601-3.1
	c0-0.133-0.017-0.25-0.05-0.35c-0.233-1.1-0.55-1.917-0.95-2.45l-0.199-0.25l-0.051-0.05c-0.699-0.733-2.283-1.683-4.75-2.85
	c-2.666-1.3-4.399-2.267-5.199-2.9l-1.976-1.65c-0.95-0.85-2.024-1.85-3.225-3c-0.267-0.2-0.533-0.4-0.8-0.6
	c-0.567-0.4-1.134-0.733-1.7-1L274.1,40.8c-0.833-0.333-1.666-0.55-2.5-0.65l-1.1-0.05l-0.35,0.05L269.1,40.2l-5.35,1.8
	c-0.063,0.038-0.131,0.079-0.2,0.125l-0.55,0.35c-0.319,0.195-0.636,0.403-0.95,0.625c-0.274,0.225-0.55,0.458-0.825,0.7L259,46
	C258.4,46.667,257.8,47.4,257.2,48.2z M216.65,57.05l-0.051,1.6c-0.033,0.667,0.134,1.8,0.5,3.4L217.15,62
	c0.366,1.4,1.05,2.6,2.05,3.6c4.066,3.967,6.883,3.517,8.45-1.35c0.8-2.367,1.316-6.683,1.55-12.95c0.3,3.8,0.6,6.25,0.899,7.35
	c0.434,1.7,1.967,2.717,4.601,3.05c1.399,0.2,2.85,0.15,4.35-0.15c-0.233,0.133-0.45,0.267-0.649,0.4l-2.7,1.75
	c-0.134,0.1-0.25,0.2-0.351,0.3c-0.199,0.167-0.399,0.333-0.6,0.5c-1.434,1.333-2.316,2.633-2.65,3.9
	c-3.1,0.233-6.25,0.25-9.449,0.05c-0.867-0.067-1.7-0.133-2.5-0.2l-2.15-0.3c-0.2-0.034-0.4-0.067-0.6-0.1
	c-0.233-0.033-0.467-0.067-0.7-0.1l-3.351-0.7l-0.699-0.25c-0.2-0.066-1.101-0.45-2.7-1.15c-0.4-0.2-0.8-0.35-1.2-0.45l-1.1-0.35
	c-0.233-0.067-0.45-0.117-0.65-0.15c-0.467-0.067-0.9-0.117-1.3-0.15l-1.5-0.05c-1.334-0.067-2.3,0.083-2.9,0.45
	c-0.434,0.267-0.767,0.733-1,1.4c-0.2,0.867-0.366,1.55-0.5,2.05l-0.149,0.55c-0.117,0.554-0.309,1.112-0.575,1.675L198.55,71.5
	c-0.066,0.1-0.149,0.217-0.25,0.35l-0.024,0.025c-0.492,0.587-1.218,1.096-2.176,1.525c-1.267,0.566-2.1,0.949-2.5,1.149
	c-0.166,0.066-0.267,0.117-0.3,0.15c-0.488,0.325-0.88,0.708-1.175,1.149l-0.275,0.45c-0.079,0.146-0.146,0.296-0.199,0.45
	l-0.15,0.35c-0.167,0.534-0.217,1.301-0.15,2.301c0.101,1.133,0.15,1.916,0.15,2.35c0,0.333,0.233,2.467,0.7,6.4
	c0.066,0.533,0.133,1.1,0.2,1.699c0.399,3.4,0.216,6-0.551,7.801c-0.5,0-1.033,0.017-1.6,0.05c-0.733,0-1.517,0-2.35,0
	c-1.067,0.166-1.934,0.85-2.601,2.05c-0.3,0.566-0.517,1.684-0.65,3.35c-0.167,1.667-0.433,2.867-0.8,3.601
	c-0.4,0.8-1.083,1.8-2.05,3c-1.233,1.533-1.983,2.483-2.25,2.85c-1.733,2.533-2.983,4.101-3.75,4.7c-1.167,0.934-3.083,1.6-5.75,2
	c-0.933,0.134-3.417,0.3-7.45,0.5c-3.133,0.134-5.583,0.483-7.35,1.05l-3.4,1.45c-0.5,0.2-1.017,0.45-1.55,0.75
	c-0.233,0.1-0.466,0.217-0.7,0.35l-0.75,0.351c-2.767,1.399-4.967,2.316-6.6,2.75l-0.15,0.05c-0.133,0.033-0.267,0.066-0.4,0.1
	c-0.434,0.101-0.85,0.2-1.25,0.301l-8.25,0.149c-0.133-0.033-0.25-0.05-0.35-0.05c-0.1-0.033-0.167-0.05-0.2-0.05
	c-0.333-0.066-0.65-0.15-0.95-0.25c-0.067,0-0.133-0.017-0.2-0.05c-2.767-0.801-6.233-2.617-10.4-5.45c-0.4-0.267-1.95-1-4.65-2.2
	c0.1,0,0.216,0.017,0.35,0.05c2.534,0.367,3.967,0.601,4.3,0.7c1.433,0.533,2.533,0.934,3.3,1.2c1.367,0.5,2.5,0.616,3.4,0.35
	c0.567-0.166,0.983-0.616,1.25-1.35c0.3-0.767,0.667-1.217,1.1-1.351c1.067-0.3,2.75-0.449,5.05-0.449c2.7,0,4.466-0.067,5.3-0.2
	c-2,1.533-4.583,2.3-7.75,2.3c0.2,0.5,1.933,1.116,5.2,1.85c3.133,0.7,5.267,1,6.4,0.9c1.2-0.134,2.566-0.684,4.1-1.65
	c1.566-1.1,2.75-1.916,3.55-2.449c1.4-1,2.583-1.684,3.55-2.051l1.55-0.5c0.967-0.267,1.85-0.466,2.65-0.6
	c1.067-0.167,1.883-0.3,2.45-0.4c0.933-0.199,1.733-0.399,2.4-0.6c0.467-0.134,1.217-0.417,2.25-0.85
	c0.967-0.4,1.717-0.667,2.25-0.801l1.85-0.149c2.767,0.2,4.7,0.166,5.8-0.101c1.833-0.466,2.8-2.05,2.9-4.75
	c-1.033-0.466-2.667-0.733-4.9-0.8c-2.267-0.1-3.933-0.366-5-0.8c2.967-0.233,5.067-0.717,6.3-1.45
	c1.034-0.566,2.717-2.149,5.05-4.75c0.133-0.133,0.75-0.883,1.85-2.25c0.767-0.967,1.433-1.733,2-2.3
	c1.033-1.033,2.083-1.783,3.149-2.25c0.733-0.267,1.301-0.434,1.7-0.5c0-0.4-0.133-1.566-0.399-3.5c-0.167-1.4-0.167-2.566,0-3.5
	c0.066-0.4,0.533-1.75,1.399-4.05c0.601-1.5,0.717-2.9,0.351-4.2c-1.867-0.1-4.7-0.184-8.5-0.25c-3.233-0.233-5.917-0.917-8.05-2.05
	c-1-0.566-1.833-1.134-2.5-1.7l1.85,0.45c3.966,0.833,7.733,1.05,11.3,0.649c4.2-0.5,7.55-1.833,10.05-4
	c1.2-1.033,2.2-2.333,3-3.899c0.5-1,0.867-2.017,1.101-3.05l0.949,0.35c0.733-2.133,2.717-3.533,5.95-4.2
	c3.767-0.767,6.05-1.566,6.851-2.4c1.399-1.467,2.533-4.2,3.399-8.2c0.9-4.267,1.884-7.1,2.95-8.5c0.2,1.633,0,4.183-0.6,7.65
	C217.134,52.867,216.717,55.683,216.65,57.05z M133.55,92.75c-0.5,0.6-1.066,1.35-1.7,2.25l-0.3,0.05
	c-2.767,0.467-4.483,1.533-5.15,3.2c-0.133,0.3-0.233,0.634-0.3,1L126,99.9c-1.5,0.533-3.417,0.916-5.75,1.149l-0.95,0.101
	c-0.767,0.066-1.95,0.133-3.55,0.199l-2.1,0.15c0,0.066-0.45,2.167-1.35,6.3c-0.6,2.7-0.867,4.8-0.8,6.3c0,0.067,0,0.134,0,0.2
	c0,0.167,0.017,0.334,0.05,0.5l0.45,1.95c0.1,0.2,0.2,0.384,0.3,0.55c-0.767-0.5-1.367-1.033-1.8-1.6l-0.75-1.65
	c-0.067-0.666,0.117-1.217,0.55-1.649c0.1-0.101,0.2-0.2,0.3-0.301c0.3-0.399,0.483-0.733,0.55-1c0.067-0.366,0.133-1.033,0.2-2
	c0.033-0.399,0.066-0.767,0.1-1.1c0.033-0.366,0.083-0.667,0.15-0.9c0.066-0.199,0.267-1.366,0.6-3.5v-0.05
	c0.233-1.5,0.533-2.649,0.9-3.45c0.933-2.133,2.9-3.366,5.9-3.699c4.233-0.5,6.733-0.934,7.5-1.301
	c1.933-0.933,3.333-2.517,4.2-4.75c0.267-0.666,0.483-1.383,0.65-2.149c0.167-0.8,0.35-2.033,0.55-3.7l0.1-0.9l0.3-4.5
	c0-0.033,0-0.066,0-0.1c-0.033-1.366-0.25-2.483-0.65-3.35c0.6,0.233,0.917,0.683,0.95,1.35c0.033,0.333,0.017,0.983-0.05,1.95
	c-0.066,0.934-0.05,1.633,0.05,2.1c0.367,1.467,0.983,2.3,1.85,2.5c1.433,0.066,2.8,0.2,4.1,0.4c-1.667,2-3.383,3.283-5.15,3.85
	C133.9,89.566,133.95,91.217,133.55,92.75z M130,68.8c1.2,0.367,2.1,0.633,2.7,0.8c1.033,0.267,1.917,0.383,2.65,0.35
	c3.533,0,6.2-1.217,8-3.65c0.733-0.933,1.417-2.216,2.05-3.85c-0.066,3.6-0.117,5.466-0.15,5.6c-0.3,1.367-1.4,2.417-3.3,3.15
	c-0.267,0.1-2.534,0.116-6.8,0.05c-3.1-0.033-4.767,0.816-5,2.55c-0.15-0.112-0.316-0.229-0.5-0.35l-0.45-0.3
	c-0.7-0.4-1.567-0.851-2.6-1.351c-2.033-0.967-3.2-1.533-3.5-1.7h0.05c0.633-1.066,1.483-1.683,2.55-1.85
	c0.066-0.033,0.133-0.05,0.2-0.05c0.033,0,0.067,0,0.1,0c0.033-0.034,0.083-0.05,0.15-0.05C127.083,68.05,128.367,68.267,130,68.8z
	 M77.4,70.4c-0.4,0.1-0.767,0.183-1.1,0.25c-0.867,0.199-1.633,0.333-2.3,0.399c-2.767,0.334-5.233-0.017-7.4-1.05
	c-0.2-0.1-0.4-0.2-0.6-0.3c-0.333-0.2-0.633-0.383-0.9-0.55c-0.033-0.033-0.067-0.066-0.1-0.1c-0.533-0.367-1.05-0.783-1.55-1.25
	l-1.15-1.25l-0.15-0.15c-0.333-0.367-0.65-0.8-0.95-1.3l-3.45-6.05c-0.433-0.833-0.867-1.733-1.3-2.7
	c-1-2.233-1.883-3.917-2.65-5.05c-1-1.5-2.367-2.966-4.1-4.4c-0.8-0.667-1.867-1.45-3.2-2.35c-1-0.8-1.617-1.767-1.85-2.9
	c-0.1-0.467,0.05-1.533,0.45-3.2L45.25,38c0.033-0.167,0.067-0.333,0.1-0.5c0.566-2.067,0.733-3.533,0.5-4.4
	c0.733,0.133,1.383,0.417,1.95,0.85c0.967,0.733,1.5,1.9,1.6,3.5c0.167,2.333,0.35,3.767,0.55,4.3c2.033,0.3,3.683,0.733,4.95,1.3
	c0.1,1.034,0.417,2.05,0.95,3.05c0.566,0.967,1.233,1.733,2,2.3c1.267,0.9,2.483,1,3.65,0.3l0.65,0.2
	c-0.433,0.567-0.933,1.067-1.5,1.5c-1.4,1.067-2.967,1.7-4.7,1.9c-0.133,0.333-0.117,0.667,0.05,1c0.267,0.167,1.15,0.434,2.65,0.8
	c1.2,0.3,1.967,0.667,2.3,1.1c0.167,0.2,0.2,0.633,0.1,1.3c-0.133,0.667-0.15,1.1-0.05,1.3c2.067,4.1,3.567,7.233,4.5,9.4l0.4,0.9
	c4.1,0.767,6.184,1.15,6.25,1.15c2.333,0.2,4.167-0.283,5.5-1.45c0.934-0.833,1.65-2.133,2.15-3.9c0.5-1.967,1.067-3.316,1.7-4.05
	c-0.133,2.833,1.317,3.867,4.35,3.1c3.4-1.367,5.383-2.034,5.95-2c0.367,0.033,1.217,0.417,2.55,1.15c1.333,0.7,2.333,1.1,3,1.2
	c1.733,0.3,2.983,0.383,3.75,0.25l-0.05,0.15l-0.1,0.15c-0.667,0.633-1.367,1.167-2.1,1.6l-0.1,0.05c-0.7,0.433-1.683,0.9-2.95,1.4
	c-1.333,0.567-2.383,0.934-3.15,1.1c-0.8,0.2-2,0.283-3.6,0.25c-1.7-0.067-2.9-0.033-3.6,0.1c-1.133,0.2-3.017,0.667-5.65,1.4
	l-1.85,0.5C77.75,70.316,77.567,70.366,77.4,70.4z M106.55,60c-0.533,0.1-1.017,0.25-1.45,0.45l-4.2,1.25
	c-0.267,0.267-0.45,0.583-0.55,0.95c-0.033-4.933,0.117-8.467,0.45-10.6c0.767-4.533,2.45-7.05,5.05-7.55
	c-0.6,2.8-0.934,4.917-1,6.35c-0.1,2.566,0.617,4.35,2.15,5.35c0.267,0.133,0.567,0.25,0.9,0.35c0.067,0,0.117,0,0.15,0l1.85-0.05
	c0.126-0.025,0.243-0.042,0.35-0.05c0.034,0,0.068,0,0.1,0c0.9,0,1.617,0.25,2.15,0.75c0.567,0.566,1.15,2.133,1.75,4.7
	c-0.033-0.033-0.067-0.066-0.1-0.1c-0.167-0.133-0.333-0.25-0.5-0.35c-0.267-0.2-0.533-0.367-0.8-0.5l-4.2-1.15
	c-0.367,0-0.717,0.017-1.05,0.05h-0.2C107.1,59.883,106.817,59.933,106.55,60z M130.35,97.5c0.5-0.934,1-1.767,1.5-2.5l0.8-0.1
	L132,95.85C131.6,96.384,131.05,96.934,130.35,97.5z M61.8,48.5c0.6-0.433,1.15-1.133,1.65-2.1c-0.2,0.7-0.517,1.383-0.95,2.05
	L61.8,48.5z M42.4,31.35l0.05,0.05c-0.8,0-1.333-0.05-1.6-0.15c-0.2-0.067-0.4-0.133-0.6-0.2c-1.067-0.433-1.817-1.1-2.25-2
	c-0.267-0.6-0.533-1.1-0.8-1.5c-0.367-0.566-0.717-0.966-1.05-1.2c-0.033-0.033-0.083-0.067-0.15-0.1c2.7,0,4.3,0.217,4.8,0.65
	c0.6,0.5,0.95,1.217,1.05,2.15C41.95,30.183,42.133,30.95,42.4,31.35z"/>
</svg>
