<?xml version="1.0" encoding="iso-8859-1"?>
<!-- Generator: Adobe Illustrator 15.1.0, SVG Export Plug-In . SVG Version: 6.00 Build 0)  -->
<!DOCTYPE svg PUBLIC "-//W3C//DTD SVG 1.1//EN" "http://www.w3.org/Graphics/SVG/1.1/DTD/svg11.dtd">
<svg version="1.1" id="FlashAICB" xmlns="http://www.w3.org/2000/svg" xmlns:xlink="http://www.w3.org/1999/xlink" x="0px" y="0px"
	 width="236.7px" height="205.75px" viewBox="0 0 236.7 205.75" style="enable-background:new 0 0 236.7 205.75;"
	 xml:space="preserve">
<path style="fill-rule:evenodd;clip-rule:evenodd;fill:#6C5C47;" d="M235.55,89.95c-0.166-0.267-0.35-0.517-0.55-0.75
	c-0.233,0.167-0.517,0.333-0.85,0.5c-0.434-1.434-1.051-3.317-1.851-5.65c-1.066,1.7-2.3,2.7-3.7,3c-0.899,0.2-2.583,0.3-5.05,0.3
	c1.4,0.7,2.267,1.2,2.601,1.5c0.533,0.467,0.533,1.333,0,2.6c-0.534,1.2-1.917,2.183-4.15,2.95c-0.134,0.033-0.983,0.217-2.55,0.55
	c-0.7,0.133-1.384,0.583-2.05,1.35c-0.534,0.6-0.934,1.767-1.2,3.5c-0.334,1.8-0.75,3.034-1.25,3.7
	c-0.334,0.467-0.867,0.85-1.601,1.15c-0.199-0.667-0.316-1.334-0.35-2c-0.1-2.533-0.134-4-0.1-4.4c0-1.733,0.199-3.183,0.6-4.35
	c0.233-0.767,0.783-1.733,1.65-2.9c0.933-1.2,1.517-2.117,1.75-2.75c0.767-1.933,1.017-4.417,0.75-7.45
	c-0.134-1.466-0.551-3.966-1.25-7.5c-0.434-2.433-1.634-4.716-3.601-6.85c-2.434-2.667-4-4.733-4.7-6.2
	c-0.6-1.267-0.866-3.05-0.8-5.35c0.033-1,0.101-2.367,0.2-4.1c1.833-0.733,4.366-1.083,7.6-1.05c4.9,0.033,7.801-0.033,8.7-0.2
	c2.834-0.566,5.134-2.167,6.9-4.8c1-1.5,1.566-2.85,1.7-4.05c0.133-0.233,0.267-0.45,0.399-0.65c0.101,0.4,0.184,0.8,0.25,1.2
	c0.167,1.133,0.184,2.817,0.05,5.05c-0.166,2.3-0.183,3.967-0.05,5c0.066,0.733,0.3,1.65,0.7,2.75c0.434,1.233,0.7,2.133,0.8,2.7
	c0.267,1.367,0.334,3.283,0.2,5.75c-0.134,2.933-0.167,4.85-0.1,5.75c0.6,5.267,0.883,9.267,0.85,12c0.066,4.067,0.083,7.1,0.05,9.1
	C235.55,89.55,235.55,89.75,235.55,89.95z M105,58.65l2.25,0.65c1.133,1.067,2.117,2.983,2.95,5.75c0.466,1.967,0.9,3.6,1.3,4.9
	c0.1,2.433,0.45,4.5,1.05,6.2c0.1,0.3,0.434,0.717,1,1.25c0.534,0.533,0.867,0.983,1,1.35c0.267,0.733,0.35,1.967,0.25,3.7
	c-0.167,2.433-0.25,3.7-0.25,3.8c0,0.567,0.117,1.8,0.35,3.7c0.2,1.6,0.25,2.8,0.15,3.6c-0.133,0.9-0.45,1.567-0.95,2
	c-0.533,0.467-0.867,0.867-1,1.2c-0.167,0.533-0.4,1.817-0.7,3.85c-0.233,1.5-0.683,2.733-1.35,3.7
	c-0.233,0.334-0.733,0.717-1.5,1.15c-0.7,0.399-1.167,0.833-1.4,1.3c-0.433,0.8-0.633,1.8-0.6,3v3.1
	c-0.133,1.2-0.367,2.567-0.7,4.101c-0.434,2.1-0.867,3.383-1.3,3.85c-0.233,0.267-1.733,0.75-4.5,1.45c-2.8,0.7-4.6,1.017-5.4,0.95
	c-1.533-0.134-3.066-1.084-4.6-2.851c-2.133-2.533-3.316-3.883-3.55-4.05c-1.533,2-3.683,2.65-6.45,1.95c-1.1-0.3-2.05-0.7-2.85-1.2
	c-0.034-0.133-0.05-0.25-0.05-0.35c1.333-0.667,2.75-1.917,4.25-3.75c2.367-2.9,4.717-4.101,7.05-3.601
	c0.233,1.534,0.433,2.733,0.6,3.601c0.3,1.533,0.733,2.566,1.3,3.1c0.767,0.733,2.333,1.2,4.7,1.4s3.9-0.017,4.6-0.65
	c1.7-1.533,1.767-3.616,0.2-6.25c-1.467-2.533-3.25-3.967-5.35-4.3l-2-3c-2.267,1.3-6.367,2.5-12.3,3.6
	c-1.333,0.467-2.434,1.101-3.3,1.9c-0.2-0.9-0.6-1.816-1.2-2.75c-0.333-0.533-0.617-1-0.85-1.4c-0.6-1.866-1.567-3.85-2.9-5.95
	c-3.667-5.733-5.767-9.5-6.3-11.3C65.95,85.017,67.067,81.9,70,78c1.933-2.567,3.317-4.783,4.15-6.65
	c0.934-0.467,1.733-0.833,2.4-1.1c0.767-0.3,3.167-1.367,7.2-3.2c2.967-1.367,5.383-2.3,7.25-2.8c1.633-0.333,2.817-0.583,3.55-0.75
	c0.633-0.133,1.233-0.3,1.8-0.5c1.433,0.767,2.533,1.683,3.3,2.75c0.5,0.7,0.934,2.25,1.3,4.65c0.333,2,1,3.267,2,3.8
	c0.066-0.8,0.5-3.784,1.3-8.95C104.65,62.717,104.9,60.517,105,58.65z M127.4,106.1c-1.167,0.867-2.084,2.483-2.75,4.851
	c-0.767,4.233-1.334,6.983-1.7,8.25c-0.2,0-0.434,0.017-0.7,0.05c-0.033-0.066-0.05-0.134-0.05-0.2
	c-0.267-2.566-0.3-4.633-0.101-6.2c0.134-0.866,0.517-1.966,1.15-3.3c0.7-1.434,1.134-2.517,1.3-3.25
	c0.5-2.133,0.617-4.483,0.351-7.05c-0.267-2.767-0.917-4.933-1.95-6.5c-1.533-2.267-2.467-3.767-2.8-4.5
	c-0.634-1.4-1.017-3.233-1.15-5.5c-0.033-0.533-0.3-2.367-0.8-5.5c-0.367-2.333-0.417-4.117-0.15-5.35c0.2-1,0.65-1.767,1.351-2.3
	c1.033-0.767,1.716-1.4,2.05-1.9c0.233-0.367,0.467-1.467,0.7-3.3c0.199-1.533,0.649-2.517,1.35-2.95
	c0.566-0.367,1.366-0.383,2.4-0.05c0.866,0.267,1.616,0.067,2.25-0.6c0.466-0.5,0.666-1.617,0.6-3.35
	c-0.033-0.934-0.116-2.117-0.25-3.55c0-0.6,0.017-1.133,0.05-1.6c1.533-0.533,2.95-0.833,4.25-0.9c0.867-0.033,1.783,0.05,2.75,0.25
	l-0.05,0.1c1.4,0.267,2.9,1.117,4.5,2.55c1.833,1.633,3.134,2.6,3.9,2.9c0.066,0,0.333-0.233,0.8-0.7s0.75-0.683,0.85-0.65
	c0.2,0.1,0.517,0.316,0.95,0.65c0.467,0.367,0.783,0.583,0.95,0.65c0.133,0.067,0.333,0.5,0.6,1.3c0.267,0.7,0.717,1.133,1.351,1.3
	c0.199-0.667,0.466-1.333,0.8-2c0.233,1.767,0.6,3.333,1.1,4.7c0.3,1.466,0.75,3.417,1.351,5.85c1.199,5.8,2.166,10.117,2.899,12.95
	c1.267,4.9,2.9,8.95,4.9,12.15c0.333-3.1,0.25-7.617-0.25-13.55c-0.566-6.467-0.783-11.05-0.65-13.75c0.066-1.434,0.384-3.1,0.95-5
	c0.8-2.533,1.267-4.15,1.4-4.85c0.133-0.667,0.25-1.65,0.35-2.95c0.066-1.566-0.017-2.5-0.25-2.8
	c-0.033-0.067-0.083-0.117-0.15-0.15c3.801-0.233,6.851-0.434,9.15-0.6c2.833-0.233,4.934-0.35,6.3-0.35
	c2.3-0.033,4.334,0.25,6.101,0.85c2.333,0.833,3.716,1.317,4.149,1.45c1.434,0.4,2.9,0.617,4.4,0.65
	c0.1,1.133,1.184,2.417,3.25,3.85c1.467,1.033,3.017,1.9,4.649,2.6c0.5,2.2,1.733,5.167,3.7,8.9c1.101,1.9,1.816,3.25,2.15,4.05
	c0.533,1.2,0.8,2.717,0.8,4.55c-0.2,1.767-0.2,2.917,0,3.45c0.233,0.633,0.717,1.25,1.45,1.85c0.833,0.633,1.366,1.183,1.6,1.65
	c1,1.8,1.5,4.583,1.5,8.35c0,3.7-0.5,6.383-1.5,8.05c-0.3,0.5-1.017,1.283-2.149,2.35c-0.934,0.9-1.567,1.833-1.9,2.8
	c-0.066,0.2-0.033,0.717,0.1,1.55c0.134,0.767,0.117,1.25-0.05,1.45c-0.666,0.9-1.883,1.2-3.649,0.9c-1-0.167-2.483-0.5-4.45-1
	c-0.267,0.666-0.483,2.533-0.65,5.6c-0.133,2.3-0.816,3.983-2.05,5.05c-1.366,1.167-4.65,1.634-9.85,1.4
	c-0.567-1.767-0.167-4.7,1.199-8.8c1.2-3.667,1.184-6.351-0.05-8.05c-0.133-0.2-0.616-0.316-1.45-0.35
	c-0.866-0.066-1.416-0.233-1.649-0.5c-0.367-0.433-0.566-1.216-0.601-2.35c0-0.6,0.051-1.434,0.15-2.5c0.066-2.333,0.5-5.3,1.3-8.9
	c-0.633-0.167-1.616-0.4-2.95-0.7c-1.199-0.267-2.183-0.55-2.949-0.85c-0.2,2.133-0.384,3.75-0.551,4.85
	c-0.333,1.967-1.116,3.3-2.35,4c-1.5,0.833-3.967,0.983-7.4,0.45c-3.966-0.633-6.5-0.85-7.6-0.65c0.1,1.333,0.833,2.45,2.2,3.35
	c2,1.333,3.1,2.133,3.3,2.4c2.2,2.534,3.55,5.9,4.05,10.1c0.367,1.967,0.634,3.467,0.8,4.5c0.334,1.866,0.4,3.35,0.2,4.45
	c-1.333,0.899-3.566,1.116-6.7,0.649c-3.399-0.5-5.683-0.533-6.85-0.1c-0.634,0.233-1.2,0.667-1.7,1.3
	c-0.733,0.867-1.267,1.45-1.6,1.75c-1.7,1.434-3.4,2.467-5.101,3.101c-2.3,0.833-4.267,0.8-5.899-0.101
	c-1.533-0.833-2.267-1.833-2.2-3c0-0.166,0.017-0.316,0.05-0.45c0.167-0.5,0.7-1.716,1.601-3.649c0.833-1.834,1.366-3.351,1.6-4.55
	c0.233-1.2,0.316-2.884,0.25-5.051c-0.866,0.634-1.684,1.2-2.45,1.7c0-0.3,0-0.6,0-0.899c-1.566,1.3-3.75,2.449-6.55,3.449
	c-0.1,0.034-0.184,0.067-0.25,0.101c-2.767,0.1-4.45-1.684-5.05-5.351c0.633,0.067,1.467,0,2.5-0.199c0.1,0,0.333-0.25,0.7-0.75
	c0.366-0.534,0.733-0.834,1.1-0.9c0.4-0.1,1.083-0.083,2.05,0.05c0.9,0.134,1.566,0.134,2,0c1.467-0.399,2.45-1.283,2.95-2.649
	c0.566-1.467-0.1-2.434-2-2.9v-1c-0.7,0.133-2.983,0.5-6.85,1.1C129.05,102.75,127.467,104.167,127.4,106.1z M191.7,72.4
	c-0.267,0.533-1.033,1.184-2.3,1.95c-0.967,0.6-1.384,1.383-1.25,2.35c4.5,1.6,7.3,0.7,8.399-2.7c1.033-3.2,0.184-6.617-2.55-10.25
	v3c-1.333,0.233-2,0.967-2,2.2C191.967,70.917,191.866,72.067,191.7,72.4z M188.7,70.15c0.2-0.667,0.3-3.133,0.3-7.4l-1.5-3
	c-3.3,2.5-5.684,4.567-7.15,6.2c-2.699,3-1.833,5.117,2.601,6.35C186.083,73.2,188,72.483,188.7,70.15z M165.1,79.15
	c-1.5,1.2-2.517,2.867-3.05,5c-0.8,3.167-1.116,5.333-0.95,6.5c4.967,0.967,7.717,1.467,8.25,1.5c3.367,0.1,5.567-1.15,6.601-3.75
	c0.833-2.133,0.6-3.933-0.7-5.4c-1.2-1.367-2.95-2.117-5.25-2.25l0.5-5.5C167.833,77.117,166.033,78.417,165.1,79.15z M210.4,114.1
	l-4.051,4.101c-0.233,0.066-0.466,0.133-0.699,0.2l4.899-4.851l1.15-1.149v0.35l-1.2,1.25c0-0.167,0.017-0.316,0.05-0.45
	C210.483,113.717,210.434,113.9,210.4,114.1z M194.05,81.4c-1.5,0.867-2.583,1.583-3.25,2.15c-1.166,1-1.6,2.067-1.3,3.2l1.5-1.5
	c-0.733,2.1-1.15,3.667-1.25,4.7c-0.066,1.433-0.15,2.883-0.25,4.35c-0.066,0.9-0.35,1.917-0.85,3.05
	c-0.601,1.333-0.967,2.283-1.101,2.85c1.3,0.033,2.967,0.3,5,0.8c2.267,0.567,3.75,0.883,4.45,0.95c3.033,0.3,5.083-1.267,6.15-4.7
	c1.1-3.6,1.55-7.733,1.35-12.4c-0.233-5.033-1.217-8.983-2.95-11.85c-1.166,1.967-2.267,3.55-3.3,4.75
	C197.083,79.05,195.684,80.267,194.05,81.4z M189,107.25c-1.333,1.7-1.967,3.2-1.9,4.5c0.067,1.134,0.551,1.816,1.45,2.05
	c0.934,0.2,1.75-0.184,2.45-1.149c0.833-1.134,1.167-2.767,1-4.9L189,107.25z M95,81.25c1.467,5.567,0.967,9.4-1.5,11.5
	c-1.067,0.967-2.733,1.433-5,1.4c-2.5-0.033-4.167,0.167-5,0.6c0.967,0.867,2.567,1.55,4.8,2.05c2.4,0.5,3.983,1.017,4.75,1.55
	c0.6,0.433,1.367,1.683,2.3,3.75c0.733,1.7,1.733,2.583,3,2.65c1.5-4.5,2.25-8.633,2.25-12.4c0.033-5.033-1.333-8.9-4.1-11.6
	L95,81.25z M85.35,84c-1.333,1.9-1.917,4.3-1.75,7.2c2.8,0.667,5.467-0.633,8-3.9c2.566-3.333,2.867-6.183,0.9-8.55H91
	C88.167,80.883,86.283,82.633,85.35,84z M106,82.25c-1.1,2.333-1.783,4.433-2.05,6.3c-0.133,2.333-0.267,4.367-0.4,6.1
	c-0.566,2.2-0.933,3.95-1.1,5.25c-0.3,2.467,0.4,3.784,2.1,3.95c0.5,0.034,1.434-0.616,2.8-1.95c1.233-1.2,2.017-2.1,2.35-2.7
	c0.633-1.067,1.033-3.383,1.2-6.95c0.067-1.6-0.5-3.25-1.7-4.95c-1.333-1.833-2.067-3.35-2.2-4.55L106,82.25z M143.6,67.15
	c-0.466-0.433-1.199-1.333-2.199-2.7c-0.967-1.267-1.767-2.167-2.4-2.7l-2-3c0.033,3.2,0.917,6.967,2.65,11.3
	c2.3,5.667,3.649,9.35,4.05,11.05c0.267,1.066,0.467,3.283,0.6,6.65c0.134,2.9,0.517,5.067,1.15,6.5
	c0.366,0.833,1.116,1.917,2.25,3.25c1.2,1.433,1.983,2.483,2.35,3.15c-0.133-1.3,0.267-3.017,1.2-5.15c1.1-2.467,1.7-4.167,1.8-5.1
	c0.167-1.467-0.066-3.35-0.7-5.65c-0.8-2.933-1.25-4.783-1.35-5.55c-0.066-0.4-0.05-1.15,0.05-2.25
	c0.033-0.967-0.017-1.733-0.149-2.3c-0.434-1.733-1.417-3.183-2.95-4.35C147.05,69.667,145.6,68.617,143.6,67.15z M129.5,72.75
	c-0.733,2.8-0.884,5.617-0.45,8.45c0.5,3.5,1.834,5.85,4,7.05c1.5,0.8,2.533,0.5,3.101-0.9c0.466-1.1,0.6-2.7,0.399-4.8
	c-0.1-1.6-0.733-3.3-1.899-5.1c-1.467-2.267-2.351-3.833-2.65-4.7H129.5z M3.15,121c-0.033-0.233-0.083-0.467-0.15-0.7l-0.55-3
	c-0.6-4.666-1.017-8.684-1.25-12.05C1.067,103.217,1,100.833,1,98.1c0-2.167-0.217-5.967-0.65-11.4
	c-0.033-0.867-0.05-1.684-0.05-2.45c0.534,0.533,1.25,0.733,2.15,0.6C2.783,86.083,3,87.367,3.1,88.7c2.8,0.1,4.75,0.833,5.85,2.2
	c0.5,0.6,1.35,2.567,2.55,5.9c0.667-0.6,0.983-1.867,0.95-3.8c-0.067-1.933,0.267-3.2,1-3.8c0.6-0.467,1.633-0.684,3.1-0.65
	c1.667,0.133,2.784,0.184,3.35,0.15c1.9-0.133,3.167-0.15,3.8-0.05c1.3,0.167,2.45,0.733,3.45,1.7c2.667,2.6,3.767,6.767,3.3,12.5
	c-1.067,6.534-1.717,11.1-1.95,13.7c-0.067,0.9-0.067,2.267,0,4.101c0.067,1.833,0.067,3.216,0,4.149c-0.1,1.634-0.2,2.566-0.3,2.8
	c-0.1,0.233-0.7,0.834-1.8,1.801c-1.6,1.433-3.283,2.066-5.05,1.899c-1.067-0.066-2.833-0.416-5.3-1.05
	c-0.966-0.134-2.25-0.167-3.85-0.1c-1.333-0.034-2.5-0.45-3.5-1.25c-0.367-0.301-0.8-0.884-1.3-1.75
	c-0.6-1.034-1.017-1.684-1.25-1.95C4.817,123.5,3.817,122.1,3.15,121z M5.8,130.1c-0.233-0.533-0.433-1.083-0.6-1.649
	c0.267,0.6,0.517,1.166,0.75,1.7C5.883,130.116,5.833,130.1,5.8,130.1z M46,133.25c1.267-1.7,2.517-2.767,3.75-3.2
	c1.7-0.333,3.3-0.8,4.8-1.399c0.5-0.2,1.684-0.851,3.55-1.95c1.367-0.8,2.667-1.283,3.9-1.45l-2-1c-2.1-0.066-4.467,0.033-7.1,0.3
	c-3.533,0.367-5.75,0.967-6.65,1.8c-0.333,0.334-0.6,0.733-0.8,1.2c0-0.434,0.017-0.816,0.05-1.149
	c-2.7-1.067-4.517-3.667-5.45-7.801c-0.533-2.333-1.183-5.75-1.95-10.25c-1.434-4.366-1.45-9.35-0.05-14.95
	c0.5-2.033,1.517-4.333,3.05-6.9c1.767-3,2.933-5,3.5-6c2.367-0.167,4.333-0.117,5.9,0.15c2.4,0.434,3.833,1.767,4.3,4
	c0.6,2.833,1.483,4.7,2.65,5.6c0-0.367,0.017-0.85,0.05-1.45c0.667,3.067,1.167,5.383,1.5,6.95L59.75,95
	c-1,2.1-1.133,5.967-0.4,11.6c0.9,7,2.083,11.867,3.55,14.601c0.6,1.1,1.233,1.95,1.9,2.55c-0.233,0.366-0.55,0.884-0.95,1.55
	C63.417,126,63.133,126.9,63,128c0,0.033,0.017,1.25,0.05,3.65c0.034,1.699-0.167,2.866-0.6,3.5c-1.367,2.033-3.983,2.816-7.85,2.35
	c-2.567-0.3-5.417-1.083-8.55-2.35C46.083,134.684,46.067,134.05,46,133.25z M24.5,97.05c0.3-0.8,0.467-1.733,0.5-2.8l-0.5,0.5
	C24.5,95.583,24.5,96.35,24.5,97.05c-0.9,2.067-2.867,3-5.9,2.8c-0.133,0.367-0.2,0.85-0.2,1.45c0,0.6,0.067,1.083,0.2,1.45
	c2.767,0.2,4.517-0.4,5.25-1.8C24.183,100.283,24.4,98.983,24.5,97.05z M17.5,98.75c4.233-2.7,4.9-4.533,2-5.5
	c-3.067-1.033-4.233,0.967-3.5,6L17.5,98.75z M47.85,99.5c-0.1,0.167-0.2,0.333-0.3,0.5c-0.6,0.967-1.417,1.767-2.45,2.4
	c-0.1,0-0.2,0.017-0.3,0.05c-2.966,0.666-4.733,1.217-5.3,1.649c0.233,0.9,2.017,1.884,5.35,2.95c3.4,1.101,5.633,1.316,6.7,0.65
	c1.867-1.2,2.417-4,1.65-8.4c-0.4-2.367-1.133-5.383-2.2-9.05l-0.5-2c-2.2,1.2-3.2,2.7-3,4.5c0.6,2.3,0.783,4.217,0.55,5.75
	C48.017,98.867,47.95,99.2,47.85,99.5z M45.5,89.75h-2c-2.333,0.6-3.767,2.05-4.3,4.35c-0.3,1.2-0.333,3.4-0.1,6.6
	c2.533,0.667,4.367-0.467,5.5-3.4C45.5,95,45.8,92.483,45.5,89.75z M76.5,76.75c-2.067,1.367-3.683,2.6-4.85,3.7
	c-2.233,2.1-2.65,3.883-1.25,5.35c0.9,0.934,1.934,0.167,3.1-2.3c1.367-2.867,2.533-4.283,3.5-4.25L76.5,76.75z M51,108.25
	c0.1,1.4-0.783,2.366-2.65,2.9c-2.4,0.699-3.8,1.267-4.2,1.699c-0.433,0.5-0.816,1.534-1.15,3.101
	c-0.267,1.233-0.417,2.316-0.45,3.25c1.2-1.334,2.317-2.267,3.35-2.8c1.033-0.567,2.417-0.95,4.15-1.15c0.2-0.033,1.3,0.05,3.3,0.25
	c1.6,0.167,2.6,0.066,3-0.3c1.833-1.566,1.95-2.983,0.35-4.25c-1.3-1.033-2.867-1.601-4.7-1.7L51,108.25z M10.3,118
	c-0.533-0.1-0.95-0.15-1.25-0.15c0.034,0.034,0.083,0.067,0.15,0.101c-1.633,0-2.8,0.083-3.5,0.25c0.667,1.2,2.15,2.233,4.45,3.1
	c2.667,0.834,4.483,1.4,5.45,1.7c2.1,0.7,3.4,0.884,3.9,0.55c0.633-0.434,0.983-2.017,1.05-4.75c0.467-0.1,0.95-0.116,1.45-0.05
	l-2-1.5c-1.6,0.8-3.983,1.083-7.15,0.85C11.917,118.033,11.067,118,10.3,118z M9.5,102.75H9c0.133,0.033,0.283,0.083,0.45,0.15
	c-1.2,3.5-1.833,6.767-1.9,9.8c4.034,0.467,6.85,0.55,8.45,0.25c2.733-0.5,3.717-2.533,2.95-6.101c-4.5-2.033-7.667-3.35-9.5-3.95
	C9.45,102.833,9.467,102.783,9.5,102.75z M147.15,110.25c-0.934,1.3-1.684,2.783-2.25,4.45c-0.834,1.934-1.483,3.5-1.95,4.7
	c-0.867,2.267-1.017,3.6-0.45,4c1,0.699,2.083,0.55,3.25-0.45c0.634-0.566,1.467-1.467,2.5-2.7c0.4-0.366,1.283-0.833,2.65-1.4
	c1.3-0.533,2.017-0.883,2.149-1.05c1-1.133,1.65-2.633,1.95-4.5c0.3-2.133-0.2-3.649-1.5-4.55l-2.5-1
	C149.7,107.75,148.417,108.583,147.15,110.25z"/>
<path style="fill-rule:evenodd;clip-rule:evenodd;fill:#5E5140;" d="M0.7,80c0.966,0.7,1.733,1.117,2.3,1.25
	c0.367,0.1,0.967,0.183,1.8,0.25l-0.3,0.25c0.567,0,1.117,0.017,1.65,0.05c0.934,0.367,2.1,0.717,3.5,1.05
	c4.633,0.8,7.4,1.3,8.3,1.5c0.133,1.4,0.883,2.2,2.25,2.4c1.767-0.067,3.05-0.067,3.85,0c1.633,0.167,2.6,0.317,2.9,0.45
	c0.333,0.2,0.9,0.883,1.7,2.05c0.934,1.367,1.533,3.433,1.8,6.2c0.267,3.033,0.667,5.1,1.2,6.2c0.267-0.867,0.467-2.333,0.6-4.4
	c0.1-1.833,0.4-3.283,0.9-4.35c0.3-0.667,1.017-1.883,2.15-3.65c0.9-1.433,1.517-2.7,1.85-3.8c0.467-1.567,0.8-2.934,1-4.1
	c2.567-0.367,4.533-0.633,5.9-0.8c0.2-0.033,0.383-0.05,0.55-0.05c-0.567,1-1.733,3-3.5,6c-1.533,2.567-2.55,4.867-3.05,6.9
	c-1.4,5.6-1.383,10.583,0.05,14.95c0.767,4.5,1.417,7.917,1.95,10.25c0.934,4.134,2.75,6.733,5.45,7.801
	c-0.033,0.333-0.05,0.716-0.05,1.149c-0.3,0.634-0.483,1.434-0.55,2.4c-0.1,1.633,0.267,2.733,1.1,3.3
	c0.067,0.8,0.083,1.434,0.05,1.9c3.133,1.267,5.983,2.05,8.55,2.35c3.867,0.467,6.483-0.316,7.85-2.35
	c0.433-0.634,0.633-1.801,0.6-3.5c-0.033-2.4-0.05-3.617-0.05-3.65c0.133-1.1,0.417-2,0.85-2.7c0.4-0.666,0.717-1.184,0.95-1.55
	c-0.667-0.6-1.3-1.45-1.9-2.55c-1.467-2.733-2.65-7.601-3.55-14.601c-0.733-5.633-0.6-9.5,0.4-11.6L59,95.75
	c-0.333-1.567-0.833-3.883-1.5-6.95c0-0.767,0.017-1.716,0.05-2.85c0.133-1.733,0.417-3.117,0.85-4.15c0.167-0.4,0.417-0.8,0.75-1.2
	c-0.1,1-0.15,2.35-0.15,4.05c0,1.9,1.05,4.75,3.15,8.55c1.333,2.4,2.117,4.45,2.35,6.15c-0.033-2-0.117-4.533-0.25-7.6
	c-0.067-3.8,0.15-6.983,0.65-9.55c0.2-1,0.85-3.367,1.95-7.1c0.267-0.133,0.55-0.267,0.85-0.4c2.6-1.434,4.75-2.55,6.45-3.35
	C73.317,73.217,71.933,75.433,70,78c-2.933,3.9-4.05,7.017-3.35,9.35c0.533,1.8,2.633,5.566,6.3,11.3c1.333,2.1,2.3,4.083,2.9,5.95
	c0.233,0.4,0.517,0.867,0.85,1.4c0.6,0.934,1,1.85,1.2,2.75c-1.867,1.634-2.683,3.967-2.45,7c-2.1-2.066-3.417-4.033-3.95-5.9
	c-0.033,1.867-0.05,3.301-0.05,4.301c0.033,1.767,0.216,3.166,0.55,4.199c0.133,0.4,0.617,1.134,1.45,2.2
	c0.733,0.967,1.133,1.667,1.2,2.101c0.267,1.899-0.333,2.883-1.8,2.949c-2.067,0.101-3.317,0.467-3.75,1.101
	c-0.6,0.899-0.55,2.967,0.15,6.2c0.833,3.699,1.217,5.833,1.15,6.399c-0.2,1.867-1.433,3.033-3.7,3.5
	c-2.067,0.434-2.983,1.884-2.75,4.351c-1.034-0.5-2.4-0.75-4.1-0.75c-2.3,0-3.75-0.051-4.35-0.15c-1.3-0.2-2.55-0.783-3.75-1.75
	c-1.5-1.2-2.65-1.983-3.45-2.35c-0.133-0.067-1.8-0.634-5-1.7c-0.3-0.101-0.6-0.217-0.9-0.351c-0.967-1.066-1.733-1.8-2.3-2.199
	c-0.233-0.167-0.65-0.367-1.25-0.601c-0.067-0.233-0.083-0.566-0.05-1c0.034-0.733-0.216-1.25-0.75-1.55
	c-0.433-0.233-1.333-0.217-2.7,0.05c-0.3,0.066-0.567,0.117-0.8,0.15c-0.033-0.066-0.05-0.134-0.05-0.2
	c0.1-0.566,0.267-1.167,0.5-1.8c0.9-2.5,1.383-3.9,1.45-4.2c0.6-3.134,0.617-6.566,0.05-10.3c-0.567-3.667-1.567-6.934-3-9.8
	c-1.1,1.399-1.7,3.333-1.8,5.8c-0.034,0.934,0.1,3.233,0.4,6.899c0.467,5.934-0.75,9.9-3.65,11.9c-1.967,1.333-4.417,1.934-7.35,1.8
	c-1.767-0.066-4.283-0.5-7.55-1.3c-0.133-0.033-0.733-0.083-1.8-0.15c-0.933-0.066-1.5-0.166-1.7-0.3
	c-0.6-0.3-1.167-0.767-1.7-1.399c-0.567-0.7-1-1.15-1.3-1.351c-0.267-0.166-0.633-0.3-1.1-0.399c-0.233-0.534-0.483-1.101-0.75-1.7
	c-0.5-1.066-1.067-2.267-1.7-3.601l-0.65-4.35c0.1,0.167,0.2,0.333,0.3,0.5c0.667,1.1,1.667,2.5,3,4.2
	c0.233,0.267,0.65,0.916,1.25,1.95c0.5,0.866,0.934,1.449,1.3,1.75c1,0.8,2.167,1.216,3.5,1.25c1.6-0.067,2.883-0.034,3.85,0.1
	c2.467,0.634,4.233,0.983,5.3,1.05c1.767,0.167,3.45-0.467,5.05-1.899c1.1-0.967,1.7-1.567,1.8-1.801c0.1-0.233,0.2-1.166,0.3-2.8
	c0.067-0.934,0.067-2.316,0-4.149c-0.067-1.834-0.067-3.2,0-4.101c0.233-2.6,0.883-7.166,1.95-13.7c0.466-5.733-0.633-9.9-3.3-12.5
	c-1-0.967-2.15-1.533-3.45-1.7c-0.633-0.1-1.9-0.083-3.8,0.05c-0.566,0.033-1.683-0.017-3.35-0.15c-1.466-0.033-2.5,0.184-3.1,0.65
	c-0.733,0.6-1.067,1.867-1,3.8c0.033,1.933-0.284,3.2-0.95,3.8c-1.2-3.333-2.05-5.3-2.55-5.9c-1.1-1.367-3.05-2.1-5.85-2.2
	c-0.1-1.333-0.317-2.617-0.65-3.85c-0.9,0.133-1.617-0.067-2.15-0.6c-0.066-0.067-0.133-0.133-0.2-0.2V79.9
	C0.267,79.933,0.467,79.967,0.7,80z M201.25,57.15c1.934,2.967,3.066,4.817,3.4,5.55c0.3-1.2,0.433-2.784,0.399-4.75
	c-0.066-2.767-0.083-4.383-0.05-4.85c0-0.2,0.033-0.483,0.1-0.85c0.233-0.2,0.434-0.367,0.601-0.5c0.5-0.367,1.1-0.683,1.8-0.95
	c-0.1,1.733-0.167,3.1-0.2,4.1c-0.066,2.3,0.2,4.083,0.8,5.35c0.7,1.467,2.267,3.533,4.7,6.2c1.967,2.133,3.167,4.417,3.601,6.85
	c0.699,3.534,1.116,6.034,1.25,7.5c0.267,3.034,0.017,5.517-0.75,7.45c-0.233,0.633-0.817,1.55-1.75,2.75
	c-0.867,1.167-1.417,2.133-1.65,2.9c-0.4,1.167-0.6,2.617-0.6,4.35c-0.034,0.4,0,1.867,0.1,4.4c0.033,0.667,0.15,1.333,0.35,2
	c0.733-0.301,1.267-0.684,1.601-1.15c0.5-0.667,0.916-1.9,1.25-3.7c0.267-1.733,0.666-2.9,1.2-3.5c0.666-0.767,1.35-1.216,2.05-1.35
	c1.566-0.333,2.416-0.517,2.55-0.55c2.233-0.767,3.616-1.75,4.15-2.95c0.533-1.267,0.533-2.133,0-2.6c-0.334-0.3-1.2-0.8-2.601-1.5
	c2.467,0,4.15-0.1,5.05-0.3c1.4-0.3,2.634-1.3,3.7-3c0.8,2.333,1.417,4.217,1.851,5.65c0.333-0.167,0.616-0.333,0.85-0.5
	c0.2,0.233,0.384,0.483,0.55,0.75c1.033,1.6,1.384,3.95,1.05,7.05c-0.767,4.033-1.3,6.8-1.6,8.3c-1.267,7.033-1.6,15.184-1,24.45
	c0.167,2.667,0.1,6.45-0.2,11.35c-0.333,5.067-0.434,8.801-0.3,11.2c0.5,3.934,0.833,7.117,1,9.55c0.3,4.5-0.15,7.45-1.35,8.851
	c-0.7-1-1.267-3.184-1.7-6.55c-0.4-2.834-1.334-4.784-2.8-5.851c-0.101,0.367-0.351,0.9-0.75,1.601
	c-0.434,0.699-0.684,1.166-0.75,1.399c-0.034-1.2-0.284-2.533-0.75-4c-0.567-1.733-1.233-2.916-2-3.55
	c-0.467-0.4-1.384-0.7-2.75-0.9c0.267,4.167,0.899,8.634,1.899,13.4c0.601,3-0.25,6.233-2.55,9.7c-3.033,3.8-5.15,6.583-6.35,8.35
	c0-0.7-0.5-2.583-1.5-5.649c-0.267-0.867-0.483-1.634-0.65-2.301c0.3,0.134,0.65,0.284,1.05,0.45c4.867,1.9,7-1.383,6.4-9.85
	c-0.334-4.367-1.15-9.601-2.45-15.7l-2,3.5c-0.667,1.866-0.417,3.95,0.75,6.25c1.333,2.634,1.917,4.717,1.75,6.25
	c-0.167,1.634-0.467,2.634-0.9,3c-0.3,0.134-0.616,0.283-0.949,0.45c0.199-0.667,0-2.15-0.601-4.45
	c-0.434-1.566-0.783-2.483-1.05-2.75s-1.217-0.717-2.85-1.35c-0.334-0.134-1.867-0.317-4.601-0.551c-2.066-0.199-3.416-0.8-4.05-1.8
	c-0.233-0.366-0.467-1.95-0.7-4.75c-0.166-1.866-1.217-2.8-3.149-2.8c-1.134,0-1.983,0.417-2.551,1.25
	c-0.866,1.333-1.366,2.05-1.5,2.15c-0.3,0.233-1.166,0.699-2.6,1.399c-1.1,0.533-1.816,1.101-2.15,1.7
	c-0.633,1.134-0.883,3.1-0.75,5.9c0.134,3.166,0.067,5.216-0.199,6.149c-0.434,1.634-1.417,2.851-2.95,3.65
	c-2.3,1.2-3.65,2-4.05,2.399c-0.4,0.4-1.284,1.65-2.65,3.75c-0.9,1.367-2.134,2.351-3.7,2.95c1.233-1.166,2.05-2.583,2.45-4.25
	c0.1-0.5,0.267-2.166,0.5-5c0.1-0.866,0.366-2.133,0.8-3.8c0.4-1.533,0.634-2.783,0.7-3.75c0.167-1.967-0.6-4.55-2.3-7.75
	c-1.634-3.134-2.367-5.517-2.2-7.15c-1.167,0.267-2.167-0.1-3-1.1c-1.233-1.467-2.05-2.3-2.45-2.5c-1.1-0.566-2.533-0.816-4.3-0.75
	c-1.5,0.066-2.95,0.316-4.35,0.75c-1.934,0.634-3.717,2.533-5.351,5.7c-1.467,2.8-3.45,4.25-5.95,4.35
	c-0.366,1.8-0.816,4.367-1.35,7.7c-0.533,3.533-0.967,6.116-1.3,7.75c-1.4,0.033-2.167-0.6-2.3-1.9
	c-0.067-0.733-0.117-1.916-0.15-3.55c-0.2-0.767-0.583-1.7-1.15-2.8c-0.699-1.366-1.133-2.283-1.3-2.75
	c-0.166-0.4-0.35-1.25-0.55-2.55c-0.167-1.066-0.483-1.917-0.95-2.55c-0.967-1.367-2.166-2.167-3.6-2.4
	c-0.867-0.134-2.351-0.3-4.45-0.5c-1.467-0.333-2.35-0.9-2.65-1.7c-0.433-1.066-0.983-1.8-1.649-2.2
	c-0.566-0.333-1.717-0.466-3.45-0.399c-0.934,0.033-2.167,0.1-3.7,0.2c-0.733,0-1.983-0.051-3.75-0.15
	c-1.667-0.033-2.966,0.017-3.9,0.15c-1.033,0.166-1.95,0.5-2.75,1c-0.566,0.366-1.05,0.666-1.45,0.899
	c0.466,1.867,0.05,3.917-1.25,6.15c-0.434,0.767-0.934,2.366-1.5,4.8c-0.7,3.1-1.233,5.2-1.6,6.3c-1.7,5.134-4.283,7.267-7.75,6.4
	c-0.033-0.434,0.15-1.767,0.55-4c0.367-1.867,0.333-3.167-0.1-3.9c-1.267-2.233-4.167-2.25-8.7-0.05
	c-0.233,0.1-1.033,0.616-2.4,1.55c-0.867,0.566-1.717,0.884-2.55,0.95c-0.333,0.033-0.833-0.134-1.5-0.5
	c-0.667-0.366-1.183-0.533-1.55-0.5c-2.567,0.167-4.95,1.4-7.15,3.7c-2.034,2.166-3.267,4.533-3.7,7.1
	c-0.133,2.4-0.333,3.934-0.6,4.601c-0.333,0.966-1.483,1.716-3.45,2.25c-1.333,0.399-3.034,0.583-5.1,0.55
	c-0.767,0-2.467-0.084-5.1-0.25c1.067-1.5,2.25-3.167,3.55-5c0.667-1.467,0.55-3.601-0.35-6.4c-0.7,0.066-1.767,0.2-3.2,0.4
	c-1.267,0.133-2.35,0.133-3.25,0c0.1-0.934-0.067-1.65-0.5-2.15c-0.267-0.3-0.733-0.75-1.4-1.35c-1.367-1.533-2.267-2.584-2.7-3.15
	c-0.9-1.1-1.7-2.267-2.4-3.5c-4,1.767-6.183,4.75-6.55,8.95c-0.133,1.366-0.083,3.333,0.15,5.9c0.267,3.1,0.4,5.216,0.4,6.35
	c0.067,4.533,0.05,7.767-0.05,9.7c-0.267,4.967-1,7.733-2.2,8.3c-0.133-0.667-0.25-1.75-0.35-3.25
	c-0.066-1.434-0.183-2.517-0.35-3.25c-0.633-2.833-1.417-4.634-2.35-5.4c-0.8-0.633-2.5-0.983-5.1-1.05
	c-0.5,2.533-0.917,4.434-1.25,5.7c-0.633,2.2-1.617,3.8-2.95,4.8c-0.667,0.5-1.983,0.9-3.95,1.2c-2.034,0.3-3.4,0.65-4.1,1.05
	c2.4-3.633,3.983-6.75,4.75-9.35c0.5-1.733,0.683-4.117,0.55-7.15c-0.2-3.8-0.25-6.233-0.15-7.3c0.133-1.134,0.583-2.7,1.35-4.7
	c0.7-1.866,1.083-3.45,1.15-4.75c0.167-2.366,0.167-4.033,0-5c-0.333-2.666-1.467-4.483-3.4-5.45
	c-1.167-0.566-3.317-1.583-6.45-3.05c-0.9-0.633-1.566-1.1-2-1.399c-0.133-0.167-0.35-0.917-0.65-2.25
	c-0.167-0.634-0.317-1.684-0.45-3.15c-0.133-1.434-0.3-2.5-0.5-3.2c-0.2-0.633-0.783-2-1.75-4.1c-0.633-1.334-1.033-2.584-1.2-3.75
	c0.3,0.467,0.933,1.816,1.9,4.05c0.733,1.667,1.733,2.75,3,3.25c-0.067-0.366,0-0.917,0.2-1.65c0.167-0.733,0.25-1.183,0.25-1.35
	c1.767,1.7,3.066,2.634,3.9,2.8c0.633,0.134,2.167-0.133,4.6-0.8c0.1,1.066-0.217,3.116-0.95,6.15c-0.633,2.699-0.75,4.633-0.35,5.8
	c0.2,0.633,0.934,1.583,2.2,2.85c1.167,1.167,1.867,2.283,2.1,3.351c-0.1,2.833-0.133,5.066-0.1,6.699c0,3.034,0.867,4.45,2.6,4.25
	c0.267,1.367,0.017,2.967-0.75,4.801c-1,2.033-1.7,3.55-2.1,4.55c1.7-0.033,3-0.233,3.9-0.601c1.367-0.6,2.033-1.616,2-3.05
	c1.5,1.967,2.65,3.367,3.45,4.2c0.5-2.366,0.716-5.267,0.65-8.7c-0.067-5.033-0.083-7.967-0.05-8.8c0.034-0.533,0.4-2.55,1.1-6.05
	c0.5-2.566,0.5-4.55,0-5.95c-0.167-0.566-0.617-1.384-1.35-2.45c-0.667-0.967-1.083-1.8-1.25-2.5c-0.2-0.7-0.267-1.633-0.2-2.8
	c0.367-0.066,0.8-0.15,1.3-0.25c1.633-0.366,2.733-0.333,3.3,0.1c0.566,0.434,0.833,1.534,0.8,3.301
	c-0.133,1.933-0.2,3.166-0.2,3.699c1.6,0.2,2.633-0.55,3.1-2.25c0.267-0.966,0.483-2.399,0.65-4.3c1.733,0.233,3.167,0.867,4.3,1.9
	c0.5,0.434,1.467,1.633,2.9,3.6c1.733,2.8,2.9,4.417,3.5,4.851c0.667,0.5,1.967,0.733,3.9,0.699c1.467-0.033,2.35,0.584,2.65,1.851
	c0.3,1.2-0.133,2.616-1.3,4.25c-1.167,1.566-2.35,2.5-3.55,2.8c0.133,2.033,1.133,3.184,3,3.45c2.4,0,4.183,0.05,5.35,0.149
	c0.3,0.767,0.467,1.767,0.5,3c0,1.4,0.017,2.45,0.05,3.15c2.133-1.134,3.233-3.217,3.3-6.25c0.1-4.2,0.317-6.7,0.65-7.5
	c0.4-0.934,1.267-2.167,2.6-3.7c1.3-1.467,2.133-2.767,2.5-3.899c0.633-1.834,1.083-2.967,1.35-3.4c0.267-0.4,1.1-1.25,2.5-2.55
	c0.1-0.066,0.183-0.15,0.25-0.25c1.9-0.566,3.317-0.917,4.25-1.05c2.2-0.301,3.7,0.833,4.5,3.399c1.3,3.967,0.567,6.667-2.2,8.101
	c1.067,0.333,2.1,0.5,3.1,0.5c1.267,0.033,2.267-0.217,3-0.75c1-0.667,1.533-1.717,1.6-3.15c0.1-1.767,0.267-2.85,0.5-3.25
	c0.4-0.634,1.05-1.1,1.95-1.4c1.133-0.399,1.95-0.8,2.45-1.199c0.5-0.367,1.05-1.15,1.65-2.351c0.367-0.633,0.817-1.517,1.35-2.649
	c0.267,1.333,0.6,3.433,1,6.3c0.367,2.767,0.7,4.816,1,6.149c0.633-3,2.1-6.05,4.4-9.149c2.167-2.867,4.617-5.233,7.35-7.101
	c1.533-1.033,2.783-1.616,3.75-1.75c0.233-0.033,1.617,0.017,4.15,0.15c1.9,0.134,3.25-0.066,4.05-0.6h0.051
	c0.1,0,0.216,0.017,0.35,0.05c1.866,0.3,3.116,0.649,3.75,1.05c0.667,0.434,1.083,1.05,1.25,1.85c0.233,1.034,0.533,1.801,0.9,2.301
	c0.899,1.166,1.933,1.733,3.1,1.699c0.7-0.033,1.316-0.033,1.85,0c0.467,0.233,0.983,0.467,1.551,0.7
	c2.166,0.967,3.683,1.967,4.55,3c0.5,0.566,1.316,1.834,2.45,3.8c2-3.866,3.066-7.899,3.199-12.1c0.134-0.033,0.284-0.083,0.45-0.15
	c2.467,0.034,4.267-0.033,5.4-0.199c2.066-0.267,3.633-1.184,4.7-2.75c0.3-0.434,0.517-1.167,0.649-2.2
	c0.033-0.267,0.117-0.517,0.25-0.75c0.4-0.434,0.967-1.017,1.7-1.75c1.767-0.9,4.35-0.733,7.75,0.5c0.9,0.434,1.733,0.816,2.5,1.149
	c0.366,0.733,0.55,1.417,0.55,2.051c-0.5,2.066-0.75,3.267-0.75,3.6c0,0.233,1.217,0.833,3.65,1.8
	c1.833,0.733,2.967,1.601,3.399,2.601c0.334,1.433,0.717,2.733,1.15,3.899c0.5,1.3,1.267,3,2.3,5.101
	c1.066,2.166,1.934,3.783,2.601,4.85c0.166-1.8,0.166-3.917,0-6.35c-0.067-1.4-0.233-3.434-0.5-6.101
	c-0.034-0.666-0.617-2.85-1.75-6.55c-0.767-2.467-0.684-4.417,0.25-5.85c1.5-2.367,3.55-3.817,6.149-4.351
	c1.467-0.333,4.101-0.383,7.9-0.149c2.7-0.067,4.8,0,6.3,0.199c2.733,0.367,4.017,1.4,3.85,3.101c3.601,0.267,5.934,1.133,7,2.6
	c0.967,1.334,1.45,4.117,1.45,8.351c0.233-0.167,2.2-1.4,5.9-3.7c2.6-1.601,4.316-3,5.149-4.2c0.634-0.866,1.167-2.384,1.601-4.55
	c0.233-1.2,0.517-2.851,0.85-4.95c0.434-2.167,0.45-4.866,0.05-8.1c-0.267-2.034-0.8-4.75-1.6-8.15c0.233,2.566-1.267,5.05-4.5,7.45
	c-3.866,2.8-6.066,4.899-6.6,6.3c-0.233,0-0.45-0.066-0.65-0.2c-0.1-0.233-0.184-0.467-0.25-0.7c-0.167,0-0.35,0-0.55,0
	c-0.767-0.933-1.566-2.533-2.4-4.8c-1.2-3.2-1.717-5.55-1.55-7.05l1.2-1.25v-0.35l-1.15,1.149l-4.899,4.851
	c0.233-0.067,0.466-0.134,0.699-0.2l4.051-4.101c-0.767,2.601-1.534,4.417-2.301,5.45c-1.433,1.834-3.3,2.101-5.6,0.8
	c-1.2,2.567-3.4,4.15-6.6,4.75c-1.601,0.301-4.4,0.351-8.4,0.15c-0.267,0-2.45-0.35-6.55-1.05c-2.7-0.434-4.45-0.45-5.25-0.05
	c-0.033-0.167-0.05-0.317-0.05-0.45c-0.034,0.166-0.067,0.35-0.101,0.55h-0.05c-0.434,0.3-0.866,0.983-1.3,2.05
	c-0.9,0.634-2.15,0.983-3.75,1.05c-1.167,0.067-3.05,0.017-5.65-0.149c-2.267-0.066-3.95,0.149-5.05,0.649
	c-0.533,0.233-1.3,1.017-2.3,2.351c-1.033,1.399-1.8,2.267-2.3,2.6c-0.867,0.601-1.767,1.033-2.7,1.3c-0.033,0-1,0.217-2.9,0.65
	c-0.3,0.066-0.883,0.05-1.75-0.05c-0.767-0.066-1.316-0.017-1.649,0.149c-0.4,0.167-0.934,0.867-1.601,2.101
	c-0.7,1.3-1.2,2.066-1.5,2.3c-0.434,0.333-0.866,0.634-1.3,0.9c-2.2-0.301-3.517-0.801-3.95-1.5c-0.566-0.867-0.316-3.034,0.75-6.5
	c0.8-2.634,1.45-5.417,1.95-8.351c-0.066,1.167,0.667,2.167,2.2,3c1.633,0.9,3.6,0.934,5.899,0.101c1.7-0.634,3.4-1.667,5.101-3.101
	c0.333-0.3,0.866-0.883,1.6-1.75c0.5-0.633,1.066-1.066,1.7-1.3c1.167-0.434,3.45-0.4,6.85,0.1c3.134,0.467,5.367,0.25,6.7-0.649
	c0.2-1.101,0.134-2.584-0.2-4.45c-0.166-1.033-0.433-2.533-0.8-4.5c-0.5-4.2-1.85-7.566-4.05-10.1c-0.2-0.267-1.3-1.066-3.3-2.4
	c-1.367-0.9-2.101-2.017-2.2-3.35c1.1-0.2,3.634,0.017,7.6,0.65c3.434,0.534,5.9,0.383,7.4-0.45c1.233-0.7,2.017-2.033,2.35-4
	c0.167-1.1,0.351-2.717,0.551-4.85c0.767,0.3,1.75,0.583,2.949,0.85c1.334,0.3,2.317,0.533,2.95,0.7c-0.8,3.6-1.233,6.567-1.3,8.9
	c-0.1,1.066-0.15,1.9-0.15,2.5c0.034,1.133,0.233,1.917,0.601,2.35c0.233,0.267,0.783,0.434,1.649,0.5
	c0.834,0.034,1.317,0.15,1.45,0.35c1.233,1.7,1.25,4.383,0.05,8.05c-1.366,4.1-1.767,7.033-1.199,8.8
	c5.199,0.233,8.483-0.233,9.85-1.4c1.233-1.066,1.917-2.75,2.05-5.05c0.167-3.066,0.384-4.934,0.65-5.6c1.967,0.5,3.45,0.833,4.45,1
	c1.767,0.3,2.983,0,3.649-0.9c0.167-0.2,0.184-0.684,0.05-1.45c-0.133-0.833-0.166-1.35-0.1-1.55c0.333-0.967,0.967-1.9,1.9-2.8
	c1.133-1.067,1.85-1.85,2.149-2.35c1-1.667,1.5-4.35,1.5-8.05c0-3.767-0.5-6.55-1.5-8.35c-0.233-0.467-0.767-1.017-1.6-1.65
	c-0.733-0.6-1.217-1.217-1.45-1.85c-0.2-0.533-0.2-1.683,0-3.45c0-1.833-0.267-3.35-0.8-4.55c-0.334-0.8-1.05-2.15-2.15-4.05
	c-1.967-3.733-3.2-6.7-3.7-8.9c0.067,0.034,0.134,0.067,0.2,0.1C200.483,58.267,200.884,57.683,201.25,57.15z M191.7,72.4
	c0.166-0.333,0.267-1.483,0.3-3.45c0-1.233,0.667-1.967,2-2.2v-3c2.733,3.633,3.583,7.05,2.55,10.25c-1.1,3.4-3.899,4.3-8.399,2.7
	c-0.134-0.967,0.283-1.75,1.25-2.35C190.667,73.583,191.434,72.933,191.7,72.4z M151.3,62.45c0.8,2.167,1.9,3.8,3.3,4.9
	c1.101-2.4,1.95-5.383,2.551-8.95c0.133-0.7,0.183-2.333,0.149-4.9c0-1.1,0.066-2.05,0.2-2.85c0.267-0.033,0.533-0.066,0.8-0.1
	c1.233-0.066,2.417-0.133,3.55-0.2c0.067,0.033,0.117,0.083,0.15,0.15c0.233,0.3,0.316,1.233,0.25,2.8
	c-0.1,1.3-0.217,2.284-0.35,2.95c-0.134,0.7-0.601,2.317-1.4,4.85c-0.566,1.9-0.884,3.566-0.95,5c-0.133,2.7,0.084,7.283,0.65,13.75
	c0.5,5.933,0.583,10.45,0.25,13.55c-2-3.2-3.634-7.25-4.9-12.15c-0.733-2.833-1.7-7.15-2.899-12.95
	C152.05,65.867,151.6,63.917,151.3,62.45z M177.5,92.25c-0.366,2.367-1.7,4.1-4,5.2c-2.134,1.033-4.3,1.2-6.5,0.5
	c0.3,1.1,1.333,2.35,3.1,3.75c1.767,1.434,3.233,2.133,4.4,2.1c1.866-0.1,3.167-1.216,3.9-3.35c0.5-1.5,0.699-3.4,0.6-5.7
	L177.5,92.25z M209.1,73.9c2.301,3.567,3.567,5.75,3.801,6.55c0.899-1.5,0.949-3.4,0.149-5.7c-0.434-1.3-1.283-3.133-2.55-5.5l-1-1
	C207.533,68.717,207.4,70.6,209.1,73.9z M203.3,139.8c-0.6-2.2-0.717-3.783-0.35-4.75c-1.934,1.733-4.084,2.8-6.45,3.2
	c-1.434,0.267-3.9,0.467-7.4,0.6c-0.366,2.067,1.184,3.25,4.65,3.551c3.366,0.3,5.616-0.25,6.75-1.65l1.5,2
	c-1.066,1.3-1.233,3.3-0.5,6c1.066,3.866,1.6,5.983,1.6,6.35c3-0.767,3.733-3.783,2.2-9.05
	C204.866,144.65,204.2,142.566,203.3,139.8z M227.5,141.25l-0.5-2c-1.3,1.733-1.667,4.083-1.1,7.05c0.833,4.4,1.233,6.834,1.199,7.3
	c0.934-1.6,1.467-3.633,1.601-6.1C228.866,144.833,228.467,142.75,227.5,141.25z M127.4,106.1c0,0.233,0.017,0.467,0.05,0.7
	c0.2,1.2,0.8,1.934,1.8,2.2c0.134,0.033,0.283,0.066,0.45,0.1c0.6,3.667,2.283,5.45,5.05,5.351c-3.434,1.166-5,0.583-4.7-1.75
	c-0.434,2.1-0.083,3.8,1.05,5.1c0.9,1.033,2.551,2.017,4.95,2.95c-1.1,2.566-2.649,3.934-4.649,4.1c-1.233,0.101-3.534-0.1-6.9-0.6
	c-0.7-0.033-1.316-0.083-1.85-0.15c-0.7-0.6-1.284-1.35-1.75-2.25c0-0.133,0-0.267,0-0.399c0.033-1.233,0.066-3.05,0.1-5.45
	c0-2,0.05-5.116,0.15-9.35c-0.101-3.667-0.65-6.634-1.65-8.9l-0.5,1.5c0.167,1.067-0.033,1.95-0.6,2.65
	c-0.867,1-1.333,1.583-1.4,1.75c-0.233,0.6-0.417,1.333-0.55,2.199c-0.2,1.167-0.35,1.95-0.45,2.351
	c-0.167,0.833-0.367,1.566-0.6,2.2c-0.3,0.733-0.566,1.366-0.8,1.899c-0.1,0.3-0.383,0.851-0.85,1.65
	c-0.333,0.633-0.567,1.233-0.7,1.8c-0.2,0.8-0.3,2.917-0.3,6.35c0,1.634-1.033,3.184-3.1,4.65c-2.867,2.066-4.833,3.333-5.9,3.8
	c-2.067,0.9-4.3,1.101-6.7,0.601c-1.433-0.267-2.466-0.434-3.1-0.5c-0.833-0.067-1.817-0.067-2.95,0c-0.1,0-0.767,0.116-2,0.35
	c-0.633,0.134-1.317,0.066-2.05-0.2c-0.467-0.166-1.217-0.833-2.25-2c-1-1.133-1.65-1.717-1.95-1.75c-0.1,0-0.2,0.017-0.3,0.05
	c-0.034-0.066-0.05-0.133-0.05-0.199c-0.367-2.334-0.983-4.217-1.85-5.65c-0.466-0.767-1.683-2.134-3.65-4.1
	c0.4-0.101,0.817-0.25,1.25-0.45c0,0.1,0.017,0.217,0.05,0.35c0.8,0.5,1.75,0.9,2.85,1.2c2.767,0.7,4.917,0.05,6.45-1.95
	c0.233,0.167,1.417,1.517,3.55,4.05c1.534,1.767,3.067,2.717,4.6,2.851c0.8,0.066,2.6-0.25,5.4-0.95c2.767-0.7,4.267-1.184,4.5-1.45
	c0.434-0.467,0.867-1.75,1.3-3.85c0.333-1.533,0.566-2.9,0.7-4.101v-3.1c-0.033-1.2,0.167-2.2,0.6-3c0.233-0.467,0.7-0.9,1.4-1.3
	c0.767-0.434,1.267-0.816,1.5-1.15c0.667-0.967,1.117-2.2,1.35-3.7c0.3-2.033,0.533-3.317,0.7-3.85c0.133-0.333,0.467-0.733,1-1.2
	c0.5-0.433,0.816-1.1,0.95-2c0.1-0.8,0.05-2-0.15-3.6c-0.233-1.9-0.35-3.133-0.35-3.7c0-0.1,0.083-1.367,0.25-3.8
	c0.1-1.733,0.017-2.967-0.25-3.7c-0.133-0.367-0.466-0.817-1-1.35c-0.566-0.533-0.9-0.95-1-1.25c-0.6-1.7-0.95-3.767-1.05-6.2
	c0.4,1.5,0.75,2.566,1.05,3.2c-0.033-1.933,0.05-4.933,0.25-9c0.133-2.233,0.217-4.15,0.25-5.75c1.667-0.6,3.434-1.283,5.3-2.05
	c4.034-1.633,7.084-2.867,9.15-3.7c0.333-0.133,0.684-0.25,1.05-0.35c-0.033,0.467-0.05,1-0.05,1.6
	c0.134,1.434,0.217,2.617,0.25,3.55c0.066,1.733-0.134,2.85-0.6,3.35c-0.634,0.667-1.384,0.867-2.25,0.6
	c-1.034-0.333-1.834-0.316-2.4,0.05c-0.7,0.433-1.15,1.417-1.35,2.95c-0.233,1.833-0.467,2.934-0.7,3.3
	c-0.334,0.5-1.017,1.133-2.05,1.9c-0.7,0.533-1.15,1.3-1.351,2.3c-0.267,1.233-0.216,3.017,0.15,5.35c0.5,3.133,0.767,4.967,0.8,5.5
	c0.134,2.267,0.517,4.1,1.15,5.5c0.333,0.733,1.267,2.233,2.8,4.5c1.033,1.567,1.684,3.733,1.95,6.5
	c0.267,2.567,0.149,4.917-0.351,7.05c-0.166,0.733-0.6,1.816-1.3,3.25c-0.634,1.334-1.017,2.434-1.15,3.3
	c-0.199,1.567-0.166,3.634,0.101,6.2c0,0.066,0.017,0.134,0.05,0.2c0.267-0.033,0.5-0.05,0.7-0.05c0.366-1.267,0.934-4.017,1.7-8.25
	C125.316,108.583,126.233,106.967,127.4,106.1z M105,58.65c-0.1,1.867-0.35,4.067-0.75,6.6c-0.8,5.167-1.233,8.15-1.3,8.95
	c-1-0.534-1.667-1.8-2-3.8c-0.367-2.4-0.8-3.95-1.3-4.65c-0.767-1.067-1.867-1.983-3.3-2.75c0.6-0.267,1.15-0.55,1.65-0.85
	c0.8-0.467,2.017-1.433,3.65-2.9c0.7-0.5,1.383-0.817,2.05-0.95L105,58.65z M95,81.25l1.5-0.5c2.767,2.7,4.133,6.567,4.1,11.6
	c0,3.767-0.75,7.9-2.25,12.4c-1.267-0.066-2.267-0.95-3-2.65c-0.934-2.067-1.7-3.317-2.3-3.75c-0.767-0.533-2.35-1.05-4.75-1.55
	c-2.233-0.5-3.833-1.183-4.8-2.05c0.833-0.433,2.5-0.633,5-0.6c2.267,0.033,3.933-0.433,5-1.4C95.967,90.65,96.467,86.817,95,81.25z
	 M24.5,97.05c-0.1,1.934-0.317,3.233-0.65,3.9c-0.733,1.4-2.483,2-5.25,1.8c-0.133-0.367-0.2-0.85-0.2-1.45
	c0-0.6,0.067-1.083,0.2-1.45C21.633,100.05,23.6,99.117,24.5,97.05c0-0.7,0-1.466,0-2.3l0.5-0.5
	C24.967,95.317,24.8,96.25,24.5,97.05z M47.85,99.5c0.1-0.3,0.167-0.633,0.2-1c0.233-1.533,0.05-3.45-0.55-5.75
	c-0.2-1.8,0.8-3.3,3-4.5l0.5,2c1.067,3.667,1.8,6.683,2.2,9.05c0.767,4.4,0.216,7.2-1.65,8.4c-1.066,0.666-3.3,0.45-6.7-0.65
	c-3.333-1.066-5.117-2.05-5.35-2.95c0.567-0.433,2.333-0.983,5.3-1.649c0.1-0.034,0.2-0.05,0.3-0.05c-1,0.6-2.184,1.05-3.55,1.35
	c1,0.634,2.55,0.884,4.65,0.75c2.167-0.134,3.65-0.667,4.45-1.6c0.867-1.033,1.184-2.467,0.95-4.3c-0.033-0.233-0.4-1.684-1.1-4.35
	l-1.5-1.5C49.167,95.583,48.783,97.833,47.85,99.5z M9.2,117.95c1.1,0.967,2.8,1.666,5.1,2.1c2.667,0.434,4.4,0,5.2-1.3H17
	c-1.033,0.066-2.383-0.05-4.05-0.35c-1.067-0.2-1.95-0.334-2.65-0.4c0.767,0,1.617,0.033,2.55,0.1c3.167,0.233,5.55-0.05,7.15-0.85
	l2,1.5c-0.5-0.066-0.983-0.05-1.45,0.05c-0.066,2.733-0.417,4.316-1.05,4.75c-0.5,0.334-1.8,0.15-3.9-0.55
	c-0.967-0.3-2.783-0.866-5.45-1.7c-2.3-0.866-3.783-1.899-4.45-3.1C6.4,118.033,7.567,117.95,9.2,117.95z M140.55,123.35
	c0.267-1.666,0.483-3.366,0.65-5.1c0.166-1.967,0.283-3.967,0.35-6v-0.05c-0.029-0.15-0.029-0.283,0-0.4
	c0.767-0.5,1.584-1.066,2.45-1.7c0.066,2.167-0.017,3.851-0.25,5.051c-0.233,1.199-0.767,2.716-1.6,4.55
	C141.25,121.634,140.717,122.85,140.55,123.35z"/>
<path style="fill-rule:evenodd;clip-rule:evenodd;fill:#8E7B60;" d="M1.25,58.65l0.3-2.85H1.6c0.3-0.133,0.933-0.316,1.9-0.55l-1,1
	C2.533,57.45,2.117,58.25,1.25,58.65z M0.25,68.825V68.2H0.3C0.271,68.404,0.254,68.612,0.25,68.825z M66.85,75.1
	c-1.067,0.5-2.067,0.917-3,1.25c-0.434,0.7-1.333,1.517-2.7,2.45c-0.833,0.6-1.5,1.2-2,1.8c-0.333,0.4-0.583,0.8-0.75,1.2
	c-0.433,1.034-0.717,2.417-0.85,4.15c-0.033,1.133-0.05,2.083-0.05,2.85c-0.033,0.6-0.05,1.083-0.05,1.45
	c-1.167-0.9-2.05-2.767-2.65-5.6c-0.466-2.233-1.9-3.566-4.3-4c-1.567-0.267-3.533-0.316-5.9-0.15c-0.167,0-0.35,0.017-0.55,0.05
	c-1.367,0.167-3.333,0.434-5.9,0.8c-0.233,0-0.45,0.017-0.65,0.05c-4.367,0.5-9.833,0.717-16.4,0.65
	c-3.434-0.066-8.417-0.15-14.95-0.25c-0.533-0.033-1.083-0.05-1.65-0.05l0.3-0.25c-0.833-0.067-1.433-0.15-1.8-0.25
	C2.433,81.117,1.667,80.7,0.7,80c3,0.4,6.7,0.483,11.1,0.25c5.1-0.4,8.767-0.633,11-0.7c7.434-0.233,12.4-0.433,14.9-0.6
	c5.733-0.367,10.683-1,14.85-1.9c4.667-1,10.367-2.833,17.1-5.5c7.533-3.167,13.133-5.466,16.8-6.9c0.233-0.1,4.233-2,12-5.7
	c4.767-2.3,8.917-3.617,12.45-3.95c1.7-0.167,6.233-1.383,13.6-3.65c6.4-2,10.866-2.817,13.4-2.45c4.5,0.7,9.116,0.867,13.85,0.5
	c1.9-0.133,5.917-0.633,12.05-1.5c10.033-1.4,19.066-1.033,27.101,1.1c2.466,0.633,6.149,0.933,11.05,0.9
	c5.6-0.033,10.767-0.566,15.5-1.6c7.633-1.667,12.616-4.2,14.95-7.6c-0.134,1.2-0.7,2.55-1.7,4.05c-1.767,2.633-4.066,4.233-6.9,4.8
	c-0.899,0.167-3.8,0.233-8.7,0.2c-3.233-0.033-5.767,0.317-7.6,1.05c-0.7,0.267-1.3,0.583-1.8,0.95
	c-0.167,0.133-0.367,0.3-0.601,0.5c-0.933,0.9-2.216,2.533-3.85,4.9c-0.366,0.533-0.767,1.117-1.2,1.75
	c-0.066-0.033-0.133-0.066-0.2-0.1c-1.633-0.7-3.183-1.566-4.649-2.6c-2.066-1.434-3.15-2.717-3.25-3.85
	c-1.5-0.033-2.967-0.25-4.4-0.65c-0.434-0.133-1.816-0.617-4.149-1.45c-1.767-0.6-3.801-0.883-6.101-0.85
	c-1.366,0-3.467,0.117-6.3,0.35c-2.3,0.167-5.35,0.367-9.15,0.6c-1.133,0.066-2.316,0.133-3.55,0.2
	c-0.267,0.034-0.533,0.067-0.8,0.1c-1.134,0.1-2.217,0.233-3.25,0.4c-0.033,0.067-0.066,0.133-0.1,0.2
	c-0.367,0.733-1.233,2.083-2.601,4.05c-0.533,0.8-0.983,1.617-1.35,2.45c-0.334,0.667-0.601,1.333-0.8,2
	c-0.634-0.167-1.084-0.6-1.351-1.3c-0.267-0.8-0.467-1.233-0.6-1.3c-0.167-0.066-0.483-0.283-0.95-0.65
	c-0.434-0.333-0.75-0.55-0.95-0.65c-0.1-0.033-0.383,0.183-0.85,0.65s-0.733,0.7-0.8,0.7c-0.767-0.3-2.067-1.267-3.9-2.9
	c-1.6-1.433-3.1-2.283-4.5-2.55l0.05-0.1c-0.967-0.2-1.883-0.283-2.75-0.25c-1.3,0.067-2.717,0.367-4.25,0.9
	c-0.366,0.1-0.717,0.217-1.05,0.35c-2.066,0.833-5.116,2.067-9.15,3.7c-1.866,0.767-3.633,1.45-5.3,2.05
	c-0.033,1.6-0.117,3.517-0.25,5.75c-0.2,4.067-0.283,7.067-0.25,9c-0.3-0.633-0.65-1.7-1.05-3.2c-0.4-1.3-0.833-2.934-1.3-4.9
	c-0.833-2.767-1.817-4.683-2.95-5.75L105,58.65l-1.3-0.35c-0.667,0.133-1.35,0.45-2.05,0.95c-1.633,1.467-2.85,2.433-3.65,2.9
	c-0.5,0.3-1.05,0.583-1.65,0.85c-0.567,0.2-1.167,0.367-1.8,0.5c-0.733,0.167-1.917,0.417-3.55,0.75
	c-1.867,0.5-4.283,1.433-7.25,2.8c-4.033,1.833-6.433,2.9-7.2,3.2c-0.667,0.267-1.466,0.633-2.4,1.1c-1.7,0.8-3.85,1.917-6.45,3.35
	C67.4,74.833,67.117,74.967,66.85,75.1z M206.6,35.4c0.467-1.033,1.067-1.983,1.801-2.85c0.366-0.667,0.267-1.733-0.301-3.2
	c1.567-0.7,2.534-1.067,2.9-1.1l3,1c0.8,1.533,0.45,3.633-1.05,6.3c-1.5,2.7-3.134,4.083-4.9,4.15c-1.5,0.066-2.283-0.367-2.35-1.3
	C205.667,37.8,205.967,36.8,206.6,35.4z M192.55,9.8l0.45,0.95c0.7,2.667-0.65,3.433-4.05,2.3c-3.334-1.1-5.3-2.333-5.9-3.7
	c1.101-0.1,2.684-0.05,4.75,0.15c2.066,0.233,3.617,0.317,4.65,0.25h0.05L192.55,9.8z M122,5.75l0.5,2
	c-0.033,1.867-1.6,2.633-4.7,2.3c-2.9-0.333-4.867-1.1-5.9-2.3c0.967-1.033,2.55-1.683,4.75-1.95C117.75,5.7,119.533,5.683,122,5.75
	z M160,16.75v1c-0.267,2.667-1.85,4.3-4.75,4.9c-1.4,0.267-3.95,0.283-7.65,0.05c1.233-2.5-0.166-4.684-4.199-6.55
	c-0.233-0.133-3.167-1.117-8.801-2.95c3.567-0.1,7.851,0.3,12.851,1.2C152.983,15.567,157.167,16.35,160,16.75z M89.7,36.7
	c-0.2-1.2,0.466-2.133,2-2.8c2.466-1.033,3.733-1.583,3.8-1.65H97c1.6-0.067,3.233,0.717,4.9,2.35c1.767,1.733,2.017,3.3,0.75,4.7
	c-1.133,1.3-3.25,1.35-6.35,0.15C94.633,38.817,92.433,37.9,89.7,36.7z M18.5,39.25l-0.5,0.5c0.233,1.667,0.067,3.117-0.5,4.35
	c-0.7,1.533-1.833,2.066-3.4,1.6c-0.434-1.9-0.267-3.35,0.5-4.35C15.3,40.417,16.6,39.717,18.5,39.25z M66.95,29.1
	c-1.333,0.2-3.117,0.233-5.35,0.1c-0.2-1.534,0.933-2.517,3.4-2.95l0.5,0.5c0.8,0.267,1.267,0.5,1.4,0.7
	C67.2,27.75,67.217,28.3,66.95,29.1z M22,53.75c1.333-0.167,2.533,0.167,3.6,1c-0.267,1.233-0.95,2.05-2.05,2.45
	c-1.066,0.367-2.1,0.233-3.1-0.4c0.4-1.233,1.083-2.083,2.05-2.55L22,53.75z M55.65,53.35c1.3-0.9,2.75-1.6,4.35-2.1l1,1
	c-1.767,0.433-4.183,2.317-7.25,5.65c-2.833,3.033-5.567,4.6-8.2,4.7c-0.333-2.2,0.25-3.8,1.75-4.8c0.9-0.566,2.5-1.283,4.8-2.15
	C52.5,55.45,53.683,54.683,55.65,53.35z"/>
<path style="fill-rule:evenodd;clip-rule:evenodd;fill:#76654E;" d="M188.7,70.15c-0.7,2.333-2.617,3.05-5.75,2.15
	c-4.434-1.233-5.3-3.35-2.601-6.35c1.467-1.633,3.851-3.7,7.15-6.2l1.5,3C189,67.017,188.9,69.483,188.7,70.15z M165.1,79.15
	c0.934-0.733,2.733-2.033,5.4-3.9l-0.5,5.5c2.3,0.133,4.05,0.883,5.25,2.25c1.3,1.467,1.533,3.267,0.7,5.4
	c-1.033,2.6-3.233,3.85-6.601,3.75c-0.533-0.033-3.283-0.533-8.25-1.5c-0.166-1.167,0.15-3.333,0.95-6.5
	C162.583,82.017,163.6,80.35,165.1,79.15z M194.05,81.4c1.634-1.133,3.033-2.35,4.2-3.65c1.033-1.2,2.134-2.783,3.3-4.75
	c1.733,2.867,2.717,6.817,2.95,11.85c0.2,4.667-0.25,8.8-1.35,12.4c-1.067,3.433-3.117,5-6.15,4.7c-0.7-0.067-2.184-0.383-4.45-0.95
	c-2.033-0.5-3.7-0.767-5-0.8c0.134-0.567,0.5-1.517,1.101-2.85c0.5-1.133,0.783-2.15,0.85-3.05c0.1-1.466,0.184-2.917,0.25-4.35
	c0.1-1.034,0.517-2.6,1.25-4.7l-1.5,1.5c-0.3-1.133,0.134-2.2,1.3-3.2C191.467,82.983,192.55,82.267,194.05,81.4z M189,107.25l3,0.5
	c0.167,2.134-0.167,3.767-1,4.9c-0.7,0.966-1.517,1.35-2.45,1.149c-0.899-0.233-1.383-0.916-1.45-2.05
	C187.033,110.45,187.667,108.95,189,107.25z M85.35,84c0.933-1.367,2.816-3.117,5.65-5.25h1.5c1.967,2.367,1.667,5.217-0.9,8.55
	c-2.533,3.267-5.2,4.567-8,3.9C83.433,88.3,84.017,85.9,85.35,84z M77.9,108.75c0.867-0.8,1.967-1.434,3.3-1.9
	c5.933-1.1,10.033-2.3,12.3-3.6l2,3c2.1,0.333,3.883,1.767,5.35,4.3c1.566,2.634,1.5,4.717-0.2,6.25
	c-0.7,0.634-2.233,0.851-4.6,0.65s-3.933-0.667-4.7-1.4c-0.567-0.533-1-1.566-1.3-3.1c-0.167-0.867-0.367-2.066-0.6-3.601
	c-2.333-0.5-4.684,0.7-7.05,3.601c-1.5,1.833-2.917,3.083-4.25,3.75c-0.433,0.2-0.85,0.35-1.25,0.45c-0.467,0.1-0.9,0.133-1.3,0.1
	c-0.1-0.533-0.15-1.033-0.15-1.5C75.217,112.717,76.033,110.384,77.9,108.75z M127.4,106.1c0.066-1.933,1.649-3.35,4.75-4.25
	c3.866-0.6,6.149-0.967,6.85-1.1v1c1.9,0.467,2.566,1.434,2,2.9c-0.5,1.366-1.483,2.25-2.95,2.649c-0.434,0.134-1.1,0.134-2,0
	c-0.967-0.133-1.649-0.149-2.05-0.05c-0.366,0.066-0.733,0.366-1.1,0.9c-0.367,0.5-0.601,0.75-0.7,0.75
	c-1.033,0.199-1.867,0.267-2.5,0.199c-0.167-0.033-0.316-0.066-0.45-0.1c-1-0.267-1.6-1-1.8-2.2
	C127.417,106.566,127.4,106.333,127.4,106.1z M143.6,67.15c2,1.467,3.45,2.517,4.351,3.15c1.533,1.167,2.517,2.617,2.95,4.35
	c0.133,0.567,0.183,1.333,0.149,2.3c-0.1,1.1-0.116,1.85-0.05,2.25c0.1,0.767,0.55,2.617,1.35,5.55c0.634,2.3,0.867,4.183,0.7,5.65
	c-0.1,0.934-0.7,2.633-1.8,5.1c-0.934,2.133-1.333,3.85-1.2,5.15c-0.366-0.667-1.149-1.717-2.35-3.15
	c-1.134-1.333-1.884-2.417-2.25-3.25c-0.634-1.433-1.017-3.6-1.15-6.5c-0.133-3.367-0.333-5.583-0.6-6.65
	c-0.4-1.7-1.75-5.383-4.05-11.05c-1.733-4.333-2.617-8.1-2.65-11.3l2,3c0.634,0.533,1.434,1.433,2.4,2.7
	C142.4,65.817,143.134,66.717,143.6,67.15z M106,82.25l1,0.5c0.133,1.2,0.867,2.717,2.2,4.55c1.2,1.7,1.767,3.35,1.7,4.95
	c-0.167,3.567-0.566,5.883-1.2,6.95c-0.333,0.6-1.117,1.5-2.35,2.7c-1.367,1.333-2.3,1.984-2.8,1.95c-1.7-0.166-2.4-1.483-2.1-3.95
	c0.167-1.3,0.533-3.05,1.1-5.25c0.133-1.733,0.267-3.767,0.4-6.1C104.217,86.683,104.9,84.583,106,82.25z M129.5,72.75h2.5
	c0.3,0.867,1.184,2.433,2.65,4.7c1.166,1.8,1.8,3.5,1.899,5.1c0.2,2.1,0.066,3.7-0.399,4.8c-0.567,1.4-1.601,1.7-3.101,0.9
	c-2.166-1.2-3.5-3.55-4-7.05C128.616,78.367,128.767,75.55,129.5,72.75z M45.45,127.55c0.2-0.467,0.466-0.866,0.8-1.2
	c0.9-0.833,3.117-1.433,6.65-1.8c2.633-0.267,5-0.366,7.1-0.3l2,1c-1.233,0.167-2.533,0.65-3.9,1.45c-1.867,1.1-3.05,1.75-3.55,1.95
	c-1.5,0.6-3.1,1.066-4.8,1.399c-1.233,0.434-2.483,1.5-3.75,3.2c-0.833-0.566-1.2-1.667-1.1-3.3
	C44.967,128.983,45.15,128.184,45.45,127.55z M17.5,98.75l-1.5,0.5c-0.733-5.033,0.433-7.033,3.5-6
	C22.4,94.217,21.733,96.05,17.5,98.75z M76.5,76.75l0.5,2.5c-0.967-0.033-2.133,1.383-3.5,4.25c-1.167,2.467-2.2,3.233-3.1,2.3
	c-1.4-1.466-0.983-3.25,1.25-5.35C72.817,79.35,74.433,78.117,76.5,76.75z M45.5,89.75c0.3,2.733,0,5.25-0.9,7.55
	c-1.133,2.934-2.967,4.067-5.5,3.4c-0.233-3.2-0.2-5.4,0.1-6.6c0.533-2.3,1.966-3.75,4.3-4.35H45.5z M51,108.25l1,1
	c1.833,0.1,3.4,0.667,4.7,1.7c1.6,1.267,1.483,2.684-0.35,4.25c-0.4,0.366-1.4,0.467-3,0.3c-2-0.2-3.1-0.283-3.3-0.25
	c-1.733,0.2-3.117,0.583-4.15,1.15c-1.033,0.533-2.15,1.466-3.35,2.8c0.034-0.934,0.184-2.017,0.45-3.25
	c0.333-1.566,0.717-2.601,1.15-3.101c0.4-0.433,1.8-1,4.2-1.699C50.217,110.616,51.1,109.65,51,108.25z M9.5,102.75
	c-0.033,0.033-0.05,0.083-0.05,0.15c1.833,0.6,5,1.917,9.5,3.95c0.767,3.567-0.217,5.601-2.95,6.101c-1.6,0.3-4.417,0.217-8.45-0.25
	c0.067-3.033,0.7-6.3,1.9-9.8c-0.167-0.066-0.317-0.117-0.45-0.15H9.5z M147.15,110.25c1.267-1.667,2.55-2.5,3.85-2.5l2.5,1
	c1.3,0.9,1.8,2.417,1.5,4.55c-0.3,1.867-0.95,3.367-1.95,4.5c-0.133,0.167-0.85,0.517-2.149,1.05c-1.367,0.567-2.25,1.034-2.65,1.4
	c-1.033,1.233-1.866,2.134-2.5,2.7c-1.167,1-2.25,1.149-3.25,0.45c-0.566-0.4-0.417-1.733,0.45-4c0.467-1.2,1.116-2.767,1.95-4.7
	C145.467,113.033,146.217,111.55,147.15,110.25z"/>
<path style="fill-rule:evenodd;clip-rule:evenodd;fill:#4E4539;" d="M205.1,52.25c-0.066,0.367-0.1,0.65-0.1,0.85
	c-0.033,0.467-0.017,2.083,0.05,4.85c0.033,1.966-0.1,3.55-0.399,4.75c-0.334-0.733-1.467-2.583-3.4-5.55
	C202.884,54.783,204.167,53.15,205.1,52.25z M151.3,62.45c-0.5-1.367-0.866-2.934-1.1-4.7c0.366-0.833,0.816-1.65,1.35-2.45
	c1.367-1.966,2.233-3.316,2.601-4.05c0.033-0.067,0.066-0.133,0.1-0.2c1.033-0.167,2.116-0.3,3.25-0.4c-0.134,0.8-0.2,1.75-0.2,2.85
	c0.033,2.567-0.017,4.2-0.149,4.9c-0.601,3.567-1.45,6.55-2.551,8.95C153.2,66.25,152.1,64.617,151.3,62.45z M177.5,92.25l1.5,2.5
	c0.1,2.3-0.1,4.2-0.6,5.7c-0.733,2.133-2.034,3.25-3.9,3.35c-1.167,0.033-2.634-0.666-4.4-2.1c-1.767-1.4-2.8-2.65-3.1-3.75
	c2.2,0.7,4.366,0.533,6.5-0.5C175.8,96.35,177.134,94.617,177.5,92.25z M122.65,124.1c0.533,0.067,1.149,0.117,1.85,0.15
	c3.366,0.5,5.667,0.7,6.9,0.6c2-0.166,3.55-1.533,4.649-4.1c-2.399-0.934-4.05-1.917-4.95-2.95c-1.133-1.3-1.483-3-1.05-5.1
	c-0.3,2.333,1.267,2.916,4.7,1.75c0.066-0.033,0.15-0.066,0.25-0.101c2.8-1,4.983-2.149,6.55-3.449c0,0.3,0,0.6,0,0.899
	c-0.029,0.117-0.029,0.25,0,0.4c-0.033-0.154-0.05-0.304-0.05-0.45l-2,1.5c-0.8,2.5-3.283,3.233-7.45,2.2
	c0.267,1.2,0.9,1.934,1.9,2.2c0.467,0.133,1.434,0.133,2.899,0c2.5-0.233,3.584,0.966,3.25,3.6c0.467-0.7,0.834-1.7,1.101-3
	c-0.167,1.733-0.384,3.434-0.65,5.1c-0.033,0.134-0.05,0.284-0.05,0.45c-0.5,2.934-1.15,5.717-1.95,8.351
	c-1.066,3.466-1.316,5.633-0.75,6.5c0.434,0.699,1.75,1.199,3.95,1.5c0.434-0.267,0.866-0.567,1.3-0.9c0.3-0.233,0.8-1,1.5-2.3
	c0.667-1.233,1.2-1.934,1.601-2.101c0.333-0.166,0.883-0.216,1.649-0.149c0.867,0.1,1.45,0.116,1.75,0.05
	c1.9-0.434,2.867-0.65,2.9-0.65c0.934-0.267,1.833-0.699,2.7-1.3c0.5-0.333,1.267-1.2,2.3-2.6c1-1.334,1.767-2.117,2.3-2.351
	c1.1-0.5,2.783-0.716,5.05-0.649c2.601,0.166,4.483,0.217,5.65,0.149c1.6-0.066,2.85-0.416,3.75-1.05
	c0.434-1.066,0.866-1.75,1.3-2.05h0.05c0.033-0.2,0.066-0.384,0.101-0.55c0,0.133,0.017,0.283,0.05,0.45
	c0.8-0.4,2.55-0.384,5.25,0.05c4.1,0.7,6.283,1.05,6.55,1.05c4,0.2,6.8,0.15,8.4-0.15c3.199-0.6,5.399-2.183,6.6-4.75
	c2.3,1.301,4.167,1.034,5.6-0.8c0.767-1.033,1.534-2.85,2.301-5.45c0.033-0.199,0.083-0.383,0.149-0.55
	c-0.033,0.134-0.05,0.283-0.05,0.45c-0.167,1.5,0.35,3.85,1.55,7.05c0.834,2.267,1.634,3.867,2.4,4.8
	c-1.033-0.066-2.533-0.1-4.5-0.1c-1.134-0.2-1.867-0.717-2.2-1.55c0.267-0.3,0.517-0.617,0.75-0.95l-1-1
	c-0.066,0.767,0.017,1.417,0.25,1.95c-2.333,2.434-5.967,3.684-10.9,3.75c-1.466,0.033-3.699,0.017-6.699-0.05
	c-2.567,0.033-4.634,0.316-6.2,0.85c1.566,1.667,5.3,2.434,11.2,2.3c6.466-0.5,10.566-0.75,12.3-0.75
	c2.8-0.033,4.383,0.101,4.75,0.4c0.3,0.633,1.066,1.283,2.3,1.95c2.4,1.333,4.35,1.583,5.85,0.75c1.601-0.867,2.601-2.884,3-6.051
	c-1.5,0.834-3.083,1.217-4.75,1.15c-1.699-0.1-2.816-0.75-3.35-1.95c0.2,0.134,0.417,0.2,0.65,0.2c0.533-1.4,2.733-3.5,6.6-6.3
	c3.233-2.4,4.733-4.884,4.5-7.45c0.8,3.4,1.333,6.116,1.6,8.15c0.4,3.233,0.384,5.933-0.05,8.1c-0.333,2.1-0.616,3.75-0.85,4.95
	c-0.434,2.166-0.967,3.684-1.601,4.55c-0.833,1.2-2.55,2.6-5.149,4.2c-3.7,2.3-5.667,3.533-5.9,3.7c0-4.233-0.483-7.017-1.45-8.351
	c-1.066-1.467-3.399-2.333-7-2.6c0.167-1.7-1.116-2.733-3.85-3.101c-1.5-0.199-3.6-0.267-6.3-0.199
	c-3.8-0.233-6.434-0.184-7.9,0.149c-2.6,0.533-4.649,1.983-6.149,4.351c-0.934,1.433-1.017,3.383-0.25,5.85
	c1.133,3.7,1.716,5.884,1.75,6.55c0.267,2.667,0.433,4.7,0.5,6.101c0.166,2.433,0.166,4.55,0,6.35
	c-0.667-1.066-1.534-2.684-2.601-4.85c-1.033-2.101-1.8-3.801-2.3-5.101c-0.434-1.166-0.816-2.467-1.15-3.899
	c-0.433-1-1.566-1.867-3.399-2.601c-2.434-0.967-3.65-1.566-3.65-1.8c0-0.333,0.25-1.533,0.75-3.6c0-0.634-0.184-1.317-0.55-2.051
	c-0.767-0.333-1.6-0.716-2.5-1.149c-3.4-1.233-5.983-1.4-7.75-0.5c0.5-0.533,1.083-1.134,1.75-1.8c3.8-3.233,7.616-4.25,11.45-3.051
	c0.033,1.101,0.483,2.5,1.35,4.2c0.867,1.7,1.283,3.084,1.25,4.15c0.101-1.8,1.05-3.566,2.851-5.3c2.233-2.167,3.566-3.684,4-4.551
	c-1.301-0.033-2.351-0.199-3.15-0.5c-0.533-0.166-1.45-0.533-2.75-1.1c-1.6-0.634-2.434-0.95-2.5-0.95
	c-0.267-0.033-1.233,0.101-2.9,0.4c-1.699,0.3-3.933,0.467-6.699,0.5c-3.567,0.033-5.834,0.083-6.801,0.149
	c-0.033,1.967-0.066,3.434-0.1,4.4l0.5-0.5c-0.066,0.066-0.65,0.9-1.75,2.5c-0.733,1-1.517,1.684-2.35,2.05
	c-0.634,0.3-1.733,0.417-3.301,0.351c-1.733-0.034-2.899,0.033-3.5,0.199c0.434,2.434-1.149,3.851-4.75,4.25
	c-3.199,0.334-5.85-0.05-7.949-1.149c1.066,2.1,4.066,3.416,9,3.95c1,0.1,2.066-0.034,3.199-0.4c-0.133,4.2-1.199,8.233-3.199,12.1
	c-1.134-1.966-1.95-3.233-2.45-3.8c-0.867-1.033-2.384-2.033-4.55-3c-0.567-0.233-1.084-0.467-1.551-0.7
	c-0.533-0.033-1.149-0.033-1.85,0c-1.167,0.034-2.2-0.533-3.1-1.699c-0.367-0.5-0.667-1.267-0.9-2.301
	c-0.167-0.8-0.583-1.416-1.25-1.85c-0.634-0.4-1.884-0.75-3.75-1.05c-0.134-0.033-0.25-0.05-0.35-0.05H125.1
	c-0.8,0.533-2.149,0.733-4.05,0.6c-2.533-0.134-3.917-0.184-4.15-0.15c-0.967,0.134-2.217,0.717-3.75,1.75
	c-2.733,1.867-5.183,4.233-7.35,7.101c-2.3,3.1-3.767,6.149-4.4,9.149c-0.3-1.333-0.633-3.383-1-6.149c-0.4-2.867-0.733-4.967-1-6.3
	c-0.533,1.133-0.983,2.017-1.35,2.649c-0.6,1.2-1.15,1.983-1.65,2.351c-0.5,0.399-1.316,0.8-2.45,1.199
	c-0.9,0.301-1.55,0.767-1.95,1.4c-0.233,0.4-0.4,1.483-0.5,3.25c-0.067,1.434-0.6,2.483-1.6,3.15c-0.733,0.533-1.733,0.783-3,0.75
	c-1,0-2.033-0.167-3.1-0.5c2.767-1.434,3.5-4.134,2.2-8.101c-0.8-2.566-2.3-3.7-4.5-3.399c-0.933,0.133-2.35,0.483-4.25,1.05
	c-0.067,0.1-0.15,0.184-0.25,0.25c-1.4,1.3-2.233,2.149-2.5,2.55c-0.267,0.434-0.717,1.566-1.35,3.4
	c-0.367,1.133-1.2,2.433-2.5,3.899c-1.333,1.533-2.2,2.767-2.6,3.7c-0.333,0.8-0.55,3.3-0.65,7.5c-0.066,3.033-1.167,5.116-3.3,6.25
	c-0.033-0.7-0.05-1.75-0.05-3.15c-0.033-1.233-0.2-2.233-0.5-3c-1.167-0.1-2.95-0.149-5.35-0.149c-1.867-0.267-2.867-1.417-3-3.45
	c1.2-0.3,2.383-1.233,3.55-2.8c1.167-1.634,1.6-3.05,1.3-4.25c-0.3-1.267-1.183-1.884-2.65-1.851
	c-1.933,0.034-3.233-0.199-3.9-0.699c-0.6-0.434-1.767-2.051-3.5-4.851c-1.433-1.967-2.4-3.166-2.9-3.6
	c-1.133-1.033-2.567-1.667-4.3-1.9c-0.167,1.9-0.383,3.334-0.65,4.3c-0.467,1.7-1.5,2.45-3.1,2.25c0-0.533,0.067-1.767,0.2-3.699
	c0.033-1.767-0.233-2.867-0.8-3.301c-0.567-0.433-1.667-0.466-3.3-0.1c-0.5,0.1-0.933,0.184-1.3,0.25c-0.067,1.167,0,2.1,0.2,2.8
	c0.167,0.7,0.583,1.533,1.25,2.5c0.733,1.066,1.184,1.884,1.35,2.45c0.5,1.4,0.5,3.384,0,5.95c-0.7,3.5-1.066,5.517-1.1,6.05
	c-0.033,0.833-0.017,3.767,0.05,8.8c0.066,3.434-0.15,6.334-0.65,8.7c-0.8-0.833-1.95-2.233-3.45-4.2c0.033,1.434-0.633,2.45-2,3.05
	c-0.9,0.367-2.2,0.567-3.9,0.601c0.4-1,1.1-2.517,2.1-4.55c0.767-1.834,1.017-3.434,0.75-4.801c-1.733,0.2-2.6-1.216-2.6-4.25
	c-0.033-1.633,0-3.866,0.1-6.699c-0.233-1.067-0.934-2.184-2.1-3.351c-1.267-1.267-2-2.217-2.2-2.85
	c-0.4-1.167-0.283-3.101,0.35-5.8c0.733-3.034,1.05-5.084,0.95-6.15c-2.434,0.667-3.967,0.934-4.6,0.8
	c-0.833-0.166-2.133-1.1-3.9-2.8c0,0.167-0.083,0.616-0.25,1.35c-0.2,0.733-0.267,1.284-0.2,1.65c-1.267-0.5-2.267-1.583-3-3.25
	c-0.967-2.233-1.6-3.583-1.9-4.05c-0.033-0.033-0.067-0.066-0.1-0.101c-0.6-0.8-1.283-1.416-2.05-1.85
	c-0.467-0.233-1.167-0.583-2.1-1.05c0.566-0.3,0.767-0.816,0.6-1.55l-1.2-6.7c0.633,0.133,1.1,0.25,1.4,0.35
	c0.033,0,0.083,0.017,0.15,0.05c0.034,0,0.083,0.017,0.15,0.051c0.466,0.1,0.833,0.233,1.1,0.399c0.3,0.2,0.733,0.65,1.3,1.351
	c0.533,0.633,1.1,1.1,1.7,1.399c0.2,0.134,0.767,0.233,1.7,0.3c1.067,0.067,1.667,0.117,1.8,0.15c3.267,0.8,5.784,1.233,7.55,1.3
	c2.933,0.134,5.383-0.467,7.35-1.8c2.9-2,4.117-5.967,3.65-11.9c-0.3-3.666-0.434-5.966-0.4-6.899c0.1-2.467,0.7-4.4,1.8-5.8
	c1.433,2.866,2.433,6.133,3,9.8c0.567,3.733,0.55,7.166-0.05,10.3c-0.067,0.3-0.55,1.7-1.45,4.2c-0.233,0.633-0.4,1.233-0.5,1.8
	c-0.067-0.2-0.1-0.4-0.1-0.6c0-0.134,0.25-0.767,0.75-1.9c0.533-1.2,0.817-2.017,0.85-2.45c0.367-2.633,0-4.8-1.1-6.5
	c-0.267,0.134-0.467,0.334-0.6,0.601c-0.1,0.366-0.2,0.649-0.3,0.85l-1.5,4.5c0.767,2.6-0.7,4.75-4.4,6.45
	c-2.733,1.233-5.6,1.934-8.6,2.1c-2.133,0.101-4.65-0.5-7.55-1.8c-3.1-1.4-5.417-2.15-6.95-2.25v0.1
	c1.167,0.5,2.083,1.367,2.75,2.601c0.8,1.467,1.417,2.366,1.85,2.7c0.467,0.366,1.367,0.883,2.7,1.55
	c1.167,0.566,2.067,0.967,2.7,1.2c0.533,0.199,1.467,0.35,2.8,0.449c1.267,0.101,2.133,0.267,2.6,0.5
	c0.3,0.167,0.55,0.601,0.75,1.301c0.2,0.699,0.35,1.083,0.45,1.149c0.2,0.134,0.717,0.283,1.55,0.45c0.7,0.1,1.167,0.283,1.4,0.55
	c1.2,1.3,1.8,2.95,1.8,4.95c0.033,3.333,0.083,5.184,0.15,5.55c0.2,1,0.817,2.467,1.85,4.4c1,1.833,1.6,3.35,1.8,4.55
	c0.633-1.767,0.7-5.134,0.2-10.1c-0.467-4.767-0.25-8.067,0.65-9.9c0.3-0.566,0.633-0.95,1-1.15c0.267-0.133,0.783-0.399,1.55-0.8
	c1.2-0.767,1.9-1.133,2.1-1.1c0.533,0.233,1.317,0.467,2.35,0.7c2.8,0.633,4.3,0.983,4.5,1.05c1.3,0.233,2.617,0.35,3.95,0.35
	c0.667,0.566,1.45,1.267,2.35,2.101c1.733,1.6,3.15,2.767,4.25,3.5c0.867,0.566,2.167,1.133,3.9,1.699
	c1.767,0.534,3.017,1.051,3.75,1.551c0.5,0.3,1.066,1.149,1.7,2.55c0.533,1.166,0.9,2.184,1.1,3.05c0.333,1.233,0.3,2.684-0.1,4.35
	c-0.3,1.4-0.783,2.733-1.45,4c1.4-1.5,2.633-4.083,3.7-7.75c1.067-3.6,2.2-6,3.4-7.199c0.6-0.601,1.367-1.101,2.3-1.5
	c1.1-0.5,1.867-0.917,2.3-1.25c0.333-0.233,0.767-1,1.3-2.301c0.367-0.866,1.2-1.199,2.5-1c0-0.1,0.017-1.183,0.05-3.25
	c0-1.333,0.167-2.383,0.5-3.149c1.633,0.399,3.2,0.75,4.7,1.05h-1.2c2.7,0.967,4.233,2.066,4.6,3.3
	c0.133,0.834,0.267,1.533,0.4,2.101c0.2,1,0.583,2,1.15,3c0.5-0.7,2.517-1.9,6.05-3.601c1.8-0.833,2.883-1.833,3.25-3
	c5.9-0.033,11.183-1.383,15.85-4.05c-1.033,0.233-2.017,0.366-2.95,0.4c0.333-0.167,0.717-0.384,1.15-0.65
	c0.667-0.434,1.4-0.75,2.2-0.95c0.933-0.233,2.066-0.383,3.4-0.45c1.534-0.033,2.667-0.066,3.4-0.1
	c1.833-0.033,4.384,0.467,7.65,1.5s5.716,1.517,7.35,1.45c-1.134-1.167-1.783-2.584-1.95-4.25c-0.166-1.634,0.167-3.134,1-4.5
	c-1.467,0.5-2.85,0.483-4.149-0.05c-1.067-0.467-2.217-1.334-3.45-2.601c0.333-0.399,0.55-0.916,0.649-1.55
	c0.134-0.866,0.217-1.333,0.25-1.4C125.417,125.783,123.85,125.2,122.65,124.1z M120.9,121.85c-0.2-0.366-0.367-0.75-0.5-1.149
	c-0.7-1.9-1.45-5-2.25-9.3c-0.034,0.3-0.051,1.6-0.051,3.899c-0.033,1.601-0.25,2.884-0.649,3.851c-0.1,0.233-0.633,0.816-1.6,1.75
	c-0.733,0.733-1.017,1.366-0.85,1.899c0.167,0.601,0.5,0.867,1,0.8c0.567-0.066,0.917-0.017,1.05,0.15s0.767,0.616,1.9,1.35
	c0.366,0.233,0.434,1.084,0.2,2.551c-0.4,2.533-2.067,4.449-5,5.75c-2.533,1.166-5.25,1.616-8.15,1.35l-4.5,1.6
	c-0.5,0-0.967,0.15-1.4,0.45c-0.067,0.033-0.117,0.066-0.15,0.101c-0.434,0.267-0.833,0.416-1.2,0.449
	c-0.067-0.033-0.133-0.05-0.2-0.05c-0.733-0.1-1.533-0.533-2.4-1.3s-1.55-1.2-2.05-1.3c-0.567-0.101-1.533,0.1-2.9,0.6
	c-1.333,0.5-2.367,0.65-3.1,0.45c-0.833-0.233-1.883-0.884-3.15-1.95c-0.7-0.566-1.684-1.399-2.95-2.5
	c-1.467-1.166-2.5-2.05-3.1-2.649c-1.1-1.034-1.9-2.101-2.4-3.2c0.1,0.866,0.667,2.383,1.7,4.55c0.966,2.1,1.45,3.517,1.45,4.25
	c0.1,2.267-0.633,2.7-2.2,1.3c-0.833-0.733-1.983-2-3.45-3.8v0.5c-0.533,0.333-1.183,1.65-1.95,3.95
	c-0.767,2.5-1.283,4.033-1.55,4.6c-0.833,2.033-1.35,3.2-1.55,3.5c-0.6,0.934-1.567,1.75-2.9,2.45
	c-3.333,1.767-6.966,2.033-10.9,0.8c-2.066-0.633-5.083-1.816-9.05-3.55c-0.833-0.634-1.7-1.5-2.6-2.6
	c-0.4-0.467-0.767-0.9-1.1-1.301c0.3,0.134,0.6,0.25,0.9,0.351c3.2,1.066,4.867,1.633,5,1.7c0.8,0.366,1.95,1.149,3.45,2.35
	c1.2,0.967,2.45,1.55,3.75,1.75c0.6,0.1,2.05,0.15,4.35,0.15c1.7,0,3.066,0.25,4.1,0.75c-0.233-2.467,0.683-3.917,2.75-4.351
	c2.267-0.467,3.5-1.633,3.7-3.5c0.067-0.566-0.316-2.7-1.15-6.399c-0.7-3.233-0.75-5.301-0.15-6.2c0.433-0.634,1.683-1,3.75-1.101
	c1.467-0.066,2.066-1.05,1.8-2.949c-0.066-0.434-0.467-1.134-1.2-2.101c-0.833-1.066-1.317-1.8-1.45-2.2
	c-0.333-1.033-0.517-2.433-0.55-4.199c0-1,0.017-2.434,0.05-4.301c0.533,1.867,1.85,3.834,3.95,5.9c0,0.467,0.05,0.967,0.15,1.5
	c0.4,0.033,0.833,0,1.3-0.1c1.967,1.966,3.184,3.333,3.65,4.1c0.867,1.434,1.483,3.316,1.85,5.65c0,0.066,0.017,0.133,0.05,0.199
	c0.1-0.033,0.2-0.05,0.3-0.05c0.3,0.033,0.95,0.617,1.95,1.75c1.033,1.167,1.783,1.834,2.25,2c0.733,0.267,1.417,0.334,2.05,0.2
	c1.233-0.233,1.9-0.35,2-0.35c1.133-0.067,2.117-0.067,2.95,0c0.633,0.066,1.667,0.233,3.1,0.5c2.4,0.5,4.633,0.3,6.7-0.601
	c1.067-0.467,3.033-1.733,5.9-3.8c2.067-1.467,3.1-3.017,3.1-4.65c0-3.433,0.1-5.55,0.3-6.35c0.133-0.566,0.367-1.167,0.7-1.8
	c0.467-0.8,0.75-1.351,0.85-1.65c0.233-0.533,0.5-1.166,0.8-1.899c0.233-0.634,0.434-1.367,0.6-2.2c0.1-0.4,0.25-1.184,0.45-2.351
	c0.133-0.866,0.316-1.6,0.55-2.199c0.067-0.167,0.533-0.75,1.4-1.75c0.566-0.7,0.767-1.583,0.6-2.65l0.5-1.5
	c1,2.267,1.55,5.233,1.65,8.9C121.05,110.884,121,114,121,116c-0.033,2.4-0.066,4.217-0.1,5.45
	C120.9,121.583,120.9,121.717,120.9,121.85z M148.55,143.85c0.467-0.199,0.967-0.433,1.5-0.699c2.7-1.467,4.351-2.301,4.95-2.5
	c1.767-0.567,3.2-1.4,4.3-2.5c0.066-0.067,0.15-0.134,0.25-0.2c-0.133,0.233-0.217,0.483-0.25,0.75
	c-0.133,1.033-0.35,1.767-0.649,2.2c-1.067,1.566-2.634,2.483-4.7,2.75C152.816,143.816,151.017,143.884,148.55,143.85z
	 M212.5,176.35c-1.1-0.666-1.384-1.449-0.85-2.35c0.366-0.6,1.283-1.384,2.75-2.35c0.6-0.367,1.183-0.684,1.75-0.95
	c0.333-0.167,0.649-0.316,0.949-0.45c0.434-0.366,0.733-1.366,0.9-3c0.167-1.533-0.417-3.616-1.75-6.25
	c-1.167-2.3-1.417-4.384-0.75-6.25l2-3.5c1.3,6.1,2.116,11.333,2.45,15.7c0.6,8.467-1.533,11.75-6.4,9.85
	C213.15,176.634,212.8,176.483,212.5,176.35z M227.5,141.25c0.967,1.5,1.366,3.583,1.2,6.25c-0.134,2.467-0.667,4.5-1.601,6.1
	c0.034-0.466-0.366-2.899-1.199-7.3c-0.567-2.967-0.2-5.316,1.1-7.05L227.5,141.25z M203.3,139.8c0.9,2.767,1.566,4.851,2,6.25
	c1.533,5.267,0.8,8.283-2.2,9.05c0-0.366-0.533-2.483-1.6-6.35c-0.733-2.7-0.566-4.7,0.5-6l-1.5-2c-1.134,1.4-3.384,1.95-6.75,1.65
	c-3.467-0.301-5.017-1.483-4.65-3.551c3.5-0.133,5.967-0.333,7.4-0.6c2.366-0.4,4.517-1.467,6.45-3.2
	C202.583,136.017,202.7,137.6,203.3,139.8z M38.85,137.3c-0.667-0.233-1.517-0.517-2.55-0.85c-0.9-0.267-1.483-0.767-1.75-1.5
	c0.233-0.033,0.5-0.084,0.8-0.15c1.367-0.267,2.267-0.283,2.7-0.05c0.534,0.3,0.784,0.816,0.75,1.55
	C38.767,136.733,38.783,137.066,38.85,137.3z M59.15,80.6c0.5-0.6,1.167-1.2,2-1.8c1.367-0.933,2.267-1.75,2.7-2.45
	c0.933-0.333,1.933-0.75,3-1.25c-1.1,3.733-1.75,6.1-1.95,7.1c-0.5,2.566-0.717,5.75-0.65,9.55c0.133,3.067,0.217,5.6,0.25,7.6
	c-0.233-1.7-1.017-3.75-2.35-6.15c-2.1-3.8-3.15-6.65-3.15-8.55C59,82.95,59.05,81.6,59.15,80.6z M6.15,81.8
	c6.533,0.1,11.517,0.184,14.95,0.25c6.566,0.067,12.033-0.15,16.4-0.65c0.2-0.033,0.417-0.05,0.65-0.05
	c-0.2,1.167-0.533,2.533-1,4.1c-0.333,1.1-0.95,2.367-1.85,3.8c-1.133,1.767-1.85,2.983-2.15,3.65c-0.5,1.067-0.8,2.517-0.9,4.35
	c-0.133,2.067-0.333,3.533-0.6,4.4c-0.533-1.1-0.933-3.167-1.2-6.2c-0.267-2.767-0.867-4.833-1.8-6.2
	c-0.8-1.167-1.367-1.85-1.7-2.05c-0.3-0.133-1.267-0.284-2.9-0.45c-0.8-0.067-2.083-0.067-3.85,0c-1.367-0.2-2.117-1-2.25-2.4
	c-0.9-0.2-3.667-0.7-8.3-1.5C8.25,82.517,7.083,82.167,6.15,81.8z M45.1,102.4c1.033-0.633,1.85-1.433,2.45-2.4
	c0.1-0.167,0.2-0.333,0.3-0.5c0.933-1.667,1.316-3.917,1.15-6.75l1.5,1.5c0.7,2.667,1.067,4.117,1.1,4.35
	c0.233,1.833-0.083,3.267-0.95,4.3c-0.8,0.933-2.283,1.466-4.45,1.6c-2.1,0.134-3.65-0.116-4.65-0.75
	C42.917,103.45,44.1,103,45.1,102.4z M9.2,117.95c-0.067-0.033-0.117-0.066-0.15-0.101c0.3,0,0.717,0.051,1.25,0.15
	c0.7,0.066,1.583,0.2,2.65,0.4c1.667,0.3,3.017,0.416,4.05,0.35h2.5c-0.8,1.3-2.533,1.733-5.2,1.3
	C12,119.616,10.3,118.917,9.2,117.95z"/>
<path style="fill-rule:evenodd;clip-rule:evenodd;fill:#3F3832;" d="M215.25,126.55c0.533,1.2,1.65,1.851,3.35,1.95
	c1.667,0.066,3.25-0.316,4.75-1.15c-0.399,3.167-1.399,5.184-3,6.051c-1.5,0.833-3.449,0.583-5.85-0.75
	c-1.233-0.667-2-1.317-2.3-1.95c-0.367-0.3-1.95-0.434-4.75-0.4c-1.733,0-5.834,0.25-12.3,0.75c-5.9,0.134-9.634-0.633-11.2-2.3
	c1.566-0.533,3.633-0.816,6.2-0.85c3,0.066,5.233,0.083,6.699,0.05c4.934-0.066,8.567-1.316,10.9-3.75
	c-0.233-0.533-0.316-1.184-0.25-1.95l1,1c-0.233,0.333-0.483,0.65-0.75,0.95c0.333,0.833,1.066,1.35,2.2,1.55
	c1.967,0,3.467,0.033,4.5,0.1c0.2,0,0.383,0,0.55,0C215.066,126.083,215.15,126.316,215.25,126.55z M159.55,137.95
	c-0.1,0.066-0.184,0.133-0.25,0.2c-1.1,1.1-2.533,1.933-4.3,2.5c-0.6,0.199-2.25,1.033-4.95,2.5c-0.533,0.267-1.033,0.5-1.5,0.699
	c-0.166,0.067-0.316,0.117-0.45,0.15c-1.133,0.366-2.199,0.5-3.199,0.4c-4.934-0.534-7.934-1.851-9-3.95
	c2.1,1.1,4.75,1.483,7.949,1.149c3.601-0.399,5.184-1.816,4.75-4.25c0.601-0.166,1.767-0.233,3.5-0.199
	c1.567,0.066,2.667-0.051,3.301-0.351c0.833-0.366,1.616-1.05,2.35-2.05c1.1-1.6,1.684-2.434,1.75-2.5l-0.5,0.5
	c0.033-0.967,0.066-2.434,0.1-4.4c0.967-0.066,3.233-0.116,6.801-0.149c2.767-0.033,5-0.2,6.699-0.5c1.667-0.3,2.634-0.434,2.9-0.4
	c0.066,0,0.9,0.316,2.5,0.95c1.3,0.566,2.217,0.934,2.75,1.1c0.8,0.301,1.85,0.467,3.15,0.5c-0.434,0.867-1.767,2.384-4,4.551
	c-1.801,1.733-2.75,3.5-2.851,5.3c0.033-1.066-0.383-2.45-1.25-4.15c-0.866-1.7-1.316-3.1-1.35-4.2
	c-3.834-1.199-7.65-0.183-11.45,3.051c-0.667,0.666-1.25,1.267-1.75,1.8C160.517,136.934,159.95,137.517,159.55,137.95z M209.1,73.9
	c-1.699-3.3-1.566-5.183,0.4-5.65l1,1c1.267,2.367,2.116,4.2,2.55,5.5c0.8,2.3,0.75,4.2-0.149,5.7
	C212.667,79.65,211.4,77.467,209.1,73.9z M120.9,121.85c0.466,0.9,1.05,1.65,1.75,2.25c1.199,1.101,2.767,1.684,4.699,1.75
	c-0.033,0.067-0.116,0.534-0.25,1.4c-0.1,0.634-0.316,1.15-0.649,1.55c1.233,1.267,2.383,2.134,3.45,2.601
	c1.3,0.533,2.683,0.55,4.149,0.05c-0.833,1.366-1.166,2.866-1,4.5c0.167,1.666,0.816,3.083,1.95,4.25
	c-1.634,0.066-4.083-0.417-7.35-1.45s-5.817-1.533-7.65-1.5c-0.733,0.033-1.866,0.066-3.4,0.1c-1.333,0.067-2.467,0.217-3.4,0.45
	c-0.8,0.2-1.534,0.517-2.2,0.95c-0.433,0.267-0.817,0.483-1.15,0.65c0.933-0.034,1.917-0.167,2.95-0.4
	c-4.667,2.667-9.95,4.017-15.85,4.05c-0.367,1.167-1.45,2.167-3.25,3c-3.534,1.7-5.55,2.9-6.05,3.601c-0.566-1-0.95-2-1.15-3
	c-0.133-0.567-0.267-1.267-0.4-2.101c-0.367-1.233-1.9-2.333-4.6-3.3h1.2c-1.5-0.3-3.067-0.65-4.7-1.05
	c-0.333,0.767-0.5,1.816-0.5,3.149c-0.033,2.067-0.05,3.15-0.05,3.25c-1.3-0.199-2.133,0.134-2.5,1
	c-0.534,1.301-0.967,2.067-1.3,2.301c-0.433,0.333-1.2,0.75-2.3,1.25c-0.934,0.399-1.7,0.899-2.3,1.5
	c-1.2,1.199-2.333,3.6-3.4,7.199c-1.066,3.667-2.3,6.25-3.7,7.75c0.667-1.267,1.15-2.6,1.45-4c0.4-1.666,0.434-3.116,0.1-4.35
	c-0.2-0.866-0.567-1.884-1.1-3.05c-0.633-1.4-1.2-2.25-1.7-2.55c-0.733-0.5-1.983-1.017-3.75-1.551
	c-1.733-0.566-3.034-1.133-3.9-1.699c-1.1-0.733-2.517-1.9-4.25-3.5c-0.9-0.834-1.683-1.534-2.35-2.101
	c-1.333,0-2.65-0.116-3.95-0.35c-0.2-0.066-1.7-0.417-4.5-1.05c-1.033-0.233-1.817-0.467-2.35-0.7c-0.2-0.033-0.9,0.333-2.1,1.1
	c-0.767,0.4-1.283,0.667-1.55,0.8c-0.367,0.2-0.7,0.584-1,1.15c-0.9,1.833-1.117,5.134-0.65,9.9c0.5,4.966,0.433,8.333-0.2,10.1
	c-0.2-1.2-0.8-2.717-1.8-4.55c-1.033-1.934-1.65-3.4-1.85-4.4c-0.067-0.366-0.117-2.217-0.15-5.55c0-2-0.6-3.65-1.8-4.95
	c-0.233-0.267-0.7-0.45-1.4-0.55c-0.833-0.167-1.35-0.316-1.55-0.45c-0.1-0.066-0.25-0.45-0.45-1.149
	c-0.2-0.7-0.45-1.134-0.75-1.301c-0.467-0.233-1.333-0.399-2.6-0.5c-1.333-0.1-2.267-0.25-2.8-0.449
	c-0.633-0.233-1.533-0.634-2.7-1.2c-1.333-0.667-2.233-1.184-2.7-1.55c-0.434-0.334-1.05-1.233-1.85-2.7
	c-0.667-1.233-1.583-2.101-2.75-2.601v-0.1c1.533,0.1,3.85,0.85,6.95,2.25c2.9,1.3,5.417,1.9,7.55,1.8c3-0.166,5.867-0.866,8.6-2.1
	c3.7-1.7,5.167-3.851,4.4-6.45l1.5-4.5c0.1-0.2,0.2-0.483,0.3-0.85c0.133-0.267,0.333-0.467,0.6-0.601c1.1,1.7,1.467,3.867,1.1,6.5
	c-0.033,0.434-0.317,1.25-0.85,2.45c-0.5,1.134-0.75,1.767-0.75,1.9c0,0.199,0.033,0.399,0.1,0.6c0,0.066,0.017,0.134,0.05,0.2
	c0.267,0.733,0.85,1.233,1.75,1.5c1.034,0.333,1.883,0.616,2.55,0.85c0.6,0.233,1.017,0.434,1.25,0.601
	c0.566,0.399,1.333,1.133,2.3,2.199c0.333,0.4,0.7,0.834,1.1,1.301c0.9,1.1,1.767,1.966,2.6,2.6c3.967,1.733,6.983,2.917,9.05,3.55
	c3.934,1.233,7.567,0.967,10.9-0.8c1.333-0.7,2.3-1.517,2.9-2.45c0.2-0.3,0.716-1.467,1.55-3.5c0.267-0.566,0.783-2.1,1.55-4.6
	c0.767-2.3,1.417-3.617,1.95-3.95v-0.5c1.467,1.8,2.617,3.066,3.45,3.8c1.566,1.4,2.3,0.967,2.2-1.3c0-0.733-0.483-2.15-1.45-4.25
	c-1.034-2.167-1.6-3.684-1.7-4.55c0.5,1.1,1.3,2.166,2.4,3.2c0.6,0.6,1.633,1.483,3.1,2.649c1.267,1.101,2.25,1.934,2.95,2.5
	c1.267,1.066,2.316,1.717,3.15,1.95c0.733,0.2,1.767,0.05,3.1-0.45c1.367-0.5,2.333-0.7,2.9-0.6c0.5,0.1,1.183,0.533,2.05,1.3
	s1.667,1.2,2.4,1.3c0.067,0,0.133,0.017,0.2,0.05c0.367-0.033,0.767-0.183,1.2-0.449c0.033-0.034,0.083-0.067,0.15-0.101
	c0.433-0.3,0.9-0.45,1.4-0.45l4.5-1.6c2.9,0.267,5.617-0.184,8.15-1.35c2.934-1.301,4.6-3.217,5-5.75
	c0.233-1.467,0.166-2.317-0.2-2.551c-1.133-0.733-1.767-1.183-1.9-1.35s-0.483-0.217-1.05-0.15c-0.5,0.067-0.833-0.199-1-0.8
	c-0.167-0.533,0.117-1.166,0.85-1.899c0.967-0.934,1.5-1.517,1.6-1.75c0.4-0.967,0.616-2.25,0.649-3.851
	c0-2.3,0.017-3.6,0.051-3.899c0.8,4.3,1.55,7.399,2.25,9.3C120.533,121.1,120.7,121.483,120.9,121.85z M141.2,118.25
	c-0.267,1.3-0.634,2.3-1.101,3c0.334-2.634-0.75-3.833-3.25-3.6c-1.466,0.133-2.433,0.133-2.899,0c-1-0.267-1.634-1-1.9-2.2
	c4.167,1.033,6.65,0.3,7.45-2.2l2-1.5c0,0.146,0.017,0.296,0.05,0.45v0.05C141.483,114.283,141.366,116.283,141.2,118.25z"/>
<path style="fill-rule:evenodd;clip-rule:evenodd;fill:#74644D;" d="M111.7,1.9c0.1-0.066,0.2-0.117,0.3-0.15c0.133,0,0.267,0,0.4,0
	c6,0,10.933,0.183,14.8,0.55c5.467,0.467,10.533,1.333,15.2,2.6c1.699,0.467,5.616,1.167,11.75,2.1c5.066,0.8,8.916,1.75,11.55,2.85
	c1.566,0.667,4.899,1.8,10,3.4c4.1,1.3,7.383,2.65,9.85,4.05c2.334,1.333,3.55,2.45,3.65,3.35c-0.4,1.367-0.783,2.717-1.15,4.05
	c1.834,0.133,3.5,0.466,5,1c1.867,0.633,3.217,1.517,4.05,2.65c-0.633,0.5-2.517,1.117-5.649,1.85c-1.767,0.4-4.601,1.033-8.5,1.9
	c-6.634,1.7-7.55,3.4-2.75,5.1c-7.101,0.5-10.967,0.75-11.601,0.75c-5.166,0.033-8.8-0.65-10.899-2.05c3-0.467,5.533-1.55,7.6-3.25
	c2.267-1.867,3.467-4.083,3.601-6.65c0.267-5.3-4.067-9.383-13-12.25c-2.967-0.933-6.65-1.783-11.051-2.55
	c-2.366-0.434-5.283-0.934-8.75-1.5c-0.066-0.867-0.1-2.25-0.1-4.15c-1.333-0.367-3.267-0.5-5.8-0.4c-3.101,0.1-5.101,0.117-6,0.05
	c-2.101-0.2-5.05-0.383-8.85-0.55c-4.133-0.167-7.083-0.333-8.85-0.5c0.667-0.433,1.55-0.883,2.65-1.35
	C110.25,2.4,111.1,2.1,111.7,1.9z M192.55,9.8l-0.05-0.05h-0.05c-1.3-0.267-3.084-0.55-5.351-0.85c1.267-0.6,2.733-0.816,4.4-0.65
	v0.5c6.4-0.533,9.384,1.617,8.95,6.45c-1.267,0.3-2.55,0.3-3.851,0c0.233-2.767-0.699-4.467-2.8-5.1
	C193.467,10,193.05,9.9,192.55,9.8z M105,31.75l1,0.5c3.033,0.033,6.3,0.6,9.8,1.7c4.634,1.433,6.384,3.216,5.25,5.35
	c-0.533,1.034-3.183,2.1-7.95,3.2c-4.833,1.067-7.5,1.133-8,0.2c-0.434-0.8,0.167-1.733,1.8-2.8c1.8-1.2,2.7-2.117,2.7-2.75
	c0.033-1.3-1.067-2.383-3.3-3.25c-1.2-0.467-2.816-1.017-4.85-1.65C102.183,30.95,103.367,30.783,105,31.75z M76.5,25.25l0.5,1
	c0.367,0.667,1.15,1.05,2.35,1.15c1.433-0.033,2.45-0.05,3.05-0.05c0.033,2-1.45,3.133-4.45,3.4c-2.5,0.2-4.65-0.117-6.45-0.95
	c1.1-2.033-0.083-3.167-3.55-3.4c0.333-0.033,1.767-0.267,4.3-0.7C73.95,25.4,75.367,25.25,76.5,25.25z M30.95,58.85
	c0.233,0.467,0.233,1.083,0,1.85c-1.767,0.1-3.567,0.1-5.4,0c0.034-0.934,0.467-1.617,1.3-2.05c0.167-0.1,1.05-0.4,2.65-0.9
	C30.233,58.05,30.717,58.417,30.95,58.85z M23.1,46.7c0-1.267,0.133-2.8,0.4-4.6c-0.1-1.4-1.1-2.684-3-3.85l3,0.5
	c1.333,0.567,3.733,1.383,7.2,2.45c3.133,0.966,5.566,1.867,7.3,2.7c-0.267,1.133-1.1,1.767-2.5,1.9c-0.8,0.1-2.033,0.083-3.7-0.05
	c-0.633,0.033-2.1,0.267-4.4,0.7C25.533,46.817,24.1,46.9,23.1,46.7z M6.1,56.85l1.4-0.1l0.5,0.5c0.533,0.4,1.017,0.6,1.45,0.6
	c0.5,2.3-0.017,3.75-1.55,4.35c-1.367,0.5-3.117,0.283-5.25-0.65c0.6-0.533,1.5-1.133,2.7-1.8C6.15,59.083,6.4,58.117,6.1,56.85z
	 M75.45,57.35l0.05,1.3c-1.367,0.4-3.017,1.467-4.95,3.2c-1.867,1.667-3.583,2.683-5.15,3.05c-4.433,1.1-9.683,1.2-15.75,0.3
	c0.567-0.434,1.517-0.8,2.85-1.1c1.567-0.267,2.717-0.5,3.45-0.7c2.633-0.7,3.65-2.217,3.05-4.55c3.8-1.133,5.85-1.75,6.15-1.85
	c2.033-1,3.317-2.583,3.85-4.75l0.5,1.5c0.833,0.133,1.8,0.767,2.9,1.9C73.467,56.683,74.483,57.25,75.45,57.35z"/>
<path style="fill-rule:evenodd;clip-rule:evenodd;fill:#7E6C54;" d="M232.8,40.05c-0.133,0.2-0.267,0.417-0.399,0.65
	c-2.334,3.4-7.317,5.933-14.95,7.6c-4.733,1.034-9.9,1.567-15.5,1.6c-4.9,0.033-8.584-0.267-11.05-0.9
	c-8.034-2.133-17.067-2.5-27.101-1.1c-6.133,0.867-10.149,1.367-12.05,1.5c-4.733,0.367-9.35,0.2-13.85-0.5
	c-2.534-0.367-7,0.45-13.4,2.45c-7.367,2.267-11.9,3.483-13.6,3.65c-3.533,0.333-7.683,1.65-12.45,3.95
	c-7.767,3.7-11.767,5.6-12,5.7c-3.667,1.434-9.267,3.733-16.8,6.9c-6.733,2.667-12.433,4.5-17.1,5.5
	c-4.167,0.9-9.117,1.534-14.85,1.9c-2.5,0.167-7.467,0.367-14.9,0.6c-2.233,0.067-5.9,0.3-11,0.7C7.4,80.483,3.7,80.4,0.7,80
	c-0.233-0.033-0.434-0.067-0.6-0.1c-0.033,0-0.067,0-0.1,0l0.05-3.75c-0.033-1.233-0.033-2.467,0-3.7l0.2-3.625
	c0.004-0.213,0.021-0.421,0.05-0.625c0.185-2.642,0.501-5.825,0.95-9.55c0.867-0.4,1.283-1.2,1.25-2.4l1-1
	c-0.967,0.233-1.6,0.417-1.9,0.55c0.633-5.667,0.983-9.966,1.05-12.9c0.1-4.7,0.267-7.75,0.5-9.15c0.5-2.933,1.617-5.433,3.35-7.5
	c0.667,0.067,1.733,0.033,3.2-0.1c1.566-0.133,2.6-0.183,3.1-0.15c3.3,0.167,5.6,0.217,6.9,0.15l0.35,0.1
	c2.567,0.6,5.2,0.967,7.9,1.1c1.966,0.066,4.65,0.033,8.05-0.1c1.933-0.067,4.6-0.483,8-1.25c4.5-1.033,7.167-1.617,8-1.75
	c12.933-2.067,23.267-5.567,31-10.5c9.933-6.267,19.5-10.217,28.7-11.85c-0.6,0.2-1.45,0.5-2.55,0.9
	c-1.1,0.467-1.983,0.917-2.65,1.35c1.767,0.167,4.717,0.333,8.85,0.5c3.8,0.167,6.75,0.35,8.85,0.55c0.899,0.066,2.899,0.05,6-0.05
	c2.533-0.1,4.467,0.033,5.8,0.4c0,1.9,0.033,3.284,0.1,4.15c3.467,0.566,6.384,1.066,8.75,1.5c4.4,0.767,8.084,1.617,11.051,2.55
	c8.933,2.867,13.267,6.95,13,12.25c-0.134,2.567-1.334,4.783-3.601,6.65c-2.066,1.7-4.6,2.783-7.6,3.25
	c2.1,1.4,5.733,2.083,10.899,2.05c0.634,0,4.5-0.25,11.601-0.75c-4.8-1.7-3.884-3.4,2.75-5.1c3.899-0.867,6.733-1.5,8.5-1.9
	c3.133-0.733,5.017-1.35,5.649-1.85c-0.833-1.133-2.183-2.017-4.05-2.65c-1.5-0.534-3.166-0.867-5-1
	c0.367-1.333,0.75-2.684,1.15-4.05c-0.101-0.9-1.316-2.017-3.65-3.35c-2.467-1.4-5.75-2.75-9.85-4.05c-5.101-1.6-8.434-2.733-10-3.4
	c-2.634-1.1-6.483-2.05-11.55-2.85c-6.134-0.933-10.051-1.633-11.75-2.1c-4.667-1.267-9.733-2.133-15.2-2.6
	c-3.867-0.367-8.8-0.55-14.8-0.55c1.2-0.2,2.4-0.367,3.6-0.5c7.1-0.7,12.4-1.1,15.9-1.2c5.333-0.167,10.6,0.1,15.8,0.8
	c4.833,0.667,10.616,1.133,17.35,1.4c7.667,0.167,13.483,0.333,17.45,0.5c7.167,0.3,14.017,1.767,20.55,4.4
	c6.967,2.8,12.9,6.633,17.8,11.5c0.7,0.667,1.567,1.767,2.601,3.3c1.033,1.533,1.916,2.65,2.649,3.35
	c1.834,1.3,3.217,2.284,4.15,2.95c1.634,1.167,2.667,2.483,3.1,3.95C234.25,35.167,234.066,37.783,232.8,40.05z M206.6,35.4
	c-0.633,1.4-0.933,2.4-0.899,3c0.066,0.934,0.85,1.367,2.35,1.3c1.767-0.067,3.4-1.45,4.9-4.15c1.5-2.667,1.85-4.767,1.05-6.3l-3-1
	c-0.366,0.033-1.333,0.4-2.9,1.1c0.567,1.467,0.667,2.533,0.301,3.2C207.667,33.417,207.066,34.367,206.6,35.4z M192.45,9.75
	c-1.033,0.067-2.584-0.017-4.65-0.25c-2.066-0.2-3.649-0.25-4.75-0.15c0.601,1.367,2.566,2.6,5.9,3.7
	c3.399,1.133,4.75,0.367,4.05-2.3l-0.45-0.95c0.5,0.1,0.917,0.2,1.25,0.3c2.101,0.633,3.033,2.333,2.8,5.1
	c1.301,0.3,2.584,0.3,3.851,0c0.434-4.833-2.55-6.983-8.95-6.45v-0.5c-1.667-0.167-3.134,0.05-4.4,0.65
	C189.366,9.2,191.15,9.483,192.45,9.75z M160,16.75c-2.833-0.4-7.017-1.183-12.55-2.35c-5-0.9-9.283-1.3-12.851-1.2
	c5.634,1.833,8.567,2.816,8.801,2.95c4.033,1.867,5.433,4.05,4.199,6.55c3.7,0.233,6.25,0.216,7.65-0.05
	c2.9-0.6,4.483-2.233,4.75-4.9V16.75z M122,5.75c-2.467-0.067-4.25-0.05-5.35,0.05c-2.2,0.267-3.783,0.917-4.75,1.95
	c1.033,1.2,3,1.967,5.9,2.3c3.101,0.333,4.667-0.433,4.7-2.3L122,5.75z M89.7,36.7c2.733,1.2,4.933,2.117,6.6,2.75
	c3.1,1.2,5.217,1.15,6.35-0.15c1.267-1.4,1.017-2.966-0.75-4.7c-1.667-1.633-3.3-2.417-4.9-2.35h-1.5
	c-0.067,0.067-1.333,0.617-3.8,1.65C90.167,34.567,89.5,35.5,89.7,36.7z M105,31.75c-1.633-0.967-2.817-0.8-3.55,0.5
	c2.033,0.633,3.65,1.183,4.85,1.65c2.233,0.867,3.333,1.95,3.3,3.25c0,0.633-0.9,1.55-2.7,2.75c-1.633,1.067-2.233,2-1.8,2.8
	c0.5,0.933,3.167,0.867,8-0.2c4.767-1.1,7.417-2.167,7.95-3.2c1.134-2.133-0.616-3.917-5.25-5.35c-3.5-1.1-6.767-1.667-9.8-1.7
	L105,31.75z M76.5,25.25c-1.133,0-2.55,0.15-4.25,0.45c-2.533,0.433-3.967,0.667-4.3,0.7c3.466,0.233,4.65,1.367,3.55,3.4
	c1.8,0.833,3.95,1.15,6.45,0.95c3-0.267,4.483-1.4,4.45-3.4c-0.6,0-1.617,0.017-3.05,0.05c-1.2-0.1-1.983-0.483-2.35-1.15
	L76.5,25.25z M66.95,29.1c0.267-0.8,0.25-1.35-0.05-1.65c-0.133-0.2-0.6-0.434-1.4-0.7l-0.5-0.5c-2.467,0.433-3.6,1.417-3.4,2.95
	C63.833,29.333,65.617,29.3,66.95,29.1z M18.5,39.25c-1.9,0.467-3.2,1.167-3.9,2.1c-0.767,1-0.934,2.45-0.5,4.35
	c1.566,0.466,2.7-0.067,3.4-1.6c0.567-1.233,0.733-2.684,0.5-4.35L18.5,39.25z M23.1,46.7c1,0.2,2.433,0.117,4.3-0.25
	c2.3-0.434,3.767-0.667,4.4-0.7c1.667,0.133,2.9,0.15,3.7,0.05c1.4-0.133,2.233-0.767,2.5-1.9c-1.733-0.833-4.167-1.733-7.3-2.7
	c-3.467-1.067-5.867-1.883-7.2-2.45l-3-0.5c1.9,1.167,2.9,2.45,3,3.85C23.233,43.9,23.1,45.433,23.1,46.7z M30.95,58.85
	c-0.233-0.434-0.717-0.8-1.45-1.1c-1.6,0.5-2.483,0.8-2.65,0.9c-0.833,0.434-1.267,1.117-1.3,2.05c1.833,0.1,3.633,0.1,5.4,0
	C31.183,59.933,31.183,59.317,30.95,58.85z M22,53.75l0.5,0.5c-0.967,0.467-1.65,1.317-2.05,2.55c1,0.633,2.033,0.767,3.1,0.4
	c1.1-0.4,1.784-1.217,2.05-2.45C24.533,53.917,23.333,53.583,22,53.75z M6.1,56.85c0.3,1.267,0.05,2.233-0.75,2.9
	c-1.2,0.667-2.1,1.267-2.7,1.8c2.133,0.934,3.883,1.15,5.25,0.65c1.533-0.6,2.05-2.05,1.55-4.35c-0.434,0-0.917-0.2-1.45-0.6
	l-0.5-0.5L6.1,56.85z M75.45,57.35c-0.967-0.1-1.983-0.667-3.05-1.7c-1.1-1.133-2.066-1.767-2.9-1.9l-0.5-1.5
	C68.467,54.417,67.183,56,65.15,57c-0.3,0.1-2.35,0.717-6.15,1.85c0.6,2.333-0.417,3.85-3.05,4.55c-0.733,0.2-1.883,0.434-3.45,0.7
	c-1.333,0.3-2.283,0.667-2.85,1.1c6.067,0.9,11.317,0.8,15.75-0.3c1.567-0.367,3.283-1.383,5.15-3.05
	c1.934-1.733,3.583-2.8,4.95-3.2L75.45,57.35z M55.65,53.35c-1.967,1.333-3.15,2.1-3.55,2.3c-2.3,0.867-3.9,1.583-4.8,2.15
	c-1.5,1-2.083,2.6-1.75,4.8c2.633-0.1,5.367-1.667,8.2-4.7c3.067-3.333,5.483-5.217,7.25-5.65l-1-1
	C58.4,51.75,56.95,52.45,55.65,53.35z"/>
</svg>
