<?xml version="1.0" encoding="iso-8859-1"?>
<!-- Generator: Adobe Illustrator 15.1.0, SVG Export Plug-In . SVG Version: 6.00 Build 0)  -->
<!DOCTYPE svg PUBLIC "-//W3C//DTD SVG 1.1//EN" "http://www.w3.org/Graphics/SVG/1.1/DTD/svg11.dtd">
<svg version="1.1" id="FlashAICB" xmlns="http://www.w3.org/2000/svg" xmlns:xlink="http://www.w3.org/1999/xlink" x="0px" y="0px"
	 width="199.55px" height="44px" viewBox="0 0 199.55 44" style="enable-background:new 0 0 199.55 44;" xml:space="preserve">
<path style="fill-rule:evenodd;clip-rule:evenodd;fill:#4E4539;" d="M137.15,41.35c0.066,0,0.133,0,0.199,0
	c1.567,0.233,2.784,0.65,3.65,1.25c1.134-1.866,3.45-3.033,6.95-3.5c3.934-0.133,6.533-0.283,7.8-0.449
	c3.167-0.4,5.866-0.95,8.1-1.65c2.5-0.8,5.034-1.967,7.601-3.5c2.767-1.667,5.3-2.55,7.6-2.65c5.4-0.199,8.217-0.316,8.45-0.35
	c2.566-0.366,5.083-1.233,7.55-2.6c2.767-1.534,4.167-3.15,4.2-4.851c0.066,0,0.116,0,0.15,0c0.533,2.101-0.483,3.967-3.051,5.601
	c-2.066,1.3-4.3,2.116-6.699,2.449c-2.767,0.4-5.067,0.667-6.9,0.801c-0.9,0.166-2.917,1.166-6.05,3
	c-2.667,1.566-5.283,2.75-7.851,3.55c-2.333,0.7-5.116,1.233-8.35,1.6c-1.333,0.167-4.017,0.334-8.05,0.5
	c-3.601,0.434-5.983,1.584-7.15,3.45c-0.934-0.566-2.184-0.967-3.75-1.2c-2.633-0.366-3.983-0.55-4.05-0.55
	C137.4,41.917,137.283,41.616,137.15,41.35z M175.95,18.85c-1.134,0-2.267-0.017-3.4-0.05c-0.267-0.633-1.184-1.283-2.75-1.95
	c0.367,0.066,0.717,0.15,1.05,0.25C173.05,17.7,174.75,18.283,175.95,18.85z M178.8,20.4h2.45c-0.6,0.033-1.2,0.083-1.8,0.15
	l-0.65,0.1V20.4z M22.9,32.8c0.4,1.467,2.233,2.25,5.5,2.351c0.633,0.033,1.483,0.033,2.55,0c1.2-0.034,2.566-0.117,4.1-0.25
	c5.434-0.467,9.684-0.717,12.75-0.75c4.333,0.1,7.15,0.8,8.45,2.1c0.133,0.167,0.267,0.35,0.4,0.55c-1.2-0.6-2.85-0.983-4.95-1.149
	c-2.333-0.134-6.117,0.033-11.35,0.5c-5.5,0.5-9.184,0.716-11.05,0.649c-3.367-0.133-5.25-0.934-5.65-2.399
	c-0.367,0.1-1.05,0.1-2.05,0c-0.967-0.101-1.65-0.101-2.05,0c0-0.233-0.05-0.634-0.15-1.2c-0.033-0.2-0.05-0.367-0.05-0.5
	c0.367-0.033,0.883,0,1.55,0.1C21.867,32.9,22.533,32.9,22.9,32.8z M61.65,39.55c-1.033-0.333-2.316-0.316-3.85,0.05
	c0.333-0.399,0.567-0.75,0.7-1.05c-0.133-0.3-0.317-0.566-0.55-0.8h0.55c0.5,0,0.967,0.066,1.4,0.2
	c0.55,0.175,0.992,0.458,1.325,0.85L61.65,39.55z M132.15,38.8c-1.4,0.101-3.584-0.333-6.551-1.3c-1.866-0.6-3.35-1.184-4.449-1.75
	c0.233,0.1,0.466,0.184,0.699,0.25c0.134,0.033,0.267,0.083,0.4,0.15l2.15,0.6c0.066,0,0.149,0.017,0.25,0.05
	c2,0.467,3.399,0.584,4.199,0.351l0.25,1.1h1.7C131.3,38.316,131.75,38.5,132.15,38.8z M131.55,11.05
	c-0.237,0.037-0.463,0.062-0.675,0.075c-0.221,0.004-0.429-0.004-0.625-0.025c-0.134-0.033-0.267-0.067-0.4-0.1
	c-0.3-0.067-0.533-0.283-0.699-0.65c1.1-0.133,2-0.167,2.699-0.1c0.301,0.033,0.551,0.217,0.75,0.55
	C132.227,10.907,131.876,10.99,131.55,11.05z M105.65,6c0.267,0,0.533-0.033,0.8-0.1c0.066,0.167,0.149,0.333,0.25,0.5
	C106.3,6.267,105.95,6.133,105.65,6z M17.65,16c-0.167-0.2-0.3-0.4-0.4-0.6c0.3-0.1,0.617-0.2,0.95-0.3
	c0.066,0.033,0.133,0.066,0.2,0.1c0.967,0.466,2.283,0.75,3.95,0.85c-0.1,0-0.2,0-0.3,0h-0.4c-0.066,0-0.117,0.017-0.15,0.05
	c-0.9,0-1.967,0-3.2,0V16C18.067,16,17.85,16,17.65,16z M11.35,22.5c0.033,0,0.066,0,0.1,0c-0.034,0.033-0.067,0.083-0.1,0.15
	c-0.2,0.3-0.434,0.833-0.7,1.6c-1.2-0.1-2.8-0.333-4.8-0.7c-2.5-0.5-4.434-0.666-5.8-0.5c0.233-0.8,0.817-1.417,1.75-1.85
	c1.067,0.033,2.35,0.2,3.85,0.5c0.167,0.033,0.333,0.066,0.5,0.1C8.483,22.267,10.217,22.5,11.35,22.5z M16.4,30.15
	c1.3,0,2.05,0.033,2.25,0.1c0,0.267,0.05,0.684,0.15,1.25c0.034,0.134,0.05,0.25,0.05,0.35c-0.233-0.033-0.5-0.05-0.8-0.05
	c-0.333,0-0.767,0.017-1.3,0.05C16.55,30.884,16.433,30.316,16.4,30.15z M16.2,30.15c-0.367,0.033-0.867,0.017-1.5-0.051
	C13.833,30.033,13.267,30,13,30c0.333-0.667,0.5-1.233,0.5-1.7c0.2,0,0.433,0.017,0.7,0.05c0.733,0.067,1.283,0.067,1.65,0
	c0.033,0.134,0.066,0.284,0.1,0.45c0,0.033,0,0.066,0,0.101C16.083,29.566,16.167,29.983,16.2,30.15z M92,2.35
	c0.1,0,0.2,0.017,0.3,0.05c0.4,0.067,0.75,0.184,1.05,0.35C92.983,2.783,92.6,2.833,92.2,2.9V2.85c-0.014-0.037-0.031-0.07-0.05-0.1
	C92.102,2.614,92.052,2.48,92,2.35z M116.05,33.3c0.533,0.467,1.351,0.95,2.45,1.45c-0.533,0.434-1.333,1.134-2.4,2.1
	c-2.767,0.534-3.899,0.7-3.399,0.5c-2.834,1.034-4.517,1.684-5.05,1.95c-1.733,0.867-3.117,2.084-4.15,3.65
	c-1.066-0.434-3.083-0.717-6.05-0.851c-2-0.1-3.9-0.133-5.7-0.1c-6.333,0.167-10.133,0.25-11.4,0.25
	C69.417,42.15,63.9,42.1,63.8,42.1c-0.066-0.6-0.233-1.1-0.5-1.5c2.367,0.034,7.25,0.084,14.65,0.15c0.767,0,4.466-0.083,11.1-0.25
	c1.667-0.033,3.5,0,5.5,0.1c2.9,0.167,4.851,0.467,5.851,0.9c1.033-1.566,2.383-2.8,4.05-3.7c0.366-0.2,2-0.866,4.899-2
	c-0.466,0.2,0.634,0.05,3.301-0.45c1.6-1.533,2.566-2.399,2.899-2.6c0,0.033,0.017,0.05,0.05,0.05L116.05,33.3z M12.95,27.25
	c-0.467-0.333-1.2-0.5-2.2-0.5c0.067-0.066,0.233-0.45,0.5-1.15c0.067-0.199,0.133-0.366,0.2-0.5c0.033,0,0.066,0,0.1,0
	c0.2,0.034,0.383,0.101,0.55,0.2h0.05c0.033,0.033,0.083,0.066,0.15,0.101c0.067,0.033,0.15,0.083,0.25,0.149
	c0.034,0.033,0.067,0.084,0.1,0.15c0.067,0.033,0.117,0.1,0.15,0.2c0.067,0.133,0.133,0.283,0.2,0.449v0.4
	C13,26.884,12.983,27.05,12.95,27.25z"/>
<path style="fill-rule:evenodd;clip-rule:evenodd;fill:#665D37;" d="M90.2,10.3c3.4-0.066,5.7,0.733,6.9,2.4
	c1.1,0.066,1.933,0.133,2.5,0.2c0,0.267-0.116,0.45-0.35,0.55c0.366,0.066,0.866,0.066,1.5,0c0.934-0.133,1.434-0.2,1.5-0.2
	c0.033-1-0.267-1.85-0.9-2.55c-0.6-0.667-1.416-1.083-2.45-1.25L98.15,8.1c-0.4-0.133-0.933-0.317-1.6-0.55
	c-0.533-0.133-1.083-0.083-1.65,0.15l0.25,0.7c-2.367,0.467-4.083,1-5.15,1.6l-1.2-2.25c-0.867-0.133-2.617-0.033-5.25,0.3
	c0.133,0.133,0.35,0.467,0.65,1c0.2,0.367,0.6,0.7,1.2,1c-0.033,0-1.617,0.15-4.75,0.45c-1.6,0.133-2.617,0.85-3.05,2.15
	c-2.434,0.533-3.75,0.833-3.95,0.9c-1.5,0.467-2.566,1.1-3.2,1.9c1.3,0.233,2.9,0.367,4.8,0.4c2.233,0,4.317-0.133,6.25-0.4
	c0.067,0.433,0.167,0.816,0.3,1.15c4.2,0.566,7.517,0.667,9.95,0.3c0.1-0.566,0.117-1.217,0.05-1.95
	c-1.233-0.434-2.883-0.617-4.95-0.55l0.85,0.1l-4,0.1l2.1-0.15l0.35-0.1c2.434-0.967,3.8-2.283,4.1-3.95L90.2,10.3z M93.25,26.95
	c0.7-0.434,1.2-0.967,1.5-1.601c-0.233-0.633-0.683-0.983-1.35-1.05l-6.1-1.8c-1.267,0.033-3.917,0-7.95-0.1
	c-3.767,0.066-6.567,0.533-8.4,1.399c0.1-0.7,0.083-1.366-0.05-2h-0.05l0.05-0.05l-0.1-0.55c-0.9,1.633-2.2,2.916-3.9,3.85l1.1-1.7
	c-2.267,2.233-4.617,3.5-7.05,3.801c-1.034,1.033-2.4,1.8-4.1,2.3v-0.4c-3.267,0.167-7.1,0.65-11.5,1.45l0.1-0.3
	c-0.534,0.233-1.3,0.35-2.3,0.35c-1.133-0.033-1.883,0-2.25,0.101c0.1-0.4,0.017-0.75-0.25-1.051c-1.167,0.601-2.2,1.384-3.1,2.351
	c-2.233,0.434-4.183,0.767-5.85,1c-0.833,0.133-2.2,0.133-4.1,0l-0.05-0.3c-0.4,0.1-1.1,0.1-2.1,0
	c-1.034-0.134-1.75-0.15-2.15-0.051c0.133-0.466,0.25-1.316,0.35-2.55c-0.5,0.134-1.367,0.167-2.6,0.101
	c0.467-0.334,0.833-0.7,1.1-1.101c0.367-0.6,0.567-0.916,0.6-0.95c-1.033,0.567-1.85,0.801-2.45,0.7c-0.466-0.1-1.017-0.5-1.65-1.2
	c-0.133-0.166-0.4-0.199-0.8-0.1s-0.684,0.083-0.85-0.05c0-0.3,0.1-0.9,0.3-1.8c-1.1-0.067-1.883-0.15-2.35-0.25
	c0.2-0.567,0.25-1.351,0.15-2.351c-0.367,0.101-1,0.101-1.9,0c-0.9-0.1-1.517-0.116-1.85-0.05v-0.35
	c0.033-0.067,0.066-0.117,0.1-0.15c-0.034,0-0.067,0-0.1,0c0-0.134-0.033-0.467-0.1-1c-0.033-0.433-0.033-0.767,0-1
	c-0.7,0-1.817,0.067-3.35,0.2c-1.233,0.033-2.033-0.15-2.4-0.55l0.65,1.65c-0.167-0.033-0.333-0.066-0.5-0.1
	c-1.5-0.3-2.783-0.467-3.85-0.5c-0.7-0.067-1.3-0.067-1.8,0c0.333-1.167,1.383-1.934,3.15-2.3c0.7-0.133,2.25-0.25,4.65-0.35
	c-0.167-0.033-0.333-0.066-0.5-0.1c1.8-0.067,3.284,0.05,4.45,0.35c-0.033-0.133-0.133-0.283-0.3-0.45
	c-0.167-0.133-0.267-0.283-0.3-0.45c2.067-0.133,3.283-0.217,3.65-0.25c1.367-0.167,2.534-0.467,3.5-0.9V16.1c1.233,0,2.3,0,3.2,0
	c-2.3,0.267-3.8,0.933-4.5,2c2.767,0.233,4.317,0.333,4.65,0.3c1.9-0.1,3.05-0.7,3.45-1.8l-0.05-0.65c-1.133,0-2.033,0.033-2.7,0.1
	c-1.667-0.1-2.983-0.383-3.95-0.85v-0.9c0.633-0.066,1.9-0.466,3.8-1.2c1.5-0.567,2.8-0.767,3.9-0.6c0-1.233,1.117-2.25,3.35-3.05
	c2.1,0.1,3.65,0.133,4.65,0.1l-1.55-0.6c0.534-0.9,1.65-1.667,3.35-2.3c-1.533,0.633-2.583,1.317-3.15,2.05
	c1.267-0.233,2.85-0.417,4.75-0.55L37.8,9c-5.066,0.833-8.75,2.233-11.05,4.2c2.233,0.167,4.1,0.25,5.6,0.25
	c2.867,0,4.583-0.4,5.15-1.2c0.633-0.833,0.733-1.917,0.3-3.25l1-0.2l-0.9-0.7l4.15-0.2l0.15-1.1c1.7-0.167,3.683-0.466,5.95-0.9
	c2.567-0.5,4.483-0.883,5.75-1.15L53.4,6.3c-1.533-0.1-3.05,0-4.55,0.3c2.967,0.8,5.367,1.083,7.2,0.85
	c0.2-0.867,0.184-1.517-0.05-1.95c-0.167-0.3-0.567-0.583-1.2-0.85h-0.6l-0.3,0.1V4.7l-3.45,0.2l0.5-0.15l3.5-0.15l0.2-0.05
	c4.233-0.8,7.767-1.2,10.6-1.2l0.2,1.3L64.7,4.6c-1.833-0.2-3.467,0.3-4.9,1.5c1.5,1.066,3.367,1.566,5.6,1.5
	c2.467-0.067,4.017-0.9,4.65-2.5l-0.4-0.05c1.2-0.7,2.117-1.2,2.75-1.5c1.367,0.267,2.567,0.684,3.6,1.25
	c-0.867-0.066-1.717,0.1-2.55,0.5c-0.467,0.2-1.083,0.5-1.85,0.9c0.633,0.333,1.066,0.767,1.3,1.3c-0.4,1.4-0.65,2.317-0.75,2.75
	c-0.867,0.2-1.7,0.667-2.5,1.4c3.833,0.667,6.033-0.233,6.6-2.7c0.367,0.066,1.017,0.017,1.95-0.15c0.933-0.2,1.583-0.25,1.95-0.15
	c0.1-0.267-0.117-0.917-0.65-1.95c0.333-0.233,0.583-0.4,0.75-0.5c0.267-0.233,0.417-0.45,0.45-0.65c-1-0.9-2.167-1.5-3.5-1.8
	c-0.8-0.167-2.117-0.367-3.95-0.6l0.7-0.2c1.933-0.467,4.167-0.633,6.7-0.5c3.1,0.133,4.934,0.783,5.5,1.95
	c1.467,0.833,4.4,1.4,8.8,1.7c4.8,0.333,7.684-0.117,8.649-1.35c0.4,0.467,1.084,0.883,2.051,1.25c0.3,0.133,0.649,0.267,1.05,0.4
	c1,0.267,2.2,0.517,3.6,0.75c1.834,0.3,3.517,0.483,5.05,0.55l6.9,2.95c1.8-0.566,3.55-0.35,5.25,0.65
	c-0.267,0.1-0.65,0.333-1.15,0.7c-0.533,0.367-0.933,0.6-1.199,0.7c0.399,0.133,0.933,0.4,1.6,0.8c0.733,0.433,1.217,0.7,1.45,0.8
	c-0.101,0.067-0.3,0.184-0.601,0.35c-0.199,0.067-0.35,0.184-0.449,0.35c1.699,0.333,3.383,0.283,5.05-0.15
	c0.267-1.4,0.05-2.667-0.65-3.8c0.326-0.06,0.677-0.143,1.05-0.25c0.167-0.033,0.334-0.083,0.5-0.15c1-0.333,1.9-0.117,2.7,0.65
	c3.733-2.167,7.55-2.716,11.45-1.65c0.233,0.1,0.45,0.2,0.65,0.3c3.399,2.167,5.5,3.483,6.3,3.95c2.434,1.4,4.633,2.367,6.6,2.9
	c0.867,0.267,1.834,0.517,2.9,0.75c-1.7,0.1-2.967,0.583-3.8,1.45h0.699c-0.066,0-0.149,0.233-0.25,0.7
	c3.667,0.233,7.101,0.15,10.301-0.25c-0.434-0.367-1.034-0.7-1.801-1l9.9,1.45v0.25l-0.15-0.1c-2.833-0.066-4.399-0.083-4.699-0.05
	c-1.434,0.2-2.534,0.933-3.301,2.2l5.7,1.2c2.467,0.199,3.917-0.5,4.351-2.101l-0.4-0.25c-0.3-0.133-0.65-0.233-1.05-0.3h0.55
	l-0.3-0.2c0.6-0.066,1.2-0.117,1.8-0.15h0.05l1.15,0.25c-0.2-0.033-1.101,0-2.7,0.1l0.5,0.3c0.634,0.3,1.167,0.867,1.6,1.7
	c0.434,0.833,0.733,1.283,0.9,1.35c0.634,0.301,1.483,0.5,2.55,0.601c1.134,0.1,1.934,0.233,2.4,0.399
	c0.333,0.134,0.783,0.233,1.35,0.301c-0.767,0.3-1.467,0.449-2.1,0.449l-0.15,0.4c-3.467-0.167-6.35-0.8-8.649-1.9
	c0.333,0.334,0.716,0.634,1.149,0.9c-1.566,0.333-4.033-0.1-7.399-1.3c-3.467-1.233-6.2-1.667-8.2-1.3
	c0.399,0.267,0.916,0.55,1.55,0.85l-0.5,0.35l0.8-0.199c0.5,0.199,1.367,0.466,2.601,0.8c1.166,0.333,2.033,0.616,2.6,0.85l0.4,0.75
	c-0.934-0.133-1.617-0.25-2.051-0.35c0.567,0.166,1.334,0.5,2.301,1l0.449,1.399c-1.1,0.334-3.1,0.334-6,0
	c-2.933-0.366-4.916-0.416-5.949-0.149c0.133,0.434,0.399,0.916,0.8,1.45c-1.566,0.733-3.733,1.1-6.5,1.1
	c-1.5-0.033-3.884-0.233-7.15-0.6c0.066,0.066,0.334,0.433,0.8,1.1c0.4,0.533,0.784,0.934,1.15,1.2
	c-2.333-0.667-3.783-1.05-4.35-1.15c-1.601-0.3-2.983-0.217-4.15,0.25c0.333,0.334,0.566,0.717,0.7,1.15l-2.7-0.8
	c0.6,0.866,0.934,1.416,1,1.649c-0.533,0.367-1.566,0.851-3.1,1.45c-0.2-0.233-0.434-0.434-0.7-0.6l0.649-0.101
	c0.101-1.267,0.084-2.116-0.05-2.55l-2.05-1.95c-2,0.134-3.783,0.867-5.35,2.2c0.366,1.066,1.133,1.8,2.3,2.2
	c-1.267,0.1-2.184,0.017-2.75-0.25c-0.867-0.367-1.4-1.184-1.601-2.45l-1.1-0.15c-0.134-0.233-0.25-0.583-0.35-1.05
	c-0.067-0.399-0.217-0.733-0.45-1c0.533-0.666,1.283-1.283,2.25-1.85c-0.233,0.467-0.3,1.083-0.2,1.85
	c1.967,0.134,3.45,0.167,4.45,0.101c1.8-0.101,2.934-0.551,3.399-1.351c1.301,1.167,2.934,1.767,4.9,1.8c2.1,0,3.35-0.8,3.75-2.399
	c-1.667-0.9-3.45-1.267-5.35-1.101l-0.7-0.649c-0.267,0-1.384-0.05-3.351-0.15c-1.6-0.1-2.866-0.083-3.8,0.05l1-0.8
	c5.334-1.066,6.5-2.733,3.5-5c0.367-0.267,0.934-0.6,1.7-1c-0.134-1.7-1.267-2.683-3.4-2.95l-1.3,0.7
	c-0.366,0.1-0.816,0.184-1.35,0.25c-0.4,0.167-0.667,0.55-0.8,1.15c0.233,0.066,0.866,0.333,1.899,0.8
	c0.834,0.4,1.55,0.583,2.15,0.55l-1.101,2.7c-0.5,0.167-1.283,0.384-2.35,0.65l0.3-1.351c-0.2,0.034-0.5,0.15-0.899,0.35
	c-0.367,0.2-0.684,0.3-0.95,0.3c0.3-0.967,0.434-1.817,0.399-2.55c-0.733,0.467-1.566,1.3-2.5,2.5
	c-0.966,1.167-1.767,1.933-2.399,2.3c-0.834,0.5-2.184,0.916-4.05,1.25c-1.601,0.267-3.067,0.399-4.4,0.399l0.75,1.65
	c-1.667,0.3-3.733,0.983-6.2,2.05c-2.467,1.101-4.383,1.783-5.75,2.05c-0.033,0.233,0.017,0.483,0.15,0.75
	c0.133,0.301,0.2,0.483,0.2,0.551c-2.301-0.534-4.584-0.784-6.851-0.75c-2.667,0.066-4.8,0.583-6.4,1.55c0.1-0.367,0.083-0.7-0.05-1
	c-1.5-0.066-3.45,0.333-5.85,1.2l-0.1-1c-0.967,0.199-3.133,1-6.5,2.399c-3.033,1.033-4.867,1.017-5.5-0.05
	c-0.9,0.2-1.717,0.233-2.45,0.1c0.3-0.233,0.7-0.699,1.2-1.399c0.533-0.733,0.95-1.233,1.25-1.5c-0.2-0.033-1-0.4-2.4-1.101
	c0.8-0.6,1.533-1.1,2.2-1.5c-0.267,0-0.934-0.116-2-0.35c-1.034-0.167-1.867-0.184-2.5-0.05c1.767-0.533,3.133-1.467,4.1-2.8
	l2.2-0.15c-1.033,0.134-1.733,0.384-2.1,0.75c-0.267,0.233-0.65,0.7-1.15,1.4c1.333,0.466,3.433,0.767,6.3,0.899
	c3.034,0.167,5.883,0.05,8.55-0.35c0.8,1.2,2.867,1.767,6.2,1.7c1.3-0.034,3.667-0.267,7.101-0.7
	c-0.134-0.233-0.25-0.783-0.351-1.65c-0.1-0.7-0.399-1.283-0.9-1.75c0.267-0.633,0.667-1.017,1.2-1.149
	c0.4-0.134,1.067-0.15,2-0.051l-2.05-1.3c-1.966,0.2-3.75,0.717-5.35,1.55c0.966,0.634,1.733,1.067,2.3,1.301
	C95.967,26.8,94.717,26.816,93.25,26.95z M192.325,21.45c3.081,0.433,5.356,0.649,6.825,0.649c-1.9,0.034-3.983-0.149-6.25-0.55
	C192.717,21.517,192.525,21.483,192.325,21.45z M156.45,23.95c-0.167-0.2-0.483-0.316-0.95-0.351c-0.767,0-1.25-0.017-1.45-0.05
	l-5.3,0.851c-1.134,0.033-1.733,0.066-1.8,0.1c-0.601,0.066-1.134,0.283-1.601,0.65c0.667,1.133,2.317,1.683,4.95,1.649
	c2.434-0.066,4.4-0.533,5.9-1.399l0.149,0.649c2.467,0.101,5.051,0.017,7.75-0.25c0.2-0.666,0.15-1.166-0.149-1.5
	c-0.167-0.233-0.584-0.583-1.25-1.05l-3.351-0.55C157.917,22.8,156.95,23.217,156.45,23.95z M125.2,17.85l-5.351-0.45L115.15,18
	c0.866,1.467,2.633,2.233,5.3,2.3c2.3,0.067,4.399-0.3,6.3-1.1c0.033-0.633-0.1-0.983-0.4-1.05
	C125.65,18.017,125.267,17.917,125.2,17.85z M56.25,36.25c-1.3-1.3-4.117-2-8.45-2.1c2.3-0.034,3.917,0.05,4.85,0.25
	C54.283,34.8,55.483,35.417,56.25,36.25z M61.225,38.8c-0.333-0.392-0.775-0.675-1.325-0.85c-0.433-0.134-0.9-0.2-1.4-0.2
	C59.739,37.722,60.648,38.072,61.225,38.8z M116.05,33.3c0.634,0.533,1.667,1.084,3.101,1.65c0.475,0.225,0.966,0.434,1.475,0.625
	c-0.81-0.274-1.519-0.55-2.125-0.825C117.4,34.25,116.583,33.767,116.05,33.3z M148.75,17.15c1.366,0.6,3.5,0.934,6.4,1
	c-0.5,0.1-1.2,0.333-2.101,0.7c-0.434,0.2-0.934,0.433-1.5,0.7c2.9,0.067,5.233-0.017,7-0.25c-0.033-1.533-0.633-2.533-1.8-3
	c-1.167-0.466-2.366-0.267-3.6,0.6l-1.95,0.75C150.467,17.083,149.65,16.917,148.75,17.15z M143.2,17.6l-4,0.15
	c-0.367,0.333-0.834,0.483-1.4,0.45c-0.566-0.067-0.983,0.05-1.25,0.35c1.367,0.5,2.783,0.733,4.25,0.7c1.533,0,2.834-0.3,3.9-0.9
	c-0.134-0.367-0.334-0.517-0.601-0.45C143.767,18,143.467,17.9,143.2,17.6z M144.45,19.8c-0.8,0.067-1.417,0.333-1.851,0.8
	l-0.6,2.05c2,0.933,3.816,0.983,5.45,0.149l0.1,0.2c1.9,0.4,3.351,0.366,4.351-0.1c0.866-0.367,1.133-0.917,0.8-1.65
	c-0.834-1.967-3.467-2.617-7.9-1.95C144.6,19.433,144.483,19.6,144.45,19.8z M147.125,20.9l1.525,0.15l-0.4,0.2l-0.3-0.25
	L147.125,20.9z M142.1,25.3l-4.699-1.85c0.166,1,0.683,1.666,1.55,2C139.783,25.717,140.833,25.667,142.1,25.3z M119.5,10.15
	c-0.7-0.167-1.333-0.167-1.9,0l-5.3,1.5c-0.767-0.066-1.434,0.117-2,0.55c1.733,0.566,3.4,0.833,5,0.8
	c1.934-0.067,3.45-0.6,4.55-1.6C119.783,10.933,119.667,10.517,119.5,10.15z M91.55,1.7c0.167,0.2,0.317,0.417,0.45,0.65
	c0.052,0.13,0.102,0.264,0.15,0.4C91.994,2.355,91.794,2.005,91.55,1.7z M66.6,1.8c0.2-0.033,0.417-0.05,0.65-0.05
	c7.033-0.5,12.133-0.95,15.3-1.35c-2.033,0.3-4.333,0.567-6.9,0.8C73.65,1.367,70.633,1.567,66.6,1.8z M50.95,4.75l-4.7,0.15H45.4
	l5.55-0.2c0.8-0.3,1.65-0.567,2.55-0.8C52.6,4.167,51.75,4.45,50.95,4.75z M105.6,10.55c-0.166,0.034-0.6,0.05-1.3,0.05
	c-0.533,0-0.967,0.05-1.3,0.15c-0.2,0.367-0.217,0.717-0.05,1.05c2.366,0.767,4.783,0.934,7.25,0.5c0.1-0.466,0.149-1.133,0.149-2
	c-2.3-0.633-4.566-0.75-6.8-0.35L105.6,10.55z M108.55,18.75l-8.2,0.25c1.767,0.3,3.167,0.467,4.2,0.5
	C106.05,19.5,107.384,19.25,108.55,18.75z M111.3,21.7c1.134,0.566,2.2,0.55,3.2-0.05c-0.634-0.533-1.35-0.9-2.15-1.1
	c-0.6-0.133-1.416-0.183-2.449-0.15L111.3,21.7z M103.1,16.6c-1.333-0.1-2.533,0.117-3.6,0.65c4.267,0.267,6.417,0.4,6.45,0.4
	c3.267,0.067,5.2-0.35,5.8-1.25c1-1.5,0.233-2.367-2.3-2.6c-1.267-0.133-2.733-0.1-4.4,0.1L103.1,16.6z M106.75,13.7
	c-0.6-0.333-1.184-0.5-1.75-0.5v-0.65c-0.833-0.066-1.517,0.184-2.05,0.75C104.316,13.667,105.583,13.8,106.75,13.7z M120.6,16.75
	c-0.767-0.833-2.033-1.433-3.8-1.8c-1-0.233-2.467-0.45-4.399-0.65l4.75,2.5c-0.634,0-0.983,0.05-1.051,0.15
	c-0.1,0.066,0.067,0.2,0.5,0.4c0.867,0.033,1.567,0.017,2.101-0.05C119.033,17.233,119.667,17.05,120.6,16.75z M112.95,24
	c1.6,0.333,4.184,0.316,7.75-0.05l-0.101-1.8c-1.899-0.267-3.216-0.267-3.949,0L114,22.9C113.3,22.967,112.95,23.333,112.95,24z
	 M83.6,30.65l-4.65,0.8c-1.434,0-2.65,0.5-3.65,1.5c1.167,0.467,2.55,0.684,4.15,0.649c1.466-0.066,2.867-0.35,4.2-0.85
	C83.75,32.017,83.733,31.316,83.6,30.65z M58.75,10.7l-5.85-0.35l4.05,1.85c-2.2-0.1-4.583,0.017-7.15,0.35
	c0,0.2,0.083,0.383,0.25,0.55c0.167,0.2,0.25,0.383,0.25,0.55c-2.133-0.066-4.017,0.383-5.65,1.35c2.434,0.467,5.05,0.2,7.85-0.8
	c3.667-1.333,6-2.05,7-2.15c2.633,0.3,4.617,0.317,5.95,0.05c2-0.4,2.917-1.383,2.75-2.95l-2,0.75
	C62.167,10.233,59.683,10.5,58.75,10.7z M58.65,17.4c0.867-0.367,1.467-0.933,1.8-1.7c-0.685-0.163-1.485-0.247-2.4-0.25
	c0.146,0.004,0.263,0.021,0.35,0.05l-4.8,0.15c-0.767,0.2-1.417,0.617-1.95,1.25c0.733,0.467,1.633,0.783,2.7,0.95
	c-1.2,0.267-1.833,0.417-1.9,0.45c1.433,0.667,3.333,1.1,5.7,1.3c3.5,0.3,5.467,0.483,5.9,0.55c-0.233,0.067-1.283,0.267-3.15,0.6
	c-1.433,0.267-2.55,0.583-3.35,0.95c1.9,0.6,3.567,0.783,5,0.55c1.833-0.3,2.934-1.3,3.3-3L63.1,17.3L58.65,17.4z M43.1,17
	l-2.65,0.1c-1.267,0.033-2.15,0.1-2.65,0.2c-0.867,0.2-1.566,0.617-2.1,1.25c1.2,0.833,2.85,1.184,4.95,1.05
	c2.133-0.133,3.617-0.75,4.45-1.85C44.6,17.25,43.933,17,43.1,17z M49.25,20.55c-0.133-0.167-0.367-0.417-0.7-0.75l-5.3,0.85
	c-2.2-0.133-3.817,0.15-4.85,0.85c1.533,0.433,3.333,0.65,5.4,0.65c1.267-0.034,3.1-0.184,5.5-0.45
	C49.433,21.2,49.417,20.817,49.25,20.55z M46.1,25.25c-0.9-0.566-1.967-0.983-3.2-1.25c-2-0.434-4.75-0.483-8.25-0.15
	c-1.9,0.167-4.55,0.4-7.95,0.7l10,1c-2.233,0.101-4.3,0.65-6.2,1.65c1.5-0.101,4.083-0.2,7.75-0.3c3.333-0.101,5.917-0.233,7.75-0.4
	C46.267,26.1,46.3,25.684,46.1,25.25z M61.95,26.05c-0.667,0.033-1.083,0.417-1.25,1.15l0.25-0.05L61.95,26.05z M26.55,9.75
	c0.5-0.167,1.083-0.283,1.75-0.35c0.133,0,0.267,0.017,0.4,0.05C27.833,9.483,27.117,9.583,26.55,9.75z M25.3,22.6l-7.4-1.05
	c-0.267,0.233-0.633,0.467-1.1,0.7c-0.3,0.267-0.367,0.733-0.2,1.4c1.6,0.6,3.283,0.883,5.05,0.85
	C23.75,24.4,24.967,23.767,25.3,22.6z M35.95,22.9l-5.4-1.8c-0.8,0.233-1.45,0.717-1.95,1.45c1.033,0.367,2.233,0.55,3.6,0.55
	C32.833,23.134,34.083,23.066,35.95,22.9z M22.95,32.85c0.466,1.601,3.133,2.367,8,2.301c-1.067,0.033-1.917,0.033-2.55,0
	c-3.267-0.101-5.1-0.884-5.5-2.351c-0.367,0.101-1.033,0.101-2,0c-0.667-0.1-1.183-0.133-1.55-0.1c-0.167,0-0.317,0.017-0.45,0.05
	c0.367-0.1,0.934-0.1,1.7,0c0.933,0.066,1.533,0.1,1.8,0.1h0.1l0.4-0.05L22.95,32.85z"/>
<path style="fill-rule:evenodd;clip-rule:evenodd;fill:#5E5734;" d="M181.3,20.4c1.834-0.133,3.834-0.05,6,0.25
	c0.101,0.033,0.2,0.05,0.3,0.05l0.65,0.1c0.3,0.034,0.6,0.083,0.9,0.15c0.199,0.033,0.399,0.066,0.6,0.1
	c0.033,0,0.083,0.017,0.15,0.05c0.1,0,0.216,0.017,0.35,0.05l2.075,0.3c0.2,0.033,0.392,0.066,0.575,0.1
	c-1.101,0.3-2.267,0.383-3.5,0.25c0.366,0.267,0.75,0.783,1.149,1.55c0.434,0.9,0.7,1.4,0.8,1.5c-0.6,0-1.366,0.184-2.3,0.551
	c-0.566-0.067-1.017-0.167-1.35-0.301c-0.467-0.166-1.267-0.3-2.4-0.399c-1.066-0.101-1.916-0.3-2.55-0.601
	c-0.167-0.066-0.467-0.517-0.9-1.35c-0.433-0.833-0.966-1.4-1.6-1.7l-0.5-0.3c1.6-0.1,2.5-0.133,2.7-0.1L181.3,20.4z M175.95,18.85
	c0.866,0,1.75-0.017,2.649-0.05l0.15,1.1l-9.9-1.45c-0.1-0.034-0.183-0.067-0.25-0.1c-0.066,0-0.149-0.017-0.25-0.05
	c-0.966-0.333-1.916-0.517-2.85-0.55c-0.3-0.1-0.616-0.183-0.95-0.25c-0.3,0-0.583,0.017-0.85,0.05
	c-1.066-0.233-2.033-0.483-2.9-0.75c-1.967-0.533-4.166-1.5-6.6-2.9c-0.8-0.467-2.9-1.783-6.3-3.95
	c-0.067-0.067-0.134-0.117-0.2-0.15c0.899,0.267,2.5,0.883,4.8,1.85c1.6,0.667,2.983,1.184,4.15,1.55l1.05,0.3
	c3.2,0.7,5.883,1.35,8.05,1.95c1.634,0.466,2.983,0.933,4.05,1.4c1.566,0.667,2.483,1.316,2.75,1.95
	C173.684,18.833,174.816,18.85,175.95,18.85z M156.2,25.4c-1.5,0.866-3.467,1.333-5.9,1.399c-2.633,0.033-4.283-0.517-4.95-1.649
	c0.467-0.367,1-0.584,1.601-0.65c0.066-0.033,0.666-0.066,1.8-0.1l5.3-0.851c0.2,0.033,0.684,0.05,1.45,0.05
	c0.467,0.034,0.783,0.15,0.95,0.351C156.25,24.384,156.167,24.866,156.2,25.4z M186.8,26.25c-0.899,2.066-3.383,2.517-7.45,1.35
	c-0.366-0.1-2-0.649-4.899-1.649c-1.834-0.634-3.167-0.967-4-1l0.3,0.35c-0.566-0.233-1.434-0.517-2.6-0.85
	c-1.233-0.334-2.101-0.601-2.601-0.8l-0.8,0.199l0.5-0.35c-0.634-0.3-1.15-0.583-1.55-0.85c2-0.367,4.733,0.066,8.2,1.3
	c3.366,1.2,5.833,1.633,7.399,1.3c-0.434-0.267-0.816-0.566-1.149-0.9C180.45,25.45,183.333,26.083,186.8,26.25z M171.15,26.05
	l0.25,0.65c-0.967-0.5-1.733-0.834-2.301-1C169.533,25.8,170.217,25.917,171.15,26.05z M133.2,40.15
	c-0.267-0.601-0.617-1.051-1.05-1.351c-0.4-0.3-0.851-0.483-1.351-0.55h-1.7l-0.25-1.1c-0.8,0.233-2.199,0.116-4.199-0.351
	c-0.101-0.033-0.184-0.05-0.25-0.05l-2.15-0.6c-0.134-0.067-0.267-0.117-0.4-0.15c-0.233-0.066-0.466-0.15-0.699-0.25l-0.525-0.175
	c-0.509-0.191-1-0.4-1.475-0.625L119.1,34.7c0.2-1.7-0.017-3.384-0.649-5.05c-0.134,0.033-0.5,0.216-1.101,0.55
	c-0.566,0.3-0.883,0.483-0.949,0.55c-0.034-0.1-0.101-0.35-0.2-0.75c-0.066-0.2-0.233-0.384-0.5-0.55
	c-6.733,3.333-10.533,5.166-11.4,5.5c-5.7,2.267-8.966,2.283-9.8,0.05c-0.067,1-0.1,1.6-0.1,1.8c-2.367,0.134-7.583,0.233-15.65,0.3
	c-7.667,0.301-13.367,1.134-17.1,2.5v-0.05l-0.425-0.75c-0.577-0.728-1.486-1.078-2.725-1.05h-0.55c-0.133,0-0.267,0.017-0.4,0.05
	h-0.1L56.9,37.9c-0.267,0.033-0.533,0.083-0.8,0.149c0.3-0.399,0.517-0.75,0.65-1.05c-0.033-0.066-0.067-0.134-0.1-0.2
	c-0.133-0.2-0.267-0.383-0.4-0.55c-0.767-0.833-1.967-1.45-3.6-1.85l1.65-1.45c1.567-0.834,2.417-2,2.55-3.5
	c1.7-0.5,3.066-1.267,4.1-2.3c2.433-0.301,4.783-1.567,7.05-3.801l-1.1,1.7c1.7-0.934,3-2.217,3.9-3.85l0.1,0.55l-0.05,0.05h0.05
	c0.133,0.634,0.15,1.3,0.05,2c-1.1,0.533-1.883,1.217-2.35,2.05c0.967,0.434,2.45,0.617,4.45,0.551
	c-0.966,1.333-2.333,2.267-4.1,2.8c0.633-0.134,1.466-0.117,2.5,0.05c1.066,0.233,1.733,0.35,2,0.35c-0.667,0.4-1.4,0.9-2.2,1.5
	c1.4,0.7,2.2,1.067,2.4,1.101c-0.3,0.267-0.717,0.767-1.25,1.5c-0.5,0.7-0.9,1.166-1.2,1.399c0.733,0.134,1.55,0.101,2.45-0.1
	c0.633,1.066,2.467,1.083,5.5,0.05c3.367-1.399,5.533-2.2,6.5-2.399l0.1,1c2.4-0.867,4.35-1.267,5.85-1.2
	c0.133,0.3,0.15,0.633,0.05,1c1.6-0.967,3.733-1.483,6.4-1.55c2.267-0.034,4.55,0.216,6.851,0.75c0-0.067-0.067-0.25-0.2-0.551
	c-0.134-0.267-0.184-0.517-0.15-0.75c1.367-0.267,3.283-0.949,5.75-2.05c2.467-1.066,4.533-1.75,6.2-2.05l-0.75-1.65
	c1.333,0,2.8-0.133,4.4-0.399c1.866-0.334,3.216-0.75,4.05-1.25c0.633-0.367,1.434-1.134,2.399-2.3c0.934-1.2,1.767-2.033,2.5-2.5
	c0.034,0.733-0.1,1.583-0.399,2.55c0.267,0,0.583-0.1,0.95-0.3c0.399-0.2,0.699-0.316,0.899-0.35l-0.3,1.351
	c-1.233,0.3-2.184,0.616-2.85,0.949c-0.934,0.434-1.601,1.017-2,1.75c1.399,0.101,3.366-0.083,5.899-0.55l-1,0.8
	c-1.633,0.167-2.666,0.784-3.1,1.851c-0.967,0.566-1.717,1.184-2.25,1.85c0.233,0.267,0.383,0.601,0.45,1
	c0.1,0.467,0.216,0.816,0.35,1.05l1.1,0.15c0.2,1.267,0.733,2.083,1.601,2.45c0.566,0.267,1.483,0.35,2.75,0.25
	c1.133,0.366,2.633,0.434,4.5,0.2c0.267,0.166,0.5,0.366,0.7,0.6c1.533-0.6,2.566-1.083,3.1-1.45c-0.066-0.233-0.4-0.783-1-1.649
	l2.7,0.8c-0.134-0.434-0.367-0.816-0.7-1.15c1.167-0.467,2.55-0.55,4.15-0.25c0.566,0.101,2.017,0.483,4.35,1.15
	c-0.366-0.267-0.75-0.667-1.15-1.2c-0.466-0.667-0.733-1.033-0.8-1.1c3.267,0.366,5.65,0.566,7.15,0.6c2.767,0,4.934-0.366,6.5-1.1
	c-0.4-0.534-0.667-1.017-0.8-1.45c1.033-0.267,3.017-0.217,5.949,0.149c2.9,0.334,4.9,0.334,6,0l0.301,0.75
	c-0.934,0.2-1.75,0.301-2.45,0.301l-0.15,1.1c-0.399-0.033-1.033,0.033-1.899,0.2c-0.9,0.166-1.534,0.217-1.9,0.149L165.6,31.7
	c-0.433-0.101-1.183-0.033-2.25,0.2c-1.066,0.199-1.816,0.267-2.25,0.199L161,33.9c-1.333,0.1-4.684,0.083-10.05-0.051
	c-4.634,0.267-6.8,1.567-6.5,3.9c-1.367,0.467-3.084,0.767-5.15,0.9c-1.166,0.066-2.983,0.133-5.45,0.199
	C133.517,39.217,133.3,39.65,133.2,40.15z M115.35,7.7l-0.1-0.05c0.767,0.033,1.467,0.05,2.1,0.05l1.75-0.15
	c0.134,0,0.267-0.017,0.4-0.05l0.1,1.8c0.867,0.034,2.25-0.133,4.15-0.5c1.8-0.333,3.184-0.45,4.15-0.35
	c0.466,0.066,0.8,0.466,1,1.2c0.066,0.267,0.149,0.5,0.25,0.7c0.166,0.367,0.399,0.583,0.699,0.65c0.134,0.033,0.267,0.067,0.4,0.1
	c0.196,0.021,0.404,0.029,0.625,0.025c0.212-0.014,0.438-0.039,0.675-0.075c0.7,1.133,0.917,2.4,0.65,3.8
	c-1.667,0.433-3.351,0.483-5.05,0.15c0.1-0.167,0.25-0.283,0.449-0.35c0.301-0.167,0.5-0.283,0.601-0.35
	c-0.233-0.1-0.717-0.367-1.45-0.8c-0.667-0.4-1.2-0.667-1.6-0.8c0.267-0.1,0.666-0.333,1.199-0.7c0.5-0.367,0.884-0.6,1.15-0.7
	c-1.7-1-3.45-1.216-5.25-0.65L115.35,7.7z M72.4,3.55l0.85-0.4c1.833,0.233,3.15,0.434,3.95,0.6c1.333,0.3,2.5,0.9,3.5,1.8
	c-0.034,0.2-0.184,0.417-0.45,0.65c-0.167,0.1-0.417,0.267-0.75,0.5c0.533,1.033,0.75,1.683,0.65,1.95
	c-0.367-0.1-1.017-0.05-1.95,0.15c-0.934,0.167-1.583,0.217-1.95,0.15c-0.567,2.466-2.767,3.367-6.6,2.7
	c0.8-0.733,1.633-1.2,2.5-1.4c0.1-0.433,0.35-1.35,0.75-2.75c-0.233-0.533-0.667-0.967-1.3-1.3c0.767-0.4,1.383-0.7,1.85-0.9
	c0.833-0.4,1.683-0.566,2.55-0.5C74.967,4.233,73.767,3.817,72.4,3.55z M53.9,4.75l0.3-0.1h0.6C55.433,4.917,55.833,5.2,56,5.5
	c0.233,0.433,0.25,1.083,0.05,1.95c-1.833,0.233-4.233-0.05-7.2-0.85c1.5-0.3,3.017-0.4,4.55-0.3L53.9,4.75z M16.4,30.15
	c-0.066,0-0.133,0-0.2,0c-0.034-0.167-0.117-0.584-0.25-1.25c0-0.034,0-0.067,0-0.101c-0.034-0.166-0.067-0.316-0.1-0.45
	c-0.367,0.067-0.917,0.067-1.65,0c-0.267-0.033-0.5-0.05-0.7-0.05c-0.433-0.033-0.75-0.033-0.95,0l0.3-0.7
	c0.022-0.087,0.047-0.171,0.075-0.25c0.005-0.032,0.014-0.065,0.025-0.1c0.033-0.2,0.05-0.366,0.05-0.5v-0.4
	c-0.067-0.166-0.133-0.316-0.2-0.449c-0.033-0.101-0.083-0.167-0.15-0.2c-0.033-0.066-0.066-0.117-0.1-0.15
	c-0.1-0.066-0.183-0.116-0.25-0.149c-0.066-0.034-0.117-0.067-0.15-0.101H12.1c-0.167-0.1-0.35-0.166-0.55-0.2
	c-0.033,0-0.066,0-0.1,0c-0.3-0.066-0.65-0.1-1.05-0.1c0.1-0.267,0.184-0.517,0.25-0.75c0.267-0.767,0.5-1.3,0.7-1.6V23
	c0.333-0.066,0.95-0.05,1.85,0.05c0.9,0.101,1.533,0.101,1.9,0c0.1,1,0.05,1.783-0.15,2.351c0.466,0.1,1.25,0.183,2.35,0.25
	c-0.2,0.899-0.3,1.5-0.3,1.8c0.167,0.133,0.45,0.149,0.85,0.05s0.667-0.066,0.8,0.1c0.633,0.7,1.184,1.101,1.65,1.2
	c0.6,0.101,1.417-0.133,2.45-0.7c-0.033,0.034-0.233,0.351-0.6,0.95c-0.267,0.4-0.633,0.767-1.1,1.101
	c1.233,0.066,2.1,0.033,2.6-0.101c-0.1,1.233-0.217,2.084-0.35,2.55c0.4-0.1,1.117-0.083,2.15,0.051c1,0.1,1.7,0.1,2.1,0l0.05,0.3
	c-2.533-0.101-4.083-0.134-4.65-0.101L22.9,32.8l-0.4,0.05h-0.1c-0.267,0-0.867-0.033-1.8-0.1c-0.767-0.1-1.333-0.1-1.7,0
	c0.033-0.2,0.017-0.5-0.05-0.9c0-0.1-0.017-0.216-0.05-0.35c-0.1-0.566-0.15-0.983-0.15-1.25C18.45,30.184,17.7,30.15,16.4,30.15z
	 M11.35,22.5c-1.133,0-2.867-0.233-5.2-0.7L5.5,20.15c0.367,0.4,1.167,0.583,2.4,0.55c1.533-0.133,2.65-0.2,3.35-0.2
	c-0.033,0.233-0.033,0.567,0,1C11.317,22.033,11.35,22.366,11.35,22.5z M45.35,30.5l-7.8,1.45c0.9-0.967,1.934-1.75,3.1-2.351
	C40.917,29.9,41,30.25,40.9,30.65c0.367-0.101,1.117-0.134,2.25-0.101c1,0,1.767-0.116,2.3-0.35L45.35,30.5z M144.45,19.8
	c-0.101,0.2-0.05,0.45,0.149,0.75l2.525,0.35l0.825,0.1l0.3,0.25c-0.566,0.267-0.884,0.417-0.95,0.45c-0.2,0.2-0.149,0.566,0.15,1.1
	c-1.634,0.834-3.45,0.783-5.45-0.149l0.6-2.05C143.033,20.133,143.65,19.867,144.45,19.8z M143.2,17.6
	c0.267,0.3,0.566,0.4,0.899,0.3c0.267-0.066,0.467,0.083,0.601,0.45c-1.066,0.6-2.367,0.9-3.9,0.9c-1.467,0.033-2.883-0.2-4.25-0.7
	c0.267-0.3,0.684-0.417,1.25-0.35c0.566,0.033,1.033-0.117,1.4-0.45L143.2,17.6z M148.75,17.15c0.9-0.233,1.717-0.066,2.45,0.5
	l1.95-0.75c1.233-0.867,2.433-1.066,3.6-0.6c1.167,0.467,1.767,1.467,1.8,3c-1.767,0.233-4.1,0.317-7,0.25
	c0.566-0.267,1.066-0.5,1.5-0.7c0.9-0.367,1.601-0.6,2.101-0.7C152.25,18.083,150.116,17.75,148.75,17.15z M119.5,10.15
	c0.167,0.367,0.283,0.783,0.35,1.25c-1.1,1-2.616,1.533-4.55,1.6c-1.6,0.033-3.267-0.233-5-0.8c0.566-0.434,1.233-0.617,2-0.55
	l5.3-1.5C118.167,9.983,118.8,9.983,119.5,10.15z M142.1,25.3c-1.267,0.367-2.316,0.417-3.149,0.15c-0.867-0.334-1.384-1-1.55-2
	L142.1,25.3z M111.3,21.7l-1.399-1.3c1.033-0.033,1.85,0.017,2.449,0.15c0.801,0.2,1.517,0.567,2.15,1.1
	C113.5,22.25,112.434,22.267,111.3,21.7z M108.55,18.75c-1.166,0.5-2.5,0.75-4,0.75c-1.033-0.033-2.434-0.2-4.2-0.5L108.55,18.75z
	 M120.6,16.75c-0.933,0.3-1.566,0.483-1.899,0.55c-0.533,0.067-1.233,0.083-2.101,0.05c-0.433-0.2-0.6-0.333-0.5-0.4
	c0.067-0.1,0.417-0.15,1.051-0.15l-4.75-2.5c1.933,0.2,3.399,0.417,4.399,0.65C118.566,15.317,119.833,15.917,120.6,16.75z
	 M106.75,13.7c-1.167,0.1-2.434-0.034-3.8-0.4c0.533-0.566,1.217-0.816,2.05-0.75v0.65C105.566,13.2,106.15,13.367,106.75,13.7z
	 M90.2,10.3L90,10c1.067-0.6,2.783-1.133,5.15-1.6L94.9,7.7c0.567-0.233,1.117-0.284,1.65-0.15c0.667,0.233,1.2,0.417,1.6,0.55
	l0.75,1.35c1.034,0.167,1.85,0.583,2.45,1.25c0.634,0.7,0.934,1.55,0.9,2.55c-0.066,0-0.566,0.067-1.5,0.2
	c-0.634,0.066-1.134,0.066-1.5,0c0.233-0.1,0.35-0.284,0.35-0.55c-0.566-0.066-1.399-0.133-2.5-0.2
	C95.9,11.033,93.6,10.233,90.2,10.3z M86.85,28.95c2.9-0.4,5.033-1.066,6.4-2c1.467-0.134,2.717-0.15,3.75-0.05
	c-0.567-0.233-1.333-0.667-2.3-1.301c1.6-0.833,3.383-1.35,5.35-1.55l2.05,1.3c-0.933-0.1-1.6-0.083-2,0.051
	c-0.533,0.133-0.933,0.517-1.2,1.149c0.5,0.467,0.8,1.05,0.9,1.75c0.101,0.867,0.217,1.417,0.351,1.65
	c-3.434,0.434-5.8,0.666-7.101,0.7C89.717,30.717,87.65,30.15,86.85,28.95z M59.5,12.05c-1,0.1-3.333,0.817-7,2.15
	c-2.8,1-5.417,1.267-7.85,0.8c1.633-0.967,3.517-1.417,5.65-1.35c0-0.167-0.083-0.35-0.25-0.55c-0.167-0.167-0.25-0.35-0.25-0.55
	c2.567-0.333,4.95-0.45,7.15-0.35l-4.05-1.85l5.85,0.35c-1.333,0.333-2.317,0.633-2.95,0.9C56.067,11.633,57.3,11.783,59.5,12.05z
	 M54.35,17.85c1.7,0.3,3.133,0.15,4.3-0.45l4.45-0.1l2.75,1.95c-0.367,1.7-1.467,2.7-3.3,3c-1.433,0.233-3.1,0.05-5-0.55
	c0.8-0.367,1.917-0.684,3.35-0.95c1.867-0.333,2.917-0.533,3.15-0.6c-0.433-0.066-2.4-0.25-5.9-0.55c-2.367-0.2-4.267-0.633-5.7-1.3
	C52.517,18.267,53.15,18.117,54.35,17.85z M49.25,20.55c0.167,0.267,0.183,0.65,0.05,1.15c-2.4,0.267-4.233,0.416-5.5,0.45
	c-2.066,0-3.867-0.217-5.4-0.65c1.033-0.7,2.65-0.983,4.85-0.85l5.3-0.85C48.883,20.133,49.117,20.383,49.25,20.55z M61.95,26.05
	l-1,1.101L60.7,27.2C60.867,26.467,61.283,26.083,61.95,26.05z M35.95,22.9c-1.867,0.166-3.117,0.233-3.75,0.199
	c-1.367,0-2.567-0.183-3.6-0.55c0.5-0.733,1.15-1.216,1.95-1.45L35.95,22.9z"/>
<path style="fill-rule:evenodd;clip-rule:evenodd;fill:#6C633B;" d="M168.85,18.45c0.767,0.3,1.367,0.633,1.801,1
	c-3.2,0.4-6.634,0.483-10.301,0.25c0.101-0.467,0.184-0.7,0.25-0.7H159.9c0.833-0.867,2.1-1.35,3.8-1.45
	c0.267-0.033,0.55-0.05,0.85-0.05c0.334,0.067,0.65,0.15,0.95,0.25c0.934,0.033,1.884,0.217,2.85,0.55
	c0.101,0.034,0.184,0.05,0.25,0.05C168.667,18.383,168.75,18.417,168.85,18.45z M156.2,25.4c-0.033-0.534,0.05-1.017,0.25-1.45
	c0.5-0.733,1.467-1.15,2.899-1.25l3.351,0.55c0.666,0.467,1.083,0.816,1.25,1.05c0.3,0.334,0.35,0.834,0.149,1.5
	c-2.699,0.267-5.283,0.351-7.75,0.25L156.2,25.4z M178.8,20.4v0.25l0.65-0.1l0.3,0.2h-0.55c0.399,0.067,0.75,0.167,1.05,0.3
	l0.4,0.25c-0.434,1.601-1.884,2.3-4.351,2.101l-5.7-1.2c0.767-1.267,1.867-2,3.301-2.2c0.3-0.033,1.866-0.017,4.699,0.05l0.15,0.1
	L178.8,20.4z M135.7,34.15c-1.867,0.233-3.367,0.166-4.5-0.2c-1.167-0.4-1.934-1.134-2.3-2.2c1.566-1.333,3.35-2.066,5.35-2.2
	l2.05,1.95c0.134,0.434,0.15,1.283,0.05,2.55L135.7,34.15z M130.3,25.35c0.934-0.133,2.2-0.149,3.8-0.05
	c1.967,0.101,3.084,0.15,3.351,0.15l0.7,0.649c1.899-0.166,3.683,0.2,5.35,1.101c-0.4,1.6-1.65,2.399-3.75,2.399
	c-1.967-0.033-3.6-0.633-4.9-1.8c-0.466,0.8-1.6,1.25-3.399,1.351c-1,0.066-2.483,0.033-4.45-0.101c-0.1-0.767-0.033-1.383,0.2-1.85
	C127.634,26.134,128.667,25.517,130.3,25.35z M125.2,17.85c0.066,0.066,0.45,0.167,1.149,0.3c0.301,0.067,0.434,0.417,0.4,1.05
	c-1.9,0.8-4,1.167-6.3,1.1c-2.667-0.066-4.434-0.833-5.3-2.3l4.699-0.6L125.2,17.85z M130.25,22.4c1.066-0.267,1.85-0.484,2.35-0.65
	l1.101-2.7c-0.601,0.034-1.316-0.15-2.15-0.55c-1.033-0.467-1.666-0.733-1.899-0.8c0.133-0.6,0.399-0.983,0.8-1.15
	c0.533-0.066,0.983-0.15,1.35-0.25l1.3-0.7c2.134,0.267,3.267,1.25,3.4,2.95c-0.767,0.4-1.333,0.733-1.7,1
	c3,2.267,1.834,3.934-3.5,5c-2.533,0.467-4.5,0.65-5.899,0.55c0.399-0.733,1.066-1.316,2-1.75
	C128.066,23.017,129.017,22.7,130.25,22.4z M93.25,26.95c-1.367,0.934-3.5,1.6-6.4,2c-2.667,0.399-5.517,0.517-8.55,0.35
	c-2.867-0.133-4.966-0.434-6.3-0.899c0.5-0.7,0.883-1.167,1.15-1.4c0.367-0.366,1.067-0.616,2.1-0.75l-2.2,0.15
	c-2,0.066-3.483-0.117-4.45-0.551c0.467-0.833,1.25-1.517,2.35-2.05c1.833-0.866,4.633-1.333,8.4-1.399
	c4.033,0.1,6.683,0.133,7.95,0.1l6.1,1.8c0.667,0.066,1.117,0.417,1.35,1.05C94.45,25.983,93.95,26.517,93.25,26.95z M90.2,10.3
	l0.05,0.1c-0.3,1.667-1.667,2.983-4.1,3.95l-0.35,0.1l-2.1,0.15l4-0.1l-0.85-0.1c2.066-0.066,3.717,0.117,4.95,0.55
	c0.067,0.733,0.05,1.383-0.05,1.95c-2.433,0.367-5.75,0.267-9.95-0.3c-0.133-0.333-0.233-0.717-0.3-1.15
	c-1.933,0.267-4.017,0.4-6.25,0.4c-1.9-0.033-3.5-0.167-4.8-0.4c0.633-0.8,1.7-1.434,3.2-1.9c0.2-0.066,1.517-0.367,3.95-0.9
	c0.433-1.3,1.45-2.017,3.05-2.15c3.133-0.3,4.717-0.45,4.75-0.45c-0.6-0.3-1-0.633-1.2-1c-0.3-0.533-0.517-0.867-0.65-1
	c2.633-0.333,4.383-0.433,5.25-0.3L90,10L90.2,10.3z M105.6,10.55l-2.05-0.6c2.233-0.4,4.5-0.284,6.8,0.35
	c0,0.867-0.05,1.534-0.149,2c-2.467,0.434-4.884,0.267-7.25-0.5c-0.167-0.333-0.15-0.683,0.05-1.05c0.333-0.1,0.767-0.15,1.3-0.15
	C105,10.6,105.434,10.583,105.6,10.55z M50.95,4.75c0.8-0.3,1.65-0.583,2.55-0.85l2.9-0.75c2.1-0.433,4.45-0.783,7.05-1.05
	C63.717,2.067,64,2.033,64.3,2l2.3-0.2c4.033-0.233,7.05-0.433,9.05-0.6c2.567-0.233,4.867-0.5,6.9-0.8l1.9-0.35
	C84.517,0.017,84.583,0,84.65,0l1,1.15c1.4-0.667,2.684-0.883,3.85-0.65c0.067,0,0.133,0.017,0.2,0.05l1.85,1.15
	c0.244,0.305,0.444,0.655,0.6,1.05c0.02,0.03,0.036,0.063,0.05,0.1V2.9c0.4-0.066,0.783-0.117,1.15-0.15
	c0.933-0.1,1.8-0.083,2.6,0.05c0.466,0.034,1.45,0.25,2.95,0.65c0.833,0.267,1.5,0.45,2,0.55c0.899,0.2,1.666,0.217,2.3,0.05
	c0.166,0.333,0.3,0.55,0.399,0.65v0.05c-0.966,1.233-3.85,1.683-8.649,1.35c-4.4-0.3-7.333-0.867-8.8-1.7
	c-0.566-1.167-2.4-1.816-5.5-1.95c-2.533-0.133-4.767,0.033-6.7,0.5l-0.7,0.2l-0.85,0.4c-0.633,0.3-1.55,0.8-2.75,1.5l0.4,0.05
	c-0.633,1.6-2.183,2.433-4.65,2.5c-2.233,0.066-4.1-0.434-5.6-1.5c1.434-1.2,3.067-1.7,4.9-1.5l0.75,0.05l-0.2-1.3
	c-2.833,0-6.367,0.4-10.6,1.2l-0.2,0.05L50.95,4.75l-0.5,0.15l3.45-0.2v0.05c-1.267,0.267-3.183,0.65-5.75,1.15
	c-2.267,0.434-4.25,0.733-5.95,0.9l-0.15,1.1L37.9,8.1l0.9,0.7l-1,0.2c0.434,1.333,0.333,2.417-0.3,3.25
	c-0.567,0.8-2.283,1.2-5.15,1.2c-1.5,0-3.367-0.083-5.6-0.25c2.3-1.967,5.983-3.367,11.05-4.2l-0.3-0.85
	c-1.9,0.133-3.483,0.317-4.75,0.55c0.567-0.733,1.617-1.417,3.15-2.05l0.3-0.1c0.3-0.1,0.6-0.2,0.9-0.3l1.55-0.4
	c0.033-0.033,0.067-0.05,0.1-0.05c1.2-0.267,2.433-0.483,3.7-0.65l3.8-0.25L50.95,4.75z M18.4,15.2
	c-0.066-0.034-0.133-0.067-0.2-0.1c-0.333-0.2-0.617-0.417-0.85-0.65l-0.2-0.25c-0.2-0.2-0.367-0.434-0.5-0.7
	c0.967-0.367,2.233-0.7,3.8-1c2.267-0.4,3.55-0.633,3.85-0.7c0.333-0.933,1.017-1.6,2.05-2l0.2-0.05
	c0.567-0.167,1.284-0.267,2.15-0.3C29,9.417,29.3,9.4,29.6,9.4c-0.067,0.033-0.117,0.05-0.15,0.05c-2.233,0.8-3.35,1.816-3.35,3.05
	c-1.1-0.167-2.4,0.033-3.9,0.6c-1.9,0.733-3.167,1.133-3.8,1.2V15.2z M21.5,16.1c0.033-0.033,0.083-0.05,0.15-0.05h0.4
	c0.1,0,0.2,0,0.3,0c0.667-0.066,1.566-0.1,2.7-0.1l0.05,0.65c-0.4,1.1-1.55,1.7-3.45,1.8c-0.333,0.033-1.883-0.066-4.65-0.3
	C17.7,17.033,19.2,16.367,21.5,16.1z M17.65,16c0.2,0,0.417,0,0.65,0v0.1v0.65c-0.966,0.433-2.133,0.733-3.5,0.9
	c-0.367,0.033-1.583,0.117-3.65,0.25c0.033,0.167,0.133,0.317,0.3,0.45c0.167,0.167,0.267,0.316,0.3,0.45
	c-1.167-0.3-2.65-0.417-4.45-0.35C6.8,18.35,6.2,18.2,5.5,18l5.45-1.65c0.2-0.033,0.417-0.067,0.65-0.1s0.483-0.05,0.75-0.05
	l1.25-0.1c0.133-0.033,0.267-0.05,0.4-0.05c0.033,0,0.067,0,0.1,0h0.1C15.233,16.017,16.383,16,17.65,16z M148.25,21.25l0.4-0.2
	l-1.525-0.15l-2.525-0.35c-0.199-0.3-0.25-0.55-0.149-0.75c0.033-0.2,0.149-0.367,0.35-0.5c4.434-0.667,7.066-0.017,7.9,1.95
	c0.333,0.733,0.066,1.283-0.8,1.65c-1,0.466-2.45,0.5-4.351,0.1l-0.1-0.2c-0.3-0.533-0.351-0.9-0.15-1.1
	C147.366,21.667,147.684,21.517,148.25,21.25z M103.1,16.6l1.95-2.7c1.667-0.2,3.134-0.233,4.4-0.1c2.533,0.233,3.3,1.1,2.3,2.6
	c-0.6,0.9-2.533,1.317-5.8,1.25c-0.033,0-2.184-0.133-6.45-0.4C100.566,16.717,101.767,16.5,103.1,16.6z M112.95,24
	c0-0.667,0.35-1.033,1.05-1.1l2.65-0.75c0.733-0.267,2.05-0.267,3.949,0l0.101,1.8C117.134,24.316,114.55,24.333,112.95,24z
	 M83.6,30.65c0.133,0.666,0.15,1.366,0.05,2.1c-1.333,0.5-2.733,0.783-4.2,0.85c-1.6,0.034-2.983-0.183-4.15-0.649
	c1-1,2.217-1.5,3.65-1.5L83.6,30.65z M59.5,12.05c-2.2-0.267-3.433-0.417-3.7-0.45c0.633-0.267,1.617-0.567,2.95-0.9
	c0.933-0.2,3.417-0.467,7.45-0.8l2-0.75c0.167,1.567-0.75,2.55-2.75,2.95C64.117,12.367,62.133,12.35,59.5,12.05z M54.35,17.85
	c-1.067-0.167-1.967-0.483-2.7-0.95c0.533-0.633,1.184-1.05,1.95-1.25l4.8-0.15c-0.087-0.029-0.204-0.046-0.35-0.05
	c0.916,0.003,1.715,0.087,2.4,0.25c-0.333,0.767-0.934,1.333-1.8,1.7C57.483,18,56.05,18.15,54.35,17.85z M43.1,17
	c0.833,0,1.5,0.25,2,0.75c-0.833,1.1-2.317,1.717-4.45,1.85c-2.1,0.133-3.75-0.217-4.95-1.05c0.533-0.633,1.233-1.05,2.1-1.25
	c0.5-0.1,1.383-0.167,2.65-0.2L43.1,17z M46.1,25.25c0.2,0.434,0.167,0.85-0.1,1.25c-1.833,0.167-4.417,0.3-7.75,0.4
	C34.583,27,32,27.1,30.5,27.2c1.9-1,3.967-1.55,6.2-1.65l-10-1c3.4-0.3,6.05-0.533,7.95-0.7c3.5-0.333,6.25-0.283,8.25,0.15
	C44.133,24.267,45.2,24.684,46.1,25.25z M25.3,22.6c-0.333,1.167-1.55,1.801-3.65,1.9c-1.767,0.033-3.45-0.25-5.05-0.85
	c-0.167-0.667-0.1-1.134,0.2-1.4c0.467-0.233,0.833-0.467,1.1-0.7L25.3,22.6z"/>
<path style="fill-rule:evenodd;clip-rule:evenodd;fill:#514B2E;" d="M186.8,26.25l0.15-0.4c0.633,0,1.333-0.149,2.1-0.449
	c0.934-0.367,1.7-0.551,2.3-0.551c-0.1-0.1-0.366-0.6-0.8-1.5c-0.399-0.767-0.783-1.283-1.149-1.55c1.233,0.133,2.399,0.05,3.5-0.25
	c2.267,0.4,4.35,0.584,6.25,0.55c0.066,0.334,0.1,0.65,0.1,0.95c-0.033,1.7-1.434,3.316-4.2,4.851
	c-2.467,1.366-4.983,2.233-7.55,2.6c-0.233,0.033-3.05,0.15-8.45,0.35c-2.3,0.101-4.833,0.983-7.6,2.65
	c-2.566,1.533-5.101,2.7-7.601,3.5c-2.233,0.7-4.933,1.25-8.1,1.65c-1.267,0.166-3.866,0.316-7.8,0.449
	c-3.5,0.467-5.816,1.634-6.95,3.5c-0.866-0.6-2.083-1.017-3.65-1.25c-0.066,0-0.133,0-0.199,0c-0.867-0.133-2.101-0.316-3.7-0.55
	l-0.25-0.649c0.1-0.5,0.316-0.934,0.649-1.301c2.467-0.066,4.284-0.133,5.45-0.199c2.066-0.134,3.783-0.434,5.15-0.9
	c-0.3-2.333,1.866-3.634,6.5-3.9c5.366,0.134,8.717,0.15,10.05,0.051l0.1-1.801c0.434,0.067,1.184,0,2.25-0.199
	c1.067-0.233,1.817-0.301,2.25-0.2l0.15-1.101c0.366,0.067,1,0.017,1.9-0.149c0.866-0.167,1.5-0.233,1.899-0.2l0.15-1.1
	c0.7,0,1.517-0.101,2.45-0.301l-0.301-0.75L171.4,26.7l-0.25-0.65l-0.4-0.75l-0.3-0.35c0.833,0.033,2.166,0.366,4,1
	c2.899,1,4.533,1.55,4.899,1.649C183.417,28.767,185.9,28.316,186.8,26.25z M37.55,31.95l7.8-1.45c4.4-0.8,8.233-1.283,11.5-1.45
	v0.4c-0.133,1.5-0.983,2.666-2.55,3.5l-1.65,1.45c-0.933-0.2-2.55-0.284-4.85-0.25c-3.066,0.033-7.316,0.283-12.75,0.75
	c-1.533,0.133-2.9,0.216-4.1,0.25c-4.867,0.066-7.534-0.7-8-2.301c0.566-0.033,2.117,0,4.65,0.101c1.9,0.133,3.267,0.133,4.1,0
	C33.367,32.717,35.317,32.384,37.55,31.95z M63.3,40.6c-0.667-0.033-1.133-0.05-1.4-0.05c-0.033-0.366-0.117-0.684-0.25-0.95
	c3.733-1.366,9.434-2.199,17.1-2.5c8.067-0.066,13.283-0.166,15.65-0.3c0-0.2,0.033-0.8,0.1-1.8c0.833,2.233,4.1,2.217,9.8-0.05
	c0.867-0.334,4.667-2.167,11.4-5.5c0.267,0.166,0.434,0.35,0.5,0.55c0.1,0.4,0.166,0.65,0.2,0.75c0.066-0.066,0.383-0.25,0.949-0.55
	c0.601-0.334,0.967-0.517,1.101-0.55c0.633,1.666,0.85,3.35,0.649,5.05l0.051,0.25c-1.434-0.566-2.467-1.117-3.101-1.65l-0.45-0.5
	c-0.033,0-0.05-0.017-0.05-0.05c-0.333,0.2-1.3,1.066-2.899,2.6c-2.667,0.5-3.767,0.65-3.301,0.45c-2.899,1.134-4.533,1.8-4.899,2
	c-1.667,0.9-3.017,2.134-4.05,3.7c-1-0.434-2.95-0.733-5.851-0.9c-2-0.1-3.833-0.133-5.5-0.1c-6.633,0.167-10.333,0.25-11.1,0.25
	C70.55,40.684,65.667,40.634,63.3,40.6z"/>
</svg>
