<?xml version="1.0" encoding="iso-8859-1"?>
<!-- Generator: Adobe Illustrator 15.1.0, SVG Export Plug-In . SVG Version: 6.00 Build 0)  -->
<!DOCTYPE svg PUBLIC "-//W3C//DTD SVG 1.1//EN" "http://www.w3.org/Graphics/SVG/1.1/DTD/svg11.dtd">
<svg version="1.1" id="FlashAICB" xmlns="http://www.w3.org/2000/svg" xmlns:xlink="http://www.w3.org/1999/xlink" x="0px" y="0px"
	 width="146.65px" height="264.8px" viewBox="0 0 146.65 264.8" style="enable-background:new 0 0 146.65 264.8;"
	 xml:space="preserve">
<path style="fill-rule:evenodd;clip-rule:evenodd;fill:#6C5C47;" d="M131.1,204.6c-1.533,1.334-2.566,2.117-3.1,2.351
	c-1.167,0.566-2.217,0.399-3.15-0.5c-0.566-0.601-0.816-1.967-0.75-4.101c0.034-1.166,0.117-2.633,0.25-4.399
	c-1.333,2.899-2.833,5.1-4.5,6.6c-1.3,1.167-3.449,2.101-6.449,2.8c-3.067,0.767-5.217,1.634-6.45,2.601
	c0.566,0.566,1.899,1.267,4,2.1c1.066,0.4,1.566,1.634,1.5,3.7c-0.033,1.6-0.566,3.283-1.601,5.05c-0.933,1.601-2.1,2.983-3.5,4.15
	c-0.899,0.767-1.883,1.399-2.949,1.899c-1.267,0.534-2.301,1-3.101,1.4c-1.666,1.066-2.816,1.767-3.45,2.1
	c-0.966,0.5-2.333,0.784-4.1,0.851c-1.333,0.033-2.95-0.033-4.85-0.2c-2.134-0.233-3.684-0.4-4.65-0.5
	c1.333,2.767,3.483,4.65,6.45,5.65c1.233,0.433,4.083,0.916,8.55,1.449c0.667,2.967-0.116,5.467-2.35,7.5
	c-1.9,1.267-3.5,2.351-4.801,3.25c0.634-0.8,0.817-2,0.551-3.6l-1-0.8c0-0.434-0.051-0.917-0.15-1.45l-2.4-1.95l-0.399-0.3
	c-2.066-0.5-3.334-0.05-3.8,1.35c-0.034,0.067-0.051,0.15-0.051,0.25L84.8,242l0.05,0.05c-0.064,0.42-0.098,1.012-0.1,1.775v0.075
	c-0.033,0.399-0.05,0.683-0.05,0.85v0.1l0.1,1.4c0.367,0.167,0.733,0.316,1.101,0.45c0,0.533,0.017,1.133,0.05,1.8
	c1.967,0.934,3.583,1.184,4.85,0.75c-0.3,0.2-0.583,0.4-0.85,0.6c-1.934,1.434-3.7,2.25-5.3,2.45c-1.967,0.233-3.834-0.434-5.601-2
	c-0.333-0.3-0.8-0.8-1.399-1.5c0.833,1.934,2.1,5.033,3.8,9.3c-0.4-0.866-0.8-1.8-1.2-2.8c-2.733-6.767-4.45-10.55-5.15-11.35
	c-0.5-0.601-1.033-1.15-1.6-1.65l0.25,0.2c0.733-2.1,1.184-4.417,1.35-6.95c0.167-2.8-0.017-5.684-0.55-8.649
	c-0.434-2.4-1.166-5.2-2.2-8.4c-0.434-1.5-1.317-3.15-2.65-4.95c-1.667-2.033-2.9-3.566-3.7-4.6c2.767,2.066,4.8,3.383,6.1,3.95
	c2.433,1.033,4.766,1.1,7,0.199c0.733-0.3,1.917-1.35,3.551-3.149c1.899-2.101,3.066-3.316,3.5-3.65
	c1.699-1.366,2.816-2.333,3.35-2.899c1.134-1.267,1.816-2.584,2.05-3.95c0.3-1.867-0.316-3.95-1.85-6.25
	c-1.867-2.834-2.917-4.75-3.15-5.75c-0.133-0.566-0.083-1.45,0.15-2.65c0.233-1.366,0.333-2.333,0.3-2.899
	c-0.066-1.233-0.434-2.667-1.1-4.301c-0.367-0.933-0.95-2.316-1.75-4.149l0.55,2.8c-0.033,0.9,0.166,2.3,0.6,4.2
	c0.434,1.767,0.584,3.166,0.45,4.2c-1.4,0.666-2,1.899-1.8,3.699c0.6,2.267,1.033,3.983,1.3,5.15l-1.65,0.3
	c0.233,3.334-0.816,5.584-3.149,6.75c-0.934,0.167-2.7,0.184-5.3,0.05c-2.267-0.1-4,0.067-5.2,0.5c-1.133,0.367-2.4,0.95-3.8,1.75
	c-1.433,0.834-2.467,1.367-3.1,1.601L63,204.5c-0.767,0.267-1.567,0.45-2.4,0.55l-0.2-0.5c-1.9-0.066-3.3-0.083-4.2-0.05
	c-1.5,0.066-2.75,0.45-3.75,1.15c-0.6,0.433-1.333,1.316-2.2,2.649c-0.833,1.334-1.6,2.217-2.3,2.65
	c-1.1,0.733-2.333,1.316-3.7,1.75c-1.4,0.399-2.367,0.717-2.9,0.95c-1.733,0.699-2.733,2.533-3,5.5c2.467-0.7,3.85-1.084,4.15-1.15
	c1.7-0.4,3.167-0.55,4.4-0.45c0.233,0.033,1.1,0.283,2.6,0.75c1.267,0.367,2.05,0.5,2.35,0.4c0.8-0.334,1.6-1.434,2.4-3.3
	c0.9-2.134,1.6-3.434,2.1-3.9c0.8-0.667,1.683-1.233,2.65-1.7c1.133-0.5,2.15-0.733,3.05-0.7l-0.85-2.35l1.35-0.1l1.1,0.649
	c1.167,5.601,1.2,10.167,0.1,13.7c-0.5,1.6-0.95,2.55-1.35,2.85c-0.767,0.267-1.617,0.667-2.55,1.2c-0.3,0.2-0.883,0.384-1.75,0.55
	c-0.8,0.167-1.383,0.367-1.75,0.601c-0.267,0.166-0.45,0.533-0.55,1.1c-0.133,0.566-0.3,0.917-0.5,1.05
	c-0.667,0.434-1.383,0.784-2.15,1.051c0.833-1.434,1.167-3.101,1-5L53,224c0.067-0.6,0.067-1.233,0-1.9l-3.4-1.1
	c-2.2-0.3-3.9,0.55-5.1,2.55c-1,1.767-0.85,3.25,0.45,4.45c0,0.566,0.183,1.116,0.55,1.65c-2.767-0.5-5.267-1.534-7.5-3.101
	c-0.167-0.233-0.317-0.467-0.45-0.7c-0.333-0.6-0.917-2.916-1.75-6.949c-0.333-1.667-1.191-3.075-2.575-4.226
	c0.425,0.334,0.8,0.675,1.125,1.025c3.933-1.5,6.767-3.934,8.5-7.3c2.066-4.034,1.816-8.417-0.75-13.15
	c-1.567-2.6-2.733-4.55-3.5-5.85c-1.333-2.367-2.2-4.45-2.6-6.25c-0.533-2.5-0.817-5.034-0.85-7.601
	c-0.4-1.533-2.35-2.833-5.85-3.899c-0.133-1.301-0.35-3.167-0.65-5.601c0.7-0.333,1.434-0.616,2.2-0.85
	c0.033-1.134,0.183-3.45,0.45-6.95c0.167-3.267-0.017-5.55-0.55-6.85c-0.3-0.733-0.817-1.5-1.55-2.301c2.466,0,4.883-0.199,7.25-0.6
	c2.267-0.366,3.85-0.816,4.75-1.35c2.867-1.567,4.45-3.767,4.75-6.601c0.167-1.467-0.167-4.35-1-8.65
	c-0.8-4.133-2.483-7.45-5.05-9.95c0.633,0.066,1.333,0.05,2.1-0.05c2.433-0.267,4.033-1.783,4.8-4.55
	c0.534-1.934,0.233-3.15-0.9-3.65c0.1-1.8-0.917-2.65-3.05-2.55l-4,0.55c-1.733,0.133-2.967,0.667-3.7,1.6
	c-0.633,0.8-0.783,1.75-0.45,2.85c0.267,0.8,0.633,1.467,1.1,2c0,0.1,0.017,0.2,0.05,0.3c0.066,0.233,0.15,0.45,0.25,0.65
	c-1.767-1.133-4-2.417-6.7-3.85c2.767-0.633,5.533-2.417,8.3-5.35c2.667-2.867,4.333-5.7,5-8.5c1.167-4.767,0.267-9.35-2.7-13.75
	c-1.767-2.6-5.183-6.05-10.25-10.35c-0.533,1.034-0.65,3.333-0.35,6.9c0.367,4.3,0.5,6.9,0.4,7.8
	c-0.367,3.233-0.917,5.617-1.65,7.15c-1,2.067-2.717,3.8-5.15,5.2c-1.367,0.8-2.483,1.316-3.35,1.55
	c-0.967,0.233-2.283,0.3-3.95,0.2c-0.267-0.033-0.95-0.184-2.05-0.45c-0.867-0.233-1.533-0.3-2-0.2c-0.4,0.1-0.867,0.45-1.4,1.05
	c-0.533,0.633-1,0.983-1.4,1.05c-1.833,0.3-3.567,0.017-5.2-0.85c-1.5-0.833-2.717-2.034-3.65-3.6c0-0.533,0.017-1.067,0.05-1.6
	c0.1-2.267,0.317-5.35,0.65-9.25c-0.067,1.433-0.217,3.433-0.45,6c0.433,1.167,0.883,1.867,1.35,2.1
	c1.633,0.667,2.667-0.233,3.1-2.7c0.1-0.467,0.183-2.217,0.25-5.25c0.4,0.1,1.117,0.1,2.15,0c1.167-0.133,1.883-0.183,2.15-0.15
	c-0.567-1.667-0.867-3.467-0.9-5.4c-0.033-1.1-0.05-2.817-0.05-5.15c0-0.267-0.267-1.267-0.8-3c-0.333-1.067-0.2-2.1,0.4-3.1
	c1.1-1.767,4-2.934,8.7-3.5c2.4-0.3,4.433,0.117,6.1,1.25c1.367,0.9,2.8,2.55,4.3,4.95l0.1,0.2c-0.167-0.4-0.417-2.4-0.75-6
	C26.117,70.1,25,68.45,23,67.55c-1.7-0.767-3.617-1.316-5.75-1.65c-2.333-0.367-4.417-0.35-6.25,0.05
	c-3.8,2.933-6.433,6.183-7.9,9.75c0.145-0.384,0.294-0.75,0.45-1.1c1.767-3.7,5.05-7.167,9.85-10.4c3.7-2.5,6.6-5.517,8.7-9.05
	c1.533-2.6,3.316-6.85,5.35-12.75c0.5-1.433,1.167-3.583,2-6.45c0.833-2.4,1.883-4.267,3.15-5.6c0.667-0.733,2.066-1.65,4.2-2.75
	c1.867-0.967,3.05-1.95,3.55-2.95l2.05-1.6c1.033-0.966,2.75-3.117,5.15-6.45c2-2.8,3.934-4.817,5.8-6.05c1.5-1,3.4-1.883,5.7-2.65
	c3.367-1.1,5.317-1.767,5.85-2c1.567-0.633,3.833-1.933,6.8-3.9c2.767-1.567,5.217-2.217,7.35-1.95c1.5,0.2,3.667,1.167,6.5,2.9
	c1.566,0.966,3.634,2.316,6.2,4.05c2.066,1.267,3.767,2.583,5.1,3.95c1.434,1.5,2.851,3.433,4.25,5.8
	c0.934,1.633,2.184,4.317,3.75,8.05c1.567,3.633,2.834,6.3,3.801,8c0.8,1.434,2.283,3.483,4.449,6.15
	c2.034,2.5,3.467,4.55,4.301,6.15c0.767,1.433,1.366,3.667,1.8,6.7c0.467,3.167,0.983,5.367,1.55,6.6
	c1.033,2.3,3.134,4.483,6.3,6.55c3.667,2.367,6.05,4.267,7.15,5.7c2.967,3.934,5.7,9.517,8.2,16.75
	c2.433,7.133,3.816,13.434,4.149,18.9c0.467,7.267-0.649,14.067-3.35,20.4c-1.066,2.433-4.4,8.316-10,17.649
	c-2.101,3.467-3.15,6.301-3.15,8.5c0,1.567,0.767,4.584,2.3,9.051c2.367,5.966,3.983,10.466,4.851,13.5
	c1.434,5.199,1.583,10.116,0.45,14.75c-0.567,2.433-1.784,5.466-3.65,9.1C132.866,201.35,131.9,203.134,131.1,204.6z M91.1,48.25
	l1.25-6.15v-0.8c-0.5,0.567-0.8,0.95-0.899,1.15c-0.101,0.2-0.217,0.883-0.351,2.05C90.967,46,90.967,47.25,91.1,48.25z
	 M90.95,48.25c-0.134-1.5-0.134-2.75,0-3.75c0.1-1.1,0.233-1.783,0.399-2.05c0.101-0.2,0.351-0.583,0.75-1.15l0.4-0.9
	c0.167-0.367,0.5-0.9,1-1.6c0.4-0.6,0.684-1.2,0.85-1.8c0.801-2.967,0.301-5.667-1.5-8.1c-2.566-2.633-4.517-4.65-5.85-6.05
	l-6.25-1.7c0.667,0.833,2.25,2.383,4.75,4.65c2.2,2.167,3.283,3.883,3.25,5.15c-0.066,1.233-0.5,2.25-1.3,3.05
	c-1.101,0.867-1.983,1.633-2.65,2.3c-1.333,1.534-2.316,2.6-2.95,3.2c-1.033,0.967-2.333,1.667-3.899,2.1
	c0.366,1.3,1.533,3.15,3.5,5.55c1.899,2.3,3.033,4.267,3.399,5.9c0.367,1.467,0.601,3.233,0.7,5.3
	c0.134,2.233,0.017,4.017-0.35,5.35c-0.7,2.566-2.117,4.433-4.25,5.6c-1.967,0.667-4.884,1-8.75,1c-5.3,0.034-8.483,0.1-9.55,0.2
	l1.25,0.35c-2.033,0.066-3.566,0.25-4.6,0.55c1.9,0.167,4.117,0.667,6.65,1.5c1.4,0.434,3.5,1.117,6.3,2.05
	c0.833,0.233,2.25,0.417,4.25,0.55c1.866,0.133,3.3,0.367,4.3,0.7c1.033,0.333,2.316,0.983,3.851,1.95
	c1.333,0.667,2.583,0.667,3.75,0c1.333-0.8,2.583-2.7,3.75-5.7c0.966-2.6,1.517-4.817,1.649-6.65v-1.15
	c0.5,0.1,1.033,0.15,1.601,0.15c0.199,1.5,0.85,2.7,1.949,3.6c1.034,0.833,2.284,1.317,3.75,1.45c0.434,0.033,1-0.083,1.7-0.35
	c0.733-0.267,1.25-0.4,1.55-0.4c0.4,0,1.384,0.167,2.95,0.5c1.367,0.267,2.334,0.35,2.9,0.25c2.633-0.434,4.583-2.467,5.85-6.1
	c0.134-0.367,0.816-3.433,2.05-9.2L114.7,55.1c0.833,2.967-0.316,4.167-3.45,3.6c-3.7-1.167-5.934-1.784-6.7-1.85
	c-1.033,2.233-2.583,3.333-4.649,3.3c-1.634-0.066-3.517-0.833-5.65-2.3c1.733,0.833,4,1.017,6.8,0.55c0.8-1.8,1.233-3.6,1.3-5.4
	c0.067-1.133,0.034-3.017-0.1-5.65c0-3.1,0.967-5.1,2.9-6c1.233-0.6,3.666-0.917,7.3-0.95l-8.5-1.7
	c-2.934-0.534-5.684,0.383-8.25,2.75c-2.367,2.133-3.9,4.75-4.601,7.85L90.95,48.25z M92.15,56.2l0.449,0.45l0.051,0.15L92.15,56.2z
	 M91.95,83.65c0.033,0.4,0.1,0.85,0.2,1.35l0.35,0.15c0.2,0.1,0.4,0.184,0.6,0.25c-0.033,0.533,0.017,1.15,0.15,1.85
	c2.1,1,4.134,0.867,6.1-0.4c1.767-1.1,1.834-2.267,0.2-3.5c0.267-0.667-0.017-1.35-0.85-2.05c-0.066-0.066-0.134-0.133-0.2-0.2
	c-0.233-0.167-0.483-0.333-0.75-0.5L94.9,80c-1.367-0.133-2.267,0.367-2.7,1.5C91.967,82.067,91.884,82.783,91.95,83.65z M83.5,93.2
	c0,0.633,0.134,1.15,0.4,1.55c0.433,0.667,1.466,1.233,3.1,1.7c3.634,1.066,6.1,0.133,7.4-2.8c0.5-1.133,0.5-2.1,0-2.9
	c-0.167-0.333-0.4-0.583-0.7-0.75c0-0.567-0.134-1.067-0.4-1.5c-0.5-0.9-1.467-1.267-2.899-1.1L89.8,85.7h-0.25
	c-0.233,0-0.434-0.017-0.6-0.05L88.9,85.7c-2.2,0-3.367,0.017-3.5,0.05c-1.034,0.267-1.867,1.233-2.5,2.9
	c-0.667,1.733-0.717,3.017-0.15,3.85C82.917,92.733,83.167,92.967,83.5,93.2z M106.15,85c-1.4,1.733-1.934,4.45-1.601,8.15
	c0.667,4.2,1.066,7.133,1.2,8.8c1.366-1.767,3-3.184,4.9-4.25c0.399-0.233,2.517-1.217,6.35-2.95c3.533-1.6,5.316-2.4,5.35-2.4
	c1.567-1,2.567-2.533,3-4.6c0.334-1.6,0.334-5.05,0-10.35c0.301-4.367,2.233-6.316,5.801-5.85l-5.101-2.85c-0.866,0.7-2.8,2-5.8,3.9
	c-1.934,1.2-3.55,2.733-4.85,4.6c-0.834,1.2-2.351,2.517-4.551,3.95C108.55,82.683,106.983,83.967,106.15,85z M68.4,10.85
	c1.867,0.333,4.133-0.25,6.8-1.75c2.767-1.567,5-2.267,6.7-2.1L74.55,4.75c-2.566,1.6-3.867,2.417-3.9,2.45
	C69.183,8.367,68.433,9.583,68.4,10.85z M78.5,22.15c-1.9-1.633-4.45-2.316-7.65-2.05c-2.867,0.267-5.617,1.2-8.25,2.8
	s-4.3,3.35-5,5.25c-0.733,2.167,0,3.983,2.2,5.45c0.967-1.8,2-4.367,3.1-7.7c1.2-2.5,3.184-4.017,5.95-4.55
	c1.3-0.233,3-0.184,5.1,0.15C76.05,21.833,77.566,22.05,78.5,22.15z M45.45,27.6c0.733,1.233,0.816,2.583,0.25,4.05
	c-0.267,0.7-1.017,1.317-2.25,1.85c-1.3,0.533-2.067,1-2.3,1.4c-0.3,0.5-0.45,1.083-0.45,1.75c-0.034,0.934-0.083,1.567-0.15,1.9
	c-0.667,3.7-1.133,6.167-1.4,7.4c-0.4,1.933-0.9,3.3-1.5,4.1c-1.1,1.4-4.633,2.383-10.6,2.95c1.3,0.333,3.35,0.9,6.15,1.7
	c2.5,0.667,4.583,1,6.25,1c1.233,0,2.216,0.033,2.95,0.1c0.167-0.066,0.733-0.867,1.7-2.4c0.8-1.267,1.367-2.816,1.7-4.65
	c0.2-1.2,0.333-2.85,0.4-4.95c0-0.167-0.05-1.233-0.15-3.2c-0.1-1.4-0.017-2.417,0.25-3.05c0.2-0.466,0.784-1.1,1.75-1.9
	c0.9-0.767,1.467-1.5,1.7-2.2c0.8-2.3,0.817-4.233,0.05-5.8c-0.8-1.667-2.367-2.5-4.7-2.5h-2.85
	C43.717,25.683,44.783,26.5,45.45,27.6z M71.3,43.9c3.033,0.4,6.367,1.5,10,3.3L73.4,41.5c-1.634,0.133-3.417,0.117-5.351-0.05
	c-2.333-0.167-3.716-0.25-4.15-0.25c-2.733,0-5.367,1.2-7.9,3.6c-2.567,2.434-3.967,5.233-4.2,8.4c-0.2,2.8,0.55,6.033,2.25,9.7
	c0.1-1.133,0.083-3-0.05-5.6c0-2.267,0.417-3.983,1.25-5.15c0.233-0.3,0.8-0.633,1.7-1c1-0.4,1.633-0.733,1.9-1
	c0.367-0.333,0.767-0.967,1.2-1.9c0.4-0.933,0.833-1.583,1.3-1.95C63.917,44.2,67.233,43.4,71.3,43.9z M39.5,73.55
	c0.833,0.867,1.85,1.25,3.05,1.15c1.434-0.1,2.65-0.967,3.65-2.6l-2.8-1.15c-2.233-0.434-3.667-0.3-4.3,0.4
	C38.533,71.983,38.667,72.717,39.5,73.55z M75.05,58.4c-0.767-1.533-2.45-2.066-5.05-1.6h-0.55c-1.167-0.133-2.083,0.25-2.75,1.15
	c-0.567,0.833-0.75,1.816-0.55,2.95c0.133,0.867,0.5,1.583,1.1,2.15c0,0.034,0,0.067,0,0.1c0.2,1.167,0.75,2.017,1.65,2.55
	c1.067,0.6,2.417,0.617,4.05,0.05c2.833-1.033,3.967-2.533,3.399-4.5c-0.199-0.7-0.517-1.233-0.949-1.6
	c-0.031-0.125-0.048-0.233-0.051-0.325V59.3C75.283,58.967,75.184,58.667,75.05,58.4z M52.9,81.7c-4.267,3.867-3.033,5.95,3.7,6.25
	c0.2,0,1.633,0.017,4.3,0.05c1.7,0.033,3.117,0.15,4.25,0.35c0.133,0.033,0.917,0.367,2.35,1c1.033,0.467,1.85,0.583,2.45,0.35
	c1.767-0.633,2.316-2,1.65-4.1c-0.367-1.133-1.117-2.8-2.25-5v-1.7c-3.967-0.2-6.883-0.233-8.75-0.1
	C57.4,79,54.833,79.967,52.9,81.7z M89.25,103.25l-6.8-2.85c-2.733-1.133-5.95-1.833-9.65-2.1c-3.433-0.267-6.75-0.133-9.95,0.4
	c-2.267,0.267-4.083,0.533-5.45,0.8c-2.467,0.5-4.083,1.133-4.85,1.9c-0.6,0.633-1.25,2.25-1.95,4.85c-0.633,2.4-0.967,4.183-1,5.35
	c0,1.367,0.383,3.083,1.15,5.15c0.633,1.7,1.35,3.233,2.15,4.6c0.133-1.333,0.15-4.133,0.05-8.4c0.167-3.8,1.083-6.117,2.75-6.95
	c0.5-0.233,1.45-0.25,2.85-0.05c1.467,0.2,2.45,0.233,2.95,0.1c0.733-0.2,1.6-0.667,2.6-1.4c1-0.8,1.816-1.283,2.45-1.45
	c1.034-0.3,2.883-0.217,5.55,0.25c1.466,0.267,3.417,0.617,5.85,1.05c2.6,0.3,4.267,0.45,5,0.45c1.267,0,2.616-0.267,4.05-0.8
	l-0.15,0.3L89.25,103.25z M65.05,118.85c0.2,1.7,0.167,2.9-0.1,3.6c-1.1,2.9-4.483,4.933-10.15,6.1
	c7.667,2.434,12.517,2.3,14.55-0.4c0.867-1.167,1.25-3.316,1.15-6.45c-0.133-3.367,0.067-5.567,0.6-6.6
	c0.767-1.467,2.067-2.467,3.9-3c1.066-0.3,2.8-0.617,5.2-0.95c0.733-0.133,1.533-0.283,2.399-0.45c0.634-0.2,1.301-0.65,2-1.35
	c0.534-0.567,0.983-1.383,1.351-2.45c0.467-1.367,0.767-2.183,0.899-2.45l-4.399,2.2c-5,0-8.483,0.333-10.45,1
	c-3.4,1.167-5.717,3.7-6.95,7.6C64.817,115.95,64.817,117.15,65.05,118.85z M59.05,136.6v-0.05c0-0.366-0.017-0.649-0.05-0.85
	c-0.2-0.934-0.95-1.533-2.25-1.8c-2.833,0.199-4.467,0.383-4.9,0.55c-1.7,0.566-2.45,1.899-2.25,4c0.133,1.333,0.55,2.333,1.25,3
	c0.233,1.166,0.783,2.017,1.65,2.55c0.967,0.634,2.283,0.816,3.95,0.55c1.6-0.233,2.5-0.467,2.7-0.7
	c0.067-0.066,0.283-0.966,0.65-2.699c0.333-1.634,0.45-2.7,0.35-3.2C59.983,137.384,59.617,136.934,59.05,136.6z M73.4,143.4
	c-1.833,0.833-3.184,2.233-4.05,4.199c-0.067,0.167-0.633,2.067-1.7,5.7c1.667-2.833,4.583-4.5,8.75-5
	c1.166-0.133,2.916-0.267,5.25-0.399c2.033-0.2,3.649-0.551,4.85-1.051c-0.866-4.433-1.316-7.199-1.35-8.3
	c-0.067-3.6,1.083-5.95,3.449-7.05c0.434-0.2,1.184-0.217,2.25-0.05c1.134,0.2,1.917,0.233,2.351,0.1c1.066-0.333,1.666-0.6,1.8-0.8
	c0.667-0.9,1.05-1.4,1.15-1.5c1.166-1.133,2.333-2.317,3.5-3.55c0.933-0.7,2.566-1.2,4.899-1.5l-3.399-2.85
	c-5.767,1.7-9.9,3.233-12.4,4.6c-4.667,2.533-7.517,5.767-8.55,9.7c-0.101,0.3-0.134,1.433-0.101,3.399c0,1.7-0.183,2.75-0.55,3.15
	c-0.633,0.7-1.649,1.033-3.05,1C74.833,143.134,73.8,143.2,73.4,143.4z M24.05,145.25c0.534,0.366,1.284,0.866,2.25,1.5
	c0.428,0.3,0.828,0.6,1.2,0.9C25.933,146.583,24.783,145.783,24.05,145.25z M23.6,144.9c-1.3-0.934-2.767-2.267-4.4-4
	c-2.067-2.134-3.45-3.5-4.15-4.101c-2.767-1.934-4.55-3.316-5.35-4.15c-1.2-1.233-2.1-3.617-2.7-7.15
	c-0.167-1.133-0.383-2.767-0.65-4.9c-0.167-1.233-0.4-2.317-0.7-3.25c0.434,0,0.75,0.017,0.95,0.05c1.6,0.067,4.5-0.1,8.7-0.5
	c3.8-0.233,6.534,0.1,8.2,1c0.6,0.333,1.4,1.233,2.4,2.7c1.3,1.867,2.067,2.917,2.3,3.15c0.566,0.6,1.533,1.417,2.9,2.45
	c1.533,1.2,2.583,2.066,3.15,2.6c1.4,3.367,2.217,6.167,2.45,8.4c-0.233,1.033-0.684,2.416-1.35,4.149
	c-0.8,2.034-1.283,3.317-1.45,3.851l-0.5,0.55l0.35,0.05l-0.1,0.351c-1.933,0.133-4.133-0.25-6.6-1.15
	c-2.733-1.134-4.767-1.917-6.1-2.35C21.883,143.517,22.767,144.267,23.6,144.9z M46.5,181.75c-0.667-1.233-1.733-1.55-3.2-0.95
	c-0.966-0.166-1.883-0.149-2.75,0.05c-0.363,1.164-0.488,2.189-0.375,3.075l0.025,0.15c0.041,0.271,0.108,0.529,0.2,0.774
	c0.167,0.534,0.467,1,0.9,1.4c0.133,0.967,0.567,1.767,1.3,2.4c1.3,1.1,3.233,1.483,5.8,1.149c0.1-2.399-0.1-4.217-0.6-5.45
	c-0.2-0.5-0.45-0.866-0.75-1.1C46.917,182.684,46.733,182.184,46.5,181.75z M133.25,120c0-0.033,0-0.067,0-0.1
	c-0.167-2.1-1.634-2.933-4.4-2.5l-1.1-0.6c-1.434-0.466-2.55-0.35-3.35,0.35c-0.733,0.633-1.034,1.533-0.9,2.7
	c0.134,0.933,0.533,1.733,1.2,2.4c0.133,1.1,0.666,2,1.6,2.7c1.134,0.833,2.55,1.133,4.25,0.9c2.7-0.367,3.983-1.6,3.851-3.7
	C134.333,121.15,133.95,120.433,133.25,120z M127.2,142.85c3.066-0.033,5.717-1.116,7.95-3.25c1.666-1.6,3.35-4.1,5.05-7.5
	l-6.25,2.85c-2.367,3.166-6.717,3.333-13.05,0.5c-6.801-3.9-11.15-6.3-13.051-7.2c-0.133,1.033,1.45,3.017,4.75,5.95
	c1.101,1,3.483,2.95,7.15,5.85c1.434,1.167,2.55,1.917,3.35,2.25C124.066,142.7,125.434,142.884,127.2,142.85z M90.4,102.65
	c-0.601,0-1.2,0.1-1.801,0.3l0.65,0.3L90.4,102.65z M86.45,157.15c0.8-0.067,1.733,0.066,2.8,0.399c1.1,0.334,1.967,1.033,2.6,2.101
	c0.7,1.199,1.351,1.933,1.95,2.199c1.601,0.767,3.267,0.5,5-0.8c1.467-1.133,2.667-2.7,3.601-4.7
	c1.433-3.066,1.966-7.883,1.6-14.449c-0.2-3.567-0.583-8.351-1.15-14.351l-4,9.65c-0.233,2.233-0.466,3.916-0.699,5.05
	c-0.767,1.833-1.634,3.25-2.601,4.25c-1.2,1.267-2.733,2.134-4.6,2.6l-0.101,0.051c-0.6,0.1-1.166,0.133-1.699,0.1l-1.25-0.1
	c-0.367-0.034-0.684-0.067-0.95-0.101c-0.434-0.066-0.834-0.083-1.2-0.05c-0.467-0.033-0.85-0.05-1.15-0.05
	c-0.566,0.133-1.3,0.2-2.199,0.2H82.35c-0.066,0-0.149,0.166-0.25,0.5c-1,0.566-1.633,1.966-1.899,4.199v0.051
	c-0.033,0.133-0.066,0.267-0.101,0.399c-0.333,1.267-0.583,2.2-0.75,2.8c-0.366,1.233-0.8,2.15-1.3,2.75
	c-0.133,0.134-0.25,0.284-0.35,0.45c-1.3,1.3-3.384,2.417-6.25,3.351c-4.6,1.466-7.167,2.333-7.7,2.6l1.3,0.3c0.034,0,0.067,0,0.1,0
	c1.1,0.167,2.283,0.267,3.55,0.3c-1.3,0-2.517-0.1-3.65-0.3c-0.966,0.367-1.883,0.783-2.75,1.25c2.067,1.134,4.917,1.7,8.55,1.7
	c2.966,0,5.883-0.35,8.75-1.05c0.267-0.066,0.733,0.033,1.4,0.3c0.434,0.2,0.884,0.033,1.35-0.5c0.367-0.4,0.534-1.267,0.5-2.6
	c-0.033-0.767-0.083-1.917-0.149-3.45c-0.25,0.267-0.5,0.508-0.75,0.725c0.256-0.238,0.506-0.496,0.75-0.774v0.05
	C83.634,161.134,84.884,159.45,86.45,157.15z M71.2,172.8c-1.567,0.134-2.95,0.7-4.15,1.7c-0.733,0.634-1.667,1.65-2.8,3.05
	c-1.367,1.7-2.283,2.783-2.75,3.25c-2.133,2.167-3.5,4.533-4.1,7.101c-0.633,2.733-0.35,5.55,0.85,8.449
	c0.167-0.5,0.383-1.583,0.65-3.25c0.2-1.433,0.5-2.483,0.9-3.149c0.534-0.967,1.117-1.634,1.75-2c1.133-0.667,1.867-1.15,2.2-1.45
	c2.233-2,4.367-3.2,6.4-3.6c0.033,0,2.6-0.167,7.7-0.5c-0.199-3-0.183-4.851,0.051-5.551c0.5-1.3,2.017-2.433,4.55-3.399l-6.2-0.601
	C73.85,172.75,72.167,172.733,71.2,172.8z M52.45,163.8c-4.7,0-8.15,0.184-10.35,0.55c-3.3,0.534-6.45,1.667-9.45,3.4
	c2.233,3.233,6.067,4.316,11.5,3.25c2.967-0.566,7.05-1.65,12.25-3.25L52.45,163.8z M137.95,101.55c-1.634,0.733-4.75,1.3-9.351,1.7
	c-3.966,0.333-6.916,1.267-8.85,2.8c-1.066,0.9-2.7,2.784-4.9,5.65c-2.3,2.867-3.85,4.9-4.649,6.1c-1.267,1.934-2,4.117-2.2,6.55
	c0.333-1.267,1.35-2.434,3.05-3.5c0.967-0.567,2.417-1.383,4.351-2.45c1-0.733,2.1-1.816,3.3-3.25
	c1.533-1.867,2.517-3.017,2.95-3.45c2.1-2.067,4.833-3.684,8.199-4.85c1.067-0.4,4.134-1.233,9.2-2.5L137.95,101.55z M109.55,153.9
	c0.101,0.866,0.417,1.566,0.95,2.1c0.833,0.866,2.233,1.4,4.2,1.6c3,0.267,5.166-1.1,6.5-4.1c0.5-1.167,0.6-2.15,0.3-2.95
	c-0.2-0.467-0.517-0.767-0.95-0.899c0.033-0.5-0.033-0.95-0.2-1.351c-0.333-0.833-1.083-1.133-2.25-0.899l-3.399-1.7
	c-2.434-0.101-3.967,0-4.601,0.3c-0.966,0.467-1.55,1.684-1.75,3.65c-0.166,1.833,0.184,3.199,1.051,4.1
	C109.434,153.783,109.483,153.833,109.55,153.9z M107.35,170.5c-0.699,0.667-2.033,1.35-4,2.05c-1.899,0.7-3.183,1.384-3.85,2.05
	c-1.9,1.9-2.217,4.233-0.95,7c1.066,2.334,2.834,4.317,5.3,5.95c-0.433-2.133,0.45-3.316,2.65-3.55c1.233-0.134,3.184-0.1,5.85,0.1
	c0.034-0.433,0.034-1.366,0-2.8c-0.066-1.233-0.033-2.166,0.101-2.8c0.166-0.7,0.55-1.566,1.149-2.6
	c0.634-1.067,1.017-1.884,1.15-2.45c0.4-1.533,0.333-3.8-0.2-6.8c-0.633-3.667-0.95-5.934-0.95-6.801l-2.25,0.551
	c0.034,1.833-0.3,3.666-1,5.5C109.616,167.8,108.616,169.333,107.35,170.5z M124.95,163c0.033-0.467,0.017-0.95-0.05-1.45l-2.25-1.7
	c-1.801-0.3-3.184,0.483-4.15,2.351c-0.934,1.767-0.767,3.149,0.5,4.149c-0.066,1,0.384,1.817,1.35,2.45
	c1.634,1.066,3.084,0.884,4.351-0.55c1.166-1.3,1.616-2.783,1.35-4.45L124.95,163z M92.75,206.45c0.2,2.3,2.033,3.366,5.5,3.2
	c3.3-0.134,5.634-2.217,7-6.25c0.566-1.601,0.616-2.884,0.15-3.851c-0.2-0.399-0.45-0.7-0.75-0.899c-0.034-0.534-0.15-1-0.351-1.4
	c-0.533-1.1-1.583-1.5-3.149-1.2L96.6,196.65c-3.1,1.533-4.75,3.733-4.949,6.6C91.55,204.684,91.917,205.75,92.75,206.45z
	 M118.2,191.95c1.066-0.566,2.833-1.084,5.3-1.55c2.233-0.434,3.833-0.983,4.8-1.65c0.9-0.634,2.084-1.866,3.55-3.7
	c0.834-1.033,1.917-2.45,3.25-4.25l-0.55-1.7c-1.7-1.166-3.55-1.316-5.55-0.449c-0.733,0.3-2.333,1.35-4.8,3.149
	c-2.834,2.066-4.467,3.4-4.9,4C118.434,187,118.066,189.05,118.2,191.95z M106.4,216.05c0.066,0,1.333-0.816,3.8-2.45l-3.4-2.8
	c-7.1,0-12.217,0.783-15.35,2.351c-4.5,2.267-6.55,6.5-6.15,12.699c2.3-3.033,4.7-5.233,7.2-6.6c2.5-1.333,5.566-2.083,9.2-2.25
	C103.733,216.934,105.3,216.616,106.4,216.05z M62.4,205.6l-1.25,1.051l-0.3-0.851l0.85,0.351L62.4,205.6z M49.2,234.75l0.95,0.65
	c1.7,1.166,3.1,1.816,4.2,1.949c0.066,0,0.35,0.017,0.85,0.051c-0.6,0-0.967-0.017-1.1-0.051
	C52.967,237.15,51.333,236.283,49.2,234.75z M43.55,231.15c0.35,0.233,0.725,0.483,1.125,0.75c-0.667-0.416-1.259-0.8-1.775-1.15
	c-0.133-0.066-0.25-0.15-0.35-0.25C42.85,230.7,43.183,230.917,43.55,231.15z"/>
<path style="fill-rule:evenodd;clip-rule:evenodd;fill:#5E5140;" d="M5.65,117.35c-0.1-0.367-0.25-0.8-0.45-1.3
	c-0.233-0.533-0.8-1.033-1.7-1.5c-0.933-0.433-1.533-0.933-1.8-1.5c-1.2-2.466-1.767-5.783-1.7-9.95
	c0.933,1.566,2.15,2.767,3.65,3.6c1.633,0.867,3.367,1.15,5.2,0.85c0.4-0.066,0.867-0.417,1.4-1.05c0.533-0.6,1-0.95,1.4-1.05
	c0.467-0.1,1.133-0.034,2,0.2c1.1,0.267,1.783,0.417,2.05,0.45c1.667,0.1,2.983,0.033,3.95-0.2c0.867-0.233,1.983-0.75,3.35-1.55
	c2.433-1.4,4.15-3.133,5.15-5.2c0.733-1.533,1.283-3.917,1.65-7.15c0.1-0.9-0.033-3.5-0.4-7.8c-0.3-3.567-0.183-5.867,0.35-6.9
	c5.067,4.3,8.483,7.75,10.25,10.35c2.967,4.4,3.867,8.983,2.7,13.75c-0.667,2.8-2.333,5.633-5,8.5
	c-2.767,2.934-5.534,4.717-8.3,5.35c2.7,1.433,4.934,2.717,6.7,3.85c-0.1-0.2-0.184-0.417-0.25-0.65c-0.033-0.1-0.05-0.2-0.05-0.3
	c0.9,1.067,2.25,1.6,4.05,1.6c0.3-0.033,0.633-0.067,1-0.1c0.133,0,0.267-0.017,0.4-0.05l0.55-0.1
	c1.649-0.476,2.833-1.651,3.55-3.525l0.05-0.125c0.015-0.047,0.032-0.097,0.05-0.15c0.2-0.467,0.333-0.917,0.4-1.35
	c0.033-0.233,0.05-0.45,0.05-0.65c1.133,0.5,1.434,1.716,0.9,3.65c-0.767,2.767-2.367,4.283-4.8,4.55
	c-0.767,0.1-1.467,0.117-2.1,0.05c2.567,2.5,4.25,5.816,5.05,9.95c0.833,4.3,1.167,7.183,1,8.65c-0.3,2.834-1.883,5.033-4.75,6.601
	c-0.9,0.533-2.483,0.983-4.75,1.35c-2.367,0.4-4.784,0.6-7.25,0.6h-0.05c-0.167-0.166-0.333-0.333-0.5-0.5l-0.55-0.449
	c-0.2-0.167-0.4-0.334-0.6-0.5c-0.372-0.301-0.772-0.601-1.2-0.9c-0.966-0.634-1.716-1.134-2.25-1.5l-0.45-0.35
	c-0.833-0.634-1.717-1.384-2.65-2.25c1.333,0.433,3.367,1.216,6.1,2.35c2.467,0.9,4.667,1.283,6.6,1.15l0.1-0.351
	c1.3,0.101,2.483-0.434,3.55-1.6c0.8-0.9,1.467-2.101,2-3.601c0.934-2.633,0.85-5.383-0.25-8.25c-0.533-1.467-1.917-4-4.15-7.6
	l-1.15,2.8l0.5,1.25c-0.567-0.533-1.617-1.4-3.15-2.6c-1.367-1.034-2.333-1.85-2.9-2.45c-0.233-0.233-1-1.283-2.3-3.15
	c-1-1.467-1.8-2.367-2.4-2.7c-1.667-0.9-4.4-1.233-8.2-1c-4.2,0.4-7.1,0.567-8.7,0.5C6.4,117.367,6.083,117.35,5.65,117.35z
	 M33.225,214.675L32.8,214.35c-0.533-0.399-1.133-0.767-1.8-1.1c-1.267-0.6-3.233-0.767-5.9-0.5c-3.2,0.5-5.617,0.833-7.25,1
	c-6,0.634-9.6-1.066-10.8-5.1c5.133,0.066,9.1-0.434,11.9-1.5c3.9-1.467,6.733-4.25,8.5-8.351c0.633-1.467,0.966-3.783,1-6.95
	c0.033-2.399-0.083-4.767-0.35-7.1c-0.167-1.6-0.467-2.816-0.9-3.65c-0.3-0.633-0.967-1.533-2-2.699
	c-0.4-0.434-0.967-0.817-1.7-1.15c-0.4-0.233-0.767-0.783-1.1-1.65c-0.1-0.233-0.15-0.699-0.15-1.399c0-0.066,0-0.134,0-0.2
	c0.867-3.8,3-6.467,6.4-8v0.05c0.3,2.434,0.517,4.3,0.65,5.601c3.5,1.066,5.45,2.366,5.85,3.899c0.033,2.566,0.317,5.101,0.85,7.601
	c0.4,1.8,1.267,3.883,2.6,6.25c0.767,1.3,1.933,3.25,3.5,5.85c2.566,4.733,2.816,9.116,0.75,13.15c-1.733,3.366-4.567,5.8-8.5,7.3
	C34.025,215.35,33.65,215.009,33.225,214.675z M42.55,230.5l-4.45-3.8c-0.033-0.066-0.067-0.117-0.1-0.15
	c2.233,1.566,4.733,2.601,7.5,3.101c-0.367-0.534-0.55-1.084-0.55-1.65c0.2,0.167,0.433,0.333,0.7,0.5
	c0.333,0.2,0.65,0.384,0.95,0.55c1.566,0.767,2.933,0.667,4.1-0.3c0.066-0.066,0.133-0.134,0.2-0.2c0.6-0.566,1.083-1.267,1.45-2.1
	c0.333-0.767,0.55-1.584,0.65-2.45l1.15,0.4c0.167,1.899-0.167,3.566-1,5c0.767-0.267,1.483-0.617,2.15-1.051
	c0.2-0.133,0.367-0.483,0.5-1.05c0.1-0.566,0.284-0.934,0.55-1.1c0.367-0.233,0.95-0.434,1.75-0.601
	c0.867-0.166,1.45-0.35,1.75-0.55c0.933-0.533,1.783-0.934,2.55-1.2c0.4-0.3,0.85-1.25,1.35-2.85c1.1-3.533,1.067-8.1-0.1-13.7
	l-1.1-0.649l1.6-0.2c1.8-0.101,4.5-0.167,8.1-0.2c3.167-0.066,5.616-0.35,7.35-0.85c4.867-1.434,7.134-5.483,6.801-12.15l-1.15,0.25
	c-0.267-1.167-0.7-2.884-1.3-5.15c-0.2-1.8,0.399-3.033,1.8-3.699c0.134-1.034-0.017-2.434-0.45-4.2c-0.434-1.9-0.633-3.3-0.6-4.2
	l-0.55-2.8c0.8,1.833,1.383,3.217,1.75,4.149c0.666,1.634,1.033,3.067,1.1,4.301c0.033,0.566-0.066,1.533-0.3,2.899
	c-0.233,1.2-0.283,2.084-0.15,2.65c0.233,1,1.283,2.916,3.15,5.75c1.533,2.3,2.149,4.383,1.85,6.25
	c-0.233,1.366-0.916,2.684-2.05,3.95c-0.533,0.566-1.65,1.533-3.35,2.899c-0.434,0.334-1.601,1.55-3.5,3.65
	c-1.634,1.8-2.817,2.85-3.551,3.149c-2.233,0.9-4.566,0.834-7-0.199c-1.3-0.567-3.333-1.884-6.1-3.95c0.8,1.033,2.033,2.566,3.7,4.6
	c1.333,1.8,2.216,3.45,2.65,4.95c1.034,3.2,1.766,6,2.2,8.4c0.533,2.966,0.717,5.85,0.55,8.649c-0.166,2.533-0.616,4.851-1.35,6.95
	l-0.25-0.2l-0.05-0.05c-0.5-0.467-1-0.9-1.5-1.3c-3.5-2.667-7.667-3.917-12.5-3.75l-4.25,0.2c-0.5-0.034-0.784-0.051-0.85-0.051
	c-1.1-0.133-2.5-0.783-4.2-1.949c2.5,0.267,4.783,0.133,6.85-0.4c3.833-1,6.167-3.033,7-6.1c0.267-1.101,0.383-4.483,0.35-10.15
	c-0.3,5.167-2.667,8.667-7.1,10.5c-1.3,0.566-2.95,1-4.95,1.3c-1.4,1.5-3.1,1.667-5.1,0.5c-1.167,0.066-2.383,0.101-3.65,0.101
	C43.183,230.917,42.85,230.7,42.55,230.5z M60.85,205.8l-0.25-0.75c0.833-0.1,1.633-0.283,2.4-0.55l0.05-0.05
	c0.633-0.233,1.667-0.767,3.1-1.601c1.4-0.8,2.667-1.383,3.8-1.75c1.2-0.433,2.933-0.6,5.2-0.5c2.6,0.134,4.366,0.117,5.3-0.05
	c-0.967,0.5-2.233,0.834-3.8,1c-0.9,0.101-2.334,0.167-4.3,0.2c-1.9,0-3.567,0.267-5,0.8c-1.333,0.467-2.7,1.25-4.1,2.351L63.1,205
	l-0.7,0.6l-0.7,0.551L60.85,205.8z M85.9,246.7c1.6,0.6,2.949,0.666,4.05,0.2c1.1-0.5,1.666-1.483,1.7-2.95l1,0.8
	c0.267,1.6,0.083,2.8-0.551,3.6c1.301-0.899,2.9-1.983,4.801-3.25c2.233-2.033,3.017-4.533,2.35-7.5
	c-4.467-0.533-7.316-1.017-8.55-1.449c-2.967-1-5.117-2.884-6.45-5.65c0.967,0.1,2.517,0.267,4.65,0.5
	c1.899,0.167,3.517,0.233,4.85,0.2c1.767-0.066,3.134-0.351,4.1-0.851c0.634-0.333,1.784-1.033,3.45-2.1
	c0.8-0.4,1.834-0.866,3.101-1.4c1.066-0.5,2.05-1.133,2.949-1.899c1.4-1.167,2.567-2.55,3.5-4.15c1.034-1.767,1.567-3.45,1.601-5.05
	c0.066-2.066-0.434-3.3-1.5-3.7c-2.101-0.833-3.434-1.533-4-2.1c1.233-0.967,3.383-1.834,6.45-2.601c3-0.699,5.149-1.633,6.449-2.8
	c1.667-1.5,3.167-3.7,4.5-6.6c-0.133,1.767-0.216,3.233-0.25,4.399c-0.066,2.134,0.184,3.5,0.75,4.101
	c0.934,0.899,1.983,1.066,3.15,0.5c0.533-0.233,1.566-1.017,3.1-2.351c-0.733,1.367-1.316,2.467-1.75,3.301
	c-4,7.699-6.949,13.533-8.85,17.5c-0.267,0.566-0.55,1.566-0.85,3c-0.167,0.866-0.801,1.916-1.9,3.149
	c-0.833,0.934-2.634,2.101-5.4,3.5c-2.633,1.334-4.5,2.733-5.6,4.2c-0.4,0.533-0.616,1.267-0.65,2.2c-0.066,1-0.216,1.7-0.449,2.1
	c-1.101,1.767-3.517,5.05-7.25,9.851c-2.301,3.366-4.15,5.883-5.551,7.55c-2.5,2.934-4.616,4.184-6.35,3.75c-0.033,0-0.066,0-0.1,0
	l-2.25-1.851c-0.801-1-1.617-2.383-2.45-4.149c-0.066-0.2-0.15-0.4-0.25-0.601c-1.7-4.267-2.967-7.366-3.8-9.3
	c0.6,0.7,1.066,1.2,1.399,1.5c1.767,1.566,3.634,2.233,5.601,2c1.6-0.2,3.366-1.017,5.3-2.45c0.267-0.199,0.55-0.399,0.85-0.6
	c-1.267,0.434-2.883,0.184-4.85-0.75C85.917,247.833,85.9,247.233,85.9,246.7z M90.95,48.25L91.1,49.3
	c-0.666,2.9-0.316,5.2,1.051,6.9l0.5,0.6c0.533,0.467,1.066,0.817,1.6,1.05c2.134,1.467,4.017,2.233,5.65,2.3
	c2.066,0.033,3.616-1.066,4.649-3.3c0.767,0.066,3,0.683,6.7,1.85c3.134,0.566,4.283-0.633,3.45-3.6l3.399-0.55
	c-1.233,5.767-1.916,8.833-2.05,9.2c-1.267,3.633-3.217,5.667-5.85,6.1c-0.566,0.1-1.533,0.017-2.9-0.25
	c-1.566-0.333-2.55-0.5-2.95-0.5c-0.3,0-0.816,0.133-1.55,0.4c-0.7,0.267-1.267,0.383-1.7,0.35c-1.466-0.133-2.716-0.617-3.75-1.45
	c-1.1-0.9-1.75-2.1-1.949-3.6c-0.567,0-1.101-0.05-1.601-0.15v1.15c-0.133,1.833-0.684,4.05-1.649,6.65c-1.167,3-2.417,4.9-3.75,5.7
	c-1.167,0.667-2.417,0.667-3.75,0c-1.534-0.967-2.817-1.617-3.851-1.95c-1-0.333-2.434-0.567-4.3-0.7
	c-2-0.133-3.417-0.317-4.25-0.55c-2.8-0.934-4.9-1.617-6.3-2.05c-2.534-0.833-4.75-1.333-6.65-1.5c1.034-0.3,2.567-0.483,4.6-0.55
	c2.5,0.566,5.4,0.967,8.7,1.2c3.233,0.233,6.133,0.25,8.7,0.05c2.033-0.167,3.417-0.434,4.15-0.8
	c0.833-0.433,1.883-1.517,3.149-3.25c1.301-1.767,1.917-3.783,1.851-6.05c-0.033-1-0.134-2-0.3-3c-0.434-2.733-0.65-4.483-0.65-5.25
	c0-2.033,0.483-3.85,1.45-5.45V48.25z M92.1,41.3c-0.033-1.566-0.033-3.15,0-4.75c-0.767,1.667-2.816,2.65-6.149,2.95
	c-3.334,0.3-5.316,1.117-5.95,2.45c-0.5,1.033,0.583,3.483,3.25,7.35c2.866,4.233,4.3,7.117,4.3,8.65c0.033,3.3-0.566,5.9-1.8,7.8
	c-1.066,1.667-2.667,2.85-4.8,3.55c2.133-1.167,3.55-3.033,4.25-5.6c0.366-1.333,0.483-3.117,0.35-5.35
	c-0.1-2.067-0.333-3.833-0.7-5.3c-0.366-1.633-1.5-3.6-3.399-5.9c-1.967-2.4-3.134-4.25-3.5-5.55c1.566-0.434,2.866-1.133,3.899-2.1
	c0.634-0.6,1.617-1.667,2.95-3.2c0.667-0.667,1.55-1.433,2.65-2.3c0.8-0.8,1.233-1.817,1.3-3.05c0.033-1.267-1.05-2.983-3.25-5.15
	c-2.5-2.267-4.083-3.816-4.75-4.65l6.25,1.7c1.333,1.4,3.283,3.417,5.85,6.05c1.801,2.434,2.301,5.133,1.5,8.1
	c-0.166,0.6-0.449,1.2-0.85,1.8c-0.5,0.7-0.833,1.233-1,1.6L92.1,41.3z M99.55,83.35c1.634,1.233,1.566,2.4-0.2,3.5
	c-1.966,1.267-4,1.4-6.1,0.4c-0.134-0.7-0.184-1.317-0.15-1.85c1.767,0.533,3.483,0.267,5.15-0.8
	C98.917,84.167,99.35,83.75,99.55,83.35z M84.55,93.7c0.066,0.033,0.134,0.066,0.2,0.1c0.333,0.1,0.7,0.217,1.1,0.35
	c3.634,1.1,6.117,0.184,7.45-2.75c0.233-0.5,0.367-0.967,0.4-1.4c0.3,0.167,0.533,0.417,0.7,0.75c0.5,0.8,0.5,1.767,0,2.9
	c-1.301,2.934-3.767,3.867-7.4,2.8c-1.634-0.467-2.667-1.034-3.1-1.7c-0.267-0.4-0.4-0.917-0.4-1.55
	C83.8,93.367,84.15,93.533,84.55,93.7z M45.45,27.6c-0.667-1.1-1.733-1.917-3.2-2.45h2.85c2.333,0,3.9,0.833,4.7,2.5
	c0.767,1.567,0.75,3.5-0.05,5.8c-0.233,0.7-0.8,1.433-1.7,2.2c-0.966,0.8-1.55,1.434-1.75,1.9c-0.267,0.633-0.35,1.65-0.25,3.05
	c0.1,1.967,0.15,3.033,0.15,3.2c-0.067,2.1-0.2,3.75-0.4,4.95c-0.333,1.833-0.9,3.383-1.7,4.65c-0.967,1.533-1.533,2.333-1.7,2.4
	c-0.733-0.066-1.717-0.1-2.95-0.1c-1.667,0-3.75-0.333-6.25-1c-2.8-0.8-4.85-1.367-6.15-1.7c5.967-0.567,9.5-1.55,10.6-2.95
	c0.6-0.8,1.1-2.167,1.5-4.1c0.267-1.233,0.733-3.7,1.4-7.4c0.067-0.333,0.117-0.966,0.15-1.9c0-0.667,0.15-1.25,0.45-1.75
	c0.233-0.4,1-0.867,2.3-1.4c1.233-0.533,1.983-1.15,2.25-1.85C46.267,30.183,46.183,28.833,45.45,27.6z M33.2,94.15l-0.55-7.9
	c0.167,4.567-0.667,8.75-2.5,12.55c-1.967,4.167-4.867,7.25-8.7,9.25c-0.9,0.467-2.05,0.684-3.45,0.65c-1.7,0-2.867,0.066-3.5,0.2
	c-0.567,0.133-1.65,0.633-3.25,1.5c-1.267,0.7-2.4,1-3.4,0.9c6.767,2.133,12.65,1.534,17.65-1.8
	C30.533,106.167,33.1,101.05,33.2,94.15z M68,63.55c0.467,0.233,1,0.367,1.6,0.4c0.667-0.034,1.4-0.184,2.2-0.45
	c0.267-0.1,0.517-0.183,0.75-0.25l0.55-0.3c1.634-0.867,2.4-1.967,2.301-3.3c0.433,0.367,0.75,0.9,0.949,1.6
	c0.567,1.967-0.566,3.467-3.399,4.5c-1.633,0.567-2.983,0.55-4.05-0.05c-0.9-0.534-1.45-1.383-1.65-2.55c0-0.033,0-0.066,0-0.1
	c0.167,0.133,0.35,0.267,0.55,0.4C67.867,63.483,67.933,63.517,68,63.55z M87,104.15c0.167-0.066,0.917-0.367,2.25-0.9l-2.4,1.2
	L87,104.15z M65.05,118.85c-0.233-1.7-0.233-2.9,0-3.6c1.233-3.9,3.55-6.433,6.95-7.6c1.967-0.667,5.45-1,10.45-1l4.399-2.2
	c-0.133,0.267-0.433,1.083-0.899,2.45c-0.367,1.067-0.816,1.883-1.351,2.45c-0.699,0.7-1.366,1.15-2,1.35
	c-0.866,0.167-1.666,0.316-2.399,0.45c-2.4,0.333-4.134,0.65-5.2,0.95c-1.833,0.533-3.133,1.533-3.9,3
	c-0.533,1.033-0.733,3.233-0.6,6.6c0.1,3.133-0.283,5.283-1.15,6.45c-2.033,2.7-6.883,2.833-14.55,0.4
	c5.667-1.167,9.05-3.2,10.15-6.1C65.217,121.75,65.25,120.55,65.05,118.85z M53.6,142.4l1.25-0.051c0.133,0,0.283-0.017,0.45-0.05
	c1.633-0.267,2.534-0.5,2.7-0.7c0.1-0.1,0.317-1,0.65-2.699c0.133-0.601,0.233-1.117,0.3-1.551v-0.199
	c0.066-0.301,0.1-0.483,0.1-0.551c0.567,0.334,0.934,0.784,1.1,1.351c0.1,0.5-0.017,1.566-0.35,3.2
	c-0.367,1.733-0.583,2.633-0.65,2.699c-0.2,0.233-1.1,0.467-2.7,0.7c-1.667,0.267-2.983,0.084-3.95-0.55
	c-0.867-0.533-1.417-1.384-1.65-2.55C51.517,142.05,52.433,142.366,53.6,142.4z M36.7,137.2c0.267,3.267-0.667,5.934-2.8,8
	c0.167-0.533,0.65-1.816,1.45-3.851C36.017,139.616,36.467,138.233,36.7,137.2z M47.05,183.25c0.3,0.233,0.55,0.6,0.75,1.1
	c0.5,1.233,0.7,3.051,0.6,5.45c-2.566,0.334-4.5-0.05-5.8-1.149c-0.733-0.634-1.167-1.434-1.3-2.4c0.267,0.233,0.583,0.45,0.95,0.65
	c1.267,0.666,2.933,0.866,5,0.6C47.35,185.767,47.283,184.35,47.05,183.25z M81.95,162.925c0.25-0.217,0.5-0.458,0.75-0.725
	c0.066,1.533,0.116,2.684,0.149,3.45c0.034,1.333-0.133,2.199-0.5,2.6c-0.466,0.533-0.916,0.7-1.35,0.5
	c-0.667-0.267-1.134-0.366-1.4-0.3c-2.866,0.7-5.783,1.05-8.75,1.05c-3.633,0-6.483-0.566-8.55-1.7
	c0.867-0.467,1.784-0.883,2.75-1.25c1.133,0.2,2.35,0.3,3.65,0.3l3.9-0.25c2.833-0.366,5.216-1.05,7.15-2.05l1.5-1L81.95,162.925z
	 M86.45,157.15c1.1-1.467,2.233-2.467,3.399-3c0.733-0.334,1.983-0.517,3.75-0.551c1.601-0.066,2.801-0.399,3.601-1
	c1.8-1.366,3.116-4.8,3.95-10.3c0.433-2.934,0.8-6.717,1.1-11.35l-1.7,5.1c-1.033,2.834-1.833,4.9-2.399,6.2
	c0.233-1.134,0.466-2.816,0.699-5.05l4-9.65c0.567,6,0.95,10.783,1.15,14.351c0.366,6.566-0.167,11.383-1.6,14.449
	c-0.934,2-2.134,3.567-3.601,4.7c-1.733,1.3-3.399,1.566-5,0.8c-0.6-0.267-1.25-1-1.95-2.199c-0.633-1.067-1.5-1.767-2.6-2.101
	C88.184,157.217,87.25,157.083,86.45,157.15z M90.4,102.65l-1.15,0.6l-0.65-0.3C89.2,102.75,89.8,102.65,90.4,102.65z M127.2,142.85
	c-1.767,0.034-3.134-0.149-4.101-0.55c-0.8-0.333-1.916-1.083-3.35-2.25c-3.667-2.899-6.05-4.85-7.15-5.85
	c-3.3-2.934-4.883-4.917-4.75-5.95c1.9,0.9,6.25,3.3,13.051,7.2c6.333,2.833,10.683,2.666,13.05-0.5l6.25-2.85
	c-1.7,3.4-3.384,5.9-5.05,7.5C132.917,141.733,130.267,142.816,127.2,142.85z M133.25,120c0.7,0.433,1.083,1.15,1.15,2.15
	c0.133,2.1-1.15,3.333-3.851,3.7c-1.7,0.233-3.116-0.067-4.25-0.9c-0.934-0.7-1.467-1.6-1.6-2.7c0.133,0.167,0.3,0.317,0.5,0.45
	c0.166,0.133,0.35,0.25,0.55,0.35c1.033,0.567,2.267,0.75,3.7,0.55C132.083,123.233,133.35,122.033,133.25,120z M80.2,153.85
	c0.267-2.233,0.899-3.633,1.899-4.199c-0.199,0.566-0.5,1.183-0.899,1.85C80.833,152.033,80.5,152.816,80.2,153.85z M120.45,150.15
	c0.036-0.183,0.069-0.35,0.1-0.5c0.434,0.133,0.75,0.433,0.95,0.899c0.3,0.8,0.2,1.783-0.3,2.95c-1.334,3-3.5,4.366-6.5,4.1
	c-1.967-0.199-3.367-0.733-4.2-1.6c-0.533-0.533-0.85-1.233-0.95-2.1c0.634,0.6,1.584,1.017,2.851,1.25
	c0.366,0.066,0.75,0.116,1.149,0.149h0.05c0.034,0,0.067,0,0.101,0l0.75,0.05c2.233-0.033,3.95-1.1,5.149-3.199
	c0.434-0.667,0.717-1.317,0.851-1.95V150.15z M119,166.35c0.066,0.034,0.15,0.084,0.25,0.15c1.6,1.1,3.033,0.934,4.3-0.5
	c0.834-0.934,1.3-1.934,1.4-3l1.1,0.8c0.267,1.667-0.184,3.15-1.35,4.45c-1.267,1.434-2.717,1.616-4.351,0.55
	C119.384,168.167,118.934,167.35,119,166.35z M97.55,207.4c2.967-0.267,5.117-2.217,6.45-5.851l0.15-0.399
	c0.333-0.934,0.5-1.767,0.5-2.5c0.3,0.199,0.55,0.5,0.75,0.899c0.466,0.967,0.416,2.25-0.15,3.851c-1.366,4.033-3.7,6.116-7,6.25
	c-3.467,0.166-5.3-0.9-5.5-3.2c0.634,0.5,1.55,0.816,2.75,0.95H97.55z"/>
<path style="fill-rule:evenodd;clip-rule:evenodd;fill:#76654E;" d="M0.7,92.25l0.2-2.65c0.067-3.9,0.417-7.267,1.05-10.1
	c0-0.033,0.017-0.083,0.05-0.15l0.8-2.8c0.1-0.3,0.2-0.583,0.3-0.85c1.467-3.567,4.1-6.817,7.9-9.75
	c1.833-0.4,3.917-0.417,6.25-0.05c2.133,0.333,4.05,0.883,5.75,1.65c2,0.9,3.117,2.55,3.35,4.95c0.333,3.6,0.583,5.6,0.75,6L27,78.3
	c-1.5-2.4-2.933-4.05-4.3-4.95c-1.667-1.133-3.7-1.55-6.1-1.25c-4.7,0.566-7.6,1.733-8.7,3.5c-0.6,1-0.733,2.033-0.4,3.1
	c0.533,1.733,0.8,2.733,0.8,3c0,2.333,0.017,4.05,0.05,5.15c0.033,1.933,0.333,3.733,0.9,5.4c-0.267-0.033-0.983,0.017-2.15,0.15
	c-1.033,0.1-1.75,0.1-2.15,0c-0.067,3.033-0.15,4.783-0.25,5.25c-0.434,2.467-1.467,3.367-3.1,2.7
	c-0.467-0.233-0.917-0.934-1.35-2.1C0.483,95.683,0.633,93.683,0.7,92.25z M60.6,205.05l0.25,0.75l0.3,0.851L61,206.8l0.2-0.05
	l0.85,2.35c-0.9-0.033-1.917,0.2-3.05,0.7c-0.967,0.467-1.85,1.033-2.65,1.7c-0.5,0.467-1.2,1.767-2.1,3.9
	c-0.8,1.866-1.6,2.966-2.4,3.3c-0.3,0.1-1.083-0.033-2.35-0.4c-1.5-0.467-2.367-0.717-2.6-0.75c-1.233-0.1-2.7,0.05-4.4,0.45
	c-0.3,0.066-1.683,0.45-4.15,1.15c0.267-2.967,1.267-4.801,3-5.5c0.533-0.233,1.5-0.551,2.9-0.95c1.367-0.434,2.6-1.017,3.7-1.75
	c0.7-0.434,1.466-1.316,2.3-2.65c0.867-1.333,1.6-2.217,2.2-2.649c1-0.7,2.25-1.084,3.75-1.15c0.9-0.033,2.3-0.017,4.2,0.05
	L60.6,205.05z M92.65,56.8L92.6,56.65L92.15,56.2c-1.367-1.7-1.717-4-1.051-6.9c0.7-3.1,2.233-5.716,4.601-7.85
	c2.566-2.367,5.316-3.284,8.25-2.75l8.5,1.7c-3.634,0.033-6.066,0.35-7.3,0.95c-1.934,0.9-2.9,2.9-2.9,6
	c0.134,2.633,0.167,4.517,0.1,5.65c-0.066,1.8-0.5,3.6-1.3,5.4c-2.8,0.467-5.066,0.283-6.8-0.55
	C93.717,57.617,93.184,57.267,92.65,56.8z M78.5,22.15c-0.934-0.1-2.45-0.316-4.55-0.65c-2.1-0.333-3.8-0.383-5.1-0.15
	c-2.767,0.533-4.75,2.05-5.95,4.55c-1.1,3.333-2.133,5.9-3.1,7.7c-2.2-1.467-2.933-3.283-2.2-5.45c0.7-1.9,2.367-3.65,5-5.25
	s5.383-2.533,8.25-2.8C74.05,19.833,76.6,20.517,78.5,22.15z M68.4,10.85c0.033-1.267,0.783-2.483,2.25-3.65
	c0.033-0.034,1.333-0.85,3.9-2.45L81.9,7c-1.7-0.167-3.934,0.533-6.7,2.1C72.533,10.6,70.267,11.183,68.4,10.85z M106.15,85
	c0.833-1.033,2.399-2.317,4.699-3.85c2.2-1.433,3.717-2.75,4.551-3.95c1.3-1.867,2.916-3.4,4.85-4.6c3-1.9,4.934-3.2,5.8-3.9
	l5.101,2.85c-3.567-0.466-5.5,1.483-5.801,5.85c0.334,5.3,0.334,8.75,0,10.35c-0.433,2.067-1.433,3.6-3,4.6
	c-0.033,0-1.816,0.8-5.35,2.4c-3.833,1.733-5.95,2.717-6.35,2.95c-1.9,1.066-3.534,2.483-4.9,4.25c-0.134-1.667-0.533-4.6-1.2-8.8
	C104.217,89.45,104.75,86.733,106.15,85z M39.5,73.55c-0.833-0.833-0.967-1.566-0.4-2.2c0.633-0.7,2.066-0.833,4.3-0.4l2.8,1.15
	c-1,1.633-2.217,2.5-3.65,2.6C41.35,74.8,40.333,74.417,39.5,73.55z M71.3,43.9c-4.066-0.5-7.383,0.3-9.95,2.4
	c-0.467,0.367-0.9,1.017-1.3,1.95c-0.433,0.933-0.833,1.567-1.2,1.9c-0.267,0.267-0.9,0.6-1.9,1c-0.9,0.367-1.467,0.7-1.7,1
	C54.417,53.317,54,55.033,54,57.3c0.133,2.6,0.15,4.467,0.05,5.6c-1.7-3.667-2.45-6.9-2.25-9.7c0.233-3.167,1.633-5.967,4.2-8.4
	c2.533-2.4,5.167-3.6,7.9-3.6c0.434,0,1.817,0.083,4.15,0.25c1.934,0.167,3.717,0.183,5.351,0.05l7.899,5.7
	C77.667,45.4,74.333,44.3,71.3,43.9z M89.25,103.25c-1.333,0.533-2.083,0.833-2.25,0.9c-1.434,0.533-2.783,0.8-4.05,0.8
	c-0.733,0-2.4-0.15-5-0.45c-2.434-0.433-4.384-0.783-5.85-1.05c-2.667-0.467-4.517-0.55-5.55-0.25c-0.633,0.167-1.45,0.65-2.45,1.45
	c-1,0.733-1.867,1.2-2.6,1.4c-0.5,0.133-1.483,0.1-2.95-0.1c-1.4-0.2-2.35-0.184-2.85,0.05c-1.667,0.833-2.583,3.15-2.75,6.95
	c0.1,4.267,0.083,7.066-0.05,8.4c-0.8-1.367-1.517-2.9-2.15-4.6c-0.767-2.067-1.15-3.783-1.15-5.15c0.033-1.167,0.367-2.95,1-5.35
	c0.7-2.6,1.35-4.217,1.95-4.85c0.767-0.767,2.383-1.4,4.85-1.9c1.367-0.267,3.184-0.533,5.45-0.8c3.2-0.534,6.517-0.667,9.95-0.4
	c3.7,0.267,6.917,0.967,9.65,2.1L89.25,103.25z M52.9,81.7c1.934-1.733,4.5-2.7,7.7-2.9c1.867-0.133,4.783-0.1,8.75,0.1v1.7
	c1.133,2.2,1.883,3.867,2.25,5c0.667,2.1,0.117,3.467-1.65,4.1c-0.6,0.233-1.417,0.117-2.45-0.35c-1.433-0.633-2.217-0.967-2.35-1
	c-1.133-0.2-2.55-0.317-4.25-0.35c-2.667-0.033-4.1-0.05-4.3-0.05C49.867,87.65,48.633,85.567,52.9,81.7z M73.4,143.4
	c0.399-0.2,1.433-0.267,3.1-0.2c1.4,0.033,2.417-0.3,3.05-1c0.367-0.4,0.55-1.45,0.55-3.15c-0.033-1.967,0-3.1,0.101-3.399
	c1.033-3.934,3.883-7.167,8.55-9.7c2.5-1.367,6.634-2.9,12.4-4.6l3.399,2.85c-2.333,0.3-3.967,0.8-4.899,1.5
	c-1.167,1.233-2.334,2.417-3.5,3.55c-0.101,0.1-0.483,0.6-1.15,1.5c-0.134,0.2-0.733,0.467-1.8,0.8
	c-0.434,0.133-1.217,0.1-2.351-0.1c-1.066-0.167-1.816-0.15-2.25,0.05c-2.366,1.1-3.517,3.45-3.449,7.05
	c0.033,1.101,0.483,3.867,1.35,8.3c-1.2,0.5-2.816,0.851-4.85,1.051c-2.334,0.133-4.084,0.267-5.25,0.399
	c-4.167,0.5-7.083,2.167-8.75,5c1.067-3.633,1.633-5.533,1.7-5.7C70.217,145.634,71.567,144.233,73.4,143.4z M52.45,163.8l3.95,3.95
	c-5.2,1.6-9.283,2.684-12.25,3.25c-5.433,1.066-9.267-0.017-11.5-3.25c3-1.733,6.15-2.866,9.45-3.4
	C44.3,163.983,47.75,163.8,52.45,163.8z M71.2,172.8c0.966-0.066,2.649-0.05,5.05,0.05l6.2,0.601c-2.533,0.967-4.05,2.1-4.55,3.399
	c-0.233,0.7-0.25,2.551-0.051,5.551c-5.1,0.333-7.667,0.5-7.7,0.5c-2.033,0.399-4.167,1.6-6.4,3.6c-0.333,0.3-1.067,0.783-2.2,1.45
	c-0.633,0.366-1.216,1.033-1.75,2c-0.4,0.666-0.7,1.717-0.9,3.149c-0.267,1.667-0.483,2.75-0.65,3.25
	c-1.2-2.899-1.483-5.716-0.85-8.449c0.6-2.567,1.967-4.934,4.1-7.101c0.467-0.467,1.383-1.55,2.75-3.25
	c1.133-1.399,2.067-2.416,2.8-3.05C68.25,173.5,69.633,172.934,71.2,172.8z M137.95,101.55l1.1,2.8c-5.066,1.267-8.133,2.1-9.2,2.5
	c-3.366,1.167-6.1,2.783-8.199,4.85c-0.434,0.433-1.417,1.583-2.95,3.45c-1.2,1.434-2.3,2.517-3.3,3.25
	c-1.934,1.067-3.384,1.883-4.351,2.45c-1.7,1.066-2.717,2.233-3.05,3.5c0.2-2.434,0.934-4.617,2.2-6.55
	c0.8-1.2,2.35-3.233,4.649-6.1c2.2-2.867,3.834-4.75,4.9-5.65c1.934-1.533,4.884-2.466,8.85-2.8
	C133.2,102.85,136.316,102.283,137.95,101.55z M107.35,170.5c1.267-1.167,2.267-2.7,3-4.6c0.7-1.834,1.034-3.667,1-5.5l2.25-0.551
	c0,0.867,0.317,3.134,0.95,6.801c0.533,3,0.601,5.267,0.2,6.8c-0.134,0.566-0.517,1.383-1.15,2.45c-0.6,1.033-0.983,1.899-1.149,2.6
	c-0.134,0.634-0.167,1.566-0.101,2.8c0.034,1.434,0.034,2.367,0,2.8c-2.666-0.199-4.616-0.233-5.85-0.1
	c-2.2,0.233-3.083,1.417-2.65,3.55c-2.466-1.633-4.233-3.616-5.3-5.95c-1.267-2.767-0.95-5.1,0.95-7
	c0.667-0.666,1.95-1.35,3.85-2.05C105.316,171.85,106.65,171.167,107.35,170.5z M118.2,191.95c-0.134-2.9,0.233-4.95,1.1-6.15
	c0.434-0.6,2.066-1.934,4.9-4c2.467-1.8,4.066-2.85,4.8-3.149c2-0.867,3.85-0.717,5.55,0.449l0.55,1.7
	c-1.333,1.8-2.416,3.217-3.25,4.25c-1.466,1.834-2.649,3.066-3.55,3.7c-0.967,0.667-2.566,1.217-4.8,1.65
	C121.033,190.866,119.267,191.384,118.2,191.95z M106.4,216.05c-1.101,0.566-2.667,0.884-4.7,0.95c-3.634,0.167-6.7,0.917-9.2,2.25
	c-2.5,1.366-4.9,3.566-7.2,6.6c-0.399-6.199,1.65-10.433,6.15-12.699c3.133-1.567,8.25-2.351,15.35-2.351l3.4,2.8
	C107.733,215.233,106.467,216.05,106.4,216.05z"/>
<path style="fill-rule:evenodd;clip-rule:evenodd;fill:#4E4539;" d="M61.15,206.65l1.25-1.051l0.7-0.6l0.15-0.1
	c1.4-1.101,2.767-1.884,4.1-2.351c1.433-0.533,3.1-0.8,5-0.8c1.966-0.033,3.4-0.1,4.3-0.2c1.566-0.166,2.833-0.5,3.8-1
	c2.333-1.166,3.383-3.416,3.149-6.75l1.65-0.3l1.15-0.25c0.333,6.667-1.934,10.717-6.801,12.15c-1.733,0.5-4.183,0.783-7.35,0.85
	c-3.6,0.033-6.3,0.1-8.1,0.2l-1.6,0.2l-1.35,0.1L61,206.8L61.15,206.65z M63.9,70.85l-1.25-0.35c1.067-0.1,4.25-0.167,9.55-0.2
	c3.866,0,6.783-0.333,8.75-1c2.133-0.7,3.733-1.883,4.8-3.55c1.233-1.9,1.833-4.5,1.8-7.8c0-1.534-1.434-4.417-4.3-8.65
	c-2.667-3.867-3.75-6.316-3.25-7.35c0.634-1.333,2.616-2.15,5.95-2.45c3.333-0.3,5.383-1.283,6.149-2.95
	c-0.033,1.6-0.033,3.184,0,4.75c-0.399,0.567-0.649,0.95-0.75,1.15c-0.166,0.267-0.3,0.95-0.399,2.05c-0.134,1-0.134,2.25,0,3.75
	v0.05c-0.967,1.6-1.45,3.417-1.45,5.45c0,0.767,0.217,2.517,0.65,5.25c0.166,1,0.267,2,0.3,3c0.066,2.267-0.55,4.283-1.851,6.05
	c-1.267,1.733-2.316,2.817-3.149,3.25c-0.733,0.367-2.117,0.633-4.15,0.8c-2.566,0.2-5.467,0.183-8.7-0.05
	C69.3,71.817,66.4,71.417,63.9,70.85z M91.1,48.25c-0.133-1-0.133-2.25,0-3.75c0.134-1.167,0.25-1.85,0.351-2.05
	c0.1-0.2,0.399-0.583,0.899-1.15v0.8L91.1,48.25z M33.2,94.15c-0.1,6.9-2.667,12.017-7.7,15.35c-5,3.333-10.883,3.933-17.65,1.8
	c1,0.1,2.133-0.2,3.4-0.9c1.6-0.867,2.683-1.367,3.25-1.5c0.633-0.133,1.8-0.2,3.5-0.2c1.4,0.033,2.55-0.184,3.45-0.65
	c3.833-2,6.733-5.083,8.7-9.25c1.833-3.8,2.667-7.983,2.5-12.55L33.2,94.15z M34.25,128.8l-0.5-1.25l1.15-2.8
	c2.233,3.6,3.617,6.133,4.15,7.6c1.1,2.867,1.184,5.617,0.25,8.25c-0.533,1.5-1.2,2.7-2,3.601c-1.066,1.166-2.25,1.7-3.55,1.6
	l-0.35-0.05l0.5-0.55c2.133-2.066,3.067-4.733,2.8-8C36.467,134.967,35.65,132.167,34.25,128.8z M7.05,208.65
	c2.233-1.634,5.267-3.267,9.1-4.9c2.833-1.833,4.55-5.15,5.15-9.95c0.3-2.233,0.417-5.3,0.35-9.2c0-0.433,0-0.883,0-1.35v-2.65
	c0.033-1.699,0.1-3.033,0.2-4c0.033-0.133,0.05-0.25,0.05-0.35s0.017-0.2,0.05-0.3L22,175.5c0.067-0.566,0.15-1.066,0.25-1.5
	c0,0.066,0,0.134,0,0.2c0,0.7,0.05,1.166,0.15,1.399c0.333,0.867,0.7,1.417,1.1,1.65c0.733,0.333,1.3,0.717,1.7,1.15
	c1.033,1.166,1.7,2.066,2,2.699c0.433,0.834,0.733,2.051,0.9,3.65c0.267,2.333,0.383,4.7,0.35,7.1c-0.034,3.167-0.367,5.483-1,6.95
	c-1.767,4.101-4.6,6.884-8.5,8.351C16.15,208.217,12.183,208.717,7.05,208.65z M80.2,153.85c0.3-1.033,0.633-1.816,1-2.35
	c0.399-0.667,0.7-1.283,0.899-1.85c0.101-0.334,0.184-0.5,0.25-0.5H82.4c0.899,0,1.633-0.067,2.199-0.2
	c0.301,0,0.684,0.017,1.15,0.05c0.366-0.033,0.767-0.017,1.2,0.05c0.267,0.033,0.583,0.066,0.95,0.101l1.25,0.1
	c0.533,0.033,1.1,0,1.699-0.1l0.101-0.051c1.866-0.466,3.399-1.333,4.6-2.6c0.967-1,1.834-2.417,2.601-4.25
	c0.566-1.3,1.366-3.366,2.399-6.2l1.7-5.1c-0.3,4.633-0.667,8.416-1.1,11.35c-0.834,5.5-2.15,8.934-3.95,10.3
	c-0.8,0.601-2,0.934-3.601,1c-1.767,0.034-3.017,0.217-3.75,0.551c-1.166,0.533-2.3,1.533-3.399,3c-1.566,2.3-2.816,3.983-3.75,5.05
	v-0.05c-0.244,0.278-0.494,0.536-0.75,0.774l-0.7,0.625l-1.5,1c-1.934,1-4.316,1.684-7.15,2.05l-3.9,0.25
	c-1.267-0.033-2.45-0.133-3.55-0.3c-0.033,0-0.066,0-0.1,0l-1.3-0.3c0.533-0.267,3.1-1.134,7.7-2.6
	c2.866-0.934,4.95-2.051,6.25-3.351c0.1-0.166,0.217-0.316,0.35-0.45c0.5-0.6,0.934-1.517,1.3-2.75c0.167-0.6,0.417-1.533,0.75-2.8
	c0.034-0.133,0.067-0.267,0.101-0.399V153.85z M50.15,235.4l-0.95-0.65l-4.525-2.85c-0.4-0.267-0.775-0.517-1.125-0.75
	c1.267,0,2.483-0.034,3.65-0.101c2,1.167,3.7,1,5.1-0.5c2-0.3,3.65-0.733,4.95-1.3c4.433-1.833,6.8-5.333,7.1-10.5
	c0.033,5.667-0.083,9.05-0.35,10.15c-0.833,3.066-3.167,5.1-7,6.1C54.933,235.533,52.65,235.667,50.15,235.4z"/>
<path style="fill-rule:evenodd;clip-rule:evenodd;fill:#888477;" d="M39.85,119.75c-1.8,0-3.15-0.533-4.05-1.6
	c-0.466-0.533-0.833-1.2-1.1-2c-0.333-1.1-0.184-2.05,0.45-2.85c0.733-0.933,1.967-1.466,3.7-1.6l4-0.55
	c2.133-0.1,3.15,0.75,3.05,2.55c0,0.2-0.017,0.417-0.05,0.65c0.066-0.633-0.017-1.217-0.25-1.75l-0.85,0.1
	c-3.433,0.433-5.833,1.1-7.2,2c-0.633,0.333-0.966,0.517-1,0.55c0.167,0.133,0.284,0.383,0.35,0.75c0.233,0.967,0.267,1.933,0.1,2.9
	C37.9,119.433,38.85,119.717,39.85,119.75z M46.6,229.05c-0.3-0.166-0.617-0.35-0.95-0.55c-0.267-0.167-0.5-0.333-0.7-0.5
	c-1.3-1.2-1.45-2.684-0.45-4.45c1.2-2,2.9-2.85,5.1-2.55l3.4,1.1c0.067,0.667,0.067,1.301,0,1.9c-0.1,0.866-0.317,1.684-0.65,2.45
	c0.233-0.601,0.417-1.267,0.55-2c-1.2,0.133-2.1,0.267-2.7,0.399c-0.833,0.134-1.367,0.233-1.6,0.301
	c-0.333,0.1-0.617,0.333-0.85,0.699C47.283,226.717,46.9,227.783,46.6,229.05z M84.85,241.85c0-0.1,0.017-0.183,0.051-0.25
	c0.466-1.399,1.733-1.85,3.8-1.35l0.399,0.3l-0.649,0.05c-1.5,0.167-2.684,0.517-3.55,1.051L84.85,241.85z M84.85,242.05
	c0.034,0.2,0.017,0.584-0.05,1.15c-0.029,0.233-0.046,0.441-0.05,0.625C84.752,243.062,84.785,242.47,84.85,242.05z M98.5,81.1
	c-2.5,0.7-4.684,1.55-6.55,2.55c-0.066-0.867,0.017-1.583,0.25-2.15c0.434-1.133,1.333-1.633,2.7-1.5l2.85,0.6
	C98.017,80.767,98.267,80.933,98.5,81.1z M92.5,85.15c1.8,0.733,3.616,0.6,5.45-0.4c1.866-1.033,2.116-2.183,0.75-3.45
	c0.833,0.7,1.116,1.383,0.85,2.05c-0.2,0.4-0.633,0.816-1.3,1.25c-1.667,1.066-3.384,1.333-5.15,0.8
	C92.9,85.333,92.7,85.25,92.5,85.15z M88.9,85.7C87.1,87.3,86,89.083,85.6,91.05c-0.166,0.967-0.517,1.85-1.05,2.65
	c-0.399-0.167-0.75-0.333-1.05-0.5c-0.333-0.233-0.583-0.467-0.75-0.7c-0.566-0.833-0.517-2.117,0.15-3.85
	c0.633-1.667,1.466-2.633,2.5-2.9C85.533,85.717,86.7,85.7,88.9,85.7z M73.1,62.95c1.167-0.667,1.884-1.55,2.15-2.65
	c0.065-0.359,0.099-0.684,0.1-0.975c0.003,0.091,0.02,0.2,0.051,0.325C75.5,60.983,74.733,62.083,73.1,62.95z M68,63.55
	c-0.067-0.033-0.133-0.066-0.2-0.1c-0.2-0.133-0.383-0.267-0.55-0.4c-0.6-0.566-0.967-1.283-1.1-2.15
	c-0.2-1.133-0.017-2.117,0.55-2.95c0.667-0.9,1.583-1.284,2.75-1.15H70c2.6-0.466,4.283,0.067,5.05,1.6
	c-0.3-0.467-0.733-0.85-1.3-1.15l-1.2,0.25l-2.2,0.7l-0.5,0.3C69.783,60.533,69.167,62.217,68,63.55z M45.35,115.975
	c-0.717,1.874-1.901,3.049-3.55,3.525c1.2-0.4,2.217-1.267,3.05-2.6C45.053,116.596,45.22,116.288,45.35,115.975z M59.05,136.55
	c-4.667,0-7.483,1.5-8.45,4.5c0.7,0.834,1.7,1.283,3,1.351c-1.167-0.034-2.083-0.351-2.75-0.95c-0.7-0.667-1.117-1.667-1.25-3
	c-0.2-2.101,0.55-3.434,2.25-4c0.433-0.167,2.066-0.351,4.9-0.55c1.3,0.267,2.05,0.866,2.25,1.8
	C59.033,135.9,59.05,136.184,59.05,136.55z M40.175,183.925c-0.113-0.886,0.012-1.911,0.375-3.075
	c0.867-0.199,1.784-0.216,2.75-0.05c1.467-0.6,2.534-0.283,3.2,0.95l-0.85,0.15c-1.8,0.333-2.833,0.533-3.1,0.6
	c-1.066,0.233-1.867,0.55-2.4,0.95C40.15,183.609,40.158,183.769,40.175,183.925z M125.75,123.05c-0.2-0.1-0.384-0.216-0.55-0.35
	c-0.2-0.133-0.367-0.284-0.5-0.45c-0.667-0.667-1.066-1.467-1.2-2.4c-0.134-1.167,0.167-2.067,0.9-2.7
	c0.8-0.7,1.916-0.816,3.35-0.35c-0.7-0.2-1.267-0.283-1.7-0.25c-0.8,0.4-1.366,0.917-1.7,1.55c-0.333,0.633-0.517,1.55-0.55,2.75
	c0.2,0.5,0.5,0.95,0.9,1.35C125,122.533,125.35,122.817,125.75,123.05z M120.55,149.65c-0.03,0.15-0.063,0.317-0.1,0.5
	c0.064-0.386,0.082-0.77,0.05-1.15c-0.9-0.1-1.783-0.15-2.65-0.15c-2.733,0-4.333,0.184-4.8,0.551
	c-0.666,0.466-0.866,1.866-0.6,4.199c0.066,0.601,0.05,1.117-0.05,1.551c-1.267-0.233-2.217-0.65-2.851-1.25
	c-0.066-0.067-0.116-0.117-0.149-0.15c-0.867-0.9-1.217-2.267-1.051-4.1c0.2-1.967,0.784-3.184,1.75-3.65
	c0.634-0.3,2.167-0.4,4.601-0.3l3.399,1.7c1.167-0.233,1.917,0.066,2.25,0.899C120.517,148.7,120.583,149.15,120.55,149.65z
	 M119.6,152.15c-1.199,2.1-2.916,3.166-5.149,3.199c1.6-0.066,3.033-0.783,4.3-2.149C119.083,152.833,119.366,152.483,119.6,152.15z
	 M104.65,198.65c0,0.733-0.167,1.566-0.5,2.5c0.233-0.733,0.366-1.467,0.399-2.2c-3.566,3.333-7.5,5.566-11.8,6.7
	c-0.167,0.033-0.333,0.066-0.5,0.1c0.134,0.2,0.3,0.384,0.5,0.55c0.634,0.566,1.55,0.934,2.75,1.101
	c-1.2-0.134-2.116-0.45-2.75-0.95c-0.833-0.7-1.2-1.767-1.1-3.2c0.199-2.866,1.85-5.066,4.949-6.6l4.551-0.601
	c1.566-0.3,2.616,0.101,3.149,1.2C104.5,197.65,104.616,198.116,104.65,198.65z M104,201.55c-1.333,3.634-3.483,5.584-6.45,5.851
	c1.8-0.233,3.4-1.25,4.8-3.051C103.083,203.417,103.634,202.483,104,201.55z"/>
<path style="fill-rule:evenodd;clip-rule:evenodd;fill:#78746A;" d="M91.65,243.95c-0.034,1.467-0.601,2.45-1.7,2.95
	c-1.101,0.466-2.45,0.399-4.05-0.2c-0.367-0.134-0.733-0.283-1.101-0.45l-0.1-1.4v-0.1c0-0.167,0.017-0.45,0.05-0.85v-0.075
	c0.004-0.184,0.021-0.392,0.05-0.625c0.066-0.566,0.084-0.95,0.05-1.15L84.8,242l0.05-0.15l0.051-0.199
	c0.866-0.534,2.05-0.884,3.55-1.051l0.649-0.05l2.4,1.95C91.6,243.033,91.65,243.517,91.65,243.95z M98.5,81.1
	c0.066,0.066,0.134,0.133,0.2,0.2c1.366,1.267,1.116,2.417-0.75,3.45c-1.834,1-3.65,1.133-5.45,0.4L92.15,85
	c-0.101-0.5-0.167-0.95-0.2-1.35C93.816,82.65,96,81.8,98.5,81.1z M93.7,90c-0.033,0.433-0.167,0.9-0.4,1.4
	c-1.333,2.934-3.816,3.85-7.45,2.75c-0.399-0.133-0.767-0.25-1.1-0.35c-0.066-0.033-0.134-0.066-0.2-0.1
	c0.533-0.8,0.884-1.684,1.05-2.65c0.4-1.966,1.5-3.75,3.301-5.35l0.05-0.05c0.166,0.033,0.366,0.05,0.6,0.05h0.25l0.601,1.7
	c1.433-0.167,2.399,0.2,2.899,1.1C93.566,88.933,93.7,89.433,93.7,90z M75.05,58.4c0.134,0.267,0.233,0.567,0.3,0.9v0.025
	c-0.001,0.291-0.034,0.616-0.1,0.975c-0.267,1.1-0.983,1.983-2.15,2.65l-0.55,0.3c-0.233,0.067-0.483,0.15-0.75,0.25
	c-0.8,0.267-1.533,0.417-2.2,0.45c-0.6-0.034-1.133-0.167-1.6-0.4c1.167-1.333,1.783-3.017,1.85-5.05l0.5-0.3l2.2-0.7l1.2-0.25
	C74.316,57.55,74.75,57.933,75.05,58.4z M45.85,114.35c-0.067,0.433-0.2,0.883-0.4,1.35c-0.019,0.053-0.035,0.103-0.05,0.15
	l-0.05,0.125c-0.13,0.313-0.297,0.621-0.5,0.925c-0.833,1.333-1.85,2.2-3.05,2.6l-0.55,0.1c-0.133,0.033-0.267,0.05-0.4,0.05
	c-0.367,0.033-0.7,0.067-1,0.1c-1-0.033-1.95-0.317-2.85-0.85c0.167-0.967,0.133-1.933-0.1-2.9c-0.066-0.367-0.183-0.617-0.35-0.75
	c0.034-0.033,0.367-0.217,1-0.55c1.367-0.9,3.767-1.567,7.2-2l0.85-0.1C45.833,113.133,45.917,113.717,45.85,114.35z M59.05,136.55
	v0.05c0,0.067-0.033,0.25-0.1,0.551v0.199c-0.067,0.434-0.167,0.95-0.3,1.551c-0.333,1.699-0.55,2.6-0.65,2.699
	c-0.167,0.2-1.067,0.434-2.7,0.7c-0.167,0.033-0.316,0.05-0.45,0.05L53.6,142.4c-1.3-0.067-2.3-0.517-3-1.351
	C51.567,138.05,54.383,136.55,59.05,136.55z M46.5,181.75c0.233,0.434,0.417,0.934,0.55,1.5c0.233,1.1,0.3,2.517,0.2,4.25
	c-2.067,0.267-3.733,0.066-5-0.6c-0.367-0.2-0.683-0.417-0.95-0.65c-0.433-0.4-0.733-0.866-0.9-1.4
	c-0.092-0.245-0.159-0.503-0.2-0.774l-0.025-0.15c-0.017-0.156-0.025-0.315-0.025-0.475c0.533-0.4,1.333-0.717,2.4-0.95
	c0.267-0.066,1.3-0.267,3.1-0.6L46.5,181.75z M133.25,120c0.1,2.033-1.167,3.233-3.8,3.6c-1.434,0.2-2.667,0.017-3.7-0.55
	c-0.4-0.233-0.75-0.517-1.05-0.85c-0.4-0.4-0.7-0.85-0.9-1.35c0.033-1.2,0.217-2.117,0.55-2.75c0.334-0.633,0.9-1.15,1.7-1.55
	c0.434-0.033,1,0.05,1.7,0.25l1.1,0.6c2.767-0.433,4.233,0.4,4.4,2.5C133.25,119.933,133.25,119.967,133.25,120z M112.4,155.15
	c0.1-0.434,0.116-0.95,0.05-1.551c-0.267-2.333-0.066-3.733,0.6-4.199c0.467-0.367,2.066-0.551,4.8-0.551
	c0.867,0,1.75,0.051,2.65,0.15c0.032,0.381,0.015,0.765-0.05,1.15v0.05c-0.134,0.633-0.417,1.283-0.851,1.95
	c-0.233,0.333-0.517,0.683-0.85,1.05c-1.267,1.366-2.7,2.083-4.3,2.149l-0.75-0.05c-0.033,0-0.066,0-0.101,0h-0.05
	C113.15,155.267,112.767,155.217,112.4,155.15z M119,166.35c-1.267-1-1.434-2.383-0.5-4.149c0.967-1.867,2.35-2.65,4.15-2.351
	l2.25,1.7c0.066,0.5,0.083,0.983,0.05,1.45c-0.101,1.066-0.566,2.066-1.4,3c-1.267,1.434-2.7,1.6-4.3,0.5
	C119.15,166.434,119.066,166.384,119,166.35z M97.55,207.4H95.5c-1.2-0.167-2.116-0.534-2.75-1.101c-0.2-0.166-0.366-0.35-0.5-0.55
	c0.167-0.033,0.333-0.066,0.5-0.1c4.3-1.134,8.233-3.367,11.8-6.7c-0.033,0.733-0.166,1.467-0.399,2.2L104,201.55
	c-0.366,0.934-0.917,1.867-1.65,2.8C100.95,206.15,99.35,207.167,97.55,207.4z M52.35,226.45c-0.367,0.833-0.85,1.533-1.45,2.1
	c-0.066,0.066-0.133,0.134-0.2,0.2c-1.167,0.967-2.534,1.066-4.1,0.3c0.3-1.267,0.683-2.333,1.15-3.2
	c0.233-0.366,0.517-0.6,0.85-0.699c0.233-0.067,0.767-0.167,1.6-0.301c0.6-0.133,1.5-0.267,2.7-0.399
	C52.767,225.184,52.583,225.85,52.35,226.45z"/>
</svg>
