<?xml version="1.0" encoding="iso-8859-1"?>
<!-- Generator: Adobe Illustrator 15.1.0, SVG Export Plug-In . SVG Version: 6.00 Build 0)  -->
<!DOCTYPE svg PUBLIC "-//W3C//DTD SVG 1.1//EN" "http://www.w3.org/Graphics/SVG/1.1/DTD/svg11.dtd">
<svg version="1.1" id="FlashAICB" xmlns="http://www.w3.org/2000/svg" xmlns:xlink="http://www.w3.org/1999/xlink" x="0px" y="0px"
	 width="569.4px" height="647.7px" viewBox="0 0 569.4 647.7" style="enable-background:new 0 0 569.4 647.7;" xml:space="preserve"
	>
<path style="fill-rule:evenodd;clip-rule:evenodd;fill:#524937;" d="M507.05,54.85c-0.033-0.267-0.066-0.533-0.1-0.8
	c-0.04-0.395-0.073-0.778-0.101-1.15L507.05,54.85z M419.45,101.25V99c-1.634,13.567-3,24.25-4.101,32.05
	c-0.966,6.633-3.066,13.233-6.3,19.8c-1.633,3.3-3.166,5.933-4.6,7.9l-12.3,20.9l-2.851,3.15c-2.333,2.333-4.55,4.167-6.649,5.5
	c-2.067,1.333-6.551,3.1-13.45,5.3c-3.467,1.066-6.717,2.017-9.75,2.85l-3.15,5.95v18.15l1.8-11.8l2,39.95
	c0.4,6.066,0.5,11.367,0.301,15.9c-0.2,4.533,0.033,11.65,0.699,21.35c0.367,4.833,0.733,9.216,1.101,13.15l1.6,11.6
	c1.066,8.767,1.601,15.8,1.601,21.1c0,5.7-0.25,9.417-0.75,11.15c-0.434,1.434-1.7,4.233-3.801,8.399
	c-1.699,3.801-2.6,10.167-2.699,19.101c-0.034,4.467,0.1,8.55,0.399,12.25c0.601-3.934,0.9-7.267,0.9-10
	c0-2.101,0.916-4.851,2.75-8.25c1.8-3.4,2.7-3.983,2.7-1.75c0,3.033,0.316,11.666,0.949,25.899l-2.05,8.75
	c-1.666,6.5-3.267,11.45-4.8,14.851c-1.5,3.434-2.85,13.316-4.05,29.649c-0.634,8.167-1.101,16-1.4,23.5l-0.45,19.95l-1.3,18
	c-0.833,12.5-1.149,19.983-0.95,22.45c0.301,3.934,1.051-3.333,2.25-21.8c0-1.134,0.384-5.867,1.15-14.2l1.15-12.15l1.35,13.2
	l0.7,13.601c0.434,10.767,0.649,20.3,0.649,28.6c0,7.4-0.616,13.033-1.85,16.9c-0.9,2.767-1.15,5-0.75,6.699
	c0.6,2.634,0.917,6.684,0.95,12.15c0,2.733-0.05,5.2-0.15,7.4l-4.1-15.45l-0.45,20.45l2.75,13.199l6.35,13.15l-2.3-0.45l0.45,5
	l3.65,13.15l-0.4,2.45c-0.366,1.6-0.833,2.3-1.4,2.1c-0.666-0.2-1.566-0.7-2.699-1.5c-0.967-0.7-2.65-2.017-5.051-3.95
	c-1.899-1.533-3.449-2.6-4.649-3.2l-1.25-0.449c-1.8-3-3-6.017-3.601-9.051c-0.399-1.833-1.083-3.533-2.05-5.1
	c-1.066-1.434-1.75-2.467-2.05-3.1c-0.4-0.801-0.667-1.95-0.8-3.45c-0.066-0.934-0.101-2.65-0.101-5.15c0-1.866-0.333-5.316-1-10.35
	c-0.6-4.767-1.033-7.533-1.3-8.3c-0.166-0.5-0.434,0.316-0.8,2.449c-0.566,3.5-1.05,6.017-1.45,7.551
	c-0.533,2.133-0.8,3.767-0.8,4.899c0,2.033-0.033,3.434-0.1,4.2c-0.2,1.9-0.867,4.134-2,6.7c-0.567,1.3-1.117,2.399-1.65,3.3
	l-2.75-0.95l-0.45-4.05l-1.6,2.75c-1.2,1.967-2.184,3.316-2.95,4.05l-4.5,4.55l-12.75,10.45l-1.85,0.351
	c2.267,0,4.25-0.267,5.949-0.801c-2.267,0.767-5.066,1-8.399,0.7c-1.667-0.166-3.101-0.399-4.3-0.7l1.899-1.85v-0.05l11.05-11.05
	c1.834-1.167,3.634-2.417,5.4-3.75l2.05-1.7c2.3-5,3.45-8.417,3.45-10.25c0-1.134,0.233-3.066,0.7-5.8l0.649-3.75l4.75,4.8
	c0.334-0.467,0.684-1.101,1.051-1.9c0.666-1.566,1-3.2,1-4.899v-10.25c0-0.2,1.366-4.167,4.1-11.9c2.733-7.7,4.1-13.717,4.1-18.05
	c0-6.5,0.45-14.983,1.351-25.45c1.033-11.9,2.166-19.55,3.399-22.95c1.134-3.133,2.301-5.767,3.5-7.899l1.5-2.301l-2.6,7.65
	c-1.833,5.967-2.934,11.134-3.3,15.5c-0.134,1.6,0.166,4.866,0.899,9.8c0.601,3.867,0.301,7.717-0.899,11.55
	c-1.334,4.167-2.267,8.217-2.8,12.15c-0.267,1.967-0.4,3.517-0.4,4.65l2.3,16.35l5.9-35.85v-10.45c0-1.667-0.05-3.917-0.15-6.75
	c-0.066-1.5-0.017-3.65,0.15-6.45l0.899-18.15c-0.366-2.6-0.583-5.55-0.649-8.85c-0.066-6.566,0.75-11.566,2.45-15
	c1.933-3.833,3.25-7.75,3.949-11.75c0.567-3.267,0.851-7.517,0.851-12.75c0-2.967,0.45-11.833,1.35-26.6
	c0.9-14.767,1.351-24.301,1.351-28.601c0-5.1,0.116-10.033,0.35-14.8l0.35-5.65c0.467-1,0.917-2.616,1.351-4.85
	c0.899-4.434,1.35-9.634,1.35-15.6c0-5.334-0.1-11.167-0.3-17.5c-0.233-6.367-0.35-10.517-0.35-12.45
	c0-4.934-0.284-15.233-0.851-30.9c-0.666-17.667-1.3-29.85-1.899-36.55c-0.334-3.833-1.75-13.717-4.25-29.65
	c-2.167-13.8-3.25-23-3.25-27.6c0-4.4-0.534-9.333-1.601-14.8c-0.033-0.167-0.066-0.317-0.1-0.45l0.8-4.6
	c-0.566-0.066-1.134-0.117-1.7-0.15c-0.967-5.467-1.684-10.367-2.149-14.7c-0.667-6.333-1.2-13.7-1.601-22.1
	c-0.3-5.934-0.684-9.7-1.149-11.3l-0.101-0.25c-0.066-5.4-0.066-11.833,0-19.3l0.351-19.3c0.8-4.5,1.483-11.05,2.05-19.65
	c0.467-7.2,0.7-13.066,0.7-17.6c0-3.033,0.449-8.316,1.35-15.85L345.85,13l1.351,14.05c0.899,10,1.35,16.517,1.35,19.55v13
	l-0.899,5.15l0.149,10.5c0.101,8.7,0.05,17.317-0.149,25.85c-0.134,6.833-0.233,12.183-0.301,16.05c-0.033,1.333-0.233,4.3-0.6,8.9
	c-0.366,4.534-0.55,8.75-0.55,12.65c0,2.167,0.033,4.917,0.1,8.25c0,1.7,0.334,5.767,1,12.2c0.867,8,1.45,14.233,1.75,18.7
	c0.367,5.7,1.684,8.767,3.95,9.2c0.733,0.133,1.5,0,2.3-0.4l1-0.65l0.65-1.55c0.233,1.367,0.467,2.65,0.7,3.85
	c4.233-1.367,8.699-2.883,13.399-4.55c9.4-3.333,15.233-5.75,17.5-7.25c2.566-1.7,5.934-5.783,10.101-12.25
	c3.899-6.033,6.583-11.033,8.05-15c1.233-3.3,2.983-11.55,5.25-24.75c2.033-11.9,3.316-20.617,3.85-26.15
	c0.667-6.833,1.15-11.184,1.45-13.05c0.667-3.966,1.4-5.367,2.2-4.2c0.7,1.066,0.934,3.533,0.7,7.4
	C419.75,94.767,419.517,99.017,419.45,101.25z M488.8,245.6c-0.899-1.467-1.633-2.7-2.2-3.7c-1.6-2.767-4.899-9.583-9.899-20.45
	c-4.033-8.767-7.101-15.583-9.2-20.45c-3.634-8-6.767-15.033-9.4-21.1c-5.066-11.6-7.966-19.1-8.699-22.5
	c-0.801-3.667-1.134-11.233-1-22.7c0.1-10.133,0.433-17.7,1-22.7c0.366-3.4,1.233-12.9,2.6-28.5l1.9-22.4l2.3,5.8
	c1.5,4.1,2.25,6.717,2.25,7.85c0,1.733-0.384,7.033-1.15,15.9c-0.866,9.934-1.7,17.95-2.5,24.05c-0.833,6.367-1.35,11.633-1.55,15.8
	c-0.167,2.967-0.25,8-0.25,15.1c0,5.967,2.616,15.316,7.85,28.05c4.834,11.8,9.483,20.917,13.95,27.35
	c5.434,7.867,15.117,23.317,29.05,46.35c-0.6-9.533-0.899-21.117-0.899-34.75c0-27.267,1.517-51.117,4.55-71.55
	c2.167-14.6,3.083-29.917,2.75-45.95c0.866,4.267,2.366,10.233,4.5,17.9c-0.167,4.1-0.467,6.95-0.9,8.55
	c-0.899,3.333-2.116,10.133-3.649,20.4l-0.9,15.7c-0.6,10.9-0.899,17.483-0.899,19.75V201l1.8,42.7l0.25,1.75
	c0.133,1.466,0.2,2.85,0.2,4.15c0,3.933-0.15,6.517-0.45,7.75c-0.2,0.767-1.617,0.533-4.25-0.7l-3.9-2.05
	C497.684,251.567,493.267,248.567,488.8,245.6z M456.05,591.15c5.566-3.667,9.7-6.851,12.4-9.551
	c1.267-1.267,2.566-2.683,3.899-4.25c3.101-1.366,5.351-2.75,6.75-4.149c2.267-2.267,4.601-5.184,7-8.75
	c2.167-3.467,3.467-5.55,3.9-6.25c0.9-1.367,2.717-7.033,5.45-17l0.55,1.5c0.434,1.2,0.717,2.3,0.85,3.3
	c0.534-2.033,1.2-4.083,2-6.15c1.667-4.366,3-8.949,4-13.75c0.967-4.633,1.45-8.683,1.45-12.149c0-2.867,0.233-6.101,0.7-9.7
	l0.65-4.6l2.05,2.699c0.133-0.899,0.166-1.983,0.1-3.25c-0.1-2.5-0.583-4.6-1.45-6.3c-1.6-3.2-2.517-5.033-2.75-5.5
	c-0.733-1.8-0.949-3.133-0.649-4c0.2-0.666,0.533-6.6,1-17.8c0.467-11.3,0.816-17.417,1.05-18.35c0.267-1.134,0.45-3.617,0.55-7.45
	l0.101-5.45c-0.667-8.866-1.334-17.917-2-27.15c-1.367-18.533-2.051-28.8-2.051-30.8c-0.333-1-0.5-2.017-0.5-3.05
	c-0.033-1.634,0.801-7.417,2.5-17.35c1.7-9.867,2.334-22.5,1.9-37.9c-0.8-14.233-1.2-22.267-1.2-24.1c0-1.433-0.383-3.35-1.149-5.75
	l4.35-9.95l0.4,14.85c-0.267,4.267-0.4,7.5-0.4,9.7c0,1.267,0.15,1.7,0.45,1.3v20.05c0,27.867,0.149,42.25,0.45,43.15
	c0.3,0.9,1.816-12.884,4.55-41.35l0.25,9.55c0.133,7.399,0.2,13.75,0.2,19.05c0,2.566-0.134,11.483-0.4,26.75
	c-0.2,12.267-0.217,19.717-0.05,22.35c0.3,4.534,0.3,15.884,0,34.051l-0.3,11.25c-0.233,7.866-0.45,12.75-0.65,14.649
	c-0.3,3-1.35,10.867-3.15,23.601c3.034-4.834,4.551-7.717,4.551-8.65c0-1.366,0.3,2.417,0.899,11.35
	c0.601,8.934,0.9,15.45,0.9,19.551c0,6.366,1.217,21.8,3.649,46.3V566.6c-3.033-11.5-4.699-18-5-19.5
	c-0.166-0.899-0.433-0.716-0.8,0.551c-0.866,3.199-1.366,4.983-1.5,5.35c-0.6,1.8-1,4.35-1.2,7.65
	c-0.1,1.933-0.149,4.833-0.149,8.699v13.15c0,2.866-0.367,4.25-1.101,4.15l-4.8-3.65v2.7c0,1.133-0.366,1.934-1.1,2.399
	c-0.4,0.233-0.783,0.351-1.15,0.351l-3.649-3.65V578l1.35-22.3l-5.45,13.649l-3.5,2.601c-3.033,1.833-6.25,2.934-9.649,3.3
	l-13.2,11.35l-5.9,3.2L456.05,591.15z M164,129.05c0.367,0.534,0.733,0.983,1.1,1.35c2.267,2.267,5.217,4.983,8.85,8.15l4.7,7.4
	c3.733,5.1,7.167,8.083,10.3,8.95c1.066,0.3,2.3,0.617,3.7,0.95c0.667,0.4,1.35,0.767,2.05,1.1c2.267,1.1,4.933,2.1,8,3
	c3.233,0.867,5.533,1.533,6.9,2l-5.1-1.5l0.8,0.6c3.633,2.733,8.85,6.817,15.65,12.25c1.8,1.367,4.066,2.5,6.8,3.4l-3.9-7.7
	c-0.633-0.433-1.267-0.85-1.9-1.25c0.833,0.5,1.566,0.983,2.2,1.45l3.6-25.4c0.6-4.267,0.9-12.15,0.9-23.65
	c0-5.733,0.2-15.717,0.6-29.95c0.433-16.167,0.85-25.25,1.25-27.25c0.2-0.967,0.55-3.55,1.05-7.75c0.8,2.566,1.2,5.3,1.2,8.2
	c0,6.367,0.3,13.483,0.9,21.35v11.8l2.75,21.35c0.367,3.167,0.083,8.1-0.85,14.8c-0.633,4.6-2.167,15.1-4.6,31.5
	c-1.633,11.966-2.133,17.133-1.5,15.5c0.5-1.5,0.867-2.633,1.1-3.4c0.467-1.433,0.75-1.833,0.85-1.2
	c0.167,1.167,0.217,2.117,0.15,2.85c-0.1,1.6-0.15,3.233-0.15,4.9c0,2.467-0.15,3.967-0.45,4.5c-0.133,0.267-0.284,0.283-0.45,0.05
	l-0.95-6.85l-1.8-0.45l-0.5,3.5c-0.533,2.333-1.267,3.6-2.2,3.8c-0.966,0.2-1.566-0.5-1.8-2.1l-0.05-2.45l-12.7-4.1l-20.45-13.6
	c-0.566-0.4,0.784-0.517,4.05-0.35l5.05,0.35l-11.35-5.9c-5.167-5.767-8.5-9.25-10-10.45c-0.833-0.7-2.55-2.75-5.15-6.15
	c-2.8-3.667-4.417-5.717-4.85-6.15c-1.1-1.1-3.033-2.767-5.8-5C162.667,130.733,163.333,129.917,164,129.05z M143.7,78.15
	c-0.467-1.867-0.917-3.8-1.35-5.8c0.7,13.233,1.683,21.683,2.95,25.35c2.8,7.833,4.534,12.45,5.2,13.85
	c1.833,3.8,4.417,6.9,7.75,9.3c1.467,1.033,2.683,2.566,3.65,4.6v0.05c-0.5,0.6-1.066,1.217-1.7,1.85
	c-0.367,0.367-0.9,0.867-1.6,1.5c-3.6-2.8-6.217-4.583-7.85-5.35c-2.833-6.733-4.717-11.167-5.65-13.3
	c-1.267-3.034-3.45-12.083-6.55-27.15c-3.033-14.6-4.783-24.333-5.25-29.2c-0.367-3.8-0.783-12.05-1.25-24.75l-0.55-17.95l5.45,10.9
	l3.6,41.8l2.85,13.05C143.5,77.3,143.6,77.717,143.7,78.15z M24.6,100.95c-0.733-1.034-1.217-2.117-1.45-3.25
	c-0.9-3.633-1.55-6.3-1.95-8c-0.7-2.967-1.184-5.983-1.45-9.05c-0.333-3.733-0.65-7.9-0.95-12.5c-0.267-4.6-0.4-7.933-0.4-10
	c0-2.066-1.05-4.983-3.15-8.75c-2.2-3.867-4.783-7.3-7.75-10.3l-6.15-6.15L0,23.45l1.45,4.05c1.267,2.967,2.6,5.017,4,6.15
	c4.733,3.767,8.133,6.95,10.2,9.55l2.75,3.4c0.434-7.733,0.65-13.417,0.65-17.05V17.3c0-3.133,0.117-6.917,0.35-11.35l0.35-5.7
	L20.25,0c0.267,5.967,0.883,13.017,1.85,21.15c0.566,4.7,1.467,11.75,2.7,21.15c0.034,1.267,0.267,7.233,0.7,17.9
	c0.267,6.267,0.4,10.133,0.4,11.6c0,3.8,0.5,7.833,1.5,12.1c1.167,4.833,2.7,8.517,4.6,11.05c1.367,1.833,2.567,3.767,3.6,5.8
	c0.867,1.4,2.4,2.65,4.6,3.75c2.267,1.133,4.867,1.817,7.8,2.05h3.75c-0.9-16.8-1.35-27.25-1.35-31.35V55.1
	c0.6-0.6,0.9-1.383,0.9-2.35c0.067-3,0.15-5.25,0.25-6.75l-0.1,2.6l1.45,9.35l0.15,3.95c0.233,3.033,0.633,5.5,1.2,7.4
	c0.367,1.133,0.567,1.767,0.6,1.9c0.066,0.133,0.1,0,0.1-0.4c0-1.6,0.233-2.7,0.7-3.3c0.567-0.767,1.117,0.583,1.65,4.05
	c0.267,1.733,0.467,3.55,0.6,5.45l0.45,14.55c0,1.367-0.55,4.1-1.65,8.2c-0.767,2.867-1.434,5.133-2,6.8c-0.3,0.9-0.9,1.5-1.8,1.8
	l-4.55,0.45l-4.1-0.9l7.75,4.55l-2.6-0.1c-2.133-0.167-4.15-0.434-6.05-0.8s-3.9-1.316-6-2.85l-2.6-2.15
	c-3.333-1.2-5.917-2.417-7.75-3.65C26.367,102.5,25.567,101.85,24.6,100.95z M35.4,109.95c-0.333-0.333-2.8-2.2-7.4-5.6
	c-0.933-0.667-1.717-1.367-2.35-2.1c0.9,0.933,2.15,1.95,3.75,3.05C32.333,107.3,34.333,108.85,35.4,109.95z M64.45,628.2
	l0.25-1.851c5.6-6.366,8.85-10.449,9.75-12.25c3.367-6.6,5.65-11.366,6.85-14.3c0.567-1.434,0.967-4.25,1.2-8.45l0.15-5.899
	l-1.95,8.35c-1.467,5.7-2.633,8.834-3.5,9.4l-5.35,6.399c-1.467,1.834-2.633,3.4-3.5,4.7l-1,0.95c-0.934,0.6-1.967,0.9-3.1,0.9
	s-2.083-0.384-2.85-1.15l-0.8-1.15l-2.1-0.149c-1.567-0.101-2.833-0.05-3.8,0.149c-0.934,0.2-1.85,0.617-2.75,1.25
	c-0.633,0.467-2.133,1.567-4.5,3.301c-0.6,0.433-1.367,0.883-2.3,1.35H42c0.1,0.2,0.3,0.35,0.6,0.45
	c0.633,0.166,1.483,0.017,2.55-0.45h5.8c-0.233,0.033-0.583,0.217-1.05,0.55l-2.55,1.101c-3.033,1.3-5.883,2.416-8.55,3.35
	c-3.066,1.134-8.267,1.35-15.6,0.65l2.1-0.801l0.7-0.1l1.9-0.2c0.767-0.2,1.55-0.483,2.35-0.85c3.4-1.533,7.217-4.316,11.45-8.351
	l6.65-7.149l-4.55,5.1c-3.7,3.8-7.183,6.717-10.45,8.75c3.2-1.1,5.566-2.017,7.1-2.75c2.167-1.033,3.517-2,4.05-2.899
	c0.567-0.934,1.667-2.934,3.3-6c1.4-2.534,2.35-4.167,2.85-4.9c0.567-0.866,1.067-0.667,1.5,0.6c0.233,0.601,0.4,1.301,0.5,2.101
	l2.5-6.4L57,591.5c2.133-3.5,4.283-7.316,6.45-11.45c4.333-8.233,6.65-13.916,6.95-17.05c0.3-3.4,0.483-6.983,0.55-10.75
	c0.066-2.366,0.1-6.283,0.1-11.75c0-3.4,0.15-6.517,0.45-9.35c0.5-4.9,0.817-8.367,0.95-10.4c0.2-3.267,0.5-6.583,0.9-9.95
	c0.3-2.399,0.45-4.533,0.45-6.399c0-1.634,0.05-3.15,0.15-4.551c0.4,2.601,0.816,4.934,1.25,7c0.633,3,1.066,4,1.3,3
	c0.1-0.399,0.383-3.267,0.85-8.6c0.467-5.033,1.1-8.75,1.9-11.15c1.033-3.133,1.967-6.966,2.8-11.5c0.867-4.633,1.3-8.3,1.3-11
	V457.4c0-11.267,1.583-23.767,4.75-37.5c0.733-3.134,0.65-8.467-0.25-16c-1.2-10.034-1.8-18.084-1.8-24.15
	c0-7.5-0.216-14.55-0.65-21.15c-0.467-6.6-0.7-10.916-0.7-12.949v-21.8l2.05,7.5V315.7L84,295.95c-0.233-10.667-0.55-21.6-0.95-32.8
	c-0.767-22.367-1.583-34.833-2.45-37.4c-0.967-2.933-1.783-6.667-2.45-11.2c-0.633-4.3-0.95-8.05-0.95-11.25
	c0-2.566-0.117-6.4-0.35-11.5l-0.35-6.9l-1.35,14.95c-1.8-8.167-2.7-14.283-2.7-18.35c0-1.3,0.183-2.133,0.55-2.5
	c0.467-0.167,0.783-0.3,0.95-0.4c0.566-0.367,0.066-3.033-1.5-8c-1.833-5.767-3.284-9.7-4.35-11.8c-0.6-1.233-1.983-3.283-4.15-6.15
	c0.333,1.5,0.667,2.983,1,4.45c-0.1-0.333-0.184-0.667-0.25-1c-0.333-1.567-2.6-10.817-6.8-27.75l-1.55-6.15l0.25,0.9l1.3,0.7
	c1.867,0.767,3.15,1.483,3.85,2.15c1.033,0.9,1.867,2.3,2.5,4.2c0.667,2.033,1.45,6,2.35,11.9c0.867,5.833,1.3,9.9,1.3,12.2
	c0,3,0.15-0.033,0.45-9.1l3.05,8.4c2.133,6.2,3.383,10.817,3.75,13.85c0.267,2.133,1.283,7.317,3.05,15.55
	c1.6,7.367,2.4,11.867,2.4,13.5c0,3.033,0.45,10.45,1.35,22.25l1.4-11.35l0.45,5.3c0.3,4.467,0.45,9.067,0.45,13.8
	c0,4.466,1.067,17.6,3.2,39.4c2.1,21.8,3.15,32.883,3.15,33.25c0,0.566,0.617,4.45,1.85,11.65c1.2,7.2,1.8,12.55,1.8,16.05
	c0,6.066,0.15,13.334,0.45,21.8c-0.767-3.866-1.517-7.483-2.25-10.85c-1.534-6.733-2.3-8.866-2.3-6.4c0,3.934,0.6,12.417,1.8,25.45
	l3.2,39.05l-0.7,7.4c-0.733,6.033-1.867,11.9-3.4,17.6c-1.5,5.634-2.183,12.584-2.05,20.851c0.1,4.333,0.333,9.033,0.7,14.1
	c0,3.033,0.75,13.483,2.25,31.351L92.4,460.8l4.55,23.601l0.45,6.25c0.3,4.866,0.45,9,0.45,12.399c0,5.434-1.517,17.084-4.55,34.95
	c0-1.8,0.167-4.366,0.5-7.7c0.2-2.066,0.25-7.833,0.15-17.3l-0.15-13.6l-0.35,8.1c-0.467,6.9-1.267,14.05-2.4,21.45
	c-1.066,6.899-2.017,11.1-2.85,12.6c-0.167,0.334-0.367,0.601-0.6,0.8c-0.133,0.2-0.2,0.717-0.2,1.551
	c0,12.433-0.15,23.483-0.45,33.149c-0.3,9.7-0.3,15,0,15.9l-0.15,6.1c-0.233,4.467-0.633,7.733-1.2,9.8
	c-0.9,3.334-1.65,6.817-2.25,10.45l-0.45-7.7l-1.25,2.9c-0.933,2.033-1.583,3.333-1.95,3.9c-1.567,2.333-2.934,3.699-4.1,4.1
	c-0.9,0.3-0.75-0.767,0.45-3.2l-7.7,6.8C67.583,626.866,66.283,627.566,64.45,628.2z M218.9,208.85l-0.15-8.65l1.6,0.95l0.75,1.2
	l0.3,2.25c0.3,2.2,0.45,3.583,0.45,4.15L218.9,208.85z M224.55,260.5c0.1-0.033,0.2-0.05,0.3-0.05c1.367-0.133,2.333,0.8,2.9,2.8
	l1.35,4.75c0.333-1.6,0.566-3.333,0.7-5.2c0.233-3.733-0.216-6.316-1.35-7.75c-1.133-1.4-2.05-2.95-2.75-4.65l-0.65-2.15
	c-0.333-0.8-0.667-2.067-1-3.8c-0.7-3.534-1.05-7.717-1.05-12.55v-16.35l-1.05-6.4c0.3,1.167,1.783,3.6,4.45,7.3v14.1
	c0,11.5,0.15,16.184,0.45,14.05l4.1-25.4l0.4,8.75c0.233,6.633,0.25,12.033,0.05,16.2c-0.167,3.434,0.15,11.684,0.95,24.75
	c0.867,14.233,1.3,23.85,1.3,28.85c0,6.267,0.117,10.017,0.35,11.25c0.167,0.833,0.517,2.533,1.05,5.1
	c0.367,3.267,0.467,9.316,0.3,18.15c-0.233-2.9-0.817-7.483-1.75-13.75l-1.3-8.5l-0.2,7.95c-0.167,6.066-0.25,10.983-0.25,14.75
	c0,3.899-0.633,11.217-1.9,21.95c-0.967,8.399-1.7,14.116-2.2,17.149c-0.133,0.9-0.383,3.3-0.75,7.2c-0.4,4.7-0.75,8.35-1.05,10.95
	c-0.367,3.2-0.333,11.133,0.1,23.8c0.233,6.333,0.5,12.333,0.8,18c0.3-9.4,0.45-15.467,0.45-18.2c0-1.7,0.684-8.483,2.05-20.35
	l2.05-17.351l-0.05,6.301c-0.067,5.533-0.2,11.616-0.4,18.25c-0.167,5.767-0.017,11.517,0.45,17.25c0.434,5.366,0.583,9.3,0.45,11.8
	c-0.167,3.333-0.217,6.684-0.15,10.05c0.1,6.267,0.15,10.65,0.15,13.15c0,11.5-0.6,24.216-1.8,38.149
	c-0.633,6.934-2.45,21.767-5.45,44.5c3.933-13.633,6.2-23.184,6.8-28.649c0.367-3.4,1.317-8.733,2.85-16l2.15-9.851l-0.45,31.3
	c0,6-0.05,10.467-0.15,13.4c-0.4,9.5-1.267,18.066-2.6,25.7c-1.3,7.566-2.15,13.616-2.55,18.149
	c-0.167,2.267-0.217,3.784-0.15,4.551l2.25,15l2.75,10.399l-6.6-9.6l-0.45,0.95c-0.233,0.933-0.167,2.166,0.2,3.699
	c1.233,4.667,1.85,7.684,1.85,9.051c0,1.699-0.467,3.216-1.4,4.55c-0.4,0.566-1.033,0.8-1.9,0.7c-0.534-0.101-1.4-0.334-2.6-0.7
	c-1.233-0.3-2.75-0.9-4.55-1.8l-1.8-6.351l-0.5,4.05l-1.35,4.551h-6.8l0.45-2.7l-1.7,0.25c-1.367,0.133-2.617,0.2-3.75,0.2
	c-1.267,0-2.783,0.366-4.55,1.1c-1.233,0.5-3.65,1.65-7.25,3.45c-3.433,1.666-6.383,2.666-8.85,3c0.267,0,0.533,0.017,0.8,0.05
	c-1.9-0.066-3.3-0.184-4.2-0.35c2.767-0.801,5.75-1.817,8.95-3.051c6.433-2.5,10.783-4.883,13.05-7.149l5.45-5.45l4.1,2.7
	c-0.1-0.101-0.184-0.667-0.25-1.7c-0.133-2.033-0.05-5.333,0.25-9.9c0.433-7.267,0.65-16.8,0.65-28.6c0-2.533,0.8-7.717,2.4-15.55
	c1.6-7.834,2.4-12.184,2.4-13.05v-8.2l2.8,1.8c1.933,1.5,3.033,2.95,3.3,4.35c0.467,2.267,0.783,4.167,0.95,5.7
	c0.2-2.3,0.3-4.866,0.3-7.7c0.033-5.633-0.383-9.733-1.25-12.3c-0.833-2.533-1.183-7.467-1.05-14.8c0.267-8.066,0.4-13.35,0.4-15.85
	c0-2.733,0.117-5.684,0.35-8.851c0.2-3.2,0.3-5.483,0.3-6.85V460.1c-0.9-13.6-1.35-23.816-1.35-30.649
	c-0.433-12.7-0.733-23.566-0.9-32.601c-0.333-17.233,0.2-27.25,1.6-30.05c1.467-2.934,2.35-7.166,2.65-12.7
	c0.033-0.933,0.05-5.333,0.05-13.199c0-1.867-0.1-8.084-0.3-18.65c-0.233-10.567-0.35-18.667-0.35-24.3c0-3.534-0.1-7.633-0.3-12.3
	c0.1,1.1,0.233,2.267,0.4,3.5c0.533,4.167,1.1,7.95,1.7,11.35l0.45-10.45c0-0.2,0.05-2.85,0.15-7.95
	c0.033-3.033-0.017-4.934-0.15-5.7C225.933,268.2,225.017,262.9,224.55,260.5z M222.4,534.55l-1.45-8.35l-1.75,20.45
	c-0.367,4.366-0.85,8.449-1.45,12.25c-0.567,3.8-0.433,8.866,0.4,15.199c0.434,3.2,0.917,6,1.45,8.4l0.9-16.8
	c0.567-9.2,1.317-15.55,2.25-19.05C223.35,544.583,223.233,540.55,222.4,534.55z M224.2,260.6c-0.034,1.867-0.05,5.316-0.05,10.35
	c-0.066,0.733-0.117,1.533-0.15,2.4l-1-12.15C223.367,260.9,223.767,260.7,224.2,260.6z M85.4,490.75c-0.233,1.6-0.3,4.066-0.2,7.4
	c0.133,5.633,0.2,8.616,0.2,8.949v17.75c0,3,0.15,7.084,0.45,12.25l0.2,3.4c2.733-21.333,4.1-33.366,4.1-36.1
	c0-1.434-0.117-3.334-0.35-5.7c-0.233-2.4-0.35-4.134-0.35-5.2c0-1.4-0.333-5.116-1-11.15l-1.05-8.6l-0.5,4.95
	C86.467,482.767,85.967,486.783,85.4,490.75z M80.85,498.2c-0.6,7.666-1.283,14.434-2.05,20.3c-0.733,5.533-1.167,8.517-1.3,8.95
	c-1.233,3.434-2.017,5.75-2.35,6.95c-1.2,4.3-1.667,7-1.4,8.1c0.633,2.733,0.95,5.333,0.95,7.8c0,4.533-0.3,8.7-0.9,12.5
	c-0.3,1.9-0.6,3.334-0.9,4.3l-3.65,19.5l-2.45,7.95c-1.733,5.467-2.883,8.566-3.45,9.3c-0.533,0.733-0.167,0.534,1.1-0.6
	c2-1.866,3.6-3.333,4.8-4.4c1.533-1.3,3.2-3.816,5-7.55l2.25-5.149c1.833-4.834,2.9-8.467,3.2-10.9c0.033-0.366,0.233-3.634,0.6-9.8
	c0.333-5.267,0.733-8.967,1.2-11.101c0.333-1.566,0.3-4.699-0.1-9.399c-0.533-5.834-0.8-9.2-0.8-10.101l0.9-46.35L80.85,498.2z
	 M64.7,626.35l-0.7-0.3c0.2-1.2,0.433-2.233,0.7-3.1c0.367-1.134,1.083-2.917,2.15-5.351l0.15-0.25
	c-0.433,1.167-0.85,2.567-1.25,4.2C65.317,623.283,64.967,624.884,64.7,626.35z M507.25,513.25c-0.533,4.066-1.066,8.384-1.6,12.95
	l-2.25,10l-2,5.35c-0.967,3-0.601,3.184,1.1,0.55c1.9-2.933,3.467-8.517,4.7-16.75c1.1-7.199,1.649-14.033,1.649-20.5
	C508.85,502.316,508.316,505.116,507.25,513.25z M496.25,549.5c0.066,0.566,0.25,0.3,0.55-0.8c0.167-0.634,0.184-1.533,0.05-2.7
	C496.384,547.733,496.184,548.9,496.25,549.5z"/>
<path style="fill-rule:evenodd;clip-rule:evenodd;fill:#3D3729;" d="M500,263.2c-4.967-7.633-8.7-13.5-11.2-17.6
	c4.467,2.967,8.884,5.967,13.25,9l3.9,2.05c2.633,1.233,4.05,1.467,4.25,0.7c0.3-1.233,0.45-3.817,0.45-7.75
	c0-1.3-0.067-2.684-0.2-4.15l-0.25-1.75l-1.8-42.7v-23.6c0-2.267,0.3-8.85,0.899-19.75l0.9-15.7
	c1.533-10.267,2.75-17.067,3.649-20.4c0.434-1.6,0.733-4.45,0.9-8.55c0.134,0.567,0.283,1.133,0.45,1.7l0.45,19.1l-0.4,9.1
	c-0.533,8.467-1.45,18.75-2.75,30.85c-1.3,11.767-1.167,24.85,0.4,39.25c0.767,7.367,1.683,15.333,2.75,23.9
	c0,5.733-1.051,15.267-3.15,28.6c-4.566-0.3-7.75-0.9-9.55-1.8C502.184,263.3,501.2,263.133,500,263.2z M501.7,272.8l4.85,1.35
	l0.75,1.6c0.533,1.333,0.9,2.767,1.101,4.3c0.166,1.233,0.066,4.383-0.301,9.45c-0.066,1.267-0.133,2.45-0.199,3.55l-0.4-14.85
	l-4.35,9.95c-0.5-1.6-1.167-3.4-2-5.4l0.199-3.65c0.034-0.633,0.067-1.283,0.101-1.95C501.517,275.717,501.6,274.267,501.7,272.8z
	 M360.4,205.55l1.8,22.7c0.133,1.433,1.616,12.633,4.45,33.6c0.333,2.4,0.633,4.7,0.899,6.9c-0.033-0.233-0.066-0.467-0.1-0.7
	c-2.3-16.633-3.8-27.7-4.5-33.2l0.149,12.05l3.65,31.8l0.05,5.55c0.066,4.833,0.2,10.083,0.4,15.75c0.3,9.1-0.15,26.517-1.351,52.25
	l1.15,7.5c0.733,5.6,1.1,9.917,1.1,12.95c0,2.434,0.367,7.083,1.101,13.95c0.2,7-0.917,13.699-3.351,20.1
	c-2,5.233-3.483,12.667-4.449,22.3c-0.867,8.634-2.117,14.367-3.75,17.2c-2.167,3.767-2.884,6.467-2.15,8.1
	c0.267,0.567,0.684,0.9,1.25,1c0.533,0.067,0.983-0.083,1.35-0.449c0.567-0.567,1.051,1.233,1.45,5.399
	c0.267,3.066,0.4,5.65,0.4,7.75v20.9c0,2.399,0.149,5.983,0.45,10.75c0.3,4.767,0.449,8.899,0.449,12.399
	c0,6.767,0.601,22.817,1.801,48.15l0.3,7.3c-0.267,8.2,0.083,13.8,1.05,16.8c1.167,3.434,3.116,6.5,5.85,9.2
	c1.301,1.233,3.25,2.95,5.851,5.15c1.399,2.133,2.95,4.767,4.649,7.899c2.101,3.767,2.884,5.65,2.351,5.65
	c-0.267,0.033-0.75-0.333-1.45-1.1l-1.95-0.5c-1.899-0.7-4.267-1.9-7.1-3.601c-2.066-1.233-4.283-4.316-6.65-9.25l3.45,21.05
	l1.4,2.351c-1.167,0.066-2.384,0.2-3.65,0.399l0.9,4.5l3.199,4c0.2,0.301,0.4,0.584,0.601,0.851c0.066,0.066,0.116,0.149,0.149,0.25
	c0.067,0.066,0.134,0.149,0.2,0.25c0,0.033,0.033,0.066,0.101,0.1c0.033,0.101,0.083,0.184,0.149,0.25
	c0.066,0.134,0.15,0.267,0.25,0.4c0.066,0.1,0.15,0.217,0.25,0.35c0,0.033,0.033,0.084,0.101,0.15
	c0.033,0.066,0.083,0.149,0.149,0.25c0.167,0.3,0.334,0.6,0.5,0.899c0,0.034,0.017,0.067,0.05,0.101c0,0.033,0.017,0.066,0.051,0.1
	l0.55,1.45c0,0.066,0.017,0.15,0.05,0.25c0,0.134,0,0.25,0,0.35c0,0.7-0.066,1.084-0.2,1.15c-0.133,0.066-0.583-0.033-1.35-0.3
	c-3.134-1-6.8-1.717-11-2.15c-1.033-0.1-1.967-0.217-2.8-0.35l-5.9-2.851c0.233,0.301,0.55,0.767,0.95,1.4
	c-0.2-0.134-0.351-0.267-0.45-0.4c-0.2-0.5-0.4-0.866-0.6-1.1c-0.233-0.233-0.65-0.434-1.25-0.6c-1.534-0.934-2.2-1.601-2-2
	c0.166-0.301,0.199-0.467,0.1-0.5c-0.934-0.301-2.45-2.117-4.55-5.45l-4.55-5l-3.2-2.3l-7.25-6.801
	c-0.4,0.634-0.884,1.15-1.45,1.551c-0.4,0.267-1.134,0.666-2.2,1.199c-0.533,0.267-1.6,0.684-3.2,1.25
	c-1.833,0.634-3.483,1.267-4.949,1.9c-1.7,0.767-2.75,1.983-3.15,3.65c-0.167,0.833-0.184,1.583-0.05,2.25l-1.851,1.05
	c-1.466-0.601-2.966-0.634-4.5-0.101c-1.699,0.534-3.683,0.801-5.949,0.801l1.85-0.351l12.75-10.45l4.5-4.55
	c0.767-0.733,1.75-2.083,2.95-4.05l1.6-2.75l0.45,4.05l2.75,0.95c0.533-0.9,1.083-2,1.65-3.3c1.133-2.566,1.8-4.8,2-6.7
	c0.066-0.767,0.1-2.167,0.1-4.2c0-1.133,0.267-2.767,0.8-4.899c0.4-1.534,0.884-4.051,1.45-7.551c0.366-2.133,0.634-2.949,0.8-2.449
	c0.267,0.767,0.7,3.533,1.3,8.3c0.667,5.033,1,8.483,1,10.35c0,2.5,0.034,4.217,0.101,5.15c0.133,1.5,0.399,2.649,0.8,3.45
	c0.3,0.633,0.983,1.666,2.05,3.1c0.967,1.566,1.65,3.267,2.05,5.1c0.601,3.034,1.801,6.051,3.601,9.051l1.25,0.449
	c1.2,0.601,2.75,1.667,4.649,3.2c2.4,1.934,4.084,3.25,5.051,3.95c1.133,0.8,2.033,1.3,2.699,1.5c0.567,0.2,1.034-0.5,1.4-2.1
	l0.4-2.45L359,612.05l-0.45-5l2.3,0.45l-6.35-13.15l-2.75-13.199l0.45-20.45l4.1,15.45c0.101-2.2,0.15-4.667,0.15-7.4
	c-0.033-5.467-0.351-9.517-0.95-12.15c-0.4-1.699-0.15-3.933,0.75-6.699c1.233-3.867,1.85-9.5,1.85-16.9
	c0-8.3-0.216-17.833-0.649-28.6l-0.7-13.601l-1.35-13.2l-1.15,12.15c-0.767,8.333-1.15,13.066-1.15,14.2
	c-1.199,18.467-1.949,25.733-2.25,21.8c-0.199-2.467,0.117-9.95,0.95-22.45l1.3-18l0.45-19.95c0.3-7.5,0.767-15.333,1.4-23.5
	c1.2-16.333,2.55-26.216,4.05-29.649c1.533-3.4,3.134-8.351,4.8-14.851l2.05-8.75c-0.633-14.233-0.949-22.866-0.949-25.899
	c0-2.233-0.9-1.65-2.7,1.75c-1.834,3.399-2.75,6.149-2.75,8.25c0,2.733-0.3,6.066-0.9,10c-0.3-3.7-0.434-7.783-0.399-12.25
	c0.1-8.934,1-15.3,2.699-19.101c2.101-4.166,3.367-6.966,3.801-8.399c0.5-1.733,0.75-5.45,0.75-11.15c0-5.3-0.534-12.333-1.601-21.1
	l-1.6-11.6c-0.367-3.934-0.733-8.317-1.101-13.15c-0.666-9.7-0.899-16.817-0.699-21.35c0.199-4.533,0.1-9.833-0.301-15.9l-2-39.95
	l-1.8,11.8V202.4l3.15-5.95c3.033-0.833,6.283-1.784,9.75-2.85c6.899-2.2,11.383-3.967,13.45-5.3c2.1-1.333,4.316-3.167,6.649-5.5
	l2.851-3.15l12.3-20.9c1.434-1.967,2.967-4.6,4.6-7.9c3.233-6.567,5.334-13.167,6.3-19.8c1.101-7.8,2.467-18.483,4.101-32.05v2.25
	V102c0,7.867-0.15,14-0.45,18.4c-0.533,7.6-1.6,14.184-3.2,19.75c-1.2,4.233-2.866,10.133-5,17.7c-2.033,6.367-4.6,12.267-7.7,17.7
	c-2.933,5.133-7.899,9.417-14.899,12.85c-0.867,0.434-3.783,1.733-8.75,3.9c-2.834,1.267-5.167,2.417-7,3.45l-7.55,1.2
	c-4.067,0.6-5.733,0.9-5,0.9c2.3,0,2.916,0.3,1.85,0.9c-1.267,0.7-1.833,1.667-1.7,2.9C360.316,204.05,360.434,205.35,360.4,205.55z
	 M524.45,593.05c-0.723,0.024-1.489,0.074-2.3,0.15c-0.9,0.066-3.667,0.45-8.301,1.149c-2.633,0.367-4.033,1.084-4.199,2.15
	c-0.067,0.533,0.116,1.017,0.55,1.45l-5.45-0.9c-2.033-0.333-3.967-1.283-5.8-2.85c-2.2-1.867-3.9-3.033-5.101-3.5
	c-1.1-0.434-2.1-0.834-3-1.2c0.2,0.066,0.384,0.134,0.551,0.2l-0.25-5.351l0.449-7.3c-1.833,1.533-3.649,2.75-5.449,3.65
	c-0.667,0.333-1.617,0.7-2.851,1.1c-1.2,0.367-2.833,1.066-4.899,2.101c-2.967,1.466-6.517,4.533-10.65,9.199
	c0.556-0.032,1.098-0.099,1.625-0.199c-0.158,0.035-0.3,0.068-0.425,0.1c-2.367,0.366-5.3,0.434-8.8,0.2
	c-2.334-0.167-4.417-0.4-6.25-0.7l1.199-0.75l0.851-0.6h0.1l6-1.351l5.9-3.2l13.2-11.35c3.399-0.366,6.616-1.467,9.649-3.3
	l3.5-2.601l5.45-13.649L498.4,578v6.8l3.649,3.65c0.367,0,0.75-0.117,1.15-0.351c0.733-0.466,1.1-1.267,1.1-2.399V583l4.8,3.65
	c0.733,0.1,1.101-1.284,1.101-4.15v-13.15c0-3.866,0.05-6.767,0.149-8.699c0.2-3.301,0.601-5.851,1.2-7.65
	c0.134-0.366,0.634-2.15,1.5-5.35c0.367-1.267,0.634-1.45,0.8-0.551c0.301,1.5,1.967,8,5,19.5V555.7
	c-2.433-24.5-3.649-39.934-3.649-46.3c0-4.101-0.3-10.617-0.9-19.551c-0.6-8.933-0.899-12.716-0.899-11.35
	c0,0.934-1.517,3.816-4.551,8.65c1.801-12.733,2.851-20.601,3.15-23.601c0.2-1.899,0.417-6.783,0.65-14.649l0.3-11.25
	c0.3-18.167,0.3-29.517,0-34.051c-0.167-2.633-0.15-10.083,0.05-22.35c0.267-15.267,0.4-24.184,0.4-26.75
	c0-5.3-0.067-11.65-0.2-19.05l-0.25-9.55c-2.733,28.466-4.25,42.25-4.55,41.35c-0.301-0.9-0.45-15.283-0.45-43.15v-20.05
	c0.566-0.8,1.633-4.466,3.2-11l3.6-16.2l0.25,7.35c0.134,5.966,0.2,11.7,0.2,17.2c0,4.4,0.583,15.317,1.75,32.75
	c1.133,16.333,1.616,25.55,1.45,27.649c-0.301,4.233-0.617,11.05-0.95,20.45l0.3,5.8c0.233,5.134,0.45,10.917,0.65,17.351
	c0.166,5.166,0.25,14.633,0.25,28.399c0,14.066,0.066,23.983,0.199,29.75c0.301,11.5,0.45,23,0.45,34.5l5.45,59.95l0.7,4.1
	c0.434,2.867,0.649,4.684,0.649,5.45c0,0.8,0.584,2.967,1.75,6.5c0.4,1.233,1.7,5.033,3.9,11.4c1.2,3.434,1.134,4.25-0.2,2.45
	c-1.967-2.967-3.333-4.917-4.1-5.851c-1.867-2.566-3.25-4.35-4.15-5.35c-1.533-1.834-2.116-1.717-1.75,0.35
	c0.367,2.101-0.05,5-1.25,8.7c-0.6,1.866-1.233,3.517-1.899,4.95l-0.4,3c2.533-0.367,4.45-0.584,5.75-0.65
	C523.983,593.05,524.217,593.05,524.45,593.05z M353.15,149.6l2,22.9c0.033,0.333,0.083,0.667,0.149,1v0.2
	c0.033,0.2,0.066,0.4,0.101,0.6c0.034,0.192,0.067,0.392,0.1,0.6l0.05,0.6c0.066,0.4,0.134,0.817,0.2,1.25l0.35,2.35
	c0.267,1.9,0.551,3.683,0.851,5.35L356.3,186l-1,0.65c-0.8,0.4-1.566,0.533-2.3,0.4c-2.267-0.433-3.583-3.5-3.95-9.2
	c-0.3-4.467-0.883-10.7-1.75-18.7c-0.666-6.433-1-10.5-1-12.2c-0.066-3.333-0.1-6.083-0.1-8.25c0-3.9,0.184-8.117,0.55-12.65
	c0.366-4.6,0.566-7.566,0.6-8.9c0.067-3.867,0.167-9.217,0.301-16.05c0.199-8.533,0.25-17.15,0.149-25.85l-0.149-10.5l0.899-5.15
	v33.3c0,4.633,0.767,13.383,2.3,26.25c0.434,3.7,0.801,7.117,1.101,10.25c-1.533,3.1-2.351,5.167-2.45,6.2
	c-0.167,1.3-0.217,3.683-0.15,7.15c0.034,1.9,0.084,4.517,0.15,7.85c0,1.9,0.25,2.85,0.75,2.85c0.434,0,0.783-0.65,1.05-1.95
	c0.134-0.667,0.434-0.417,0.9,0.75c0.434,1.1,0.866,2.633,1.3,4.6C353.3,154.25,353.184,151.833,353.15,149.6z M343.05,163.3
	c0.634,0.034,1.3,0.1,2,0.2c0.566,0.033,1.134,0.083,1.7,0.15l-0.8,4.6l-0.101,0.65c-0.666,3.6-1.216,5.717-1.649,6.35
	c-0.033,0.067-0.084,0.133-0.15,0.2c-0.633,0.5-2.133,0.483-4.5-0.05c-2.5-0.6-4.3-1.316-5.399-2.15c-1.167-0.9-2.7-2.233-4.601-4
	c-2.166-2-3.833-3.7-5-5.1c-0.934-1.133-4.566-3.533-10.899-7.2c-8.2-4.733-13.467-7.883-15.801-9.45
	c-3.066-2.033-8.883-5.3-17.45-9.8c-4.5-2.367-7.717-4.117-9.65-5.25c-2.467,1.6-5.2,4.95-8.2,10.05c-1.333,2.233-2,5.917-2,11.05
	c0,9.434-1.017,15.317-3.05,17.65c-0.433,0.5-2.4,3.033-5.9,7.6c-2.667,3.434-4.4,5.45-5.2,6.05c-0.833,0.633-2.05,2.683-3.65,6.15
	c-0.4,0.967-1.367,3.283-2.9,6.95c-0.3,0.767-0.817,1.233-1.55,1.4c-0.3,0.033-0.633,0.033-1,0c-0.3-0.033-1.3-0.333-3-0.9
	c-0.633-0.2-0.9-1.434-0.8-3.7l0.3-3.35c0.267-0.333,0.667-0.733,1.2-1.2c0.933-0.8,2.017-1.483,3.25-2.05c0.2-0.1,0.4-0.2,0.6-0.3
	c1.4-0.6,2.917-2.283,4.55-5.05c1.934-3.3,2.934-4.983,3-5.05c1.934-1.867,3.217-3.167,3.85-3.9c1.967-2.167,3.383-4.217,4.25-6.15
	c0.867-1.934,1.367-4.567,1.5-7.9v-8.25c0-2.133,0.35-4.417,1.05-6.85c0.8-2.3,1.284-3.717,1.45-4.25
	c0.2-0.633,1.017-1.917,2.45-3.85l2.1-2.7l5.3-3.4c-0.9-1.4-2.2-4.2-3.9-8.4c-2.133-5.233-3.767-10.033-4.9-14.4
	c-1.033-3.9-1.45-7.25-1.25-10.05c0.467-2.7,0.7-4.9,0.7-6.6c0-2.066-0.433-3.7-1.3-4.9c-1.3-1.433-2.367-2.816-3.2-4.15
	c-1.067-1.7-1.733-7-2-15.9l-0.05-12.85c0.233,5.667,1.15,11.65,2.75,17.95c0.8,3.167,1.566,5.75,2.3,7.75l2.8,4.75
	c1.833,3.433,2.75,5.883,2.75,7.35c0,1.267,0.083,3.333,0.25,6.2c0.167,2.867,0.25,4.667,0.25,5.4c0,1.267,1.017,4.383,3.05,9.35
	c2,4.933,3.5,8.033,4.5,9.3c0.967,1.2,2.316,2.684,4.05,4.45c0.533-0.467,1.083-1,1.65-1.6c2.7-2.8,4.667-5.767,5.9-8.9
	c1.267-3.167,1.717-5.983,1.35-8.45c-0.733-2.267-1.183-3.816-1.35-4.65l1.7,5.45c1.1,3.867,1.55,6.417,1.35,7.65
	c-0.2,1.267-0.983,2.8-2.35,4.6c-0.7,0.967-1.6,2.117-2.7,3.45c-0.767,1.2-1.9,2.583-3.4,4.15c-0.066,0.066-0.133,0.15-0.2,0.25
	c0.5,0.5,1.033,1.017,1.6,1.55c3.667,3.533,6.399,5.8,8.2,6.8c2.633-0.3,4.6-0.683,5.899-1.15c1.2-0.4,1.983-1.133,2.351-2.2
	c0.666-2,1.066-3.117,1.199-3.35c0.5-0.8,1.217-1.533,2.15-2.2c0.733-0.5,1.184-1.1,1.35-1.8c0.2-0.867,0.267-2.55,0.2-5.05
	l-0.2-3.55c0.167,1.2,0.717,2.467,1.65,3.8c0.767,1.1,1.066,2.367,0.9,3.8c-0.534,4.2-1.551,7.05-3.051,8.55
	c-0.6,0.6-1.416,1.783-2.449,3.55c-0.9,1.533-1.517,2.566-1.851,3.1c1.7,0.767,3.517,1.633,5.45,2.6c6.8,3.4,11.3,6.2,13.5,8.4
	c2.134,2.167,5.717,4.517,10.75,7.05c3.066,1.566,6.033,2.917,8.9,4.05C335.017,162.183,338.15,162.733,343.05,163.3z M345.85,482.6
	l-0.899,18.15c-0.167,2.8-0.217,4.95-0.15,6.45c0.101,2.833,0.15,5.083,0.15,6.75v10.45l-5.9,35.85l-2.3-16.35
	c0-1.134,0.134-2.684,0.4-4.65c0.533-3.934,1.466-7.983,2.8-12.15c1.2-3.833,1.5-7.683,0.899-11.55
	c-0.733-4.934-1.033-8.2-0.899-9.8c0.366-4.366,1.467-9.533,3.3-15.5L345.85,482.6z M364.3,548.85c-0.1,1.034-0.2,2.017-0.3,2.95
	c0.033-0.566,0.083-1.149,0.15-1.75C364.184,549.65,364.233,549.25,364.3,548.85z M238.9,139.15c-0.867,3.233-1.7,6.15-2.5,8.75
	c-0.967,3.033-1.4,10.217-1.3,21.55c0.033,5.667,0.167,11.033,0.4,16.1l-6.85,8.2l-6.8-1.35l-1.35-2.3c-0.3-0.434-1.5-1.25-3.6-2.45
	c-0.533-0.467-1.367-1.017-2.5-1.65l-10.35-5.05l1.35,0.95c5.167,2.467,9,4.383,11.5,5.75c2.067,1.767,1.65,2.983-1.25,3.65
	c-0.2-0.4-0.4-0.8-0.6-1.2c-0.767-1.533-4.4-4.55-10.9-9.05c-1.2-0.867-5.75-3.9-13.65-9.1c-2.4-1.6-4.783-3.833-7.15-6.7
	c-1.033-1.267-3.184-4.183-6.45-8.75c-3.033-4.233-9.4-11.2-19.1-20.9l-0.05-0.1c-0.667,0.5-1.35,0.983-2.05,1.45
	c-0.8,0.533-3.767,2.566-8.9,6.1c-3.367,2.333-5.95,4-7.75,5c-1.9,1.034-3.733,2.65-5.5,4.85c-1.033,1.3-2.733,3.533-5.1,6.7
	c-1.333,1.7-3.517,4.367-6.55,8c-2.667,3.367-4.85,6.417-6.55,9.15c-1.667,2.7-3.883,5.3-6.65,7.8
	c-1.467,1.367-3.284,2.967-5.45,4.8c-1.367,1.4-2.917,2.683-4.65,3.85c-1.967,1.333-3.783,2.233-5.45,2.7
	c-1.467,0.434-2.917,1.233-4.35,2.4c-0.2,0.167-0.383,0.333-0.55,0.5c-0.467,0.4-0.85,0.784-1.15,1.15L86.4,199l1,7
	c0.934,6.667,1.4,18.783,1.4,36.35c0,8.5,1.133,21.8,3.4,39.9c2.233,17.867,4.267,30.15,6.1,36.85
	c1.534,5.567,2.284,9.784,2.25,12.65c-0.033,1.733-0.316,4.033-0.85,6.9c-0.3,3.633-0.45,7.1-0.45,10.399l0.75,5.3
	c0.5,4.467,0.85,9.067,1.05,13.801c0.2,4.733-0.433,13.116-1.9,25.149c-0.7,6.033-1.433,11.584-2.2,16.65l-0.9,14.95
	c-0.3,4.8-0.566,9.8-0.8,15c-0.267,6.267-0.3,9-0.1,8.199c0.3-1.233,1.817-10.316,4.55-27.25l0.15,3.75
	c0.1,3.334,0.05,7.067-0.15,11.2c-0.133,3.101,0.117,10.816,0.75,23.15c0.7,14.066,1.05,25.434,1.05,34.1
	c0,10.2-0.45,19.851-1.35,28.95c-0.467,4.533-0.933,8.05-1.4,10.55l-3.6,19.65c-0.6,4.233-0.9,6.916-0.9,8.05
	c0,1.667-0.917,5.767-2.75,12.3c-0.6,2.101,0.817-0.533,4.25-7.899L95.5,584.05l-0.8,13.45l1.8,4.1l7.75,5l5.4,12.7
	c0.767,1.7,0.767,2.667,0,2.9c-0.367,0.133-0.816,0.083-1.35-0.15c-3.333-0.3-5.6-0.916-6.8-1.85
	c-0.733-0.566-2.083-1.117-4.05-1.65c-1-0.233-1.917-0.434-2.75-0.6l-1,1.1c-0.833,0.834-1.717,1.533-2.65,2.101
	c-0.333,0.199-1.216,0.6-2.65,1.199c-1.233,0.5-2.917,1.45-5.05,2.851c-3.633,2.434-9.4,5.316-17.3,8.649l-3.5,0.851
	c-2.533,0.533-4.316,0.7-5.35,0.5l1.55-0.9l5.3-3.2l0.05-0.3l0.3-2.149l0.05-0.45c1.833-0.634,3.133-1.334,3.9-2.101l7.7-6.8
	c-1.2,2.434-1.35,3.5-0.45,3.2c1.167-0.4,2.533-1.767,4.1-4.1c0.367-0.567,1.017-1.867,1.95-3.9l1.25-2.9l0.45,7.7
	c0.6-3.633,1.35-7.116,2.25-10.45c0.566-2.066,0.967-5.333,1.2-9.8l0.15-6.1c-0.3-0.9-0.3-6.2,0-15.9
	c0.3-9.666,0.45-20.717,0.45-33.149c0-0.834,0.067-1.351,0.2-1.551c0.233-0.199,0.433-0.466,0.6-0.8c0.833-1.5,1.783-5.7,2.85-12.6
	c1.133-7.4,1.934-14.55,2.4-21.45l0.35-8.1l0.15,13.6c0.1,9.467,0.05,15.233-0.15,17.3c-0.333,3.334-0.5,5.9-0.5,7.7
	c3.034-17.866,4.55-29.517,4.55-34.95c0-3.399-0.15-7.533-0.45-12.399l-0.45-6.25L92.4,460.8l-0.45,26.351
	c-1.5-17.867-2.25-28.317-2.25-31.351c-0.367-5.066-0.6-9.767-0.7-14.1c-0.133-8.267,0.55-15.217,2.05-20.851
	c1.534-5.699,2.667-11.566,3.4-17.6l0.7-7.4l-3.2-39.05c-1.2-13.033-1.8-21.517-1.8-25.45c0-2.466,0.767-0.333,2.3,6.4
	c0.733,3.366,1.483,6.983,2.25,10.85c-0.3-8.466-0.45-15.733-0.45-21.8c0-3.5-0.6-8.85-1.8-16.05c-1.233-7.2-1.85-11.083-1.85-11.65
	c0-0.367-1.05-11.45-3.15-33.25c-2.133-21.8-3.2-34.934-3.2-39.4c0-4.733-0.15-9.333-0.45-13.8l-0.45-5.3l-1.4,11.35
	c-0.9-11.8-1.35-19.217-1.35-22.25c0-1.633-0.8-6.133-2.4-13.5c-1.767-8.233-2.784-13.417-3.05-15.55
	c-0.367-3.033-1.617-7.65-3.75-13.85l-3.05-8.4c-0.3,9.067-0.45,12.1-0.45,9.1c0-2.3-0.433-6.367-1.3-12.2
	c-0.9-5.9-1.684-9.867-2.35-11.9c-0.633-1.9-1.467-3.3-2.5-4.2c-0.7-0.667-1.983-1.383-3.85-2.15l-1.3-0.7l-0.25-0.9l-1.2-4.75
	l-8.05-1.95c-5.8-1.733-9.7-3.583-11.7-5.55c-1.066-1.1-3.066-2.65-6-4.65c-1.6-1.1-2.85-2.117-3.75-3.05
	c-0.5-0.5-0.9-0.983-1.2-1.45c0.033,0.034,0.083,0.083,0.15,0.15c0.967,0.9,1.767,1.55,2.4,1.95c1.833,1.233,4.417,2.45,7.75,3.65
	l2.6,2.15c2.1,1.533,4.1,2.483,6,2.85s3.917,0.633,6.05,0.8l2.6,0.1l-7.75-4.55l4.1,0.9l4.55-0.45c0.9-0.3,1.5-0.9,1.8-1.8
	c0.566-1.667,1.233-3.933,2-6.8c1.1-4.1,1.65-6.833,1.65-8.2L57.9,77c-0.133-1.9-0.333-3.717-0.6-5.45
	c-0.533-3.466-1.083-4.816-1.65-4.05c-0.467,0.6-0.7,1.7-0.7,3.3c0,0.4-0.034,0.534-0.1,0.4c-0.033-0.133-0.233-0.767-0.6-1.9
	c-0.567-1.9-0.967-4.367-1.2-7.4l-0.15-3.95l-1.45-9.35l0.1-2.6c0.567-0.633,0.833-1.417,0.8-2.35c-0.1-1.633-0.15-3.283-0.15-4.95
	c0.933-8.367,2.85-18.3,5.75-29.8l0.3-0.6L59,6.2c0.433,0.267,0.867,0.45,1.3,0.55c-2.533,19.2-3.1,31.567-1.7,37.1
	c1.033,4.167,2.566,17.767,4.6,40.8c0.6,7.033,1.133,13.1,1.6,18.2c-0.1-0.767-0.183-1.55-0.25-2.35l-1.2,5.6v9.05
	c0,1.567,2.133,7.967,6.4,19.2c5.533,14.5,8.7,22.95,9.5,25.35c0.2,0.6,0.533,1.7,1,3.3c-0.003-0.028-0.003-0.053,0-0.075
	c0.065,0.31,0.116,0.585,0.15,0.825c0.1,1.1,1.067,5.7,2.9,13.8c-0.267-1.033-0.5-1.983-0.7-2.85c0.133,1.167,0.3,2.75,0.5,4.75
	c0.2,1.633,0.433,3.033,0.7,4.2c0.3,0.033,0.617,0.067,0.95,0.1c2.933,0.367,5.4,0.55,7.4,0.55c1.533,0,2.517-0.117,2.95-0.35
	c0.933-0.534,1.8-0.917,2.6-1.15c1.667-0.466,4.167-2.183,7.5-5.15c3.1-2.767,5.466-5.25,7.1-7.45c2-2.6,5.534-6.583,10.6-11.95
	c1.633-1.733,3.083-3.217,4.35-4.45c-0.967-3.966-2.083-6.9-3.35-8.8c-0.566-0.833-1.433-1.75-2.6-2.75
	c-0.9-0.733-1.533-1.667-1.9-2.8c-0.767-1.833-1.316-3.167-1.65-4c-0.6-1.467-0.9-2.817-0.9-4.05c0-1.733,0.066-4.133,0.2-7.2
	c0.133-3.2,0.233-4.333,0.3-3.4c0.233,3.2,0.767,6.517,1.6,9.95c0.7,2.867,1.35,4.933,1.95,6.2c0.333,0.633,1.533,1.733,3.6,3.3
	c2.133,1.633,3.45,2.883,3.95,3.75c1,1.667,2.683,3.183,5.05,4.55c1.233-0.433,4.15-2.5,8.75-6.2c4.767-3.934,7.567-6.25,8.4-6.95
	c1.8-1.433,3.367-2.7,4.7-3.8l-3.55-5.8c-0.367-0.733-0.733-1.517-1.1-2.35l0.05,0.05c1.633,0.767,4.25,2.55,7.85,5.35
	c0.7-0.633,1.233-1.133,1.6-1.5c0.633-0.633,1.2-1.25,1.7-1.85c0.833-1.033,1.483-2.067,1.95-3.1c0.6-1.367,0.9-2.733,0.9-4.1
	c0-1.267-0.167-4.316-0.5-9.15c-0.333-4.833-0.5-7.667-0.5-8.5l0.5-14.15l0.75,5.25c0.5,3.8,0.75,6.433,0.75,7.9
	c0,1.033,0.35,4.283,1.05,9.75c0.667,5.467,1,9.1,1,10.9c0,1.534-0.5,3.25-1.5,5.15c-0.6,1.133-1.367,2.316-2.3,3.55v0.05
	c-0.667,0.867-1.333,1.684-2,2.45c2.767,2.233,4.7,3.9,5.8,5c0.434,0.433,2.05,2.483,4.85,6.15c2.6,3.4,4.317,5.45,5.15,6.15
	c1.5,1.2,4.833,4.684,10,10.45l11.35,5.9l-5.05-0.35c-3.267-0.167-4.617-0.05-4.05,0.35l20.45,13.6l12.7,4.1l0.05,2.45
	c0.233,1.6,0.833,2.3,1.8,2.1c0.934-0.2,1.667-1.467,2.2-3.8l0.5-3.5l1.8,0.45l0.95,6.85c0.167,0.233,0.317,0.217,0.45-0.05
	c0.3-0.533,0.45-2.033,0.45-4.5c0-1.667,0.05-3.3,0.15-4.9c0.067-0.733,0.017-1.684-0.15-2.85c-0.1-0.633-0.383-0.233-0.85,1.2
	c-0.233,0.767-0.6,1.9-1.1,3.4c-0.633,1.633-0.133-3.534,1.5-15.5c2.433-16.4,3.966-26.9,4.6-31.5c0.934-6.7,1.217-11.633,0.85-14.8
	l-2.75-21.35v-11.8c-0.6-7.867-0.9-14.983-0.9-21.35c0-2.9-0.4-5.633-1.2-8.2c0.5-4.133,1.167-9.85,2-17.15l2.4-21.45l0.9,12.85
	c0.6,9.833,0.9,17.966,0.9,24.4c0,5.167,0.267,23.15,0.8,53.95c0.167,12.333,0.284,22.75,0.35,31.25V139.15z M218.75,200.2h-0.05v-1
	c-0.233-0.667-0.45-1.317-0.65-1.95l2.3,3.9L218.75,200.2z M196.35,613.5c-1.833,0.134-3.567,0.217-5.2,0.25l-6.05,0.05
	c-0.1-0.033-0.217-0.05-0.35-0.05c-0.267-0.033-0.533-0.05-0.8-0.05c2.466-0.334,5.417-1.334,8.85-3c3.6-1.8,6.017-2.95,7.25-3.45
	c1.767-0.733,3.284-1.1,4.55-1.1c1.133,0,2.383-0.067,3.75-0.2l1.7-0.25l-0.45,2.7h6.8l1.35-4.551l0.5-4.05l1.8,6.351
	c1.8,0.899,3.317,1.5,4.55,1.8c1.2,0.366,2.066,0.6,2.6,0.7c0.867,0.1,1.5-0.134,1.9-0.7c0.933-1.334,1.4-2.851,1.4-4.55
	c0-1.367-0.617-4.384-1.85-9.051c-0.367-1.533-0.433-2.767-0.2-3.699l0.45-0.95l6.6,9.6l-2.75-10.399l-2.25-15
	c-0.067-0.767-0.017-2.284,0.15-4.551c0.4-4.533,1.25-10.583,2.55-18.149c1.333-7.634,2.2-16.2,2.6-25.7
	c0.1-2.934,0.15-7.4,0.15-13.4l0.45-31.3l-2.15,9.851c-1.533,7.267-2.483,12.6-2.85,16c-0.6,5.466-2.867,15.017-6.8,28.649
	c3-22.733,4.816-37.566,5.45-44.5c1.2-13.934,1.8-26.649,1.8-38.149c0-2.5-0.05-6.884-0.15-13.15
	c-0.067-3.366-0.017-6.717,0.15-10.05c0.133-2.5-0.017-6.434-0.45-11.8c-0.467-5.733-0.617-11.483-0.45-17.25
	c0.2-6.634,0.333-12.717,0.4-18.25l0.05-6.301l-2.05,17.351c-1.367,11.866-2.05,18.649-2.05,20.35c0,2.733-0.15,8.8-0.45,18.2
	c-0.3-5.667-0.567-11.667-0.8-18c-0.433-12.667-0.466-20.6-0.1-23.8c0.3-2.601,0.65-6.25,1.05-10.95c0.367-3.9,0.617-6.3,0.75-7.2
	c0.5-3.033,1.233-8.75,2.2-17.149c1.267-10.733,1.9-18.051,1.9-21.95c0-3.767,0.083-8.684,0.25-14.75l0.2-7.95l1.3,8.5
	c0.933,6.267,1.517,10.85,1.75,13.75c0.167-8.833,0.066-14.883-0.3-18.15c-0.533-2.567-0.883-4.267-1.05-5.1
	c-0.233-1.233-0.35-4.983-0.35-11.25c0-5-0.433-14.617-1.3-28.85c-0.8-13.066-1.117-21.316-0.95-24.75
	c0.2-4.167,0.184-9.566-0.05-16.2l-0.4-8.75l-4.1,25.4c-0.3,2.133-0.45-2.55-0.45-14.05v-14.1c-2.667-3.7-4.15-6.133-4.45-7.3
	c-0.067-0.167-0.1-0.3-0.1-0.4c0-0.567-0.15-1.95-0.45-4.15l-0.3-2.25l0.3,0.5c1.833,0.3,3.5,0.45,5,0.45c0.934,0,1.967-0.3,3.1-0.9
	l1.45-0.95h3.15l0.95,40c0.2,8.466,0.9,23.483,2.1,45.05c1.133,20.933,1.934,33.917,2.4,38.95c0.4,3.967,0.367,10.833-0.1,20.6
	c-0.233,4.9-0.5,9.384-0.8,13.45l-0.35,6.4c-0.3,5.1-0.633,9.633-1,13.6c-0.5,5.2-0.983,12.2-1.45,21
	c-0.533,9.533-0.8,16.767-0.8,21.7c0,6.967,0.15,17.267,0.45,30.899l3.15-21.35l0.1,6.65c0,5.666-0.183,11.616-0.55,17.85
	c-0.3,5.167-0.2,13.65,0.3,25.45c0.533,13.166,0.733,23,0.6,29.5c-0.267,11.666-0.533,20.3-0.8,25.899
	c-0.333,7.334-0.816,12.784-1.45,16.351c-0.6,3.434-0.9,7.184-0.9,11.25c0,3.399,0.15,5.55,0.45,6.45
	c0.3,0.933,0.75-2.384,1.35-9.95l0.45,8.6c0.167,3.434,0.883,5.884,2.15,7.351c1.767,2.033,2.717,3.216,2.85,3.55
	c0.6,1.6,1.05,3.8,1.35,6.6c0.333,2.967,0.333,3.8,0,2.5c-0.2-0.767-1.083-1.899-2.65-3.399l-2.35-2.051l2.6,12.101
	c0.5,3.399,0.85,6.333,1.05,8.8l-3.65-0.5l-2.7,2.3l-0.9,4.55h-6.85c-2.067,0-3.367,0.084-3.9,0.25
	c-0.233,0.067-0.284,0.134-0.15,0.2H203.7C201.5,612.05,199.05,612.533,196.35,613.5z M271.05,609.9
	c0.367,0.199,0.733,0.399,1.1,0.6c-0.467-0.233-0.917-0.467-1.35-0.7C270.867,609.833,270.95,609.866,271.05,609.9z M22.45,625.65
	l0.75-0.25c7.333,0.699,12.533,0.483,15.6-0.65c2.667-0.934,5.517-2.05,8.55-3.35l2.55-1.101c-0.733,0.467-1.733,1.233-3,2.3
	c-2.6,2.233-5.066,3.483-7.4,3.75c-7.067,0-12.167-0.149-15.3-0.449C23.533,625.833,22.95,625.75,22.45,625.65z M64,626.05
	l-4.05-1.75l1.6-3.649L59.8,618.8l-1.45,0.5c-1.167,0.3-2.233,0.45-3.2,0.45c-0.433,0-1.167,0.05-2.2,0.15
	c-0.534,0.066-1.15,0.017-1.85-0.15h-0.15h-5.8c-1.066,0.467-1.917,0.616-2.55,0.45c-0.3-0.101-0.5-0.25-0.6-0.45h3.15
	c0.934-0.467,1.7-0.917,2.3-1.35c2.367-1.733,3.867-2.834,4.5-3.301c0.9-0.633,1.816-1.05,2.75-1.25
	c0.966-0.199,2.233-0.25,3.8-0.149l2.1,0.149l0.8,1.15c0.767,0.767,1.717,1.15,2.85,1.15s2.167-0.301,3.1-0.9l1-0.95L67,617.35
	l-0.15,0.25c-1.067,2.434-1.783,4.217-2.15,5.351C64.433,623.816,64.2,624.85,64,626.05z M224.75,285.65
	c-0.167-3.566-0.4-7.467-0.7-11.7l-0.05-0.6c0.033-0.867,0.083-1.667,0.15-2.4c0-5.034,0.017-8.483,0.05-10.35
	c0.1-0.067,0.216-0.1,0.35-0.1c0.467,2.4,1.383,7.7,2.75,15.9c0.133,0.767,0.184,2.667,0.15,5.7c-0.1,5.1-0.15,7.75-0.15,7.95
	l-0.45,10.45c-0.6-3.4-1.167-7.183-1.7-11.35C224.983,287.917,224.85,286.75,224.75,285.65z M222.4,534.55
	c0.833,6,0.95,10.033,0.35,12.101c-0.933,3.5-1.683,9.85-2.25,19.05l-0.9,16.8c-0.533-2.4-1.017-5.2-1.45-8.4
	c-0.833-6.333-0.967-11.399-0.4-15.199c0.6-3.801,1.083-7.884,1.45-12.25l1.75-20.45L222.4,534.55z M80.85,498.2l0.65-9.7
	l-0.9,46.35c0,0.9,0.267,4.267,0.8,10.101c0.4,4.7,0.434,7.833,0.1,9.399c-0.467,2.134-0.867,5.834-1.2,11.101
	c-0.367,6.166-0.566,9.434-0.6,9.8c-0.3,2.434-1.367,6.066-3.2,10.9l-2.25,5.149c-1.8,3.733-3.467,6.25-5,7.55
	c-1.2,1.067-2.8,2.534-4.8,4.4c-1.267,1.134-1.633,1.333-1.1,0.6c0.566-0.733,1.717-3.833,3.45-9.3l2.45-7.95l3.65-19.5
	c0.3-0.966,0.6-2.399,0.9-4.3c0.6-3.8,0.9-7.967,0.9-12.5c0-2.467-0.317-5.066-0.95-7.8c-0.267-1.1,0.2-3.8,1.4-8.1
	c0.333-1.2,1.117-3.517,2.35-6.95c0.133-0.434,0.567-3.417,1.3-8.95C79.567,512.634,80.25,505.866,80.85,498.2z M401.1,615.3
	c0.209,0.101,0.426,0.2,0.65,0.3c0.134,0.067,0.267,0.15,0.4,0.25C401.789,615.655,401.439,615.473,401.1,615.3z M507.25,513.25
	c1.066-8.134,1.6-10.934,1.6-8.4c0,6.467-0.55,13.301-1.649,20.5c-1.233,8.233-2.8,13.817-4.7,16.75c-1.7,2.634-2.066,2.45-1.1-0.55
	l2-5.35l2.25-10C506.184,521.634,506.717,517.316,507.25,513.25z M361.15,586.35c1.433,4.434,2.899,8.25,4.399,11.45l-0.149-1.2
	l-5.95-15.899L361.15,586.35z"/>
<path style="fill-rule:evenodd;clip-rule:evenodd;fill:#2C281E;" d="M540.1,583.25c0.034,0.066,0.067,0.116,0.101,0.15
	c0.133,0.133,0.25,0.283,0.35,0.449c2.334,2.934,5.233,6.434,8.7,10.5h-10.9c-4.233,0-7.55-0.316-9.949-0.949L526.3,593.1
	l-1.85-0.05c-0.233,0-0.467,0-0.7,0c-1.3,0.066-3.217,0.283-5.75,0.65l0.4-3c0.666-1.434,1.3-3.084,1.899-4.95
	c1.2-3.7,1.617-6.6,1.25-8.7c-0.366-2.066,0.217-2.184,1.75-0.35c0.9,1,2.283,2.783,4.15,5.35c0.767,0.934,2.133,2.884,4.1,5.851
	c1.334,1.8,1.4,0.983,0.2-2.45c-2.2-6.367-3.5-10.167-3.9-11.4c-1.166-3.533-1.75-5.7-1.75-6.5c0-0.767-0.216-2.583-0.649-5.45
	l-0.7-4.1l-5.45-59.95c0-11.5-0.149-23-0.45-34.5c-0.133-5.767-0.199-15.684-0.199-29.75c0-13.767-0.084-23.233-0.25-28.399
	c-0.2-6.434-0.417-12.217-0.65-17.351l-0.3-5.8c0.333-9.4,0.649-16.217,0.95-20.45c0.166-2.1-0.317-11.316-1.45-27.649
	c-1.167-17.434-1.75-28.351-1.75-32.75c0-5.5-0.066-11.233-0.2-17.2l-0.25-7.35l-3.6,16.2c-1.567,6.534-2.634,10.2-3.2,11
	c-0.3,0.4-0.45-0.033-0.45-1.3c0-2.2,0.134-5.433,0.4-9.7c0.066-1.1,0.133-2.283,0.199-3.55c0.367-5.067,0.467-8.217,0.301-9.45
	c-0.2-1.533-0.567-2.966-1.101-4.3l-0.75-1.6l-4.85-1.35h-0.05l0.399-6.4l-2.1-3.2H500c1.2-0.067,2.184,0.1,2.95,0.5
	c1.8,0.9,4.983,1.5,9.55,1.8c2.1-13.333,3.15-22.867,3.15-28.6c-1.067-8.566-1.983-16.533-2.75-23.9
	c-1.567-14.4-1.7-27.483-0.4-39.25c1.3-12.1,2.217-22.383,2.75-30.85l0.4-9.1l-0.45-19.1c-0.167-0.567-0.316-1.133-0.45-1.7
	c-2.134-7.667-3.634-13.633-4.5-17.9c-0.033-0.067-0.05-0.117-0.05-0.15c-0.033-0.767-0.05-1.517-0.05-2.25l-0.7-13.4
	c-0.134-1.566-0.25-3.167-0.351-4.8l-0.649-6.85c-0.233-2.2-0.483-4.566-0.75-7.1c0-0.133-0.017-0.283-0.05-0.45l-0.601-5.25
	l-0.2-1.95c-0.02-0.255-0.036-0.505-0.05-0.75l-0.1-0.75c-0.033-0.433-0.066-0.85-0.101-1.25l-0.949-10.8V39.3
	c0-3.4-0.75-8.35-2.25-14.85l-2.25-8.75l6.35,10c2.667,4.2,4.7,14.6,6.1,31.2c0.767,8.867,1.45,19.967,2.051,33.3
	c0.3,4.233,1.017,12.783,2.149,25.65c1,11.833,1.5,19.933,1.5,24.3c0,0.233-1.05,10.75-3.149,31.55
	c-1.767,17.233-1.934,29.117-0.5,35.65c1.699,7.6,2.883,19.066,3.55,34.4c0.566,13.633,0.6,25.783,0.1,36.45
	c-0.333,7.333-0.3,19.566,0.101,36.7c0.533,21.367,0.8,34.267,0.8,38.7c0,8.167,0.767,21.334,2.3,39.5
	c1.5,18.167,2.25,28.617,2.25,31.351c0,7.267,0.3,39.066,0.9,95.399c0,3.233,0.767,8.567,2.3,16c1.5,7.4,2.25,12.051,2.25,13.95
	c0,3.8,0.033,6.566,0.1,8.3c0.134,2.667,0.4,5.65,0.8,8.95c0.4,3.167,1.567,6.25,3.5,9.25C535.167,577.134,537,579.45,540.1,583.25z
	 M353.15,149.6c0.033,2.233,0.149,4.65,0.35,7.25c-0.434-1.967-0.866-3.5-1.3-4.6c-0.467-1.167-0.767-1.417-0.9-0.75
	c-0.267,1.3-0.616,1.95-1.05,1.95c-0.5,0-0.75-0.95-0.75-2.85c-0.066-3.333-0.116-5.95-0.15-7.85c-0.066-3.467-0.017-5.85,0.15-7.15
	c0.1-1.033,0.917-3.1,2.45-6.2c0.033-0.033,0.05-0.066,0.05-0.1c0.2,1.9,0.366,3.717,0.5,5.45l0.6,12.3c0,0.067,0,0.133,0,0.2
	c0,0.033,0,0.083,0,0.15c0,0.167,0,0.35,0,0.55v0.65c0,0.066,0,0.133,0,0.2C353.1,149.067,353.116,149.333,353.15,149.6z
	 M238.3,199.35c0,1.167,0,2.367,0,3.6c0.1,10.066,0.217,23.35,0.35,39.85c0,7.8,0.5,22.25,1.5,43.35
	c0.533,11.367,1.25,26.283,2.15,44.75c0.233,5.633,0.117,27.55-0.35,65.75c-0.434,35.966-0.317,57.649,0.35,65.05
	c0.6,6.7,0.6,23.017,0,48.95c-0.6,25.833-0.6,41.916,0,48.25c0.733,7.6,2.4,14.216,5,19.85c0.067,0.134,1.034,2.066,2.9,5.8
	c1.033,2.033,1.733,3.783,2.1,5.25c1.067,4.233,1.85,7.033,2.35,8.4c0.8,2.033,1.833,3.467,3.1,4.3c0.433,0.3,1.15,0.733,2.15,1.3
	c0.067,0.033,0.15,0.084,0.25,0.15c0.067,0.033,0.15,0.083,0.25,0.149l0.05,0.051l4.4,2.399c0.267,0.134,0.533,0.283,0.8,0.45
	l5.15,2.8c0.434,0.233,0.883,0.467,1.35,0.7l3.55,1.9c0.066,0.033,0.133,0.066,0.2,0.1l-1.5-0.1l-8.5-0.801
	c-3.833-0.333-7.283-0.149-10.35,0.551c-3.466,0.833-5.767,1.25-6.9,1.25c-3.633,0-6.767,0.133-9.4,0.399l-3.95,0.7
	c-3.2,0.467-6.316,0.7-9.35,0.7c-2.267,0-4.417-0.334-6.45-1c-2.467-0.834-5.767-1.4-9.9-1.7c-3.934-0.3-5.9-0.366-5.9-0.2
	c0,0.434-1.967,0.8-5.9,1.101c-0.5,0.033-0.983,0.066-1.45,0.1c2.7-0.967,5.15-1.45,7.35-1.45h21.35
	c-0.133-0.066-0.083-0.133,0.15-0.2c0.533-0.166,1.833-0.25,3.9-0.25h6.85l0.9-4.55l2.7-2.3l3.65,0.5c-0.2-2.467-0.55-5.4-1.05-8.8
	l-2.6-12.101l2.35,2.051c1.567,1.5,2.45,2.633,2.65,3.399c0.333,1.3,0.333,0.467,0-2.5c-0.3-2.8-0.75-5-1.35-6.6
	c-0.133-0.334-1.083-1.517-2.85-3.55c-1.267-1.467-1.983-3.917-2.15-7.351l-0.45-8.6c-0.6,7.566-1.05,10.883-1.35,9.95
	c-0.3-0.9-0.45-3.051-0.45-6.45c0-4.066,0.3-7.816,0.9-11.25c0.633-3.566,1.117-9.017,1.45-16.351
	c0.267-5.6,0.534-14.233,0.8-25.899c0.133-6.5-0.067-16.334-0.6-29.5c-0.5-11.8-0.6-20.283-0.3-25.45
	c0.367-6.233,0.55-12.184,0.55-17.85l-0.1-6.65l-3.15,21.35c-0.3-13.633-0.45-23.933-0.45-30.899c0-4.934,0.267-12.167,0.8-21.7
	c0.467-8.8,0.95-15.8,1.45-21c0.367-3.967,0.7-8.5,1-13.6l0.35-6.4c0.3-4.066,0.567-8.55,0.8-13.45c0.466-9.767,0.5-16.633,0.1-20.6
	c-0.466-5.034-1.267-18.017-2.4-38.95c-1.2-21.567-1.9-36.583-2.1-45.05l-0.95-40h-3.15l-1.45,0.95c-1.133,0.6-2.167,0.9-3.1,0.9
	c-1.5,0-3.167-0.15-5-0.45l-0.3-0.5l-0.75-1.2l-2.3-3.9l-0.15-0.2c-0.7-2-1.467-3.917-2.3-5.75h0.05
	c2.9-0.667,3.317-1.883,1.25-3.65c-2.5-1.367-6.333-3.283-11.5-5.75l-1.35-0.95L214.4,186c1.133,0.633,1.967,1.183,2.5,1.65
	c2.1,1.2,3.3,2.017,3.6,2.45l1.35,2.3l6.8,1.35l6.85-8.2c-0.233-5.066-0.367-10.433-0.4-16.1c-0.1-11.333,0.333-18.517,1.3-21.55
	c0.8-2.6,1.633-5.517,2.5-8.75c0,0.767,0,1.5,0,2.2l-0.25,22.4c-0.267,5.233-0.4,13.367-0.4,24.4c-1.233,0.567-2.317,1.25-3.25,2.05
	c-0.533,0.466-0.933,0.867-1.2,1.2l-0.3,3.35c-0.1,2.267,0.167,3.5,0.8,3.7c1.7,0.566,2.7,0.867,3,0.9
	C237.667,199.383,238,199.383,238.3,199.35z M372.45,195.75h0.05l-1.2,0.7c-4.166,2.667-7.233,4.983-9.2,6.95
	c-0.966,1-1.533,1.717-1.699,2.15c0.033-0.2-0.084-1.5-0.351-3.9c-0.133-1.233,0.434-2.2,1.7-2.9c1.066-0.6,0.45-0.9-1.85-0.9
	c-0.733,0,0.933-0.3,5-0.9L372.45,195.75z M367.55,268.75l1.55,12.7c0.834,7.4,1.267,12.8,1.301,16.2c0,0.067,0,0.15,0,0.25
	c0,0.067,0,0.15,0,0.25v0.05c0,4.867-0.233,16.716-0.7,35.55c-0.3,17.833-0.066,29.9,0.7,36.2c0.699,5.934-0.017,20.7-2.15,44.3
	c-2.634,28.967-4.05,46-4.25,51.1c-0.267,7.733,0.15,19.351,1.25,34.851c1.033,14,1.233,24.483,0.6,31.45
	c-0.033,0.433-0.066,0.85-0.1,1.25c-0.2,1.866-0.366,3.666-0.5,5.399c-0.066,0.434-0.116,0.867-0.15,1.3
	c-0.033,0.534-0.066,1.051-0.1,1.551l-0.7,7.699c-0.066,0.4-0.116,0.801-0.149,1.2c-0.067,0.601-0.117,1.184-0.15,1.75l-0.8,10.65
	c-0.033,0.3-0.05,0.6-0.05,0.899l-0.2,4.2l-0.3-7.3c-1.2-25.333-1.801-41.384-1.801-48.15c0-3.5-0.149-7.633-0.449-12.399
	c-0.301-4.767-0.45-8.351-0.45-10.75v-20.9c0-2.1-0.134-4.684-0.4-7.75c-0.399-4.166-0.883-5.967-1.45-5.399
	c-0.366,0.366-0.816,0.517-1.35,0.449c-0.566-0.1-0.983-0.433-1.25-1c-0.733-1.633-0.017-4.333,2.15-8.1
	c1.633-2.833,2.883-8.566,3.75-17.2c0.966-9.633,2.449-17.066,4.449-22.3c2.434-6.4,3.551-13.1,3.351-20.1
	c-0.733-6.867-1.101-11.517-1.101-13.95c0-3.033-0.366-7.351-1.1-12.95l-1.15-7.5c1.2-25.733,1.65-43.15,1.351-52.25
	c-0.2-5.667-0.334-10.917-0.4-15.75l-0.05-5.55l-3.65-31.8l-0.149-12.05c0.7,5.5,2.2,16.566,4.5,33.2
	C367.483,268.283,367.517,268.517,367.55,268.75z M473.25,591.75c-0.7,0.3-1.4,0.55-2.1,0.75c-0.2,0.066-0.4,0.134-0.601,0.2
	c-0.267,0.033-0.517,0.083-0.75,0.149L469.4,592.9h-0.025c-0.527,0.101-1.069,0.167-1.625,0.199
	c4.134-4.666,7.684-7.733,10.65-9.199c2.066-1.034,3.699-1.733,4.899-2.101c1.233-0.399,2.184-0.767,2.851-1.1
	c1.8-0.9,3.616-2.117,5.449-3.65l-0.449,7.3l0.25,5.351c-0.167-0.066-0.351-0.134-0.551-0.2l-2.699-0.95
	c-1.634-0.533-3.051-0.934-4.25-1.2l-2.75-0.3c-1.167,0-2.5,0.684-4,2.05C475.917,590.2,474.616,591.083,473.25,591.75z
	 M113.45,614.8c0.167,0.233,0.35,0.467,0.55,0.7l1.1,1.3c0.1,0.101,0.2,0.217,0.3,0.351l0.2,0.199
	c0.133,0.167,0.283,0.351,0.45,0.551c0.167,0.199,0.367,0.416,0.6,0.649l0.2,0.25c0.066,0.101,0.15,0.2,0.25,0.3l2.45,2.75
	c0.1,0.101,0.184,0.2,0.25,0.301c0.034,0.033,0.067,0.066,0.1,0.1c0.633,0.733,1.3,1.517,2,2.35c2.233,2.634,4.833,5.767,7.8,9.4
	c0.066,0.066,0.133,0.15,0.2,0.25c0.067,0.1,0.133,0.184,0.2,0.25l-2.65-0.15c-0.167-0.033-0.333-0.05-0.5-0.05l-3.05-0.5
	c-0.333-0.066-0.667-0.133-1-0.2c-0.133-0.033-0.267-0.066-0.4-0.1l-0.85-0.25c-0.1-0.033-0.183-0.05-0.25-0.05l-0.1-0.05h-0.05
	c-1.867-0.534-3.65-1.101-5.35-1.7c-2.9-1.033-4.517-1.601-4.85-1.7c-2.733-0.9-5.017-1.583-6.85-2.05l-8.85-0.7l-1.8,0.85
	c-1.7,0.7-3.816,1.334-6.35,1.9c-4.1,0.9-8.65,1.8-13.65,2.7l-9.5,2.05c-2.667,0.6-4.583,0.983-5.75,1.15h-0.05
	c-0.8,0.1-1.267,0.1-1.4,0c-0.033-0.034-0.033-0.067,0-0.101c0.033-0.1,0.15-0.217,0.35-0.35c1.033,0.2,2.816,0.033,5.35-0.5
	l3.5-0.851c7.9-3.333,13.667-6.216,17.3-8.649c2.133-1.4,3.816-2.351,5.05-2.851c1.434-0.6,2.317-1,2.65-1.199
	c0.934-0.567,1.817-1.267,2.65-2.101l1-1.1c0.833,0.166,1.75,0.366,2.75,0.6c1.966,0.533,3.316,1.084,4.05,1.65
	c1.2,0.934,3.467,1.55,6.8,1.85c0.534,0.233,0.983,0.283,1.35,0.15c0.767-0.233,0.767-1.2,0-2.9l-5.4-12.7l-7.75-5l-1.8-4.1
	l0.8-13.45l0.25-19.399c-3.433,7.366-4.85,10-4.25,7.899c1.833-6.533,2.75-10.633,2.75-12.3c0-1.134,0.3-3.816,0.9-8.05l3.6-19.65
	c0.467-2.5,0.933-6.017,1.4-10.55c0.9-9.1,1.35-18.75,1.35-28.95c0-8.666-0.35-20.033-1.05-34.1
	c-0.633-12.334-0.883-20.05-0.75-23.15c0.2-4.133,0.25-7.866,0.15-11.2l-0.15-3.75c-2.733,16.934-4.25,26.017-4.55,27.25
	c-0.2,0.801-0.167-1.933,0.1-8.199c0.233-5.2,0.5-10.2,0.8-15l0.9-14.95c0.767-5.066,1.5-10.617,2.2-16.65
	c1.467-12.033,2.1-20.416,1.9-25.149c-0.2-4.733-0.55-9.334-1.05-13.801l-0.75-5.3c0-3.3,0.15-6.767,0.45-10.399
	c0.533-2.867,0.816-5.167,0.85-6.9c0.034-2.866-0.716-7.083-2.25-12.65c-1.833-6.7-3.867-18.983-6.1-36.85
	c-2.267-18.1-3.4-31.4-3.4-39.9c0-17.567-0.466-29.684-1.4-36.35l-1-7l0.7,0.95c0.3-0.367,0.683-0.75,1.15-1.15
	c0.033,0.267,0.083,0.517,0.15,0.75c0.267,1.2,0.517,2.35,0.75,3.45l2.15,13.9c-0.333,2.867,0.2,13.767,1.6,32.7
	c1.367,18.267,2.417,29.85,3.15,34.75c0.767,4.967,2.1,16.517,4,34.65c2,19.167,3.167,31.917,3.5,38.25
	c0.434,9.066,0.65,31.316,0.65,66.75c0,3.434-0.167,11.783-0.5,25.05c-0.2,12.4-0.034,20.4,0.5,24
	c0.466,2.934,0.816,10.717,1.05,23.351c0.2,11.899,0.533,18.649,1,20.25c0.833,2.866,1.35,9.916,1.55,21.149
	c0.233,12.033-0.283,19.75-1.55,23.15c-1.3,3.633-2.2,6.866-2.7,9.7c-0.466,2.6-0.7,5.5-0.7,8.699v12.95c0,1.601-0.2,3.917-0.6,6.95
	c-0.1,2.566,0.55,4.566,1.95,6c0.133,0.134,1.767,1.667,4.9,4.6c1.667,1.567,2.767,2.75,3.3,3.551l0.9,1.199
	C113.333,614.667,113.383,614.733,113.45,614.8z M83.3,177.55l1.45,6.2c-0.333-0.033-0.65-0.067-0.95-0.1
	c-0.267-1.167-0.5-2.566-0.7-4.2c-0.2-2-0.367-3.583-0.5-4.75C82.8,175.567,83.033,176.517,83.3,177.55z M64.8,102.85l1.95,20.05
	c0.267,1.467,1.3,4.75,3.1,9.85l3.1,8.6c0.2,0.433,0.383,0.9,0.55,1.4c0.2,0.567,0.417,1.133,0.65,1.7l5.9,17.4
	c0.053,0.228,0.094,0.444,0.125,0.65v0.075c0.014,0.055,0.022,0.113,0.025,0.175c0.016,0.054,0.033,0.112,0.05,0.175
	c-0.003,0.022-0.003,0.047,0,0.075c-0.467-1.6-0.8-2.7-1-3.3c-0.8-2.4-3.967-10.85-9.5-25.35c-4.267-11.233-6.4-17.633-6.4-19.2
	v-9.05l1.2-5.6C64.617,101.3,64.7,102.083,64.8,102.85z M39.5,626.35c2.333-0.267,4.8-1.517,7.4-3.75c1.267-1.066,2.267-1.833,3-2.3
	c0.467-0.333,0.817-0.517,1.05-0.55h0.15c0.7,0.167,1.316,0.217,1.85,0.15c1.033-0.101,1.767-0.15,2.2-0.15
	c0.967,0,2.033-0.15,3.2-0.45l1.45-0.5l1.75,1.851l-1.6,3.649H49.7l-3.55,1.05C43.417,626.017,41.2,626.35,39.5,626.35z
	 M351.4,630.9l-1-0.25c-1.7-0.267-3.534-1.351-5.5-3.25c-0.667-0.601-1.334-1.301-2-2.101l-3.4-4.649
	c-1.066-0.601-2.316-1.284-3.75-2.051c-2.866-1.5-5.25-2.633-7.15-3.399c-1.866-0.733-3.433-0.634-4.699,0.3
	c-0.867,0.667-2.784,2.25-5.75,4.75l-0.95,0.65c-0.934,0.566-1.7,0.916-2.3,1.05c-0.567,0.1-1.167,0.017-1.801-0.25l1.851-1.05
	c-0.134-0.667-0.117-1.417,0.05-2.25c0.4-1.667,1.45-2.884,3.15-3.65c1.466-0.634,3.116-1.267,4.949-1.9
	c1.601-0.566,2.667-0.983,3.2-1.25c1.066-0.533,1.8-0.933,2.2-1.199c0.566-0.4,1.05-0.917,1.45-1.551l7.25,6.801l3.2,2.3l4.55,5
	c2.1,3.333,3.616,5.149,4.55,5.45c0.1,0.033,0.066,0.199-0.1,0.5C349.2,629.3,349.866,629.967,351.4,630.9z M370.4,621.2l-1.4-2.351
	l-3.45-21.05c2.367,4.934,4.584,8.017,6.65,9.25c2.833,1.7,5.2,2.9,7.1,3.601l1.95,0.5c0.7,0.767,1.184,1.133,1.45,1.1
	c0.533,0-0.25-1.884-2.351-5.65c-1.699-3.133-3.25-5.767-4.649-7.899c-0.066-0.066-0.117-0.134-0.15-0.2l2.4,2.1
	c0.267,0.267,0.55,0.534,0.85,0.801l4.101,3.35c0.233,0.167,0.449,0.333,0.649,0.5c0.066,0.033,0.134,0.083,0.2,0.15l0.9,0.649
	c2.6,1.834,5.433,3.533,8.5,5.101l0.05,0.05c0.033,0,0.066,0.017,0.1,0.05c0.134,0.066,0.267,0.134,0.4,0.2l0.75,0.399
	c0.2,0.067,0.416,0.167,0.649,0.301l6,3.149c0.34,0.173,0.689,0.355,1.051,0.55l3.85,2c0.033,0.034,0.083,0.067,0.15,0.101
	c6.833,3.5,11.566,5.616,14.199,6.35c2.467,0.7,1.75,0.934-2.149,0.7c-0.101,0-0.2,0-0.3,0l-5.15-0.35
	c-0.5-0.034-0.967-0.051-1.4-0.051c-0.6-0.066-1.149-0.1-1.649-0.1l-3.3-0.2c-0.134,0-0.233,0-0.301,0c-0.033,0-0.066,0-0.1,0
	c-0.066,0-0.116,0-0.15,0h-0.05c-4.833,0-8.316-0.033-10.45-0.1c-3.533-0.134-6.1-0.4-7.699-0.8c-1.334-0.334-2.884-0.634-4.65-0.9
	c-2.3-0.333-4.083-0.634-5.35-0.9c-0.067,0-0.117,0-0.15,0l-1.65-0.25c-1.5-0.166-3.316-0.199-5.449-0.1V621.2z M353.7,633
	c-0.4-0.634-0.717-1.1-0.95-1.4l5.9,2.851l0.1,0.05c-2.6-0.366-4.283-0.85-5.05-1.45V633z M361.15,586.35l-1.7-5.649l5.95,15.899
	l0.149,1.2C364.05,594.6,362.583,590.783,361.15,586.35z"/>
<path style="fill-rule:evenodd;clip-rule:evenodd;fill:#605640;" d="M345.05,163.5c-0.7-0.1-1.366-0.167-2-0.2
	c-1.333-16.267-2.217-28.216-2.649-35.85c-0.167-3.233-0.284-7.333-0.351-12.3l0.101,0.25c0.466,1.6,0.85,5.367,1.149,11.3
	c0.4,8.4,0.934,15.767,1.601,22.1C343.366,153.133,344.083,158.033,345.05,163.5z M308.85,608.65l3.4-3.4
	c1.667-1.667,2.65-5.2,2.95-10.6c0.333-6.034,0.866-9.784,1.6-11.25c0.733-1.5,1.851-5.367,3.351-11.601
	c1.399-5.967,2.866-10.3,4.399-13c1.5-2.733,3.9-14.767,7.2-36.1c3.566-23.3,5.85-36.667,6.85-40.101
	c1.534-5.333,3.051-11.199,4.551-17.6c1.8-7.934,3.3-14.483,4.5-19.65c1.3-5.466,1.866-18.633,1.699-39.5
	c-0.133-20.933,0.217-33.199,1.051-36.8c1-4.3,1.716-19.066,2.149-44.3c0.467-27.367,0.967-43.483,1.5-48.35
	c0.767-7.2-0.517-24.333-3.85-51.4l-5.25-38.5c-0.334-3.833-0.634-7.517-0.9-11.05c0.066-0.067,0.117-0.133,0.15-0.2
	c0.434-0.633,0.983-2.75,1.649-6.35l0.101-0.65c0.033,0.133,0.066,0.283,0.1,0.45c1.066,5.466,1.601,10.4,1.601,14.8
	c0,4.6,1.083,13.8,3.25,27.6c2.5,15.933,3.916,25.816,4.25,29.65c0.6,6.7,1.233,18.883,1.899,36.55
	c0.566,15.667,0.851,25.967,0.851,30.9c0,1.933,0.116,6.083,0.35,12.45c0.2,6.333,0.3,12.167,0.3,17.5
	c0,5.966-0.45,11.166-1.35,15.6c-0.434,2.233-0.884,3.85-1.351,4.85l-0.35,5.65c-0.233,4.767-0.35,9.7-0.35,14.8
	c0,4.3-0.45,13.834-1.351,28.601c-0.899,14.767-1.35,23.633-1.35,26.6c0,5.233-0.283,9.483-0.851,12.75
	c-0.699,4-2.017,7.917-3.949,11.75c-1.7,3.434-2.517,8.434-2.45,15c0.066,3.3,0.283,6.25,0.649,8.85l-1.5,2.301
	c-1.199,2.133-2.366,4.767-3.5,7.899c-1.233,3.4-2.366,11.05-3.399,22.95c-0.9,10.467-1.351,18.95-1.351,25.45
	c0,4.333-1.366,10.35-4.1,18.05c-2.733,7.733-4.1,11.7-4.1,11.9v10.25c0,1.699-0.334,3.333-1,4.899
	c-0.367,0.8-0.717,1.434-1.051,1.9l-4.75-4.8l-0.649,3.75c-0.467,2.733-0.7,4.666-0.7,5.8c0,1.833-1.15,5.25-3.45,10.25l-2.05,1.7
	C312.483,606.233,310.684,607.483,308.85,608.65z M503.15,288.15c0.767,2.4,1.149,4.317,1.149,5.75c0,1.833,0.4,9.867,1.2,24.1
	c0.434,15.4-0.2,28.033-1.9,37.9c-1.699,9.933-2.533,15.716-2.5,17.35c0,1.033,0.167,2.05,0.5,3.05c0,2,0.684,12.267,2.051,30.8
	c0.666,9.233,1.333,18.284,2,27.15l-0.101,5.45c-0.1,3.833-0.283,6.316-0.55,7.45c-0.233,0.933-0.583,7.05-1.05,18.35
	c-0.467,11.2-0.8,17.134-1,17.8c-0.3,0.867-0.084,2.2,0.649,4c0.233,0.467,1.15,2.3,2.75,5.5c0.867,1.7,1.351,3.8,1.45,6.3
	c0.066,1.267,0.033,2.351-0.1,3.25l-2.05-2.699l-0.65,4.6c-0.467,3.6-0.7,6.833-0.7,9.7c0,3.467-0.483,7.517-1.45,12.149
	c-1,4.801-2.333,9.384-4,13.75c-0.8,2.067-1.466,4.117-2,6.15c-0.133-1-0.416-2.1-0.85-3.3l-0.55-1.5
	c-2.733,9.967-4.55,15.633-5.45,17c-0.434,0.7-1.733,2.783-3.9,6.25c-2.399,3.566-4.733,6.483-7,8.75
	c-1.399,1.399-3.649,2.783-6.75,4.149c0.2-0.233,0.4-0.466,0.601-0.699l2.8-3.4c0.2-0.267,0.417-0.55,0.65-0.85
	c0.029-0.035,0.054-0.068,0.074-0.101c0.057-0.06,0.106-0.118,0.15-0.175c0.118-0.131,0.226-0.256,0.325-0.375l5.7-8.55
	c0.1-0.233,0.199-0.45,0.3-0.65c0.533-1.066,1.717-4.25,3.55-9.55c1.6-4.667,3.45-8.75,5.55-12.25c2.434-4.033,4.066-7.366,4.9-10
	c0.366-1.167,0.85-3.6,1.45-7.3c0.233-1.367,0.566-11.351,1-29.95c0.466-18.833,1.05-30.65,1.75-35.45
	c0.699-5,0.166-19.866-1.601-44.6c-1.967-27.367-2.95-41.566-2.95-42.601c0-4,0.667-18.267,2-42.8l1.75-31.45
	c0.034-0.8,0.067-1.6,0.101-2.4l0.6-10.05c0-0.467,0.017-0.95,0.05-1.45l0.051,0.05C501.983,284.75,502.65,286.55,503.15,288.15z
	 M221.95,167.75c0.633,0.4,1.267,0.817,1.9,1.25l3.9,7.7c-2.733-0.9-5-2.034-6.8-3.4c-6.8-5.433-12.017-9.517-15.65-12.25l-0.8-0.6
	l5.1,1.5c3.433,1.133,6.883,2.683,10.35,4.65L221.95,167.75z M166.3,125.45c5.633,7.167,9.467,12.367,11.5,15.6
	c3.633,5.733,7.867,10.217,12.7,13.45l1.6,1.05c0.167,0.1,0.35,0.2,0.55,0.3c-1.4-0.333-2.633-0.65-3.7-0.95
	c-3.133-0.867-6.567-3.85-10.3-8.95l-4.7-7.4c-3.633-3.167-6.583-5.883-8.85-8.15c-0.367-0.367-0.733-0.816-1.1-1.35V129
	C164.933,127.767,165.7,126.583,166.3,125.45z M161.9,125.5v-0.05c-0.967-2.034-2.183-3.567-3.65-4.6c-3.333-2.4-5.917-5.5-7.75-9.3
	c-0.667-1.4-2.4-6.017-5.2-13.85c-1.267-3.667-2.25-12.117-2.95-25.35c0.433,2,0.883,3.933,1.35,5.8L148.35,96
	c0.433,1.5,0.867,2.9,1.3,4.2c1.733,5.133,5.633,11.483,11.7,19.05c0.867,1.067,1.7,2.117,2.5,3.15
	C163.383,123.433,162.733,124.467,161.9,125.5z M48.35,607.95c0.8-1.601,1.767-3.733,2.9-6.4c2.267-5.333,4.25-10.7,5.95-16.1
	c3.633-11.4,6.65-23.066,9.05-35c2.6-12.867,3.9-23.217,3.9-31.05c0-7.267,1.133-17.717,3.4-31.351
	c1.8-10.833,3.617-19.916,5.45-27.25c1.6-6.333,2.633-13.967,3.1-22.899c0.2-3.967,0.3-9.967,0.3-18V361.35
	c0-2.466-0.967-14.85-2.9-37.149c-2.2-25.467-3.5-41.25-3.9-47.35c-1.467-18.5-2.65-33.483-3.55-44.95
	c-1.7-21.5-2.55-35.816-2.55-42.95c0-4.733-0.633-10.883-1.9-18.45l-2.65-13.4c-0.333-1.467-0.667-2.95-1-4.45
	c2.167,2.867,3.55,4.917,4.15,6.15c1.066,2.1,2.517,6.034,4.35,11.8c1.566,4.967,2.066,7.633,1.5,8c-0.167,0.1-0.483,0.233-0.95,0.4
	c-0.367,0.367-0.55,1.2-0.55,2.5c0,4.067,0.9,10.183,2.7,18.35l1.35-14.95l0.35,6.9c0.233,5.1,0.35,8.934,0.35,11.5
	c0,3.2,0.316,6.95,0.95,11.25c0.667,4.534,1.483,8.267,2.45,11.2c0.867,2.567,1.683,15.033,2.45,37.4
	c0.4,11.2,0.717,22.133,0.95,32.8l2.75,19.75v15.649l-2.05-7.5v21.8c0,2.033,0.233,6.35,0.7,12.949
	c0.434,6.601,0.65,13.65,0.65,21.15c0,6.066,0.6,14.116,1.8,24.15c0.9,7.533,0.983,12.866,0.25,16
	c-3.167,13.733-4.75,26.233-4.75,37.5V467.6c0,2.7-0.434,6.367-1.3,11c-0.833,4.534-1.767,8.367-2.8,11.5
	c-0.8,2.4-1.433,6.117-1.9,11.15c-0.467,5.333-0.75,8.2-0.85,8.6c-0.233,1-0.667,0-1.3-3c-0.434-2.066-0.85-4.399-1.25-7
	c-0.1,1.4-0.15,2.917-0.15,4.551c0,1.866-0.15,4-0.45,6.399c-0.4,3.367-0.7,6.684-0.9,9.95c-0.133,2.033-0.45,5.5-0.95,10.4
	c-0.3,2.833-0.45,5.949-0.45,9.35c0,5.467-0.033,9.384-0.1,11.75c-0.067,3.767-0.25,7.35-0.55,10.75
	c-0.3,3.134-2.617,8.816-6.95,17.05c-2.167,4.134-4.317,7.95-6.45,11.45l-1.85,10.05l-2.5,6.4c-0.1-0.8-0.267-1.5-0.5-2.101
	c-0.433-1.267-0.933-1.466-1.5-0.6c-0.5,0.733-1.45,2.366-2.85,4.9c-1.633,3.066-2.733,5.066-3.3,6
	c-0.533,0.899-1.883,1.866-4.05,2.899c-1.534,0.733-3.9,1.65-7.1,2.75c3.267-2.033,6.75-4.95,10.45-8.75L48.35,607.95z
	 M22.45,625.65c-0.567-0.101-0.9-0.184-1-0.25c-0.434-0.301,0.917-0.601,4.05-0.9l-0.2,0.1l-2.1,0.801L22.45,625.65z M64.7,626.35
	c0.267-1.466,0.617-3.066,1.05-4.8c0.4-1.633,0.817-3.033,1.25-4.2l1.35-3.05c0.867-1.3,2.033-2.866,3.5-4.7l5.35-6.399
	c0.867-0.566,2.033-3.7,3.5-9.4l1.95-8.35l-0.15,5.899c-0.233,4.2-0.633,7.017-1.2,8.45c-1.2,2.934-3.483,7.7-6.85,14.3
	C73.55,615.9,70.3,619.983,64.7,626.35z M221.95,209.15l1.05,6.4v16.35c0,4.833,0.35,9.017,1.05,12.55c0.333,1.733,0.667,3,1,3.8
	l0.65,2.15c0.7,1.7,1.617,3.25,2.75,4.65c1.133,1.434,1.583,4.017,1.35,7.75c-0.133,1.867-0.367,3.6-0.7,5.2l-1.35-4.75
	c-0.567-2-1.533-2.933-2.9-2.8c-0.1,0-0.2,0.017-0.3,0.05c-0.133,0-0.25,0.033-0.35,0.1c-0.434,0.1-0.833,0.3-1.2,0.6l1,12.15
	l0.05,0.6c0.3,4.233,0.534,8.133,0.7,11.7c0.2,4.667,0.3,8.767,0.3,12.3c0,5.633,0.117,13.733,0.35,24.3
	c0.2,10.566,0.3,16.783,0.3,18.65c0,7.866-0.017,12.267-0.05,13.199c-0.3,5.534-1.183,9.767-2.65,12.7
	c-1.4,2.8-1.933,12.816-1.6,30.05c0.167,9.034,0.467,19.9,0.9,32.601c0,6.833,0.45,17.05,1.35,30.649v8.851
	c0,1.366-0.1,3.649-0.3,6.85c-0.233,3.167-0.35,6.117-0.35,8.851c0,2.5-0.133,7.783-0.4,15.85c-0.133,7.333,0.217,12.267,1.05,14.8
	c0.867,2.566,1.283,6.667,1.25,12.3c0,2.834-0.1,5.4-0.3,7.7c-0.167-1.533-0.483-3.434-0.95-5.7c-0.267-1.399-1.367-2.85-3.3-4.35
	l-2.8-1.8v8.2c0,0.866-0.8,5.216-2.4,13.05c-1.6,7.833-2.4,13.017-2.4,15.55c0,11.8-0.217,21.333-0.65,28.6
	c-0.3,4.567-0.383,7.867-0.25,9.9c0.066,1.033,0.15,1.6,0.25,1.7l-4.1-2.7l-5.45,5.45c-2.267,2.267-6.617,4.649-13.05,7.149
	c-3.2,1.233-6.183,2.25-8.95,3.051c1.267-0.767,2.5-1.534,3.7-2.301c0.3-0.199,0.6-0.383,0.9-0.55
	c7.267-4.633,12.684-8.533,16.25-11.7c3.467-3.066,5.4-6.583,5.8-10.55c-0.233-4.133-0.35-6.967-0.35-8.5
	c0-1.366,0.167-5.083,0.5-11.149c0.3-6.034,0.45-10.2,0.45-12.5c0-1.434,1.067-7.217,3.2-17.351c2.1-10.133,3.15-17.967,3.15-23.5
	c0-3.267,1.1-12.916,3.3-28.95c1.867-13.666,2.283-23.1,1.25-28.3c-1.133-5.566-1.333-24.217-0.6-55.95
	c1-32.333,1.5-50.316,1.5-53.949v-89.9c0-6.067-0.15-17.733-0.45-35l-0.25-12.6c-0.033-0.6-0.05-1.2-0.05-1.8h0.05l2.95-0.1
	C221.85,208.85,221.883,208.983,221.95,209.15z M85.4,490.75c0.567-3.967,1.067-7.983,1.5-12.05l0.5-4.95l1.05,8.6
	c0.667,6.034,1,9.75,1,11.15c0,1.066,0.117,2.8,0.35,5.2c0.233,2.366,0.35,4.267,0.35,5.7c0,2.733-1.367,14.767-4.1,36.1l-0.2-3.4
	c-0.3-5.166-0.45-9.25-0.45-12.25V507.1c0-0.333-0.066-3.316-0.2-8.949C85.1,494.816,85.167,492.35,85.4,490.75z M496.25,549.5
	c-0.066-0.6,0.134-1.767,0.6-3.5c0.134,1.167,0.117,2.066-0.05,2.7C496.5,549.8,496.316,550.066,496.25,549.5z"/>
<linearGradient id="SVGID_1_" gradientUnits="userSpaceOnUse" x1="286.5498" y1="623.9502" x2="411.7002" y2="623.9502">
	<stop  offset="0" style="stop-color:#000000;stop-opacity:0.298"/>
	<stop  offset="0.8588" style="stop-color:#000000;stop-opacity:0.298"/>
	<stop  offset="1" style="stop-color:#000000;stop-opacity:0.298"/>
</linearGradient>
<path style="fill-rule:evenodd;clip-rule:evenodd;fill:url(#SVGID_1_);" d="M297.8,619.75l-1.899,1.85
	c1.199,0.301,2.633,0.534,4.3,0.7c3.333,0.3,6.133,0.066,8.399-0.7c1.534-0.533,3.034-0.5,4.5,0.101
	c0.634,0.267,1.233,0.35,1.801,0.25c0.6-0.134,1.366-0.483,2.3-1.05l0.95-0.65c2.966-2.5,4.883-4.083,5.75-4.75
	c1.267-0.934,2.833-1.033,4.699-0.3c1.9,0.767,4.284,1.899,7.15,3.399c1.434,0.767,2.684,1.45,3.75,2.051l3.4,4.649
	c0.666,0.8,1.333,1.5,2,2.101c-0.767-0.233-1.301-0.4-1.601-0.5c-1.666-0.634-3.05-1.467-4.149-2.5
	c-0.667-0.767-1.117-1.217-1.351-1.351c-0.2-0.166-0.916-0.267-2.149-0.3c-3.467-0.2-6-0.434-7.601-0.7
	c-1.3-0.267-3.083-0.366-5.35-0.3c-0.267,0-0.816-0.05-1.65-0.15c-0.767-0.033-1.3,0.034-1.6,0.2c-0.267,0.167-0.5,0.434-0.7,0.8
	c-0.2,0.4-0.333,0.634-0.4,0.7c-1.566,1.101-4.35,1.566-8.35,1.4c-0.467,0-2.3-0.101-5.5-0.3c-2.267-0.167-4.15-0.167-5.65,0
	c-2.267,0.267-3.949,0.449-5.05,0.55c-0.633,0.066-1.083,0.1-1.35,0.1c-1.601,0.101-2.9,0.084-3.9-0.05c-0.934-0.1-1.6-0.3-2-0.6
	c0.667-0.367,1.7-0.7,3.101-1c1.433-0.334,2.466-0.667,3.1-1c0.3-0.167,0.616-0.334,0.95-0.5c0.133-0.101,0.283-0.184,0.45-0.25
	C295.35,620.983,296.566,620.35,297.8,619.75z M401.75,615.6c-0.225-0.1-0.441-0.199-0.65-0.3l-6-3.149
	c4.134,0.866,6.217,1.3,6.25,1.3C401.316,614.184,401.45,614.9,401.75,615.6z M374,635.75c-0.033-0.1-0.05-0.184-0.05-0.25
	l-0.55-1.45c-0.034-0.033-0.051-0.066-0.051-0.1c-0.033-0.033-0.05-0.066-0.05-0.101c-0.166-0.3-0.333-0.6-0.5-0.899
	c-0.066-0.101-0.116-0.184-0.149-0.25c-0.067-0.066-0.101-0.117-0.101-0.15c-0.1-0.133-0.184-0.25-0.25-0.35
	c-0.1-0.134-0.184-0.267-0.25-0.4c-0.066-0.066-0.116-0.149-0.149-0.25c-0.067-0.033-0.101-0.066-0.101-0.1
	c-0.066-0.101-0.133-0.184-0.2-0.25c-0.033-0.101-0.083-0.184-0.149-0.25c-0.2-0.267-0.4-0.55-0.601-0.851l-3.199-4l-0.9-4.5
	c1.267-0.199,2.483-0.333,3.65-0.399v0.05c2.133-0.1,3.949-0.066,5.449,0.1l1.65,0.25c0.033,0,0.083,0,0.15,0
	c1.267,0.267,3.05,0.567,5.35,0.9c1.767,0.267,3.316,0.566,4.65,0.9c1.6,0.399,4.166,0.666,7.699,0.8
	c2.134,0.066,5.617,0.1,10.45,0.1h0.05c0.034,0,0.084,0,0.15,0c0.033,0,0.066,0,0.1,0c0.067,0,0.167,0,0.301,0l3.3,0.2
	c0.5,0,1.05,0.033,1.649,0.1c0.101,0.034,0.217,0.084,0.351,0.15c-5.101-0.267-11.2-0.333-18.3-0.2
	c-4.101,0.101-10.2,0.283-18.301,0.55c0.067,0.667,0.483,1.301,1.25,1.9c0.967,0.767,1.551,1.35,1.75,1.75
	c-0.699,0.333-1.716,0.467-3.05,0.4c-2.033-0.034-3.116-0.051-3.25-0.051c0.2,0.301,1.05,1.084,2.55,2.351
	c1.134,1,1.684,1.85,1.65,2.55c-0.134,0.033-0.333,0.116-0.6,0.25c-0.233,0.134-0.434,0.2-0.601,0.2
	c0.033,0.033,0.084,0.217,0.15,0.55c0.066,0.267,0.166,0.483,0.3,0.65C374.85,635.717,374.434,635.75,374,635.75z"/>
<radialGradient id="SVGID_2_" cx="357.5" cy="608.1504" r="87.725" gradientTransform="matrix(1 0 0 -0.4192 0 863.0917)" gradientUnits="userSpaceOnUse">
	<stop  offset="0" style="stop-color:#000000;stop-opacity:0.6863"/>
	<stop  offset="1" style="stop-color:#000000;stop-opacity:0"/>
</radialGradient>
<path style="fill-rule:evenodd;clip-rule:evenodd;fill:url(#SVGID_2_);" d="M297.8,619.7v0.05c-1.233,0.6-2.45,1.233-3.649,1.9
	c-0.233-0.067-0.551-0.134-0.95-0.2c-0.601-0.134-1.084-0.2-1.45-0.2C292.184,621.083,294.2,620.566,297.8,619.7z M344.9,627.4
	c1.966,1.899,3.8,2.983,5.5,3.25l1,0.25c0.6,0.166,1.017,0.366,1.25,0.6c0.199,0.233,0.399,0.6,0.6,1.1
	c0.1,0.134,0.25,0.267,0.45,0.4v0.05c0.767,0.601,2.45,1.084,5.05,1.45l-0.1-0.05c0.833,0.133,1.767,0.25,2.8,0.35
	c4.2,0.434,7.866,1.15,11,2.15c0.767,0.267,1.217,0.366,1.35,0.3c0.134-0.066,0.2-0.45,0.2-1.15c0-0.1,0-0.216,0-0.35
	c0.434,0,0.85-0.033,1.25-0.1c-0.134-0.167-0.233-0.384-0.3-0.65c-0.066-0.333-0.117-0.517-0.15-0.55c0.167,0,0.367-0.066,0.601-0.2
	c0.267-0.134,0.466-0.217,0.6-0.25c0.033-0.7-0.517-1.55-1.65-2.55c-1.5-1.267-2.35-2.05-2.55-2.351c0.134,0,1.217,0.017,3.25,0.051
	c1.334,0.066,2.351-0.067,3.05-0.4c-0.199-0.4-0.783-0.983-1.75-1.75c-0.767-0.6-1.183-1.233-1.25-1.9
	c8.101-0.267,14.2-0.449,18.301-0.55c7.1-0.133,13.199-0.066,18.3,0.2c-0.134-0.066-0.25-0.116-0.351-0.15
	c0.434,0,0.9,0.017,1.4,0.051l5.15,0.35c0.1,0,0.199,0,0.3,0c3.899,0.233,4.616,0,2.149-0.7c-2.633-0.733-7.366-2.85-14.199-6.35
	c-0.067-0.033-0.117-0.066-0.15-0.101l-3.85-2c-0.134-0.1-0.267-0.183-0.4-0.25c-0.3-0.699-0.434-1.416-0.4-2.149
	c-0.033,0-2.116-0.434-6.25-1.3c-0.233-0.134-0.449-0.233-0.649-0.301l-0.75-0.399c-0.134-0.066-0.267-0.134-0.4-0.2
	c-0.033-0.033-0.066-0.05-0.1-0.05l-0.05-0.05c-3.067-1.567-5.9-3.267-8.5-5.101l-0.9-0.649c-0.066-0.067-0.134-0.117-0.2-0.15
	c2.3-0.033,4.066,0,5.3,0.1c4.567,0.334,7.483,1.101,8.75,2.301c-1.533,0.166-2.966,0.483-4.3,0.949c0.8,0.301,2.4,0.684,4.8,1.15
	c2.101,0.434,3.733,0.95,4.9,1.55c0.767,0.434,2.033,1.417,3.8,2.95c1.601,1.4,2.9,2.283,3.9,2.65c2.133,0.8,6.316,1.483,12.55,2.05
	c5.533,0.5,9.616,1.55,12.25,3.149c-1.267,0.9-2.9,1.7-4.9,2.4c-1.199,0.4-2.949,0.9-5.25,1.5c0.367,0.366,1.284,0.6,2.75,0.7
	c1.233,0.066,1.934,0.55,2.101,1.45c-1.066,0.133-4.4,0.666-10,1.6c-3.967,0.667-7.384,1-10.25,1c-1.9-0.033-3.75,0.134-5.55,0.5
	c-1.2,0.267-2.95,0.75-5.25,1.45c-0.801,0.233-2.967,0.399-6.5,0.5c-3.233,0.066-5.367,0.383-6.4,0.95
	c0.233,0.199,0.483,0.55,0.75,1.05c0.3,0.533,0.5,0.866,0.6,1c-1.166,0.066-2.949,0.083-5.35,0.05c0.967,0.6,2.517,1.35,4.65,2.25
	c2.133,0.833,3.683,1.566,4.649,2.2c-3.899,0.2-9.149,0.033-15.75-0.5c-7.899-0.634-13.2-0.967-15.899-1c-2.067,0-3.95-0.334-5.65-1
	c-1.066-0.434-2.75-1.25-5.05-2.45c-1.233-0.566-5.851-1.017-13.851-1.35c-7.066-0.267-10.649-0.967-10.75-2.101
	c2.2-0.133,3.9-0.649,5.101-1.55c-0.467-0.5-1.233-0.833-2.3-1c-1.434-0.267-2.25-0.434-2.45-0.5c0.233-0.134,0.533-0.467,0.899-1
	c0.367-0.533,0.601-0.85,0.7-0.95c-2-0.166-4.717-0.2-8.149-0.1c-3.534,0.133-6.15,0.133-7.851,0c-0.633-0.033-1.816,0-3.55,0.1
	c-1.533,0.101-2.717,0.084-3.55-0.05c-0.9-0.134-2.066-0.467-3.5-1c-1.5-0.566-2.617-0.917-3.351-1.05
	c-0.8-0.134-1.733-0.217-2.8-0.25c1.101-0.101,2.783-0.283,5.05-0.55c1.5-0.167,3.384-0.167,5.65,0c3.2,0.199,5.033,0.3,5.5,0.3
	c4,0.166,6.783-0.3,8.35-1.4c0.067-0.066,0.2-0.3,0.4-0.7c0.2-0.366,0.434-0.633,0.7-0.8c0.3-0.166,0.833-0.233,1.6-0.2
	c0.834,0.101,1.384,0.15,1.65,0.15c2.267-0.066,4.05,0.033,5.35,0.3c1.601,0.267,4.134,0.5,7.601,0.7
	c1.233,0.033,1.949,0.134,2.149,0.3c0.233,0.134,0.684,0.584,1.351,1.351c1.1,1.033,2.483,1.866,4.149,2.5
	C343.6,627,344.134,627.167,344.9,627.4z M288.55,625c-0.066,0-0.116,0-0.149,0c-4.034,0.2-6.767,0.25-8.2,0.15
	c0.066-1.067,2.1-1.867,6.1-2.4c3.601-0.333,6.066-0.616,7.4-0.85c-0.334,0.166-0.65,0.333-0.95,0.5c-0.634,0.333-1.667,0.666-3.1,1
	c-1.4,0.3-2.434,0.633-3.101,1C286.95,624.7,287.616,624.9,288.55,625z"/>
<linearGradient id="SVGID_3_" gradientUnits="userSpaceOnUse" x1="448.2998" y1="591.4473" x2="555.9502" y2="591.4473">
	<stop  offset="0" style="stop-color:#000000;stop-opacity:0.298"/>
	<stop  offset="0.8588" style="stop-color:#000000;stop-opacity:0.298"/>
	<stop  offset="1" style="stop-color:#000000;stop-opacity:0.298"/>
</linearGradient>
<path style="fill-rule:evenodd;clip-rule:evenodd;fill:url(#SVGID_3_);" d="M473.25,591.75c1.366-0.667,2.667-1.55,3.9-2.65
	c1.5-1.366,2.833-2.05,4-2.05l2.75,0.3c1.199,0.267,2.616,0.667,4.25,1.2l2.699,0.95c0.9,0.366,1.9,0.767,3,1.2
	c1.2,0.467,2.9,1.633,5.101,3.5c1.833,1.566,3.767,2.517,5.8,2.85l5.45,0.9c-0.434-0.434-0.617-0.917-0.55-1.45
	c0.166-1.066,1.566-1.783,4.199-2.15c4.634-0.699,7.4-1.083,8.301-1.149c0.811-0.076,1.577-0.126,2.3-0.15l1.85,0.05l2.101,0.301
	c2.399,0.633,5.716,0.949,9.949,0.949h10.9c-3.467-4.066-6.366-7.566-8.7-10.5c1.9,0.467,3.167,1.017,3.8,1.65
	c0.301,0.333,0.483,0.833,0.551,1.5c0.1,0.733,0.283,1.283,0.55,1.65c0.399,0.533,1.434,0.933,3.1,1.199
	c1.533,0.267,2.45,0.767,2.75,1.5c-0.3-0.033-0.733-0.017-1.3,0.051c-0.6,0.033-1.017,0.05-1.25,0.05
	c0.033,0.934,1.017,1.783,2.95,2.55c1.066,0.4,2.483,0.866,4.25,1.4c-1.233,0-2.634,0.116-4.2,0.35
	c-1.767,0.3-3.116,0.517-4.05,0.65c-0.533,0.066-1.834,0.033-3.9-0.101c-1.666-0.133-2.916,0-3.75,0.4
	c-0.267,0.133-0.85,0.483-1.75,1.05c-0.467,0.3-1.116,0.517-1.95,0.65c-1.1,0.166-2.3,0.133-3.6-0.101
	c-0.634-0.133-1.8-0.434-3.5-0.899c-1.1-0.334-1.967-0.584-2.6-0.75c-1.101-0.267-1.967-0.367-2.601-0.301
	c-0.633,0.067-1.184,0.301-1.649,0.7c-0.7,0.533-1.15,0.851-1.351,0.95c-0.333,0.167-1.3,0.25-2.899,0.25
	c-1.233-0.033-1.867,0.217-1.9,0.75c-2.934,0.2-6.733-0.283-11.4-1.45c-5.333-1.333-9.05-2.066-11.149-2.2
	c0.3-1.399,0.434-2.149,0.399-2.25c-0.133-0.267-0.883-0.5-2.25-0.699c-3.566-0.467-6.149-0.684-7.75-0.65
	c0.367-0.1,0.884-0.267,1.551-0.5c-0.9-0.6-2.45-1-4.65-1.2c-1.434-0.1-2.316-0.1-2.65,0c-0.233,0.066-0.55,0.233-0.949,0.5
	c-0.4,0.267-0.667,0.417-0.801,0.45C475.233,591.3,474.116,591.55,473.25,591.75z M468.95,593c-0.467,0.167-0.917,0.366-1.351,0.6
	c-0.733,0.367-1.35,0.601-1.85,0.7c-0.3,0.033-0.983,0.066-2.05,0.101c-0.9,0.033-2.184-0.067-3.851-0.301
	c-1.699-0.233-2.966-0.35-3.8-0.35c-1.7,0.2-3.017,0.333-3.95,0.4c-1.699,0.166-2.966,0.033-3.8-0.4
	c0.167-0.134,0.367-0.25,0.601-0.35c0.767-0.434,1.699-0.817,2.8-1.15c1.366-0.434,2.5-0.6,3.399-0.5l-1.199,0.75
	c1.833,0.3,3.916,0.533,6.25,0.7C463.65,593.434,466.583,593.366,468.95,593z"/>
<radialGradient id="SVGID_4_" cx="505.75" cy="583.75" r="81.3" gradientTransform="matrix(1 0 0 -0.3733 0 801.6689)" gradientUnits="userSpaceOnUse">
	<stop  offset="0" style="stop-color:#000000;stop-opacity:0.6863"/>
	<stop  offset="1" style="stop-color:#000000;stop-opacity:0"/>
</radialGradient>
<path style="fill-rule:evenodd;clip-rule:evenodd;fill:url(#SVGID_4_);" d="M469.375,592.9h0.025l0.399-0.051
	c0.233-0.066,0.483-0.116,0.75-0.149c0.2-0.066,0.4-0.134,0.601-0.2c0.699-0.2,1.399-0.45,2.1-0.75c0.866-0.2,1.983-0.45,3.35-0.75
	c0.134-0.033,0.4-0.184,0.801-0.45c0.399-0.267,0.716-0.434,0.949-0.5c0.334-0.1,1.217-0.1,2.65,0c2.2,0.2,3.75,0.601,4.65,1.2
	c-0.667,0.233-1.184,0.4-1.551,0.5c1.601-0.033,4.184,0.184,7.75,0.65c1.367,0.199,2.117,0.433,2.25,0.699
	c0.034,0.101-0.1,0.851-0.399,2.25c2.1,0.134,5.816,0.867,11.149,2.2c4.667,1.167,8.467,1.65,11.4,1.45
	c0.033-0.533,0.667-0.783,1.9-0.75c1.6,0,2.566-0.083,2.899-0.25c0.2-0.1,0.65-0.417,1.351-0.95c0.466-0.399,1.017-0.633,1.649-0.7
	c0.634-0.066,1.5,0.034,2.601,0.301c0.633,0.166,1.5,0.416,2.6,0.75c1.7,0.466,2.866,0.767,3.5,0.899c1.3,0.233,2.5,0.267,3.6,0.101
	c0.834-0.134,1.483-0.351,1.95-0.65c0.9-0.566,1.483-0.917,1.75-1.05c0.834-0.4,2.084-0.533,3.75-0.4
	c2.066,0.134,3.367,0.167,3.9,0.101c0.934-0.134,2.283-0.351,4.05-0.65c1.566-0.233,2.967-0.35,4.2-0.35
	c-1.767-0.534-3.184-1-4.25-1.4c-1.934-0.767-2.917-1.616-2.95-2.55c0.233,0,0.65-0.017,1.25-0.05c0.566-0.067,1-0.084,1.3-0.051
	c-0.3-0.733-1.217-1.233-2.75-1.5c-1.666-0.267-2.7-0.666-3.1-1.199c-0.267-0.367-0.45-0.917-0.55-1.65
	c-0.067-0.667-0.25-1.167-0.551-1.5c-0.633-0.634-1.899-1.184-3.8-1.65c-0.1-0.166-0.217-0.316-0.35-0.449
	c-0.033-0.034-0.066-0.084-0.101-0.15c1.767,0.467,2.717,0.717,2.851,0.75c2.434,0.7,4.566,1.45,6.399,2.25
	c2,0.9,4.101,2.017,6.301,3.35c0.899,0.567,2.816,1.817,5.75,3.75c1,0.634,2.333,1.2,4,1.7c2.033,0.601,3.366,1.033,4,1.3
	c-1.101,0.334-2.617,0.483-4.551,0.45c-2.666-0.033-4.25-0.033-4.75,0c0.5,0.601,1.217,1.217,2.15,1.851
	c0.533,0.333,1.333,0.833,2.4,1.5c-0.767,0.066-2.5,0.066-5.2,0c-2.2-0.067-3.9,0.017-5.101,0.25c-0.033,0.767-0.05,3.017-0.05,6.75
	c-2.566,0.333-5.8-0.051-9.7-1.15c-6.233-1.767-9.433-2.667-9.6-2.7c-8.267-1.6-12.15-0.316-11.65,3.851
	c-7.933,0.533-13.35,0.35-16.25-0.551c-0.433-0.133-0.899-0.433-1.399-0.899c-0.467-0.5-0.983-0.834-1.55-1
	c-1-0.3-2.45-0.4-4.351-0.3c-2.1,0.199-3.583,0.333-4.45,0.399c0.167,0.367,0.301,0.983,0.4,1.851c-3.634,0.267-6.967-0.034-10-0.9
	c-0.267-0.1-0.7-0.35-1.3-0.75c-0.533-0.434-1.017-0.7-1.45-0.8c-0.6-0.134-1.65-0.15-3.15-0.05c-1.333,0.066-2.35-0.067-3.05-0.4
	c0.467-0.767,0.8-1.267,1-1.5c-1.1-1.366-3.8-1.95-8.1-1.75c-4.733,0.5-7.816,0.75-9.25,0.75H433.1c1.301-0.066,2.9-0.55,4.801-1.45
	c2.333-1.166,3.883-1.85,4.649-2.05c0.733-0.2,2.667-0.4,5.8-0.6c2.467-0.167,4.184-0.617,5.15-1.351
	c-2.267-0.166-5.733-0.184-10.4-0.05c2.233-0.934,3.934-1.634,5.101-2.1c0.233-0.101,0.467-0.184,0.7-0.25
	c-0.233,0.1-0.434,0.216-0.601,0.35c0.834,0.434,2.101,0.566,3.8,0.4c0.934-0.067,2.25-0.2,3.95-0.4c0.834,0,2.101,0.116,3.8,0.35
	c1.667,0.233,2.95,0.334,3.851,0.301c1.066-0.034,1.75-0.067,2.05-0.101c0.5-0.1,1.116-0.333,1.85-0.7
	c0.434-0.233,0.884-0.433,1.351-0.6C469.075,592.969,469.217,592.936,469.375,592.9z"/>
<radialGradient id="SVGID_5_" cx="225.0498" cy="594.5498" r="83.525" gradientTransform="matrix(1 0 0 -0.6205 0 963.4518)" gradientUnits="userSpaceOnUse">
	<stop  offset="0" style="stop-color:#000000;stop-opacity:0.6863"/>
	<stop  offset="1" style="stop-color:#000000;stop-opacity:0"/>
</radialGradient>
<path style="fill-rule:evenodd;clip-rule:evenodd;fill:url(#SVGID_5_);" d="M184.25,611.1l-5.15,1.65c1.133,0.8,2.933,1.4,5.4,1.8
	c1.033,0.134,2.983,0.316,5.85,0.55c1.833,0.101,4.8-0.033,8.9-0.399c3.867-0.367,6.8-0.45,8.8-0.25l0.1,0.899
	c2.233,0.034,3.9,0.067,5,0.101c1.967,0.066,3.617,0.267,4.95,0.6c-0.1,0.2-0.217,0.634-0.35,1.3c2.767,0.167,5.267,0.184,7.5,0.051
	c0.733-0.067,1.433-0.2,2.1-0.4c0.867-0.333,1.467-0.533,1.8-0.6c1.967-0.434,4.483-0.617,7.55-0.551c3.466,0.134,6,0.2,7.6,0.2
	c1.034,0,1.967-0.1,2.8-0.3c0.933-0.3,1.717-0.533,2.35-0.7c1.767-0.467,4.367-0.816,7.8-1.05c3.667-0.233,6.283-0.517,7.85-0.85
	c1.367-0.301,2.95-0.5,4.75-0.601c1.9-0.066,3.417-0.116,4.55-0.149l1.5,0.1c-0.066-0.033-0.133-0.066-0.2-0.1l-3.55-1.9
	c-0.367-0.2-0.733-0.4-1.1-0.6c0.867,0.199,1.534,0.366,2,0.5c4.767,1.267,9.067,2.75,12.9,4.449c-1.167,0.567-2.7,0.867-4.6,0.9
	c-1.033,0.033-2.617,0.05-4.75,0.05c0.066,0.233,0.05,0.634-0.05,1.2c-0.066,0.566-0.083,0.95-0.05,1.15
	c-1.1,0-2.967-0.101-5.6-0.301c-2.433-0.166-4.333-0.216-5.7-0.149c-1.7,0.1-2.7,0.166-3,0.2c-1.267,0.166-2.184,0.466-2.75,0.899
	c-0.534,0.4-1.034,1.101-1.5,2.101c-0.4,0.933-0.9,1.55-1.5,1.85c-0.5,0.267-2.067,0.2-4.7-0.2c-1.533-0.233-4.167-0.666-7.9-1.3
	c-7.067-0.967-10.35-0.15-9.85,2.45c-1.8,0.1-5.067-0.101-9.8-0.601c-1.267-0.133-4.2-0.183-8.8-0.149c-3.7,0-6.633-0.25-8.8-0.75
	c2.5-0.066,4.15-0.533,4.95-1.4c-0.333-0.033-1.716-0.05-4.15-0.05c-1.7,0-3.083-0.134-4.15-0.4l0.25-0.55
	c-3.833-0.3-8.8-0.267-14.9,0.101c-8.3,0.533-13.283,0.816-14.95,0.85c2.467-0.934,5.517-1.767,9.15-2.5
	c-1-1.267-3.933-1.816-8.8-1.65c-1.6,0.034-3.467,0.134-5.6,0.301c1.133-0.233,2.3-0.567,3.5-1c1-0.367,3.367-1.417,7.1-3.15
	c2.167-1,4.217-1.733,6.15-2.2C184.85,610.717,184.55,610.9,184.25,611.1z"/>
<linearGradient id="SVGID_6_" gradientUnits="userSpaceOnUse" x1="179.1001" y1="610.6445" x2="274.7751" y2="610.6445">
	<stop  offset="0" style="stop-color:#000000;stop-opacity:0.298"/>
	<stop  offset="0.8588" style="stop-color:#000000;stop-opacity:0.298"/>
	<stop  offset="1" style="stop-color:#000000;stop-opacity:0.298"/>
</linearGradient>
<path style="fill-rule:evenodd;clip-rule:evenodd;fill:url(#SVGID_6_);" d="M180.55,613.4c0.9,0.166,2.3,0.283,4.2,0.35
	c0.133,0,0.25,0.017,0.35,0.05l6.05-0.05c1.633-0.033,3.367-0.116,5.2-0.25c0.467-0.033,0.95-0.066,1.45-0.1
	c3.934-0.301,5.9-0.667,5.9-1.101c0-0.166,1.966-0.1,5.9,0.2c4.133,0.3,7.433,0.866,9.9,1.7c2.033,0.666,4.183,1,6.45,1
	c3.033,0,6.15-0.233,9.35-0.7l3.95-0.7c2.633-0.267,5.767-0.399,9.4-0.399c1.133,0,3.434-0.417,6.9-1.25
	c3.067-0.7,6.517-0.884,10.35-0.551l8.5,0.801c-1.133,0.033-2.65,0.083-4.55,0.149c-1.8,0.101-3.383,0.3-4.75,0.601
	c-1.567,0.333-4.184,0.616-7.85,0.85c-3.433,0.233-6.033,0.583-7.8,1.05c-0.633,0.167-1.417,0.4-2.35,0.7
	c-0.833,0.2-1.767,0.3-2.8,0.3c-1.6,0-4.133-0.066-7.6-0.2c-3.067-0.066-5.583,0.117-7.55,0.551c-0.333,0.066-0.933,0.267-1.8,0.6
	c-0.667,0.2-1.367,0.333-2.1,0.4c-2.233,0.133-4.733,0.116-7.5-0.051c0.133-0.666,0.25-1.1,0.35-1.3
	c-1.333-0.333-2.983-0.533-4.95-0.6c-1.1-0.033-2.767-0.066-5-0.101l-0.1-0.899c-2-0.2-4.933-0.117-8.8,0.25
	c-4.1,0.366-7.067,0.5-8.9,0.399c-2.867-0.233-4.817-0.416-5.85-0.55c-2.467-0.399-4.267-1-5.4-1.8l5.15-1.65
	C183.05,611.866,181.817,612.634,180.55,613.4z M259.9,603.8c3.267,0.4,5.1,0.65,5.5,0.75c2.6,0.533,4.15,1.351,4.65,2.45
	c-0.733,0.066-2.05,0.066-3.95,0c-0.167,0-0.317,0-0.45,0c-0.267-0.167-0.533-0.316-0.8-0.45l-4.4-2.399l-0.05-0.051
	c-0.1-0.066-0.183-0.116-0.25-0.149C260.05,603.884,259.967,603.833,259.9,603.8z"/>
<radialGradient id="SVGID_7_" cx="76.3501" cy="620.75" r="81.75" gradientTransform="matrix(1 0 0 -0.4954 0 928.2775)" gradientUnits="userSpaceOnUse">
	<stop  offset="0" style="stop-color:#000000;stop-opacity:0.6863"/>
	<stop  offset="1" style="stop-color:#000000;stop-opacity:0"/>
</radialGradient>
<path style="fill-rule:evenodd;clip-rule:evenodd;fill:url(#SVGID_7_);" d="M25.3,624.6l0.2-0.1c-3.133,0.3-4.483,0.6-4.05,0.9
	c0.1,0.066,0.433,0.149,1,0.25c0.5,0.1,1.083,0.183,1.75,0.25c3.433,0.8,7.6,1.283,12.5,1.449c9.333,0.267,14.2,0.417,14.6,0.45
	c-0.9,0.167-1.75,0.483-2.55,0.95c0.667,0.4,3.817,0.333,9.45-0.2c2.767-0.233,4.833-0.2,6.2,0.101l-0.3,2.149
	c-0.733,0.334-1.583,0.783-2.55,1.351c-1.3,0.8-2.233,1.517-2.8,2.149l-1.55,0.9c-0.2,0.133-0.317,0.25-0.35,0.35
	c-0.033,0.033-0.033,0.066,0,0.101c0.133,0.1,0.6,0.1,1.4,0h0.05c1.667,0.133,3.817,0.133,6.45,0c3.567-0.167,5.783-0.25,6.65-0.25
	c1.633,0,3.25-0.284,4.85-0.851c0.3-0.1,1.8-0.733,4.5-1.899c2.267-0.934,4.983-1.351,8.15-1.25c3.633,0.333,6.383,0.55,8.25,0.649
	c-0.933,0.4-1.383,0.867-1.35,1.4c0.057,0.396,0.357,0.771,0.9,1.125c-0.929,5.146-1.379,8.038-1.35,8.675
	c0.033,0.7,0.1,1.167,0.2,1.4c-4.233,0.267-6.9,0.399-8,0.399c-3.2,0.066-5.833-0.1-7.9-0.5c0.033-2.5-4.45-3.333-13.45-2.5
	c-4.7,0.434-10.383,1.167-17.05,2.2c0.167,0.366,0.25,0.934,0.25,1.7c0,0.866,0.033,1.434,0.1,1.7c-1.333,0.199-2.867,0-4.6-0.601
	c-2.633-0.899-4.1-1.383-4.4-1.45c-2.133-0.433-4.683-0.633-7.65-0.6c-1.733,0-4.3,0.1-7.7,0.3c3.667-1.233,6.583-2.217,8.75-2.95
	c4.033-1.399,6.45-2.883,7.25-4.449c-0.967-0.2-2.283-0.284-3.95-0.25c-2.267,0.033-3.617,0.033-4.05,0
	c0.3-0.2,0.717-0.601,1.25-1.2c0.533-0.601,0.934-0.983,1.2-1.15c-1.067-0.1-2.95-0.149-5.65-0.149
	c-2.434-0.034-4.333-0.134-5.7-0.301c-2.6-0.3-6.2-0.267-10.8,0.101c-5.067,0.399-8.667,0.55-10.8,0.45
	c1.333-0.801,3.233-1.567,5.7-2.301c3.333-0.966,5.25-1.55,5.75-1.75c-1.467-0.199-3.267-0.283-5.4-0.25
	c-1.2,0.034-3,0.084-5.4,0.15c0.667-0.2,3.9-1.533,9.7-4c4.1-1.733,7.417-2.733,9.95-3c0.633-0.066,1.65-0.066,3.05,0
	c0.267,0.033,0.533,0.05,0.8,0.05l-0.8,0.2L25.3,624.6z M122.9,633.6c0.333,0.067,0.667,0.134,1,0.2l3.05,0.5
	c0.167,0,0.333,0.017,0.5,0.05l2.65,0.15c-0.067-0.066-0.133-0.15-0.2-0.25c-0.066-0.1-0.133-0.184-0.2-0.25
	c-2.967-3.634-5.567-6.767-7.8-9.4c0.767-0.066,1.967-0.05,3.6,0.051c0.4,0.033,0.783,0.033,1.15,0c0.5,0.3,0.934,0.6,1.3,0.899
	c0.433,0.334,0.767,0.733,1,1.2c0.233,0.5,0.433,0.816,0.6,0.95c0.167,0.166,0.867,1.066,2.1,2.7c0.833,1.1,1.817,1.883,2.95,2.35
	c0.233,0.1,2.85,0.65,7.85,1.65c3.7,0.767,5.9,1.85,6.6,3.25c-1.4,0.1-3.65,0.116-6.75,0.05c-2.933-0.066-5.167-0.033-6.7,0.1
	c0.566,0.867,1.816,1.483,3.75,1.851c2.2,0.433,3.633,0.949,4.3,1.55c-0.4,0.033-4.783-0.066-13.15-0.3
	c-5.367-0.167-9.65,0.267-12.85,1.3c-1.833,0.6-3.15,0.866-3.95,0.8c-0.233,0-1.633-0.3-4.2-0.9c-1.967-0.466-4.367-0.683-7.2-0.649
	c-1.155,0-2.53-2.134-4.125-6.4c0.598,0.023,1.306-0.076,2.125-0.3c0.5-0.167,1.55-0.583,3.15-1.25c1.367-0.566,2.767-0.9,4.2-1
	c1.1-0.1,2.583-0.05,4.45,0.15c4.7,0.5,7.333,0.767,7.9,0.8C121,633.517,121.967,633.566,122.9,633.6z"/>
<linearGradient id="SVGID_8_" gradientUnits="userSpaceOnUse" x1="22.4126" y1="625.2754" x2="129.3876" y2="625.2754">
	<stop  offset="0" style="stop-color:#000000;stop-opacity:0.298"/>
	<stop  offset="0.8588" style="stop-color:#000000;stop-opacity:0.298"/>
	<stop  offset="1" style="stop-color:#000000;stop-opacity:0.298"/>
</linearGradient>
<path style="fill-rule:evenodd;clip-rule:evenodd;fill:url(#SVGID_8_);" d="M24.2,625.9c3.133,0.3,8.233,0.449,15.3,0.449
	c1.7,0,3.917-0.333,6.65-1l3.55-1.05h10.25l4.05,1.75l0.7,0.3l-0.25,1.851l-0.05,0.45c-1.367-0.301-3.433-0.334-6.2-0.101
	c-5.633,0.533-8.784,0.601-9.45,0.2c0.8-0.467,1.65-0.783,2.55-0.95c-0.4-0.033-5.267-0.184-14.6-0.45
	C31.8,627.184,27.633,626.7,24.2,625.9z M58.75,634.3c0.567-0.633,1.5-1.35,2.8-2.149c0.967-0.567,1.817-1.017,2.55-1.351l-0.05,0.3
	L58.75,634.3z M26.8,624.3l3.45-0.85c-0.8,0.366-1.583,0.649-2.35,0.85l-1.9,0.2L26.8,624.3z M126.65,624.65
	c-0.367,0.033-0.75,0.033-1.15,0c-1.633-0.101-2.833-0.117-3.6-0.051c-0.7-0.833-1.367-1.616-2-2.35
	c-0.033-0.033-0.066-0.066-0.1-0.1c-0.066-0.101-0.15-0.2-0.25-0.301l-2.45-2.75c-0.1-0.1-0.184-0.199-0.25-0.3
	c1.7,1,3.483,1.9,5.35,2.7c2.7,1.2,5.1,1.967,7.2,2.3C128.9,624.333,127.983,624.616,126.65,624.65z M122.9,633.6
	c-0.933-0.033-1.9-0.083-2.9-0.149c-0.567-0.033-3.2-0.3-7.9-0.8c-1.867-0.2-3.35-0.25-4.45-0.15c-1.433,0.1-2.833,0.434-4.2,1
	c-1.6,0.667-2.65,1.083-3.15,1.25c-0.819,0.224-1.527,0.323-2.125,0.3c-0.328-0.905-0.67-1.905-1.025-3
	c-1.867-0.1-4.617-0.316-8.25-0.649c-3.167-0.101-5.883,0.316-8.15,1.25c-2.7,1.166-4.2,1.8-4.5,1.899
	c-1.6,0.566-3.217,0.851-4.85,0.851c-0.867,0-3.083,0.083-6.65,0.25c-2.633,0.133-4.783,0.133-6.45,0
	c1.167-0.167,3.083-0.551,5.75-1.15l9.5-2.05c5-0.9,9.55-1.8,13.65-2.7c2.533-0.566,4.65-1.2,6.35-1.9l1.8-0.85l8.85,0.7
	c1.833,0.467,4.117,1.149,6.85,2.05c0.333,0.1,1.95,0.667,4.85,1.7c1.7,0.6,3.483,1.166,5.35,1.7h0.05l0.1,0.05
	c0.067,0,0.15,0.017,0.25,0.05l0.85,0.25C122.633,633.533,122.767,633.566,122.9,633.6z M116.05,617.9
	c-0.167-0.2-0.316-0.384-0.45-0.551l-0.2-0.199c-0.1-0.134-0.2-0.25-0.3-0.351l-1.1-1.3c-0.2-0.233-0.383-0.467-0.55-0.7
	c0.1,0,0.216,0.017,0.35,0.05c1.767,0.267,2.867,0.467,3.3,0.601C117.3,616.45,116.95,617.267,116.05,617.9z M97.15,632.05
	c-0.163,0.893-0.313,1.734-0.45,2.525c-0.543-0.354-0.844-0.729-0.9-1.125C95.767,632.917,96.217,632.45,97.15,632.05z"/>
</svg>
