<?xml version="1.0" encoding="iso-8859-1"?>
<!-- Generator: Adobe Illustrator 15.1.0, SVG Export Plug-In . SVG Version: 6.00 Build 0)  -->
<!DOCTYPE svg PUBLIC "-//W3C//DTD SVG 1.1//EN" "http://www.w3.org/Graphics/SVG/1.1/DTD/svg11.dtd">
<svg version="1.1" id="FlashAICB" xmlns="http://www.w3.org/2000/svg" xmlns:xlink="http://www.w3.org/1999/xlink" x="0px" y="0px"
	 width="414.15px" height="145.1px" viewBox="0 0 414.15 145.1" style="enable-background:new 0 0 414.15 145.1;"
	 xml:space="preserve">
<path style="fill-rule:evenodd;clip-rule:evenodd;fill:#877F6E;" d="M3.25,66.85C2.083,66.883,1,66.9,0,66.9c0-0.1,0-0.2,0-0.3
	c0.033-1.233,0.083-3.033,0.15-5.4c0.133-4.067,0.333-9.8,0.6-17.2c0.2-6.833,0.35-13.333,0.45-19.5L1.35,9c0-0.1,0-0.183,0-0.25
	l0.65-4C13.367,5.017,21.867,5.033,27.5,4.8c2.7-0.1,6.7-0.55,12-1.35c5.3-0.767,9.283-1.217,11.95-1.35
	c2.466-0.1,5.066,0.133,7.8,0.7c3.233,0.8,5.767,1.4,7.6,1.8c6.066,1.333,14.217,1.566,24.45,0.7c4.3-0.367,10.383-0.6,18.25-0.7
	c8.434-0.167,14.5-0.367,18.2-0.6c12.733-1.5,22.233-2.583,28.5-3.25c11.133-1.133,20.683-0.967,28.65,0.5
	c20.9,3.9,40.133,5.517,57.7,4.85c3-0.1,6.817-0.667,11.45-1.7c6.101-1.3,9.917-2.066,11.45-2.3c5.634-0.833,11.95-1.267,18.95-1.3
	c4.5,0,10.833,0.2,19,0.6c4.333,0.2,12.1,0.967,23.3,2.3c9.733,1.133,17.5,1.7,23.3,1.7h30.65c3.366,0,8.5,0.25,15.399,0.75
	c6.767,0.533,11.817,0.783,15.15,0.75c0.967,1.267,1.566,3.133,1.8,5.6c0.101,2.867,0.2,4.95,0.3,6.25
	c0.301,3.3,0.5,7.05,0.601,11.25c0.033,2.1,0.05,5.867,0.05,11.3c0,0.067,0,0.15,0,0.25l-0.5,9.3c-0.134,1.167-0.267,2.383-0.4,3.65
	c-0.399,3.3-0.716,5.983-0.949,8.05L411.6,67.4l-0.25,0.05c-1.033,0.2-2.1,0.367-3.199,0.5c-3.034,0.4-6.301,0.617-9.801,0.65
	c-4.933,0.033-9.267-0.283-13-0.95c-4.066-0.767-9.783-1.017-17.149-0.75c-8.2,0.267-13.983,0.217-17.351-0.15
	c-5.1-0.567-11.833-0.633-20.199-0.2c-11.5,0.6-18.301,0.9-20.4,0.9c-8.233,0-15.467-0.35-21.7-1.05
	c-7.566-0.833-14.666-2.267-21.3-4.3c-9.767-2.967-22.45-3.067-38.05-0.3c-4.233,0.767-10.584,1.983-19.05,3.65
	c-7.367,1.3-13.684,1.966-18.95,2c-5.967,0.033-14.717-0.284-26.25-0.95c-11.8-0.7-20.567-1.05-26.3-1.05
	c-0.233,0-8.45,0.25-24.65,0.75c-9.9,0.3-18.083,0.066-24.55-0.7c-1.833-0.2-5.833-0.983-12-2.35c-4.967-1.1-9-1.633-12.1-1.6
	c-2.733,0.034-6.883,0-12.45-0.1c-4.833,0.033-8.967,0.35-12.4,0.95c-8.4,1.434-16.35,2.567-23.85,3.4
	C11.383,66.367,6.917,66.717,3.25,66.85z M410.7,28.1c-2.434-0.233-4.634,0.25-6.601,1.45c-0.233,1.434,0.25,2.417,1.45,2.95
	c1.033,0.467,2.267,0.517,3.7,0.15c0.4-1.133,0.217-2.2-0.55-3.2L410.7,28.1z M392,21.45c-3.033-0.3-5.983-0.117-8.85,0.55
	c-3.567,0.8-5.934,2.2-7.101,4.2c-0.399,0.7-0.583,2.083-0.55,4.15c0.033,1.167-0.1,2.15-0.4,2.95
	c1.467-1.867,4.617-4.017,9.45-6.45c5.967-3,10.233-4.367,12.8-4.1L392,21.45z M379.35,43.7l1.351-2.25
	c-4.5,0.7-7.967,1.483-10.4,2.35c-4.333,1.567-6.833,3.633-7.5,6.2c1.601-0.1,4.2-1.1,7.8-3c2.567-1.4,4.784-2.15,6.65-2.25
	c-1.634,0.967-3.134,2.25-4.5,3.85c3.033,0.767,4.917,1.217,5.65,1.35c3,0.6,4.833,0.667,5.5,0.2c1.866-1.2,2.267-2.65,1.199-4.35
	c-1.066-1.7-2.533-1.6-4.399,0.3l-0.7-2.65C379.767,43.517,379.55,43.6,379.35,43.7z M398.7,24.75L396,24.1
	c-1.8-0.267-3.45,0-4.95,0.8c-1.533,0.833-2.533,2.067-3,3.7c2.167,0.767,2.851,1.85,2.05,3.25c-1.333,2.433-2,3.816-2,4.15
	c2.534,0.267,4.384,0.15,5.551-0.35c1.033-0.433,2.316-1.566,3.85-3.4c1.566-1.933,2.517-3.3,2.85-4.1
	C401.116,26.417,400.566,25.283,398.7,24.75z M401.4,29.45c2.133,0.5,3.683-0.017,4.649-1.55c-0.267-0.633-0.633-1-1.1-1.1
	c-0.267-0.033-0.8-0.05-1.601-0.05C402.217,27.35,401.566,28.25,401.4,29.45z M357.35,8.75c-3.366-0.1-5.166-0.133-5.399-0.1
	c-2.101,0.167-3.617,0.833-4.55,2c1.466,0.733,3.517,1.1,6.149,1.1c2.967,0,4.017-0.767,3.15-2.3L357.35,8.75z M358.95,11.2
	c-0.601,0.367-0.9,1.066-0.9,2.1c1.367,0.434,2.684,0.25,3.95-0.55l-0.65-2C360.184,10.783,359.384,10.933,358.95,11.2z M340,29.45
	c-3.033,0.3-5.017,1.367-5.95,3.2c4.967,0.8,6.95-0.717,5.95-4.55V29.45z M330.25,27.15c-1.533,0.434-2.267,1.383-2.2,2.85
	c2.4,0.333,4.15,0.45,5.25,0.35c1.967-0.167,2.884-1.15,2.75-2.95c-0.666-0.3-1.467-0.5-2.399-0.6
	C332.017,26.833,330.884,26.95,330.25,27.15z M331.5,26.65c-1.066-0.033-2.667,0-4.8,0.1h6.75
	C332.85,26.683,332.2,26.65,331.5,26.65z M374.7,51.45l-1.351-0.7c-0.899,0.567-1.483,1.383-1.75,2.45
	c0.934,0.367,2.117,0.4,3.551,0.1c0.333-0.5,0.416-0.883,0.25-1.15C375.267,51.983,375.033,51.75,374.7,51.45z M381.5,53.45
	c-1.566-0.333-3.167-0.117-4.8,0.65v0.65c-0.934,1.233-0.267,1.933,2,2.1c1.366,0.133,3.133,0.066,5.3-0.2
	C384.1,54.917,383.267,53.85,381.5,53.45z M314.7,7.45c-3.9,0-5.884,0-5.95,0c-2.2,0.4-3.134,1.683-2.8,3.85
	c-1.667,0.233-2.95,0.534-3.851,0.9c-1.3,0.533-2.216,1.35-2.75,2.45c4.967,0.367,8.367,0.434,10.2,0.2
	c3.9-0.5,6.717-2.083,8.45-4.75L314.7,7.45z M314.9,17.6c-0.267,0.066-0.334,0.417-0.2,1.05c1.399,0.167,2.5,0.233,3.3,0.2
	c1.2-0.067,2.134-0.317,2.8-0.75c-0.166-0.5-0.434-0.733-0.8-0.7c-0.7,0.067-1.134,0.083-1.3,0.05H316
	C315.733,17.583,315.366,17.633,314.9,17.6z M318.7,4.1L303.35,3.45c-1.199,0-3.216-0.1-6.05-0.3c-2.399,0.033-4.116,0.7-5.149,2
	c0.366,0.033,0.899,0.217,1.6,0.55c0.733,0.333,1.25,0.517,1.55,0.55c-0.533,0.7-1.434,1.717-2.7,3.05
	c-0.833,1.2-0.8,2.383,0.101,3.55c0.467-1.2,1.566-2.3,3.3-3.3c0.3-0.167,0.884-0.283,1.75-0.35c0.833-0.067,1.384-0.2,1.65-0.4
	c0.267-0.2,0.666-0.7,1.199-1.5c0.5-0.767,0.801-1.183,0.9-1.25c2-1.066,4.7-1.7,8.1-1.9C310.033,4.117,313.066,4.1,318.7,4.1z
	 M299.85,29.7c-3.03,0.167-4.93,1.183-5.699,3.05c0.2-0.451,0.333,1.315,0.399,5.3c-0.033,0.467-0.3,1.417-0.8,2.85
	c-0.4,1.133-0.517,2.15-0.35,3.05c1.8,0.667,3.316,1.117,4.55,1.35c1.666,0.3,3.233,0.3,4.7,0c-3.101-0.4-4.15-2.367-3.15-5.9
	c1-3.5,2.95-5.483,5.85-5.95l-3.35-0.7c0.566-0.333,1.634-0.717,3.2-1.15c1.267-0.333,2.2-0.783,2.8-1.35
	C303.467,29.85,300.75,29.667,299.85,29.7z M307.9,39.25c-1.233,2.8-1.2,4.633,0.1,5.5l6,0.7c2.033-0.267,3.634-1.784,4.8-4.55
	c1.8-4.333,2.733-6.566,2.8-6.7c-1.899-1.6-5.533-2.05-10.899-1.35C309.5,35.583,308.566,37.717,307.9,39.25z M252.7,10.25L250,8.1
	c-0.934,0.233-2.684,0.6-5.25,1.1c-2.2,0.6-3.566,1.483-4.1,2.65c6.466,1,10.483,0.9,12.05-0.3c-0.033,0.4-0.084,0.7-0.15,0.9
	c-0.267,0.667-0.85,1.216-1.75,1.65c1.834,1.967,3.934,2.1,6.3,0.4c0.934-0.667,1.467-1.467,1.601-2.4
	c0.133-1-0.316-1.883-1.351-2.65L252.7,10.1C252.7,10.133,252.7,10.183,252.7,10.25z M272.85,47.55c0,1.633-0.233,2.65-0.699,3.05
	c-0.834,0.767-2.217,1.45-4.15,2.05c-1.366,0.7-1.783,2.05-1.25,4.05c9.3,0.767,13.283-1.217,11.95-5.95l-3.351-4.65
	C273.65,45.967,272.816,46.45,272.85,47.55z M261.85,47.85l9.45-4.95c-3.533-0.3-7.983,0.8-13.35,3.3
	c-6.134,2.867-8.117,5.95-5.95,9.25l2-0.7C255.066,52.317,257.684,50.017,261.85,47.85z M208.7,40.75c-4.7,0.9-7.9,1.8-9.6,2.7
	c-3,1.566-4.667,4.1-5,7.6c4-2.8,7.066-4.833,9.2-6.1c3.8-2.3,7.367-3.25,10.7-2.85L208.7,40.75z M206.7,28.1H198
	c-3.567-0.333-5.067,0.55-4.5,2.65c4.367,0.167,6.617,0.25,6.75,0.25c2.6-0.033,4.783-0.317,6.55-0.85
	C206.767,29.717,206.733,29.033,206.7,28.1z M212,30.1c-1.467,1.133-3.816,2.033-7.05,2.7c-3.467,0.7-5.883,1.483-7.25,2.35
	c4.566,0.8,7.983,1.133,10.25,1c4.666-0.267,6.684-2.066,6.05-5.4L212,30.1z M213.35,44.75c-4.3,3.333-7,5.533-8.1,6.6
	c3.866,0.167,6.467,0.1,7.8-0.2c2.9-0.667,4.55-2.35,4.95-5.05L213.35,44.75z M238,44.4c1.366,0.6,2.583,0.767,3.65,0.5
	c1.267-0.333,1.833-1.267,1.699-2.8H240.7C239.7,43.067,238.8,43.833,238,44.4z M231.35,42.75c-0.199-0.033-0.466-0.217-0.8-0.55
	c-0.267-0.167-0.583,0.017-0.95,0.55c2.567,1.067,5.167,1.083,7.801,0.05c0.033-1-0.267-1.7-0.9-2.1
	c-0.434-0.267-1.267-0.467-2.5-0.6L231.35,42.75z M170,2.75l-6-2c-4.3-0.1-8.267,0.267-11.9,1.1c-5.533,1.233-7.983,3.283-7.35,6.15
	c0.333,0.167,0.85,0.317,1.55,0.45c0.733,0.167,1.284,0.25,1.65,0.25c-0.434-1.9,0.417-3.367,2.55-4.4
	c1.5-0.733,3.65-1.233,6.45-1.5c0.3-0.033,3.1-0.05,8.4-0.05C166.717,2.75,168.267,2.75,170,2.75z M165.35,2.75
	c-5.2,0.367-10.15,0.883-14.85,1.55c1.767,2.067,4.817,3.217,9.15,3.45c4.533,0.233,7.317-0.983,8.35-3.65L165.35,2.75z M174,23.45
	c-0.9,0.3-1.483,0.55-1.75,0.75c-0.433,0.367-0.667,0.966-0.7,1.8c1.267,0.8,2.5,1.117,3.7,0.95c1.4-0.2,2.117-1.067,2.15-2.6
	c-1-0.467-2.133-0.55-3.4-0.25V23.45z M180,22.95c2.033,0.2,3.367-0.534,4-2.2l-5.3-1.3C177.533,21.583,177.967,22.75,180,22.95z
	 M175.15,20.25c3.8-1.9,6.317-3.067,7.55-3.5h-7.35c-2.333,0.4-4.483,1.317-6.45,2.75C169.7,21.3,171.783,21.55,175.15,20.25z
	 M177.75,26.8c-0.233-0.033-0.367,0.184-0.4,0.65c1.066,0.533,2.283,0.8,3.65,0.8c1.333,0,2.55-0.267,3.65-0.8
	c0.233-0.5,0.25-0.817,0.05-0.95c-0.133-0.067-0.367-0.2-0.7-0.4l-5.3,0.65C178.567,26.817,178.25,26.833,177.75,26.8z
	 M137.35,49.45c-1.867-0.567-3.867-0.434-6,0.4c-1.9,0.767-3.5,1.917-4.8,3.45c-1.333,1.567-1.933,3.017-1.8,4.35
	c0.167,1.5,1.233,2.533,3.2,3.1c-0.534-2.2-0.1-4,1.3-5.4c5-1.4,9.583-2.65,13.75-3.75c3.433-1,7.55-2.383,12.35-4.15L137.35,49.45z
	 M117.35,6.1c-1.133,0-1.883,0.066-2.25,0.2c-0.6,0.233-0.967,0.784-1.1,1.65c1.6,0.5,3.683,0.566,6.25,0.2
	c2.6-0.367,2.517-1.05-0.25-2.05H117.35z M83.35,23.45c-6.167-0.067-10.167,0.1-12,0.5c-5.233,1.1-6.85,3.75-4.85,7.95
	c0.767-1.433,1.767-2.55,3-3.35c1.033-0.7,2.367-1.25,4-1.65c2.733-0.667,6.9-1.167,12.5-1.5c5.9-0.333,10.133-0.767,12.7-1.3
	L83.35,23.45z M97.4,27.45c-0.167,0.1-0.7,0.2-1.6,0.3c-0.933,0.067-1.533,0.167-1.8,0.3c-0.3,0.133-0.617,0.55-0.95,1.25
	c-0.333,0.7-0.683,1.15-1.05,1.35c-1.967,1.1-4.667,1.917-8.1,2.45c-4.066,0.633-6.8,1.2-8.2,1.7c5.066,0.167,8.883,0.25,11.45,0.25
	c4.567,0,8.184-0.533,10.85-1.6c2.867-1.133,5.3-2.333,7.3-3.6c3.333-2.167,3.567-3.633,0.7-4.4l-6-0.7
	c0.067,1.1-0.15,1.75-0.65,1.95C98.117,27.167,97.467,27.417,97.4,27.45z M82.3,47.9c-3.233,0.7-5.566,1.267-7,1.7
	c1.9,1.433,4.417,1.883,7.55,1.35c3.267-0.6,5.433-2,6.5-4.2V46.1C87.717,46.6,85.367,47.2,82.3,47.9z M108.45,46.6
	c-0.667,0.233-1.25,0.333-1.75,0.3c1,0.5,2.1,0.7,3.3,0.6c1.3-0.133,2.35-0.617,3.15-1.45c-0.167-0.533-0.55-0.733-1.15-0.6l-2,0.65
	C109.833,46.133,109.317,46.3,108.45,46.6z M118.7,50.1l-2-0.65c-0.767,0.133-1.883,0.4-3.35,0.8
	C115.117,51.183,116.9,51.133,118.7,50.1z M155.05,52.8c-0.966,0.8-2.283,1.934-3.95,3.4c-0.867,0.667-2.217,1.45-4.05,2.35
	c-1.933,0.967-3.283,1.717-4.05,2.25c6.3,0.267,10.817,0.017,13.55-0.75c4.7-1.267,6.967-4.133,6.8-8.6l-4-0.7
	C158.25,50.683,156.817,51.367,155.05,52.8z M64.7,5.45L59.35,4.1c-3.067,0-5.033,0.033-5.9,0.1c-0.067,2.033,1.183,3.183,3.75,3.45
	c0.833,0.1,3.033,0,6.6-0.3C63.9,6.85,64.2,6.217,64.7,5.45z M47.35,2.75c-1.367,0.533-3.5,1.183-6.4,1.95
	c-2.934,0.767-5.017,1.4-6.25,1.9c1.167-0.033,2.617,0.117,4.35,0.45c2.434,0.5,3.784,0.767,4.05,0.8c2.967,0.4,5.267-0.633,6.9-3.1
	L47.35,2.75z M52,43.8c0.1-0.7-0.117-1.267-0.65-1.7L48,42.75c-4.267-0.333-7.533,0.217-9.8,1.65c1.4,1.067,3.7,1.55,6.9,1.45
	C48.367,45.717,50.667,45.033,52,43.8z M50.4,45.95c-1.1,0.466-1.933,0.917-2.5,1.35c4.133,0.4,6.717,0.567,7.75,0.5
	c3.233-0.233,5.133-1.466,5.7-3.7l-8,0.65C52.717,45.05,51.733,45.45,50.4,45.95z M79.8,45.85c2.867-0.7,5.383-1.067,7.55-1.1
	L76,43.45l-5.05,0.8c-4.1,0.967-5.1,2-3,3.1c0.8,0.4,2.367,0.433,4.7,0.1C73.717,47.317,76.1,46.783,79.8,45.85z M27.95,29.85
	c0.233-0.567,0.25-0.95,0.05-1.15c-0.1-0.133-0.317-0.333-0.65-0.6l-2.65-0.65c-0.934-0.333-1.65-0.133-2.15,0.6
	c0.333,1.1,1.05,1.784,2.15,2.05C25.667,30.367,26.75,30.283,27.95,29.85z"/>
<path style="fill-rule:evenodd;clip-rule:evenodd;fill:#6B6557;" d="M338,119.95c0.533-0.566,0.983-1.184,1.35-1.851l-4,1.351
	c-4.166-0.4-6.816-0.483-7.949-0.25c-2.233,0.5-4.034,2.133-5.4,4.899c-0.8,1.634-1.25,2.801-1.35,3.5
	c-0.134,1.167,0.366,2.117,1.5,2.851c1.466-1.7,3.8-3.351,7-4.95c3.833-1.9,6.267-3.25,7.3-4.05c-0.367,0.666-0.65,2.116-0.851,4.35
	c-0.199,2.033-0.683,3.483-1.449,4.351c-0.867,0.966-2.517,1.566-4.95,1.8c-1.4,0.166-3.667,0.283-6.8,0.35
	c-5.767,0.434-8.601,2.767-8.5,7c-1.301,0.233-2.917,0.033-4.851-0.6c-2.3-0.733-3.883-1.134-4.75-1.2
	c-0.899-0.033-2.2,0.134-3.899,0.5c-1.467,0.3-2.75,0.35-3.851,0.15c-1.366-0.233-3.717-1.517-7.05-3.851
	c-2.866-1.533-4.833-0.783-5.9,2.25c-0.899-0.566-3.033-1.05-6.399-1.45c-3-0.333-4.867-0.983-5.601-1.949
	c-1.033-1.334-0.933-2.717,0.301-4.15c1.533-1.833,2.267-3.267,2.199-4.3c-0.033-0.566-0.517-1.483-1.449-2.75
	c-0.934-1.233-1.417-2.334-1.45-3.3c-0.033-0.4-0.017-1.034,0.05-1.9l0.1-0.15c2.334-6.233,3.667-11.55,4-15.949v0.149
	c0.367,5.767,0.834,9.917,1.4,12.45c0.833,3.733,2.384,7.5,4.65,11.3c-0.534-16.899-0.517-30.35,0.05-40.35
	c0.899,0.2,1.5,0.333,1.8,0.399c0.434,0.134,0.9,0.617,1.4,1.45c1.767-1.166,4.233-1.399,7.399-0.7c3.134,0.733,5.566,0.534,7.3-0.6
	c1.5-1,2.384-1.783,2.65-2.35c0.333-0.801,0.167-2.233-0.5-4.301c-0.2-0.666-0.684-1.666-1.45-3c-0.7-1.233-1.116-2.2-1.25-2.899
	c1.533,0,3.3-0.567,5.3-1.7c0.733-0.4,1.384-0.8,1.95-1.2c2.2,0.1,3.983,0.15,5.351,0.15c8.733-0.767,15.416-1.15,20.05-1.15
	c2,0,3.883,0.117,5.649,0.35l-0.399,4.1c2.8,1.233,4.35,3.2,4.649,5.9c-0.033,3.267,0.267,5.75,0.9,7.449
	c0.4,1.101,1.45,2.7,3.15,4.801c1.699,2.133,2.783,3.85,3.25,5.149c0.267,0.733,0.666,2.3,1.199,4.7
	c0.434,1.967,0.967,3.533,1.601,4.7c-0.033-3.533-0.334-7.667-0.9-12.4c-0.133-1.2-0.7-5.283-1.7-12.25L348.7,79.9
	c-0.334-2.034-0.733-3.684-1.2-4.95c-0.467-1.367-1.05-2.583-1.75-3.65c0.934,0.5,1.8,1.067,2.6,1.7
	c-0.333,0.6-0.55,1.25-0.649,1.95c0.366,1.1,0.733,2.75,1.1,4.95c0.134,0.399,0.334,1.149,0.601,2.25
	c0.267,2.966,0.5,5.133,0.699,6.5c0.301,2.333,1.301,4.267,3,5.8c0.5-2.7,1.051-4.601,1.65-5.7c0.667-1.233,1.75-2.233,3.25-3
	c1.866-0.934,2.934-1.533,3.2-1.8c0.166-0.134,1.434-1.9,3.8-5.3c1.233-1.767,3.316-3.017,6.25-3.75c0.566-0.134,1.5-0.25,2.8-0.351
	c1.233-0.1,2.134-0.233,2.7-0.399c0.5-0.167,1.15-0.7,1.95-1.601c0.666-0.767,1.333-1.1,2-1c0.733,0.1,1.483,0.684,2.25,1.75
	c0.833,1.167,1.5,1.851,2,2.05c0.666,0.267,1.717,0.351,3.149,0.25c1.601-0.133,2.667-0.233,3.2-0.3
	c-0.1-1.666,0.767-3.05,2.601-4.15c0.466-0.267,0.883-0.533,1.25-0.8c2.366,0.267,3.666,0.4,3.899,0.4
	c0.566,0.033,1.101,0.067,1.601,0.1c-1.334,1.167-1.233,3.75,0.3,7.75c1.5,3.934,2.983,6.134,4.45,6.601
	c1-2.533,1.399-6.3,1.199-11.3c-0.066-1.367-0.149-2.617-0.25-3.75c0.767-0.333,1.284-0.783,1.551-1.35
	c0.133-0.3,0.216-0.583,0.25-0.85c1.1-0.133,2.166-0.3,3.199-0.5l0.25-0.05c-0.133,1.367-0.216,2.483-0.25,3.35
	c-0.267,5.167-0.333,11.75-0.199,19.75c0.033,4.134,0.083,7.616,0.149,10.45c-0.767,1.2-1.399,2.533-1.899,4
	c-0.434,1.399-0.667,2.666-0.7,3.8c-0.033,1.167,0.1,3.05,0.399,5.65c0.233,2.366,0.301,4.233,0.2,5.6
	c-1.833-0.033-2.733,0.866-2.7,2.7c0.067,2.967,0.067,4.55,0,4.75c-0.267,0.666-0.966,1.566-2.1,2.7c-1.4,1.433-2.217,2.3-2.45,2.6
	c-1.333-1.5-3.233-2.267-5.7-2.3c-2.6-0.033-4.316,0.95-5.149,2.95c-0.767-0.334-2.617-0.65-5.55-0.95
	c-2.7-0.267-4.367-0.634-5-1.101c-0.467-0.366-0.634-1.066-0.5-2.1c0.166-1.066,0.149-1.684-0.051-1.85
	c-0.433-0.367-1.566-0.767-3.399-1.2c-1.767-0.367-2.851-0.834-3.25-1.4c-0.4-0.533-0.667-2.233-0.8-5.1
	c-0.134-2.7-0.117-4.467,0.05-5.3c0.1-0.5,0.767-2.15,2-4.95c0.8-1.834,0.899-3.634,0.3-5.4c-0.033,0-1.816,0.384-5.35,1.15
	c-1.667,0.333-3.317,0.2-4.95-0.4c-1.233-0.467-2.601-1.7-4.101-3.7c-1.366-1.833-2.633-2.866-3.8-3.1
	c-0.033-0.167-0.033-0.467,0-0.9c0.033-0.399,0.017-0.666-0.05-0.8c-0.934,1.934-1.083,4.367-0.45,7.3
	c1,3.301,1.584,5.75,1.75,7.351c0.2,1.767-0.017,3.383-0.649,4.85l-0.5,0.15l0.399,0.1c-0.3,0.634-0.8,1.517-1.5,2.65
	c-0.566,1.1-0.95,2.184-1.149,3.25c-0.134,0.633,0.083,1.533,0.649,2.7c0.566,1.199,0.816,2.133,0.75,2.8
	c-0.1,0.866-0.483,1.684-1.149,2.45c-0.767,0.899-1.25,1.633-1.45,2.199l-1.25,3.9c-1.5-0.333-2.533-0.583-3.101-0.75
	c-1.3-0.4-2.533-0.95-3.699-1.65c1.333-1.133,1.916-4.433,1.75-9.899c-0.134-5.233-0.684-8.55-1.65-9.95
	c0.066,1.134-0.083,2.4-0.45,3.8c-0.399,1.667-1,2.717-1.8,3.15c-0.533,0.3-1.4,0.2-2.6-0.3C339.384,119.9,338.5,119.75,338,119.95z
	 M358.4,140.3c-2.834,0.3-6.267,0.867-10.301,1.7c-1.466,0.3-2.8,0.566-4,0.8c1.2-0.267,2.684-0.583,4.45-0.95
	c3.434-0.699,6.3-1.183,8.601-1.449L358.4,140.3z M413.95,129.7c-0.033-0.233-0.066-0.467-0.101-0.7l-0.449-2.9
	C413.667,127.467,413.85,128.667,413.95,129.7z M264.55,141.3l3.351,0.05l2.699,0.101C268.9,141.45,266.884,141.4,264.55,141.3z
	 M216.85,137.95c-5.233-0.3-10.033-0.517-14.399-0.65c1,0,2,0.017,3,0.05l7.649,0.351c1.334,0.066,2.367,0.133,3.101,0.2
	L216.85,137.95z M229.6,138.85l0.7,0.051c0.3,0.033,0.601,0.066,0.9,0.1c-0.367-0.033-0.733-0.066-1.101-0.1
	C229.934,138.9,229.767,138.884,229.6,138.85z M126.2,139.35c5.167,0.301,10.966,0.4,17.4,0.301h1.05
	c-7.033,0.133-13.566,0.017-19.6-0.351C125.45,139.3,125.833,139.316,126.2,139.35z M101.95,137.15c0.367,0,0.733,0.017,1.1,0.05
	l0.75,0.1C103.167,137.233,102.55,137.184,101.95,137.15z M3.1,116.15c-0.133,1.866-0.367,4.517-0.7,7.949
	c-0.133,1.5-0.2,2.851-0.2,4.051c-0.034-0.733-0.017-1.5,0.05-2.301C2.383,123.65,2.667,120.417,3.1,116.15z M0.15,61.2H0.1L0,64.15
	C0.067,59.117,0.317,49.9,0.75,36.5c0.133-4.333,0.283-8.333,0.45-12C1.1,30.667,0.95,37.167,0.75,44
	C0.483,51.4,0.283,57.133,0.15,61.2z M9.5,87.9l-1.6-0.45c0-0.134,0.417-2.434,1.25-6.9c0.533-2.833,0.6-5.2,0.2-7.1
	C9.183,72.717,8.667,71.4,7.8,69.5c3.5,0,8.383-0.45,14.65-1.35c6.7-1.167,12.083-2.083,16.15-2.75c1.2,0.434,2.65,0.883,4.35,1.35
	c3.267,0.833,5.566,1.65,6.9,2.45c1.633,0.966,2.967,2.6,4,4.899c1.167,2.601,2.267,4.367,3.3,5.301
	c1.733-1.334,4.65-4.384,8.75-9.15c1.9-2.2,3.017-4.317,3.35-6.35c0.267,0.067,0.533,0.133,0.8,0.2c3.267,0.933,5.75,3.6,7.45,8
	c0.867,2.466,1.55,4.3,2.05,5.5c0.167,0.434,0.35,0.851,0.55,1.25c0.4,2.7,0.983,5.117,1.75,7.25l2.2,6.65
	c0.1,0.333,0.517,1.333,1.25,3c0.6,1.333,0.867,2.333,0.8,3c-0.067,0.733-0.684,1.684-1.85,2.85c-1.1,1.134-1.65,2.167-1.65,3.101
	c0,1.434,0.517,2.616,1.55,3.55c0.4,0.333,1.417,0.983,3.05,1.95c1.167,0.666,1.816,1.333,1.95,2c0.2,0.934-0.367,2.184-1.7,3.75
	c4.433,0.866,6.9,1.916,7.4,3.149c0.433,1.034-0.417,1.867-2.55,2.5c-2.133,0.601-4.1,0.617-5.9,0.051
	c-2.1-0.7-2.933-2.084-2.5-4.15c-0.667-0.033-1.717-0.05-3.15-0.05c-1.4,0-2.45-0.033-3.15-0.101c-0.233-1.399-0.7-4.383-1.4-8.949
	c-1.1-3.601-3.117-4.601-6.05-3c-0.7-1.733-1-3.534-0.9-5.4c-1.133,0.434-2.517,1.233-4.15,2.4h-2.4c-1.867,3.8-4.6,6.316-8.2,7.55
	c1.533-0.101,3.033-0.417,4.5-0.95c0.625-0.85,1.308-1.684,2.05-2.5c-0.718,0.835-1.401,1.702-2.05,2.6
	c1.867-0.699,3.1-1.733,3.7-3.1c0.466,0.333,0.767,0.634,0.9,0.9c0.5-0.4,0.95-0.75,1.35-1.051c-0.434,0.367-0.883,0.733-1.35,1.101
	c0.467,0.767,0.6,1.684,0.4,2.75c0.167-1,0.033-1.867-0.4-2.601c-0.2-0.366-0.5-0.699-0.9-1c-0.667,1.4-1.9,2.45-3.7,3.15
	c-1.167,0.434-2.667,0.733-4.5,0.9c-2.567,0.166-5.883-0.034-9.95-0.601c-2.167-0.333-4.833-0.75-8-1.25
	c-3.8-0.399-6.333-0.916-7.6-1.55c-1.167-0.566-1.833-1.55-2-2.95l1.05-0.35c-0.467-0.733-0.833-1.384-1.1-1.95v-2.6
	c1.6-2.534,5.233-3.733,10.9-3.601l-0.85-1.05c2.7-2.1,6.117-3.533,10.25-4.3c4.833-0.566,8.6-1.2,11.3-1.9
	c-4.067-0.899-9.683-0.717-16.85,0.55c-8.433,1.467-13.433,3.983-15,7.551c-1.167,0.066-2.316,0.183-3.45,0.35
	c-0.7,0.134-1.733,0.333-3.1,0.6h-0.35c-1.5,0.067-3.083,0.017-4.75-0.149c-0.367-1.101-0.683-2.934-0.95-5.5
	c-0.133-1.267-0.8-2.167-2-2.7c0.5-0.134,1.434-0.35,2.8-0.65c1.133-0.233,1.967-0.466,2.5-0.699c1.633-0.934,2.9-1.65,3.8-2.15
	c1.567-0.9,2.967-1.283,4.2-1.15L24,82.75c-2.867,0-5.5,0.35-7.9,1.05C13,84.7,10.8,86.066,9.5,87.9z M58.8,63.3l-0.1,0.15
	c-1.6,0.167-3.8,0.267-6.6,0.3C54.767,63.55,57,63.4,58.8,63.3z M94.2,69.6c0.267,0.066,0.533,0.117,0.8,0.15
	c1.133,1.2,2.367,3.3,3.7,6.3c1.367,3,2.7,4.934,4,5.8c-0.133-0.733,0.55-3.183,2.05-7.35c1.033-2.867,0.667-4.333-1.1-4.4
	c1.467-0.033,2.717-0.05,3.75-0.05c2.4-0.066,4.583-0.183,6.55-0.35c0.833,0.233,1.767,0.466,2.8,0.7c3.167,0.7,5.4,1.434,6.7,2.2
	c0.667,0.4,1.5,1.117,2.5,2.15c0.833,0.833,1.867,1.5,3.1,2c5.467,2.134,8.617,3.5,9.45,4.1c3.033,2.134,3.683,4.983,1.95,8.551
	c-0.567,0.533-1.55,1.25-2.95,2.149c-1.3,0.834-2.283,1.601-2.95,2.3c-0.7,0.434-1.283,0.95-1.75,1.551
	c-0.4,0.566-0.8,1.683-1.2,3.35c-1.133,2.434-2,4.1-2.6,5c-1.167,1.733-2.517,2.967-4.05,3.7c0.9-0.2,1.75-0.483,2.55-0.851
	c-2.2,1.801-5.15,2.75-8.85,2.851c2,0.267,3.5,0.45,4.5,0.55c1.767,0.134,3.283,0,4.55-0.4c1.667-0.566,3.167-1.666,4.5-3.3
	c-1.233,1.767-2,2.851-2.3,3.25c-0.967,1.167-1.8,1.983-2.5,2.45c-0.467,0.267-1.483,0.366-3.05,0.3c-1.533-0.1-2.533,0.05-3,0.45
	c-0.9,0.7-1.383,1.95-1.45,3.75c0.1,2.167,0.133,3.733,0.1,4.7c0.6-1.867,1.95-3.15,4.05-3.851c2.667-0.566,4.633-1.033,5.9-1.399
	c-0.034-1.134,0.917-3.05,2.85-5.75c1.934-2.767,3.417-4.167,4.45-4.2c0.1-0.667,0.1-1.483,0-2.45c-1.6-0.399-2.733-0.066-3.4,1
	l0.15-0.45l-0.65,0.7c1.333-1.666,2.467-2.783,3.4-3.35c0.6,1.1,2.167,2.233,4.7,3.399c2.167,1,3.417,2.567,3.75,4.7
	c0.133,0.834,0.233,1.983,0.3,3.45l-1.5,1.1c-1.867,2.967-4.333,5.4-7.4,7.301c-3.167,2-6.55,3.149-10.15,3.449
	c2.433,0.067,4.267,0.084,5.5,0.051l-1.25,0.649c-1.8,1.033-3.333,1.566-4.6,1.601c-0.833,0.033-2.35-0.067-4.55-0.301
	c-1.867,0-4.8-0.133-8.8-0.399c-3.833-0.233-6.8-0.351-8.9-0.351l-0.4-0.1c0.233-1.4-0.267-2.967-1.5-4.7
	c-0.7-0.967-1.8-2.267-3.3-3.899c-0.566-0.667-1.867-1.867-3.9-3.601c-1.9-1.6-3.2-2.883-3.9-3.85c-0.7-1.033-1.15-2.167-1.35-3.4
	c-0.133-0.767-0.183-1.95-0.15-3.55c0.9-1.6,1.333-4.333,1.3-8.2c-0.033-4.866,0.033-7.767,0.2-8.7c0.367-1.933,0.583-3.267,0.65-4
	c0.133-1.233,0.15-2.633,0.05-4.199c-0.233-3.067,0.1-5.25,1-6.55C93.083,70.783,93.633,70.2,94.2,69.6z M116.1,82.65
	c-0.567,0.5-1.35,1.233-2.35,2.199c-2.233,1.967-3.667,3.767-4.3,5.4c-0.467,1.3-0.717,3.483-0.75,6.55
	c0.133-3.733,1.617-6.017,4.45-6.85c1.7-0.4,2.983-0.733,3.85-1c1.567-0.467,2.833-1.2,3.8-2.2c-2.3-2.3-1.95-3.9,1.05-4.8
	c2.167-0.634,4.667-0.8,7.5-0.5l-0.65-2c-1.1,0.467-2.784,0.684-5.05,0.649c-2.267,0-3.917,0.217-4.95,0.65
	C117.933,81.083,117.067,81.717,116.1,82.65z M146.15,103.65c-0.1-0.834-0.133-1.584-0.1-2.25c0.067-1.467,0.4-3.434,1-5.9
	c0.333-1.366,0.833-3.35,1.5-5.95c0.067-0.267,0.117-1.033,0.15-2.3c0.033-0.833,0.233-1.5,0.6-2c0.667-0.866,1.7-1.517,3.1-1.95
	c1.033-0.3,1.8-1.333,2.3-3.1c1.1-3.733,0.933-7.617-0.5-11.65c-0.034-0.1-0.067-0.183-0.1-0.25c0.667,0.034,1.35,0.083,2.05,0.15
	c8.267,0.6,15.033,0.917,20.3,0.95c5.5,0.533,9.716,0.9,12.65,1.1c1.533,0.133,2.983,0.183,4.35,0.15
	c1.267,0.5,3.617,1.667,7.05,3.5c0.3,0.166,0.9,0.166,1.8,0c0.8-0.167,1.383-0.134,1.75,0.1c0.467,0.333,0.75,0.783,0.85,1.35
	c0.1,0.634,0.233,1.017,0.4,1.15c0.5,0.333,1.7,1.45,3.601,3.35c0.533,0.601,1.1,1.017,1.699,1.25
	c0.434,0.167,0.733,0.434,0.9,0.801c-0.134,2.033-0.083,4.399,0.15,7.1l-0.301,0.85c-0.466,0.9-1.333,1.601-2.6,2.101
	c-1.366,0.533-2.35,1.217-2.95,2.05c-0.833,1.167-1.083,3.366-0.75,6.6c0.3,3.167-0.066,5.417-1.1,6.75
	c-3.9,0.567-6.8,1.067-8.7,1.5c-2.767,0.634-5.467,1.5-8.1,2.601c-1.9,0.833-3.7,1.416-5.4,1.75c-1.1,0.2-3.167,0.467-6.2,0.8
	c2.3,1.167,4.284,1.816,5.95,1.95c1.267,0.1,3.233-0.117,5.9-0.65c3.434-0.633,6.067-0.733,7.9-0.3c2.7,0.667,4.333,2.517,4.9,5.55
	c0.4,2.167,0.316,3.417-0.25,3.75c-0.467,0.267-1.967,0.816-4.5,1.65c-0.633,0.333-1.467,1.066-2.5,2.2
	c-0.8,0.866-1.95,1.449-3.45,1.75c-3.233,0.633-6.55,0.816-9.95,0.55c-4.566-0.3-6.05-1.566-4.45-3.8
	c-1.5-0.134-3.817-0.217-6.95-0.25c0.033-0.534,0.033-1.351,0-2.45c0-0.967,0.167-1.783,0.5-2.45c-3.667-2.167-5.033-4.3-4.1-6.4
	c0.3-0.666,0.95-1.8,1.95-3.399c0.867-1.667,1.4-3.334,1.6-5c-1.867,3.666-4.817,5.916-8.85,6.75c-4,0.833-7.55,0.017-10.65-2.45
	c-0.867-2.066-1.45-3.616-1.75-4.65c0.7-0.966,1.333-2.699,1.9-5.199c0.633-2.634,1.217-4.4,1.75-5.301
	c1.7-2.8,3.667-4.683,5.9-5.649c1.967-0.834,4.733-1.167,8.3-1L162,86.1c-4.633-1.066-8.367-1.483-11.2-1.25
	c0.1,2.567-0.55,5.767-1.95,9.601C147.25,98.884,146.35,101.95,146.15,103.65z M178.45,77.25c2.333-1,3.75-1.6,4.25-1.8L180,74.1
	c-1.633-0.199-3.283-0.1-4.95,0.301c-2.2,0.533-2.55,1.517-1.05,2.949C174.767,78.05,176.25,78.017,178.45,77.25z M177.75,96.1
	c-0.4,1.733-0.5,4.067-0.3,7c0.933-0.8,2.133-2.399,3.6-4.8c1.4-2.267,2.65-3.833,3.75-4.7c1.2-0.933,3.034-1.5,5.5-1.699
	c2.633-0.233,4.367-0.601,5.2-1.101c-0.2-0.1-0.617-0.399-1.25-0.899c-0.567-0.5-1.033-0.817-1.4-0.95
	c1.367-0.834,3.65-1.267,6.85-1.3c3.433-0.034,5.767-0.334,7-0.9l-2-2c-3.233,0-7.667-0.1-13.3-0.3c-4.433,0.366-7.95,2.2-10.55,5.5
	C179.283,91.917,178.25,93.967,177.75,96.1z M223.45,80c1.899,0.233,3.3,0.3,4.2,0.2c1.699-0.2,2.75-0.917,3.149-2.15
	c0.4-1.2,0.217-2.116-0.55-2.75c-0.733-0.633-1.7-0.816-2.9-0.55l-3.35,2C223.333,77.983,223.15,79.066,223.45,80z M317.1,97.85
	c-1.899,2.434-4.199,4.167-6.899,5.2c-2.367,0.867-5.167,1.25-8.4,1.15c1.934,0.399,3.384,0.7,4.351,0.899
	c1.733,0.367,3.25,0.483,4.55,0.351c1.833-0.2,3.6-0.783,5.3-1.75c1.9-1.233,3.417-2.184,4.55-2.851c0.467,0.801,0.75,2.134,0.851,4
	c0.066,1.7-0.051,3.417-0.351,5.15c-0.434,0.934-1.033,2.217-1.8,3.85c-0.8,1.334-2.1,2.467-3.9,3.4
	c-1.666,0.9-3.733,1.583-6.199,2.05c-1.4,0.134-3.384,0.2-5.95,0.2c-2.834-0.033-4.8-0.017-5.9,0.05c1.033,0.8,2.851,1.267,5.45,1.4
	c2.533,0.166,4.184,0.316,4.95,0.45c1.333,0.267,2.399,0.716,3.2,1.35c0.566,0.434,1.25,1.816,2.05,4.15
	c0.633,1.933,1.8,3.1,3.5,3.5c0.2-3.334,1.517-5.95,3.95-7.851c1.466-1,2.583-1.783,3.35-2.35c1.366-1.033,2.483-2.117,3.35-3.25
	c1.434-4.2,2.15-6.267,2.15-6.2c0.033-1.366-0.434-2.866-1.4-4.5c-1.066-1.8-1.649-3.15-1.75-4.05c2.867-0.167,4.7-1.834,5.5-5
	c0.434-1.8,0.534-4.584,0.301-8.351l-1.4,0.351c-0.134-0.4-0.2-1.467-0.2-3.2c0.033-1.533-0.133-2.566-0.5-3.1
	c-0.533-0.767-1.7-1.434-3.5-2c-1.6-0.5-2.6-1.367-3-2.601c-0.033,1.7-0.017,2.967,0.05,3.8L322,83.45c0,1.6-0.083,2.816-0.25,3.649
	c-0.667,1.934-1.634,3.733-2.9,5.4c-0.466,0.467-0.75,0.783-0.85,0.95c-0.1,0.1-0.15,0.233-0.15,0.399
	c-2.267,2.667-5.149,4.9-8.649,6.7c-3.134,1.667-6.566,2.851-10.3,3.55h0.899c3.967-0.033,6.983-0.399,9.05-1.1
	c2.2-0.733,4.817-2.333,7.851-4.8L317.1,97.85z M360.55,97.35c0.967-1.833,2.316-3.216,4.05-4.149c0.801-0.434,2.601-1.066,5.4-1.9
	c1.434-0.467,3.033-1.184,4.8-2.149c2.167-1.233,3.684-2.034,4.55-2.4l-12-2c-2.5-0.2-4.916,1.767-7.25,5.9
	c-0.966,1.699-1.449,3.166-1.449,4.399C358.65,96.417,359.283,97.184,360.55,97.35z M401.35,85.45
	c-1.833-0.134-4.267,0.149-7.3,0.85c-3.833,0.9-4.717,2.134-2.649,3.7c1.399,1.033,2.8,1.017,4.199-0.05
	c1.367-1.033,1.95-2.316,1.75-3.851L401.35,85.45z M391.65,115.95c0.733-1.134,3.833-3.417,9.3-6.851
	c4.399-2.767,6.416-5.316,6.05-7.649v-2.7c-2.833-0.1-6.483,0.866-10.95,2.9c-4.2,1.899-7.166,3.767-8.899,5.6
	c-2.067,2.2-3.267,5.533-3.601,10c1.834-3.033,4.867-5.4,9.101-7.1C391.583,112.05,391.25,113.983,391.65,115.95z M394.7,117.45
	c-2,0.366-3.75,1.267-5.25,2.7c-1.7,1.6-2.367,3.333-2,5.199c1.233-0.133,2.45-0.55,3.649-1.25c1.167-0.699,2.134-1.583,2.9-2.649
	L394.7,117.45z M248.7,80.75c-3.267-0.1-5.533-0.083-6.8,0.05c-3.101,0.3-5.017,1.167-5.75,2.601c-1.367,2.633-0.184,3.633,3.55,3
	c4.533-1.167,7.3-1.717,8.3-1.65L248.7,80.75z M250.2,105.85c-0.467,2.2-1.066,3.617-1.8,4.25c-0.801,0.667-2.467,1.117-5,1.351
	c-2.034,0.166-4.983,0.3-8.851,0.399c-4.033,0.134-6.983,0.267-8.85,0.4c3.666,0.634,6.217,1.05,7.649,1.25
	c2.9,0.4,5.601,0.6,8.101,0.6c2.434,0,4.083-0.05,4.95-0.149c1.333-0.134,2.366-0.434,3.1-0.9l0.55,0.4
	c-5.434,1.467-10.767,2.066-16,1.8c-7.533-0.434-11.316-3.05-11.35-7.85c0-0.7,0.316-1.434,0.95-2.2
	c0.666-0.8,0.983-1.634,0.949-2.5c-1.133-3.3-1.75-5.05-1.85-5.25c-0.767-1.667-1.333-3.2-1.7-4.601
	c-0.133-0.399-0.517-2.033-1.149-4.899c-0.4-1.767-1.483-3.934-3.25-6.5c-0.101-2.667-0.317-5.05-0.65-7.15
	c1.4-1.333,2.917-2.433,4.55-3.3c1.7-0.9,3.134-1.317,4.3-1.25c0.934,0.067,1.9,0.417,2.9,1.05c1.066,0.733,1.783,1.133,2.15,1.2
	c3.533-0.067,6.116,0.017,7.75,0.25c2.899,0.367,3.85,2.1,2.85,5.2c0.9,0.7,3.283,1.017,7.15,0.95
	c3.333-0.034,5.25,0.683,5.75,2.149c0.466,1.334,0.183,2.8-0.851,4.4c-0.566,0.899-1.434,2.184-2.6,3.85
	c-0.134,0.3-0.15,0.95-0.05,1.95c0.1,0.9-0.034,1.583-0.4,2.05c-0.566,0.767-1.733,1.434-3.5,2s-2.884,1.167-3.35,1.8
	c-1.367,1.934-1.067,3.567,0.899,4.9c0.8,0.533,2.95,1.45,6.45,2.75C249.9,104.717,249.967,105.25,250.2,105.85z M250.9,111.6
	c0.199-0.267,0.5-0.883,0.899-1.85C251.967,110.583,251.667,111.2,250.9,111.6z M273.25,74.95l0.25,0.649l-0.1,0.851L273.25,74.95z
	 M299.2,95.4c0.899-1.667,1.649-2.801,2.25-3.4c0.633-0.566,1.733-1.25,3.3-2.05c2.033-1,3.217-1.601,3.55-1.8
	c2.867-1.801,4.4-2.75,4.601-2.851c1.733-0.899,3.433-1.3,5.1-1.2l0.7-0.649c-2-0.334-4.267,0-6.8,1
	c-0.233,0.1-2.334,1.133-6.301,3.1c-3.866,1.9-6.199,3.25-7,4.05c-1.433,1.467-2.05,3.817-1.85,7.051
	C297.55,98.017,298.366,96.934,299.2,95.4z M233.6,103.55c-3.166,1.3-5.383,3.267-6.649,5.9c4.3-1.134,7.7-2.017,10.2-2.65
	c4.566-1.2,7.966-1.649,10.199-1.35L242.7,102.1C239.366,101.967,236.333,102.45,233.6,103.55z M201.95,109.7
	c-1.167,0.267-2.417,0.483-3.75,0.649l-0.1-0.1C199.133,110.15,200.417,109.967,201.95,109.7z M173.3,118.6
	c-1.9,1.7-2.5,3.917-1.8,6.65c0.433-1.7,2.5-3.517,6.2-5.45c3.367-1.733,6.683-2.899,9.95-3.5l-7.65,0.45
	C177.333,116.384,175.1,117,173.3,118.6z M321.35,104.75c-2.066-0.2-4.833,0.267-8.3,1.4c-4.6,1.566-7.333,2.433-8.2,2.6
	c-7.666,1.467-11.699,4.066-12.1,7.8c1.533-0.733,3.866-1.2,7-1.399c3.233-0.2,5.566-0.601,7-1.2c0.533-0.233,2.366-1.45,5.5-3.65
	c2.333-1.666,4.25-2.399,5.75-2.2L321.35,104.75z M286,106.7c0.233,0.033,1.5-0.733,3.8-2.3c2.434-1.7,3.834-2.684,4.2-2.95
	l-6.65-0.7c-1.666,0.1-2.783,1.05-3.35,2.85C283.467,105.366,284.134,106.4,286,106.7z M38.2,72.6c1.733-1.167,3.667-1.783,5.8-1.85
	l-2-0.65c-2.633-0.333-4.65,0.367-6.05,2.1c-1.267,1.533-1.7,3.316-1.3,5.35C35.083,75.483,36.267,73.833,38.2,72.6z M23.3,96.85
	h0.1c0.133,1.5-0.816,2.584-2.85,3.25c-0.357,0.103-0.724,0.194-1.1,0.275c0.341-0.083,0.675-0.175,1-0.275
	C22.483,99.434,23.433,98.35,23.3,96.85z M143.6,122.15c0.633-0.467,1.15-1,1.55-1.601c-0.1,0.767-0.217,1.3-0.35,1.601H143.6z
	 M8.25,91.3H8.3L8.25,91.4V91.3z M63.2,119.2c-1.233,2.633-3.7,4.5-7.4,5.6c-1.5,0.467-3.783,0.684-6.85,0.65
	c-1.767,0-4.55-0.05-8.35-0.15v-0.45c-2.2-0.066-4.15-0.583-5.85-1.55c0.133-2.033,1.833-3.283,5.1-3.75
	c3.867-0.1,6.4-0.184,7.6-0.25c4.233-0.267,6.917-0.533,8.05-0.8c2.7-0.7,4.833-2.15,6.4-4.35l0.2-0.351l0.05-0.05
	c1.067,0.4,1.7,0.95,1.9,1.65C64.283,116.233,64,117.5,63.2,119.2z"/>
<path style="fill-rule:evenodd;clip-rule:evenodd;fill:#9A917E;" d="M406.35,70.15c-1.267,0.5-3.166,0.733-5.699,0.7
	c-0.5-0.033-1.034-0.067-1.601-0.1c-0.233,0-1.533-0.133-3.899-0.4c-1.634-0.2-3.784-0.467-6.45-0.8c-4.367-0.5-7.8-0.8-10.3-0.9
	c-3.934-0.133-7.4,0.067-10.4,0.6c-0.733,0.133-1.85,0.283-3.35,0.45c-1.801,0.167-4.134,0.35-7,0.55
	c-1.867,0.233-3.434,0.6-4.7,1.1c-1.8,0.667-2.95,1.566-3.45,2.7c-0.366-0.366-0.75-0.717-1.15-1.05c-0.8-0.633-1.666-1.2-2.6-1.7
	c-2.4-1.3-5.283-2.183-8.65-2.65c-1.767-0.233-3.649-0.35-5.649-0.35c-4.634,0-11.316,0.383-20.05,1.15
	c-1.367,0-3.15-0.05-5.351-0.15c-2.967-0.2-6.717-0.483-11.25-0.85c-0.934-0.067-1.899-0.15-2.899-0.25
	c-8.167-0.7-14.534-0.917-19.101-0.65c-0.1,1.867-0.066,3.934,0.101,6.2c0.066,0.634,0.133,1.3,0.199,2
	c0.467,3.533,0.801,6.233,1,8.1c-0.3-0.966-0.949-2.267-1.949-3.899c-1.034-1.7-1.7-2.983-2-3.851c-0.2-0.533-0.301-1.55-0.301-3.05
	c0-1.433-0.133-2.417-0.399-2.95c-0.3-0.633-1.134-1.733-2.5-3.3c-1.3-1.5-2.283-2.533-2.95-3.1c-1.333-1.1-2.934-1.883-4.8-2.35
	c-1.134-0.333-2.334-0.533-3.601-0.6c-0.5-0.067-1.017-0.1-1.55-0.1c-0.333,0-2.083,0.133-5.25,0.4c-1.533,0.1-3.399,0.233-5.6,0.4
	c-2.667,0.2-5.851,0.566-9.55,1.1c-0.767,0.1-1.551,0.217-2.351,0.35c-7.366,1.167-11.35,1.783-11.95,1.85
	c-1.267,0.167-4.483,1.033-9.649,2.6c-2.8,0.867-5.217,1.35-7.25,1.45c-0.233,0.133-0.483,0.25-0.75,0.35
	c-2.167,0.934-4.917,1.434-8.25,1.5c-1.367,0.033-2.817-0.017-4.35-0.15c-2.934-0.2-7.15-0.567-12.65-1.1
	c-5.267-0.033-12.034-0.35-20.3-0.95c-0.7-0.067-1.383-0.117-2.05-0.15c-3.1-0.233-5.817-0.433-8.15-0.6
	c-1.5-0.133-2.833-0.233-4-0.3c-3.233-0.267-5.284-0.417-6.15-0.45c-0.133-0.034-0.233-0.05-0.3-0.05c-2.8-0.167-5.9,0.067-9.3,0.7
	c-0.767,0.133-1.7,0.3-2.8,0.5c-1.667,0.333-3.683,0.733-6.05,1.2c-1.067,0.167-2.2,0.3-3.4,0.4c-1.967,0.167-4.15,0.283-6.55,0.35
	c-1.033,0-2.283,0.017-3.75,0.05c-0.1,0-0.2,0-0.3,0h-0.15c-1.7,0-3.65,0-5.85,0c-0.3,0-1.083-0.117-2.35-0.35
	c-0.267-0.033-0.533-0.083-0.8-0.15c-1.367-0.233-3.133-0.583-5.3-1.05c-4.2-0.867-6.717-1.033-7.55-0.5
	c-1.033,0.667-1.083,2.85-0.15,6.55c1.1,4.4,1.55,7.067,1.35,8c-0.9-0.966-1.716-2.216-2.45-3.75c-0.2-0.399-0.383-0.816-0.55-1.25
	c-0.5-1.199-1.183-3.033-2.05-5.5c-1.7-4.4-4.183-7.067-7.45-8c-0.267-0.067-0.533-0.133-0.8-0.2
	c-2.467-0.566-5.883-0.767-10.25-0.6c-0.067,0-0.133,0-0.2,0c-1.8,0.1-4.033,0.25-6.7,0.45c-1.434,0.1-3,0.217-4.7,0.35
	c-1.1,0.066-4.033,0.5-8.8,1.3c-4.067,0.667-9.45,1.583-16.15,2.75C16.183,69.05,11.3,69.5,7.8,69.5c-4.2-0.033-6.466-0.733-6.8-2.1
	l2.25-0.55c3.667-0.133,8.133-0.483,13.4-1.05c7.5-0.833,15.45-1.966,23.85-3.4c3.433-0.6,7.567-0.917,12.4-0.95
	c5.567,0.1,9.717,0.133,12.45,0.1c3.1-0.033,7.133,0.5,12.1,1.6c6.167,1.367,10.167,2.15,12,2.35c6.466,0.767,14.65,1,24.55,0.7
	c16.2-0.5,24.417-0.75,24.65-0.75c5.733,0,14.5,0.35,26.3,1.05c11.533,0.667,20.283,0.983,26.25,0.95
	c5.267-0.034,11.583-0.7,18.95-2c8.466-1.667,14.816-2.883,19.05-3.65c15.6-2.767,28.283-2.667,38.05,0.3
	c6.634,2.033,13.733,3.467,21.3,4.3c6.233,0.7,13.467,1.05,21.7,1.05c2.1,0,8.9-0.3,20.4-0.9c8.366-0.433,15.1-0.367,20.199,0.2
	c3.367,0.367,9.15,0.417,17.351,0.15c7.366-0.267,13.083-0.017,17.149,0.75c3.733,0.667,8.067,0.983,13,0.95
	c3.5-0.033,6.767-0.25,9.801-0.65c-0.034,0.267-0.117,0.55-0.25,0.85C407.634,69.367,407.116,69.817,406.35,70.15z M392,21.45
	l5.35,1.3c-2.566-0.267-6.833,1.1-12.8,4.1c-4.833,2.433-7.983,4.583-9.45,6.45c0.301-0.8,0.434-1.783,0.4-2.95
	c-0.033-2.067,0.15-3.45,0.55-4.15c1.167-2,3.533-3.4,7.101-4.2C386.017,21.333,388.967,21.15,392,21.45z M377.25,44.75
	c-1.866,0.1-4.083,0.85-6.65,2.25c-3.6,1.9-6.199,2.9-7.8,3c0.667-2.567,3.167-4.633,7.5-6.2c2.434-0.867,5.9-1.65,10.4-2.35
	l-1.351,2.25C378.616,44,377.917,44.35,377.25,44.75z M357.35,8.75l-0.649,0.7c0.866,1.533-0.184,2.3-3.15,2.3
	c-2.633,0-4.684-0.367-6.149-1.1c0.933-1.167,2.449-1.833,4.55-2C352.184,8.617,353.983,8.65,357.35,8.75z M401.4,29.45
	c0.166-1.2,0.816-2.1,1.949-2.7c0.801,0,1.334,0.017,1.601,0.05c0.467,0.1,0.833,0.467,1.1,1.1
	C405.083,29.433,403.533,29.95,401.4,29.45z M331.5,26.65c0.7,0,1.35,0.033,1.95,0.1h-6.75
	C328.833,26.65,330.434,26.617,331.5,26.65z M330.25,27.15c0.634-0.2,1.767-0.316,3.4-0.35c0.933,0.1,1.733,0.3,2.399,0.6
	c0.134,1.8-0.783,2.783-2.75,2.95c-1.1,0.1-2.85-0.017-5.25-0.35C327.983,28.533,328.717,27.583,330.25,27.15z M374.7,51.45
	c0.333,0.3,0.566,0.533,0.7,0.7c0.166,0.267,0.083,0.65-0.25,1.15c-1.434,0.3-2.617,0.267-3.551-0.1
	c0.267-1.067,0.851-1.883,1.75-2.45L374.7,51.45z M318.7,4.1c-5.634,0-8.667,0.017-9.101,0.05c-3.399,0.2-6.1,0.833-8.1,1.9
	c-0.1,0.067-0.4,0.483-0.9,1.25c-0.533,0.8-0.933,1.3-1.199,1.5c-0.267,0.2-0.817,0.333-1.65,0.4c-0.866,0.066-1.45,0.183-1.75,0.35
	c-1.733,1-2.833,2.1-3.3,3.3c-0.9-1.167-0.934-2.35-0.101-3.55c1.267-1.333,2.167-2.35,2.7-3.05c-0.3-0.033-0.816-0.217-1.55-0.55
	c-0.7-0.333-1.233-0.517-1.6-0.55c1.033-1.3,2.75-1.967,5.149-2c2.834,0.2,4.851,0.3,6.05,0.3L318.7,4.1z M314.9,17.6
	c0.466,0.033,0.833-0.017,1.1-0.15h2.7c0.166,0.033,0.6,0.017,1.3-0.05c0.366-0.033,0.634,0.2,0.8,0.7
	c-0.666,0.433-1.6,0.683-2.8,0.75c-0.8,0.033-1.9-0.033-3.3-0.2C314.566,18.017,314.634,17.667,314.9,17.6z M299.85,29.7
	c0.9-0.034,3.617,0.15,8.15,0.55c-0.6,0.567-1.533,1.017-2.8,1.35c-1.566,0.433-2.634,0.816-3.2,1.15l3.35,0.7
	c-2.899,0.466-4.85,2.45-5.85,5.95c-1,3.533,0.05,5.5,3.15,5.9c-1.467,0.3-3.034,0.3-4.7,0c-1.233-0.233-2.75-0.683-4.55-1.35
	c-0.167-0.9-0.051-1.917,0.35-3.05c0.5-1.433,0.767-2.383,0.8-2.85c-0.066-3.984-0.199-5.751-0.399-5.3
	C294.92,30.883,296.819,29.867,299.85,29.7z M252.7,11.55c-1.566,1.2-5.584,1.3-12.05,0.3c0.533-1.167,1.899-2.05,4.1-2.65
	c2.566-0.5,4.316-0.867,5.25-1.1l2.7,2.15C252.733,10.75,252.733,11.183,252.7,11.55z M261.85,47.85
	c-4.166,2.167-6.783,4.467-7.85,6.9l-2,0.7c-2.167-3.3-0.184-6.383,5.95-9.25c5.366-2.5,9.816-3.6,13.35-3.3L261.85,47.85z
	 M206.7,28.1c0.033,0.933,0.066,1.617,0.1,2.05c-1.767,0.533-3.95,0.817-6.55,0.85c-0.133,0-2.383-0.083-6.75-0.25
	c-0.567-2.1,0.933-2.983,4.5-2.65H206.7z M208.7,40.75l5.3,1.35c-3.333-0.4-6.9,0.55-10.7,2.85c-2.133,1.267-5.2,3.3-9.2,6.1
	c0.333-3.5,2-6.033,5-7.6C200.8,42.55,204,41.65,208.7,40.75z M170,2.75c-1.733,0-3.283,0-4.65,0c-5.3,0-8.1,0.017-8.4,0.05
	c-2.8,0.267-4.95,0.767-6.45,1.5c-2.133,1.034-2.983,2.5-2.55,4.4c-0.367,0-0.917-0.083-1.65-0.25c-0.7-0.133-1.216-0.284-1.55-0.45
	c-0.633-2.867,1.817-4.917,7.35-6.15c3.633-0.833,7.6-1.2,11.9-1.1L170,2.75z M231.35,42.75L234,40.1
	c1.233,0.133,2.066,0.333,2.5,0.6c0.634,0.4,0.934,1.1,0.9,2.1c-2.634,1.034-5.233,1.017-7.801-0.05
	c0.367-0.533,0.684-0.717,0.95-0.55C230.884,42.533,231.15,42.717,231.35,42.75z M174,23.45v0.65c1.267-0.3,2.4-0.217,3.4,0.25
	c-0.033,1.533-0.75,2.4-2.15,2.6c-1.2,0.167-2.433-0.15-3.7-0.95c0.034-0.833,0.267-1.433,0.7-1.8C172.517,24,173.1,23.75,174,23.45
	z M175.15,20.25c-3.367,1.3-5.45,1.05-6.25-0.75c1.967-1.433,4.117-2.35,6.45-2.75h7.35C181.467,17.183,178.95,18.35,175.15,20.25z
	 M83.35,23.45L98.7,24.1c-2.567,0.533-6.8,0.967-12.7,1.3c-5.6,0.333-9.767,0.833-12.5,1.5c-1.633,0.4-2.967,0.95-4,1.65
	c-1.233,0.8-2.233,1.917-3,3.35c-2-4.2-0.383-6.85,4.85-7.95C73.183,23.55,77.183,23.383,83.35,23.45z M117.35,6.1H120
	c2.767,1,2.85,1.683,0.25,2.05c-2.567,0.367-4.65,0.3-6.25-0.2c0.133-0.867,0.5-1.417,1.1-1.65
	C115.467,6.167,116.217,6.1,117.35,6.1z M137.35,49.45l18-2c-4.8,1.767-8.917,3.15-12.35,4.15c-4.167,1.1-8.75,2.35-13.75,3.75
	c-1.4,1.4-1.833,3.2-1.3,5.4c-1.967-0.567-3.034-1.6-3.2-3.1c-0.133-1.333,0.467-2.783,1.8-4.35c1.3-1.533,2.9-2.683,4.8-3.45
	C133.483,49.017,135.483,48.883,137.35,49.45z M108.45,46.6c0.867-0.3,1.383-0.467,1.55-0.5l2-0.65c0.6-0.133,0.983,0.066,1.15,0.6
	c-0.8,0.833-1.85,1.317-3.15,1.45c-1.2,0.1-2.3-0.1-3.3-0.6C107.2,46.933,107.783,46.833,108.45,46.6z M52,43.8
	c-1.333,1.233-3.633,1.917-6.9,2.05c-3.2,0.1-5.5-0.383-6.9-1.45c2.267-1.433,5.533-1.983,9.8-1.65l3.35-0.65
	C51.883,42.533,52.1,43.1,52,43.8z M47.35,2.75l2.65,2c-1.633,2.467-3.933,3.5-6.9,3.1c-0.267-0.033-1.617-0.3-4.05-0.8
	c-1.733-0.333-3.183-0.483-4.35-0.45c1.233-0.5,3.316-1.133,6.25-1.9C43.85,3.933,45.983,3.283,47.35,2.75z M27.95,29.85
	c-1.2,0.433-2.284,0.517-3.25,0.25c-1.1-0.267-1.817-0.95-2.15-2.05c0.5-0.733,1.217-0.933,2.15-0.6l2.65,0.65
	c0.333,0.267,0.55,0.467,0.65,0.6C28.2,28.9,28.183,29.283,27.95,29.85z M79.8,45.85c-3.7,0.933-6.083,1.467-7.15,1.6
	c-2.333,0.333-3.9,0.3-4.7-0.1c-2.1-1.1-1.1-2.133,3-3.1l5.05-0.8l11.35,1.3C85.183,44.783,82.667,45.15,79.8,45.85z"/>
<path style="fill-rule:evenodd;clip-rule:evenodd;fill:#5C574B;" d="M294.8,68.45c4.533,0.367,8.283,0.65,11.25,0.85
	c-0.566,0.4-1.217,0.8-1.95,1.2c-2,1.133-3.767,1.7-5.3,1.7c0.134,0.7,0.55,1.666,1.25,2.899c0.767,1.334,1.25,2.334,1.45,3
	c0.667,2.067,0.833,3.5,0.5,4.301c-0.267,0.566-1.15,1.35-2.65,2.35c-1.733,1.134-4.166,1.333-7.3,0.6
	c-3.166-0.699-5.633-0.466-7.399,0.7c-0.5-0.833-0.967-1.316-1.4-1.45c-0.3-0.066-0.9-0.199-1.8-0.399
	c-0.566,10-0.584,23.45-0.05,40.35c-2.267-3.8-3.817-7.566-4.65-11.3c-0.566-2.533-1.033-6.684-1.4-12.45v-0.149
	c-0.333,4.399-1.666,9.716-4,15.949l-0.1,0.15c-0.066,0.866-0.083,1.5-0.05,1.9c0.033,0.966,0.517,2.066,1.45,3.3
	c0.933,1.267,1.416,2.184,1.449,2.75c0.067,1.033-0.666,2.467-2.199,4.3c-1.233,1.434-1.334,2.816-0.301,4.15
	c0.733,0.966,2.601,1.616,5.601,1.949c3.366,0.4,5.5,0.884,6.399,1.45c1.067-3.033,3.034-3.783,5.9-2.25
	c3.333,2.334,5.684,3.617,7.05,3.851c1.101,0.199,2.384,0.149,3.851-0.15c1.699-0.366,3-0.533,3.899-0.5
	c0.867,0.066,2.45,0.467,4.75,1.2c1.934,0.633,3.55,0.833,4.851,0.6c-0.101-4.233,2.733-6.566,8.5-7
	c3.133-0.066,5.399-0.184,6.8-0.35c2.434-0.233,4.083-0.834,4.95-1.8c0.767-0.867,1.25-2.317,1.449-4.351
	c0.2-2.233,0.483-3.684,0.851-4.35c0.666-0.533,1.184-1.033,1.55-1.5c0.5-0.2,1.384-0.05,2.65,0.45c1.199,0.5,2.066,0.6,2.6,0.3
	c0.8-0.434,1.4-1.483,1.8-3.15c0.367-1.399,0.517-2.666,0.45-3.8c0.967,1.4,1.517,4.717,1.65,9.95
	c0.166,5.467-0.417,8.767-1.75,9.899c1.166,0.7,2.399,1.25,3.699,1.65c0.567,0.167,1.601,0.417,3.101,0.75l1.25-3.9
	c0.2-0.566,0.684-1.3,1.45-2.199c0.666-0.767,1.05-1.584,1.149-2.45c0.066-0.667-0.184-1.601-0.75-2.8
	c-0.566-1.167-0.783-2.067-0.649-2.7c0.199-1.066,0.583-2.15,1.149-3.25c0.7-1.134,1.2-2.017,1.5-2.65
	c2.367,0.566,3.717-0.533,4.05-3.3c0.034-0.3,0.101-1.517,0.2-3.65c0.033-1.399,0.184-2.399,0.45-3l-0.65-2
	c-0.166,0.4-0.366,2.667-0.6,6.801c-0.167,2.666-1.283,4.3-3.35,4.899c0.633-1.467,0.85-3.083,0.649-4.85
	c-0.166-1.601-0.75-4.05-1.75-7.351c-0.633-2.933-0.483-5.366,0.45-7.3c0.066,0.134,0.083,0.4,0.05,0.8
	c-0.033,0.434-0.033,0.733,0,0.9c1.167,0.233,2.434,1.267,3.8,3.1c1.5,2,2.867,3.233,4.101,3.7c1.633,0.601,3.283,0.733,4.95,0.4
	c3.533-0.767,5.316-1.15,5.35-1.15c0.6,1.767,0.5,3.566-0.3,5.4c-1.233,2.8-1.9,4.45-2,4.95c-0.167,0.833-0.184,2.6-0.05,5.3
	c0.133,2.866,0.399,4.566,0.8,5.1c0.399,0.566,1.483,1.033,3.25,1.4c1.833,0.434,2.967,0.833,3.399,1.2
	c0.2,0.166,0.217,0.783,0.051,1.85c-0.134,1.033,0.033,1.733,0.5,2.1c0.633,0.467,2.3,0.834,5,1.101
	c2.933,0.3,4.783,0.616,5.55,0.95c0.833-2,2.55-2.983,5.149-2.95c2.467,0.033,4.367,0.8,5.7,2.3c0.233-0.3,1.05-1.167,2.45-2.6
	c1.134-1.134,1.833-2.034,2.1-2.7c0.067-0.2,0.067-1.783,0-4.75c-0.033-1.834,0.867-2.733,2.7-2.7c0.101-1.366,0.033-3.233-0.2-5.6
	c-0.3-2.601-0.433-4.483-0.399-5.65c0.033-1.134,0.267-2.4,0.7-3.8c0.5-1.467,1.133-2.8,1.899-4l0.05,7.399c0,0.934,0,1.567,0,1.9
	c0,2.233,0.267,4.917,0.801,8.05c0.767,4.634,1.183,7.233,1.25,7.8l0.449,2.9c-2.899,4.6-7.733,6.717-14.5,6.35
	c-6.533-0.399-9.983-0.6-10.35-0.6c-4.134-0.2-7.783-0.2-10.95,0c-3.133,0.167-4.934,0.283-5.399,0.35
	c-2.301,0.334-3.851,1.051-4.65,2.15c-0.733,0.934-0.884,1.75-0.45,2.45l-0.45,0.05c0.134-0.9,0.25-2.3,0.351-4.2
	c2.767-0.8,3.649-2.733,2.649-5.8c-0.166-0.5-0.699-1.8-1.6-3.9c-0.7-1.566-1.083-2.767-1.15-3.6c0,4.333-0.017,6.917-0.05,7.75
	c-1.833-0.366-3.533,0.483-5.1,2.55c-1.834,2.434-3.45,3.834-4.851,4.2c-0.433,0.134-1.116,0.267-2.05,0.4
	c-0.833,0.133-2.1,0.233-3.8,0.3c-1.866,0.033-4.3-0.05-7.3-0.25c-4.467-0.334-6.717-0.5-6.75-0.5
	c-0.101-1.566-0.117-3.934-0.05-7.101c-1.134,3.434-2.733,5.634-4.801,6.601c-1.166,0.533-3.966,0.983-8.399,1.35
	c0.566,3.334-4.601,4.733-15.5,4.2c-4.167-0.233-8.25-0.717-12.25-1.45c-3.934-0.733-6.483-1.467-7.65-2.2
	c-1,1.733-3.833,2.567-8.5,2.5c-3.733-0.066-6.883-0.5-9.45-1.3c-1.199-0.366-2.5-1.149-3.899-2.35
	c-1.867-1.634-2.983-2.566-3.351-2.8c-0.699-0.434-1.416-0.717-2.149-0.851c-0.2-1.767,0.55-3.316,2.25-4.649
	c2.066-1.634,3.267-2.917,3.6-3.851c-0.833,0.601-2.066,1.033-3.7,1.3c-1.633,0.267-3.183,0.267-4.649,0
	c-0.167-1.066-0.25-1.966-0.25-2.699l-0.05-1.801c0-5,0.449-9.05,1.35-12.149l-1.3-2.7c-0.5,1.967-0.834,3.233-1,3.8l-1.7-1.1
	c0.167,1.434,0.05,2.967-0.35,4.6c-0.4,1.7-1.034,3.167-1.9,4.4c-0.767,0.8-1.566,1.416-2.4,1.85
	c-1.233,0.634-3.216,0.95-5.949,0.95c-2.667,0-4.5,0.267-5.5,0.8c0.899,1.2,3.25,1.8,7.05,1.8c3.399,0,5.333,0.95,5.8,2.851
	c0.1,0.467,0.116,0.95,0.05,1.45c-0.166,0.866-0.75,1.683-1.75,2.449c-1,0.733-2.666,1.45-5,2.15c-2.434,0.7-5.566,1.083-9.399,1.15
	c-2.567,0.033-5.9-0.101-10-0.4l-2.551-0.15c0.067-0.199,0.15-0.6,0.25-1.199c0.067-0.601,0.167-1.034,0.301-1.301
	c-0.9-0.066-1.9-0.066-3,0c-0.4,0.034-1.334,0.134-2.801,0.301c-1.466,0.133-2.6,0.199-3.399,0.199c0.1-0.233,0.267-0.866,0.5-1.899
	c0.2-0.934,0.416-1.584,0.649-1.95c-0.566,0.233-1.267,0.4-2.1,0.5c-0.3-2.167-1.017-4.95-2.15-8.35
	c-0.633-2.834-0.233-5.517,1.2-8.051c0.167-0.3,0.733-1.199,1.7-2.699c0.533-0.834,0.833-1.567,0.9-2.2
	c0.133-0.8,0.033-1.884-0.301-3.25c-0.133-0.667-0.616-1.8-1.449-3.4c-0.567-1.066-0.9-2.066-1-3c0.033,0.9-0.017,1.783-0.15,2.65
	c-0.267,1.666-0.917,3.2-1.95,4.6l-0.6-0.2c-0.2,0.7-0.584,1.367-1.15,2c-1.833,1.567-4.367,2.767-7.6,3.601
	c-1.534,0.267-2.817,0.45-3.85,0.55l0.1,0.1c-2.067,0.301-4.467,0.417-7.2,0.351c1.967,1.666,4.433,2.7,7.4,3.1
	c3.6,0.134,6.333,0.267,8.2,0.4c-0.1,0.934-0.017,1.767,0.25,2.5c0.066,0.2,0.367,0.883,0.9,2.05c-0.2,0.8-0.217,2.384-0.05,4.75
	c0.166,2.167,0.066,3.7-0.3,4.6c-0.9,2.2-2.884,3.634-5.95,4.301c-1.833,0.399-4.434,0.55-7.8,0.449
	c-2.467,1.434-7.65,2.051-15.55,1.851c-8.033-0.2-13.533-1.167-16.5-2.9c1.133-0.6,1.9-1.217,2.3-1.85c0.6-0.9,0.733-2.7,0.4-5.4
	c-0.167-1.467-0.483-3.333-0.95-5.6c0.367,2.6-0.367,4.75-2.2,6.45c-1.533,1.399-3.883,2.55-7.05,3.449
	c-1.767,0.5-3.817,0.917-6.15,1.25c-0.9,0.134-3.284,0.467-7.15,1c-2.6,0.334-4.45,0.65-5.55,0.95
	c-2.133,0.601-5.117,1.467-8.95,2.601c-3.367,0.733-6.667,0.816-9.9,0.25c-1.367-0.233-4.367-0.934-9-2.101
	c-2.633-0.666-5.033-1.133-7.2-1.399l-1.35-0.15c-2.434-0.2-6.283-0.417-11.55-0.65c-4.667-0.333-8.433-0.916-11.3-1.75
	c0.867-1.1,1.317-2.25,1.35-3.449c0.066-1.4-0.583-2.301-1.95-2.7c-1.6-0.467-2.65,0.017-3.15,1.45
	c-0.667,1.966-1.217,3.083-1.65,3.35c-0.934,0.566-2.333,0.8-4.2,0.7c-2.267-0.134-3.717-0.134-4.35,0
	c-0.833,0.2-2.066,0.666-3.7,1.399c-1.434,0.634-2.717,1.034-3.85,1.2c-4.167,0.533-8.983,0.233-14.45-0.899
	c-2.833-0.567-6.117-1.467-9.85-2.7l-0.1-0.05c-0.667-0.233-1.55-0.584-2.65-1.051c-1.034-0.366-2.184-0.6-3.45-0.699
	c-2.133-0.134-4.55-0.084-7.25,0.149c0.733,1.334,2.067,2.134,4,2.4c2.833,0.366,4.4,0.616,4.7,0.75
	c-0.867,1.066-2.65,1.883-5.35,2.45c-1.2,0.233-3.283,0.517-6.25,0.85c-0.633,0.066-1.233,0.134-1.8,0.2
	c-0.167,0.033-0.316,0.05-0.45,0.05l-7.95,1.15c-0.167,0-0.333,0.017-0.5,0.05c-0.4-0.834-0.667-1.917-0.8-3.25l-0.15-2.05
	c0-1.2,0.066-2.551,0.2-4.051c0.333-3.433,0.567-6.083,0.7-7.949l0.25-3.2C3.383,107.583,2.8,99.467,1.6,88.6
	c-0.967-9-1.5-16.233-1.6-21.7c1,0,2.083-0.017,3.25-0.05L1,67.4c0.333,1.367,2.6,2.067,6.8,2.1c0.867,1.9,1.383,3.217,1.55,3.95
	c0.4,1.899,0.333,4.267-0.2,7.1c-0.833,4.467-1.25,6.767-1.25,6.9l1.6,0.45c-0.7,1-1.117,2.133-1.25,3.399L4,93.45
	c-0.167,1.833,0.783,3.416,2.85,4.75c1.767,1.133,4.033,1.883,6.8,2.25h0.05c1,0.133,1.95,0.2,2.85,0.2l2.55-0.2l0.35-0.075
	c0.375-0.081,0.742-0.173,1.1-0.275c2.034-0.666,2.983-1.75,2.85-3.25h-0.1l-3.2,0.25c1.367-0.267,2.4-0.466,3.1-0.6
	c1.133-0.167,2.283-0.283,3.45-0.35c-0.533,1.199-0.633,2.466-0.3,3.8c-0.4,1.066-0.533,2.3-0.4,3.7L26,104.1l0.95-0.3
	c0.167,1.4,0.833,2.384,2,2.95c1.267,0.634,3.8,1.15,7.6,1.55c3.167,0.5,5.833,0.917,8,1.25c4.067,0.566,7.383,0.767,9.95,0.601
	c-3.933,1.333-9.533,1.3-16.8-0.101c-3.934-0.767-9.317-1.816-16.15-3.149c5.434,3.1,12.917,5.333,22.45,6.699
	c4.9,0.667,9.467-0.149,13.7-2.449c1.867-1,3.833-2.351,5.9-4.051c0.433,0.733,0.566,1.601,0.4,2.601
	c0.2-1.066,0.067-1.983-0.4-2.75c0.467-0.367,0.917-0.733,1.35-1.101c0.5-0.366,0.9-0.683,1.2-0.949
	c0.967-0.801,1.817-1.634,2.55-2.5h-3.6c1.633-1.167,3.017-1.967,4.15-2.4c-0.1,1.866,0.2,3.667,0.9,5.4
	c2.934-1.601,4.95-0.601,6.05,3c0.7,4.566,1.167,7.55,1.4,8.949c0.7,0.067,1.75,0.101,3.15,0.101c1.433,0,2.483,0.017,3.15,0.05
	c-0.433,2.066,0.4,3.45,2.5,4.15c1.8,0.566,3.767,0.55,5.9-0.051c2.133-0.633,2.983-1.466,2.55-2.5
	c-0.5-1.233-2.967-2.283-7.4-3.149c1.333-1.566,1.9-2.816,1.7-3.75c-0.133-0.667-0.783-1.334-1.95-2
	c-1.633-0.967-2.65-1.617-3.05-1.95c-1.033-0.934-1.55-2.116-1.55-3.55c0-0.934,0.55-1.967,1.65-3.101
	c1.167-1.166,1.783-2.116,1.85-2.85c0.066-0.667-0.2-1.667-0.8-3c-0.733-1.667-1.15-2.667-1.25-3l-2.2-6.65
	c-0.767-2.133-1.35-4.55-1.75-7.25c0.733,1.534,1.55,2.784,2.45,3.75c0.2-0.933-0.25-3.6-1.35-8c-0.934-3.7-0.883-5.883,0.15-6.55
	c0.833-0.533,3.35-0.367,7.55,0.5c2.167,0.467,3.934,0.817,5.3,1.05c-0.567,0.6-1.117,1.183-1.65,1.75c-0.9,1.3-1.233,3.483-1,6.55
	c0.1,1.566,0.083,2.966-0.05,4.199c-0.067,0.733-0.283,2.067-0.65,4c-0.167,0.934-0.233,3.834-0.2,8.7
	c0.033,3.867-0.4,6.601-1.3,8.2c-0.033,1.6,0.017,2.783,0.15,3.55c0.2,1.233,0.65,2.367,1.35,3.4c0.7,0.967,2,2.25,3.9,3.85
	c2.033,1.733,3.333,2.934,3.9,3.601c1.5,1.633,2.6,2.933,3.3,3.899c1.233,1.733,1.733,3.3,1.5,4.7l0.4,0.1
	c2.1,0,5.066,0.117,8.9,0.351c4,0.267,6.933,0.399,8.8,0.399c2.2,0.233,3.717,0.334,4.55,0.301c1.267-0.034,2.8-0.567,4.6-1.601
	l1.25-0.649c5.466-0.067,9.35-0.983,11.65-2.75h1.2c0.133-0.301,0.25-0.834,0.35-1.601c1.5-2.033,2.017-4.85,1.55-8.45l-1.2,0.9
	c-0.067-1.467-0.167-2.616-0.3-3.45c-0.333-2.133-1.583-3.7-3.75-4.7c-2.534-1.166-4.1-2.3-4.7-3.399
	c-0.933,0.566-2.067,1.684-3.4,3.35l-1.15,1.5c-1.333,1.634-2.833,2.733-4.5,3.3c-1.267,0.4-2.784,0.534-4.55,0.4
	c-1-0.1-2.5-0.283-4.5-0.55c3.7-0.101,6.65-1.05,8.85-2.851c1.5-0.699,2.783-1.699,3.85-3c0.8-0.933,1.683-2.316,2.65-4.149
	c0.833-1.566,1.6-2.566,2.3-3c1.034-0.4,2.05-0.95,3.05-1.65c2.633-1.8,4.467-3.75,5.5-5.85c0.566-1.2,1.033-2.417,1.4-3.65
	c0.467-1.633,0.617-2.916,0.45-3.85c-0.133-0.834-0.684-1.75-1.65-2.75c-0.9-1-1.417-1.967-1.55-2.9
	c-0.1-1.066,0.317-2.316,1.25-3.75c0.967-1.466,1.383-2.783,1.25-3.95c0-0.133-0.017-0.267-0.05-0.4
	c2.333,0.167,5.05,0.367,8.15,0.6c0.033,0.067,0.066,0.15,0.1,0.25c1.433,4.034,1.6,7.917,0.5,11.65c-0.5,1.767-1.267,2.8-2.3,3.1
	c-1.4,0.434-2.433,1.084-3.1,1.95c-0.367,0.5-0.566,1.167-0.6,2c-0.034,1.267-0.083,2.033-0.15,2.3
	c-0.667,2.601-1.167,4.584-1.5,5.95c-0.6,2.467-0.933,4.434-1,5.9c-0.033,0.666,0,1.416,0.1,2.25c-0.167,1.366-0.167,2.616,0,3.75
	l0.7-0.801c0.3,1.034,0.883,2.584,1.75,4.65c3.1,2.467,6.65,3.283,10.65,2.45c4.033-0.834,6.983-3.084,8.85-6.75
	c-0.2,1.666-0.733,3.333-1.6,5c-1,1.6-1.65,2.733-1.95,3.399c-0.933,2.101,0.434,4.233,4.1,6.4c-0.333,0.667-0.5,1.483-0.5,2.45
	c0.033,1.1,0.033,1.916,0,2.45c3.133,0.033,5.45,0.116,6.95,0.25c-1.6,2.233-0.117,3.5,4.45,3.8c3.4,0.267,6.717,0.083,9.95-0.55
	c1.5-0.301,2.65-0.884,3.45-1.75c1.033-1.134,1.867-1.867,2.5-2.2c2.533-0.834,4.033-1.384,4.5-1.65
	c0.566-0.333,0.65-1.583,0.25-3.75c-0.567-3.033-2.2-4.883-4.9-5.55c-1.833-0.434-4.466-0.333-7.9,0.3
	c-2.667,0.533-4.633,0.75-5.9,0.65c-1.667-0.134-3.65-0.783-5.95-1.95c3.034-0.333,5.1-0.6,6.2-0.8c1.7-0.334,3.5-0.917,5.4-1.75
	c2.633-1.101,5.333-1.967,8.1-2.601c1.9-0.433,4.8-0.933,8.7-1.5c1.033-1.333,1.4-3.583,1.1-6.75c-0.333-3.233-0.083-5.433,0.75-6.6
	c0.6-0.833,1.584-1.517,2.95-2.05c1.267-0.5,2.134-1.2,2.6-2.101l0.301-0.85c-0.233-2.7-0.284-5.066-0.15-7.1
	c-0.167-0.367-0.467-0.634-0.9-0.801c-0.6-0.233-1.166-0.649-1.699-1.25c-1.9-1.899-3.101-3.017-3.601-3.35
	c-0.167-0.134-0.3-0.517-0.4-1.15c-0.1-0.566-0.383-1.017-0.85-1.35c-0.367-0.233-0.95-0.267-1.75-0.1c-0.9,0.166-1.5,0.166-1.8,0
	c-3.433-1.833-5.783-3-7.05-3.5c3.333-0.066,6.083-0.566,8.25-1.5c0.267-0.1,0.517-0.217,0.75-0.35c2.033-0.1,4.45-0.583,7.25-1.45
	c5.166-1.567,8.383-2.434,9.649-2.6c0.601-0.067,4.584-0.683,11.95-1.85c0.8-0.133,1.584-0.25,2.351-0.35l-0.301,0.2
	c3.5-0.233,6.483-0.117,8.95,0.35c3.867,0.767,5.816,2.4,5.851,4.9c3.333,0.2,5.933,2.083,7.8,5.65c1.7,3.333,2.184,6.767,1.45,10.3
	c-0.301,1.467-1.634,4.45-4,8.95c-0.4,0.767-0.867,1.733-1.4,2.899c-0.5,0.8-1.233,1.217-2.2,1.25c1.733,0.2,2.834,0.033,3.3-0.5
	c0.634-1.267,1.334-2.583,2.101-3.95c1.333-2.033,2.233-3.517,2.7-4.449c0.833-1.534,1.316-3.334,1.449-5.4
	c0.034-0.6,0.017-1.7-0.05-3.3c-0.1-1.434-0.083-2.533,0.05-3.3c0.167-0.934,0.584-1.983,1.25-3.15c0.7-1.2,1.134-2.167,1.301-2.9
	c0.899-3.733,0-6.65-2.7-8.75c1.866,0.467,3.467,1.25,4.8,2.35c0.667,0.566,1.65,1.6,2.95,3.1c1.366,1.567,2.2,2.667,2.5,3.3
	c0.267,0.533,0.399,1.517,0.399,2.95c0,1.5,0.101,2.517,0.301,3.05c0.3,0.867,0.966,2.15,2,3.851c1,1.633,1.649,2.934,1.949,3.899
	c-0.199-1.866-0.533-4.566-1-8.1c-0.066-0.7-0.133-1.366-0.199-2c0.1,0.4,0.216,0.8,0.35,1.2l0.15,1.5l0.1-0.851
	c0.434,1.167,0.917,2.15,1.45,2.95c2.166-1.467,4.55-2.733,7.149-3.8c3.067-1.134,5.483-2.083,7.25-2.85
	C291.983,70.8,293.8,69.65,294.8,68.45z M249.5,113.05c0.5-0.333,0.967-0.816,1.4-1.45c0.767-0.399,1.066-1.017,0.899-1.85
	c0.334-0.967,0.634-1.967,0.9-3l-2-3.3l-0.5,2.399c-0.233-0.6-0.3-1.133-0.2-1.6c-3.5-1.3-5.65-2.217-6.45-2.75
	c-1.967-1.333-2.267-2.967-0.899-4.9c0.466-0.633,1.583-1.233,3.35-1.8s2.934-1.233,3.5-2c0.366-0.467,0.5-1.149,0.4-2.05
	c-0.101-1-0.084-1.65,0.05-1.95c1.166-1.666,2.033-2.95,2.6-3.85c1.033-1.601,1.316-3.066,0.851-4.4
	c-0.5-1.467-2.417-2.184-5.75-2.149c-3.867,0.066-6.25-0.25-7.15-0.95c1-3.101,0.05-4.833-2.85-5.2
	c-1.634-0.233-4.217-0.317-7.75-0.25c-0.367-0.067-1.084-0.467-2.15-1.2c-1-0.633-1.967-0.983-2.9-1.05
	c-1.166-0.067-2.6,0.35-4.3,1.25c-1.633,0.867-3.149,1.967-4.55,3.3c0.333,2.101,0.55,4.483,0.65,7.15
	c1.767,2.566,2.85,4.733,3.25,6.5c0.633,2.866,1.017,4.5,1.149,4.899c0.367,1.4,0.934,2.934,1.7,4.601c0.1,0.2,0.717,1.95,1.85,5.25
	c0.034,0.866-0.283,1.7-0.949,2.5c-0.634,0.767-0.95,1.5-0.95,2.2c0.033,4.8,3.816,7.416,11.35,7.85
	c5.233,0.267,10.566-0.333,16-1.8L249.5,113.05z M0,64.15l0.1-2.95h0.05C0.083,63.567,0.033,65.367,0,66.6
	C0,65.733,0,64.917,0,64.15z M52.1,63.75c2.8-0.033,5-0.133,6.6-0.3l0.1-0.15c0.067,0,0.133,0,0.2,0
	c4.367-0.167,7.783,0.034,10.25,0.6c-0.333,2.033-1.45,4.15-3.35,6.35c-4.1,4.767-7.017,7.816-8.75,9.15
	c-1.033-0.934-2.133-2.7-3.3-5.301c-1.033-2.3-2.367-3.933-4-4.899c-1.333-0.8-3.633-1.617-6.9-2.45
	c-1.7-0.467-3.15-0.917-4.35-1.35c4.767-0.8,7.7-1.233,8.8-1.3C49.1,63.967,50.667,63.85,52.1,63.75z M123.4,68.1
	c0.367,0.1,2.117,0.433,5.25,1c2.5,0.467,4.133,0.95,4.9,1.45c0.434,0.3,1.184,1.083,2.25,2.35c1.2,1.4,1.95,2.234,2.25,2.5
	c2.133,1.866,3.534,3.466,4.2,4.8c1,2,0.983,4.2-0.05,6.6c-0.434,0.934-1.017,1.8-1.75,2.601c1.733-3.567,1.083-6.417-1.95-8.551
	c-0.833-0.6-3.983-1.966-9.45-4.1c-1.233-0.5-2.267-1.167-3.1-2c-1-1.033-1.833-1.75-2.5-2.15c-1.3-0.767-3.534-1.5-6.7-2.2
	c-1.033-0.233-1.967-0.467-2.8-0.7c1.2-0.1,2.333-0.233,3.4-0.4C119.717,68.833,121.733,68.433,123.4,68.1z M395.15,70.35
	c-0.367,0.267-0.784,0.533-1.25,0.8c-1.834,1.1-2.7,2.484-2.601,4.15c-0.533,0.066-1.6,0.167-3.2,0.3
	c-1.433,0.101-2.483,0.017-3.149-0.25c-0.5-0.199-1.167-0.883-2-2.05c-0.767-1.066-1.517-1.65-2.25-1.75c-0.667-0.1-1.334,0.233-2,1
	c-0.8,0.9-1.45,1.434-1.95,1.601c-0.566,0.166-1.467,0.3-2.7,0.399c-1.3,0.101-2.233,0.217-2.8,0.351
	c-2.934,0.733-5.017,1.983-6.25,3.75c-2.366,3.399-3.634,5.166-3.8,5.3c-0.267,0.267-1.334,0.866-3.2,1.8
	c-1.5,0.767-2.583,1.767-3.25,3c-0.6,1.1-1.15,3-1.65,5.7c-1.699-1.533-2.699-3.467-3-5.8c-0.199-1.367-0.433-3.534-0.699-6.5
	c-0.267-1.101-0.467-1.851-0.601-2.25c-0.366-2.2-0.733-3.851-1.1-4.95c0.1-0.7,0.316-1.351,0.649-1.95
	c0.4,0.333,0.784,0.684,1.15,1.05c0.5-1.133,1.65-2.033,3.45-2.7l-2.25,1.4c-0.167,2.333-0.233,4.116-0.2,5.35
	c0.033,2.167,0.55,3.717,1.55,4.65c0.5-0.566,0.9-1.45,1.2-2.65c0.3-1.433,0.583-2.383,0.85-2.85c0.934-1.7,2.233-3.017,3.9-3.95
	c2.134-0.933,3.833-1.783,5.1-2.55c0.534-0.333,1.051-0.683,1.551-1.05c1.5-0.167,2.616-0.317,3.35-0.45
	c3-0.533,6.467-0.733,10.4-0.6c2.5,0.1,5.933,0.4,10.3,0.9C391.366,69.883,393.517,70.15,395.15,70.35z M406.35,70.15
	c0.101,1.133,0.184,2.383,0.25,3.75c0.2,5-0.199,8.767-1.199,11.3c-1.467-0.467-2.95-2.667-4.45-6.601
	c-1.533-4-1.634-6.583-0.3-7.75C403.184,70.883,405.083,70.65,406.35,70.15z M307.7,121.4c2.833,0.133,5.184-0.2,7.05-1
	c2.1-0.867,3.616-2.334,4.55-4.4c1.367-3,2.267-4.75,2.7-5.25l0.7-3.3c-0.634,0.767-1.184,1.616-1.65,2.55
	c0.3-1.733,0.417-3.45,0.351-5.15c-0.101-1.866-0.384-3.199-0.851-4c-1.133,0.667-2.649,1.617-4.55,2.851
	c-1.7,0.967-3.467,1.55-5.3,1.75c-1.3,0.133-2.816,0.017-4.55-0.351c-0.967-0.199-2.417-0.5-4.351-0.899
	c3.233,0.1,6.033-0.283,8.4-1.15c2.7-1.033,5-2.767,6.899-5.2c3-2.399,4.867-4.05,5.601-4.949c1.767-2.2,2.434-4.684,2-7.45
	l-2-1.351c-0.267,1.134-0.584,2.134-0.95,3c0.167-0.833,0.25-2.05,0.25-3.649l1.35-1.351c-0.066-0.833-0.083-2.1-0.05-3.8
	c0.4,1.233,1.4,2.101,3,2.601c1.8,0.566,2.967,1.233,3.5,2c0.367,0.533,0.533,1.566,0.5,3.1c0,1.733,0.066,2.8,0.2,3.2l1.4-0.351
	c0.233,3.767,0.133,6.551-0.301,8.351c-0.8,3.166-2.633,4.833-5.5,5c0.101,0.899,0.684,2.25,1.75,4.05
	c0.967,1.634,1.434,3.134,1.4,4.5c0-0.066-0.717,2-2.15,6.2c-0.866,1.133-1.983,2.217-3.35,3.25c-0.767,0.566-1.884,1.35-3.35,2.35
	c-2.434,1.9-3.75,4.517-3.95,7.851c-1.7-0.4-2.867-1.567-3.5-3.5c-0.8-2.334-1.483-3.717-2.05-4.15
	C310.1,122.116,309.033,121.667,307.7,121.4z M318.85,92.5l-1,1.35c0-0.166,0.051-0.3,0.15-0.399
	C318.1,93.283,318.384,92.967,318.85,92.5z M302.75,120.95c-2.6-0.134-4.417-0.601-5.45-1.4c1.101-0.066,3.066-0.083,5.9-0.05
	c2.566,0,4.55-0.066,5.95-0.2c-0.7,0.134-2.084,0.351-4.15,0.65c-1.733,0.267-3.134,0.533-4.2,0.8L302.75,120.95z M131.6,98.75
	c0.4-1.667,0.8-2.783,1.2-3.35c0.467-0.601,1.05-1.117,1.75-1.551c-0.433,0.5-0.833,1.017-1.2,1.551
	C132.917,96.1,132.333,97.217,131.6,98.75z M8.3,91.3c0.7-1.166,1.95-2.017,3.75-2.55c1.2,0.533,1.867,1.434,2,2.7
	c0.267,2.566,0.583,4.399,0.95,5.5c-6.233-0.7-8.117-2.767-5.65-6.2L8.3,91.3z M63.2,119.2c0.8-1.7,1.083-2.967,0.85-3.8
	c-0.2-0.7-0.833-1.25-1.9-1.65l-0.05,0.05l-0.2,0.351c-1.566,2.199-3.7,3.649-6.4,4.35c-1.133,0.267-3.817,0.533-8.05,0.8
	c-1.2,0.066-3.733,0.15-7.6,0.25c-3.267,0.467-4.967,1.717-5.1,3.75c1.7,0.967,3.65,1.483,5.85,1.55v0.45
	c3.8,0.101,6.583,0.15,8.35,0.15c3.066,0.033,5.35-0.184,6.85-0.65C59.5,123.7,61.967,121.833,63.2,119.2z M26.9,98.9v2.6
	c-0.133-0.3-0.283-0.717-0.45-1.25c-0.034-0.1-0.067-0.2-0.1-0.3c0.033-0.101,0.083-0.2,0.15-0.3
	C26.6,99.417,26.733,99.167,26.9,98.9z"/>
<path style="fill-rule:evenodd;clip-rule:evenodd;fill:#49453B;" d="M413.95,129.7l0.2,1.899c0,0.2,0,0.4,0,0.601v0.399
	c0,0.4-0.017,0.784-0.051,1.15c-0.1,0.667-0.25,1.333-0.449,2l-1.65,3c-5,0.467-10.8,0.717-17.4,0.75
	c-3.767,0-9.583-0.017-17.449-0.05c-2.834,0-6.034,0.083-9.601,0.25c-0.434-0.7-0.283-1.517,0.45-2.45c0.8-1.1,2.35-1.816,4.65-2.15
	c0.466-0.066,2.267-0.183,5.399-0.35c3.167-0.2,6.816-0.2,10.95,0c0.366,0,3.816,0.2,10.35,0.6c6.767,0.367,11.601-1.75,14.5-6.35
	C413.884,129.233,413.917,129.467,413.95,129.7z M367.1,139.75c-0.566,0.033-1.116,0.066-1.649,0.1L364,139.9
	c-1.233,0.066-2.517,0.149-3.85,0.25c-0.567,0.033-1.15,0.083-1.75,0.149l-1.25,0.101c-2.301,0.267-5.167,0.75-8.601,1.449
	c-1.767,0.367-3.25,0.684-4.45,0.95l-3.3,0.65c-0.399,0.066-0.666,0.116-0.8,0.149l-0.35,0.101h-0.101l-0.25,0.05
	c-1.399,0.233-2.483,0.4-3.25,0.5c-8.366,1.167-19.283,1.1-32.75-0.2c-17.666-1.7-28.566-2.566-32.7-2.6l-2.699-0.101
	c-0.101-0.399-0.267-0.8-0.5-1.199c-0.567-1-2.034-1.733-4.4-2.2c-1.434-0.334-2.783-0.517-4.05-0.55
	c-1.066-0.101-2.017-0.117-2.851-0.051c-0.033-0.399-0.183-0.966-0.449-1.699s-0.417-1.25-0.45-1.551
	c-0.334,1.301-1.233,2.284-2.7,2.95l-1.65,0.5c-2.033,0.467-4.85,0.533-8.449,0.2c-1.967-0.2-4.5-0.533-7.601-1
	c-1.366-0.134-3.399-0.167-6.1-0.1l-5.8,0.3c-1.301,0.1-3.567,0.217-6.801,0.35c-0.233-0.967-0.8-2.05-1.699-3.25
	c-0.233-0.3-0.884-1.116-1.95-2.45c-0.834-1.033-1.467-1.899-1.9-2.6c-0.767-1.3-1.149-2.65-1.149-4.05
	c-1.2,3.033-2.034,4.816-2.5,5.35c-0.566,0.667-2.2,1.5-4.9,2.5c-1.333,0.5-3.2,1.184-5.6,2.05c-2.033,0.667-3.983,1.084-5.85,1.25
	c-5.3,0.5-12.816,0.717-22.55,0.65c-0.767,0-1.633,0.05-2.6,0.15c-1.5,0.166-3.933,0.433-7.3,0.8c-2.867,0.133-4.95-0.167-6.25-0.9
	l0.15-0.149c0.8-1.233,1.4-2.051,1.8-2.45l-5.65,0.899c-2.333,0.334-4.433,0.767-6.3,1.301c-1.267,0.366-3.983,0.783-8.15,1.25
	c-3.567,0.433-6.067,1-7.5,1.699c-0.367-0.033-0.75-0.05-1.15-0.05l-11.2-1c-3.2-0.399-6.55-0.733-10.05-1l-0.75-0.1
	c-0.367-0.033-0.733-0.05-1.1-0.05l-18.25-0.9c-1-0.033-1.983-0.05-2.95-0.05l-3.7-0.05c-0.1,0-0.183,0-0.25,0
	c-0.1,0-0.216,0-0.35,0c-3.6-0.034-8.567-0.051-14.9-0.051c-0.133,0-0.25,0-0.35,0c-0.133,0-0.25,0-0.35,0c-0.133,0-0.25,0-0.35,0
	c-0.133,0-0.25,0-0.35,0s-0.2,0-0.3,0s-0.2,0-0.3,0c-0.1,0-0.2,0-0.3,0s-0.2,0-0.3,0c-0.1,0-0.2,0-0.3,0s-0.2,0-0.3,0s-0.2,0-0.3,0
	c-0.1,0-0.2,0-0.3,0c-0.133,0-0.25,0-0.35,0s-0.2,0-0.3,0c-0.133,0-0.25,0-0.35,0s-0.2,0-0.3,0c-0.133,0-0.25,0-0.35,0
	c-0.133,0-0.25,0-0.35,0c-0.133,0-0.25,0-0.35,0c-0.4,0-0.816,0-1.25,0c-0.367,0-0.733,0-1.1,0c-0.867,0-1.733,0-2.6,0
	c-0.167,0-0.333,0-0.5,0L38.7,136c-1.2,0-2.467-0.017-3.8-0.05L30.05,136c-0.633,0-1.233,0.017-1.8,0.05c-0.367,0-0.733,0-1.1,0
	c-1.6,0.033-3.083,0.101-4.45,0.2c-2.034,0.134-5.217,0.533-9.55,1.2c-3.667,0.3-6.483-0.367-8.45-2
	c-0.167-0.134-0.333-0.283-0.5-0.45l-0.25-0.35c-0.3-0.367-0.567-0.767-0.8-1.2c0.167-0.033,0.333-0.05,0.5-0.05l7.95-1.15
	c0.133,0,0.283-0.017,0.45-0.05c0.567-0.066,1.167-0.134,1.8-0.2c2.967-0.333,5.05-0.616,6.25-0.85c2.7-0.567,4.483-1.384,5.35-2.45
	c-0.3-0.134-1.867-0.384-4.7-0.75c-1.933-0.267-3.267-1.066-4-2.4c2.7-0.233,5.117-0.283,7.25-0.149
	c1.267,0.1,2.417,0.333,3.45,0.699c1.1,0.467,1.983,0.817,2.65,1.051l0.1,0.05c3.733,1.233,7.017,2.133,9.85,2.7
	c5.467,1.133,10.284,1.433,14.45,0.899c1.133-0.166,2.417-0.566,3.85-1.2c1.633-0.733,2.867-1.199,3.7-1.399
	c0.633-0.134,2.083-0.134,4.35,0c1.867,0.1,3.267-0.134,4.2-0.7c0.433-0.267,0.983-1.384,1.65-3.35c0.5-1.434,1.55-1.917,3.15-1.45
	c1.367,0.399,2.017,1.3,1.95,2.7c-0.033,1.199-0.483,2.35-1.35,3.449c2.867,0.834,6.633,1.417,11.3,1.75
	c5.267,0.233,9.117,0.45,11.55,0.65l1.35,0.15c2.167,0.267,4.566,0.733,7.2,1.399c4.633,1.167,7.633,1.867,9,2.101
	c3.233,0.566,6.533,0.483,9.9-0.25c3.833-1.134,6.817-2,8.95-2.601c1.1-0.3,2.95-0.616,5.55-0.95c3.867-0.533,6.25-0.866,7.15-1
	c2.333-0.333,4.383-0.75,6.15-1.25c3.167-0.899,5.517-2.05,7.05-3.449c1.833-1.7,2.567-3.851,2.2-6.45
	c0.467,2.267,0.783,4.133,0.95,5.6c0.333,2.7,0.2,4.5-0.4,5.4c-0.4,0.633-1.167,1.25-2.3,1.85c2.967,1.733,8.467,2.7,16.5,2.9
	c7.9,0.2,13.083-0.417,15.55-1.851c3.367,0.101,5.967-0.05,7.8-0.449c3.066-0.667,5.05-2.101,5.95-4.301
	c0.366-0.899,0.466-2.433,0.3-4.6c-0.167-2.366-0.15-3.95,0.05-4.75c-0.533-1.167-0.833-1.85-0.9-2.05
	c-0.267-0.733-0.35-1.566-0.25-2.5c-1.867-0.134-4.6-0.267-8.2-0.4c-2.967-0.399-5.433-1.434-7.4-3.1
	c2.733,0.066,5.133-0.05,7.2-0.351c1.833,1.967,4.816,2.384,8.95,1.25c4.1-1.133,6.566-3.05,7.399-5.75l0.15-0.399l-3.4-1.15
	c1.033-1.399,1.684-2.934,1.95-4.6c0.134-0.867,0.184-1.75,0.15-2.65c0.1,0.934,0.433,1.934,1,3c0.833,1.601,1.316,2.733,1.449,3.4
	c0.334,1.366,0.434,2.45,0.301,3.25c-0.067,0.633-0.367,1.366-0.9,2.2c-0.967,1.5-1.533,2.399-1.7,2.699
	c-1.434,2.534-1.833,5.217-1.2,8.051c1.134,3.399,1.851,6.183,2.15,8.35c0.833-0.1,1.533-0.267,2.1-0.5
	c-0.233,0.366-0.449,1.017-0.649,1.95c-0.233,1.033-0.4,1.666-0.5,1.899c0.8,0,1.934-0.066,3.399-0.199
	c1.467-0.167,2.4-0.267,2.801-0.301c1.1-0.066,2.1-0.066,3,0c-0.134,0.267-0.233,0.7-0.301,1.301c-0.1,0.6-0.183,1-0.25,1.199
	l2.551,0.15c4.1,0.3,7.433,0.434,10,0.4c3.833-0.067,6.966-0.45,9.399-1.15c2.334-0.7,4-1.417,5-2.15
	c1-0.767,1.584-1.583,1.75-2.449c0.066-0.5,0.05-0.983-0.05-1.45c-0.467-1.9-2.4-2.851-5.8-2.851c-3.8,0-6.15-0.6-7.05-1.8
	c1-0.533,2.833-0.8,5.5-0.8c2.733,0,4.716-0.316,5.949-0.95c0.834-0.434,1.634-1.05,2.4-1.85c-1.833,2.6-4.134,3.583-6.9,2.95
	c4.134,1.466,7.184,1.1,9.15-1.101c1.767-2,2.434-5.184,2-9.55l-0.3-0.2c0.166-0.566,0.5-1.833,1-3.8l1.3,2.7
	c-0.9,3.1-1.35,7.149-1.35,12.149l0.05,1.801c0,0.733,0.083,1.633,0.25,2.699c1.467,0.267,3.017,0.267,4.649,0
	c1.634-0.267,2.867-0.699,3.7-1.3c-0.333,0.934-1.533,2.217-3.6,3.851c-1.7,1.333-2.45,2.883-2.25,4.649
	c0.733,0.134,1.45,0.417,2.149,0.851c0.367,0.233,1.483,1.166,3.351,2.8c1.399,1.2,2.7,1.983,3.899,2.35
	c2.567,0.8,5.717,1.233,9.45,1.3c4.667,0.067,7.5-0.767,8.5-2.5c1.167,0.733,3.717,1.467,7.65,2.2c4,0.733,8.083,1.217,12.25,1.45
	c10.899,0.533,16.066-0.866,15.5-4.2c4.434-0.366,7.233-0.816,8.399-1.35c2.067-0.967,3.667-3.167,4.801-6.601
	c-0.067,3.167-0.051,5.534,0.05,7.101c0.033,0,2.283,0.166,6.75,0.5c3,0.2,5.434,0.283,7.3,0.25c1.7-0.066,2.967-0.167,3.8-0.3
	c0.934-0.134,1.617-0.267,2.05-0.4c1.4-0.366,3.017-1.767,4.851-4.2c1.566-2.066,3.267-2.916,5.1-2.55
	c0.033-0.833,0.05-3.417,0.05-7.75c0.067,0.833,0.45,2.033,1.15,3.6c0.9,2.101,1.434,3.4,1.6,3.9c1,3.066,0.117,5-2.649,5.8
	C367.35,137.45,367.233,138.85,367.1,139.75z M127.5,106.6c-0.8,0.367-1.65,0.65-2.55,0.851c1.533-0.733,2.883-1.967,4.05-3.7
	c0.6-0.9,1.467-2.566,2.6-5c0.733-1.533,1.316-2.65,1.75-3.35c0.367-0.534,0.767-1.051,1.2-1.551c0.667-0.699,1.65-1.466,2.95-2.3
	c1.4-0.899,2.383-1.616,2.95-2.149c0.733-0.801,1.316-1.667,1.75-2.601c1.033-2.399,1.05-4.6,0.05-6.6
	c-0.667-1.334-2.067-2.934-4.2-4.8c-0.3-0.267-1.05-1.101-2.25-2.5c-1.066-1.267-1.816-2.05-2.25-2.35
	c-0.767-0.5-2.4-0.983-4.9-1.45c-3.133-0.567-4.883-0.9-5.25-1c1.1-0.2,2.033-0.367,2.8-0.5c3.4-0.633,6.5-0.867,9.3-0.7
	c0.067,0,0.167,0.017,0.3,0.05c-0.3,0.367,0.05,1.1,1.05,2.2c0.467,0.533,1.517,1.533,3.15,3c1.033-0.9,1.683-2.483,1.95-4.75
	c1.167,0.067,2.5,0.167,4,0.3c0.033,0.133,0.05,0.267,0.05,0.4c0.133,1.167-0.283,2.483-1.25,3.95
	c-0.933,1.434-1.35,2.684-1.25,3.75c0.133,0.934,0.65,1.9,1.55,2.9c0.967,1,1.517,1.916,1.65,2.75
	c0.167,0.934,0.017,2.217-0.45,3.85c-0.367,1.233-0.833,2.45-1.4,3.65c-1.033,2.1-2.867,4.05-5.5,5.85c-1,0.7-2.017,1.25-3.05,1.65
	c-0.7,0.434-1.466,1.434-2.3,3c-0.967,1.833-1.85,3.217-2.65,4.149C130.283,104.9,129,105.9,127.5,106.6z M259.2,61.35
	c2.7,2.1,3.6,5.017,2.7,8.75c-0.167,0.733-0.601,1.7-1.301,2.9c-0.666,1.167-1.083,2.217-1.25,3.15
	c-0.133,0.767-0.149,1.866-0.05,3.3c0.066,1.6,0.084,2.7,0.05,3.3c-0.133,2.066-0.616,3.866-1.449,5.4
	c-0.467,0.933-1.367,2.416-2.7,4.449c-0.767,1.367-1.467,2.684-2.101,3.95c-0.466,0.533-1.566,0.7-3.3,0.5
	c0.967-0.033,1.7-0.45,2.2-1.25c0.533-1.166,1-2.133,1.4-2.899c2.366-4.5,3.699-7.483,4-8.95c0.733-3.533,0.25-6.967-1.45-10.3
	c-1.867-3.567-4.467-5.45-7.8-5.65c-0.034-2.5-1.983-4.133-5.851-4.9c-2.467-0.467-5.45-0.583-8.95-0.35l0.301-0.2
	c3.699-0.533,6.883-0.9,9.55-1.1c2.2-0.167,4.066-0.3,5.6-0.4l-0.8,0.4c3.333,2,5.15,4.183,5.45,6.55
	c1.233-0.033,1.967-1.067,2.2-3.1c0.066-0.9,0.05-2.283-0.051-4.15C256.866,60.817,258.066,61.017,259.2,61.35z M249.5,113.05
	c-0.733,0.467-1.767,0.767-3.1,0.9c-0.867,0.1-2.517,0.149-4.95,0.149c-2.5,0-5.2-0.199-8.101-0.6
	c-1.433-0.2-3.983-0.616-7.649-1.25c1.866-0.134,4.816-0.267,8.85-0.4c3.867-0.1,6.816-0.233,8.851-0.399
	c2.533-0.233,4.199-0.684,5-1.351c0.733-0.633,1.333-2.05,1.8-4.25l0.5-2.399l2,3.3c-0.267,1.033-0.566,2.033-0.9,3
	c-0.399,0.967-0.7,1.583-0.899,1.85C250.467,112.233,250,112.717,249.5,113.05z M294.8,68.45c-1,1.2-2.816,2.35-5.45,3.45
	c-1.767,0.767-4.183,1.716-7.25,2.85c-2.6,1.066-4.983,2.333-7.149,3.8c-0.533-0.8-1.017-1.783-1.45-2.95l-0.25-0.649
	c-0.134-0.4-0.25-0.8-0.35-1.2c-0.167-2.267-0.2-4.333-0.101-6.2c4.566-0.267,10.934-0.05,19.101,0.65
	C292.9,68.3,293.866,68.383,294.8,68.45z M364.65,69.7c-0.5,0.367-1.017,0.716-1.551,1.05c-1.267,0.767-2.966,1.617-5.1,2.55
	c-1.667,0.934-2.967,2.25-3.9,3.95c-0.267,0.467-0.55,1.417-0.85,2.85c-0.3,1.2-0.7,2.084-1.2,2.65c-1-0.934-1.517-2.483-1.55-4.65
	c-0.033-1.233,0.033-3.017,0.2-5.35l2.25-1.4c1.267-0.5,2.833-0.867,4.7-1.1C360.517,70.05,362.85,69.867,364.65,69.7z M321.75,87.1
	c0.366-0.866,0.684-1.866,0.95-3l2,1.351c0.434,2.767-0.233,5.25-2,7.45c-0.733,0.899-2.601,2.55-5.601,4.949L316.7,98.2
	c-3.033,2.467-5.65,4.066-7.851,4.8c-2.066,0.7-5.083,1.066-9.05,1.1H298.9c3.733-0.699,7.166-1.883,10.3-3.55
	c3.5-1.8,6.383-4.033,8.649-6.7l1-1.35C320.116,90.833,321.083,89.033,321.75,87.1z M307.7,121.4
	c-0.767-0.134-2.417-0.284-4.95-0.45l-1.95-0.2c1.066-0.267,2.467-0.533,4.2-0.8c2.066-0.3,3.45-0.517,4.15-0.65
	c2.466-0.467,4.533-1.149,6.199-2.05c1.801-0.934,3.101-2.066,3.9-3.4c0.767-1.633,1.366-2.916,1.8-3.85
	c0.467-0.934,1.017-1.783,1.65-2.55l-0.7,3.3c-0.434,0.5-1.333,2.25-2.7,5.25c-0.934,2.066-2.45,3.533-4.55,4.4
	C312.884,121.2,310.533,121.533,307.7,121.4z M357.3,116.05l-0.399-0.1l0.5-0.15c2.066-0.6,3.183-2.233,3.35-4.899
	c0.233-4.134,0.434-6.4,0.6-6.801l0.65,2c-0.267,0.601-0.417,1.601-0.45,3c-0.1,2.134-0.166,3.351-0.2,3.65
	C361.017,115.517,359.667,116.616,357.3,116.05z M209.55,106.1c-1.399,1.634-3.933,2.834-7.6,3.601
	C205.183,108.866,207.717,107.667,209.55,106.1z M63.6,107.1c-2.067,1.7-4.033,3.051-5.9,4.051c-4.233,2.3-8.8,3.116-13.7,2.449
	c-9.533-1.366-17.017-3.6-22.45-6.699c6.833,1.333,12.217,2.383,16.15,3.149c7.267,1.4,12.867,1.434,16.8,0.101
	c1.833-0.167,3.333-0.467,4.5-0.9c1.8-0.7,3.033-1.75,3.7-3.15C63.1,106.4,63.4,106.733,63.6,107.1z M64.95,105.85
	c-0.4,0.301-0.85,0.65-1.35,1.051c-0.133-0.267-0.434-0.567-0.9-0.9c-0.6,1.366-1.833,2.4-3.7,3.1c0.648-0.897,1.332-1.765,2.05-2.6
	c-0.742,0.816-1.425,1.65-2.05,2.5c-1.467,0.533-2.967,0.85-4.5,0.95c3.6-1.233,6.333-3.75,8.2-7.55h2.4h3.6
	c-0.733,0.866-1.583,1.699-2.55,2.5C65.85,105.167,65.45,105.483,64.95,105.85z M145.5,113l1.2-0.9
	c0.466,3.601-0.05,6.417-1.55,8.45c-0.4,0.601-0.917,1.134-1.55,1.601c-2.3,1.767-6.184,2.683-11.65,2.75
	c-1.233,0.033-3.067,0.017-5.5-0.051c3.6-0.3,6.983-1.449,10.15-3.449c3.066-1.9,5.533-4.334,7.4-7.301L145.5,113z M23.3,96.85
	c0.133,1.5-0.816,2.584-2.85,3.25c-0.325,0.101-0.659,0.192-1,0.275l-0.35,0.075l-2.55,0.2c-0.9,0-1.85-0.067-2.85-0.2h-0.05
	c-2.767-0.367-5.033-1.117-6.8-2.25C4.783,96.866,3.833,95.283,4,93.45l4.25-2.15V91.4L8.3,91.3l1.05-0.55
	c-2.467,3.434-0.583,5.5,5.65,6.2c1.667,0.166,3.25,0.217,4.75,0.149h0.35L23.3,96.85z"/>
<path style="fill-rule:evenodd;clip-rule:evenodd;fill:#776F61;" d="M116.1,82.65c0.967-0.934,1.833-1.567,2.6-1.9
	c1.033-0.434,2.683-0.65,4.95-0.65c2.267,0.034,3.95-0.183,5.05-0.649l0.65,2c-2.833-0.3-5.333-0.134-7.5,0.5
	c-3,0.899-3.35,2.5-1.05,4.8c-0.966,1-2.233,1.733-3.8,2.2c-0.867,0.267-2.15,0.6-3.85,1c-2.833,0.833-4.316,3.116-4.45,6.85
	c0.033-3.066,0.283-5.25,0.75-6.55c0.633-1.634,2.066-3.434,4.3-5.4C114.75,83.884,115.533,83.15,116.1,82.65z M103.65,70.1
	c1.767,0.066,2.133,1.533,1.1,4.4c-1.5,4.167-2.183,6.616-2.05,7.35c-1.3-0.866-2.633-2.8-4-5.8c-1.333-3-2.567-5.1-3.7-6.3
	c1.267,0.233,2.05,0.35,2.35,0.35c2.2,0,4.15,0,5.85,0h0.15C103.45,70.1,103.55,70.1,103.65,70.1z M345.75,71.3
	c0.7,1.067,1.283,2.283,1.75,3.65c0.467,1.267,0.866,2.916,1.2,4.95l0.149,0.899c1,6.967,1.567,11.05,1.7,12.25
	c0.566,4.733,0.867,8.867,0.9,12.4c-0.634-1.167-1.167-2.733-1.601-4.7c-0.533-2.4-0.933-3.967-1.199-4.7
	c-0.467-1.3-1.551-3.017-3.25-5.149c-1.7-2.101-2.75-3.7-3.15-4.801c-0.634-1.699-0.934-4.183-0.9-7.449
	c-0.3-2.7-1.85-4.667-4.649-5.9l0.399-4.1C340.467,69.117,343.35,70,345.75,71.3z M360.55,97.35c-1.267-0.166-1.899-0.933-1.899-2.3
	c0-1.233,0.483-2.7,1.449-4.399c2.334-4.134,4.75-6.101,7.25-5.9l12,2c-0.866,0.366-2.383,1.167-4.55,2.4
	c-1.767,0.966-3.366,1.683-4.8,2.149c-2.8,0.834-4.6,1.467-5.4,1.9C362.866,94.134,361.517,95.517,360.55,97.35z M336.45,121.45
	c-1.033,0.8-3.467,2.149-7.3,4.05c-3.2,1.6-5.534,3.25-7,4.95c-1.134-0.733-1.634-1.684-1.5-2.851c0.1-0.699,0.55-1.866,1.35-3.5
	c1.366-2.767,3.167-4.399,5.4-4.899c1.133-0.233,3.783-0.15,7.949,0.25l4-1.351c-0.366,0.667-0.816,1.284-1.35,1.851
	C337.634,120.417,337.116,120.917,336.45,121.45z M394.7,117.45l-0.7,4c-0.767,1.066-1.733,1.95-2.9,2.649
	c-1.199,0.7-2.416,1.117-3.649,1.25c-0.367-1.866,0.3-3.6,2-5.199C390.95,118.717,392.7,117.816,394.7,117.45z M391.65,115.95
	c-0.4-1.967-0.067-3.9,1-5.8c-4.233,1.699-7.267,4.066-9.101,7.1c0.334-4.467,1.533-7.8,3.601-10c1.733-1.833,4.699-3.7,8.899-5.6
	c4.467-2.034,8.117-3,10.95-2.9v2.7c0.366,2.333-1.65,4.883-6.05,7.649C395.483,112.533,392.384,114.816,391.65,115.95z
	 M401.35,85.45l-4,0.649c0.2,1.534-0.383,2.817-1.75,3.851c-1.399,1.066-2.8,1.083-4.199,0.05c-2.067-1.566-1.184-2.8,2.649-3.7
	C397.083,85.6,399.517,85.316,401.35,85.45z M248.7,80.75l-0.7,4c-1-0.066-3.767,0.483-8.3,1.65c-3.733,0.633-4.917-0.367-3.55-3
	c0.733-1.434,2.649-2.301,5.75-2.601C243.167,80.667,245.434,80.65,248.7,80.75z M299.2,95.4c-0.834,1.533-1.65,2.616-2.45,3.25
	c-0.2-3.233,0.417-5.584,1.85-7.051c0.801-0.8,3.134-2.149,7-4.05c3.967-1.967,6.067-3,6.301-3.1c2.533-1,4.8-1.334,6.8-1L318,84.1
	c-1.667-0.1-3.366,0.301-5.1,1.2c-0.2,0.101-1.733,1.05-4.601,2.851c-0.333,0.199-1.517,0.8-3.55,1.8
	c-1.566,0.8-2.667,1.483-3.3,2.05C300.85,92.6,300.1,93.733,299.2,95.4z M223.45,80c-0.3-0.934-0.117-2.017,0.55-3.25l3.35-2
	c1.2-0.267,2.167-0.083,2.9,0.55c0.767,0.634,0.95,1.55,0.55,2.75c-0.399,1.233-1.45,1.95-3.149,2.15
	C226.75,80.3,225.35,80.233,223.45,80z M177.75,96.1c0.5-2.133,1.533-4.183,3.1-6.149c2.6-3.3,6.117-5.134,10.55-5.5
	c5.633,0.2,10.067,0.3,13.3,0.3l2,2c-1.233,0.566-3.567,0.866-7,0.9c-3.2,0.033-5.483,0.466-6.85,1.3
	c0.367,0.133,0.833,0.45,1.4,0.95c0.633,0.5,1.05,0.8,1.25,0.899c-0.833,0.5-2.567,0.867-5.2,1.101
	c-2.466,0.199-4.3,0.767-5.5,1.699c-1.1,0.867-2.35,2.434-3.75,4.7c-1.466,2.4-2.667,4-3.6,4.8
	C177.25,100.167,177.35,97.833,177.75,96.1z M178.45,77.25c-2.2,0.767-3.684,0.8-4.45,0.1c-1.5-1.433-1.15-2.416,1.05-2.949
	c1.667-0.4,3.317-0.5,4.95-0.301l2.7,1.351C182.2,75.65,180.783,76.25,178.45,77.25z M146.15,103.65c0.2-1.7,1.1-4.767,2.7-9.2
	c1.4-3.834,2.05-7.033,1.95-9.601c2.833-0.233,6.567,0.184,11.2,1.25l2.7,3.351c-3.567-0.167-6.333,0.166-8.3,1
	c-2.233,0.967-4.2,2.85-5.9,5.649c-0.533,0.9-1.117,2.667-1.75,5.301c-0.567,2.5-1.2,4.233-1.9,5.199l-0.7,0.801
	C145.983,106.267,145.983,105.017,146.15,103.65z M233.6,103.55c2.733-1.1,5.767-1.583,9.101-1.45l4.649,3.351
	c-2.233-0.3-5.633,0.149-10.199,1.35c-2.5,0.634-5.9,1.517-10.2,2.65C228.217,106.816,230.434,104.85,233.6,103.55z M173.3,118.6
	c1.8-1.6,4.034-2.216,6.7-1.85l7.65-0.45c-3.267,0.601-6.583,1.767-9.95,3.5c-3.7,1.934-5.767,3.75-6.2,5.45
	C170.8,122.517,171.4,120.3,173.3,118.6z M321.35,104.75L318,108.1c-1.5-0.199-3.417,0.534-5.75,2.2
	c-3.134,2.2-4.967,3.417-5.5,3.65c-1.434,0.6-3.767,1-7,1.2c-3.134,0.199-5.467,0.666-7,1.399c0.4-3.733,4.434-6.333,12.1-7.8
	c0.867-0.167,3.601-1.033,8.2-2.6C316.517,105.017,319.283,104.55,321.35,104.75z M286,106.7c-1.866-0.3-2.533-1.334-2-3.101
	c0.566-1.8,1.684-2.75,3.35-2.85l6.65,0.7c-0.366,0.267-1.767,1.25-4.2,2.95C287.5,105.967,286.233,106.733,286,106.7z M26.9,98.9
	c-0.167,0.267-0.3,0.517-0.4,0.75c-0.067,0.1-0.117,0.199-0.15,0.3c0.033,0.1,0.066,0.2,0.1,0.3c0.167,0.533,0.316,0.95,0.45,1.25
	c0.267,0.566,0.633,1.217,1.1,1.95l-1.05,0.35L26,104.1l-0.05-0.449c-0.133-1.4,0-2.634,0.4-3.7c-0.333-1.334-0.233-2.601,0.3-3.8
	c1.567-3.567,6.567-6.084,15-7.551c7.167-1.267,12.783-1.449,16.85-0.55c-2.7,0.7-6.467,1.334-11.3,1.9
	c-4.133,0.767-7.55,2.2-10.25,4.3l0.85,1.05C32.133,95.167,28.5,96.366,26.9,98.9z M38.2,72.6c-1.934,1.233-3.117,2.883-3.55,4.95
	c-0.4-2.033,0.033-3.816,1.3-5.35c1.4-1.733,3.417-2.434,6.05-2.1l2,0.65C41.867,70.817,39.933,71.433,38.2,72.6z M9.5,87.9
	c1.3-1.834,3.5-3.2,6.6-4.101c2.4-0.7,5.033-1.05,7.9-1.05l1.35,1.35c-1.233-0.133-2.633,0.25-4.2,1.15
	c-0.9,0.5-2.167,1.217-3.8,2.15c-0.533,0.233-1.367,0.466-2.5,0.699c-1.367,0.301-2.3,0.517-2.8,0.65
	C10.25,89.283,9,90.134,8.3,91.3H8.25C8.383,90.033,8.8,88.9,9.5,87.9z M133.35,104.8l0.65-0.7l-0.15,0.45
	c0.667-1.066,1.8-1.399,3.4-1c0.1,0.967,0.1,1.783,0,2.45c-1.033,0.033-2.517,1.434-4.45,4.2c-1.933,2.7-2.883,4.616-2.85,5.75
	c-1.267,0.366-3.233,0.833-5.9,1.399c-2.1,0.7-3.45,1.983-4.05,3.851c0.033-0.967,0-2.533-0.1-4.7c0.067-1.8,0.55-3.05,1.45-3.75
	c0.467-0.4,1.467-0.55,3-0.45c1.566,0.066,2.583-0.033,3.05-0.3c0.7-0.467,1.533-1.283,2.5-2.45c0.3-0.399,1.067-1.483,2.3-3.25
	L133.35,104.8z"/>
<path style="fill-rule:evenodd;clip-rule:evenodd;fill:#3C3931;" d="M144.65,139.65h-1.05c-6.434,0.1-12.233,0-17.4-0.301
	c1.433-0.699,3.933-1.267,7.5-1.699c4.167-0.467,6.883-0.884,8.15-1.25c1.867-0.534,3.967-0.967,6.3-1.301l5.65-0.899
	c-0.4,0.399-1,1.217-1.8,2.45l-0.15,0.149c1.3,0.733,3.383,1.033,6.25,0.9c3.367-0.367,5.8-0.634,7.3-0.8
	c0.967-0.101,1.833-0.15,2.6-0.15c9.733,0.066,17.25-0.15,22.55-0.65c1.867-0.166,3.817-0.583,5.85-1.25
	c2.4-0.866,4.267-1.55,5.6-2.05c2.7-1,4.333-1.833,4.9-2.5c0.466-0.533,1.3-2.316,2.5-5.35c0,1.399,0.383,2.75,1.149,4.05
	c0.434,0.7,1.066,1.566,1.9,2.6c1.066,1.334,1.717,2.15,1.95,2.45c0.899,1.2,1.466,2.283,1.699,3.25
	c3.233-0.133,5.5-0.25,6.801-0.35l5.8-0.3c2.7-0.067,4.733-0.034,6.1,0.1c3.101,0.467,5.634,0.8,7.601,1
	c3.6,0.333,6.416,0.267,8.449-0.2l1.65-0.5c1.467-0.666,2.366-1.649,2.7-2.95c0.033,0.301,0.184,0.817,0.45,1.551
	s0.416,1.3,0.449,1.699c0.834-0.066,1.784-0.05,2.851,0.051c1.267,0.033,2.616,0.216,4.05,0.55c2.366,0.467,3.833,1.2,4.4,2.2
	c0.233,0.399,0.399,0.8,0.5,1.199l-3.351-0.05l-1.45-0.05c-3.267-0.134-5.716-0.25-7.35-0.35l-3.8-0.25
	c-0.767-0.034-1.95-0.134-3.55-0.301L231.2,139c-0.3-0.033-0.601-0.066-0.9-0.1l-0.7-0.051h-0.149l-0.65-0.05
	c-4.066-0.333-7.934-0.6-11.6-0.8l-0.351-0.05l-0.649-0.05c-0.733-0.067-1.767-0.134-3.101-0.2l-7.649-0.351c-1-0.033-2-0.05-3-0.05
	l-12.4,0.101c-0.2,0-0.4,0-0.6,0c-0.7,0.033-1.417,0.066-2.15,0.1l-15.6,0.85c-1.067,0.067-2.167,0.134-3.3,0.2
	c-2.833,0.167-5.633,0.316-8.4,0.45L144.65,139.65z M141.95,67.4c-0.267,2.267-0.917,3.85-1.95,4.75
	c-1.633-1.467-2.683-2.467-3.15-3c-1-1.1-1.35-1.833-1.05-2.2C136.667,66.983,138.717,67.133,141.95,67.4z M255.6,60.75
	c0.101,1.867,0.117,3.25,0.051,4.15c-0.233,2.033-0.967,3.067-2.2,3.1c-0.3-2.367-2.117-4.55-5.45-6.55l0.8-0.4
	c3.167-0.267,4.917-0.4,5.25-0.4C254.583,60.65,255.1,60.683,255.6,60.75z M257.7,110.55l0.3,0.2c0.434,4.366-0.233,7.55-2,9.55
	c-1.967,2.2-5.017,2.566-9.15,1.101c2.767,0.633,5.067-0.351,6.9-2.95c0.866-1.233,1.5-2.7,1.9-4.4
	c0.399-1.633,0.517-3.166,0.35-4.6L257.7,110.55z M201.95,109.7c3.667-0.767,6.2-1.967,7.6-3.601c0.566-0.633,0.95-1.3,1.15-2
	l0.6,0.2l3.4,1.15l-0.15,0.399c-0.833,2.7-3.3,4.617-7.399,5.75c-4.134,1.134-7.117,0.717-8.95-1.25
	C199.533,110.184,200.783,109.967,201.95,109.7z"/>
<path style="fill-rule:evenodd;clip-rule:evenodd;fill:#777061;" d="M410.7,28.1l-2,1.35c0.767,1,0.95,2.066,0.55,3.2
	c-1.434,0.367-2.667,0.317-3.7-0.15c-1.2-0.533-1.684-1.517-1.45-2.95C406.066,28.35,408.267,27.867,410.7,28.1z M377.25,44.75
	c0.667-0.4,1.366-0.75,2.1-1.05c0.2-0.1,0.417-0.184,0.65-0.25l0.7,2.65c1.866-1.9,3.333-2,4.399-0.3
	c1.067,1.7,0.667,3.15-1.199,4.35c-0.667,0.467-2.5,0.4-5.5-0.2c-0.733-0.133-2.617-0.583-5.65-1.35
	C374.116,47,375.616,45.717,377.25,44.75z M398.7,24.75c1.866,0.533,2.416,1.667,1.649,3.4c-0.333,0.8-1.283,2.167-2.85,4.1
	c-1.533,1.833-2.816,2.967-3.85,3.4c-1.167,0.5-3.017,0.617-5.551,0.35c0-0.333,0.667-1.717,2-4.15c0.801-1.4,0.117-2.483-2.05-3.25
	c0.467-1.633,1.467-2.867,3-3.7c1.5-0.8,3.15-1.066,4.95-0.8L398.7,24.75z M340,29.45V28.1c1,3.833-0.983,5.35-5.95,4.55
	C334.983,30.817,336.967,29.75,340,29.45z M358.95,11.2c0.434-0.267,1.233-0.417,2.399-0.45l0.65,2
	c-1.267,0.8-2.583,0.983-3.95,0.55C358.05,12.267,358.35,11.567,358.95,11.2z M381.5,53.45c1.767,0.4,2.6,1.466,2.5,3.2
	c-2.167,0.267-3.934,0.333-5.3,0.2c-2.267-0.167-2.934-0.867-2-2.1V54.1C378.333,53.333,379.934,53.117,381.5,53.45z M314.7,7.45
	l3.3,2.65c-1.733,2.667-4.55,4.25-8.45,4.75c-1.833,0.233-5.233,0.167-10.2-0.2c0.534-1.1,1.45-1.917,2.75-2.45
	c0.9-0.367,2.184-0.667,3.851-0.9c-0.334-2.167,0.6-3.45,2.8-3.85C308.816,7.45,310.8,7.45,314.7,7.45z M307.9,39.25
	c0.666-1.533,1.6-3.667,2.8-6.4c5.366-0.7,9-0.25,10.899,1.35c-0.066,0.133-1,2.367-2.8,6.7c-1.166,2.767-2.767,4.283-4.8,4.55
	l-6-0.7C306.7,43.883,306.667,42.05,307.9,39.25z M252.7,11.55c0.033-0.367,0.033-0.8,0-1.3c0-0.067,0-0.117,0-0.15l4.649-0.65
	c1.034,0.767,1.483,1.65,1.351,2.65c-0.134,0.933-0.667,1.733-1.601,2.4c-2.366,1.7-4.466,1.567-6.3-0.4
	c0.9-0.434,1.483-0.983,1.75-1.65C252.616,12.25,252.667,11.95,252.7,11.55z M272.85,47.55c-0.033-1.1,0.801-1.583,2.5-1.45
	l3.351,4.65c1.333,4.733-2.65,6.717-11.95,5.95c-0.533-2-0.116-3.35,1.25-4.05c1.934-0.6,3.316-1.283,4.15-2.05
	C272.616,50.2,272.85,49.183,272.85,47.55z M238,44.4c0.8-0.566,1.7-1.333,2.7-2.3h2.649c0.134,1.533-0.433,2.467-1.699,2.8
	C240.583,45.167,239.366,45,238,44.4z M213.35,44.75L218,46.1c-0.4,2.7-2.05,4.383-4.95,5.05c-1.333,0.3-3.934,0.367-7.8,0.2
	C206.35,50.283,209.05,48.083,213.35,44.75z M212,30.1l2,0.65c0.634,3.333-1.384,5.133-6.05,5.4c-2.267,0.133-5.684-0.2-10.25-1
	c1.367-0.867,3.783-1.65,7.25-2.35C208.184,32.133,210.533,31.233,212,30.1z M165.35,2.75L168,4.1
	c-1.033,2.667-3.817,3.883-8.35,3.65c-4.333-0.233-7.383-1.383-9.15-3.45C155.2,3.633,160.15,3.117,165.35,2.75z M180,22.95
	c-2.033-0.2-2.467-1.367-1.3-3.5l5.3,1.3C183.367,22.417,182.033,23.15,180,22.95z M177.75,26.8c0.5,0.034,0.817,0.017,0.95-0.05
	l5.3-0.65c0.333,0.2,0.567,0.333,0.7,0.4c0.2,0.133,0.183,0.45-0.05,0.95c-1.1,0.533-2.316,0.8-3.65,0.8
	c-1.367,0-2.583-0.267-3.65-0.8C177.383,26.983,177.517,26.767,177.75,26.8z M82.3,47.9c3.067-0.7,5.417-1.3,7.05-1.8v0.65
	c-1.067,2.2-3.233,3.6-6.5,4.2c-3.133,0.533-5.65,0.083-7.55-1.35C76.733,49.167,79.067,48.6,82.3,47.9z M97.4,27.45
	c0.067-0.034,0.717-0.284,1.95-0.75c0.5-0.2,0.717-0.85,0.65-1.95l6,0.7c2.867,0.767,2.633,2.233-0.7,4.4
	c-2,1.267-4.433,2.467-7.3,3.6c-2.667,1.066-6.283,1.6-10.85,1.6c-2.566,0-6.383-0.083-11.45-0.25c1.4-0.5,4.133-1.066,8.2-1.7
	c3.434-0.533,6.133-1.35,8.1-2.45c0.367-0.2,0.717-0.65,1.05-1.35c0.333-0.7,0.65-1.117,0.95-1.25c0.267-0.133,0.867-0.233,1.8-0.3
	C96.7,27.65,97.233,27.55,97.4,27.45z M118.7,50.1c-1.8,1.033-3.583,1.083-5.35,0.15c1.467-0.4,2.583-0.667,3.35-0.8L118.7,50.1z
	 M155.05,52.8c1.767-1.433,3.2-2.117,4.3-2.05l4,0.7c0.167,4.466-2.1,7.333-6.8,8.6c-2.733,0.767-7.25,1.017-13.55,0.75
	c0.767-0.533,2.117-1.283,4.05-2.25c1.833-0.9,3.184-1.683,4.05-2.35C152.767,54.733,154.083,53.6,155.05,52.8z M64.7,5.45
	c-0.5,0.767-0.8,1.4-0.9,1.9c-3.566,0.3-5.767,0.4-6.6,0.3c-2.567-0.267-3.817-1.417-3.75-3.45c0.867-0.067,2.833-0.1,5.9-0.1
	L64.7,5.45z M50.4,45.95c1.333-0.5,2.317-0.9,2.95-1.2l8-0.65c-0.567,2.233-2.467,3.467-5.7,3.7c-1.033,0.067-3.617-0.1-7.75-0.5
	C48.467,46.867,49.3,46.417,50.4,45.95z"/>
</svg>
