<?xml version="1.0" encoding="iso-8859-1"?>
<!-- Generator: Adobe Illustrator 15.1.0, SVG Export Plug-In . SVG Version: 6.00 Build 0)  -->
<!DOCTYPE svg PUBLIC "-//W3C//DTD SVG 1.1//EN" "http://www.w3.org/Graphics/SVG/1.1/DTD/svg11.dtd">
<svg version="1.1" id="FlashAICB" xmlns="http://www.w3.org/2000/svg" xmlns:xlink="http://www.w3.org/1999/xlink" x="0px" y="0px"
	 width="167.8px" height="644.7px" viewBox="0 0 167.8 644.7" style="enable-background:new 0 0 167.8 644.7;" xml:space="preserve"
	>
<path style="fill-rule:evenodd;clip-rule:evenodd;fill:#524937;" d="M24.6,100.9c-0.733-1.033-1.217-2.1-1.45-3.2
	c-0.9-3.633-1.55-6.3-1.95-8c-0.7-2.967-1.184-5.983-1.45-9.05c-0.333-3.733-0.65-7.9-0.95-12.5c-0.267-4.6-0.4-7.933-0.4-10
	c0-2.066-1.05-4.983-3.15-8.75c-2.2-3.867-4.783-7.3-7.75-10.3l-6.15-6.15L0,23.45l1.45,4.05c1.267,2.967,2.6,5.017,4,6.15
	c4.733,3.767,8.133,6.95,10.2,9.55l2.75,3.4c0.434-7.733,0.65-13.417,0.65-17.05V17.3c0-3.133,0.117-6.917,0.35-11.35l0.35-5.7
	L20.25,0c0.267,5.967,0.883,13.017,1.85,21.15c0.566,4.7,1.467,11.75,2.7,21.15c0.034,1.267,0.267,7.233,0.7,17.9
	c0.267,6.267,0.4,10.133,0.4,11.6c0,3.8,0.5,7.833,1.5,12.1c1.167,4.833,2.7,8.517,4.6,11.05c1.833,2.966,3.033,4.9,3.6,5.8
	c0.867,1.4,2.4,2.65,4.6,3.75c2.267,1.133,4.867,1.817,7.8,2.05h3.75c-0.9-16.8-1.35-27.25-1.35-31.35V55.1
	c0.6-0.6,0.9-1.383,0.9-2.35c0.067-3,0.15-5.25,0.25-6.75l-0.1,2.6l1.45,9.35l0.15,3.95c0.233,3.033,0.633,5.5,1.2,7.4
	c0.367,1.133,0.567,1.767,0.6,1.9c0.066,0.133,0.1,0,0.1-0.4c0-1.6,0.233-2.7,0.7-3.3c0.567-0.767,1.117,0.583,1.65,4.05
	c0.267,1.733,0.467,3.55,0.6,5.45l0.45,14.55c0,1.367-0.55,4.1-1.65,8.2c-0.767,2.867-1.434,5.133-2,6.8c-0.3,0.9-0.9,1.5-1.8,1.8
	l-4.55,0.45l-4.1-0.9l7.75,4.55l-2.6-0.1c-2.133-0.167-4.15-0.434-6.05-0.8s-3.9-1.316-6-2.85c-1.067-0.733-1.934-1.45-2.6-2.15
	l-2.85-1.15c-2.133-0.9-3.767-1.733-4.9-2.5C26.367,102.467,25.567,101.8,24.6,100.9z M35.4,109.95c-0.333-0.333-2.8-2.2-7.4-5.6
	c-0.867-0.633-1.617-1.3-2.25-2c0.9,0.9,2.117,1.883,3.65,2.95C32.333,107.3,34.333,108.85,35.4,109.95z M64.45,628.2l0.25-1.851
	c5.6-6.366,8.85-10.449,9.75-12.25c3.367-6.6,5.65-11.366,6.85-14.3c0.567-1.434,0.967-4.25,1.2-8.45l0.15-5.899l-1.95,8.35
	c-1.467,5.7-2.633,8.834-3.5,9.4l-5.35,6.399c-1.467,1.834-2.633,3.4-3.5,4.7l-1,0.95c-0.934,0.6-1.967,0.9-3.1,0.9
	s-2.083-0.384-2.85-1.15l-0.8-1.15l-2.1-0.149c-1.567-0.101-2.833-0.05-3.8,0.149c-0.934,0.2-1.85,0.617-2.75,1.25
	c-0.633,0.467-2.133,1.567-4.5,3.301c-0.6,0.433-1.367,0.883-2.3,1.35H42c0.1,0.2,0.3,0.35,0.6,0.45
	c0.633,0.166,1.483,0.017,2.55-0.45h5.8c-0.233,0.033-0.583,0.217-1.05,0.55l-2.55,1.101c-3.033,1.3-5.883,2.416-8.55,3.35
	c-3.066,1.1-8.267,1.316-15.6,0.65l2.1-0.801l2.6-0.3c3.467-1,7.4-3.45,11.8-7.35c0.667-0.601,1.333-1.217,2-1.851l6.65-7.149
	l-4.55,5.1c-3.7,3.8-7.183,6.717-10.45,8.75c3.2-1.1,5.566-2.017,7.1-2.75c2.167-1.033,3.517-2,4.05-2.899
	c0.567-0.934,1.667-2.934,3.3-6c1.4-2.534,2.35-4.167,2.85-4.9c0.567-0.866,1.067-0.667,1.5,0.6c0.233,0.601,0.4,1.301,0.5,2.101
	l2.5-6.4L57,591.5c2.133-3.5,4.283-7.316,6.45-11.45c4.333-8.233,6.65-13.916,6.95-17.05c0.3-3.4,0.483-6.983,0.55-10.75
	c0.066-2.366,0.1-6.283,0.1-11.75c0-3.4,0.15-6.517,0.45-9.35c0.5-4.9,0.817-8.367,0.95-10.4c0.2-3.267,0.5-6.583,0.9-9.95
	c0.3-2.399,0.45-4.533,0.45-6.399c0-1.634,0.05-3.15,0.15-4.551c0.4,2.601,0.816,4.934,1.25,7c0.633,3,1.066,4,1.3,3
	c0.1-0.399,0.383-3.267,0.85-8.6c0.467-5.033,1.1-8.75,1.9-11.15c1.033-3.133,1.967-6.966,2.8-11.5c0.867-4.633,1.3-8.3,1.3-11
	V457.4c0-11.267,1.584-23.767,4.75-37.5c0.733-3.134,0.65-8.467-0.25-16c-1.199-10.034-1.8-18.084-1.8-24.15
	c0-7.5-0.217-14.55-0.649-21.15c-0.467-6.6-0.7-10.916-0.7-12.949V323.85l2.05,7.5V315.7L84,295.95
	c-0.233-10.667-0.55-21.6-0.95-32.8c-0.767-22.367-1.583-34.833-2.45-37.4c-0.967-2.933-1.783-6.667-2.45-11.2
	c-0.633-4.3-0.95-8.05-0.95-11.25c0-2.566-0.117-6.4-0.35-11.5l-0.35-6.9l-1.35,14.95c-1.8-8.167-2.7-14.283-2.7-18.35
	c0-1.3,0.183-2.133,0.55-2.5c0.467-0.167,0.783-0.3,0.95-0.4c0.566-0.367,0.066-3.033-1.5-8c-1.833-5.767-3.284-9.7-4.35-11.8
	c-0.6-1.233-1.983-3.283-4.15-6.15c0.333,1.5,0.667,2.983,1,4.45c-0.1-0.333-0.184-0.667-0.25-1c-0.333-1.567-2.6-10.817-6.8-27.75
	l-1.55-6.15l0.25,0.9l1.3,0.7c1.867,0.767,3.15,1.483,3.85,2.15c1.033,0.9,1.867,2.3,2.5,4.2c0.667,2.033,1.45,6,2.35,11.9
	c0.867,5.833,1.3,9.9,1.3,12.2c0,3,0.15-0.033,0.45-9.1l3.05,8.4c2.133,6.2,3.383,10.817,3.75,13.85
	c0.267,2.133,1.283,7.317,3.05,15.55c1.6,7.367,2.4,11.867,2.4,13.5c0,3.033,0.45,10.45,1.35,22.25l1.399-11.35l0.45,5.3
	c0.3,4.467,0.45,9.067,0.45,13.8c0,4.466,1.066,17.6,3.2,39.4c2.1,21.8,3.149,32.883,3.149,33.25c0,0.566,0.617,4.45,1.851,11.65
	c1.2,7.2,1.8,12.55,1.8,16.05c0,6.066,0.15,13.334,0.45,21.8c-0.767-3.866-1.517-7.483-2.25-10.85c-1.533-6.733-2.3-8.866-2.3-6.4
	c0,3.934,0.6,12.417,1.8,25.45l3.2,39.05l-0.7,7.4c-0.733,6.033-1.867,11.9-3.4,17.6c-1.5,5.634-2.184,12.584-2.05,20.851
	c0.1,4.333,0.333,9.033,0.7,14.1c0,3.033,0.75,13.483,2.25,31.351L92.4,460.8l4.55,23.601l0.45,6.25c0.3,4.866,0.449,9,0.449,12.399
	c0,5.434-1.517,17.084-4.55,34.95c0-1.8,0.167-4.366,0.5-7.7c0.2-2.066,0.25-7.833,0.15-17.3l-0.15-13.6l-0.35,8.1
	c-0.467,6.9-1.267,14.05-2.4,21.45c-1.066,6.899-2.017,11.1-2.85,12.6c-0.533,0.967-0.8,1.75-0.8,2.351
	c0,12.433-0.15,23.483-0.45,33.149c-0.3,9.7-0.3,15,0,15.9l-0.15,6.1c-0.233,4.467-0.633,7.733-1.2,9.8
	c-0.899,3.334-1.649,6.817-2.25,10.45l-0.45-7.7l-1.25,2.9c-0.933,2.033-1.583,3.333-1.95,3.9c-1.567,2.333-2.934,3.699-4.1,4.1
	c-0.9,0.3-0.75-0.767,0.45-3.2l-7.7,6.8C67.583,626.866,66.283,627.566,64.45,628.2z M86.9,478.7
	c-0.434,4.066-0.934,8.083-1.5,12.05c-0.233,1.6-0.301,4.066-0.2,7.4c0.133,5.633,0.2,8.616,0.2,8.949v17.75
	c0,3,0.149,7.084,0.449,12.25l0.2,3.4c2.733-21.333,4.101-33.366,4.101-36.1c0-1.434-0.117-3.334-0.351-5.7
	c-0.233-2.4-0.35-4.134-0.35-5.2c0-1.4-0.334-5.116-1-11.15l-1.05-8.6L86.9,478.7z M80.85,498.2c-0.6,7.666-1.283,14.434-2.05,20.3
	c-0.733,5.533-1.167,8.517-1.3,8.95c-1.233,3.434-2.017,5.75-2.35,6.95c-1.2,4.3-1.667,7-1.4,8.1c0.633,2.733,0.95,5.333,0.95,7.8
	c0,4.533-0.3,8.7-0.9,12.5c-0.3,1.9-0.6,3.334-0.9,4.3l-3.65,19.5l-2.45,7.95c-1.733,5.467-2.883,8.566-3.45,9.3
	c-0.533,0.733-0.167,0.534,1.1-0.6c2-1.866,3.6-3.333,4.8-4.4c1.533-1.3,3.2-3.816,5-7.55l2.25-5.149
	c1.833-4.834,2.9-8.467,3.2-10.9c0.033-0.366,0.233-3.634,0.6-9.8c0.333-5.267,0.733-8.967,1.2-11.101
	c0.333-1.566,0.3-4.699-0.1-9.399c-0.533-5.834-0.8-9.2-0.8-10.101l0.9-46.35L80.85,498.2z M64.7,626.35l-0.7-0.3
	c0.2-1.2,0.433-2.233,0.7-3.1c0.367-1.134,1.083-2.917,2.15-5.351l0.15-0.25c-0.433,1.167-0.85,2.567-1.25,4.2
	C65.317,623.283,64.967,624.884,64.7,626.35z"/>
<path style="fill-rule:evenodd;clip-rule:evenodd;fill:#3D3729;" d="M88.25,198.8c-0.467,0.4-0.85,0.784-1.15,1.15L86.4,199l1,7
	c0.933,6.667,1.399,18.783,1.399,36.35c0,8.5,1.134,21.8,3.4,39.9c2.233,17.867,4.267,30.15,6.1,36.85
	c1.533,5.567,2.283,9.784,2.25,12.65c-0.033,1.733-0.316,4.033-0.85,6.9c-0.3,3.633-0.45,7.1-0.45,10.399l0.75,5.3
	c0.5,4.467,0.85,9.067,1.05,13.801s-0.434,13.116-1.899,25.149c-0.7,6.033-1.434,11.584-2.2,16.65l-0.9,14.95
	c-0.3,4.8-0.566,9.8-0.8,15c-0.267,6.267-0.3,9-0.1,8.199c0.3-1.233,1.816-10.316,4.55-27.25l0.149,3.75
	c0.101,3.334,0.051,7.067-0.149,11.2c-0.134,3.101,0.116,10.816,0.75,23.15c0.7,14.066,1.05,25.434,1.05,34.1
	c0,10.2-0.45,19.851-1.35,28.95c-0.467,4.533-0.934,8.05-1.4,10.55l-3.6,19.65c-0.601,4.233-0.9,6.916-0.9,8.05
	c0,1.667-0.917,5.767-2.75,12.3c-0.6,2.101,0.816-0.533,4.25-7.899L95.5,584.05l-0.8,13.45l1.8,4.1l7.75,5l5.4,12.7
	c0.767,1.7,0.767,2.667,0,2.9c-0.367,0.133-0.817,0.083-1.351-0.15c-3.333-0.3-5.6-0.916-6.8-1.85
	c-0.733-0.566-2.083-1.117-4.05-1.65c-1-0.233-1.917-0.434-2.75-0.6l-1,1.1c-0.834,0.834-1.717,1.533-2.65,2.101
	c-0.333,0.199-1.217,0.6-2.649,1.199c-1.233,0.5-2.917,1.45-5.051,2.851c-3.633,2.434-9.399,5.316-17.3,8.649l-3.5,0.851
	c-2.533,0.533-4.316,0.7-5.35,0.5l6.85-4.101l0.4-2.899c1.833-0.634,3.133-1.334,3.9-2.101l7.7-6.8c-1.2,2.434-1.35,3.5-0.45,3.2
	c1.167-0.4,2.533-1.767,4.1-4.1c0.367-0.567,1.017-1.867,1.95-3.9l1.25-2.9l0.45,7.7c0.601-3.633,1.351-7.116,2.25-10.45
	c0.567-2.066,0.967-5.333,1.2-9.8l0.15-6.1c-0.3-0.9-0.3-6.2,0-15.9c0.3-9.666,0.45-20.717,0.45-33.149
	c0-0.601,0.267-1.384,0.8-2.351c0.833-1.5,1.783-5.7,2.85-12.6c1.134-7.4,1.934-14.55,2.4-21.45l0.35-8.1l0.15,13.6
	c0.1,9.467,0.05,15.233-0.15,17.3c-0.333,3.334-0.5,5.9-0.5,7.7c3.033-17.866,4.55-29.517,4.55-34.95
	c0-3.399-0.149-7.533-0.449-12.399l-0.45-6.25L92.4,460.8l-0.45,26.351c-1.5-17.867-2.25-28.317-2.25-31.351
	c-0.367-5.066-0.601-9.767-0.7-14.1c-0.134-8.267,0.55-15.217,2.05-20.851c1.533-5.699,2.667-11.566,3.4-17.6l0.7-7.4l-3.2-39.05
	c-1.2-13.033-1.8-21.517-1.8-25.45c0-2.466,0.767-0.333,2.3,6.4c0.733,3.366,1.483,6.983,2.25,10.85
	c-0.3-8.466-0.45-15.733-0.45-21.8c0-3.5-0.6-8.85-1.8-16.05c-1.233-7.2-1.851-11.083-1.851-11.65c0-0.367-1.05-11.45-3.149-33.25
	c-2.134-21.8-3.2-34.934-3.2-39.4c0-4.733-0.15-9.333-0.45-13.8l-0.45-5.3L81.95,218.7c-0.9-11.8-1.35-19.217-1.35-22.25
	c0-1.633-0.8-6.133-2.4-13.5c-1.767-8.233-2.784-13.417-3.05-15.55c-0.367-3.033-1.617-7.65-3.75-13.85l-3.05-8.4
	c-0.3,9.067-0.45,12.1-0.45,9.1c0-2.3-0.433-6.367-1.3-12.2c-0.9-5.9-1.684-9.867-2.35-11.9c-0.633-1.9-1.467-3.3-2.5-4.2
	c-0.7-0.667-1.983-1.383-3.85-2.15l-1.3-0.7l-0.25-0.9l-1.2-4.75l-8.05-1.95c-5.8-1.733-9.7-3.583-11.7-5.55
	c-1.066-1.1-3.066-2.65-6-4.65c-1.533-1.066-2.75-2.05-3.65-2.95c-0.533-0.533-0.967-1.05-1.3-1.55
	c0.033,0.034,0.083,0.067,0.15,0.1c0.967,0.9,1.767,1.567,2.4,2c1.133,0.767,2.767,1.6,4.9,2.5l2.85,1.15
	c0.667,0.7,1.533,1.417,2.6,2.15c2.1,1.533,4.1,2.483,6,2.85s3.917,0.633,6.05,0.8l2.6,0.1l-7.75-4.55l4.1,0.9l4.55-0.45
	c0.9-0.3,1.5-0.9,1.8-1.8c0.566-1.667,1.233-3.933,2-6.8c1.1-4.1,1.65-6.833,1.65-8.2L57.9,77c-0.133-1.9-0.333-3.717-0.6-5.45
	c-0.533-3.466-1.083-4.816-1.65-4.05c-0.467,0.6-0.7,1.7-0.7,3.3c0,0.4-0.034,0.534-0.1,0.4c-0.033-0.133-0.233-0.767-0.6-1.9
	c-0.567-1.9-0.967-4.367-1.2-7.4l-0.15-3.95l-1.45-9.35l0.1-2.6c0.567-0.633,0.833-1.417,0.8-2.35c-0.1-1.633-0.15-3.283-0.15-4.95
	c0.933-8.367,2.85-18.3,5.75-29.8l0.3-0.6L59,6.2c0.433,0.267,0.867,0.45,1.3,0.55c-2.533,19.2-3.1,31.567-1.7,37.1
	c1.033,4.167,2.566,17.767,4.6,40.8c0.6,7.033,1.133,13.1,1.6,18.2c-0.1-0.767-0.183-1.55-0.25-2.35l-1.2,5.6v9.05
	c0,1.567,2.133,7.967,6.4,19.2c5.533,14.5,8.7,22.95,9.5,25.35c0.2,0.6,0.533,1.7,1,3.3c-0.003-0.028-0.003-0.053,0-0.075
	c0.065,0.31,0.116,0.585,0.15,0.825c0.1,1.1,1.067,5.7,2.9,13.8c-0.267-1.033-0.5-1.983-0.7-2.85c0.133,1.167,0.3,2.75,0.5,4.75
	c0.2,1.633,0.434,3.033,0.7,4.2c0.3,0.033,0.617,0.067,0.95,0.1c2.934,0.367,5.4,0.55,7.4,0.55c1.533,0,2.517-0.117,2.949-0.35
	c0.934-0.534,1.801-0.917,2.601-1.15c1.666-0.466,4.166-2.183,7.5-5.15c3.1-2.767,5.467-5.25,7.1-7.45
	c2-2.6,5.533-6.583,10.601-11.95c1.633-1.733,3.083-3.233,4.35-4.5c-0.2-0.867-0.467-1.8-0.8-2.8c-0.834-2.7-1.684-4.684-2.55-5.95
	c-0.567-0.833-1.434-1.75-2.601-2.75c-0.899-0.733-1.533-1.667-1.899-2.8c-0.767-1.833-1.317-3.167-1.65-4
	c-0.6-1.467-0.9-2.817-0.9-4.05c0-1.733,0.067-4.133,0.2-7.2c0.134-3.2,0.233-4.333,0.3-3.4c0.233,3.2,0.767,6.517,1.601,9.95
	c0.7,2.867,1.35,4.933,1.95,6.2c0.333,0.633,1.533,1.733,3.6,3.3c2.134,1.633,3.45,2.883,3.95,3.75c1,1.667,2.684,3.183,5.05,4.55
	c1.233-0.433,4.15-2.5,8.75-6.2c4.767-3.934,7.566-6.25,8.4-6.95c5.133-4.1,8.316-6.783,9.55-8.05c3.033-2.967,4.55-5.983,4.55-9.05
	c0-1.267-0.167-4.316-0.5-9.15c-0.333-4.833-0.5-7.667-0.5-8.5l0.5-14.15l0.75,5.25c0.5,3.8,0.75,6.433,0.75,7.9
	c0,1.033,0.35,4.283,1.05,9.75c0.667,5.467,1,9.1,1,10.9c0,2.434-1.267,5.333-3.8,8.7c-2.366,3.2-5.134,5.85-8.3,7.95
	c-0.8,0.533-3.767,2.566-8.9,6.1c-3.366,2.333-5.95,4-7.75,5c-1.899,1.034-3.733,2.65-5.5,4.85c-1.033,1.3-2.733,3.533-5.1,6.7
	c-1.334,1.7-3.517,4.367-6.55,8c-2.667,3.367-4.851,6.417-6.551,9.15c-1.666,2.7-3.883,5.3-6.649,7.8
	c-1.467,1.367-3.283,2.967-5.45,4.8c-1.366,1.4-2.917,2.683-4.65,3.85c-1.966,1.333-3.783,2.233-5.449,2.7
	c-1.467,0.434-2.917,1.233-4.351,2.4C88.6,198.467,88.417,198.633,88.25,198.8z M22.45,625.65l0.75-0.25
	c7.333,0.666,12.533,0.449,15.6-0.65c2.667-0.934,5.517-2.05,8.55-3.35l2.55-1.101c-0.733,0.467-1.733,1.233-3,2.3
	c-2.6,2.233-5.066,3.483-7.4,3.75c-0.1,0-0.2,0-0.3,0l-13.1-0.3c-0.434-0.033-0.85-0.066-1.25-0.1
	c-0.367-0.033-0.717-0.066-1.05-0.101L22.45,625.65z M64,626.05l-0.25-0.1l-3.8-1.65l1.6-3.649L59.8,618.8l-1.45,0.5
	c-1.167,0.3-2.233,0.45-3.2,0.45c-0.433,0-1.167,0.05-2.2,0.15c-0.534,0.066-1.15,0.017-1.85-0.15h-0.15h-5.8
	c-1.066,0.467-1.917,0.616-2.55,0.45c-0.3-0.101-0.5-0.25-0.6-0.45h3.15c0.934-0.467,1.7-0.917,2.3-1.35
	c2.367-1.733,3.867-2.834,4.5-3.301c0.9-0.633,1.816-1.05,2.75-1.25c0.966-0.199,2.233-0.25,3.8-0.149l2.1,0.149l0.8,1.15
	c0.767,0.767,1.717,1.15,2.85,1.15s2.167-0.301,3.1-0.9l1-0.95L67,617.35l-0.15,0.25c-1.067,2.434-1.783,4.217-2.15,5.351
	C64.433,623.816,64.2,624.85,64,626.05z M80.85,498.2l0.65-9.7l-0.9,46.35c0,0.9,0.267,4.267,0.8,10.101
	c0.4,4.7,0.434,7.833,0.1,9.399c-0.467,2.134-0.867,5.834-1.2,11.101c-0.367,6.166-0.566,9.434-0.6,9.8
	c-0.3,2.434-1.367,6.066-3.2,10.9l-2.25,5.149c-1.8,3.733-3.467,6.25-5,7.55c-1.2,1.067-2.8,2.534-4.8,4.4
	c-1.267,1.134-1.633,1.333-1.1,0.6c0.566-0.733,1.717-3.833,3.45-9.3l2.45-7.95l3.65-19.5c0.3-0.966,0.6-2.399,0.9-4.3
	c0.6-3.8,0.9-7.967,0.9-12.5c0-2.467-0.317-5.066-0.95-7.8c-0.267-1.1,0.2-3.8,1.4-8.1c0.333-1.2,1.117-3.517,2.35-6.95
	c0.133-0.434,0.567-3.417,1.3-8.95C79.567,512.634,80.25,505.866,80.85,498.2z"/>
<path style="fill-rule:evenodd;clip-rule:evenodd;fill:#2C281E;" d="M111.3,612.05c0.5,0.533,0.867,0.983,1.101,1.351
	c0.133,0.199,0.283,0.416,0.449,0.649c0.534,0.733,1.284,1.65,2.25,2.75c0.801,0.934,2.4,2.75,4.801,5.45
	c1.733,2.033,3.75,4.434,6.05,7.2c1.3,1.566,2.684,3.25,4.149,5.05h-0.5l-2.149-0.15c-2.167-0.233-4.233-0.633-6.2-1.199
	c-1.866-0.534-3.65-1.101-5.35-1.7c-2.9-1.033-4.517-1.601-4.851-1.7c-2.733-0.9-5.017-1.583-6.85-2.05L95.35,627l-1.8,0.85
	c-1.7,0.7-3.816,1.334-6.35,1.9c-4.101,0.9-8.65,1.8-13.65,2.7l-9.5,2.05c-3.233,0.733-5.367,1.15-6.4,1.25H57.6
	c-0.4,0-0.65-0.017-0.75-0.05c-0.033-0.033-0.05-0.066-0.05-0.101c0-0.066,0.05-0.133,0.15-0.199l0.2-0.15l0.05-0.05
	c1.033,0.2,2.816,0.033,5.35-0.5l3.5-0.851c7.9-3.333,13.667-6.216,17.3-8.649c2.134-1.4,3.817-2.351,5.051-2.851
	c1.433-0.6,2.316-1,2.649-1.199c0.934-0.567,1.816-1.267,2.65-2.101l1-1.1c0.833,0.166,1.75,0.366,2.75,0.6
	c1.967,0.533,3.316,1.084,4.05,1.65c1.2,0.934,3.467,1.55,6.8,1.85c0.533,0.233,0.983,0.283,1.351,0.15c0.767-0.233,0.767-1.2,0-2.9
	l-5.4-12.7l-7.75-5l-1.8-4.1l0.8-13.45l0.25-19.399c-3.434,7.366-4.85,10-4.25,7.899c1.833-6.533,2.75-10.633,2.75-12.3
	c0-1.134,0.3-3.816,0.9-8.05l3.6-19.65c0.467-2.5,0.934-6.017,1.4-10.55c0.899-9.1,1.35-18.75,1.35-28.95
	c0-8.666-0.35-20.033-1.05-34.1c-0.634-12.334-0.884-20.05-0.75-23.15c0.2-4.133,0.25-7.866,0.149-11.2l-0.149-3.75
	c-2.733,16.934-4.25,26.017-4.55,27.25c-0.2,0.801-0.167-1.933,0.1-8.199c0.233-5.2,0.5-10.2,0.8-15l0.9-14.95
	c0.767-5.066,1.5-10.617,2.2-16.65c1.466-12.033,2.1-20.416,1.899-25.149s-0.55-9.334-1.05-13.801l-0.75-5.3
	c0-3.3,0.15-6.767,0.45-10.399c0.533-2.867,0.816-5.167,0.85-6.9c0.033-2.866-0.717-7.083-2.25-12.65
	c-1.833-6.7-3.866-18.983-6.1-36.85c-2.267-18.1-3.4-31.4-3.4-39.9c0-17.567-0.467-29.684-1.399-36.35l-1-7l0.699,0.95
	c0.301-0.367,0.684-0.75,1.15-1.15c0.033,0.267,0.083,0.517,0.15,0.75c0.267,1.2,0.517,2.35,0.75,3.45l2.149,13.9
	c-0.333,2.867,0.2,13.767,1.601,32.7c1.366,18.267,2.416,29.85,3.149,34.75c0.767,4.967,2.101,16.517,4,34.65
	c2,19.167,3.167,31.917,3.5,38.25c0.434,9.066,0.65,31.316,0.65,66.75c0,3.434-0.167,11.783-0.5,25.05c-0.2,12.4-0.033,20.4,0.5,24
	c0.467,2.934,0.816,10.717,1.05,23.351c0.2,11.899,0.533,18.649,1,20.25c0.833,2.866,1.35,9.916,1.55,21.149
	c0.233,12.033-0.283,19.75-1.55,23.15c-1.3,3.633-2.2,6.866-2.7,9.7c-0.467,2.6-0.7,5.5-0.7,8.699v12.95
	c0,1.601-0.199,3.917-0.6,6.95c-0.1,2.566,0.55,4.566,1.95,6c0.133,0.134,1.767,1.667,4.899,4.6
	C110,610.684,110.733,611.417,111.3,612.05z M83.3,177.55l1.45,6.2c-0.333-0.033-0.65-0.067-0.95-0.1
	c-0.267-1.167-0.5-2.566-0.7-4.2c-0.2-2-0.366-3.583-0.5-4.75C82.8,175.567,83.033,176.517,83.3,177.55z M64.8,102.85l1.95,20.05
	c0.267,1.467,1.3,4.75,3.1,9.85l3.1,8.6c0.2,0.433,0.383,0.9,0.55,1.4c0.2,0.567,0.417,1.133,0.65,1.7l5.9,17.4
	c0.053,0.228,0.094,0.444,0.125,0.65v0.075c0.014,0.055,0.022,0.113,0.025,0.175c0.016,0.054,0.033,0.112,0.05,0.175
	c-0.003,0.022-0.003,0.047,0,0.075c-0.467-1.6-0.8-2.7-1-3.3c-0.8-2.4-3.967-10.85-9.5-25.35c-4.267-11.233-6.4-17.633-6.4-19.2
	v-9.05l1.2-5.6C64.617,101.3,64.7,102.083,64.8,102.85z M39.5,626.35c2.333-0.267,4.8-1.517,7.4-3.75c1.267-1.066,2.267-1.833,3-2.3
	c0.467-0.333,0.817-0.517,1.05-0.55h0.15c0.7,0.167,1.316,0.217,1.85,0.15c1.033-0.101,1.767-0.15,2.2-0.15
	c0.967,0,2.033-0.15,3.2-0.45l1.45-0.5l1.75,1.851l-1.6,3.649H49.7l-3.55,1.05C43.417,626.017,41.2,626.35,39.5,626.35z"/>
<path style="fill-rule:evenodd;clip-rule:evenodd;fill:#605640;" d="M48.35,607.95c0.8-1.601,1.767-3.733,2.9-6.4
	c2.267-5.333,4.25-10.7,5.95-16.1c3.633-11.4,6.65-23.066,9.05-35c2.6-12.867,3.9-23.217,3.9-31.05c0-7.267,1.133-17.717,3.4-31.351
	c1.8-10.833,3.617-19.916,5.45-27.25c1.6-6.333,2.633-13.967,3.1-22.899c0.2-3.967,0.3-9.967,0.3-18V361.35
	c0-2.466-0.967-14.85-2.9-37.149c-2.2-25.467-3.5-41.25-3.9-47.35c-1.467-18.5-2.65-33.483-3.55-44.95
	c-1.7-21.5-2.55-35.816-2.55-42.95c0-4.733-0.633-10.883-1.9-18.45l-2.65-13.4c-0.333-1.467-0.667-2.95-1-4.45
	c2.167,2.867,3.55,4.917,4.15,6.15c1.066,2.1,2.517,6.034,4.35,11.8c1.566,4.967,2.066,7.633,1.5,8c-0.167,0.1-0.483,0.233-0.95,0.4
	c-0.367,0.367-0.55,1.2-0.55,2.5c0,4.067,0.9,10.183,2.7,18.35l1.35-14.95l0.35,6.9c0.233,5.1,0.35,8.934,0.35,11.5
	c0,3.2,0.316,6.95,0.95,11.25c0.667,4.534,1.483,8.267,2.45,11.2c0.867,2.567,1.683,15.033,2.45,37.4
	c0.4,11.2,0.717,22.133,0.95,32.8l2.75,19.75v15.649l-2.05-7.5v21.801c0,2.033,0.233,6.35,0.7,12.949
	c0.433,6.601,0.649,13.65,0.649,21.15c0,6.066,0.601,14.116,1.8,24.15c0.9,7.533,0.983,12.866,0.25,16
	c-3.166,13.733-4.75,26.233-4.75,37.5V467.6c0,2.7-0.433,6.367-1.3,11c-0.833,4.534-1.767,8.367-2.8,11.5
	c-0.8,2.4-1.433,6.117-1.9,11.15c-0.467,5.333-0.75,8.2-0.85,8.6c-0.233,1-0.667,0-1.3-3c-0.434-2.066-0.85-4.399-1.25-7
	c-0.1,1.4-0.15,2.917-0.15,4.551c0,1.866-0.15,4-0.45,6.399c-0.4,3.367-0.7,6.684-0.9,9.95c-0.133,2.033-0.45,5.5-0.95,10.4
	c-0.3,2.833-0.45,5.949-0.45,9.35c0,5.467-0.033,9.384-0.1,11.75c-0.067,3.767-0.25,7.35-0.55,10.75
	c-0.3,3.134-2.617,8.816-6.95,17.05c-2.167,4.134-4.317,7.95-6.45,11.45l-1.85,10.05l-2.5,6.4c-0.1-0.8-0.267-1.5-0.5-2.101
	c-0.433-1.267-0.933-1.466-1.5-0.6c-0.5,0.733-1.45,2.366-2.85,4.9c-1.633,3.066-2.733,5.066-3.3,6
	c-0.533,0.899-1.883,1.866-4.05,2.899c-1.534,0.733-3.9,1.65-7.1,2.75c3.267-2.033,6.75-4.95,10.45-8.75L48.35,607.95z M21.85,625
	c0.6-0.167,1.816-0.333,3.65-0.5l-0.2,0.1l-2.1,0.801l-0.75,0.25c-0.5-0.067-0.817-0.15-0.95-0.25c-0.2-0.101-0.15-0.2,0.15-0.301
	C21.683,625.066,21.75,625.033,21.85,625z M64.7,626.35c0.267-1.466,0.617-3.066,1.05-4.8c0.4-1.633,0.817-3.033,1.25-4.2l1.35-3.05
	c0.867-1.3,2.033-2.866,3.5-4.7l5.35-6.399c0.867-0.566,2.033-3.7,3.5-9.4l1.95-8.35l-0.15,5.899c-0.233,4.2-0.633,7.017-1.2,8.45
	c-1.2,2.934-3.483,7.7-6.85,14.3C73.55,615.9,70.3,619.983,64.7,626.35z M86.9,478.7l0.5-4.95l1.05,8.6c0.666,6.034,1,9.75,1,11.15
	c0,1.066,0.116,2.8,0.35,5.2c0.233,2.366,0.351,4.267,0.351,5.7c0,2.733-1.367,14.767-4.101,36.1l-0.2-3.4
	c-0.3-5.166-0.449-9.25-0.449-12.25V507.1c0-0.333-0.067-3.316-0.2-8.949c-0.101-3.334-0.033-5.801,0.2-7.4
	C85.967,486.783,86.467,482.767,86.9,478.7z"/>
<linearGradient id="SVGID_1_" gradientUnits="userSpaceOnUse" x1="21.3999" y1="625.0576" x2="130" y2="625.0576">
	<stop  offset="0" style="stop-color:#000000;stop-opacity:0.298"/>
	<stop  offset="0.8588" style="stop-color:#000000;stop-opacity:0.298"/>
	<stop  offset="1" style="stop-color:#000000;stop-opacity:0.298"/>
</linearGradient>
<path style="fill-rule:evenodd;clip-rule:evenodd;fill:url(#SVGID_1_);" d="M129.6,634.5c0.167,0.167,0.301,0.316,0.4,0.45
	c-1.4,0.333-3.483,0.083-6.25-0.75l-6.3-1.8c-1.066-0.2-3.584-0.767-7.55-1.7c-3.101-0.7-5.634-1.167-7.601-1.4
	c-2.133-0.233-4.8,0.101-8,1c-5.2,1.434-7.833,2.15-7.899,2.15c-0.601,0.133-3.5,0.25-8.7,0.35c-4.833,0.367-7.167,1.3-7,2.8
	c-1.833,0.367-4.184,0.517-7.05,0.45c-1.233-0.033-3.233-0.133-6-0.3c1.033-0.1,3.167-0.517,6.4-1.25l9.5-2.05
	c5-0.9,9.55-1.8,13.65-2.7c2.533-0.566,4.649-1.2,6.35-1.9l1.8-0.85l8.851,0.7c1.833,0.467,4.116,1.149,6.85,2.05
	c0.334,0.1,1.95,0.667,4.851,1.7c1.699,0.6,3.483,1.166,5.35,1.7c1.967,0.566,4.033,0.966,6.2,1.199L129.6,634.5z M125.95,629.45
	c-2.3-2.767-4.316-5.167-6.05-7.2c-2.4-2.7-4-4.517-4.801-5.45c-0.966-1.1-1.716-2.017-2.25-2.75c0.101,0,0.2,0.017,0.301,0.05
	c1.366,0.267,2.483,0.584,3.35,0.95c1.066,0.467,1.8,1.033,2.2,1.7c0.434,0.733-0.101,0.967-1.601,0.7
	c0.101,0.899,1.067,1.934,2.9,3.1c2.2,1.4,3.45,2.283,3.75,2.65c0.134,0.166,1.134,1.2,3,3.1c1.566,1.601,2.366,2.533,2.4,2.8
	c-0.5,0.2-1.233,0.301-2.2,0.301C126.583,629.4,126.25,629.417,125.95,629.45z M56.8,635.6c0,0.034,0.017,0.067,0.05,0.101
	c-0.097-0.032-0.197-0.049-0.3-0.05C56.652,635.649,56.735,635.632,56.8,635.6z M24.85,625.95c0.4,0.033,0.816,0.066,1.25,0.1
	l13.1,0.3c0.1,0,0.2,0,0.3,0c1.7,0,3.917-0.333,6.65-1l3.55-1.05h10.25l3.8,1.65c-1.467-0.167-3.5-0.217-6.1-0.15
	c-1.4-0.133-3.05-0.1-4.95,0.101c-2.467,0.267-3.817,0.75-4.05,1.449c-0.2-0.066-0.517-0.05-0.95,0.051
	c-0.434,0.066-0.733,0.083-0.9,0.05c0,0.2-0.017,0.517-0.05,0.95c-0.567,0.333-1.667,0.399-3.3,0.199
	c-0.9-0.1-2.083-0.283-3.55-0.55c-0.833-0.066-1.783-0.033-2.85,0.101c-1.4,0.166-2.3,0.25-2.7,0.25
	c-1.667,0.033-3.833-0.434-6.5-1.4C26.717,626.6,25.717,626.25,24.85,625.95z M21.85,625c-0.1,0.033-0.167,0.066-0.2,0.1
	c-0.1-0.033-0.183-0.05-0.25-0.05L21.85,625z"/>
<radialGradient id="SVGID_2_" cx="81.2998" cy="615.7998" r="73.75" gradientTransform="matrix(1 0 0 -0.4888 0 916.8111)" gradientUnits="userSpaceOnUse">
	<stop  offset="0" style="stop-color:#000000;stop-opacity:0.6863"/>
	<stop  offset="1" style="stop-color:#000000;stop-opacity:0"/>
</radialGradient>
<path style="fill-rule:evenodd;clip-rule:evenodd;fill:url(#SVGID_2_);" d="M64,626.05l0.7,0.3l-0.25,1.851l-0.4,2.899L57.2,635.2
	l-0.05,0.05l-0.2,0.15c-0.1,0.066-0.15,0.133-0.15,0.199c-0.064,0.032-0.148,0.05-0.25,0.051c0.104,0.001,0.203,0.018,0.3,0.05
	c0.1,0.033,0.35,0.05,0.75,0.05h0.05c2.767,0.167,4.767,0.267,6,0.3c2.867,0.066,5.217-0.083,7.05-0.45
	c-0.167-1.5,2.167-2.433,7-2.8c5.2-0.1,8.1-0.217,8.7-0.35c0.066,0,2.699-0.717,7.899-2.15c3.2-0.899,5.867-1.233,8-1
	c1.967,0.233,4.5,0.7,7.601,1.4c3.966,0.934,6.483,1.5,7.55,1.7l6.3,1.8c2.767,0.833,4.85,1.083,6.25,0.75
	c-0.1-0.134-0.233-0.283-0.4-0.45h0.5c-1.466-1.8-2.85-3.483-4.149-5.05c0.3-0.033,0.633-0.05,1-0.05c0.967,0,1.7-0.101,2.2-0.301
	c-0.034-0.267-0.834-1.199-2.4-2.8c-1.866-1.899-2.866-2.934-3-3.1c-0.3-0.367-1.55-1.25-3.75-2.65c-1.833-1.166-2.8-2.2-2.9-3.1
	c1.5,0.267,2.034,0.033,1.601-0.7c-0.4-0.667-1.134-1.233-2.2-1.7c-0.866-0.366-1.983-0.684-3.35-0.95
	c-0.101-0.033-0.2-0.05-0.301-0.05c-0.166-0.233-0.316-0.45-0.449-0.649c-0.233-0.367-0.601-0.817-1.101-1.351
	c0.367,0,0.717,0.017,1.05,0.05c2.733,0.134,4.667,0.334,5.801,0.601c2.8,0.7,5.366,1.816,7.699,3.35c-0.399,0.434-1,0.733-1.8,0.9
	c-0.467,0.1-1.133,0.217-2,0.35c1.367,0.2,1.884,0.584,1.55,1.15c-0.199,0.3-0.5,0.717-0.899,1.25
	c0.333,1.133,1.217,2.083,2.649,2.85c0.834,0.434,2.134,0.983,3.9,1.65c2.6,1.2,4.55,2.083,5.85,2.649
	c2.301,1.034,4.317,1.767,6.051,2.2c3.366,0.566,6,1.05,7.899,1.45c3.467,0.733,5.733,1.7,6.8,2.9c-1.8,0.6-5.216,0.6-10.25,0
	c-4.699-0.567-7.983-0.351-9.85,0.649c1.934,0.7,3.35,1.267,4.25,1.7c1.634,0.767,2.8,1.75,3.5,2.95c-2.634,0.066-5.866,0.1-9.7,0.1
	c-2.166,0-5.416-0.017-9.75-0.05c-0.066,0-1.75-0.083-5.05-0.25c-2.134-0.1-3.816-0.033-5.05,0.2c-0.8,0.166-1.5,0.467-2.101,0.899
	c-0.899,0.601-1.517,0.983-1.85,1.15c-0.6,0.267-1.4,0.417-2.4,0.45c-0.866,0.033-1.699-0.017-2.5-0.15
	c-0.899-0.133-1.633-0.383-2.199-0.75c-0.634-0.533-1.233-0.983-1.801-1.35c-1.966-1.167-4.116-1.584-6.449-1.25
	c-0.834,0.133-1.667,0.483-2.5,1.05c-1.034,0.667-1.801,1.1-2.301,1.3c-0.699,0.267-2.149,0.217-4.35-0.149
	c-2.033-0.334-3.417-0.267-4.15,0.199c-0.267,0.167-0.467,0.467-0.6,0.9c-0.2,0.467-0.317,0.717-0.35,0.75
	c-1,0.7-2.583,1.066-4.75,1.1c-1.2,0.034-3.033,0-5.5-0.1l-13.1-0.05c-1.167,0-2.133,0.083-2.9,0.25c-0.467,0.1-1.25,0.3-2.35,0.6
	c-0.033,0-0.117,0.134-0.25,0.4s-0.3,0.416-0.5,0.45c-1.133,0.267-2.617,0.366-4.45,0.3c-1.833-0.033-3.267-0.233-4.3-0.601
	c0.7-0.833,2.083-1.716,4.15-2.649c2.267-1,3.733-1.8,4.4-2.4c-0.8-0.934-2.934-1.3-6.4-1.1c-3.867,0.233-6.217,0.149-7.05-0.25
	c0.4-1.434,1.45-2.3,3.15-2.601c2.1-0.033,3.6-0.066,4.5-0.1c-0.133-0.267-0.133-0.75,0-1.45c0.133-0.666,0.167-1.05,0.1-1.149
	c-0.8-1.067-3.917-1.733-9.35-2c-1.8-0.101-4.933-0.2-9.4-0.301c-4-0.1-7.1-0.233-9.3-0.399c-0.1,0-0.8,0-2.1,0
	c-0.833,0-1.467-0.084-1.9-0.25c3.533-0.2,7.2-0.767,11-1.7c-1.3-0.733-3.767-1-7.4-0.8c-3.7,0.2-6.333-0.101-7.9-0.9
	c2-0.5,4.75-0.717,8.25-0.649c1.4,0,2.867-0.184,4.4-0.551c1.8-0.5,3.2-0.899,4.2-1.199c2.533-0.601,4.35-1.067,5.45-1.4
	c1.867-0.566,3.517-1.4,4.95-2.5c1.333-1.033,2.333-1.8,3-2.3c0.233-0.167,0.45-0.334,0.65-0.5c-4.4,3.899-8.333,6.35-11.8,7.35
	l-2.6,0.3l0.2-0.1c-1.833,0.167-3.05,0.333-3.65,0.5l-0.45,0.05c0.067,0,0.15,0.017,0.25,0.05c-0.3,0.101-0.35,0.2-0.15,0.301
	c0.133,0.1,0.45,0.183,0.95,0.25l1.35,0.199c0.333,0.034,0.684,0.067,1.05,0.101c0.867,0.3,1.867,0.649,3,1.05
	c2.667,0.967,4.833,1.434,6.5,1.4c0.4,0,1.3-0.084,2.7-0.25c1.067-0.134,2.017-0.167,2.85-0.101c1.467,0.267,2.65,0.45,3.55,0.55
	c1.633,0.2,2.733,0.134,3.3-0.199c0.033-0.434,0.05-0.75,0.05-0.95c0.167,0.033,0.467,0.017,0.9-0.05
	c0.433-0.101,0.75-0.117,0.95-0.051c0.233-0.699,1.583-1.183,4.05-1.449c1.9-0.2,3.55-0.233,4.95-0.101
	c2.6-0.066,4.633-0.017,6.1,0.15L64,626.05z"/>
</svg>
