<?xml version="1.0" encoding="iso-8859-1"?>
<!-- Generator: Adobe Illustrator 15.1.0, SVG Export Plug-In . SVG Version: 6.00 Build 0)  -->
<!DOCTYPE svg PUBLIC "-//W3C//DTD SVG 1.1//EN" "http://www.w3.org/Graphics/SVG/1.1/DTD/svg11.dtd">
<svg version="1.1" id="FlashAICB" xmlns="http://www.w3.org/2000/svg" xmlns:xlink="http://www.w3.org/1999/xlink" x="0px" y="0px"
	 width="73.75px" height="79.75px" viewBox="0 0 73.75 79.75" style="enable-background:new 0 0 73.75 79.75;" xml:space="preserve"
	>
<path style="fill-rule:evenodd;clip-rule:evenodd;fill:#6C5C47;" d="M17.575,5.45c0.058-0.45,0-0.967-0.175-1.55
	c-1.133-0.267-2.2-0.15-3.2,0.35c-1.133,0.567-1.267,1.35-0.4,2.35l0.85,0.275c-0.639,0.525-1.539,1.317-2.7,2.375
	c-0.233,0.2-0.534,0.433-0.9,0.7c0,2.3-0.05,3.65-0.15,4.05c-0.433,1.7-1.583,2.25-3.45,1.65c-0.434-1.7-0.1-3.05,1-4.05
	c1.066-0.633,1.933-1.184,2.6-1.65c0-0.2,0-0.4,0-0.6l-0.45-2.3c-1.6-2.433,1.066-4.367,8-5.8c6.133-1.233,10.633-1.567,13.5-1
	c0.467,0.1,1.183,0.533,2.15,1.3c0.05,0.039,0.1,0.08,0.15,0.125C33.898,1.708,33.432,1.95,33,2.4c-0.8,0.833-0.467,1.483,1,1.95
	c1.267,0.4,2.233,0.183,2.9-0.65c0.188-0.246,0.306-0.487,0.35-0.725C37.707,2.992,38.307,3,39.05,3c1.033,0,1.867,0.283,2.5,0.85
	c1.934,1.667,2.483,3.35,1.65,5.05c-0.818,1.605-2.394,1.813-4.726,0.625c-0.061-0.03-0.119-0.064-0.175-0.1
	c-0.086-0.038-0.169-0.08-0.25-0.125c-3.622-2.017-7.397-3.309-11.325-3.875c-1.266-0.185-2.549-0.293-3.85-0.325
	c-1.197-0.031-2.406,0.002-3.625,0.1C18.651,5.246,18.093,5.33,17.575,5.45z M69.55,28.1c-1.366,0.5-1.8,1.533-1.3,3.1
	c2.235,0.06,3.91,0.202,5.025,0.425c0.396,0.781,0.504,1.556,0.324,2.325c-1.3,0.267-2.5,0.1-3.6-0.5
	c-0.385-0.192-0.901-0.467-1.55-0.825c-0.33-0.2-0.672-0.392-1.025-0.575c-0.202-0.111-0.41-0.228-0.625-0.35
	c-0.135-0.05-0.276-0.1-0.425-0.15c-0.696-0.229-1.571-0.471-2.625-0.725c-0.436-0.107-0.902-0.215-1.4-0.325
	c-1.958-0.445-3.392-0.795-4.3-1.05c-0.104-0.038-0.205-0.071-0.3-0.1c-1.029-0.32-2.038-0.512-3.025-0.575
	c0.41-0.47,0.936-1.012,1.575-1.625c1.101-0.8,1.884-1.4,2.351-1.8c0.321-0.307,0.554-0.641,0.699-1
	c0.215,0.085,0.432,0.185,0.65,0.3c0.866,0.434,1.417,0.7,1.65,0.8c0.205,0.068,0.472,0.152,0.8,0.25
	c-0.341-0.042-0.707-0.008-1.101,0.1l0.9,0.9c-0.5-0.133-1.25-0.117-2.25,0.05c-0.3,0.667-0.45,1.25-0.45,1.75
	c0.8,0.1,1.483,0.167,2.05,0.2c1.067,0.033,1.7-0.05,1.9-0.25c0.866-0.833,0.967-1.55,0.3-2.15c-0.199-0.18-0.416-0.321-0.649-0.425
	c0.331,0.085,0.697,0.177,1.1,0.275c1.233,0.267,2.167,0.517,2.8,0.75C67.936,27.241,68.769,27.641,69.55,28.1z M48.4,29.7
	c-0.74,0.239-1.924,0.656-3.551,1.25c-1.241,0.392-2.191,0.575-2.85,0.55c0.813-0.696,2.162-1.213,4.05-1.55
	C46.529,29.879,47.313,29.796,48.4,29.7z M55.775,23.725c-0.439,0.306-1.147,0.831-2.125,1.575l-0.15-0.8
	c-1.733-0.1-3.134,0.083-4.2,0.55c-0.1,0.034-1.316,0.733-3.649,2.1c-0.767,0.467-1.834,1.017-3.2,1.65
	c-0.043,0.025-0.085,0.051-0.125,0.075c0.598-1.689,2.623-3.031,6.075-4.025C51.128,24.053,53.586,23.678,55.775,23.725z M25.9,3.9
	c2.167-0.2,2.95-1.1,2.35-2.7c-3-0.233-4.95-0.317-5.85-0.25c-2.8,0.2-3.683,1.167-2.65,2.9l1.35,0.9C21.4,4.483,23,4.2,25.9,3.9z
	 M21.05,57.55c0,0.233,0.067,0.45,0.2,0.65c1.633,0.066,3.25,0.066,4.85,0c0.066-1.134-0.434-1.867-1.5-2.2
	c-0.8-0.267-1.817-0.283-3.05-0.05L21.1,56.9C21.067,57.2,21.05,57.417,21.05,57.55z M10.375,56.45
	c1.419-0.379,3.028-0.579,4.825-0.601c3.3-0.566,5.833-0.916,7.6-1.05c3.167-0.233,5.333,0.733,6.5,2.9
	c-1.4,0.566-3.417,0.833-6.05,0.8c-3.3,0-5.367,0.066-6.2,0.2c-0.566,0.1-1.433,0.2-2.6,0.3c-1,0.167-1.833,0.366-2.5,0.6
	C11.183,59.9,10.4,60.4,9.6,61.1c-1.233,1.067-1.967,1.684-2.2,1.851C6.933,63.283,6.167,63.6,5.1,63.9v0.75
	c0.029,0.31,0.054,0.602,0.075,0.875c0.05,0.657,0.075,1.199,0.075,1.625c0,0.88-0.117,1.514-0.35,1.899
	c-0.068,0.127-0.152,0.227-0.25,0.3c-0.833,0.634-1.566,0.684-2.2,0.15c-0.328-0.287-0.578-0.662-0.75-1.125
	c0.189-0.024,0.373-0.066,0.55-0.125c0.533-1.134,0.717-2.333,0.55-3.6C2.775,64.632,2.75,64.615,2.725,64.6
	c0.203-0.113,0.428-0.214,0.675-0.3c0.44-0.093,0.848-0.184,1.225-0.274L4.6,64.25c0.043-0.086,0.093-0.169,0.15-0.25
	c0.116-0.035,0.233-0.068,0.35-0.1v-0.426c0.249-0.32,0.549-0.629,0.9-0.925c1.8-1.166,3-2.133,3.6-2.899
	c0.867-0.667,1.467-1.217,1.8-1.65C11.937,57.274,11.595,56.757,10.375,56.45z M12.4,58.25h1.85c1.2,0.1,2.383-0.083,3.55-0.55
	c0.034-1.2-0.816-1.65-2.55-1.351C13.55,56.616,12.6,57.25,12.4,58.25z M7.6,57.525c-0.163,0.323-0.263,0.698-0.3,1.125
	c-0.421-0.064-0.821-0.056-1.2,0.024C6.496,58.251,6.996,57.868,7.6,57.525z M12.2,74.9L11.5,75.6c-2.4,0-4.15-0.149-5.25-0.449
	c-2.133-0.601-3.1-1.801-2.9-3.601c0.9,0.112,2.108,0.463,3.625,1.05c0.282,0.109,0.573,0.226,0.875,0.351
	c2.367,0.967,3.883,1.55,4.55,1.75L12.2,74.9z"/>
<path style="fill-rule:evenodd;clip-rule:evenodd;fill:#5E5140;" d="M13.9,10.7c-0.235,0.297-0.427,0.605-0.575,0.925
	c-0.366,0.714-0.524,1.472-0.475,2.275v0.45c0.28,0.7,0.73,1.333,1.35,1.9c0.302,1.764,1.468,2.981,3.5,3.65
	c3.767,0.533,6.417,0.934,7.95,1.2c2.6,0.5,3.95,0.75,4.05,0.75c1.1,0.033,2.35-0.483,3.75-1.55c0.384-0.269,0.742-0.519,1.075-0.75
	c0.547-0.247,1.072-0.547,1.575-0.9c0.976-0.702,1.742-1.535,2.301-2.5c0.228-0.289,0.41-0.572,0.55-0.85
	c0.45-0.873,0.625-1.723,0.524-2.55c0.036-1.216-0.355-2.324-1.175-3.325c0.056,0.036,0.114,0.07,0.175,0.1
	c0.284,0.294,0.542,0.603,0.775,0.925c1.767,2.466,1.35,5.167-1.25,8.1c-2.467,2.867-4.75,4.75-6.85,5.65
	c-2.5,1.1-5.383,1.133-8.65,0.1c-3.633-1.167-6.3-2.783-8-4.85c-1.967-2.4-2.483-5.284-1.55-8.65
	C13.3,10.761,13.616,10.728,13.9,10.7z M71,44.325c0.928-1.624,1.178-3.383,0.75-5.275c-0.61-2.76-2.318-4.96-5.125-6.6
	c-0.409-0.282-0.834-0.549-1.275-0.8c-0.529-0.307-1.063-0.582-1.6-0.825c1.054,0.253,1.929,0.495,2.625,0.725
	c0.36,0.16,0.71,0.326,1.05,0.5c0.354,0.184,0.695,0.375,1.025,0.575c1.659,1.006,2.959,2.214,3.899,3.625
	c1.867,2.867,1.884,6.134,0.051,9.8c-0.601,1.233-1.601,2.483-3,3.75c-1.467,1.367-2.784,2.2-3.95,2.5c-1.9,0.5-3.717,0.4-5.45-0.3
	c-1-0.434-2.566-1.217-4.7-2.35c-0.533-0.2-1.45-0.317-2.75-0.351c-1.267-0.033-2.184-0.166-2.75-0.399
	c-0.767-0.301-1.767-0.934-3-1.9c-1.399-1.066-2.35-1.75-2.85-2.05c-0.867-0.467-1.767-0.95-2.7-1.45
	c-0.445-0.417-0.736-1.209-0.875-2.375c0.22,0.315,0.479,0.607,0.775,0.875c0.292,0.246,0.684,0.513,1.175,0.8l0.524,0.3
	c0.845,1.237,2.111,2.187,3.801,2.851c0.8,0.3,2.483,0.75,5.05,1.35c0.399,0.101,2.066,0.584,5,1.45c2,0.6,3.7,0.884,5.1,0.85
	c1.984-0.023,3.817-0.557,5.5-1.6c1.411-0.596,2.577-1.695,3.5-3.3C70.87,44.572,70.937,44.447,71,44.325z M43.25,34.25
	c-0.037,0.057-0.07,0.115-0.1,0.175c-0.044,0.016-0.086,0.032-0.125,0.05L43.25,34.25z M52.375,29.925
	C51,30.081,49.75,30.339,48.625,30.7c1.173-0.42,2.481-0.737,3.925-0.95c0.855-0.118,1.705-0.193,2.55-0.225
	C54.194,29.603,53.285,29.736,52.375,29.925z M18.875,75.275c0.508,0.034,1.033,0.06,1.575,0.074
	c5.724,0.155,9.507-1.295,11.35-4.35l0.775-0.725c0.246-0.251,0.471-0.526,0.675-0.825c0.135-0.203,0.251-0.402,0.35-0.601
	l0.175-0.375C34.33,67.118,34.072,65.81,33,64.55c-0.141-0.545-0.357-1.062-0.65-1.55c-0.506-0.838-1.181-1.546-2.025-2.125
	c1.211,0.354,2.186,0.979,2.925,1.875c1.133,1.333,1.5,3.033,1.1,5.1c-0.133,0.834-0.65,2.233-1.55,4.2
	c-0.9,1.934-1.633,3.25-2.2,3.95c-0.467,0.533-1.633,1.283-3.5,2.25c-1.9,1-3.133,1.5-3.7,1.5c-1.066,0-2.633-0.583-4.7-1.75
	c-2.833-1.533-4.317-2.333-4.45-2.4c-0.577-0.214-1.26-0.447-2.05-0.699l0.2-0.2c-0.667-0.2-2.183-0.783-4.55-1.75
	c-0.302-0.125-0.593-0.241-0.875-0.351C6.479,72.117,6.054,71.551,5.7,70.9c-0.358-0.645-0.625-1.261-0.8-1.851
	c0.233-0.386,0.35-1.02,0.35-1.899c0-0.426-0.025-0.968-0.075-1.625C5.73,64.48,6.771,63.473,8.3,62.5
	c0.218-0.143,0.451-0.284,0.7-0.425c-2.038,1.552-2.888,3.326-2.55,5.325l0.65-1.45c-0.9,2.6-0.434,4.733,1.4,6.399
	c1.867,1.7,4.683,2.65,8.45,2.851C17.615,75.234,18.257,75.259,18.875,75.275z"/>
<path style="fill-rule:evenodd;clip-rule:evenodd;fill:#76654E;" d="M17.175,6.475c-0.278,0.152-0.537,0.319-0.775,0.5
	c-0.345,0.113-0.761,0.138-1.25,0.075l-0.5-0.175L13.8,6.6c-0.867-1-0.733-1.783,0.4-2.35c1-0.5,2.066-0.617,3.2-0.35
	c0.175,0.583,0.233,1.1,0.175,1.55c-0.031,0.316-0.123,0.6-0.275,0.85C17.262,6.36,17.221,6.418,17.175,6.475z M37.25,2.975
	C37.206,3.213,37.089,3.455,36.9,3.7c-0.667,0.833-1.634,1.05-2.9,0.65c-1.467-0.467-1.8-1.117-1-1.95
	c0.432-0.45,0.898-0.691,1.4-0.725C34.825,1.631,35.274,1.739,35.75,2l0.45-0.9C37.012,1.721,37.362,2.346,37.25,2.975z
	 M55.775,23.725c0.244-0.181,0.402-0.289,0.475-0.325c1.1-0.633,2.167-0.883,3.2-0.75c0.136,0.62,0.102,1.187-0.101,1.7
	c-0.146,0.359-0.378,0.693-0.699,1c-0.467,0.4-1.25,1-2.351,1.8c-0.64,0.613-1.165,1.155-1.575,1.625
	c-0.097,0.11-0.188,0.218-0.274,0.325c-0.233,0.133-1.05,0.25-2.45,0.35c-1.434,0.093-2.634,0.177-3.6,0.25
	c-1.088,0.096-1.871,0.179-2.351,0.25c-1.888,0.337-3.237,0.854-4.05,1.55c-0.393,0.343-0.659,0.727-0.8,1.15l-1.351-0.9
	c0.577-1.25,1.402-2.209,2.476-2.875c0.04-0.024,0.082-0.05,0.125-0.075c1.366-0.633,2.434-1.183,3.2-1.65
	c2.333-1.367,3.55-2.066,3.649-2.1c1.066-0.466,2.467-0.65,4.2-0.55l0.15,0.8C54.628,24.556,55.336,24.031,55.775,23.725z
	 M63.15,25.875c0.233,0.104,0.45,0.245,0.649,0.425c0.667,0.6,0.566,1.317-0.3,2.15c-0.2,0.2-0.833,0.283-1.9,0.25
	c-0.566-0.034-1.25-0.1-2.05-0.2c0-0.5,0.15-1.083,0.45-1.75c1-0.167,1.75-0.183,2.25-0.05l-0.9-0.9
	c0.394-0.108,0.76-0.142,1.101-0.1C62.658,25.75,62.892,25.809,63.15,25.875z M73.275,31.625c-1.115-0.223-2.79-0.365-5.025-0.425
	c-0.5-1.567-0.066-2.6,1.3-3.1l1.4-0.95c1.2,0.133,2.017,0.65,2.45,1.55c0.399,0.767,0.466,1.767,0.199,3
	C73.497,31.675,73.389,31.65,73.275,31.625z M25.9,3.9c-2.9,0.3-4.5,0.583-4.8,0.85l-1.35-0.9c-1.033-1.733-0.15-2.7,2.65-2.9
	c0.9-0.067,2.85,0.017,5.85,0.25C28.85,2.8,28.067,3.7,25.9,3.9z M21.05,57.55c0-0.133,0.017-0.35,0.05-0.649l0.45-0.95
	c1.233-0.233,2.25-0.217,3.05,0.05c1.066,0.333,1.566,1.066,1.5,2.2c-1.6,0.066-3.217,0.066-4.85,0
	C21.117,58,21.05,57.783,21.05,57.55z M12.4,58.25c0.2-1,1.15-1.634,2.85-1.9c1.733-0.3,2.583,0.15,2.55,1.351
	c-1.167,0.467-2.35,0.649-3.55,0.55H12.4z M10.375,56.45c1.22,0.307,1.562,0.824,1.025,1.55c-0.333,0.434-0.933,0.983-1.8,1.65
	C9,60.417,7.8,61.384,6,62.55c-0.351,0.296-0.651,0.604-0.9,0.925C4.964,63.645,4.848,63.819,4.75,64
	c-0.057,0.081-0.107,0.164-0.15,0.25l0.025-0.225L4.65,63.75c-1.9-0.2-2.316-1.167-1.25-2.9c0.774-1.232,1.674-1.958,2.7-2.175
	c0.379-0.08,0.779-0.089,1.2-0.024c0.037-0.427,0.137-0.802,0.3-1.125c0.145-0.258,0.328-0.482,0.55-0.676
	c0.567-0.466,1.233-0.616,2-0.449C10.224,56.416,10.299,56.433,10.375,56.45z M2.725,64.6c0.025,0.016,0.05,0.032,0.075,0.051
	c0.167,1.267-0.017,2.466-0.55,3.6c-0.177,0.059-0.36,0.101-0.55,0.125c-0.469,0.058-0.986,0.016-1.55-0.125
	c-0.267-1.233-0.2-2.3,0.2-3.2C0.839,63.974,1.631,63.824,2.725,64.6z"/>
<path style="fill-rule:evenodd;clip-rule:evenodd;fill:#4E4539;" d="M16.4,6.975c0.238-0.181,0.497-0.348,0.775-0.5
	C18.024,6,19.065,5.642,20.3,5.4c0.829-0.16,1.687-0.26,2.575-0.3c1.301,0.032,2.584,0.14,3.85,0.325
	C25.079,5.464,23.57,5.723,22.2,6.2c-1.389,0.476-2.406,1.117-3.05,1.925c-1.019,0.354-2.186,0.796-3.5,1.325H15.5v0.025L15.1,9.55
	c-0.161,0.127-0.311,0.261-0.45,0.4l0.05-0.6C15.009,8.406,15.576,7.615,16.4,6.975z M48.625,30.7
	c1.125-0.361,2.375-0.619,3.75-0.775c-1.658,0.332-3.316,0.84-4.975,1.525c-1.971,0.822-3.254,1.755-3.851,2.8
	c-0.135,0.055-0.269,0.113-0.399,0.175c0.029-0.06,0.063-0.118,0.1-0.175c0.425-0.662,1.041-1.278,1.85-1.85
	C46.103,31.692,47.277,31.126,48.625,30.7z M67.3,48c-1.683,1.043-3.516,1.576-5.5,1.6c-1.399,0.034-3.1-0.25-5.1-0.85
	c-2.934-0.866-4.601-1.35-5-1.45c-2.566-0.6-4.25-1.05-5.05-1.35c-1.689-0.664-2.956-1.613-3.801-2.851
	c0.176,0.096,0.359,0.195,0.551,0.301l0.375,0.175c0.212,0.105,0.437,0.214,0.675,0.325c0.866,0.133,1.517,0.267,1.95,0.399
	l0.649,0.25h0.15c1.447,0.179,2.647,0.328,3.6,0.45c0.338,0.136,0.688,0.303,1.05,0.5c1.934,1.033,3.15,1.6,3.65,1.7
	c0.5,0.1,1.233,0.116,2.2,0.05c1.033-0.033,1.783-0.017,2.25,0.05c0.434,0.066,1.166,0.283,2.2,0.65c0.933,0.399,1.6,0.6,2,0.6
	C65.305,48.59,66.354,48.406,67.3,48z M66.625,32.45c2.807,1.64,4.515,3.84,5.125,6.6c0.428,1.893,0.178,3.651-0.75,5.275
	c1.263-2.54,1.196-5.032-0.2-7.475C69.793,35.136,68.401,33.669,66.625,32.45z M38.4,16.15c0.406-0.684,0.706-1.434,0.899-2.25
	c0.096-0.396,0.154-0.779,0.175-1.15c0.101,0.827-0.074,1.677-0.524,2.55C38.811,15.578,38.628,15.861,38.4,16.15z M14.2,16.25
	c0.858,0.778,2.042,1.428,3.55,1.95c0.057,0.02,0.115,0.037,0.175,0.05c1.448,0.505,2.973,0.83,4.575,0.975
	c0.312,0.095,0.646,0.186,1,0.275c2.167,0.533,4.567,0.8,7.2,0.8c1.38,0,2.655-0.25,3.825-0.75c-0.333,0.231-0.691,0.481-1.075,0.75
	c-1.4,1.067-2.65,1.583-3.75,1.55c-0.1,0-1.45-0.25-4.05-0.75c-1.533-0.267-4.183-0.667-7.95-1.2
	C15.668,19.231,14.502,18.014,14.2,16.25z M10.6,62.85c-1.167,0.601-2.067,1.167-2.7,1.7L7.6,65.15L7.45,65.85v0.025l-0.2,1.075
	c-0.022,0.545,0.011,1.128,0.1,1.75c0.036,0.292,0.086,0.592,0.15,0.899L8.1,70.2l0.075,0.075L7.85,70.6
	c2.241,2.727,5.917,4.285,11.025,4.676c-0.618-0.017-1.26-0.041-1.925-0.075c-3.767-0.2-6.583-1.15-8.45-2.851
	c-1.833-1.666-2.3-3.8-1.4-6.399L6.45,67.4C6.112,65.401,6.962,63.627,9,62.075c0.376-0.28,0.793-0.556,1.25-0.825
	c2.667-1.6,5.9-2.483,9.7-2.65c2.621-0.109,4.879,0.157,6.775,0.801c-2.409-0.514-4.767-0.381-7.075,0.399
	c-0.569,0.189-1.103,0.406-1.6,0.65c-0.375,0.04-0.75,0.09-1.125,0.149l-1.075,0.15C14.05,61.316,12.3,62.017,10.6,62.85z"/>
<path style="fill-rule:evenodd;clip-rule:evenodd;fill:#3D362D;" d="M58.05,29.45c0.908,0.254,2.342,0.604,4.3,1.05
	c0.498,0.11,0.965,0.218,1.4,0.325c0.537,0.243,1.07,0.518,1.6,0.825c0.441,0.251,0.866,0.518,1.275,0.8
	c1.776,1.219,3.168,2.686,4.175,4.4c1.396,2.443,1.463,4.935,0.2,7.475c-0.063,0.122-0.13,0.247-0.2,0.375
	c-0.923,1.604-2.089,2.704-3.5,3.3c-0.945,0.406-1.995,0.59-3.149,0.55c-0.4,0-1.067-0.2-2-0.6c-1.034-0.367-1.767-0.584-2.2-0.65
	c-0.467-0.066-1.217-0.083-2.25-0.05c-0.967,0.066-1.7,0.05-2.2-0.05c-0.5-0.101-1.717-0.667-3.65-1.7
	c-0.362-0.197-0.712-0.364-1.05-0.5c0.385,0.045,0.727,0.087,1.025,0.125c0.08,0.008,0.155,0.017,0.225,0.025
	c1.967,0.233,3.584,0.333,4.851,0.3c1.3-0.101,2.267-0.184,2.899-0.25c1.167-0.101,2.134-0.066,2.9,0.1
	c1.3,0.367,2.283,0.584,2.95,0.65c1.199,0.133,2.133-0.184,2.8-0.95c1.233-1.366,2.05-2.7,2.45-4c0.267-0.866,0.35-1.7,0.25-2.5
	c-0.667-1.333-1.9-2.767-3.7-4.3l-0.65-0.4c-0.149-0.084-0.299-0.168-0.45-0.25c-1.319-0.731-2.652-1.381-4-1.95
	c-2.767-0.667-5.1-1.017-7-1.05l-2.824,0.25c-0.967,0.167-1.959,0.434-2.976,0.8c-0.243,0.086-0.71,0.286-1.399,0.6
	c-0.141,0.061-0.291,0.127-0.45,0.2L47,32.725c-0.951,0.405-2.101,0.913-3.45,1.525c0.597-1.044,1.88-1.978,3.851-2.8
	c1.658-0.685,3.316-1.193,4.975-1.525c0.91-0.189,1.819-0.322,2.725-0.4C56.089,29.433,57.071,29.407,58.05,29.45z M39.475,12.75
	c-0.021,0.371-0.079,0.754-0.175,1.15c-0.193,0.816-0.493,1.566-0.899,2.25c-0.559,0.965-1.325,1.798-2.301,2.5
	c-0.502,0.353-1.027,0.653-1.575,0.9c-1.169,0.5-2.444,0.75-3.825,0.75c-2.633,0-5.034-0.267-7.2-0.8
	c-0.354-0.089-0.688-0.18-1-0.275c0.193,0.016,0.385,0.032,0.575,0.05L24.4,19.3c7.8,0,12.583-2.4,14.35-7.2v-0.6
	c-0.4-0.5-0.816-0.95-1.25-1.35L35.95,9.3c-0.497-0.179-1.047-0.345-1.65-0.5c-0.409-0.105-0.842-0.206-1.3-0.3l-0.075-0.025
	c-0.178-0.023-0.42-0.073-0.725-0.15c-0.444-0.146-1.194-0.388-2.25-0.725c-0.3-0.1-0.583-0.192-0.85-0.275L27.3,6.9l-4.8,0.325
	c-0.371,0.063-0.737,0.137-1.1,0.225c-0.351,0.089-0.734,0.198-1.15,0.325l-1.1,0.35c0.645-0.808,1.661-1.449,3.05-1.925
	c1.37-0.478,2.878-0.736,4.525-0.775C30.653,5.991,34.428,7.283,38.05,9.3c0.081,0.045,0.164,0.087,0.25,0.125
	C39.119,10.426,39.511,11.534,39.475,12.75z M18.05,60.45c0.498-0.244,1.031-0.461,1.6-0.65c2.308-0.78,4.667-0.913,7.075-0.399
	h0.025c0.043,0.02,0.093,0.036,0.15,0.05c1.35,0.315,2.492,0.79,3.425,1.425c0.844,0.579,1.519,1.287,2.025,2.125
	c0.293,0.488,0.509,1.005,0.65,1.55c-0.135-0.171-0.285-0.338-0.45-0.5c-1.6-1.533-3.483-2.633-5.65-3.3l-0.6-0.1
	c-0.167,0.033-0.35,0.033-0.55,0c-0.047-0.011-0.098-0.02-0.15-0.025V60.6c-0.507-0.114-1.099-0.188-1.775-0.225L21.55,60.3
	c-0.033,0-0.066,0-0.1,0l-2.15,0.075C18.883,60.388,18.466,60.412,18.05,60.45z M31.8,71c-1.843,3.055-5.626,4.505-11.35,4.35
	c-0.542-0.015-1.067-0.04-1.575-0.074c-5.108-0.391-8.784-1.949-11.025-4.676l0.325-0.324l0.5,0.375L9.15,71.05
	c2.333,1.167,5.483,1.783,9.45,1.851l2.85,0.1l2.7-0.45c0.167-0.033,1.75-0.083,4.75-0.149C30.028,72.1,30.994,71.633,31.8,71z"/>
<path style="fill-rule:evenodd;clip-rule:evenodd;fill:#877F6E;" d="M14.65,9.95c0.139-0.139,0.289-0.273,0.45-0.4l0.4-0.075
	L15.25,10.1c3.5,0.8,6.217,1.35,8.15,1.65c3.5,0.6,6.233,0.55,8.2-0.15l0.4-0.1c0.333,0.133,0.65,0.217,0.95,0.25
	c-1.934,2.667-5.267,3.417-10,2.25c-2.233-0.467-3.8-0.85-4.7-1.15c-2.283-0.761-3.616-1.603-4-2.525
	C14.378,10.196,14.511,10.071,14.65,9.95z M67.45,34.2l-1.101-0.65c-1.399-0.733-2.583-1.3-3.55-1.7l0.05,0.2l0.4,0.55
	c0.3,0.467,0.533,1.1,0.7,1.9c0.2,0.867,0.383,1.433,0.55,1.7c0.066,0.133,0.384,0.466,0.95,1c0.533,0.5,0.8,0.716,0.8,0.65
	c0.5,3.233-1.566,4.216-6.2,2.95c-0.366-0.1-0.883-0.35-1.55-0.75c-0.533-0.333-1.116-0.517-1.75-0.55
	c-0.366-0.033-0.717,0.117-1.05,0.45c-0.3,0.333-0.55,0.5-0.75,0.5c-0.834-0.033-2.45-0.316-4.851-0.85
	c-0.466-0.1-2.05-0.4-4.75-0.9c-2.566-0.633-4.199-1.367-4.899-2.2c-0.5,0.7-0.867,1.35-1.101,1.95c0.2,1.233,0.65,2.25,1.351,3.05
	c0.353,0.409,0.895,0.842,1.625,1.3c-0.491-0.287-0.883-0.554-1.175-0.8c-0.297-0.268-0.556-0.56-0.775-0.875
	c-0.564-0.761-0.906-1.653-1.025-2.675c0.4-1.133,1.134-2.233,2.2-3.3c0.511-0.232,1.002-0.457,1.476-0.675
	c0.039-0.018,0.081-0.035,0.125-0.05c0.131-0.062,0.265-0.12,0.399-0.175c1.35-0.612,2.499-1.12,3.45-1.525
	c-0.759,0.343-1.675,0.768-2.75,1.275c0.467,0,1.533-0.2,3.2-0.6c1.3-0.3,2.366-0.333,3.2-0.1c0.033,1.534,1.25,2.317,3.649,2.35
	c1.634,0.033,3.384-0.233,5.25-0.8c1.533-0.5,2.367-0.783,2.5-0.85c0.634-0.367,0.9-1.017,0.8-1.95L62.5,31.7l-0.15-0.1
	c1.348,0.569,2.681,1.219,4,1.95c0.151,0.082,0.301,0.166,0.45,0.25L67.45,34.2z M32.2,8.325c0.305,0.077,0.546,0.126,0.725,0.15
	L32.65,8.45C32.574,8.428,32.424,8.387,32.2,8.325z M20.25,7.775c0.416-0.127,0.799-0.235,1.15-0.325
	c0.363-0.088,0.729-0.163,1.1-0.225c-0.407,0.08-0.807,0.171-1.2,0.275C20.967,7.583,20.617,7.675,20.25,7.775z M13.325,11.625
	c-0.189,0.392-0.314,0.8-0.375,1.225l-0.1,1.05C12.801,13.097,12.959,12.339,13.325,11.625z M7.45,65.875V65.85L7.6,65.15l0.3-0.601
	c0.633-0.533,1.533-1.1,2.7-1.7l-0.55,0.301L9.7,63.6c0.566,0.301,1.316,0.434,2.25,0.4c1.033,0,1.767,0.066,2.2,0.2
	c0.4,0.133,1.05,0.55,1.95,1.25c0.767,0.633,1.517,0.983,2.25,1.05c0.867,0.1,2.1-0.2,3.7-0.9c1.7-0.699,3.034-1.033,4-1
	c-0.066-0.333-0.133-0.983-0.2-1.949c-0.033-0.889-0.116-1.563-0.25-2.025c0.052,0.006,0.103,0.015,0.15,0.025
	c0.2,0.033,0.383,0.033,0.55,0l0.6,0.1c2.167,0.667,4.05,1.767,5.65,3.3c0.166,0.162,0.315,0.329,0.45,0.5l-0.45-0.5
	c-0.6-0.533-1.066-0.916-1.4-1.149c-0.267,0.5-0.617,1.283-1.05,2.35c-0.5,0.866-1.367,1.434-2.6,1.7c-0.433,0.1-1.117,0.1-2.05,0
	c-0.934-0.101-1.633-0.117-2.1-0.05c-0.367,0.066-0.833,0.316-1.4,0.75c-0.567,0.399-1,0.633-1.3,0.699
	c-1.2,0.233-2.483,0.134-3.85-0.3c-2.033-0.7-3.183-1.066-3.45-1.1c-0.397-0.063-0.98-0.096-1.75-0.101
	c-0.469,0.009-1.003,0.025-1.6,0.051C8.647,66.867,7.797,66.525,7.45,65.875z M8.1,70.2l0.575,0.45l-0.5-0.375L8.1,70.2z"/>
<path style="fill-rule:evenodd;clip-rule:evenodd;fill:#6B6557;" d="M12.95,12.85c0.061-0.425,0.186-0.833,0.375-1.225
	c0.148-0.319,0.339-0.628,0.575-0.925c0.107-0.135,0.224-0.269,0.35-0.4v0.025c0.384,0.922,1.717,1.764,4,2.525
	c0.9,0.3,2.467,0.683,4.7,1.15c4.733,1.167,8.066,0.417,10-2.25c-0.3-0.033-0.617-0.117-0.95-0.25c1.033-0.5,1.733-1.15,2.1-1.95
	c0.867,0.867,0.95,2.05,0.25,3.55c-1.2,2.533-3.65,3.867-7.35,4c-1.333,0.066-3.583-0.333-6.75-1.2
	C16.717,14.933,14.283,13.917,12.95,12.85z M66.35,33.55c-0.199,0.534,0.084,1.167,0.851,1.9c0.866,0.867,1.35,1.45,1.45,1.75
	c0.366,1.367,0.166,2.7-0.601,4c-0.7,1.2-1.684,2.1-2.95,2.7c-1.333,0.6-2.55,0.683-3.649,0.25c-1.267-0.467-2.117-1.534-2.55-3.2
	c-1.034-0.267-2.184-0.267-3.45,0c0.033,0.2,0.017,0.566-0.05,1.1C55.3,42.55,55.267,42.9,55.3,43.1
	c-6.267,0.4-11.133-0.133-14.6-1.6c-0.7-0.8-1.15-1.817-1.351-3.05c0.233-0.6,0.601-1.25,1.101-1.95
	c0.7,0.833,2.333,1.567,4.899,2.2c2.7,0.5,4.284,0.8,4.75,0.9c2.4,0.534,4.017,0.817,4.851,0.85c0.2,0,0.45-0.167,0.75-0.5
	c0.333-0.333,0.684-0.483,1.05-0.45c0.634,0.033,1.217,0.217,1.75,0.55c0.667,0.4,1.184,0.65,1.55,0.75
	c4.634,1.267,6.7,0.283,6.2-2.95c0,0.066-0.267-0.15-0.8-0.65c-0.566-0.534-0.884-0.867-0.95-1c-0.167-0.267-0.35-0.833-0.55-1.7
	c-0.167-0.8-0.4-1.433-0.7-1.9l-0.4-0.55l-0.05-0.2C63.767,32.25,64.95,32.817,66.35,33.55z M33,64.55
	c-0.167,0.233-0.75,1.267-1.75,3.101c-0.7,1.267-1.383,2.05-2.05,2.35c-0.833,0.4-2.034,0.434-3.6,0.1c-1.667-0.333-3-0.3-4,0.101
	l-0.1,1.25c-0.4,0-1.833,0.149-4.3,0.45c-1.7,0.233-3.133,0.149-4.3-0.25c-0.3-0.101-1.183-0.634-2.65-1.601L9.725,69.7
	c-0.582-0.367-1.091-0.634-1.525-0.8l-0.725-0.2h-0.05c-0.029,0.001-0.054,0.001-0.075,0c-0.089-0.622-0.123-1.205-0.1-1.75
	l0.2-1.075c0.347,0.65,1.197,0.992,2.55,1.025c0.597-0.025,1.131-0.042,1.6-0.051c0.77,0.005,1.353,0.038,1.75,0.101
	c0.267,0.033,1.417,0.399,3.45,1.1c1.367,0.434,2.65,0.533,3.85,0.3c0.3-0.066,0.733-0.3,1.3-0.699
	c0.566-0.434,1.033-0.684,1.4-0.75c0.467-0.067,1.167-0.051,2.1,0.05c0.933,0.1,1.617,0.1,2.05,0c1.233-0.267,2.1-0.834,2.6-1.7
	c0.433-1.066,0.783-1.85,1.05-2.35c0.333,0.233,0.8,0.616,1.4,1.149L33,64.55z"/>
<path style="fill-rule:evenodd;clip-rule:evenodd;fill:#9A917E;" d="M62.35,31.6l0.15,0.1l0.35,0.35
	c0.101,0.934-0.166,1.583-0.8,1.95c-0.133,0.067-0.967,0.35-2.5,0.85c-1.866,0.566-3.616,0.833-5.25,0.8
	c-2.399-0.033-3.616-0.816-3.649-2.35c-0.834-0.233-1.9-0.2-3.2,0.1c-1.667,0.4-2.733,0.6-3.2,0.6
	c1.075-0.507,1.991-0.932,2.75-1.275l0.7-0.325c0.159-0.073,0.31-0.139,0.45-0.2c0.689-0.314,1.156-0.514,1.399-0.6
	c1.017-0.367,2.009-0.633,2.976-0.8l2.824-0.25C57.25,30.583,59.583,30.933,62.35,31.6z M34.3,8.8l-0.2,0.75
	c-0.367,0.8-1.067,1.45-2.1,1.95l-0.4,0.1c-1.967,0.7-4.7,0.75-8.2,0.15c-1.933-0.3-4.65-0.85-8.15-1.65l0.25-0.625V9.45h0.15
	c1.314-0.529,2.481-0.971,3.5-1.325l1.1-0.35c0.367-0.1,0.717-0.191,1.05-0.275c0.394-0.104,0.793-0.195,1.2-0.275L27.3,6.9
	l1.8,0.425C29.367,7.408,29.65,7.5,29.95,7.6c1.056,0.337,1.806,0.579,2.25,0.725c0.224,0.062,0.374,0.103,0.45,0.125l0.275,0.025
	L33,8.5C33.458,8.594,33.891,8.694,34.3,8.8z M10.6,62.85c1.7-0.833,3.45-1.533,5.25-2.1l1.075-0.15
	c0.375-0.06,0.75-0.109,1.125-0.149c0.417-0.038,0.833-0.063,1.25-0.075l2.15-0.075c0.033,0,0.067,0,0.1,0l2.275,0.075
	c0.676,0.036,1.268,0.11,1.775,0.225v0.025c0.134,0.462,0.217,1.137,0.25,2.025c0.066,0.966,0.133,1.616,0.2,1.949
	c-0.966-0.033-2.3,0.301-4,1c-1.6,0.7-2.833,1-3.7,0.9c-0.733-0.066-1.483-0.417-2.25-1.05c-0.9-0.7-1.55-1.117-1.95-1.25
	c-0.433-0.134-1.167-0.2-2.2-0.2c-0.934,0.033-1.684-0.1-2.25-0.4l0.35-0.449L10.6,62.85z"/>
<path style="fill-rule:evenodd;clip-rule:evenodd;fill:#504B41;" d="M66.35,33.55l1.101,0.65c1.8,1.533,3.033,2.966,3.7,4.3
	c0.1,0.8,0.017,1.634-0.25,2.5c-0.4,1.3-1.217,2.634-2.45,4c-0.667,0.767-1.601,1.083-2.8,0.95c-0.667-0.066-1.65-0.283-2.95-0.65
	c-0.767-0.166-1.733-0.2-2.9-0.1c-0.633,0.066-1.6,0.149-2.899,0.25c-1.267,0.033-2.884-0.066-4.851-0.3
	c-0.069-0.009-0.145-0.018-0.225-0.025c-0.299-0.038-0.641-0.08-1.025-0.125c-0.952-0.122-2.152-0.271-3.6-0.45h-0.15L46.4,44.3
	c-0.434-0.133-1.084-0.267-1.95-0.399c-0.238-0.111-0.463-0.22-0.675-0.325L43.4,43.4c-0.191-0.105-0.375-0.205-0.551-0.301
	l-0.524-0.3c-0.73-0.458-1.272-0.891-1.625-1.3c3.467,1.467,8.333,2,14.6,1.6c-0.033-0.199,0-0.55,0.101-1.05
	c0.066-0.533,0.083-0.899,0.05-1.1c1.267-0.267,2.416-0.267,3.45,0c0.433,1.666,1.283,2.733,2.55,3.2
	c1.1,0.433,2.316,0.35,3.649-0.25c1.267-0.601,2.25-1.5,2.95-2.7c0.767-1.3,0.967-2.633,0.601-4c-0.101-0.3-0.584-0.883-1.45-1.75
	C66.434,34.717,66.15,34.083,66.35,33.55z M22.5,19.225c-1.603-0.145-3.127-0.47-4.575-0.975c-0.06-0.013-0.118-0.03-0.175-0.05
	c-1.508-0.522-2.691-1.172-3.55-1.95c-0.62-0.566-1.07-1.2-1.35-1.9V13.9l0.1-1.05c1.333,1.066,3.767,2.083,7.3,3.05
	c3.167,0.867,5.417,1.267,6.75,1.2c3.7-0.133,6.15-1.467,7.35-4c0.7-1.5,0.617-2.684-0.25-3.55l0.2-0.75
	c0.604,0.155,1.154,0.321,1.65,0.5l1.55,0.85c0.434,0.4,0.85,0.85,1.25,1.35v0.6c-1.767,4.8-6.55,7.2-14.35,7.2l-1.325-0.025
	C22.885,19.257,22.693,19.241,22.5,19.225z M8.675,70.65L8.1,70.2L7.5,69.6c-0.064-0.308-0.114-0.607-0.15-0.899
	c0.021,0.001,0.046,0.001,0.075,0h0.05L8.2,68.9c0.434,0.166,0.943,0.433,1.525,0.8l0.525,0.35c1.467,0.967,2.35,1.5,2.65,1.601
	c1.167,0.399,2.6,0.483,4.3,0.25c2.466-0.301,3.9-0.45,4.3-0.45l0.1-1.25c1-0.4,2.333-0.434,4-0.101
	c1.566,0.334,2.767,0.301,3.6-0.1c0.667-0.3,1.35-1.083,2.05-2.35c1-1.834,1.583-2.867,1.75-3.101
	c1.072,1.26,1.33,2.568,0.775,3.925L33.6,68.85c-0.099,0.198-0.215,0.397-0.35,0.601c-0.204,0.299-0.429,0.574-0.675,0.825L31.8,71
	c-0.806,0.633-1.772,1.1-2.9,1.4c-3,0.066-4.583,0.116-4.75,0.149L21.45,73l-2.85-0.1c-3.967-0.067-7.117-0.684-9.45-1.851
	L8.675,70.65z"/>
</svg>
