<?xml version="1.0" encoding="iso-8859-1"?>
<!-- Generator: Adobe Illustrator 15.1.0, SVG Export Plug-In . SVG Version: 6.00 Build 0)  -->
<!DOCTYPE svg PUBLIC "-//W3C//DTD SVG 1.1//EN" "http://www.w3.org/Graphics/SVG/1.1/DTD/svg11.dtd">
<svg version="1.1" id="FlashAICB" xmlns="http://www.w3.org/2000/svg" xmlns:xlink="http://www.w3.org/1999/xlink" x="0px" y="0px"
	 width="207.8px" height="152.8px" viewBox="0 0 207.8 152.8" style="enable-background:new 0 0 207.8 152.8;" xml:space="preserve"
	>
<g>
	<path style="fill-rule:evenodd;clip-rule:evenodd;fill:#577820;" d="M200.15,8.25l0.35,0.35c1.934,2.2,3.583,10,4.95,23.4
		c1.267,12.5,2.017,26.95,2.25,43.35c0.267,16.966-0.117,31.55-1.15,43.75c-1.133,13.7-2.899,21.867-5.3,24.5
		c-2.967,3.268-14.05,5.7-33.25,7.301c-16.9,1.433-37.4,2.05-61.5,1.85c-23-0.2-43.333-1.066-61-2.6
		c-18.7-1.601-29.233-3.551-31.6-5.851c-5.867-5.7-9.717-14.45-11.55-26.25c-0.967-6.2-1.567-17.083-1.8-32.649
		C0.35,79.533,0.2,74.434,0.1,70.1c-0.2-8.233-0.133-15.383,0.2-21.45c1-18.633,4.5-29.933,10.5-33.9c1.9-1.267,4.717-2.3,8.45-3.1
		c22.767,12.534,51.4,18.25,85.9,17.15l2.149,0.35c8.9,1.433,16.134,2.284,21.7,2.55c4.733,0.2,9.95-0.184,15.65-1.15
		c4.366-0.733,9.5-1.9,15.399-3.5c8.033-2.133,15-4.5,20.9-7.1C188.684,16.583,195.083,12.684,200.15,8.25z"/>
	<path style="fill-rule:evenodd;clip-rule:evenodd;fill:#4E7A07;" d="M182.4,19.35c4.066,0.533,4.883,1.233,2.449,2.1
		c-2.333,0.866-4.767,1.183-7.3,0.95c-0.733-0.1-1.217-0.25-1.45-0.45C178.434,21.05,180.533,20.184,182.4,19.35z"/>
	<path style="fill-rule:evenodd;clip-rule:evenodd;fill:#4E7A07;" d="M100.65,29.05c3.133,0.467,5.167,0.983,6.1,1.55
		c0.833,0.533,0.616,1-0.65,1.4c-3.3,1.133-7.25,1.066-11.85-0.2c-1.9-0.5-2.7-1.05-2.4-1.65c0.3-0.6,1.35-1,3.15-1.2h4.6
		L100.65,29.05z"/>
	<path style="fill-rule:evenodd;clip-rule:evenodd;fill:#4E7A07;" d="M30.3,22.2c1.633,0.4,2.667,0.883,3.1,1.45
		c0.433,0.6,0.15,1.117-0.85,1.55c-0.767,0.333-2.167,0.366-4.2,0.1c-2.833-0.333-4.5-0.5-5-0.5c-1.767,0.033-1.467-0.517,0.9-1.65
		C26.483,22.05,28.5,21.733,30.3,22.2z"/>
	<path style="fill-rule:evenodd;clip-rule:evenodd;fill:#4E7A07;" d="M46.75,29.8c0.733,0.467,0.25,0.983-1.45,1.55
		c-1.566,0.5-3.433,0.733-5.6,0.7c-2.7-0.2-4.884-0.333-6.55-0.4c-1.167-0.033-1.633-0.267-1.4-0.7c0.233-0.4,0.95-0.85,2.15-1.35
		c3.1-1.233,5.817-1.617,8.15-1.15C44.65,28.983,46.217,29.434,46.75,29.8z"/>
	<path style="fill-rule:evenodd;clip-rule:evenodd;fill:#497207;" d="M190.35,12.3c3.5-1.367,6.884-2.6,10.15-3.7l0.05,3.9l-3.3,6
		v4.7c-0.667,0.433-1.533,0.883-2.6,1.35c-2.101,0.867-4.134,1.3-6.101,1.3c-1.934,0-4.616,0.233-8.05,0.7l-4.6,0.65l-0.551,1.35
		c-0.566,0.867-1.267,1.3-2.1,1.3h-7.35c-1.233,0-2.351,0.867-3.351,2.6c-1.267,2.133-2.366,3.483-3.3,4.05
		c-1.1,0.667-1.65,0.967-1.65,0.9c0-0.133-0.566,0.017-1.699,0.45c-1.4,0.566-3.384,1.3-5.95,2.2l-3.45,1.2l-37.25-3.4
		c-0.767,0.433-1.717,0.883-2.85,1.35c-2.233,0.867-4.184,1.3-5.851,1.3c-4.333,0-8.55-0.883-12.65-2.65
		c-1.933-0.833-4.733-0.967-8.4-0.4l-4.95,1.05c-2.2,0-4.867-0.433-8-1.3c-1.933-0.567-4.517-1.184-7.75-1.85l-4.25-0.85h-7.3
		c-2.233-1.333-5.133-2.883-8.7-4.65c-2.5-1.233-4.667-2.483-6.5-3.75c-1.5-1-3.333-2.417-5.5-4.25
		c-1.667-1.4-4.417-1.783-8.25-1.15l-5.25,1.4l12.1-3.6l1.4-0.25c1.133-0.1,2.25-0.017,3.35,0.25c1.767,0.467,5.767,2.25,12,5.35
		l3.65,1c2.6,0.733,4.267,1.283,5,1.65c5.934,3.1,18.95,4.9,39.05,5.4c3.7,0.1,16.833,0.033,39.4-0.2c6.8-0.1,16.434-1.9,28.9-5.4
		c11.899-3.367,18.616-5.966,20.149-7.8C179.25,17.1,183.35,15.033,190.35,12.3z"/>
	<path style="fill-rule:evenodd;clip-rule:evenodd;fill:#466E13;" d="M127.05,26.15c2.367-1.6,4.033-2.617,5-3.05
		c0,0.567,0.233,1.6,0.7,3.1c0.4,1.3,0.5,2.333,0.3,3.1c0.2-0.4,0.7-0.9,1.5-1.5c0.934-0.667,1.434-1.033,1.5-1.1
		c0.333,0.533,0.983,1.2,1.95,2c0.866,0.767,1.383,1.3,1.55,1.6c0.5-1.033,0.75-2.25,0.75-3.65s-0.25-2.75-0.75-4.05
		c1,0.767,1.851,1.75,2.55,2.95c0.7,1.2,1.184,2.45,1.45,3.75c0.634-0.833,1.483-1.667,2.55-2.5c1.301-0.9,2.283-1.616,2.95-2.15
		c0,0.534,0.167,1.4,0.5,2.6s0.5,2.05,0.5,2.55c1.934-0.833,3.066-1.333,3.4-1.5c1.066-0.633,1.933-1.5,2.6-2.6
		c0.167,0.167,0.5,0.417,1,0.75c0.5,0.333,0.833,0.6,1,0.8c1.533-3.967,3.533-6.367,6-7.2c0,0.533,0.167,1.4,0.5,2.6
		c0.333,1.2,0.5,2.05,0.5,2.55c2.566-1.533,4.217-2.684,4.95-3.45c1.467-1.5,1.983-3.267,1.55-5.3c0.5,0.366,1.583,0.717,3.25,1.05
		s2.75,0.667,3.25,1c0-0.167,0.15-1.15,0.45-2.95c0.233-1.467,0.25-2.7,0.05-3.7c3.134,2.033,4.7,3.8,4.7,5.3l2.3-1.2l-0.5-11.3
		l2,1.55c0.833,0.633,1.667,1.933,2.5,3.9c0.434,0.966,0.767,1.883,1,2.75c0.333-1.367,0.5-2.9,0.5-4.6v-7.2l1,1.55
		c0.667,1.033,2.167,3.6,4.5,7.7l1.5-2.05c0.634-0.867,1.066-2.5,1.3-4.9l0.2-3.35l2,5.65c0.467,1.233,0.117,2.8-1.05,4.7
		c-1.033,1.7-2.517,3.383-4.45,5.05c-2.333,2.067-4.333,4.133-6,6.2l-3,2.05c-1.2,0.833-2.85,0.9-4.95,0.2l-4.55-1.45
		c-0.6-0.067-1.967,0.35-4.1,1.25c-3,1.3-5.5,2.35-7.5,3.15c-3.101,2.1-5,3.35-5.7,3.75c-2.066,1.2-3.8,1.8-5.2,1.8
		c-0.399,0.2-0.717,0.55-0.95,1.05c-0.267,0.567-0.449,0.9-0.55,1c-0.167-0.167-0.417-0.5-0.75-1
		c-0.333-0.533-0.583-0.883-0.75-1.05c-0.366,0.6-1.2,1.267-2.5,2c-1.434,0.833-2.267,1.367-2.5,1.6
		c-0.167-0.167-0.333-0.417-0.5-0.75c-0.167-0.367-0.333-0.634-0.5-0.8c-0.934,0.2-2.217,0.717-3.85,1.55
		c-1.967,1-3.233,1.6-3.8,1.8c-2.801,1.033-4.551-0.083-5.25-3.35l-0.95,0.1c-1.767,1.133-3.983,1.967-6.65,2.5l-0.6-1.15
		c-0.2-0.4-0.317-0.75-0.351-1.05H122.4c-2.034,0.5-3.551,0.85-4.551,1.05c-1.699,0.4-3.133,0.6-4.3,0.6
		c0.2-0.4,0.75-0.983,1.65-1.75l-6.4-0.35c-3.13,0.372-5.146,0.572-6.05,0.6h1.3c-2.2,0.933-4.1,1.383-5.7,1.35
		c-2.067-0.1-3.333-1.066-3.8-2.9c-3.2-0.867-7.25-1.533-12.15-2c-1.233,0.067-2.983,0.617-5.25,1.65
		c-2.167,0.967-3.917,1.45-5.25,1.45c-1.533,0-3.133-0.367-4.8-1.1c-1.6-0.7-2.217-1.216-1.85-1.55c-3.8-0.034-6.4-0.083-7.8-0.15
		c-2.267-0.067-4.784-0.467-7.55-1.2c-2.4-0.1-5.183-1.367-8.35-3.8c-1-0.733-1.867-1.467-2.6-2.2l-2.7-0.95L30.3,22.2
		c-1.767-0.4-3.667-0.533-5.7-0.4l-2.55,0.3l4.15-2.95l-1.05-0.65h-3.6c-1.467,0-3.316,0.6-5.55,1.8c-1.133,0.6-2.117,1.2-2.95,1.8
		l1.5-3.1c0.8-1.633,2.167-3,4.1-4.1l-1.6-0.5l2.2-2.75c0.933-1.133,0.683-3.15-0.75-6.05l-2.45-4.05l3,3.35c2,2.567,3,4.7,3,6.4
		c0,0.333,0.067,0.617,0.2,0.85c1.267-1.067,3.033-2.367,5.3-3.9c-0.267,0.533-0.683,1.533-1.25,3c-0.467,1.2-0.883,2.083-1.25,2.65
		c0.567,0,1.233-0.133,2-0.4c0.867-0.3,1.533-0.684,2-1.15c0.333,0.333,0.667,1.017,1,2.05c0.167-0.667,0.583-1.6,1.25-2.8
		c0.667-1.2,1.083-2.15,1.25-2.85c0.5,1.333,1.033,3.267,1.6,5.8c0.633,2.767,1.133,4.7,1.5,5.8l1,0.35c1.767-2.634,3.9-4.4,6.4-5.3
		L44,17.9c0.367,1,0.55,1.717,0.55,2.15c0.167-0.333,0.583-0.933,1.25-1.8c0.667-0.833,1.083-1.434,1.25-1.8
		c0,0.3,0.25,0.917,0.75,1.85c0.5,0.934,0.75,1.684,0.75,2.25c0.5-1.566,1.333-2.917,2.5-4.05c1.2-1.167,2.533-1.867,4-2.1
		c-0.333,0.534-0.667,1.583-1,3.15c-0.333,1.667-0.667,2.833-1,3.5c1,0.667,2.083,1.917,3.25,3.75l1.6,0.2
		c0.6-0.1,1.317-0.383,2.15-0.85c0.233,0.233,0.6,0.683,1.1,1.35l0.4,0.05c0-0.467,0.083-1.3,0.25-2.5
		c0.167-1.133,0.25-1.967,0.25-2.5c1.033,0.2,2.333,0.817,3.9,1.85c0.833,0.567,1.866,1.317,3.1,2.25c0-0.3,0.083-0.917,0.25-1.85
		c0.167-0.933,0.25-1.683,0.25-2.25c0.167,0.533,0.667,1.317,1.5,2.35c0.833,1.034,1.333,1.8,1.5,2.3c2.133-2.967,4.133-5.033,6-6.2
		c-1.4,2.467-2.4,5.217-3,8.25c1.333-0.467,2.5-0.667,3.5-0.6c0.233,0,1.4,0.2,3.5,0.6c0-0.633,0.25-1.767,0.75-3.4
		s0.75-2.9,0.75-3.8c1.533,0.6,3.25,1.9,5.15,3.9c2.233,2.433,3.683,3.866,4.35,4.3c0.4-0.6,1.067-1.267,2-2
		c1.133-0.867,1.8-1.4,2-1.6c0,0.5,0.15,1.284,0.45,2.35c0.333,1.133,0.517,1.917,0.55,2.35l0.5,0.05
		c0.567-0.4,1.517-0.783,2.85-1.15c1.367-0.4,2.25-0.733,2.65-1c0,0.4,0.101,0.816,0.3,1.25c0.134,0.267,0.367,0.7,0.7,1.3
		c1.667-2.267,2.5-4.833,2.5-7.7c3.101,3.167,5.15,4.75,6.15,4.75c0.533,0,2.816-1.25,6.85-3.75c0,0.466,0.167,1.35,0.5,2.65
		c0.333,1.267,0.5,2.267,0.5,3C123.35,28.383,125.017,27.517,127.05,26.15z"/>
	<g>
		<path style="fill-rule:evenodd;clip-rule:evenodd;fill:#497114;" d="M16.85,72.1c0,0.466-0.65,0.867-1.95,1.2
			c-1.3,0.333-2.883,0.5-4.75,0.5S6.7,73.633,5.4,73.3c-1.333-0.333-2-0.733-2-1.2c0-0.433,0.667-0.817,2-1.15
			c1.333-0.333,2.917-0.5,4.75-0.5s3.417,0.167,4.75,0.5C16.2,71.25,16.85,71.633,16.85,72.1z"/>
		<path style="fill-rule:evenodd;clip-rule:evenodd;fill:#497114;" d="M22,103.15c0,0.467-0.65,0.866-1.95,1.199
			c-1.3,0.334-2.883,0.5-4.75,0.5s-3.45-0.166-4.75-0.5c-1.3-0.333-1.95-0.732-1.95-1.199s0.65-0.851,1.95-1.15
			c1.333-0.333,2.917-0.5,4.75-0.5c1.833,0,3.417,0.167,4.75,0.5C21.35,102.3,22,102.684,22,103.15z"/>
		<path style="fill-rule:evenodd;clip-rule:evenodd;fill:#497114;" d="M73.95,46.65c0,0.467-0.65,0.867-1.95,1.2
			c-1.333,0.333-2.934,0.5-4.8,0.5c-1.867,0-3.45-0.167-4.75-0.5c-1.3-0.333-1.95-0.733-1.95-1.2c0-0.466,0.65-0.85,1.95-1.15
			c1.333-0.333,2.917-0.5,4.75-0.5c1.866,0,3.466,0.167,4.8,0.5C73.3,45.8,73.95,46.184,73.95,46.65z"/>
		<path style="fill-rule:evenodd;clip-rule:evenodd;fill:#497114;" d="M180.7,34.95c0,0.467-0.65,0.85-1.95,1.15
			c-1.333,0.333-2.934,0.5-4.8,0.5c-1.834,0-3.417-0.167-4.75-0.5c-1.3-0.3-1.95-0.683-1.95-1.15s0.65-0.867,1.95-1.2
			s2.883-0.5,4.75-0.5c1.866,0,3.467,0.167,4.8,0.5C180.05,34.083,180.7,34.483,180.7,34.95z"/>
		<path style="fill-rule:evenodd;clip-rule:evenodd;fill:#497114;" d="M113.05,50c0,0.467-0.649,0.85-1.95,1.15
			c-1.333,0.333-2.933,0.5-4.8,0.5c-1.833,0-3.417-0.167-4.75-0.5c-1.3-0.3-1.95-0.683-1.95-1.15s0.65-0.867,1.95-1.2
			c1.3-0.333,2.884-0.5,4.75-0.5c1.867,0,3.467,0.167,4.8,0.5C112.4,49.133,113.05,49.533,113.05,50z"/>
		<path style="fill-rule:evenodd;clip-rule:evenodd;fill:#497114;" d="M24.1,26.3c1.333,0.333,2,0.717,2,1.15
			c0,0.467-0.667,0.866-2,1.2c-1.3,0.333-2.883,0.5-4.75,0.5s-3.45-0.167-4.75-0.5c-1.3-0.333-1.95-0.733-1.95-1.2
			s0.65-0.85,1.95-1.15c1.333-0.333,2.917-0.5,4.75-0.5C21.183,25.8,22.767,25.967,24.1,26.3z"/>
		<path style="fill-rule:evenodd;clip-rule:evenodd;fill:#497114;" d="M60.8,74.9c0,0.467-0.65,0.867-1.95,1.2
			c-1.3,0.333-2.883,0.5-4.75,0.5s-3.467-0.167-4.8-0.5c-1.3-0.333-1.95-0.733-1.95-1.2c0-0.466,0.65-0.85,1.95-1.15
			c1.333-0.333,2.934-0.5,4.8-0.5c1.833,0,3.417,0.167,4.75,0.5C60.15,74.05,60.8,74.434,60.8,74.9z"/>
		<path style="fill-rule:evenodd;clip-rule:evenodd;fill:#497114;" d="M82.15,84c1.867,0,3.467,0.167,4.8,0.5
			c1.3,0.3,1.95,0.684,1.95,1.15s-0.65,0.866-1.95,1.199c-1.333,0.334-2.934,0.5-4.8,0.5s-3.45-0.166-4.75-0.5
			c-1.3-0.333-1.95-0.732-1.95-1.199S76.1,84.8,77.4,84.5C78.733,84.167,80.316,84,82.15,84z"/>
		<path style="fill-rule:evenodd;clip-rule:evenodd;fill:#497114;" d="M165.2,61.05c1.3,0.333,1.95,0.733,1.95,1.2
			s-0.65,0.85-1.95,1.15c-1.334,0.333-2.917,0.5-4.75,0.5c-1.867,0-3.467-0.167-4.8-0.5c-1.301-0.3-1.95-0.683-1.95-1.15
			s0.649-0.867,1.95-1.2c1.333-0.333,2.933-0.5,4.8-0.5C162.316,60.55,163.9,60.717,165.2,61.05z"/>
		<path style="fill-rule:evenodd;clip-rule:evenodd;fill:#497114;" d="M205.8,51.05c0,0.467-0.649,0.867-1.95,1.2
			c-1.3,0.333-2.883,0.5-4.75,0.5c-1.866,0-3.467-0.167-4.8-0.5c-1.3-0.333-1.95-0.733-1.95-1.2s0.65-0.85,1.95-1.15
			c1.333-0.333,2.934-0.5,4.8-0.5c1.834,0,3.417,0.167,4.75,0.5C205.15,50.2,205.8,50.583,205.8,51.05z"/>
		<path style="fill-rule:evenodd;clip-rule:evenodd;fill:#497114;" d="M123.05,71.75c1.333-0.333,2.917-0.5,4.75-0.5
			s3.417,0.167,4.75,0.5s2,0.717,2,1.15c0,0.467-0.667,0.867-2,1.2c-1.3,0.333-2.883,0.5-4.75,0.5c-1.866,0-3.45-0.167-4.75-0.5
			s-1.95-0.733-1.95-1.2C121.1,72.434,121.75,72.05,123.05,71.75z"/>
		<path style="fill-rule:evenodd;clip-rule:evenodd;fill:#497114;" d="M162.5,87.85c1.866,0,3.45,0.167,4.75,0.5
			c1.3,0.334,1.95,0.733,1.95,1.2s-0.65,0.851-1.95,1.15c-1.333,0.333-2.917,0.5-4.75,0.5c-1.867,0-3.467-0.167-4.8-0.5
			c-1.3-0.3-1.95-0.684-1.95-1.15s0.65-0.866,1.95-1.2C159.033,88.017,160.633,87.85,162.5,87.85z"/>
		<path style="fill-rule:evenodd;clip-rule:evenodd;fill:#497114;" d="M31.25,49.75c0,0.467-0.65,0.85-1.95,1.15
			c-1.333,0.333-2.917,0.5-4.75,0.5c-1.833,0-3.417-0.167-4.75-0.5c-1.333-0.3-2-0.683-2-1.15s0.667-0.867,2-1.2
			c1.3-0.333,2.883-0.5,4.75-0.5s3.45,0.167,4.75,0.5C30.6,48.883,31.25,49.283,31.25,49.75z"/>
		<path style="fill-rule:evenodd;clip-rule:evenodd;fill:#497114;" d="M146.5,101.55c0,0.467-0.65,0.851-1.95,1.15
			c-1.333,0.333-2.917,0.5-4.75,0.5s-3.417-0.167-4.75-0.5c-1.333-0.3-2-0.684-2-1.15s0.667-0.866,2-1.2
			c1.3-0.333,2.884-0.5,4.75-0.5c1.867,0,3.45,0.167,4.75,0.5C145.85,100.684,146.5,101.083,146.5,101.55z"/>
		<path style="fill-rule:evenodd;clip-rule:evenodd;fill:#497114;" d="M204.65,95.45c0,0.467-0.65,0.85-1.95,1.149
			c-1.334,0.334-2.917,0.5-4.75,0.5c-1.867,0-3.467-0.166-4.8-0.5c-1.301-0.3-1.95-0.683-1.95-1.149s0.649-0.867,1.95-1.2
			c1.333-0.333,2.933-0.5,4.8-0.5c1.866,0,3.45,0.167,4.75,0.5S204.65,94.983,204.65,95.45z"/>
		<path style="fill-rule:evenodd;clip-rule:evenodd;fill:#497114;" d="M162.9,119.05c1.3-0.333,2.883-0.5,4.75-0.5
			c1.866,0,3.449,0.167,4.75,0.5c1.3,0.333,1.949,0.733,1.949,1.2s-0.649,0.85-1.949,1.15c-1.334,0.333-2.917,0.5-4.75,0.5
			c-1.834,0-3.417-0.167-4.75-0.5c-1.334-0.301-2-0.684-2-1.15S161.566,119.383,162.9,119.05z"/>
		<path style="fill-rule:evenodd;clip-rule:evenodd;fill:#497114;" d="M113.25,108.75c0,0.467-0.667,0.867-2,1.2
			c-1.3,0.333-2.884,0.5-4.75,0.5c-1.867,0-3.45-0.167-4.75-0.5s-1.95-0.733-1.95-1.2s0.65-0.85,1.95-1.15
			c1.333-0.333,2.917-0.5,4.75-0.5s3.417,0.167,4.75,0.5C112.583,107.934,113.25,108.316,113.25,108.75z"/>
		<path style="fill-rule:evenodd;clip-rule:evenodd;fill:#497114;" d="M121.45,127.5c0,0.467-0.65,0.85-1.95,1.15
			c-1.333,0.333-2.934,0.5-4.8,0.5c-1.834,0-3.417-0.167-4.75-0.5c-1.3-0.301-1.95-0.684-1.95-1.15s0.65-0.867,1.95-1.2
			s2.883-0.5,4.75-0.5c1.866,0,3.467,0.167,4.8,0.5C120.8,126.633,121.45,127.033,121.45,127.5z"/>
		<path style="fill-rule:evenodd;clip-rule:evenodd;fill:#497114;" d="M65.85,145.95c0,0.467-0.65,0.866-1.95,1.2
			c-1.3,0.333-2.883,0.5-4.75,0.5s-3.467-0.167-4.8-0.5c-1.3-0.334-1.95-0.733-1.95-1.2s0.65-0.851,1.95-1.15
			c1.333-0.333,2.933-0.5,4.8-0.5c1.833,0,3.417,0.167,4.75,0.5C65.2,145.1,65.85,145.483,65.85,145.95z"/>
		<path style="fill-rule:evenodd;clip-rule:evenodd;fill:#497114;" d="M155.35,135c0,0.467-0.649,0.867-1.949,1.2
			c-1.301,0.333-2.884,0.5-4.75,0.5c-1.867,0-3.45-0.167-4.75-0.5c-1.334-0.333-2-0.733-2-1.2c0-0.434,0.666-0.816,2-1.15
			c1.333-0.333,2.916-0.5,4.75-0.5c1.833,0,3.416,0.167,4.75,0.5C154.7,134.15,155.35,134.533,155.35,135z"/>
		<path style="fill-rule:evenodd;clip-rule:evenodd;fill:#497114;" d="M200.8,141.15c0,0.467-0.667,0.866-2,1.199
			c-1.3,0.334-2.883,0.5-4.75,0.5c-1.866,0-3.45-0.166-4.75-0.5c-1.3-0.333-1.95-0.732-1.95-1.199S188,140.3,189.3,140
			c1.333-0.333,2.917-0.5,4.75-0.5s3.417,0.167,4.75,0.5S200.8,140.717,200.8,141.15z"/>
		<path style="fill-rule:evenodd;clip-rule:evenodd;fill:#497114;" d="M74.6,110.2c0,0.467-0.65,0.85-1.95,1.149
			c-1.333,0.334-2.917,0.5-4.75,0.5s-3.417-0.166-4.75-0.5c-1.333-0.3-2-0.683-2-1.149s0.667-0.867,2-1.2
			c1.3-0.333,2.883-0.5,4.75-0.5s3.45,0.167,4.75,0.5C73.95,109.333,74.6,109.733,74.6,110.2z"/>
		<path style="fill-rule:evenodd;clip-rule:evenodd;fill:#497114;" d="M41.9,123.45c0,0.467-0.65,0.866-1.95,1.2
			c-1.3,0.333-2.884,0.5-4.75,0.5c-1.867,0-3.467-0.167-4.8-0.5c-1.3-0.334-1.95-0.733-1.95-1.2s0.65-0.851,1.95-1.15
			c1.333-0.333,2.933-0.5,4.8-0.5c1.833,0,3.417,0.167,4.75,0.5C41.25,122.6,41.9,122.983,41.9,123.45z"/>
	</g>
</g>
</svg>
