<?xml version="1.0" encoding="iso-8859-1"?>
<!-- Generator: Adobe Illustrator 15.1.0, SVG Export Plug-In . SVG Version: 6.00 Build 0)  -->
<!DOCTYPE svg PUBLIC "-//W3C//DTD SVG 1.1//EN" "http://www.w3.org/Graphics/SVG/1.1/DTD/svg11.dtd">
<svg version="1.1" id="FlashAICB" xmlns="http://www.w3.org/2000/svg" xmlns:xlink="http://www.w3.org/1999/xlink" x="0px" y="0px"
	 width="291.25px" height="289.4px" viewBox="0 0 291.25 289.4" style="enable-background:new 0 0 291.25 289.4;"
	 xml:space="preserve">
<g>
	<g>
		<path style="fill-rule:evenodd;clip-rule:evenodd;fill:#351C0A;" d="M245.7,149.25l12.05,5.5l-6.4,3c-4.5,2.233-7.399,3.9-8.699,5
			c-3.567,3.033-7.267,7.316-11.101,12.85c-1.566,2.268-2.133,4.15-1.7,5.65c0.867,2.9,1.301,4.566,1.301,5
			c0,0.467,0.199,4.95,0.6,13.45c0.333,7.467,0.417,13.033,0.25,16.7c-0.2,4.3,0.816,10.482,3.05,18.55
			c1.934,6.933,4.184,13.333,6.75,19.2c1.834,4.267,3.717,10.5,5.65,18.699c0.934,4.101,1.7,7.768,2.3,11l-7.15,0.25
			c-5.399,0.134-9.666,0.2-12.8,0.2c-1.533,0-4.967,0.184-10.3,0.55c-3.866,0.268-7.083,0.233-9.65-0.1c-2.6-0.367-4.933-0.1-7,0.8
			c-4.199,1.867-6.75,2.934-7.649,3.2c-2.733,0.8-4.917,0.85-6.55,0.15c-2.367-1-4.767-1.5-7.2-1.5c-2.8,0-6.566,0.083-11.3,0.25
			c-4.733,0.133-8.517,0.199-11.351,0.199c-2.8,0-7.75-0.05-14.85-0.149c-7.467-0.067-15.083-0.017-22.85,0.149
			c-3.167,0.067-7.434,0.101-12.8,0.101c-0.6,0-2.033,0.267-4.3,0.8c-3,0.5-5.533,0.367-7.6-0.4c-4-1.5-6.716-2.399-8.15-2.699
			c-3.5-0.733-6.617-1.184-9.35-1.351c-1.367-0.066-2.383-0.066-3.05,0c0.533-0.233,1.233-0.733,2.1-1.5
			c1.767-1.566,3.583-3.733,5.45-6.5c1.733-2.6,2.65-4.883,2.75-6.85c0.233-4.134,0.5-6.867,0.8-8.2c0.733-3.467,0.883-10,0.45-19.6
			c-0.6-9.4-0.9-14.7-0.9-15.9c0-1.3-0.4-4.417-1.2-9.35c-1.033-6.2-1.667-10.334-1.9-12.4c-0.367-3.133-2.65-7.65-6.85-13.55
			c-4.767-6.2-7.816-10.267-9.15-12.2c-1.633-2.4-6.566-7.4-14.8-15l-11.8-10.7l4.45-3.1c2.133-1.634,4.75-3.533,7.85-5.7
			c6.2-4.3,11.667-7.767,16.4-10.4c4.267-2.367,9.583-6.917,15.95-13.65c7.667-8.1,12.9-13.267,15.7-15.5
			c3.4-2.934,5.9-5.067,7.5-6.4c2.767-2.333,5.383-4.133,7.85-5.4c6.6-3.4,16.267-5.1,29-5.1c2.533,0,11.816,4.55,27.85,13.65
			c8.2,4.667,17.25,9.883,27.15,15.65c1.833,0.9,5.7,4.1,11.6,9.6c6.767,6.267,11.634,10.466,14.601,12.6
			C230.566,141.566,236.9,145.05,245.7,149.25z"/>
		<path style="fill-rule:evenodd;clip-rule:evenodd;fill:#301A06;" d="M116.2,106.4c1.2,0.867,2.383,2.15,3.55,3.85l2.25,2.25
			l-2.25,6.75l-2.1,1.05c-1.466,0.833-2.383,1.517-2.75,2.05c-0.133,0.233-0.2,0.733-0.2,1.5c0,0.633-0.534,1.466-1.6,2.5
			c-1.767,1.767-3.383,4.283-4.85,7.55l-1.35,3.55l-1.55,2c-1.033,1.5-1.55,2.616-1.55,3.35c0,1.167,0.45,5.15,1.35,11.95h-1.8
			l-1.05-0.2c-0.8-0.167-1.483-0.25-2.05-0.25c-0.9,0-1.933-1.033-3.1-3.1l-0.9-1.75l-4.45-2.25l-1.4,0.85
			c-0.933,0.667-1.5,1.267-1.7,1.8c-0.133,0.467-0.217,1.434-0.25,2.9c-0.167,1.066-0.8,1.15-1.9,0.25
			c-1.2-1.333-1.95-2.167-2.25-2.5c-0.433-0.467-1.183-0.533-2.25-0.2l-6.8,0.75c-3.267,0.333-4.983,1.117-5.15,2.351
			c-0.133,1.066,0.233,1.816,1.1,2.25c0.3,0.166-0.217,0.467-1.55,0.899l-4,1.3l-2.05-0.05c-1.4,0.067-2.2,0.384-2.4,0.95
			c-0.133,0.467,0.017,0.867,0.45,1.2c0.167,0.1-0.133,0.149-0.9,0.149c-0.7,0-1.483-0.199-2.35-0.6
			c-0.767-0.367-1.45-0.467-2.05-0.3s-0.8,0.25-0.6,0.25l-1.2,0.2c-1.767,0.3-3.4,0.449-4.9,0.449L47,159.2l-4.45-4.9
			c-0.566-2.366-0.7-3.983-0.4-4.85c0.267-0.9,21.4-16.434,63.4-46.6C111.517,104.35,115.067,105.533,116.2,106.4z"/>
		<path style="fill-rule:evenodd;clip-rule:evenodd;fill:#301A06;" d="M246.65,145c2.6,2.767,5.816,4.633,9.649,5.6l5,0.601v7.55
			c0,0.467-0.066,1.4-0.2,2.8c-0.166,1.434-0.25,2.717-0.25,3.851c0,1.333-0.5,1.699-1.5,1.1c-1.5-1.167-2.767-2.117-3.8-2.85
			c-0.7-0.5-1.616-1-2.75-1.5c-0.7-0.334-1.717-1.167-3.05-2.5c-1.434-1.434-2.85-1.283-4.25,0.449
			c-0.767,0.967-1.866,2.434-3.3,4.4c-0.733,0.6-1.101,0.684-1.101,0.25c0-1.333-0.366-2.6-1.1-3.8
			c-0.733-1.167-1.05-1.7-0.95-1.601c0.334,0.334,0.351,0.134,0.05-0.6c-0.366-0.9-0.916-1.017-1.649-0.35
			c-0.367,0.333-0.7,0.75-1,1.25c-1.467-0.301-2.95-1.051-4.45-2.25c-0.934-0.934-1.517-1.5-1.75-1.7
			c-0.267-0.233-0.866-0.25-1.8-0.05c-0.9,0.199-1.316,0.699-1.25,1.5c0.033,0.399,0.166,0.783,0.399,1.149
			c-2.966,0-4.899-0.583-5.8-1.75c-0.566-0.967-1.017-1.633-1.35-2c-0.5-0.566-1.517-1.233-3.05-2c-1.167-0.6-1.667-0.883-1.5-0.85
			c0.566,0.133,0.616-0.033,0.149-0.5c-0.434-0.434-1.017-0.583-1.75-0.45c-0.733,0.167-1.333,0.017-1.8-0.45
			c-0.566-0.533-0.967-1.433-1.2-2.7l-0.149-1.699h-3.101c-1.333,0-2.116-0.134-2.35-0.4c-0.2-0.467-0.45-0.934-0.75-1.4
			c-0.367-0.534-1-0.55-1.9-0.05c-0.434,0.267-0.833,0.583-1.2,0.95l-1.35,0.45c-0.5,0.167-0.866-0.283-1.1-1.35
			c-0.4-1.9-0.767-3.233-1.101-4c-0.5-1.167-1.2-1.75-2.1-1.75c-0.867,0-1.351-0.15-1.45-0.45c-0.033-0.133-0.467-0.75-1.3-1.85
			c-0.733-0.933-1.184-2.1-1.351-3.5c-0.133-1.167-0.233-1.633-0.3-1.4c-0.133,0.8-0.383,1.117-0.75,0.95
			c-0.434-0.2-0.866-0.817-1.3-1.85c-0.533-1.3-0.85-2.017-0.95-2.15c-0.166-0.267-0.467-1.017-0.899-2.25
			c-0.434-1.233-0.817-2.1-1.15-2.6c-0.366-0.566-0.467-1.25-0.3-2.05l0.3-1.05l8.45-3.55c5.6-2.967,10.033-5.483,13.3-7.55
			l16.75,15.5C236.95,135.417,244.083,142.233,246.65,145z"/>
		<path style="fill-rule:evenodd;clip-rule:evenodd;fill:#301A06;" d="M116.45,157.65l1.1-8.65l0.9,2.1c0.6,1.634,0.9,3,0.9,4.101
			c0,0.7,0.45,2.5,1.35,5.399c0.867,2.867,1.3,5.2,1.3,7c0,1.9,0.117,3.117,0.35,3.65c0.5,1.167,0.816,2.033,0.95,2.6
			c0.434,1.667,0.767,4.084,1,7.25c0.233,2.834,0.35,5.584,0.35,8.25c0,7.4,0.15,12.434,0.45,15.101c0.2,1.7,0.066,3.6-0.4,5.7
			c-0.267,1.232-0.733,3.033-1.4,5.399c-0.3,1.267,0.5,6.4,2.4,15.4c2.133,10.033,3.267,16.283,3.4,18.75
			c0.2,3.733,0.517,6.433,0.95,8.1c0.233,1.067,1.1,3.55,2.6,7.45c1.067,2.867,1.15,5.583,0.25,8.15
			c-0.466,1.366-1.15,3.083-2.05,5.149c-0.167,1.233-0.067,2.717,0.3,4.45c0.4,1.934,0.6,2.967,0.6,3.1
			c0,0.867-4.283,1.45-12.85,1.75l-3.15,0.051c-2.467,0.066-4.533,0.199-6.2,0.399c-1.167,0.134-2.066,0.15-2.7,0.05
			c-0.367-0.066-1.317,0.067-2.85,0.4c-1.566,0.333-2.683,0.217-3.35-0.35c-0.767-0.667-1.5-1-2.2-1c-1.1,0-2.167-0.367-3.2-1.101
			l-1.2-1.1c1.167-0.9,2.2-1.783,3.1-2.65c0.567-0.566,0.967-1.167,1.2-1.8c0.233-0.733,0.417-1.316,0.55-1.75
			c0.4-1.233,1.434-3.017,3.1-5.35c0.267-0.4,0.967-1.2,2.1-2.4c0.333-0.4,0.683-1.217,1.05-2.45c0.333-1.233,0.534-2.033,0.6-2.399
			c0.133-1.167,0.217-1.851,0.25-2.051c0.133-0.8,0.434-2,0.9-3.6c0.434-1.533,0.733-2.85,0.9-3.95c0.034-0.233,0.3-1.25,0.8-3.05
			c0.333-1.133,0.5-2.934,0.5-5.4c0-2.899,0.467-10.566,1.4-23c0.934-12.1,1.517-18.767,1.75-20c0.434-2.467,0.717-3.949,0.85-4.449
			c0.2-0.733,0.633-1.7,1.3-2.9l0.95-1.55c-0.9-9.167-1.35-14.483-1.35-15.95c-0.033-1.8-0.066-3.184-0.1-4.15
			c-0.033-1.732,0-2.866,0.1-3.399C114.767,169.25,115.583,164.15,116.45,157.65z"/>
		<path style="fill-rule:evenodd;clip-rule:evenodd;fill:#301A06;" d="M158.6,158.75c-0.433,1.934-0.649,3.267-0.649,4
			c0,1.167,0.133,3.967,0.399,8.4l0.7,3.75c0.5,2.866,0.783,5.316,0.851,7.35c0.1,1.633,0.316,3.717,0.649,6.25
			c0.334,2.2,0.5,3.816,0.5,4.85c0,2.4-0.3,7.134-0.899,14.2c-0.134,1.767-0.417,4.533-0.851,8.3c-0.333,3.467-0.5,6.467-0.5,9
			c0,1.2-0.116,4.051-0.35,8.551c-0.134,3.066-0.084,5.316,0.149,6.75c0.267,1.566,0.384,3.166,0.351,4.8
			c-0.033,0.967-0.084,2.399-0.15,4.3c0,0.367,0.967,3.434,2.9,9.2s2.899,10.833,2.899,15.2c0,4.8,0.017,7.467,0.051,8
			c0.033,0.5,0.149,1.383,0.35,2.649c0.2,1.667,0.483,2.684,0.85,3.05c0.019,0.019,0.035,0.035,0.051,0.051H162.8
			c-2.366,0-8.283-0.15-17.75-0.45l3.55-1.3c1.767-0.9,3.101-1.801,4-2.7c1.167-1.134,2.2-2.317,3.101-3.55
			c0.566-0.733,0.983-1.801,1.25-3.2c0.233-1.667,0.416-2.95,0.55-3.851c0.167-1.199,0.15-2.183-0.05-2.949
			c-0.467-1.434-0.967-2.967-1.5-4.601c-0.767-2.433-1.417-5.433-1.95-9c-0.566-3.533-0.733-5.866-0.5-7
			c0.3-1.467,0.45-5.167,0.45-11.1c0-2.367-0.233-5.767-0.7-10.2c-0.3-2.934-0.4-5.55-0.3-7.85c0.066-1.167,0.25-3.134,0.55-5.9
			c0.733-6.566,1.467-11.583,2.2-15.05c0.566-2.667,0.783-5.7,0.649-9.101c-0.3-4-0.517-7.033-0.649-9.1
			c-0.367-5.9,0.116-11.733,1.45-17.5l2.1-6.9L158.6,158.75z"/>
		<path style="fill-rule:evenodd;clip-rule:evenodd;fill:#301A06;" d="M185.55,287.1c-1.497,0.07-2.863,0.17-4.1,0.301
			c0.533-0.134,1.1-0.25,1.7-0.351C184.177,286.915,184.977,286.932,185.55,287.1z M191.65,195.55c0.233-2.2,0.216-4.217-0.051-6.05
			s-0.85-4.1-1.75-6.8c-0.733-2.2-1.017-5.75-0.85-10.65l0.45-6.649l0.899,3.699c0.567,2.601,0.851,4.184,0.851,4.75
			c0,0.467,0.533,1.884,1.6,4.25c1.167,2.601,1.816,4.134,1.95,4.601c0.134,0.566,0.917,2.05,2.35,4.45
			c1.5,2.6,2.483,4.517,2.95,5.75c0.9,2.333,1.45,3.916,1.65,4.75c0.399,1.666,0.6,3.783,0.6,6.35v9.75l0.65,5.15
			c0.434,3.933,0.649,7.1,0.649,9.5c0,2.166,0.301,4.333,0.9,6.5c0.6,2.133,0.9,3.517,0.9,4.149c0,0.333,0.699,2.717,2.1,7.15
			c1.5,4.733,2.434,9.45,2.8,14.149c0.334,4.601,0.65,7.217,0.95,7.851c0.233,0.467,0.35,1.1,0.35,1.899
			c0,1.533,0.517,2.851,1.551,3.95c1.033,1.101,1.55,1.851,1.55,2.25c0,0.967-0.684,2.3-2.05,4c-1.434,1.767-2.667,2.65-3.7,2.65
			c-0.834,0-1.5,0.183-2,0.55c-0.834,0.633-1.5,1.05-2,1.25c-0.733,0.3-1.601,0.717-2.601,1.25c-0.933,0.467-2.133,0.783-3.6,0.95
			c-1.167,0.167-2.2,0.35-3.1,0.55c-0.601,0.066-1.634-0.017-3.101-0.25c-1.138-0.181-2.779-0.248-4.925-0.2
			c-0.765,0.351-1.339,0.417-1.725,0.2c-0.107-0.057-0.225-0.106-0.351-0.15c0.03,0.002,0.063,0.002,0.101,0
			c0.702-0.029,1.36-0.046,1.975-0.05c0.299-0.146,0.624-0.328,0.975-0.55l1.7-1.3l0.45-1.8v-4.851c0-0.533,0.15-1.316,0.45-2.35
			s0.45-2.033,0.45-3c0-1.333-0.017-2.25-0.051-2.75c-0.033-0.533-0.166-1.684-0.399-3.45c-0.167-1.3,0.149-2.45,0.95-3.45
			c0.833-1.066,1.25-1.983,1.25-2.75v-5.35c0-0.5-0.117-1.967-0.351-4.4c-0.2-1.933-0.217-3.417-0.05-4.45
			c0.134-2.133,0.25-3.949,0.35-5.449c0.167-2.867,0.567-5.417,1.2-7.65c0.634-2.3,0.767-4.483,0.4-6.55
			c-0.566-2.134-0.934-3.717-1.101-4.75c-0.899-6.267-1.433-10.05-1.6-11.351C191.483,204.184,191.283,199.083,191.65,195.55z"/>
		<path style="fill-rule:evenodd;clip-rule:evenodd;fill:#301A06;" d="M237.05,257.55c0.2,1.167,0.3,2.4,0.3,3.7
			c0,1.4,0.051,2.316,0.15,2.75c0.134,0.467,0.517,1.617,1.15,3.45c0.533,1.6,0.783,2.583,0.75,2.95L239.1,272.3
			c0,4.733,0.45,8,1.351,9.8c0.566,1.101,0.816,1.717,0.75,1.851c-0.033,0.1-0.134,0.066-0.3-0.101H229.35
			c-0.566,0-0.816-0.05-0.75-0.149c0.2-0.267,0.15-0.583-0.149-0.95c-0.334-0.434-0.351-1.066-0.05-1.9
			c0.566-1.566,0.883-2.482,0.949-2.75c0.167-0.8,0.067-2.1-0.3-3.899c-0.399-2.134-0.6-3.65-0.6-4.55
			c0-1.533,0.017-2.551,0.05-3.051c0.033-0.467,0.167-1.366,0.4-2.699c0.166-1.033,0.133-2.101-0.101-3.2
			c-0.467-2-0.733-3.3-0.8-3.9c-0.134-1.2-0.316-2.183-0.55-2.95c-0.2-0.566-0.3-1.217-0.3-1.949
			c-0.067-1.233-0.117-2.25-0.15-3.051c-0.066-1.433-0.017-3.217,0.15-5.35c0.194-2.271,0.244-5.855,0.149-10.75
			c0.458,1.975,1.892,4.709,4.3,8.2c2.934,4.267,4.4,6.733,4.4,7.399c0,1.434,0.017,2.4,0.05,2.9c0.066,0.633,0.2,1.6,0.4,2.9
			C236.616,255.05,236.816,256.184,237.05,257.55z"/>
		<path style="fill-rule:evenodd;clip-rule:evenodd;fill:#331B09;" d="M159.7,121.05c0.833,1.1,1.3,1.684,1.399,1.75
			c0.434,0.4,1.45,1,3.051,1.8c1.466,0.733,3.383,1.167,5.75,1.3h3.1l4.45,13.75v2.25c0,1,0.149,2.017,0.45,3.05
			c0.066,0.2,0.649,1.983,1.75,5.35c0.767,2.233,1.149,3.967,1.149,5.2c0,0.7-0.083,1.633-0.25,2.8c0,0.733-0.399,2.567-1.2,5.5
			c-0.966,3.467-1.6,6.067-1.899,7.8c-0.367,2.233-0.4,5.268-0.101,9.101c0.134,1.933,0.317,3.633,0.551,5.1l0.449,19.55
			c0.2,6.567,0.084,11.25-0.35,14.051c-0.2,1.566-0.533,3.383-1,5.449c-0.233,2.301-0.9,4.768-2,7.4c-1.134,2.7-2.233,4.367-3.3,5
			c-0.867,0.533-1.233,0.033-1.101-1.5c0.2-2.533,0.267-3.95,0.2-4.25c-0.166-0.833-0.316-1.917-0.45-3.25
			c-0.199-2.033-0.35-3.467-0.449-4.3c-0.134-0.967-0.5-2.217-1.101-3.75c-0.566-1.434-0.934-3.134-1.1-5.101
			c-0.167-2.066-0.217-4.333-0.15-6.8c0.101-4.433,0.15-7.35,0.15-8.75c0-3-0.101-5.55-0.3-7.649
			c-0.301-3.367-0.5-6.134-0.601-8.301c-0.166-3.6-0.649-6.083-1.45-7.449c-1.533-2.134-3.116-4.834-4.75-8.101
			c-2-3.967-2.683-6.383-2.05-7.25c1.066-0.333,1.601-0.866,1.601-1.6c0-1.233-0.567-2.367-1.7-3.4
			c-1.3-1.167-3.101-1.967-5.4-2.399c-1.866-0.334-2.883-0.351-3.05-0.051c-0.333,0.533-0.8,0.851-1.4,0.95
			c-1.066,0.167-1.816,0.583-2.25,1.25c-0.267,0.367-0.699,0.983-1.3,1.851c-0.6,0.6-1.116,1.583-1.55,2.949
			c-0.2,0.667-0.717,2.65-1.55,5.95c-0.567,2.2-1.1,2.867-1.6,2l-0.6-2c-2.967-6.233-4.45-10.383-4.45-12.45
			c0-0.967-0.883-3.5-2.65-7.6c-1.767-4.033-2.633-6.684-2.6-7.95c-0.633-0.866-0.667-1.733-0.1-2.6
			c0.033-0.034,0.667-0.717,1.9-2.05c0.833-0.9,1.25-1.7,1.25-2.4c-0.067-1.267-0.083-2.233-0.05-2.9
			c0.067-1.167,0.367-2.133,0.9-2.9c0.566-0.733,1.5-1.384,2.8-1.95c1.833-0.733,3.417-1.4,4.75-2c1.4-0.633,2.317-1.316,2.75-2.05
			c0.367-0.567,0.934-0.934,1.7-1.1c1.3-0.233,3.7-0.05,7.2,0.55C156.917,119.5,159.1,120.217,159.7,121.05z"/>
		<path style="fill-rule:evenodd;clip-rule:evenodd;fill:#331B09;" d="M140.2,182.7l4.4-4.9l1.8,12.9
			c0.666,4.933,0.883,7.333,0.649,7.2c-0.066-0.033-0.2-0.15-0.399-0.351c-0.167,0-0.25,0.517-0.25,1.55
			c0,1.634-0.051,2.733-0.15,3.301c-0.333,1.666-0.733,4.416-1.2,8.25c-0.533,4.633-0.9,7.133-1.1,7.5
			c-0.133,0.267-0.5,0.866-1.1,1.8c-0.6,1.8-0.883,3.667-0.85,5.6c0,0.733,0.2,3.601,0.6,8.601c0.3,3.366,0.017,6.699-0.85,10
			c-0.467,1.8-1.133,3.8-2,6c-0.3,0.899-0.433,1.267-0.4,1.1c0.133-0.434,0.117-0.5-0.05-0.2c-0.2,0.367-0.95,0.167-2.25-0.6
			c-0.633-0.333-1.95-1.184-3.95-2.55c-0.9-0.601-1.817-2.268-2.75-5c-1-3-2.017-5.018-3.05-6.051c-1.3-1.3-2.05-3.283-2.25-5.949
			c0.034-2.834,0.05-4.7,0.05-5.601c0-0.967-0.184-2.267-0.55-3.899c-0.6-2.5-1.017-4.45-1.25-5.851
			c-0.333-2.167-0.15-3.783,0.55-4.85c1-1.067,1.717-2.117,2.15-3.15c0.467-1.1,0.967-1.95,1.5-2.55c0.5-0.566,0.883-1.2,1.15-1.9
			c0.333-0.767,0.75-1.533,1.25-2.3c0.5-0.7,0.817-1.267,0.95-1.7c0.1-0.333,0.2-1.533,0.3-3.6c0.067-2.167,0.267-3.917,0.6-5.25
			c0.2-0.767,0.75-2.483,1.65-5.15c0.667-1.933,1-3.316,1-4.149L140.2,182.7z"/>
		<path style="fill-rule:evenodd;clip-rule:evenodd;fill:#331B09;" d="M174.8,239.5c0.834-1.233,1.783-0.9,2.851,1
			c1.033,1.8,1.55,3.684,1.55,5.65v7.1c0,1.3-0.351,1.983-1.05,2.05c-0.4,0.033-1.084-0.066-2.051-0.3
			c-1.166,0-2.05-2.367-2.649-7.1c-0.3-2.268-0.417-3.684-0.351-4.25C173.2,242.417,173.767,241.033,174.8,239.5z"/>
		<path style="fill-rule:evenodd;clip-rule:evenodd;fill:#331B09;" d="M142.85,254.15c0.6-1.768,1.233-3.45,1.9-5.051
			c1.333-3.166,2.184-4.3,2.55-3.399c0.267,0.7,0.5,2.533,0.7,5.5c0.233,3.6,0.583,6.649,1.05,9.149
			c0.566,2.934,0.816,5.15,0.75,6.65c-0.033,0.833-0.133,1.717-0.3,2.65c0,0.767-0.8,1.05-2.4,0.85c-1-0.133-2.116-0.417-3.35-0.85
			c-1.033-0.334-2.667-1.95-4.9-4.851c-0.533-0.733-0.15-2.399,1.15-5C141.6,256.934,142.55,255.05,142.85,254.15z"/>
		<path style="fill-rule:evenodd;clip-rule:evenodd;fill:#331B09;" d="M103.8,185.35l0.85,1.25c0.5,0.9,0.667,1.533,0.5,1.9
			c-0.167,0.333-0.383,1.267-0.65,2.8c-0.167,0.867-0.4,2.15-0.7,3.851c-0.2,0.967-0.566,1.55-1.1,1.75
			c-0.367,0.166-1.184,0.316-2.45,0.449c-0.833,0.167-1.083-0.232-0.75-1.199c0.7-2.167,1.1-3.684,1.2-4.551
			c0.2-1.666,0.767-3.199,1.7-4.6L103.8,185.35z"/>
		<path style="fill-rule:evenodd;clip-rule:evenodd;fill:#3A1D0A;" d="M111.55,153.55c1.034-2.3,1.7-3.816,2-4.55l2.25,10.2
			l-0.95,2.3c-0.8,1.833-1.667,3.583-2.6,5.25c-0.933,1.633-1.45,3.184-1.55,4.65c-0.1,0.899-0.184,2.449-0.25,4.649
			c-0.3,2.667-0.75,5.184-1.35,7.55l-0.85-2.25c-0.8-1.933-1.4-3.699-1.8-5.3c-0.2-0.833-0.233-2.366-0.1-4.6
			c0.1-1.9,0.283-3.767,0.55-5.601c0.167-1.133,0.567-2.316,1.2-3.55c0.733-1.467,1.217-2.649,1.45-3.55
			C109.917,157.483,110.583,155.75,111.55,153.55z"/>
		<path style="fill-rule:evenodd;clip-rule:evenodd;fill:#3A1D0A;" d="M104.7,224.85c0.8-2.3,1.617-4.533,2.45-6.699
			c1.6-4.367,2.4-6.268,2.4-5.7c0,0.866-0.15,2.933-0.45,6.2l-0.2,1.75c-0.133,1.5-0.2,2.982-0.2,4.449c0,1.301-0.1,2.2-0.3,2.7
			c-0.267,0.733-0.466,1.617-0.6,2.65c-0.3,2.366-0.3,3.683,0,3.95v6.649c0,1.533-0.316,2.867-0.95,4c-0.4,0.767-1.267,2.101-2.6,4
			c-0.833,1.333-1.316,2.5-1.45,3.5c-0.2,1.3-0.466,2.351-0.8,3.15c-0.533,1.267-1.1,2.116-1.7,2.55
			c-0.378,0.284-1.204,0.867-2.475,1.75c-0.15,0.821-0.225,1.604-0.225,2.35c-0.434,0-0.767-0.083-1-0.25
			c-0.467-0.366-0.133-1.017,1-1.949c0.075-0.052,0.149-0.102,0.225-0.15c0.138-0.798,0.346-1.631,0.625-2.5
			c0.367-1.1,0.483-1.867,0.35-2.3l-0.35-0.351V247.9c0.066-0.801,0.267-1.75,0.6-2.851c0.667-2.233,1.65-4.083,2.95-5.55
			c1.4-1.566,2.167-2.617,2.3-3.15c-0.033-0.699-0.05-1.433-0.05-2.199C104.25,230.017,104.4,226.917,104.7,224.85z"/>
		<path style="fill-rule:evenodd;clip-rule:evenodd;fill:#3A1D0A;" d="M157.5,160.95l0.45,1.8c0.267,1.167-0.483,3.233-2.25,6.2
			l-0.65,1.95c-0.434,1.399-0.649,2.383-0.649,2.949c0,1.768,0.133,3.533,0.399,5.301c0.167,1.066,0.217,2.133,0.15,3.199
			c-0.033,0.601-0.084,1.45-0.15,2.551c0,0.6-0.383,3.55-1.149,8.85c-0.834,5.8-1.334,9.517-1.5,11.15
			c-0.2,2.033-0.467,3.449-0.801,4.25c-0.199,0.399-0.366,0.6-0.5,0.6c-0.6-5.3-0.899-8.85-0.899-10.65
			c0-1.033-0.483-2.433-1.45-4.199c-1.233-2.301-1.934-3.7-2.1-4.2c-0.301-0.9-0.367-2.217-0.2-3.95c0.133-1.733,0.05-3-0.25-3.8
			c-0.4-1.134-0.483-2.917-0.25-5.351c0.233-2.133,0.616-4.133,1.149-6c0.367-1.3,2.25-3.467,5.65-6.5L157.5,160.95z"/>
		<path style="fill-rule:evenodd;clip-rule:evenodd;fill:#3A1D0A;" d="M147.7,220.4l4-2.65l0.899,1.8l-0.449,1.4
			c-0.301,1.1-0.45,2.1-0.45,3v12l-0.2,2.45c-0.3,2.066-0.816,4.199-1.55,6.399c-0.733,2.233-1.4,3.05-2,2.45l-0.65-1.55l-0.45-3.55
			v-5.75C146.85,231.066,147.134,225.733,147.7,220.4z"/>
		<path style="fill-rule:evenodd;clip-rule:evenodd;fill:#3A1D0A;" d="M152.6,269.65l1.65,1.3c1.033,1.1,1.366,2.3,1,3.6
			c-0.566,2.067-1.15,3.684-1.75,4.851l-3.1,3.149c-1.034,1.033-1.601,1.55-1.7,1.55c-0.334,0-1.25,0.518-2.75,1.551
			c-0.595,0.418-1.044,0.743-1.35,0.975c-0.012,0.061-0.02,0.118-0.025,0.175c0.563-0.256,0.722-0.206,0.475,0.15
			c-0.382,0.572-0.54,0.522-0.475-0.15c-0.123,0.05-0.265,0.117-0.425,0.2c-0.159,0.079-0.008-0.046,0.45-0.375
			c0.01-0.115,0.027-0.24,0.05-0.375c0.233-1.2,0.667-2.434,1.3-3.7c0.267-0.5,0.717-1.5,1.35-3c0.367-0.866,0.8-1.649,1.3-2.35
			C149.967,275.434,151.3,272.917,152.6,269.65z"/>
		<path style="fill-rule:evenodd;clip-rule:evenodd;fill:#3A1D0A;" d="M189.45,232.4c0.666-1.334,1.35-2.533,2.05-3.601
			c1.366-2.167,2.15-2.6,2.35-1.3c0.167,1.2,0.217,2.05,0.15,2.55c-0.1,0.9-0.15,1.533-0.15,1.9v11.1c0,0.934-0.267,1.867-0.8,2.8
			c-0.399,0.733-1.467,2.467-3.2,5.2c-1.267,2.167-1.983,4.267-2.149,6.3c-0.101,1.334-0.267,4.101-0.5,8.301
			c-0.367,3.333-0.767,4.866-1.2,4.6c-0.233-0.167-0.417-0.65-0.55-1.45c-0.601-2.667-1.05-5.783-1.351-9.35
			c-0.199-2.233-0.233-3.833-0.1-4.8c0.233-1.067,0.417-2.134,0.55-3.2c0.167-1.2,0.483-2.617,0.95-4.25
			c0.7-2.434,1.116-3.967,1.25-4.601c0.134-0.467,0.583-2,1.35-4.6C188.634,236.167,189.083,234.3,189.45,232.4z"/>
		<path style="fill-rule:evenodd;clip-rule:evenodd;fill:#3A1D0A;" d="M183.2,172.05l5.8-2.649l-0.45,7.1c0,0.767-0.333,2.066-1,3.9
			c-0.8,2.166-1.8,4.267-3,6.3c-0.866,1.5-1.25,2.05-1.149,1.649c0.333-1.1,0.267-1.649-0.2-1.649c-1.134,0-1.417-1.917-0.851-5.75
			C182.616,178.95,182.9,175.983,183.2,172.05z"/>
		<path style="fill-rule:evenodd;clip-rule:evenodd;fill:#3A1D0A;" d="M185.9,139.65l1.85,2.4c1.2,1.833,1.616,3.4,1.25,4.7
			s-0.85,1.833-1.45,1.6c-0.3-0.1-0.566-0.333-0.8-0.699c-0.366-0.301-0.767-0.75-1.2-1.351c-0.899-1.267-1.533-2.733-1.899-4.4
			c-0.367-1.633-0.384-2.45-0.051-2.45C184.4,139.75,185.167,139.816,185.9,139.65z"/>
		<path style="fill-rule:evenodd;clip-rule:evenodd;fill:#3A1D0A;" d="M126.85,144.1c0.9-4.133,1.933-6.934,3.1-8.4
			c1.7,0.3,3.367,0.716,5,1.25c3.267,1.1,4.716,2.3,4.35,3.6l-0.325,1.125c0.047-0.189,0.005-0.114-0.125,0.225
			c-0.2,0.567-1.733,1.35-4.6,2.35c-2.267,0.8-4.583,1.483-6.95,2.05c-1.466,0.367-1.983,0.117-1.55-0.75L126.85,144.1z"/>
	</g>
	<g>
		<path style="fill-rule:evenodd;clip-rule:evenodd;fill:#5B3317;" d="M93.95,11.2c12.466,6.333,18.7,12.066,18.7,17.2
			c0,4.3-0.433,12.95-1.3,25.95c-0.9,13-1.35,20.316-1.35,21.95c0,2.867-0.4,18.917-1.2,48.15c-2.566,1.966-5.066,3.667-7.5,5.1
			c-7.267,4.134-16.883,8.4-28.85,12.8c-1.867,0.7-6.267,2.466-13.2,5.3c-5.4,2.199-9.833,3.85-13.3,4.949
			c-3.733,1.2-8.034,1.851-12.9,1.95c-1.866,0.033-6.233-0.1-13.1-0.399c-5.567-3.867-10.233-8.5-14-13.9
			c-0.634-0.967-1.117-1.833-1.45-2.6l14.1,2.55c0.6,0.9,1.383,1.566,2.35,2c1.9,0.9,3.783,0.233,5.65-2c5.333-6.367,8-11.1,8-14.2
			c0-1.167-1.45-1.983-4.35-2.45c-0.7-0.1-0.867-0.2-0.5-0.3c0.333-0.066,1.95-0.333,4.85-0.8l11.5-1.75
			c0.6,0.133,1.2,0.017,1.8-0.35c1.167-0.733,1.75-2.4,1.75-5c0-1.333,0.333-3.217,1-5.65c0.367-1.3,0.034-2.967-1-5
			c-1.167-2.634-1.966-4.25-2.4-4.85c-0.533-0.7-1.8-1.45-3.8-2.25c-1.467-0.567-3.417-1.267-5.85-2.1
			c-1.567-0.833-1.983-2.2-1.25-4.1c0.566-1.367,2.65-3.333,6.25-5.9c3.5-2.467,5.566-4.633,6.2-6.5c0.367-1.1,0.95-2.066,1.75-2.9
			c0.9-0.733,1.5-1.25,1.8-1.55c0.867-0.9,0.267-2.383-1.8-4.45c-2.8-2.367-4.5-3.833-5.1-4.4c-0.733-0.767-1.1-2.25-1.1-4.45
			c0-1.767-0.767-1-2.3,2.3c-0.533,1.134,0.233-1.417,2.3-7.65c2.066-6.2,4.1-10.75,6.1-13.65c0.5-0.733,0.75-1.3,0.75-1.7
			c0.033-0.433-0.184-1.533-0.65-3.3c-0.966-3.9-1.483-6-1.55-6.3c-0.133-0.8-0.2-2.233-0.2-4.3c0-1.633-0.15-3.333-0.45-5.1
			c-0.3-1.8-0.45-3.066-0.45-3.8V5.35c2.233-0.434,4.784-0.883,7.65-1.35c5.767-0.9,10.317-1.35,13.65-1.35
			c2.066,0,5.45,0.8,10.15,2.4C84.283,6.717,89.15,8.767,93.95,11.2z"/>
		<path style="fill-rule:evenodd;clip-rule:evenodd;fill:#5B3317;" d="M11.5,127.8c3.5,0,5.167,0.85,5,2.55
			c-0.133,1.7-1.8,2.316-5,1.85c-2.867-0.4-4.083-1.233-3.65-2.5C8.25,128.434,9.467,127.8,11.5,127.8z"/>
		<path style="fill-rule:evenodd;clip-rule:evenodd;fill:#5B3317;" d="M0.3,118.05l-0.3-0.9c0.633-0.167,1.217-0.167,1.75,0
			c2.267,0.633,3.267,1.684,3,3.15c-0.267,1.333-1.35,2.417-3.25,3.25C1.133,121.283,0.733,119.45,0.3,118.05z"/>
		<path style="fill-rule:evenodd;clip-rule:evenodd;fill:#5B3317;" d="M34.45,105.85c1.2-0.667,2.133-0.75,2.8-0.25
			c1.867,1.4,2.083,3.433,0.65,6.1c-1.433,2.7-3.433,3.616-6,2.75c-2.5-0.833-2.633-2.8-0.4-5.9
			C32.4,107.35,33.383,106.45,34.45,105.85z"/>
		<path style="fill-rule:evenodd;clip-rule:evenodd;fill:#5B3317;" d="M32.8,63.9c1.467-1.1,3.1,0.2,4.9,3.9
			c0.866,1.833,1.6,3.784,2.2,5.85l-2.75,2c-1.933,0.9-3.083,0.233-3.45-2c-0.067-0.433-0.767-2.383-2.1-5.85
			C31,66.233,31.4,64.934,32.8,63.9z"/>
		<path style="fill-rule:evenodd;clip-rule:evenodd;fill:#5B3317;" d="M39,13.3l2,8.35c0.9,5.767,0.233,9.2-2,10.3
			c-2.333,1.167-4.4,0.917-6.2-0.75c-1-0.967-2.183-2.784-3.55-5.45c-1.3-2.633-1.45-5.15-0.45-7.55
			C30.167,14.934,33.566,13.3,39,13.3z"/>
		<path style="fill-rule:evenodd;clip-rule:evenodd;fill:#532D12;" d="M55.2,58.55c0.233-1.3,0.017-1.7-0.65-1.2
			c-0.2,0.167,0.25-0.75,1.35-2.75l7.95-14l21.3,22.65l-36.2,88.35l-3,1c-3.733,1.2-8.034,1.851-12.9,1.95
			c-1.866,0.033-6.233-0.1-13.1-0.399c-2.434-1.667-4.767-3.584-7-5.75c4.866,0.699,8.7,1.133,11.5,1.3
			c3.933,0.233,6.866,0.033,8.8-0.601c2.8-0.933,4.533-1.633,5.2-2.1c0.333-0.233,1.05-1.1,2.15-2.6c0.8-1.1,1.933-2.2,3.4-3.3
			l1.9-1.35c-0.233-0.533-0.433-1.167-0.6-1.9c-0.333-1.434-0.35-2.567-0.05-3.4c0.233-0.667-0.15-1-1.15-1
			c-0.333,0,0.267-0.333,1.8-1c1.567-0.667,2.667-0.75,3.3-0.25c0.233,0.167,0.683-0.417,1.35-1.75
			c2.134-4.267,3.534-7.517,4.2-9.75c1.633-5.6,2.017-11.667,1.15-18.2c-0.5-3.833-1.25-8.25-2.25-13.25
			c-0.333-1.667-0.25-3.233,0.25-4.7c0.567-1.733,0.983-3.15,1.25-4.25c0.267-1.4,0.517-2.65,0.75-3.75
			c0.267-1.4,0.35-3.933,0.25-7.6L55.9,63.9c-0.233-0.233-0.433-0.617-0.6-1.15C54.967,61.617,54.934,60.217,55.2,58.55z"/>
		<path style="fill-rule:evenodd;clip-rule:evenodd;fill:#351C0A;" d="M99.85,0h42.55l1.45,106.45
			c-8.4,0.466-16.767,3.85-25.1,10.15c-1.933,1.466-4.767,3.716-8.5,6.75c-3.367,2.633-6.35,4.7-8.95,6.2
			c-7.267,4.134-16.883,8.4-28.85,12.8c-1.867,0.7-6.267,2.466-13.2,5.3c-5.4,2.199-9.833,3.85-13.3,4.949
			c-3.733,1.2-8.034,1.851-12.9,1.95c-1.866,0.033-6.233-0.1-13.1-0.399l-1.05-0.7c8.434-0.233,15.25-1.317,20.45-3.25
			c6-2.267,10.183-5.75,12.55-10.45c2.9-5.833,4.833-12.033,5.8-18.6c0.566-3.767,0.85-8.65,0.85-14.65
			c-0.433-7.767-0.816-14.65-1.15-20.65c-0.633-11.567-0.683-21.1-0.15-28.6c0.533-7.767,0.7-18.967,0.5-33.6L57.25,4
			c4.667-0.667,9.934-1.333,15.8-2C84.817,0.667,93.75,0,99.85,0z"/>
		<path style="fill-rule:evenodd;clip-rule:evenodd;fill:#331B09;" d="M53.6,149.9c-3.2,1.199-5.6,2.05-7.2,2.55
			C48,150.417,50.4,149.566,53.6,149.9z"/>
		<path style="fill-rule:evenodd;clip-rule:evenodd;fill:#301A06;" d="M39.35,150.2c6-2.267,10.183-5.75,12.55-10.45
			c3.267-6.5,5.333-13.617,6.2-21.35c5.733,0.434,8.767,0.9,9.1,1.4c1.1,1.833,2.133,4.667,3.1,8.5c1.034,4.2,1.55,8.017,1.55,11.45
			l-0.05,2.85c-1.5,0.566-5.783,2.283-12.85,5.15c-5.233,2.133-9.567,3.75-13,4.85c-3.733,1.2-8.034,1.851-12.9,1.95
			c-1.866,0.033-6.233-0.1-13.1-0.399l-1.05-0.7C27.333,153.217,34.15,152.133,39.35,150.2z"/>
		<path style="fill-rule:evenodd;clip-rule:evenodd;fill:#301A06;" d="M45.95,152.6l-1.05,0.351l-0.55-0.101L84.7,110.7l35.05-0.45
			l1.3,4.7l-2.3,1.65c-1.933,1.466-4.767,3.716-8.5,6.75c-3.367,2.633-6.35,4.7-8.95,6.2c-7.267,4.134-16.883,8.4-28.85,12.8
			c-1.867,0.7-6.267,2.466-13.2,5.3C53.85,149.85,49.417,151.5,45.95,152.6z"/>
		<path style="fill-rule:evenodd;clip-rule:evenodd;fill:#3A1E0B;" d="M120.75,0l0.2,2.7c-0.367,45.366-0.017,72.65,1.05,81.85
			c0.633,5.567,1.017,10.7,1.15,15.4c0.667,3.8,0.867,6.2,0.6,7.2c-0.1,0.534-0.45,1.3-1.05,2.3c-0.2,1.5-0.434,2.517-0.7,3.05
			l-2.9,1.35c-2.133,2.2-4.567,4.316-7.3,6.35c-2.667,1.933-4.667,3.133-6,3.6c-2.066,0.667-8.133,3.3-18.2,7.9
			c-10.233,4.633-16.817,7.767-19.75,9.4c-3,1.633-8.85,3.867-17.55,6.7c-8.733,2.833-13.6,4.067-14.6,3.7l2.4-0.75
			c1.7-0.533,2.5-0.867,2.4-1c5.434-2.3,9.233-5.633,11.4-10c2.9-5.833,4.833-12.033,5.8-18.6c0.566-3.767,0.85-8.65,0.85-14.65
			c-0.433-7.767-0.816-14.65-1.15-20.65c-0.633-11.567-0.683-21.1-0.15-28.6c0.533-7.767,0.7-18.967,0.5-33.6L57.25,4
			c4.667-0.667,9.934-1.333,15.8-2c11.767-1.333,20.7-2,26.8-2H120.75z"/>
		<g>
			<path style="fill-rule:evenodd;clip-rule:evenodd;fill:#351C0A;" d="M120.45,108.25c0.333-0.167,0.55-0.3,0.65-0.4
				c0.1-0.133,0.25-0.434,0.45-0.9c0.367-0.7,0.65-1.233,0.85-1.6c0.333-0.667,0.5-1.317,0.5-1.95c0-0.4,0.083-0.767,0.25-1.1
				c0.167-0.366,0.25-0.667,0.25-0.9c0.467,2.867,0.583,4.784,0.35,5.75c-0.1,0.534-0.45,1.3-1.05,2.3
				c-0.2,1.5-0.434,2.517-0.7,3.05l-2.9,1.35c-2.133,2.2-4.567,4.316-7.3,6.35c-2.667,1.933-4.667,3.133-6,3.6
				c-2.066,0.667-8.133,3.3-18.2,7.9c-10.233,4.633-16.817,7.767-19.75,9.4c-3,1.633-8.85,3.867-17.55,6.7
				c-8.733,2.833-13.6,4.067-14.6,3.7l2.4-0.75c1.7-0.533,2.5-0.867,2.4-1c5.434-2.3,9.233-5.633,11.4-10
				c2.9-5.833,4.833-12.033,5.8-18.6c0.566-3.767,0.85-8.65,0.85-14.65c-0.433-7.767-0.816-14.65-1.15-20.65
				c-0.633-11.567-0.683-21.1-0.15-28.6c0.667-9.434,0.767-23.434,0.3-42l0.1,0.3l0.55,0.85c0.3,0.434,0.483,0.967,0.55,1.6
				c0.067,0.467,0.25,1.017,0.55,1.65c0.233,0.5,0.35,0.983,0.35,1.45c0,0.133-0.05,0.683-0.15,1.65
				c-0.066,0.533-0.017,1.017,0.15,1.45c0.133,0.3,0.517,0.783,1.15,1.45c0.567,0.534,0.85,1,0.85,1.4c0,0.2,0.05,0.6,0.15,1.2
				c0.067,0.367,0.017,0.717-0.15,1.05c-0.3,0.6-0.367,1.55-0.2,2.85l0.9,2.5c0.8,1.667,1.75,2.534,2.85,2.6
				c0.9,0.1,1.267,0.2,1.1,0.3c-0.066,0.034,0.45,0.017,1.55-0.05l3.35-0.25l1.25,0.5c0.633,0.367,0.433,0.65-0.6,0.85
				c-1.633,0.3-3.267,0.966-4.9,2l-0.5,0.3c-0.333,0.267-0.6,0.534-0.8,0.8c-0.5,0.8-0.867,1.466-1.1,2
				c-0.033,0.1-0.65,0.783-1.85,2.05c-1.067,1.167-1.784,2.417-2.15,3.75c-0.366,1.3-0.366,2.467,0,3.5c0.434,1.3,0.65,1.967,0.65,2
				c0,0.467-0.45,0.5-1.35,0.1c-0.267-0.133,0.183,0.283,1.35,1.25c1.2,0.966,2.316,1.867,3.35,2.7c0.434,0.4,0.65,0.75,0.65,1.05
				c0,0.833-0.517,1.65-1.55,2.45c-0.5,0.4-1,1.1-1.5,2.1c-0.466,0.9-0.7,1.534-0.7,1.9L62.4,73c0.633,4.1,0.9,6.467,0.8,7.1
				c-0.067,0.533-0.217,1.05-0.45,1.55c-0.233,0.534-0.383,1.05-0.45,1.55c-0.066,0.633-0.033,1.183,0.1,1.65
				c0.1,0.267,0.3,0.75,0.6,1.45c0.267,0.833,0.483,1.35,0.65,1.55c0.233,0.3,0.6,0.3,1.1,0c0.467-0.267,1.017-0.233,1.65,0.1
				l0.8,0.55l0.55,0.55c0.367,0.4,0.55,0.733,0.55,1c0,0.467-0.517,1.434-1.55,2.9l-0.4,0.55c-0.233,0.467-0.25,0.883-0.05,1.25
				c0.067,0.133,1.184,0.816,3.35,2.05c2.1,1.167,3.284,2.184,3.55,3.05s-0.3,2.167-1.7,3.9c-1.533,1.934-2.3,2.917-2.3,2.95
				c-0.067,0.2-0.417,0.55-1.05,1.05c-0.633,0.467-1.033,1.083-1.2,1.85c-0.1,0.5-0.083,1.216,0.05,2.15
				c0.1,0.7-0.05,1.467-0.45,2.3c-2.167,4.134-2.833,6.717-2,7.75c0.434,0.534,1.017,1.1,1.75,1.7
				c0.434,0.367,1.184,0.983,2.25,1.85c1.733,1.533,3.65,1.966,5.75,1.3c0.733-0.2,1.217-0.533,1.45-1
				c0.067-0.133,0.317-0.017,0.75,0.35c1.1,0.9,1.667,1.35,1.7,1.35c0.5,0.333,1.05,0.4,1.65,0.2c0.433-0.133,0.95-0.9,1.55-2.3
				c0.567-1.4,1.083-2.184,1.55-2.35c0.267-0.066,0.8-0.05,1.6,0.05c0.4,0.066,0.6-0.25,0.6-0.95c0-0.267-0.017-0.983-0.05-2.15
				c-0.033-0.667-0.017-1.133,0.05-1.4c0.3-0.434,0.55-0.784,0.75-1.05c0.333-0.533,0.45-1.066,0.35-1.6
				c-0.133-0.966-0.183-1.917-0.15-2.85c0.1-1.3,0.383-2.05,0.85-2.25c0.566-0.4,0.983-0.684,1.25-0.85
				c0.466-0.233,1.15-0.167,2.05,0.2c1.333,0.434,2.217,0.767,2.65,1c0.667,0.333,1.05,0.884,1.15,1.65c0.134,1.2,0.2,2.167,0.2,2.9
				c0,0.533-0.066,1.15-0.2,1.85c0,0.466,0.367,0.8,1.1,1c0.667,0.333,1.1,0.55,1.3,0.65c0.3,0.133,1.117,0.066,2.45-0.2l3.1-0.45
				c0.5-0.067,0.883-0.284,1.15-0.65l0.65-0.9c1.167-0.433,1.983-0.65,2.45-0.65c0.5,0.066,0.9,0.117,1.2,0.15
				c0.566,0.067,0.983,0.017,1.25-0.15c0.733-0.8,1.433-1.517,2.1-2.15c1.3-1.233,2.45-1.85,3.45-1.85c1.1,0,1.667-0.017,1.7-0.05
				c0.2-0.233,0.517-0.583,0.95-1.05C117.934,110.083,119.117,109.117,120.45,108.25z"/>
			<path style="fill-rule:evenodd;clip-rule:evenodd;fill:#351C0A;" d="M122.45,95.2c0-0.367-0.167-0.7-0.5-1
				c-0.1-0.1,0.066-0.15,0.5-0.15l0.45,0.1c0.1,1.3,0.184,3.233,0.25,5.8C122.684,98.383,122.45,96.8,122.45,95.2z"/>
		</g>
		<path style="fill-rule:evenodd;clip-rule:evenodd;fill:#351C0A;" d="M109.1,9.15l-2.55,0.15c-2.1,0.167-4.133,0.467-6.1,0.9
			c-1.934,0.433-4.5,1.517-7.7,3.25c-1.6,0.9-3.017,1.733-4.25,2.5c3.1-2.8,5.533-4.9,7.3-6.3c1.167-0.933,2.217-1.617,3.15-2.05
			c1.466-0.534,2.867-1.067,4.2-1.6c1.8-0.7,2.934-1.283,3.4-1.75c0.067-0.066,0.7-1.05,1.9-2.95l0.3-0.65H125L125.55,1
			c1.6,1.267,2.55,3.617,2.85,7.05c0,0.134,0,2.784,0,7.95c0.067,12.9,0.267,32.283,0.6,58.15c-1.233,2.267-2.533,4.483-3.9,6.65
			l-2.7,0.15l1.35,11.1l-0.8,1.8c-0.667,1.333-1.284,2.283-1.85,2.85c-0.5,0.466-1.133,0.633-1.9,0.5
			c-1.733-0.333-3.434-0.5-5.1-0.5c-3.767,0-5.533-0.117-5.3-0.35l1.65-1.35l5.65-1.65c-0.033-0.267-0.117-0.534-0.25-0.8
			c-0.267-0.566-0.617-0.85-1.05-0.85c-0.333,0-0.8,0.033-1.4,0.1c-0.7,0-1.683-0.15-2.95-0.45c-1.133-0.233-3.567,0.283-7.3,1.55
			c-3.7,1.267-5.7,1.867-6,1.8c-0.7-0.167,0-1.083,2.1-2.75c2.133-1.667,4.434-3.083,6.9-4.25c3.367-1.567,6.434-3.65,9.2-6.25
			l-0.25,0.05c-4.133,0.267-10.917,2.833-20.35,7.7c-4.7,2.466-9,4.883-12.9,7.25c1.566-1.567,3.45-3.284,5.65-5.15
			c4.434-3.733,8.317-6.366,11.65-7.9c3.333-1.533,6-2.95,8-4.25l1.95-1.5L97.15,80.8c-5,1.3-10.267,3.434-15.8,6.4
			c-2.8,1.466-5.083,2.816-6.85,4.05c0.333-0.7,1.033-1.6,2.1-2.7c2.1-2.167,4.95-4.233,8.55-6.2
			c3.967-2.167,7.883-4.017,11.75-5.55c3.167-1.267,5.917-2.2,8.25-2.8c1.633-0.434,3.017-1,4.15-1.7l1.15-0.95h-6
			c-2.5,0-5.35,0.883-8.55,2.65c-1.633,0.867-3,1.733-4.1,2.6c2.667-2.434,4.884-4.35,6.65-5.75c1.066-0.833,2.85-1.517,5.35-2.05
			c4.233-0.866,6.667-1.4,7.3-1.6c2.233-0.667,3.467-1.65,3.7-2.95l-0.35-1.8l-18.65,3.7c-6.433,1.267-11.933,3.267-16.5,6
			c-2.833,1.7-5.083,3.55-6.75,5.55c2.2-2.967,3.3-4.9,3.3-5.8c0-0.667,1.917-1.917,5.75-3.75c5.267-2.4,9.333-4.3,12.2-5.7
			c3.6-1.733,8.35-3.217,14.25-4.45l7.75-1.3l-7.35,0.55c-4.867,0.333-9.083,0.684-12.65,1.05l6.65-2.1
			c1.4-0.434,2.716-0.65,3.95-0.65c1.833,0.1,3.633,0.15,5.4,0.15c2.2,0,2.75-0.5,1.65-1.5l-2.35-1.5l-1.8-0.35
			c-1.566-0.233-3.183-0.35-4.85-0.35H93.8c-2.466,0-5.533,1.233-9.2,3.7c-1.833,1.2-3.417,2.417-4.75,3.65
			c3.1-3.5,5.533-5.95,7.3-7.35c1.034-0.833,2.417-1.517,4.15-2.05c3.067-0.9,4.8-1.434,5.2-1.6c1.667-0.667,3.8-1.034,6.4-1.1
			c3.067,0.033,5.367,0.05,6.9,0.05c1.934,0,4.284-0.683,7.05-2.05l3.6-2.1l-2-3.5l-4.55-0.05c-3.9,0.033-7.933,0.167-12.1,0.4
			c-4.167,0.2-9.183,0.95-15.05,2.25c-2.967,0.667-5.5,1.3-7.6,1.9c4.467-2.066,8.017-3.8,10.65-5.2c1.6-0.833,3.517-1.6,5.75-2.3
			l6.25-1.9c1.6-0.533,3.45-1.483,5.55-2.85c2.133-1.367,3.833-2.267,5.1-2.7c1.667-0.567,2.966-0.85,3.9-0.85
			c1.167,0.1,2.3,0.15,3.4,0.15c1.567,0,1.267-1.05-0.9-3.15c-2-1.934-4.133-3.5-6.4-4.7c-1.967-1.033-3.083-1.55-3.35-1.55
			c-0.1,0.033-3.267,0.667-9.5,1.9c-5.067,1.033-10.317,3.283-15.75,6.75c-2.733,1.733-4.95,3.367-6.65,4.9
			c0.1-0.433,0.316-0.95,0.65-1.55c0.667-1.233,1.55-2.284,2.65-3.15c1.633-1.3,3.934-2.983,6.9-5.05c3.5-2.433,6.3-4.233,8.4-5.4
			c1.934-1.066,4.733-2.783,8.4-5.15L109.1,9.15z"/>
		<path style="fill-rule:evenodd;clip-rule:evenodd;fill:#351C0A;" d="M64.75,47.25c1.067-0.1,1.583,0.684,1.55,2.35
			c-0.033,1.367-0.25,2.367-0.65,3c-0.466,0.667-1.35,0.583-2.65-0.25c-0.467-0.267-0.617-0.717-0.45-1.35
			c0.3-0.7,0.45-1.2,0.45-1.5c0-0.467,0.167-0.934,0.5-1.4C63.867,47.566,64.283,47.283,64.75,47.25z"/>
		<path style="fill-rule:evenodd;clip-rule:evenodd;fill:#351C0A;" d="M64.3,66.1c0.934-0.2,1.284,0.333,1.05,1.6
			s-0.65,1.85-1.25,1.75c-0.533-0.134-0.767-0.684-0.7-1.65C63.434,66.8,63.733,66.233,64.3,66.1z"/>
		<path style="fill-rule:evenodd;clip-rule:evenodd;fill:#351C0A;" d="M69.2,116.7c1.833,0.333,3.117,1.216,3.85,2.65
			c0.7,1.4,0.6,2.733-0.3,4c-0.733,1-1.433,1.367-2.1,1.1c-0.367-0.134-0.85-0.434-1.45-0.9c-0.4-0.1-0.817-0.366-1.25-0.8
			c-0.267-0.3-0.733-0.917-1.4-1.85c-0.566-0.8-0.517-1.733,0.15-2.8C67.367,117,68.2,116.533,69.2,116.7z"/>
		<path style="fill-rule:evenodd;clip-rule:evenodd;fill:#351C0A;" d="M78.05,122.45c0.8,0,1.3,0.316,1.5,0.95
			c0.167,0.667-0.183,1.1-1.05,1.3c-0.8,0.2-1.217-0.117-1.25-0.95C77.25,122.883,77.517,122.45,78.05,122.45z"/>
		<path style="fill-rule:evenodd;clip-rule:evenodd;fill:#351C0A;" d="M115.1,108.05c-0.633,0.2-1.45,0.117-2.45-0.25
			c-0.4-0.133-0.383-0.483,0.05-1.05c0.433-0.566,1.017-0.8,1.75-0.7c0.7,0.1,1.083,0.434,1.15,1
			C115.667,107.583,115.5,107.917,115.1,108.05z"/>
		<path style="fill-rule:evenodd;clip-rule:evenodd;fill:#301A06;" d="M90.05,117.8l1.35,2.15c0.867,1.566,1.3,2.767,1.3,3.6v0.85
			c-0.067-0.333-0.133-0.383-0.2-0.15c-0.1,0.267-0.133,0.617-0.1,1.05c0.067,0.833,0.1,1.367,0.1,1.6
			c0,0.633-0.017,1.017-0.05,1.15c0,0.034-0.067,0.233-0.2,0.6c-0.133,0.467-0.35,0.85-0.65,1.15l-1.35,1.3l-0.85,0.45
			c-1.8,0.9-3.733,1.5-5.8,1.8c-0.031,0.004-0.064,0.004-0.1,0c-0.464,0.291-0.948,0.575-1.45,0.85c-0.267-0.067-0.4-0.15-0.4-0.25
			c0-0.228,0.617-0.428,1.85-0.6c0.504-0.292,0.987-0.592,1.45-0.9c0.466-0.333,0.833-0.634,1.1-0.9c0.367-0.433,0.733-0.8,1.1-1.1
			l0.9-0.65c0.367-0.267,0.567-0.566,0.6-0.9c-0.033-0.367-0.017-0.667,0.05-0.9c0.1-0.233,0.183-0.617,0.25-1.15
			c0.1-0.633,0.167-1.067,0.2-1.3c0.133-0.466,0.434-1.267,0.9-2.4c0.167-0.433,0.217-0.85,0.15-1.25
			c-0.1-0.733-0.15-1.216-0.15-1.45V117.8z"/>
		<path style="fill-rule:evenodd;clip-rule:evenodd;fill:#301A06;" d="M107.15,120.25l1.3,0.9l0.55,0.6
			c0.267,0.533,0.167,1.217-0.3,2.05c-0.434,0.8-0.767,1.134-1,1c-0.534-0.267-0.867-0.383-1-0.35c-0.767,0.167-1.434,0.1-2-0.2
			c0.433-0.9,0.716-1.566,0.85-2c0.1-0.267,0.317-0.566,0.65-0.9C106.7,120.783,107.017,120.417,107.15,120.25z"/>
		<path style="fill-rule:evenodd;clip-rule:evenodd;fill:#301A06;" d="M67.85,138.9c0.667-0.433,0.767-1.017,0.3-1.75
			c-0.367-0.5-0.383-0.733-0.05-0.7c0.7,0.066,1.2,0.7,1.5,1.9c0.367,1.333,0.6,2.033,0.7,2.1l1.35,0.85l-0.8,0.85
			c-0.7,0.633-1.483,1.2-2.35,1.7l-3.6,1.5c-1.466,0.268-2.55,0.101-3.25-0.5c0.6-1.167,1.483-2.267,2.65-3.3
			C65.5,140.517,66.684,139.633,67.85,138.9z"/>
		<path style="fill-rule:evenodd;clip-rule:evenodd;fill:#5B3317;" d="M22.2,121c-1.167,1.434-2.65,2.15-4.45,2.15v-4
			c0.667,0,1.184-0.35,1.55-1.05c0.333-0.567,0.5-1.167,0.5-1.8c-0.1-0.533-0.15-0.816-0.15-0.85l0.25,0.15v-4
			c1.333,0,2.367,0.566,3.1,1.7c0.533,0.867,0.8,1.867,0.8,3C23.8,118.1,23.267,119.667,22.2,121z"/>
		<path style="fill-rule:evenodd;clip-rule:evenodd;fill:#5B3317;" d="M10.55,104.4l0.55,0.15c0.833,0.134,1.9,0.2,3.2,0.2
			c2.134,0,4.067-0.233,5.8-0.7c1.433-0.4,2.25-0.8,2.45-1.2v-1.1c0.1-0.934,0.083-1.5-0.05-1.7l-0.3-0.1
			c-0.3-0.067-0.684-0.1-1.15-0.1c-1.466,0-3.55,0.35-6.25,1.05c-0.866,0.2-1.767,0.717-2.7,1.55
			C11.267,103.217,10.75,103.867,10.55,104.4z M13.8,97c3.267-0.833,5.8-1.217,7.6-1.15c1.8,0.033,3.15,0.533,4.05,1.5
			c0.9,0.966,1.267,2.517,1.1,4.65l-0.05,0.95c0,2.133-1.55,3.716-4.65,4.75c-2.2,0.7-4.717,1.05-7.55,1.05c-1.4,0-2.7-0.1-3.9-0.3
			c-2.5-0.4-3.8-1.617-3.9-3.65c-0.066-1.6,0.75-3.216,2.45-4.85C10.483,98.417,12.1,97.434,13.8,97z"/>
		<path style="fill-rule:evenodd;clip-rule:evenodd;fill:#5B3317;" d="M28.75,44.5c-0.8,0-1.75,0.6-2.85,1.8
			c-1.133,1.2-1.75,2.333-1.85,3.4c0,0.3,0.05,0.517,0.15,0.65c0.167,0.233,0.533,0.4,1.1,0.5c0.3,0.066,0.717,0.1,1.25,0.1
			c1.733,0,2.85-0.684,3.35-2.05c0.267-0.767,0.317-1.566,0.15-2.4c-0.2-0.833-0.566-1.483-1.1-1.95L28.75,44.5z M33.95,45.55
			c0.366,1.634,0.267,3.217-0.3,4.75c-0.533,1.467-1.433,2.6-2.7,3.4c-1.267,0.833-2.733,1.25-4.4,1.25L24.6,54.8
			c-1.534-0.267-2.7-0.9-3.5-1.9c-0.8-0.966-1.133-2.15-1-3.55c0.167-1.967,1.15-3.917,2.95-5.85c1.867-2,3.767-3,5.7-3
			c1.1,0,2.05,0.35,2.85,1.05C32.767,42.583,33.55,43.917,33.95,45.55z"/>
		<path style="fill-rule:evenodd;clip-rule:evenodd;fill:#5B4636;" d="M18.6,112.5c0.833-0.1,1.45,0.25,1.85,1.05
			c0.366,0.733,0.433,1.634,0.2,2.7c-0.5,2.7-1.917,3.95-4.25,3.75c-2.3-0.2-3-1.45-2.1-3.75
			C15.233,113.983,16.667,112.733,18.6,112.5z"/>
		<path style="fill-rule:evenodd;clip-rule:evenodd;fill:#5B4636;" d="M13.3,97.85c5.2-1.333,8.4-1.45,9.6-0.35
			c0.4,0.4,0.6,1.85,0.6,4.35c0,1.466-1.633,2.55-4.9,3.25c-3,0.667-5.95,0.767-8.85,0.3c-2.434-0.4-2.95-1.65-1.55-3.75
			C9.533,99.65,11.233,98.383,13.3,97.85z"/>
		<path style="fill-rule:evenodd;clip-rule:evenodd;fill:#5B4636;" d="M29.25,41.95c2,1.733,2.5,3.917,1.5,6.55
			c-1.033,2.767-3.3,3.833-6.8,3.2c-1.767-0.3-2.717-1.15-2.85-2.55c-0.167-1.2,0.267-2.55,1.3-4.05c0.967-1.434,2.1-2.5,3.4-3.2
			C27.233,41.167,28.383,41.184,29.25,41.95z"/>
		<path style="fill-rule:evenodd;clip-rule:evenodd;fill:#5B3317;" d="M238.5,4.75l0.35,3.1c0.2,2.333,0.301,4.183,0.301,5.55
			c0,1.133-0.101,2.367-0.301,3.7c-0.233,1.333-0.35,2.55-0.35,3.65c0,1.2,0.333,2.583,1,4.15c0.667,1.534,1,2.583,1,3.15v6
			c0,1.333-0.217,2.884-0.65,4.65l-1.35,4c-0.2,1.333-0.233,2-0.1,2c0.066,0-0.117,0.667-0.551,2c-0.3,0.833-0.933,1.15-1.899,0.95
			c-0.533-0.133-1.3-0.417-2.3-0.85c-1.134-0.433-0.184,1.75,2.85,6.55c3.467,5.5,5.767,10.816,6.9,15.95
			c0.833,3.7,0.983,6.367,0.449,8c-0.1,0.233-0.55,1.367-1.35,3.4c-0.634,1.566-1.083,2.866-1.35,3.9
			c-0.367,1.5-0.551,2.316-0.551,2.45c-0.066,0.367-0.1,1.333-0.1,2.9v9.3c0,0.233-0.2,1.783-0.6,4.65
			c-0.301,2.333-0.317,3.883-0.051,4.65c0.167,0.5,0.834,2.083,2,4.75c1.067,2.5,1.733,4.25,2,5.25
			c0.233,0.9,0.417,2.817,0.551,5.75c0.533,2.767,1.899,4.85,4.1,6.25c3.533,2.2,8.184,3.3,13.95,3.3c0.899,0,1.517-0.5,1.85-1.5
			c0.101-0.333,0.367,0.167,0.8,1.5c0.767,2.3,2.051,4.517,3.851,6.65c2,2.4,3.616,3.3,4.85,2.7c0.566-0.3,1.65-0.534,3.25-0.7
			c1.934-0.2,3.217-0.383,3.851-0.55l0.75,1.5c-1.667,2.5-3.367,4.833-5.101,7c-0.8,1.033-1.717,2.116-2.75,3.25
			c-0.733,0.066-1.467,0.217-2.2,0.45l-1.35,0.399c-2.566,0.134-4.767,0.317-6.6,0.55c-0.867-0.133-1.567-0.199-2.101-0.199
			c-3.967,0.133-8.283-0.351-12.95-1.45c-2.933-0.667-7.116-1.917-12.55-3.75c-9.434-3.2-17.983-5.8-25.649-7.8
			c-4.5-1.133-8.017-2.15-10.551-3.05c-3.733-1.367-6.983-3.034-9.75-5c-1.066-0.733-2.35-1.733-3.85-3l3-93.5L230.4,4.1L238.5,4.75
			z"/>
		<path style="fill-rule:evenodd;clip-rule:evenodd;fill:#5B3317;" d="M276.45,126.55c1.8,0,2.983,1.417,3.55,4.25
			c0.566,2.8-0.4,4.05-2.9,3.75c-1.133-0.133-2.583-1.183-4.35-3.15l-2.3-2.85c0.434-0.333,1.017-0.667,1.75-1
			C273.634,126.883,275.05,126.55,276.45,126.55z"/>
		<path style="fill-rule:evenodd;clip-rule:evenodd;fill:#5B3317;" d="M260.45,129.2c-0.233-0.1-1.783-0.417-4.65-0.95
			c-1.399-0.267-2.5-1.05-3.3-2.35c-1.434-2-2.35-3.4-2.75-4.2c-0.634-1.267-0.384-2.317,0.75-3.15c1.333-1.767,2.3-2.95,2.9-3.55
			c1.033-1.033,2.5-0.733,4.399,0.9c2.467,2.1,4.167,5.067,5.101,8.9C263.833,128.7,263.017,130.167,260.45,129.2z"/>
		<path style="fill-rule:evenodd;clip-rule:evenodd;fill:#5B3317;" d="M248.5,81.95c1.533-1.867,2.866-0.483,4,4.15
			c1.1,4.633,1.1,7.683,0,9.15c-0.866,1.167-1.9,1.417-3.1,0.75c-1.5-1.167-2.7-2.083-3.601-2.75c-1.2-0.9-1.383-2.667-0.55-5.3
			C245.983,85.684,247.066,83.684,248.5,81.95z"/>
		<path style="fill-rule:evenodd;clip-rule:evenodd;fill:#5B3317;" d="M249.15,49.35l0.199,4.5c-0.233,3.1-1.183,4.933-2.85,5.5
			c-1.733,0.566-2.783,0.167-3.15-1.2c-0.133-0.4-0.199-1.783-0.199-4.15C243.15,51.667,245.15,50.117,249.15,49.35z"/>
		<path style="fill-rule:evenodd;clip-rule:evenodd;fill:#532D12;" d="M237.75,137.95c1.4,1.966,3.2,3.267,5.4,3.9l4.649,1.35
			l2-3.35c0.667-0.333,1.45-0.617,2.351-0.85c1.767-0.434,3.199-0.367,4.3,0.2c0.899,0.433,1.6,0.483,2.1,0.15
			c0.167-0.1,0.367,0.283,0.601,1.15l0.649,2.7l-0.399,2.649c0.1,1.768,1.116,2.65,3.05,2.65c4.7,0,10.116-0.283,16.25-0.85
			c-0.934,1.267-1.65,2.199-2.15,2.8c-0.8,1.033-1.717,2.116-2.75,3.25c-0.733,0.066-1.467,0.217-2.2,0.45l-1.35,0.399
			c-2.566,0.134-4.767,0.317-6.6,0.55c-0.867-0.133-1.567-0.199-2.101-0.199c-3.967,0.133-8.283-0.351-12.95-1.45
			c-2.933-0.667-7.116-1.917-12.55-3.75c-9.434-3.2-17.983-5.8-25.649-7.8c-4.534-1.133-8.017-2.15-10.45-3.05
			c-3.7-1.333-6.917-2.95-9.65-4.85c0.267-2.1,0.584-4.133,0.95-6.1c3.033-16.9,6.616-40.95,10.75-72.15l5.25-41.7
			c3.2,0.467,6.467,1.034,9.8,1.7c6.634,1.333,10.233,2.55,10.8,3.65c0.267,0.5,1.217,1.917,2.851,4.25
			c1.2,1.733,1.8,2.983,1.8,3.75c0,0.667,0.066,1.45,0.2,2.35c0,0.7-0.283,1.467-0.851,2.3c-0.166,0.267-0.716,0.717-1.649,1.35
			c-0.601,0.367-1.167,1.467-1.7,3.3c-0.333,1.167-1.384,2.883-3.15,5.15c-1.433,1.833-2.149,3.883-2.149,6.15
			c0,3.533,0,5.316,0,5.35c0.133,0.7,0.8,1.8,2,3.3c0.899,1.133,2.233,2.767,4,4.9c1.333,1.833,2,3.317,2,4.45
			c0,0.9,0.666,5.5,2,13.8c1.066,8.233,1.066,13.167,0,14.8c-0.9,1.333-1.684,1.917-2.351,1.75c-0.233-0.034-0.35,0.716-0.35,2.25
			c0,1.566-0.2,2.533-0.6,2.9c-0.067,0.5,0.583,2.633,1.949,6.4c1.601,4.467,2.584,7.434,2.95,8.9c0.267,1.167,0.4,2.634,0.4,4.4v6
			l0.35,1.4c0.2,1.233,0.3,2.55,0.3,3.95C235.85,134.35,236.483,136.15,237.75,137.95z"/>
		<path style="fill-rule:evenodd;clip-rule:evenodd;fill:#351C0A;" d="M263.65,155.1c-0.867-0.133-1.567-0.199-2.101-0.199
			c-3.967,0.133-8.283-0.351-12.95-1.45c-2.933-0.667-7.116-1.917-12.55-3.75c-9.434-3.2-17.983-5.8-25.649-7.8
			c-4.5-1.133-8.017-2.15-10.551-3.05c-3.733-1.367-6.983-3.034-9.75-5c-2.033-1.434-4.3-3.317-6.8-5.65
			c-0.8-0.733-1.483-1.434-2.05-2.1c-2.267-8.034-10.3-14.067-24.1-18.1c-6-1.733-11.934-2.083-17.8-1.05V0.1h48.45
			c6.101,0,15.033,0.667,26.8,2l15.801,2l-0.5,19.65c-0.233,14.633-0.067,25.833,0.5,33.6c0.533,7.466,0.483,17-0.15,28.6
			c-0.333,6-0.733,12.883-1.2,20.65c0,5.966,0.283,10.833,0.851,14.6c0.966,6.6,2.916,12.816,5.85,18.65
			c2.566,5.2,7.384,8.883,14.45,11.05c5.899,1.866,13.8,2.75,23.7,2.649l-0.101,0.15c-0.733,0.066-1.467,0.217-2.2,0.45l-1.35,0.399
			C267.684,154.684,265.483,154.867,263.65,155.1z"/>
		<path style="fill-rule:evenodd;clip-rule:evenodd;fill:#301A06;" d="M263.65,155.1c-0.867-0.133-1.567-0.199-2.101-0.199
			c-3.967,0.133-8.283-0.351-12.95-1.45c-2.933-0.667-7.116-1.917-12.55-3.75c-9.434-3.2-17.983-5.8-25.649-7.8l-1.9-0.45l0.05-8.9
			c0-1.933-0.583-2.733-1.75-2.4c-1.166,0.3-1.916,1.983-2.25,5.05l-0.45,5c-2.6-0.733-5.05-1.6-7.35-2.6c2-5.7,3.2-9.233,3.6-10.6
			c0.467-1.767,0.983-4.583,1.551-8.45c0.533-3.767,0.267-14.1-0.801-31c-1.233-16.8-1.85-25.983-1.85-27.55
			c0-2.066,10.233-6.267,30.7-12.6c0.1,3.667,0.25,6.983,0.45,9.95c0.533,7.466,0.483,17-0.15,28.6c-0.333,6-0.733,12.883-1.2,20.65
			c0,5.966,0.283,10.833,0.851,14.6c0.966,6.6,2.916,12.816,5.85,18.65c2.566,5.2,7.384,8.883,14.45,11.05
			c5.899,1.866,13.8,2.75,23.7,2.649l-0.101,0.15c-0.733,0.066-1.467,0.217-2.2,0.45l-1.35,0.399
			C267.684,154.684,265.483,154.867,263.65,155.1z"/>
		<path style="fill-rule:evenodd;clip-rule:evenodd;fill:#3A1E0B;" d="M253.25,151.75l-0.1,0.75
			c-7.034-1.767-17.233-4.633-30.601-8.6c-13.7-4.066-24.566-7.45-32.6-10.15c-2.033-1.467-4.25-3.316-6.65-5.55
			c-0.8-0.733-1.483-1.434-2.05-2.1c-1.5-5.367-5.566-9.817-12.2-13.35V1.05c7.066-0.167,12.267-0.25,15.601-0.25L203.1,0.95
			c5.567,0.466,11.784,1.133,18.65,2l8.65,1.15l-0.5,19.65c-0.233,14.633-0.067,25.833,0.5,33.6c0.533,7.466,0.483,17-0.15,28.6
			c-0.333,6-0.733,12.883-1.2,20.65c0,5.966,0.283,10.833,0.851,14.6c0.966,6.6,2.916,12.816,5.85,18.65
			C238.684,145.717,244.517,149.684,253.25,151.75z"/>
		<g>
			<path style="fill-rule:evenodd;clip-rule:evenodd;fill:#351C0A;" d="M253.25,151.75l-0.1,0.75
				c-6.267-1.6-15.367-4.15-27.301-7.65c-12.033-3.534-22.366-6.7-31-9.5l0.601-0.15c1.333-0.367,1.833-0.75,1.5-1.15
				c-0.101-0.1,0.733-0.083,2.5,0.05c1.8,0.167,3.133,0.25,4,0.25c0.3,0,0.75,0.066,1.35,0.2l1.75,0.4l7.55-1.55l2.2,0.25v-3.1
				c-0.133-0.366-0.2-0.733-0.2-1.1c0-0.767,0.367-1.15,1.101-1.15c0.6,0,0.95,0.233,1.05,0.7c0.066,0.133,0.316-0.1,0.75-0.7
				c0.434-0.566,0.6-1.3,0.5-2.2c-0.033-0.3,0.233-0.15,0.8,0.45c0.533,0.534,0.934,1.2,1.2,2c0.2,0.7,0.7,1.367,1.5,2l2.2,1.75
				c0.8,0.167,1.533,0.233,2.2,0.2c1.333-0.066,1.633-0.566,0.899-1.5c-0.8-1.033-1.333-1.85-1.6-2.45
				c-0.134-0.366-0.334-1.183-0.601-2.45c-0.133-0.633-0.283-1.7-0.449-3.2c-0.134-1.233-0.284-2.083-0.45-2.55
				c-0.134-0.367-0.3-1.117-0.5-2.25c-0.233-1.233-0.517-2.417-0.851-3.55c-0.5-1.4-0.8-2.3-0.899-2.7
				c-0.167-0.534-0.15-1.55,0.05-3.05l0.4-3.55c0.166-0.867,0.517-1.417,1.05-1.65c0.2-0.067,0-0.4-0.601-1
				c-0.733-0.733-1.833-1.467-3.3-2.2l-2-0.9l-1.8-3.15c1.8-2.934,3.434-5,4.9-6.2c1.033-0.8,1.683-1.433,1.949-1.9
				c0.167-0.333,0.25-0.883,0.25-1.65c0-0.9,0.301-2.817,0.9-5.75c0.934-4.6,1.45-7.417,1.55-8.45c0.434-4.533-0.383-6.9-2.45-7.1
				c-2.333-0.2-3.666-0.4-4-0.6c-0.267-0.134-0.399-0.667-0.399-1.6c0-0.733-0.066-1.55-0.2-2.45l-0.25-1.1
				c0.3-0.933,0.917-1.833,1.85-2.7c0.834-0.767,1.25-1.35,1.25-1.75c0-0.333,0.667-2.15,2-5.45c1.334-3.333,2-5.5,2-6.5
				c0.067-1.4,0.101-2.35,0.101-2.85c0-0.733-0.184-1.566-0.55-2.5c-0.4-1-0.667-1.85-0.801-2.55c-0.066-0.434-0.1-1.066-0.1-1.9
				c0-0.067,0.05-0.65,0.15-1.75c0.066-0.667,0.017-1.267-0.15-1.8c-0.5-1.466-0.783-2.25-0.85-2.35
				c-0.467-1-1.067-1.684-1.801-2.05c-0.866-0.433-1.466-0.9-1.8-1.4c-0.3-0.434-0.45-1-0.45-1.7c0-0.433-0.383-0.433-1.149,0
				c-0.267,0.134,0.116-0.316,1.149-1.35c1.601-1.6,2.601-2.65,3-3.15c0.434-0.566,0.767-1.283,1-2.15
				c0.134-0.533,0.95-1.1,2.45-1.7c1.467-0.567,2.283-1.333,2.45-2.3l0.9-5.8l0.699,0.3c-0.267,6.9-0.433,14.4-0.5,22.5
				c-0.133,12.267,0.051,21.833,0.551,28.7c0.533,7.466,0.483,17-0.15,28.6c-0.333,6-0.733,12.883-1.2,20.65
				c0,5.966,0.283,10.833,0.851,14.6c0.966,6.6,2.916,12.816,5.85,18.65C238.684,145.717,244.517,149.684,253.25,151.75z"/>
			<path style="fill-rule:evenodd;clip-rule:evenodd;fill:#351C0A;" d="M189.95,133.75c-1.267-0.9-2.75-2.083-4.45-3.55
				c0.366,0.133,1.55,0.667,3.55,1.6c0.867,0.434,1.533,0.534,2,0.3c0.434-0.233,0.483-0.717,0.15-1.45
				c-0.101-0.233,0.283,0.017,1.149,0.75c0.634,0.534,1,1.184,1.101,1.95c0.033,0.4,0.017,0.917-0.05,1.55L189.95,133.75z"/>
		</g>
		<path style="fill-rule:evenodd;clip-rule:evenodd;fill:#351C0A;" d="M193.7,135l1.75,0.2c2.533,0.167,5.267,1.133,8.2,2.9
			L193.7,135z"/>
		<path style="fill-rule:evenodd;clip-rule:evenodd;fill:#351C0A;" d="M175.45,7.95c-0.4-0.067-0.384,0.05,0.05,0.35
			c0.9,0.6,2.483,1.3,4.75,2.1c2.667,0.967,4.783,1.45,6.35,1.45c1.733,0,4.101,0.566,7.101,1.7c2.833,1.1,5.633,2.45,8.399,4.05
			c2.233,1.3,4.983,3.617,8.25,6.95c1.634,1.667,3.034,3.2,4.2,4.6c-1.166-0.867-2.517-1.8-4.05-2.8c-3.033-2-5.384-3.284-7.05-3.85
			c-1.2-0.4-2.351-1.017-3.45-1.85c-0.733-0.533-1.65-0.8-2.75-0.8c-1,0-2.134-0.15-3.4-0.45c-1.233-0.3-2.466-0.45-3.699-0.45
			c-0.9,0-1.483-0.067-1.75-0.2c-0.301-0.167-1.784-0.25-4.45-0.25h-9.8c-1.767,0-4.267,0.15-7.5,0.45
			c4.433,0.9,8.416,1.5,11.949,1.8c2.967,0,4.934,0,5.9,0c1.5,0,2.783,0.434,3.85,1.3c0.934,0.8,2.084,1.884,3.45,3.25l3.2,3.4
			l-3.8-1.6c-2.9-1.1-5.167-1.75-6.8-1.95c-2.667-0.3-4.9-0.45-6.7-0.45c2.967,1.5,5.2,2.55,6.7,3.15
			c2.133,0.566,3.883,1.05,5.25,1.45c2.566,0.767,4.216,1.6,4.949,2.5c0.601,0.767,1.834,1.934,3.7,3.5
			c1.834,1.567,2.967,2.634,3.4,3.2c0.866,1.167,2.05,2.483,3.55,3.95c-4.733-2.367-8.283-4.434-10.65-6.2
			c-1.933-1.434-3.216-2.3-3.85-2.6c-0.866-0.433-2.25-0.75-4.15-0.95c-0.066,0-1.883-0.333-5.449-1
			c-2.101-0.367-4.134-0.467-6.101-0.3c-3.233,0.267-6.184,0.85-8.85,1.75c5.033,1.467,8.866,2.35,11.5,2.65
			c0.866,0.1,2.184,0.017,3.95-0.25c1.267-0.2,2.916,0.034,4.949,0.7c2.767,0.934,5.834,2.3,9.2,4.1c3.533,1.9,5.934,3.5,7.2,4.8
			c1.767,1.767,3.983,4.133,6.65,7.1l-6.65-4c-1.4-0.867-2.434-1.45-3.1-1.75c-1.167-0.533-2.65-0.983-4.45-1.35l-5.75-1.35
			l2.35,1.9c1.767,1.466,3.2,2.75,4.3,3.85c1.767,1.8,3.551,3.733,5.351,5.8l-2.8-1.2c-2.067-0.8-3.65-1.3-4.75-1.5
			c-0.567-0.066-1.25-0.45-2.051-1.15c-0.8-0.667-2.483-1.167-5.05-1.5c-4.434-0.6-8.583-0.9-12.45-0.9
			c3.567,1.2,7.267,2.533,11.101,4c4.5,1.333,8.233,2.466,11.2,3.4c5.566,1.733,10.416,3.867,14.55,6.4l10.2,6.2l-6.9-2.55
			c-4.967-1.8-8.283-2.883-9.95-3.25c-1.066-0.233-2.467-0.466-4.2-0.7c-1.566-0.2-3.433-0.55-5.6-1.05
			c-1.9-0.433-3.65-0.883-5.25-1.35c-1-0.2-2.65-0.2-4.95,0c-2.2,0.2-4.184,0.633-5.95,1.3c-0.899,0.333-1.566,0.65-2,0.95
			c1.2-0.067,2.667-0.067,4.4,0c3.467,0.133,6.583,0.566,9.35,1.3c1.567,0.434,3.634,0.883,6.2,1.35
			c1.2,0.233,2.384,0.683,3.55,1.35c1.034,0.6,2.817,1.517,5.351,2.75c2.1,1.167,3.416,2.316,3.95,3.45
			c0.899,1.767,1.933,3.534,3.1,5.3c-0.667-0.733-1.717-1.617-3.15-2.65c-2.866-2.066-6.25-3.85-10.149-5.35
			c-4.434-1.667-7.483-2.684-9.15-3.05c-1.3-0.3-3.133-0.45-5.5-0.45h-7.5c3.533,1.767,6.334,2.65,8.4,2.65
			c1.6,0,2.883,0.15,3.85,0.45c1.033,0.333,1.967,0.917,2.8,1.75c1.2,1.2,2.534,3.117,4,5.75c-0.666-0.667-1.483-1.316-2.449-1.95
			c-1.934-1.333-3.634-2-5.101-2h-6.2l1.301,1.05c1.399,0.934,3.483,2.05,6.25,3.35c5.699,2.667,9.3,4.417,10.8,5.25
			c4.166,2.4,7.217,4.95,9.149,7.65l4.45,6.2c-1.7-2-3.733-4.067-6.1-6.2c-4.733-4.3-8.767-6.816-12.101-7.55
			c-0.699-0.167-3.116-0.784-7.25-1.85c-1.466-0.367-3.333-0.633-5.6-0.8c-1.934-0.134-3.116-0.317-3.55-0.55
			c-0.167-0.066-0.917-0.033-2.25,0.1c-2.634,0.3-4.55,0.45-5.75,0.45l1.35,1.4c1.601,0.933,4.25,1.5,7.95,1.7
			c3.8,0.2,6.8,0.583,9,1.15c2,0.7,3.45,1.2,4.35,1.5c1.101,0.366,2.467,1.216,4.101,2.55c0.8,0.667,1.5,1.3,2.1,1.9l-4.05-1.85
			c-3.033-1.233-5.384-1.95-7.05-2.15c-2.667-0.3-6.066-0.45-10.2-0.45h-3.55c11.233,5.033,17.733,7.7,19.5,8
			c2.733,0.466,5.25,2.083,7.55,4.85l4,4.9c-0.866-0.733-1.983-1.567-3.35-2.5c-2.733-1.833-5.317-3.217-7.75-4.15
			c-1.9-0.733-3.817-1.6-5.75-2.6c-1.467-0.634-3.384-0.95-5.75-0.95H173.3c1.634,0.233,3.483,0.583,5.55,1.05
			c4.134,0.967,7.301,2.1,9.5,3.4l5.351,3.1l-7.55-0.9c-2.367-0.3-4.134-0.45-5.301-0.45c1.767,0.233,3.917,0.767,6.45,1.6
			c5.101,1.7,9.601,4.117,13.5,7.25c3.867,3.134,7.167,6.817,9.9,11.05c1.366,2.133,2.35,3.933,2.95,5.4
			c-1.267-1.566-2.75-3.25-4.45-5.05c-3.4-3.634-6.2-6.1-8.4-7.4c-2.899-1.9-4.899-3.2-6-3.9c-1.833-1.167-3.833-1.933-6-2.3
			c-3.533-0.6-8.416-1.034-14.649-1.3l0.649,0.75c0.9,0.6,2.467,1.083,4.7,1.45c2.6,0.434,4.634,0.917,6.1,1.45
			c1.367,0.466,2.733,1.167,4.101,2.1c1.767,1.167,4.583,3.833,8.45,8l-1.7-0.95c-1.467-0.667-3.134-1.1-5-1.3
			c-1.467-0.133-3.601-1.083-6.4-2.85s-4.95-2.733-6.45-2.9l-4.449-0.45l2.949,1.8c2.167,1.333,3.7,2.367,4.601,3.1
			c1.133,0.867,1.95,1.434,2.45,1.7c0.533,0.267,1.8,0.733,3.8,1.4c2.166,0.733,4.633,1.716,7.399,2.95
			c3.034,1.4,5.284,2.634,6.75,3.7c1.434,1.033,2.9,2.3,4.4,3.8c3.934,1.934,6.467,3.467,7.6,4.6l2.2,2.25l-6-2.5
			c0.566,0.767,0.95,1.45,1.15,2.05c0.3,0.9,0.666,1.85,1.1,2.85c0.167,0.333,0.101,0.267-0.2-0.2c-0.433-0.567-1.166-1.4-2.199-2.5
			c-1.367-1.434-2.733-2.717-4.101-3.85l-3.5-1.2c-1.467-0.433-3.066-0.983-4.8-1.65c-1.533-0.466-3.483-0.8-5.85-1l-4.551-0.3
			l1.45,0.75l0.25,0.55l9.5,3l-1.6,0.25c-1.533,0.133-3.5,0.2-5.9,0.2h-3.3c-1.667-1.367-3.15-2.667-4.45-3.9
			c-0.8-0.733-1.483-1.434-2.05-2.1c-0.333-1.233-0.85-2.483-1.55-3.75c4.066,0.566,7.483,0.966,10.25,1.2
			c-2.967-0.966-5.417-1.517-7.351-1.65c-0.699-0.066-1.8-0.133-3.3-0.2c-3.633-5.867-11.017-10.434-22.149-13.7
			c-4.867-1.434-9.784-1.917-14.75-1.45l-0.35-0.25l4.7-104.7c3.4,0.066,11.017,0.167,22.85,0.3c9.434,0.1,17.051,0.267,22.851,0.5
			l7.85,0.35c1.233,1.2,2.184,2.2,2.851,3c-0.667-0.733-1.5-1.383-2.5-1.95c-1.567-0.833-3.301-1.25-5.2-1.25H182.6l-8,1.75
			c2.067,0,4.15,0.3,6.25,0.9c1.301,0.366,2.417,1,3.351,1.9c0.5,0.433,0.85,0.833,1.05,1.2h-6.2
			C177.884,8.3,176.684,8.184,175.45,7.95z"/>
		<path style="fill-rule:evenodd;clip-rule:evenodd;fill:#351C0A;" d="M219,115.9c0.667-0.7,1.2,0.034,1.6,2.2
			c0.367,2.133,0.117,3.316-0.75,3.55c-0.899,0.233-1.466-0.45-1.699-2.05C217.884,117.967,218.167,116.733,219,115.9z"/>
		<path style="fill-rule:evenodd;clip-rule:evenodd;fill:#351C0A;" d="M219.45,79.05c0.366,0,0.467,1.05,0.3,3.15
			c-0.134,2.066-0.684,3.1-1.65,3.1c-1.166,0-1.566-1.033-1.199-3.1C217.233,80.1,218.083,79.05,219.45,79.05z"/>
		<path style="fill-rule:evenodd;clip-rule:evenodd;fill:#351C0A;" d="M222.55,70.65l0.851,1.45c0.366,1.033,0.083,1.733-0.851,2.1
			c-1.133,0.466-1.7-0.017-1.7-1.45C220.85,71.35,221.417,70.65,222.55,70.65z"/>
		<path style="fill-rule:evenodd;clip-rule:evenodd;fill:#301A06;" d="M207.45,139.45c0.233,0.267,0.816,0.483,1.75,0.65
			c1.033,0.167,1.934,0.367,2.7,0.6l0.85,0.25c-0.833,0.233-1.5,0.35-2,0.35c-0.467,0.034-1.05,0-1.75-0.1l-3.45-0.55l-4-1.25
			l-1.85-1.3c-0.367-0.367-0.867-0.667-1.5-0.9c-0.2-0.067-0.084-0.15,0.35-0.25c0.467-0.067,1.066-0.1,1.8-0.1
			s1.317-0.034,1.75-0.1l1.351-0.2c0.166,0.434,0.467,0.717,0.899,0.85c0.301,0.167,0.967,0.534,2,1.1
			C206.616,138.667,206.983,138.983,207.45,139.45z"/>
		<path style="fill-rule:evenodd;clip-rule:evenodd;fill:#301A06;" d="M240.95,150.7c-3.267-1.033-6.816-2.067-10.65-3.101
			c-0.899-0.333-1.767-0.633-2.6-0.899c-0.533-0.2-1.066-0.417-1.601-0.65c-0.433-0.2-1.017-0.417-1.75-0.649
			c-0.566-0.2-1.1-0.417-1.6-0.65c-0.9-0.467-1.634-0.983-2.2-1.55l0.45-1.8c0.134-0.433,0.2-0.867,0.2-1.3l-0.05-0.6
			c-0.034-0.233-0.017-0.7,0.05-1.4c0-0.1,0.05-0.8,0.149-2.1c0.034-0.566,0.134-0.983,0.301-1.25l0.449-0.65l0.5,1.6
			c0.4,1.233,0.75,2.167,1.051,2.8c0.133,0.333,0.233,0.783,0.3,1.35c0.033,0.233,0.3,0.6,0.8,1.1c0.467,0.466,0.467,0.716,0,0.75
			c-0.134,0.033,0.316,0.233,1.35,0.6c1.301,0.467,2.617,0.867,3.95,1.2l1.601,0.35l-0.9-2.65l1,0.8c0.733,0.6,1.283,1.133,1.65,1.6
			l0.899,1.15c0.3,0.434,0.55,0.934,0.75,1.5c0.267,0.4,0.9,0.783,1.9,1.15c1.033,0.366,1.967,0.816,2.8,1.35
			c0.434,0.267,0.75,0.483,0.95,0.65l1.95,1.25C243.55,151.316,242.983,151.333,240.95,150.7z"/>
		<path style="fill-rule:evenodd;clip-rule:evenodd;fill:#5B3317;" d="M288.4,108.6c1.133,0.633,1.949,1.517,2.449,2.65
			c0.467,1.066,0.534,2.233,0.2,3.5c-0.366,1.267-1.017,2.333-1.95,3.2c-0.933,0.833-1.949,1.25-3.05,1.25
			c-0.566,0-1.149-0.134-1.75-0.4c-0.967-0.466-1.633-1.267-2-2.4c-0.399-1.133-0.434-2.4-0.1-3.8c0.333-1.367,0.899-2.45,1.7-3.25
			c0.767-0.8,1.666-1.2,2.699-1.2C287.267,108.15,287.866,108.3,288.4,108.6z M287.2,113.65c0.133-0.6-0.05-1.066-0.55-1.4
			c-0.301,0.367-0.517,0.9-0.65,1.6c-0.1,0.667-0.066,1.117,0.1,1.35c0.167-0.067,0.367-0.233,0.601-0.5
			C286.934,114.4,287.1,114.05,287.2,113.65z"/>
		<path style="fill-rule:evenodd;clip-rule:evenodd;fill:#5B3317;" d="M265,70.3c1.667,0.567,3.066,1.983,4.2,4.25
			c1.166,2.233,1.616,4.483,1.35,6.75c-0.2,1.867-0.899,3.4-2.1,4.6c-1.233,1.167-2.816,1.85-4.75,2.05l-1.5,0.1
			c-2.367,0-4.15-0.683-5.351-2.05c-0.866-1-1.366-2.316-1.5-3.95c-0.066-0.866,0-2.183,0.2-3.95l0.15-1.45
			c0-1.8,0.55-3.35,1.649-4.65c1.233-1.467,2.834-2.2,4.801-2.2C262.95,69.8,263.9,69.967,265,70.3z M263.75,74.1
			c-0.6-0.2-1.134-0.3-1.6-0.3c-1,0-1.7,0.467-2.101,1.4c-0.233,0.466-0.35,0.95-0.35,1.45c0,0.3-0.066,0.95-0.2,1.95
			c-0.134,1.233-0.2,2.1-0.2,2.6c0.033,1.033,0.217,1.75,0.55,2.15c0.4,0.466,1.184,0.7,2.351,0.7l1.05-0.05
			c2.033-0.233,3.15-1.283,3.35-3.15c0.134-1.333-0.133-2.75-0.8-4.25C265.134,75.167,264.45,74.333,263.75,74.1z"/>
		<path style="fill-rule:evenodd;clip-rule:evenodd;fill:#5B3317;" d="M249.35,19.2c-0.333,0.3-0.666,0.917-1,1.85
			c-0.399,1.067-0.633,2.15-0.699,3.25c-0.034,1.4,0.116,2.217,0.449,2.45h0.101c0.366,0,0.75-0.333,1.149-1
			c0.434-0.7,0.717-1.55,0.851-2.55c0.133-0.934,0.116-1.767-0.05-2.5C249.983,19.967,249.717,19.467,249.35,19.2z M253.55,18.3
			c0.7,1.534,0.9,3.367,0.601,5.5c-0.301,2.067-1,3.75-2.101,5.05c-1.1,1.267-2.383,1.9-3.85,1.9l-0.45-0.05
			c-1.2-0.1-2.167-0.65-2.9-1.65c-0.866-1.2-1.25-2.85-1.149-4.95c0.1-2.133,0.616-4.083,1.55-5.85c1.066-2.066,2.417-3.1,4.05-3.1
			l1,0.15C251.767,15.733,252.85,16.733,253.55,18.3z"/>
		<path style="fill-rule:evenodd;clip-rule:evenodd;fill:#5B3317;" d="M253.3,30.8c0.101,0.1,0.184,0.15,0.25,0.15l-0.05-4
			c1.167,0,2.116,0.417,2.85,1.25c0.7,0.833,1.051,1.933,1.051,3.3c0,1.3-0.301,2.517-0.9,3.65c-0.9,1.567-2.066,2.35-3.5,2.35v-4
			c-0.113,0-0.205,0.025-0.275,0.075c0.159-0.141,0.301-0.383,0.426-0.725c0.166-0.434,0.25-0.883,0.25-1.35
			C253.4,31.102,253.366,30.869,253.3,30.8z"/>
		<path style="fill-rule:evenodd;clip-rule:evenodd;fill:#5B4636;" d="M286.4,109.25c1.899,1.033,2.366,2.583,1.399,4.65
			c-0.967,2.067-2.166,2.733-3.6,2c-1.334-0.667-1.65-2.15-0.95-4.45C283.983,109.184,285.033,108.45,286.4,109.25z"/>
		<path style="fill-rule:evenodd;clip-rule:evenodd;fill:#5B4636;" d="M263.35,71.1c1,0.333,1.917,1.183,2.75,2.55
			c0.801,1.4,1.284,2.9,1.45,4.5c0.434,4.067-1.267,6.3-5.1,6.7c-3.533,0.367-5.533-0.75-6-3.35c0.166-3.1,0.25-5.1,0.25-6
			c0-1.566,0.533-2.816,1.6-3.75C259.533,70.617,261.217,70.4,263.35,71.1z"/>
		<path style="fill-rule:evenodd;clip-rule:evenodd;fill:#5B4636;" d="M248.7,16.05c2.2,0.667,3.017,2.817,2.45,6.45
			c-0.567,3.633-1.967,5.333-4.2,5.1c-2.134-0.2-2.816-2.3-2.05-6.3C245.667,17.267,246.934,15.517,248.7,16.05z"/>
		<path style="fill-rule:evenodd;clip-rule:evenodd;fill:#5B4636;" d="M251.35,28.05c2.334-0.866,3.334,0.117,3,2.95
			c-0.1,1.066-0.433,1.934-1,2.6c-0.6,0.767-1.267,0.983-2,0.65c-1.433-0.6-2.083-1.7-1.949-3.3
			C249.566,29.417,250.217,28.45,251.35,28.05z"/>
		<path style="fill-rule:evenodd;clip-rule:evenodd;fill:#311A09;" d="M138.8,12.8c0.4-0.4,1.833-0.6,4.3-0.6h11.15
			c0.267,0,1.384-0.25,3.35-0.75c1.167-0.267,2.7-0.017,4.601,0.75c2,0.8,3.934,1.7,5.8,2.7c0.9,0.467,1.616,0.867,2.15,1.2
			l-4.051-0.2c-3.433-0.133-7.033-0.2-10.8-0.2h-9.05c-2,0-5.167,0.066-9.5,0.2s-7.367,0.2-9.1,0.2h-7.4
			c-0.907,0.036-1.74,0.111-2.5,0.225l4.6-1.775c0.833,0.034,3.867,0.284,9.1,0.75c1.466,0.1,3.033-0.15,4.7-0.75
			C137.05,14.217,137.934,13.633,138.8,12.8z M114.4,17.3c0.877-0.449,1.994-0.774,3.35-0.975l-6.55,2.525L114.4,17.3z"/>
		<path style="fill-rule:evenodd;clip-rule:evenodd;fill:#311A09;" d="M152.05,32.9c0.601-0.066,2.75-0.033,6.45,0.1
			c3.767,0.167,5.95,0.316,6.55,0.45c2.767,0.667,5.884,1.3,9.351,1.9l13.8,2.35h-33.45c3.533,0.8,7.083,1.333,10.65,1.6
			c9.333,0.6,14.267,0.934,14.8,1c5.434,0.567,3.333,1.017-6.3,1.35c-9.534,0.3-16.2,0-20-0.9c-1.9-0.434-2.851-0.917-2.851-1.45
			l-2.7,0.9c-0.8,0.733,1.334,1.333,6.4,1.8c4.1,0.4,7.267,0.45,9.5,0.15c0.767-0.066,1.684,0.284,2.75,1.05
			c1.066,0.8,2.517,1.35,4.35,1.65c0.467,0.066,0.65,0.133,0.551,0.2c-0.101,0.034-0.684,0.2-1.75,0.5
			c-2.367,0.667-4.384,1.034-6.051,1.1c-2.3,0.1-6.3-0.133-12-0.7c-9.033-0.9-13.983-1.417-14.85-1.55c-0.7-0.133,0.467-0.3,3.5-0.5
			c1.033-0.066-0.85-0.033-5.65,0.1c-5.8,0.167-10.583,0.483-14.35,0.95c-1.833,0.2-3.417,0.4-4.75,0.6c-1.066,0-3.9,0.267-8.5,0.8
			c0.934-0.534,2.684-1.217,5.25-2.05c2.067-0.7,3.684-1.2,4.85-1.5c0.533-0.133,1-0.2,1.4-0.2c0.133,0,0.2-0.067,0.2-0.2
			c0-0.2-2.25-0.3-6.75-0.3c-4.534,0-7.6,0.1-9.2,0.3c-0.467,0.067-1.583,0-3.35-0.2c-1.066-0.1-2.433,0.233-4.1,1l-4.25,1.95
			c0.534-0.7,1.617-1.433,3.25-2.2c3.267-1.5,7.667-2.333,13.2-2.5c1.667-0.034,2.733-0.2,3.2-0.5c0.9-0.534,3.033-1.15,6.4-1.85
			c3.3-0.667,6.05-1.367,8.25-2.1c1.267-0.434,2.4-0.65,3.4-0.65c0.633,0,2.367-0.267,5.2-0.8c3.066-0.6,6.65-0.983,10.75-1.15
			C148.1,33.3,150.384,33.133,152.05,32.9z"/>
		<path style="fill-rule:evenodd;clip-rule:evenodd;fill:#311A09;" d="M99,80.5c-1.233,0.533-2.583,1.233-4.05,2.1
			c-0.367,0.233-0.534,0.316-0.5,0.25c0.033-0.034,0.316-0.3,0.85-0.8c1-0.933,3.717-2.35,8.15-4.25c4.3-1.866,6.883-2.8,7.75-2.8
			c0.667,0,1.583-0.066,2.75-0.2l1.5-0.2l-4.3-0.35c-3.1-0.2-5.2-0.217-6.3-0.05c-1.767,0.267-3.9,0.4-6.4,0.4
			c0.333,0,1.716-0.383,4.15-1.15c2.967-0.967,6.183-1.75,9.65-2.35c0.9-0.167,2.317-0.25,4.25-0.25
			c2.767,0.033,5.25-0.017,7.45-0.15c2.733-0.167,5.3-0.367,7.7-0.6c3.6-0.367,5.633-0.567,6.1-0.6c1.6-0.133,3.117-0.2,4.55-0.2
			c1.4,0,2.9-0.066,4.5-0.2c2.367-0.2,4.25-0.3,5.65-0.3c1.366,0,3.899,0.1,7.6,0.3c2.5,0.133,3.55-0.05,3.15-0.55
			c-0.134-0.133,1.3,0.184,4.3,0.95c3.767,0.967,7.384,2.316,10.85,4.05l4.051,2.25l-6.65-1.05c-4.8-0.733-8.083-1.167-9.85-1.3
			c-2.834-0.267-6.017-0.4-9.551-0.4l-5.949,0.7c-2.834,0.5-1.384,0.917,4.35,1.25c6.9,0.4,11.967,0.816,15.2,1.25
			c3.233,0.4,5.25,0.9,6.05,1.5c0.533,0.4,2.934,0.75,7.2,1.05c1.033,0.067,1.316,0.117,0.85,0.15c-0.434,0-2.583,0-6.45,0
			c-7.166,0-11.483-0.017-12.949-0.05c-0.4,0-2.983-0.117-7.75-0.35c-2.834-0.133-4.684-0.2-5.551-0.2c-0.899,0-2.767-0.067-5.6-0.2
			c-2.833-0.133-4.717-0.25-5.65-0.35c-0.3-0.033-1.25-0.05-2.85-0.05l-5.4-0.3c-2.133-0.134-5.117-0.034-8.95,0.3
			c-6.367,0.533-12.566,1.05-18.6,1.55c-0.866,0.134-1.616,0.184-2.25,0.15C101.517,79.517,100.5,79.867,99,80.5z"/>
		<path style="fill-rule:evenodd;clip-rule:evenodd;fill:#311A09;" d="M138.3,64.8l-15.4,2.75c1.967-0.7,4.3-1.45,7-2.25
			c5.4-1.566,9.967-2.517,13.7-2.85c3.433-0.3,5.567-0.384,6.4-0.25c2.066,0.333,4.184,0.55,6.35,0.65
			c3.567,0.167,6.467,0.45,8.7,0.85c3.834,0.667,6.066,1.033,6.7,1.1c2.667,0.333,3.917,1.083,3.75,2.25
			c-0.1,0.6-0.467,1.15-1.1,1.65l-4.5-2c-3.367-1.367-5.934-2.134-7.7-2.3c-2.2-0.2-3.617-0.316-4.25-0.35
			c-0.8-0.033-2.75-0.05-5.851-0.05c-1.767,0-3.283,0.066-4.55,0.2c-0.733,0.1-1.883,0.233-3.45,0.4
			C142.367,64.733,140.434,64.8,138.3,64.8z"/>
		<path style="fill-rule:evenodd;clip-rule:evenodd;fill:#311A09;" d="M135.65,97.75c1.167-0.1,3.55-0.4,7.15-0.9
			c3-0.434,5.4-0.65,7.2-0.65h12.2c1.434,0,2.5-0.134,3.2-0.4c0.166-0.066,1.75,0.2,4.75,0.8c2.267,0.433,3.8,0.617,4.6,0.55
			c0.5-0.066,2.684,0.4,6.55,1.4l10.65,2.75h-37.2c-1.134,0-3.483-0.066-7.05-0.2c-3.534-0.133-6.133-0.2-7.8-0.2
			c-6.733,0-10.816,0.133-12.25,0.4c-0.148,0.028-0.315,0.07-0.5,0.125L135.65,97.75z"/>
	</g>
</g>
</svg>
