<?xml version="1.0" encoding="iso-8859-1"?>
<!-- Generator: Adobe Illustrator 15.1.0, SVG Export Plug-In . SVG Version: 6.00 Build 0)  -->
<!DOCTYPE svg PUBLIC "-//W3C//DTD SVG 1.1//EN" "http://www.w3.org/Graphics/SVG/1.1/DTD/svg11.dtd">
<svg version="1.1" id="flash0.ai" xmlns="http://www.w3.org/2000/svg" xmlns:xlink="http://www.w3.org/1999/xlink" x="0px" y="0px"
	 width="110px" height="50px" viewBox="0 0 110 50" style="enable-background:new 0 0 110 50;" xml:space="preserve">
<g>
	<path style="fill-rule:evenodd;clip-rule:evenodd;fill:#40570F;" d="M20.6,11.3c1.1,0.333,1.417,1.25,0.95,2.75
		c-0.233,0.8-0.7,1.867-1.4,3.2l-1.3,3.25c-0.133-0.967-0.517-1.933-1.15-2.9c-0.767-1.133-0.833-2.6-0.2-4.4
		c0.267-0.667,0.7-1.2,1.3-1.6C19.433,11.2,20.033,11.1,20.6,11.3z"/>
	<path style="fill-rule:evenodd;clip-rule:evenodd;fill:#33450C;" d="M19.7,11.9c0.367-0.133,0.7-0.066,1,0.2
		c0.3,0.267,0.483,0.633,0.55,1.1c0.033,0.4-0.067,0.833-0.3,1.3c-0.167,0.3-0.483,0.8-0.95,1.5c-0.467,0.733-0.767,1.5-0.9,2.3
		c-0.167-0.5-0.417-1.066-0.75-1.7c-0.533-1.067-0.617-1.983-0.25-2.75c0.167-0.367,0.483-0.8,0.95-1.3L19.7,11.9z"/>
	<path style="fill-rule:evenodd;clip-rule:evenodd;fill:#4D260C;" d="M25.45,5.1l1.1,2.55c0.667,1.767,0.733,2.75,0.2,2.95
		c-0.467,0.2-1.25,0.316-2.35,0.35c-1.267,0.066-1.933,0.1-2,0.1c-0.8,0.1-1.583,0.867-2.35,2.3c-0.367,0.7-0.733,1.767-1.1,3.2
		c0-0.867,0.133-1.816,0.4-2.85c0.566-2.034,1.5-3.483,2.8-4.35c0.9-0.6,1.6-1.267,2.1-2C24.35,7.217,24.75,6.467,25.45,5.1z"/>
</g>
<path style="fill-rule:evenodd;clip-rule:evenodd;fill:#633A1E;" d="M24.5,12.75c-0.067-2-0.05-6.217,0.05-12.65H35.3
	c0.067,11.533,0.034,18.7-0.1,21.5c-0.333,6.167-0.3,15.667,0.1,28.5H24.55L24.4,40C24.633,25.733,24.667,16.65,24.5,12.75z"/>
<path style="fill-rule:evenodd;clip-rule:evenodd;fill:#633A1E;" d="M76.85,14.75C76.75,12.583,76.866,7.7,77.2,0.1h10.7
	c0,12.5-0.067,19.967-0.2,22.4c-0.134,2.4-0.066,11.6,0.2,27.6H77.2v-7.5C77.033,26.2,76.917,16.917,76.85,14.75z"/>
<path style="fill-rule:evenodd;clip-rule:evenodd;fill:#4D260C;" d="M31,9.1l0.2-9h4c0,10.433,0.033,17.017,0.1,19.75
	c0.067,2.767,0.034,12.85-0.1,30.25h-4c0.033-9.6,0.1-15.933,0.2-19c0.033-1.3-0.033-5.133-0.2-11.5C31.033,13.5,30.967,10,31,9.1z"
	/>
<path style="fill-rule:evenodd;clip-rule:evenodd;fill:#4D260C;" d="M84.1,11.95c0.067-2.733-0.05-6.684-0.35-11.85h3.95v50h-3.95
	c0.333-7.533,0.5-12.3,0.5-14.3C84.083,22.667,84.033,14.717,84.1,11.95z"/>
<path style="fill-rule:evenodd;clip-rule:evenodd;fill:#915A27;" d="M24.05,12.8c0.067-2.5,0.034-6.733-0.1-12.7h3.75
	c-0.133,0.633-0.25,2.017-0.35,4.15C27.15,8.583,27.1,14.6,27.2,22.3c0.133,9.4,0.3,18.667,0.5,27.8h-3.75
	c-0.067-8.366-0.034-14.466,0.1-18.3c0.067-2.133,0.083-5.55,0.05-10.25C24.033,16.683,24.017,13.767,24.05,12.8z"/>
<path style="fill-rule:evenodd;clip-rule:evenodd;fill:#915A27;" d="M76.3,6.45c-0.267-1.767-0.184-3.883,0.25-6.35h3.8
	c0.301,3.433,0.384,9.267,0.25,17.5c-0.1,5.367-0.183,16.2-0.25,32.5h-3.8c-0.033-8.066,0.017-13.399,0.15-16
	c0.066-2.033,0.05-6.85-0.05-14.45C76.55,11.883,76.434,7.483,76.3,6.45z"/>
<g>
	<path style="fill-rule:evenodd;clip-rule:evenodd;fill:#633A1E;" d="M86.5,20.45c0.1,3.767-0.184,8.217-0.85,13.35v-4.35
		c0-0.8-0.167-2.5-0.5-5.1c-0.301-2.333-0.4-4.25-0.301-5.75c0.134-1.934,0.434-2.583,0.9-1.95S86.467,18.55,86.5,20.45z"/>
	<path style="fill-rule:evenodd;clip-rule:evenodd;fill:#633A1E;" d="M85.5,1.45c0.667-0.9,0.884,0.716,0.65,4.85L86,7.1
		C85.934,7.667,85.767,5.783,85.5,1.45z"/>
	<path style="fill-rule:evenodd;clip-rule:evenodd;fill:#633A1E;" d="M34.05,19.6L34,24.45c-0.033,3.434-0.117,5.6-0.25,6.5
		c-0.167,1.434-0.783,3.1-1.85,5L32,34.3c0.033-0.233,0.217-1.2,0.55-2.899C32.85,29.967,33,28.6,33,27.3c0-1.399-0.083-3.4-0.25-6
		l-0.25-3.5l0.5,0.3C33.333,18.333,33.683,18.833,34.05,19.6z"/>
	<path style="fill-rule:evenodd;clip-rule:evenodd;fill:#633A1E;" d="M33.25,44.1l0.2,0.65c0.133,0.667,0.2,1.517,0.2,2.55
		s-0.117,1.733-0.35,2.101c-0.133,0.166-0.267,0.233-0.4,0.199V47.95c-0.033-0.767-0.033-1.434,0-2
		C32.933,44.917,33.05,44.3,33.25,44.1z"/>
	<path style="fill-rule:evenodd;clip-rule:evenodd;fill:#4D260C;" d="M82.1,4.7c0.301,0.133,0.551,0.716,0.75,1.75
		c0.434,1.667,0.517,4.716,0.25,9.15l-0.55,11.85c0.066-3.5,0-6.833-0.2-10c-0.133-2.133-0.316-4.5-0.55-7.1
		c-0.133-1.4-0.2-2.65-0.2-3.75C81.6,5.2,81.767,4.567,82.1,4.7z"/>
	<path style="fill-rule:evenodd;clip-rule:evenodd;fill:#4D260C;" d="M28.6,41.8l-0.1-9.35l1.1-14.15c0.1,5,0.066,9.101-0.1,12.3
		c-0.067,1.534,0.017,4.184,0.25,7.95c0.233,3.267,0.267,5.4,0.1,6.4c-0.233,1.366-0.533,1.517-0.9,0.45
		C28.583,44.333,28.467,43.134,28.6,41.8z"/>
	<path style="fill-rule:evenodd;clip-rule:evenodd;fill:#4D260C;" d="M28.75,1.95c0.467-0.4,0.633,0.133,0.5,1.6
		C29.217,4.417,29.083,6,28.85,8.3c-0.067,2.1-0.267,4.6-0.6,7.5c0-1.667-0.05-3.617-0.15-5.85C28,7.717,28.217,5.05,28.75,1.95z"/>
	<path style="fill-rule:evenodd;clip-rule:evenodd;fill:#633A1E;" d="M26.35,2.95l-0.4,18.35l-0.1-3.35
		c0-5.567-0.133-9.85-0.4-12.85c-0.167-1.967-0.067-3.05,0.3-3.25C26.15,1.617,26.35,1.983,26.35,2.95z"/>
	<path style="fill-rule:evenodd;clip-rule:evenodd;fill:#633A1E;" d="M78.8,21.95V30.6l-0.6-1.649c-0.267-0.7-0.417-2.217-0.45-4.55
		l0.05-3.3L78.8,21.95z"/>
</g>
<g>
	<path style="fill-rule:evenodd;clip-rule:evenodd;fill:#4D260C;" d="M83,18.1c0,0.533-0.134,1.55-0.4,3.05
		c-0.8-0.1-1.783-0.5-2.949-1.2c-0.733-0.467-1.483-1.2-2.25-2.2l-0.9-1.4l0.8-2.6l3.95-1.9l1.55,3.65
		c0.2,0.267,0.283,0.683,0.25,1.25C83.05,17.05,83.033,17.5,83,18.1z"/>
	<path style="fill-rule:evenodd;clip-rule:evenodd;fill:#633A1E;" d="M74.5,10.85l6.75,1v1.8c0.066,0.733,0.1,1.95,0.1,3.65
		L66.7,17.25c-1.533,0-5.101-0.083-10.7-0.25c-5.367-0.167-9.217-0.233-11.55-0.2c-4.267,0.067-8.883,0.083-13.85,0.05
		c-0.133-0.333-0.267-0.867-0.4-1.6c-0.067-0.467-0.083-1.133-0.05-2l0.1-1.15l13-1.7L74.5,10.85z"/>
	<path style="fill-rule:evenodd;clip-rule:evenodd;fill:#4D260C;" d="M81.25,13.65c0.066,0.733,0.1,1.95,0.1,3.65L66.7,17.25
		c-1.533,0-5.101-0.083-10.7-0.25c-5.367-0.167-9.217-0.233-11.55-0.2c-4.267,0.067-8.883,0.083-13.85,0.05l-0.2-0.6h1.2
		c0.9,0.033,3.017-0.1,6.35-0.4c3.7-0.067,6.183-0.067,7.45,0c0.934,0.066,2.233,0.167,3.9,0.3c1.633,0.1,3.65,0.15,6.05,0.15
		c2.167,0,3.584-0.017,4.25-0.05c1.367-0.1,2.434-0.167,3.2-0.2c6.9-0.167,10.983-0.367,12.25-0.6c0.9-0.2,1.084-0.35,0.55-0.45
		c-0.133,0-0.816-0.05-2.05-0.15c-2.899-0.1-3.399-0.15-1.5-0.15c0.033,0,0.517-0.067,1.45-0.2c1-0.133,1.783-0.217,2.35-0.25
		c0.7-0.033,0.801-0.133,0.301-0.3c-0.467-0.167-1.217-0.317-2.25-0.45c-1-0.133-3.767-0.367-8.301-0.7
		c-1.966-0.133-4.1-0.333-6.399-0.6c-2.233-0.233-3.834-0.383-4.8-0.45l1.8-1.15l18.3,0.25l6.75,1V13.65z"/>
	<path style="fill-rule:evenodd;clip-rule:evenodd;fill:#915A27;" d="M76.9,8.75c0.066,0.167,0.267,0.4,0.6,0.7
		c1.333,1.233,2.583,2.033,3.75,2.4c-2.134,0-4.75,0.05-7.85,0.15c-3,0.133-6.551,0.183-10.65,0.15
		c-6.4-0.066-17.233-0.083-32.5-0.05c1.067-0.4,2.05-0.85,2.95-1.35c0.9-0.5,1.633-1.167,2.2-2c7.233-0.133,12.85-0.2,16.85-0.2
		L76.9,8.6V8.75z"/>
	<path style="fill-rule:evenodd;clip-rule:evenodd;fill:#4D260C;" d="M30.25,12.1c1.067-0.4,2.05-0.85,2.95-1.35
		c0.9-0.5,1.633-1.167,2.2-2c0.267,0.433,0.783,0.85,1.55,1.25c0.466,0.233,1.2,0.617,2.2,1.15c1,0.467,1.95,0.783,2.85,0.95H30.25z
		"/>
	<path style="fill-rule:evenodd;clip-rule:evenodd;fill:#B67F38;" d="M64.35,9.85c-3.633,0-6.566-0.033-8.8-0.1
		c-1.566-0.067-3.233-0.067-5,0c-1.6,0.1-2.683,0.2-3.25,0.3c-0.733,0.133-1.133,0.25-1.2,0.35c-0.167,0.133,0.35,0.283,1.55,0.45
		c0.9,0.133,1.85,0.333,2.85,0.6c0.933,0.167,2.3,0.167,4.1,0c2.7-0.267,4.35-0.434,4.95-0.5c1.3-0.1,2.667-0.133,4.101-0.1
		l6.199,0.1c-5.133,0.267-8.783,0.483-10.949,0.65c-3.334,0.267-7.067,0.25-11.2-0.05l-4.55-0.3c-1.5-0.033-2.566-0.017-3.2,0.05
		c-0.6,0.1-0.65,0.05-0.15-0.15c0.467-0.2,1.1-0.316,1.9-0.35c1-0.033,1.566-0.15,1.7-0.35c0.133-0.233-0.4-0.367-1.6-0.4
		c-1.033-0.033-1.833-0.083-2.4-0.15l-0.55-0.15c0.3,0,0.8-0.033,1.5-0.1c0.8-0.1,1.967-0.133,3.5-0.1c1.133,0,2.783-0.066,4.95-0.2
		c1.833-0.167,3.5-0.2,5-0.1c2.7,0.167,5.9,0.183,9.601,0.05L77.3,9.45C70.3,9.817,65.983,9.95,64.35,9.85z"/>
	<path style="fill-rule:evenodd;clip-rule:evenodd;fill:#B67F38;" d="M76.65,10.1c2.267,0.1,2.683,0.35,1.25,0.75L73.6,10.8
		c-0.5,0-1.166,0.067-2,0.2c-0.666,0.1-1.1,0.117-1.3,0.05c-0.5-0.066-0.05-0.25,1.351-0.55C73.116,10.167,74.783,10.033,76.65,10.1
		z"/>
	<path style="fill-rule:evenodd;clip-rule:evenodd;fill:#4D260C;" d="M67.35,14.95L63.6,15c-1.6-0.2-3.183-0.333-4.75-0.4
		c-0.8,0-1.6,0.033-2.399,0.1c-1.033,0.1-2.15,0.15-3.35,0.15c-1.667,0.133-3.733,0.2-6.2,0.2l-9.35-0.3l4.05-0.25
		c1.066-0.1,4.4-0.15,10-0.15l2.05-0.15c1.534-0.1,2.767-0.15,3.7-0.15C58.85,14.05,62.184,14.35,67.35,14.95z"/>
	<path style="fill-rule:evenodd;clip-rule:evenodd;fill:#854E28;" d="M37.7,13.5l6.4-0.45c1.8-0.133,5.033,0.034,9.7,0.5
		c-0.767,0.1-2.25,0.117-4.45,0.05c-2.333-0.033-3.567-0.05-3.7-0.05c-1.033,0-2.217,0.083-3.55,0.25
		c-1.2,0.167-2.417,0.217-3.65,0.15c-1.534-0.1-2.333-0.15-2.4-0.15c-0.6,0.034-1.466,0-2.6-0.1l-1.55-0.1l1.55-0.15
		C34.783,13.383,36.2,13.4,37.7,13.5z"/>
	<path style="fill-rule:evenodd;clip-rule:evenodd;fill:#854E28;" d="M71.3,14.05c0.733-0.033,2.25,0.034,4.55,0.2H74.3
		c-0.3,0-0.967,0.083-2,0.25c-1.066,0.2-1.883,0.3-2.45,0.3c-1.166,0.034-2.416-0.05-3.75-0.25c-0.533-0.066-0.149-0.15,1.15-0.25
		C68.017,14.267,69.366,14.183,71.3,14.05z"/>
</g>
<g>
	<path style="fill-rule:evenodd;clip-rule:evenodd;fill:#4D260C;" d="M76.1,41.4l0.851-2.551L80.9,36.9l1.55,3.699
		c0.166,0.267,0.25,0.667,0.25,1.2c-0.033,0.334-0.066,0.783-0.101,1.351c0,0.566-0.133,1.6-0.399,3.1
		c-0.767-0.1-1.733-0.517-2.9-1.25c-0.733-0.467-1.483-1.2-2.25-2.2L76.1,41.4z"/>
	<path style="fill-rule:evenodd;clip-rule:evenodd;fill:#633A1E;" d="M80.9,36.9l0.05,4.85c-6.867,0.2-12.084,0.3-15.65,0.3
		c-12,0.167-20.15,0.267-24.45,0.3c-4.3,0.067-7.867,0.051-10.7-0.05l-0.3-2.149c-0.067-0.467-0.083-1.117-0.05-1.95l0.1-1.15
		l13-1.7L74.15,35.9L80.9,36.9z"/>
	<path style="fill-rule:evenodd;clip-rule:evenodd;fill:#4D260C;" d="M61.1,36.55l2.2-0.85l10.851,0.2l6.75,1l0.05,4.85
		c-6.867,0.2-12.084,0.3-15.65,0.3c-12,0.167-20.15,0.267-24.45,0.3c-4.3,0.067-7.867,0.051-10.7-0.05L29.9,40.65
		c0.5,0.433,1.15,0.683,1.95,0.75c0.566,0.066,1.85,0.116,3.85,0.149c1.367,0.066,3.716,0.066,7.05,0c3.5-0.066,6.15-0.066,7.95,0
		c2.6,0.101,6.083,0.05,10.45-0.149c4.233-0.167,6.449-0.351,6.649-0.551c0.134-0.133,0.017-0.183-0.35-0.149c-1.134,0-1.8,0-2,0
		l-8.075-0.15H57.9c2.267,0,5.267-0.283,9-0.85c1.333-0.2,2.716-0.25,4.149-0.15c0.834,0.066,2.351,0.2,4.55,0.4
		c1.733,0.066,2.634-0.033,2.7-0.3c0.101-0.233-0.267-0.467-1.1-0.7c-0.267-0.101-0.917-0.217-1.95-0.351
		c-0.934-0.1-1.8-0.316-2.6-0.649C71.816,37.583,70.3,37.3,68.1,37.1C65.2,36.9,62.866,36.717,61.1,36.55z"/>
	<path style="fill-rule:evenodd;clip-rule:evenodd;fill:#915A27;" d="M76.55,33.65V33.8c0.066,0.2,0.267,0.45,0.601,0.75
		c1.333,1.2,2.583,1.983,3.75,2.351c-2.034,0-4.65,0.05-7.851,0.149c-2.967,0.134-6.517,0.167-10.649,0.101
		c-6.434-0.067-17.267-0.101-32.5-0.101c1.033-0.434,2.017-0.899,2.95-1.399c0.9-0.5,1.633-1.167,2.2-2H76.55z"/>
	<path style="fill-rule:evenodd;clip-rule:evenodd;fill:#B67F38;" d="M56.95,34.1c1.833,0,4.733,0.084,8.7,0.25
		c-6.567,0.567-10.634,0.767-12.2,0.601c-3.333-0.367-5.8-0.434-7.4-0.2c-1.167,0.2-2.133,0.35-2.9,0.45
		c-1.4,0.2-2.6,0.283-3.6,0.25c-1.466-0.101-2.417-0.167-2.85-0.2c-0.667-0.033-0.934,0-0.8,0.1c0.934,0.601,2.95,0.817,6.05,0.65
		c1.667-0.066,3.017-0.167,4.05-0.3c0.6-0.066,1.333-0.101,2.2-0.101c1.733,0.067,3.883,0.217,6.45,0.45
		c0.5,0.033,1.817,0.217,3.95,0.55c0.567,0.101,1.801-0.017,3.7-0.35c1.967-0.366,3.7-0.616,5.2-0.75
		c0.866-0.066,2.066-0.15,3.6-0.25c1.733-0.167,3.384-0.233,4.95-0.2c-4.166,0.134-6.95,0.367-8.35,0.7
		c-2.634,0.634-3.983,0.967-4.05,1c-2.2,0.333-4.717,0.316-7.551-0.05c-4.133-0.566-6.35-0.851-6.649-0.851
		c-1.233-0.1-2.434,0.017-3.6,0.351c-1.233,0.366-2.9,0.566-5,0.6c-1.934,0.066-3.45,0-4.55-0.2l-2-0.3c-0.3,0.033-0.433,0-0.4-0.1
		l1.25-1.7l1.9,0.1c1.5,0.067,2.8,0.034,3.9-0.1c4.433-0.5,7.417-0.65,8.95-0.45c0.967,0.134,2.1,0.184,3.4,0.15
		C54.033,34.167,55.25,34.134,56.95,34.1z"/>
	<path style="fill-rule:evenodd;clip-rule:evenodd;fill:#4D260C;" d="M29.9,37.05c1.033-0.434,2.017-0.899,2.95-1.399
		c0.9-0.5,1.633-1.167,2.2-2c0.233,0.433,0.733,0.85,1.5,1.25c0.467,0.233,1.217,0.633,2.25,1.199
		c0.967,0.467,1.917,0.784,2.85,0.95H29.9z"/>
	<path style="fill-rule:evenodd;clip-rule:evenodd;fill:#4D260C;" d="M32.95,39.2l1.45-0.45c1.2-0.333,2.45-0.55,3.75-0.65
		c1.3-0.1,2.317-0.05,3.05,0.15c0.367,0.1,0.6,0.217,0.7,0.35c-0.467,0-0.95,0-1.45,0c-1.034,0.034-1.617,0.084-1.75,0.15
		c-0.167,0.066-0.083,0.167,0.25,0.3c0.4,0.134,0.966,0.233,1.7,0.3c1.1,0.134,3.667,0.084,7.7-0.149
		c1.333,0,4.95-0.117,10.85-0.351c-4.434,0.334-7.7,0.65-9.8,0.95c-1.167,0.167-2.633,0.233-4.4,0.2c-2.267-0.066-3.9-0.066-4.9,0
		C37.6,40.134,35.217,39.866,32.95,39.2z"/>
</g>
<g>
	<path style="fill-rule:evenodd;clip-rule:evenodd;fill:#40570F;" d="M87.35,17.5c0.034-0.233,0.15-0.267,0.351-0.1
		c0.133,0.067,0.25,0.167,0.35,0.3c-0.033-0.1-0.033-0.184,0-0.25c0-0.167,0.101-0.2,0.3-0.1c0.267,0.167,0.284,0.367,0.051,0.6
		l0.149-0.05c0.101-0.033,0.167,0,0.2,0.1c0.033,0.167,0.017,0.367-0.05,0.6l0.149,0.2c0.101,0.2,0.167,0.417,0.2,0.65
		C89.116,19.817,89.066,20,88.9,20l0.35,0.7c0.066,0.2,0.1,0.483,0.1,0.85l0.051,0.8c-0.034,0.3-0.167,0.533-0.4,0.7v0.65l-0.1,0.9
		L89.05,25c0.101,0.233,0.184,0.767,0.25,1.6l0.3,2.851c0.067,0.399-0.033,0.684-0.3,0.85l0.2,0.3c0.134,0.267,0.184,0.5,0.15,0.7
		L89.3,33.8c-0.1,0.367-0.116,0.533-0.05,0.5l0.1,0.8C89.316,35.4,89.1,35.767,88.7,36.2v0.35l-0.15,1.75l0.05,0.45
		c0.034,0.3-0.083,0.7-0.35,1.2l0.1,0.3c0.034,0.233,0.034,0.483,0,0.75c-0.033,0.4-0.149,0.5-0.35,0.3
		c0.033,0.267-0.05,0.483-0.25,0.65c-0.1,0.1-0.25-0.017-0.45-0.351l-0.25-0.5L86.7,41.2c-0.134,0.033-0.233-0.05-0.3-0.25
		L86.3,40.7L86,40.75c-0.1,0.033-0.184-0.167-0.25-0.6L85.7,39.55c-0.167,0.134-0.384,0.066-0.65-0.2
		c-0.133-0.133-0.1-0.3,0.101-0.5c0.1-0.1,0.216-0.183,0.35-0.25c-0.033-0.166-0.033-0.333,0-0.5c0.033-0.1,0.15-0.183,0.35-0.25
		c0.134-0.033,0.25-0.05,0.351-0.05l-0.05-0.5c-0.034-0.2,0.133-0.399,0.5-0.6c0.166-0.066,0.333-0.134,0.5-0.2L87.1,36.25
		c-0.033-0.1,0.084-0.333,0.351-0.7c0.1-0.2,0.217-0.383,0.35-0.55c-0.133,0-0.267-0.134-0.399-0.4
		c-0.101-0.133-0.101-0.366,0-0.699l0.199-0.4l-0.149-0.3c-0.066-0.134-0.066-0.4,0-0.8l0.1-0.551H87.2c-0.167,0-0.233-0.1-0.2-0.3
		l0.1-0.35l-0.55-0.15c-0.233-0.033-0.267-0.267-0.1-0.7l0.3-0.6l-0.4-0.15c-0.199-0.033-0.3-0.166-0.3-0.399V28.85L85.65,29.45
		c-0.2,0.267-0.45,0.45-0.75,0.55l-0.45,0.05c0.033,0.267-0.066,0.45-0.3,0.55l-0.7,0.4c0.066,0.3-0.017,0.616-0.25,0.95
		c-0.2,0.333-0.467,0.267-0.8-0.2c0,0.167-0.067,0.366-0.2,0.6c-0.167,0.267-0.434-0.033-0.8-0.899c0,0.166-0.2,0.184-0.601,0.05
		l-0.55-0.3v-0.45l0.35,0.2c0.233-0.066,0.317-0.267,0.25-0.601c-0.033-0.199,0.233-0.25,0.801-0.149
		c0.267,0.066,0.55,0.149,0.85,0.25c-0.2-0.134-0.3-0.384-0.3-0.75c0-0.233,0.149-0.384,0.45-0.45c0.166-0.033,0.316-0.033,0.449,0
		V28.7c0-0.233,0.2-0.4,0.601-0.5c0.166-0.066,0.35-0.101,0.55-0.101L84,27.75c-0.066-0.167,0.033-0.333,0.3-0.5
		c0.134-0.066,0.267-0.134,0.4-0.2l-0.3-0.8c-0.134-0.333-0.101-0.6,0.1-0.8c0.1-0.101,0.217-0.167,0.35-0.2l-0.449-0.5
		c-0.167-0.2-0.2-0.583-0.101-1.15l0.2-0.75l0.2-0.4c0.066-0.2,0.233-0.317,0.5-0.35c0.133-0.033,0.267-0.05,0.399-0.05l-0.25-0.45
		c-0.1-0.167-0.05-0.367,0.15-0.6c0.1-0.1,0.217-0.2,0.35-0.3l-0.3-0.45c-0.133-0.2-0.017-0.5,0.351-0.9
		c0.199-0.233,0.399-0.434,0.6-0.6l-0.1-0.45C86.366,18.1,86.5,18,86.8,18c0.167,0,0.334,0.017,0.5,0.05L87.35,17.5z"/>
	<path style="fill-rule:evenodd;clip-rule:evenodd;fill:#4E6912;" d="M87.35,17.5c0.034-0.233,0.15-0.267,0.351-0.1
		c0.133,0.067,0.25,0.167,0.35,0.3L88,17.45l0.3,0.45c0.101,0.167,0.15,0.434,0.15,0.8l-0.05,0.4c-0.067,0.233-0.2,0.233-0.4,0
		l0.15,0.75c0.033,0.433-0.101,0.717-0.4,0.85c0.066,0.533,0.017,0.983-0.15,1.35C87.434,22.417,87.233,22.4,87,22l-0.25,0.95
		c-0.134,0.433-0.417,0.65-0.85,0.65c-0.067,0.1-0.134,0.217-0.2,0.35c-0.134,0.233-0.217,0.45-0.25,0.65l-0.101,1.05L85,25.95
		c-0.134,0.133-0.184,0.434-0.15,0.899c0.034,0.233,0.084,0.45,0.15,0.65l-0.35,0.35c-0.134,0.134-0.2,0.284-0.2,0.45
		c0,0.101,0.017,0.184,0.05,0.25c-0.2,0-0.417,0.05-0.65,0.15c-0.166,0.066-0.233,0.166-0.199,0.3c0,0.066,0.017,0.134,0.05,0.2
		l-0.3,0.149L83.05,29.6c-0.1,0.034-0.233,0.2-0.399,0.5c-0.101,0.167-0.101,0.367,0,0.601c0.033,0.133,0.083,0.233,0.149,0.3
		c-0.1-0.066-0.3-0.116-0.6-0.15c-0.2,0-0.351,0.051-0.45,0.15l-0.1,0.1H81.2C81.1,31.066,80.9,31.167,80.6,31.4l-0.35-0.2v-0.45
		l0.35,0.2c0.233-0.066,0.317-0.267,0.25-0.601c-0.033-0.199,0.233-0.25,0.801-0.149c0.267,0.066,0.55,0.149,0.85,0.25
		c-0.2-0.134-0.3-0.384-0.3-0.75c0-0.233,0.149-0.384,0.45-0.45c0.166-0.033,0.316-0.033,0.449,0V28.7c0-0.233,0.2-0.4,0.601-0.5
		c0.166-0.066,0.35-0.101,0.55-0.101L84,27.75c-0.066-0.167,0.033-0.333,0.3-0.5c0.134-0.066,0.267-0.134,0.4-0.2l-0.3-0.8
		c-0.134-0.333-0.101-0.6,0.1-0.8c0.1-0.101,0.217-0.167,0.35-0.2l-0.449-0.5c-0.167-0.2-0.2-0.583-0.101-1.15l0.2-0.75l0.2-0.4
		c0.066-0.2,0.233-0.317,0.5-0.35c0.133-0.033,0.267-0.05,0.399-0.05l-0.25-0.45c-0.1-0.167-0.05-0.367,0.15-0.6
		c0.1-0.1,0.217-0.2,0.35-0.3l-0.3-0.45c-0.133-0.2-0.017-0.5,0.351-0.9c0.199-0.233,0.399-0.434,0.6-0.6l-0.1-0.45
		C86.366,18.1,86.5,18,86.8,18c0.167,0,0.334,0.017,0.5,0.05L87.35,17.5z"/>
	<path style="fill-rule:evenodd;clip-rule:evenodd;fill:#708936;" d="M86,18.55l0.25-0.15c-0.066-0.033-0.116-0.083-0.15-0.15
		c-0.066-0.1-0.033-0.167,0.101-0.2c0.2-0.033,0.3,0.117,0.3,0.45l0.1-0.3c0.101-0.167,0.184-0.167,0.25,0
		c0.167,0.267,0.167,0.5,0,0.7l0.25-0.15c0.167-0.067,0.267-0.033,0.301,0.1c0.066,0.233-0.067,0.4-0.4,0.5l0.25,0.05
		c0.167,0.1,0.233,0.25,0.2,0.45c0,0.2-0.084,0.333-0.25,0.4c-0.2,0.067-0.316,0.1-0.351,0.1c0,0.033,0.034,0.066,0.101,0.1
		c0.133,0.1,0.217,0.25,0.25,0.45c0.066,0.4-0.167,0.567-0.7,0.5l0.25,0.4c0,0.133-0.283,0.25-0.85,0.35
		c0.267,0.3,0.333,0.55,0.199,0.75c-0.133,0.2-0.35,0.184-0.649-0.05c0.133,0.167,0.133,0.383,0,0.65
		c-0.101,0.133-0.2,0.217-0.3,0.25L85.05,23.7l-0.1,0.8c-0.101,0.4-0.217,0.383-0.351-0.05c0,0.167-0.083,0.35-0.25,0.55
		c-0.1,0.134-0.133,0.033-0.1-0.3l0.05-0.55c-0.1,0.033-0.217-0.017-0.35-0.15c-0.066-0.067,0-0.183,0.2-0.35
		c0.093-0.093,0.201-0.168,0.324-0.225c-0.098,0.03-0.223-0.062-0.375-0.275c-0.133-0.133-0.066-0.25,0.2-0.35
		c0.134-0.066,0.267-0.117,0.4-0.15l-0.351-0.2c-0.133-0.067,0-0.167,0.4-0.3c0.193-0.064,0.401-0.131,0.625-0.2
		c-0.062,0.01-0.137-0.073-0.225-0.25c-0.034-0.133,0.083-0.233,0.35-0.3c0.104-0.026,0.204-0.051,0.3-0.075
		c-0.149,0.017-0.35-0.058-0.6-0.225c-0.2-0.1-0.117-0.25,0.25-0.45c0.141-0.07,0.282-0.137,0.425-0.2
		c-0.159,0.037-0.368,0.02-0.625-0.05c-0.233-0.033-0.2-0.167,0.1-0.4c0.138-0.082,0.287-0.166,0.45-0.25
		c-0.102,0.018-0.235-0.032-0.399-0.15c-0.167-0.133-0.051-0.3,0.35-0.5c0.167-0.1,0.366-0.2,0.6-0.3
		c-0.066,0-0.149-0.017-0.25-0.05C85.967,18.683,85.934,18.617,86,18.55z"/>
	<path style="fill-rule:evenodd;clip-rule:evenodd;fill:#708936;" d="M87.2,16.95l0.25,0.15c0-0.1,0.017-0.184,0.05-0.25
		c0.033-0.167,0.083-0.184,0.15-0.05c0.133,0.2,0.149,0.333,0.05,0.4l0.2-0.1c0.133-0.033,0.233,0.05,0.3,0.25
		c0.133,0.267,0.083,0.383-0.15,0.35c0.134,0.1,0.134,0.3,0,0.6c-0.1,0.167-0.166,0.167-0.2,0v-0.35l-0.25,0.2
		c-0.066,0.1-0.116,0.083-0.149-0.05v-0.25c-0.134,0.066-0.3,0.017-0.5-0.15c-0.134-0.1-0.117-0.167,0.05-0.2c0.1,0,0.217,0,0.35,0
		c-0.066-0.033-0.116-0.083-0.149-0.15C87.1,17.217,87.1,17.083,87.2,16.95z"/>
	<path style="fill-rule:evenodd;clip-rule:evenodd;fill:#708936;" d="M80.6,29.8L80.7,29.65c0.1-0.101,0.166-0.084,0.2,0.05
		L81.1,30.1L81.2,30c0.1-0.033,0.184,0.05,0.25,0.25h0.35c0.267,0.066,0.434,0.167,0.5,0.3c0.134,0.233-0.1,0.217-0.7-0.05
		c0.267,0.134,0.301,0.25,0.101,0.35L81.1,30.8L80.9,31.1c-0.067,0.101-0.134,0.084-0.2-0.05l-0.05-0.25
		c-0.134,0.066-0.267,0.05-0.4-0.05c-0.066-0.066-0.017-0.15,0.15-0.25c0.1-0.066,0.199-0.116,0.3-0.15l-0.25-0.399L80.6,29.8z"/>
	<path style="fill-rule:evenodd;clip-rule:evenodd;fill:#4E6912;" d="M87.95,25.85l0.25-0.1c0.166-0.033,0.267,0.017,0.3,0.15
		c0.031,0.217-0.086,0.417-0.35,0.6l0.449-0.3v0.35c0,0.233-0.066,0.384-0.199,0.45c0.267,0.167,0.333,0.35,0.199,0.55
		c-0.133,0.2-0.35,0.184-0.649-0.05c0.1,0.233,0.05,0.434-0.15,0.6C87.667,28.2,87.533,28.15,87.4,27.95l-0.025-0.125
		c-0.005,0.113-0.047,0.238-0.125,0.375c-0.1,0.233-0.2,0.1-0.3-0.4c-0.167,0.101-0.283,0.066-0.351-0.1
		c-0.066-0.101-0.033-0.217,0.101-0.351c0.066-0.066,0.133-0.133,0.2-0.199l0.149-0.101c0.101-0.1,0.2-0.316,0.3-0.649
		c0.167-0.134,0.284-0.384,0.351-0.75l0.35-0.25C88.083,25.5,88.05,25.65,87.95,25.85z"/>
	<path style="fill-rule:evenodd;clip-rule:evenodd;fill:#4E6912;" d="M88.95,30.95c0.2-0.066,0.35,0.083,0.45,0.45L89.25,31.6
		L89,31.65L88.75,32.1c-0.167,0.267-0.233,0.067-0.2-0.6c-0.166,0.134-0.316,0.167-0.45,0.1c-0.066-0.033,0.034-0.133,0.301-0.3
		C88.634,31.134,88.816,31.017,88.95,30.95z"/>
	<path style="fill-rule:evenodd;clip-rule:evenodd;fill:#4E6912;" d="M87.7,28.75c0.233,0.366,0.184,0.6-0.15,0.7
		c-0.233,0.066-0.3-0.033-0.2-0.3C87.417,28.85,87.533,28.717,87.7,28.75z"/>
	<path style="fill-rule:evenodd;clip-rule:evenodd;fill:#4E6912;" d="M88.1,28.45c0.067-0.134,0.184-0.217,0.351-0.25
		c0.2-0.033,0.316,0.017,0.35,0.149c0,0.2-0.133,0.334-0.399,0.4C88.1,28.816,88,28.717,88.1,28.45z"/>
	<path style="fill-rule:evenodd;clip-rule:evenodd;fill:#4E6912;" d="M88.1,36.75c0.134,0.1,0.2,0.217,0.2,0.35
		c0,0.167-0.184,0.25-0.55,0.25c0.3,0.334,0.35,0.551,0.15,0.65c-0.134,0.066-0.25,0.066-0.351,0l-0.1-0.15
		c-0.033,0.167-0.15,0.384-0.351,0.65c-0.133,0.134-0.199,0.066-0.199-0.2l0.1-0.45c-0.1,0.167-0.3,0.184-0.6,0.051
		c-0.167-0.067-0.101-0.15,0.199-0.25c0.107-0.054,0.224-0.096,0.351-0.125c-0.119-0.003-0.27-0.095-0.45-0.275
		c-0.167-0.134-0.1-0.25,0.2-0.35c0.133-0.034,0.283-0.067,0.45-0.101c-0.134,0-0.301-0.116-0.5-0.35
		c-0.101-0.134-0.017-0.233,0.25-0.3c0.133,0,0.283,0,0.449,0l0.5-0.351c0.4,0.134,0.517,0.3,0.351,0.5l-0.351,0.3L88.1,36.75z"/>
</g>
</svg>
