<?xml version="1.0" encoding="iso-8859-1"?>
<!-- Generator: Adobe Illustrator 15.1.0, SVG Export Plug-In . SVG Version: 6.00 Build 0)  -->
<!DOCTYPE svg PUBLIC "-//W3C//DTD SVG 1.1//EN" "http://www.w3.org/Graphics/SVG/1.1/DTD/svg11.dtd">
<svg version="1.1" id="flash0.ai" xmlns="http://www.w3.org/2000/svg" xmlns:xlink="http://www.w3.org/1999/xlink" x="0px" y="0px"
	 width="110px" height="50px" viewBox="0 0 110 50" style="enable-background:new 0 0 110 50;" xml:space="preserve">
<path style="fill-rule:evenodd;clip-rule:evenodd;fill:#633A1E;" d="M24.1,18.2c-0.1-2,0.033-3.434,0.4-4.3h10.75
	c0.067,2.167,0.033,4.667-0.1,7.5c-0.333,6.167-0.3,15.667,0.1,28.5H24.5L24.35,39.8C24.35,30.267,24.267,23.067,24.1,18.2z"/>
<path style="fill-rule:evenodd;clip-rule:evenodd;fill:#633A1E;" d="M77.15,49.9L76.8,20.45c-0.1-2.167,0.017-4.35,0.351-6.55H87.85
	c0,3.167-0.066,5.967-0.199,8.4C87.517,24.7,87.583,33.9,87.85,49.9H77.15z"/>
<path style="fill-rule:evenodd;clip-rule:evenodd;fill:#4D260C;" d="M35.15,13.9l0.1,5.75c0.067,2.767,0.033,12.85-0.1,30.25h-4
	c0.033-6.767,0.15-11.934,0.35-15.5c0.2-2.567,0.317-4.351,0.35-5.351c0.033-1.434-0.033-3.25-0.2-5.45
	c-0.167-2.133-0.233-3.6-0.2-4.4c0.066-1.767-0.034-3.534-0.3-5.3H35.15z"/>
<path style="fill-rule:evenodd;clip-rule:evenodd;fill:#4D260C;" d="M83.5,23.7l0.2-9.8h3.95C88.05,24,88.017,31.583,87.55,36.65
	c-0.434,5.1-0.399,9.517,0.101,13.25H83.7c0.633-7.667,0.95-12.5,0.95-14.5c0-0.867-0.2-2.684-0.601-5.45
	C83.65,27.283,83.467,25.2,83.5,23.7z"/>
<path style="fill-rule:evenodd;clip-rule:evenodd;fill:#915A27;" d="M27.65,13.9c0.333,0.133,0.6,1.25,0.8,3.35
	c0.4,4.2,0.3,11.267-0.3,21.2c-0.4,6.434-0.6,10.25-0.6,11.45H23.9c-0.467-6.167-0.633-11.167-0.5-15
	c0.067-2.067,0.05-5.084-0.05-9.051c-0.067-3.933-0.083-6.45-0.05-7.55c0.067-2.5,0.267-3.966,0.6-4.4H27.65z M27.55,49.9h0.1
	C27.583,50.467,27.55,50.467,27.55,49.9z"/>
<path style="fill-rule:evenodd;clip-rule:evenodd;fill:#915A27;" d="M76.8,23.8c0.233-2.333,0.134-5.633-0.3-9.9h3.8
	c-0.133,3.267-0.267,5.817-0.399,7.65c-0.367,5.367-0.233,14.783,0.399,28.25L76.5,49.9c-0.033-8.067,0.017-13.4,0.15-16
	c0.033-1.134,0.05-3.017,0.05-5.65C76.667,26.083,76.7,24.6,76.8,23.8z"/>
<path style="fill-rule:evenodd;clip-rule:evenodd;fill:#633A1E;" d="M25.4,27.9l0.15,4.8c0.133,3.467,0.3,5.816,0.5,7.05
	c0.3,2,0,4.717-0.9,8.15v-0.15c0.233-1.967,0.184-4.7-0.15-8.2C24.7,36.05,24.833,32.167,25.4,27.9z"/>
<path style="fill-rule:evenodd;clip-rule:evenodd;fill:#633A1E;" d="M79,47.05c0,0.767,0.066,1.45,0.2,2.05l-0.3-1
	c-0.134-0.566-0.267-1.649-0.4-3.25c-0.167-1.733-0.25-3.316-0.25-4.75l0.2-14.399c0.166,4.233,0.283,8.517,0.35,12.85
	C78.866,42.884,78.934,45.717,79,47.05z"/>
<path style="fill-rule:evenodd;clip-rule:evenodd;fill:#633A1E;" d="M86.65,21.55c0.066,1.067,0.066,2.867,0,5.4
	C86.55,29.616,86.517,31.3,86.55,32c0.033,1.167,0.033,1.85,0,2.05s-0.116,0.117-0.25-0.25c-0.366-0.767-0.467-2.649-0.3-5.649
	C86.134,26.25,86.35,24.05,86.65,21.55z"/>
<path style="fill-rule:evenodd;clip-rule:evenodd;fill:#633A1E;" d="M33.9,44.15l-0.1,4.5c-0.133,0.733-0.267,0.683-0.4-0.15
	L32.95,43L33.9,44.15z"/>
<g>
	<path style="fill-rule:evenodd;clip-rule:evenodd;fill:#4D260C;" d="M82.5,45.65c-0.767-0.101-1.733-0.517-2.9-1.25
		c-0.733-0.467-1.483-1.2-2.25-2.2l-0.899-1.4l0.8-2.55l4-1.95l1.5,3.7c0.2,0.267,0.283,0.667,0.25,1.2
		c0,0.333-0.017,0.783-0.05,1.35C82.95,43.116,82.8,44.15,82.5,45.65z"/>
	<path style="fill-rule:evenodd;clip-rule:evenodd;fill:#633A1E;" d="M74.5,35.3l6.75,1v1.851c0.033,0.733,0.033,1.733,0,3
		c-6.833,0.199-12.05,0.3-15.65,0.3L40,41.5c-4.3,0.033-7.45-0.066-9.45-0.3c-0.133-0.334-0.267-0.884-0.4-1.65
		c-0.066-0.467-0.066-1.116,0-1.95l0.1-1.149l13-1.7L74.5,35.3z"/>
	<path style="fill-rule:evenodd;clip-rule:evenodd;fill:#4D260C;" d="M74.5,35.3l6.75,1v1.851c0.033,0.733,0.033,1.733,0,3
		c-6.833,0.199-12.05,0.3-15.65,0.3L40,41.5c-4.3,0.033-7.45-0.066-9.45-0.3c-0.1-0.233-0.2-0.584-0.3-1.05
		c1.6,0.333,4.05,0.517,7.35,0.55c3.033,0.066,4.8,0.017,5.3-0.15c0.633-0.166-0.383-0.5-3.05-1h3.55c1.967,0,3.75,0.066,5.35,0.2
		l-1.5,0.3c-0.7,0.167,0.167,0.334,2.6,0.5c2.2,0.134,4.367,0.2,6.5,0.2c1.267,0,4.967,0.017,11.101,0.05
		c5.6-0.066,8.616-0.25,9.05-0.55c0.434-0.333-0.366-0.55-2.4-0.65c-0.933-0.066-3.05-0.116-6.35-0.149
		c-1.767-0.033-3.866-0.117-6.3-0.25L58.35,39h2.2c4.434,0,8.033-0.1,10.8-0.3c2.301-0.167,5.217-0.134,8.75,0.1
		c0.101-0.533-0.383-0.95-1.449-1.25c-0.634-0.166-3.101-0.233-7.4-0.2C66.45,37.384,63.366,37.4,62,37.4
		c-1.833,0-5.533-0.167-11.1-0.5c-4.9-0.301-8.283-0.534-10.15-0.7l3-1.45L74.5,35.3z"/>
	<path style="fill-rule:evenodd;clip-rule:evenodd;fill:#854E28;" d="M36.15,37.55c0.633,0.033,1.917,0.184,3.85,0.45
		c0.433,0.033,2.383,0.033,5.85,0c-1.233,0.2-2.733,0.316-4.5,0.35c-3.533,0.233-5.934,0.301-7.2,0.2c-0.933-0.1-1.117-0.3-0.55-0.6
		C34.2,37.65,35.05,37.517,36.15,37.55z"/>
	<path style="fill-rule:evenodd;clip-rule:evenodd;fill:#854E28;" d="M73,38.3h-1.25c-2.8,0.134-5.316,0.217-7.55,0.25
		c-5,0.167-8.316,0.25-9.95,0.25c-1.2-0.033-1.65-0.233-1.35-0.6c0.3-0.4,0.934-0.566,1.9-0.5c1.267,0.066,3.283,0.1,6.05,0.1
		L73,38.3z"/>
	<path style="fill-rule:evenodd;clip-rule:evenodd;fill:#915A27;" d="M76.85,33.05l0.051,0.2c0.066,0.167,0.267,0.4,0.6,0.7
		c1.333,1.2,2.583,1.983,3.75,2.35c-2.033,0-4.65,0.05-7.85,0.15c-2.967,0.133-6.517,0.166-10.65,0.1
		c-6.434-0.066-17.267-0.1-32.5-0.1c1.033-0.434,2-0.9,2.9-1.4c0.934-0.5,1.667-1.166,2.2-2H76.85z"/>
	<path style="fill-rule:evenodd;clip-rule:evenodd;fill:#B67F38;" d="M58.55,34.45c-2.033,0.833-3.733,1.2-5.1,1.1
		c-3.434-0.333-5.833-0.45-7.2-0.35c-1.7,0.033-3.467,0.083-5.3,0.149L36.8,35.5l1.25,0.15c1,0.1,1.934,0.133,2.8,0.1l4.5-0.05
		c1.633,0,2.7,0.017,3.2,0.05l2.6,0.1c-5.133,0.134-8.717,0.2-10.75,0.2c-4,0-6.083-0.083-6.25-0.25
		c-0.066-0.066,0.117-0.45,0.55-1.149l0.65-1.051l4.15-0.25c1.167-0.066,3.567,0.017,7.2,0.25c0.867,0.034,1.917,0.101,3.15,0.2
		c1,0.066,2.033,0.033,3.1-0.1c1.267-0.134,3.017-0.267,5.25-0.4c2.233-0.133,3.983-0.2,5.25-0.2c1.666,0,3.616,0.184,5.85,0.551
		c0.934,0.1,2.434,0.1,4.5,0c1.3,0.033,2.233,0.066,2.8,0.1c-3.366,0.333-5.75,0.434-7.149,0.3c-0.167-0.033-1.017-0.166-2.55-0.399
		c-0.9-0.134-1.801-0.2-2.7-0.2c-0.8,0-2.351,0.116-4.65,0.35c-2.5,0.267-4.233,0.417-5.2,0.45c-2.467,0.033-5.833-0.033-10.1-0.2
		c-0.867-0.066-2.5-0.066-4.9,0c-1.267,0-2.434,0.066-3.5,0.2c-1.1,0.134-1.117,0.25-0.05,0.35c4.1,0.334,6.75,0.384,7.95,0.15
		c0.7-0.134,1.7-0.167,3-0.1c0.767,0,1.917,0.05,3.45,0.149c0.767,0.066,1.65,0.15,2.65,0.25c0.8,0.033,1.483,0,2.05-0.1
		L58.55,34.45z"/>
	<path style="fill-rule:evenodd;clip-rule:evenodd;fill:#4D260C;" d="M30.25,36.45c1.033-0.434,2-0.9,2.9-1.4
		c0.934-0.467,1.667-1.116,2.2-1.95c0.4,0.5,0.917,0.9,1.55,1.2c0.467,0.233,1.2,0.634,2.2,1.2c0.967,0.467,1.917,0.783,2.85,0.95
		H30.25z"/>
	<path style="fill-rule:evenodd;clip-rule:evenodd;fill:#B67F38;" d="M65.5,34.2c0.967,0.066,1.616,0.166,1.95,0.3
		c-0.3,0.066-0.867,0.1-1.7,0.1c-0.9,0-1.767,0.084-2.6,0.25c-0.4,0.101-0.584,0.184-0.551,0.25c0.034,0.067,0.101,0.101,0.2,0.101
		l3.95-0.25c0.967-0.134,2.3-0.2,4-0.2l6,0.05c-0.5,0.134-1.366,0.217-2.6,0.25h-4.2c-1.066,0-1.917,0.101-2.55,0.3
		c-0.867,0.301-1.567,0.483-2.101,0.551c-0.934,0.133-1.8,0.183-2.6,0.149l-0.95-0.1l-1-0.65c-0.434-0.3,0.066-0.583,1.5-0.85
		C63.583,34.217,64.667,34.134,65.5,34.2z"/>
	<path style="fill-rule:evenodd;clip-rule:evenodd;fill:#B67F38;" d="M78,35.4c0.066,0.133-0.333,0.267-1.2,0.399
		c-1.434,0.167-3.033,0.117-4.8-0.149c-0.634-0.101-0.134-0.15,1.5-0.15C75.934,35.467,77.434,35.434,78,35.4z"/>
</g>
<path style="fill-rule:evenodd;clip-rule:evenodd;fill:#633A1E;" d="M86.35,38.05l0.101,2.4c0.1,1.833,0.133,3.366,0.1,4.6
	C86.483,46.65,86.3,47.667,86,48.1c-0.333,0.467-0.5-0.216-0.5-2.05c0-1.633,0.15-3.45,0.45-5.45L86.35,38.05z"/>
<path style="fill-rule:evenodd;clip-rule:evenodd;fill:#4D260C;" d="M82,36.3c0.333-1.033,0.65-1.017,0.95,0.05
	c0.233,1,0.35,2.317,0.35,3.95c0,1.9-0.366,4.101-1.1,6.601c0.166-1.9,0.166-3.483,0-4.75C81.733,39.25,81.667,37.3,82,36.3z"/>
<g>
	<path style="fill-rule:evenodd;clip-rule:evenodd;fill:#E3AC4B;" d="M34.55,14.75c-0.7,0.333-1.383,0.55-2.05,0.65
		c-0.4,0.033-1.4,0.067-3,0.1c-1.4,0.033-2.85-0.183-4.35-0.65c-1.5-0.5-1.833-0.883-1-1.15c0.633-0.233,1.167-0.417,1.6-0.55
		c0.867-0.267,1.6-0.4,2.2-0.4c0.367,0,1.117,0.067,2.25,0.2c0.933,0.1,1.716,0.117,2.35,0.05c1.1-0.1,1.917,0.083,2.45,0.55
		C35.5,13.983,35.35,14.383,34.55,14.75z"/>
	<path style="fill-rule:evenodd;clip-rule:evenodd;fill:#E3AC4B;" d="M85.8,12.8c1.3,0.367,1.983,0.733,2.05,1.1
		c0.101,0.434-0.649,0.817-2.25,1.15c-0.633,0.2-1.1,0.333-1.399,0.4c-0.5,0.133-1.15,0.216-1.95,0.25
		c-1.167,0.033-2.233-0.133-3.2-0.5c-0.967-0.467-1.684-0.8-2.149-1c-0.601-0.233-0.567-0.534,0.1-0.9
		c0.566-0.3,1.167-0.483,1.8-0.55c1.434-0.2,2.483-0.317,3.15-0.35C83.583,12.367,84.866,12.5,85.8,12.8z"/>
	<path style="fill-rule:evenodd;clip-rule:evenodd;fill:#B67F38;" d="M33.95,13.7c0.433,0.066,0.566,0.25,0.4,0.55
		c-0.8,0.533-1.45,0.833-1.95,0.9c-0.467,0.1-1.2,0.1-2.2,0c-0.333-0.033-0.65-0.1-0.95-0.2c-0.233-0.1-0.467-0.15-0.7-0.15
		l-1.9,0.05c-0.2,0-0.5-0.1-0.9-0.3L25,14.15c-0.133-0.066-0.167-0.133-0.1-0.2c0.067-0.1,0.217-0.167,0.45-0.2l1.45-0.35L25.85,14
		c-0.167,0.1-0.15,0.183,0.05,0.25c0.133,0.033,0.417,0.1,0.85,0.2c0.5,0.133,1.133,0.167,1.9,0.1l2.7,0.5
		c0.367,0.067,0.75,0,1.15-0.2c0.2-0.1,0.467-0.267,0.8-0.5c0.434-0.233,0.383-0.383-0.15-0.45h-5.1l0.6-0.15
		c0.5-0.133,1.283-0.167,2.35-0.1c0.567,0,1.117-0.033,1.65-0.1C32.883,13.55,33.317,13.6,33.95,13.7z"/>
	<path style="fill-rule:evenodd;clip-rule:evenodd;fill:#B67F38;" d="M29.175,13.25c-0.303,0.008-0.694,0.108-1.175,0.3l-0.8,0.35
		c-0.167,0.133-0.3,0.133-0.4,0c-0.066-0.066,0.067-0.2,0.4-0.4c0.367-0.2,0.65-0.283,0.85-0.25H29.175z"/>
	<path style="fill-rule:evenodd;clip-rule:evenodd;fill:#B67F38;" d="M28.95,14.3l3.15-0.1c0.233-0.034,0.333,0,0.3,0.1
		c0,0.1-0.1,0.2-0.3,0.3c-0.267,0.167-0.767,0.167-1.5,0L28.95,14.3z"/>
	<path style="fill-rule:evenodd;clip-rule:evenodd;fill:#B67F38;" d="M85.4,12.95c0.5,0.1,1.083,0.367,1.75,0.8
		c-0.4,0.167-0.767,0.283-1.101,0.35c-0.533,0.1-1.066,0.15-1.6,0.15s-1.134-0.067-1.8-0.2C82.483,14.017,82.116,14,81.55,14
		c-0.6-0.133-0.967-0.2-1.1-0.2c-0.101-0.033,0.149-0.066,0.75-0.1c0.6-0.034,1.083-0.034,1.45,0c0.466,0.033,1.233,0.033,2.3,0
		c0.467,0.033,0.833-0.017,1.1-0.15l-1.1-0.5c-0.233-0.1-0.667-0.15-1.3-0.15l-1.9,0.1c-1.4,0.333-2.184,0.517-2.35,0.55l-0.801,0.3
		c-0.033,0.033,0.067,0.117,0.301,0.25s0.466,0.233,0.699,0.3l1.551,0.35c1.333,0.1,2.416,0.133,3.25,0.1L82.65,15
		c-1.134,0-1.851-0.017-2.15-0.05c-0.566-0.1-1.233-0.3-2-0.6l-1.45-0.65l0.7-0.4c0.167-0.133,0.65-0.183,1.45-0.15l1.05-0.25
		l1.55-0.2c0.367-0.034,0.967-0.017,1.8,0.05C84.467,12.817,85.066,12.883,85.4,12.95z"/>
	<path style="fill-rule:evenodd;clip-rule:evenodd;fill:#B67F38;" d="M83.85,13.3c0.634,0,0.784,0.05,0.45,0.15
		c-0.2,0.066-0.767,0.066-1.7,0l-1.3-0.15l0.5-0.05C82.1,13.25,82.783,13.267,83.85,13.3z"/>
	<path style="fill-rule:evenodd;clip-rule:evenodd;fill:#B67F38;" d="M79.5,13.85c0.1,0.033,0.316,0.066,0.65,0.1
		c0.1,0.1,0.699,0.233,1.8,0.4L81.4,14.4c-0.034,0-0.517-0.083-1.45-0.25c-0.367-0.066-0.584-0.133-0.65-0.2
		C79.233,13.85,79.3,13.817,79.5,13.85z"/>
	<path style="fill-rule:evenodd;clip-rule:evenodd;fill:#B67F38;" d="M86.25,14.3c-0.167,0.233-0.467,0.383-0.9,0.45
		c-0.233,0.033-0.55-0.017-0.949-0.15l-0.551-0.2l0.9,0.05C85.217,14.45,85.717,14.4,86.25,14.3z"/>
</g>
</svg>
