<?xml version="1.0" encoding="iso-8859-1"?>
<!-- Generator: Adobe Illustrator 15.1.0, SVG Export Plug-In . SVG Version: 6.00 Build 0)  -->
<!DOCTYPE svg PUBLIC "-//W3C//DTD SVG 1.1//EN" "http://www.w3.org/Graphics/SVG/1.1/DTD/svg11.dtd">
<svg version="1.1" id="FlashAICB" xmlns="http://www.w3.org/2000/svg" xmlns:xlink="http://www.w3.org/1999/xlink" x="0px" y="0px"
	 width="75.6px" height="28.55px" viewBox="0 0 75.6 28.55" style="enable-background:new 0 0 75.6 28.55;" xml:space="preserve">
<g>
	<path style="fill-rule:evenodd;clip-rule:evenodd;fill:#9F8D4F;" d="M63.3,11.85c0.267,0.6,0.783,0.85,1.55,0.75
		c0.2-0.1,0.267-0.25,0.2-0.45L64.65,11.9L63.3,11.85z M62.7,8.5c2.866,0.167,5.217,1.117,7.05,2.85
		c0.616,0.616,1.032,0.991,1.25,1.125c0.019,0.009,0.035,0.017,0.05,0.025c-0.017,0.015-0.033,0.031-0.05,0.05
		c-0.21,0.162-0.376,0.212-0.5,0.15l0.05,0.05c0.153,0.071,0.303,0.146,0.45,0.225c0.753,0.393,1.437,0.867,2.05,1.425
		c0.033,0.1,0.084,0.184,0.15,0.25l-1.5-0.15c0.833,0.533,1.633,1.184,2.399,1.95c0.101,0.133,0.134,0.283,0.101,0.45
		c0.133,0.199-0.017,0.283-0.45,0.25c0.434,0.133,0.783,0.416,1.05,0.85c0.033,0.066,0.066,0.134,0.101,0.2L74.3,18.65
		c0.267,1.033,0.684,1.833,1.25,2.399c0.066,0.5,0.066,0.983,0,1.45c-0.233,0.3-0.483,0.616-0.75,0.95
		c-0.533,0.8-0.566,1.233-0.1,1.3c-0.267,0.4-0.934,0.95-2,1.65L71.55,27c-0.133,0-0.25,0-0.35,0
		c-0.069-0.013-0.136-0.021-0.2-0.025c-0.619-0.088-1.019,0.004-1.2,0.275c-0.066,0.167-0.133,0.3-0.2,0.4
		c-0.366,0.066-0.716,0.133-1.05,0.199c-0.333-0.066-0.7-0.183-1.1-0.35c-0.267-0.1-0.517-0.184-0.75-0.25l0.1,0.65
		c-1.733-0.367-2.85-0.584-3.35-0.65c-0.5-0.167-0.884-0.267-1.15-0.3l-0.75-0.55L61.3,26c-1.366-0.366-2.816-0.533-4.35-0.5
		l0.75-0.1l-1.15-0.65c-0.899,0.233-1.934,0.283-3.1,0.15c-1.667-0.267-3.084-0.483-4.25-0.65c-0.101,0.1-0.217,0.15-0.351,0.15
		C48.616,24.366,48.4,24.333,48.2,24.3c-0.334-0.133-0.717-0.434-1.15-0.899v0.75L47,24.1c-0.434-0.166-0.917-0.283-1.45-0.35
		c-0.033,0.033-0.066,0.083-0.1,0.15c-0.267-0.034-0.533-0.067-0.8-0.101c-0.067-0.233-0.051-0.5,0.05-0.8l-0.75,0.4
		c-0.101,0-0.184,0-0.25,0c-0.2,0.033-0.25-0.101-0.15-0.4c0-0.033,0-0.066,0-0.1c-0.666,0.233-1.116,0.316-1.35,0.25l-0.15-0.4
		c-0.267-0.134-0.566-0.017-0.899,0.35c-0.067,0.067-0.134,0.117-0.2,0.15c-0.3,0-0.417-0.167-0.351-0.5h-0.05l-1,0.5
		c-0.133-0.4-0.517-0.4-1.149,0c-0.134,0-0.25,0.017-0.351,0.05v-0.05L38,23.3c-1.3,0.233-2.3,0.267-3,0.101h0.05
		c0.167-0.134,0.017-0.067-0.45,0.199c-1.133,0.634-1.733,0.684-1.8,0.15c-0.066-0.3-0.3-0.2-0.7,0.3c-0.4,0.434-0.617,0.5-0.65,0.2
		c0-0.366-0.034-0.517-0.1-0.45c-0.167,0.167-0.3,0.351-0.4,0.55c-0.2,0.267-0.417,0.317-0.65,0.15
		c-1.133,0.033-2.55,0.45-4.25,1.25c-0.033,0.033-0.066,0.083-0.1,0.15c-0.034-0.233-0.217-0.267-0.55-0.101
		c-0.333,0.134-0.566,0.25-0.7,0.351c0.066-0.101,0.15-0.184,0.25-0.25c0.033-0.067,0.066-0.117,0.1-0.15V25.7
		c-0.033,0-0.066,0.017-0.1,0.05c-0.367,0.467-0.867,0.767-1.5,0.9c-0.4,0.066-0.534,0.066-0.4,0c0.167-0.367-0.05-0.367-0.65,0
		c-0.6,0.366-1.167,0.533-1.7,0.5c0-0.101-0.017-0.167-0.05-0.2s-0.066-0.05-0.1-0.05c-0.033,0-0.066,0-0.1,0
		c-0.067,0.033-0.117,0.066-0.15,0.1c-0.1,0.066-0.183,0.15-0.25,0.25c-0.1-0.134-0.183-0.25-0.25-0.35
		c-0.033,0-0.05-0.017-0.05-0.051c-0.1-0.066-0.167-0.133-0.2-0.199c-0.033,0-0.066,0-0.1,0c-0.3,0.566-0.767,0.966-1.4,1.199
		c-1.233,0.267-1.85,0.284-1.85,0.051c-0.333-0.2-1.017-0.034-2.05,0.5c-0.033,0-0.05,0.017-0.05,0.05
		c-0.033-0.033-0.083-0.05-0.15-0.05c-1.1,0.233-1.85,0.149-2.25-0.25c0-0.2-0.5-0.284-1.5-0.25l-1.5-0.25
		c0.133-0.334,0.083-0.5-0.15-0.5c-0.367,0.066-0.566,0.183-0.6,0.35L5.3,27.9c0.133-0.101,0.267-0.233,0.4-0.4
		c0.133-0.2,0.216-0.316,0.25-0.35L5.3,27.5c-0.267,0-0.433-0.033-0.5-0.1c-0.066-0.067-0.1-0.15-0.1-0.25
		c-0.034-0.267-0.284-0.267-0.75,0c-0.133,0.1-0.217,0.216-0.25,0.35c-0.133-0.033-0.184-0.116-0.15-0.25
		c0.067-0.333,0.067-0.583,0-0.75c-0.3-0.1-0.6,0.1-0.9,0.6c-0.033,0.067-0.066,0.117-0.1,0.15l-0.1-1.1
		C2.417,25.983,2.317,26,2.15,26.2c-0.066,0.1-0.133,0.2-0.2,0.3c-0.034-0.233-0.067-0.517-0.1-0.85C1.983,25.283,2.1,24.9,2.2,24.5
		l-0.65-0.75v-1.6l0.4,0.75C1.717,22.2,1.667,21.233,1.8,20c-0.033,0.066-0.083,0.134-0.15,0.2c-0.2,0.267-0.433,0.416-0.7,0.45
		c-0.3-1.467-0.05-2.934,0.75-4.4c-0.6,0.5-1.167,0.634-1.7,0.4c0-0.034,0.017-0.067,0.05-0.101c0.7-1.166,1.167-1.8,1.4-1.9
		l-0.5,0.05c0.5-0.833,1.05-1.633,1.65-2.4c0.233-0.033,0.517-0.083,0.85-0.15c0.066-0.1,0.1-0.183,0.1-0.25
		c0.034-0.167,0-0.217-0.1-0.15h-0.2c0.667-0.8,1.65-1.417,2.95-1.85L4.75,10c0.3-0.267,0.6-0.533,0.9-0.8
		C5.817,9.133,6,9.067,6.2,9c1.367-0.567,1.733-0.9,1.1-1c0.034-0.033,0.067-0.05,0.1-0.05c0.133-0.067,0.317-0.133,0.55-0.2
		c1.466-0.3,2.083-0.467,1.85-0.5c-0.233,0.067-0.383,0-0.45-0.2c-0.033-0.066-0.067-0.133-0.1-0.2c0.2-0.133,0.4-0.25,0.6-0.35
		c1.066-0.367,2.267-0.533,3.6-0.5l0.1-0.05c-0.1-0.067-0.183-0.167-0.25-0.3c2.434-0.667,4.85-1.333,7.25-2
		c-0.667,0.033-1.033-0.017-1.1-0.15l1.75-0.35c0-0.1-0.017-0.15-0.05-0.15c-0.1-0.1-0.183-0.183-0.25-0.25
		c0.467-0.1,0.95-0.167,1.45-0.2c1.267-0.2,2.55-0.316,3.85-0.35c0.066,0,0.133,0,0.2,0l0.15-0.05c1.034-0.167,2.034-0.383,3-0.65
		l0.5-0.25c0-0.033,0-0.067,0-0.1l0.75-0.2c0.1,0.167,0.233,0.267,0.4,0.3l0.35-0.55h0.1C32.217,1,32.9,1.067,33.7,0.9l0.1-0.85
		c0,0.034,0.017,0.083,0.05,0.15c0.1,0.1,0.2,0.233,0.3,0.4l-0.1-0.45l1.75,1L35.5,0c0.267,0,0.533,0,0.8,0l1.25,1.15l-0.1-1
		c1.2,0.533,2.399,0.867,3.6,1c0.066,0,0.15,0,0.25,0c0.2,0.033,0.283-0.1,0.25-0.4c0-0.033,0-0.067,0-0.1l1.4,0.6
		c1.833,0.733,4,1.067,6.5,1l-0.4,0.65l3.25-0.25c-0.166,0.3-0.366,0.55-0.6,0.75c1.033-0.2,1.783-0.083,2.25,0.35L53.3,4
		c2,0.533,4.117,0.883,6.351,1.05l-0.95,0.7h2.5c-0.167,0.2-0.634,0.367-1.4,0.5l2.75,0.4c-0.133,0.1-0.583,0.184-1.35,0.25
		c1.467,0.233,2.8,0.767,4,1.6H62.7z M68.6,18.5l-0.25-0.65c0.167-0.699,0.034-1.233-0.399-1.6c-0.066-0.033-0.117-0.066-0.15-0.1
		c-0.066,0.033-0.116,0.083-0.149,0.149c-0.034,0-0.051,0.017-0.051,0.05c0,0.034,0,0.084,0,0.15L68.6,18.5z M61.2,15.7
		c-0.033,0-0.05,0.017-0.05,0.05c-0.101,0.233-0.034,0.4,0.199,0.5c0.134,0.033,0.233,0.116,0.301,0.25
		c0.399,0.066,0.816,0.083,1.25,0.05c0.233-0.066,0.333-0.25,0.3-0.55l-0.75-0.4C62.05,15.366,61.634,15.4,61.2,15.7z M60.95,17.65
		L60.4,16.85L59.6,16.8L58.45,16.9c0.267,0.199,0.083,0.283-0.55,0.25c-0.034,0.066-0.067,0.133-0.101,0.199
		c0.533,1,1.5,1.434,2.9,1.301c0.233,0.033,0.467,0.033,0.7,0l0.649-0.5L60.95,17.65z M64.2,20.1
		c0.133,0.967,0.717,1.483,1.75,1.551c0.833,0.1,1.066-0.15,0.7-0.75l-1-0.851L64.2,20.1z M68.9,18.6l-0.2,0.75
		c0.366-0.466,0.833-0.833,1.399-1.1c0.352-0.156,0.652-0.356,0.9-0.6c0.176-0.16,0.326-0.344,0.45-0.551L69.8,17.15L68.9,18.6z
		 M69.2,19.65L69.15,19.8l3.149-0.3L69.2,19.65z M65.85,22.4c0.267,0.533,0.667,0.616,1.2,0.25c0-0.034,0.017-0.067,0.05-0.101
		V22.15C66.6,22.05,66.2,22.1,65.9,22.3C65.866,22.3,65.85,22.333,65.85,22.4z M69.95,23.05c-0.566-0.1-0.783,0.167-0.65,0.8
		c0,0.034,0.017,0.084,0.05,0.15c0.834,0.566,1.317,0.45,1.45-0.35c0.033-0.101,0.05-0.184,0.05-0.25L69.95,23.05z M47.6,8
		c-0.166-0.033-0.333-0.067-0.5-0.1c-0.767-0.133-1.216,0.117-1.35,0.75c0.033,0,0.066,0.017,0.1,0.05c0.7,0.233,1.25,0.4,1.65,0.5
		c0.134,0.033,0.25,0.05,0.35,0.05c0.9,0.167,1.384-0.083,1.45-0.75l-0.25-0.45C48.85,8.15,48.366,8.133,47.6,8z M44,3.35L40.9,3.7
		c-0.4,0.1-0.75,0.283-1.051,0.55c-0.366,0.333-0.466,0.65-0.3,0.95c0.267,0.433,1.2,0.533,2.8,0.3
		c0.934-0.067,1.584-0.25,1.95-0.55C44.833,4.55,44.733,4.017,44,3.35z M48.85,16.6c0.567,0.667,1.4,0.884,2.5,0.65
		c0.267,0.033,0.45-0.033,0.551-0.2c0.199-0.267,0.233-0.5,0.1-0.7c-0.066-0.1-0.134-0.199-0.2-0.3L50.65,15.9
		c-0.733-0.134-1.334,0.066-1.801,0.6C48.85,16.533,48.85,16.566,48.85,16.6z M46.45,18.4c0,0.033,0,0.066,0,0.1
		c0,0.066,0.017,0.15,0.05,0.25c0,0.033,0.033,0.083,0.1,0.15c0.034,0.033,0.067,0.066,0.101,0.1l3.75,0.15l0.5-0.65v-0.45
		L49.4,17.6C48.2,17.467,47.217,17.733,46.45,18.4z M40.05,7.7L39.15,6.95c-0.834-0.434-1.967-0.434-3.4,0
		c-1.467,0.433-1.667,1.033-0.6,1.8c0.267,0.2,1.033,0.267,2.3,0.2c1.366-0.1,2.2-0.167,2.5-0.2C40.116,8.383,40.15,8.033,40.05,7.7
		z M24.95,8.65c-0.267,0.7-0.233,1.45,0.1,2.25c0.167,0.434,0.434,0.9,0.8,1.4c0.066,0.067,0.183,0.167,0.35,0.3l-0.05-0.35
		c0.167-1.5-0.2-2.683-1.1-3.55C25.017,8.667,24.983,8.65,24.95,8.65z M27.25,11.5c0.067,0.3,0.183,0.633,0.35,1l0.25,0.15
		c0-1.167-0.067-2.233-0.2-3.2c0-0.034-0.017-0.05-0.05-0.05C27.233,9.967,27.117,10.667,27.25,11.5z M21.65,13.05
		c-1.133,0.3-1.717,0.983-1.75,2.05c2.6,0,5.184-0.667,7.75-2H25.4C24.2,12.833,22.95,12.817,21.65,13.05z M28.75,19.6
		c1.233-0.333,2.317-0.85,3.25-1.55c0.2-0.2,0.217-0.434,0.05-0.7l-1.7-0.1c-1.434,0.333-2.55,0.983-3.35,1.95
		c-0.033,0-0.05,0.033-0.05,0.1C27.417,19.634,28.017,19.733,28.75,19.6z M12.15,10.75c-0.933,0.267-1.533,0.867-1.8,1.8
		c0,0.034,0,0.067,0,0.1c0.867,0.267,1.717-0.083,2.55-1.05c0.167-0.167,0.217-0.367,0.15-0.6L12.15,10.75z M7.25,15.6
		C7.217,15.634,7.2,15.7,7.2,15.8c1.167,0.601,2.167,0.25,3-1.05c0.133-0.167,0.267-0.25,0.4-0.25c0.133-0.2,0.167-0.4,0.1-0.6
		v-0.05c-0.034-0.167-0.05-0.317-0.05-0.45l-1.1,0.15C8.583,13.95,7.817,14.633,7.25,15.6z M9.35,22.9
		c0.2,0.267,0.566,0.316,1.1,0.149c2.267-0.366,3.716-1.55,4.35-3.55l-1.6,0.25c-1.233,0.333-2.284,0.9-3.15,1.7
		C9.583,21.917,9.35,22.4,9.35,22.9z M14.85,22.25c1.533,0.934,2.8,0.634,3.8-0.9l-2.75-0.5c-0.433,0.267-0.767,0.65-1,1.15
		C14.867,22.066,14.85,22.15,14.85,22.25z"/>
	<path style="fill-rule:evenodd;clip-rule:evenodd;fill:#AC9857;" d="M63.3,11.85l1.351,0.05l0.399,0.25c0.066,0.2,0,0.35-0.2,0.45
		C64.083,12.7,63.566,12.45,63.3,11.85z M64.2,20.1l1.45-0.05l1,0.851c0.366,0.6,0.133,0.85-0.7,0.75
		C64.917,21.583,64.333,21.066,64.2,20.1z M60.95,17.65l1.1,0.5l-0.649,0.5c-0.233,0.033-0.467,0.033-0.7,0
		c-1.4,0.133-2.367-0.301-2.9-1.301c0.033-0.066,0.066-0.133,0.101-0.199c0.633,0.033,0.816-0.051,0.55-0.25L59.6,16.8l0.801,0.05
		L60.95,17.65z M61.2,15.7c0.434-0.3,0.85-0.334,1.25-0.101L63.2,16c0.033,0.3-0.066,0.483-0.3,0.55
		c-0.434,0.033-0.851,0.017-1.25-0.05c-0.067-0.134-0.167-0.217-0.301-0.25c-0.233-0.1-0.3-0.267-0.199-0.5
		C61.15,15.717,61.167,15.7,61.2,15.7z M68.6,18.5l-1-2c0-0.066,0-0.116,0-0.15c0-0.033,0.017-0.05,0.051-0.05
		c0.033-0.066,0.083-0.116,0.149-0.149c0.033,0.033,0.084,0.066,0.15,0.1c0.434,0.366,0.566,0.9,0.399,1.6L68.6,18.5z M69.2,19.65
		l3.1-0.15l-3.149,0.3L69.2,19.65z M68.9,18.6L69.8,17.15l1.65-0.051c-0.124,0.207-0.274,0.391-0.45,0.551
		c-0.248,0.243-0.549,0.443-0.9,0.6c-0.566,0.267-1.033,0.634-1.399,1.1L68.9,18.6z M69.95,23.05L70.85,23.4
		c0,0.066-0.017,0.149-0.05,0.25c-0.133,0.8-0.616,0.916-1.45,0.35c-0.033-0.066-0.05-0.116-0.05-0.15
		C69.167,23.217,69.384,22.95,69.95,23.05z M65.85,22.4c0-0.067,0.017-0.101,0.051-0.101c0.3-0.2,0.699-0.25,1.199-0.149v0.399
		c-0.033,0.033-0.05,0.066-0.05,0.101C66.517,23.017,66.116,22.934,65.85,22.4z M44,3.35c0.733,0.667,0.833,1.2,0.3,1.6
		c-0.366,0.3-1.017,0.483-1.95,0.55c-1.6,0.233-2.533,0.133-2.8-0.3c-0.166-0.3-0.066-0.617,0.3-0.95C40.15,3.983,40.5,3.8,40.9,3.7
		L44,3.35z M47.6,8c0.767,0.133,1.25,0.15,1.45,0.05L49.3,8.5c-0.066,0.667-0.55,0.917-1.45,0.75c-0.1,0-0.216-0.017-0.35-0.05
		c-0.4-0.1-0.95-0.267-1.65-0.5c-0.033-0.034-0.066-0.05-0.1-0.05c0.134-0.633,0.583-0.883,1.35-0.75
		C47.267,7.933,47.434,7.967,47.6,8z M46.45,18.4c0.767-0.667,1.75-0.934,2.95-0.801l1.55,0.45v0.45l-0.5,0.65L46.7,19
		c-0.033-0.033-0.066-0.066-0.101-0.1c-0.066-0.067-0.1-0.117-0.1-0.15c-0.033-0.1-0.05-0.184-0.05-0.25
		C46.45,18.467,46.45,18.434,46.45,18.4z M48.85,16.6c0-0.033,0-0.066,0-0.1c0.467-0.533,1.067-0.733,1.801-0.6L51.8,16.05
		c0.066,0.101,0.134,0.2,0.2,0.3c0.134,0.2,0.1,0.434-0.1,0.7c-0.101,0.167-0.284,0.233-0.551,0.2
		C50.25,17.483,49.417,17.267,48.85,16.6z M40.05,7.7c0.101,0.333,0.066,0.683-0.1,1.05c-0.3,0.033-1.134,0.1-2.5,0.2
		c-1.267,0.066-2.034,0-2.3-0.2c-1.066-0.767-0.867-1.367,0.6-1.8c1.434-0.434,2.566-0.434,3.4,0L40.05,7.7z M14.85,22.25
		c0-0.1,0.017-0.184,0.05-0.25c0.233-0.5,0.567-0.884,1-1.15l2.75,0.5C17.65,22.884,16.383,23.184,14.85,22.25z M9.35,22.9
		c0-0.5,0.233-0.983,0.7-1.45c0.867-0.8,1.917-1.367,3.15-1.7l1.6-0.25c-0.633,2-2.083,3.184-4.35,3.55
		C9.917,23.217,9.55,23.167,9.35,22.9z M7.25,15.6c0.567-0.966,1.333-1.649,2.3-2.05l1.1-0.15c0,0.133,0.017,0.283,0.05,0.45v0.05
		c0.066,0.2,0.033,0.4-0.1,0.6c-0.133,0-0.267,0.083-0.4,0.25c-0.833,1.3-1.833,1.65-3,1.05C7.2,15.7,7.217,15.634,7.25,15.6z
		 M12.15,10.75l0.9,0.25c0.067,0.233,0.017,0.433-0.15,0.6c-0.833,0.967-1.683,1.316-2.55,1.05c0-0.033,0-0.066,0-0.1
		C10.617,11.617,11.217,11.017,12.15,10.75z M28.75,19.6c-0.733,0.134-1.333,0.034-1.8-0.3c0-0.066,0.017-0.1,0.05-0.1
		c0.8-0.967,1.917-1.617,3.35-1.95l1.7,0.1c0.167,0.267,0.15,0.5-0.05,0.7C31.067,18.75,29.983,19.267,28.75,19.6z M21.65,13.05
		c1.3-0.233,2.55-0.216,3.75,0.05h2.25c-2.566,1.333-5.15,2-7.75,2C19.933,14.033,20.517,13.35,21.65,13.05z M27.25,11.5
		c-0.133-0.833-0.017-1.533,0.35-2.1c0.033,0,0.05,0.017,0.05,0.05c0.133,0.966,0.2,2.033,0.2,3.2L27.6,12.5
		C27.433,12.133,27.317,11.8,27.25,11.5z M24.95,8.65c0.033,0,0.066,0.017,0.1,0.05c0.9,0.867,1.267,2.05,1.1,3.55l0.05,0.35
		c-0.167-0.133-0.284-0.233-0.35-0.3c-0.367-0.5-0.633-0.966-0.8-1.4C24.717,10.1,24.683,9.35,24.95,8.65z"/>
</g>
</svg>
