<?xml version="1.0" encoding="iso-8859-1"?>
<!-- Generator: Adobe Illustrator 15.1.0, SVG Export Plug-In . SVG Version: 6.00 Build 0)  -->
<!DOCTYPE svg PUBLIC "-//W3C//DTD SVG 1.1//EN" "http://www.w3.org/Graphics/SVG/1.1/DTD/svg11.dtd">
<svg version="1.1" id="FlashAICB" xmlns="http://www.w3.org/2000/svg" xmlns:xlink="http://www.w3.org/1999/xlink" x="0px" y="0px"
	 width="762px" height="723.85px" viewBox="0 0 762 723.85" style="enable-background:new 0 0 762 723.85;" xml:space="preserve">
<symbol  id="FlashAICB_x2F_Layer_129_x2F__x3C_Path_x3E_" viewBox="-0.022 -27.272 27.302 27.295">
	<g id="Layer_1_6_">
		
			<radialGradient id="SVGID_1_" cx="462.9766" cy="410.2246" r="13.6464" gradientTransform="matrix(0.9984 0.0559 0.0559 -0.9984 -471.5693 370.0625)" gradientUnits="userSpaceOnUse">
			<stop  offset="0" style="stop-color:#FCF7E3;stop-opacity:0.1176"/>
			<stop  offset="0.6118" style="stop-color:#FDF4DC;stop-opacity:0.0627"/>
			<stop  offset="1" style="stop-color:#FFF0D5;stop-opacity:0"/>
		</radialGradient>
		<path style="fill-rule:evenodd;clip-rule:evenodd;fill:url(#SVGID_1_);" d="M27.25-12.85c0.233-3.767-0.917-7.05-3.45-9.85
			c-2.5-2.8-5.633-4.316-9.4-4.55c-3.767-0.2-7.05,0.95-9.85,3.45c-2.8,2.5-4.316,5.633-4.55,9.4c-0.2,3.767,0.95,7.066,3.45,9.9
			C5.983-1.7,9.133-0.2,12.9,0s7.05-0.95,9.85-3.45C25.55-5.983,27.05-9.117,27.25-12.85z"/>
	</g>
</symbol>
<symbol  id="FlashAICB_x2F_Layer_129_x2F__x3C_Path_x3E__x5F_1" viewBox="-0.038 -43.896 43.934 43.934">
	<g id="Layer_1_5_">
		
			<radialGradient id="SVGID_2_" cx="469.8906" cy="400.665" r="21.9587" gradientTransform="matrix(0.9984 0.0558 0.0558 -0.9984 -469.5977 351.8877)" gradientUnits="userSpaceOnUse">
			<stop  offset="0" style="stop-color:#FCF7E3;stop-opacity:0.1176"/>
			<stop  offset="0.6118" style="stop-color:#FDF4DC;stop-opacity:0.0627"/>
			<stop  offset="1" style="stop-color:#FFF0D5;stop-opacity:0"/>
		</radialGradient>
		<path style="fill-rule:evenodd;clip-rule:evenodd;fill:url(#SVGID_2_);" d="M20.7,0c6.066,0.333,11.367-1.533,15.9-5.6
			c4.5-4.033,6.917-9.083,7.25-15.15c0.367-6.033-1.483-11.317-5.55-15.85c-4.033-4.5-9.083-6.917-15.15-7.25
			c-6.033-0.367-11.316,1.483-15.85,5.55C2.8-34.267,0.367-29.217,0-23.15C-0.333-17.117,1.517-11.833,5.55-7.3
			C9.617-2.8,14.667-0.367,20.7,0z"/>
	</g>
</symbol>
<symbol  id="FlashAICB_x2F_Layer_129_x2F__x3C_Path_x3E__x5F_2" viewBox="-0.016 -17.016 16.982 16.982">
	<g id="Layer_1_4_">
		
			<radialGradient id="SVGID_3_" cx="458.3618" cy="415.8691" r="8.4883" gradientTransform="matrix(0.9984 0.056 0.056 -0.9984 -472.4658 381.0674)" gradientUnits="userSpaceOnUse">
			<stop  offset="0" style="stop-color:#FCF7E3;stop-opacity:0.1176"/>
			<stop  offset="0.6118" style="stop-color:#FDF4DC;stop-opacity:0.0627"/>
			<stop  offset="1" style="stop-color:#FFF0D5;stop-opacity:0"/>
		</radialGradient>
		<path style="fill-rule:evenodd;clip-rule:evenodd;fill:url(#SVGID_3_);" d="M16.95-8.05c0.133-2.333-0.583-4.383-2.15-6.15
			c-1.566-1.733-3.517-2.667-5.85-2.8c-2.333-0.133-4.383,0.583-6.15,2.15C1.067-13.283,0.133-11.333,0-9
			c-0.133,2.367,0.583,4.417,2.15,6.15C3.717-1.117,5.667-0.183,8-0.05s4.383-0.583,6.15-2.15C15.883-3.733,16.817-5.683,16.95-8.05
			z"/>
	</g>
</symbol>
<symbol  id="FlashAICB_x2F_Layer_129_x2F__x3C_Path_x3E__x5F_3" viewBox="-0.015 -17.216 17.231 17.231">
	<g id="Layer_1_3_">
		
			<radialGradient id="SVGID_4_" cx="452.4717" cy="410.376" r="8.6001" gradientTransform="matrix(0.9985 0.0552 0.0552 -0.9985 -465.8467 376.1602)" gradientUnits="userSpaceOnUse">
			<stop  offset="0" style="stop-color:#FCF7E3;stop-opacity:0.1176"/>
			<stop  offset="0.6118" style="stop-color:#FDF4DC;stop-opacity:0.0627"/>
			<stop  offset="1" style="stop-color:#FFF0D5;stop-opacity:0"/>
		</radialGradient>
		<path style="fill-rule:evenodd;clip-rule:evenodd;fill:url(#SVGID_4_);" d="M17.2-8.15c0.133-2.367-0.583-4.434-2.15-6.2
			c-1.6-1.767-3.583-2.717-5.95-2.85s-4.434,0.583-6.2,2.15C1.133-13.45,0.167-11.467,0-9.1c-0.133,2.367,0.6,4.434,2.2,6.2
			C3.8-1.133,5.783-0.167,8.15,0c2.367,0.133,4.434-0.6,6.2-2.2C16.117-3.8,17.067-5.783,17.2-8.15z"/>
	</g>
</symbol>
<symbol  id="FlashAICB_x2F_Layer_129_x2F__x3C_Path_x3E__x5F_4" viewBox="0.037 -11.713 11.725 11.725">
	<g id="Layer_1_2_">
		
			<radialGradient id="SVGID_5_" cx="451.9229" cy="415.0537" r="5.8604" gradientTransform="matrix(0.9985 0.0555 0.0555 -0.9985 -468.3496 383.498)" gradientUnits="userSpaceOnUse">
			<stop  offset="0" style="stop-color:#FCF7E3;stop-opacity:0.1176"/>
			<stop  offset="0.6118" style="stop-color:#FDF4DC;stop-opacity:0.0627"/>
			<stop  offset="1" style="stop-color:#FFF0D5;stop-opacity:0"/>
		</radialGradient>
		<path style="fill-rule:evenodd;clip-rule:evenodd;fill:url(#SVGID_5_);" d="M11.75-5.5c0.1-1.633-0.4-3.05-1.5-4.25
			c-1.067-1.233-2.417-1.883-4.05-1.95c-1.6-0.1-3,0.383-4.2,1.45C0.767-9.15,0.117-7.8,0.05-6.2c-0.1,1.633,0.4,3.05,1.5,4.25
			c1.067,1.233,2.4,1.883,4,1.95C7.183,0.1,8.6-0.4,9.8-1.5C11.033-2.567,11.683-3.9,11.75-5.5z"/>
	</g>
</symbol>
<radialGradient id="SVGID_6_" cx="258.3779" cy="780.6514" r="402.2036" gradientTransform="matrix(0.4449 -0.8956 -0.2696 -0.1339 480.6024 687.3408)" gradientUnits="userSpaceOnUse">
	<stop  offset="0" style="stop-color:#DBFFFF;stop-opacity:0.2471"/>
	<stop  offset="1" style="stop-color:#FFF0D5;stop-opacity:0"/>
</radialGradient>
<path style="fill-rule:evenodd;clip-rule:evenodd;fill:url(#SVGID_6_);" d="M592.228,40.471c3.915,24.66,2.625,56.099-3.872,94.315
	c-6.498,38.217-17.71,80.217-33.638,125.998c-16.48,47.449-36.864,95.598-61.149,144.447
	c-24.276,48.882-50.334,94.202-78.175,135.964c-26.901,40.371-53.61,74.703-80.124,102.995
	c-26.523,28.261-50.804,48.276-72.841,60.048c-22.783,12.213-41.536,14.666-56.262,7.361c-14.693-7.313-24.081-23.742-28.166-49.289
	c-3.883-24.67-2.577-56.112,3.921-94.329c6.506-38.185,17.718-80.184,33.637-125.998c16.482-47.448,36.865-95.597,61.15-144.446
	c24.252-48.841,50.311-94.163,78.175-135.964c26.902-40.371,53.614-74.687,80.137-102.947c26.482-28.284,50.741-48.312,72.78-60.083
	c22.813-12.221,41.567-14.675,56.261-7.362C578.787-1.514,588.176,14.916,592.228,40.471z"/>
<radialGradient id="SVGID_7_" cx="298.6514" cy="841.9707" r="402.2296" gradientTransform="matrix(0.4007 -0.9162 -0.0623 -0.0273 394.9517 595.747)" gradientUnits="userSpaceOnUse">
	<stop  offset="0" style="stop-color:#DBFFFF;stop-opacity:0.1176"/>
	<stop  offset="1" style="stop-color:#FFF0D5;stop-opacity:0"/>
</radialGradient>
<path style="fill-rule:evenodd;clip-rule:evenodd;fill:url(#SVGID_7_);" d="M623.323-69.317
	c6.915,3.013-2.912,41.553-29.481,115.619c-26.57,74.066-62.108,161.993-106.614,263.779
	c-44.508,101.786-84.933,187.571-121.277,257.354c-36.368,69.824-58.026,103.234-64.974,100.23
	c-3.406-1.504-2.44-12.581,2.897-33.232c5.179-19.954,14.048-47.453,26.606-82.496c26.561-74.099,62.099-162.024,106.615-263.779
	c44.483-101.746,84.913-187.514,121.29-257.307c17.177-33.002,31.349-58.161,42.515-75.474
	C612.443-62.589,619.918-70.82,623.323-69.317z"/>
<radialGradient id="SVGID_8_" cx="289.6821" cy="752.3203" r="402.2597" gradientTransform="matrix(0.4782 -0.8782 -0.042 -0.0229 263.394 612.4474)" gradientUnits="userSpaceOnUse">
	<stop  offset="0" style="stop-color:#DBFFFF;stop-opacity:0.0863"/>
	<stop  offset="1" style="stop-color:#FFF0D5;stop-opacity:0"/>
</radialGradient>
<path style="fill-rule:evenodd;clip-rule:evenodd;fill:url(#SVGID_8_);" d="M494.29,84.518
	c40.845-67.158,63.604-99.483,68.279-96.975c4.684,2.542-10.095,39.215-44.336,110.023
	c-34.265,70.848-77.939,155.002-131.025,252.461c-53.077,97.491-100.045,179.853-140.903,247.084
	c-40.835,67.191-63.595,99.516-68.279,96.975c-4.651-2.549,10.131-39.208,44.35-109.975
	c34.249-70.775,77.92-154.945,131.012-252.509C406.464,234.111,453.432,151.75,494.29,84.518z"/>
<radialGradient id="SVGID_9_" cx="113.4785" cy="891.3594" r="362.638" gradientTransform="matrix(0.2325 -0.9726 -0.1507 -0.036 572.36 474.7616)" gradientUnits="userSpaceOnUse">
	<stop  offset="0" style="stop-color:#DBFFFF;stop-opacity:0.2471"/>
	<stop  offset="1" style="stop-color:#FFF0D5;stop-opacity:0"/>
</radialGradient>
<path style="fill-rule:evenodd;clip-rule:evenodd;fill:url(#SVGID_9_);" d="M548.682-20.434
	c7.412,1.775,12.294,12.718,14.646,32.828c2.266,19.408,2.038,45.989-0.686,79.744c-5.81,71.438-20.344,155.841-43.604,253.211
	c-23.291,97.379-48.501,179.225-75.629,245.538c-12.822,31.354-24.645,55.175-35.464,71.463
	c-11.182,16.868-20.479,24.415-27.892,22.64c-7.411-1.775-12.293-12.718-14.644-32.829c-2.267-19.407-2.038-45.988,0.685-79.743
	c5.777-71.429,20.312-155.832,43.604-253.211c23.267-97.338,48.477-179.185,75.629-245.539
	c12.822-31.354,24.644-55.174,35.464-71.463C531.973-14.663,541.27-22.209,548.682-20.434z"/>
<use xlink:href="#FlashAICB_x2F_Layer_129_x2F__x3C_Path_x3E__x5F_4"  width="11.725" height="11.725" x="0.037" y="-11.713" transform="matrix(0.9659 -0.2588 -0.2588 -0.9659 273.5 449.4502)" style="overflow:visible;opacity:0.4805;enable-background:new    ;"/>
<use xlink:href="#FlashAICB_x2F_Layer_129_x2F__x3C_Path_x3E__x5F_3"  width="17.231" height="17.231" x="-0.015" y="-17.216" transform="matrix(0.9659 -0.2588 -0.2588 -0.9659 256.75 499.5498)" style="overflow:visible;opacity:0.4805;enable-background:new    ;"/>
<use xlink:href="#FlashAICB_x2F_Layer_129_x2F__x3C_Path_x3E__x5F_2"  width="16.982" height="16.982" x="-0.016" y="-17.016" transform="matrix(0.9659 -0.2588 -0.2588 -0.9659 335.3999 463.5)" style="overflow:visible;opacity:0.4805;enable-background:new    ;"/>
<use xlink:href="#FlashAICB_x2F_Layer_129_x2F__x3C_Path_x3E__x5F_1"  width="43.934" height="43.934" x="-0.038" y="-43.896" transform="matrix(0.9659 -0.2588 -0.2588 -0.9659 186.8501 552.6504)" style="overflow:visible;opacity:0.4805;enable-background:new    ;"/>
<use xlink:href="#FlashAICB_x2F_Layer_129_x2F__x3C_Path_x3E_"  width="27.302" height="27.295" x="-0.022" y="-27.272" transform="matrix(0.9659 -0.2588 -0.2588 -0.9659 291.25 511.1504)" style="overflow:visible;opacity:0.4805;enable-background:new    ;"/>
</svg>
