<?xml version="1.0" encoding="iso-8859-1"?>
<!-- Generator: Adobe Illustrator 15.1.0, SVG Export Plug-In . SVG Version: 6.00 Build 0)  -->
<!DOCTYPE svg PUBLIC "-//W3C//DTD SVG 1.1//EN" "http://www.w3.org/Graphics/SVG/1.1/DTD/svg11.dtd">
<svg version="1.1" id="FlashAICB" xmlns="http://www.w3.org/2000/svg" xmlns:xlink="http://www.w3.org/1999/xlink" x="0px" y="0px"
	 width="188.9px" height="36.05px" viewBox="0 0 188.9 36.05" style="enable-background:new 0 0 188.9 36.05;" xml:space="preserve"
	>
<g>
	<path style="fill-rule:evenodd;clip-rule:evenodd;fill:#58630A;" d="M56.05,0.85C56.783,1.283,57,2.066,56.7,3.2
		c1.4-0.6,2.35-0.35,2.85,0.75C59.9,4.721,59.784,5.237,59.2,5.5c0.172-0.005,0.322,0.012,0.45,0.05
		c0.233,0.033,0.717,0.25,1.45,0.65c-0.3,0.066-0.65,0.3-1.05,0.7c-0.5,0.433-0.866,0.7-1.1,0.8c0.533,0.033,1.4,0.35,2.6,0.95
		c-1.066,0.867-2.767,1.067-5.1,0.6c-1.667-0.3-2.717,0.55-3.15,2.55c-0.2,0.1-0.3,0.033-0.3-0.2c0.033-0.233,0.05-0.4,0.05-0.5
		c-0.5,1.433-1.333,1.716-2.5,0.85c-1.133-0.8-1.683-1.783-1.65-2.95c-0.367,0.833-0.65,1.283-0.85,1.35
		c-0.333-0.034-0.683,0.017-1.05,0.15c-0.367,0.5-0.783,0.867-1.25,1.1c-0.267,0.133-0.816,0.333-1.65,0.6
		c-0.333-0.067-0.55-0.2-0.65-0.4c-0.1-0.233-0.233-0.467-0.4-0.7c-0.366,0.433-0.717,0.65-1.05,0.65l-0.25-0.9
		c-0.367,0.267-0.9,0.55-1.6,0.85c0.433-0.8,0.7-1.317,0.8-1.55c-0.134-0.2-0.25-0.383-0.35-0.55c-0.267-0.333-0.4-0.45-0.4-0.35
		c-0.3,0.333-0.667,0.517-1.1,0.55c-0.667,0.1-1.1,0.184-1.3,0.25c-0.167-0.733-0.25-1.25-0.25-1.55
		c-0.233,0.967-1.066,1.617-2.5,1.95c-1.1,0.267-2.116,0.316-3.05,0.15c-0.9,0.5-1.917,0.683-3.05,0.55
		c-0.967-0.1-1.884-0.4-2.75-0.9c-1.4,0.4-2.75,0.533-4.05,0.4c-1.633-0.133-2.567-0.7-2.8-1.7c1-0.2,2.933-0.684,5.8-1.45
		c2.6-0.566,4.383-0.65,5.35-0.25c0.5-0.367,1.167-0.6,2-0.7c1.133-0.167,1.783-0.283,1.95-0.35c2.667-0.367,4.083-0.617,4.25-0.75
		c0.466-0.167,0.966-0.5,1.5-1c0.533-0.567,1.017-0.95,1.45-1.15c0.467-0.233,1.133-0.383,2-0.45c0.733-0.067,1.4-0.333,2-0.8
		c1.267,0.233,2.667,0.117,4.2-0.35L49.3,2.35L50,1.8c0.167-0.133,0.467-0.15,0.9-0.05c0.133-0.267,0.333-0.55,0.6-0.85
		c0.467-0.567,0.717-0.867,0.75-0.9c0.167,0.3,0.6,0.833,1.3,1.6C54.483,0.667,55.316,0.417,56.05,0.85z"/>
	<path style="fill-rule:evenodd;clip-rule:evenodd;fill:#495208;" d="M56.45,5.75C56.184,5.184,55.9,4.767,55.6,4.5
		c0.867-0.033,1.9-0.5,3.1-1.4c0.566,0.267,0.883,0.667,0.95,1.2c0.067,0.567-0.167,0.967-0.7,1.2c0.333-0.033,0.65,0,0.95,0.1
		c0.133,0.067,0.534,0.267,1.2,0.6c-0.3,0.066-0.65,0.3-1.05,0.7c-0.5,0.433-0.866,0.7-1.1,0.8c0.533,0.033,1.4,0.35,2.6,0.95
		c-1.066,0.867-2.767,1.067-5.1,0.6c-1.667-0.3-2.717,0.55-3.15,2.55c-0.2,0.1-0.3,0.033-0.3-0.2c0.033-0.233,0.05-0.4,0.05-0.5
		c-0.5,1.433-1.333,1.716-2.5,0.85c-1.133-0.8-1.683-1.783-1.65-2.95c-0.367,0.833-0.65,1.283-0.85,1.35
		c-0.333-0.034-0.683,0.017-1.05,0.15c-0.367,0.5-0.783,0.867-1.25,1.1c-0.267,0.133-0.816,0.333-1.65,0.6
		c-0.333-0.067-0.55-0.2-0.65-0.4c-0.1-0.233-0.233-0.467-0.4-0.7c-0.366,0.433-0.717,0.65-1.05,0.65l-0.3-0.9
		c-0.367,0.267-0.884,0.55-1.55,0.85c0.433-0.8,0.7-1.317,0.8-1.55c-0.134-0.2-0.25-0.383-0.35-0.55c-0.267-0.333-0.4-0.45-0.4-0.35
		c-0.3,0.333-0.667,0.517-1.1,0.55c-0.667,0.1-1.1,0.184-1.3,0.25c-0.167-0.733-0.25-1.25-0.25-1.55
		c-0.233,0.967-1.066,1.617-2.5,1.95c-1.1,0.267-2.116,0.316-3.05,0.15c-0.9,0.5-1.917,0.683-3.05,0.55
		c-0.967-0.1-1.884-0.4-2.75-0.9c-1.167,0.333-2.367,0.483-3.6,0.45c-1.5-0.067-2.483-0.45-2.95-1.15
		c1.367,0.2,3.017,0.233,4.95,0.1c1.066-0.067,2.566-0.216,4.5-0.45c0.733-0.033,2.066-0.217,4-0.55c1.667-0.3,2.983-0.433,3.95-0.4
		c0.7-0.033,1.7,0.033,3,0.2c1.267,0.167,2.2,0.233,2.8,0.2l0.5,0.65c0-0.066,0.05-0.133,0.15-0.2s0.15-0.133,0.15-0.2l0.2,0.9
		c0.033-0.167,0.133-0.417,0.3-0.75c0.2-0.333,0.3-0.533,0.3-0.6c0.5,0.3,1.2,0.467,2.1,0.5c0.1-0.567,0.35-1,0.75-1.3
		c0.033-0.033,0.5-0.317,1.4-0.85c1,0.9,1.85,1.884,2.55,2.95c0.167,0,0.517-0.066,1.05-0.2c0.233-0.6,0.567-1.05,1-1.35
		c0.233-0.134,0.717-0.333,1.45-0.6c0.267,0,0.533-0.083,0.8-0.25c0.2-0.133,0.55-0.117,1.05,0.05C56.767,7.133,56.934,7,57.1,7
		C57,6.867,56.783,6.45,56.45,5.75z"/>
	<path style="fill-rule:evenodd;clip-rule:evenodd;fill:#58630A;" d="M70.75,0.35c0.667-0.2,1.184-0.3,1.55-0.3
		c0.634,0.033,1.283,0.2,1.95,0.5c0.633,0.3,1.2,0.45,1.7,0.45c0.8,0.167,2.1,0.3,3.9,0.4c1.633,0.067,2.966,0.233,4,0.5
		c0.833,0.233,2.2,0.867,4.1,1.9C89.483,4.633,91,5.1,92.5,5.2c0.333,0,0.967-0.117,1.9-0.35c0.866-0.233,1.633-0.3,2.3-0.2
		c0.366,0.067,0.95,0.333,1.75,0.8c0.7,0.4,1.333,0.6,1.899,0.6c-0.732,0.3-1.699,0.467-2.899,0.5c-1.134,0-2.184-0.133-3.15-0.4
		c-3.066,1.034-6.95,1.667-11.65,1.9c-4.7,0.267-8.55,0.033-11.55-0.7c-0.133,0.667-0.367,1.15-0.7,1.45
		c-0.233,0.233-0.733,0.617-1.5,1.15c0,0.066,0.034,0.217,0.1,0.45c0.033,0.267,0,0.483-0.1,0.65c-0.833-0.033-1.367,0.017-1.6,0.15
		c-0.267,0.167-0.533,0.616-0.8,1.35c1,0.333,1.783,0.5,2.35,0.5l-0.8,0.65c0.167,0,0.55,0.116,1.15,0.35
		c0.633,0.267,1.033,0.4,1.2,0.4c-0.067,0.1-0.2,0.167-0.4,0.2c-0.1,0.034-0.15,0.183-0.15,0.45c3.3,0,4.617,0.1,3.95,0.3
		c0.134,0.067,0.4,0.117,0.8,0.15s0.75,0.15,1.05,0.35c-0.533,0.367-0.817,0.733-0.85,1.1c2.367,0.367,3.95,0.767,4.75,1.2
		c-0.3,0-0.883,0.066-1.75,0.2c-0.833,0.133-1.483,0.183-1.95,0.15c0.9,1.134,3.15,2.017,6.75,2.65c4.5,0.8,7.133,1.366,7.9,1.7
		c-0.533,0.433-0.983,0.717-1.35,0.85c0.733,0.434,2.35,1.066,4.85,1.9c2.133,0.699,3.733,1.482,4.8,2.35
		c-1.3,0.133-2.883,0.184-4.75,0.15c-2.1-0.067-3.683-0.117-4.75-0.15c0,0.767-0.417,1.333-1.25,1.7
		c-0.167,0.066-0.983,0.283-2.45,0.649c-1.434,0.167-2.483,0.268-3.15,0.301c-1.2,0.066-2.167-0.233-2.9-0.9
		c-0.3,0.167-0.783,0.3-1.45,0.4c-0.7,0.1-1.1,0.166-1.2,0.199c-1.133,0.334-2.367,0.233-3.7-0.3c-1.467-0.767-2.6-1.316-3.4-1.649
		c-0.3,0.699-0.767,1.3-1.4,1.8c-0.7,0.566-1.483,0.899-2.35,1c-0.167-0.167-0.25-0.317-0.25-0.45c-1.1,0.5-1.95,0.85-2.55,1.05
		c-1.066,0.434-1.983,0.634-2.75,0.601c0.033-0.067,0.05-0.334,0.05-0.801c0.033-0.399,0.2-0.732,0.5-1l-2.1,0.2
		c0-0.133,0.083-0.35,0.25-0.649c0.133-0.233,0.15-0.384,0.05-0.45l-1.85-0.05c0.034,0.033,0-0.084-0.1-0.351
		c-0.113-0.312-0.104-0.495,0.025-0.55c-0.172,0.033-0.331,0.05-0.475,0.05c-0.3,0.033-0.55,0-0.75-0.1v-0.65
		c-0.934,0.434-1.684,0.533-2.25,0.3c-0.6-0.267-0.9-0.833-0.9-1.699c-1.134,0.433-3.7,2.55-7.7,6.35
		c-3.9,3.133-6.833,3.833-8.8,2.1c-0.167-0.1-0.083-0.316,0.25-0.649c-0.333,0.133-0.884,0.2-1.65,0.2
		c-0.967-0.033-1.733-0.2-2.3-0.5c0.4-0.301,1.033-0.634,1.9-1c0.967-0.434,1.583-0.733,1.85-0.9c-0.434,0.167-0.967,0.217-1.6,0.15
		c-0.1-0.233-0.383-0.584-0.85-1.051c-0.3-0.3-0.433-0.699-0.4-1.199c-0.167-0.067-0.433-0.101-0.8-0.101
		c-0.333,0-0.6-0.05-0.8-0.149l0.55-0.4c-0.434,0.066-0.95,0.083-1.55,0.05c-0.7-0.066-1.233-0.116-1.6-0.149
		c-0.534-0.934-0.617-1.717-0.25-2.351c0.366-0.7,1.183-1.083,2.45-1.149c-1.233-0.467-2.2-0.783-2.9-0.95
		c0.233-0.2,0.684-0.417,1.35-0.65L29.6,23.4c-1.133,0.666-2.967,1.217-5.5,1.649c-3.267,0.601-5.233,1-5.9,1.2
		c-0.2-0.167-0.284-0.283-0.25-0.35c0.066-0.101,0.066-0.217,0-0.351c-1.067-0.033-1.95-0.116-2.65-0.25
		c-0.933,0.4-2.3,0.55-4.1,0.45c-2.5-0.167-3.867-0.25-4.1-0.25c-1.333,0.1-2.483,0.133-3.45,0.1C2.617,25.533,1.4,25.367,0,25.1
		c1.333-0.199,2.85-0.533,4.55-1c2.367-0.666,3.867-1.066,4.5-1.199c1.134-0.2,3.333-0.667,6.6-1.4
		c3.034-0.566,5.417-0.65,7.15-0.25c0.767-1.467,2.267-2.167,4.5-2.1c0-0.3-0.083-0.601-0.25-0.9c3.667-1.3,7.217-2.25,10.65-2.85
		c1.133-0.1,2.767-0.216,4.9-0.35c1.867-0.233,3.583-0.7,5.15-1.4c1.767-1.3,2.833-2.083,3.2-2.35c0.433-0.2,1.066-0.6,1.9-1.2
		c0.767-0.567,1.383-0.95,1.85-1.15c1.733-0.533,2.9-0.983,3.5-1.35C59.267,7,59.533,6.066,59,4.8h-1.05
		c0.2-0.6,0.833-1.333,1.9-2.2c0.233,0.033,0.45,0.133,0.65,0.3c0.1,0.1,0.233,0.233,0.4,0.4c0.233-0.6,0.5-1.033,0.8-1.3
		c0.2,0.1,0.466,0.25,0.8,0.45c0.3,0.167,0.566,0.25,0.8,0.25c0.4-0.233,0.884-0.4,1.45-0.5c0.7-0.1,1.184-0.2,1.45-0.3
		c1.133,0.267,2,0.583,2.6,0.95V2.4c0-0.1,0.167-0.383,0.5-0.85c0.2-0.333,0.15-0.633-0.15-0.9C69.483,0.65,70.017,0.55,70.75,0.35z
		"/>
	<g>
		<path style="fill-rule:evenodd;clip-rule:evenodd;fill:#495208;" d="M32.5,21.7c0.5,1.1,0.3,2.2-0.6,3.3
			c0.667,0.3,1.1,0.533,1.3,0.7c-1.134,0.399-1.65,0.933-1.55,1.6c0.067,0.634,0.65,1.15,1.75,1.55
			c-0.233,0.367-0.35,0.768-0.35,1.2c-0.433,0-0.767-0.05-1-0.149l0.55-0.4c-0.434,0.066-0.95,0.083-1.55,0.05
			c-0.7-0.066-1.233-0.116-1.6-0.149c-0.534-0.934-0.617-1.717-0.25-2.351c0.366-0.7,1.183-1.083,2.45-1.149
			c-1.233-0.467-2.2-0.783-2.9-0.95c0.233-0.2,0.684-0.417,1.35-0.65L29.6,23.4c-1.133,0.666-2.967,1.217-5.5,1.649
			c-3.267,0.601-5.233,1-5.9,1.2c-0.2-0.167-0.284-0.283-0.25-0.35c0.066-0.101,0.066-0.217,0-0.351
			c-1.067-0.033-1.95-0.116-2.65-0.25c-0.933,0.4-2.3,0.55-4.1,0.45c-2.5-0.167-3.867-0.25-4.1-0.25
			c-1.333,0.1-2.483,0.133-3.45,0.1C2.617,25.533,1.4,25.367,0,25.1h0.25C3.35,25.4,8.667,25.033,16.2,24
			c6.667-0.9,11.05-1.684,13.15-2.35c0.167,0,0.25,0.149,0.25,0.449c0.066,0,0.2-0.066,0.4-0.199c0.167-0.101,0.3-0.117,0.4-0.051
			c0.167,0.033,0.25,0.184,0.25,0.45C31.717,22.033,32.333,21.833,32.5,21.7z"/>
		<path style="fill-rule:evenodd;clip-rule:evenodd;fill:#495208;" d="M64.45,26.45c0.153,0.227,0.361,0.46,0.625,0.7
			c-0.189-0.011-0.331-0.094-0.425-0.25C64.585,26.706,64.519,26.557,64.45,26.45z M89.3,28c0,0.767-0.417,1.333-1.25,1.7
			c-0.167,0.066-0.983,0.283-2.45,0.649c-1.434,0.167-2.483,0.268-3.15,0.301c-1.2,0.066-2.167-0.233-2.9-0.9
			c-0.3,0.167-0.783,0.3-1.45,0.4c-0.7,0.1-1.1,0.166-1.2,0.199c-1.133,0.334-2.367,0.233-3.7-0.3c-1.467-0.767-2.6-1.316-3.4-1.649
			c-0.3,0.699-0.767,1.3-1.4,1.8c-0.7,0.566-1.483,0.899-2.35,1c-0.167-0.167-0.25-0.317-0.25-0.45c-1.1,0.5-1.95,0.85-2.55,1.05
			c-1.066,0.434-1.983,0.634-2.75,0.601c0.033-0.067,0.05-0.334,0.05-0.801c0.033-0.399,0.2-0.732,0.5-1l-2.1,0.2
			c0-0.133,0.083-0.366,0.25-0.7v0.051c1.933,0.033,3.616-0.233,5.05-0.801c0.133-0.232,0.3-0.6,0.5-1.1
			c0.224-0.513,0.341-0.871,0.35-1.075c0.075,0.073,0.158,0.148,0.25,0.226c0-0.233,0.1-0.617,0.3-1.15
			c0.167-0.5,0.25-0.783,0.25-0.85c0.167,0.467,0.5,1.3,1,2.5c0.034-0.5,0.217-0.934,0.55-1.301c0.466-0.433,0.833-0.8,1.1-1.1
			c0.167,0.133,0.25,0.283,0.25,0.45c0.167,0,0.35-0.067,0.55-0.2c0.167-0.1,0.333-0.1,0.5,0v1.1c1.333,0.768,2.2,1.217,2.6,1.351
			c1.133,0.399,2.283,0.366,3.45-0.101c0-0.6-0.083-1.05-0.25-1.35c0.133,0.133,0.5,0.367,1.1,0.7c0.533,0.3,0.85,0.533,0.95,0.7
			c0.1-0.167,0.116-0.334,0.05-0.5c-0.1-0.2-0.1-0.334,0-0.4c0.167-0.066,0.383,0.017,0.65,0.25c0.233,0.233,0.45,0.316,0.65,0.25
			c0.1-0.267,0.167-0.45,0.2-0.55c0.066-0.2,0.267-0.384,0.6-0.55c0.2,0,0.383,0.083,0.55,0.25c0.2,0.232,0.367,0.383,0.5,0.449
			c0.167-0.066,0.35-0.232,0.55-0.5c0.167-0.267,0.35-0.383,0.55-0.35l0.65,0.65c0.2,0.232,0.4,0.383,0.6,0.449
			c0.1,0.033,0.2-0.066,0.3-0.3c0.1-0.233,0.184-0.35,0.25-0.35c0,0.167,0.167,0.55,0.5,1.149c0.533-0.3,1.167-0.583,1.9-0.85
			c0.1-0.066,0.15-0.167,0.15-0.3c0-0.167,0.033-0.283,0.1-0.351c0.267-0.366,0.883-0.717,1.85-1.05c0.567-0.2,1.483-0.5,2.75-0.899
			c0.867,0.333,2.2,0.783,4,1.35c1.567,0.6,2.817,1.267,3.75,2c-1.3,0.133-2.883,0.184-4.75,0.15
			C91.95,28.083,90.367,28.033,89.3,28z"/>
		<path style="fill-rule:evenodd;clip-rule:evenodd;fill:#495208;" d="M35.85,32.4H35.2c0.167-0.134,0.333-0.2,0.5-0.2L35.85,32.4z"
			/>
		<path style="fill-rule:evenodd;clip-rule:evenodd;fill:#495208;" d="M91.95,5.85c0.7-0.167,1.45-0.483,2.25-0.95
			c0.967-0.267,1.8-0.35,2.5-0.25c0.366,0.067,0.95,0.333,1.75,0.8c0.7,0.4,1.333,0.6,1.899,0.6c-0.732,0.3-1.699,0.467-2.899,0.5
			c-1.134,0-2.184-0.133-3.15-0.4c-3.066,1.034-6.95,1.667-11.65,1.9c-4.7,0.267-8.55,0.033-11.55-0.7
			c-0.133,0.667-0.367,1.15-0.7,1.45c-0.233,0.233-0.733,0.617-1.5,1.15c0,0.066,0.034,0.217,0.1,0.45c0.033,0.267,0,0.483-0.1,0.65
			c-0.833-0.033-1.367,0.017-1.6,0.15c-0.267,0.167-0.533,0.616-0.8,1.35c1,0.333,1.783,0.5,2.35,0.5l-0.8,0.65
			c0.167,0,0.55,0.116,1.15,0.35c0.633,0.267,1.033,0.4,1.2,0.4c-0.067,0.1-0.2,0.167-0.4,0.2c-0.1,0.034-0.15,0.183-0.15,0.45
			c3.3,0,4.617,0.1,3.95,0.3c0.134,0.067,0.4,0.117,0.8,0.15s0.75,0.15,1.05,0.35c-0.533,0.367-0.817,0.733-0.85,1.1
			c2.367,0.367,3.95,0.767,4.75,1.2c-0.3,0-0.883,0.066-1.75,0.2c-0.833,0.133-1.483,0.183-1.95,0.15
			c0.1,0.167,0.316,0.384,0.65,0.65L75.55,19c-3.267-0.566-5.883-1.517-7.85-2.85c-0.367-0.267-1.034-0.983-2-2.15
			c-0.8-0.967-1.583-1.617-2.35-1.95c-0.167-0.9-0.25-1.566-0.25-2c0.066,0.067,0.15,0.233,0.25,0.5c0.066,0.267,0.15,0.4,0.25,0.4
			c0-0.7,0.1-1.217,0.3-1.55v0.85c0.002-0.136,0.086-0.269,0.25-0.4l0.25,0.65L65.5,9c0.1,0.066,0.15,0.233,0.15,0.5
			c0,0.233,0.034,0.35,0.1,0.35c0.566-1,0.934-1.65,1.1-1.95l0.25,0.65c0.833-1.9,2.617-2.967,5.35-3.2c0,0.3,0.066,0.833,0.2,1.6
			c0.967,0,1.583-0.05,1.85-0.15c0.434-0.2,0.717-0.65,0.85-1.35c0.767,0.7,1.283,1.233,1.55,1.6c0.167,0,0.6,0.083,1.3,0.25
			c0.833-0.667,2.15-1,3.95-1c2,0,3.517-0.267,4.55-0.8l0.5,0.9c0.8-0.567,1.633-0.767,2.5-0.6C90.733,6,91.483,6.017,91.95,5.85z"
			/>
		<path style="fill-rule:evenodd;clip-rule:evenodd;fill:#495208;" d="M34.9,32.4c-0.167-0.367-0.4-0.667-0.7-0.9
			c0.267,0.133,0.517,0.217,0.75,0.25l0.2,0.65H34.9z"/>
		<path style="fill-rule:evenodd;clip-rule:evenodd;fill:#495208;" d="M52.5,23.95c0.2,0.033,0.283,0.083,0.25,0.149
			c-0.066,0.134-0.066,0.233,0,0.301c0.5-0.768,0.95-1.25,1.35-1.45c0.533-0.333,1.15-0.333,1.85,0
			c-0.367,0.433-0.634,1.017-0.8,1.75c0.167,0.167,0.5,0.316,1,0.45c0,0.699,0.4,1.467,1.2,2.3c0.966,1.033,1.533,1.783,1.7,2.25
			l-1.6-0.05c-0.1-0.2-0.167-0.367-0.2-0.5c-0.081-0.215-0.064-0.34,0.05-0.375c-0.161,0.017-0.312,0.024-0.45,0.024
			c-0.3,0.033-0.55,0-0.75-0.1v-0.65c-0.934,0.434-1.684,0.533-2.25,0.3c-0.6-0.267-0.9-0.833-0.9-1.699
			c-1.134,0.433-3.7,2.55-7.7,6.35c-3.9,3.133-6.833,3.833-8.8,2.1c-0.167-0.1-0.083-0.316,0.25-0.649
			c-0.333,0.133-0.884,0.2-1.65,0.2c-0.967-0.033-1.733-0.2-2.3-0.5c0.367-0.301,1.417-0.834,3.15-1.601
			c0.167,0.333,0.267,0.517,0.3,0.55c0.566-0.566,0.933-1,1.1-1.3c0.1,0,0.283,0.083,0.55,0.25c0.267,0.167,0.433,0.25,0.5,0.25
			c0.133-0.066,0.316-0.25,0.55-0.55c0.167-0.233,0.333-0.35,0.5-0.35c0.233-0.167,0.4-0.167,0.5,0c0.167,0.166,0.267,0.25,0.3,0.25
			c0.5-0.634,0.767-1,0.8-1.101c0.267,0.2,0.617,0.217,1.05,0.05c0,0.301,0.167,0.75,0.5,1.351c1.333-0.634,2.967-1.934,4.9-3.9
			C49.417,26.05,51.1,24.684,52.5,23.95z"/>
	</g>
	<path style="fill-rule:evenodd;clip-rule:evenodd;fill:#58630A;" d="M102.45,7.7H103c0.1,0.033,0.367,0.083,0.8,0.15
		c0.3,0.067,0.55,0.2,0.75,0.4c-0.667,1.533-2.55,2.3-5.649,2.3c-2.167,0-4.4-0.316-6.7-0.95c1.267-1.8,2.883-3,4.85-3.6
		C99.316,5.267,101.117,5.833,102.45,7.7z"/>
	<path style="fill-rule:evenodd;clip-rule:evenodd;fill:#58630A;" d="M93.625,12.375c2.001,0.324,3.46,0.666,4.375,1.025
		c-0.867,1.034-2.3,1.617-4.3,1.75c-1.867,0.133-3.434-0.167-4.7-0.9c0.6-0.633,1.333-1.1,2.2-1.4
		C91.745,12.69,92.553,12.531,93.625,12.375z"/>
	<path style="fill-rule:evenodd;clip-rule:evenodd;fill:#58630A;" d="M114.6,9.85c-0.433,0-1.232,0.183-2.399,0.55
		c0.267,0.1,0.683,0.284,1.25,0.55c0.5,0.2,0.967,0.3,1.399,0.3c0,0.167-0.083,0.35-0.25,0.55c0.467,0.1,1.067,0.317,1.801,0.65
		c0.8,0.4,1.333,0.633,1.6,0.7c-0.6,0.1-1.383,0.333-2.35,0.7c-1.533,0.6-2.334,0.917-2.4,0.95l1.35,1.35
		c-1.767,0.534-3.083,0.9-3.949,1.1c0-0.2-0.084-0.7-0.25-1.5c-0.134-0.633-0.15-1.05-0.051-1.25c-3.033,0-5.583-0.367-7.649-1.1
		c1.692-0.739,3.626-2.188,5.8-4.35C110.467,8.05,112.5,8.316,114.6,9.85z"/>
	<path style="fill-rule:evenodd;clip-rule:evenodd;fill:#58630A;" d="M137.5,9.1c-1.467-0.133-2.6-0.15-3.4-0.05
		c-4.232,0.6-6.449,0.9-6.649,0.9c-2.733,0-4.833-0.934-6.3-2.8c-3.033,0.2-4.783,0.284-5.25,0.25
		c-1.768-0.067-3.518-0.517-5.25-1.35c3.888-1.325,6.779-2.209,8.675-2.65c-0.283-0.036-0.592-0.07-0.925-0.1
		c-1.2-0.1-2.033-0.183-2.5-0.25c1.6-0.8,3.967-1.383,7.1-1.75c3.5-0.366,5.617-0.05,6.35,0.95c1.101-0.566,2.283-0.7,3.551-0.4
		c1.333,0.3,2.25,0.966,2.75,2c1.6-0.233,4.033,0.15,7.3,1.15c1.767,0.566,4.267,1.367,7.5,2.4c-4.767,1.1-8.017,1.733-9.75,1.9
		C140.367,9.3,139.3,9.233,137.5,9.1z"/>
	<path style="fill-rule:evenodd;clip-rule:evenodd;fill:#58630A;" d="M123.8,19.4c-0.027,0.016-0.052,0.033-0.075,0.05
		c-0.176,0.038-0.351,0.079-0.524,0.125L123.8,19.4z M123.725,19.45c2.238-0.491,4.029-0.224,5.375,0.8
		c-0.633,1.367-2.116,2.2-4.449,2.5c-2.067,0.233-3.934,0.033-5.601-0.6c0.567-0.467,1.333-0.95,2.3-1.45
		C122.421,20.164,123.213,19.748,123.725,19.45z"/>
	<path style="fill-rule:evenodd;clip-rule:evenodd;fill:#58630A;" d="M155.15,18.85c0.866-0.5,1.866-0.617,3-0.35
		c1,0.233,1.85,0.717,2.55,1.45c-0.233,0.066-1.884,0.3-4.95,0.7c-1.767,0.232-3.283,0.732-4.55,1.5c0.8,0.5,2.017,1.1,3.649,1.8
		c1.967,0.8,3.301,1.383,4,1.75c0.101,0.3,0.051,0.45-0.149,0.45c-0.233,0-0.351,0.033-0.351,0.1l0.25,0.05
		c0.167,0.033,0.25,0.101,0.25,0.2c-0.866,0.934-1.649,1.483-2.35,1.65c0,0.967-1.5,1.3-4.5,1c-2.5-0.268-4.517-0.684-6.05-1.25
		c0.399-0.2,0.866-0.65,1.399-1.351c0.601-0.767,1.018-1.233,1.25-1.399c-0.6-0.167-1.482-0.567-2.649-1.2
		c-1.134-0.634-2.017-1.05-2.65-1.25c-0.866-0.267-2.183-0.4-3.95-0.4c-1.732,0-3.05-0.133-3.949-0.399
		c0.666-0.334,1.666-0.75,3-1.25c1.232-0.434,2.166-0.851,2.8-1.25l1.75-1.4c0.733-0.566,1.467-0.917,2.2-1.05l-0.25-0.55
		c0.533-0.167,0.833-0.25,0.899-0.25c0.233,0.034,0.467,0.3,0.7,0.8c0.667-0.567,1.017-0.85,1.05-0.85
		c0.067,0.033,0.417,0.233,1.05,0.6c0.634-0.167,1.167-0.333,1.601-0.5c0.2,0,0.533,0.433,1,1.3
		C152.7,17.267,154.017,17.717,155.15,18.85z"/>
	<path style="fill-rule:evenodd;clip-rule:evenodd;fill:#58630A;" d="M111.4,23.15c0.699,0,1.316,0.217,1.85,0.649
		c-0.133,0.3-0.383,0.667-0.75,1.101c0.066,0.066,0.267,0.116,0.6,0.149c0.301,0.033,0.45,0.15,0.45,0.351
		c0,1.399-1.417,2.083-4.25,2.05c-0.366-0.033-2.3-0.25-5.8-0.65c0.5-0.6,1.45-1.05,2.85-1.35c1.601-0.333,2.684-0.7,3.25-1.101
		l-0.3-0.55C109.967,23.367,110.667,23.15,111.4,23.15z"/>
	<path style="fill-rule:evenodd;clip-rule:evenodd;fill:#58630A;" d="M126.65,30.15c0,0.133-0.067,0.199-0.2,0.199
		c-0.867,0.367-2.184,0.551-3.95,0.551c-0.2,0-0.65-0.15-1.35-0.45c-0.867-0.367-1.384-0.583-1.551-0.65
		c0.601-1,1.483-1.633,2.65-1.899l-0.8-0.301c0.133-0.066,0.233-0.283,0.3-0.649c0.033-0.3,0.2-0.45,0.5-0.45
		c0.167,0.2,0.25,0.566,0.25,1.1c0.8-1,1.6-1.433,2.4-1.3c0.8,0.101,1.133,0.817,1,2.15c0.267,0,0.633,0.083,1.1,0.25
		c0.434,0.167,0.783,0.25,1.05,0.25c-0.333,0.6-0.566,0.917-0.7,0.95c-0.232-0.067-0.533-0.101-0.899-0.101
		C126.583,29.934,126.65,30.05,126.65,30.15z"/>
	<path style="fill-rule:evenodd;clip-rule:evenodd;fill:#58630A;" d="M173.8,11.9c0.567,0.2,1.117,0.433,1.65,0.7l1.35-0.25
		l1.55,2.2L179.15,15c0.699,0.3,1.5,0.45,2.399,0.45c0.8,0,1.317,0.066,1.55,0.2c0.268,0.133,0.533,0.2,0.801,0.2
		c0.899,0,2.482,0.433,4.75,1.3c0.533,0.2-2.367,0.733-8.7,1.6h-7.9c-0.767,0-1.267-0.15-1.5-0.45l-0.1-0.45
		c-0.867,0.333-2.617,0.317-5.25-0.05c-1.634-0.233-2.05-0.45-1.25-0.65c0.433-0.067,1.017-0.133,1.75-0.2
		c-0.333-0.1-0.601-0.184-0.8-0.25c-0.4-0.2-0.217-0.3,0.55-0.3c1.233,0,1.767-0.216,1.6-0.65l1.55-0.7l0.301-1.65l1.55-1.05
		c0.167,0.2,0.517,0.017,1.05-0.55C171.833,11.434,172.6,11.467,173.8,11.9z"/>
	<path style="fill-rule:evenodd;clip-rule:evenodd;fill:#495208;" d="M101,10.45c-1.4,0.366-2.283,0.45-2.65,0.25
		c-0.633,0.366-1.649,0.333-3.05-0.1c-1.633-0.467-2.717-0.667-3.25-0.6c0.333-0.767,0.8-1.167,1.4-1.2c0.4,0,1.066,0.033,2,0.1
		L95.35,8.8c0.434,0.1,0.783,0.1,1.051,0c0.166,0,0.333,0.134,0.5,0.4c0.833-0.467,1.55-0.7,2.149-0.7c0.167,0.1,0.3,0.233,0.4,0.4
		c0.167,0,0.383-0.083,0.649-0.25c0.301,0.1,1.283,0,2.95-0.3c1.267-0.133,1.417,0.233,0.45,1.1
		C103.133,9.75,102.3,10.083,101,10.45z"/>
	<path style="fill-rule:evenodd;clip-rule:evenodd;fill:#495208;" d="M96.9,14.25c0.3,0,0.566,0.184,0.8,0.55
		c-0.101,0-0.3,0.134-0.601,0.4c-0.333,0.333-0.566,0.517-0.699,0.55c-0.268,0.066-0.584,0.15-0.95,0.25l-2.5-0.25
		c-0.367-0.033-0.9-0.2-1.6-0.5c-0.7-0.267-1.25-0.417-1.65-0.45c-0.667-0.033-1.167-0.066-1.5-0.1c-0.6-0.067-1.034-0.217-1.3-0.45
		c0.4,0,0.933-0.1,1.6-0.3c0.767-0.233,1.283-0.367,1.55-0.4l0.4-0.15c0.566,0.433,1.15,0.534,1.75,0.3
		c0.366,0.667,1.216,0.816,2.55,0.45c1.833-0.5,2.816-0.75,2.95-0.75L96.9,14.25z"/>
	<path style="fill-rule:evenodd;clip-rule:evenodd;fill:#495208;" d="M111.7,12.2c0.433,0.1,0.816,0.1,1.149,0
		c-0.699-0.667-1.199-1.184-1.5-1.55c-0.533-0.633-0.467-1.117,0.2-1.45c0.467-0.233,1.033-0.184,1.7,0.15
		c0.566,0.333,1.017,0.733,1.35,1.2c-0.467,0.267-0.816,0.4-1.05,0.4c0.5,0.433,1.333,0.717,2.5,0.85c1.434,0.167,2.3,0.3,2.601,0.4
		c-0.167,0.267-0.467,0.45-0.9,0.55c1.222,0.015,2.105,0.198,2.65,0.55l-0.551,0.4c0.268,0.167,0.584,0.25,0.95,0.25
		c-0.2,0.366-0.683,0.55-1.45,0.55c-1,0-1.616,0.05-1.85,0.15c0,0.167,0.033,0.3,0.1,0.4c-0.399,0.033-1.683,0.583-3.85,1.65
		c-1.5,0.767-2.85,0.667-4.05-0.3c-0.134-0.067-0.267-0.267-0.4-0.6c-0.167-0.366-0.333-0.616-0.5-0.75
		c-0.899-0.267-1.483-0.45-1.75-0.55c-0.866-0.133-2.35-0.316-4.45-0.55c0.5-0.6,1.268-0.9,2.301-0.9
		c1.467,0,2.283-0.017,2.449-0.05c0.101,0,0.801-0.15,2.101-0.45C110.246,12.359,110.996,12.242,111.7,12.2z"/>
	<path style="fill-rule:evenodd;clip-rule:evenodd;fill:#495208;" d="M112.1,26.1c-0.232-0.666-0.267-1.267-0.1-1.8
		c0.167-0.633,0.583-0.8,1.25-0.5c0,0.434-0.033,0.75-0.1,0.95c0.967,0.267,1.1,0.583,0.399,0.95c0.033,1.866-1.417,2.649-4.35,2.35
		c-3.3-0.733-5.333-1.149-6.101-1.25c0.434-0.2,1.768-0.2,4,0c1.834,0.134,2.917-0.183,3.25-0.95l-0.1,0.25
		C110.85,26.267,111.467,26.267,112.1,26.1z"/>
	<path style="fill-rule:evenodd;clip-rule:evenodd;fill:#495208;" d="M118.8,22.3c0.434,0.033,0.917-0.017,1.45-0.149
		c0.3-0.067,0.733-0.2,1.3-0.4c0.3-0.1,0.95-0.184,1.95-0.25c0.833-0.066,1.383-0.167,1.65-0.3l0.1,0.25
		c0.233-0.033,0.717-0.351,1.45-0.95c-0.067-0.167-0.101-0.483-0.101-0.95c0.434,0.134,1.051,0.217,1.851,0.25
		c0.933,0.033,1.583,0.083,1.95,0.15c-0.033,0.066-0.067,0.233-0.101,0.5c0,0.267-0.05,0.467-0.149,0.6
		c0.199-0.066,0.482-0.033,0.85,0.101c0.434,0.133,0.717,0.199,0.85,0.199c-0.366,0.367-1.116,0.634-2.25,0.801
		c0.167,0.166,0.351,0.25,0.551,0.25c-0.467,0.6-1.4,0.783-2.801,0.55c-0.066,0.1-0.149,0.333-0.25,0.7
		c-0.433-0.101-0.783-0.283-1.05-0.551c-0.467,0.367-1.649,0.417-3.55,0.15C120.733,22.983,119.5,22.667,118.8,22.3z"/>
	<path style="fill-rule:evenodd;clip-rule:evenodd;fill:#495208;" d="M130.9,29.8c-0.634,0.533-1.733,0.934-3.301,1.2
		c-1.166,0.2-2.35,0.3-3.55,0.3c-1.3,0-2.866-0.417-4.7-1.25c0.434-0.3,1.268-0.55,2.5-0.75c1.533-0.233,2.4-0.383,2.601-0.45
		c-0.2-0.066-0.233-0.166-0.101-0.3c0.233-0.167,0.367-0.3,0.4-0.399L124.2,28.3c0.733-0.267,1.05-0.816,0.95-1.649
		c0.533,0.166,0.967,0.467,1.3,0.899l0.899,1.15c0.334,0.233,0.851,0.433,1.551,0.6C129.3,29.4,129.967,29.566,130.9,29.8z"/>
	<path style="fill-rule:evenodd;clip-rule:evenodd;fill:#495208;" d="M140.7,9.45c-3.134,0.4-7.533,0.767-13.2,1.1
		c-1.333,0.067-2.566-0.233-3.7-0.9c-1.7-1-2.75-1.567-3.149-1.7c-0.667-0.233-2.434-0.417-5.301-0.55
		c-2.433-0.133-4.05-0.533-4.85-1.2c1.3-0.367,2.184-0.55,2.65-0.55c0.333,0,0.967,0.1,1.899,0.3c0.767,0.167,1.4,0.2,1.9,0.1h-0.5
		c0.1,0,1.399-0.066,3.899-0.2c1.5-0.1,2.783-0.034,3.851,0.2c0.066,0.233,0.183,0.467,0.35,0.7c0.167,0.2,0.267,0.417,0.3,0.65
		c0.067,0,0.367-0.017,0.9-0.05c0.367-0.034,0.65-0.1,0.85-0.2c0.067,0.167,0.184,0.383,0.351,0.65
		c0.366-0.033,0.833-0.133,1.399-0.3c0.533-0.133,0.9-0.2,1.101-0.2c0.267,0,0.517,0.067,0.75,0.2c0.133,0.033,0.333-0.133,0.6-0.5
		c0.733,0.9,1.517,1,2.351,0.3c0.666,0.967,1.199,0.967,1.6,0c0.434,0.5,1.6,0.817,3.5,0.95c1.934,0.167,3.1-0.017,3.5-0.55
		c0.9,0.5,1.55,0.4,1.95-0.3c0.733,0.233,1.733,0.233,3,0c1.333-0.233,2.316-0.267,2.95-0.1c-0.601,0.733-1.967,1.283-4.101,1.65
		C145.316,8.983,143.7,9.15,140.7,9.45z"/>
	<path style="fill-rule:evenodd;clip-rule:evenodd;fill:#495208;" d="M136.45,4.3c-0.634,0.833-1.733,1.317-3.3,1.45
		c-1.5,0.133-2.733-0.083-3.7-0.65c1.775-0.603,2.976-1.127,3.6-1.575c0.036-0.332,0.069-0.59,0.101-0.775
		c0.033-0.367,0-0.684-0.101-0.95c0.634-0.1,1.283,0.2,1.95,0.9C135.367,3.066,135.85,3.6,136.45,4.3z"/>
	<path style="fill-rule:evenodd;clip-rule:evenodd;fill:#495208;" d="M153.65,18.15c1.433,0.667,2.333,1,2.699,1
		c0.5,0,1.334-0.134,2.5-0.4c1.033-0.1,1.733,0.3,2.101,1.2c-0.233,0.333-0.55,0.483-0.95,0.45c-0.566-0.067-0.95-0.084-1.15-0.051
		l-2.1,0.7c-1.566,0-2.883,0.134-3.95,0.4c-1.2,0.399-2.55,0.483-4.05,0.25c-1.767-0.333-3.184-0.55-4.25-0.65
		c0.333-0.333,1.217-0.633,2.65-0.899c1.066-0.2,1.683-0.851,1.85-1.95l-0.15,0.15c-0.066-0.633,0.233-1.017,0.9-1.15
		c0.633-0.167,1.117,0.033,1.45,0.6C151.6,17.467,152.417,17.583,153.65,18.15z"/>
	<path style="fill-rule:evenodd;clip-rule:evenodd;fill:#495208;" d="M153.05,25.3h-0.5c0.634-0.233,1.384-0.517,2.25-0.85
		c0.7-0.167,1.483,0.017,2.351,0.55c0.366,0.2,0.783,0.55,1.25,1.05c0.5,0.5,0.916,0.833,1.25,1c-0.2,0.2-0.617,0.317-1.25,0.351
		c-0.601,0.066-1.018,0.183-1.25,0.35c-0.067,0.1-0.101,0.35-0.101,0.75s-0.05,0.6-0.149,0.6c-0.834,0.768-2.117,0.95-3.851,0.551
		c-0.767-0.268-1.383-0.45-1.85-0.551c-0.233-0.033-0.583-0.033-1.05,0c-0.434,0.067-0.783,0.067-1.051,0
		c-1.767-0.199-3.35-0.566-4.75-1.1c0.4-0.3,1.25-0.533,2.551-0.7c1.467-0.2,2.383-0.366,2.75-0.5c0.366-0.133,0.816-0.399,1.35-0.8
		c0.5-0.267,1.05-0.233,1.65,0.1C152.85,25.733,152.983,25.467,153.05,25.3z"/>
	<path style="fill-rule:evenodd;clip-rule:evenodd;fill:#495208;" d="M177.4,15c0.333,0.467,0.616,0.75,0.85,0.85
		c1.066,0.533,2.816,0.683,5.25,0.45c2.667-0.267,4.467-0.267,5.4,0c-0.5,0.4-1.233,0.7-2.2,0.9c-1.101,0.167-1.9,0.316-2.4,0.45
		c-0.566,0.733-2.066,1.133-4.5,1.2c-0.866,0-2.616-0.083-5.25-0.25c-0.133,0-1.399,0-3.8,0c-1.633,0-2.917-0.133-3.85-0.4
		c0.366-0.1,1.383-0.7,3.05-1.8c1.2-0.8,2.3-1.067,3.3-0.8c0.033-0.333,0.184-0.583,0.45-0.75l0.475-0.4
		c0.259-0.056,0.617-0.155,1.075-0.3c0.566-0.133,1.033-0.15,1.4-0.05C176.816,14.167,177.066,14.467,177.4,15z"/>
	<path style="fill-rule:evenodd;clip-rule:evenodd;fill:#495208;" d="M37.2,18.6l0.55,0.1c0.4,0.066,0.684,0.167,0.85,0.3l0.4,0.3
		l0.4-1.8l-0.1,1c-0.066,0.733-0.033,1.25,0.1,1.55l0.2,0.476V21.6c-0.05-0.05-0.117-0.1-0.2-0.149c-0.2-0.134-0.45-0.217-0.75-0.25
		l-0.35-0.05l-0.95-0.4l1.05-0.35l-0.6-1.15L37.2,18.6z"/>
	<path style="fill-rule:evenodd;clip-rule:evenodd;fill:#495208;" d="M40.9,25.05l2.45-1.149L41.5,25.55l-0.4,1.25l1.95-0.85
		l-0.3,0.55c-0.066,0.6-0.3,0.9-0.7,0.9L40.7,27.3L40,27c-0.066,0.667-0.333,0.9-0.8,0.7l-1.95-0.8L39,26.7l-1.3-0.95l-1.35-0.5
		l2.75,0.4l0.475,0.199c0.009-0.082,0.185-0.549,0.525-1.399l1.5-3.7L40.9,25.05z"/>
	<path style="fill-rule:evenodd;clip-rule:evenodd;fill:#495208;" d="M61.3,16.9l0.15-0.75l-0.05,1.6
		c-0.033,1.167,0.017,1.967,0.15,2.4l0.3,1l0.2-1.4l0.175,0.8c0.055-0.239,0.23-0.505,0.525-0.8l0.75-0.85l-1.05,2.7l-0.1,1.15h-1
		l-0.5-0.25l-1.6-3.4l1.95,1.625c-0.152-0.246-0.202-0.82-0.15-1.725C61.083,18.267,61.167,17.566,61.3,16.9z"/>
	<path style="fill-rule:evenodd;clip-rule:evenodd;fill:#495208;" d="M70.95,21.05c-0.067,0.934-0.034,1.583,0.1,1.95
		c0,0.033,0.067,0.316,0.2,0.85c0.033,0.2,0.184,0.467,0.45,0.801c0.633,0.732,1,1.316,1.1,1.75c0.067,0.267-0.483-0.184-1.65-1.351
		l1.05,2.45c0.133,0.4,0.2,0.783,0.2,1.15c0.067,0.232-0.1,0.267-0.5,0.1c-0.4-0.133-0.683-0.45-0.85-0.95l-1.5-4.2l-0.3-2.85
		l0.8,1.65l0.3,0.399l0.7-3.05L70.95,21.05z"/>
	<path style="fill-rule:evenodd;clip-rule:evenodd;fill:#495208;" d="M79.25,22c0.267,0.133,0.883,0.8,1.85,2L80,23.8
		c-0.267-0.366-0.5-0.733-0.7-1.1C78.9,22.033,78.883,21.8,79.25,22z"/>
	<path style="fill-rule:evenodd;clip-rule:evenodd;fill:#495208;" d="M51.4,13.05c0.133,0.567,0.217,1.117,0.25,1.65
		c0.067,0.9,0.183,1.616,0.35,2.15c0.133-0.8,0.267-1.3,0.4-1.5L52.65,15l0.3,1.05l-0.4,1.55c-0.066,0.466-0.1,0.966-0.1,1.5
		l-1.25-1.45c-0.034-0.333-0.184-0.667-0.45-1c-0.167-0.233-0.417-0.483-0.75-0.75l-0.45-0.3l1.05,0.45V14.5l0.6-2.15L51.4,13.05z"
		/>
	<path style="fill-rule:evenodd;clip-rule:evenodd;fill:#495208;" d="M47.325,16.95l0.525,0.45c0.367,0.333,0.55,0.6,0.55,0.8
		c0,0.333-0.1,0.883-0.3,1.649C47.903,18.208,47.645,17.241,47.325,16.95z"/>
	<path style="fill-rule:evenodd;clip-rule:evenodd;fill:#495208;" d="M65.2,3.85c0.866-0.034,1.2,0.383,1,1.25
		c-0.067,0.433-0.233,0.867-0.5,1.3l-0.4-0.2L65.2,3.85z"/>
	<path style="fill-rule:evenodd;clip-rule:evenodd;fill:#495208;" d="M80.2,4.125L79.7,4.5c-0.4,0.333-0.65,0.6-0.75,0.8l-0.6-1.25
		l-0.5-0.5l1,0.6l0.5-1.8l0.2,1.95C79.55,4.486,79.767,4.428,80.2,4.125z"/>
	<path style="fill-rule:evenodd;clip-rule:evenodd;fill:#495208;" d="M84.55,3.15L83.9,4.5c-0.233,0.4,0.083,0.6,0.95,0.6
		c0.133,0,0.283-0.05,0.45-0.15c0.067-0.033,0.05,0.017-0.05,0.15c-0.133,0.167-0.383,0.25-0.75,0.25c-0.633,0-1.233,0.017-1.8,0.05
		c-0.2,0.034-0.333-0.183-0.4-0.65v-0.7l0.5,0.85c-0.133-0.333,0.134-0.716,0.8-1.15L84.55,3.15z"/>
	<path style="fill-rule:evenodd;clip-rule:evenodd;fill:#495208;" d="M51.75,4.8c-0.4,0.467-0.767,0.634-1.1,0.5
		c-0.2-0.066-0.383-0.283-0.55-0.65l-0.2-0.5L51.75,4.8z"/>
	<path style="fill-rule:evenodd;clip-rule:evenodd;fill:#495208;" d="M44.95,4.7c0.833-0.067,0.866,0.233,0.1,0.9l-0.7,0.3
		c-0.534,0-1.1-0.033-1.7-0.1c-0.5-0.066-0.466-0.25,0.1-0.55S44.05,4.767,44.95,4.7z"/>
	<path style="fill-rule:evenodd;clip-rule:evenodd;fill:#495208;" d="M40,6.2c0.733-0.067,0.934,0.217,0.6,0.85h-1.2
		c0-0.133,0.017-0.267,0.05-0.4C39.517,6.383,39.7,6.233,40,6.2z"/>
	<path style="fill-rule:evenodd;clip-rule:evenodd;fill:#495208;" d="M28.65,7.35c0.5,0.067,0.683,0.267,0.55,0.6l-1.75-0.5
		l0.15-0.1C27.8,7.283,28.15,7.283,28.65,7.35z"/>
	<path style="fill-rule:evenodd;clip-rule:evenodd;fill:#495208;" d="M53.85,2.65c0.367,0,0.466,0.367,0.3,1.1l-0.9-0.5
		c0.033-0.1,0.083-0.2,0.15-0.3C53.533,2.75,53.684,2.65,53.85,2.65z"/>
	<path style="fill-rule:evenodd;clip-rule:evenodd;fill:#495208;" d="M51.4,6.85l-1.15-0.1h0.4c0.467,0,1.067-0.267,1.8-0.8
		l-0.5,0.4L51.8,7.5h-0.55L51.4,6.85z"/>
</g>
</svg>
