<?xml version="1.0" encoding="iso-8859-1"?>
<!-- Generator: Adobe Illustrator 15.1.0, SVG Export Plug-In . SVG Version: 6.00 Build 0)  -->
<!DOCTYPE svg PUBLIC "-//W3C//DTD SVG 1.1//EN" "http://www.w3.org/Graphics/SVG/1.1/DTD/svg11.dtd">
<svg version="1.1" id="FlashAICB" xmlns="http://www.w3.org/2000/svg" xmlns:xlink="http://www.w3.org/1999/xlink" x="0px" y="0px"
	 width="150.45px" height="113.7px" viewBox="0 0 150.45 113.7" style="enable-background:new 0 0 150.45 113.7;"
	 xml:space="preserve">
<path style="fill-rule:evenodd;clip-rule:evenodd;fill:#613A22;" d="M58,101l-1.375,1.075c-6.11,1.49-10.018,2.465-11.725,2.925
	c-1.033,0.3-1.9,0.15-2.6-0.45c-0.9-0.934-1.783-1.684-2.65-2.25l-2.55-1.7l0.25,1.801c0.133,1.3,0.117,2.183-0.05,2.649l-0.85,3
	l-0.2,3.15l1.15,0.899c0.5,0.667,0.017,1.2-1.45,1.601c-4.233-0.2-7.65-0.851-10.25-1.95c-0.716-0.307-1.716-0.615-3-0.925
	c0.545,0.118,0.979,0.227,1.3,0.325c-0.433-0.434-0.717-0.817-0.85-1.15c-0.367-1.134-0.65-1.9-0.85-2.3
	c-0.267-0.634-0.75-0.917-1.45-0.851c-0.133,0-0.983-0.199-2.55-0.6c-0.933-0.267-1.566,0-1.9,0.8
	c-0.166,0.432-0.433,1.273-0.8,2.525c-2.526-0.428-4.31-0.82-5.35-1.175c-1.9-0.634-4.083-3.2-6.55-7.7l-3.15-6.55
	c-0.076-4.374-0.043-7.774,0.1-10.2L0,76.65c0.1-1.301,0.35-2.7,0.75-4.2c0.767-3,1.883-4.983,3.35-5.95l17.05-10.95l4.95-2.05
	c3.7-6.567,6.383-11,8.05-13.3c0.767-1.067,2.567-2.517,5.4-4.35c2.633-1.767,4.367-3.383,5.2-4.85c0.967-1.7,1.95-3.1,2.95-4.2
	l1.15-1.1c1.066-0.733,2.417-1.583,4.05-2.55c3.233-1.933,6.283-3.45,9.15-4.55c2.7-1.033,6.784-3.567,12.25-7.6
	c5.9-4.3,9.033-6.55,9.4-6.75C84.934,3.65,86.983,3,89.85,2.3c1.534-0.367,3.334-0.783,5.4-1.25c1.167-0.333,3.316-0.617,6.45-0.85
	c3.566-0.267,6.633-0.284,9.2-0.05c0.966,0.1,2.983,0.067,6.05-0.1c1.7-0.1,3.467,0.267,5.3,1.1c2.093,0.947,4.668,2.164,7.725,3.65
	c1.362,0.623,2.487,1.173,3.375,1.65c0.555,0.279,1.122,0.563,1.7,0.85l0.075,0.2c0.408,0.25,0.857,0.533,1.35,0.85
	c0.184,0.862,0.275,1.695,0.275,2.5c0,0.65-0.033,1.267-0.1,1.85c-0.072-0.426-0.172-0.875-0.301-1.35l-0.3-0.875
	c0.196,1.11,0.18,2.035-0.05,2.775c-0.321,0.964-2.488,3.181-6.5,6.65c-1.203-0.421-3.786-0.621-7.75-0.6c-0.9,0-2.5,0.184-4.8,0.55
	c-2.7,0.4-4.217,0.617-4.55,0.65c-0.834,0.1-2,0.15-3.5,0.15h-2l6.75,2.95l1.1-0.25c0.8-0.167,1.417-0.233,1.85-0.2
	c0.367,0.033,0.567-0.05,0.601-0.25c0-0.066,0.149,0.033,0.45,0.3c0.633,0.533,1.583,1.883,2.85,4.05
	c-0.934,0.733-3.033,2.383-6.3,4.95c-1.862,1.43-3.588,2.696-5.175,3.8l0.524-0.85l0.9-3.05l5.95-4.75l0.3-1.45
	c-1.834,0.033-3.601-0.066-5.3-0.3c-0.9-0.1-1.717,0-2.45,0.3c-1.134,0.434-2.167,0.733-3.101,0.9
	c-2.033,0.367-4.633,0.983-7.8,1.85c-0.833,0.233-2.3,0.3-4.399,0.2c-2.634-0.133-5.733-0.083-9.301,0.15
	c-1.866,0.133-2.8,0.3-2.8,0.5c0.066,0.533-0.017,0.883-0.25,1.05c-0.467,0.367-0.717,0.534-0.75,0.5
	c-0.1-0.033-0.467,0.083-1.1,0.35c-0.066,0.033-0.834,0.333-2.3,0.9c-0.967,0.367-2.034,0.917-3.2,1.65l-7.9-4.7L61.1,27.5
	c-2.633,0.5-4.367,0.517-5.2,0.05c-0.8-0.466-1.217-0.7-1.25-0.7c-0.333-0.133-0.783-0.117-1.35,0.05
	c-0.167,0.033-0.816,0.033-1.95,0c-0.8-0.033-1.467,0.217-2,0.75L44,33.3l4.35-1.9l5.4-0.45c0.433-0.067,1.2-0.333,2.3-0.8
	c0.567-0.267,1.567-0.267,3,0c0.4,0.067,2.05,0.367,4.95,0.9c1.6,0.3,2.633,0.517,3.1,0.65l6.85,2.25
	c-0.967,0.633-1.383,0.917-1.25,0.85c0.4-0.1,0.367,0.083-0.1,0.55c-0.867,0.967-4.95,3.267-12.25,6.9l9-2.5
	c1.3-0.367,2.117-0.75,2.45-1.15c0.3-0.6,0.717-1.15,1.25-1.65c0.633-0.567,1.317-0.95,2.05-1.15c1-0.267,1.65-0.483,1.95-0.65
	c1-0.5,2.816-1,5.45-1.5c1.767-0.467,3.3-0.783,4.6-0.95c0.4-0.034,1.417-0.083,3.051-0.15c0.933,0,2.05,1.083,3.35,3.25l2.4,0.75
	c1.699,0.5,2.767,0.767,3.199,0.8c0.7,0.033,0.983,0.65,0.851,1.85l2.7-0.4c0.333-0.1,0.583-0.15,0.75-0.15
	c0.5-0.066,1.233-0.183,2.199-0.35c-2.233,1.4-3.216,3.167-2.949,5.3c0.3,2.433,0.133,3.983-0.5,4.65
	c-1.834,1.933-5.017,4.583-9.551,7.95c-5.366,3.967-9.333,6.3-11.899,7l-8.725,2.425c-0.729-0.242-1.47-0.484-2.225-0.725
	c-3.167-0.967-5.017-1.384-5.55-1.25c-1.567,0.333-2.9,0.666-4,1c-2.133,0.666-3.383,1.399-3.75,2.199
	c-0.567,1.301-1.333,3.934-2.3,7.9c-0.9,0.6-1.816,1.366-2.75,2.3c-0.467,0.5-1.3,0.917-2.5,1.25c-0.933,0.267-2.233,0.75-3.9,1.45
	s-3.3,1.267-4.9,1.7c-1.233,0.333-4.483,1.583-9.75,3.75c-5.3,2.133-9.367,3.6-12.2,4.399c-3.2,0.9-6.017,1.233-8.45,1L7,89.95
	c-2.233,0.633-3.917,0.399-5.05-0.7l-0.55-1l0.1,1.15l1,1.8c1.133,1.1,2.8,1.333,5,0.7l2.7,0.6c2.466,0.233,5.3-0.083,8.5-0.95
	c2.833-0.8,6.9-2.283,12.2-4.45c5.267-2.166,8.517-3.416,9.75-3.75c1.6-0.433,3.233-1,4.9-1.699c0.768-0.323,1.46-0.598,2.075-0.825
	L51.15,80.1c0.4-0.133,1.15-0.183,2.25-0.149c0.567,0.033,1.083,0.066,1.55,0.1l2.8,2.7c0.733,0.7,2,1.7,3.8,3
	c1.867,1.366,3.483,2.45,4.85,3.25c1.267,0.7,2.083,1.467,2.45,2.3c0.233,0.533,0.5,1.533,0.8,3c0.533,2.033,0.017,3.517-1.55,4.45
	c-0.8,0.5-1.65,0.783-2.55,0.85l1.55,0.601l1.55-0.25c1.233-0.233,2.25-0.45,3.05-0.65l2.9,2.95c0.333,0.4,0.567,0.8,0.7,1.2
	c0.134,0.533-0.2,1.017-1,1.45c-0.833,0.5-1.917,0.767-3.25,0.8c-3.233-0.033-5.65-0.05-7.25-0.05c-0.8,0-1.216,0.3-1.25,0.899
	c0,0.2-0.4-0.116-1.2-0.95c-1-1-2.033-1.899-3.1-2.699L57.8,102.6c0.407-0.142,0.807-0.309,1.2-0.5
	c0.633-0.267,1.017-0.25,1.15,0.051c0.067,0.1,0.3-0.2,0.7-0.9c0.4-0.667,0.733-0.95,1-0.85c0.1,0.033,0.15-0.367,0.15-1.2
	c0.033-1.267,0.05-2.084,0.05-2.45c0-0.467-0.133-0.884-0.4-1.25c-0.367-0.467-0.633-0.816-0.8-1.05c-0.233-0.4-0.45-0.95-0.65-1.65
	L59.4,89.9L57.65,87.3c0.133-1.2,0-2.1-0.4-2.7c-0.067-0.1-0.067-0.433,0-1c0.067-0.366-0.383-0.816-1.35-1.35l-2.5-1.4l0.7,1.5
	c0.4,1.101,0.533,1.884,0.4,2.351c-0.167,0.566-0.1,1.083,0.2,1.55c0.433,0.6,0.667,1.15,0.7,1.65l-0.85-0.45l-3.1-2.601l-0.75,1.9
	c-0.633,1.267-1.3,1.917-2,1.95v3.8l-2.6,1.8c-0.367,0.267-0.55,0.717-0.55,1.351c0,0.3,0.034,0.583,0.1,0.85l0.25,2l3.8,1.35
	l-0.8,0.7c-0.566,0.566-1,1.117-1.3,1.65c-0.467,0.8-1.817,1.75-4.05,2.85l8.75-2.1C53.367,102.65,55.267,102,58,101z M58.3,97.15
	l-0.875-0.775c0.289,0.24,0.514,0.216,0.675-0.075C58.167,96.2,58.233,96.483,58.3,97.15z M55.85,90.9
	c-0.192-0.384-0.242-0.95-0.15-1.7c0.012,0.05,0.028,0.1,0.05,0.149C55.883,89.717,55.917,90.233,55.85,90.9z M97,87.95
	c-0.521-1.289-1.171-2.772-1.95-4.45l-1.8-3.7l0.7,5.05c0.5,3.467,0.85,5.534,1.05,6.2c0.033,0.134,0.3,0.917,0.8,2.351
	c0.3,0.899,0.45,1.616,0.45,2.149c0.033,0.934-1.25,3.367-3.85,7.3c-0.167-0.366-0.384-0.649-0.65-0.85
	c-0.6-0.4-1.217-0.217-1.85,0.55l-1.551,1.8c-0.033-0.399-0.199-0.767-0.5-1.1c-0.533-0.733-1.366-1.017-2.5-0.85
	c-0.866,0.133-1.35,0.649-1.449,1.55c-0.034,0.3-0.434-0.084-1.2-1.15l-5-6.899c-0.8-3.7-1.05-6.634-0.75-8.801
	c0.366-1.866,0.583-3.166,0.649-3.899c0.134-1.134,0.067-2.184-0.199-3.15c-0.067-0.267-0.601-1.717-1.601-4.35
	c-0.767-2-1.133-3.417-1.1-4.25c0.033-0.867-0.017-1.967-0.15-3.3L74.4,67.05l6.85-1.899c2.533-0.7,6.483-3.034,11.85-7
	c4.534-3.367,7.733-6.017,9.601-7.95c0.633-0.7,0.8-2.25,0.5-4.65c-0.191-1.525,0.259-2.867,1.35-4.025
	c-0.231,0.485-0.431,1.052-0.6,1.7c-0.841,3.237-0.508,5.429,1,6.575c0.896,0.663,1.446,1.346,1.649,2.05
	c0.434,1.6,0.95,3.8,1.551,6.6c0.767,3.767,1.066,6.184,0.899,7.25c-0.1,0.866-0.217,1.55-0.35,2.05
	c-0.066,0.366-0.017,1.083,0.149,2.15c0.167,1.033,0.2,1.983,0.101,2.85c-0.134,1-0.184,1.684-0.15,2.05
	c0.033,0.467,0.017,1.4-0.05,2.8c-0.1,1.334-0.1,2.367,0,3.101c0.066,0.666,0.167,1.233,0.3,1.7c0.066,0.333-0.033,1.033-0.3,2.1
	c-0.2,0.866-0.4,2.05-0.6,3.55c-0.233,1.134-0.65,1.851-1.25,2.15c-0.534,0.267-1.301,0.916-2.301,1.95
	c-0.966,1-1.6,1.55-1.899,1.649c-1.803,0.479-3.228-0.288-4.275-2.3c-0.13-0.865-0.071-1.683,0.175-2.45
	c0.301-0.934,0.417-1.8,0.351-2.6c-0.134-0.834-0.2-1.483-0.2-1.95c-0.1-1.134-0.184-2.267-0.25-3.4
	c-0.033-0.267-0.167-0.949-0.4-2.05c-0.133-0.666-0.116-1.217,0.051-1.649c0.1-0.301,0.1-0.75,0-1.351
	c-0.067-0.434,0.05-0.816,0.35-1.149c0.267-0.301,0.35-0.301,0.25,0c-0.033,0.1,0.134-0.2,0.5-0.9l1.15-2.1
	c0.333-0.567,1.017-1.434,2.05-2.601c0.267-0.3,0.25-0.383-0.05-0.25l0.85-0.7c0.8-0.633,2.017-1.267,3.65-1.899
	c0.8-0.3,1.517-0.55,2.149-0.75l-5.1-1c-1.3,2-2.267,3.083-2.9,3.25l-3.149,1.2L97.55,69.4c-0.267,0.267-0.483,0.633-0.649,1.1
	c-0.334,1-0.517,1.967-0.551,2.9c0,0.233,0.067,0.733,0.2,1.5c0.101,0.6,0.084,1.116-0.05,1.55c-0.267,0.767-0.384,1.616-0.35,2.55
	L96,79.8c-0.1,0.667-0.134,1.351-0.1,2.05c0.1,1.2,0.383,2.617,0.85,4.25C96.796,86.239,96.88,86.855,97,87.95z M118.8,65.525
	c0.122-0.062,0.256-0.12,0.4-0.176c0.434-0.166,0.467-0.649,0.1-1.449c-0.467-1.034-1.217-1.834-2.25-2.4
	c-0.313-0.156-0.588-0.265-0.825-0.325c0.734-0.854,1.126-2.047,1.176-3.575c0.067-2.002,0.284-4.219,0.649-6.649
	c0.359-2.425,0.718-3.717,1.075-3.875c0.354-0.151,0.986,2.583,1.9,8.2c0.921,5.61,2.021,8.493,3.3,8.65
	c1.271,0.16,2.245-0.931,2.925-3.274c1.114,3.169,1.981,5.502,2.6,7c0.247-0.179,0.489-0.354,0.726-0.525
	c-0.025,0.397-0.033,0.822-0.025,1.275c-0.066,1.399,0.267,1.767,1,1.1c0.434-0.366,0.816-1.05,1.15-2.05
	c0.366-1.066,0.649-1.717,0.85-1.95l0.476-0.575c1.028-0.544,1.736-0.77,2.125-0.675c0.791,0.193,1.133,1.077,1.024,2.65
	c-0.064,0.896,0.135,1.829,0.601,2.8c0.02,0.574-0.105,1.29-0.375,2.149c-0.4,1.134-0.917,2.15-1.551,3.051
	c-0.5,0.699-0.733,1.716-0.699,3.05c0.033,0.733,0.1,1.6,0.199,2.6c0,0.288,0.017,0.604,0.051,0.95
	c-0.542-0.372-1.142-0.839-1.801-1.4c-0.601,0.931-0.992,1.822-1.175,2.676c-0.186,0.859-0.936,1.268-2.25,1.225
	c-1.309-0.046-2.767-3.063-4.375-9.05c-0.53,3.533-1.131,5.3-1.8,5.3c-0.489,0-0.731,0.384-0.725,1.15
	c-1.218-4.868-1.893-7.502-2.025-7.9c-0.267-0.8-0.884-1.983-1.85-3.55c-0.767-1.2-1.15-2.25-1.15-3.15c0-0.3,0.066-0.55,0.2-0.75
	C118.581,65.853,118.698,65.678,118.8,65.525z M107.275,39.525c2.202-1.46,4.693-3.268,7.475-5.425
	c3.267-2.567,5.366-4.217,6.3-4.95c2.5-1.867,5.351-4.183,8.55-6.95c2.286-1.967,4.012-3.551,5.176-4.75
	c-1.099,2.004-1.807,3.404-2.125,4.2c-0.301,0.767-1.217,1.684-2.75,2.75c-1.634,1.133-2.601,1.917-2.9,2.35
	c-0.634,1.1-1.184,1.95-1.65,2.55c-0.767,1.067-1.666,1.967-2.699,2.7c-1.033,0.704-2.042,1.037-3.025,1
	c-0.985-0.044-1.593,0.389-1.825,1.3c-0.231,0.915-1.031,3.082-2.399,6.5c-2.112,0.391-4.337,0.083-6.676-0.925
	C108.205,39.652,107.722,39.535,107.275,39.525z M133.1,11.75l-0.449-0.7l-2.75,0.1c-0.567,0.033-1.217-0.133-1.95-0.5
	c-1-0.533-1.9-0.983-2.7-1.35c-0.8-0.333-1.184-0.466-1.15-0.4c0.067,0.233-0.267,0.333-1,0.3c-0.767-0.034-1.566,0.083-2.399,0.35
	c-0.867,0.333-1.483,0.5-1.851,0.5c-0.199,0-0.983,0.133-2.35,0.4c-1.366,0.267-2.917,0.433-4.65,0.5
	c-1.566,0.066-2.566,0.183-3,0.35c-0.633,0.267-1.616,0.483-2.949,0.65c-1.801,0.2-3.367,0.55-4.7,1.05l-1.4,0.65l1.601-0.45
	l5.55,2.6l1.7,0.45c1.233,0.3,2.133,0.433,2.699,0.4c0.233,0,1.167,0.067,2.801,0.2c1.366,0.133,2.3,0.117,2.8-0.05l4.8-1.3
	l2.55,0.95c1.867,0.7,3.2,1.15,4,1.35c0.733,0.233,1.2,0.15,1.4-0.25c0.133-0.566,0.316-1,0.55-1.3
	c0.167-0.167,0.717-0.633,1.65-1.4c0.767-0.6,1.216-1.117,1.35-1.55C133.417,12.833,133.366,12.317,133.1,11.75z M133.375,46.875
	c0.32,5.089,0.962,8.256,1.925,9.5c0.966,1.247,1.366,2.072,1.2,2.475c-0.366,0.934-1.167,1.4-2.4,1.4c-1.6,0-2.833-1.333-3.699-4
	c-0.604-2.63-0.712-5.405-0.325-8.325c0.393-2.924,0.959-5.099,1.7-6.525C132.517,39.965,133.051,41.79,133.375,46.875z M84.95,46.1
	L79.6,45.55L81,49.3c1.6,0,2.95-0.5,4.05-1.5L84.95,46.1z M85.3,95.85l2.25,3.2c-0.399-0.6-0.633-1.467-0.7-2.6L86.7,92.35L87.75,91
	c0.7,0.033,1.033-0.4,1-1.3l-0.05-1.4l1.25-1.7l1.55-5.649L85.95,87c-0.533,0.634-1.25,1.417-2.15,2.35l0.25,2L85.3,95.85z
	 M92.6,61.6c-0.267,0.334-0.483,0.634-0.649,0.9l0.5,1.95l2.649-0.4l0.95-1.649l-1.7-2.301C93.717,60.434,93.134,60.934,92.6,61.6z
	 M84.175,70.15L80.4,70.9l-0.25,0.649c-0.167,0.566-0.301,1.217-0.4,1.95c-0.134,1.1-0.184,1.783-0.15,2.05
	c0,0.533,0.134,0.983,0.4,1.351c0.2,0.3,0.667,1.017,1.4,2.149c0.699,0.967,1.267,1.467,1.699,1.5l1.051,0.05
	c0.267-0.133,0.483-0.316,0.649-0.55c0.367-0.533,0.4-1.116,0.101-1.75c-0.034-0.066-0.351-0.533-0.95-1.399
	c-0.233-0.334-0.3-0.801-0.2-1.4l0.825-4.675c0.209,0.359,0.4,0.65,0.575,0.875c0.399,0.5,0.6,0.95,0.6,1.35
	C85.816,73.884,85.9,74.5,86,74.9c0.066,0.267,0.333,1.017,0.8,2.25c0.233,0.666,0.334,1.199,0.3,1.6c0,0.366,0.134,0.417,0.4,0.15
	c0.1-0.067-0.05,0.233-0.45,0.899c-0.5,0.867-1.283,1.634-2.35,2.3c-0.5,0.134-0.967,0.301-1.4,0.5l-0.85,0.551
	c0.833-0.334,1.583-0.684,2.25-1.051c0.366-0.1,0.767-0.183,1.2-0.25c0.767-0.1,1.316-0.017,1.649,0.25
	c0.101,0.067,0.316-0.116,0.65-0.55c0.366-0.434,0.5-0.649,0.399-0.649c0,0.033,0.217-0.2,0.65-0.7l1.3-1.4l0.9,0.351
	c0.6,0.1,0.983-0.084,1.149-0.551c0.233-0.733,0.084-2.083-0.449-4.05C92.05,74.15,91.9,74.1,91.7,74.4
	c-0.033,0.1,0-0.267,0.1-1.101c0.134-1.066,0.101-2.3-0.1-3.7l-0.351-1.75L89.3,66.7l-1.45,3.55c-2.1-1.733-3.566-2.833-4.399-3.3
	l-1.2-0.7l1.05,2.2C83.619,69.102,83.91,69.668,84.175,70.15z M139.3,71.95c0.134,0.236,0.259,1.062,0.375,2.475
	c0.116,1.406,0.066,3.498-0.149,6.275c-0.158,2.025-1.25,2.467-3.275,1.325c1.038-1.203,1.988-2.161,2.85-2.875
	c-0.1-0.4-0.133-0.983-0.1-1.75l0.05-1l0.4-2.2l-1.375-3.925C138.403,70.818,138.812,71.377,139.3,71.95z M70.6,19.35l-11.05,2.7
	c3.333,1,5.9,1.9,7.7,2.7c1.3,0.567,3.683,1.283,7.15,2.15l3.65,3.15l0.75,0.45c0.467,0.033,0.667-0.583,0.601-1.85l-0.5-6.8
	c-0.233-0.867-0.7-1.317-1.4-1.35c-0.434-0.033-1.116-0.167-2.05-0.4l-1.3-0.4c-0.433-0.1-0.9-0.2-1.4-0.3
	C71.717,19.233,71,19.217,70.6,19.35z M54.25,36.75c-0.633,1.167-0.333,1.75,0.9,1.75c3.533,0,5.65-0.25,6.35-0.75
	c0.367-0.233,0.833-0.467,1.4-0.7c0.3-0.1,0.55-0.183,0.75-0.25l-0.2-2c-2.8-0.133-4.867-0.133-6.2,0
	C55.917,34.967,54.917,35.617,54.25,36.75z M74.05,47.5c-0.2,0.5-0.35,0.983-0.45,1.45l1.5,1.65l3.25,0.45
	c0.801-0.433,1.117-0.966,0.95-1.6c-0.033-0.967-0.184-1.717-0.45-2.25c-0.5-1-1.6-1.417-3.3-1.25
	C74.95,46.017,74.45,46.533,74.05,47.5z M31.85,54.3l-2.9-0.55l2.85,1c2.167,0.667,3.817,0.983,4.95,0.95
	c1.067-0.034,2.067,0.083,3,0.35c1,0.3,1.567,0.45,1.7,0.45c0.7,0.033,1.25,0.866,1.65,2.5c0.433,1.8,1.133,2.917,2.1,3.35l7.9,3.7
	c-0.1-0.434-0.55-1.233-1.35-2.399c-0.533-0.934-0.9-1.567-1.1-1.9c-0.333-0.467-0.85-0.967-1.55-1.5c-0.3-0.2-1-0.616-2.1-1.25
	c-0.533-0.3-0.85-0.634-0.95-1c-0.267-1.8-0.6-2.983-1-3.55c-0.867-1.333-1.75-2.017-2.65-2.05c-0.633-0.033-1.583,0.017-2.85,0.15
	c-1.466,0.167-2.633,0.367-3.5,0.6L31.85,54.3z M27.1,67.05c1.3,0.5,2.283,0.8,2.95,0.9c1.167,0.2,1.8-0.084,1.9-0.851
	c0.066-0.6,0.3-0.949,0.7-1.05c0.133-0.033-0.033-0.283-0.5-0.75c-0.566-0.566-2.033-0.833-4.4-0.8l-3.4,0.2
	c0.667,0.866,1.066,1.366,1.2,1.5C25.883,66.5,26.4,66.783,27.1,67.05z M23.45,72.55c1.167,0.834,2.033,1.05,2.6,0.65
	c0.6-0.367,0.983-1.05,1.15-2.05l-4.9-2.75c-0.533,0.166-0.966,0.066-1.3-0.301c-0.133-0.1-0.233,0.15-0.3,0.75
	c-0.067,0.733,0.367,1.567,1.3,2.5C22.467,71.816,22.95,72.217,23.45,72.55z M12.8,80.35c0.633-0.166,0.85-0.649,0.65-1.449
	c-0.233-0.801-0.717-1.284-1.45-1.45c-1.033-0.2-1.667,0.017-1.9,0.649c-0.133,0.301-0.15,0.617-0.05,0.95l0.9,0.8
	C11.65,80.316,12.267,80.483,12.8,80.35z M15.45,82.4c2.566-0.733,4.083-1.5,4.55-2.301c0.6-0.566,0.983-0.949,1.15-1.149
	c0.267-0.3,0.1-0.783-0.5-1.45c-0.633-0.7-1.633-1.134-3-1.3l-1.9-0.101C15.983,77.634,15.883,79.733,15.45,82.4z M8.6,96.4
	c0.4,1.466,0.816,2.517,1.25,3.149c0.4,0.566,1.517,1.283,3.35,2.15c0.133-1.033-0.133-2.3-0.8-3.8L11.3,96l-1.45-1.35L8.1,94.5
	L8.6,96.4z M31.025,97.325c-0.313,0.119-0.688,0.244-1.125,0.375c-0.633,0.166-0.933,0.5-0.9,1c0,0.934,0.15,1.934,0.45,3l-1.4,1.05
	c-0.6,0.4-1.867,0.866-3.8,1.4h-2.4c4.333,0.633,6.967,0.583,7.9-0.15c0.9-0.5,1.517-0.866,1.85-1.1c0.5-0.334,0.816-0.801,0.95-1.4
	c0.1-0.467-0.05-0.783-0.45-0.95c-0.133-0.033,0.1-0.2,0.7-0.5l1.85-0.85c0.967,0.2,1.55-0.2,1.75-1.2
	c0.067-0.333,0.317-1.017,0.75-2.05c0.3-0.733,0.4-1.283,0.3-1.65c-0.1-0.333-0.034-0.399,0.2-0.2c0.067,0.067-0.1-0.199-0.5-0.8
	L36,91.55c-0.5-0.733-1.367-1.267-2.6-1.6l-1.75-0.3l1.4,3.75v1.3c-0.133,0.967-0.5,1.684-1.1,2.149l-0.2-4.449l-0.4-1.301
	l-4.2-0.199c-0.633,0.3-1.517,0.816-2.65,1.55c-0.567,0.366-1.067,0.7-1.5,1l1.45,1.35l1.9,0.7c1.333,0.5,2.217,0.767,2.65,0.8
	c0.167,0,0.8,0.316,1.9,0.95C30.944,97.274,30.986,97.299,31.025,97.325z M21.8,98.95L22,101l-0.15,1.05
	c0.1,0.667,0.55,0.9,1.35,0.7l3.5-1c0.433-0.1,0.833,0.017,1.2,0.35c0.133,0.101,0.167-0.133,0.1-0.699l-0.1-1.7L24.45,98.6
	c-0.434-0.033-1,0.017-1.7,0.15L21.8,98.95z M61.7,57.1c0.167-0.633,0.2-1.283,0.1-1.95c-0.167-1.333-0.933-2.1-2.3-2.3
	c-1.367-0.2-3.667-0.184-6.9,0.05l-4.45,0.35c0.667,0.667,1.567,1.45,2.7,2.35c0.633,0.467,1.017,0.933,1.15,1.4
	c0.133,0.434,0.15,0.9,0.05,1.4c0.034,0.433,0.383,0.899,1.05,1.399c1.9,1.367,4.217,2.233,6.95,2.601c1.667,0.199,4.333-0.2,8-1.2
	L61.7,57.1z M46.05,71.8l-4.35,2.95l-2.2,3.4l2.2-0.301c1.833-0.333,3.6-0.816,5.3-1.449c2.167-0.801,3.667-1.417,4.5-1.851
	c0.967-0.533,1.467-1.05,1.5-1.55c0.333-0.667,0.567-1.15,0.7-1.45c0.233-0.533-0.034-0.967-0.8-1.3
	c-0.633-0.267-1.35-0.634-2.15-1.1c-0.7-0.4-1.317-0.7-1.85-0.9l-4.25-1.6L46.05,71.8z"/>
<path style="fill-rule:evenodd;clip-rule:evenodd;fill:#6D4126;" d="M58.3,97.15c0.133,1.333,0.034,2.616-0.3,3.85
	c-2.733,1-4.633,1.65-5.7,1.95l-8.75,2.1c2.233-1.1,3.583-2.05,4.05-2.85c0.3-0.533,0.733-1.084,1.3-1.65l0.8-0.7l-3.8-1.35l-0.25-2
	c-0.066-0.267-0.1-0.55-0.1-0.85c0-0.634,0.184-1.084,0.55-1.351l2.6-1.8v-3.8c0.7-0.033,1.367-0.684,2-1.95l0.75-1.9l3.1,2.601
	l0.85,0.45c0.267,0.166,0.367,0.566,0.3,1.199c-0.004,0.034-0.004,0.067,0,0.101c-0.092,0.75-0.042,1.316,0.15,1.7
	c0.467,0.8,0.4,1.383-0.2,1.75l1.75,3.699l0.025,0.025L58.3,97.15z M71.7,99.3c-0.8,0.2-1.817,0.417-3.05,0.65l-1.55,0.25
	L65.55,99.6c0.9-0.066,1.75-0.35,2.55-0.85c1.566-0.934,2.083-2.417,1.55-4.45c-0.3-1.467-0.566-2.467-0.8-3
	c-0.367-0.833-1.184-1.6-2.45-2.3c-1.367-0.8-2.983-1.884-4.85-3.25c-1.8-1.3-3.066-2.3-3.8-3l-2.8-2.7
	c-0.467-0.033-0.983-0.066-1.55-0.1c-1.1-0.033-1.85,0.017-2.25,0.149l-3.525,0.726c-0.615,0.228-1.307,0.502-2.075,0.825
	c-1.667,0.699-3.3,1.267-4.9,1.699c-1.233,0.334-4.483,1.584-9.75,3.75c-5.3,2.167-9.367,3.65-12.2,4.45
	c-3.2,0.867-6.034,1.184-8.5,0.95l-2.7-0.6c-2.2,0.633-3.867,0.399-5-0.7l-1-1.8l-0.1-1.15l0.55,1c1.133,1.1,2.816,1.333,5.05,0.7
	L9.7,90.6c2.433,0.233,5.25-0.1,8.45-1c2.833-0.8,6.9-2.267,12.2-4.399c5.267-2.167,8.517-3.417,9.75-3.75
	c1.6-0.434,3.233-1,4.9-1.7s2.967-1.184,3.9-1.45c1.2-0.333,2.033-0.75,2.5-1.25c0.934-0.934,1.85-1.7,2.75-2.3l3.75,4.85l8.4,7.101
	c0.721,0.69,1.404,1.273,2.05,1.75l2.1,2.6c1.367,1.967,1.95,3.634,1.75,5L71.7,99.3z M118.8,65.525
	c0.211-0.316,0.36-0.541,0.45-0.676c-3.771-1.133-5.037-2.125-3.8-2.975c0.292-0.2,0.55-0.434,0.774-0.7
	c0.237,0.061,0.513,0.169,0.825,0.325c1.033,0.566,1.783,1.366,2.25,2.4c0.367,0.8,0.334,1.283-0.1,1.449
	C119.056,65.405,118.922,65.464,118.8,65.525z M104.55,41.525c-1.091,1.158-1.541,2.5-1.35,4.025c0.3,2.4,0.133,3.95-0.5,4.65
	c-1.867,1.933-5.066,4.583-9.601,7.95c-5.366,3.966-9.316,6.3-11.85,7L74.4,67.05L74.3,66.4c-0.76-0.26-1.535-0.518-2.325-0.775
	L80.7,63.2c2.566-0.7,6.533-3.033,11.899-7c4.534-3.367,7.717-6.017,9.551-7.95c0.633-0.667,0.8-2.217,0.5-4.65
	c-0.267-2.133,0.716-3.9,2.949-5.3c1.267-0.2,2.301-0.783,3.101-1.75l0.325-0.55c1.587-1.104,3.313-2.37,5.175-3.8
	c3.267-2.567,5.366-4.217,6.3-4.95c-1.267-2.167-2.217-3.517-2.85-4.05c-0.301-0.267-0.45-0.367-0.45-0.3
	c-0.033,0.2-0.233,0.283-0.601,0.25c-0.433-0.033-1.05,0.033-1.85,0.2l-1.1,0.25l-6.75-2.95h2c1.5,0,2.666-0.05,3.5-0.15
	c0.333-0.033,1.85-0.25,4.55-0.65c2.3-0.367,3.899-0.55,4.8-0.55c3.964-0.021,6.547,0.179,7.75,0.6
	c4.012-3.469,6.179-5.686,6.5-6.65c0.229-0.74,0.246-1.665,0.05-2.775l0.3,0.875c0.129,0.475,0.229,0.924,0.301,1.35
	c-0.161,1.189-0.478,2.223-0.95,3.1c-0.334,0.592-0.642,1.143-0.925,1.65c-1.164,1.199-2.89,2.783-5.176,4.75
	c-3.199,2.767-6.05,5.083-8.55,6.95c-0.934,0.733-3.033,2.383-6.3,4.95c-2.781,2.157-5.272,3.965-7.475,5.425
	C106.117,39.484,105.208,40.15,104.55,41.525z M98.425,91.5c-0.185-0.378-0.359-0.795-0.524-1.25c-0.241-0.682-0.541-1.448-0.9-2.3
	c-0.12-1.095-0.204-1.711-0.25-1.851c-0.467-1.633-0.75-3.05-0.85-4.25c-0.034-0.699,0-1.383,0.1-2.05l0.15-0.8
	c-0.034-0.934,0.083-1.783,0.35-2.55c0.134-0.434,0.15-0.95,0.05-1.55c-0.133-0.767-0.2-1.267-0.2-1.5
	c0.034-0.934,0.217-1.9,0.551-2.9c0.166-0.467,0.383-0.833,0.649-1.1l0.351-0.25l3.149-1.2c0.634-0.167,1.601-1.25,2.9-3.25l5.1,1
	c-0.633,0.2-1.35,0.45-2.149,0.75c-1.634,0.633-2.851,1.267-3.65,1.899l-0.85,0.7c0.3-0.133,0.316-0.05,0.05,0.25
	c-1.033,1.167-1.717,2.033-2.05,2.601L99.25,74c-0.366,0.7-0.533,1-0.5,0.9c0.1-0.301,0.017-0.301-0.25,0
	c-0.3,0.333-0.417,0.716-0.35,1.149c0.1,0.601,0.1,1.05,0,1.351c-0.167,0.433-0.184,0.983-0.051,1.649
	c0.233,1.101,0.367,1.783,0.4,2.05c0.066,1.134,0.15,2.267,0.25,3.4c0,0.467,0.066,1.116,0.2,1.95c0.066,0.8-0.05,1.666-0.351,2.6
	C98.354,89.817,98.295,90.635,98.425,91.5z M73.95,33.95L67.1,31.7c-0.467-0.133-1.5-0.35-3.1-0.65c-2.9-0.533-4.55-0.833-4.95-0.9
	c-1.433-0.267-2.433-0.267-3,0c-1.1,0.467-1.867,0.733-2.3,0.8l-5.4,0.45L44,33.3l5.35-5.65c0.533-0.533,1.2-0.783,2-0.75
	c1.133,0.033,1.783,0.033,1.95,0c0.567-0.167,1.017-0.183,1.35-0.05c0.033,0,0.45,0.233,1.25,0.7c0.833,0.467,2.567,0.45,5.2-0.05
	l4.95,1.75L73.95,33.95z M130.575,67.125c1.4-0.982,2.55-1.716,3.45-2.2L133.55,65.5c-0.2,0.233-0.483,0.884-0.85,1.95
	c-0.334,1-0.717,1.684-1.15,2.05c-0.733,0.667-1.066,0.3-1-1.1C130.542,67.947,130.55,67.522,130.575,67.125z M85.3,95.85l-1.25-4.5
	l-0.25-2c0.9-0.933,1.617-1.716,2.15-2.35l5.55-6.05L89.95,86.6l-1.25,1.7l0.05,1.4c0.033,0.899-0.3,1.333-1,1.3l-1.05,1.35
	l0.149,4.101c0.067,1.133,0.301,2,0.7,2.6L85.3,95.85z M92.6,61.6c0.534-0.666,1.117-1.166,1.75-1.5l1.7,2.301L95.1,64.05
	l-2.649,0.4l-0.5-1.95C92.116,62.233,92.333,61.934,92.6,61.6z M84.175,70.15L84.7,70.05l-0.125,0.775L83.75,75.5
	c-0.1,0.6-0.033,1.066,0.2,1.4c0.6,0.866,0.916,1.333,0.95,1.399c0.3,0.634,0.267,1.217-0.101,1.75
	c-0.166,0.233-0.383,0.417-0.649,0.55L83.1,80.55c-0.433-0.033-1-0.533-1.699-1.5c-0.733-1.133-1.2-1.85-1.4-2.149
	c-0.267-0.367-0.4-0.817-0.4-1.351c-0.033-0.267,0.017-0.95,0.15-2.05c0.1-0.733,0.233-1.384,0.4-1.95L80.4,70.9L84.175,70.15z
	 M31.85,54.3l4.2-1.15c0.867-0.233,2.034-0.433,3.5-0.6c1.267-0.133,2.217-0.183,2.85-0.15c0.9,0.033,1.783,0.717,2.65,2.05
	c0.4,0.566,0.733,1.75,1,3.55c0.1,0.366,0.417,0.7,0.95,1c1.1,0.634,1.8,1.05,2.1,1.25c0.7,0.533,1.217,1.033,1.55,1.5
	c0.2,0.333,0.567,0.967,1.1,1.9c0.8,1.166,1.25,1.966,1.35,2.399l-7.9-3.7c-0.967-0.433-1.667-1.55-2.1-3.35
	c-0.4-1.634-0.95-2.467-1.65-2.5c-0.133,0-0.7-0.15-1.7-0.45c-0.933-0.267-1.933-0.383-3-0.35c-1.133,0.033-2.783-0.284-4.95-0.95
	l-2.85-1L31.85,54.3z M74.05,47.5c0.4-0.967,0.9-1.483,1.5-1.55c1.7-0.167,2.8,0.25,3.3,1.25c0.267,0.533,0.417,1.283,0.45,2.25
	c0.167,0.633-0.149,1.167-0.95,1.6L75.1,50.6l-1.5-1.65C73.7,48.483,73.85,48,74.05,47.5z M54.25,36.75
	c0.667-1.133,1.667-1.783,3-1.95c1.333-0.133,3.4-0.133,6.2,0l0.2,2c-0.2,0.067-0.45,0.15-0.75,0.25
	c-0.566,0.233-1.033,0.467-1.4,0.7c-0.7,0.5-2.817,0.75-6.35,0.75C53.917,38.5,53.617,37.917,54.25,36.75z M12.8,80.35
	c-0.533,0.134-1.15-0.033-1.85-0.5l-0.9-0.8c-0.1-0.333-0.083-0.649,0.05-0.95c0.233-0.633,0.867-0.85,1.9-0.649
	c0.733,0.166,1.217,0.649,1.45,1.45C13.65,79.7,13.433,80.184,12.8,80.35z M23.45,72.55c-0.5-0.333-0.983-0.733-1.45-1.2
	c-0.933-0.933-1.367-1.767-1.3-2.5c0.066-0.6,0.167-0.85,0.3-0.75c0.333,0.367,0.767,0.467,1.3,0.301l4.9,2.75
	c-0.167,1-0.55,1.683-1.15,2.05C25.483,73.6,24.617,73.384,23.45,72.55z M31.025,97.325c-0.039-0.026-0.081-0.051-0.125-0.075
	c-1.1-0.634-1.733-0.95-1.9-0.95c-0.433-0.033-1.317-0.3-2.65-0.8l-1.9-0.7L23,93.45c0.433-0.3,0.933-0.634,1.5-1
	c1.133-0.733,2.017-1.25,2.65-1.55l4.2,0.199l0.4,1.301l0.2,4.449C31.981,97.477,31.673,97.635,31.025,97.325z M21.8,98.95l0.95-0.2
	c0.7-0.134,1.267-0.184,1.7-0.15L27.9,99.7l0.1,1.7c0.067,0.566,0.033,0.8-0.1,0.699c-0.367-0.333-0.767-0.449-1.2-0.35l-3.5,1
	c-0.8,0.2-1.25-0.033-1.35-0.7L22,101L21.8,98.95z"/>
<path style="fill-rule:evenodd;clip-rule:evenodd;fill:#5A371F;" d="M109.025,36l-0.325,0.55c-0.8,0.967-1.834,1.55-3.101,1.75
	c-0.966,0.167-1.699,0.284-2.199,0.35c-0.167,0-0.417,0.05-0.75,0.15l-2.7,0.4c0.133-1.2-0.15-1.817-0.851-1.85
	c-0.433-0.033-1.5-0.3-3.199-0.8l-2.4-0.75c-1.3-2.167-2.417-3.25-3.35-3.25c-1.634,0.067-2.65,0.117-3.051,0.15
	c-1.3,0.167-2.833,0.483-4.6,0.95c-2.634,0.5-4.45,1-5.45,1.5c-0.3,0.167-0.95,0.383-1.95,0.65c-0.733,0.2-1.417,0.583-2.05,1.15
	c-0.533,0.5-0.95,1.05-1.25,1.65c-0.333,0.4-1.15,0.783-2.45,1.15l-9,2.5c7.3-3.633,11.383-5.933,12.25-6.9
	c0.467-0.467,0.5-0.65,0.1-0.55c-0.133,0.067,0.283-0.216,1.25-0.85c1.166-0.733,2.233-1.284,3.2-1.65
	c1.466-0.566,2.233-0.867,2.3-0.9c0.633-0.267,1-0.383,1.1-0.35c0.033,0.034,0.283-0.133,0.75-0.5
	c0.233-0.167,0.316-0.517,0.25-1.05c0-0.2,0.934-0.367,2.8-0.5c3.567-0.233,6.667-0.283,9.301-0.15c2.1,0.1,3.566,0.033,4.399-0.2
	c3.167-0.867,5.767-1.483,7.8-1.85c0.934-0.167,1.967-0.466,3.101-0.9c0.733-0.3,1.55-0.4,2.45-0.3c1.699,0.233,3.466,0.333,5.3,0.3
	l-0.3,1.45l-5.95,4.75l-0.9,3.05L109.025,36z M133.1,11.75c0.267,0.567,0.317,1.083,0.15,1.55c-0.134,0.434-0.583,0.95-1.35,1.55
	c-0.934,0.767-1.483,1.233-1.65,1.4c-0.233,0.3-0.417,0.733-0.55,1.3c-0.2,0.4-0.667,0.483-1.4,0.25c-0.8-0.2-2.133-0.65-4-1.35
	l-2.55-0.95l-4.8,1.3c-0.5,0.167-1.434,0.184-2.8,0.05c-1.634-0.133-2.567-0.2-2.801-0.2c-0.566,0.033-1.466-0.1-2.699-0.4
	l-1.7-0.45l-5.55-2.6L99.8,13.65l1.4-0.65c1.333-0.5,2.899-0.85,4.7-1.05c1.333-0.167,2.316-0.383,2.949-0.65
	c0.434-0.167,1.434-0.283,3-0.35c1.733-0.067,3.284-0.233,4.65-0.5c1.366-0.267,2.15-0.4,2.35-0.4c0.367,0,0.983-0.167,1.851-0.5
	c0.833-0.267,1.633-0.383,2.399-0.35c0.733,0.033,1.067-0.067,1-0.3c-0.033-0.066,0.351,0.067,1.15,0.4
	c0.8,0.367,1.7,0.817,2.7,1.35c0.733,0.367,1.383,0.533,1.95,0.5l2.75-0.1L133.1,11.75z M84.95,46.1l0.1,1.7
	c-1.1,1-2.45,1.5-4.05,1.5l-1.4-3.75L84.95,46.1z M70.6,19.35c0.4-0.133,1.117-0.117,2.15,0.05c0.5,0.1,0.967,0.2,1.4,0.3l1.3,0.4
	c0.934,0.233,1.616,0.367,2.05,0.4c0.7,0.033,1.167,0.483,1.4,1.35l0.5,6.8c0.066,1.267-0.134,1.883-0.601,1.85l-0.75-0.45
	L74.4,26.9c-3.467-0.867-5.85-1.583-7.15-2.15c-1.8-0.8-4.367-1.7-7.7-2.7L70.6,19.35z M27.1,67.05c-0.7-0.267-1.217-0.55-1.55-0.85
	c-0.133-0.134-0.533-0.634-1.2-1.5l3.4-0.2c2.367-0.033,3.833,0.233,4.4,0.8c0.467,0.467,0.633,0.717,0.5,0.75
	c-0.4,0.101-0.633,0.45-0.7,1.05c-0.1,0.767-0.733,1.051-1.9,0.851C29.383,67.85,28.4,67.55,27.1,67.05z M15.45,82.4
	c0.433-2.667,0.533-4.767,0.3-6.301l1.9,0.101c1.367,0.166,2.367,0.6,3,1.3c0.6,0.667,0.767,1.15,0.5,1.45
	c-0.167,0.2-0.55,0.583-1.15,1.149C19.533,80.9,18.017,81.667,15.45,82.4z M46.05,71.8l-1.4-5.149l4.25,1.6
	c0.533,0.2,1.15,0.5,1.85,0.9c0.8,0.466,1.517,0.833,2.15,1.1c0.767,0.333,1.033,0.767,0.8,1.3c-0.133,0.3-0.367,0.783-0.7,1.45
	c-0.033,0.5-0.533,1.017-1.5,1.55c-0.833,0.434-2.333,1.05-4.5,1.851c-1.7,0.633-3.467,1.116-5.3,1.449l-2.2,0.301l2.2-3.4
	L46.05,71.8z M61.7,57.1l6.35,4.101c-3.667,1-6.333,1.399-8,1.2C57.317,62.033,55,61.167,53.1,59.8
	c-0.667-0.5-1.017-0.967-1.05-1.399c0.1-0.5,0.083-0.967-0.05-1.4c-0.133-0.467-0.517-0.933-1.15-1.4
	c-1.133-0.9-2.033-1.684-2.7-2.35l4.45-0.35c3.233-0.233,5.533-0.25,6.9-0.05c1.367,0.2,2.133,0.967,2.3,2.3
	C61.9,55.817,61.867,56.467,61.7,57.1z"/>
<path style="fill-rule:evenodd;clip-rule:evenodd;fill:#55351E;" d="M136.65,12.7c0.066-0.583,0.1-1.2,0.1-1.85
	c0-0.805-0.092-1.638-0.275-2.5c0.938,0.598,2.03,1.314,3.275,2.15c2.134,1.433,3.934,3.383,5.4,5.85
	c0.767,1.233,1.3,2.316,1.6,3.25l-2.35,4.3c-1.7,3.333-2.934,6.267-3.7,8.8c-0.733,2.566-0.816,6.9-0.25,13
	c0.3,3.433,0.899,8.417,1.8,14.95c0.366,2.899,2.634,7.283,6.8,13.149c2.7,5.267,1.467,9.584-3.7,12.95
	c-5.033,3.333-11.483,6.033-19.35,8.1c-8.267,2.167-12.7,3.417-13.3,3.75c-1.601,0.934-3.167,2.034-4.7,3.301
	c-1.767,1.199-4.833,2.55-9.2,4.05c-4.5,1.533-7.45,2.116-8.85,1.75c-1.101-0.834-2.25-1.434-3.45-1.8
	c-1.066-0.301-4-0.15-8.8,0.449c-6.067,0.801-11.583,1.15-16.55,1.051c-5.6-0.134-11.267,0.899-17,3.1c-4.767,2.2-7.5,3.267-8.2,3.2
	c1.466-0.4,1.95-0.934,1.45-1.601l-1.15-0.899l0.2-3.15l0.85-3c0.167-0.467,0.184-1.35,0.05-2.649L37.1,100.6l2.55,1.7
	c0.867,0.566,1.75,1.316,2.65,2.25c0.7,0.601,1.567,0.75,2.6,0.45c1.707-0.46,5.615-1.435,11.725-2.925L58,101
	c0.333-1.233,0.433-2.517,0.3-3.85c-0.066-0.667-0.133-0.95-0.2-0.851c-0.162,0.291-0.387,0.315-0.675,0.075L57.4,96.35l-1.75-3.699
	c0.6-0.367,0.667-0.95,0.2-1.75c0.066-0.667,0.033-1.184-0.1-1.551c-0.021-0.05-0.038-0.1-0.05-0.149
	c-0.004-0.033-0.004-0.066,0-0.101c0.066-0.633-0.034-1.033-0.3-1.199c-0.033-0.5-0.267-1.051-0.7-1.65
	c-0.3-0.467-0.367-0.983-0.2-1.55c0.133-0.467,0-1.25-0.4-2.351l-0.7-1.5l2.5,1.4c0.967,0.533,1.417,0.983,1.35,1.35
	c-0.067,0.567-0.067,0.9,0,1c0.4,0.601,0.533,1.5,0.4,2.7L59.4,89.9l0.8,2.899c0.2,0.7,0.417,1.25,0.65,1.65
	c0.167,0.233,0.433,0.583,0.8,1.05c0.267,0.366,0.4,0.783,0.4,1.25c0,0.366-0.017,1.184-0.05,2.45c0,0.833-0.05,1.233-0.15,1.2
	c-0.267-0.101-0.6,0.183-1,0.85c-0.4,0.7-0.633,1-0.7,0.9c-0.133-0.301-0.517-0.317-1.15-0.051c-0.394,0.191-0.793,0.358-1.2,0.5
	l0.45,0.301c1.067,0.8,2.1,1.699,3.1,2.699c0.8,0.834,1.2,1.15,1.2,0.95c0.034-0.6,0.45-0.899,1.25-0.899
	c1.6,0,4.017,0.017,7.25,0.05c1.333-0.033,2.417-0.3,3.25-0.8c0.8-0.434,1.134-0.917,1-1.45c-0.133-0.4-0.367-0.8-0.7-1.2l-2.9-2.95
	l0.5-3.25c0.2-1.366-0.383-3.033-1.75-5l-2.1-2.6c-0.646-0.477-1.33-1.06-2.05-1.75L57.9,79.6l-3.75-4.85
	c0.967-3.967,1.733-6.6,2.3-7.9c0.367-0.8,1.617-1.533,3.75-2.199c1.1-0.334,2.433-0.667,4-1c0.533-0.134,2.383,0.283,5.55,1.25
	c0.755,0.24,1.497,0.482,2.225,0.725c0.79,0.258,1.565,0.516,2.325,0.775l0.1,0.649l0.15,1.101c0.133,1.333,0.184,2.433,0.15,3.3
	c-0.034,0.833,0.333,2.25,1.1,4.25c1,2.633,1.533,4.083,1.601,4.35c0.267,0.967,0.333,2.017,0.199,3.15
	c-0.066,0.733-0.283,2.033-0.649,3.899c-0.3,2.167-0.05,5.101,0.75,8.801l5,6.899c0.767,1.066,1.166,1.45,1.2,1.15
	c0.1-0.9,0.583-1.417,1.449-1.55c1.134-0.167,1.967,0.116,2.5,0.85c0.301,0.333,0.467,0.7,0.5,1.1l1.551-1.8
	c0.633-0.767,1.25-0.95,1.85-0.55c0.267,0.2,0.483,0.483,0.65,0.85c2.6-3.933,3.883-6.366,3.85-7.3c0-0.533-0.15-1.25-0.45-2.149
	c-0.5-1.434-0.767-2.217-0.8-2.351c-0.2-0.666-0.55-2.733-1.05-6.2l-0.7-5.05l1.8,3.7c0.779,1.678,1.429,3.161,1.95,4.45
	c0.359,0.852,0.659,1.618,0.9,2.3c0.165,0.455,0.34,0.872,0.524,1.25c1.048,2.012,2.473,2.778,4.275,2.3
	c0.3-0.1,0.934-0.649,1.899-1.649c1-1.034,1.767-1.684,2.301-1.95c0.6-0.3,1.017-1.017,1.25-2.15c0.199-1.5,0.399-2.684,0.6-3.55
	c0.267-1.066,0.366-1.767,0.3-2.1c-0.133-0.467-0.233-1.034-0.3-1.7c-0.1-0.733-0.1-1.767,0-3.101c0.066-1.399,0.083-2.333,0.05-2.8
	c-0.033-0.366,0.017-1.05,0.15-2.05c0.1-0.866,0.066-1.816-0.101-2.85c-0.166-1.067-0.216-1.784-0.149-2.15
	c0.133-0.5,0.25-1.184,0.35-2.05c0.167-1.066-0.133-3.483-0.899-7.25c-0.601-2.8-1.117-5-1.551-6.6
	c-0.203-0.704-0.753-1.387-1.649-2.05c-1.508-1.146-1.841-3.338-1-6.575c0.169-0.648,0.368-1.215,0.6-1.7
	c0.658-1.375,1.567-2.041,2.726-2c0.446,0.01,0.93,0.127,1.449,0.35c2.339,1.007,4.563,1.316,6.676,0.925
	c1.368-3.418,2.168-5.585,2.399-6.5c0.232-0.911,0.84-1.344,1.825-1.3c0.983,0.037,1.992-0.296,3.025-1
	c1.033-0.733,1.933-1.633,2.699-2.7c0.467-0.6,1.017-1.45,1.65-2.55c0.3-0.433,1.267-1.217,2.9-2.35
	c1.533-1.066,2.449-1.983,2.75-2.75c0.318-0.796,1.026-2.196,2.125-4.2c0.283-0.508,0.591-1.058,0.925-1.65
	C136.173,14.923,136.489,13.89,136.65,12.7z M15.6,109.575c0.367-1.252,0.634-2.094,0.8-2.525c0.333-0.8,0.967-1.066,1.9-0.8
	c1.567,0.4,2.417,0.6,2.55,0.6c0.7-0.066,1.183,0.217,1.45,0.851c0.2,0.399,0.483,1.166,0.85,2.3c0.133,0.333,0.417,0.717,0.85,1.15
	c-0.321-0.099-0.754-0.207-1.3-0.325l-2-0.4c-0.764-0.141-1.597-0.282-2.5-0.425c-0.283-0.043-0.558-0.085-0.825-0.125l-0.925-0.15
	c-0.273-0.038-0.557-0.08-0.85-0.125V109.575z M133.375,46.875c-0.324-5.085-0.858-6.91-1.6-5.475
	c-0.741,1.426-1.308,3.601-1.7,6.525c-0.387,2.92-0.278,5.695,0.325,8.325c0.866,2.667,2.1,4,3.699,4c1.233,0,2.034-0.467,2.4-1.4
	c0.166-0.402-0.234-1.228-1.2-2.475C134.337,55.131,133.695,51.964,133.375,46.875z M130.575,67.125
	c-0.236,0.172-0.479,0.347-0.726,0.525c-0.618-1.498-1.485-3.831-2.6-7c-0.68,2.344-1.654,3.435-2.925,3.274
	c-1.279-0.157-2.379-3.04-3.3-8.65c-0.914-5.617-1.547-8.351-1.9-8.2c-0.357,0.158-0.716,1.45-1.075,3.875
	c-0.365,2.43-0.582,4.647-0.649,6.649c-0.05,1.528-0.441,2.721-1.176,3.575c-0.225,0.267-0.482,0.5-0.774,0.7
	c-1.237,0.85,0.029,1.842,3.8,2.975c-0.09,0.135-0.239,0.359-0.45,0.676c-0.102,0.152-0.219,0.327-0.35,0.524
	c-0.134,0.2-0.2,0.45-0.2,0.75c0,0.9,0.384,1.95,1.15,3.15c0.966,1.566,1.583,2.75,1.85,3.55c0.133,0.398,0.808,3.032,2.025,7.9
	c-0.007-0.767,0.235-1.15,0.725-1.15c0.669,0,1.27-1.767,1.8-5.3c1.608,5.987,3.066,9.004,4.375,9.05
	c1.314,0.043,2.064-0.365,2.25-1.225c0.183-0.854,0.574-1.745,1.175-2.676c0.659,0.562,1.259,1.028,1.801,1.4
	c-0.034-0.346-0.051-0.662-0.051-0.95c-0.1-1-0.166-1.866-0.199-2.6c-0.034-1.334,0.199-2.351,0.699-3.05
	c0.634-0.9,1.15-1.917,1.551-3.051c0.27-0.859,0.395-1.575,0.375-2.149c-0.466-0.971-0.665-1.904-0.601-2.8
	c0.108-1.573-0.233-2.457-1.024-2.65c-0.389-0.095-1.097,0.131-2.125,0.675C133.125,65.409,131.976,66.143,130.575,67.125z
	 M84.575,70.825L84.7,70.05l-0.525,0.101c-0.265-0.482-0.556-1.049-0.875-1.7l-1.05-2.2l1.2,0.7c0.833,0.467,2.3,1.566,4.399,3.3
	l1.45-3.55l2.05,1.149L91.7,69.6c0.2,1.4,0.233,2.634,0.1,3.7c-0.1,0.834-0.133,1.2-0.1,1.101c0.2-0.301,0.35-0.25,0.45,0.149
	c0.533,1.967,0.683,3.316,0.449,4.05c-0.166,0.467-0.55,0.65-1.149,0.551l-0.9-0.351l-1.3,1.4c-0.434,0.5-0.65,0.733-0.65,0.7
	c0.101,0-0.033,0.216-0.399,0.649c-0.334,0.434-0.55,0.617-0.65,0.55c-0.333-0.267-0.883-0.35-1.649-0.25
	c-0.434,0.067-0.834,0.15-1.2,0.25c-0.667,0.367-1.417,0.717-2.25,1.051L83.3,82.6c0.434-0.199,0.9-0.366,1.4-0.5
	c1.066-0.666,1.85-1.433,2.35-2.3c0.4-0.666,0.55-0.967,0.45-0.899c-0.267,0.267-0.4,0.216-0.4-0.15c0.034-0.4-0.066-0.934-0.3-1.6
	c-0.467-1.233-0.733-1.983-0.8-2.25c-0.1-0.4-0.184-1.017-0.25-1.851c0-0.399-0.2-0.85-0.6-1.35
	C84.976,71.476,84.784,71.185,84.575,70.825z M139.3,71.95c-0.488-0.573-0.896-1.132-1.225-1.675l1.375,3.925l-0.4,2.2l-0.05,1
	c-0.033,0.767,0,1.35,0.1,1.75c-0.861,0.714-1.812,1.672-2.85,2.875c2.025,1.142,3.117,0.7,3.275-1.325
	c0.216-2.777,0.266-4.869,0.149-6.275C139.559,73.012,139.434,72.187,139.3,71.95z M31.025,97.325
	c0.648,0.31,0.957,0.151,0.925-0.476c0.6-0.466,0.966-1.183,1.1-2.149v-1.3l-1.4-3.75l1.75,0.3c1.233,0.333,2.1,0.866,2.6,1.6
	l1.15,1.75c0.4,0.601,0.567,0.867,0.5,0.8c-0.233-0.199-0.3-0.133-0.2,0.2c0.1,0.367,0,0.917-0.3,1.65
	c-0.433,1.033-0.683,1.717-0.75,2.05c-0.2,1-0.783,1.4-1.75,1.2l-1.85,0.85c-0.6,0.3-0.833,0.467-0.7,0.5
	c0.4,0.167,0.55,0.483,0.45,0.95c-0.133,0.6-0.45,1.066-0.95,1.4c-0.333,0.233-0.95,0.6-1.85,1.1c-0.933,0.733-3.567,0.783-7.9,0.15
	h2.4c1.933-0.534,3.2-1,3.8-1.4l1.4-1.05c-0.3-1.066-0.45-2.066-0.45-3c-0.033-0.5,0.267-0.834,0.9-1
	C30.336,97.569,30.711,97.444,31.025,97.325z M8.6,96.4l-0.5-1.9l1.75,0.15L11.3,96l1.1,1.9c0.667,1.5,0.934,2.767,0.8,3.8
	c-1.833-0.867-2.95-1.584-3.35-2.15C9.417,98.917,9,97.866,8.6,96.4z"/>
</svg>
