<?xml version="1.0" encoding="iso-8859-1"?>
<!-- Generator: Adobe Illustrator 15.1.0, SVG Export Plug-In . SVG Version: 6.00 Build 0)  -->
<!DOCTYPE svg PUBLIC "-//W3C//DTD SVG 1.1//EN" "http://www.w3.org/Graphics/SVG/1.1/DTD/svg11.dtd">
<svg version="1.1" id="FlashAICB" xmlns="http://www.w3.org/2000/svg" xmlns:xlink="http://www.w3.org/1999/xlink" x="0px" y="0px"
	 width="214.65px" height="85.65px" viewBox="0 0 214.65 85.65" style="enable-background:new 0 0 214.65 85.65;"
	 xml:space="preserve">
<path style="fill-rule:evenodd;clip-rule:evenodd;fill:#613A22;" d="M4.4,78.15l3.7-1.301c2.233-0.933,2.833-1.5,1.8-1.699
	c-1-0.2,1.4-2.817,7.2-7.851c6.466-5.667,9.733-8.55,9.8-8.649c0.4-0.601,1.75-2.018,4.05-4.25c3.9-3.733,5.883-5.65,5.95-5.75
	c3.9-2.101,8.833-4.7,14.8-7.8c12.033-6.233,23.25-11.817,33.65-16.75c33.4-15.934,52.917-22.75,58.55-20.45
	c5.633,2.3,10.649,5.817,15.05,10.55c2.233,2.4,3.883,4.55,4.95,6.45l2.75,1.45c2.166,1.233,4.083,2.583,5.75,4.05
	c1.333,1.167,2.732,2.434,4.199,3.8c1.233,1,3.167,2.066,5.801,3.2c5.433,2.3,10.066,5.15,13.899,8.55
	c1.9,1.733,3.267,3.217,4.101,4.45l4.55,5.05c3.267,3.767,5.417,6.583,6.45,8.45c1.666,3,2.666,5.666,3,8l-0.45,0.449
	c-0.567,0.733-1.583,2.25-3.05,4.551c-1.467,2.3-3.983,3.482-7.551,3.55l-4.949-0.55c-0.434,1.1-2.434,1.833-6,2.199
	c-2,0.2-5,0.301-9,0.301c-1.834,0-3.084,0.083-3.75,0.25c-0.667,0.166-1.417,0.25-2.25,0.25c-0.768,0-4.301,0.683-10.601,2.05
	c-6.6,1.433-11.399,2.25-14.399,2.45c-4.167,0.333-7,0.517-8.5,0.55c-2.167,0.066-5-0.117-8.5-0.55c-3.233-0.4-5.9-0.434-8-0.101
	c-1.667,0.4-2.834,0.601-3.5,0.601c-0.5,0-3.25,0.333-8.25,1c-5,0.666-8.25,1-9.75,1c-2.4,0-4.216-0.067-5.45-0.2
	c-1.867-0.2-4.05-0.634-6.55-1.3c-3.667-1-6.5-1.5-8.5-1.5c-1.667,0-4.833,0.166-9.5,0.5c-3.567,0.433-6.017,0.699-7.35,0.8
	c-2.167,0.2-4.883,0.1-8.15-0.3c-2.133-0.268-5.65-0.601-10.55-1c-3.7-0.334-6.483-0.684-8.35-1.051
	c-0.434-0.1-1.816-0.267-4.15-0.5c-2.267-0.199-3.633-0.366-4.1-0.5c-0.967,0.033-0.816-0.116,0.45-0.449
	c0.633-0.167,1.366-0.334,2.2-0.5L4.4,78.15z"/>
<g>
	<path style="fill-rule:evenodd;clip-rule:evenodd;fill:#55351E;" d="M142.55,43.45c-1.2-1.2-2.399-1.95-3.6-2.25
		c-0.867-0.233-2-0.25-3.4-0.05c-0.5,0.067-1.316,0.883-2.45,2.45c-1.166,1.634-2.899,2.7-5.199,3.2c-2,0.467-2.884,0.8-2.65,1
		c0.667,0.667,0.434,1.667-0.7,3c-1.1,1.334-1.684,1.884-1.75,1.65c-0.166-0.634-0.916-0.733-2.25-0.3c-1.333,0.433-2,0.733-2,0.899
		c0,0.5-0.666,1.3-2,2.4c-1.333,1.133-1.916,1.533-1.75,1.2c0.5-1,0.417-1.617-0.25-1.851c-1.2-0.666-2.133-1.166-2.8-1.5
		c-1.2-0.6-2.483-0.767-3.85-0.5c-1.5,0.3-2.817,1.834-3.95,4.601c-0.934,2.3-1.4,4.316-1.4,6.05c0,0.934-0.267,2.017-0.8,3.25
		c-0.133,0.3-0.767,1.616-1.9,3.95c0.533,0.399,1.316,1.267,2.35,2.6c0.267,0.366,1.283,1.767,3.05,4.2c1.1,1.566,1.533,2.233,1.3,2
		c-0.633-0.667-0.85-0.667-0.65,0c0.267,0.833,1.117,1.083,2.55,0.75c0.733-0.167,1.434-0.417,2.1-0.75l7.351,1.35
		c1.333,0.233,1.949,0.283,1.85,0.15c-0.333-0.3-0.066-0.566,0.8-0.8c1.367-0.334,2.233-0.584,2.601-0.75
		c0.399-0.167,1.1-0.584,2.1-1.25c0.667-0.434,1-1.25,1-2.45c0-1.7,0.333-3.334,1-4.9c0.667-1.533,1.033-2.116,1.1-1.75
		c0.167,1.167,0.684,1.75,1.551,1.75c0.933,0,1.449,0.667,1.55,2c0.133,1.334,0.5,2,1.1,2c1.334,0,2.9-0.666,4.7-2l8.35-3.35
		c5.534-2.434,8.301-4.2,8.301-5.3c0-0.5-0.25-2.284-0.75-5.351c-1.534-1.3-3.067-2.416-4.601-3.35c-1.3-0.8-2.1-1.8-2.399-3
		c-0.434-1.733-0.733-2.733-0.9-3c-0.3-0.467-0.583-1.384-0.85-2.75C144.2,45.566,143.583,44.483,142.55,43.45z M163.9,20.65
		l2.75,1.45c2.166,1.233,4.083,2.583,5.75,4.05c1.333,1.167,2.733,2.434,4.199,3.8c1.233,1,3.167,2.066,5.801,3.2
		c5.433,2.3,10.066,5.15,13.899,8.55c1.9,1.733,3.267,3.217,4.101,4.45l4.55,5.05c3.267,3.767,5.416,6.583,6.45,8.45
		c1.666,3,2.666,5.666,3,8l-0.45,0.449c-0.566,0.733-1.584,2.25-3.05,4.551c-1.467,2.3-3.983,3.483-7.551,3.55l-4.949-0.55
		c-0.434,1.1-2.434,1.833-6,2.199c-2,0.2-5,0.301-9,0.301c-1.834,0-3.084,0.083-3.75,0.25c-0.667,0.166-1.417,0.25-2.25,0.25
		c-0.767,0-4.301,0.683-10.601,2.05c-6.6,1.434-11.399,2.25-14.399,2.45c-4.167,0.333-7,0.517-8.5,0.55
		c-2.167,0.066-5-0.117-8.5-0.55c-3.233-0.4-5.9-0.434-8-0.101c-1.667,0.4-2.834,0.601-3.5,0.601c-0.5,0-3.25,0.333-8.25,1
		c-5,0.666-8.25,1-9.75,1c-3.6,0-6.583-0.25-8.95-0.75c1.533-0.567,2.3-1.051,2.3-1.45c0-0.667-0.217-1.667-0.65-3
		c-0.467-1.334-0.7-2.334-0.7-3l0.05-2.8c-0.633,0.933-1.167,0.8-1.6-0.4l-0.45-2.1l-1.35-2c-0.533-0.834-1.25-1.301-2.15-1.4
		l-1.15,0.05l-10-4.649c-3.867-1.834-6.117-2.117-6.75-0.851c-0.2,0.367-0.483,1.084-0.85,2.15c-0.5,0.899-1.3,1.566-2.4,2
		c-1.767,0.666-2.567,0.95-2.4,0.85c0.5-0.333,0.183-0.383-0.95-0.149c-1.333,0.267-2.667,0.35-4,0.25
		c-2.333-0.167-3.667-0.25-4-0.25c-1.267,0-2.383,0.383-3.35,1.149c-1.367,1.101-2.466,1.816-3.3,2.15
		c-1.1,0.467-2.55,1.366-4.35,2.7c-1.767,1.333-3.217,2.216-4.35,2.649l-5.85,2.4c-1,0.033-1.767,0.116-2.3,0.25l-0.5,0.2l-31.5-1.5
		l3.7-1.301c2.233-0.933,2.833-1.5,1.8-1.699c-1-0.2,1.4-2.817,7.2-7.851c6.467-5.666,9.733-8.55,9.8-8.649
		c0.4-0.601,1.75-2.017,4.05-4.25c3.9-3.733,5.883-5.65,5.95-5.75c3.9-2.101,8.833-4.7,14.8-7.8
		c12.033-6.233,23.25-11.817,33.65-16.75c33.4-15.934,52.917-22.75,58.55-20.45c5.633,2.3,10.649,5.817,15.05,10.55
		C161.184,16.6,162.833,18.75,163.9,20.65z M162.55,31.45l-5.3,1.35l-1.35,5.25c-0.9,3.667-1.351,5.917-1.351,6.75v4.351
		c1.967,1.699,3.3,3.133,4,4.3c1.066,1.767,1.65,2.85,1.75,3.25c0.167,0.633,0.25,2.217,0.25,4.75c0,2.166,0.233,3.399,0.7,3.7
		c0.333,0.233,1.217,0.783,2.65,1.649c0.966,0.967,2.267,1.483,3.899,1.55c2.233,0.134,4.05,0.5,5.45,1.101
		c0.934,0.399,2.267,1.217,4,2.45c0.866,0.6,2.2,0.899,4,0.899c2.434,0,3.983-0.033,4.65-0.1c0.8-0.066,1.683-0.25,2.649-0.55
		c1.334-0.467,3.117-1.584,5.351-3.351c-0.434-2.666-1.317-5.55-2.65-8.649c-0.667-1.567-1.083-2.184-1.25-1.851
		c-0.5,1-1.417,1.384-2.75,1.15c-1.333-0.2-2.083-0.283-2.25-0.25c-0.5,0.166-1.75,0.25-3.75,0.25s-2.833-0.05-2.5-0.15
		c1-0.333,1.167-0.717,0.5-1.149c-0.566-0.367-1.066-1.733-1.5-4.101c-0.467-2.333-1.3-3.866-2.5-4.6c-1.1-0.667-1.6-1.084-1.5-1.25
		c0.333-0.5,0.167-1.417-0.5-2.75c-0.667-1.334-1.116-1.95-1.35-1.851c-0.667,0.367-1.784,0.101-3.351-0.8l-2.25-1.3
		c0.167,0-0.416-0.45-1.75-1.35c-1.666-1.133-2.5-2.917-2.5-5.35L162.55,31.45z"/>
	<path style="fill-rule:evenodd;clip-rule:evenodd;fill:#55351E;" d="M62.55,73.45h7.35l1.65-0.25c1.333-0.101,2.567-0.017,3.7,0.25
		c1.066,0.267,1.65,0.917,1.75,1.95c0.033,0.6,0.117,1.732,0.25,3.399c0.2,0.833,0.533,1.567,1,2.2c0.3,0.367,0.833,0.983,1.6,1.85
		L75.9,83.15c-3.567,0.433-6.017,0.699-7.35,0.8c-2.167,0.2-4.883,0.1-8.15-0.3c-3.7-0.467-8.6-1.434-14.7-2.9
		c1.433-0.333,3.5-1.65,6.2-3.95l2-1.35c0.833-0.533,2.534-1.033,5.1-1.5C60.267,73.75,61.45,73.583,62.55,73.45z"/>
</g>
<g>
	<path style="fill-rule:evenodd;clip-rule:evenodd;fill:#4B2E1E;" d="M163.9,20.65l2.75,1.45c2.166,1.233,4.083,2.583,5.75,4.05
		c0.967,0.833,2.033,1.817,3.199,2.95c0.9,0.833,1.851,1.55,2.851,2.15l-0.55,0.2c-1.667,0.566-3.717,0.3-6.15-0.8l-3.2-1.85
		c-0.767-0.333-1.649-0.8-2.649-1.4c-1.967-1.233-3.467-2.55-4.5-3.95c-1-1.3-2.033-1.95-3.101-1.95c-2.433,0-3.683-0.017-3.75-0.05
		c-1.366-0.267-2.717-0.067-4.05,0.6l-1.6,1.1l0.649,1.6c0.333,1.4,0.233,2.867-0.3,4.4c-0.467,1.267-0.45,3.467,0.05,6.6
		c0.601,3.7,0.8,6.5,0.601,8.4c-0.434,4-0.65,5.767-0.65,5.3l-2.45-4.8c-0.033-1.634-0.25-3.45-0.649-5.45l0.399-1.75l-0.85-0.4
		c-0.733-2.966-1.25-5.167-1.55-6.6l-0.4-1.35c0.4-2.934,0.367-5.767-0.1-8.5c-0.533-3.1-1.551-5.633-3.051-7.6
		c-1.767-2.267-3.25-4.566-4.449-6.9L135.5,4c4-0.9,6.8-1.017,8.4-0.35c5.633,2.3,10.649,5.817,15.05,10.55
		C161.184,16.6,162.833,18.75,163.9,20.65z"/>
	<path style="fill-rule:evenodd;clip-rule:evenodd;fill:#4B2E1E;" d="M191.25,40.15v-2.3c2.7,1.8,5.033,3.716,7,5.75
		c1,1.033,1.717,1.884,2.15,2.551l4.55,5.05c3.267,3.767,5.417,6.583,6.45,8.45c1.666,3,2.666,5.666,3,8l-0.45,0.449
		c-0.567,0.733-1.583,2.25-3.05,4.551c-1.467,2.3-3.983,3.482-7.551,3.55l-4.949-0.55c-0.434,1.1-2.434,1.833-6,2.199
		c-2,0.2-5,0.301-9,0.301c-1.834,0-3.084,0.083-3.75,0.25c-0.667,0.166-1.417,0.25-2.25,0.25c-0.768,0-4.301,0.683-10.601,2.05
		c-6.6,1.433-11.399,2.25-14.399,2.45c-4.167,0.333-7,0.517-8.5,0.55c-2.167,0.066-5-0.117-8.5-0.55c-3.233-0.4-5.9-0.434-8-0.101
		c-1.667,0.4-2.834,0.601-3.5,0.601c1.399-0.5,2.6-1.351,3.6-2.551l1.05-1.649l0.7-2c0.267-0.833,0.9-1.517,1.9-2.05l1.399-0.601
		l0.601,1.101c0.767,1,2.133,2.183,4.1,3.55c1.566,1.133,2.316,1.55,2.25,1.25c-0.167-0.833,0.417-1.25,1.75-1.25h5.3
		c2,0,3.333-0.101,4-0.3c0.667-0.233,1.333-0.351,2-0.351c1.134,0,2.367-0.55,3.7-1.649l1.65-1.7l1.35-2
		c0.533-0.833,1.367-0.517,2.5,0.95c0.566,0.699,1.066,1.5,1.5,2.399h2.65c1.566,0,2.683-0.05,3.35-0.149c1-0.167,2.1-0.567,3.3-1.2
		c1.033-0.5,2.233-0.667,3.601-0.5c2.5,0.333,4.199,0.5,5.1,0.5c1.733,0,3.2,0.233,4.4,0.7c1.232,0.433,2.199,0.649,2.899,0.649
		c1.8,0,4.25-0.217,7.351-0.649c1.333-2.233,2.217-4.233,2.649-6c0.267-1.033-0.316-3.117-1.75-6.25
		c-1.5-3.367-2.25-5.283-2.25-5.75c0-0.834,0.667-1.533,2-2.101c0.667-0.267,1.333-0.467,2-0.6l-0.649-5.3
		c-0.434-1.801-1.101-3.584-2-5.351c-0.567-1.1-1.518-2.2-2.851-3.3L191.25,40.15z"/>
	<path style="fill-rule:evenodd;clip-rule:evenodd;fill:#4B2E1E;" d="M66.05,84.05l0.5-0.6l3.9-1.8c3.233-0.9,6.366-0.5,9.4,1.199
		L75.9,83.15c-1.367,0.1-3.2,0.3-5.5,0.6C68.7,83.95,67.25,84.05,66.05,84.05z"/>
	<path style="fill-rule:evenodd;clip-rule:evenodd;fill:#4B2E1E;" d="M101.9,85.6c-1.367-0.1-2.75-0.283-4.15-0.55l1.5-1.6l6.65,2.2
		C104.066,85.65,102.733,85.633,101.9,85.6z"/>
</g>
<path style="fill-rule:evenodd;clip-rule:evenodd;fill:#55351E;" d="M94.65,80.65c0.534-0.533,0.733-1.351,0.6-2.45l-0.35-1.55
	l3.25-2.25l-0.25,2c-0.333,2.666-0.5,4.5-0.5,5.5s-0.583,1.5-1.75,1.5c-0.533,0-1.433-0.167-2.7-0.5l-1.8-0.5
	C92.65,82.066,93.816,81.483,94.65,80.65z"/>
<path style="fill-rule:evenodd;clip-rule:evenodd;fill:#55351E;" d="M121.3,64.65L120.4,62.4l2,2.5l0.399,1.449
	c0.3,1.134,0.5,2.067,0.601,2.801c0.1,0.699-0.084,1.55-0.551,2.55c-0.633,1.267-0.949,1.917-0.949,1.95
	c-0.167,0.666-0.584,1.666-1.25,3c-0.2,0.433-0.301,0.982-0.301,1.649c0,0.2,0.067,0.817,0.2,1.851c0.101,0.5-0.3,0.732-1.2,0.699
	c-1.133-0.133-1.949-0.199-2.449-0.199c-0.634,0-1.533-0.084-2.7-0.25l-1.55-0.25l2-0.75l4.75-4.75
	c0.3-0.301,0.482-0.667,0.55-1.101l0.2-1.149c0.6-2.233,1.017-3.567,1.25-4C121.833,67.566,121.8,66.316,121.3,64.65z"/>
<path style="fill-rule:evenodd;clip-rule:evenodd;fill:#55351E;" d="M120.15,69.15l-0.2,1.199c-0.233,1-0.667,2.018-1.3,3.051
	c-0.7,1.166-1.518,2.149-2.45,2.949c-0.8,0.733-1.483,1.167-2.05,1.301c-0.4,0.1-1.117,0.433-2.15,1
	c-0.533,0.267-1.017,0.533-1.45,0.8l0.601-1.3c0.333-0.2,0.717-0.434,1.149-0.7c0.867-0.5,1.567-0.851,2.101-1.05
	c0.533-0.2,0.883-0.434,1.05-0.7c0.233-0.367,0.467-0.717,0.7-1.05c0.6-0.834,1.1-1.917,1.5-3.25L120.15,69.15z"/>
<path style="fill-rule:evenodd;clip-rule:evenodd;fill:#55351E;" d="M133.65,59.9l-0.45,1.3c-0.4,1-0.75,1.816-1.05,2.45
	c-0.268,0.533-0.417,0.933-0.45,1.199c-0.067,0.233-0.167,0.5-0.3,0.801c-0.067,0.166-0.2,0.5-0.4,1c-0.1,0.267-0.3,0.6-0.6,1
	c-0.334,0.433-0.617,0.533-0.851,0.3c-0.267-0.434-0.483-0.783-0.649-1.05c-0.268-0.4-0.283-0.983-0.051-1.75
	c0.268-0.834,0.783-1.584,1.551-2.25L133.65,59.9z"/>
<path style="fill-rule:evenodd;clip-rule:evenodd;fill:#55351E;" d="M136.9,55.65c0.8-0.134,1.033,0.25,0.699,1.149
	c-0.3,0.867-0.866,1.233-1.699,1.101c-0.801-0.101-0.983-0.483-0.551-1.15C135.75,56.117,136.267,55.75,136.9,55.65z"/>
<path style="fill-rule:evenodd;clip-rule:evenodd;fill:#55351E;" d="M145.9,54.65c1.8,0.1,2.816,0.533,3.05,1.3
	c0.2,0.667-0.15,1.233-1.05,1.7c-0.5,0.267-0.733,0.316-0.7,0.149c0.066-0.433-0.117-0.816-0.55-1.149
	c-0.533-0.4-1.4-0.817-2.601-1.25l-1.649-0.5l0.449-0.2C143.417,54.566,144.434,54.55,145.9,54.65z"/>
<path style="fill-rule:evenodd;clip-rule:evenodd;fill:#55351E;" d="M189.65,66.9c0.267-0.834,0.683-1.667,1.25-2.5l0.149,1.899
	c0.033,1.367-0.1,2.317-0.399,2.851c-0.367,0.6-0.684,0.982-0.95,1.149c-0.233,0.101-0.75,0.217-1.55,0.351
	c-0.634,0.1-1.867,0.083-3.7-0.051L181.9,70.4c2.666-0.667,4.333-1.167,5-1.5C188.566,68.066,189.483,67.4,189.65,66.9z"/>
<path style="fill-rule:evenodd;clip-rule:evenodd;fill:#55351E;" d="M179.4,68.9c1.1,0.232,1.449,0.683,1.05,1.35
	c-0.333,0.6-0.851,0.983-1.55,1.15c-0.4,0.1-0.851-0.033-1.351-0.4l-0.649-0.6c0.199-0.301,0.449-0.584,0.75-0.851
	C178.25,68.983,178.833,68.767,179.4,68.9z"/>
<path style="fill-rule:evenodd;clip-rule:evenodd;fill:#55351E;" d="M77.15,68.4c0.534-0.634,1.15-0.617,1.85,0.05
	c0.367,0.333,0.667,0.733,0.9,1.2l-0.55,0.6c-0.434,0.467-0.917,0.85-1.45,1.15c-0.533,0.3-0.9,0.316-1.1,0.05l-0.15-0.55
	C76.45,69.867,76.617,69.033,77.15,68.4z"/>
<path style="fill-rule:evenodd;clip-rule:evenodd;fill:#55351E;" d="M171.4,50.65v2.75c0,0.5-0.033,0.967-0.101,1.399
	c-0.1,0.4-0.149,0.851-0.149,1.351c0,0.699-0.018,1.166-0.051,1.399c-0.033,0.101-0.183,0.55-0.449,1.351
	c-0.167,0.533-0.417,0.933-0.75,1.199c-0.334,0.301-0.584,0.65-0.75,1.051c-0.301,0.767-0.5,1.199-0.601,1.3
	c-0.233,0.233-0.866,0.467-1.899,0.7c-0.934,0.199-1.717,0.267-2.351,0.199l-0.649-0.199l1.5-1.25c1-1,1.916-2,2.75-3
	c0.5-0.601,0.767-1.067,0.8-1.4c0.066-0.8,0.133-1.333,0.2-1.6c0.166-0.601,0.199-1.684,0.1-3.25c-0.167-1.733-0.2-2.983-0.1-3.75
	c0.232-1.801,0.633-2.7,1.199-2.7c0.533,0,0.884,0.483,1.051,1.45C171.316,48.65,171.4,49.65,171.4,50.65z"/>
<path style="fill-rule:evenodd;clip-rule:evenodd;fill:#4B2E1E;" d="M178,34.8c1.1,0.833,1.684,1.384,1.75,1.65
	c0.033,0.133,0.066,0.417,0.1,0.85c0.033,0.3,0.101,0.583,0.2,0.85c0.067,0.133,0.233,0.383,0.5,0.75c0.233,0.267,0.4,0.567,0.5,0.9
	c0.134,0.333,0.184,0.75,0.15,1.25c-0.101,0.867-0.15,1.333-0.15,1.4c0,0.4-0.116,0.667-0.35,0.8c-0.367,0.2-0.583,0.333-0.65,0.4
	c-0.133,0.232-0.366,0.383-0.7,0.449c-0.199,0.033-0.683,0.051-1.449,0.051c-1.101,0-2.268-0.067-3.5-0.2
	c-0.768-0.067-1.434-0.2-2-0.4l-0.65-0.25c0.367-0.4,0.767-0.8,1.2-1.2c0.833-0.833,1.433-1.317,1.8-1.45
	c0.3-0.133,0.617-0.5,0.95-1.1c0.467-0.8,0.75-1.267,0.85-1.4c0.333-0.4,0.533-0.767,0.601-1.1c0.066-0.233,0.1-0.65,0.1-1.25
	c0-0.433-0.066-0.767-0.2-1c-0.2-0.366-0.417-0.75-0.649-1.15L178,34.8z"/>
<path style="fill-rule:evenodd;clip-rule:evenodd;fill:#4B2E1E;" d="M185.75,42.5c-0.3-0.867-0.25-1.267,0.15-1.2l1.149,0.15
	c1-0.534,1.833-1.083,2.5-1.65c0.36-0.304,0.593-0.596,0.7-0.875v1.525c0,0.566-0.066,1.566-0.2,3l1.351,2.85l1.649,1.65
	c0.333,0.333,0.733,1.233,1.2,2.7c0.267,0.6,0.35,1.017,0.25,1.25c-0.167,0.467-0.25,0.767-0.25,0.899c0,0.4-0.117,0.767-0.35,1.101
	c-0.134,0.199-0.417,0.616-0.851,1.25c-0.267,0.467-0.616,0.649-1.05,0.55c-0.5-0.2-0.867-0.333-1.1-0.4
	c-0.768-0.1-1.551-0.217-2.351-0.35c-0.566-0.067-1.183-0.233-1.85-0.5c-0.667-0.233-1.101-0.45-1.3-0.65
	c0.666-0.233,1.333-0.517,2-0.85c0.399-0.2,0.649-0.483,0.75-0.851c0.166-0.533,0.3-0.85,0.399-0.949
	c0.2-0.268,0.283-0.884,0.25-1.851c0-1.066,0.033-1.683,0.101-1.85c0.267-0.533,0.066-1.083-0.601-1.65
	c-0.8-0.6-1.316-1.05-1.55-1.35C186.35,43.983,186.017,43.333,185.75,42.5z"/>
<path style="fill-rule:evenodd;clip-rule:evenodd;fill:#4B2E1E;" d="M165.25,28.8c0.533,0.333,1.2,0.717,2,1.15
	c0.033,0.033,0.566,0.333,1.6,0.9c0.834,0.466,1.4,0.9,1.7,1.3c0.3,0.333,0.3,0.45,0,0.35c-0.833-0.333-1.667-0.566-2.5-0.7
	c-0.967-0.133-1.583-0.267-1.85-0.4c-0.833-0.367-1.434-0.617-1.8-0.75c-1.301-0.5-1.867-1.1-1.7-1.8l0.7-0.9L165.25,28.8z"/>
<path style="fill-rule:evenodd;clip-rule:evenodd;fill:#6D4126;" d="M138.55,50.25c1.7,0.733,2.15,1.367,1.351,1.9
	c-1.334,0.866-3.334,1.967-6,3.3l-2,1.35c-0.834,0.567-1.851,2.184-3.051,4.851c-0.633,1.333-1.166,2.6-1.6,3.8
	c-0.9-3.533-1.133-6.2-0.7-8c0.367-1.333,0.65-2.184,0.851-2.55c0.232-0.4,0.85-1.101,1.85-2.101c0.833-0.833,2.15-1.733,3.95-2.7
	l2.45-1.199C135.65,49,136.617,49.45,138.55,50.25z"/>
<path style="fill-rule:evenodd;clip-rule:evenodd;fill:#6D4126;" d="M137.5,65.15c0.5,0,0.417,0.333-0.25,1
	c-1.7,1.699-2.667,2.649-2.9,2.85c-1.232,0.934-2.717,1.533-4.449,1.8c-1.667,0.267-1.717,0.017-0.15-0.75l2.8-1.25
	c0.134-0.566,0.384-1.283,0.75-2.149c0.8-1.801,1.884-3.533,3.25-5.2c-0.767-0.934,0.134-2.033,2.7-3.3
	c1.333-0.7,3.05-0.684,5.15,0.05c2.1,0.733,2.816,1.6,2.149,2.6c-0.5,0.733-1.383,1.3-2.649,1.7c-2.067,0.6-3.617,1.15-4.65,1.65
	C137.917,64.816,137.333,65.15,137.5,65.15z"/>
<path style="fill-rule:evenodd;clip-rule:evenodd;fill:#6D4126;" d="M105.25,77.45l1.3-6v-7.3l3.351-4l2.649-0.7
	c1.101-0.367,2.517-0.083,4.25,0.85c1.7,0.9,1.617,1.517-0.25,1.851c-1.7,0.267-2.783,0.866-3.25,1.8
	c-0.267,0.566-0.517,1.517-0.75,2.85C112.117,68.133,109.684,71.684,105.25,77.45z"/>
<path style="fill-rule:evenodd;clip-rule:evenodd;fill:#6D4126;" d="M86.55,70.8c1.333,0.9,3.567,1.783,6.7,2.65
	c-2.233,0-4.9,0.45-8,1.35c-1.967,0.567-3.883,1.4-5.75,2.5c-0.934,0.567-1.684,1.067-2.25,1.5c1.333-2.667,3.1-5.116,5.3-7.35
	c1.233-1.567,1.9-2.367,2-2.4C84.65,69.017,85.316,69.6,86.55,70.8z"/>
<path style="fill-rule:evenodd;clip-rule:evenodd;fill:#6D4126;" d="M171.75,58.95c0.333-0.3,0.833-1.233,1.5-2.8
	c0.6-1.434,0.684-2.884,0.25-4.351c-0.267-0.866,0.316-1.649,1.75-2.35c1.1-0.533,2.983,0.2,5.65,2.2c1.333,1,2.55,2.05,3.649,3.149
	L179.9,56.15c-1.533,0.433-2.134,0.683-1.801,0.75c1,0.166,1.384,0.583,1.15,1.25c-0.467,1.333-2.467,5.1-6,11.3
	c-0.667-1.3-1.217-2.7-1.65-4.2c-0.5-1.833-0.616-3.316-0.35-4.45C171.483,59.7,171.65,59.083,171.75,58.95z"/>
<path style="fill-rule:evenodd;clip-rule:evenodd;fill:#6D4126;" d="M164.55,48.15c-0.833,1.666-2.083,3.05-3.75,4.149
	c-0.833,0.567-1.583,0.95-2.25,1.15c0.9-2.2,1.567-3.967,2-5.3c0.233-0.667-0.066-0.917-0.899-0.75
	c-0.268,0.066,0.267-0.351,1.6-1.25c1.9-1.268,3.65-1.75,5.25-1.45c1.566,0.333,1.816,1.033,0.75,2.1
	c-0.667,0.667-1.133,0.65-1.4-0.05C165.684,46.283,165.25,46.75,164.55,48.15z"/>
<path style="fill-rule:evenodd;clip-rule:evenodd;fill:#6D4126;" d="M55.25,80.15c-0.233,0.967-1.417,1.482-3.55,1.55l-3.15-0.25
	c0.233-1.434,0.8-2.9,1.7-4.4c1.767-3,4.316-4.633,7.65-4.899c2.8-0.233,5.467-0.551,8-0.95c1.833-0.267,3.167-0.4,4-0.4h2
	c-2.337,0.066-4.754,0.45-7.25,1.15C59.217,73.517,56.083,76.25,55.25,80.15z"/>
<path style="fill-rule:evenodd;clip-rule:evenodd;fill:#6D4126;" d="M159.9,36.15c0.933-0.2,1.467,0.117,1.6,0.95
	c0.066,0.4,0.033,0.833-0.1,1.3l-1.75,1c-0.733,0.434-1.5,1.35-2.301,2.75c-0.366,0.7-0.683,1.367-0.949,2l0.25-2.75
	c0.133-1.3,0.55-2.483,1.25-3.55C158.566,36.85,159.233,36.283,159.9,36.15z"/>
<path style="fill-rule:evenodd;clip-rule:evenodd;fill:#3C2617;" d="M209.725,72.6c-0.558,0.595-1.083,1.195-1.574,1.801v-0.5
	c0-0.533,0.166-1.184,0.5-1.95l0.5-1.05C209.343,72.058,209.535,72.625,209.725,72.6z M214.4,65.65v0.75c0,0.666,0.083,1.333,0.25,2
	c-1.786,1.281-3.369,2.623-4.75,4.024c0.085-0.15,0.168-0.409,0.25-0.774c0.199-0.934,0.383-2.334,0.55-4.2l0.2-2.55l0.5,1
	c0.333,0.666,0.583,2,0.75,4L214.4,65.65z"/>
<path style="fill-rule:evenodd;clip-rule:evenodd;fill:#6D4126;" d="M27.7,65.5c-4.534-1.934-10.184-4-16.95-6.2
	c0.267-0.233,1.017-0.8,2.25-1.7c1.2-0.866,2.367-1.866,3.5-3c1.333-1.333,3.184-2.732,5.55-4.199c3.134-1.9,5.117-3.167,5.95-3.801
	c1.7-1.267,2.767-2.366,3.2-3.3c0.366-1.3,0.8-2.533,1.3-3.7c0.6-1.434,3.867-3.717,9.8-6.85c6.467-3.267,10.367-5.316,11.7-6.15
	c0.9-0.567,3.75-2.25,8.55-5.05c4.267-2.5,7.25-4.316,8.95-5.45c2.2-1.467,6.25-3,12.15-4.6c5.733-1.6,10.017-2.4,12.85-2.4
	c2.367,0,4.85-0.483,7.45-1.45c1.133-0.4,2.983-1.25,5.55-2.55c1.4-0.7,6.25-1.367,14.55-2c8.033-0.6,13.017-0.767,14.95-0.5
	c1.467,0.2,2.8,0.85,4,1.95c0.633,0.567,1.1,1.1,1.4,1.6l2.1,5.45l4,0.5l-1.8,2.45c-1.267,1.733-2,2.917-2.2,3.55
	c-0.333,1-1,2.333-2,4c-1.667-0.333-3.167-0.667-4.5-1c-0.767-0.2-1.45-0.267-2.05-0.2c-1.134,0.133-1.95,0.2-2.45,0.2
	c-1.066,0-2.3-0.284-3.7-0.85c-0.267-0.133-1.366-0.684-3.3-1.65c-0.8-0.4-2.533,0-5.2,1.2c-2.7,1.367-4.3,2.134-4.8,2.3
	c-0.7,0.233-1.4,1.066-2.1,2.5c-0.667,1.267-1.134,2.6-1.4,4c-0.333,1.667-0.5,4-0.5,7c0,1.433-1.667,3.267-5,5.5
	c-1,0.667-2.35,1.566-4.05,2.7c-1.333,0.9-2.317,1.667-2.95,2.3c-0.6,0.601-1.467,1.084-2.6,1.45c-2.2,0.667-3.333,1.017-3.4,1.05
	c-1.033,0.4-2.267,1.167-3.7,2.301c-0.767,0.633-1.866,1.533-3.3,2.699c-0.867,0.634-1.983,0.983-3.35,1.051
	C84.383,54.617,83,54.6,82,54.6c-2.333,0-5-0.5-8-1.5C72.833,52.7,71,53,68.5,54c-3.066,1.233-4.883,1.883-5.45,1.95
	c-1.3,0.167-3.467,1.633-6.5,4.399c-2.333,2.134-4.517,4.384-6.55,6.75L49.95,67.2c-1.267,0.866-2.467,1.95-3.6,3.25l-2.8,3.25
	C38.983,70.767,33.7,68.033,27.7,65.5z"/>
<path style="fill-rule:evenodd;clip-rule:evenodd;fill:#613A22;" d="M21.55,47.9c3.134-1.9,5.117-3.167,5.95-3.801
	c1.7-1.266,2.767-2.366,3.2-3.3c0.366-1.3,0.8-2.533,1.3-3.7c0.6-1.434,3.867-3.717,9.8-6.85c6.467-3.267,10.367-5.316,11.7-6.15
	c0.9-0.567,3.75-2.25,8.55-5.05c4.267-2.5,7.25-4.316,8.95-5.45c2.2-1.467,6.25-3,12.15-4.6C88.883,7.4,93.167,6.6,96,6.6
	c2.367,0,4.85-0.483,7.45-1.45c1.133-0.4,2.983-1.25,5.55-2.55c1.4-0.7,6.25-1.367,14.55-2c8.033-0.6,13.017-0.767,14.95-0.5
	c1.467,0.2,2.8,0.85,4,1.95c0.633,0.567,1.1,1.1,1.4,1.6L146,9.1l6,3c-0.9,0.333-1.833,0.733-2.8,1.2c-1.934,0.9-3,1.667-3.2,2.3
	c-0.333,1-1,2.333-2,4c-1.667-0.333-3.167-0.667-4.5-1c-0.767-0.2-1.45-0.267-2.05-0.2c-1.134,0.133-1.95,0.2-2.45,0.2
	c-1.066,0-2.3-0.284-3.7-0.85c-0.267-0.133-1.366-0.684-3.3-1.65c-0.8-0.4-2.533,0-5.2,1.2c-2.7,1.367-4.3,2.134-4.8,2.3
	c-0.7,0.233-1.4,1.066-2.1,2.5c-0.667,1.267-1.134,2.6-1.4,4c-0.333,1.667-0.5,4-0.5,7c0,1.433-1.667,3.267-5,5.5
	c-1,0.667-2.35,1.566-4.05,2.7c-1.333,0.9-2.317,1.667-2.95,2.3c-0.6,0.601-1.467,1.084-2.6,1.45c-2.2,0.667-3.333,1.017-3.4,1.05
	c-1.033,0.4-2.267,1.167-3.7,2.301c-0.767,0.633-1.866,1.533-3.3,2.699c-0.867,0.634-1.983,0.983-3.35,1.051
	C83.883,52.117,82.5,52.1,81.5,52.1c-2.333,0-5-0.5-8-1.5c-1.167-0.399-3-0.1-5.5,0.9c-3.066,1.233-4.883,1.883-5.45,1.95
	c-1.3,0.167-3.467,1.633-6.5,4.399c-2.333,2.134-4.517,4.384-6.55,6.75c-1.233,1.467-2.434,3.567-3.6,6.301
	c-0.6,1.399-1.067,2.633-1.4,3.699c-1.333,2.334-2.5,3.834-3.5,4.5c-0.767,0.533-2.566,1-5.4,1.4c-2.967,0.4-6.167,0.6-9.6,0.6
	c-3.434,0.033-7.15-0.232-11.15-0.8C11.083,79.767,7.6,79.05,4.4,78.15c-2.267-0.634-3.683-1.301-4.25-2L0,75.35l1-2.75
	c0.167-0.5,0.333-1.25,0.5-2.25c0.167-1,0.333-1.75,0.5-2.25c0.2-0.633,1.333-2.316,3.4-5.05c2.233-2.967,3.6-4.783,4.1-5.45
	c0.5-0.633,1.333-1.366,2.5-2.199c1.467-1,2.8-2.101,4-3.301C17.333,50.767,19.184,49.367,21.55,47.9z"/>
<path style="fill-rule:evenodd;clip-rule:evenodd;fill:#613A22;" d="M117,38.6c0.5,0.267,1.1,1.733,1.8,4.4
	c0.7,2.667,0.934,4.367,0.7,5.1c-0.2,0.634-0.684,0.65-1.45,0.051L117,47.1c-1.333-1.333-2.5-3-3.5-5c-0.5-1-0.667-1.434-0.5-1.3
	c0.5,0.367,0.833,0.3,1-0.2c0.2-0.633,0.767-1.15,1.7-1.55C116.167,38.85,116.6,38.7,117,38.6z"/>
<path style="fill-rule:evenodd;clip-rule:evenodd;fill:#613A22;" d="M89.5,56.1l1.5,7l-3-3c-0.4-0.399-0.733-0.883-1-1.449
	c-0.5-1.067-0.333-1.917,0.5-2.551c0.667-0.5,1-0.683,1-0.55C88.5,55.917,88.833,56.1,89.5,56.1z"/>
<path style="fill-rule:evenodd;clip-rule:evenodd;fill:#4B2E1E;" d="M125,18.6l-1,4c-0.333,1.333-0.167,4,0.5,8l2.5,6.5l2,2v3
	l-4.5-0.5c-0.833-0.2-1.667-0.85-2.5-1.95l-1-1.55c0-1.667-0.333-3-1-4c-1.4-1.5-2.566-2.767-3.5-3.8c-1.733-2-2.4-3.4-2-4.2
	c0.434-0.833,0.733-1.75,0.9-2.75l0.1-1.25l2.5-2.5l8-3.5L125,18.6z"/>
<path style="fill-rule:evenodd;clip-rule:evenodd;fill:#4B2E1E;" d="M95.75,54.85c-0.3-1.166-0.55-2.583-0.75-4.25L94.8,48.9
	C94.934,49.533,95,49.6,95,49.1l-1.5-2.5l5-1l0.5,8l1.5,3c0.633,1.268,0.316,3.4-0.95,6.4c-0.6,1.5-1.283,2.867-2.05,4.1v-4.5
	c0-0.833-0.1-1.666-0.3-2.5c-0.3-1-0.534-1.833-0.7-2.5C96.167,56.434,95.917,55.517,95.75,54.85z"/>
<path style="fill-rule:evenodd;clip-rule:evenodd;fill:#6D4126;" d="M101.75,56.1c0,1.334-0.167,2.25-0.5,2.75l-1.5,2.25
	c0.5-2.166,0.417-4-0.25-5.5C98.733,53.9,98.333,53,98.3,52.9c-0.267-0.733-0.383-1.351-0.35-1.851l0.05-3.7
	c0-0.399,0.083-0.816,0.25-1.25l0.25-0.5l3.5-2l-0.25,1.25l-0.4,1.15c-0.3,0.867-0.5,1.566-0.6,2.1c-0.2,0.967-0.3,1.518-0.3,1.65
	c-0.067,0.533-0.05,1.066,0.05,1.6c0.167,0.834,0.417,1.75,0.75,2.75c0.033,0.167,0.15,0.5,0.35,1
	C101.7,55.367,101.75,55.7,101.75,56.1z"/>
<path style="fill-rule:evenodd;clip-rule:evenodd;fill:#6D4126;" d="M141.75,23.85c-0.167-0.233-0.467-0.5-0.9-0.8
	c-0.467-0.3-0.833-0.616-1.1-0.95c-0.3-0.4-1.017-0.934-2.15-1.6l-1.6-0.9l2.35-0.05c1.634,0,2.601,0.1,2.9,0.3
	c0.5,0.333,1.5,0.667,3,1l0.25,7.25c0,0.8,0.133,1.767,0.4,2.9c0.232,1.133,0.35,1.917,0.35,2.35c0,0.566,0.2,1.3,0.6,2.2
	c0.434,1,0.667,1.634,0.7,1.9c0.033,0.1,0.134,0.533,0.3,1.3c0.101,0.4,0.15,0.85,0.15,1.35v3c0,0.834,0.083,1.75,0.25,2.75
	c-1-1.5-1.5-2.666-1.5-3.5c0-1.3-0.5-2.55-1.5-3.75l-0.75-3.75c-0.033-0.133-0.184-0.417-0.45-0.85c-0.2-0.3-0.3-0.85-0.3-1.65
	c0-2.333-0.083-3.917-0.25-4.75l-0.3-2.05C142.1,24.717,141.95,24.15,141.75,23.85z"/>
<path style="fill-rule:evenodd;clip-rule:evenodd;fill:#6D4126;" d="M72.65,24.25c0.733,0.6,1.433,1.217,2.1,1.85l-3.25-0.75h-3.25
	L68,23.6c0.167-0.2,0.367-0.4,0.6-0.6c0.466-0.434,0.85-0.65,1.15-0.65C70.184,22.35,71.15,22.983,72.65,24.25z"/>
<path style="fill-rule:evenodd;clip-rule:evenodd;fill:#6D4126;" d="M33.75,34.35l2.5-1l-2,3.25c-0.733,0.966-0.233,1.883,1.5,2.75
	c-0.467,0-0.75,0.017-0.85,0.05c-0.267,0.034,0.433,0.1,2.1,0.2c1.167,0.066,2.55,0.083,4.15,0.05c1.1-0.033,2.05,0.034,2.85,0.2
	c0.566,0.133,1.6,0.3,3.1,0.5c1.066,0.133,1.783,0.3,2.15,0.5c0.667,0.333,3,1.25,7,2.75l-5.5-0.75c-1.5-0.167-3.167-0.25-5-0.25h-4
	c-0.066,0-0.517,0.033-1.35,0.1c-0.466,0.033-1.1,0-1.9-0.1c-2.667-0.333-4.167-0.5-4.5-0.5c-0.4,0-0.767-0.05-1.1-0.15
	c-0.333-0.134-0.633-0.25-0.9-0.35l-0.75-0.25l0.25-2.75c-0.167,0.333,0-0.167,0.5-1.5c0.3-0.833,0.684-1.534,1.15-2.1L33.75,34.35z
	"/>
<path style="fill-rule:evenodd;clip-rule:evenodd;fill:#6D4126;" d="M12.25,59.35c1-0.199,1.083,0.301,0.25,1.5
	c0.267,0.334,0.533,0.867,0.8,1.601c0.067,0.233,0.634,0.45,1.7,0.649c0.867,0.167,2.083,0.301,3.65,0.4
	c1.3,0.066,2.25,0.184,2.85,0.35c1.167,0.334,2.25,0.584,3.25,0.75c-1.833,0.167-3.25,0.25-4.25,0.25H18l0.45,0.7
	c0.4,0.5,0.917,0.851,1.55,1.05c0.5,0.167,0.934,0.384,1.3,0.65c0.467,0.2,1.45,0.4,2.95,0.6c1.267,0.167,2.05,0.217,2.35,0.15
	c0.1,0,0.566,0.117,1.4,0.35c1.667,0.5,4,1.084,7,1.75c-6.667-0.166-10.833-0.25-12.5-0.25c-0.967,0-2.1-0.033-3.4-0.1
	c-1.3-0.1-2-0.15-2.1-0.15c-0.233,0-1.017-0.116-2.35-0.35c-1.333-0.267-2.133-0.4-2.4-0.4C10.583,68.684,9.167,68.6,8,68.6
	c-0.733,0-1.95-0.083-3.65-0.25L2,68.1c2-3.166,3.25-5.083,3.75-5.75c0.1-0.133,0.417-0.8,0.95-2c0.433-0.933,0.95-1.6,1.55-2
	c0.633-0.399,1.283-0.933,1.95-1.6l0.8-0.9l0.15,1.851C11.35,58.9,11.717,59.45,12.25,59.35z"/>
<path style="fill-rule:evenodd;clip-rule:evenodd;fill:#6D4126;" d="M98.5,18.1c0.167,0.167,0.517,0.433,1.05,0.8
	c0.434,0.333,0.833,0.733,1.2,1.2l1.75,2.25L98,22.6l-0.5-1.25l-2.75-0.25l1.75-3l0.7-0.3C97.767,17.7,98.2,17.8,98.5,18.1z"/>
<path style="fill-rule:evenodd;clip-rule:evenodd;fill:#6D4126;" d="M88.75,36.1l0.75,2c0.167,0.667,0.25,1.333,0.25,2l1.5,1.25
	c0.5,0.5,1.25,0.833,2.25,1c-2.833,0.833-4.417,1.25-4.75,1.25c-0.4,0-1.1-0.199-2.1-0.6l-1.4-0.65c-0.167-0.5-0.583-0.833-1.25-1
	c-0.4-0.1-1.1-0.167-2.1-0.2l-1.4-0.05c0.167-0.5,0.667-1.167,1.5-2c1.033-1.034,1.617-1.6,1.75-1.7c0.633-0.533,1.217-0.8,1.75-0.8
	C86.333,36.6,87.417,36.434,88.75,36.1z"/>
<path style="fill-rule:evenodd;clip-rule:evenodd;fill:#6D4126;" d="M132,11.35c-0.4-0.1-0.934-0.3-1.6-0.6l-0.9-0.4l1.55-0.7
	c1.101-0.466,1.917-0.65,2.45-0.55c0.833,0.167,2,0.667,3.5,1.5l0.5,2.75L132,11.35z"/>
<path style="fill-rule:evenodd;clip-rule:evenodd;fill:#5A371F;" d="M22.25,57.1l5.5,0.75c0.267,0,1.05,0.334,2.35,1
	c1.3,0.667,2.267,1,2.9,1c0.667,0,1.367,0.134,2.1,0.4c0.9,0.333,1.533,0.533,1.9,0.6c0.633,0.101,1.25,0.283,1.85,0.551
	c0.367,0.133,0.917,0.366,1.65,0.699c0.833,0.334,1.667,1,2.5,2c-0.833,1.334-1.833,2.25-3,2.75c-1.167,0.5-2.667,0.75-4.5,0.75
	h-0.75c0.501-0.009,0.834-0.592,1-1.75c-0.5-1.333-1.083-2.416-1.75-3.25C33.667,62.2,33.483,62,33.45,62
	c-0.134,0.066-0.45-0.066-0.95-0.4c-0.5-0.333-0.767-0.5-0.8-0.5c-0.134,0-0.534-0.166-1.2-0.5c-0.7-0.366-1.517-0.6-2.45-0.699
	c-1-0.134-1.767-0.317-2.3-0.551c-0.733-0.3-1.533-0.767-2.4-1.399L22.25,57.1z"/>
<path style="fill-rule:evenodd;clip-rule:evenodd;fill:#5A371F;" d="M60.65,52.25L60,52.1c-0.5-0.666-1-1.416-1.5-2.25
	c-0.3-0.533-0.6-0.933-0.9-1.199l-0.35-0.301c-2.833-1.166-4.5-1.916-5-2.25c-0.167-0.1-0.75-0.366-1.75-0.8
	c-0.667-0.3-0.833-0.45-0.5-0.45c1.967,0,3.4,0.167,4.3,0.5c0.934,0.334,1.75,0.5,2.45,0.5c1.133,0,2.05,0.15,2.75,0.45
	c0.434,0.2,1.1,0.55,2,1.05c2.333,1,4,1.5,5,1.5c0.467,0,0.983,0.134,1.55,0.4c0.2,0.1,1.017,0.55,2.45,1.35
	c0.767,0.434,0.983,0.617,0.65,0.551c-1-0.101-1.8-0.033-2.4,0.199c-0.767,0.334-1.983,0.601-3.65,0.801
	c-1.267,0.133-2.3,0.199-3.1,0.199C61.6,52.35,61.15,52.316,60.65,52.25z"/>
<path style="fill-rule:evenodd;clip-rule:evenodd;fill:#5A371F;" d="M91.75,36.35l2.5-0.5l3.5,1.25l-1.05,0.65
	c-0.767,0.5-1.417,0.95-1.95,1.35c-0.434,0.333-0.667,0.7-0.7,1.1c-0.033,0.167-0.217,0.216-0.55,0.15
	c-0.4-0.1-0.717-0.333-0.95-0.7c-0.267-0.533-0.533-0.966-0.8-1.3c-0.3-0.4-0.4-0.85-0.3-1.35L91.75,36.35z"/>
<path style="fill-rule:evenodd;clip-rule:evenodd;fill:#5A371F;" d="M71.25,22.35l5.25,0.25l3,0.75l-0.75,1.25
	c-1.5,0.5-2.583,0.75-3.25,0.75c-0.533,0-0.9-0.034-1.1-0.1c-0.3-0.066-0.683-0.283-1.15-0.65c-0.4-0.3-0.85-0.767-1.35-1.4
	L71.25,22.35z"/>
<path style="fill-rule:evenodd;clip-rule:evenodd;fill:#5A371F;" d="M53.75,37.85c-0.6-0.4-1.434-0.733-2.5-1L47.5,36.1l3.45-0.1
	c2.4-0.033,3.917,0,4.55,0.1c1,0.167,1.583,0.417,1.75,0.75l4.25,2.25L60,39.35c-2.167,0-3.5-0.083-4-0.25S54.75,38.517,53.75,37.85
	z"/>
<path style="fill-rule:evenodd;clip-rule:evenodd;fill:#5A371F;" d="M100.25,17.35c0.233-0.333,0.633-0.05,1.2,0.85
	c0.02,0.03,0.037,0.063,0.05,0.1c0.469,0.043,1.053,0.06,1.75,0.05L105,18.6l0.25,1.25l-1,1c-0.233,0.1-0.5,0.15-0.8,0.15
	c-0.534,0-0.85-0.217-0.95-0.65c-0.16-0.609-0.494-1.293-1-2.05C100.332,18.169,99.915,17.852,100.25,17.35z"/>
<path style="fill-rule:evenodd;clip-rule:evenodd;fill:#5A371F;" d="M139.5,9.85h1.75l0.5,0.4c0.333,0.333,0.5,0.7,0.5,1.1
	c0,0.667-0.083,1.417-0.25,2.25l-3.5-0.75c0.5-1.167,0.417-1.917-0.25-2.25l-3-1.25l1.45,0.25
	C137.833,9.767,138.767,9.85,139.5,9.85z"/>
<path style="fill-rule:evenodd;clip-rule:evenodd;fill:#5A371F;" d="M124.25,2.6l1,1.45c0.667,1.067,1,1.75,1,2.05
	c0,0.5-0.833,0.583-2.5,0.25v-1c-0.833-0.667-1.5-1.083-2-1.25c-0.3-0.1-0.566-0.333-0.8-0.7l-0.2-0.55L124.25,2.6z"/>
<path style="fill-rule:evenodd;clip-rule:evenodd;fill:#5A371F;" d="M109.75,22.85V22.1c0-0.4,0.05-0.717,0.15-0.95
	c0.166-0.267,0.533-0.7,1.1-1.3c0.434-0.4,0.617-0.633,0.55-0.7c-0.2-0.1-0.217-0.45-0.05-1.05c-0.833-0.5-1.417-1-1.75-1.5
	c-0.2-0.3-0.133-0.65,0.2-1.05l0.55-0.45c-0.833-0.167-3-0.75-6.5-1.75c-2.2-0.633-3.184-1.034-2.95-1.2l10.45-0.05
	c0.8,0,1.35,0.05,1.65,0.15c0.3,0.066,0.666,0.1,1.1,0.1c1,0,1.667,0.167,2,0.5c0.333-0.167-0.833-1.75-3.5-4.75l0.85,0.25
	c0.634,0.167,1.101,0.25,1.4,0.25c0.667,0,2.333,1,5,3l1.5,1c1,0.667,1.333,1.083,1,1.25l3.75,0.75c-0.8,0.167-1.633,0.35-2.5,0.55
	c-1.733,0.434-2.816,0.75-3.25,0.95c-0.667,0.333-1.667,0.583-3,0.75l-1.75,2c-0.267,0.367-0.684,0.617-1.25,0.75
	c-0.8,0.2-1.467,0.45-2,0.75c-0.733,0.433-1.167,0.9-1.3,1.4c-0.033,0.267-0.017,0.717,0.05,1.35
	C111.25,23.767,110.75,23.684,109.75,22.85z"/>
<path style="fill-rule:evenodd;clip-rule:evenodd;fill:#5A371F;" d="M2.3,74.25l0.9-0.45c0.667,0.667,2,1.384,4,2.15
	c0.566,0.233,1.683,0.7,3.35,1.399c1.533,0.533,2.684,0.733,3.45,0.601c0.967-0.167,2.167-0.317,3.6-0.45
	c1.466-0.1,2.5-0.117,3.1-0.05c2.767,0.366,4.316,0.417,4.65,0.149c0.333-0.232,1.1-0.633,2.3-1.199
	c1.2-0.567,2.05-0.934,2.55-1.101c0.333-0.1,1.017-0.283,2.05-0.55c0.967-0.267,1.617-0.65,1.95-1.15
	c0.333-0.633,0.566-1.066,0.7-1.3c0.233-0.333,0.767-0.667,1.6-1c1.333-0.566,2.45-0.899,3.35-1l-0.5,3v1.3
	c0,0.334,0.283,0.9,0.85,1.7l0.1,0.4c0.1,0.333,0.283,0.633,0.55,0.899c0.433,0.467,1.55,1.367,3.35,2.7l1,1.3l-10.35-0.8
	c-0.667-0.066-2.233,0-4.7,0.2c-2.767,0.2-4.483,0.3-5.15,0.3c-1.267,0-2.917-0.066-4.95-0.2c-2.066-0.166-3.583-0.333-4.55-0.5
	c-0.9-0.133-2.717-0.517-5.45-1.149c-2.533-0.567-4.1-0.95-4.7-1.15c-0.4-0.133-1.417-0.667-3.05-1.6l-1.7-1
	c0.129-0.048,0.263-0.181,0.4-0.4C1.2,74.934,1.633,74.583,2.3,74.25z"/>
</svg>
