<?xml version="1.0" encoding="iso-8859-1"?>
<!-- Generator: Adobe Illustrator 15.1.0, SVG Export Plug-In . SVG Version: 6.00 Build 0)  -->
<!DOCTYPE svg PUBLIC "-//W3C//DTD SVG 1.1//EN" "http://www.w3.org/Graphics/SVG/1.1/DTD/svg11.dtd">
<svg version="1.1" id="FlashAICB" xmlns="http://www.w3.org/2000/svg" xmlns:xlink="http://www.w3.org/1999/xlink" x="0px" y="0px"
	 width="269.35px" height="69.5px" viewBox="0 0 269.35 69.5" style="enable-background:new 0 0 269.35 69.5;" xml:space="preserve"
	>
<path style="fill-rule:evenodd;clip-rule:evenodd;fill:#6D4126;" d="M220.4,4c0.866,0.333,1.85,0.5,2.949,0.5l6.351,2
	c-1.566,0.233-2.684,0.45-3.351,0.65c-0.666,0.233-1.666,0.133-3-0.3C221.116,6.183,220,5.4,220,4.5C220,4.067,220.134,3.9,220.4,4z
	 M184.15,7.85c0.767,0.433,0.949,1.2,0.55,2.3l0.3,2.35l-5.65-0.35l-2-1.3c0.634-1.1,1.301-2,2-2.7
	C180.717,6.817,182.316,6.717,184.15,7.85z M132.7,59.925v3.226h-0.05c-0.067-0.186-0.243-0.845-0.525-1.976
	c-0.022-0.103-0.047-0.211-0.075-0.325c-0.566-2.333-1.083-4-1.55-5c-0.433-0.966-0.633-1.6-0.6-1.899
	c0.033-0.4-0.033-0.884-0.2-1.45c-0.267-0.8-0.35-1.566-0.25-2.3c0.167-1.334,0.25-2.117,0.25-2.351V44.5
	c0-1.333-0.117-2.667-0.35-4c-0.067-0.233-0.117-0.417-0.15-0.55c-0.245-0.344-1.12-0.585-2.625-0.726
	c-0.938-0.25-1.513-0.375-1.725-0.375c-1.088-0.07-2.346,0.03-3.775,0.301c-1.929,0.354-4.17,1.02-6.725,2
	c-3.422,1.302-7.914,3.344-13.475,6.125c-0.568,0.287-1.143,0.579-1.725,0.875c-3.733,1.899-7.066,2.916-10,3.05
	c-2.2,0.1-4.367,0.416-6.5,0.95c-1.833,0.466-4.7,0.699-8.6,0.699L71.8,52.8c-1.033,0.334-2.25,0.566-3.65,0.7
	c-0.619,0.052-1.302,0.06-2.05,0.025c-1.201-0.038-2.567-0.18-4.1-0.426c-2.533-0.5-4.2-0.816-5-0.949
	c-1-0.134-1.85-0.15-2.55-0.051c-0.167,0-0.867,0.134-2.1,0.4c-0.7,0.134-1.217,0.566-1.55,1.3c-0.167,0.367-0.267,0.717-0.3,1.05
	l0.2,9c-0.427-2.043-0.844-3.609-1.25-4.699c-0.03-0.106-0.063-0.207-0.1-0.301c-0.767-2-1.317-4.116-1.65-6.35
	c-0.167-0.833-0.15-1.55,0.05-2.15c-0.067-0.333-0.25-0.533-0.55-0.6c-0.733-0.1-2.467,0.05-5.2,0.45
	c-4.633,0.767-7.567,1.2-8.8,1.3c-1.567,0.134-3.517-0.083-5.85-0.65c-2.2-0.566-4.45-1.35-6.75-2.35l-2.75-1.3l-17.8-1.05
	l17.1-1.65l2.75,1.35c0.611,0.266,1.219,0.516,1.825,0.75L22.4,47.4c1.067,0.8,2.5,1.05,4.3,0.75c2.333,0.6,4.283,0.833,5.85,0.699
	c1.2-0.1,4.133-0.55,8.8-1.35c3.566-0.5,5.45-0.55,5.65-0.15c0.067,0.101,0.117,0.267,0.15,0.5c0.2,0.2,0.717,0.301,1.55,0.301
	c0.767,0,4.05,0.333,9.85,1c5.767,0.666,10.7,1,14.8,1c3.933,0,6.816-0.233,8.65-0.7c2.167-0.533,4.333-0.851,6.5-0.95
	c3.233-0.134,7.3-1.134,12.2-3c3.066-1.167,8.883-3.5,17.45-7c5.7-2.167,9.2-2.816,10.5-1.95c0.333,0.2,0.684,0.5,1.05,0.9
	c0.433,0.166,1.216-0.033,2.35-0.601c2.601-1.333,8.95-3.167,19.05-5.5c9.9-2.333,17.7-3.833,23.4-4.5
	c5.8-0.667,9.733-1.05,11.8-1.15c2.601-0.133,8.733-0.2,18.4-0.2c8.1,0,13.233-0.15,15.399-0.45c1.367-0.2,3.95-0.6,7.75-1.2
	c3.167-0.333,8.15-1.434,14.95-3.3c6.5-1.8,11.351-2.816,14.55-3.05c3.005-0.22,4.722-0.77,5.15-1.65c0.792,1.706-0.809,2.706-4.8,3
	c-3.167,0.233-7.983,1.467-14.45,3.7c-6.6,2.333-11.517,3.65-14.75,3.95l-2.15,0.25v9.4c0,0.579-0.033,1.146-0.1,1.699v0.025
	c-0.096,0.917-0.279,1.792-0.55,2.625l-0.7-1c-0.267-0.4-0.483-0.866-0.65-1.4c-0.333-1.066-0.55-1.716-0.649-1.949
	c-0.267-0.601-0.8-1.15-1.601-1.65c-1-0.6-1.699-1.15-2.1-1.65c-0.6-0.767-2.25-1.65-4.95-2.65c-1.524-0.56-2.999-1.026-4.425-1.4
	c-1.034-0.265-2.042-0.481-3.025-0.65h-2.25c-4.333,0-11.1-0.167-20.3-0.5c-4.866-0.167-9.434,0-13.7,0.5
	c-4.666,0.567-11.199,2.1-19.6,4.6c-7.333,2.2-13.116,4.2-17.35,6c-0.518,0.808-0.976,1.691-1.375,2.65v0.024
	c-0.006,0.025-0.015,0.051-0.025,0.075c-0.4,1.1-0.517,1.866-0.35,2.3c0.133,0.267,0.367,0.617,0.7,1.05
	c0.133,0.334,0.066,1.301-0.2,2.9c-0.3,1.967-0.45,3.434-0.45,4.4V59.925z M245.925,14.85c-0.556,0.2-1.08,0.3-1.575,0.3
	c-2.666,0-4.783,0.45-6.35,1.35l-2.3,1.35c-0.767,0.433-1.4,0.633-1.9,0.6c-1.399-0.067-3.434,0.066-6.1,0.4
	c1.767-1.8,3.983-3.467,6.649-5l3.351-2c0.434-0.3,1.383-0.55,2.85-0.75c1.134-0.167,2.066-0.25,2.8-0.25c0.534,0,1.75,0.333,3.65,1
	c0.667,0.2,0.783,0.967,0.35,2.3C246.854,14.45,246.38,14.684,245.925,14.85z M42,29.15c0.3-0.2,0.667-0.433,1.1-0.7
	c0.9-0.5,1.767-0.817,2.6-0.95l9.3,7.35l-3.65-0.35c-2.9-1.1-4.9-1.983-6-2.65c-0.6-0.367-1.1-0.583-1.5-0.65
	c-0.567-0.067-1.067-0.184-1.5-0.35c0.433-0.167,0.75-0.367,0.95-0.6C43.7,29.817,43.267,29.45,42,29.15z M101.3,18.25l-2.3-0.4
	h11.35l3.6,0.95c2.433,0.733,3.783,1.3,4.05,1.7c0.233,0.333,0.85,1,1.85,2s1.617,1.667,1.85,2c0.6,0.933,2.033,2.267,4.3,4
	c0.9,0.667,1.733,2.333,2.5,5l-6.15-4c-0.667-0.433-0.934-0.65-0.8-0.65c0.434,0.1,0.583-0.017,0.45-0.35
	c-0.1-0.3-0.767-0.983-2-2.05c-1.433-1.2-2.483-2.284-3.15-3.25c-0.733-1.034-1.65-1.617-2.75-1.75
	c-1.333-0.133-2.033-0.233-2.1-0.3c-0.667-0.433-1.767-0.65-3.3-0.65c-0.667,0-1.434-0.133-2.3-0.4s-1.55-0.583-2.05-0.95
	C103.95,18.883,102.933,18.583,101.3,18.25z M127.25,3.85c0.533-0.633,1.167-0.917,1.9-0.85l2.7,1.2l-1.5,1.65l-3.65-1
	C126.8,4.517,126.983,4.183,127.25,3.85z M152.75,19.55l0.6-0.7l1.601-0.35c1.233-0.2,2.25-0.2,3.05,0
	c1.134,0.267,2.417,0.95,3.85,2.05c0.733,0.567,1.351,1.1,1.851,1.6l-1.851,0.05l-2.5,0.95c-2.666-1.533-4.616-2.417-5.85-2.65
	C152.733,20.367,152.483,20.05,152.75,19.55z M16,32.05c-0.667-0.333-1-0.733-1-1.2c0-0.434,0.8-0.783,2.4-1.05
	c1.2-0.2,2.4-0.3,3.6-0.3c1.133,2,1.25,3,0.35,3H17.7C17.133,32.5,16.567,32.35,16,32.05z M0.075,46.1L0.05,46.15H0
	C0.021,46.138,0.046,46.121,0.075,46.1z M86.7,37.5h-2.35l-4.35-1l-2-1.35c0.133-0.2,0.367-0.45,0.7-0.75
	c0.667-0.6,1.55-1.117,2.65-1.55L86.7,37.5z"/>
<path style="fill-rule:evenodd;clip-rule:evenodd;fill:#613A22;" d="M220.4,4c-0.267-0.1-0.4,0.067-0.4,0.5
	c0,0.9,1.116,1.683,3.35,2.35c1.334,0.433,2.334,0.533,3,0.3c0.667-0.2,1.784-0.417,3.351-0.65l-6.351-2
	C222.25,4.5,221.267,4.333,220.4,4z M185.9,7.25c0.399,0.667,0.666,1.417,0.8,2.25c0.2,1.333,0.25,2.45,0.149,3.35l0.9,0.1
	c0.667,0.066,1.2,0.033,1.6-0.1c0.667-0.233,1.45-0.8,2.351-1.7l0.45-1.3L189.7,8.5c-2.467-0.833-3.884-1.467-4.25-1.9L185.9,7.25z
	 M184.15,7.85c-1.834-1.133-3.434-1.033-4.801,0.3c-0.699,0.7-1.366,1.6-2,2.7l2,1.3L185,12.5l-0.3-2.35
	C185.1,9.05,184.917,8.283,184.15,7.85z M219.35,10.5L212,7.85c-1.1,0.433-2.983,0.767-5.65,1l0.65,0.7
	c0.5,0.5,0.95,0.817,1.35,0.95l7,2.35l0.95,0.7c0.834,0.4,1.733,0.383,2.7-0.05c0.8-0.333,1.483-0.45,2.05-0.35
	c0.2,0.033,0.3-0.183,0.3-0.65c0-0.567-0.333-1.067-1-1.5L219.35,10.5z M216.9,18.9c0.533,0.033,1.017-0.1,1.449-0.4
	c0.467-0.3,0.5-0.717,0.101-1.25c-0.334-0.5-0.7-0.75-1.101-0.75H210.7l1.25,0.85c1,0.633,1.916,1.017,2.75,1.15
	C216.1,18.733,216.833,18.867,216.9,18.9z M0.05,46.15L0.075,46.1c0.852-2.642,1.51-4.842,1.975-6.6
	c0.267-1.066,1.217-2.283,2.85-3.65c2.867-2.366,4.35-3.6,4.45-3.7c2.066-2.066,6.066-3.816,12-5.25c8-1.933,14.667-4.183,20-6.75
	c9.066-4.367,20.117-8.617,33.15-12.75c14.233-4.5,24.967-6.917,32.2-7.25c6.066-0.267,15.066-0.117,27,0.45
	c13.399,0.6,20.399,0.9,21,0.9c14.233,0,25.35-0.217,33.35-0.65c8-0.467,18.667-0.7,32-0.7l6.25,2.25
	c5,1.667,9.584,2.917,13.75,3.75c4.334,0.867,8.167,1.833,11.5,2.9c1.601,0.534,3.767,1.35,6.5,2.45
	c2.367,0.967,3.833,2.05,4.4,3.25c0.098,0.214,0.147,0.414,0.149,0.6c0.007,0.179-0.026,0.346-0.1,0.5
	c-0.429,0.88-2.146,1.43-5.15,1.65c-3.199,0.233-8.05,1.25-14.55,3.05c-6.8,1.867-11.783,2.967-14.95,3.3c-3.8,0.6-6.383,1-7.75,1.2
	c-2.166,0.3-7.3,0.45-15.399,0.45c-9.667,0-15.8,0.067-18.4,0.2c-2.066,0.1-6,0.483-11.8,1.15c-5.7,0.667-13.5,2.167-23.4,4.5
	c-10.1,2.333-16.449,4.167-19.05,5.5c-1.133,0.567-1.917,0.767-2.35,0.601c-0.367-0.4-0.717-0.7-1.05-0.9
	c-1.3-0.866-4.8-0.217-10.5,1.95c-8.566,3.5-14.383,5.833-17.45,7c-4.9,1.866-8.967,2.866-12.2,3c-2.167,0.1-4.333,0.417-6.5,0.95
	c-1.833,0.467-4.717,0.7-8.65,0.7c-4.1,0-9.033-0.334-14.8-1c-5.8-0.667-9.083-1-9.85-1c-0.833,0-1.35-0.101-1.55-0.301
	c-0.033-0.233-0.083-0.399-0.15-0.5c-0.2-0.399-2.083-0.35-5.65,0.15c-4.667,0.8-7.6,1.25-8.8,1.35
	c-1.566,0.134-3.517-0.1-5.85-0.699c1.066-0.167,2.3-0.5,3.7-1c0.8-0.267,1.883-0.317,3.25-0.15c2.467,0.333,4.15,0.384,5.05,0.15
	c-3.133-0.434-4.8-0.983-5-1.65c-0.1-0.6-0.2-1.033-0.3-1.3c-0.133-0.4-0.483-0.75-1.05-1.05c-0.567-0.267-2.267-0.733-5.1-1.4
	l-4.1-0.9c-0.9,0.834-1.5,1.617-1.8,2.351c-0.167,0.333-0.233,0.6-0.2,0.8l0.2,2.15l0.375,0.449
	c-0.606-0.234-1.214-0.484-1.825-0.75l-2.75-1.35L0.05,46.15z M244.35,15.15c0,0.467-1.116,0.917-3.35,1.35
	c7.134,0.233,11.25,0.117,12.35-0.35c1.101-0.433,3.551-1.1,7.351-2L258,14.5c-0.267,0-0.967-0.267-2.1-0.8
	c-1.101-0.567-1.95-0.85-2.551-0.85h-4c0.434,1.1,0.217,1.767-0.649,2c-0.367,0.066-1.267,0.066-2.7,0
	c-0.025-0.001-0.051-0.001-0.075,0c0.455-0.167,0.93-0.4,1.425-0.7c0.434-1.333,0.317-2.1-0.35-2.3c-1.9-0.667-3.116-1-3.65-1
	c-0.733,0-1.666,0.083-2.8,0.25c-1.467,0.2-2.416,0.45-2.85,0.75l-3.351,2c-2.666,1.533-4.883,3.2-6.649,5
	c2.666-0.333,4.7-0.467,6.1-0.4c0.5,0.033,1.134-0.167,1.9-0.6l2.3-1.35C239.566,15.6,241.684,15.15,244.35,15.15z M42.35,30.85
	c0.433,0.167,0.933,0.283,1.5,0.35c0.4,0.066,0.9,0.283,1.5,0.65c1.1,0.667,3.1,1.55,6,2.65L55,34.85l-9.3-7.35
	c-0.833,0.133-1.7,0.45-2.6,0.95c-0.434,0.267-0.8,0.5-1.1,0.7c-0.833-0.167-1.883-0.467-3.15-0.9c-0.833-0.267-1.55-0.4-2.15-0.4
	H33l-7,1c0.9,0.433,1.8,1.1,2.7,2l-1.85,2.35L36,33.15c1,0,1.833-0.183,2.5-0.55c0.5-0.267,1.05-0.3,1.65-0.1
	c0.767,0.267,1.367,0.067,1.8-0.6L42.35,30.85z M50,29.15c1.133,0.467,3.3,1.583,6.5,3.35l2.5,1.35c0.9,0.433,3.8,1.2,8.7,2.3l4-2.3
	l-2.35-1.35l-4.5-2c0.333-0.233-0.283-0.35-1.85-0.35h-5c-0.4,0-0.833-0.117-1.3-0.35c-0.767-0.4-1.217-0.617-1.35-0.65l-6-1.3
	l-0.3,0.4C48.983,28.583,49.3,28.883,50,29.15z M98,6.5c0.867,0,1.25-0.183,1.15-0.55c-0.066-0.267-0.333-0.534-0.8-0.8
	c-0.9-0.433-1.434-0.316-1.6,0.35S97,6.5,98,6.5z M74,19.15c-0.533,0-1.083,0.05-1.65,0.15c-1.1,0.167-1.65,0.45-1.65,0.85
	c0,0.667,0.883,1.233,2.65,1.7c0.5-0.4,0.9-0.8,1.2-1.2C75.15,19.783,74.967,19.283,74,19.15z M101.3,18.25
	c1.633,0.333,2.65,0.633,3.05,0.9c0.5,0.367,1.183,0.684,2.05,0.95s1.633,0.4,2.3,0.4c1.533,0,2.633,0.217,3.3,0.65
	c0.067,0.067,0.767,0.167,2.1,0.3c1.1,0.133,2.017,0.716,2.75,1.75c0.667,0.966,1.717,2.05,3.15,3.25c1.233,1.066,1.9,1.75,2,2.05
	c0.133,0.333-0.017,0.45-0.45,0.35c-0.133,0,0.133,0.217,0.8,0.65l6.15,4c-0.767-2.667-1.6-4.333-2.5-5
	c-2.267-1.733-3.7-3.067-4.3-4c-0.233-0.333-0.85-1-1.85-2s-1.617-1.667-1.85-2c-0.267-0.4-1.617-0.967-4.05-1.7l-3.6-0.95H99
	L101.3,18.25z M100.35,24.15l-0.35,1.2c0,0.867,0.567,1.367,1.7,1.5c0.9,0.1,1.466,0.233,1.7,0.4c0.1,0.067,0.417,0.033,0.95-0.1
	c0.8-0.133,1.35-0.783,1.65-1.95c0.267-1.133,0.05-1.7-0.65-1.7c-0.833,0-1.917,0.117-3.25,0.35L100.35,24.15z M99.7,9.85
	c0.466,0.6,1.083,1.1,1.85,1.5c0.667,0.333,1.267,0.5,1.8,0.5c0.667,0,2.55-0.117,5.65-0.35c-0.267-0.333-0.7-0.683-1.3-1.05
	c-1.133-0.733-2.467-1.167-4-1.3c-1.967-0.133-3.017-0.2-3.15-0.2C99.55,8.983,99.267,9.283,99.7,9.85z M127.25,3.85
	c-0.267,0.333-0.45,0.667-0.55,1l3.65,1l1.5-1.65l-2.7-1.2C128.417,2.933,127.783,3.217,127.25,3.85z M133.35,2.85l-1.5,1.35
	l3.85,1.65C135.033,4.05,134.25,3.05,133.35,2.85z M121,19.5l0.65,1.9c0.567,1.333,1.133,2.15,1.7,2.45c0.9,0.433,2.35,1.2,4.35,2.3
	l1.3,1.65c0.8,1.233,1.133,2.133,1,2.7c-0.2,0.9-0.3,1.783-0.3,2.65l2.2,0.25c1.5,0,2.317-0.417,2.45-1.25
	c0.101-0.566,0.4-1.417,0.9-2.55c0.4-0.9,0.55-1.6,0.45-2.1c-0.267-1.1-0.533-1.85-0.8-2.25c-0.534-0.867-1.384-1.45-2.55-1.75
	c-1.1-0.267-2.317-0.517-3.65-0.75L127,22.5l-4.5-3.3L121,19.5z M152.75,19.55c-0.267,0.5-0.017,0.817,0.75,0.95
	c1.233,0.233,3.184,1.117,5.85,2.65l2.5-0.95l1.851-0.05c-0.5-0.5-1.117-1.033-1.851-1.6c-1.433-1.1-2.716-1.783-3.85-2.05
	c-0.8-0.2-1.816-0.2-3.05,0l-1.601,0.35L152.75,19.55z M169.35,23.85c0.9-0.233,2.117-0.684,3.65-1.35l-4-2.65l-7.65-1.7
	c0.101,0.1,0.967,0.617,2.601,1.55c0.934,0.533,1.399,1.133,1.399,1.8c0,1.1-0.066,2.1-0.199,3L169.35,23.85z M16,32.05
	c0.567,0.3,1.133,0.45,1.7,0.45h3.65c0.9,0,0.783-1-0.35-3c-1.2,0-2.4,0.1-3.6,0.3c-1.6,0.267-2.4,0.617-2.4,1.05
	C15,31.317,15.333,31.717,16,32.05z M90.35,34.15L83.7,32.5l0.65,0.75c0.5,0.567,0.95,0.983,1.35,1.25
	c0.333,0.233,0.783,0.533,1.35,0.9c0.534,0.3,1.083,0.449,1.65,0.449h2.65L90.35,34.15z M86.7,37.5l-5.35-4.65
	c-1.1,0.433-1.983,0.95-2.65,1.55c-0.333,0.3-0.567,0.55-0.7,0.75l2,1.35l4.35,1H86.7z M85.7,43.15c-0.5-0.2-2.333-0.667-5.5-1.4
	c-2.8-0.634-4.633-1.267-5.5-1.9c-0.467-0.333-1-0.1-1.6,0.7c-0.3,0.4-0.55,0.834-0.75,1.3l0.35,0.9
	c0.333,0.667,0.767,1.134,1.3,1.4c0.467,0.233,1.483,0.816,3.05,1.75c1.5,0.767,2.6,1.083,3.3,0.949
	c0.267-0.066,0.65-0.233,1.15-0.5c0.3-0.133,1.033-0.199,2.2-0.199h6c0.133,0,0.816,0.133,2.05,0.399c0.7,0.134,0.783,0,0.25-0.399
	c-0.7-0.601-1.233-1.034-1.6-1.301c-0.6-0.399-1.4-0.733-2.4-1c-0.767-0.233-1.15-0.316-1.15-0.25
	C86.85,43.634,86.467,43.483,85.7,43.15z M43.7,43.5c1,0.233,1.883,0.684,2.65,1.35C47.117,45.517,48,45.95,49,46.15
	c2,0.466,4.617,0.583,7.85,0.35c-1.9-2-3.283-3-4.15-3c-0.434,0-0.9-0.05-1.4-0.15c-0.5-0.133-1.033-0.199-1.6-0.199L43.7,43.5z"/>
<path style="fill-rule:evenodd;clip-rule:evenodd;fill:#5A371F;" d="M185.9,7.25l-0.45-0.65c0.366,0.433,1.783,1.066,4.25,1.9
	l2.45,1.35l-0.45,1.3c-0.9,0.9-1.684,1.467-2.351,1.7c-0.399,0.133-0.933,0.167-1.6,0.1l-0.9-0.1c0.101-0.9,0.051-2.017-0.149-3.35
	C186.566,8.667,186.3,7.917,185.9,7.25z M216.9,18.9c-0.067-0.033-0.801-0.167-2.2-0.4c-0.834-0.133-1.75-0.517-2.75-1.15
	l-1.25-0.85h6.649c0.4,0,0.767,0.25,1.101,0.75c0.399,0.533,0.366,0.95-0.101,1.25C217.917,18.8,217.434,18.933,216.9,18.9z
	 M219.35,10.5l1,0.5c0.667,0.433,1,0.933,1,1.5c0,0.467-0.1,0.683-0.3,0.65c-0.566-0.1-1.25,0.017-2.05,0.35
	c-0.967,0.433-1.866,0.45-2.7,0.05l-0.95-0.7l-7-2.35c-0.399-0.133-0.85-0.45-1.35-0.95l-0.65-0.7c2.667-0.233,4.551-0.567,5.65-1
	L219.35,10.5z M21.725,46.6L21.35,46.15L21.15,44c-0.033-0.2,0.033-0.467,0.2-0.8c0.3-0.733,0.9-1.517,1.8-2.351l4.1,0.9
	c2.833,0.667,4.533,1.134,5.1,1.4c0.566,0.3,0.917,0.649,1.05,1.05c0.1,0.267,0.2,0.7,0.3,1.3c0.2,0.667,1.867,1.217,5,1.65
	c-0.9,0.233-2.583,0.183-5.05-0.15c-1.367-0.167-2.45-0.116-3.25,0.15c-1.4,0.5-2.633,0.833-3.7,1c-1.8,0.3-3.233,0.05-4.3-0.75
	L21.725,46.6z M245.925,14.85c0.024-0.001,0.05-0.001,0.075,0c1.434,0.066,2.333,0.066,2.7,0c0.866-0.233,1.083-0.9,0.649-2h4
	c0.601,0,1.45,0.283,2.551,0.85c1.133,0.533,1.833,0.8,2.1,0.8l2.7-0.35c-3.8,0.9-6.25,1.567-7.351,2
	c-1.1,0.467-5.216,0.583-12.35,0.35c2.233-0.433,3.35-0.883,3.35-1.35C244.845,15.15,245.369,15.05,245.925,14.85z M42,29.15
	c1.267,0.3,1.7,0.667,1.3,1.1c-0.2,0.233-0.517,0.433-0.95,0.6l-0.4,1.05c-0.434,0.667-1.034,0.867-1.8,0.6
	c-0.6-0.2-1.15-0.167-1.65,0.1c-0.667,0.367-1.5,0.55-2.5,0.55l-9.15,0.05l1.85-2.35c-0.9-0.9-1.8-1.567-2.7-2l7-1h3.7
	c0.6,0,1.316,0.133,2.15,0.4C40.117,28.683,41.167,28.983,42,29.15z M74,19.15c0.967,0.133,1.15,0.633,0.55,1.5
	c-0.3,0.4-0.7,0.8-1.2,1.2c-1.767-0.467-2.65-1.033-2.65-1.7c0-0.4,0.55-0.683,1.65-0.85C72.917,19.2,73.467,19.15,74,19.15z
	 M98,6.5c-1,0-1.417-0.333-1.25-1s0.7-0.783,1.6-0.35c0.467,0.267,0.733,0.533,0.8,0.8C99.25,6.317,98.867,6.5,98,6.5z M50,29.15
	c-0.7-0.267-1.017-0.566-0.95-0.9l0.3-0.4l6,1.3c0.133,0.033,0.583,0.25,1.35,0.65c0.466,0.233,0.9,0.35,1.3,0.35h5
	c1.567,0,2.183,0.117,1.85,0.35l4.5,2l2.35,1.35l-4,2.3c-4.9-1.101-7.8-1.867-8.7-2.3l-2.5-1.35C53.3,30.733,51.133,29.617,50,29.15
	z M99.7,9.85c-0.434-0.567-0.15-0.867,0.85-0.9c0.133,0,1.184,0.066,3.15,0.2c1.533,0.133,2.867,0.567,4,1.3
	c0.6,0.367,1.033,0.716,1.3,1.05c-3.1,0.233-4.983,0.35-5.65,0.35c-0.533,0-1.133-0.167-1.8-0.5
	C100.783,10.95,100.167,10.45,99.7,9.85z M100.35,24.15l1.75-0.3c1.333-0.233,2.417-0.35,3.25-0.35c0.7,0,0.917,0.567,0.65,1.7
	c-0.3,1.167-0.85,1.816-1.65,1.95c-0.533,0.133-0.85,0.167-0.95,0.1c-0.233-0.167-0.8-0.3-1.7-0.4c-1.133-0.133-1.7-0.633-1.7-1.5
	L100.35,24.15z M121,19.5l1.5-0.3l4.5,3.3l1.7,0.25c1.333,0.233,2.55,0.483,3.65,0.75c1.167,0.3,2.016,0.883,2.55,1.75
	c0.267,0.4,0.533,1.15,0.8,2.25c0.1,0.5-0.05,1.2-0.45,2.1c-0.5,1.133-0.8,1.983-0.9,2.55c-0.133,0.833-0.95,1.25-2.45,1.25
	l-2.2-0.25c0-0.867,0.1-1.75,0.3-2.65c0.133-0.567-0.2-1.467-1-2.7l-1.3-1.65c-2-1.1-3.45-1.867-4.35-2.3
	c-0.567-0.3-1.133-1.117-1.7-2.45L121,19.5z M133.35,2.85c0.9,0.2,1.683,1.2,2.35,3l-3.85-1.65L133.35,2.85z M169.35,23.85
	l-4.199,0.65c0.133-0.9,0.199-1.9,0.199-3c0-0.667-0.466-1.267-1.399-1.8c-1.634-0.934-2.5-1.45-2.601-1.55l7.65,1.7l4,2.65
	C171.467,23.167,170.25,23.617,169.35,23.85z M90.35,34.15l1,1.7H88.7c-0.567,0-1.117-0.149-1.65-0.449
	c-0.566-0.367-1.017-0.667-1.35-0.9c-0.4-0.267-0.85-0.683-1.35-1.25L83.7,32.5L90.35,34.15z M85.7,43.15
	c0.767,0.333,1.15,0.483,1.15,0.449c0-0.066,0.383,0.017,1.15,0.25c1,0.267,1.8,0.601,2.4,1c0.367,0.267,0.9,0.7,1.6,1.301
	c0.533,0.399,0.45,0.533-0.25,0.399c-1.233-0.267-1.917-0.399-2.05-0.399h-6c-1.167,0-1.9,0.066-2.2,0.199
	c-0.5,0.267-0.883,0.434-1.15,0.5c-0.7,0.134-1.8-0.183-3.3-0.949c-1.566-0.934-2.583-1.517-3.05-1.75
	c-0.533-0.267-0.967-0.733-1.3-1.4l-0.35-0.9c0.2-0.466,0.45-0.899,0.75-1.3c0.6-0.8,1.133-1.033,1.6-0.7
	c0.867,0.634,2.7,1.267,5.5,1.9C83.367,42.483,85.2,42.95,85.7,43.15z M43.7,43.5l6-0.35c0.566,0,1.1,0.066,1.6,0.199
	c0.5,0.101,0.967,0.15,1.4,0.15c0.867,0,2.25,1,4.15,3C53.617,46.733,51,46.616,49,46.15c-1-0.2-1.883-0.634-2.65-1.301
	C45.583,44.184,44.7,43.733,43.7,43.5z"/>
<path style="fill-rule:evenodd;clip-rule:evenodd;fill:#55351E;" d="M132.7,59.925V52.15c0-0.967,0.15-2.434,0.45-4.4
	c0.267-1.6,0.333-2.566,0.2-2.9c-0.333-0.433-0.567-0.783-0.7-1.05c-0.167-0.434-0.05-1.2,0.35-2.3
	c0.01-0.024,0.019-0.05,0.025-0.075V41.4c0.4-0.959,0.858-1.843,1.375-2.65c4.233-1.8,10.017-3.8,17.35-6
	c8.4-2.5,14.934-4.033,19.6-4.6c4.267-0.5,8.834-0.667,13.7-0.5c9.2,0.333,15.967,0.5,20.3,0.5h2.25
	c0.983,0.168,1.991,0.385,3.025,0.65c-0.697,0.051-1.673,0.301-2.925,0.75c-1.8,0.633-3.033,1.284-3.7,1.95
	c-0.533,0.567-1.417,0.733-2.65,0.5l-1.649-0.5c-1.566-0.233-2.8-0.683-3.7-1.35c-0.533-0.4-1.233-0.517-2.1-0.35
	c-1.134,0.367-2.101,0.6-2.9,0.7c-0.934,0.133-2.967,0.183-6.1,0.15c-5.233-0.1-7.867-0.15-7.9-0.15c-1.934,0-3.9,0.117-5.9,0.35
	l-2.399,0.3l-4.9,2.35c-3.566,1.767-6.05,3.217-7.45,4.35c-1.1,0.9-2.133,1.801-3.1,2.7c-0.733,0.5-2.033,0.816-3.9,0.95
	c-1.666,0.134-2.616,0.733-2.85,1.8c-0.333,1.434-0.667,2.283-1,2.55c-1.566,1.167-5.066,4.834-10.5,11
	C133.962,58.026,133.195,59.052,132.7,59.925z M262.5,15.85c0.073-0.154,0.106-0.321,0.1-0.5c0.383,0.338,0.75,0.722,1.101,1.15
	l1.75,1.8c1.2,1.3,1.95,2.15,2.25,2.55c0.233,0.333,0.717,0.8,1.45,1.4c0.433,0.4,0.166,0.6-0.801,0.6h-7
	c-0.833,0-1.483-0.15-1.949-0.45c-0.801-0.533-1.7-0.95-2.7-1.25c-1.4-0.4-2.717-0.183-3.95,0.65c-0.6,0.4-1.066,0.85-1.4,1.35
	c-4.233,1.567-7.566,2.9-10,4c-1.466,0.7-2.449,0.95-2.949,0.75c-0.467-0.367-1.034-0.617-1.7-0.75
	c-1.733-0.267-3.967,0.184-6.7,1.35c-1.033,0.467-1.967,2.033-2.8,4.7c-0.767,2.467-1,4.017-0.7,4.649
	c1.064,2.096,0.98,2.104-0.25,0.025V37.85c0.066-0.554,0.1-1.12,0.1-1.699v-9.4l2.15-0.25c3.233-0.3,8.15-1.617,14.75-3.95
	c6.467-2.233,11.283-3.466,14.45-3.7C261.691,18.556,263.292,17.556,262.5,15.85z M49.45,59.15c0.09,0.644,0.224,1.327,0.4,2.05
	l0.85,8.3l-3-5.65c-0.4-0.699-0.967-1.166-1.7-1.399c-0.867-0.167-1.533-0.367-2-0.601c-1.467-0.8-3.133-2.25-5-4.35l-1-1.1
	c0.233,0.399,0.133,0.433-0.3,0.1c-0.167-0.134-1.684-0.866-4.55-2.2c-2.7-1.267-4.633-2.416-5.8-3.45
	c2.333,0.567,4.283,0.784,5.85,0.65c1.233-0.1,4.167-0.533,8.8-1.3c2.733-0.4,4.467-0.55,5.2-0.45c0.3,0.066,0.483,0.267,0.55,0.6
	c-0.2,0.601-0.217,1.317-0.05,2.15c0.333,2.233,0.883,4.35,1.65,6.35C49.387,58.943,49.42,59.044,49.45,59.15z M100.875,47.275
	l-0.525,1.574c-0.633,1.233-1.45,2.101-2.45,2.601c-0.733,0.333-2.133,0.684-4.2,1.05c-1.5,0.267-2.5,0.533-3,0.8
	c-0.767,0.467-1.767,0.983-3,1.55c-1.5,0.667-2.333,0.983-2.5,0.95c0-0.2-0.167-0.3-0.5-0.3c-3.133,0-5.583,0.116-7.35,0.35
	c-1.033,0.134-1.75,0.667-2.15,1.601c-0.6,1.399-1,2.2-1.2,2.399c-0.867,0.867-2.2,2.417-4,4.65l-0.85-3.3
	c0.367-2.233,0.7-3.684,1-4.351c0.233-0.466-0.05-1.017-0.85-1.649c-0.782-0.587-1.849-1.146-3.2-1.675
	c0.748,0.034,1.431,0.026,2.05-0.025c1.4-0.134,2.617-0.366,3.65-0.7l2.25,0.05c3.9,0,6.767-0.233,8.6-0.699
	c2.133-0.534,4.3-0.851,6.5-0.95c2.934-0.134,6.267-1.15,10-3.05C99.732,47.854,100.307,47.563,100.875,47.275z M126.575,39.225
	c-0.544-0.057-1.169-0.099-1.875-0.125c-1.616,0.02-2.825,0.036-3.625,0.051c1.429-0.271,2.687-0.371,3.775-0.301
	C125.062,38.85,125.637,38.975,126.575,39.225z M132.65,63.15c-0.401-0.119-0.618-0.469-0.65-1.051
	c-0.028-0.282,0.013-0.591,0.125-0.925C132.407,62.306,132.583,62.965,132.65,63.15z"/>
</svg>
