<?xml version="1.0" encoding="iso-8859-1"?>
<!-- Generator: Adobe Illustrator 15.1.0, SVG Export Plug-In . SVG Version: 6.00 Build 0)  -->
<!DOCTYPE svg PUBLIC "-//W3C//DTD SVG 1.1//EN" "http://www.w3.org/Graphics/SVG/1.1/DTD/svg11.dtd">
<svg version="1.1" id="FlashAICB" xmlns="http://www.w3.org/2000/svg" xmlns:xlink="http://www.w3.org/1999/xlink" x="0px" y="0px"
	 width="63.35px" height="118.65px" viewBox="0 0 63.35 118.65" style="enable-background:new 0 0 63.35 118.65;"
	 xml:space="preserve">
<symbol  id="FlashAICB_x2F_Layer_10_x2F__x3C_Group_x3E_" viewBox="-0.002 -13.4 41.906 13.376">
	<g id="Layer_1_4_">
		<g>
			
				<radialGradient id="SVGID_1_" cx="737.0562" cy="317.9492" r="20.655" gradientTransform="matrix(0.9992 0.0412 0.0363 -0.4236 -726.9766 94.21)" gradientUnits="userSpaceOnUse">
				<stop  offset="0" style="stop-color:#000000;stop-opacity:0.698"/>
				<stop  offset="1" style="stop-color:#000000;stop-opacity:0"/>
			</radialGradient>
			<path style="fill-rule:evenodd;clip-rule:evenodd;fill:url(#SVGID_1_);" d="M24.35-9.3c-0.867,0.433-1.583,0.333-2.15-0.3
				c-1.667-0.867-2.75-1.4-3.25-1.6c-0.667-0.267-1.517-0.5-2.55-0.7c-0.4-0.033-0.633-0.434-0.7-1.2h-0.1
				c-0.434,0.1-1,0.317-1.7,0.65c-0.833,0.367-1.4,0.6-1.7,0.7c-1.233,0.467-2.467,0.65-3.7,0.55c-0.567-0.033-1.35-0.183-2.35-0.45
				c0.9-0.467,1.317-0.7,1.25-0.7c0.067,0-0.383,0.217-1.35,0.65c-0.367,0.034-0.6-0.15-0.7-0.55c-0.067-0.2-0.167-0.583-0.3-1.15
				C4.117-13.167,3.1-13.05,2-13.05c-0.567,0.566-1.05,1.3-1.45,2.2C0.183-10.05,0-9.4,0-8.9c-0.067,2.267,1.917,4.267,5.95,6
				C9.983-1.167,14.9-0.217,20.7-0.05C26.5,0.117,31.467-0.533,35.6-2c4.167-1.5,6.267-3.383,6.3-5.65
				c0.067-1.067-0.617-2.133-2.05-3.2c-1.5-1.1-3.283-1.75-5.35-1.95c-1.133,0.2-1.9,0.283-2.3,0.25c-0.133-0.034-0.233-0.034-0.3,0
				c-0.2,0.066,0.15,0.1,1.05,0.1c0.8-0.033,1.133-0.033,1,0c-1.5,0.8-2.45,1.184-2.85,1.15c-0.733,0-1.533,0.167-2.4,0.5
				c-0.8,0.333-1.6,0.483-2.4,0.45C25.5-9.883,24.85-9.533,24.35-9.3z"/>
			
				<use xlink:href="#FlashAICB_x2F_Layer_10_x2F__x3C_Path_x3E_"  width="33.441" height="6.347" x="-0.041" y="-6.308" transform="matrix(1 0 0 1 3.8999 -6.3501)" style="overflow:visible;opacity:0.2109;enable-background:new    ;"/>
		</g>
	</g>
</symbol>
<symbol  id="FlashAICB_x2F_Layer_10_x2F__x3C_Path_x3E_" viewBox="-0.041 -6.308 33.441 6.347">
	<g id="Layer_1_2_">
		<path style="fill-rule:evenodd;clip-rule:evenodd;" d="M33.3-3.85l0.1-0.05l-0.75-0.65c-0.8-0.3-1.617-0.7-2.45-1.2L30.15-5.7
			l-0.2,0.85c-0.1,0.434-2.267,0.283-6.5-0.45C22.517-4.433,20.7-4.2,18-4.6c-3-0.566-4.983-0.867-5.95-0.9
			c-0.667,0-1.2-0.25-1.6-0.75c-0.167-0.2-0.934,0.117-2.3,0.95C6.85-4.9,5.667-4.75,4.6-4.85C4.033-4.883,3.25-5.033,2.25-5.3H1.9
			l0.25-0.05C1.783-5.283,1.4-5.283,1-5.35L0.25-4.5C-0.017-4.467-0.1-4.3,0-4c0.067,0.167,0.133,0.233,0.2,0.2
			c0.066-0.067,0.1-0.034,0.1,0.1c0,0.067,0.117,0.1,0.35,0.1S1-3.433,1-3.1c0,0.133,0.033,0.267,0.1,0.4l0.25,0.3L1.6-2.3h0.35
			c0.1,0,0.2-0.184,0.3-0.55c0.133-0.333,0.233-0.467,0.3-0.4C2.617-3.217,2.75-3,2.95-2.6C3.317-1.767,3.5-1.333,3.5-1.3
			c0.133,0.033,0.9,0.1,2.3,0.2C6.633-1.033,7.033-0.683,7-0.05c3.3,0.133,10.1,0.117,20.4-0.05c0.3,0,1.133-0.316,2.5-0.95
			S32-2,32.1-2c0.167,0,0.333-0.2,0.5-0.6c0.2-0.433,0.316-0.667,0.35-0.7C33.117-3.367,33.233-3.55,33.3-3.85z"/>
	</g>
</symbol>
<symbol  id="FlashAICB_x2F_Layer_10_x2F__x3C_Path_x3E__x5F_18" viewBox="-0.002 -58.439 63.33 58.448">
	<g id="Layer_1_3_">
		
			<radialGradient id="SVGID_2_" cx="275.502" cy="230.1182" r="52.3862" gradientTransform="matrix(0.9995 0.0301 0.0301 -0.9991 -254.6943 210.8203)" gradientUnits="userSpaceOnUse">
			<stop  offset="0" style="stop-color:#124C68"/>
			<stop  offset="0.4627" style="stop-color:#17657F"/>
			<stop  offset="1" style="stop-color:#1F7277"/>
		</radialGradient>
		<path style="fill-rule:evenodd;clip-rule:evenodd;fill:url(#SVGID_2_);" d="M53.05-25.9c0.434-6,1.733-10.083,3.9-12.25l4.5-4.4
			c0.833-0.8,1.433-1.934,1.8-3.4c0.367-1.433-0.55-3.1-2.75-5c-2.167-1.833-4.783-3.3-7.85-4.4c-2.4-0.9-5.833-1.6-10.3-2.1
			l-10.7-0.95C23.817-58.667,16.6-57.567,10-55.1c-6.567,2.467-9.9,5.283-10,8.45c-0.033,1.367,0.4,2.667,1.3,3.9
			c0.5,0.6,1.517,1.55,3.05,2.85c1.367,1.167,2.367,2.25,3,3.25c0.9,1.433,1.316,3.1,1.25,5L7.8-24.4
			c-0.233,9.066,2.817,15.75,9.15,20.05c4.1,2.733,8.667,4.184,13.7,4.35c6.967,0.2,12.5-2.817,16.6-9.05
			C50.617-14.183,52.55-19.8,53.05-25.9z"/>
	</g>
</symbol>
<g>
	
		<use xlink:href="#FlashAICB_x2F_Layer_10_x2F__x3C_Group_x3E_"  width="41.906" height="13.376" x="-0.002" y="-13.4" transform="matrix(1 0 0 -1 11.9502 101.3496)" style="overflow:visible;opacity:0.6914;enable-background:new    ;"/>
	<path style="fill-rule:evenodd;clip-rule:evenodd;fill:#648E6E;" d="M41.3,41.8c0.066,1.8-0.184,3.55-0.75,5.25L39.65,49.9
		c0,0.3,0.366,1.117,1.1,2.45l0.15,0.15c0.833,1.867,1.3,3.933,1.399,6.2l-0.95,9.35c0.067,1.2,0.434,2.733,1.101,4.601l1.05,3.199
		c0.033,0.667-0.1,1.317-0.4,1.95c-0.366,0.667-0.8,1.066-1.3,1.2l-0.55,0.05c-2-0.633-3-1.45-3-2.45l-0.2-1.949
		c-0.166-0.667-0.533-1.051-1.1-1.15v0.2l-0.4,1.149c-0.233,0.4-0.566,0.601-1,0.601c-0.967,0-1.483-0.95-1.55-2.851l0.35-4.449
		L33.7,65.8c-0.566-1.233-1.084-1.967-1.55-2.2C31.717,63.9,31.35,65.033,31.05,67c-0.267,1.5-0.4,2.917-0.4,4.25l0.15,5
		c-0.133,3.4-0.95,5.116-2.45,5.15l-1-0.95c-0.533-0.566-0.8-1.05-0.8-1.45c-0.033-0.7,0.284-2.2,0.95-4.5
		c0.667-2.434,0.983-4.017,0.95-4.75l-0.2-1.85c-0.133-0.5-0.567-0.7-1.3-0.601c-0.733,1.767-1.567,4.967-2.5,9.601
		c-1.233,5.533-1.8,9.433-1.7,11.699c0.067,1.834,1.25,7.284,3.55,16.351l0.1,0.85c0,0.7-0.2,1.55-0.6,2.55
		c-0.633,1.301-1.433,1.967-2.4,2c-1.066,0-1.9-1.583-2.5-4.75c-0.4-2.233-0.617-4.466-0.65-6.699c-0.167-5.233,0.4-11.733,1.7-19.5
		L25,60.2c-1.067,0.733-1.9,2.2-2.5,4.399l-0.7,3.5c-0.2,1.5-0.283,2.983-0.25,4.45c-0.333,1.233-0.9,1.95-1.7,2.15h-0.3
		c-0.533,0.066-1.033-0.084-1.5-0.45c-0.667-0.4-1-0.917-1-1.55l1.3-2.65c0.933-1.533,1.367-3.2,1.3-5l-0.6-5.75l0.05-2.2
		c0.2-0.6,0.85-1.233,1.95-1.9l-0.85-1.4L19.8,52c-0.133-3.633,0.85-7.383,2.95-11.25c2.533-4.467,5.75-6.783,9.65-6.95
		c1.933-0.033,3.866,0.8,5.8,2.5C40.167,37.967,41.2,39.8,41.3,41.8z"/>
	<path style="fill-rule:evenodd;clip-rule:evenodd;fill:#4A7354;" d="M25,60.2l-3.05,19.2c-1.3,7.767-1.867,14.267-1.7,19.5
		c0.033,2.233,0.25,4.466,0.65,6.699c0.6,3.167,1.434,4.75,2.5,4.75c0.967-0.033,1.767-0.699,2.4-2c0.4-1,0.6-1.85,0.6-2.55
		l-0.1-0.85V104.6c0.633-1.6,0.934-2.616,0.9-3.05l-1.2-6.8c-0.867-4.167-1.333-6.884-1.4-8.15l0.05-2.399l1.05-2.5
		c0.4,0,0.966,0.267,1.7,0.8c0.667,0.533,1.3,0.8,1.9,0.8c0.867-0.066,1.684-0.6,2.45-1.6c0.833-1,1.2-1.95,1.1-2.851
		c1.467,1.367,2.584,2,3.351,1.9L36,81.8c0,0.667,0.333,1.2,1,1.601l1.7,0.8l0.05,0.149l0.2,0.101c-0.566,0.2-1,1.267-1.3,3.2
		c-0.301,1.733-0.434,3.316-0.4,4.75c0.066,2.233,0.75,5.1,2.05,8.6c1.367,3.434,2.066,6.066,2.101,7.9
		c0.033,0.933-0.384,2.716-1.25,5.35L39.3,114.6c-1.2,0.434-2.533,0.717-4,0.851l-6.65,0.25c-4.9,0.166-8.2-1-9.9-3.5
		c-0.467-0.634-0.9-1.434-1.3-2.4c-0.767-2.8-1.034-5.899-0.8-9.3c0.3-4.733,0.783-9.566,1.45-14.5l1.75-11.3
		c0.8-0.2,1.367-0.917,1.7-2.15c-0.033-1.467,0.05-2.95,0.25-4.45l0.7-3.5C23.1,62.4,23.933,60.934,25,60.2z"/>
	<path style="fill-rule:evenodd;clip-rule:evenodd;fill:#3D5F45;" d="M42.55,83.55c1.367,7.3,2.101,13.117,2.2,17.45
		c0.134,3.833,0,6.866-0.4,9.1H44.3c-0.233,0.667-0.45,1.167-0.649,1.5c-0.834,1.134-2,2.017-3.5,2.65
		c0.866-2.634,1.283-4.417,1.25-5.35c-0.034-1.834-0.733-4.467-2.101-7.9c-1.3-3.5-1.983-6.366-2.05-8.6
		c-0.033-1.434,0.1-3.017,0.4-4.75c0.3-1.934,0.733-3,1.3-3.2l-0.2-0.101L38.7,84.2L37,83.4c-0.667-0.4-1-0.934-1-1.601l0.2-1.05
		c-0.767,0.1-1.884-0.533-3.351-1.9c0.101,0.9-0.267,1.851-1.1,2.851c-0.767,1-1.583,1.533-2.45,1.6c-0.6,0-1.233-0.267-1.9-0.8
		c-0.733-0.533-1.3-0.8-1.7-0.8l-1.05,2.5L24.6,86.6c0.066,1.267,0.533,3.983,1.4,8.15l1.2,6.8c0.033,0.434-0.267,1.45-0.9,3.05
		v0.351C24,95.884,22.817,90.434,22.75,88.6c-0.1-2.267,0.467-6.166,1.7-11.699c0.933-4.634,1.767-7.834,2.5-9.601
		c0.733-0.1,1.167,0.101,1.3,0.601l0.2,1.85c0.033,0.733-0.284,2.316-0.95,4.75c-0.667,2.3-0.983,3.8-0.95,4.5
		c0,0.4,0.267,0.884,0.8,1.45l1,0.95c1.5-0.034,2.316-1.75,2.45-5.15l-0.15-5c0-1.333,0.133-2.75,0.4-4.25
		c0.3-1.967,0.667-3.1,1.101-3.4c0.466,0.233,0.983,0.967,1.55,2.2l0.649,2.351L34,72.6c0.066,1.9,0.583,2.851,1.55,2.851
		c0.434,0,0.767-0.2,1-0.601l0.4-1.149v-0.2c0.566,0.1,0.934,0.483,1.1,1.15l0.2,1.949c0,1,1,1.817,3,2.45L41.8,79L42.55,83.55z"/>
	<path style="fill-rule:evenodd;clip-rule:evenodd;fill:#68B1D5;" d="M32,8.35c-0.9,0.066-1.633,0.3-2.2,0.7
		c-0.7,0.467-1.05,1.167-1.05,2.1c0,0.633,0.65,2.05,1.95,4.25c1.3,2.233,1.967,4.017,2,5.35c0.1,3.133-0.467,5.883-1.7,8.25
		c-1.267,2.3-3,3.7-5.2,4.2l-1.9,0.25l-1-0.05c-1.566-0.2-3.05-1.033-4.45-2.5c-1.5-1.433-2.25-2.8-2.25-4.1c0-1.267,0.4-2.6,1.2-4
		c0.8-1.367,1.184-2.316,1.15-2.85c0-0.333-0.05-0.6-0.15-0.8l-0.95-0.65c-0.8,0.267-1.45,1-1.95,2.2
		c-0.533,1.267-0.783,2.5-0.75,3.7c0.033,2.3,1.1,4.917,3.2,7.85c2.066,2.9,3.117,5.3,3.15,7.2c0.066,1.433-0.25,2.683-0.95,3.75
		l-0.85,1.1c-0.933,1-2.033,1.65-3.3,1.95l-1.6,0.2c-1.333,0.066-2.717-0.367-4.15-1.3c-1.033-0.667-1.717-1.4-2.05-2.2l-0.3-1.1
		l0.05-0.35v-0.05c0.167-0.8,0.867-1.767,2.1-2.9c1.5-1.333,2.217-2.433,2.15-3.3v-0.4l-0.3-1.3h-0.15V33.5l-0.15-1.35
		c-0.067-1.533,0.25-3.816,0.95-6.85c0.733-3.066,2.667-7.117,5.8-12.15s7.133-7.55,12-7.55c4.8,0.066,9.3,3.316,13.5,9.75
		C45.616,18.083,47,20.9,48,23.8c1.066,2.867,1.616,5.35,1.65,7.45c0.1,2.867,0.017,4.75-0.25,5.65
		c-0.4,1.133-1.267,2.05-2.601,2.75c-2.166,2.967-1.649,4.133,1.55,3.5c0.801-2.533,1.467-3.95,2-4.25
		c0.867-0.566,1.7-0.883,2.5-0.95c1.434-0.034,2.617,0.3,3.551,1c1.199,0.966,1.816,2.517,1.85,4.65c0.066,2.133-1.1,4-3.5,5.6
		c-2.167,1.4-4.366,2.117-6.6,2.15c-3.067,0.1-5.767-0.667-8.101-2.3L38.8,48.1c-1.767-1.667-2.8-3.717-3.1-6.15
		c-0.101-0.434-0.15-0.883-0.15-1.35c-0.1-2.6,1.117-5.65,3.65-9.15l2.649-3.65c0.767-1.333,1.134-2.466,1.101-3.4
		c0-0.533-0.2-1.283-0.601-2.25c-0.533-1.033-1.017-1.583-1.449-1.65c-0.034,0.833-0.4,1.467-1.101,1.9
		c-0.5,0.267-0.967,0.417-1.399,0.45h-0.5c-0.667-0.1-1.351-0.45-2.051-1.05L35.4,21.4c-0.7-0.7-1.051-1.45-1.051-2.25
		c-0.033-0.967,0.267-2.1,0.9-3.4c0.634-1.433,0.934-2.433,0.9-3c-0.034-1.167-0.45-2.167-1.25-3C34.1,8.817,33.134,8.35,32,8.35z"
		/>
	<path style="fill-rule:evenodd;clip-rule:evenodd;fill:#3289B4;" d="M35.85,21.8c0.7,0.6,1.384,0.95,2.051,1.05L38,23
		c0.533,1.4,0.8,2.283,0.8,2.65c0.066,1.2-0.184,2.25-0.75,3.15c-0.6,0.967-1.333,1.45-2.2,1.45c-0.933,0.033-1.716-0.117-2.35-0.45
		c-0.7-0.433-1.083-1.133-1.15-2.1c0-0.934,0.517-2.117,1.551-3.55c0.699-0.967,1.199-1.883,1.5-2.75L35.85,21.8z M6.5,41.9
		c0.333,0,0.9,0.35,1.7,1.05L8.05,43.2L8,44.95c0.067,1.133,0.317,1.9,0.75,2.3c0.3,0.267,0.85,0.417,1.65,0.45
		c2.067,0,3.583,0.617,4.55,1.85c1.167,1.5,2.617,2.534,4.35,3.1c1.333,0.467,3.017,0.65,5.05,0.55c0.733,0,2.183-0.317,4.35-0.95
		c1.9-0.6,3.35-0.933,4.35-1c0.4,0,0.767,0.083,1.101,0.25c0.433,0.233,0.649,0.55,0.649,0.95c0.066,1.066-1.3,1.933-4.1,2.6
		c-2.167,0.4-4.117,0.617-5.85,0.65c-3.467,0.1-6.567-0.833-9.3-2.8c-2-2-3.25-3-3.75-3l-3.45,0.7
		c-1.333,0.066-2.717-0.367-4.15-1.3c-1.5-0.966-2.284-2.033-2.35-3.2c-0.033-0.833,0.5-1.733,1.6-2.7
		C4.55,42.467,5.567,41.967,6.5,41.9z M20.15,43.2l2.15,0.7c4.267,1.5,6.417,3.15,6.45,4.95c0,1.066-0.45,1.933-1.35,2.6
		c-0.833,0.6-1.767,0.9-2.8,0.9c-1.4,0.066-3.233-0.917-5.5-2.95c-1.333-1.133-2.367-2.183-3.1-3.15c1.267-0.3,2.367-0.95,3.3-1.95
		L20.15,43.2z M25.8,33.2l0.55,0.9c0.767,1.2,1.167,2.35,1.2,3.45c0.067,1.333,0,2.184-0.2,2.55c-0.333,0.967-1.217,1.467-2.65,1.5
		c-0.633,0-1.15-0.267-1.55-0.8c-0.367-0.533-0.583-1.333-0.65-2.4l0.45-4.65L22.9,33.4l1,0.05L25.8,33.2z M35.7,41.95
		c0.3,2.433,1.333,4.483,3.1,6.15l-0.149,0.1c-0.767,0.466-1.667,0.7-2.7,0.7c-0.9,0.033-1.816-0.3-2.75-1
		c-0.967-0.8-1.45-1.733-1.45-2.8c-0.033-0.767,0.134-1.417,0.5-1.95c0.5-0.767,1.333-1.183,2.5-1.25L35.7,41.95z"/>
	
		<use xlink:href="#FlashAICB_x2F_Layer_10_x2F__x3C_Path_x3E__x5F_18"  width="63.33" height="58.448" x="-0.002" y="-58.439" transform="matrix(1 0 0 -1 0 0)" style="overflow:visible;opacity:0.7891;enable-background:new    ;"/>
	<path style="fill-rule:evenodd;clip-rule:evenodd;fill:#F8FFFF;" d="M24.7,6.8c-2.267,1.833-3.833,3.35-4.7,4.55l-1.7,3.85
		c-1,1.966-2.2,2.966-3.6,3c-1.034,0.066-1.7-0.284-2-1.05L12.5,16c-0.033-2.167,0.717-4.283,2.25-6.35
		c1.233-1.733,2.967-3.267,5.2-4.6c1.9-1.167,3.65-1.883,5.25-2.15c1.6-0.233,2.433,0.133,2.5,1.1C27.7,4.267,26.7,5.2,24.7,6.8z
		 M11.2,24.1L11,23.35c0-1.133,0.55-1.684,1.65-1.65c1.167,0.1,1.75,0.633,1.75,1.6c0.033,0.434-0.117,0.817-0.45,1.15
		c-0.333,0.4-0.733,0.6-1.2,0.6C11.983,25.117,11.467,24.8,11.2,24.1z M7.65,42.95l4.65,5.4l-0.05,1.15l0.5,0.15l1.15-1.2l2.65,1.95
		l-1,0.05c-5.433,0-9.3-2.25-11.6-6.75l1.7-0.15c0.533-0.133,0.917-0.4,1.15-0.8L7.65,42.95z M24.3,50.65
		c0,0.467-0.167,0.883-0.5,1.25c-0.333,0.333-0.716,0.5-1.15,0.5c-0.767,0.067-1.3-0.233-1.6-0.9l-0.15-0.8
		c-0.033-1.2,0.517-1.75,1.65-1.65C23.65,49.183,24.233,49.717,24.3,50.65z"/>
	<path style="fill-rule:evenodd;clip-rule:evenodd;fill:#3D5F45;" d="M30.575,92.55c0.136,0.306,0.294,0.64,0.475,1
		c0.667,1.334,1.033,2.084,1.101,2.25c0.366,0.967,0.866,2.851,1.5,5.65c0.566,2.399,1.149,4.2,1.75,5.399
		c0.1-3.133-0.184-6.449-0.851-9.949c-0.389-1.899-0.938-4.008-1.649-6.325c0.692,2.096,1.242,3.688,1.649,4.774
		c1.3,3.233,2.65,5.7,4.05,7.4c-0.1-1.1-0.183-3.634-0.25-7.6c0-0.667-0.083-1.817-0.25-3.45c-0.1-1.467,0-2.601,0.301-3.4
		l3.8,10.351c0.2,2.733,0.35,4.8,0.45,6.199c0.133,2.567,0.033,4.617-0.301,6.15c-0.233,1.333-0.633,2.217-1.199,2.65
		c-0.534,0.433-1.567,0.816-3.101,1.149c-1.633,0.267-2.733,0.483-3.3,0.65c-1.533,0.467-3.767,0.733-6.7,0.8
		c-3.566,0.066-5.35-0.5-5.35-1.7c0.5,0,0.867-0.116,1.1-0.35c0.133-0.134,0.317-0.367,0.55-0.7c0.133-0.1,0.217-0.35,0.25-0.75
		s0.1-0.65,0.2-0.75c0.067-0.066,0.233-0.1,0.5-0.1c0.3,0,0.5-0.051,0.6-0.15c1.133-1.134,1.983-2.333,2.55-3.6
		c0.5-1.167,0.9-2.634,1.2-4.4c0.167,1.6,0.333,2.8,0.5,3.6c0.267,1.467,0.75,2.534,1.45,3.2c1.034-3,1.351-6.233,0.95-9.7
		C32.285,98.523,31.627,95.757,30.575,92.55z"/>
	<path style="fill-rule:evenodd;clip-rule:evenodd;fill:#2F4A35;" d="M31.7,63.95c1.666,0.833,2.2,2.333,1.6,4.5
		c-0.033,0.1-0.184,0.2-0.45,0.3c-0.267,0.134-0.433,0.283-0.5,0.45c-0.133,0.434-0.199,1.45-0.199,3.05
		c0.066,1.967,0.116,3.45,0.149,4.45c0.033,1.633-0.033,2.684-0.2,3.149c-0.267,0.867-0.983,1.534-2.149,2
		c-1.744,0.715-2.619,0.507-2.625-0.625c1.179,0.835,2.054,0.11,2.625-2.175c0.4-1.666,0.566-3.267,0.5-4.8
		c-0.067-3.033-0.083-4.8-0.05-5.3C30.5,67.15,30.933,65.483,31.7,63.95z"/>
	<path style="fill-rule:evenodd;clip-rule:evenodd;fill:#2F4A35;" d="M33.45,73.65l0.75,0.75c0.066,0.699,0.434,1.05,1.1,1.05
		c0.634,0,1.033-0.334,1.2-1c0.134,1.133,0.2,2.033,0.2,2.7c-0.033,1.233-0.4,1.883-1.101,1.949c-1,0.134-1.699-0.566-2.1-2.1
		C33.167,75.7,33.15,74.583,33.45,73.65z"/>
	<path style="fill-rule:evenodd;clip-rule:evenodd;fill:#2F4A35;" d="M43.1,86.4c0.4,2.166,0.634,4.966,0.7,8.399
		c-0.033,3.867-0.017,6.717,0.05,8.55c0.067,2.667,0,4.534-0.199,5.601c-0.334,1.733-1.167,3.3-2.5,4.7
		c-1.334,1.433-3.534,2.25-6.601,2.449c-3.533-0.066-6.033-0.05-7.5,0.051l1.4-1.2c0.633,1,1.283,0.833,1.95-0.5
		c0.333-0.7,0.667-1.684,1-2.95c0.066,0.2,0.233,0.45,0.5,0.75c0.3,0.333,0.466,0.55,0.5,0.65c0.566-0.5,0.966-1.351,1.199-2.551
		c0.301-1.433,0.567-2.35,0.801-2.75c0.433,2.2,1.1,3.867,2,5c0.633-0.733,0.899-2,0.8-3.8c-0.167-2.333-0.217-3.7-0.15-4.1
		c0.066,0.5,0.117,1.717,0.15,3.649c0.066,1.534,0.217,2.767,0.45,3.7c0.5-0.1,0.8-0.767,0.899-2c0.134-1.633,0.25-2.566,0.351-2.8
		c0.166,0.833,0.533,1.434,1.1,1.8c0.5-0.467,0.8-1.05,0.9-1.75c0.066-0.399,0.05-1.083-0.051-2.05c-0.966,0-1.5-1.167-1.6-3.5
		c-0.1-1.833,0-3.35,0.3-4.55l1.101,1.85c0.1-1.633,0.283-4.416,0.55-8.35c0.066-3.434-0.351-6.134-1.25-8.101
		c-0.566,0.434-1.217,0.667-1.95,0.7c-0.2-2.1-0.3-3.416-0.3-3.95c0.033-1.666,0.383-2.866,1.05-3.6l0.3,0.75
		c-0.166,0.6,0.117,1.35,0.851,2.25c0.933,1.167,1.449,1.9,1.55,2.2C42.25,83.083,42.8,84.9,43.1,86.4z"/>
	<path style="fill-rule:evenodd;clip-rule:evenodd;fill:#B3D4A0;" d="M38.2,66.55l0.75-0.3c-0.033,0.833,0.434,2.566,1.399,5.2
		c0.801,2.3,0.95,4.05,0.45,5.25c-1.333-0.167-2.149-1.634-2.45-4.4C38.184,70.833,38.134,68.917,38.2,66.55z"/>
	<path style="fill-rule:evenodd;clip-rule:evenodd;fill:#B3D4A0;" d="M34.4,73.15c-0.067-2.634-0.101-4.217-0.101-4.75
		c1.334,0.133,1.934,1.116,1.8,2.949c-0.033,0.7-0.25,1.267-0.649,1.7c-0.434,0.467-0.783,0.25-1.05-0.649V73.15z"/>
	<path style="fill-rule:evenodd;clip-rule:evenodd;fill:#B3D4A0;" d="M28.05,77.85l0.25,0.25c-0.767-0.133-1.117-0.616-1.05-1.449
		c0.033-0.467,0.2-1.167,0.5-2.101c0.433-1.833,0.6-3.899,0.5-6.2c0.533,1.4,0.667,3,0.4,4.801
		C28.25,76.05,28.05,77.616,28.05,77.85z"/>
	<path style="fill-rule:evenodd;clip-rule:evenodd;fill:#B3D4A0;" d="M21.45,90.8l0.45-2c0,2.7,0,4.733,0,6.101
		c0,2.466,0.133,4.483,0.4,6.05c0.534,1.7,0.9,2.95,1.1,3.75c0.367,1.434,0.283,2.7-0.25,3.8c-2.566,0.4-3.8-2.283-3.7-8.05
		C19.517,94.816,20.183,91.6,21.45,90.8z"/>
	<path style="fill-rule:evenodd;clip-rule:evenodd;fill:#B3D4A0;" d="M17.85,71.4v0.25c0.033-0.834,0.45-1.483,1.25-1.95
		c0.033,1.033,0.017,1.7-0.05,2c-0.167,0.733-0.617,1.033-1.35,0.899C17.567,72.2,17.617,71.8,17.85,71.4z"/>
	<path style="fill-rule:evenodd;clip-rule:evenodd;fill:#B3D4A0;" d="M20.65,64.05c0-0.156,0-0.74,0-1.75c0.065,0,0.132,0,0.2,0
		L20.65,64.05z M20.65,62.3c-0.64-0.086-1.157-0.553-1.55-1.399c-0.467-0.934-0.317-1.467,0.45-1.601c0.633-0.066,1,0.617,1.1,2.05
		C20.65,61.695,20.65,62.012,20.65,62.3z"/>
	<path style="fill-rule:evenodd;clip-rule:evenodd;fill:#648E6E;" d="M19.75,79.15c0.02-0.389,0.028-0.955,0.025-1.7L19.8,78.35
		c0.534,1.967,0.534,4.384,0,7.25c-0.733,3.233-1.233,5.634-1.5,7.2c-0.267,1.7-0.183,4.684,0.25,8.95
		c0.4,3.934,0.333,6.866-0.2,8.8c-1.267-1.3-2-3.149-2.2-5.55c-0.066-0.533-0.05-2.6,0.05-6.2c0.033-2.8,0.1-4.8,0.2-6
		c0.167-2.366,0.483-4.333,0.95-5.899c0.133-0.5,0.417-1.2,0.85-2.101c0.433-0.934,0.716-1.649,0.85-2.149
		C19.417,81.616,19.65,80.45,19.75,79.15z"/>
	<path style="fill-rule:evenodd;clip-rule:evenodd;fill:#4A7354;" d="M30.55,60.75c-0.867-0.1-1.7,0.85-2.5,2.85
		c-0.966,2.5-1.55,3.851-1.75,4.051c-0.033-0.467-0.05-1.917-0.05-4.351c-0.067-2.2-0.383-3.316-0.95-3.35
		c-0.333,0.866-0.55,1.434-0.65,1.7c-0.1-1.367-0.533-2.367-1.3-3c-0.767-0.6-1.8-0.816-3.1-0.65c-0.133-0.433-0.117-0.95,0.05-1.55
		c2.167,0.5,4.717,0.883,7.65,1.15c5.1,0.467,9.983,0.533,14.649,0.2c-0.366,1.5-0.966,2.384-1.8,2.65
		c-0.2,0.066-0.666,0.017-1.399-0.15c-0.634-0.166-1.101-0.116-1.4,0.15c-0.366,0.366-0.533,1.767-0.5,4.2
		c0,2.699-0.066,4.267-0.2,4.699c0-1.767-0.05-3.116-0.149-4.05c-0.134-1.533-0.45-2.883-0.95-4.05
		c-0.8-0.033-1.351,0.017-1.65,0.15c-0.3,0.1-0.633,0.533-1,1.3c-0.366,0.767-0.75,1.267-1.149,1.5
		c-0.2-1.066-0.351-1.767-0.45-2.101C31.65,61.267,31.184,60.816,30.55,60.75z"/>
	<path style="fill-rule:evenodd;clip-rule:evenodd;fill:#354F0C;" d="M23.25,117.1c-1.067-0.267-1.933-1.183-2.6-2.75l-1.45,0.75
		c0.066-1.199-0.35-2.649-1.25-4.35c-0.833-1.533-1.767-2.75-2.8-3.65c2.967,2.233,4.483,3.384,4.55,3.45
		c1.833,1.601,2.917,3.066,3.25,4.4c-0.1-0.967-0.467-2.783-1.1-5.45c-0.5-2.267-0.767-4.1-0.8-5.5
		c1.434,1.033,2.65,2.417,3.65,4.15c1.1,1.833,1.65,3.566,1.65,5.199c0.167-0.433,0.25-1.3,0.25-2.6c0.4,0.4,0.816,0.95,1.25,1.65
		c0.267,0.399,0.633,0.983,1.1,1.75c0.333-1.134,0.433-2.667,0.3-4.601c-0.067-1.1-0.2-2.666-0.4-4.7c0.9,1.867,1.566,3.267,2,4.2
		c0.8,1.733,1.317,3.184,1.55,4.351c-0.067-1.934-0.084-3.084-0.051-3.45c0.867,0.733,1.384,1.733,1.551,3
		c0.566-0.601,1-1.434,1.3-2.5c0.267-0.967,0.366-1.917,0.3-2.851c0.967,1.4,1.45,3.733,1.45,7c1.133-0.533,2-1.699,2.6-3.5
		c0.267-0.833,0.566-2.316,0.9-4.449c0.566,0.8,1.05,2,1.45,3.6c0.899,0.033,1.449-0.517,1.649-1.65c0.134-0.6,0.184-1.5,0.15-2.699
		c0.866,1.733,1.35,2.699,1.45,2.899c0.366,1.134,0.283,2.3-0.25,3.5c-0.767,1.767-2.717,3.066-5.851,3.9
		c-1.566,0.434-3.467,0.7-5.7,0.8c-2.6,0.033-4.55,0.066-5.85,0.1C25.1,117.2,23.683,117.2,23.25,117.1z"/>
	<path style="fill-rule:evenodd;clip-rule:evenodd;fill:#577820;" d="M17.9,115.9c1.01-0.177,1.427-1.677,1.25-4.5
		c-0.133-1.667-0.383-3.584-0.75-5.75c2.367,2.866,3.367,5.85,3,8.949c-0.066,0.767-0.117,1.184-0.15,1.25
		c-0.1,0.267-0.367,0.517-0.8,0.75c-0.467,0.233-0.85,0.317-1.15,0.25c-0.433-0.1-0.633-0.416-0.6-0.949H17.9z"/>
	<path style="fill-rule:evenodd;clip-rule:evenodd;fill:#577820;" d="M26.95,116.1c0.133-1.533,0.167-3.833,0.1-6.899
		c0.967,1.033,1.534,2.3,1.7,3.8c0.2,1.6-0.15,2.884-1.05,3.85c-0.767,0.834-1.75,1.2-2.95,1.101c-0.893-0.191-1.66-0.35-2.3-0.476
		c1.394-0.874,2.178-3.365,2.35-7.475C26.233,112.5,26.95,114.533,26.95,116.1z M21.5,117.3c0.278,0.049,0.594,0.106,0.95,0.175
		c-0.488,0.313-1.054,0.421-1.7,0.325L21.5,117.3z"/>
	<path style="fill-rule:evenodd;clip-rule:evenodd;fill:#577820;" d="M30.6,114.45c0.1-1.601,0.05-3.334-0.15-5.2
		c0.733,1.767,1.116,2.7,1.149,2.8c0.534,1.134,1.051,1.983,1.551,2.55c0.466-0.767,0.616-2.199,0.449-4.3
		c-0.066-1.133-0.216-2.666-0.449-4.6c0.066,0.5,0.783,2.399,2.149,5.7c1.101,2.6,1.334,4.6,0.7,6c-0.434,0.933-1.3,1.333-2.6,1.199
		c-1.334-0.133-1.801-0.666-1.4-1.6l-2.625,1.65C30.075,118.064,30.483,116.665,30.6,114.45z"/>
	<path style="fill-rule:evenodd;clip-rule:evenodd;fill:#577820;" d="M38.125,116.95c0.39-1.095,0.615-2.512,0.675-4.25
		c0.033-1.101,0.017-2.684-0.05-4.75c2,2.866,2.066,5.149,0.2,6.85L38.125,116.95z"/>
	<path style="fill-rule:evenodd;clip-rule:evenodd;fill:#577820;" d="M42,108.7c1.2-0.167,1.467,1.149,0.8,3.95H42.15
		c-0.034-0.4-0.067-1.034-0.101-1.9c-0.033-0.767-0.217-1.366-0.55-1.8L42,108.7z"/>
</g>
</svg>
