<?xml version="1.0" encoding="iso-8859-1"?>
<!-- Generator: Adobe Illustrator 15.1.0, SVG Export Plug-In . SVG Version: 6.00 Build 0)  -->
<!DOCTYPE svg PUBLIC "-//W3C//DTD SVG 1.1//EN" "http://www.w3.org/Graphics/SVG/1.1/DTD/svg11.dtd">
<svg version="1.1" id="FlashAICB" xmlns="http://www.w3.org/2000/svg" xmlns:xlink="http://www.w3.org/1999/xlink" x="0px" y="0px"
	 width="94.5px" height="116.45px" viewBox="0 0 94.5 116.45" style="enable-background:new 0 0 94.5 116.45;" xml:space="preserve"
	>
<symbol  id="FlashAICB_x5F_0_x2F_Layer_10_x2F__x3C_Group_x3E__x5F_1" viewBox="0 -11.75 39.05 11.75">
	<g id="Layer_1_3_">
		<g>
			
				<radialGradient id="SVGID_1_" cx="490.8594" cy="75.0918" r="19.2135" gradientTransform="matrix(0.9999 0.0104 0.0234 -0.4073 -473.0918 16.4229)" gradientUnits="userSpaceOnUse">
				<stop  offset="0" style="stop-color:#000000;stop-opacity:0.698"/>
				<stop  offset="1" style="stop-color:#000000;stop-opacity:0"/>
			</radialGradient>
			<path style="fill-rule:evenodd;clip-rule:evenodd;fill:url(#SVGID_1_);" d="M33.35-2.15c3.8-1.434,5.7-3.167,5.7-5.2
				c0-0.967-0.683-1.9-2.05-2.8c-1.433-0.934-3.117-1.467-5.05-1.6c-1.034,0.2-1.733,0.283-2.1,0.25c-0.1-0.033-0.184-0.033-0.25,0
				c-0.167,0.067,0.15,0.083,0.95,0.05c0.733-0.033,1.05-0.033,0.95,0c-0.133,0.034-0.567,0.233-1.3,0.6
				c-0.667,0.333-1.1,0.517-1.3,0.55c-0.7,0-1.45,0.15-2.25,0.45c-0.767,0.3-1.517,0.45-2.25,0.45
				c-0.733,0.467-1.316,0.816-1.75,1.05c-0.8,0.4-1.467,0.317-2-0.25c-1.733-0.767-2.767-1.217-3.1-1.35
				c-0.667-0.233-1.466-0.417-2.4-0.55c-0.367-0.067-0.583-0.417-0.65-1.05h-0.05c-1.4,0.633-2.45,1.083-3.15,1.35
				c-1.133,0.4-2.283,0.583-3.45,0.55c-0.3,0-1.033-0.117-2.2-0.35c0.867-0.433,1.25-0.65,1.15-0.65c0.067,0-0.333,0.217-1.2,0.65
				c-0.333,0.033-0.567-0.117-0.7-0.45C4.833-10.65,4.733-11,4.6-11.5c-1.033,0.233-1.967,0.35-2.8,0.35
				C1.267-10.583,0.817-9.9,0.45-9.1C0.15-8.4,0-7.817,0-7.35c0,2.033,1.9,3.767,5.7,5.2C9.533-0.717,14.133,0,19.5,0
				C24.9,0,29.517-0.717,33.35-2.15z"/>
			
				<use xlink:href="#FlashAICB_x5F_0_x2F_Layer_10_x2F__x3C_Path_x3E_"  width="31.095" height="5.664" x="0.005" y="-5.71" transform="matrix(1 0 0 1 3.6001 -5.3999)" style="overflow:visible;opacity:0.2109;enable-background:new    ;"/>
		</g>
	</g>
</symbol>
<symbol  id="FlashAICB_x5F_0_x2F_Layer_10_x2F__x3C_Path_x3E_" viewBox="0.005 -5.71 31.095 5.664">
	<g id="Layer_1_2_">
		<path style="fill-rule:evenodd;clip-rule:evenodd;" d="M30.95-4.15L31.1-4.2l-0.75-0.55c-0.833-0.267-1.6-0.583-2.3-0.95h-0.1
			L27.8-4.9c-0.066,0.4-2.066,0.316-6-0.25c-0.867,0.8-2.566,1.066-5.1,0.8C13.933-4.783,12.083-5,11.15-5
			c-0.6,0-1.1-0.217-1.5-0.65c-0.167-0.2-0.867,0.1-2.1,0.9c-1.133,0.367-2.233,0.533-3.3,0.5c-0.3,0-1.033-0.117-2.2-0.35H0.9
			L0.25-3.8c-0.233,0.033-0.3,0.183-0.2,0.45C0.083-3.217,0.133-3.167,0.2-3.2c0.066-0.033,0.1,0,0.1,0.1
			c0,0.067,0.117,0.083,0.35,0.05C0.85-3.05,0.967-2.9,1-2.6l0.05,0.4L1.35-2l0.2,0.1H1.9c0.067,0,0.15-0.167,0.25-0.5
			c0.1-0.3,0.184-0.417,0.25-0.35c0.033,0.033,0.35,0.6,0.95,1.7c0.1,0.033,0.816,0.066,2.15,0.1c0.8,0.034,1.183,0.333,1.15,0.9
			c3.067,0.033,9.367-0.167,18.9-0.6c0.3,0,1.083-0.3,2.35-0.9c1.267-0.6,1.934-0.9,2-0.9c0.267,0,0.517-0.383,0.75-1.15
			C30.783-3.667,30.883-3.85,30.95-4.15z"/>
	</g>
</symbol>
<g>
	<g>
		
			<use xlink:href="#FlashAICB_x5F_0_x2F_Layer_10_x2F__x3C_Group_x3E__x5F_1"  width="39.05" height="11.75" y="-11.75" transform="matrix(1 0 0 -1 30.1001 101.0996)" style="overflow:visible;opacity:0.6914;enable-background:new    ;"/>
		<path style="fill-rule:evenodd;clip-rule:evenodd;fill:#A88E60;" d="M35.5,20.75l-2.55-1.3c-1.3,0.9-2.35,2.083-3.15,3.55
			c-0.3,0.5-0.533,1.15-0.7,1.95L29,25.3c-2.367-3.066-3.867-2.683-4.5,1.15c-0.2,1-0.15,1.966,0.15,2.9L20.1,25.7l-2.45,1.15
			l-4.4-3.65c0.133-0.233,0.35-0.45,0.65-0.65c5.233-1.833,11.017-4.1,17.35-6.8c8.033-3.433,16.467-5.533,25.3-6.3
			c9.134-0.7,17.783,0.983,25.95,5.05c0.667,0.367,1.066,0.85,1.2,1.45c0.434,1.833-0.584,3.133-3.05,3.9
			c-1.101,0.4-1.851,1.1-2.25,2.1c-3.267,8-5.233,16.6-5.9,25.8c0-5.233-0.05-10.483-0.15-15.75c-0.033-5.7-2.1-9.783-6.199-12.25
			C64.384,23.25,63.45,27,63.35,31c-0.366-4.833-1.316-9.5-2.85-14l-3.75,3.25c-0.1-0.9-0.4-1.633-0.9-2.2l-1-1.05l-3,11.7
			c-0.199-3-0.833-5.75-1.899-8.25c-0.434-1.133-1.2-1.85-2.3-2.15l-1.75,1.4c-1.967-2.767-4.333-3.5-7.1-2.2
			C37.367,18.2,36.267,19.283,35.5,20.75z"/>
		<path style="fill-rule:evenodd;clip-rule:evenodd;fill:#BDA375;" d="M38.8,17.5c2.767-1.3,5.133-0.567,7.1,2.2l1.75-1.4
			c1.1,0.3,1.866,1.017,2.3,2.15c1.066,2.5,1.7,5.25,1.899,8.25l3-11.7l1,1.05c0.5,0.567,0.801,1.3,0.9,2.2L60.5,17
			c1.533,4.5,2.483,9.167,2.85,14c0.101-4,1.034-7.75,2.801-11.25c4.1,2.467,6.166,6.55,6.199,12.25
			c0.101,5.267,0.15,10.517,0.15,15.75c-0.533,2.433-1.083,4.767-1.65,7c-2.166,8.267-4.833,16.767-8,25.5L61.5,84.1
			c1.533-5.433,2.667-10.899,3.4-16.399c0.1-0.967,0.267-1.834,0.5-2.601l2.5-10c3.033-12.133,2.633-23.583-1.2-34.35
			c-1.634,4.167-2.351,9-2.15,14.5c0.033,1.7,0,3.617-0.1,5.75c-0.3,4.767-0.767,10.583-1.4,17.45
			c-1.6,16.066-5.517,31.5-11.75,46.3h-0.55c0.767-2.833,1.816-7.083,3.15-12.75l1.5-6.5c0.833-3.934,2.05-9.267,3.649-16
			c3.934-16.433,4.417-32.933,1.45-49.5l-1.6,5.5c-0.667,3.3-0.884,6.483-0.65,9.55c1.333,17.4-0.884,34.384-6.65,50.95
			c0.301-6.066,1.217-12.2,2.75-18.4l0.5-1.399c0.634-1.667,1.017-3.283,1.15-4.851l0.7-6.25c1.434-11.667,0.55-22.934-2.65-33.8
			c0.267,13.133-0.916,25.9-3.55,38.3c2.134-11.433,1.4-22.55-2.2-33.35c-1.2,6.633-1.466,13.4-0.8,20.3l-4.35-25.5h-1.6
			c2.4,14.667,3.6,29.35,3.6,44.05c-0.7-14.933-3.183-29.533-7.45-43.8c1.133,6.434,1.8,13,2,19.7c-0.4-4.333-1.117-8.5-2.15-12.5
			c-0.833-3.467-2.767-5.133-5.8-5l-0.1,0.6c-0.2,1.1-0.1,2.1,0.3,3c5.167,12.7,7.9,25.733,8.2,39.1
			c-0.233-0.533-0.383-1.117-0.45-1.75C39,50.383,34.983,37.467,27.65,25.7l-1.05,1.5l8.2,21.85
			c-3.267-7.667-7.55-14.65-12.85-20.95v0.6l0.65,1c1.466,2.367,2.45,4.966,2.95,7.8c-1.333-3.967-3.617-7.233-6.85-9.8l-1.05-0.85
			l2.45-1.15l4.55,3.65c-0.3-0.934-0.35-1.9-0.15-2.9c0.633-3.833,2.133-4.217,4.5-1.15l0.1-0.35c0.167-0.8,0.4-1.45,0.7-1.95
			c0.8-1.467,1.85-2.65,3.15-3.55l2.55,1.3C36.267,19.283,37.367,18.2,38.8,17.5z M48.05,58c0.834,8.134,0.584,16.25-0.75,24.35
			c0-1.566-0.05-3.183-0.149-4.85c-0.534-8.9-0.184-17.75,1.05-26.55L48.05,58z"/>
		<path style="fill-rule:evenodd;clip-rule:evenodd;fill:#D9BF91;" d="M43.15,21.05l4.35,25.5c-0.667-6.9-0.4-13.667,0.8-20.3
			c3.601,10.8,4.334,21.917,2.2,33.35c2.634-12.399,3.816-25.167,3.55-38.3c3.2,10.867,4.084,22.133,2.65,33.8L56,61.35
			c-0.134,1.567-0.517,3.184-1.15,4.851l-0.5,1.399C52.816,73.8,51.9,79.934,51.6,86c5.767-16.566,7.983-33.55,6.65-50.95
			c-0.233-3.066-0.017-6.25,0.65-9.55l1.6-5.5c2.967,16.567,2.483,33.067-1.45,49.5c-1.6,6.733-2.816,12.066-3.649,16L53.9,92
			c-1.334,5.667-2.384,9.917-3.15,12.75h0.55c6.233-14.8,10.15-30.233,11.75-46.3c0.634-6.867,1.101-12.684,1.4-17.45
			c0.1-2.133,0.133-4.05,0.1-5.75c-0.2-5.5,0.517-10.333,2.15-14.5c3.833,10.767,4.233,22.217,1.2,34.35l-2.5,10
			c-0.233,0.767-0.4,1.634-0.5,2.601c-0.733,5.5-1.867,10.967-3.4,16.399c-0.667,2.467-1.5,5.117-2.5,7.95l-0.7,2
			c-0.967,2.634-1.566,5.283-1.8,7.95c-0.6,2.3-0.634,4.583-0.1,6.85c0.1,0.467,0.017,0.834-0.25,1.101
			c-4.733,3.666-10.384,4.467-16.95,2.399c-0.9-0.233-1.35-0.767-1.35-1.6L37.7,87.1c-0.1-9-1.417-17.716-3.95-26.149
			c-2.3-7.733-5.033-15.55-8.2-23.45c-0.5-2.833-1.483-5.433-2.95-7.8l-0.65-1v-0.6c5.3,6.3,9.583,13.283,12.85,20.95L26.6,27.2
			l1.05-1.5C34.983,37.467,39,50.383,39.7,64.45c0.066,0.633,0.216,1.217,0.45,1.75c-0.3-13.367-3.033-26.4-8.2-39.1
			c-0.4-0.9-0.5-1.9-0.3-3l0.1-0.6c3.033-0.133,4.967,1.533,5.8,5c1.034,4,1.75,8.167,2.15,12.5c-0.2-6.7-0.867-13.267-2-19.7
			c4.267,14.267,6.75,28.867,7.45,43.8c0-14.7-1.2-29.383-3.6-44.05H43.15z M48.2,50.95c-1.233,8.8-1.583,17.649-1.05,26.55
			c0.1,1.667,0.149,3.283,0.149,4.85c1.334-8.1,1.584-16.216,0.75-24.35L48.2,50.95z"/>
		<g>
			<path style="fill-rule:evenodd;clip-rule:evenodd;fill:#FFEDB5;" d="M0.05,17.25c-0.4-4.667,1.5-8.417,5.7-11.25
				c3.633-2.3,7.483-3.45,11.55-3.45c4.467,0.067,8.967-0.417,13.5-1.45c4.233-0.9,8.3-1.25,12.2-1.05l12.95,0.8
				c4.5,0.367,8.35,0.917,11.55,1.65c2.833,0.7,5.767,1.483,8.8,2.35C79.033,5.683,81.816,7.067,84.65,9
				c2.633,1.8,5.116,3.717,7.449,5.75c2.967,2.6,3.184,5.167,0.65,7.7c-2.9,0.5-4.9-0.883-6-4.15l-3.8,0.95
				c-2.601,0.3-4.717-0.783-6.351-3.25c-0.733,0.833-1.583,1.417-2.55,1.75c-0.833,0.233-1.666,0.233-2.5,0
				c-3.767-1.5-7.217-3.083-10.35-4.75h-0.8c-3.834,1.567-7.684,1.85-11.551,0.85c-1.399,1.267-3.05,1.85-4.95,1.75
				c-6.333-0.133-12.167,1.833-17.5,5.9c-1.967,1.6-3.767,1.533-5.4-0.2l-1.55,1.9c-3.067,3.767-6.384,4.133-9.95,1.1
				c-0.967,1.1-2.15,1.833-3.55,2.2C3.816,24.167,2.033,21.667,0.6,19C0.267,18.3,0.083,17.717,0.05,17.25z M49.05,1.95
				c-1.566-0.133-3.333-0.117-5.3,0.05c-7.667,0.3-15.2,1.533-22.6,3.7c-3.333,0.966-6.733,1.517-10.2,1.65
				C9.417,7.417,8.033,7.817,6.8,8.55c-0.833,0.5-1.433,1.1-1.8,1.8C4.367,11.483,4.267,12.7,4.7,14c0.466,1.5,1.466,2.5,3,3
				c4.066,1.2,8.083,0.95,12.05-0.75c4.066-1.767,8.333-3.233,12.8-4.4c3.8-0.934,7.65-1.733,11.55-2.4c4.2-0.767,8.333-1.1,12.4-1
				c3.8,0,7.866,0.267,12.2,0.8l1.85,0.25c4.4,0.8,8.5,1.833,12.3,3.1c1.2,0.4,2.367,0.383,3.5-0.05l-5.399-2.5L81.1,10
				c-3.8-1.433-7.733-2.85-11.8-4.25C62.8,3.483,56.05,2.217,49.05,1.95z"/>
			<path style="fill-rule:evenodd;clip-rule:evenodd;fill:#D1B96E;" d="M69.3,5.75c4.066,1.4,8,2.817,11.8,4.25l-0.149,0.05
				l5.399,2.5c-1.133,0.434-2.3,0.45-3.5,0.05c-3.8-1.267-7.899-2.3-12.3-3.1C69.384,9.033,66,8.283,60.4,7.25
				c-5.567-1.067-9.851-1.633-12.851-1.7c-2.867-0.033-8.533,1.05-17,3.25c-8.3,2.233-12.75,3.534-13.35,3.9
				c-0.534,0.3-1.217,0.3-2.05,0c-0.767-0.367-1.55-0.667-2.35-0.9v1.95c-0.633-0.2-1.65-0.133-3.05,0.2
				c-1.767,0.3-2.65,0.9-2.65,1.8c0,0.433,0.2,0.85,0.6,1.25c-1.534-0.5-2.534-1.5-3-3c-0.434-1.3-0.333-2.517,0.3-3.65
				c0.367-0.7,0.967-1.3,1.8-1.8c1.233-0.733,2.617-1.133,4.15-1.2c3.466-0.133,6.866-0.684,10.2-1.65
				c7.4-2.167,14.934-3.4,22.6-3.7c1.967-0.167,3.733-0.183,5.3-0.05C56.05,2.217,62.8,3.483,69.3,5.75z"/>
			<path style="fill-rule:evenodd;clip-rule:evenodd;fill:#EBC030;" d="M60.4,7.25C66,8.283,69.384,9.033,70.55,9.5L68.7,9.25
				c-4.334-0.533-8.4-0.8-12.2-0.8c-4.066-0.1-8.2,0.233-12.4,1c-3.9,0.667-7.75,1.466-11.55,2.4c-4.466,1.167-8.733,2.633-12.8,4.4
				C15.783,17.95,11.767,18.2,7.7,17c-0.4-0.4-0.6-0.817-0.6-1.25c0-0.9,0.883-1.5,2.65-1.8c1.4-0.333,2.417-0.4,3.05-0.2V11.8
				c0.8,0.233,1.583,0.534,2.35,0.9c0.833,0.3,1.517,0.3,2.05,0c0.6-0.367,5.05-1.667,13.35-3.9c8.467-2.2,14.133-3.283,17-3.25
				C50.55,5.617,54.833,6.183,60.4,7.25z"/>
		</g>
		<path style="fill-rule:evenodd;clip-rule:evenodd;fill:#947D55;" d="M40.15,16.1l1-1c0.967,0.066,2.217-0.083,3.75-0.45
			c1.833-0.467,3.083-0.733,3.75-0.8c0.767-0.067,1.683,0,2.75,0.2c1.466,0.233,2.383,0.367,2.75,0.4
			c0.566,0.033,2.399-0.05,5.5-0.25c2.066-0.133,3.883,0.083,5.449,0.65c0.767,0.267,2,0.767,3.7,1.5c1.566,0.7,2.8,1.183,3.7,1.45
			c0.3,0.1,1.167,0.2,2.6,0.3c1.301,0.066,2.084,0.2,2.351,0.4c1.333,0.967,1.217,2.717-0.351,5.25c-2.033,2.6-3.233,4.15-3.6,4.65
			c0-2-0.35-3.933-1.05-5.8c-0.9-2.267-2.117-3.65-3.65-4.15c-0.767-0.267-1.75-0.367-2.95-0.3c-1.267,0.167-2.149,0.267-2.649,0.3
			c-0.167,0-0.417,0.2-0.75,0.6c-0.267,0.267-0.717,0.267-1.351,0c-0.366-0.167-0.699-0.55-1-1.15
			c-0.333-0.733-0.566-1.183-0.699-1.35c-0.934-0.966-1.601-1.367-2-1.2c-0.667,0.533-1.45,0.933-2.351,1.2
			c-0.633,0.2-1.5,0.3-2.6,0.3c-1.267-0.033-2.15-0.05-2.65-0.05c-1.066,0-2.666-0.117-4.8-0.35
			C42.933,16.217,41.317,16.1,40.15,16.1z"/>
		<path style="fill-rule:evenodd;clip-rule:evenodd;fill:#BDA375;" d="M62.45,56.55l-0.15-4c-0.1-1.733,0.033-3,0.4-3.8
			c0.233,1.167,0.434,1.967,0.6,2.4c0.3,0.934,0.684,1.583,1.15,1.95c1.5-0.9,2.767-2.6,3.8-5.1c0.467-1.133,1.1-3.2,1.9-6.2
			l3.3,0.65c-0.8,2.667-1.384,4.667-1.75,6c-0.566,2.233-0.867,4.267-0.9,6.1l-0.05,1.55c-1.066,2.5-1.7,4.067-1.9,4.7
			c-1.733,3.767-2.866,8.05-3.399,12.851c-2.867,7-5.117,13.066-6.75,18.199c-0.767,2.467-1.316,4.434-1.65,5.9
			c-0.399,2-0.6,4.017-0.6,6.05c0.166,2.367,0.217,4.101,0.149,5.2c-0.166,1.866-0.899,3.116-2.199,3.75
			c-1.767,0.833-4.917,1.1-9.45,0.8c-4.934-0.333-7.083-1.467-6.45-3.399c0.2,0.066,0.517,0.05,0.95-0.051
			c0.466-0.066,0.783-0.083,0.95-0.05c0.2-0.566,0.317-1.434,0.35-2.6c0.067-1.167,0.183-2.033,0.35-2.601
			c0.066,0.167,0.3,0.5,0.7,1c0.367,0.467,0.583,0.801,0.65,1c0.3-0.566,0.45-1.533,0.45-2.899c0-0.767-0.033-1.834-0.1-3.2
			c0-2.066-0.066-5.267-0.2-9.6c0-3.767,0.316-6.917,0.95-9.45c0.767,3.399,1.267,7.467,1.5,12.2c0.167,5.399,0.333,9.5,0.5,12.3
			c1.934-7.066,3.017-11.134,3.25-12.2c0.066-0.233,0.5-2.684,1.3-7.35c0.534-3.034,1.2-5.4,2-7.101
			c-0.066,2.634-0.05,4.584,0.051,5.851c0.233-0.467,1.149-3.351,2.75-8.65c1.066-3.6,2.566-6.15,4.5-7.65
			c-0.101,2-0.167,3.551-0.2,4.65c-0.033,2.066,0.366,3.4,1.2,4c0.066-1.2,0.316-3.033,0.75-5.5c0.399-2.267,0.616-4.116,0.649-5.55
			c0-1.233,0.101-2.917,0.3-5.05C62.3,59.25,62.417,57.55,62.45,56.55z"/>
		<path style="fill-rule:evenodd;clip-rule:evenodd;fill:#A88E60;" d="M70.6,46.1c-0.1-1.267-0.116-2.15-0.05-2.65
			c0.101-0.8,0.134-2.717,0.101-5.75c0.1-2.8,0.483-4.55,1.149-5.25l1.65,1.65c-0.101,1.633-0.316,4.45-0.65,8.45
			c-0.3,3.534-0.483,6.333-0.55,8.4l-3.1,6.65c-3.434,7.466-5.584,14.4-6.45,20.8l-0.9,1.3c-3.267,5.166-4.934,11.616-5,19.35
			c0.167,2.5,0.267,4.483,0.3,5.95c0.101,2.634-0.133,4.55-0.699,5.75c-0.567,1.2-1.601,2.083-3.101,2.65
			c-1.399,0.466-2.816,0.583-4.25,0.35c-1.5-0.3-2.55-0.9-3.15-1.8c-0.667-1-0.566-2.217,0.3-3.65l0.85,0.8
			c0.434-1.733,0.9-4.716,1.4-8.949c0.666-3.767,1.883-6.45,3.649-8.051c0,0.334-0.066,2.134-0.199,5.4
			c-0.101,2.233,0.05,3.983,0.449,5.25c0.233-0.434,0.367-0.95,0.4-1.55c0.033-0.334,0.066-0.9,0.1-1.7
			c0.534-4.866,1.384-8.767,2.551-11.7l0.449,1.55c1.134-1,1.983-2.699,2.551-5.1c0.466-2.033,0.633-3.967,0.5-5.8l-0.15,1.05
			c0.066-0.733-0.033-2.533-0.3-5.4c-0.2-2.366-0.101-4.116,0.3-5.25c0.134-0.366,0.483-0.783,1.05-1.25
			c0.767-0.666,1.2-1.066,1.3-1.199c0.867-1.067,1.784-2.584,2.75-4.551c0.534-1.133,1.301-2.767,2.301-4.899
			c0.466-0.833,1.283-2.167,2.449-4c1.034-1.667,1.667-3.067,1.9-4.2C70.634,48.15,70.667,47.267,70.6,46.1z"/>
		<path style="fill-rule:evenodd;clip-rule:evenodd;fill:#A88E60;" d="M75.8,30.75c-0.467,1.433-0.649,3.583-0.55,6.45
			c0.134,3.1,0.066,5.267-0.2,6.5c-0.233,1.1-0.733,2.533-1.5,4.3c-1.066,2.5-1.666,3.933-1.8,4.3
			C67.884,62.9,64.767,73.9,62.4,85.3c-0.834,3.733-1.434,6.533-1.801,8.4c-0.6,3.2-0.983,6.033-1.149,8.5
			c-0.267,4.434-0.533,7.033-0.8,7.8c-0.867,2.667-2.801,3.467-5.801,2.4c-0.233-1,0.034-2.317,0.801-3.95
			c0.899-2.033,1.399-3.351,1.5-3.95c0.166-1.066,0.216-2.467,0.149-4.2c-0.033-0.934-0.083-2.333-0.149-4.2
			c-0.034-2.966,0.5-6.566,1.6-10.8c0.6-2.333,1.65-5.783,3.15-10.35c0.233-0.733,0.583-2.334,1.05-4.8
			c0.333-1.934,0.833-3.5,1.5-4.7c0.5-0.9,1.633-2.75,3.399-5.55c1.434-2.267,2.5-4.15,3.2-5.65c1.566-3.267,2.45-5.133,2.65-5.6
			c0.934-2.167,1.5-4.117,1.7-5.85c0.066-0.466,0.183-2.3,0.35-5.5c0.134-2.2,0.366-4.05,0.7-5.55L75.8,30.75z"/>
		<path style="fill-rule:evenodd;clip-rule:evenodd;fill:#947D55;" d="M71.45,52.75l-0.65,4c-1.566,2.1-2.783,4.95-3.649,8.55
			c-0.767,4.2-1.334,7.25-1.7,9.15c-0.367,2.2-0.65,3.833-0.851,4.899c-0.333,1.934-0.716,3.534-1.149,4.801
			c-0.867,2.366-1.517,4.116-1.95,5.25c-0.733,2-1.184,3.783-1.35,5.35c-0.167,1.2-0.284,2.967-0.351,5.3
			c-0.1,2.434-0.217,4.217-0.35,5.351c-0.101,1.767-0.233,3.233-0.4,4.399c-0.3,2.233-0.717,3.55-1.25,3.95
			c-0.267,0.2-0.916,0.267-1.95,0.2c-1.1-0.101-1.783-0.167-2.05-0.2c-1.366-0.033-2.083-0.066-2.149-0.1
			c-0.2-0.067-0.267-0.517-0.2-1.351c0.033-0.333,0.283-0.816,0.75-1.45c0.5-0.699,0.783-1.183,0.85-1.449
			c0.066-0.233,0.117-1.134,0.15-2.7c0.033-1.066,0.316-1.834,0.85-2.3c0.033,0.3,0.15,0.733,0.351,1.3
			c0.166,0.566,0.267,0.983,0.3,1.25c0.333-0.7,0.5-1.667,0.5-2.9c0-0.7-0.033-1.717-0.101-3.05c0.034-1,0.184-2.267,0.45-3.8
			c0.334-1.834,0.533-3.066,0.601-3.7L56.1,97.1c0.434-1.433,1.517-4.267,3.25-8.5c1.467-3.566,2.4-6.433,2.801-8.6
			c0.233-1.2,0.366-2.8,0.399-4.8c0.066-2.267,0.15-3.851,0.25-4.75c0.267-2.5,1.584-5.5,3.95-9
			C69.35,57.55,70.917,54.65,71.45,52.75z"/>
		<path style="fill-rule:evenodd;clip-rule:evenodd;fill:#EBCE9D;" d="M31.6,45.85c0.286,0.211,0.786,0.395,1.5,0.55
			c0.033-0.867,0.066-2.183,0.1-3.95c2.8,2.4,4.667,7.75,5.6,16.05c0.267,2.333,0.4,5.15,0.4,8.45
			c-0.023,2.562-0.04,4.687-0.05,6.375c-0.078-1.508-0.328-3.25-0.75-5.226c-0.333-1.666-0.9-4.066-1.7-7.199
			c-0.5-2.267-1.133-4.7-1.9-7.3c-0.2-0.7-0.833-2.15-1.9-4.35C32.256,47.962,31.823,46.829,31.6,45.85z"/>
		<path style="fill-rule:evenodd;clip-rule:evenodd;fill:#EBCE9D;" d="M37.8,41.1l0.35-2.35c3.8,3.467,6.217,9.383,7.25,17.75
			c0.667,5.7,0.667,12.217,0,19.55c-0.3-0.866-0.55-2.267-0.75-4.2c-0.2-2-0.467-3.466-0.8-4.399c-0.333-0.934-1.033-2.483-2.1-4.65
			c-0.967-1.934-1.6-3.483-1.9-4.65c-0.367-1.433-0.567-4.316-0.6-8.65C39.217,45.767,38.733,42.967,37.8,41.1z"/>
		<path style="fill-rule:evenodd;clip-rule:evenodd;fill:#EBCE9D;" d="M46.45,80.45c-0.1,1.166,0.133,4.3,0.7,9.399
			c0.433,3.767,0.066,6.834-1.101,9.2c-1.2-0.166-1.816-2.8-1.85-7.899c-0.034-2.634,0.05-5.867,0.25-9.7L46.45,80.45z"/>
		<path style="fill-rule:evenodd;clip-rule:evenodd;fill:#EBCE9D;" d="M48.15,44.75l1-3c0.033,0.267,0.517,3.5,1.449,9.7
			c0.601,3.9,0.884,7.15,0.851,9.75c0.166,3.366,0.184,6.1,0.05,8.2c-0.267,3.933-1.15,6.267-2.65,7
			C48.384,68.866,48.15,58.317,48.15,44.75z"/>
		<path style="fill-rule:evenodd;clip-rule:evenodd;fill:#3E5C0E;" d="M51.25,105.25c-0.066,2.8-0.116,4.833-0.15,6.1
			c0.4-2.033,1-3.433,1.801-4.199c0.166,0.3,0.366,1.183,0.6,2.649c0.2,1.134,0.6,1.867,1.2,2.2c0.5-0.833,0.767-1.95,0.8-3.35
			c0-0.801,0-1.983,0-3.551c0.6,0.567,1.233,2.534,1.9,5.9c0.066-0.3,0.216-0.583,0.449-0.85c0.134-0.167,0.317-0.4,0.551-0.7
			c0.899,2.233,0.616,3.733-0.851,4.5c-0.666,0.333-2.383,0.633-5.149,0.899c-2,0.2-4.483,0.25-7.45,0.15
			c-4.7-0.134-7.2-0.2-7.5-0.2v-1.35c0.066-0.733-0.1-1.517-0.5-2.351c-0.233-0.5-0.6-1.25-1.1-2.25c0.8,0.2,1.566,0.867,2.3,2
			c0.4,0.601,0.967,1.551,1.7,2.851c-0.1-1.367-0.117-3.45-0.05-6.25c1.034,1.333,1.733,2.316,2.1,2.95
			c0.667,1.166,1.083,2.3,1.25,3.399c-0.1-2.366-0.1-4.733,0-7.1c0.934,0.733,1.817,1.7,2.65,2.899
			c0.867,1.301,1.384,2.467,1.55,3.5c0.534-1.633,1.101-3.899,1.7-6.8c0.7-3.434,1.2-5.717,1.5-6.85
			C50.983,100.884,51.217,102.816,51.25,105.25z"/>
		<path style="fill-rule:evenodd;clip-rule:evenodd;fill:#577820;" d="M37.5,114.225c-0.18,0.462-0.414,0.87-0.7,1.226l0.65-1.65
			C37.465,113.951,37.482,114.093,37.5,114.225c0.367-0.881,0.55-1.956,0.55-3.225c0-2.4,0.1-3.917,0.3-4.55
			c0.767,1.434,1.333,2.566,1.7,3.399c0.633,1.467,0.883,2.667,0.75,3.601c-0.167,1.2-0.733,1.883-1.7,2.05
			C38.243,115.677,37.71,115.252,37.5,114.225z"/>
		<path style="fill-rule:evenodd;clip-rule:evenodd;fill:#577820;" d="M43,111.95c-0.033-1.8,0.05-3.25,0.25-4.351
			c0.967,1.067,1.833,2.601,2.6,4.601c0.967,2.533,0.617,3.816-1.05,3.85c-0.033-0.2-0.033-0.517,0-0.95l-1.65,1.351
			C43.15,115.483,43.1,113.983,43,111.95z"/>
		<path style="fill-rule:evenodd;clip-rule:evenodd;fill:#577820;" d="M50.3,105.25c0.601,2.6,0.767,4.65,0.5,6.15
			c-0.267,1.533-0.85,2.566-1.75,3.1c-1.033,0.566-2.117,0.2-3.25-1.1c-0.033-0.5,0.184-0.934,0.65-1.301l0.7,0.351
			c0.5-1.367,0.699-3.3,0.6-5.8c-0.167-3.867-0.25-5.867-0.25-6C48.667,100.783,49.6,102.316,50.3,105.25z"/>
		<path style="fill-rule:evenodd;clip-rule:evenodd;fill:#577820;" d="M52.075,106.5c0.398,0.813,0.674,2.063,0.825,3.75
			c0.233,2.366-0.117,3.634-1.051,3.8c-0.033-0.533-0.05-2.95-0.05-7.25L52.075,106.5c-0.129-0.262-0.271-0.479-0.425-0.65l0.8,0.25
			L52.075,106.5z"/>
		<path style="fill-rule:evenodd;clip-rule:evenodd;fill:#577820;" d="M53.45,110.45l0.35,0.649c0.167,1.7,0.2,2.917,0.101,3.65
			c-0.2,1.333-1,1.783-2.4,1.35c0.066-0.666,0.417-1.583,1.05-2.75C53.15,112.25,53.45,111.283,53.45,110.45z"/>
		<path style="fill-rule:evenodd;clip-rule:evenodd;fill:#577820;" d="M54.8,113.8c-0.467-1.066-0.7-2.7-0.7-4.899
			c0-2.233,0.217-3.917,0.65-5.051c1.467,0.5,2.3,2.067,2.5,4.7c0.134,1.9-0.033,3.851-0.5,5.851
			c-0.233-0.034-0.434,0.017-0.6,0.149c-0.167,0.134-0.284,0.217-0.351,0.25L54.8,113.8z"/>
		<path style="fill-rule:evenodd;clip-rule:evenodd;fill:#577820;" d="M60.15,108.8l0.3-1.35c0.1,1.3-0.084,2.616-0.55,3.95
			c-0.301,0.899-0.867,2.083-1.7,3.55c-0.101-1.467-0.066-2.617,0.1-3.45C58.566,110.134,59.184,109.233,60.15,108.8z"/>
	</g>
</g>
</svg>
