<?xml version="1.0" encoding="iso-8859-1"?>
<!-- Generator: Adobe Illustrator 15.1.0, SVG Export Plug-In . SVG Version: 6.00 Build 0)  -->
<!DOCTYPE svg PUBLIC "-//W3C//DTD SVG 1.1//EN" "http://www.w3.org/Graphics/SVG/1.1/DTD/svg11.dtd">
<svg version="1.1" id="FlashAICB" xmlns="http://www.w3.org/2000/svg" xmlns:xlink="http://www.w3.org/1999/xlink" x="0px" y="0px"
	 width="195.9px" height="37px" viewBox="0 0 195.9 37" style="enable-background:new 0 0 195.9 37;" xml:space="preserve">
<g>
	<path style="fill-rule:evenodd;clip-rule:evenodd;fill:#5C691C;" d="M48.2,17c0.2,0.033,0.417,0.25,0.65,0.65l-1.65-0.9L48.2,17z"
		/>
	<path style="fill-rule:evenodd;clip-rule:evenodd;fill:#5C691C;" d="M54.45,19l0.5-1.25l0.05,1.9c0.033,1.333,0.1,2.199,0.2,2.6
		l0.25,1L60.2,24c1.767,0.267,2.85,0.434,3.25,0.5c0.833,0.167,1.75,0.5,2.75,1c-0.167,0.667-0.583,1.167-1.25,1.5
		c-0.2,0.066-0.534,0.267-1,0.6c-1.867-0.966-3.733-1.733-5.6-2.3c-1-0.3-2.117-0.483-3.35-0.55c-0.8-0.033-1.566-0.283-2.3-0.75
		c-0.667-0.434-1.267-0.616-1.8-0.55c-1.566,0.267-3.75,0.333-6.55,0.2c-3.467-0.134-5.45-0.117-5.95,0.05l0.3,0.3h-7
		c-2.067,0-3.534-0.05-4.4-0.15c-0.966-0.133-1.95-0.25-2.95-0.35c-1.267-0.134-2-0.233-2.2-0.3c-0.3-0.134-0.783-0.316-1.45-0.55
		c-0.667-0.2-1.05-0.301-1.15-0.301c-0.333,0-1.066-0.116-2.2-0.35c-1.233-0.267-2.367-0.366-3.4-0.3
		c-1.367,0.066-2.567,0.05-3.6-0.05c-1.967-0.2-2.983-0.301-3.05-0.301C7.033,21.283,6.267,20.934,5,20.3l-4.55-1.2
		c0.767-0.166,1.4-0.25,1.9-0.25c1.333,0,3.05,0.183,5.15,0.55c0.667,0.133,1.35,0.267,2.05,0.399c0.6,0.066,1.617,0.033,3.05-0.1
		c1.133-0.101,2.117-0.283,2.95-0.55c0.534-0.067,1.333,0.1,2.4,0.5c0.9,0.333,1.433,0.5,1.6,0.5c0.067,0,0.434,0.166,1.1,0.5
		c0.934,0.466,2.333,0.866,4.2,1.199c1.667,0.267,3.183,0.4,4.55,0.4c2.333,0,4.333-0.167,6-0.5c0.833-0.167,1.667-0.35,2.5-0.55
		c0.6-0.066,1.434-0.05,2.5,0.05c1.067,0.1,2.45,0.033,4.15-0.2c0.1,0,1.233-0.184,3.4-0.55l1.5-0.25c-0.1-1.066-0.3-1.934-0.6-2.6
		c0.7,0.567,1.15,1.017,1.35,1.35l0.5,0.95V14l2.25,6.5C53.617,20.333,54.117,19.833,54.45,19z"/>
	<path style="fill-rule:evenodd;clip-rule:evenodd;fill:#5C691C;" d="M102.45,30.7c-0.066-0.033,0.1-0.267,0.5-0.7
		c0.533-0.533,1.233-1.017,2.1-1.45L106.2,28c0.333-0.667,0.166-1.333-0.5-2l-1-1h0.75c0.6,0.1,1.1,0.35,1.5,0.75l1,1l0.75-3.5
		l0.2,1.05c0.233,0.767,0.5,1.25,0.8,1.45c0.767,0.5,1.267,0.167,1.5-1c0.1-0.4,0.083-0.8-0.05-1.2c-0.034-0.1,0.066-0.116,0.3-0.05
		c0.5,0.167,0.916,0.75,1.25,1.75c0.333-0.3,0.717-0.583,1.149-0.85c0.834-0.534,1.45-0.75,1.851-0.65
		c0.399,0.1,0.783,0.083,1.149-0.05c0.7-0.267,1.15-0.417,1.351-0.45c0.333-0.066,0.85-0.384,1.55-0.95
		c0.667-0.533,1.316-0.8,1.95-0.8c0.6,0,1.2,0.017,1.8,0.05c0.434,0,0.917-0.1,1.45-0.3c0.267-0.1,0.366-0.283,0.3-0.55
		c-0.033-0.134,0.616-0.2,1.95-0.2c1.3,0,3.267-0.083,5.899-0.25c2.634-0.167,4.167-0.25,4.601-0.25c0.7,0,1.2-0.167,1.5-0.5
		c0.267-0.333,0.25-0.65-0.05-0.95l1.899,0.95c0.434-0.167,0.65-0.667,0.65-1.5v-1l0.5,0.7c0.333,0.566,0.5,1,0.5,1.3v1l3-2.25V20
		l2.399-0.05c1.867,0,3.483,0.1,4.851,0.3c1.399,0.233,2.366,0.333,2.899,0.3c0.367-0.033,1.067-0.133,2.101-0.3
		c0.733-0.066,1.383-0.2,1.95-0.4c0.433-0.166,0.949-0.25,1.55-0.25c0.467,0,1.767-0.1,3.899-0.3c2.134-0.2,3.75-0.3,4.851-0.3h5.5
		l2.75-0.75l-0.5-1.75l2.5,1.75c0.133-0.3,0.283-0.583,0.45-0.85c0.399-0.533,0.75-0.75,1.05-0.65c0.2,0.066,0.467,0.383,0.8,0.95
		c0.267,0.533,0.583,0.8,0.95,0.8c0.333,0,0.399,0.066,0.2,0.2c-0.033,0.033,0.233-0.034,0.8-0.2c1.167-0.333,2.25-0.5,3.25-0.5
		h4.75l0.5,0.15c0.366,0.133,0.717,0.184,1.05,0.15c0.4,0.134,0.884,0.583,1.45,1.351c0.333,0.466,0.233,0.683-0.3,0.649
		c-1.567-0.1-3.25,0.017-5.051,0.351c-2.267,0.433-4.066,0.666-5.399,0.699c-1.5-0.033-2.816-0.05-3.95-0.05
		c-1,0-4.017,0.233-9.05,0.7c-5.566,0.533-9.767,0.866-12.601,1c-3.199,0.134-5.133,0.15-5.8,0.05
		c-0.899-0.267-2.416-0.517-4.55-0.75c-2.633-0.267-4.633-0.399-6-0.399l-1.3,0.1h-6.351c-1.533,0-2.816,0.066-3.85,0.2
		c-1.566,0.2-3.95,0.684-7.15,1.45c-2.333,0.566-3.316,0.85-2.949,0.85c1.1,0,1.199,0.267,0.3,0.8c-1.033,0.634-1.9,0.934-2.601,0.9
		c-1.267-0.101-2.3-0.066-3.1,0.1c-1.467,0.3-2.833,0.733-4.1,1.3c-0.7,0.334-2,1.017-3.9,2.051c-1,0.566-1.417,0.883-1.25,0.949
		c0.5,0.267,0.583,0.834,0.25,1.7c-0.333,0.9-0.533,1.267-0.6,1.101c-0.134-0.5-0.483-0.634-1.051-0.4l-0.8,0.35
		c0.101,0.101-0.083,0.317-0.55,0.65c-0.533,0.434-0.75,1.066-0.65,1.9c0.067,0.399,0.184,0.767,0.351,1.1H102l-0.5-0.05
		c0.2-0.334,0.267-0.65,0.2-0.95c-0.066-0.333-0.267-0.434-0.601-0.3c-0.1,0.033,0.017-0.2,0.351-0.7c0.5-0.667,0.8-1.1,0.899-1.3
		c0.134-0.233,0.25-0.8,0.351-1.7C102.8,31.333,102.717,30.9,102.45,30.7z"/>
	<path style="fill-rule:evenodd;clip-rule:evenodd;fill:#5C691C;" d="M70.45,28.25c0.8,0,1.283,0.017,1.45,0.05
		c0.2,0,0.633,0.066,1.3,0.2c1,0.167,2.25,0.667,3.75,1.5l0.45,0.4c-0.7-0.267-1.05-0.317-1.05-0.15c-0.033,0.267-0.15,0.4-0.35,0.4
		c-0.7,0-2.25-0.217-4.65-0.65L66,29.3c0.567-0.166,0.883-0.333,0.95-0.5c0-0.033,0.25-0.05,0.75-0.05s0.783,0.066,0.85,0.2
		c0.034,0.033,0.25-0.033,0.65-0.2c0.433-0.167,0.583-0.316,0.45-0.45C69.617,28.267,69.883,28.25,70.45,28.25z"/>
	<path style="fill-rule:evenodd;clip-rule:evenodd;fill:#5C691C;" d="M145.4,0.95c0.633,0.2,1.283,0.55,1.949,1.05
		c0.967,0.667,1.034,0.983,0.2,0.95c-1.7-0.2-3.217-0.3-4.55-0.3c-1.6,0-2.333,0.1-2.2,0.3c0.034,0.053,0.067,0.103,0.101,0.15
		c-0.23-0.17-0.548-0.287-0.95-0.35l-2.75-0.5l1.7-0.35c1.399-0.267,2.666-0.4,3.8-0.4C144.134,1.5,145.033,1.316,145.4,0.95z"/>
</g>
<path style="fill-rule:evenodd;clip-rule:evenodd;fill:#645A24;" d="M150.075,22.425c1.577,0.197,2.735,0.406,3.475,0.625
	c0.667,0.101,2.601,0.084,5.8-0.05c2.834-0.134,7.034-0.467,12.601-1c5.033-0.467,8.05-0.7,9.05-0.7c1.134,0,2.45,0.017,3.95,0.05
	c0.506-0.013,1.08-0.054,1.725-0.125c-1.297,0.351-2.206,0.525-2.725,0.525c-0.634,0-1.934,0.134-3.9,0.4
	c-1.967,0.233-3.333,0.35-4.1,0.35c-0.9,0-2.117,0.1-3.65,0.3l-3.85,0.45c-1.033,0.1-3.233,0.134-6.601,0.1
	c-3.6-0.066-5.816-0.1-6.649-0.1c-0.9,0-2.066-0.167-3.5-0.5C151.058,22.609,150.516,22.501,150.075,22.425z M135.35,22h6.351
	l1.3-0.1c1.366,0,3.366,0.133,6,0.399c-0.767,0.066-2.95,0.066-6.55,0C138.684,22.233,136.316,22.134,135.35,22z M148.025,2.9
	c0.101,0.113,0.158,0.23,0.175,0.35c-1,0.333-2.584,0.5-4.75,0.5c-0.877,0-1.585,0.1-2.125,0.3L141.35,4
	c0.034-0.067-0.149-0.417-0.55-1.05c-0.133-0.2,0.601-0.3,2.2-0.3c1.333,0,2.85,0.1,4.55,0.3
	C147.774,2.959,147.933,2.942,148.025,2.9z M63.275,28.475l-0.025,0.051L63.2,28.5L63.275,28.475z M78.7,31
	c-1.2,0.233-1.9,0.35-2.1,0.35c-0.033,0-1.167-0.199-3.4-0.6c-1.708-0.29-3.816-0.731-6.325-1.325L71.35,30
	c2.4,0.434,3.95,0.65,4.65,0.65l0.35-0.45C76.45,30.066,77.233,30.333,78.7,31z M52.475,23.85c-0.576,0.078-1.001,0.129-1.275,0.15
	c-0.733,0.066-1.417,0.267-2.05,0.6C48.617,24.866,47.8,25,46.7,25h-7.25c-5.5,0.167-9.083,0.25-10.75,0.25
	c-1.1,0-3.7-0.384-7.8-1.15c-3.7-0.699-5.85-1.149-6.45-1.35c-0.2-0.066-1.45-0.083-3.75-0.05c-2.233,0.066-3.483,0-3.75-0.2
	l-6.425-3.375L5,20.3c1.267,0.634,2.033,0.983,2.3,1.05c0.067,0,1.083,0.101,3.05,0.301c1.033,0.1,2.233,0.116,3.6,0.05
	c1.033-0.066,2.167,0.033,3.4,0.3c1.133,0.233,1.867,0.35,2.2,0.35c0.1,0,0.483,0.101,1.15,0.301c0.667,0.233,1.15,0.416,1.45,0.55
	c0.2,0.066,0.934,0.166,2.2,0.3c1,0.1,1.983,0.217,2.95,0.35C28.167,23.95,29.633,24,31.7,24h7l-0.3-0.3
	c0.5-0.167,2.483-0.184,5.95-0.05c2.8,0.133,4.983,0.066,6.55-0.2C51.371,23.392,51.896,23.524,52.475,23.85z M104.4,33.675
	c0.132,0.346,0.314,0.87,0.55,1.575c0,0.667-0.417,1.25-1.25,1.75c-0.167-0.333-0.283-0.7-0.351-1.1
	c-0.1-0.834,0.117-1.467,0.65-1.9C104.172,33.877,104.306,33.769,104.4,33.675z M134.675,22c-0.943,0.093-2.386,0.492-4.325,1.2
	c-2.433,0.967-3.816,1.483-4.149,1.55c-1.334,0.333-2.417,0.667-3.25,1c-0.4,0.167-0.8,0.483-1.2,0.95
	c-0.333,0.366-0.684,0.55-1.05,0.55c-0.5,0-1.934,0.233-4.3,0.7c-2.4,0.467-3.967,0.816-4.7,1.05c-0.634,0.2-1.283,0.684-1.95,1.45
	c-0.333,0.366-0.6,0.717-0.8,1.05l-1,0.95c-0.409,0.268-0.817,0.45-1.226,0.55c0.078-0.181,0.17-0.414,0.275-0.7
	c0.333-0.866,0.25-1.434-0.25-1.7c-0.167-0.066,0.25-0.383,1.25-0.949c1.9-1.034,3.2-1.717,3.9-2.051c1.267-0.566,2.633-1,4.1-1.3
	c0.8-0.166,1.833-0.2,3.1-0.1c0.7,0.033,1.567-0.267,2.601-0.9c0.899-0.533,0.8-0.8-0.3-0.8c-0.367,0,0.616-0.283,2.949-0.85
	c3.2-0.767,5.584-1.25,7.15-1.45C132.38,22.087,133.438,22.02,134.675,22z"/>
<path style="fill-rule:evenodd;clip-rule:evenodd;fill:#65731D;" d="M150.075,22.425c-0.487-0.083-0.846-0.125-1.075-0.125
	c-2.634-0.267-4.634-0.399-6-0.399l-1.3,0.1h-6.351c-0.185-0.021-0.41-0.021-0.675,0c-1.236,0.02-2.295,0.087-3.175,0.2
	c-1.566,0.2-3.95,0.684-7.15,1.45c-2.333,0.566-3.316,0.85-2.949,0.85c1.1,0,1.199,0.267,0.3,0.8c-1.033,0.634-1.9,0.934-2.601,0.9
	c-1.267-0.101-2.3-0.066-3.1,0.1c-1.467,0.3-2.833,0.733-4.1,1.3c-0.7,0.334-2,1.017-3.9,2.051c-1,0.566-1.417,0.883-1.25,0.949
	c0.5,0.267,0.583,0.834,0.25,1.7c-0.105,0.286-0.197,0.52-0.275,0.7c-0.171,0.38-0.279,0.514-0.324,0.4
	c-0.037-0.138-0.087-0.246-0.15-0.325c-0.303,0.019-0.604-0.007-0.9-0.075l-0.8,0.35c0.063,0.063,0.014,0.172-0.149,0.325
	c-0.095,0.094-0.229,0.202-0.4,0.325c-0.533,0.434-0.75,1.066-0.65,1.9c0.067,0.399,0.184,0.767,0.351,1.1H102
	c-0.7,0-1.45-0.134-2.25-0.4L98.7,36.15c-1.566-0.101-4.017-0.601-7.35-1.5L88.9,34c0.1,0.1-0.633-0.017-2.2-0.35l-1.95-0.4
	C85.05,33.283,84.8,33.2,84,33c-1.267-0.333-2.017-0.55-2.25-0.65c-0.133-0.033-1.15-0.483-3.05-1.35
	c-1.467-0.667-2.25-0.934-2.35-0.8L76,30.65c-0.7,0-2.25-0.217-4.65-0.65l-4.475-0.575L66,29.3c-1.936-0.234-2.853-0.493-2.75-0.774
	l0.025-0.051c0.015-0.022,0.04-0.048,0.075-0.074L64.7,28c-2-1.134-4.117-2.033-6.35-2.7c-1-0.3-2.117-0.483-3.35-0.55
	c-0.8-0.033-1.567-0.283-2.3-0.75c-0.078-0.051-0.153-0.101-0.225-0.15c-0.579-0.325-1.104-0.458-1.575-0.399
	c-1.566,0.267-3.75,0.333-6.55,0.2c-3.467-0.134-5.45-0.117-5.95,0.05l0.3,0.3h-7c-2.067,0-3.534-0.05-4.4-0.15
	c-0.966-0.133-1.95-0.25-2.95-0.35c-1.267-0.134-2-0.233-2.2-0.3c-0.3-0.134-0.783-0.316-1.45-0.55
	c-0.667-0.2-1.05-0.301-1.15-0.301c-0.333,0-1.066-0.116-2.2-0.35c-1.233-0.267-2.367-0.366-3.4-0.3
	c-1.367,0.066-2.567,0.05-3.6-0.05c-1.967-0.2-2.983-0.301-3.05-0.301C7.033,21.283,6.267,20.934,5,20.3l-4.475-1.175L0,19l1.25-0.6
	c0.9-0.467,2.483-1.167,4.75-2.1c1.567-0.667,4.617-1.4,9.15-2.2c5.033-0.9,7.65-1.383,7.85-1.45c0.8-0.233,1.783-0.6,2.95-1.1
	c1.066-0.466,1.867-0.767,2.4-0.9c0.467-0.1,1.333-0.417,2.6-0.95c1.1-0.467,1.9-0.7,2.4-0.7c0.566,0,0.85-0.217,0.85-0.65L34,7.65
	l2-2l-1.65-1L37,4l5.7-2.35c0.333-0.1,1-0.15,2-0.15s1.667-0.067,2-0.2c0.367-0.1,1.133-0.133,2.3-0.1c2.233,0.066,3.9,0.1,5,0.1
	c1.767,0,3.95,0.167,6.55,0.5c2.6,0.333,4.2,0.5,4.8,0.5c2.9,0,5.117,0.117,6.65,0.35c2.433,0.367,4.217,0.917,5.35,1.65
	c0.4,0.3,0.867,0.383,1.4,0.25c0.333-0.1,0.983-0.283,1.95-0.55c1.1-0.233,2.316-0.35,3.65-0.35c0.2,0,0.95-0.066,2.25-0.2
	c1.667-0.167,3.6-0.3,5.8-0.4c2-0.133,3.333-0.183,4-0.15c0.2,0,0.55-0.05,1.05-0.15c1.1-0.2,3.783-0.7,8.05-1.5
	c2.6-0.433,4.6-0.65,6-0.65c0.866,0,2.033,0.066,3.5,0.2c1.8,0.1,4.467-0.066,8-0.5l1.75-0.15C126.217,0.05,127.634,0,129,0
	c1.8,0,3.583,0.1,5.35,0.3c1.767,0.233,3.983,0.35,6.65,0.35c2,0,3.1,0.017,3.3,0.05c1,0.133,2.017,0.566,3.05,1.3
	c0.707,0.487,0.932,0.787,0.676,0.9c-0.093,0.042-0.251,0.059-0.476,0.05c-1.7-0.2-3.217-0.3-4.55-0.3c-1.6,0-2.333,0.1-2.2,0.3
	c0.4,0.633,0.584,0.983,0.55,1.05l-0.024,0.05c-0.045,0.412,1.047,0.746,3.274,1c1.767,0.167,3.684,0.25,5.75,0.25
	c1.4,0,2.4,0.117,3,0.35c0.434,0.167,1.101,0.617,2,1.35l1.351,0.35c1.1,0.3,2.2,0.517,3.3,0.65c1.8,0.2,4.25,0.633,7.35,1.3
	c1.334,0.233,3.667,1.133,7,2.7l1.351,0.65c1.066,0.533,3.066,1.083,6,1.65c2.2,0.467,3.083,0.8,2.649,1l3.45,1.2
	c2.434,0.867,4.066,1.367,4.9,1.5c1,0.167,1.633,0.317,1.899,0.45c0.233,0.133,0.601,0.533,1.101,1.2
	c0.333,0.466,0.233,0.683-0.3,0.649c-0.531-0.033-1.073-0.042-1.625-0.024c-1.516,0.418-2.657,0.543-3.426,0.375
	c-1.407,0.269-2.632,0.46-3.675,0.574c-0.645,0.071-1.219,0.112-1.725,0.125c-1.5-0.033-2.816-0.05-3.95-0.05
	c-1,0-4.017,0.233-9.05,0.7c-5.566,0.533-9.767,0.866-12.601,1c-3.199,0.134-5.133,0.15-5.8,0.05
	C152.811,22.831,151.652,22.622,150.075,22.425z M158.7,14.5c0.1-0.3,0.383-0.817,0.85-1.55L160.2,12l-1.25,0.75
	c-0.834,0.5-1.584,1-2.25,1.5l-1-2.5l-0.5,2.5l-1-0.75c-0.4-0.3-0.983-0.517-1.75-0.65l-1-0.1l2,2.5c0.467-0.1,1.083,0,1.85,0.3
	c0.834,0.3,1.384,0.45,1.65,0.45c0.666,0,1.166-0.25,1.5-0.75L158.7,14.5z M135.45,11c-1.667-0.167-2.95,0.083-3.851,0.75
	c-0.966,0.667-1.017,1-0.149,1c0.434,0,1.217,0.033,2.35,0.1c1.134,0.033,2.101,0,2.9-0.1c1.066-0.133,1.483-0.417,1.25-0.85
	C137.717,11.433,136.884,11.133,135.45,11z M132.95,6.5c1.1,0,2.149-0.183,3.149-0.55c1.034-0.4,0.567-0.717-1.399-0.95
	c-0.834-0.1-1.533,0.133-2.101,0.7C132.033,6.233,132.15,6.5,132.95,6.5z M113.7,11.25c0-0.3-0.367-0.067-1.101,0.7
	c-0.399,0.4-0.783,0.833-1.149,1.3l-0.5-3.75L110.2,11c-0.5,1-0.667,1.767-0.5,2.3l-3.25-0.45L106.6,13
	c0.167,0.133,0.45,0.3,0.851,0.5c0.666,0.333,1.333,0.833,2,1.5h3.75l0.25-1.25C113.616,13.083,113.7,12.25,113.7,11.25z M95,5.75
	C93.967,6.283,93.95,6.7,94.95,7c2.434,0.7,4.184,0.867,5.25,0.5c1.767-0.4,2.866-0.75,3.3-1.05c0.833-0.467-0.434-0.867-3.8-1.2
	C97.634,5.05,96.067,5.217,95,5.75z M85.45,22.05l1.05,0.8c0.667,0.5,1.1,1.384,1.3,2.65l3.15,0.5l0.75-1v-3.5L89.8,23l0.15-3.75
	l-1.25,2.5c-0.434,0.866-0.65,1.467-0.65,1.8L85.45,22.05z M71.95,8.75c-1.034,0-1.784,0.133-2.25,0.4
	c-0.434,0.267-0.434,0.467,0,0.6c0.5,0.167,1.5,0.25,3,0.25L71.95,8.75z M75.2,10.2c0.267,0.033,0.933,0.05,2,0.05
	c0.767,0,1.816,0.083,3.15,0.25c1.033,0.067,1.65-0.1,1.85-0.5c0.2-0.4-0.534-0.733-2.2-1l-2.55-0.25c-1.5,0-2.65,0.183-3.45,0.55
	c-0.733,0.333-0.75,0.567-0.05,0.7C74.617,10.133,75.033,10.2,75.2,10.2z M62.7,19.25c0.7,0.366,1.833,0.616,3.4,0.75
	c1.4,0.134,2.517,0.134,3.35,0c1.2-0.2,1.683-0.483,1.45-0.85c-0.333-0.5-2.233-0.967-5.7-1.4c-0.733-0.1-1.5,0.033-2.3,0.4
	C62.067,18.55,62,18.917,62.7,19.25z M47.15,4.6l-0.6-1.35L46.4,5c-0.167,1.167-0.25,2-0.25,2.5L45.4,6.75
	c-0.3-0.3-0.816-0.483-1.55-0.55L42.9,6.25l0.95,0.25c0.667,0.167,1.066,0.667,1.2,1.5c0.934,0.167,1.817,0.5,2.65,1V7.25
	C47.7,6.517,47.517,5.633,47.15,4.6z M30.1,14.6c0.967,0.467,1.5,0.85,1.6,1.15l0.25,0.75l1.3,0.2c1,0.066,1.817,0,2.45-0.2
	c0.466-0.167,0.65-0.617,0.55-1.35s0.167-1.167,0.8-1.3c1.4-0.267,0.467-0.7-2.8-1.3l0.95,2.1c-1.5-0.433-3-0.65-4.5-0.65h-2
	L30.1,14.6z"/>
<path style="fill-rule:evenodd;clip-rule:evenodd;fill:#5C691C;" d="M158.7,14.5l-0.25,0.75c-0.334,0.5-0.834,0.75-1.5,0.75
	c-0.267,0-0.816-0.15-1.65-0.45c-0.767-0.3-1.383-0.4-1.85-0.3l-2-2.5l1,0.1c0.767,0.133,1.35,0.35,1.75,0.65l1,0.75l0.5-2.5l1,2.5
	c0.666-0.5,1.416-1,2.25-1.5L160.2,12l-0.65,0.95C159.083,13.683,158.8,14.2,158.7,14.5z M132.95,6.5c-0.8,0-0.917-0.267-0.351-0.8
	c0.567-0.567,1.267-0.8,2.101-0.7c1.967,0.233,2.434,0.55,1.399,0.95C135.1,6.317,134.05,6.5,132.95,6.5z M135.45,11
	c1.434,0.133,2.267,0.433,2.5,0.9c0.233,0.434-0.184,0.717-1.25,0.85c-0.8,0.1-1.767,0.133-2.9,0.1c-1.133-0.067-1.916-0.1-2.35-0.1
	c-0.867,0-0.816-0.333,0.149-1C132.5,11.083,133.783,10.833,135.45,11z M113.7,11.25c0,1-0.084,1.833-0.25,2.5L113.2,15h-3.75
	c-0.667-0.667-1.334-1.167-2-1.5c-0.4-0.2-0.684-0.367-0.851-0.5l-0.149-0.15l3.25,0.45c-0.167-0.533,0-1.3,0.5-2.3l0.75-1.5
	l0.5,3.75c0.366-0.467,0.75-0.9,1.149-1.3C113.333,11.183,113.7,10.95,113.7,11.25z M95,5.75c1.067-0.533,2.634-0.7,4.7-0.5
	c3.366,0.333,4.633,0.733,3.8,1.2c-0.434,0.3-1.533,0.65-3.3,1.05c-1.066,0.367-2.816,0.2-5.25-0.5C93.95,6.7,93.967,6.283,95,5.75z
	 M85.45,22.05l2.6,1.5c0-0.333,0.217-0.934,0.65-1.8l1.25-2.5L89.8,23l1.9-1.5V25l-0.75,1l-3.15-0.5c-0.2-1.267-0.633-2.15-1.3-2.65
	L85.45,22.05z M62.7,19.25c-0.7-0.333-0.633-0.7,0.2-1.1c0.8-0.367,1.567-0.5,2.3-0.4c3.466,0.433,5.367,0.9,5.7,1.4
	c0.233,0.366-0.25,0.649-1.45,0.85c-0.833,0.134-1.95,0.134-3.35,0C64.533,19.866,63.4,19.616,62.7,19.25z M75.2,10.2
	c-0.167,0-0.583-0.067-1.25-0.2c-0.7-0.133-0.684-0.367,0.05-0.7c0.8-0.367,1.95-0.55,3.45-0.55L80,9c1.667,0.267,2.4,0.6,2.2,1
	c-0.2,0.4-0.817,0.567-1.85,0.5c-1.333-0.167-2.383-0.25-3.15-0.25C76.133,10.25,75.467,10.233,75.2,10.2z M71.95,8.75L72.7,10
	c-1.5,0-2.5-0.083-3-0.25c-0.434-0.133-0.434-0.333,0-0.6C70.167,8.883,70.917,8.75,71.95,8.75z M47.15,4.6
	c0.367,1.033,0.55,1.917,0.55,2.65V9c-0.833-0.5-1.717-0.833-2.65-1c-0.133-0.833-0.533-1.333-1.2-1.5L42.9,6.25l0.95-0.05
	c0.733,0.066,1.25,0.25,1.55,0.55l0.75,0.75c0-0.5,0.083-1.333,0.25-2.5l0.15-1.75L47.15,4.6z M30.1,14.6L28.7,14h2
	c1.5,0,3,0.217,4.5,0.65l-0.95-2.1c3.267,0.6,4.2,1.034,2.8,1.3c-0.633,0.133-0.9,0.566-0.8,1.3s-0.083,1.184-0.55,1.35
	c-0.633,0.2-1.45,0.267-2.45,0.2l-1.3-0.2l-0.25-0.75C31.6,15.45,31.067,15.067,30.1,14.6z"/>
</svg>
