<?xml version="1.0" encoding="iso-8859-1"?>
<!-- Generator: Adobe Illustrator 15.1.0, SVG Export Plug-In . SVG Version: 6.00 Build 0)  -->
<!DOCTYPE svg PUBLIC "-//W3C//DTD SVG 1.1//EN" "http://www.w3.org/Graphics/SVG/1.1/DTD/svg11.dtd">
<svg version="1.1" id="FlashAICB" xmlns="http://www.w3.org/2000/svg" xmlns:xlink="http://www.w3.org/1999/xlink" x="0px" y="0px"
	 width="128.3px" height="64.1px" viewBox="0 0 128.3 64.1" style="enable-background:new 0 0 128.3 64.1;" xml:space="preserve">
<symbol  id="FlashAICB_x2F_Layer_9_x2F__x3C_Path_x3E_" viewBox="0 -19.502 79.3 19.511">
	<g id="Layer_1_4_">
		<path style="fill-rule:evenodd;clip-rule:evenodd;fill:#FFC996;" d="M75.2-5.75l0.5-0.35c0.066-0.033,0.25-0.066,0.55-0.1
			c0.233-0.066,0.233-0.117,0-0.15c-0.333-0.066-0.067-0.2,0.8-0.4c1.167-0.3,1.917-0.583,2.25-0.85
			c-0.133-0.367-0.367-0.617-0.7-0.75c-0.5-0.2-0.817-0.35-0.95-0.45c-0.667-0.534-1.133-1.017-1.4-1.45
			c-0.1-0.2-0.367-0.467-0.8-0.8c-0.467-0.4-0.767-0.65-0.9-0.75c-0.7-0.7-1.3-1.233-1.8-1.6c-1-0.633-1.7-1.1-2.1-1.4
			c-0.233-0.2-0.583-0.383-1.05-0.55c-0.4-0.133-0.717-0.35-0.95-0.65c-0.333-0.367-0.717-0.6-1.15-0.7
			c-0.567-0.066-1.067-0.167-1.5-0.3c-0.9-0.267-1.7-0.45-2.4-0.55c-1.533-0.467-3.467-0.75-5.8-0.85
			c-2.667-0.033-4.667-0.067-6-0.1h-4.05l-0.3-0.1c-1.133-0.066-3.133-0.233-6-0.5c-2.534-0.233-4.534-0.367-6-0.4
			c-2.333-0.033-5.034,0.35-8.1,1.15c-3.533,1.067-6.167,1.867-7.9,2.4c-1.9,0.567-4.15,1.067-6.75,1.5
			c-3.034,0.434-5.333,0.767-6.9,1c-2,0.333-3.933,0.833-5.8,1.5c1.667,0.6,3.183,1.35,4.55,2.25C5.65-9.033,6.1-8.017,5.9-6.65
			c1.8,0.733,3.2,1.383,4.2,1.95c3.1,1.633,6.133,2.817,9.1,3.55c2.966,0.733,6.2,1.117,9.7,1.15
			c7.633,0.067,17.083-0.25,28.35-0.95c1.8-0.3,3.583-0.716,5.35-1.25c0.767-0.233,2.05-0.566,3.85-1l1.5-0.05
			c0.566,0.033,1.117-0.1,1.65-0.4c0.3-0.2,0.75-0.5,1.35-0.9l0.65-0.2c0.167-0.033,0.483-0.067,0.95-0.1
			c0.367,0,0.667-0.05,0.9-0.15C74.583-5.467,75.167-5.717,75.2-5.75z"/>
	</g>
</symbol>
<symbol  id="FlashAICB_x2F_Layer_9_x2F__x3C_Path_x3E__x5F_1" viewBox="0 -26.083 92.75 26.106">
	<g id="Layer_1_3_">
		<path style="fill-rule:evenodd;clip-rule:evenodd;fill:#17130D;" d="M91.5-11.1c0.433-0.1,0.85-0.316,1.25-0.65
			c-0.133-0.4-0.367-0.7-0.7-0.9c-0.433-0.2-0.767-0.383-1-0.55c-0.2-0.2-0.35-0.433-0.45-0.7c-0.167-0.367-0.283-0.6-0.35-0.7
			c-0.2-0.367-0.617-0.816-1.25-1.35c-0.267-0.267-0.75-0.55-1.45-0.85c-0.733-0.3-1.216-0.534-1.45-0.7
			c-0.167-0.133-0.417-0.433-0.75-0.9c-0.333-0.434-0.6-0.733-0.8-0.9c-0.233-0.2-0.65-0.383-1.25-0.55
			c-0.5-0.133-0.883-0.35-1.15-0.65c-0.4-0.533-0.683-0.883-0.85-1.05c-0.233-0.2-0.633-0.383-1.2-0.55
			c-0.867-0.267-1.7-0.45-2.5-0.55c-1.567-0.5-3.583-0.8-6.05-0.9c-2.8-0.034-4.9-0.083-6.3-0.15c-0.9-0.033-2.317-0.017-4.25,0.05
			l-1.65-0.65c-1.3-0.6-2.7-0.9-4.2-0.9c-1.633,0.1-3,0.15-4.1,0.15l-2.7-0.6v-0.05l-2.9-0.25c-2.934-0.267-5.184-0.133-6.75,0.4
			c-1.967,0.566-3.35,0.85-4.15,0.85c-1.2,0-2.066,0.05-2.6,0.15c-0.333,0.066-0.733,0.216-1.2,0.45
			c-0.467,0.267-0.833,0.467-1.1,0.6l-3.55,0.4c-2.1-0.066-3.517-0.033-4.25,0.1c-1.367,0.033-2.35,0.117-2.95,0.25
			c-0.167,0.067-0.5,0.217-1,0.45c-0.4,0.2-0.8,0.316-1.2,0.35c-0.667,0.034-1.1,0.083-1.3,0.15l-0.45,0.3L12-21
			c-1.367,0.233-2.3,0.4-2.8,0.5c-0.867,0.233-1.633,0.55-2.3,0.95c-0.533,0.133-0.933,0.25-1.2,0.35c-0.5,0.133-0.9,0.3-1.2,0.5
			c-0.133,0.1-0.35,0.317-0.65,0.65c-0.233,0.3-0.45,0.5-0.65,0.6c-0.133,0.067-0.383,0.117-0.75,0.15
			c-0.3,0.033-0.517,0.083-0.65,0.15c-0.3,0.333-0.483,0.517-0.55,0.55C1.083-16.5,0.667-16.3,0-16c0.233,0.1,0.467,0.267,0.7,0.5
			C1-15.233,1.217-15.067,1.35-15c0.033,0,0.483,0.183,1.35,0.55l0.45,0.2l1.1,0.7c2,1.333,3.533,2.283,4.6,2.85
			c0.333,0.2,0.833,0.4,1.5,0.6c0.733,0.233,1.233,0.417,1.5,0.55c0.533,0.3,1.15,0.733,1.85,1.3c0.233,0.167,0.55,0.483,0.95,0.95
			c0.367,0.466,0.7,0.783,1,0.95C15.95-6.183,16.433-6,17.1-5.8l1.3,0.7c0.2,0.533,0.733,1.017,1.6,1.45
			c1.533,0.8,3.317,1.183,5.35,1.15h0.9c2,0.367,4.383,0.65,7.15,0.85c1.567,0.133,3.85,0.267,6.85,0.4l2.7,0.2
			c0.566,0.167,1.333,0.433,2.3,0.8c0.8,0.233,1.6,0.317,2.4,0.25c0.033,0,0.517-0.117,1.45-0.35c0.467-0.1,1.417-0.15,2.85-0.15
			c1.2,0,1.95-0.067,2.25-0.2c0.1-0.033,0.3-0.2,0.6-0.5l0.75-0.2c0.2-0.033,0.55-0.05,1.05-0.05c0.767-0.033,1.85-0.466,3.25-1.3
			c1.367-0.767,2.467-1.15,3.3-1.15c0.267,0,0.7,0.017,1.3,0.05c0.533,0.033,0.966,0.017,1.3-0.05c0.4-0.067,0.933-0.3,1.6-0.7
			c2.967-0.333,6.033-0.95,9.2-1.85c0.5-0.167,1.85-0.533,4.05-1.1c0.533-0.034,1.066-0.034,1.6,0c0.6,0.033,1.167-0.117,1.7-0.45
			c0.3-0.2,0.767-0.517,1.4-0.95L86-9.2c0.067,0,0.383-0.017,0.95-0.05c0.4,0,0.716-0.067,0.95-0.2
			c0.434-0.167,0.934-0.517,1.5-1.05l0.75-0.35C90.517-10.95,90.967-11.033,91.5-11.1z"/>
	</g>
</symbol>
<symbol  id="FlashAICB_x2F_Layer_9_x2F__x3C_Path_x3E__x5F_2" viewBox="0 -28.5 103.6 28.506">
	<g id="Layer_1_2_">
		<path style="fill-rule:evenodd;clip-rule:evenodd;fill:#29180D;" d="M101.55-11.85c1.067-0.133,1.75-0.267,2.05-0.4
			c-0.333-0.233-0.967-0.517-1.9-0.85c-0.833-0.333-1.45-0.667-1.85-1c-0.833-0.767-1.383-1.45-1.65-2.05
			c-0.1-0.233-0.184-0.6-0.25-1.1c-0.2-0.3-0.434-0.5-0.7-0.6c-0.367-0.1-0.667-0.2-0.9-0.3c-0.067-0.033-0.317-0.184-0.75-0.45
			c-1.067-0.8-1.85-1.5-2.35-2.1c-0.667-0.733-1.25-1.25-1.75-1.55c-0.333-0.167-0.817-0.317-1.45-0.45
			c-0.767-0.133-1.25-0.233-1.45-0.3l-0.5-0.2l-0.4-0.3c-0.067-0.067-0.317-0.367-0.75-0.9c-0.267-0.3-0.6-0.517-1-0.65
			c-0.333-0.067-0.817-0.1-1.45-0.1c-0.7,0.033-1.2,0.05-1.5,0.05c-0.933,0.1-1.9,0.067-2.9-0.1c-0.667-0.066-1.533-0.066-2.6,0
			c-1.567,0.133-2.417,0.2-2.55,0.2c-0.3,0.033-0.667-0.017-1.1-0.15c-0.5-0.133-0.867-0.2-1.1-0.2s-0.967,0.117-2.2,0.35h-2.3
			c-0.233-0.067-0.4-0.167-0.5-0.3c-0.1-0.467-0.2-0.767-0.3-0.9c-0.434-0.7-1.567-1.083-3.4-1.15c-0.333,0-1.083,0.05-2.25,0.15
			c-0.867,0.1-1.6,0.1-2.2,0c-0.367-0.066-0.9-0.066-1.6,0c-0.7,0.034-1.217,0.034-1.55,0c-0.3-0.033-0.7-0.15-1.2-0.35
			C54.817-27.717,54.4-27.8,54-27.8c-1.3,0-2.167-0.05-2.6-0.15c-0.633-0.267-1.15-0.417-1.55-0.45c-1.4-0.2-2.5-0.1-3.3,0.3
			c-0.566,0.3-0.883,0.45-0.95,0.45c-0.033,0-0.317-0.05-0.85-0.15c-1.933-0.3-3.083-0.417-3.45-0.35
			c-0.833,0.233-1.533,0.35-2.1,0.35c-0.267-0.034-0.483-0.05-0.65-0.05c-0.267,0-0.466,0.05-0.6,0.15c-0.133,0.1-0.2,0.267-0.2,0.5
			c-0.033,0.267-0.083,0.434-0.15,0.5c-0.3,0.267-1.333,0.367-3.1,0.3c-1.633-0.033-2.533,0.15-2.7,0.55
			c-1.3-0.1-2.216-0.083-2.75,0.05c-0.267,0.066-0.533,0.183-0.8,0.35c-0.5,0.3-0.767,0.467-0.8,0.5
			c-0.434,0.233-1.117,0.4-2.05,0.5c-1.066,0.1-1.816,0.184-2.25,0.25c-0.267,0.034-1.467,0.067-3.6,0.1c-1.4,0-2.55,0.25-3.45,0.75
			c-0.2,0.1-0.833,0.317-1.9,0.65c-0.233,0.067-0.6,0.317-1.1,0.75c-1.067,0.167-1.867,0.35-2.4,0.55
			c-1.4,0.066-2.383,0.283-2.95,0.65c-0.233,0.167-0.417,0.367-0.55,0.6L6.55-19.8c-0.167,0.133-0.4,0.367-0.7,0.7
			c-0.3,0.3-0.55,0.5-0.75,0.6c-0.133,0.067-0.383,0.117-0.75,0.15s-0.617,0.1-0.75,0.2l-0.4,0.4c-0.867,0.033-1.417,0.067-1.65,0.1
			C0.917-17.517,0.4-17.267,0-16.9l1.4,0.3c0.367,0.267,0.7,0.45,1,0.55c0.167,0.066,0.417,0.133,0.75,0.2
			c0.167,0.1,0.4,0.2,0.7,0.3c0.367,0.1,0.6,0.167,0.7,0.2l0.35,0.2c0.1,0.133,0.233,0.5,0.4,1.1c0.133,0.5,0.317,0.867,0.55,1.1
			c0.566,0.467,1.367,0.817,2.4,1.05c0.633,0.133,1.567,0.283,2.8,0.45l0.1,0.05l1.5,0.6c0.1,0.2,0.283,0.383,0.55,0.55
			c0.3,0.267,0.5,0.45,0.6,0.55c0.3,0.3,0.434,0.534,0.4,0.7c-0.067,0.267-0.067,0.483,0,0.65c0.167,0.5,0.733,0.85,1.7,1.05
			c0.533,0.133,1.367,0.267,2.5,0.4l0.45,0.25c0.066,0.2,0.283,0.483,0.65,0.85c0.433,0.466,1.233,1.066,2.4,1.8
			c0.567,0.367,1.4,0.55,2.5,0.55c1.3,0.434,2.7,0.65,4.2,0.65c0.933,0.4,1.65,0.667,2.15,0.8c0.833,0.167,1.817,0.233,2.95,0.2
			c0.633,0,1.6-0.05,2.9-0.15c1.9,0.133,3.25,0.217,4.05,0.25c1.467,0.2,2.533,0.383,3.2,0.55c0.233,0.033,0.6,0.15,1.1,0.35
			c0.466,0.133,0.833,0.216,1.1,0.25c0.767,0.1,1.95,0.066,3.55-0.1c1.033,0.367,2.117,0.533,3.25,0.5l0.8-0.15
			c1.667,0.233,3.067,0.333,4.2,0.3c0.633-0.033,1.483-0.067,2.55-0.1c0.9-0.1,1.684-0.383,2.35-0.85
			c0.167-0.1,0.617-0.483,1.35-1.15c0.2-0.1,0.65-0.333,1.35-0.7c0.133,0,0.433,0.05,0.9,0.15c0.367,0.066,0.65,0.066,0.85,0
			c0.133-0.067,0.3-0.233,0.5-0.5c0.2-0.267,0.383-0.434,0.55-0.5c0.233-0.1,0.517-0.167,0.85-0.2c0.4,0,0.667-0.017,0.8-0.05
			l3.25-0.35c0.5-0.067,1.1-0.283,1.8-0.65c0.333-0.1,0.883-0.184,1.65-0.25l1.65-0.5l1.15-0.2l0.15-0.05
			c0.133,0,0.55,0.017,1.25,0.05C81.333-5.783,81.733-5.8,82-5.9c0.233-0.067,0.467-0.217,0.7-0.45c0.3-0.233,0.517-0.383,0.65-0.45
			l0.2-0.1c0.333-0.033,0.883,0.017,1.65,0.15c1.833,0.067,3.25-0.383,4.25-1.35h0.45l0.8-0.1c0.566,0.067,1.65-0.15,3.25-0.65
			c0.933-0.267,2.4-0.633,4.4-1.1c0.8-0.133,1.25-0.267,1.35-0.4c0.066-0.066,0.1-0.2,0.1-0.4s0.017-0.317,0.05-0.35
			C100.183-11.467,100.75-11.717,101.55-11.85z"/>
	</g>
</symbol>
<g>
	
		<use xlink:href="#FlashAICB_x2F_Layer_9_x2F__x3C_Path_x3E__x5F_2"  width="103.6" height="28.506" y="-28.5" transform="matrix(1 0 0 -1 13.6001 35.75)" style="overflow:visible;opacity:0.2109;enable-background:new    ;"/>
	
		<use xlink:href="#FlashAICB_x2F_Layer_9_x2F__x3C_Path_x3E__x5F_1"  width="92.75" height="26.106" y="-26.083" transform="matrix(1 0 0 -1 18.8999 36.2998)" style="overflow:visible;opacity:0.1484;enable-background:new    ;"/>
	
		<use xlink:href="#FlashAICB_x2F_Layer_9_x2F__x3C_Path_x3E_"  width="79.3" height="19.511" y="-19.502" transform="matrix(1 0 0 -1 29.25 40.25)" style="overflow:visible;opacity:0.1484;enable-background:new    ;"/>
	<g>
		<path style="fill-rule:evenodd;clip-rule:evenodd;fill:#57432C;" d="M31.9,47.6c0.567-0.366,1.267-0.966,2.1-1.8
			c1-1,1.684-1.666,2.05-2c2.667-2.3,6.333-3.866,11-4.7c2.1-0.366,6.083-0.683,11.95-0.949c1.3-0.067,3.4-0.25,6.3-0.551
			c2.601-0.199,4.684-0.1,6.25,0.301c0.8,0.199,2.101,0.783,3.9,1.75c1.5,0.8,2.85,1.217,4.05,1.25c3.967,0.1,7.967,0.717,12,1.85
			c0.9,0.267,2.45,0.684,4.65,1.25c2.267,0.634,4.467,1.384,6.6,2.25c2.167,0.9,2.017,2.384-0.45,4.45
			c-3.1,2.1-4.816,3.316-5.149,3.649c-1.768,1.834-4.217,2.967-7.351,3.4c-0.233,0.033-3.05,0.15-8.45,0.35
			c-1.933,0-3.399-0.017-4.399-0.05c-1.8,0-3.25,0.117-4.351,0.351c-2.533,0.666-4.449,1.116-5.75,1.35
			c-2.199,0.434-4.166,0.517-5.899,0.25c-0.934-0.133-3-0.517-6.2-1.15c-2.6-0.533-4.7-0.866-6.3-1c-2.267-0.199-7.2-0.899-14.8-2.1
			c-1.533-0.233-2.583-0.45-3.15-0.65c-0.934-0.3-1.816-0.833-2.65-1.6c-0.7-0.566-1.133-1.017-1.3-1.35
			c-0.267-0.533-0.217-1.167,0.15-1.9c0.366-0.667,1.167-1.2,2.4-1.6C30.767,48.083,31.7,47.733,31.9,47.6z"/>
		<g>
			<path style="fill-rule:evenodd;clip-rule:evenodd;fill:#614B31;" d="M91,42.85l-0.45-0.35l0.95,0.25
				c0.9,0.267,2.45,0.684,4.65,1.25c2.267,0.634,4.467,1.384,6.6,2.25c2.167,0.9,2.017,2.384-0.45,4.45
				c-3.1,2.1-4.816,3.316-5.149,3.649c-0.667,0.7-1.434,1.301-2.301,1.801c-0.866-0.4-1.55-0.834-2.05-1.301
				c-1.899-1.566-2.467-3.25-1.7-5.05c0.134-0.3,0.768-1,1.9-2.1c0.8-0.767,1.1-1.617,0.9-2.55c-0.134-0.533-0.533-0.983-1.2-1.351
				C91.667,43.267,91.1,42.95,91,42.85z"/>
			<path style="fill-rule:evenodd;clip-rule:evenodd;fill:#6B5336;" d="M71.95,39.1c0-0.3-0.101-0.683-0.3-1.149
				c0.8,0.233,1.767,0.633,2.899,1.2c1.233,0.666,2.101,1.083,2.601,1.25l0.3,0.899c0.2,1.233-0.05,2.317-0.75,3.25
				c-0.3,0.367-0.567,0.601-0.8,0.7c-0.2,0.1-0.567,0.117-1.101,0.05c-0.533-0.066-1.017-0.3-1.45-0.7
				c-0.3-0.232-0.683-0.666-1.149-1.3c-0.601-0.767-0.817-1.467-0.65-2.1C71.816,40.1,71.95,39.4,71.95,39.1z"/>
		</g>
		<g>
			<path style="fill-rule:evenodd;clip-rule:evenodd;fill:#54412B;" d="M35.1,44.65l-0.55,1.05c-0.133,0.3-0.333,0.633-0.6,1
				c-0.1,0.3,0,0.7,0.3,1.2c0.434,0.666,1.184,0.933,2.25,0.8l-1.05,2.149c-2.4,0.834-4.2,1.45-5.4,1.851
				c-2.133,0.667-3.283,0.316-3.45-1.05h-0.2c-0.067-0.467,0.034-0.934,0.3-1.4c0.366-0.667,1.167-1.2,2.4-1.6
				c1.667-0.567,2.6-0.917,2.8-1.051c0.5-0.3,1.05-0.75,1.65-1.35C33.917,45.917,34.434,45.384,35.1,44.65z"/>
			<path style="fill-rule:evenodd;clip-rule:evenodd;fill:#473725;" d="M43.55,46.75c-0.433,0-1.366,0.05-2.8,0.15
				c-1.167,0.066-2.117,0.066-2.85,0c-0.067-0.7,0.25-1.467,0.95-2.301c1.033-1.232,1.566-1.883,1.6-1.949
				c0.366-0.634,0.433-1.2,0.2-1.7c3.133-1.367,7.567-2.217,13.3-2.55c-0.034,0.8,0.433,1.449,1.4,1.949
				c0.5,0.268,1.216,0.551,2.15,0.851c-0.633,0-1.267,0.133-1.9,0.399c-0.1,0.367-0.233,0.601-0.4,0.7
				c-0.2,0.101-0.5,0.184-0.9,0.25c-0.433,0.067-0.733,0.134-0.9,0.2c-0.966,0.367-1.716,0.767-2.25,1.2
				c-0.167,0.133-0.466,0.517-0.9,1.149c-0.4,0.5-0.767,0.851-1.1,1.051c-0.7,0.399-1.617,0.616-2.75,0.649
				C45.1,46.767,44.15,46.75,43.55,46.75z"/>
			<path style="fill-rule:evenodd;clip-rule:evenodd;fill:#523F2A;" d="M78,43.4c-0.1-0.134-0.3-0.584-0.6-1.351
				c-0.334-0.967-0.518-1.483-0.551-1.55L76.7,40.25c0.933,0.4,1.866,0.617,2.8,0.65c1.066,0,2.566,0.1,4.5,0.3
				c-1.133,0.233-1.883,0.5-2.25,0.8c-0.6,0.5-0.617,1.217-0.05,2.15c-0.434,0.1-1.083,0.083-1.95-0.051
				C78.816,43.934,78.233,43.7,78,43.4z"/>
		</g>
		<path style="fill-rule:evenodd;clip-rule:evenodd;fill:#54412B;" d="M95.35,49.25c0.101-0.6,0.134-1.017,0.101-1.25
			c0.3-0.033,1.267-0.033,2.899,0c1.067,0.033,1.967-0.1,2.7-0.4c0.134-0.466,0.017-0.933-0.35-1.399
			c-0.5-0.5-0.867-0.884-1.101-1.15l3.15,1.2c2.167,0.9,2.017,2.384-0.45,4.45c-3.1,2.1-4.816,3.316-5.149,3.649
			c-1.033,1.134-2.367,2-4,2.601c-1.134-0.733-2.15-1.566-3.051-2.5l-4.5-6.15c0.533-0.066,1.283,0,2.25,0.2
			c1.233,0.267,1.983,0.417,2.25,0.45C92.7,49.25,94.45,49.35,95.35,49.25z"/>
	</g>
	<g>
		<path style="fill-rule:evenodd;clip-rule:evenodd;fill:#7A5F3E;" d="M39.25,45.45c1.1-0.733,2.35-1.217,3.75-1.45
			c0.8-0.133,2.117-0.3,3.95-0.5c0.9-0.133,2.133-0.583,3.7-1.35c1.7-0.834,2.95-1.351,3.75-1.551c1-0.232,2.35-0.316,4.05-0.25
			c2.167,0.034,3.533,0.034,4.1,0c2.567-0.199,4.517-0.267,5.851-0.199c1.232,0.066,2.783,0.366,4.649,0.899
			c2.667,0.767,4.184,1.184,4.55,1.25c0.533,0.134,1.4,0.283,2.601,0.45c0.267,0.1,0.633,0.316,1.1,0.65
			c0.434,0.333,0.8,0.55,1.101,0.649c0.633,0.2,1.566,0.3,2.8,0.3c1.5,0.034,2.45,0.084,2.85,0.15
			c1.067,0.134,2.434,0.533,4.101,1.2c1.866,0.7,3.183,1.133,3.949,1.3l1.15,0.2c1.066,0.7,1.8,1.149,2.2,1.35
			c0.566,0.733,1.55,1.417,2.95,2.05c-0.7,0.601-1.75,1.367-3.15,2.301c-1.267,0.833-1.967,1.316-2.1,1.449
			c-1.768,1.834-4.217,2.967-7.351,3.4c-0.233,0.033-3.05,0.15-8.45,0.35c-1.933,0-3.399-0.017-4.399-0.05
			c-1.8,0-3.25,0.117-4.351,0.351c-2.533,0.666-4.449,1.116-5.75,1.35c-2.199,0.434-4.166,0.517-5.899,0.25
			c-0.934-0.133-3-0.517-6.2-1.15c-2.6-0.533-4.7-0.866-6.3-1c-2.267-0.199-7.2-0.899-14.8-2.1c-1.533-0.233-2.583-0.45-3.15-0.65
			c-0.934-0.3-1.816-0.833-2.65-1.6l-0.9-0.8c0.8-0.4,1.3-0.667,1.5-0.8c1.167-0.167,2.2-0.551,3.1-1.15
			c0.467-0.3,0.967-0.717,1.5-1.25c0.434-0.066,0.817-0.233,1.15-0.5c0.233-0.2,0.533-0.55,0.9-1.05c0.333-0.467,0.667-0.816,1-1.05
			s0.85-0.467,1.55-0.7C38.383,45.934,38.917,45.684,39.25,45.45z"/>
		<path style="fill-rule:evenodd;clip-rule:evenodd;fill:#705739;" d="M28.45,51.9c1.167-0.167,2.2-0.551,3.1-1.15
			c0.467-0.3,0.967-0.717,1.5-1.25c0.434-0.066,0.817-0.233,1.15-0.5c0.233-0.2,0.533-0.55,0.9-1.05
			c0.285-0.398,0.568-0.715,0.85-0.95c0.167,0.4,0.05,0.884-0.35,1.45c1.033-0.167,1.483,0.167,1.35,1
			c0.433,0.033,1.267,0,2.5-0.101c1.066,0,1.8,0.167,2.2,0.5c-0.1,0.233-0.3,0.5-0.6,0.801c-0.333,0.366-0.55,0.633-0.65,0.8
			c0.633,0,0.867,0.316,0.7,0.95c0.333,0.066,0.833,0.033,1.5-0.101l0.15,0.5c0.3-0.1,1.117-0.416,2.45-0.95
			c1.133-0.3,1.6,0.051,1.4,1.051c0.433-0.033,0.966,0.116,1.6,0.449c0.7,0.367,1.05,0.733,1.05,1.101c1.033,0,1.65,0.017,1.85,0.05
			c0.233,0.033,0.55,0.167,0.95,0.4c0.434,0.233,0.684,0.35,0.75,0.35c0.2,0.033,0.583-0.033,1.15-0.2
			c0.5-0.133,0.866-0.149,1.1-0.05c0.167,0.066,0.317,0.184,0.45,0.35c0.1,0.167,0.184,0.268,0.25,0.301
			c0.233,0.3,0.4,0.467,0.5,0.5c0.233,0.133,0.8,0.133,1.7,0c0.233-0.033,0.533-0.101,0.9-0.2c0.267-0.101,0.35-0.367,0.25-0.8
			c0.966,0.233,1.733,0.1,2.3-0.4c0.6-0.533,0.517-1.283-0.25-2.25c0.333,0.3,1.05,0.667,2.15,1.1
			c0.9,0.467,1.267,1.084,1.101,1.851c0.6,0.033,1.583,0.033,2.949,0c1.268-0.033,2.233,0.066,2.9,0.3
			c0.066-0.4,0.25-0.717,0.55-0.95s0.617-0.25,0.95-0.05c0.033-0.366,0.017-0.633-0.05-0.8c0.267-0.066,0.633,0,1.1,0.2
			c0.5,0.199,0.867,0.3,1.101,0.3c-0.101-0.634,0.083-0.967,0.55-1c0.366,0,0.816,0.149,1.35,0.45c0.033-0.4,0.017-0.717-0.05-0.95
			c3.967,1,6.8,1.55,8.5,1.649c0.033-0.8-0.3-1.699-1-2.699c-0.667-0.967-1.383-1.667-2.15-2.101c0.634,0.033,1.867,0.434,3.7,1.2
			c1.533,0.634,2.75,0.8,3.65,0.5l0.45,0.4v-1.5c0.232-0.033,0.583,0.017,1.05,0.149c0.399,0.134,0.733,0.167,1,0.101
			c-0.033-0.4-0.351-0.867-0.95-1.4c-0.7-0.533-1.167-0.917-1.4-1.15c0.7,0.034,1.5,0.217,2.4,0.551c0.167,0.066,0.934,0.399,2.3,1
			c-0.366-0.733-1.316-1.483-2.85-2.25c-1.767-0.733-2.967-1.25-3.601-1.551c0.567,0,1.584,0.284,3.051,0.851
			c1.3,0.5,2.316,0.7,3.05,0.6c-0.033,0-0.15-0.166-0.351-0.5l0.65,0.15c-0.4-0.4-0.65-0.634-0.75-0.7c1,0.5,1.75,0.733,2.25,0.7
			c0.3,0,0.517-0.05,0.65-0.15L96.1,47l1.15,0.2c1.066,0.7,1.8,1.149,2.2,1.35c0.566,0.733,1.55,1.417,2.95,2.05
			c-0.7,0.601-1.75,1.367-3.15,2.301c-1.267,0.833-1.967,1.316-2.1,1.449c-1.768,1.834-4.217,2.967-7.351,3.4
			c-0.233,0.033-3.05,0.15-8.45,0.35c-1.933,0-3.399-0.017-4.399-0.05c-1.8,0-3.25,0.117-4.351,0.351
			c-2.533,0.666-4.449,1.116-5.75,1.35c-2.199,0.434-4.166,0.517-5.899,0.25c-0.934-0.133-3-0.517-6.2-1.15
			c-2.6-0.533-4.7-0.866-6.3-1c-2.267-0.199-7.2-0.899-14.8-2.1c-1.533-0.233-2.583-0.45-3.15-0.65c-0.934-0.3-1.816-0.833-2.65-1.6
			l-0.9-0.8C27.75,52.3,28.25,52.033,28.45,51.9z"/>
		<g>
			<path style="fill-rule:evenodd;clip-rule:evenodd;fill:#695135;" d="M28.45,51.9c1.167-0.167,2.2-0.551,3.1-1.15
				c0.467-0.3,0.833-0.6,1.1-0.9L33.1,49.7c-0.534,0.399-0.75,0.983-0.65,1.75c0.2-0.066,0.533-0.017,1,0.149l-0.2,0.5
				c0.867,0.167,1.983-0.267,3.35-1.3c0.133-0.1,0.283-0.3,0.45-0.6c0.167-0.267,0.35-0.45,0.55-0.55
				c0.033,0,0.617-0.101,1.75-0.301c0.833,0,1.4,0.051,1.7,0.15c-0.1,0.167-0.417,0.533-0.95,1.1c-0.434,0.467-0.7,0.817-0.8,1.051
				c-0.1,0.199-0.183,0.517-0.25,0.949c-0.066,0.467-0.15,0.801-0.25,1c-0.066,0.167-0.25,0.45-0.55,0.851
				c-0.267,0.333-0.434,0.616-0.5,0.85c0.434,0.233,0.883,0.217,1.35-0.05c0.566-0.366,0.983-0.55,1.25-0.55
				c0,0.133,0.033,0.434,0.1,0.899c0.5,0.101,0.983-0.05,1.45-0.449c0.433-0.4,0.733-0.851,0.9-1.351
				c0.3,0.8,0.783,0.834,1.45,0.101c0.967-1.101,1.566-1.684,1.8-1.75c0.067,0.533-0.066,1.233-0.4,2.1
				c-0.367,0.9-0.55,1.533-0.55,1.9c0.033,0.767,0.4,1.083,1.1,0.949c0.267-0.066,0.883-0.316,1.85-0.75
				c0.134,0.601,0.417,0.967,0.85,1.101c0.4,0.1,0.85,0,1.35-0.3c0.1,0.533,0.333,0.833,0.7,0.899c0.267,0.033,0.7,0,1.3-0.1
				c0.1,0,0.316,0.033,0.65,0.1c0.267,0.067,0.483,0.084,0.65,0.05c0.1,0,0.283-0.1,0.55-0.3c0.233-0.2,0.433-0.3,0.6-0.3
				c0.066,0.267,0.383,0.45,0.95,0.55c0.8,0.134,1.217,0.2,1.25,0.2c-0.067-0.533,0.2-0.717,0.8-0.55c0.333,0.1,0.85,0.25,1.55,0.45
				h1.8c0.2-0.067,0.434-0.351,0.7-0.851c0.133-0.267,0.3-0.633,0.5-1.1c0.033,0.033,0.25,0.667,0.65,1.899
				c0.2,0.5,0.75,0.567,1.65,0.2c0.3-0.1,0.634-0.283,1-0.55c0.333-0.133,0.733-0.083,1.2,0.15C66.717,57.233,67,57.1,67.6,57.5
				c0.768,0.467,1.25,0.467,1.45,0c0.634,0.1,1.3,0.1,2,0c0.434-0.033,1.101-0.116,2-0.25c0.101-0.533,0.117-0.917,0.05-1.15
				c0.9-0.133,2.15,0.15,3.75,0.851c0.167-1,0.117-1.783-0.149-2.351c1.033,0.934,2.433,1.7,4.2,2.301
				c1.899,0.633,3.133,0.6,3.699-0.101c0.567-0.733,0.434-1.683-0.399-2.85c-0.167-0.767-0.567-1.566-1.2-2.4
				c-0.633-0.8-1.267-1.383-1.9-1.75c0.667,0.033,1.584,0.3,2.75,0.8c1.301,0.567,2.2,0.9,2.7,1L86.9,52.15
				c0.433,0.5,1.116,1.149,2.05,1.949c0.233,0.233,0.483,0.551,0.75,0.95c0.233,0.3,0.583,0.483,1.05,0.55
				c0.066-0.366,0.033-0.767-0.1-1.199c-0.167-0.533-0.301-0.95-0.4-1.25c0.434,0.333,1.033,0.633,1.8,0.899
				c0.733,0.233,1.4,0.367,2,0.4c0-0.267,0.033-0.733,0.101-1.4c0.066-0.566,0.066-1.05,0-1.45c0.366-0.133,0.833-0.166,1.399-0.1
				c0.767,0.066,1.233,0.1,1.4,0.1c-0.167-0.566-0.55-1.033-1.15-1.399c-0.267-0.134-0.85-0.384-1.75-0.75
				c0.333-0.2,0.867-0.2,1.601,0c0.433,0.133,1.017,0.333,1.75,0.6L96.3,49c0.167,0,0.467,0.017,0.9,0.05
				c0.366,0.067,0.667,0.084,0.899,0.05C98,48.867,97.7,48.6,97.2,48.3c-0.434-0.3-0.684-0.583-0.75-0.85l1.25,0.05
				c0.399,0.233,0.983,0.583,1.75,1.05c0.566,0.733,1.55,1.417,2.95,2.05c-0.7,0.601-1.75,1.367-3.15,2.301
				c-1.267,0.833-1.967,1.316-2.1,1.449c-1.768,1.834-4.217,2.967-7.351,3.4c-0.233,0.033-3.05,0.15-8.45,0.35
				c-1.933,0-3.399-0.017-4.399-0.05c-1.8,0-3.25,0.117-4.351,0.351c-2.533,0.666-4.449,1.116-5.75,1.35
				c-2.199,0.434-4.166,0.517-5.899,0.25c-0.934-0.133-3-0.517-6.2-1.15c-2.6-0.533-4.7-0.866-6.3-1
				c-2.267-0.199-7.2-0.899-14.8-2.1c-1.533-0.233-2.583-0.45-3.15-0.65c-0.934-0.3-1.816-0.833-2.65-1.6l-0.9-0.8
				C27.75,52.3,28.25,52.033,28.45,51.9z"/>
		</g>
		<g>
			<path style="fill-rule:evenodd;clip-rule:evenodd;fill:#5C472E;" d="M28.45,51.9l0.05-0.051l-0.25,0.601
				c0.133-0.033,0.35-0.017,0.65,0.05c-0.033,0.1-0.017,0.3,0.05,0.6l1.45,0.051c0.1,0.566,0.683,0.8,1.75,0.699
				c0.034,0,0.784-0.116,2.25-0.35c0.6-0.1,1.333-0.333,2.2-0.7c0.2-0.066,0.55-0.116,1.05-0.149c0.5,0,0.85-0.051,1.05-0.15
				c0.133,0.434-0.083,1.066-0.65,1.9c-0.366,0.6-0.183,1.066,0.55,1.399c0.633,0.267,1.383,0.417,2.25,0.45
				c0.9,0,1.633-0.15,2.2-0.45c0.367,0.867,0.917,0.684,1.65-0.55c0.066-0.133,0.116-0.333,0.15-0.6c0-0.233,0.066-0.417,0.2-0.551
				c0.033-0.033,0.417-0.232,1.15-0.6c0.066,0.533,0.066,1.283,0,2.25c0.1,0.7,0.533,1.15,1.3,1.35c0.4,0.101,0.75,0.084,1.05-0.05
				c0.467-0.166,0.767-0.25,0.9-0.25c0.566-0.033,1.033,0.117,1.4,0.45c0.566,0.5,0.917,0.783,1.05,0.85
				c0.267,0.134,0.633,0.2,1.1,0.2c0.633,0,1,0,1.1,0c0.333,0.033,0.783,0.134,1.35,0.3c0.633,0.2,1.066,0.317,1.3,0.351
				c0.533,0.1,1.45,0.3,2.75,0.6c1.167,0.2,2.083,0.167,2.75-0.1c0-0.233,0.05-0.533,0.15-0.9c0.133-0.467,0.217-0.767,0.25-0.899
				c0.233,0.066,0.65,0.399,1.25,1c0.467,0.467,0.917,0.683,1.35,0.649c0.267-0.033,0.65-0.2,1.15-0.5
				c0.467-0.267,0.916-0.383,1.35-0.35c0.2-0.467,0.717-0.65,1.55-0.55c0.467,0.033,1.117,0.116,1.95,0.25
				C71.583,58.117,72.167,58,73,57.8c0.7-0.166,1.267-0.233,1.7-0.2l0.1-0.3c0.367-0.033,0.833-0.017,1.4,0.05
				c0.3,0.034,0.75,0.101,1.35,0.2c0.067-0.267,0.083-0.45,0.05-0.55c0.434-0.033,0.934,0,1.5,0.1l1.5,0.2
				c0.268,0.033,0.934,0.017,2-0.05c0.834-0.033,1.483,0.017,1.95,0.15C84.85,56.6,85,56.083,85,55.85
				c0.033-0.5-0.167-1.017-0.6-1.55l-0.2-0.2c-0.134-0.767-0.517-1.583-1.15-2.449c-0.6-0.834-1.233-1.45-1.899-1.851L82,49.9
				c0.767,0.5,1.5,1.183,2.2,2.05c0.066,0.066,0.133,0.233,0.2,0.5c0.033,0.267,0.1,0.434,0.199,0.5c0.134,0.1,0.384,0.133,0.75,0.1
				c0.367,0,0.634,0.084,0.801,0.25c0.066,0.067,0.149,0.283,0.25,0.65c0.1,0.333,0.199,0.55,0.3,0.649
				c0.233,0.301,0.55,0.534,0.95,0.7c0.267,0.067,0.633,0.184,1.1,0.351c0.934,0.333,1.867,0.483,2.8,0.449
				c0.067-0.3,0.083-0.5,0.05-0.6c0.167,0,0.667,0.167,1.5,0.5c0.667,0.233,1.2,0.233,1.601,0c0.333-0.2,0.5-0.55,0.5-1.05
				c0-0.566,0.083-0.934,0.25-1.101c0.2-0.232,0.583-0.3,1.149-0.199c0.733,0.1,1.184,0.133,1.351,0.1l-0.8,0.6
				c-1.768,1.834-4.217,2.967-7.351,3.4c-0.233,0.033-3.05,0.15-8.45,0.35c-1.933,0-3.399-0.017-4.399-0.05
				c-1.8,0-3.25,0.117-4.351,0.351c-2.533,0.666-4.449,1.116-5.75,1.35c-2.199,0.434-4.166,0.517-5.899,0.25
				c-0.934-0.133-3-0.517-6.2-1.15c-2.6-0.533-4.7-0.866-6.3-1c-2.267-0.199-7.2-0.899-14.8-2.1c-1.533-0.233-2.583-0.45-3.15-0.65
				c-0.934-0.3-1.816-0.833-2.65-1.6l-0.9-0.8C27.75,52.3,28.25,52.033,28.45,51.9z"/>
			<path style="fill-rule:evenodd;clip-rule:evenodd;fill:#5C472E;" d="M102.4,50.6c-0.667,0.601-1.834,1.434-3.5,2.5
				c0.3-0.433,0.133-0.966-0.5-1.6l0.5-0.05c-0.067-0.467-0.2-0.884-0.4-1.25c0.4-0.101,0.95-0.117,1.65-0.05
				c0.876,0.09,1.409,0.141,1.6,0.149L102.4,50.6z"/>
		</g>
		<path style="fill-rule:evenodd;clip-rule:evenodd;fill:#5C472E;" d="M87.05,51.65c0.533,0,0.917,0.05,1.15,0.149
			c0.333,0.101,0.6,0.334,0.8,0.7c0.233,0.434,0.25,0.6,0.05,0.5c-0.399-0.233-0.649-0.333-0.75-0.3
			c-0.033,0.133-0.033,0.35,0,0.649c-0.399-0.466-0.733-0.833-1-1.1c-0.4-0.372-0.75-0.572-1.05-0.6H87.05z"/>
		<path style="fill-rule:evenodd;clip-rule:evenodd;fill:#5C472E;" d="M92.8,49.05h0.65c-0.2-0.2-0.25-0.383-0.15-0.55
			c0.134-0.167,0.333-0.233,0.601-0.2c0.1,0.233,0.6,0.317,1.5,0.25c0.8-0.033,1.217,0.15,1.25,0.55
			c-0.301-0.033-0.533-0.05-0.7-0.05c-0.3-0.033-0.533-0.017-0.7,0.05c0.033,0.034,0.3,0.233,0.8,0.601
			c0.333,0.3,0.483,0.55,0.45,0.75c-1.167-0.4-1.95-0.583-2.35-0.55c0.033,0.066,0.199,0.283,0.5,0.649
			c0.199,0.233,0.267,0.483,0.199,0.75c-0.333,0.033-0.583-0.033-0.75-0.2c-0.166-0.267-0.35-0.482-0.55-0.649
			c-0.366-0.101-0.649-0.2-0.85-0.3c-0.434-0.134-0.533-0.317-0.3-0.551v0.15c0.033-0.1,0.199-0.1,0.5,0
			C92.767,49.583,92.733,49.35,92.8,49.05z"/>
		<path style="fill-rule:evenodd;clip-rule:evenodd;fill:#5C472E;" d="M96.5,47.8c1.038,0.007,1.639,0.106,1.8,0.3
			c0.033,0.067,0.067,0.2,0.101,0.4c0,0.2-0.033,0.316-0.101,0.35c-0.2,0.134-0.55,0.034-1.05-0.3C96.717,48.25,96.467,48,96.5,47.8
			z"/>
	</g>
	<g>
		<path style="fill-rule:evenodd;clip-rule:evenodd;fill:#8C6F4C;" d="M41.9,44.4l-0.3,0.1h1.8c0.1,0.4-0.183,0.733-0.85,1
			c-0.566,0.233-1.066,0.316-1.5,0.25c-0.366-0.033-0.65-0.066-0.85-0.1c-0.333-0.067-0.517-0.184-0.55-0.351
			c-0.033-0.233,0.3-0.433,1-0.6C40.983,44.6,41.4,44.5,41.9,44.4z"/>
		<path style="fill-rule:evenodd;clip-rule:evenodd;fill:#8C6F4C;" d="M39.9,45.9L39.65,46.3c0.267-0.033,0.45,0.017,0.55,0.15
			c0.1,0.133,0.017,0.267-0.25,0.399c-0.1,0.067-0.284,0.084-0.55,0.051c-0.3-0.033-0.466-0.101-0.5-0.2
			c-0.067-0.2,0.05-0.384,0.35-0.55C39.417,46.083,39.633,46,39.9,45.9z"/>
		<path style="fill-rule:evenodd;clip-rule:evenodd;fill:#8C6F4C;" d="M45,44.05c-0.141-0.012-0.257-0.012-0.35,0
			c-0.039,0.015-0.072,0.031-0.1,0.05L45,44.05z M45.4,44c0.067,0.2,0.034,0.316-0.1,0.35c-0.033,0.034-0.183,0.051-0.45,0.051
			c-0.4,0.033-0.567-0.017-0.5-0.15c0.021-0.108,0.122-0.175,0.3-0.2C44.739,44.017,44.856,44,45,44C45.1,44,45.233,44,45.4,44z"/>
		<path style="fill-rule:evenodd;clip-rule:evenodd;fill:#8C6F4C;" d="M45.9,44.4l0.175-0.101c0.348,0.003,0.473,0.086,0.375,0.25
			c-0.134,0.2-0.367,0.233-0.7,0.101C45.717,44.517,45.767,44.434,45.9,44.4z"/>
		<path style="fill-rule:evenodd;clip-rule:evenodd;fill:#8C6F4C;" d="M55.05,41.6c0.833,0.167,1.05,0.434,0.65,0.801
			c-0.067,0.066-0.284,0.116-0.65,0.149h-0.7l-0.75,0.3c-0.5,0.134-1,0.2-1.5,0.2c0.033-0.3,0.25-0.55,0.65-0.75
			c-0.533,0.067-0.934,0.084-1.2,0.05c0.2-0.232,0.533-0.466,1-0.699c0.267-0.134,0.634-0.334,1.1-0.601l0.1,0.101
			C54.684,41.15,55.117,41.3,55.05,41.6z"/>
		<path style="fill-rule:evenodd;clip-rule:evenodd;fill:#8C6F4C;" d="M56.55,42.1h0.25c0.367-0.066,0.533,0.067,0.5,0.4
			C56.167,42.5,55.917,42.367,56.55,42.1z"/>
		<path style="fill-rule:evenodd;clip-rule:evenodd;fill:#8C6F4C;" d="M62.8,41l-0.25,0.05c1.267,0,1.634,0.117,1.1,0.351
			c-0.167,0.066-0.483,0.116-0.95,0.149c-0.5,0.033-0.767,0-0.8-0.1c-0.067-0.167,0.034-0.3,0.3-0.4
			C62.4,40.983,62.6,40.967,62.8,41z"/>
		<path style="fill-rule:evenodd;clip-rule:evenodd;fill:#8C6F4C;" d="M62.85,42.4c-0.1,0.166-0.35,0.217-0.75,0.149
			c-0.333-0.033-0.6-0.1-0.8-0.2c0.033-0.166,0.15-0.283,0.35-0.35c0.135-0.06,0.243-0.109,0.325-0.15
			c0.235,0.007,0.443,0.04,0.625,0.101C62.934,42.05,63.017,42.2,62.85,42.4z"/>
		<path style="fill-rule:evenodd;clip-rule:evenodd;fill:#8C6F4C;" d="M59.35,42.1l-0.1-0.05h0.4c0.034,0.233-0.133,0.317-0.5,0.25
			C59.083,42.167,59.15,42.1,59.35,42.1z"/>
		<path style="fill-rule:evenodd;clip-rule:evenodd;fill:#8C6F4C;" d="M63.2,44.05c0.142-0.035,0.292-0.068,0.45-0.1
			c0.137-0.101,0.52-0.15,1.15-0.15l0.9-0.2c1.033-0.133,1.7-0.066,2,0.2c0.7,0.533,0.149,0.8-1.65,0.8
			c-0.533,0.101-0.967,0.15-1.3,0.15c-0.6,0.066-0.867-0.083-0.8-0.45C63.483,44.3,63.233,44.217,63.2,44.05z"/>
		<path style="fill-rule:evenodd;clip-rule:evenodd;fill:#8C6F4C;" d="M68.6,43.25l-0.05,0.05c1.134,0,1.434,0.134,0.9,0.4
			c-0.567,0.267-1,0.25-1.3-0.05C68.217,43.483,68.367,43.35,68.6,43.25z"/>
		<path style="fill-rule:evenodd;clip-rule:evenodd;fill:#8C6F4C;" d="M73.6,42.1l-0.85,0.25c0.167,0.034,0.717-0.05,1.65-0.25
			c0.866-0.1,1.283,0.084,1.25,0.551c-0.033,0.366-0.601,0.6-1.7,0.699c-1.101,0.067-1.517-0.116-1.25-0.55
			c-0.7,0-1.117-0.017-1.25-0.05c0.133-0.267,0.467-0.45,1-0.55C72.717,42.167,73.1,42.134,73.6,42.1z"/>
		<path style="fill-rule:evenodd;clip-rule:evenodd;fill:#8C6F4C;" d="M71.1,43.8l-0.25-0.05c1.634,0.134,2.101,0.4,1.4,0.8
			c-0.133,0.067-0.434,0.067-0.9,0c-0.467-0.1-0.732-0.2-0.8-0.3C70.383,43.884,70.566,43.733,71.1,43.8z"/>
		<path style="fill-rule:evenodd;clip-rule:evenodd;fill:#8C6F4C;" d="M64.15,46.15H64.3c0.167,0,0.833-0.017,2-0.051
			c1.067,0.101,1.533,0.384,1.4,0.851c-0.101,0.434-1.083,0.75-2.95,0.95c-1.667,0.366-2.733,0.467-3.2,0.3
			c-0.066-0.2,0-0.4,0.2-0.601c0.167-0.166,0.367-0.267,0.6-0.3H61c-0.1-0.533,0.3-0.883,1.2-1.05
			C62.7,46.184,63.35,46.15,64.15,46.15z"/>
		<path style="fill-rule:evenodd;clip-rule:evenodd;fill:#8C6F4C;" d="M59.575,48.55c0.015-0.016,0.031-0.032,0.05-0.05
			c0.041-0.02,0.091-0.036,0.15-0.05c0.193-0.026,0.468-0.01,0.825,0.05c0.1,0.4-0.267,0.533-1.1,0.4
			c-0.064-0.112-0.064-0.213,0-0.301l0.025-0.024L59.575,48.55z"/>
		<path style="fill-rule:evenodd;clip-rule:evenodd;fill:#8C6F4C;" d="M62.75,49l-0.65,0.1c0.333,0,0.833-0.05,1.5-0.149
			c0.6-0.033,1.1,0,1.5,0.1c0.067,0.267-0.1,0.434-0.5,0.5c-1.066,0.2-2.05,0.184-2.95-0.05C61.75,49.1,62.117,48.934,62.75,49z"/>
		<path style="fill-rule:evenodd;clip-rule:evenodd;fill:#8C6F4C;" d="M49.9,49.6c0.367-0.133,0.85-0.283,1.45-0.449
			c0.2-0.067,0.6-0.184,1.2-0.351c0.48-0.142,0.814-0.291,1-0.45L53.4,48.5c1.167,0,1.867,0.217,2.1,0.65
			c0.066,0.133,0.05,0.316-0.05,0.55c-0.134,0.233-0.184,0.383-0.15,0.45c0,0.1,0.15,0.233,0.45,0.399c0.233,0.134,0.3,0.3,0.2,0.5
			c-0.167,0.3-0.85,0.45-2.05,0.45c-0.9-0.2-1.517-0.233-1.85-0.1c-0.133,0.166-0.283,0.316-0.45,0.449
			c-0.367,0.233-0.75,0.268-1.15,0.101c-0.4-0.2-0.65-0.5-0.75-0.9L49.3,51c0.167-0.267,0.55-0.533,1.15-0.8
			c-0.8,0.133-1.417,0.184-1.85,0.149C48.8,50.083,49.233,49.833,49.9,49.6z"/>
		<path style="fill-rule:evenodd;clip-rule:evenodd;fill:#8C6F4C;" d="M50.5,48.55c-0.633,0.167-1.117,0.283-1.45,0.351
			C48.483,49,48,49.017,47.6,48.95c-0.034-0.3,0.283-0.467,0.95-0.5c0.333,0,0.75,0.017,1.25,0.05c0.8-0.133,1.134-0.083,1,0.15
			c-0.1,0.199-0.25,0.267-0.45,0.199L50.5,48.55z"/>
		<path style="fill-rule:evenodd;clip-rule:evenodd;fill:#8C6F4C;" d="M45.65,48.65l0.2,0.1l0.75,0.05
			c0.066,0.134,0.066,0.233,0,0.3c-0.167,0.134-0.434,0.2-0.8,0.2c-0.4-0.033-0.683-0.116-0.85-0.25
			C44.983,49.017,45.217,48.884,45.65,48.65z"/>
		<path style="fill-rule:evenodd;clip-rule:evenodd;fill:#8C6F4C;" d="M58.5,52.5c0.293-0.023,0.676-0.057,1.15-0.1
			c0.633,0,1.117,0.066,1.45,0.199c0.033,0.233-0.3,0.467-1,0.7c-0.667,0.267-1.917,0.4-3.75,0.4c-0.5,0-0.767,0-0.8,0
			c-0.366-0.033-0.616-0.15-0.75-0.351c0.2-0.199,0.517-0.3,0.95-0.3c0.209,0,0.509,0.017,0.9,0.05
			c-0.232-0.044-0.249-0.193-0.05-0.449c0.163-0.229,0.771-0.278,1.825-0.15C58.45,52.497,58.475,52.497,58.5,52.5z"/>
		<path style="fill-rule:evenodd;clip-rule:evenodd;fill:#8C6F4C;" d="M57.9,50.35l-0.75-0.199c0.933,0,1.517,0.05,1.75,0.149
			c0.1,0.334-0.133,0.55-0.7,0.65c-0.5,0.066-0.884,0.033-1.15-0.101C56.483,50.517,56.767,50.35,57.9,50.35z"/>
		<path style="fill-rule:evenodd;clip-rule:evenodd;fill:#8C6F4C;" d="M79.8,43.3L79.25,43.4c0.233-0.033,0.35,0.066,0.35,0.3
			c0,0.2-0.066,0.383-0.199,0.55c-0.268,0.267-0.783,0.4-1.551,0.4C77.083,44.617,76.9,44.4,77.3,44c-0.633,0-0.95-0.1-0.95-0.3
			c0.301-0.233,0.867-0.367,1.7-0.4C78.483,43.3,79.066,43.3,79.8,43.3z"/>
		<path style="fill-rule:evenodd;clip-rule:evenodd;fill:#8C6F4C;" d="M82.3,44.5l0.101,0.25c0.467-0.066,0.683,0.083,0.649,0.45
			c-0.033,0.366-0.233,0.6-0.6,0.7l-1.101,0.35c-0.333,0.134-0.616,0.233-0.85,0.3c-0.4,0.134-0.684,0.15-0.85,0.05
			C79.35,46.434,79.4,46.233,79.8,46c0.5-0.333,0.767-0.533,0.8-0.6C80.467,45.2,80.667,45,81.2,44.8
			C81.467,44.7,81.833,44.6,82.3,44.5z"/>
		<path style="fill-rule:evenodd;clip-rule:evenodd;fill:#8C6F4C;" d="M82.05,46.5l-0.45,0.15c0.167,0.1,0.184,0.267,0.051,0.5
			c-0.067,0.133-0.233,0.233-0.5,0.3c-0.268,0.033-0.483,0.017-0.65-0.05c-0.434-0.167-0.35-0.334,0.25-0.5
			C81.083,46.8,81.517,46.667,82.05,46.5z"/>
		<path style="fill-rule:evenodd;clip-rule:evenodd;fill:#8C6F4C;" d="M79.05,47.8l0.101,0.05c0.433-0.033,0.649,0.034,0.649,0.2
			c0,0.2-0.217,0.283-0.649,0.25c-0.334-0.033-0.518-0.133-0.551-0.3S78.717,47.767,79.05,47.8z"/>
		<path style="fill-rule:evenodd;clip-rule:evenodd;fill:#8C6F4C;" d="M81.4,48.1L81.15,47.9c0.666-0.067,0.85,0.083,0.55,0.449
			c-0.333,0.4-0.667,0.4-1,0C80.867,48.184,81.1,48.1,81.4,48.1z"/>
		<path style="fill-rule:evenodd;clip-rule:evenodd;fill:#8C6F4C;" d="M82.65,46.675L82.85,46.7c0.067,0.133,0.051,0.25-0.05,0.35
			c-0.066,0.067-0.183,0.067-0.35,0C82.45,46.939,82.517,46.814,82.65,46.675z"/>
		<path style="fill-rule:evenodd;clip-rule:evenodd;fill:#8C6F4C;" d="M84,47.15c0.588,0.01,0.938,0.043,1.05,0.1
			c-0.033,0.533-0.533,0.917-1.5,1.15c-0.933,0.233-1.566,0.183-1.899-0.15c0.133-0.033,0.35-0.217,0.649-0.55
			c0.033-0.033,0.067-0.134,0.101-0.3C82.533,47.3,83.066,47.217,84,47.15z"/>
		<path style="fill-rule:evenodd;clip-rule:evenodd;fill:#8C6F4C;" d="M80.6,48.65l0.2,0.25c0.067,0.366-0.167,0.483-0.7,0.35
			C79.6,49.117,79.767,48.917,80.6,48.65z"/>
	</g>
	<g>
		<path style="fill-rule:evenodd;clip-rule:evenodd;fill:#5C472E;" d="M39,49.4l0.9-0.801c0.333-0.133,0.717-0.183,1.15-0.149
			c0.5,0.033,0.767,0.184,0.8,0.45c0.066,0.3-0.034,0.55-0.3,0.75c-0.3,0.166-0.733,0.233-1.3,0.199c-0.566-0.033-1-0.133-1.3-0.3
			C38.883,49.483,38.9,49.434,39,49.4z"/>
		<path style="fill-rule:evenodd;clip-rule:evenodd;fill:#5C472E;" d="M44.9,46l-0.3,0.55c0.4-0.3,0.95-0.467,1.65-0.5
			c0.767-0.033,1.1,0.25,1,0.851c-0.033,0.1-0.117,0.217-0.25,0.35c-0.033,0.1,0,0.25,0.1,0.45c-0.034,0.2-0.067,0.316-0.1,0.35
			c-0.033,0-0.15,0.017-0.35,0.05c-0.8,0.134-1.5,0.084-2.1-0.149c-0.167-0.066-0.25-0.134-0.25-0.2c0.033-0.1,0.033-0.217,0-0.35
			C44.133,46.5,44.333,46.033,44.9,46z"/>
		<path style="fill-rule:evenodd;clip-rule:evenodd;fill:#5C472E;" d="M51.5,45.5c0.033-0.2,0.15-0.333,0.35-0.4
			c0.133-0.066,0.316-0.149,0.55-0.25c0.333-0.166,0.817-0.433,1.45-0.8c1.133-0.467,1.867-0.483,2.2-0.05
			c0.3,0.4,0.167,0.767-0.4,1.1c-0.7,0.4-1.067,0.634-1.1,0.7c-0.033,0.101-0.033,0.267,0,0.5s0,0.417-0.1,0.55
			C54.383,46.95,54,47.167,53.3,47.5c-0.8,0.367-1.767,0.333-2.9-0.1c-0.267-0.067-0.517-0.184-0.75-0.351
			c-0.367-0.233-0.533-0.467-0.5-0.7L51.5,45.5z"/>
		<path style="fill-rule:evenodd;clip-rule:evenodd;fill:#5C472E;" d="M47.3,43.9l1.6-0.15c0.467-0.066,0.95-0.033,1.45,0.1
			c0.7,0.134,0.933,0.417,0.7,0.851c-0.167,0.267-0.833,0.283-2,0.05C47.85,44.517,47.267,44.233,47.3,43.9z"/>
		<path style="fill-rule:evenodd;clip-rule:evenodd;fill:#5C472E;" d="M57.15,40.85l1.2-0.1c1.8-0.133,2.733,0.05,2.8,0.55
			c0.067,0.3-0.067,0.483-0.4,0.55c-0.033,0-0.316,0-0.85,0c-0.767,0.034-1.35,0.051-1.75,0.051c-0.7,0-1.25-0.051-1.65-0.15
			c-0.533-0.133-0.633-0.3-0.3-0.5C56.4,41.15,56.717,41.017,57.15,40.85z"/>
		<path style="fill-rule:evenodd;clip-rule:evenodd;fill:#5C472E;" d="M69.3,41.4h3.351c1.633,0,2.217,0.133,1.75,0.399
			c-0.067,0.033-0.334,0.05-0.801,0.05c-0.732,0-1.366,0.084-1.899,0.25c-0.333,0.101-0.917,0.167-1.75,0.2
			c-0.8,0.033-1.384,0.134-1.75,0.3c-0.667,0.334-1.333,0.567-2,0.7c-0.367,0-0.65,0.017-0.851,0.05
			c-0.967,0.233-2.183,0.733-3.649,1.5c0.833-0.732,1.417-1.166,1.75-1.3c0.5-0.166,0.8-0.35,0.899-0.55c0-0.1,0-0.184,0-0.25
			c0.033-0.1,0.117-0.184,0.25-0.25l0.7-0.5c0.067,0,0.184,0.066,0.351,0.2c0.133,0.1,0.25,0.149,0.35,0.149s0.283-0.133,0.55-0.399
			C67.117,41.583,68.033,41.4,69.3,41.4z"/>
		<path style="fill-rule:evenodd;clip-rule:evenodd;fill:#5C472E;" d="M57.5,45.5c-0.133-0.7,0.5-1.116,1.9-1.25
			c1.1-0.1,2.034-0.066,2.8,0.1c0.966,0.2,1.316,0.5,1.05,0.9c-0.133,0.233-0.55,0.4-1.25,0.5c-0.767,0.1-1.233,0.2-1.4,0.3
			c0.3,0.434,0.316,0.9,0.05,1.4c-0.267,0.467-0.667,0.767-1.2,0.899c-0.5,0.101-1.233,0.051-2.2-0.149
			c-1.1-0.2-1.633-0.55-1.6-1.05L57.5,45.5z"/>
		<path style="fill-rule:evenodd;clip-rule:evenodd;fill:#5C472E;" d="M68.75,50.8c0.2-0.1,0.517-0.333,0.95-0.7
			c0.366-0.366,0.717-0.6,1.05-0.699c0.333-0.101,0.75-0.15,1.25-0.15h1.25c0.167-0.033,0.35-0.066,0.55-0.1
			c-1.1-0.233-1.6-0.517-1.5-0.851c0.067-0.3,0.417-0.55,1.05-0.75c0.533-0.2,1-0.3,1.4-0.3c0.633-0.033,1.267,0.2,1.9,0.7
			c0.566,0.399,1.05,0.899,1.449,1.5c0.167,0.267,0.417,0.417,0.75,0.45c0.4,0.033,0.7,0.116,0.9,0.25
			c0.367,0.333,0.316,0.717-0.15,1.149c-0.166,0.167-0.316,0.267-0.449,0.3c-0.4,0-0.7,0.051-0.9,0.15
			c-0.367,0.167-0.633,0.25-0.8,0.25c-0.233-0.066-0.417-0.1-0.55-0.1c-0.167,0-0.301,0.083-0.4,0.25l0.35,0.699l-0.1,0.301
			c0,0.166,0.1,0.467,0.3,0.899c0.167,0.4,0.217,0.717,0.15,0.95c-0.601-0.4-0.95-0.6-1.05-0.6l0.05,0.55
			c-0.5-0.167-0.934-0.267-1.3-0.3c-0.7,0.033-1.2,0.017-1.5-0.051c-0.167-0.033-0.45-0.166-0.851-0.399
			c-1.066-0.367-1.667-0.55-1.8-0.55C69.983,53.816,69.4,53.867,69,53.8l-1.25-0.25c-0.8-0.3-1.217-0.467-1.25-0.5
			c-0.167-0.166-0.267-0.399-0.3-0.7c-0.033-0.3,0.017-0.533,0.149-0.699L68.75,50.8z"/>
		<path style="fill-rule:evenodd;clip-rule:evenodd;fill:#5C472E;" d="M87.15,48.15c0.133,0,0.699,0.033,1.699,0.1
			c0.567,0,0.934,0.083,1.101,0.25l0.149,0.3c0.7,0.7,1.018,1.3,0.95,1.8c-0.333-0.466-0.683-0.666-1.05-0.6l0.2,0.25
			c-0.7-0.3-1.167-0.467-1.4-0.5c-0.8-0.033-1.433-0.083-1.899-0.15c-0.834-0.066-1.367-0.267-1.601-0.6
			c0-0.066,0.033-0.1,0.101-0.1l0.199-0.25C85.867,48.35,86.383,48.184,87.15,48.15z"/>
		<path style="fill-rule:evenodd;clip-rule:evenodd;fill:#5C472E;" d="M87.15,45.45c0.199,0.033,0.5,0.184,0.899,0.45
			c0.333,0.199,0.567,0.383,0.7,0.55c-1.033-0.3-1.75-0.434-2.15-0.4c-0.699,0.067-1.133,0.101-1.3,0.101
			c-0.533-0.033-0.883-0.167-1.05-0.4l1.1-0.2c0.167,0,0.467-0.033,0.9-0.1C86.65,45.384,86.95,45.384,87.15,45.45z"/>
		<path style="fill-rule:evenodd;clip-rule:evenodd;fill:#5C472E;" d="M88,44.85c1.288,0.054,1.871,0.354,1.75,0.9l-1.1-0.2
			c-0.233-0.066-0.384-0.149-0.45-0.25C88.133,45.233,88.066,45.083,88,44.85z"/>
		<path style="fill-rule:evenodd;clip-rule:evenodd;fill:#5C472E;" d="M42.75,52c0.133-0.066,0.467-0.116,1-0.15
			c0.4-0.066,0.7-0.216,0.9-0.449L44.3,51.05c0.233-0.399,1.033-0.649,2.4-0.75c1.133-0.133,1.8-0.033,2,0.3l0.05,0.7l-0.05,0.3
			c-0.1,0-0.2,0.018-0.3,0.051L48,52l-0.7,0.4c-0.2,0.199-0.333,0.316-0.4,0.35c-0.133-0.033-0.233-0.033-0.3,0
			c-0.133,0.066-0.233,0.2-0.3,0.4c-0.1,0.267-0.15,0.416-0.15,0.449c-0.233-0.033-0.383-0.166-0.45-0.399
			c-0.067-0.3-0.134-0.517-0.2-0.65c-0.1,0.233-0.233,0.317-0.4,0.25c-0.233-0.166-0.417-0.283-0.55-0.35
			C43.65,52.35,43.05,52.2,42.75,52z"/>
		<path style="fill-rule:evenodd;clip-rule:evenodd;fill:#5C472E;" d="M88.15,50.85l0.1,0.051c0.566-0.467,1.383-0.75,2.45-0.851
			c0.533-0.033,0.833-0.267,0.899-0.7c0-0.566,0.018-1,0.051-1.3c0.033-0.366,0.149-0.767,0.35-1.2
			c0.233-0.533,0.483-0.783,0.75-0.75c0.233,0.067,0.316,0.351,0.25,0.851c-0.133,0.333-0.2,0.533-0.2,0.6
			c0,0.134,0.05,0.317,0.15,0.55c-0.3,0-0.517,0.034-0.65,0.101l0.2,1.35c0,0.367-0.033,0.617-0.1,0.75l-0.551,0.65
			c-0.133,0.066-0.399,0.083-0.8,0.05c-0.5-0.066-0.816-0.1-0.95-0.1c-0.366,0.033-0.583,0.133-0.649,0.3
			c-0.067,0.1-0.117,0.366-0.15,0.8c-0.3-0.233-0.533-0.4-0.7-0.5c-0.3-0.133-0.517-0.033-0.649,0.3
			C87.95,51.4,88.017,51.083,88.15,50.85z"/>
		<path style="fill-rule:evenodd;clip-rule:evenodd;fill:#5C472E;" d="M50.85,50.8h0.4L51.8,50.9c0.2,0.666-0.05,0.883-0.75,0.649
			C50.316,51.283,50.25,51.033,50.85,50.8z"/>
		<path style="fill-rule:evenodd;clip-rule:evenodd;fill:#5C472E;" d="M51.6,52.2l0.15-0.05c0.233-0.367,0.7-0.634,1.4-0.801
			c0.567-0.133,1.117-0.183,1.65-0.149c-0.033,0.434-0.3,0.7-0.8,0.8c-0.633,0.066-1,0.167-1.1,0.3
			c-0.067,0.267-0.117,0.45-0.15,0.55c-0.033,0.134-0.25,0.167-0.65,0.101C51.533,52.884,51.367,52.634,51.6,52.2z"/>
		<path style="fill-rule:evenodd;clip-rule:evenodd;fill:#5C472E;" d="M56.85,54.05c0.066,0.067,0.15,0.167,0.25,0.3
			c0.033,0.067,0.15,0.134,0.35,0.2h1c0.833,0,1.3,0.017,1.4,0.05c0.5,0.101,0.8,0.384,0.9,0.851c0.1,0.6-0.117,0.85-0.65,0.75
			l-0.05,0.35c-0.233-0.033-0.517-0.149-0.85-0.35c-0.4-0.233-0.684-0.384-0.85-0.45c-0.733,0.033-1.267,0.017-1.6-0.05
			c-0.967-0.167-1.417-0.55-1.35-1.15c-0.267,0.033-0.5,0.05-0.7,0.05c-0.333,0-0.55-0.05-0.65-0.149
			c-0.133-0.167-0.133-0.384,0-0.65c0.134-0.267,0.283-0.433,0.45-0.5l-0.1,0.351c0.333,0,0.784,0,1.35,0
			C56.217,53.65,56.583,53.783,56.85,54.05z"/>
		<path style="fill-rule:evenodd;clip-rule:evenodd;fill:#5C472E;" d="M59.9,51.8L59.65,51.9c0.133-0.233,0.05-0.517-0.25-0.851
			c-0.233-0.3-0.2-0.5,0.1-0.6c0.367-0.134,0.75-0.066,1.15,0.2c0.4,0.233,0.583,0.533,0.55,0.899c0.966,0,1.517,0.117,1.65,0.351
			c0.133,0.199,0.15,0.383,0.05,0.55c-0.133,0.133-0.317,0.2-0.55,0.2c-0.067,0.166-0.017,0.416,0.15,0.75
			c0.133,0.3,0.184,0.533,0.15,0.699c-0.433-0.666-1.05-1.066-1.85-1.199c-0.6-0.101-0.983-0.2-1.15-0.301
			C59.383,52.4,59.467,52.134,59.9,51.8z"/>
		<path style="fill-rule:evenodd;clip-rule:evenodd;fill:#5C472E;" d="M65.1,54.1c0.2,0.034,0.65,0.051,1.351,0.051
			c0.7,0.066,1.017,0.283,0.95,0.649c-0.033,0.233-0.134,0.367-0.301,0.4c-0.033,0.033-0.217,0.066-0.55,0.1
			c-0.6,0.101-1.066,0.084-1.399-0.05c-0.2-0.133-0.334-0.283-0.4-0.45c-0.066-0.2,0.05-0.316,0.35-0.35V54.1h-0.05
			C64.983,54.033,65,53.967,65.1,53.9V54.1z"/>
		<path style="fill-rule:evenodd;clip-rule:evenodd;fill:#5C472E;" d="M68.7,47.3c-0.101-0.166-0.05-0.333,0.149-0.5
			c0.134-0.133,0.301-0.217,0.5-0.25l0.801-0.399c0.467-0.033,0.899,0,1.3,0.1c0.5,0.167,0.733,0.434,0.7,0.8
			c-0.033,0.3-0.233,0.483-0.601,0.55c-0.1,0.034-0.417,0.051-0.95,0.051c-0.399,0-0.732-0.017-1-0.051
			C69.066,47.566,68.767,47.467,68.7,47.3z"/>
	</g>
	<g>
		<path style="fill-rule:evenodd;clip-rule:evenodd;fill:#7D7368;" d="M46.15,47.3c-0.433,0.4-0.917,0.601-1.45,0.601
			c-0.634,0-0.95-0.25-0.95-0.75V47.1c0-0.232,0.15-0.482,0.45-0.75c0.3-0.232,0.65-0.383,1.05-0.449
			c0.367-0.101,0.733-0.084,1.1,0.05c0.167,0.033,0.3,0.133,0.4,0.3l0.05,0.2v0.1l-0.05,0.2C46.617,46.917,46.417,47.1,46.15,47.3z"
			/>
		<path style="fill-rule:evenodd;clip-rule:evenodd;fill:#7D7368;" d="M53.9,45.55v0.05c-0.067,0.301-0.383,0.617-0.95,0.95
			L52.8,46.7l-0.35,0.2c-0.667,0.233-1.233,0.366-1.7,0.399h-0.1c-0.433,0-0.85-0.166-1.25-0.5l-0.3-0.2l-0.05-0.1
			c0.5-0.066,0.817-0.167,0.95-0.3c0.066-0.033,0.1-0.117,0.1-0.25l0.05-0.3l0.7,0.05c0.5,0.066,0.917,0.066,1.25,0
			c0.4-0.101,0.733-0.25,1-0.45l0.4-0.55l0.2,0.3C53.833,45.167,53.9,45.35,53.9,45.55z"/>
		<path style="fill-rule:evenodd;clip-rule:evenodd;fill:#7D7368;" d="M56.45,47.3l-0.15-0.1C56.1,47,56,46.8,56,46.6
			c0-0.366,0.233-0.683,0.7-0.949c0.366-0.267,0.816-0.4,1.35-0.4l0.05-0.05c0.267-0.033,0.517-0.033,0.75,0l-0.05-0.05l-0.5-0.25
			h-0.15l-0.3-0.25L57.6,44.5l0.1-0.3c0.767,0.066,1.3,0.033,1.6-0.101c0.5-0.199,0.65-0.583,0.45-1.149l0.1-0.15
			c0.233-0.433,0.6-0.483,1.1-0.149c0.1,0.066,0.15,0.133,0.15,0.199l0.4,0.4l0.25,0.4v0.399l-0.2,0.4L61.3,44.7l-0.45,0.2
			c-0.333,0.166-0.7,0.25-1.1,0.25h-0.1l-0.7,0.1l0.6,0.1c0.467,0.2,0.7,0.467,0.7,0.801c0,0.133-0.05,0.25-0.15,0.35
			c-0.034,0.2-0.184,0.4-0.45,0.6c-0.533,0.4-1.216,0.601-2.05,0.601c-0.467,0-0.833-0.101-1.1-0.3L56.45,47.3z"/>
		<path style="fill-rule:evenodd;clip-rule:evenodd;fill:#7D7368;" d="M74.9,46.25c0.232,0.1,0.383,0.217,0.449,0.35h-0.1
			l-0.15-0.05l-0.5-0.25l-0.5-0.1l-0.55,0.1c-0.2,0.101-0.3,0.3-0.3,0.601l-0.2,0.399L72.9,47.95L73,48.35l0.3,0.2h-0.05
			c-0.6,0-1.017-0.183-1.25-0.55l-0.15-0.45L71.8,47.3c0-0.267,0.2-0.533,0.601-0.8c0.399-0.233,0.816-0.366,1.25-0.4h0.6
			l0.35,0.051L74.9,46.25z"/>
		<path style="fill-rule:evenodd;clip-rule:evenodd;fill:#59534B;" d="M70.5,51.75c0.667-0.133,1.167-0.383,1.5-0.75l0.8-0.7
			l0.2,0.15l0.05,0.149v0.15c0,0.167-0.066,0.384-0.2,0.65l-1.05,1.35c-0.767,0.667-1.55,1-2.35,1L68.5,53.6l-0.65-0.25l-0.199-0.1
			L68.1,52.9c0.134-0.033,0.217-0.101,0.25-0.2L68.9,52.35c0.199-0.1,0.366-0.199,0.5-0.3C69.566,51.95,69.934,51.85,70.5,51.75z
			 M75.9,46.95c0,0.133-0.15,0.383-0.45,0.75c-0.134,0.133-0.367,0.3-0.7,0.5l-0.15,0.1c-0.333,0.134-0.583,0.2-0.75,0.2
			c-0.232,0-0.416-0.033-0.55-0.1L73,48.2l-0.1-0.4l0.149-0.649l0.2-0.45c0-0.267,0.1-0.45,0.3-0.55
			c0.101-0.067,0.283-0.101,0.55-0.101l0.5,0.101c0.268,0.066,0.434,0.149,0.5,0.25l0.15,0.05h0.1C75.717,46.35,75.9,46.5,75.9,46.9
			V46.95z M76.5,51.3c0-0.2,0.15-0.45,0.45-0.75c0.366-0.333,0.733-0.583,1.1-0.75c0.434-0.233,0.8-0.35,1.101-0.35l0.25,0.1
			c0.166,0.167,0.25,0.367,0.25,0.601c0,0.166-0.067,0.333-0.2,0.5l-0.7,0.55l-1,0.45L77,51.75c-0.233,0-0.4-0.066-0.5-0.2V51.3z
			 M74.6,54.5l-0.949,0.05c-0.801,0-1.2-0.233-1.2-0.7V53.7l0.25-0.2l0.35-0.2L74.5,52.9l0.1-0.051c0.533-0.066,0.95-0.066,1.25,0
			l0.5,0.15c0.101,0.1,0.15,0.217,0.15,0.35v0.15c-0.1,0.267-0.367,0.5-0.8,0.7C75.633,54.233,75.267,54.333,74.6,54.5z"/>
		<path style="fill-rule:evenodd;clip-rule:evenodd;fill:#9A8B7C;" d="M43,50.7l0.2-0.351l0.7-1l3.45,0.4
			c0.3,0.1,0.5,0.217,0.6,0.35c0.1,0.101,0.15,0.284,0.15,0.551c0,0.3-0.083,0.533-0.25,0.699c-0.167,0.167-0.367,0.301-0.6,0.4
			c-0.767,0.233-1.95,0.35-3.55,0.35c-0.467,0-0.784-0.1-0.95-0.3c-0.1-0.033-0.15-0.116-0.15-0.25L43,50.7z M70.9,45.7
			c0.333,0.133,0.5,0.333,0.5,0.6v0.05c0,0.233-0.101,0.417-0.301,0.551c-0.3,0.233-0.75,0.35-1.35,0.35
			c-0.633,0-1.05-0.15-1.25-0.45l-0.1-0.149c-0.033,0-0.051-0.051-0.051-0.15v-0.1c0-0.301,0.15-0.533,0.45-0.7l0.101-0.05
			l0.699-0.2h0.25l0.5,0.05h0.2L70.9,45.7z M52.1,45.7c-0.333,0.066-0.75,0.066-1.25,0l-0.7-0.05l-0.05,0.3
			c0,0.133-0.034,0.217-0.1,0.25c-0.133,0.133-0.45,0.233-0.95,0.3H48.8c-0.467,0-0.75-0.133-0.85-0.4L47.9,45.7
			c0-0.267,0.3-0.583,0.9-0.95c0.6-0.366,1.233-0.667,1.9-0.9c0.8-0.199,1.45-0.283,1.95-0.25c0.6,0,0.9,0.217,0.9,0.65L53.5,44.7
			l-0.4,0.55C52.833,45.45,52.5,45.6,52.1,45.7z M65.5,41.5l0.05,0.05c0.2,0.101,0.3,0.267,0.3,0.5s-0.116,0.417-0.35,0.55
			l-0.7,0.15h-0.05c-0.467,0-0.816-0.116-1.05-0.35l-0.1-0.351c0-0.267,0.117-0.45,0.35-0.55c0.167-0.133,0.433-0.2,0.8-0.2
			C65.083,41.3,65.333,41.367,65.5,41.5z M59.85,42.8l-0.1,0.15c0.2,0.566,0.05,0.95-0.45,1.149c-0.3,0.134-0.833,0.167-1.6,0.101
			l-0.1,0.274l-0.15-0.125c-0.2-0.199-0.3-0.416-0.3-0.649c0-0.5,0.217-0.833,0.65-1c0.3-0.2,0.717-0.25,1.25-0.15L59.85,42.8z"/>
		<path style="fill-rule:evenodd;clip-rule:evenodd;fill:#A6866D;" d="M43.95,45.45c0.466-0.2,0.866-0.316,1.2-0.351
			c0.4-0.033,0.8,0.034,1.2,0.2c0.167,0.067,0.3,0.167,0.4,0.3c0.1,0.167,0.15,0.334,0.15,0.5l-0.1,0.351l-0.05-0.2
			c-0.1-0.167-0.233-0.267-0.4-0.3c-0.367-0.134-0.733-0.15-1.1-0.05c-0.4,0.066-0.75,0.217-1.05,0.449
			c-0.3,0.268-0.45,0.518-0.45,0.75l-0.2-0.199l-0.1-0.7c0-0.267,0.116-0.467,0.35-0.601L43.95,45.45z M39.6,49.45
			c-0.434,0-0.75-0.117-0.95-0.351c-0.1-0.1-0.15-0.232-0.15-0.399c0-0.2,0.184-0.367,0.55-0.5c0.233-0.101,0.6-0.184,1.1-0.25
			s0.867-0.05,1.1,0.05c0.3,0.066,0.467,0.167,0.5,0.3l0.1,0.2v0.05c0,0.233-0.3,0.45-0.9,0.65C40.45,49.367,40,49.45,39.6,49.45z
			 M54.8,42.8c0.333-0.033,0.634,0,0.9,0.101c0.2,0.133,0.3,0.25,0.3,0.35c0.066,0.066,0.1,0.2,0.1,0.4
			c0,0.233-0.083,0.433-0.25,0.6l-0.15,0.1c-0.233,0.134-0.55,0.2-0.95,0.2h-0.4c-0.3-0.033-0.534-0.166-0.7-0.399l-0.1-0.45
			c0-0.233,0.117-0.417,0.35-0.55c0.067-0.067,0.284-0.167,0.65-0.301L54.8,42.8z M55.85,40.75c0-0.233,0.25-0.45,0.75-0.65
			c0.466-0.166,1.033-0.267,1.7-0.3c0.6-0.033,1.134,0.033,1.6,0.2c0.3,0.033,0.534,0.167,0.7,0.4l0.1,0.35
			c0,0.3-0.2,0.517-0.6,0.65c-0.4,0.199-0.934,0.3-1.6,0.3c-1.133,0-1.9-0.134-2.3-0.4C55.967,41.134,55.85,40.95,55.85,40.75z
			 M48.65,42.85l0.55,0.2c0.3,0.167,0.45,0.351,0.45,0.55c0,0.467-0.466,0.7-1.4,0.7c-0.633,0-1.05-0.1-1.25-0.3l-0.1-0.35V43.6
			c0-0.267,0.15-0.482,0.45-0.649c0.233-0.134,0.533-0.167,0.9-0.101H48.65z"/>
		<path style="fill-rule:evenodd;clip-rule:evenodd;fill:#948A7D;" d="M69.55,48.9l0.851,0.55c0.467,0.333,0.699,0.566,0.699,0.7
			L70.95,50.55L70.9,50.6c-0.334-0.1-0.783-0.116-1.351-0.05L69.1,50.6c-0.433,0.101-0.833,0.25-1.199,0.45
			c-0.533,0.334-0.801,0.684-0.801,1.05c0,0.21,0.067,0.394,0.2,0.551c-0.333-0.134-0.583-0.267-0.75-0.4l-0.1,0.15v0.1l-0.5-0.6
			c-0.2-0.367-0.351-0.733-0.45-1.101l-0.15-0.5c0-0.433,0.15-0.8,0.45-1.1c0.233-0.2,0.467-0.351,0.7-0.45
			c0.667-0.233,1.517-0.333,2.55-0.3c0.7,0,1.3,0.1,1.8,0.3C70.483,48.75,70.05,48.8,69.55,48.9z M67.45,48.75
			c-0.4,0.066-0.7,0.167-0.9,0.3l-0.2,0.2c-0.166,0.1-0.25,0.233-0.25,0.4c0,0.133,0.051,0.267,0.15,0.399
			c0.167,0.2,0.483,0.3,0.95,0.3c0.267,0,0.6-0.083,1-0.25l0.35-0.25c0.134-0.133,0.2-0.267,0.2-0.399c0-0.3-0.15-0.5-0.45-0.601
			C68.033,48.75,67.75,48.717,67.45,48.75z M73.95,51.6l0.649-0.05l0.851,0.2l0.25,0.1c-0.333,0-0.7,0.15-1.101,0.45l-0.8,0.95
			l-0.75,0.2l-0.35,0.2h-0.15c-0.267,0-0.433-0.051-0.5-0.15L71.9,53.15L71.85,53.3V53.15l-0.05-0.2l0.8-1.05
			C73.133,51.7,73.583,51.6,73.95,51.6z M75.75,51.1l-0.4-0.3L75,50.4l-0.05-0.25c0-0.434,0.217-0.817,0.649-1.15
			c0.434-0.267,0.9-0.4,1.4-0.4c0.633,0.067,1.117,0.217,1.45,0.45l0.2,0.15c-0.334,0-0.684,0.116-1.051,0.35
			c-0.5,0.267-0.933,0.533-1.3,0.8c-0.399,0.301-0.6,0.483-0.6,0.551L75.75,51.1z"/>
		<path style="fill-rule:evenodd;clip-rule:evenodd;fill:#A3998A;" d="M68.75,49.45c0,0.133-0.066,0.267-0.2,0.399L68.2,50.1
			c-0.4,0.167-0.733,0.25-1,0.25c-0.467,0-0.783-0.1-0.95-0.3c-0.1-0.133-0.15-0.267-0.15-0.399c0-0.167,0.084-0.301,0.25-0.4
			l0.2-0.2c0.2-0.133,0.5-0.233,0.9-0.3c0.3-0.033,0.583,0,0.85,0.1C68.6,48.95,68.75,49.15,68.75,49.45z M56.45,47.3L56.5,47.4
			l-0.1-0.051c-0.367-0.033-0.65-0.183-0.85-0.449l-0.15-0.45V46.2c0-0.4,0.2-0.733,0.6-1l0.65-0.25l0.8-0.101l0.7,0.051h0.15
			l0.5,0.25l0.05,0.05c-0.233-0.033-0.483-0.033-0.75,0l-0.05,0.05c-0.533,0-0.983,0.134-1.35,0.4C56.233,45.917,56,46.233,56,46.6
			c0,0.2,0.1,0.4,0.3,0.601L56.45,47.3z"/>
		<path style="fill-rule:evenodd;clip-rule:evenodd;fill:#7D7368;" d="M70.85,48.75c0.867-0.033,1.483,0.1,1.851,0.4
			c0.233,0.233,0.35,0.717,0.35,1.449v0.15L73,50.6l-0.2-0.1L72,51.15c-0.333,0.366-0.833,0.616-1.5,0.75
			c-0.633,0.166-1.167,0.383-1.6,0.649l-0.801,0.5L67.65,53.4l0.199,0.1l-0.5-0.15c-0.633-0.232-0.949-0.482-0.949-0.75l0.05-0.1
			v-0.1l0.1-0.15c0.167,0.134,0.417,0.267,0.75,0.4c-0.133-0.157-0.2-0.341-0.2-0.551c0-0.366,0.268-0.716,0.801-1.05
			c0.366-0.2,0.767-0.35,1.199-0.45l0.45-0.05c0.567-0.066,1.017-0.05,1.351,0.05l0.05-0.05L71.1,50.15
			c0-0.134-0.232-0.367-0.699-0.7L69.55,48.9C70.05,48.8,70.483,48.75,70.85,48.75z M76.5,51.55c-0.333-0.066-0.55-0.166-0.65-0.3
			l-0.1-0.15L75.7,50.9c0-0.067,0.2-0.25,0.6-0.551c0.367-0.267,0.8-0.533,1.3-0.8c0.367-0.233,0.717-0.35,1.051-0.35
			c0.399-0.033,0.649,0.149,0.75,0.55c-0.067-0.066-0.15-0.1-0.25-0.1c-0.301-0.033-0.667,0.066-1.101,0.3
			c-0.366,0.167-0.733,0.417-1.1,0.75c-0.3,0.366-0.45,0.616-0.45,0.75V51.55z M76,51.95c0.4,0.1,0.6,0.316,0.6,0.649
			c0,0.134-0.083,0.317-0.25,0.551L75.85,53c-0.366-0.066-0.783-0.05-1.25,0.05h-0.1l-0.7,0.2l0.8-0.95
			c0.4-0.3,0.768-0.45,1.101-0.45L76,51.95z"/>
		<path style="fill-rule:evenodd;clip-rule:evenodd;fill:#59534B;" d="M58.85,45.9H59c0.167-0.033,0.383-0.101,0.65-0.2
			c0.233-0.033,0.4,0.083,0.5,0.35c0.167,0.5-0.117,0.983-0.85,1.45c-0.333,0.2-0.917,0.3-1.75,0.3c-0.9-0.033-1.333-0.25-1.3-0.649
			c0.633,0,1.1-0.167,1.4-0.5C57.85,46.483,58,46.3,58.1,46.1C58.233,45.967,58.483,45.9,58.85,45.9z"/>
		<path style="fill-rule:evenodd;clip-rule:evenodd;fill:#59534B;" d="M62,43.4c0.2,0.366,0.066,0.783-0.4,1.25
			c-0.3,0.333-0.8,0.533-1.5,0.6c-0.7,0.066-1.217-0.05-1.55-0.35c0.1-0.233,0.533-0.417,1.3-0.551
			c0.539-0.085,0.813-0.326,0.825-0.725c0.136-0.063,0.344-0.222,0.625-0.475C61.6,42.983,61.833,43.066,62,43.4z"/>
		<path style="fill-rule:evenodd;clip-rule:evenodd;fill:#59534B;" d="M53.4,45.7h0.25c-0.167,0.5-0.333,0.833-0.5,1
			c-0.2,0.267-0.517,0.467-0.95,0.6c-0.434,0.134-0.917,0.167-1.45,0.101c-0.7-0.101-1-0.384-0.9-0.851
			c0.933-0.066,1.533-0.133,1.8-0.2C52.25,46.25,52.833,46.033,53.4,45.7z"/>
		<path style="fill-rule:evenodd;clip-rule:evenodd;fill:#59534B;" d="M45.85,46.65h-0.6c0.233-0.233,0.617-0.317,1.15-0.25
			c-0.167,0.833-0.767,1.217-1.8,1.149C44.667,47.117,45.083,46.816,45.85,46.65z"/>
		<path style="fill-rule:evenodd;clip-rule:evenodd;fill:#7D7368;" d="M54.9,52.65V52.55c0.1,0,0.433,0.033,1,0.101
			c0.1,0.967-0.233,1.467-1,1.5c-0.8,0.033-1.2-0.2-1.2-0.7S54.1,52.684,54.9,52.65z"/>
		<path style="fill-rule:evenodd;clip-rule:evenodd;fill:#948A7D;" d="M85.55,44.1L85.4,44.15c0.133,0.033,0.35,0.066,0.649,0.1
			c0.3,0.066,0.5,0.15,0.601,0.25c0.199,0.2,0.25,0.434,0.149,0.7c-0.1,0.267-0.267,0.45-0.5,0.55c-0.433,0.1-0.983,0.134-1.649,0.1
			c-0.801-0.033-1.25-0.199-1.351-0.5c-0.167-0.533,0.083-0.866,0.75-1C84.45,44.283,84.95,44.2,85.55,44.1z"/>
		<path style="fill-rule:evenodd;clip-rule:evenodd;fill:#948A7D;" d="M87.925,44.375L87.8,44.35c0.3-0.033,0.583,0.051,0.851,0.25
			c0.3,0.233,0.283,0.467-0.051,0.7c-0.066,0.067-0.267,0.067-0.6,0c-0.333-0.033-0.517-0.083-0.55-0.149
			c-0.134-0.167-0.117-0.351,0.05-0.551C87.633,44.44,87.774,44.365,87.925,44.375z"/>
		<path style="fill-rule:evenodd;clip-rule:evenodd;fill:#948A7D;" d="M87.125,46.65c0.598,0.054,1.206,0.287,1.825,0.699
			c0.8,0.534,0.883,1.067,0.25,1.601c-0.5,0.434-1.25,0.6-2.25,0.5c-0.934-0.101-1.684-0.367-2.25-0.8
			c-0.767-0.5-0.617-0.983,0.45-1.45C85.874,46.882,86.532,46.698,87.125,46.65z"/>
		<path style="fill-rule:evenodd;clip-rule:evenodd;fill:#7D7368;" d="M88.25,47.15h0.05c0.367,0,0.7,0.1,1,0.3
			c0.333,0.233,0.5,0.533,0.5,0.899c0,0.534-0.233,0.851-0.7,0.95c-0.133,0.033-0.566,0.05-1.3,0.05c-0.8,0-1.467-0.083-2-0.25
			C85.4,49,85.1,48.9,84.9,48.8c-0.4-0.166-0.601-0.366-0.601-0.6c0.167,0,0.567,0.017,1.2,0.05c0.5,0.033,0.9,0.017,1.2-0.05
			c0.133-0.033,0.316-0.083,0.55-0.15c0.2-0.033,0.333-0.133,0.4-0.3c0.066-0.233,0.116-0.4,0.149-0.5S87.983,47.117,88.25,47.15z"
			/>
		<path style="fill-rule:evenodd;clip-rule:evenodd;fill:#7D7368;" d="M85.8,44.55L85.55,44.4l-0.2-0.351
			c0.801,0,1.317,0.167,1.551,0.5C87.2,45.017,87,45.4,86.3,45.7c-0.333,0.167-0.899,0.25-1.7,0.25
			c-0.933,0.033-1.383-0.134-1.35-0.5c0.767-0.066,1.217-0.134,1.35-0.2c0.101-0.033,0.283-0.184,0.551-0.45
			C85.316,44.634,85.533,44.55,85.8,44.55z"/>
		<path style="fill-rule:evenodd;clip-rule:evenodd;fill:#7D7368;" d="M88.4,44.75l0.1,0.05c0.2-0.033,0.316,0.017,0.35,0.15
			c0.033,0.133-0.033,0.25-0.199,0.35c-0.134,0.134-0.434,0.134-0.9,0c0.033-0.2,0.25-0.333,0.65-0.399V44.75z"/>
		<path style="fill-rule:evenodd;clip-rule:evenodd;fill:#59534B;" d="M89.1,47.85L89.65,48.2c0.1,0.866-0.5,1.3-1.801,1.3
			c-0.399,0-0.8-0.05-1.199-0.15c-0.667,0-1.15-0.066-1.45-0.199c0.066-0.167,0.333-0.25,0.8-0.25c0.233,0,0.55,0,0.95,0
			c0.433,0,0.866-0.184,1.3-0.551c0.1-0.066,0.267-0.116,0.5-0.149c0.066-0.033,0.1-0.101,0.1-0.2
			C88.883,47.9,88.967,47.85,89.1,47.85z"/>
		<path style="fill-rule:evenodd;clip-rule:evenodd;fill:#59534B;" d="M86.5,44.8h-0.1c0.133-0.166,0.267-0.2,0.399-0.1
			c0.134,0.133,0.2,0.283,0.2,0.45c0,0.399-0.2,0.649-0.6,0.75c-0.268,0.1-0.634,0.116-1.101,0.05
			c-0.32-0.057-0.579-0.09-0.774-0.101c0.435-0.019,0.76-0.069,0.975-0.149c0.167-0.033,0.333-0.184,0.5-0.45
			C86.2,45.017,86.367,44.867,86.5,44.8z"/>
		<path style="fill-rule:evenodd;clip-rule:evenodd;fill:#59534B;" d="M88.5,45.05h-0.15c0.167-0.1,0.4-0.116,0.7-0.05
			c0,0.2-0.149,0.3-0.45,0.3c-0.333,0-0.55,0-0.649,0C88.017,45.2,88.2,45.117,88.5,45.05z"/>
		<path style="fill-rule:evenodd;clip-rule:evenodd;fill:#7D7368;" d="M42.6,51.9c-0.067-0.233,0.183-0.384,0.75-0.45
			c0.3-0.033,0.683-0.066,1.15-0.101l1.1-0.199c0.233-0.033,0.517-0.184,0.85-0.45c0.1-0.033,0.3-0.05,0.6-0.05
			c0.267-0.067,0.367-0.2,0.3-0.4l0.05,0.05c0.067-0.233,0.3-0.316,0.7-0.25c0.066,0.467-0.083,0.917-0.45,1.351
			c-0.367,0.467-0.8,0.717-1.3,0.75C45.417,52.316,44.167,52.233,42.6,51.9z"/>
		<path style="fill-rule:evenodd;clip-rule:evenodd;fill:#635D54;" d="M55.85,53.1l0.05,0.25c0.067,0.467-0.017,0.733-0.25,0.801
			c-0.033,0.033-0.167,0.05-0.4,0.05s-0.383-0.017-0.45-0.05c-0.366-0.233-0.333-0.45,0.1-0.65
			C55.133,53.367,55.45,53.233,55.85,53.1z"/>
		<path style="fill-rule:evenodd;clip-rule:evenodd;fill:#59534B;" d="M45.55,52.35c-0.566,0.067-1.066,0.018-1.5-0.149V52.1
			c0.2-0.066,0.533-0.083,1-0.05C45.483,52.083,45.8,52.066,46,52c0.133-0.033,0.333-0.184,0.6-0.45
			c0.233-0.267,0.45-0.433,0.65-0.5l0.05-0.25c0.067-0.166,0.233-0.283,0.5-0.35c0.233-0.033,0.384,0.033,0.45,0.2l-0.2,0.6
			c-0.233,0.4-0.566,0.667-1,0.8C46.15,52.25,45.65,52.35,45.55,52.35z"/>
		<path style="fill-rule:evenodd;clip-rule:evenodd;fill:#A6866D;" d="M61.15,50.4l-0.3,0.25c0.433-0.233,0.917-0.15,1.45,0.25
			c0.5,0.399,0.517,0.8,0.05,1.199c-0.233,0.2-0.733,0.334-1.5,0.4c-0.767,0.033-1.25-0.033-1.45-0.2
			c-0.367-0.3-0.233-0.683,0.4-1.149C60.133,50.917,60.583,50.667,61.15,50.4z"/>
		<path style="fill-rule:evenodd;clip-rule:evenodd;fill:#A6866D;" d="M59.85,50.45c-0.133,0.1-0.3,0.149-0.5,0.149
			c-0.2,0-0.35-0.066-0.45-0.199c-0.167-0.2-0.1-0.384,0.2-0.551c0.267-0.166,0.517-0.216,0.75-0.149c0.267,0.1,0.433,0.3,0.5,0.6
			c0.033,0.334-0.133,0.467-0.5,0.4V50.45z"/>
		<path style="fill-rule:evenodd;clip-rule:evenodd;fill:#A6866D;" d="M54.1,50.55l-0.2,0.101c0.133,0,0.383-0.017,0.75-0.051
			c0.333,0,0.534,0.067,0.6,0.2c0.167,0.3,0,0.55-0.5,0.75c-0.233,0.067-0.583,0.084-1.05,0.05c-0.5-0.033-0.767-0.133-0.8-0.3
			C52.9,50.934,53.3,50.684,54.1,50.55z"/>
		<path style="fill-rule:evenodd;clip-rule:evenodd;fill:#A6866D;" d="M51.675,51.75L51.4,51.8c0.4-0.267,0.767-0.25,1.1,0.05
			c0.333,0.301,0.25,0.567-0.25,0.801c-0.467,0.233-0.8,0.149-1-0.25C51.104,52.077,51.245,51.86,51.675,51.75z"/>
		<path style="fill-rule:evenodd;clip-rule:evenodd;fill:#A6866D;" d="M50.85,50.55c0.167-0.066,0.333-0.033,0.5,0.101
			c0.2,0.1,0.2,0.233,0,0.399c-0.1,0.167-0.4,0.184-0.9,0.05C50.387,50.751,50.52,50.567,50.85,50.55z"/>
		<path style="fill-rule:evenodd;clip-rule:evenodd;fill:#A6866D;" d="M66.15,53.8l-0.25,0.15c0.3-0.033,0.6,0.017,0.899,0.149
			c0.333,0.167,0.4,0.4,0.2,0.7c-0.133,0.167-0.517,0.233-1.15,0.2c-0.566-0.033-0.982-0.1-1.25-0.2c-0.1-0.333,0.067-0.6,0.5-0.8
			C65.467,53.833,65.816,53.767,66.15,53.8z"/>
		<path style="fill-rule:evenodd;clip-rule:evenodd;fill:#9A8B7C;" d="M57.35,53.45l-0.5,0.2c0.167-0.233,0.683-0.351,1.55-0.351
			c0.867-0.033,1.417,0.05,1.65,0.25c0.267,0.233,0.4,0.55,0.4,0.95c-0.034,0.367-0.2,0.667-0.5,0.9c-0.267,0.199-0.9,0.3-1.9,0.3
			S56.4,55.6,56.1,55.4c-0.567-0.367-0.6-0.75-0.1-1.15C56.1,54.15,56.55,53.884,57.35,53.45z"/>
		<path style="fill-rule:evenodd;clip-rule:evenodd;fill:#7D7368;" d="M60,54.15l-0.1-0.25c0.6-0.067,0.784,0.283,0.55,1.05
			c-0.1,0.333-0.233,0.55-0.4,0.649c-0.1,0.034-0.366,0.051-0.8,0.051c-0.733,0.033-1.316,0.05-1.75,0.05
			c-0.7,0-1.233-0.101-1.6-0.3c0.3-0.167,0.883-0.317,1.75-0.45c0.367-0.101,0.967-0.2,1.8-0.3
			C59.583,54.583,59.767,54.417,60,54.15z"/>
	</g>
	<g>
		<path style="fill-rule:evenodd;clip-rule:evenodd;fill:#808043;" d="M73.375,40.9c0.268,0.008,0.626,0.107,1.075,0.3
			c0.533,0.2,0.833,0.399,0.899,0.6c-0.866-0.1-1.482-0.149-1.85-0.149h-2.6c-1.467,0-2.283,0.017-2.45,0.05s-0.767,0.383-1.8,1.05
			c-0.434,0.233-0.983,0.434-1.65,0.6c-1.167,0.268-1.767,0.4-1.8,0.4c-0.333,0.066-0.75,0.367-1.25,0.9
			c-0.467,0.467-0.917,0.733-1.35,0.8c0.267-0.134,0.517-0.351,0.75-0.65c0.1-0.2,0.283-0.483,0.55-0.85
			c0.3-0.367,0.633-0.617,1-0.75c0.167-0.066,0.6-0.167,1.3-0.3c0.6-0.134,1.149-0.367,1.649-0.7c0.301-0.2,0.783-0.533,1.45-1
			c0.5-0.333,1.45-0.467,2.851-0.4L73.6,40.9H73.375z"/>
		<path style="fill-rule:evenodd;clip-rule:evenodd;fill:#7A7A38;" d="M85.35,49.25h0.101v0.05l-2.55,4.55l-1.2,2.801
			C81.566,56.85,81.5,57,81.5,57.1c-0.4,0.934-0.684,1.4-0.85,1.4c-0.167,0-0.25-0.1-0.25-0.3c-0.067-0.101-0.067-0.217,0-0.351
			l0.149-0.699c-0.233,0.699-0.399,1.05-0.5,1.05c-0.167,0-0.25-0.117-0.25-0.351l1.25-4.6c1.101-2.533,1.833-4.017,2.2-4.45
			l0.2,0.101l0.05,0.149l-1.3,2.9c-0.7,1.633-1.101,2.816-1.2,3.55l-0.2,0.9c0.367-1.101,0.967-2.334,1.8-3.7
			C83.8,50.566,84.717,49.417,85.35,49.25z"/>
		<path style="fill-rule:evenodd;clip-rule:evenodd;fill:#7A7A38;" d="M39.4,47.9c0.1,0,0.15,0.149,0.15,0.449l-1,2.75
			c-0.6,1.934-0.967,3.301-1.1,4.101v1.55c0,0.1-0.034,0.15-0.1,0.15l-0.15,0.05c-0.2,0-0.333-0.15-0.4-0.45l-0.05,0.25
			c0,0.1-0.033,0.15-0.1,0.15L36.5,57c-0.3,0-0.5-0.15-0.6-0.45c-0.133,0.134-0.233,0.2-0.3,0.2c-0.4,0-0.583-0.583-0.55-1.75
			l0.1-1.7c0.1-0.666,0.233-1.267,0.4-1.8c0.267-0.733,0.567-1.316,0.9-1.75h0.05c0.1,0.3,0.05,0.85-0.15,1.65v0.05l0.3-0.75
			c0.4-1.333,0.75-2.083,1.05-2.25v1.3l-0.85,3.65c-0.133,0.666-0.2,1.233-0.2,1.699c0,0.322,0.025,0.581,0.075,0.775
			c-0.042-0.184-0.034-0.392,0.025-0.625c0-0.566,0.05-1.133,0.15-1.7c0-0.166,0.333-1.149,1-2.95c0.167-1,0.517-1.8,1.05-2.399
			C39.15,48,39.3,47.9,39.4,47.9z"/>
		<path style="fill-rule:evenodd;clip-rule:evenodd;fill:#7A7A38;" d="M98.9,50.8c-0.2,0.467-0.301,1.25-0.301,2.351L95.75,55.3
			c0.066-0.467,0.017-1.183-0.15-2.149c-0.133-1.067-0.199-1.817-0.199-2.25c0.133-1.667,0.517-3.017,1.149-4.051
			c0.033,0.9,0.033,2.101,0,3.601c0.067,1.2,0.351,2.316,0.851,3.35c0-0.899,0.017-1.55,0.05-1.95
			c0.033-0.767,0.217-1.383,0.55-1.85c0.3-0.434,0.65-0.684,1.05-0.75c0.7-0.133,1.134-0.233,1.3-0.3
			C99.583,49.684,99.1,50.3,98.9,50.8z"/>
		<path style="fill-rule:evenodd;clip-rule:evenodd;fill:#7A7A38;" d="M95.1,55.8l1.15,0.15c-1.167,0.533-1.9,0.283-2.2-0.75
			c-0.399-1.367-0.816-2.134-1.25-2.3c0.8-0.367,1.483-0.134,2.05,0.699C95.45,54.4,95.533,55.134,95.1,55.8z"/>
		<path style="fill-rule:evenodd;clip-rule:evenodd;fill:#7A7A38;" d="M73.45,43.35c0.899,0.334,1.616,0.967,2.149,1.9
			c0.391,0.703,0.607,1.429,0.65,2.175c0.046-4.332,0.546-7.356,1.5-9.075c0,0.768,0.017,2.5,0.05,5.2
			c0.033,2.167,0.017,3.9-0.05,5.2c-0.467-0.033-0.967,0.017-1.5,0.15c-0.566,0.166-0.967,0.399-1.2,0.699
			c-0.1-0.033-0.149-0.066-0.149-0.1c0.033-0.1,0.033-0.167,0-0.2l0.199-0.5c0-1.333-0.066-2.316-0.199-2.95
			C74.667,44.917,74.184,44.083,73.45,43.35z"/>
		<path style="fill-rule:evenodd;clip-rule:evenodd;fill:#7A7A38;" d="M49.4,42.15c-0.267-0.367-0.65-0.584-1.15-0.65
			c-0.833-0.066-1.283-0.116-1.35-0.15c2.267-0.399,3.6,0.034,4,1.301c0.1-0.7-0.067-1.584-0.5-2.65c-0.533-1.167-0.9-2-1.1-2.5
			c0.767,0.434,1.417,1.35,1.95,2.75c0.5,1.333,0.667,2.45,0.5,3.35c-0.967,0.134-1.633,0.367-2,0.7H49.4
			c0.133-0.233,0.217-0.583,0.25-1.05C49.65,42.75,49.566,42.384,49.4,42.15z"/>
		<path style="fill-rule:evenodd;clip-rule:evenodd;fill:#878745;" d="M43.25,50c0.1-0.733-0.083-1.383-0.55-1.95
			c-0.233-0.267-0.767-0.717-1.6-1.35c0.833-0.033,1.466,0.133,1.9,0.5c0.3,0.233,0.767,0.717,1.4,1.45
			c0.067-0.7,0.017-1.5-0.15-2.4c-0.133-1-0.35-1.8-0.65-2.4c0.667,0.7,1.167,1.601,1.5,2.7c0.367,1.101,0.466,2.134,0.3,3.101
			c-0.333,0.133-0.883,0.199-1.65,0.199L43.25,50z"/>
		<path style="fill-rule:evenodd;clip-rule:evenodd;fill:#808043;" d="M92.3,45.4c0.267,0,0.434,0.083,0.5,0.25
			c0.134,0.166,0.134,0.517,0,1.05c-0.033,0.167-0.149,0.366-0.35,0.6c-0.167,0.233-0.283,0.417-0.351,0.55
			c-0.066,0.268-0.05,0.733,0.051,1.4c-0.033,0.566-0.317,0.934-0.851,1.1c-0.267,0.101-0.816,0.167-1.649,0.2
			c-0.301,0.033-0.667,0.184-1.101,0.45c-0.381,0.214-0.605,0.431-0.675,0.65c0.03-0.286,0.122-0.569,0.275-0.851
			c0.199-0.366,0.482-0.616,0.85-0.75c0.133-0.033,0.5-0.066,1.1-0.1c0.434-0.033,0.768-0.167,1-0.4
			c0.268-0.267,0.367-0.616,0.301-1.05c-0.167-0.566-0.184-0.95-0.051-1.15c0.067-0.1,0.2-0.216,0.4-0.35
			c0.133-0.066,0.217-0.217,0.25-0.45v-1l-0.2,0.101C91.833,45.483,92,45.4,92.3,45.4z"/>
	</g>
</g>
</svg>
