<?xml version="1.0" encoding="iso-8859-1"?>
<!-- Generator: Adobe Illustrator 15.1.0, SVG Export Plug-In . SVG Version: 6.00 Build 0)  -->
<!DOCTYPE svg PUBLIC "-//W3C//DTD SVG 1.1//EN" "http://www.w3.org/Graphics/SVG/1.1/DTD/svg11.dtd">
<svg version="1.1" id="FlashAICB" xmlns="http://www.w3.org/2000/svg" xmlns:xlink="http://www.w3.org/1999/xlink" x="0px" y="0px"
	 width="195.9px" height="37px" viewBox="0 0 195.9 37" style="enable-background:new 0 0 195.9 37;" xml:space="preserve">
<path style="fill-rule:evenodd;clip-rule:evenodd;fill:#645A24;" d="M130.7,2c7.1-0.733,12.149-0.75,15.149-0.05
	c1.5,0.366,2.284,0.8,2.351,1.3c-1,0.333-2.583,0.5-4.75,0.5c-1.367,0-2.316,0.25-2.851,0.75L140.2,5.25l9.2,5.25
	c6.5,3.5,10.683,5.25,12.55,5.25c3,0,14.25,1.3,33.75,3.9c-2.5,0.899-4.283,1.233-5.351,1c-0.566-0.134-1.583,0-3.05,0.399
	c-1.633,0.467-2.75,0.7-3.35,0.7c-0.634,0-1.934,0.134-3.9,0.4c-1.967,0.233-3.333,0.35-4.1,0.35c-0.9,0-2.117,0.1-3.65,0.3
	l-3.85,0.45c-1.033,0.1-3.233,0.134-6.601,0.1c-3.6-0.066-5.816-0.1-6.649-0.1c-0.9,0-2.066-0.167-3.5-0.5
	c-1.367-0.3-2.267-0.45-2.7-0.45c-0.767,0.066-2.95,0.066-6.55,0c-3.767-0.066-6.134-0.166-7.101-0.3c-0.866-0.1-2.533,0.3-5,1.2
	c-2.433,0.967-3.816,1.483-4.149,1.55c-1.333,0.333-2.417,0.667-3.25,1c-0.4,0.167-0.8,0.483-1.2,0.95
	c-0.333,0.366-0.684,0.55-1.05,0.55c-0.5,0-1.934,0.233-4.3,0.7c-2.4,0.467-3.967,0.816-4.7,1.05c-0.634,0.2-1.283,0.684-1.95,1.45
	l-0.8,1.05c-0.233,0.333-0.566,0.65-1,0.95c-0.867,0.566-1.733,0.75-2.601,0.55c-0.833-0.2-1.166-0.017-1,0.55
	c0.134,0.334,0.334,0.9,0.601,1.7c0,0.667-0.417,1.25-1.25,1.75c-3.733-1.066-7.583-2.134-11.55-3.2
	c-7.933-2.066-12.417-3-13.45-2.8c-1.2,0.233-1.9,0.35-2.1,0.35c-0.034,0-1.167-0.199-3.4-0.6c-1.767-0.3-3.967-0.767-6.6-1.4
	l-3.4-0.85l7.25-2c0.966-0.2,0.883-0.566-0.25-1.1c-1.9-0.767-3.483-1.4-4.75-1.9c-1.567-0.634-4.1-0.767-7.6-0.4
	c-3.6,0.534-5.817,0.834-6.65,0.9c-0.733,0.066-1.417,0.267-2.05,0.6C48.617,24.866,47.8,25,46.7,25h-7.25
	c-5.5,0.167-9.083,0.25-10.75,0.25c-1.1,0-3.7-0.384-7.8-1.15c-3.7-0.699-5.85-1.149-6.45-1.35c-0.2-0.066-1.45-0.083-3.75-0.05
	c-2.233,0.066-3.483,0-3.75-0.2l-6.5-3.4l4.7,0.15c3.667,0.1,6.85,0.1,9.55,0c2.7-0.1,4.7-0.4,6-0.9c0.933-0.367,2.933-1.233,6-2.6
	l45.65-6.2C104.184,5.25,123.634,2.733,130.7,2z"/>
<path style="fill-rule:evenodd;clip-rule:evenodd;fill:#65731D;" d="M123,0.3l1.75-0.15C126.217,0.05,127.634,0,129,0
	c1.8,0,3.583,0.1,5.35,0.3c1.768,0.233,3.983,0.35,6.65,0.35c2,0,3.1,0.017,3.3,0.05c1,0.133,2.017,0.566,3.05,1.3
	c0.967,0.667,1.034,0.983,0.2,0.95c-1.7-0.2-3.217-0.3-4.55-0.3c-1.6,0-2.333,0.1-2.2,0.3c0.4,0.633,0.584,0.983,0.55,1.05
	c-0.166,0.434,0.917,0.783,3.25,1.05c1.768,0.167,3.684,0.25,5.75,0.25c1.4,0,2.4,0.117,3,0.35c0.434,0.167,1.101,0.617,2,1.35
	l1.351,0.35c1.1,0.3,2.2,0.517,3.3,0.65c1.8,0.2,4.25,0.633,7.35,1.3c1.334,0.233,3.667,1.134,7,2.7l1.351,0.65
	c1.066,0.534,3.066,1.083,6,1.65c2.2,0.467,3.083,0.8,2.649,1l3.45,1.2c2.434,0.867,4.067,1.367,4.9,1.5
	c1,0.167,1.633,0.316,1.899,0.45c0.233,0.133,0.601,0.533,1.101,1.2c0.333,0.466,0.233,0.683-0.3,0.649
	c-1.567-0.1-3.25,0.017-5.051,0.351c-2.267,0.433-4.066,0.666-5.399,0.699c-1.5-0.033-2.816-0.05-3.95-0.05
	c-1,0-4.017,0.233-9.05,0.7c-5.566,0.533-9.767,0.866-12.601,1c-3.199,0.134-5.133,0.15-5.8,0.05
	c-0.899-0.267-2.416-0.517-4.55-0.75c-2.633-0.267-4.633-0.399-6-0.399l-1.3,0.1h-6.351c-1.533,0-2.816,0.066-3.85,0.2
	c-1.566,0.2-3.95,0.684-7.15,1.45c-2.333,0.566-3.316,0.85-2.949,0.85c1.1,0,1.199,0.267,0.3,0.8c-1.033,0.634-1.9,0.934-2.601,0.9
	c-1.267-0.101-2.3-0.066-3.1,0.1c-1.467,0.3-2.833,0.733-4.1,1.3c-0.7,0.334-2,1.017-3.9,2.051c-1,0.566-1.417,0.883-1.25,0.949
	c0.5,0.267,0.583,0.834,0.25,1.7c-0.333,0.9-0.533,1.267-0.6,1.101c-0.134-0.5-0.483-0.634-1.051-0.4l-0.8,0.35
	c0.101,0.101-0.083,0.317-0.55,0.65c-0.533,0.434-0.75,1.066-0.65,1.9c0.067,0.399,0.184,0.767,0.351,1.1H102
	c-0.7,0-1.45-0.134-2.25-0.4L98.7,36.15c-1.566-0.101-4.017-0.601-7.35-1.5L88.9,34c0.1,0.1-0.633-0.017-2.2-0.35l-1.95-0.426
	C85.038,33.279,84.788,33.204,84,33c-1.267-0.333-2.017-0.55-2.25-0.65c-0.133-0.033-1.15-0.483-3.05-1.35
	c-1.467-0.667-2.25-0.934-2.35-0.8L76,30.65c-0.7,0-2.25-0.217-4.65-0.65L66,29.3c-2.2-0.267-3.083-0.566-2.65-0.899
	c0.233-0.167,0.683-0.301,1.35-0.4c-2-1.134-4.117-2.033-6.35-2.7c-1-0.3-2.117-0.483-3.35-0.55c-0.8-0.033-1.566-0.283-2.3-0.75
	c-0.667-0.434-1.267-0.616-1.8-0.55c-1.566,0.267-3.75,0.333-6.55,0.2c-3.467-0.134-5.45-0.117-5.95,0.05l0.3,0.3h-7
	c-2.067,0-3.534-0.05-4.4-0.15c-0.966-0.133-1.95-0.25-2.95-0.35c-1.267-0.134-2-0.233-2.2-0.3c-0.3-0.134-0.783-0.316-1.45-0.55
	c-0.667-0.2-1.05-0.301-1.15-0.301c-0.333,0-1.066-0.116-2.2-0.35c-1.233-0.267-2.367-0.366-3.4-0.3
	c-1.367,0.066-2.567,0.05-3.6-0.05c-1.967-0.2-2.983-0.301-3.05-0.301C7.033,21.283,6.267,20.934,5,20.3L0,19l1.25-0.6
	c0.9-0.466,2.483-1.167,4.75-2.1c1.566-0.667,4.617-1.4,9.15-2.2c5.034-0.9,7.65-1.383,7.85-1.45c0.8-0.233,1.783-0.6,2.95-1.1
	c1.066-0.466,1.866-0.767,2.4-0.9c0.466-0.1,1.333-0.417,2.6-0.95c1.1-0.467,1.9-0.7,2.4-0.7c0.566,0,0.85-0.217,0.85-0.65L34,7.65
	l2-2l-1.65-1L37,4l5.7-2.35c0.333-0.1,1-0.15,2-0.15s1.667-0.066,2-0.2c0.366-0.1,1.133-0.133,2.3-0.1c2.233,0.066,3.9,0.1,5,0.1
	c1.767,0,3.95,0.167,6.55,0.5c2.6,0.333,4.2,0.5,4.8,0.5c2.9,0,5.117,0.117,6.65,0.35c2.434,0.367,4.217,0.917,5.35,1.65
	c0.4,0.3,0.867,0.384,1.4,0.25c0.333-0.1,0.983-0.283,1.95-0.55c1.1-0.233,2.316-0.35,3.65-0.35c0.2,0,0.95-0.066,2.25-0.2
	c1.667-0.167,3.6-0.3,5.8-0.4c2-0.133,3.333-0.183,4-0.15c0.2,0,0.55-0.05,1.05-0.15c1.1-0.2,3.783-0.7,8.05-1.5
	c2.6-0.434,4.6-0.65,6-0.65c0.867,0,2.033,0.066,3.5,0.2C116.8,0.9,119.467,0.733,123,0.3z"/>
<g>
	<path style="fill-rule:evenodd;clip-rule:evenodd;fill:#5C691C;" d="M48.2,17c0.2,0.033,0.417,0.25,0.65,0.65l-1.65-0.9L48.2,17z"
		/>
	<path style="fill-rule:evenodd;clip-rule:evenodd;fill:#5C691C;" d="M7.5,19.4c0.667,0.133,1.35,0.267,2.05,0.399
		c0.6,0.066,1.617,0.033,3.05-0.1c1.133-0.101,2.117-0.283,2.95-0.55c0.534-0.067,1.333,0.1,2.4,0.5c0.9,0.333,1.433,0.5,1.6,0.5
		c0.067,0,0.434,0.166,1.1,0.5c0.934,0.466,2.333,0.866,4.2,1.199c1.667,0.267,3.183,0.4,4.55,0.4c2.333,0,4.333-0.167,6-0.5
		c0.833-0.167,1.667-0.35,2.5-0.55c0.6-0.066,1.434-0.05,2.5,0.05c1.067,0.1,2.45,0.033,4.15-0.2c0.1,0,1.233-0.184,3.4-0.55
		l1.5-0.25c-0.1-1.066-0.3-1.934-0.6-2.6c0.7,0.567,1.15,1.017,1.35,1.35l0.5,0.95V14l2.25,6.5c0.667-0.167,1.167-0.667,1.5-1.5
		l0.5-1.25l0.05,1.9c0.033,1.333,0.1,2.199,0.2,2.6l0.25,1L60.2,24c1.767,0.267,2.85,0.434,3.25,0.5c0.833,0.167,1.75,0.5,2.75,1
		c-0.167,0.667-0.583,1.167-1.25,1.5c-0.2,0.066-0.534,0.267-1,0.6c-1.867-0.966-3.733-1.733-5.6-2.3c-1-0.3-2.117-0.483-3.35-0.55
		c-0.8-0.033-1.566-0.283-2.3-0.75c-0.667-0.434-1.267-0.616-1.8-0.55c-1.566,0.267-3.75,0.333-6.55,0.2
		c-3.467-0.134-5.45-0.117-5.95,0.05l0.3,0.3h-7c-2.067,0-3.534-0.05-4.4-0.15c-0.966-0.133-1.95-0.25-2.95-0.35
		c-1.267-0.134-2-0.233-2.2-0.3c-0.3-0.134-0.783-0.316-1.45-0.55c-0.667-0.2-1.05-0.301-1.15-0.301c-0.333,0-1.066-0.116-2.2-0.35
		c-1.233-0.267-2.367-0.366-3.4-0.3c-1.367,0.066-2.567,0.05-3.6-0.05c-1.967-0.2-2.983-0.301-3.05-0.301
		C7.033,21.283,6.267,20.934,5,20.3l-4.55-1.2c0.767-0.166,1.4-0.25,1.9-0.25C3.684,18.85,5.4,19.033,7.5,19.4z"/>
	<path style="fill-rule:evenodd;clip-rule:evenodd;fill:#5C691C;" d="M104.7,25h0.75c0.6,0.1,1.1,0.35,1.5,0.75l1,1l0.75-3.5
		l0.2,1.05c0.233,0.767,0.5,1.25,0.8,1.45c0.767,0.5,1.267,0.167,1.5-1c0.1-0.4,0.083-0.8-0.05-1.2c-0.033-0.1,0.066-0.116,0.3-0.05
		c0.5,0.167,0.917,0.75,1.25,1.75l1.149-0.85c0.834-0.534,1.45-0.75,1.851-0.65c0.399,0.1,0.783,0.083,1.149-0.05
		c0.7-0.267,1.15-0.417,1.351-0.45c0.333-0.066,0.85-0.384,1.55-0.95c0.667-0.533,1.316-0.8,1.95-0.8c0.6,0,1.2,0.017,1.8,0.05
		c0.434,0,0.917-0.1,1.45-0.3c0.267-0.1,0.366-0.283,0.3-0.55c-0.033-0.134,0.617-0.2,1.95-0.2c1.3,0,3.267-0.083,5.899-0.25
		c2.634-0.167,4.167-0.25,4.601-0.25c0.7,0,1.2-0.167,1.5-0.5c0.267-0.333,0.25-0.65-0.05-0.95l1.899,0.95
		c0.434-0.167,0.65-0.667,0.65-1.5v-1l0.5,0.7c0.333,0.566,0.5,1,0.5,1.3v1l3-2.25V20l2.399-0.05c1.867,0,3.483,0.1,4.851,0.3
		c1.399,0.233,2.366,0.333,2.899,0.3c0.367-0.033,1.067-0.133,2.101-0.3c0.733-0.066,1.383-0.2,1.95-0.4
		c0.433-0.166,0.949-0.25,1.55-0.25c0.467,0,1.767-0.1,3.899-0.3c2.134-0.2,3.75-0.3,4.851-0.3h5.5l2.75-0.75l-0.5-1.75l2.5,1.75
		l0.45-0.85c0.399-0.533,0.75-0.75,1.05-0.65c0.2,0.066,0.467,0.383,0.8,0.95c0.267,0.533,0.583,0.8,0.95,0.8
		c0.333,0,0.399,0.066,0.2,0.2c-0.033,0.033,0.233-0.034,0.8-0.2c1.167-0.333,2.25-0.5,3.25-0.5h4.75l0.5,0.15
		c0.366,0.133,0.717,0.184,1.05,0.15c0.4,0.134,0.884,0.583,1.45,1.351c0.333,0.466,0.233,0.683-0.3,0.649
		c-1.567-0.1-3.25,0.017-5.051,0.351c-2.267,0.433-4.066,0.666-5.399,0.699c-1.5-0.033-2.816-0.05-3.95-0.05
		c-1,0-4.017,0.233-9.05,0.7c-5.566,0.533-9.767,0.866-12.601,1c-3.199,0.134-5.133,0.15-5.8,0.05
		c-0.899-0.267-2.416-0.517-4.55-0.75c-2.633-0.267-4.633-0.399-6-0.399l-1.3,0.1h-6.351c-1.533,0-2.816,0.066-3.85,0.2
		c-1.566,0.2-3.95,0.684-7.15,1.45c-2.333,0.566-3.316,0.85-2.949,0.85c1.1,0,1.199,0.267,0.3,0.8c-1.033,0.634-1.9,0.934-2.601,0.9
		c-1.267-0.101-2.3-0.066-3.1,0.1c-1.467,0.3-2.833,0.733-4.1,1.3c-0.7,0.334-2,1.017-3.9,2.051c-1,0.566-1.417,0.883-1.25,0.949
		c0.5,0.267,0.583,0.834,0.25,1.7c-0.333,0.9-0.533,1.267-0.6,1.101c-0.134-0.5-0.483-0.634-1.051-0.4l-0.8,0.35
		c0.101,0.101-0.083,0.317-0.55,0.65c-0.533,0.434-0.75,1.066-0.65,1.9c0.067,0.399,0.184,0.767,0.351,1.1H102l-0.5-0.05
		c0.2-0.334,0.267-0.65,0.2-0.95c-0.066-0.333-0.267-0.434-0.601-0.3c-0.1,0.033,0.018-0.2,0.351-0.7s0.633-0.934,0.899-1.3
		c0.134-0.233,0.25-0.8,0.351-1.7c0.1-0.667,0.017-1.1-0.25-1.3c-0.066-0.033,0.1-0.267,0.5-0.7c0.833-0.833,1.917-1.5,3.25-2
		c0.333-0.667,0.167-1.333-0.5-2L104.7,25z"/>
	<path style="fill-rule:evenodd;clip-rule:evenodd;fill:#5C691C;" d="M71.9,28.3c0.2,0,0.633,0.066,1.3,0.2
		c1,0.167,2.25,0.667,3.75,1.5l0.45,0.4c-0.7-0.267-1.05-0.317-1.05-0.15c-0.034,0.267-0.15,0.4-0.35,0.4
		c-0.7,0-2.25-0.217-4.65-0.65L66,29.3c0.566-0.166,0.883-0.333,0.95-0.5c0-0.033,0.25-0.05,0.75-0.05s0.783,0.066,0.85,0.2
		c0.034,0.033,0.25-0.033,0.65-0.2c0.433-0.167,0.583-0.316,0.45-0.45c-0.033-0.033,0.233-0.05,0.8-0.05
		C71.25,28.25,71.733,28.267,71.9,28.3z"/>
	<path style="fill-rule:evenodd;clip-rule:evenodd;fill:#5C691C;" d="M137.2,2.25l1.7-0.35c1.399-0.267,2.666-0.4,3.8-0.4
		c1.434,0,2.333-0.184,2.7-0.55c0.633,0.2,1.283,0.55,1.949,1.05c0.967,0.667,1.034,0.983,0.2,0.95c-1.7-0.2-3.217-0.3-4.55-0.3
		c-1.6,0-2.333,0.1-2.2,0.3c0.034,0.053,0.067,0.103,0.101,0.15c-0.23-0.17-0.548-0.287-0.95-0.35L137.2,2.25z"/>
</g>
<path style="fill-rule:evenodd;clip-rule:evenodd;fill:#5C691C;" d="M47.7,7.25V9c-0.833-0.5-1.717-0.833-2.65-1
	c-0.133-0.833-0.533-1.333-1.2-1.5L42.9,6.25l0.95-0.05c0.733,0.066,1.25,0.25,1.55,0.55l0.75,0.75c0-0.5,0.083-1.333,0.25-2.5
	l0.15-1.75l0.6,1.35C47.517,5.633,47.7,6.517,47.7,7.25z"/>
<path style="fill-rule:evenodd;clip-rule:evenodd;fill:#5C691C;" d="M37.05,13.85c-0.633,0.133-0.9,0.566-0.8,1.3
	s-0.083,1.184-0.55,1.35c-0.634,0.2-1.45,0.267-2.45,0.2l-1.3-0.2l-0.25-0.75c-0.1-0.3-0.634-0.684-1.6-1.15L28.7,14h2
	c1.5,0,3,0.217,4.5,0.65l-0.95-2.1C37.517,13.15,38.45,13.583,37.05,13.85z"/>
<path style="fill-rule:evenodd;clip-rule:evenodd;fill:#5C691C;" d="M107.45,13.5l-1-0.65l3.25,0.45
	c-0.033-0.133-0.05-0.333-0.05-0.6c0.066-0.5,0.25-1.067,0.55-1.7l0.75-1.5l0.5,3.75l1.149-1.3c0.733-0.767,1.101-1,1.101-0.7
	c0,1-0.083,1.833-0.25,2.5L113.2,15h-3.75C108.783,14.333,108.117,13.833,107.45,13.5z"/>
<path style="fill-rule:evenodd;clip-rule:evenodd;fill:#5C691C;" d="M156.95,16c-0.267,0-0.816-0.15-1.65-0.45
	c-0.767-0.3-1.383-0.4-1.85-0.3l-2-2.5l1,0.1c0.767,0.133,1.35,0.35,1.75,0.65l1,0.75l0.5-2.5l1,2.5l3.5-2.25
	c-0.2,0.3-0.417,0.617-0.65,0.95c-0.467,0.733-0.75,1.25-0.85,1.55l-0.25,0.75C158.117,15.75,157.617,16,156.95,16z"/>
<path style="fill-rule:evenodd;clip-rule:evenodd;fill:#5C691C;" d="M89.95,19.25L89.8,23l1.9-1.5V25l-0.75,1l-3.15-0.5
	c-0.2-1.267-0.633-2.15-1.3-2.65l-1.05-0.8l2.6,1.476c-0.009-0.327,0.208-0.919,0.65-1.775L89.95,19.25z"/>
<path style="fill-rule:evenodd;clip-rule:evenodd;fill:#5C691C;" d="M71.95,8.75L72.7,10c-1.5,0-2.5-0.083-3-0.25
	c-0.434-0.133-0.434-0.333,0-0.6C70.167,8.883,70.917,8.75,71.95,8.75z"/>
<path style="fill-rule:evenodd;clip-rule:evenodd;fill:#5C691C;" d="M77.45,8.75L80,9c1.667,0.267,2.4,0.6,2.2,1
	c-0.2,0.4-0.817,0.566-1.85,0.5c-1.333-0.167-2.383-0.25-3.15-0.25c-1.067,0-1.733-0.017-2-0.05c-0.167,0-0.583-0.067-1.25-0.2
	c-0.7-0.133-0.684-0.367,0.05-0.7C74.8,8.934,75.95,8.75,77.45,8.75z"/>
<path style="fill-rule:evenodd;clip-rule:evenodd;fill:#5C691C;" d="M99.7,5.25c3.366,0.333,4.633,0.733,3.8,1.2
	c-1.7,0.533-2.8,0.883-3.3,1.05c-1.066,0.367-2.816,0.2-5.25-0.5c-1-0.3-0.983-0.717,0.05-1.25C96.066,5.217,97.634,5.05,99.7,5.25z
	"/>
<path style="fill-rule:evenodd;clip-rule:evenodd;fill:#5C691C;" d="M135.45,11c1.434,0.133,2.267,0.434,2.5,0.9
	c0.233,0.434-0.184,0.717-1.25,0.85c-0.8,0.1-1.767,0.133-2.9,0.1c-1.133-0.067-1.916-0.1-2.35-0.1c-0.867,0-0.816-0.333,0.149-1
	C132.5,11.083,133.783,10.833,135.45,11z"/>
<path style="fill-rule:evenodd;clip-rule:evenodd;fill:#5C691C;" d="M134.7,5c1.967,0.233,2.434,0.55,1.399,0.95
	c-1,0.366-2.05,0.55-3.149,0.55c-0.8,0-0.917-0.267-0.351-0.8C133.167,5.133,133.867,4.9,134.7,5z"/>
<path style="fill-rule:evenodd;clip-rule:evenodd;fill:#5C691C;" d="M70.9,19.15c0.233,0.366-0.25,0.649-1.45,0.85
	c-0.833,0.134-1.95,0.134-3.35,0c-1.567-0.134-2.7-0.384-3.4-0.75c-0.7-0.333-0.634-0.7,0.2-1.1c0.8-0.367,1.567-0.5,2.3-0.4
	C68.667,18.184,70.566,18.65,70.9,19.15z"/>
</svg>
