<?xml version="1.0" encoding="iso-8859-1"?>
<!-- Generator: Adobe Illustrator 15.1.0, SVG Export Plug-In . SVG Version: 6.00 Build 0)  -->
<!DOCTYPE svg PUBLIC "-//W3C//DTD SVG 1.1//EN" "http://www.w3.org/Graphics/SVG/1.1/DTD/svg11.dtd">
<svg version="1.1" id="FlashAICB" xmlns="http://www.w3.org/2000/svg" xmlns:xlink="http://www.w3.org/1999/xlink" x="0px" y="0px"
	 width="767.1px" height="387.55px" viewBox="0 0 767.1 387.55" style="enable-background:new 0 0 767.1 387.55;"
	 xml:space="preserve">
<path style="fill-rule:evenodd;clip-rule:evenodd;fill:#5E5246;" d="M743.725,365.05c0.04-0.023,0.082-0.048,0.125-0.075l0.2-0.125
	c0.018-0.01,0.034-0.019,0.05-0.024c0.062-0.043,0.12-0.085,0.176-0.125c0.024-0.021,0.05-0.047,0.074-0.075
	c0.061-0.046,0.119-0.096,0.176-0.15c1.619-0.342,4.544-0.967,8.774-1.875c0.467-1.399-0.583-2.466-3.149-3.199
	c-1.354-0.372-2.771-0.597-4.25-0.676c-0.007-0.194-0.015-0.42-0.025-0.675c0.478,0,0.752,0,0.825,0
	c0.666-0.066,1.783-0.283,3.35-0.649c1.434-0.301,2.566-0.317,3.4-0.051c0.533,0.167,1.3,0.551,2.3,1.15
	c1.233,0.733,2,1.167,2.3,1.3c1.066,0.533,2.584,0.917,4.55,1.15c2.034,0.2,3.534,0.517,4.5,0.95
	c-0.199,0.033-0.583,0.05-1.149,0.05c-0.566-0.033-0.967-0.017-1.2,0.05c-0.566,0.167-1.2,0.434-1.9,0.8
	c-1.133,0.566-1.783,0.884-1.949,0.95c-1.267,0.566-2.9,0.9-4.9,1c-2.333-0.033-4.033-0.05-5.1-0.05
	C747.999,364.897,745.607,365.015,743.725,365.05z M702.675,380.075c1.267,0.027,2.575,0.002,3.925-0.075
	c4.646-0.324,7.004-1.516,7.075-3.575c1.317,0.253,2.858,0.562,4.625,0.925c0.566,0.101,2.2,0.317,4.9,0.65
	c2.5,0.467,3.899,1.1,4.2,1.9c-0.667,0.1-2.134,0.383-4.4,0.85c-1.733,0.366-3.2,0.566-4.4,0.6h-9.85
	c-3.767,0-6.316-0.083-7.65-0.25c-0.51-0.058-1.002-0.133-1.475-0.225c0.254,0.003,0.495-0.006,0.725-0.025
	c0.732-0.07,1.341-0.229,1.825-0.475C702.358,380.291,702.525,380.19,702.675,380.075z M553.125,384.025
	c1.962-0.026,3.604-0.302,4.925-0.825c1.5-0.601,2.4-0.983,2.7-1.15c1.066-0.566,1.733-1.233,2-2c0.452-1.179,0.252-2.146-0.6-2.899
	c0.047,0.002,0.097,0.002,0.149,0c3.167,0.033,5.584,0.416,7.25,1.149c-0.434,1.233-1.05,2.033-1.85,2.4
	c-1.167,0.3-2.15,0.566-2.95,0.8c-1.9,0.7-3.316,1.217-4.25,1.55c-1.634,0.601-3.15,0.917-4.55,0.95
	C554.943,384.027,554.002,384.035,553.125,384.025z M550.2,383.9c-1.038-0.076-1.938-0.192-2.7-0.351
	c-3.7-0.733-5.283-2.35-4.75-4.85l3.075-0.351c0.032,0.298,0.074,0.582,0.125,0.851c0.029,0.148,0.063,0.29,0.1,0.425l-0.649,0.425
	C544.767,382.217,546.366,383.5,550.2,383.9z M402.4,381.325c2.793,0.652,4.593,1.027,5.399,1.125c1,0.133,2.95,0.217,5.851,0.25
	c2.666,0.133,4.533,0.517,5.6,1.149c-1.941,1.566-6.492,2.649-13.65,3.25c0.5-0.253,0.851-0.603,1.051-1.05
	c0.733-1.666-0.317-3.1-3.15-4.3C403.153,381.603,402.787,381.461,402.4,381.325z M216,380.45c-0.61-0.45-0.776-0.976-0.5-1.575
	c0.138,0.208,0.28,0.375,0.425,0.5C215.948,379.736,215.973,380.095,216,380.45z M0.225,333.95c0.026,0.17,0.052,0.337,0.075,0.5
	c0.131,0.833,0.406,1.5,0.825,2c0.283,0.795,1.133,1.545,2.55,2.25c-2.913-1.043-4.104-2.594-3.575-4.65L0.225,333.95z
	 M10.975,330.05c0.225,0.095,0.45,0.195,0.675,0.3c2.233,1,3.267,2.233,3.1,3.7c-0.033,0.634-0.417,1.5-1.15,2.601
	c-0.331,0.511-0.648,0.944-0.95,1.3c0.034-0.174,0.067-0.356,0.1-0.55c0.333-1.733,0.183-3.367-0.45-4.9
	c-0.343-0.811-0.785-1.47-1.325-1.975V330.05z M23,371.475l1.2,0.075c0.446-0.025,0.863-0.125,1.25-0.3
	c0.838,0.119,1.705,0.152,2.6,0.1c2.5-0.1,3.633-1.199,3.4-3.3c-0.141-1.203-0.599-2.253-1.375-3.149
	c0.449,0.067,0.923,0.134,1.425,0.199c3.467,0.934,4.783,2.567,3.95,4.9c-0.434,1.267-1.483,1.983-3.15,2.15
	c-2-0.067-3.417-0.101-4.25-0.101c-3.133,0-5.433-0.383-6.9-1.149c-0.153-0.077-0.303-0.16-0.45-0.25
	c0.39,0.202,0.707,0.353,0.95,0.449C22.119,371.277,22.569,371.402,23,371.475z M72.7,381.55c1.905-0.728,3.155-1.512,3.75-2.35
	c0.589-0.874,0.631-1.607,0.125-2.2c3.656,0.566,5.23,1.767,4.725,3.6c-1.8,0.467-4.267,0.767-7.4,0.9
	C73.479,381.518,73.079,381.534,72.7,381.55z M229.075,381.9c0.542-0.436,0.9-1.068,1.075-1.9c0.167-0.784,0.101-1.518-0.2-2.2
	c0.736,0.263,1.82,0.646,3.25,1.15c2.066,0.733,1.966,1.55-0.3,2.45c-0.6,0.233-1.6,0.383-3,0.449
	C229.6,381.865,229.325,381.882,229.075,381.9z"/>
<path style="fill-rule:evenodd;clip-rule:evenodd;fill:#453C34;" d="M744.525,364.475c0.132-0.141,0.248-0.299,0.35-0.475
	c0.025-0.041,0.05-0.082,0.075-0.125l0.825-2.775c0.031-0.212,0.056-0.429,0.074-0.649v-0.125c0.013-0.181,0.021-0.363,0.025-0.55
	l0.025-0.726c0-0.097,0-0.205,0-0.325c1.479,0.079,2.896,0.304,4.25,0.676c2.566,0.733,3.616,1.8,3.149,3.199
	C749.069,363.508,746.145,364.133,744.525,364.475z M713.675,376.425c-0.071,2.06-2.43,3.251-7.075,3.575
	c-1.35,0.077-2.658,0.103-3.925,0.075l0.025-0.025c1.028-0.847,1.47-3.063,1.325-6.649l0.074-0.051
	c1.301,0.034,2.851,0.217,4.65,0.551c0.233,0.033,1.767,0.35,4.6,0.949C713.584,375.426,713.692,375.95,713.675,376.425z
	 M550.2,383.9c-3.834-0.4-5.434-1.684-4.8-3.851l0.649-0.425c0.457,1.61,1.591,2.568,3.4,2.875c0.2,0.033,1.883,0.017,5.05-0.05
	c0.191-0.003,0.374-0.003,0.55,0c0.36,0,0.693-0.009,1-0.025v0.025c0.727-0.019,1.327-0.094,1.8-0.226
	c0.174-0.04,0.308-0.082,0.4-0.125c0.085-0.038,0.168-0.08,0.25-0.125c0.091-0.056,0.175-0.114,0.25-0.175
	c0.7-0.566,1.1-1.7,1.2-3.399c0.042-0.739,0.075-1.506,0.1-2.301c0.911,0.279,1.611,0.629,2.101,1.051
	c0.852,0.754,1.052,1.721,0.6,2.899c-0.267,0.767-0.934,1.434-2,2c-0.3,0.167-1.2,0.55-2.7,1.15
	c-1.321,0.523-2.963,0.799-4.925,0.825C552.052,384.012,551.077,383.97,550.2,383.9z M391.85,386.8l5.2-0.95
	c1.16-0.741,1.777-2.574,1.851-5.5c1.315,0.293,2.482,0.618,3.5,0.976c0.387,0.136,0.753,0.277,1.1,0.425
	c2.833,1.2,3.884,2.634,3.15,4.3c-0.2,0.447-0.551,0.797-1.051,1.05c-0.564,0.282-1.331,0.433-2.3,0.45c-2-0.133-3.333-0.2-4-0.2
	c-3.5,0-5.399-0.017-5.7-0.05c-0.944-0.107-1.703-0.291-2.274-0.55C391.501,386.77,391.676,386.786,391.85,386.8z M229.075,381.9
	c-0.294,0.219-0.636,0.385-1.025,0.5c-0.367,0.133-1.466,0.233-3.3,0.3c-0.148,0.005-0.29,0.005-0.425,0
	c1.267-1.042,1.942-2.959,2.025-5.75c0-0.054,0-0.112,0-0.175c0.01-0.395,0.01-0.803,0-1.226c-0.008-0.18-0.033-0.463-0.075-0.85
	c0.144,0.065,0.286,0.132,0.425,0.2c1.678,0.839,2.762,1.806,3.25,2.899c0.3,0.683,0.367,1.416,0.2,2.2
	C229.975,380.832,229.617,381.465,229.075,381.9z M30.075,364.9c0.776,0.896,1.234,1.946,1.375,3.149c0.233,2.101-0.9,3.2-3.4,3.3
	c-0.895,0.053-1.762,0.02-2.6-0.1c1.833-0.833,2.8-2.934,2.9-6.3c0-0.054,0-0.112,0-0.175c0.01-0.395,0.01-0.803,0-1.226v-0.05
	C29.035,363.913,29.61,364.379,30.075,364.9z M12.65,337.95c-0.177,0.833-0.377,1.333-0.6,1.5c-0.167,0.133-0.833,0.316-2,0.55
	c-1.533,0.366-3.55-0.017-6.05-1.15c-0.114-0.053-0.222-0.103-0.325-0.149c-1.417-0.705-2.267-1.455-2.55-2.25
	c0.452,0.514,1.061,0.847,1.825,1c0.2,0.066,1.466,0.066,3.8,0c0.139-0.003,0.272-0.003,0.4,0c0.27,0,0.52-0.009,0.75-0.025v0.025
	c0.642,0,1.159-0.084,1.55-0.25l0.025-0.025c0.031-0.006,0.056-0.015,0.075-0.024c0.052-0.03,0.102-0.063,0.15-0.101
	c0.093-0.06,0.177-0.127,0.25-0.2c0.267-0.267,0.475-0.666,0.625-1.199l0.35-3.9c0.02-0.396,0.036-0.804,0.05-1.225
	c0.54,0.505,0.981,1.164,1.325,1.975c0.633,1.533,0.784,3.167,0.45,4.9C12.717,337.594,12.684,337.776,12.65,337.95z
	 M70.725,375.075c1.027,0.248,2.419,0.557,4.175,0.925c0.781,0.273,1.339,0.606,1.675,1c0.506,0.593,0.464,1.326-0.125,2.2
	c-0.595,0.838-1.845,1.622-3.75,2.35c-0.452,0.17-0.935,0.337-1.45,0.5c-1.309,0.437-2.833,0.687-4.575,0.75
	c0.333-0.136,0.642-0.294,0.925-0.475l2.075-1.925c0.041-0.075,0.083-0.15,0.125-0.226c0.028-0.042,0.053-0.084,0.075-0.125
	c0.042-0.081,0.084-0.164,0.125-0.25l0.05-0.1c0.008-0.019,0.017-0.035,0.025-0.05c0.038-0.091,0.071-0.183,0.1-0.275
	C70.504,378.416,70.688,376.982,70.725,375.075z"/>
<path style="fill-rule:evenodd;clip-rule:evenodd;fill:#605952;" d="M744.875,364c-0.102,0.176-0.218,0.334-0.35,0.475
	c-0.057,0.055-0.115,0.104-0.176,0.15C744.544,364.453,744.719,364.245,744.875,364z M729.725,13.1l0.825-0.4
	c1.434-0.367,2.667,0.066,3.7,1.3c1.167,0.5,2.1,1.6,2.8,3.3c0.767,1.833,1.033,3.967,0.8,6.4c-0.633,6.767-0.833,15.283-0.6,25.55
	c0.1,5.7,0.283,14.233,0.55,25.6v52.9c0.033,7.4,0.334,16.267,0.9,26.6c0.366,5.9,0.916,14.733,1.649,26.5
	c0.434,7.333,0.733,15.933,0.9,25.8c0.066,5.733,0.15,14.333,0.25,25.8c0.1,6.133,0.25,15.333,0.45,27.6
	c0.166,10.9,0.25,20.084,0.25,27.55c0,7.434-0.15,16.767-0.45,28c-0.066,2.634-0.217,6.7-0.45,12.2
	c-0.166,4.9-0.149,8.967,0.05,12.2c0.134,2,0.4,4.934,0.801,8.8c0.233,3.367,0.199,6.3-0.101,8.8
	c-0.366,3.434-1.583,6.15-3.649,8.15c0.275,0.03,0.542,0.056,0.8,0.075c-0.535-0.026-1.102-0.085-1.7-0.175
	c-1.366-0.2-2.333-1-2.9-2.4c-0.466-1.2-0.699-3.116-0.699-5.75v-46.85c0-6.434,0.083-16.101,0.25-29
	c0.133-12.867,0.199-22.534,0.199-29V211.1c-0.033-7.767-0.517-18.35-1.449-31.75c-1.034-15.1-1.634-25.667-1.801-31.7
	c-0.033-1.066-0.366-8.367-1-21.9c-0.433-8.8-0.583-16.117-0.449-21.95c0.133-5.767,0.183-13.933,0.149-24.5
	c-0.033-11.3,0-19.483,0.101-24.55c0.233-13.133,0.25-25.25,0.05-36.35C729.95,17.304,729.875,15.538,729.725,13.1z M731.95,23.2
	c-0.033,1.1,0.1,14.033,0.399,38.8c0.267,25.267,0.351,40.8,0.25,46.6c-0.133,6.2,0.067,15.517,0.601,27.95
	c0.3,6.9,0.767,17.117,1.399,30.65c0.301,8.466,0.551,24.066,0.75,46.8c0.167,19,0.25,34.917,0.25,47.75
	c0,39.033,0.217,55.7,0.65,50c0.267-3.533,0.4-24.3,0.4-62.3c-0.034-40.8-0.051-64.767-0.051-71.9c0-4.933-0.517-19.117-1.55-42.55
	c-0.899-20.7-1.166-35.8-0.8-45.3c0.5-12.267,0.316-30.05-0.55-53.35C732.866,12.95,732.283,8.567,731.95,23.2z M700.075,263.775
	c-0.008-0.231-0.016-0.465-0.025-0.7V262.3C700.063,262.798,700.07,263.29,700.075,263.775z M698.45,380.85
	c-0.709-0.053-1.492-0.152-2.351-0.3c-1.466-0.233-2.449-0.883-2.949-1.95c-0.467-1-0.7-2.767-0.7-5.3c0-3.566-0.2-8.066-0.601-13.5
	c-0.566-7.467-0.883-11.95-0.949-13.45c-0.367-6.566-0.551-17.333-0.551-32.3c0-8.866-0.383-21.35-1.149-37.45
	c-0.8-15.899-0.783-33.267,0.05-52.1c0.7-11,1.184-19.233,1.45-24.7c0.467-9.566,0.383-17.85-0.25-24.85
	c-0.834-8.833-1.25-19.934-1.25-33.3c0-19.497-0.191-42.539-0.575-69.125c0.389,0.469,0.714,1.194,0.975,2.175
	c1-0.133,1.867,0.267,2.601,1.2c0.8,1.033,1.333,2.6,1.6,4.7c0.8,6.4,1.316,13.967,1.55,22.7c0.134,5.034,0.233,12.65,0.301,22.85
	c0.066,4.233,0.283,11.783,0.649,22.65c0.3,9.567,0.467,17.117,0.5,22.65c0.134,25.3-0.1,56.083-0.7,92.35
	c-0.333,18.233-0.399,33.367-0.199,45.4c0.233,16.399,0.949,31.467,2.149,45.2c0.699,7.663,0.924,14.879,0.675,21.649
	c-0.048,1.257-0.114,2.498-0.199,3.726c-0.014,0.282-0.03,0.566-0.051,0.85C698.464,380.702,698.455,380.776,698.45,380.85z
	 M693.325,62.8c0.474,0.426,0.998,0.91,1.575,1.45c0.3,0.267,0.833,0.533,1.6,0.8c0.733,0.233,1.267,0.517,1.6,0.85
	c0.834,0.833,1.301,2.667,1.4,5.5c0.066,1.567,0.033,3.833-0.1,6.8c0,7.233,0.116,17.816,0.35,31.75
	c0.233,14.367,0.35,24.983,0.35,31.85v96.3c0,1.233-0.017,2.617-0.05,4.15L699.9,141.8c0-6.8-0.101-17.417-0.301-31.85
	c-0.199-13.9-0.3-24.483-0.3-31.75c0.134-2.967,0.184-5.233,0.15-6.8c-0.101-2.833-0.566-4.667-1.4-5.5
	c-0.333-0.333-0.866-0.617-1.6-0.85c-0.767-0.267-1.3-0.533-1.601-0.8C694.29,63.714,693.782,63.23,693.325,62.8z M691.95,176.95
	c1,11.6,1.434,19.35,1.3,23.25c-0.1,3.366-0.483,13.2-1.15,29.5c-0.6,16.866-0.899,30.816-0.899,41.85
	c0,17.667,0.083,28.816,0.25,33.45c2.366-64.833,3.434-105.033,3.2-120.6c-0.334-26.5-0.634-47.2-0.9-62.1
	c-0.5-27.933-0.9-37.117-1.2-27.55l-1.35,26.15c-0.834,18.2-1.184,29.267-1.05,33.2C690.217,155.967,690.816,163.583,691.95,176.95z
	 M692.55,364.35c0.066,5,0.167,8.051,0.3,9.15c0.305,2.688,0.904,4.355,1.801,5c0.227,0.159,0.477,0.251,0.75,0.275
	c0.171,0.022,0.354,0.015,0.55-0.025c0.1-0.501,0.158-0.968,0.175-1.4c0.017-0.591-0.042-1.124-0.175-1.6
	c-0.4-1-0.717-1.866-0.95-2.6c-1.1-3.534-1.9-7.067-2.4-10.601c-0.166-1.066-0.316-2.3-0.449-3.7L692.55,364.35z M734.7,355.05
	c0.1,4,0.816,5.816,2.149,5.45c0.067-1.1,0.067-2.767,0-5c-0.433-15.467-0.517-29.634-0.25-42.5l-1.699,33.55
	C734.9,347.616,734.833,350.45,734.7,355.05z M558.5,381.975c-0.082,0.045-0.165,0.087-0.25,0.125
	c-0.093,0.043-0.227,0.085-0.4,0.125C558.1,382.154,558.316,382.071,558.5,381.975z M555.05,382.45c-0.176-0.003-0.358-0.003-0.55,0
	c-3.167,0.066-4.85,0.083-5.05,0.05c-1.81-0.307-2.943-1.265-3.4-2.875c-0.037-0.135-0.07-0.276-0.1-0.425
	c-0.051-0.269-0.093-0.553-0.125-0.851c-0.319-2.22-0.36-5.17-0.125-8.85c0.366-6,0.55-9.267,0.55-9.8c0-10.566,0.1-19.367,0.3-26.4
	c0.667-22.233,1.05-45.783,1.15-70.649c0.033-8.934,0.566-25.134,1.6-48.601c0.9-20.466,1.217-36.683,0.95-48.65
	c-0.366-15.967-0.517-35.633-0.45-59c0.104-16.201,0.178-29.901,0.226-41.1c1.218,0.94,2.076,2.374,2.574,4.3
	c1.7,6.233,2.851,13.033,3.45,20.4c0.4,5.233,0.584,12.25,0.55,21.05l-0.3,46.05c0,1.3,0.217,17.316,0.65,48.05
	c0.3,19.267,0.166,35.267-0.4,48c-0.934,20.866-1.533,37.083-1.8,48.649c-0.4,17.934-0.333,34.167,0.2,48.7
	c0.133,3.333,0.434,8.65,0.899,15.95c0.135,3.272,0.135,6.256,0,8.95C555.712,378.025,555.445,380.376,555.05,382.45z M552.4,177.85
	c0,3.167-0.434,15.217-1.301,36.15c-0.899,20.934-1.35,33.9-1.35,38.9c0,3.333-0.2,19.583-0.6,48.75
	c-0.367,25.6-0.467,38.633-0.301,39.1c0.233,0.634,1.101-16.384,2.601-51.05c1.5-35,2.25-56.417,2.25-64.25
	c0-97.2-0.584-141.333-1.75-132.4c-0.434,3.167-0.483,16.983-0.15,41.45C551.967,147.133,552.167,161.583,552.4,177.85z
	 M382.725,34.1l0.825-0.4c1.434-0.367,2.667,0.066,3.7,1.3c1.167,0.5,2.1,1.6,2.8,3.3c0.767,1.833,1.033,3.967,0.8,6.4
	c-0.633,6.767-0.833,15.283-0.6,25.55c0.1,5.7,0.283,14.233,0.55,25.6v52.9c0.033,7.4,0.334,16.267,0.9,26.6
	c0.366,5.9,0.916,14.733,1.649,26.5c0.434,7.334,0.733,15.934,0.9,25.801c0.066,5.733,0.15,14.333,0.25,25.8
	c0.1,6.133,0.25,15.333,0.45,27.6c0.166,10.9,0.25,20.084,0.25,27.55c0,7.434-0.15,16.767-0.45,28c-0.066,2.634-0.217,6.7-0.45,12.2
	c-0.166,4.9-0.149,8.967,0.05,12.2c0.134,2,0.4,4.934,0.801,8.8c0.233,3.367,0.199,6.3-0.101,8.8
	c-0.366,3.434-1.583,6.15-3.649,8.15c0.149,0.017,0.3,0.033,0.449,0.05c-0.174-0.014-0.349-0.03-0.524-0.05
	c-0.267-0.023-0.541-0.057-0.825-0.1c-1.366-0.2-2.333-1-2.9-2.4c-0.466-1.2-0.699-3.116-0.699-5.75v-46.85
	c0-6.434,0.083-16.101,0.25-29c0.133-12.867,0.199-22.534,0.199-29V232.1c-0.033-7.767-0.517-18.35-1.449-31.75
	c-1.034-15.1-1.634-25.667-1.801-31.7c-0.033-1.066-0.366-8.367-1-21.9c-0.433-8.8-0.583-16.117-0.45-21.95
	c0.133-5.767,0.184-13.933,0.15-24.5c-0.033-11.3,0-19.483,0.1-24.55c0.234-13.133,0.25-25.25,0.05-36.35
	C382.95,38.304,382.875,36.538,382.725,34.1z M384.95,44.2c-0.033,1.1,0.1,14.033,0.399,38.8c0.267,25.267,0.351,40.8,0.25,46.6
	c-0.133,6.2,0.067,15.517,0.601,27.95c0.3,6.9,0.767,17.117,1.399,30.65c0.301,8.467,0.551,24.066,0.75,46.8
	c0.167,19,0.25,34.917,0.25,47.75c0,39.033,0.217,55.7,0.65,50c0.267-3.533,0.4-24.3,0.4-62.3c-0.034-40.8-0.051-64.767-0.051-71.9
	c0-4.933-0.517-19.117-1.55-42.55c-0.899-20.7-1.166-35.8-0.8-45.3c0.5-12.267,0.316-30.05-0.55-53.35
	C385.866,33.95,385.283,29.567,384.95,44.2z M389.85,376.5c-0.433-15.467-0.517-29.634-0.25-42.5l-1.699,33.55
	c0,1.066-0.067,3.9-0.2,8.5c0.1,4,0.816,5.816,2.149,5.45C389.917,380.4,389.917,378.733,389.85,376.5z M548.75,361.15
	c0.033-9.301,0.066-15.084,0.1-17.351L548,363.3c-0.1,0.8-0.634,3.75-1.6,8.851c-0.534,4.633,0.116,6.75,1.949,6.35
	C548.583,374.1,548.717,368.316,548.75,361.15z M208.725,54.3c0.888-0.833,1.813-1.166,2.775-1c1.067,0.167,2.033,0.934,2.9,2.3
	c2.167,3.433,3.533,7.85,4.1,13.25c0.267,2.6,0.4,7.633,0.4,15.1c0,15,0.067,28.5,0.2,40.5c0.3,33.233,1.1,61.283,2.4,84.149
	c0.733,12.733,1.217,26.867,1.45,42.4c0.054,3.524,0.096,7.408,0.125,11.65c-0.391,10.264-0.666,21.563-0.825,33.899
	c-0.1,8.367-0.183,22.233-0.25,41.601c0,3.533-0.083,8.899-0.25,16.1c0.027,4.996,0.385,9.354,1.075,13.075
	c0.044,2.173,0.094,4.265,0.15,6.274c0.006,0.388,0.015,0.771,0.025,1.15c0.067,1.333-0.133,2.65-0.6,3.95
	c-0.5,1.333-1.117,2.3-1.85,2.899c-0.455,0.407-0.888,0.699-1.3,0.875c-0.173,0.079-0.34,0.138-0.5,0.176
	c0.807,0.41,1.557,0.686,2.25,0.824c-0.431-0.072-0.881-0.197-1.35-0.375c-0.667-0.267-1.867-0.916-3.6-1.949
	c-0.018-0.234-0.035-0.468-0.05-0.7c-0.027-0.355-0.052-0.714-0.075-1.075c0.107,0.085,0.215,0.144,0.325,0.175
	c0.469,0.179,0.969-0.055,1.5-0.7c0.733-0.866,1.283-2.017,1.65-3.449c0.131-0.481,0.23-1.007,0.3-1.575
	c0.203-1.732,0.103-3.857-0.3-6.375c-0.633-4-0.917-6.65-0.85-7.95l-1.15,2.45c0,1.1,0.017,2.733,0.05,4.899
	c0,1.9-0.167,3.467-0.5,4.7c-0.119,0.504-0.51,1.421-1.175,2.75c-0.017-0.715-0.025-1.448-0.025-2.2c0-4.066,0-7.116,0-9.149
	c0-9.367-0.117-22.084-0.35-38.15c-0.267-18.434-0.417-31.149-0.45-38.149c-0.067-20.267-0.15-35.45-0.25-45.551
	c-0.067-5.1-0.067-11.966,0-20.6c0.033-10.1,0.05-16.983,0.05-20.65c-0.033-5-0.3-10.85-0.8-17.55
	c-0.633-7.767-1.117-13.6-1.45-17.5c-0.8-9.2-1.167-20.35-1.1-33.45c0-2.767-0.083-6.9-0.25-12.4
	c-0.167-5.534-0.25-9.684-0.25-12.45c0.033-6.9,0.05-12.067,0.05-15.5c0-6.067-0.1-11.233-0.3-15.5c-0.2-3.867-0.633-8.967-1.3-15.3
	C209.112,58.021,208.904,56.055,208.725,54.3z M213.55,79.5c-0.167,2.5-0.25,13.067-0.25,31.7c0,18.867,0.083,30.667,0.25,35.4
	c0.067,1.667,0.633,9.167,1.7,22.5c0.933,11.667,1.4,20.233,1.4,25.7c0,4.7-0.05,14.533-0.15,29.5
	c-0.067,14.601-0.017,26.117,0.15,34.55c0.7,40.767,1.467,60.7,2.3,59.801c0.433-0.467,0.4-17.367-0.1-50.7
	c-0.533-36.334-0.767-55.834-0.7-58.5c0.133-3.767-0.3-15.95-1.3-36.55c-1.033-20.7-1.483-33.333-1.35-37.9
	c0.267-10.267,0.233-24.933-0.1-44C215.033,70.3,214.417,66.467,213.55,79.5z M24.825,355.225c0.051,2.628,0.11,5.137,0.175,7.525
	c0.024,0.483,0.016,0.967-0.025,1.45c-0.026,0.252-0.06,0.502-0.1,0.75c-0.109,0.587-0.267,1.171-0.475,1.75
	c-0.5,1.333-1.117,2.3-1.85,2.899c-0.219,0.196-0.436,0.363-0.65,0.5c-0.396,0.28-0.78,0.463-1.15,0.551
	c0.807,0.41,1.557,0.686,2.25,0.824c-0.431-0.072-0.881-0.197-1.35-0.375c-0.243-0.097-0.56-0.247-0.95-0.449
	c-0.665-0.344-1.548-0.844-2.65-1.5c-0.045-0.571-0.086-1.163-0.125-1.775c0.159,0.126,0.317,0.201,0.475,0.225
	c0.429,0.072,0.879-0.178,1.35-0.75c0.491-0.58,0.899-1.288,1.225-2.125c0.162-0.41,0.304-0.852,0.425-1.324
	c0.533-1.967,0.533-4.617,0-7.95c-0.633-4-0.917-6.65-0.85-7.95l-1.15,2.45c0,1.1,0.017,2.733,0.05,4.899c0,1.9-0.167,3.467-0.5,4.7
	c-0.119,0.504-0.51,1.421-1.175,2.75c-0.017-0.715-0.025-1.448-0.025-2.2c0-4.066,0-7.116,0-9.149c0-9.367-0.117-22.084-0.35-38.15
	c-0.267-18.434-0.417-31.149-0.45-38.149c-0.067-20.267-0.15-35.45-0.25-45.551c-0.067-5.1-0.067-11.966,0-20.6
	c0.033-10.1,0.05-16.983,0.05-20.65c-0.033-5-0.3-10.85-0.8-17.55c-0.633-7.767-1.117-13.6-1.45-17.5
	c-0.8-9.2-1.167-20.35-1.1-33.45c0-2.767-0.083-6.9-0.25-12.4c-0.167-5.534-0.25-9.684-0.25-12.45c0.033-6.9,0.05-12.067,0.05-15.5
	c0-6.067-0.1-11.233-0.3-15.5c-0.157-3.03-0.457-6.813-0.9-11.35c-0.123-1.262-0.256-2.579-0.4-3.95
	c-0.238-2.179-0.446-4.146-0.625-5.9c0.338-0.317,0.68-0.559,1.025-0.725c0.571-0.286,1.155-0.378,1.75-0.275
	c1.067,0.167,2.033,0.934,2.9,2.3c2.167,3.433,3.533,7.85,4.1,13.25c0.267,2.6,0.4,7.633,0.4,15.1c0,15,0.067,28.5,0.2,40.5
	c0.3,33.233,1.1,61.283,2.4,84.149c0.733,12.733,1.217,26.867,1.45,42.4c0.054,3.524,0.096,7.408,0.125,11.65
	c-0.391,10.264-0.666,21.563-0.825,33.899c-0.1,8.367-0.183,22.233-0.25,41.601c0,3.533-0.083,8.899-0.25,16.1
	C23.803,347.204,24.162,351.529,24.825,355.225z M3.375,43.975c0.92,0.868,1.562,2.193,1.925,3.975c1.3,5.8,2.167,12.1,2.6,18.9
	c0.3,4.8,0.434,11.283,0.4,19.45c-0.033,9.467-0.1,23.684-0.2,42.65c0,0.8,0.167,15.617,0.5,44.45c0.233,17.8,0.133,32.6-0.3,44.4
	c-0.7,19.066-1.15,34.084-1.35,45.05c-0.3,16.567-0.267,31.584,0.1,45.051c0.1,3.1,0.333,8.017,0.7,14.75
	c0.2,5.966,0,10.899-0.6,14.8c-0.127-0.003-0.261-0.003-0.4,0c-2.333,0.066-3.6,0.066-3.8,0c-0.765-0.153-1.373-0.486-1.825-1
	c-0.419-0.5-0.694-1.167-0.825-2c-0.023-0.163-0.048-0.33-0.075-0.5c-0.237-2.067-0.279-4.884-0.125-8.45
	c0.267-5.3,0.4-8.333,0.4-9.1c0-9.5,0.083-17.65,0.25-24.45C1.283,269.384,1.567,247.6,1.6,226.6c0.033-8.133,0.45-23.133,1.25-45
	c0.667-18.9,0.9-33.9,0.7-45c-0.267-14.8-0.367-33-0.3-54.6C3.312,67.011,3.354,54.335,3.375,43.975z M56.675,380
	c-0.601-1.505-0.893-3.505-0.875-6c0.5-5.533,0.784-9.434,0.85-11.7c0.4-10.267,0.617-22.6,0.65-37
	c-0.066-16.533-0.1-28.899-0.1-37.1V186.25c0.2-19.6,0.233-34.317,0.1-44.15c-0.267-16.867-1.3-31.434-3.1-43.7
	c-0.034-0.333-1.284-8.083-3.75-23.25c-0.192-1.188-0.367-2.354-0.525-3.5c0.437,2.77,0.912,5.703,1.425,8.8
	c2.233-0.367,4.017,0.85,5.35,3.65c2.5,5.167,4.233,11.367,5.2,18.6c0.767,5.566,1.117,12.316,1.05,20.25
	c0,2.167-0.05,5.433-0.15,9.8c-0.033,3.8,0.017,7.05,0.15,9.75c0.1,2.267,0.35,6.117,0.75,11.55c0.367,4.934,0.6,8.8,0.7,11.6
	c0.467,13.8,0.517,30.667,0.15,50.6c-0.2,11.267-0.566,28.134-1.1,50.6c-0.1,6.2-0.083,14.351,0.05,24.45
	c0.167,12.467,0.25,20.617,0.25,24.45c0,2.366-0.05,5.934-0.15,10.7c-0.033,4.267-0.033,7.833,0,10.7
	c0.1,6.533,0.167,9.966,0.2,10.3c0.167,4.066,0.617,7.399,1.35,10c0.467,1.666,1.367,3.916,2.7,6.75c1.033,2.6,1.3,5.166,0.8,7.7
	c-0.633,3.166-1.733,5.466-3.3,6.899c-1.467,1.3-3.367,1.917-5.7,1.851C58.626,380.65,57.634,380.434,56.675,380z M15.55,67.5
	C15.383,70,15.3,80.567,15.3,99.2c0,18.867,0.083,30.667,0.25,35.4c0.067,1.667,0.633,9.167,1.7,22.5
	c0.933,11.667,1.4,20.233,1.4,25.7c0,4.7-0.05,14.533-0.15,29.5c-0.067,14.601-0.017,26.117,0.15,34.55
	c0.7,40.767,1.467,60.7,2.3,59.801c0.433-0.467,0.4-17.367-0.1-50.7c-0.533-36.334-0.767-55.834-0.7-58.5
	c0.133-3.767-0.3-15.95-1.3-36.55c-1.033-20.7-1.483-33.333-1.35-37.9c0.267-10.267,0.233-24.933-0.1-44
	C17.033,58.3,16.417,54.467,15.55,67.5z M58.95,145.05c0.566,26.3,0.85,43.1,0.85,50.4c0,11.7-0.15,36.583-0.45,74.649
	c0,12.567,0.15,17.767,0.45,15.601c0.2-1.533,0.617-18.684,1.25-51.45c0.633-32.066,0.95-51.5,0.95-58.3
	c0-45.434-1.317-68.15-3.95-68.15L58.95,145.05z M5.15,148.15c0,2.934-0.333,14.083-1,33.45c-0.667,19.4-1,31.4-1,36
	c0,2.667-0.15,17.684-0.45,45.051c-0.267,23.699-0.333,35.767-0.2,36.199c0.2,0.601,0.85-15.133,1.95-47.199
	c1.133-32.367,1.7-52.2,1.7-59.5c0-89.933-0.45-130.767-1.35-122.5C4.5,72.583,4.467,85.367,4.7,108
	C4.833,119.7,4.983,133.083,5.15,148.15z M1.85,319.75c-0.1,0.733-0.5,3.467-1.2,8.2c-0.367,4.267,0.117,6.217,1.45,5.85
	c0.167-4.066,0.267-9.416,0.3-16.05c0.033-8.533,0.067-13.884,0.1-16.05L1.85,319.75z M57.15,369c-0.433,2.2-0.55,4.033-0.35,5.5
	c2.1,0.434,3.517-5.134,4.25-16.7c0.333-11.666,0.5-17.533,0.5-17.6l-3.5,23.399C58.017,364.5,57.717,366.3,57.15,369z"/>
<path style="fill-rule:evenodd;clip-rule:evenodd;fill:#47423D;" d="M743.725,365.05l-4.524,0.775
	c-0.258-0.02-0.524-0.045-0.8-0.075c2.066-2,3.283-4.717,3.649-8.15c0.3-2.5,0.334-5.433,0.101-8.8c-0.4-3.866-0.667-6.8-0.801-8.8
	c-0.199-3.233-0.216-7.3-0.05-12.2c0.233-5.5,0.384-9.566,0.45-12.2c0.3-11.233,0.45-20.566,0.45-28
	c0-7.466-0.084-16.649-0.25-27.55c-0.2-12.267-0.351-21.467-0.45-27.6c-0.1-11.467-0.184-20.066-0.25-25.8
	c-0.167-9.867-0.467-18.467-0.9-25.8c-0.733-11.767-1.283-20.6-1.649-26.5c-0.566-10.333-0.867-19.2-0.9-26.6v-52.9
	c-0.267-11.367-0.45-19.9-0.55-25.6c-0.233-10.267-0.033-18.783,0.6-25.55c0.233-2.434-0.033-4.567-0.8-6.4
	c-0.7-1.7-1.633-2.8-2.8-3.3c-1.033-1.233-2.267-1.667-3.7-1.3l-0.825,0.4H729.7c-0.104-1.618-0.187-3.051-0.25-4.3
	c0.819-0.843,1.853-1.576,3.1-2.2c0.934-0.434,1.867-0.317,2.8,0.35c1,0.667,1.684,1.767,2.051,3.3c1.233,4.967,2,10.8,2.3,17.5
	c0.2,4.133,0.217,10.167,0.05,18.1c-0.134,5.667-0.167,12.367-0.1,20.1c0,4.466,0.05,11.183,0.149,20.15
	c0.267,27.467,0.434,43.717,0.5,48.75c0.233,18.367,0.601,34.6,1.101,48.7c0.433,12.101,0.783,28.316,1.05,48.65
	c0.3,24.1,0.55,40.333,0.75,48.7c0.5,21.566,0.8,35.55,0.899,41.949c0.233,15.801,0.217,29.801-0.05,42
	c0.106-0.067,0.206-0.143,0.3-0.225c-0.024,0.028-0.05,0.054-0.074,0.075c-0.056,0.04-0.114,0.082-0.176,0.125
	c-0.016,0.006-0.032,0.015-0.05,0.024l-0.2,0.125C743.807,365.002,743.765,365.026,743.725,365.05z M700.35,380.85
	c-0.229,0.02-0.471,0.028-0.725,0.025c-0.367,0.011-0.759,0.002-1.175-0.025c0.005-0.073,0.014-0.147,0.024-0.225
	c0.021-0.283,0.037-0.567,0.051-0.85c0.085-1.228,0.151-2.469,0.199-3.726c0.249-6.771,0.024-13.986-0.675-21.649
	c-1.2-13.733-1.916-28.801-2.149-45.2c-0.2-12.033-0.134-27.167,0.199-45.4c0.601-36.267,0.834-67.05,0.7-92.35
	c-0.033-5.534-0.2-13.083-0.5-22.65c-0.366-10.867-0.583-18.417-0.649-22.65c-0.067-10.2-0.167-17.816-0.301-22.85
	c-0.233-8.733-0.75-16.3-1.55-22.7c-0.267-2.1-0.8-3.667-1.6-4.7c-0.733-0.933-1.601-1.333-2.601-1.2
	c-0.261-0.981-0.586-1.706-0.975-2.175L688.6,72.5l-0.05-4.95c0.667,0.167,1.316,0.667,1.95,1.5c1.333-0.333,2.5,0.184,3.5,1.55
	c1.1,1.467,1.634,3.566,1.6,6.3l-0.05,4.55c1.9,7.3,2.884,16.95,2.95,28.95c0.033,6.8-0.15,16.733-0.55,29.8
	c-0.134,18-0.066,45.033,0.2,81.1c0,11.601,0.199,40.517,0.6,86.75c0.1,4.566,0.384,16.7,0.85,36.4
	c0.299,12.082,0.523,22.357,0.676,30.825c0.021,1.629,0.046,3.187,0.074,4.675C700.346,380.256,700.346,380.556,700.35,380.85z
	 M700.075,263.775l0.475,14.625c-0.264-4.617-0.431-9.726-0.5-15.325C700.06,263.311,700.067,263.544,700.075,263.775z
	 M556.05,382.425c-0.307,0.017-0.64,0.025-1,0.025c0.396-2.074,0.662-4.425,0.8-7.05c0.135-2.694,0.135-5.678,0-8.95
	c-0.466-7.3-0.767-12.617-0.899-15.95c-0.533-14.533-0.601-30.767-0.2-48.7c0.267-11.566,0.866-27.783,1.8-48.649
	c0.566-12.733,0.7-28.733,0.4-48c-0.434-30.734-0.65-46.75-0.65-48.05l0.3-46.05c0.034-8.8-0.149-15.816-0.55-21.05
	c-0.6-7.367-1.75-14.167-3.45-20.4c-0.498-1.926-1.356-3.36-2.574-4.3H550l0.05-14.2c0.934-0.067,1.783,0.217,2.55,0.85
	c0.867,0.7,1.551,1.75,2.051,3.15c1.1,3,1.933,6.217,2.5,9.65c0.8,1.333,1.199,2.983,1.199,4.95v8.95c0.067,4,0.067,8.017,0,12.05
	v0.6c-0.1,31.233-0.5,79.767-1.199,145.601c-0.622,59.356-0.98,105.531-1.075,138.524
	C556.063,377.825,556.055,380.158,556.05,382.425z M397.05,385.85l-5.2,0.95c-0.149-0.017-0.3-0.033-0.449-0.05
	c2.066-2,3.283-4.717,3.649-8.15c0.3-2.5,0.334-5.433,0.101-8.8c-0.4-3.866-0.667-6.8-0.801-8.8c-0.199-3.233-0.216-7.3-0.05-12.2
	c0.233-5.5,0.384-9.566,0.45-12.2c0.3-11.233,0.45-20.566,0.45-28c0-7.466-0.084-16.649-0.25-27.55
	c-0.2-12.267-0.351-21.467-0.45-27.6c-0.1-11.467-0.184-20.066-0.25-25.8c-0.167-9.867-0.467-18.467-0.9-25.801
	c-0.733-11.766-1.283-20.6-1.649-26.5c-0.566-10.333-0.867-19.2-0.9-26.6v-52.9c-0.267-11.367-0.45-19.9-0.55-25.6
	c-0.233-10.267-0.033-18.783,0.6-25.55c0.233-2.434-0.033-4.567-0.8-6.4c-0.7-1.7-1.633-2.8-2.8-3.3
	c-1.033-1.233-2.267-1.667-3.7-1.3l-0.825,0.4H382.7c-0.103-1.617-0.187-3.051-0.25-4.3c0.819-0.843,1.853-1.576,3.1-2.2
	c0.934-0.434,1.867-0.317,2.8,0.35c1,0.667,1.684,1.767,2.051,3.3c1.233,4.967,2,10.8,2.3,17.5c0.2,4.133,0.217,10.167,0.05,18.1
	c-0.134,5.667-0.167,12.367-0.1,20.1c0,4.466,0.05,11.183,0.149,20.15c0.267,27.467,0.434,43.717,0.5,48.75
	c0.233,18.367,0.601,34.6,1.101,48.7c0.433,12.101,0.783,28.316,1.05,48.65c0.3,24.1,0.55,40.333,0.75,48.7
	c0.5,21.566,0.8,35.55,0.899,41.949C397.333,359.65,397.316,373.65,397.05,385.85z M223.075,262.65
	c-0.029-4.242-0.071-8.126-0.125-11.65c-0.233-15.533-0.717-29.667-1.45-42.4c-1.3-22.866-2.1-50.917-2.4-84.149
	c-0.133-12-0.2-25.5-0.2-40.5c0-7.467-0.133-12.5-0.4-15.1c-0.567-5.4-1.933-9.817-4.1-13.25c-0.867-1.367-1.833-2.133-2.9-2.3
	c-0.962-0.166-1.887,0.167-2.775,1H208.7c-0.094-0.845-0.177-1.703-0.25-2.575l-0.175-1.85c1.193-1.844,2.668-2.252,4.425-1.225
	c3.233,1.934,5.483,5.817,6.75,11.65c0.733,3.367,1.267,8.883,1.6,16.55c0.233,5.533,0.267,11.85,0.1,18.95
	c-0.066,3.2-0.283,9.5-0.65,18.9l-0.35,9.25c0.067,6.6,0.383,15.433,0.95,26.5c0.7,13.167,1.117,21.983,1.25,26.45
	c0.267,8.7,0.7,21.7,1.3,39c0.333,14.966,0.25,27.983-0.25,39.05C223.284,257.447,223.176,260.014,223.075,262.65z M226.35,376.775
	c0,0.063,0,0.121,0,0.175c-0.083,2.791-0.758,4.708-2.025,5.75c-0.271,0.225-0.562,0.407-0.875,0.55
	c-0.387,0.175-0.804,0.274-1.25,0.3l-1.2-0.075c-0.693-0.139-1.443-0.414-2.25-0.824c0.16-0.038,0.327-0.097,0.5-0.176
	c0.412-0.176,0.845-0.468,1.3-0.875c0.733-0.6,1.35-1.566,1.85-2.899c0.467-1.3,0.667-2.617,0.6-3.95
	c-0.01-0.379-0.019-0.763-0.025-1.15c-0.056-2.01-0.106-4.102-0.15-6.274c0.176,0.895,0.368,1.753,0.575,2.575
	c0.33,1.425,0.614,2.766,0.85,4.024c0.581,3.189,0.848,5.849,0.8,7.976C225.849,380.787,226.282,379.079,226.35,376.775z
	 M7.9,337.425c-0.23,0.017-0.48,0.025-0.75,0.025c0.6-3.9,0.8-8.834,0.6-14.8c-0.367-6.733-0.6-11.65-0.7-14.75
	c-0.367-13.467-0.4-28.483-0.1-45.051c0.2-10.966,0.65-25.983,1.35-45.05c0.434-11.8,0.534-26.6,0.3-44.4
	c-0.333-28.833-0.5-43.65-0.5-44.45c0.1-18.967,0.167-33.184,0.2-42.65c0.034-8.167-0.1-14.65-0.4-19.45
	c-0.433-6.8-1.3-13.1-2.6-18.9c-0.363-1.782-1.004-3.107-1.925-3.975L3.35,43.95l0.05-13.1c1.533-0.133,2.684,1.1,3.45,3.7
	c0.833,2.733,1.467,5.7,1.9,8.9c0.6,1.267,0.9,2.783,0.9,4.55v20c-0.066,29.333-0.367,74.25-0.9,134.75
	C8.25,262.006,7.967,306.897,7.9,337.425z M25.075,250.65c-0.029-4.242-0.071-8.126-0.125-11.65
	c-0.233-15.533-0.717-29.667-1.45-42.4c-1.3-22.866-2.1-50.917-2.4-84.149c-0.133-12-0.2-25.5-0.2-40.5c0-7.467-0.133-12.5-0.4-15.1
	c-0.567-5.4-1.933-9.817-4.1-13.25c-0.867-1.367-1.833-2.133-2.9-2.3c-0.595-0.103-1.179-0.011-1.75,0.275
	c-0.345,0.166-0.687,0.408-1.025,0.725H10.7c-0.094-0.845-0.177-1.703-0.25-2.575l-0.175-1.85c0.492-0.76,1.034-1.277,1.625-1.55
	c0.834-0.387,1.768-0.279,2.8,0.325c3.233,1.934,5.483,5.817,6.75,11.65c0.733,3.367,1.267,8.883,1.6,16.55
	c0.233,5.533,0.267,11.85,0.1,18.95c-0.066,3.2-0.283,9.5-0.65,18.9l-0.35,9.25c0.067,6.6,0.383,15.433,0.95,26.5
	c0.7,13.167,1.117,21.983,1.25,26.45c0.267,8.7,0.7,21.7,1.3,39c0.333,14.966,0.25,27.983-0.25,39.05
	C25.284,245.447,25.176,248.014,25.075,250.65z M25.45,371.25c-0.387,0.175-0.804,0.274-1.25,0.3l-1.2-0.075
	c-0.693-0.139-1.443-0.414-2.25-0.824c0.37-0.088,0.753-0.271,1.15-0.551c0.214-0.137,0.431-0.304,0.65-0.5
	c0.733-0.6,1.35-1.566,1.85-2.899c0.208-0.579,0.366-1.163,0.475-1.75c0.041-0.248,0.074-0.498,0.1-0.75
	c0.041-0.483,0.049-0.967,0.025-1.45c-0.065-2.389-0.124-4.897-0.175-7.525c0.176,0.934,0.367,1.825,0.575,2.676
	c0.527,2.273,0.927,4.341,1.2,6.199c0.336,2.241,0.486,4.174,0.45,5.801c0.799-1.113,1.232-2.821,1.3-5.125c0,0.063,0,0.121,0,0.175
	C28.25,368.316,27.283,370.417,25.45,371.25z M64.55,383.4c-2.305,0.444-4.172,0.261-5.6-0.551c-0.641-0.37-1.182-0.895-1.625-1.574
	l-0.175-0.301c-0.188-0.294-0.354-0.619-0.5-0.975h0.025c0.959,0.434,1.951,0.65,2.975,0.65c2.333,0.066,4.233-0.551,5.7-1.851
	c1.566-1.434,2.667-3.733,3.3-6.899c0.5-2.534,0.233-5.101-0.8-7.7c-1.333-2.834-2.233-5.084-2.7-6.75
	c-0.733-2.601-1.183-5.934-1.35-10c-0.033-0.334-0.1-3.767-0.2-10.3c-0.033-2.867-0.033-6.434,0-10.7
	c0.1-4.767,0.15-8.334,0.15-10.7c0-3.833-0.083-11.983-0.25-24.45c-0.133-10.1-0.15-18.25-0.05-24.45
	c0.533-22.466,0.9-39.333,1.1-50.6c0.367-19.934,0.317-36.8-0.15-50.6c-0.1-2.8-0.333-6.667-0.7-11.6
	c-0.4-5.433-0.65-9.283-0.75-11.55c-0.133-2.7-0.184-5.95-0.15-9.75c0.1-4.367,0.15-7.633,0.15-9.8
	c0.066-7.934-0.284-14.684-1.05-20.25c-0.967-7.233-2.7-13.434-5.2-18.6c-1.333-2.8-3.117-4.017-5.35-3.65
	c-0.514-3.097-0.988-6.031-1.425-8.8l-1.9-14.975l0.525-0.125c2.5-0.433,4.684,0.2,6.55,1.9c1.667,1.566,2.95,3.883,3.85,6.95
	c0.367,0.633,0.683,1.467,0.95,2.5c1.5,6.033,2.417,13.434,2.75,22.2c0.633,1.333,0.95,2.917,0.95,4.75l-0.05,15.75
	c0.6,1.333,0.917,2.85,0.95,4.55c0.333,14.867,1.033,37.2,2.1,67c0.667,26.234,0.433,48.517-0.7,66.85c0,8.1-0.117,17.8-0.35,29.1
	c0.133,12.067,0.417,30.15,0.85,54.25c0.733,14.367,1.684,26.917,2.85,37.65c0.3,2.934-0.233,5.45-1.6,7.55
	c-0.5,1.934-1.333,3.65-2.5,5.15L64.55,383.4z"/>
<path style="fill-rule:evenodd;clip-rule:evenodd;fill:#2E2B28;" d="M745.875,358.05c0.011,0.255,0.019,0.48,0.025,0.675
	c0,0.12,0,0.229,0,0.325l-0.025,0.726c-0.004,0.187-0.013,0.369-0.025,0.55v0.125c-0.019,0.221-0.043,0.438-0.074,0.649
	l-0.825,2.775c-0.025,0.043-0.05,0.084-0.075,0.125c-0.156,0.245-0.331,0.453-0.525,0.625c-0.094,0.082-0.193,0.157-0.3,0.225
	c0.267-12.199,0.283-26.199,0.05-42c-0.1-6.399-0.399-20.383-0.899-41.949c-0.2-8.367-0.45-24.601-0.75-48.7
	c-0.267-20.334-0.617-36.55-1.05-48.65c-0.5-14.1-0.867-30.333-1.101-48.7c-0.066-5.033-0.233-21.283-0.5-48.75
	c-0.1-8.967-0.149-15.684-0.149-20.15c-0.067-7.733-0.034-14.434,0.1-20.1c0.167-7.934,0.15-13.967-0.05-18.1
	c-0.3-6.7-1.066-12.533-2.3-17.5c-0.367-1.533-1.051-2.633-2.051-3.3c-0.933-0.667-1.866-0.784-2.8-0.35
	c-1.247,0.624-2.28,1.357-3.1,2.2c-0.021,0.02-0.037,0.037-0.05,0.05c-0.071-1.313-0.121-2.447-0.15-3.4L729.2,3.3l0.3-0.3
	c0.833-0.933,1.467-1.55,1.9-1.85c0.399-0.3,1.083-0.65,2.05-1.05c-0.601,0.267-0.483,0.333,0.35,0.2c0.4-0.066,0.867-0.167,1.4-0.3
	c0.566-0.033,1.633,0.067,3.2,0.3l0.699,0.1c0.134,0.067,0.5,0.184,1.101,0.35l0.55,0.15c0.2,2.067,0.233,5.033,0.1,8.9
	c-0.066,2.034-0.166,4.35-0.3,6.95v43.2c0,1.533-0.066,7.883-0.2,19.05c-0.066,7.733-0.033,14.083,0.101,19.05
	c0.6,18.833,1.483,38.083,2.649,57.75c0.301,5,0.483,12.233,0.551,21.7c0.033,9.933,0.166,17.167,0.399,21.7
	c0.767,14.934,1.15,33.434,1.15,55.5V311c0,4.366-0.117,11.083-0.351,20.15c-0.1,8.166,0.067,14.866,0.5,20.1
	C745.635,354.38,745.81,356.646,745.875,358.05z M693.325,62.8c0.457,0.431,0.965,0.914,1.524,1.45
	c0.301,0.267,0.834,0.533,1.601,0.8c0.733,0.233,1.267,0.517,1.6,0.85c0.834,0.833,1.3,2.667,1.4,5.5
	c0.033,1.567-0.017,3.833-0.15,6.8c0,7.267,0.101,17.85,0.3,31.75c0.2,14.433,0.301,25.05,0.301,31.85l0.149,100.45v20.05v0.775
	c0.069,5.6,0.236,10.708,0.5,15.325c0.044,0.856,0.095,1.698,0.15,2.524c0.015,0.257,0.031,0.516,0.05,0.775
	c0.634,8.967,1.1,20.399,1.4,34.3c0,0.6,0,3.55,0,8.85c0,3.567,0.116,6.483,0.35,8.75c0.434,4.067,0.667,8.934,0.7,14.601
	c0.033,3.267,0.017,8.184-0.05,14.75c0,1.467,0.267,4.566,0.8,9.3c0.027,0.396,0.053,0.778,0.075,1.15
	c0.145,3.586-0.297,5.803-1.325,6.649l-0.025,0.025c-0.149,0.115-0.316,0.216-0.5,0.3c-0.484,0.246-1.093,0.404-1.825,0.475
	c-0.004-0.294-0.004-0.594,0-0.899c-0.028-1.488-0.054-3.046-0.074-4.675c-0.152-8.468-0.377-18.743-0.676-30.825
	c-0.466-19.7-0.75-31.834-0.85-36.4c-0.4-46.233-0.6-75.149-0.6-86.75c-0.267-36.066-0.334-63.1-0.2-81.1
	c0.399-13.067,0.583-23,0.55-29.8c-0.066-12-1.05-21.65-2.95-28.95l0.05-4.55c0.034-2.733-0.5-4.833-1.6-6.3
	c-1-1.367-2.167-1.883-3.5-1.55c-0.634-0.833-1.283-1.333-1.95-1.5l-0.05-8.1c0.366-0.3,0.833-0.2,1.4,0.3
	c0.333,0.267,0.816,0.717,1.449,1.35c0.036,0.028,0.069,0.053,0.101,0.075L693.325,62.8z M560.05,376.1
	c-0.024,0.795-0.058,1.562-0.1,2.301c-0.101,1.699-0.5,2.833-1.2,3.399c-0.075,0.061-0.159,0.119-0.25,0.175
	c-0.184,0.097-0.4,0.18-0.65,0.25c-0.473,0.132-1.073,0.207-1.8,0.226v-0.025c0.005-2.267,0.013-4.6,0.025-7
	c0.095-32.993,0.453-79.168,1.075-138.524c0.699-65.833,1.1-114.367,1.199-145.601v-0.6c0.067-4.034,0.067-8.05,0-12.05V69.7
	c0-1.967-0.399-3.617-1.199-4.95c-0.567-3.433-1.4-6.65-2.5-9.65c-0.5-1.4-1.184-2.45-2.051-3.15
	c-0.767-0.633-1.616-0.917-2.55-0.85v-3.7h0.3c1.5,0.833,3.051,1.25,4.65,1.25l5.65,0.1c0.1,0.033,0.183,0.133,0.25,0.3l0.25,1.55
	c0.233,1.5,0.3,3.566,0.199,6.2c-0.033,1.434-0.1,3.483-0.199,6.15v26c0,21.367-0.25,53.4-0.75,96.1
	c-0.5,42.667-0.75,74.667-0.75,96v61.4c0,1.1,0.149,7.1,0.449,18C560.24,366.574,560.224,371.791,560.05,376.1z M398.9,380.35
	c-0.073,2.926-0.69,4.759-1.851,5.5c0.267-12.199,0.283-26.199,0.05-42c-0.1-6.399-0.399-20.383-0.899-41.949
	c-0.2-8.367-0.45-24.601-0.75-48.7c-0.267-20.334-0.617-36.55-1.05-48.65c-0.5-14.1-0.867-30.333-1.101-48.7
	c-0.066-5.033-0.233-21.283-0.5-48.75c-0.1-8.967-0.149-15.684-0.149-20.15c-0.067-7.733-0.034-14.434,0.1-20.1
	c0.167-7.934,0.15-13.967-0.05-18.1c-0.3-6.7-1.066-12.533-2.3-17.5c-0.367-1.533-1.051-2.633-2.051-3.3
	c-0.933-0.667-1.866-0.784-2.8-0.35c-1.247,0.624-2.28,1.357-3.1,2.2c-0.021,0.021-0.038,0.037-0.05,0.05
	c-0.07-1.307-0.121-2.44-0.15-3.4l-0.05-2.15l0.3-0.3c0.833-0.933,1.467-1.55,1.9-1.85c0.399-0.3,1.083-0.65,2.05-1.05
	c-0.601,0.267-0.483,0.333,0.35,0.2c0.4-0.066,0.867-0.167,1.4-0.3c0.566-0.033,1.633,0.067,3.2,0.3l0.699,0.1
	c0.134,0.067,0.5,0.184,1.101,0.35l0.55,0.15c0.2,2.067,0.233,5.033,0.1,8.9c-0.066,2.034-0.166,4.35-0.3,6.95v43.2
	c0,1.533-0.066,7.883-0.2,19.05c-0.066,7.733-0.033,14.083,0.101,19.05c0.6,18.833,1.483,38.083,2.649,57.75
	c0.301,5,0.483,12.233,0.551,21.7c0.033,9.934,0.166,17.167,0.399,21.7c0.767,14.934,1.15,33.434,1.15,55.5V332
	c0,4.366-0.117,11.083-0.351,20.15c-0.1,8.166,0.067,14.866,0.5,20.1c0.367,4.033,0.551,6.634,0.551,7.8
	C398.899,380.152,398.899,380.253,398.9,380.35z M226.275,374.7c0.042,0.387,0.067,0.67,0.075,0.85c0.01,0.423,0.01,0.831,0,1.226
	c-0.068,2.304-0.501,4.012-1.3,5.125c0.048-2.127-0.219-4.786-0.8-7.976c-0.236-1.259-0.52-2.6-0.85-4.024
	c-0.207-0.822-0.399-1.681-0.575-2.575c-0.69-3.721-1.048-8.079-1.075-13.075c0.167-7.2,0.25-12.566,0.25-16.1
	c0.067-19.367,0.15-33.233,0.25-41.601c0.159-12.336,0.434-23.636,0.825-33.899c0.101-2.637,0.209-5.203,0.325-7.7
	c0.5-11.066,0.583-24.084,0.25-39.05c-0.6-17.301-1.033-30.3-1.3-39c-0.133-4.467-0.55-13.283-1.25-26.45
	c-0.567-11.067-0.883-19.9-0.95-26.5l0.35-9.25c0.367-9.4,0.583-15.7,0.65-18.9c0.167-7.1,0.133-13.417-0.1-18.95
	c-0.333-7.667-0.867-13.184-1.6-16.55c-1.267-5.833-3.517-9.716-6.75-11.65c-1.757-1.027-3.232-0.619-4.425,1.225L208.25,49.9
	l-0.375-4.05c-0.029-0.331-0.054-0.631-0.075-0.9c0.167,0.033,0.434,0.05,0.8,0.05c1.7,0.033,3.733,0.217,6.1,0.55
	c1.367,0.167,3.4,0.434,6.1,0.8c0.6,6.433,1.034,14.833,1.3,25.2c0.533,20.267,0.8,37.417,0.8,51.45c0,10.5,0.167,18.017,0.5,22.55
	c0.467,6.267,0.8,14.184,1,23.75c0.333,14.534,0.517,22.45,0.55,23.75c0.4,12.134,0.566,27.167,0.5,45.101
	c-0.067,10.033-0.15,25.083-0.25,45.149c0,3.434-0.167,7.851-0.5,13.25c-0.434,7.2-0.684,11.601-0.75,13.2
	c-0.133,3.5-0.184,7.866-0.15,13.1c0.034,2.9,0.067,7.267,0.1,13.101c0,10.399,0.583,21.149,1.75,32.25l0.475,4.975
	C226.193,373.795,226.243,374.304,226.275,374.7z M28.35,363.5v0.05c0.01,0.423,0.01,0.831,0,1.226
	c-0.068,2.304-0.501,4.012-1.3,5.125c0.037-1.627-0.113-3.56-0.45-5.801c-0.273-1.858-0.673-3.926-1.2-6.199
	c-0.208-0.851-0.399-1.742-0.575-2.676c-0.664-3.695-1.022-8.021-1.075-12.975c0.167-7.2,0.25-12.566,0.25-16.1
	c0.067-19.367,0.15-33.233,0.25-41.601c0.159-12.336,0.434-23.636,0.825-33.899c0.101-2.637,0.209-5.203,0.325-7.7
	c0.5-11.066,0.583-24.084,0.25-39.05c-0.6-17.3-1.033-30.3-1.3-39c-0.133-4.467-0.55-13.283-1.25-26.45
	c-0.567-11.067-0.883-19.9-0.95-26.5l0.35-9.25c0.367-9.4,0.583-15.7,0.65-18.9c0.167-7.1,0.133-13.417-0.1-18.95
	c-0.333-7.667-0.867-13.184-1.6-16.55c-1.267-5.833-3.517-9.716-6.75-11.65c-1.033-0.604-1.966-0.712-2.8-0.325
	c-0.591,0.273-1.133,0.79-1.625,1.55l0.175,1.85c0.073,0.872,0.156,1.729,0.25,2.575h0.025c0.179,1.755,0.387,3.722,0.625,5.9
	c0.144,1.371,0.277,2.688,0.4,3.95v13.7c0,19.767-0.183,49.4-0.55,88.9c-0.367,39.533-0.55,69.167-0.55,88.9v56.8
	c0,1.6,0.1,7.149,0.3,16.649c0.006,0.314,0.014,0.623,0.025,0.926c0.001,0.072,0.001,0.147,0,0.225L11,328.775
	c-0.007,0.43-0.016,0.854-0.025,1.274v0.476c-0.014,0.421-0.031,0.829-0.05,1.225l-0.35,3.9c-0.15,0.533-0.358,0.933-0.625,1.199
	c-0.073,0.073-0.157,0.141-0.25,0.2c-0.048,0.037-0.098,0.07-0.15,0.101c-0.019,0.01-0.043,0.019-0.075,0.024L9.45,337.2
	c-0.392,0.166-0.908,0.25-1.55,0.25v-0.025c0.067-30.527,0.35-75.419,0.85-134.675C9.283,142.25,9.583,97.333,9.65,68V48
	c0-1.767-0.3-3.283-0.9-4.55c-0.433-3.2-1.067-6.167-1.9-8.9c-0.767-2.6-1.917-3.833-3.45-3.7V27.4h0.2
	c1.133,0.767,2.3,1.15,3.5,1.15l4.3,0.1c0.1,0.033,0.217,0.6,0.35,1.7c0.089,0.751,0.148,1.651,0.175,2.7
	c1.4,0.083,2.992,0.249,4.775,0.5c1.367,0.167,3.4,0.434,6.1,0.8c0.6,6.433,1.034,14.833,1.3,25.2
	c0.533,20.267,0.8,37.417,0.8,51.45c0,10.5,0.167,18.017,0.5,22.55c0.467,6.267,0.8,14.184,1,23.75
	c0.333,14.534,0.517,22.45,0.55,23.75c0.4,12.133,0.566,27.167,0.5,45.101c-0.067,10.033-0.15,25.083-0.25,45.149
	c0,3.434-0.167,7.851-0.5,13.25c-0.434,7.2-0.684,11.601-0.75,13.2c-0.133,3.5-0.184,7.866-0.15,13.1
	c0.034,2.9,0.067,7.267,0.1,13.101c0,10.399,0.583,21.149,1.75,32.25l0.475,4.975C28.252,362.334,28.327,363.108,28.35,363.5z
	 M70.725,375.075c-0.037,1.907-0.221,3.341-0.55,4.3c-0.029,0.093-0.062,0.185-0.1,0.275c-0.009,0.015-0.017,0.031-0.025,0.05
	L70,379.8c-0.041,0.086-0.083,0.169-0.125,0.25c-0.022,0.041-0.047,0.083-0.075,0.125c-0.042,0.075-0.084,0.15-0.125,0.226
	l-2.075,1.925c-0.283,0.181-0.592,0.339-0.925,0.475c-0.634,0.257-1.342,0.457-2.125,0.601l0.6-0.7c1.167-1.5,2-3.217,2.5-5.15
	c1.367-2.1,1.9-4.616,1.6-7.55c-1.167-10.733-2.117-23.283-2.85-37.65c-0.433-24.1-0.717-42.183-0.85-54.25
	c0.233-11.3,0.35-21,0.35-29.1c1.133-18.333,1.367-40.616,0.7-66.85c-1.067-29.8-1.767-52.133-2.1-67
	c-0.033-1.7-0.35-3.217-0.95-4.55l0.05-15.75c0-1.833-0.317-3.417-0.95-4.75c-0.333-8.767-1.25-16.167-2.75-22.2
	c-0.267-1.033-0.583-1.867-0.95-2.5c-0.9-3.066-2.184-5.383-3.85-6.95c-1.867-1.7-4.05-2.333-6.55-1.9l-0.525,0.125L47.85,56.7
	l-0.5-5.25l0.95-0.5c2.633,0.3,4.5,0.483,5.6,0.55c2.1,0.1,3.95,0.067,5.55-0.1c1.833,9.2,3,15.483,3.5,18.85
	c1.133,7.167,1.683,13.55,1.65,19.15c0,3.5,0.2,7.5,0.6,12c0.233,2.633,0.617,6.567,1.15,11.8c0.333,3.167,0.5,7.017,0.5,11.55
	c0.033,2.567,0.017,6.45-0.05,11.65c0,20.6,0.3,51.45,0.9,92.55c0.566,41.1,0.85,71.934,0.85,92.5c0,16.066,0.45,29.583,1.35,40.55
	c0.1,1.267,0.35,4.3,0.75,9.1C70.729,372.595,70.754,373.919,70.725,375.075z"/>
<path style="fill-rule:evenodd;clip-rule:evenodd;fill:#8E837B;" d="M731.95,23.2c0.333-14.633,0.916-10.25,1.75,13.15
	c0.866,23.3,1.05,41.083,0.55,53.35c-0.366,9.5-0.1,24.6,0.8,45.3c1.033,23.433,1.55,37.617,1.55,42.55
	c0,7.133,0.017,31.101,0.051,71.9c0,38-0.134,58.767-0.4,62.3c-0.434,5.7-0.65-10.967-0.65-50c0-12.833-0.083-28.75-0.25-47.75
	c-0.199-22.733-0.449-38.333-0.75-46.8c-0.633-13.534-1.1-23.75-1.399-30.65c-0.533-12.433-0.733-21.75-0.601-27.95
	c0.101-5.8,0.017-21.333-0.25-46.6C732.05,37.233,731.917,24.3,731.95,23.2z M691.95,176.95c-1.134-13.367-1.733-20.983-1.8-22.85
	c-0.134-3.934,0.216-15,1.05-33.2l1.35-26.15c0.3-9.567,0.7-0.383,1.2,27.55c0.267,14.9,0.566,35.6,0.9,62.1
	c0.233,15.567-0.834,55.767-3.2,120.6c-0.167-4.634-0.25-15.783-0.25-33.45c0-11.033,0.3-24.983,0.899-41.85
	c0.667-16.3,1.051-26.134,1.15-29.5C693.384,196.3,692.95,188.55,691.95,176.95z M692.55,364.35l-0.399-5.5
	c0.133,1.4,0.283,2.634,0.449,3.7c0.5,3.533,1.301,7.066,2.4,10.601c0.233,0.733,0.55,1.6,0.95,2.6
	c0.133,0.476,0.191,1.009,0.175,1.6c-0.017,0.433-0.075,0.899-0.175,1.4c-0.195,0.04-0.379,0.048-0.55,0.025
	c-0.273-0.024-0.523-0.116-0.75-0.275c-0.896-0.645-1.496-2.312-1.801-5C692.717,372.4,692.616,369.35,692.55,364.35z M734.7,355.05
	c0.133-4.6,0.2-7.434,0.2-8.5L736.6,313c-0.267,12.866-0.183,27.033,0.25,42.5c0.067,2.233,0.067,3.9,0,5
	C735.517,360.866,734.8,359.05,734.7,355.05z M552.4,177.85c-0.233-16.267-0.434-30.717-0.601-43.35
	c-0.333-24.467-0.283-38.283,0.15-41.45c1.166-8.933,1.75,35.2,1.75,132.4c0,7.833-0.75,29.25-2.25,64.25
	c-1.5,34.666-2.367,51.684-2.601,51.05c-0.166-0.467-0.066-13.5,0.301-39.1c0.399-29.167,0.6-45.417,0.6-48.75
	c0-5,0.45-17.967,1.35-38.9C551.967,193.067,552.4,181.017,552.4,177.85z M384.95,44.2c0.333-14.633,0.916-10.25,1.75,13.15
	c0.866,23.3,1.05,41.083,0.55,53.35c-0.366,9.5-0.1,24.6,0.8,45.3c1.033,23.433,1.55,37.617,1.55,42.55
	c0,7.134,0.017,31.101,0.051,71.9c0,38-0.134,58.767-0.4,62.3c-0.434,5.7-0.65-10.967-0.65-50c0-12.833-0.083-28.75-0.25-47.75
	c-0.199-22.733-0.449-38.333-0.75-46.8c-0.633-13.534-1.1-23.75-1.399-30.65c-0.533-12.433-0.733-21.75-0.601-27.95
	c0.101-5.8,0.017-21.333-0.25-46.6C385.05,58.233,384.917,45.3,384.95,44.2z M389.85,376.5c0.067,2.233,0.067,3.9,0,5
	c-1.333,0.366-2.05-1.45-2.149-5.45c0.133-4.6,0.2-7.434,0.2-8.5L389.6,334C389.333,346.866,389.417,361.033,389.85,376.5z
	 M548.75,361.15c-0.033,7.166-0.167,12.949-0.4,17.35c-1.833,0.4-2.483-1.717-1.949-6.35c0.966-5.101,1.5-8.051,1.6-8.851l0.85-19.5
	C548.816,346.066,548.783,351.85,548.75,361.15z M215.925,379.375c-0.145-0.125-0.287-0.292-0.425-0.5
	c-0.085-0.128-0.168-0.27-0.25-0.425c-0.5-0.9-0.417-2.117,0.25-3.65c0.092-0.177,0.184-0.344,0.275-0.5
	c0.665-1.329,1.057-2.246,1.175-2.75c0.333-1.233,0.5-2.8,0.5-4.7c-0.034-2.166-0.05-3.8-0.05-4.899l1.15-2.45
	c-0.066,1.3,0.217,3.95,0.85,7.95c0.403,2.518,0.503,4.643,0.3,6.375c-0.07,0.568-0.169,1.094-0.3,1.575
	c-0.367,1.433-0.917,2.583-1.65,3.449c-0.531,0.646-1.031,0.879-1.5,0.7C216.14,379.519,216.032,379.46,215.925,379.375z
	 M213.55,79.5c0.867-13.033,1.483-9.2,1.85,11.5c0.333,19.067,0.367,33.733,0.1,44c-0.133,4.567,0.317,17.2,1.35,37.9
	c1,20.6,1.433,32.784,1.3,36.55c-0.066,2.666,0.167,22.166,0.7,58.5c0.5,33.333,0.533,50.233,0.1,50.7
	c-0.833,0.899-1.6-19.034-2.3-59.801c-0.167-8.433-0.217-19.949-0.15-34.55c0.1-14.967,0.15-24.8,0.15-29.5
	c0-5.466-0.467-14.033-1.4-25.7c-1.067-13.333-1.633-20.833-1.7-22.5c-0.167-4.733-0.25-16.533-0.25-35.4
	C213.3,92.567,213.383,82,213.55,79.5z M15.55,67.5c0.867-13.033,1.483-9.2,1.85,11.5c0.333,19.067,0.367,33.733,0.1,44
	c-0.133,4.567,0.317,17.2,1.35,37.9c1,20.6,1.433,32.783,1.3,36.55c-0.066,2.666,0.167,22.166,0.7,58.5
	c0.5,33.333,0.533,50.233,0.1,50.7c-0.833,0.899-1.6-19.034-2.3-59.801c-0.167-8.433-0.217-19.949-0.15-34.55
	c0.1-14.967,0.15-24.8,0.15-29.5c0-5.466-0.467-14.033-1.4-25.7c-1.067-13.333-1.633-20.833-1.7-22.5
	c-0.167-4.733-0.25-16.533-0.25-35.4C15.3,80.567,15.383,70,15.55,67.5z M17.925,367.375c-0.232-0.2-0.457-0.509-0.675-0.925
	c-0.5-0.9-0.417-2.117,0.25-3.65c0.092-0.177,0.184-0.344,0.275-0.5c0.665-1.329,1.057-2.246,1.175-2.75
	c0.333-1.233,0.5-2.8,0.5-4.7c-0.034-2.166-0.05-3.8-0.05-4.899l1.15-2.45c-0.066,1.3,0.217,3.95,0.85,7.95
	c0.533,3.333,0.533,5.983,0,7.95c-0.121,0.473-0.263,0.914-0.425,1.324c-0.326,0.837-0.734,1.545-1.225,2.125
	c-0.471,0.572-0.921,0.822-1.35,0.75C18.242,367.576,18.083,367.501,17.925,367.375z M1.85,319.75L2.5,301.7
	c-0.033,2.166-0.067,7.517-0.1,16.05c-0.033,6.634-0.133,11.983-0.3,16.05c-1.333,0.367-1.817-1.583-1.45-5.85
	C1.35,323.217,1.75,320.483,1.85,319.75z M5.15,148.15C4.983,133.083,4.833,119.7,4.7,108C4.467,85.367,4.5,72.583,4.8,69.65
	c0.9-8.267,1.35,32.567,1.35,122.5c0,7.3-0.566,27.133-1.7,59.5c-1.1,32.066-1.75,47.8-1.95,47.199
	c-0.133-0.433-0.067-12.5,0.2-36.199C3,235.283,3.15,220.267,3.15,217.6c0-4.6,0.333-16.6,1-36
	C4.817,162.233,5.15,151.083,5.15,148.15z M58.95,145.05l-0.9-37.25c2.633,0,3.95,22.717,3.95,68.15c0,6.8-0.317,26.233-0.95,58.3
	c-0.633,32.767-1.05,49.917-1.25,51.45c-0.3,2.166-0.45-3.033-0.45-15.601c0.3-38.066,0.45-62.949,0.45-74.649
	C59.8,188.15,59.517,171.35,58.95,145.05z M57.15,369c0.567-2.7,0.867-4.5,0.9-5.4l3.5-23.399c0,0.066-0.167,5.934-0.5,17.6
	c-0.733,11.566-2.15,17.134-4.25,16.7C56.6,373.033,56.717,371.2,57.15,369z"/>
</svg>
