<?xml version="1.0" encoding="iso-8859-1"?>
<!-- Generator: Adobe Illustrator 15.1.0, SVG Export Plug-In . SVG Version: 6.00 Build 0)  -->
<!DOCTYPE svg PUBLIC "-//W3C//DTD SVG 1.1//EN" "http://www.w3.org/Graphics/SVG/1.1/DTD/svg11.dtd">
<svg version="1.1" id="FlashAICB" xmlns="http://www.w3.org/2000/svg" xmlns:xlink="http://www.w3.org/1999/xlink" x="0px" y="0px"
	 width="167px" height="263.75px" viewBox="0 0 167 263.75" style="enable-background:new 0 0 167 263.75;" xml:space="preserve">
<path style="fill-rule:evenodd;clip-rule:evenodd;fill:#51463C;" d="M88.5,154.35l2,11.351c-0.233,0.166-0.65,1.5-1.25,4
	c-0.566,2.5-0.816,4.066-0.75,4.7c0.1,0.699,0.35,1.517,0.75,2.449c0.267,0.534,0.667,1.334,1.2,2.4c-0.101-0.7-0.101-1.434,0-2.2
	c0.1-0.566,0.35-1.566,0.75-3c0.333-1.2,0.533-2.217,0.6-3.05c0.134-2.033,0.167-3.583,0.101-4.65
	c-0.067-0.933-0.334-1.983-0.801-3.149c-0.533-1.3-0.916-2.316-1.149-3.05c-0.167-0.5-0.384-1.483-0.65-2.95
	C89.1,155.967,88.833,155.017,88.5,154.35z M90.45,179.25c0.1,0.934,0.333,2.316,0.7,4.15
	C91.384,182.167,91.15,180.783,90.45,179.25z M110.5,230.65v0.3c0,2.934,0.167,6.066,0.5,9.399c0.267,2.667,0.417,4.301,0.45,4.9
	c0.066,2.4-0.233,3.85-0.9,4.35c-1.267,0.9-2.5,0.617-3.7-0.85c-1.133-1.866-1.883-3.05-2.25-3.55c-0.033,0.3-0.066,0.934-0.1,1.899
	c0,0.767-0.083,1.351-0.25,1.75c-1.434-0.267-2.4-2.916-2.9-7.949c-0.267-5.5-0.55-8.75-0.85-9.75c-0.167-0.634-0.5-1.334-1-2.101
	c-0.667-1-1.066-1.649-1.2-1.95c-0.434-0.966-0.883-2.3-1.35-4c-0.733-2.633-1.117-4-1.15-4.1c-0.399-1.3-0.684-2.733-0.85-4.3
	c-0.167-1.834-0.316-3.283-0.45-4.351c-0.066-0.833-0.283-1.833-0.65-3c-0.5-1.733-0.783-2.733-0.85-3
	c-0.767-3.033-1.35-5.3-1.75-6.8c-0.667-2.7-1.15-5.033-1.45-7c-0.066,1.2,0.066,2.767,0.4,4.7c0.467,2.566,0.733,4.116,0.8,4.65
	c0.1,1.1,0.134,2.767,0.1,5c-0.066,2.233-0.05,3.899,0.051,5c0.1,1.1,0.316,5.267,0.649,12.5c0.167,2.733,1.5,7.216,4,13.449
	c2.2,5.534,3.066,10.117,2.601,13.75c-1.767-0.1-2.5,1.733-2.2,5.5c-0.733-0.033-1.417-0.05-2.05-0.05c-0.4,0-0.784,0-1.15,0
	c-1.134-0.934-2-1.816-2.6-2.649c-0.801-1.067-1.434-2.334-1.9-3.801c-1.1,0.801-2.167,0.567-3.2-0.699
	c-0.866-1.101-1.366-2.284-1.5-3.551c-0.166-1.866,0.267-3.233,1.3-4.1c1.567-0.833,2.801-1.65,3.7-2.45
	c-1.7,0.066-3.517-0.35-5.45-1.25c-2.233-1.033-3.433-2.316-3.6-3.85c0,0.533,0.133,1.267,0.4,2.2c0.267,0.966,0.4,1.683,0.4,2.149
	c0,0.434-0.133,1.084-0.4,1.95c-0.233,0.9-0.367,1.566-0.4,2c-1,0.333-1.867,0.066-2.6-0.8c-0.767-1.167-1.4-1.95-1.9-2.351
	c-0.133,0.667-0.217,1.684-0.25,3.051c-1.233-2.167-1.983-5.117-2.25-8.851c-0.233-3.633,0.067-6.649,0.9-9.05
	c0.267-0.733,1.567-3.2,3.9-7.4c1.667-3.033,2.417-5.616,2.25-7.75c-0.033-0.8-0.066-1.399-0.1-1.8c-0.1-0.666-0.284-1.233-0.55-1.7
	c-0.133-0.233-0.467-0.5-1-0.8c-0.533-0.267-0.833-0.483-0.9-0.649c-0.333-0.801-0.45-2.084-0.35-3.851
	c0.167-1.934,0.25-3.267,0.25-4V175.1c-0.066,2.167-0.3,4.667-0.7,7.5c-0.133,1.067-0.517,3.551-1.15,7.45
	c-0.1,0.8-0.233,2.351-0.4,4.65c-0.2,2.1-0.55,3.55-1.05,4.35c-0.733,1.167-1.633,1.584-2.7,1.25
	c-1.033-0.366-1.683-1.166-1.95-2.399c0.1,1.466,0.5,2.833,1.2,4.1c0.5,0.934,1.383,2.134,2.65,3.6
	c0.934,1.101,1.434,2.284,1.5,3.551c0.034,0.633-0.15,2.1-0.55,4.399c-0.233,1.533-0.4,2.483-0.5,2.851
	c-0.233,1.066-0.567,1.966-1,2.699c-0.133,0.233-0.467,0.601-1,1.101c-0.533,0.467-0.883,0.85-1.05,1.149
	c-0.4,0.801-0.717,1.934-0.95,3.4c-0.1,0.8-0.267,2-0.5,3.6c-1.2-1.267-2-3.533-2.4-6.8c-0.567-4.333-0.967-6.866-1.2-7.6
	c-1.533-4.233-2.633-7.417-3.3-9.55c-1.167-3.667-1.883-6.95-2.15-9.851c-0.067-1-0.067-2.85,0-5.55
	c0.066-2.333-0.017-4.15-0.25-5.45c-0.2-1.2-0.6-2.866-1.2-5c-0.7-2.366-1.15-4.033-1.35-5c-1.1-5.333-0.933-11.283,0.5-17.85
	c0.333-1.566,0.667-3.634,1-6.2c0.367-3.167,0.633-5.267,0.8-6.3c0.167-1,0.367-1.934,0.6-2.8l-0.95,2.05
	c-0.8,1.934-1.45,4.467-1.95,7.6c-0.8,5.134-1.2,7.733-1.2,7.8c-1.233,6.267-2.05,13.2-2.45,20.801c-0.3,5.333-0.417,12.333-0.35,21
	c-0.1-0.7-0.383-1.45-0.85-2.25c-0.1-0.2-0.55-0.917-1.35-2.15l-3.4-5.6c-1.267-2.2-2.283-4.15-3.05-5.851
	c-1.167-2.633-1.85-5.6-2.05-8.899c0.033-0.967,0.05-1.634,0.05-2c-0.033-0.634-0.267-1.217-0.7-1.75
	c-0.867,1.033-1.216,3.133-1.05,6.3c0.233,4.166,0.317,6.467,0.25,6.899c-1.033-3.133-1.783-6.3-2.25-9.5
	c-0.5-3.6-0.6-6.866-0.3-9.8c0.233-2.833,0.433-4.967,0.6-6.399c0.3-2.567,0.767-4.667,1.4-6.301c0.6-1.566,2.017-2.983,4.25-4.25
	c2.433-1.333,3.95-2.533,4.55-3.6c0.733-1.3,1.033-3.6,0.9-6.9c-0.167-4.6-0.233-7.083-0.2-7.45c0.3-3.5,1.283-6.683,2.95-9.55
	c0.733-1.3,2.7-4.05,5.9-8.25c2.034-2.867,3.684-5.083,4.95-6.65c2.233-2.833,4.217-4.633,5.95-5.4c0.3,0.833,0.8,2.9,1.5,6.2
	c0.533,2.633,1.183,4.55,1.95,5.75c0.833-0.833,1.417-2.233,1.75-4.2c0.167-1.066,0.267-2.633,0.3-4.7c0-3.667,0.017-6.4,0.05-8.2
	c0.1-3.167,0.367-5.867,0.8-8.1c0.5,2.434,0.767,6.217,0.8,11.35c0.066,5.2,0.333,9.033,0.8,11.5c1.1,5.767,1.667,8.75,1.7,8.95
	c0.767,3.066,1.9,5.933,3.4,8.6c2.1,3.733,3.7,6.883,4.8,9.45c-0.166-1.634-0.8-5.2-1.899-10.7c-0.767-4.067-1.15-8.15-1.15-12.25
	c-0.167-3.167-0.2-5.9-0.1-8.2c0.166-4.367,0.85-6.733,2.05-7.1c1.333,1.733,2.467,3.6,3.399,5.6c0.101,0.2,0.384,1,0.851,2.4
	c0.333,1,0.717,1.75,1.149,2.25l3.351-5.6c0.133,1.067,0.434,2.284,0.899,3.65c0.233,0.767,0.634,1.95,1.2,3.55
	c0.5,1.467,0.884,3.25,1.15,5.35c0.133,1.2,0.316,3,0.55,5.4c0.134,1.067,0.066,3.15-0.2,6.25c-0.1,2.767,0.4,4.583,1.5,5.45
	c0.167,0.133,0.334,0.267,0.5,0.399l-0.05,3.051c-0.033,2.399-0.05,4.583-0.05,6.55c-0.033,0.533-0.05,1.083-0.05,1.649v0.051
	c-0.034,5.633-0.034,9.316,0,11.05c0.066,2.333,0.716,9.616,1.949,21.85c0.2,1.834,0.384,3.55,0.551,5.15
	c-0.334,1-0.517,1.583-0.551,1.75c-0.466,1.7-0.733,3.233-0.8,4.6c-0.1,1.834-0.05,3.967,0.15,6.4c0.1,1.434,0.283,3.566,0.55,6.399
	c0.467,5.434,1.116,10.067,1.95,13.9c1.133,5.233,2.7,9.616,4.7,13.15C109.384,229.333,109.833,229.917,110.5,230.65z M79.15,138.95
	c-0.733-1.733-1.233-3.066-1.5-4l0.85,8.1c0,0.066,0.083,2.033,0.25,5.9c0.133,2.467,0.067,4.434-0.2,5.899
	c-0.167,0.9-0.4,1.884-0.7,2.95c-0.434,1.467-0.817,2.351-1.15,2.65c-0.333,0.3-0.833,0.5-1.5,0.6
	c-0.667,0.101-1.117,0.267-1.35,0.5c3.066,0.566,5.233-0.233,6.5-2.399c0.867-1.534,1.35-4.017,1.45-7.45
	c0.1-3.101-0.283-6.066-1.15-8.9C80.417,142,79.917,140.717,79.15,138.95z M61.85,134.8c-0.8,2.233-1.4,4.101-1.8,5.601
	c1.633-3.2,2.55-5.034,2.75-5.5c0.867-2.167,1.217-4.067,1.05-5.7C63.65,129.8,62.983,131.667,61.85,134.8z M77.15,130.35
	c-0.167,1.367,0,2.9,0.5,4.6L77.15,130.35z M87.85,141.25c0,2.1,0.15,3.783,0.45,5.05c0.4,1.634,1.15,3.15,2.25,4.55
	c0-4.6-1-9.25-3-13.949C87.75,138.833,87.85,140.283,87.85,141.25z M101.35,255.65c2.767,0.366,5.317,0.85,7.65,1.449
	c-1.566-0.366-3.3-0.716-5.2-1.05C102.967,255.917,102.15,255.783,101.35,255.65z M75.85,254.7c0.9,0.066,2.25,0.133,4.05,0.2
	l0.6,0.05c-0.867-0.033-1.617-0.066-2.25-0.101c-1.3-0.066-2.567-0.133-3.8-0.199C74.917,254.65,75.383,254.667,75.85,254.7z
	 M62.35,253c-1.533-0.3-3.267-0.5-5.2-0.6c1.567,0.033,3.233,0.216,5,0.55L62.35,253z"/>
<path style="fill-rule:evenodd;clip-rule:evenodd;fill:#453C33;" d="M92.075,89.475c0.553,0.801,1.078,1.776,1.575,2.925
	c0.833,1.833,1.333,3.383,1.5,4.65c0.1,0.667,0.116,1.633,0.05,2.9c-0.066,1.367-0.084,2.35-0.05,2.95l0.05,0.4l-3.351,5.6
	c-0.433-0.5-0.816-1.25-1.149-2.25c-0.467-1.4-0.75-2.2-0.851-2.4c-0.933-2-2.066-3.867-3.399-5.6c-1.2,0.367-1.884,2.733-2.05,7.1
	c-0.101,2.3-0.067,5.033,0.1,8.2c0,4.1,0.384,8.183,1.15,12.25c1.1,5.5,1.733,9.066,1.899,10.7c-1.1-2.567-2.7-5.717-4.8-9.45
	c-1.5-2.667-2.633-5.534-3.4-8.6c-0.033-0.2-0.6-3.184-1.7-8.95c-0.467-2.467-0.733-6.3-0.8-11.5c-0.033-5.133-0.3-8.917-0.8-11.35
	c-0.433,2.233-0.7,4.934-0.8,8.1c-0.033,1.8-0.05,4.533-0.05,8.2c-0.034,2.066-0.133,3.633-0.3,4.7
	c-0.333,1.967-0.917,3.367-1.75,4.2c-0.767-1.2-1.417-3.117-1.95-5.75c-0.7-3.3-1.2-5.367-1.5-6.2
	c-1.733,0.767-3.717,2.567-5.95,5.4c-1.267,1.566-2.917,3.783-4.95,6.65c-3.2,4.2-5.167,6.95-5.9,8.25
	c-1.667,2.867-2.65,6.05-2.95,9.55c-0.034,0.367,0.033,2.85,0.2,7.45c0.133,3.301-0.167,5.601-0.9,6.9
	c-0.6,1.066-2.117,2.267-4.55,3.6c-2.233,1.267-3.65,2.684-4.25,4.25c-0.633,1.634-1.1,3.733-1.4,6.301
	c-0.167,1.433-0.367,3.566-0.6,6.399c-0.3,2.934-0.2,6.2,0.3,9.8c0.467,3.2,1.217,6.367,2.25,9.5
	c0.067-0.433-0.017-2.733-0.25-6.899c-0.167-3.167,0.183-5.267,1.05-6.3c0.434,0.533,0.667,1.116,0.7,1.75
	c0,0.366-0.017,1.033-0.05,2c0.2,3.3,0.883,6.267,2.05,8.899c0.767,1.7,1.783,3.65,3.05,5.851l3.4,5.6
	c0.8,1.233,1.25,1.95,1.35,2.15c0.467,0.8,0.75,1.55,0.85,2.25c-0.066-8.667,0.05-15.667,0.35-21
	c0.4-7.601,1.217-14.534,2.45-20.801c0-0.066,0.4-2.666,1.2-7.8c0.5-3.133,1.15-5.666,1.95-7.6l0.95-2.05
	c-0.233,0.866-0.433,1.8-0.6,2.8c-0.167,1.033-0.434,3.133-0.8,6.3c-0.333,2.566-0.667,4.634-1,6.2
	c-1.433,6.566-1.6,12.517-0.5,17.85c0.2,0.967,0.65,2.634,1.35,5c0.6,2.134,1,3.8,1.2,5c0.233,1.3,0.316,3.117,0.25,5.45
	c-0.067,2.7-0.067,4.55,0,5.55c0.267,2.9,0.983,6.184,2.15,9.851c0.667,2.133,1.767,5.316,3.3,9.55c0.233,0.733,0.633,3.267,1.2,7.6
	c0.4,3.267,1.2,5.533,2.4,6.8c0.233-1.6,0.4-2.8,0.5-3.6c0.233-1.467,0.55-2.6,0.95-3.4c0.167-0.3,0.517-0.683,1.05-1.149
	c0.533-0.5,0.867-0.867,1-1.101c0.433-0.733,0.767-1.633,1-2.699c0.1-0.367,0.267-1.317,0.5-2.851c0.4-2.3,0.583-3.767,0.55-4.399
	c-0.066-1.267-0.566-2.45-1.5-3.551c-1.267-1.466-2.15-2.666-2.65-3.6c-0.7-1.267-1.1-2.634-1.2-4.1
	c0.267,1.233,0.917,2.033,1.95,2.399c1.067,0.334,1.967-0.083,2.7-1.25c0.5-0.8,0.85-2.25,1.05-4.35c0.167-2.3,0.3-3.851,0.4-4.65
	c0.633-3.899,1.017-6.383,1.15-7.45c0.4-2.833,0.633-5.333,0.7-7.5v19.95c0,0.733-0.083,2.066-0.25,4
	c-0.1,1.767,0.017,3.05,0.35,3.851c0.067,0.166,0.367,0.383,0.9,0.649c0.533,0.3,0.867,0.566,1,0.8c0.267,0.467,0.45,1.034,0.55,1.7
	c0.033,0.4,0.066,1,0.1,1.8c0.167,2.134-0.583,4.717-2.25,7.75c-2.333,4.2-3.633,6.667-3.9,7.4c-0.833,2.4-1.133,5.417-0.9,9.05
	c0.267,3.733,1.017,6.684,2.25,8.851c0.033-1.367,0.117-2.384,0.25-3.051c0.5,0.4,1.133,1.184,1.9,2.351
	c0.733,0.866,1.6,1.133,2.6,0.8c0.033-0.434,0.167-1.1,0.4-2c0.267-0.866,0.4-1.517,0.4-1.95c0-0.467-0.133-1.184-0.4-2.149
	c-0.267-0.934-0.4-1.667-0.4-2.2c0.167,1.533,1.367,2.816,3.6,3.85c1.934,0.9,3.75,1.316,5.45,1.25c-0.899,0.8-2.133,1.617-3.7,2.45
	c-1.033,0.866-1.466,2.233-1.3,4.1c0.134,1.267,0.634,2.45,1.5,3.551c1.033,1.267,2.101,1.5,3.2,0.699
	c0.467,1.467,1.1,2.733,1.9,3.801c0.6,0.833,1.466,1.716,2.6,2.649c-2.9,0-5.434-0.017-7.6-0.05H83.3
	c-0.633-1.4-1.15-2.384-1.55-2.95c-0.7-1-1.533-1.316-2.5-0.95c-0.067,0.567-0.1,1.434-0.1,2.601c-0.933-1.267-1.6-2.217-2-2.851
	c-0.733-1.133-1.167-2.183-1.3-3.149v5.149c-0.533-1.199-1.033-2.683-1.5-4.449c-1.767-6.301-2.6-12.684-2.5-19.15
	c-0.033,1-0.167,2.667-0.4,5c-0.2,2.1-0.3,3.75-0.3,4.95c0,0.566,0.083,1.684,0.25,3.35c0.1,1.5,0.033,2.55-0.2,3.15
	c-1.034,2.6-3.867,2.066-8.5-1.601c-4.867-4.6-7.784-7.333-8.75-8.199c-0.567,0.633-0.833,1.683-0.8,3.149
	c0,1.533-0.217,2.601-0.65,3.2c-1.267-0.967-1.983-2.733-2.15-5.3c0.1-2.934,0.15-4.95,0.15-6.05c0-0.801,0.083-1.65,0.25-2.551
	c0.6-1.433,0.967-2.466,1.1-3.1l0.2-0.9c0.6-1.3,1.05-2.3,1.35-3c0.567-1.233,1-2.333,1.3-3.3c0.667-2.333,0.833-5.35,0.5-9.05
	c-0.934-9.5-1.4-17.634-1.4-24.4c-0.033,1.834-0.133,4.584-0.3,8.25c-0.2,3.667-0.317,6.4-0.35,8.2
	c-0.033,1.167-0.333,2.533-0.9,4.101c-0.633,1.699-1,3-1.1,3.899c-0.066,0.767,0,2.5,0.2,5.2c-1.167,4.066-2.35,6.3-3.55,6.7
	c-1.433,0.5-2.333,0.1-2.7-1.2l0.05,1.45c-0.9-0.601-1.6-1.483-2.1-2.65c-0.466-1.467-0.883-2.6-1.25-3.399
	c0.034,1.267,0.034,3.35,0,6.25c-0.033,2.666-0.017,4.733,0.05,6.199c-0.5-1.733-2.4-3.966-5.7-6.699c-3.2-2.7-5.05-5.101-5.55-7.2
	c-0.567-2.367-0.783-5.167-0.65-8.4c0.133-3.566,0.7-6.267,1.7-8.1c0.667,0.934,1.3,2.283,1.9,4.05c0.6,1.767,0.917,3.2,0.95,4.3
	c0-0.733,0.083-3.283,0.25-7.649c0.133-3.2,0.05-5.75-0.25-7.65c-0.233-1.6-0.883-3.5-1.95-5.7c-1.733-3.467-2.65-5.316-2.75-5.55
	c-0.4-1.1-0.716-1.967-0.95-2.6c-0.434-1.233-0.833-2.117-1.2-2.65c-0.066-0.134-0.3-0.3-0.7-0.5c-0.333-0.233-0.55-0.467-0.65-0.7
	c-0.3-0.8-0.466-1.783-0.5-2.95c0-1.366,0-2.399,0-3.1c0-1.934,0.15-4.066,0.45-6.4c0.133-0.966,0.483-3.083,1.05-6.35
	c0.8-4.8,1.434-8.066,1.9-9.8c1.033-3.767,2.417-6.75,4.15-8.95c2.6-3.333,4.367-6.417,5.3-9.25c0.3-0.9,0.467-2.067,0.5-3.5
	c0-1.967,0.033-3.167,0.1-3.6c0.367-2.833,1.217-5.933,2.55-9.3c0.633-1.7,1.85-4.033,3.65-7c1.867-3.167,3.117-5.517,3.75-7.05
	c-0.034,1.1-0.483,5.567-1.35,13.4c-0.6,5.5-0.567,9.95,0.1,13.35c0.833-1.167,1.4-3.033,1.7-5.6c0.434-3.934,0.65-5.934,0.65-6
	c0.9-4.034,2.5-7.6,4.8-10.7c1.867-2.133,3.183-3.733,3.95-4.8c1.3-1.767,2-3.684,2.1-5.75c0.167-3,0.283-4.817,0.35-5.45
	c1.267-1.433,2.667-2.4,4.2-2.9c0.2,0.867,0.433,1.383,0.7,1.55c0.434,0.267,1.184,0.033,2.25-0.7c0.133-0.1,0.767-0.583,1.9-1.45
	c1.233,0,2.3,0.117,3.2,0.35l0.2-0.3l0.3,0.2c1.433,0.833,2.383,1.733,2.85,2.7c0.3,0.566,0.483,1.3,0.55,2.2
	c0.033,0.2,0.083,1.2,0.15,3c0.133,3.434,0.583,7.467,1.35,12.1c0.434,2.667,1.15,6.65,2.15,11.95c0.867-0.8,1.2-3.267,1-7.4
	c-0.233-5.533-0.35-8.383-0.35-8.55c0.466-3.8,0.75-5.917,0.85-6.35c0.566-2.8,1.483-4.783,2.75-5.95
	c0.334,0.633,1.134,1.25,2.4,1.85c0.833,0.434,1.533,0.85,2.1,1.25c0.667,0.633,1.267,1.25,1.8,1.85L92.075,89.475z M77.15,130.35
	l0.5,4.6C77.15,133.25,76.983,131.717,77.15,130.35z M61.85,134.8c1.133-3.133,1.8-5,2-5.6c0.167,1.633-0.184,3.533-1.05,5.7
	c-0.2,0.466-1.117,2.3-2.75,5.5C60.45,138.9,61.05,137.033,61.85,134.8z M79.15,138.95c0.767,1.767,1.267,3.05,1.5,3.85
	c0.867,2.834,1.25,5.8,1.15,8.9c-0.1,3.434-0.583,5.916-1.45,7.45c-1.267,2.166-3.434,2.966-6.5,2.399
	c0.233-0.233,0.683-0.399,1.35-0.5c0.667-0.1,1.167-0.3,1.5-0.6c0.333-0.3,0.716-1.184,1.15-2.65c0.3-1.066,0.533-2.05,0.7-2.95
	c0.267-1.466,0.333-3.433,0.2-5.899c-0.167-3.867-0.25-5.834-0.25-5.9l-0.85-8.1C77.917,135.884,78.417,137.217,79.15,138.95z
	 M87.85,141.25c0-0.967-0.1-2.417-0.3-4.35c2,4.699,3,9.35,3,13.949c-1.1-1.399-1.85-2.916-2.25-4.55
	C88,145.033,87.85,143.35,87.85,141.25z M110.5,230.65c1.134,1.199,1.816,2.216,2.05,3.05c0.233,0.967,0.217,2.733-0.05,5.3
	c0,1.2,0.1,3.217,0.3,6.05c0.134,2.601-0.017,4.601-0.45,6c-0.8,2.566-2.916,3.65-6.35,3.25c-3.967-0.467-6.467-0.133-7.5,1
	l-1.9-0.149c-0.133-0.034-0.267-0.051-0.399-0.051c-0.3-3.767,0.434-5.6,2.2-5.5c0.466-3.633-0.4-8.216-2.601-13.75
	c-2.5-6.233-3.833-10.716-4-13.449c-0.333-7.233-0.55-11.4-0.649-12.5c-0.101-1.101-0.117-2.767-0.051-5c0.034-2.233,0-3.9-0.1-5
	c-0.066-0.534-0.333-2.084-0.8-4.65c-0.334-1.934-0.467-3.5-0.4-4.7c0.3,1.967,0.783,4.3,1.45,7c0.4,1.5,0.983,3.767,1.75,6.8
	c0.066,0.267,0.35,1.267,0.85,3c0.367,1.167,0.584,2.167,0.65,3c0.134,1.067,0.283,2.517,0.45,4.351c0.166,1.566,0.45,3,0.85,4.3
	c0.033,0.1,0.417,1.467,1.15,4.1c0.467,1.7,0.916,3.034,1.35,4c0.134,0.301,0.533,0.95,1.2,1.95c0.5,0.767,0.833,1.467,1,2.101
	c0.3,1,0.583,4.25,0.85,9.75c0.5,5.033,1.467,7.683,2.9,7.949c0.167-0.399,0.25-0.983,0.25-1.75c0.033-0.966,0.066-1.6,0.1-1.899
	c0.367,0.5,1.117,1.684,2.25,3.55c1.2,1.467,2.434,1.75,3.7,0.85c0.667-0.5,0.967-1.949,0.9-4.35c-0.033-0.6-0.184-2.233-0.45-4.9
	c-0.333-3.333-0.5-6.466-0.5-9.399V230.65z M90.45,179.25c0.7,1.533,0.934,2.917,0.7,4.15
	C90.783,181.566,90.55,180.184,90.45,179.25z M88.5,154.35c0.333,0.667,0.6,1.617,0.8,2.851c0.267,1.467,0.483,2.45,0.65,2.95
	c0.233,0.733,0.616,1.75,1.149,3.05c0.467,1.166,0.733,2.217,0.801,3.149c0.066,1.067,0.033,2.617-0.101,4.65
	c-0.066,0.833-0.267,1.85-0.6,3.05c-0.4,1.434-0.65,2.434-0.75,3c-0.101,0.767-0.101,1.5,0,2.2c-0.533-1.066-0.934-1.866-1.2-2.4
	c-0.4-0.933-0.65-1.75-0.75-2.449c-0.066-0.634,0.184-2.2,0.75-4.7c0.6-2.5,1.017-3.834,1.25-4L88.5,154.35z"/>
<path style="fill-rule:evenodd;clip-rule:evenodd;fill:#3E352C;" d="M74.5,79.2c1.3,0.133,2.633,0.3,4,0.5
	c1.833,0.233,4.55,1.783,8.15,4.65c0.233,0.2,0.483,0.4,0.75,0.6c0.966,0.8,1.85,1.583,2.649,2.35c-0.566-0.4-1.267-0.816-2.1-1.25
	c-1.267-0.6-2.066-1.216-2.4-1.85c-1.267,1.167-2.184,3.15-2.75,5.95c-0.1,0.434-0.383,2.55-0.85,6.35
	c0,0.167,0.117,3.017,0.35,8.55c0.2,4.133-0.133,6.6-1,7.4c-1-5.3-1.716-9.284-2.15-11.95c-0.767-4.633-1.217-8.667-1.35-12.1
	c-0.066-1.8-0.117-2.8-0.15-3c-0.066-0.9-0.25-1.633-0.55-2.2c-0.467-0.967-1.417-1.867-2.85-2.7l-0.3-0.2
	C74.15,79.933,74.333,79.567,74.5,79.2z M100.95,118.55l-0.05-0.05l0.05,0.55v0.1c0.033,0.8,0.017,3.383-0.05,7.75l-0.101,6.45
	c-0.166-0.133-0.333-0.267-0.5-0.399c-1.1-0.867-1.6-2.684-1.5-5.45c0.267-3.1,0.334-5.183,0.2-6.25c-0.233-2.4-0.417-4.2-0.55-5.4
	c-0.267-2.1-0.65-3.883-1.15-5.35c-0.566-1.6-0.967-2.783-1.2-3.55c-0.466-1.367-0.767-2.583-0.899-3.65l-0.05-0.4
	c-0.034-0.6-0.017-1.583,0.05-2.95c0.066-1.267,0.05-2.233-0.05-2.9c-0.167-1.267-0.667-2.816-1.5-4.65
	c-0.497-1.149-1.022-2.124-1.575-2.925l1.875,2.575c0.2,0.3,0.366,0.617,0.5,0.95v-0.05c0.2,0.466,0.366,0.933,0.5,1.4
	c0.5,2,1.684,6.367,3.55,13.1C99.967,112.983,100.783,116.683,100.95,118.55z M70.55,80.25c-1.133,0.867-1.767,1.35-1.9,1.45
	c-1.066,0.733-1.816,0.966-2.25,0.7c-0.267-0.167-0.5-0.683-0.7-1.55h0.05C67.15,80.383,68.75,80.183,70.55,80.25z M45.15,221.2
	c0.067,0.866,0.217,1.717,0.45,2.55c0.167,0.467,0.517,1.033,1.05,1.7c0.567,0.666,0.917,1.2,1.05,1.6
	c0.333,0.834,0.316,1.767-0.05,2.8c-0.233,0.567-0.583,1.45-1.05,2.65c-0.4,1.667-0.317,4.35,0.25,8.05
	c0.533,3.533,0.55,6.117,0.05,7.75c-2.7,0.367-5.65-0.25-8.85-1.85c-3.333-1.634-5.583-3.667-6.75-6.101
	c-0.6-1.199-0.867-2.816-0.8-4.85c0.033-2.667,0-4.333-0.1-5c-0.733-0.1-1.55-0.4-2.45-0.9c-1.034-0.566-1.8-0.983-2.3-1.25
	c-0.633-0.3-1.433-0.649-2.4-1.05c-0.767-0.399-1.467-0.967-2.1-1.7c-0.8-1.433-1.4-2.466-1.8-3.1c-0.733-1.167-1.533-1.434-2.4-0.8
	c-0.7,0.5-1.05,2.05-1.05,4.649c-0.033,2.834-0.217,4.534-0.55,5.101c-0.867-2.3-1.5-4-1.9-5.101
	c-0.633-1.866-1.017-3.666-1.15-5.399c-0.333-3.566-0.5-7.851-0.5-12.851V197.7c0.034-2.167,0.6-3.3,1.7-3.4
	c2.167-0.2,3.583-0.533,4.25-1c0.8-0.533,1.433-1.717,1.9-3.55c0.233-0.9,0.467-2.25,0.7-4.05c0.566-4.267,0.633-10.75,0.2-19.45
	c-0.433-8.9-0.4-15.483,0.1-19.75c0.167-1.434,0.667-2.934,1.5-4.5c1.167-2.233,1.85-3.6,2.05-4.1c0.4-1.101,0.583-2.684,0.55-4.75
	c-0.167-2.3-0.25-3.917-0.25-4.851c0-6.066,0.417-10.5,1.25-13.3c0.333-1.1,1.033-2.4,2.1-3.9c1.4-2,2.233-3.233,2.5-3.7
	c0.667-1.433,1.133-2.433,1.4-3c0.433-1,1.083-1.883,1.95-2.65c2.7-2.3,5.033-4.083,7-5.35c3.633-2.4,7-4.233,10.1-5.5
	c0.4-0.167,1.233-0.383,2.5-0.65c1.1-0.2,1.934-0.467,2.5-0.8c1.034-0.567,2.083-1.434,3.15-2.6c1.1-1.4,1.95-2.434,2.55-3.1
	c-0.067,0.633-0.183,2.45-0.35,5.45c-0.1,2.066-0.8,3.983-2.1,5.75c-0.767,1.066-2.083,2.667-3.95,4.8c-2.3,3.1-3.9,6.667-4.8,10.7
	c0,0.066-0.216,2.066-0.65,6c-0.3,2.566-0.867,4.433-1.7,5.6c-0.667-3.4-0.7-7.85-0.1-13.35c0.867-7.833,1.316-12.3,1.35-13.4
	c-0.633,1.534-1.883,3.883-3.75,7.05c-1.8,2.967-3.017,5.3-3.65,7c-1.333,3.367-2.183,6.467-2.55,9.3
	c-0.067,0.434-0.1,1.633-0.1,3.6c-0.033,1.433-0.2,2.6-0.5,3.5c-0.933,2.833-2.7,5.917-5.3,9.25c-1.733,2.2-3.117,5.184-4.15,8.95
	c-0.467,1.733-1.1,5-1.9,9.8c-0.566,3.267-0.917,5.384-1.05,6.35c-0.3,2.334-0.45,4.467-0.45,6.4c0,0.7,0,1.733,0,3.1
	c0.034,1.167,0.2,2.15,0.5,2.95c0.1,0.233,0.317,0.467,0.65,0.7c0.4,0.2,0.633,0.366,0.7,0.5c0.367,0.533,0.767,1.417,1.2,2.65
	c0.233,0.633,0.55,1.5,0.95,2.6c0.1,0.233,1.017,2.083,2.75,5.55c1.067,2.2,1.717,4.101,1.95,5.7c0.3,1.9,0.383,4.45,0.25,7.65
	c-0.167,4.366-0.25,6.916-0.25,7.649c-0.033-1.1-0.35-2.533-0.95-4.3c-0.6-1.767-1.233-3.116-1.9-4.05c-1,1.833-1.566,4.533-1.7,8.1
	c-0.133,3.233,0.083,6.033,0.65,8.4c0.5,2.1,2.35,4.5,5.55,7.2c3.3,2.733,5.2,4.966,5.7,6.699c-0.067-1.466-0.083-3.533-0.05-6.199
	c0.034-2.9,0.034-4.983,0-6.25c0.367,0.8,0.784,1.933,1.25,3.399C43.55,219.717,44.25,220.6,45.15,221.2z M52.05,224.35
	c0.434-2.333,0.7-4.517,0.8-6.55c0.1-2.8-0.184-4.75-0.85-5.85l-0.65,2.3c-0.2-2.7-0.267-4.434-0.2-5.2
	c0.1-0.899,0.467-2.2,1.1-3.899c0.567-1.567,0.867-2.934,0.9-4.101c0.033-1.8,0.15-4.533,0.35-8.2c0.167-3.666,0.267-6.416,0.3-8.25
	c0,6.767,0.467,14.9,1.4,24.4c0.333,3.7,0.167,6.717-0.5,9.05c-0.3,0.967-0.733,2.066-1.3,3.3
	C53.1,222.05,52.65,223.05,52.05,224.35z M57.15,252.4c-0.533-0.034-1.083-0.051-1.65-0.051c-0.333,0-0.683,0-1.05,0H54.1
	c-0.333,0-0.633,0-0.9,0c-0.067-0.1-0.133-0.233-0.2-0.399l-3.05-6.65c-1-2.267-1.6-4.25-1.8-5.95c-0.2-1.767-0.033-3.767,0.5-6
	c0.167-0.6,0.867-2.267,2.1-5c-0.167,0.9-0.25,1.75-0.25,2.551c0,1.1-0.05,3.116-0.15,6.05c0.167,2.566,0.883,4.333,2.15,5.3
	c0.433-0.6,0.65-1.667,0.65-3.2c-0.033-1.467,0.233-2.517,0.8-3.149c0.966,0.866,3.883,3.6,8.75,8.199
	c4.633,3.667,7.466,4.2,8.5,1.601c0.233-0.601,0.3-1.65,0.2-3.15c-0.167-1.666-0.25-2.783-0.25-3.35c0-1.2,0.1-2.851,0.3-4.95
	c0.233-2.333,0.367-4,0.4-5c-0.1,6.467,0.733,12.85,2.5,19.15c0.467,1.767,0.967,3.25,1.5,4.449v1.851
	c-0.467-0.033-0.934-0.05-1.4-0.05l-4.15-0.4c-1.933-0.2-3.767-0.45-5.5-0.75c-0.133-0.033-0.283-0.066-0.45-0.1
	c-0.1-0.034-0.184-0.051-0.25-0.051c-0.5-0.1-1-0.199-1.5-0.3L62.35,253l-0.2-0.05c-0.6-0.834-1.05-1.45-1.35-1.851
	c-0.566-0.767-1.133-1.399-1.7-1.899C57.867,249.533,57.217,250.6,57.15,252.4z M83.3,255l-2.8-0.05l-0.6-0.05l-0.75-1.2
	c0-1.167,0.033-2.033,0.1-2.601c0.967-0.366,1.8-0.05,2.5,0.95C82.15,252.616,82.667,253.6,83.3,255z M109,257.1
	c-2.333-0.6-4.884-1.083-7.65-1.449l-2.3-0.301c-0.2,0-0.383-0.017-0.55-0.05c1.033-1.133,3.533-1.467,7.5-1
	c3.434,0.4,5.55-0.684,6.35-3.25c0.434-1.399,0.584-3.399,0.45-6c-0.2-2.833-0.3-4.85-0.3-6.05c0.267-2.566,0.283-4.333,0.05-5.3
	c-0.233-0.834-0.916-1.851-2.05-3.05c-0.667-0.733-1.116-1.317-1.35-1.75c-2-3.534-3.567-7.917-4.7-13.15
	c-0.834-3.833-1.483-8.467-1.95-13.9c-0.267-2.833-0.45-4.966-0.55-6.399c-0.2-2.434-0.25-4.566-0.15-6.4
	c0.066-1.366,0.334-2.899,0.8-4.6c0.034-0.167,0.217-0.75,0.551-1.75c0.866,9.033,1.316,14.25,1.35,15.649
	c0,0.334,0.066,0.834,0.2,1.5c0.033,0.2,0.083,0.434,0.149,0.7c0.667,3.066,2.301,8.834,4.9,17.3c0.267,0.867,0.517,1.7,0.75,2.5
	c2.9,9.834,4.384,15.834,4.45,18c0.066,2.434,0.833,6.267,2.3,11.5c1.267,4.634,2.616,8.817,4.05,12.551l1.05,0.149
	c0.567,0.101,1.301,0.233,2.2,0.4l-0.05,0.1c-1.233,0.233-2.634-0.133-4.2-1.1c-2.633-1.601-5.017-2.8-7.149-3.601L109,257.1z"/>
<path style="fill-rule:evenodd;clip-rule:evenodd;fill:#332B23;" d="M45.15,221.2l-0.05-1.45c0.367,1.3,1.267,1.7,2.7,1.2
	c1.2-0.4,2.383-2.634,3.55-6.7l0.65-2.3c0.667,1.1,0.95,3.05,0.85,5.85c-0.1,2.033-0.367,4.217-0.8,6.55l-0.2,0.9
	c-0.133,0.634-0.5,1.667-1.1,3.1c-1.233,2.733-1.933,4.4-2.1,5c-0.533,2.233-0.7,4.233-0.5,6c0.2,1.7,0.8,3.684,1.8,5.95l3.05,6.65
	c0.067,0.166,0.133,0.3,0.2,0.399H40.5c-0.567-2.233-1.4-3.716-2.5-4.449c-0.433-0.267-1.25-0.5-2.45-0.7
	c-1.2-0.2-2.066-0.467-2.6-0.8c-0.867-0.567-1.85-1.601-2.95-3.101c-0.633,0.4-0.983,1.384-1.05,2.95
	c-0.034,0.767,0.017,1.95,0.15,3.55l0.25,2.55l-10.4,0.101c-0.1-0.2-0.217-0.4-0.35-0.601l-5.75-12.55
	c-0.1-0.267-0.217-0.55-0.35-0.85c-0.067-0.101-0.117-0.217-0.15-0.351c-2.467-5.933-3.767-9.017-3.9-9.25
	c0.1,3.9,0.133,6.284,0.1,7.15c-0.1,2.866-0.5,5.167-1.2,6.9c-0.467-0.567-0.817-1.384-1.05-2.45c-0.233-1.2-0.4-2.084-0.5-2.65
	c-1.1-6.934-1.767-10.95-2-12.05c-0.867-4.6-1.3-10.566-1.3-17.9c-0.033-2.699-0.05-4.733-0.05-6.1c0.033-2.333,0.2-4.333,0.5-6
	c0.2-0.9,0.917-3.134,2.15-6.7c0.967-2.866,1.467-5.066,1.5-6.6c0.6-0.167,1.25-0.033,1.95,0.399
	c0.833,0.534,1.483,0.817,1.95,0.851c0.933,0.066,1.617-0.101,2.05-0.5c0.3-0.3,0.667-0.967,1.1-2
	c0.567-1.267,0.917-2.816,1.05-4.65c0.167-2.066-0.067-3.566-0.7-4.5c-0.2,0.467-0.45,1.217-0.75,2.25
	c-0.333,0.9-0.767,1.533-1.3,1.9c-0.267-2.233-0.267-5.2,0-8.9c0.367-4.767,0.55-7.75,0.55-8.95c-0.033-2.166,0.3-4.833,1-8
	c1.033-4.833,1.583-7.483,1.65-7.949L17.3,128c0.133-0.767,0.35-2.817,0.65-6.15c0.233-2.5,0.566-4.55,1-6.15
	c0.566-2.1,1.883-4.7,3.95-7.8c2.3-3.467,3.767-5.983,4.4-7.55c1.1-2.767,3-6.317,5.7-10.65c1.333-2.133,3.333-4.2,6-6.2
	c0.033-0.033,1.733-1.183,5.1-3.45c6.933-1.566,15.05-2.033,24.35-1.4c1.966,0.133,3.983,0.317,6.05,0.55
	c-0.167,0.367-0.35,0.733-0.55,1.1l-0.2,0.3c-0.9-0.233-1.967-0.35-3.2-0.35c-1.8-0.067-3.4,0.133-4.8,0.6H65.7
	c-1.534,0.5-2.934,1.467-4.2,2.9c-0.6,0.667-1.45,1.7-2.55,3.1c-1.067,1.167-2.117,2.033-3.15,2.6c-0.566,0.333-1.4,0.6-2.5,0.8
	c-1.267,0.267-2.1,0.483-2.5,0.65c-3.1,1.267-6.466,3.1-10.1,5.5c-1.967,1.267-4.3,3.05-7,5.35c-0.867,0.767-1.517,1.65-1.95,2.65
	c-0.267,0.567-0.733,1.567-1.4,3c-0.267,0.467-1.1,1.7-2.5,3.7c-1.067,1.5-1.767,2.8-2.1,3.9c-0.833,2.8-1.25,7.233-1.25,13.3
	c0,0.934,0.083,2.55,0.25,4.851c0.033,2.066-0.15,3.649-0.55,4.75c-0.2,0.5-0.883,1.866-2.05,4.1c-0.833,1.566-1.333,3.066-1.5,4.5
	c-0.5,4.267-0.533,10.85-0.1,19.75c0.434,8.7,0.367,15.184-0.2,19.45c-0.233,1.8-0.467,3.149-0.7,4.05
	c-0.467,1.833-1.1,3.017-1.9,3.55c-0.667,0.467-2.083,0.8-4.25,1c-1.1,0.101-1.667,1.233-1.7,3.4V208.1c0,5,0.167,9.284,0.5,12.851
	c0.133,1.733,0.517,3.533,1.15,5.399c0.4,1.101,1.033,2.801,1.9,5.101c0.333-0.566,0.517-2.267,0.55-5.101
	c0-2.6,0.35-4.149,1.05-4.649c0.867-0.634,1.667-0.367,2.4,0.8c0.4,0.634,1,1.667,1.8,3.1c0.633,0.733,1.333,1.301,2.1,1.7
	c0.967,0.4,1.767,0.75,2.4,1.05c0.5,0.267,1.267,0.684,2.3,1.25c0.9,0.5,1.716,0.801,2.45,0.9c0.1,0.667,0.133,2.333,0.1,5
	c-0.067,2.033,0.2,3.65,0.8,4.85c1.167,2.434,3.417,4.467,6.75,6.101c3.2,1.6,6.15,2.217,8.85,1.85c0.5-1.633,0.483-4.217-0.05-7.75
	c-0.567-3.7-0.65-6.383-0.25-8.05c0.467-1.2,0.816-2.083,1.05-2.65c0.367-1.033,0.383-1.966,0.05-2.8
	c-0.133-0.399-0.483-0.934-1.05-1.6c-0.533-0.667-0.883-1.233-1.05-1.7C45.367,222.917,45.217,222.066,45.15,221.2z M79.15,253.7
	l0.75,1.2c-1.8-0.067-3.15-0.134-4.05-0.2v-1.851V247.7c0.133,0.967,0.566,2.017,1.3,3.149
	C77.55,251.483,78.217,252.434,79.15,253.7z M62.15,252.95c-1.767-0.334-3.433-0.517-5-0.55c0.067-1.801,0.717-2.867,1.95-3.2
	c0.566,0.5,1.133,1.133,1.7,1.899C61.1,251.5,61.55,252.116,62.15,252.95z"/>
<path style="fill-rule:evenodd;clip-rule:evenodd;fill:#2A241C;" d="M18.95,252.45c-0.967,0.033-3.217,0.149-6.75,0.35
	c-0.167,0-0.317,0.017-0.45,0.05l-5.9,0.2c-0.067,0-0.117,0-0.15,0c-0.034,0-0.067,0-0.1,0c-0.067,0-0.133,0-0.2,0
	c-1.933,0-3.733,0.167-5.4,0.5V187.2c0.067-0.934,0.133-1.834,0.2-2.7l2-25.55c1.767-22.566,2.933-34.767,3.5-36.6
	c0.733-2.267,1.767-4.733,3.1-7.4c1.333-2.633,2.95-5.45,4.85-8.45c0.067-0.167,0.15-0.317,0.25-0.45
	c0.082-0.132,0.166-0.266,0.25-0.4l0.8-1.25c0.493-0.735,1.043-1.536,1.65-2.4l4.1-5.95c0.167-0.194,0.325-0.402,0.475-0.625
	L21.2,95.4v-0.025c0.016-0.023,0.033-0.048,0.05-0.075l2.55-3.6l5.7-5.55c0.767-0.533,1.583-1.05,2.45-1.55H31.9
	c2.5-1.467,5.383-2.684,8.65-3.65c1.167-0.333,2.35-0.633,3.55-0.9c-3.367,2.267-5.067,3.417-5.1,3.45c-2.667,2-4.667,4.067-6,6.2
	c-2.7,4.333-4.6,7.883-5.7,10.65c-0.633,1.566-2.1,4.083-4.4,7.55c-2.066,3.1-3.383,5.7-3.95,7.8c-0.434,1.6-0.767,3.65-1,6.15
	c-0.3,3.333-0.517,5.383-0.65,6.15l-2.15,14.4c-0.066,0.466-0.617,3.116-1.65,7.949c-0.7,3.167-1.033,5.834-1,8
	c0,1.2-0.183,4.184-0.55,8.95c-0.267,3.7-0.267,6.667,0,8.9c0.533-0.367,0.966-1,1.3-1.9c0.3-1.033,0.55-1.783,0.75-2.25
	c0.633,0.934,0.867,2.434,0.7,4.5c-0.133,1.834-0.483,3.384-1.05,4.65c-0.433,1.033-0.8,1.7-1.1,2
	c-0.433,0.399-1.117,0.566-2.05,0.5c-0.467-0.033-1.117-0.316-1.95-0.851c-0.7-0.433-1.35-0.566-1.95-0.399
	c-0.033,1.533-0.533,3.733-1.5,6.6c-1.233,3.566-1.95,5.8-2.15,6.7c-0.3,1.667-0.467,3.667-0.5,6c0,1.366,0.017,3.4,0.05,6.1
	c0,7.334,0.433,13.301,1.3,17.9c0.233,1.1,0.9,5.116,2,12.05c0.1,0.566,0.267,1.45,0.5,2.65c0.233,1.066,0.583,1.883,1.05,2.45
	c0.7-1.733,1.1-4.034,1.2-6.9c0.034-0.866,0-3.25-0.1-7.15c0.133,0.233,1.433,3.317,3.9,9.25c0.033,0.134,0.083,0.25,0.15,0.351
	c0.133,0.3,0.25,0.583,0.35,0.85l5.75,12.55C18.733,252.05,18.85,252.25,18.95,252.45z M40.5,252.35H29.35l-0.25-2.55
	c-0.133-1.6-0.184-2.783-0.15-3.55c0.066-1.566,0.417-2.55,1.05-2.95c1.1,1.5,2.083,2.533,2.95,3.101c0.533,0.333,1.4,0.6,2.6,0.8
	c1.2,0.2,2.017,0.434,2.45,0.7C39.1,248.634,39.933,250.116,40.5,252.35z"/>
<path style="fill-rule:evenodd;clip-rule:evenodd;fill:#736656;" d="M161.55,29.55c-0.566,0.934-1.149,1.85-1.75,2.75
	c0.2-0.367,0.417-0.716,0.65-1.05l0.8-1.25L161.55,29.55z M124,189.2l0.4,0.2l0.399,0.25L124,189.2z M143.6,198l-0.1-1.45
	c-0.333-5.866-0.5-10.2-0.5-13l-0.4,6.75c-0.199-2.866-0.35-4.866-0.449-6c-0.134-1.899-0.184-3.149-0.15-3.75l-2.5,11l0.15-0.8
	c0-0.934-0.084-1.983-0.25-3.15c-1.034,0.2-1.801-0.066-2.301-0.8c-0.533,3.3-0.833,5.017-0.899,5.15
	c-0.7,1.633-2.267,2.133-4.7,1.5c-2.4-0.601-3.7-2.15-3.9-4.65c0.233-3.066,0.367-5.283,0.4-6.649c0.066-0.834,0.1-1.483,0.1-1.95
	c0-0.834-0.149-1.434-0.449-1.8c-0.233-0.267-0.65-0.584-1.25-0.95c0.533-0.434,0.85-1.066,0.949-1.9
	c0.4-2.399,0.601-5.083,0.601-8.05c0-3-0.217-5.667-0.65-8c-0.3-1.6-0.8-3.684-1.5-6.25c-0.934-3.333-1.5-5.417-1.7-6.25
	c-0.133-0.634-0.666-2.583-1.6-5.85c-1-3.167-1.717-5.551-2.15-7.15c-0.699-2.8-0.983-5.283-0.85-7.45l-3,8
	c-1.033,6.101-1.366,11.767-1,17c0.033,0.9,0.2,2.267,0.5,4.101c0.267,1.733,0.417,3.1,0.45,4.1c-0.033,1.467-0.4,3.467-1.101,6
	l-0.75-0.3c-0.233-0.2-0.433-0.5-0.6-0.9v-0.399l-0.05,0.35c-0.2-0.566-0.351-1.384-0.45-2.45c-0.066-0.833-0.05-2.25,0.05-4.25
	c0.101-1.833,0.084-3.233-0.05-4.2c-0.1-0.833-0.316-1.949-0.65-3.35c-0.366-1.434-0.6-2.5-0.699-3.2c0,1.767-0.084,3.767-0.25,6
	l-0.101,0.7l-2.3-9.9c0,0.767-0.017,2.717-0.05,5.851c0.2,2.8,0.967,4.383,2.3,4.75c-0.434,5.566,0.05,11.017,1.45,16.35l1.6,5.65
	c0.267,1.633,0.717,3.6,1.351,5.899l0.25,1.9c0.1,0.967,0.25,2.934,0.449,5.9c0.167,2.433,0.351,4.399,0.551,5.899
	c0.5,4.033,0.333,8.684-0.5,13.95c-1.167-0.2-2-0.816-2.5-1.85c-0.4-1.334-0.733-2.351-1-3.051c-1.667-4.166-2.517-6.3-2.551-6.399
	c-0.166-0.467-0.466-1.233-0.899-2.3c-0.434-1-0.733-1.767-0.9-2.301c-0.267-0.966-0.434-2.316-0.5-4.05
	c-0.1-2.533-0.166-3.899-0.2-4.1c-0.199-2.2-0.316-4.767-0.35-7.7c0-3.434,0-6.017,0-7.75c0-11.1-1.283-22.616-3.85-34.55
	c-0.4-1.834-0.801-4.15-1.2-6.95c-0.634-4.133-1-6.483-1.101-7.05c-0.267-1.5-0.566-2.633-0.899-3.4
	c-0.167-1.867-0.983-5.566-2.45-11.1c-1.866-6.733-3.05-11.1-3.55-13.1c-0.134-0.467-0.3-0.934-0.5-1.4l-0.101-0.4
	c-0.066-1.533-0.166-2.566-0.3-3.1c-0.233-0.9-0.934-1.967-2.1-3.2c-0.9-0.967-1.884-1.833-2.95-2.6l-2.65-1.15
	c-1.366-0.633-2.017-1.117-1.949-1.45c0.166-0.667,0.933-1.017,2.3-1.05c0.7-0.033,1.649-0.05,2.85-0.05
	c-0.6-0.5-1.816-0.684-3.649-0.55c-2.534,0.133-3.917,0.184-4.15,0.15c-0.7-0.066-1.833-0.233-3.4-0.5
	c-1.434-0.267-2.55-0.433-3.35-0.5c-1.5-0.133-3.683-0.1-6.55,0.1c-9.3-0.633-17.417-0.167-24.35,1.4
	c-1.2,0.267-2.383,0.567-3.55,0.9c-3.267,0.966-6.15,2.183-8.65,3.65c-1.3,0.033-3.183,0.017-5.65-0.05
	c0.067,0.034,0.333,0.2,0.8,0.5c-1.1,1.3-3.316,3.467-6.65,6.5c-1.233,1.1-2.517,2.917-3.85,5.45c-1.433,0-2.433-0.483-3-1.45
	c-0.466-0.8-0.417-1.667,0.15-2.6c0.867-1.067,1.466-1.9,1.8-2.5c0.4,0.966,1.117,1.35,2.15,1.15c1.033-0.233,1.483-0.917,1.35-2.05
	l-0.5-4c-0.567,0.1-1.1,0.4-1.6,0.9c-0.5,0.466-0.9,1.017-1.2,1.65h-0.65c0.5-1.4,1.05-2.467,1.65-3.2c0.733-0.9,1.8-2,3.2-3.3
	c-0.566,0.2-1.433,0.5-2.6,0.9c-0.7,0.367-1.333,0.867-1.9,1.5c-0.333,0.367-0.816,0.95-1.45,1.75l1.1-1.75
	c2-2.833,4.15-5.117,6.45-6.85c1.133-0.833,2.7-1.75,4.7-2.75c2.5-1.267,4.1-2.117,4.8-2.55c3.267-2.1,5.783-3.65,7.55-4.65
	c3.1-1.733,5.867-2.767,8.3-3.1c1.467-0.2,3.25-0.267,5.35-0.2c0.267,0,2.066,0.067,5.4,0.2c2.2,0.1,4.816,0.35,7.85,0.75
	c3.466,0.5,6.066,0.85,7.8,1.05c1.3,0.434,2.567,0.434,3.8,0c-0.133-1.467-1.167-2.883-3.1-4.25c-2.067-1.5-3.233-2.683-3.5-3.55
	c-0.4-1.3,0.117-2.733,1.55-4.3c1-1.1,2.217-2.083,3.65-2.95c1.667-0.9,3.2-1.4,4.6-1.5l2,0.15c1.533,0.333,2.8,1.15,3.8,2.45
	c0.667,0.867,1.517,2.216,2.55,4.05c1.067,1.867,1.917,3.217,2.551,4.05c0.233,0.7,0.35,1.367,0.35,2v7.1
	c-0.066,3.667,1.017,6.8,3.25,9.4c0.7,1.767,1.767,2.983,3.2,3.65c0.833,0.367,1.6,0.383,2.3,0.05c0.6,0.367,1.066,0.733,1.4,1.1
	c-0.034-0.567-0.217-1.15-0.551-1.75c0.534-0.533,0.95-0.934,1.25-1.2c0.5-0.433,1-0.733,1.5-0.9c-0.933,0.033-1.616,0.033-2.05,0
	c-0.733-0.033-1.35-0.15-1.85-0.35c-0.233-0.6-0.384-1.267-0.45-2c1.267,0.967,2.866,1.267,4.8,0.9c2-0.367,2.9-1.2,2.7-2.5l1-4
	c-1.7-0.1-3.033-0.167-4-0.2c-1.8-0.033-3.15,0.2-4.05,0.7l0.5-0.5c0.866-0.667,2.184-1.033,3.95-1.1c1.866-0.067,3.133-0.3,3.8-0.7
	c0.633,0.233,1.149,0.467,1.55,0.7c0.4,0.233,0.767,0.633,1.1,1.2c0.467,0.8,0.717,1.95,0.75,3.45c0,0.833,0,2.033,0,3.6
	c0.167,1.833,0.267,3.667,0.301,5.5c0,0.167,0,0.333,0,0.5l0.1,4.55c0,1-0.083,2.383-0.25,4.15s-0.25,3.133-0.25,4.1
	c0,2.033,0.083,3.567,0.25,4.6c0.2,1.4,0.616,2.833,1.25,4.3l-0.05-2.55c0.267,0.6,0.483,1.017,0.649,1.25
	c0.301-0.633,0.5-1.483,0.601-2.55l0.8,7.85c-0.1-1.2,0.184-2.45,0.85-3.75c0.967-1.9,1.517-3.1,1.65-3.6
	c0.167-0.667,0.267-1.583,0.3-2.75c0.033-1.4,0.084-2.316,0.15-2.75c0.133-0.867,0.533-2.583,1.2-5.15
	c0.533-2.133,0.816-3.917,0.85-5.35c0.033-2.633-0.134-5.9-0.5-9.8c1.866-2.6,3.917-4.783,6.15-6.55c0.066,4,0.017,6.983-0.15,8.95
	c-0.167,2.233-0.783,4.767-1.85,7.6c-0.601,1.6-1.584,4.017-2.95,7.25c-0.667,1.867-1.184,3.5-1.55,4.9
	c-1.5,3.567-2.217,7.117-2.15,10.65v0.6c-0.366,3.367-0.35,6.467,0.05,9.3c0.767-0.133,1.45,0.3,2.05,1.3
	c0.334,0.567,0.801,1.567,1.4,3c1.2,2.567,2.866,3,5,1.3c0.967-0.8,1.934-2.033,2.9-3.7l0.05-0.3l-1.95,14.5
	c0,2.5,0.333,5.601,1,9.3c0.967,5.267,1.5,8.351,1.6,9.25c0.601,4.301,0.9,8.95,0.9,13.95c0,0.733,0.05,1.867,0.15,3.4
	c0.033,1.399-0.017,2.533-0.15,3.399c-0.066,0.534-0.333,1.384-0.8,2.551c-0.4,1.1-0.634,1.966-0.7,2.6
	c-0.167,1.566-0.033,3.25,0.4,5.05c0.233,1,0.583,1.65,1.05,1.95s1.316,0.45,2.55,0.45c3.566-0.033,5.35-3.566,5.35-10.601
	c0-5.033-0.616-9.767-1.85-14.199c-0.233-0.9-0.733-2.167-1.5-3.801c-0.767-1.699-1.267-2.966-1.5-3.8
	c-0.233-0.733-0.55-2.017-0.95-3.85c-0.366-1.601-0.717-2.851-1.05-3.75c-0.7-1.8-1.167-4-1.4-6.601c-0.166-3-0.333-5.267-0.5-6.8
	c-0.233-2.7-0.283-7.25-0.149-13.65l0.149-0.35c0.4-0.966,0.7-1.7,0.9-2.2c0.361-0.82,0.803-1.362,1.325-1.625
	c-0.597,0.287-1.372,0.545-2.325,0.775l0.5-0.45l-1.65,0.6c-1.199,0.067-2.116-0.133-2.75-0.6c-1.066-0.7-1.683-2.15-1.85-4.35
	c-0.066-1,0-2.65,0.2-4.95c0.5-5,1.316-9.067,2.45-12.2c1.3-3.833,2-5.867,2.1-6.1c0.267-0.667,0.533-1.733,0.8-3.2
	c0.267-1.433,0.517-2.467,0.75-3.1c0.533-1.133,0.884-1.933,1.05-2.4c0.267-0.767,0.4-1.683,0.4-2.75v-4.4
	c-0.066-3.833,0.366-7.4,1.3-10.7c1.233-2.267,2.8-4.1,4.7-5.5c0.833-0.6,1.866-1.2,3.1-1.8c0.7-0.367,1.784-0.883,3.25-1.55
	c1.034-0.633,1.817-1.1,2.351-1.4c0.391-0.976,0.84-1.951,1.35-2.925c-1.56,3.139-2.826,6.797-3.8,10.975
	c-1.467,6.4-2.733,14.2-3.8,23.4c-0.634,5.233-1.517,13.117-2.65,23.65c-1.133,9.067-1.783,14.617-1.95,16.65
	c-0.566,6.233-0.699,11.833-0.399,16.8c0.1,1.633,0.399,3.85,0.899,6.649c0.534,3.067,0.867,5.267,1,6.601
	c0.167,1.399,0.534,3.316,1.101,5.75c0.566,2.533,0.934,4.45,1.1,5.75c0.467,3.767,1.767,8.566,3.9,14.399
	c2.5,6.834,4.05,11.567,4.649,14.2c0.233,0.967,0.45,2.017,0.65,3.15c-0.134,0.3-0.283,0.666-0.45,1.1
	c-0.2,0.334-0.633,0.584-1.3,0.75c-0.566,0.134-1,0.15-1.3,0.05C144.3,199.233,143.934,198.7,143.6,198z M116.45,165.1
	c-0.033-1.066-0.017-2.666,0.05-4.8v0.2c0,1.5,0.116,2.816,0.35,3.95L116.45,165.1z M126.45,118.15l0.35,0.5l-0.55-0.75
	L126.45,118.15z M84.55,55.8c-1.6-1.033-2.617-1.95-3.05-2.75h-4c-0.4-0.433-0.933-0.566-1.6-0.4c-0.633,0.2-1.083,0.567-1.35,1.1
	c-0.533,1.067,0.1,2.65,1.9,4.75c0.466,0.567,1.617,1.7,3.45,3.4c1.533,1.7,2.033,3.083,1.5,4.15c-0.7,1.467-2.35,1.95-4.95,1.45
	c-1.4-0.267-3.217-0.767-5.45-1.5c-1.267-0.167-2.833-0.05-4.7,0.35c-2.233,0.467-3.316,1.167-3.25,2.1
	c3.667,0.333,6.35,0.733,8.05,1.2c1.033,0.3,2.083,0.717,3.15,1.25c0.6,0.333,1.55,0.85,2.85,1.55c0.933,0.5,2.55,1.183,4.85,2.05
	c2.666,1.233,4.983,1.717,6.95,1.45c0.066-0.7,0.083-1.617,0.05-2.75c-0.066-1.3-0.084-2.184-0.05-2.65L89,64.4
	c0-1.566-0.033-2.583-0.1-3.05c-0.134-1.067-0.483-2.017-1.051-2.85C87.35,57.8,86.25,56.9,84.55,55.8z M94.9,86
	c0.066-0.367,0.1-1.517,0.1-3.45l-3.5-1.5c-0.733-0.1-1.4-0.083-2,0.05c-0.233,1.167,0.316,2.35,1.65,3.55
	C92.45,85.85,93.7,86.3,94.9,86z M99.05,88c-0.934-0.533-1.633-0.95-2.1-1.25c0.5,0.5,0.899,1.333,1.2,2.5
	c0.199,0.633,0.433,1.567,0.699,2.8c0.134,0.434,0.601,1.75,1.4,3.95c0.6,1.6,1.017,2.95,1.25,4.05c0.267,1.3,0.6,3.967,1,8
	c0.167,1.567,0.75,4.633,1.75,9.2c0.8,3.833,1.217,6.933,1.25,9.3l4,17.3v-0.05c0-1.333-0.167-3.366-0.5-6.1
	c-0.333-2.667-0.5-4.717-0.5-6.15c0.134-4.533,0.217-7.95,0.25-10.25c0.033-4.066-0.233-7.45-0.8-10.15
	c-1.033-4.267-1.733-7.483-2.101-9.65c-0.033-0.233-0.083-0.917-0.149-2.05c-0.033-0.867-0.134-1.517-0.3-1.95
	c-0.134-0.333-0.417-0.683-0.851-1.05c-0.5-0.434-0.816-0.733-0.95-0.9c-0.399-0.566-0.85-1.583-1.35-3.05c-0.5-1.4-0.967-2.4-1.4-3
	C100.45,89,99.85,88.5,99.05,88z M126.85,96.55c-0.366,1.133-0.583,2.534-0.649,4.2c-0.066,0.933-0.134,2.367-0.2,4.3
	c-0.066,0.867-0.217,2.167-0.45,3.9c-0.133,1.533-0.133,2.867,0,4c1.2,0.333,1.95,0.517,2.25,0.55c0.8,0.1,1.533-0.05,2.2-0.45
	c1.634-0.966,2.8-3.167,3.5-6.6c0.267-1.367,0.483-3.167,0.65-5.4c0.199-2.833,0.35-4.65,0.449-5.45
	c0.967-6.967,1.934-15.65,2.9-26.05l-5.5,9.5c0.167,2.6-0.417,5.6-1.75,9C129.517,89.95,128.384,92.783,126.85,96.55z M15.5,103.55
	c0.333-0.5,0.7-1.017,1.1-1.55c-0.607,0.864-1.157,1.665-1.65,2.4C15.129,104.114,15.313,103.831,15.5,103.55z M36.4,75.9
	c-3.867,0.833-6.217,1.434-7.05,1.8c-2.7,1.133-3.983,2.883-3.85,5.25c2.267,0.5,4.75-0.284,7.45-2.35
	c3.667-2.833,5.883-4.4,6.65-4.7c2.833-1.066,6.65-1.867,11.45-2.4c0.133,0,2.184,0.133,6.15,0.4c3.033,0.233,4.85,0,5.45-0.7
	c0.7-0.767-0.066-1.467-2.3-2.1c-2.267-0.7-2.883-1.717-1.85-3.05l-12,0.5c-5.567,1.267-9.7,3.567-12.4,6.9
	C35.133,75.45,35.9,75.6,36.4,75.9z M19.9,81.6c1.067-0.434,1.717-1.083,1.95-1.95L19.9,81.6z M0,187.2v-2.351l0.15,0.2
	c0-0.2,0.017-0.383,0.05-0.55C0.133,185.366,0.067,186.267,0,187.2z M131.5,225.05v-5.25c0.033,0.566,0.083,1.467,0.15,2.7
	C131.684,223.566,131.634,224.417,131.5,225.05z M143.05,218.3l-2.05,5.75c-0.533,0.867-0.833,2.384-0.9,4.55
	c-0.033,1.167-0.066,2.817-0.1,4.95c-0.1,1.167-0.033,2.3,0.2,3.4c0.1,0.566,0.399,1.633,0.899,3.2l0.4,1.35
	c-0.467-0.033-1.3-0.017-2.5,0.05c-1.033,0.033-1.85,0-2.45-0.1c-0.066-0.4-0.1-1.033-0.1-1.9c0.633-0.566,1.1-1.066,1.399-1.5
	c0.334-0.566,0.551-1.233,0.65-2c0.267-2.7-0.033-5.383-0.9-8.05l-0.1-3.05c-0.066-0.834-0.3-1.9-0.7-3.2
	c-0.566-1.767-0.883-2.816-0.95-3.15c-0.233-1.033-0.399-2.517-0.5-4.449c-0.066-2.101-0.183-3.601-0.35-4.5
	c-0.4-2.101-0.566-3.634-0.5-4.601l-3,14.45v-10.6c-0.033-2.134,0.4-3.834,1.3-5.101c0.467-0.7,1.733-1.95,3.8-3.75
	c1.534-1.333,2.5-3.2,2.9-5.6c0,3.434-0.417,6-1.25,7.7c-0.733,1.533-1.233,2.866-1.5,4c-0.333,1.433-0.4,2.866-0.2,4.3
	c1.5,0.3,2.717-0.084,3.65-1.15c-0.533,1.2-1.134,2.283-1.8,3.25l-1.351,1.65c-0.6-0.467-1.05-0.983-1.35-1.55
	c0.2,1.233,0.483,2.149,0.85,2.75v0.05h0.05c0.267,0.434,0.584,0.767,0.95,1l1,0.5c0.467,0.366,0.917,0.5,1.351,0.399
	C141.5,217.717,142.55,218.033,143.05,218.3z M134.3,233.75l0.3-0.65c1.467,1.301,2.4,0.467,2.801-2.5
	c-0.134,3.134-0.417,5.351-0.851,6.65c0-1.566-0.05-2.616-0.149-3.15C135.7,234.1,135,233.983,134.3,233.75z M137,214.3h-0.05v-0.1
	L137,214.3z M147.35,234.55l-1.699-6c-1.134-3.2-1.817-6.533-2.051-10c2.101,1.167,3.217,1.867,3.351,2.101
	c0.333,0.6,0.45,1.783,0.35,3.55c-0.066,0.934-0.166,2.166-0.3,3.7c0,0.699-0.116,1.983-0.35,3.85L147.35,234.55z M148.975,209.15
	c0.07,0.925,0.128,1.783,0.176,2.574c-0.034-0.425-0.067-0.866-0.101-1.324C149.021,209.968,148.996,209.551,148.975,209.15z
	 M162,255.45c0.1-0.134,0.2-0.267,0.3-0.4c0.3-0.467,0.267-0.95-0.1-1.45C162.733,254.267,162.667,254.884,162,255.45z
	 M157.55,256.9c1.3-0.167,2.351-0.4,3.15-0.7c-1,0.434-2.184,0.684-3.55,0.75L157.55,256.9z M146.65,263.7
	c1.474-0.029,2.715-0.138,3.725-0.325c-0.908,0.191-1.917,0.316-3.025,0.375C147.116,263.75,146.884,263.733,146.65,263.7z"/>
<path style="fill-rule:evenodd;clip-rule:evenodd;fill:#695D4D;" d="M160.45,31.25c-0.233,0.333-0.45,0.683-0.65,1.05L147.65,48.65
	c-0.101,0.167-0.2,0.333-0.301,0.5c-0.046,0.089-0.088,0.181-0.125,0.275l-0.175,0.3c-0.51,0.974-0.959,1.949-1.35,2.925
	c-0.533,0.3-1.316,0.767-2.351,1.4c-1.466,0.667-2.55,1.184-3.25,1.55c-1.233,0.6-2.267,1.2-3.1,1.8c-1.9,1.4-3.467,3.233-4.7,5.5
	c-0.934,3.3-1.366,6.867-1.3,10.7V78c0,1.067-0.134,1.983-0.4,2.75c-0.166,0.467-0.517,1.267-1.05,2.4
	c-0.233,0.633-0.483,1.667-0.75,3.1c-0.267,1.467-0.533,2.533-0.8,3.2c-0.1,0.233-0.8,2.267-2.1,6.1
	c-1.134,3.133-1.95,7.2-2.45,12.2c-0.2,2.3-0.267,3.95-0.2,4.95c0.167,2.2,0.783,3.65,1.85,4.35c0.634,0.467,1.551,0.667,2.75,0.6
	l-1.399,0.5l-0.2-0.25l-0.25-0.35c-2.233,0-3.866-0.466-4.9-1.4c-0.633-1.767-0.933-4.15-0.899-7.15c0.033-2.5,0.25-4.467,0.649-5.9
	c0.2-0.9,0.634-2.05,1.301-3.45c0.767-1.7,1.25-2.833,1.449-3.4c0.801-1.667,1.384-2.9,1.75-3.7c0.267-0.566,0.584-1.783,0.95-3.65
	c-0.434,0.8-0.866,1.517-1.3,2.15c-0.4,0.567-1.15,1.467-2.25,2.7c-1.033,1.167-1.767,2.1-2.2,2.8c-0.633,1.1-1.1,2.05-1.399,2.85
	c0.366-1.4,0.883-3.033,1.55-4.9c1.366-3.233,2.35-5.65,2.95-7.25c1.066-2.833,1.683-5.367,1.85-7.6
	c0.167-1.967,0.217-4.95,0.15-8.95c-2.233,1.767-4.284,3.95-6.15,6.55v-0.2c-0.1-1.033-0.083-2.867,0.05-5.5
	c0.101-2.333,0.033-4.15-0.2-5.45c-2.6,3.033-4.35,5.7-5.25,8c0.367-1.533,0.934-3.267,1.7-5.2c0.967-2.3,1.7-4.083,2.2-5.35l-5,8.5
	c-0.033,1.233-0.167,2.817-0.4,4.75c-0.333,2.4-0.533,3.983-0.6,4.75c-0.066,0.6-0.1,1.483-0.1,2.65
	c-0.034-1.833-0.134-3.667-0.301-5.5c0-1.567,0-2.767,0-3.6c-0.033-1.5-0.283-2.65-0.75-3.45c-0.333-0.566-0.699-0.967-1.1-1.2
	c-0.4-0.233-0.917-0.467-1.55-0.7c-0.667,0.4-1.934,0.633-3.8,0.7c-1.767,0.066-3.084,0.433-3.95,1.1l-0.5,0.5
	c-0.767,0.4-1.267,1.067-1.5,2c-0.3,1.367,0.05,2.4,1.05,3.1c0.066,0.733,0.217,1.4,0.45,2c-0.8-0.333-1.417-0.9-1.851-1.7
	c-0.6-1.067-1.149-3.534-1.649-7.4c-0.101-0.767-0.167-1.933-0.2-3.5c-0.066-1.566-0.15-2.733-0.25-3.5
	c-0.5-3.466,0.05-6.1,1.65-7.9c0.3-0.333,0.85-0.833,1.649-1.5c0.733-0.633,1.283-1.183,1.65-1.65c0.3-0.367,0.649-0.983,1.05-1.85
	c0.566-1.167,0.884-1.833,0.95-2c0.934-1.6,1.55-2.783,1.85-3.55c0.434-1.133,0.667-2.617,0.7-4.45c0.033-1.733,0.667-3,1.9-3.8
	c1.3-0.867,2.333-0.3,3.1,1.7c0.134,0.333,0.167,0.9,0.1,1.7c-0.066,0.9-0.066,1.5,0,1.8c0.134,0.733,0.534,1.833,1.2,3.3
	c2.867-1.4,5.8-1.867,8.8-1.4c1.767,0.267,2.784,0.45,3.051,0.55c1.033,0.333,1.666,1,1.899,2c0.167,0.733,0.134,1.867-0.1,3.4
	c-0.3,1.9-0.45,3.083-0.45,3.55c0,0.9-0.033,2.283-0.1,4.15c0,1.633,0.149,2.983,0.449,4.05l0.301,0.95c0.399,1.167,1.066,2.833,2,5
	c0.699,1.933,0.983,3.7,0.85,5.3c0.434-1.566,0.634-3.6,0.6-6.1c-0.1-2.8-0.133-4.867-0.1-6.2c0.033-1.7,0.233-3.383,0.6-5.05
	c0.467-2.033,1.101-3.533,1.9-4.5c0.267-0.367,0.733-0.8,1.4-1.3c0.699-0.567,1.183-1,1.449-1.3c0.367-0.4,0.784-1,1.25-1.8
	c0.667-1.167,1.034-1.8,1.101-1.9l0.05-0.1c0.934-1.633,1.634-2.867,2.1-3.7c0.867-1.434,1.767-2.517,2.7-3.25
	c1.934-1.534,4.05-2.583,6.351-3.15c1.866-0.466,3.267-0.85,4.199-1.15c0.967-0.267,2.367-0.55,4.2-0.85
	C158.233,31.717,159.616,31.45,160.45,31.25z M80.25,49.35c-1.4,0.1-2.933,0.6-4.6,1.5C74.217,51.717,73,52.7,72,53.8
	c-1.433,1.567-1.95,3-1.55,4.3c0.267,0.867,1.433,2.05,3.5,3.55c1.933,1.367,2.966,2.783,3.1,4.25c-1.233,0.434-2.5,0.434-3.8,0
	c-1.733-0.2-4.333-0.55-7.8-1.05c-3.034-0.4-5.65-0.65-7.85-0.75c-3.333-0.133-5.133-0.2-5.4-0.2c-2.1-0.066-3.883,0-5.35,0.2
	c-2.434,0.333-5.2,1.367-8.3,3.1c-1.767,1-4.283,2.55-7.55,4.65c-0.7,0.433-2.3,1.283-4.8,2.55c-2,1-3.567,1.917-4.7,2.75
	c-2.3,1.733-4.45,4.017-6.45,6.85l-1.1,1.75L13.1,86.6c-1.7,1.5-3.083,3.6-4.15,6.3L9,91.25l0.3-0.65l-0.25,0.1
	c0.2-1.733,0.534-3.284,1-4.65c0.267-0.8,0.983-1.65,2.15-2.55c1.167-0.967,1.9-1.783,2.2-2.45c0.1-0.3,0.217-0.8,0.35-1.5
	c0.1-0.667,0.217-1.167,0.35-1.5c0.367-0.9,1.117-2.05,2.25-3.45c1.066-1.5,1.9-2.667,2.5-3.5c1.066-1.434,2.033-2.45,2.9-3.05
	c0.567-0.4,1.433-0.783,2.6-1.15c1.3-0.367,2.217-0.65,2.75-0.85c0.667-0.233,2.05-0.633,4.15-1.2c1.767-0.434,3.133-0.9,4.1-1.4
	c1.633-0.833,2.783-1.35,3.45-1.55c1.034-0.3,2.317-0.433,3.85-0.4c0.467,0.033,1.684,0.167,3.65,0.4c1.5,0.2,2.717,0.25,3.65,0.15
	c0.533-0.033,1.283-0.2,2.25-0.5c1-0.3,1.75-0.483,2.25-0.55c1.4-0.133,2.8-0.05,4.2,0.25c0.833,0.2,2.1,0.6,3.8,1.2
	c1.9,0.667,3.383,1.083,4.45,1.25c1.6,0.267,3.083,0.216,4.45-0.15c-0.6,0.034-1.217-0.05-1.85-0.25c1.1-0.1,2.05-0.483,2.85-1.15
	c-0.333-0.066-0.983-0.117-1.95-0.15c-0.8-0.033-1.45-0.133-1.95-0.3c-0.267-0.1-0.917-0.45-1.95-1.05c-0.7-1-1.233-2.133-1.6-3.4
	c-0.367-1.233-0.5-2.3-0.4-3.2c0.1-1.066,0.467-2.216,1.1-3.45c0.333-0.633,1-1.684,2-3.15c0.5-0.767,1.167-1.4,2-1.9
	c0.833-0.466,1.717-0.716,2.65-0.75c2.033,2.367,3.9,3.784,5.6,4.25L80.25,49.35z M94.75,78.55c-2.233-2.6-3.316-5.733-3.25-9.4
	v-7.1c0-0.633-0.116-1.3-0.35-2c-0.634-0.833-1.483-2.183-2.551-4.05c-1.033-1.833-1.883-3.183-2.55-4.05
	c-1-1.3-2.267-2.117-3.8-2.45c1.267,0,3.2-0.133,5.8-0.4c1.867-0.1,3.45,0,4.75,0.3c-0.1,0.367-0.2,0.783-0.3,1.25
	c-0.634,2.633-0.75,5.1-0.35,7.4C91.384,62.883,91.6,66.367,92.8,68.5c0.2,1.467,0.566,3.7,1.101,6.7
	C94.066,76.467,94.35,77.583,94.75,78.55z M101.1,81.6c0.334,0.6,0.517,1.183,0.551,1.75c-0.334-0.367-0.801-0.733-1.4-1.1
	L101.1,81.6z M116.15,182.35c1.267,4.467,2,7.717,2.199,9.75c0.2,1.801,0.717,4.767,1.551,8.9c0.6,3.8,0.633,6.816,0.1,9.05
	c-0.366,1.5-1.134,2.7-2.3,3.601c-1.267,1-2.55,1.183-3.851,0.55c0.301,0.434,0.45,0.866,0.45,1.3c-1.233-0.8-2.217-0.684-2.95,0.35
	l-0.699-0.75c-0.267-2.8-0.617-4.833-1.051-6.1c-0.333-1.033-0.966-2.3-1.899-3.8c-0.367-3.8-0.634-6.066-0.8-6.8
	c-0.233-0.967-0.467-2.367-0.7-4.2c-0.267-1.9-0.5-3.283-0.7-4.15c-0.467-2.033-0.833-3.55-1.1-4.55
	c-0.4-1.8-0.667-3.316-0.801-4.55c-0.233-2.634-0.333-5.867-0.3-9.7c0.134-4.366,0.2-7.616,0.2-9.75c0-0.066,0-0.134,0-0.2
	l-2.65-16.1c-0.066-0.2-0.133-0.4-0.199-0.601c0-0.566,0.017-1.116,0.05-1.649c0-1.967,0.017-4.15,0.05-6.55l0.05-3.051l0.101-6.45
	c0.066-4.367,0.083-6.95,0.05-7.75v-0.1l-0.05-0.55l0.05,0.05c0.333,0.767,0.633,1.9,0.899,3.4c0.101,0.566,0.467,2.917,1.101,7.05
	c0.399,2.8,0.8,5.116,1.2,6.95c2.566,11.934,3.85,23.45,3.85,34.55c0,1.733,0,4.316,0,7.75c0.033,2.934,0.15,5.5,0.35,7.7
	c0.034,0.2,0.101,1.566,0.2,4.1c0.066,1.733,0.233,3.084,0.5,4.05c0.167,0.534,0.467,1.301,0.9,2.301
	c0.434,1.066,0.733,1.833,0.899,2.3c0.034,0.1,0.884,2.233,2.551,6.399c0.267,0.7,0.6,1.717,1,3.051c0.5,1.033,1.333,1.649,2.5,1.85
	c0.833-5.267,1-9.917,0.5-13.95c-0.2-1.5-0.384-3.467-0.551-5.899c-0.199-2.967-0.35-4.934-0.449-5.9L116.15,182.35z M114.45,172.55
	l0.05,1.4c0,0.533,0.05,1,0.15,1.399l0.149,1.101l-1.6-5.65c-1.4-5.333-1.884-10.783-1.45-16.35l0.25,0.1l-0.2-0.8l0.101-0.7
	c0.166-2.233,0.25-4.233,0.25-6c0.1,0.7,0.333,1.767,0.699,3.2c0.334,1.4,0.551,2.517,0.65,3.35c0.134,0.967,0.15,2.367,0.05,4.2
	c-0.1,2-0.116,3.417-0.05,4.25c0.1,1.066,0.25,1.884,0.45,2.45C113.85,166.2,114.017,168.884,114.45,172.55z M113.5,88.3l0.7,14.25
	c-0.101,1.067-0.3,1.917-0.601,2.55c-0.166-0.233-0.383-0.65-0.649-1.25c0-1.833,0.083-4.434,0.25-7.8
	C113.4,92.483,113.5,89.9,113.5,88.3z M15.05,88.1h0.65c-0.367,0.733-0.45,1.433-0.25,2.1l0.05,0.25c-0.333,0.6-0.933,1.433-1.8,2.5
	c-0.567,0.933-0.617,1.8-0.15,2.6c0.567,0.967,1.567,1.45,3,1.45l-0.95,1.65c-0.4,0.733-0.917,1.917-1.55,3.55
	c-0.633,1.566-1.167,2.716-1.6,3.45c-1,1.833-2.65,3.633-4.95,5.4c-1.467,1.034-2.283,1.65-2.45,1.85
	c-0.167-1.533-0.15-3.217,0.05-5.05c0.1-0.8,0.367-2.45,0.8-4.95c0.067-0.333,0.067-1,0-2c-0.033-0.867,0.017-1.517,0.15-1.95
	c0.2-0.667,0.617-1.25,1.25-1.75c0.767-0.5,1.333-0.883,1.7-1.15c2-1.533,3.633-3.367,4.9-5.5
	C14.067,90.283,14.45,89.467,15.05,88.1z M128.95,120.9l0.05-3.35l-0.55,4l-0.05,0.3c-0.967,1.667-1.934,2.9-2.9,3.7
	c-2.134,1.7-3.8,1.267-5-1.3c-0.6-1.433-1.066-2.433-1.4-3c-0.6-1-1.283-1.433-2.05-1.3c-0.399-2.833-0.416-5.934-0.05-9.3
	c0,2.967,0.083,4.967,0.25,6c0.366,2.167,1.233,3.934,2.6,5.3c1.367,1.367,2.733,1.7,4.101,1c0.866-0.467,1.967-1.583,3.3-3.35
	l0.25-0.05l-0.1-0.1c0.466-0.667,1-1.317,1.6-1.95c0.953-0.23,1.729-0.488,2.325-0.775c-0.522,0.263-0.964,0.805-1.325,1.625
	c-0.2,0.5-0.5,1.233-0.9,2.2L128.95,120.9z M115.35,165.75l-0.699,3.15c-0.434-0.801-0.65-2.25-0.65-4.351
	c0.167,0.4,0.366,0.7,0.6,0.9L115.35,165.75z M126.4,177.45c0.6,0.366,1.017,0.684,1.25,0.95c0.3,0.366,0.449,0.966,0.449,1.8
	c0,0.467-0.033,1.116-0.1,1.95c-0.033,1.366-0.167,3.583-0.4,6.649c0.2,2.5,1.5,4.05,3.9,4.65c2.434,0.633,4,0.133,4.7-1.5
	c0.066-0.134,0.366-1.851,0.899-5.15c0.5,0.733,1.267,1,2.301,0.8c0.166,1.167,0.25,2.217,0.25,3.15l-0.15,0.8v2.9
	c-0.4,2.399-1.366,4.267-2.9,5.6c-2.066,1.8-3.333,3.05-3.8,3.75c-0.899,1.267-1.333,2.967-1.3,5.101v10.6v0.3v5.25v0.101
	c-0.1,0.399-0.366,1.116-0.8,2.149c-0.4,0.9-0.634,1.65-0.7,2.25c-0.4,3.634-0.384,5.816,0.05,6.55
	c1.267,2.134,2.684,1.351,4.25-2.35c0.7,0.233,1.4,0.35,2.101,0.35c0.1,0.534,0.149,1.584,0.149,3.15
	c-0.399,1.1-0.899,1.983-1.5,2.65c0.934-2.267,1.217-4.101,0.851-5.5c-0.567,0.6-1.117,1.75-1.65,3.449
	c-0.533,1.801-1.05,3-1.55,3.601c-2.101,0.733-3.851-0.316-5.25-3.15c-1.2-2.434-1.684-4.85-1.45-7.25c0.1-1,0.434-2.434,1-4.3
	c0.566-1.9,0.9-3.316,1-4.25c0.333-3.2,0.5-6.55,0.5-10.05c0-3.3,0.033-5.25,0.1-5.851c0.301-2.333,1.117-4.017,2.45-5.05
	c1.834-1.133,3.184-2.066,4.05-2.8c1.5-1.4,1.9-2.85,1.2-4.35c-0.5,0.433-1.133,0.899-1.899,1.399l-0.4-0.75
	c0.066,0.367,0.033,0.667-0.1,0.9c-0.2,0.033-1.101,0.316-2.7,0.85c-1.101,0.4-2,0.483-2.7,0.25c-0.667-0.2-1.316-0.8-1.95-1.8
	c-0.533-0.866-0.899-1.767-1.1-2.7c-0.167-0.866-0.233-1.633-0.2-2.3l0.25-0.2l-0.25-0.149c0-0.467,0.217-2.2,0.65-5.2
	c0.3-2.066,0.283-3.75-0.051-5.05c-0.733,1.633-1.183,3.666-1.35,6.1c-0.4,1.467-0.767,2.5-1.1,3.1l-1.4-0.8
	c-0.934,0.134-1.45-0.649-1.55-2.35c0.033-2,0.05-3.233,0.05-3.7c0-1.333-0.184-2.533-0.55-3.6
	c-0.134-0.367-0.667-1.483-1.601-3.351c-1.066-2.267-1.683-4.983-1.85-8.149l-0.05-1.801l0.399-0.649c0.134,0.6,0.5,1.967,1.101,4.1
	c0.267,0.8,0.684,2.167,1.25,4.101c0.566,1.733,1.2,3,1.899,3.8c0.733,0.899,1.634,1.45,2.7,1.649
	C124.866,178.3,125.733,178.083,126.4,177.45z M137.05,214.2l-0.05,0.1l-0.05-0.1v0.1c-0.233,0.4-0.367,0.767-0.4,1.101
	c-0.366-0.601-0.649-1.517-0.85-2.75C136,213.217,136.45,213.733,137.05,214.2z M138.55,216.95l-1-0.5
	c-0.366-0.233-0.684-0.566-0.95-1l0.9,0.1C137.767,216.15,138.116,216.616,138.55,216.95z M143.45,206.1
	c0.6-1.333,1.267-2.3,2-2.899c0.633-0.566,1.6-0.967,2.899-1.2l0.426,4.35c0.008,0.097,0.017,0.196,0.024,0.301l0.175,2.5
	c0.021,0.4,0.046,0.817,0.075,1.25c0.033,0.458,0.066,0.899,0.101,1.324l0.649,7.226V219c0,0.066,0,0.116,0,0.15
	c0.533,4.533,1.667,10.8,3.4,18.8c0.1,0.434,0.166,1.05,0.2,1.85c-0.4,0.867-0.834,1.434-1.301,1.7l-1.199-4.05
	c-0.267-1.7-0.4-3.233-0.4-4.601l-0.05,2.851c-0.601-2.3-0.917-4.367-0.95-6.2c0,5.767,0,8.733,0,8.9c0.1,3.5,0.467,6.517,1.1,9.05
	c0.233,1,0.867,2.083,1.9,3.25c1.267,1.5,2.05,2.5,2.35,3c0.4,0.666,0.65,1.583,0.75,2.75c0.134,1.133,0.067,2.133-0.199,3
	c-0.434,1.434-1.2,2.333-2.301,2.7c-1.5,0.166-2.699,0.3-3.6,0.399c-1.9,0.2-2.917,0.3-3.05,0.3c-1.033,0-2.05-0.267-3.05-0.8
	c-1.4-0.7-2.301-1.333-2.7-1.899c-0.5-0.667-0.733-1.7-0.7-3.101c0-2.5-0.2-4.85-0.6-7.05c-0.534,0.7-1,1.75-1.4,3.15
	c-0.434,1.466-0.783,2.399-1.05,2.8l0.05-0.8c-0.134,0.466-0.35,0.933-0.65,1.399c-0.767,0.5-1.883,0.45-3.35-0.149
	c-1.866-0.7-3.1-1.834-3.7-3.4c-0.6-1.5-0.55-3.15,0.15-4.95l0.8-1.7l1.35-1.149c0.934-0.834,1.851-2.101,2.75-3.8l2.101-1.851
	c0,0.867,0.033,1.5,0.1,1.9c0.601,0.1,1.417,0.133,2.45,0.1c1.2-0.066,2.033-0.083,2.5-0.05c0.6,2.5,1.167,4.184,1.7,5.05
	c0.967,1.533,2.1,1.417,3.399-0.35c0.4-0.601,0.717-1.384,0.95-2.351c0.066-0.399,0.184-1.25,0.351-2.55
	c0.233-2.066,0.05-4.316-0.551-6.75l-0.699-2.8c0.233-1.866,0.35-3.15,0.35-3.85c0.134-1.534,0.233-2.767,0.3-3.7
	c0.101-1.767-0.017-2.95-0.35-3.55c-0.134-0.233-1.25-0.934-3.351-2.101l-0.1-1.5l-0.45,1.25c-0.5-0.267-1.55-0.583-3.149-0.95
	c0.5-0.1,1-0.399,1.5-0.899c0.566-0.601,0.899-1.634,1-3.101c0-1.6,0.033-2.699,0.1-3.3c0.066-0.633,0.167-1.25,0.3-1.85
	C143.134,207.434,143.35,206.733,143.45,206.1z M143.6,198c0.334,0.7,0.7,1.233,1.101,1.6c-0.4-0.033-0.75-0.183-1.05-0.449
	L143.6,198z"/>
<path style="fill-rule:evenodd;clip-rule:evenodd;fill:#584E40;" d="M99.95,79.15c0.5,0.2,1.116,0.317,1.85,0.35
	c0.434,0.033,1.117,0.033,2.05,0c-0.5,0.167-1,0.467-1.5,0.9c-0.3,0.267-0.716,0.667-1.25,1.2l-0.85,0.65
	c-0.7,0.333-1.467,0.317-2.3-0.05c-1.434-0.667-2.5-1.883-3.2-3.65c-0.4-0.966-0.684-2.083-0.85-3.35c-0.534-3-0.9-5.233-1.101-6.7
	l0.2,0.4c-0.066-1.667-0.033-3,0.1-4c0.067-0.767,0.217-1.517,0.45-2.25c0.066,0.267,0.15,0.533,0.25,0.8
	c0.601,1.667,1,2.983,1.2,3.95c-0.1-3.066-0.15-5.4-0.15-7c0-0.3,0-0.6,0-0.9c0.267-0.567,0.601-1.217,1-1.95
	c0.767-1.433,1.317-2.6,1.65-3.5c0.667-1.633,1.167-2.867,1.5-3.7c0.566-1.434,0.9-2.7,1-3.8c0.134-2.133,0.25-3.716,0.35-4.75
	c0.2-1.8,0.617-3.35,1.25-4.65c0.834-1.667,1.917-2.816,3.25-3.45c1.2-0.6,2.784-0.817,4.75-0.65c1.167,0.1,2.467,0.667,3.9,1.7
	c1.467,1.1,2.783,1.7,3.95,1.8c1.033,0.1,2.733,0.067,5.1-0.1c1.934,0.133,3.084,1.033,3.45,2.7c0.134,0.533,0.134,1.35,0,2.45
	c-0.1,1.133-0.116,1.95-0.05,2.45c0.1,0.6,0.383,1.5,0.85,2.7c0.434,1.167,0.7,2.067,0.8,2.7c0.301-0.567,0.534-1.233,0.7-2
	c0.134-0.9,0.233-1.6,0.3-2.1c0.267-1.767,0.733-3.317,1.4-4.65c0.6-1.233,1.533-2.567,2.8-4c0.267-0.3,0.9-1.15,1.9-2.55
	c0.666-0.933,1.383-1.683,2.149-2.25c0.834-0.6,1.75-1.083,2.75-1.45c0.5-0.2,1.45-0.5,2.851-0.9c0.5-0.133,1.133-0.45,1.899-0.95
	c0.801-0.533,1.384-0.85,1.75-0.95c0.5-0.2,1.101-0.233,1.801-0.1c0.333,0.034,0.666,0.184,1,0.45
	c0.333,0.267,0.566,0.417,0.699,0.45c0.267,0.066,0.934,0.05,2-0.05c0.934-0.1,1.567-0.033,1.9,0.2s0.616,0.717,0.85,1.45
	c0.2,0.7,0.467,1.167,0.801,1.4c0.666,0.433,1.616,0.45,2.85,0.05c0.667-0.233,1.75-0.733,3.25-1.5l-0.8,1.25
	c-0.834,0.2-2.217,0.467-4.15,0.8c-1.833,0.3-3.233,0.583-4.2,0.85c-0.933,0.3-2.333,0.684-4.199,1.15
	c-2.301,0.567-4.417,1.617-6.351,3.15c-0.934,0.733-1.833,1.816-2.7,3.25c-0.466,0.833-1.166,2.066-2.1,3.7l-0.05,0.1
	c-0.066,0.1-0.434,0.733-1.101,1.9c-0.466,0.8-0.883,1.4-1.25,1.8c-0.267,0.3-0.75,0.733-1.449,1.3c-0.667,0.5-1.134,0.933-1.4,1.3
	c-0.8,0.967-1.434,2.467-1.9,4.5c-0.366,1.667-0.566,3.35-0.6,5.05c-0.033,1.333,0,3.4,0.1,6.2c0.034,2.5-0.166,4.534-0.6,6.1
	c0.134-1.6-0.15-3.367-0.85-5.3c-0.934-2.167-1.601-3.833-2-5l-0.301-0.95c-0.3-1.066-0.449-2.417-0.449-4.05
	c0.066-1.867,0.1-3.25,0.1-4.15c0-0.467,0.15-1.65,0.45-3.55c0.233-1.533,0.267-2.667,0.1-3.4c-0.233-1-0.866-1.667-1.899-2
	c-0.267-0.1-1.284-0.283-3.051-0.55c-3-0.467-5.933,0-8.8,1.4c-0.666-1.467-1.066-2.567-1.2-3.3c-0.066-0.3-0.066-0.9,0-1.8
	c0.067-0.8,0.034-1.367-0.1-1.7c-0.767-2-1.8-2.566-3.1-1.7c-1.233,0.8-1.867,2.066-1.9,3.8c-0.033,1.833-0.267,3.317-0.7,4.45
	c-0.3,0.767-0.916,1.95-1.85,3.55c-0.066,0.167-0.384,0.833-0.95,2c-0.4,0.867-0.75,1.483-1.05,1.85
	c-0.367,0.467-0.917,1.017-1.65,1.65c-0.8,0.667-1.35,1.167-1.649,1.5c-1.601,1.8-2.15,4.434-1.65,7.9
	c0.1,0.767,0.184,1.934,0.25,3.5c0.033,1.567,0.1,2.733,0.2,3.5c0.5,3.867,1.05,6.333,1.649,7.4
	C98.533,78.25,99.15,78.817,99.95,79.15z M114.1,74.1c-0.3,0.8-0.5,1.617-0.6,2.45c-0.434,3-0.434,6.917,0,11.75
	c0,1.6-0.1,4.184-0.3,7.75c-0.167,3.367-0.25,5.967-0.25,7.8l0.05,2.55c-0.634-1.467-1.05-2.9-1.25-4.3
	c-0.167-1.033-0.25-2.567-0.25-4.6c0-0.967,0.083-2.333,0.25-4.1s0.25-3.15,0.25-4.15l-0.1-4.55c0-0.167,0-0.333,0-0.5
	c0-1.167,0.033-2.05,0.1-2.65c0.066-0.767,0.267-2.35,0.6-4.75c0.233-1.933,0.367-3.517,0.4-4.75l5-8.5
	c-0.5,1.267-1.233,3.05-2.2,5.35C115.033,70.833,114.467,72.567,114.1,74.1z M117,110.65v-0.6c-0.066-3.533,0.65-7.083,2.15-10.65
	c0.3-0.8,0.767-1.75,1.399-2.85c0.434-0.7,1.167-1.633,2.2-2.8c1.1-1.233,1.85-2.133,2.25-2.7c0.434-0.633,0.866-1.35,1.3-2.15
	c-0.366,1.867-0.684,3.083-0.95,3.65c-0.366,0.8-0.949,2.034-1.75,3.7c-0.199,0.567-0.683,1.7-1.449,3.4
	c-0.667,1.4-1.101,2.55-1.301,3.45c-0.399,1.433-0.616,3.4-0.649,5.9c-0.033,3,0.267,5.383,0.899,7.15
	c-0.633-0.633-1.183-1.667-1.649-3.1c-0.334-1.167-0.517-2.633-0.55-4.4c0-0.767,0.033-2.25,0.1-4.45
	c-1.333,3.2-1.667,7.316-1,12.35c0.3,2.467,1.467,3.983,3.5,4.55c0.967,0.233,1.967,0.133,3-0.3c0.6-0.233,1.517-0.633,2.75-1.2
	c-1.333,1.767-2.434,2.883-3.3,3.35c-1.367,0.7-2.733,0.367-4.101-1c-1.366-1.367-2.233-3.133-2.6-5.3
	C117.083,115.617,117,113.617,117,110.65z M126.8,118.65l-0.35-0.5l1.399-0.5l1.65-0.6l-0.5,0.45c-0.6,0.633-1.134,1.283-1.6,1.95
	L126.8,118.65z M9.05,90.7c-1.9,0.933-3.083,0.783-3.55-0.45c-0.167-0.867-0.167-2.1,0-3.7c0.033-0.633,0.133-1.4,0.3-2.3
	C5.9,83.85,6,83.433,6.1,83c0.433-1.567,1.083-2.95,1.95-4.15c0.633-0.9,1.717-2.1,3.25-3.6c1.467-1.367,2.55-2.433,3.25-3.2
	c1.233-1.3,2.034-2.466,2.4-3.5c0.367-1.333,0.667-2.316,0.9-2.95c0.367-1.067,0.917-1.967,1.65-2.7c1.633-1.7,2.967-2.8,4-3.3
	c0.567-0.267,1.35-0.483,2.35-0.65c1.1-0.167,1.883-0.333,2.35-0.5c4.133-1.633,8.383-3.767,12.75-6.4
	c2.333-1.433,3.716-2.233,4.15-2.4c1.767-0.667,2.583-0.066,2.45,1.8c0.6,0.066,1.333,0.216,2.2,0.45c0.967,0.3,1.7,0.517,2.2,0.65
	c1.133,0.1,2.066,0.184,2.8,0.25c1.367,0.133,2.217,0.417,2.55,0.85c0.167,0.2,0.3,0.633,0.4,1.3c0.133,0.7,0.267,1.183,0.4,1.45
	c0.467,0.9,1.433,1.917,2.9,3.05c3.867,2.767,7.033,4.05,9.5,3.85c0.633,0.2,1.25,0.284,1.85,0.25
	c-1.367,0.367-2.85,0.417-4.45,0.15c-1.066-0.167-2.55-0.583-4.45-1.25c-1.7-0.6-2.967-1-3.8-1.2c-1.4-0.3-2.8-0.383-4.2-0.25
	c-0.5,0.067-1.25,0.25-2.25,0.55c-0.967,0.3-1.717,0.467-2.25,0.5c-0.934,0.1-2.15,0.05-3.65-0.15
	c-1.966-0.233-3.183-0.367-3.65-0.4c-1.533-0.033-2.816,0.1-3.85,0.4c-0.667,0.2-1.816,0.717-3.45,1.55
	c-0.967,0.5-2.333,0.966-4.1,1.4c-2.1,0.566-3.483,0.967-4.15,1.2c-0.533,0.2-1.45,0.483-2.75,0.85
	c-1.167,0.367-2.033,0.75-2.6,1.15c-0.867,0.6-1.833,1.617-2.9,3.05c-0.6,0.833-1.434,2-2.5,3.5c-1.133,1.4-1.883,2.55-2.25,3.45
	c-0.133,0.333-0.25,0.833-0.35,1.5c-0.133,0.7-0.25,1.2-0.35,1.5c-0.3,0.667-1.033,1.483-2.2,2.45c-1.167,0.9-1.883,1.75-2.15,2.55
	C9.583,87.417,9.25,88.967,9.05,90.7z M82.25,49.5l-2-0.15l-1.4-0.3c-1.7-0.466-3.567-1.883-5.6-4.25
	c-0.933,0.034-1.817,0.284-2.65,0.75c-0.833,0.5-1.5,1.133-2,1.9c-1,1.466-1.667,2.517-2,3.15c-0.633,1.233-1,2.383-1.1,3.45
	c-0.1,0.9,0.033,1.967,0.4,3.2c0.367,1.267,0.9,2.4,1.6,3.4l-2-1.25c-2.3-1.333-2.95-4-1.95-8c0.567-2.2,1.767-5.1,3.6-8.7
	c1-1.934,2.6-3.25,4.8-3.95c1.566-0.5,3.767-0.733,6.6-0.7h0.05c3.533,0,6.35,0.133,8.45,0.4c0.233,0.033,0.601,0.05,1.101,0.05
	c1.333,0.333,2.433,0.883,3.3,1.65c1.366,1.167,2.05,2.817,2.05,4.95c-0.033,0.867-0.267,2.3-0.7,4.3c-1.3-0.3-2.883-0.4-4.75-0.3
	C85.45,49.367,83.517,49.5,82.25,49.5z M94.45,92.95V93c-0.134-0.333-0.3-0.65-0.5-0.95l-1.875-2.575L91.85,89.15
	c-0.533-0.6-1.133-1.217-1.8-1.85c-0.8-0.767-1.684-1.55-2.649-2.35c-0.267-0.2-0.517-0.4-0.75-0.6
	c-3.601-2.867-6.317-4.417-8.15-4.65c-1.367-0.2-2.7-0.367-4-0.5c-2.067-0.233-4.083-0.417-6.05-0.55c2.867-0.2,5.05-0.233,6.55-0.1
	c0.8,0.067,1.917,0.233,3.35,0.5c1.566,0.267,2.7,0.434,3.4,0.5c0.233,0.034,1.616-0.017,4.15-0.15
	c1.833-0.133,3.05,0.05,3.649,0.55c-1.2,0-2.149,0.017-2.85,0.05c-1.367,0.033-2.134,0.383-2.3,1.05
	c-0.067,0.333,0.583,0.817,1.949,1.45L89,83.65c1.066,0.767,2.05,1.633,2.95,2.6c1.166,1.233,1.866,2.3,2.1,3.2
	c0.134,0.533,0.233,1.566,0.3,3.1L94.45,92.95z M132.7,241.45c-0.2,0.233-0.434,0.434-0.7,0.6c-0.434,0.334-1.1,0.533-2,0.601
	c-0.833,0.066-1.55,0-2.15-0.2c-0.8-0.3-1.333-0.8-1.6-1.5c-0.267-0.934-0.566-1.7-0.9-2.3c-0.166,0.267-0.25,0.85-0.25,1.75
	c-0.033,0.767-0.233,1.283-0.6,1.55c-0.434,0.3-1,0.316-1.7,0.05c-0.633-0.267-1.116-0.6-1.45-1c-0.767-0.967-1.133-2.434-1.1-4.4
	c0.066-1.633,0.35-3.149,0.85-4.55c0.467-1.2,0.717-2.166,0.75-2.899c0.067-0.801-0.083-1.784-0.449-2.95
	c-0.667-2-0.967-4.417-0.9-7.25c0-0.367,0.15-1.717,0.45-4.05c0.233-1.801,0.217-3.117-0.05-3.95c-0.467,0.967-1.25,3-2.351,6.1
	c-1.267,2.601-2.934,3.783-5,3.55c0,0.4,0.467,1.384,1.4,2.95c0.7,1.167,0.666,2.15-0.101,2.95c-0.699-0.167-1.433-1.134-2.199-2.9
	c-0.534-1.233-0.967-2.5-1.301-3.8c-0.3-1.233-0.533-2.8-0.699-4.7l0.699,0.75c0.733-1.033,1.717-1.149,2.95-0.35
	c0-0.434-0.149-0.866-0.45-1.3c1.301,0.633,2.584,0.45,3.851-0.55c1.166-0.9,1.934-2.101,2.3-3.601c0.533-2.233,0.5-5.25-0.1-9.05
	c-0.834-4.134-1.351-7.1-1.551-8.9c-0.199-2.033-0.933-5.283-2.199-9.75c-0.634-2.3-1.084-4.267-1.351-5.899l-0.149-1.101
	c0.133,0.5,0.35,1.017,0.649,1.551c0.2,0.333,0.55,0.883,1.05,1.649c1.233,1.967,1.983,3.3,2.25,4c0.601,1.367,0.9,2.867,0.9,4.5
	c0,0.934-0.033,2.55-0.1,4.851c0.233,1.767,1.233,2.449,3,2.05c0.466-1.434,0.783-2.25,0.949-2.45
	c0.167-0.233,0.517-0.483,1.051-0.75l0.1,4.3c0,1.533,0.2,2.65,0.6,3.351c0.5,0.899,1.467,1.449,2.9,1.649
	c1.366,0.167,2.35,0.15,2.95-0.05c0.467-0.167,1.116-0.7,1.95-1.6c0.767-0.801,1.466-1.25,2.1-1.351l-0.6-1.25
	c0.767-0.5,1.399-0.967,1.899-1.399c0.7,1.5,0.3,2.949-1.2,4.35c-0.866,0.733-2.216,1.667-4.05,2.8
	c-1.333,1.033-2.149,2.717-2.45,5.05c-0.066,0.601-0.1,2.551-0.1,5.851c0,3.5-0.167,6.85-0.5,10.05c-0.1,0.934-0.434,2.35-1,4.25
	c-0.566,1.866-0.9,3.3-1,4.3c-0.233,2.4,0.25,4.816,1.45,7.25C128.85,241.134,130.6,242.184,132.7,241.45z M1.1,19.95
	c-0.4,0.2-0.767,0.383-1.1,0.55v-3.25h1.35c-0.067,0.667-0.15,1.5-0.25,2.5C1.1,19.817,1.1,19.883,1.1,19.95z M16.55,97
	c1.333-2.533,2.617-4.35,3.85-5.45c3.333-3.033,5.55-5.2,6.65-6.5c-0.466-0.3-0.733-0.466-0.8-0.5c2.467,0.067,4.35,0.083,5.65,0.05
	h0.05c-0.867,0.5-1.684,1.017-2.45,1.55l-5.7,5.55l-2.55,3.6c-0.017,0.027-0.034,0.052-0.05,0.075V95.4l-0.025,0.025
	c-2.192,2.002-4.083,4.71-5.675,8.125c-0.187,0.281-0.371,0.564-0.55,0.85l-0.8,1.25c-0.084,0.134-0.168,0.268-0.25,0.4
	c-0.1,0.133-0.183,0.284-0.25,0.45c-1.9,3-3.517,5.817-4.85,8.45c-1.133,0.667-2.216,0.85-3.25,0.55c-1.2-0.367-2.233-1.35-3.1-2.95
	c-0.4-0.8-0.6-2.033-0.6-3.7C1.95,107.017,2,105.733,2,105c0-0.367-0.117-1.217-0.35-2.55c-0.167-1.1-0.183-1.9-0.05-2.4
	c0.333-1.3,1.467-2.783,3.4-4.45c1.9-1.7,3.167-3.033,3.8-4c0.067-0.133,0.133-0.25,0.2-0.35L8.95,92.9c1.066-2.7,2.45-4.8,4.15-6.3
	l0.85-0.85c0.633-0.8,1.117-1.383,1.45-1.75c0.567-0.633,1.2-1.133,1.9-1.5c1.167-0.4,2.034-0.7,2.6-0.9c-1.4,1.3-2.467,2.4-3.2,3.3
	c-0.6,0.733-1.15,1.8-1.65,3.2c-0.6,1.367-0.983,2.183-1.15,2.45c-1.267,2.133-2.9,3.967-4.9,5.5c-0.367,0.267-0.933,0.65-1.7,1.15
	c-0.633,0.5-1.05,1.083-1.25,1.75c-0.133,0.433-0.183,1.083-0.15,1.95c0.067,1,0.067,1.667,0,2c-0.433,2.5-0.7,4.15-0.8,4.95
	c-0.2,1.833-0.217,3.517-0.05,5.05c0.167-0.2,0.983-0.816,2.45-1.85c2.3-1.767,3.95-3.566,4.95-5.4
	c0.433-0.733,0.966-1.883,1.6-3.45c0.633-1.633,1.15-2.817,1.55-3.55L16.55,97z M19.9,81.6l1.95-1.95
	C21.617,80.517,20.967,81.167,19.9,81.6z M107.7,205.2c-0.4-0.7-1.267-2.084-2.601-4.15l-0.25-0.5c-0.066-0.267-0.116-0.5-0.149-0.7
	c-0.134-0.666-0.2-1.166-0.2-1.5c-0.033-1.399-0.483-6.616-1.35-15.649c-0.167-1.601-0.351-3.316-0.551-5.15
	c-1.233-12.233-1.883-19.517-1.949-21.85c-0.034-1.733-0.034-5.417,0-11.05V144.6c0.066,0.2,0.133,0.4,0.199,0.601l2.65,16.1
	c0,0.066,0,0.134,0,0.2c0,2.134-0.066,5.384-0.2,9.75c-0.033,3.833,0.066,7.066,0.3,9.7c0.134,1.233,0.4,2.75,0.801,4.55
	c0.267,1,0.633,2.517,1.1,4.55c0.2,0.867,0.434,2.25,0.7,4.15c0.233,1.833,0.467,3.233,0.7,4.2
	C107.066,199.134,107.333,201.4,107.7,205.2z M124.5,185.75c-0.1,1.333-0.134,2.55-0.1,3.65l-0.4-0.2l-0.1-0.05l-0.5-0.301
	C123.733,188.25,124.1,187.217,124.5,185.75z M136.55,237.25c0.434-1.3,0.717-3.517,0.851-6.65c0.133-1.133,0.199-2,0.199-2.6
	c0.867,2.667,1.167,5.35,0.9,8.05c-0.1,0.767-0.316,1.434-0.65,2c-0.3,0.434-0.767,0.934-1.399,1.5l-2.101,1.851l0.7-1.5
	C135.65,239.233,136.15,238.35,136.55,237.25z M114.65,168.9c-0.134,1.066-0.2,2.283-0.2,3.649c-0.434-3.666-0.601-6.35-0.5-8.05
	l0.05-0.35v0.399C114,166.65,114.217,168.1,114.65,168.9z M138.55,216.95c-0.434-0.334-0.783-0.8-1.05-1.4
	c0.634,0,1.1-0.033,1.4-0.1c0.199-1,0.783-2.233,1.75-3.7c1.199-1.833,1.916-3.017,2.149-3.55c-0.133,0.6-0.233,1.217-0.3,1.85
	c-0.066,0.601-0.1,1.7-0.1,3.3c-0.101,1.467-0.434,2.5-1,3.101c-0.5,0.5-1,0.8-1.5,0.899
	C139.467,217.45,139.017,217.316,138.55,216.95z M148.35,202c-1.3,0.233-2.267,0.634-2.899,1.2c-0.733,0.6-1.4,1.566-2,2.899
	l0.05-0.149c0.233-1.566,0.283-3.834,0.15-6.8c0.3,0.267,0.649,0.416,1.05,0.449c0.3,0.101,0.733,0.084,1.3-0.05
	c0.667-0.166,1.1-0.416,1.3-0.75c0.167-0.434,0.316-0.8,0.45-1.1v-0.05C148.017,199.116,148.217,200.566,148.35,202z M136.35,256.55
	c-0.8,1.334-1.966,2.217-3.5,2.65c-1.399,0.434-2.8,0.416-4.199-0.05c-3.4-1.101-4.417-3.434-3.051-7c0.467-1.2,1.134-2.301,2-3.301
	c0.534-0.566,1.417-1.399,2.65-2.5l-0.8,1.7c-0.7,1.8-0.75,3.45-0.15,4.95c0.601,1.566,1.834,2.7,3.7,3.4
	C134.467,257,135.583,257.05,136.35,256.55z M146.65,263.7c-1.7,0.066-3.733,0.033-6.101-0.101h-0.1c-0.101-0.066-0.2-0.1-0.3-0.1
	c-0.034-0.033-0.067-0.05-0.101-0.05c-0.2-0.101-0.383-0.184-0.55-0.25l-1.3-0.9c-0.066-0.066-0.134-0.133-0.2-0.2
	c-0.634-0.666-1-1.633-1.1-2.899c-0.034-0.5-0.017-1.584,0.05-3.25c0.267-0.4,0.616-1.334,1.05-2.8c0.4-1.4,0.866-2.45,1.4-3.15
	c0.399,2.2,0.6,4.55,0.6,7.05c-0.033,1.4,0.2,2.434,0.7,3.101c0.399,0.566,1.3,1.199,2.7,1.899c1,0.533,2.017,0.8,3.05,0.8
	c0.133,0,1.149-0.1,3.05-0.3c0.9-0.1,2.1-0.233,3.6-0.399c1.101-0.367,1.867-1.267,2.301-2.7c0.267-0.867,0.333-1.867,0.199-3
	c-0.1-1.167-0.35-2.084-0.75-2.75c-0.3-0.5-1.083-1.5-2.35-3c-1.033-1.167-1.667-2.25-1.9-3.25c-0.633-2.533-1-5.55-1.1-9.05
	c0-0.167,0-3.134,0-8.9c0.033,1.833,0.35,3.9,0.95,6.2c-0.101,2.967-0.05,5.267,0.149,6.899c0.301,2.567,0.967,4.717,2,6.45
	c0.367,0.566,1.15,1.384,2.351,2.45c1.066,0.9,1.75,1.75,2.05,2.55c0.3,0.7,0.483,1.65,0.55,2.851l-0.399,0.05
	c0,0.133-0.017,0.267-0.051,0.399c0,0.034,0,0.067,0,0.101l-1.85,3.7c-0.967,0.966-2.3,1.649-4,2.05
	c-0.167,0.033-0.333,0.066-0.5,0.1l-0.375,0.075C149.365,263.563,148.124,263.671,146.65,263.7z M162.2,253.6
	c0.366,0.5,0.399,0.983,0.1,1.45c-0.399-0.366-1.116-1.133-2.149-2.3c-0.834-0.934-1.567-1.667-2.2-2.2
	c-1.3-1.166-2.05-1.85-2.25-2.05c-0.767-0.8-1.4-1.634-1.9-2.5c-1.399-2.5-2.366-5.35-2.899-8.55l1.199,4.05
	c0.467-0.267,0.9-0.833,1.301-1.7c0.033,0.434,0.05,0.95,0.05,1.55c0.033,0.834,0.083,1.434,0.149,1.801
	c0.067,0.3,0.134,0.583,0.2,0.85l1.2,1.8c0.866,0.601,1.884,1.733,3.05,3.4c1.167,1.633,2.2,2.767,3.101,3.399
	c0.066,0.067,0.133,0.117,0.199,0.15c0.067,0.033,0.117,0.083,0.15,0.15c0.033,0,0.05,0.017,0.05,0.05l0.05,0.05
	c0.034,0,0.067,0.017,0.101,0.05L162.2,253.6z"/>
<path style="fill-rule:evenodd;clip-rule:evenodd;fill:#4C4236;" d="M167,12.75v4.5c-0.833,1.333-1.667,3.15-2.5,5.45
	c-1.2,3.3-2.184,5.583-2.95,6.85l-0.3,0.45c-1.5,0.767-2.583,1.267-3.25,1.5c-1.233,0.4-2.184,0.383-2.85-0.05
	c-0.334-0.233-0.601-0.7-0.801-1.4c-0.233-0.733-0.517-1.216-0.85-1.45s-0.967-0.3-1.9-0.2c-1.066,0.1-1.733,0.117-2,0.05
	c-0.133-0.034-0.366-0.184-0.699-0.45c-0.334-0.267-0.667-0.417-1-0.45c-0.7-0.133-1.301-0.1-1.801,0.1
	c-0.366,0.1-0.949,0.417-1.75,0.95c-0.767,0.5-1.399,0.816-1.899,0.95c-1.4,0.4-2.351,0.7-2.851,0.9c-1,0.367-1.916,0.85-2.75,1.45
	c-0.767,0.567-1.483,1.317-2.149,2.25c-1,1.4-1.634,2.25-1.9,2.55c-1.267,1.433-2.2,2.767-2.8,4c-0.667,1.333-1.134,2.883-1.4,4.65
	c-0.066,0.5-0.166,1.2-0.3,2.1c-0.166,0.767-0.399,1.433-0.7,2c-0.1-0.633-0.366-1.534-0.8-2.7c-0.467-1.2-0.75-2.1-0.85-2.7
	c-0.066-0.5-0.05-1.316,0.05-2.45c0.134-1.1,0.134-1.917,0-2.45c-0.366-1.667-1.517-2.566-3.45-2.7c-2.366,0.167-4.066,0.2-5.1,0.1
	c-1.167-0.1-2.483-0.7-3.95-1.8c-1.434-1.033-2.733-1.6-3.9-1.7c-1.966-0.167-3.55,0.05-4.75,0.65
	c-1.333,0.633-2.416,1.783-3.25,3.45c-0.633,1.3-1.05,2.85-1.25,4.65c-0.1,1.034-0.216,2.617-0.35,4.75c-0.1,1.1-0.434,2.367-1,3.8
	c-0.333,0.833-0.833,2.066-1.5,3.7c-0.333,0.9-0.884,2.067-1.65,3.5c-0.399,0.733-0.733,1.383-1,1.95c0-2.4,0.184-4.4,0.551-6
	c0.166-0.767,0.6-1.867,1.3-3.3c0.733-1.4,1.166-2.45,1.3-3.15c0.134-0.7,0.134-1.783,0-3.25c-0.1-1.466-0.1-2.55,0-3.25
	c0.2-1.2,0.783-2.267,1.75-3.2c1.233-1,2.15-1.8,2.75-2.4c0.866-1.1,1.467-1.833,1.8-2.2c0.533-0.533,1.434-0.767,2.7-0.7
	c0.8,0.034,2.116,0.217,3.95,0.55c1.7,0.3,3.05,0.45,4.05,0.45c1.167,0,2.2-0.117,3.1-0.35c0.601-0.133,1.567-0.467,2.9-1
	c0.167,0.167,0.45,0.683,0.85,1.55c0.267,0.567,0.684,0.967,1.25,1.2c0.301,0.133,0.867,0.133,1.7,0c0.8-0.1,1.367-0.05,1.7,0.15
	c0.833,0.5,1.384,1.783,1.65,3.85c0.333,2.633,0.566,4.117,0.699,4.45c0.534-2.867,0.967-4.767,1.301-5.7
	c0.733-1.967,1.816-3.483,3.25-4.55c2.066-1.5,3.433-2.533,4.1-3.1c0.333-0.267,0.767-0.75,1.3-1.45c0.566-0.7,1-1.184,1.3-1.45
	c1.801-1.566,4.384-2.933,7.75-4.1c0.867-0.3,2.084-0.517,3.65-0.65c1.8-0.133,3.05-0.283,3.75-0.45c0.767-0.2,2.283-0.55,4.55-1.05
	c2-0.6,3.233-1.383,3.7-2.35L167,12.75z M126.25,117.9l0.55,0.75l0.601,0.8l0.1,0.1l-0.25,0.05c-1.233,0.566-2.15,0.967-2.75,1.2
	c-1.033,0.434-2.033,0.534-3,0.3c-2.033-0.567-3.2-2.083-3.5-4.55c-0.667-5.033-0.333-9.15,1-12.35c-0.066,2.2-0.1,3.683-0.1,4.45
	c0.033,1.767,0.216,3.233,0.55,4.4c0.467,1.434,1.017,2.467,1.649,3.1c1.034,0.934,2.667,1.4,4.9,1.4L126.25,117.9z M88.15,38.5
	c-0.5,0-0.867-0.017-1.101-0.05c-2.1-0.267-4.917-0.4-8.45-0.4h-0.05c-2.833-0.033-5.033,0.2-6.6,0.7c-2.2,0.7-3.8,2.017-4.8,3.95
	c-1.833,3.6-3.033,6.5-3.6,8.7c-1,4-0.35,6.667,1.95,8l2,1.25c1.033,0.6,1.683,0.95,1.95,1.05c0.5,0.167,1.15,0.267,1.95,0.3
	c0.967,0.033,1.617,0.083,1.95,0.15c-0.8,0.667-1.75,1.05-2.85,1.15c-2.467,0.2-5.633-1.083-9.5-3.85
	c-1.467-1.133-2.433-2.15-2.9-3.05c-0.133-0.267-0.267-0.75-0.4-1.45c-0.1-0.667-0.233-1.1-0.4-1.3
	c-0.333-0.433-1.183-0.717-2.55-0.85c-0.733-0.066-1.667-0.15-2.8-0.25c-0.5-0.133-1.233-0.35-2.2-0.65
	c-0.867-0.233-1.6-0.383-2.2-0.45c0.133-1.867-0.683-2.467-2.45-1.8c-0.434,0.167-1.817,0.967-4.15,2.4
	c-4.367,2.633-8.617,4.767-12.75,6.4c-0.467,0.167-1.25,0.333-2.35,0.5c-1,0.167-1.783,0.383-2.35,0.65c-1.033,0.5-2.367,1.6-4,3.3
	c-0.733,0.733-1.283,1.633-1.65,2.7c-0.233,0.633-0.533,1.617-0.9,2.95c-0.367,1.034-1.167,2.2-2.4,3.5
	c-0.7,0.767-1.783,1.833-3.25,3.2c-1.533,1.5-2.617,2.7-3.25,3.6C7.183,80.05,6.533,81.433,6.1,83c-0.1,0.433-0.2,0.85-0.3,1.25
	c0.233-1.6,0.633-3.667,1.2-6.2c0.4-2.033,0.75-3.383,1.05-4.05c0.6-1.4,1.583-2.35,2.95-2.85c0.333-0.133,0.9-0.233,1.7-0.3
	c0.6-0.067,1.167-0.283,1.7-0.65c0.467-0.3,1.333-1.15,2.6-2.55c-0.933-0.133-2.25-0.15-3.95-0.05c-1.367-0.1-2.35-0.75-2.95-1.95
	c-0.934-1.767-0.983-3.517-0.15-5.25c0.333-0.7,1.1-1.45,2.3-2.25c1-0.667,1.95-1.167,2.85-1.5c1-0.367,1.767-0.25,2.3,0.35
	c0.833,0.933,1.35,1.433,1.55,1.5c0.167,0.067,0.75,0.017,1.75-0.15c1.1-0.167,1.733-0.267,1.9-0.3c0.667,0.034,1.183,0.034,1.55,0
	c0.6-0.066,1.017-0.3,1.25-0.7c0.367-0.6,0.233-1.533-0.4-2.8c-0.633-1.3-0.75-2.35-0.35-3.15c0.8-1.566,2.617-2.633,5.45-3.2
	c2.867-0.567,3.733,0.367,2.6,2.8c1.966-0.467,3.45-0.867,4.45-1.2c1.833-0.633,2.633-1.7,2.4-3.2c0.434-0.067,1.233-0.05,2.4,0.05
	c1.033,0.1,1.8,0.083,2.3-0.05c0.633-0.167,1.05-0.417,1.25-0.75c0.3-0.5,0.567-0.817,0.8-0.95c0.6-0.4,2-0.617,4.2-0.65
	c2.233-0.067,3.583,0.1,4.05,0.5c0.3,0.3,0.534,1,0.7,2.1c0.2,1.433,0.317,2.217,0.35,2.35c0.5,1.5,0.95,2.617,1.35,3.35
	c0.633,1.1,1.466,2.083,2.5,2.95c1.233,1.067,2.367,1.6,3.4,1.6c-0.967-0.8-1.7-1.85-2.2-3.15c-0.467-1.167-0.683-2.434-0.65-3.8
	c0-0.667,0.117-1.45,0.35-2.35c0.333-1.233,0.517-1.983,0.55-2.25c0.067-0.433,0.083-1.167,0.05-2.2c0-0.934,0.05-1.65,0.15-2.15
	c0.5-2.633,1.967-4.15,4.4-4.55c3.133,0,5.467-0.15,7-0.45c1.9-0.367,3.2-0.55,3.9-0.55c1.2,0,2.4,0.3,3.6,0.9
	c1.167,0.567,1.95,0.917,2.35,1.05c0.733,0.267,1.617,0.417,2.65,0.45C86.167,38.083,87.217,38.233,88.15,38.5z M92.8,68.5
	c-1.2-2.133-1.416-5.617-0.649-10.45c0.1,0.5,0.216,1,0.35,1.5c0.167,0.6,0.517,1.633,1.05,3.1c-0.233,0.733-0.383,1.483-0.45,2.25
	c-0.133,1-0.166,2.333-0.1,4L92.8,68.5z M0,184.85V20.5c0.333-0.167,0.7-0.35,1.1-0.55c-0.233,1.767-0.45,4.417-0.65,7.95
	c-0.233,2.733-0.3,6.2-0.2,10.4C0.417,44.933,0.5,48.4,0.5,48.7c0,3.9,0.083,9.716,0.25,17.45C0.917,73.917,1,79.733,1,83.6
	c0,1-0.083,2.7-0.25,5.1c-0.033,2.133,0.217,3.733,0.75,4.8c0.8,1.633,2.017,2.067,3.65,1.3c1.267-0.566,2.483-1.633,3.65-3.2
	c-1.667,0.833-2.733,0.583-3.2-0.75c-0.067-0.167-0.1-0.367-0.1-0.6c0.467,1.233,1.65,1.383,3.55,0.45l0.25-0.1L9,91.25
	c-0.067,0.1-0.133,0.217-0.2,0.35c-0.633,0.967-1.9,2.3-3.8,4c-1.933,1.667-3.067,3.15-3.4,4.45c-0.133,0.5-0.117,1.3,0.05,2.4
	C1.883,103.783,2,104.633,2,105c0,0.733-0.05,2.017-0.15,3.85c0,1.667,0.2,2.9,0.6,3.7c0.867,1.6,1.9,2.583,3.1,2.95
	c1.034,0.3,2.117,0.117,3.25-0.55c-1.333,2.667-2.367,5.133-3.1,7.4c-0.567,1.833-1.733,14.034-3.5,36.6l-2,25.55
	c-0.034,0.167-0.05,0.35-0.05,0.55L0,184.85z M16.6,102c-0.4,0.533-0.767,1.05-1.1,1.55c1.591-3.415,3.483-6.123,5.675-8.125
	c-0.15,0.223-0.308,0.431-0.475,0.625L16.6,102z M116.5,160.3c-0.066,2.134-0.083,3.733-0.05,4.8l0.05,1.801
	c0.167,3.166,0.783,5.883,1.85,8.149c0.934,1.867,1.467,2.983,1.601,3.351c0.366,1.066,0.55,2.267,0.55,3.6
	c0,0.467-0.017,1.7-0.05,3.7c0.1,1.7,0.616,2.483,1.55,2.35l1.4,0.8l0.5,0.301l0.1,0.05l0.8,0.45l-0.399-0.25
	c-0.034-1.101,0-2.317,0.1-3.65c0.167-2.434,0.616-4.467,1.35-6.1c0.334,1.3,0.351,2.983,0.051,5.05c-0.434,3-0.65,4.733-0.65,5.2
	l0.25,0.149l-0.25,0.2c-0.033,0.667,0.033,1.434,0.2,2.3c0.2,0.934,0.566,1.834,1.1,2.7c0.634,1,1.283,1.6,1.95,1.8
	c0.7,0.233,1.6,0.15,2.7-0.25c1.6-0.533,2.5-0.816,2.7-0.85c0.133-0.233,0.166-0.533,0.1-0.9l0.4,0.75l0.6,1.25
	c-0.634,0.101-1.333,0.55-2.1,1.351c-0.834,0.899-1.483,1.433-1.95,1.6c-0.601,0.2-1.584,0.217-2.95,0.05
	c-1.434-0.2-2.4-0.75-2.9-1.649c-0.399-0.7-0.6-1.817-0.6-3.351l-0.1-4.3c-0.534,0.267-0.884,0.517-1.051,0.75
	c-0.166,0.2-0.483,1.017-0.949,2.45c-1.767,0.399-2.767-0.283-3-2.05c0.066-2.301,0.1-3.917,0.1-4.851c0-1.633-0.3-3.133-0.9-4.5
	c-0.267-0.7-1.017-2.033-2.25-4c-0.5-0.767-0.85-1.316-1.05-1.649c-0.3-0.534-0.517-1.051-0.649-1.551
	c-0.101-0.399-0.15-0.866-0.15-1.399l-0.05-1.4c0-1.366,0.066-2.583,0.2-3.649l0.699-3.15c0.7-2.533,1.067-4.533,1.101-6
	L116.5,160.3z M130.25,246.35c-1.233,1.101-2.116,1.934-2.65,2.5c-0.866,1-1.533,2.101-2,3.301c-1.366,3.566-0.35,5.899,3.051,7
	c1.399,0.466,2.8,0.483,4.199,0.05c1.534-0.434,2.7-1.316,3.5-2.65c0.301-0.467,0.517-0.934,0.65-1.399l-0.05,0.8
	c-0.066,1.666-0.084,2.75-0.05,3.25c0.1,1.267,0.466,2.233,1.1,2.899c0.066,0.067,0.134,0.134,0.2,0.2l1.3,0.9
	c0.167,0.066,0.35,0.149,0.55,0.25c0.033,0,0.066,0.017,0.101,0.05c0.1,0,0.199,0.033,0.3,0.1c-2.288-0.133-4.105-0.183-5.45-0.149
	l-1.15,0.1c-0.233,0-0.449,0.017-0.649,0.05c-1.434,0.2-3.25,0.15-5.45-0.149c-1.233-0.2-2.3-0.367-3.2-0.5
	c-0.899-0.167-1.633-0.3-2.2-0.4l-1.05-0.149c-1.434-3.733-2.783-7.917-4.05-12.551c-1.467-5.233-2.233-9.066-2.3-11.5
	c-0.066-2.166-1.55-8.166-4.45-18c-0.233-0.8-0.483-1.633-0.75-2.5c-2.6-8.466-4.233-14.233-4.9-17.3l0.25,0.5
	c1.334,2.066,2.2,3.45,2.601,4.15c0.934,1.5,1.566,2.767,1.899,3.8c0.434,1.267,0.784,3.3,1.051,6.1
	c0.166,1.9,0.399,3.467,0.699,4.7c0.334,1.3,0.767,2.566,1.301,3.8c0.767,1.767,1.5,2.733,2.199,2.9
	c0.767-0.8,0.801-1.783,0.101-2.95c-0.934-1.566-1.4-2.55-1.4-2.95c2.066,0.233,3.733-0.949,5-3.55c1.101-3.1,1.884-5.133,2.351-6.1
	c0.267,0.833,0.283,2.149,0.05,3.95c-0.3,2.333-0.45,3.683-0.45,4.05c-0.066,2.833,0.233,5.25,0.9,7.25
	c0.366,1.166,0.517,2.149,0.449,2.95c-0.033,0.733-0.283,1.699-0.75,2.899c-0.5,1.4-0.783,2.917-0.85,4.55
	c-0.033,1.967,0.333,3.434,1.1,4.4c0.334,0.4,0.817,0.733,1.45,1c0.7,0.267,1.267,0.25,1.7-0.05c0.366-0.267,0.566-0.783,0.6-1.55
	c0-0.9,0.084-1.483,0.25-1.75c0.334,0.6,0.634,1.366,0.9,2.3c0.267,0.7,0.8,1.2,1.6,1.5c0.601,0.2,1.317,0.267,2.15,0.2
	c0.9-0.067,1.566-0.267,2-0.601c0.267-0.166,0.5-0.366,0.7-0.6c0.5-0.601,1.017-1.8,1.55-3.601c0.533-1.699,1.083-2.85,1.65-3.449
	c0.366,1.399,0.083,3.233-0.851,5.5l-0.7,1.5c-0.899,1.699-1.816,2.966-2.75,3.8L130.25,246.35z M143.6,198l0.051,1.15
	c0.133,2.966,0.083,5.233-0.15,6.8l-0.05,0.149c-0.101,0.634-0.316,1.334-0.65,2.101c-0.233,0.533-0.95,1.717-2.149,3.55
	c-0.967,1.467-1.551,2.7-1.75,3.7c-0.301,0.066-0.767,0.1-1.4,0.1l-0.9-0.1h-0.05v-0.05c0.033-0.334,0.167-0.7,0.4-1.101H137
	l0.05-0.1l1.351-1.65c0.666-0.967,1.267-2.05,1.8-3.25c1.3-1.434,2.116-4.116,2.45-8.05c0.233-2.767,0.216-6.417-0.051-10.95
	l0.4-6.75c0,2.8,0.167,7.134,0.5,13L143.6,198z M162,255.45c-0.333,0.267-0.767,0.517-1.3,0.75c-0.8,0.3-1.851,0.533-3.15,0.7
	c-0.066-1.2-0.25-2.15-0.55-2.851c-0.3-0.8-0.983-1.649-2.05-2.55c-1.2-1.066-1.983-1.884-2.351-2.45
	c-1.033-1.733-1.699-3.883-2-6.45c-0.199-1.633-0.25-3.933-0.149-6.899l0.05-2.851c0,1.367,0.134,2.9,0.4,4.601
	c0.533,3.2,1.5,6.05,2.899,8.55c0.5,0.866,1.134,1.7,1.9,2.5c0.2,0.2,0.95,0.884,2.25,2.05c0.633,0.533,1.366,1.267,2.2,2.2
	c1.033,1.167,1.75,1.934,2.149,2.3C162.2,255.184,162.1,255.316,162,255.45z"/>
<path style="fill-rule:evenodd;clip-rule:evenodd;fill:#817160;" d="M99.95,72.05c0.899-0.5,2.25-0.733,4.05-0.7
	c0.967,0.033,2.3,0.1,4,0.2l-1,4c0.2,1.3-0.7,2.133-2.7,2.5c-1.934,0.367-3.533,0.067-4.8-0.9c-1-0.7-1.35-1.733-1.05-3.1
	C98.684,73.117,99.184,72.45,99.95,72.05z M114.2,102.55l-0.7-14.25c-0.434-4.833-0.434-8.75,0-11.75c0.1-0.833,0.3-1.65,0.6-2.45
	c0.9-2.3,2.65-4.967,5.25-8c0.233,1.3,0.301,3.117,0.2,5.45c-0.133,2.633-0.149,4.467-0.05,5.5v0.2c0.366,3.9,0.533,7.167,0.5,9.8
	c-0.033,1.434-0.316,3.217-0.85,5.35c-0.667,2.567-1.067,4.283-1.2,5.15c-0.066,0.434-0.117,1.35-0.15,2.75
	c-0.033,1.167-0.133,2.083-0.3,2.75c-0.134,0.5-0.684,1.7-1.65,3.6c-0.666,1.3-0.949,2.55-0.85,3.75L114.2,102.55z M84.55,55.8
	c1.7,1.1,2.8,2,3.3,2.7c0.567,0.833,0.917,1.783,1.051,2.85c0.066,0.467,0.1,1.483,0.1,3.05l-0.1,6.15
	c-0.034,0.467-0.017,1.35,0.05,2.65c0.033,1.133,0.017,2.05-0.05,2.75c-1.967,0.267-4.284-0.217-6.95-1.45
	c-2.3-0.867-3.917-1.55-4.85-2.05c-1.3-0.7-2.25-1.217-2.85-1.55c-1.067-0.533-2.117-0.95-3.15-1.25
	c-1.7-0.467-4.383-0.867-8.05-1.2c-0.066-0.934,1.017-1.633,3.25-2.1c1.867-0.4,3.434-0.517,4.7-0.35
	c2.233,0.733,4.05,1.233,5.45,1.5c2.6,0.5,4.25,0.017,4.95-1.45c0.533-1.066,0.033-2.45-1.5-4.15c-1.833-1.7-2.983-2.833-3.45-3.4
	c-1.8-2.1-2.434-3.683-1.9-4.75c0.267-0.533,0.717-0.9,1.35-1.1c0.667-0.167,1.2-0.033,1.6,0.4h4
	C81.933,53.85,82.95,54.767,84.55,55.8z M94.9,86c-1.2,0.3-2.45-0.15-3.75-1.35c-1.334-1.2-1.884-2.383-1.65-3.55
	c0.6-0.133,1.267-0.15,2-0.05l3.5,1.5C95,84.483,94.967,85.633,94.9,86z M99.05,88c0.8,0.5,1.4,1,1.8,1.5c0.434,0.6,0.9,1.6,1.4,3
	c0.5,1.467,0.95,2.483,1.35,3.05c0.134,0.167,0.45,0.467,0.95,0.9c0.434,0.367,0.717,0.716,0.851,1.05
	c0.166,0.433,0.267,1.083,0.3,1.95c0.066,1.133,0.116,1.816,0.149,2.05c0.367,2.167,1.067,5.383,2.101,9.65
	c0.566,2.7,0.833,6.083,0.8,10.15c-0.033,2.3-0.116,5.717-0.25,10.25c0,1.434,0.167,3.483,0.5,6.15c0.333,2.733,0.5,4.767,0.5,6.1
	v0.05l-4-17.3c-0.033-2.367-0.45-5.466-1.25-9.3c-1-4.567-1.583-7.633-1.75-9.2c-0.4-4.033-0.733-6.7-1-8
	c-0.233-1.1-0.65-2.45-1.25-4.05c-0.8-2.2-1.267-3.517-1.4-3.95c-0.267-1.233-0.5-2.167-0.699-2.8c-0.301-1.167-0.7-2-1.2-2.5
	C97.417,87.05,98.116,87.467,99.05,88z M111.8,153.75l0.2,0.8l-0.25-0.1c-1.333-0.367-2.1-1.95-2.3-4.75
	c0.033-3.134,0.05-5.084,0.05-5.851L111.8,153.75z M139.5,191.55l2.5-11c-0.033,0.601,0.017,1.851,0.15,3.75
	c0.1,1.134,0.25,3.134,0.449,6c0.267,4.533,0.284,8.184,0.051,10.95c-0.334,3.934-1.15,6.616-2.45,8.05
	c-0.934,1.066-2.15,1.45-3.65,1.15c-0.2-1.434-0.133-2.867,0.2-4.3c0.267-1.134,0.767-2.467,1.5-4c0.833-1.7,1.25-4.267,1.25-7.7
	V191.55z M126.85,96.55c1.534-3.767,2.667-6.6,3.4-8.5c1.333-3.4,1.917-6.4,1.75-9l5.5-9.5c-0.967,10.4-1.934,19.083-2.9,26.05
	c-0.1,0.8-0.25,2.617-0.449,5.45c-0.167,2.233-0.384,4.034-0.65,5.4c-0.7,3.433-1.866,5.633-3.5,6.6c-0.667,0.4-1.4,0.55-2.2,0.45
	c-0.3-0.033-1.05-0.217-2.25-0.55c-0.133-1.133-0.133-2.467,0-4c0.233-1.733,0.384-3.034,0.45-3.9c0.066-1.933,0.134-3.367,0.2-4.3
	C126.267,99.083,126.483,97.683,126.85,96.55z M15.5,90.45l-0.05-0.25c-0.2-0.667-0.117-1.367,0.25-2.1
	c0.3-0.633,0.7-1.184,1.2-1.65c0.5-0.5,1.033-0.8,1.6-0.9l0.5,4c0.133,1.133-0.317,1.817-1.35,2.05
	C16.617,91.8,15.9,91.417,15.5,90.45z M36.4,75.9c-0.5-0.3-1.267-0.45-2.3-0.45c2.7-3.333,6.833-5.633,12.4-6.9l12-0.5
	c-1.033,1.333-0.417,2.35,1.85,3.05c2.233,0.633,3,1.333,2.3,2.1c-0.6,0.7-2.417,0.933-5.45,0.7c-3.967-0.267-6.017-0.4-6.15-0.4
	c-4.8,0.533-8.617,1.333-11.45,2.4c-0.767,0.3-2.983,1.867-6.65,4.7c-2.7,2.066-5.184,2.85-7.45,2.35
	c-0.133-2.367,1.15-4.117,3.85-5.25C30.183,77.333,32.533,76.733,36.4,75.9z M126.4,177.45c-0.667,0.633-1.534,0.85-2.601,0.649
	c-1.066-0.199-1.967-0.75-2.7-1.649c-0.699-0.8-1.333-2.066-1.899-3.8c-0.566-1.934-0.983-3.301-1.25-4.101
	c-0.601-2.133-0.967-3.5-1.101-4.1c-0.233-1.134-0.35-2.45-0.35-3.95v-0.2l-0.05-0.55c-0.033-1-0.184-2.366-0.45-4.1
	c-0.3-1.834-0.467-3.2-0.5-4.101c-0.366-5.233-0.033-10.899,1-17l3-8c-0.134,2.167,0.15,4.65,0.85,7.45
	c0.434,1.6,1.15,3.983,2.15,7.15c0.934,3.267,1.467,5.216,1.6,5.85c0.2,0.833,0.767,2.917,1.7,6.25c0.7,2.566,1.2,4.65,1.5,6.25
	c0.434,2.333,0.65,5,0.65,8c0,2.967-0.2,5.65-0.601,8.05C127.25,176.384,126.934,177.017,126.4,177.45z M128.95,120.9
	c-0.134,6.4-0.084,10.95,0.149,13.65c0.167,1.533,0.334,3.8,0.5,6.8c0.233,2.601,0.7,4.801,1.4,6.601
	c0.333,0.899,0.684,2.149,1.05,3.75c0.4,1.833,0.717,3.116,0.95,3.85c0.233,0.834,0.733,2.101,1.5,3.8
	c0.767,1.634,1.267,2.9,1.5,3.801c1.233,4.433,1.85,9.166,1.85,14.199c0,7.034-1.783,10.567-5.35,10.601
	c-1.233,0-2.083-0.15-2.55-0.45s-0.816-0.95-1.05-1.95c-0.434-1.8-0.567-3.483-0.4-5.05c0.066-0.634,0.3-1.5,0.7-2.6
	c0.467-1.167,0.733-2.017,0.8-2.551c0.134-0.866,0.184-2,0.15-3.399c-0.101-1.533-0.15-2.667-0.15-3.4c0-5-0.3-9.649-0.9-13.95
	c-0.1-0.899-0.633-3.983-1.6-9.25c-0.667-3.699-1-6.8-1-9.3l1.95-14.5l0.55-4L128.95,120.9z M134.3,233.75
	c-1.566,3.7-2.983,4.483-4.25,2.35c-0.434-0.733-0.45-2.916-0.05-6.55c0.066-0.6,0.3-1.35,0.7-2.25c0.434-1.033,0.7-1.75,0.8-2.149
	v-0.101c0.134-0.633,0.184-1.483,0.15-2.55c-0.067-1.233-0.117-2.134-0.15-2.7v-0.3l3-14.45c-0.066,0.967,0.1,2.5,0.5,4.601
	c0.167,0.899,0.283,2.399,0.35,4.5c0.101,1.933,0.267,3.416,0.5,4.449c0.067,0.334,0.384,1.384,0.95,3.15
	c0.4,1.3,0.634,2.366,0.7,3.2l0.1,3.05c0,0.6-0.066,1.467-0.199,2.6c-0.4,2.967-1.334,3.801-2.801,2.5L134.3,233.75z M141.5,241.5
	l-0.4-1.35c-0.5-1.567-0.8-2.634-0.899-3.2c-0.233-1.101-0.3-2.233-0.2-3.4c0.033-2.133,0.066-3.783,0.1-4.95
	c0.067-2.166,0.367-3.683,0.9-4.55l2.05-5.75l0.45-1.25l0.1,1.5c0.233,3.467,0.917,6.8,2.051,10l1.699,6
	c0.601,2.434,0.784,4.684,0.551,6.75c-0.167,1.3-0.284,2.15-0.351,2.55c-0.233,0.967-0.55,1.75-0.95,2.351
	c-1.3,1.767-2.433,1.883-3.399,0.35C142.667,245.684,142.1,244,141.5,241.5z"/>
<path style="fill-rule:evenodd;clip-rule:evenodd;fill:#3E342B;" d="M1.35,17.25C48.55-4.117,103.767-5.617,167,12.75l-3.5,5.3
	c-0.467,0.967-1.7,1.75-3.7,2.35c-2.267,0.5-3.783,0.85-4.55,1.05c-0.7,0.167-1.95,0.316-3.75,0.45
	c-1.566,0.133-2.783,0.35-3.65,0.65c-3.366,1.167-5.949,2.534-7.75,4.1c-0.3,0.267-0.733,0.75-1.3,1.45
	c-0.533,0.7-0.967,1.183-1.3,1.45c-0.667,0.567-2.033,1.6-4.1,3.1c-1.434,1.067-2.517,2.583-3.25,4.55
	c-0.334,0.933-0.767,2.833-1.301,5.7c-0.133-0.333-0.366-1.816-0.699-4.45c-0.267-2.067-0.817-3.35-1.65-3.85
	c-0.333-0.2-0.9-0.25-1.7-0.15c-0.833,0.133-1.399,0.133-1.7,0c-0.566-0.233-0.983-0.633-1.25-1.2
	c-0.399-0.867-0.683-1.383-0.85-1.55c-1.333,0.533-2.3,0.867-2.9,1c-0.899,0.233-1.933,0.35-3.1,0.35c-1,0-2.35-0.15-4.05-0.45
	c-1.834-0.333-3.15-0.517-3.95-0.55c-1.267-0.066-2.167,0.167-2.7,0.7c-0.333,0.367-0.934,1.1-1.8,2.2c-0.6,0.6-1.517,1.4-2.75,2.4
	c-0.967,0.933-1.55,2-1.75,3.2c-0.1,0.7-0.1,1.784,0,3.25c0.134,1.467,0.134,2.55,0,3.25c-0.134,0.7-0.566,1.75-1.3,3.15
	c-0.7,1.433-1.134,2.533-1.3,3.3c-0.367,1.6-0.551,3.6-0.551,6c0,0.3,0,0.6,0,0.9c0,1.6,0.051,3.934,0.15,7
	c-0.2-0.967-0.6-2.283-1.2-3.95c-0.1-0.267-0.184-0.534-0.25-0.8c-0.533-1.467-0.883-2.5-1.05-3.1c-0.134-0.5-0.25-1-0.35-1.5
	c-0.4-2.3-0.284-4.767,0.35-7.4c0.1-0.467,0.2-0.883,0.3-1.25c0.434-2,0.667-3.433,0.7-4.3c0-2.133-0.684-3.783-2.05-4.95
	c-0.867-0.767-1.967-1.316-3.3-1.65c-0.934-0.267-1.983-0.417-3.15-0.45c-1.033-0.033-1.917-0.183-2.65-0.45
	c-0.4-0.133-1.184-0.483-2.35-1.05c-1.2-0.6-2.4-0.9-3.6-0.9c-0.7,0-2,0.184-3.9,0.55c-1.533,0.3-3.867,0.45-7,0.45
	c-2.433,0.4-3.9,1.917-4.4,4.55c-0.1,0.5-0.15,1.216-0.15,2.15c0.033,1.033,0.017,1.767-0.05,2.2
	c-0.033,0.267-0.217,1.017-0.55,2.25C60.117,48.7,60,49.483,60,50.15c-0.033,1.367,0.183,2.633,0.65,3.8
	c0.5,1.3,1.233,2.35,2.2,3.15c-1.033,0-2.167-0.533-3.4-1.6c-1.034-0.867-1.867-1.85-2.5-2.95c-0.4-0.733-0.85-1.85-1.35-3.35
	c-0.033-0.133-0.15-0.917-0.35-2.35c-0.167-1.1-0.4-1.8-0.7-2.1c-0.466-0.4-1.816-0.567-4.05-0.5c-2.2,0.033-3.6,0.25-4.2,0.65
	c-0.233,0.133-0.5,0.45-0.8,0.95c-0.2,0.333-0.617,0.583-1.25,0.75c-0.5,0.133-1.267,0.15-2.3,0.05c-1.167-0.1-1.967-0.117-2.4-0.05
	c0.233,1.5-0.566,2.566-2.4,3.2c-1,0.333-2.483,0.733-4.45,1.2c1.133-2.433,0.267-3.367-2.6-2.8c-2.833,0.566-4.65,1.633-5.45,3.2
	c-0.4,0.8-0.283,1.85,0.35,3.15c0.633,1.267,0.767,2.2,0.4,2.8c-0.233,0.4-0.65,0.633-1.25,0.7c-0.367,0.034-0.883,0.034-1.55,0
	c-0.167,0.034-0.8,0.133-1.9,0.3c-1,0.167-1.583,0.217-1.75,0.15c-0.2-0.067-0.717-0.567-1.55-1.5c-0.533-0.6-1.3-0.717-2.3-0.35
	c-0.9,0.333-1.85,0.833-2.85,1.5c-1.2,0.8-1.967,1.55-2.3,2.25c-0.833,1.733-0.784,3.483,0.15,5.25c0.6,1.2,1.583,1.85,2.95,1.95
	c1.7-0.1,3.017-0.083,3.95,0.05c-1.267,1.4-2.133,2.25-2.6,2.55c-0.533,0.367-1.1,0.583-1.7,0.65c-0.8,0.066-1.367,0.167-1.7,0.3
	C9.633,71.65,8.65,72.6,8.05,74C7.75,74.667,7.4,76.017,7,78.05c-0.567,2.534-0.967,4.6-1.2,6.2c-0.167,0.9-0.267,1.667-0.3,2.3
	c-0.167,1.6-0.167,2.833,0,3.7c0,0.233,0.033,0.433,0.1,0.6c0.467,1.333,1.533,1.583,3.2,0.75c-1.167,1.566-2.383,2.633-3.65,3.2
	c-1.633,0.767-2.85,0.333-3.65-1.3c-0.533-1.067-0.783-2.667-0.75-4.8C0.917,86.3,1,84.6,1,83.6c0-3.867-0.083-9.684-0.25-17.45
	C0.583,58.417,0.5,52.6,0.5,48.7c0-0.3-0.083-3.767-0.25-10.4c-0.1-4.2-0.033-7.667,0.2-10.4c0.2-3.533,0.417-6.183,0.65-7.95
	c0-0.067,0-0.133,0-0.2C1.2,18.75,1.283,17.917,1.35,17.25z"/>
</svg>
