<?xml version="1.0" encoding="iso-8859-1"?>
<!-- Generator: Adobe Illustrator 15.1.0, SVG Export Plug-In . SVG Version: 6.00 Build 0)  -->
<!DOCTYPE svg PUBLIC "-//W3C//DTD SVG 1.1//EN" "http://www.w3.org/Graphics/SVG/1.1/DTD/svg11.dtd">
<svg version="1.1" id="FlashAICB" xmlns="http://www.w3.org/2000/svg" xmlns:xlink="http://www.w3.org/1999/xlink" x="0px" y="0px"
	 width="365.75px" height="104.4px" viewBox="0 0 365.75 104.4" style="enable-background:new 0 0 365.75 104.4;"
	 xml:space="preserve">
<g>
	<path style="fill-rule:evenodd;clip-rule:evenodd;fill:#28390B;" d="M90.7,67.8c0.733-1.7,0.917-3.283,0.55-4.75
		c-3.467,1.267-9.35,2.184-17.65,2.75c-7.9,0.533-13.833,1.667-17.8,3.4c0.233-0.3,0.934-1.033,2.1-2.2
		c0.967-0.934,1.617-1.733,1.95-2.4c-4.833,1.2-12.817,1.134-23.95-0.199c8.1-2.5,15.383-5.717,21.85-9.65
		C66.717,49.283,71.7,43.633,72.7,37.8c-3.633-0.133-11.65-0.667-24.05-1.6c5.1-1.833,10.25-3.167,15.45-4
		c4.9-0.767,10.217-1.15,15.95-1.15l36.65,4.65c7.333,0,15.167-0.233,23.5-0.7c6.566-0.4,14.4-1,23.5-1.8
		c13.667-1.2,29.083-1.934,46.25-2.2c9.899-0.133,25.316-0.117,46.25,0.05c4.233,0.034,7.399,0.1,9.5,0.2
		c3.434,0.167,6.6,0.467,9.5,0.9c0.866,0.133,4.35,0.55,10.45,1.25c5.8,0.934,9,2.15,9.6,3.65c0.533,1.233,0.35,2.65-0.55,4.25
		c-0.233,0.434-1.117,1.633-2.65,3.6c-2.033,2.967-3.649,5.184-4.85,6.65c-2.167,2.601-4.3,4.117-6.4,4.55
		c0.367-0.5,0.667-1.217,0.9-2.149c0.267-1.067,0.467-1.75,0.6-2.05c-1.433,1.5-3.767,2.35-7,2.55c-4,0.267-6.6,0.649-7.8,1.149
		c-4.9,2.033-9.366,4.434-13.4,7.2c0.768-1.399,1.384-3.017,1.851-4.85c-1.667,1-4.55,2-8.65,3c-3.933,0.933-6.783,2.017-8.55,3.25
		c0.733-1.3,1.217-2.283,1.45-2.95c0.434-1.167,0.583-2.233,0.45-3.2c-2.233,0.566-4.717,2.134-7.45,4.7
		c-2.134,2-4.117,4.267-5.95,6.8c2.066-3.866,3.483-6.717,4.25-8.55c1.667-4,2.25-7.017,1.75-9.05c-2.267-0.3-5.483,0.8-9.65,3.3
		c-2.966,1.767-5.85,3.85-8.649,6.25c-4.8,4.267-8.517,7.467-11.15,9.6c-4.6,3.733-8.717,6.317-12.35,7.75
		c-0.066-1.699,0.366-4.199,1.3-7.5c0.934-3.333,1.384-5.85,1.35-7.55c-4.699,3.333-11.433,6.667-20.2,10
		c-11.4,4.333-18.383,7.134-20.95,8.4c2.633-3.601,7.033-7.567,13.2-11.9c6.934-4.899,11.583-8.616,13.95-11.149
		c1.733-1.867,2.733-3.067,3-3.601c0.5-1.167,0.334-2.7-0.5-4.6c-1.399-3.2-4.149-4.784-8.25-4.75c-0.9,0-4.367,0.566-10.4,1.7
		c-6.7,1.233-12.367,2.783-17,4.65c-5.6,2.267-10.517,5.316-14.75,9.15c-3.367,3-7.3,5.517-11.8,7.55
		c-5.5,2.2-9.917,4.017-13.25,5.45c1.667-1.3,2.917-2.617,3.75-3.95c0.867-1.4,1.434-3.066,1.7-5
		c-3.133,1.333-7.167,2.517-12.1,3.55c-5.533,1.066-9.667,1.917-12.4,2.55C89.3,70.316,90.167,68.967,90.7,67.8z"/>
</g>
<g>
	<path style="fill-rule:evenodd;clip-rule:evenodd;fill:#28390B;" d="M115.15,18.6l-0.2-1.25l1.6-0.05
		c1.767,0.133,4.4,0.633,7.9,1.5c4.533,1.1,8.316,1.567,11.35,1.4c3.667-0.134,8.884-1.284,15.65-3.45
		c6.033-1.967,10.633-3.7,13.8-5.2c3.033-1.533,6.3-3.117,9.8-4.75c2.567-1.167,5.05-2.167,7.45-3c8.6,0.6,18.217,2.034,28.85,4.3
		c7.268,1.566,16.834,3.983,28.7,7.25c20.233,5.566,34.417,9.6,42.55,12.1c5.4,1.633,10.934,3.7,16.601,6.2
		c-1.634,2.133-3.467,4.383-5.5,6.75c-7.533,8.867-13.434,13.966-17.7,15.3c-4.3,1.366-9.517,2.149-15.65,2.35l-7.949-0.1l0.149-3.4
		c-0.1,0.833-1.066,1.9-2.899,3.2c-3.834,2.7-10.65,5.316-20.45,7.85c-11.233,2.834-19.05,4.767-23.45,5.801l-5.8,1.399l0.95-0.6
		c1.267-1.033,2.649-2.384,4.149-4.05c1.567-1.7,4.101-4.067,7.601-7.101l4.55-3.85c-3.867,2.366-8.333,4.833-13.4,7.399
		c-10.033,5-17.483,7.75-22.35,8.25c-4.867,0.601-10.534,0.917-17,0.95l-8-0.149c0.2-0.5,0.583-1.134,1.15-1.9
		c1.066-1.4,2.45-2.566,4.15-3.5c1.733-0.934,3.9-2.667,6.5-5.2l3.55-3.7c-2.267,0.767-5.083,1.533-8.45,2.301
		c-6.567,1.399-11.867,1.883-15.9,1.449c-4.133-0.433-12.25,0.917-24.35,4.051l-16.9,4.899L117.3,58.9
		c-1.966,0.666-4.683,1.35-8.15,2.05c-6.3,1.267-12.35,1.717-18.15,1.35c-5.533-0.399-13.933-0.55-25.2-0.45L50.65,62.15L66.9,53.6
		c-6.1-0.833-11.5-1.516-16.2-2.05c-11-1.3-17.467-1.683-19.4-1.15c-1.833,0.467-4.55,1.934-8.15,4.4
		c-1.566,1.066-3.2,2.233-4.9,3.5c-0.433-1.2-0.533-2.616-0.3-4.25c0.5-3.2,2.466-5.716,5.9-7.55c3.533-1.9,7.633-3.267,12.3-4.1
		c2.5-0.5,4.5-0.767,6-0.8l-3.85-1.75c-2.7-1.2-4.3-1.85-4.8-1.95c-0.433-0.1-1.05-0.617-1.85-1.55L30.6,34.9l6.6,1.25
		c5.1,0.9,9.117,1.55,12.05,1.95c4.7,0.667,10.317,1.083,16.85,1.25l-4.4-4.05l4.35,0.7c3.467,0.933,6.917,2.566,10.35,4.9
		c1.434,1,2.567,1.567,3.4,1.7c0.8,0.133,1.75-0.083,2.85-0.65c3.233-2.2,7.017-4.367,11.35-6.5c5.267-2.5,10.9-4.4,16.9-5.7
		c3-0.633,5.483-1.033,7.45-1.2c-5.5-1.1-9.533-1.75-12.1-1.95c-1.6-0.133-3.2-0.333-4.8-0.6l-2-0.35c0.6-0.5,1.483-1.017,2.65-1.55
		c2.233-1,4.483-1.367,6.75-1.1c3.566,0.467,6.867,1.117,9.9,1.95c1.167,1.566,0.7,0.8-1.4-2.3
		C116.317,21.183,115.583,19.833,115.15,18.6z"/>
</g>
<g>
	<path style="fill-rule:evenodd;clip-rule:evenodd;fill:#2F210C;" d="M353.45,68.4c2.967,1.5,4.783,2.482,5.45,2.949
		c1.767,1.267,2.699,2.733,2.8,4.4c1.1-0.1,1.717-1.066,1.85-2.9c0.033-0.267-0.017-1.699-0.149-4.3
		c1.033,0.566,1.75,1.684,2.149,3.351c0.3,1.466,0.3,2.899,0,4.3c-0.1,0.433-0.366,1-0.8,1.7c-0.467,0.699-0.75,1.283-0.85,1.75
		c-0.101,0.566-0.084,1.449,0.05,2.649c0.167,1.367,0.233,2.283,0.2,2.75l-1,0.05c-0.067,0.667,0.017,1.967,0.25,3.9
		c-0.033,1.566-0.717,2.217-2.051,1.95c-0.199,3.1-0.333,4.767-0.399,5c-0.434,2.333-1.283,2.8-2.55,1.399
		c-0.567,0.434-1.067,1.517-1.5,3.25c-0.233,0.934-0.5,2.2-0.801,3.801c-0.767-0.934-1.533-1.551-2.3-1.851
		c-1.066-0.3-2.066-0.6-3-0.899c-0.066-0.801-0.566-1.518-1.5-2.15c-0.866-0.6-1.316-1.267-1.35-2c0.6,0.1,1.8,0.316,3.6,0.65
		c1.467,0,2.15-0.733,2.05-2.2c-1.433,0.066-2.482,0.066-3.149,0c-1.2-0.134-2.05-0.667-2.55-1.601
		c-0.334-0.566-0.367-2.316-0.101-5.25c0.101-1.267,0.367-3.483,0.8-6.649c0.367-2.767,0.584-4.983,0.65-6.65
		C351.617,73.833,353.017,71.366,353.45,68.4z"/>
	<path style="fill-rule:evenodd;clip-rule:evenodd;fill:#5B421A;" d="M354.15,65.95c-0.5-0.3-1.084-0.517-1.75-0.65
		c-0.801-0.1-1.417-0.184-1.851-0.25c1.367-1.133,2.884-1.55,4.55-1.25c0.434,0.101,0.917,0.267,1.45,0.5
		c0.567,0.3,0.967,0.601,1.2,0.9c0.634,1.133,0.833,1.683,0.6,1.649c-0.166-0.033-0.449-0.017-0.85,0.051
		c-0.4,0.033-0.684,0.033-0.85,0c0,0.199-0.017,0.533-0.051,1C355.733,67.033,354.917,66.383,354.15,65.95z"/>
	<path style="fill-rule:evenodd;clip-rule:evenodd;fill:#5B421A;" d="M360.25,70.2c-0.967-1.9-0.934-3.067,0.1-3.5
		c1.233-0.533,2.034,0.267,2.4,2.399c0.367,2.134,0.017,3.467-1.05,4C361.2,72.133,360.717,71.167,360.25,70.2z"/>
</g>
<g>
	<path style="fill-rule:evenodd;clip-rule:evenodd;fill:#4A3310;" d="M265,21.25c6.934,0.7,12.5,1.517,16.7,2.45
		c12.566,2.767,21.633,8.15,27.2,16.15c1.833,2.667,4.55,6.633,8.149,11.9c3.3,4.366,6.8,7.717,10.5,10.05
		c3.067,1.9,7.367,3.033,12.9,3.4c6.2,0.399,10.533,1.133,13,2.2c4.366,1.833,6.967,5.033,7.8,9.6c0.8,4.3-0.167,8.3-2.9,12
		c-1.767,2.434-3.449,4-5.05,4.7c-1.767,0.767-4.183,0.816-7.25,0.149c-2.1-0.433-4.7-1.149-7.8-2.149
		c-3.4-1.134-5.917-1.95-7.55-2.45c-2.267-0.7-4.667-1.783-7.2-3.25c-2.866-1.833-5.083-3.217-6.65-4.15
		c-1.399-0.699-2.416-1.233-3.05-1.6c-1.166-0.6-2.05-1.233-2.649-1.9c-0.5-0.566-0.983-1.383-1.45-2.449
		c-0.533-1.301-0.917-2.134-1.15-2.5c-2.2-3.434-4.75-8.184-7.649-14.25c-2.9-6.067-5.467-10.817-7.7-14.25
		c-1.033-1.633-3.05-3.45-6.05-5.45c-3.467-2.134-5.851-3.65-7.15-4.55c-2.033-1.4-6.85-2.883-14.45-4.45
		c-5.5-1.134-10.55-1.983-15.149-2.55c-2.101-0.267-3.533-1.083-4.301-2.45c-0.732-1.267-2.166-1.95-4.3-2.05
		c-4.899-0.267-8.45-0.583-10.649-0.95c-4.9-0.833-7.817-2.2-8.75-4.1c2.833-1.233,7.183-1.55,13.05-0.95
		c3.267,0.333,7.649,1,13.149,2C250.434,19.667,255.9,20.283,265,21.25z"/>
	<g>
		<g>
			<path style="fill-rule:evenodd;clip-rule:evenodd;fill:#3F2B0C;" d="M320.9,71.15c-2.667-2.634-5.051-4.317-7.15-5.051
				c2.967,3.7,5.05,6.134,6.25,7.301c2.134,2.066,4.434,3.566,6.9,4.5C324.233,74.733,322.233,72.483,320.9,71.15z M298,29.75
				c-1.833-0.067-3.2-0.083-4.1-0.05c-1.5,0.066-2.801,0.283-3.9,0.65c0.434,0.533,1.967,1.45,4.6,2.75
				c2.067,1.033,3.15,2.283,3.25,3.75c-1.666-0.467-3.149-0.617-4.449-0.45c0.5,0.9,1.699,2.617,3.6,5.15
				c1.5,2.067,2.566,3.883,3.2,5.45c1.233,3,3.283,6.083,6.149,9.25c-1.366-1.566-2.399-3.483-3.1-5.75
				c-0.667-2.1-0.967-4.267-0.9-6.5c1,2.9,3.034,6.483,6.101,10.75c1.7,2.366,4.184,5.7,7.45,10c-0.067-1.066-0.517-2.634-1.351-4.7
				c4.4,6.467,8.567,11.134,12.5,14c5.015,3.688,10.706,5.472,17.075,5.351c-2.9-0.04-5.475-1.106-7.725-3.2
				c2.733-0.2,5.649-0.217,8.75-0.05c4.833,0.267,7.517,0.982,8.05,2.149c-0.3-0.033-0.851,0-1.65,0.101
				c-0.767,0.1-1.316,0.116-1.649,0.05c0.666,0.633,1.733,0.983,3.199,1.05c0.467,0,1.7-0.066,3.7-0.2
				c1.533-3.267,0.117-4.899-4.25-4.899c-2.467,0.066-4.25,0.066-5.35,0c-1.833-0.134-2.934-0.617-3.3-1.45
				c0.666-0.033,2.35,0.033,5.05,0.2c2.167,0.133,3.8,0.05,4.899-0.25c0.733-0.167,1.617-0.483,2.65-0.95
				c1-0.434,1.684-0.7,2.05-0.8c0.533,0.6,1.017,1.35,1.45,2.25c-2.267,0-3.733,0.033-4.4,0.1c0.5,0.7,1.367,1.333,2.601,1.9
				c1.066,0.5,1.783,1.166,2.149,2c0.467,1.066,0.551,2.25,0.25,3.55c-0.3,1.333-0.883,2.149-1.75,2.45
				c-1.166,0.466-5.316-0.184-12.449-1.95c0.699,1.066,2.25,2.183,4.649,3.35c2.367,1.101,4.3,1.667,5.8,1.7
				c-1.232,0.4-2.55,0.55-3.949,0.45c0.533,0.399,0.883,0.85,1.05,1.35c0.1,0.3,0.184,0.8,0.25,1.5
				c-3.134,0.3-7.667-0.467-13.601-2.3c0.301-0.033,1.667-0.033,4.101,0c1.733,0,3.083-0.184,4.05-0.55
				c-0.366-2.067-2.6-3.517-6.7-4.351c-2.899-0.6-5.85-0.816-8.85-0.649c1.033,0.366,2.883,0.833,5.55,1.399
				c2.4,0.5,4.233,1.017,5.5,1.551c-2.633,0-4.633-0.018-6-0.051c-2.366-0.066-4.316-0.267-5.85-0.6
				c-1.233-0.267-2.834-0.967-4.801-2.1c-2.066-1.2-3.633-1.934-4.699-2.2c0.533,0.866,1.699,2.166,3.5,3.899
				c-3.634-0.933-7.783-4.217-12.45-9.85c-4.333-5.3-7.033-9.934-8.101-13.9c0.034,0.7,0.301,1.65,0.801,2.851
				c0.5,1.166,0.75,2.1,0.75,2.8c-1.934-2.4-3.584-5.533-4.95-9.4c-1.367-4.399-2.517-7.716-3.45-9.95
				c-1.633-4.1-6.116-7.917-13.45-11.45c0.7-0.034,1.667,0.017,2.9,0.15c1.366,0.133,2.333,0.2,2.899,0.2
				c-1.033-0.767-2.482-1.417-4.35-1.95c2.167,0.066,3.783,0.05,4.85-0.05c-0.399-0.767-1.017-1.333-1.85-1.7
				c-0.767-0.333-1.616-0.434-2.55-0.3c-0.134-1.267,0.45-2.2,1.75-2.8c0.967-0.5,2.184-0.75,3.649-0.75
				c-0.732-0.434-1.716-0.717-2.949-0.85l-2.65-1.75C291.217,26.35,294.8,27.883,298,29.75z"/>
			<path style="fill-rule:evenodd;clip-rule:evenodd;fill:#3F2B0C;" d="M264.15,21.15L269,21.7c-2.366,3-3.816,5.85-4.35,8.55
				c-3.167-0.633-6.467-1.217-9.9-1.75c0.6-1.967,1.783-3.567,3.55-4.8C259.667,22.767,261.617,21.917,264.15,21.15z"/>
			<path style="fill-rule:evenodd;clip-rule:evenodd;fill:#2F210C;" d="M287.25,25.15l2.65,1.75c1.233,0.133,2.217,0.417,2.949,0.85
				c-1.466,0-2.683,0.25-3.649,0.75c-1.3,0.6-1.884,1.533-1.75,2.8c0.934-0.133,1.783-0.033,2.55,0.3
				c0.833,0.367,1.45,0.933,1.85,1.7c-1.066,0.1-2.683,0.117-4.85,0.05c1.867,0.533,3.316,1.183,4.35,1.95
				c-0.566,0-1.533-0.066-2.899-0.2c-1.233-0.133-2.2-0.184-2.9-0.15c7.334,3.533,11.817,7.35,13.45,11.45
				c0.934,2.233,2.083,5.55,3.45,9.95c1.366,3.867,3.017,7,4.95,9.4c0-0.7-0.25-1.634-0.75-2.8c-0.5-1.2-0.767-2.15-0.801-2.851
				c1.067,3.967,3.768,8.601,8.101,13.9c4.667,5.633,8.816,8.917,12.45,9.85c-1.801-1.733-2.967-3.033-3.5-3.899
				c1.066,0.267,2.633,1,4.699,2.2c1.967,1.133,3.567,1.833,4.801,2.1c1.533,0.333,3.483,0.533,5.85,0.6
				c1.367,0.033,3.367,0.051,6,0.051c-1.267-0.534-3.1-1.051-5.5-1.551c-2.667-0.566-4.517-1.033-5.55-1.399
				c3-0.167,5.95,0.05,8.85,0.649c4.101,0.834,6.334,2.283,6.7,4.351c-0.967,0.366-2.316,0.55-4.05,0.55
				c-2.434-0.033-3.8-0.033-4.101,0c5.934,1.833,10.467,2.6,13.601,2.3c-0.066-0.7-0.15-1.2-0.25-1.5
				c-0.167-0.5-0.517-0.95-1.05-1.35c1.399,0.1,2.717-0.05,3.949-0.45c-1.5-0.033-3.433-0.6-5.8-1.7
				c-2.399-1.167-3.95-2.283-4.649-3.35c7.133,1.767,11.283,2.416,12.449,1.95c0.867-0.301,1.45-1.117,1.75-2.45
				c0.301-1.3,0.217-2.483-0.25-3.55c-0.366-0.834-1.083-1.5-2.149-2c-1.233-0.567-2.101-1.2-2.601-1.9
				c0.667-0.066,2.134-0.1,4.4-0.1c1.233,2.399,1.684,5.033,1.35,7.899c-0.3,2.833-1.3,5.4-3,7.7c-1.767,2.434-3.449,4-5.05,4.7
				c-1.767,0.767-4.183,0.816-7.25,0.149c-2.1-0.433-4.7-1.149-7.8-2.149c-3.4-1.134-5.917-1.95-7.55-2.45
				c-2.267-0.7-4.667-1.783-7.2-3.25c-2.866-1.833-5.083-3.217-6.65-4.15c-1.399-0.699-2.416-1.233-3.05-1.6
				c-1.166-0.6-2.05-1.233-2.649-1.9c-0.5-0.566-0.983-1.383-1.45-2.449c-0.533-1.301-0.917-2.134-1.15-2.5
				c-2.2-3.434-4.75-8.184-7.649-14.25c-2.9-6.067-5.467-10.817-7.7-14.25c-1.033-1.633-3.05-3.45-6.05-5.45
				c-3.467-2.134-5.851-3.65-7.15-4.55c-2.133-1.467-7.25-3.017-15.35-4.65c0.533-2.7,1.983-5.55,4.35-8.55
				C276.233,22.5,282.316,23.65,287.25,25.15z"/>
			<path style="fill-rule:evenodd;clip-rule:evenodd;fill:#2F210C;" d="M313.75,66.1c2.1,0.733,4.483,2.417,7.15,5.051
				c1.333,1.333,3.333,3.583,6,6.75c-2.467-0.934-4.767-2.434-6.9-4.5C318.8,72.233,316.717,69.8,313.75,66.1z"/>
		</g>
		<path style="fill-rule:evenodd;clip-rule:evenodd;fill:#5B421A;" d="M304.4,39.4c0.866,0.434,2.3,1.25,4.3,2.45
			c-0.934-2.333-2.351-4.733-4.25-7.2c1.733,1.667,3.217,3.4,4.45,5.2c1.833,2.667,4.55,6.633,8.149,11.9
			c3.3,4.366,6.8,7.717,10.5,10.05c3.067,1.9,7.367,3.033,12.9,3.4c6.2,0.399,10.533,1.133,13,2.2c1.6,0.633,3.033,1.583,4.3,2.85
			c-0.267,0.167-0.6,0.25-1,0.25c-0.566,0-1.4-0.417-2.5-1.25c-0.967-0.733-1.934-0.917-2.9-0.55c0.5,0.333,1.268,0.883,2.301,1.649
			c-2.301-0.699-6.15-0.717-11.551-0.05c-5.3,0.667-9.183,0.566-11.649-0.3c0.934-0.1,3.116-0.083,6.55,0.05
			c2.733,0.101,4.85-0.083,6.35-0.55c-1.199-0.1-2.1-0.134-2.699-0.1c0.833-0.301,1.883-0.467,3.149-0.5
			c1.867-0.067,2.9-0.117,3.101-0.15c-1.667-0.667-4.783-0.983-9.351-0.95c-4.366,0.066-7.583-0.399-9.649-1.399
			c0.533-0.301,1.283-0.467,2.25-0.5c0.566-0.034,1.449-0.051,2.649-0.051c-2.2-0.066-4.233-0.5-6.1-1.3
			c-2.3-0.967-3.75-2.316-4.351-4.05c0.367,1.4,0.717,2.467,1.051,3.2c-3.134-2.733-6.5-6.65-10.101-11.75
			C308,44.35,305.033,40.167,304.4,39.4z"/>
	</g>
	<path style="fill-rule:evenodd;clip-rule:evenodd;fill:#5B421A;" d="M319.9,64.75c-1.167-1.1-2.017-2.083-2.551-2.95
		c-0.732-1.167-1.116-2.417-1.149-3.75c0.5,0.767,1.316,1.667,2.45,2.7c0.6,0.566,1.5,1.383,2.699,2.45
		c1.967,1.899,3.65,3.416,5.051,4.55c0.467,0.366,1.066,0.917,1.8,1.65c0.602,0.571,1.21,0.979,1.825,1.225
		c-1.83-0.676-3.388-1.367-4.676-2.075c0.567,0.367,0.801,0.733,0.7,1.101c-0.3-0.301-0.8-0.65-1.5-1.051
		c-0.8-0.5-1.333-0.85-1.6-1.05C321.617,66.316,320.6,65.383,319.9,64.75z"/>
	<path style="fill-rule:evenodd;clip-rule:evenodd;fill:#5B421A;" d="M300.85,39.4l0.7,0.15c0.033,0.333,0.233,0.65,0.601,0.95
		c0.199,0.133,0.517,0.35,0.949,0.65c0.601,0.6,1.301,1.5,2.101,2.7c0.667,1,1.267,2.117,1.8,3.35c0.667,1.5,1,2.683,1,3.55
		c-0.4-0.367-0.866-0.95-1.4-1.75c-0.633-0.867-1.1-1.467-1.399-1.8l-1.3-1.2c-0.5-0.467-0.867-0.917-1.101-1.35
		c-0.733-1.267-1.183-2.117-1.35-2.55C300.95,41.033,300.75,40.133,300.85,39.4z"/>
	<path style="fill-rule:evenodd;clip-rule:evenodd;fill:#2F210C;" d="M293.7,27.7c0.5,0.3,1.467,0.833,2.899,1.6
		c1.167,0.767,1.733,1.55,1.7,2.35c-0.133-0.033-0.866-0.1-2.2-0.2c0.167,0.566,0.75,1.2,1.75,1.9c1.034,0.733,1.65,1.367,1.851,1.9
		c-1.134-0.667-1.917-1.083-2.351-1.25c-0.899-0.333-1.783-0.417-2.649-0.25c0.1,0.367,0.967,1.25,2.6,2.65
		c1.767,1.5,3.134,3.5,4.101,6c-0.533-0.066-2.051-1.217-4.551-3.45c-2.267-2.067-3.683-2.934-4.25-2.6
		c0.233,0.7,0.817,1.75,1.75,3.15c0.9,1.367,1.45,2.45,1.65,3.25c-0.366,0.133-0.85,0.133-1.45,0c-0.666-0.167-1.166-0.283-1.5-0.35
		l-3.649-3.7c-2.601-0.7-4.517-2.167-5.75-4.4c-1.334-2.466-1.017-4.75,0.949-6.85c1.101-1.167,2.601-1.634,4.5-1.4
		C290.533,26.25,292.066,26.8,293.7,27.7z"/>
</g>
<g>
	<path style="fill-rule:evenodd;clip-rule:evenodd;fill:#335209;" d="M112.45,18.4c2.8,0.367,5.85,1.15,9.15,2.35
		c3.433-2.434,7.183-4.617,11.25-6.55c4.833-2.2,9.933-3.567,15.3-4.1c3.7-0.367,8.95-0.367,15.75,0
		c17.034,1.033,27.967,1.8,32.8,2.3c2.033,0.2,4.833,0.8,8.399,1.8c3.867,1.066,6.65,1.733,8.351,2
		c2.733,0.433,6.95,0.85,12.649,1.25c5.601,0.4,9.834,0.833,12.7,1.3c8.834,1.4,16.167,3.117,22,5.15
		c11.834,4.033,16.817,8.833,14.95,14.4c-0.934,2.7-3.967,5.3-9.1,7.8c-5.9,2.433-9.801,4.1-11.7,5c-0.066-2.1,0.267-4.5,1-7.2
		c0.8-2.967,1.8-5.1,3-6.4c-1.733,0.667-4.15,1.433-7.25,2.3c-3.434,0.967-5.867,1.7-7.3,2.2c-2.834,1-4.967,1.833-6.4,2.5
		c-2.3,1.033-4.3,2.183-6,3.45c-1.533,1.167-3.4,3.167-5.6,6c-2.267,2.933-4.101,4.95-5.5,6.05c-0.134-1.733,0.133-3.8,0.8-6.2
		c0.833-2.7,1.434-4.667,1.8-5.9c-0.866,0.267-1.717,0.7-2.55,1.3c-0.367,0.267-1.083,0.883-2.15,1.85
		c-4.633,4.167-9.316,7.783-14.05,10.851c-2.866,2.267-5.066,3.85-6.6,4.75c-2.767,1.633-4.667,1.533-5.7-0.301
		c-0.434-0.767-0.483-2.366-0.15-4.8c0.434-2.633,0.684-4.35,0.75-5.149c-4.267,3.033-7.633,5.183-10.1,6.449
		c-3.667,1.9-7.483,3.134-11.45,3.7c0.767-1.566,2.567-2.95,5.4-4.149c3.434-1.434,5.567-2.534,6.4-3.301
		c0.967-0.866,2.101-2.283,3.4-4.25c1.366-2.033,2.45-3.45,3.25-4.25c0.333-0.333,1.1-0.85,2.3-1.55c1-0.633,1.75-1.267,2.25-1.9
		c-5.767,1.267-12.566,4.417-20.4,9.45c-9.733,6.233-16.267,10.067-19.6,11.5c-6.233,3.2-11.017,5.5-14.35,6.9
		c-5.9,2.5-11.017,3.35-15.35,2.55c1.267-1.399,2.65-3.333,4.15-5.8c0.833-1.4,2.033-3.5,3.6-6.3c1.034-1.767,2.7-4.033,5-6.8
		c2.534-3.034,4.25-5.233,5.15-6.601l1.5-9.95c-1.833-1.133-3.15-1.9-3.95-2.3c-1.3-0.633-2.75-1.167-4.35-1.6
		c-1.767-0.467-4.4-0.833-7.9-1.1l-0.5,0.2c-7.933,3.333-14.25,6.633-18.95,9.9c-2.5-0.267-6.25,0.566-11.25,2.5
		c-5.333,2.333-8.95,3.783-10.85,4.35c-6.367,2-10.167,3.15-11.4,3.45c-4.566,1.133-8.483,1.533-11.75,1.2
		c0.934-2.601,3.184-5.617,6.75-9.05c1.967-1.933,4.784-4.566,8.45-7.9c-3.4,1.467-8.566,2.717-15.5,3.75
		c-7.467,1.133-12.7,2.233-15.7,3.3c-3.433,1.233-7.383,1.983-11.85,2.25c-3.967,0.2-8.034,0.034-12.2-0.5
		c1.3-2,4.717-4.417,10.25-7.25c5.033-2.6,8.067-5.316,9.1-8.15c0.2-0.566,0.267-1.433,0.2-2.6c-0.066-1.1,0.034-1.933,0.3-2.5
		c0.367-0.733,0.967-1.316,1.8-1.75c1.2-0.667,1.917-1.1,2.15-1.3c3.034-2.6,4.45-4.767,4.25-6.5
		c-0.133-1.167-1.517-2.217-4.15-3.15c-3.367-1.2-5.216-1.934-5.55-2.2c3,0.067,6.583-0.017,10.75-0.25
		c2.4-0.133,5.983-0.367,10.75-0.7L112.45,18.4z"/>
	<path style="fill-rule:evenodd;clip-rule:evenodd;fill:#4C6D1A;" d="M115.75,13.65l5.85,1.25c-0.567-0.566-1.733-1.283-3.5-2.15
		c-1.633-0.8-2.733-1.583-3.3-2.35c1.534,0.1,3.6,0.434,6.2,1c1.467,0.333,3.733,0.833,6.8,1.5l-5.4-2.4
		c0.633,0.233,1.333,0.417,2.1,0.55c2.667,0.534,6.05,0.467,10.15-0.2c4-0.7,9.35-1.75,16.05-3.15l8.9-1.95l-1.95-0.85
		c-0.566-0.267-1.2-0.633-1.9-1.1c-0.733-0.466-1.283-0.8-1.65-1l-1.9-0.65l0.8,0.2c4.233,1.2,10.067,1.267,17.5,0.2
		c7.6-1.066,16.65-1.033,27.15,0.1L211.4,4.7c4.633,1.366,8.233,2.483,10.8,3.35c1.1,0.367,4.149,0.784,9.149,1.25
		c4.567,0.434,8.101,0.65,10.601,0.65c5-0.1,7.633-0.134,7.899-0.1c3.5,0.167,6.5,0.816,9,1.95c1.634,0.733,4.018,1.867,7.15,3.4
		l2.8,1.45l-0.55-4.85c0.967,0.833,2.617,2.1,4.95,3.8c3.333,2.433,6.55,4.5,9.649,6.2l8.95,4.85c1.167,0.233,2.05,0.467,2.65,0.7
		c0.934,0.367,1.649,0.883,2.149,1.55l-2.449-0.1c0.333,0.434,0.583,0.85,0.75,1.25l0.05,0.25l2,0.6
		c-0.434,0.233-1.117,0.467-2.05,0.7c-0.467,0.833-1.801,1.216-4,1.15l-0.5,0.35c-0.533,0.233-1.267,0.433-2.2,0.6
		c-0.9,0.167-2.217,0.25-3.95,0.25c-1.2,0.466-2.4,0.866-3.6,1.2c-0.9,0.233-1.9,0.4-3,0.5c0.6,0.033,2.267,0.117,5,0.25
		c2.033,0.1,3.683,0.233,4.949,0.4c-1.166,0.833-3.116,1.267-5.85,1.3c-3.267,0-5.366,0.133-6.3,0.4
		c0.366,0.167,1.383,0.333,3.05,0.5c-1.066,0.8-3.184,1.033-6.35,0.7c-3.301-0.333-5.551-0.15-6.75,0.55c1,0.5,2.5,0.816,4.5,0.95
		c-0.834,0.9-2.417,1.45-4.75,1.65c-3.301,0.267-5.067,0.433-5.301,0.5c-0.399,0.1-1.033,0.4-1.899,0.9
		c-0.833,0.5-1.483,0.783-1.95,0.85c-0.167,0.033-0.65,0.05-1.45,0.05l-0.45,0.15c1.7,0.067,3.217,0.184,4.551,0.35
		c-0.434,0.8-1.584,1.25-3.45,1.35c-2.066,0-3.45,0.05-4.15,0.15c-1.333,0.233-2.933,0.9-4.8,2c-2.133,1.233-3.65,2-4.55,2.3
		c0.533-0.9,1.533-2,3-3.3c2-1.767,3.2-2.867,3.6-3.3c0.4-0.467,1.084-1.4,2.05-2.8c0.367-0.833,0.551-1.7,0.551-2.6
		c-0.867,0.633-2.017,1.116-3.45,1.45c-1.667,0.3-2.917,0.55-3.75,0.75c-2.5,2.233-4.333,4.017-5.5,5.35
		c0.934-2.333,1.667-3.934,2.2-4.8c-1.4,0.833-3.184,1.733-5.351,2.7c-2.5,1.033-4.383,1.817-5.649,2.35
		c-4.434,2-9.334,4.583-14.7,7.75c-2.7,1.6-7.417,4.517-14.15,8.75c-2,1.2-3.483,2.133-4.45,2.8
		c-1.666,1.167-2.899,2.384-3.699,3.65c-0.301-2.8,0.866-6.05,3.5-9.75c1.467-2.033,3.717-4.95,6.75-8.75
		c-1.667,0.767-3.801,1.45-6.4,2.05c-8.566,4.267-15,7.417-19.3,9.45c-6.133,2.666-10.733,4.717-13.8,6.149
		c-5.367,2.5-9.667,5.051-12.9,7.65c0.567-2.033,1.934-4.467,4.1-7.3c2.7-3.5,4.35-5.834,4.95-7l-1.35,0.75l2.7-3.9l0.35-1.5
		c-2.233,5.267-9.867,9.417-22.9,12.45c-5.1,1.6-9.1,2.85-12,3.75c-5.367,1.633-12.267,2.967-20.7,4
		c4.3-2.066,8.317-4.533,12.05-7.4c3.966-3.033,6.95-5.066,8.95-6.1c1.467-0.8,2.567-1.434,3.3-1.9c-1.4,0.267-3.233,0.334-5.5,0.2
		c-2.934-0.2-4.784-0.283-5.55-0.25c-1.4,0.033-3.55,0.3-6.45,0.8c-2.8,0.5-4.95,0.75-6.45,0.75c-0.066-1.1,2.233-2.25,6.9-3.449
		c2.434-0.601,5.367-1.317,8.8-2.15c1.1-0.434,2.033-0.85,2.8-1.25l-4.45-1.4c1,0.2,2.134,0.25,3.4,0.15
		c1.4-0.033,2.883-0.233,4.45-0.6c3.534-2.067,6.267-4.217,8.2-6.45c-0.833-0.034-2.133,0.1-3.9,0.4c-1.733,0.333-3.067,0.466-4,0.4
		c1.566-1.5,3.667-3.15,6.3-4.95c1.467-1,3.684-2.5,6.65-4.5c-3.033-0.133-6.517,0.55-10.45,2.05c-4.434,2-7.733,3.417-9.9,4.25
		c-2.733,1.1-6,2.716-9.8,4.85c-4.9,2.733-7.883,4.366-8.95,4.899c-6.933,3.434-13.683,4.567-20.25,3.4
		c3.233-0.267,6.333-1.4,9.3-3.4c2-1.333,4.517-3.566,7.55-6.7c-9.767,2.833-17.133,4.733-22.1,5.7c-8.7,1.667-16.2,2.067-22.5,1.2
		c1.9-0.366,4.2-1.566,6.9-3.6c2.466-1.867,4.333-3.65,5.6-5.35c-9.9-1.034-20.316-0.917-31.25,0.35
		C24.75,48.9,13.733,51.167,2,54.5c5.633-4.767,13.883-9.6,24.75-14.5c1.533-0.667,3.667-2.033,6.4-4.1
		c2.7-2.066,4.817-3.45,6.35-4.15c-1.133-0.133-4.017,0.233-8.65,1.1c-3.733,0.7-6.3,0.55-7.7-0.45
		c3.4-1.267,7.883-3.316,13.45-6.15c6.333-3.267,10.75-5.434,13.25-6.5c4.233-1.8,9.6-2.667,16.1-2.6
		c-5.833-2.167-10.184-3.733-13.05-4.7c3.3-0.667,7.917-0.867,13.85-0.6l-1.95-1c5.8-0.1,12.284-0.05,19.45,0.15
		C98.45,11.333,108.95,12.217,115.75,13.65z"/>
	<path style="fill-rule:evenodd;clip-rule:evenodd;fill:#405E14;" d="M263.75,43.15c-2.8,0.867-5.1,1.233-6.9,1.1l2.051,0.55
		c-0.967,1.4-2.467,2.2-4.5,2.4c-2.367,0-4.134,0.1-5.301,0.3c-0.899,0.2-2.3,0.7-4.199,1.5c-1.767,0.733-3.167,1.167-4.2,1.3
		c0.866-0.6,2.066-1.633,3.6-3.1c1.533-1.467,2.75-2.5,3.65-3.1c0.667-0.434,1.6-0.9,2.8-1.4c1.566-0.667,2.55-1.1,2.95-1.3
		c0.6-0.3,2.5-1.433,5.7-3.4c2.333-1.467,4.316-2.467,5.949-3l3.301,0.95c0.833,0.7,2.8,1.033,5.899,1c1.7,0,3.9-0.083,6.601-0.25
		c-0.167-0.067-1.4-0.4-3.7-1c-1.566-0.4-2.601-0.967-3.101-1.7c0.934-0.4,2.784-0.533,5.551-0.4c2.533,0.167,4.217-0.083,5.05-0.75
		c-0.833-0.8-2.101-1.383-3.8-1.75c-2.233-0.467-3.584-0.8-4.051-1c2.733,0,6.233,0.216,10.5,0.65c-2.666-0.633-4.083-0.967-4.25-1
		c-2.3-0.667-3.383-1.267-3.25-1.8c0.101-0.467,0.717-0.7,1.851-0.7c0.6,0.033,1.366,0.1,2.3,0.2
		c1.698,0.063,4.123,0.271,7.275,0.625c-0.73-0.117-1.322-0.375-1.775-0.775c1.267,0,2.65,0.133,4.15,0.4
		c1.733,0.333,3.017,0.767,3.85,1.3c-0.267,0.333-0.783,0.5-1.55,0.5c0.033,1.7-1.934,2.883-5.9,3.55
		c-4.366,0.434-7,0.75-7.899,0.95c0.533,0.033,1.5,0.033,2.899,0c1.233,0,2.117,0.183,2.65,0.55c-0.4,0.567-1.233,0.883-2.5,0.95
		c-1.533,0.1-2.517,0.267-2.95,0.5c1.167,0.167,2.95,0.3,5.35,0.4c0.134,1.1-1.1,1.684-3.699,1.75c-2.9-0.167-4.667-0.25-5.301-0.25
		c0.634,1.567-0.982,2.383-4.85,2.45c-4.333-0.233-6.866-0.35-7.6-0.35c1.433,0.7,2.816,1.117,4.149,1.25
		C269.816,41.383,267.55,42.017,263.75,43.15z"/>
	<g>
		<path style="fill-rule:evenodd;clip-rule:evenodd;fill:#5F821D;" d="M0,49.2c2.867-1.8,7.483-2.917,13.85-3.35
			c9.633-0.6,14.55-0.917,14.75-0.95c11.467-1.9,17.683-2.95,18.65-3.15c7.4-1.667,13.15-3.967,17.25-6.9L67.45,36
			C58.85,42.167,48.033,46.333,35,48.5C23.8,50.367,12.133,50.6,0,49.2z"/>
		<path style="fill-rule:evenodd;clip-rule:evenodd;fill:#5F821D;" d="M136.775,58.625c1.751,0.339,4.893-0.97,9.425-3.925
			c3.6-2.367,6.466-4.55,8.6-6.55c1.5-1.367,3.4-3.417,5.7-6.15c2.2-2.067,4.733-3.15,7.6-3.25c0.1,3.833,1.9,5.1,5.4,3.8
			c2.533-0.933,5.083-2.65,7.65-5.15c-1.267,4.1-3.517,8.467-6.75,13.1c-4.1,5.767-7.716,8.283-10.85,7.55
			c0.034-1.1,0.05-1.95,0.05-2.55c-6.4,6.767-14.717,11.633-24.95,14.6c-9.733,2.834-19.417,3.5-29.05,2
			c2.167-0.899,8.433-2.85,18.8-5.85c7.833-2.3,14.1-4.917,18.8-7.85C143.529,59.293,140.054,59.368,136.775,58.625z"/>
		<path style="fill-rule:evenodd;clip-rule:evenodd;fill:#5F821D;" d="M153.025,69.425c2.753-1.634,9.294-4.926,19.625-9.875
			c7.934-3.8,14.25-7.617,18.95-11.45c5.134-4.2,8.268-6.6,9.4-7.2c3.667-1.933,4.783-0.133,3.35,5.4
			c-1.833,7.033-9.866,13.217-24.1,18.55c-5.6,2.134-11.05,3.584-16.35,4.351c-0.466,0.066-2.367,0.033-5.7-0.101
			C155.378,68.969,153.653,69.077,153.025,69.425z"/>
		<path style="fill-rule:evenodd;clip-rule:evenodd;fill:#5F821D;" d="M234.2,32.25c-1.4,3.4-2.684,6.117-3.851,8.15
			c-1.633,2.833-3.466,5.184-5.5,7.05c-2.899,2.667-8.232,6.066-16,10.2c-7.232,3.833-12.399,7.416-15.5,10.75l10.301-13.15
			c4.1-5.233,8.05-9.083,11.85-11.55c0.267-0.167,3.6-1.8,10-4.9C229.833,36.733,232.733,34.55,234.2,32.25z"/>
		<path style="fill-rule:evenodd;clip-rule:evenodd;fill:#5F821D;" d="M246.5,42.8c3.566-0.9,7.634-3.183,12.2-6.85
			c5.5-4.367,9.316-7.067,11.45-8.1l-4.15,2.8c0.434,4.567-1.667,7.783-6.3,9.65C257.6,41.167,253.2,42,246.5,42.8z"/>
		<path style="fill-rule:evenodd;clip-rule:evenodd;fill:#5F821D;" d="M123.75,13c-2.733-0.533-4.483-0.9-5.25-1.1
			c-1.833-0.533-3.333-1.283-4.5-2.25c4.667-2.2,12.45-2.983,23.35-2.35c6.933-1,14.05-1.483,21.35-1.45
			c1.6,0.033,3.95-0.067,7.05-0.3c1.733-0.133,4.533-0.333,8.4-0.6c-2.7-0.134-4.816-0.45-6.35-0.95
			c-2.033-0.6-3.483-1.567-4.35-2.9L161.5,0c0.067,0,4.733,0.183,14,0.55c5.633,0.2,10.283,0.517,13.95,0.95
			c0.633,0.066,5.2,0.833,13.7,2.3c5.666,1,10.233,1.417,13.699,1.25c-1.001-1.388-1.784-2.338-2.35-2.85
			c4.478,3.806,12.128,6.506,22.95,8.1c7.767,1.133,16.1,1.617,25,1.45c0-0.1,0.033-0.434,0.1-1c0.033-0.3,0.117-0.617,0.25-0.95
			c2.767,1.567,7.367,3.983,13.8,7.25c5.7,3.034,9.934,5.85,12.7,8.45c-2.233-0.5-4.75-1.3-7.55-2.4
			c-1.667-0.633-4.184-1.684-7.55-3.15c0.533,0.966,0.917,1.983,1.149,3.05c-0.399-0.067-1-0.083-1.8-0.05
			c-0.866,0-1.483-0.017-1.85-0.05c2.066,1.133,3.383,1.85,3.95,2.15c1.3,0.594,2.55,1.01,3.75,1.25
			c-8.604-1.425-16.338-1.309-23.2,0.35c-4.533,1.1-10.9,3.7-19.101,7.8c0.934-1.233,1-2.7,0.2-4.4c-0.7-1.566-1.533-2.367-2.5-2.4
			c-8.2,1.067-14.95,2.417-20.25,4.05c-6.767,2.1-13.383,5.25-19.85,9.45c1.366-1.566,3.883-3.617,7.55-6.15
			c3.167-2.167,6-3.917,8.5-5.25c-7.094,1.111-14.494,1.353-22.2,0.725c2.296,0.112,4.913-0.363,7.851-1.425
			c2.267-0.833,5.066-2.167,8.399-4c-11.333,3.567-20.399,4.467-27.2,2.7c5.2-0.9,8.784-2.617,10.75-5.15
			c-8.666,0.966-17.2,2.816-25.6,5.55c-9.019,2.936-16.019,6.361-21,10.275c0.707-0.589,1.557-1.297,2.55-2.125
			c1.534-1.333,2.717-2.583,3.55-3.75c-2.4,1.8-5.833,2.917-10.3,3.35c-1.733,0.133-5.983,0.184-12.75,0.15
			c-13.733,5.733-25.733,9.95-36,12.65c-13.433,3.5-25.8,5-37.1,4.5c8.466-0.267,17.283-1.684,26.45-4.25
			c10.034-2.767,18.167-6.333,24.4-10.7c-2.167,0.433-4.667,0.583-7.5,0.45c-1.8-0.1-4.3-0.367-7.5-0.8
			c1.967-0.733,5.217-1.5,9.75-2.3c4.233-0.767,7.483-1.633,9.75-2.6c6.6-2.8,10-4.233,10.2-4.3c4-1.567,7.517-2.6,10.55-3.1
			c1.467-0.733,3.95-2.05,7.45-3.95c2.967-1.633,5.333-2.85,7.1-3.65c-0.633-0.033-1.083-0.067-1.35-0.1
			c0.467-0.066,1.467-0.367,3-0.9c1.267-0.4,2.283-0.6,3.05-0.6c0.434-0.4,0.983-0.717,1.65-0.95c0.367-0.134,0.917-0.333,1.65-0.6
			c-4.567,0.367-7.567,0.7-9,1c-3.2,0.633-6.867,1.783-11,3.45c-4.667,2.034-8.184,3.517-10.55,4.45l2.2,0.15
			c-0.8,0-2,0.133-3.6,0.4c-5.367,2.133-10.233,3.35-14.6,3.65c-6.733,0.2-11.866,0.366-15.4,0.5C81.967,28.717,77,29.3,73.5,30.2
			c1.267-0.967,3.467-1.867,6.6-2.7c3.066-0.8,5.1-1.617,6.1-2.45c-7.267-0.233-13.45,0.067-18.55,0.9
			c-6.466,1.033-12.466,3.066-18,6.1c5.1-3.6,7.867-5.55,8.3-5.85c3.133-2.3,5.716-4.4,7.75-6.3c-8.667-0.767-18.534,1.4-29.6,6.5
			c2.533-0.167,4.833-0.75,6.9-1.75l5.05-0.7c-2.233,1.566-5.017,2.866-8.35,3.9c-3.434,1.1-6.85,1.733-10.25,1.9L29.2,29.9
			c4.733,0.4,7.617,0.6,8.65,0.6c3.1,0,5.417-0.583,6.95-1.75l-0.1,2c-3.833,1.467-8.284,2.25-13.35,2.35
			c-3.934,0.1-8.5-0.217-13.7-0.95c1.4-1.7,4-2.517,7.8-2.45c-3.367-0.267-6.184-1.083-8.45-2.45c2.233-0.8,5.05-1.167,8.45-1.1
			c1.933,0.067,4.85,0.184,8.75,0.35c6.5-4.067,12.233-6.95,17.2-8.65c2.7-0.967,6.684-1.717,11.95-2.25
			c5.433-0.6,9.383-1.284,11.85-2.05c-2.567-0.367-6.583-0.633-12.05-0.8c-5.4-0.167-9.433-0.45-12.1-0.85
			C60.717,9.267,72.5,8.566,86.4,9.8c3.6,0.333,9.5,1.034,17.7,2.1c7.566,1,13.433,1.65,17.6,1.95L123.75,13z"/>
	</g>
	<path style="fill-rule:evenodd;clip-rule:evenodd;fill:#405E14;" d="M292.2,30.8c-0.066,0.733-0.351,1.55-0.851,2.45
		c-0.267,0.5-0.683,1.25-1.25,2.25c-0.232,0.566-0.399,1.217-0.5,1.95c-0.066,0.4-0.149,1.05-0.25,1.95
		c-0.366,1.9-0.683,3.3-0.949,4.2c-0.267,1-0.967,2.2-2.101,3.6c-1.267,1.566-2.05,2.683-2.35,3.35
		c0.066-1.867,0.649-4.417,1.75-7.65c1.133-3.333,1.75-5.883,1.85-7.65c-0.233,0.367-0.783,1.5-1.649,3.4
		c-0.7,1.633-1.4,2.817-2.101,3.55c-1.566,1.6-3.717,2.833-6.45,3.7c-2.433,0.733-4.899,1.067-7.399,1
		c2.767-0.733,6.033-3.15,9.8-7.25c1.332-1.447,2.391-2.531,3.175-3.25c-0.482-0.083-0.924-0.167-1.325-0.25
		c-1.5-0.3-2.283-0.65-2.35-1.05s0.434-0.667,1.5-0.8c1.367-0.167,2.066-0.25,2.1-0.25l-1.25-0.55c0.967-0.8,2.667-1.4,5.101-1.8
		C288.033,31.467,289.867,31.167,292.2,30.8z"/>
	<path style="fill-rule:evenodd;clip-rule:evenodd;fill:#28390B;" d="M294.65,29.9c-0.233-0.233-0.733-0.533-1.5-0.9
		c-0.667-0.3-1.101-0.6-1.301-0.9c0.167,0.2,0.934,0.367,2.301,0.5c1.433,0.133,2.35,0.417,2.75,0.85
		c-0.233,0.233-0.367,0.383-0.4,0.45c0.566,0.133,1.15,0.417,1.75,0.85c-0.133,0.066-0.75,0.117-1.85,0.15
		c-0.801,0.033-1.267,0.267-1.4,0.7c0.3-0.034,0.816,0.017,1.55,0.15c-0.233,0.967-1.2,1.583-2.899,1.85
		c-1.9,0.167-3.15,0.3-3.75,0.4c-0.4,0.566-0.7,0.983-0.9,1.25c-0.271,0.38-0.421,0.747-0.45,1.1c0.006-0.907,0.039-1.59,0.101-2.05
		c0.066-0.867,0.35-1.55,0.85-2.05L288.8,32c1.567,0.2,2.65-0.117,3.25-0.95c-0.633-0.466-1.7-0.783-3.2-0.95
		c-1.933-0.2-3.1-0.35-3.5-0.45c1.268-0.066,2.817-0.066,4.65,0C291.033,29.683,292.583,29.767,294.65,29.9z"/>
</g>
</svg>
