<?xml version="1.0" encoding="iso-8859-1"?>
<!-- Generator: Adobe Illustrator 15.1.0, SVG Export Plug-In . SVG Version: 6.00 Build 0)  -->
<!DOCTYPE svg PUBLIC "-//W3C//DTD SVG 1.1//EN" "http://www.w3.org/Graphics/SVG/1.1/DTD/svg11.dtd">
<svg version="1.1" id="FlashAICB" xmlns="http://www.w3.org/2000/svg" xmlns:xlink="http://www.w3.org/1999/xlink" x="0px" y="0px"
	 width="150.3px" height="54.9px" viewBox="0 0 150.3 54.9" style="enable-background:new 0 0 150.3 54.9;" xml:space="preserve">
<g>
	<path style="fill-rule:evenodd;clip-rule:evenodd;fill:#203C06;" d="M120.7,16.95c1.399,0.267,2.566,0.7,3.5,1.3
		c3.333,2.267,5.033,3.95,5.1,5.05c-1.267-0.1-2.233-0.183-2.899-0.25c-1.134-0.167-2.051-0.4-2.75-0.7
		c1.933,1.333,3.149,2.2,3.649,2.6c1.601,1.267,2.566,2.367,2.9,3.3c-2.667,0.066-5.017-0.267-7.05-1c-0.268-0.1-0.834-0.4-1.7-0.9
		c-0.7-0.367-1.25-0.583-1.65-0.65c0.566,0.3,1.066,0.783,1.5,1.45c0.267,0.4,0.617,1,1.05,1.8c-1.233-0.767-3.283-1.367-6.149-1.8
		c0.5,0.667,1.366,1.567,2.6,2.7c1.033,1.034,1.634,2.067,1.8,3.101c-1-0.333-2.25-0.934-3.75-1.8c-1.666-1-2.866-1.717-3.6-2.15
		c0.5,1.733,1.233,3.333,2.2,4.8c1.166,1.867,2.433,2.983,3.8,3.351c-2.867,1.1-6.017,0.883-9.45-0.65
		c-2.667-1.2-5.283-3.083-7.85-5.65l-0.4-0.5l-7,2.95c1.2,1,2.316,2.233,3.351,3.7c0.966,1.367,1.6,2.566,1.899,3.6
		c-0.667,0.233-1.35,0.15-2.05-0.25c0.167,0.834,0.517,2.034,1.05,3.601c0.566,1.6,0.934,2.783,1.101,3.55
		c-1-0.5-2.551-1.833-4.65-4c-1.867-1.934-3.467-3.1-4.8-3.5c0.033,0.2,0.333,1.033,0.899,2.5c0.4,1.033,0.483,1.867,0.25,2.5
		c-0.733-0.333-1.699-1.066-2.899-2.2c-1.2-1.1-2.167-1.816-2.9-2.149c0.033,0.699,0.2,1.616,0.5,2.75
		c0.434,1.467,0.684,2.366,0.75,2.699c-0.467,0.101-1.217-0.183-2.25-0.85c-1.1-0.733-1.816-1.217-2.149-1.45
		c0.066,0.8,0.383,1.75,0.949,2.851c0.601,1.066,1.217,1.833,1.851,2.3c-0.834-0.101-1.483-0.417-1.95-0.95
		c0.366,0.634,1.033,1.2,2,1.7c1.467,0.767,2.267,1.2,2.4,1.3c-1.5,0.333-2.667,0.467-3.5,0.4c0.1,0.399,0.267,0.983,0.5,1.75
		c0.166,0.699,0.199,1.283,0.1,1.75c-0.667-0.334-1.6-0.983-2.8-1.95c-1.4-1.134-2.351-1.851-2.851-2.15
		c-1.8-1.133-3-2.616-3.6-4.45c0.633,2.101,0.967,3.45,1,4.051c-0.867-0.733-1.566-1.801-2.1-3.2c-0.533-1.634-0.95-2.867-1.25-3.7
		c-0.033,0.5-0.1,1.25-0.2,2.25c-0.1,0.833-0.367,1.483-0.8,1.95c-3.667-5.167-6.2-8.634-7.6-10.4h-0.7
		c-0.667,0.033-1.35,0.033-2.05,0c0.134,0.733,0.3,1.834,0.5,3.3c0.233,1.233,0.534,2.268,0.9,3.101
		c0.167,0.399,0.517,0.967,1.05,1.7c0.566,0.733,0.917,1.267,1.05,1.6c-0.833-0.333-1.466-0.6-1.9-0.8c-0.733-0.333-1.3-0.667-1.7-1
		c0.133,0.667,0.45,1.366,0.95,2.1c0.3,0.434,0.75,1.084,1.35,1.95c-0.667-0.167-2.017-0.816-4.05-1.95
		c0.933,3.134,1.483,5.167,1.65,6.101c-1.733-0.301-3.883-1.467-6.45-3.5c-3.033-2.367-5.117-3.801-6.25-4.301L48.9,46
		c-1-0.434-1.716-0.717-2.15-0.85l0.45,2.05c-1.733-0.467-3.034-1.4-3.9-2.8c0,0.467,0.15,1.133,0.45,2
		c0.333,0.933,0.5,1.616,0.5,2.05c0.033,0.533-0.083,1.184-0.35,1.95c-0.133,0.433-0.367,1.033-0.7,1.8
		c-0.3-0.7-0.817-1.667-1.55-2.9C40.917,48,40.4,47.033,40.1,46.4c-0.434-1.167-0.8-2.033-1.1-2.601
		c-0.5-1.033-1.083-1.733-1.75-2.1c0.033,0.133,0.184,0.684,0.45,1.649c0.167,0.667,0.283,1.233,0.35,1.7
		c-1.366-0.467-2.65-1.433-3.85-2.899c-1.067-1.4-1.8-2.867-2.2-4.4c-0.1,2.434-0.083,4.417,0.05,5.95
		c0.167,2.033,0.6,3.95,1.3,5.75c-3.233-0.066-5.85-2-7.85-5.8c-1.833-4.667-3.217-7.917-4.15-9.75
		c-1.434-2.867-2.15-4.334-2.15-4.4c-0.567-1.667-0.35-3.183,0.65-4.55c1.167-1.534,2.35-2.717,3.55-3.55c1.333-0.9,2.9-1.5,4.7-1.8
		c1.9-0.3,4.2-0.417,6.9-0.35c1.566,0.067,3.883,0.2,6.95,0.4c1.933-0.466,4.5-0.95,7.7-1.45c4.667-0.733,9.784-1.133,15.35-1.2
		c3.934-0.033,9.083,0.1,15.45,0.4c0.933,0.034,4.2,0.05,9.8,0.05c4.133-0.034,7.467,0.15,10,0.55
		c0.667-0.467,1.217-0.816,1.65-1.05c2-1.3,3.149-2.034,3.449-2.2c1.434-0.767,2.717-1.1,3.851-1l7.75,2.8
		C118.75,16.717,120,16.85,120.7,16.95z"/>
</g>
<g>
	<path style="fill-rule:evenodd;clip-rule:evenodd;fill:#533915;" d="M20.2,3.05c3.267,1.067,7.683,2.8,13.25,5.2
		c0.466,0.133,3.167,1.033,8.1,2.7c3.233,1.066,5.967,1.867,8.2,2.4c1.767,0.433,4.167,0.566,7.2,0.4
		c3.466-0.233,5.85-0.267,7.15-0.1c1.333,0.167,3.2,0.75,5.6,1.75c2.366,0.967,4.233,1.534,5.6,1.7c1.7,0.2,4.333,0.566,7.9,1.1
		c3.166,0.4,5.816,0.517,7.95,0.35c0.666-0.033,2.35-0.583,5.05-1.65c2.333-0.867,3.95-1.167,4.85-0.9
		c-1.267,1.4-3.399,2.567-6.399,3.5c-0.434,0.133-2.834,0.733-7.2,1.8c-3.9,0.934-6.567,1.467-8,1.6
		c-2.834,0.233-5.45-0.15-7.85-1.15c-1.867-0.733-3.284-1.25-4.25-1.55c-1.467-0.434-3.017-0.733-4.65-0.9
		c-2.267-0.267-3.983-0.45-5.15-0.55c-2.033-0.2-3.75-0.25-5.15-0.15c-4.633,0.5-8.083,0.816-10.35,0.95
		c-3.933,0.2-7.433-0.116-10.5-0.95c-2.366-0.633-4.45-0.833-6.25-0.6c-1.2,0.167-3.25,0.783-6.15,1.85
		c-1.767,0.633-3.35,1-4.75,1.1c-1.233,0.1-2.816,0.017-4.75-0.25c-3.966-0.534-6.2-2.983-6.7-7.35
		C2.517,9.117,3.833,5.817,6.9,3.45C9.767,1.217,14.2,1.083,20.2,3.05z"/>
	<g>
		<path style="fill-rule:evenodd;clip-rule:evenodd;fill:#452F0E;" d="M6.9,3.45C7.167,3.217,7.6,2.934,8.2,2.6
			c0,0.333-0.05,0.867-0.15,1.6c-0.066,0.667-0.033,1.15,0.1,1.45C8.684,5.684,10.267,5.7,12.9,5.7c-1.066,0.066-2.066,0.25-3,0.55
			c-1.133,0.4-1.733,0.867-1.8,1.4C8.267,7.684,8.8,7.7,9.7,7.7c0.633,0,1.15,0.05,1.55,0.15c-0.467,0.267-0.8,0.633-1,1.1
			c-0.2,0.466-0.233,0.95-0.1,1.45c0.9-0.033,2.867-1.216,5.9-3.55c2.9-2.233,5-3.233,6.3-3L23.3,4.2l0.3,0.25L34.85,9.2
			c0.066,3.333-0.8,6.517-2.6,9.55l-0.7-0.15c-2.366-0.633-4.45-0.833-6.25-0.6c-1.2,0.167-3.25,0.783-6.15,1.85
			c-1.767,0.633-3.35,1-4.75,1.1c-1.233,0.1-2.816,0.017-4.75-0.25c-3.966-0.534-6.2-2.983-6.7-7.35
			C2.517,9.117,3.833,5.817,6.9,3.45z"/>
	</g>
	<path style="fill-rule:evenodd;clip-rule:evenodd;fill:#372408;" d="M4.9,7.85c-0.233,1.167-0.15,2,0.25,2.5
		C5.684,11.083,6.3,11.2,7,10.7c0.967-0.667,1.667-1,2.1-1c-0.233,0.233-0.467,0.716-0.7,1.45c1.067,0.133,2.1-0.083,3.1-0.65
		c0.167-0.1,1.033-0.717,2.6-1.85c1.1-0.8,2.933-1.617,5.5-2.45l16.6,2.95l4.4,1.45c0,0.066,0.1,0.533,0.3,1.4
		c0.133,0.533,0.184,0.967,0.15,1.3c-0.167,2-1.783,4.034-4.85,6.1c-1.7-0.167-3.25-0.433-4.65-0.8
		c-2.366-0.633-4.45-0.833-6.25-0.6c-1.2,0.167-3.25,0.783-6.15,1.85c-1.767,0.633-3.35,1-4.75,1.1
		c-1.233,0.1-2.816,0.017-4.75-0.25C6.15,20.233,4,18.167,3.2,14.5c-0.767-3.467-0.083-6.583,2.05-9.35
		C5.283,5.417,5.167,6.317,4.9,7.85z"/>
	<path style="fill-rule:evenodd;clip-rule:evenodd;fill:#4A3310;" d="M111,22.65c-0.1-1.133,0.233-2.033,1-2.7
		c0.566-0.467,1.45-0.867,2.65-1.2c1.133,0.267,2.316,0.233,3.55-0.1c1-0.267,1.933-0.75,2.8-1.45l2.85-0.7
		c3.101-0.3,6.417,1.133,9.95,4.3c0.733,0.7,2.217,1.667,4.45,2.9c1.967,1.1,3.333,2.117,4.1,3.05c-0.933-0.4-2.033-0.767-3.3-1.1
		c-1.467-0.333-2.6-0.617-3.399-0.85c-0.634-0.2-1.483-0.35-2.551-0.45c-1.267-0.133-2.116-0.25-2.55-0.35
		c-0.399-0.1-1.1-0.383-2.1-0.85c-0.9-0.4-1.617-0.633-2.15-0.7c-1.733-0.233-3.667-0.184-5.8,0.15
		c-1.333,0.233-3.217,0.683-5.65,1.35c-1.399,0.4-2.25,0.583-2.55,0.55C111.533,24.467,111.1,23.85,111,22.65z"/>
	<path style="fill-rule:evenodd;clip-rule:evenodd;fill:#694A21;" d="M14.45,1.4c2.433,0.2,4.4,0.717,5.9,1.55L21.1,3.2
		c-0.567-0.1-1.35-0.05-2.35,0.15c-1.066,0.233-1.85,0.333-2.35,0.3c0-0.667-0.267-1-0.8-1l-1.45,0.3
		c-1.767,0.367-3.05,0.667-3.85,0.9C10,1.917,11.383,1.1,14.45,1.4z"/>
	<path style="fill-rule:evenodd;clip-rule:evenodd;fill:#372408;" d="M2.4,9.2c0,0.233-0.15,1.316-0.45,3.25
		c-0.2,1.233-0.15,2.3,0.15,3.2c0.5,1.6,1.267,2.45,2.3,2.55c0.6,0.033,1-0.017,1.2-0.15c0.267-0.167,0.35-0.533,0.25-1.1l4.25,1.5
		c0.833,1.566,1.083,3.45,0.75,5.65c-0.333,2.333-1.217,3.966-2.65,4.9c-0.867,0.566-1.75,0.8-2.65,0.7
		c-0.9-0.134-1.7-0.55-2.4-1.25c-0.833-0.833-1.1-1.967-0.8-3.4c0.333-1.8,0.417-3.017,0.25-3.65c-0.067-0.233-0.317-0.633-0.75-1.2
		c-0.434-0.534-0.684-1.034-0.75-1.5c-0.067-0.333-0.067-0.867,0-1.6c0.066-0.733,0.066-1.267,0-1.6c-0.067-0.267-0.2-0.65-0.4-1.15
		c-0.2-0.367-0.3-0.767-0.3-1.2c0-0.667,0.25-1.367,0.75-2.1C1.95,9.883,2.367,9.267,2.4,9.2z"/>
	<path style="fill-rule:evenodd;clip-rule:evenodd;fill:#452F0E;" d="M113.35,20.15c0.233-1.333,1.5-2.3,3.801-2.9
		c1.6-0.4,3.449-0.6,5.55-0.6c0.3,0.1,0.767,0.184,1.399,0.25l8.5,2.55c-0.233,2.066,0.834,3.633,3.2,4.7
		c1.3,0.567,3.267,1.317,5.9,2.25c-1.233,0.067-2.8-0.233-4.7-0.9c-2.867-1.033-4.4-1.583-4.6-1.65
		c-2.967-0.7-5.567-1.167-7.801-1.4c-1-0.133-2.416-0.067-4.25,0.2c-1.899,0.3-3.3,0.417-4.199,0.35
		c-1.034-0.1-1.75-0.283-2.15-0.55C113.4,22.017,113.184,21.25,113.35,20.15z"/>
	<path style="fill-rule:evenodd;clip-rule:evenodd;fill:#372408;" d="M114.9,18.9c1.267-1.466,3.533-2.267,6.8-2.4
		c1.833-0.066,4.383,0,7.649,0.2l1,1.75c-0.033,0.8,0.117,1.617,0.45,2.45c0.2,0.467,0.533,1.217,1,2.25
		c-0.633-0.167-1.517-0.65-2.649-1.45c-1.101-0.767-2.034-1.2-2.801-1.3c-4.233-0.5-5.899,0.067-5,1.7
		c-1.533,0.467-2.916,0.75-4.149,0.85c-0.867,0.033-1.384,0.05-1.55,0.05c-0.601-0.033-1.034-0.217-1.301-0.55
		c-0.433-0.5-0.533-1.133-0.3-1.9C114.184,19.983,114.467,19.434,114.9,18.9z"/>
	<path style="fill-rule:evenodd;clip-rule:evenodd;fill:#694A21;" d="M140.85,25.45c-1.699-0.667-3.1-1.267-4.199-1.8
		c-2.034-0.933-3.217-1.733-3.551-2.4c0.801-0.233,2.017,0.117,3.65,1.05c1.233,0.7,2.35,1.5,3.35,2.4L140.85,25.45z"/>
	<path style="fill-rule:evenodd;clip-rule:evenodd;fill:#372408;" d="M16.5,20.85c0.434,0.267,1.566,0.75,3.4,1.45
		c1.434,0.567,2.383,1.15,2.85,1.75c0.367,0.467,0.533,1.217,0.5,2.25c0,0.567-0.05,1.367-0.15,2.4c0,0.733,0.017,1.684,0.05,2.85
		c-0.1,0.9-0.433,1.7-1,2.4c-0.367,0.434-0.867,0.733-1.5,0.899c-0.5,0.167-0.917,0.617-1.25,1.351c-0.1,0.233-0.133,0.667-0.1,1.3
		c0,0.6-0.066,1.017-0.2,1.25c-0.067,0.2-0.333,0.4-0.8,0.6c-0.466,0.167-0.767,0.384-0.9,0.65c-0.2,0.467-0.233,1.283-0.1,2.45
		c0.1,1.2,0.034,2.05-0.2,2.55l-0.7-0.55c0.133,4.066,0.133,7.45,0,10.149c-1.5-0.933-2.65-1.649-3.45-2.149
		c-1.4-0.9-2.35-1.833-2.85-2.8C9.633,48.85,9.434,47.333,9.5,45.1c0.033-2.066-0.316-3.533-1.05-4.399
		c-0.2,0.533-0.483,1.399-0.85,2.6c-0.3,1.167-0.583,2.033-0.85,2.601c-0.4-0.634-0.733-1.733-1-3.301
		c0-0.133,0.066-1.033,0.2-2.699C6.083,38.6,5.967,37.75,5.6,37.35c-0.4-0.466-0.733-0.6-1-0.399c-0.4,0.267-0.75,0.366-1.05,0.3
		C2.417,37.217,1.7,37.167,1.4,37.1c-0.433-0.066-0.833-0.566-1.2-1.5C0.066,35.267,0,34.783,0,34.15C0.066,33.483,0.1,33,0.1,32.7
		c0-5.4,1.333-8.967,4-10.7l6.6-1.15H16.5z"/>
</g>
<g>
	<g>
		<path style="fill-rule:evenodd;clip-rule:evenodd;fill:#4C6D1A;" d="M140.1,9.05c-1.199,0.434-2.05,0.767-2.55,1
			c2.3,0.067,3.867,0.267,4.7,0.6c1.033,0.434,2.25,1.434,3.65,3c0.566,0.6,1.449,1.55,2.649,2.85c1,1.2,1.583,2.333,1.75,3.4
			c-2.233-0.5-4.667-1.233-7.3-2.2c-2.533-0.967-4.833-2.017-6.9-3.15c4.101,3.267,7.051,5.767,8.851,7.5
			c-2.101,0.233-5.233-0.45-9.4-2.05c-4.066-1.566-7.233-2.15-9.5-1.75c1.5,1.934,3.167,3.684,5,5.25
			c2.233,1.9,4.283,3.133,6.15,3.7c-4.033,1-8.434,1.149-13.2,0.45l2.05,2.3c0.434,0.533,1.634,2.483,3.601,5.85
			c5.232,8.067,7.816,12.184,7.75,12.351c-1.534-1.334-3.983-2.884-7.351-4.65c-3.366-1.767-5.8-3.283-7.3-4.55
			c0.267,1.233,0.833,3,1.7,5.3c0.633,2.1,0.783,3.917,0.45,5.45c-1.134-1.2-2.684-3.184-4.65-5.95
			c-2.134-3.033-3.684-5.116-4.65-6.25c-0.533-0.633-1-1.116-1.399-1.45c0.5,1.733,0.633,3.217,0.399,4.45
			c-1-0.633-2.333-1.434-4-2.4C108.1,36.7,106.7,35.9,106.4,35.7c0.133,1.2,0.149,2.967,0.05,5.3c-0.067,2.434-0.05,4.267,0.05,5.5
			c-3.4-2.233-6.75-5.866-10.05-10.9l0.05,1.051c0,0.399,0.116,1.75,0.35,4.05c0.2,1.733,0.217,3.066,0.051,4
			c-3.2-1.267-6.417-3.884-9.65-7.851c-2.833-3.5-5-7.1-6.5-10.8c1.667,4.634,2.583,8.634,2.75,12c0.2,4.2-0.634,8.15-2.5,11.851
			c-1.566-1.533-3.667-4.417-6.3-8.65c-2.467-4.033-4.634-6.866-6.5-8.5c0.466,1.967,0.966,4.417,1.5,7.35l1.35,7.351
			c0.3,1.566,0.7,2.816,1.2,3.75c-2.9-2-5.066-3.517-6.5-4.55c-2.533-1.834-4.617-3.517-6.25-5.051
			c-1.233-1.166-2.617-2.949-4.15-5.35c-1.7-2.667-3-4.483-3.9-5.45c0.233,0.8,1.167,3.567,2.8,8.3c1.267,4.4,1.217,6.75-0.15,7.051
			c-1.067,0.233-2.534-0.834-4.4-3.2c-1.867-2.733-3.067-4.4-3.6-5c-0.5-0.566-1.817-1.934-3.95-4.101
			c-1.633-1.666-2.867-3.083-3.7-4.25c-0.067,0.634-0.15,1.684-0.25,3.15c-0.134,1.267-0.483,2.184-1.05,2.75
			c-1.433-1.366-2.767-3.066-4-5.1c-0.367-0.601-1.383-2.467-3.05-5.601v0.05c-0.067,0.6-0.25,1.733-0.55,3.4
			c-0.267,1.434-0.417,2.533-0.45,3.3c-0.067,1.367,0.133,3.134,0.6,5.3c0.533,2.434,0.833,4.134,0.9,5.101
			c-0.934-0.8-1.833-2.2-2.7-4.2c-0.867-2.033-1.667-3.383-2.4-4.05c0.167,1.033,0.4,2.633,0.7,4.8c0.333,1.867,0.733,3.434,1.2,4.7
			c0.2,0.533,0.75,1.6,1.65,3.2c0.733,1.267,1.184,2.35,1.35,3.25c-2.933-2.067-5.233-4.533-6.9-7.4c-1.6-2.733-2.733-5.967-3.4-9.7
			l-0.55-3.25c-1.966,3.067-3.667,4.717-5.1,4.95c-1.233-1.5-1.417-3.95-0.55-7.35c-0.8,0.167-1.583,0.167-2.35,0
			c0.767-0.867,1.267-1.483,1.5-1.85c0.367-0.633,0.467-1.417,0.3-2.35c-0.4-2-1.2-3.083-2.4-3.25c2,0,3.183-0.017,3.55-0.05
			c-0.1-0.133-0.8-0.7-2.1-1.7c0.667-0.034,1.7-0.067,3.1-0.1c-0.267-0.6-0.75-1-1.45-1.2c0.833-0.267,1.517-0.433,2.05-0.5
			c-0.434-0.6-1.25-0.966-2.45-1.1c-1.367,0-2.316-0.033-2.85-0.1c1.4-0.167,2.95-0.617,4.65-1.35c2.033-0.934,3.233-1.9,3.6-2.9
			c-1.767,0.033-3.083,0.017-3.95-0.05c2.767-1.333,5.3-2.517,7.6-3.55c-0.333-0.233-0.667-0.367-1-0.4l3.6-0.05
			c-0.8-0.966-1.316-1.667-1.55-2.1c2,0.367,4.117,0.317,6.35-0.15c2.367-1.633,4.417-2.45,6.15-2.45
			c1.633,0.033,3.783,0.466,6.45,1.3c1.233,0.4,3.316,1.15,6.25,2.25c1.4,0.533,3.683,1.533,6.85,3c2.9,1.2,5.284,1.783,7.15,1.75
			c1.233,0,3.2-0.417,5.9-1.25c2.533-0.767,4.533-1.117,6-1.05c4.533,0.233,8.083,0.517,10.65,0.85c3.866,0.5,7.35,1.284,10.45,2.35
			c4.866,1.7,9.399,2.583,13.6,2.65c4.434,0.034,8.967-0.816,13.601-2.55c3.366-1.3,6.199-2.066,8.5-2.3c1.1-0.1,2.933-0.434,5.5-1
			c2.366-0.367,4.199-0.267,5.5,0.3C142.05,8.3,141.2,8.65,140.1,9.05z"/>
	</g>
	<path style="fill-rule:evenodd;clip-rule:evenodd;fill:#5F821D;" d="M123.6,11.05c-2.967,1.1-5.033,1.833-6.199,2.2
		c0.899,0.533,2.517,0.934,4.85,1.2c2.434,0.3,4.167,0.7,5.2,1.2c-0.8-0.066-2.783-0.417-5.95-1.05c-2.5-0.5-4.5-0.667-6-0.5
		c0.533,0.5,2.5,1.6,5.9,3.3c2.8,1.367,4.433,2.7,4.899,4c-2.7,0.1-6.033-0.816-10-2.75c-4.899-2.433-8.1-3.833-9.6-4.2
		c-5.5-1.4-10.134-2.017-13.9-1.85c0.566,0.533,1.333,1.066,2.3,1.6c-1.133-0.067-3.149-0.684-6.05-1.85
		c-2.533-1.033-4.55-1.434-6.05-1.2c0.033,0.034,0.184,0.233,0.45,0.6c0.166,0.233,0.366,0.417,0.6,0.55
		c-1.066,0.1-2.583-0.133-4.55-0.7c-2.167-0.667-3.7-1.017-4.6-1.05c1.333,1.1,3.6,2.5,6.8,4.2c3.066,1.667,5.3,3.117,6.7,4.35
		c-2.067-0.567-5.367-1.717-9.9-3.45c-1.566-0.7-2.767-1.216-3.6-1.55c-1.5-0.667-2.7-1.033-3.6-1.1c2.4,3.267,3.851,6.3,4.351,9.1
		c-0.034-0.033-1.417-1.233-4.15-3.6c-1.7-1.467-3.233-2.433-4.6-2.9c-0.966-0.3-2.183-0.5-3.65-0.6c-1.767-0.133-3-0.267-3.7-0.4
		c-2.066-0.467-4.083-1.283-6.05-2.45c-2-1.167-3.7-2.55-5.1-4.15c0.7,1.367,1.217,2.934,1.55,4.7c-0.9-0.4-1.733-1.25-2.5-2.55
		c-0.833-1.5-1.583-2.466-2.25-2.9c-0.733-0.5-1.717-0.95-2.95-1.35c-1.367-0.4-2.4-0.733-3.1-1c-1.5-0.533-3.233-0.683-5.2-0.45
		c-2.267,0.466-4,0.783-5.2,0.95c0.533-0.3,1.717-1.183,3.55-2.65c1.434-1.133,2.684-1.9,3.75-2.3c1.634-0.6,3.1-0.6,4.4,0
		c0.4,0.167,1.616,1.017,3.65,2.55c1.033,0.8,2.733,1.45,5.1,1.95c2.633,0.566,4.417,1.1,5.35,1.6c2.1,1.1,3.8,1.817,5.1,2.15
		c1.733,0.433,3.55,0.466,5.45,0.1c0.633-0.1,2.383-0.6,5.25-1.5c2.167-0.7,3.966-1.017,5.4-0.95c4.633,0.167,9.883,0.733,15.75,1.7
		c2.8,0.5,7.983,1.517,15.55,3.05c5.134,1.033,10.316,0.683,15.55-1.05c4.4-1.5,7.817-2.533,10.25-3.1
		c1.033-0.233,2.45-0.267,4.25-0.1c1.967,0.167,3.351,0.2,4.15,0.1c-0.767,0.566-2.167,0.983-4.2,1.25c-2,0.267-3.366,0.667-4.1,1.2
		c0.666-0.233,1.467-0.083,2.399,0.45c0.533,0.3,1.267,0.8,2.2,1.5c-0.399-0.067-1.083-0.1-2.05-0.1
		c-0.9,0.033-1.583-0.017-2.05-0.15c-0.3-0.067-0.867-0.283-1.7-0.65c-0.7-0.333-1.283-0.517-1.75-0.55
		C128.434,9.833,126.3,10.217,123.6,11.05z"/>
	<path style="fill-rule:evenodd;clip-rule:evenodd;fill:#5F821D;" d="M115.1,23.5c3.7,0.733,6.65,1.717,8.851,2.95
		c2.633,1.466,4.85,3.566,6.649,6.3c1,1.533,2.084,3.8,3.25,6.8c1.267,3.233,2.283,5.5,3.051,6.8
		C135.8,45.217,134.033,43,131.6,39.7c-2.133-2.967-4-5.134-5.6-6.5c-2.467-1.667-4.267-2.917-5.4-3.75
		c-1.967-1.434-3.35-3.167-4.149-5.2L115.1,23.5z"/>
	<path style="fill-rule:evenodd;clip-rule:evenodd;fill:#5F821D;" d="M107.3,23.9c3.566-0.966,7.583,1.717,12.05,8.05
		c3.9,5.566,6.167,10.399,6.801,14.5c-1.467-1.134-3.167-3.101-5.101-5.9c-2.3-3.366-3.883-5.517-4.75-6.45
		c-0.566-0.633-2.149-1.866-4.75-3.699c-2.1-1.5-3.5-2.884-4.2-4.15L107.3,23.9z"/>
	<path style="fill-rule:evenodd;clip-rule:evenodd;fill:#5F821D;" d="M105.85,36.6c0.567,0.9,1.117,1.684,1.65,2.351
		c0.533,0.633,1.283,1.217,2.25,1.75c1.267,0.7,2.05,1.167,2.35,1.399c-2.8,0.233-5.166,0.034-7.1-0.6c0.167,0.2,1.267,1,3.3,2.4
		c1.467,1,2.25,2.017,2.351,3.05c-1.733,0.2-3.75-0.4-6.051-1.8c-2-1.2-3.666-2.601-5-4.2c-2.5-3.167-4.416-5.517-5.75-7.05
		c-1.866-2.101-4.366-4.117-7.5-6.05c-0.967-0.5-1.683-0.883-2.149-1.15c-0.867-0.5-1.517-0.983-1.95-1.45
		c2.566-0.467,6.6,0.033,12.1,1.5c4.067,1.033,7.384,3.517,9.95,7.45C104.366,34.3,104.883,35.1,105.85,36.6z"/>
	<path style="fill-rule:evenodd;clip-rule:evenodd;fill:#5F821D;" d="M59.45,22.2c1.633,1.133,3.85,2.966,6.65,5.5
		c1.167,1.033,2.816,2.783,4.95,5.25c1.415,1.485,2.815,2.569,4.2,3.25c0.274,2.085,1.592,4.602,3.95,7.55
		c2.533,3.2,3.866,5.833,4,7.9c-1.667-1.301-2.851-2.551-3.55-3.75c-0.7-1.134-1.5-2.2-2.4-3.2c-0.066-0.101-1-1.066-2.8-2.9
		c-3.167-3.233-7.034-7.033-11.6-11.399c-2.733-2.367-4.767-4.2-6.1-5.5c-2.367-2.267-4.033-4.4-5-6.4
		C54.184,19.067,56.75,20.3,59.45,22.2z M75.25,36.2c-0.024-0.15-0.041-0.301-0.05-0.45c0.733,0.2,1.316,0.566,1.75,1.1
		C76.385,36.704,75.817,36.487,75.25,36.2z"/>
	<path style="fill-rule:evenodd;clip-rule:evenodd;fill:#5F821D;" d="M44.5,24.1c0.233-1.533,0.667-2.383,1.3-2.55
		c0.6-0.167,1.6,0.217,3,1.15c2.634,1.8,5.15,4.35,7.55,7.649c0.5,0.7,1.2,1.801,2.1,3.301c0.866,1.467,1.55,2.55,2.05,3.25
		c0.767,1.066,1.883,2.383,3.35,3.949c1.8,1.9,2.966,3.167,3.5,3.801c2.733,3.267,5.066,5.383,7,6.35c-3.434-1.434-6.2-2.7-8.3-3.8
		c-3-1.566-5.533-3.2-7.6-4.9c-2.1-1.767-4.217-4.5-6.35-8.2c-0.4-0.666-1.167-1.666-2.3-3c-1.066-1.199-1.8-2.216-2.2-3.05
		c0.066,0.4,0.133,1,0.2,1.8c-1.066-0.466-2.9-1.732-5.5-3.8c-2.333-1.8-4.2-2.9-5.6-3.3c1-0.133,2.316,0.05,3.95,0.55
		C42.45,23.833,43.733,24.1,44.5,24.1z"/>
	<path style="fill-rule:evenodd;clip-rule:evenodd;fill:#5F821D;" d="M31.1,35.25c0.667,3.566,1.167,5.434,1.5,5.6
		c-2.4-1.232-4.517-3.199-6.35-5.899c-2.167-3.233-2.033-5.566,0.4-7c1-0.567,1.883-0.817,2.65-0.75
		c0.9,0.133,1.483,0.683,1.75,1.649c0.2,0.667,0.233,1.717,0.1,3.15C31.017,33.566,31,34.65,31.1,35.25z"/>
	<path style="fill-rule:evenodd;clip-rule:evenodd;fill:#5F821D;" d="M16.4,31.1c0.3-1.232,0.967-2.433,2-3.6
		c1.367-1.233,2.383-2.2,3.05-2.9c-0.333,2.3-0.8,4.45-1.4,6.45c-0.866,2.867-1.833,4.717-2.9,5.55
		C16.083,35.533,15.833,33.7,16.4,31.1z"/>
	<path style="fill-rule:evenodd;clip-rule:evenodd;fill:#405E14;" d="M16.15,9.45c3.8-0.067,6.333,0.066,7.6,0.4
		c-1.267,0-3.017,0.816-5.25,2.45c-1.568,1.121-2.993,1.754-4.275,1.9c1.663,0.034,3.488,0.117,5.475,0.25
		c-0.3,0.267-0.817,0.466-1.55,0.6c-0.933,0.167-1.533,0.317-1.8,0.45c0.466,0.4,1.2,0.633,2.2,0.7
		c0.567,0.033,1.384,0.05,2.45,0.05c-0.7,0.2-1.684,0.283-2.95,0.25c-1.8-0.033-2.8-0.05-3-0.05c-0.133,1.066,1.934,2.117,6.2,3.15
		c2.2,0.533,4.767,1.117,7.7,1.75c-0.367,0-2.05-0.083-5.05-0.25c-2.5-0.167-4.15-0.2-4.95-0.1c0.366,0.467,1.083,0.967,2.15,1.5
		c1.1,0.567,1.833,1.067,2.2,1.5c-0.767,0.467-2.883,0.583-6.35,0.35c0.066,0.566-0.05,1.066-0.35,1.5
		c-0.333,0.467-0.467,0.967-0.4,1.5c-0.5-0.267-1.083-0.633-1.75-1.1c-0.167,0.934,0.366,2.05,1.6,3.35
		c-1.3-0.732-2.233-1.267-2.8-1.6c-0.967-0.533-2.017-0.833-3.15-0.9c0.733-0.934,1.267-1.633,1.6-2.1c0.6-0.767,0.8-1.617,0.6-2.55
		c-0.167-0.733-0.667-1.4-1.5-2c-1.066-0.833-1.716-1.417-1.95-1.75c0.433-0.2,0.983-0.3,1.65-0.3c0.4,0,0.983,0,1.75,0
		c-0.566-0.333-1.033-0.566-1.4-0.7L14,17.65c-0.033-0.3-0.267-0.55-0.7-0.75c-0.466-0.2-0.8-0.35-1-0.45
		c1.367,0.1,2.6-0.15,3.7-0.75c-0.467-0.267-1.417-0.517-2.85-0.75c-1.333-0.233-2.4-0.35-3.2-0.35c0.9-0.3,2.6-0.733,5.1-1.3
		c2.134-0.767,3.35-1.966,3.65-3.6c-0.434-0.034-1,0.017-1.7,0.15c-0.934,0.167-1.5,0.267-1.7,0.3
		C15.315,9.964,15.599,9.73,16.15,9.45z M18.425,8.525C18.635,8.455,18.86,8.38,19.1,8.3c2.2-0.7,2.85-1.466,1.95-2.3
		c0.134,0,0.667,0,1.6,0c0.667,0.033,1.184-0.033,1.55-0.2c-0.3-0.233-0.4-0.483-0.3-0.75c0.042-0.073,0.076-0.132,0.1-0.175
		c0.422,0.3,1.072,0.592,1.95,0.875c1.133,0.4,1.9,0.733,2.3,1c-0.8,0.067-1.833,0.05-3.1-0.05c-0.825-0.073-1.5-0.124-2.025-0.15
		c0.337,0.059,0.645,0.175,0.925,0.35c-0.833,0.133-1.383,0.217-1.65,0.25c0.367,0.034,0.883,0.15,1.55,0.35
		c-0.333,0.1-1.667,0.333-4,0.7C19.391,8.299,18.883,8.407,18.425,8.525z M24,4.875c-0.073-0.062-0.14-0.12-0.2-0.175h0.25
		C24.073,4.7,24.056,4.758,24,4.875z"/>
	<path style="fill-rule:evenodd;clip-rule:evenodd;fill:#324312;" d="M11.5,17c0.533,0.133,1.217,0.55,2.05,1.25
		c1.767,1.033,3.384,1.684,4.85,1.95c-2.933,0.033-5.133,0.017-6.6-0.05c0.5,0.2,1.583,0.517,3.25,0.95
		c1.434,0.467,2.25,0.983,2.45,1.55c-1.867-0.033-3.267-0.017-4.2,0.05c0.1,0.333,0.384,0.783,0.85,1.35
		c0.467,0.534,0.75,0.983,0.85,1.35c-1,0.667-1.8,0.6-2.4-0.2c0,0.1,0,0.3,0,0.6c-0.034,0.267-0.017,0.483,0.05,0.65
		c-0.466,0.133-1.066,0.233-1.8,0.3c-1.1,0.1-1.684,0.15-1.75,0.15c0.767-0.966,1.3-1.7,1.6-2.2c0.5-0.867,0.533-1.7,0.1-2.5
		c-0.167-0.267-0.783-0.833-1.85-1.7c-0.8-0.633-1.184-1.4-1.15-2.3c0.233,0.033,0.567,0.033,1,0c0.467-0.034,0.784-0.05,0.95-0.05
		c-0.3-0.6-0.533-0.966-0.7-1.1c0.1,0.067,0.483,0.067,1.15,0C10.9,16.983,11.333,16.967,11.5,17z"/>
</g>
</svg>
