<?xml version="1.0" encoding="iso-8859-1"?>
<!-- Generator: Adobe Illustrator 15.1.0, SVG Export Plug-In . SVG Version: 6.00 Build 0)  -->
<!DOCTYPE svg PUBLIC "-//W3C//DTD SVG 1.1//EN" "http://www.w3.org/Graphics/SVG/1.1/DTD/svg11.dtd">
<svg version="1.1" id="FlashAICB" xmlns="http://www.w3.org/2000/svg" xmlns:xlink="http://www.w3.org/1999/xlink" x="0px" y="0px"
	 width="332.15px" height="93.15px" viewBox="0 0 332.15 93.15" style="enable-background:new 0 0 332.15 93.15;"
	 xml:space="preserve">
<g>
	<path style="fill-rule:evenodd;clip-rule:evenodd;fill:#28390B;" d="M53.85,55.3l2.6-2.3c0.133-1.267,0.2-2.167,0.2-2.7l-0.15-0.05
		C56.067,51.75,55.183,53.434,53.85,55.3z M99.4,14.85c1.7,0.333,3.434,0.316,5.2-0.05c16.5-3.566,36.167-5.55,59-5.95
		c13.2-0.233,33-0.117,59.4,0.35l1.35-0.1l2.75,0.2l7.551,1.75c5.533,1.333,11.05,2.983,16.55,4.95
		c-0.634,2.267-1.384,4.566-2.25,6.9c-1.4,4.133-2.917,7.633-4.55,10.5c0.199,3.6-0.567,7.35-2.301,11.25
		c-1.433,3.267-3.216,6.034-5.35,8.3c-1.467-3.533-2.1-6.85-1.9-9.95c-2.333-0.1-5.116,0.7-8.35,2.4
		c-4.333,2.333-6.9,3.617-7.7,3.85c-0.3,0.1-1.3,0.267-3,0.5c-1.133,0.134-2.05,0.483-2.75,1.05c-1.3,1.101-2.416,2.533-3.35,4.3
		c-1.066,1.967-1.601,3.851-1.601,5.65c-0.133-0.434-0.517-1.684-1.149-3.75c-0.5-1.566-0.834-2.816-1-3.75
		c-0.167-1.066-0.25-2.017-0.25-2.85c-1,0.466-1.9,0.85-2.7,1.149l-2.85,1.2c-1.967,1.967-4.051,3.55-6.25,4.75
		c-1.934,1.066-3.967,2.45-6.101,4.15c-1.267,1-3.133,2.55-5.6,4.649c-1.267-1.7-2.066-3.8-2.4-6.3
		c-0.133-1.1-0.184-3.15-0.149-6.15c-0.334,2.733-2.067,5.434-5.2,8.101c-3.566,3.033-5.7,5.383-6.4,7.05
		c-0.333-0.8-0.649-1.934-0.95-3.4c-0.3-1.533-0.6-2.649-0.899-3.35c-2.067,2.8-3.85,4.9-5.35,6.3
		c-2.467,2.267-4.95,3.55-7.45,3.851c0.367-1.067,0.6-2.467,0.7-4.2c0.066-1.7-0.017-3.283-0.25-4.75l-10.25,0.7l0.05-0.7
		c-3.4-0.533-5.267-1.917-5.6-4.15c-0.7,0.2-0.9,1.517-0.6,3.95c0.167,1.3,0.45,2.917,0.85,4.85
		c0.767,5.934,1.65,10.634,2.65,14.101c-1.767-1.566-3.917-4.55-6.45-8.95c-2.4-4.167-4.7-7.116-6.9-8.85
		c-3.1-2.434-6.583-4.517-10.45-6.25c-1.6,0.6-3.117,1.216-4.55,1.85l-0.5,0.25c0.367,1.9,1.1,4.85,2.2,8.85
		c1.1,3.967,1.817,6.867,2.15,8.7c0.167,0.8,0.6,2.566,1.3,5.3c0.533,2.467,0.517,4-0.05,4.601c-4.6-4.367-8.617-10.934-12.05-19.7
		c0.434,3.1,0.167,6.233-0.8,9.4c-1.067,3.466-2.65,5.75-4.75,6.85c0.3-0.634,0.367-1.417,0.2-2.35c-0.066-0.434-0.3-1.334-0.7-2.7
		c-0.9-3.2-2.25-6.8-4.05-10.8c-0.933-2.034-2.667-5.567-5.2-10.601c0.267,3.101,0.633,7.95,1.1,14.55
		c0.566,5.767,1.5,10.717,2.8,14.851c-2-1.601-4.133-3.934-6.4-7c-2.5-3.634-4.317-6.267-5.45-7.9c-1.5-2.2-2.683-4.684-3.55-7.45
		c-0.867-3.233-1.517-5.683-1.95-7.35c-3.3,0.167-5.7,0.3-7.2,0.4L69.65,58c-0.433,0.866-1.3,1.783-2.6,2.75
		c-1.767,1.3-2.783,2.083-3.05,2.35c-0.467,0.467-1.783,1.867-3.95,4.2C58.45,69.033,57.1,70.4,56,71.4
		c-2.933,2.699-6.95,4.466-12.05,5.3c0.066-3.4,1.533-6.816,4.4-10.25c0.5-0.601,1.417-1.434,2.75-2.5c1.267-1,2.15-1.851,2.65-2.55
		c0.367-0.467,0.75-1.2,1.15-2.2l-4.95,0.5L49.1,60.6c-2.467,2.467-5.45,3.717-8.95,3.75c-0.933-2.066-1.3-4.583-1.1-7.55
		c0.233-3.467,0.184-5.866-0.15-7.2c-0.933,3.9-4.733,7.284-11.4,10.15c-0.167-1.167-0.017-2.583,0.45-4.25
		c0.533-1.967,0.816-3.333,0.85-4.1c0.034-0.367,0.017-1.034-0.05-2c-0.433,0.033-0.8,0.116-1.1,0.25
		c-1.367,0.6-3.15,2.199-5.35,4.8c-1.267,1.5-2.233,2.75-2.9,3.75c-0.833-1.134-1.45-2.5-1.85-4.101
		c-0.767-3.166-0.017-5.75,2.25-7.75c2.233-1.967,5.233-3.567,9-4.8c1.967-0.6,3.583-0.983,4.85-1.15l-3.95-1.45
		c-2.667-0.967-4.267-1.483-4.8-1.55c-0.433-0.1-1.167-0.566-2.2-1.4l-1.4-1.3l6.1,0.75c4.3,0.5,8,0.866,11.1,1.1
		c3.333,0.267,7.433,0.35,12.3,0.25l1.85-0.65L48.1,33l3.95,0.45c1.567,0.3,3.117,0.75,4.65,1.35l36.1-12.2
		c-4.233-0.567-7.466-0.883-9.7-0.95c-1.267,0-2.733-0.083-4.4-0.25l-1.85-0.2c0.4-0.6,0.983-1.167,1.75-1.7
		c1.566-1.1,3.35-1.583,5.35-1.45c3.233,0.167,6.3,0.567,9.2,1.2c0.733,0.633,0.05-0.083-2.05-2.15c-1.533-1.5-2.65-2.75-3.35-3.75
		L87.1,12.1l1.35-0.1c1.433,0,3.566,0.25,6.4,0.75C96.183,13.783,97.7,14.483,99.4,14.85z"/>
</g>
<g>
	<path style="fill-rule:evenodd;clip-rule:evenodd;fill:#4A3310;" d="M312.8,4.3c2.9-1.066,5.583-1.167,8.05-0.3
		c1.834,0.633,3.317,2.15,4.45,4.55c0.9,1.8,1.533,3.967,1.9,6.5c0.733,5.367,0.066,9.117-2,11.25c-2.5,2.6-7.517,3.634-15.05,3.1
		c-1.834-0.133-4.967-0.117-9.4,0.05c-4.167,0.133-7.333,0.083-9.5-0.15c-1.367-0.167-3.6-0.667-6.7-1.5
		c-2.767-0.767-4.983-1.183-6.649-1.25c-2-0.066-5.018-0.017-9.051,0.15c-4.066,0.167-7.1,0.2-9.1,0.1
		c-2.2-0.066-5.233-0.517-9.1-1.35c-4.2-0.867-7.233-1.384-9.101-1.55c-0.5-0.033-1.899-0.033-4.2,0
		c-1.699,0.067-3.05-0.033-4.05-0.3c-0.533-0.133-1.8-0.534-3.8-1.2c-1.4-0.5-2.717-0.8-3.95-0.9c-2.467,0-4.383,0-5.75,0
		c-2.525,0-4.342-0.283-5.45-0.85c0.454,0.216-0.146-0.75-1.8-2.9c-0.2-0.2-0.666-0.45-1.399-0.75
		c-0.934-0.367-1.467-0.583-1.601-0.65c0.2-1.233,0.066-2.3-0.399-3.2c-0.567-0.966-1.467-1.6-2.7-1.9
		c1.133-1.033,3.166-1.65,6.1-1.85c1.634-0.133,3.917-0.2,6.851-0.2c5.233-0.333,8.733-0.4,10.5-0.2c0.966,0.1,3,0.467,6.1,1.1
		c2.4,0.466,4.467,0.7,6.2,0.7c3.166-0.033,8.017-0.233,14.55-0.6c5.833-0.2,10.6-0.05,14.3,0.45c6.333,0.9,12,1.133,17,0.7
		c2.233-0.167,5.083-0.817,8.55-1.95c3.967-1.3,6.783-2.1,8.45-2.4C305.55,6.9,308.133,6,312.8,4.3z"/>
	<g>
		<path style="fill-rule:evenodd;clip-rule:evenodd;fill:#3F2B0C;" d="M257.6,15.1c-2.566-1.267-4.533-2.083-5.899-2.45
			c-0.601-0.167-2.033-0.433-4.3-0.8c-1.801-0.3-3.2-0.667-4.2-1.1l7.55-0.25c2.634,1.867,6.934,3.25,12.9,4.15
			c-0.834,0.3-1.817,0.467-2.95,0.5C260,15.184,258.967,15.167,257.6,15.1z"/>
		<path style="fill-rule:evenodd;clip-rule:evenodd;fill:#3F2B0C;" d="M315.65,4.1c-1.367-0.133-2.967,0.367-4.801,1.5
			c-2.233,1.4-3.767,2.2-4.6,2.4c-0.233-0.333-0.384-0.717-0.45-1.15c1.8-0.4,4.217-1.284,7.25-2.65
			c2.733-0.967,5.267-1.05,7.601-0.25C320.583,4.117,320.4,4.467,320.1,5c-0.267,0.4-0.416,0.75-0.449,1.05
			c-0.034,0.6-0.034,1.467,0,2.6c-0.034,0.967-0.184,1.767-0.45,2.4c1.5,0.134,2.583,0.567,3.25,1.3
			c0.833,0.833,0.866,1.933,0.1,3.3c-0.6,1.1-1.917,1.833-3.95,2.2c-2.467,0.433-3.949,0.816-4.449,1.15
			c1.199,0.566,2.982,0.883,5.35,0.95c1.3,0.033,3.167,0.083,5.6,0.15c-0.166,0.3-0.433,0.8-0.8,1.5c-0.366,0.633-0.733,1.1-1.1,1.4
			c0.267,0.1,0.533,0.1,0.8,0c-2.934,1.7-7.483,2.4-13.65,2.1c-8.433-0.434-13.199-0.583-14.3-0.45
			c0.667,0.167,1.717,0.25,3.15,0.25c1.166,0.133,1.816,0.65,1.95,1.55c-4.5,0.233-9.983,0.066-16.45-0.5
			c-0.601-1.3-2.667-2-6.2-2.1c-3.833,0.133-6.2,0.183-7.1,0.15l3.149,1.05c-3.267,0.067-5.7,0.067-7.3,0
			c-1.333-0.066-2.467-0.333-3.4-0.8c-1.066-0.667-2.083-1.217-3.05-1.65c-0.833-0.367-2.133-0.567-3.899-0.6
			c-1.801-0.066-3.051-0.233-3.75-0.5c-0.567-0.233-1.551-0.85-2.95-1.85c-1.233-0.9-2.384-1.483-3.45-1.75
			c0.6-0.133,1.667-0.233,3.2-0.3c1.333-0.067,2.333-0.217,3-0.45c-0.4,0.034-0.95-0.033-1.65-0.2c-0.833-0.167-1.333-0.267-1.5-0.3
			c0.9-0.433,2.5-0.583,4.8-0.45c2.134,0.133,3.617-0.083,4.45-0.65l-1.3-0.4c1.5,0.133,3.75,0.333,6.75,0.6
			c2.6,0.2,4.833,0.3,6.7,0.3c0.533,0,1.333-0.017,2.399-0.05c0.9,0,1.617,0.133,2.15,0.4c-0.9,0.1-3.95,0.1-9.15,0
			c-3.833-0.1-6.8,0.267-8.899,1.1c0.533,0.7,1.566,1.167,3.1,1.4c2.066,0.333,3.217,0.55,3.45,0.65
			c-0.767,0.667-2.417,0.95-4.95,0.85c-3.7-0.167-5.583-0.25-5.649-0.25c2.866,0.733,6.199,1.217,10,1.45
			c4.833,0.3,8.199-0.05,10.1-1.05c-0.7-0.433-1.233-0.767-1.6-1c-0.634-0.366-1.233-0.583-1.801-0.65
			c1.5-0.6,3.783-0.583,6.851,0.05c1.7,0.366,4,0.933,6.899,1.7c-0.733,0.233-1.366,0.383-1.899,0.45
			c-0.233,0.333-0.2,0.617,0.1,0.85c4.7,0.433,10.45,0.433,17.25,0c-0.366-0.1-0.899-0.317-1.6-0.65
			c-0.767-0.333-1.317-0.55-1.65-0.65c0.566-0.333,2.083-0.483,4.55-0.45c2,0.033,3.167-0.5,3.5-1.6c0.233-0.034,1.567-0.133,4-0.3
			c1.7-0.1,2.934-0.366,3.7-0.8c-0.233,0-2.917,0.184-8.05,0.55c-3.4,0.2-6.05,0.167-7.95-0.1c4.566-1.134,7.917-2.017,10.05-2.65
			c3.634-1.1,6.9-2.333,9.801-3.7c-1.233-0.1-3.084,0.133-5.551,0.7c-2.399,0.567-4.267,0.784-5.6,0.65c2.4-1.1,4.167-1.95,5.3-2.55
			c2-1.033,3.4-2.35,4.2-3.95l-1.05-0.8c0.5-0.133,0.967-0.383,1.399-0.75C315.066,4.533,315.417,4.267,315.65,4.1z"/>
		<path style="fill-rule:evenodd;clip-rule:evenodd;fill:#3F2B0C;" d="M208.5,12.35c-0.533-0.534-1.217-0.9-2.05-1.1
			c1.267-1.167,3.8-1.816,7.6-1.95C212.217,10.2,210.366,11.217,208.5,12.35z"/>
		<path style="fill-rule:evenodd;clip-rule:evenodd;fill:#2F210C;" d="M319.65,8.65c-0.034-1.133-0.034-2,0-2.6
			c0.033-0.3,0.183-0.65,0.449-1.05c0.301-0.533,0.483-0.883,0.551-1.05L320.85,4c1.834,0.633,3.317,2.15,4.45,4.55
			c0.9,1.8,1.533,3.967,1.9,6.5c0.733,5.367,0.066,9.117-2,11.25c-2.5,2.6-7.517,3.634-15.05,3.1c-1.834-0.133-4.967-0.117-9.4,0.05
			c-4.167,0.133-7.333,0.083-9.5-0.15c-1.367-0.167-3.6-0.667-6.7-1.5c-2.767-0.767-4.983-1.183-6.649-1.25
			c-2-0.066-5.018-0.017-9.051,0.15c-4.066,0.167-7.1,0.2-9.1,0.1c-2.2-0.066-5.233-0.517-9.1-1.35
			c-4.2-0.867-7.233-1.384-9.101-1.55c-0.5-0.033-1.899-0.033-4.2,0c-1.699,0.067-3.05-0.033-4.05-0.3
			c-0.533-0.133-1.8-0.534-3.8-1.2c-1.4-0.5-2.717-0.8-3.95-0.9c-2.467,0-4.383,0-5.75,0c-2.525,0-4.342-0.283-5.45-0.85
			c0.454,0.216-0.146-0.75-1.8-2.9c-0.2-0.2-0.666-0.45-1.399-0.75c-0.934-0.367-1.467-0.583-1.601-0.65
			c0.267-1.7-0.083-3.034-1.05-4c1.866-1.133,3.717-2.15,5.55-3.05c1.3-0.033,3.084-0.066,5.351-0.1c5.233-0.333,8.733-0.4,10.5-0.2
			c0.966,0.1,3,0.467,6.1,1.1c2.4,0.466,4.467,0.7,6.2,0.7l1-0.05c1,0.434,2.399,0.8,4.2,1.1c2.267,0.367,3.699,0.633,4.3,0.8
			c1.366,0.367,3.333,1.184,5.899,2.45c-0.866-0.067-1.483-0.1-1.85-0.1l2,0.15l1.3,0.4c-0.833,0.567-2.316,0.784-4.45,0.65
			c-2.3-0.134-3.899,0.017-4.8,0.45c0.167,0.034,0.667,0.133,1.5,0.3c0.7,0.167,1.25,0.233,1.65,0.2
			c-0.667,0.233-1.667,0.383-3,0.45c-1.533,0.066-2.601,0.167-3.2,0.3c1.066,0.267,2.217,0.85,3.45,1.75
			c1.399,1,2.383,1.617,2.95,1.85c0.699,0.267,1.949,0.434,3.75,0.5c1.767,0.033,3.066,0.233,3.899,0.6
			c0.967,0.433,1.983,0.983,3.05,1.65c0.934,0.467,2.067,0.733,3.4,0.8c1.6,0.067,4.033,0.067,7.3,0L271.4,24
			c0.899,0.033,3.267-0.017,7.1-0.15c3.533,0.1,5.6,0.8,6.2,2.1c6.467,0.566,11.95,0.733,16.45,0.5
			c-0.134-0.9-0.784-1.417-1.95-1.55c-1.434,0-2.483-0.083-3.15-0.25c1.101-0.133,5.867,0.017,14.3,0.45
			c6.167,0.3,10.717-0.4,13.65-2.1c-0.267,0.1-0.533,0.1-0.8,0c0.366-0.3,0.733-0.767,1.1-1.4c0.367-0.7,0.634-1.2,0.8-1.5
			c-2.433-0.067-4.3-0.117-5.6-0.15c-2.367-0.067-4.15-0.384-5.35-0.95c0.5-0.333,1.982-0.717,4.449-1.15
			c2.033-0.367,3.351-1.1,3.95-2.2c0.767-1.367,0.733-2.466-0.1-3.3c-0.667-0.733-1.75-1.167-3.25-1.3
			C319.467,10.417,319.616,9.617,319.65,8.65z"/>
		<path style="fill-rule:evenodd;clip-rule:evenodd;fill:#5B421A;" d="M296.3,9.5c3.967-1.3,6.667-2.083,8.101-2.35l-0.2,0.4
			c-0.467,0.667-1.317,1.134-2.55,1.4c-1.233,0.267-2.051,0.633-2.45,1.1c1.066,0.467,2.583,0.7,4.55,0.7
			c1.1-0.033,2.684-0.117,4.75-0.25c-1.9,0.867-4.233,1.417-7,1.65c-3.2,0.167-5.634,0.317-7.3,0.45
			c0.866,0.867,2.467,1.167,4.8,0.9c-2.5,1.3-6.467,1.9-11.9,1.8c-2-0.033-6.116-0.333-12.35-0.9c1.066-0.466,2.866-0.883,5.4-1.25
			c-1.134-0.133-3.551-0.167-7.25-0.1c0.866-0.3,1.966-0.483,3.3-0.55c2.033-0.033,3.149-0.066,3.35-0.1
			c-2.533-0.966-6.033-1.45-10.5-1.45c-5.066,0.167-8.733,0.2-11,0.1c-1.566-0.066-3.467-0.283-5.7-0.65
			c8.301-0.4,14.533-0.316,18.7,0.25c6.333,0.9,12,1.133,17,0.7C290.25,11.15,293,10.533,296.3,9.5z"/>
		<path style="fill-rule:evenodd;clip-rule:evenodd;fill:#5B421A;" d="M289.95,17c1.7-0.066,2.75-0.1,3.149-0.1
			c1.233,0.034,2.233,0.233,3,0.6c-1.666,1.333-4.683,2-9.05,2c-2.539,0.033-4.864-0.242-6.975-0.825
			c0.787,0.2,2.379,0.008,4.774-0.575C287.717,17.4,289.417,17.033,289.95,17z"/>
		<path style="fill-rule:evenodd;clip-rule:evenodd;fill:#5B421A;" d="M260.85,17.1c1.967-0.133,3.134-0.2,3.5-0.2
			c1.434,0,2.551,0.217,3.351,0.65h4.5c-2.434,0.233-4.4,0.4-5.9,0.5C263.5,18.184,261.684,17.867,260.85,17.1z"/>
	</g>
	<path style="fill-rule:evenodd;clip-rule:evenodd;fill:#2F210C;" d="M331.1,15.475c-0.069,0.639-0.203,1.631-0.399,2.975
		c-0.134,1.167-0.167,2-0.101,2.5c0.067,0.433,0.4,1.183,1,2.25c0.5,0.9,0.667,1.683,0.5,2.35c-0.166,0.6-0.767,1.2-1.8,1.8
		c-1.2,0.633-1.866,1.05-2,1.25c-0.233,0.367-0.366,0.966-0.399,1.8c-0.034,0.8-0.15,1.333-0.351,1.6
		c-0.167,0.267-0.934,0.967-2.3,2.1c-0.4,0.867-0.684,2.283-0.85,4.25c-0.2,2.133-0.434,3.55-0.7,4.25
		c-0.334-0.534-0.55-1.6-0.65-3.2c-0.066-1.533-0.333-2.667-0.8-3.4c-0.134,1.733-0.283,4.217-0.45,7.45
		c-0.233,2.767-0.733,5.116-1.5,7.05c-0.033-0.866-0.233-2.333-0.6-4.4c-0.367-1.867-0.533-3.4-0.5-4.6
		c0.166-1.833,0.217-3.184,0.149-4.05c-0.133-1.6-0.816-2.1-2.05-1.5c-0.566-0.967-0.883-2.284-0.95-3.95
		c2.2,1.233,3.101,1.083,2.7-0.45c-0.3-1.2-1-2.5-2.1-3.9l-0.2-0.25c3.333-0.4,5.816-2,7.45-4.8c1.533-2.534,2-5.35,1.399-8.45
		c0.101-0.9,0.134-1.667,0.101-2.3c0.166,0.6,1.083,1.517,2.75,2.75C330.123,15.847,331.007,16.139,331.1,15.475z"/>
	<path style="fill-rule:evenodd;clip-rule:evenodd;fill:#5B421A;" d="M324.45,2.65c0.231,1.422,0.448,2.206,0.649,2.35L323.9,4.2
		c-0.5-0.3-1.467-0.8-2.9-1.5c-1.267-0.6-2.167-1.1-2.7-1.5c0.533-0.434,1.184-0.767,1.95-1c0.833-0.233,1.583-0.25,2.25-0.05
		C323.566,0.483,324.217,1.316,324.45,2.65z"/>
	<path style="fill-rule:evenodd;clip-rule:evenodd;fill:#5B421A;" d="M325.7,5.55l1.5,0.5c1.1,0.667,1.783,2.067,2.05,4.2
		c0.267,2.2-0.417,3.133-2.05,2.8c-1.033-0.2-1.601-1.267-1.7-3.2C325.633,7.617,325.7,6.184,325.7,5.55z"/>
	<path style="fill-rule:evenodd;clip-rule:evenodd;fill:#3F2B0C;" d="M327.3,2.1c1.043,0.083,1.877,0.65,2.5,1.7
		c0.767,1.333,1.367,2.134,1.8,2.4c0,0.4,0,2.366,0,5.9c-0.233,2.966-0.983,3.45-2.25,1.45c-0.1-0.167-0.133-2.233-0.1-6.2
		C329.283,3.992,328.633,2.242,327.3,2.1z"/>
</g>
<g>
	<path style="fill-rule:evenodd;clip-rule:evenodd;fill:#2F210C;" d="M142.9,45.1c3.3-0.1,6.9-0.284,10.8-0.55
		c4.367-0.3,14.184-2.517,29.45-6.65l-5.75,6.85c-1.634,0.6-3.634,1.45-6,2.55c-2.601,1.267-4.567,2.2-5.9,2.8
		c-2.1,1-4.4,1.684-6.9,2.051c-1.5,0.199-3.9,0.366-7.2,0.5c-3.367,0.1-6.95,0.066-10.75-0.101c-2.933-0.166-6.483-0.45-10.65-0.85
		c-1.433-0.134-4.35-0.101-8.75,0.1c-3.767,0.134-6.633,0-8.6-0.399c1.567-3.4,4.4-5.384,8.5-5.95c2.367-0.367,6.033-0.417,11-0.15
		C135.283,45.233,138.867,45.167,142.9,45.1z"/>
	<path style="fill-rule:evenodd;clip-rule:evenodd;fill:#3F2B0C;" d="M133,53.95l-0.55-6.7c0.7-0.6,2.4-0.867,5.1-0.8
		c1.467,0.033,3.367,0.083,5.7,0.15c5.067-0.4,8.867-0.65,11.4-0.75c0.8,0,3.117-0.284,6.95-0.85c3.6-0.367,5.75-0.117,6.45,0.75
		c1.334,1.7,0.783,3.55-1.649,5.55c-2.067,1.667-4.067,2.667-6,3c-1.733,0.267-3.95,0.417-6.65,0.45c-0.542,0-1.058,0-1.55,0
		c2.333-0.1,3.816-0.5,4.45-1.2c-0.667-0.033-1.7-0.017-3.1,0.05c0.8-0.733,1.017-1.616,0.65-2.649
		c-0.7-0.033-1.583,0.267-2.65,0.899c-1.267,0.733-2.15,1.167-2.65,1.301c-2.566,0.566-4.517,1.083-5.85,1.55
		c-1.5,0.5-3.183,0.633-5.05,0.399C136.8,54.934,135.133,54.55,133,53.95z"/>
	<path style="fill-rule:evenodd;clip-rule:evenodd;fill:#2F210C;" d="M137.35,53.45L141.1,46c2.433-0.066,6.566-0.4,12.4-1
		c5.233-0.3,9.217,0.167,11.95,1.4c0.7,0.333,1.684,0.667,2.95,1c1,0.366,1.6,1.017,1.8,1.949c0.566,2.567-0.9,4.301-4.4,5.2
		c-1.167,0.3-3.9,0.601-8.2,0.9c0.367-0.533,0.65-0.884,0.85-1.05c-0.467-0.2-1.083-0.301-1.85-0.301c-0.067,0-0.75,0.051-2.05,0.15
		c1.467-0.167,2.367-0.684,2.7-1.55c0.7-1.7,1.1-2.617,1.2-2.75c-1.833-0.467-4.133-0.4-6.9,0.2c-2.133,0.466-4.35,1.183-6.65,2.149
		c-1.566,0.8-2.85,1.351-3.85,1.65C139.283,54.517,138.05,54.35,137.35,53.45z"/>
</g>
<g>
	<polygon style="fill-rule:evenodd;clip-rule:evenodd;fill:#4C6D1A;" points="56.05,25.05 237.95,19 238.1,24 56.2,30.05 	"/>
	<path style="fill-rule:evenodd;clip-rule:evenodd;fill:#4C6D1A;" d="M49.5,26.5l-5.6-0.2c0.595,0.005,1.429-0.028,2.5-0.1
		C47.8,26.133,48.833,26.233,49.5,26.5z"/>
</g>
<g>
	<path style="fill-rule:evenodd;clip-rule:evenodd;fill:#335209;" d="M136.8,58.55l-0.75,0.3c-0.667,2.767-1.3,5.034-1.9,6.801
		c-0.833,2.433-1.833,4.616-3,6.55c-0.033-0.2-0.15-1.184-0.35-2.95c-0.133-1.1-0.367-2.033-0.7-2.8
		c-0.867-2.033-1.517-3.767-1.95-5.2c-0.8,0.066-1.383,0.1-1.75,0.1l-0.7,2.5c-0.3,1.101-0.85,3.167-1.65,6.2
		c-0.867,2.667-1.867,4.533-3,5.601c-2.667-2.301-4.183-5.601-4.55-9.9c-0.2-2.566,0.05-6.25,0.75-11.05
		c-0.367,1.2-1.167,2.399-2.4,3.6c-0.7,0.7-1.833,1.7-3.4,3c-0.733,0.634-1.7,1.601-2.9,2.9c-1.3,1.366-2.267,2.333-2.9,2.899
		c0.833-1.8,0.967-4.267,0.4-7.399c-0.833-3.5-1.4-5.967-1.7-7.4c-0.667,0.134-1.75,1.167-3.25,3.101
		c-0.767,1.033-1.667,2.267-2.7,3.699c-0.2,0.233-0.883,1.084-2.05,2.551c-0.833,1.066-1.567,1.883-2.2,2.449
		c-0.2-0.566-0.283-1.449-0.25-2.649c0.033-1.4,0.017-2.316-0.05-2.75c-0.533,1.8-1.367,4.5-2.5,8.1c-0.833,3.101-1.2,5.834-1.1,8.2
		c0.033,1.134,0.233,3.233,0.6,6.3c0.3,2.634,0.433,4.717,0.4,6.25c-2.633-0.6-4.833-2.517-6.6-5.75
		c-1.533-2.8-2.316-5.566-2.35-8.3c-1.5,1.8-3.65,3.467-6.45,5c-1.633,0.9-4.167,2.083-7.6,3.55c0.333-0.566,1.15-1.6,2.45-3.1
		c1.033-1.2,1.733-2.283,2.1-3.25c1.1-3.033,1.217-4.917,0.35-5.65c-0.167,0.134-0.933,0.934-2.3,2.4
		c-1.033,1.1-1.85,1.633-2.45,1.6c-0.333-1.899,0.233-4.283,1.7-7.149c1.233-2.4,2.7-4.517,4.4-6.351
		c0.167-0.166,1.067-1.05,2.7-2.649c1.066-1.034,1.883-1.983,2.45-2.851c0.533-0.8,1.233-2.1,2.1-3.899
		c-2.433,0.566-4.533,0.833-6.3,0.8c0.367-1.134,1.017-2.351,1.95-3.65l-8.65,3.5c-2.533,1-4.45,1.767-5.75,2.3
		c-2.267,0.9-4.1,1.801-5.5,2.7c0-0.967,0.45-2.366,1.35-4.2c0.9-1.8,1.333-3.199,1.3-4.199c-0.933,0.466-2.933,1.449-6,2.949
		c-2.467,1.2-4.433,2.184-5.9,2.95c-3.5,1.867-6.617,2.917-9.35,3.15c0.867-3.101,3.167-5.934,6.9-8.5c-5,1.467-9.65,2.2-13.95,2.2
		c2.133-2,4.3-3.834,6.5-5.5c3.1-2.3,4.917-3.7,5.45-4.2c2.067-1.967,2.934-3.85,2.6-5.65c-0.733,0.034-1.283,0.05-1.65,0.05
		c-0.667,0-1.183-0.05-1.55-0.15c0.5-0.7,0.816-1.15,0.95-1.35c0.3-0.534,0.467-1.034,0.5-1.5c-3.4-0.367-6.033-0.7-7.9-1
		c-2.9-0.5-5.483-1.15-7.75-1.95c0.467-0.566,1.333-0.933,2.6-1.1c0.7-0.066,1.717-0.133,3.05-0.2c1.1-0.167,2.867-0.483,5.3-0.95
		c2.1-0.267,3.867-0.216,5.3,0.15l17.95-0.5c0.167-0.6,0.216-1.083,0.15-1.45c-0.2-0.833-1.367-1.483-3.5-1.95
		c-2.733-0.633-4.233-1.033-4.5-1.2c2.333-0.167,7.933-0.85,16.8-2.05l38.95-0.25c2.333,0.1,4.783,0.467,7.35,1.1
		c2.733-2.066,5.517-3.85,8.35-5.35c3.633-1.833,7.534-3.117,11.7-3.85c2.9-0.5,7.017-0.833,12.35-1
		c13.066-0.366,21.683-0.533,25.85-0.5c1.633,0.034,3.883,0.284,6.75,0.75c3.133,0.5,5.366,0.784,6.7,0.85
		c2.166,0.133,5.5,0.15,10,0.05c4.399-0.1,7.733-0.067,10,0.1c7.533,0.567,13.416,1.317,17.649,2.25
		c9.533,2.067,13.767,5.117,12.7,9.15c-0.2,0.833-0.65,1.6-1.35,2.3c3.166,3.533,4.6,8.434,4.3,14.7c-0.533-0.534-1-1.467-1.4-2.8
		c-0.399-1.4-0.816-2.367-1.25-2.9c-1.2-1.5-3.916-3-8.149-4.5c-0.834,0.434-2.2,1.083-4.101,1.95c-1.633,0.7-2.767,1.233-3.399,1.6
		c-0.233-1.966-0.051-4.066,0.55-6.3c-1.967-0.667-3.434-1.083-4.4-1.25c-1.333,0.434-2.866,0.983-4.6,1.65
		c0.133,0.367,0.6,1.15,1.399,2.35c0.801,1.167,1.25,1.934,1.351,2.3c1.2,4.567,1.816,6.95,1.85,7.15
		c0.601,2.733,0.8,5.167,0.601,7.3c-0.967-2.633-2.534-5.117-4.7-7.45c-2.7-2.9-5.316-4.2-7.851-3.9
		c-0.399,1.567-0.283,4.017,0.351,7.35c0.666,3.267,0.783,5.667,0.35,7.2c-1-0.4-2.399-1.566-4.2-3.5c-1.699-1.8-3.116-2.8-4.25-3
		c-0.6,0.6-1.616,1.716-3.05,3.35c-1.267,1.434-2.333,2.517-3.2,3.25c0-0.6,0.134-2.8,0.4-6.6c0.167-2.667,0.184-4.884,0.05-6.65
		l-0.35,0.3c-0.367,1.7-0.867,3.083-1.5,4.15c-0.3,0.533-0.9,1.633-1.8,3.3c-0.867,1.434-1.684,2.283-2.45,2.55
		c-0.334-0.966-0.967-2.166-1.9-3.6l-1.25,0.9c-0.899,0.633-2.517,1.883-4.85,3.75c-2.033,1.333-3.517,1.383-4.45,0.149l-0.1-0.149
		c-2.367,2.633-4,3.816-4.9,3.55c-0.333-0.634-0.583-1.417-0.75-2.351c-0.134-1.1-0.25-1.916-0.35-2.449
		c-1.233,0.5-2.717,1.466-4.45,2.899c-0.934,0.8-2.267,1.95-4,3.45c-0.6,0.5-1.6,1.25-3,2.25c-1.2,0.9-2.1,1.733-2.7,2.5
		c1.833-5.667,3.367-9.884,4.6-12.65c-0.4,0.367-2.283,1.4-5.65,3.1c-2.8,1.366-4.3,2.583-4.5,3.649
		c-0.067,0.4,0.283,1.284,1.05,2.65c0.933,1.733,1.417,2.634,1.45,2.7l0.85,2.85c0.5,1.9,0.717,3.25,0.65,4.05
		c-0.8,0.167-2.067,0-3.8-0.5c-2.3-0.633-3.583-0.966-3.85-1c-3-0.466-5.133-0.916-6.4-1.35C139,61.417,137.467,60.184,136.8,58.55z
		"/>
</g>
<g>
	<path style="fill-rule:evenodd;clip-rule:evenodd;fill:#4C6D1A;" d="M35.15,31.75c-1.167-0.033-2.517,0.45-4.05,1.45L35.15,31.75z
		 M82.8,8.35l-1-1l2.3-0.45c2.133-0.267,4.367-0.3,6.7-0.1c2,0.1,4.85,0.7,8.55,1.8c0.633,0,1.767,0.083,3.4,0.25
		c1.467,0.167,2.633,0.233,3.5,0.2c1-0.033,2.767,0,5.3,0.1c2.233,0.034,3.833-0.183,4.8-0.65c-1.167-0.533-2.017-0.95-2.55-1.25
		c-0.9-0.5-1.6-1.083-2.1-1.75c1.6-0.4,3.883-0.583,6.85-0.55c1.667,0.033,4.05,0.083,7.15,0.15c3.533-0.133,6.133-0.3,7.8-0.5
		c0.7-0.1,3.867-0.633,9.5-1.6c2.1-0.333,3.583-0.4,4.45-0.2c4.966-0.6,8.483-0.6,10.55,0c-1.3,0.767-1.55,1.3-0.75,1.6
		c0.533,0.2,1.383,0.284,2.55,0.25c1.167-0.033,2.983-0.033,5.45,0c2.233,0,4-0.167,5.3-0.5c-2.504-0.543-4.67-0.81-6.5-0.8
		c1.736-0.057,4.22-0.191,7.45-0.4c3.3-0.167,6.017-0.167,8.15,0l4.75-0.3c1.6,1.2,3.466,1.767,5.6,1.7
		c16.8-0.534,32.55,0.4,47.25,2.8c2.667,1.4,5.384,2.934,8.15,4.6c4.399,2.633,8.05,4.2,10.949,4.7c1.167,0.2,2.067,0.216,2.7,0.05
		L257,17.1c-2.066,0.466-4.033,0.7-5.9,0.7c-1.533,0.034-3.933-0.033-7.199-0.2l-3.7-0.35l2.5,1c2,0.833,3.916,1.833,5.75,3
		c1.8,1.167,2.833,2.1,3.1,2.8c0.066,0.2,0.084,0.4,0.05,0.6c-0.066,0.2-0.149,0.284-0.25,0.25l-6.199-1.45
		c-2.367-0.534-4.467-1.267-6.301-2.2L238.6,21l-0.55,0.1l4.55,5.25c3.7,4.533,5.834,8,6.4,10.4c0.533,2.3,0.217,4.117-0.95,5.45
		c-0.566,0.667-1.217,1.1-1.95,1.3c-0.1-1.133-0.55-3.617-1.35-7.45c-0.434-2.4-3-4.583-7.7-6.55l-6.8-2.2l1.5,3.75
		c1.233,3.333,2.333,6.767,3.3,10.3c0.967,3.667,0.783,5.883-0.55,6.65c-0.533,0.267-1.033,0.333-1.5,0.2l-0.75-0.2l-0.3-4.9
		c-0.101-1.733-1.45-3.5-4.05-5.3c-3.101-2.1-5.134-4.15-6.101-6.15c-1.333-2.833-3.133-5.533-5.399-8.1
		c-6.167,0.4-11.45,0.567-15.851,0.5l-4.45-0.2L198.2,25c2.467,1.5,5.05,3.167,7.75,5c3.166,2.1,5.767,5.25,7.8,9.45
		c1,2.033,1.717,3.917,2.15,5.65c-0.867-0.267-2.233-0.8-4.101-1.6c-3.333-1.467-6.217-2.983-8.649-4.55
		c-3.067-2-8.184-3.85-15.351-5.55c-7.233-1.733-13.649-2.633-19.25-2.7c-4.7,0-8.833,1.417-12.4,4.25
		c-0.867,0.667-1.867,1.633-3,2.9c-0.6,0.8-0.933,1.283-1,1.45l12.3,3.05c2.833,0.733,4.5,1.483,5,2.25
		c0.3,0.367,0.316,0.683,0.05,0.95c-0.2,0.2-1.083,0.483-2.65,0.85c-2.899,0.633-7.55,1.25-13.95,1.85
		c-2.733,0.267-5.05,0.316-6.95,0.15l2.15,4.05c-1-0.3-2.283-0.783-3.85-1.45c0.8,1.366,1.5,2.733,2.1,4.1
		c1.533,3.567,2.633,6.601,3.3,9.101c-1.167-0.467-2.6-1.167-4.3-2.101c-3.567-1.933-6.967-4.1-10.2-6.5
		c-3.367-2.533-5.883-4.85-7.55-6.949l-1.7-2.601l1.95,6.101c1.333,5.133,2.117,10,2.35,14.6c0.233,4.634-0.583,8.733-2.45,12.3
		c-0.933,1.733-1.883,3.017-2.85,3.851c0.3-1.733,0.5-3.884,0.6-6.45c0.167-5.033-0.333-9.384-1.5-13.05
		c-1.133-3.7-1.833-8.317-2.1-13.851v-7.3l-1.35,5.2c-1.233,4.267-2.783,8.366-4.65,12.3s-3.967,6.55-6.3,7.85
		c-0.7,0.4-1.4,0.65-2.1,0.75h-0.85c1.267-6.366,1.967-10.949,2.1-13.75c0.1-1.733,0.683-4,1.75-6.8l1.55-3.55V44.2l-3.55,4.55
		c-0.567,0.767-1.567,1.283-3,1.55c-0.8,1.867-1.433,3.283-1.9,4.25c-0.3-1.233-0.55-2.583-0.75-4.05l-2.4-0.2l-2.8-0.649l0.6,5.5
		c0.3,2.866,0.333,5.733,0.1,8.6c-0.1,1.634-0.233,2.816-0.4,3.55c-0.067-0.434-0.417-1.333-1.05-2.7c-1-2.233-2.566-5.083-4.7-8.55
		l-0.95-1.55l-0.6-0.3c-1.8-0.967-2.783-1.834-2.95-2.601l-1.2,2.75c-1.233,2.967-2.683,6.167-4.35,9.601l-0.3,0.55
		c-1.733,3.634-5.5,6.866-11.3,9.7c-2.933,1.434-5.6,2.467-8,3.1l1.8-3.85c-1.067,1.267-1.75,2.25-2.05,2.95
		c-0.466,1.3-1.133,3.566-2,6.8c-1.066,3.1-2.083,5.283-3.05,6.55c-0.5,0.6-0.867,0.884-1.1,0.85c-0.133-0.399-0.233-0.899-0.3-1.5
		c-0.133-1.133-0.05-2.3,0.25-3.5l2.25-7.3l-7.75,8.4c-2.033,2.1-3.983,3.8-5.85,5.1c-0.933,0.7-1.683,1.15-2.25,1.351l4.9-9.45
		c2.033-4,5.317-8.634,9.85-13.9l6.3-6.75L59.5,65.1c-1.767,0.9-4.567,1.917-8.4,3.051c-3.567,1.033-5.067,1.35-4.5,0.949
		l6.15-4.449c3.933-2.867,7.15-5.051,9.65-6.551c3.233-1.933,6.783-4.366,10.65-7.3c-0.133-0.366-0.283-0.684-0.45-0.95L66,50.4
		l0.15-0.15l4.7-2.65l-0.05-0.1c-2.466-2.467-3.983-4.816-4.55-7.05l-0.1-2.6L63.1,43.8c-0.567,0.967-2.55,2.634-5.95,5l-4.8,3.2
		l1.55-5.7c0.633-2.333,1.717-4.417,3.25-6.25l2-2l-11.1,7.2c-4.566,2.967-9.633,5.684-15.2,8.15
		c-2.867,1.233-5.184,2.133-6.95,2.699l3.95-2.05c1.1-0.666,2.316-1.967,3.65-3.899c3.267-4.467,5.067-6.9,5.4-7.3
		c0.833-1.034,2-2.1,3.5-3.2l-0.95,0.2c-1.467,1.1-2.934,1.966-4.4,2.6c-1.5,0.6-3.517,1.15-6.05,1.65c-2.9,0.566-4.9,1.033-6,1.4
		c-0.767,0.267-2.3,0.617-4.6,1.05c-1.967,0.367-3.45,0.783-4.45,1.25c2.033-3.066,5.25-6.417,9.65-10.05
		c2.3-2.133,4.133-3.65,5.5-4.55c-5.833,2-11.3,3.083-16.4,3.25c-3.3-0.167-5.883-0.267-7.75-0.3C3.643,36.086,1.326,36.502,0,37.4
		c3.859-2.785,6.826-4.918,8.9-6.4c3.867-2.733,7.233-4.2,10.1-4.4c-2.333,0-4.317-0.2-5.95-0.6c-2.066-0.5-3.883-1.367-5.45-2.6
		c0.4,0.3,1.733,0.35,4,0.15c1.167-0.133,2.6-0.283,4.3-0.45c3.7-0.067,6.483-0.2,8.35-0.4c1.333-0.134,3.35-0.434,6.05-0.9
		c2.4-0.3,4.417-0.25,6.05,0.15l2.2-0.8c2.333-0.833,5.15-1.35,8.45-1.55c5.067-0.267,8.5-0.434,10.3-0.5
		c10.9-0.8,19.883-1.534,26.95-2.2c-4.333-0.1-9.283-0.283-14.85-0.55c-3.367-0.2-6.417-0.567-9.15-1.1l-3.2-0.7l6.8-1.15
		c5.633-0.833,11.15-1.383,16.55-1.65c5.333-0.3,9.667-0.267,13,0.1L95,12.1l-5.7-1.35C86.267,10.017,84.1,9.217,82.8,8.35z"/>
</g>
<g>
	<path style="fill-rule:evenodd;clip-rule:evenodd;fill:#5F821D;" d="M227.35,9.9c-3.566-1.933-6.583-2.583-9.05-1.95
		C220.566,9.05,223.583,9.7,227.35,9.9z M159.65,4.45c-1.367-0.6-2.733-1.117-4.1-1.55l-3.75,0.05c1.067,0.133,2.383,0.366,3.95,0.7
		C156.617,3.816,157.917,4.083,159.65,4.45z M81.8,9.3c-2.4-0.667-4.167-1.583-5.3-2.75c4.367-1.733,10.633-2.033,18.8-0.9
		c9.6,1.3,15.883,1.75,18.85,1.35c-1.767-0.4-3.1-0.717-4-0.95c-1.566-0.433-2.816-0.966-3.75-1.6
		c2.767-0.467,6.883-0.667,12.35-0.6c6.367,0.033,10.617-0.034,12.75-0.2c3.067-0.267,7.217-0.783,12.45-1.55
		c4.433-0.434,8.3-0.167,11.6,0.8c3.467-0.066,8.684-0.25,15.65-0.55c1.233-0.034,3.566,0.1,7,0.4c2.934,0.233,5.25,0.25,6.95,0.05
		c-1.5-0.5-2.534-0.866-3.101-1.1c-1.166-0.5-2.083-1.05-2.75-1.65c4.834,1.267,8.717,2.184,11.65,2.75
		c4.166,0.767,8.149,1.184,11.95,1.25c3.066,0.067,7.5,0.067,13.3,0c5.066,0.067,9.483,0.434,13.25,1.1c2.666,0.5,5.1,1.25,7.3,2.25
		c1.767,0.767,3.9,1.95,6.4,3.55c0.533,0.333,1.233,0.667,2.1,1c-5.233-0.667-9.75-0.534-13.55,0.4c-1.867-1.1-3.283-1.9-4.25-2.4
		c-5.233,0.1-14.2,0.417-26.9,0.95c-11.434,0.467-20.383,0.733-26.85,0.8c14.133,0.466,22,0.767,23.6,0.9
		c9.134,0.833,16.65,2.683,22.55,5.55c-6,0.434-10.533,0.75-13.6,0.95c-5.434,0.3-9.983,0.316-13.65,0.05
		c-1-0.066-4.316-0.45-9.949-1.15c-4.034-0.467-7.417-0.667-10.15-0.6c3.033,0.333,6.184,1.4,9.45,3.2
		c3.934,2.133,5.75,4.383,5.45,6.75c-2.467-0.567-6.15-1.1-11.051-1.6c-5.066-0.533-8.767-1.05-11.1-1.55
		c-0.467-0.1-1.967-0.634-4.5-1.6c-1.733-0.667-3.217-0.85-4.45-0.55c-1.267,0.333-2.783,1.617-4.55,3.85
		c-1.933,2.467-3.3,3.917-4.1,4.35c1.633-4.1,2.383-7.3,2.25-9.6c-5.4,2.167-11.583,5.083-18.55,8.75
		c-3.967,2.1-9.95,5.333-17.95,9.7c-0.367-5.733,1.4-11.4,5.3-17c-7.733,5.733-15.184,13.017-22.35,21.85
		c-4.633,5.666-9.167,10.1-13.6,13.3c-5.2,3.767-11.25,6.6-18.15,8.5c0.3-2.066,1.867-4.267,4.7-6.6
		c3.367-2.467,5.667-4.233,6.9-5.301c-3.267,1.733-5.784,3-7.55,3.801c-3.167,1.433-5.867,2.033-8.1,1.8
		c2.567-1.601,5.184-3.467,7.85-5.601c2.767-2.166,5.133-4.267,7.1-6.3c2.267-2.8,3.983-4.883,5.15-6.25
		c2.067-2.366,4.333-4.017,6.8-4.95c-1.467-0.034-3.067,0-4.8,0.1c1.733-1.333,4.2-2.784,7.4-4.35c3.9-1.934,6.417-3.25,7.55-3.95
		c-1.6,0.7-3.783,1.167-6.55,1.4c-0.066,0.034-2.133,0.134-6.2,0.3c-4.033,0.2-12.133,0.45-24.3,0.75c2.467-0.267,5.25-1,8.35-2.2
		c1.267-0.5,3.833-1.65,7.7-3.45c-9.5,0-14.917,0.05-16.25,0.15c-6.367,0.4-11.55,1.6-15.55,3.6c0.467-1.634,1.784-3.05,3.95-4.25
		c3.233-1.8,4.967-2.8,5.2-3c-9.6-0.267-18.217-1.1-25.85-2.5c0.367-0.067,2.933-0.617,7.7-1.65c3.067-0.667,5.7-1.116,7.9-1.35
		c4-0.4,10.066-0.733,18.2-1c-2.833-0.1-5.05-0.65-6.65-1.65c1.3-0.8,3.317-1.25,6.05-1.35c1.534-0.034,3.7-0.034,6.5,0
		c2.4-0.067,6.067-0.25,11-0.55c4.333-0.167,7.983-0.066,10.95,0.3l-2.15-0.9C85.067,10.133,83.133,9.633,81.8,9.3z"/>
	<path style="fill-rule:evenodd;clip-rule:evenodd;fill:#5F821D;" d="M99.55,45.9l3.85-1.9c-0.767,1.3-1.233,3.15-1.4,5.55
		c-0.133,1.367-0.217,3.517-0.25,6.45c-0.267,5.333-2.033,8.6-5.3,9.8c0.767-1.967,1.183-5.283,1.25-9.95
		C97.733,51.517,98.35,48.2,99.55,45.9z"/>
	<path style="fill-rule:evenodd;clip-rule:evenodd;fill:#5F821D;" d="M113.6,43.3l8.55-3.8c-0.1,0.7-0.75,1.767-1.95,3.2
		c-1.367,1.633-2.184,2.75-2.45,3.35c-0.4,0.934-0.733,2.217-1,3.851c-0.333,1.966-0.6,3.267-0.8,3.899
		c-0.667,2.233-2.217,4.867-4.65,7.9c-1.333,1.666-3.333,4.083-6,7.25c-0.867-4.566-0.8-9.45,0.2-14.65
		C106.833,47.566,109.533,43.9,113.6,43.3z"/>
	<path style="fill-rule:evenodd;clip-rule:evenodd;fill:#5F821D;" d="M120,54.7c-0.233-6.8,1.75-11.934,5.95-15.4
		c0.633,1.8,1.017,4.15,1.15,7.05c0.1,1.6,0.233,3.983,0.4,7.15c0.933,7.767,1.4,12.05,1.4,12.85c0,4.934-1.316,9.101-3.95,12.5
		c-0.034-0.366-0.05-2.833-0.05-7.399c0.033-3.066-0.283-5.467-0.95-7.2c-0.2-0.566-1.017-2.1-2.45-4.6
		C120.533,57.983,120.033,56.333,120,54.7z"/>
	<path style="fill-rule:evenodd;clip-rule:evenodd;fill:#5F821D;" d="M127.5,45.35l-0.45-0.7c0.6,0.467,1.767,1.034,3.5,1.7
		c1.6,0.6,2.767,1.25,3.5,1.95c1.467,1.4,3.567,3.783,6.3,7.15c0.8,0.934,2.183,2.383,4.15,4.35c1.733,1.8,2.867,3.351,3.4,4.65
		c-2.967,0.033-6.983-1.95-12.05-5.95c-2.6-2.134-4.533-4.1-5.8-5.9C128.45,50.3,127.6,47.884,127.5,45.35z"/>
	<path style="fill-rule:evenodd;clip-rule:evenodd;fill:#5F821D;" d="M146.3,47.65c-3.867-1.2-5.65-2.734-5.35-4.601
		c2.6-0.433,5.966-0.283,10.1,0.45l7.1,0.45c1.6-0.2,3.617-0.134,6.05,0.2c2.3,0.267,4.25,0.667,5.85,1.2
		c-2.066,1.333-4.483,2.3-7.25,2.9c-2.033,0.4-4.7,0.667-8,0.8C152.233,49.116,149.4,48.65,146.3,47.65z"/>
	<path style="fill-rule:evenodd;clip-rule:evenodd;fill:#5F821D;" d="M198.25,32.75c2.767,0.133,6.184,1.434,10.25,3.9
		c4.533,2.8,6.5,5.417,5.9,7.85c-1.101-1-2.517-1.8-4.25-2.4c-2.134-0.6-3.767-1.067-4.9-1.4c-1.934-0.567-5.566-1.983-10.9-4.25
		c-4.6-1.967-8.333-3.217-11.199-3.75C190.517,32.633,195.55,32.65,198.25,32.75z"/>
	<path style="fill-rule:evenodd;clip-rule:evenodd;fill:#5F821D;" d="M230.65,35.95c1.267,1.667,2.116,3.4,2.55,5.2
		c0.533,2,0.467,3.867-0.2,5.6c-0.5-0.3-0.75-0.767-0.75-1.4c0-1.133-0.017-1.733-0.05-1.8c-0.434-1.866-1.434-3.483-3-4.85
		c-3.566-3-5.851-5.083-6.851-6.25c-2.21-2.546-3.126-4.796-2.75-6.75c-0.472-0.356-0.871-0.706-1.199-1.05l1.55-0.05
		c-0.166,0.354-0.283,0.72-0.351,1.1c0.525,0.393,1.143,0.793,1.851,1.2c1.633,0.9,2.7,1.55,3.2,1.95
		C226.083,30.017,228.083,32.383,230.65,35.95z"/>
	<path style="fill-rule:evenodd;clip-rule:evenodd;fill:#5F821D;" d="M75.7,24.4L68.95,22c2.3,0.267,5.95,0.283,10.95,0.05
		c4.733-0.233,8.367-0.167,10.9,0.2c1.967,0.267,3.833,0.833,5.6,1.7c2.033,0.966,1.583,1.566-1.35,1.8
		c-2.767,0.233-5.816,1.117-9.15,2.65c-3.767,1.934-6.683,3.35-8.75,4.25c-5,2.2-8.983,4.15-11.95,5.85
		c-4.467,2.566-8,5.217-10.6,7.95c0.033-0.367,0.15-0.934,0.35-1.7c0.2-0.767,0.316-1.333,0.35-1.7c0.067-0.533,0.05-1.7-0.05-3.5
		c-0.1-1.433,0.017-2.6,0.35-3.5c-0.8,0.867-2.184,1.7-4.15,2.5c-2.167,0.9-3.633,1.65-4.4,2.25c-1.4,1.167-3.5,2.65-6.3,4.45
		c-2.033,1.367-3.683,2.35-4.95,2.95c-2,0.934-3.867,1.383-5.6,1.35c0.066-0.767,0.733-1.783,2-3.05
		c1.466-1.333,2.417-2.217,2.85-2.65c3.133-2.833,6.067-5.184,8.8-7.05c1.1-0.767,3.283-2.066,6.55-3.9
		c2.733-1.566,4.85-2.966,6.35-4.2c2.133-1.767,5.15-2.983,9.05-3.65C68.433,24.583,71.733,24.367,75.7,24.4z"/>
	<path style="fill-rule:evenodd;clip-rule:evenodd;fill:#5F821D;" d="M29.05,25.6c2.6-0.867,4.483-1.4,5.65-1.6
		c2.333-0.4,4.233-0.167,5.7,0.7c0.967,0.566,1.317,1.066,1.05,1.5c-0.2,0.3-0.767,0.883-1.7,1.75c-1.3,1.733-2.483,2.95-3.55,3.65
		c-1.167,0.733-2.934,1.383-5.3,1.95c-1.4,0.333-3.15,0.534-5.25,0.6c-2.333,0-4.083,0.034-5.25,0.1
		c-2.267,0.133-5.217,0.434-8.85,0.9c-4.667,0.6-7.633,0.967-8.9,1.1c1.167-0.5,2.934-1.434,5.3-2.8c2.2-1.3,3.95-2.2,5.25-2.7
		c1.933-0.733,4.566-1.617,7.9-2.65C25.033,26.9,27.683,26.066,29.05,25.6z"/>
	<path style="fill-rule:evenodd;clip-rule:evenodd;fill:#405E14;" d="M250.95,15.35c2.7-0.133,4.95,0.117,6.75,0.75
		c-0.567,0.367-1.533,0.617-2.9,0.75c-1.6,0.167-2.633,0.333-3.1,0.5c-1.101,0.333-2.667,0.5-4.7,0.5c-2.167,0-3.733,0.117-4.7,0.35
		c1.267,0.3,2.601,1.017,4,2.15c0.133,0.106,0.275,0.223,0.425,0.35c-0.529-0.431-1.154-0.814-1.875-1.15
		c-1.8-0.7-3.149-1.233-4.05-1.6c-2.8-1.067-4.916-1.817-6.35-2.25c-1.112-0.344-2.138-0.61-3.075-0.8
		c2.602,0.285,4.144,0.452,4.625,0.5c3.066,0.267,5.783,0.4,8.15,0.4C245.65,15.8,247.917,15.65,250.95,15.35z M249.75,23.45
		c0.833,0.8,1.267,1.233,1.3,1.3c0.101,0.267-0.35,0.517-1.35,0.75c-0.9,0.2-2.2,0.033-3.9-0.5c-1.934-0.667-3.217-1-3.85-1
		c2.666,4.066,4.55,7.184,5.649,9.35c0.634,1.2,1,2.75,1.101,4.65c0.033,1.1,0.033,2.733,0,4.9c-0.467-0.566-1.217-1.3-2.25-2.2
		c-1.101-0.934-1.867-1.65-2.3-2.15c-0.367-0.433-0.801-1.066-1.301-1.9c-0.566-0.966-0.949-1.6-1.149-1.9
		c-1.434-2.033-3.434-3.917-6-5.65c-1.634-1.1-4.017-2.467-7.15-4.1c2.066-0.066,4.601,0.316,7.601,1.15
		c3.066,0.833,5.399,1.8,7,2.9c-2.034-2.566-5-4.633-8.9-6.2c-4.7-1.5-8.233-2.633-10.6-3.4c1.6,0.133,3.949,0.283,7.05,0.45
		c2.633,0.233,4.95,0.684,6.95,1.35c-1.467-0.7-3.117-1.617-4.95-2.75c1.666,0.467,4.217,1.267,7.649,2.4
		c3.034,0.867,5.617,1.317,7.75,1.35c-0.28-0.464-0.639-0.889-1.074-1.275C247.767,21.599,248.675,22.424,249.75,23.45z"/>
	<path style="fill-rule:evenodd;clip-rule:evenodd;fill:#324312;" d="M250.45,23.8l1.5,0.5c-0.434,0.567-1.717,0.733-3.851,0.5
		c-2.333-0.366-3.783-0.533-4.35-0.5c0.434,1,1.217,2.434,2.35,4.3c1.233,2.033,2.067,3.517,2.5,4.45c0.7,1.4,1.101,2.917,1.2,4.55
		c0.066,0.933,0.101,2.483,0.101,4.65c-1.601-0.367-3.334-1.133-5.2-2.3c-2.267-1.434-3.434-2.817-3.5-4.15l0.649,0.05
		c-0.8-0.867-1.899-2.167-3.3-3.9c-1.467-1.8-2.583-3.117-3.35-3.95c1.833,0.467,3.983,1.566,6.45,3.3
		c3.933,2.767,5.916,4.15,5.949,4.15c-0.399-2.6-1.833-5.367-4.3-8.3c-1.75-2.114-3.45-3.472-5.1-4.075
		c0.451,0.048,0.951,0.106,1.5,0.175c1.633,0.2,3.033,0.3,4.2,0.3C245.366,23.55,247.55,23.633,250.45,23.8z"/>
	<path style="fill-rule:evenodd;clip-rule:evenodd;fill:#324312;" d="M249.3,17.35c3.3-0.133,5.9-0.167,7.8-0.1
		c-1.466,0.9-3.833,1.316-7.1,1.25c-2.833-0.033-5.267-0.35-7.3-0.95C244.149,17.516,246.35,17.449,249.3,17.35z"/>
</g>
</svg>
