<?xml version="1.0" encoding="iso-8859-1"?>
<!-- Generator: Adobe Illustrator 15.1.0, SVG Export Plug-In . SVG Version: 6.00 Build 0)  -->
<!DOCTYPE svg PUBLIC "-//W3C//DTD SVG 1.1//EN" "http://www.w3.org/Graphics/SVG/1.1/DTD/svg11.dtd">
<svg version="1.1" id="FlashAICB" xmlns="http://www.w3.org/2000/svg" xmlns:xlink="http://www.w3.org/1999/xlink" x="0px" y="0px"
	 width="47.95px" height="157.7px" viewBox="0 0 47.95 157.7" style="enable-background:new 0 0 47.95 157.7;" xml:space="preserve"
	>
<g>
	<g>
		<path style="fill-rule:evenodd;clip-rule:evenodd;fill:#73644F;" d="M21.4,6.85c0-0.033,0-0.067,0-0.1l2.75-0.1
			c0.233,0,0.5,0.017,0.8,0.05c0.666,1.3,0.916,2.716,0.75,4.25c-1.533,0.2-2.65-0.133-3.35-1c0.467,0.1,0.917,0.1,1.35,0
			c0.033-0.633,0.033-1.267,0-1.9c-0.167-0.1-0.384-0.117-0.65-0.05l-1-0.35l0.05,2C21.7,8.983,21.467,8.05,21.4,6.85z M24.75,22.65
			c0.033,0.233,0.066,0.733,0.1,1.5c0.067,0.7,0.233,1.15,0.5,1.35c0.301,0.967,1.184,1.883,2.65,2.75
			c1.566,0.9,3.45,2.617,5.65,5.15c3.433,4.033,5.433,8.017,6,11.95c0.199,1.167,0.267,2.667,0.199,4.5c0,1.033-0.033,2.55-0.1,4.55
			c0,1.6,0.15,2.783,0.45,3.55c0.434,1.066,1.083,0.783,1.95-0.85l0.35-0.9c-0.2,1.2-0.45,2.033-0.75,2.5
			c-0.333,0.5-0.733,0.7-1.2,0.6c-0.467-0.1-0.816-0.417-1.05-0.95c0,0.233-0.05,0.65-0.15,1.25c-1.166,0.3-1.816-0.583-1.949-2.65
			c0.333-0.4,0.533-0.717,0.6-0.95c0.6-1.7,0.517-4.267-0.25-7.7c-0.267-1.167-1.083-2.8-2.45-4.9
			c-0.566-1.633-1.033-2.783-1.399-3.45c-0.534-1.067-1.25-2.217-2.15-3.45v-0.4l-0.05,0.3c-0.167-0.267-1.033-1.45-2.601-3.55
			c0.467,1.3,1.467,3.15,3,5.55l0.75,1.65c0.867,2.133,1.517,3.55,1.95,4.25c0.167,0.233,0.316,0.5,0.45,0.8
			c0.2,1.033,0.233,2.1,0.1,3.2c-0.633,0.133-1.199-0.216-1.699-1.05c-0.267-0.433-0.567-1.1-0.9-2
			c-0.533-1.1-1.217-2.783-2.05-5.05c-0.134-0.367-0.4-0.85-0.8-1.45c-0.434-0.633-0.717-1.1-0.851-1.4
			c-0.233-0.667-0.416-1.133-0.55-1.4c-0.2-0.5-0.467-0.934-0.8-1.3c-0.367-0.433-1.017-0.933-1.95-1.5
			c-0.967-0.566-1.634-1.066-2-1.5c-0.467-0.5-0.8-1.233-1-2.2c-0.267-1.167-0.483-1.934-0.65-2.3c-0.3-0.6-0.95-1.467-1.95-2.6
			c-0.467-0.533-1.283-1.267-2.45-2.2c-0.3-0.367-0.65-0.917-1.05-1.65c-0.433-0.8-0.75-1.35-0.95-1.65
			c0.1,0.934,0.4,1.883,0.9,2.85c0.5,0.934,1.1,1.733,1.8,2.4c0.833,0.667,1.417,1.184,1.75,1.55c0.567,0.633,0.75,1.333,0.55,2.1
			c-1.3,0.3-2.633-0.15-4-1.35c-0.767-0.667-1.784-1.75-3.05-3.25c-1.433-1.5-2.5-2.983-3.2-4.45c-0.3-0.7-0.417-1.617-0.35-2.75
			c0.433-0.867,0.883-1.65,1.35-2.35c0.6,0.6,1.167,1,1.7,1.2c0.522,0.229,1.464,0.345,2.825,0.35
			c-0.436-0.013-0.794-0.113-1.075-0.3c0.733,0.1,1.15-0.333,1.25-1.3c0.3,0.4,0.55,0.983,0.75,1.75c0.267,1,0.45,1.617,0.55,1.85
			c0.466,1,1.45,2.217,2.95,3.65c1.167,1.067,2.083,1.383,2.75,0.95c0.466-0.3,0.683-0.75,0.649-1.35
			c-0.133-0.733-0.233-1.267-0.3-1.6c-0.3-1.9-1.15-3.833-2.55-5.8c-0.8-1.133-2.083-2.817-3.85-5.05c1.1,1.067,1.767,1.717,2,1.95
			c1.1,1.033,1.9,1.867,2.4,2.5c1.1,1.333,1.816,2.267,2.15,2.8c0.699,1.1,1.066,2.217,1.1,3.35c0.033,0.9,0.134,2.25,0.3,4.05
			L24.75,22.65z M35.05,69.15v-0.8h0.05l0.7-0.1c1.434,0,2.483,0.217,3.15,0.65c0.133-0.467,0.133-1.066,0-1.8
			c-0.167-0.833-0.233-1.434-0.2-1.8c0.134-1.333,0.583-2.433,1.35-3.3c0.634-0.633,1.084-1.083,1.351-1.35
			c0.5-0.533,0.85-1.083,1.05-1.65c0.333-0.933,0.533-2.65,0.6-5.15l-0.05,0.1c0.167-1.367,0.184-3.684,0.05-6.95
			c0.034,0.367,0.15,1.083,0.351,2.15c0.166,0.9,0.267,1.633,0.3,2.2v3c0,2.167-0.083,4.017-0.25,5.55
			c-0.066,0.767-0.15,1.917-0.25,3.45c-0.1,1.367-0.384,2.467-0.85,3.3c-0.267,0.5-0.7,1.117-1.301,1.85
			c-0.767,0.9-1.25,1.5-1.449,1.8c-0.467-0.333-1.2-0.583-2.2-0.75C36.884,69.483,36.1,69.4,35.1,69.3h-0.25L35.05,69.15z
			 M26.25,128.2l0.05-0.2c0.066,0.3,0.25,0.983,0.55,2.05c0.259,0.711,0.426,1.311,0.5,1.8c-0.2-1.675-0.334-2.941-0.399-3.8
			c-0.101-1.566-0.033-2.883,0.2-3.95c0,0.101,0.066,0.284,0.199,0.551c0.101,0.233,0.15,0.433,0.15,0.6
			c0.467-0.934,0.7-2.217,0.7-3.85c-0.101-1.867-0.15-3.217-0.15-4.051c0-3.566,0.2-6.233,0.601-8c0.733-2.966,1.899-5.916,3.5-8.85
			c0.899-1.7,1.616-3.366,2.149-5c0.3-0.9,0.667-2.9,1.101-6c0.366-2.5,0.949-4.434,1.75-5.8c-0.267,0.533-0.434,1.267-0.5,2.2
			c-0.034,0.5-0.084,1.25-0.15,2.25c-0.033,0.466-0.184,1.666-0.45,3.6c-0.2,1.467-0.3,2.65-0.3,3.55
			c0.066-1.434,0.866-3.316,2.4-5.649c0.666-1,1.133-1.801,1.399-2.4c0.334-0.733,0.617-1.6,0.851-2.6
			c0.199-0.867,0.633-1.684,1.3-2.45c0.1-0.101,0.783-0.733,2.05-1.9c-0.9,2.367-2,5.084-3.3,8.15l-0.15,1.6L39.15,91.4
			c-0.367,0.433-0.733,1.083-1.101,1.949c-1.533,1.434-2.45,2.4-2.75,2.9c-0.233,0.4-0.467,1.066-0.7,2
			c-0.433,0.566-0.833,1.167-1.199,1.8c-2.367,4.733-3.917,8.851-4.65,12.351c-0.366,1.666-0.533,3.75-0.5,6.25
			c0.033,1.433,0.083,3.55,0.15,6.35c0,3.066,0.233,6.616,0.699,10.65L30.2,144.6l-0.025-0.024v-0.025
			c-0.017-0.017-0.024-0.033-0.024-0.05c-0.034-0.167-0.067-0.316-0.101-0.45L30,143.9c-1.233-3.7-2.05-6.301-2.45-7.801
			c-0.267-0.866-0.483-1.75-0.649-2.649c-0.2-0.967-0.367-1.934-0.5-2.9c-0.101-0.733-0.167-1.483-0.2-2.25L26.25,128.2z
			 M11.1,119.4c-0.133-0.601-0.25-1.2-0.35-1.801V117c0-2.667,0-4.134,0-4.4c0.1-1.633,0.35-3.05,0.75-4.25
			c0.667-1.933,1.1-3.399,1.3-4.399c0.1-0.467,0.2-1.45,0.3-2.95c0.1-1.267,0.283-2.217,0.55-2.85
			c0.167,1.267,0.567,2.416,1.2,3.449l0.1,0.801c-0.133-0.434-0.35-0.9-0.65-1.4l-0.05-0.1l-0.1,0.6L14,100.4
			c-0.3,0.533-0.533,1.283-0.7,2.25c-0.1,0.566-0.2,1.366-0.3,2.399c-0.167,1.134-0.633,2.434-1.4,3.9
			c-0.333,0.666-0.517,1.483-0.55,2.45c-0.033,0.533-0.033,1.383,0,2.55L11.1,119.4z M18.1,106.55c0,0.101,0.017,0.217,0.05,0.351
			c0.167,1.033,0.25,1.949,0.25,2.75c0,0.767-0.017,1.55-0.05,2.35l-0.2-0.3c-0.066-0.101-0.533-1.066-1.4-2.9
			c-0.033-0.566-0.117-1.149-0.25-1.75l-0.1-0.25c0-0.066-0.017-0.133-0.05-0.2c-0.667-1.533-1.1-2.733-1.3-3.6
			c0-0.033,0-0.066,0-0.1c0.067,0.066,0.133,0.149,0.2,0.25l0.05,0.05l0.05,0.1h0.05c0.267,0.167,0.5,0.217,0.7,0.15
			C17.033,104.684,17.7,105.717,18.1,106.55z M40.4,74.65c0,1.5,0.017,2.383,0.05,2.65c0.633,0.233,1.2,0.083,1.7-0.45
			c0.399-0.434,0.683-0.983,0.85-1.65c0.2-1.034-0.15-1.684-1.05-1.95c-0.934-0.233-1.45,0.017-1.55,0.75V74.65z M14.6,93.3
			c0.833,0.066,1.6,0.233,2.3,0.5h0.05c0.1,1.167,0.133,1.867,0.1,2.101l0.05,2.449c-0.233-0.199-0.467-0.533-0.7-1
			c-0.167-0.866-0.316-1.483-0.45-1.85c-0.267-0.667-0.767-0.967-1.5-0.9C14.45,94.134,14.5,93.7,14.6,93.3z M34.85,79.9
			c0.301-0.301,0.517-0.567,0.65-0.801l0.05-0.05c0.5-0.533,0.867-1.05,1.101-1.55c-0.834,0.633-2.25,1.017-4.25,1.15
			c-1.967,0.2-3.601,0.867-4.9,2c-0.366,0.333-1.167,0.949-2.4,1.85c-1.1,0.866-1.767,1.6-2,2.2L23,85.2v0.05
			c-1.8,1.467-3.367,3.134-4.7,5L18.05,90c-0.2,0.2-0.75,0.616-1.65,1.25c-0.8,0.533-1.333,0.983-1.6,1.35
			c0.333-0.933,1.317-2.25,2.95-3.949c1.3-1.2,2.25-2.101,2.85-2.7c1-1.066,1.717-2.134,2.15-3.2c-0.067,0.566-0.05,1.066,0.05,1.5
			c1.8-2.967,4.316-4.95,7.55-5.95c1.9-0.433,3.334-0.8,4.301-1.1c1.699-0.567,2.933-1.383,3.699-2.45c0.2,0.5,0.15,1.2-0.149,2.1
			c-0.267,0.8-0.617,1.433-1.05,1.9C36.616,79.35,35.85,79.733,34.85,79.9z M41.8,78.4L39.9,79.35c-0.9-0.033-1.351-0.733-1.351-2.1
			c0-1.267,0.267-2.267,0.8-3l1.65-1.5c0.634-0.567,0.884-1.267,0.75-2.1l2,1.35c-0.033,1-0.2,2.067-0.5,3.2
			C42.884,76.6,42.4,77.667,41.8,78.4z M41.75,36.35l1.3,0.65c0.8,0.467,1.267,1.167,1.4,2.1c0,0.133-0.017,1.017-0.05,2.65
			c0,1-0.084,1.733-0.25,2.2c-0.301,0.767-0.884,1.017-1.75,0.75C41.2,44.3,40.6,43,40.6,40.8C40.566,38.7,40.95,37.217,41.75,36.35
			z M43.3,42.55c0.066-0.367,0.101-1.333,0.101-2.9l-1-0.3c-0.634,0.267-1,0.95-1.101,2.05c-0.033,0.533,0.017,1.383,0.15,2.55
			C42.417,44.317,43.033,43.85,43.3,42.55z M32.6,27.15c1.134,0.367,1.7,0.083,1.7-0.85c0-0.933-0.517-1.7-1.55-2.3l-0.7-1.35
			c-0.434-0.767-1.416-1.083-2.95-0.95c-0.1,1.066,0.117,2.083,0.65,3.05c-0.934-0.933-1.483-2.083-1.65-3.45
			c-0.033-0.233-0.05-1.55-0.05-3.95l0.7,0.3c0.967-0.133,2.033,0.517,3.2,1.95c1.2,1.733,1.983,2.85,2.35,3.35
			c2.601,3.466,3.267,5.683,2,6.65L32.6,27.15z M36.7,23.95c-0.5-0.733-0.717-1.383-0.65-1.95L35.4,21.65
			c0.833-0.066,1.583,0.267,2.25,1c0.699,0.767,0.933,1.533,0.699,2.3C37.783,25.083,37.233,24.75,36.7,23.95z M42.05,108.6
			c0,0.101,0.033,0.217,0.101,0.351L42.2,109v0.05c0.1,0.834,0.166,1.667,0.2,2.5l0.1,2.351c0.167,5.399-0.533,9.733-2.1,13
			l0.75-2.9c0.166-0.7,0.267-1.55,0.3-2.55c-0.033-1.167-0.05-2.05-0.05-2.65c0-0.399,0-0.783,0-1.149L41.3,116
			c-0.066-0.533-0.149-1.05-0.25-1.55v-0.101c0-0.066,0-0.116,0-0.149c0-2.033-0.033-3.417-0.1-4.15
			c-0.134-1.633-0.434-2.983-0.9-4.05c-0.166-0.366-0.483-0.866-0.95-1.5c-0.533-0.667-0.883-1.167-1.05-1.5
			c-0.133-0.267-0.316-0.684-0.55-1.25c-0.233-0.4-0.45-0.533-0.65-0.4c-0.267-0.533-0.449-0.983-0.55-1.35l-0.05-0.25
			c0.434-0.7,0.967-1.3,1.6-1.8c0.334,0.066,0.667,0.217,1,0.45L38.4,98.65c0,2.033,0.083,3.366,0.25,4
			c0.199,0.699,0.533,1.416,1,2.149c0,0.033,0.449,0.684,1.35,1.95c0.033,0.033,0.066,0.083,0.1,0.15
			c0.034,0.033,0.067,0.083,0.101,0.149L42.05,108.6z M46.5,50.95c0.2,1.033-0.05,1.617-0.75,1.75c-0.533,0.1-0.917-0.217-1.15-0.95
			c-0.166-0.5-0.233-1.083-0.199-1.75l0.649-0.35C45.816,49.483,46.3,49.917,46.5,50.95z"/>
		<path style="fill-rule:evenodd;clip-rule:evenodd;fill:#8D7A61;" d="M46.05,36.65c1.334,6.033,1.967,12.617,1.9,19.75
			c0,0.267,0,0.55,0,0.85c-0.834-0.767-1.267-1.15-1.3-1.15c-0.233,0.4-0.367,1.05-0.4,1.95c0,1.133-0.033,1.817-0.1,2.05
			c-0.233,1.167-0.367,1.816-0.4,1.95c-0.167,0.633-0.417,1.217-0.75,1.75c-0.333,0.567-0.566,1.133-0.7,1.7
			c-0.066,0.333-0.166,0.933-0.3,1.8c0,0.067-0.15,0.45-0.45,1.15c-0.2,0.433-0.25,0.833-0.149,1.2c0.1,0.367,0.267,0.617,0.5,0.75
			c0.399,0.2,0.666,0.4,0.8,0.6c0.333,0.4,0.45,1.283,0.35,2.65c-0.033,1.333-0.333,2.35-0.899,3.05
			c-0.434,0.566-1.217,1.133-2.351,1.7c0.601-0.733,1.084-1.8,1.45-3.2c0.3-1.133,0.467-2.2,0.5-3.2l-2-1.35
			c0.134,0.833-0.116,1.533-0.75,2.1l-1.65,1.5c-0.533,0.733-0.8,1.733-0.8,3c0,1.367,0.45,2.066,1.351,2.1
			c-1.334,0.733-2.051,1.834-2.15,3.301c0,0.267-0.116,1.183-0.35,2.75C37.3,86.9,37.434,87.7,37.8,87.8
			c0.566,0.167,1.3-0.883,2.2-3.149c0.233-0.867,0.417-1.534,0.55-2c0.233-0.834,0.55-1.45,0.95-1.851
			c0.3-0.3,0.667-0.517,1.1-0.649c0.5-0.101,0.9-0.217,1.2-0.351l0.2-0.05c-0.1,0.167-0.184,0.35-0.25,0.55
			c-1.267,1.167-1.95,1.8-2.05,1.9c-0.667,0.767-1.101,1.583-1.3,2.45c-0.233,1-0.517,1.866-0.851,2.6
			c-0.267,0.6-0.733,1.4-1.399,2.4c-1.534,2.333-2.334,4.216-2.4,5.649c0-0.899,0.1-2.083,0.3-3.55
			c0.267-1.934,0.417-3.134,0.45-3.6c0.066-1,0.116-1.75,0.15-2.25c0.066-0.934,0.233-1.667,0.5-2.2
			c-0.801,1.366-1.384,3.3-1.75,5.8c-0.434,3.1-0.801,5.1-1.101,6c-0.533,1.634-1.25,3.3-2.149,5c-1.601,2.934-2.767,5.884-3.5,8.85
			c-0.4,1.767-0.601,4.434-0.601,8c0,0.834,0.05,2.184,0.15,4.051c0,1.633-0.233,2.916-0.7,3.85c0-0.167-0.05-0.366-0.15-0.6
			c-0.133-0.267-0.199-0.45-0.199-0.551c-0.233,1.067-0.301,2.384-0.2,3.95c0.065,0.858,0.199,2.125,0.399,3.8
			c-0.074-0.489-0.241-1.089-0.5-1.8c-0.3-1.066-0.483-1.75-0.55-2.05l-0.05,0.2c-0.1-2-0.116-4.316-0.05-6.95
			c0.267-0.066,0.434-0.25,0.5-0.55c0-0.4,0.017-0.717,0.05-0.95c0.2-2.5,0.35-4.384,0.45-5.65c0.2-2.233,0.5-4.1,0.899-5.6
			c0.334-1.3,0.934-2.967,1.801-5c0.966-2.4,1.6-4.033,1.899-4.9c1.033-2.199,1.65-3.833,1.851-4.899
			c0.199-0.867,0.267-2.017,0.199-3.45c-0.066-2.2-0.1-3.366-0.1-3.5l-1,1.6c-0.733,2.934-1.917,7.117-3.55,12.551
			c0.267-1.134,0.583-2.284,0.95-3.45c2.433-8.167,3.899-14.283,4.399-18.351l-0.05,0.5l-0.1,0.7L34.85,79.9
			c1-0.167,1.767-0.551,2.301-1.15c0.433-0.467,0.783-1.1,1.05-1.9c0.3-0.9,0.35-1.6,0.149-2.1c-0.767,1.067-2,1.883-3.699,2.45
			c-0.967,0.3-2.4,0.667-4.301,1.1c-3.233,1-5.75,2.983-7.55,5.95c-0.1-0.434-0.117-0.934-0.05-1.5
			c-0.433,1.066-1.15,2.134-2.15,3.2c-0.6,0.6-1.55,1.5-2.85,2.7c-1.633,1.699-2.617,3.017-2.95,3.949
			c-0.2,0.334-0.3,0.551-0.3,0.65l0.1,0.05c-0.1,0.4-0.15,0.834-0.15,1.3c0.733-0.066,1.233,0.233,1.5,0.9
			c0.133,0.366,0.283,0.983,0.45,1.85c0.233,0.467,0.467,0.801,0.7,1c0.033,2,0.133,3.551,0.3,4.65c0.133,0.767,0.35,1.866,0.65,3.3
			c0,0.066,0.017,0.15,0.05,0.25c-0.4-0.833-1.067-1.866-2-3.1c0.433-0.167,0.667-0.884,0.7-2.15c-0.033-1.333-0.05-2.1-0.05-2.3
			l-1.35-1.65c-0.367,1.467-0.55,2.884-0.55,4.25c-0.633-1.033-1.033-2.183-1.2-3.449c-0.267,0.633-0.45,1.583-0.55,2.85
			c-0.1,1.5-0.2,2.483-0.3,2.95c-0.2,1-0.633,2.467-1.3,4.399c-0.4,1.2-0.65,2.617-0.75,4.25c0,0.267,0,1.733,0,4.4v0.6
			c-0.5-3.166-0.483-6.366,0.05-9.6c1.2-5.333,2.067-9.884,2.6-13.65c0.7-4.866,2.5-8.916,5.4-12.149l0.25-0.2
			c-1.3,1.434-2.367,2.934-3.2,4.5c0.767-0.967,1.483-1.767,2.15-2.4c1.267-1.267,2.383-2.3,3.35-3.1c0.5-0.4,1.817-1,3.95-1.8
			c1.8-0.7,2.917-1.45,3.351-2.25c-0.301-0.034-0.817-0.034-1.551,0c0.7-1.034,2.134-1.917,4.301-2.65c1-0.2,1.75-0.4,2.25-0.6
			c0.966-0.4,1.316-0.95,1.05-1.65c-1.566-0.233-2.967-0.15-4.2,0.25c1.6-1.233,3.116-2.283,4.55-3.15l-0.2,0.15h0.25
			c1,0.1,1.784,0.184,2.351,0.25c1,0.167,1.733,0.417,2.2,0.75c0.199-0.3,0.683-0.9,1.449-1.8c0.601-0.733,1.034-1.35,1.301-1.85
			c0.466-0.833,0.75-1.933,0.85-3.3c0.1-1.533,0.184-2.684,0.25-3.45c0.167-1.533,0.25-3.383,0.25-5.55v-3
			c-0.033-0.567-0.134-1.3-0.3-2.2c-0.2-1.066-0.316-1.783-0.351-2.15c0.134,3.267,0.117,5.583-0.05,6.95
			c-0.133,0.3-0.316,1.05-0.55,2.25l-0.35,0.9c-0.867,1.633-1.517,1.917-1.95,0.85c-0.3-0.767-0.45-1.95-0.45-3.55
			c0.066-2,0.1-3.517,0.1-4.55c0.067-1.833,0-3.333-0.199-4.5c-0.567-3.934-2.567-7.917-6-11.95c-2.2-2.533-4.084-4.25-5.65-5.15
			c-1.467-0.867-2.35-1.783-2.65-2.75c0.167,0.167,0.4,0.2,0.7,0.1v-2.25l-1.3-0.7l0.3,0.15c-0.166-1.8-0.267-3.15-0.3-4.05
			c-0.033-1.133-0.4-2.25-1.1-3.35c-0.334-0.533-1.05-1.467-2.15-2.8c-0.5-0.633-1.3-1.467-2.4-2.5c-0.233-0.233-0.9-0.883-2-1.95
			c0.733-0.433,1.6-0.767,2.6-1c0.333-0.1,0.667-0.183,1-0.25l0.7-0.05c0.067,1.2,0.3,2.133,0.7,2.8v0.3h0.25
			c0.7,0.867,1.817,1.2,3.35,1C25.866,9.417,25.616,8,24.95,6.7c-0.3-0.034-0.566-0.05-0.8-0.05c0.933-0.033,1.899,0.233,2.899,0.8
			c0.066,0.033,0.134,0.066,0.2,0.1L27.3,7.6c-0.633-0.367-1.267-0.633-1.899-0.8c-0.034,0.867,0.283,1.967,0.949,3.3
			c0.601,1.167,1.267,2.117,2,2.85l-0.6-0.3c-0.134,0.5,0.116,1,0.75,1.5c0.767,0.533,1.283,0.9,1.55,1.1
			c0.467,0.333,1.101,0.983,1.9,1.95c0.767,0.933,1.333,1.517,1.7,1.75c0.133-0.3,0.166-0.667,0.1-1.1
			c0.066,0.066,1.35,1.117,3.85,3.15c0.467,0.367,0.834,0.783,1.101,1.25c0.166,0.367,0.316,0.883,0.45,1.55
			c0.066,0.333,0.216,0.967,0.449,1.9c0.167,0.867,0.2,1.5,0.101,1.9c-1.167,0.1-1.733,0.4-1.7,0.9c0,0.333,0.217,1.05,0.65,2.15
			c0.199,0.667,0.216,1.65,0.05,2.95c-0.867,0.333-2.25-0.467-4.15-2.4c-2.333-2.4-3.583-3.65-3.75-3.75
			c1.767,3.667,3.217,6.183,4.351,7.55c0.866,0.833,1.5,1.5,1.899,2c0.167,0.2,0.434,0.617,0.8,1.25
			c0.334,0.533,0.601,0.9,0.801,1.1c-0.101-1.633-0.134-2.833-0.101-3.6c0.033-1.367,0.65-1.867,1.851-1.5
			c0.5,0.133,1.3,0.617,2.399,1.45c0.9,0.667,1.8,0.983,2.7,0.95H46.05z M41.75,36.35c-0.8,0.867-1.184,2.35-1.15,4.45
			c0,2.2,0.601,3.5,1.801,3.9c0.866,0.267,1.449,0.017,1.75-0.75c0.166-0.467,0.25-1.2,0.25-2.2c0.033-1.633,0.05-2.517,0.05-2.65
			c-0.134-0.934-0.601-1.633-1.4-2.1L41.75,36.35z M40.75,43.5c-0.467-1.533-0.783-2.733-0.95-3.6l0.95,6.1
			c0,1.233-0.033,3.117-0.1,5.65c-0.067,2.267-0.017,4.15,0.149,5.65c1,0.333,1.417-1.55,1.25-5.65c0-0.566-0.116-1.983-0.35-4.25
			C41.6,46.5,41.283,45.2,40.75,43.5z M29.75,24.75c0.533,0.933,1.316,1.65,2.35,2.15l0.5,0.25l3.7,2.45
			c1.267-0.967,0.601-3.184-2-6.65c-0.366-0.5-1.149-1.617-2.35-3.35c-1.167-1.434-2.233-2.083-3.2-1.95l-0.7-0.3
			c0,2.4,0.017,3.717,0.05,3.95C28.267,22.667,28.816,23.817,29.75,24.75z M20.85,15.65c-0.6-1.133-1.083-1.917-1.45-2.35
			c-0.333-0.4-1-1-2-1.8c-1.167-0.933-1.917-1.35-2.25-1.25c-0.767,0.233-0.6,1.117,0.5,2.65c1.3,1.6,2,2.517,2.1,2.75
			c0.633,1.567,1.067,2.45,1.3,2.65c0.434,0.467,1.333,0.7,2.7,0.7l0.65-1C21.933,17.533,21.417,16.75,20.85,15.65z M12.9,12
			l-1.45,1.8c-0.467,0.7-0.917,1.483-1.35,2.35c0.367-0.8,0.833-1.617,1.4-2.45C11.867,13.2,12.333,12.633,12.9,12
			c0.333-0.367,0.684-0.75,1.05-1.15s0.767-0.817,1.2-1.25c0.067-0.067,0.15-0.15,0.25-0.25C15.533,9.217,15.667,9.1,15.8,9
			c0.4-0.333,0.833-0.617,1.3-0.85c1.767,2.233,3.05,3.917,3.85,5.05c1.4,1.966,2.25,3.9,2.55,5.8c0.066,0.333,0.167,0.867,0.3,1.6
			c0.033,0.6-0.184,1.05-0.649,1.35c-0.667,0.433-1.583,0.117-2.75-0.95c-1.5-1.433-2.483-2.65-2.95-3.65
			c-0.1-0.233-0.284-0.85-0.55-1.85c-0.2-0.767-0.45-1.35-0.75-1.75c-0.1,0.967-0.517,1.4-1.25,1.3
			C13.933,14.583,13.267,13.567,12.9,12z M36.7,23.95c0.533,0.8,1.083,1.133,1.649,1c0.233-0.767,0-1.534-0.699-2.3
			c-0.667-0.733-1.417-1.066-2.25-1L36.05,22C35.983,22.567,36.2,23.217,36.7,23.95z M31.45,50.75
			c-0.066-0.133-0.134-0.283-0.2-0.45c-0.134-0.3-0.283-0.633-0.45-1c0.134,0.267,0.25,0.517,0.351,0.75
			C31.25,50.283,31.35,50.517,31.45,50.75z M31.65,80.25l0.699-0.3l0.801-0.3C32.616,79.884,32.116,80.083,31.65,80.25z M40.3,90.05
			c-0.166,1.767-0.267,3.351-0.3,4.75c0-1.233,0.066-2.6,0.2-4.1L40.3,90.05z M36.1,99.2l0.15,0.55L36.3,100L36.1,99.2z M40.2,99.45
			c0.033,0.3,0.066,0.649,0.1,1.05c0.033,0.366,0.084,0.717,0.15,1.05c0.1,0.566,0.233,1.05,0.399,1.45
			c-0.133-0.3-0.267-0.75-0.399-1.35v-0.101C40.35,101.116,40.267,100.417,40.2,99.45z M42.15,108.9v0.05
			c-0.067-0.134-0.101-0.25-0.101-0.351C42.083,108.7,42.116,108.8,42.15,108.9z M41.05,114.2c-0.233-1.601-0.583-3.217-1.05-4.851
			c-0.333-1.267-0.583-2.199-0.75-2.8c-0.3-1-0.667-1.883-1.1-2.649c-0.534-1-0.967-1.851-1.301-2.551c0.2-0.133,0.417,0,0.65,0.4
			c0.233,0.566,0.417,0.983,0.55,1.25c0.167,0.333,0.517,0.833,1.05,1.5c0.467,0.634,0.784,1.134,0.95,1.5
			c0.467,1.066,0.767,2.417,0.9,4.05C41.017,110.783,41.05,112.167,41.05,114.2z M46.5,50.95c-0.2-1.034-0.684-1.467-1.45-1.3
			L44.4,50c-0.034,0.667,0.033,1.25,0.199,1.75c0.233,0.733,0.617,1.05,1.15,0.95C46.45,52.567,46.7,51.983,46.5,50.95z
			 M30.175,144.575L30.2,144.6l0.2,0.75C30.309,145.077,30.233,144.818,30.175,144.575z M26.9,133.45
			c-0.101-0.3-0.15-0.467-0.15-0.5c-0.134-0.733-0.25-1.533-0.35-2.4C26.533,131.517,26.7,132.483,26.9,133.45z M30.95,110.175
			c-0.071,0.141-0.129,0.273-0.175,0.4l0.074-0.226L30.95,110.175z M11.75,121.9l-0.35-1.25c-0.1-0.4-0.2-0.817-0.3-1.25
			L11.75,121.9z M15.05,102.9L15,102.85v-0.05c-0.133-0.6-0.367-1.2-0.7-1.8c0.3,0.5,0.517,0.967,0.65,1.4L15,102.8
			C15.017,102.833,15.033,102.866,15.05,102.9z M33.6,157.225c0.001,0.123,0.019,0.281,0.051,0.476
			c-0.101-0.5-0.217-1.05-0.351-1.65c0.101,0.4,0.2,0.767,0.3,1.101V157.225z"/>
		<path style="fill-rule:evenodd;clip-rule:evenodd;fill:#9F896E;" d="M27.3,7.6c0.167,0.1,0.334,0.2,0.5,0.3l0.95,0.75
			c2.333,2.333,4.8,5.2,7.4,8.6c5.166,6.767,8.366,12.8,9.6,18.1c0.1,0.433,0.2,0.867,0.3,1.3H45.5c-0.9,0.033-1.8-0.283-2.7-0.95
			c-1.1-0.833-1.899-1.317-2.399-1.45c-1.2-0.367-1.817,0.133-1.851,1.5c-0.033,0.767,0,1.967,0.101,3.6
			c-0.2-0.2-0.467-0.567-0.801-1.1c-0.366-0.633-0.633-1.05-0.8-1.25c-0.399-0.5-1.033-1.167-1.899-2
			c-1.134-1.367-2.584-3.883-4.351-7.55c0.167,0.1,1.417,1.35,3.75,3.75c1.9,1.933,3.283,2.733,4.15,2.4
			c0.166-1.3,0.149-2.283-0.05-2.95C38.217,29.55,38,28.833,38,28.5c-0.033-0.5,0.533-0.8,1.7-0.9c0.1-0.4,0.066-1.033-0.101-1.9
			c-0.233-0.934-0.383-1.567-0.449-1.9c-0.134-0.667-0.284-1.183-0.45-1.55c-0.267-0.467-0.634-0.883-1.101-1.25
			c-2.5-2.033-3.783-3.083-3.85-3.15c0.066,0.433,0.033,0.8-0.1,1.1c-0.367-0.233-0.934-0.817-1.7-1.75
			c-0.8-0.967-1.434-1.617-1.9-1.95c-0.267-0.2-0.783-0.567-1.55-1.1c-0.634-0.5-0.884-1-0.75-1.5l0.6,0.3
			c-0.733-0.733-1.399-1.684-2-2.85c-0.666-1.333-0.983-2.434-0.949-3.3C26.033,6.967,26.667,7.233,27.3,7.6z M25.35,25.5
			c-0.267-0.2-0.433-0.65-0.5-1.35c-0.033-0.767-0.066-1.267-0.1-1.5l1.3,0.7v2.25C25.75,25.7,25.517,25.667,25.35,25.5z M19.05,82
			c0.6-0.667,1.25-1.316,1.95-1.95c1.867-1.5,3.384-2.716,4.55-3.65l1-0.85c0.066-0.066,0.134-0.133,0.2-0.2l3.3-2.7
			c0.134-0.133,0.267-0.25,0.4-0.35h0.05c1.233-0.4,2.634-0.483,4.2-0.25c0.267,0.7-0.084,1.25-1.05,1.65
			c-0.5,0.2-1.25,0.4-2.25,0.6c-2.167,0.733-3.601,1.617-4.301,2.65c0.733-0.034,1.25-0.034,1.551,0
			c-0.434,0.8-1.551,1.55-3.351,2.25C23.167,80,21.85,80.6,21.35,81c-0.967,0.8-2.083,1.833-3.35,3.1
			c-0.667,0.634-1.383,1.434-2.15,2.4C16.683,84.934,17.75,83.434,19.05,82z M15.05,102.9c-0.017-0.034-0.033-0.067-0.05-0.101
			l-0.05-0.399l-0.1-0.801c0-1.366,0.183-2.783,0.55-4.25L16.75,99c0,0.2,0.017,0.967,0.05,2.3c-0.033,1.267-0.267,1.983-0.7,2.15
			c-0.2,0.066-0.434,0.017-0.7-0.15h-0.05l-0.05-0.1l-0.05-0.05C15.183,103.05,15.117,102.967,15.05,102.9z M26.2,121.25l0.2-4.9
			c0-0.199,0.017-0.416,0.05-0.649l1.6-10.4c0.267-1.233,0.566-2.467,0.9-3.7c0.066-0.233,0.149-0.466,0.25-0.699
			c1.633-5.434,2.816-9.617,3.55-12.551l1-1.6c0,0.134,0.033,1.3,0.1,3.5c0.067,1.434,0,2.583-0.199,3.45
			c-0.2,1.066-0.817,2.7-1.851,4.899c-0.3,0.867-0.934,2.5-1.899,4.9c-0.867,2.033-1.467,3.7-1.801,5
			c-0.399,1.5-0.699,3.366-0.899,5.6c-0.101,1.267-0.25,3.15-0.45,5.65c-0.033,0.233-0.05,0.55-0.05,0.95
			C26.634,121,26.467,121.184,26.2,121.25z M39.9,79.35L41.8,78.4c1.134-0.566,1.917-1.133,2.351-1.7
			c0.566-0.7,0.866-1.717,0.899-3.05c0.101-1.367-0.017-2.25-0.35-2.65c-0.134-0.2-0.4-0.4-0.8-0.6c-0.233-0.133-0.4-0.383-0.5-0.75
			c-0.101-0.367-0.051-0.767,0.149-1.2c0.3-0.7,0.45-1.083,0.45-1.15c0.134-0.867,0.233-1.466,0.3-1.8
			c0.134-0.567,0.367-1.133,0.7-1.7c0.333-0.533,0.583-1.117,0.75-1.75c0.033-0.133,0.167-0.783,0.4-1.95
			c0.066-0.233,0.1-0.917,0.1-2.05c0.033-0.9,0.167-1.55,0.4-1.95c0.033,0,0.466,0.383,1.3,1.15c-0.033,1.933-0.117,3.8-0.25,5.6
			c-0.367,4.933-1.134,9.2-2.3,12.8c-0.334,1-0.717,2.117-1.15,3.35L44,79.7v0.05l-0.2,0.05c-0.3,0.134-0.7,0.25-1.2,0.351
			c-0.433,0.133-0.8,0.35-1.1,0.649c-0.4,0.4-0.717,1.017-0.95,1.851c-0.133,0.466-0.316,1.133-0.55,2
			c-0.9,2.267-1.634,3.316-2.2,3.149C37.434,87.7,37.3,86.9,37.4,85.4c0.233-1.567,0.35-2.483,0.35-2.75
			C37.85,81.184,38.566,80.083,39.9,79.35z M40.75,43.5c0.533,1.7,0.85,3,0.95,3.9c0.233,2.267,0.35,3.684,0.35,4.25
			c0.167,4.1-0.25,5.983-1.25,5.65c-0.166-1.5-0.217-3.383-0.149-5.65c0.066-2.533,0.1-4.417,0.1-5.65l-0.95-6.1
			C39.967,40.767,40.283,41.967,40.75,43.5z M20.85,15.65c0.566,1.1,1.083,1.883,1.55,2.35l-0.65,1c-1.367,0-2.267-0.233-2.7-0.7
			c-0.233-0.2-0.667-1.083-1.3-2.65c-0.1-0.233-0.8-1.15-2.1-2.75c-1.1-1.533-1.267-2.417-0.5-2.65c0.333-0.1,1.083,0.317,2.25,1.25
			c1,0.8,1.667,1.4,2,1.8C19.767,13.733,20.25,14.517,20.85,15.65z"/>
		<path style="fill-rule:evenodd;clip-rule:evenodd;fill:#5B4E3E;" d="M22.1,9.65l-0.05-2l1,0.35c0.267-0.067,0.483-0.05,0.65,0.05
			c0.033,0.633,0.033,1.267,0,1.9c-0.434,0.1-0.883,0.1-1.35,0H22.1V9.65z M43.05,53.95l0.05-0.1c-0.066,2.5-0.267,4.217-0.6,5.15
			c-0.2,0.567-0.55,1.117-1.05,1.65c-0.267,0.267-0.717,0.717-1.351,1.35c-0.767,0.867-1.216,1.967-1.35,3.3
			c-0.033,0.367,0.033,0.967,0.2,1.8c0.133,0.733,0.133,1.333,0,1.8c-0.667-0.433-1.717-0.65-3.15-0.65
			c0.533-0.1,0.9-0.317,1.101-0.65c0.1-0.167,0.267-0.717,0.5-1.65c0.466-1.167,0.8-2.05,1-2.65c0.166-0.433,0.283-1.367,0.35-2.8
			c-0.134,0.233-0.583,0.617-1.35,1.15c-0.567,0.367-0.801,0.833-0.7,1.4c-0.733,0.133-1.167-0.367-1.3-1.5
			c-0.134-1-0.051-1.85,0.25-2.55c0.133-0.333,0.399-0.683,0.8-1.05c0.434-0.434,0.75-0.767,0.95-1
			c0.133,2.066,0.783,2.95,1.949,2.65c0.101-0.6,0.15-1.017,0.15-1.25c0.233,0.533,0.583,0.85,1.05,0.95
			c0.467,0.1,0.867-0.1,1.2-0.6c0.3-0.467,0.55-1.3,0.75-2.5C42.733,55,42.917,54.25,43.05,53.95z M14.6,93.3l-0.1-0.05
			c0-0.1,0.1-0.316,0.3-0.65c0.267-0.366,0.8-0.816,1.6-1.35c0.9-0.634,1.45-1.05,1.65-1.25l0.25,0.25L17.75,91
			c-0.3,0.434-0.617,0.983-0.95,1.65l0.15,1.149H16.9C16.2,93.533,15.433,93.366,14.6,93.3z M40.4,74.65V74
			c0.1-0.733,0.616-0.983,1.55-0.75c0.899,0.267,1.25,0.917,1.05,1.95c-0.167,0.667-0.45,1.216-0.85,1.65
			c-0.5,0.533-1.067,0.683-1.7,0.45C40.417,77.033,40.4,76.15,40.4,74.65z M35.5,79.1c-0.233,0.167-0.566,0.334-1,0.5l0.05-0.5
			L33.15,79.65l-0.801,0.3L31.8,80c-1.033,0.066-2.033,0.316-3,0.75c-0.934,0.4-1.633,0.733-2.1,1c-0.634,0.4-1.2,0.917-1.7,1.55
			l-0.65,0.9L23,85.25V85.2l0.1-0.5c0.233-0.601,0.9-1.334,2-2.2c1.233-0.9,2.034-1.517,2.4-1.85c1.3-1.134,2.934-1.8,4.9-2
			c2-0.133,3.416-0.517,4.25-1.15c-0.233,0.5-0.601,1.017-1.101,1.55L35.5,79.1z M43.3,42.55c-0.267,1.3-0.883,1.767-1.85,1.4
			c-0.134-1.167-0.184-2.017-0.15-2.55c0.101-1.1,0.467-1.783,1.101-2.05l1,0.3C43.4,41.217,43.366,42.183,43.3,42.55z M32.6,27.15
			l-0.5-0.25c-1.033-0.5-1.816-1.217-2.35-2.15c-0.533-0.967-0.75-1.983-0.65-3.05c1.534-0.133,2.517,0.183,2.95,0.95l0.7,1.35
			c1.033,0.6,1.55,1.367,1.55,2.3C34.3,27.233,33.733,27.517,32.6,27.15z M11.45,13.8L12.9,12c0.367,1.567,1.033,2.583,2,3.05
			c0.281,0.188,0.64,0.288,1.075,0.3c-1.361-0.005-2.303-0.122-2.825-0.35C12.617,14.8,12.05,14.4,11.45,13.8z M35.25,45.1
			c0.7,1.467,1.2,3.1,1.5,4.9c0.1,0.567,0.05,1.367-0.15,2.4c-0.233,1.033-0.316,1.783-0.25,2.25
			c-0.866,0.333-2.433-2.117-4.699-7.35c-0.7-1.667-1.233-2.917-1.601-3.75c-0.633-1.5-1.316-2.683-2.05-3.55
			c-0.434-0.5-1-1.083-1.7-1.75c-0.399-0.333-1.017-0.867-1.85-1.6c-1.5-1.4-2.4-2.4-2.7-3c-0.133-0.333-0.167-0.883-0.1-1.65
			c0.067-0.8,0.1-1.35,0.1-1.65c-0.167-1.167-0.283-2.05-0.35-2.65c0.067,0.833,0.05,1.583-0.05,2.25
			c-1.967,0.233-3.7-0.217-5.2-1.35c-0.267-0.233-0.617-0.633-1.05-1.2c-0.434-0.566-0.783-0.967-1.05-1.2
			c-0.3-0.267-0.75-0.633-1.35-1.1c-0.5-0.434-0.9-0.85-1.2-1.25c-1.333-1.833-2-3.817-2-5.95c0.133-0.566,0.333-1.15,0.6-1.75
			c-0.067,1.133,0.05,2.05,0.35,2.75c0.7,1.467,1.767,2.95,3.2,4.45c1.267,1.5,2.283,2.583,3.05,3.25c1.367,1.2,2.7,1.65,4,1.35
			c0.2-0.767,0.017-1.467-0.55-2.1c-0.333-0.367-0.917-0.883-1.75-1.55c-0.7-0.667-1.3-1.466-1.8-2.4c-0.5-0.967-0.8-1.917-0.9-2.85
			c0.2,0.3,0.517,0.85,0.95,1.65c0.4,0.733,0.75,1.283,1.05,1.65c1.167,0.933,1.983,1.667,2.45,2.2c1,1.133,1.65,2,1.95,2.6
			c0.167,0.367,0.383,1.133,0.65,2.3c0.2,0.966,0.533,1.7,1,2.2c0.366,0.434,1.033,0.934,2,1.5c0.934,0.567,1.583,1.067,1.95,1.5
			c0.333,0.367,0.6,0.8,0.8,1.3c0.134,0.267,0.316,0.733,0.55,1.4c0.134,0.3,0.417,0.767,0.851,1.4c0.399,0.6,0.666,1.083,0.8,1.45
			c0.833,2.267,1.517,3.95,2.05,5.05c0.333,0.9,0.634,1.567,0.9,2c0.5,0.833,1.066,1.183,1.699,1.05
			C35.483,47.2,35.45,46.133,35.25,45.1z M32.1,38.4c-1.533-2.4-2.533-4.25-3-5.55c1.567,2.1,2.434,3.283,2.601,3.55
			C31.667,36.933,31.8,37.6,32.1,38.4z M35.3,43.4L34.4,42c-0.301-0.533-0.834-1.4-1.601-2.6c-0.6-1.1-0.95-2.066-1.05-2.9
			c0.9,1.233,1.616,2.383,2.15,3.45C34.267,40.617,34.733,41.767,35.3,43.4z M40.2,90.7c-0.434,0.434-1.066,1.233-1.9,2.399
			l-0.25,0.25c0.367-0.866,0.733-1.517,1.101-1.949L40.3,90.05L40.2,90.7z M42.15,108.9c-0.034-0.101-0.067-0.2-0.101-0.301
			l-0.85-1.55c-0.033-0.066-0.066-0.116-0.101-0.149c-0.033-0.067-0.066-0.117-0.1-0.15c-0.9-1.267-1.35-1.917-1.35-1.95
			c-0.467-0.733-0.801-1.45-1-2.149c-0.167-0.634-0.25-1.967-0.25-4l0.449-0.25c-0.333-0.233-0.666-0.384-1-0.45
			c0.467-0.367,0.884-0.483,1.25-0.351l0.45,0.301c0.267,0.366,0.483,0.883,0.65,1.55c0.066,0.967,0.149,1.666,0.25,2.1v0.101
			c0.133,0.6,0.267,1.05,0.399,1.35c0.534,1.634,0.867,2.833,1,3.6c1.767,1.7,2.867,2.867,3.301,3.5
			c0.966,1.301,1.399,2.567,1.3,3.801c0.033-0.7-0.217-1.45-0.75-2.25c-0.5-0.801-1.134-1.483-1.9-2.051
			c-0.866-0.699-1.45-1.3-1.75-1.8v0.2l0.15,1C42.167,108.966,42.15,108.933,42.15,108.9z M30.85,110.35l-0.074,0.226l-0.025,0.075
			c-1.5,3.733-2.134,8.666-1.9,14.8c0.2,4.6,0.834,9.45,1.9,14.55c0.167,0.833,0.333,1.7,0.5,2.6l0.25,1.25c0,0.034,0,0.067,0,0.101
			c0.167,2.267,0.667,5.583,1.5,9.95l0.25,1.8c-0.566-2.434-1.517-5.884-2.85-10.351l-0.2-0.75L29.1,135.65
			c-0.466-4.034-0.699-7.584-0.699-10.65c-0.067-2.8-0.117-4.917-0.15-6.35c-0.033-2.5,0.134-4.584,0.5-6.25
			c0.733-3.5,2.283-7.617,4.65-12.351c0.366-0.633,0.767-1.233,1.199-1.8c-0.199,0.8-0.283,1.55-0.25,2.25
			c-0.866,2.4-1.633,4.35-2.3,5.85C31.583,107.45,31.184,108.783,30.85,110.35z M14.15,101.5v0.05c-0.267,1.566-0.733,4.834-1.4,9.8
			c-0.4,2.934-0.3,7.034,0.3,12.301c0.3,2.633,0.633,4.966,1,7l-2.3-8.75l-0.65-2.5l-0.05-5.45c-0.033-1.167-0.033-2.017,0-2.55
			c0.034-0.967,0.217-1.784,0.55-2.45c0.767-1.467,1.233-2.767,1.4-3.9c0.1-1.033,0.2-1.833,0.3-2.399
			c0.167-0.967,0.4-1.717,0.7-2.25L14.15,101.5z M18.35,112c-0.067,1.6-0.184,3.267-0.35,5c-0.267-0.233-0.45-0.95-0.55-2.15
			c-0.167-1.6-0.267-2.433-0.3-2.5l-0.3-2.399c0-0.167-0.017-0.334-0.05-0.5c0-0.233-0.017-0.45-0.05-0.65
			c0.867,1.834,1.333,2.8,1.4,2.9L18.35,112z"/>
		
			<radialGradient id="SVGID_1_" cx="26.5" cy="-6" r="27.025" gradientTransform="matrix(1 0 0 -1 0 -12)" gradientUnits="userSpaceOnUse">
			<stop  offset="0.0784" style="stop-color:#211C15;stop-opacity:0.498"/>
			<stop  offset="0.2039" style="stop-color:#211C15;stop-opacity:0.498"/>
		</radialGradient>
		<path style="fill-rule:evenodd;clip-rule:evenodd;fill:url(#SVGID_1_);" d="M24.15,6.65l-2.75,0.1c0,0.033,0,0.067,0,0.1L20.7,6.9
			c-0.333,0.067-0.667,0.15-1,0.25c0.433-0.533,0.667-1.133,0.7-1.8C20.433,4.583,20.383,4,20.25,3.6s-0.417-0.917-0.85-1.55
			c-0.133-0.2-0.383-0.517-0.75-0.95c-0.333-0.4-0.533-0.767-0.6-1.1c1.067,0.1,2.3,0.883,3.7,2.35c1.434,1.5,2.1,2.8,2,3.9
			c1,0.1,1.65-0.383,1.95-1.45c0.233-1.333,0.434-2.216,0.6-2.65c0.434,0.7,0.684,1.7,0.75,3v2.3
			C26.05,6.883,25.083,6.617,24.15,6.65z M13.95,10.85c-0.367,0.4-0.717,0.783-1.05,1.15c-0.566,0.633-1.033,1.2-1.4,1.7
			c-0.567,0.833-1.033,1.65-1.4,2.45c-0.267,0.6-0.467,1.184-0.6,1.75c-0.033,0.167-0.067,0.317-0.1,0.45
			c-0.233,1.133-0.316,2.233-0.25,3.3h-0.1c-1.133,0.067-1.283,1-0.45,2.8c0.533,1.2,1.183,2.283,1.95,3.25
			c1.133,1.333,1.883,2.433,2.25,3.3c0.233,0.467,0.35,1.117,0.35,1.95c-0.033,1.1-0.033,1.767,0,2c0.3,0,0.667-0.534,1.1-1.6
			c0.433-1,0.95-1.434,1.55-1.3c0.3,0.067,0.75,0.6,1.35,1.6c0.5,0.8,1.15,1.033,1.95,0.7c0.167-0.067,0.35-0.2,0.55-0.4
			c1.033,0.9,1.95,1.75,2.75,2.55c-1.167,0.733-1.967,1.833-2.4,3.3c-0.067,0.3-0.217,0.867-0.45,1.7
			c-0.233,0.733-0.6,1.117-1.1,1.15c-0.034-1.7-0.083-2.933-0.15-3.7c-0.167-1.3-0.683-2.4-1.55-3.3c-1.2-1.267-1.9-1.316-2.1-0.15
			c-0.033,0.167-0.066,0.367-0.1,0.6L14.4,36c-0.4,0.133-0.733,0.517-1,1.15c-0.1,0.267-0.15,0.5-0.15,0.7
			c-0.3-0.467-0.5-1.117-0.6-1.95c-0.333-2.3-0.517-3.5-0.55-3.6c-0.567-1.2-1.533-1.483-2.9-0.85c-0.767,0.367-1.9,0.966-3.4,1.8
			c-0.1-0.333,0.8-1.15,2.7-2.45c1.7-1.1,1.9-2.117,0.6-3.05c-0.167-0.1-0.417-0.183-0.75-0.25C8.083,27.467,7.867,27.3,7.7,27
			c0.033-0.7,0.05-1.15,0.05-1.35c-0.267-1.167-0.383-2.033-0.35-2.6c-0.066,0-0.816,0.017-2.25,0.05l-0.1-0.75
			C4.817,22.717,4.2,22.967,3.2,23.1c-1.1-0.033-1.883-0.267-2.35-0.7l4.9-0.7c1.7-0.567,2.467-1.784,2.3-3.65
			c-1.433-0.133-2.566-0.316-3.4-0.55c-1-0.3-1.917-0.717-2.75-1.25c0.833,0.5,1.934,0.683,3.3,0.55
			c1.533-0.2,2.683-0.716,3.45-1.55c0.8-0.933,1.167-2.017,1.1-3.25c-0.1-0.6-0.183-1.067-0.25-1.4c-0.1-0.567-0.033-0.967,0.2-1.2
			c1.2,0.833,1.983,1.317,2.35,1.45C12.717,11.117,13.35,11.117,13.95,10.85z M15.8,9c-0.133,0.1-0.267,0.217-0.4,0.35
			c-0.1,0.1-0.183,0.183-0.25,0.25c0.133-0.267,0.333-0.467,0.6-0.6H15.8z"/>
		
			<radialGradient id="SVGID_2_" cx="16.75" cy="0" r="4.4625" gradientTransform="matrix(1 0 0 -1 0 0)" gradientUnits="userSpaceOnUse">
			<stop  offset="0.0549" style="stop-color:#FEDEB1;stop-opacity:0.0863"/>
			<stop  offset="0.2392" style="stop-color:#FEDEB1;stop-opacity:0.0863"/>
		</radialGradient>
		<path style="fill-rule:evenodd;clip-rule:evenodd;fill:url(#SVGID_2_);" d="M16.4,1.65l0.9,1.05c0.333,0.333,0.483,0.767,0.45,1.3
			c0,0.967-0.133,1.717-0.4,2.25c-0.333,0.6-1.017,1.067-2.05,1.4c-0.867,0.3-1.7,0.417-2.5,0.35c-0.667-0.067-1.1-0.15-1.3-0.25
			c-0.233-0.167-0.367-0.533-0.4-1.1c-0.033-0.467,0.066-0.816,0.3-1.05c0.434-0.533,0.667-0.817,0.7-0.85
			c0.133-0.2,0.2-0.483,0.2-0.85c0.034-0.4,0.083-0.7,0.15-0.9c0.233-0.633,1.1-1.3,2.6-2L16.4,1.65z"/>
		
			<radialGradient id="SVGID_3_" cx="7" cy="11.5498" r="1.925" gradientTransform="matrix(1 0 0 -1 0 23.0996)" gradientUnits="userSpaceOnUse">
			<stop  offset="0.0549" style="stop-color:#FEDEB1;stop-opacity:0.0863"/>
			<stop  offset="0.2392" style="stop-color:#FEDEB1;stop-opacity:0.0863"/>
		</radialGradient>
		<path style="fill-rule:evenodd;clip-rule:evenodd;fill:url(#SVGID_3_);" d="M6.05,12H7.4c0,1.133-0.117,1.917-0.35,2.35
			c-0.367,0.633-1.1,0.833-2.2,0.6c-0.2-0.4-0.133-0.934,0.2-1.6C5.317,12.817,5.65,12.367,6.05,12z"/>
		<path style="fill-rule:evenodd;clip-rule:evenodd;fill:#43392C;" d="M34.5,79.6c0.434-0.166,0.767-0.333,1-0.5
			c-0.134,0.233-0.35,0.5-0.65,0.801L34.4,80.3L34.5,79.6z M35.3,43.4c1.367,2.1,2.184,3.733,2.45,4.9c0.767,3.434,0.85,6,0.25,7.7
			c-0.066,0.233-0.267,0.55-0.6,0.95c-0.2,0.233-0.517,0.566-0.95,1c-0.4,0.367-0.667,0.716-0.8,1.05
			c-0.301,0.7-0.384,1.55-0.25,2.55c0.133,1.133,0.566,1.633,1.3,1.5c-0.101-0.566,0.133-1.033,0.7-1.4
			c0.767-0.533,1.216-0.917,1.35-1.15c-0.066,1.433-0.184,2.367-0.35,2.8c-0.2,0.6-0.534,1.483-1,2.65
			c-0.233,0.933-0.4,1.483-0.5,1.65c-0.2,0.333-0.567,0.55-1.101,0.65l-0.7,0.1h-0.05l-1.5-11.3c-0.166-0.633-0.35-1.267-0.55-1.9
			l-1.55-4.4c-0.101-0.233-0.2-0.467-0.3-0.7c-0.101-0.233-0.217-0.483-0.351-0.75L26,41.15c-0.167-0.267-0.316-0.517-0.45-0.75
			c-0.166-0.233-0.333-0.483-0.5-0.75c-0.6-0.933-1.483-1.983-2.65-3.15c-0.8-0.8-1.717-1.65-2.75-2.55
			c-0.967-0.833-2.033-1.717-3.2-2.65c-4.1-3.233-6.233-5.117-6.4-5.65c-0.433-1.333-0.7-2.383-0.8-3.15
			c-0.033-0.3-0.067-0.583-0.1-0.85c-0.066-1.066,0.017-2.167,0.25-3.3c0.033-0.133,0.067-0.283,0.1-0.45
			c0,2.133,0.667,4.117,2,5.95c0.3,0.4,0.7,0.816,1.2,1.25c0.6,0.467,1.05,0.833,1.35,1.1c0.267,0.233,0.617,0.633,1.05,1.2
			c0.433,0.567,0.783,0.967,1.05,1.2c1.5,1.133,3.233,1.583,5.2,1.35c0.1-0.667,0.117-1.417,0.05-2.25
			c0.067,0.6,0.184,1.483,0.35,2.65c0,0.3-0.033,0.85-0.1,1.65c-0.066,0.767-0.033,1.317,0.1,1.65c0.3,0.6,1.2,1.6,2.7,3
			c0.833,0.733,1.45,1.267,1.85,1.6C27,38.917,27.566,39.5,28,40c0.733,0.867,1.417,2.05,2.05,3.55
			c0.367,0.833,0.9,2.083,1.601,3.75c2.267,5.233,3.833,7.684,4.699,7.35c-0.066-0.467,0.017-1.217,0.25-2.25
			c0.2-1.033,0.25-1.833,0.15-2.4c-0.3-1.8-0.8-3.433-1.5-4.9c-0.134-0.3-0.283-0.567-0.45-0.8c-0.434-0.7-1.083-2.117-1.95-4.25
			L32.1,38.4c-0.3-0.8-0.433-1.467-0.399-2l0.05-0.3v0.4c0.1,0.833,0.45,1.8,1.05,2.9c0.767,1.2,1.3,2.067,1.601,2.6L35.3,43.4z
			 M32.35,79.95l-0.699,0.3l-0.7,0.3c-0.767,0.3-1.4,0.566-1.9,0.8l-1.1,0.551c-1.101,0.566-2.3,1.333-3.601,2.3L25,83.3
			c0.5-0.633,1.066-1.149,1.7-1.55c0.467-0.267,1.166-0.6,2.1-1c0.967-0.434,1.967-0.684,3-0.75L32.35,79.95z M30.95,110.175
			l-0.101,0.175c0.334-1.566,0.733-2.899,1.2-4c0.667-1.5,1.434-3.449,2.3-5.85c-0.033-0.7,0.051-1.45,0.25-2.25
			c0.233-0.934,0.467-1.6,0.7-2c0.3-0.5,1.217-1.467,2.75-2.9l0.25-0.25c0.834-1.166,1.467-1.966,1.9-2.399
			c-0.134,1.5-0.2,2.866-0.2,4.1l0.05,3.2c0.033,0.366,0.084,0.85,0.15,1.45c-0.167-0.667-0.384-1.184-0.65-1.55L39.1,97.6
			c-0.366-0.133-0.783-0.017-1.25,0.351c-0.633,0.5-1.166,1.1-1.6,1.8L36.1,99.2l-0.149-0.55c-2.3,5.199-3.867,8.816-4.7,10.85
			l-0.2,0.45l-0.024,0.075L30.95,110.175z M33.3,156.05c0-0.1-0.017-0.2-0.05-0.3v-0.05L33,153.9c-0.833-4.367-1.333-7.684-1.5-9.95
			c0-0.033,0-0.066,0-0.101c0.833,4.5,1.55,9.034,2.15,13.601c-0.031-0.094-0.048-0.169-0.051-0.226v-0.074
			C33.5,156.816,33.4,156.45,33.3,156.05z"/>
		
			<radialGradient id="SVGID_4_" cx="4.5" cy="17.7002" r="1.35" gradientTransform="matrix(1 0 0 -1 0 35.4004)" gradientUnits="userSpaceOnUse">
			<stop  offset="0.0549" style="stop-color:#FEDEB1;stop-opacity:0.0863"/>
			<stop  offset="0.2392" style="stop-color:#FEDEB1;stop-opacity:0.0863"/>
		</radialGradient>
		<path style="fill-rule:evenodd;clip-rule:evenodd;fill:url(#SVGID_4_);" d="M1.1,19.95c-0.033-0.534,0.3-0.934,1-1.2
			c1.066-0.467,1.617-0.717,1.65-0.75l1.3,1c-0.667,0.533-1.267,0.867-1.8,1C2.683,20.133,1.967,20.117,1.1,19.95z"/>
		
			<radialGradient id="SVGID_5_" cx="4.6001" cy="21.7002" r="2.9125" gradientTransform="matrix(1 0 0 -1 0 43.4004)" gradientUnits="userSpaceOnUse">
			<stop  offset="0.0549" style="stop-color:#FEDEB1;stop-opacity:0.0863"/>
			<stop  offset="0.2392" style="stop-color:#FEDEB1;stop-opacity:0.0863"/>
		</radialGradient>
		<path style="fill-rule:evenodd;clip-rule:evenodd;fill:url(#SVGID_5_);" d="M5.15,23.1l0.25,1.55C5.5,25.383,5.183,26,4.45,26.5
			C3.683,27,3,27.033,2.4,26.6c-0.3-0.2-0.55-0.684-0.75-1.45c-0.167-0.533-0.683-0.833-1.55-0.9C0,24.017,0,23.733,0.1,23.4
			c1.133-0.1,2.033-0.183,2.7-0.25c0.133,0,0.267-0.017,0.4-0.05c1-0.133,1.617-0.383,1.85-0.75L5.15,23.1z"/>
		
			<radialGradient id="SVGID_6_" cx="20" cy="17.5" r="9.725" gradientTransform="matrix(1 0 0 -1 0 35)" gradientUnits="userSpaceOnUse">
			<stop  offset="0.0549" style="stop-color:#000000;stop-opacity:0.6"/>
			<stop  offset="0.2392" style="stop-color:#000000;stop-opacity:0.6"/>
		</radialGradient>
		<path style="fill-rule:evenodd;clip-rule:evenodd;fill:url(#SVGID_6_);" d="M9.15,21.65c0.033,0.267,0.067,0.55,0.1,0.85
			c0.1,0.767,0.367,1.817,0.8,3.15c0.167,0.533,2.3,2.417,6.4,5.65c1.167,0.934,2.233,1.817,3.2,2.65c-0.2,0.2-0.383,0.333-0.55,0.4
			c-0.8,0.333-1.45,0.1-1.95-0.7c-0.6-1-1.05-1.533-1.35-1.6c-0.6-0.133-1.117,0.3-1.55,1.3c-0.433,1.066-0.8,1.6-1.1,1.6
			c-0.033-0.233-0.033-0.9,0-2c0-0.833-0.117-1.483-0.35-1.95c-0.367-0.867-1.117-1.967-2.25-3.3c-0.767-0.967-1.417-2.05-1.95-3.25
			c-0.833-1.8-0.684-2.733,0.45-2.8H9.15z"/>
		
			<radialGradient id="SVGID_7_" cx="15.3501" cy="35.5498" r="2.05" gradientTransform="matrix(1 0 0 -1 0 71.0996)" gradientUnits="userSpaceOnUse">
			<stop  offset="0.0549" style="stop-color:#FEDEB1;stop-opacity:0.0863"/>
			<stop  offset="0.2392" style="stop-color:#FEDEB1;stop-opacity:0.0863"/>
		</radialGradient>
		<path style="fill-rule:evenodd;clip-rule:evenodd;fill:url(#SVGID_7_);" d="M14.55,36.1l1.2,0.9c0.033,0.667-0.2,1.283-0.7,1.85
			c-0.533,0.6-1.066,0.55-1.6-0.15c-0.2-0.233-0.267-0.517-0.2-0.85c0-0.2,0.05-0.434,0.15-0.7c0.267-0.633,0.6-1.017,1-1.15
			L14.55,36.1z"/>
		
			<radialGradient id="SVGID_8_" cx="7.8501" cy="27.8999" r="1.9" gradientTransform="matrix(1 0 0 -1 0 55.7998)" gradientUnits="userSpaceOnUse">
			<stop  offset="0.0549" style="stop-color:#FEDEB1;stop-opacity:0.0863"/>
			<stop  offset="0.2392" style="stop-color:#FEDEB1;stop-opacity:0.0863"/>
		</radialGradient>
		<path style="fill-rule:evenodd;clip-rule:evenodd;fill:url(#SVGID_8_);" d="M6.9,30.05c0.333-0.2,0.617-0.4,0.85-0.6l-1,1.55
			c-0.8,0.367-1.45,0.4-1.95,0.1C5.733,30.667,6.433,30.317,6.9,30.05z"/>
		
			<radialGradient id="SVGID_9_" cx="8.5" cy="31.6001" r="1.8125" gradientTransform="matrix(1 0 0 -1 0 63.2002)" gradientUnits="userSpaceOnUse">
			<stop  offset="0.0549" style="stop-color:#FEDEB1;stop-opacity:0.0863"/>
			<stop  offset="0.2392" style="stop-color:#FEDEB1;stop-opacity:0.0863"/>
		</radialGradient>
		<path style="fill-rule:evenodd;clip-rule:evenodd;fill:url(#SVGID_9_);" d="M3.45,34.6c-0.067-0.5,0.183-0.8,0.75-0.9
			c0.733,0,1.233-0.034,1.5-0.1c0.466-0.1,1.083-0.367,1.85-0.8c0.8-0.433,1.417-0.7,1.85-0.8l-1.65,1
			C7.417,34.5,5.983,35.033,3.45,34.6z"/>
	</g>
	
		<radialGradient id="SVGID_10_" cx="41.2002" cy="58.2002" r="55.15" gradientTransform="matrix(1 0 0 -1 0 116.4004)" gradientUnits="userSpaceOnUse">
		<stop  offset="0.6941" style="stop-color:#211C15;stop-opacity:0"/>
		<stop  offset="1" style="stop-color:#211C15;stop-opacity:0.6"/>
	</radialGradient>
	<path style="fill-rule:evenodd;clip-rule:evenodd;fill:url(#SVGID_10_);" d="M27.25,7.55l1.5,1.1c2.333,2.333,4.8,5.2,7.4,8.6
		c5.166,6.767,8.366,12.8,9.6,18.1c1.133,4.8,1.833,10.15,2.1,16.05L32.2,52.65c-0.934-2.533-2.15-5.05-3.65-7.55
		c-0.2-0.333-1.366-2.15-3.5-5.45c-1.366-2.1-4.233-4.883-8.6-8.35c-4.1-3.233-6.233-5.117-6.4-5.65
		c-0.433-1.333-0.7-2.383-0.8-3.15c-0.2-1.3-0.15-2.684,0.15-4.15c0.3-1.534,1-3.083,2.1-4.65c0.833-1.134,2.133-2.583,3.9-4.35
		c1.267-1.233,3.033-2.05,5.3-2.45l3.05-0.25C24.85,6.517,26.017,6.816,27.25,7.55z"/>
</g>
</svg>
