<?xml version="1.0" encoding="iso-8859-1"?>
<!-- Generator: Adobe Illustrator 15.1.0, SVG Export Plug-In . SVG Version: 6.00 Build 0)  -->
<!DOCTYPE svg PUBLIC "-//W3C//DTD SVG 1.1//EN" "http://www.w3.org/Graphics/SVG/1.1/DTD/svg11.dtd">
<svg version="1.1" id="FlashAICB" xmlns="http://www.w3.org/2000/svg" xmlns:xlink="http://www.w3.org/1999/xlink" x="0px" y="0px"
	 width="73.85px" height="162.3px" viewBox="0 0 73.85 162.3" style="enable-background:new 0 0 73.85 162.3;" xml:space="preserve"
	>
<g>
	<g>
		
			<radialGradient id="SVGID_1_" cx="50.7002" cy="52.6499" r="60.15" gradientTransform="matrix(1 0 0 -1.1029 0 110.7158)" gradientUnits="userSpaceOnUse">
			<stop  offset="0.0784" style="stop-color:#211C15;stop-opacity:0.498"/>
			<stop  offset="0.2039" style="stop-color:#211C15;stop-opacity:0.498"/>
		</radialGradient>
		<path style="fill-rule:evenodd;clip-rule:evenodd;fill:url(#SVGID_1_);" d="M63.5,25c-0.066-0.167-0.134-0.317-0.2-0.45
			c-1.033-2.133-1.883-3.933-2.55-5.4c0.4,0.067,0.85,0.1,1.35,0.1c1.467,0.033,2.801-0.133,4-0.5c0.034,1.3-0.433,2.65-1.399,4.05
			C64.167,23.6,63.767,24.333,63.5,25z M26.6,20.8c0.367-0.5,0.767-1.233,1.2-2.2c0.567-1.3,0.95-2.184,1.15-2.65l0.45-1.9
			c0.2-0.833,0.533-1.417,1-1.75c0.333-0.233,0.917-0.417,1.75-0.55c0.833-0.167,1.467-0.417,1.9-0.75c1-0.833,1.684-2,2.05-3.5
			c0.334-0.5,0.45-0.983,0.351-1.45c-0.066,0-0.134,0-0.2,0c0.167-1.5,0.283-2.65,0.35-3.45c0.4,0.333,0.967,1.033,1.7,2.1
			c-0.033-0.034-0.083-0.067-0.149-0.1c0,0.433,0.166,1.133,0.5,2.1c0.3,0.933,0.433,1.7,0.399,2.3l0.4,0.2
			c-2.033,0.933-3.817,2.15-5.35,3.65c-0.833,0.8-1.567,1.667-2.2,2.6c-0.45,0.645-0.85,1.319-1.2,2.025l-1.1,2.775
			c-0.567,0.2-1.25,0.267-2.05,0.2C27.15,20.55,26.833,20.667,26.6,20.8z M25.85,21.35c0,0.033,0.017,0.083,0.05,0.15
			c0.667,0.633,1.217,1.267,1.65,1.9c0.467,0.434,0.75,0.75,0.85,0.95c0.2,0.367,0.033,0.883-0.5,1.55
			c-0.333,0.4-0.967,0.65-1.9,0.75c-1,0.1-1.633,0.25-1.9,0.45c-1.167,0.833-1.167,1.617,0,2.35c0.267,0.167,0.55,0.316,0.85,0.45
			l-1.4,0.6c-0.6-0.2-0.966-0.05-1.1,0.45c0.066,0.566,0.45,1.117,1.15,1.65c0.733,0.5,1.383,0.65,1.95,0.45
			c0.633-0.233,0.967-0.85,1-1.85c0-0.3,0.017-0.567,0.05-0.8c0.3,0.033,0.617,0.05,0.95,0.05c0.4,0,0.784-0.017,1.15-0.05
			c0.066,0.833,0.2,1.717,0.4,2.65l0.05,0.05c0,0.1,0.017,0.217,0.05,0.35c-1.967,0.267-4.017,0.167-6.15-0.3
			c-2.533-0.5-4.35-1.4-5.45-2.7c0.4-0.4,1-0.7,1.8-0.9c1.033-0.3,1.617-0.483,1.75-0.55c1.667-0.9,2.633-2.417,2.9-4.55
			c-0.033-0.133-0.05-0.267-0.05-0.4c0.8-0.133,1.317-0.65,1.55-1.55l-0.3-0.85C25.483,21.55,25.683,21.45,25.85,21.35z M42.8,8
			c-0.233-0.333-0.483-0.633-0.75-0.9c1.101,0,1.9-0.483,2.4-1.45c1.133-1.967,1.783-3.017,1.95-3.15
			c0.133,1.133,0.483,1.917,1.05,2.35c-0.334,0.733-0.967,1.617-1.9,2.65C45.067,7.527,44.551,7.594,44,7.7l-0.525,0.15
			C43.25,7.9,43.025,7.95,42.8,8z M55,9.45c-0.533-0.967-1.35-1.917-2.45-2.85c-0.866-0.733-1.7-1.267-2.5-1.6
			c0.134-0.067,0.283-0.133,0.45-0.2c2.4-1,3.616-2.6,3.65-4.8c0.399,0.433,0.666,1.383,0.8,2.85C54.983,3.45,55,4.567,55,6.2
			c0.033,0.3,0.083,0.85,0.15,1.65C55.184,8.517,55.134,9.05,55,9.45z M58.45,13.85c-0.233-0.367-0.5-0.733-0.8-1.1
			c0.466-0.133,0.733-0.2,0.8-0.2C58.483,12.717,58.483,13.15,58.45,13.85z"/>
		<path style="fill-rule:evenodd;clip-rule:evenodd;fill:#43392C;" d="M56.1,11.25c1.4,1.167,2.301,2.317,2.7,3.45
			c0.033,0.033,0.05,0.066,0.05,0.1c0.267,0.767,0.9,2.217,1.9,4.35c0.667,1.467,1.517,3.267,2.55,5.4
			c0.066,0.133,0.134,0.284,0.2,0.45c2.3,5.467,3.7,10.5,4.2,15.1l1.3,9.4c1.4,9.833,2.366,17.067,2.9,21.7l0.199,1.9l-0.649-2.4
			c-0.9-1-1.684-2.284-2.351-3.85c-0.6-1.5-1-2.95-1.199-4.35c-0.301-2.233-0.317-4.567-0.051-7l0.051-0.65
			c0.233-2.533,0.533-4.2,0.899-5c-0.166-0.533-0.45-1.217-0.85-2.05c-0.233-0.4-0.7-1.1-1.4-2.1c-0.666-0.9-1.133-1.617-1.399-2.15
			L64.9,42.9c-0.334-1.267-0.567-2.75-0.7-4.45l-0.15-1.8c-0.133-1.267-0.283-2.183-0.45-2.75c-0.133-0.566-0.466-1.3-1-2.2
			c-0.533-0.934-0.866-1.667-1-2.2c-0.3-1.167-1.05-2.783-2.25-4.85c-0.3-0.5-0.533-1.083-0.699-1.75
			c-0.167-0.733-0.317-1.316-0.45-1.75c-0.267-0.9-0.65-1.617-1.15-2.15c-0.333-0.333-0.967-0.85-1.899-1.55
			c-0.5-0.434-0.851-1.034-1.051-1.8c-0.166-0.933-0.333-1.667-0.5-2.2c-0.533-2.1-1.35-3.767-2.449-5
			c0.333,0.133,0.666,0.267,1,0.4L53.1,9.3c0.434,0.233,0.834,0.467,1.2,0.7l1.05,0.65c0.034,0.033,0.084,0.083,0.15,0.15
			C55.71,10.945,55.91,11.095,56.1,11.25z M12,141.5c0.033,0,0.05,0.017,0.05,0.05c0.3,0.233,0.784,0.45,1.45,0.65
			c0.9,0.267,1.433,0.45,1.6,0.55c-0.267,0.066-0.733,0.083-1.4,0.05c-0.633-0.033-1.117-0.033-1.45,0H12.2L12,141.5z M44.15,151.45
			c-0.534,0.1-1.084,0.217-1.65,0.35c-0.233,0.033-0.45,0.066-0.65,0.101l-0.6,0.1c-0.167,0.033-0.316,0.066-0.45,0.1
			c-0.066,0-0.133,0-0.2,0c-0.633,0.101-1.267,0.2-1.899,0.301c-0.033,0-0.066,0.017-0.101,0.05h-0.05l-1.3,0.149
			c-0.566,0.034-1.134,0.084-1.7,0.15c-0.3,0.033-0.6,0.066-0.9,0.1l-11.85-0.5c-0.5-0.1-0.983-0.199-1.45-0.3
			c-0.2-0.066-0.383-0.116-0.55-0.149l-0.2-0.051c-0.267-0.066-0.533-0.149-0.8-0.25l-2.85-1.3c-0.3-0.2-0.567-0.399-0.8-0.6
			c-0.467-0.367-0.883-0.75-1.25-1.15l-1-1.35c0-0.033-0.017-0.066-0.05-0.101c1.066,0.867,2.617,1.634,4.65,2.301
			c2.3,0.633,3.883,1.083,4.75,1.35c1,0.3,2.233,0.467,3.7,0.5c1.667-0.033,2.9-0.066,3.7-0.1c0.8-0.034,1.8-0.233,3-0.601
			c1.367-0.467,2.317-0.733,2.85-0.8c-0.3-0.333-1.1-0.467-2.4-0.4c-0.667,0-1.55,0.051-2.65,0.15H26.6
			c3.3-0.1,5.95-0.517,7.95-1.25c1.2-0.366,2.167-0.684,2.9-0.95c1.333-0.5,2.1-0.983,2.3-1.45c0.366,0.267,1.134,0.417,2.3,0.45
			c0.9,0,1.75-0.05,2.55-0.149c0.634-0.067,1.351-0.517,2.15-1.351c0.8-0.767,1.467-1.166,2-1.2c0,0.101,0.066,0.384,0.2,0.851
			c1,0.133,1.967,0.033,2.899-0.3l2.101-1.5c2.366-1.534,4.1-2.717,5.2-3.551c0.833-0.666,1.733-1.566,2.699-2.699
			c1.267-1.534,1.617-2.434,1.051-2.7c0.233-0.467,0.767-1.101,1.6-1.9c0.866-0.833,1.434-1.5,1.7-2
			c0.899-1.666,1.45-3.116,1.649-4.35c0.067-0.3,0.101-1,0.101-2.101l-0.101-1.5c0-0.466-0.066-0.833-0.199-1.1
			c-0.167-0.333-0.317-0.65-0.45-0.95c-0.316-0.538-0.434-1.005-0.351-1.399c-0.022,0.12-0.006,0.236,0.051,0.35
			c1.899,0.533,3.366,0.083,4.399-1.35c0.233-0.301,0.434-0.733,0.601-1.301c0.166-0.566,0.35-1,0.55-1.3
			c0.233-0.3,0.467-0.517,0.7-0.649c-0.934,9.633-2.784,16.466-5.551,20.5c-0.1,0.133-0.199,0.283-0.3,0.449l-1.05,1.301
			c-1.733,2.133-4.25,4.699-7.55,7.699C55.866,147.467,51.017,149.917,44.15,151.45z M47.8,61.65c-0.1,0.633-0.316,1.567-0.649,2.8
			c-1,0.4-1.434-0.1-1.301-1.5c0.101-1.367,0.667-1.967,1.7-1.8h0.15h0.149L47.8,61.65z"/>
		<path style="fill-rule:evenodd;clip-rule:evenodd;fill:#8D7A61;" d="M67.3,135.1c0.101-0.166,0.2-0.316,0.3-0.449
			c2.767-4.034,4.617-10.867,5.551-20.5l0.399-4.301c-0.833,11.601-2.666,19.65-5.5,24.15C67.816,134.366,67.566,134.733,67.3,135.1
			z M27.25,124.85c0.933,0,1.65-0.05,2.15-0.149c0.767-0.2,1.317-0.566,1.65-1.101c-0.8-0.333-2.066-0.416-3.8-0.25
			c-1.967,0.167-3.3,0.184-4,0.051c-0.433-0.067-1.033-0.317-1.8-0.75c0.333-0.101,0.7-0.2,1.1-0.301c0.1-0.033,0.2-0.05,0.3-0.05
			c0.533,0.367,1.883,0.55,4.05,0.55c1.967,0,3.65-0.666,5.05-2c-0.8,0.167-2.184,0.384-4.15,0.65c0.2-0.066,0.417-0.1,0.65-0.1
			c1.066-0.167,2-0.317,2.8-0.45c0.233-0.033,0.45-0.066,0.65-0.101c0.3-0.066,0.6-0.133,0.9-0.199h0.05
			c1.066,0.267,1.75,0.5,2.05,0.699c0.533,0.434,0.417,1.017-0.35,1.75c0.733,0.101,1.517,0.084,2.351-0.05
			c0.966-0.1,1.699-0.316,2.199-0.649C39.7,122,40.233,121.3,40.7,120.3c0.434-1.166,0.767-2,1-2.5
			c0.666-1.366,1.116-2.934,1.35-4.7c1.134-3.533,1.434-9.233,0.9-17.1c-0.063-1.23-0.497-5.747-1.3-13.55l0.149,1.2
			c0.467-1.101,0.717-2.351,0.75-3.75c0.066-3.2,0.033-5.5-0.1-6.9c-0.2-2.433-0.733-4.633-1.601-6.6
			c-0.8-1.833-1.366-3.617-1.699-5.35c-0.434-2.767-0.767-4.633-1-5.6c-0.2-1.034-0.567-1.95-1.101-2.75
			c-0.633-0.934-1.35-1.417-2.15-1.45c1.4,3.2,2.484,6.067,3.25,8.6c0.466,1.5,0.85,3,1.149,4.5c-1.166-4.9-3.217-10.567-6.15-17
			c-2.433-5.4-4.083-10.033-4.95-13.9c-0.034-0.133-0.05-0.25-0.05-0.35l-0.05-0.05c-0.2-0.933-0.333-1.816-0.4-2.65
			c-0.133-0.933-0.2-1.816-0.2-2.65c0-0.867,0.033-1.7,0.1-2.5c0.4,1.167,1.133,2.917,2.2,5.25c0.2,0.533,0.417,1.317,0.65,2.35
			c0.066,0.233,0.216,0.5,0.45,0.8l0.6,0.7c-0.1-0.367-0.167-0.85-0.2-1.45c-0.033-0.733-0.083-1.283-0.15-1.65
			c-0.5-1.967-0.816-3.45-0.95-4.45l-0.5-3.3c0.3,0.7,0.466,1.317,0.5,1.85c0.033-0.533-0.017-1.283-0.15-2.25
			c-0.133-1.067-0.2-1.833-0.2-2.3v-3.6c-0.051,0.095-0.101,0.187-0.15,0.275c0.35-0.706,0.75-1.38,1.2-2.025
			c0.633-0.934,1.367-1.8,2.2-2.6c1.533-1.5,3.317-2.717,5.35-3.65c1.066-0.467,2.184-0.867,3.35-1.2
			c0.226-0.05,0.45-0.1,0.675-0.15C42.426,8.11,41.434,8.426,40.5,8.8c-2.7,1.034-5.017,2.583-6.95,4.65c-0.5,0.533-1.05,1.2-1.65,2
			c0.4,0.6,0.717,0.966,0.95,1.1c0.433,0.3,1.033,0.467,1.8,0.5c1.067,0.067,1.7,0.117,1.9,0.15c0.533,0.133,1.15,0.483,1.851,1.05
			c0.633,0.467,1.133,0.95,1.5,1.45c-0.334-1-0.567-1.817-0.7-2.45c-0.267-1.133-0.134-1.95,0.399-2.45
			c0.601-0.6,1.551-0.55,2.851,0.15c0.833,0.566,1.434,1.017,1.8,1.35c0.6,0.534,1.05,1.15,1.35,1.85c0.601,1.333,1,2.167,1.2,2.5
			c0.467,0.867,1.017,1.6,1.65,2.2c0.666,0.6,1.3,1.117,1.899,1.55l1.551,1.4c0.166,0.067,0.25,0.034,0.25-0.1
			c0.199,0.633,0.416,2.033,0.649,4.2c0.233,1.8,0.601,3.15,1.101,4.05c0.366,0.667,0.983,1.383,1.85,2.15
			c1.066,0.967,1.733,1.617,2,1.95c0.333,0.567,0.566,1.15,0.7,1.75c0.066,0.434,0.1,1.1,0.1,2l-0.7,2.7
			c0,3.067,0.284,4.867,0.851,5.4c0.2,0.533,0.533,1.35,1,2.45c0.467,1.033,0.8,1.833,1,2.4c-0.434-0.833-0.95-1.55-1.55-2.15
			c0.8,1.833,1.149,3.133,1.05,3.9l0.95,1.55l0.05,0.1L61.1,58.2c-0.733,0.667-1.616,0.85-2.649,0.55
			c-0.8-0.467-1.417-1.033-1.851-1.7c-0.767-1.133-1.649-3.316-2.649-6.55c-0.9-2.867-1.95-4.95-3.15-6.25
			c-0.2,0.367-0.05,1.067,0.45,2.1c0.233,0.566,0.583,1.283,1.05,2.15c0.267,0.733,0.45,1.5,0.55,2.3c0.101,0.8,0.334,1.534,0.7,2.2
			c0.233,0.433,0.65,1.067,1.25,1.9l0.7,1.1c-0.033,0.633,0.283,1.367,0.95,2.2c0.6,0.8,1.3,1.417,2.1,1.85
			c0.066,0.034,0.134,0.067,0.2,0.1c1,0.533,1.816,0.983,2.45,1.35c0.533,0.3,0.983,0.733,1.35,1.3l-0.7,0.35
			c0,0.667,0.017,1.684,0.051,3.05c0,1.2-0.15,2.183-0.45,2.95c-0.434,1.1-0.667,1.75-0.7,1.95c-0.2,0.7-0.267,1.417-0.2,2.15
			c0.033,0.833,0.184,1.85,0.45,3.05c0.167,0.667,0.417,1.667,0.75,3c1.2,5.134,1.8,9.066,1.8,11.8c0,1.233-0.017,1.917-0.05,2.051
			c-0.066,0.233-0.3,0.6-0.7,1.1c-0.333,0.467-0.533,0.866-0.6,1.2c-0.101,0.399-0.15,0.816-0.15,1.25c-0.1-2.2-0.383-5.5-0.85-9.9
			l-1,17.7c-0.101,1.9-0.434,3.45-1,4.65c-0.367,0.8-0.684,1.35-0.95,1.649c-0.134,0.2-0.5,0.533-1.1,1
			c-0.233,0.434-0.301,0.851-0.2,1.25c0.066,0.267,0.283,0.65,0.649,1.15c0.233,0.5,0.384,0.783,0.45,0.85
			c0.101,0.101,0.4-0.017,0.9-0.35c0.166-0.101,0.399-0.434,0.7-1c0.399-0.733,0.616-1.117,0.649-1.15
			c0.634-0.934,1.05-1.95,1.25-3.05c0.134-1.366,0.233-2.483,0.3-3.35c0.233-2.267,0.317-4.801,0.25-7.601
			c0.101,1.066,0.334,2.65,0.7,4.75c0.167,2.066,0.233,3.7,0.2,4.9c-0.033,1.733-0.267,3.366-0.7,4.899
			c-0.133,0.5-0.3,1.351-0.5,2.551c-0.267,1-0.783,1.6-1.55,1.8c-0.7-0.834-1.25-1.384-1.65-1.65c-0.066,0.667-0.233,1.2-0.5,1.601
			c-1.733-1.5-3.216-3.367-4.449-5.601c0.233-4.934-0.134-9.149-1.101-12.649l0.65,9c0,0.566-0.084,1.85-0.25,3.85
			c-0.101,1.8,0.066,2.95,0.5,3.45l0.149-2.3c0.133,1.774,0.149,3.142,0.051,4.1c-0.2,1.5-0.684,2.717-1.45,3.65
			c-1.667,1.899-2.533,2.883-2.601,2.949c-0.366,0.601-0.55,1.551-0.55,2.851c0,1.566-0.05,2.55-0.149,2.95
			c-0.434,1.5-1,2.733-1.7,3.699c-0.7,0.934-1.7,1.834-3,2.7c-2.434,1.667-5.233,2.783-8.4,3.351c-2.066,0-3.283,0.017-3.65,0.05
			c-1.867,0.166-3.967,0.2-6.3,0.1c0.066,0.101,0.183,0.184,0.35,0.25c-0.767-0.066-1.417-0.184-1.95-0.35
			c-0.3-0.066-0.633-0.134-1-0.2c-0.233-0.066-0.483-0.333-0.75-0.8c-0.1-0.2-0.183-0.517-0.25-0.95s-0.067-0.75,0-0.95
			c1.8-0.434,4.767-0.684,8.9-0.75c1.8,0,3.25-0.333,4.35-1l0.65-0.5c0.933-0.3,1.616-0.6,2.05-0.899c1.399-1,2.666-2.351,3.8-4.051
			c0.1-0.133,1.05-1.75,2.85-4.85l-6.649,6.65c-0.334,0.133-0.934,0.449-1.8,0.949c-0.7,0.434-1.333,0.7-1.9,0.801
			c-0.2,0.033-0.7,0.1-1.5,0.199c-0.667,0.067-1.167,0.167-1.5,0.301l-1.3,0.1c-0.667,0-2.4,0.033-5.2,0.1
			c-2.4-0.233-3.45-1.166-3.15-2.8c0.167-0.866,1.283-1.467,3.35-1.8c2.133-0.366,3.333-1.134,3.6-2.3
			c1.3-0.066,2.317-0.25,3.05-0.55L27.25,124.85z M50.2,110.8c0,0.434,0.033,1.117,0.1,2.05c0.033,0.834-0.017,1.483-0.149,1.95
			c-0.134,0.467-0.45,1.05-0.95,1.75c-0.233,0.4-0.601,0.95-1.101,1.65c-0.533,0.899-0.899,1.616-1.1,2.149
			c-0.3,0.767-0.467,1.567-0.5,2.4c0,0.267,0.033,1,0.1,2.2c0.067,0.934,0.051,1.666-0.05,2.2c-0.166,0.833-0.733,1.699-1.7,2.6
			l-4.35,4.1c-2.233,2.167-4.3,3.483-6.2,3.95c4.967-0.1,8.983-1.566,12.05-4.399c1.367-1.267,2.134-2.95,2.301-5.051
			c-0.034-2.5,0.033-4.416,0.199-5.75c0.101-0.767,0.517-1.85,1.25-3.25c0.733-1.466,1.184-2.566,1.351-3.3
			c0.133-0.566,0.184-1.316,0.149-2.25c-0.033-1.434-0.05-2.2-0.05-2.3c0-2.5-0.217-4.517-0.649-6.05
			c-0.767-2.233-1.267-3.934-1.5-5.101L50.2,110.8z M40.4,117.35c-0.551,0.5-1.167,0.95-1.851,1.351
			c-0.583,0.333-1.233,0.633-1.95,0.899C38.108,118.979,39.375,118.229,40.4,117.35z M58.8,14.7c-0.399-1.133-1.3-2.284-2.7-3.45
			c0.604,0.47,1.121,0.97,1.551,1.5c0.3,0.367,0.566,0.733,0.8,1.1C58.583,14.117,58.7,14.4,58.8,14.7z M51.15,8.45
			C49.35,7.817,47.75,7.5,46.35,7.5c-0.255-0.012-0.521-0.012-0.8,0c2.066-0.167,4.267,0.283,6.601,1.35
			C51.816,8.717,51.483,8.583,51.15,8.45z M25.15,124.75c-3.2-0.066-5.417-0.05-6.65,0.05c0.833-0.166,1.9-0.233,3.2-0.2
			C23.267,124.667,24.417,124.717,25.15,124.75z M17.8,128.45l-0.3-0.3c-0.267-0.4-0.467-1.134-0.6-2.2c0.267-0.434,0.6-0.75,1-0.95
			c-0.066,0.7,0.667,1.15,2.2,1.35c1.767,0.067,2.816,0.117,3.15,0.15l2.6,0.15c-0.367,0.066-1.467,0.316-3.3,0.75
			c-0.3,0.066-1.033,0.283-2.2,0.649C19.217,128.35,18.367,128.483,17.8,128.45z M46.75,35.85l-0.2-0.35l-0.7-0.35
			c-0.033,0.267-0.116,0.633-0.25,1.1c-0.066,0.433-0.066,0.833,0,1.2c0.367,0.133,0.767,0.133,1.2,0
			c0.134-0.633,0.117-1.133-0.05-1.5l0.75,1.5c0.7,1.433,2.05,3.667,4.05,6.7c0.533,0.8,0.934,1.4,1.2,1.8
			c0.5,0.733,0.85,1.367,1.05,1.9c0.2,0.433,0.384,1.083,0.55,1.95c0.233,1,0.4,1.667,0.5,2c0.467,1.6,0.801,2.633,1,3.1
			c0.601,1.367,1.233,2.1,1.9,2.2c-0.934-1.133-1.566-2.517-1.9-4.15c-0.267-1.934-0.517-3.417-0.75-4.45
			c-0.8-3.833-1.767-6.733-2.899-8.7c-0.767-0.8-1.25-1.466-1.45-2c-0.3-1.167-0.566-2.05-0.8-2.65c-0.967-2.467-1.634-4.467-2-6
			c-0.2-0.7-0.517-1.4-0.95-2.1c-0.066-0.1-0.5-0.75-1.3-1.95c-0.967-1.434-1.601-2.317-1.9-2.65c-0.333-0.4-1.066-1.05-2.2-1.95
			l2.601,4.65c0.833,1.067,1.399,2.383,1.7,3.95c0.166,0.967,0.267,2.433,0.3,4.4C46.2,34.333,46.384,35.117,46.75,35.85z
			 M42.2,28.5c-1.167-1.233-1.834-1.9-2-2c-0.8-0.5-1.134,0.05-1,1.65c0.1,1.2,0.733,2.85,1.899,4.95c1.301,2.333,2.434,3.333,3.4,3
			c-0.066-0.733,0.05-1.383,0.35-1.95L45.2,33.5c0.1-1.033-0.2-1.967-0.9-2.8C43.934,30.2,43.233,29.467,42.2,28.5z M41.25,39.8
			c-1.634-2.433-2.634-3.966-3-4.6c-1.1-1.867-1.816-3.534-2.15-5c-0.5-1.5-0.8-2.633-0.899-3.4c-0.067-0.4-0.067-1,0-1.8
			c0.066-0.833,0.066-1.45,0-1.85c-0.067-0.433-0.233-0.9-0.5-1.4c-0.167-0.267-0.417-0.683-0.75-1.25
			c-0.1-0.233-0.267-0.767-0.5-1.6c-0.167-0.7-0.367-1.167-0.6-1.4l-1,0.65c-0.133,2.1,0.2,4.533,1,7.3c0.267,0.9,0.5,2.233,0.7,4
			c0.2,1.833,0.417,3.183,0.65,4.05c0.6,2.367,1.733,4.917,3.399,7.65c0.867,1.4,1.601,2.75,2.2,4.05l0.45,1.2
			c-0.3-0.367-0.767-0.867-1.4-1.5c-0.433-0.533-1.017-1.367-1.75-2.5c-1.167-1.733-1.8-2.683-1.899-2.85
			c-0.267-0.5-0.517-1.216-0.75-2.15c-0.3-1.033-0.534-1.75-0.7-2.15c-0.267,0.6-0.25,1.467,0.05,2.6
			c0.167,0.6,0.417,1.483,0.75,2.65c0,0.067,0.034,0.517,0.1,1.35c0.033,0.566,0.1,1,0.2,1.3c0.267,0.8,0.783,1.833,1.55,3.1
			c1.133,1.8,1.733,2.767,1.8,2.9c2.2,3.934,3.75,8.45,4.649,13.55c0.034-1.034-0.066-2.517-0.3-4.45
			c-0.233-2.033-0.35-3.517-0.35-4.45c-0.033-1.367,0.2-2.233,0.7-2.6c0.533-0.367,1.416-0.267,2.649,0.3
			c0.367-0.433,0.4-1.183,0.101-2.25c-0.434-1.167-0.717-1.933-0.851-2.3C43.967,44.417,42.783,42.033,41.25,39.8z M46.85,46.25
			c0-0.033-0.216-0.383-0.649-1.05l4.649,10.95c-0.066,0.7,0.117,1.5,0.551,2.4c0.267,0.534,0.649,1.284,1.149,2.25
			c0.3,0.7,0.75,1.75,1.351,3.15c0.566,1.267,0.966,2.333,1.199,3.2c0.434,1.467,0.667,2.617,0.7,3.45
			c0.066,1.2-0.149,2.283-0.649,3.25l-0.851,1.6c-0.233,0.566-0.383,1.133-0.45,1.7c-0.066,0.8-0.066,1.6,0,2.4
			c0.034,0.4,0.184,1.217,0.45,2.45c0.233,1.033,0.316,1.866,0.25,2.5c-0.1,0.634-0.434,1.366-1,2.2
			c-0.767,1.133-1.217,1.833-1.35,2.1c-0.767,1.566-1.217,3.45-1.351,5.65c-0.066,0.934-0.066,2.899,0,5.899
			c0.067-2.966,0.617-5.566,1.65-7.8c0.3-0.666,1.1-1.633,2.4-2.899c1.133-1.101,1.816-2.15,2.05-3.15c0.333-1.6,0.5-3.8,0.5-6.6
			c0-3.566,0.033-5.8,0.1-6.7c0.233-2.467,0.084-4.717-0.45-6.75c-0.1-0.4-0.267-1.3-0.5-2.7c-0.199-1.1-0.416-2-0.649-2.7
			c-0.566-1.466-0.917-2.316-1.05-2.55c-0.233-0.4-0.634-0.867-1.2-1.4c-0.601-0.567-1-1-1.2-1.3c-0.134-0.167-0.25-0.433-0.35-0.8
			c-0.101-0.4-0.2-0.683-0.301-0.85c-0.267-0.5-0.716-1.066-1.35-1.7c-0.8-0.767-1.3-1.3-1.5-1.6c-0.4-0.533-0.783-1.283-1.15-2.25
			C47.316,47.267,46.983,46.483,46.85,46.25z M65.85,53.5l0.4,0.25l0.5,0.35L65.85,53.5z M42.9,52.5
			c-0.134,1.033-0.067,2.417,0.199,4.15c0.301,2.067,0.45,3.45,0.45,4.15c-0.033,1.1,0.066,2,0.3,2.7
			c0.233,0.733,0.684,1.5,1.351,2.3l0.35,0.35c0.667,0.6,1.55,0.817,2.65,0.65c0.633-0.1,1.017-0.233,1.149-0.4
			c0.067-0.133,0.134-0.55,0.2-1.25c0.066-1-0.25-2.55-0.95-4.65c-0.5-1.467-1.333-3.133-2.5-5c-0.233-0.367-0.633-1.083-1.199-2.15
			C44.3,52.55,43.634,52.267,42.9,52.5z M49.45,71.2c0.066-0.333,0.1-1.133,0.1-2.4l-0.7-0.65c-0.833-0.2-1.3,0.184-1.399,1.15
			c-0.134,0.9,0.033,1.6,0.5,2.1C48.717,72.2,49.217,72.133,49.45,71.2z M43.75,67.2l0.45,5.3c0,4.7,0.416,11.316,1.25,19.85
			c0.3,3,0.467,5,0.5,6c0.033,2.267-0.217,4.2-0.75,5.801c-0.601,1.833-1.033,3.433-1.3,4.8l-0.7,5.5
			c-0.134,1.566-0.233,2.55-0.3,2.95c-0.2,1.166-0.551,2.083-1.051,2.75c-1.1,1.533-2.833,2.85-5.199,3.949
			c0.466,0.101,1.066-0.017,1.8-0.35c0.833-0.467,1.416-0.783,1.75-0.95c2.066-0.8,3.517-1.483,4.35-2.05
			c1.867-1.267,2.867-3.45,3-6.55c0.134-7.566,0.434-13.267,0.9-17.101c0.166-1.533,0.166-3.316,0-5.35
			c-0.066-0.733-0.283-2.5-0.65-5.3c-0.133-0.9-0.25-2.101-0.35-3.601c-0.101-1.8-0.184-3-0.25-3.6
			c-0.167-1.467-0.717-3.483-1.65-6.05C44.583,70.467,43.983,68.467,43.75,67.2z M52.55,65.5l-1-0.35
			c-0.033,0.2-0.283,0.95-0.75,2.25c-0.333,0.867-0.434,1.667-0.3,2.4c0.167,0.934,0.6,1.55,1.3,1.85
			c0.533,0.2,1.316,0.233,2.351,0.1c0.5-1.067,0.683-2.383,0.55-3.95C54.533,65.967,53.816,65.2,52.55,65.5z M52.9,96.75
			c0.433,0.167,0.85,0.167,1.25,0c0.033-0.3,0.05-1.283,0.05-2.95L53.85,94.15C53.017,94.483,52.7,95.35,52.9,96.75z M56.85,96.5
			c-0.899,0.1-1.633,1.033-2.199,2.8c-0.567,1.767-0.534,2.967,0.1,3.601c0.333,0.333,0.85,0.449,1.55,0.35
			c0.667-0.066,1.15-0.25,1.45-0.55c0.533-0.5,0.833-1.384,0.9-2.65c-0.067-1.434-0.101-2.399-0.101-2.899L56.85,96.5z M58.85,98.8
			c0,1.7-0.133,2.9-0.399,3.601c-0.167,0.399-0.566,0.966-1.2,1.699c-0.566,0.7-0.917,1.25-1.05,1.65
			c0.866,0.3,1.649-0.167,2.35-1.4c0.566-0.966,0.9-1.949,1-2.949c0.267-2.267,0.184-5.301-0.25-9.101c-0.366-3.5-0.6-6.1-0.7-7.8
			L58.85,98.8z M44.9,123.75c0.267-0.667,0.483-1.2,0.649-1.6l-6,2.35c-2.233,2.2-3.6,3.5-4.1,3.9
			c-1.833,1.466-3.483,2.267-4.95,2.399c-0.8,0.101-2,0.117-3.6,0.05c-1.633-0.066-2.85-0.066-3.65,0
			c-0.233,0.867,1.333,1.367,4.7,1.5c3.167,0.134,5.216,0.017,6.15-0.35c1.9-0.833,3.516-1.75,4.85-2.75
			c1-0.967,1.767-1.684,2.3-2.15c0.233-0.233,0.684-0.55,1.35-0.949c0.601-0.367,1.034-0.7,1.301-1
			C44.3,124.783,44.634,124.316,44.9,123.75z M12.6,131.95v-0.05c0.1,0.175,0.217,0.351,0.35,0.524
			C12.817,132.259,12.7,132.1,12.6,131.95z"/>
		
			<radialGradient id="SVGID_2_" cx="50.0996" cy="22.3999" r="21.075" gradientTransform="matrix(1 0 0 -1.1032 0 47.1115)" gradientUnits="userSpaceOnUse">
			<stop  offset="0.0549" style="stop-color:#000000;stop-opacity:0.6"/>
			<stop  offset="0.2392" style="stop-color:#000000;stop-opacity:0.6"/>
		</radialGradient>
		<path style="fill-rule:evenodd;clip-rule:evenodd;fill:url(#SVGID_2_);" d="M42.8,8c-1.166,0.333-2.283,0.733-3.35,1.2L39.05,9
			c0.033-0.6-0.1-1.367-0.399-2.3c-0.334-0.967-0.5-1.667-0.5-2.1c0.066,0.033,0.116,0.066,0.149,0.1
			c1.367,0.667,2.384,1.267,3.05,1.8c0.233,0.2,0.467,0.4,0.7,0.6C42.316,7.367,42.566,7.667,42.8,8z M52.15,8.85
			c-2.334-1.067-4.534-1.517-6.601-1.35c0.934-1.033,1.566-1.917,1.9-2.65c0.066-0.133,0.116-0.267,0.149-0.4
			C48.366,4.417,49.184,4.6,50.05,5c0.8,0.333,1.634,0.867,2.5,1.6C53.65,7.533,54.467,8.483,55,9.45
			c0.233,0.433,0.4,0.883,0.5,1.35c-0.066-0.066-0.116-0.117-0.15-0.15L54.3,10c-0.366-0.233-0.767-0.467-1.2-0.7L52.15,8.85z"/>
		
			<radialGradient id="SVGID_3_" cx="43.2002" cy="4.5" r="2.525" gradientTransform="matrix(1 0 0 -1.104 0 9.4678)" gradientUnits="userSpaceOnUse">
			<stop  offset="0.0549" style="stop-color:#FEDEB1;stop-opacity:0.098"/>
			<stop  offset="0.2392" style="stop-color:#FEDEB1;stop-opacity:0.098"/>
		</radialGradient>
		<path style="fill-rule:evenodd;clip-rule:evenodd;fill:url(#SVGID_3_);" d="M44.05,3.5c-0.8,0.567-1.616,0.7-2.45,0.4
			C41.467,3.633,41.45,3.333,41.55,3L44.05,3.5z"/>
		<path style="fill-rule:evenodd;clip-rule:evenodd;fill:#73644F;" d="M66.25,53.75l-0.4-0.25c-0.033,0.6,0,1.617,0.101,3.05
			c0.1,1.333,0.1,2.333,0,3l-0.25,1.6c-0.101,1.233-0.017,2.35,0.25,3.35c0.533,1.8,1.066,4.1,1.6,6.9
			c0.033,0.267,0.134,1.2,0.3,2.8c0.134,1.1,0.334,2,0.601,2.7c0.2,0.467,0.566,1.067,1.1,1.8c0.5,0.733,0.851,1.333,1.05,1.8
			c0.367,0.933,0.784,2.483,1.25,4.65C72.083,86.35,72.2,87.9,72.2,89.8c0,0.267,0.017,0.684,0.05,1.25c0.033,0.5,0,0.9-0.1,1.2
			c-0.134,0.333-0.4,0.75-0.801,1.25c-0.433,0.5-0.716,0.9-0.85,1.2c-0.267,0.733-0.35,1.399-0.25,2c0.066,0.467,0.3,1.066,0.7,1.8
			c0.6,1.2,0.899,2.85,0.899,4.95c0,0.967,0.084,2.666,0.25,5.1c0.101,2.2-0.066,3.851-0.5,4.95c-0.8,2.066-1.949,2.7-3.449,1.9
			c-0.767-0.434-1.2-1.101-1.301-2c0-1.101,0-1.967,0-2.601c0.134-2,0.184-3.55,0.15-4.649c-0.066-1.9-0.467-3.351-1.2-4.351
			l-0.55-0.8c-0.134,0.8-0.05,2.3,0.25,4.5c0.233,1.3,0.35,2.967,0.35,5c0,4.366-0.75,7.833-2.25,10.4
			c-0.899,1.466-1.366,2.216-1.399,2.25c-0.4,0.666-0.617,1.366-0.65,2.1l-0.6,0.9c-0.3,0.5-0.483,1.017-0.55,1.55
			c-0.034,0.3-0.101,0.816-0.2,1.55c-0.167,0.833-0.5,1.6-1,2.3c-0.134,0.167-0.684,0.8-1.65,1.9c-0.434,0.5-1,1.267-1.7,2.3
			c-0.366,0.434-1.033,0.983-2,1.65c-0.333,0.233-0.85,0.649-1.55,1.25c-0.666,0.533-1.25,0.866-1.75,1
			c0.767-0.967,1.351-2.551,1.75-4.75c0.434-2.534,0.851-4.2,1.25-5c-0.333,0.6-0.733,1.533-1.2,2.8
			c-0.5,1.267-0.916,2.184-1.25,2.75c-0.433,0.833-1.05,2.05-1.85,3.649c-0.8,1.2-1.917,1.917-3.35,2.15
			c0.133,0.267,0.267,0.434,0.399,0.5c-0.533,1.1-1.533,2-3,2.7c-0.866,0.434-2.149,0.866-3.85,1.3
			c-0.767,0.2-1.634,0.316-2.601,0.35c-0.6,0.034-1.483,0.051-2.649,0.051c-1.133,0.033-2.967,0.199-5.5,0.5
			c-2.267,0.1-4.017-0.25-5.25-1.051c-1.167-0.8-2.117-1.733-2.85-2.8c-0.1-0.133-0.25-0.467-0.45-1c-0.2-0.467-0.4-0.783-0.6-0.95
			c-0.333-0.267-1.05-0.466-2.15-0.6c-1.233-0.167-2.017-0.316-2.35-0.45c-1.833-0.767-2.783-2.783-2.85-6.05v-0.05
			c0.066-0.566,0.2-1.117,0.4-1.65c0-0.041,0-0.075,0-0.1c0.1,0.149,0.217,0.309,0.35,0.475l0.15,0.175l3.45,2.801
			c0.767,0.466,1.65,0.783,2.65,0.949c0.566,0.067,1.517,0.117,2.85,0.15c-1.566-0.1-3.3-1.217-5.2-3.35
			c-0.2-0.2-0.567-0.584-1.1-1.15c-0.433-0.5-0.7-0.917-0.8-1.25c-0.133-0.333-0.184-0.816-0.15-1.45
			c0.034-0.7,0.05-1.184,0.05-1.45v-0.05l0.05-0.1l0.05,0.05c0.4,0.533,1.183,0.983,2.35,1.35c1.167,0.367,2.067,0.467,2.7,0.301
			c-1.133-0.334-1.867-0.65-2.2-0.95c0.567,0.033,1.417-0.101,2.55-0.4c1.167-0.366,1.9-0.583,2.2-0.649
			c1.833-0.434,2.934-0.684,3.3-0.75c1.3,0.066,2.283,0.083,2.95,0.05c-0.267,1.166-1.466,1.934-3.6,2.3
			c-2.067,0.333-3.184,0.934-3.35,1.8c-0.3,1.634,0.75,2.566,3.15,2.8c2.8-0.066,4.533-0.1,5.2-0.1l1.3-0.1
			c-0.4,0.133-0.717,0.35-0.95,0.649c1.233,0.9,3.1,0.983,5.601,0.25l-0.65,0.5c-1.1,0.667-2.55,1-4.35,1
			c-4.133,0.066-7.1,0.316-8.9,0.75c-0.067,0.2-0.067,0.517,0,0.95s0.15,0.75,0.25,0.95c0.267,0.467,0.517,0.733,0.75,0.8
			c0.367,0.066,0.7,0.134,1,0.2c0.533,0.166,1.183,0.283,1.95,0.35c0.433,0.2,1.316,0.351,2.65,0.45c1.533,0.134,2.4,0.217,2.6,0.25
			c0.966,0.2,2.767,0.3,5.399,0.3c1.4,0,2.334-0.033,2.801-0.1c0.966-0.101,1.816-0.384,2.55-0.851c0.934-0.6,1.85-1.483,2.75-2.649
			c1-1.367,1.75-2.384,2.25-3.05l-5.351,4c-1.166,0.767-3.183,1.183-6.05,1.25c3.167-0.567,5.967-1.684,8.4-3.351
			c1.3-0.866,2.3-1.767,3-2.7c0.7-0.966,1.267-2.199,1.7-3.699c0.1-0.4,0.149-1.384,0.149-2.95c0-1.3,0.184-2.25,0.55-2.851
			c0.067-0.066,0.934-1.05,2.601-2.949c0.767-0.934,1.25-2.15,1.45-3.65c0.099-0.958,0.082-2.325-0.051-4.1l0.051-1.351
			c1.233,2.233,2.716,4.101,4.449,5.601c0.267-0.4,0.434-0.934,0.5-1.601c0.4,0.267,0.95,0.816,1.65,1.65
			c0.767-0.2,1.283-0.8,1.55-1.8c0.2-1.2,0.367-2.051,0.5-2.551c0.434-1.533,0.667-3.166,0.7-4.899c0.033-1.2-0.033-2.834-0.2-4.9
			c-0.366-2.1-0.6-3.684-0.7-4.75l-0.05-1.85c0-0.434,0.05-0.851,0.15-1.25c0.066-0.334,0.267-0.733,0.6-1.2
			c0.4-0.5,0.634-0.866,0.7-1.1c0.033-0.134,0.05-0.817,0.05-2.051c0-2.733-0.6-6.666-1.8-11.8c-0.333-1.333-0.583-2.333-0.75-3
			c-0.267-1.2-0.417-2.216-0.45-3.05c-0.066-0.733,0-1.45,0.2-2.15c0.033-0.2,0.267-0.85,0.7-1.95c0.3-0.767,0.45-1.75,0.45-2.95
			c-0.034-1.367-0.051-2.383-0.051-3.05l0.7-0.35c-0.366-0.566-0.816-1-1.35-1.3c-0.634-0.367-1.45-0.817-2.45-1.35
			c1.1,0.533,1.917,0.45,2.45-0.25c0.899-1.3,0.733-3.017-0.5-5.15c-0.2-0.567-0.533-1.367-1-2.4c-0.467-1.1-0.8-1.917-1-2.45
			c0.233,0.233,0.5,0.3,0.8,0.2c0.066-0.5,0.116-1.333,0.15-2.5c0-1.067,0.066-1.883,0.199-2.45c0.367-1.6,0.45-3.15,0.25-4.65
			c-0.133-1.367-0.733-2.65-1.8-3.85c-0.6-0.7-1.616-1.717-3.05-3.05c0.2,0.7,0.5,1.4,0.9,2.1c0.1,0.133,0.533,0.767,1.3,1.9
			l0.3,0.45c-0.267-0.333-0.934-0.983-2-1.95c-0.866-0.767-1.483-1.483-1.85-2.15c-0.5-0.9-0.867-2.25-1.101-4.05
			c-0.233-2.167-0.45-3.566-0.649-4.2c0,0.133-0.084,0.167-0.25,0.1l-1.551-1.4c0.801,0.533,1.417,0.867,1.851,1l0.55,0.1
			l-0.45-0.25c-1.3-0.833-2.45-2.2-3.45-4.1c-0.6-1.1-1.366-2.75-2.3-4.95c-0.767-1.367-1.583-2.6-2.45-3.7
			c-0.066-0.1-0.75-0.7-2.05-1.8c-1.033-0.9-1.533-1.534-1.5-1.9H40.5c0.934-0.374,1.926-0.69,2.975-0.95L44,7.7
			c0.551-0.106,1.067-0.173,1.55-0.2c0.278-0.012,0.545-0.012,0.8,0c1.5,0.967,2.584,1.717,3.25,2.25
			c1.101,0.867,1.884,1.867,2.351,3c0.133,0.333,0.283,0.9,0.45,1.7c0.166,0.8,0.316,1.367,0.449,1.7c0.167,0.4,0.467,0.8,0.9,1.2
			c0.533,0.467,0.934,0.816,1.2,1.05l0.6,0.65c0.733,0.967,1.167,2.217,1.3,3.75c0,0.1,0.017,0.583,0.051,1.45
			c0,0.567,0.066,1.033,0.199,1.4c0.301,0.867,1,2.15,2.101,3.85c0.434,0.833,1.233,2.033,2.399,3.6c1.2,1.566,2.017,2.75,2.45,3.55
			l0.15,1.8c0.133,1.7,0.366,3.183,0.7,4.45l0.25,0.65c0,1.833,0.017,2.917,0.05,3.25c0.1,1.067,0.316,2.3,0.649,3.7
			C66.017,51.2,66.15,52.283,66.25,53.75z M58.45,58.75c-0.9-0.333-1.65-0.867-2.25-1.6l-0.601-1l-0.1-0.25V56l-0.7-1.1
			c-0.6-0.833-1.017-1.467-1.25-1.9c-0.366-0.667-0.6-1.4-0.7-2.2c-0.1-0.8-0.283-1.566-0.55-2.3
			c-0.467-0.867-0.816-1.583-1.05-2.15c-0.5-1.033-0.65-1.733-0.45-2.1c1.2,1.3,2.25,3.383,3.15,6.25
			c1,3.233,1.883,5.417,2.649,6.55C57.033,57.717,57.65,58.283,58.45,58.75z M17.9,125c-0.4,0.2-0.733,0.517-1,0.95l-0.05-0.45
			c0.566-0.533,1.15-1.033,1.75-1.5l0.7-0.55c0.5-0.267,1.2-0.55,2.1-0.851l0.05,0.051c0.767,0.433,1.367,0.683,1.8,0.75
			c0.7,0.133,2.033,0.116,4-0.051c1.733-0.166,3-0.083,3.8,0.25c-0.333,0.534-0.883,0.9-1.65,1.101c-0.5,0.1-1.217,0.149-2.15,0.149
			l-0.05-0.05l-2.05-0.05c-0.733-0.033-1.883-0.083-3.45-0.15c-1.3-0.033-2.367,0.034-3.2,0.2c-0.067,0-0.133,0-0.2,0l-0.4,0.05V125
			z M36.6,119.6c0.717-0.267,1.367-0.566,1.95-0.899c0.684-0.4,1.3-0.851,1.851-1.351l1.449-1.649l0.7-1.3
			c0.167-0.4,0.334-0.834,0.5-1.301c-0.233,1.767-0.684,3.334-1.35,4.7c-0.233,0.5-0.566,1.334-1,2.5c-0.467,1-1,1.7-1.601,2.101
			c-0.5,0.333-1.233,0.55-2.199,0.649c-0.834,0.134-1.617,0.15-2.351,0.05c0.767-0.733,0.883-1.316,0.35-1.75
			c-0.3-0.199-0.983-0.433-2.05-0.699h0.05c0.467-0.101,0.917-0.2,1.35-0.301L36.6,119.6z M42.45,14.95
			c-1.3-0.7-2.25-0.75-2.851-0.15c-0.533,0.5-0.666,1.317-0.399,2.45c0.133,0.633,0.366,1.45,0.7,2.45
			c-0.367-0.5-0.867-0.983-1.5-1.45c-0.7-0.567-1.317-0.917-1.851-1.05c-0.2-0.034-0.833-0.083-1.9-0.15
			c-0.767-0.033-1.367-0.2-1.8-0.5c-0.233-0.133-0.55-0.5-0.95-1.1c0.6-0.8,1.15-1.467,1.65-2l0.4,0.2
			c1.033,0.533,2.184,1.35,3.45,2.45c-0.434-0.633-0.767-1.383-1-2.25c-0.2-0.867-0.25-1.65-0.15-2.35c0.4,0.067,0.9,0.283,1.5,0.65
			c0.9,0.567,1.384,0.867,1.45,0.9c0.967,0.5,1.85,1,2.649,1.5L42.45,14.95z M46.75,35.95c0.167,0.367,0.184,0.867,0.05,1.5
			c-0.434,0.133-0.833,0.133-1.2,0c-0.066-0.367-0.066-0.767,0-1.2c0.134-0.467,0.217-0.833,0.25-1.1l0.7,0.35l0.2,0.35V35.95z
			 M42.2,28.5c1.033,0.967,1.733,1.7,2.1,2.2c0.7,0.833,1,1.767,0.9,2.8l-0.351,0.65c-0.3,0.567-0.416,1.217-0.35,1.95
			c-0.967,0.333-2.1-0.667-3.4-3c-1.166-2.1-1.8-3.75-1.899-4.95c-0.134-1.6,0.2-2.15,1-1.65C40.366,26.6,41.033,27.267,42.2,28.5z
			 M42.1,33.55c0.467,0.6,0.95,0.883,1.45,0.85c0.533-0.033,0.867-0.45,1-1.25L44.2,32.5c-0.101-0.067-0.5-0.433-1.2-1.1
			c-0.467-0.433-0.934-0.617-1.4-0.55c-0.1,0.667-0.116,1.167-0.05,1.5C41.583,32.783,41.767,33.183,42.1,33.55z M29.35,21.05
			c0.667,1.067,1.117,1.883,1.35,2.45l0.5,3.3c0.133,1,0.45,2.483,0.95,4.45c0.067,0.367,0.117,0.917,0.15,1.65
			c0.034,0.6,0.1,1.083,0.2,1.45l-0.6-0.7c-0.233-0.3-0.383-0.566-0.45-0.8c-0.233-1.033-0.45-1.817-0.65-2.35
			c-1.066-2.333-1.8-4.083-2.2-5.25l0.5-3.2C29.172,21.707,29.255,21.373,29.35,21.05z M42.9,52.5c0.733-0.233,1.399,0.05,2,0.85
			c0.566,1.066,0.966,1.783,1.199,2.15c1.167,1.867,2,3.533,2.5,5c0.7,2.1,1.017,3.65,0.95,4.65c-0.066,0.7-0.133,1.117-0.2,1.25
			c-0.133,0.167-0.517,0.3-1.149,0.4c-1.101,0.167-1.983-0.05-2.65-0.65L45.2,65.8c-0.667-0.8-1.117-1.566-1.351-2.3
			c-0.233-0.7-0.333-1.6-0.3-2.7c0-0.7-0.149-2.083-0.45-4.15C42.833,54.917,42.767,53.533,42.9,52.5z M47.8,61.65l0.05-0.5H47.7
			c-0.233-0.767-0.483-1.433-0.75-2c-0.367-0.767-0.717-1.167-1.05-1.2c-0.334-0.067-0.567,0.333-0.7,1.2
			c-0.167,1.367-0.101,2.7,0.2,4c0.399,1.833,1.199,2.6,2.399,2.3c0.033-0.267,0.05-1.15,0.05-2.65
			C47.884,62.567,47.866,62.183,47.8,61.65z M49.45,71.2c-0.233,0.933-0.733,1-1.5,0.2c-0.467-0.5-0.634-1.2-0.5-2.1
			c0.1-0.966,0.566-1.35,1.399-1.15l0.7,0.65C49.55,70.067,49.517,70.867,49.45,71.2z M52.55,65.5c1.267-0.3,1.983,0.467,2.15,2.3
			c0.133,1.567-0.05,2.883-0.55,3.95c-1.034,0.133-1.817,0.1-2.351-0.1c-0.7-0.3-1.133-0.917-1.3-1.85
			c-0.134-0.733-0.033-1.533,0.3-2.4c0.467-1.3,0.717-2.05,0.75-2.25L52.55,65.5z M53.2,67.8l0.35-0.65
			c-0.833-0.133-1.366,0.3-1.6,1.3c-0.167,0.667-0.184,1.45-0.05,2.35c0.733,0.233,1.166-0.083,1.3-0.95
			C53.2,68.817,53.2,68.133,53.2,67.8z M56.85,96.5l1.7,0.65c0,0.5,0.033,1.466,0.101,2.899c-0.067,1.267-0.367,2.15-0.9,2.65
			c-0.3,0.3-0.783,0.483-1.45,0.55c-0.7,0.1-1.217-0.017-1.55-0.35c-0.634-0.634-0.667-1.834-0.1-3.601
			C55.217,97.533,55.95,96.6,56.85,96.5z M52.9,96.75c-0.2-1.4,0.116-2.267,0.949-2.6L54.2,93.8c0,1.667-0.017,2.65-0.05,2.95
			C53.75,96.917,53.333,96.917,52.9,96.75z M68.7,92.3c0.033-2.866-0.134-4.7-0.5-5.5l-1.351,5.7c0,0.434-0.017,1.083-0.05,1.95
			c0,0.8,0.033,1.467,0.101,2C68.033,96.884,68.634,95.5,68.7,92.3z M65.45,85.8c-0.834-5.566-1.25-8.633-1.25-9.2
			c0,1.867,0.116,4.583,0.35,8.15c0.2,3.566,0.3,6.267,0.3,8.1c-0.066,0.233-0.05,0.434,0.051,0.601
			C65.866,93.583,66.05,91.033,65.45,85.8z M69.55,100.5h-2c0,0.267,0,0.783,0,1.55c0.066,0.634,0.4,0.9,1,0.8
			c0.434-0.066,0.733-0.399,0.9-1C69.55,101.417,69.583,100.967,69.55,100.5z M55.9,102.85c0.6-0.1,0.949-0.6,1.05-1.5
			c0.1-0.866-0.033-1.483-0.4-1.85l-1-0.35c-0.533,0.333-0.8,1.05-0.8,2.149C54.75,102.434,55.134,102.95,55.9,102.85z M57.55,128.8
			l-1.35-1c-0.167,0.334-0.5,0.851-1,1.55c-0.367,0.634-0.467,1.217-0.3,1.75c0.8,0.301,1.35,0.051,1.649-0.75
			C56.917,129.417,57.25,128.9,57.55,128.8z M56.85,119.15l-0.3,0.35c-0.967,0.434-1.783,1.616-2.45,3.55
			c-0.699,2.066-0.566,3.384,0.4,3.95c1.167,0.667,2.184-0.316,3.05-2.95C58.417,121.417,58.184,119.783,56.85,119.15z"/>
		<path style="fill-rule:evenodd;clip-rule:evenodd;fill:#5B4E3E;" d="M55.5,56v-0.1l0.1,0.25l0.601,1
			c0.6,0.733,1.35,1.267,2.25,1.6c1.033,0.3,1.916,0.117,2.649-0.55l0.101-0.05l-0.05-0.1L60.2,56.5c0.1-0.767-0.25-2.067-1.05-3.9
			c0.6,0.6,1.116,1.316,1.55,2.15c1.233,2.133,1.399,3.85,0.5,5.15c-0.533,0.7-1.351,0.783-2.45,0.25
			c-0.066-0.033-0.134-0.066-0.2-0.1c-0.8-0.433-1.5-1.05-2.1-1.85C55.783,57.367,55.467,56.633,55.5,56z M66.25,53.75
			c-0.1-1.467-0.233-2.55-0.4-3.25c-0.333-1.4-0.55-2.633-0.649-3.7c-0.033-0.333-0.05-1.417-0.05-3.25
			c0.267,0.534,0.733,1.25,1.399,2.15c0.7,1,1.167,1.7,1.4,2.1c0.399,0.833,0.684,1.517,0.85,2.05c-0.366,0.8-0.666,2.467-0.899,5
			L67.85,55.5c-0.267,2.433-0.25,4.767,0.051,7c0.199,1.4,0.6,2.85,1.199,4.35c0.667,1.566,1.45,2.85,2.351,3.85l0.649,2.4
			c0.067,0.5,0.117,1.017,0.15,1.55l0.95,10.2c0.733,9.733,0.85,18.067,0.35,25l-0.399,4.301c-0.233,0.133-0.467,0.35-0.7,0.649
			c-0.2,0.3-0.384,0.733-0.55,1.3c-0.167,0.567-0.367,1-0.601,1.301c-1.033,1.433-2.5,1.883-4.399,1.35
			c-0.057-0.113-0.073-0.229-0.051-0.35c-0.083,0.395,0.034,0.861,0.351,1.399c0.133,0.3,0.283,0.617,0.45,0.95
			c0.133,0.267,0.199,0.634,0.199,1.1l0.101,1.5c0,1.101-0.033,1.801-0.101,2.101c-0.199,1.233-0.75,2.684-1.649,4.35
			c-0.267,0.5-0.834,1.167-1.7,2c-0.833,0.8-1.366,1.434-1.6,1.9c0.566,0.267,0.216,1.166-1.051,2.7
			c-0.966,1.133-1.866,2.033-2.699,2.699c-1.101,0.834-2.834,2.017-5.2,3.551l-2.101,1.5c-0.933,0.333-1.899,0.433-2.899,0.3
			c-0.134-0.467-0.2-0.75-0.2-0.851c-0.533,0.034-1.2,0.434-2,1.2c-0.8,0.834-1.517,1.283-2.15,1.351
			c-0.8,0.1-1.649,0.149-2.55,0.149c-1.166-0.033-1.934-0.184-2.3-0.45c-0.2,0.467-0.967,0.95-2.3,1.45
			c-0.733,0.267-1.7,0.584-2.9,0.95c-2,0.733-4.65,1.15-7.95,1.25h4.85c1.1-0.1,1.983-0.15,2.65-0.15c1.3-0.066,2.1,0.067,2.4,0.4
			c-0.533,0.066-1.483,0.333-2.85,0.8c-1.2,0.367-2.2,0.566-3,0.601c-0.8,0.033-2.033,0.066-3.7,0.1c-1.467-0.033-2.7-0.2-3.7-0.5
			c-0.867-0.267-2.45-0.717-4.75-1.35c-2.033-0.667-3.583-1.434-4.65-2.301c-0.767-1.166-1.317-2.6-1.65-4.3h0.05
			c0.333-0.033,0.817-0.033,1.45,0c0.667,0.033,1.133,0.017,1.4-0.05c-0.167-0.1-0.7-0.283-1.6-0.55
			c-0.667-0.2-1.15-0.417-1.45-0.65c0-0.033-0.017-0.05-0.05-0.05c-0.033-0.366-0.067-0.767-0.1-1.2
			c-0.033-0.633-0.033-1.316,0-2.05c0-0.634,0.033-1.283,0.1-1.95l0.05-0.7c0.034-0.6,0.083-1.216,0.15-1.85
			c0.066,3.267,1.017,5.283,2.85,6.05c0.333,0.134,1.117,0.283,2.35,0.45c1.1,0.134,1.817,0.333,2.15,0.6
			c0.2,0.167,0.4,0.483,0.6,0.95c0.2,0.533,0.35,0.867,0.45,1c0.733,1.066,1.683,2,2.85,2.8c1.233,0.801,2.983,1.15,5.25,1.051
			c2.533-0.301,4.367-0.467,5.5-0.5c1.167,0,2.05-0.017,2.649-0.051c0.967-0.033,1.834-0.149,2.601-0.35
			c1.7-0.434,2.983-0.866,3.85-1.3c1.467-0.7,2.467-1.601,3-2.7c-0.133-0.066-0.267-0.233-0.399-0.5
			c1.433-0.233,2.55-0.95,3.35-2.15c0.8-1.6,1.417-2.816,1.85-3.649c0.334-0.566,0.75-1.483,1.25-2.75
			c0.467-1.267,0.867-2.2,1.2-2.8c-0.399,0.8-0.816,2.466-1.25,5c-0.399,2.199-0.983,3.783-1.75,4.75c0.5-0.134,1.084-0.467,1.75-1
			c0.7-0.601,1.217-1.017,1.55-1.25c0.967-0.667,1.634-1.217,2-1.65c0.7-1.033,1.267-1.8,1.7-2.3c0.967-1.101,1.517-1.733,1.65-1.9
			c0.5-0.7,0.833-1.467,1-2.3c0.1-0.733,0.166-1.25,0.2-1.55c0.066-0.533,0.25-1.05,0.55-1.55l0.6-0.9
			c0.033-0.733,0.25-1.434,0.65-2.1c0.033-0.034,0.5-0.784,1.399-2.25c1.5-2.567,2.25-6.034,2.25-10.4c0-2.033-0.116-3.7-0.35-5
			c-0.3-2.2-0.384-3.7-0.25-4.5l0.55,0.8c0.733,1,1.134,2.45,1.2,4.351c0.033,1.1-0.017,2.649-0.15,4.649c0,0.634,0,1.5,0,2.601
			c0.101,0.899,0.534,1.566,1.301,2c1.5,0.8,2.649,0.166,3.449-1.9c0.434-1.1,0.601-2.75,0.5-4.95c-0.166-2.434-0.25-4.133-0.25-5.1
			c0-2.101-0.3-3.75-0.899-4.95c-0.4-0.733-0.634-1.333-0.7-1.8c-0.1-0.601-0.017-1.267,0.25-2c0.134-0.3,0.417-0.7,0.85-1.2
			c0.4-0.5,0.667-0.917,0.801-1.25c0.1-0.3,0.133-0.7,0.1-1.2c-0.033-0.566-0.05-0.983-0.05-1.25c0-1.899-0.117-3.45-0.351-4.649
			c-0.466-2.167-0.883-3.717-1.25-4.65c-0.199-0.467-0.55-1.067-1.05-1.8c-0.533-0.733-0.899-1.333-1.1-1.8
			c-0.267-0.7-0.467-1.6-0.601-2.7c-0.166-1.6-0.267-2.534-0.3-2.8c-0.533-2.8-1.066-5.1-1.6-6.9c-0.267-1-0.351-2.117-0.25-3.35
			l0.25-1.6c0.1-0.667,0.1-1.667,0-3c-0.101-1.433-0.134-2.45-0.101-3.05l0.9,0.6L66.25,53.75z M12.95,132.425
			c-0.133-0.174-0.25-0.35-0.35-0.524c0.1-0.334,0.233-0.65,0.4-0.95l0.4-0.9c0.133-0.267,0.3-0.55,0.5-0.85
			c0.267-0.467,0.583-0.934,0.95-1.4v0.05c0,0.267-0.017,0.75-0.05,1.45c-0.033,0.634,0.017,1.117,0.15,1.45
			c0.1,0.333,0.367,0.75,0.8,1.25c0.533,0.566,0.9,0.95,1.1,1.15c1.9,2.133,3.633,3.25,5.2,3.35c-1.333-0.033-2.283-0.083-2.85-0.15
			c-1-0.166-1.883-0.483-2.65-0.949L13.1,132.6L12.95,132.425z M16.9,125.95c0.133,1.066,0.333,1.8,0.6,2.2l0.3,0.3
			c0.333,0.3,1.067,0.616,2.2,0.95c-0.633,0.166-1.533,0.066-2.7-0.301c-1.167-0.366-1.95-0.816-2.35-1.35l-0.05-0.05
			c0.533-0.7,1.184-1.434,1.95-2.2L16.9,125.95z M46.35,7.5c1.4,0,3,0.317,4.801,0.95c1.1,1.233,1.916,2.9,2.449,5
			c0.167,0.533,0.334,1.267,0.5,2.2c0.2,0.767,0.551,1.367,1.051,1.8c0.933,0.7,1.566,1.216,1.899,1.55
			c0.5,0.533,0.884,1.25,1.15,2.15c0.133,0.434,0.283,1.017,0.45,1.75c0.166,0.667,0.399,1.25,0.699,1.75
			c1.2,2.067,1.95,3.684,2.25,4.85c0.134,0.533,0.467,1.267,1,2.2c0.534,0.9,0.867,1.633,1,2.2c0.167,0.567,0.317,1.483,0.45,2.75
			c-0.434-0.8-1.25-1.983-2.45-3.55c-1.166-1.567-1.966-2.767-2.399-3.6c-1.101-1.7-1.8-2.983-2.101-3.85
			c-0.133-0.367-0.199-0.833-0.199-1.4c-0.034-0.867-0.051-1.35-0.051-1.45c-0.133-1.533-0.566-2.783-1.3-3.75l-0.6-0.65
			c-0.267-0.233-0.667-0.583-1.2-1.05c-0.434-0.4-0.733-0.8-0.9-1.2c-0.133-0.333-0.283-0.9-0.449-1.7
			c-0.167-0.8-0.317-1.367-0.45-1.7c-0.467-1.133-1.25-2.133-2.351-3C48.934,9.217,47.85,8.467,46.35,7.5z M33.55,13.45
			c1.934-2.067,4.25-3.617,6.95-4.65h0.05c-0.033,0.367,0.467,1,1.5,1.9c1.3,1.1,1.983,1.7,2.05,1.8c0.867,1.1,1.684,2.333,2.45,3.7
			c0.934,2.2,1.7,3.85,2.3,4.95c1,1.9,2.15,3.267,3.45,4.1l0.45,0.25l-0.55-0.1c-0.434-0.133-1.05-0.467-1.851-1
			c-0.6-0.433-1.233-0.95-1.899-1.55c-0.634-0.6-1.184-1.333-1.65-2.2c-0.2-0.333-0.6-1.167-1.2-2.5c-0.3-0.7-0.75-1.316-1.35-1.85
			c-0.366-0.333-0.967-0.783-1.8-1.35l-0.601-0.4c-0.8-0.5-1.683-1-2.649-1.5c-0.066-0.033-0.55-0.333-1.45-0.9
			c-0.6-0.367-1.1-0.583-1.5-0.65c-0.1,0.7-0.05,1.483,0.15,2.35c0.233,0.867,0.566,1.617,1,2.25c-1.267-1.1-2.417-1.917-3.45-2.45
			L33.55,13.45z M58.7,49.9c-0.566-0.533-0.851-2.333-0.851-5.4l0.7-2.7c0-0.9-0.033-1.566-0.1-2c-0.134-0.6-0.367-1.183-0.7-1.75
			l-0.3-0.45c-0.767-1.133-1.2-1.767-1.3-1.9c-0.4-0.7-0.7-1.4-0.9-2.1c1.434,1.333,2.45,2.35,3.05,3.05
			c1.066,1.2,1.667,2.483,1.8,3.85c0.2,1.5,0.117,3.05-0.25,4.65c-0.133,0.567-0.199,1.383-0.199,2.45
			c-0.034,1.167-0.084,2-0.15,2.5C59.2,50.2,58.934,50.133,58.7,49.9z M26.2,139.8c-0.167-0.066-0.284-0.149-0.35-0.25
			c2.333,0.101,4.433,0.066,6.3-0.1c0.367-0.033,1.583-0.05,3.65-0.05c2.867-0.067,4.884-0.483,6.05-1.25l5.351-4
			c-0.5,0.666-1.25,1.683-2.25,3.05c-0.9,1.166-1.816,2.05-2.75,2.649c-0.733,0.467-1.584,0.75-2.55,0.851
			c-0.467,0.066-1.4,0.1-2.801,0.1c-2.633,0-4.433-0.1-5.399-0.3c-0.2-0.033-1.067-0.116-2.6-0.25
			C27.517,140.15,26.633,140,26.2,139.8z M31.5,133.4c0.333-0.134,0.833-0.233,1.5-0.301c0.8-0.1,1.3-0.166,1.5-0.199
			c0.567-0.101,1.2-0.367,1.9-0.801c0.866-0.5,1.466-0.816,1.8-0.949l6.649-6.65c-1.8,3.1-2.75,4.717-2.85,4.85
			c-1.134,1.7-2.4,3.051-3.8,4.051c-0.434,0.3-1.117,0.6-2.05,0.899c-2.5,0.733-4.367,0.65-5.601-0.25
			C30.783,133.75,31.1,133.533,31.5,133.4z M42.1,33.55c-0.333-0.367-0.517-0.767-0.55-1.2c-0.066-0.333-0.05-0.833,0.05-1.5
			c0.467-0.067,0.934,0.117,1.4,0.55c0.7,0.667,1.1,1.033,1.2,1.1l0.35,0.65c-0.133,0.8-0.467,1.217-1,1.25
			C43.05,34.433,42.566,34.15,42.1,33.55z M29.6,20.25l1.1-2.775c0.049-0.088,0.099-0.18,0.15-0.275v3.6
			c0,0.467,0.066,1.233,0.2,2.3c0.133,0.967,0.184,1.717,0.15,2.25c-0.034-0.533-0.2-1.15-0.5-1.85
			c-0.233-0.567-0.684-1.383-1.35-2.45c0.021-0.075,0.045-0.15,0.075-0.225C29.476,20.629,29.534,20.438,29.6,20.25z M47.7,61.15
			h-0.15c-1.033-0.167-1.6,0.434-1.7,1.8c-0.133,1.4,0.301,1.9,1.301,1.5c0.333-1.233,0.55-2.167,0.649-2.8
			c0.066,0.533,0.084,0.917,0.05,1.15c0,1.5-0.017,2.383-0.05,2.65c-1.2,0.3-2-0.467-2.399-2.3c-0.301-1.3-0.367-2.633-0.2-4
			c0.133-0.867,0.366-1.267,0.7-1.2c0.333,0.033,0.683,0.433,1.05,1.2C47.217,59.717,47.467,60.383,47.7,61.15z M53.2,67.8
			c0,0.333,0,1.017,0,2.05c-0.134,0.867-0.566,1.183-1.3,0.95c-0.134-0.9-0.117-1.683,0.05-2.35c0.233-1,0.767-1.434,1.6-1.3
			L53.2,67.8z M65.45,85.8c0.6,5.233,0.416,7.783-0.55,7.65c-0.101-0.167-0.117-0.367-0.051-0.601c0-1.833-0.1-4.533-0.3-8.1
			c-0.233-3.567-0.35-6.283-0.35-8.15C64.2,77.167,64.616,80.233,65.45,85.8z M68.7,92.3c-0.066,3.2-0.667,4.584-1.8,4.15
			c-0.067-0.533-0.101-1.2-0.101-2c0.033-0.867,0.05-1.517,0.05-1.95l1.351-5.7C68.566,87.6,68.733,89.434,68.7,92.3z M69.55,100.5
			c0.033,0.467,0,0.917-0.1,1.35c-0.167,0.601-0.467,0.934-0.9,1c-0.6,0.101-0.934-0.166-1-0.8c0-0.767,0-1.283,0-1.55H69.55z
			 M55.9,102.85c-0.767,0.101-1.15-0.416-1.15-1.55c0-1.1,0.267-1.816,0.8-2.149l1,0.35c0.367,0.366,0.5,0.983,0.4,1.85
			C56.85,102.25,56.5,102.75,55.9,102.85z M56.85,119.15c1.334,0.633,1.567,2.267,0.7,4.899c-0.866,2.634-1.883,3.617-3.05,2.95
			c-0.967-0.566-1.1-1.884-0.4-3.95c0.667-1.934,1.483-3.116,2.45-3.55L56.85,119.15z M57.55,128.8c-0.3,0.101-0.633,0.617-1,1.55
			c-0.3,0.801-0.85,1.051-1.649,0.75c-0.167-0.533-0.067-1.116,0.3-1.75c0.5-0.699,0.833-1.216,1-1.55L57.55,128.8z"/>
		<path style="fill-rule:evenodd;clip-rule:evenodd;fill:#9F896E;" d="M40.3,64.35c-0.3-1.5-0.684-3-1.149-4.5
			c-0.767-2.533-1.851-5.4-3.25-8.6c0.8,0.033,1.517,0.517,2.15,1.45c0.533,0.8,0.9,1.716,1.101,2.75c0.233,0.966,0.566,2.833,1,5.6
			c0.333,1.733,0.899,3.517,1.699,5.35c0.867,1.967,1.4,4.167,1.601,6.6c0.133,1.4,0.166,3.7,0.1,6.9
			c-0.033,1.4-0.283,2.65-0.75,3.75l-0.149-1.2l-1.4-12.6c-0.033-0.367-0.066-0.717-0.1-1.05L40.3,64.35z M62.1,98.55
			c0.067,2.8-0.017,5.334-0.25,7.601c-0.066,0.866-0.166,1.983-0.3,3.35c-0.2,1.1-0.616,2.116-1.25,3.05
			c-0.033,0.033-0.25,0.417-0.649,1.15c-0.301,0.566-0.534,0.899-0.7,1c-0.5,0.333-0.8,0.45-0.9,0.35
			c-0.066-0.066-0.217-0.35-0.45-0.85c-0.366-0.5-0.583-0.884-0.649-1.15c-0.101-0.399-0.033-0.816,0.2-1.25
			c0.6-0.467,0.966-0.8,1.1-1c0.267-0.3,0.583-0.85,0.95-1.649c0.566-1.2,0.899-2.75,1-4.65l1-17.7c0.467,4.4,0.75,7.7,0.85,9.9
			L62.1,98.55z M50.2,110.8l-0.8-10.45c0.233,1.167,0.733,2.867,1.5,5.101c0.433,1.533,0.649,3.55,0.649,6.05
			c0,0.1,0.017,0.866,0.05,2.3c0.034,0.934-0.017,1.684-0.149,2.25c-0.167,0.733-0.617,1.834-1.351,3.3
			c-0.733,1.4-1.149,2.483-1.25,3.25c-0.166,1.334-0.233,3.25-0.199,5.75c-0.167,2.101-0.934,3.784-2.301,5.051
			c-3.066,2.833-7.083,4.3-12.05,4.399c1.9-0.467,3.967-1.783,6.2-3.95l4.35-4.1c0.967-0.9,1.534-1.767,1.7-2.6
			c0.101-0.534,0.117-1.267,0.05-2.2c-0.066-1.2-0.1-1.934-0.1-2.2c0.033-0.833,0.2-1.634,0.5-2.4c0.2-0.533,0.566-1.25,1.1-2.149
			c0.5-0.7,0.867-1.25,1.101-1.65c0.5-0.7,0.816-1.283,0.95-1.75c0.133-0.467,0.183-1.116,0.149-1.95
			C50.233,111.917,50.2,111.233,50.2,110.8z M53.6,113.15l-0.149,2.3c-0.434-0.5-0.601-1.65-0.5-3.45c0.166-2,0.25-3.283,0.25-3.85
			l-0.65-9c0.967,3.5,1.334,7.716,1.101,12.649L53.6,113.15z M18.5,124.8c1.233-0.1,3.45-0.116,6.65-0.05l2.05,0.05l0.05,0.05
			l4.6,1.301c-0.733,0.3-1.75,0.483-3.05,0.55c-0.667,0.033-1.65,0.017-2.95-0.05l-2.6-0.15c-0.333-0.033-1.383-0.083-3.15-0.15
			c-1.533-0.199-2.267-0.649-2.2-1.35v-0.15l0.4-0.05C18.367,124.8,18.433,124.8,18.5,124.8z M46.75,35.95v-0.1
			c-0.366-0.733-0.55-1.517-0.55-2.35c-0.033-1.967-0.134-3.433-0.3-4.4c-0.301-1.567-0.867-2.883-1.7-3.95L41.6,20.5
			c1.134,0.9,1.867,1.55,2.2,1.95c0.3,0.333,0.934,1.216,1.9,2.65c0.8,1.2,1.233,1.85,1.3,1.95c0.434,0.7,0.75,1.4,0.95,2.1
			c0.366,1.533,1.033,3.533,2,6c0.233,0.6,0.5,1.483,0.8,2.65c0.2,0.534,0.684,1.2,1.45,2c1.133,1.967,2.1,4.867,2.899,8.7
			c0.233,1.033,0.483,2.517,0.75,4.45c0.334,1.633,0.967,3.017,1.9,4.15c-0.667-0.1-1.3-0.833-1.9-2.2c-0.199-0.467-0.533-1.5-1-3.1
			c-0.1-0.333-0.267-1-0.5-2c-0.166-0.867-0.35-1.517-0.55-1.95c-0.2-0.533-0.55-1.167-1.05-1.9c-0.267-0.4-0.667-1-1.2-1.8
			c-2-3.033-3.35-5.267-4.05-6.7L46.75,35.95z M46.85,46.25c0.134,0.233,0.467,1.017,1,2.35c0.367,0.967,0.75,1.717,1.15,2.25
			c0.2,0.3,0.7,0.833,1.5,1.6c0.634,0.633,1.083,1.2,1.35,1.7c0.101,0.167,0.2,0.45,0.301,0.85c0.1,0.367,0.216,0.633,0.35,0.8
			c0.2,0.3,0.6,0.733,1.2,1.3c0.566,0.533,0.967,1,1.2,1.4c0.133,0.233,0.483,1.083,1.05,2.55c0.233,0.7,0.45,1.6,0.649,2.7
			c0.233,1.4,0.4,2.3,0.5,2.7c0.534,2.033,0.684,4.283,0.45,6.75c-0.066,0.9-0.1,3.133-0.1,6.7c0,2.8-0.167,5-0.5,6.6
			c-0.233,1-0.917,2.05-2.05,3.15c-1.301,1.267-2.101,2.233-2.4,2.899c-1.033,2.233-1.583,4.834-1.65,7.8
			c-0.066-3-0.066-4.966,0-5.899c0.134-2.2,0.584-4.084,1.351-5.65c0.133-0.267,0.583-0.967,1.35-2.1c0.566-0.834,0.9-1.566,1-2.2
			c0.066-0.634-0.017-1.467-0.25-2.5c-0.267-1.233-0.416-2.05-0.45-2.45c-0.066-0.8-0.066-1.6,0-2.4
			c0.067-0.566,0.217-1.133,0.45-1.7l0.851-1.6c0.5-0.967,0.716-2.05,0.649-3.25c-0.033-0.833-0.267-1.983-0.7-3.45
			c-0.233-0.867-0.633-1.933-1.199-3.2c-0.601-1.4-1.051-2.45-1.351-3.15c-0.5-0.966-0.883-1.716-1.149-2.25
			c-0.434-0.9-0.617-1.7-0.551-2.4L46.2,45.2C46.634,45.867,46.85,46.217,46.85,46.25z M41.25,39.8
			c1.533,2.233,2.717,4.617,3.55,7.15c0.134,0.367,0.417,1.133,0.851,2.3c0.3,1.067,0.267,1.817-0.101,2.25
			c-1.233-0.567-2.116-0.667-2.649-0.3c-0.5,0.367-0.733,1.233-0.7,2.6c0,0.934,0.116,2.417,0.35,4.45
			c0.233,1.933,0.334,3.417,0.3,4.45C41.95,57.6,40.4,53.083,38.2,49.15c-0.066-0.133-0.667-1.1-1.8-2.9
			c-0.767-1.267-1.284-2.3-1.55-3.1c-0.1-0.3-0.167-0.733-0.2-1.3c-0.066-0.833-0.1-1.283-0.1-1.35
			c-0.333-1.167-0.583-2.05-0.75-2.65c-0.3-1.133-0.316-2-0.05-2.6c0.167,0.4,0.4,1.117,0.7,2.15c0.233,0.934,0.483,1.65,0.75,2.15
			c0.1,0.167,0.733,1.117,1.899,2.85c0.733,1.133,1.317,1.967,1.75,2.5c0.634,0.633,1.101,1.133,1.4,1.5l-0.45-1.2
			c-0.6-1.3-1.333-2.65-2.2-4.05c-1.667-2.733-2.8-5.283-3.399-7.65c-0.233-0.867-0.45-2.217-0.65-4.05c-0.2-1.767-0.433-3.1-0.7-4
			c-0.8-2.767-1.133-5.2-1-7.3l1-0.65c0.233,0.233,0.433,0.7,0.6,1.4c0.233,0.833,0.4,1.367,0.5,1.6
			c0.333,0.567,0.583,0.983,0.75,1.25c0.267,0.5,0.433,0.967,0.5,1.4c0.066,0.4,0.066,1.017,0,1.85c-0.067,0.8-0.067,1.4,0,1.8
			c0.1,0.767,0.4,1.9,0.899,3.4c0.334,1.466,1.051,3.133,2.15,5C38.616,35.833,39.616,37.367,41.25,39.8z M43.75,67.2
			c0.233,1.267,0.833,3.267,1.8,6c0.934,2.566,1.483,4.583,1.65,6.05c0.066,0.6,0.149,1.8,0.25,3.6c0.1,1.5,0.217,2.7,0.35,3.601
			c0.367,2.8,0.584,4.566,0.65,5.3c0.166,2.033,0.166,3.816,0,5.35c-0.467,3.834-0.767,9.534-0.9,17.101
			c-0.133,3.1-1.133,5.283-3,6.55c-0.833,0.566-2.283,1.25-4.35,2.05c-0.334,0.167-0.917,0.483-1.75,0.95
			c-0.733,0.333-1.334,0.45-1.8,0.35c2.366-1.1,4.1-2.416,5.199-3.949c0.5-0.667,0.851-1.584,1.051-2.75
			c0.066-0.4,0.166-1.384,0.3-2.95l0.7-5.5c0.267-1.367,0.699-2.967,1.3-4.8c0.533-1.601,0.783-3.534,0.75-5.801
			c-0.033-1-0.2-3-0.5-6C44.616,83.816,44.2,77.2,44.2,72.5L43.75,67.2z M58.85,98.8L58.6,84.5c0.101,1.7,0.334,4.3,0.7,7.8
			c0.434,3.8,0.517,6.834,0.25,9.101c-0.1,1-0.434,1.983-1,2.949c-0.7,1.233-1.483,1.7-2.35,1.4c0.133-0.4,0.483-0.95,1.05-1.65
			c0.634-0.733,1.033-1.3,1.2-1.699C58.717,101.7,58.85,100.5,58.85,98.8z M44.9,123.75c-0.267,0.566-0.601,1.033-1,1.4
			c-0.267,0.3-0.7,0.633-1.301,1c-0.666,0.399-1.116,0.716-1.35,0.949c-0.533,0.467-1.3,1.184-2.3,2.15
			c-1.334,1-2.95,1.917-4.85,2.75c-0.934,0.366-2.983,0.483-6.15,0.35c-3.367-0.133-4.934-0.633-4.7-1.5
			c0.8-0.066,2.017-0.066,3.65,0c1.6,0.067,2.8,0.051,3.6-0.05c1.467-0.133,3.117-0.934,4.95-2.399c0.5-0.4,1.866-1.7,4.1-3.9
			l6-2.35C45.384,122.55,45.167,123.083,44.9,123.75z M27.8,121.5c1.967-0.267,3.35-0.483,4.15-0.65c-1.4,1.334-3.083,2-5.05,2
			c-2.167,0-3.517-0.183-4.05-0.55l-0.05-0.05c1.034-0.233,2.517-0.467,4.45-0.7L27.8,121.5z"/>
		
			<radialGradient id="SVGID_4_" cx="33.6499" cy="17.5498" r="12.3375" gradientTransform="matrix(1 0 0 -1.1033 0 36.9133)" gradientUnits="userSpaceOnUse">
			<stop  offset="0.0549" style="stop-color:#FEDEB1;stop-opacity:0.098"/>
			<stop  offset="0.2392" style="stop-color:#FEDEB1;stop-opacity:0.098"/>
		</radialGradient>
		<path style="fill-rule:evenodd;clip-rule:evenodd;fill:url(#SVGID_4_);" d="M36.25,6.05c0.066,0,0.134,0,0.2,0
			C36.55,6.517,36.434,7,36.1,7.5c-0.266,0.367-0.667,0.733-1.2,1.1c-0.667,0.467-1.65,1.05-2.95,1.75
			c-0.233,0.167-0.633,0.4-1.2,0.7c-0.4,0.167-0.767,0.467-1.1,0.9c-0.233,0.3-0.45,0.8-0.65,1.5c-0.233,0.5-0.7,0.65-1.4,0.45
			c-0.333-1.733,0.15-2.867,1.45-3.4l1.5-2c0.233-1.367,0.967-2.2,2.2-2.5C33.417,5.833,34.583,5.85,36.25,6.05z"/>
		
			<radialGradient id="SVGID_5_" cx="24.3999" cy="25.4502" r="4.775" gradientTransform="matrix(1 0 0 -1.1021 0 53.4987)" gradientUnits="userSpaceOnUse">
			<stop  offset="0.0549" style="stop-color:#FEDEB1;stop-opacity:0.098"/>
			<stop  offset="0.2392" style="stop-color:#FEDEB1;stop-opacity:0.098"/>
		</radialGradient>
		<path style="fill-rule:evenodd;clip-rule:evenodd;fill:url(#SVGID_5_);" d="M25.25,21.65l0.3,0.85
			c-0.233,0.9-0.75,1.417-1.55,1.55c-0.133,0.034-0.267,0.05-0.4,0.05c-1.067,0.033-1.6-0.5-1.6-1.6c0-0.867,0.317-1.367,0.95-1.5
			h2.1L25.25,21.65z"/>
		
			<radialGradient id="SVGID_6_" cx="31.2998" cy="35.0498" r="16" gradientTransform="matrix(1 0 0 -1.1031 0 73.7141)" gradientUnits="userSpaceOnUse">
			<stop  offset="0.0549" style="stop-color:#000000;stop-opacity:0.6"/>
			<stop  offset="0.2392" style="stop-color:#000000;stop-opacity:0.6"/>
		</radialGradient>
		<path style="fill-rule:evenodd;clip-rule:evenodd;fill:url(#SVGID_6_);" d="M25.85,21.35c0-0.2,0.25-0.383,0.75-0.55
			c0.233-0.133,0.55-0.25,0.95-0.35c0.8,0.066,1.483,0,2.05-0.2c-0.066,0.188-0.125,0.379-0.175,0.575
			c-0.029,0.074-0.054,0.149-0.075,0.225c-0.095,0.323-0.178,0.657-0.25,1l-0.5,3.2c-0.067,0.8-0.1,1.633-0.1,2.5
			c0,0.833,0.067,1.717,0.2,2.65c-0.367,0.033-0.75,0.05-1.15,0.05c-0.333,0-0.65-0.017-0.95-0.05c0.066-0.7,0.217-1.167,0.45-1.4
			l-2.1,0.9c-0.3-0.133-0.583-0.283-0.85-0.45c-1.167-0.733-1.167-1.517,0-2.35c0.267-0.2,0.9-0.35,1.9-0.45
			c0.933-0.1,1.567-0.35,1.9-0.75c0.533-0.667,0.7-1.183,0.5-1.55c-0.1-0.2-0.383-0.517-0.85-0.95
			c-0.433-0.633-0.983-1.267-1.65-1.9C25.867,21.433,25.85,21.383,25.85,21.35z"/>
		
			<radialGradient id="SVGID_7_" cx="25.5498" cy="34.8999" r="6.275" gradientTransform="matrix(1 0 0 -1.1036 0 73.4149)" gradientUnits="userSpaceOnUse">
			<stop  offset="0.0549" style="stop-color:#FEDEB1;stop-opacity:0.098"/>
			<stop  offset="0.2392" style="stop-color:#FEDEB1;stop-opacity:0.098"/>
		</radialGradient>
		<path style="fill-rule:evenodd;clip-rule:evenodd;fill:url(#SVGID_7_);" d="M26.6,30.4c-0.033,0.233-0.05,0.5-0.05,0.8
			c-0.033,1-0.367,1.617-1,1.85c-0.566,0.2-1.216,0.05-1.95-0.45c-0.7-0.533-1.083-1.083-1.15-1.65c0.133-0.5,0.5-0.65,1.1-0.45
			l1.4-0.6l2.1-0.9C26.817,29.233,26.667,29.7,26.6,30.4z"/>
		
			<radialGradient id="SVGID_8_" cx="23.2998" cy="122.2002" r="7.9625" gradientTransform="matrix(1 0 0 -1.1036 0 257.0616)" gradientUnits="userSpaceOnUse">
			<stop  offset="0.0549" style="stop-color:#FEDEB1;stop-opacity:0.098"/>
			<stop  offset="0.2392" style="stop-color:#FEDEB1;stop-opacity:0.098"/>
		</radialGradient>
		<path style="fill-rule:evenodd;clip-rule:evenodd;fill:url(#SVGID_8_);" d="M20.45,116.8c1.5-0.733,2.867-1,4.1-0.8h1
			c-0.2,2.134-0.95,3.467-2.25,4c-1.033,0.434-2.6,0.4-4.7-0.1C18.167,118.667,18.783,117.634,20.45,116.8z"/>
		
			<radialGradient id="SVGID_9_" cx="30.3999" cy="182.4502" r="66.8125" gradientTransform="matrix(1 0 0 -1.1029 0 383.6745)" gradientUnits="userSpaceOnUse">
			<stop  offset="0.0784" style="stop-color:#211C15;stop-opacity:0.498"/>
			<stop  offset="0.2039" style="stop-color:#211C15;stop-opacity:0.498"/>
		</radialGradient>
		<path style="fill-rule:evenodd;clip-rule:evenodd;fill:url(#SVGID_9_);" d="M44.15,151.45c-0.4,2.033-1.067,3.666-2,4.899
			c-1.034,1.434-1.684,2.284-1.95,2.551c-0.9,0.966-1.8,1.466-2.7,1.5c-0.9,0.033-1.366-0.15-1.4-0.551
			c0.101-0.699,0.084-1.333-0.05-1.899c-0.367-1.8-1.233-2.367-2.6-1.7l-0.9-0.25c-0.9,0.434-1.5,0.95-1.8,1.55
			c-0.033,0.101-0.067,0.2-0.1,0.3c-0.333,0.2-0.7,0.417-1.1,0.65c-0.466,0.066-1.133-0.033-2-0.3c-0.367-0.134-0.7-0.217-1-0.25
			c0-0.033,0.017-0.066,0.05-0.101c0.533-0.733,1.017-1.183,1.45-1.35h-3c0,0.667,0,1.2,0,1.6c-0.5,0.267-1.167,0.767-2,1.5
			c-1.767,1.2-2.95,1.934-3.55,2.2c-1.733,0.767-3,0.667-3.8-0.3c0.233-0.267,0.667-0.5,1.3-0.7c0.733-0.267,1.233-0.5,1.5-0.7
			c0.6-0.399,1.017-0.75,1.25-1.05c0.3-0.399,0.517-0.916,0.65-1.55c0.333-1.467,0.233-2.434-0.3-2.9
			c-0.267-0.199-1.217-0.483-2.85-0.85c-0.2-0.033-0.517-0.217-0.95-0.55c-0.333-0.267-0.767-0.367-1.3-0.3
			c-0.4,0.066-0.683,0.216-0.85,0.449c-0.033,0.034-0.05,0.067-0.05,0.101c-0.467,0.033-0.917,0.217-1.35,0.55
			c-0.1,0.066-0.2,0.15-0.3,0.25c-0.2,0.066-0.317,0.1-0.35,0.1c-0.5,0.134-1.017,0.184-1.55,0.15
			c-2.333-0.134-4.283-0.816-5.85-2.05c2.1,0.1,3.667,0,4.7-0.3c1.7-0.5,2.567-1.551,2.6-3.15c0.033-0.566-0.233-1.783-0.8-3.65
			c-0.467-1.533-0.5-2.833-0.1-3.899c0.066-0.134,0.333-0.517,0.8-1.15c0.033,0.434,0.067,0.834,0.1,1.2l0.2,1.3
			c0.333,1.7,0.883,3.134,1.65,4.3c0.033,0.034,0.05,0.067,0.05,0.101c-0.367,0.467-0.617,1.333-0.75,2.6
			c-0.2,1.5-0.517,2.533-0.95,3.101c1.7,0.399,2.933-0.351,3.7-2.25c0.067-0.334,0.15-0.65,0.25-0.95c0.233,0.2,0.5,0.399,0.8,0.6
			l2.85,1.3c0.267,0.101,0.534,0.184,0.8,0.25l0.2,0.051c0.167,0.033,0.35,0.083,0.55,0.149c0.333,0.467,0.55,1.233,0.65,2.3
			c0.067,0.9,0.1,2.084,0.1,3.551c0.9,0.267,1.517-0.267,1.85-1.601c0.367-1.6,0.716-2.483,1.05-2.649
			c0.833-0.434,1.433-0.267,1.8,0.5c0.267,1,0.534,1.616,0.8,1.85c1.5,1.434,3.417,1.15,5.75-0.85c0.933-0.801,1.667-1.601,2.2-2.4
			c0.566-0.066,1.134-0.116,1.7-0.15l1.3-0.149h0.05c0.034-0.033,0.067-0.05,0.101-0.05c-0.267,0.733-0.3,1.566-0.101,2.5
			c1.334,0.433,2.4-0.067,3.2-1.5c0.233-0.434,0.467-0.967,0.7-1.601C43.066,151.667,43.616,151.55,44.15,151.45z M6.4,135.5
			c0.967,0.767,2.267,0.983,3.9,0.65c0.6-0.134,1.184-0.317,1.75-0.551L12,136.3c-0.067,0.667-0.1,1.316-0.1,1.95
			c-0.4-0.533-1-0.8-1.8-0.8c-0.5,0-1.35,0.017-2.55,0.05c-1.733-0.2-3.233-0.583-4.5-1.15c-1.833-0.8-2.85-1.866-3.05-3.199
			c1.5,1.5,3.5,2.283,6,2.35C6.133,135.5,6.267,135.5,6.4,135.5z M12.6,131.9v0.05c0,0.024,0,0.059,0,0.1L12.55,132
			c-0.267,0.134-0.6,0.434-1,0.9c-0.433,0.5-0.767,0.816-1,0.949c-0.133,0.101-0.383,0.2-0.75,0.301c0.233-0.334,0.5-0.717,0.8-1.15
			c0.566-0.833,1.283-1.717,2.15-2.65c0.4-0.433,0.783-0.816,1.15-1.149c-0.2,0.3-0.367,0.583-0.5,0.85l-0.4,0.9
			C12.833,131.25,12.7,131.566,12.6,131.9z M22.85,122.3c-0.1,0-0.2,0.017-0.3,0.05c0.034-0.466,0.15-0.866,0.35-1.199
			c0.3-0.601,0.85-1.167,1.65-1.7c1.067-0.533,1.733-0.917,2-1.15c0.4-0.366,0.583-1.116,0.55-2.25c1.667-0.333,3.1,0.3,4.3,1.9
			c0.367,0.467,0.867,1.366,1.5,2.7h-0.05H32.8c-0.3,0.066-0.6,0.133-0.9,0.199c-0.2,0.034-0.417,0.067-0.65,0.101
			c-0.033-0.066-0.083-0.134-0.15-0.2c-0.467-0.634-1.317-0.884-2.55-0.75l-0.1,1.4c-0.233,0-0.45,0.033-0.65,0.1l-0.55,0.05
			c-1.933,0.233-3.417,0.467-4.45,0.7L22.85,122.3z"/>
		
			<radialGradient id="SVGID_10_" cx="30.4502" cy="128.5996" r="7.7375" gradientTransform="matrix(1 0 0 -1.1034 0 270.4955)" gradientUnits="userSpaceOnUse">
			<stop  offset="0.0549" style="stop-color:#000000;stop-opacity:0.6"/>
			<stop  offset="0.2392" style="stop-color:#000000;stop-opacity:0.6"/>
		</radialGradient>
		<path style="fill-rule:evenodd;clip-rule:evenodd;fill:url(#SVGID_10_);" d="M31.25,120.95c-0.8,0.133-1.733,0.283-2.8,0.45
			l0.1-1.4c1.233-0.134,2.083,0.116,2.55,0.75C31.167,120.816,31.217,120.884,31.25,120.95z"/>
		
			<radialGradient id="SVGID_11_" cx="10.2002" cy="137.6504" r="14.4625" gradientTransform="matrix(1 0 0 -1.1029 0 289.4584)" gradientUnits="userSpaceOnUse">
			<stop  offset="0.0549" style="stop-color:#FEDEB1;stop-opacity:0.098"/>
			<stop  offset="0.2392" style="stop-color:#FEDEB1;stop-opacity:0.098"/>
		</radialGradient>
		<path style="fill-rule:evenodd;clip-rule:evenodd;fill:url(#SVGID_11_);" d="M13.1,125.3c0.033,0.634,0.017,1.066-0.05,1.3
			c-0.133,0.4-0.333,0.733-0.6,1c-0.167,0.167-0.483,0.45-0.95,0.851c-0.4,0.467-1.217,1.217-2.45,2.25
			c-1.033,1-1.566,1.899-1.6,2.7c-0.534,0.199-1.217,0.166-2.05-0.101c-0.767-0.233-1.35-0.55-1.75-0.95
			c-0.566-0.566-0.767-1.1-0.6-1.6c0.067-0.267,0.4-0.7,1-1.3c1-1,2.083-1.934,3.25-2.8c1.5-1.134,2.75-1.851,3.75-2.15l2.5-0.5
			C13.183,124.366,13.033,124.8,13.1,125.3z"/>
		
			<radialGradient id="SVGID_12_" cx="11.6001" cy="138.1504" r="8.3" gradientTransform="matrix(1 0 0 -1.1024 0 290.4487)" gradientUnits="userSpaceOnUse">
			<stop  offset="0.0549" style="stop-color:#000000;stop-opacity:0.6"/>
			<stop  offset="0.2392" style="stop-color:#000000;stop-opacity:0.6"/>
		</radialGradient>
		<path style="fill-rule:evenodd;clip-rule:evenodd;fill:url(#SVGID_12_);" d="M12.05,135.6c-0.566,0.233-1.15,0.417-1.75,0.551
			c-1.633,0.333-2.933,0.116-3.9-0.65c0.3-0.533,0.934-0.884,1.9-1.05c0.633-0.101,1.133-0.2,1.5-0.3
			c0.367-0.101,0.617-0.2,0.75-0.301c0.233-0.133,0.567-0.449,1-0.949c0.4-0.467,0.733-0.767,1-0.9l0.05,0.05
			c-0.2,0.533-0.333,1.084-0.4,1.65v0.05C12.133,134.384,12.083,135,12.05,135.6z"/>
		
			<radialGradient id="SVGID_13_" cx="7.2998" cy="153.5996" r="14.55" gradientTransform="matrix(1 0 0 -1.1031 0 323.0342)" gradientUnits="userSpaceOnUse">
			<stop  offset="0.0549" style="stop-color:#FEDEB1;stop-opacity:0.098"/>
			<stop  offset="0.2392" style="stop-color:#FEDEB1;stop-opacity:0.098"/>
		</radialGradient>
		<path style="fill-rule:evenodd;clip-rule:evenodd;fill:url(#SVGID_13_);" d="M6.05,138.1c1.6,0.134,2.767-0.066,3.5-0.6l-1,1.5
			c-0.6,0.866-0.767,2.017-0.5,3.45c0.333,2.033,0.483,3.217,0.45,3.55c-0.1,1.267-0.65,2.116-1.65,2.55
			c-1,0.4-2.067,0.184-3.2-0.649c-0.5-0.4-0.833-0.834-1-1.301c-0.1-0.333-0.133-0.866-0.1-1.6c0.034-0.934,0.267-1.5,0.7-1.7
			c0.867-0.366,1.433-0.684,1.7-0.95c0.867-0.866,0.867-1.767,0-2.699c-0.5-0.5-1.284-1.2-2.35-2.101
			C4.433,137.884,5.583,138.066,6.05,138.1z"/>
		
			<radialGradient id="SVGID_14_" cx="33.25" cy="161.7998" r="5.9" gradientTransform="matrix(1 0 0 -1.1038 0 340.3966)" gradientUnits="userSpaceOnUse">
			<stop  offset="0.0549" style="stop-color:#FEDEB1;stop-opacity:0.098"/>
			<stop  offset="0.2392" style="stop-color:#FEDEB1;stop-opacity:0.098"/>
		</radialGradient>
		<path style="fill-rule:evenodd;clip-rule:evenodd;fill:url(#SVGID_14_);" d="M30.65,157.85c0.033-0.1,0.067-0.199,0.1-0.3
			c0.3-0.6,0.9-1.116,1.8-1.55l0.9,0.25l1.1,0.25c-0.5,0.333-0.867,1.167-1.1,2.5c-0.167,0.866-1.133,1.167-2.9,0.9
			C30.45,159.066,30.483,158.384,30.65,157.85z"/>
		
			<radialGradient id="SVGID_15_" cx="41.5996" cy="157.4502" r="7.6375" gradientTransform="matrix(1 0 0 -1.1031 0 331.135)" gradientUnits="userSpaceOnUse">
			<stop  offset="0.0549" style="stop-color:#000000;stop-opacity:0.6"/>
			<stop  offset="0.2392" style="stop-color:#000000;stop-opacity:0.6"/>
		</radialGradient>
		<path style="fill-rule:evenodd;clip-rule:evenodd;fill:url(#SVGID_15_);" d="M42.5,151.8c-0.233,0.634-0.467,1.167-0.7,1.601
			c-0.8,1.433-1.866,1.933-3.2,1.5c-0.199-0.934-0.166-1.767,0.101-2.5c0.633-0.101,1.267-0.2,1.899-0.301c0.067,0,0.134,0,0.2,0
			c0.134-0.033,0.283-0.066,0.45-0.1l0.6-0.1C42.05,151.866,42.267,151.833,42.5,151.8z"/>
		
			<radialGradient id="SVGID_16_" cx="31.4502" cy="161.7002" r="17.05" gradientTransform="matrix(1 0 0 -1.1026 0 339.9972)" gradientUnits="userSpaceOnUse">
			<stop  offset="0.0549" style="stop-color:#000000;stop-opacity:0.6"/>
			<stop  offset="0.2392" style="stop-color:#000000;stop-opacity:0.6"/>
		</radialGradient>
		<path style="fill-rule:evenodd;clip-rule:evenodd;fill:url(#SVGID_16_);" d="M35.55,152.75c-0.533,0.8-1.267,1.6-2.2,2.4
			c-2.333,2-4.25,2.283-5.75,0.85c-0.267-0.233-0.533-0.85-0.8-1.85c-0.367-0.767-0.966-0.934-1.8-0.5
			c-0.333,0.166-0.683,1.05-1.05,2.649c-0.333,1.334-0.95,1.867-1.85,1.601c0-1.467-0.033-2.65-0.1-3.551
			c-0.1-1.066-0.317-1.833-0.65-2.3c0.467,0.101,0.95,0.2,1.45,0.3l11.85,0.5C34.95,152.816,35.25,152.783,35.55,152.75z"/>
		
			<radialGradient id="SVGID_17_" cx="27.0498" cy="160" r="3.8875" gradientTransform="matrix(1 0 0 -1.1029 0 336.463)" gradientUnits="userSpaceOnUse">
			<stop  offset="0.0549" style="stop-color:#FEDEB1;stop-opacity:0.098"/>
			<stop  offset="0.2392" style="stop-color:#FEDEB1;stop-opacity:0.098"/>
		</radialGradient>
		<path style="fill-rule:evenodd;clip-rule:evenodd;fill:url(#SVGID_17_);" d="M25.05,158.1c0-0.399,0-0.933,0-1.6h3
			c-0.433,0.167-0.917,0.616-1.45,1.35c-0.033,0.034-0.05,0.067-0.05,0.101c-0.533,0.6-1.017,0.934-1.45,1
			C25.067,158.816,25.05,158.533,25.05,158.1z"/>
		
			<radialGradient id="SVGID_18_" cx="16.2002" cy="156.25" r="10.1875" gradientTransform="matrix(1 0 0 -1.1031 0 328.6043)" gradientUnits="userSpaceOnUse">
			<stop  offset="0.0549" style="stop-color:#000000;stop-opacity:0.6"/>
			<stop  offset="0.2392" style="stop-color:#000000;stop-opacity:0.6"/>
		</radialGradient>
		<path style="fill-rule:evenodd;clip-rule:evenodd;fill:url(#SVGID_18_);" d="M16.15,149.7c-0.1,0.3-0.183,0.616-0.25,0.95
			c-0.767,1.899-2,2.649-3.7,2.25c0.433-0.567,0.75-1.601,0.95-3.101c0.133-1.267,0.383-2.133,0.75-2.6l1,1.35
			C15.267,148.95,15.683,149.333,16.15,149.7z"/>
		
			<radialGradient id="SVGID_19_" cx="12.7998" cy="160.7998" r="9.575" gradientTransform="matrix(1 0 0 -1.1031 0 338.1834)" gradientUnits="userSpaceOnUse">
			<stop  offset="0.0549" style="stop-color:#FEDEB1;stop-opacity:0.098"/>
			<stop  offset="0.2392" style="stop-color:#FEDEB1;stop-opacity:0.098"/>
		</radialGradient>
		<path style="fill-rule:evenodd;clip-rule:evenodd;fill:url(#SVGID_19_);" d="M12.45,154.25c0.1-0.1,0.2-0.184,0.3-0.25
			c0.433-0.333,0.883-0.517,1.35-0.55c0.133,0,0.283,0.017,0.45,0.05l1,2c0.067,1.4-0.167,2.3-0.7,2.7
			c-0.434,0.333-1.367,0.434-2.8,0.3c-1.3-0.167-2.267-0.384-2.9-0.65c-1-0.399-1.733-1.033-2.2-1.899
			c0.367-0.334,1.017-0.517,1.95-0.55c1.167-0.034,1.917-0.117,2.25-0.25C11.283,155.083,11.717,154.783,12.45,154.25z"/>
	</g>
	
		<radialGradient id="SVGID_20_" cx="58.8496" cy="113.7002" r="95.3875" gradientTransform="matrix(1 0 0 -1.1029 0 239.0967)" gradientUnits="userSpaceOnUse">
		<stop  offset="0.4118" style="stop-color:#211C15;stop-opacity:0"/>
		<stop  offset="1" style="stop-color:#211C15;stop-opacity:0.3725"/>
	</radialGradient>
	<path style="fill-rule:evenodd;clip-rule:evenodd;fill:url(#SVGID_20_);" d="M34.1,12.85C36.7,10.317,40,8.6,44,7.7
		c2.767-0.633,5.8-0.1,9.1,1.6c3.134,1.634,5.051,3.467,5.75,5.5c0.434,1.3,1.917,4.55,4.45,9.75c2.434,5.634,3.9,10.817,4.4,15.55
		c0.033,0.233,0.833,5.9,2.399,17c1.301,9.367,2.25,17.517,2.851,24.45c-11.3-0.233-21.467-0.633-30.5-1.2
		c-0.733-6.267-1.134-9.767-1.2-10.5c-0.634-6-3-13.5-7.1-22.5c-3.767-8.3-5.65-14.833-5.65-19.6
		C28.5,21.45,30.367,16.483,34.1,12.85z"/>
	
		<radialGradient id="SVGID_21_" cx="86.8496" cy="105.2002" r="95.3875" gradientTransform="matrix(1 0 0 -1.1029 0 221.2223)" gradientUnits="userSpaceOnUse">
		<stop  offset="0.4118" style="stop-color:#211C15;stop-opacity:0"/>
		<stop  offset="1" style="stop-color:#211C15;stop-opacity:0.3725"/>
	</radialGradient>
	<path style="fill-rule:evenodd;clip-rule:evenodd;fill:url(#SVGID_21_);" d="M73.85,100.3c0,3.334-0.1,6.517-0.3,9.55
		c-0.833,11.601-2.667,19.65-5.5,24.15c-0.967,1.533-2.399,3.2-4.3,5c-2.467,2.366-4.15,4.066-5.05,5.1
		c-3.3,3.9-9.334,6.567-18.101,8c-7.899,1.301-14.566,1.217-20-0.25c-4.233-1.133-6.934-3.75-8.1-7.85
		c-0.667-2.467-0.767-5.884-0.3-10.25c0.267-2.4,1.533-4.833,3.8-7.3l3.3-3c1.333-0.667,3.267-1.2,5.8-1.601
		c3-0.399,5.267-0.733,6.8-1c5.567-1,9.117-3.149,10.65-6.449c1.333-3,1.867-8.051,1.601-15.15
		C53.983,99.816,63.883,100.167,73.85,100.3z"/>
</g>
</svg>
