<?xml version="1.0" encoding="iso-8859-1"?>
<!-- Generator: Adobe Illustrator 15.1.0, SVG Export Plug-In . SVG Version: 6.00 Build 0)  -->
<!DOCTYPE svg PUBLIC "-//W3C//DTD SVG 1.1//EN" "http://www.w3.org/Graphics/SVG/1.1/DTD/svg11.dtd">
<svg version="1.1" id="FlashAICB" xmlns="http://www.w3.org/2000/svg" xmlns:xlink="http://www.w3.org/1999/xlink" x="0px" y="0px"
	 width="61.95px" height="40.9px" viewBox="0 0 61.95 40.9" style="enable-background:new 0 0 61.95 40.9;" xml:space="preserve">
<g>
	<path style="fill-rule:evenodd;clip-rule:evenodd;fill:#382F23;" d="M21.3,39.75c1.467-1.6,3.217-2.783,5.25-3.55
		c1.2-0.467,1.8-1.367,1.8-2.7c-0.533-0.733-1.25-1.467-2.15-2.2c2.433-0.467,4.083-0.983,4.95-1.55l3.55-2.25l0.05,0.5
		c-0.267,0.8-0.8,1.65-1.6,2.55c-0.7,0.733-1.051,1.267-1.051,1.601c2.467,0.233,4.567,0.35,6.301,0.35c3,0,6.517-1.417,10.55-4.25
		c4.866-3.434,6.684-7.167,5.45-11.2l2.3,1.15c0.2-2.067,0.3-3.383,0.3-3.95c0-0.633-0.1-1.367-0.3-2.2c-2.9,0-5.217-0.233-6.95-0.7
		H50c1.5,0.333,2.55,0.2,3.15-0.4c0.399-0.367,0.866-1.15,1.399-2.35l1.2-0.75c0.1-0.067,0.4-0.3,0.9-0.7
		c0.533-0.5,0.833-0.85,0.899-1.05c0-0.033,0.017-0.067,0.05-0.1V5.85L59,6.5c1,1.233,1.767,2.633,2.3,4.2
		c0.434,1.3,0.65,2.517,0.65,3.65c0,6.167-2.45,11.15-7.351,14.95c-3.966,3.101-8.017,4.65-12.149,4.65L42.15,34
		c-9.5,2.333-14.534,3.6-15.101,3.8C26.417,38.1,24.5,38.75,21.3,39.75z M46.6,17.35c0.634-0.5,1.733-1,3.301-1.5L50,18.9
		c0.033,2.567-0.333,4.067-1.1,4.5c-0.9-0.5-1.534-0.95-1.9-1.351c-0.1-0.2-0.316-0.633-0.65-1.3c-0.333-0.667-0.5-1.033-0.5-1.1
		C45.85,18.917,46.1,18.15,46.6,17.35z M35.2,14.55l-0.15-0.75L35,13.55c-0.333-1.533-0.517-2.733-0.55-3.6l1.399-0.1
		c0.034,0.033,0.067,0.066,0.101,0.1c1.8,1.733,2.783,4,2.95,6.8c0.233,4.167,0.449,6.55,0.649,7.15
		c-0.066,0.399-0.184,0.483-0.35,0.25c-0.367-0.801-0.834-2.301-1.4-4.5C37.4,18.15,36.533,16.45,35.2,14.55z M31.8,20.05
		c-0.566,2.3-1.833,4.434-3.8,6.4c-2.2,1.866-3.683,3.267-4.45,4.2c-0.267-0.434-0.566-1.25-0.9-2.45
		c-0.2-0.8-0.583-1.351-1.15-1.65l-0.45-0.35c1.367-0.167,4.833-2.101,10.4-5.8L31.8,20.05z"/>
	<path style="fill-rule:evenodd;clip-rule:evenodd;fill:#79674F;" d="M50.95,3.6L50.8,3.65l-12.5,1.1c0.367,0.2,1.217,0.4,2.55,0.6
		c1.667,0.267,3.551,0.4,5.65,0.4c3,0,4.5-0.517,4.5-1.55C51,3.867,50.983,3.667,50.95,3.6z M55.75,7.85
		c-1.866,0.566-3.066,0.917-3.6,1.05c-0.867,0.233-1.834,0.35-2.9,0.35l-9.65-0.6c-1.699-0.867-4.017-1.3-6.949-1.3L27.4,7.4
		l1.4,0.25c1.233,0.4,2.467,1.033,3.7,1.9c-0.934,1.3-2,3.817-3.2,7.55c-0.9,2.7-2.233,4.483-4,5.35
		c-2.133,1.066-5.7,2.033-10.7,2.899c-4.067,0.7-6.817,1.051-8.25,1.051c-0.267,0-0.983-0.267-2.15-0.801
		c-1.367-0.633-2.3-1.216-2.8-1.75L1.2,24.15c1.4-5.2,3.25-9.601,5.55-13.2c2.033-3.2,4.167-5.417,6.4-6.65
		c0.3-0.167,1.367-0.2,3.2-0.1c2.467,0.133,4.566,0.133,6.3,0c1-0.1,2.983-0.85,5.95-2.25C31.3,0.65,34.65,0,38.65,0
		c1.666,0,4.899,0.6,9.699,1.8c4.801,1.167,7.733,2.083,8.801,2.75l0.149,0.6c0.167,0.267,0.267,0.5,0.3,0.7V6
		c-0.033,0.033-0.05,0.067-0.05,0.1c-0.066,0.2-0.366,0.55-0.899,1.05C56.15,7.55,55.85,7.783,55.75,7.85z M20.5,17.6
		c0.5,0,1.2-0.117,2.1-0.35c0.933-0.2,1.667-0.45,2.2-0.75l-6.2,1.05L20.5,17.6z M20.75,10.55c-0.133-1.1-0.2-1.9-0.2-2.4
		c-0.433,0.233-1.45,0.767-3.05,1.6c-0.2,0.1-0.3,0.2-0.3,0.3c0,0.333,0.05,0.483,0.15,0.45c0.066,0,0.1-0.017,0.1-0.05l0.6,0.1
		c0.467,0.067,0.867,0.1,1.2,0.1C19.817,10.65,20.317,10.617,20.75,10.55z M14.25,17.95c2.633,0,3.95-0.8,3.95-2.4
		c0-1-0.1-1.95-0.3-2.85c-2.867,1.1-4.733,1.917-5.6,2.45c-0.7,0.434-1.05,0.883-1.05,1.35c0,0.233,0.2,0.5,0.6,0.8
		C12.45,17.733,13.25,17.95,14.25,17.95z M5.8,16.95c1.034-0.1,1.784-0.367,2.25-0.8l-2.55-0.3l-0.25,0.7
		C5.317,16.75,5.5,16.883,5.8,16.95z M11.1,9.3c-0.533,0.233-0.8,0.5-0.8,0.8c0,0.3,0.267,0.566,0.8,0.8s1.183,0.35,1.95,0.35
		c0.733,0,1.367-0.117,1.9-0.35c0.533-0.233,0.8-0.5,0.8-0.8c0-0.3-0.267-0.567-0.8-0.8c-0.534-0.233-1.167-0.35-1.9-0.35
		C12.283,8.95,11.633,9.067,11.1,9.3z M14.65,25.95c0.133,0,0.267,0,0.4,0h0.35c0.033,0.133,0.083,0.267,0.15,0.399
		c2.3,6.267,2.95,9.9,1.95,10.9c-0.7,0.733-1.667,1.1-2.9,1.1c-0.5,0-1.267-0.083-2.3-0.25c0.067-0.166,0.017-1.25-0.15-3.25
		c-0.133-1.966,0.15-3.899,0.85-5.8C13.567,27.583,14.117,26.55,14.65,25.95z M2,26.1L2.55,26.4c1.233,0.866,2.367,2.267,3.4,4.199
		c1.167,2.167,1.75,4.284,1.75,6.351c0,0.366-0.017,0.55-0.05,0.55c-0.1-0.033-0.217-0.033-0.35,0c-0.5-0.233-1.716-1.267-3.65-3.1
		C1.817,32.6,0.783,31.5,0.55,31.1c-0.433-0.966-0.6-1.75-0.5-2.35c0.267-0.9,0.483-1.833,0.65-2.8L2,26.1z"/>
	<path style="fill-rule:evenodd;clip-rule:evenodd;fill:#4E4332;" d="M57.15,4.55C57.783,4.95,58.4,5.6,59,6.5l-1.4-0.65
		c-0.033-0.2-0.133-0.434-0.3-0.7L57.15,4.55z M39.6,8.65c0.4,0.233,0.834,0.667,1.301,1.3c-0.2,0-0.417,0-0.65,0
		c0.033,0.8,0,2.917-0.1,6.35c-0.034,1.967,0.017,3.317,0.149,4.05c0.033,0.167,0.066,0.3,0.101,0.4V20.7
		c0.1-0.1,0.133-0.184,0.1-0.25c0.366,0.233,0.7,1.083,1,2.55c0.366,1.767,0.45,3.267,0.25,4.5c2-0.233,3.316-0.616,3.95-1.15
		c0.899-0.767,1.333-2.199,1.3-4.3c0.366,0.4,1,0.851,1.9,1.351c0.767-0.434,1.133-1.934,1.1-4.5l-0.1-3.05
		c-1.567,0.5-2.667,1-3.301,1.5c0.101-0.7,0.517-1.283,1.25-1.75c0.7-0.467,1.051-1,1.051-1.6c-0.733-1.5-1.217-2.683-1.45-3.55
		l0.7-0.1l1.35-0.2c2.866-0.8,4.55-1.316,5.05-1.55c-0.533,1.2-1,1.983-1.399,2.35c-0.601,0.6-1.65,0.733-3.15,0.4h-0.25
		c1.733,0.467,4.05,0.7,6.95,0.7c0.2,0.833,0.3,1.567,0.3,2.2c0,0.567-0.1,1.883-0.3,3.95l-2.3-1.15
		c1.233,4.033-0.584,7.767-5.45,11.2c-4.033,2.833-7.55,4.25-10.55,4.25c-1.733,0-3.834-0.116-6.301-0.35
		c0-0.334,0.351-0.867,1.051-1.601c0.8-0.899,1.333-1.75,1.6-2.55l-0.05-0.5l-3.55,2.25c-0.867,0.566-2.517,1.083-4.95,1.55
		c0.9,0.733,1.617,1.467,2.15,2.2c0,1.333-0.6,2.233-1.8,2.7c-2.033,0.767-3.783,1.95-5.25,3.55l-3.5,1.15
		c0.267-0.7,1.4-3.101,3.4-7.2c0.733-1.533,1.1-3,1.1-4.4c0-0.6-0.267-1.517-0.8-2.75c0.567,0.3,0.95,0.851,1.15,1.65
		c0.333,1.2,0.633,2.017,0.9,2.45c0.767-0.934,2.25-2.334,4.45-4.2c1.967-1.967,3.233-4.101,3.8-6.4l0.15-0.15
		c0.233-0.4,0.899-1.133,2-2.2c1-1.133,1.416-2.15,1.25-3.05v-0.1c1.333,1.9,2.2,3.6,2.6,5.1c0.566,2.2,1.033,3.7,1.4,4.5
		c0.166,0.233,0.283,0.149,0.35-0.25c-0.2-0.601-0.416-2.984-0.649-7.15c-0.167-2.8-1.15-5.067-2.95-6.8
		c-0.033-0.034-0.066-0.067-0.101-0.1l-1.399,0.1c0.033,0.867,0.217,2.066,0.55,3.6c-1.3-2.233-2.134-3.566-2.5-4
		c-1.233-0.867-2.467-1.5-3.7-1.9L27.4,7.4l5.25-0.05C35.583,7.35,37.9,7.783,39.6,8.65z M7.9,28.05c0.533,0,1.117-0.267,1.75-0.8
		c0.733-0.566,1.267-0.9,1.6-1l1.25-0.2v0.05c-0.067,0.567-0.667,4.217-1.8,10.95c-0.5-0.333-1.117-1.55-1.85-3.649
		C8.05,31.1,7.733,29.316,7.9,28.05z"/>
	<path style="fill-rule:evenodd;clip-rule:evenodd;fill:#897559;" d="M55.75,7.85l-1.2,0.75c-0.5,0.233-2.184,0.75-5.05,1.55
		l-1.35,0.2c-1.301,0.133-2.2,0.2-2.7,0.2c-0.767-0.033-2.283-0.233-4.55-0.6C40.434,9.317,40,8.883,39.6,8.65l9.65,0.6
		c1.066,0,2.033-0.117,2.9-0.35C52.684,8.767,53.884,8.417,55.75,7.85z M50.95,3.6C50.983,3.667,51,3.867,51,4.2
		c0,1.033-1.5,1.55-4.5,1.55c-2.1,0-3.983-0.133-5.65-0.4c-1.333-0.2-2.183-0.4-2.55-0.6l12.5-1.1L50.95,3.6z M2.55,26.4L2,26.1
		l-1.2-0.6l0.4-1.35l0.2-0.301c0.5,0.534,1.434,1.117,2.8,1.75C5.367,26.134,6.083,26.4,6.35,26.4c1.433,0,4.183-0.351,8.25-1.051
		c5-0.866,8.566-1.833,10.7-2.899c1.767-0.867,3.1-2.65,4-5.35c1.2-3.733,2.267-6.25,3.2-7.55c0.366,0.434,1.2,1.767,2.5,4
		l0.05,0.25l0.15,0.85c0.166,0.9-0.25,1.917-1.25,3.05c-1.101,1.066-1.767,1.8-2,2.2l-0.15,0.15l-0.35,0.35
		c-5.567,3.7-9.034,5.633-10.4,5.8c-0.3,0-1.183-0.017-2.65-0.05c-0.533-0.034-1.017-0.051-1.45-0.051
		c-0.667-0.066-1.184-0.116-1.55-0.149h-0.35c-0.133,0-0.267,0-0.4,0c-0.566,0-1.283,0.05-2.15,0.149v-0.05l-1.25,0.2
		c-0.333,0.1-0.867,0.434-1.6,1c-0.633,0.533-1.217,0.8-1.75,0.8C7.033,28.017,6,27.767,4.8,27.3C3.633,26.8,2.883,26.5,2.55,26.4z
		 M20.75,10.55c-0.433,0.067-0.933,0.1-1.5,0.1c-0.333,0-0.733-0.033-1.2-0.1l-0.6-0.1c0,0.033-0.034,0.05-0.1,0.05
		c-0.1,0.033-0.15-0.117-0.15-0.45c0-0.1,0.1-0.2,0.3-0.3c1.6-0.833,2.617-1.367,3.05-1.6C20.55,8.65,20.617,9.45,20.75,10.55z
		 M20.5,17.6l-1.9-0.05l6.2-1.05c-0.533,0.3-1.267,0.55-2.2,0.75C21.7,17.483,21,17.6,20.5,17.6z M11.1,9.3
		c0.533-0.233,1.183-0.35,1.95-0.35c0.733,0,1.367,0.117,1.9,0.35c0.533,0.233,0.8,0.5,0.8,0.8c0,0.3-0.267,0.566-0.8,0.8
		c-0.534,0.233-1.167,0.35-1.9,0.35c-0.767,0-1.417-0.117-1.95-0.35s-0.8-0.5-0.8-0.8C10.3,9.8,10.567,9.533,11.1,9.3z M5.8,16.95
		c-0.3-0.067-0.483-0.2-0.55-0.4l0.25-0.7l2.55,0.3C7.583,16.583,6.833,16.85,5.8,16.95z M14.25,17.95c-1,0-1.8-0.217-2.4-0.65
		c-0.4-0.3-0.6-0.566-0.6-0.8c0-0.467,0.35-0.917,1.05-1.35c0.867-0.533,2.733-1.35,5.6-2.45c0.2,0.9,0.3,1.85,0.3,2.85
		C18.2,17.15,16.883,17.95,14.25,17.95z"/>
	<path style="fill-rule:evenodd;clip-rule:evenodd;fill:#6A5B45;" d="M48.15,10.35l-0.7,0.1c0.233,0.867,0.717,2.05,1.45,3.55
		c0,0.6-0.351,1.133-1.051,1.6c-0.733,0.467-1.149,1.05-1.25,1.75c-0.5,0.8-0.75,1.566-0.75,2.3c0,0.067,0.167,0.434,0.5,1.1
		c0.334,0.667,0.551,1.1,0.65,1.3c0.033,2.101-0.4,3.533-1.3,4.3c-0.634,0.534-1.95,0.917-3.95,1.15c0.2-1.233,0.116-2.733-0.25-4.5
		c-0.3-1.467-0.634-2.317-1-2.55c0.033,0.066,0,0.15-0.1,0.25v0.05c-0.034-0.1-0.067-0.233-0.101-0.4
		c-0.133-0.733-0.184-2.083-0.149-4.05c0.1-3.433,0.133-5.55,0.1-6.35c0.233,0,0.45,0,0.65,0c2.267,0.367,3.783,0.566,4.55,0.6
		C45.95,10.55,46.85,10.483,48.15,10.35z M35.2,14.65l-0.15-0.85l0.15,0.75V14.65z M21.05,26.2l0.45,0.35
		c0.533,1.233,0.8,2.15,0.8,2.75c0,1.4-0.367,2.867-1.1,4.4c-2,4.1-3.133,6.5-3.4,7.2c-4.767,0-8.833-0.95-12.2-2.851
		c-3.367-1.899-5.05-4.217-5.05-6.95c0.233,0.4,1.267,1.5,3.1,3.301c1.934,1.833,3.15,2.866,3.65,3.1c0.133-0.033,0.25-0.033,0.35,0
		c0.033,0,0.05-0.184,0.05-0.55c0-2.066-0.583-4.184-1.75-6.351c-1.034-1.933-2.167-3.333-3.4-4.199C2.883,26.5,3.633,26.8,4.8,27.3
		c1.2,0.467,2.233,0.717,3.1,0.75C7.733,29.316,8.05,31.1,8.85,33.4c0.733,2.1,1.35,3.316,1.85,3.649
		c1.133-6.733,1.733-10.383,1.8-10.95c0.867-0.1,1.583-0.149,2.15-0.149c-0.533,0.6-1.083,1.633-1.65,3.1
		c-0.7,1.9-0.983,3.834-0.85,5.8c0.167,2,0.217,3.084,0.15,3.25c1.034,0.167,1.8,0.25,2.3,0.25c1.233,0,2.2-0.366,2.9-1.1
		c1-1,0.35-4.634-1.95-10.9c-0.066-0.133-0.117-0.267-0.15-0.399c0.367,0.033,0.883,0.083,1.55,0.149
		c0.433,0,0.917,0.017,1.45,0.051C19.867,26.184,20.75,26.2,21.05,26.2z M0.8,25.5L2,26.1L0.7,25.95L0.8,25.5z"/>
</g>
</svg>
