<?xml version="1.0" encoding="iso-8859-1"?>
<!-- Generator: Adobe Illustrator 15.1.0, SVG Export Plug-In . SVG Version: 6.00 Build 0)  -->
<!DOCTYPE svg PUBLIC "-//W3C//DTD SVG 1.1//EN" "http://www.w3.org/Graphics/SVG/1.1/DTD/svg11.dtd">
<svg version="1.1" id="FlashAICB" xmlns="http://www.w3.org/2000/svg" xmlns:xlink="http://www.w3.org/1999/xlink" x="0px" y="0px"
	 width="208px" height="134.95px" viewBox="0 0 208 134.95" style="enable-background:new 0 0 208 134.95;" xml:space="preserve">
<g>
	<path style="fill-rule:evenodd;clip-rule:evenodd;fill:#79674F;" d="M154.25,71.75c-1.4-0.634-2.267-1.25-2.6-1.85
		c-0.5-0.834-0.767-1.267-0.801-1.301c-1.199-0.966-6.8-2.483-16.8-4.55c6.267,2.967,10.816,4.884,13.65,5.75
		c1.233,0.4,2.184,0.9,2.85,1.5l-2.75-0.5l3.25,1.65c0.367,0.967,0.434,1.85,0.2,2.649c-0.134,0.4-0.316,0.75-0.55,1.051
		c-3.566,0.533-5.95,0.8-7.15,0.8c-5.1,0-9.133-0.65-12.1-1.95c-3.733-2-7.55-3.733-11.45-5.2l1.45,1.601
		c2.633,2.166,4.85,3.633,6.649,4.399c0.934,0.4,1.95,0.816,3.051,1.25c-1.767-0.434-3.051-0.666-3.851-0.7
		c-2.467-1.767-3.916-2.716-4.35-2.85c-0.601-0.066-1.634-0.434-3.101-1.1l0.15,0.25l1.35,4.3c0,0.934-1.483,1.717-4.449,2.35
		c-3.733,0.8-9.351,1.2-16.851,1.2c-2.933,0-6.867-1.583-11.8-4.75c-1.3-0.833-3.9-2.733-7.8-5.7L79.9,66.6
		c0.267-1.7,1.8-4.75,4.6-9.15c2.933-4.7,5.05-7.05,6.35-7.05c2.733,0,9.583,0.1,20.55,0.3c4.966,0.1,8.633-0.05,11-0.45
		c2.699-0.467,6.066-1.6,10.1-3.4c0.9-0.4,6.8-3.25,17.7-8.55c6,1.333,10.983,2.05,14.95,2.15c2.133,0.033,4.517-0.017,7.149-0.15
		c2.101,0.1,4.733,0.883,7.9,2.35c3.566,1.7,9.333,4.967,17.3,9.8c-1.333,2.233-2.583,3.883-3.75,4.95
		c-0.667,0.467-1.15,0.867-1.45,1.2c0.7-0.867,2.017-2.567,3.95-5.1l-0.95,0.45c-4.333,3.5-7.45,5.883-9.35,7.15
		c-3.4,2.3-6.033,3.45-7.9,3.45c-2.033,0-4.983-0.417-8.85-1.25c-3.9-0.867-6.7-1.3-8.4-1.3l-3,0.1l0.601,0.5
		c0.433,0.267,1.616,0.717,3.55,1.35c1.033,0.333,2.5,0.816,4.399,1.45c-2.166-0.1-3.716,0-4.649,0.3l0.75,0.55
		c0.5,0.3,1.633,0.733,3.399,1.3c1.834,0.601,3.2,0.967,4.101,1.101l-2.25,1.399c0.1-0.233,0.149-0.517,0.149-0.85
		c-0.033-0.267-0.05-0.417-0.05-0.45c-3.066-0.5-8.166-1.933-15.3-4.3c-5.1-1.7-11.267-2.55-18.5-2.55c-1.733,0-2.833,0.133-3.3,0.4
		l1.5,0.5c8.767,1.3,15.166,3,19.2,5.1c0.966,0.5,1.966,1.133,3,1.9c0.666,0.5,1.166,0.75,1.5,0.75c0.666,0,2.783,0.384,6.35,1.15
		L154.25,71.75z M44,77.85c-0.467,1.367-1.417,2.767-2.85,4.2c-2,2-3.3,3.417-3.9,4.25l-0.35,0.65c-0.3,1.934-0.833,3.467-1.6,4.6
		c-0.8,1.134-1.733,1.7-2.8,1.7c-0.567,0-1.25-0.167-2.05-0.5c-1.034-0.434-2.017-1.066-2.95-1.9c-2.4-2.199-4.35-4.316-5.85-6.35
		c-1.033-1.4-1.55-2.233-1.55-2.5c0-0.2,0.217-0.517,0.65-0.95c0.533-0.5,1.133-0.833,1.8-1c0.534-0.166,1.383-0.566,2.55-1.2
		c6.333-0.267,10.583-2.399,12.75-6.399c0.2-0.367,0.4-0.8,0.6-1.3c-1.9-0.101-3.467,0.017-4.7,0.35c0.7-0.667,1.133-1.1,1.3-1.3
		c0.733-0.867,1.35-2.383,1.85-4.55c-0.033-0.3-0.117-0.283-0.25,0.05c-0.066,0.2-0.133,0.417-0.2,0.65
		c-1.1,2.833-3.633,5.4-7.6,7.7c-2.6,1.5-5.533,2.767-8.8,3.8c-1.466-0.199-2.716-0.517-3.75-0.949
		c4.567,0.233,7.983-0.684,10.25-2.75c0.5-0.467,1.633-1.733,3.4-3.801c1.7-1.966,3.367-3.683,5-5.149L18.2,74.5l-1.15,0.2
		c-1.966,0.2-3.1,0.3-3.4,0.3L8.6,69.3c-0.1,0.8-0.35,1.917-0.75,3.351c-0.434,1.733-0.833,2.816-1.2,3.25
		c-0.233-0.067-1.617-1.117-4.15-3.15c-0.4,0-0.75,0.15-1.05,0.45L1.15,73.6l3.9,7.2l1.05,1.3c-2.133-2.267-3.75-4.933-4.85-8
		C0.417,71.866,0,69.967,0,68.4c0-1.8,1.067-3.55,3.2-5.25c3.9,0.2,7.917-2.2,12.05-7.2c2.267-2.733,3.817-4.467,4.65-5.2
		c1.833-1.6,3.684-2.4,5.55-2.4c0.267,0,1.533,0.6,3.8,1.8c0.133,0,1.283-1.45,3.45-4.35c2.167-2.933,3.9-4.4,5.2-4.4
		c0.033,0,1.267,0.333,3.7,1c2.467,0.667,3.85,1,4.15,1c1.067,0,2-0.3,2.8-0.9c0.934-0.7,1.4-1.633,1.4-2.8
		c-0.7-2.4-1.95-4.434-3.75-6.1l2.5,1.15c1.533,1.367,2.683,2.067,3.45,2.1c1.3,0.767,4.567,4.1,9.8,10
		c-6.233,2.5-10.284,5.483-12.15,8.95c-0.966,1.833-2.183,6.917-3.65,15.25L46.9,63c-0.733,1.867-1.35,4.367-1.85,7.5
		C44.783,72.233,44.433,74.684,44,77.85z M61.4,22c-2.133,0.467-3.783,0.983-4.95,1.55c-6.2-1.533-9.35-2.3-9.45-2.3
		c0.133-0.167,0.283-0.35,0.45-0.55c1.367,1.066,4.983,1.6,10.85,1.6C58.367,22.3,59.4,22.2,61.4,22z M68.05,20.55
		c1.633-0.5,3.267-1.1,4.9-1.8l-1.85,0.9C70.2,19.95,69.183,20.25,68.05,20.55z M86.05,24.35c-3.867,2.3-6.183,3.65-6.95,4.05
		c-0.067,0-0.35,0.133-0.85,0.4l-4.2,2.5c0.2-1.033,0.333-2.417,0.4-4.15c0.066-1.5,0.066-2.55,0-3.15c0.833-1.6,2.5-3.25,5-4.95
		c2.233-1.5,4.833-2.867,7.8-4.1l-1.75,0.5l-4.75,1.35l0.65-0.2l7.75-2.5l-4.85,1.15l2.6-0.95l-4.8,1.4l14.5-5.05
		c-17.434,4.233-29.15,7.383-35.15,9.45c-1.567,0.533-2.434,0.816-2.6,0.85H55.6c-0.833,0-1.633-0.4-2.4-1.2
		c-0.833-0.9-1.95-1.45-3.35-1.65c2.267-3.233,7.35-6.1,15.25-8.6c6.467-2.067,13.4-3.517,20.8-4.35
		c0.333-0.033,5.783-1.05,16.35-3.05c7.3-1.4,15.134-2.1,23.5-2.1c3.2,0,6.566,0.683,10.1,2.05c6.2,2.333,10.567,3.85,13.101,4.55
		c-3,4.167-5.884,6.867-8.65,8.1c-3.267,0.966-6.083,2.066-8.45,3.3l1.101,0.25l-4.2,0.9c0.366-0.267,1.033-0.667,2-1.2
		c0.833-0.434,1.85-1.15,3.05-2.15l-1.149,0.3c-4.034,0.633-9.467,1.2-16.301,1.7c-8.866,0.633-14.149,1.034-15.85,1.2
		c-11.4,1.167-17.85,3.633-19.35,7.4C82.983,25.567,84.617,24.883,86.05,24.35z M153.9,28.55V28.5l0.649-0.25L153.9,28.55z
		 M150.1,30.85c0.534-0.267,1.101-0.6,1.7-1c-0.666,0.467-1.267,0.833-1.8,1.1L150.1,30.85z M175.55,69.1l-1.8-1.45
		c1.1-0.066,3.233-0.083,6.4-0.05c2.267,0.033,3.916-0.117,4.949-0.45c-1.1,0.933-2.383,1.4-3.85,1.4L177,68.4
		c-0.366-0.334-1.267-0.45-2.7-0.351L175.55,69.1z M168,71.7c-0.434,0.166-1.134,0.333-2.1,0.5c-1.034,0.166-1.9,0.25-2.601,0.25
		C164.8,72.116,166.366,71.866,168,71.7z M164.1,83.15l1,0.949l-0.5-0.449L164.1,83.15z M113.75,21.45
		c-2.333,0.133-6.934,0.267-13.8,0.4l0.55-0.45l-2.1,0.1c0.8-0.167,1.934-0.333,3.4-0.5c1.434-0.167,2.417-0.25,2.95-0.25
		c0.667,0,3.316,0.15,7.95,0.45L113.75,21.45z M137.8,12.4l0.75,0.2c0.4,0,1.283-0.367,2.65-1.1c1.267-0.667,2.033-1.133,2.3-1.4
		c-3.167,0.433-4.983,0.85-5.45,1.25C138.083,11.783,138,12.133,137.8,12.4z M94.5,82.35c1.667,0.5,2.967,0.75,3.9,0.75
		c3.1,0,8.25-0.533,15.45-1.6c6.801-1,10.983-1.783,12.551-2.35c-3.534,2.033-7.101,3.149-10.7,3.35
		c-2.767,0.167-5.05,0.333-6.851,0.5c-1.966,0.167-3.366,0.333-4.199,0.5c-3.734,0.2-6.75,0.267-9.05,0.2L94.5,82.35z M95.9,84.05
		l-0.25-0.3l0.45,0.3H95.9z M121.35,133.1l-1.699,0.45l0.85-0.25L121.35,133.1z M81.05,72.9l4.2,3.5
		c-0.767-0.467-1.683-1.167-2.75-2.101C81.6,73.467,81.117,73,81.05,72.9z M82.35,83.75c-0.033-0.434-0.467-1.55-1.3-3.35
		c-0.867-1.9-1.316-2.917-1.35-3.051c4.667,3.367,7.167,5.051,7.5,5.051c0.667,0,1.767-0.334,3.3-1
		c-0.067,0.733-0.05,1.983,0.05,3.75c0,0.966-0.55,1.633-1.65,2c-1.1,0.366-1.65,1.1-1.65,2.199c0,2.9,0.4,4.801,1.2,5.7
		c0.466,0.467,1.4,0.75,2.8,0.851c1.4,0.1,2.417,0.533,3.05,1.3c1.034,1.233,1.7,3.55,2,6.95c-4.433-0.7-7.617-2.233-9.55-4.601
		c-1.233-1.467-1.85-2.217-1.85-2.25c-0.7-0.633-1.617-0.95-2.75-0.95c-0.4,0-0.683,0.067-0.85,0.2c-0.133,0.134-0.216,0.2-0.25,0.2
		c-0.066,0.233-0.15,0.4-0.25,0.5c-0.033,0.1-0.05,0.35-0.05,0.75c0,0.434,0.167,1.3,0.5,2.6c0.433,1.767,0.967,3,1.6,3.7l-1.4-1
		c-0.667-0.633-1.15-1.399-1.45-2.3c-0.167-0.8-0.317-1.3-0.45-1.5l-0.15-4.55c0-1.9,0.85-3.867,2.55-5.9
		c1.7-2.033,3.333-3.05,4.9-3.05c0-0.033,0.3-0.15,0.9-0.35c-0.3-0.5-0.967-0.95-2-1.351C84.617,83.866,83.483,83.684,82.35,83.75z
		 M77.9,93.95c-0.533-2.233-0.8-3.867-0.8-4.9l0.15-2.3h0.6L77.9,93.95z M132.8,77.85l5.15,0.301L133.4,78.3L132.8,77.85z
		 M128.6,78.15l-0.8,0.55l0.05-1.101L128.6,78.15z M66,33.95l-0.7-0.1L66.5,34L66,33.95z M33.8,53.65
		c1.267,0.833,2.167,1.25,2.7,1.25c0.733,0,1.45-0.283,2.15-0.85c0.767-0.6,1.167-1.25,1.2-1.95c-2.133,0.233-3.3,0.367-3.5,0.4
		C35.05,52.767,34.2,53.15,33.8,53.65z M24.5,84c-1.033,0.5-1.55,0.967-1.55,1.4c0,1.267,2.267,0.316,6.8-2.851l0.75,0.2l-0.3-1.65
		l-0.05,0.25l-0.4,1.2C27.55,82.816,25.8,83.3,24.5,84z M80.8,72.25l-0.65-2.5l0.3,0.3L80.8,72.25z"/>
	<path style="fill-rule:evenodd;clip-rule:evenodd;fill:#897559;" d="M46.2,33.6c1.8,1.667,3.05,3.7,3.75,6.1
		c0,1.167-0.467,2.1-1.4,2.8c-0.8,0.6-1.733,0.9-2.8,0.9c-0.3,0-1.683-0.333-4.15-1c-2.434-0.667-3.667-1-3.7-1
		c-1.3,0-3.033,1.467-5.2,4.4c-2.167,2.9-3.317,4.35-3.45,4.35c-2.267-1.2-3.533-1.8-3.8-1.8c-1.867,0-3.717,0.8-5.55,2.4
		c-0.833,0.733-2.383,2.467-4.65,5.2c-4.133,5-8.15,7.4-12.05,7.2c2.633-1.933,6.767-6.733,12.4-14.4
		C22.4,40.983,30.867,34.833,41,30.3l0.1-0.3L46.2,33.6z M72.95,18.75c-1.633,0.7-3.267,1.3-4.9,1.8c-1.8,0.567-3.617,1-5.45,1.3
		c-0.434,0.033-0.833,0.083-1.2,0.15c-2,0.2-3.033,0.3-3.1,0.3c-5.867,0-9.483-0.533-10.85-1.6l2.4-2.6
		c1.4,0.2,2.517,0.75,3.35,1.65c0.767,0.8,1.566,1.2,2.4,1.2h3.25c0.167-0.034,1.033-0.317,2.6-0.85
		c6-2.067,17.716-5.217,35.15-9.45L82.1,15.7C77.4,17.467,74.35,18.483,72.95,18.75z M185.1,67.15
		c-1.033,0.333-2.683,0.483-4.949,0.45c-3.167-0.033-5.301-0.017-6.4,0.05c-0.8-0.1-2.083-0.45-3.85-1.05
		c-1.834-0.633-3.017-1.033-3.551-1.2c-1.899-0.633-3.366-1.117-4.399-1.45c-1.934-0.633-3.117-1.083-3.55-1.35l-0.601-0.5l3-0.1
		c1.7,0,4.5,0.433,8.4,1.3c3.866,0.833,6.816,1.25,8.85,1.25c1.867,0,4.5-1.15,7.9-3.45c1.899-1.267,5.017-3.65,9.35-7.15l0.95-0.45
		c-1.934,2.533-3.25,4.233-3.95,5.1c-0.166,0.167-0.3,0.3-0.399,0.4c-2.367,3.467-3.634,5.317-3.801,5.55
		c-0.566,0.867-1.166,1.534-1.8,2C186.066,66.683,185.667,66.883,185.1,67.15z M185.65,78.5c-0.301-0.533-0.467-1.35-0.5-2.45
		c-0.034-0.2-0.051-0.416-0.051-0.649c0.034-0.567,0.167-0.834,0.4-0.801c0.1,0.034,0.2,0.117,0.3,0.25
		c0.601,0.967,1.15,2.134,1.65,3.5c0.5,1.334,0.7,2.167,0.6,2.5c-0.133,0.801-0.3,1.317-0.5,1.551c-0.366,0.399-0.7-0.717-1-3.351
		l-0.05,0.05C186.134,79.066,185.85,78.866,185.65,78.5z M161.35,79.2c-0.166-0.434-0.283-0.75-0.35-0.95
		c-0.134-0.366-0.2-0.75-0.2-1.15c0-0.399,0.084-0.583,0.25-0.55c0.101,0,0.316,0.033,0.65,0.101c2.033-0.034,3.533,0.767,4.5,2.399
		c0.666,1.134,1,2.483,1,4.05c0,0.434-0.066,0.75-0.2,0.95c-0.267,0.3-0.533,0.65-0.8,1.05l-1.101-1l-1-0.949
		c-1.666-1.367-2.583-2.301-2.75-2.801C161.45,79.95,161.45,79.566,161.35,79.2z M162.25,71.7c-3.566-0.767-5.684-1.15-6.35-1.15
		c-0.334,0-0.834-0.25-1.5-0.75c-1.034-0.767-2.034-1.399-3-1.9c-4.034-2.1-10.434-3.8-19.2-5.1l-1.5-0.5
		c0.467-0.267,1.566-0.4,3.3-0.4c7.233,0,13.4,0.85,18.5,2.55c7.134,2.367,12.233,3.8,15.3,4.3c0,0.033,0.017,0.184,0.05,0.45
		c0,0.333-0.05,0.616-0.149,0.85c-0.334,0.5-1.25,0.934-2.75,1.3C163.816,71.583,162.917,71.7,162.25,71.7z M98.4,21.5l-5.85,1.2
		h-0.1l-4.75,1.25l-1.65,0.4c-1.433,0.533-3.066,1.217-4.9,2.05c1.5-3.767,7.95-6.233,19.35-7.4c1.7-0.167,6.983-0.567,15.85-1.2
		c6.834-0.5,12.267-1.066,16.301-1.7l1.149-0.3c-1.2,1-2.217,1.717-3.05,2.15c-0.967,0.533-1.634,0.933-2,1.2
		c-0.767,0.4-2.134,0.817-4.1,1.25c-1.733,0.4-3,0.633-3.801,0.7c-2.399,0.2-5.116,0.233-8.149,0.1c-4.634-0.3-7.283-0.45-7.95-0.45
		c-0.533,0-1.517,0.083-2.95,0.25C100.333,21.167,99.2,21.333,98.4,21.5z M137.8,12.4c0.2-0.267,0.283-0.617,0.25-1.05
		c0.467-0.4,2.283-0.817,5.45-1.25c-0.267,0.267-1.033,0.733-2.3,1.4c-1.367,0.733-2.25,1.1-2.65,1.1L137.8,12.4z M70.25,75.85
		c0.033-0.233,0.083-0.466,0.15-0.699c0.233-0.801,0.684-1.5,1.35-2.101c2.467-2.333,3.833-3.649,4.1-3.95
		c0.033,3.967,0.233,7.9,0.6,11.801c0.1,1.966-0.434,2.949-1.6,2.949c-1.367,0-2.45-0.55-3.25-1.649c-0.934-1.267-1.4-3.167-1.4-5.7
		C70.2,76.267,70.217,76.05,70.25,75.85z M80.15,69.75c-0.5-0.866-0.75-1.817-0.75-2.85l0.1-2.8l0.4,2.5l0.55,3.45
		c3.9,2.967,6.5,4.867,7.8,5.7c4.933,3.167,8.867,4.75,11.8,4.75c7.5,0,13.117-0.4,16.851-1.2c2.966-0.633,4.449-1.416,4.449-2.35
		l-1.35-4.3l-0.15-0.25c1.467,0.666,2.5,1.033,3.101,1.1c0.434,0.134,1.883,1.083,4.35,2.85l0.55,1.25L127.8,78.7L127,79l-0.6,0.15
		c-1.567,0.566-5.75,1.35-12.551,2.35c-7.199,1.066-12.35,1.6-15.45,1.6c-0.933,0-2.233-0.25-3.9-0.75
		c-1.5-0.433-3.25-1.366-5.25-2.8c-0.633-0.434-1.967-1.483-4-3.149l-4.2-3.5l-0.25-0.65l-0.35-2.2L80.15,69.75z M144.1,95
		c-0.633-4.6-1.699-8.467-3.199-11.6c1.666,1.666,3.083,5.699,4.25,12.1c0.833,4.733,1.25,8.25,1.25,10.55c0,1-0.4,1.9-1.2,2.7
		C144.833,102.25,144.467,97.667,144.1,95z M150.7,76.15c-0.3,0.3-0.684,0.566-1.15,0.8c-0.5,0.233-0.833,0.383-1,0.45
		c-0.833,0.267-1.75,0.5-2.75,0.699c-1.767,0.233-4.383,0.25-7.85,0.051l-5.15-0.301c-0.566-0.033-0.967-0.116-1.2-0.25
		c-0.1-0.066-0.25-0.25-0.449-0.55c-1.101-0.434-2.117-0.85-3.051-1.25c-1.8-0.767-4.017-2.233-6.649-4.399L120,69.8
		c3.9,1.467,7.717,3.2,11.45,5.2c2.967,1.3,7,1.95,12.1,1.95C144.75,76.95,147.134,76.684,150.7,76.15z M79.55,99.5
		c0.067,1.7,0.034,2.95-0.1,3.75l-0.65-1.35c-0.267-1.134-0.566-3.784-0.9-7.95l-0.05-7.2c0.267-1.8,0.6-3.467,1-5
		c0.566,0.833,1.316,1.417,2.25,1.75c0.467,0.167,0.883,0.25,1.25,0.25c1.133-0.066,2.267,0.116,3.4,0.55
		c1.033,0.4,1.7,0.851,2,1.351c-0.6,0.199-0.9,0.316-0.9,0.35c-1.567,0-3.2,1.017-4.9,3.05c-1.7,2.033-2.55,4-2.55,5.9L79.55,99.5z
		 M33.8,53.65c0.4-0.5,1.25-0.883,2.55-1.15c0.2-0.033,1.367-0.167,3.5-0.4c-0.033,0.7-0.434,1.35-1.2,1.95
		c-0.7,0.567-1.417,0.85-2.15,0.85C35.967,54.9,35.067,54.483,33.8,53.65z M16.3,76.9c-0.267-0.034-0.867-0.25-1.8-0.65
		c-0.9-0.366-1.483-0.65-1.75-0.85l0.9-0.4c0.3,0,1.434-0.1,3.4-0.3l1.15-0.2l16.75-9.3c-1.633,1.466-3.3,3.184-5,5.149
		c-1.767,2.067-2.9,3.334-3.4,3.801C24.283,76.217,20.867,77.134,16.3,76.9z M33.75,71.5c1.233-0.333,2.8-0.45,4.7-0.35
		c-0.2,0.5-0.4,0.933-0.6,1.3c-2.167,4-6.417,6.133-12.75,6.399L23.2,78.7c0.767-0.434,2.933-1.65,6.5-3.65
		c0.2-0.166,0.383-0.316,0.55-0.45c0.433-0.466,0.967-1.216,1.6-2.25C32.35,71.983,32.983,71.7,33.75,71.5z M24.5,84
		c1.3-0.7,3.05-1.184,5.25-1.45l0.4-1.2l0.05-0.25l0.3,1.65l-0.75-0.2c-4.533,3.167-6.8,4.117-6.8,2.851
		C22.95,84.967,23.467,84.5,24.5,84z"/>
	<path style="fill-rule:evenodd;clip-rule:evenodd;fill:#4E4332;" d="M194.65,107.9c-0.4-0.767-0.784-1.817-1.15-3.15
		c-0.533-1.767-0.8-3.316-0.8-4.65c1-4.267,1.649-6.816,1.95-7.649l-1.95,2.35c5.166-8.066,7.75-13.983,7.75-17.75
		c0.033-2.166-0.066-4.3-0.3-6.399c-0.434-4.167-1.301-6.25-2.601-6.25l-8.7,0.1l-0.75,0.05c0.167-0.233,1.434-2.083,3.801-5.55
		c0.1-0.1,0.233-0.233,0.399-0.4c0.3-0.333,0.783-0.733,1.45-1.2c1.167-1.066,2.417-2.717,3.75-4.95c1.9,1.3,4.116,4.5,6.65,9.6
		c2.566,5.167,3.85,9.134,3.85,11.9c0,9.066-1.85,16.85-5.55,23.35c-1.167,2.033-2.65,4.167-4.45,6.4
		C196,106.167,194.884,107.566,194.65,107.9z M137.45,127.55c0.8,0.467,2.883,0.884,6.25,1.25c6,0,10.434-1.75,13.3-5.25
		c2.366-2.866,3.55-6.684,3.55-11.45c0-5.767-0.45-11.05-1.35-15.85c-1.167-5.134-2.05-9.167-2.65-12.1l-0.75-4.7L156,79.6
		c3.066,2.467,6.066,6.417,9,11.851c2.233,4.2,4.267,6.3,6.1,6.3c2.034,0,4.301-1.267,6.801-3.8c2.166-2.2,3.366-3.934,3.6-5.2
		l0.15,5.5c0,4.066-1.834,7.5-5.5,10.3c-1.934,1.434-3.2,2.55-3.801,3.351c-1.166,1.5-1.75,3.366-1.75,5.6
		c0,2.434,0.367,4.233,1.101,5.4c0.566,0.899,1.267,1.35,2.1,1.35c1.767,0,4.25-2.217,7.45-6.65c3.366-4.699,5.05-8.783,5.05-12.25
		c0-0.399,0.084-0.733,0.25-1c0.533-0.699,1.767-1.649,3.7-2.85c-0.733,0.6-1.35,1.1-1.85,1.5c-0.9,0.767-1.351,1.483-1.351,2.15
		c0,0.333,0.45,1.333,1.351,3c0.899,1.666,1.35,2.633,1.35,2.899c0,2.3-0.25,4.767-0.75,7.4c-0.667,0.8-1.667,1.866-3,3.2
		c-0.033,0.066-0.083,0.116-0.15,0.149c-1.399,1.4-2.399,2.3-3,2.7c-0.1,0.033-0.183,0.083-0.25,0.15
		c-4.166,2.033-7.55,3.05-10.149,3.05c-3.3,0-5.184-0.384-5.65-1.15c-0.866-1.399-1.866-2.333-3-2.8
		c-2.733,5.333-11.35,8.9-25.85,10.7C137.75,129.316,137.583,128.35,137.45,127.55z M60.55,81.55c-0.533,2.7-1.1,5.316-1.7,7.851
		c-0.467,1.833-0.7,2.933-0.7,3.3c0,0.066,0.917,1.366,2.75,3.899c2,2.733,3.283,5.517,3.85,8.351c0.367,1.8,2.183,3.35,5.45,4.649
		c0.1-2.033,0.15-4.85,0.15-8.449c0-3.733-0.067-6.784-0.2-9.15l0.35,1.65c2.5,9.833,7.267,17.35,14.3,22.55
		c1.567,1.166,4.083,2.717,7.55,4.649c2.6,1.434,4.25,2.617,4.95,3.551L96,124.1c-2.867-0.833-5.55-1.833-8.05-3
		c-1.567-0.733-2.833-1.083-3.8-1.05c-0.167,0.9,0.017,1.717,0.55,2.45c0.333,0.467,1.05,1.25,2.15,2.35
		c-7.033-4.833-12.717-8.649-17.05-11.449c-4.533-2.9-8-5.167-10.4-6.801l-0.2,2.351L58,108.1c-0.633-1.633-1.267-2.699-1.9-3.199
		c-0.467-0.334-0.7-0.667-0.7-1c0-3.634,0.767-8.067,2.3-13.301C59.233,86.066,60.183,83.05,60.55,81.55z M57.15,81.95
		c-0.033,6.267-1.367,11.633-4,16.1c-2.667,4.533-5.883,6.8-9.65,6.8c-5.067,0.4-8.983-0.433-11.75-2.5
		c-4.333-4.1-9.133-8.1-14.4-12l-1.55-1.3c3.767,1.066,7.167,2.884,10.2,5.45c2.567,2.167,4.75,3.333,6.55,3.5
		c3.034,0.4,5.517,0.55,7.45,0.45c0.533-0.334,0.983-0.684,1.35-1.05c0.167-0.267,0.566-1.384,1.2-3.351
		c4.034,0,7.483-1.217,10.35-3.649C55.633,88.033,57.05,85.217,57.15,81.95z M150.1,30.85l-0.1,0.1l-9.05,4.75l-0.15,0.05
		l-0.149,0.05c-4.267,0.5-7.15,0.967-8.65,1.4c-0.9,0.4-1.884,0.683-2.95,0.85c8.767-8.267,13.15-13.433,13.15-15.5
		c0-1.867-0.283-3.117-0.851-3.75c-0.399-0.466-1.116-0.7-2.149-0.7c-3.033,0.167-4.851,0.233-5.45,0.2l-0.8-0.05L131.85,18
		c2.367-1.233,5.184-2.333,8.45-3.3c2.767-1.233,5.65-3.934,8.65-8.1c5.267,1.533,7.899,7.3,7.899,17.3
		c0.101,1.434-0.316,2.717-1.25,3.85l-1.05,0.5L153.9,28.5c-0.434-3.333-0.75-5.783-0.95-7.35c-0.4-2.733-1.084-4.1-2.05-4.1
		c-0.301-0.033-0.601-0.017-0.9,0.05c-0.566,0.167-0.85,0.566-0.85,1.2C149.15,18.967,149.467,23.15,150.1,30.85z M143.5,37.65
		c-1.967,1.434-4.15,2.55-6.55,3.35c-0.101,0-2.25,0.55-6.45,1.65l-4.5,1.4c0.167-0.1,2.483-1.7,6.95-4.8
		c1.633-1.133,3.934-2.117,6.899-2.95l-1.55,0.9L143.5,37.65z M173.75,67.65l1.8,1.45c1.867,0,3.467,1.084,4.8,3.25
		c1.301,2.167,1.95,4.784,1.95,7.851l1.2,1.55h-0.45c-0.366-0.3-0.616-0.816-0.75-1.55c-3.233-4.066-5.5-6.967-6.8-8.7l-1.4-1.9
		c-0.267-0.133-1.649-0.449-4.149-0.949c-0.9-0.134-2.267-0.5-4.101-1.101c-1.767-0.566-2.899-1-3.399-1.3l-0.75-0.55
		c0.934-0.3,2.483-0.4,4.649-0.3c0.534,0.167,1.717,0.567,3.551,1.2C171.667,67.2,172.95,67.55,173.75,67.65z M92.55,22.7l5.85-1.2
		l2.1-0.1l-0.55,0.45l-0.15,0.2c-0.9,1.2-1.5,2.05-1.8,2.55c-0.433,0.733-1.233,2.833-2.4,6.3v-0.45c-0.033-2.833-0.067-4.3-0.1-4.4
		C95.2,24.517,94.217,23.4,92.55,22.7z M78.25,28.8c0.5-0.267,0.783-0.4,0.85-0.4c0.767-0.4,3.083-1.75,6.95-4.05l1.65-0.4
		c-0.733,2.3-1.367,3.816-1.9,4.55c-0.966,1.233-1.816,2.65-2.55,4.25c-0.333,0.7-0.833,1.05-1.5,1.05c-0.7,0-1.533-0.5-2.5-1.5
		c-1.033-1.2-1.8-2.017-2.3-2.45L78.25,28.8z M72.25,38.6l9.3,0.7c0.667,0,1.25,0.2,1.75,0.6c0.467,0.4,0.7,0.883,0.7,1.45
		l-3.65,0.25c-1.934,0-4.817-0.55-8.65-1.65c-3.934-1.267-6.417-2.067-7.45-2.4l-1.4-0.65c1.967,1.467,4.283,3,6.95,4.6
		c1.667,1.133,2.5,2.2,2.5,3.2c0,0.633-0.466,2.117-1.4,4.45c-1.033,2.567-2.1,4.75-3.2,6.55L67.5,56
		c0.6-0.367,2.583-2.133,5.95-5.3c2.066-1.8,3.8-3.1,5.2-3.9c-2.133,1.4-4.483,4.4-7.05,9c-3.934,7.833-6.95,13.283-9.05,16.351
		l1.75-8l-4.55,6.25c0.7-2.067,2.533-5.617,5.5-10.65c2.233-3.8,3.35-7.2,3.35-10.2c0-1.267-0.35-2.733-1.05-4.4
		c-0.633-1.566-1.417-2.933-2.35-4.1l-0.65-0.5c-1-0.833-3.667-2.2-8-4.1c-4.367-1.934-6.583-2.934-6.65-3
		c1.467-0.067,3.6-0.133,6.4-0.2h0.25c0.3-0.1,1.2-0.733,2.7-1.9c1.3-0.967,3.05-1.717,5.25-2.25l-0.8,1.15
		c-0.934,0.9-1.8,1.867-2.6,2.9c-0.667,0.833-1,1.317-1,1.45c0,1.233,0.967,1.933,2.9,2.1C66.6,37,69.683,37.633,72.25,38.6z
		 M116.1,41.1c-1.333,0.9-4.449,1.367-9.35,1.4c-4.733-0.133-7.2-0.217-7.4-0.25c5.2,0.033,9.216-0.117,12.05-0.45
		C112.934,41.633,114.5,41.4,116.1,41.1z M127.85,77.6l-0.55-1.25c0.8,0.034,2.084,0.267,3.851,0.7c0.199,0.3,0.35,0.483,0.449,0.55
		c0.233,0.134,0.634,0.217,1.2,0.25l0.601,0.45l0.649,0.8c0.834,1.567,1.75,3.233,2.75,5c0.667,1.434,1.134,3.534,1.4,6.301
		c-3.867-7.167-6.184-11.051-6.95-11.65c-0.233-0.167-0.566-0.2-1-0.1c-0.467,0.1-1.017-0.067-1.65-0.5L127.85,77.6z M81.4,16.6
		l-0.65,0.2c-3.8,1.133-6.05,1.917-6.75,2.35c-0.667,0.733-1.45,1.533-2.35,2.4c1.1,0.133,2.45-0.167,4.05-0.9
		c-4.267,3.033-6.7,4.733-7.3,5.1c-1.867,1.133-3.9,2.017-6.1,2.65l0.55-0.6c1-0.833,1.733-2.017,2.2-3.55
		c0.3-1.1,2.317-2.633,6.05-4.6l1.85-0.9c1.4-0.267,4.45-1.283,9.15-3.05l4.8-1.4l-2.6,0.95L81.4,16.6z M104.8,48.35l-4.9,0.1
		c-1.433,0-3.467-0.15-6.1-0.45c-3.767-0.4-6.65-0.967-8.65-1.7l-1.75-0.5c1.3,0.034,4.917,0.467,10.85,1.3
		C100.15,47.933,103.667,48.35,104.8,48.35z M96.1,84.05l11.15,0.75c0,0.066-0.134,0.75-0.4,2.05c-0.233,1.101-0.35,1.851-0.35,2.25
		c0,0.067,1.767,2.934,5.3,8.601c3.7,6,5.9,9.75,6.601,11.25c0.8,1.7,1.25,4.533,1.35,8.5c0.066,2.133,1.3,3.2,3.7,3.2
		c4.767,0,7.8-0.301,9.1-0.9c3.134-1.467,4.7-4.983,4.7-10.55c0-0.4,0.267-2.483,0.8-6.25l0.8-5.55c0.034,0.366,0.233,3.033,0.601,8
		c0.399,5.233,0.6,8.816,0.6,10.75c0,2.267-0.184,4.316-0.55,6.149c-0.467,2.167-1.15,3.75-2.05,4.75v0.101
		c-0.033,1.6-1.601,3-4.7,4.199c-3.167,1.167-6.967,1.75-11.4,1.75l-0.85,0.2c-1.533,0.134-2.934-0.083-4.2-0.649
		c-1.1-0.5-1.649-0.967-1.649-1.4c1.533-3.233,2.3-4.9,2.3-5c0-4.434-0.217-7.55-0.65-9.35c-0.767-3.301-2.684-7.417-5.75-12.351
		l-0.8-1.6c0.267,1.6,0.767,3.916,1.5,6.95c0.6,2.866,0.9,5.6,0.9,8.199c0,3.801-1.267,6.7-3.801,8.7
		c-2.066,1.601-4.333,2.283-6.8,2.05c1.167-1.566,2.717-3.35,4.65-5.35c1.333-1.6,2-3.25,2-4.95c0-0.6-0.117-1.6-0.351-3
		l-0.149-1.95c0.6-3.433-0.05-8.149-1.95-14.149c-0.733-3.2-2.35-6.517-4.85-9.95c-2.066-2.866-3.8-4.684-5.2-5.45h0.2H96.1z
		 M58.4,74.6L58.2,77.4c-0.3,0.666-0.534,1.3-0.7,1.899l0.1-0.95C57.733,77.45,58,76.2,58.4,74.6z M33.75,71.5
		c-0.767,0.2-1.4,0.483-1.9,0.85c-0.633,1.034-1.167,1.784-1.6,2.25c-0.167,0.134-0.35,0.284-0.55,0.45
		c-3.567,2-5.733,3.217-6.5,3.65l1.9,0.149c-1.167,0.634-2.017,1.034-2.55,1.2c-2.667,0.467-5.333,0.55-8,0.25
		c-0.033-0.233,0.133-0.616,0.5-1.149c0.2-0.267,0.383-0.517,0.55-0.75c0.433,0.1,1.1,0.083,2-0.051c0.933-0.1,1.75-0.267,2.45-0.5
		c3.267-1.033,6.2-2.3,8.8-3.8c3.967-2.3,6.5-4.866,7.6-7.7c0.066-0.233,0.133-0.45,0.2-0.65c0.133-0.333,0.217-0.35,0.25-0.05
		c-0.5,2.167-1.117,3.683-1.85,4.55C34.883,70.4,34.45,70.833,33.75,71.5z"/>
	<path style="fill-rule:evenodd;clip-rule:evenodd;fill:#6A5B45;" d="M32.55,98c-1.466-1.134-4.1-2.783-7.9-4.95
		c-4.433-2.566-7.85-4.267-10.25-5.1c-1.833-1.467-2.816-2.233-2.95-2.3c-0.067,0-0.45-0.233-1.15-0.7c0.534-0.467,2-1.533,4.4-3.2
		l0.2-0.35c-2.7-0.834-4.483-1.434-5.35-1.801c-1-0.433-2.5-0.966-4.5-1.6v2.8l-3.9-7.2l0.3-0.399c0.3-0.3,0.65-0.45,1.05-0.45
		c2.533,2.033,3.917,3.083,4.15,3.15c0.367-0.434,0.767-1.517,1.2-3.25C8.25,71.217,8.5,70.1,8.6,69.3l5.05,5.7l-0.9,0.4
		c0.267,0.199,0.85,0.483,1.75,0.85c0.933,0.4,1.533,0.616,1.8,0.65c1.034,0.433,2.284,0.75,3.75,0.949
		c-0.7,0.233-1.517,0.4-2.45,0.5c-0.9,0.134-1.567,0.15-2,0.051c-0.167,0.233-0.35,0.483-0.55,0.75
		c-0.367,0.533-0.533,0.916-0.5,1.149c2.667,0.3,5.333,0.217,8-0.25c-0.667,0.167-1.267,0.5-1.8,1C20.317,81.483,20.1,81.8,20.1,82
		c0,0.267,0.517,1.1,1.55,2.5c1.5,2.033,3.45,4.15,5.85,6.35c0.933,0.834,1.917,1.467,2.95,1.9c0.8,0.333,1.483,0.5,2.05,0.5
		c1.067,0,2-0.566,2.8-1.7c0.767-1.133,1.3-2.666,1.6-4.6c1.934,1.934,3.033,3.05,3.3,3.35c1.367,1.533,2.15,2.783,2.35,3.75
		c-0.633,1.967-1.033,3.084-1.2,3.351c-0.367,0.366-0.817,0.716-1.35,1.05C38.067,98.55,35.583,98.4,32.55,98z M56.3,33.25
		c-2.1-1.167-4.033-2.183-5.8-3.05c-3.367-1.7-6.1-2.717-8.2-3.05L42.45,27c0.233-0.433,0.483-0.85,0.75-1.25
		c0.367-0.633,0.867-1.5,1.5-2.6c0.733-1.267,1.5-1.9,2.3-1.9c0.1,0,3.25,0.767,9.45,2.3c-0.6,0.833-0.9,1.6-0.9,2.3
		c0,0.667,0.333,3.133,1,7.4H56.3z M70.4,75.15c0.7-3.4,1.667-6.9,2.9-10.5c3.3-9.833,7.25-15.95,11.85-18.35
		c2,0.733,4.883,1.3,8.65,1.7c2.633,0.3,4.667,0.45,6.1,0.45l4.9-0.1c2.834,0,5.566-0.2,8.2-0.6l2.7-0.55
		c0.5-0.1,1.967-0.417,4.399-0.95c2.367-0.6,3.934-1.133,4.7-1.6c0.367-0.1,1.351-0.433,2.95-1c1.733-0.566,2.65-0.9,2.75-1
		c4.2-1.1,6.35-1.65,6.45-1.65c2.399-0.8,4.583-1.917,6.55-3.35l6.7,0.65c-10.9,5.3-16.8,8.15-17.7,8.55
		c-4.033,1.8-7.4,2.933-10.1,3.4c-2.367,0.4-6.034,0.55-11,0.45c-10.967-0.2-17.817-0.3-20.55-0.3c-1.3,0-3.417,2.35-6.35,7.05
		c-2.8,4.4-4.333,7.45-4.6,9.15l-0.4-2.5l-0.1,2.8c0,1.033,0.25,1.984,0.75,2.85l0.65,2.5l0.25,0.65
		c0.067,0.1,0.55,0.566,1.45,1.399c1.067,0.934,1.983,1.634,2.75,2.101c2.033,1.666,3.367,2.716,4,3.149
		c2,1.434,3.75,2.367,5.25,2.8l1.1,1.351l0.05,0.05l0.25,0.3h-0.2c1.4,0.767,3.133,2.584,5.2,5.45c2.5,3.434,4.117,6.75,4.85,9.95
		c0,0.6-0.116,2.6-0.35,6c0,1.267,0.267,2.717,0.8,4.35c0.2,0.601,0.7,1.867,1.5,3.8l0.149,1.95c-0.133,0.533-0.716,1.533-1.75,3
		c-1.133,1.566-1.949,2.351-2.45,2.351c-3,0-6.4-0.967-10.2-2.9c-4-2.033-7.7-4.8-11.1-8.3c-8.434-8.7-12.65-19-12.65-30.9
		c0.167-0.967,0.35-1.95,0.55-2.95c-0.033,0.2-0.05,0.417-0.05,0.65c0,2.533,0.466,4.434,1.4,5.7c0.8,1.1,1.883,1.649,3.25,1.649
		c1.167,0,1.7-0.983,1.6-2.949c-0.367-3.9-0.567-7.834-0.6-11.801c-0.267,0.301-1.633,1.617-4.1,3.95
		C71.083,73.65,70.633,74.35,70.4,75.15z M150.7,76.15c0.233-0.301,0.416-0.65,0.55-1.051c0.233-0.8,0.167-1.683-0.2-2.649
		c0.601,0.267,1.4,0.55,2.4,0.85c1.166,0.334,2,0.5,2.5,0.5c2.5,0,4.95-0.45,7.35-1.35c0.7,0,1.566-0.084,2.601-0.25
		c0.966-0.167,1.666-0.334,2.1-0.5c2.5,0.033,5.15,1.25,7.95,3.649c2.733,2.334,4.1,4.45,4.1,6.351c0,3.767-2.533,6.816-7.6,9.149
		c-1.533,0-2.867-0.483-4-1.449c-1.267-1.101-2.55-3.017-3.851-5.75l0.5,0.449l1.101,1c0.267-0.399,0.533-0.75,0.8-1.05
		c0.134-0.2,0.2-0.517,0.2-0.95c0-1.566-0.334-2.916-1-4.05c-0.967-1.633-2.467-2.434-4.5-2.399c-0.334-0.067-0.55-0.101-0.65-0.101
		c-0.166-0.033-0.25,0.15-0.25,0.55c0,0.4,0.066,0.784,0.2,1.15c0.066,0.2,0.184,0.517,0.35,0.95c-1.5-1.134-3.166-2.5-5-4.101
		c-0.5-0.199-1-0.316-1.5-0.35c-0.033,0.8,0.134,1.783,0.5,2.95c0.2,0.6,0.417,1.233,0.65,1.899l-0.2-0.149l0.75,4.7
		c-0.5,11.433-0.899,18.25-1.2,20.449c-1.267,9.2-3.733,13.801-7.399,13.801c-1.967,0-3.25-1.851-3.851-5.551
		c-0.199-1.199-0.483-5.383-0.85-12.55c-0.333-5.866-1-10.316-2-13.35c-1.467-4.3-3.866-6.917-7.2-7.851l-0.649-0.8l4.55-0.149
		c3.467,0.199,6.083,0.183,7.85-0.051c1-0.199,1.917-0.433,2.75-0.699c0.167-0.067,0.5-0.217,1-0.45
		C150.017,76.717,150.4,76.45,150.7,76.15z M185.65,78.5c0.199,0.366,0.483,0.566,0.85,0.6l0.05-0.05c0.3,2.634,0.634,3.75,1,3.351
		c0.2-0.233,0.367-0.75,0.5-1.551c0.101-0.333-0.1-1.166-0.6-2.5c-0.5-1.366-1.05-2.533-1.65-3.5c-0.1-0.133-0.2-0.216-0.3-0.25
		c-0.233-0.033-0.366,0.233-0.4,0.801c0,0.233,0.017,0.449,0.051,0.649c-0.301-0.866-0.65-1.633-1.051-2.3
		c-0.433-0.667-1.616-1.5-3.55-2.5c-1.899-1-3.083-1.95-3.55-2.85l4.25,0.149c1.467,0,2.75-0.467,3.85-1.4
		c0.567-0.267,0.967-0.467,1.2-0.6c0.634-0.466,1.233-1.133,1.8-2l0.75-0.05l-0.1,0.55c0.9,1.067,2.566,1.667,5,1.8
		c1.866,0.133,2.8,0.933,2.8,2.4c0,2.1-1.316,5.15-3.95,9.15c-0.5,0.699-2.316,3.149-5.449,7.35c-0.801-0.467-1.233-2.033-1.301-4.7
		C185.816,80.116,185.75,79.267,185.65,78.5z M150.55,71.3c-0.666-0.6-1.616-1.1-2.85-1.5c-2.834-0.866-7.384-2.783-13.65-5.75
		c10,2.067,15.601,3.583,16.8,4.55c0.034,0.034,0.301,0.467,0.801,1.301c0.333,0.6,1.199,1.216,2.6,1.85
		C153.583,71.717,152.35,71.566,150.55,71.3z M144.1,95c0.367,2.667,0.733,7.25,1.101,13.75c0.8-0.8,1.2-1.7,1.2-2.7
		c0-2.3-0.417-5.816-1.25-10.55c-1.167-6.4-2.584-10.434-4.25-12.1C142.4,86.533,143.467,90.4,144.1,95z M99.8,22.05l0.15-0.2
		c6.866-0.133,11.467-0.267,13.8-0.4c1.467,0.033,6.2,0,14.2-0.1l2.5,0.05l0.149,2.1c0,2.9-2.199,5.683-6.6,8.35
		c-4.5,2.733-9.4,4.1-14.7,4.1c-4.366,0-7.35-0.45-8.95-1.35c-1.7-0.934-2.55-2.75-2.55-5.45c0-0.6,0.867-1.433,2.6-2.5
		c2.233-1.4,3.45-2.183,3.65-2.35l0.4-0.25h-2c0-0.066-0.217-0.183-0.65-0.35c0.034,0,0.25-0.117,0.65-0.35
		c0.433-0.2,0.883-0.483,1.35-0.85L99.8,22.05z M85.8,28.5c0.534-0.733,1.167-2.25,1.9-4.55l4.75-1.25l-1.6,1.9
		c0.066-0.067,0.183-0.2,0.35-0.4c0.2-0.167,0.517-0.25,0.95-0.25c0.434,0,0.983,0.083,1.65,0.25l0.15,0.4
		c0.066,0.233,0.1,0.55,0.1,0.95c0,4.2-0.066,6.617-0.2,7.25c-0.434,2.4-1.717,3.6-3.85,3.6c-1.867,0-3.117-0.6-3.75-1.8
		c-0.333-0.667-0.5-1.717-0.5-3.15L85.8,28.5z M81.55,39.3l-9.3-0.7c-1.8-1.033-3.717-2.567-5.75-4.6l-1.2-0.15l0.7,0.1l-0.95,0.15
		H63.2c-0.333-1.533,1.25-3.45,4.75-5.75c4.267-2.8,6.433-4.25,6.5-4.35c0.066,0.6,0.066,1.65,0,3.15
		c-0.067,1.733-0.2,3.117-0.4,4.15l-1.2,1.05c0.566,0.333,2.017,0.883,4.35,1.65C79.367,35.133,80.817,36.9,81.55,39.3z
		 M128.75,19.15l4.2-0.9l0.8,0.05c-4.167,1.5-6.85,2.383-8.05,2.65c-1.2,0.267-2.816,0.316-4.851,0.15
		c0.801-0.067,2.067-0.3,3.801-0.7C126.616,19.967,127.983,19.55,128.75,19.15z M126.4,79.15L127,79c2.233,1.4,4.233,2.967,6,4.7
		c2.866,2.8,4.3,5.416,4.3,7.85c-1.833,9.867-3.217,15.617-4.149,17.25c-4.434-1.533-7.034-2.55-7.801-3.05c-1.333-0.8-2-2.134-2-4
		c0-0.8,0.25-3.6,0.75-8.4l-0.3-2.25c-1.267,0.7-2.5,1.15-3.7,1.351c-2.233,0.434-4.649-0.517-7.25-2.851
		c-0.5-0.433-0.816-1.183-0.949-2.25c-0.233-1.566-0.384-2.433-0.45-2.6c-0.367-1.033-1.233-1.616-2.601-1.75
		c1.801-0.167,4.084-0.333,6.851-0.5C119.3,82.3,122.866,81.184,126.4,79.15z M77.85,86.75h-0.6l-0.15,2.3
		c0,1.033,0.267,2.667,0.8,4.9c0.333,4.166,0.633,6.816,0.9,7.95l0.65,1.35c0.133-0.8,0.167-2.05,0.1-3.75
		c0.133,0.2,0.284,0.7,0.45,1.5c0.3,0.9,0.783,1.667,1.45,2.3l1.4,1c-0.633-0.7-1.167-1.934-1.6-3.7c-0.333-1.3-0.5-2.166-0.5-2.6
		c0-0.4,0.017-0.65,0.05-0.75c0.1-0.1,0.184-0.267,0.25-0.5c0.034,0,0.117-0.066,0.25-0.2c0.167-0.133,0.45-0.2,0.85-0.2
		c1.133,0,2.05,0.317,2.75,0.95c0,0.033,0.617,0.783,1.85,2.25c1.933,2.367,5.117,3.9,9.55,4.601c-0.3-3.4-0.966-5.717-2-6.95
		c-0.633-0.767-1.65-1.2-3.05-1.3c-1.4-0.101-2.333-0.384-2.8-0.851c-0.8-0.899-1.2-2.8-1.2-5.7c0-1.1,0.55-1.833,1.65-2.199
		c1.1-0.367,1.65-1.034,1.65-2c-0.1-1.767-0.117-3.017-0.05-3.75c-1.533,0.666-2.633,1-3.3,1c-0.333,0-2.833-1.684-7.5-5.051
		c0.033,0.134,0.483,1.15,1.35,3.051c0.833,1.8,1.267,2.916,1.3,3.35c-0.367,0-0.783-0.083-1.25-0.25
		c-0.934-0.333-1.684-0.917-2.25-1.75C78.45,83.283,78.117,84.95,77.85,86.75z M65.2,41.05c0.233,0.8,0.683,2.467,1.35,5
		c0.633,2.467,0.95,3.733,0.95,3.8c0,3.1-1.833,5.517-5.5,7.25c-3.867,1.233-6.017,2.083-6.45,2.55c-0.066,0.067-1.017,4.4-2.85,13
		c-1.733,8.066-3.233,12.1-4.5,12.1c-1.467,0-2.2-3-2.2-9l0.15-4.7c1.467-8.333,2.684-13.417,3.65-15.25
		c1.867-3.466,5.917-6.45,12.15-8.95c-5.233-5.9-8.5-9.233-9.8-10c-0.767-0.033-1.917-0.733-3.45-2.1
		c0.733,0.267,3.633,1.467,8.7,3.6c2.4,1,4.783,1.733,7.15,2.2L65.2,41.05z M37.25,86.3c0.6-0.833,1.9-2.25,3.9-4.25
		c1.434-1.434,2.383-2.833,2.85-4.2c0,2.334-0.65,4.334-1.95,6C40.717,85.483,39.117,86.3,37.25,86.3z"/>
	<path style="fill-rule:evenodd;clip-rule:evenodd;fill:#61533E;" d="M32.55,98c-1.8-0.167-3.983-1.333-6.55-3.5
		c-3.033-2.566-6.433-4.384-10.2-5.45l-1.4-1.1c2.4,0.833,5.817,2.533,10.25,5.1C28.45,95.217,31.083,96.866,32.55,98z M6.1,82.1
		l-1.05-1.3V78c2,0.634,3.5,1.167,4.5,1.6c0.867,0.367,2.65,0.967,5.35,1.801l-0.2,0.35c-2.4,1.667-3.867,2.733-4.4,3.2L7.95,83.6
		C7.25,83.1,6.633,82.6,6.1,82.1z M64.55,40.55c-2.367-0.466-4.75-1.2-7.15-2.2c-5.066-2.133-7.967-3.333-8.7-3.6l-2.5-1.15L41.1,30
		l0.45-1.35l0.75-1.5c2.1,0.333,4.833,1.35,8.2,3.05c1.767,0.867,3.7,1.883,5.8,3.05c-2.8,0.067-4.933,0.133-6.4,0.2
		c0.067,0.066,2.283,1.066,6.65,3C60.883,38.35,63.55,39.717,64.55,40.55z M151.8,29.85c-0.6,0.4-1.166,0.733-1.7,1
		c-0.633-7.7-0.949-11.883-0.949-12.55c0-0.633,0.283-1.033,0.85-1.2c0.3-0.067,0.6-0.083,0.9-0.05c0.966,0,1.649,1.367,2.05,4.1
		c0.2,1.567,0.517,4.017,0.95,7.35v0.05C153.167,29.05,152.467,29.483,151.8,29.85z M192.7,94.8c-0.8,0.967-1.617,1.867-2.45,2.7
		c-1.934,1.2-3.167,2.15-3.7,2.85c-0.166,0.267-0.25,0.601-0.25,1c0,3.467-1.684,7.551-5.05,12.25c-3.2,4.434-5.684,6.65-7.45,6.65
		c-0.833,0-1.533-0.45-2.1-1.35c-0.733-1.167-1.101-2.967-1.101-5.4c0-2.233,0.584-4.1,1.75-5.6
		c0.601-0.801,1.867-1.917,3.801-3.351c3.666-2.8,5.5-6.233,5.5-10.3l-0.15-5.5c-0.233,1.267-1.434,3-3.6,5.2
		c-2.5,2.533-4.767,3.8-6.801,3.8c-1.833,0-3.866-2.1-6.1-6.3c-2.934-5.434-5.934-9.384-9-11.851c-0.233-0.666-0.45-1.3-0.65-1.899
		c-0.366-1.167-0.533-2.15-0.5-2.95c0.5,0.033,1,0.15,1.5,0.35c1.834,1.601,3.5,2.967,5,4.101c0.101,0.366,0.101,0.75,0,1.149
		c0.167,0.5,1.084,1.434,2.75,2.801l0.5,0.5c1.301,2.733,2.584,4.649,3.851,5.75c1.133,0.966,2.467,1.449,4,1.449
		c5.066-2.333,7.6-5.383,7.6-9.149c0-1.9-1.366-4.017-4.1-6.351c-2.8-2.399-5.45-3.616-7.95-3.649c-1.634,0.166-3.2,0.416-4.7,0.75
		c-2.399,0.899-4.85,1.35-7.35,1.35c-0.5,0-1.334-0.166-2.5-0.5c-1-0.3-1.8-0.583-2.4-0.85l-3.25-1.65l2.75,0.5
		c1.8,0.267,3.033,0.417,3.7,0.45l8-0.05c0.667,0,1.566-0.117,2.7-0.351c1.5-0.366,2.416-0.8,2.75-1.3l2.25-1.399
		c2.5,0.5,3.883,0.816,4.149,0.949l1.4,1.9c1.3,1.733,3.566,4.634,6.8,8.7c0.134,0.733,0.384,1.25,0.75,1.55h0.45l-1.2-1.55
		c0-3.066-0.649-5.684-1.95-7.851c-1.333-2.166-2.933-3.25-4.8-3.25l-1.25-1.05c1.434-0.1,2.334,0.017,2.7,0.351
		c0.467,0.899,1.65,1.85,3.55,2.85c1.934,1,3.117,1.833,3.55,2.5c0.4,0.667,0.75,1.434,1.051,2.3c0.033,1.101,0.199,1.917,0.5,2.45
		c0.1,0.767,0.166,1.616,0.199,2.55c0.067,2.667,0.5,4.233,1.301,4.7c3.133-4.2,4.949-6.65,5.449-7.35c2.634-4,3.95-7.051,3.95-9.15
		c0-1.467-0.934-2.267-2.8-2.4c-2.434-0.133-4.1-0.733-5-1.8l0.1-0.55l8.7-0.1c1.3,0,2.167,2.083,2.601,6.25
		c0.233,2.1,0.333,4.233,0.3,6.399C200.45,80.816,197.866,86.733,192.7,94.8z M113.75,21.45l-1.05-0.25
		c3.033,0.133,5.75,0.1,8.149-0.1c2.034,0.167,3.65,0.117,4.851-0.15c1.2-0.267,3.883-1.15,8.05-2.65
		c0.6,0.034,2.417-0.033,5.45-0.2c1.033,0,1.75,0.233,2.149,0.7c0.567,0.633,0.851,1.883,0.851,3.75c0,2.067-4.384,7.233-13.15,15.5
		c-2.5,0.3-5.05,0.817-7.649,1.55c-3.4,0.967-5.167,1.467-5.301,1.5c-1.6,0.3-3.166,0.533-4.699,0.7
		c-2.834,0.333-6.851,0.483-12.05,0.45c-2.3-0.3-4.434-0.517-6.4-0.65c-2.467-0.167-5.45-0.25-8.95-0.25
		c0-0.567-0.233-1.05-0.7-1.45c-0.5-0.4-1.083-0.6-1.75-0.6c-0.733-2.4-2.183-4.167-4.35-5.3c-2.333-0.767-3.784-1.317-4.35-1.65
		l1.2-1.05l4.2-2.5l-1.3,1.05c0.5,0.433,1.267,1.25,2.3,2.45c0.967,1,1.8,1.5,2.5,1.5c0.667,0,1.167-0.35,1.5-1.05
		c0.733-1.6,1.583-3.017,2.55-4.25l-0.05,2.95c0,1.433,0.167,2.483,0.5,3.15c0.633,1.2,1.883,1.8,3.75,1.8
		c2.133,0,3.417-1.2,3.85-3.6c0.133-0.633,0.2-3.05,0.2-7.25c0-0.4-0.033-0.716-0.1-0.95l-0.15-0.4
		c-0.667-0.167-1.216-0.25-1.65-0.25c-0.433,0-0.75,0.083-0.95,0.25c-0.167,0.2-0.284,0.333-0.35,0.4l1.6-1.9h0.1
		c1.667,0.7,2.65,1.816,2.95,3.35c0.033,0.1,0.067,1.567,0.1,4.4v0.45c1.167-3.467,1.967-5.566,2.4-6.3c0.3-0.5,0.9-1.35,1.8-2.55
		l4,0.45c-0.466,0.367-0.917,0.65-1.35,0.85c-0.4,0.233-0.617,0.35-0.65,0.35c0.434,0.167,0.65,0.283,0.65,0.35h2l-0.4,0.25
		c-0.2,0.167-1.417,0.95-3.65,2.35c-1.733,1.067-2.6,1.9-2.6,2.5c0,2.7,0.85,4.517,2.55,5.45c1.6,0.9,4.583,1.35,8.95,1.35
		c5.3,0,10.2-1.367,14.7-4.1c4.4-2.667,6.6-5.45,6.6-8.35l-0.149-2.1l-2.5-0.05C119.95,21.45,115.217,21.483,113.75,21.45z
		 M130.5,42.65c-0.1,0.1-1.017,0.434-2.75,1c-1.6,0.567-2.583,0.9-2.95,1l1.2-0.6L130.5,42.65z M84.3,15.25l4.85-1.15l-7.75,2.5
		L84.3,15.25z M68.05,20.55c1.133-0.3,2.15-0.6,3.05-0.9c-3.733,1.967-5.75,3.5-6.05,4.6c-0.466,1.533-1.2,2.717-2.2,3.55l-0.55,0.6
		c2.2-0.633,4.233-1.517,6.1-2.65c0.6-0.367,3.033-2.067,7.3-5.1c0.3-0.1,1.267-0.683,2.9-1.75c1.833-1.2,4.133-2.35,6.9-3.45
		l1.75-0.5c-2.967,1.233-5.567,2.6-7.8,4.1c-2.5,1.7-4.167,3.35-5,4.95c-0.067,0.1-2.233,1.55-6.5,4.35
		c-3.5,2.3-5.083,4.217-4.75,5.75h1.85L66,33.95L66.5,34c2.033,2.033,3.95,3.567,5.75,4.6C69.683,37.633,66.6,37,63,36.7
		c-1.933-0.167-2.9-0.867-2.9-2.1c0-0.133,0.333-0.617,1-1.45c0.8-1.033,1.667-2,2.6-2.9l0.8-1.15c-2.2,0.533-3.95,1.283-5.25,2.25
		c-1.5,1.167-2.4,1.8-2.7,1.9c-0.667-4.267-1-6.733-1-7.4c0-0.7,0.3-1.467,0.9-2.3c1.167-0.566,2.816-1.083,4.95-1.55
		c0.367-0.067,0.767-0.117,1.2-0.15C64.433,21.55,66.25,21.117,68.05,20.55z M85.15,46.3c-4.6,2.4-8.55,8.517-11.85,18.35
		c-1.233,3.6-2.2,7.1-2.9,10.5c-0.066,0.233-0.117,0.466-0.15,0.699c-0.2,1-0.383,1.983-0.55,2.95c0,11.9,4.216,22.2,12.65,30.9
		c3.4,3.5,7.1,6.267,11.1,8.3c3.8,1.934,7.2,2.9,10.2,2.9c0.5,0,1.317-0.784,2.45-2.351c1.034-1.467,1.617-2.467,1.75-3
		c0.233,1.4,0.351,2.4,0.351,3c0,1.7-0.667,3.351-2,4.95c-1.934,2-3.483,3.783-4.65,5.35c-4.1-0.399-6.233-0.616-6.4-0.649
		c-2.7-0.533-5.467-1.65-8.3-3.351c-1.1-1.1-1.817-1.883-2.15-2.35c-0.534-0.733-0.717-1.55-0.55-2.45
		c0.967-0.033,2.233,0.316,3.8,1.05c2.5,1.167,5.183,2.167,8.05,3l1.3,0.301c-0.7-0.934-2.35-2.117-4.95-3.551
		c-3.467-1.933-5.983-3.483-7.55-4.649C77.767,111,73,103.483,70.5,93.65L70.15,92c0.133,2.366,0.2,5.417,0.2,9.15
		c0,3.6-0.05,6.416-0.15,8.449c-3.267-1.3-5.083-2.85-5.45-4.649c-0.567-2.834-1.85-5.617-3.85-8.351
		c-1.833-2.533-2.75-3.833-2.75-3.899c0-0.367,0.233-1.467,0.7-3.3c0.6-2.534,1.167-5.15,1.7-7.851l0.05-0.25
		c0-0.066,0-0.116,0-0.149c0.167-0.5,0.517-2.067,1.05-4.7c0.567-2.767,0.867-4.2,0.9-4.3c2.1-3.067,5.117-8.517,9.05-16.351
		c2.566-4.6,4.917-7.6,7.05-9c0.833-0.566,1.617-0.883,2.35-0.95l2.4-0.05L85.15,46.3z M137.45,127.55v-0.399v-0.101
		c0.899-1,1.583-2.583,2.05-4.75c0.366-1.833,0.55-3.883,0.55-6.149c0-1.934-0.2-5.517-0.6-10.75c-0.367-4.967-0.566-7.634-0.601-8
		l-0.8,5.55c-0.533,3.767-0.8,5.85-0.8,6.25c0,5.566-1.566,9.083-4.7,10.55c-1.3,0.6-4.333,0.9-9.1,0.9c-2.4,0-3.634-1.067-3.7-3.2
		c-0.1-3.967-0.55-6.8-1.35-8.5c-0.7-1.5-2.9-5.25-6.601-11.25c-3.533-5.667-5.3-8.533-5.3-8.601c0-0.399,0.116-1.149,0.35-2.25
		c0.267-1.3,0.4-1.983,0.4-2.05L96.1,84.05l-0.45-0.3L95.6,83.7c2.3,0.066,5.316,0,9.05-0.2c0.833-0.167,2.233-0.333,4.199-0.5
		c1.367,0.134,2.233,0.717,2.601,1.75c0.066,0.167,0.217,1.033,0.45,2.6c0.133,1.067,0.449,1.817,0.949,2.25
		c2.601,2.334,5.017,3.284,7.25,2.851c1.2-0.2,2.434-0.65,3.7-1.351l0.3,2.25c-0.5,4.801-0.75,7.601-0.75,8.4c0,1.866,0.667,3.2,2,4
		c0.767,0.5,3.367,1.517,7.801,3.05c0.933-1.633,2.316-7.383,4.149-17.25c0-2.434-1.434-5.05-4.3-7.85c-1.767-1.733-3.767-3.3-6-4.7
		l0.8-0.3l0.8-0.55c0.634,0.433,1.184,0.6,1.65,0.5c0.434-0.101,0.767-0.067,1,0.1c0.767,0.6,3.083,4.483,6.95,11.65
		c-0.267-2.767-0.733-4.867-1.4-6.301c-1-1.767-1.916-3.433-2.75-5c3.334,0.934,5.733,3.551,7.2,7.851c1,3.033,1.667,7.483,2,13.35
		c0.366,7.167,0.65,11.351,0.85,12.55c0.601,3.7,1.884,5.551,3.851,5.551c3.666,0,6.133-4.601,7.399-13.801
		c0.301-2.199,0.7-9.017,1.2-20.449c0.601,2.933,1.483,6.966,2.65,12.1c0.899,4.8,1.35,10.083,1.35,15.85
		c0,4.767-1.184,8.584-3.55,11.45c-2.866,3.5-7.3,5.25-13.3,5.25C140.333,128.434,138.25,128.017,137.45,127.55z M107.7,113.6
		c-0.8-1.933-1.3-3.199-1.5-3.8c-0.533-1.633-0.8-3.083-0.8-4.35c0.233-3.4,0.35-5.4,0.35-6
		C107.65,105.45,108.3,110.167,107.7,113.6z M59.75,70.4c-0.167,0.3-0.433,1.033-0.8,2.199c-0.367,1.134-0.55,1.801-0.55,2
		c-0.4,1.601-0.667,2.851-0.8,3.75l-0.1,0.95c0.167-0.6,0.4-1.233,0.7-1.899c0,0.166-0.35,1.566-1.05,4.199v0.351
		c-0.1,3.267-1.517,6.083-4.25,8.45c-2.867,2.433-6.316,3.649-10.35,3.649c-0.2-0.967-0.983-2.217-2.35-3.75
		c-0.267-0.3-1.367-1.416-3.3-3.35l0.35-0.65c1.867,0,3.467-0.816,4.8-2.45c1.3-1.666,1.95-3.666,1.95-6
		c0.433-3.166,0.783-5.616,1.05-7.35c0.5-3.133,1.117-5.633,1.85-7.5l-0.75,8.05L46,75.75c0,6,0.733,9,2.2,9
		c1.267,0,2.767-4.033,4.5-12.1c1.833-8.601,2.783-12.934,2.85-13c0.434-0.467,2.583-1.316,6.45-2.55c3.667-1.733,5.5-4.15,5.5-7.25
		c0-0.067-0.317-1.333-0.95-3.8c-0.667-2.533-1.117-4.2-1.35-5c0.933,1.167,1.716,2.534,2.35,4.1c0.7,1.667,1.05,3.133,1.05,4.4
		c0,3-1.117,6.4-3.35,10.2C62.283,64.783,60.45,68.333,59.75,70.4z"/>
	<path style="fill-rule:evenodd;clip-rule:evenodd;fill:#382F23;" d="M189,114.45c0.5-2.634,0.75-5.101,0.75-7.4
		c0-0.267-0.45-1.233-1.35-2.899c-0.9-1.667-1.351-2.667-1.351-3c0-0.667,0.45-1.384,1.351-2.15c0.5-0.4,1.116-0.9,1.85-1.5
		c0.833-0.833,1.65-1.733,2.45-2.7l1.95-2.35c-0.301,0.833-0.95,3.383-1.95,7.649c0,1.334,0.267,2.884,0.8,4.65
		c0.366,1.333,0.75,2.384,1.15,3.15c-0.634,1-1.567,2.149-2.801,3.449c-1.333,1.467-2.033,2.233-2.1,2.301L189,114.45z M120.5,133.3
		l-0.85,0.25l1.699-0.45c4.434,0,8.233-0.583,11.4-1.75c3.1-1.199,4.667-2.6,4.7-4.199v0.399c0.133,0.8,0.3,1.767,0.5,2.9
		c14.5-1.8,23.116-5.367,25.85-10.7c1.134,0.467,2.134,1.4,3,2.8c0.467,0.767,2.351,1.15,5.65,1.15c2.6,0,5.983-1.017,10.149-3.05
		c0.067-0.067,0.15-0.117,0.25-0.15l-1.399,1.1c-12.2,4.9-25.75,8.534-40.65,10.9c-10.2,1.634-18.833,2.45-25.899,2.45
		c-5.267,0-8.667-0.283-10.2-0.851c-9.4-3.6-16.217-6.35-20.45-8.25c-2.4-1.199-3.617-1.816-3.65-1.85l-21.4-15.05l0.2-2.351
		c2.4,1.634,5.867,3.9,10.4,6.801c4.333,2.8,10.017,6.616,17.05,11.449c2.833,1.7,5.6,2.817,8.3,3.351
		c0.167,0.033,2.3,0.25,6.4,0.649c2.467,0.233,4.733-0.449,6.8-2.05c2.534-2,3.801-4.899,3.801-8.7c0-2.6-0.301-5.333-0.9-8.199
		c-0.733-3.034-1.233-5.351-1.5-6.95l0.8,1.6c3.066,4.934,4.983,9.05,5.75,12.351c0.434,1.8,0.65,4.916,0.65,9.35
		c0,0.1-0.767,1.767-2.3,5c0,0.434,0.55,0.9,1.649,1.4C117.566,133.217,118.967,133.434,120.5,133.3z M43.5,104.85
		c3.767,0,6.983-2.267,9.65-6.8c2.633-4.467,3.967-9.833,4-16.1V81.6c0.7-2.633,1.05-4.033,1.05-4.199l0.2-2.801
		c0-0.199,0.184-0.866,0.55-2c0.367-1.166,0.633-1.899,0.8-2.199l4.55-6.25l-1.75,8c-0.033,0.1-0.333,1.533-0.9,4.3
		c-0.533,2.633-0.883,4.2-1.05,4.7c0,0.033,0,0.083,0,0.149l-0.05,0.25c-0.367,1.5-1.316,4.517-2.85,9.05
		c-1.534,5.233-2.3,9.667-2.3,13.301c0,0.333,0.233,0.666,0.7,1c0.633,0.5,1.267,1.566,1.9,3.199c-2.633-1.767-5.1-3.383-7.4-4.85
		c-1.434,1.634-2.333,2.45-2.7,2.45C47.567,105.7,46.1,105.417,43.5,104.85z M78.65,46.8c-1.4,0.8-3.133,2.1-5.2,3.9
		c-3.367,3.167-5.35,4.933-5.95,5.3l0.2-0.3c1.1-1.8,2.167-3.983,3.2-6.55c0.934-2.333,1.4-3.816,1.4-4.45c0-1-0.833-2.067-2.5-3.2
		c-2.667-1.6-4.983-3.133-6.95-4.6l1.4,0.65c1.033,0.333,3.517,1.133,7.45,2.4c3.833,1.1,6.716,1.65,8.65,1.65L84,41.35
		c3.5,0,6.483,0.083,8.95,0.25c1.966,0.133,4.1,0.35,6.4,0.65c0.2,0.033,2.667,0.117,7.4,0.25c4.9-0.033,8.017-0.5,9.35-1.4
		c0.134-0.033,1.9-0.533,5.301-1.5c2.6-0.733,5.149-1.25,7.649-1.55c1.066-0.167,2.05-0.45,2.95-0.85c1.5-0.434,4.384-0.9,8.65-1.4
		l0.149-0.05l-0.95,0.55c-2.966,0.833-5.267,1.817-6.899,2.95c-4.467,3.1-6.783,4.7-6.95,4.8l-1.2,0.6c-0.767,0.467-2.333,1-4.7,1.6
		c-2.433,0.533-3.899,0.85-4.399,0.95l-2.7,0.55c-2.634,0.4-5.366,0.6-8.2,0.6c-1.133,0-4.65-0.417-10.55-1.25
		c-5.933-0.833-9.55-1.267-10.85-1.3L81,45.85C80.267,45.917,79.483,46.233,78.65,46.8z M80.75,16.8l4.75-1.35
		c-2.767,1.1-5.067,2.25-6.9,3.45c-1.633,1.067-2.6,1.65-2.9,1.75c-1.6,0.733-2.95,1.033-4.05,0.9c0.9-0.867,1.684-1.667,2.35-2.4
		C74.7,18.717,76.95,17.933,80.75,16.8z"/>
</g>
</svg>
