<?xml version="1.0" encoding="iso-8859-1"?>
<!-- Generator: Adobe Illustrator 15.1.0, SVG Export Plug-In . SVG Version: 6.00 Build 0)  -->
<!DOCTYPE svg PUBLIC "-//W3C//DTD SVG 1.1//EN" "http://www.w3.org/Graphics/SVG/1.1/DTD/svg11.dtd">
<svg version="1.1" id="FlashAICB" xmlns="http://www.w3.org/2000/svg" xmlns:xlink="http://www.w3.org/1999/xlink" x="0px" y="0px"
	 width="615.35px" height="85.1px" viewBox="0 0 615.35 85.1" style="enable-background:new 0 0 615.35 85.1;" xml:space="preserve"
	>
<symbol  id="FlashAICB_x2F_Layer_23_x2F__x3C_Path_x3E_" viewBox="0.007 -46.097 540.108 46.097">
	<g id="Layer_1_2_">
		<path style="fill-rule:evenodd;clip-rule:evenodd;" d="M537.75-28.45c1.7-0.233,2.483-0.683,2.35-1.35
			c-0.067-0.333-0.3-0.65-0.7-0.95l-4.1-4.1l-0.85-1.7c-0.267-0.6-0.467-0.85-0.6-0.75c-0.4,0.3-1.017,0.35-1.85,0.15
			c-1.033-0.267-2.017-0.833-2.95-1.7l-1.15-1.2l-7.4-1.15c-1.367-0.267-2.867-0.633-4.5-1.1l-2.05-0.65
			c-3.2-0.066-6.917,0.034-11.15,0.3c-2.633,0.167-6.25-0.1-10.85-0.8l-6.05-1.1c-1.2,1.333-2.5,2.867-3.9,4.6
			c-2.767,3.5-4.617,6.267-5.55,8.3c-0.934,2-21.883,2.15-62.85,0.45c-47.267-2.333-77.4-3.633-90.4-3.9
			c-34.633-0.833-62.434-1.5-83.4-2c-38.7-0.867-64.417-1.367-77.15-1.5c-13.4-0.133-38.35-1.316-74.85-3.55
			c-33.233-2-51.983-3.283-56.25-3.85c-2.267-0.267-4.066,0.017-5.4,0.85c-2.3,1.433-3.5,2.167-3.6,2.2
			c-3.433,1.2-6.167,1.967-8.2,2.3c-1.367,0.233-2.333,0.7-2.9,1.4l-0.4,0.95l4.1,1.75c0.133,0.566,0.417,1.167,0.85,1.8
			c0.8,1.233,1.883,1.983,3.25,2.25c1.367,0.233-0.7,1.483-6.2,3.75c-2.767,1.133-5.667,2.233-8.7,3.3
			c-1.033,0.034-1.967,0.167-2.8,0.4c-1.667,0.466-1.983,1.183-0.95,2.15c0.9,0.833,1.983,1.1,3.25,0.8c0.9-0.2,1.333-0.05,1.3,0.45
			c-0.033,0.367,1.6,1.017,4.9,1.95c3.367,0.967,5.133,2.333,5.3,4.1c0.2,2.033,3.967,4.4,11.3,7.1c6.6,2.467,11.083,3.7,13.45,3.7
			c1.1,0,1.316-2.567,0.65-7.7c-0.633-5-0.417-7.417,0.65-7.25c1.333,0.233,3.583,1.383,6.75,3.45c1.9,1.233,5.333,3.483,10.3,6.75
			c2.8,1.733,7.033,3.55,12.7,5.45c4.833,1.633,7.5,2.8,8,3.5L380.25,0c4.9,0,28.967-3.783,72.2-11.35
			c43.2-7.533,65.616-11.3,67.25-11.3c2.5,0,3.866-0.217,4.1-0.65c0.333-0.6,0.884-0.967,1.65-1.1c1.366-0.233,2.6-0.783,3.7-1.65
			c0.534-0.434,0.934-0.85,1.2-1.25L537.75-28.45z"/>
	</g>
</symbol>
<g>
	
		<radialGradient id="SVGID_1_" cx="299.394" cy="62.5352" r="302.4531" gradientTransform="matrix(1 -0.0045 -0.016 -0.1203 9.3092 70.0217)" gradientUnits="userSpaceOnUse">
		<stop  offset="0" style="stop-color:#000000;stop-opacity:0.8471"/>
		<stop  offset="0.8784" style="stop-color:#000000;stop-opacity:0.2471"/>
		<stop  offset="1" style="stop-color:#000000;stop-opacity:0"/>
	</radialGradient>
	<path style="fill-rule:evenodd;clip-rule:evenodd;fill:url(#SVGID_1_);" d="M22.9,69.35C7.633,63.283,0,56.934,0,50.3
		c0-6.833,8.066-13.366,24.2-19.6c15.566-6,37.533-11.317,65.9-15.95C150.167,4.917,222.7,0,307.7,0
		c84.967,0,157.483,4.917,217.55,14.75c28.366,4.633,50.333,9.95,65.9,15.95c16.133,6.233,24.199,12.767,24.199,19.6
		c0,6.2-6.716,12.184-20.149,17.95c-13,5.566-31.5,10.6-55.5,15.1c-0.9-0.133-11.95-0.066-33.15,0.2
		c-21.066,0.233-32.133,0.25-33.2,0.05c-2.433-0.467,3.75-1.449,18.551-2.949c14.399-1.434,20.533-2.268,18.399-2.5
		c-3.467-0.4-7.816-0.567-13.05-0.5c-5.866,0.166-10.25,0.232-13.15,0.199c-22.733-0.232-39.8-0.383-51.199-0.449
		c-20-0.167-37.067-0.184-51.2-0.051c-6.767-0.933-14.533-1.533-23.3-1.8c-3.967-0.133-11.784-0.217-23.45-0.25
		c-21.3-1.633-37.284-2.75-47.95-3.35c-18.367-1-34.367-1.083-48-0.25c-3.633,0.233-6.467,1.433-8.5,3.6
		c-1.833,1.934-2.684,4.25-2.55,6.95c-6.967-0.233-12.8-0.533-17.5-0.9c-4.4-0.366-9.85-0.732-16.35-1.1
		c-7.267-0.367-12.717-0.667-16.35-0.9c-5.533-1.232-12.233-2.166-20.1-2.8c-9.1-0.533-15.883-0.95-20.35-1.25
		c-2.366-0.133-4.483,0.384-6.35,1.55c-1.667,1.033-2.934,2.483-3.8,4.351l-31.2-2.25c-2.2-0.167-4.284,0.366-6.25,1.6
		c-1.833,1.134-3.233,2.65-4.2,4.55C58.5,80.5,37.633,75.25,22.9,69.35z"/>
</g>
<use xlink:href="#FlashAICB_x2F_Layer_23_x2F__x3C_Path_x3E_"  width="540.108" height="46.097" x="0.007" y="-46.097" transform="matrix(1 0 0 -1 37.6001 30.7002)" style="overflow:visible;opacity:0.25;enable-background:new    ;"/>
</svg>
