<?xml version="1.0" encoding="iso-8859-1"?>
<!-- Generator: Adobe Illustrator 15.1.0, SVG Export Plug-In . SVG Version: 6.00 Build 0)  -->
<!DOCTYPE svg PUBLIC "-//W3C//DTD SVG 1.1//EN" "http://www.w3.org/Graphics/SVG/1.1/DTD/svg11.dtd">
<svg version="1.1" id="flash0.ai" xmlns="http://www.w3.org/2000/svg" xmlns:xlink="http://www.w3.org/1999/xlink" x="0px" y="0px"
	 width="151.6px" height="174.9px" viewBox="0 0 151.6 174.9" style="enable-background:new 0 0 151.6 174.9;" xml:space="preserve"
	>
<symbol  id="flash0.ai_x5F_4_x2F_Layer_21_x2F__x3C_Path_x3E_" viewBox="-0.001 -8.568 30.153 8.548">
	<g id="Layer_1_2_">
		<path style="fill-rule:evenodd;clip-rule:evenodd;" d="M30.15-3.9c0.067-1.167-1.367-2.2-4.3-3.1
			c-2.934-0.9-6.483-1.417-10.65-1.55C11-8.65,7.433-8.333,4.5-7.6C1.533-6.833,0.033-5.867,0-4.7
			c-0.033,1.167,1.417,2.217,4.35,3.15c2.933,0.9,6.483,1.4,10.65,1.5C19.133,0.083,22.683-0.233,25.65-1S30.117-2.733,30.15-3.9z"
			/>
	</g>
</symbol>
<g>
	
		<use xlink:href="#flash0.ai_x5F_4_x2F_Layer_21_x2F__x3C_Path_x3E_"  width="30.153" height="8.548" x="-0.001" y="-8.568" transform="matrix(1 0 0 -1 43.8999 166.3496)" style="overflow:visible;opacity:0.25;enable-background:new    ;"/>
</g>
<g>
	<path style="fill-rule:evenodd;clip-rule:evenodd;fill:#C36444;" d="M62.85,162.95c0.4-0.566,0.917-1.101,1.55-1.601
		c1.267-0.966,2.45-1.199,3.55-0.699c1.1,0.5,2.15,1.966,3.15,4.399c0.5,1.2,0.9,2.351,1.2,3.45l-1.8,1.95
		c-2.1,1.366-5.45,2.184-10.05,2.45c-3.733,0.199-6.667-0.217-8.8-1.25L49.6,170.1l0.2-2.949c0.1-0.934,0.5-2.084,1.2-3.45l1.05-1.8
		L62.85,162.95z"/>
	<path style="fill-rule:evenodd;clip-rule:evenodd;fill:#AB5333;" d="M49.6,170.1l0.2-2.949c0.1-0.934,0.5-2.084,1.2-3.45l1.05-1.8
		l4.45,0.449l2.4,2.2l-0.9,1.8c-0.533,1.4-0.617,2.7-0.25,3.9c0.467,1.533,2.25,2.333,5.35,2.4l-2.65,0.25
		c-3.733,0.199-6.667-0.217-8.8-1.25L49.6,170.1z"/>
	<path style="fill-rule:evenodd;clip-rule:evenodd;fill:#D46D4A;" d="M52.05,161.9c1.3-0.834,3.3-1.4,6-1.7
		c2.133-0.233,4.434-0.283,6.9-0.15c2.033,0.066,3.3,0.517,3.8,1.351c0.5,0.8-0.1,1.583-1.8,2.35c-1.7,0.767-3.95,1.233-6.75,1.4
		c-2.7,0.166-5,0.033-6.9-0.4c-1.133-0.233-1.683-0.783-1.65-1.65L52.05,161.9z"/>
	<path style="fill-rule:evenodd;clip-rule:evenodd;fill:#E4AD84;" d="M69.35,163.1l0.5,0.851c0.4,0.666,0.717,1.333,0.95,2
		c0.367,1.066,0.483,2.116,0.35,3.149c-0.066-0.333-0.517-1.066-1.35-2.199c-0.533-0.733-1.183-1.351-1.95-1.851l-1-0.55
		c0.2,0.066,0.583-0.116,1.15-0.55L69.35,163.1z"/>
	<path style="fill-rule:evenodd;clip-rule:evenodd;fill:#8F4932;" d="M54.65,166.2c-1.3,0.566-1.767,1.649-1.4,3.25
		c0.2,0.8,0.517,1.55,0.95,2.25c-0.934,0.033-1.9-0.617-2.9-1.95c-0.633-0.866-0.716-1.85-0.25-2.95l0.85-1.45
		C54.633,165.517,55.55,165.8,54.65,166.2z"/>
</g>
<g>
	<path style="fill-rule:evenodd;clip-rule:evenodd;fill:#E09D7C;" d="M40.15,91.25c0.267-2.434,1.05-4.133,2.35-5.1
		c1.733-1.267,3.517-1.483,5.35-0.65c0.9,0.4,1.55,0.75,1.95,1.05c3.2,9.533,4.833,14.417,4.9,14.65c1.7,5.8,3.233,12.983,4.6,21.55
		c1.233,8.066,3.117,17.033,5.65,26.9c1.267,4.933,2.4,9.05,3.4,12.35c-0.767,0.467-1.733,0.917-2.9,1.35
		c-2.333,0.9-4.517,1.301-6.55,1.2c-3.066-0.166-5.033-0.649-5.9-1.45l-0.35-1.149c0.267-1.467,0.367-3.867,0.3-7.2
		c-0.133-6.7-1.083-14.717-2.85-24.05c-2.2-11.834-4.533-21.384-7-28.65l-3-7.399C40,93.616,40.017,92.483,40.15,91.25z"/>
	<path style="fill-rule:evenodd;clip-rule:evenodd;fill:#C87D58;" d="M40.1,94.65c-0.067-0.667-0.083-1.45-0.05-2.351l12.2,1.351
		l0.45,1.3c-0.867,2.2-1.684,3.684-2.45,4.45c-0.6,0.6-0.817,1.716-0.65,3.35c0.1,1,0.367,2.884,0.8,5.65
		c0.1,0.966,1.267,6.366,3.5,16.199c2.133,9.4,3.283,15.467,3.45,18.2c0.7,10.7,2.25,17.934,4.65,21.7
		c-3.733,0.267-6.417-0.083-8.05-1.05l-1.3-1.5c0.267-1.467,0.367-3.867,0.3-7.2c-0.133-6.7-1.083-14.717-2.85-24.05
		c-2.2-11.834-4.533-21.384-7-28.65L40.1,94.65z"/>
	<path style="fill-rule:evenodd;clip-rule:evenodd;fill:#B5714F;" d="M44.45,100.45l2.15,0.25l2.65,13.3
		c1.9,9.566,3.267,16.116,4.1,19.65c0.9,3.699,1.483,9.199,1.75,16.5c0.267,6.566,0.25,10.316-0.05,11.25
		c-0.1,0.366-0.383-2.617-0.85-8.95c-0.567-7.867-1.167-13.566-1.8-17.101c-0.9-5.166-2.267-11.883-4.1-20.149
		C46.333,106.434,45.05,101.517,44.45,100.45z"/>
	<path style="fill-rule:evenodd;clip-rule:evenodd;fill:#EDC9B1;" d="M51.8,101.35c-0.066-0.5,0.1-0.899,0.5-1.199l0.6-0.351
		l1.7,7.55c1.233,5.733,2.05,10.334,2.45,13.801c0.333,2.899,1.35,7.699,3.05,14.399c1.733,6.934,2.783,11.667,3.15,14.2l1.65,12.15
		c-0.4-1.101-0.917-3.034-1.55-5.801c-2-8.3-3.017-12.5-3.05-12.6c-1.633-7.167-2.816-12.95-3.55-17.35
		c-0.733-4.367-1.783-9.801-3.15-16.301L51.8,101.35z"/>
</g>
<g>
	<path style="fill-rule:evenodd;clip-rule:evenodd;fill:#C87D58;" d="M44.25,15.55L57.9,15.2l1.5,2.6c0.9,2.3,1.2,4.85,0.9,7.65
		c-0.3,2.8-1.65,5.017-4.05,6.65l-3.5,1.65c-1.233-0.867-2.467-1.9-3.7-3.1c-2.5-2.333-3.816-4.267-3.95-5.8L44.25,15.55z"/>
	<path style="fill-rule:evenodd;clip-rule:evenodd;fill:#E09D7C;" d="M46.2,13.95c4.7,0.1,8.6,0.517,11.7,1.25
		c-0.767-0.034-1.65,0.267-2.65,0.9c-1.967,1.3-3.433,3.65-4.4,7.05c-0.967,3.434-0.95,6.233,0.05,8.4
		c0.4,0.8,0.85,1.408,1.35,1.825c-2.236-1.522-5.086-2.747-8.55-3.675c-7.4-1.934-14.567-1.034-21.5,2.7
		c-4.333,2.333-7.3,5.133-8.9,8.4c-1.367,2.867-1.583,5.833-0.65,8.9c0.867,2.8,2.533,5.2,5,7.2c2.5,2.033,5.217,3.184,8.15,3.45
		c2.067,0.2,4.15,1.383,6.25,3.55c2.034,2.067,3.233,4.15,3.6,6.25c0.367,2.3-0.583,3.717-2.85,4.25
		c-2.7,0.633-7.017-0.167-12.95-2.4c-7.367-2.8-12.733-6.817-16.1-12.05c-3-4.7-4.183-9.95-3.55-15.75
		c0.633-5.434,2.75-10.483,6.35-15.15c3.633-4.767,8.117-8.233,13.45-10.4C28.033,15.35,36.767,13.783,46.2,13.95z"/>
	<g>
		<path style="fill-rule:evenodd;clip-rule:evenodd;fill:#C87D58;" d="M50.4,25.2c-0.4,2.367-0.267,4.383,0.4,6.05
			c0.434,1,1,1.783,1.7,2.35c-2.767-1.934-6.117-3.333-10.05-4.2c-7-1.5-13.75-0.5-20.25,3c-4,2.133-6.817,4.667-8.45,7.6
			c-1.467,2.6-1.95,5.333-1.45,8.2c-1.1-3.733-0.083-7.767,3.05-12.1c3.2-4.434,7.4-7.517,12.6-9.25C34.917,24.55,42.4,24,50.4,25.2
			z"/>
	</g>
	<path style="fill-rule:evenodd;clip-rule:evenodd;fill:#C87D58;" d="M2.95,34.9c-1.833,4.967-2.383,9.567-1.65,13.8
		c0.767,4.633,3.017,8.433,6.75,11.4c3.434,2.767,6.417,3.617,8.95,2.55c0.367-0.167,1.333-0.75,2.9-1.75
		c1.133-0.7,2.117-1.083,2.95-1.15c0.933,0.3,1.917,0.5,2.95,0.6l0.3,0.05c1.467,1.033,1.9,3.15,1.3,6.35
		c-0.5,2.6-1.133,4.4-1.9,5.4c-0.1,0.1-0.35,0.6-0.75,1.5c-1.5-0.4-3.133-0.95-4.9-1.65C10.383,68.433,4.267,62.933,1.5,55.5
		C-0.933,48.9-0.45,42.033,2.95,34.9z"/>
	
		<linearGradient id="SVGID_1_" gradientUnits="userSpaceOnUse" x1="24.4639" y1="-53.1909" x2="35.1431" y2="-53.1909" gradientTransform="matrix(0.1007 0.9949 -0.9949 0.1007 -2.368540e-005 -2.365112e-004)">
		<stop  offset="0" style="stop-color:#824835"/>
		<stop  offset="1" style="stop-color:#BA755F"/>
	</linearGradient>
	<path style="fill-rule:evenodd;clip-rule:evenodd;fill:url(#SVGID_1_);" d="M57.15,17.9c1.1-0.3,1.667,1.184,1.7,4.45
		c0.033,3.3-0.5,5.55-1.6,6.75c-1.267,1.367-2.233,1.967-2.9,1.8c-0.8-0.2-1.25-1.533-1.35-4c-0.1-2.367,0.4-4.483,1.5-6.35
		C55.4,19.017,56.283,18.133,57.15,17.9z"/>
	<path style="fill-rule:evenodd;clip-rule:evenodd;fill:#EDC9B1;" d="M44.25,15.55c2.7,0.034,3.833,0.5,3.4,1.4
		c-0.233,0.466-0.733,0.917-1.5,1.35c-5.1,0.434-12.283,1.383-21.55,2.85c-5.8,0.934-10.217,2.667-13.25,5.2
		c-1.5,1.267-2.434,2.45-2.8,3.55c0-0.667,0.467-1.55,1.4-2.65c1.833-2.167,5.033-4.317,9.6-6.45c4.6-2.1,10.1-3.6,16.5-4.5
		C39.25,15.833,41.983,15.583,44.25,15.55z"/>
	<path style="fill-rule:evenodd;clip-rule:evenodd;fill:#EDC9B1;" d="M12.1,52.3c0.8,2,2.217,3.867,4.25,5.6
		c1,0.867,1.933,1.533,2.8,2c-1.066,0-2.333-0.283-3.8-0.85c-1.333-0.533-2.633-1.7-3.9-3.5c-1.133-1.633-1.717-2.9-1.75-3.8
		c-0.034-0.767,0.267-1.1,0.9-1S11.733,51.367,12.1,52.3z"/>
</g>
<g>
	
		<linearGradient id="SVGID_2_" gradientUnits="userSpaceOnUse" x1="58.3848" y1="-1.9771" x2="102.3389" y2="-1.9771" gradientTransform="matrix(0.9522 0.3055 -0.3055 0.9522 -3.522038e-004 1.132786e-004)">
		<stop  offset="0" style="stop-color:#735B4D"/>
		<stop  offset="1" style="stop-color:#B89279"/>
	</linearGradient>
	<path style="fill-rule:evenodd;clip-rule:evenodd;fill:url(#SVGID_2_);" d="M95.35,31.65c-14.699-3-24.45-5.1-29.25-6.3l-11.7-3.1
		c-0.033-0.267-0.017-0.55,0.05-0.85c0.167-0.533,0.517-0.767,1.05-0.7l8.8,2.05c6.9,1.4,12.934,2.167,18.101,2.3
		c5.199,0.133,9.699-0.133,13.5-0.8c1.899-0.367,3.283-0.733,4.149-1.1L95.35,31.65z"/>
	
		<linearGradient id="SVGID_3_" gradientUnits="userSpaceOnUse" x1="59.1914" y1="10.5508" x2="111.623" y2="10.5508" gradientTransform="matrix(0.9524 0.305 -0.305 0.9524 1.853108e-004 -3.011227e-004)">
		<stop  offset="0" style="stop-color:#735B4D"/>
		<stop  offset="1" style="stop-color:#B89279"/>
	</linearGradient>
	<path style="fill-rule:evenodd;clip-rule:evenodd;fill:url(#SVGID_3_);" d="M89.7,42.15c-4.233-3.566-8.75-6.233-13.55-8
		c-4.8-1.767-9.917-3.35-15.351-4.75l-6.65-1.6c-0.133-0.333-0.233-0.683-0.3-1.05c-0.133-0.733,0.017-1.15,0.45-1.25L65.15,28
		c8.367,1.967,15.333,3.683,20.9,5.15S96.267,36.467,100,38.7c1.866,1.1,3.167,2.05,3.9,2.85l-9.351,5.4
		C93.417,45.517,91.8,43.917,89.7,42.15z"/>
</g>
<g>
	<path style="fill-rule:evenodd;clip-rule:evenodd;fill:#C96746;" d="M30.6,63.95l-0.7,6.75c-0.733,4.6-1.75,7.117-3.05,7.55
		c-1.967,0.667-3.934,0.4-5.9-0.8l-2.35-2c-0.434-0.7-0.8-1.65-1.1-2.85c-0.533-2.4-0.367-4.817,0.5-7.25
		c1.267-3.367,3.433-5.767,6.5-7.2L28.75,57l0.75,0.2c0.6,0.167,1.133,0.367,1.6,0.6c0.733,0.434,1.467,1.117,2.2,2.05L30.6,63.95z"
		/>
	<path style="fill-rule:evenodd;clip-rule:evenodd;fill:#8F4932;" d="M31.8,59.65c2.034-0.233,2.717,1.434,2.05,5
		c-0.6,3.167-1.95,6.717-4.05,10.65c-1.7,3.233-3.517,4.233-5.45,3c-1.934-1.267-2.733-3.966-2.4-8.1c0.267-3.2,1.65-5.833,4.15-7.9
		C28,60.733,29.9,59.85,31.8,59.65z"/>
	<path style="fill-rule:evenodd;clip-rule:evenodd;fill:#E09D7C;" d="M28.2,60.1c0.867-0.6,1.333-1.133,1.4-1.6
		c0.033-0.3-0.133-0.6-0.5-0.9l-0.55-0.35l0.9,0.3c0.333,0.133,1.033,0.6,2.1,1.4L31,59.05L28.2,60.1z"/>
	<path style="fill-rule:evenodd;clip-rule:evenodd;fill:#AB583C;" d="M18,71.7l0.65,1.35c0.5,1.034,0.934,1.784,1.3,2.25
		c0.6,0.733,1.533,1.534,2.8,2.4l-0.9-0.4c-1.7-0.767-2.667-1.517-2.9-2.25L18,71.7z"/>
</g>
<g>
	<path style="fill-rule:evenodd;clip-rule:evenodd;fill:#C36444;" d="M23.9,69.5c0.733-3.033,2.333-5.35,4.8-6.95l3.45-1.5l4.6,2.3
		c4.167,1.867,8.983,3.617,14.45,5.25c8.5,2.566,15.1,4.117,19.8,4.65l2,3.3c1.1,2.733,1.017,5.45-0.25,8.15
		c-1.4,3.033-2.983,5.1-4.75,6.2c-0.9,0.566-1.65,0.816-2.25,0.75l-4.1-2.301c-3.333-1.7-5.717-2.1-7.15-1.199
		c-0.867,0.533-1.2,1.866-1,4c0.1,1.066,0.283,2.066,0.55,3c-0.167,0.333-0.6,0.683-1.3,1.05c-1.433,0.733-3.533,1.2-6.3,1.399
		c-2.233,0.134-4.017-0.149-5.35-0.85l-1.3-1.1c-0.167-2.067-0.617-4.233-1.35-6.5c-1.534-4.601-3.784-7.467-6.75-8.601
		c-2.133-0.833-3.95-1.633-5.45-2.4l-1.6-0.95c-0.333-0.367-0.617-0.967-0.85-1.8C23.333,73.733,23.367,71.767,23.9,69.5z"/>
	<g>
		<path style="fill-rule:evenodd;clip-rule:evenodd;fill:#AB5333;" d="M54.5,88.15c-0.867,0.533-1.2,1.866-1,4
			c0.1,1.066,0.283,2.066,0.55,3L53.3,95.85c-0.8,0.567-1.933,1-3.4,1.301c0.833-0.967,1.167-2.417,1-4.351
			c-0.3-3.5-0.433-5.483-0.4-5.95c0.2-1.9,1.167-2.867,2.9-2.9c1.333-0.034,3.017,0,5.05,0.1c1.767-0.466,3.8-2.4,6.1-5.8
			c2.3-3.367,4.534-4.95,6.7-4.75c1.033,1.267,1.767,2.733,2.2,4.4l-0.25,5.75l-0.45,1.05c-1.4,3.033-2.983,5.1-4.75,6.2
			c-0.9,0.566-1.65,0.816-2.25,0.75l-4.1-2.301C58.317,87.65,55.933,87.25,54.5,88.15z"/>
		<path style="fill-rule:evenodd;clip-rule:evenodd;fill:#AB5333;" d="M39.8,95.65c-0.167-2.067-0.617-4.233-1.35-6.5
			c-1.534-4.601-3.784-7.467-6.75-8.601c-2.133-0.833-3.95-1.633-5.45-2.4l-1.6-0.95c-0.7-0.733-1.083-1.967-1.15-3.7
			c0.733,0.6,2.2,1.2,4.4,1.8c2.6,0.7,5.067,2.133,7.4,4.3c2.4,2.167,4.017,4.5,4.85,7c0.533,1.567,0.883,3.766,1.05,6.6
			c0.4,2.233,1.633,3.717,3.7,4.45c-1.7-0.067-3.05-0.417-4.05-1.051L39.8,95.65z"/>
	</g>
	<path style="fill-rule:evenodd;clip-rule:evenodd;fill:#E4AD84;" d="M28.75,65c0.3-0.167,0.65-0.35,1.05-0.55
		c0.8-0.434,1.434-0.733,1.9-0.9l1.15-0.35l6.55,2.9c5.167,2.1,9.75,3.6,13.75,4.5c6.367,1.433,10.05,2.35,11.05,2.75
		c-8.467-1.033-16.017-2.467-22.65-4.3c-4.133-1.167-7.5-2.183-10.1-3.05L28.75,65z"/>
</g>
<g>
	<path style="fill-rule:evenodd;clip-rule:evenodd;fill:#8F4932;" d="M70.2,76.3c1.267-1.167,2.767-1.983,4.5-2.45
		c0.866-0.267,1.6-0.4,2.2-0.4L78.8,76.1c1,2.5,0.816,5.6-0.55,9.3c-1.634,4.466-3.833,7.6-6.6,9.4s-4.617,1.283-5.55-1.55
		c-0.8-2.366-0.35-5.9,1.35-10.6L70.2,76.3z"/>
	<path style="fill-rule:evenodd;clip-rule:evenodd;fill:#C96746;" d="M73.6,72.7c1.133,0.066,2.233,0.316,3.3,0.75
		c-0.733,0.267-1.617,0.85-2.65,1.75c-2.067,1.8-3.9,4.316-5.5,7.55c-1.633,3.3-2.35,6.384-2.15,9.25c0.1,1.434,0.35,2.533,0.75,3.3
		c-0.833-0.566-1.684-1.2-2.55-1.899c-0.566-0.434-1.167-0.983-1.8-1.65l-0.8-0.85c-0.267-0.834-0.4-1.917-0.4-3.25
		c-0.033-2.633,0.583-5.117,1.85-7.45c1.267-2.333,2.767-4.267,4.5-5.8c0.867-0.8,1.6-1.35,2.2-1.65L73.6,72.7z"/>
	
		<linearGradient id="SVGID_4_" gradientUnits="userSpaceOnUse" x1="59.2271" y1="-89.793" x2="76.5115" y2="-89.793" gradientTransform="matrix(-0.2097 0.9778 -0.9778 -0.2097 6.533563e-004 -2.115965e-004)">
		<stop  offset="0" style="stop-color:#592E20"/>
		<stop  offset="1" style="stop-color:#A35339"/>
	</linearGradient>
	<path style="fill-rule:evenodd;clip-rule:evenodd;fill:url(#SVGID_4_);" d="M76.9,77.35c1.233,0.367,1.583,1.967,1.05,4.8
		c-0.434,2.267-1.15,4.35-2.15,6.25c-2.533,4.8-4.566,6.233-6.1,4.3c-1.3-1.7-0.9-4.817,1.2-9.35C73,78.783,75,76.783,76.9,77.35z"
		/>
	<path style="fill-rule:evenodd;clip-rule:evenodd;fill:#E09D7C;" d="M70.1,73.5c1.267-0.2,2.783-0.067,4.55,0.4l-3.6,0.3
		c-0.566,0.033-1.267,0.3-2.1,0.8c-0.434,0.267-0.8,0.533-1.1,0.8l0.4-0.6c0.167-0.233,0.533-0.583,1.1-1.05
		C69.617,73.917,69.867,73.7,70.1,73.5z"/>
	<path style="fill-rule:evenodd;clip-rule:evenodd;fill:#AB583C;" d="M62.7,87.5c0.233,1.066,0.617,1.95,1.15,2.65
		c0.533,0.733,1.033,0.983,1.5,0.75c0.233-0.134,0.417-0.334,0.55-0.601l-0.05,0.55c0,0.334,0.117,1.284,0.35,2.851l-0.75-0.5
		C63.883,91.967,63,91.1,62.8,90.6c-0.133-0.3-0.216-1.149-0.25-2.55L62.5,86.1L62.7,87.5z"/>
</g>
<g>
	
		<linearGradient id="SVGID_5_" gradientUnits="userSpaceOnUse" x1="102.2578" y1="33.0342" x2="135.1436" y2="33.0342" gradientTransform="matrix(0.8811 0.4729 -0.4729 0.8811 1.205802e-004 -7.551908e-005)">
		<stop  offset="0" style="stop-color:#4D3D34"/>
		<stop  offset="1" style="stop-color:#9E7D68"/>
	</linearGradient>
	<path style="fill-rule:evenodd;clip-rule:evenodd;fill:url(#SVGID_5_);" d="M100.85,95C90.217,91.167,83.2,88.517,79.8,87.05
		l-8.3-3.75c0.033-0.267,0.117-0.517,0.25-0.75c0.267-0.5,0.6-0.716,1-0.65l6.3,2.55c5,1.8,9.467,2.933,13.4,3.4
		c3.967,0.5,7.5,0.55,10.6,0.15c1.566-0.2,2.733-0.45,3.5-0.75L100.85,95z"/>
	
		<linearGradient id="SVGID_6_" gradientUnits="userSpaceOnUse" x1="98.6113" y1="55.623" x2="147.373" y2="55.623" gradientTransform="matrix(0.9177 0.3973 -0.3973 0.9177 -9.691715e-005 -1.847446e-004)">
		<stop  offset="0" style="stop-color:#4D3D34"/>
		<stop  offset="1" style="stop-color:#9E7D68"/>
	</linearGradient>
	<path style="fill-rule:evenodd;clip-rule:evenodd;fill:url(#SVGID_6_);" d="M69.75,87.75l9.9,3.25
		c7.566,2.533,13.866,4.733,18.899,6.6c5.033,1.867,9.15,4.017,12.351,6.45c1.6,1.233,2.699,2.267,3.3,3.101l-9.351,4.649
		c-0.899-1.5-2.233-3.2-4-5.1c-3.5-3.8-7.399-6.75-11.699-8.851c-4.267-2.066-8.851-4-13.75-5.8L69.35,90
		c-0.1-0.333-0.15-0.684-0.15-1.05C69.167,88.217,69.35,87.817,69.75,87.75z"/>
</g>
<g>
	<polygon style="fill-rule:evenodd;clip-rule:evenodd;fill:#9BD4BC;" points="140.8,4.7 132.65,82.4 151.6,88.4 146.55,94.5 
		98.25,97.7 82.65,84.55 94.6,78.8 107.4,79.8 94.85,35.95 80.65,0 94.8,1.55 113.25,18 127.45,8.45 129.6,5.4 	"/>
	<polygon style="fill-rule:evenodd;clip-rule:evenodd;fill:#70AD98;" points="126.75,8.9 127.45,8.45 129.6,5.4 142.35,1.9 
		132.65,82.4 132.9,82.45 122.65,88.75 117,66.6 	"/>
	<path style="fill-rule:evenodd;clip-rule:evenodd;fill:#5A9E85;" d="M129.6,5.4c-0.267,3.267-0.683,7.25-1.25,11.95
		c-0.333,2.933-1.25,15.55-2.75,37.85c-0.767,11.133-1.5,21.983-2.199,32.55l2.55,0.85c2.066,0.667,4.033,1.25,5.899,1.75
		c3.534,0.934,8.434,2.317,14.7,4.15c-2.366,3.134-5.166,6.3-8.399,9.5s-10.551,11.35-21.95,24.45
		c-1.867-1.9-5.351-6.267-10.45-13.101l-23.1-30.8l15.8,1.2L80.65,0l23.1,22.55L129.6,5.4z"/>
	<path style="fill-rule:evenodd;clip-rule:evenodd;fill:#4C8772;" d="M98.25,88.6c-1.033,0.2-2.05,0.45-3.05,0.75
		c-2.033,0.667-3.017,1.351-2.95,2.051c0.1,0.699,1.717,3.55,4.85,8.55c1.567,2.5,3.134,4.916,4.7,7.25L86.95,87.85L98.25,88.6z"/>
	<path style="fill-rule:evenodd;clip-rule:evenodd;fill:#4C8772;" d="M94.05,16.75c-0.934-0.667-1.883-1.267-2.85-1.8
		c-1.9-1.1-2.867-1.333-2.9-0.7c0,1-0.1,4.033-0.3,9.1l-4.35-17.5L94.05,16.75z"/>
	<path style="fill-rule:evenodd;clip-rule:evenodd;fill:#70AD98;" d="M126,15.45c-1.434,0.367-3.217,0.966-5.35,1.8
		c-4.334,1.667-8.334,3.633-12,5.9l4.75-3.55c3.433-2.533,5.85-4.267,7.25-5.2c2.267-1.467,4.333-3.017,6.199-4.65L126,15.45z"/>
	<path style="fill-rule:evenodd;clip-rule:evenodd;fill:#70AD98;" d="M141.6,96.75c-7.366,7.833-12.05,12.366-14.05,13.6
		c3.601-3.866,6.283-7.116,8.05-9.75c1.101-1.633,1.384-3.183,0.851-4.649l-1.15-1.7L141.6,96.75z"/>
</g>
<g>
	<path style="fill-rule:evenodd;clip-rule:evenodd;fill:#9CD6AC;" d="M113.8,23.8c0.566,0.3,1.417,1.167,2.55,2.6
		c0.733,0.934,2.051,2.5,3.95,4.7c1.334,1.767,1.467,2.783,0.4,3.05s-2.2-0.066-3.4-1l-1.5-1.5c-1.533,0.967-3.149,2.2-4.85,3.7
		c-1.134,1-2.15,1.316-3.05,0.95c-0.767-0.333-1.184-0.9-1.25-1.7c-0.034-0.5,1.25-1.517,3.85-3.05c1.267-0.8,2.55-1.533,3.85-2.2
		c-0.466-0.5-0.899-1.067-1.3-1.7c-0.767-1.267-1-2.283-0.7-3.05C112.684,23.733,113.167,23.467,113.8,23.8z"/>
	<path style="fill-rule:evenodd;clip-rule:evenodd;fill:#9CD6AC;" d="M115.6,42.15c1.301,0.9,2.467,0.717,3.5-0.55
		c1.034-1.267,0.534-2.333-1.5-3.2c-0.899-0.4-1.733-0.066-2.5,1C114.333,40.467,114.5,41.383,115.6,42.15z M119.15,45.3
		c-1.767,0.5-3.367,0.284-4.801-0.65c-1.5-0.967-2.199-2.333-2.1-4.1c0.066-1.767,0.816-3.15,2.25-4.15
		c1.366-0.967,2.75-1.117,4.15-0.45c2.6,1.267,3.816,3.05,3.649,5.35C122.1,43.467,121.05,44.8,119.15,45.3z"/>
	<path style="fill-rule:evenodd;clip-rule:evenodd;fill:#9CD6AC;" d="M114.55,55.6c0.434,1.133,0.667,2.433,0.7,3.9
		c0.066,1.6-0.167,2.433-0.7,2.5c-0.467,0.067-1.017-0.3-1.649-1.1l-0.851-1.2c-1.733,0.533-3.35,1.183-4.85,1.95L102.1,64.4
		l0.7,2.05c0.3,0.933-0.033,1.517-1,1.75c-0.967,0.233-1.7-0.284-2.2-1.55c-0.767-1.833-1.3-3.417-1.6-4.75
		c-0.366-1.667-0.25-2.517,0.35-2.55c0.834-0.067,1.634,0.35,2.4,1.25l2.2-0.8c1.467-0.533,4.217-1.6,8.25-3.2
		c-0.267-0.9-0.316-1.917-0.15-3.05c0.101-0.767,0.667-0.767,1.7,0C113.684,54.283,114.283,54.967,114.55,55.6z"/>
	<path style="fill-rule:evenodd;clip-rule:evenodd;fill:#9CD6AC;" d="M119.5,58.05c-1.7-0.033-2.55-1.083-2.55-3.15
		c-0.033-1.833,0.7-2.633,2.2-2.4c1.5,0.2,2.316,0.933,2.449,2.2C121.934,57,121.233,58.117,119.5,58.05z"/>
	<path style="fill-rule:evenodd;clip-rule:evenodd;fill:#9CD6AC;" d="M117.3,69.05c-0.033,0.934-0.916,2.383-2.649,4.35l-2.601,2.7
		l3.05,0.7c2.167,0.6,3.601,1.25,4.301,1.95c0.8,0.8,0.833,1.483,0.1,2.05c-0.7,0.567-1.6,0.684-2.7,0.35
		c-0.866-0.233-2.133-0.767-3.8-1.6l-2.2-1.2c-0.7,3.333-1.566,5.55-2.6,6.65c-0.934,0.967-1.634,1.517-2.101,1.65
		c-0.6,0.2-0.916-0.25-0.949-1.35c0-0.966,0.683-2.583,2.05-4.85c0.666-1.133,1.333-2.167,2-3.1c-1.533-0.133-3.3-0.75-5.3-1.85
		c-1.367-0.733-2.167-1.55-2.4-2.45c-0.167-0.667,0.017-1.283,0.55-1.85c0.4-0.367,1.8,0.133,4.2,1.5c1.2,0.7,2.366,1.433,3.5,2.2
		c0.366-0.9,0.816-1.9,1.35-3c1.067-2.133,1.983-3.633,2.75-4.5c0.867-0.967,1.684-1.233,2.45-0.8
		C117.033,67.033,117.366,67.85,117.3,69.05z"/>
</g>
</svg>
