<?xml version="1.0" encoding="iso-8859-1"?>
<!-- Generator: Adobe Illustrator 15.1.0, SVG Export Plug-In . SVG Version: 6.00 Build 0)  -->
<!DOCTYPE svg PUBLIC "-//W3C//DTD SVG 1.1//EN" "http://www.w3.org/Graphics/SVG/1.1/DTD/svg11.dtd">
<svg version="1.1" id="FlashAICB" xmlns="http://www.w3.org/2000/svg" xmlns:xlink="http://www.w3.org/1999/xlink" x="0px" y="0px"
	 width="215.95px" height="26.35px" viewBox="0 0 215.95 26.35" style="enable-background:new 0 0 215.95 26.35;"
	 xml:space="preserve">
<g>
	
		<radialGradient id="SVGID_1_" cx="211.0498" cy="11.0498" r="6.1125" gradientTransform="matrix(1 0 0 -0.3354 0 14.7557)" gradientUnits="userSpaceOnUse">
		<stop  offset="0" style="stop-color:#D3D3D4"/>
		<stop  offset="1" style="stop-color:#B7C0CA"/>
	</radialGradient>
	<path style="fill-rule:evenodd;clip-rule:evenodd;fill:url(#SVGID_1_);" d="M213.35,11.95c0.2,0.066,0.667,0.117,1.4,0.15
		c0.634,0.1,1.017,0.3,1.15,0.6c0.199,0.533-0.317,0.966-1.551,1.3c-1.366,0.267-2.166,0.434-2.399,0.5
		c-1.267,0.3-2.134,0.483-2.601,0.55c-1.133,0.167-2.033,0.117-2.699-0.149c-0.601-0.233-0.834-0.584-0.7-1.05
		c0.066-0.267,0.333-0.684,0.8-1.25c0.533-0.633,0.983-1.033,1.35-1.2c0.301-0.1,0.917-0.15,1.851-0.15h0.75
		C211.134,11.283,212.017,11.517,213.35,11.95z"/>
	
		<radialGradient id="SVGID_2_" cx="191.5996" cy="9.0498" r="6.725" gradientTransform="matrix(1 0 0 -0.3364 0 12.0944)" gradientUnits="userSpaceOnUse">
		<stop  offset="0" style="stop-color:#D3D3D4"/>
		<stop  offset="1" style="stop-color:#B7C0CA"/>
	</radialGradient>
	<path style="fill-rule:evenodd;clip-rule:evenodd;fill:url(#SVGID_2_);" d="M195.5,9.25c1.033,0.1,1.667,0.35,1.9,0.75
		c0.267,0.5,0.133,1.05-0.4,1.65c-0.467,0.533-0.967,0.883-1.5,1.05c-0.6,0.133-1.434,0.183-2.5,0.15
		c-1.167-0.067-2.017-0.1-2.55-0.1c-1.101,0.033-1.934,0.05-2.5,0.05c-1,0-1.834-0.033-2.5-0.1c-0.367-1.2,0.649-2.133,3.05-2.8
		c1.634-0.433,3.2-0.65,4.7-0.65h0.25C194.684,9.25,195.366,9.25,195.5,9.25z"/>
	
		<radialGradient id="SVGID_3_" cx="184.2002" cy="6.3501" r="3.325" gradientTransform="matrix(1 0 0 -0.3346 0 8.4748)" gradientUnits="userSpaceOnUse">
		<stop  offset="0" style="stop-color:#D3D3D4"/>
		<stop  offset="1" style="stop-color:#B7C0CA"/>
	</radialGradient>
	<path style="fill-rule:evenodd;clip-rule:evenodd;fill:url(#SVGID_3_);" d="M185.65,7.6c0.199,0.267,0.25,0.55,0.149,0.85
		l0.05,0.35c-0.199,0.1-0.566,0.15-1.1,0.15c-1.566,0.133-2.483,0.033-2.75-0.3c-0.233-0.233-0.25-0.6-0.05-1.1l0.1-0.1
		c0.367-0.067,0.917-0.1,1.65-0.1C184.6,7.35,185.25,7.433,185.65,7.6z"/>
	
		<radialGradient id="SVGID_4_" cx="189.25" cy="16.6504" r="11.1875" gradientTransform="matrix(1 0 0 -0.3363 0 22.2501)" gradientUnits="userSpaceOnUse">
		<stop  offset="0" style="stop-color:#D3D3D4"/>
		<stop  offset="1" style="stop-color:#B7C0CA"/>
	</radialGradient>
	<path style="fill-rule:evenodd;clip-rule:evenodd;fill:url(#SVGID_4_);" d="M195.55,21.25c-1.467,0.167-2.267,0.267-2.399,0.3
		c-1.334,0.434-2.351,0.733-3.051,0.9c-0.033,0-0.066,0.017-0.1,0.05c-1.134,0.267-2.15,0.35-3.05,0.25
		c-0.3-0.033-0.717-0.15-1.25-0.35c-0.733-0.267-1.167-0.417-1.3-0.45c-0.134-0.033-1-0.134-2.601-0.3
		c-0.6-0.034-1.083-0.084-1.45-0.15c-0.399-0.033-0.666-0.083-0.8-0.15c-0.767-0.267-0.95-0.767-0.55-1.5
		c0.033-0.066,0.066-0.133,0.1-0.199c0.267-0.367,0.884-0.733,1.851-1.101c0.533-0.2,1.217-0.416,2.05-0.649
		c1.767-0.567,3.066-0.884,3.9-0.95c1.166-0.066,2.933-0.05,5.3,0.05h2c0.6-0.134,1.666,0,3.2,0.4c0.3,0.066,0.666,0.116,1.1,0.149
		c0.333,0.066,0.566,0.3,0.7,0.7c0.1,0.267,0.083,0.6-0.05,1c-0.101,0.366-0.25,0.667-0.45,0.9c-0.5,0.533-1.384,0.866-2.65,1
		C195.884,21.184,195.717,21.217,195.55,21.25z"/>
	
		<radialGradient id="SVGID_5_" cx="193.25" cy="18.5996" r="4.9625" gradientTransform="matrix(1 0 0 -0.335 0 24.8307)" gradientUnits="userSpaceOnUse">
		<stop  offset="0" style="stop-color:#D3D3D4"/>
		<stop  offset="1" style="stop-color:#B7C0CA"/>
	</radialGradient>
	<path style="fill-rule:evenodd;clip-rule:evenodd;fill:url(#SVGID_5_);" d="M195.55,21.25c-0.033,0.066-0.066,0.134-0.1,0.2
		l-0.25,0.7V22.6c-0.434,0.067-0.983,0.101-1.65,0.101c-0.767-0.033-1.333-0.05-1.7-0.05c-1.033,0-1.649-0.017-1.85-0.051
		c0-0.033,0-0.066,0-0.1c0.033-0.033,0.066-0.05,0.1-0.05c0.7-0.167,1.717-0.467,3.051-0.9
		C193.283,21.517,194.083,21.417,195.55,21.25z"/>
	
		<radialGradient id="SVGID_6_" cx="178" cy="18" r="9.85" gradientTransform="matrix(1 0 0 -0.3363 0 24.0533)" gradientUnits="userSpaceOnUse">
		<stop  offset="0" style="stop-color:#D3D3D4"/>
		<stop  offset="1" style="stop-color:#B7C0CA"/>
	</radialGradient>
	<path style="fill-rule:evenodd;clip-rule:evenodd;fill:url(#SVGID_6_);" d="M180.35,21.5c-0.466,0-0.85,0.033-1.149,0.1
		c-0.634,0.101-2.25,0.233-4.851,0.4c0.233-0.233,0.267-0.45,0.101-0.65c-0.5-0.033-0.934-0.149-1.3-0.35
		c-0.233-0.167-0.417-0.267-0.551-0.3c-0.399-0.134-0.966-0.184-1.699-0.15c-0.834,0.066-1.417,0.101-1.75,0.101
		c-0.634,0.033-1.134,0.066-1.5,0.1c-0.7,0-1.2-0.083-1.5-0.25c0.899-0.167,2.1-0.233,3.6-0.2c1.934,0.033,3.15,0.033,3.65,0
		l4.1-0.35c0.2,0,0.583-0.017,1.15-0.05c0.133,0,0.25-0.017,0.35-0.051c-0.4,0.733-0.217,1.233,0.55,1.5
		C179.684,21.417,179.95,21.467,180.35,21.5z"/>
	
		<radialGradient id="SVGID_7_" cx="178.1504" cy="16.7002" r="1.775" gradientTransform="matrix(1 0 0 -0.338 0 22.3453)" gradientUnits="userSpaceOnUse">
		<stop  offset="0" style="stop-color:#D3D3D4"/>
		<stop  offset="1" style="stop-color:#B7C0CA"/>
	</radialGradient>
	<path style="fill-rule:evenodd;clip-rule:evenodd;fill:url(#SVGID_7_);" d="M179.35,17.15c0.034,0.166,0.017,0.383-0.05,0.649
		c-0.733,0.134-1.666,0.134-2.8,0c-0.033-0.1-0.017-0.25,0.05-0.45c0.3-0.066,1.184-0.133,2.65-0.199H179.35z"/>
	
		<radialGradient id="SVGID_8_" cx="158.0498" cy="1.3999" r="2.6125" gradientTransform="matrix(1 0 0 -0.3349 0 1.8688)" gradientUnits="userSpaceOnUse">
		<stop  offset="0" style="stop-color:#D3D3D4"/>
		<stop  offset="1" style="stop-color:#B7C0CA"/>
	</radialGradient>
	<path style="fill-rule:evenodd;clip-rule:evenodd;fill:url(#SVGID_8_);" d="M157.85,3.8c-0.466,0-0.683-0.133-0.649-0.4
		c0.133-0.433,0.233-0.8,0.3-1.1l1.2,1C158.7,3.633,158.417,3.8,157.85,3.8z"/>
	
		<radialGradient id="SVGID_9_" cx="147.9004" cy="1.2002" r="15.325" gradientTransform="matrix(1 0 0 -0.3361 0 1.6035)" gradientUnits="userSpaceOnUse">
		<stop  offset="0" style="stop-color:#D3D3D4"/>
		<stop  offset="1" style="stop-color:#B7C0CA"/>
	</radialGradient>
	<path style="fill-rule:evenodd;clip-rule:evenodd;fill:url(#SVGID_9_);" d="M154.55,5.2c0.367-0.333,0.4-0.717,0.101-1.15
		c-0.034-0.033-0.051-0.066-0.051-0.1c0.301-0.034,0.667-0.067,1.101-0.1c0.899-0.033,1.517,0.066,1.85,0.3l-0.1,0.3
		c0.3,0.033,1.033,0,2.2-0.1c1.1-0.067,1.733,0.083,1.899,0.45c-0.233,0.267-0.8,0.35-1.7,0.25c-0.966-0.167-1.583-0.25-1.85-0.25
		h-1c-0.233,0.067-0.35,0.184-0.35,0.35c-0.034,0.167-0.084,0.283-0.15,0.35c-0.267,0.167-0.616,0.183-1.05,0.05
		C155.083,5.383,154.783,5.267,154.55,5.2z M134.35,3.65c-1.433,0.833-2.083,1.633-1.949,2.4c-0.434,0.1-0.784,0.083-1.051-0.05
		c-0.166-0.067-0.35-0.217-0.55-0.45c-0.2-0.2-0.399-0.333-0.6-0.4c-0.101-0.033-0.334-0.033-0.7,0c-0.267,0-0.467-0.05-0.6-0.15
		c0.233-0.033,0.6-0.033,1.1,0c0.4-0.1,0.983-0.35,1.75-0.75C132.583,4.017,133.45,3.817,134.35,3.65z"/>
	
		<radialGradient id="SVGID_10_" cx="143.8496" cy="1" r="11.775" gradientTransform="matrix(1 0 0 -0.3355 0 1.3355)" gradientUnits="userSpaceOnUse">
		<stop  offset="0" style="stop-color:#D3D3D4"/>
		<stop  offset="1" style="stop-color:#B7C0CA"/>
	</radialGradient>
	<path style="fill-rule:evenodd;clip-rule:evenodd;fill:url(#SVGID_10_);" d="M132.4,6.05c-0.134-0.767,0.517-1.566,1.949-2.4
		c0.034,0,0.067-0.017,0.101-0.05c0.934-0.5,2.066-0.967,3.399-1.4c0.067,0,0.917-0.434,2.551-1.3c1.066-0.566,2-0.7,2.8-0.4l2,0.25
		c0.733,0.167,1.833,0.467,3.3,0.9c0.4,0.1,0.866,0.3,1.4,0.6c0.3,0.167,0.733,0.433,1.3,0.8c0.166,0.1,0.783,0.217,1.85,0.35
		c0.767,0.133,1.283,0.317,1.55,0.55c0,0.033,0.017,0.066,0.051,0.1c0.3,0.434,0.267,0.817-0.101,1.15c-0.133,0.1-0.3,0.2-0.5,0.3
		c-0.6,0.3-1.2,0.45-1.8,0.45c-1.8,0-3.167,0-4.1,0c-1.634,0-2.967,0.117-4,0.35c-1.534,0.333-3.467,0.467-5.801,0.4
		c-0.933-0.034-2.899-0.2-5.899-0.5C132.417,6.133,132.4,6.083,132.4,6.05z"/>
	
		<radialGradient id="SVGID_11_" cx="143.5" cy="8.6499" r="2.8125" gradientTransform="matrix(1 0 0 -0.3378 0 11.5716)" gradientUnits="userSpaceOnUse">
		<stop  offset="0" style="stop-color:#D3D3D4"/>
		<stop  offset="1" style="stop-color:#B7C0CA"/>
	</radialGradient>
	<path style="fill-rule:evenodd;clip-rule:evenodd;fill:url(#SVGID_11_);" d="M144.2,8.5l1.5,0.75c0.233,0.933-0.533,1.383-2.3,1.35
		c-1.7-0.033-2.434-0.717-2.2-2.05C141.6,8.45,142.6,8.433,144.2,8.5z"/>
	
		<radialGradient id="SVGID_12_" cx="149.4502" cy="12.6001" r="2.9375" gradientTransform="matrix(1 0 0 -0.3362 0 16.8359)" gradientUnits="userSpaceOnUse">
		<stop  offset="0" style="stop-color:#D3D3D4"/>
		<stop  offset="1" style="stop-color:#B7C0CA"/>
	</radialGradient>
	<path style="fill-rule:evenodd;clip-rule:evenodd;fill:url(#SVGID_12_);" d="M149.7,14.75c-1.4,0-2.233-0.017-2.5-0.05
		c-0.267-0.833,0.184-1.4,1.35-1.7c0.834-0.233,1.717-0.317,2.65-0.25l0.5,0.5c-0.033,0.767-0.184,1.217-0.45,1.35
		C151.15,14.667,150.634,14.717,149.7,14.75z"/>
	
		<radialGradient id="SVGID_13_" cx="142.2998" cy="16.9502" r="12.4125" gradientTransform="matrix(1 0 0 -0.3364 0 22.6515)" gradientUnits="userSpaceOnUse">
		<stop  offset="0" style="stop-color:#D3D3D4"/>
		<stop  offset="1" style="stop-color:#B7C0CA"/>
	</radialGradient>
	<path style="fill-rule:evenodd;clip-rule:evenodd;fill:url(#SVGID_13_);" d="M142.4,17.75c0.466-0.033,1.149-0.033,2.05,0l1-0.5
		h4.5c2.166,0.1,3.517,0.566,4.05,1.4c0.8,1.267,0.2,2.05-1.8,2.35c-1.5,0.233-2.851,0.5-4.05,0.8
		c-0.601,0.167-1.417,0.217-2.45,0.15c-0.566-0.033-1.417-0.134-2.55-0.3c-0.534-0.067-1.267-0.233-2.2-0.5
		c-1.066-0.334-1.816-0.534-2.25-0.601c-0.4-0.066-0.983-0.25-1.75-0.55c-0.733-0.3-1.334-0.483-1.8-0.55
		c-0.267-0.033-1.184,0.017-2.75,0.149c-1.267,0.134-2.15,0.034-2.65-0.3c0.6-0.133,1.5-0.267,2.7-0.399
		c1.5-0.334,3.166-0.467,5-0.4c0.233,0,0.616,0.017,1.149,0.05c0.467,0.033,0.834,0.017,1.101-0.05
		c0.233-0.066,0.483-0.217,0.75-0.45C141.017,17.85,141.667,17.75,142.4,17.75z"/>
	
		<radialGradient id="SVGID_14_" cx="159.2998" cy="13.75" r="2.325" gradientTransform="matrix(1 0 0 -0.3333 0 18.3333)" gradientUnits="userSpaceOnUse">
		<stop  offset="0" style="stop-color:#D3D3D4"/>
		<stop  offset="1" style="stop-color:#B7C0CA"/>
	</radialGradient>
	<path style="fill-rule:evenodd;clip-rule:evenodd;fill:url(#SVGID_14_);" d="M160.3,15.6c-0.967,0.134-1.783,0.134-2.45,0
		c-0.066-0.267,0.051-0.466,0.351-0.6l2.149-0.5C160.35,15.134,160.333,15.5,160.3,15.6z"/>
	
		<radialGradient id="SVGID_15_" cx="130.0996" cy="1.2002" r="1.875" gradientTransform="matrix(1 0 0 -0.3333 0 1.6003)" gradientUnits="userSpaceOnUse">
		<stop  offset="0" style="stop-color:#D3D3D4"/>
		<stop  offset="1" style="stop-color:#B7C0CA"/>
	</radialGradient>
	<path style="fill-rule:evenodd;clip-rule:evenodd;fill:url(#SVGID_15_);" d="M129.35,2.6c0.034-0.467,0.034-0.733,0-0.8h1.15
		c0.333,0.567,0.184,0.9-0.45,1C129.55,2.933,129.316,2.867,129.35,2.6z"/>
	
		<radialGradient id="SVGID_16_" cx="127.5498" cy="1.4502" r="1.7125" gradientTransform="matrix(1 0 0 -0.3358 0 1.9371)" gradientUnits="userSpaceOnUse">
		<stop  offset="0" style="stop-color:#D3D3D4"/>
		<stop  offset="1" style="stop-color:#B7C0CA"/>
	</radialGradient>
	<path style="fill-rule:evenodd;clip-rule:evenodd;fill:url(#SVGID_16_);" d="M127.5,2c0.3-0.033,0.583-0.033,0.85,0l-0.05,0.8
		c-1.467,0.233-2.05-0.033-1.75-0.8H127.5z"/>
	
		<radialGradient id="SVGID_17_" cx="116.2998" cy="-0.2002" r="18.2125" gradientTransform="matrix(1 0 0 -0.3356 0 -0.2674)" gradientUnits="userSpaceOnUse">
		<stop  offset="0" style="stop-color:#D3D3D4"/>
		<stop  offset="1" style="stop-color:#B7C0CA"/>
	</radialGradient>
	<path style="fill-rule:evenodd;clip-rule:evenodd;fill:url(#SVGID_17_);" d="M123.1,4.65c0.034-0.033,0.067-0.066,0.101-0.1V4.5
		c0.033-0.033,0.05-0.067,0.05-0.1c0.767-0.066,1.45-0.1,2.05-0.1c1.867,0,3.05,0.067,3.55,0.2c-0.033,0.033-0.3,0.083-0.8,0.15
		c-0.633,0.067-1.416,0.083-2.35,0.05c-1.033-0.034-1.816-0.05-2.351-0.05C123.25,4.65,123.167,4.65,123.1,4.65z M107,11.4
		c0.333-0.1,0.733-0.167,1.2-0.2c0.333,0,0.85,0,1.55,0c0.634,0,1.6-0.083,2.9-0.25c0.1-0.833,0.116-1.5,0.05-2
		C113.033,8.983,113.467,9,114,9c0.7,0,1.767-0.067,3.2-0.2c0.666,0,1.684-0.017,3.05-0.05c1.2,0,2.2,0.033,3,0.1
		c-0.333,0.233-0.95,0.383-1.85,0.45c-0.967,0.034-1.634,0.067-2,0.1c-1.134,0.067-1.9,0.184-2.301,0.35
		c0.233,0.2,0.317,0.55,0.25,1.05c-1,0.2-2.583,0.367-4.75,0.5c-2.1,0.1-3.683,0.267-4.75,0.5L107,11.4z M116.6,5.4
		c-0.267,0.067-0.533,0.117-0.8,0.15c-0.866,0.167-1.399,0.267-1.6,0.3c-1.2,0.233-1.917,0.4-2.15,0.5
		c-0.633,0.2-1.116,0.483-1.45,0.85c-0.333-0.233-0.699-0.55-1.1-0.95c0.3-0.467,1.017-0.683,2.15-0.65
		c0.633,0.033,1.466,0.066,2.5,0.1C114.65,5.633,115.467,5.533,116.6,5.4z"/>
	<path style="fill-rule:evenodd;clip-rule:evenodd;fill:#ACB6C1;" d="M123.1,4.65c-0.267,0.2-0.866,0.333-1.8,0.4
		c-1.233,0.067-1.967,0.1-2.2,0.1c-0.966,0.1-1.8,0.184-2.5,0.25c-1.133,0.133-1.949,0.233-2.449,0.3
		c-1.034-0.034-1.867-0.067-2.5-0.1c-1.134-0.033-1.851,0.183-2.15,0.65c0.4,0.4,0.767,0.717,1.1,0.95
		c0.134,0.1,0.267,0.183,0.4,0.25c0.066,0.033,0.3,0.1,0.7,0.2c0.267,0.067,0.483,0.2,0.649,0.4c0.167,0.2,0.284,0.5,0.351,0.9
		c0.066,0.5,0.05,1.167-0.05,2c-1.301,0.167-2.267,0.25-2.9,0.25c-0.7,0-1.217,0-1.55,0c-0.467,0.033-0.867,0.1-1.2,0.2
		c-0.1,0-0.2,0.017-0.3,0.05c-0.333,0.133-0.8,0.4-1.4,0.8c-0.6,0.4-1.083,0.667-1.45,0.8c-1.133,0.4-2.35,0.55-3.65,0.45
		c-0.934-0.1-2.767-0.433-5.5-1c-0.133-0.033-0.267-0.067-0.4-0.1L91.95,12c-0.242-0.048-0.476-0.082-0.7-0.1
		c-0.179-0.016-0.354-0.033-0.525-0.05c-0.231-0.033-0.457-0.05-0.675-0.05l-0.7-0.05c-0.033,0-0.067,0-0.1,0s-0.067,0-0.1,0
		c-1.367,0-2.4-0.017-3.1-0.05c-0.167,0-0.316,0-0.45,0c-1-0.067-1.867-0.15-2.6-0.25c-0.6-0.1-1.483-0.4-2.65-0.9
		c-1.133-0.466-2.017-0.75-2.65-0.85c-0.267-0.034-0.817-0.034-1.65,0c0.7,0.5,1.3,1.133,1.8,1.9c0.033,0.066,0.083,0.133,0.15,0.2
		c0.5,0.867,0.55,1.583,0.15,2.15c-0.066-0.067-0.15-0.117-0.25-0.15c-0.6-0.333-1.083-0.333-1.45,0
		c-0.6,0.533-0.817,0.983-0.65,1.351c-0.9,0.166-2.867,0.283-5.9,0.35H69c-0.167,0-0.333,0-0.5,0l-2.8-0.35h-0.1
		c-0.067-0.034-0.117-0.051-0.15-0.051h-0.1c-0.067-0.033-0.117-0.05-0.15-0.05c-0.267-0.066-0.867-0.283-1.8-0.649
		c-0.667-0.233-1.283-0.367-1.85-0.4c-0.966-0.033-1.733-0.133-2.3-0.3c0.367-0.1,1.25-0.184,2.65-0.25c0.333,0,0.767,0.1,1.3,0.3
		c0.633,0.167,1.417,0.25,2.35,0.25c0.833-0.033,1.917-0.267,3.25-0.7c0.767-0.233,1.217-0.383,1.35-0.45
		c0.333-0.233,0.55-0.6,0.65-1.1c0.034-0.467,0.067-0.8,0.1-1c0.067-0.333,0.217-0.6,0.45-0.8c0.7-0.7,1.816-1.05,3.35-1.05
		c-0.333-0.167-0.7-0.3-1.1-0.4c-1-0.3-2.017-0.3-3.05,0c-0.3,0.067-1.133,0.4-2.5,1c-0.566-0.033-1.167-0.15-1.8-0.35
		c-0.767-0.267-1.367-0.483-1.8-0.65c-0.4-0.167-0.95-0.25-1.65-0.25c-0.033,0-0.066,0-0.1,0h-1.3c-0.133-0.033-0.233-0.05-0.3-0.05
		c0.833-0.034,1.967-0.217,3.4-0.55c1.567-0.4,2.7-0.633,3.4-0.7c2.767-0.267,4.35-0.383,4.75-0.35c0.633,0.033,1.467,0.15,2.5,0.35
		c1.167,0.233,2,0.367,2.5,0.4c3.434,0.367,6.567,0.467,9.4,0.3c1.6-0.133,3.967-0.383,7.1-0.75l2.05-0.15
		c0.733-0.1,1.3-0.283,1.7-0.55c0.4-0.3,0.767-0.75,1.1-1.35c1.267-2.133,3.017-3.35,5.25-3.65c0.133,0,0.467-0.067,1-0.2
		c0.4-0.1,0.75-0.15,1.05-0.15h1.2l0.25,0.1c0.233,0.066,0.483,0.15,0.75,0.25c0.566,0.233,1.417,0.617,2.55,1.15
		c1.033,0.433,1.917,0.633,2.65,0.6c1.2,0,3.483,0.15,6.85,0.45c0.2,0.033,0.783,0.05,1.75,0.05c0.8,0.1,1.117,0.417,0.95,0.95
		c0,0.033-0.017,0.067-0.05,0.1v0.05C123.167,4.583,123.134,4.617,123.1,4.65z M117.9,19.4l0.199,0.149
		c0.134,0.066,0.25,0.134,0.351,0.2c0.233,0.134,0.783,0.45,1.649,0.95c0.767,0.467,1.2,0.883,1.301,1.25
		c0.199,0.7-0.15,1.3-1.051,1.8c-1.066,0.467-1.767,0.767-2.1,0.9c-1.6,0.733-3.6,1.133-6,1.199c-2.767-0.066-4.833-0.1-6.2-0.1
		l-5.9-0.05c-1.1,0.033-1.767,0.05-2,0.05H98.1l-0.925-0.1c-0.367-0.084-0.675-0.2-0.925-0.351h0.25
		c0.333-0.033,0.867-0.133,1.6-0.3c0.7-0.167,1.233-0.267,1.6-0.3c0.533-0.033,1.483,0,2.85,0.1c1.2,0,2.034-0.3,2.5-0.899
		c0.934-1.134,1.684-1.934,2.25-2.4c0.4-0.366,0.8-0.583,1.2-0.65c1.366-0.366,3.116-0.699,5.25-1
		C114.65,19.684,116.033,19.533,117.9,19.4z"/>
	
		<radialGradient id="SVGID_18_" cx="122.5" cy="12.2998" r="3.525" gradientTransform="matrix(1 0 0 -0.3369 0 16.4434)" gradientUnits="userSpaceOnUse">
		<stop  offset="0" style="stop-color:#D3D3D4"/>
		<stop  offset="1" style="stop-color:#B7C0CA"/>
	</radialGradient>
	<path style="fill-rule:evenodd;clip-rule:evenodd;fill:url(#SVGID_18_);" d="M124.7,13c0,0.267-0.017,0.633-0.05,1.1
		c-0.034,0.434-0.2,0.75-0.5,0.95c-0.434,0.3-1.334,0.351-2.7,0.15c-0.533-0.033-0.851-0.084-0.95-0.15
		c-0.233-0.133-0.316-0.434-0.25-0.899c0.1-0.8,0.517-1.317,1.25-1.55c0.4-0.1,1.134-0.133,2.2-0.1L124.7,13z"/>
	
		<radialGradient id="SVGID_19_" cx="92.7998" cy="1.5" r="31.2625" gradientTransform="matrix(1 0 0 -0.3359 0 2.0038)" gradientUnits="userSpaceOnUse">
		<stop  offset="0" style="stop-color:#D3D3D4"/>
		<stop  offset="1" style="stop-color:#B7C0CA"/>
	</radialGradient>
	<path style="fill-rule:evenodd;clip-rule:evenodd;fill:url(#SVGID_19_);" d="M61.4,8.25c-0.2-0.033-0.35-0.05-0.45-0.05
		c0.033-0.3,0.267-0.583,0.7-0.85c0.434-0.267,1.083-0.5,1.95-0.7c1.066-0.233,2.15-0.383,3.25-0.45c0.367,0,0.85,0,1.45,0
		c0.534,0,1-0.067,1.4-0.2c0.5-0.167,1.267-0.533,2.3-1.1c0.9-0.4,2.3-0.667,4.2-0.8c1.867-0.167,3.25-0.45,4.15-0.85
		C83.383,1.85,86,0.967,88.2,0.6c2.5-0.467,5.25-0.667,8.25-0.6h4.75c2.3,0,4.4,0.283,6.3,0.85h-1.2c-0.3,0-0.65,0.05-1.05,0.15
		c-0.533,0.133-0.867,0.2-1,0.2c-2.233,0.3-3.983,1.517-5.25,3.65c-0.333,0.6-0.7,1.05-1.1,1.35c-0.4,0.267-0.967,0.45-1.7,0.55
		L94.15,6.9c-3.133,0.367-5.5,0.617-7.1,0.75c-2.833,0.167-5.966,0.067-9.4-0.3c-0.5-0.033-1.333-0.167-2.5-0.4
		c-1.033-0.2-1.867-0.317-2.5-0.35c-0.4-0.033-1.983,0.083-4.75,0.35c-0.7,0.066-1.833,0.3-3.4,0.7
		c-1.433,0.333-2.567,0.517-3.4,0.55C61.167,8.2,61.267,8.217,61.4,8.25z M91.25,11.9c-0.084,0-0.168,0-0.25,0
		c-0.09-0.018-0.182-0.035-0.275-0.05C90.896,11.867,91.071,11.884,91.25,11.9z"/>
	
		<radialGradient id="SVGID_20_" cx="108.7002" cy="18" r="14.275" gradientTransform="matrix(1 0 0 -0.3363 0 24.0525)" gradientUnits="userSpaceOnUse">
		<stop  offset="0" style="stop-color:#D3D3D4"/>
		<stop  offset="1" style="stop-color:#B7C0CA"/>
	</radialGradient>
	<path style="fill-rule:evenodd;clip-rule:evenodd;fill:url(#SVGID_20_);" d="M97.175,25.65c-0.402-0.081-0.744-0.197-1.025-0.351
		c-0.7-0.434-0.933-1.017-0.7-1.75c0.233-0.7,0.75-1.25,1.55-1.649c0.267-0.134,0.933-0.351,2-0.65c0.8-0.233,1.417-0.517,1.85-0.85
		c0.133-0.101,0.3-0.301,0.5-0.601c0.2-0.267,0.4-0.45,0.6-0.55c0.9-0.5,2.4-0.75,4.5-0.75h1.5c1.066,0,2.866-0.033,5.399-0.1
		c1.9,0.1,3.417,0.433,4.551,1c-1.867,0.133-3.25,0.283-4.15,0.449c-2.134,0.301-3.884,0.634-5.25,1c-0.4,0.067-0.8,0.284-1.2,0.65
		c-0.566,0.467-1.316,1.267-2.25,2.4c-0.466,0.6-1.3,0.899-2.5,0.899c-1.367-0.1-2.316-0.133-2.85-0.1
		c-0.367,0.033-0.9,0.133-1.6,0.3c-0.733,0.167-1.267,0.267-1.6,0.3h-0.25C96.5,25.45,96.808,25.566,97.175,25.65z"/>
	
		<radialGradient id="SVGID_21_" cx="88.7002" cy="7.7012" r="6.399" gradientTransform="matrix(1 0 0 -0.3359 0 10.2883)" gradientUnits="userSpaceOnUse">
		<stop  offset="0" style="stop-color:#D3D3D4"/>
		<stop  offset="1" style="stop-color:#B7C0CA"/>
	</radialGradient>
	<path style="fill-rule:evenodd;clip-rule:evenodd;fill:url(#SVGID_21_);" d="M91,11.9l-0.3,0.9c-0.467,0.233-0.733,0.367-0.8,0.4
		c-0.2,0.066-0.483,0.1-0.85,0.1c-1.2,0-1.833,0-1.9,0c-0.867-0.066-1.4-0.283-1.6-0.65c-0.167-0.3-0.15-0.617,0.05-0.95
		c0.133,0,0.283,0,0.45,0c0.7,0.033,1.733,0.05,3.1,0.05c0.033,0,0.067,0,0.1,0s0.067,0,0.1,0l0.7,0.05
		c0.219,0,0.444,0.017,0.675,0.05C90.818,11.865,90.91,11.882,91,11.9z"/>
	
		<radialGradient id="SVGID_22_" cx="81.7998" cy="12.75" r="2.1625" gradientTransform="matrix(1 0 0 -0.3353 0 17.0246)" gradientUnits="userSpaceOnUse">
		<stop  offset="0" style="stop-color:#D3D3D4"/>
		<stop  offset="1" style="stop-color:#B7C0CA"/>
	</radialGradient>
	<path style="fill-rule:evenodd;clip-rule:evenodd;fill:url(#SVGID_22_);" d="M82.5,13.65c0.067,0.333-0.017,0.617-0.25,0.85
		c-0.233,0.2-0.533,0.25-0.9,0.15c-0.533-0.134-0.667-0.367-0.4-0.7c0.267-0.333,0.617-0.483,1.05-0.45L82.5,13.65z"/>
	
		<radialGradient id="SVGID_23_" cx="88" cy="19.0498" r="5.0875" gradientTransform="matrix(1 0 0 -0.3366 0 25.4621)" gradientUnits="userSpaceOnUse">
		<stop  offset="0" style="stop-color:#D3D3D4"/>
		<stop  offset="1" style="stop-color:#B7C0CA"/>
	</radialGradient>
	<path style="fill-rule:evenodd;clip-rule:evenodd;fill:url(#SVGID_23_);" d="M84.4,22.3c-1-0.633-0.717-1.316,0.85-2.05
		c1.333-0.634,2.483-0.967,3.45-1l2,0.25c1.367,0.533,1.617,1.217,0.75,2.05c-0.567,0.533-1.65,0.834-3.25,0.9
		C86.233,22.684,84.967,22.634,84.4,22.3z"/>
	
		<radialGradient id="SVGID_24_" cx="93.25" cy="12.6001" r="2.5" gradientTransform="matrix(1 0 0 -0.335 0 16.8211)" gradientUnits="userSpaceOnUse">
		<stop  offset="0" style="stop-color:#D3D3D4"/>
		<stop  offset="1" style="stop-color:#B7C0CA"/>
	</radialGradient>
	<path style="fill-rule:evenodd;clip-rule:evenodd;fill:url(#SVGID_24_);" d="M93.85,13.5c0,0.533-0.05,0.9-0.15,1.1
		c-0.167,0.367-0.483,0.434-0.95,0.2c-0.467-0.2-0.483-0.45-0.05-0.75C92.767,14.017,93.15,13.833,93.85,13.5z"/>
	
		<radialGradient id="SVGID_25_" cx="68.75" cy="9.0498" r="11.0625" gradientTransform="matrix(1 0 0 -0.3356 0 12.0869)" gradientUnits="userSpaceOnUse">
		<stop  offset="0" style="stop-color:#D3D3D4"/>
		<stop  offset="1" style="stop-color:#B7C0CA"/>
	</radialGradient>
	<path style="fill-rule:evenodd;clip-rule:evenodd;fill:url(#SVGID_25_);" d="M59.25,13.7c-0.233-0.067-0.433-0.133-0.6-0.2
		c0-0.021,0.008-0.038,0.025-0.05H58.7c0.1-0.567,0.767-1.2,2-1.9c1.167-0.633,2.1-1,2.8-1.1c0.267-0.034,0.517-0.05,0.75-0.05
		c1.6-0.2,2.75-0.45,3.45-0.75c0.133-0.066,0.25-0.117,0.35-0.15c1.367-0.6,2.2-0.933,2.5-1c1.034-0.3,2.05-0.3,3.05,0
		c0.4,0.1,0.767,0.233,1.1,0.4c-1.534,0-2.65,0.35-3.35,1.05c-0.233,0.2-0.383,0.466-0.45,0.8c-0.033,0.2-0.066,0.533-0.1,1
		c-0.1,0.5-0.316,0.867-0.65,1.1c-0.133,0.066-0.583,0.217-1.35,0.45c-1.333,0.434-2.417,0.667-3.25,0.7
		c-0.933,0-1.716-0.083-2.35-0.25c-0.534-0.2-0.967-0.3-1.3-0.3C60.5,13.517,59.617,13.6,59.25,13.7z"/>
	
		<radialGradient id="SVGID_26_" cx="63.2998" cy="5.4502" r="9.0375" gradientTransform="matrix(1 0 0 -0.3361 0 7.282)" gradientUnits="userSpaceOnUse">
		<stop  offset="0" style="stop-color:#D3D3D4"/>
		<stop  offset="1" style="stop-color:#B7C0CA"/>
	</radialGradient>
	<path style="fill-rule:evenodd;clip-rule:evenodd;fill:url(#SVGID_26_);" d="M53.75,9.2c1.733-0.7,3.183-1.05,4.35-1.05
		c0.767,0,1.367-0.117,1.8-0.35c0.4-0.2,0.983-0.35,1.75-0.45c-0.433,0.267-0.667,0.55-0.7,0.85c0.1,0,0.25,0.017,0.45,0.05h1.3
		c0.033,0,0.066,0,0.1,0c0.7,0,1.25,0.083,1.65,0.25c0.433,0.167,1.033,0.383,1.8,0.65c0.633,0.2,1.233,0.317,1.8,0.35
		c-0.1,0.033-0.216,0.083-0.35,0.15c-0.7,0.3-1.85,0.55-3.45,0.75c-0.4-0.1-0.65-0.233-0.75-0.4c0.1-0.233,0.167-0.35,0.2-0.35
		c-0.367-0.4-0.867-0.533-1.5-0.4c-0.7,0.233-1.217,0.367-1.55,0.4c-0.367,0.033-1.133-0.033-2.3-0.2c-0.4-0.034-1.2-0.05-2.4-0.05
		c-0.7,0-1.284-0.017-1.75-0.05c-0.034-0.033-0.05-0.067-0.05-0.1C53.983,9.217,53.85,9.2,53.75,9.2z"/>
	
		<radialGradient id="SVGID_27_" cx="64.9502" cy="10.6001" r="10.5" gradientTransform="matrix(1 0 0 -0.3357 0 14.1587)" gradientUnits="userSpaceOnUse">
		<stop  offset="0" style="stop-color:#D3D3D4"/>
		<stop  offset="1" style="stop-color:#B7C0CA"/>
	</radialGradient>
	<path style="fill-rule:evenodd;clip-rule:evenodd;fill:url(#SVGID_27_);" d="M58.675,13.45c-0.017,0.012-0.025,0.029-0.025,0.05
		c0.167,0.067,0.367,0.133,0.6,0.2c0.567,0.167,1.333,0.267,2.3,0.3c0.567,0.033,1.184,0.167,1.85,0.4
		c0.934,0.366,1.533,0.583,1.8,0.649c0.033,0,0.083,0.017,0.15,0.05h0.1c0.033,0,0.083,0.017,0.15,0.051h0.1l2.8,0.35
		c0.167,0,0.333,0,0.5,0c0,0.333,0.15,0.65,0.45,0.95C69.083,16.517,68.6,16.5,68,16.4c-0.733-0.167-1.233-0.25-1.5-0.25
		c-0.667,0.066-1.217,0.1-1.65,0.1c-0.8,0.033-1.3-0.05-1.5-0.25c0.133-0.033,0.316-0.1,0.55-0.2c0.133-0.1,0.167-0.25,0.1-0.45
		c-0.667,0.067-1.133,0.067-1.4,0c-0.3-0.1-0.467-0.233-0.5-0.399c-0.033-0.267-0.083-0.434-0.15-0.5c-0.367-0.3-1.034-0.45-2-0.45
		c-0.1,0-0.2,0.017-0.3,0.05c-0.167-0.133-0.316-0.216-0.45-0.25c-0.467-0.1-0.867,0.017-1.2,0.351c-0.033,0-0.067,0-0.1,0h-2.2
		l-0.05-0.101c0.567-0.066,1.133-0.167,1.7-0.3C57.383,13.75,57.825,13.65,58.675,13.45z"/>
	
		<radialGradient id="SVGID_28_" cx="77.5" cy="13.8501" r="2.7875" gradientTransform="matrix(1 0 0 -0.3363 0 18.5082)" gradientUnits="userSpaceOnUse">
		<stop  offset="0" style="stop-color:#D3D3D4"/>
		<stop  offset="1" style="stop-color:#B7C0CA"/>
	</radialGradient>
	<path style="fill-rule:evenodd;clip-rule:evenodd;fill:url(#SVGID_28_);" d="M78.15,13.95c0.4,0.267,0.717,0.6,0.95,1
		c0.733,1.434-0.1,1.717-2.5,0.85l-0.4-0.2c-0.233-0.133-0.367-0.283-0.4-0.449c-0.167-0.367,0.05-0.817,0.65-1.351
		c0.367-0.333,0.85-0.333,1.45,0C78,13.833,78.083,13.883,78.15,13.95z"/>
	
		<radialGradient id="SVGID_29_" cx="54.3501" cy="5.2998" r="1.5125" gradientTransform="matrix(1 0 0 -0.3388 0 7.0956)" gradientUnits="userSpaceOnUse">
		<stop  offset="0" style="stop-color:#D3D3D4"/>
		<stop  offset="1" style="stop-color:#B7C0CA"/>
	</radialGradient>
	<path style="fill-rule:evenodd;clip-rule:evenodd;fill:url(#SVGID_29_);" d="M53.85,5.8h0.85c0.2,0.2,0.233,0.483,0.1,0.85
		c-0.333,0.067-0.633,0.033-0.9-0.1C53.567,6.383,53.55,6.133,53.85,5.8z"/>
	
		<radialGradient id="SVGID_30_" cx="53.7002" cy="5.9502" r="2.65" gradientTransform="matrix(1 0 0 -0.3349 0 7.9429)" gradientUnits="userSpaceOnUse">
		<stop  offset="0" style="stop-color:#D3D3D4"/>
		<stop  offset="1" style="stop-color:#B7C0CA"/>
	</radialGradient>
	<path style="fill-rule:evenodd;clip-rule:evenodd;fill:url(#SVGID_30_);" d="M54.45,7.45c0.033,0.066,0.1,0.083,0.2,0.05
		c0.2,0.533-0.05,0.783-0.75,0.75c-0.033,0-0.55-0.1-1.55-0.3c-0.133-0.4,0-0.684,0.4-0.85c0.033-0.033,0.4-0.133,1.1-0.3l0.5,0.5
		L54.45,7.45z"/>
	
		<radialGradient id="SVGID_31_" cx="42.1499" cy="7.6499" r="12.6125" gradientTransform="matrix(1 0 0 -0.336 0 10.2201)" gradientUnits="userSpaceOnUse">
		<stop  offset="0" style="stop-color:#D3D3D4"/>
		<stop  offset="1" style="stop-color:#B7C0CA"/>
	</radialGradient>
	<path style="fill-rule:evenodd;clip-rule:evenodd;fill:url(#SVGID_31_);" d="M54.2,9.35c0.167,0.5-0.133,0.783-0.9,0.85
		c-1,0.1-1.55,0.283-1.65,0.55c-0.033,0.067,0.033,0.267,0.2,0.6c0.1,0.333,0.1,0.6,0,0.8c-0.133,0.267-0.3,0.434-0.5,0.5
		c-0.033,0-0.267,0.017-0.7,0.05c-0.733,0.1-2.133,0.117-4.2,0.05c-0.967-0.067-1.534-0.133-1.7-0.2c-0.567-0.2-0.85-0.633-0.85-1.3
		c-1.233-0.167-2.133-0.167-2.7,0c-0.367,0.1-0.867,0.4-1.5,0.9s-1.133,0.783-1.5,0.85c-0.5,0.133-1.184,0.117-2.05-0.05
		c-0.1-0.034-0.2-0.067-0.3-0.1c-1.167-0.233-1.967-0.35-2.4-0.35c-0.833,0.067-1.517,0.1-2.05,0.1c-1,0-1.617-0.15-1.85-0.45
		c0.034-0.066,0.1-0.133,0.2-0.2c0.3-0.2,0.917-0.4,1.85-0.6c0.667-0.167,1.5-0.35,2.5-0.55c0.566-0.167,1.25-0.533,2.05-1.1
		c0.4-0.167,1-0.317,1.8-0.45l2.7-1.15c0.133,0.133,0.267,0.167,0.4,0.1c1.7-0.233,4.534-0.317,8.5-0.25
		c0.733,0.2,1.284,0.383,1.65,0.55c0.4,0.2,0.883,0.35,1.45,0.45c0.233,0.066,0.6,0.15,1.1,0.25c0.1,0,0.233,0.017,0.4,0.05
		C54.15,9.283,54.167,9.317,54.2,9.35z"/>
	
		<radialGradient id="SVGID_32_" cx="56.25" cy="9.1499" r="2.4625" gradientTransform="matrix(1 0 0 -0.335 0 12.2154)" gradientUnits="userSpaceOnUse">
		<stop  offset="0" style="stop-color:#D3D3D4"/>
		<stop  offset="1" style="stop-color:#B7C0CA"/>
	</radialGradient>
	<path style="fill-rule:evenodd;clip-rule:evenodd;fill:url(#SVGID_32_);" d="M56.85,10.65c0.1,0.367-0.05,0.6-0.45,0.7
		c-0.4,0.133-0.683,0.066-0.85-0.2c-0.3-0.433-0.033-0.816,0.8-1.15L56.85,10.65z"/>
	
		<radialGradient id="SVGID_33_" cx="39.3999" cy="2.7998" r="4.6" gradientTransform="matrix(1 0 0 -0.337 0 3.7432)" gradientUnits="userSpaceOnUse">
		<stop  offset="0" style="stop-color:#D3D3D4"/>
		<stop  offset="1" style="stop-color:#B7C0CA"/>
	</radialGradient>
	<path style="fill-rule:evenodd;clip-rule:evenodd;fill:url(#SVGID_33_);" d="M42.2,5.65c-0.034,0-0.434,0.033-1.2,0.1
		c-1.1-0.133-1.967-0.217-2.6-0.25c-1.333,0.067-2.316,0.05-2.95-0.05c-0.233-0.034,0.1-0.4,1-1.1C37.283,3.65,37.8,3.267,38,3.2
		c0.867-0.333,1.783-0.333,2.75,0c1.033,0.3,1.617,0.483,1.75,0.55c0.667,0.333,0.867,0.767,0.6,1.3
		C42.967,5.383,42.667,5.583,42.2,5.65z"/>
	
		<radialGradient id="SVGID_34_" cx="36.4502" cy="15.9004" r="10.9125" gradientTransform="matrix(1 0 0 -0.3356 0 21.2369)" gradientUnits="userSpaceOnUse">
		<stop  offset="0" style="stop-color:#D3D3D4"/>
		<stop  offset="1" style="stop-color:#B7C0CA"/>
	</radialGradient>
	<path style="fill-rule:evenodd;clip-rule:evenodd;fill:url(#SVGID_34_);" d="M46,18.7c0,0.033,0,0.066,0,0.1
		c-0.033,0.601-0.217,1.084-0.55,1.45c-0.4,0.4-1.117,0.75-2.15,1.05c0,0.033-0.433,0.167-1.3,0.4c-0.3,0.033-0.633,0.1-1,0.2
		c-0.5,0.133-0.983,0.233-1.45,0.3c-1.367,0.166-2.65,0.066-3.85-0.3c-0.9-0.233-2.017-0.351-3.35-0.351
		c-2.133-0.033-3.267-0.05-3.4-0.05c-1.133-0.1-1.883-0.366-2.25-0.8c-0.1-0.134-0.15-0.25-0.15-0.351
		c-0.1-0.433,0.267-0.883,1.1-1.35c0.5-0.3,1.133-0.5,1.9-0.6c1.133-0.2,1.767-0.317,1.9-0.351c0.367-0.1,0.667-0.267,0.9-0.5
		c0.167-0.1,0.417-0.316,0.75-0.649c0.6-0.467,1.733-0.684,3.4-0.65c0.9,0.033,2.133,0.116,3.7,0.25l2-0.25
		c0.1,0.033,0.683,0.15,1.75,0.35c0.767,0.167,1.3,0.4,1.6,0.7C45.85,17.6,46,18.066,46,18.7z"/>
	
		<radialGradient id="SVGID_35_" cx="44.8501" cy="16.2998" r="7.4" gradientTransform="matrix(1 0 0 -0.3361 0 21.779)" gradientUnits="userSpaceOnUse">
		<stop  offset="0" style="stop-color:#D3D3D4"/>
		<stop  offset="1" style="stop-color:#B7C0CA"/>
	</radialGradient>
	<path style="fill-rule:evenodd;clip-rule:evenodd;fill:url(#SVGID_35_);" d="M46,18.7c0.2,0.033,0.383,0.083,0.55,0.149L46,19.95
		c0.133-0.033,0.267-0.117,0.4-0.25c0.167-0.134,0.3-0.217,0.4-0.25c0.267-0.066,0.567-0.033,0.9,0.1
		c0.4,0.134,0.617,0.316,0.65,0.55C48.217,20.134,48.1,20.233,48,20.4c-0.133,0.133-0.233,0.216-0.3,0.25
		c-0.467-0.034-0.8-0.034-1,0c-0.067,0.399,0.233,0.649,0.9,0.75c0.367,0.066,0.816,0.1,1.35,0.1c-0.267,0.167-0.7,0.233-1.3,0.2
		c-0.767,0-1.233,0.017-1.4,0.05C43.917,22.217,42.5,22.2,42,21.7c0.867-0.233,1.3-0.367,1.3-0.4c1.034-0.3,1.75-0.649,2.15-1.05
		c0.333-0.366,0.517-0.85,0.55-1.45C46,18.767,46,18.733,46,18.7z"/>
	
		<radialGradient id="SVGID_36_" cx="50.5" cy="19.7002" r="1.7875" gradientTransform="matrix(1 0 0 -0.3357 0 26.3128)" gradientUnits="userSpaceOnUse">
		<stop  offset="0" style="stop-color:#D3D3D4"/>
		<stop  offset="1" style="stop-color:#B7C0CA"/>
	</radialGradient>
	<path style="fill-rule:evenodd;clip-rule:evenodd;fill:url(#SVGID_36_);" d="M49.3,20.55c0.067-0.3,0.367-0.383,0.9-0.25H51
		c0.2,0.033,0.317,0.134,0.35,0.3c0.066,0.167,0.05,0.334-0.05,0.5c-0.566,0.067-1,0.084-1.3,0.051
		C49.467,21.083,49.233,20.884,49.3,20.55z"/>
	
		<radialGradient id="SVGID_37_" cx="59.2002" cy="12.5" r="3.725" gradientTransform="matrix(1 0 0 -0.3356 0 16.6946)" gradientUnits="userSpaceOnUse">
		<stop  offset="0" style="stop-color:#D3D3D4"/>
		<stop  offset="1" style="stop-color:#B7C0CA"/>
	</radialGradient>
	<path style="fill-rule:evenodd;clip-rule:evenodd;fill:url(#SVGID_37_);" d="M59.65,14.05c0.067,0.033,0.15,0.101,0.25,0.2
		c0.233,0.3,0.434,0.483,0.6,0.55l-0.15,1c-1.267,0-2.05-0.05-2.35-0.149c-0.4-0.134-0.6-0.317-0.6-0.551
		c0.033-0.166,0.184-0.433,0.45-0.8c0.033-0.066,0.083-0.116,0.15-0.149c0.333-0.333,0.733-0.45,1.2-0.351
		C59.333,13.833,59.483,13.917,59.65,14.05z"/>
	
		<radialGradient id="SVGID_38_" cx="54.6001" cy="12.8501" r="1.9375" gradientTransform="matrix(1 0 0 -0.3355 0 17.1611)" gradientUnits="userSpaceOnUse">
		<stop  offset="0" style="stop-color:#D3D3D4"/>
		<stop  offset="1" style="stop-color:#B7C0CA"/>
	</radialGradient>
	<path style="fill-rule:evenodd;clip-rule:evenodd;fill:url(#SVGID_38_);" d="M55.7,14.15c-0.667,0.133-1.2,0.199-1.6,0.199
		c-0.8,0-1.1-0.267-0.9-0.8c0.2-0.133,0.55-0.183,1.05-0.15c0.267,0.033,0.633,0.067,1.1,0.1l0.3,0.55L55.7,14.15z"/>
	
		<radialGradient id="SVGID_39_" cx="54.5498" cy="17.0498" r="1.7375" gradientTransform="matrix(1 0 0 -0.3381 0 22.8148)" gradientUnits="userSpaceOnUse">
		<stop  offset="0" style="stop-color:#D3D3D4"/>
		<stop  offset="1" style="stop-color:#B7C0CA"/>
	</radialGradient>
	<path style="fill-rule:evenodd;clip-rule:evenodd;fill:url(#SVGID_39_);" d="M53.95,18.35c-0.233-0.267-0.05-0.5,0.55-0.699L55,18
		v0.6C54.5,18.667,54.15,18.583,53.95,18.35z"/>
	
		<radialGradient id="SVGID_40_" cx="33.7002" cy="4.5" r="2.3625" gradientTransform="matrix(1 0 0 -0.3333 0 6)" gradientUnits="userSpaceOnUse">
		<stop  offset="0" style="stop-color:#D3D3D4"/>
		<stop  offset="1" style="stop-color:#B7C0CA"/>
	</radialGradient>
	<path style="fill-rule:evenodd;clip-rule:evenodd;fill:url(#SVGID_40_);" d="M33.05,5.9c0.133-0.3,0.284-0.5,0.45-0.6l0.85,0.85
		l-0.2,0.45c-0.433,0.1-0.867,0.1-1.3,0C32.85,6.4,32.917,6.167,33.05,5.9z"/>
	
		<radialGradient id="SVGID_41_" cx="28.9502" cy="9.75" r="1.625" gradientTransform="matrix(1 0 0 -0.3385 0 13.05)" gradientUnits="userSpaceOnUse">
		<stop  offset="0" style="stop-color:#D3D3D4"/>
		<stop  offset="1" style="stop-color:#B7C0CA"/>
	</radialGradient>
	<path style="fill-rule:evenodd;clip-rule:evenodd;fill:url(#SVGID_41_);" d="M28.45,11.15c-0.167-0.1-0.25-0.217-0.25-0.35
		c0-0.167,0-0.333,0-0.5l1.3,0.35c0.033,0.233-0.083,0.4-0.35,0.5S28.65,11.25,28.45,11.15z"/>
	
		<radialGradient id="SVGID_42_" cx="32.6499" cy="9.4502" r="6.9125" gradientTransform="matrix(1 0 0 -0.3363 0 12.6287)" gradientUnits="userSpaceOnUse">
		<stop  offset="0" style="stop-color:#D3D3D4"/>
		<stop  offset="1" style="stop-color:#B7C0CA"/>
	</radialGradient>
	<path style="fill-rule:evenodd;clip-rule:evenodd;fill:url(#SVGID_42_);" d="M36.15,12.95c-0.1,0.2-0.283,0.45-0.55,0.75
		c-0.3,0.3-0.55,0.483-0.75,0.55c-0.133,0.066-0.417,0.116-0.85,0.15c-0.467,0.033-0.75,0-0.85-0.101
		c-0.133-0.133-0.183-0.283-0.15-0.45c0.1-0.2,0.15-0.367,0.15-0.5c-0.6-0.1-1.333-0.117-2.2-0.05c-0.767,0.333-1.35,0.434-1.75,0.3
		c0.333-0.333,0.483-0.583,0.45-0.75l-0.3-0.05L29.3,12h-0.85c0.403-0.01,0.836-0.027,1.3-0.05c-0.1,0.066-0.167,0.133-0.2,0.2
		c0.233,0.3,0.85,0.45,1.85,0.45c0.533,0,1.217-0.033,2.05-0.1c0.433,0,1.233,0.117,2.4,0.35C35.95,12.883,36.05,12.917,36.15,12.95
		z"/>
	
		<radialGradient id="SVGID_43_" cx="26.75" cy="11.5" r="2.025" gradientTransform="matrix(1 0 0 -0.3333 0 15.3333)" gradientUnits="userSpaceOnUse">
		<stop  offset="0" style="stop-color:#D3D3D4"/>
		<stop  offset="1" style="stop-color:#B7C0CA"/>
	</radialGradient>
	<path style="fill-rule:evenodd;clip-rule:evenodd;fill:url(#SVGID_43_);" d="M26.3,12.1c0.867-0.1,1.434-0.033,1.7,0.2v0.2
		c-0.233,0.367-0.7,0.533-1.4,0.5c-0.8-0.1-1.333-0.167-1.6-0.2C25,12.433,25.433,12.2,26.3,12.1z"/>
	
		<radialGradient id="SVGID_44_" cx="25.9502" cy="20.3496" r="3.15" gradientTransform="matrix(1 0 0 -0.3373 0 27.2136)" gradientUnits="userSpaceOnUse">
		<stop  offset="0" style="stop-color:#D3D3D4"/>
		<stop  offset="1" style="stop-color:#B7C0CA"/>
	</radialGradient>
	<path style="fill-rule:evenodd;clip-rule:evenodd;fill:url(#SVGID_44_);" d="M24.95,22c0.133-0.2,0.383-0.366,0.75-0.5
		c0.7-0.267,1.083-0.1,1.15,0.5c0,0.1,0,0.2,0,0.3V23c-0.167,0.2-0.5,0.267-1,0.2c-0.567-0.134-0.95-0.217-1.15-0.25
		C24.6,22.583,24.683,22.267,24.95,22z"/>
	
		<radialGradient id="SVGID_45_" cx="32.5498" cy="17.75" r="10.4625" gradientTransform="matrix(1 0 0 -0.3357 0 23.7091)" gradientUnits="userSpaceOnUse">
		<stop  offset="0" style="stop-color:#D3D3D4"/>
		<stop  offset="1" style="stop-color:#B7C0CA"/>
	</radialGradient>
	<path style="fill-rule:evenodd;clip-rule:evenodd;fill:url(#SVGID_45_);" d="M39.55,22.2c-0.033,0.066-0.05,0.149-0.05,0.25
		c0.767,0.267,1.2,0.45,1.3,0.55c-0.233,0.2-0.75,0.283-1.55,0.25c-0.9-0.066-1.483-0.1-1.75-0.1l-1.4,0.1
		c-0.567,0.033-1.017,0-1.35-0.1c-0.7-0.2-1.167-0.317-1.4-0.351c-0.4,0-0.7-0.033-0.9-0.1c0.267-0.167,0.4-0.351,0.4-0.55
		C31.983,22.05,30.683,22,28.95,22h-2.1c-0.067-0.6-0.45-0.767-1.15-0.5c-0.367,0.134-0.617,0.3-0.75,0.5h-2
		c-1.167,0.1-1.833,0.134-2,0.1l4.4-1.1c0.467-0.167,0.75-0.283,0.85-0.35c0.066-0.067,0.183-0.167,0.35-0.301
		c0,0.101,0.05,0.217,0.15,0.351c0.367,0.434,1.117,0.7,2.25,0.8c0.133,0,1.267,0.017,3.4,0.05c1.333,0,2.45,0.117,3.35,0.351
		C36.9,22.267,38.183,22.366,39.55,22.2z"/>
	
		<radialGradient id="SVGID_46_" cx="19.8501" cy="19.25" r="2.25" gradientTransform="matrix(1 0 0 -0.3333 0 25.6667)" gradientUnits="userSpaceOnUse">
		<stop  offset="0" style="stop-color:#D3D3D4"/>
		<stop  offset="1" style="stop-color:#B7C0CA"/>
	</radialGradient>
	<path style="fill-rule:evenodd;clip-rule:evenodd;fill:url(#SVGID_46_);" d="M20.7,20.15c0.066,0.433-0.067,0.733-0.4,0.899
		c-0.3,0.167-0.667,0.2-1.1,0.101c-0.534-0.134-0.667-0.351-0.4-0.65c0.267-0.3,0.617-0.467,1.05-0.5L20.7,20.15z"/>
	
		<radialGradient id="SVGID_47_" cx="36.4502" cy="13.3999" r="1.625" gradientTransform="matrix(1 0 0 -0.3385 0 17.9353)" gradientUnits="userSpaceOnUse">
		<stop  offset="0" style="stop-color:#D3D3D4"/>
		<stop  offset="1" style="stop-color:#B7C0CA"/>
	</radialGradient>
	<path style="fill-rule:evenodd;clip-rule:evenodd;fill:url(#SVGID_47_);" d="M36.7,14.15c0.3,0.199,0.316,0.399,0.05,0.6
		c-0.267,0.233-0.567,0.233-0.9,0c0.033-0.3,0.2-0.55,0.5-0.75L36.7,14.15z"/>
	
		<radialGradient id="SVGID_48_" cx="16.6001" cy="7.25" r="2.2125" gradientTransform="matrix(1 0 0 -0.3333 0 9.6667)" gradientUnits="userSpaceOnUse">
		<stop  offset="0" style="stop-color:#D3D3D4"/>
		<stop  offset="1" style="stop-color:#B7C0CA"/>
	</radialGradient>
	<path style="fill-rule:evenodd;clip-rule:evenodd;fill:url(#SVGID_48_);" d="M17.95,8c0.433,0.3,0.3,0.567-0.4,0.8
		c-0.6,0.167-1.1,0.233-1.5,0.2C15.15,8.867,14.8,8.5,15,7.9c0.233-0.6,0.633-0.733,1.2-0.4L17.95,8z"/>
	
		<radialGradient id="SVGID_49_" cx="11.1499" cy="9.5" r="6.05" gradientTransform="matrix(1 0 0 -0.3368 0 12.6994)" gradientUnits="userSpaceOnUse">
		<stop  offset="0" style="stop-color:#D3D3D4"/>
		<stop  offset="1" style="stop-color:#B7C0CA"/>
	</radialGradient>
	<path style="fill-rule:evenodd;clip-rule:evenodd;fill:url(#SVGID_49_);" d="M15.55,11.8c-0.133,0.333-0.5,0.65-1.1,0.95
		c-1.434,0.733-2.45,1.133-3.05,1.2c-1.333,0.133-2.65,0.166-3.95,0.1c-0.267-0.033-0.517-0.066-0.75-0.1c0-0.1,0-0.184,0-0.25
		c-0.067-0.6-0.1-1.083-0.1-1.45c0-0.533,0.033-0.85,0.1-0.95c0.367-0.466,1.783-0.983,4.25-1.55h1.5c1.133,0,2.05,0.333,2.75,1
		C15.567,11.117,15.683,11.467,15.55,11.8z"/>
	
		<radialGradient id="SVGID_50_" cx="6.25" cy="7.4502" r="2.1625" gradientTransform="matrix(1 0 0 -0.3353 0 9.9479)" gradientUnits="userSpaceOnUse">
		<stop  offset="0" style="stop-color:#D3D3D4"/>
		<stop  offset="1" style="stop-color:#B7C0CA"/>
	</radialGradient>
	<path style="fill-rule:evenodd;clip-rule:evenodd;fill:url(#SVGID_50_);" d="M5.15,8.65C5.583,8.617,6.2,8.5,7,8.3
		c0,0.367,0,0.567,0,0.6C6.933,9.067,6.717,9.2,6.35,9.3C6.083,9.367,5.7,9.367,5.2,9.3L5.15,8.65z"/>
	
		<radialGradient id="SVGID_51_" cx="10.25" cy="10.3501" r="8.6875" gradientTransform="matrix(1 0 0 -0.3353 0 13.82)" gradientUnits="userSpaceOnUse">
		<stop  offset="0" style="stop-color:#D3D3D4"/>
		<stop  offset="1" style="stop-color:#B7C0CA"/>
	</radialGradient>
	<path style="fill-rule:evenodd;clip-rule:evenodd;fill:url(#SVGID_51_);" d="M7.45,14.05c1.3,0.066,2.617,0.033,3.95-0.1
		c0.6-0.067,1.617-0.467,3.05-1.2c0.6-0.3,0.966-0.617,1.1-0.95c0.8,0.1,1.483,0.317,2.05,0.65c-0.133,0.066-0.633,0.133-1.5,0.2
		c-0.667,0.067-1.117,0.233-1.35,0.5c-0.067,0.067-0.117,0.2-0.15,0.4c-0.033,0.167-0.15,0.3-0.35,0.4c-0.2,0.1-0.533,0.133-1,0.1
		c-0.5-0.033-0.833-0.05-1-0.05L9.5,14.1C8.733,14.134,8.05,14.116,7.45,14.05z M6.7,13.7c-1.133-0.167-2.1-0.233-2.9-0.2
		c-2.033,0-3.3-0.133-3.8-0.4c0.2-0.2,0.567-0.317,1.1-0.35c0.3-0.033,0.717-0.05,1.25-0.05c0.267-0.034,0.717-0.034,1.35,0
		c0.566,0.033,1.017,0.017,1.35-0.05c0.4-0.033,0.817-0.15,1.25-0.35c0.067,0,0.167-0.017,0.3-0.05C6.6,12.617,6.633,13.1,6.7,13.7z
		"/>
	
		<radialGradient id="SVGID_52_" cx="4.6001" cy="22.8496" r="0.8875" gradientTransform="matrix(1 0 0 -0.338 0 30.5734)" gradientUnits="userSpaceOnUse">
		<stop  offset="0" style="stop-color:#D3D3D4"/>
		<stop  offset="1" style="stop-color:#B7C0CA"/>
	</radialGradient>
	<path style="fill-rule:evenodd;clip-rule:evenodd;fill:url(#SVGID_52_);" d="M4.25,23.45c0.1-0.2,0.25-0.3,0.45-0.3L4.85,23.3
		c-0.033,0.2-0.117,0.316-0.25,0.351C4.433,23.684,4.317,23.616,4.25,23.45z"/>
	
		<radialGradient id="SVGID_53_" cx="1.0498" cy="22.8496" r="1" gradientTransform="matrix(1 0 0 -0.3375 0 30.5614)" gradientUnits="userSpaceOnUse">
		<stop  offset="0" style="stop-color:#D3D3D4"/>
		<stop  offset="1" style="stop-color:#B7C0CA"/>
	</radialGradient>
	<path style="fill-rule:evenodd;clip-rule:evenodd;fill:url(#SVGID_53_);" d="M0.45,23.6c0-0.3,0.133-0.449,0.4-0.449L1.5,23.3
		C1.267,23.7,0.917,23.8,0.45,23.6z"/>
	
		<radialGradient id="SVGID_54_" cx="8.6001" cy="24.25" r="1.275" gradientTransform="matrix(1 0 0 -0.3333 0 32.3333)" gradientUnits="userSpaceOnUse">
		<stop  offset="0" style="stop-color:#D3D3D4"/>
		<stop  offset="1" style="stop-color:#B7C0CA"/>
	</radialGradient>
	<path style="fill-rule:evenodd;clip-rule:evenodd;fill:url(#SVGID_54_);" d="M7.5,24.65h1.2c0.1,0.366-0.1,0.55-0.6,0.55
		S7.4,25.017,7.5,24.65z"/>
	
		<radialGradient id="SVGID_55_" cx="12.8999" cy="23.2998" r="3.6" gradientTransform="matrix(1 0 0 -0.3368 0 31.1473)" gradientUnits="userSpaceOnUse">
		<stop  offset="0" style="stop-color:#D3D3D4"/>
		<stop  offset="1" style="stop-color:#B7C0CA"/>
	</radialGradient>
	<path style="fill-rule:evenodd;clip-rule:evenodd;fill:url(#SVGID_55_);" d="M15.25,24.65c-0.133,0.199-0.317,0.366-0.55,0.5
		c-0.7,0.399-1.467,0.666-2.3,0.8c-1,0.1-1.75-0.05-2.25-0.45c0.067-0.134,0.133-0.25,0.2-0.35c0.3-0.634,0.583-1.051,0.85-1.25
		c0.433-0.334,1.1-0.467,2-0.4h1.5c0.7-0.167,0.983,0.017,0.85,0.55C15.483,24.283,15.383,24.483,15.25,24.65z"/>
	
		<radialGradient id="SVGID_56_" cx="13.2002" cy="23.6504" r="5.3625" gradientTransform="matrix(1 0 0 -0.3357 0 31.589)" gradientUnits="userSpaceOnUse">
		<stop  offset="0" style="stop-color:#D3D3D4"/>
		<stop  offset="1" style="stop-color:#B7C0CA"/>
	</radialGradient>
	<path style="fill-rule:evenodd;clip-rule:evenodd;fill:url(#SVGID_56_);" d="M15.25,24.65c1.367,0,2.117,0.149,2.25,0.449
		c-0.2,0.034-0.65,0.017-1.35-0.05c-0.633-0.066-1.066-0.05-1.3,0.05c-0.133,0.067-0.267,0.217-0.4,0.45
		c-0.167,0.267-0.3,0.434-0.4,0.5c-0.233,0.167-0.617,0.25-1.15,0.25c-1.367,0.101-2.217,0.066-2.55-0.1
		c-0.233-0.3-0.483-0.483-0.75-0.55c-0.233-0.101-0.617-0.134-1.15-0.101c-0.567,0.066-0.967,0.101-1.2,0.101
		c0.467-0.2,0.833-0.317,1.1-0.351c0.2,0,0.533,0.017,1,0.05c0.4,0.034,0.683-0.033,0.85-0.199h0.15
		c-0.067,0.1-0.133,0.216-0.2,0.35c0.5,0.4,1.25,0.55,2.25,0.45c0.833-0.134,1.6-0.4,2.3-0.8
		C14.933,25.017,15.117,24.85,15.25,24.65z"/>
</g>
</svg>
