<?xml version="1.0" encoding="iso-8859-1"?>
<!-- Generator: Adobe Illustrator 15.1.0, SVG Export Plug-In . SVG Version: 6.00 Build 0)  -->
<!DOCTYPE svg PUBLIC "-//W3C//DTD SVG 1.1//EN" "http://www.w3.org/Graphics/SVG/1.1/DTD/svg11.dtd">
<svg version="1.1" id="FlashAICB" xmlns="http://www.w3.org/2000/svg" xmlns:xlink="http://www.w3.org/1999/xlink" x="0px" y="0px"
	 width="135px" height="214.7px" viewBox="0 0 135 214.7" style="enable-background:new 0 0 135 214.7;" xml:space="preserve">
<g>
	<g>
		
			<radialGradient id="SVGID_1_" cx="68.1504" cy="119.4502" r="183.725" gradientTransform="matrix(1 0 0 -0.7919 0 214.04)" gradientUnits="userSpaceOnUse">
			<stop  offset="0.1333" style="stop-color:#211C15"/>
			<stop  offset="0.8471" style="stop-color:#211C15;stop-opacity:0"/>
		</radialGradient>
		<path style="fill-rule:evenodd;clip-rule:evenodd;fill:url(#SVGID_1_);" d="M84.05,176.1c4.4,0,8.767,0.15,13.101,0.45
			c3.5,0.167,5.783,0.55,6.85,1.15c0.4,0.233,0.95,0.717,1.65,1.45c0.466,0.5,1.283,0.85,2.449,1.05
			c0.267,0.033,1.301,0.1,3.101,0.2c1.467,0.1,2.5,0.25,3.1,0.449c0.2,0.067,0.45,0.25,0.75,0.551c0.334,0.3,0.584,0.5,0.75,0.6
			c1.167,0.566,3,1.267,5.5,2.1c0.601,0.2,1.5,0.483,2.7,0.851c0.6,0.233,1.017,0.45,1.25,0.649c0.167,0.101,0.467,0.351,0.9,0.75
			c0.533,0.434,1.416,1,2.649,1.7c0.834,0.634,0.95,1.334,0.351,2.101c-0.4,0.5-1.45,1.033-3.15,1.6
			c-1.4,0.434-2.083,1.066-2.05,1.9c0.033,0.733,0.649,1.699,1.85,2.899c0.667,0.634,1.601,1.5,2.8,2.601
			c0.334,0.366,1.2,1.199,2.601,2.5c1.133,1.066,1.934,1.916,2.399,2.55c1,1.399,0.967,2.5-0.1,3.3c-0.733,0.533-2.116,1-4.15,1.4
			c-0.433,0.1-1.449,0.199-3.05,0.3c-1.267,0.066-2.233,0.25-2.899,0.55c-0.5,0.2-0.983,0.566-1.45,1.1
			c-0.533,0.601-0.967,1-1.3,1.2c-0.667,0.367-1.551,0.584-2.65,0.65c-1.233-0.033-2.167-0.033-2.8,0
			c-0.601,0.033-1.851,0.217-3.75,0.55c-1.601,0.267-2.917,0.4-3.95,0.4c-1.4,0-3.45-0.301-6.15-0.9
			c-2.633-0.566-4.683-0.85-6.149-0.85c-1.3-0.034-2.283-0.051-2.95-0.051c-1.134,0.034-2.083,0.15-2.85,0.351
			c-0.4,0.133-0.917,0.383-1.551,0.75c-0.633,0.399-1.133,0.649-1.5,0.75c-0.833,0.267-2.1,0.399-3.8,0.399
			c-1.899,0.034-3.2,0.117-3.899,0.25c-2.334,0.467-4.801,0.45-7.4-0.05c-0.866-0.166-3.233-0.833-7.1-2
			c-1.9-0.566-4.783-0.85-8.65-0.85c-0.867,0-1.983-0.134-3.35-0.4s-2.433-0.416-3.2-0.45c-1.233-0.033-2.684,0.067-4.35,0.301
			c-2.633,0.366-4.033,0.566-4.2,0.6c-3.4,0.3-6.966-0.033-10.7-1c-0.9-0.233-3.1-1.033-6.6-2.4c-2.633-1.033-4.9-1.616-6.8-1.75
			c-3.5-0.366-6.083-0.616-7.75-0.75c-0.233-0.033-0.933-0.017-2.1,0.051c-1,0-1.7-0.051-2.1-0.15c-0.267-0.066-0.55-0.267-0.85-0.6
			c-0.333-0.334-0.6-0.534-0.8-0.601c-0.3-0.1-0.8-0.133-1.5-0.1c-0.534,0-0.934-0.134-1.2-0.4c1.033-0.967,3.133-1.684,6.3-2.149
			c3.1-0.5,5.167-1.233,6.2-2.2c0.934-0.9,1.15-1.584,0.65-2.05c-0.367-0.334-1.3-0.617-2.8-0.851c-1.467-0.267-2.6-0.467-3.4-0.6
			c-1.5-0.267-2.633-0.367-3.4-0.3c0.3-0.601,1.134-1.051,2.5-1.351c0.767-0.133,1.833-0.333,3.2-0.6c0.733-0.233,1.767-0.566,3.1-1
			c1.167-0.4,2.15-0.783,2.95-1.15c1.333-0.633,3.467-1.616,6.4-2.95c2.433-1.267,4.2-2.6,5.3-4L84.05,176.1z"/>
		
			<radialGradient id="SVGID_2_" cx="69.0498" cy="136.9004" r="130.65" gradientTransform="matrix(1 0 0 -0.7918 0 245.2995)" gradientUnits="userSpaceOnUse">
			<stop  offset="0.3255" style="stop-color:#3F3932"/>
			<stop  offset="0.4627" style="stop-color:#352F28;stop-opacity:0.6588"/>
			<stop  offset="0.7451" style="stop-color:#26211A;stop-opacity:0.1608"/>
			<stop  offset="1" style="stop-color:#211C15;stop-opacity:0"/>
		</radialGradient>
		<path style="fill-rule:evenodd;clip-rule:evenodd;fill:url(#SVGID_2_);" d="M82.95,170.55c1.233-0.066,2.767,0.017,4.6,0.25
			c1.033,0.134,2.55,0.334,4.55,0.601c2.801,0.3,4.733,0.55,5.801,0.75c2.066,0.333,3.899,0.8,5.5,1.399
			c0.666,0.233,1.583,0.566,2.75,1c0.966,0.367,1.8,0.8,2.5,1.3c0.966,0.733,2.283,1.967,3.949,3.7
			c1.801,1.601,3.051,2.65,3.75,3.15c1.567,1.1,3.15,1.767,4.75,2c0.467,1.033-0.05,1.767-1.55,2.2c-1.866,0.333-3.066,0.6-3.6,0.8
			c-1.533,0.633-1.9,1.483-1.101,2.55c0.467,0.634,1.434,1.566,2.9,2.8c1,1.101,1.717,2.233,2.15,3.4
			c0.333,0.934,0.583,2.184,0.75,3.75c0.066,0.566,0.517,1.517,1.35,2.85c0.7,1.101,0.934,2.033,0.7,2.8
			c-0.9-0.066-1.917,0.117-3.05,0.551c-1.301,0.6-2.233,1.017-2.801,1.25c-1.333,0.566-2.733,0.933-4.199,1.1
			c-0.867,0.1-2.367,0.15-4.5,0.15c-0.967,0-2.517-0.051-4.65-0.15c-2-0.1-3.566-0.15-4.7-0.15c-2.666,0-5.267-0.183-7.8-0.55
			c-0.667-0.1-2.483-0.25-5.45-0.45c-2.3-0.199-4.05-0.466-5.25-0.8c-1.033-0.333-1.8-0.566-2.3-0.7
			c-0.866-0.233-1.684-0.267-2.45-0.1c-0.166,0.033-0.483,0.167-0.95,0.4c-0.466,0.199-0.899,0.333-1.3,0.399
			c-1.1,0.101-2.8,0.101-5.1,0c-2.3-0.133-4.017-0.133-5.15,0c-0.366,0.033-0.833,0.167-1.4,0.4c-0.6,0.2-1.017,0.316-1.25,0.35
			c-0.466,0.066-1.033,0.033-1.7-0.1c-0.733-0.167-1.3-0.283-1.7-0.351c-1.9-0.333-4.35-0.483-7.35-0.449
			c-3.4,0.1-5.917,0.149-7.55,0.149c-2.267,0.066-3.967,0.117-5.1,0.15c-2.1,0.033-3.816-0.017-5.15-0.15
			c-1.067-0.1-2.15-0.316-3.25-0.649c-0.467-0.134-1.5-0.5-3.1-1.101c-1.967-0.899-3.45-1.467-4.45-1.7
			c-1.3-0.033-2.35-0.066-3.15-0.1c-1.5-0.1-2.383-0.483-2.65-1.15c-0.233-0.533-0.117-0.883,0.35-1.05
			c0.3-0.1,0.833-0.217,1.6-0.35c1.3-0.334,3.3-0.684,6-1.05c1.966-0.534,2.85-1.684,2.65-3.45c-4.5-0.2-7.133-0.351-7.9-0.45
			c-3.633-0.467-5.817-1.45-6.55-2.95c4.233-1,7.383-2.017,9.45-3.05c1.233-0.634,2.517-1.467,3.85-2.5
			c1.633-1.233,2.566-2.233,2.8-3c-0.667-0.1-1.133-0.15-1.4-0.15c0.933-0.699,2.133-1.8,3.6-3.3L82.95,170.55z"/>
	</g>
	<g>
		<path style="fill-rule:evenodd;clip-rule:evenodd;fill:#4F4639;" d="M85.3,52.1c1,2.867,1.584,4.717,1.75,5.55
			c0.233,1.233,0.3,3.233,0.2,6c-0.1,2.667,0,4.633,0.3,5.9c0.233,1,0.95,2.333,2.15,4c1.233,1.767,2,3.133,2.3,4.1
			c0.467,1.434,0.634,2.983,0.5,4.65c-0.066,0.967-0.2,2.5-0.4,4.6c-0.066,3.233-0.216,5.583-0.449,7.05
			c-0.567,3.533-1.601,4.966-3.101,4.3c-0.7-0.3-1.066-1.033-1.1-2.2c0.1-1.333,0.149-2.283,0.149-2.85
			c-0.033-1.733-0.316-3.967-0.85-6.7c-0.7-3.5-1.116-5.75-1.25-6.75c-0.4,1.033-0.717,2.55-0.95,4.55
			c-0.2,2.1-0.467,3.617-0.8,4.55c-0.267,0.667-0.65,1.433-1.15,2.3L83.7,85.8c0.267-1.833,0.399-3.917,0.399-6.25
			c0-8.9-0.949-17.133-2.85-24.7c-2.467,1.167-4.616,0.517-6.45-1.95c2.867-0.833,4.601-2.1,5.2-3.8
			c0.267-0.767,0.233-1.533-0.1-2.3c-0.434-0.867-0.75-1.55-0.95-2.05c-0.566-1.467-0.75-3.6-0.55-6.4c0.233-3.5,0.3-5.7,0.199-6.6
			c-0.066-0.7-0.366-2.117-0.899-4.25c-0.434-1.7-0.634-3.133-0.601-4.3c0-0.567-0.166-2.483-0.5-5.75l0.9,1.65
			c0.3,0.566,0.566,1.233,0.8,2c0.167,0.433,0.384,1.1,0.65,2c0.267,0.733,0.649,1.483,1.149,2.25c0.034,0.233,0.084,0.45,0.15,0.65
			c0.1,0.3,0.366,0.933,0.8,1.9c0.367,0.8,0.617,1.483,0.75,2.05c0.267,1.167,0.634,3.867,1.101,8.1l0.5,4.5
			c0.3,0.967,0.483,2.25,0.55,3.85l1.3,5.85C85.283,52.217,85.3,52.167,85.3,52.1z M98.1,91l0.101,0.4c0.3,1,0.5,1.85,0.6,2.55
			c0.134,1,0.184,2.233,0.15,3.7c-0.033,0.867-0.084,2.133-0.15,3.8c0.4,2.5,1.017,4.7,1.851,6.6c0.866,1.9,1.366,3.4,1.5,4.5
			c0.066,0.434,0.066,1.2,0,2.3c-0.034,1,0,1.75,0.1,2.25s0.35,1.084,0.75,1.75c0.467,0.801,0.767,1.367,0.9,1.7l0.199,0.7
			c0.067,0.267,0.15,0.566,0.25,0.9c0.2,0.767,0.467,1.75,0.801,2.949c0.5,1.334,0.833,2.884,1,4.65c0.066,0.967,0.1,2.566,0.1,4.8
			c0.066,0.2,0.333,0.934,0.8,2.2c0.334,0.866,0.533,1.6,0.601,2.2c0.1,0.8,0.133,1.816,0.1,3.05c-0.033,0.667-0.066,1.667-0.1,3
			c0,0.967-0.051,2.167-0.15,3.6l-0.3,3.601l0.05,0.85c0.366,3.667,1.05,6.267,2.05,7.8c0.134-0.533,0.367-0.949,0.7-1.25
			c0.366-0.3,0.717-0.366,1.05-0.199l0.101-0.2l0.05,0.3c0.267,0.2,0.467,0.55,0.6,1.05c0.167,0.601,0.283,1.65,0.351,3.15
			c0,0.066,0.017,0.133,0.05,0.2l0.125,0.5l0.075,0.35c-0.9,1.8-1.834,2.816-2.801,3.05c0.2-1.267-0.316-2.7-1.55-4.3
			c-1.767-2.333-2.717-3.634-2.85-3.9c-0.934-2.033-1.634-4.816-2.101-8.35c-0.199-1.434-0.683-3.333-1.449-5.7
			c-0.934-2.934-1.5-4.833-1.7-5.7c-0.767-3.066-1.267-5.316-1.5-6.75c-0.167-1.666-0.334-2.933-0.5-3.8
			c-0.233-1.5-0.65-2.633-1.25-3.399c-0.101,0.233-0.367,1.333-0.8,3.3c-0.334,1.5-0.767,2.5-1.301,3
			c-0.733,0.666-2.383,0.816-4.949,0.45c-0.067-0.467-0.101-1.2-0.101-2.2c-1.1,1.633-2.684,3.184-4.75,4.649
			c-2.467,1.634-4.333,2.867-5.6,3.7c-1,0.566-1.767,1-2.3,1.3c-1.034,0.601-1.617,1.101-1.75,1.5
			c0.466,0.067,1.183,0.284,2.149,0.65c0.8,0.333,1.566,0.483,2.3,0.45c0.867,0,2.134,0,3.801,0c1.433-0.033,2.683-0.15,3.75-0.351
			l1-0.199c2.366-0.434,4.017-0.867,4.949-1.301c0.767-0.333,1.5-0.733,2.2-1.199c0.367-0.034,0.75,0.616,1.15,1.949
			c0.366,1.167,0.616,2.95,0.75,5.351c0.133,2.434,0.366,4.217,0.7,5.35c0.3,0.967,0.933,2.033,1.899,3.2
			c1.2,1.434,1.934,2.4,2.2,2.9c0.533,0.966,0.8,2.633,0.8,5c-0.033,2.433,0.217,4.183,0.75,5.25c0.367,0.699,0.9,1.767,1.601,3.199
			c0.633,1.233,1.1,2.334,1.399,3.301c0.3,0.933,0.467,2.133,0.5,3.6c0.033,2,0.084,3.217,0.15,3.65
			c0.233,2.366,0.816,4.383,1.75,6.05c0.333,0.6,0.883,1.366,1.649,2.3c0.534,0.8,0.551,1.616,0.051,2.45
			c-0.5,0.866-1.601,1.434-3.301,1.7c-0.3,0.033-1.533,0.116-3.699,0.25c-1.801,0.199-3.301,0.333-4.5,0.399
			c-2.233,0.134-3.75,0-4.551-0.399c-1-0.5-1.483-1.117-1.449-1.851c0.233-1.066,0.383-2,0.449-2.8c0.034-0.667,0.034-1.3,0-1.9
			c0.301,0.801,0.617,1.284,0.95,1.45c0.867,0.434,1.717-0.033,2.55-1.399c0.267-0.467,0.733-1.517,1.4-3.15
			c0.2,0.434,0.434,1.233,0.7,2.4c0.233,1.066,0.5,1.85,0.8,2.35c-0.033-1.167,0.35-3.066,1.15-5.7c0.767-2.5,1.083-4.45,0.949-5.85
			c-0.166-1.7-1.066-3.917-2.699-6.65c-1.667-2.767-2.601-4.916-2.801-6.45c-0.133-2.1-0.283-3.649-0.449-4.649
			c-0.233-1.667-0.834-3.033-1.801-4.101c-0.666-0.767-1.399-1.833-2.199-3.199c-0.9-1.601-1.584-2.7-2.051-3.301
			c-1.199-1.466-2.033-2.583-2.5-3.35c-3.5,0.667-6.716,1.083-9.649,1.25c-3.4,0.134-6.684-0.066-9.851-0.6
			c-0.866-0.134-2.1-0.551-3.7-1.25c-1.566-0.667-2.8-1.067-3.7-1.2c-1.534-0.2-3.633-0.084-6.3,0.35c-3,0.467-5.1,0.684-6.3,0.65
			c-0.2-0.7,0.1-1.617,0.9-2.75c0.967-1.4,1.5-2.316,1.6-2.75c0.2-1.101,0-2.65-0.6-4.65c-0.667-2.2-0.983-3.783-0.95-4.75
			c0.633,1.4,1.5,2.617,2.6,3.65c0.167,1.3,0.434,2.233,0.8,2.8c0.533,0.833,1.417,1.316,2.65,1.45c0.767,0.1,1.35,0.083,1.75-0.05
			c0.367-0.167,0.783-0.551,1.25-1.15l0.55-0.6c0.6-0.167,1.167-0.4,1.7-0.7l0.65-0.45v0.25c0.1,0.6,0.15,1.5,0.15,2.7
			c1.2-0.267,2.184-0.834,2.95-1.7c0.467-0.5,0.816-0.95,1.05-1.35c0.133-0.167,0.65-0.317,1.55-0.45L68,135.6
			c-1.633,0.7-2.25,1.551-1.85,2.551c3.5,0.399,6-0.95,7.5-4.051c-0.034,0.334-0.267,1.351-0.7,3.051c-0.3,1.267-0.4,2.267-0.3,3
			c2.433,0.333,4.566-0.217,6.399-1.65c1.066-0.866,2.733-2.384,5-4.55c0.8-0.566,1.783-1.167,2.95-1.8
			c0.866-0.601,1.4-1.534,1.6-2.801c0.567-3.466,0.334-8.199-0.699-14.199c-0.601-0.767-1.15-2.017-1.65-3.75
			c-0.6-2.034-1.05-3.351-1.35-3.95c-2.2-4-4.301-5.55-6.301-4.65c-0.366,0.167-0.833,0.534-1.399,1.1
			c-0.467,0.5-0.983,0.8-1.55,0.9c-0.733,0.133-1.534,0.017-2.4-0.35c-0.833-0.333-1.517-0.784-2.05-1.35
			c-0.4-0.434-0.816-0.983-1.25-1.65c-0.467-0.7-0.834-1.2-1.101-1.5c-0.5-0.5-0.966-0.867-1.399-1.1
			c-0.8-0.467-1.917-0.85-3.35-1.15c-1.633-0.333-2.783-0.633-3.45-0.9c1.267,0,2.633-0.2,4.1-0.6c1.767-0.5,2.934-1.15,3.5-1.95
			c0.434-0.6,0.616-1.367,0.55-2.3c-0.066-0.967-0.383-1.65-0.95-2.05c-0.333-0.233-0.699-0.316-1.1-0.25
			c1.233-0.333,2.267-1.1,3.1-2.3c1.067-1.533,1.75-3.833,2.051-6.9c0.133-1.133,0.199-2.633,0.199-4.5
			c0.034,1.233,0.117,2.716,0.25,4.45c0.5,6.067,1.417,10.6,2.75,13.6c1.434,3.267,3.267,4.15,5.5,2.65l0.351-0.3
			c0.899,0.233,1.467,0.4,1.7,0.5c0.6,0.233,1.1,0.55,1.5,0.95c0.366,0.434,0.716,1.2,1.05,2.3c0.399,1.233,0.7,2.033,0.899,2.4
			c1.067,2.067,1.634,3.167,1.7,3.3c0.334,0.7,0.55,1.5,0.65,2.4c0,0.033,0.133,1.633,0.399,4.8c0.134,1.833,0.384,3.417,0.75,4.75
			c0.267,1,0.717,3.134,1.351,6.4c0.733,2.933,1.583,4.767,2.55,5.5c0.2-1.233,0.3-4.717,0.3-10.45
			c-0.033-4.367,0.517-7.684,1.65-9.95c1.1-2.2,1.666-3.35,1.7-3.45c0.533-1.267,0.85-2.5,0.949-3.7c0.067-1.1,0.067-3.867,0-8.3V91
			z M69.55,135.05l0.4-0.3c0.233-0.2,0.717-0.7,1.45-1.5c0.533-0.667,1.05-1.116,1.55-1.35c-0.566,1.166-1.167,1.983-1.8,2.449
			C70.983,134.483,70.45,134.717,69.55,135.05z M25.45,189.6c0.867-0.3,1.566-0.783,2.1-1.449c0.767-0.934,1.483-2.334,2.15-4.2
			l0.95-2.7c2.6-5.967,4.434-10.45,5.5-13.45v0.4c-0.066,2.066-0.383,4.883-0.95,8.45c-0.633,4.1-1.017,6.916-1.15,8.449
			c-0.066,1.233-0.117,3.284-0.15,6.15l-1.1,5c-0.167,0.3-0.316,0.566-0.45,0.8l-0.05,0.05c0.067-0.333,0.233-0.816,0.5-1.449
			l0.2-0.601c-2.333-0.333-3.967-0.95-4.9-1.85l-0.55-0.601c-0.633-0.666-1.15-1.316-1.55-1.949
			C25.8,190.283,25.617,189.934,25.45,189.6z M46.4,201.15c-0.133-0.034-0.267-0.067-0.4-0.101c-0.833-0.166-1.7-0.366-2.6-0.6
			c-0.533-0.134-1.367-0.283-2.5-0.45c-1.167-0.2-2.033-0.366-2.6-0.5l-2.85-0.45c-0.5-0.066-0.917-0.133-1.25-0.2
			c1.5-0.366,3.033-1.083,4.6-2.149c1.467-1.033,2.383-2.117,2.75-3.25c0.167-0.5,0.35-1.884,0.55-4.15
			c0.6-0.066,1.583-0.066,2.95,0c1.2,0,2.067-0.3,2.6-0.899c-0.566,1.267-1.333,2.683-2.3,4.25c-1.167,1.767-2.05,3.116-2.65,4.05
			c1.466,0.133,2.733,0.083,3.8-0.15l-1.2,0.65c-0.667,0.233-1.133,0.399-1.4,0.5c-0.4,0.166-0.667,0.483-0.8,0.95
			c0.467,0.1,1.3,0.1,2.5,0c1.033,0,1.683,0.316,1.95,0.949C47.25,200.4,46.867,200.917,46.4,201.15z M59.15,182.95
			c-0.767,2.733-1.733,5.333-2.9,7.8c-0.433,0.9-0.95,1.483-1.55,1.75c-0.833,0.2-1.534,0.4-2.1,0.6
			c-0.667,0.267-1.583,0.733-2.75,1.4c0.4-0.5,0.883-1.333,1.45-2.5c0.567-1.2,1.034-2.066,1.4-2.6c1.7-2.2,3-4.867,3.9-8
			c0.4-1.367,0.75-3.367,1.05-6c0.367-3.101,0.65-5.167,0.85-6.2c0.3-1.3,0.583-2.283,0.85-2.95c-0.1,1.434-0.15,3.467-0.15,6.1
			c-0.034,2.334-0.083,3.834-0.15,4.5C58.85,179.45,58.883,181.483,59.15,182.95z M71.4,204.95c-0.367,0.1-0.717,0.184-1.051,0.25
			l-2.85,0.35c-0.033,0-0.066,0-0.1,0c-0.067,0-0.117,0-0.15,0c-2.667,0-5.05-0.1-7.15-0.3c0-7.2,0.033-11.833,0.1-13.9l0.05-4.649
			l0.35,0.05v2.55c0,0.434-0.1,1.601-0.3,3.5c-0.1,1.834,0.017,2.983,0.35,3.45c0.567,0.767,1.617,0.934,3.15,0.5
			c0.833-0.2,1.917-0.533,3.25-1c0.134,0.767,0,1.816-0.4,3.15c-0.133,0.899,0.517,1.333,1.95,1.3c1.101,0,2.301-0.45,3.601-1.351
			c0.767-0.533,1.416-1.216,1.95-2.05c0.066-0.066,0.566-0.916,1.5-2.55c0.466-0.733,1.199-1.85,2.199-3.35
			c0.867-1.334,1.467-2.5,1.801-3.5c0.166-0.467,0.283-1.551,0.35-3.25l0.3-2c0.167-0.601,0.467-1.101,0.9-1.5l0.3-0.2
			c0.8,1.434,1.066,3.649,0.8,6.649c-0.033,0.767-0.116,1.884-0.25,3.351c-0.066,1.233-0.033,2.233,0.101,3
			c1.899-0.8,2.833-2.634,2.8-5.5c-0.066-4.066-0.033-6.3,0.1-6.7l0.15-0.45c0.2-0.467,0.55-0.883,1.05-1.25
			c0.267-0.2,0.684-0.5,1.25-0.899c-0.1,0.933-0.483,1.783-1.15,2.55c2.2,1.467,2.95,4.85,2.25,10.149
			c-0.133,1.2-0.449,2.284-0.949,3.25c-0.601,1.167-1.317,1.884-2.15,2.15s-1.717,0.033-2.65-0.7
			c-0.933-0.733-1.666-0.983-2.199-0.75c0.233,1.167,0.267,2.101,0.1,2.8c-0.2,0.801-0.717,1.667-1.55,2.601
			c-1.167,1.366-2.233,2.25-3.2,2.649c-0.4,0.167-1.15,0.367-2.25,0.601c-0.866,0.166-1.6,0.45-2.2,0.85L71.4,204.95z M93.05,186.05
			c-0.267-0.666-0.75-1.616-1.45-2.85c-0.566-0.934-0.899-1.95-1-3.05c0.034-1.367,0.034-2.5,0-3.4c-0.033-1.9-0.316-4.033-0.85-6.4
			c-0.733-2.733-1.283-4.8-1.65-6.199c0.134-0.467,0.25-0.767,0.351-0.9c0.733,1.333,1.35,3.217,1.85,5.65
			c0.7,3.6,1.101,5.566,1.2,5.899c0.467,1.667,0.816,3.8,1.05,6.4C92.616,181.767,92.783,183.384,93.05,186.05z"/>
		<path style="fill-rule:evenodd;clip-rule:evenodd;fill:#3F3932;" d="M76.6,17.45c-0.899-1.833-1.783-3.75-2.649-5.75
			c-0.033-0.1-0.417-0.867-1.15-2.3c-0.399-0.8-0.633-1.633-0.7-2.5l-0.05-1.5c0.267-0.6,0.45-1.15,0.55-1.65c0-0.7,0-1.233,0-1.6
			c0-0.633,0.134-1.117,0.4-1.45L73.15,0l0.35,0.3c0.333,0.4,0.583,0.833,0.75,1.3V0.55c0.167,0.833,0.583,2,1.25,3.5
			c0.7,1.567,1.134,2.75,1.3,3.55C76.9,8,77.017,8.833,77.15,10.1c0.133,1.033,0.3,1.85,0.5,2.45c0.933,3.167,1.6,5.717,2,7.65
			c0.033,0.133,0.066,0.3,0.1,0.5l0.15,2.1c0,0.534,0.017,1,0.05,1.4l0.1,0.95c0.033,0.067,0.05,0.133,0.05,0.2
			c-0.5-0.767-0.883-1.517-1.149-2.25c-0.267-0.9-0.483-1.567-0.65-2c-0.233-0.767-0.5-1.434-0.8-2L76.6,17.45z M98.1,91v2.8
			c0.067,4.434,0.067,7.2,0,8.3c-0.1,1.2-0.416,2.433-0.949,3.7c-0.034,0.1-0.601,1.25-1.7,3.45c-1.134,2.267-1.684,5.583-1.65,9.95
			c0,5.733-0.1,9.217-0.3,10.45c-0.967-0.733-1.816-2.567-2.55-5.5c-0.634-3.267-1.084-5.4-1.351-6.4
			c-0.366-1.333-0.616-2.917-0.75-4.75c-0.267-3.167-0.399-4.767-0.399-4.8c-0.101-0.9-0.316-1.7-0.65-2.4
			c-0.066-0.133-0.633-1.233-1.7-3.3c-0.199-0.367-0.5-1.167-0.899-2.4c-0.334-1.1-0.684-1.867-1.05-2.3
			c-0.4-0.4-0.9-0.716-1.5-0.95c-0.233-0.1-0.801-0.267-1.7-0.5L80.1,96.1c0.2-0.733,0.567-1.583,1.101-2.55
			c0.3-0.533,0.767-1.333,1.399-2.4c0.5-0.867,0.884-1.633,1.15-2.3c0.333-0.934,0.6-2.45,0.8-4.55c0.233-2,0.55-3.517,0.95-4.55
			c0.134,1,0.55,3.25,1.25,6.75c0.533,2.733,0.816,4.967,0.85,6.7c0,0.566-0.05,1.517-0.149,2.85c0.033,1.167,0.399,1.9,1.1,2.2
			c1.5,0.667,2.533-0.767,3.101-4.3c0.233-1.467,0.383-3.817,0.449-7.05c0.2-2.1,0.334-3.633,0.4-4.6
			c0.134-1.667-0.033-3.216-0.5-4.65c-0.3-0.967-1.066-2.333-2.3-4.1c-1.2-1.667-1.917-3-2.15-4c-0.3-1.267-0.399-3.233-0.3-5.9
			c0.1-2.767,0.033-4.767-0.2-6c-0.166-0.833-0.75-2.683-1.75-5.55c0.634-1.633,1.084-2.467,1.351-2.5l0.55,1.15l0.05-0.2l0.3,0.85
			c0.3,0.5,0.517,0.917,0.65,1.25c0.533,1.1,0.85,1.9,0.95,2.4c0.133,0.633,0.216,1.467,0.25,2.5l0.899,1.7
			c0.434,0.5,0.717,0.967,0.851,1.4c0.133,0.333,0.199,0.633,0.199,0.9c0.267,0.6,0.417,1.1,0.45,1.5
			c0.066,0.5,0.084,1.317,0.05,2.45c-0.066,1.067-0.05,1.867,0.051,2.4v0.25l0.5,1.95c0.267,1.033,0.75,2.533,1.449,4.5
			c0.667,2,1.134,3.483,1.4,4.45c0.233,0.9,0.483,2.25,0.75,4.05c0.233,1.767,0.483,3.1,0.75,4c0.033,0.167,0.417,1.283,1.15,3.35
			c0,0.033,0.017,0.083,0.05,0.15C97.983,90.733,98.033,90.867,98.1,91z M68,135.6l1.55-0.55c0.9-0.333,1.434-0.566,1.601-0.7
			c0.633-0.466,1.233-1.283,1.8-2.449c0.399-0.801,0.816-1.9,1.25-3.301c0.566-1.833,0.866-2.8,0.899-2.899l0.5-1
			c-0.333,4.3-0.983,7.434-1.949,9.399c-1.5,3.101-4,4.45-7.5,4.051C65.75,137.15,66.367,136.3,68,135.6z M59,136.95l-0.35,0.45
			L58.1,138c-0.467,0.6-0.883,0.983-1.25,1.15c-0.4,0.133-0.983,0.149-1.75,0.05c-1.233-0.134-2.117-0.617-2.65-1.45
			c-0.367-0.566-0.633-1.5-0.8-2.8v-0.05l-0.1-1.551c0.7,0.733,1.583,1.45,2.65,2.15c1.433,0.967,2.65,1.483,3.65,1.55
			c0.333,0,0.566-0.033,0.7-0.1c0.333-0.066,0.583-0.184,0.75-0.351L59,136.95z M72.925,204.525
			c-0.586,0.17-1.094,0.312-1.524,0.425l0.149-0.15c0.601-0.399,1.334-0.684,2.2-0.85c1.1-0.233,1.85-0.434,2.25-0.601
			c0.967-0.399,2.033-1.283,3.2-2.649c0.833-0.934,1.35-1.8,1.55-2.601c0.167-0.699,0.134-1.633-0.1-2.8
			c0.533-0.233,1.267,0.017,2.199,0.75c0.934,0.733,1.817,0.967,2.65,0.7s1.55-0.983,2.15-2.15c0.5-0.966,0.816-2.05,0.949-3.25
			c0.7-5.3-0.05-8.683-2.25-10.149c0.667-0.767,1.051-1.617,1.15-2.55c0.066-0.5,0.1-1.684,0.1-3.551
			c0.067-2.833,0.117-4.966,0.15-6.399c0.066-2.566,0.017-4.684-0.15-6.351l-0.1-0.55l0.6,2.351c0.367,1.399,0.917,3.466,1.65,6.199
			c0.533,2.367,0.816,4.5,0.85,6.4c0.034,0.9,0.034,2.033,0,3.4c0.101,1.1,0.434,2.116,1,3.05c0.7,1.233,1.184,2.184,1.45,2.85
			c0.334,0.867,0.517,1.717,0.55,2.55c0.034,0.601,0.034,1.233,0,1.9c-0.066,0.8-0.216,1.733-0.449,2.8
			c-0.034,0.733,0.449,1.351,1.449,1.851c0.801,0.399,2.317,0.533,4.551,0.399c1.199-0.066,2.699-0.2,4.5-0.399
			c2.166-0.134,3.399-0.217,3.699-0.25c1.7-0.267,2.801-0.834,3.301-1.7c0.5-0.834,0.483-1.65-0.051-2.45
			c-0.767-0.934-1.316-1.7-1.649-2.3c-0.934-1.667-1.517-3.684-1.75-6.05c-0.066-0.434-0.117-1.65-0.15-3.65
			c-0.033-1.467-0.2-2.667-0.5-3.6c-0.3-0.967-0.767-2.067-1.399-3.301c-0.7-1.433-1.233-2.5-1.601-3.199
			c-0.533-1.067-0.783-2.817-0.75-5.25c0-2.367-0.267-4.034-0.8-5c-0.267-0.5-1-1.467-2.2-2.9c-0.967-1.167-1.6-2.233-1.899-3.2
			c-0.334-1.133-0.567-2.916-0.7-5.35c-0.134-2.4-0.384-4.184-0.75-5.351c-0.4-1.333-0.783-1.983-1.15-1.949
			c-0.7,0.466-1.434,0.866-2.2,1.199c-0.933,0.434-2.583,0.867-4.949,1.301l-1,0.199c-1.067,0.2-2.317,0.317-3.75,0.351
			c-1.667,0-2.934,0-3.801,0c-0.733,0.033-1.5-0.117-2.3-0.45c-0.967-0.366-1.684-0.583-2.149-0.65
			c0.133-0.399,0.716-0.899,1.75-1.5c0.533-0.3,1.3-0.733,2.3-1.3c1.267-0.833,3.133-2.066,5.6-3.7
			c2.066-1.466,3.65-3.017,4.75-4.649c0,1,0.033,1.733,0.101,2.2c2.566,0.366,4.216,0.216,4.949-0.45c0.534-0.5,0.967-1.5,1.301-3
			c0.433-1.967,0.699-3.066,0.8-3.3c0.6,0.767,1.017,1.899,1.25,3.399c0.166,0.867,0.333,2.134,0.5,3.8
			c0.233,1.434,0.733,3.684,1.5,6.75c0.2,0.867,0.767,2.767,1.7,5.7c0.767,2.367,1.25,4.267,1.449,5.7
			c0.467,3.533,1.167,6.316,2.101,8.35c0.133,0.267,1.083,1.567,2.85,3.9c1.233,1.6,1.75,3.033,1.55,4.3
			c0.967-0.233,1.9-1.25,2.801-3.05c0.033,0.134,0.083,0.267,0.149,0.4c0.134,0.533,0.25,0.966,0.351,1.3
			c0.566,1.6,0.983,3.816,1.25,6.649c0.333,3.601,0.583,5.884,0.75,6.851c0.166,0.8,0.366,1.983,0.6,3.55
			c0.233,1.4,0.517,2.583,0.85,3.55c0.267,0.667,0.534,1.316,0.801,1.95c0.1,0.4-0.184,0.917-0.851,1.55
			c-0.166,0.167-1.35,1.15-3.55,2.95c-0.767,0.634-1.566,1.116-2.4,1.45c-0.066,0.533-0.316,1.149-0.75,1.85
			c-0.6,0.934-0.949,1.533-1.05,1.8c-0.3,0.7-0.55,1.117-0.75,1.25c-0.233,0.134-0.983,0.284-2.25,0.45
			c-2.5,0.4-4.383,0.667-5.649,0.8c-1.367,0.134-3.067,0.217-5.101,0.25c-2.3,0.034-4.033,0.067-5.2,0.101
			c-0.733,0.5-1.816,0.75-3.25,0.75c-1.699-0.101-2.949-0.15-3.75-0.15l-0.8,0.15c-0.934,0.267-1.6,0.45-2,0.55
			c-0.733,0.2-1.45,0.316-2.149,0.35l-0.75,0.051c-0.367,0.133-0.717,0.267-1.051,0.399L72.925,204.525z M59.55,136.35
			c0.233-0.267,0.417-0.649,0.55-1.149l2-0.5C60.7,135.533,59.85,136.083,59.55,136.35z M60.1,205.25c-0.167,0-0.333-0.017-0.5-0.05
			c-1.167-0.134-1.983-0.267-2.45-0.4c-0.566-0.2-1.233-0.6-2-1.2c-0.7-0.566-1.267-0.933-1.7-1.1
			c-0.333-0.134-0.983-0.267-1.95-0.4c-1.433-0.199-3.133-0.517-5.1-0.949c0.467-0.233,0.85-0.75,1.15-1.551
			c-0.267-0.633-0.917-0.949-1.95-0.949c-1.2,0.1-2.033,0.1-2.5,0c0.133-0.467,0.4-0.784,0.8-0.95c0.267-0.101,0.733-0.267,1.4-0.5
			l1.2-0.65c0.6-0.333,1.717-1.017,3.35-2.05c1.167-0.667,2.083-1.134,2.75-1.4c0.566-0.199,1.267-0.399,2.1-0.6
			c0.6-0.267,1.117-0.85,1.55-1.75c1.167-2.467,2.133-5.066,2.9-7.8l0.05,0.2c0.066,0.267,0.267,0.833,0.6,1.699
			c0.267,0.667,0.383,1.267,0.35,1.801l0.1,0.05l-0.05,4.649C60.133,193.417,60.1,198.05,60.1,205.25z"/>
		<path style="fill-rule:evenodd;clip-rule:evenodd;fill:#5E5140;" d="M72.35,80.4c0.167,0,0.384,0.083,0.65,0.25
			c0.2,0.167,0.4,0.833,0.6,2c0.2,1.067,0.567,1.733,1.101,2c0.767,0.4,1.399,0.333,1.899-0.2c0.301-0.267,0.634-0.85,1-1.75
			c0.434-1.133,0.617-2.7,0.551-4.7c-0.101-2.633-0.117-4.25-0.051-4.85c0.4-1.7,0.567-3,0.5-3.9c-0.033-0.6-0.199-1.45-0.5-2.55
			c-0.3-1.233-0.483-2.1-0.55-2.6c0-1.333-0.017-2.35-0.05-3.05c-0.066-1.233-0.35-2.183-0.85-2.85
			c-0.634-0.8-1.667-1.317-3.101-1.55c-1.866-0.3-3.017-0.566-3.45-0.8c1.2-1.233,1.784-3.35,1.75-6.35
			c-0.267-3.333-0.316-5.633-0.149-6.9c0.133,0.167,0.566,1.5,1.3,4c0.533,1.967,1.366,2.867,2.5,2.7c0.767-2.367,0.8-5.267,0.1-8.7
			c-0.267-1.267-0.433-3.35-0.5-6.25c-0.033-1-0.199-1.85-0.5-2.55c-0.1-0.167-0.566-0.917-1.399-2.25c-0.9-1.367-1.4-3.667-1.5-6.9
			C71.6,19.417,71.1,17.1,70.2,15.7c-0.733-0.967-1.233-1.667-1.5-2.1l-0.05-0.05L68.8,13c0.033-0.167,0.066-0.317,0.101-0.45
			c0.166-0.633,0.55-1.6,1.149-2.9c0.601-1.233,0.983-2.2,1.15-2.9l0.1,0.2l0.75-1.55l0.05,1.5c0.067,0.867,0.301,1.7,0.7,2.5
			c0.733,1.434,1.117,2.2,1.15,2.3c0.866,2,1.75,3.917,2.649,5.75c0.334,3.267,0.5,5.183,0.5,5.75c-0.033,1.167,0.167,2.6,0.601,4.3
			c0.533,2.133,0.833,3.55,0.899,4.25c0.101,0.9,0.034,3.1-0.199,6.6c-0.2,2.8-0.017,4.933,0.55,6.4c0.2,0.5,0.517,1.183,0.95,2.05
			c0.333,0.767,0.366,1.534,0.1,2.3c-0.6,1.7-2.333,2.967-5.2,3.8c1.834,2.467,3.983,3.117,6.45,1.95c1.9,7.566,2.85,15.8,2.85,24.7
			c0,2.333-0.133,4.417-0.399,6.25L82.6,91.15c-0.633,1.067-1.1,1.867-1.399,2.4c-0.533,0.967-0.9,1.817-1.101,2.55l0.851,0.25
			l-0.351,0.3c-2.233,1.5-4.066,0.617-5.5-2.65C73.767,91,72.85,86.467,72.35,80.4z M69.85,87.35l0.25-0.65
			c0.2-1.2,0.384-2.267,0.551-3.2c0.3-1.733,0.716-2.75,1.25-3.05C71.6,83.517,70.917,85.817,69.85,87.35z M69.55,135.05L68,135.6
			l-1.3,0.101c-0.9,0.133-1.417,0.283-1.55,0.45c-0.233,0.399-0.583,0.85-1.05,1.35c-0.767,0.866-1.75,1.434-2.95,1.7
			c0-1.2-0.05-2.101-0.15-2.7c0.6-0.2,1.017-0.45,1.25-0.75c0.433-0.566,0.8-1.6,1.1-3.1c0.4-1.834,0.667-2.95,0.8-3.351
			c1.333-0.066,2.15-0.133,2.45-0.2c0.833-0.133,1.583-0.416,2.25-0.85c0.567-0.366,1.034-0.866,1.4-1.5
			c0.6-1.1,0.917-1.667,0.95-1.7c0.133-0.166,0.483-0.55,1.05-1.149c0.434-0.434,0.717-0.851,0.85-1.25
			c0.167-0.367,0.217-1.017,0.15-1.95c-0.1-1-0.15-1.684-0.15-2.05c0-1,0.101-2.667,0.301-5c0.166-2.134,0.233-3.784,0.199-4.95
			c-0.066-1.434-0.566-2.8-1.5-4.1c-1.233-1.4-2.166-2.517-2.8-3.35l-0.2-0.05c-1.267-0.167-2.133-0.184-2.6-0.05
			c-0.5,0.1-1.117,0.45-1.85,1.05H64.1c-0.4,0.033-1.033,0.25-1.9,0.65c-0.733,0.333-1.434,0.467-2.1,0.4l-3.85-0.35
			c-1.867-0.8-3.567-2-5.1-3.6c-1.167-1.167-1.883-2.25-2.15-3.25c-0.2-0.7-0.217-1.716-0.05-3.05v-0.05
			c0.333,0.466,0.65,0.7,0.95,0.7l0.25,0.55c0.767,1.167,2.283,1.85,4.55,2.05c0.466,0.033,1.4,0.083,2.8,0.15
			c1.267,0,2.1-0.217,2.5-0.65c0.267-0.267,0.5-0.75,0.7-1.45c0.167-0.667,0.466-1.15,0.9-1.45c0.833-0.6,1.95-1.15,3.35-1.65
			c1.4-0.5,2.366-0.934,2.899-1.3c0.567,0.4,0.884,1.083,0.95,2.05c0.066,0.933-0.116,1.7-0.55,2.3c-0.566,0.8-1.733,1.45-3.5,1.95
			c-1.467,0.4-2.833,0.6-4.1,0.6c0.667,0.267,1.817,0.567,3.45,0.9c1.433,0.3,2.55,0.683,3.35,1.15c0.434,0.233,0.899,0.6,1.399,1.1
			c0.267,0.3,0.634,0.8,1.101,1.5c0.434,0.667,0.85,1.216,1.25,1.65c0.533,0.566,1.217,1.017,2.05,1.35
			c0.866,0.367,1.667,0.483,2.4,0.35c0.566-0.1,1.083-0.4,1.55-0.9c0.566-0.566,1.033-0.933,1.399-1.1c2-0.9,4.101,0.65,6.301,4.65
			c0.3,0.6,0.75,1.916,1.35,3.95c0.5,1.733,1.05,2.983,1.65,3.75c1.033,6,1.267,10.733,0.699,14.199
			c-0.199,1.267-0.733,2.2-1.6,2.801c-1.167,0.633-2.15,1.233-2.95,1.8c-2.267,2.166-3.934,3.684-5,4.55
			c-1.833,1.434-3.967,1.983-6.399,1.65c-0.101-0.733,0-1.733,0.3-3c0.434-1.7,0.666-2.717,0.7-3.051
			c0.966-1.966,1.616-5.1,1.949-9.399l-0.5,1c-0.033,0.1-0.333,1.066-0.899,2.899c-0.434,1.4-0.851,2.5-1.25,3.301
			c-0.5,0.233-1.017,0.683-1.55,1.35c-0.733,0.8-1.217,1.3-1.45,1.5L69.55,135.05z M58.65,137.4l0.35-0.45l1.35-0.25
			C59.817,137,59.25,137.233,58.65,137.4z M93.6,188.6c-0.033-0.833-0.216-1.683-0.55-2.55c-0.267-2.666-0.434-4.283-0.5-4.85
			c-0.233-2.601-0.583-4.733-1.05-6.4c-0.1-0.333-0.5-2.3-1.2-5.899c-0.5-2.434-1.116-4.317-1.85-5.65
			c-0.101,0.134-0.217,0.434-0.351,0.9l-0.6-2.351l0.1,0.55c-0.3-0.633-0.916-1.316-1.85-2.05c-1.066-0.866-1.833-1.633-2.3-2.3
			c-1.033-1.4-1.667-2.833-1.9-4.3c0-0.9-0.017-1.566-0.05-2c-0.066-0.733-0.35-1.334-0.85-1.8
			c-0.634-0.567-1.733-0.851-3.301-0.851c-0.267-0.033-1.433,0.017-3.5,0.15c-1.733,0.1-3.449,0.483-5.149,1.149
			c-1.066,0.4-2.633,1.167-4.7,2.301c-2,1.066-4.017,1.399-6.05,1c-0.934-0.2-1.817-0.717-2.65-1.551
			c-0.966-1-1.716-1.633-2.25-1.899c-0.933,0.833-1.6,1.366-2,1.6c-0.6,0.3-1.417,0.434-2.45,0.4l-1.95-0.05
			c-0.167-0.034-0.483-0.017-0.95,0.05h-0.1c-0.434,0.033-0.95,0.166-1.55,0.399l-2.15,0.551h-0.25c-1.2-0.134-1.833-0.75-1.9-1.851
			c-0.133-1.967-0.217-3-0.25-3.1c-0.167-0.434-0.433-0.851-0.8-1.25c-0.367-0.4-0.633-0.7-0.8-0.9l0.7-0.85l0.15-1.5
			c0.767,0.033,1.933,0.066,3.5,0.1c1.3-0.1,2.217-0.616,2.75-1.55c0.2-0.366,0.317-0.95,0.35-1.75
			c0.066-0.934,0.133-1.517,0.2-1.75c0.7-2.134,1.167-3.767,1.4-4.9c0.767-3.533,1.15-8.583,1.15-15.149
			c-0.1-1.8-0.15-3.167-0.15-4.101c0.033-1.666,0.383-2.933,1.05-3.8c0.267,2,0.367,4.533,0.3,7.601c-0.033,1.733-0.1,4.3-0.2,7.699
			c0,0.134-0.05,0.9-0.15,2.301c-0.067,1-0.05,1.75,0.05,2.25c0.233,1.066,1.117,2.483,2.65,4.25v0.05
			c-1.1-1.033-1.967-2.25-2.6-3.65c-0.033,0.967,0.284,2.55,0.95,4.75c0.6,2,0.8,3.55,0.6,4.65c-0.1,0.434-0.633,1.35-1.6,2.75
			c-0.8,1.133-1.1,2.05-0.9,2.75c1.2,0.033,3.3-0.184,6.3-0.65c2.667-0.434,4.767-0.55,6.3-0.35c0.9,0.133,2.133,0.533,3.7,1.2
			c1.6,0.699,2.833,1.116,3.7,1.25c3.167,0.533,6.45,0.733,9.851,0.6c2.934-0.167,6.149-0.583,9.649-1.25
			c0.467,0.767,1.301,1.884,2.5,3.35c0.467,0.601,1.15,1.7,2.051,3.301c0.8,1.366,1.533,2.433,2.199,3.199
			c0.967,1.067,1.567,2.434,1.801,4.101c0.166,1,0.316,2.55,0.449,4.649c0.2,1.534,1.134,3.684,2.801,6.45
			c1.633,2.733,2.533,4.95,2.699,6.65c0.134,1.399-0.183,3.35-0.949,5.85c-0.801,2.634-1.184,4.533-1.15,5.7
			c-0.3-0.5-0.566-1.283-0.8-2.35c-0.267-1.167-0.5-1.967-0.7-2.4c-0.667,1.634-1.134,2.684-1.4,3.15
			c-0.833,1.366-1.683,1.833-2.55,1.399C94.217,189.884,93.9,189.4,93.6,188.6z M39.05,171.15c-0.033,1.399-0.383,4.483-1.05,9.25
			c-0.533,3.8-0.65,6.883-0.35,9.25c2,0.267,3.95-0.051,5.85-0.95c0.5-0.2,1.433-0.55,2.8-1.05c1.267-0.5,2.133-0.967,2.6-1.4
			c0.267-0.267,0.65-1.134,1.15-2.6c0.633-1.267,1.517-2.551,2.65-3.851c2.2-2.5,4.133-6.033,5.8-10.6
			c-0.2,1.033-0.483,3.1-0.85,6.2c-0.3,2.633-0.65,4.633-1.05,6c-0.9,3.133-2.2,5.8-3.9,8c-0.367,0.533-0.833,1.399-1.4,2.6
			c-0.566,1.167-1.05,2-1.45,2.5c-1.633,1.033-2.75,1.717-3.35,2.05c-1.067,0.233-2.333,0.283-3.8,0.15
			c0.6-0.934,1.483-2.283,2.65-4.05c0.967-1.567,1.733-2.983,2.3-4.25c-0.533,0.6-1.4,0.899-2.6,0.899
			c-1.367-0.066-2.35-0.066-2.95,0c-0.2,2.267-0.383,3.65-0.55,4.15c-0.367,1.133-1.283,2.217-2.75,3.25
			c-1.566,1.066-3.1,1.783-4.6,2.149c-0.967-0.166-1.55-0.366-1.75-0.6c-0.233-0.233-0.284-0.616-0.15-1.15h0.05
			c0.167-0.267,0.316-0.55,0.45-0.85l1.1-5c0.033-2.866,0.083-4.917,0.15-6.15c0.133-1.533,0.517-4.35,1.15-8.449
			c0.566-3.567,0.883-6.384,0.95-8.45l0.85-3.7c0.133-2.333,0.267-4.4,0.4-6.2c0.267-3.5,0.684-5.283,1.25-5.35
			c-0.1,1.934-0.1,4.25,0,6.95c0.067,1.533,0.184,3.85,0.35,6.949c-0.7,1.334-1.067,2.084-1.1,2.25
			c-0.333,0.867-0.417,1.717-0.25,2.551C38.183,171.783,38.65,171.616,39.05,171.15z M25.45,189.6
			c-0.04-0.079-0.073-0.146-0.1-0.199v-0.051c-0.023-0.05-0.04-0.101-0.05-0.149c-0.033-0.033-0.05-0.066-0.05-0.101
			c-0.067-0.466-0.05-1.017,0.05-1.649l0.3-1.601c0.167-0.633,0.4-1.316,0.7-2.05l0.05,0.05l0.7,0.351
			c0.833,0.333,1.367,0.483,1.6,0.45c0.167-0.034,0.517-0.267,1.05-0.7c-0.667,1.866-1.383,3.267-2.15,4.2
			C27.017,188.816,26.317,189.3,25.45,189.6z M60.65,186.8c0.167,3.101,0.7,5.733,1.6,7.9c1.1,0.033,2.55-0.417,4.35-1.351
			c1.7-0.866,2.867-1.699,3.5-2.5c0.7-0.899,0.767-2.199,0.2-3.899c-0.6-1.733-0.649-2.95-0.149-3.65
			c0.399-0.533,1.183-0.75,2.35-0.649c1.3,0.133,2.184,0.033,2.65-0.301c0.533-0.333,0.899-0.783,1.1-1.35
			c0.167-0.7,0.316-1.283,0.45-1.75c0.6-1.866,1.017-3.25,1.25-4.15l-0.05,2.45c0.1,2,0.199,3.25,0.3,3.75
			c0.267,1.601,0.833,2.667,1.7,3.2l0.1-0.35c-0.066,1.699-0.184,2.783-0.35,3.25c-0.334,1-0.934,2.166-1.801,3.5
			c-1,1.5-1.733,2.616-2.199,3.35c-0.934,1.634-1.434,2.483-1.5,2.55c-0.534,0.834-1.184,1.517-1.95,2.05
			c-1.3,0.9-2.5,1.351-3.601,1.351c-1.433,0.033-2.083-0.4-1.95-1.3c0.4-1.334,0.534-2.384,0.4-3.15c-1.333,0.467-2.417,0.8-3.25,1
			c-1.533,0.434-2.583,0.267-3.15-0.5c-0.333-0.467-0.45-1.616-0.35-3.45c0.2-1.899,0.3-3.066,0.3-3.5v-2.55L60.65,186.8z
			 M79.7,167.1c-0.033,0.134-0.283,0.867-0.75,2.2c0.1-1.2,0.133-2.3,0.1-3.3L79.7,167.1z M80.9,178.15l0.3,2.5
			c-0.434,0.399-0.733,0.899-0.9,1.5C80.467,180.184,80.667,178.85,80.9,178.15z M85.05,181.25c-0.133,0.4-0.166,2.634-0.1,6.7
			c0.033,2.866-0.9,4.7-2.8,5.5c-0.134-0.767-0.167-1.767-0.101-3c0.134-1.467,0.217-2.584,0.25-3.351
			c0.334,1.134,0.733,1.834,1.2,2.101c0.033-1.9,0.066-3.283,0.1-4.15c0.034-1.533,0.5-2.783,1.4-3.75L85.05,181.25z"/>
		<path style="fill-rule:evenodd;clip-rule:evenodd;fill:#6C5C47;" d="M71.9,80.45c-0.534,0.3-0.95,1.316-1.25,3.05
			c-0.167,0.933-0.351,2-0.551,3.2l-0.25,0.65c-0.833,1.2-1.866,1.967-3.1,2.3c0.4-0.066,0.767,0.017,1.1,0.25
			c-0.533,0.367-1.5,0.8-2.899,1.3c-1.4,0.5-2.517,1.05-3.35,1.65c-0.434,0.3-0.733,0.783-0.9,1.45c-0.2,0.7-0.434,1.184-0.7,1.45
			c-0.4,0.433-1.233,0.65-2.5,0.65c-1.4-0.066-2.333-0.117-2.8-0.15c-2.267-0.2-3.784-0.883-4.55-2.05l-0.25-0.55
			c0.1,0,0.217-0.017,0.35-0.05c0.133-0.467,0.333-0.867,0.6-1.2l0.25-0.2c1.4-3.434,2.4-6.017,3-7.75V79.9
			c0-1.533,0.133-3.533,0.4-6c0.3-2.967,0.467-4.95,0.5-5.95c0.1-1.867,0.533-3.983,1.3-6.35c0.167-0.533,0.483-1.367,0.95-2.5
			c-0.967,2.6-1.583,4.617-1.85,6.05c0.733-0.066,1.3-0.05,1.7,0.05c1.5,0.333,2.217,1.533,2.15,3.6c0,0.034-0.25,1.7-0.75,5
			c-0.133,0.9-0.617,2.8-1.45,5.7c-0.533,2.633-0.183,4.383,1.05,5.25c1.533,1.067,2.783,0.617,3.75-1.35
			c0.867-2.533,1.417-4.167,1.65-4.9c0.2,0.867,0.267,2.067,0.2,3.6c-0.1,1.867-0.133,3.083-0.1,3.65c1.233-0.233,2.2-1.333,2.9-3.3
			c0.566-2.333,0.967-3.9,1.2-4.7c0.399-1.167,0.684-2.05,0.85-2.65c0.3-1,0.483-1.917,0.55-2.75
			c-0.066-1.067-0.116-1.917-0.149-2.55c-0.033-1.2,0.2-1.917,0.7-2.15c1.066-0.5,1.767-0.267,2.1,0.7c0.2,0.5,0.3,1.333,0.3,2.5
			c0.033,0.833,0.167,1.883,0.4,3.15c0.267,1.6,0.434,2.633,0.5,3.1c0.467,3.433,1.2,4.316,2.2,2.65c0.1-0.167,0.116-0.6,0.05-1.3
			c-0.066-0.733-0.101-1.184-0.101-1.35c0-2.067-0.166-4.35-0.5-6.85c-0.033-0.333-0.066-1.517-0.1-3.55
			c-0.033-1.633-0.184-2.784-0.45-3.45c-0.3-0.8-0.883-1.35-1.75-1.65c-1.033-0.233-1.8-0.467-2.3-0.7
			c-0.6-0.267-1.167-0.85-1.7-1.75c-0.566-1-1-1.617-1.3-1.85c-0.833-0.566-2.183-0.9-4.05-1c-2.167,0.034-3.717,0.034-4.65,0
			c0.133-0.267,0.25-0.55,0.35-0.85c0.067-0.133,0.383-1.267,0.95-3.4c-0.067-1.333-0.017-2.417,0.15-3.25
			c0.167-0.8,0.65-1.9,1.45-3.3c0.867-3.3,1.433-5.767,1.7-7.4c0.333-1.9,0.583-3.117,0.75-3.65c0.3-0.967,0.817-2.383,1.55-4.25
			c0.066-1.4,0.183-2.633,0.35-3.7c0.133-0.767,0.45-1.65,0.95-2.65c0.6-1.167,1.05-2.067,1.35-2.7
			c0.367-0.767,0.551-2.033,0.551-3.8c0.033-1.6,0.133-2.85,0.3-3.75c0.267,0.433,0.767,1.133,1.5,2.1
			c0.899,1.4,1.399,3.716,1.5,6.95c0.1,3.233,0.6,5.533,1.5,6.9c0.833,1.333,1.3,2.083,1.399,2.25c0.301,0.7,0.467,1.55,0.5,2.55
			c0.067,2.9,0.233,4.983,0.5,6.25c0.7,3.433,0.667,6.333-0.1,8.7c-1.134,0.167-1.967-0.733-2.5-2.7c-0.733-2.5-1.167-3.833-1.3-4
			c-0.167,1.267-0.117,3.566,0.149,6.9c0.034,3-0.55,5.117-1.75,6.35c0.434,0.233,1.584,0.5,3.45,0.8
			c1.434,0.233,2.467,0.75,3.101,1.55c0.5,0.667,0.783,1.617,0.85,2.85c0.033,0.7,0.05,1.717,0.05,3.05
			c0.066,0.5,0.25,1.367,0.55,2.6c0.301,1.1,0.467,1.95,0.5,2.55c0.067,0.9-0.1,2.2-0.5,3.9c-0.066,0.6-0.05,2.217,0.051,4.85
			c0.066,2-0.117,3.567-0.551,4.7c-0.366,0.9-0.699,1.483-1,1.75c-0.5,0.533-1.133,0.6-1.899,0.2c-0.533-0.267-0.9-0.933-1.101-2
			c-0.199-1.167-0.399-1.833-0.6-2c-0.267-0.167-0.483-0.25-0.65-0.25c-0.133-1.733-0.216-3.217-0.25-4.45
			C72.1,77.817,72.033,79.317,71.9,80.45z M56.25,102.9c-1.133-0.2-1.983-0.383-2.55-0.55c-0.7-0.233-1.434-0.867-2.2-1.9
			c-0.7-1.034-1.333-1.617-1.9-1.75l-0.5,0.5c0.233,0.333,0.55,1,0.95,2c0.333,0.833,0.717,1.5,1.15,2l1.55,1.7l-2.15-0.2l1,5
			c-1.167,5.333-1.317,10.666-0.45,16c0.667,0.066,1.15-0.217,1.45-0.851c0.333-0.8,0.7-1.283,1.1-1.449
			c0.733,0.5,1.25,1.466,1.55,2.899c0.067,0.3,0.2,1.417,0.4,3.351c1.033,0.366,1.633-0.4,1.8-2.301c0-2.199,0-3.517,0-3.949
			c0-1.834,0.033-3.25,0.1-4.25c0.1-1.767,0.567-3.051,1.4-3.851c0.233,0.101,0.85,1.101,1.85,3c0.8,1.566,1.7,2.017,2.7,1.351
			c0.433-0.301,0.65-0.95,0.65-1.95c-0.066-1.066-0.1-1.767-0.1-2.101c0.034-0.699,0.217-1.699,0.55-3c0.333-1.333,0.5-2.333,0.5-3
			c0-0.899-0.1-1.633-0.3-2.2c0.6-0.1,1-0.3,1.2-0.6c0.567-0.767,0.7-1.683,0.4-2.75c-0.267-1.066-0.85-1.683-1.75-1.85
			c0.733-0.6,1.35-0.95,1.85-1.05c0.467-0.133,1.333-0.117,2.6,0.05l0.2,0.05c0.634,0.833,1.566,1.95,2.8,3.35
			c0.934,1.3,1.434,2.667,1.5,4.1c0.034,1.166-0.033,2.816-0.199,4.95c-0.2,2.333-0.301,4-0.301,5c0,0.366,0.051,1.05,0.15,2.05
			c0.066,0.934,0.017,1.583-0.15,1.95c-0.133,0.399-0.416,0.816-0.85,1.25c-0.566,0.6-0.917,0.983-1.05,1.149
			c-0.033,0.033-0.351,0.601-0.95,1.7c-0.366,0.634-0.833,1.134-1.4,1.5c-0.666,0.434-1.416,0.717-2.25,0.85
			c-0.3,0.067-1.117,0.134-2.45,0.2c-0.133,0.4-0.4,1.517-0.8,3.351c-0.3,1.5-0.667,2.533-1.1,3.1c-0.233,0.3-0.65,0.55-1.25,0.75
			v-0.25l-0.65,0.45L59,136.95l0.3-0.351c-0.167,0.167-0.417,0.284-0.75,0.351c-0.133,0.066-0.367,0.1-0.7,0.1
			c-1-0.066-2.217-0.583-3.65-1.55c-1.067-0.7-1.95-1.417-2.65-2.15l0.1,1.551c-1.533-1.767-2.417-3.184-2.65-4.25
			c-0.1-0.5-0.117-1.25-0.05-2.25c0.1-1.4,0.15-2.167,0.15-2.301c0.1-3.399,0.167-5.966,0.2-7.699
			c0.067-3.067-0.033-5.601-0.3-7.601c-0.667,0.867-1.017,2.134-1.05,3.8c0,0.934,0.05,2.301,0.15,4.101
			c0,6.566-0.383,11.616-1.15,15.149c-0.233,1.134-0.7,2.767-1.4,4.9c-0.066,0.233-0.133,0.816-0.2,1.75
			c-0.033,0.8-0.15,1.384-0.35,1.75c-0.533,0.934-1.45,1.45-2.75,1.55c-1.567-0.033-2.733-0.066-3.5-0.1l0.15-1.4
			c0.1-1.066,0.317-2.75,0.65-5.05c0.3-2.167,0.5-3.833,0.6-5c0-0.733,0.033-1.4,0.1-2c1.033-0.1,1.817-0.783,2.35-2.05
			c0.467-1.601,0.8-2.733,1-3.4c0.333-1.1,0.667-2.883,1-5.35c0.267-2.267,0.633-4.017,1.1-5.25c0.833-1.8,1.45-3.25,1.85-4.351
			c0.733-2.066,0.9-3.566,0.5-4.5c-0.133-0.333-0.683-0.733-1.65-1.2c-1-0.467-1.6-0.967-1.8-1.5c-0.2-0.433-0.267-1.133-0.2-2.1
			c0.133-1.033,0.2-1.733,0.2-2.1l0.05-0.85c0.5-1.434,0.867-2.617,1.1-3.55c0.3-1,0.567-1.583,0.8-1.75
			c0.3-0.2,0.934-0.117,1.9,0.25c0.1,0.034,0.267,0.184,0.5,0.45c-0.167,1.333-0.15,2.35,0.05,3.05c0.267,1,0.983,2.083,2.15,3.25
			C52.683,100.9,54.383,102.1,56.25,102.9z M112.325,164.4c0.063,0.267,0.138,0.517,0.225,0.75c-0.066-0.134-0.116-0.267-0.149-0.4
			L112.325,164.4z M103.9,120.55c0.133,0.367,0.283,0.9,0.449,1.601c-0.1-0.334-0.183-0.634-0.25-0.9L103.9,120.55z M59.55,136.35
			c0.3-0.267,1.15-0.816,2.55-1.649l-2,0.5C59.967,135.7,59.783,136.083,59.55,136.35z M36.15,168.2v-0.4
			c-1.066,3-2.9,7.483-5.5,13.45l-0.95,2.7c-0.534,0.434-0.883,0.666-1.05,0.7c-0.233,0.033-0.767-0.117-1.6-0.45l-0.7-0.351
			c1-2.333,1.683-3.933,2.05-4.8c1.167-2.899,1.9-6.467,2.2-10.7c0-0.066,0.017-0.133,0.05-0.199l1.75-2.2
			c0.533-0.7,0.883-1.384,1.05-2.05c0.066-0.4,0.117-1.2,0.15-2.4c-0.033-1.333-0.05-2.316-0.05-2.95c0-1.133,0.133-2.116,0.4-2.95
			c0.1-0.366,0.367-0.866,0.8-1.5c0.433-0.633,0.683-1.1,0.75-1.399c0.433-1.4,0.35-3.283-0.25-5.65c-0.133-0.6-0.75-2.533-1.85-5.8
			c-0.2,0.366-0.35,0.85-0.45,1.45c0-0.134,0-0.217,0-0.25c0.4-1.9,1.483-2.684,3.25-2.351c0.1,0.934,0.333,1.95,0.7,3.051
			c0.2,0.633,0.533,1.6,1,2.899c0.167,0.2,0.434,0.5,0.8,0.9c0.367,0.399,0.633,0.816,0.8,1.25c0.033,0.1,0.117,1.133,0.25,3.1
			c0.067,1.101,0.7,1.717,1.9,1.851h0.25l-0.3,0.05c0.133,1.8-0.017,3.866-0.45,6.2c-0.367,2.166-0.883,4.183-1.55,6.05
			c-0.133,0.467-0.333,0.934-0.6,1.399c-0.167-3.1-0.283-5.416-0.35-6.949c-0.1-2.7-0.1-5.017,0-6.95
			c-0.566,0.066-0.983,1.85-1.25,5.35c-0.133,1.8-0.267,3.867-0.4,6.2L36.15,168.2z M81.2,180.65l-0.3-2.5l0.199-0.45l1-16.5
			c-1.066,2.5-1.866,4.467-2.399,5.899l-0.65-1.1c0.033,1,0,2.1-0.1,3.3c-0.566,1.934-0.9,3.867-1,5.8
			c-0.233,0.9-0.65,2.284-1.25,4.15c-0.134,0.467-0.283,1.05-0.45,1.75c-0.2,0.566-0.566,1.017-1.1,1.35
			c-0.467,0.334-1.351,0.434-2.65,0.301c-1.167-0.101-1.95,0.116-2.35,0.649c-0.5,0.7-0.45,1.917,0.149,3.65
			c0.566,1.7,0.5,3-0.2,3.899c-0.633,0.801-1.8,1.634-3.5,2.5c-1.8,0.934-3.25,1.384-4.35,1.351c-0.9-2.167-1.433-4.8-1.6-7.9
			c0.4,0,0.684-0.033,0.85-0.1c0.067-2.101,0.183-3.9,0.35-5.4c0.267-2.866,0.667-4.399,1.2-4.6c0.534-0.2,1.55,0.434,3.05,1.899
			c1.466,1.467,2.766,1.95,3.9,1.45c0-1.866,0.717-4.467,2.15-7.8c1.5-3.467,2.316-6.066,2.449-7.8
			c0.301-3.467,0.084-6.066-0.649-7.8c-0.634-0.967-1.2-1.851-1.7-2.65c-1-1.533-1.384-2.517-1.15-2.95l-8,5.15
			c-2.1,0.366-3.35,3.717-3.75,10.05c-0.267,0.667-0.55,1.65-0.85,2.95c-1.667,4.566-3.6,8.1-5.8,10.6
			c-1.133,1.3-2.017,2.584-2.65,3.851c-0.5,1.466-0.883,2.333-1.15,2.6c-0.467,0.434-1.333,0.9-2.6,1.4
			c-1.367,0.5-2.3,0.85-2.8,1.05c-1.9,0.899-3.85,1.217-5.85,0.95c-0.3-2.367-0.183-5.45,0.35-9.25
			c0.667-4.767,1.017-7.851,1.05-9.25c0.2-0.2,0.483-0.567,0.85-1.101c0.367-0.434,0.733-0.7,1.1-0.8
			c0.267,0.533,0.45,1.15,0.55,1.85c0,0.034,0.017,0.684,0.05,1.95c0.033,0.667-0.167,2.533-0.6,5.601
			c-0.3,2.833-0.117,4.533,0.55,5.1c1.133,0.967,2.25-0.467,3.35-4.3c0.967-4.267,1.567-6.634,1.8-7.101
			c0.433-0.733,1.65-2.199,3.65-4.399c1.6-1.7,2.566-3.351,2.9-4.95c0.433-2.167,0.533-4.583,0.3-7.25
			c-0.333,0.033-1.1,0.483-2.3,1.35c-0.9,0.634-1.6,0.667-2.1,0.101c-0.167-0.2-0.45-1.134-0.85-2.8
			c-0.3-1.334-0.85-2.084-1.65-2.25l1.95,0.05c1.033,0.033,1.85-0.101,2.45-0.4c0.4-0.233,1.067-0.767,2-1.6
			c0.534,0.267,1.284,0.899,2.25,1.899c0.833,0.834,1.717,1.351,2.65,1.551c2.033,0.399,4.05,0.066,6.05-1
			c2.067-1.134,3.634-1.9,4.7-2.301c1.7-0.666,3.416-1.05,5.149-1.149c2.067-0.134,3.233-0.184,3.5-0.15
			c1.567,0,2.667,0.283,3.301,0.851c0.5,0.466,0.783,1.066,0.85,1.8c0.033,0.434,0.05,1.1,0.05,2c0.233,1.467,0.867,2.899,1.9,4.3
			c0.467,0.667,1.233,1.434,2.3,2.3c0.934,0.733,1.55,1.417,1.85,2.05c0.167,1.667,0.217,3.784,0.15,6.351
			c-0.033,1.434-0.083,3.566-0.15,6.399c0,1.867-0.033,3.051-0.1,3.551c-0.566,0.399-0.983,0.699-1.25,0.899
			c-0.5,0.367-0.85,0.783-1.05,1.25l-0.15,0.45L85,181.3c-0.9,0.967-1.366,2.217-1.4,3.75c-0.033,0.867-0.066,2.25-0.1,4.15
			c-0.467-0.267-0.866-0.967-1.2-2.101c0.267-3,0-5.216-0.8-6.649L81.2,180.65z M32.35,197.1v-0.05c0.133-0.233,0.283-0.5,0.45-0.8
			C32.667,196.55,32.517,196.833,32.35,197.1z M25.35,189.4c0.027,0.054,0.06,0.12,0.1,0.199c0.167,0.334,0.35,0.684,0.55,1.051
			C25.672,190.131,25.456,189.714,25.35,189.4z M70.35,205.2c0.334-0.066,0.684-0.15,1.051-0.25
			c0.431-0.113,0.938-0.255,1.524-0.425c-0.267,0.083-0.508,0.158-0.725,0.225C71.566,204.95,70.95,205.1,70.35,205.2z"/>
		<path style="fill-rule:evenodd;clip-rule:evenodd;fill:#76654E;" d="M57.25,59.1l0.45-1.25c0.2-0.5,0.4-1.017,0.6-1.55
			c0.934,0.034,2.483,0.034,4.65,0c1.867,0.1,3.216,0.434,4.05,1c0.3,0.233,0.733,0.85,1.3,1.85c0.533,0.9,1.101,1.483,1.7,1.75
			c0.5,0.233,1.267,0.467,2.3,0.7c0.867,0.3,1.45,0.85,1.75,1.65c0.267,0.667,0.417,1.817,0.45,3.45
			c0.033,2.033,0.066,3.216,0.1,3.55c0.334,2.5,0.5,4.783,0.5,6.85c0,0.167,0.034,0.617,0.101,1.35c0.066,0.7,0.05,1.133-0.05,1.3
			c-1,1.667-1.733,0.783-2.2-2.65c-0.066-0.467-0.233-1.5-0.5-3.1c-0.233-1.267-0.367-2.317-0.4-3.15c0-1.167-0.1-2-0.3-2.5
			c-0.333-0.967-1.033-1.2-2.1-0.7c-0.5,0.233-0.733,0.95-0.7,2.15c0.033,0.633,0.083,1.483,0.149,2.55
			c-0.066,0.833-0.25,1.75-0.55,2.75c-0.166,0.6-0.45,1.483-0.85,2.65c-0.233,0.8-0.634,2.367-1.2,4.7
			c-0.7,1.966-1.667,3.066-2.9,3.3c-0.033-0.567,0-1.783,0.1-3.65c0.066-1.533,0-2.733-0.2-3.6c-0.233,0.733-0.783,2.367-1.65,4.9
			c-0.967,1.967-2.217,2.417-3.75,1.35c-1.233-0.867-1.583-2.617-1.05-5.25c0.833-2.9,1.317-4.8,1.45-5.7c0.5-3.3,0.75-4.966,0.75-5
			c0.067-2.066-0.65-3.267-2.15-3.6c-0.4-0.1-0.967-0.117-1.7-0.05C55.667,63.717,56.283,61.7,57.25,59.1z M40.25,130.25H40.2
			l0.1-0.8c0.067-0.467,0.067-1.2,0-2.2c-0.066-0.967-0.083-1.7-0.05-2.2c0.033-0.434,0.183-1.017,0.45-1.75
			c0.333-0.866,0.533-1.434,0.6-1.7c0.3-1.366,0.617-3.55,0.95-6.55c0.1-0.733,0.25-3.25,0.45-7.55
			c0.167-3.133,0.517-5.617,1.05-7.45c0.4-1.167,0.7-2.05,0.9-2.65v0.2l-0.05,0.85c0,0.367-0.067,1.066-0.2,2.1
			c-0.066,0.967,0,1.667,0.2,2.1c0.2,0.533,0.8,1.033,1.8,1.5c0.967,0.467,1.517,0.867,1.65,1.2c0.4,0.933,0.233,2.433-0.5,4.5
			c-0.4,1.101-1.017,2.551-1.85,4.351c-0.467,1.233-0.833,2.983-1.1,5.25c-0.333,2.467-0.667,4.25-1,5.35
			c-0.2,0.667-0.533,1.8-1,3.4C42.067,129.467,41.283,130.15,40.25,130.25z M64.65,102.2c0.9,0.167,1.483,0.783,1.75,1.85
			c0.3,1.067,0.167,1.983-0.4,2.75c-0.2,0.3-0.6,0.5-1.2,0.6c0.2,0.567,0.3,1.3,0.3,2.2c0,0.667-0.167,1.667-0.5,3
			c-0.333,1.301-0.517,2.301-0.55,3c0,0.334,0.034,1.034,0.1,2.101c0,1-0.217,1.649-0.65,1.95c-1,0.666-1.9,0.216-2.7-1.351
			c-1-1.899-1.617-2.899-1.85-3c-0.833,0.8-1.3,2.084-1.4,3.851c-0.066,1-0.1,2.416-0.1,4.25c0,0.433,0,1.75,0,3.949
			c-0.167,1.9-0.767,2.667-1.8,2.301c-0.2-1.934-0.333-3.051-0.4-3.351c-0.3-1.434-0.817-2.399-1.55-2.899
			c-0.4,0.166-0.767,0.649-1.1,1.449c-0.3,0.634-0.783,0.917-1.45,0.851c-0.867-5.334-0.717-10.667,0.45-16l-1-5l2.15,0.2l-1.55-1.7
			c-0.434-0.5-0.817-1.167-1.15-2c-0.4-1-0.716-1.667-0.95-2l0.5-0.5c0.566,0.133,1.2,0.716,1.9,1.75c0.767,1.033,1.5,1.667,2.2,1.9
			c0.566,0.167,1.417,0.35,2.55,0.55l3.85,0.35c0.667,0.067,1.367-0.067,2.1-0.4c0.867-0.4,1.5-0.617,1.9-0.65H64.65z M32.95,142.7
			c0.1-0.601,0.25-1.084,0.45-1.45c1.1,3.267,1.717,5.2,1.85,5.8c0.6,2.367,0.683,4.25,0.25,5.65c-0.067,0.3-0.317,0.767-0.75,1.399
			c-0.433,0.634-0.7,1.134-0.8,1.5c-0.267,0.834-0.4,1.817-0.4,2.95c0,0.634,0.017,1.617,0.05,2.95c-0.033,1.2-0.083,2-0.15,2.4
			c-0.167,0.666-0.517,1.35-1.05,2.05l-1.75,2.2H30.6c0.033-0.467,0.066-0.967,0.1-1.5v-0.601c0.066-2.133,0.083-5.133,0.05-9
			c0-1.2,0.333-2.783,1-4.75s1-3.517,1-4.649c-0.033-1.434-0.033-2.551,0-3.351C32.783,143.7,32.85,143.167,32.95,142.7z
			 M41.9,153.15l2.15-0.551c0.6-0.233,1.117-0.366,1.55-0.399h0.1c0.466-0.066,0.783-0.084,0.95-0.05
			c0.8,0.166,1.35,0.916,1.65,2.25c0.4,1.666,0.684,2.6,0.85,2.8c0.5,0.566,1.2,0.533,2.1-0.101c1.2-0.866,1.967-1.316,2.3-1.35
			c0.233,2.667,0.133,5.083-0.3,7.25c-0.333,1.6-1.3,3.25-2.9,4.95c-2,2.2-3.217,3.666-3.65,4.399
			c-0.233,0.467-0.833,2.834-1.8,7.101c-1.1,3.833-2.217,5.267-3.35,4.3c-0.667-0.566-0.85-2.267-0.55-5.1
			c0.433-3.067,0.633-4.934,0.6-5.601c-0.033-1.267-0.05-1.916-0.05-1.95c-0.1-0.699-0.283-1.316-0.55-1.85
			c-0.367,0.1-0.733,0.366-1.1,0.8c-0.367,0.533-0.65,0.9-0.85,1.101c-0.4,0.466-0.867,0.633-1.4,0.5
			c-0.167-0.834-0.083-1.684,0.25-2.551c0.033-0.166,0.4-0.916,1.1-2.25c0.267-0.466,0.467-0.933,0.6-1.399
			c0.667-1.867,1.183-3.884,1.55-6.05c0.434-2.334,0.583-4.4,0.45-6.2L41.9,153.15z M60.65,186.8l-0.05-0.05l-0.35-0.05l-0.1-0.05
			c0.033-0.534-0.083-1.134-0.35-1.801c-0.333-0.866-0.533-1.433-0.6-1.699l-0.05-0.2c-0.267-1.467-0.3-3.5-0.1-6.101
			c0.067-0.666,0.117-2.166,0.15-4.5c0-2.633,0.05-4.666,0.15-6.1c0.4-6.333,1.65-9.684,3.75-10.05l8-5.15
			c-0.233,0.434,0.15,1.417,1.15,2.95c0.5,0.8,1.066,1.684,1.7,2.65c0.733,1.733,0.95,4.333,0.649,7.8
			c-0.133,1.733-0.949,4.333-2.449,7.8c-1.434,3.333-2.15,5.934-2.15,7.8c-1.134,0.5-2.434,0.017-3.9-1.45
			c-1.5-1.466-2.517-2.1-3.05-1.899c-0.533,0.2-0.933,1.733-1.2,4.6c-0.167,1.5-0.283,3.3-0.35,5.4
			C61.333,186.767,61.05,186.8,60.65,186.8z M78.95,169.3c0.467-1.333,0.717-2.066,0.75-2.2c0.533-1.433,1.333-3.399,2.399-5.899
			l-1,16.5l-0.199,0.45c-0.233,0.699-0.434,2.033-0.601,4l-0.3,2l-0.1,0.35c-0.867-0.533-1.434-1.6-1.7-3.2
			c-0.101-0.5-0.2-1.75-0.3-3.75l0.05-2.45C78.05,173.167,78.384,171.233,78.95,169.3z"/>
	</g>
</g>
</svg>
