<?xml version="1.0" encoding="iso-8859-1"?>
<!-- Generator: Adobe Illustrator 15.1.0, SVG Export Plug-In . SVG Version: 6.00 Build 0)  -->
<!DOCTYPE svg PUBLIC "-//W3C//DTD SVG 1.1//EN" "http://www.w3.org/Graphics/SVG/1.1/DTD/svg11.dtd">
<svg version="1.1" id="FlashAICB" xmlns="http://www.w3.org/2000/svg" xmlns:xlink="http://www.w3.org/1999/xlink" x="0px" y="0px"
	 width="124.85px" height="328.25px" viewBox="0 0 124.85 328.25" style="enable-background:new 0 0 124.85 328.25;"
	 xml:space="preserve">
<g>
	<g>
		
			<radialGradient id="SVGID_1_" cx="63.1504" cy="216.4502" r="170.725" gradientTransform="matrix(1 0 0 -1 0 432.9004)" gradientUnits="userSpaceOnUse">
			<stop  offset="0.1333" style="stop-color:#211C15"/>
			<stop  offset="0.8471" style="stop-color:#211C15;stop-opacity:0"/>
		</radialGradient>
		<path style="fill-rule:evenodd;clip-rule:evenodd;fill:url(#SVGID_1_);" d="M90.1,283.45c1.733,0.133,2.834,0.233,3.301,0.3
			c1.366,0.233,2.383,0.583,3.05,1.05c0.333,0.233,0.85,0.816,1.55,1.75c0.4,0.533,1.15,0.934,2.25,1.2
			c0.267,0.066,1.233,0.15,2.9,0.25c1.366,0.1,2.333,0.283,2.899,0.55c0.167,0.101,0.4,0.316,0.7,0.65
			c0.267,0.333,0.483,0.55,0.65,0.649c0.966,0.634,2.683,1.467,5.149,2.5c0.566,0.233,1.4,0.567,2.5,1
			c0.533,0.267,0.917,0.517,1.15,0.75c0.166,0.134,0.434,0.417,0.8,0.851c0.5,0.533,1.333,1.217,2.5,2.05
			c0.767,0.733,0.884,1.55,0.35,2.45c-0.366,0.566-1.35,1.184-2.949,1.85c-1.301,0.566-1.934,1.334-1.9,2.3
			c0.033,0.834,0.6,1.95,1.7,3.351c0.633,0.733,1.5,1.75,2.6,3.05c0.367,0.5,1.184,1.483,2.45,2.95c1.066,1.267,1.816,2.267,2.25,3
			c0.934,1.6,0.9,2.883-0.1,3.85c-0.733,0.667-2.034,1.217-3.9,1.65c-0.366,0.1-1.3,0.217-2.8,0.35c-1.2,0.101-2.101,0.316-2.7,0.65
			c-0.467,0.233-0.917,0.666-1.35,1.3c-0.5,0.7-0.9,1.15-1.2,1.35c-0.634,0.467-1.45,0.717-2.45,0.75
			c-1.167,0-2.033,0.034-2.6,0.101c-0.601,0.066-1.784,0.267-3.551,0.6c-1.5,0.334-2.716,0.483-3.649,0.45c-1.3,0-3.2-0.35-5.7-1.05
			c-2.467-0.667-4.384-1-5.75-1c-1.2-0.033-2.1-0.05-2.7-0.05c-1.066,0-1.95,0.133-2.649,0.399c-0.367,0.134-0.851,0.434-1.45,0.9
			c-0.601,0.467-1.066,0.767-1.4,0.899c-0.767,0.334-1.95,0.5-3.55,0.5c-1.733,0-2.934,0.084-3.6,0.25
			c-2.2,0.567-4.5,0.551-6.9-0.05c-0.934-0.233-3.134-1.017-6.6-2.35c-1.233-0.467-2.533-0.767-3.9-0.9
			c-0.8-0.066-2.167-0.1-4.1-0.1c-0.833,0-1.867-0.167-3.1-0.5c-1.267-0.3-2.267-0.467-3-0.5c-1.133-0.033-2.483,0.1-4.05,0.399
			c-2.133,0.367-3.433,0.584-3.9,0.65c-3.133,0.366-6.45-0.033-9.95-1.2c-0.8-0.267-2.833-1.2-6.1-2.8
			c-2.433-1.167-4.55-1.833-6.35-2c-3.233-0.467-5.633-0.783-7.2-0.95c-0.233-0.033-0.9-0.017-2,0.05
			c-0.9,0.067-1.533,0.034-1.9-0.1c-0.233-0.1-0.5-0.333-0.8-0.7c-0.3-0.399-0.55-0.649-0.75-0.75
			c-0.267-0.1-0.716-0.149-1.35-0.149c-0.467,0.033-0.833-0.117-1.1-0.45c0.967-1.101,2.9-1.95,5.8-2.55
			c2.867-0.567,4.783-1.417,5.75-2.551c0.867-1.033,1.083-1.816,0.65-2.35c-0.367-0.434-1.233-0.783-2.6-1.05
			c-1.367-0.334-2.434-0.584-3.2-0.75c-1.367-0.3-2.417-0.417-3.15-0.351c0.267-0.666,1.05-1.166,2.35-1.5
			c0.7-0.199,1.683-0.449,2.95-0.75c0.667-0.267,1.633-0.666,2.9-1.199c1.067-0.434,1.983-0.884,2.75-1.351
			c2.633-1.399,4.6-2.533,5.9-3.399c2.267-1.467,3.917-3.034,4.95-4.7l53-10C82.167,282.95,86.233,283.116,90.1,283.45z"/>
		
			<radialGradient id="SVGID_2_" cx="61.6499" cy="275.9502" r="81.25" gradientTransform="matrix(1 0 0 -1 0 551.9004)" gradientUnits="userSpaceOnUse">
			<stop  offset="0.3255" style="stop-color:#3F3932"/>
			<stop  offset="0.4627" style="stop-color:#352F28;stop-opacity:0.6588"/>
			<stop  offset="0.7451" style="stop-color:#26211A;stop-opacity:0.1569"/>
			<stop  offset="1" style="stop-color:#211C15;stop-opacity:0"/>
		</radialGradient>
		<path style="fill-rule:evenodd;clip-rule:evenodd;fill:url(#SVGID_2_);" d="M81.15,276.75c0.966,0.167,2.383,0.4,4.25,0.7
			c2.433,0.333,4.216,0.616,5.35,0.85c1.934,0.4,3.65,0.95,5.15,1.65c0.633,0.3,1.5,0.684,2.6,1.149
			c0.866,0.467,1.616,0.983,2.25,1.551c0.934,0.866,2.167,2.316,3.7,4.35c1.733,1.934,2.899,3.167,3.5,3.7
			c1.467,1.3,2.934,2.083,4.399,2.35c0.4,1.2-0.083,2.066-1.449,2.601c-1.733,0.366-2.851,0.666-3.351,0.899
			c-1.399,0.733-1.733,1.75-1,3.05c0.434,0.733,1.316,1.834,2.65,3.301c0.934,1.267,1.6,2.583,2,3.949
			c0.333,1.101,0.566,2.567,0.7,4.4c0.066,0.667,0.483,1.783,1.25,3.35c0.666,1.301,0.899,2.4,0.699,3.301
			c-0.833-0.101-1.783,0.1-2.85,0.6c-1.2,0.7-2.066,1.184-2.6,1.45c-1.233,0.7-2.534,1.149-3.9,1.35c-0.8,0.101-2.2,0.15-4.2,0.15
			c-0.934,0-2.366-0.066-4.3-0.2c-1.866-0.134-3.316-0.2-4.35-0.2c-2.534,0.066-4.967-0.133-7.301-0.6
			c-0.5-0.101-2.183-0.283-5.05-0.55c-2.133-0.2-3.767-0.5-4.899-0.9c-0.967-0.4-1.667-0.684-2.101-0.85
			c-0.8-0.267-1.55-0.301-2.25-0.101c-0.166,0.033-0.483,0.184-0.95,0.45c-0.399,0.267-0.8,0.417-1.199,0.45
			c-1.067,0.133-2.65,0.133-4.75,0c-2.167-0.101-3.75-0.101-4.75,0c-0.367,0.066-0.816,0.233-1.35,0.5
			c-0.533,0.267-0.917,0.416-1.15,0.45c-0.4,0.066-0.917,0.017-1.55-0.15c-0.667-0.2-1.184-0.333-1.55-0.4
			c-1.8-0.399-4.1-0.583-6.9-0.55c-3.133,0.101-5.45,0.15-6.95,0.15c-2.1,0.066-3.7,0.116-4.8,0.149
			c-1.933,0.067-3.517,0.017-4.75-0.149c-0.967-0.101-1.967-0.351-3-0.75c-0.233-0.066-1.2-0.483-2.9-1.25
			c-1.8-1.066-3.167-1.733-4.1-2c-1.233-0.066-2.217-0.117-2.95-0.15c-1.4-0.1-2.233-0.55-2.5-1.35
			c-0.2-0.667-0.083-1.084,0.35-1.25c0.267-0.134,0.767-0.25,1.5-0.351c1.2-0.399,3.05-0.8,5.55-1.199c1.867-0.634,2.7-2,2.5-4.101
			c-4.4-0.267-6.85-0.45-7.35-0.55c-3.4-0.533-5.433-1.667-6.1-3.4c4.067-1.267,7-2.483,8.8-3.649c1.1-0.7,2.283-1.667,3.55-2.9
			c1.533-1.467,2.417-2.633,2.65-3.5c-0.633-0.133-1.083-0.2-1.35-0.2c0.5-0.5,1.083-1.149,1.75-1.949
			c0.967-1.167,1.5-1.817,1.6-1.95l49.5-12C78.033,276.384,79.45,276.483,81.15,276.75z"/>
	</g>
	<g>
		<path style="fill-rule:evenodd;clip-rule:evenodd;fill:#4F4639;" d="M80,103.3l-0.35,0.55l0.35-0.5V103.3
			c0.066,0.133,0.116,0.267,0.15,0.4c0.399,1.1,0.649,2.466,0.75,4.1v1.05c0,3.667,0.3,7.417,0.899,11.25
			c0.2,1.267,0.351,2.9,0.45,4.9c0.033,1.1,0.083,2.717,0.15,4.85c0.1,1.4,0.267,3.433,0.5,6.1c0.066,1.767,0.083,3.966,0.05,6.6
			c0,1.467-0.017,3.65-0.05,6.55v3.2c0.199,0.867,0.25,2.133,0.149,3.8c-0.1,1.933-0.116,3.2-0.05,3.8l0.4,3.2l-0.15,0.5
			c-0.2,2.4-0.184,5.583,0.05,9.55l0.2,2.75c0.1,1.433,0.167,2.199,0.2,2.3c0,1-0.15,1.717-0.45,2.149
			c-1-0.366-1.767,0.233-2.3,1.801c-0.267,0.833-0.517,1.983-0.75,3.449c-0.634,3.134-1.851,6.117-3.65,8.95l-0.8,1.15
			c0-0.9,0.033-1.5,0.1-1.8c0.134-0.667,0.617-1.75,1.45-3.25c0.733-1.367,1.15-2.483,1.25-3.351l0.2-1.7
			c0.1-0.533,0.283-1.066,0.55-1.6c1.233-2.533,1.967-5,2.2-7.4l-0.8-0.899c-1.267-1.467-2.167-3.367-2.7-5.7
			c-0.566-2.533-0.467-4.65,0.3-6.35c0.566-1.133,0.95-1.95,1.15-2.45c0.3-0.8,0.45-1.667,0.45-2.6
			c-0.034-1.367-0.15-3.017-0.351-4.95c-0.267-2.2-0.467-3.867-0.6-5c-0.033-0.7-0.05-1.233-0.05-1.6c-0.067-0.6-0.2-1.117-0.4-1.55
			c-0.7-0.9-1.15-1.65-1.35-2.25c-0.467-1.3-0.65-3.1-0.551-5.4c0.233-2.6,0.351-4.45,0.351-5.55c-0.7-0.133-1.55-0.2-2.55-0.2
			c-1.9,0.133-3.284,0.2-4.15,0.2c-0.6-0.033-1.05-0.05-1.35-0.05c-0.534-0.033-0.967-0.017-1.301,0.05
			c-0.399,0.934-0.933,2.467-1.6,4.6l-0.05,0.1c-0.733,2.433-1.533,4.25-2.4,5.45c-0.767,1.133-1.816,1.733-3.15,1.8
			c-1.633-0.167-2.883-0.267-3.75-0.3c1.3,0,2.117-0.034,2.45-0.1c0.6-0.133,1.083-0.35,1.45-0.65c1.1-0.767,1.9-1.717,2.4-2.85
			l0.3-0.75c0.267-0.9,0.517-2.45,0.75-4.65c0.2-2,0.5-3.55,0.9-4.65c0.133-0.367,0.216-0.617,0.25-0.75
			c0.033-0.167,0.166-0.383,0.399-0.65c0.467-0.566,1.05-1.083,1.75-1.55c0.4-0.267,1.3-0.717,2.7-1.35c1.167-0.533,2-1.033,2.5-1.5
			c1.033-0.933,1.6-2.65,1.7-5.15c0.033-1.2-0.084-3.1-0.351-5.7c-0.6-0.033-1.583,0.067-2.949,0.3
			c-1.301,0.267-2.284,0.367-2.95,0.3c0.2-0.2,0.517-0.417,0.95-0.65c0.5-0.3,0.833-0.517,1-0.65c0.3-0.233,0.566-0.517,0.8-0.85
			c0.233-0.4,0.434-0.733,0.6-1c1.101-1.567,1.884-2.6,2.351-3.1l0.5-0.35l-0.801-0.1c0.801-0.5,1.084-1.433,0.851-2.8
			c-0.267-1.767-0.351-2.8-0.25-3.1c0.366-0.066,0.899-0.117,1.6-0.15c0.634-0.1,1.066-0.417,1.3-0.95c0.2-0.5,0.2-1.566,0-3.2
			c-0.533-0.167-1.3-0.167-2.3,0c-1.267,0.2-2.066,0.3-2.399,0.3c-0.634-0.033-2.45-0.3-5.45-0.8l0.25-0.15
			c0.3-0.267,0.85-0.534,1.649-0.8c0.867-0.3,1.434-0.533,1.7-0.7l0.851-0.6c0.933-0.8,1.55-1.934,1.85-3.4
			c0.267-1.7,0.384-3.117,0.35-4.25l-0.1-1.3l-0.35-0.3L72.8,85.3c-0.366-0.233-1.3-0.483-2.8-0.75
			c-1.233-0.233-2.083-0.667-2.55-1.3l0.3-0.5c1.634-2.467,2.684-4.183,3.15-5.15c0.666-1.467,1.05-3.15,1.149-5.05
			c0.101-2.4-0.399-4.017-1.5-4.85c-0.5,0.433-0.85,1.417-1.05,2.95c-0.233,1.867-0.434,2.983-0.6,3.35
			c-0.2,0.433-0.534,1.05-1,1.85c-0.034-0.667,0.083-1.567,0.35-2.7c0.366-1.433,0.566-2.35,0.6-2.75c0.034-0.367,0.051-2,0.051-4.9
			c0-1.667,0.083-2.75,0.25-3.25c0-0.033,0.149-0.417,0.449-1.15c0.167-0.4,0.267-0.783,0.301-1.15c-0.067-1.367-0.067-2.383,0-3.05
			c0.033-0.7,0.199-1.7,0.5-3c0.3-1.367,0.466-2.35,0.5-2.95c0.033-0.5,0.017-1.6-0.051-3.3c-0.3-2.9-0.683-5-1.149-6.3l-1.45,0.5
			L68,40.7c-0.233-0.767-0.583-1.184-1.05-1.25c-1.267-0.167-1.917-0.25-1.95-0.25c0.066-0.467,0.3-1.233,0.7-2.3
			c0.333-0.867,0.517-1.633,0.55-2.3V31c0-3.6-0.316-6.683-0.95-9.25c0-0.033-0.233-0.817-0.7-2.35
			c-0.267-0.833-0.366-1.617-0.3-2.35c0.033-0.333,0.134-0.816,0.3-1.45c0.167-0.633,0.267-1.1,0.301-1.4
			c0.199-1.534,0.05-3.567-0.45-6.1C63.884,5.033,63.583,3,63.55,2c0.028-0.124,0.062-0.241,0.101-0.35l0.199-0.5
			c0-0.033,0.017-0.066,0.051-0.1c0-0.333,0.05-0.683,0.149-1.05L64.4,0.45V0.5c0.366,0.567,0.683,1.367,0.949,2.4
			c0.134,0.6,0.334,1.45,0.601,2.55c0.467,1.833,0.783,3.867,0.95,6.1C67,12.583,67.3,14.9,67.8,18.5
			c0.4,2.767,0.601,5.083,0.601,6.95l0.149,3.75c0.134,2.133,0.417,4.167,0.851,6.1l0.8,2.9c0,0.066,0.017,0.133,0.05,0.2
			c0.1,0.3,0.2,0.617,0.3,0.95c0.634,1.9,1.05,4.316,1.25,7.25c0.134,1.633,0.3,4.083,0.5,7.35c0.066,0.533,0.15,1.617,0.25,3.25
			c0.101,1.367,0.217,2.45,0.351,3.25c0.133,0.867,0.466,2.05,1,3.55c0.633,1.733,1.017,2.883,1.149,3.45
			c0.533,2.133,0.75,4.966,0.65,8.5c-0.033,1.966-0.134,4.85-0.3,8.65l0.1,2.65c0.066,1.533,0.2,2.983,0.4,4.35l3.3,10.25
			c0.033,0.033,0.066,0.083,0.1,0.15C79.566,102.433,79.8,102.867,80,103.3z M77.05,318.95H77c-3.533,0-6.1-0.283-7.7-0.851
			c-1.2-0.366-2.467-1.166-3.8-2.399c-0.3-0.066-0.833-0.3-1.6-0.7v-1.15c0.033-1.433,0.066-2.5,0.1-3.199
			c0-1.301-0.066-2.367-0.2-3.2c-0.166-0.9-0.517-1.9-1.05-3c-0.634-1.267-1.1-2.233-1.4-2.9c-0.733-1.6-1.1-3.233-1.1-4.899v-7.9
			l0.25,0.55c0.167,0.467,0.317,1.467,0.45,3c0.167,1.467,0.566,3.217,1.2,5.25c0.066,0.2,0.233,0.884,0.5,2.05
			c0.166,0.9,0.383,1.584,0.649,2.051c0.4,0.699,1.167,1.199,2.3,1.5c0.934,0.233,1.9,0.283,2.9,0.149
			c1.5-0.133,2.65-0.816,3.45-2.05c0.8-1.167,1.1-2.517,0.899-4.05c-0.066-0.566-0.6-2-1.6-4.3c-0.8-1.9-1.05-3.317-0.75-4.25
			c0.167-0.467,0.583-1.067,1.25-1.801c0.767-0.866,1.25-1.483,1.45-1.85c0.399-0.733,0.616-1.267,0.649-1.6
			c0.034-0.334-0.066-0.817-0.3-1.45c-0.267-0.667-0.8-1.483-1.6-2.45c-0.867-1.134-1.566-1.767-2.101-1.9
			c-0.5-0.133-1.316-0.116-2.449,0.051c-1.334,0.199-2.184,0.3-2.551,0.3c-1.166-0.033-2.466-0.267-3.899-0.7
			c-0.767-0.2-1.483-0.483-2.15-0.85c-0.966-0.567-1.283-1.101-0.95-1.601c0.566,0.601,1.417,0.9,2.55,0.9
			c0.633,0,1.567-0.117,2.8-0.351c3.166-0.366,6.017-1.283,8.55-2.75c1.467-0.8,2.634-1.916,3.5-3.35c0.434-0.7,0.8-1.467,1.1-2.3
			c0.134-0.434,0.2-1.467,0.2-3.101c0-0.8,0.05-1.8,0.15-3c0.2-1.899,0.3-2.899,0.3-3c0.267,0.601,0.45,1.4,0.55,2.4
			c0.101,0.767,0.417,2,0.95,3.7c0.467,1.5,0.717,2.733,0.75,3.7v4.899c-0.066,2.066-0.3,3.917-0.7,5.55
			c-0.166,0.634-0.633,1.634-1.399,3c-0.7,1.267-1.117,2.233-1.25,2.9c-0.2,1.233,0.166,2.5,1.1,3.8
			c0.467,0.667,1.267,1.566,2.4,2.7c1.133,1.134,1.916,2.033,2.35,2.7c0.3,0.434,0.566,0.967,0.8,1.6
			c0.167,0.334,0.384,0.851,0.65,1.55l0.7,1.15c-2.134-1.8-3.684-3.167-4.65-4.1c-1.7-1.634-2.6-3.334-2.7-5.101v3.95
			c0.066,1.366,0.334,2.65,0.8,3.85c0.101,0.267,0.434,0.884,1,1.851c0.467,0.8,0.75,1.45,0.851,1.95c0.2,1,0.267,2.333,0.2,4
			c-0.101,2.433-0.15,3.767-0.15,4c0,2.633-0.316,4.85-0.95,6.649c-0.467,1.367-0.833,2.634-1.1,3.8L77.05,318.95z M65.95,209.85
			c0.399-0.166,0.717-0.466,0.95-0.899c0.199-0.467,0.333-1.05,0.399-1.75c0.2-1.2,0.3-1.834,0.3-1.9l0.45-1.1
			c0.4-0.934,0.816-1.684,1.25-2.25c0.533-0.667,1.417-1.283,2.65-1.851c-1.101,1.034-2.084,1.884-2.95,2.551
			c0.733-0.2,1.767-0.634,3.1-1.301c0.4-0.233,1.134-0.75,2.2-1.55c0.934-0.733,1.667-1.217,2.2-1.45
			c0.667-0.267,1.066-0.416,1.2-0.449c0.533-0.167,0.95-0.117,1.25,0.149c0.2,0.2,0.383,0.667,0.55,1.4c0.2,0.8,0.4,1.333,0.6,1.6
			l1.351,1.15c0.533,0.467,0.883,0.934,1.05,1.399c0.366,1,0.7,2.351,1,4.051c0.467,2.3,0.75,3.683,0.85,4.149
			c0.233,1,0.801,2.084,1.7,3.25c1.4,1.834,2.15,2.816,2.25,2.95c0.434,0.7,1.101,1.866,2,3.5c0.9,1.434,1.767,2.45,2.601,3.05
			c0.033-0.666-0.084-1.566-0.351-2.7c-0.434-1.8-0.649-2.716-0.649-2.75l-0.9-5.8c-0.366-2.3-0.767-4.217-1.2-5.75
			c-0.533-1.967-1.283-4.05-2.25-6.25c-0.7-1.434-1.233-2.517-1.6-3.25c-0.634-1.3-0.983-2.434-1.05-3.399
			c-0.067-0.767,0.183-1.733,0.75-2.9c0.666-1.366,1.05-2.316,1.149-2.85l0.5-3.15l0.101,1.85c1.033,2.534,1.666,4.317,1.899,5.351
			c0.167,0.7,0.45,1.616,0.851,2.75c0.433,1.233,0.733,2.149,0.899,2.75c0.2,0.899,0.316,1.967,0.351,3.2
			c0.033,0.733,0.033,1.833,0,3.3c0,0.7,0,1.717,0,3.05c0.033,1.167,0.166,2.15,0.399,2.95c0.066,0.2,0.417,1.166,1.05,2.899
			c0.367,1.067,0.551,2.101,0.551,3.101c0,1.899,0.216,3.783,0.649,5.649c0.334,1.434,0.9,3.233,1.7,5.4
			c0.3,0.767,0.533,1.733,0.7,2.9c0.1,0.699,0.217,1.716,0.35,3.05c0.134,1.033,0.351,2.149,0.65,3.35
			c0.2,0.7,0.517,1.783,0.95,3.25c0.466,1.667,0.733,3.533,0.8,5.601c0,0.6,0,1.216,0,1.85l-0.15,4.75
			c-0.033,0.634-0.066,1.283-0.1,1.95v0.05l-0.4,0.65c0,0.033-0.366,0.55-1.1,1.55c-0.467,0.7-0.75,1.267-0.851,1.7
			c-0.133,0.6-0.183,1.399-0.149,2.399c0.033,0.533,0.083,1.334,0.149,2.4c0,2.1-0.35,4.666-1.05,7.7
			c-0.066,0.366-0.217,0.933-0.45,1.699c-0.199,0.7-0.267,1.284-0.199,1.75c0.566,0.101,1.3,0.017,2.199-0.25
			c0.601-0.033,0.867,0.5,0.801,1.601c0,0.5-0.117,1.25-0.351,2.25c-0.233,0.934-0.35,1.684-0.35,2.25
			c0.066,1.566,0.434,2.916,1.1,4.05c1.566,2.6,2.517,5.75,2.851,9.45c0.066,0.833,0.1,4.166,0.1,10l2.55,2.45
			c0.101,0.433,0.167,0.899,0.2,1.399c0.033,0.467,0.033,0.95,0,1.45l-1.65-0.35c-3.166-0.934-4.866-2.801-5.1-5.601
			c-0.134,0.566-0.366,1.2-0.7,1.9c-0.366,0.767-0.75,1.333-1.149,1.7c-0.2,0.233-0.567,0.5-1.101,0.8
			c-0.467,0.267-0.8,0.517-1,0.75c0.5,0.2,1.2,0.283,2.101,0.25c1.166-0.066,1.866-0.084,2.1-0.05c0,0.767-0.517,1.533-1.55,2.3
			c-0.566,0.399-1.4,0.899-2.5,1.5c-1.101,0.767-1.684,1.166-1.75,1.2c-0.566,0.3-1.25,0.399-2.05,0.3
			c-0.967-0.101-1.784-0.717-2.45-1.851c-0.5-0.933-0.834-2.017-1-3.25c-0.066-0.6-0.066-1.899,0-3.899l0.05,0.25
			c0.333,0.833,1.3,1.649,2.9,2.45c0.8,0.399,1.333,0.583,1.6,0.55c0.2-0.033,0.634-0.334,1.3-0.9c0.667-0.467,1.167-0.816,1.5-1.05
			c0.533-0.4,0.884-0.85,1.05-1.35c0.134-0.434,0.117-1.067-0.05-1.9l-0.35-1.9c-0.134-2.433,0.017-4.283,0.45-5.55
			c0.433-1.033,0.716-1.767,0.85-2.2c0.3-0.767,0.434-1.566,0.4-2.399c-0.034-1.934-0.567-4.017-1.601-6.25
			c-0.399-0.867-1.45-2.783-3.149-5.75c-0.434-0.8-0.7-1.566-0.801-2.3c-0.066-0.434-0.1-1.233-0.1-2.4l0.05-7.35
			c0-2.7-0.434-5.384-1.3-8.051c-0.634-0.399-1.116-0.85-1.45-1.35c-0.533-0.833-0.967-2.283-1.3-4.35c-0.267-0.134-0.5-0.2-0.7-0.2
			l0.65-0.3l-0.65-3.15c0.2,0.467,0.684,1.384,1.45,2.75c0.866,1.533,1.45,2.684,1.75,3.45c0.2,0.6,0.6,1.35,1.2,2.25
			c0.633,0.934,1.033,1.6,1.2,2c0.166-1.601,0.316-2.684,0.449-3.25c0.267-0.9,0.801-1.834,1.601-2.8
			c0.866-1.034,1.316-2.351,1.35-3.95l0.05-1.55c0.067-2.4-0.05-4.434-0.35-6.101c-0.333-1.733-1.167-4.566-2.5-8.5
			c-1.2-3.566-1.934-6.399-2.2-8.5l-3,4.3c0.101,0.9,0.283,2.517,0.55,4.851c0.2,2.133,0.25,3.816,0.15,5.05
			c-0.033,0.733-0.267,1.566-0.7,2.5c0.134-0.467,0.167-1.134,0.101-2c-0.067-0.934-0.101-1.6-0.101-2
			c0.033-1.333,0.05-2.333,0.05-3c-0.033-1.167-0.149-2.15-0.35-2.95c-0.2-1.267-0.417-2.05-0.65-2.35
			c-0.233-0.233-0.517-0.384-0.85-0.45l-1.05-0.2c0.2-0.267,0.816-0.8,1.85-1.6c1.334-0.634,2.101-1.117,2.3-1.45
			c0.167-0.233,0.25-0.85,0.25-1.85c0-0.867-0.05-1.5-0.149-1.9c-0.134-0.733-0.634-1.583-1.5-2.55c-1-1.033-1.684-1.767-2.05-2.2
			c-0.667-0.7-1.101-1.217-1.301-1.55c-0.199-0.367-0.383-0.917-0.55-1.65c-0.166-0.833-0.416-2.566-0.75-5.2
			c-0.267-2.166-0.583-3.899-0.95-5.199H72.2c-0.434,0.3-0.834,0.783-1.2,1.449c-1.833,2.9-3.7,4.584-5.6,5.051l-1.15,0.149
			c0.167-0.133,0.434-0.25,0.8-0.35C65.483,210.033,65.783,209.917,65.95,209.85z M74.65,150.25l0.6,1.7
			c0.434,1.333,0.65,3.216,0.65,5.65c0,2.433-0.217,4.316-0.65,5.65c-0.5,1.267-0.866,2.033-1.1,2.3
			c-0.067,0.101-0.284,0.267-0.65,0.5c-0.333,0.233-0.533,0.417-0.6,0.55c-0.367,0.567-0.334,1.384,0.1,2.45
			c0.566,1.533,0.866,2.384,0.9,2.55c0.166,1.2,0.183,2.65,0.05,4.351c-0.066,1-0.2,2.45-0.4,4.35
			c-0.066,0.767-0.116,1.65-0.149,2.65c-0.233,0.566-0.95,0.7-2.15,0.399c-1.767-0.666-3.1-1.033-4-1.1
			c0.733,0,1.384-0.066,1.95-0.2c0.666-0.133,1.217-0.3,1.649-0.5c0.134-1,0.134-2.1,0-3.3c-0.066-0.533-0.25-1.616-0.55-3.25
			c-0.133-1.366-0.267-2.384-0.399-3.05c-0.034-0.101-0.017-0.316,0.05-0.65c0.033-0.3,0-0.5-0.101-0.6
			c-0.066-0.134-0.3-0.283-0.699-0.45c-0.434-0.167-0.717-0.316-0.851-0.45c0.367-0.733,1.25-2.017,2.65-3.85
			c1.166-1.6,1.934-2.95,2.3-4.05c0.134-0.4,0.233-0.833,0.3-1.3c0.101-0.5,0.184-1.317,0.25-2.45L73.9,156
			c-0.134-1.467-0.217-2.633-0.25-3.5c-0.067-1.633,0.133-2.7,0.6-3.2l-0.1-0.85C74.217,148.85,74.384,149.45,74.65,150.25z
			 M78.25,106.1l-0.35,0.45l-0.301,0.3C77.866,106.683,78.083,106.433,78.25,106.1z M77.25,115.6c-0.533,4.433-0.816,6.667-0.85,6.7
			c-0.667,2.534-2.051,4.117-4.15,4.75c-1.833,0.534-2.833,1.467-3,2.8c0.634-0.267,1.483-0.383,2.55-0.35
			c0.634,0,1.533,0.033,2.7,0.1c0.866,0,1.4-0.033,1.6-0.1c0.301-0.067,0.7-0.35,1.2-0.85c0.733-0.733,1.233-1.35,1.5-1.85
			c0.367-0.6,0.601-1.35,0.7-2.25c0.233-1.933,0.3-4.25,0.2-6.95c-0.2-3.133-0.351-5.467-0.45-7L77.25,115.6z M85.3,244.8
			c0.066-0.434,0.184-0.833,0.351-1.2c0.233-0.333,0.399-0.583,0.5-0.75L85.3,244.8z M35.5,315.85h-0.1
			c-1.633-0.199-2.867-0.366-3.7-0.5c-1.467-0.233-2.567-0.733-3.3-1.5l-0.85-1.35c-0.066-0.267-0.1-0.55-0.1-0.85
			c0-0.22,0.058-0.453,0.175-0.7l0.025-0.05c0.1-0.434,0.3-0.917,0.6-1.45l0.7-0.4c0.5-0.233,1.216-0.399,2.15-0.5
			c2.066-0.366,3.316-1,3.75-1.899c0.133-0.301,0.267-0.884,0.4-1.75c0.1-0.767,0.317-1.367,0.65-1.801
			c0.233-0.3,0.6-0.699,1.1-1.199c0.533-0.5,0.917-0.917,1.15-1.25c0.833-1.2,1.4-2.367,1.7-3.5c0.267-0.967,0.4-2.25,0.4-3.851
			c0.033-0.866,0.067-1.533,0.1-2c0.033-0.8-0.017-1.45-0.15-1.95c-0.133-0.466-0.434-1.05-0.9-1.75
			c-0.6-0.899-0.966-1.466-1.1-1.699c-0.567-1.134-0.784-3-0.65-5.601c0.133-2.366,0.3-4.166,0.5-5.399
			c0.367-2.101,0.934-3.834,1.7-5.2c-0.1,0.333-0.183,0.85-0.25,1.55s-0.15,1.217-0.25,1.55c-0.433,1.4-0.667,2.351-0.7,2.851
			c0,0.399-0.066,1.35-0.2,2.85c-0.067,1.4,0.05,2.3,0.35,2.7c0.367,0.5,1.4,0.899,3.1,1.2c0.9,0.166,2.067,0.333,3.5,0.5
			c2.567,0.433,4.5,0.383,5.8-0.15c-0.333,0.833-0.667,1.483-1,1.95c-0.3,0.366-0.817,0.916-1.55,1.649
			c-1.167,1.101-2,1.801-2.5,2.101c-0.233,0.166-0.533,0.316-0.9,0.45c-0.267,0.166-0.467,0.416-0.6,0.75c-0.2,0.5-0.2,1.517,0,3.05
			c0,0.6-0.117,1.434-0.35,2.5c-0.034,0.267,0.017,1.133,0.15,2.6c0.066,1.134-0.033,1.95-0.3,2.45c0.5,0.434,0.8,1.283,0.9,2.55
			c0.033,0.7,0.017,1.65-0.05,2.851c-0.033,1.767,0.184,2.949,0.65,3.55c0.467,0.6,1.633,1.233,3.5,1.899
			c1.267,0.434,2.267,0.7,3,0.801c1.133,0.166,2.117,0.066,2.95-0.301c1.1-0.466,1.983-1.35,2.65-2.649
			c0.7-1.334,0.867-2.566,0.5-3.7l-0.5-0.05c0.667-0.134,1.117-0.95,1.35-2.45c0-0.066,0.083-1.116,0.25-3.15
			c0.067-0.866,0.083-2,0.05-3.399c-0.033-1.767-0.05-2.9-0.05-3.4v-0.6l0.05,0.45l0.25,8.85c0.133,3.7,0.034,6.75-0.3,9.15
			c-0.2,1.466-1.1,2.966-2.7,4.5c-2.966,0.733-6.1,1.149-9.4,1.25l-0.8-1.2c-0.5-0.533-0.85-0.917-1.05-1.15
			c-0.333-0.399-0.6-0.85-0.8-1.35c-0.467-1.066-0.917-2.834-1.35-5.3c-0.4-2.334-0.9-4.084-1.5-5.25
			c-0.2,0.866-0.233,2.166-0.1,3.899c0.133,1.767,0.133,3.05,0,3.851C41.083,312.634,39.067,314.616,35.5,315.85z M25.95,292.8
			c-0.534-0.3-1.034-0.616-1.5-0.95c0.1-0.233,0.333-0.616,0.7-1.149c0.333-0.5,0.55-0.917,0.65-1.25c0.333-0.9,0.55-2.167,0.65-3.8
			c0.2-2.334,0.316-3.617,0.35-3.851c0.1-0.866,0.2-1.6,0.3-2.2l0.1-0.899v-0.025c0.006-0.017,0.023-0.024,0.05-0.024
			c0.8-2.634,1.467-4.601,2-5.9c-0.067,1.6-0.133,3.934-0.2,7c-0.133,2.667-0.4,4.967-0.8,6.9
			C27.817,288.917,27.05,290.967,25.95,292.8z M23.5,300.7c0.1-0.566,0.617-1.617,1.55-3.15c0.534-0.399,0.917-0.717,1.15-0.95
			c0.433-0.366,0.75-0.716,0.95-1.05c0.4-1.033,0.767-1.8,1.1-2.3c0.6-1,0.95-1.75,1.05-2.25c0.167-0.767,0.284-1.316,0.35-1.65
			c0.167-0.566,0.367-1.05,0.6-1.449c0.367-0.601,0.717-1.384,1.05-2.351c0.434-1.333,0.717-2.149,0.85-2.45
			c0.633,0.9,0.783,2.767,0.45,5.601c-0.067,0.633-0.217,1.583-0.45,2.85c-0.167,1.167-0.25,2.167-0.25,3
			c0,2.101-0.083,3.467-0.25,4.101c-0.133,0.6-0.383,1.283-0.75,2.05c-0.233,0.434-0.566,1.083-1,1.95l-0.8,1.6
			c-0.167,0.267-0.35,0.583-0.55,0.95c-0.367-0.033-0.75-0.15-1.15-0.351c-0.933-0.399-1.8-0.966-2.6-1.699
			C23.833,302.25,23.4,301.434,23.5,300.7z"/>
		<path style="fill-rule:evenodd;clip-rule:evenodd;fill:#5E5140;" d="M72.8,85.3H69.9c-2.334-0.033-4.684-0.233-7.051-0.6
			c-0.733-0.067-1.316-0.133-1.75-0.2c-0.767-0.1-1.283-0.267-1.55-0.5c0.5-0.1,1.4-0.133,2.7-0.1
			c1.134,0.033,2.017-0.083,2.65-0.35L66.6,82.7c-0.433-0.167-0.767-0.417-1-0.75c-0.1-0.133-0.166-0.383-0.199-0.75
			c0-0.267-0.167-0.467-0.5-0.6c-0.101-0.067-0.567-0.033-1.4,0.1L60,80.95c1.567-0.934,2.684-1.617,3.35-2.05
			c1.167-0.767,1.934-1.833,2.301-3.2c0.666-2.4,1.033-3.733,1.1-4c0.333-1.434,0.5-2.784,0.5-4.05c0-1.167-0.05-2.633-0.15-4.4
			C66.967,60.783,66.9,59.367,66.9,59c-0.034-0.567,0.1-1.183,0.399-1.85c0.334-0.833,0.533-1.417,0.601-1.75
			c0.3-1.467,0.267-3.417-0.101-5.85C67.233,45.983,66.934,44,66.9,43.6l-3.7-1.85l-0.3-0.15c1.233-2.267,2.033-4.8,2.399-7.6
			c0.267-1.933,0.351-4.617,0.25-8.05C65.517,24.783,65,23.033,64,20.7c-0.9-2.133-1.267-3.934-1.1-5.4
			c0.433-2.167,0.649-3.867,0.649-5.1c0.2-1.367,0.217-2.233,0.05-2.6C63.533,7.467,63.4,7.333,63.2,7.2
			c0.033-0.067,0.05-0.133,0.05-0.2c0.066-0.4,0.116-0.75,0.15-1.05c0.033-0.3,0.033-0.95,0-1.95V3.7c0-0.1,0-0.184,0-0.25
			c0-0.562,0.05-1.045,0.149-1.45c0.033,1,0.334,3.033,0.9,6.1c0.5,2.533,0.649,4.566,0.45,6.1c-0.034,0.3-0.134,0.767-0.301,1.4
			c-0.166,0.633-0.267,1.117-0.3,1.45c-0.066,0.733,0.033,1.517,0.3,2.35c0.467,1.533,0.7,2.317,0.7,2.35
			c0.634,2.567,0.95,5.65,0.95,9.25v3.6c-0.033,0.667-0.217,1.433-0.55,2.3c-0.4,1.067-0.634,1.833-0.7,2.3
			c0.033,0,0.684,0.083,1.95,0.25c0.467,0.066,0.816,0.483,1.05,1.25l0.25,1.15l1.45-0.5c0.467,1.3,0.85,3.4,1.149,6.3
			c0.067,1.7,0.084,2.8,0.051,3.3c-0.034,0.6-0.2,1.583-0.5,2.95c-0.301,1.3-0.467,2.3-0.5,3c-0.067,0.667-0.067,1.684,0,3.05
			c-0.034,0.367-0.134,0.75-0.301,1.15c-0.3,0.733-0.449,1.117-0.449,1.15c-0.167,0.5-0.25,1.583-0.25,3.25
			c0,2.9-0.017,4.533-0.051,4.9c-0.033,0.4-0.233,1.317-0.6,2.75c-0.267,1.133-0.384,2.033-0.35,2.7c0.466-0.8,0.8-1.417,1-1.85
			c0.166-0.367,0.366-1.483,0.6-3.35c0.2-1.533,0.55-2.517,1.05-2.95c1.101,0.833,1.601,2.45,1.5,4.85
			c-0.1,1.9-0.483,3.583-1.149,5.05c-0.467,0.967-1.517,2.683-3.15,5.15l-0.3,0.5c0.467,0.633,1.316,1.067,2.55,1.3
			C71.5,84.817,72.434,85.067,72.8,85.3z M73.35,86.95c0.034,1.133-0.083,2.55-0.35,4.25c-0.3,1.466-0.917,2.6-1.85,3.4
			c0.966-1.467,1.316-3.333,1.05-5.6c-0.467-0.067-0.816-0.067-1.05,0c-0.034-0.333,0.216-0.683,0.75-1.05
			C72.566,87.517,73.05,87.183,73.35,86.95z M62.95,140.35l0.2-1.6c0.267-1.3,0.399-3.183,0.399-5.65c0-0.967,0.05-1.667,0.15-2.1
			c0.133-0.633,0.416-1.283,0.85-1.95c0.634-0.966,1.033-1.933,1.2-2.9c0.167-0.767,0.217-1.833,0.15-3.2
			c0-0.7-0.067-1.517-0.2-2.45c-0.2-1.2-0.45-1.917-0.75-2.15c-0.267-0.2-0.8-0.217-1.601-0.05c-0.833,0.233-1.383,0.35-1.649,0.35
			c-0.767,0.067-1.534,0.033-2.3-0.1c1-0.267,2.033-0.883,3.1-1.85c1-0.9,1.684-1.817,2.05-2.75c0.9-2.434,1.351-4.567,1.351-6.4
			c0-0.733,0.033-1.233,0.1-1.5c0.1-0.4,0.316-0.816,0.65-1.25c0.566-0.667,0.949-1.15,1.149-1.45c0.267-0.467,0.417-1.05,0.45-1.75
			c0.033-0.6,0.05-1.067,0.05-1.4c-0.033-0.534-0.149-0.95-0.35-1.25c-0.434-0.633-1.517-1.034-3.25-1.2
			c-1.934-0.067-3.184-0.133-3.75-0.2c0.733-0.4,1.7-0.633,2.899-0.7c0.667-0.067,1.7-0.117,3.101-0.15l-0.25,0.15
			c3,0.5,4.816,0.767,5.45,0.8c0.333,0,1.133-0.1,2.399-0.3c1-0.167,1.767-0.167,2.3,0c0.2,1.633,0.2,2.7,0,3.2
			c-0.233,0.534-0.666,0.85-1.3,0.95c-0.7,0.033-1.233,0.083-1.6,0.15c-0.101,0.3-0.017,1.333,0.25,3.1
			c0.233,1.367-0.05,2.3-0.851,2.8l0.801,0.1l-0.5,0.35c-0.467,0.5-1.25,1.533-2.351,3.1c-0.166,0.267-0.366,0.6-0.6,1
			c-0.233,0.333-0.5,0.617-0.8,0.85c-0.167,0.133-0.5,0.35-1,0.65c-0.434,0.233-0.75,0.45-0.95,0.65
			c0.666,0.067,1.649-0.033,2.95-0.3c1.366-0.233,2.35-0.333,2.949-0.3c0.267,2.6,0.384,4.5,0.351,5.7
			c-0.101,2.5-0.667,4.217-1.7,5.15c-0.5,0.467-1.333,0.967-2.5,1.5c-1.4,0.633-2.3,1.083-2.7,1.35
			c-0.7,0.467-1.283,0.983-1.75,1.55c-0.233,0.267-0.366,0.483-0.399,0.65c-0.034,0.133-0.117,0.383-0.25,0.75
			c-0.4,1.1-0.7,2.65-0.9,4.65c-0.233,2.2-0.483,3.75-0.75,4.65L62.95,140.35z M75.75,195.7c-1.134,1.6-2.4,3.066-3.8,4.399
			c-1.233,0.567-2.117,1.184-2.65,1.851c-0.434,0.566-0.85,1.316-1.25,2.25c0.5-2.566,0.983-4.566,1.45-6c0.3-0.8,0.5-1.4,0.6-1.8
			c0.233-0.667,0.384-1.267,0.45-1.801c0.2-1.699-0.517-3.833-2.149-6.399c-1.7-2.7-2.551-4.8-2.551-6.3
			c0.134,0,0.617,0.033,1.45,0.1c0.8,0.066,1.434,0.083,1.9,0.05c-0.566,0.134-1.217,0.2-1.95,0.2c0.9,0.066,2.233,0.434,4,1.1
			c1.2,0.301,1.917,0.167,2.15-0.399c0.033-1,0.083-1.884,0.149-2.65c0.2-1.899,0.334-3.35,0.4-4.35
			c0.133-1.7,0.116-3.15-0.05-4.351c-0.034-0.166-0.334-1.017-0.9-2.55c-0.434-1.066-0.467-1.883-0.1-2.45
			c0.066-0.133,0.267-0.316,0.6-0.55c0.366-0.233,0.583-0.399,0.65-0.5c0.233-0.267,0.6-1.033,1.1-2.3
			c0.434-1.333,0.65-3.217,0.65-5.65c0-2.434-0.217-4.317-0.65-5.65l-0.6-1.7c0-0.567-0.051-1.133-0.15-1.7
			c-0.1-0.733-0.3-1.417-0.6-2.05v-0.05c-0.567-1.367-1.584-2.85-3.051-4.45c-0.199-0.233-1.483-1.533-3.85-3.9
			c-0.533,0.3-0.934,0.8-1.2,1.5c-0.633,1.7-1.133,2.867-1.5,3.5c-0.733,1.233-1.649,1.967-2.75,2.2
			c-0.8,0.133-1.85,0.083-3.15-0.15c-1.433-0.233-2.383-0.6-2.85-1.1c-0.333-0.3-0.533-0.867-0.6-1.7c0.1,0.566,0.4,0.967,0.9,1.2
			c0.633,0.267,1.717,0.367,3.25,0.3c-0.333,0.066-1.15,0.1-2.45,0.1c0.867,0.033,2.117,0.133,3.75,0.3
			c1.333-0.067,2.383-0.667,3.15-1.8c0.867-1.2,1.667-3.017,2.4-5.45l0.05-0.1c0.667-2.133,1.2-3.667,1.6-4.6
			c0.334-0.066,0.767-0.083,1.301-0.05c0.3,0,0.75,0.017,1.35,0.05c0.866,0,2.25-0.066,4.15-0.2c1,0,1.85,0.066,2.55,0.2
			c0,1.1-0.117,2.95-0.351,5.55c-0.1,2.3,0.084,4.1,0.551,5.4c0.199,0.6,0.649,1.35,1.35,2.25c0.2,0.433,0.333,0.95,0.4,1.55
			c0,0.367,0.017,0.9,0.05,1.6c0.133,1.133,0.333,2.8,0.6,5c0.2,1.934,0.316,3.583,0.351,4.95c0,0.933-0.15,1.8-0.45,2.6
			c-0.2,0.5-0.584,1.316-1.15,2.45c-0.767,1.7-0.866,3.817-0.3,6.35c0.533,2.333,1.434,4.233,2.7,5.7l0.8,0.899
			c-0.233,2.4-0.967,4.867-2.2,7.4c-0.267,0.533-0.45,1.066-0.55,1.6l-0.2,1.7c-0.1,0.867-0.517,1.983-1.25,3.351
			c-0.833,1.5-1.316,2.583-1.45,3.25C75.783,194.2,75.75,194.8,75.75,195.7z M25.95,292.8c1.1-1.833,1.867-3.883,2.3-6.149
			c0.4-1.934,0.667-4.233,0.8-6.9c0.067-3.066,0.133-5.4,0.2-7c-0.533,1.3-1.2,3.267-2,5.9c-0.027,0-0.043,0.008-0.05,0.024
			c0.067-0.555,0.151-1.08,0.25-1.575l0.6-2.649c1.133-3.867,1.75-8.5,1.85-13.9l0.1-6.35l0.05-2.3c1.233,0.6,2.2,0.566,2.9-0.101
			c-0.133,1.867-0.184,4.217-0.15,7.05c0.034,1.601,0.067,3.967,0.1,7.101c0,2-0.066,5-0.2,9c-0.1,3.566-0.017,6.55,0.25,8.95
			c0.867,0.1,1.716,0.1,2.55,0c0.267-2.101,0.5-3.5,0.7-4.2c0.5-1.733,0.85-3.783,1.05-6.15c0.167-2.733,0.3-4.8,0.4-6.2
			c0.1-1.433,0.533-3.983,1.3-7.649c0.667-3.233,0.983-5.8,0.95-7.7c0-1.267,0.317-3.167,0.95-5.7c0.167-0.7,0.333-1.733,0.5-3.1
			c0.167-1.467,0.316-2.5,0.45-3.101c0.2-0.899,0.35-1.866,0.45-2.899l0.25-5.9h0.05c0,2.367-0.1,4.334-0.3,5.9v2.55
			c0,1.7,0.067,4.333,0.2,7.9c0.1,3.199,0,5.816-0.3,7.85c-0.133,0.967-0.183,2.316-0.15,4.05c0,1.9-0.033,3.267-0.1,4.101
			c-0.1,1.399-0.45,3.3-1.05,5.699c-0.7,2.667-1.117,4.567-1.25,5.7c-0.467,3.334-0.35,5.417,0.35,6.25
			c0.167,0.2,0.483,0.351,0.95,0.45c0.233,0.066,0.567,0.134,1,0.2c2.233,0.434,4.267,0.649,6.1,0.649c0.133,0,0.467,0.034,1,0.101
			c0.5,0.033,0.817,0.017,0.95-0.05c0.2-0.101,0.333-0.267,0.4-0.5c0.066-0.301,0.15-0.5,0.25-0.601c0.1-0.133,0.65-0.666,1.65-1.6
			c0.6-0.566,1.017-1.2,1.25-1.9c0.933-2.767,1.4-6.166,1.4-10.2c-0.066-2.133-0.117-3.733-0.15-4.8
			c-0.033-1.967,0.017-3.583,0.15-4.85c0.367-3.8,0.583-6.601,0.65-8.4c0,0.467,0.034,1.017,0.1,1.65c0.167,1.2,0.25,2,0.25,2.399
			l-0.025,6.625L55.9,259.5c0,1.833,0.283,4.066,0.85,6.7c0.3,1.467,0.8,3.649,1.5,6.55c0.333,1.566,1.05,2.55,2.15,2.95
			c-1.133,0-1.983-0.3-2.55-0.9c-0.333,0.5-0.017,1.033,0.95,1.601c0.667,0.366,1.383,0.649,2.15,0.85
			c1.434,0.434,2.733,0.667,3.899,0.7c0.367,0,1.217-0.101,2.551-0.3c1.133-0.167,1.949-0.184,2.449-0.051
			c0.534,0.134,1.233,0.767,2.101,1.9c0.8,0.967,1.333,1.783,1.6,2.45c0.233,0.633,0.334,1.116,0.3,1.45
			c-0.033,0.333-0.25,0.866-0.649,1.6c-0.2,0.366-0.684,0.983-1.45,1.85c-0.667,0.733-1.083,1.334-1.25,1.801
			c-0.3,0.933-0.05,2.35,0.75,4.25c1,2.3,1.533,3.733,1.6,4.3c0.2,1.533-0.1,2.883-0.899,4.05c-0.8,1.233-1.95,1.917-3.45,2.05
			c-1,0.134-1.967,0.084-2.9-0.149c-1.133-0.301-1.899-0.801-2.3-1.5c-0.267-0.467-0.483-1.15-0.649-2.051
			c-0.267-1.166-0.434-1.85-0.5-2.05c-0.634-2.033-1.034-3.783-1.2-5.25c-0.133-1.533-0.284-2.533-0.45-3l-0.25-0.55v-4.7
			c0-1.866-0.283-3.366-0.85-4.5c-0.167-0.366-0.55-0.983-1.15-1.85c-0.467-0.733-0.8-1.367-1-1.9
			c-1.033-3.033-1.517-7.083-1.45-12.149c-0.167,3.166-0.25,5.05-0.25,5.649c0,0.233-0.083,0.967-0.25,2.2
			c-0.133,0.934-0.133,1.616,0,2.05c0.434,0.033,0.717,0.3,0.85,0.8c0.067,0.267,0.1,0.7,0.1,1.301c0.1,1,0.3,2.033,0.6,3.1
			c0.2,0.667,0.533,1.7,1,3.1c0.933,2.801,1.4,6.167,1.4,10.101v0.25v0.6c0,0.5,0.017,1.634,0.05,3.4
			c0.034,1.399,0.017,2.533-0.05,3.399c-0.167,2.034-0.25,3.084-0.25,3.15c-0.233,1.5-0.683,2.316-1.35,2.45l0.5,0.05
			c0.367,1.134,0.2,2.366-0.5,3.7c-0.667,1.3-1.55,2.184-2.65,2.649c-0.833,0.367-1.817,0.467-2.95,0.301
			c-0.733-0.101-1.733-0.367-3-0.801c-1.867-0.666-3.033-1.3-3.5-1.899c-0.466-0.601-0.683-1.783-0.65-3.55
			c0.067-1.2,0.083-2.15,0.05-2.851c-0.1-1.267-0.4-2.116-0.9-2.55c0.267-0.5,0.367-1.316,0.3-2.45
			c-0.133-1.467-0.184-2.333-0.15-2.6c0.233-1.066,0.35-1.9,0.35-2.5c-0.2-1.533-0.2-2.55,0-3.05c0.133-0.334,0.333-0.584,0.6-0.75
			c0.367-0.134,0.667-0.284,0.9-0.45c0.5-0.3,1.333-1,2.5-2.101c0.733-0.733,1.25-1.283,1.55-1.649c0.333-0.467,0.667-1.117,1-1.95
			c-1.3,0.533-3.233,0.583-5.8,0.15c-1.433-0.167-2.6-0.334-3.5-0.5c-1.7-0.301-2.733-0.7-3.1-1.2c-0.3-0.4-0.417-1.3-0.35-2.7
			c0.133-1.5,0.2-2.45,0.2-2.85c0.034-0.5,0.267-1.45,0.7-2.851c0.1-0.333,0.183-0.85,0.25-1.55s0.15-1.217,0.25-1.55
			c-0.767,1.366-1.333,3.1-1.7,5.2c-0.2,1.233-0.367,3.033-0.5,5.399c-0.133,2.601,0.083,4.467,0.65,5.601
			c0.133,0.233,0.5,0.8,1.1,1.699c0.467,0.7,0.767,1.284,0.9,1.75c0.133,0.5,0.183,1.15,0.15,1.95c-0.033,0.467-0.067,1.134-0.1,2
			c0,1.601-0.133,2.884-0.4,3.851c-0.3,1.133-0.867,2.3-1.7,3.5c-0.233,0.333-0.617,0.75-1.15,1.25c-0.5,0.5-0.867,0.899-1.1,1.199
			c-0.333,0.434-0.55,1.034-0.65,1.801c-0.133,0.866-0.267,1.449-0.4,1.75c-0.434,0.899-1.684,1.533-3.75,1.899
			c-0.934,0.101-1.65,0.267-2.15,0.5l-0.7,0.4l0.45-0.8c0-0.034,0-0.067,0-0.101s0.017-0.066,0.05-0.1
			c0-0.033,0.017-0.066,0.05-0.101c0.467-0.933,0.833-1.899,1.1-2.899l-0.4-0.05c-0.4-0.067-0.717-0.134-0.95-0.2
			c0.2-0.367,0.383-0.684,0.55-0.95l0.8-1.6c0.434-0.867,0.767-1.517,1-1.95c0.367-0.767,0.617-1.45,0.75-2.05
			c0.167-0.634,0.25-2,0.25-4.101c0-0.833,0.083-1.833,0.25-3c0.233-1.267,0.383-2.217,0.45-2.85c0.333-2.834,0.183-4.7-0.45-5.601
			c-0.133,0.301-0.417,1.117-0.85,2.45c-0.333,0.967-0.683,1.75-1.05,2.351c-0.233,0.399-0.433,0.883-0.6,1.449
			c-0.066,0.334-0.183,0.884-0.35,1.65c-0.1,0.5-0.45,1.25-1.05,2.25c-0.333,0.5-0.7,1.267-1.1,2.3
			c-0.2,0.334-0.517,0.684-0.95,1.05c-0.233,0.233-0.617,0.551-1.15,0.95l0.1-0.149l1.9-4.051
			C26.683,293.184,26.317,293,25.95,292.8z M86.2,304.95c0.066-1.134,0.083-2,0.05-2.601c-0.066-1.633-0.85-3.25-2.35-4.85
			l-0.7-1.15c-0.267-0.699-0.483-1.216-0.65-1.55c-0.233-0.633-0.5-1.166-0.8-1.6c-0.434-0.667-1.217-1.566-2.35-2.7
			c-1.134-1.134-1.934-2.033-2.4-2.7c-0.934-1.3-1.3-2.566-1.1-3.8c0.133-0.667,0.55-1.634,1.25-2.9
			c0.767-1.366,1.233-2.366,1.399-3c0.4-1.633,0.634-3.483,0.7-5.55v-4.899c-0.033-0.967-0.283-2.2-0.75-3.7
			c-0.533-1.7-0.85-2.934-0.95-3.7c-0.1-1-0.283-1.8-0.55-2.4c0,0.101-0.1,1.101-0.3,3c-0.101,1.2-0.15,2.2-0.15,3
			c0,1.634-0.066,2.667-0.2,3.101c-0.3,0.833-0.666,1.6-1.1,2.3c-0.033-2.2-0.033-3.833,0-4.9c0-2.733,0.316-5.3,0.95-7.699
			c0.399-1.301,0.633-2.117,0.7-2.45c0.199-1.033,0.199-1.9,0-2.601c-0.167-0.666-0.634-1.35-1.4-2.05
			c-0.9-0.833-1.45-1.399-1.65-1.7c-0.3-0.5-0.383-1-0.25-1.5c0.067-0.333,0.301-0.8,0.7-1.399c0.066-0.101,0.384-0.434,0.95-1
			c0.4-0.434,0.634-0.783,0.7-1.05c0.133-0.634-0.134-1.634-0.8-3c-0.801-1.434-1.301-2.367-1.5-2.801c-0.867-1.8-2-2.949-3.4-3.449
			c-0.7-0.2-1.9-0.217-3.6-0.051c-1.601,0.167-2.801,0.067-3.601-0.3c0.533-0.467,1.467-0.866,2.8-1.2
			c1.7-0.433,2.717-0.716,3.051-0.85l1.3-0.6c0.934-0.5,1.8-1.367,2.6-2.601c0.667-1.033,1.184-2.166,1.55-3.399
			c0.367-1.301,0.517-3,0.45-5.101c-0.133-2.399-0.217-4.149-0.25-5.25c0-1.166-0.3-2.416-0.899-3.75
			c-0.733-1.566-1.567-2.366-2.5-2.399c-0.067,0.366-0.351,0.783-0.851,1.25c-0.666,0.666-1.033,1.05-1.1,1.149
			c-0.434,0.634-0.7,1-0.8,1.101c-0.233,0.233-0.617,0.466-1.15,0.699c-0.6,0.267-1.384,0.534-2.35,0.801
			c-1.233,0.333-2.034,0.566-2.4,0.699c-1.467,0.5-3.333,0.75-5.6,0.75c-0.333,0-0.933-0.033-1.8-0.1
			c-1.667,0.4-3.033,0.35-4.1-0.15c0.633-0.1,2-0.05,4.1,0.15c0.767-0.2,2-0.65,3.7-1.35c1.567-0.667,2.7-1.067,3.4-1.2
			c1.333-0.3,2.399-0.816,3.2-1.55c1.899-0.467,3.767-2.15,5.6-5.051c0.366-0.666,0.767-1.149,1.2-1.449h8.649
			c0.367,1.3,0.684,3.033,0.95,5.199c0.334,2.634,0.584,4.367,0.75,5.2c0.167,0.733,0.351,1.283,0.55,1.65
			c0.2,0.333,0.634,0.85,1.301,1.55c0.366,0.434,1.05,1.167,2.05,2.2c0.866,0.967,1.366,1.816,1.5,2.55
			c0.1,0.4,0.149,1.033,0.149,1.9c0,1-0.083,1.616-0.25,1.85c-0.199,0.333-0.966,0.816-2.3,1.45c-1.033,0.8-1.649,1.333-1.85,1.6
			l1.05,0.2c0.333,0.066,0.616,0.217,0.85,0.45c0.233,0.3,0.45,1.083,0.65,2.35c0.2,0.8,0.316,1.783,0.35,2.95
			c0,0.667-0.017,1.667-0.05,3c0,0.4,0.033,1.066,0.101,2c0.066,0.866,0.033,1.533-0.101,2l-0.399,0.85
			c-0.101,0.167-0.267,0.417-0.5,0.75c-0.167,0.367-0.284,0.767-0.351,1.2c-0.399,0.9-0.533,1.733-0.399,2.5
			c0.1,0.601,0.316,1.334,0.649,2.2l0.65,3.15l-0.65,0.3c0.2,0,0.434,0.066,0.7,0.2c0.333,2.066,0.767,3.517,1.3,4.35
			c0.334,0.5,0.816,0.95,1.45,1.35c0.866,2.667,1.3,5.351,1.3,8.051l-0.05,7.35c0,1.167,0.033,1.967,0.1,2.4
			c0.101,0.733,0.367,1.5,0.801,2.3c1.699,2.967,2.75,4.883,3.149,5.75c1.033,2.233,1.566,4.316,1.601,6.25
			c0.033,0.833-0.101,1.633-0.4,2.399c-0.134,0.434-0.417,1.167-0.85,2.2c-0.434,1.267-0.584,3.117-0.45,5.55l0.35,1.9
			c0.167,0.833,0.184,1.467,0.05,1.9c-0.166,0.5-0.517,0.949-1.05,1.35c-0.333,0.233-0.833,0.583-1.5,1.05
			c-0.666,0.566-1.1,0.867-1.3,0.9c-0.267,0.033-0.8-0.15-1.6-0.55c-1.601-0.801-2.567-1.617-2.9-2.45L86.2,304.95z M67.3,207.2
			c-0.066,0.7-0.2,1.283-0.399,1.75c-0.233,0.434-0.551,0.733-0.95,0.899C66.55,209.15,67,208.267,67.3,207.2z M64.05,42.2
			c-0.633,0.066-1.083,0.066-1.35,0l0.5-0.45L64.05,42.2z M82.5,269.55c-0.1-1-0.384-2.416-0.85-4.25
			c-0.467-1.967-0.767-3.383-0.9-4.25c-0.634-4.3-0.917-7.333-0.85-9.1c-0.267,1.934-0.4,4.267-0.4,7c0,1.566,0.017,3.899,0.05,7
			v14.35c1.767-0.633,2.816-2.149,3.15-4.55C82.866,274.417,82.8,272.35,82.5,269.55z"/>
		<path style="fill-rule:evenodd;clip-rule:evenodd;fill:#6C5C47;" d="M62.95,140.35c-0.5,1.133-1.3,2.083-2.4,2.85
			c-0.367,0.3-0.85,0.517-1.45,0.65c-1.533,0.066-2.617-0.033-3.25-0.3c-0.5-0.233-0.8-0.633-0.9-1.2c0.066,0.833,0.267,1.4,0.6,1.7
			c0.467,0.5,1.417,0.867,2.85,1.1c1.3,0.233,2.35,0.283,3.15,0.15c1.101-0.233,2.017-0.966,2.75-2.2c0.367-0.633,0.867-1.8,1.5-3.5
			c0.267-0.7,0.667-1.2,1.2-1.5c2.366,2.367,3.65,3.667,3.85,3.9c1.467,1.6,2.483,3.083,3.051,4.45v0.05
			c0.3,0.633,0.5,1.317,0.6,2.05c0.1,0.567,0.15,1.133,0.15,1.7c-0.267-0.8-0.434-1.4-0.5-1.8l0.1,0.85
			c-0.467,0.5-0.667,1.567-0.6,3.2c0.033,0.867,0.116,2.033,0.25,3.5l-0.101,2.15c-0.066,1.133-0.149,1.95-0.25,2.45
			c-0.066,0.467-0.166,0.9-0.3,1.3c-0.366,1.1-1.134,2.45-2.3,4.05c-1.4,1.833-2.283,3.116-2.65,3.85
			c0.134,0.134,0.417,0.283,0.851,0.45c0.399,0.167,0.633,0.316,0.699,0.45c0.101,0.1,0.134,0.3,0.101,0.6
			c-0.066,0.334-0.084,0.55-0.05,0.65c0.133,0.666,0.267,1.684,0.399,3.05c0.3,1.634,0.483,2.717,0.55,3.25
			c0.134,1.2,0.134,2.3,0,3.3c-0.433,0.2-0.983,0.367-1.649,0.5c-0.467,0.033-1.101,0.017-1.9-0.05c-0.833-0.066-1.316-0.1-1.45-0.1
			c0,1.5,0.851,3.6,2.551,6.3c1.633,2.566,2.35,4.7,2.149,6.399c-0.066,0.534-0.217,1.134-0.45,1.801c-0.1,0.399-0.3,1-0.6,1.8
			c-0.467,1.434-0.95,3.434-1.45,6l-0.45,1.1c0,0.066-0.1,0.7-0.3,1.9c-0.3,1.066-0.75,1.95-1.35,2.649
			c-0.167,0.067-0.467,0.184-0.9,0.351c-0.366,0.1-0.633,0.217-0.8,0.35l1.15-0.149c-0.801,0.733-1.867,1.25-3.2,1.55
			c-0.7,0.133-1.833,0.533-3.4,1.2c-1.7,0.699-2.933,1.149-3.7,1.35c-2.1-0.2-3.467-0.25-4.1-0.15c1.067,0.5,2.433,0.551,4.1,0.15
			c0.867,0.066,1.467,0.1,1.8,0.1c2.267,0,4.133-0.25,5.6-0.75c0.366-0.133,1.167-0.366,2.4-0.699
			c0.966-0.267,1.75-0.534,2.35-0.801c0.533-0.233,0.917-0.466,1.15-0.699c0.1-0.101,0.366-0.467,0.8-1.101
			c0.066-0.1,0.434-0.483,1.1-1.149c0.5-0.467,0.783-0.884,0.851-1.25c0.933,0.033,1.767,0.833,2.5,2.399
			c0.6,1.334,0.899,2.584,0.899,3.75c0.033,1.101,0.117,2.851,0.25,5.25c0.066,2.101-0.083,3.8-0.45,5.101
			c-0.366,1.233-0.883,2.366-1.55,3.399c-0.8,1.233-1.666,2.101-2.6,2.601l-1.3,0.6c-0.334,0.134-1.351,0.417-3.051,0.85
			c-1.333,0.334-2.267,0.733-2.8,1.2c0.8,0.367,2,0.467,3.601,0.3c1.699-0.166,2.899-0.149,3.6,0.051c1.4,0.5,2.533,1.649,3.4,3.449
			c0.199,0.434,0.699,1.367,1.5,2.801c0.666,1.366,0.933,2.366,0.8,3c-0.066,0.267-0.3,0.616-0.7,1.05
			c-0.566,0.566-0.884,0.899-0.95,1c-0.399,0.6-0.633,1.066-0.7,1.399c-0.133,0.5-0.05,1,0.25,1.5c0.2,0.301,0.75,0.867,1.65,1.7
			c0.767,0.7,1.233,1.384,1.4,2.05c0.199,0.7,0.199,1.567,0,2.601c-0.067,0.333-0.301,1.149-0.7,2.45
			c-0.634,2.399-0.95,4.966-0.95,7.699c-0.033,1.067-0.033,2.7,0,4.9c-0.866,1.434-2.033,2.55-3.5,3.35
			c-2.533,1.467-5.384,2.384-8.55,2.75c-1.233,0.233-2.167,0.351-2.8,0.351c-1.1-0.4-1.816-1.384-2.15-2.95
			c-0.7-2.9-1.2-5.083-1.5-6.55c-0.567-2.634-0.85-4.867-0.85-6.7l-0.025,0.975l0.025-6.625c0-0.399-0.083-1.199-0.25-2.399
			c-0.066-0.634-0.1-1.184-0.1-1.65c-0.066,1.8-0.283,4.601-0.65,8.4c-0.133,1.267-0.183,2.883-0.15,4.85
			c0.033,1.066,0.083,2.667,0.15,4.8c0,4.034-0.467,7.434-1.4,10.2c-0.233,0.7-0.65,1.334-1.25,1.9c-1,0.934-1.55,1.467-1.65,1.6
			c-0.1,0.101-0.184,0.3-0.25,0.601c-0.067,0.233-0.2,0.399-0.4,0.5c-0.133,0.066-0.45,0.083-0.95,0.05
			c-0.533-0.066-0.867-0.101-1-0.101c-1.833,0-3.867-0.216-6.1-0.649c-0.433-0.066-0.767-0.134-1-0.2
			c-0.467-0.1-0.783-0.25-0.95-0.45c-0.7-0.833-0.817-2.916-0.35-6.25c0.133-1.133,0.55-3.033,1.25-5.7
			c0.6-2.399,0.95-4.3,1.05-5.699c0.067-0.834,0.1-2.2,0.1-4.101c-0.033-1.733,0.017-3.083,0.15-4.05c0.3-2.033,0.4-4.65,0.3-7.85
			c-0.133-3.567-0.2-6.2-0.2-7.9v-2.55c0.2-1.566,0.3-3.533,0.3-5.9l0.65-0.6l8.4-6.45c1.066-0.833,1.933-1.517,2.6-2.05
			c1.267-1,2.25-1.65,2.95-1.95c1.267-0.434,2.2-0.434,2.8,0c0.433,0.333,0.633,0.9,0.6,1.7c0,0.434,0,1.05,0,1.85
			c0.133,0.934,0.517,1.55,1.15,1.851c0.467,0.233,1.25,0.333,2.35,0.3c2.767-0.066,4.717-1.184,5.851-3.351
			c1.6-3.166,2.267-7.6,2-13.3l-2,2c-0.634,0.101-1.334,0.684-2.101,1.75c-0.899,1.233-1.517,1.967-1.85,2.2
			c-2.4,1.634-6.3,2.2-11.7,1.7c-1.467-0.3-2.6-0.417-3.4-0.351c-1.133,0.134-2.867,0.851-5.2,2.15c-1.667,1.1-2.95,1.833-3.85,2.2
			c-0.1,0.033-0.433,0.116-1,0.25c-0.5,0.1-0.833,0.217-1,0.35c-0.7,0.533-1.15,1.584-1.35,3.15c-0.233,1.866-0.517,3.066-0.85,3.6
			c-0.067,0.101-0.617,0.717-1.65,1.851c0.066-1.834,0.216-3.233,0.45-4.2c0.133-0.634,0.283-1.7,0.45-3.2
			c0.167-1.4,0.35-2.5,0.55-3.3c0.167-0.634,0.383-1.717,0.65-3.25c0.233-1.367,0.483-2.45,0.75-3.25
			c0.133-0.434,0.567-1.316,1.3-2.65c0.4-0.8,0.65-1.583,0.75-2.35c0.4,0.066,0.9,0.083,1.5,0.05c0.367,0,0.85-0.017,1.45-0.05
			c2.034-0.033,4.25-0.417,6.65-1.15c0.933-0.267,3.05-1,6.35-2.2c2.434-0.833,4.133-1.583,5.1-2.25c1.433-0.933,2.216-1.6,2.35-2
			l-0.7,2.25c1.101-1.366,1.816-3.033,2.15-5c0.2-1.3,0.267-3.183,0.2-5.649c-0.034-0.967-0.117-1.717-0.25-2.25
			c-0.2-0.767-0.567-1.434-1.101-2c-0.733-0.867-1.616-1.2-2.65-1c-0.933,0.133-1.816,0.649-2.65,1.55c-0.267,0.267-0.6,0.85-1,1.75
			c-0.367,0.833-0.7,1.35-1,1.55c-0.333,0.233-0.767,0.367-1.3,0.4c-0.6,0-1.05,0-1.35,0c-2.067,0-3.2,0.017-3.4,0.05
			c-1.3,0.1-2.4,0.4-3.3,0.9c-0.833,0.533-1.667,1.25-2.5,2.149c-0.333,0.367-1.033,1.217-2.1,2.55c-0.933,1.2-1.633,2.417-2.1,3.65
			c-0.1,0.634-0.184,1.95-0.25,3.95c0-0.533,0-0.967,0-1.3c0.066-1.4,0.183-2.584,0.35-3.551c0.1-0.5,0.567-2.05,1.4-4.649l0.2-3.25
			c0.1-0.967,0.333-2.384,0.7-4.25c0.367-1.9,0.6-3.316,0.7-4.25c0.067-0.733,0.133-2.334,0.2-4.8c0-0.733,0.033-1.4,0.1-2l3.15-4.5
			c0.933-1.434,2.033-2.667,3.3-3.7c0.967-0.767,2.367-1.667,4.2-2.7c1.5-0.833,2.417-1.367,2.75-1.6c0.967-0.7,1.683-1.5,2.15-2.4
			c0.5-1.333,0.967-2.317,1.4-2.95c0.667-1,1.084-1.75,1.25-2.25c-1.433,0.833-2.933,1.117-4.5,0.85
			c-0.167-0.733-0.05-1.35,0.35-1.85c0.267-0.367,0.783-0.767,1.55-1.2c1.1-0.567,1.916-1.017,2.45-1.35
			c0.966-0.533,1.716-1.067,2.25-1.6c1.3-1.233,2.116-2.95,2.449-5.15c0.134-0.967,0.2-2.9,0.2-5.8l-2.3,0.65
			c-0.833,1.667-1.483,2.75-1.95,3.25c-0.8,1-1.85,1.583-3.15,1.75c-0.467,0.066-1.283,0-2.45-0.2
			c-1.133-0.233-1.917-0.283-2.35-0.15c-0.434,0.1-0.767,0.45-1,1.05c-0.267,0.7-0.517,1.15-0.75,1.35
			c-0.434,0.367-1.117,0.733-2.05,1.1c-0.767,0.4-1.216,1.017-1.35,1.85c-0.1,0.633,0.033,1.6,0.4,2.9
			c0.333,1.233,0.417,2.133,0.25,2.7c-2.067,0.6-3.367,2.716-3.9,6.35c-0.039-2.625-0.072-6.142-0.1-10.55
			c-0.067-6.433,0.117-11.617,0.55-15.55c0.067-0.767,0.333-1.983,0.8-3.65c0.4-1.566,0.633-2.816,0.7-3.75
			c0.067-1.466,0.117-2.55,0.15-3.25c0.1-1.167,0.25-2.2,0.45-3.1c0.8-3.067,1.4-5.417,1.8-7.05c0.667-2.9,1.034-5.3,1.1-7.2
			c0-0.133-0.033-2.233-0.1-6.3c-0.066-2.566,0.1-4.633,0.5-6.2c1.067-4.233,1.6-8.733,1.6-13.5l1.95-1.7l0.7-6.75
			c-0.1-2.533-0.15-4.383-0.15-5.55l0.05-4.1l0.1,8.65l0.3,0.75c0.066,0.267,0.117,0.7,0.15,1.3c0.033,0.534,0.1,0.934,0.2,1.2
			c0.333-0.033,0.583-0.383,0.75-1.05c0.133-0.8,0.25-1.333,0.35-1.6c0.333-0.767,0.833-1.65,1.5-2.65c0.567-1,1.034-1.767,1.4-2.3
			c0.666-0.9,1.383-1.367,2.149-1.4c0.034-0.667,0.284-1.733,0.75-3.2c0.434-1.367,0.65-2.483,0.65-3.35c0-1.333-0.1-2.217-0.3-2.65
			c-0.167-0.333-0.584-0.783-1.25-1.35c-0.601-0.534-0.967-1.017-1.101-1.45c-0.166-0.567-0.183-1.383-0.05-2.45
			c0.233-1.167,0.367-2,0.4-2.5c0-1.733,0.1-2.767,0.3-3.1c0.267-0.4,0.65-0.6,1.15-0.6c0.3-0.033,0.783-0.05,1.449-0.05
			c0.067-0.867,0.101-1.4,0.101-1.6c-0.066-0.567-0.316-1.017-0.75-1.35c-0.367-0.267-0.95-0.5-1.75-0.7c-0.767-0.2-1.4-0.3-1.9-0.3
			c-1.133-0.033-2.433,0.483-3.9,1.55c0.2-0.533,0.45-1.133,0.75-1.8c0.567-1.3,0.917-2.25,1.05-2.85c0.167-0.8,0.25-1.967,0.25-3.5
			c0.033-1.667,0.1-2.85,0.2-3.55c0.3-1.667,0.517-2.934,0.65-3.8c0.2-1.467,0.317-2.75,0.35-3.85c0-3.233,0.033-5.65,0.1-7.25
			c0.067-2.767,0.367-5.133,0.9-7.1c0.633-1.733,1.067-3.15,1.3-4.25c0.2,0.133,0.333,0.267,0.399,0.4
			c0.167,0.367,0.15,1.233-0.05,2.6c0,1.233-0.217,2.933-0.649,5.1c-0.167,1.467,0.199,3.267,1.1,5.4c1,2.333,1.517,4.083,1.55,5.25
			c0.101,3.433,0.017,6.117-0.25,8.05c-0.366,2.8-1.166,5.333-2.399,7.6l0.3,0.15l3.7,1.85c0.033,0.4,0.333,2.383,0.899,5.95
			c0.367,2.434,0.4,4.383,0.101,5.85c-0.067,0.333-0.267,0.917-0.601,1.75C67,57.817,66.866,58.433,66.9,59
			c0,0.367,0.066,1.783,0.199,4.25c0.101,1.767,0.15,3.233,0.15,4.4c0,1.267-0.167,2.617-0.5,4.05c-0.066,0.267-0.434,1.6-1.1,4
			c-0.367,1.367-1.134,2.433-2.301,3.2c-0.666,0.434-1.783,1.117-3.35,2.05l3.5-0.25c0.833-0.133,1.3-0.167,1.4-0.1
			c0.333,0.133,0.5,0.333,0.5,0.6c0.033,0.367,0.1,0.617,0.199,0.75c0.233,0.333,0.567,0.583,1,0.75L64.9,83.55
			c-0.634,0.267-1.517,0.383-2.65,0.35c-1.3-0.033-2.2,0-2.7,0.1c0.267,0.233,0.784,0.4,1.55,0.5c0.433,0.067,1.016,0.133,1.75,0.2
			c2.367,0.367,4.717,0.566,7.051,0.6H72.8l0.101,0.05l0.35,0.3l0.1,1.3c-0.3,0.233-0.783,0.566-1.449,1
			c-0.534,0.367-0.784,0.716-0.75,1.05c0.233-0.067,0.583-0.067,1.05,0c0.267,2.267-0.084,4.133-1.05,5.6L70.3,95.2
			c-0.267,0.167-0.833,0.4-1.7,0.7c-0.8,0.267-1.35,0.533-1.649,0.8c-1.4,0.033-2.434,0.083-3.101,0.15
			c-1.199,0.066-2.167,0.3-2.899,0.7c0.566,0.067,1.816,0.133,3.75,0.2c1.733,0.167,2.816,0.567,3.25,1.2
			c0.2,0.3,0.316,0.716,0.35,1.25c0,0.333-0.017,0.8-0.05,1.4c-0.033,0.7-0.184,1.283-0.45,1.75c-0.2,0.3-0.583,0.783-1.149,1.45
			c-0.334,0.434-0.551,0.85-0.65,1.25c-0.066,0.267-0.1,0.767-0.1,1.5c0,1.833-0.45,3.967-1.351,6.4
			c-0.366,0.933-1.05,1.85-2.05,2.75c-1.067,0.966-2.1,1.583-3.1,1.85c0.767,0.133,1.533,0.167,2.3,0.1
			c0.267,0,0.816-0.117,1.649-0.35c0.801-0.167,1.334-0.15,1.601,0.05c0.3,0.233,0.55,0.95,0.75,2.15c0.133,0.933,0.2,1.75,0.2,2.45
			c0.066,1.367,0.017,2.433-0.15,3.2c-0.167,0.967-0.566,1.934-1.2,2.9c-0.434,0.667-0.717,1.317-0.85,1.95
			c-0.101,0.433-0.15,1.133-0.15,2.1c0,2.467-0.133,4.35-0.399,5.65L62.95,140.35z M83,159.9c0.267,1.8,0.434,3.15,0.5,4.05
			l-0.1-0.85L83,159.9z M80.15,103.7c0.233,0.533,0.399,1.066,0.5,1.6c0.133,0.667,0.216,1.5,0.25,2.5
			C80.8,106.167,80.55,104.8,80.15,103.7z M80,103.3v0.05l-0.35,0.5L80,103.3z M64.05,42.2l-0.85-0.45l-0.5,0.45
			C62.967,42.267,63.417,42.267,64.05,42.2z M57.25,98.6l-0.7,0.7c-1,0.667-1.7,1.233-2.1,1.7c-0.733,0.867-0.883,1.7-0.45,2.5
			c0.767-0.167,1.683-0.55,2.75-1.15c1.4-0.867,2.267-1.367,2.6-1.5c0.233-0.1,1.3-0.4,3.2-0.9c0.733-0.233,1.15-0.4,1.25-0.5
			c0.2-0.2-0.05-0.483-0.75-0.85c-0.633-0.3-1.617-0.467-2.95-0.5C58.733,98.1,57.783,98.267,57.25,98.6z M59.45,91.1
			c2.2-0.367,3.55-0.517,4.05-0.45c-0.167,0.533-0.45,1.15-0.85,1.85c-0.233,0.4-0.584,0.983-1.05,1.75
			c2.133,0.167,3.516,0.217,4.15,0.15c1.833-0.167,2.9-0.816,3.2-1.95c0.066-0.2,0.017-1.25-0.15-3.15
			c-0.133-1.566,0.017-2.466,0.45-2.7l-1-0.65c-1.833-0.1-3.2-0.133-4.1-0.1c-1.534,0.066-2.784,0.4-3.75,1
			C59.2,87.617,57.683,89,55.85,91C56.417,91.367,57.617,91.4,59.45,91.1z M78.25,106.1c-0.167,0.333-0.384,0.583-0.65,0.75
			l0.301-0.3L78.25,106.1z M62.25,105.95c-0.533,0.433-1.567,1.1-3.1,2c-1.367,0.8-2.367,1.533-3,2.2
			c-1.1,1.167-2.066,2.434-2.9,3.8c-1.1,1.733-1.667,3.15-1.7,4.25c0.633,0.033,1.867-0.267,3.7-0.9c0.867-0.2,1.8-0.633,2.8-1.3
			c1.6-1.167,2.817-2.417,3.65-3.75c0.866-1.333,1.483-2.983,1.85-4.95L62.25,105.95z M63.55,120.3c-1.2-0.5-2.333-0.6-3.4-0.3
			c-0.933,0.267-1.917,0.867-2.95,1.8c-0.633,0.6-1.617,1.483-2.95,2.65c-1.033,1.066-1.717,2.133-2.05,3.2
			c-0.333,1.167-0.2,1.8,0.4,1.9c1.1,0.2,1.816,0.467,2.15,0.8c0.333,0.333,0.533,1,0.6,2c0.133,1.267,0.233,2.017,0.3,2.25
			c0.5,1.6,1.017,2.5,1.55,2.7c0.7,0.3,1.483,0.167,2.35-0.4c0.667-0.433,1.233-1,1.7-1.7c0.866-1.2,1.283-3.133,1.25-5.8
			c-0.167-2.967-0.25-5-0.25-6.1L63.55,120.3z M67.95,158.5c-0.634,0.733-1.733,1.783-3.3,3.15L60.8,164.7l-1.5,1.55
			c-0.4,0.533-0.683,1.184-0.85,1.95c-0.467,0.467-1.3,0.967-2.5,1.5c-1.3,0.6-2.184,1.1-2.65,1.5c-0.433,0.366-1.15,0.85-2.15,1.45
			c-0.667,0.533-1.333,1.517-2,2.949c-0.9,1.367-1.55,2.717-1.95,4.051c-0.367,1.233-0.583,2.716-0.65,4.449
			c0.1-1.267,1.517-2.233,4.25-2.899c1.633-0.4,2.833-0.75,3.6-1.05c1.233-0.467,2.317-1.084,3.25-1.851
			c3.567-2.967,6.083-5.616,7.55-7.95c0.2-0.333,1.116-1.433,2.75-3.3c1.1-1.267,1.783-2.533,2.05-3.8c0.066-0.3,0.066-1.567,0-3.8
			c-0.066-1.8,0.116-2.967,0.55-3.5l-0.3-1.35C69.917,155.833,69.15,157.133,67.95,158.5z M68.9,173.6H65.55
			c-0.467,1.067-1.333,2.434-2.6,4.101c-1.367,1.733-2.267,3.05-2.7,3.95c0.633,0.466,1.433,0.55,2.4,0.25
			c0.767-0.233,1.517-0.634,2.25-1.2c1.1-0.834,1.966-1.884,2.6-3.15c0.134-0.267,0.35-0.983,0.65-2.149
			C68.417,174.4,68.667,173.8,68.9,173.6z M87.275,185.175c0.063,0.856,0.105,1.665,0.125,2.425l-0.101-1.85
			C87.292,185.564,87.284,185.373,87.275,185.175z M103.8,306.4c-0.066-0.233-0.133-0.45-0.2-0.65
			c0.101,0.233,0.184,0.483,0.25,0.75c0.101,0.4,0.15,0.833,0.15,1.3C103.967,307.3,103.9,306.833,103.8,306.4z M82.5,269.55
			c0.3,2.8,0.366,4.867,0.2,6.2c-0.334,2.4-1.384,3.917-3.15,4.55v-14.35c-0.033-3.101-0.05-5.434-0.05-7c0-2.733,0.134-5.066,0.4-7
			c-0.067,1.767,0.216,4.8,0.85,9.1c0.134,0.867,0.434,2.283,0.9,4.25C82.116,267.134,82.4,268.55,82.5,269.55z M62.55,203.95
			c-0.166,1.267-1.5,2.416-4,3.45c-2.3,0.899-3.283,1.85-2.95,2.85c1.7,0.233,3.3-0.1,4.8-1c0.867-0.533,2.15-1.634,3.85-3.3
			L62.55,203.95z M46.55,233.95c-0.6,0.467-0.983,1.116-1.15,1.95c-0.033,0.199-0.1,0.983-0.2,2.35c-0.034,1.2-0.217,2.967-0.55,5.3
			c-0.066,0.7-0.1,2.834-0.1,6.4c0,2.166-0.017,3.383-0.05,3.649c0,0.134-0.15,0.733-0.45,1.801c-0.2,0.733-0.233,1.35-0.1,1.85
			c0.433,0.134,0.833,0.134,1.2,0c0.033-0.333,0.167-0.634,0.4-0.9c0.333-0.267,0.567-0.5,0.7-0.699
			c0.467-0.601,1.017-1.75,1.65-3.45c0.867-2.4,1.533-4.533,2-6.4c0.733-2.899,1.133-5.149,1.2-6.75
			c0.066-2.833-0.667-4.866-2.2-6.1L46.55,233.95z M30,254.2c0-0.66,0-1.244,0-1.75c0.067-3.101,0.2-5.767,0.4-8
			c0.133-1.5,1.117-3.316,2.95-5.45c1.311-1.52,2.119-2.928,2.425-4.225c-0.069,0.329-0.16,0.653-0.275,0.975
			c1.267-0.333,2.6-0.95,4-1.85l3-2.601l-0.25,5.9c-0.1,1.033-0.25,2-0.45,2.899c-0.133,0.601-0.283,1.634-0.45,3.101
			c-0.167,1.366-0.333,2.399-0.5,3.1c-0.633,2.533-0.95,4.434-0.95,5.7c0.033,1.9-0.283,4.467-0.95,7.7
			c-0.767,3.666-1.2,6.217-1.3,7.649c-0.1,1.4-0.233,3.467-0.4,6.2c-0.2,2.367-0.55,4.417-1.05,6.15c-0.2,0.7-0.434,2.1-0.7,4.2
			c-0.833,0.1-1.683,0.1-2.55,0c-0.267-2.4-0.35-5.384-0.25-8.95c0.133-4,0.2-7,0.2-9c-0.033-3.134-0.066-5.5-0.1-7.101
			c-0.033-2.833,0.017-5.183,0.15-7.05c-0.7,0.667-1.667,0.7-2.9,0.101L30,254.2z M58.15,241.1c-0.433,0.567-0.75,1.15-0.95,1.75
			c-0.267,0.834-0.4,1.9-0.4,3.2c0,0.733,0.034,1.816,0.1,3.25c-0.033,1.634,0.167,2.917,0.6,3.851c0.567,1.199,1.567,1.916,3,2.149
			c1.133,0.2,1.934-0.233,2.4-1.3c0.399-1.4,0.733-2.45,1-3.15c0.399-0.966,1.199-2.083,2.399-3.35c1.4-1.467,2.3-2.55,2.7-3.25
			c0.6-1,0.9-2.384,0.9-4.15c0.033-2.033-0.634-2.966-2-2.8l-1-2c-1.301,0.2-2.301,0.367-3,0.5c-1.233,0.233-2.134,0.634-2.7,1.2
			c-0.233,0.233-0.517,0.667-0.85,1.3c-0.367,0.634-0.65,1.066-0.85,1.3C59.2,240,58.75,240.5,58.15,241.1z M38.25,241.95
			c-2.467-0.167-3.7,2.283-3.7,7.35c0,0.434-0.017,1.084-0.05,1.95c-0.033,0.8-0.017,1.434,0.05,1.9
			c0.067,0.533,0.233,0.899,0.5,1.1c0.434,0.4,0.733,0.717,0.9,0.95c0.433,0.666,0.667,1.783,0.7,3.35c0,0.867-0.033,2.084-0.1,3.65
			c0,0.434-0.05,1.399-0.15,2.899c0,1.367,0.25,2.2,0.75,2.5c0.467-1.166,0.817-2.6,1.05-4.3c0.066-0.566,0.2-2.05,0.4-4.45
			l0.7-7.949c0.034-0.7,0.217-1.817,0.55-3.351c0.267-1.366,0.4-2.467,0.4-3.3v-4.95L38.25,241.95z M59.25,291.95l0.05,0.7
			l-0.05-0.45V291.95z M23.5,300.7c0.067-0.566,0.417-1.367,1.05-2.4c0.2-0.333,0.4-0.633,0.6-0.899l-0.1,0.149
			C24.117,299.083,23.6,300.134,23.5,300.7z M53,258.85c-0.033,0.434-0.1,1.101-0.2,2c-0.4,3.067-0.6,5.317-0.6,6.75
			c0.066,2.834-0.567,5.367-1.9,7.601c-1.1,1.866-1.117,3.2-0.05,4c0.733,0.6,1.3,0.483,1.7-0.351c0.333-1.133,0.65-1.883,0.95-2.25
			l0.65-10.3c0.1-2.066,0.167-3.633,0.2-4.7c0.067-1.866-0.017-3.399-0.25-4.6C53.267,257.434,53.1,258.05,53,258.85z M59.3,314.35
			c-4.066,1.4-8.867,2.101-14.4,2.101l2.25-0.05c3.3-0.101,6.434-0.517,9.4-1.25L59.3,314.35z M27.625,310.95
			c-0.117,0.247-0.175,0.48-0.175,0.7c0,0.3,0.033,0.583,0.1,0.85c-0.133-0.434-0.15-0.866-0.05-1.3
			C27.529,311.142,27.571,311.059,27.625,310.95z M35.5,315.85c0.367,0.067,0.733,0.134,1.1,0.2c-0.434-0.066-0.833-0.133-1.2-0.2
			H35.5z"/>
		<path style="fill-rule:evenodd;clip-rule:evenodd;fill:#76654E;" d="M56.95,65.35l-0.05-12.3c0-3.1,0.133-5.333,0.4-6.7
			c0.067-0.333,0.184-0.733,0.35-1.2c1.467-1.066,2.767-1.583,3.9-1.55c0.5,0,1.134,0.1,1.9,0.3c0.8,0.2,1.383,0.434,1.75,0.7
			c0.434,0.333,0.684,0.783,0.75,1.35c0,0.2-0.033,0.733-0.101,1.6c-0.666,0-1.149,0.017-1.449,0.05c-0.5,0-0.884,0.2-1.15,0.6
			c-0.2,0.333-0.3,1.367-0.3,3.1c-0.033,0.5-0.167,1.333-0.4,2.5c-0.133,1.067-0.116,1.883,0.05,2.45
			c0.134,0.433,0.5,0.917,1.101,1.45c0.666,0.566,1.083,1.017,1.25,1.35c0.2,0.434,0.3,1.317,0.3,2.65
			c0,0.867-0.217,1.983-0.65,3.35c-0.466,1.467-0.716,2.534-0.75,3.2c-0.767,0.033-1.483,0.5-2.149,1.4
			c-0.367,0.533-0.833,1.3-1.4,2.3c-0.667,1-1.167,1.883-1.5,2.65c-0.1,0.267-0.216,0.8-0.35,1.6
			c-0.167,0.667-0.417,1.017-0.75,1.05c-0.1-0.267-0.167-0.667-0.2-1.2c-0.033-0.6-0.083-1.033-0.15-1.3L57.05,74L56.95,65.35z
			 M44.6,177.15l-0.05,0.05c0.034-0.667,0.133-1.384,0.3-2.15l0.1-0.6c0.133-0.634,0.45-1.434,0.95-2.4s0.8-1.733,0.9-2.3l0.1-1
			c0-0.333,0.017-0.8,0.05-1.4v-3.8c0.533-3.633,1.833-5.75,3.9-6.35c0.167-0.567,0.083-1.467-0.25-2.7
			c-0.367-1.3-0.5-2.267-0.4-2.9c0.133-0.833,0.583-1.45,1.35-1.85c0.934-0.367,1.617-0.733,2.05-1.1
			c0.233-0.2,0.483-0.65,0.75-1.35c0.233-0.6,0.566-0.95,1-1.05c0.433-0.133,1.217-0.083,2.35,0.15c1.167,0.2,1.983,0.267,2.45,0.2
			c1.3-0.167,2.35-0.75,3.15-1.75c0.467-0.5,1.117-1.583,1.95-3.25l2.3-0.65c0,2.9-0.066,4.833-0.2,5.8
			c-0.333,2.2-1.149,3.917-2.449,5.15c-0.534,0.533-1.284,1.067-2.25,1.6c-0.534,0.333-1.351,0.783-2.45,1.35
			c-0.767,0.433-1.284,0.833-1.55,1.2c-0.4,0.5-0.517,1.117-0.35,1.85c1.567,0.267,3.067-0.017,4.5-0.85
			c-0.166,0.5-0.583,1.25-1.25,2.25c-0.433,0.633-0.9,1.617-1.4,2.95c-0.467,0.9-1.183,1.7-2.15,2.4
			c-0.333,0.233-1.25,0.767-2.75,1.6c-1.833,1.033-3.233,1.934-4.2,2.7c-1.267,1.033-2.367,2.267-3.3,3.7L44.6,177.15z
			 M40.85,207.95c0.033-0.167,0.05-0.334,0.05-0.5c0-0.101,0-0.2,0-0.3c0-0.067,0-0.134,0-0.2l0.05-1.75
			c0.066-2,0.15-3.316,0.25-3.95c0.466-1.233,1.167-2.45,2.1-3.65c1.067-1.333,1.767-2.183,2.1-2.55
			c0.833-0.899,1.667-1.616,2.5-2.149c0.9-0.5,2-0.801,3.3-0.9c0.2-0.033,1.333-0.05,3.4-0.05c0.3,0,0.75,0,1.35,0
			c0.533-0.033,0.966-0.167,1.3-0.4c0.3-0.2,0.633-0.717,1-1.55c0.4-0.9,0.733-1.483,1-1.75c0.833-0.9,1.717-1.417,2.65-1.55
			c1.034-0.2,1.917,0.133,2.65,1c0.533,0.566,0.9,1.233,1.101,2c0.133,0.533,0.216,1.283,0.25,2.25c0.066,2.467,0,4.35-0.2,5.649
			c-0.334,1.967-1.05,3.634-2.15,5l0.7-2.25c-0.134,0.4-0.917,1.067-2.35,2c-0.967,0.667-2.667,1.417-5.1,2.25
			c-3.3,1.2-5.417,1.934-6.35,2.2c-2.4,0.733-4.617,1.117-6.65,1.15c-0.6,0.033-1.083,0.05-1.45,0.05
			C41.75,208.033,41.25,208.017,40.85,207.95z M35.775,234.775l0.125-0.726c0-0.2,0-0.399,0-0.6c0-1.233,0.017-2.334,0.05-3.3
			c1.033-1.134,1.583-1.75,1.65-1.851c0.333-0.533,0.617-1.733,0.85-3.6c0.2-1.566,0.65-2.617,1.35-3.15
			c0.167-0.133,0.5-0.25,1-0.35c0.567-0.134,0.9-0.217,1-0.25c0.9-0.367,2.184-1.101,3.85-2.2c2.333-1.3,4.067-2.017,5.2-2.15
			c0.8-0.066,1.933,0.051,3.4,0.351c5.4,0.5,9.3-0.066,11.7-1.7c0.333-0.233,0.95-0.967,1.85-2.2
			c0.767-1.066,1.467-1.649,2.101-1.75l2-2c0.267,5.7-0.4,10.134-2,13.3c-1.134,2.167-3.084,3.284-5.851,3.351
			c-1.1,0.033-1.883-0.066-2.35-0.3c-0.633-0.301-1.017-0.917-1.15-1.851c0-0.8,0-1.416,0-1.85c0.034-0.8-0.167-1.367-0.6-1.7
			c-0.6-0.434-1.534-0.434-2.8,0c-0.7,0.3-1.683,0.95-2.95,1.95c-0.667,0.533-1.534,1.217-2.6,2.05l-8.4,6.45l-0.65,0.6H42.5
			l-3,2.601c-1.4,0.899-2.733,1.517-4,1.85C35.615,235.429,35.706,235.104,35.775,234.775z M59.45,91.1
			c-1.833,0.3-3.034,0.267-3.6-0.1c1.833-2,3.35-3.383,4.55-4.15c0.967-0.6,2.216-0.934,3.75-1c0.899-0.033,2.267,0,4.1,0.1l1,0.65
			c-0.434,0.233-0.583,1.133-0.45,2.7c0.167,1.9,0.217,2.95,0.15,3.15c-0.3,1.133-1.367,1.783-3.2,1.95
			c-0.634,0.067-2.017,0.017-4.15-0.15c0.466-0.767,0.817-1.35,1.05-1.75c0.399-0.7,0.683-1.317,0.85-1.85
			C63,90.583,61.65,90.733,59.45,91.1z M57.25,98.6c0.533-0.333,1.483-0.5,2.85-0.5c1.333,0.033,2.317,0.2,2.95,0.5
			c0.7,0.367,0.95,0.65,0.75,0.85c-0.1,0.1-0.517,0.267-1.25,0.5c-1.9,0.5-2.966,0.8-3.2,0.9c-0.333,0.133-1.2,0.633-2.6,1.5
			c-1.067,0.6-1.983,0.983-2.75,1.15c-0.433-0.8-0.283-1.633,0.45-2.5c0.4-0.467,1.1-1.033,2.1-1.7L57.25,98.6z M63.55,120.3l-1.3,3
			c0,1.1,0.083,3.133,0.25,6.1c0.033,2.667-0.384,4.6-1.25,5.8c-0.467,0.7-1.033,1.267-1.7,1.7c-0.867,0.567-1.65,0.7-2.35,0.4
			c-0.534-0.2-1.05-1.1-1.55-2.7c-0.066-0.233-0.167-0.983-0.3-2.25c-0.067-1-0.267-1.667-0.6-2c-0.333-0.333-1.05-0.6-2.15-0.8
			c-0.6-0.1-0.733-0.733-0.4-1.9c0.333-1.066,1.017-2.133,2.05-3.2c1.333-1.167,2.317-2.05,2.95-2.65
			c1.033-0.933,2.017-1.533,2.95-1.8C61.217,119.7,62.35,119.8,63.55,120.3z M62.25,105.95l1.3,1.35
			c-0.366,1.967-0.983,3.617-1.85,4.95c-0.833,1.333-2.05,2.583-3.65,3.75c-1,0.667-1.933,1.1-2.8,1.3
			c-1.833,0.633-3.067,0.934-3.7,0.9c0.034-1.1,0.6-2.517,1.7-4.25c0.833-1.367,1.8-2.633,2.9-3.8c0.633-0.667,1.633-1.4,3-2.2
			C60.683,107.05,61.717,106.383,62.25,105.95z M67.95,158.5c1.2-1.367,1.967-2.667,2.3-3.9l0.3,1.35
			c-0.434,0.533-0.616,1.7-0.55,3.5c0.066,2.233,0.066,3.5,0,3.8c-0.267,1.267-0.95,2.533-2.05,3.8
			c-1.634,1.867-2.55,2.967-2.75,3.3c-1.467,2.334-3.983,4.983-7.55,7.95c-0.933,0.767-2.017,1.384-3.25,1.851
			c-0.767,0.3-1.967,0.649-3.6,1.05c-2.733,0.666-4.15,1.633-4.25,2.899c0.067-1.733,0.284-3.216,0.65-4.449
			c0.4-1.334,1.05-2.684,1.95-4.051c0.667-1.433,1.333-2.416,2-2.949c1-0.601,1.717-1.084,2.15-1.45c0.467-0.4,1.35-0.9,2.65-1.5
			c1.2-0.533,2.033-1.033,2.5-1.5c0.167-0.767,0.45-1.417,0.85-1.95l1.5-1.55l3.851-3.05C66.217,160.283,67.316,159.233,67.95,158.5
			z M68.9,173.6c-0.233,0.2-0.483,0.801-0.75,1.801c-0.301,1.166-0.517,1.883-0.65,2.149c-0.634,1.267-1.5,2.316-2.6,3.15
			c-0.733,0.566-1.483,0.967-2.25,1.2c-0.967,0.3-1.767,0.216-2.4-0.25c0.433-0.9,1.333-2.217,2.7-3.95
			c1.267-1.667,2.133-3.033,2.6-4.101H68.9z M62.55,203.95l1.7,2c-1.7,1.666-2.983,2.767-3.85,3.3c-1.5,0.9-3.1,1.233-4.8,1
			c-0.333-1,0.65-1.95,2.95-2.85C61.05,206.366,62.384,205.217,62.55,203.95z M46.55,233.95l2.35-1c1.533,1.233,2.267,3.267,2.2,6.1
			c-0.067,1.601-0.467,3.851-1.2,6.75c-0.467,1.867-1.133,4-2,6.4c-0.633,1.7-1.183,2.85-1.65,3.45
			c-0.133,0.199-0.367,0.433-0.7,0.699c-0.233,0.267-0.367,0.567-0.4,0.9c-0.367,0.134-0.767,0.134-1.2,0
			c-0.133-0.5-0.1-1.116,0.1-1.85c0.3-1.067,0.45-1.667,0.45-1.801c0.033-0.267,0.05-1.483,0.05-3.649c0-3.566,0.034-5.7,0.1-6.4
			c0.333-2.333,0.517-4.1,0.55-5.3c0.1-1.366,0.167-2.15,0.2-2.35C45.567,235.066,45.95,234.417,46.55,233.95z M58.15,241.1
			c0.6-0.6,1.05-1.1,1.35-1.5c0.2-0.233,0.483-0.666,0.85-1.3c0.333-0.633,0.617-1.066,0.85-1.3c0.566-0.566,1.467-0.967,2.7-1.2
			c0.699-0.133,1.699-0.3,3-0.5l1,2c1.366-0.166,2.033,0.767,2,2.8c0,1.767-0.301,3.15-0.9,4.15c-0.4,0.7-1.3,1.783-2.7,3.25
			c-1.2,1.267-2,2.384-2.399,3.35c-0.267,0.7-0.601,1.75-1,3.15c-0.467,1.066-1.267,1.5-2.4,1.3c-1.433-0.233-2.433-0.95-3-2.149
			c-0.433-0.934-0.633-2.217-0.6-3.851c-0.066-1.434-0.1-2.517-0.1-3.25c0-1.3,0.133-2.366,0.4-3.2
			C57.4,242.25,57.717,241.667,58.15,241.1z M38.25,241.95l2-2.65v4.95c0,0.833-0.133,1.934-0.4,3.3
			c-0.333,1.533-0.517,2.65-0.55,3.351l-0.7,7.949c-0.2,2.4-0.333,3.884-0.4,4.45c-0.233,1.7-0.583,3.134-1.05,4.3
			c-0.5-0.3-0.75-1.133-0.75-2.5c0.1-1.5,0.15-2.466,0.15-2.899c0.067-1.566,0.1-2.783,0.1-3.65c-0.033-1.566-0.267-2.684-0.7-3.35
			c-0.167-0.233-0.467-0.55-0.9-0.95c-0.267-0.2-0.433-0.566-0.5-1.1c-0.066-0.467-0.083-1.101-0.05-1.9
			c0.033-0.866,0.05-1.517,0.05-1.95C34.55,244.233,35.783,241.783,38.25,241.95z M53,258.85c0.1-0.8,0.267-1.416,0.5-1.85
			c0.233,1.2,0.317,2.733,0.25,4.6c-0.033,1.067-0.1,2.634-0.2,4.7l-0.65,10.3c-0.3,0.367-0.617,1.117-0.95,2.25
			c-0.4,0.834-0.967,0.95-1.7,0.351c-1.067-0.8-1.05-2.134,0.05-4c1.333-2.233,1.967-4.767,1.9-7.601c0-1.433,0.2-3.683,0.6-6.75
			C52.9,259.95,52.967,259.283,53,258.85z"/>
		<path style="fill-rule:evenodd;clip-rule:evenodd;fill:#3F3932;" d="M71.95,200.1c1.399-1.333,2.666-2.8,3.8-4.399l0.8-1.15
			c1.8-2.833,3.017-5.816,3.65-8.95c0.233-1.466,0.483-2.616,0.75-3.449c0.533-1.567,1.3-2.167,2.3-1.801
			c0.3-0.433,0.45-1.149,0.45-2.149c-0.033-0.101-0.101-0.867-0.2-2.3l-0.2-2.75c-0.233-3.967-0.25-7.15-0.05-9.55l0.15-0.5
			l0.1,0.85c0.134,1.267,0.434,2.866,0.9,4.8c0.666,2.767,1.05,4.384,1.149,4.85l1.55,9.601c0.051,0.48,0.092,0.947,0.125,1.399
			l0.051,0.575c0.009,0.198,0.017,0.39,0.024,0.575l-0.5,3.15c-0.1,0.533-0.483,1.483-1.149,2.85c-0.567,1.167-0.817,2.134-0.75,2.9
			c0.066,0.966,0.416,2.1,1.05,3.399c0.366,0.733,0.899,1.816,1.6,3.25c0.967,2.2,1.717,4.283,2.25,6.25
			c0.434,1.533,0.834,3.45,1.2,5.75l0.9,5.8c0,0.034,0.216,0.95,0.649,2.75c0.267,1.134,0.384,2.034,0.351,2.7
			c-0.834-0.6-1.7-1.616-2.601-3.05c-0.899-1.634-1.566-2.8-2-3.5c-0.1-0.134-0.85-1.116-2.25-2.95
			c-0.899-1.166-1.467-2.25-1.7-3.25c-0.1-0.467-0.383-1.85-0.85-4.149c-0.3-1.7-0.634-3.051-1-4.051
			c-0.167-0.466-0.517-0.933-1.05-1.399l-1.351-1.15c-0.199-0.267-0.399-0.8-0.6-1.6c-0.167-0.733-0.35-1.2-0.55-1.4
			c-0.3-0.267-0.717-0.316-1.25-0.149c-0.134,0.033-0.533,0.183-1.2,0.449c-0.533,0.233-1.267,0.717-2.2,1.45
			c-1.066,0.8-1.8,1.316-2.2,1.55c-1.333,0.667-2.366,1.101-3.1,1.301C69.866,201.983,70.85,201.134,71.95,200.1z M77.25,115.6l2-5
			c0.1,1.533,0.25,3.867,0.45,7c0.1,2.7,0.033,5.017-0.2,6.95c-0.1,0.9-0.333,1.65-0.7,2.25c-0.267,0.5-0.767,1.117-1.5,1.85
			c-0.5,0.5-0.899,0.783-1.2,0.85c-0.199,0.067-0.733,0.1-1.6,0.1c-1.167-0.067-2.066-0.1-2.7-0.1
			c-1.066-0.033-1.916,0.083-2.55,0.35c0.167-1.333,1.167-2.267,3-2.8c2.1-0.633,3.483-2.216,4.15-4.75
			C76.434,122.267,76.717,120.033,77.25,115.6z M85.55,249.5c-0.333-0.866-0.55-1.6-0.649-2.2c-0.134-0.767,0-1.6,0.399-2.5
			l0.851-1.95L86.55,242c0.434-0.934,0.667-1.767,0.7-2.5c0.1-1.233,0.05-2.917-0.15-5.05c-0.267-2.334-0.449-3.95-0.55-4.851l3-4.3
			c0.267,2.101,1,4.934,2.2,8.5c1.333,3.934,2.167,6.767,2.5,8.5c0.3,1.667,0.417,3.7,0.35,6.101l-0.05,1.55
			c-0.033,1.6-0.483,2.916-1.35,3.95c-0.8,0.966-1.334,1.899-1.601,2.8c-0.133,0.566-0.283,1.649-0.449,3.25
			c-0.167-0.4-0.567-1.066-1.2-2c-0.601-0.9-1-1.65-1.2-2.25c-0.3-0.767-0.884-1.917-1.75-3.45
			C86.233,250.884,85.75,249.967,85.55,249.5z M104,309.25l-0.1,0.6v0.101c-0.267,2.399-1.5,4.517-3.7,6.35
			c-2.134,1.8-4.4,2.684-6.8,2.65c-3.867,0.267-6.7,0.283-8.5,0.05c-1.101-0.167-2.384-0.217-3.851-0.15
			c-1.7,0.067-3.033,0.101-4,0.101l0.15-0.601c0.267-1.166,0.633-2.433,1.1-3.8c0.634-1.8,0.95-4.017,0.95-6.649
			c0-0.233,0.05-1.567,0.15-4c0.066-1.667,0-3-0.2-4c-0.101-0.5-0.384-1.15-0.851-1.95c-0.566-0.967-0.899-1.584-1-1.851
			c-0.466-1.199-0.733-2.483-0.8-3.85v-3.95c0.101,1.767,1,3.467,2.7,5.101c0.967,0.933,2.517,2.3,4.65,4.1
			c1.5,1.6,2.283,3.217,2.35,4.85c0.033,0.601,0.017,1.467-0.05,2.601c-0.066,2-0.066,3.3,0,3.899c0.166,1.233,0.5,2.317,1,3.25
			c0.666,1.134,1.483,1.75,2.45,1.851c0.8,0.1,1.483,0,2.05-0.3c0.066-0.034,0.649-0.434,1.75-1.2c1.1-0.601,1.934-1.101,2.5-1.5
			c1.033-0.767,1.55-1.533,1.55-2.3c-0.233-0.034-0.934-0.017-2.1,0.05c-0.9,0.033-1.601-0.05-2.101-0.25
			c0.2-0.233,0.533-0.483,1-0.75c0.533-0.3,0.9-0.566,1.101-0.8c0.399-0.367,0.783-0.934,1.149-1.7c0.334-0.7,0.566-1.334,0.7-1.9
			c0.233,2.8,1.934,4.667,5.1,5.601L104,309.25z M103.6,305.75c0.067,0.2,0.134,0.417,0.2,0.65l-2.55-2.45
			c0-5.834-0.033-9.167-0.1-10c-0.334-3.7-1.284-6.851-2.851-9.45c-0.666-1.134-1.033-2.483-1.1-4.05c0-0.566,0.116-1.316,0.35-2.25
			c0.233-1,0.351-1.75,0.351-2.25c0.066-1.101-0.2-1.634-0.801-1.601c-0.899,0.267-1.633,0.351-2.199,0.25
			c-0.067-0.466,0-1.05,0.199-1.75c0.233-0.767,0.384-1.333,0.45-1.699c0.7-3.034,1.05-5.601,1.05-7.7
			c-0.066-1.066-0.116-1.867-0.149-2.4c-0.033-1,0.017-1.8,0.149-2.399c0.101-0.434,0.384-1,0.851-1.7c0.733-1,1.1-1.517,1.1-1.55
			l0.4-0.65v0.15L98.9,255v0.45c0,1.267-0.134,3.566-0.4,6.899c-0.167,3.034,0.083,5.233,0.75,6.601c0.233,0.5,0.816,1.166,1.75,2
			c0.6,0.566,0.9,1.399,0.9,2.5c0.033,2.166,0.233,4.633,0.6,7.399c0.1,0.667,0.366,1.834,0.8,3.5c0.367,1.5,0.601,2.7,0.7,3.601
			l0.3,1.7c0.667,1,1.084,1.816,1.25,2.449c0.233,0.9,0.117,1.65-0.35,2.25c-0.7,0.834-1.601,1.384-2.7,1.65
			c-0.066,0.566-0.1,1.884-0.1,3.95c0,0.967-0.034,1.616-0.101,1.95c-0.1,0.366-0.283,0.666-0.55,0.899l0.55,0.7
			c0.4,0.5,0.733,1.017,1,1.55L103.6,305.75z M63.9,315l-2.351-1.15l-0.4-0.149c-0.733,0.267-1.35,0.483-1.85,0.649l-2.75,0.801
			c1.6-1.534,2.5-3.034,2.7-4.5c0.333-2.4,0.433-5.45,0.3-9.15l-0.25-8.85l-0.05-0.7c0-3.934-0.467-7.3-1.4-10.101
			c-0.467-1.399-0.8-2.433-1-3.1c-0.3-1.066-0.5-2.1-0.6-3.1c0-0.601-0.033-1.034-0.1-1.301c-0.133-0.5-0.417-0.767-0.85-0.8
			c-0.133-0.434-0.133-1.116,0-2.05c0.167-1.233,0.25-1.967,0.25-2.2c0-0.6,0.083-2.483,0.25-5.649
			c-0.066,5.066,0.417,9.116,1.45,12.149c0.2,0.533,0.533,1.167,1,1.9c0.6,0.866,0.983,1.483,1.15,1.85
			c0.567,1.134,0.85,2.634,0.85,4.5v4.7v7.9c0,1.666,0.367,3.3,1.1,4.899c0.3,0.667,0.766,1.634,1.4,2.9c0.533,1.1,0.884,2.1,1.05,3
			c0.134,0.833,0.2,1.899,0.2,3.2c-0.033,0.699-0.066,1.767-0.1,3.199V315z M36.6,316.05c-0.367-0.066-0.733-0.133-1.1-0.2
			c3.567-1.233,5.583-3.216,6.05-5.949c0.133-0.801,0.133-2.084,0-3.851c-0.133-1.733-0.1-3.033,0.1-3.899
			c0.6,1.166,1.1,2.916,1.5,5.25c0.434,2.466,0.883,4.233,1.35,5.3c0.2,0.5,0.467,0.95,0.8,1.35c0.2,0.233,0.55,0.617,1.05,1.15
			l0.8,1.2l-2.25,0.05c-2.333,0-3.917-0.017-4.75-0.05L36.6,316.05z"/>
	</g>
</g>
</svg>
