<?xml version="1.0" encoding="iso-8859-1"?>
<!-- Generator: Adobe Illustrator 15.1.0, SVG Export Plug-In . SVG Version: 6.00 Build 0)  -->
<!DOCTYPE svg PUBLIC "-//W3C//DTD SVG 1.1//EN" "http://www.w3.org/Graphics/SVG/1.1/DTD/svg11.dtd">
<svg version="1.1" id="FlashAICB" xmlns="http://www.w3.org/2000/svg" xmlns:xlink="http://www.w3.org/1999/xlink" x="0px" y="0px"
	 width="288.4px" height="80.85px" viewBox="0 0 288.4 80.85" style="enable-background:new 0 0 288.4 80.85;" xml:space="preserve"
	>
<g>
	<g>
		<g>
			<g>
				<g>
					<g>
						<g>
							<g>
								<g>
									<g>
										<g>
											<g>
												
													<radialGradient id="SVGID_1_" cx="138.2002" cy="19.25" r="195.85" gradientTransform="matrix(1 0 0 -1 0 38.5)" gradientUnits="userSpaceOnUse">
													<stop  offset="0.1333" style="stop-color:#211C15"/>
													<stop  offset="0.8471" style="stop-color:#211C15;stop-opacity:0"/>
												</radialGradient>
												<path style="fill-rule:evenodd;clip-rule:evenodd;fill:url(#SVGID_1_);" d="M231.85,28.7
													c4.167,1.2,9.184,2.25,15.051,3.15c5.733,0.9,11.649,2.3,17.75,4.2l3.5,0.55c1.733,0.233,2.699,0.617,2.899,1.15
													c-1.566,0.167-2.816,0.633-3.75,1.4c0.334,0.4,1.684,0.95,4.05,1.65c1,0.3,2.317,0.566,3.95,0.8
													c0.9,0.134,2.217,0.284,3.95,0.45c2.3,0.3,4.333,0.851,6.1,1.65c0.301,0.166,0.917,0.434,1.851,0.8
													c0.8,0.4,1.2,0.816,1.2,1.25c-1.334,0.1-2.45,0.217-3.351,0.35c-1.733,0.233-2.75,0.551-3.05,0.95
													c-0.467,0.667-0.217,1.2,0.75,1.601c0.566,0.199,1.35,0.483,2.35,0.85c-0.267,0.533-1.199,0.967-2.8,1.3
													c-2.1,0.3-3.684,0.55-4.75,0.75c-4.033,0.733-5.45,2.184-4.25,4.351c-0.5,0.267-1.233,0.533-2.2,0.8
													c-1.133,0.267-1.899,0.483-2.3,0.649c-2.233,1-3.6,1.567-4.1,1.7c-1.033,0.267-2.233,0.4-3.601,0.4
													c-1.6,0-3.399,0.316-5.399,0.95c-0.733,0.1-1.283,0.216-1.65,0.35c-0.399,0.134-0.934,0.434-1.6,0.9
													c-0.667,0.466-1.184,0.75-1.55,0.85c-0.534,0.2-1.167,0.3-1.9,0.3c-0.833,0-1.467,0-1.9,0c-1.6-0.033-2.8-0.05-3.6-0.05
													c-1.4,0.033-2.583,0.116-3.55,0.25c-0.101,0-1.566,0.3-4.4,0.9c-1.767,0.366-3.267,0.566-4.5,0.6
													c-1.5,0.033-2.95,0.25-4.35,0.65c-1.066,0.3-2.483,0.833-4.25,1.6c-3.634,1.566-6.517,2.983-8.65,4.25l-0.55,0.7
													c-1,0.399-2.434,0.717-4.3,0.95c-0.233,0-1.7,0.116-4.4,0.35c-1.833,0.2-3.684,0.25-5.55,0.15
													c-1.833-0.034-2.967-0.034-3.4,0c-1.166,0.033-2.216,0.216-3.149,0.55c-1.3,0.467-2.934,0.899-4.9,1.3
													c-2.267,0.434-3.934,0.75-5,0.95c-4.434,0.8-7.75,1.399-9.95,1.8c-0.333-0.033-0.483,0.066-0.449,0.3
													c-2,0.233-5.101,0.417-9.301,0.55c-4.1,0.101-7.183,0.284-9.25,0.551c-5.866,0.767-10.233,1.25-13.1,1.449
													c-4.967,0.367-9.367,0.351-13.2-0.05c-4-0.3-6.983-0.55-8.95-0.75c-3.5-0.333-6.45-0.816-8.85-1.45
													c-3.367-0.899-8.783-2.25-16.25-4.05c-7.067-1.733-12.4-3.1-16-4.1l-5.8-0.15c-1.934-0.1-3.684-0.267-5.25-0.5
													l-3.15-0.5c-1.7-0.066-3-0.149-3.9-0.25c-1.566-0.2-2.717-0.649-3.45-1.35l-1.15-1.3c-0.4-0.467-0.867-0.817-1.4-1.051
													c-1.5-0.633-2.983-1.183-4.45-1.649c-2.934-0.867-5.133-1.517-6.6-1.95c-2.533-0.8-4.684-1.6-6.45-2.4
													c-0.566-0.233-1.333-0.383-2.3-0.449c-1.067-0.034-1.85-0.067-2.35-0.101c-2.2-0.233-3.867-0.383-5-0.45
													c-3.233-0.333-5.65-0.55-7.25-0.649h-7.4c-2.333,0.2-4.367,0.35-6.1,0.45C1.883,58.1,0.133,57.95,0,57.45
													c1.567-0.934,3.85-2.467,6.85-4.601c0.333-0.199,1.333-0.566,3-1.1c1.433-0.6,2.05-1.233,1.85-1.9
													c-0.133,0-1.417,0.067-3.85,0.2c-1.733,0.101-2.934-0.1-3.6-0.6c2.167-1.3,4.267-2.283,6.3-2.95
													c0.4-0.134,1.05-0.333,1.95-0.6c0.733-0.301,1.15-0.7,1.25-1.2c0.067-0.2-0.017-0.467-0.25-0.8
													c-0.133-0.233-0.05-0.5,0.25-0.801c0.2-0.166,0.633-0.35,1.3-0.55c0.633-0.2,1.083-0.45,1.35-0.75
													c0.067-0.066,0.167-0.25,0.3-0.55c0.066-0.2,0.2-0.383,0.4-0.55l1.55-0.55c0.867-0.4,2.2-1.1,4-2.1
													c1.633-0.733,3.1-1.033,4.4-0.9L167.4,26.45c0.899-0.7,1.933-0.8,3.1-0.3l14.8-0.25
													c13.434-0.267,23.117-0.283,29.05-0.05C220.017,26.05,225.85,27,231.85,28.7z"/>
												
													<radialGradient id="SVGID_2_" cx="137.7998" cy="21" r="181.1" gradientTransform="matrix(1 0 0 -1 0 42)" gradientUnits="userSpaceOnUse">
													<stop  offset="0.1333" style="stop-color:#211C15"/>
													<stop  offset="0.8471" style="stop-color:#211C15;stop-opacity:0"/>
												</radialGradient>
												<path style="fill-rule:evenodd;clip-rule:evenodd;fill:url(#SVGID_2_);" d="M227.45,33.3c2.967,0.7,7.633,1.684,14,2.95
													c6.133,1.2,10.8,2.183,14,2.95c1.733,0.433,4.316,1.1,7.75,2c3.033,0.767,5.649,1.333,7.85,1.7
													c2.634,0.433,4.117,0.716,4.45,0.85c1.7,0.634,2,1.667,0.9,3.1c-0.934,1.4-1.601,2.384-2,2.95
													c-0.434,0.566-1,0.917-1.7,1.05c-1.467,0.233-2.217,0.351-2.25,0.351c-0.267,0.1-0.601,0.267-1,0.5
													c-0.533,0.3-0.884,0.483-1.05,0.55c-0.733,0.3-1.767,0.667-3.101,1.1c-1.5,0.5-2.55,0.867-3.149,1.101
													c-0.7,0.267-2,0.666-3.9,1.2c-1.634,0.466-2.9,0.916-3.8,1.35c-1.9,0.934-3.334,1.616-4.3,2.05
													c-1.7,0.767-3.2,1.351-4.5,1.75c-4.334,1.3-7.551,1.967-9.65,2h-2.65c-1.8,0-4.433,0.134-7.899,0.4
													c-1.134,0.033-2.033,0.083-2.7,0.149c-1.267,0.134-2.167,0.4-2.7,0.801c-1.2,1-2.133,1.767-2.8,2.3
													c-1.167,0.934-2.233,1.583-3.2,1.95c-1,0.366-2.399,0.633-4.2,0.8c-2.066,0.166-3.5,0.35-4.3,0.55
													c-0.967,0.233-2.133,0.35-3.5,0.35c-1.533-0.033-2.717-0.033-3.55,0c-1.967,0.067-4.517,0.384-7.65,0.95
													c-4.199,0.8-6.75,1.25-7.649,1.351c-6.033,0.767-9.601,1.25-10.7,1.449c-1.167,0.2-3,0.65-5.5,1.351
													c-2.4,0.666-4.25,1.1-5.55,1.3c-1.167,0.233-2.2,0.4-3.101,0.5c-1.8,0.167-2.899,0.017-3.3-0.45
													c-0.267-0.3-0.316-0.833-0.149-1.6c0.267-0.867,0.433-1.467,0.5-1.8c0.233-1.067,0.6-1.95,1.1-2.65s1.25-1.333,2.25-1.9
													c4.733-2.6,8.634-4.383,11.7-5.35c0.3-0.066,0.767-0.15,1.399-0.25c0.534-0.134,0.851-0.384,0.95-0.75
													c-1.3-0.233-3.033-0.167-5.2,0.2c-2.433,0.5-4.133,0.833-5.1,1l-13.1,2.8c-5.169,1.309-9.086,2.158-11.75,2.55
													l-6.55-0.05c-6.967-0.1-14.817-0.283-23.55-0.55c-10.133-0.467-20.9-1.55-32.3-3.25c-2.767-0.4-7.35-1.267-13.75-2.601
													c-5.867-1.199-10.467-2.017-13.8-2.449c-2.5-0.334-5.833-0.7-10-1.101c-5.067-0.467-8.417-0.8-10.05-1
													c-0.7-0.066-1.8-0.233-3.3-0.5c-1.467-0.267-2.567-0.434-3.3-0.5c-3.566-0.233-5.883-0.45-6.95-0.649
													c-0.934-0.067-1.733-0.15-2.4-0.25c-1.233-0.2-1.9-0.567-2-1.101c-0.067-0.366,0.25-0.916,0.95-1.649
													c0.367-0.367,0.833-0.817,1.4-1.351c0.233-0.233,0.684-0.633,1.35-1.2c0.6-0.533,0.934-1.017,1-1.449
													c0.167-0.9-0.233-1.384-1.2-1.45c-1.167,0.1-1.967,0.116-2.4,0.05c0-0.566,0.767-1.283,2.3-2.15
													c0.8-0.433,1.833-0.949,3.1-1.55c0.566-0.3,1.45-0.816,2.65-1.55c1.1-0.6,2.066-0.95,2.9-1.05L182.4,26.8
													C195.767,27.167,210.783,29.333,227.45,33.3z"/>
											</g>
											<g>
												<path style="fill-rule:evenodd;clip-rule:evenodd;fill:#4F4639;" d="M273.325,42.725
													c0.075,0.084,0.149,0.176,0.225,0.275c-1.5,0.066-2.45-0.1-2.85-0.5c-0.134-0.134-0.267-0.366-0.4-0.7
													c-0.166-0.399-0.3-0.666-0.399-0.8c-0.601-0.467-1.067-0.8-1.4-1c-1.066-0.733-1.884-1.283-2.45-1.65
													c-1.033-0.633-1.899-1.1-2.6-1.4c0.333,0.466,1.133,1.283,2.399,2.45c1.034,1.1,1.467,2.067,1.301,2.9
													c-0.101,0.467-0.45,0.733-1.051,0.8c-0.5,0.067-1.05,0.017-1.649-0.149c-0.467-0.134-0.733-0.467-0.8-1
													c-0.101-0.8-0.2-1.3-0.301-1.5c-0.366-0.633-0.983-1.133-1.85-1.5c-0.967-0.4-2.35-0.8-4.15-1.2
													c-2-0.433-3.383-0.783-4.149-1.05c-1.3-0.467-2.483-1.184-3.55-2.15c-0.2-0.2-0.634-0.733-1.301-1.6
													c-0.566-0.733-1.033-1.2-1.399-1.4c-0.467-0.267-0.917-0.35-1.351-0.25c-0.5,0.2-0.899,0.333-1.199,0.4
													c-1.134,0.267-2.717,0.25-4.75-0.05c-2.534-0.4-4.117-0.6-4.75-0.6c0.6,0.967,1.916,1.567,3.949,1.8
													c-1,0-1.699-0.033-2.1-0.1c-1.4-0.167-3.233-0.817-5.5-1.95c-0.967-0.5-2.35-1.1-4.15-1.8
													c-2-0.767-3.399-1.35-4.199-1.75c0.699-0.067,2.033,0.033,4,0.3c1.733,0.233,3.066,0.217,4-0.05L233.1,27
													c0.467-0.1,0.983-0.4,1.551-0.9c0.333-0.3,0.8-0.733,1.399-1.3c-0.467,0.9-0.866,1.55-1.2,1.95
													c-0.3,0.333-0.767,0.683-1.399,1.05c-0.667,0.367-1.117,0.65-1.351,0.85L234.2,29c0.366,0.067,0.983,0.333,1.85,0.8
													c0.733,0.4,1.334,0.583,1.8,0.55c0.4,0,0.884-0.167,1.45-0.5c0.4-0.133,0.884-0.1,1.45,0.1
													c0.866,0.267,1.366,0.417,1.5,0.45c0.566,0.133,1.134,0.117,1.7-0.05c0.7-0.167,1.166-0.483,1.399-0.95
													c0.101-0.167,0.134-0.433,0.101-0.8c0-0.233,0.133-0.434,0.399-0.6c0.167-0.067,0.7-0.067,1.601,0
													c0.2,0.1,0.416,0.2,0.649,0.3l0.601,0.25c3.733,1.567,6.684,2.867,8.85,3.9l6.9,3.55c0.6,0.3,1.133,0.6,1.6,0.9
													c0.601,0.367,1.167,0.733,1.7,1.1l2.25,1.65L273.325,42.725z M218.35,65.85H217.7h-0.5
													c-1.767-0.033-3.983,0.25-6.65,0.851c-0.767,0-1.434,0.133-2,0.399c-0.133,0.067-0.3,0.167-0.5,0.301l-0.399,0.25
													c0.366-0.934,0.983-1.834,1.85-2.7c0.167-0.167,0.684-0.517,1.55-1.05c0.7-0.434,1.15-0.834,1.351-1.2
													c0.233-0.4,0.3-1.367,0.199-2.9c-1.399,0.033-2.399-0.133-3-0.5c-0.233-0.133-0.649-0.45-1.25-0.95
													c-0.466-0.399-0.933-0.649-1.399-0.75c1.233,0.134,2.399,0.101,3.5-0.1c1.5-0.267,2.383-0.866,2.649-1.8
													c0.101-0.434,0.134-1.033,0.101-1.8c-0.066-0.867-0.101-1.5-0.101-1.9c0-0.833,0.184-1.3,0.551-1.4
													c0.267-0.066,0.883-0.149,1.85-0.25c0.533-0.166,1.083-0.466,1.65-0.899c0.333-0.267,0.816-0.667,1.449-1.2
													c0.367-0.3,0.767-0.55,1.2-0.75l-0.3,0.45c-0.233,0.366-0.8,0.983-1.7,1.85c-0.767,0.733-1.267,1.384-1.5,1.95
													c-0.2,0.533-0.184,1,0.05,1.4c0.134,0.267,0.4,0.716,0.801,1.35c0.233,0.566,0.3,1.417,0.199,2.55
													c0.067,0.7,0.417,1.3,1.051,1.8c0.433,0.301,1.116,0.65,2.05,1.051c1.066,0.433,2.3,0.6,3.7,0.5
													c1.5-0.067,2.649-0.417,3.449-1.051c1.334-1.033,1.367-1.949,0.101-2.75c-1.767-0.733-2.95-1.25-3.55-1.55
													c0.833-0.033,2.216-0.3,4.149-0.8L226.4,54c0.199-0.167,0.833-0.517,1.899-1.05c2.367-1.334,4.5-2.967,6.4-4.9
													c0.633-0.666,2.166-2.533,4.6-5.6c0.2-0.233,0.467-0.566,0.8-1c0.267-0.334,0.467-0.684,0.601-1.05
													c-0.2,2.966-0.517,5.7-0.95,8.2c-0.033,0.2-0.2,0.834-0.5,1.9c-0.2,1-0.167,1.616,0.1,1.85
													c0.233,0.2,0.917,0.217,2.051,0.051c1.233,0.133,2.666,0.166,4.3,0.1c0.899,0,1.583-0.083,2.05-0.25
													c-1.033,0.434-2.5,0.733-4.4,0.9c-0.133,0.033-0.666-0.034-1.6-0.2c-0.733-0.134-1.2-0.084-1.4,0.149
													c0.167,0.434,0.9,1.217,2.2,2.351c1,0.866,1.3,1.8,0.9,2.8c-0.2,0.467-0.75,1.116-1.65,1.95l-2.149,1.6
													c-1.301,0.9-2,1.384-2.101,1.45c-0.899,0.6-1.666,0.967-2.3,1.1c-1.366,0.334-3.217,0.417-5.55,0.25
													c-1.066-0.1-2.9-0.333-5.5-0.699c-1-0.134-1.967-0.351-2.9-0.65c-1.1-0.366-2-0.667-2.7-0.9
													c0,0.134-0.017,0.617-0.05,1.45C218.517,64.7,218.45,65.384,218.35,65.85z M202.3,70.5h-1
													c-2.033-0.066-3.616,0.3-4.75,1.1c-0.618,0.521-1.109,1.013-1.475,1.476L195.05,73.1H195c-1.3,0.567-2.616,1-3.95,1.301
													c-0.066-1.101-0.149-1.867-0.25-2.301c-0.066-0.267-0.116-0.466-0.149-0.6c-0.067-0.267-0.167-0.434-0.301-0.5
													c-0.166-0.066-0.899,0.066-2.199,0.4c-1.767-0.034-3.101-0.051-4-0.051c-2.2-0.233-3.867-0.366-5-0.399
													c-0.801-0.033-1.717-0.167-2.75-0.4c-1.2-0.3-2.117-0.517-2.75-0.649C172.684,69.8,172,69.7,171.6,69.6
													c-0.666-0.166-1.183-0.55-1.55-1.149l-0.45-0.75l4.45,1.3c4.033,1.2,8.15,1.6,12.351,1.2
													c0.666-0.066,1.267-0.25,1.8-0.55c0.3-0.167,0.816-0.467,1.55-0.9c0.533-0.233,1.333-0.417,2.4-0.55
													c1.267-0.134,2.1-0.267,2.5-0.4c0.933-0.3,1.433-0.467,1.5-0.5c0.5-0.267,0.733-0.649,0.699-1.149
													c-0.033-0.301-0.1-0.5-0.199-0.601c-0.067-0.1-0.25-0.233-0.551-0.399c-0.166-0.067-0.466-0.101-0.899-0.101
													c-0.533,0.033-0.816,0.05-0.851,0.05c-2.366,0-4.85-0.517-7.449-1.55c-1.167-0.467-2.351-1.2-3.551-2.2
													c0.7-0.1,1.667,0.117,2.9,0.65c1.5,0.634,2.467,0.983,2.9,1.05c0.5,0.101,1.1,0.167,1.8,0.2
													c0.399,0.033,1,0.05,1.8,0.05c2.4,0.033,4.083,0.017,5.05-0.05c1.967-0.167,3.566-0.583,4.8-1.25l4-2.9
													c-0.233,0.567-0.366,1.534-0.399,2.9c-0.033,1.267-0.233,2.217-0.601,2.85c-0.267,0.534-0.433,1.067-0.5,1.601
													c-0.166,1-0.25,1.533-0.25,1.6c-0.133,0.767-0.449,1.4-0.949,1.9L202.3,70.5z M144.05,78.85
													c0.2-0.5,0.033-1.033-0.5-1.6c-0.733-0.8-1.133-1.283-1.2-1.45l2.15,0.4c0.233,0.033,1.15,0.1,2.75,0.2
													c1.533,0.166,2.366,0.383,2.5,0.649c0.1,0.134,0.116,0.351,0.05,0.65c2-1.5,3.233-2.533,3.7-3.101
													c0.434-0.5,0.717-1.116,0.85-1.85c0.067-0.333,0.134-1.033,0.2-2.1c0.033-0.733,0.3-1.367,0.8-1.9
													c0.301-0.3,0.884-0.733,1.75-1.3c0.367-0.233,1.034-0.601,2-1.101c0.801-0.5,1.301-1.017,1.5-1.55
													c0.5-1.5-0.25-2.434-2.25-2.8c-1.366-0.167-2.383-0.283-3.05-0.35c-1.133-0.167-1.899-0.417-2.3-0.75l-0.4,0.449
													c-0.6,0.634-1.05,1.051-1.35,1.25c-0.533,0.334-1.184,0.483-1.95,0.45c-1.333,0-2.616-0.184-3.85-0.55
													c-1.633-0.533-2.617-1.316-2.95-2.35c-0.2-0.634,0.067-1.117,0.8-1.45c0.5-0.233,1.367-0.3,2.601-0.2
													c1.267,0.066,2.133,0.233,2.6,0.5l0.05,0.25l1.7,0.5l3.05,0.9l-0.1,0.05c0.467-0.167,2.217-0.217,5.25-0.15
													c2.899,0.033,4.866-0.217,5.899-0.75c0.934-0.533,1.334-1.316,1.2-2.35c0.9-0.134,2.283-0.033,4.15,0.3
													c1.434,0.066,2.7,0.2,3.8,0.4c1.033,0.199,2.65,0.399,4.85,0.6c0.101,0,0.917,0.017,2.45,0.05
													c1.101,0,1.9,0.117,2.4,0.351c-0.4,0.5-1.467,0.933-3.2,1.3c-0.767,0.166-1.684,0.25-2.75,0.25
													c-1.2-0.033-2.116-0.066-2.75-0.101l-4.4-0.1c-0.699,0-1.133,0.05-1.3,0.15c-0.6,0.333-0.934,1-1,2
													c-0.066,0.566-0.066,1.366,0,2.399l-0.05,0.851c-0.866-0.667-1.5-1.217-1.9-1.65c-0.233-0.267-0.449-0.75-0.649-1.45
													s-0.4-1.166-0.601-1.399l-0.5,0.3c1.067,1.467,1.717,2.7,1.95,3.7c0.167,0.666,0.134,1.416-0.1,2.25
													c-0.2,0.8-0.533,1.433-1,1.899c-0.134,0.134-1.184,0.867-3.15,2.2c-1.366,0.934-2.233,1.833-2.6,2.7
													c-0.033,0.033-0.084,0.2-0.15,0.5c-0.633,0.333-1.416,0.833-2.35,1.5c-0.167,0.1-0.316,0.2-0.45,0.3
													c-1.2,0.8-2.2,1.316-3,1.55c-0.6,0.2-1.267,0.316-2,0.351c-0.2,0.033-0.467,0.05-0.8,0.05l-1.2-0.05
													c-1.967-0.101-3.3-0.101-4,0C144.85,78.717,144.45,78.783,144.05,78.85z M139.95,75.1l-2.7-0.6
													c-3.233-0.1-5.05-0.134-5.45-0.1c0.034,1,1.367,1.75,4,2.25c0.167,0.066,0.517,0.116,1.05,0.149
													c0.433,0.066,0.683,0.233,0.75,0.5c0.033,0.2-0.083,0.467-0.35,0.8c-0.3,0.367-0.467,0.65-0.5,0.851
													c0.067,0.033,0.15,0.066,0.25,0.1l0.05,0.05c0.5,0.167,1.2,0.334,2.1,0.5c-0.167,0.034-0.316,0.051-0.45,0.051
													l-1.35,0.199c-2,0.233-3.75,0.384-5.25,0.45c-2,0.101-4.65,0.017-7.95-0.25c-4.2-0.333-6.85-0.517-7.95-0.55
													c-0.5,0-1-0.017-1.5-0.05l-0.95-1c-0.5-0.5-1.25-0.95-2.25-1.351c-1.2-0.399-2.067-0.716-2.6-0.949
													c-0.967-0.5-1.767-0.884-2.4-1.15c-1.233-0.533-2.017-0.583-2.35-0.15c-0.133,0.167-0.2,0.434-0.2,0.801
													c0,0.466,0,0.733,0,0.8c-0.7,0.066-1.784-0.217-3.25-0.851c-1.467-0.633-2.567-0.899-3.3-0.8
													c-0.367,0.033-1.017,0.417-1.95,1.15c-0.167-0.066-0.35-0.117-0.55-0.15c-0.3-0.133-0.6-0.25-0.9-0.35
													c-1.4-0.533-2.733-1.117-4-1.75l0.15-0.5c0.033-0.334,0.133-0.65,0.3-0.95c0.133-0.1,0.383-0.184,0.75-0.25
													c0.167-0.233,0.267-0.5,0.3-0.8c0.033-0.334-0.233-0.767-0.8-1.3C90,69.366,89.567,69,89.4,68.8
													c-0.733-0.8-1.217-1.366-1.45-1.7c-0.6-0.8-0.85-1.466-0.75-2c0.466-0.033,1.2,0.317,2.2,1.051
													c0.533,0.399,1.2,0.949,2,1.649c1.4,1.066,3.283,1.983,5.65,2.75c1.534,0.533,3.467,0.934,5.8,1.2
													c1.333,0.167,3.3,0.384,5.9,0.65c-0.467,0.399-1.083,0.616-1.85,0.649c-0.133,0-0.8-0.017-2-0.05
													c-1.633,0-3.033-0.083-4.2-0.25c1.267,0.267,3.083,0.866,5.45,1.8c1.2,0.4,2.733,0.75,4.6,1.05
													c1.067,0.167,2.633,0.4,4.7,0.7c-0.4-0.166-0.233-0.25,0.5-0.25c0.633-0.033,1.083-0.017,1.35,0.05
													c0.4,0.067,0.934,0.217,1.6,0.45c0.733,0.3,1.25,0.483,1.55,0.55c1.1,0.2,2.85,0.25,5.25,0.15
													c0.3,0,1.316,0.05,3.05,0.15c1.5-0.134,1.95-0.717,1.35-1.75c-0.367-0.367-0.85-0.634-1.45-0.801
													c-1.033-0.399-2.117-1-3.25-1.8l-0.1-0.1c-1.133-0.7-1.9-1.334-2.3-1.9c0.667,0.066,1.367,0.367,2.1,0.9l1.8,1.35
													c0.533,0.3,1.067,0.467,1.6,0.5c2.367,0.233,5.617,0.15,9.75-0.25c0.633-0.066,1.6-0.149,2.9-0.25
													c1.133-0.1,2.067-0.3,2.8-0.6c0.267-0.101,0.7-0.367,1.3-0.8c0.533-0.367,0.967-0.601,1.3-0.7
													c-0.233,0.666-0.883,1.366-1.95,2.1c-0.866,0.601-1.75,1.05-2.649,1.351C140.95,74.684,140.283,74.833,139.95,75.1z
													 M83.05,10c0,0.367,0.117,0.683,0.35,0.95c0.2,0.2,0.617,0.483,1.25,0.85l1,0.55c0.867,0.433,1.95,0.867,3.25,1.3
													c0.333,0.1,0.867,0.267,1.6,0.5c0.633,0.2,1.1,0.45,1.4,0.75l-1.35,0.05c-1.033-0.1-2.667-0.617-4.9-1.55
													c-2.566-1.033-4.367-1.9-5.4-2.6L83.05,10z M14.1,50.7c0.433-0.767,1.167-1.566,2.2-2.4l0.2-0.149
													c0.3-0.267,0.65-0.551,1.05-0.851c2.3,0.101,3.633,0.367,4,0.8c-0.066,0.467-0.383,0.717-0.95,0.75h-1.4
													c0.2,0.367,0.4,1.184,0.6,2.45c0.2,1.033,0.483,1.7,0.85,2c0.533,0.467,1.467,0.8,2.8,1
													c1.066,0.167,2.05,0.217,2.95,0.15c0.567,0,1.05-0.084,1.45-0.25c0.066-0.033,0.15-0.15,0.25-0.351
													c0.1-0.199,0.2-0.333,0.3-0.399c0.434-0.233,1.383-0.283,2.85-0.15c0.333-0.033,0.633-0.05,0.9-0.05
													c0.067-0.033,0.15-0.25,0.25-0.65c0.167-0.6,0-1.383-0.5-2.35c-0.533-1-0.767-1.733-0.7-2.2
													c0.233-0.066,0.733,0.033,1.5,0.3c1.3,0.434,3.2,1.117,5.7,2.051c2.867,0.933,5.35,1.433,7.45,1.5l2.35,0.05l4.8,0.2
													c-0.167,0.533-1,0.866-2.5,1c-0.433,0.033-1.417,0.05-2.95,0.05l-3.1-0.101c0.767-0.3,1.25-0.616,1.45-0.949
													c-2.533,0-4.45-0.084-5.75-0.25c-0.833-0.233-1.517-0.4-2.05-0.5c-1-0.2-1.7-0.15-2.1,0.149
													c0.033,0.134,0.183,0.467,0.45,1c0.2,0.334,0.25,0.684,0.15,1.05c-0.067,0.233-0.25,0.534-0.55,0.9
													c-0.367,0.434-0.583,0.733-0.65,0.9c-0.133,0.767-0.333,1.25-0.6,1.449c-0.2,0.134-0.667,0.167-1.4,0.101
													c-0.8-0.066-1.3-0.117-1.5-0.15c-1.1-0.166-1.933-0.283-2.5-0.35c-1.033-0.101-1.85-0.033-2.45,0.2
													c-0.034,0.033-0.333,0.216-0.9,0.55c-0.333,0.166-0.683,0.283-1.05,0.35l-0.95,0.101c-0.733-0.067-1.466-0.134-2.2-0.2
													c-1.1-0.066-2.217-0.134-3.35-0.2c-1.933-0.066-3.3-0.45-4.1-1.15c-1-0.833-1.283-2.199-0.85-4.1
													C13.65,51.566,13.833,51.134,14.1,50.7z M70.35,53.2L72.6,54.6c2.833,1.7,4.683,3.384,5.55,5.051
													c0.5,0.933,1.367,2.3,2.6,4.1c0.167,0.366,0.333,1.017,0.5,1.95l0.15,1.2l-1.05-1.351c-0.367-0.566-1.1-2.033-2.2-4.399
													c-0.833-1.834-1.717-3.167-2.65-4c0.067,0.267,0.283,0.616,0.65,1.05c0.4,0.533,0.65,0.899,0.75,1.1
													c0.167,0.367,0.267,0.75,0.3,1.15v1.2c0,0.233,0.017,0.616,0.05,1.149c0,0.467-0.067,0.816-0.2,1.05
													c-0.333,0.5-1.183,0.717-2.55,0.65c-1.467-0.134-2.417-0.217-2.85-0.25c-0.833-0.033-1.667-0.25-2.5-0.65
													c-1.3-0.666-2.066-1.05-2.3-1.149c-0.633-0.2-1.417-0.15-2.35,0.149c-1.2,0.4-1.983,0.617-2.35,0.65
													c-2.267,0.167-4.417,0.05-6.45-0.35c-4.467-0.967-8.5-3.034-12.1-6.2c-0.7-0.634-1.083-1.384-1.15-2.25l1,0.75
													c0.4,0.333,0.9,0.649,1.5,0.95c0.333,0.166,0.85,0.416,1.55,0.75c0.433,0.233,1.033,0.633,1.8,1.199
													c0.767,0.601,1.35,1.017,1.75,1.25c2.833,1.667,5.95,2.2,9.35,1.601c0.533-0.101,0.917-0.217,1.15-0.351
													c0.333-0.233,0.45-0.6,0.35-1.1c0.733-0.1,2.467-0.116,5.2-0.05c2.333-0.2,3.467-1.134,3.4-2.8
													c-0.033-0.434-0.183-1.017-0.45-1.75c-0.4-1.034-0.617-1.634-0.65-1.801L67.9,51.7L70.35,53.2z M22,44.3
													c0-0.066-0.017-0.116-0.05-0.149c-0.034-0.233-0.15-0.483-0.35-0.75c-0.067-0.101-0.133-0.2-0.2-0.301
													c-0.033-0.033-0.05-0.066-0.05-0.1c-0.4-0.566-0.633-0.934-0.7-1.1c-0.333-1.2,0.017-2.15,1.05-2.851
													c1.4-0.066,2.417-0.183,3.05-0.35c0.567-0.167,1.15-0.483,1.75-0.95c0.867-0.733,1.383-1.15,1.55-1.25l2.1-1.45h0.05
													c0.8-0.1,1.367-0.25,1.7-0.45l0.55-0.4c0.233-0.167,0.583-0.45,1.05-0.85c0.3-0.167,0.867-0.417,1.7-0.75
													c0.7-0.3,1.25-0.6,1.65-0.9l0.2-0.2c0.867-0.533,1.684-0.883,2.45-1.05l1-0.25l-7.95,7.6
													c-2.133,2.534-3.85,4.316-5.15,5.351c-0.867,0.699-2.183,1.083-3.95,1.149H22z M245.35,35.8
													c-0.3-0.1-0.55-0.25-0.75-0.45c-0.166-0.467-0.383-0.85-0.649-1.15c-0.267-0.267-0.483-0.45-0.65-0.55l0.101,0.05
													c0.267,0.133,0.6,0.417,1,0.85C244.833,35.017,245.15,35.433,245.35,35.8z M248.25,51.95c0.6-0.4,0.967-1.2,1.1-2.4
													c-0.066-0.967-0.116-1.75-0.149-2.35c-0.066-1.2,0.05-1.95,0.35-2.25c0.3-0.334,1.5-0.55,3.601-0.65
													c1.033,0,1.949-0.166,2.75-0.5l0.199-0.1c0.434,0.934,0.334,1.866-0.3,2.8c-0.733,1.033-1.467,1.667-2.2,1.9
													c-0.267,0.1-0.699,0.116-1.3,0.05c-0.6-0.066-1.033-0.066-1.3,0c-0.566,0.133-0.9,0.35-1,0.649
													c-0.066,0.233-0.167,0.65-0.3,1.25C249.5,51.017,249.017,51.55,248.25,51.95z M205.6,36.35
													c-1.033,0.733-1.85,1.316-2.449,1.75c-1.134,0.8-2.067,0.983-2.801,0.55c-0.8-0.467-0.767-0.917,0.101-1.35
													c0.767-0.367,1.483-0.55,2.149-0.55L205.6,36.35z M172.35,39.75c1.101-0.333,1.75-0.55,1.95-0.65l3.7-1.05l12.6-3.55
													l-2.899,1.15c-3.934,1.6-7.134,3.1-9.601,4.5c-0.8,0.5-1.416,0.883-1.85,1.15c-0.767,0.467-1.417,0.816-1.95,1.05
													c-1,0.434-2,0.667-3,0.7c-2.767,0.167-5.5,0.066-8.2-0.3c-3.666-0.4-6.017-1.083-7.05-2.05l0.3,0.05
													c0.767,0,1.983,0.1,3.65,0.3c1.9,0.334,3.1,0.517,3.6,0.55c1.367,0.167,2.551,0.184,3.551,0.051
													c0.6-0.067,1.366-0.367,2.3-0.9l0.649-0.3C170.467,40.283,171.217,40.05,172.35,39.75z M169,11.35l-0.95-0.2
													c0.134-0.167,0.467-0.233,1-0.2c0.3,0,0.684,0.017,1.15,0.05l0.95,0.05c1.6,0.133,2.85,0.067,3.75-0.2
													c0.899-0.3,1.466-0.717,1.699-1.25c0.134-0.333,0.2-1.067,0.2-2.2l1.75,2.3c0.367,1.4-0.767,2.15-3.399,2.25
													C173.384,12.017,171.333,11.817,169,11.35z M234.15,55.55l0.399,0.7c0.2,0.267,0.517,0.483,0.95,0.65
													C235.333,56.3,234.884,55.85,234.15,55.55z M75.65,44.75c2.567-1.467,4.167-3.15,4.8-5.05l0.05-0.05l1.2-1.45
													c0.167,0.367,0.966,0.533,2.4,0.5c1.2-0.034,2.15-0.15,2.85-0.35c0.033,0.767-0.583,1.383-1.85,1.85
													c-0.467,0.167-1.417,0.383-2.85,0.65c-0.067,0.367-0.067,0.933,0,1.7c-0.067,0.233-0.367,0.684-0.9,1.351
													c-0.633,0.8-1.184,1.366-1.65,1.699c-0.633,0.467-1.383,0.817-2.25,1.051c-1.633,0.433-3.333,0.733-5.1,0.899
													c-1.167,0.101-2.65,0.334-4.45,0.7c-2.9,0.566-4.383,0.85-4.45,0.85c-1.1,0.2-1.9,0.384-2.4,0.551
													c-0.7,0.233-1.283,0.55-1.75,0.949c0.2-0.199,0.467-0.466,0.8-0.8c0.433-0.434,0.816-0.767,1.15-1
													c0.6-0.434,1.583-1.017,2.95-1.75c0.9-0.566,1.767-0.95,2.6-1.149c0.7-0.167,1.667-0.233,2.9-0.2
													c1.533,0,2.55-0.017,3.05-0.05c1.067-0.134,2-0.417,2.8-0.851L75.65,44.75z M48.15,42.15
													c-0.333-0.267-0.566-0.567-0.7-0.9c0.367-0.1,0.833-0.1,1.4,0c0.3,0.033,0.767,0.116,1.4,0.25
													c1,0.167,2.517,0.283,4.55,0.35c0.633,0.034,2.133-0.033,4.5-0.199c0.1,0,0.817,0,2.15,0c0.933,0.033,1.6-0.084,2-0.351
													l6.25,2.15c-0.767,0-1.434,0.066-2,0.2c-1.4,0.433-2.483,0.716-3.25,0.85c-0.9,0.2-2.267,0.267-4.1,0.2
													c-2.434-0.033-3.8-0.066-4.1-0.101c-1.567-0.1-2.917-0.316-4.05-0.649c-1.133-0.334-1.817-0.55-2.05-0.65
													C49.283,42.967,48.617,42.583,48.15,42.15z M124.05,60.55l2.6-0.2c0.567-0.033,1.083-0.133,1.55-0.3
													c0.9-0.267,2-1.083,3.3-2.45l0.45,0.051l8.35,0.149c-1.433,0.233-3.167,0.851-5.2,1.851c-2.2,1.199-3.833,2.033-4.9,2.5
													c-1.167,0.533-2.417,0.899-3.75,1.1c-0.967,0.167-2.284,0.283-3.95,0.35c-5.733,0.267-10.883-0.316-15.45-1.75
													l-0.3-0.05c4.167,0.167,7.55,0.066,10.15-0.3c0.267-0.033,1.217-0.1,2.85-0.2c1.2-0.1,2.15-0.25,2.85-0.45L124.05,60.55
													z M63.05,17.6l2.65-1.25l-3.25,4.25l-1,1.3c-0.434-0.133-0.733-0.467-0.9-1c-0.2-0.5-0.216-0.967-0.05-1.4
													c0.133-0.367,0.367-0.667,0.7-0.9c0.2-0.133,0.533-0.333,1-0.6L63.05,17.6z"/>
												<path style="fill-rule:evenodd;clip-rule:evenodd;fill:#5E5140;" d="M207.65,67.65c-1.067,0.866-1.7,1.366-1.9,1.5
													c-0.502,0.261-1.118,0.527-1.85,0.8c0.5-0.5,0.816-1.134,0.949-1.9c0-0.066,0.084-0.6,0.25-1.6
													c0.067-0.533,0.233-1.066,0.5-1.601c0.367-0.633,0.567-1.583,0.601-2.85c0.033-1.366,0.166-2.333,0.399-2.9l-4,2.9
													c-1.233,0.667-2.833,1.083-4.8,1.25c-0.967,0.066-2.649,0.083-5.05,0.05c-0.8,0-1.4-0.017-1.8-0.05
													c-0.7-0.033-1.3-0.1-1.8-0.2c-0.434-0.066-1.4-0.416-2.9-1.05c-1.233-0.533-2.2-0.75-2.9-0.65
													c1.2,1,2.384,1.733,3.551,2.2c2.6,1.033,5.083,1.55,7.449,1.55c0.034,0,0.317-0.017,0.851-0.05
													c0.434,0,0.733,0.033,0.899,0.101c0.301,0.166,0.483,0.3,0.551,0.399c0.1,0.101,0.166,0.3,0.199,0.601
													c0.034,0.5-0.199,0.883-0.699,1.149c-0.067,0.033-0.567,0.2-1.5,0.5c-0.4,0.134-1.233,0.267-2.5,0.4
													c-1.067,0.133-1.867,0.316-2.4,0.55c-0.733,0.434-1.25,0.733-1.55,0.9c-0.533,0.3-1.134,0.483-1.8,0.55
													c-4.2,0.399-8.317,0-12.351-1.2l-4.45-1.3c-0.333-0.5-0.733-0.934-1.199-1.3l-0.65-0.5l0.05-0.851
													c-0.066-1.033-0.066-1.833,0-2.399c0.066-1,0.4-1.667,1-2c0.167-0.101,0.601-0.15,1.3-0.15l4.4,0.1
													c0.634,0.034,1.55,0.067,2.75,0.101c1.066,0,1.983-0.084,2.75-0.25c1.733-0.367,2.8-0.8,3.2-1.3
													c-0.5-0.233-1.3-0.351-2.4-0.351c-1.533-0.033-2.35-0.05-2.45-0.05c-2.199-0.2-3.816-0.4-4.85-0.6
													c-1.1-0.2-2.366-0.334-3.8-0.4c-1.867-0.333-3.25-0.434-4.15-0.3c0.134,1.033-0.267,1.816-1.2,2.35
													c0.267-0.3,0.384-0.883,0.351-1.75c-0.066-0.833,0.066-1.399,0.399-1.7c0.301-0.233,0.817-0.316,1.551-0.25
													c0.533,0.067,1.066,0.184,1.6,0.351c0.667,0.267,1.566,0.616,2.7,1.05c1,0.366,1.967,0.566,2.899,0.6
													c4.334,0.233,7.967,0.25,10.9,0.051c2.866-0.134,4.95-0.367,6.25-0.7c1.134-0.267,1.85-0.434,2.15-0.5
													c0.833-0.267,1.433-0.617,1.8-1.05c-0.533,0.699-0.95,1.216-1.25,1.55c-0.5,0.633-1.017,1.083-1.55,1.35
													c-0.334,0.167-1.434,0.384-3.301,0.65c-1.566,0.2-2.533,0.6-2.899,1.2c0.467,1.199,2.1,1.883,4.899,2.05
													c1.5,0.066,3.417,0.05,5.75-0.05c2.467,0,4.117-0.317,4.95-0.95c0.5-0.367,0.816-1.117,0.95-2.25
													c0.167-1.5,0.3-2.367,0.4-2.601c0.333-0.833,1.466-1.183,3.399-1.05c1.934,0.101,3.101-0.35,3.5-1.35
													c0.101-0.3,0.2-0.75,0.3-1.351c0.067-0.666,0.067-1.116,0-1.35c-0.133-0.533-0.649-1-1.55-1.4
													c-0.366-0.166-1.1-0.416-2.2-0.75c4.334,0.233,7.917-0.083,10.75-0.949l1.5-0.4c-0.633,0.533-1.116,0.934-1.449,1.2
													c-0.567,0.434-1.117,0.733-1.65,0.899c-0.967,0.101-1.583,0.184-1.85,0.25c-0.367,0.101-0.551,0.567-0.551,1.4
													c0,0.4,0.034,1.033,0.101,1.9c0.033,0.767,0,1.366-0.101,1.8c-0.267,0.934-1.149,1.533-2.649,1.8
													c-1.101,0.2-2.267,0.233-3.5,0.1c0.467,0.101,0.934,0.351,1.399,0.75c0.601,0.5,1.017,0.817,1.25,0.95
													c0.601,0.367,1.601,0.533,3,0.5c0.101,1.533,0.034,2.5-0.199,2.9c-0.2,0.366-0.65,0.767-1.351,1.2
													c-0.866,0.533-1.383,0.883-1.55,1.05C208.634,65.816,208.017,66.717,207.65,67.65z M195.075,73.075
													c0.365-0.463,0.856-0.954,1.475-1.476c1.134-0.8,2.717-1.166,4.75-1.1h1c-0.333,0.1-0.666,0.2-1,0.3
													c-0.666,0.2-1.267,0.384-1.8,0.55c-1.233,0.4-2.15,0.733-2.75,1c-0.333,0.134-0.65,0.267-0.95,0.4L195.075,73.075z
													 M84.225,70.15c-0.036-0.02-0.061-0.036-0.075-0.051c-0.1-0.066-0.2-0.1-0.3-0.1c-0.133-0.066-0.267-0.116-0.4-0.15
													c-0.1-0.033-0.2-0.05-0.3-0.05c-0.167-0.733-0.75-1.7-1.75-2.899l-0.15-1.2c-0.167-0.934-0.333-1.584-0.5-1.95
													c-1.233-1.8-2.1-3.167-2.6-4.1c-0.867-1.667-2.717-3.351-5.55-5.051c0.633,0.167,1.55,0.384,2.75,0.65
													c0.566,0.233,1,0.533,1.3,0.9c0.233,0.267,0.5,0.733,0.8,1.399c0.9,1.867,1.8,3.2,2.7,4c0.5,0.467,1.233,1.15,2.2,2.05
													c0.033-0.3-0.033-0.733-0.2-1.3c-0.133-0.633-0.2-1.066-0.2-1.3c0-0.4,0.1-0.95,0.3-1.65
													c0.167-0.699,0.25-1.233,0.25-1.6c0.5,1.366,1.35,2.934,2.55,4.7c0.733,1,1.633,1.85,2.7,2.55
													c0.467,0.3,1.567,0.9,3.3,1.8c0.467,0.233,1.383,0.834,2.75,1.8c1.1,0.801,2.05,1.317,2.85,1.551
													c4.333,1.1,8.367,1.666,12.1,1.699c1.8,0.034,4.433-0.316,7.9-1.05c0.033,0,0.75-0.017,2.15-0.05
													c0.934-0.033,1.633-0.167,2.1-0.4c0.967,1.267,2.434,2.134,4.4,2.601l0.1,0.1c1.133,0.8,2.217,1.4,3.25,1.8
													c0.6,0.167,1.083,0.434,1.45,0.801c0.6,1.033,0.15,1.616-1.35,1.75c-1.733-0.101-2.75-0.15-3.05-0.15
													c-2.4,0.1-4.15,0.05-5.25-0.15c-0.3-0.066-0.817-0.25-1.55-0.55c-0.667-0.233-1.2-0.383-1.6-0.45
													c-0.267-0.066-0.716-0.083-1.35-0.05c-0.733,0-0.9,0.084-0.5,0.25c-2.067-0.3-3.633-0.533-4.7-0.7
													c-1.867-0.3-3.4-0.649-4.6-1.05c-2.367-0.934-4.183-1.533-5.45-1.8c1.167,0.167,2.566,0.25,4.2,0.25
													c1.2,0.033,1.867,0.05,2,0.05c0.767-0.033,1.383-0.25,1.85-0.649c-2.6-0.267-4.567-0.483-5.9-0.65
													c-2.333-0.267-4.267-0.667-5.8-1.2c-2.367-0.767-4.25-1.684-5.65-2.75c-0.8-0.7-1.467-1.25-2-1.649
													c-1-0.733-1.733-1.084-2.2-1.051c-0.1,0.534,0.15,1.2,0.75,2c0.233,0.334,0.716,0.9,1.45,1.7
													c0.167,0.2,0.6,0.566,1.3,1.101c0.566,0.533,0.833,0.966,0.8,1.3c-0.033,0.3-0.133,0.566-0.3,0.8
													c-0.367,0.066-0.617,0.15-0.75,0.25c-0.167,0.3-0.267,0.616-0.3,0.95L90,73.7c-1.2-0.601-2.417-1.3-3.65-2.101
													c-0.367-0.267-0.717-0.517-1.05-0.75c-0.367-0.233-0.667-0.433-0.9-0.6C84.337,70.214,84.278,70.181,84.225,70.15z
													 M17.55,47.3c0.2-0.133,0.4-0.283,0.6-0.45c0.067-0.033,0.8-0.366,2.2-1c0.1-0.066,0.2-0.116,0.3-0.149l0.15-0.05
													c0,0.533,0.05,0.866,0.15,1c0.3,0.433,1.1,0.649,2.4,0.649c0.7,0,1.583-0.033,2.65-0.1c0.967,0.066,1.917,0.066,2.85,0
													c0.333-0.066,0.667-0.217,1-0.45c0.533-0.1,1.217-0.15,2.05-0.15c0.867,0.034,1.533,0.117,2,0.25
													c0.4,0.134,0.917,0.5,1.55,1.101c0.8,0.733,1.316,1.166,1.55,1.3c1.867,1.167,4.117,1.934,6.75,2.3l4.45,0.4l-2.35-0.05
													c-2.1-0.067-4.583-0.567-7.45-1.5c-2.5-0.934-4.4-1.617-5.7-2.051c-0.767-0.267-1.267-0.366-1.5-0.3
													c-0.067,0.467,0.167,1.2,0.7,2.2c0.5,0.967,0.667,1.75,0.5,2.35c-0.1,0.4-0.183,0.617-0.25,0.65
													c-0.267,0-0.566,0.017-0.9,0.05c-1.467-0.133-2.417-0.083-2.85,0.15c-0.1,0.066-0.2,0.2-0.3,0.399
													c-0.1,0.2-0.184,0.317-0.25,0.351c-0.4,0.166-0.883,0.25-1.45,0.25c-0.9,0.066-1.883,0.017-2.95-0.15
													c-1.333-0.2-2.267-0.533-2.8-1c-0.367-0.3-0.65-0.967-0.85-2c-0.2-1.267-0.4-2.083-0.6-2.45h1.4
													c0.566-0.033,0.883-0.283,0.95-0.75C21.183,47.667,19.85,47.4,17.55,47.3z M22,44.3h1.45l-0.9,0.5
													c-0.3,0.233-0.667,0.4-1.1,0.5H21.4c0.1-0.066,0.2-0.116,0.3-0.149c0.1-0.101,0.167-0.2,0.2-0.301
													c0.033-0.066,0.067-0.133,0.1-0.199C22.023,44.533,22.023,44.417,22,44.3z M21.7,39.05
													c0.333-0.233,0.883-0.533,1.65-0.9c0.8-0.367,1.35-0.65,1.65-0.85l3.5-2.2c0.033,0,0.067,0,0.1,0
													c0.367,0.033,0.883,0.017,1.55-0.05l-2.1,1.45c-0.167,0.1-0.683,0.517-1.55,1.25c-0.6,0.467-1.183,0.783-1.75,0.95
													C24.117,38.867,23.1,38.983,21.7,39.05z M62.45,20.6c0.133,1.6,0.133,2.583,0,2.95c-0.867-0.3-1.6-0.716-2.2-1.25
													c-0.733-0.667-1.1-1.383-1.1-2.15c0-0.6,0.317-1.233,0.95-1.9V18.2l3.2-1.25V17l-0.25,0.6L62.2,18
													c-0.467,0.267-0.8,0.467-1,0.6c-0.333,0.233-0.567,0.533-0.7,0.9c-0.167,0.433-0.15,0.9,0.05,1.4
													c0.167,0.533,0.467,0.867,0.9,1L62.45,20.6z M177.7,23.05c1.866,0.133,3.35,0.133,4.45,0c1.6-0.2,2.883-0.667,3.85-1.4
													c0.333-0.233,0.767-0.633,1.3-1.2c0.2-0.133,0.566-0.284,1.101-0.45c0.533-0.167,0.899-0.333,1.1-0.5
													c0.233-0.2,0.45-0.567,0.65-1.1c1.3-0.833,2.1-1.7,2.399-2.6c0.033-0.667,0.101-1.15,0.2-1.45
													c0.134-0.5,0.5-0.517,1.1-0.05l1.2-0.9c-0.533,0.434-0.783,1.2-0.75,2.3c0.033,1.4-0.033,2.283-0.2,2.65
													c-0.233,0.467-0.616,0.783-1.149,0.95c-0.667,0.167-1.2,0.333-1.601,0.5c-0.399,0.2-0.733,0.483-1,0.85
													c-0.267,0.5-0.517,0.883-0.75,1.15c-0.5,0.6-1.283,1.083-2.35,1.45c-1.233,0.4-2.634,0.65-4.2,0.75
													c-0.934,0.033-2.383,0.017-4.35-0.05l-6.2-0.1c-1.4-0.033-2.483-0.083-3.25-0.15c-1.366-0.1-2.4-0.333-3.1-0.7
													c1.399-0.1,3.316-0.117,5.75-0.05C174.767,23.05,176.7,23.083,177.7,23.05z M172.6,3.8c0.601,0.133,1.2,0.25,1.801,0.35
													c0.433,0.434,0.75,0.7,0.949,0.8c0.5,0.233,1.167,0.417,2,0.55c0.467,0.033,1.15,0.1,2.051,0.2
													c0.366,0.066,1.017,0.283,1.949,0.65c0.801,0.267,1.483,0.433,2.051,0.5c0.399,0.033,1.25,0.033,2.55,0
													c1.166,0.033,1.916,0.217,2.25,0.55c-0.566,0.667-1.783,1.017-3.65,1.05c-1.934,0-3.2,0.267-3.8,0.8
													c0.2,0.267,0.7,0.467,1.5,0.6c0.733,0.1,1.184,0.333,1.35,0.7c0.5,1.133-0.5,1.883-3,2.25
													c-4.033,0.733-8.716,0.934-14.05,0.6c-2.2-0.133-6.899-0.65-14.1-1.55c2.467,0.2,5.8,0.167,10-0.1
													c3.533-0.167,5.717-0.3,6.55-0.4c2.333,0.467,4.384,0.667,6.15,0.6c2.633-0.1,3.767-0.85,3.399-2.25l-1.75-2.3
													c0,1.133-0.066,1.867-0.2,2.2c-0.233,0.533-0.8,0.95-1.699,1.25c-0.9,0.267-2.15,0.333-3.75,0.2
													c1.433-0.233,2.649-0.566,3.649-1c1.934-0.733,2.351-1.833,1.25-3.3c-0.333-0.4-1.116-0.95-2.35-1.65
													c-0.934-0.533-1.684-0.934-2.25-1.2c-0.967-0.5-1.767-0.717-2.4-0.65L168.6,2.9c0.767,0.167,1.517,0.333,2.25,0.5
													L172.6,3.8z M211.85,21.3l-0.5-0.3c2.067,0.7,3.917,1.583,5.551,2.65C215.267,22.95,213.583,22.167,211.85,21.3z
													 M219.5,47.95c2.434-0.767,4.017-1.5,4.75-2.2c0.1-0.1,0.233-0.233,0.4-0.4c0.133-0.133,0.216-0.3,0.25-0.5
													c-0.034,0.834-0.601,1.567-1.7,2.2c-1.367,0.733-2.15,1.267-2.351,1.601c-0.6,0.966-0.149,1.517,1.351,1.649
													c0.8,0.101,1.816,0.084,3.05-0.05c0.066,0,0.55-0.017,1.45-0.05c0.666,0,1.166-0.033,1.5-0.101
													c1.3-0.233,2.767-1,4.399-2.3c0.834-0.666,2.051-1.8,3.65-3.399c1.5-1.567,2.467-2.684,2.9-3.351
													c1.033-1.633,1.149-3,0.35-4.1c-0.6-0.8-1.884-1.383-3.85-1.75c-2.467-0.467-3.917-0.817-4.351-1.05
													c-2-1-3.5-1.767-4.5-2.3c-1.666-0.934-3.05-1.867-4.149-2.8c-0.467-0.4-1.101-1.05-1.9-1.95
													c-0.833-0.9-1.483-1.55-1.95-1.95c-0.533-0.5-1.166-1-1.899-1.5l0.55,0.25c0.399,0.167,0.967,0.467,1.7,0.9
													c0.699,0.367,1.316,0.583,1.85,0.65c1.434,0.267,2.434,0.417,3,0.45c1.233,0.067,2.167-0.117,2.8-0.55
													c0.066,0.3,0.101,0.583,0.101,0.85c0.066,0.133,0.3,0.267,0.699,0.4c0.634,0.2,1.634,0.217,3,0.05
													c0.134-0.5,0.217-0.867,0.25-1.1c0.067-0.433,0.017-0.8-0.149-1.1c-0.167-0.367-0.601-0.75-1.3-1.15
													c-0.9-0.533-1.4-0.85-1.5-0.95c-0.767-0.767-1.351-1.333-1.75-1.7c0.666,0.333,1.55,0.5,2.649,0.5
													c0.134,0,0.434-0.05,0.9-0.15c0.366-0.1,0.666-0.117,0.899-0.05c0.101,1.733,0.967,2.75,2.601,3.05
													c1.333,0.267,2.033-0.25,2.1-1.55V22.4c0.066,0.067,0.134,0.133,0.2,0.2c0.3,0.233,0.634,0.45,1,0.65
													c0.167,0.1,0.333,0.183,0.5,0.25c1.7,0.767,4.517,1.983,8.45,3.65l1.399,0.6c0.2,0.067,0.4,0.15,0.601,0.25
													c-0.9-0.067-1.434-0.067-1.601,0c-0.267,0.167-0.399,0.367-0.399,0.6c0.033,0.367,0,0.633-0.101,0.8
													c-0.233,0.467-0.699,0.783-1.399,0.95c-0.566,0.167-1.134,0.183-1.7,0.05c-0.134-0.033-0.634-0.183-1.5-0.45
													c-0.566-0.2-1.05-0.233-1.45-0.1c-0.566,0.333-1.05,0.5-1.45,0.5c-0.466,0.033-1.066-0.15-1.8-0.55
													c-0.866-0.466-1.483-0.733-1.85-0.8l-2.101-0.35c0.233-0.2,0.684-0.483,1.351-0.85c0.633-0.367,1.1-0.716,1.399-1.05
													c0.334-0.4,0.733-1.05,1.2-1.95c-0.6,0.567-1.066,1-1.399,1.3c-0.567,0.5-1.084,0.8-1.551,0.9l-2.199,0.5
													c-0.934,0.267-2.267,0.283-4,0.05c-1.967-0.267-3.301-0.367-4-0.3c0.8,0.4,2.199,0.983,4.199,1.75
													c1.801,0.7,3.184,1.3,4.15,1.8c2.267,1.133,4.1,1.784,5.5,1.95c0.4,0.067,1.1,0.1,2.1,0.1
													c0.534,0.066,1.317,0.15,2.351,0.25c0.899,0.133,1.6,0.316,2.1,0.55c0.167,0.1,0.384,0.283,0.65,0.55
													c0.267,0.3,0.483,0.683,0.649,1.15c0.2,0.2,0.45,0.35,0.75,0.45c0.233,0.434,0.267,0.733,0.101,0.9
													c0.399-0.067,0.934,0.083,1.6,0.45c0.4,0.2,0.934,0.483,1.601,0.85c1.5,0.767,2.517,1.333,3.05,1.7
													c1.2,0.8,2.033,1.383,2.5,1.75c0.934,0.8,1.566,1.55,1.899,2.25l-0.199,0.1c-0.801,0.334-1.717,0.5-2.75,0.5
													c-2.101,0.101-3.301,0.316-3.601,0.65c-0.3,0.3-0.416,1.05-0.35,2.25c0.033,0.6,0.083,1.383,0.149,2.35
													c-0.133,1.2-0.5,2-1.1,2.4l-0.1,0.1l-0.4,0.2c-0.467,0.167-1.15,0.25-2.05,0.25c-1.634,0.066-3.066,0.033-4.3-0.1
													c-1.134,0.166-1.817,0.149-2.051-0.051c-0.267-0.233-0.3-0.85-0.1-1.85c0.3-1.066,0.467-1.7,0.5-1.9
													c0.434-2.5,0.75-5.233,0.95-8.2c-0.134,0.367-0.334,0.716-0.601,1.05c-0.333,0.434-0.6,0.767-0.8,1
													c-2.434,3.066-3.967,4.934-4.6,5.6c-1.9,1.934-4.033,3.566-6.4,4.9c-1.066,0.533-1.7,0.883-1.899,1.05l1.899,0.25
													c-1.934,0.5-3.316,0.767-4.149,0.8c0.6,0.3,1.783,0.816,3.55,1.55c1.267,0.801,1.233,1.717-0.101,2.75
													c-0.8,0.634-1.949,0.983-3.449,1.051c-1.4,0.1-2.634-0.067-3.7-0.5c-0.934-0.4-1.617-0.75-2.05-1.051
													c-0.634-0.5-0.983-1.1-1.051-1.8c0.101-1.133,0.034-1.983-0.199-2.55c-0.4-0.634-0.667-1.083-0.801-1.35
													c-0.233-0.4-0.25-0.867-0.05-1.4c0.233-0.566,0.733-1.217,1.5-1.95C218.7,48.934,219.267,48.316,219.5,47.95z
													 M209.25,37.9c-1.267,0.6-2.184,1.1-2.75,1.5l-0.6,0.3c-2.434,1.1-5.167,1.666-8.2,1.7
													c-2.938-0.1-5.154-0.149-6.65-0.15c0.453-0.012,0.986-0.194,1.601-0.55c0.399-0.167,0.949-0.45,1.649-0.85
													c0.667-0.267,1.65-0.783,2.95-1.55c1.2-0.633,2.233-1,3.1-1.1l17.25-4.6c-1.133,0.6-2.533,1.467-4.199,2.6
													C211,36.767,209.616,37.667,209.25,37.9z M205.6,36.35l-3,0.4c-0.666,0-1.383,0.183-2.149,0.55
													c-0.867,0.434-0.9,0.883-0.101,1.35c0.733,0.434,1.667,0.25,2.801-0.55C203.75,37.667,204.566,37.083,205.6,36.35z
													 M160,41.05c3.634,0.167,6.616,0.101,8.95-0.2l0.5-0.1c-0.934,0.533-1.7,0.833-2.3,0.9
													c-1,0.133-2.184,0.116-3.551-0.051C163.1,41.566,161.9,41.384,160,41.05z M200.2,30c-0.4,0.233-1.084,0.3-2.05,0.2
													c-0.9-0.067-1.567-0.25-2-0.55c0.166-0.4,0.633-0.9,1.399-1.5c1.033-0.8,1.601-1.25,1.7-1.35c0.5-0.5,1.2-1.267,2.1-2.3
													l1,0.5c-0.366,0.333-0.666,1.183-0.899,2.55C201.217,28.817,200.8,29.633,200.2,30z M172.35,39.75l1.45-0.65l4.2-1.05
													l-3.7,1.05C174.1,39.2,173.45,39.417,172.35,39.75z M187.7,35.65l12.899-3.2l-13.699,4.9
													c-1.5,0.566-2.851,1.267-4.051,2.1c-1.699,1.333-3.017,2.3-3.949,2.899c-1.601,1.067-3.084,1.65-4.45,1.75
													c-0.934,0.101-2.167,0.067-3.7-0.1c-2-0.2-3.25-0.3-3.75-0.3c-2.366-0.066-6.1-0.4-11.2-1
													c-2.399-0.233-4.217-0.417-5.45-0.55c-2.166-0.233-3.949-0.567-5.35-1c-1.833-0.667-3.233-1.117-4.2-1.351
													c-5.733-1.433-10.917-2.35-15.55-2.75c3.633,0.233,6.867,0.367,9.7,0.4c0.833,0.033,2.117,0.033,3.85,0
													c1.534,0.033,2.8,0.167,3.8,0.4c0.367,0.1,1.45,0.433,3.25,1c1.301,0.4,2.4,0.633,3.301,0.7
													c0.966,0.1,2.166,0.284,3.6,0.55l3.3,0.6c1.033,0.967,3.384,1.649,7.05,2.05c2.7,0.366,5.434,0.467,8.2,0.3
													c1-0.033,2-0.267,3-0.7c0.533-0.233,1.184-0.583,1.95-1.05c0.434-0.267,1.05-0.65,1.85-1.15
													C180.566,38.75,183.767,37.25,187.7,35.65z M234.15,55.55c0.733,0.3,1.183,0.75,1.35,1.351
													c-0.434-0.167-0.75-0.384-0.95-0.65L234.15,55.55z M113.7,12.6c1,0.133,2.5,0.4,4.5,0.8c1.8,0.3,3.316,0.383,4.55,0.25
													c0.233-0.733-0.45-1.25-2.05-1.55c-1.767-0.167-2.8-0.267-3.1-0.3c2.133,0,5.267,0.417,9.4,1.25
													c0.4,0.034,0.8-0.017,1.2-0.15c0.233-0.1,0.583-0.267,1.05-0.5c1.6-0.633,3.4-0.983,5.4-1.05
													c0.667-0.033,2.3,0.033,4.9,0.2l10.25,1.25c-1.533,0.5-3.333,0.833-5.399,1c-1.067,0.1-2.9,0.184-5.5,0.25
													c-0.967,0.034-2,0.233-3.1,0.6l-2.95,1.05c-1.7,0.5-3.467,0.75-5.3,0.75c-1.367,0-3.167-0.167-5.4-0.5
													c-1.967-0.233-3.833-0.7-5.6-1.4c-1.066-0.367-1.85-0.65-2.35-0.85c-0.9-0.333-1.6-0.75-2.1-1.25L113.7,12.6z
													 M77.45,11.55l2.8-0.75c1.033,0.7,2.833,1.567,5.4,2.6c2.233,0.934,3.867,1.45,4.9,1.55
													c2.967,1.233,6.684,2.216,11.15,2.95c2.533,0.4,6.333,0.917,11.4,1.55c-4.733-0.133-8.283-0.25-10.65-0.35
													c-4.233-0.133-7.784-0.434-10.65-0.9c-2.533-0.333-4.45-0.633-5.75-0.9c-2.3-0.433-4.133-1.05-5.5-1.85
													c-1.9-1.1-3.066-2.133-3.5-3.1L77.45,11.55z M136,23.5l5.3,0.35c1.534-0.067,3.867,0.417,7,1.45
													c0.334,0.133,0.75,0.3,1.25,0.5c0.467,0.167,0.9,0.25,1.3,0.25l1.801,0.05c-0.4,0.033-0.934,0.133-1.601,0.3
													c-0.767,0.233-1.3,0.367-1.6,0.4c-1.233,0.133-3.483,0.167-6.75,0.1c-3.233-0.1-6.017-0.033-8.35,0.2
													c-0.767,0.1-1.684,0.316-2.75,0.65c-1.633,0.5-2.55,0.783-2.75,0.85c-0.2,0.033-1.883,0.383-5.05,1.05
													c-1.066,0.2-2.4,0.283-4,0.25c-1.833-0.066-3.2-0.117-4.1-0.15c-2.133-0.033-3.383-0.067-3.75-0.1
													c-1.467-0.1-2.667-0.35-3.6-0.75c1.433-0.233,3.667-0.35,6.7-0.35c2.967,0.034,5.2-0.083,6.7-0.35
													c2.267-0.4,4.083-1.034,5.45-1.9C130.233,24.3,133.167,23.367,136,23.5z M83.05,10l1.15-0.35
													c0.733-0.2,1.7-0.667,2.9-1.4c-0.733,0.7-1.233,1.233-1.5,1.6c-0.467,0.7-0.567,1.35-0.3,1.95l0.35,0.55l-1-0.55
													c-0.633-0.367-1.05-0.65-1.25-0.85C83.167,10.683,83.05,10.367,83.05,10z M79.25,48.05l-0.3,0.101
													c-0.967,0.333-2.133,0.933-3.5,1.8c-0.4,0.2-0.833,0.35-1.3,0.45c-0.767,0.1-1.367,0.166-1.8,0.199
													c-0.8,0.101-1.367,0.301-1.7,0.601c-0.3,0.267-0.467,0.6-0.5,1c-0.033,0.366,0.033,0.7,0.2,1l-2.45-1.5l0.5,1.399
													c0.033,0.167,0.25,0.767,0.65,1.801c0.267,0.733,0.417,1.316,0.45,1.75c0.067,1.666-1.067,2.6-3.4,2.8
													c-2.733-0.066-4.467-0.05-5.2,0.05c0.1,0.5-0.017,0.866-0.35,1.1c-0.233,0.134-0.617,0.25-1.15,0.351
													c-3.4,0.6-6.517,0.066-9.35-1.601c-0.4-0.233-0.983-0.649-1.75-1.25c-0.767-0.566-1.367-0.966-1.8-1.199
													c-0.7-0.334-1.217-0.584-1.55-0.75c-0.6-0.301-1.1-0.617-1.5-0.95l-1-0.75L42.4,53.6c0.9-0.166,1.583-0.333,2.05-0.5
													l3.1,0.101c1.534,0,2.517-0.017,2.95-0.05c1.5-0.134,2.333-0.467,2.5-1L51.1,52c1.2,0,1.9-0.467,2.1-1.4
													c0.167-0.833,0.167-2.1,0-3.8v-0.05c-0.067-0.533-0.117-0.85-0.15-0.95c-0.066-0.133-0.316-0.283-0.75-0.45
													c-0.633-0.267-1.417-0.449-2.35-0.55l-1-0.6c-1-0.3-2.217-0.884-3.65-1.75c-1.867-1.134-3.033-1.817-3.5-2.05l-1.4-0.75
													v-2.1c0.033,0.333,0.117,0.6,0.25,0.8c0.1,0.1,0.434,0.417,1,0.95c1.6,1.3,3.717,2.25,6.35,2.851h0.15
													c0.467,0.433,1.133,0.816,2,1.149c0.233,0.101,0.917,0.316,2.05,0.65c1.133,0.333,2.483,0.55,4.05,0.649
													c0.3,0.034,1.667,0.067,4.1,0.101c1.833,0.066,3.2,0,4.1-0.2c0.767-0.134,1.85-0.417,3.25-0.85l0.05,0.1
													c0.267,0.434,0.55,0.7,0.85,0.8c0.167,0.066,0.533,0.117,1.1,0.15c1.833,0.1,3.5,0.133,5,0.1
													c0.433,0,0.75-0.017,0.95-0.05l-0.1,0.05c-0.8,0.434-1.733,0.717-2.8,0.851c-0.5,0.033-1.517,0.05-3.05,0.05
													c-1.233-0.033-2.2,0.033-2.9,0.2c-0.833,0.199-1.7,0.583-2.6,1.149c-1.367,0.733-2.35,1.316-2.95,1.75
													c-0.333,0.233-0.717,0.566-1.15,1c-0.333,0.334-0.6,0.601-0.8,0.8c0.467-0.399,1.05-0.716,1.75-0.949
													c0.5-0.167,1.3-0.351,2.4-0.551c0.066,0,1.55-0.283,4.45-0.85c1.8-0.366,3.283-0.6,4.45-0.7
													c1.767-0.166,3.467-0.467,5.1-0.899c0.867-0.233,1.617-0.584,2.25-1.051c0.466-0.333,1.017-0.899,1.65-1.699
													c0.533-0.667,0.833-1.117,0.9-1.351c-0.067-0.767-0.067-1.333,0-1.7c1.433-0.267,2.383-0.483,2.85-0.65
													c1.267-0.467,1.883-1.083,1.85-1.85c-0.7,0.2-1.65,0.316-2.85,0.35c-1.434,0.033-2.233-0.133-2.4-0.5l-1.2,1.45
													c0.133-0.467,0.2-0.833,0.2-1.1c-0.267-0.1-1.167-0.283-2.7-0.55c-1.2-0.167-2.05-0.5-2.55-1
													c-0.3-0.333-0.567-0.75-0.8-1.25c0.5,0.433,1.317,0.75,2.45,0.95c0.2,0.033,1.033,0.1,2.5,0.2
													c2.4,0.233,3.933,0.35,4.6,0.35c0.566,0.033,1.45,0.033,2.65,0c1.066-0.033,1.933,0.017,2.6,0.15
													c0.033,0.434-0.25,0.917-0.85,1.45c-0.8,0.7-1.25,1.133-1.35,1.3c-0.367,1.234-0.783,2.167-1.25,2.8
													c-0.467,0.566-1.217,1.149-2.25,1.75c-1.2,0.633-2.05,1.116-2.55,1.45c-0.367,0.233-0.717,0.55-1.05,0.949
													C79.617,47.667,79.317,47.983,79.25,48.05z M150.25,59.75l-1.7-0.5L148.5,59c-0.467-0.267-1.333-0.434-2.6-0.5
													c-1.233-0.1-2.101-0.033-2.601,0.2c-0.733,0.333-1,0.816-0.8,1.45c0.333,1.033,1.317,1.816,2.95,2.35
													c1.233,0.366,2.517,0.55,3.85,0.55c0.767,0.033,1.417-0.116,1.95-0.45c0.3-0.199,0.75-0.616,1.35-1.25l0.9,0.301
													c1.667,0.3,3.05,0.433,4.15,0.399L158.35,62c2,0.366,2.75,1.3,2.25,2.8c-0.199,0.533-0.699,1.05-1.5,1.55
													c-0.966,0.5-1.633,0.867-2,1.101c-0.866,0.566-1.449,1-1.75,1.3c-0.5,0.533-0.767,1.167-0.8,1.9
													c-0.066,1.066-0.133,1.767-0.2,2.1c-0.133,0.733-0.416,1.35-0.85,1.85c-0.467,0.567-1.7,1.601-3.7,3.101
													c0.066-0.3,0.05-0.517-0.05-0.65c-0.134-0.267-0.967-0.483-2.5-0.649c-1.6-0.101-2.517-0.167-2.75-0.2l-2.15-0.4
													l-0.05-0.2l-2.35-0.5c0.333-0.267,1-0.416,2-0.449c0.9-0.301,1.783-0.75,2.649-1.351c1.067-0.733,1.717-1.434,1.95-2.1
													c-0.333,0.1-0.767,0.333-1.3,0.7c-0.6,0.433-1.033,0.699-1.3,0.8c-0.733,0.3-1.667,0.5-2.8,0.6
													c-1.3,0.101-2.267,0.184-2.9,0.25c-4.133,0.4-7.383,0.483-9.75,0.25c-0.533-0.033-1.067-0.2-1.6-0.5l0.5,0.05
													c3.7,0.5,7.434,0.517,11.2,0.051c2.5-0.367,4.45-0.9,5.85-1.601c0.533-0.267,0.899-0.55,1.1-0.85
													c0.033-0.066,0.2-0.483,0.5-1.25c0.134-0.367,0.4-0.95,0.8-1.75c0.4-0.733,0.65-1.316,0.75-1.75
													c-0.533-0.267-1.383-0.334-2.55-0.2c-1.2,0.1-2.033,0.066-2.5-0.1L142.4,65.8c-0.566-0.267-1.15-1-1.75-2.2
													c-0.6-1.267-1.167-2.017-1.7-2.25c-0.4-0.199-0.95-0.216-1.65-0.05c-0.233,0.066-0.75,0.267-1.55,0.601
													c-1.667,0.699-3.517,1.199-5.55,1.5c-5.434,0.833-10.383,1.199-14.85,1.1c-2.633-0.033-5.15-0.267-7.55-0.7
													c-2.633-0.467-4.783-0.983-6.45-1.55c-1.033-0.3-1.833-0.533-2.4-0.7c-1.034-0.366-1.75-0.75-2.15-1.149
													c1.6,0.699,4.233,1.149,7.9,1.35l2.35,0.1c4.567,1.434,9.717,2.017,15.45,1.75c1.667-0.066,2.983-0.183,3.95-0.35
													c1.333-0.2,2.583-0.566,3.75-1.1c1.066-0.467,2.7-1.301,4.9-2.5c2.033-1,3.767-1.617,5.2-1.851l-8.35-0.149
													c0.133-1.334-0.8-2.034-2.8-2.101c-2.633-0.033-4.066-0.133-4.3-0.3c0.5-0.066,1.267-0.083,2.3-0.05
													c0.833-0.066,1.35-0.467,1.55-1.2c0.367-1.333-0.05-2.217-1.25-2.65c-0.867-0.3-2.034-0.366-3.5-0.199
													c-4.967,0.466-9.317,0.633-13.05,0.5c-3.433-0.134-5.633-1.233-6.6-3.301c2.233,1,4.367,1.517,6.4,1.551
													c0.833,0.033,2.1,0.083,3.8,0.149c1.467,0.033,2.717,0.017,3.75-0.05c0.067,0,0.983-0.066,2.75-0.2
													c1.067-0.1,1.967-0.133,2.7-0.1c1.9,0,3.167,0.133,3.8,0.399c0.7,0.301,1.517,0.867,2.45,1.7
													c0.533,0.467,1.3,1.167,2.3,2.101c0.033,0.033,0.5,0.449,1.4,1.25c0.567,0.5,1.033,0.866,1.4,1.1
													c1.1,0.7,2.75,1.134,4.95,1.3c1.2,0.101,2.933,0.2,5.2,0.3c1.6,0.233,2.55,0.384,2.85,0.45
													c1.101,0.267,1.934,0.7,2.5,1.3l0.25,0.301L150.25,59.75z M124.05,60.55c0.733-0.366,1.367-0.55,1.9-0.55l2.25,0.05
													c-0.467,0.167-0.983,0.267-1.55,0.3L124.05,60.55z M40.5,30.2c1.067-0.3,1.867-0.6,2.4-0.9
													c0.434-0.233,1.033-0.716,1.8-1.45c0.733-0.7,1.367-1.167,1.9-1.4c0.2-0.067,0.867-0.233,2-0.5
													c0.767-0.167,1.367-0.467,1.8-0.9c0.167-0.167,0.35-0.45,0.55-0.85v0.3c0.833-0.4,1.35-0.617,1.55-0.65
													c-0.033,0.433-0.45,0.85-1.25,1.25c-0.9,0.433-1.5,0.717-1.8,0.85c-1,0.566-2.284,1.45-3.85,2.65
													c-1.767,1.333-3.033,2.233-3.8,2.7c-0.4,0.233-1.133,0.567-2.2,1c-0.967,0.367-1.684,0.733-2.15,1.1L40.5,30.2z
													 M66.45,41.35c0.3,0.134,0.583,0.551,0.85,1.25l-2.75-0.949l0.7-0.051c0.133-0.033,0.333-0.1,0.6-0.199
													C66.117,41.3,66.317,41.283,66.45,41.35z M36.1,34.6l-1.9,2c-0.5,0.5-1.05,0.9-1.65,1.2L36.1,34.6z"/>
												<path style="fill-rule:evenodd;clip-rule:evenodd;fill:#3F3932;" d="M219.8,65.95c-0.566-0.066-1.05-0.101-1.45-0.101
													c0.101-0.466,0.167-1.149,0.2-2.05c0.033-0.833,0.05-1.316,0.05-1.45c0.7,0.233,1.601,0.534,2.7,0.9
													c0.934,0.3,1.9,0.517,2.9,0.65c2.6,0.366,4.434,0.6,5.5,0.699c2.333,0.167,4.184,0.084,5.55-0.25
													c0.634-0.133,1.4-0.5,2.3-1.1c0.101-0.066,0.8-0.55,2.101-1.45l2.149-1.6c0.9-0.834,1.45-1.483,1.65-1.95
													c0.399-1,0.1-1.934-0.9-2.8c-1.3-1.134-2.033-1.917-2.2-2.351c0.2-0.233,0.667-0.283,1.4-0.149
													c0.934,0.166,1.467,0.233,1.6,0.2c1.9-0.167,3.367-0.467,4.4-0.9l0.4-0.2l0.1-0.1c0.767-0.4,1.25-0.934,1.45-1.601
													c0.133-0.6,0.233-1.017,0.3-1.25c0.1-0.3,0.434-0.517,1-0.649c0.267-0.066,0.7-0.066,1.3,0
													c0.601,0.066,1.033,0.05,1.3-0.05c0.733-0.233,1.467-0.867,2.2-1.9c0.634-0.934,0.733-1.866,0.3-2.8
													c-0.333-0.7-0.966-1.45-1.899-2.25c-0.467-0.367-1.3-0.95-2.5-1.75c-0.533-0.367-1.55-0.934-3.05-1.7
													c-0.667-0.367-1.2-0.65-1.601-0.85c-0.666-0.367-1.2-0.517-1.6-0.45c0.166-0.167,0.133-0.467-0.101-0.9
													c-0.199-0.367-0.517-0.783-0.949-1.25c-0.4-0.433-0.733-0.716-1-0.85l-0.101-0.05c-0.5-0.233-1.2-0.417-2.1-0.55
													c-1.033-0.1-1.816-0.184-2.351-0.25c-2.033-0.233-3.35-0.833-3.949-1.8c0.633,0,2.216,0.2,4.75,0.6
													c2.033,0.3,3.616,0.317,4.75,0.05c0.3-0.067,0.699-0.2,1.199-0.4c0.434-0.1,0.884-0.017,1.351,0.25
													c0.366,0.2,0.833,0.667,1.399,1.4c0.667,0.867,1.101,1.4,1.301,1.6c1.066,0.967,2.25,1.684,3.55,2.15
													c0.767,0.267,2.149,0.617,4.149,1.05c1.801,0.4,3.184,0.8,4.15,1.2c0.866,0.367,1.483,0.867,1.85,1.5
													c0.101,0.2,0.2,0.7,0.301,1.5c0.066,0.533,0.333,0.866,0.8,1c0.6,0.166,1.149,0.217,1.649,0.149
													c0.601-0.066,0.95-0.333,1.051-0.8c0.166-0.833-0.267-1.8-1.301-2.9c-1.267-1.167-2.066-1.983-2.399-2.45
													c0.7,0.3,1.566,0.767,2.6,1.4c0.566,0.367,1.384,0.917,2.45,1.65c0.333,0.2,0.8,0.533,1.4,1
													c0.1,0.134,0.233,0.4,0.399,0.8c0.134,0.334,0.267,0.566,0.4,0.7c0.399,0.4,1.35,0.566,2.85,0.5
													c0.033,0.033,0.084,0.083,0.15,0.15c0.366,0.433,0.717,0.883,1.05,1.35v0.3c-0.233,1.267-0.616,2.25-1.15,2.95
													c-0.333,0.434-1.083,1.083-2.25,1.95c-0.399,0.3-0.8,0.783-1.199,1.45c-0.4,0.699-0.7,1.133-0.9,1.3
													c-0.634,0.6-1.65,1.083-3.05,1.45c-1.601,0.3-2.733,0.517-3.4,0.649c-3.633,0.834-5.533,1.283-5.7,1.351
													c-2.1,0.566-3.899,1.267-5.399,2.1c-1.834,1.066-3.617,2.283-5.351,3.65c-2.3,1.767-5.25,2.933-8.85,3.5
													c-4.267,0.333-7.5,0.616-9.7,0.85l-3.35,0.15c-0.434,0-0.884-0.017-1.351-0.051c-0.5-0.033-0.949-0.05-1.35-0.05
													L219.8,65.95z M159.05,74.95c0.066-0.3,0.117-0.467,0.15-0.5c0.366-0.867,1.233-1.767,2.6-2.7
													c1.967-1.333,3.017-2.066,3.15-2.2c0.467-0.467,0.8-1.1,1-1.899c0.233-0.834,0.267-1.584,0.1-2.25
													c-0.233-1-0.883-2.233-1.95-3.7l0.5-0.3c0.2,0.233,0.4,0.699,0.601,1.399s0.416,1.184,0.649,1.45
													c0.4,0.434,1.034,0.983,1.9,1.65l0.65,0.5c0.466,0.366,0.866,0.8,1.199,1.3l0.45,0.75c0.367,0.6,0.884,0.983,1.55,1.149
													c0.4,0.101,1.084,0.2,2.051,0.301c0.633,0.133,1.55,0.35,2.75,0.649c1.033,0.233,1.949,0.367,2.75,0.4
													c1.133,0.033,2.8,0.166,5,0.399c0.899,0,2.233,0.017,4,0.051c1.3-0.334,2.033-0.467,2.199-0.4
													c0.134,0.066,0.233,0.233,0.301,0.5c0.033,0.134,0.083,0.333,0.149,0.6c0.101,0.434,0.184,1.2,0.25,2.301
													c-0.267,0.033-0.533,0.083-0.8,0.149h-0.3c-0.867,0.101-1.767,0.134-2.7,0.101l-17-0.4c-2.267-0.167-4-0.267-5.2-0.3
													c-2.166-0.101-3.85,0.083-5.05,0.55C159.733,74.6,159.417,74.75,159.05,74.95z M142.35,75.8
													c0.066,0.167,0.467,0.65,1.2,1.45c0.533,0.566,0.7,1.1,0.5,1.6c-1.733,0.301-3.35,0.551-4.85,0.75h-0.05
													c-0.9-0.166-1.6-0.333-2.1-0.5L137,79.05c-0.1-0.033-0.183-0.066-0.25-0.1c0.033-0.2,0.2-0.483,0.5-0.851
													c0.267-0.333,0.383-0.6,0.35-0.8c-0.067-0.267-0.317-0.434-0.75-0.5c-0.533-0.033-0.883-0.083-1.05-0.149
													c-2.633-0.5-3.966-1.25-4-2.25c0.4-0.034,2.217,0,5.45,0.1l2.7,0.6l2.35,0.5L142.35,75.8z M95.45,75.95
													c0.933-0.733,1.583-1.117,1.95-1.15c0.733-0.1,1.833,0.167,3.3,0.8c1.466,0.634,2.55,0.917,3.25,0.851
													c0-0.066,0-0.334,0-0.8c0-0.367,0.066-0.634,0.2-0.801c0.333-0.433,1.117-0.383,2.35,0.15
													c0.633,0.267,1.433,0.65,2.4,1.15c0.533,0.233,1.4,0.55,2.6,0.949c1,0.4,1.75,0.851,2.25,1.351l0.95,1
													c-4.667-0.2-9.7-0.967-15.1-2.3L97.55,76.6C96.883,76.4,96.183,76.184,95.45,75.95z M24.05,57.65L25,57.55
													c0.367-0.066,0.717-0.184,1.05-0.35c0.567-0.334,0.867-0.517,0.9-0.55c0.6-0.233,1.417-0.301,2.45-0.2
													c0.567,0.066,1.4,0.184,2.5,0.35c0.2,0.033,0.7,0.084,1.5,0.15c0.733,0.066,1.2,0.033,1.4-0.101
													c0.267-0.199,0.467-0.683,0.6-1.449c0.067-0.167,0.283-0.467,0.65-0.9c0.3-0.366,0.483-0.667,0.55-0.9
													c0.1-0.366,0.05-0.716-0.15-1.05c-0.267-0.533-0.417-0.866-0.45-1c0.4-0.3,1.1-0.35,2.1-0.149
													c0.533,0.1,1.217,0.267,2.05,0.5c1.3,0.166,3.217,0.25,5.75,0.25c-0.2,0.333-0.683,0.649-1.45,0.949
													c-0.467,0.167-1.15,0.334-2.05,0.5l0.05,0.851c0.066,0.866,0.45,1.616,1.15,2.25c3.6,3.166,7.633,5.233,12.1,6.2
													c2.033,0.399,4.183,0.517,6.45,0.35c0.367-0.033,1.15-0.25,2.35-0.65c0.933-0.3,1.717-0.35,2.35-0.149
													c0.233,0.1,1,0.483,2.3,1.149c0.833,0.4,1.667,0.617,2.5,0.65c0.434,0.033,1.383,0.116,2.85,0.25
													c1.367,0.066,2.217-0.15,2.55-0.65c0.133-0.233,0.2-0.583,0.2-1.05c-0.033-0.533-0.05-0.916-0.05-1.149v-1.2
													c-0.034-0.4-0.133-0.783-0.3-1.15c-0.1-0.2-0.35-0.566-0.75-1.1c-0.367-0.434-0.583-0.783-0.65-1.05
													c0.933,0.833,1.817,2.166,2.65,4c1.1,2.366,1.833,3.833,2.2,4.399L81.4,66.9c1,1.199,1.583,2.166,1.75,2.899
													c-0.4-0.033-0.917-0.066-1.55-0.1c-8-0.134-14.3-0.733-18.9-1.8c-4.333-0.801-7.534-1.483-9.6-2.051
													c-1.434-0.399-3.2-1.033-5.3-1.899c-2.933-1.233-4.667-1.95-5.2-2.15C36.9,59.733,30.717,58.35,24.05,57.65z"/>
												<path style="fill-rule:evenodd;clip-rule:evenodd;fill:#6C5C47;" d="M273.7,43.15c-0.066-0.067-0.117-0.117-0.15-0.15
													c-0.075-0.1-0.149-0.191-0.225-0.275C273.439,42.846,273.564,42.987,273.7,43.15z M218.35,65.85
													c0.4,0,0.884,0.034,1.45,0.101c-0.938-0.057-1.639-0.091-2.1-0.101H218.35z M205.75,69.15
													c0.2-0.134,0.833-0.634,1.9-1.5l0.399-0.25c-0.267,0.199-0.566,0.433-0.899,0.699
													C206.55,68.634,206.083,68.983,205.75,69.15z M94.9,75.8c0.2,0.033,0.383,0.084,0.55,0.15
													c0.733,0.233,1.433,0.45,2.1,0.649C96.65,76.366,95.767,76.1,94.9,75.8z M83.85,70c0.1,0,0.2,0.033,0.3,0.1
													c0.015,0.015,0.04,0.031,0.075,0.051C84.072,70.074,83.947,70.024,83.85,70z M14.1,50.7c0.3-0.566,0.733-1.117,1.3-1.65
													c0.2-0.2,0.5-0.45,0.9-0.75C15.267,49.134,14.533,49.934,14.1,50.7z M20.35,45.85c-1.4,0.634-2.133,0.967-2.2,1
													c0.2-0.166,0.883-0.483,2.05-0.949C20.233,45.866,20.283,45.85,20.35,45.85z M48.2,51.95l-4.45-0.4
													c-2.633-0.366-4.883-1.133-6.75-2.3c-0.233-0.134-0.75-0.566-1.55-1.3c-0.633-0.601-1.15-0.967-1.55-1.101
													c-0.467-0.133-1.133-0.216-2-0.25c-0.833,0-1.517,0.051-2.05,0.15c-0.333,0.233-0.667,0.384-1,0.45
													c-0.934,0.066-1.883,0.066-2.85,0c-1.067,0.066-1.95,0.1-2.65,0.1c-1.3,0-2.1-0.217-2.4-0.649
													c-0.1-0.134-0.15-0.467-0.15-1c0.267-0.134,0.483-0.25,0.65-0.351c0.433-0.1,0.8-0.267,1.1-0.5l0.9-0.5
													c1.767-0.066,3.083-0.45,3.95-1.149c1.3-1.034,3.017-2.817,5.15-5.351l7.95-7.6l-3.05,3.2
													c0.466-0.367,1.183-0.733,2.15-1.1c1.066-0.433,1.8-0.767,2.2-1c0.767-0.466,2.034-1.367,3.8-2.7
													c1.566-1.2,2.85-2.083,3.85-2.65c0.3-0.133,0.9-0.417,1.8-0.85c0.8-0.4,1.217-0.817,1.25-1.25
													c-0.2,0.033-0.717,0.25-1.55,0.65v-0.3l0.3-0.45c0.233-0.267,0.483-0.45,0.75-0.55c0.533-0.2,0.833-0.317,0.9-0.35
													c1.133-0.567,2.017-1.55,2.65-2.95c-1.587,0.489-2.629,0.839-3.125,1.05c0.623-0.288,1.481-0.588,2.575-0.9
													c0.2-0.066,0.383-0.117,0.55-0.15c0.967-0.267,1.684-0.5,2.15-0.7c0.6-0.267,1.4-0.583,2.4-0.95
													c-0.633,0.667-0.95,1.3-0.95,1.9c0,0.767,0.367,1.483,1.1,2.15c0.6,0.534,1.333,0.95,2.2,1.25
													c0.133-0.367,0.133-1.35,0-2.95l3.25-4.25l-2.65,1.25L63.3,17c0.2-0.067,0.417-0.15,0.65-0.25
													c2.667-1,4.733-1.867,6.2-2.6c1.6-0.767,3.617-1.517,6.05-2.25c0.267-0.1,0.55-0.183,0.85-0.25
													c1.6-0.433,3.983-1.1,7.15-2c0.966-0.3,2.05-0.85,3.25-1.65c1.8-1.2,2.816-1.867,3.05-2c2.133-1.167,3.3-1.8,3.5-1.9
													c1.633-0.767,2.85-1.1,3.65-1l3-1.45c0.767,0.067,1.684-0.083,2.75-0.45c1.467-0.467,2.333-0.733,2.6-0.8
													c0.267-0.066,0.567-0.117,0.9-0.15l0.1,0.3c-1.6,0.2-3.45,0.7-5.55,1.5l-3.25,1.5c-1.667,0.8-3.217,1.667-4.65,2.6
													l-0.2,0.65c0.033,0.067,0.267,0.217,0.7,0.45c1,0.167,2.5,0.317,4.5,0.45c2,0.233,3.8,0.5,5.4,0.8
													c1.267,0.267,2.216,0.667,2.85,1.2c1,0.8,2.083,1.417,3.25,1.85c0.9,0.367,2.117,0.717,3.65,1.05l-1.6-0.15
													c0.5,0.5,1.2,0.917,2.1,1.25c0.5,0.2,1.283,0.483,2.35,0.85c1.767,0.7,3.633,1.167,5.6,1.4
													c2.233,0.333,4.033,0.5,5.4,0.5c1.833,0,3.6-0.25,5.3-0.75l2.95-1.05c1.1-0.367,2.133-0.566,3.1-0.6
													c2.6-0.066,4.434-0.15,5.5-0.25c2.066-0.167,3.866-0.5,5.399-1l-10.25-1.25c-2.6-0.167-4.233-0.233-4.9-0.2l1.15-0.4
													c1.267-0.367,3.167-0.233,5.7,0.4c2.634,0.667,4.55,0.867,5.75,0.6c0.267-0.567,0.066-0.983-0.6-1.25
													c-0.233-0.1-0.817-0.233-1.75-0.4c-3.067-0.5-5.083-0.883-6.05-1.15c-2.2-0.533-4.117-1.283-5.75-2.25
													c0.3-0.3,0.983-0.533,2.05-0.7c0.567-0.1,1.3-0.2,2.2-0.3c1.233-0.133,2.767-0.167,4.6-0.1
													c1.033,0.034,2.566,0.083,4.6,0.15c0.033,0,2.834,0.1,8.4,0.3c3.333,0.133,6.116,0.183,8.35,0.15
													c1.3-0.033,2.3-0.383,3-1.05c0.834-0.767,0.767-1.684-0.2-2.75L165.9,2.4c-0.2-0.033-0.384-0.066-0.551-0.1
													c1.101,0.167,2.184,0.367,3.25,0.6l0.45,0.35c0.634-0.067,1.434,0.15,2.4,0.65c0.566,0.267,1.316,0.667,2.25,1.2
													c1.233,0.7,2.017,1.25,2.35,1.65c1.101,1.467,0.684,2.567-1.25,3.3c-1,0.434-2.217,0.767-3.649,1L170.2,11
													c-0.467-0.033-0.851-0.05-1.15-0.05c-0.533-0.034-0.866,0.033-1,0.2l0.95,0.2c-0.833,0.1-3.017,0.233-6.55,0.4
													c-4.2,0.267-7.533,0.3-10,0.1c7.2,0.9,11.899,1.417,14.1,1.55c5.334,0.333,10.017,0.133,14.05-0.6
													c2.5-0.367,3.5-1.117,3-2.25c-0.166-0.367-0.616-0.6-1.35-0.7c-0.8-0.133-1.3-0.333-1.5-0.6
													c0.6-0.533,1.866-0.8,3.8-0.8c1.867-0.034,3.084-0.383,3.65-1.05c-0.334-0.333-1.084-0.517-2.25-0.55
													c-1.3,0.033-2.15,0.033-2.55,0c-0.567-0.067-1.25-0.233-2.051-0.5c-0.933-0.367-1.583-0.583-1.949-0.65
													c-0.9-0.1-1.584-0.167-2.051-0.2c-0.833-0.133-1.5-0.317-2-0.55c-0.199-0.1-0.517-0.367-0.949-0.8
													c-0.601-0.1-1.2-0.217-1.801-0.35c3.5,0.667,8.817,1.3,15.95,1.9c7.566,0.633,13.4,1.65,17.5,3.05
													c6.167,2.067,12.334,4.533,18.5,7.4c0.566,0.4,1.167,0.7,1.8,0.9l3.7,1.65c1.467,1.267,3,2.283,4.601,3.05
													c0.199,0.233,0.416,0.467,0.649,0.7c-0.066,1.3-0.767,1.816-2.1,1.55c-1.634-0.3-2.5-1.317-2.601-3.05
													c-0.233-0.067-0.533-0.05-0.899,0.05c-0.467,0.1-0.767,0.15-0.9,0.15c-1.1,0-1.983-0.167-2.649-0.5
													c0.399,0.367,0.983,0.934,1.75,1.7c0.1,0.1,0.6,0.417,1.5,0.95c0.699,0.4,1.133,0.784,1.3,1.15
													c0.166,0.3,0.217,0.667,0.149,1.1c-0.033,0.233-0.116,0.6-0.25,1.1c-1.366,0.167-2.366,0.15-3-0.05
													c-0.399-0.133-0.633-0.267-0.699-0.4c0-0.267-0.034-0.55-0.101-0.85c-0.633,0.433-1.566,0.617-2.8,0.55
													c-0.566-0.033-1.566-0.183-3-0.45c-0.533-0.067-1.15-0.284-1.85-0.65c-0.733-0.433-1.301-0.733-1.7-0.9l-0.55-0.25
													c0.733,0.5,1.366,1,1.899,1.5c0.467,0.4,1.117,1.05,1.95,1.95c0.8,0.9,1.434,1.55,1.9,1.95
													c1.1,0.934,2.483,1.867,4.149,2.8c1,0.533,2.5,1.3,4.5,2.3c0.434,0.233,1.884,0.583,4.351,1.05
													c1.966,0.367,3.25,0.95,3.85,1.75c0.8,1.1,0.684,2.466-0.35,4.1c-0.434,0.667-1.4,1.783-2.9,3.351
													c-1.6,1.6-2.816,2.733-3.65,3.399c-1.633,1.3-3.1,2.066-4.399,2.3c-0.334,0.067-0.834,0.101-1.5,0.101
													c-0.9,0.033-1.384,0.05-1.45,0.05c-1.233,0.134-2.25,0.15-3.05,0.05c-1.5-0.133-1.95-0.684-1.351-1.649
													c0.2-0.334,0.983-0.867,2.351-1.601c1.1-0.633,1.666-1.366,1.7-2.2c-0.034,0.2-0.117,0.367-0.25,0.5
													c-0.167,0.167-0.301,0.301-0.4,0.4c-0.733,0.7-2.316,1.434-4.75,2.2l0.3-0.45c-0.434,0.2-0.833,0.45-1.2,0.75l-1.5,0.4
													c-2.833,0.866-6.416,1.183-10.75,0.949c1.101,0.334,1.834,0.584,2.2,0.75c0.9,0.4,1.417,0.867,1.55,1.4
													c0.067,0.233,0.067,0.684,0,1.35c-0.1,0.601-0.199,1.051-0.3,1.351c-0.399,1-1.566,1.45-3.5,1.35
													c-1.934-0.133-3.066,0.217-3.399,1.05c-0.101,0.233-0.233,1.101-0.4,2.601c-0.134,1.133-0.45,1.883-0.95,2.25
													c-0.833,0.633-2.483,0.95-4.95,0.95c-2.333,0.1-4.25,0.116-5.75,0.05c-2.8-0.167-4.433-0.851-4.899-2.05
													c0.366-0.601,1.333-1,2.899-1.2c1.867-0.267,2.967-0.483,3.301-0.65c0.533-0.267,1.05-0.717,1.55-1.35
													c0.3-0.334,0.717-0.851,1.25-1.55c-0.367,0.433-0.967,0.783-1.8,1.05c-0.301,0.066-1.017,0.233-2.15,0.5
													c-1.3,0.333-3.384,0.566-6.25,0.7c-2.934,0.199-6.566,0.183-10.9-0.051c-0.933-0.033-1.899-0.233-2.899-0.6
													c-1.134-0.434-2.033-0.783-2.7-1.05c-0.533-0.167-1.066-0.283-1.6-0.351c-0.733-0.066-1.25,0.017-1.551,0.25
													c-0.333,0.301-0.466,0.867-0.399,1.7c0.033,0.867-0.084,1.45-0.351,1.75c-1.033,0.533-3,0.783-5.899,0.75
													c-3.033-0.066-4.783-0.017-5.25,0.15l0.1-0.05l-3.05-0.9l0.55,0.15l-0.25-0.301c-0.566-0.6-1.399-1.033-2.5-1.3
													c-0.3-0.066-1.25-0.217-2.85-0.45c-2.267-0.1-4-0.199-5.2-0.3c-2.2-0.166-3.85-0.6-4.95-1.3
													c-0.367-0.233-0.833-0.6-1.4-1.1c-0.9-0.801-1.367-1.217-1.4-1.25c-1-0.934-1.767-1.634-2.3-2.101
													c-0.934-0.833-1.75-1.399-2.45-1.7c-0.633-0.267-1.9-0.399-3.8-0.399c-0.733-0.033-1.633,0-2.7,0.1
													c-1.767,0.134-2.683,0.2-2.75,0.2c-1.033,0.066-2.283,0.083-3.75,0.05c-1.7-0.066-2.967-0.116-3.8-0.149
													c-2.034-0.034-4.167-0.551-6.4-1.551c0.967,2.067,3.167,3.167,6.6,3.301c3.733,0.133,8.083-0.034,13.05-0.5
													c1.466-0.167,2.633-0.101,3.5,0.199c1.2,0.434,1.617,1.317,1.25,2.65c-0.2,0.733-0.717,1.134-1.55,1.2
													c-1.033-0.033-1.8-0.017-2.3,0.05c0.233,0.167,1.667,0.267,4.3,0.3c2,0.066,2.934,0.767,2.8,2.101L131.5,57.6
													c-1.3,1.367-2.4,2.184-3.3,2.45L125.95,60c-0.534,0-1.167,0.184-1.9,0.55l-1.45,0.3c-0.7,0.2-1.65,0.351-2.85,0.45
													c-1.633,0.101-2.583,0.167-2.85,0.2c-2.6,0.366-5.983,0.467-10.15,0.3l0.3,0.05l-2.35-0.1c-3.667-0.2-6.3-0.65-7.9-1.35
													c0.4,0.399,1.117,0.783,2.15,1.149c0.566,0.167,1.367,0.4,2.4,0.7c1.667,0.566,3.816,1.083,6.45,1.55
													c2.4,0.434,4.917,0.667,7.55,0.7c4.467,0.1,9.417-0.267,14.85-1.1c2.033-0.301,3.883-0.801,5.55-1.5
													c0.8-0.334,1.317-0.534,1.55-0.601c0.7-0.166,1.25-0.149,1.65,0.05c0.533,0.233,1.1,0.983,1.7,2.25
													c0.6,1.2,1.184,1.934,1.75,2.2l-8.15-2.85l0.2,0.2c-0.434,0.366-1.367,0.666-2.8,0.899c-2.033,0.3-4.2,0.417-6.5,0.351
													c-4.767,0.133-8.35,0.233-10.75,0.3c-4,0.1-8.2-0.167-12.6-0.8c-1.3-0.2-3.7-0.95-7.2-2.25
													c-2.934-1.134-5.383-1.65-7.35-1.551c-0.367,1.267,0.767,2.601,3.4,4c1.8,1,3.617,1.733,5.45,2.2
													c4.566,1.233,7.833,2,9.8,2.3c1.067,0.134,2.684,0.233,4.85,0.301c1.133,0.066,1.967,0.083,2.5,0.05
													c0.8-0.033,1.817-0.267,3.05-0.7c1.434-0.467,2.417-0.75,2.95-0.85c2.1-0.334,3.2,0.066,3.3,1.199
													c1,0.267,3.467,0.684,7.4,1.25c3.8,0.601,6.533,0.801,8.2,0.601c1.133-0.167,1.934-0.334,2.4-0.5
													c0.934-0.334,1.5-0.867,1.7-1.601c0.067-0.233,0.117-0.633,0.15-1.199c0-0.567,0.05-0.983,0.15-1.25
													c0.467,0.166,1.3,0.199,2.5,0.1c1.167-0.134,2.017-0.066,2.55,0.2c-0.1,0.434-0.35,1.017-0.75,1.75
													c-0.399,0.8-0.666,1.383-0.8,1.75c-0.3,0.767-0.467,1.184-0.5,1.25c-0.2,0.3-0.566,0.583-1.1,0.85
													c-1.4,0.7-3.35,1.233-5.85,1.601c-3.767,0.466-7.5,0.449-11.2-0.051l-0.5-0.05l-1.8-1.35
													c-0.733-0.533-1.434-0.834-2.1-0.9c0.4,0.566,1.167,1.2,2.3,1.9c-1.966-0.467-3.433-1.334-4.4-2.601
													c-0.467,0.233-1.167,0.367-2.1,0.4c-1.4,0.033-2.117,0.05-2.15,0.05c-3.467,0.733-6.1,1.084-7.9,1.05
													c-3.733-0.033-7.767-0.6-12.1-1.699c-0.8-0.233-1.75-0.75-2.85-1.551c-1.367-0.966-2.283-1.566-2.75-1.8
													c-1.733-0.899-2.833-1.5-3.3-1.8c-1.067-0.7-1.967-1.55-2.7-2.55c-1.2-1.767-2.05-3.334-2.55-4.7
													c0,0.366-0.083,0.9-0.25,1.6c-0.2,0.7-0.3,1.25-0.3,1.65c0,0.233,0.066,0.667,0.2,1.3c0.167,0.566,0.233,1,0.2,1.3
													c-0.967-0.899-1.7-1.583-2.2-2.05c-0.9-0.8-1.8-2.133-2.7-4c-0.3-0.666-0.567-1.133-0.8-1.399
													c-0.3-0.367-0.733-0.667-1.3-0.9c-1.2-0.267-2.117-0.483-2.75-0.65L70.35,53.2c-0.167-0.3-0.233-0.634-0.2-1
													c0.033-0.4,0.2-0.733,0.5-1c0.333-0.3,0.9-0.5,1.7-0.601c0.433-0.033,1.033-0.1,1.8-0.199
													c0.467-0.101,0.9-0.25,1.3-0.45c-1.2,0.767-1.684,1.383-1.45,1.85c0.267,0.533,1.2,0.783,2.8,0.75
													c1.1-0.033,2.083-0.149,2.95-0.35c0.4-0.101,0.95-0.25,1.65-0.45c0.567-0.134,1.15-0.2,1.75-0.2
													c1.6-0.066,2.85,0.101,3.75,0.5c0.5,0.233,1.067,0.717,1.7,1.45c0.767,0.866,1.283,1.4,1.55,1.6
													c1.767,1.434,3.467,2.4,5.1,2.9c1.467,0.434,3.25,0.7,5.35,0.8c1.2,0.101,3,0.167,5.4,0.2
													c0.833,0.066,2.05,0.167,3.65,0.3c1.367,0.101,2.567,0.05,3.6-0.149c0.233-0.567-0.083-1-0.95-1.301
													c-0.933-0.333-1.367-0.716-1.3-1.149c4.067-0.233,8.983-1.384,14.75-3.45l0.25-2c-1.4,0.434-3.083,0.684-5.05,0.75
													c-1.2,0.066-2.917,0.066-5.15,0l-8.45-0.2c-0.833,0-1.7-0.133-2.6-0.399c-0.4-0.134-1.25-0.45-2.55-0.95
													c-1.333-0.467-2.35-0.834-3.05-1.101c-1.233-0.433-2.2-0.899-2.9-1.399c-1.1-0.8-1.817-1.334-2.15-1.601
													c-0.767-1-1.233-1.5-1.4-1.5c-0.133,0-0.333,0.2-0.6,0.601c-0.3,0.434-0.6,0.684-0.9,0.75c-0.367,0.1-0.917,0.1-1.65,0
													c-0.833-0.101-1.4-0.134-1.7-0.101c-0.4,0.034-1.483,0.284-3.25,0.75c-2.434,0.434-4.217,0.834-5.35,1.2
													c0.067-0.066,0.367-0.383,0.9-0.95c0.333-0.399,0.684-0.716,1.05-0.949c0.5-0.334,1.35-0.817,2.55-1.45
													c1.033-0.601,1.783-1.184,2.25-1.75c0.467-0.634,0.883-1.566,1.25-2.8c0.1-0.167,0.55-0.6,1.35-1.3
													c0.6-0.533,0.883-1.017,0.85-1.45c-0.667-0.133-1.534-0.183-2.6-0.15c-1.2,0.033-2.083,0.033-2.65,0
													c-0.667,0-2.2-0.117-4.6-0.35c-1.467-0.1-2.3-0.167-2.5-0.2c-1.133-0.2-1.95-0.517-2.45-0.95
													c0.233,0.5,0.5,0.917,0.8,1.25c0.5,0.5,1.35,0.833,2.55,1c1.533,0.267,2.433,0.45,2.7,0.55c0,0.267-0.067,0.633-0.2,1.1
													l-0.05,0.05c-0.633,1.899-2.233,3.583-4.8,5.05c-0.2,0.033-0.517,0.05-0.95,0.05c-1.5,0.033-3.167,0-5-0.1
													c-0.567-0.033-0.934-0.084-1.1-0.15c-0.3-0.1-0.583-0.366-0.85-0.8l-0.05-0.1c0.566-0.134,1.233-0.2,2-0.2l-6.25-2.15
													c-0.4,0.267-1.067,0.384-2,0.351c-1.333,0-2.05,0-2.15,0c-2.367,0.166-3.867,0.233-4.5,0.199
													c-2.033-0.066-3.55-0.183-4.55-0.35c-0.633-0.134-1.1-0.217-1.4-0.25c-0.567-0.1-1.033-0.1-1.4,0
													c0.133,0.333,0.367,0.634,0.7,0.9H48c-2.633-0.601-4.75-1.55-6.35-2.851c-0.566-0.533-0.9-0.85-1-0.95
													c-0.133-0.2-0.217-0.467-0.25-0.8v2.1c-0.767-0.4-1.35-0.633-1.75-0.7c-0.267-0.067-0.433-0.1-0.5-0.1
													c-0.033,0-0.2,0.05-0.5,0.15c-0.333,0.333-0.7,0.567-1.1,0.7c-0.2,0.1-0.583,0.2-1.15,0.3
													c-0.533,0.067-0.9,0.167-1.1,0.3c-0.933,0.567-0.983,1.316-0.15,2.25c0.133,0.167,0.95,0.851,2.45,2.05
													c2.033,1.667,4.717,2.601,8.05,2.801c2.1,0.133,4.95-0.067,8.55-0.601l-3.25-2c0.933,0.101,1.716,0.283,2.35,0.55
													c0.434,0.167,0.684,0.317,0.75,0.45c0.034,0.101,0.083,0.417,0.15,0.95v0.05c0.167,1.7,0.167,2.967,0,3.8
													C53,51.533,52.3,52,51.1,52l1.9,0.15L48.2,51.95z M21.7,39.05c-1.034,0.7-1.383,1.65-1.05,2.851
													c-0.367-1.234,0.017-2.217,1.15-2.95c0.667-0.4,1.733-0.95,3.2-1.65c-0.3,0.2-0.85,0.483-1.65,0.85
													C22.583,38.517,22.033,38.817,21.7,39.05z M172.35,39.75c-1.133,0.3-1.883,0.533-2.25,0.7l-0.649,0.3l-0.5,0.1
													c-2.334,0.3-5.316,0.367-8.95,0.2c-1.667-0.2-2.884-0.3-3.65-0.3l-0.3-0.05l-3.3-0.6c-1.434-0.267-2.634-0.45-3.6-0.55
													c-0.9-0.066-2-0.3-3.301-0.7c-1.8-0.567-2.883-0.9-3.25-1c-1-0.233-2.267-0.367-3.8-0.4
													c-1.733,0.033-3.017,0.033-3.85,0c-2.833-0.034-6.067-0.167-9.7-0.4c4.633,0.4,9.817,1.317,15.55,2.75
													c0.967,0.233,2.367,0.684,4.2,1.351c1.4,0.433,3.184,0.767,5.35,1c1.233,0.133,3.051,0.316,5.45,0.55
													c5.101,0.6,8.834,0.934,11.2,1c0.5,0,1.75,0.1,3.75,0.3c1.533,0.167,2.767,0.2,3.7,0.1c1.366-0.1,2.85-0.683,4.45-1.75
													c0.933-0.6,2.25-1.566,3.949-2.899c1.2-0.833,2.551-1.534,4.051-2.1l13.699-4.9l-12.899,3.2l2.899-1.15L178,38.05
													l-4.2,1.05L172.35,39.75z M200.2,30c0.6-0.367,1.017-1.183,1.25-2.45c0.233-1.367,0.533-2.216,0.899-2.55l-1-0.5
													c-0.899,1.033-1.6,1.8-2.1,2.3c-0.1,0.1-0.667,0.55-1.7,1.35c-0.767,0.6-1.233,1.1-1.399,1.5
													c0.433,0.3,1.1,0.483,2,0.55C199.116,30.3,199.8,30.233,200.2,30z M211.85,21.3c1.733,0.867,3.417,1.65,5.051,2.35
													c-1.634-1.066-3.483-1.95-5.551-2.65L211.85,21.3z M209.85,18.55c1.634,0.9,2.817,1.717,3.551,2.45
													c0.566,0.567,1.116,0.95,1.649,1.15c0.5,0.167,1.184,0.233,2.05,0.2l2,2.05c2.2,0.5,3.867,0.617,5,0.35
													c0.167-0.533-0.199-1-1.1-1.4c-1.033-0.333-1.7-0.55-2-0.65c-0.6-0.233-1.184-0.583-1.75-1.05
													c-0.667-0.566-1.217-1-1.65-1.3c-0.633-0.467-1.6-0.983-2.899-1.55c-1.467-0.633-2.45-1.1-2.95-1.4
													c-0.967-0.566-2.3-1.133-4-1.7c-2.134-0.7-3.5-1.184-4.1-1.45C205.55,15.95,207.616,17.383,209.85,18.55z M206.5,39.4
													l-0.25,0.15c-0.467,0.367-0.816,0.617-1.05,0.75c-0.334,0.233-0.733,0.4-1.2,0.5c-1.366,0.034-2.333,0.2-2.9,0.5
													c-0.066,0.566,0.567,0.834,1.9,0.8c0.9,0,1.75-0.083,2.55-0.25c1.467-0.366,2.967-0.983,4.5-1.85s2.8-1.85,3.8-2.95
													l-2.25-0.3l-2.35,1.15c0.366-0.233,1.75-1.133,4.15-2.7c1.666-1.133,3.066-2,4.199-2.6l-17.25,4.6
													c-0.866,0.1-1.899,0.466-3.1,1.1c-1.3,0.767-2.283,1.284-2.95,1.55c-0.7,0.4-1.25,0.683-1.649,0.85
													c-0.614,0.355-1.147,0.538-1.601,0.55c1.496,0.001,3.712,0.051,6.65,0.15c3.033-0.034,5.767-0.601,8.2-1.7L206.5,39.4z
													 M152.6,61.35L153,60.9c0.4,0.333,1.167,0.583,2.3,0.75c0.667,0.066,1.684,0.183,3.05,0.35l-0.699,0.05
													c-1.101,0.033-2.483-0.1-4.15-0.399L152.6,61.35z M177.7,23.05c-1,0.034-2.934,0-5.8-0.1
													c-2.434-0.067-4.351-0.05-5.75,0.05c0.699,0.367,1.733,0.6,3.1,0.7c0.767,0.066,1.85,0.117,3.25,0.15l6.2,0.1
													c1.967,0.066,3.416,0.083,4.35,0.05c1.566-0.1,2.967-0.35,4.2-0.75c1.066-0.367,1.85-0.85,2.35-1.45
													c0.233-0.267,0.483-0.65,0.75-1.15c0.267-0.367,0.601-0.65,1-0.85c0.4-0.167,0.934-0.333,1.601-0.5
													c0.533-0.167,0.916-0.483,1.149-0.95c0.167-0.367,0.233-1.25,0.2-2.65c-0.033-1.1,0.217-1.867,0.75-2.3l-1.2,0.9
													c-0.6-0.466-0.966-0.45-1.1,0.05c-0.1,0.3-0.167,0.783-0.2,1.45c-0.3,0.9-1.1,1.767-2.399,2.6
													c0.199-0.467,0.399-0.816,0.6-1.05c0.6-0.6,0.983-1.05,1.15-1.35c0.199-0.4,0.366-1.017,0.5-1.85
													c0.1-0.8,0.083-2.417-0.051-4.85l-6.5,2.85c-0.3,0.067-0.55,0.233-0.75,0.5c-0.199,0.367-0.366,0.633-0.5,0.8
													c-0.6,0.966-1.05,1.7-1.35,2.2c-0.533,0.867-1.017,1.567-1.45,2.1c-0.666,0.8-1.533,1.467-2.6,2
													c-1.033,0.5-2.084,0.783-3.15,0.85c-0.566,0.066-1.3,0.083-2.2,0.05c-1.267-0.066-2-0.1-2.199-0.1
													c-2.233,0.133-3.917,0.184-5.051,0.15l-5.449-0.15c-0.467-0.033-0.834-0.066-1.101-0.1c-0.467,0-0.783,0.1-0.95,0.3
													c0.233,0.167,0.801,0.35,1.7,0.55c2.334,0.467,4.834,0.833,7.5,1.1c2.134,0.267,4.184,0.417,6.15,0.45L177.7,23.05z
													 M195.35,24.35c-1.3,0.367-3.5,1.433-6.6,3.2c-2.667,1.534-4.934,2.367-6.8,2.5c-2.533,0.167-5.783,0.184-9.75,0.05
													c-1.334,0-2.75-0.133-4.25-0.4c-0.4-0.067-1.2-0.317-2.4-0.75c-1.1-0.367-1.916-0.567-2.45-0.6
													c-0.6-0.033-1.35,0.133-2.25,0.5c-1.366,0.533-2.116,0.816-2.25,0.85c-1.533,0.4-3.583,0.85-6.149,1.35
													c-2.667,0.467-5.084,0.75-7.25,0.85c-1.467,0.033-3.383-0.017-5.75-0.15c-2.967-0.2-4.867-0.317-5.7-0.35
													c1,0.233,3.517,0.9,7.55,2c3.101,0.867,5.634,1.417,7.601,1.65c0.899,0.133,2.35,0.367,4.35,0.7
													c1.8,0.267,3.267,0.35,4.4,0.25c1.033-0.1,2.466-0.65,4.3-1.65c1.833-1.033,3.25-1.6,4.25-1.7
													c0.7-0.066,1.633,0.017,2.8,0.25c1.366,0.267,2.3,0.4,2.8,0.4c7.934,0.367,14.517-0.316,19.75-2.05
													c2.533-0.833,4.217-1.967,5.05-3.4c0.233-0.4,0.95-1.434,2.15-3.1c0.934-1.267,1.55-2.367,1.85-3.3L195.35,24.35z
													 M166.6,47.5c0.334-0.233,0.851-0.566,1.551-1c0.6-0.434,0.966-0.917,1.1-1.45c-0.434-0.233-1.4-0.35-2.9-0.35
													c-3.166-0.134-5.533-0.3-7.1-0.5c-1.1-0.167-3.233-0.351-6.4-0.55c-3.066-0.267-5.35-0.417-6.85-0.45
													c-1.267,0-2.133-0.033-2.6-0.101c-1.3-0.133-2-0.466-2.1-1l-1.75-1.05c-1.8-1.033-4.183-1.633-7.15-1.8
													c-3.367,0.033-5.85,0.017-7.45-0.05c-3.367-0.067-5.833-0.05-7.4,0.05c-2.667,0.133-5.1,0.517-7.3,1.15
													c-1.267,0.333-2.867,0.483-4.8,0.45c-2.2-0.1-3.817-0.167-4.85-0.2c-1.4-0.033-2.767-0.217-4.1-0.55
													c-0.3,1.034,0.5,2.133,2.4,3.3c1,0.6,2.367,1.283,4.1,2.05c2.4,1.333,5.783,2.233,10.15,2.7
													c2.1,0.199,4.867,0.283,8.3,0.25c4.267-0.067,7.033-0.084,8.3-0.051c0.867,0.034,1.883,0.301,3.05,0.801
													c1.8,0.8,2.784,1.216,2.95,1.25c1.667,0.566,3.55,0.966,5.65,1.199c1.4,0.167,3.333,0.301,5.8,0.4
													c3.467,0.1,7.017-0.333,10.649-1.3c0.301-0.066,0.717-0.2,1.25-0.4c0.434-0.133,0.851-0.217,1.25-0.25
													c0.467-0.033,1.184,0,2.15,0.101c0.866,0.033,1.533-0.134,2-0.5c0.2-0.167,0.533-0.517,1-1.051
													C165.934,48.1,166.3,47.733,166.6,47.5z M195,61c0.866-0.1,1.65-0.384,2.35-0.85c1.067-0.767,1.684-1.217,1.851-1.351
													c0.6-0.5,1.149-1.05,1.649-1.649c0.934-1.101,1.784-1.834,2.551-2.2c0.833-0.334,1.333-0.584,1.5-0.75
													c0.333-0.334,0.483-0.867,0.449-1.601l-2.5-0.1c-0.166,0.267-0.6,0.583-1.3,0.95c-2.233,1.233-3.833,2.2-4.8,2.899
													c-0.233,0.167-0.767,0.733-1.6,1.7c-0.601,0.667-1.233,1.117-1.9,1.351l-1.8,0.149c-0.967,0.066-1.483,0.2-1.55,0.4
													c-0.233,0.5,0.033,0.833,0.8,1c0.434,0.066,1,0.1,1.7,0.1C193.9,61.05,194.767,61.033,195,61z M201.8,51.45
													c2.634-1.5,4.65-3.017,6.05-4.55L195.6,47.85c-1.866,0.167-4.85,0.934-8.949,2.301c-3.767,1.267-6.767,1.866-9,1.8
													c-1.7-0.066-2.983-0.117-3.851-0.15c-1.533-0.033-2.816,0.05-3.85,0.25c-0.7,0.101-1.2,0.2-1.5,0.3
													c-0.533,0.2-0.65,0.5-0.351,0.9c0.267,0.333,0.851,0.65,1.75,0.95c0.067,0.033,0.717,0.217,1.95,0.55
													c1.533,0.467,3.316,0.934,5.351,1.4c3.399,0.699,6.866,1.05,10.399,1.05c2-0.033,4.467-0.783,7.4-2.25
													C196.384,54.217,198.667,53.05,201.8,51.45z M83.05,10l-2.8,0.8l-2.8,0.75l-1,0.3L76.2,11.9l-0.05,0.05
													c-0.4,0.167-1.05,0.867-1.95,2.1c-0.2,0.2-0.983,0.85-2.35,1.95c-1.033,0.833-1.733,1.55-2.1,2.15
													c-0.3,0.5-0.417,1.067-0.35,1.7c0.067,0.6,0.283,1.15,0.65,1.65c1.167,1.633,3.25,3.267,6.25,4.9
													c0.7,0.4,1.333,0.633,1.9,0.7c0.533,0.066,1.216,0.017,2.05-0.15c0.967-0.167,1.8-0.517,2.5-1.05
													c0.1-0.066,0.333-0.3,0.7-0.7c0.3-0.333,0.566-0.534,0.8-0.6c0.467-0.167,1.083-0.167,1.85,0
													c0.433,0.1,1.033,0.267,1.8,0.5c1.567,0.4,3.217,0.617,4.95,0.65c7.233,0.233,13.5,0.2,18.8-0.1
													c1.167-0.066,2.967-0.183,5.4-0.35c2.1-0.2,3.85-0.533,5.25-1c0.667-0.233,1.083-0.4,1.25-0.5
													c0.4-0.2,0.717-0.483,0.95-0.85c-0.467-0.133-1.183-0.133-2.15,0c-1.434,0.167-2.167,0.25-2.2,0.25
													c-3.066,0.1-5.833,0.066-8.3-0.1c-3.667-0.2-6.4-0.35-8.2-0.45c-3.267-0.2-6.017-0.483-8.25-0.85
													c-5.5-0.966-10.7-2.483-15.6-4.55c-1.367-0.633-2.066-0.967-2.1-1c-0.6-0.4-0.95-1.033-1.05-1.9
													c-0.066-0.633,0.067-1.3,0.4-2c0.434,0.967,1.6,2,3.5,3.1c1.367,0.8,3.2,1.417,5.5,1.85c1.3,0.267,3.217,0.567,5.75,0.9
													c2.867,0.466,6.417,0.767,10.65,0.9c2.367,0.1,5.917,0.217,10.65,0.35c-5.067-0.633-8.867-1.15-11.4-1.55
													c-4.467-0.733-8.184-1.717-11.15-2.95l1.35-0.05c-0.3-0.3-0.767-0.55-1.4-0.75c-0.733-0.233-1.267-0.4-1.6-0.5
													c-1.3-0.433-2.383-0.867-3.25-1.3L85.3,11.8c-0.267-0.6-0.167-1.25,0.3-1.95c0.267-0.367,0.767-0.9,1.5-1.6
													c-1.2,0.733-2.167,1.2-2.9,1.4L83.05,10z M136,23.5c-2.833-0.133-5.767,0.8-8.8,2.8c-1.367,0.867-3.184,1.5-5.45,1.9
													c-1.5,0.267-3.733,0.383-6.7,0.35c-3.033,0-5.267,0.117-6.7,0.35c0.933,0.4,2.133,0.65,3.6,0.75
													c0.367,0.033,1.617,0.067,3.75,0.1c0.9,0.033,2.267,0.083,4.1,0.15c1.6,0.033,2.934-0.05,4-0.25
													c3.167-0.667,4.85-1.017,5.05-1.05c0.2-0.067,1.117-0.35,2.75-0.85c1.066-0.333,1.983-0.55,2.75-0.65
													c2.333-0.233,5.117-0.3,8.35-0.2c3.267,0.067,5.517,0.033,6.75-0.1c0.3-0.033,0.833-0.167,1.6-0.4
													c0.667-0.167,1.2-0.267,1.601-0.3l-1.801-0.05c-0.399,0-0.833-0.083-1.3-0.25c-0.5-0.2-0.916-0.367-1.25-0.5
													c-3.133-1.033-5.466-1.517-7-1.45L136,23.5z M120.15,58.85c0.233,0.067,0.633,0.084,1.2,0.051
													c0.733,0.033,1.75,0.066,3.05,0.1c1.067-0.1,1.934-0.517,2.6-1.25l0.25-1c-0.6-0.066-2.017,0.1-4.25,0.5
													c-2.3,0.366-3.467,0.65-3.5,0.85C119.467,58.533,119.683,58.783,120.15,58.85z M161.5,57.7c0.4-0.267,1-0.717,1.8-1.351
													l-4.25-1.1c-1.1,0.434-2.75,0.55-4.95,0.35c-1.633-0.199-3.283-0.3-4.949-0.3c-0.767-0.1-1.434-0.166-2-0.2
													c-1.101-0.033-1.717,0.084-1.851,0.351c0.233,0.2,0.783,0.45,1.65,0.75c1.399,0.5,4.116,1.166,8.149,2
													c1.934,0.333,3.417,0.45,4.45,0.35C160.15,58.483,160.8,58.2,161.5,57.7z M56.15,22.65
													c-0.667,0.367-1.133,0.667-1.4,0.9c-0.467,0.367-0.667,0.85-0.6,1.45c0.1,0.667,0.6,1.45,1.5,2.35
													c0.067,0.066,0.8,0.7,2.2,1.9c2.033,1.767,4.167,2.9,6.4,3.4c-0.067,0.2-0.85,0.65-2.35,1.35
													c-0.967,0.467-0.95,1.117,0.05,1.95c0.767,0.633,2.017,1.483,3.75,2.55c0.367,0.267,0.966,0.667,1.8,1.2
													c0.7,0.466,1.333,0.767,1.9,0.9c0.833,0.233,2.5,0.383,5,0.45c0.9,0.066,1.383,0.084,1.45,0.05
													c0.6-0.033,0.967-0.266,1.1-0.7c0.133-0.5-0.017-1.15-0.45-1.95c-0.333-0.567-1.133-1.333-2.4-2.3
													c-1.133-0.867-1.833-1.717-2.1-2.55c-0.167-0.767-0.3-1.3-0.4-1.6c-0.167-0.5-0.45-1.033-0.85-1.6
													c-1.133-1.566-1.9-2.4-2.3-2.5l-6.25-3.15c-0.7-0.233-1.45-0.75-2.25-1.55c-0.8-0.867-1.25-1.65-1.35-2.35
													c-0.434-0.033-0.883,0.183-1.35,0.65C56.783,22.067,56.417,22.45,56.15,22.65z M54.7,30.35
													c-2.167,0.233-3.917,0.517-5.25,0.85c-2.534,0.667-3.817,1.716-3.85,3.15c-0.033,1,0.816,2.133,2.55,3.4
													c1.233,0.9,2.517,1.633,3.85,2.2c1.333,0.566,3.3,0.883,5.9,0.95c0.767,0.033,1.3-0.017,1.6-0.15
													c0.5-0.2,0.733-0.633,0.7-1.3c-0.034-0.4-0.317-0.784-0.85-1.15c-0.7-0.367-1.184-0.65-1.45-0.85
													c-2.2-1.534-3.35-2.35-3.45-2.45c-1.434-1.233-2.017-2.383-1.75-3.45L54.7,30.35z M66.45,41.35
													c-0.133-0.066-0.333-0.05-0.6,0.051c-0.267,0.1-0.467,0.166-0.6,0.199l-0.7,0.051L67.3,42.6
													C67.033,41.9,66.75,41.483,66.45,41.35z M37.05,31.5l-0.2,0.2c-0.4,0.3-0.95,0.6-1.65,0.9
													c-0.833,0.333-1.4,0.583-1.7,0.75c0.133-0.1,0.233-0.167,0.3-0.2c0.467-0.233,1.184-0.583,2.15-1.05L37.05,31.5z
													 M36.1,34.6l-3.55,3.2c0.6-0.3,1.15-0.7,1.65-1.2L36.1,34.6z"/>
												<path style="fill-rule:evenodd;clip-rule:evenodd;fill:#76654E;" d="M30.15,35.05c-0.667,0.067-1.183,0.083-1.55,0.05
													c-0.033,0-0.067,0-0.1,0c0.467-0.267,0.9-0.517,1.3-0.75L33,32.4c0.233-0.167,0.45-0.316,0.65-0.45
													c0.146-0.094,0.288-0.186,0.425-0.275l0.375-0.25c0.189-0.127,0.372-0.252,0.55-0.375l3.35-2.75
													c1.133-1.066,2.633-2.017,4.5-2.85c0.433-0.233,2.05-0.9,4.85-2c0.566-0.233,1.316-0.633,2.25-1.2
													c1.066-0.6,1.833-1.017,2.3-1.25h0.05l0.125-0.05c0.496-0.211,1.538-0.562,3.125-1.05c-0.633,1.4-1.517,2.383-2.65,2.95
													C52.833,22.883,52.533,23,52,23.2c-0.267,0.1-0.517,0.283-0.75,0.55l-0.3,0.45c-0.2,0.4-0.383,0.683-0.55,0.85
													c-0.433,0.434-1.033,0.733-1.8,0.9c-1.133,0.267-1.8,0.433-2,0.5c-0.533,0.233-1.167,0.7-1.9,1.4
													c-0.767,0.733-1.367,1.217-1.8,1.45c-0.533,0.3-1.333,0.6-2.4,0.9l-1,0.25c-0.767,0.167-1.583,0.517-2.45,1.05l-1.1,0.6
													c-0.967,0.467-1.684,0.816-2.15,1.05c-0.066,0.033-0.167,0.1-0.3,0.2c-0.467,0.4-0.817,0.683-1.05,0.85l-0.55,0.4
													c-0.333,0.2-0.9,0.35-1.7,0.45H30.15z M113.7,12.6c-1.534-0.333-2.75-0.684-3.65-1.05c-1.167-0.433-2.25-1.05-3.25-1.85
													c-0.633-0.534-1.583-0.934-2.85-1.2c-1.6-0.3-3.4-0.567-5.4-0.8c-2-0.133-3.5-0.284-4.5-0.45
													c-0.433-0.233-0.667-0.383-0.7-0.45l0.2-0.65c1.434-0.933,2.983-1.8,4.65-2.6l3.25-1.5c2.1-0.8,3.95-1.3,5.55-1.5
													l-0.1-0.3l-0.05-0.05c0.833-0.133,1.867-0.2,3.1-0.2l21.2,0.35c1.467,0.033,2.867,0.066,4.2,0.1l9.45,0.2
													c1.2,0,2.467,0.017,3.8,0.05c1.4,0.066,2.75,0.15,4.051,0.25L162.7,1.9c0.1,0,0.217,0.017,0.35,0.05
													c0.2,0.033,0.4,0.066,0.601,0.1l1.699,0.25c0.167,0.034,0.351,0.067,0.551,0.1l0.199,0.2
													c0.967,1.066,1.034,1.983,0.2,2.75c-0.7,0.667-1.7,1.017-3,1.05c-2.233,0.033-5.017-0.017-8.35-0.15
													c-5.566-0.2-8.367-0.3-8.4-0.3c-2.033-0.067-3.566-0.117-4.6-0.15c-1.833-0.066-3.367-0.033-4.6,0.1
													c-0.9,0.1-1.633,0.2-2.2,0.3c-1.066,0.167-1.75,0.4-2.05,0.7c1.633,0.967,3.55,1.717,5.75,2.25
													c0.967,0.267,2.983,0.65,6.05,1.15c0.933,0.167,1.517,0.3,1.75,0.4c0.666,0.267,0.866,0.683,0.6,1.25
													c-1.2,0.267-3.116,0.066-5.75-0.6c-2.533-0.633-4.433-0.767-5.7-0.4l-1.15,0.4c-2,0.066-3.8,0.417-5.4,1.05
													c-0.467,0.233-0.817,0.4-1.05,0.5c-0.4,0.133-0.8,0.184-1.2,0.15c-4.133-0.833-7.267-1.25-9.4-1.25
													c0.3,0.034,1.333,0.133,3.1,0.3c1.6,0.3,2.283,0.816,2.05,1.55c-1.233,0.133-2.75,0.05-4.55-0.25
													C116.2,13,114.7,12.733,113.7,12.6z M209.85,18.55c-2.233-1.167-4.3-2.6-6.199-4.3c0.6,0.267,1.966,0.75,4.1,1.45
													c1.7,0.566,3.033,1.133,4,1.7c0.5,0.3,1.483,0.767,2.95,1.4c1.3,0.567,2.267,1.083,2.899,1.55
													c0.434,0.3,0.983,0.733,1.65,1.3c0.566,0.467,1.15,0.817,1.75,1.05c0.3,0.1,0.967,0.316,2,0.65
													c0.9,0.4,1.267,0.867,1.1,1.4c-1.133,0.267-2.8,0.15-5-0.35l-2-2.05c-0.866,0.033-1.55-0.033-2.05-0.2
													c-0.533-0.2-1.083-0.583-1.649-1.15C212.667,20.267,211.483,19.45,209.85,18.55z M209.25,37.9l2.35-1.15l2.25,0.3
													c-1,1.1-2.267,2.083-3.8,2.95s-3.033,1.483-4.5,1.85c-0.8,0.167-1.649,0.25-2.55,0.25c-1.333,0.034-1.967-0.233-1.9-0.8
													c0.567-0.3,1.534-0.466,2.9-0.5c0.467-0.1,0.866-0.267,1.2-0.5c0.233-0.133,0.583-0.383,1.05-0.75l0.25-0.15
													C207.066,39,207.983,38.5,209.25,37.9z M190.15,18.4c-0.2,0.533-0.417,0.9-0.65,1.1c-0.2,0.167-0.566,0.333-1.1,0.5
													c-0.534,0.167-0.9,0.317-1.101,0.45c-0.533,0.566-0.967,0.966-1.3,1.2c-0.967,0.733-2.25,1.2-3.85,1.4
													c-1.101,0.133-2.584,0.133-4.45,0l-3.25-0.2c-1.967-0.033-4.017-0.184-6.15-0.45c-2.666-0.267-5.166-0.633-7.5-1.1
													c-0.899-0.2-1.467-0.383-1.7-0.55c0.167-0.2,0.483-0.3,0.95-0.3c0.267,0.033,0.634,0.066,1.101,0.1l5.449,0.15
													c1.134,0.033,2.817-0.017,5.051-0.15c0.199,0,0.933,0.034,2.199,0.1c0.9,0.033,1.634,0.017,2.2-0.05
													c1.066-0.067,2.117-0.35,3.15-0.85c1.066-0.533,1.934-1.2,2.6-2c0.434-0.533,0.917-1.233,1.45-2.1
													c0.3-0.5,0.75-1.233,1.35-2.2c0.134-0.167,0.301-0.434,0.5-0.8c0.2-0.267,0.45-0.433,0.75-0.5l6.5-2.85
													c0.134,2.434,0.15,4.05,0.051,4.85c-0.134,0.833-0.301,1.45-0.5,1.85c-0.167,0.3-0.551,0.75-1.15,1.35
													C190.55,17.583,190.35,17.933,190.15,18.4z M195.35,24.35l5.25-2.9c-0.3,0.933-0.916,2.033-1.85,3.3
													c-1.2,1.667-1.917,2.7-2.15,3.1c-0.833,1.433-2.517,2.566-5.05,3.4c-5.233,1.733-11.816,2.417-19.75,2.05
													c-0.5,0-1.434-0.133-2.8-0.4c-1.167-0.233-2.1-0.316-2.8-0.25c-1,0.1-2.417,0.667-4.25,1.7
													c-1.834,1-3.267,1.55-4.3,1.65c-1.134,0.1-2.601,0.017-4.4-0.25c-2-0.333-3.45-0.567-4.35-0.7
													c-1.967-0.233-4.5-0.783-7.601-1.65c-4.033-1.1-6.55-1.767-7.55-2c0.833,0.033,2.733,0.15,5.7,0.35
													c2.367,0.133,4.283,0.183,5.75,0.15c2.166-0.1,4.583-0.383,7.25-0.85c2.566-0.5,4.616-0.95,6.149-1.35
													c0.134-0.034,0.884-0.317,2.25-0.85c0.9-0.367,1.65-0.533,2.25-0.5c0.534,0.033,1.351,0.233,2.45,0.6
													c1.2,0.433,2,0.683,2.4,0.75c1.5,0.267,2.916,0.4,4.25,0.4c3.967,0.133,7.217,0.117,9.75-0.05
													c1.866-0.133,4.133-0.966,6.8-2.5C191.85,25.783,194.05,24.717,195.35,24.35z M166.6,47.5c-0.3,0.233-0.666,0.6-1.1,1.1
													c-0.467,0.534-0.8,0.884-1,1.051c-0.467,0.366-1.134,0.533-2,0.5c-0.967-0.101-1.684-0.134-2.15-0.101
													c-0.399,0.033-0.816,0.117-1.25,0.25c-0.533,0.2-0.949,0.334-1.25,0.4c-3.633,0.967-7.183,1.399-10.649,1.3
													c-2.467-0.1-4.4-0.233-5.8-0.4c-2.1-0.233-3.983-0.633-5.65-1.199c-0.167-0.034-1.15-0.45-2.95-1.25
													c-1.167-0.5-2.183-0.767-3.05-0.801c-1.267-0.033-4.033-0.017-8.3,0.051c-3.434,0.033-6.2-0.051-8.3-0.25
													c-4.367-0.467-7.75-1.367-10.15-2.7c-1.733-0.767-3.1-1.45-4.1-2.05c-1.9-1.167-2.7-2.267-2.4-3.3
													c1.333,0.333,2.7,0.517,4.1,0.55c1.033,0.033,2.65,0.1,4.85,0.2c1.933,0.033,3.533-0.117,4.8-0.45
													c2.2-0.633,4.633-1.017,7.3-1.15c1.567-0.1,4.034-0.117,7.4-0.05c1.6,0.066,4.083,0.083,7.45,0.05
													c2.967,0.167,5.35,0.767,7.15,1.8l1.75,1.05c0.1,0.534,0.8,0.867,2.1,1c0.467,0.067,1.333,0.101,2.6,0.101
													c1.5,0.033,3.783,0.184,6.85,0.45c3.167,0.199,5.301,0.383,6.4,0.55c1.566,0.2,3.934,0.366,7.1,0.5
													c1.5,0,2.467,0.116,2.9,0.35c-0.134,0.533-0.5,1.017-1.1,1.45C167.45,46.934,166.934,47.267,166.6,47.5z M201.8,51.45
													c-3.133,1.6-5.416,2.767-6.85,3.5c-2.934,1.467-5.4,2.217-7.4,2.25c-3.533,0-7-0.351-10.399-1.05
													c-2.034-0.467-3.817-0.934-5.351-1.4c-1.233-0.333-1.883-0.517-1.95-0.55c-0.899-0.3-1.483-0.617-1.75-0.95
													c-0.3-0.4-0.183-0.7,0.351-0.9c0.3-0.1,0.8-0.199,1.5-0.3c1.033-0.2,2.316-0.283,3.85-0.25
													c0.867,0.033,2.15,0.084,3.851,0.15c2.233,0.066,5.233-0.533,9-1.8c4.1-1.367,7.083-2.134,8.949-2.301l12.25-0.949
													C206.45,48.434,204.434,49.95,201.8,51.45z M195,61c-0.233,0.033-1.1,0.05-2.6,0.05c-0.7,0-1.267-0.033-1.7-0.1
													c-0.767-0.167-1.033-0.5-0.8-1c0.066-0.2,0.583-0.334,1.55-0.4l1.8-0.149c0.667-0.233,1.3-0.684,1.9-1.351
													c0.833-0.967,1.366-1.533,1.6-1.7c0.967-0.699,2.566-1.666,4.8-2.899c0.7-0.367,1.134-0.684,1.3-0.95l2.5,0.1
													c0.034,0.733-0.116,1.267-0.449,1.601c-0.167,0.166-0.667,0.416-1.5,0.75c-0.767,0.366-1.617,1.1-2.551,2.2
													c-0.5,0.6-1.05,1.149-1.649,1.649c-0.167,0.134-0.783,0.584-1.851,1.351C196.65,60.616,195.866,60.9,195,61z
													 M77.45,11.55l-0.4,0.8c-0.333,0.7-0.466,1.367-0.4,2c0.1,0.867,0.45,1.5,1.05,1.9c0.033,0.033,0.733,0.367,2.1,1
													c4.9,2.067,10.1,3.583,15.6,4.55c2.233,0.367,4.983,0.65,8.25,0.85c1.8,0.1,4.533,0.25,8.2,0.45
													c2.467,0.167,5.233,0.2,8.3,0.1c0.033,0,0.767-0.083,2.2-0.25c0.967-0.133,1.683-0.133,2.15,0
													c-0.233,0.367-0.55,0.65-0.95,0.85c-0.167,0.1-0.583,0.267-1.25,0.5c-1.4,0.467-3.15,0.8-5.25,1
													c-2.433,0.167-4.233,0.284-5.4,0.35c-5.3,0.3-11.566,0.333-18.8,0.1c-1.733-0.033-3.383-0.25-4.95-0.65
													c-0.767-0.233-1.367-0.4-1.8-0.5c-0.767-0.167-1.383-0.167-1.85,0c-0.233,0.066-0.5,0.267-0.8,0.6
													c-0.367,0.4-0.6,0.633-0.7,0.7c-0.7,0.533-1.533,0.883-2.5,1.05c-0.833,0.167-1.517,0.216-2.05,0.15
													c-0.567-0.067-1.2-0.3-1.9-0.7c-3-1.633-5.083-3.267-6.25-4.9c-0.367-0.5-0.583-1.05-0.65-1.65
													c-0.066-0.633,0.05-1.2,0.35-1.7c0.367-0.6,1.067-1.316,2.1-2.15c1.367-1.1,2.15-1.75,2.35-1.95
													c0.9-1.233,1.55-1.933,1.95-2.1l0.05-0.05l0.25-0.05L77.45,11.55z M49.95,44.8l3.25,2c-3.6,0.533-6.45,0.733-8.55,0.601
													c-3.333-0.2-6.017-1.134-8.05-2.801c-1.5-1.199-2.317-1.883-2.45-2.05c-0.833-0.934-0.783-1.683,0.15-2.25
													c0.2-0.133,0.567-0.233,1.1-0.3c0.567-0.1,0.95-0.2,1.15-0.3c0.4-0.133,0.767-0.367,1.1-0.7
													c0.3-0.1,0.467-0.15,0.5-0.15c0.067,0,0.233,0.033,0.5,0.1c0.4,0.066,0.983,0.3,1.75,0.7l1.4,0.75
													c0.467,0.233,1.633,0.917,3.5,2.05c1.434,0.866,2.65,1.45,3.65,1.75L49.95,44.8z M79.25,48.05
													c1.133-0.366,2.917-0.767,5.35-1.2c1.767-0.466,2.85-0.716,3.25-0.75c0.3-0.033,0.867,0,1.7,0.101
													c0.733,0.1,1.284,0.1,1.65,0c0.3-0.066,0.6-0.316,0.9-0.75c0.267-0.4,0.467-0.601,0.6-0.601c0.167,0,0.633,0.5,1.4,1.5
													c0.333,0.267,1.05,0.801,2.15,1.601c0.7,0.5,1.667,0.967,2.9,1.399c0.7,0.267,1.717,0.634,3.05,1.101
													c1.3,0.5,2.15,0.816,2.55,0.95c0.9,0.267,1.767,0.399,2.6,0.399l8.45,0.2c2.233,0.066,3.95,0.066,5.15,0
													c1.966-0.066,3.65-0.316,5.05-0.75l-0.25,2c-5.767,2.066-10.683,3.217-14.75,3.45c-0.067,0.434,0.367,0.816,1.3,1.149
													c0.867,0.301,1.184,0.733,0.95,1.301c-1.033,0.199-2.233,0.25-3.6,0.149c-1.6-0.133-2.816-0.233-3.65-0.3
													c-2.4-0.033-4.2-0.1-5.4-0.2c-2.1-0.1-3.883-0.366-5.35-0.8c-1.633-0.5-3.333-1.467-5.1-2.9
													c-0.267-0.199-0.783-0.733-1.55-1.6c-0.633-0.733-1.2-1.217-1.7-1.45c-0.9-0.399-2.15-0.566-3.75-0.5
													c-0.6,0-1.183,0.066-1.75,0.2c-0.7,0.2-1.25,0.35-1.65,0.45c-0.867,0.2-1.85,0.316-2.95,0.35
													c-1.6,0.033-2.533-0.217-2.8-0.75c-0.233-0.467,0.25-1.083,1.45-1.85c1.367-0.867,2.533-1.467,3.5-1.8L79.25,48.05z
													 M120.15,58.85c-0.467-0.066-0.683-0.316-0.65-0.75c0.033-0.199,1.2-0.483,3.5-0.85c2.233-0.4,3.65-0.566,4.25-0.5
													l-0.25,1c-0.667,0.733-1.533,1.15-2.6,1.25c-1.3-0.033-2.316-0.066-3.05-0.1
													C120.783,58.934,120.383,58.917,120.15,58.85z M142.55,65.9c-0.1,0.267-0.15,0.683-0.15,1.25
													c-0.033,0.566-0.083,0.966-0.15,1.199c-0.2,0.733-0.767,1.267-1.7,1.601c-0.466,0.166-1.267,0.333-2.4,0.5
													c-1.667,0.2-4.4,0-8.2-0.601c-3.934-0.566-6.4-0.983-7.4-1.25c-0.1-1.133-1.2-1.533-3.3-1.199
													c-0.533,0.1-1.517,0.383-2.95,0.85c-1.233,0.434-2.25,0.667-3.05,0.7c-0.533,0.033-1.367,0.017-2.5-0.05
													c-2.167-0.067-3.783-0.167-4.85-0.301c-1.967-0.3-5.233-1.066-9.8-2.3c-1.833-0.467-3.65-1.2-5.45-2.2
													c-2.633-1.399-3.767-2.733-3.4-4c1.967-0.1,4.417,0.417,7.35,1.551c3.5,1.3,5.9,2.05,7.2,2.25
													c4.4,0.633,8.6,0.899,12.6,0.8c2.4-0.066,5.983-0.167,10.75-0.3c2.3,0.066,4.467-0.051,6.5-0.351
													c1.434-0.233,2.367-0.533,2.8-0.899l-0.2-0.2l8.15,2.85L142.55,65.9z M161.5,57.7c-0.7,0.5-1.35,0.783-1.95,0.85
													c-1.033,0.101-2.517-0.017-4.45-0.35c-4.033-0.834-6.75-1.5-8.149-2c-0.867-0.3-1.417-0.55-1.65-0.75
													c0.134-0.267,0.75-0.384,1.851-0.351c0.566,0.034,1.233,0.101,2,0.2c1.666,0,3.316,0.101,4.949,0.3
													c2.2,0.2,3.851,0.084,4.95-0.35l4.25,1.1C162.5,56.983,161.9,57.434,161.5,57.7z M54.7,30.35l-2,1.2
													c-0.267,1.067,0.316,2.217,1.75,3.45c0.1,0.1,1.25,0.917,3.45,2.45c0.267,0.2,0.75,0.483,1.45,0.85
													c0.533,0.367,0.816,0.75,0.85,1.15c0.033,0.667-0.2,1.1-0.7,1.3c-0.3,0.133-0.833,0.183-1.6,0.15
													c-2.6-0.066-4.566-0.383-5.9-0.95c-1.333-0.567-2.617-1.3-3.85-2.2c-1.733-1.267-2.583-2.4-2.55-3.4
													c0.033-1.434,1.316-2.483,3.85-3.15C50.783,30.867,52.533,30.583,54.7,30.35z M56.15,22.65
													c0.267-0.2,0.633-0.583,1.1-1.15c0.467-0.467,0.917-0.683,1.35-0.65c0.1,0.7,0.55,1.483,1.35,2.35
													c0.8,0.8,1.55,1.316,2.25,1.55l6.25,3.15c0.4,0.1,1.167,0.934,2.3,2.5c0.4,0.567,0.683,1.1,0.85,1.6
													c0.1,0.3,0.233,0.833,0.4,1.6c0.267,0.833,0.967,1.683,2.1,2.55c1.267,0.967,2.066,1.733,2.4,2.3
													c0.433,0.8,0.583,1.45,0.45,1.95c-0.133,0.434-0.5,0.667-1.1,0.7c-0.067,0.034-0.55,0.017-1.45-0.05
													c-2.5-0.066-4.167-0.216-5-0.45c-0.566-0.133-1.2-0.434-1.9-0.9c-0.833-0.534-1.433-0.934-1.8-1.2
													c-1.733-1.067-2.983-1.917-3.75-2.55c-1-0.833-1.017-1.483-0.05-1.95c1.5-0.7,2.283-1.15,2.35-1.35
													c-2.233-0.5-4.367-1.633-6.4-3.4c-1.4-1.2-2.133-1.833-2.2-1.9c-0.9-0.9-1.4-1.684-1.5-2.35
													c-0.066-0.6,0.133-1.083,0.6-1.45C55.017,23.317,55.483,23.017,56.15,22.65z"/>
											</g>
										</g>
									</g>
								</g>
							</g>
						</g>
					</g>
				</g>
			</g>
		</g>
	</g>
</g>
</svg>
