<?xml version="1.0" encoding="iso-8859-1"?>
<!-- Generator: Adobe Illustrator 15.1.0, SVG Export Plug-In . SVG Version: 6.00 Build 0)  -->
<!DOCTYPE svg PUBLIC "-//W3C//DTD SVG 1.1//EN" "http://www.w3.org/Graphics/SVG/1.1/DTD/svg11.dtd">
<svg version="1.1" id="FlashAICB" xmlns="http://www.w3.org/2000/svg" xmlns:xlink="http://www.w3.org/1999/xlink" x="0px" y="0px"
	 width="143.6px" height="326.8px" viewBox="0 0 143.6 326.8" style="enable-background:new 0 0 143.6 326.8;" xml:space="preserve"
	>
<g>
	<g>
		
			<radialGradient id="SVGID_1_" cx="69.1499" cy="215.0498" r="186.45" gradientTransform="matrix(1 0 0 -0.9157 0 411.9625)" gradientUnits="userSpaceOnUse">
			<stop  offset="0.1333" style="stop-color:#211C15"/>
			<stop  offset="0.8471" style="stop-color:#211C15;stop-opacity:0"/>
		</radialGradient>
		<path style="fill-rule:evenodd;clip-rule:evenodd;fill:url(#SVGID_1_);" d="M109.7,286.3c0.267,0.066,1.3,0.15,3.1,0.25
			c1.5,0.101,2.55,0.283,3.15,0.55c0.2,0.101,0.467,0.317,0.8,0.65s0.583,0.55,0.75,0.65c1.134,0.666,3,1.5,5.6,2.5
			c0.601,0.233,1.5,0.566,2.7,1c0.601,0.267,1.033,0.517,1.3,0.75c0.167,0.133,0.467,0.416,0.9,0.85
			c0.533,0.533,1.417,1.217,2.65,2.05c0.866,0.733,1,1.55,0.399,2.45c-0.366,0.566-1.416,1.184-3.149,1.85
			c-1.434,0.567-2.134,1.334-2.101,2.301c0,0.833,0.617,1.949,1.851,3.35c0.666,0.733,1.6,1.75,2.8,3.05
			c0.366,0.467,1.25,1.45,2.649,2.95c1.2,1.267,2.034,2.267,2.5,3c1,1.6,0.95,2.884-0.149,3.85c-0.733,0.667-2.134,1.233-4.2,1.7
			c-0.333,0.066-1.366,0.167-3.1,0.3c-1.301,0.101-2.284,0.317-2.95,0.65c-0.467,0.233-0.95,0.667-1.45,1.3
			c-0.533,0.7-0.983,1.167-1.35,1.4c-0.667,0.434-1.551,0.684-2.65,0.75c-1.267,0-2.217,0.017-2.85,0.05
			c-0.634,0.066-1.917,0.267-3.851,0.6c-1.633,0.334-2.967,0.483-4,0.45c-1.399,0-3.467-0.35-6.2-1.05c-2.699-0.667-4.783-1-6.25-1
			c-1.333-0.033-2.333-0.05-3-0.05c-1.166,0.033-2.133,0.184-2.899,0.45c-0.4,0.133-0.917,0.416-1.55,0.85
			c-0.7,0.467-1.217,0.767-1.551,0.9c-0.833,0.333-2.116,0.5-3.85,0.5c-1.934,0-3.267,0.083-4,0.25
			c-2.366,0.566-4.85,0.55-7.45-0.051c-1.066-0.233-3.466-1.017-7.2-2.35c-1.367-0.467-2.8-0.767-4.3-0.9
			c-0.867-0.066-2.367-0.1-4.5-0.1c-0.933,0.033-2.066-0.116-3.4-0.45c-1.433-0.333-2.517-0.517-3.25-0.55
			c-1.233-0.033-2.7,0.1-4.4,0.4c-2.367,0.399-3.783,0.616-4.25,0.649c-1.633,0.167-3.483,0.134-5.55-0.1
			c-1.967-0.2-3.75-0.55-5.35-1.05c-0.8-0.267-3.033-1.217-6.7-2.851c-2.633-1.166-4.933-1.833-6.9-2
			c-0.867-0.066-2.183-0.217-3.95-0.45c-1.767-0.233-3.066-0.383-3.9-0.449c-0.233-0.034-0.95-0.017-2.15,0.05
			c-1,0.033-1.7-0.017-2.1-0.15c-0.267-0.1-0.55-0.333-0.85-0.7c-0.333-0.399-0.617-0.649-0.85-0.75c-0.3-0.133-0.8-0.166-1.5-0.1
			c-0.534,0.033-0.934-0.116-1.2-0.45c1.067-1.133,3.183-1.983,6.35-2.55c3.167-0.6,5.267-1.467,6.3-2.6
			c0.934-1.034,1.167-1.817,0.7-2.351c-0.4-0.434-1.35-0.783-2.85-1.05c-1.5-0.3-2.667-0.533-3.5-0.7c-1.5-0.3-2.65-0.416-3.45-0.35
			c0.3-0.7,1.15-1.217,2.55-1.55c0.767-0.2,1.85-0.45,3.25-0.75c0.733-0.267,1.783-0.65,3.15-1.15c1.167-0.434,2.167-0.884,3-1.35
			c2.9-1.434,5.067-2.584,6.5-3.45c2.467-1.467,4.267-3.033,5.4-4.7l57.85-10c3.967,0,8.417,0.167,13.35,0.5
			c1.867,0.134,3.051,0.25,3.551,0.35c1.5,0.2,2.616,0.551,3.35,1.051c0.4,0.267,0.967,0.833,1.7,1.699
			C107.667,285.667,108.5,286.066,109.7,286.3z"/>
		
			<radialGradient id="SVGID_2_" cx="70.0498" cy="235.5" r="132.575" gradientTransform="matrix(1 0 0 -0.9157 0 451.1493)" gradientUnits="userSpaceOnUse">
			<stop  offset="0.3255" style="stop-color:#3F3932"/>
			<stop  offset="0.4627" style="stop-color:#352F28;stop-opacity:0.6588"/>
			<stop  offset="0.7451" style="stop-color:#26211A;stop-opacity:0.1569"/>
			<stop  offset="1" style="stop-color:#211C15;stop-opacity:0"/>
		</radialGradient>
		<path style="fill-rule:evenodd;clip-rule:evenodd;fill:url(#SVGID_2_);" d="M84.2,275c1.233-0.066,2.783,0.033,4.649,0.3
			c1.034,0.167,2.567,0.4,4.601,0.7c2.666,0.333,4.616,0.616,5.85,0.85c2.101,0.4,3.967,0.95,5.601,1.65
			c0.666,0.3,1.6,0.684,2.8,1.15c1,0.466,1.85,1,2.55,1.6c0.967,0.833,2.3,2.267,4,4.3c1.967,2,3.233,3.233,3.8,3.7
			c1.601,1.3,3.2,2.083,4.8,2.35c0.467,1.2-0.05,2.067-1.55,2.601c-1.899,0.366-3.133,0.684-3.7,0.95
			c-1.533,0.733-1.899,1.733-1.1,3c0.5,0.733,1.483,1.833,2.95,3.3c1.033,1.267,1.767,2.583,2.2,3.95
			c0.366,1.1,0.616,2.566,0.75,4.399c0.066,0.667,0.517,1.783,1.35,3.351c0.733,1.3,0.983,2.399,0.75,3.3
			c-0.9-0.101-1.934,0.1-3.1,0.6c0,0.033-0.934,0.533-2.801,1.5c-1.366,0.7-2.8,1.134-4.3,1.3c-0.8,0.101-2.316,0.15-4.55,0.15
			c-1.033,0.033-2.616-0.033-4.75-0.2c-2.066-0.133-3.65-0.184-4.75-0.149c-2.866,0-5.517-0.217-7.95-0.65
			c-0.566-0.1-2.399-0.283-5.5-0.55c-2.3-0.2-4.083-0.5-5.35-0.9c-1.066-0.399-1.851-0.684-2.351-0.85
			c-0.866-0.267-1.683-0.3-2.449-0.101c-0.167,0.034-0.5,0.184-1,0.45c-0.434,0.267-0.867,0.417-1.301,0.45
			c-1.166,0.134-2.899,0.134-5.2,0c-2.367-0.1-4.1-0.1-5.2,0c-0.367,0.066-0.85,0.233-1.45,0.5c-0.567,0.267-0.983,0.417-1.25,0.45
			c-0.433,0.066-1,0.017-1.7-0.15c-0.733-0.2-1.3-0.333-1.7-0.399c-1.967-0.4-4.467-0.584-7.5-0.551
			c-3.467,0.101-6.017,0.15-7.65,0.15c-4.733,0.3-8.2,0.316-10.4,0.05c-1.066-0.133-2.167-0.399-3.3-0.8
			c-0.133-0.033-1.183-0.45-3.15-1.25c-2-1.066-3.5-1.733-4.5-2c-1.333-0.066-2.417-0.116-3.25-0.15c-1.5-0.1-2.383-0.533-2.65-1.3
			c-0.233-0.666-0.117-1.1,0.35-1.3c0.3-0.134,0.833-0.25,1.6-0.35c1.333-0.367,3.367-0.767,6.1-1.2c2.033-0.634,2.933-2,2.7-4.101
			c-4.767-0.267-7.434-0.449-8-0.55c-3.7-0.533-5.917-1.666-6.65-3.399c4.233-1.167,7.434-2.384,9.6-3.65c1.2-0.7,2.5-1.667,3.9-2.9
			c1.633-1.466,2.583-2.633,2.85-3.5c-0.7-0.133-1.183-0.183-1.45-0.149c0.566-0.5,1.783-1.816,3.65-3.95L84.2,275z"/>
		
			<radialGradient id="SVGID_3_" cx="134.5498" cy="289.7002" r="24.775" gradientTransform="matrix(1 0 0 -1 0 579.4004)" gradientUnits="userSpaceOnUse">
			<stop  offset="0.4118" style="stop-color:#211C15;stop-opacity:0.0902"/>
			<stop  offset="0.698" style="stop-color:#211C15;stop-opacity:0.0902"/>
		</radialGradient>
		<path style="fill-rule:evenodd;clip-rule:evenodd;fill:url(#SVGID_3_);" d="M136.05,300.5l2.5,0.5
			c0.533,0.566,0.717,1.533,0.55,2.9c-0.166,1.233-0.5,2.149-1,2.75c-1.133,1.399-3.133,1.316-6-0.25c-0.899-0.5-1.55-1.167-1.949-2
			c-0.467-0.967-0.45-1.934,0.05-2.9c0.366-0.733,1.233-1.116,2.6-1.15C133.533,300.316,134.616,300.366,136.05,300.5z"/>
		
			<radialGradient id="SVGID_4_" cx="142.4004" cy="303.0996" r="5.55" gradientTransform="matrix(1 0 0 -1 0 606.1992)" gradientUnits="userSpaceOnUse">
			<stop  offset="0.4118" style="stop-color:#211C15;stop-opacity:0.0902"/>
			<stop  offset="0.698" style="stop-color:#211C15;stop-opacity:0.0902"/>
		</radialGradient>
		<path style="fill-rule:evenodd;clip-rule:evenodd;fill:url(#SVGID_4_);" d="M143.05,305.5l0.5,0.5
			c0.101,0.366,0.084,0.684-0.05,0.95c-0.6,0.2-1.15,0.166-1.65-0.101c-0.566-0.267-0.8-0.683-0.699-1.25
			C142.05,305.434,142.684,305.4,143.05,305.5z"/>
		
			<radialGradient id="SVGID_5_" cx="4.8999" cy="301.9004" r="11.2625" gradientTransform="matrix(1 0 0 -1 0 603.8008)" gradientUnits="userSpaceOnUse">
			<stop  offset="0.4118" style="stop-color:#211C15;stop-opacity:0.0902"/>
			<stop  offset="0.698" style="stop-color:#211C15;stop-opacity:0.0902"/>
		</radialGradient>
		<path style="fill-rule:evenodd;clip-rule:evenodd;fill:url(#SVGID_5_);" d="M8.05,306.5l-2,2c-0.233,0.7-0.867,1.083-1.9,1.15
			c-0.533,0.033-1.383-0.034-2.55-0.2c0.233-1.4,1.083-2.283,2.55-2.65C4.683,306.634,5.983,306.533,8.05,306.5z"/>
	</g>
	<g>
		<path style="fill-rule:evenodd;clip-rule:evenodd;fill:#6C5C47;" d="M82.7,80.55c0-1.1,0.033-2.6,0.1-4.5
			c0.101-2.733,0.084-4.95-0.05-6.65c-0.066-0.6-0.116-1.133-0.15-1.6c0.233,1.767,0.334,3.883,0.301,6.35
			C82.866,75.683,82.8,77.817,82.7,80.55z M84.675,90.825c-0.104-0.091-0.195-0.166-0.274-0.225c0.033,0,0.066,0.017,0.1,0.05
			C84.558,90.708,84.616,90.766,84.675,90.825z M99.45,178.65c-0.533-2.467-0.834-4.134-0.9-5c0.101,1,0.384,2.55,0.851,4.649
			C99.415,178.42,99.432,178.536,99.45,178.65z M114.6,271.65c-0.033-0.233-0.05-0.45-0.05-0.65c-0.033-1.934-0.2-3.583-0.5-4.95
			l-0.1-0.55c0.366,1.434,0.566,3.167,0.6,5.2C114.55,270.967,114.566,271.283,114.6,271.65z M77.4,316.3
			c0.366-0.1,0.75-0.233,1.149-0.399l2-0.75c-1,0.399-1.733,0.683-2.2,0.85C78.017,316.134,77.7,316.233,77.4,316.3z M70.2,276.6
			c-0.1,0.434-0.133,1.134-0.1,2.101c0,1.066-0.017,1.75-0.05,2.05c-0.133,1-0.35,1.833-0.65,2.5c0.067-0.6-0.083-1.7-0.45-3.3
			c-0.133-0.767-0.284-2-0.45-3.7c-0.167-1.6-0.333-2.833-0.5-3.7c-0.633-2.833-1.083-4.967-1.35-6.399
			c-0.467-2.467-0.65-4.65-0.55-6.551c-0.9,8.301-1.833,14.684-2.8,19.15c-0.2,1-0.267,2.45-0.2,4.35c0.1,2,0.083,3.45-0.05,4.351
			c-0.167,1-0.6,2.066-1.3,3.2c-0.667,1-1.417,1.866-2.25,2.6c-0.667,0.566-1.133,1.05-1.4,1.45c-0.3,0.434-0.55,1.066-0.75,1.899
			c-0.2,1.167-0.434,2-0.7,2.5c-0.433,0.801-1.05,1.233-1.85,1.301l0.05-5.301c0.566-2.166,0.867-4.133,0.9-5.899l-0.05-8.8
			c0.066-4.601-0.05-8.2-0.35-10.801c-0.233-2.5-0.45-4.383-0.65-5.649l0.05,1v1.2l-0.05-2.2v-0.101
			c-0.167-1.066-0.383-1.966-0.65-2.699c0.1,4.899-0.466,10.649-1.7,17.25c-0.2,1.199-0.417,3-0.65,5.399
			c-0.3,2.101-0.817,3.834-1.55,5.2l-0.55,1c-0.6,0.366-1.033,0.717-1.3,1.05c-0.133,0.167-0.167,0.316-0.1,0.45
			c0.066,0.134,0.1,0.217,0.1,0.25l-0.7,1.05c-0.4,0.601-0.917,1.283-1.55,2.05c-2.533,3.034-4.9,5.4-7.1,7.101l-0.55,0.1
			c-0.533,0.134-1.25,0.584-2.15,1.351c-0.833,0.733-1.567,1.166-2.2,1.3c-0.767,0.166-1.75,0.217-2.95,0.149
			c-1.367-0.066-2.5-0.283-3.4-0.649c0.4-1.3,0.633-2.217,0.7-2.75c0.133-0.834-0.133-1.601-0.8-2.3l0.1-0.25l1.05-1.25
			c1.533-1.7,2.883-4.101,4.05-7.2c0.934-1.634,1.45-3.634,1.55-6c0.3-2,0.45-4.467,0.45-7.4c-0.066-3.333-0.1-5.816-0.1-7.45
			c-0.034-1.8-0.067-3.166-0.1-4.1c-0.033-1.667,0.017-3.033,0.15-4.1c0.067-0.567,0.367-1.4,0.9-2.5
			c0.567-1.134,0.967-1.983,1.2-2.551c0.333-0.933,0.517-1.833,0.55-2.699c0.033-1.034,0.05-1.817,0.05-2.351
			c0.033-0.934,0-1.7-0.1-2.3c-0.6,0.333-1.033,1.05-1.3,2.15c-0.333,1.466-0.566,2.3-0.7,2.5c-0.2,0.399-0.55,1-1.05,1.8
			c-0.433,0.733-0.716,1.383-0.85,1.95c-0.4,1.533-0.6,3.5-0.6,5.899c0.033,1.334,0.066,3.334,0.1,6l-0.65,2
			c-0.1-0.7-0.2-1.217-0.3-1.55c-0.133-0.6-0.333-1.033-0.6-1.3c-0.4,0.6-0.633,1.517-0.7,2.75c-0.034,0.666-0.05,1.616-0.05,2.85
			c-0.133,2.367-0.583,5.566-1.35,9.601c-0.233,1.3-0.5,2.216-0.8,2.75c-0.367,0.633-1.05,1.3-2.05,2
			c-1.4,1.066-2.233,1.699-2.5,1.899c0.966-2.434,1.517-4.033,1.65-4.8c0.367-1.9,0.55-4.25,0.55-7.05
			c-0.033-1.434-0.05-2.684-0.05-3.75c0.033,0.467,0.05,0.983,0.05,1.55c0.033,2,0.017,3.634-0.05,4.9
			c0.533-0.601,0.967-1.417,1.3-2.45c0.133-0.434,0.333-1.367,0.6-2.8c0.433-2.301,0.55-4.483,0.35-6.551
			c-0.033-0.166-0.184-1.066-0.45-2.699c-0.2-1.101-0.267-2.017-0.2-2.75c0.1-1,0.6-2.233,1.5-3.7c1.033-1.634,1.65-2.851,1.85-3.65
			c0.3-1,0.55-2.149,0.75-3.45c0.3-1.966,0.25-3.116-0.15-3.449c-0.367-0.301-1-0.217-1.9,0.25c-0.9,0.533-1.567,0.649-2,0.35
			l-0.2-0.2c-0.767,4.9-1.233,8.05-1.4,9.45c0.167-1.7,0.567-4.45,1.2-8.25c0.566-3.566,0.933-6.316,1.1-8.25
			c0.167-1.634,0.35-2.85,0.55-3.65c0.267-1,0.667-1.949,1.2-2.85l-0.05,0.1c1.333,1.934,3.217,3.967,5.65,6.101
			c0.633,0.533,1.083,0.967,1.35,1.3c0.233,0.267,0.533,0.717,0.9,1.35c0.367,0.634,0.7,1.084,1,1.351
			c1.3,1.233,3.317,2.083,6.05,2.55c3.533,0.6,7.717,1.384,12.55,2.35c3.633,0.801,6.184,1.25,7.65,1.351c0.5,0.033,0.9,0,1.2-0.101
			c0.167-0.066,0.517-0.216,1.05-0.449c0.7-0.2,1.867-0.467,3.5-0.801c1.533-0.333,2.7-0.616,3.5-0.85
			c0.934-0.267,2.084-0.75,3.45-1.45c1.634-0.833,2.733-1.366,3.3-1.6c0.533-0.2,1.483-0.4,2.851-0.601
			c1.267-0.199,2.199-0.449,2.8-0.75c0.899-0.433,1.883-1.483,2.95-3.149c1.133-1.7,2.1-2.767,2.899-3.2
			c0.767,0.467,1.533,1.4,2.3,2.8c0.767,1.434,1.084,2.617,0.95,3.55c-0.066,0.801-0.633,1.9-1.7,3.301
			c-0.767,1-2.05,1.883-3.85,2.649c-2.134,0.767-3.717,1.334-4.75,1.7c-0.033-0.533-0.033-1.083,0-1.65l-1.3,2.801l0.35-0.801
			l-1.25,0.601c0.2,0.166,0.4,0.45,0.601,0.85L84.05,256c0.066,3.667-0.217,6.566-0.85,8.7c-0.9,3.1-2.634,5.233-5.2,6.399
			c-0.7,0.301-1.65,0.884-2.85,1.75c-1.167,0.867-2.101,1.45-2.801,1.75c-0.866,0.301-1.55,0.551-2.05,0.75
			c-0.9,0.367-1.383,0.767-1.45,1.2c0.167,0.066,0.383,0.101,0.65,0.101C69.667,276.65,69.9,276.634,70.2,276.6z M70.15,239.25
			l-5.55-0.85c-2.6-0.4-4.55-0.7-5.85-0.9c-2.3-0.333-4.25-0.5-5.85-0.5h-4.6c-0.9,0-1.95-0.083-3.15-0.25
			c-1.367-0.233-2.417-0.4-3.15-0.5c-0.967-0.066-1.7-0.134-2.2-0.2c-0.833-0.1-1.533-0.316-2.1-0.649
			c-0.7-0.434-1.467-1.167-2.3-2.2c-0.833-1-1.5-2.017-2-3.05c0.233-1.967,0.45-4.767,0.65-8.4v-0.05
			c0.367,0.767,0.583,1.399,0.65,1.899c0.066,0.367,0.1,1.117,0.1,2.25c0.1,1,0.383,1.617,0.85,1.851
			c0.2-0.334,0.55-1.351,1.05-3.05c0.4-1.2,0.933-2.067,1.6-2.601c0.633,0.066,1,1.367,1.1,3.9c0.067,2.633,0.4,4.083,1,4.35
			c0.633,0.3,1.3-0.116,2-1.25c0.833-1.3,1.467-1.967,1.9-2c0.167,0.566,0.417,1.733,0.75,3.5c0.367,1.566,0.883,2.5,1.55,2.8
			c0.7,0.334,1.35,0.317,1.95-0.05c0.633-0.333,0.917-0.866,0.85-1.6c0-0.367-0.117-0.717-0.35-1.05
			c-0.3-0.367-0.517-0.684-0.65-0.95c-0.533-0.967-0.733-1.983-0.6-3.05c0.034-0.9,0.083-1.584,0.15-2.051
			c0.1-0.899,0.35-1.483,0.75-1.75c0.5,1.334,1.167,1.617,2,0.851c0.7-0.667,1.133-1.517,1.3-2.55c0.2-1.367,0.317-2.867,0.35-4.5
			c0.033-2.4-0.217-3.834-0.75-4.301c-1.2-1.033-2.184-0.466-2.95,1.7c-0.5,1.334-0.816,2.8-0.95,4.4c-0.2,1.866-0.383,3.1-0.55,3.7
			c-0.467,1.733-1.167,2.449-2.1,2.149c-0.466-0.133-0.816-0.684-1.05-1.649c-0.133-1.101-0.233-1.784-0.3-2.051
			c-0.167-0.966-0.25-2.283-0.25-3.949c0-1.934-0.034-3.25-0.1-3.95c-0.133-1.2-0.417-1.851-0.85-1.95c-0.433-0.134-0.767,0.4-1,1.6
			c-0.067,0.434-0.25,1.917-0.55,4.45c-0.367,2.334-0.833,3.517-1.4,3.55c-0.867-3.133-1.25-5.35-1.15-6.649
			c-0.167,0.467-0.417,0.866-0.75,1.2c-0.4,0.333-0.816,0.517-1.25,0.55v-6.9c0.067-0.767,0.1-1.35,0.1-1.75
			c-0.033-0.7-0.283-1.184-0.75-1.45l-0.3,0.601c0.066-1.267,0.1-2.417,0.1-3.45l0.65-0.1l-0.25,0.05l0.1,0.149
			c0.5,0.667,1.717,1.167,3.65,1.5c1.033,0.167,2.383,0.367,4.05,0.601c0.5,0.1,1.267,0.333,2.3,0.7
			c0.967,0.366,1.733,0.6,2.3,0.699l4.55,0.601c0.2,0.434,0.817,1.267,1.85,2.5c0.8,1,1.3,1.95,1.5,2.85
			c-0.1,0.467-0.133,1.316-0.1,2.55c0.067,1.167,0.033,1.967-0.1,2.4c-0.133,0.6-0.466,1.684-1,3.25c-0.633,1.767-1.3,2.917-2,3.45
			c-0.167,0.133-0.617,0.316-1.35,0.55c-0.567,0.3-0.767,0.634-0.6,1c0.133,0.267,0.566,0.434,1.3,0.5
			c-0.066,0.767,0.1,1.634,0.5,2.6c0.434,1.101,0.934,1.667,1.5,1.7c0.867,0.066,1.567-0.283,2.1-1.05
			c0.333-0.467,0.667-1.217,1-2.25c0.533-1.767,0.85-3.85,0.95-6.25c0.033-1.033,0.017-3.167-0.05-6.4c0-0.366-0.1-1.433-0.3-3.199
			c-0.133-1.334-0.15-2.417-0.05-3.25c0-0.034,0.05-0.25,0.15-0.65h0.15c3.167,0,5.783-0.35,7.85-1.05
			c1.367-0.434,3.483-1.117,6.35-2.05c2.5-0.867,4.517-1.767,6.05-2.7l5.601-3.4c1,1,1.916,2.4,2.75,4.2
			c0.2,0.4,0.416,1.1,0.649,2.1c0.167,0.834,0.45,1.483,0.851,1.95c0.434,0.566,1.316,1.167,2.649,1.8c1.2,0.601,2,1.301,2.4,2.101
			c0.134,0.267,0.217,0.6,0.25,1c0.033,0.233,0.05,0.6,0.05,1.1c0.066,0.934,0.2,2.316,0.4,4.15c0.133,1.633,0.2,3.017,0.2,4.149
			c0,3.4-0.801,5.95-2.4,7.65c-0.6,0.6-1.566,0.95-2.9,1.05c-1.466,0.066-2.483,0.3-3.05,0.7c-1,0.667-1.783,1.85-2.35,3.55
			l-1.9,2.7l-6.399,3l-0.301,0.4c-0.133-0.101-0.3-0.317-0.5-0.65l0.7-3.65c0.3-1.5,0.467-2.733,0.5-3.699
			c0.101-3.934,0.084-7.601-0.05-11c-0.1-2.467-0.816-3.817-2.15-4.051c-0.666-0.1-1.35,0.25-2.05,1.051
			c-0.7,0.833-0.966,1.583-0.8,2.25c0.6,0.066,1.15,0.066,1.65,0c0.233,0.066,0.449,0.616,0.649,1.649
			c0.467,2.233,0.617,4.634,0.45,7.2c-0.1,0.4-0.267,1.533-0.5,3.4c-0.2,2.433-0.5,4.116-0.9,5.05
			C71.667,238.017,71.017,238.783,70.15,239.25z M55.55,221.95l0.45-2.3c-0.067,0.866-0.167,1.517-0.3,1.949L55.55,221.95z
			 M83.45,179.8c-0.334,0.4-0.617,0.7-0.851,0.9c-0.866,0.6-1.466,1.033-1.8,1.3c-0.566,0.467-1.033,1.05-1.399,1.75
			c-0.867,1.566-1.634,2.65-2.301,3.25c-0.533,0.467-1.116,0.8-1.75,1c-0.133,0.033-0.8,0.167-2,0.4
			c0.4,0.366,1.25,0.517,2.551,0.449c0.666-0.033,1.6-0.083,2.8-0.149c0.233,0.967-0.15,1.983-1.15,3.05
			c-0.533,0.566-1.45,1.267-2.75,2.1c-1.399,0.9-3.3,1.9-5.7,3c-3.167,1.467-5.117,2.4-5.85,2.801
			c-1.433,0.767-3.083,1.267-4.95,1.5c-1.066,0.133-2.8,0.199-5.2,0.199h-5.6c-0.667,0-1.433-0.066-2.3-0.199
			c-1.333-0.233-2.083-0.367-2.25-0.4c-0.367-0.066-1.083-0.066-2.15,0c-0.9,0.033-1.583-0.017-2.05-0.15
			c-0.2-0.066-0.533-0.25-1-0.55s-0.833-0.5-1.1-0.6L36.5,200.6l0.05-0.6c0.034-0.167,0.067-0.35,0.1-0.55c0.7-3.9,1.3-8.4,1.8-13.5
			c0.2-2.066,0.5-5.483,0.9-10.25l0.45,0.899c0.5,0.9,0.75,2.184,0.75,3.851c0,0.967-0.05,2.333-0.15,4.1
			c0,1.066-0.117,2.717-0.35,4.95c-0.233,2.134-0.35,3.767-0.35,4.9c0,0.866,0,1.316,0,1.35c0.1,0.467,0.417,0.6,0.95,0.4
			c0.434-0.134,0.767-1.584,1-4.351c0.4-2.666,0.65-4.684,0.75-6.05c0.067-1.533,0.167-2.75,0.3-3.65
			c0.233-1.699,0.667-2.816,1.3-3.35c0.5,0.3,0.833,1,1,2.1c0.2,1.367,0.35,2.15,0.45,2.351c0.4,0.833,0.883,1.184,1.45,1.05
			c0.033,0,0.617-0.3,1.75-0.9c0.367,0.233,0.617,0.717,0.75,1.45c0.033,0.4,0.067,0.95,0.1,1.65c0.167,2,0.25,4.434,0.25,7.3
			c0,0.4-0.05,1.116-0.15,2.15c-0.033,0.966,0.05,1.666,0.25,2.1c0.667,0.1,1.117-0.3,1.35-1.2c0.033-0.066,0.117-0.767,0.25-2.1
			c0.066-0.533,0.233-1.351,0.5-2.45c0.233-1.066,0.383-1.884,0.45-2.45c-0.033,0.733-0.133,2.25-0.3,4.55
			c-0.067,2.101,0.167,3.534,0.7,4.301c0.8-0.4,1.567-1.434,2.3-3.101c0.967-2.3,1.517-3.566,1.65-3.8
			c-0.167,0.7,0.05,1.434,0.65,2.2c0.667,0.833,1.333,1.05,2,0.649c0.434-0.199,0.667-0.699,0.7-1.5
			c-0.033-0.866-0.05-1.449-0.05-1.75c0.034-0.8,0.067-1.416,0.1-1.85c0-0.767-0.033-1.384-0.1-1.85
			c-0.066-0.5-0.183-0.784-0.35-0.851c-0.333-0.2-0.55-0.35-0.65-0.45c-0.633-0.666-0.983-1.716-1.05-3.149
			c0.067-1.634,0.067-2.834,0-3.601l-0.2-7.399c-0.1-2.967-0.483-5.384-1.15-7.25c-0.333,0.399-0.533,1-0.6,1.8
			c0,0.134,0,0.783,0,1.95c0.034,2.866-0.183,6.283-0.65,10.25c-0.066,0.467-0.217,1.05-0.45,1.75c-0.3,0.8-0.483,1.366-0.55,1.7
			c-0.066,0.333-0.133,0.816-0.2,1.449c-0.133,0.434-0.483,0.567-1.05,0.4c-0.9-0.233-1.433-1.35-1.6-3.35
			c0-2.233-0.033-3.617-0.1-4.15c-0.034-0.366,0.017-2.233,0.15-5.6c0.066-2.367-0.15-4.2-0.65-5.5
			c-0.333,0.267-0.517,0.733-0.55,1.399c-0.033,0.367-0.033,0.917,0,1.65c0,1.633-0.017,2.649-0.05,3.05
			c-0.067,1.1-0.25,2.083-0.55,2.95c-0.233,0.7-0.5,1.733-0.8,3.1c-0.433,0.934-1.3,1.2-2.6,0.8c-1.167-0.366-1.9-1.116-2.2-2.25
			c-0.1-0.433-0.15-1.55-0.15-3.35v-4.7c0.1-1.566,0.15-2.8,0.15-3.7c0-1.633-0.267-2.816-0.8-3.55c-0.533,0.5-0.8,1.517-0.8,3.05
			c0,0.834,0.017,1.967,0.05,3.4c-0.1,1.167-0.283,2.116-0.55,2.85c-0.367,1-0.75,0.75-1.15-0.75c-0.2-0.733-0.317-1.733-0.35-3
			c-0.067-1.767-0.117-2.783-0.15-3.05c0.066-1.1,0.1-2,0.1-2.7c0.067-1.233-0.1-2.083-0.5-2.55c-0.033,0.267-0.066,0.55-0.1,0.85
			c0.1-1.3,0.333-2.217,0.7-2.75c0.067-0.1,0.167-0.2,0.3-0.3c1.267,0.667,2.9,1.333,4.9,2c1.133,0.367,2.85,0.933,5.15,1.7
			c2.767,0.967,4.8,1.483,6.1,1.55c1.066,0.066,2.4,0,4-0.2c2.6-0.367,3.933-0.55,4-0.55c1.8-0.133,3.617-0.467,5.45-1
			c1,0.633,1.367,1.867,1.101,3.7c-0.101,0.667-0.301,1.65-0.601,2.95c-0.033,0.2-0.017,0.667,0.05,1.4c0.034,0.6,0,1.066-0.1,1.399
			c-0.4,0.967-1.217,1.75-2.45,2.351c-1.333,0.633-2.383,0.649-3.15,0.05c0.467,0.666,0.917,1.166,1.35,1.5
			c0.333,0.267,0.833,0.616,1.5,1.05c0.533,0.4,0.917,0.85,1.15,1.35c0.133,0.301,0.283,0.75,0.45,1.351
			c0.133,0.566,0.283,1,0.45,1.3c0.5,0.866,0.967,1.15,1.4,0.85c0.399-0.233,0.75-0.916,1.05-2.05c0.134-0.5,0.25-1.166,0.35-2
			c0.134-0.967,0.25-1.649,0.351-2.05c0.133-0.634,0.434-1.384,0.899-2.25c0.601-1.066,0.967-1.783,1.101-2.15
			c0.166-0.466,0.25-1.25,0.25-2.35c0-1,0.116-1.75,0.35-2.25c0.4-0.8,1.167-1.783,2.3-2.95c1.267-1.267,2.084-2.216,2.45-2.85
			l0.05-0.1c0.667,0.6,1.051,0.95,1.15,1.05c0.9,1.033,1.45,2.283,1.65,3.75c0.366,2.7,0.517,7.133,0.449,13.3l-0.05,2.1
			C83.816,178.583,83.616,179.167,83.45,179.8z M66.15,125.05c-0.767-1.167-1.217-3.167-1.35-6c0,2.034-0.117,3.917-0.35,5.65
			c-0.067,0.633-0.117,1.65-0.15,3.05c-0.133,1.233-0.45,2.183-0.95,2.85c-0.167,0.2-0.5,0.4-1,0.6c-0.533,0.2-0.867,0.383-1,0.55
			c-0.167,0.233-0.283,0.633-0.35,1.2c-0.033,0.566-0.117,0.95-0.25,1.15c-0.333,0.6-1.233,1.583-2.7,2.95
			c-0.933,0.867-1.716,1.317-2.35,1.35c0.5,0.7,2.367,1.434,5.6,2.2c1.8,0.4,3.267,0.533,4.4,0.4c0.533-0.067,1.117-0.317,1.75-0.75
			c0.7-0.5,1.216-0.8,1.55-0.9c0.7-0.2,1.817,0.017,3.35,0.65c0.834,0.333,1.967,0.783,3.4,1.35c0.566,0.167,1.366,0.367,2.4,0.6
			c0.733,0.333,1.05,0.966,0.949,1.9c-0.1,0.867-0.583,1.867-1.449,3c-0.667,0.9-1.434,1.717-2.301,2.45
			c-0.267,0.233-1.05,1.05-2.35,2.45c-0.967,1.033-1.833,1.767-2.6,2.2c-0.533,0.3-1.217,0.566-2.05,0.8
			c-0.9,0.267-1.583,0.467-2.05,0.6c-4.2,1.167-8.483,1.467-12.85,0.9c-1.567-0.7-2.7-1.117-3.4-1.25
			c-0.033,0.233-0.033,0.433,0,0.6c-1-0.3-1.75-0.517-2.25-0.65c-0.833-0.2-1.633-0.3-2.4-0.3H44c1.2-0.333,1.883-1.033,2.05-2.1
			c0-0.066,0.017-0.2,0.05-0.4c0.566,0.934,1.283,1.25,2.15,0.95c0.8-0.233,1.283-0.7,1.45-1.4c0.333-1.2,0.55-1.883,0.65-2.05
			c0.4,0.1,0.833,0.667,1.3,1.7c0.434,0.933,0.934,1.367,1.5,1.3c0.233-0.033,0.583-0.333,1.05-0.9c0.433-0.5,0.816-0.717,1.15-0.65
			c0.233,0.033,0.383,0.217,0.45,0.55c0.067,0.367,0.167,0.6,0.3,0.7c0.333,0.333,0.65,0.533,0.95,0.6c0.233,0.066,0.6,0.066,1.1,0
			c1.1-0.133,1.85-0.5,2.25-1.1c0.633-0.867,0.533-1.417-0.3-1.65c-1.1-0.3-1.684-0.583-1.75-0.85c-0.167-0.7,1.2-1.533,4.1-2.5
			c3.033-1.033,4.566-2.2,4.6-3.5c-0.6-0.1-1.45-0.05-2.55,0.15c-1.2,0.267-2.05,0.433-2.55,0.5c-0.7,0.1-2.034,0.183-4,0.25
			c-1.667,0.067-2.95,0.2-3.85,0.4c-4.167,1.033-6.583,0.934-7.25-0.3c0.066-0.133,0.133-0.25,0.2-0.35
			c0.267-0.433,0.867-0.917,1.8-1.45c0.867-0.533,1.417-1.05,1.65-1.55c0.2-0.4,0.267-1.05,0.2-1.95c-0.1-0.966-0.15-1.633-0.15-2
			v-12.5c0-1.167,0.034-2.5,0.1-4c0.067-1.6,0.167-3.383,0.3-5.35c0.167-2.4,0.316-4.367,0.45-5.9
			c-0.167,2.967-0.417,6.717-0.75,11.25c0.367,0.4,0.684,0.65,0.95,0.75c0.367,0.1,0.767,0.017,1.2-0.25
			c0.667-0.4,1.1-1.383,1.3-2.95c0.1-1.733,0.167-2.85,0.2-3.35c0.1-1.133,0.184-1.983,0.25-2.55c0.133-1,0.3-1.817,0.5-2.45
			c0,1-0.117,3.6-0.35,7.8c-0.2,3.233-0.184,5.817,0.05,7.75c0.267,2.1,0.917,3.133,1.95,3.1c0.167,0,0.466-0.233,0.9-0.7
			c0.4-0.434,0.633-0.733,0.7-0.9c0.434-0.6,0.767-1.2,1-1.8c0.167-0.5,0.317-1.2,0.45-2.1c0.133-0.867,0.2-2.183,0.2-3.95
			c-0.034-1.733,0.017-3.034,0.15-3.9c0.566-0.1,1.083-0.033,1.55,0.2c0.267,0.133,0.7,0.383,1.3,0.75
			c0.333,0.167,0.933,0.25,1.8,0.25h0.9c0.033,0.833,0.25,1.783,0.65,2.85c0.534,1.367,1.117,1.883,1.75,1.55
			c0.567-0.3,0.85-1.15,0.85-2.55c-0.1-1.5-0.15-2.45-0.15-2.85V102.8c0.067-1.9,0.067-3.433,0-4.6c-0.133-2.1-0.567-3.483-1.3-4.15
			c-0.9,0.5-1.217,3.034-0.95,7.6c0.2,4.2-0.483,6.317-2.05,6.35c-0.1-0.5-0.333-0.933-0.7-1.3c-0.3,0.167-1.05,0.95-2.25,2.35
			c-0.9,1.1-1.8,1.517-2.7,1.25c-0.233-1.4-0.25-3.167-0.05-5.3c0.333-2.433,0.55-4.217,0.65-5.35
			c0.233-2.733,0.35-6.217,0.35-10.45c0-1.2-0.083-1.983-0.25-2.35c-0.867,4.2-1.55,7.083-2.05,8.65
			c-0.067,0.267-0.284,1.017-0.65,2.25c-0.4,1.133-0.833,1.75-1.3,1.85c-0.033-0.1-0.017-1.667,0.05-4.7
			c0.034-2.533-0.333-3.833-1.1-3.9l-0.35,0.55c0.367-1.433,0.816-3.15,1.35-5.15c0.233-0.9,0.583-2.667,1.05-5.3l-0.15,0.95
			c0.733,0.867,1.767,1.317,3.1,1.35c1.533,0.067,3.117-0.566,4.75-1.9c1.566-1.267,2.583-2.667,3.05-4.2
			c0.233-0.733,0.367-1.833,0.4-3.3c0.033-1.633-0.133-2.717-0.5-3.25c-0.133-0.2-0.417-0.367-0.85-0.5
			c-0.4-0.133-0.683-0.317-0.85-0.55c-0.267-0.333-0.284-1.083-0.05-2.25c0.167-1.067,0.033-1.784-0.4-2.15
			c-0.5-0.433-0.933-0.533-1.3-0.3c-0.267,0.133-0.567,0.45-0.9,0.95c-0.3,0.7-0.533,1.2-0.7,1.5c-0.3,0.5-0.717,0.9-1.25,1.2
			c-0.7,0.167-1.1,0.283-1.2,0.35c-0.333,0.2-0.633,0.45-0.9,0.75c-0.567,1.467-0.983,2.567-1.25,3.3c0.2-0.7,0.467-1.45,0.8-2.25
			c0.9-2.233,1.45-3.95,1.65-5.15c0.3-2.867,0.667-5.05,1.1-6.55c0.133-0.467,0.3-1.033,0.5-1.7l-0.7,2.55
			c1.4,0.2,2.85,0.117,4.35-0.25c1.9-0.434,3.033-1.184,3.4-2.25c0.3-0.867,0.233-1.333-0.2-1.4c-0.233-0.066-0.783,0.034-1.65,0.3
			c-0.333,0.1-1.017,0.217-2.05,0.35c-1.167,0.133-2.15,0.183-2.95,0.15c0.133-0.467,0.3-0.983,0.5-1.55
			c0.233,0.133,0.7,0.233,1.4,0.3c2.033,0.2,3.783,0.017,5.25-0.55l1.15-0.65L71,54.5c0.167,0.5,0.3,1.2,0.4,2.1
			c0.033,0.433-0.034,1.117-0.2,2.05c-0.167,0.833-0.2,1.5-0.101,2c0.934-0.033,1.434,0.817,1.5,2.55
			c0.034,0.933-0.033,2.183-0.199,3.75c0,1.7,0.017,4.267,0.05,7.7l0.2-0.65L71.1,79.4c-0.5,1.533-1.033,2.65-1.6,3.35
			c-0.267,0.267-0.533,0.467-0.8,0.6l-0.4,0.2c-0.2,0.067-0.45,0.1-0.75,0.1c-0.466,0-0.75,0-0.85,0
			c-2.434,0.3-4.15,0.417-5.15,0.35c0.367,0.033,0.85,0.183,1.45,0.45c-0.967-0.133-1.617-0.167-1.95-0.1
			c0.2,0.933,0.817,1.65,1.85,2.15c0.333,1.9,0.5,3.7,0.5,5.4c0,0.633,0.083,2.033,0.25,4.2c0.133,1.667,0.15,3.017,0.05,4.05
			c0.1-0.8,0.55-2.667,1.35-5.6c0.2-1.333,0.367-2.367,0.5-3.1c0.233-1.367,0.617-2.3,1.15-2.8c0.3-0.267,0.7-0.417,1.2-0.45
			c0.567-0.034,0.95-0.117,1.15-0.25c0.167-0.067,0.3-0.184,0.4-0.35l1.25,0.1c0,0.433,0.05,1.033,0.15,1.8
			c0.133,0.833,0.2,1.45,0.2,1.85c0,0.433,0,1.066,0,1.9c0,0.7,0.134,1.3,0.4,1.8c0.3,0.467,0.717,0.934,1.25,1.4l0.05,1.5
			c0.1,1.233,0.467,3.316,1.1,6.25c0.567,2.633,0.867,4.733,0.9,6.3v0.4l-0.25,0.45c-0.434,0.733-0.816,2.017-1.15,3.85l-0.3,0.15
			c-0.3,1.533-0.649,2.733-1.05,3.6l-0.05,0.2c-0.267,0.6-0.566,1.133-0.9,1.6l-0.75,0.9c-0.433,0.367-0.683,0.684-0.75,0.95
			c-0.333,0.566-0.583,1.017-0.75,1.35c-0.333,0.533-0.6,0.867-0.8,1C67.767,125.083,67.15,125.117,66.15,125.05z M57.15,74.15
			l-0.1,1.5l-0.2-0.35C56.917,74.933,57.017,74.55,57.15,74.15z M70.65,52.25c-1.267,0.6-3.35,0.967-6.25,1.1
			c-0.967,0-1.583,0.05-1.85,0.15c-0.033-5.167,0.1-9.25,0.4-12.25c0.133-1.2,0.483-2.583,1.05-4.15
			c0.133-0.333,0.25-0.65,0.35-0.95L64.4,37c-0.267,0.433-0.467,1.183-0.6,2.25c-0.433,3.6-0.6,6.483-0.5,8.65
			c0.067,1.067,0.434,2.1,1.1,3.1c0.833,1.233,1.75,1.533,2.75,0.9c0.667-0.433,1.033-1.566,1.1-3.4
			c-0.1-2.033-0.15-3.317-0.15-3.85c-0.033-1.5-0.283-3.25-0.75-5.25c-0.6-2.3-1.05-4.017-1.35-5.15l-0.4-1.7
			c0.2-0.767,0.333-1.583,0.4-2.45c0.033-0.533,0.05-1.55,0.05-3.05c0.067-3.6,0.233-6.117,0.5-7.55c0.167-0.9,0.6-2.367,1.3-4.4
			c0.633-1.934,1.033-3.467,1.2-4.6l0.1,0.35c0.4-1.1,0.684-1.934,0.85-2.5c0.032-0.064,0.049-0.115,0.05-0.15v5.75
			c0,1.033-0.233,2.417-0.7,4.15c-0.2,1.767-0.184,4.517,0.05,8.25v2.6c-0.033,0.3-0.117,0.75-0.25,1.35
			c-0.1,0.567-0.117,1.017-0.05,1.35c0.3,0,0.7,0.117,1.2,0.35c0.1,1.233,0.767,2.967,2,5.2c1.2,2.1,1.783,3.833,1.75,5.2
			c0,0.934,0.117,2.3,0.351,4.1L72.8,48.9c-0.399,0.767-0.717,1.35-0.95,1.75C71.45,51.383,71.05,51.917,70.65,52.25z M66.8,125.7
			c0.8,0.267,1.684,0.117,2.65-0.45c-0.267,0.433-0.633,0.7-1.1,0.8C67.75,126.15,67.233,126.033,66.8,125.7z M76,171.25
			c-0.066,0.434-0.25,1.333-0.55,2.7c-0.233,1.066-0.367,1.967-0.4,2.7c-0.1,3.466-0.85,5.583-2.25,6.35
			c-0.1-1.134-0.883-2.45-2.35-3.95c-1.6-1.6-2.534-2.916-2.8-3.95c-0.467,0.534-0.633,1.7-0.5,3.5
			c0.167,2.467,0.25,3.717,0.25,3.75c-0.033,0.334-0.183,0.983-0.45,1.95c-0.2,0.767-0.25,1.434-0.15,2l1.25,0.05
			c0.467-0.033,0.934-0.233,1.4-0.6c0.533-0.434,0.933-0.7,1.2-0.8c0.466-0.134,0.917-0.066,1.35,0.2c0.5,0.333,0.983,0.5,1.45,0.5
			c1.733,0.033,3.066-1.117,4-3.45c0.666-1.767,1.083-4.017,1.25-6.75c0.066,0.967,0.3,1.6,0.7,1.899
			c0.533,0.4,0.933,0.45,1.199,0.15c0.167-0.2,0.351-0.65,0.551-1.35c0.466-2,0.716-4.667,0.75-8c-0.101-3.601-0.15-6.101-0.15-7.5
			L77.4,163C76.9,164.9,76.434,167.65,76,171.25z M81,205.7c-1-1.566-1.75-1.917-2.25-1.05l0.65,4.699v16.7L79.3,227.1
			c0,0.733,0.066,1.134,0.2,1.2c0.8,0.4,1.517-0.267,2.15-2l0.649-2c0.134-0.399,0.517-1.25,1.15-2.55
			c0.5-1.033,0.8-1.884,0.899-2.55c0.034-0.101,0.051-0.5,0.051-1.2c0-0.467,0.1-0.833,0.3-1.1c0.1-0.134,0.366-0.284,0.8-0.45
			c0.434-0.167,0.733-0.351,0.9-0.55c0.166,0.166,0.333,0.683,0.5,1.55c0.1,0.767,0.35,1.184,0.75,1.25
			c0.666-1.434,0.949-2.7,0.85-3.8c-0.167-1.367-0.9-2.25-2.2-2.65c-1.5-0.434-2.383-0.75-2.649-0.95
			c-0.434-0.333-0.801-1.1-1.101-2.3C82.283,208.033,81.767,206.934,81,205.7z M89.4,250.95c0.267-0.834,0.149-1.45-0.351-1.851
			c-0.5-0.366-1.05-0.183-1.649,0.551l-0.351,1c-0.733,0.233-1.2,0.699-1.399,1.399c0.5,0.5,1.199,0.617,2.1,0.351
			C88.616,252.1,89.167,251.616,89.4,250.95z M66.65,209c-0.5-0.667-0.917-1.017-1.25-1.05c-0.9,0-1.35,0.983-1.35,2.95
			c0,0.533,0.034,1.366,0.1,2.5c0,1-0.117,1.8-0.35,2.399c-0.066,0.167-0.267,0.533-0.6,1.101c-0.267,0.466-0.417,0.866-0.45,1.199
			c0.067-2.166,0.1-3.283,0.1-3.35c-0.067-1.4-0.333-2.316-0.8-2.75l-2.3-0.35v10c-0.033,2.1-0.267,4.133-0.7,6.1
			c-0.167,0.733-0.267,1.217-0.3,1.45c-0.033,0.467,0.05,0.899,0.25,1.3c0.9-0.566,1.567-1.533,2-2.9
			c0.533-1.699,0.983-2.783,1.35-3.25c0.267,0.634,0.517,3.017,0.75,7.15c0.467,3.634,1.55,5.116,3.25,4.45
			c0.533-3.3,0.867-5.767,1-7.4c-0.033-1.233-0.05-2.184-0.05-2.85c0-1.167,0.167-2.084,0.5-2.75c0.667,0.467,0.983,1.399,0.95,2.8
			c-0.033,1.667,0.067,2.733,0.3,3.2c0.967-0.167,1.517-1.283,1.65-3.351c0.1-1.699-0.034-3.1-0.4-4.199
			c-0.167-0.567-0.466-2.467-0.9-5.7c-0.3-2.334-0.917-4.117-1.85-5.351C67.217,209.816,66.917,209.366,66.65,209z M38,269
			c0.5,1.4,0.55,3.05,0.15,4.95c-0.267,1.1-0.733,2.75-1.4,4.95c-0.167,0.699-0.267,1.833-0.3,3.399
			c-0.034,1.467-0.167,2.584-0.4,3.351c-0.167,0.533-1.1,2.116-2.8,4.75c-1.333,2.1-1.85,3.733-1.55,4.899
			c0.933-0.133,1.867-0.45,2.8-0.95c0.967-0.566,1.7-1.216,2.2-1.949c0.8-1.134,1.6-2.834,2.4-5.101c1.2-3.333,1.85-5.116,1.95-5.35
			c0.4-0.9,0.617-1.483,0.65-1.75c-0.034,1.233-0.184,3.133-0.45,5.7c-0.167,2.267-0.1,4.116,0.2,5.55
			c0.667,0.066,1.2-0.367,1.6-1.3c0.067-0.2,0.284-0.95,0.65-2.25c0.966-3.767,1.65-6.567,2.05-8.4c0.7-3.167,1.117-6.033,1.25-8.6
			c0.067-1.101-0.017-2.284-0.25-3.551c-0.3-1.433-0.517-2.583-0.65-3.449c-0.133-1.067-0.1-2.551,0.1-4.45
			c0.2-2.101,0.267-3.601,0.2-4.5c-1.767,0.566-3.433,3.684-5,9.35c-0.066-0.7-0.083-1.6-0.05-2.7c0.033-1.199,0.05-2.1,0.05-2.699
			c-0.1-1.4-0.183-2.5-0.25-3.301c-0.1-1.466-0.017-2.55,0.25-3.25L41.05,252c-1.4-0.2-2.55,1.017-3.45,3.65
			c-0.733,2.233-1.017,4.1-0.85,5.6C36.85,264.217,37.267,266.8,38,269z M72.05,256.65H68.4v4.3c0,0.3-0.066,1.283-0.2,2.95
			c-0.1,1.6-0.017,2.533,0.25,2.8c0.3,0.333,0.983,0.45,2.05,0.35l2.4-0.649c0.267,0.199,0.399,0.5,0.399,0.899
			c0,0.434,0.066,0.684,0.2,0.75c0.634,0.4,1.434,0,2.4-1.2c1-1.433,1.666-2.333,2-2.699c1.433-1.4,2.449-2.65,3.05-3.75
			c0.899-1.667,1-3.217,0.3-4.65c-0.233,0.066-1.066,0.467-2.5,1.2c-1.167,0.6-2.05,0.833-2.65,0.7
			c-0.866-0.567-1.55-1.017-2.05-1.351c-0.866-0.566-1.616-0.566-2.25,0L72.05,256.65z M55.05,257.35c0.3,0.4,0.434,1.034,0.4,1.9
			c0,0.467-0.034,1.116-0.1,1.95c0.033,2,0.283,4.05,0.75,6.149c0.233,1.233,0.35,2.733,0.35,4.5c0,1-0.017,2.5-0.05,4.5
			c0,4.434,0.017,6.784,0.05,7.051c0.233,3.833,0.983,5.583,2.25,5.25c0.433-4.101,0.35-9.601-0.25-16.5
			c-0.7-8.367-1.05-13.867-1.05-16.5L55.05,257.35z"/>
		<path style="fill-rule:evenodd;clip-rule:evenodd;fill:#4F4639;" d="M98.55,173.65c0.066,0.866,0.367,2.533,0.9,5
			c0.033,0.133,0.066,0.267,0.1,0.399c0.033,0.267,0.084,0.517,0.15,0.75l0.45,3.15c2.033,0.566,3.283,2.467,3.75,5.7
			c0.1,0.699,0.149,3.233,0.149,7.6l0.101,2.7c0.333,0.934,0.899,2.316,1.699,4.149c0.334,0.767,0.567,1.717,0.7,2.851
			c0.101,0.633,0.233,1.616,0.4,2.95c0.1,0.699,0.399,1.966,0.899,3.8c0.434,1.6,0.684,2.883,0.75,3.85
			c0.167,2.066,0.15,5.217-0.05,9.45c0,2.533-0.166,6.35-0.5,11.45c-0.166,4.566,0.017,8.383,0.55,11.45
			c0.067,0.3,0.067,0.733,0,1.3c0.034,0.467,0.184,0.85,0.45,1.149c0.167,0.2,0.434,0.25,0.8,0.15c0.4-0.1,0.65-0.1,0.75,0
			c0.434,0.366,0.767,0.816,1,1.35c0.101,0.267,0.25,0.817,0.45,1.65c0.3,1.167,0.617,3,0.95,5.5c0.3,2.434,0.616,4.267,0.95,5.5
			l0.1,0.55c-0.166,0.533-0.366,1.017-0.6,1.45c-0.134,0.3-0.45,0.816-0.95,1.55c-0.366,0.7-0.533,1.283-0.5,1.75
			c0,0.334,0.116,0.8,0.35,1.4c0.233,0.6,0.351,1.1,0.351,1.5c0.033,0.366,0.1,1.416,0.2,3.149c0.033,1.567-0.167,2.483-0.601,2.75
			c-0.967,0.567-1.467,0.117-1.5-1.35c0.167-1.7,0.25-2.684,0.25-2.95c0-0.767-0.149-1.517-0.45-2.25c-0.366-0.833-0.649-1.5-0.85-2
			c-0.434-1.133-0.717-2.983-0.85-5.55c-0.101-2.533-0.384-4.366-0.851-5.5c-0.166-0.467-0.5-0.884-1-1.25l-1.35-1
			c-0.434-0.434-0.717-0.884-0.851-1.35c-0.066-0.301-0.1-0.851-0.1-1.65c-0.066-4.967-0.483-9.116-1.25-12.45
			c-1.033-4.467-2.816-8.166-5.35-11.1c-0.2,0.467-0.134,1.267,0.199,2.399c0.167,0.601,0.417,1.4,0.75,2.4
			c0.233,0.866,0.601,2.15,1.101,3.85c0.399,1.534,0.666,2.867,0.8,4c0.1,0.867,0.15,1.784,0.15,2.75l-1.95-0.949
			c-1.134-0.634-1.834-1.884-2.101-3.75c-0.1-2.2-0.25-3.767-0.449-4.7c-0.233-1.066-0.467-1.8-0.7-2.2c-0.4-0.667-1-1-1.8-1
			c-0.233,0-0.65,0.066-1.25,0.2c-0.534,0.133-1,0.149-1.4,0.05c-1.767-0.333-1.983-0.967-0.65-1.9
			c2.101-1.433,3.184-2.216,3.25-2.35c0.101-0.267,0.167-0.733,0.2-1.4c0-0.699,0.066-1.199,0.2-1.5c0.1-0.333,0.316-0.8,0.65-1.399
			c0.333-0.566,0.55-1.017,0.649-1.351c0.434-1.366,0.517-3.216,0.25-5.55c-0.399-2.6-0.633-4.467-0.7-5.6
			c0.067,0.6,0.351,1.517,0.851,2.75c0.5,1.2,0.767,2.116,0.8,2.75c0.233,3.366,0.467,5.566,0.7,6.6c0.2-0.566,0.767-1.133,1.7-1.7
			c0.833-0.533,1.283-1.267,1.35-2.199c0.167-1.667-0.066-3.134-0.7-4.4c-1.666-3.6-2.316-6.434-1.95-8.5
			c0.567,0.4,0.983,0.95,1.25,1.65c-0.399-3.7-1.666-7.15-3.8-10.351c-0.633-0.8-1.116-1.416-1.45-1.85
			c-0.566-0.733-0.916-1.384-1.05-1.95c0-0.866-0.083-1.55-0.25-2.05c-0.166-0.434-0.434-0.9-0.8-1.4
			c-2.033,1.233-5.134,2.634-9.3,4.2c-1.834,0.733-3.3,1.267-4.4,1.6c-2,0.634-3.533,0.834-4.6,0.601c0.3-0.434,0.95-0.934,1.95-1.5
			c1.133-0.667,1.85-1.15,2.149-1.45c1.767-1.566,2.967-3.033,3.601-4.4c0.899-1.933,1.149-3.883,0.75-5.85
			c-0.2-0.9-0.434-1.417-0.7-1.55c-0.5-0.066-1.05-0.15-1.65-0.25c0.233-0.267,0.684-0.601,1.351-1c0.633-0.367,1.066-0.7,1.3-1
			c0.366-0.434,0.7-1.15,1-2.15c0.166-0.633,0.366-1.217,0.6-1.75l0.05-0.1c-0.066,2.3-0.066,3.833,0,4.6
			c0.634-0.233,1.284-0.649,1.95-1.25c0.634-0.6,1.5-1.283,2.601-2.05c1.233-0.866,2.083-1.767,2.55-2.7
			c0.533-1.1,0.583-2.316,0.149-3.649c-0.1-0.334-0.333-0.717-0.699-1.15c-0.467-0.5-0.75-0.85-0.851-1.05
			c-0.267-0.467-0.45-1.084-0.55-1.851c-0.1-0.899-0.184-1.55-0.25-1.949c-0.2-1.2-0.434-2.134-0.7-2.801
			c-0.3-0.833-0.8-1.633-1.5-2.399c-0.8-0.9-1.383-2.017-1.75-3.35c-0.066-0.167-0.133-0.583-0.2-1.25
			c-0.066-0.533-0.183-0.934-0.35-1.2c-0.434-0.6-1.184-0.933-2.25-1c-0.833-0.066-1.983,0.05-3.45,0.35
			c-0.533,0.1-0.934,0.183-1.2,0.25c-0.5,0.1-0.916,0.233-1.25,0.4c-0.833,0.767-1.517,1.233-2.05,1.4c-1.033,0.3-2.1,0.45-3.2,0.45
			c-0.866,0.033-2.033-0.017-3.5-0.15c-1.833-0.167-2.983-0.267-3.45-0.3c1.133-0.1,2.983-0.533,5.55-1.3
			c0.633-0.2,1.316-0.55,2.05-1.05c0.434-0.267,1.066-0.717,1.9-1.35c0.166-0.1,0.816-0.767,1.949-2
			c0.9-0.967,1.601-1.483,2.101-1.55c0.566-0.1,1.149,0.133,1.75,0.7c0.633,0.533,1.05,0.767,1.25,0.7l0.35-0.25
			c0.167-0.167,0.367-0.483,0.601-0.95c0.333-0.7,0.916-2.233,1.75-4.6c0.5-1.333,0.366-2.667-0.4-4
			c-2.167-0.7-3.967-1.517-5.4-2.45c-2.533-1.767-4.449-3.067-5.75-3.9c-1.667-1.1-3.816-1.65-6.45-1.65l-2.2,0.1
			c-0.867-0.033-1.55-0.25-2.05-0.65c0.333-0.434,0.983-0.733,1.95-0.9c1.133-0.167,1.883-0.367,2.25-0.6
			c0.733-0.467,1.1-1.167,1.1-2.1c0.033-0.967,0.2-1.617,0.5-1.95c1.233,0.3,3.25,1.167,6.05,2.6c2.5,1.3,4.55,2.033,6.15,2.2
			c2.066,0.2,3.366-0.017,3.899-0.65c0.066-0.133,0.084-0.833,0.05-2.1l0.601-4.65c0.267-1.067,0.483-1.95,0.649-2.65
			c0.267-1.267,0.284-2.15,0.051-2.65c-0.134-0.3-0.534-0.7-1.2-1.2c-0.767-0.5-1.25-0.833-1.45-1c-0.967-0.733-1.733-1.3-2.3-1.7
			c-1.033-0.733-1.867-1.117-2.5-1.15l-0.15,0.25c0.2-0.867,0.4-1.483,0.601-1.85l-4.051,2.2c0.334-1.833,0.717-3.117,1.15-3.85
			l0.25-0.45c0.134-0.167,0.316-0.433,0.55-0.8c0.233-0.3,0.384-0.567,0.45-0.8c0.2-0.566,0.134-2.1-0.2-4.6
			c-0.267-2.1,0-3.467,0.8-4.1c0.233,0.1,1.784,1.117,4.65,3.05c1.767,1.167,3.467,1.767,5.1,1.8
			c-1.066-0.767-2.199-1.983-3.399-3.65c-0.767-1.033-1.55-2.417-2.351-4.15c-0.866-1.933-1.55-3.367-2.05-4.3L77.9,92.6
			c-0.101-0.233-0.2-0.417-0.301-0.55c-0.3-0.566-0.466-0.85-0.5-0.85c-0.1-1.4-0.183-2.417-0.25-3.05
			c-0.133-1.066-0.666-1.8-1.6-2.2c-1.667-0.667-2.884-0.767-3.65-0.3c-0.366,0.333-0.633,0.567-0.8,0.7
			c-0.167,0.133-0.533,0.3-1.1,0.5l-1,0.25c-1.2,0.3-2.1,0.6-2.7,0.9c-0.967,0.533-1.5,1.233-1.6,2.1c-0.033-0.667,0-1.167,0.1-1.5
			c0.133-0.5,0.433-0.917,0.9-1.25c0.233-0.167,0.934-0.5,2.1-1c0.967-0.4,1.6-0.833,1.9-1.3L69.45,85
			c-0.367-0.133-0.917-0.117-1.65,0.05c-0.566,0.133-1,0.217-1.3,0.25L66,85.35c-0.533,0.033-1.083-0.05-1.65-0.25
			c-0.2-0.1-0.65-0.317-1.35-0.65c-0.6-0.267-1.083-0.417-1.45-0.45c1,0.067,2.717-0.05,5.15-0.35c0.1,0,0.383,0,0.85,0
			c0.3,0,0.55-0.033,0.75-0.1l0.4-0.2c0.267-0.133,0.533-0.333,0.8-0.6c0.567-0.7,1.1-1.817,1.6-3.35L72.65,74
			c0.199-0.667,0.35-2.083,0.449-4.25c0.067-1.833,0.367-3.2,0.9-4.1c0.2,1,0.267,2.317,0.2,3.95c-0.033,0.9-0.084,2.217-0.15,3.95
			c0,0.667-0.066,2.017-0.2,4.05c-0.133,1.733-0.166,3.083-0.1,4.05c0.233-0.033,0.884-0.117,1.95-0.25
			c1.033-0.133,1.616-0.283,1.75-0.45c0.233-0.233,0.35-0.684,0.35-1.35c-0.066-0.767-0.1-1.283-0.1-1.55
			c0-0.966-0.217-2.716-0.65-5.25c-0.399-2.2-0.517-3.933-0.35-5.2c0-0.1,0.25-0.917,0.75-2.45c0.267-0.833,0.25-1.667-0.05-2.5
			c-0.567-1.5-0.95-2.9-1.15-4.2c-0.3-2.1-0.6-3.684-0.9-4.75c-0.199,0.133-0.433,0.233-0.699,0.3c-0.967,0.333-2.184,0.5-3.65,0.5
			l-0.95-0.1c-0.533-0.033-1.033-0.133-1.5-0.3c0.2-0.4,0.517-0.75,0.95-1.05c0.733-0.466,1.117-0.716,1.15-0.75v-0.05
			c0.4-0.333,0.8-0.867,1.2-1.6c0.233-0.4,0.551-0.983,0.95-1.75l1.601-2.4c0.433-0.8,0.649-1.633,0.649-2.5
			c0-1.5-0.116-3.367-0.35-5.6c-0.167-1.733-0.417-3.65-0.75-5.75c-0.066-0.533-0.3-1.467-0.7-2.8c-0.333-1.2-0.517-2.133-0.55-2.8
			c-0.033-0.333,0.017-0.7,0.149-1.1c0.134-0.5,0.2-0.833,0.2-1c0.033-0.4,0-0.9-0.1-1.5c-0.101-0.633-0.184-1.117-0.25-1.45
			c-0.2-2.033-0.417-3.45-0.65-4.25c-0.1-0.367-0.366-0.833-0.8-1.4c-0.433-0.567-0.7-1.017-0.8-1.35
			c-0.233-0.7-0.317-1.75-0.25-3.15c0.133-1.533,0.2-2.6,0.2-3.2V7c0.1-0.433,0.167-0.817,0.2-1.15c0-1.067,0-1.883,0-2.45
			c-0.033-1.033,0.117-1.816,0.45-2.35L71.2,0l0.35,0.5V0.45L71.6,0.5c0.367,0.533,0.667,1.317,0.9,2.35
			c0.167,0.566,0.366,1.4,0.6,2.5c0.467,1.8,0.784,3.783,0.95,5.95c0.101,0.967,0.4,3.217,0.9,6.75c0.399,2.733,0.6,5.017,0.6,6.85
			c0,2.033,0.117,4,0.351,5.9l1,5.1c0.166,0.5,0.333,1.017,0.5,1.55v5.7c0,0.667,0.017,1.717,0.05,3.15
			c0,1.233-0.117,2.25-0.351,3.05L77,49.7c-0.1,0.3-0.283,0.75-0.55,1.35c-0.167,0.5-0.084,0.934,0.25,1.3
			c0.133,0.167,0.35,0.283,0.649,0.35c0.4,0.066,0.65,0.133,0.75,0.2c0.034,0.033,0.067,0.05,0.101,0.05L79.6,54.5
			c0.101,0.167,0.2,0.35,0.301,0.55l0.55,5.7c0.133,0.4,0.45,1.267,0.95,2.6c0.366,1.066,0.633,1.917,0.8,2.55
			c0.033,0.167,0.083,0.333,0.149,0.5l0.25,1.4c0.034,0.467,0.084,1,0.15,1.6L81.4,71c0.1,0.733-0.15,1.75-0.75,3.05
			c-0.601,1.4-0.9,2.434-0.9,3.1c0,0.5,0.116,1.483,0.35,2.95c0.134,1.367-0.066,2.25-0.6,2.65c-0.6,0.467-1.316,0.5-2.15,0.1
			c-1.267-0.6-1.916-0.9-1.949-0.9c-0.134,0-0.517,0.117-1.15,0.35c-0.5,0.167-0.884,0.15-1.15-0.05c-0.267-0.233-0.333-1-0.199-2.3
			c0.133-1.5,0.166-2.367,0.1-2.6c-0.2,0.267-0.384,0.7-0.55,1.3c-0.2,0.667-0.384,1.133-0.55,1.4c-0.467,0.833-1.083,1.6-1.851,2.3
			c-0.933,0.8-1.667,1.433-2.2,1.9c0.367,0.133,0.933,0.1,1.7-0.1c1.034-0.267,1.634-0.4,1.8-0.4c0.534-0.067,0.917-0.033,1.15,0.1
			c0.167,0.1,0.467,0.283,0.9,0.55c0.433,0.2,0.916,0.333,1.449,0.4c0.767,0.067,1.284,0.133,1.551,0.2c1.033,0.2,2.033,1,3,2.4
			c0.3,0.434,0.649,1.283,1.05,2.55c0.467,1.1,1.083,1.683,1.85,1.75c0.834,0.033,1.417-0.434,1.75-1.4
			c0.066,0.034,0.134,0.083,0.2,0.15c0.033,0.033,0.066,0.066,0.1,0.1c0.034,0,0.051,0.017,0.051,0.05
			c0.079,0.059,0.171,0.134,0.274,0.225c0.074,0.06,0.149,0.118,0.226,0.175c0.033,0.033,0.066,0.067,0.1,0.1
			c0.233,0.233,0.4,0.417,0.5,0.55c0.3,0.5,0.483,1.567,0.55,3.2c0.467,2.633,1.351,6.483,2.65,11.55
			c0.166,0.767,0.967,3.434,2.399,8c1,3.167,1.483,5.833,1.45,8l0.2,19.95c0.233,1.2,0.85,2.933,1.85,5.2
			c0.634,1.9,0.95,3.883,0.95,5.95c0,2.667,0.184,4.667,0.55,6c0.134,0.467,0.5,1.533,1.101,3.2c0.5,1.333,0.8,2.45,0.899,3.35
			c0.101,0.9,0.184,2.15,0.25,3.75C98.417,171.566,98.483,172.85,98.55,173.65z M78.55,315.9c-0.399,0.166-0.783,0.3-1.149,0.399
			l-0.95,0.2c-0.134,0.033-0.267,0.05-0.4,0.05c-0.8,0.066-1.85,0.084-3.149,0.05c-1.867-0.066-2.934-0.1-3.2-0.1
			c-3.833,0-5.95-0.583-6.35-1.75c1.1-1.467,1.867-3.85,2.3-7.15l0.1-0.699c0.067,1.433,1.1,2.316,3.1,2.649
			c1.9,0.334,3.4,0.084,4.5-0.75l0.051,0.5c1.767,0.8,3.3-0.05,4.6-2.55c0.967-1.833,1.55-3.75,1.75-5.75
			c0.233-2.233,0.217-4.333-0.05-6.3c-0.767,0.033-1.351,0.033-1.75,0c-0.7-0.033-1.2-0.267-1.5-0.7c0.366-0.2,0.8-0.384,1.3-0.55
			c0.3,0.1,1.184,0.25,2.65,0.45c1.166,0.166,1.916,0.416,2.25,0.75c0.267,1.5,0.416,2.283,0.449,2.35l0.051,0.3l-0.101,1.4
			c0,0.3-0.017,0.8-0.05,1.5c0,0.6,0.033,1.083,0.1,1.45c0.101,0.333,0.317,0.85,0.65,1.55c0.333,0.666,0.533,1.2,0.6,1.6
			c0.267,1.667,0.184,3.066-0.25,4.2c-0.267,0.634-0.833,1.417-1.699,2.35c-0.467,0.5-1.134,1.2-2,2.101L78.55,315.9z M65.85,298.85
			c-0.2-2.8-0.583-5.449-1.15-7.949c-0.067,0.533-0.4,1.3-1,2.3c-0.267,0.8-0.467,1.866-0.6,3.2c-0.367-0.167-1.05-0.217-2.05-0.15
			c-1.167,0.033-1.816,0.05-1.95,0.05c-0.1-0.399,0.3-1.166,1.2-2.3c1.1-1.333,1.684-2.1,1.75-2.3
			c0.967-2.066,1.667-5.101,2.1-9.101c0.067-0.6,0.167-2.8,0.3-6.6c0.1-2.7,0.333-4.85,0.7-6.45c0.567,3.667,0.95,5.834,1.15,6.5
			c0.034,0.101,0.483,1.65,1.35,4.65c0.533,1.899,0.867,3.483,1,4.75c0.233,1.767,0.233,3.35,0,4.75c-0.2,1.3-0.85,3.066-1.95,5.3
			C66.467,296.2,66.183,297.316,65.85,298.85z M54.9,289.2c0.133-6.601,0.083-11.5-0.15-14.7v-8.35v-1.2
			c0.067,1.533,0.267,3.833,0.6,6.899c0.066,1.667,0.1,3.733,0.1,6.2c0,1.4-0.017,3.483-0.05,6.25
			C55.4,285.9,55.233,287.533,54.9,289.2z M39.1,311.5c0.5-0.434,0.917-1.05,1.25-1.85c0.3-0.733,0.433-1.384,0.4-1.95
			c0.833-0.033,1.7-0.4,2.6-1.101c0.433-0.333,1.15-1,2.15-2c0.7-0.699,1.3-1.566,1.8-2.6c0.534-1.2,0.983-2.15,1.35-2.85
			c-0.367-0.034-0.783,0.1-1.25,0.399c-0.267,0.2-0.65,0.467-1.15,0.8c-0.733,0.4-1.833,0.851-3.3,1.351c-0.833,0.3-1.9,0.633-3.2,1
			c-1.9,0.533-2.967,0.833-3.2,0.899l2.4-1.649c2.2-1.7,4.566-4.066,7.1-7.101c0.633-0.767,1.15-1.449,1.55-2.05l0.7-1.05
			c0-0.033-0.033-0.116-0.1-0.25c-0.067-0.134-0.034-0.283,0.1-0.45c0.267-0.333,0.7-0.684,1.3-1.05l1.6-1
			c-0.333,0.634-0.917,1.717-1.75,3.25c-0.633,1.3-0.867,2.316-0.7,3.05c0.367,0.101,0.8,0.066,1.3-0.1
			c0.7-0.233,1.117-0.367,1.25-0.4c0.267,0.9,0.233,2-0.1,3.3c-0.167,0.733-0.467,1.834-0.9,3.301c-0.1,0.399-0.2,1.017-0.3,1.85
			c-0.167,0.733-0.383,1.333-0.65,1.8c-0.133,0.2-0.4,0.517-0.8,0.95c-0.4,0.366-0.683,0.7-0.85,1c-1,1.634-1.434,3.083-1.3,4.35
			l0.05,0.15h-6.4C39.717,311.5,39.4,311.5,39.1,311.5z M27.7,298.9l-0.1,0.25l-0.05-0.051c-0.2-0.166-0.4-0.333-0.6-0.5
			c-0.867-0.466-1.55-0.833-2.05-1.1c-0.933-0.5-1.517-0.983-1.75-1.45c-0.4-0.8-0.35-2.1,0.15-3.899l1.7-0.4
			c1.567-0.467,2.9-1.5,4-3.1c1.2-1.667,2.133-4.217,2.8-7.65c0.4-2,0.6-4.217,0.6-6.65c-0.167-0.899-0.25-1.517-0.25-1.85
			c0-0.4,0.05-0.8,0.15-1.2l0.65-2l0.05-0.1c0.167,1.6,0.467,3.95,0.9,7.05c0.367,2.767,0.533,5.134,0.5,7.1l-0.05,1.101
			c-0.1,2.366-0.617,4.366-1.55,6l-0.5,0.8c-2.033,3.167-3.15,4.95-3.35,5.35C28.717,297.033,28.3,297.8,27.7,298.9z M80.65,107.8
			c0,0.367,0.033,0.867,0.1,1.5c0.033,0,0.566-0.017,1.6-0.05c0.667-0.033,1.15,0.067,1.45,0.3c0.5,0.333,0.867,1.017,1.101,2.05
			c0.166,0.833,0.216,1.633,0.149,2.4l2-0.35c0.101-1.566,0.117-2.8,0.05-3.7c-0.133-1.6-0.566-2.7-1.3-3.3
			c-0.267-0.267-1.017-0.433-2.25-0.5c-1.3-0.1-2.116,0-2.45,0.3C80.8,106.717,80.65,107.167,80.65,107.8z M69.45,125.25
			c-0.967,0.567-1.85,0.717-2.65,0.45c-0.367-0.067-0.8-0.3-1.3-0.7l0.65,0.05c1,0.067,1.617,0.034,1.85-0.1
			c0.2-0.133,0.467-0.467,0.8-1c0.167-0.333,0.417-0.784,0.75-1.35l-0.1,0.25c1.033,0.367,1.983,0.35,2.85-0.05l-0.8,0.9
			C70.533,124.533,69.85,125.05,69.45,125.25z M50.05,155.6c-0.033-0.167-0.033-0.367,0-0.6c0.7,0.133,1.833,0.55,3.4,1.25
			c1.533,0.7,2.733,1.067,3.6,1.1h3.5c-0.566,0.2-1.017,0.316-1.35,0.35c-0.633,0.066-1.9-0.067-3.8-0.4
			c-1.1-0.1-2.05-0.216-2.85-0.35C51.017,156.65,50.183,156.2,50.05,155.6z M79,152.1c-0.9-0.1-1.816,0.15-2.75,0.75
			c-1,0.767-1.816,1.3-2.45,1.6c1.467,0.5,3.25,0.617,5.351,0.35c1.699-0.233,3.433-0.683,5.199-1.35c0.801-0.3,1.434-0.367,1.9-0.2
			c0.3,0.1,0.884,0.333,1.75,0.7c1.2,0.333,2.25-0.017,3.15-1.05c0.5-0.6,1.149-1.617,1.949-3.05c-0.033,0.833-0.05,3.35-0.05,7.55
			l-1,4.25v7.7c0,0.667,0.084,1.917,0.25,3.75c0.033,1.667-0.149,2.867-0.55,3.601c-0.267,0.467-0.783,1.066-1.55,1.8
			c-1.066,1.066-1.634,1.634-1.7,1.7c-1.333,1.333-2.3,2.35-2.9,3.05c-1.066,1.167-1.866,2.316-2.399,3.45
			c-0.533,1.133-0.483,1.85,0.149,2.149c1.101,0.534,1.767,1.034,2,1.5c0.334,0.634,0.284,1.367-0.149,2.2
			c-0.267,0.434-0.634,1.017-1.101,1.75c1.134,0.267,2.4,0.184,3.801-0.25c1.333-0.399,2.533-1.05,3.6-1.95
			c1.6-1.333,2.45-2.816,2.55-4.449l0.15-1.5c0.066-0.267,0.35-0.65,0.85-1.15c0.533-0.5,0.917-0.934,1.15-1.3
			c0.233-0.434,0.383-1,0.45-1.7l0.05-0.55c0.133-1.566,0.066-3.617-0.2-6.15c-0.3-3-0.45-5.033-0.45-6.1
			c0.033-1.967-0.399-4.601-1.3-7.9c0.134-0.566,0.184-1.417,0.15-2.55c-0.101-1.167-0.15-1.883-0.15-2.15
			c0.033-1.434,0.066-2.517,0.1-3.25c0-1.333-0.033-2.417-0.1-3.25c-0.066-1.167-0.217-2.017-0.45-2.55
			c-0.2-0.5-0.684-1.066-1.45-1.7c-0.767-0.667-1.267-1.2-1.5-1.6c-0.233-0.467-0.35-1.083-0.35-1.85c0.033-0.9,0.05-1.55,0.05-1.95
			v-7.3c0.033-1.8,0.05-3.15,0.05-4.05c0-1.6-0.116-2.95-0.35-4.05c-0.467-1.733-1.083-3.35-1.85-4.85
			c-0.467-0.733-0.834-1.3-1.101-1.7c-0.434-0.7-0.684-1.317-0.75-1.85L84.75,135c-1.134,0.267-2.134,0.583-3,0.95
			c-0.1,0.4,0.083,0.8,0.55,1.2c0.267,0.233,0.75,0.583,1.45,1.05c0.6,0.367,0.967,0.65,1.1,0.85c0.4,0.534,0.65,1.233,0.75,2.1
			c0.067,0.434,0.101,1.184,0.101,2.25c0,0.9,0,1.383,0,1.45c-0.033,0.533-0.15,1-0.351,1.4c-0.1,0.167-0.3,0.4-0.6,0.7
			c-0.333,0.267-0.55,0.5-0.65,0.7c-0.133,0.233-0.25,0.633-0.35,1.2c-0.066,0.533-0.184,0.933-0.35,1.2
			C82.434,151.65,80.967,152.333,79,152.1z M106.05,213l-2.649,3.65c0.267,2.933-0.5,5.366-2.301,7.3
			c-0.533,0.6-0.833,0.983-0.899,1.149c-0.167,0.4-0.017,0.784,0.45,1.15c0.366,0.3,1.05,0.467,2.05,0.5s1.7-0.083,2.1-0.35
			c0.367-0.233,0.667-0.834,0.9-1.801c0.033-0.133,0.166-0.8,0.399-2C106.634,219.634,106.616,216.434,106.05,213z M81.8,236
			l1.9-2.7c0.633-0.899,1.184-1.434,1.649-1.6c0.367,0.467,0.551,1.233,0.551,2.3L81.8,236z M75.1,239.4
			c-0.6,0.566-2.066,0.966-4.399,1.199c-2.1,0.167-3.267,0.584-3.5,1.25c0.6,0.267,1.733,0.4,3.4,0.4c2.266,0.3,3.75,0.434,4.45,0.4
			c0.8,0,1.351-0.034,1.65-0.101c0.434-0.1,0.983-0.333,1.649-0.7c3.101-1.8,5.4-3.399,6.9-4.8c-0.634,1.434-1.566,2.533-2.8,3.3
			c-0.533,0.301-1.417,0.733-2.65,1.301c-1.166,0.533-2.066,1-2.7,1.399c-0.699,0.467-1.6,0.867-2.699,1.2L71,244.8
			c-3.1,0.233-5.633,0-7.6-0.7c-0.733-0.3-1.617-0.533-2.65-0.699c-1.167-0.167-2.067-0.317-2.7-0.45
			c-0.933-0.2-2.083-0.601-3.45-1.2c-2.033-0.9-3.15-1.384-3.35-1.45c0.367,0.033,1.417,0.05,3.15,0.05
			c1.3-0.066,2.184-0.183,2.65-0.35c0.333-0.1,0.784-0.333,1.35-0.7c0.567-0.333,1.017-0.55,1.35-0.649
			c0.4-0.101,0.917-0.084,1.55,0.05c0.367,0.1,0.867,0.233,1.5,0.399c3.4,0.7,5.717,0.817,6.95,0.351l0.4-0.2
			c0.867-0.467,1.517-1.233,1.95-2.3c0.4-0.934,0.7-2.617,0.9-5.05c0.233-1.867,0.4-3,0.5-3.4c0.167-0.667,0.35-1.167,0.55-1.5
			l1-4.35c0,0.533,0.101,1.966,0.3,4.3c0.134,1.733,0.15,3.166,0.051,4.3c-0.067,0.667-0.233,1.634-0.5,2.9s-0.434,2.216-0.5,2.85
			c-0.101,0.667-0.034,1.25,0.199,1.75C74.8,239.083,74.967,239.3,75.1,239.4z M85.75,254c0.033,1.767,0.2,4.384,0.5,7.85
			c0.2,3.134,0.1,5.75-0.3,7.851c-0.367,2.1-1.684,4.116-3.95,6.05c-1.2,1.066-2.65,1.866-4.35,2.4
			c-1.967,0.6-3.617,0.583-4.95-0.051c-0.167-0.1-0.467-0.366-0.9-0.8c-0.366-0.366-0.717-0.583-1.05-0.649L70.2,276.6
			c-0.3,0.034-0.534,0.051-0.7,0.051c-0.267,0-0.483-0.034-0.65-0.101c0.066-0.434,0.55-0.833,1.45-1.2
			c0.5-0.199,1.184-0.449,2.05-0.75c0.7-0.3,1.634-0.883,2.801-1.75c1.199-0.866,2.149-1.449,2.85-1.75
			c2.566-1.166,4.3-3.3,5.2-6.399c0.633-2.134,0.916-5.033,0.85-8.7l0.101-0.2l0.3-0.649l1.3-2.801
			C85.717,252.917,85.717,253.467,85.75,254z M61.25,303.85c-0.5,0.667-1.067,1.134-1.7,1.4c1,0.233,1.567,0.55,1.7,0.95
			c0.1,0.366-0.083,0.967-0.55,1.8c-0.4,0.733-0.817,1.167-1.25,1.3c-0.434,0.134-1.1,0.033-2-0.3c-0.833-0.3-1.333-0.783-1.5-1.45
			c-0.067-0.899-0.167-1.649-0.3-2.25c-0.066-0.467-0.233-0.983-0.5-1.55c0.567,0.4,1.133,0.684,1.7,0.85
			C58.417,305.033,59.883,304.783,61.25,303.85z M83.1,295.5c-0.033-0.267-0.149-0.533-0.35-0.8l-0.1-0.05
			c-0.2-1.4-0.351-2.801-0.45-4.2c0.566-0.601,1.217-1.467,1.95-2.601C83.417,291.283,83.066,293.833,83.1,295.5z M94.55,255.85
			c0.9,0.934,2.283,1.934,4.15,3c2.3,1.367,3.75,2.267,4.35,2.7c1.101,0.834,1.867,2.483,2.3,4.95c0.167,1.134,0.167,2.616,0,4.45
			c-0.199,2.566-0.3,4.033-0.3,4.399c0,0.567-0.083,1.75-0.25,3.551c-0.1,1.5-0.133,2.683-0.1,3.55c0,0.2,0.05,0.517,0.149,0.95
			c0.101,0.366,0.15,0.716,0.15,1.05c0,0.533-0.05,1.184-0.15,1.95c-0.033,0.633,0.051,1.233,0.25,1.8
			c0.167,0.434,0.617,1.267,1.351,2.5c0.566,0.934,0.883,1.816,0.95,2.649c0.1,0.967,0,2.067-0.301,3.301
			c-0.199,0.733-0.566,1.767-1.1,3.1c-0.2,0.467-0.6,1.15-1.2,2.05c-0.767,1.134-1.483,1.95-2.149,2.45l-1.7-0.65
			c-0.934-0.3-1.867-0.816-2.8-1.55c-0.467-0.333-1.284-1.033-2.45-2.1c-1.767-1.634-3.4-4.017-4.9-7.15
			c-0.233,1.134-0.416,2.483-0.55,4.05c-0.066,0.9-0.15,2.267-0.25,4.101c-0.033,0.366-0.083,1-0.15,1.899
			c-0.066,0.834-0.216,1.45-0.449,1.851c-0.267,0.5-0.65,0.85-1.15,1.05c-0.566,0.2-1.116,0.184-1.65-0.05
			c-0.433-0.2-0.666-0.367-0.699-0.5c0-0.233-0.051-0.517-0.15-0.851c-0.2-0.767-0.65-1.949-1.35-3.55
			c-0.634-1.533-1.051-2.7-1.25-3.5l0.05-0.649l0.149,1.05c0.233,0.8,0.717,1.583,1.45,2.35c0.233,0.233,0.967,0.867,2.2,1.9
			c0.2-1.066,0.517-2.5,0.95-4.3c0.7-2.267,1.149-3.9,1.35-4.9c0.233-1.1,0.367-2.366,0.4-3.8c0-1.7,0-2.983,0-3.851
			c0.1-5.433,0.116-9.5,0.05-12.199c-0.267-2.167-0.4-3.801-0.4-4.9c0.301,1.167,0.95,3.2,1.95,6.1c0.9,2.5,1.483,4.517,1.75,6.051
			c0.134,0.767,0.351,1.85,0.65,3.25c0.233,1.233,0.383,2.3,0.45,3.199c0.199,2.867,0.416,5.051,0.649,6.551
			c0.101,0.533,0.184,1.533,0.25,3c0.101,1.3,0.367,2.216,0.8,2.75c0.601,0.733,1.733,1.267,3.4,1.6c0.9,0.2,2.167,0.434,3.8,0.7
			c0.233-2.167-0.616-4.667-2.55-7.5c-1.333-2-2.25-3.667-2.75-5c-0.6-1.7-0.833-3.566-0.7-5.601c0.5-3.6,0.851-6.35,1.05-8.25
			c0.334-3.433,0.067-6.133-0.8-8.1c-0.7-1.1-1.133-1.983-1.3-2.65c-0.134-0.433-0.2-1-0.2-1.699c-0.033-0.934-0.066-1.517-0.1-1.75
			c-0.033-0.667-0.066-1.067-0.101-1.2c-0.1-0.434-0.283-0.767-0.55-1c-0.066-0.066-0.816-0.351-2.25-0.851
			c-1.066-0.366-1.517-0.883-1.35-1.55C92.05,255.983,93.083,255.917,94.55,255.85z M61.4,202h-1.45c-1.3,0.8-2.184,1.25-2.65,1.35
			l-0.5,0.15l-1.1,0.15h-4.15c-2.6,0.066-4.75-0.483-6.45-1.65c0.3-0.434,1.333-0.517,3.1-0.25c0.933,0.167,2.083,0.366,3.45,0.6
			h3.1c1.1,0,2.833-0.116,5.2-0.35c1.066-0.667,1.883-1,2.45-1L61.4,202z M56,219.65l-0.45,2.3l-0.1,0.5
			c-0.233,1.133-0.367,1.75-0.4,1.85c-0.267,0.667-0.683,1.117-1.25,1.351c-0.3,0.133-0.767,0.166-1.4,0.1
			c-0.733-0.066-1.167-0.233-1.3-0.5c-0.167-0.366,0.033-0.7,0.6-1c0.733-0.233,1.183-0.417,1.35-0.55c0.7-0.533,1.367-1.684,2-3.45
			c0.534-1.566,0.867-2.65,1-3.25c0.133-0.434,0.167-1.233,0.1-2.4c-0.033-1.233,0-2.083,0.1-2.55
			c0.133-0.467,0.283-0.816,0.45-1.05C56.733,213.533,56.5,216.417,56,219.65z"/>
		<path style="fill-rule:evenodd;clip-rule:evenodd;fill:#3F3932;" d="M82.75,69.4c0.134,1.7,0.15,3.917,0.05,6.65
			c-0.066,1.9-0.1,3.4-0.1,4.5l-0.101,2c0.067,0.667,0.134,1.867,0.2,3.6c0.101,1.567,0.316,2.7,0.65,3.4
			c0.1,0.233,0.3,0.483,0.6,0.75c-0.333,0.967-0.916,1.434-1.75,1.4c-0.767-0.067-1.383-0.65-1.85-1.75
			c-0.4-1.267-0.75-2.117-1.05-2.55c-0.967-1.4-1.967-2.2-3-2.4c-0.267-0.067-0.784-0.133-1.551-0.2
			c-0.533-0.066-1.017-0.2-1.449-0.4c-0.434-0.267-0.733-0.45-0.9-0.55c-0.233-0.133-0.616-0.167-1.15-0.1
			c-0.166,0-0.766,0.133-1.8,0.4c-0.767,0.2-1.333,0.233-1.7,0.1c0.533-0.467,1.267-1.1,2.2-1.9c0.767-0.7,1.384-1.467,1.851-2.3
			c0.166-0.267,0.35-0.733,0.55-1.4c0.166-0.6,0.35-1.033,0.55-1.3c0.066,0.233,0.033,1.1-0.1,2.6c-0.134,1.3-0.067,2.066,0.199,2.3
			c0.267,0.2,0.65,0.217,1.15,0.05c0.634-0.233,1.017-0.35,1.15-0.35c0.033,0,0.683,0.3,1.949,0.9c0.834,0.4,1.551,0.367,2.15-0.1
			c0.533-0.4,0.733-1.283,0.6-2.65c-0.233-1.467-0.35-2.45-0.35-2.95c0-0.667,0.3-1.7,0.9-3.1c0.6-1.3,0.85-2.316,0.75-3.05
			L82.75,69.4z M77.75,293.45l-0.35-0.101c0.166-0.399,0.649-1,1.449-1.8c0.834-0.8,1.351-1.434,1.551-1.899
			c0.899-2,1.449-4.017,1.649-6.051c-0.033,2.267,0.017,4.551,0.15,6.851c0.1,1.399,0.25,2.8,0.45,4.2l0.1,0.05
			c0.2,0.267,0.316,0.533,0.35,0.8c0.067,0.233,0.101,0.616,0.101,1.15l-0.05,0.649c0.199,0.8,0.616,1.967,1.25,3.5
			c0.699,1.601,1.149,2.783,1.35,3.55c0.1,0.334,0.15,0.617,0.15,0.851c0.033,0.133,0.267,0.3,0.699,0.5
			c0.534,0.233,1.084,0.25,1.65,0.05c0.5-0.2,0.884-0.55,1.15-1.05c0.233-0.4,0.383-1.017,0.449-1.851
			c0.067-0.899,0.117-1.533,0.15-1.899c0.1-1.834,0.184-3.2,0.25-4.101c0.134-1.566,0.316-2.916,0.55-4.05
			c1.5,3.134,3.134,5.517,4.9,7.15c1.166,1.066,1.983,1.767,2.45,2.1c0.933,0.733,1.866,1.25,2.8,1.55l1.7,0.65
			c0.666-0.5,1.383-1.316,2.149-2.45c0.601-0.899,1-1.583,1.2-2.05c0.533-1.333,0.9-2.366,1.1-3.1
			c0.301-1.233,0.4-2.334,0.301-3.301c-0.067-0.833-0.384-1.716-0.95-2.649c-0.733-1.233-1.184-2.066-1.351-2.5
			c-0.199-0.566-0.283-1.167-0.25-1.8c0.101-0.767,0.15-1.417,0.15-1.95c0-0.334-0.05-0.684-0.15-1.05
			c-0.1-0.434-0.149-0.75-0.149-0.95c-0.033-0.867,0-2.05,0.1-3.55c0.167-1.801,0.25-2.983,0.25-3.551
			c0-0.366,0.101-1.833,0.3-4.399c0.167-1.834,0.167-3.316,0-4.45c-0.433-2.467-1.199-4.116-2.3-4.95
			c-0.6-0.434-2.05-1.333-4.35-2.7c-1.867-1.066-3.25-2.066-4.15-3l-0.399-0.399c0.366-0.167,1.083-0.217,2.149-0.15
			c0.967,0.101,1.667-0.017,2.101-0.35c0.5-0.334,0.966-1.101,1.399-2.3c0.134-0.334,0.417-1.25,0.851-2.75
			c0.267-0.967,0.433-2.067,0.5-3.301c0-0.966-0.051-1.883-0.15-2.75c-0.134-1.133-0.4-2.466-0.8-4
			c-0.5-1.699-0.867-2.983-1.101-3.85c-0.333-1-0.583-1.8-0.75-2.4c-0.333-1.133-0.399-1.933-0.199-2.399
			c2.533,2.934,4.316,6.633,5.35,11.1c0.767,3.334,1.184,7.483,1.25,12.45c0,0.8,0.033,1.35,0.1,1.65
			c0.134,0.466,0.417,0.916,0.851,1.35l1.35,1c0.5,0.366,0.834,0.783,1,1.25c0.467,1.134,0.75,2.967,0.851,5.5
			c0.133,2.566,0.416,4.417,0.85,5.55c0.2,0.5,0.483,1.167,0.85,2c0.301,0.733,0.45,1.483,0.45,2.25c0,0.267-0.083,1.25-0.25,2.95
			c0.033,1.467,0.533,1.917,1.5,1.35c0.434-0.267,0.634-1.183,0.601-2.75c-0.101-1.733-0.167-2.783-0.2-3.149
			c0-0.4-0.117-0.9-0.351-1.5c-0.233-0.601-0.35-1.066-0.35-1.4c-0.033-0.467,0.134-1.05,0.5-1.75c0.5-0.733,0.816-1.25,0.95-1.55
			c0.233-0.434,0.434-0.917,0.6-1.45c0.3,1.367,0.467,3.017,0.5,4.95c0,0.2,0.017,0.417,0.05,0.65V273
			c-0.033,0.866-0.05,1.866-0.05,3c0.033,0.7,0.15,1.667,0.351,2.9c0.333,1.5,0.899,3.699,1.699,6.6c0.233,1,0.517,3,0.851,6
			c0.133,1.233,0.116,2.167-0.05,2.8c-0.167,0.601-0.617,1.384-1.351,2.351c-1.3,1.6-2.483,2.816-3.55,3.649
			c-0.1,1.233-0.417,2.134-0.95,2.7c0.033,1-0.2,2.116-0.7,3.35c-0.833,2-1.267,3.051-1.3,3.15c-0.333,1.134-0.6,1.783-0.8,1.95
			c-0.267,0.233-1.066,0.467-2.4,0.7l-2.25,0.5c-1.633,0.366-2.933,0.616-3.899,0.75c-1.467,0.233-4.75,0.383-9.851,0.449
			c-4.133,0.067-7.399,0.5-9.8,1.301l-2,0.75l1.851-2.45c0.866-0.9,1.533-1.601,2-2.101c0.866-0.933,1.433-1.716,1.699-2.35
			c0.434-1.134,0.517-2.533,0.25-4.2c-0.066-0.399-0.267-0.934-0.6-1.6c-0.333-0.7-0.55-1.217-0.65-1.55
			c-0.066-0.367-0.1-0.851-0.1-1.45c0.033-0.7,0.05-1.2,0.05-1.5l0.101-1.4L83.1,297c-0.033-0.066-0.183-0.85-0.449-2.35
			c-0.334-0.334-1.084-0.584-2.25-0.75C78.934,293.7,78.05,293.55,77.75,293.45z M54.75,274.5c0.233,3.2,0.283,8.1,0.15,14.7
			l-0.05,5.899L54.8,300.4l-0.05,1.3c0,0.566,0.133,1.25,0.4,2.05c0.267,0.566,0.434,1.083,0.5,1.55
			c0.133,0.601,0.233,1.351,0.3,2.25c0.167,0.667,0.667,1.15,1.5,1.45c0.9,0.333,1.566,0.434,2,0.3c0.433-0.133,0.85-0.566,1.25-1.3
			c0.466-0.833,0.65-1.434,0.55-1.8c-0.133-0.4-0.7-0.717-1.7-0.95c0.633-0.267,1.2-0.733,1.7-1.4c0.7-1,1.217-2.683,1.55-5.05
			c0.034-0.133,0.133-0.934,0.3-2.399c0.133-1.334,0.333-2.4,0.6-3.2c0.6-1,0.933-1.767,1-2.3c0.566,2.5,0.95,5.149,1.15,7.949
			c0.2,2.7,0.167,5.384-0.1,8.051l-0.1,0.699c-0.433,3.301-1.2,5.684-2.3,7.15c-0.2-0.566,0.017-1.267,0.65-2.1
			c-0.467-0.567-1.3-0.934-2.5-1.101c-0.367-0.033-1.317-0.05-2.85-0.05h-12.2l-0.05-0.15c-0.133-1.267,0.3-2.716,1.3-4.35
			c0.167-0.3,0.45-0.634,0.85-1c0.4-0.434,0.667-0.75,0.8-0.95c0.267-0.467,0.483-1.066,0.65-1.8c0.1-0.833,0.2-1.45,0.3-1.85
			c0.434-1.467,0.733-2.567,0.9-3.301c0.333-1.3,0.367-2.399,0.1-3.3c-0.133,0.033-0.55,0.167-1.25,0.4
			c-0.5,0.166-0.933,0.2-1.3,0.1c-0.167-0.733,0.067-1.75,0.7-3.05c0.833-1.533,1.417-2.616,1.75-3.25l0.45-0.9
			c0.267-0.633,0.517-1.433,0.75-2.399c0.267-1.101,0.467-1.917,0.6-2.45c0.5-2.1,0.75-4.05,0.75-5.85
			c-0.067-1.334-0.05-2.334,0.05-3c0.034-1.834,0.2-3.134,0.5-3.9C54.5,271.9,54.65,273.233,54.75,274.5z M79.9,55.05
			c-0.101-0.2-0.2-0.383-0.301-0.55L78.2,52.95c-0.033,0-0.066-0.017-0.101-0.05c-0.1-0.066-0.35-0.133-0.75-0.2
			c-0.3-0.067-0.517-0.184-0.649-0.35c-0.334-0.367-0.417-0.8-0.25-1.3C76.717,50.45,76.9,50,77,49.7l0.1-0.35
			c0.233-0.8,0.351-1.817,0.351-3.05c-0.033-1.433-0.05-2.483-0.05-3.15v-5.7l0.3,1c0.533,1.5,0.916,3.267,1.149,5.3
			c0.067,0.733,0.184,2.55,0.351,5.45l0.35-1.2l0.15,4.5C79.733,53.3,79.8,54.15,79.9,55.05z M69.55,122.6
			c0.067-0.267,0.317-0.583,0.75-0.95l0.75-0.9c0.334-0.467,0.634-1,0.9-1.6l0.05-0.2c0.4-0.867,0.75-2.067,1.05-3.6l0.3-0.15
			L77.4,113c-0.2,0.367-0.4,0.983-0.601,1.85c-0.133,0.933-0.267,1.6-0.399,2c-0.834,2.267-1.817,4-2.95,5.2
			c-0.334,0.333-0.717,0.583-1.15,0.75c-0.866,0.4-1.816,0.417-2.85,0.05L69.55,122.6z M80.65,107.8c0-0.633,0.149-1.083,0.449-1.35
			c0.334-0.3,1.15-0.4,2.45-0.3c1.233,0.067,1.983,0.233,2.25,0.5c0.733,0.6,1.167,1.7,1.3,3.3c0.067,0.9,0.051,2.133-0.05,3.7
			l-2,0.35c0.066-0.767,0.017-1.567-0.149-2.4c-0.233-1.033-0.601-1.717-1.101-2.05c-0.3-0.233-0.783-0.333-1.45-0.3
			c-1.033,0.033-1.566,0.05-1.6,0.05C80.684,108.667,80.65,108.167,80.65,107.8z M79,152.1c1.967,0.233,3.434-0.45,4.4-2.05
			c0.166-0.267,0.283-0.667,0.35-1.2c0.1-0.567,0.217-0.967,0.35-1.2c0.101-0.2,0.317-0.433,0.65-0.7c0.3-0.3,0.5-0.534,0.6-0.7
			c0.2-0.4,0.317-0.867,0.351-1.4c0-0.067,0-0.55,0-1.45c0-1.066-0.033-1.816-0.101-2.25c-0.1-0.867-0.35-1.566-0.75-2.1
			c-0.133-0.2-0.5-0.483-1.1-0.85c-0.7-0.467-1.184-0.817-1.45-1.05c-0.467-0.4-0.649-0.8-0.55-1.2c0.866-0.367,1.866-0.684,3-0.95
			l2.3-18.35c0.066,0.533,0.316,1.15,0.75,1.85c0.267,0.4,0.634,0.967,1.101,1.7c0.767,1.5,1.383,3.117,1.85,4.85
			c0.233,1.1,0.35,2.45,0.35,4.05c0,0.9-0.017,2.25-0.05,4.05v7.3c0,0.4-0.017,1.05-0.05,1.95c0,0.767,0.116,1.383,0.35,1.85
			c0.233,0.4,0.733,0.933,1.5,1.6c0.767,0.633,1.25,1.2,1.45,1.7c0.233,0.534,0.384,1.383,0.45,2.55c0.066,0.833,0.1,1.917,0.1,3.25
			c-0.033,0.733-0.066,1.816-0.1,3.25c0,0.267,0.05,0.983,0.15,2.15c0.033,1.133-0.017,1.983-0.15,2.55c0.9,3.3,1.333,5.934,1.3,7.9
			c0,1.066,0.15,3.1,0.45,6.1c0.267,2.533,0.333,4.584,0.2,6.15L96.65,182c-0.067,0.7-0.217,1.267-0.45,1.7
			c-0.233,0.366-0.617,0.8-1.15,1.3c-0.5,0.5-0.783,0.884-0.85,1.15l-0.15,1.5c-0.1,1.633-0.95,3.116-2.55,4.449
			c-1.066,0.9-2.267,1.551-3.6,1.95c-1.4,0.434-2.667,0.517-3.801,0.25c0.467-0.733,0.834-1.316,1.101-1.75
			c0.434-0.833,0.483-1.566,0.149-2.2c-0.233-0.466-0.899-0.966-2-1.5c-0.633-0.3-0.683-1.017-0.149-2.149
			c0.533-1.134,1.333-2.283,2.399-3.45c0.601-0.7,1.567-1.717,2.9-3.05c0.066-0.066,0.634-0.634,1.7-1.7
			c0.767-0.733,1.283-1.333,1.55-1.8c0.4-0.733,0.583-1.934,0.55-3.601c-0.166-1.833-0.25-3.083-0.25-3.75v-7.7l1-4.25
			c0-4.2,0.017-6.717,0.05-7.55c-0.8,1.433-1.449,2.45-1.949,3.05c-0.9,1.033-1.95,1.383-3.15,1.05c-0.866-0.367-1.45-0.6-1.75-0.7
			c-0.467-0.167-1.1-0.1-1.9,0.2c-1.767,0.667-3.5,1.117-5.199,1.35c-2.101,0.267-3.884,0.15-5.351-0.35
			c0.634-0.3,1.45-0.833,2.45-1.6C77.184,152.25,78.1,152,79,152.1z M106.05,213c0.566,3.434,0.584,6.634,0.05,9.6
			c-0.233,1.2-0.366,1.867-0.399,2c-0.233,0.967-0.533,1.567-0.9,1.801c-0.399,0.267-1.1,0.383-2.1,0.35s-1.684-0.2-2.05-0.5
			c-0.467-0.366-0.617-0.75-0.45-1.15c0.066-0.166,0.366-0.55,0.899-1.149c1.801-1.934,2.567-4.367,2.301-7.3L106.05,213z
			 M85.25,237.05c-1.5,1.4-3.8,3-6.9,4.8c-0.666,0.367-1.216,0.601-1.649,0.7c-0.3,0.066-0.851,0.101-1.65,0.101
			c-0.7,0.033-2.184-0.101-4.45-0.4c-1.667,0-2.8-0.134-3.4-0.4c0.233-0.666,1.4-1.083,3.5-1.25c2.333-0.233,3.8-0.633,4.399-1.199
			L75.4,239l6.399-3l4.101-2l2.85-1.35C87.95,234.15,86.783,235.616,85.25,237.05z"/>
		<path style="fill-rule:evenodd;clip-rule:evenodd;fill:#5E5140;" d="M27.7,304.2c0.9,0.366,2.033,0.583,3.4,0.649
			c1.2,0.067,2.183,0.017,2.95-0.149c0.633-0.134,1.367-0.566,2.2-1.3c0.9-0.767,1.617-1.217,2.15-1.351l0.55-0.1l-2.4,1.649
			c0.233-0.066,1.3-0.366,3.2-0.899c1.3-0.367,2.367-0.7,3.2-1c1.466-0.5,2.566-0.95,3.3-1.351c0.5-0.333,0.883-0.6,1.15-0.8
			c0.467-0.3,0.883-0.434,1.25-0.399c-0.367,0.699-0.816,1.649-1.35,2.85c-0.5,1.033-1.1,1.9-1.8,2.6c-1,1-1.717,1.667-2.15,2
			c-0.9,0.7-1.767,1.067-2.6,1.101c0.033,0.566-0.1,1.217-0.4,1.95c-0.333,0.8-0.75,1.416-1.25,1.85c-0.333,0-0.65,0-0.95,0
			l-5.9-0.8c-0.367-0.101-0.717-0.2-1.05-0.3c-0.9-0.2-1.633-0.367-2.2-0.5c-1.067-0.267-1.7-0.567-1.9-0.9
			c-0.267-0.434-0.317-1.116-0.15-2.05c0.033-0.167,0.2-0.851,0.5-2.05l0.2-0.75L27.7,304.2z M32.3,271.3
			c-0.1,0.4-0.15,0.8-0.15,1.2c0,0.333,0.083,0.95,0.25,1.85c0,2.434-0.2,4.65-0.6,6.65c-0.667,3.434-1.6,5.983-2.8,7.65
			c-1.1,1.6-2.433,2.633-4,3.1l-1.7,0.4c0.133-0.434,0.284-0.9,0.45-1.4l0.15-0.45h0.05c0.267-0.2,1.1-0.833,2.5-1.899
			c1-0.7,1.683-1.367,2.05-2c0.3-0.534,0.567-1.45,0.8-2.75c0.767-4.034,1.217-7.233,1.35-9.601c0-1.233,0.017-2.184,0.05-2.85
			c0.066-1.233,0.3-2.15,0.7-2.75c0.267,0.267,0.467,0.7,0.6,1.3C32.1,270.083,32.2,270.6,32.3,271.3z M52.4,225.75
			c0.633,0.066,1.1,0.033,1.4-0.1c0.567-0.233,0.983-0.684,1.25-1.351c0.034-0.1,0.167-0.717,0.4-1.85l0.1-0.5l0.15-0.351
			c0.133-0.433,0.233-1.083,0.3-1.949c0.5-3.233,0.733-6.117,0.7-8.65c-0.167,0.233-0.317,0.583-0.45,1.05
			c-0.2-0.899-0.7-1.85-1.5-2.85c-1.033-1.233-1.65-2.066-1.85-2.5l-4.55-0.601c-0.567-0.1-1.333-0.333-2.3-0.699
			c-1.033-0.367-1.8-0.601-2.3-0.7c-1.667-0.233-3.017-0.434-4.05-0.601c-1.934-0.333-3.15-0.833-3.65-1.5l-0.1-0.149l0.25-0.05
			l0.3-1.801l0.15-1.149c0.267,0.1,0.633,0.3,1.1,0.6s0.8,0.483,1,0.55c0.467,0.134,1.15,0.184,2.05,0.15
			c1.067-0.066,1.784-0.066,2.15,0c0.167,0.033,0.917,0.167,2.25,0.4c0.867,0.133,1.633,0.199,2.3,0.199h5.6
			c2.4,0,4.133-0.066,5.2-0.199c1.867-0.233,3.517-0.733,4.95-1.5c0.733-0.4,2.683-1.334,5.85-2.801c2.4-1.1,4.3-2.1,5.7-3
			c1.3-0.833,2.217-1.533,2.75-2.1c1-1.066,1.384-2.083,1.15-3.05c-1.2,0.066-2.134,0.116-2.8,0.149
			c-1.301,0.067-2.15-0.083-2.551-0.449c1.2-0.233,1.867-0.367,2-0.4c0.634-0.2,1.217-0.533,1.75-1
			c0.667-0.6,1.434-1.684,2.301-3.25c0.366-0.7,0.833-1.283,1.399-1.75c0.334-0.267,0.934-0.7,1.8-1.3
			c0.233-0.2,0.517-0.5,0.851-0.9c-0.3,1-0.634,1.717-1,2.15c-0.233,0.3-0.667,0.633-1.3,1c-0.667,0.399-1.117,0.733-1.351,1
			c0.601,0.1,1.15,0.184,1.65,0.25c0.267,0.133,0.5,0.649,0.7,1.55c0.399,1.967,0.149,3.917-0.75,5.85
			c-0.634,1.367-1.834,2.834-3.601,4.4c-0.3,0.3-1.017,0.783-2.149,1.45c-1,0.566-1.65,1.066-1.95,1.5
			c1.066,0.233,2.6,0.033,4.6-0.601c1.101-0.333,2.566-0.866,4.4-1.6c4.166-1.566,7.267-2.967,9.3-4.2
			c0.366,0.5,0.634,0.967,0.8,1.4c0.167,0.5,0.25,1.184,0.25,2.05c0.134,0.566,0.483,1.217,1.05,1.95
			c0.334,0.434,0.817,1.05,1.45,1.85c2.134,3.2,3.4,6.65,3.8,10.351c-0.267-0.7-0.683-1.25-1.25-1.65
			c-0.366,2.066,0.284,4.9,1.95,8.5c0.634,1.267,0.867,2.733,0.7,4.4c-0.066,0.933-0.517,1.666-1.35,2.199
			c-0.934,0.567-1.5,1.134-1.7,1.7c-0.233-1.033-0.467-3.233-0.7-6.6c-0.033-0.634-0.3-1.55-0.8-2.75
			c-0.5-1.233-0.783-2.15-0.851-2.75c0.067,1.133,0.301,3,0.7,5.6c0.267,2.334,0.184,4.184-0.25,5.55
			c-0.1,0.334-0.316,0.784-0.649,1.351c-0.334,0.6-0.551,1.066-0.65,1.399c-0.134,0.301-0.2,0.801-0.2,1.5
			c-0.033,0.667-0.1,1.134-0.2,1.4c-0.066,0.134-1.149,0.917-3.25,2.35c-1.333,0.934-1.116,1.567,0.65,1.9
			c0.4,0.1,0.866,0.083,1.4-0.05c0.6-0.134,1.017-0.2,1.25-0.2c0.8,0,1.399,0.333,1.8,1c0.233,0.4,0.467,1.134,0.7,2.2
			c0.199,0.934,0.35,2.5,0.449,4.7c0.267,1.866,0.967,3.116,2.101,3.75l1.95,0.949c-0.067,1.233-0.233,2.334-0.5,3.301
			c-0.434,1.5-0.717,2.416-0.851,2.75c-0.434,1.199-0.899,1.966-1.399,2.3c-0.434,0.333-1.134,0.45-2.101,0.35
			c-1.066-0.066-1.783-0.017-2.149,0.15l0.399,0.399c-1.467,0.067-2.5,0.134-3.1,0.2c-0.167,0.667,0.283,1.184,1.35,1.55
			c1.434,0.5,2.184,0.784,2.25,0.851c0.267,0.233,0.45,0.566,0.55,1c0.034,0.133,0.067,0.533,0.101,1.2
			c0.033,0.233,0.066,0.816,0.1,1.75c0,0.699,0.066,1.267,0.2,1.699c0.167,0.667,0.6,1.551,1.3,2.65
			c0.867,1.967,1.134,4.667,0.8,8.1c-0.199,1.9-0.55,4.65-1.05,8.25c-0.133,2.034,0.101,3.9,0.7,5.601c0.5,1.333,1.417,3,2.75,5
			c1.934,2.833,2.783,5.333,2.55,7.5c-1.633-0.267-2.899-0.5-3.8-0.7c-1.667-0.333-2.8-0.866-3.4-1.6
			c-0.433-0.534-0.699-1.45-0.8-2.75c-0.066-1.467-0.149-2.467-0.25-3c-0.233-1.5-0.45-3.684-0.649-6.551
			c-0.067-0.899-0.217-1.966-0.45-3.199c-0.3-1.4-0.517-2.483-0.65-3.25c-0.267-1.534-0.85-3.551-1.75-6.051
			c-1-2.899-1.649-4.933-1.95-6.1c0,1.1,0.134,2.733,0.4,4.9c0.066,2.699,0.05,6.767-0.05,12.199c0,0.867,0,2.15,0,3.851
			c-0.033,1.434-0.167,2.7-0.4,3.8c-0.2,1-0.649,2.634-1.35,4.9c-0.434,1.8-0.75,3.233-0.95,4.3c-1.233-1.033-1.967-1.667-2.2-1.9
			c-0.733-0.767-1.217-1.55-1.45-2.35l-0.149-1.05c0-0.534-0.033-0.917-0.101-1.15c-0.033-1.667,0.317-4.217,1.051-7.65
			c-0.733,1.134-1.384,2-1.95,2.601c-0.134-2.3-0.184-4.584-0.15-6.851c-0.2,2.034-0.75,4.051-1.649,6.051
			c-0.2,0.466-0.717,1.1-1.551,1.899c-0.8,0.8-1.283,1.4-1.449,1.8l0.35,0.101c-0.5,0.166-0.934,0.35-1.3,0.55
			c0.3,0.434,0.8,0.667,1.5,0.7c0.399,0.033,0.983,0.033,1.75,0c0.267,1.967,0.283,4.066,0.05,6.3c-0.2,2-0.783,3.917-1.75,5.75
			c-1.3,2.5-2.833,3.35-4.6,2.55l-0.051-0.5c-1.1,0.834-2.6,1.084-4.5,0.75c-2-0.333-3.033-1.217-3.1-2.649
			c0.267-2.667,0.3-5.351,0.1-8.051c0.333-1.533,0.617-2.649,0.85-3.35c1.1-2.233,1.75-4,1.95-5.3c0.233-1.4,0.233-2.983,0-4.75
			c-0.133-1.267-0.467-2.851-1-4.75c-0.867-3-1.316-4.55-1.35-4.65c-0.2-0.666-0.583-2.833-1.15-6.5c-0.367,1.601-0.6,3.75-0.7,6.45
			c-0.133,3.8-0.233,6-0.3,6.6c-0.433,4-1.133,7.034-2.1,9.101c-0.066,0.2-0.65,0.967-1.75,2.3c-0.9,1.134-1.3,1.9-1.2,2.3
			c0.133,0,0.783-0.017,1.95-0.05c1-0.066,1.684-0.017,2.05,0.15c-0.167,1.466-0.267,2.267-0.3,2.399
			c-0.333,2.367-0.85,4.05-1.55,5.05c-1.367,0.934-2.833,1.184-4.4,0.75c-0.567-0.166-1.133-0.449-1.7-0.85
			c-0.267-0.8-0.4-1.483-0.4-2.05l0.05-1.3c0.8-0.067,1.417-0.5,1.85-1.301c0.267-0.5,0.5-1.333,0.7-2.5
			c0.2-0.833,0.45-1.466,0.75-1.899c0.267-0.4,0.733-0.884,1.4-1.45c0.833-0.733,1.583-1.6,2.25-2.6c0.7-1.134,1.133-2.2,1.3-3.2
			c0.133-0.9,0.15-2.351,0.05-4.351c-0.067-1.899,0-3.35,0.2-4.35c0.967-4.467,1.9-10.85,2.8-19.15c-0.1,1.9,0.083,4.084,0.55,6.551
			c0.267,1.433,0.717,3.566,1.35,6.399c0.167,0.867,0.333,2.101,0.5,3.7c0.167,1.7,0.317,2.934,0.45,3.7
			c0.367,1.6,0.517,2.7,0.45,3.3c0.3-0.667,0.517-1.5,0.65-2.5c0.034-0.3,0.05-0.983,0.05-2.05c-0.033-0.967,0-1.667,0.1-2.101
			l0.55,0.051c0.333,0.066,0.684,0.283,1.05,0.649c0.434,0.434,0.733,0.7,0.9,0.8c1.333,0.634,2.983,0.65,4.95,0.051
			c1.699-0.534,3.149-1.334,4.35-2.4c2.267-1.934,3.583-3.95,3.95-6.05c0.399-2.101,0.5-4.717,0.3-7.851
			c-0.3-3.466-0.467-6.083-0.5-7.85c1.033-0.366,2.616-0.934,4.75-1.7c1.8-0.767,3.083-1.649,3.85-2.649
			c1.067-1.4,1.634-2.5,1.7-3.301c0.134-0.933-0.184-2.116-0.95-3.55c-0.767-1.399-1.533-2.333-2.3-2.8
			c-0.8,0.434-1.767,1.5-2.899,3.2c-1.067,1.666-2.051,2.717-2.95,3.149c-0.601,0.301-1.533,0.551-2.8,0.75
			c-1.367,0.2-2.317,0.4-2.851,0.601c-0.566,0.233-1.666,0.767-3.3,1.6c-1.366,0.7-2.517,1.184-3.45,1.45
			c-0.8,0.233-1.967,0.517-3.5,0.85c-1.633,0.334-2.8,0.601-3.5,0.801c-0.533,0.233-0.883,0.383-1.05,0.449
			c-0.3,0.101-0.7,0.134-1.2,0.101c-1.466-0.101-4.017-0.55-7.65-1.351c-4.833-0.966-9.017-1.75-12.55-2.35
			c-2.733-0.467-4.75-1.316-6.05-2.55c-0.3-0.267-0.633-0.717-1-1.351c-0.367-0.633-0.667-1.083-0.9-1.35
			c-0.267-0.333-0.717-0.767-1.35-1.3c-2.433-2.134-4.316-4.167-5.65-6.101l0.05-0.1c0.1-0.167,0.216-0.333,0.35-0.5
			c0.733-0.833,1.25-1.45,1.55-1.85c0.533-0.7,0.867-1.417,1-2.15c0.066-0.366,0.15-0.833,0.25-1.4
			c0.033-0.166,0.05-0.316,0.05-0.449c0.5,1.033,1.167,2.05,2,3.05c0.833,1.033,1.6,1.767,2.3,2.2c0.566,0.333,1.267,0.55,2.1,0.649
			c0.5,0.066,1.233,0.134,2.2,0.2c0.733,0.1,1.783,0.267,3.15,0.5c1.2,0.167,2.25,0.25,3.15,0.25h4.6c1.6,0,3.55,0.167,5.85,0.5
			c1.3,0.2,3.25,0.5,5.85,0.9l5.55,0.85l-0.4,0.2c-1.233,0.467-3.55,0.35-6.95-0.351c-0.633-0.166-1.133-0.3-1.5-0.399
			c-0.633-0.134-1.15-0.15-1.55-0.05c-0.333,0.1-0.783,0.316-1.35,0.649c-0.566,0.367-1.017,0.601-1.35,0.7
			c-0.466,0.167-1.35,0.283-2.65,0.35c-1.733,0-2.783-0.017-3.15-0.05c0.2,0.066,1.317,0.55,3.35,1.45c1.367,0.6,2.517,1,3.45,1.2
			c0.633,0.133,1.534,0.283,2.7,0.45c1.033,0.166,1.917,0.399,2.65,0.699c1.967,0.7,4.5,0.934,7.6,0.7l3.4-0.55
			c1.1-0.333,2-0.733,2.699-1.2c0.634-0.399,1.534-0.866,2.7-1.399c1.233-0.567,2.117-1,2.65-1.301c1.233-0.767,2.166-1.866,2.8-3.3
			c1.533-1.434,2.7-2.899,3.5-4.399L85.9,234c0-1.066-0.184-1.833-0.551-2.3c-0.466,0.166-1.017,0.7-1.649,1.6
			c0.566-1.7,1.35-2.883,2.35-3.55c0.566-0.4,1.584-0.634,3.05-0.7c1.334-0.1,2.301-0.45,2.9-1.05c1.6-1.7,2.4-4.25,2.4-7.65
			c0-1.133-0.067-2.517-0.2-4.149c-0.2-1.834-0.334-3.217-0.4-4.15c0-0.5-0.017-0.866-0.05-1.1c-0.033-0.4-0.116-0.733-0.25-1
			c-0.4-0.8-1.2-1.5-2.4-2.101c-1.333-0.633-2.216-1.233-2.649-1.8c-0.4-0.467-0.684-1.116-0.851-1.95
			c-0.233-1-0.449-1.699-0.649-2.1c-0.834-1.8-1.75-3.2-2.75-4.2l-5.601,3.4c-1.533,0.934-3.55,1.833-6.05,2.7
			c-2.867,0.933-4.983,1.616-6.35,2.05c-2.067,0.7-4.684,1.05-7.85,1.05H58.2c-0.1,0.4-0.15,0.616-0.15,0.65
			c-0.1,0.833-0.083,1.916,0.05,3.25c0.2,1.767,0.3,2.833,0.3,3.199c0.067,3.233,0.083,5.367,0.05,6.4
			c-0.1,2.4-0.417,4.483-0.95,6.25c-0.333,1.033-0.667,1.783-1,2.25c-0.533,0.767-1.233,1.116-2.1,1.05
			c-0.566-0.033-1.066-0.6-1.5-1.7C52.5,227.384,52.333,226.517,52.4,225.75z M84.05,178.05l0.05-2.1
			c0.067-6.167-0.083-10.601-0.449-13.3c-0.2-1.467-0.75-2.717-1.65-3.75c-0.1-0.1-0.483-0.45-1.15-1.05l-0.05,0.1
			c-0.366,0.633-1.184,1.583-2.45,2.85c-1.133,1.167-1.899,2.15-2.3,2.95c-0.233,0.5-0.35,1.25-0.35,2.25
			c0,1.1-0.084,1.884-0.25,2.35c-0.134,0.367-0.5,1.084-1.101,2.15c-0.466,0.866-0.767,1.616-0.899,2.25
			c-0.101,0.4-0.217,1.083-0.351,2.05c-0.1,0.834-0.216,1.5-0.35,2c-0.3,1.134-0.65,1.816-1.05,2.05
			c-0.434,0.301-0.9,0.017-1.4-0.85c-0.167-0.3-0.316-0.733-0.45-1.3c-0.167-0.601-0.317-1.05-0.45-1.351
			c-0.233-0.5-0.617-0.949-1.15-1.35c-0.667-0.434-1.167-0.783-1.5-1.05c-0.433-0.334-0.883-0.834-1.35-1.5
			c0.767,0.6,1.817,0.583,3.15-0.05c1.233-0.601,2.05-1.384,2.45-2.351c0.1-0.333,0.134-0.8,0.1-1.399
			c-0.066-0.733-0.083-1.2-0.05-1.4c0.3-1.3,0.5-2.283,0.601-2.95c0.267-1.833-0.101-3.066-1.101-3.7
			c-1.833,0.533-3.65,0.867-5.45,1c-0.067,0-1.4,0.183-4,0.55c-1.6,0.2-2.934,0.267-4,0.2c-1.3-0.067-3.333-0.583-6.1-1.55
			c-2.3-0.767-4.017-1.333-5.15-1.7c-2-0.667-3.633-1.333-4.9-2l-0.05-0.05c0.4-0.433,0.9-0.767,1.5-1c0.1-0.033,0.6-0.167,1.5-0.4
			H44h1.4c0.767,0,1.567,0.1,2.4,0.3c0.5,0.133,1.25,0.35,2.25,0.65c0.133,0.6,0.967,1.05,2.5,1.35c0.8,0.133,1.75,0.25,2.85,0.35
			c1.9,0.333,3.167,0.467,3.8,0.4c0.333-0.034,0.783-0.15,1.35-0.35h-3.5c-0.867-0.033-2.066-0.4-3.6-1.1
			c4.367,0.567,8.65,0.267,12.85-0.9c0.467-0.133,1.15-0.333,2.05-0.6c0.833-0.233,1.517-0.5,2.05-0.8
			c0.767-0.434,1.633-1.167,2.6-2.2c1.3-1.4,2.083-2.217,2.35-2.45c0.867-0.733,1.634-1.55,2.301-2.45
			c0.866-1.133,1.35-2.133,1.449-3c0.101-0.934-0.216-1.567-0.949-1.9c-1.034-0.233-1.834-0.434-2.4-0.6
			c-1.434-0.567-2.566-1.017-3.4-1.35c-1.533-0.633-2.649-0.85-3.35-0.65c-0.333,0.1-0.85,0.4-1.55,0.9
			c-0.633,0.433-1.217,0.683-1.75,0.75c-1.133,0.133-2.6,0-4.4-0.4c-3.233-0.767-5.1-1.5-5.6-2.2c0.633-0.033,1.417-0.483,2.35-1.35
			c1.467-1.367,2.367-2.35,2.7-2.95c0.133-0.2,0.217-0.583,0.25-1.15c0.067-0.567,0.183-0.967,0.35-1.2
			c0.133-0.167,0.467-0.35,1-0.55c0.5-0.2,0.833-0.4,1-0.6c0.5-0.667,0.816-1.617,0.95-2.85c0.034-1.4,0.083-2.417,0.15-3.05
			c0.233-1.733,0.35-3.617,0.35-5.65c0.133,2.833,0.583,4.833,1.35,6L65.5,125c0.5,0.4,0.933,0.633,1.3,0.7
			c0.434,0.333,0.95,0.45,1.55,0.35c0.467-0.1,0.833-0.367,1.1-0.8c0.4-0.2,1.083-0.717,2.05-1.55l0.8-0.9
			c0.434-0.167,0.816-0.417,1.15-0.75c1.133-1.2,2.116-2.933,2.95-5.2c0.133-0.4,0.267-1.067,0.399-2l0.15-0.25
			c0.633,0.033,1.467,0.417,2.5,1.15c0.566,0.4,1.333,0.967,2.3,1.7c0.2,0.167,0.684,0.5,1.45,1c0.666,0.5,1.066,0.9,1.2,1.2
			c0.233,0.5,0.216,1.383-0.051,2.65c-0.166,0.7-0.383,1.583-0.649,2.65L83.1,129.6c0.034,1.267,0.017,1.967-0.05,2.1
			c-0.533,0.633-1.833,0.85-3.899,0.65c-1.601-0.167-3.65-0.9-6.15-2.2c-2.8-1.433-4.817-2.3-6.05-2.6
			c-0.3,0.333-0.467,0.983-0.5,1.95c0,0.933-0.367,1.633-1.1,2.1c-0.367,0.233-1.117,0.433-2.25,0.6
			c-0.967,0.167-1.617,0.466-1.95,0.9c0.5,0.4,1.184,0.617,2.05,0.65l2.2-0.1c2.633,0,4.783,0.55,6.45,1.65
			c1.301,0.833,3.217,2.133,5.75,3.9c1.434,0.933,3.233,1.75,5.4,2.45c0.767,1.333,0.9,2.667,0.4,4c-0.834,2.367-1.417,3.9-1.75,4.6
			c-0.233,0.467-0.434,0.783-0.601,0.95l-0.35,0.25c-0.2,0.066-0.617-0.167-1.25-0.7c-0.601-0.567-1.184-0.8-1.75-0.7
			c-0.5,0.067-1.2,0.583-2.101,1.55c-1.133,1.233-1.783,1.9-1.949,2c-0.834,0.633-1.467,1.083-1.9,1.35
			c-0.733,0.5-1.417,0.85-2.05,1.05c-2.567,0.767-4.417,1.2-5.55,1.3c0.467,0.034,1.617,0.133,3.45,0.3
			c1.467,0.133,2.633,0.183,3.5,0.15c1.101,0,2.167-0.15,3.2-0.45c0.533-0.167,1.217-0.633,2.05-1.4c0.334-0.167,0.75-0.3,1.25-0.4
			c0.267-0.067,0.667-0.15,1.2-0.25c1.467-0.3,2.617-0.417,3.45-0.35c1.066,0.067,1.816,0.4,2.25,1
			c0.167,0.267,0.283,0.667,0.35,1.2c0.067,0.667,0.134,1.083,0.2,1.25c0.367,1.333,0.95,2.45,1.75,3.35
			c0.7,0.767,1.2,1.566,1.5,2.399c0.267,0.667,0.5,1.601,0.7,2.801c0.066,0.399,0.15,1.05,0.25,1.949
			c0.1,0.767,0.283,1.384,0.55,1.851c0.101,0.2,0.384,0.55,0.851,1.05c0.366,0.434,0.6,0.816,0.699,1.15
			c0.434,1.333,0.384,2.55-0.149,3.649c-0.467,0.934-1.316,1.834-2.55,2.7c-1.101,0.767-1.967,1.45-2.601,2.05
			c-0.666,0.601-1.316,1.017-1.95,1.25c-0.066-0.767-0.066-2.3,0-4.6L84.05,178.05z M62.25,55.3c0.1-0.267,0.2-0.55,0.3-0.85
			L62.5,53.5h0.05c0.267-0.1,0.883-0.15,1.85-0.15c2.9-0.133,4.983-0.5,6.25-1.1v0.05c-0.033,0.034-0.417,0.284-1.15,0.75
			c-0.433,0.3-0.75,0.65-0.95,1.05c0.467,0.167,0.967,0.267,1.5,0.3l-1.15,0.65c-1.467,0.567-3.217,0.75-5.25,0.55
			C62.95,55.533,62.483,55.433,62.25,55.3z M72.65,74l-0.2,0.65c-0.033-3.433-0.05-6-0.05-7.7c0.166-1.567,0.233-2.817,0.199-3.75
			c-0.066-1.733-0.566-2.583-1.5-2.55c-0.1-0.5-0.066-1.167,0.101-2c0.166-0.933,0.233-1.617,0.2-2.05C71.3,55.7,71.167,55,71,54.5
			c1.467,0,2.684-0.167,3.65-0.5c0.267-0.067,0.5-0.167,0.699-0.3c0.301,1.066,0.601,2.65,0.9,4.75c0.2,1.3,0.583,2.7,1.15,4.2
			c0.3,0.833,0.316,1.667,0.05,2.5c-0.5,1.533-0.75,2.35-0.75,2.45c-0.167,1.267-0.05,3,0.35,5.2c0.434,2.534,0.65,4.284,0.65,5.25
			c0,0.267,0.033,0.784,0.1,1.55c0,0.667-0.116,1.117-0.35,1.35c-0.134,0.167-0.717,0.316-1.75,0.45
			c-1.066,0.133-1.717,0.217-1.95,0.25c-0.066-0.967-0.033-2.316,0.1-4.05c0.134-2.033,0.2-3.383,0.2-4.05
			c0.066-1.733,0.117-3.05,0.15-3.95c0.066-1.633,0-2.95-0.2-3.95c-0.533,0.9-0.833,2.267-0.9,4.1C73,71.917,72.85,73.333,72.65,74z
			 M74.4,46.5c-0.233-1.8-0.351-3.167-0.351-4.1c0.033-1.367-0.55-3.1-1.75-5.2c-1.233-2.233-1.9-3.967-2-5.2
			c-0.5-0.233-0.9-0.35-1.2-0.35c-0.067-0.333-0.05-0.783,0.05-1.35c0.133-0.6,0.217-1.05,0.25-1.35v-2.6
			c-0.233-3.733-0.25-6.483-0.05-8.25c0.467-1.733,0.7-3.117,0.7-4.15V8.2V8.15L70.4,7v1.65c0,0.6-0.066,1.667-0.2,3.2
			c-0.067,1.4,0.017,2.45,0.25,3.15c0.1,0.333,0.367,0.783,0.8,1.35c0.434,0.566,0.7,1.033,0.8,1.4c0.233,0.8,0.45,2.217,0.65,4.25
			c0.066,0.333,0.149,0.817,0.25,1.45c0.1,0.6,0.133,1.1,0.1,1.5c0,0.167-0.066,0.5-0.2,1c-0.133,0.4-0.183,0.767-0.149,1.1
			c0.033,0.667,0.217,1.6,0.55,2.8c0.4,1.333,0.634,2.267,0.7,2.8c0.333,2.1,0.583,4.017,0.75,5.75c0.233,2.233,0.35,4.1,0.35,5.6
			C75.05,44.867,74.833,45.7,74.4,46.5z M74.75,110.9v-0.4c-0.033-1.567-0.333-3.667-0.9-6.3c-0.633-2.934-1-5.017-1.1-6.25
			l-0.05-1.5c-0.533-0.467-0.95-0.934-1.25-1.4c-0.267-0.5-0.4-1.1-0.4-1.8c0-0.833,0-1.467,0-1.9c0-0.4-0.066-1.017-0.2-1.85
			c-0.1-0.767-0.15-1.367-0.15-1.8l-1.25-0.1c-0.1,0.167-0.233,0.283-0.4,0.35c-0.2,0.133-0.583,0.216-1.15,0.25
			c-0.5,0.033-0.9,0.183-1.2,0.45c-0.534,0.5-0.917,1.434-1.15,2.8c-0.133,0.733-0.3,1.767-0.5,3.1c-0.8,2.934-1.25,4.8-1.35,5.6
			c0.1-1.033,0.083-2.383-0.05-4.05c-0.167-2.167-0.25-3.567-0.25-4.2c0-1.7-0.167-3.5-0.5-5.4c-1.033-0.5-1.65-1.217-1.85-2.15
			c0.333-0.067,0.983-0.033,1.95,0.1c0.7,0.333,1.15,0.55,1.35,0.65c0.566,0.2,1.117,0.283,1.65,0.25l0.5-0.05
			c0.3-0.033,0.733-0.117,1.3-0.25c0.733-0.167,1.284-0.183,1.65-0.05l-0.05,0.05c-0.3,0.467-0.933,0.9-1.9,1.3
			c-1.167,0.5-1.867,0.833-2.1,1c-0.467,0.333-0.767,0.75-0.9,1.25c-0.1,0.333-0.133,0.833-0.1,1.5c0.1-0.867,0.633-1.567,1.6-2.1
			c0.6-0.3,1.5-0.6,2.7-0.9l1-0.25c0.566-0.2,0.933-0.367,1.1-0.5c0.167-0.133,0.434-0.367,0.8-0.7
			c0.767-0.467,1.983-0.367,3.65,0.3c0.934,0.4,1.467,1.133,1.6,2.2c0.067,0.633,0.15,1.65,0.25,3.05c0.034,0,0.2,0.283,0.5,0.85
			c0.101,0.133,0.2,0.317,0.301,0.55l0.399,0.75c0.5,0.933,1.184,2.367,2.05,4.3c0.801,1.733,1.584,3.117,2.351,4.15
			c1.2,1.667,2.333,2.883,3.399,3.65c-1.633-0.034-3.333-0.633-5.1-1.8c-2.866-1.933-4.417-2.95-4.65-3.05
			c-0.8,0.633-1.066,2-0.8,4.1c0.334,2.5,0.4,4.033,0.2,4.6c-0.066,0.233-0.217,0.5-0.45,0.8
			C75.066,110.467,74.884,110.733,74.75,110.9z M84.45,255.15l-0.3,0.649c-0.2-0.399-0.4-0.684-0.601-0.85l1.25-0.601L84.45,255.15z
			 M61.4,202l1-1c-0.566,0-1.383,0.333-2.45,1c-2.367,0.233-4.1,0.35-5.2,0.35h-3.1c-1.367-0.233-2.517-0.433-3.45-0.6
			c-1.767-0.267-2.8-0.184-3.1,0.25c1.7,1.167,3.85,1.717,6.45,1.65h4.15l1.1-0.15l0.5-0.15c0.467-0.1,1.35-0.55,2.65-1.35H61.4z
			 M74.6,238.75c-0.233-0.5-0.3-1.083-0.199-1.75c0.066-0.634,0.233-1.583,0.5-2.85s0.433-2.233,0.5-2.9
			c0.1-1.134,0.083-2.566-0.051-4.3c-0.199-2.334-0.3-3.767-0.3-4.3l-1,4.35c-0.2,0.333-0.383,0.833-0.55,1.5
			c0.167-2.566,0.017-4.967-0.45-7.2c-0.2-1.033-0.416-1.583-0.649-1.649c-0.5,0.066-1.051,0.066-1.65,0
			c-0.167-0.667,0.1-1.417,0.8-2.25c0.7-0.801,1.384-1.15,2.05-1.051c1.334,0.233,2.051,1.584,2.15,4.051
			c0.134,3.399,0.15,7.066,0.05,11c-0.033,0.966-0.2,2.199-0.5,3.699L74.6,238.75z M34.35,284.45l0.05-1.101
			c0.033-1.966-0.133-4.333-0.5-7.1c-0.433-3.1-0.733-5.45-0.9-7.05l-0.05,0.1c-0.034-2.666-0.067-4.666-0.1-6
			c0-2.399,0.2-4.366,0.6-5.899c0.133-0.567,0.417-1.217,0.85-1.95c0.5-0.8,0.85-1.4,1.05-1.8c0.133-0.2,0.367-1.034,0.7-2.5
			c0.267-1.101,0.7-1.817,1.3-2.15c0.1,0.6,0.133,1.366,0.1,2.3c0,0.533-0.017,1.316-0.05,2.351
			c-0.033,0.866-0.217,1.767-0.55,2.699c-0.233,0.567-0.633,1.417-1.2,2.551c-0.533,1.1-0.833,1.933-0.9,2.5
			c-0.133,1.066-0.183,2.433-0.15,4.1c0.033,0.934,0.066,2.3,0.1,4.1c0,1.634,0.033,4.117,0.1,7.45
			C34.8,279.983,34.65,282.45,34.35,284.45z M32.8,290.45c-1.167,3.1-2.517,5.5-4.05,7.2l-1.05,1.25
			c0.6-1.101,1.017-1.867,1.25-2.301c0.2-0.399,1.316-2.183,3.35-5.35L32.8,290.45z M54.85,295.1l0.05-5.899
			c0.333-1.667,0.5-3.3,0.5-4.9c0.033-2.767,0.05-4.85,0.05-6.25c0-2.467-0.034-4.533-0.1-6.2c-0.333-3.066-0.533-5.366-0.6-6.899
			l-0.05-1c0.2,1.267,0.417,3.149,0.65,5.649c0.3,2.601,0.417,6.2,0.35,10.801l0.05,8.8C55.717,290.967,55.417,292.934,54.85,295.1z
			 M54.75,266.15v8.35c-0.1-1.267-0.25-2.6-0.45-4c-0.3,0.767-0.466,2.066-0.5,3.9c-0.1,0.666-0.117,1.666-0.05,3
			c0,1.8-0.25,3.75-0.75,5.85c-0.133,0.533-0.333,1.35-0.6,2.45c-0.233,0.967-0.483,1.767-0.75,2.399L51.2,289l-1.6,1l0.55-1
			c0.733-1.366,1.25-3.1,1.55-5.2c0.233-2.399,0.45-4.2,0.65-5.399c1.233-6.601,1.8-12.351,1.7-17.25
			c0.267,0.733,0.483,1.633,0.65,2.699v0.101L54.75,266.15z"/>
		<path style="fill-rule:evenodd;clip-rule:evenodd;fill:#76654E;" d="M26.15,259.5c0.167-1.4,0.633-4.55,1.4-9.45l0.2,0.2
			c0.433,0.3,1.1,0.184,2-0.35c0.9-0.467,1.533-0.551,1.9-0.25c0.4,0.333,0.45,1.483,0.15,3.449c-0.2,1.301-0.45,2.45-0.75,3.45
			c-0.2,0.8-0.816,2.017-1.85,3.65c-0.9,1.467-1.4,2.7-1.5,3.7c-0.067,0.733,0,1.649,0.2,2.75c0.267,1.633,0.417,2.533,0.45,2.699
			c0.2,2.067,0.083,4.25-0.35,6.551c-0.267,1.433-0.467,2.366-0.6,2.8c-0.333,1.033-0.767,1.85-1.3,2.45
			c0.066-1.267,0.083-2.9,0.05-4.9c0-0.566-0.017-1.083-0.05-1.55v-1.3c0-0.034,0-0.067,0-0.101v-0.05c0-0.033,0-0.066,0-0.1
			l-0.05-1.7c0-0.033,0-0.066,0-0.101c-0.033-2.633-0.066-4.6-0.1-5.899C25.95,263.083,26.017,261.1,26.15,259.5z M35.45,205.95
			l0.3-0.601c0.467,0.267,0.717,0.75,0.75,1.45c0,0.4-0.033,0.983-0.1,1.75v6.9c0.434-0.033,0.85-0.217,1.25-0.55
			c0.333-0.334,0.583-0.733,0.75-1.2c-0.1,1.3,0.283,3.517,1.15,6.649c0.567-0.033,1.034-1.216,1.4-3.55
			c0.3-2.533,0.483-4.017,0.55-4.45c0.233-1.199,0.567-1.733,1-1.6c0.433,0.1,0.717,0.75,0.85,1.95c0.066,0.7,0.1,2.017,0.1,3.95
			c0,1.666,0.083,2.983,0.25,3.949c0.066,0.267,0.167,0.95,0.3,2.051c0.233,0.966,0.583,1.517,1.05,1.649
			c0.934,0.3,1.633-0.416,2.1-2.149c0.167-0.601,0.35-1.834,0.55-3.7c0.133-1.601,0.45-3.066,0.95-4.4
			c0.767-2.166,1.75-2.733,2.95-1.7c0.533,0.467,0.783,1.9,0.75,4.301c-0.033,1.633-0.15,3.133-0.35,4.5
			c-0.167,1.033-0.6,1.883-1.3,2.55c-0.833,0.767-1.5,0.483-2-0.851c-0.4,0.267-0.65,0.851-0.75,1.75
			c-0.067,0.467-0.117,1.15-0.15,2.051c-0.133,1.066,0.067,2.083,0.6,3.05c0.133,0.267,0.35,0.583,0.65,0.95
			c0.233,0.333,0.35,0.683,0.35,1.05c0.067,0.733-0.217,1.267-0.85,1.6c-0.6,0.367-1.25,0.384-1.95,0.05
			c-0.667-0.3-1.184-1.233-1.55-2.8c-0.333-1.767-0.583-2.934-0.75-3.5c-0.433,0.033-1.066,0.7-1.9,2c-0.7,1.134-1.367,1.55-2,1.25
			c-0.6-0.267-0.933-1.717-1-4.35c-0.1-2.533-0.467-3.834-1.1-3.9c-0.667,0.533-1.2,1.4-1.6,2.601c-0.5,1.699-0.85,2.716-1.05,3.05
			c-0.467-0.233-0.75-0.851-0.85-1.851c0-1.133-0.033-1.883-0.1-2.25c-0.067-0.5-0.284-1.133-0.65-1.899
			c0-0.167,0.017-0.351,0.05-0.55l0.5-5.601c0.033-0.533,0.083-1.1,0.15-1.7c0.133-1.199,0.25-2.3,0.35-3.3l0.35-4.3
			C35.45,206.15,35.45,206.05,35.45,205.95z M39.95,159.15c0.033-0.3,0.066-0.583,0.1-0.85c0.4,0.467,0.567,1.317,0.5,2.55
			c0,0.7-0.033,1.6-0.1,2.7c0.033,0.267,0.083,1.283,0.15,3.05c0.033,1.267,0.15,2.267,0.35,3c0.4,1.5,0.783,1.75,1.15,0.75
			c0.267-0.733,0.45-1.683,0.55-2.85c-0.033-1.434-0.05-2.566-0.05-3.4c0-1.533,0.267-2.55,0.8-3.05c0.533,0.733,0.8,1.917,0.8,3.55
			c0,0.9-0.05,2.134-0.15,3.7v4.7c0,1.8,0.05,2.917,0.15,3.35c0.3,1.134,1.033,1.884,2.2,2.25c1.3,0.4,2.167,0.134,2.6-0.8
			c0.3-1.366,0.567-2.399,0.8-3.1c0.3-0.867,0.483-1.851,0.55-2.95c0.033-0.4,0.05-1.417,0.05-3.05c-0.033-0.733-0.033-1.283,0-1.65
			c0.033-0.666,0.217-1.133,0.55-1.399c0.5,1.3,0.716,3.133,0.65,5.5c-0.133,3.366-0.184,5.233-0.15,5.6
			c0.066,0.533,0.1,1.917,0.1,4.15c0.167,2,0.7,3.116,1.6,3.35c0.567,0.167,0.917,0.033,1.05-0.4c0.066-0.633,0.133-1.116,0.2-1.449
			c0.067-0.334,0.25-0.9,0.55-1.7c0.233-0.7,0.383-1.283,0.45-1.75c0.467-3.967,0.684-7.384,0.65-10.25c0-1.167,0-1.816,0-1.95
			c0.067-0.8,0.267-1.4,0.6-1.8c0.667,1.866,1.05,4.283,1.15,7.25L58,179.6c0.067,0.767,0.067,1.967,0,3.601
			c0.067,1.434,0.417,2.483,1.05,3.149c0.1,0.101,0.317,0.25,0.65,0.45c0.167,0.066,0.283,0.351,0.35,0.851
			c0.067,0.466,0.1,1.083,0.1,1.85c-0.033,0.434-0.066,1.05-0.1,1.85c0,0.301,0.017,0.884,0.05,1.75
			c-0.033,0.801-0.267,1.301-0.7,1.5c-0.667,0.4-1.333,0.184-2-0.649c-0.6-0.767-0.816-1.5-0.65-2.2
			c-0.133,0.233-0.683,1.5-1.65,3.8c-0.733,1.667-1.5,2.7-2.3,3.101c-0.533-0.767-0.767-2.2-0.7-4.301
			c0.167-2.3,0.267-3.816,0.3-4.55c-0.066,0.566-0.217,1.384-0.45,2.45c-0.267,1.1-0.434,1.917-0.5,2.45
			c-0.133,1.333-0.217,2.033-0.25,2.1c-0.233,0.9-0.684,1.3-1.35,1.2c-0.2-0.434-0.283-1.134-0.25-2.1
			c0.1-1.034,0.15-1.75,0.15-2.15c0-2.866-0.083-5.3-0.25-7.3c-0.033-0.7-0.067-1.25-0.1-1.65c-0.133-0.733-0.383-1.217-0.75-1.45
			c-1.133,0.601-1.717,0.9-1.75,0.9c-0.566,0.134-1.05-0.217-1.45-1.05c-0.1-0.2-0.25-0.983-0.45-2.351c-0.167-1.1-0.5-1.8-1-2.1
			c-0.633,0.533-1.067,1.65-1.3,3.35c-0.133,0.9-0.233,2.117-0.3,3.65c-0.1,1.366-0.35,3.384-0.75,6.05
			c-0.233,2.767-0.566,4.217-1,4.351c-0.533,0.199-0.85,0.066-0.95-0.4c0-0.033,0-0.483,0-1.35c0-1.134,0.117-2.767,0.35-4.9
			c0.233-2.233,0.35-3.884,0.35-4.95c0.1-1.767,0.15-3.133,0.15-4.1c0-1.667-0.25-2.95-0.75-3.851l-0.45-0.899l-0.05-0.05l0.3-3.801
			c0.066-0.8,0.066-2.3,0-4.5c-0.067-1.899-0.033-3.399,0.1-4.5c0.066-1.4,0.133-2.517,0.2-3.35L39.95,159.15z M46.85,144.35
			c0.667,1.233,3.083,1.333,7.25,0.3c0.9-0.2,2.183-0.333,3.85-0.4c1.966-0.067,3.3-0.15,4-0.25c0.5-0.067,1.35-0.233,2.55-0.5
			c1.1-0.2,1.95-0.25,2.55-0.15c-0.033,1.3-1.566,2.467-4.6,3.5c-2.9,0.967-4.267,1.8-4.1,2.5c0.066,0.267,0.65,0.55,1.75,0.85
			c0.833,0.233,0.933,0.783,0.3,1.65c-0.4,0.6-1.15,0.967-2.25,1.1c-0.5,0.066-0.867,0.066-1.1,0c-0.3-0.067-0.617-0.267-0.95-0.6
			c-0.133-0.1-0.233-0.333-0.3-0.7c-0.066-0.333-0.216-0.517-0.45-0.55c-0.333-0.067-0.717,0.15-1.15,0.65
			c-0.467,0.567-0.817,0.867-1.05,0.9c-0.566,0.067-1.066-0.367-1.5-1.3c-0.467-1.033-0.9-1.6-1.3-1.7
			c-0.1,0.167-0.317,0.85-0.65,2.05c-0.167,0.7-0.65,1.167-1.45,1.4c-0.867,0.3-1.583-0.017-2.15-0.95c0-0.066,0.017-0.167,0.05-0.3
			L46.2,149c0-0.067,0-0.117,0-0.15c0-0.067,0-0.117,0-0.15c0-0.1,0-0.2,0-0.3c0-0.066,0-0.15,0-0.25c0-1.333,0.15-2.417,0.45-3.25
			C46.717,144.7,46.783,144.517,46.85,144.35z M51.4,109.3l0.15-3.45c0.1-2.9,0.567-6.184,1.4-9.85c0.033-0.1,0.066-0.2,0.1-0.3
			c0.034-0.2,0.083-0.417,0.15-0.65l0.4-1.7c0.133-0.567,0.283-1.15,0.45-1.75l0.05-0.05L54.45,91c0.767,0.067,1.133,1.367,1.1,3.9
			c-0.066,3.033-0.083,4.6-0.05,4.7c0.467-0.1,0.9-0.717,1.3-1.85c0.367-1.233,0.583-1.983,0.65-2.25
			c0.5-1.567,1.183-4.45,2.05-8.65c0.167,0.367,0.25,1.15,0.25,2.35c0,4.233-0.117,7.716-0.35,10.45
			c-0.1,1.133-0.316,2.917-0.65,5.35c-0.2,2.133-0.183,3.9,0.05,5.3c0.9,0.267,1.8-0.15,2.7-1.25c1.2-1.4,1.95-2.183,2.25-2.35
			c0.367,0.367,0.6,0.8,0.7,1.3c1.566-0.033,2.25-2.15,2.05-6.35c-0.267-4.566,0.05-7.1,0.95-7.6c0.733,0.667,1.167,2.05,1.3,4.15
			c0.067,1.167,0.067,2.7,0,4.6v12.45c0,0.4,0.05,1.35,0.15,2.85c0,1.4-0.283,2.25-0.85,2.55c-0.633,0.333-1.216-0.183-1.75-1.55
			c-0.4-1.067-0.617-2.017-0.65-2.85h-0.9c-0.867,0-1.467-0.083-1.8-0.25c-0.6-0.367-1.034-0.617-1.3-0.75
			c-0.467-0.233-0.983-0.3-1.55-0.2c-0.133,0.867-0.184,2.167-0.15,3.9c0,1.767-0.067,3.083-0.2,3.95c-0.133,0.9-0.283,1.6-0.45,2.1
			c-0.233,0.6-0.566,1.2-1,1.8c-0.066,0.167-0.3,0.467-0.7,0.9c-0.434,0.466-0.733,0.7-0.9,0.7c-1.034,0.033-1.684-1-1.95-3.1
			c-0.233-1.933-0.25-4.517-0.05-7.75c0.233-4.2,0.35-6.8,0.35-7.8c-0.2,0.633-0.367,1.45-0.5,2.45
			c-0.066,0.566-0.15,1.417-0.25,2.55c-0.033,0.5-0.1,1.617-0.2,3.35c-0.2,1.566-0.633,2.55-1.3,2.95
			c-0.433,0.267-0.833,0.35-1.2,0.25c-0.267-0.1-0.583-0.35-0.95-0.75C50.983,116.017,51.233,112.267,51.4,109.3z M56.85,75.3
			l0.2,0.35l0.1-1.5v-0.2c0.067-0.167,0.184-0.467,0.35-0.9c0.267-0.733,0.683-1.833,1.25-3.3c0.267-0.3,0.567-0.55,0.9-0.75
			c0.1-0.067,0.5-0.183,1.2-0.35c0.533-0.3,0.95-0.7,1.25-1.2c0.167-0.3,0.4-0.8,0.7-1.5c0.333-0.5,0.633-0.817,0.9-0.95
			c0.367-0.233,0.8-0.133,1.3,0.3c0.433,0.367,0.567,1.083,0.4,2.15c-0.233,1.167-0.217,1.917,0.05,2.25
			c0.167,0.233,0.45,0.417,0.85,0.55c0.434,0.133,0.717,0.3,0.85,0.5c0.367,0.533,0.533,1.617,0.5,3.25
			c-0.033,1.467-0.167,2.567-0.4,3.3c-0.467,1.534-1.483,2.934-3.05,4.2c-1.633,1.333-3.217,1.967-4.75,1.9
			c-1.333-0.033-2.367-0.483-3.1-1.35l0.15-0.95c-0.067-2.067,0-3.767,0.2-5.1C56.733,75.767,56.783,75.533,56.85,75.3z
			 M61.75,56.85c0.8,0.033,1.783-0.017,2.95-0.15c1.033-0.133,1.716-0.25,2.05-0.35c0.867-0.267,1.417-0.367,1.65-0.3
			c0.434,0.067,0.5,0.534,0.2,1.4c-0.367,1.066-1.5,1.816-3.4,2.25c-1.5,0.367-2.95,0.45-4.35,0.25l0.7-2.55l0.15-0.55H61.75z
			 M65.6,32.55l0.4,1.7c0.3,1.133,0.75,2.85,1.35,5.15c0.467,2,0.717,3.75,0.75,5.25c0,0.533,0.05,1.817,0.15,3.85
			c-0.067,1.833-0.433,2.967-1.1,3.4c-1,0.633-1.917,0.333-2.75-0.9c-0.667-1-1.033-2.033-1.1-3.1c-0.1-2.167,0.067-5.05,0.5-8.65
			c0.133-1.067,0.333-1.817,0.6-2.25l-0.05-0.85V36.1l1.25-3.6V32.55z M76,171.25c0.434-3.6,0.9-6.35,1.4-8.25l4.35-2.35
			c0,1.4,0.05,3.9,0.15,7.5c-0.034,3.333-0.284,6-0.75,8c-0.2,0.699-0.384,1.149-0.551,1.35c-0.267,0.3-0.666,0.25-1.199-0.15
			c-0.4-0.3-0.634-0.933-0.7-1.899c-0.167,2.733-0.584,4.983-1.25,6.75c-0.934,2.333-2.267,3.483-4,3.45
			c-0.467,0-0.95-0.167-1.45-0.5c-0.434-0.267-0.884-0.334-1.35-0.2c-0.267,0.1-0.667,0.366-1.2,0.8
			c-0.467,0.366-0.934,0.566-1.4,0.6l-1.25-0.05c-0.1-0.566-0.05-1.233,0.15-2c0.267-0.967,0.417-1.616,0.45-1.95
			c0-0.033-0.083-1.283-0.25-3.75c-0.133-1.8,0.033-2.966,0.5-3.5c0.267,1.034,1.2,2.351,2.8,3.95c1.467,1.5,2.25,2.816,2.35,3.95
			c1.4-0.767,2.15-2.884,2.25-6.35c0.033-0.733,0.167-1.634,0.4-2.7C75.75,172.583,75.934,171.684,76,171.25z M81,205.7
			c0.767,1.233,1.283,2.333,1.55,3.3c0.3,1.2,0.667,1.967,1.101,2.3c0.267,0.2,1.149,0.517,2.649,0.95c1.3,0.4,2.033,1.283,2.2,2.65
			c0.1,1.1-0.184,2.366-0.85,3.8c-0.4-0.066-0.65-0.483-0.75-1.25c-0.167-0.867-0.334-1.384-0.5-1.55
			c-0.167,0.199-0.467,0.383-0.9,0.55c-0.434,0.166-0.7,0.316-0.8,0.45c-0.2,0.267-0.3,0.633-0.3,1.1c0,0.7-0.017,1.1-0.051,1.2
			c-0.1,0.666-0.399,1.517-0.899,2.55c-0.634,1.3-1.017,2.15-1.15,2.55l-0.649,2c-0.634,1.733-1.351,2.4-2.15,2
			c-0.134-0.066-0.2-0.467-0.2-1.2l0.101-1.05v-16.7l-0.65-4.699C79.25,203.783,80,204.134,81,205.7z M89.4,250.95
			c-0.233,0.666-0.784,1.149-1.65,1.45c-0.9,0.267-1.6,0.149-2.1-0.351c0.199-0.7,0.666-1.166,1.399-1.399l0.351-1
			c0.6-0.733,1.149-0.917,1.649-0.551C89.55,249.5,89.667,250.116,89.4,250.95z M66.65,209c0.267,0.366,0.567,0.816,0.9,1.35
			c0.934,1.233,1.55,3.017,1.85,5.351c0.434,3.233,0.733,5.133,0.9,5.7c0.367,1.1,0.5,2.5,0.4,4.199
			c-0.133,2.067-0.684,3.184-1.65,3.351c-0.233-0.467-0.333-1.533-0.3-3.2c0.033-1.4-0.283-2.333-0.95-2.8
			c-0.333,0.666-0.5,1.583-0.5,2.75c0,0.666,0.017,1.616,0.05,2.85c-0.133,1.634-0.467,4.101-1,7.4
			c-1.7,0.666-2.783-0.816-3.25-4.45c-0.233-4.134-0.483-6.517-0.75-7.15c-0.367,0.467-0.817,1.551-1.35,3.25
			c-0.433,1.367-1.1,2.334-2,2.9c-0.2-0.4-0.283-0.833-0.25-1.3c0.033-0.233,0.133-0.717,0.3-1.45c0.434-1.967,0.667-4,0.7-6.1v-10
			l2.3,0.35c0.467,0.434,0.733,1.35,0.8,2.75c0,0.066-0.033,1.184-0.1,3.35c0.033-0.333,0.183-0.733,0.45-1.199
			c0.333-0.567,0.533-0.934,0.6-1.101c0.233-0.6,0.35-1.399,0.35-2.399c-0.066-1.134-0.1-1.967-0.1-2.5c0-1.967,0.45-2.95,1.35-2.95
			C65.733,207.983,66.15,208.333,66.65,209z M38,269c-0.733-2.2-1.15-4.783-1.25-7.75c-0.167-1.5,0.117-3.366,0.85-5.6
			c0.9-2.634,2.05-3.851,3.45-3.65l0.35,0.35c-0.267,0.7-0.35,1.784-0.25,3.25c0.067,0.801,0.15,1.9,0.25,3.301
			c0,0.6-0.017,1.5-0.05,2.699c-0.033,1.101-0.017,2,0.05,2.7c1.567-5.666,3.233-8.783,5-9.35c0.067,0.899,0,2.399-0.2,4.5
			c-0.2,1.899-0.233,3.383-0.1,4.45c0.133,0.866,0.35,2.017,0.65,3.449c0.233,1.267,0.317,2.45,0.25,3.551
			c-0.133,2.566-0.55,5.433-1.25,8.6c-0.4,1.833-1.083,4.634-2.05,8.4c-0.367,1.3-0.583,2.05-0.65,2.25
			c-0.4,0.933-0.933,1.366-1.6,1.3c-0.3-1.434-0.367-3.283-0.2-5.55c0.267-2.567,0.417-4.467,0.45-5.7
			c-0.034,0.267-0.25,0.85-0.65,1.75c-0.1,0.233-0.75,2.017-1.95,5.35c-0.8,2.267-1.6,3.967-2.4,5.101
			c-0.5,0.733-1.233,1.383-2.2,1.949c-0.933,0.5-1.867,0.817-2.8,0.95c-0.3-1.166,0.216-2.8,1.55-4.899
			c1.7-2.634,2.633-4.217,2.8-4.75c0.233-0.767,0.367-1.884,0.4-3.351c0.033-1.566,0.133-2.7,0.3-3.399
			c0.667-2.2,1.133-3.851,1.4-4.95C38.55,272.05,38.5,270.4,38,269z M55.05,257.35l2.35-1.699c0,2.633,0.35,8.133,1.05,16.5
			c0.6,6.899,0.683,12.399,0.25,16.5c-1.267,0.333-2.017-1.417-2.25-5.25c-0.034-0.267-0.05-2.617-0.05-7.051
			c0.033-2,0.05-3.5,0.05-4.5c0-1.767-0.117-3.267-0.35-4.5c-0.467-2.1-0.717-4.149-0.75-6.149c0.066-0.834,0.1-1.483,0.1-1.95
			C55.483,258.384,55.35,257.75,55.05,257.35z M72.05,256.65L71.8,256.3c0.634-0.566,1.384-0.566,2.25,0
			c0.5,0.334,1.184,0.783,2.05,1.351c0.601,0.133,1.483-0.101,2.65-0.7c1.434-0.733,2.267-1.134,2.5-1.2
			c0.7,1.434,0.6,2.983-0.3,4.65c-0.601,1.1-1.617,2.35-3.05,3.75c-0.334,0.366-1,1.267-2,2.699c-0.967,1.2-1.767,1.601-2.4,1.2
			c-0.134-0.066-0.2-0.316-0.2-0.75c0-0.399-0.133-0.7-0.399-0.899l-2.4,0.649c-1.067,0.101-1.75-0.017-2.05-0.35
			c-0.267-0.267-0.35-1.2-0.25-2.8c0.133-1.667,0.2-2.65,0.2-2.95v-4.3H72.05z"/>
	</g>
</g>
</svg>
