<?xml version="1.0" encoding="iso-8859-1"?>
<!-- Generator: Adobe Illustrator 15.1.0, SVG Export Plug-In . SVG Version: 6.00 Build 0)  -->
<!DOCTYPE svg PUBLIC "-//W3C//DTD SVG 1.1//EN" "http://www.w3.org/Graphics/SVG/1.1/DTD/svg11.dtd">
<svg version="1.1" id="FlashAICB" xmlns="http://www.w3.org/2000/svg" xmlns:xlink="http://www.w3.org/1999/xlink" x="0px" y="0px"
	 width="292.25px" height="36.75px" viewBox="0 0 292.25 36.75" style="enable-background:new 0 0 292.25 36.75;"
	 xml:space="preserve">
<g>
	<path style="fill-rule:evenodd;clip-rule:evenodd;fill:#705D23;" d="M212.1,2.45c4.534,1.133,8.7,2.5,12.5,4.1
		c2.4,1.034,6.084,1.483,11.051,1.35c6.833-0.2,14.449,0.45,22.85,1.95c20.667,3.7,31.85,6.767,33.55,9.2
		c1.601,2.267-5.416,3.367-21.05,3.3c-7.434-0.033-23,0.65-46.7,2.051c-24,1.533-37.833,2.399-41.5,2.6
		c-4.133,0.2-11.116,1-20.95,2.4c-12.899,1.8-21.6,2.949-26.1,3.449C128.217,33.684,119,34.4,108.1,35
		c-10.434,0.533-16.65,0.85-18.65,0.95c-1.534,0.066-4.867-0.05-10-0.351c-5.5-0.3-10.85-0.383-16.05-0.25
		c-5.133,0.134-8.617-0.75-10.45-2.649c-1.233-1.267-2.05-2.033-2.45-2.3c-1.233-0.801-2.967-1.351-5.2-1.65
		c-4.566-0.634-12.35-2.85-23.35-6.65c-9.333-3.2-16.217-5.816-20.65-7.85c-2.8-1.267-1.133-2.55,5-3.85c3.067-0.667,6.4-1.2,10-1.6
		l10.65-0.2c8.133-0.1,14.833-0.083,20.1,0.05c9.034,0.267,26.25-2.033,51.65-6.9c8.7-1.667,22.383-2.15,41.05-1.45
		c9.167,0.367,21.767,0.517,37.8,0.45C193.517,0.717,201.6,0.7,201.8,0.7C204.4,0.8,207.833,1.383,212.1,2.45z"/>
	<path style="fill-rule:evenodd;clip-rule:evenodd;fill:#665520;" d="M159.85,12.3c1.2,0.233,2.051,0.817,2.551,1.75
		c0.433,0.867,0.383,1.517-0.15,1.95c-0.4,0.4-1.45,0.367-3.15-0.1c-1.566-0.4-2.6-0.833-3.1-1.3
		c-0.467-0.467-0.283-1.017,0.55-1.65C157.45,12.283,158.55,12.067,159.85,12.3z"/>
	<path style="fill-rule:evenodd;clip-rule:evenodd;fill:#665520;" d="M20.65,15.1c2.567,0.533,3.9,1.117,4,1.75
		c0.1,0.5-0.533,0.967-1.9,1.4c-1.133,0.367-2.683,0.4-4.65,0.1c-2-0.3-3.217-0.8-3.65-1.5c-0.434-0.7,0.083-1.25,1.55-1.65
		C17.433,14.8,18.983,14.767,20.65,15.1z"/>
	<path style="fill-rule:evenodd;clip-rule:evenodd;fill:#665520;" d="M56.15,10.8c2.934-0.233,4.684,0.417,5.25,1.95
		c0.567,1.467-0.017,2.617-1.75,3.45c-1.533,0.767-3.6,1.133-6.2,1.1c-2.633-0.033-4.517-0.45-5.65-1.25
		c-1.1-0.8-0.65-1.816,1.35-3.05C51.117,11.767,53.45,11.033,56.15,10.8z"/>
	<path style="fill-rule:evenodd;clip-rule:evenodd;fill:#665520;" d="M104.2,7.1c2.367,0.167,3.65,0.733,3.85,1.7
		c0.167,0.9-0.667,1.817-2.5,2.75c-1.566,0.833-2.933,1.1-4.1,0.8c-0.3-0.067-1.784-0.7-4.45-1.9c-1.867-0.867-1.783-1.7,0.25-2.5
		C99.217,7.184,101.533,6.9,104.2,7.1z"/>
	<path style="fill-rule:evenodd;clip-rule:evenodd;fill:#665520;" d="M202.7,6.6c1.666-0.233,3.25,0.033,4.75,0.8
		s1.75,1.483,0.75,2.15c-0.967,0.667-2.3,0.85-4,0.55c-1.367-0.233-2.8-0.733-4.3-1.5c-1.067-0.567-1.15-1.033-0.25-1.4
		C200.184,7,201.2,6.8,202.7,6.6z"/>
	<path style="fill-rule:evenodd;clip-rule:evenodd;fill:#665520;" d="M236.25,12.75c2.533-0.033,5.1,0.45,7.7,1.45
		c2.5,0.966,3.217,1.6,2.149,1.9c-2.533,0.8-4.333,1.316-5.399,1.55c-3,0.633-5.5,0.717-7.5,0.25c-2.3-0.533-2.967-1.517-2-2.95
		C232.167,13.55,233.85,12.817,236.25,12.75z"/>
	<path style="fill-rule:evenodd;clip-rule:evenodd;fill:#665520;" d="M130.75,25.45c3.8,0.166,5.483,0.767,5.05,1.8
		c-0.3,0.733-1.417,1.467-3.35,2.2c-1.167,0.434-2.367,0.45-3.6,0.05c-1.1-0.333-1.817-0.833-2.15-1.5c-0.3-0.566,0-1.134,0.9-1.7
		C128.533,25.7,129.583,25.417,130.75,25.45z"/>
	<path style="fill-rule:evenodd;clip-rule:evenodd;fill:#665520;" d="M87,30.2c-2.6-0.2-4.583-0.3-5.95-0.3
		c-2.433,0.033-4.283,0-5.55-0.101c-1.967-0.166-4.067-0.55-6.3-1.149c-2.467-0.634-2.75-1.417-0.85-2.351
		c1.867-0.934,4.816-1.45,8.85-1.55c5.133-0.1,9,0.35,11.6,1.35c2.267,0.867,2.983,1.851,2.15,2.95
		C90.35,29.85,89.033,30.233,87,30.2z"/>
	<path style="fill-rule:evenodd;clip-rule:evenodd;fill:#665520;" d="M216.1,7.6h-4c-2.333,0-4.083,0.05-5.25,0.15
		c-1.8,0.1-4.116,0.383-6.949,0.85c-2.567,0.433-5.467,1.316-8.7,2.65l-12.65,5.15c1.601-0.966,3.367-2.017,5.3-3.15
		c3.834-2.267,6.584-3.816,8.25-4.65l9-4.5c-2.666-0.333-6.666-0.667-12-1c-3.466-0.2-6.283-0.15-8.449,0.15
		c-1.067,0.133-2.25,0.417-3.551,0.85c-1,0.333-6.166,1.833-15.5,4.5l6.5-5l-39.35,1.95L123.1,7.1l2,4.5c-2.667-0.667-5-1.333-7-2
		l-10-3c-5,0-10,0.167-15,0.5L74.6,8.6l4.5,1.8c3.167,1.434,5.167,2.667,6,3.7c1.3,1.633-0.65,1.867-5.85,0.7l-8.15-2.2
		c-2.333,0-5.5-0.167-9.5-0.5l-8.5-0.5l-7.75,2.3l3.7,0.6c2.833,0.567,5.184,1.267,7.05,2.1c3,1.333,13.333,3,31,5h-18l-15.55-2.25
		l-14.5-1.25l-10-2.5c-2.667-1-5.833-1.667-9.5-2c-2.3-0.2-3.816-0.017-4.55,0.55c-0.367,0.3-0.517,0.617-0.45,0.95l2.15,2.3
		c1.733,1.667,3.333,2.917,4.8,3.75l3.35,1.949c-4.633-1.566-9.317-3.233-14.05-5c-4.267-1.633-7.433-2.917-9.5-3.85
		c-2.8-1.267-1.133-2.55,5-3.85c3.067-0.667,6.4-1.2,10-1.6l10.65-0.2c8.133-0.1,14.833-0.083,20.1,0.05
		c9.034,0.267,26.25-2.033,51.65-6.9c8.7-1.667,22.383-2.15,41.05-1.45c9.167,0.367,21.767,0.517,37.8,0.45
		C193.517,0.717,201.6,0.7,201.8,0.7c2.601,0.1,6.033,0.683,10.3,1.75c4.534,1.133,8.7,2.5,12.5,4.1
		c2.4,1.034,6.084,1.483,11.051,1.35c6.833-0.2,14.449,0.45,22.85,1.95c20.667,3.7,31.85,6.767,33.55,9.2
		c1.601,2.267-5.416,3.367-21.05,3.3c-9.167-0.033-33.483,1.2-72.95,3.7c2.566-0.7,5.084-1.35,7.55-1.95l20-3l16-1.5l10.5-2
		l6.801-3.8L241.6,11.6c-5-0.633-8.333-0.817-10-0.55l-1,0.55l-13.5,1l-9,2L216.1,7.6z"/>
	<path style="fill-rule:evenodd;clip-rule:evenodd;fill:#665520;" d="M139.1,19.6l10.75,0.051c1.834,0.1,3.584,0.25,5.25,0.449
		c2.667,0.334,8.334,1.334,17,3l5.45,0.25c4.066,0.167,7.25,0.25,9.55,0.25c2.301,0,3.65,0.334,4.051,1
		c0.233,0.334,0.216,0.667-0.051,1h-13.5c-4.8,0-11.149,0.667-19.05,2l-10.45,2h-11c-3.667-0.166-7.833-0.083-12.5,0.25
		c-2.3,0.167-4.083,0.217-5.35,0.15c-1.267-0.1-3.167-0.066-5.7,0.1c-3.133,0.2-4.9,0.101-5.3-0.3l0.3-0.7
		c-11,0-17.617-0.05-19.85-0.149c-0.7-0.033-1.083-0.101-1.15-0.2c0.067-0.134,0.067-0.25,0-0.35c-0.233-0.334-2.4-0.601-6.5-0.801
		c-4.367-0.199-2.9-0.916,4.4-2.149c3.633-0.634,7.716-1.233,12.25-1.8l2.8,1l2.95-0.45l-8.1-2.851l8.4,1.15
		c5.467,0.6,7.917,0.467,7.35-0.4c-0.4-0.633-2.684-1.983-6.85-4.05L98.1,15.1l6.4,0.9c4.5,0.667,7.367,1.2,8.6,1.6
		c2,0.667,5.8,1.367,11.4,2.1l14.6-2.1l3.45-1.3L139.1,19.6z"/>
	<g>
		<path style="fill-rule:evenodd;clip-rule:evenodd;fill:#5C4C1C;" d="M220.1,8.6l-2-2c-1.033-1.033-3.699-2.567-8-4.6
			c5.2,1.2,10.034,2.717,14.5,4.55l0.75,0.3c-1,0.267-2.166,0.633-3.5,1.1L220.1,8.6z"/>
		<path style="fill-rule:evenodd;clip-rule:evenodd;fill:#5C4C1C;" d="M139.75,0.3l1.75,0.1c-4.1,0.167-8.317,0.417-12.65,0.75
			L123.6,1.6l-0.5,5.5c-1-0.333-3-1.5-6-3.5c-1.833-1.233-6.617-1.434-14.35-0.6C94.817,4.067,90.267,4.6,89.1,4.6
			c-1.467,0-4.817,0.75-10.05,2.25L71.6,9.1l3,2l-3.5,1.5c-1.467,0.633-6.067,0.65-13.8,0.05L46.1,11.6h-8.5l13.95,5.25l-13-2.25
			c-7.5-1.233-13-2.233-16.5-3c-3.066-0.667-6.316-0.633-9.75,0.1c-2.8,0.566-4.566,1.216-5.3,1.95
			c-0.433,0.434-0.033,1.567,1.2,3.4c-2.534-0.966-4.833-1.9-6.9-2.8c-2.8-1.267-1.133-2.55,5-3.85c3.067-0.667,6.4-1.2,10-1.6
			l10.65-0.2c8.133-0.1,14.833-0.083,20.1,0.05c9.034,0.267,26.25-2.033,51.65-6.9C107.4,0.083,121.083-0.4,139.75,0.3z"/>
	</g>
	<path style="fill-rule:evenodd;clip-rule:evenodd;fill:#5D8512;" d="M47.95,29.55l1.25-3.5l0.6,1.351c0.367,0.866,0.7,1.483,1,1.85
		l2.05-1.55l-0.2,1.05c-0.133,0.667-0.217,1.816-0.25,3.45c-3.6-0.733-7.117-1.533-10.55-2.4c-2.133-0.533-3.817-1.116-5.05-1.75
		l-1.25-0.8L34.5,25l1.7,1.95l0.55-0.7c0.233-0.3,0.3-0.767,0.2-1.4L36.75,24l1.15,0.6c0.733,0.434,1.367,1.167,1.9,2.2l0.65-1.649
		l0.75,1.8c0.233,0.467,0.65,0.767,1.25,0.899c0.733,0.134,1.5-0.033,2.3-0.5L45.9,28C46.667,28.4,47.35,28.917,47.95,29.55z"/>
	<path style="fill-rule:evenodd;clip-rule:evenodd;fill:#5D8512;" d="M109.9,33.5l-0.75-1.15l3.55,3l0.3-3
		c0.133-1.233,0.167-2.316,0.1-3.25l-0.15-1c0.633,0.667,1.233,2.25,1.8,4.75l0.85-4.5v5.75l0.7-1.5
		c0.3-0.633,0.867-1.283,1.7-1.949l1.15-0.801l-0.7,3.25c-0.333,1.167-0.417,1.834-0.25,2c-0.8,0.667-2,1.167-3.6,1.5
		c-0.967,0.2-1.85,0.217-2.65,0.051l-0.9-0.301l-0.25-1C110.733,34.95,110.433,34.333,109.9,33.5z"/>
	<path style="fill-rule:evenodd;clip-rule:evenodd;fill:#5D8512;" d="M234.95,19.75l-1.05,2.05c-0.301,0.601-0.384,1.267-0.25,2
		c-1.334,0.7-2.567,1.066-3.7,1.101l-4.75,0.35l-2-1.8l1.149,0.3c0.767,0.2,1.567,0.233,2.4,0.1L227,22.9
		c0.1-0.4-0.017-1.084-0.35-2.051l-0.5-1.3l1,0.8c0.699,0.5,1.55,1.667,2.55,3.5l1.399-4.5c-0.168,0.799,0.249,2.083,1.25,3.851
		l0.7-2.101c0.3-0.866,0.7-1.35,1.2-1.449C234.517,19.583,234.75,19.616,234.95,19.75z"/>
</g>
</svg>
