<?xml version="1.0" encoding="iso-8859-1"?>
<!-- Generator: Adobe Illustrator 15.1.0, SVG Export Plug-In . SVG Version: 6.00 Build 0)  -->
<!DOCTYPE svg PUBLIC "-//W3C//DTD SVG 1.1//EN" "http://www.w3.org/Graphics/SVG/1.1/DTD/svg11.dtd">
<svg version="1.1" id="FlashAICB" xmlns="http://www.w3.org/2000/svg" xmlns:xlink="http://www.w3.org/1999/xlink" x="0px" y="0px"
	 width="315px" height="51.4px" viewBox="0 0 315 51.4" style="enable-background:new 0 0 315 51.4;" xml:space="preserve">
<g>
	<path style="fill-rule:evenodd;clip-rule:evenodd;fill:#665520;" d="M307.25,28.5c3.634,0.833,5.733,1.833,6.3,3
		c0.267,0.6,0.167,1.1-0.3,1.5c-5.167,1-8.417,1.333-9.75,1c-0.566-0.134-3.2,0.184-7.9,0.95c-4.733,0.8-7.683,1.066-8.85,0.8
		s-4.217,0.2-9.15,1.4c-5.8,1.433-9.666,2.216-11.6,2.35c-3.566,0.267-9.384,0.667-17.45,1.2c-8.434,0.533-13.116,0.8-14.05,0.8
		c-0.833,0-2.083,0.217-3.75,0.65c-2.167,0.566-3.917,1.017-5.25,1.35c-2.3,0.566-6.2,1.267-11.7,2.1
		c-5.934,0.867-9.7,1.25-11.3,1.15c-0.833-0.066-6.184,0.667-16.05,2.2C176.517,50.517,170.033,51.2,167,51
		c-7.1-0.434-12.283-0.8-15.55-1.1c-7.934-0.767-16.75-1.9-26.45-3.4c-8.3-1.3-17.083-1.65-26.35-1.05
		C89.25,46.017,82.7,46.033,79,45.5c-5.5-0.8-9.1-1.116-10.8-0.95c-1.467,0.4-3.2,0.634-5.2,0.7c-2.5,0.1-7.133-0.6-13.9-2.1
		c-8.133-1.934-14.083-3.317-17.85-4.15c-3.9-0.866-6.333-1.05-7.3-0.55c-1.333,0.7-3.817,0.883-7.45,0.55
		c-4.8-0.4-8.483-0.85-11.05-1.35L3,37c1.167-1.333,2.517-2.783,4.05-4.35c3.1-3.167,5.583-5.384,7.45-6.65
		c1.833-1.233,6.35-1.684,13.55-1.35c3.967,0.167,9.617,0.45,16.95,0.85l127.85,0.75C258.816,26.917,303.616,27.667,307.25,28.5z"/>
	<path style="fill-rule:evenodd;clip-rule:evenodd;fill:#577820;" d="M297,11l6.55,5.1c4.834,3.8,8.316,6.767,10.45,8.9
		c0.767,0.767,1.05,1.35,0.85,1.75c-0.5,1.167-0.783,2.25-0.85,3.25c-0.167,2-2.85,3.167-8.05,3.5c-6.3,0-10.617,0.167-12.95,0.5
		c-1.967,0.267-8.884,1.066-20.75,2.4C257.483,38,244.066,39.533,232,41c-13.733,1.667-28.684,3.833-44.85,6.5L167,51
		c-9.333-0.667-22.333-2-39-4c-10.4-1.233-18.183-1.934-23.35-2.1L64,45c-5.333-1.167-10.783-2.333-16.35-3.5
		C36.483,39.167,30.267,38,29,38H9c-2.5,0-4.75-1.167-6.75-3.5L0,31l17-12l4.65-1.75C25.817,15.917,30.6,14.833,36,14
		c5.433-0.833,11.233-1.417,17.4-1.75C56.467,12.083,59,12,61,12l19-6l25.15-4.95L135,0l11.55,0.35C155.217,0.75,162.033,1.3,167,2
		c4.667,0.667,22.667,3,54,7c5.533,0.733,14.616,1.033,27.25,0.9C263.717,9.7,274.3,9.733,280,10C294,10.667,299.667,11,297,11z"/>
	<path style="fill-rule:evenodd;clip-rule:evenodd;fill:#466E13;" d="M311,24l3,3.25V25l1,3.725c-0.093,0.183-0.26,0.608-0.5,1.275
		c-0.5,1.333-0.917,2.333-1.25,3c-4.667,0.667-7.917,1-9.75,1l-8.25,0.5l1,0.75l-3.5-0.25l-6,0.75l-2-0.5
		c-14.167,1.5-22.833,2.333-26,2.5c-1.767,0.1-8.783,1-21.05,2.7c-13.3,1.833-20.867,2.85-22.7,3.05c-2.9,0.3-5.267,0.65-7.1,1.05
		L206,45l0.75,1L204,45.5l-1.5,1.25c-3.167-0.333-5.333-0.25-6.5,0.25c-0.634,0.267-2.65,0.65-6.05,1.15
		c-3.9,0.533-6.3,0.899-7.2,1.1c-1.3,0.3-3.816,0.616-7.55,0.95c-4.267,0.366-6.417,0.55-6.45,0.55c-0.733,0.3-1.283,0.5-1.65,0.6
		c-0.6,0.167-1.716,0.051-3.35-0.35c-1.5-0.366-8.184-1.017-20.05-1.95c-12.833-1.033-19.9-1.633-21.2-1.8
		c-11-1.5-17.917-2.25-20.75-2.25L74,45.25L65.75,45L63,45.25l-1.5-0.5C56,43.25,51.167,42.167,47,41.5c-0.1,0-3.317-0.533-9.65-1.6
		c-3.467-0.601-5.5-0.9-6.1-0.9H29c0.467-0.2,0.817-0.4,1.05-0.6c0.434-0.367,0.083-0.5-1.05-0.4s-2.317,0.167-3.55,0.2L6.75,38
		c-0.5,0-1.483-0.45-2.95-1.35C2.333,35.717,1.483,35,1.25,34.5c-0.125-0.249-0.274-0.616-0.45-1.1L2,31l1.5,2l0.25-2l0.85,0.75
		c0.7,0.6,1.417,1.1,2.15,1.5c1.167,0.667,2.283,1.083,3.35,1.25L10,29l2.25,4.75l1,1.25l0.6-2.5L15,34.25V32l1.75,1l1-3l1.55,1.65
		C20.467,32.816,21.367,33.6,22,34l1.5,1l0.75-6l0.1,1.9c0.133,1.366,0.35,2.316,0.65,2.85L25.75,35l0.5-4.25L28.5,35l0.75-2l0.5-3
		l0.5,4l0.25,1l2.25-1.5l1.1,2c0.1-1,0.15-2.083,0.15-3.25V31l1.15,1.3c0.8,1,1.25,1.816,1.35,2.45l0.25,1.5
		C37.083,36.583,37.5,36.167,38,35l0.75-1.75l0.5,2c0.167,0.667,0.583,1.167,1.25,1.5c0.5-0.667,0.75-1.5,0.75-2.5
		c0-0.634,0.167-0.7,0.5-0.2c0.167,0.267,0.333,0.584,0.5,0.95l1.5-3l0.8,1.35c0.6,1.034,1,1.917,1.2,2.65l0.5,1.75
		c0.833-1,1.25-1.917,1.25-2.75c0-0.533,0.083-1.066,0.25-1.6L48,32.75l-0.05,1.2c0,0.899,0.1,1.666,0.3,2.3
		c0.333,1,0.95,1.917,1.85,2.75c0.167,0,0.316-0.066,0.45-0.2c0.3-0.3,0.45-0.816,0.45-1.55V33l0.95,1.2
		c0.733,0.967,1.25,1.816,1.55,2.55c0.5,1.167,1,2.167,1.5,3l2.1-4l0.45,0.8c0.3,0.601,0.45,1.167,0.45,1.7V40h1l0.5-4.75l0.75,1.2
		C60.75,37.417,61,38.267,61,39v2l2.25-2l2.35-3.75L65,40v1c2-0.833,3-1.583,3-2.25V38l0.25,2.5c0-0.167,0.5-1.083,1.5-2.75
		c0.633-1.033,1.25-1.884,1.85-2.55l0.75-0.7L72,41l2-1v-3l3,4l0.5-4.25L80.25,40l1-4l0.85,0.8c0.633,0.667,1.1,1.316,1.4,1.95
		c0.5,1,1.25,2,2.25,3l0.5-4.5l0.9,1.75c0.633,1.267,1,2.1,1.1,2.5l0.25,1c0.167,0,0.667-0.917,1.5-2.75L91.25,37l0.5,3l1-2
		L94,40.25L94.5,36l0.65,1.1c0.467,0.867,0.75,1.667,0.85,2.4l0.25,1.75L98,38.5l0.5-1.25l0.6,1.8c0.467,1.267,0.85,2.167,1.15,2.7
		L101,43c1.333-1.833,2-3,2-3.5V39l1.25,2.25l1.5-3l0.55,0.8c0.367,0.667,0.6,1.316,0.7,1.95l0.25,1.5
		c0.667-0.333,1.25-1.083,1.75-2.25l0.75-1.75l0.05,0.95c0.1,0.733,0.25,1.416,0.45,2.05c0.333,1,0.833,1.667,1.5,2l0.75-5.25
		l2.25,2.25l0.85,2.75l2.4-5V41l1,2l1.25-7.75l1,6.75c1.5-1.167,2.333-2,2.5-2.5l1-2.25l-0.3,1.15c-0.1,0.899,0,1.767,0.3,2.6
		c0.5,1.333,0.783,2,0.85,2l0.7,0.25c0.467,0,0.7-0.417,0.7-1.25v-2l1.5,1.5l1,3l0.75-2.25c0.2-0.634,0.517-1.316,0.95-2.05
		l0.55-0.95L132,43.5l2.5-1.5l1.5-1.75l-0.05,1.15c0,0.866,0.1,1.566,0.3,2.1c0.333,0.833,1,1.5,2,2c0.5-0.833,0.75-1.833,0.75-3V39
		l0.8,1.9c0.534,1.366,0.85,2.316,0.95,2.85c0.167,0.833,0.5,1.667,1,2.5L143,43c0.2-0.533,0.55-1.1,1.05-1.7l0.7-0.8l-0.2,1
		c-0.066,0.833,0,1.667,0.2,2.5l0.5,2l0.55,0.2c0.367-0.033,0.6-0.517,0.7-1.45l0.25-2.25l1.25,3l0.75-3l1.4,0.95
		c0.967,0.733,1.5,1.25,1.6,1.55c0.1,0.333,0.383-0.1,0.85-1.3c0.433-1.2,0.65-2.017,0.65-2.45c0-0.366,0.383-0.316,1.15,0.15
		c0.733,0.433,1.35,0.966,1.85,1.6l2.75,3.5l0.75-3.5l0.5-1l1.25,3.25l1.35-4l0.601,1.9c0.366,1.366,0.55,2.316,0.55,2.85v1l2-3.25
		l0.5,2.5c1.333-0.833,2.417-1.583,3.25-2.25s1.667-1.25,2.5-1.75l-1,5.5c1.566-1.667,2.517-2.75,2.85-3.25
		c0.334-0.5,0.967-1.333,1.9-2.5v5l2.5-3.75L180,40l0.5,1.4c0.333,1,0.5,1.699,0.5,2.1V45l2.75-2.75l0.5,1.75
		c1-1.333,1.583-2.25,1.75-2.75c0.1-0.3,0.167-0.733,0.2-1.3l0.05-0.7l0.55,0.65c0.367,0.566,0.601,1.267,0.7,2.1l0.25,2l0.45-1.05
		c0.399-0.767,0.916-1.417,1.55-1.95c1-0.833,1.783-1.583,2.35-2.25l-0.55,1.4c-0.366,1-0.55,1.699-0.55,2.1V43
		c1.333,0,2.083-0.417,2.25-1.25l0.5-2.5l0.75,3.25c1.5-1.167,2.25-2,2.25-2.5c0-0.3,0.134-0.934,0.4-1.9l0.35-1.35l0.65,0.6
		c0.399,0.534,0.6,1.167,0.6,1.9c0,1.167,0.583,2.583,1.75,4.25c-0.033-0.233-0.033-0.533,0-0.9c0.1-0.699,0.3-1.316,0.6-1.85
		c0.5-0.833,1.134-1.667,1.9-2.5V42l2.75-3.75L206,40.5l2.05-0.35c1.367-0.367,2.101-0.917,2.2-1.65s0.25-1.417,0.45-2.05l0.3-0.7
		l0.75,2.25l2-3.25l0.5,2.75L216,36l-0.1,0.5c0,0.434,0.149,0.85,0.449,1.25c0.5,0.667,1.717,1.333,3.65,2V38l2,1l3.75-4.75l-0.25,4
		l1.75-2.5l0.5,2l0.5,0.75c0.434,0.333,0.85,0.083,1.25-0.75l2.25-4l0.25,3l1.75-3.5L235,36l0.25,1.2
		c0.333,0.566,0.917,0.333,1.75-0.7c1.333-1.667,2.833-3.083,4.5-4.25l-1,3.5l2.5-1.5V36c1.833-0.5,2.75-1.083,2.75-1.75l0.25-2.5
		l2.5,3l2-4.25l0.85,3.5c0.167,0.5,1.384,0.833,3.65,1v-4l1.25,3l1.25-2.75l1,2.25l1.2-0.95c0.899-0.666,1.666-1.1,2.3-1.3l1.6-0.5
		l0.2,0.3c0.134,0.267,0.2,0.667,0.2,1.2V34l1.5-1c1.167-0.733,2.167-1.316,3-1.75l3.5-1.75l-3.25,3.25l4.25-1.5l-0.5,1.5l0.95,0.4
		c0.733,0.199,1.416,0.149,2.05-0.15c1-0.5,1.75-1.5,2.25-3l0.75,1.5l2-2.25l0.25,2l1.7-1.15c1.233-0.8,2-1.25,2.3-1.35
		s0.434,0.15,0.4,0.75c0,0.333-0.051,0.833-0.15,1.5c0,0.5,0.833,0.25,2.5-0.75l2-2.25l0.5,1.75l2.25-2.5l0.5,2.75l3-3l-0.5,3.5
		l2-0.75l0.75-0.5V31c2-1.5,3-2.75,3-3.75V26l1.75,2l0.75,2.75l2-4.5l1.75,2.25l2-2l1,1.75l0.4,0.05
		c0.233-0.133,0.35-0.566,0.35-1.3V24z"/>
	<path style="fill-rule:evenodd;clip-rule:evenodd;fill:#497114;" d="M179.7,29.6c1.934-0.267,4.316,0.051,7.149,0.95
		c3.034,0.934,3.934,1.884,2.7,2.851c-1.2,0.933-2.899,1.416-5.1,1.449c-0.834,0-4.15-0.183-9.95-0.55
		c-4.066-0.267-4.9-1.05-2.5-2.35C174.167,30.783,176.733,30,179.7,29.6z"/>
	<path style="fill-rule:evenodd;clip-rule:evenodd;fill:#497114;" d="M157.15,36.25c-1.833,0.1-3.634-0.017-5.4-0.35
		c-0.367-0.067-2.35-0.517-5.95-1.351c-2.433-0.566-2.45-1.283-0.05-2.149c2.333-0.867,5.4-1.301,9.2-1.301
		c3.934,0,5.899,0.834,5.899,2.5C160.85,35.267,159.616,36.15,157.15,36.25z"/>
	<path style="fill-rule:evenodd;clip-rule:evenodd;fill:#497114;" d="M89.1,5.6c4.5-0.3,7.15,0,7.95,0.9
		c0.567,0.633,0.284,1.367-0.85,2.2c-0.567,0.433-2.2,0.7-4.9,0.8c-3.233,0.067-5.483,0.133-6.75,0.2
		c-0.933,0.033-1.517-0.133-1.75-0.5c-0.233-0.333-0.133-0.767,0.3-1.3C84.267,6.567,86.267,5.8,89.1,5.6z"/>
	<path style="fill-rule:evenodd;clip-rule:evenodd;fill:#497114;" d="M171.45,46c1.2,0.233,2.05,0.816,2.55,1.75
		c0.434,0.866,0.384,1.517-0.15,1.95c-0.399,0.366-1.449,0.333-3.149-0.101c-1.601-0.399-2.634-0.833-3.101-1.3
		c-0.466-0.467-0.283-1.017,0.551-1.649C169.05,45.983,170.15,45.767,171.45,46z"/>
	<path style="fill-rule:evenodd;clip-rule:evenodd;fill:#497114;" d="M261.4,21.5c2,0.2,3.216,0.683,3.649,1.45
		c0.367,0.667,0.101,1.167-0.8,1.5c-0.733,0.3-1.816,0.433-3.25,0.4c-1.467-0.033-2.85-0.25-4.15-0.65
		c-1.267-0.4-1.183-0.983,0.25-1.75C258.533,21.65,259.967,21.333,261.4,21.5z"/>
	<path style="fill-rule:evenodd;clip-rule:evenodd;fill:#497114;" d="M234.45,19.05c1.3,0.167,2.533,0.733,3.7,1.7
		c1.199,0.967,0.983,1.45-0.65,1.45c-2.434,0-4.717-0.117-6.85-0.35c-2.834-0.267-4.417-0.684-4.75-1.25
		c-0.367-0.633,0.366-1.133,2.199-1.5C230,18.733,232.116,18.717,234.45,19.05z"/>
	<path style="fill-rule:evenodd;clip-rule:evenodd;fill:#497114;" d="M134.25,2.7c2.633,0.066,4.983,0.5,7.05,1.3
		c2.167,0.867,2.7,1.75,1.6,2.65c-1.133,0.934-2.483,1.434-4.05,1.5c-1.3,0.067-3.517-0.183-6.65-0.75c-2.767-0.5-3.7-1.433-2.8-2.8
		C130.267,3.267,131.883,2.633,134.25,2.7z"/>
	<path style="fill-rule:evenodd;clip-rule:evenodd;fill:#497114;" d="M124.45,14.25c2.5,0.7,3.216,1.167,2.15,1.4
		c-5.633,1.333-9.934,1.75-12.9,1.25c-2.3-0.4-2.967-1.133-2-2.2c0.966-1.034,2.65-1.567,5.05-1.6
		C119.317,13.1,121.883,13.483,124.45,14.25z"/>
	<path style="fill-rule:evenodd;clip-rule:evenodd;fill:#497114;" d="M115.8,40.75c2.367,0.2,3.65,0.783,3.85,1.75
		c0.167,0.9-0.667,1.816-2.5,2.75c-1.566,0.8-2.933,1.066-4.1,0.8c-0.267-0.066-1.75-0.7-4.45-1.899
		c-1.867-0.867-1.783-1.7,0.25-2.5C110.817,40.85,113.133,40.55,115.8,40.75z"/>
	<path style="fill-rule:evenodd;clip-rule:evenodd;fill:#497114;" d="M214.3,40.3c1.634-0.233,3.2,0.033,4.7,0.8
		c1.533,0.767,1.8,1.483,0.8,2.15c-0.967,0.667-2.3,0.85-4,0.55c-1.366-0.267-2.8-0.783-4.3-1.55c-1.066-0.566-1.15-1.017-0.25-1.35
		C211.75,40.7,212.767,40.5,214.3,40.3z"/>
	<path style="fill-rule:evenodd;clip-rule:evenodd;fill:#497114;" d="M275.3,10.8c1.634,0.434,2.667,0.934,3.101,1.5
		c0.433,0.534,0.149,1.017-0.851,1.45c-0.767,0.3-2.166,0.333-4.2,0.1c-2.767-0.367-4.433-0.55-5-0.55
		c-1.767,0-1.483-0.533,0.851-1.6C271.467,10.633,273.5,10.333,275.3,10.8z"/>
	<path style="fill-rule:evenodd;clip-rule:evenodd;fill:#497114;" d="M109.9,28.05c3.934,0,5.9,0.834,5.9,2.5
		c0,1.667-1.233,2.55-3.7,2.65c-1.833,0.1-3.633-0.017-5.4-0.351c-0.4-0.066-2.367-0.517-5.9-1.35
		c-2.433-0.566-2.466-1.283-0.1-2.15C103.033,28.483,106.1,28.05,109.9,28.05z"/>
	<path style="fill-rule:evenodd;clip-rule:evenodd;fill:#497114;" d="M73.7,24.5c-2.633-0.167-3.1-0.75-1.4-1.75
		c1.667-1,3.784-1.367,6.35-1.1c4.967,0.533,6.167,1.2,3.6,2C79.683,24.45,76.833,24.733,73.7,24.5z"/>
	<path style="fill-rule:evenodd;clip-rule:evenodd;fill:#497114;" d="M295.95,21.65c3.166,0.467,5.217,0.967,6.149,1.5
		c0.834,0.5,0.617,0.95-0.649,1.35c-3.233,1.1-7.184,1.033-11.851-0.2c-2.899-0.733-3.399-1.483-1.5-2.25
		C289.967,21.283,292.583,21.15,295.95,21.65z"/>
	<path style="fill-rule:evenodd;clip-rule:evenodd;fill:#497114;" d="M175.8,9c2.101,0.567,3.117,1.033,3.05,1.4
		c-0.066,0.233-0.733,0.45-2,0.65c-2.133,0.333-4.75,0.367-7.85,0.1c-1-0.066-1.533-0.3-1.6-0.7c-0.034-0.367,0.333-0.733,1.1-1.1
		C170.533,8.35,172.967,8.233,175.8,9z"/>
	<path style="fill-rule:evenodd;clip-rule:evenodd;fill:#497114;" d="M45.95,14.3c2.033-0.033,3.433,0.317,4.2,1.05
		c0.667,0.6,0.684,1.033,0.05,1.3c-1.1,0.5-3.534,0.6-7.3,0.3c-1.9-0.133-2.35-0.6-1.35-1.4C42.517,14.783,43.983,14.367,45.95,14.3
		z"/>
	<path style="fill-rule:evenodd;clip-rule:evenodd;fill:#497114;" d="M189.3,8.3c1.8,0.2,2.7,0.5,2.7,0.9
		c0,0.333-0.634,0.633-1.9,0.9c-3.466,0.733-6.1,0.517-7.899-0.65c-1.7-1.067-1.717-1.633-0.05-1.7
		C183.15,7.683,185.533,7.867,189.3,8.3z"/>
</g>
</svg>
