<?xml version="1.0" encoding="iso-8859-1"?>
<!-- Generator: Adobe Illustrator 15.1.0, SVG Export Plug-In . SVG Version: 6.00 Build 0)  -->
<!DOCTYPE svg PUBLIC "-//W3C//DTD SVG 1.1//EN" "http://www.w3.org/Graphics/SVG/1.1/DTD/svg11.dtd">
<svg version="1.1" id="FlashAICB" xmlns="http://www.w3.org/2000/svg" xmlns:xlink="http://www.w3.org/1999/xlink" x="0px" y="0px"
	 width="98px" height="20.95px" viewBox="0 0 98 20.95" style="enable-background:new 0 0 98 20.95;" xml:space="preserve">
<g>
	<path style="fill-rule:evenodd;clip-rule:evenodd;fill:#705D23;" d="M21,17.1c-3.733-0.833-8.35-1.416-13.85-1.75L0,15.1l6.4-2.25
		C11.9,11.184,17.767,9.934,24,9.1c4.233-0.567,11.233-2.45,21-5.65C53,0.817,59-0.3,63,0.1c22.167,2.167,33.8,4.333,34.9,6.5
		c0.767,1.533-2.867,2.7-10.9,3.5c-3.7,0.367-5.7,1.45-6,3.25c-0.233,1.4-0.384,2.2-0.45,2.4C80.15,16.684,79.3,17.467,78,18.1
		c-2.467,1.233-6.8,1.784-13,1.65c-7.333-0.434-12.667-0.65-16-0.65c-6.5,0-11.283-0.083-14.35-0.25
		C29.583,18.583,25.033,18,21,17.1z"/>
	<path style="fill-rule:evenodd;clip-rule:evenodd;fill:#665520;" d="M62.8,6.65c4.167,1.3,4.617,2.1,1.351,2.4
		c-3.101,0.333-6,0.184-8.7-0.45c-1-0.233-1.5-0.55-1.5-0.95s0.416-0.767,1.25-1.1C57.333,5.717,59.866,5.75,62.8,6.65z"/>
	<path style="fill-rule:evenodd;clip-rule:evenodd;fill:#665520;" d="M71.35,7.15c-2.1-0.433-2.616-1.2-1.55-2.3
		c1-1.033,2.5-1.55,4.5-1.55c3.5,0,4.483,0.767,2.95,2.3C75.65,7.133,73.684,7.65,71.35,7.15z"/>
	<path style="fill-rule:evenodd;clip-rule:evenodd;fill:#665520;" d="M34.2,12.55c-2.567,0.8-5.417,1.084-8.55,0.851
		c-2.633-0.167-3.117-0.75-1.45-1.75c1.667-1,3.783-1.367,6.35-1.101C35.55,11.083,36.767,11.75,34.2,12.55z"/>
	<path style="fill-rule:evenodd;clip-rule:evenodd;fill:#665520;" d="M60.3,13.4c4.5-0.101,7.134,0.333,7.9,1.3
		c0.533,0.666,0.217,1.383-0.95,2.149c-0.6,0.4-2.25,0.584-4.95,0.551c-3.2-0.101-5.45-0.15-6.75-0.15c-0.934,0-1.517-0.2-1.75-0.6
		c-0.2-0.367-0.05-0.801,0.45-1.301C55.45,14.083,57.467,13.434,60.3,13.4z"/>
	<path style="fill-rule:evenodd;clip-rule:evenodd;fill:#665520;" d="M29.6,9.55l-3.15,2.05l19.15,5.15
		c-3.1-0.767-7.817-1.316-14.15-1.65c-3.967-0.199-7.934-0.433-11.9-0.699L14.8,14.1l5.75,2.9c-3.733-0.8-8.283-1.35-13.65-1.65
		L0,15.1l6.4-2.25C11.9,11.184,17.767,9.934,24,9.1c4.233-0.567,11.233-2.45,21-5.65C53,0.817,59-0.3,63,0.1
		c22.167,2.167,33.8,4.333,34.9,6.5c0.767,1.533-2.867,2.7-10.9,3.5c-3.7,0.367-5.7,1.45-6,3.25c-0.233,1.4-0.384,2.2-0.45,2.4
		C80.15,16.684,79.3,17.467,78,18.1c-2.634,1.267-7.667,1.784-15.1,1.551l5.75-1.551c2.133-0.633,3.666-1.483,4.6-2.55L74,14.1
		l6.5-6.5l3-5l-26,0.5c-2,3.5-3,4.75-3,3.75c0-0.633-0.4-1.233-1.2-1.8C52.267,4.417,51.5,3.934,51,3.6
		c-0.634-0.4-1.667,0.066-3.1,1.4c-0.7,0.667-1.35,1.367-1.95,2.1l3.649,3.65C46.5,10.317,42.617,9.6,37.95,8.6
		C35.05,7.967,32.267,8.283,29.6,9.55z"/>
	<g>
		<path style="fill-rule:evenodd;clip-rule:evenodd;fill:#5C4C1C;" d="M24,9.1l2.45,2.5c-1.633,0-4.95-0.166-9.95-0.5
			c-2.767-0.2-5.133,0.317-7.1,1.551c-1.2,0.733-2.117,1.616-2.75,2.649L0,15.1l6.4-2.25C11.9,11.184,17.767,9.934,24,9.1z"/>
		<path style="fill-rule:evenodd;clip-rule:evenodd;fill:#5C4C1C;" d="M42.5,4.25c0.167,1.467,2.317,3.517,6.45,6.15
			c-1.967-1.167-4.117-2.267-6.45-3.3c-1.3-0.567-2.983-0.967-5.05-1.2L42.5,4.25z"/>
	</g>
	<path style="fill-rule:evenodd;clip-rule:evenodd;fill:#5D8512;" d="M88.95,7.35l1.149-0.8L89.4,9.8
		c-0.334,1.167-0.417,1.834-0.25,2c-0.801,0.667-1.983,1.167-3.551,1.5c-1,0.2-1.899,0.217-2.699,0.05l-0.9-0.3l-0.2-1
		c-0.1-0.399-0.416-1.017-0.95-1.85L80.1,9.05l3.601,3L84,9.1c0.1-1.233,0.116-2.317,0.05-3.25L83.9,4.8
		c0.633,0.667,1.233,2.267,1.8,4.8l0.85-4.55v5.75l0.7-1.5C87.55,8.667,88.116,8.017,88.95,7.35z"/>
	<path style="fill-rule:evenodd;clip-rule:evenodd;fill:#5D8512;" d="M50.6,17.6c0.801,0,1.517,0.334,2.15,1
		c0.333,0.334,0.583,0.667,0.75,1v-0.75c0-0.3-0.116-0.899-0.35-1.8l-0.4-1.2l1.7,1.25c1.1,0.834,1.566,1.584,1.399,2.25l0.9-1.6
		c0.366-0.634,0.65-1.4,0.85-2.3l0.15-1.101L58,17.1c0.167,1,0.566,1.584,1.2,1.75L61.1,17.6l-0.25,1
		c-0.166,0.667-0.399,1.167-0.699,1.5h-1.7c-2.033,0.334-3.7,0.584-5,0.75c-2.4,0.267-3.417-0.066-3.05-1
		c0.199-0.533-0.184-1.066-1.15-1.6l-1.5-0.65H50.6z"/>
</g>
</svg>
