<?xml version="1.0" encoding="iso-8859-1"?>
<!-- Generator: Adobe Illustrator 15.1.0, SVG Export Plug-In . SVG Version: 6.00 Build 0)  -->
<!DOCTYPE svg PUBLIC "-//W3C//DTD SVG 1.1//EN" "http://www.w3.org/Graphics/SVG/1.1/DTD/svg11.dtd">
<svg version="1.1" id="FlashAICB" xmlns="http://www.w3.org/2000/svg" xmlns:xlink="http://www.w3.org/1999/xlink" x="0px" y="0px"
	 width="66.45px" height="34.9px" viewBox="0 0 66.45 34.9" style="enable-background:new 0 0 66.45 34.9;" xml:space="preserve">
<g>
	<path style="fill-rule:evenodd;clip-rule:evenodd;fill:#5D8022;" d="M46.75,2.2c-0.133-0.833-0.033-1.45,0.3-1.85L47.6,0v0.7
		c0,0.667,0.067,1.35,0.2,2.05l0.15,1c0.066,0.333,0.083,0.5,0.05,0.5c-0.066,0-0.133,0.167-0.2,0.5l-0.35,1l0.149,1.2l0.15,0.6
		c0.033,0.434-0.017,0.8-0.15,1.1c-0.232,0.434-0.35,0.817-0.35,1.15L47.8,11c0.334,0.8-0.066,1.367-1.2,1.7l0.301,1.7v0.85l0.55,1
		c0.333,0.667,0.333,1.45,0,2.35l0.35,2.2c0.067,0.4,0.134,0.583,0.2,0.55c0.267-0.133,0.6-0.083,1,0.15
		c0.434,0.233,0.583,0.35,0.45,0.35C49.15,21.95,49,22.167,49,22.5c0,0.667,0.233,1.167,0.7,1.5l0.35,0.5
		c0.233,0.367,0.351,0.717,0.351,1.05L51.6,25.7c0.534,0.066,0.801,0.399,0.801,1c0,0.167-0.084,0.616-0.25,1.35
		c-0.134,0.467,0.1,0.75,0.699,0.851l1.2,1.199c0.5,0.5,0.684,0.967,0.55,1.4c-0.1,0.2-0.232,0.35-0.399,0.45L55.6,32.8
		c0.334,0.233,0.483,0.434,0.45,0.601c0,0.133-0.149,0.383-0.45,0.75c-0.166,0.232-0.267,0.333-0.3,0.3
		c-0.133-0.033-0.383,0.033-0.75,0.2c-0.399,0.199-0.717,0.283-0.95,0.25c-0.267-0.067-0.583-0.101-0.949-0.101
		c-1.033-0.1-2.184-0.2-3.45-0.3c-0.8-0.066-1.483-0.233-2.05-0.5L46.6,33.65l-0.899-0.2c-0.367-0.067-0.684-0.2-0.95-0.4
		c-0.3-0.267-0.566-0.517-0.8-0.75c-0.2-0.233-0.316-0.333-0.351-0.3c-0.033,0.1-0.183,0.083-0.449-0.05
		c-0.334-0.134-0.517-0.25-0.551-0.351c0-0.166,0-0.333,0-0.5c0-0.166-0.05-0.449-0.149-0.85c-0.134-0.4-0.2-0.684-0.2-0.85
		c0-0.134,0.066-0.351,0.2-0.65c0.133-0.367,0.233-0.767,0.3-1.2c0.066-0.366,0.117-0.517,0.15-0.45
		c0.1,0.268,0.233,0.367,0.399,0.301c0.334-0.134,0.434-0.983,0.3-2.551l-0.149-1c-0.066-0.399-0.033-0.717,0.1-0.949l0.25-0.25
		c-0.233-0.768-0.35-1.384-0.35-1.851c0-0.267,0.083-0.55,0.25-0.85l0.25-0.351l-0.5-1.149v-2.4L43.1,14.9
		c-0.133-0.5-0.149-1.017-0.05-1.55l0.25-0.65v-0.85c0-0.367,0.267-0.717,0.8-1.05l0.75-0.45v-1.2c0-0.5,0.084-0.85,0.25-1.05
		l0.25-0.15l-0.149-1c-0.066-0.4-0.033-0.717,0.1-0.95l0.25-0.25l-0.2-0.85C45.283,4.566,45.3,4.3,45.4,4.1l0.149-0.2V3.4
		c0-0.1,0.233-0.216,0.7-0.35C46.65,2.917,46.816,2.633,46.75,2.2z"/>
	<path style="fill-rule:evenodd;clip-rule:evenodd;fill:#5D8022;" d="M19.2,22.05c0.433,0.067,0.833,0.233,1.2,0.5l1.3,1.55
		c0.533,0.634,0.75,1.033,0.65,1.2c-0.067,0.067-0.183,0.067-0.35,0l0.75,1.95L25.1,28c0.6,0.233,0.967,0.45,1.1,0.65
		c0.033,0,0.267,0.482,0.7,1.449l-9.6,0.25c-1.2,0.5-2.316,0.934-3.35,1.301c-0.667,0.199-1.367,0.316-2.1,0.35h-0.9L9.5,32.4
		c-0.3,0.133-0.833,0.517-1.6,1.149c-0.367,0.333-0.7,0.65-1,0.95l-5.95,0.25c-0.767,0-1.067-0.05-0.9-0.15
		c0.534-0.333,0.75-0.717,0.65-1.149l5.15-1.5c0-0.233,0.05-0.45,0.15-0.65c0.233-0.467,0.617-0.7,1.15-0.7
		c0.867,0,1.65-0.267,2.35-0.8l0.8-1.55l3.35-1.3l1.85-1c0.833-0.5,1.35-0.884,1.55-1.15c0.1-0.167,0.267-0.75,0.5-1.75
		C17.783,22.184,18.333,21.85,19.2,22.05z"/>
	<path style="fill-rule:evenodd;clip-rule:evenodd;fill:#668C25;" d="M19.7,21.95c0.433,0.167,0.667,0.366,0.7,0.6
		c0.034,0.067,0.117,0.233,0.25,0.5c0.067,0.167,0.083,0.351,0.05,0.55c-0.067,0.2-0.417,0.283-1.05,0.25
		c-0.933-0.033-1.5-0.033-1.7,0l-0.4,0.101c0.233,0.066,0.317,0.167,0.25,0.3c-0.066,0.267-0.1,0.7-0.1,1.3L17.85,26
		c0.1,0.333,0.083,0.617-0.05,0.85c-0.066,0.167-0.167,0.233-0.3,0.2c-0.3-0.033-0.717-0.017-1.25,0.05
		c-0.5,0.101-0.7,0.167-0.6,0.2c0.4,0.101,0.6,0.25,0.6,0.45c0,0.434-0.467,0.566-1.4,0.4l-0.8,0.1c-0.066,0.2-0.633,0.5-1.7,0.9
		c-0.4,0.166-1,0.333-1.8,0.5L9.5,29.8l-1.3,0.8c-0.434,0.268-0.783,0.65-1.05,1.15L6.5,32.4c-0.2,0.232-0.333,0.333-0.4,0.3
		c-0.1-0.067-0.35-0.033-0.75,0.1c-0.5,0.167-1.1,0.283-1.8,0.351l-0.9,0.05c-0.867,0-1.3-0.134-1.3-0.4
		c0-0.167,0.217-0.3,0.65-0.399c0.267-0.067,0.65-0.15,1.15-0.25c0.434-0.067,1.25-0.283,2.45-0.65l0.8-0.4
		c0-0.333,0.083-0.717,0.25-1.149L6.8,29.7c0.034,0.133,0.117,0.167,0.25,0.1c0.267-0.066,0.733-0.1,1.4-0.1
		c0.533-0.101,0.667-0.283,0.4-0.55c0.267-0.601,0.533-1.033,0.8-1.301l1.4-0.75l0.65-0.649l2.25-0.5h1.55
		c-0.033-0.167-0.033-0.351,0-0.55c0.067-0.4,0.233-0.65,0.5-0.75c0.434-0.2,0.817-0.417,1.15-0.65l0.8-2.1l0.65-0.15
		C18.934,21.684,19.3,21.75,19.7,21.95z"/>
	<path style="fill-rule:evenodd;clip-rule:evenodd;fill:#668C25;" d="M44.45,13.85c-0.3-0.067-0.55-0.45-0.75-1.15
		c-0.167-0.667-0.184-1.1-0.05-1.3l0.399-0.65h1.15c0.366,0,0.767,0.3,1.2,0.9l-0.25,0.75c-0.167,0.4-0.417,0.75-0.75,1.05
		C45.033,13.783,44.717,13.917,44.45,13.85z"/>
	<path style="fill-rule:evenodd;clip-rule:evenodd;fill:#668C25;" d="M47.95,3.75c-0.167,0.4-0.217,0.733-0.15,1
		c-0.133,0.033-0.283,0.1-0.45,0.2c-0.333,0.133-0.517,0.283-0.55,0.45c-0.033,0.133-0.083,0.483-0.149,1.05
		c-0.067,0.533-0.233,0.883-0.5,1.05c-0.4,0.233-0.801-0.066-1.2-0.9l0.399-1.7l0.25-0.4l-0.05-0.6l0.2-1.1
		c0.5-0.233,0.867-0.35,1.1-0.35c0.167,0.033,0.317,0.15,0.45,0.35c0.033,0.067,0.217,0.2,0.55,0.4
		C48.05,3.3,48.083,3.483,47.95,3.75z"/>
	<path style="fill-rule:evenodd;clip-rule:evenodd;fill:#668C25;" d="M45.85,21.5c0.534-0.367,1.367-0.5,2.5-0.4
		c0.434,0.067,0.601,0.233,0.5,0.5c-0.066,0.167-0.199,0.4-0.399,0.7c-0.033,0.167-0.184,0.233-0.45,0.2
		c-0.434,0-0.717,0.017-0.85,0.05c-0.2,0.067-0.283,0.134-0.25,0.2c0.133,0.233,0.183,0.517,0.149,0.85
		c-0.033,0.367-0.116,0.518-0.25,0.45c-0.333-0.167-0.767-0.183-1.3-0.05c-0.667,0.133-0.934,0.3-0.8,0.5
		c0.066,0.1,0.2,0.184,0.399,0.25l-0.25,2.6c-0.133,1.101-0.283,1.567-0.449,1.4l-0.2-0.6l-0.9-0.75
		c-0.399-0.301-0.467-0.817-0.2-1.551L44.7,22.3L45.85,21.5z"/>
	<path style="fill-rule:evenodd;clip-rule:evenodd;fill:#476317;" d="M32.35,11.9l-0.4,0.05l1.45-2.9L34.55,9.8
		c0.267,0.233,0.4,0.45,0.4,0.65c0,0.133-0.033,0.4-0.101,0.8c0,0.533-0.133,1.667-0.399,3.4c-0.101,1-0.117,1.483-0.05,1.45
		c0.199-0.1,0.35-0.034,0.449,0.2c0.134,0.4,0.25,0.684,0.351,0.85c0.366,0.667,0.684,1.25,0.95,1.75
		c0.767,1.566,1.233,3.133,1.399,4.699l0.8,2.45c0.268,0.601,0.351,1.601,0.25,3l-0.8,1.55c-0.333,0.601-1.633,0.684-3.899,0.25
		c-0.867,0-1.717-0.166-2.55-0.5c-0.533-0.232-0.8-0.416-0.8-0.55l0.15-0.1c0.167-0.867,0.25-1.733,0.25-2.601
		c0-0.533,0.066-0.85,0.2-0.949l0.2,0.05l1-1.05c0.1-0.334-0.017-0.684-0.35-1.051c-0.233-0.199-0.367-0.8-0.4-1.8v-1.45l0.75-2.199
		L31.6,15.4C31.767,13.5,32.017,12.333,32.35,11.9z"/>
	<path style="fill-rule:evenodd;clip-rule:evenodd;fill:#476317;" d="M64.45,20.45c0.267-0.101,0.6-0.067,1,0.1
		c0.467,0.2,0.733,0.3,0.8,0.3c0.267,0,0.233,0.483-0.1,1.45L65.6,23.6l0.15,0.15c0.033,0.2-0.05,0.533-0.25,1
		c-0.366,0.8-0.517,0.867-0.45,0.2l-1-1.9c-0.166-0.333-0.233-0.583-0.2-0.75c0.101-0.3,0.217-0.649,0.351-1.05
		c0.12-0.392,0.129-0.616,0.024-0.675C64.276,20.548,64.352,20.506,64.45,20.45z"/>
</g>
</svg>
