<?xml version="1.0" encoding="iso-8859-1"?>
<!-- Generator: Adobe Illustrator 15.1.0, SVG Export Plug-In . SVG Version: 6.00 Build 0)  -->
<!DOCTYPE svg PUBLIC "-//W3C//DTD SVG 1.1//EN" "http://www.w3.org/Graphics/SVG/1.1/DTD/svg11.dtd">
<svg version="1.1" id="FlashAICB" xmlns="http://www.w3.org/2000/svg" xmlns:xlink="http://www.w3.org/1999/xlink" x="0px" y="0px"
	 width="215.2px" height="1008.65px" viewBox="0 0 215.2 1008.65" style="enable-background:new 0 0 215.2 1008.65;"
	 xml:space="preserve">
<symbol  id="FlashAICB_x2F_Layer_10_copy_x2F__x3C_Path_x3E__x5F_56" viewBox="0 -29.7 158.2 29.594">
	<g id="Layer_1_2_">
		<path style="fill-rule:evenodd;clip-rule:evenodd;" d="M157.55-18.9l0.65-0.25l-3.95-2.45c-4.4-1.033-8.667-2.467-12.8-4.3
			L141-25.8l-0.8,3.45c-0.233,1.2-3.967,1.583-11.2,1.15c-4.2-0.267-11.55-1.017-22.05-2.25c-4.5,3.3-14.233,3.35-29.2,0.15
			c-8.067-1.9-13.95-3.267-17.65-4.1c-6.5-1.467-11.317-2.233-14.45-2.3c-0.133,0.3,0.15,2.05,0.85,5.25c0.667,3,0.783,4.7,0.35,5.1
			c-3.167,2.767-7.133,5.05-11.9,6.85c-3.4,1.3-7.883,2.55-13.45,3.75c-2.467,0.533-5.1,0.95-7.9,1.25c-0.2,0-1.217-0.017-3.05-0.05
			C9.25-7.583,8.267-7.467,7.6-7.2C6.7-6.833,5.417-6.25,3.75-5.45C2.083-4.65,0.833-4.083,0-3.75c0.233,1.533,0.617,2.7,1.15,3.5
			c1.8,0.467,6.4-0.2,13.8-2c5.733-1.4,8.55-0.933,8.45,1.4C33.767-0.783,53.933-1.2,83.9-2.1c15.033-0.467,29.667-0.933,43.9-1.4
			c1.6,0,5.867-1.333,12.8-4c6.933-2.633,10.667-3.95,11.2-3.95c0.8,0,1.617-0.8,2.45-2.4c0.933-1.733,1.5-2.65,1.7-2.75
			C156.683-16.9,157.217-17.667,157.55-18.9z"/>
	</g>
</symbol>
<g>
	
		<radialGradient id="SVGID_1_" cx="27.8311" cy="996.0762" r="105.3279" gradientTransform="matrix(1 -0.0075 -0.0235 -0.2933 103.1757 1287.6074)" gradientUnits="userSpaceOnUse">
		<stop  offset="0" style="stop-color:#000000;stop-opacity:0.4196"/>
		<stop  offset="1" style="stop-color:#000000;stop-opacity:0"/>
	</radialGradient>
	<path style="fill-rule:evenodd;clip-rule:evenodd;fill:url(#SVGID_1_);" d="M1.525,991.975c0.303,0.014-0.172-0.095-1.425-0.324
		L0,990.35c0-8.033,10.5-14.899,31.5-20.6s46.367-8.55,76.1-8.55c29.733,0,55.101,2.85,76.101,8.55s31.5,12.566,31.5,20.6
		c0,1.733-0.3,2.801-0.9,3.2c-0.434,0.3-1.5,0.384-3.2,0.25c-5.666-0.467-11.149,0.134-16.449,1.8
		c-0.334-0.066-0.417-0.3-0.25-0.699c0.166-0.367,0.083-0.617-0.25-0.75c-0.834-0.267-3.334,0.166-7.5,1.3
		c-4.267,1.2-6.767,1.733-7.5,1.6c-1.134-0.2-3.134-0.033-6,0.5c-3.233,0.634-5.233,0.95-6,0.95c-3.867-0.033-8.367-0.8-13.5-2.3
		c-4.934-1.467-9.434-2.15-13.5-2.05c-3.034-0.7-8.65-0.233-16.851,1.399c-8.733,1.733-14.783,3.834-18.15,6.3
		c-7.167,2.367-12.033,3.784-14.6,4.25c-3.533,0.367-7.167,0.733-10.9,1.101c-0.467,0.033-0.316-0.533,0.45-1.7
		c0.8-1.033,1.083-1.417,0.85-1.15c-1.134-3.3-2.9-5.966-5.3-8c-2.433-2.066-5.1-3.116-8-3.149c-4.767-0.033-10.767-1.617-18-4.75
		c-6.867-2.967-12.867-4.283-18-3.95c-1.867,0.134-6.417,1.517-13.65,4.15c-6.9,2.5-11.467,3.683-13.7,3.55L1.525,991.975z"/>
	
		<use xlink:href="#FlashAICB_x2F_Layer_10_copy_x2F__x3C_Path_x3E__x5F_56"  width="158.2" height="29.594" y="-29.7" transform="matrix(1 0 0 -1 33 978.9502)" style="overflow:visible;opacity:0.1484;enable-background:new    ;"/>
	<path style="fill-rule:evenodd;clip-rule:evenodd;fill:#4B330F;" d="M37.15,15.55c6.6,12.5,12.017,24.1,16.25,34.8
		c1.7,4.233,4.333,11.833,7.9,22.8c3.8,11.7,6.117,19.5,6.95,23.4c1.633,7.8,3.833,19.634,6.6,35.5
		c3.5,20.167,5.25,32.417,5.25,36.75c0,3.367,0.35,14.85,1.05,34.45c0.567,19.233,0.617,31.55,0.15,36.95
		c-0.433,4.7,0.017,15.433,1.35,32.2c1.467,19.067,2.2,32.117,2.2,39.15c0,8.634,0.4,17.767,1.2,27.4
		c0.767,9.667,1.15,15.65,1.15,17.95c0,11.567,0.2,25.617,0.6,42.15c0.567,23.833,1.367,38.067,2.4,42.7
		c1.033,4.767,1.767,8.833,2.2,12.2c0.033,0.1,0.483,4.15,1.35,12.15c0.333,3.233,1.417,6.45,3.25,9.65c1.4,2.5,1.9,5.717,1.5,9.65
		c-0.4,3.767,0.483,14.583,2.65,32.45c2.167,17.667,3.05,27.851,2.65,30.551c-0.767,5.6-1.15,12.6-1.15,21l0.35,8.3
		c0.3,6,0.566,10.233,0.8,12.7c0.133,1.133,0.267,3.482,0.4,7.05c0.066,2.333,0.333,4.467,0.8,6.399
		c0.367,1.567,1.517,4.817,3.45,9.75c1.666,4.367,2.5,7,2.5,7.9c0,0.833,0.649,7.333,1.95,19.5c1.166,12.767,1.5,21.383,1,25.85
		s-0.551,10.134-0.15,17c0.2,3.5,0.45,7.067,0.75,10.7v15.95c0,0.866,1.083,5.8,3.25,14.8c2.167,9.934,3.25,17.601,3.25,23
		c0,5,0.917,14.584,2.75,28.75c1.967,15.3,3.033,24.467,3.2,27.5c0.133,2.434,0.366,11.634,0.7,27.601
		c0.267,14.199,0.633,24.05,1.1,29.55c0.767,9.5,2.15,20.684,4.15,33.55l0.899,11.65c0.767,8.533,1.65,14.733,2.65,18.6
		c0.899,3.5,2.75,7.116,5.55,10.85c3,3.934,4.7,6.483,5.1,7.65c2.067,5.7,4.25,10.167,6.551,13.4
		c0.899,1.333,4.533,4.883,10.899,10.649c7.434,6.733,11.517,10.467,12.25,11.2c1.566,1.566,3.55,3.066,5.95,4.5
		c2.9,1.767,4.866,3.066,5.9,3.9c1.733,1.399,3.333,3.083,4.8,5.05c0.733,0.967,1.3,1.8,1.7,2.5
		c-13.434-1.101-21.934-1.65-25.5-1.65c-2.2,0-4.117-0.35-5.75-1.05c-1.867-0.967-3.5-1.733-4.9-2.3c-1.733-0.7-3.6-1.517-5.6-2.45
		l-2.45-1.2c-6.9-0.366-11.533-0.55-13.9-0.55h-10.7c-1.633,0-3.649,1.05-6.05,3.15c-3.267,2.8-5,4.267-5.2,4.399
		c-1.399,0.767-2.566,1.283-3.5,1.55c-0.566,0.167-2.166,0.483-4.8,0.95c-1.966,0.367-4.633,1.167-8,2.4l-4.45,1.8l-8.9,5.9
		l-8.3,2.5c0.767-2.801,1.35-5.601,1.75-8.4l1.2-10.05l-1.2-3.4h-9.5l-6.7-0.649c-3.367,0.1-5.867-0.051-7.5-0.45
		c-0.6-0.134-2.45-0.884-5.55-2.25c-3.066-1.334-5.383-2.167-6.95-2.5c-1.733-0.367-3.634-0.617-5.7-0.75l-2.6-0.101l11.3-3.35
		c0.8-0.7,2.45-1.75,4.95-3.15c2.467-1.399,4.567-2.866,6.3-4.399c2.466-2.101,4.1-3.5,4.9-4.2c1.2-1.033,2.533-2.434,4-4.2
		c1.466-1.733,2.683-3.833,3.65-6.3c0.933-2.8,1.7-4.9,2.3-6.3c0.767-1.8,1.4-6.767,1.9-14.9c0.1-1.366,0.45-8.45,1.05-21.25
		c0.9-14,1.65-26.033,2.25-36.1c1.1-19.233,1.533-32.117,1.3-38.65c-0.233-6.033,0.217-20.2,1.35-42.5
		c1.333-26.633,2.067-42.7,2.2-48.2c0.233-8.666-0.8-24.55-3.1-47.649c-2.4-24.467-3.633-39.333-3.7-44.601
		c-0.1-6.267-1.267-15.717-3.5-28.35c-2.2-12.333-3.3-21.967-3.3-28.9V566.9c0.4-8.801,0.75-17.65,1.05-26.551
		c0.567-17.6,0.6-30.033,0.1-37.3c-0.467-7.366-2.383-18.25-5.75-32.65l-4.9-19.4c0-34.167,0.4-59.65,1.2-76.45
		c0.767-16.667,2.316-43.966,4.65-81.9c2.7-43.566,4.7-71.7,6-84.4c1.566-14.967,2.533-24.133,2.9-27.5
		c0.433-4.333,0.65-7.2,0.65-8.6c0-3.7-0.967-13.25-2.9-28.65c-2.4-19.2-4.983-34-7.75-44.4c-4.867-18.067-8.184-30.217-9.95-36.45
		c-3.7-12.933-6.716-22.35-9.05-28.25c-2.233-5.566-5.567-12.966-10-22.2L28.5,0L37.15,15.55z"/>
	<path style="fill-rule:evenodd;clip-rule:evenodd;fill:#402C08;" d="M87.5,564.55c-0.167,2.7-0.383,6.317-0.65,10.851
		c-0.167,2.767-0.25,3.017-0.25,0.75C86.6,574.483,86.9,570.617,87.5,564.55z"/>
	<path style="fill-rule:evenodd;clip-rule:evenodd;fill:#402C08;" d="M42,28.5c0.1,0,0.3-0.15,0.6-0.45c0.3-0.267,0.5-0.4,0.6-0.4
		c3.533,7.034,6.933,14.6,10.2,22.7c1.733,4.433,4.35,12.033,7.85,22.8c3.833,11.767,6.167,19.567,7,23.4
		c1.633,7.8,3.833,19.634,6.6,35.5c3.5,20.167,5.25,32.417,5.25,36.75c0,3.367,0.35,14.85,1.05,34.45
		c0.567,19.233,0.617,31.55,0.15,36.95c-0.433,4.7,0.017,15.433,1.35,32.2c1.467,19.067,2.2,32.117,2.2,39.15
		c0,8.634,0.4,17.767,1.2,27.4c0.767,9.667,1.15,15.65,1.15,17.95c0,11.567,0.2,25.617,0.6,42.15
		c0.567,23.833,1.367,38.067,2.4,42.7c1.033,4.767,1.767,8.833,2.2,12.2c0.033,0.1,0.483,4.15,1.35,12.15
		c0.333,3.233,1.417,6.45,3.25,9.65c1.4,2.5,1.9,5.717,1.5,9.65c-0.4,3.767,0.483,14.583,2.65,32.45
		c2.167,17.667,3.05,27.851,2.65,30.551c-0.767,5.6-1.15,12.6-1.15,21l0.35,8.3c0.3,6,0.566,10.233,0.8,12.7
		c0.133,1.133,0.267,3.482,0.4,7.05c0.066,2.333,0.333,4.467,0.8,6.399c0.367,1.567,1.517,4.817,3.45,9.75
		c1.666,4.367,2.5,7,2.5,7.9c0,0.833,0.649,7.333,1.95,19.5c1.166,12.767,1.5,21.383,1,25.85s-0.551,10.134-0.15,17
		c0.2,3.5,0.45,7.067,0.75,10.7v15.95c0,0.866,1.083,5.8,3.25,14.8c2.167,9.934,3.25,17.601,3.25,23c0,5,0.917,14.584,2.75,28.75
		c1.967,15.3,3.033,24.467,3.2,27.5c0.133,2.434,0.366,11.634,0.7,27.601c0.267,14.199,0.633,24.05,1.1,29.55
		c0.767,9.5,2.15,20.684,4.15,33.55l0.899,11.65c0.767,8.533,1.65,14.733,2.65,18.6c0.899,3.5,2.75,7.116,5.55,10.85
		c3,3.934,4.7,6.483,5.1,7.65c2.067,5.7,4.25,10.167,6.551,13.4c0.899,1.333,4.533,4.883,10.899,10.649
		c7.434,6.733,11.517,10.467,12.25,11.2c1.566,1.566,3.55,3.066,5.95,4.5c2.9,1.767,4.866,3.066,5.9,3.9
		c1.733,1.399,3.333,3.083,4.8,5.05c0.733,0.967,1.3,1.8,1.7,2.5c-13.434-1.101-21.934-1.65-25.5-1.65c-2.2,0-4.117-0.35-5.75-1.05
		c-1.867-0.967-3.5-1.733-4.9-2.3c-1.733-0.7-3.6-1.517-5.6-2.45l-2.45-1.2c-6.9-0.366-11.533-0.55-13.9-0.55h-10.7
		c-1.633,0-3.649,1.05-6.05,3.15c-3.267,2.8-5,4.267-5.2,4.399c-1.399,0.767-2.566,1.283-3.5,1.55
		c-0.566,0.167-2.166,0.483-4.8,0.95c-1.966,0.367-4.633,1.167-8,2.4l-4.45,1.8l-8.9,5.9l-8.3,2.5c0.767-2.801,1.35-5.601,1.75-8.4
		l1.2-10.05l-1.2-3.4h-9.5l-6.7-0.649c-3.367,0.1-5.867-0.051-7.5-0.45c-0.6-0.134-2.45-0.884-5.55-2.25
		c-3.066-1.334-5.383-2.167-6.95-2.5c-1.733-0.367-3.634-0.617-5.7-0.75l-2.6-0.101l11.3-3.35l8.9,2.5l14.8-7.55l-6.5,9.6
		l1.35,1.101c1.167,0.433,2.5-0.051,4-1.45c0.667-0.634,2.066-2.066,4.2-4.3c1.233-1.301,2.2-2.117,2.9-2.45
		c0.6-0.267,0.833-0.917,0.7-1.95c-0.066-0.366,0.3,0.017,1.1,1.15c1.567,2.233,3.15,5.866,4.75,10.899V994.4
		c-0.4,1.1,0.783-0.867,3.55-5.9c1.4-2.5,2.533-4.8,3.4-6.9c0.3-0.699,0.55-0.916,0.75-0.649c0.267,0.366,0.25,2.717-0.05,7.05
		c-0.167,2.167-0.35,4.3-0.55,6.4l2.45-7.45c1.933-7.367,2.9-12.45,2.9-15.25c0-1.601,0.633-5.483,1.9-11.65
		c1.833-9.133,3.017-15.2,3.55-18.2c0.967-5.666,1.65-10.149,2.05-13.449c0.066-0.634,0.333-3.551,0.8-8.75
		c0.267-2.801,0.45-8.834,0.55-18.101l0.05-13l-1-23.2c0.333,2.101,1.283,7.351,2.85,15.75c1.2,9.4,1.367,19.45,0.5,30.15
		c-1.067,12.934-1.8,21.616-2.2,26.05c-0.167,1.767-0.617,6.233-1.35,13.4c-0.566,5.7-1,11.666-1.3,17.899
		c-0.267,6.101-0.233,8.534,0.1,7.301c1.733-6.301,2.95-11.267,3.65-14.9l0.5-3.6l3.55-15.95c0.4-1.667,0.601,0.583,0.601,6.75
		V961.6l2.399-10.05c0.3-1.133,0.55-2.983,0.75-5.55c0.367-5.2,0.316-11.467-0.149-18.8c-0.367-5.367-0.917-8.483-1.65-9.351
		c-0.5-0.566-0.75-4.733-0.75-12.5c0-7-0.583-16.1-1.75-27.3c-1.2-11.2-1.8-21.133-1.8-29.8c0-8.533,0.1-18.816,0.3-30.85
		c0.2-12.067,0.3-21.95,0.3-29.65c0-9.8-0.5-19.733-1.5-29.8l-1.5-12.15l-0.55,39.45c0,6.167-0.2,15.967-0.6,29.4
		c-0.8-23.534-1.2-39.5-1.2-47.9c0-4.533-0.1-9.25-0.3-14.15c-0.2-4.866-0.3-8.533-0.3-11c0-3.5-0.383-10.716-1.15-21.649
		L98.5,704.6l-0.65,10.95c-0.5,7.566-0.883,12.05-1.15,13.45c-0.267,1.566-0.733-1.517-1.4-9.25c-0.633-7.533-0.95-13.134-0.95-16.8
		c0-1.167-0.467-6.483-1.4-15.95c-0.9-8.767-1.233-15.767-1-21c0.267-5.6,0.45-13.3,0.55-23.1l0.05-13l-1.2-22.7l5.95,36.1
		c0.2-3.2,0.35-7.017,0.45-11.45c0.2-8.8,0.05-16.183-0.45-22.149c-0.466-5.567-1.133-11.233-2-17c-0.933-6.3-1.45-9.867-1.55-10.7
		c-0.233-2.434-0.5-8.2-0.8-17.3l-1.6-34.75l-1.3,9.5c-0.933,7.133-1.583,12.683-1.95,16.649c0.167-3.967,0.017-7.017-0.45-9.149
		c-0.8-3.5-2.1-12.8-3.9-27.9c-1.833-15.2-3.05-26.966-3.65-35.3c-0.5-7-1.633-14.7-3.4-23.1l-2.55-10.5l-2.35,5.9v18.45l-4.65-19.7
		c2.5-6.7,3.75-13.816,3.75-21.35c0-18.167,0.117-31.8,0.35-40.9c0.1-3.533-0.133-7.017-0.7-10.45l0.65-2.5c0.4-7.833,0.4-14,0-18.5
		c-0.267-2.9,0.3-2.95,1.7-0.15c1.4,2.8,2.35,5.767,2.85,8.9c-0.2-4.9-0.517-10.9-0.95-18l-0.65-9.2c0.4-4.466,1-7.833,1.8-10.1
		c0.5-1.4,0.55-5.183,0.15-11.35l-0.75-8.8l-1.3,1.25c-1,1.4-1.75,3.5-2.25,6.3c-0.8,4.5-1.983,8.983-3.55,13.45
		c0.4-4.466,0.6-9.5,0.6-15.1v-11.75l-1.25,3.7c-0.9,2.1-1.483,2.267-1.75,0.5c-0.233-1.833-0.75-6.367-1.55-13.6l0.8-12.4
		c4.033-40.033,5.867-61.05,5.5-63.05c-0.133-0.767-0.45-1.733-0.95-2.9l0.7-7.9c0.7-1.066,1.767-1.95,3.2-2.65
		c1.2-0.533,2.034-0.066,2.5,1.4c0.133,0.5,0.5-0.517,1.1-3.05c0.567-2.4,0.667-3.867,0.3-4.4c-0.434-0.6-0.35-2.5,0.25-5.7
		c0.767-3.867,1.3-7.816,1.6-11.85l0.2-4.95h-0.45c-0.066-0.533-0.233-1.45-0.5-2.75c0.167-0.733,0.25-1.417,0.25-2.05
		c0.034-4.4-0.283-9.466-0.95-15.2c-0.2-1.434-0.917-6.45-2.15-15.05c-1.067-7.767-2.934-17.917-5.6-30.45
		c-0.233-1.2-0.684-2.3-1.35-3.3c-0.434-3.433-1.667-6.7-3.7-9.8l-1.3-0.9l-0.25-1.1c-4.867-18.067-8.184-30.217-9.95-36.45
		c-3.7-12.933-6.716-22.35-9.05-28.25L42,28.5z"/>
	<path style="fill-rule:evenodd;clip-rule:evenodd;fill:#402C08;" d="M93.9,800.8l2.9,14.95c1.9,10.333,2.85,16.366,2.85,18.1
		c0,8.834-0.183,16.017-0.55,21.551c-0.4,5.5-2.583,18.199-6.55,38.1l-1.2-6.65c-0.5-2.966-0.833-6.683-1-11.149
		c-0.1-2.767-0.15-7.334-0.15-13.7c0-4.2,0.533-8.634,1.6-13.3c1.4-5.334,2.434-9.45,3.1-12.351
		C95.3,834.684,94.967,822.833,93.9,800.8z"/>
	<path style="fill-rule:evenodd;clip-rule:evenodd;fill:#402C08;" d="M91.95,921.65c1.267-3.2,2.433-9.2,3.5-18
		c0.488-4.144,0.83-7.493,1.025-10.051c-0.019,0.742-0.044,1.575-0.075,2.5c-0.2,5.934-0.3,10.034-0.3,12.301
		c0,2.033-0.117,4.483-0.35,7.35c-0.167,1.733-0.45,4.816-0.85,9.25c-0.233,3.1-2.383,10.1-6.45,21c-2,5.467-4,10.616-6,15.45
		c0.5-1.4,1.05-3.9,1.65-7.5l2.5-16.55C88.767,930.434,90.55,925.184,91.95,921.65z"/>
	<path style="fill-rule:evenodd;clip-rule:evenodd;fill:#402C08;" d="M82.75,550.75c0.453,8.419,0.953,19.402,1.5,32.95l1.2,13.399
		c0.4,5.067,0,17.117-1.2,36.15V619.8c0-2.467-0.483-7.399-1.45-14.8l-1.5-10.4v-21c-0.367-1.1-0.617-2.649-0.75-4.649
		c-0.267-4.033,0.184-8.367,1.35-13C82.294,554.355,82.578,552.622,82.75,550.75z M78.6,519.6l0.9,3.15
		c0.586,2.316,1.103,4.758,1.55,7.325l0.55,2.375c1.219,7.117,1.602,13.218,1.15,18.3c-0.55-10.029-1.033-16.412-1.45-19.15
		c-0.081-0.51-0.165-1.018-0.25-1.524L78.6,519.6z"/>
	<path style="fill-rule:evenodd;clip-rule:evenodd;fill:#2E2107;" d="M58.75,980.5l-3.4,1.95c-2.067,1.434-2.583,2.467-1.55,3.1
		c-3.367-1.5-6-2.6-7.9-3.3l1-0.1C51.633,981.583,55.583,981.033,58.75,980.5z"/>
	<polygon style="fill-rule:evenodd;clip-rule:evenodd;fill:#2E2107;" points="77.2,146.05 78.4,153.9 77.15,147.8 	"/>
	<path style="fill-rule:evenodd;clip-rule:evenodd;fill:#2E2107;" d="M71.6,980.6l5.9,2.851c0.7,0.7,1.167,1.916,1.4,3.649h-9.5
		l-6.2-0.6l1.45-0.2c1.733-0.267,2.95-1.616,3.65-4.05C68.8,980.316,69.9,979.767,71.6,980.6z"/>
	<path style="fill-rule:evenodd;clip-rule:evenodd;fill:#2E2107;" d="M76,210.75c0.2-0.967,0.45-1.95,0.75-2.95l0.4-1.2
		c1.333-9.133,2.434-17.4,3.3-24.8c0.566,16.934,0.9,27.684,1,32.25c0.3,13.034,0.25,21.75-0.15,26.15
		c-0.433,4.7,0.017,15.433,1.35,32.2c1.467,19.067,2.2,32.117,2.2,39.15c0,8.634,0.4,17.767,1.2,27.4
		c0.767,9.667,1.15,15.65,1.15,17.95c0,11.567,0.2,25.617,0.6,42.15c0.567,23.833,1.367,38.067,2.4,42.7
		c1.033,4.767,1.767,8.833,2.2,12.2c0.033,0.1,0.483,4.15,1.35,12.15c0.333,3.233,1.417,6.45,3.25,9.65c1.4,2.5,1.9,5.717,1.5,9.65
		c-0.4,3.767,0.483,14.583,2.65,32.45c2.167,17.667,3.05,27.851,2.65,30.551c-0.767,5.6-1.15,12.6-1.15,21l0.35,8.3
		c0.3,6,0.566,10.233,0.8,12.7c0.133,1.133,0.267,3.482,0.4,7.05c0.066,2.333,0.333,4.467,0.8,6.399
		c0.367,1.567,1.517,4.817,3.45,9.75c1.666,4.367,2.5,7,2.5,7.9c0,0.833,0.649,7.333,1.95,19.5c1.166,12.767,1.5,21.383,1,25.85
		s-0.551,10.134-0.15,17c0.2,3.5,0.45,7.067,0.75,10.7v15.95c0,0.866,1.083,5.8,3.25,14.8c2.167,9.934,3.25,17.601,3.25,23
		c0,5,0.917,14.584,2.75,28.75c1.967,15.3,3.033,24.467,3.2,27.5c0.133,2.434,0.366,11.634,0.7,27.601
		c0.267,14.199,0.633,24.05,1.1,29.55c0.767,9.5,2.15,20.684,4.15,33.55l0.899,11.65c0.767,8.533,1.65,14.733,2.65,18.6
		c0.899,3.5,2.75,7.116,5.55,10.85c3,3.934,4.7,6.483,5.1,7.65c2.067,5.7,4.25,10.167,6.551,13.4
		c0.899,1.333,4.533,4.883,10.899,10.649c7.434,6.733,11.517,10.467,12.25,11.2c1.566,1.566,3.55,3.066,5.95,4.5
		c2.9,1.767,4.866,3.066,5.9,3.9c1.733,1.399,3.333,3.083,4.8,5.05c0.733,0.967,1.3,1.8,1.7,2.5
		c-13.434-1.101-21.934-1.65-25.5-1.65c-2.2,0-4.117-0.35-5.75-1.05c-1.867-0.967-3.5-1.733-4.9-2.3c-1.733-0.7-3.6-1.517-5.6-2.45
		l-2.45-1.2c-6.9-0.366-11.533-0.55-13.9-0.55h-10.7c-1.633,0-3.649,1.05-6.05,3.15c-3.267,2.8-5,4.267-5.2,4.399
		c-1.399,0.767-2.566,1.283-3.5,1.55c-0.566,0.167-2.166,0.483-4.8,0.95c-1.966,0.367-4.633,1.167-8,2.4l-4.45,1.8l-8.9,5.9
		l-8.3,2.5l0.4-1.601c1.5-1.2,3.133-2.35,4.9-3.45c2.667-1.533,4.55-2.649,5.65-3.35c1.833-1.167,3.117-2.283,3.85-3.35
		c0.767-1.067,1.417-2.584,1.95-4.551l0.55-2.649l1.75-1c1.133-0.4,1.7,0.1,1.7,1.5v3.35c1.4-0.833,2.883-1.916,4.45-3.25
		c3.167-2.666,5.233-5.233,6.2-7.7l2.4-5.85l2.45,1.5c1.566,1.066,2.183,1.85,1.85,2.35c-0.5,0.801-0.566,1.934-0.2,3.4
		c0.3,1.1,0.634-0.434,1-4.6c0.334-3.9,0.667-8.45,1-13.65l0.4-6.65l3.55,2.5l1.2-7.55c0.399-2.233,0.8-4.934,1.2-8.1
		c0.8-6.3,1.199-11.717,1.199-16.25V914.6l1.801,13c1.166,9.233,1.75,15.25,1.75,18.051v12.6c0,1.7,1.183,4.5,3.55,8.4
		c-0.033-0.101-0.033-0.2,0-0.301c0.1-0.199,0.3-0.267,0.6-0.199c1,0.133,2.983,1.416,5.95,3.85c2.767,2.3,6,4.233,9.7,5.8
		c3.533,1.5,5.434,2.367,5.7,2.601c1.466,1.366,5.216,3.333,11.25,5.899c2,0.834,4.183,1.983,6.55,3.45
		c0.6,0.366,0.866,0.517,0.8,0.45c-0.033-0.066-0.5-0.533-1.4-1.4c-1.199-1.1-8.267-8.583-21.199-22.45
		c3.399,3.467,6.316,5.634,8.75,6.5c1.933,0.7,1.166-1.466-2.301-6.5c-4.6-6.3-7.6-10.566-9-12.8c-2.366-4.2-3.966-7.033-4.8-8.5
		c-1.366-2.399-2.533-3.767-3.5-4.1c-0.967-0.367-2.149-1.316-3.55-2.851l-1.75-2.199c-1.6-6.167-2.4-10.084-2.4-11.75
		c0-0.467-0.366-2.217-1.1-5.25c-0.934-3.867-1.75-8.551-2.45-14.051c-0.633-5-1.55-9.449-2.75-13.35
		c-0.934-3-1.399-5.55-1.399-7.65c0-2.8-0.2-8.267-0.601-16.399l-0.6-11.351l-0.601,13.15c-0.399,9.366-0.6,15.634-0.6,18.8v14.25
		c-1.167-11.2-2.15-22.666-2.95-34.399c-0.5-7.367-1.033-13.767-1.6-19.2l-0.75-6c0.399-17.934,0.6-31.934,0.6-42
		c0-6.233-0.1-13.05-0.3-20.45c-0.233-6.2-0.35-9.45-0.35-9.75c0.066-1.167,0.566,3.717,1.5,14.65c1,11.433,1.5,20.533,1.5,27.3
		v15.95c0.899-25.5,1.316-42.934,1.25-52.301c-0.034-5.866-0.25-11.366-0.65-16.5l-0.6-5.949
		c-6.034-15.667-9.534-25.617-10.5-29.851c0,0.367-0.067,1.084-0.2,2.15c-0.167,1.866-0.283,4.55-0.351,8.05l-0.199-3
		c-0.5-7.366-1.25-16.566-2.25-27.6l-2.5-27.65l3.95,10c2.667,6.066,4.117,7.7,4.35,4.9c0.166-1.733-0.033-3.283-0.601-4.65
		c-0.566-1.333-0.6-4.316-0.1-8.95c0.233-2.333,0.684-4.933,1.35-7.8c0.2-0.833,0.184-4.333-0.05-10.5
		c-0.267-6.867-0.733-12.184-1.399-15.95c-0.067-0.233-0.733-2.899-2-8c-0.267-1.066-0.634-3.183-1.101-6.35
		c-0.267-1.767-0.75-3.15-1.45-4.15l-4.15-5.85c-0.8-3.634-1.567-7.8-2.3-12.5c-1.467-9.367-2.083-16.684-1.85-21.95
		c0.267-5.233,0.65-9.316,1.15-12.25l0.65-2.85l-1.8-13.45c-0.4-5.033-1-8.95-1.8-11.75c-0.733-2.7-1.967-11-3.7-24.9
		c-1.833-14.733-2.517-23.233-2.05-25.5c0.433-2.1,0.733-4.833,0.9-8.2l-1.05-42.2l-4.15,21.85l-0.6-23.5l-4.75-31.8l0.05-1.5
		c0.2-5.533,0.25-8.583,0.15-9.15v-1.95c0.034-3.733-0.283-7.483-0.95-11.25c2.466-4.667,3.7-8.8,3.7-12.4
		c0-2.8-0.283-5.317-0.85-7.55l-0.9-2.55l-4.15-7.55c0-10.066,0.383-18.466,1.15-25.2c0.4-3.233,1.067-10.183,2-20.85
		c0.733-4.1,1.1-8.133,1.1-12.1v-1.3l0.5-6.05l-0.75,1.75c-0.333-4.167-1.1-8.267-2.3-12.3v-0.85c0-12.933-0.167-23.966-0.5-33.1
		C77.917,231.65,77.133,220.717,76,210.75z"/>
	<path style="fill-rule:evenodd;clip-rule:evenodd;fill:#2E2107;" d="M109.75,866.15c-0.233-3.467,0.1-10.434,1-20.9l1.4-14.7
		l0.3,7.55c0.166,5.667,0.25,10.051,0.25,13.15c0,3,0.133,5.934,0.399,8.8c0.134,1.733,0.4,4.867,0.801,9.4
		c0.133,1.866,0.116,6.666-0.051,14.399c-0.133,7,0.084,12.983,0.65,17.95c0.3,2.634,0.816,6.634,1.55,12
		c0.634,4.934,0.983,9.384,1.05,13.351c0.267,11.133-1.383,23.116-4.949,35.949c-1.934,6.834-2.917,10.101-2.95,9.801
		c-0.033-0.267,0.517-2.884,1.649-7.851c3.567-15.233,5.384-23.066,5.45-23.5c0.233-1.866,0.184-6.267-0.149-13.2
		c-0.301-5.733-0.667-10.85-1.101-15.35c-0.133-1.2-1.033-8.85-2.7-22.95C110.85,877.35,109.983,869.384,109.75,866.15z"/>
	<path style="fill-rule:evenodd;clip-rule:evenodd;fill:#2E2107;" d="M102.1,945.75c-0.833,13.366-1.4,21.717-1.7,25.05
		c-0.5,5.367-1.133,9.15-1.9,11.351c-0.4-2.767-0.4-6.917,0-12.45c0.2-3.134,0.633-6.917,1.3-11.351
		c0.9-6.066,1.467-10.166,1.7-12.3c0.467-3.967,0.9-8.383,1.3-13.25l0.25-3.075L102.1,945.75z"/>
	<path style="fill-rule:evenodd;clip-rule:evenodd;fill:#2E2107;" d="M106.2,971.35c-0.6,3.601-1.4,6.101-2.4,7.5
		c-0.867,1.2-0.633-0.517,0.7-5.149l2.3-7.3L106.2,971.35z"/>
	<path style="fill-rule:evenodd;clip-rule:evenodd;fill:#2E2107;" d="M134.65,945.7c0.5,4.467,2.433,9.95,5.8,16.45
		c1.7,3.267,3.333,6.066,4.899,8.399c-3.166-3.333-5.55-5.55-7.149-6.649c-0.967-0.7-1.851-2.15-2.65-4.351l-0.899-3.1
		c-0.134-3.033-0.233-5.75-0.301-8.15C134.217,943.5,134.316,942.634,134.65,945.7z"/>
	<path style="fill-rule:evenodd;clip-rule:evenodd;fill:#2E2107;" d="M111.25,759.2c0.6,8.399,0.9,14,0.9,16.8v22.7
		c0,3.333-0.601,8.083-1.801,14.25c-0.8-16.8-1.199-26.316-1.199-28.55c0-0.467-0.15-4.917-0.45-13.351
		c-0.167-4.967-0.017-8.833,0.45-11.6c0.5-2.9,0.85-5.767,1.05-8.601l0.149-3.399L111.25,759.2z"/>
	<path style="fill-rule:evenodd;clip-rule:evenodd;fill:#2E2107;" d="M97.3,671.85c0-4.899,0.083-10.267,0.25-16.1l0.25-7.25
		c1.434,7.467,1.85,17.35,1.25,29.65c-0.633,12.1-1.216,17-1.75,14.699c-0.233-0.967-0.3-3.3-0.2-7
		C97.233,678.917,97.3,674.25,97.3,671.85z"/>
	<path style="fill-rule:evenodd;clip-rule:evenodd;fill:#2E2107;" d="M105.5,633.9c1.7,7.066,2.384,15.833,2.05,26.3
		c-0.166,5.233-0.517,9.767-1.05,13.6c-1.8-12.433-2.7-20.333-2.7-23.7c0-2.1,0.284-5.433,0.85-10L105.5,633.9z"/>
	<path style="fill-rule:evenodd;clip-rule:evenodd;fill:#2E2107;" d="M85.9,486.05c1.767,11.2,2.4,18.55,1.9,22.05
		c-0.3,2.101-0.466,3.268-0.5,3.5c-0.066,0.233-0.1,0.018-0.1-0.649c0-2.733-0.2-4.517-0.6-5.351c-0.467-1.066-1-4.616-1.6-10.649
		l-0.75-8.7c0-3.367-0.4-8.684-1.2-15.95L85.9,486.05z"/>
	<path style="fill-rule:evenodd;clip-rule:evenodd;fill:#2E2107;" d="M75.75,382.1c0.5,4.767,0.367,9.25-0.4,13.45
		c-0.733,4.2-1.25,4.2-1.55,0L73.55,388c0.8-5.033,1.2-8.95,1.2-11.75L75.75,382.1z"/>
	<path style="fill-rule:evenodd;clip-rule:evenodd;fill:#6A481F;" d="M96.1,908.4l0.75,7.55c0.4,5.666,0.35,10.05-0.15,13.149
		c-0.634,3.867-1.517,8.867-2.65,15c-1.233,6.367-2.133,10.767-2.7,13.2c-1,4.267-2.917,11.967-5.75,23.101
		c-3.267,12.733-4.9,18.566-4.9,17.5l0.05-21.9l4.1-10.45c1.566-3.3,3.733-8.533,6.5-15.7c1.6-4.166,2.433-6.933,2.5-8.3
		c0.066-2.166,0.233-3.833,0.5-5C94.717,934.917,95.3,925.533,96.1,908.4z"/>
	<path style="fill-rule:evenodd;clip-rule:evenodd;fill:#6A481F;" d="M80.2,784.45c0.333,2.666,0.5,5.166,0.5,7.5
		c0,3.366,0.083,12.083,0.25,26.149c0.066,13.4-0.017,22.334-0.25,26.801c-0.233,4.267-0.3,7.833-0.2,10.699
		c0.133,5.034,0.2,8.184,0.2,9.45c0,4.267-0.15,9.017-0.45,14.25c-0.2,3.767-0.65,10.217-1.35,19.351c-0.5,6.633-0.45,17.3,0.15,32
		c0.3,7.366,0.65,14.05,1.05,20.05v5.899c0,2.4-0.5,3.184-1.5,2.351c-1.434-1.634-2.567-2.75-3.4-3.351
		c-1.034-0.733-1.617,0.051-1.75,2.351c-0.067,1.133-0.034,2.35,0.1,3.649L71.2,965h-2.95c-1.4,0-2.25,0.066-2.55,0.2
		c-0.1,0.066-0.634,0.55-1.6,1.45c-0.6,0.566-1.6,1.833-3,3.8c-1.5,1.866-3.083,3.116-4.75,3.75c-2.7,1.066-7.167,2.366-13.4,3.899
		l-8.55,2l11.3-3.35c0.8-0.7,2.45-1.75,4.95-3.15c2.467-1.399,4.567-2.866,6.3-4.399c2.466-2.101,4.1-3.5,4.9-4.2
		c1.2-1.033,2.533-2.434,4-4.2c1.466-1.733,2.683-3.833,3.65-6.3c0.933-2.8,1.7-4.9,2.3-6.3c0.767-1.8,1.4-6.767,1.9-14.9
		c0.1-1.366,0.45-8.45,1.05-21.25c0.9-14,1.65-26.033,2.25-36.1c1.1-19.233,1.533-32.117,1.3-38.65
		C78.066,831,78.7,813.384,80.2,784.45z"/>
	<path style="fill-rule:evenodd;clip-rule:evenodd;fill:#6A481F;" d="M86.6,756.7c0.5-4.566,0.633-12.733,0.4-24.5l-0.55-16.3
		l1.9,17.75c1.233,12.333,1.85,19.733,1.85,22.199v18.5c0,3.667-0.167,7.65-0.5,11.95c-0.333,3.9-0.967,9.983-1.9,18.25
		c-0.7,6.4-0.917,12.283-0.65,17.65c0.133,2.934,0.35,7.133,0.65,12.6c0,6.167-1.783,29.967-5.35,71.4c0.8-26.334,1.2-42.3,1.2-47.9
		v-56.25c0-5.033,0.2-11.2,0.6-18.5C84.583,777.283,85.367,768.333,86.6,756.7z"/>
	<path style="fill-rule:evenodd;clip-rule:evenodd;fill:#6A481F;" d="M96.2,786.75c1.833,9.934,2.683,16.85,2.55,20.75
		c-0.133,3.3-0.35,3.733-0.65,1.3c-0.333-3.934-0.6-6.75-0.8-8.45c-0.233-2.066-0.9-5.199-2-9.399l-1.55-5.7
		c-0.767-1.1-1.383-2.434-1.85-4c-0.967-3.1-0.75-5.733,0.65-7.9C93.15,772.417,94.367,776.884,96.2,786.75z"/>
	<path style="fill-rule:evenodd;clip-rule:evenodd;fill:#6A481F;" d="M101.45,857.05c0.267-5.866,0.733-12.883,1.4-21.05l0.95-10.45
		l0.3,8.601c0.2,6.5,0.3,11.649,0.3,15.449c0,4.134-0.667,9.784-2,16.95c-1.133,6.134-2.25,10.967-3.35,14.5
		c-0.733,2.434-2.033,5.233-3.9,8.4c-0.933,1.6-1.8,2.95-2.6,4.05c0.7-1.5,1.4-3.217,2.1-5.15c1.367-3.866,2.05-6.85,2.05-8.949
		c0-2.067,0.5-4.75,1.5-8.051l1.45-4.35C100.683,864.233,101.283,860.917,101.45,857.05z"/>
	<path style="fill-rule:evenodd;clip-rule:evenodd;fill:#6A481F;" d="M89.6,905.9l2.35-5.801l-0.6,18.25l-1.45,6.75
		c-1.2,5.101-2.3,9.2-3.3,12.301c-0.967,3.1-1.267,1.816-0.9-3.851l0.9-9.399C87.4,915.85,88.4,909.767,89.6,905.9z"/>
	<path style="fill-rule:evenodd;clip-rule:evenodd;fill:#6A481F;" d="M89.35,618.95L88.4,600.5l0.7,4.3
		c0.5,3.5,0.867,6.817,1.1,9.95c0.3,4.167,0.667,12.083,1.1,23.75c0.434,12.434,0.65,21.6,0.65,27.5c0,22.4,0.2,36.95,0.6,43.65
		c0.167,2.866,1.133,10.666,2.9,23.399c1.633,11.834,2.45,19.434,2.45,22.8c0,4.667-0.75,4.051-2.25-1.85
		c-1.533-5.9-2.667-12.733-3.4-20.5c-0.533-5.434-1.067-10.134-1.6-14.1c-0.767-5.434-1.517-11.483-2.25-18.15
		c-1.066-9.467-1.667-15.45-1.8-17.95c0-0.233,0-3.483,0-9.75c-0.567-5.533-0.967-9.5-1.2-11.899
		c-0.433-4.167,0.167-8.884,1.8-14.15C88.933,641.9,89.65,632.383,89.35,618.95z"/>
	<path style="fill-rule:evenodd;clip-rule:evenodd;fill:#6A481F;" d="M87.5,564.55c1.1,2.2,1.383,6.317,0.85,12.351
		c-0.267,3.033-0.65,5.85-1.15,8.449c-0.4-3.366-0.6-7.283-0.6-11.75c-0.067-4.199-0.083-6.883-0.05-8.05
		C86.583,563.717,86.9,563.383,87.5,564.55z"/>
	<path style="fill-rule:evenodd;clip-rule:evenodd;fill:#6A481F;" d="M77.7,488.8c2.767,8.8,3.733,20.767,2.9,35.9
		c-0.434,8.233-1.4,18.933-2.9,32.1c-0.467,6.634-0.217,18.017,0.75,34.15c0.5,8.033,1.05,15.417,1.65,22.149
		c-0.6-3.366-1.233-7.683-1.9-12.949c-1.4-10.5-2.35-20.467-2.85-29.9c-0.5-9.267-0.567-15.217-0.2-17.85
		c0.733-3.5,1.4-8.184,2-14.051c0.7-7.133,1.017-12.183,0.95-15.149c-0.267-3.067-0.4-6.417-0.4-10.05c0-1.4-0.3-7.783-0.9-19.15
		C76.467,487.5,76.767,485.767,77.7,488.8z"/>
	<path style="fill-rule:evenodd;clip-rule:evenodd;fill:#6A481F;" d="M67.65,341.8c0.4,5.6,0.2,12.6-0.6,21l-0.45,5.35
		c-0.4,4.067-0.85,7.317-1.35,9.75c-0.434,2.3-0.7,2-0.8-0.9c-0.167-5.367-0.284-8.417-0.35-9.15c-0.233-2.1-0.3-5.117-0.2-9.05
		l0.2-5.25L67.65,341.8z"/>
	<path style="fill-rule:evenodd;clip-rule:evenodd;fill:#6A481F;" d="M73,334.45c0.566,8.967,0.55,15.333-0.05,19.1
		c-0.467,3.134-0.9,1.983-1.3-3.45l-0.45-9.15c-0.434-6.767-0.434-11.517,0-14.25C71.8,322.934,72.4,325.517,73,334.45z"/>
	<path style="fill-rule:evenodd;clip-rule:evenodd;fill:#2E2107;" d="M95.5,852.05c0.5-1.7,1.15-6.767,1.95-15.2l1.05-12.1l0.3,5.3
		c0.167,4,0.25,7.2,0.25,9.601c0,6.066-0.183,12.699-0.55,19.899c-0.233,4.467-1.1,9.816-2.6,16.05
		c-0.733,3.101-1.45,5.75-2.15,7.95V867.8c0-4.066,0.017-6.35,0.05-6.85C93.967,858.35,94.533,855.384,95.5,852.05z"/>
	<path style="fill-rule:evenodd;clip-rule:evenodd;fill:#2E2107;" d="M86,542.75l0.6-4.4l0.6-10.949l6.7,13.85
		c4.333,9.8,6.25,16.1,5.75,18.9c-0.367,2.267-0.55,3.283-0.55,3.05c0-0.634-0.2-0.25-0.6,1.149c-0.4,1.4-1.167,2.101-2.3,2.101
		c-1.034,0-1.65,0.7-1.85,2.1c-0.267,1.833-0.633,1.583-1.1-0.75c-0.767-3.967-1.4-6.517-1.9-7.649
		c-1.167-2.801-2.55-5.867-4.15-9.2C86.233,548.85,85.833,546.117,86,542.75z"/>
	<path style="fill-rule:evenodd;clip-rule:evenodd;fill:#402C08;" d="M68.35,387.05c0.233,10.034,0.35,17.184,0.35,21.45
		s-0.6,9.233-1.8,14.9c-0.6,2.833-1.2,5.25-1.8,7.25c-0.5-4.167-0.75-9.466-0.75-15.9c0-4.033,0.367-9.417,1.1-16.15L68,373.25
		L68.35,387.05z"/>
	<path style="fill-rule:evenodd;clip-rule:evenodd;fill:#6A481F;" d="M60.95,425.9c0.2-12.1,0.366-16.583,0.5-13.45l2.2,40.9
		c-0.467-0.1-0.95-0.383-1.45-0.85c-0.967-0.934-1.45-2.35-1.45-4.25C60.75,443.684,60.816,436.233,60.95,425.9z"/>
	<path style="fill-rule:evenodd;clip-rule:evenodd;fill:#6A481F;" d="M71.95,603.9c-0.233-3.067,0.066-7.018,0.9-11.851l1.3-6.3
		v14.75c0,2.633,0.517,8.383,1.55,17.25c0.066,0.566,0.75,6.184,2.05,16.85c0.5,3.768,1.483,20.434,2.95,50
		c-0.5-3.033-0.983-7.017-1.45-11.949c-0.667-7.867-1.283-14.684-1.85-20.45c-1.1-10.967-2.183-18.917-3.25-23.851
		c-1.066-4.967-1.75-10.533-2.05-16.699L71.95,603.9z"/>
	<path style="fill-rule:evenodd;clip-rule:evenodd;fill:#6A481F;" d="M63.3,388l0.7,10.6c0.4,7.7,0.517,13.083,0.35,16.15
		c-0.233,4.9,0.017,10.2,0.75,15.9c-0.733-4.167-1.35-9.066-1.85-14.7C62.217,404.684,62.233,395.367,63.3,388z"/>
	<path style="fill-rule:evenodd;clip-rule:evenodd;fill:#6A481F;" d="M76.9,194.6l-1,18.05c-0.833,13.133-1.717,22.55-2.65,28.25
		c-0.9,5.667-1.85,16.833-2.85,33.5c-0.5,8.333-0.917,16.1-1.25,23.3v-3.4c0.767-21.5,1.267-36.6,1.5-45.3
		c0.133-5.467,1.217-16.167,3.25-32.1L76.9,194.6z"/>
	<path style="fill-rule:evenodd;clip-rule:evenodd;fill:#6A481F;" d="M75.6,185.2c-0.667,2.566-1.117,5.6-1.35,9.1
		c-0.3,4.5-0.567,7.534-0.8,9.1c-0.467,2.833-1.934,16.467-4.4,40.9c-1.233,12.233-2.433,24.167-3.6,35.8c0-3.8,0.116-7.6,0.35-11.4
		c3.633-44.667,5.7-68.517,6.2-71.55c0.3-1.9,0.983-4.466,2.05-7.7L75.6,185.2z"/>
	<path style="fill-rule:evenodd;clip-rule:evenodd;fill:#2E2107;" d="M74.9,261.35l1.4,10c0.9,7.3,1.267,12.483,1.1,15.55
		c-0.167,3.733-0.617,7.617-1.35,11.65c-0.733,4.067-1.367,6.25-1.9,6.55c-0.5,0.267-0.816-0.717-0.95-2.95
		c-0.1-1.466-0.15-4.85-0.15-10.15c0-4.566,0.167-9.684,0.5-15.35C73.917,270.983,74.367,265.883,74.9,261.35z"/>
	<path style="fill-rule:evenodd;clip-rule:evenodd;fill:#4B330F;" d="M75.25,408.5l0.75,6.05c0.467,4.634,0.7,8.483,0.7,11.55
		s-0.367,6.45-1.1,10.15c-0.367,1.833-0.733,3.367-1.1,4.6c0-1.5-0.117-4.534-0.35-9.1c-0.2-3.667-0.2-7.833,0-12.5
		C74.35,414.217,74.717,410.633,75.25,408.5z"/>
	<path style="fill-rule:evenodd;clip-rule:evenodd;fill:#4B330F;" d="M84.4,458.95c0.833,3.733,2.133,9.25,3.9,16.55
		c0.9,4.267,1.117,10.083,0.65,17.45c-0.233,3.667-0.567,6.917-1,9.75c-0.733-4.967-1.217-9.717-1.45-14.25
		c-0.167-2.8-0.934-9.184-2.3-19.15c-1.434-10.066-2.25-15.85-2.45-17.35c-0.533-4.634-0.617-9.567-0.25-14.8l0.65-6.5v13.05
		C82.15,447.2,82.9,452.283,84.4,458.95z"/>
	<path style="fill-rule:evenodd;clip-rule:evenodd;fill:#2E2107;" d="M90.45,585.4l1.7,7.149c1.1,5.101,1.65,8.517,1.65,10.25
		c0,2.767-0.117,9.634-0.35,20.601c0-1.301-0.333-4.101-1-8.4c-0.567-3.566-1.067-8.35-1.5-14.35
		C90.483,594.083,90.316,589,90.45,585.4z"/>
	<path style="fill-rule:evenodd;clip-rule:evenodd;fill:#2E2107;" d="M79.8,364.15c0.267,2.067,0.067,4.367-0.6,6.9
		c-0.3,1.267-0.65,2.333-1.05,3.2v-2.55c0-1.3,0.233-3.15,0.7-5.55C79.316,363.684,79.633,363.017,79.8,364.15z"/>
	<path style="fill-rule:evenodd;clip-rule:evenodd;fill:#2E2107;" d="M76.15,243.25c0.7,2.3,0.783,4.6,0.25,6.9
		c-0.233,1.167-0.55,2.1-0.95,2.8c-0.867-0.667-1.3-1.417-1.3-2.25c0-0.967,0.25-2.634,0.75-5
		C75.433,243.167,75.85,242.35,76.15,243.25z"/>
	<path style="fill-rule:evenodd;clip-rule:evenodd;fill:#402C08;" d="M72.7,132.05c0.8,4.267,1.283,7.233,1.45,8.9
		c0.1,1.267,0.7,6.25,1.8,14.95l-1.3-2.4c-0.533-1-1.017-3.4-1.45-7.2c-0.367-4.333-0.667-7.25-0.9-8.75l-1.85-14.15
		C70.983,124.1,71.733,126.983,72.7,132.05z"/>
	<path style="fill-rule:evenodd;clip-rule:evenodd;fill:#402C08;" d="M76,170.45l0.15-9.55l0.65,2.4c0.4,2,0.567,3.934,0.5,5.8
		c-0.167,3.8-0.833,6.483-2,8.05c-0.267,0.367-0.35,0.417-0.25,0.15c0.3-0.833,0.5-1.633,0.6-2.4
		C75.783,173.967,75.9,172.483,76,170.45z"/>
	<path style="fill-rule:evenodd;clip-rule:evenodd;fill:#402C08;" d="M77,179.35c-0.033-2.767,0.117-3.45,0.45-2.05
		c0.566,2.267,0.466,5.8-0.3,10.6v-2.55C77.083,182.816,77.033,180.816,77,179.35z"/>
	<path style="fill-rule:evenodd;clip-rule:evenodd;fill:#6A481F;" d="M78.3,185c0.1,1.833-0.283,4.1-1.15,6.8v-1.65
		c0-0.533,0.2-1.55,0.6-3.05L78.3,185z"/>
	<path style="fill-rule:evenodd;clip-rule:evenodd;fill:#6A481F;" d="M74.5,143.7c0.142,0.76,0.325,1.677,0.55,2.75
		c0.8,3.9,1.217,6.183,1.25,6.85c0.1,1.5,0.1,2.8,0,3.9c-0.566-2.9-1.017-5.434-1.35-7.6c-0.2-1.333-0.35-3.25-0.45-5.75V143.7
		c-0.326-1.718-0.442-2.635-0.35-2.75l0.3-0.5L74.5,143.7z"/>
	<path style="fill-rule:evenodd;clip-rule:evenodd;fill:#4B330F;" d="M59.15,74.15l2.7,6.4c1.8,4.534,2.733,7.434,2.8,8.7
		c0.1,2.066,0.033,4.117-0.2,6.15c-0.867-2.466-1.534-4.45-2-5.95c-0.2-0.667-0.45-1.833-0.75-3.5c-0.233-1.5-0.483-2.6-0.75-3.3
		c-0.3-0.9-0.667-2.35-1.1-4.35C59.45,76.4,59.217,75.017,59.15,74.15z"/>
	<path style="fill-rule:evenodd;clip-rule:evenodd;fill:#4B330F;" d="M48.95,44.3c0.633,1.767,1.3,3.3,2,4.6
		c0.733,1.3,1.9,4.517,3.5,9.65c0.333,1.134,1.4,4.717,3.2,10.75c0.434,1.434,0.567,2.434,0.4,3c-0.1,0.267-0.233,0.4-0.4,0.4
		c-0.133-0.434-0.25-0.967-0.35-1.6c-2-6.333-3.45-11.05-4.35-14.15c-0.534-1.967-1.833-5.75-3.9-11.35l-2.9-7.8l0.8,1.4
		c0.533,1,0.866,1.7,1,2.1C48.083,41.633,48.417,42.633,48.95,44.3z"/>
</g>
</svg>
