<?xml version="1.0" encoding="iso-8859-1"?>
<!-- Generator: Adobe Illustrator 15.1.0, SVG Export Plug-In . SVG Version: 6.00 Build 0)  -->
<!DOCTYPE svg PUBLIC "-//W3C//DTD SVG 1.1//EN" "http://www.w3.org/Graphics/SVG/1.1/DTD/svg11.dtd">
<svg version="1.1" id="FlashAICB" xmlns="http://www.w3.org/2000/svg" xmlns:xlink="http://www.w3.org/1999/xlink" x="0px" y="0px"
	 width="217.3px" height="101.85px" viewBox="0 0 217.3 101.85" style="enable-background:new 0 0 217.3 101.85;"
	 xml:space="preserve">
<g>
	<path style="fill-rule:evenodd;clip-rule:evenodd;fill:#4B330F;" d="M175.9,59.05c4.1,1.834,6.566,2.9,7.399,3.2
		c-5.399-1.066-10.433-1.5-15.1-1.3c-5.667,0.233-10.567,1.416-14.7,3.55c-2.8,1.434-6.983,4.983-12.55,10.65
		c-4.967,5-9.434,8.116-13.4,9.35c3.833,4.267,10.384,6.7,19.65,7.3c2.167,0.134,6.05,0.2,11.649,0.2
		c4.768,0.033,8.316,0.184,10.65,0.45c2.233,0.267,6.1,1.083,11.6,2.45c4.934,1.233,8.851,1.933,11.75,2.1
		c2.834,0.167,7.066,0.283,12.7,0.35c4.767,0.434,8.684,1.851,11.75,4.25c-2.167,0.301-5,0.334-8.5,0.101
		c-3.933-0.367-6.8-0.601-8.6-0.7c-16.067-0.967-34.967-1.4-56.7-1.3c-5.2,0-11.017-1.15-17.45-3.45
		c-4.033-1.434-9.566-3.85-16.6-7.25c-4.134-2-9.784-3.533-16.95-4.6c-8.3-1.233-13.95-2.351-16.95-3.351
		C70.183,79.217,64.033,75.866,57.1,71c-2.967-2.066-8.45-6.267-16.45-12.6c-2.133-1.7-7.167-4.867-15.1-9.5
		c-6.566-3.833-11.3-7.35-14.2-10.55C8.383,35.117,6.367,31.133,5.3,26.4c-1.167-5.167-0.75-9.533,1.25-13.1
		c3.567-6.4,7.817-7.983,12.75-4.75c1.733,1.1,3.717,2.934,5.95,5.5c1.233,1.434,2.933,3.467,5.1,6.1c1.133,1.3,3.4,4.15,6.8,8.55
		c2.8,3.7,5.15,6.483,7.05,8.35c1.933,1.9,4.9,4.65,8.9,8.25c4.1,3.667,7.133,6.467,9.1,8.4c2.233,2.2,4.866,4.033,7.9,5.5
		c0.367,0.2,3.333,1.467,8.9,3.8c1.967,0.833,4.867,2.017,8.7,3.55c3.333,1.367,6.149,2.584,8.45,3.65
		c1.067,0.5,2.817,1.05,5.25,1.649c2.467,0.601,4.233,1.15,5.3,1.65c0.8,0.366,2.05,1.184,3.75,2.45
		c1.566,1.133,2.816,1.883,3.75,2.25c3.366,1.267,8.2-0.733,14.5-6c1.7-1.434,4.216-3.566,7.55-6.4
		c2.833-2.233,5.217-3.649,7.15-4.25c0.133-3.733,0.8-7.1,2-10.1c1.199-3.067,3.033-5.967,5.5-8.7
		c-1.9,3.467-2.101,8.366-0.601,14.7c0.833,0.2,2.184,0,4.05-0.601c2.268-0.699,3.717-1.083,4.351-1.149
		c2.899-0.334,6.05-0.117,9.45,0.649C170.217,56.783,172.8,57.684,175.9,59.05z"/>
	<g>
		<path style="fill-rule:evenodd;clip-rule:evenodd;fill:#402C08;" d="M132.05,78.15c2.733-2.233,4.866-4.051,6.4-5.45
			c2.366,0.133,4.366-0.934,6-3.2c0.167,0.733,0.149,1.434-0.05,2.1c-1.5,1.567-2.634,2.733-3.4,3.5
			c-1.367,1.367-2.533,2.483-3.5,3.351c-2.2,1.2-4.45,2.25-6.75,3.149c1.033-0.267,2.267-0.483,3.7-0.649
			c-1.934,1.399-3.967,2.483-6.101,3.25c-1.033-0.134-1.949-0.384-2.75-0.75C126.733,82.483,128.883,80.717,132.05,78.15z"/>
		<path style="fill-rule:evenodd;clip-rule:evenodd;fill:#402C08;" d="M170.9,58.9c2.066,0.3,4.366,0.899,6.899,1.8
			c0.366,0.1,1.3,0.45,2.8,1.05l-0.35-0.05c-2.033-0.634-4.434-0.983-7.2-1.05c-3.366,0-6,0-7.899,0c-5.9,0-9.033,0.017-9.4,0.05
			c-4.1,0.2-6.917,0.866-8.45,2c-1.233,0.899-2.833,2.483-4.8,4.75c-2.434,2.833-3.983,4.566-4.65,5.2h0.25
			c-1.666,1.166-3.083,1.416-4.25,0.75c0.634-1.233,2.184-3.15,4.65-5.75c2.434-2.601,4.267-4.267,5.5-5
			c0.767-0.467,2.3-0.917,4.6-1.351c1.967-0.366,3.434-1.033,4.4-2c-2.8,0.7-4.417-0.533-4.85-3.7
			c-0.4-2.699-0.018-5.216,1.149-7.55l0.101,0.05c-0.268,2.733,0.033,5.85,0.899,9.35c0.667,0.133,1.55,0.066,2.65-0.2
			c0.366-0.1,1.383-0.417,3.05-0.95c1.066,1.334,1.934,2.101,2.6,2.3c0.667,0.233,2.367,0.267,5.101,0.101
			C166.5,58.533,168.9,58.6,170.9,58.9z"/>
		<path style="fill-rule:evenodd;clip-rule:evenodd;fill:#402C08;" d="M131.15,92.05c2.433,0.967,3.883,1.517,4.35,1.65
			c1.434,0.467,3.066,0.75,4.9,0.85c3.333,0.167,7.633,0.233,12.899,0.2c7.167-0.033,11.467-0.05,12.9-0.05
			c-0.534-0.2-0.867-0.384-1-0.55c2.6-0.267,6.1-0.367,10.5-0.301l4.55,0.851c3.6,0.934,6.566,1.566,8.9,1.899
			c3.899,0.801,7.35,1.267,10.35,1.4c0.633,0.033,2.434,0.184,5.4,0.45c2.967,0.2,5.25,0.25,6.85,0.149c1.333,0.5,2.416,1,3.25,1.5
			l-0.6-0.05c-0.768-0.033-3.584-0.35-8.45-0.95c-3.367-0.399-6.25-0.5-8.65-0.3c-0.267,0.566-0.517,1-0.75,1.3
			c-1.5-0.666-3.866-1.149-7.1-1.449c-3.467-0.301-5.934-0.7-7.4-1.2c-2.634-1-4.634-1.684-6-2.05c-2.399-0.7-4.483-0.9-6.25-0.601
			c1.453,0.808,3.128,1.225,5.025,1.25c-10.48,0.066-18.322,0.05-23.525-0.05c-9.134-0.233-16.95-1.167-23.45-2.8
			c-8.899-2.3-16.699-5.334-23.399-9.101c-3.534-1.966-6-3.25-7.4-3.85c-3.1-1.3-5.866-1.85-8.3-1.65
			c2.233,0.9,3.467,2.217,3.7,3.95c-2.101,0.5-5.5-0.566-10.2-3.2c-5.934-3.333-9.434-5.166-10.5-5.5
			c-4.4-1.3-7.75-2.483-10.05-3.55c-3.467-1.6-6.317-3.583-8.55-5.95c-0.567-0.6-2.183-2.433-4.85-5.5
			c-1.967-2.267-3.667-4.05-5.1-5.35c0.066,0.2,0.116,0.583,0.15,1.15c0.033,0.6,0.1,1.033,0.2,1.3c-2.033-1-4.417-2.634-7.15-4.9
			c-4-3.333-6.25-5.183-6.75-5.55c-0.3-0.233-2.217-2.067-5.75-5.5c-2.267-2.167-4.45-3.434-6.55-3.8
			c0.767,1.333,2.05,2.816,3.85,4.45c2.066,1.833,3.4,3.167,4,4c-3.067-1-6.117-3.117-9.15-6.35c0.167,0.434,0.283,1.034,0.35,1.8
			c0.067,0.833,0.133,1.417,0.2,1.75c-3.934-3.167-6.867-6.05-8.8-8.65c-1.7-3.3-2.717-6.667-3.05-10.1
			c-0.333-3.833,0.267-7.1,1.8-9.8c0.5-0.9,1-1.7,1.5-2.4c-0.3,3.9,0.167,7.5,1.4,10.8c1.333,3.667,3.433,6.333,6.3,8
			c0.1-1.434-0.317-3.017-1.25-4.75c0.767,0.966,2.15,2.4,4.15,4.3c1.933,1.867,3.25,3.25,3.95,4.15c2.8,3.7,7.383,7.55,13.75,11.55
			c-1.2-3.733-2.117-6.517-2.75-8.35c1.033,2.033,2.667,4.117,4.9,6.25c0.867,0.833,2.9,2.583,6.1,5.25
			c1.433,1.167,2.9,2.767,4.4,4.8c1.933,2.566,3.267,4.25,4,5.05c3.6,3.866,8.583,7.733,14.95,11.6
			c6.3,3.834,11.783,6.367,16.45,7.601c-0.567-0.967-1.417-2.034-2.55-3.2c-1.3-1.3-2.25-2.267-2.85-2.9l1.15,0.15
			c3,1.366,8.967,3.166,17.9,5.399c7.634,1.9,13.333,4.084,17.101,6.551c-0.734,0.733-1.234,1.216-1.5,1.449
			c1.6,1.467,4.366,2.9,8.3,4.301C124.117,89.667,127.184,90.717,131.15,92.05z"/>
		<polygon style="fill-rule:evenodd;clip-rule:evenodd;fill:#402C08;" points="78.3,70.3 79.7,71 78.7,70.75 		"/>
		<path style="fill-rule:evenodd;clip-rule:evenodd;fill:#402C08;" d="M14.5,24.95c-1-1.267-1.633-2.434-1.9-3.5L14.5,24.95z"/>
		<path style="fill-rule:evenodd;clip-rule:evenodd;fill:#34240C;" d="M138.1,72.65c0.134-0.067,0.884-0.65,2.25-1.75l-1.899,1.8
			L138.1,72.65z"/>
		<path style="fill-rule:evenodd;clip-rule:evenodd;fill:#34240C;" d="M196.55,100.1c0.233-0.3,0.483-0.733,0.75-1.3
			c2.4-0.2,5.283-0.1,8.65,0.3c4.866,0.601,7.683,0.917,8.45,0.95l0.6,0.05c0.767,0.367,1.533,0.867,2.3,1.5
			c-2.167,0.301-5,0.334-8.5,0.101c-3.933-0.367-6.8-0.601-8.6-0.7c-16.067-0.967-34.967-1.4-56.7-1.3
			c-5.2,0-11.017-1.15-17.45-3.45c-4.033-1.434-9.566-3.85-16.6-7.25c-4.134-2-9.784-3.533-16.95-4.6
			c-8.3-1.233-13.95-2.351-16.95-3.351C70.183,79.217,64.033,75.866,57.1,71c-2.967-2.066-8.45-6.267-16.45-12.6
			c-2.133-1.7-7.167-4.867-15.1-9.5c-6.566-3.833-11.3-7.35-14.2-10.55c-1.333-1.434-2.517-3.15-3.55-5.15
			c1.934,2.6,4.867,5.483,8.8,8.65c-0.067-0.333-0.133-0.917-0.2-1.75c-0.067-0.767-0.183-1.367-0.35-1.8
			c3.033,3.233,6.083,5.35,9.15,6.35c-0.6-0.833-1.934-2.167-4-4c-1.8-1.633-3.083-3.117-3.85-4.45c2.1,0.366,4.283,1.633,6.55,3.8
			c3.533,3.433,5.45,5.267,5.75,5.5c0.5,0.367,2.75,2.217,6.75,5.55c2.733,2.267,5.117,3.9,7.15,4.9c-0.1-0.267-0.167-0.7-0.2-1.3
			c-0.034-0.567-0.083-0.95-0.15-1.15c1.433,1.3,3.133,3.083,5.1,5.35c2.667,3.067,4.283,4.9,4.85,5.5
			c2.233,2.367,5.083,4.351,8.55,5.95c2.3,1.066,5.65,2.25,10.05,3.55c1.066,0.334,4.566,2.167,10.5,5.5c4.7,2.634,8.1,3.7,10.2,3.2
			c-0.233-1.733-1.467-3.05-3.7-3.95c2.434-0.199,5.2,0.351,8.3,1.65c1.4,0.6,3.867,1.884,7.4,3.85
			c6.7,3.767,14.5,6.801,23.399,9.101c6.5,1.633,14.316,2.566,23.45,2.8c5.203,0.1,13.045,0.116,23.525,0.05
			c-1.897-0.025-3.572-0.442-5.025-1.25c1.767-0.3,3.851-0.1,6.25,0.601c1.366,0.366,3.366,1.05,6,2.05
			c1.467,0.5,3.934,0.899,7.4,1.2C192.684,98.95,195.05,99.434,196.55,100.1z"/>
		<path style="fill-rule:evenodd;clip-rule:evenodd;fill:#34240C;" d="M134.45,80.95c-1.434,0.166-2.667,0.383-3.7,0.649
			c2.3-0.899,4.55-1.949,6.75-3.149C136.666,79.217,135.65,80.05,134.45,80.95z"/>
		<path style="fill-rule:evenodd;clip-rule:evenodd;fill:#34240C;" d="M173.05,60.65c2.767,0.066,5.167,0.416,7.2,1.05
			c-11-1.7-19.917-0.767-26.75,2.8c-2.566,1.3-5.6,3.667-9.1,7.1c0.199-0.666,0.217-1.366,0.05-2.1c-1.634,2.267-3.634,3.333-6,3.2
			l1.899-1.8c-1.366,1.1-2.116,1.683-2.25,1.75h-0.25c0.667-0.634,2.217-2.367,4.65-5.2c1.967-2.267,3.566-3.851,4.8-4.75
			c1.533-1.134,4.351-1.8,8.45-2c0.367-0.033,3.5-0.05,9.4-0.05C167.05,60.65,169.684,60.65,173.05,60.65z"/>
		<path style="fill-rule:evenodd;clip-rule:evenodd;fill:#5C3F1A;" d="M67.85,66.7c5.066,2.166,8.683,3.517,10.85,4.05l0.3,0.3
			c-2.033-0.267-3.9-0.733-5.6-1.399C71.733,68.983,69.883,68,67.85,66.7z"/>
		<path style="fill-rule:evenodd;clip-rule:evenodd;fill:#5C3F1A;" d="M109.75,77.2c-2.3,0.467-5.033,0.083-8.2-1.15
			c-3.6-1.7-6.3-2.899-8.1-3.6c1.7,0.566,4.633,1.383,8.8,2.45C105.816,75.833,108.316,76.6,109.75,77.2z"/>
		<path style="fill-rule:evenodd;clip-rule:evenodd;fill:#5C3F1A;" d="M24.45,13.25c-0.9-0.667-1.567-1.167-2-1.5
			c-0.8-0.6-1.4-1.217-1.8-1.85l1.1,0.55C22.816,11.483,23.717,12.417,24.45,13.25z"/>
		<path style="fill-rule:evenodd;clip-rule:evenodd;fill:#5C3F1A;" d="M27.1,16.35L27,16.2c0.8,0.933,1.917,2.25,3.35,3.95
			c1.133,1.3,3.4,4.15,6.8,8.55c2.8,3.7,5.15,6.483,7.05,8.35c1.933,1.9,4.9,4.65,8.9,8.25c4.1,3.667,7.133,6.467,9.1,8.4
			c2.233,2.2,4.866,4.033,7.9,5.5c0.367,0.2,3.333,1.467,8.9,3.8l3.8,1.55c0.067,0.834,0.217,1.417,0.45,1.75
			c1.3,2.066,4.117,3.917,8.45,5.55c-1.2-0.333-2.083-0.533-2.65-0.6c-0.733-0.1-2.383-0.066-4.95,0.1l0.851-0.1
			c-2.434-0.667-5.117-2.066-8.05-4.2c-1.633-1.2-4-3.166-7.1-5.899c-2.3-2.034-4.983-4.101-8.05-6.2
			c-1.4-0.934-4.267-2.767-8.6-5.5c-4.267-2.7-6.467-4.1-6.6-4.2c-2-1.533-3.8-3.567-5.4-6.1c-2.233-3.967-4.05-6.917-5.45-8.85
			c-2.434-3.433-5.05-5.633-7.85-6.6c0.566,0.966,1.683,2.483,3.35,4.55c1.533,1.9,2.6,3.467,3.2,4.7
			c-2.167-1.134-5.717-4.517-10.65-10.15c-5.1-5.833-7.367-9.383-6.8-10.65c1.066,0.367,2.767,1.083,5.1,2.15
			C24.183,15.3,25.867,15.983,27.1,16.35z"/>
		<polygon style="fill-rule:evenodd;clip-rule:evenodd;fill:#5C3F1A;" points="79.7,71 80.15,71.2 79,71.05 78.7,70.75 		"/>
		<path style="fill-rule:evenodd;clip-rule:evenodd;fill:#5C3F1A;" d="M146,50c0,3.9-0.316,6.8-0.95,8.7
			c-0.366,1.066-0.917,2.017-1.649,2.85C143.566,57.217,144.434,53.366,146,50z"/>
		<path style="fill-rule:evenodd;clip-rule:evenodd;fill:#5C3F1A;" d="M132.4,69c4.866-4.2,8.516-6.684,10.949-7.45
			c-0.699,0.8-1.75,1.7-3.149,2.7c-1.867,1.333-3.05,2.2-3.55,2.6c-3.5,3.634-6.2,6.301-8.101,8c-3.333,3-6.616,4.5-9.85,4.5
			c0.933-0.433,1.733-1.066,2.399-1.899C123.367,76.384,127.133,73.566,132.4,69z"/>
		<path style="fill-rule:evenodd;clip-rule:evenodd;fill:#5C3F1A;" d="M176.15,59.2L174.5,59c-2.934-0.2-5.184-0.4-6.75-0.6
			c-2.834-0.334-4.934-0.934-6.3-1.801c0.233-0.333,0.55-0.666,0.95-1c1.8,0.034,3.717,0.284,5.75,0.75
			C170.283,56.783,172.95,57.733,176.15,59.2z"/>
		<path style="fill-rule:evenodd;clip-rule:evenodd;fill:#5C3F1A;" d="M128.25,85.2c2.033,2.033,4.633,3.583,7.8,4.649
			c2.634,0.9,5.851,1.517,9.65,1.851c-3.8,0.2-6.784,0.083-8.95-0.351c-1.7-0.333-3.834-1.199-6.4-2.6
			c-3.566-1.967-5.783-3.134-6.649-3.5C124.633,85.083,126.15,85.066,128.25,85.2z"/>
		<path style="fill-rule:evenodd;clip-rule:evenodd;fill:#5C3F1A;" d="M169.5,92.45c2.367,0.333,4.85,0.816,7.45,1.45l-1.25-0.051
			c-1.2-0.199-2.434-0.35-3.7-0.449c-4.467-0.467-10.7-0.7-18.7-0.7c0.967-0.134,1.684-0.351,2.15-0.65
			C162.617,92.05,167.3,92.184,169.5,92.45z"/>
		<path style="fill-rule:evenodd;clip-rule:evenodd;fill:#5C3F1A;" d="M204.9,98.45c-2.967-0.267-4.768-0.417-5.4-0.45
			c-3-0.134-6.45-0.6-10.35-1.4c1.333,0.233,2.566,0.367,3.699,0.4c2.167,0.134,5.384,0.2,9.65,0.2
			c3.733,0.133,6.816,0.6,9.25,1.399C210.15,98.7,207.867,98.65,204.9,98.45z"/>
	</g>
	<path style="fill-rule:evenodd;clip-rule:evenodd;fill:#34240C;" d="M3.1,18c1.333-1.867,2.033-3.417,2.1-4.65L6.5,14
		c0.1,0.1,0.167,0.417,0.2,0.95c0.033,0.366,0.383,0.533,1.05,0.5c0.066,1.7-0.5,3.366-1.7,5c-1.342,1.833-2.109,3.225-2.3,4.175
		c0.122-0.527,0.556,0.148,1.3,2.025c0.656,1.765,0.99,2.724,1,2.875c0.22,0.32,0.587,0.795,1.1,1.425
		c0.733,0.866,1.15,1.433,1.25,1.7c0.167,0.5,0.283,1.4,0.35,2.7c0,1.1,0.2,1.983,0.6,2.65c0.7,1.267,1.55,2.1,2.55,2.5
		c1.667,0.667,2.717,1.167,3.15,1.5c0.267,0.2,1.617,1.533,4.05,4c1.667,1.667,3.216,2.583,4.65,2.75c0.267,1.2,0.117,2.5-0.45,3.9
		c-0.5,1.199-1.217,2.3-2.15,3.3c-0.267,0.267-0.383,0.85-0.35,1.75c0.033,0.533-0.5,0.833-1.6,0.899
		c-0.534,0.034-1.417-0.55-2.65-1.75c-1.367-1.333-2.25-2.066-2.65-2.199c0,1.833-0.05,3.6-0.15,5.3
		c-2.333-0.9-4.434-3.783-6.3-8.65c-2.6-6.633-4.017-10.133-4.25-10.5c-0.167,0.133-0.817,0.534-1.95,1.2
		c0-0.833-0.317-4.067-0.95-9.7c-0.467-4.066-0.4-7.3,0.2-9.7C0.767,21.533,1.633,20,3.1,18z"/>
	<path style="fill-rule:evenodd;clip-rule:evenodd;fill:#5C3F1A;" d="M5.8,3.35c1.263-1.61,1.73-2.311,1.4-2.1
		c1.356-0.964,2.789-1.364,4.3-1.2c1.566,0.2,1.5,1.133-0.2,2.8C10.233,4.717,9.267,6.3,8.4,7.6c-1.633,2.466-3.117,3.45-4.45,2.95
		c-0.167-0.8-0.267-1.683-0.3-2.65c0-1.051,0.092-1.892,0.275-2.525C3.911,5.56,4.536,4.885,5.8,3.35z"/>
</g>
</svg>
