<?xml version="1.0" encoding="iso-8859-1"?>
<!-- Generator: Adobe Illustrator 15.1.0, SVG Export Plug-In . SVG Version: 6.00 Build 0)  -->
<!DOCTYPE svg PUBLIC "-//W3C//DTD SVG 1.1//EN" "http://www.w3.org/Graphics/SVG/1.1/DTD/svg11.dtd">
<svg version="1.1" id="FlashAICB" xmlns="http://www.w3.org/2000/svg" xmlns:xlink="http://www.w3.org/1999/xlink" x="0px" y="0px"
	 width="98.15px" height="114.8px" viewBox="0 0 98.15 114.8" style="enable-background:new 0 0 98.15 114.8;" xml:space="preserve"
	>
<g>
	<path style="fill-rule:evenodd;clip-rule:evenodd;fill:#94866B;" d="M95.2,3.1c0.033-0.133,0.066-0.25,0.1-0.35V2.7
		c0-0.133,0.017-0.25,0.05-0.35c0.233-1.1,0.467-1.733,0.7-1.9L96.95,0c0.434-0.067,0.75,0.2,0.95,0.8
		c0.133,0.5,0.183,1.45,0.149,2.85L95.2,3.1z M94.35,8.9l3.801,0.05v0.3c-0.034,0.833-0.067,1.55-0.101,2.15L98,11.6l-3.85-0.4
		l0.05-0.6L94.35,8.9z M94.9,26.3c-0.733-0.167-1.5-0.167-2.301,0l-5.35,0.1l0.4-0.25L88.6,25.3c0.967-1.033,1.834-2.45,2.601-4.25
		c0.166-0.433,0.366-0.983,0.6-1.65l4.45-0.35c-0.033,0.1-0.05,0.2-0.05,0.3c-0.134,0.467-0.267,1.066-0.4,1.8
		c-0.566,0.233-0.95,0.5-1.149,0.8c0.267,0.2,0.566,0.35,0.899,0.45c-0.1,0.633-0.184,1.184-0.25,1.65l-0.2,1.2
		C95,25.783,94.934,26.133,94.9,26.3z M78.55,35.8c1.5,0.8,2.867,1.3,4.101,1.5l-2.25,1.25c0.066,0.167,0.166,0.317,0.3,0.45
		c0.033,0.033,0.066,0.083,0.1,0.15l0.15,0.15l1,0.65c0.133,0.033,0.283,0.083,0.45,0.15L81.6,40.7
		c-1.366,0.233-2.666,0.233-3.899,0c-1.767-0.333-3.017-1.284-3.75-2.85c0.034-0.015,0.067-0.031,0.1-0.05
		c0.101-0.1,0.217-0.183,0.351-0.25c0.066-0.033,0.133-0.083,0.199-0.15l0.65-0.5c0.4-0.333,0.767-0.65,1.1-0.95
		c0.2-0.267,0.4-0.5,0.601-0.7l0.25-0.35C77.533,35.233,77.983,35.533,78.55,35.8c-0.767-0.466-1.217-0.783-1.35-0.95l1.3-3.25
		c0.033-0.1,0.05-0.2,0.05-0.3l0.101-1.85c-0.034-0.567-0.084-1.184-0.15-1.85c1.167,0.267,2.517,0.45,4.05,0.55
		c0.733,0.033,2.117,0.05,4.15,0.05l5.45-0.05c1,0.1,1.683,0.133,2.05,0.1c-0.334,0.733-0.8,1.517-1.4,2.35L92.4,31.1
		c-0.233,0.233-0.483,0.483-0.75,0.75c-0.334,0.367-0.784,0.833-1.351,1.4l-2.7,2.4h-0.05l-0.3,0.3l-0.85,0.2
		C82.667,36.55,80.05,36.433,78.55,35.8z M82,26.3l-0.1-0.05c-1.167-0.067-1.851-0.133-2.051-0.2c-0.433-0.2-0.683-0.716-0.75-1.55
		l1.051-0.4l1-0.05l0.399,1.3C81.684,25.717,81.833,26.033,82,26.3z M68.9,51.85H68.85l0.101-0.1
		C68.917,51.786,68.9,51.819,68.9,51.85z M66.3,56.9l-1.85-0.25c-0.533-0.1-1.017-0.316-1.45-0.65c-0.5-0.467-0.517-0.9-0.05-1.3
		c1.1,0.167,1.684,0.25,1.75,0.25c1.166-0.133,2.05-0.217,2.649-0.25L66.3,56.9z M60.8,71.55V71.5l-0.149-0.2
		c-1.2,0.5-2.483,0.7-3.851,0.601c-1.333-0.067-2.6-0.417-3.8-1.051l0.6-0.1c0.5-0.1,1.2-0.134,2.101-0.1
		c1,0.1,1.684,0.149,2.05,0.149c1.267,0.066,2.35,0.033,3.25-0.1l0.25-0.101l-0.2,0.4L60.8,71.55z M41.4,91.7l0.25,0.05L39.35,93
		l0.05-1.05l0.15-0.851L41.4,91.7z M64.8,49.5c-0.166-0.333-0.3-0.683-0.399-1.05c0.267,0.3,0.783,0.7,1.55,1.2
		c0.033,0.033,0.083,0.067,0.149,0.1c-0.399,0.1-0.733,0.183-1,0.25C65,49.833,64.9,49.667,64.8,49.5z M46.55,82.25
		c-2.066-0.333-3.55-0.667-4.45-1c-1.4-0.5-1.983-1.1-1.75-1.8c1.267,0.899,3.066,1.25,5.4,1.05l1.35,0.35
		c2,0.5,3.8,0.784,5.4,0.851l-0.4,0.45l-1.25,1.25c-2.7,2.8-4.35,4.466-4.95,5c-0.667,0.633-1.15,1.083-1.45,1.35
		c-0.3,0.1-0.617,0.167-0.95,0.2L40.65,89.6c-0.033-0.033-0.066-0.05-0.1-0.05c-0.333-0.1-0.7-0.25-1.1-0.45
		c-0.567-0.267-1.217-0.699-1.95-1.3c0.667,0.434,1.4,0.783,2.2,1.05c0.767,0.233,1.4,0.351,1.9,0.351
		c0.433,0,0.667-0.033,0.7-0.101c0.167-0.199,0.317-0.333,0.45-0.399c1.8-0.934,2.85-1.75,3.15-2.45c0.3-0.833,0.5-1.366,0.6-1.6
		c0.167-0.334,0.7-0.634,1.6-0.9c0.966-0.267,1.567-0.55,1.8-0.85C49.7,82.8,48.583,82.583,46.55,82.25z M48.35,79.95
		c0.267-0.134,0.517-0.233,0.75-0.3c1.667,0.066,2.684-0.267,3.051-1c0.033-0.034,0.066-0.051,0.1-0.051
		c0.6-0.166,0.967-0.399,1.1-0.699c-0.566-0.634-0.616-1.117-0.149-1.45c0.666-0.467,1-0.851,1-1.15c0-0.233-0.084-0.399-0.25-0.5
		c-0.167-0.133-0.267-0.25-0.3-0.35l-0.5-1.351c1.366,0.567,3.366,0.851,6,0.851L58.9,74.3c-0.034,0.033-0.067,0.084-0.101,0.15
		l-2.899,3.7c-0.534,0.6-1.067,1.183-1.601,1.75c-0.1,0.066-0.2,0.133-0.3,0.199h-1.7C51,80.1,49.684,80.05,48.35,79.95z
		 M30.05,94.8C30.017,94.833,30,94.884,30,94.95c-0.333-0.3-0.683-0.783-1.05-1.45c-0.067-0.5-0.133-1-0.2-1.5
		C28.95,92.967,29.383,93.9,30.05,94.8z M35.95,92.7v-0.3c0.333,0.199,0.85,0.366,1.55,0.5c0.067,0,0.133,0.017,0.2,0.05l0.95,0.149
		c0.167,0.034,0.283,0.067,0.35,0.101l-2.4,1.5l-0.35-0.65C36.083,93.583,35.983,93.134,35.95,92.7z M25.2,100.5l0.5-0.3h0.05
		L25.2,100.5z M8.55,96.7c0.1-0.4,0.3-0.717,0.6-0.95c0.133,2.366,0.6,4.3,1.4,5.8c1.133,2.066,2.75,2.816,4.85,2.25
		c-0.767-0.666-1.183-1.083-1.25-1.25c0.2,0.033,0.633,0.184,1.3,0.45c0.5,0.2,0.933,0.283,1.3,0.25c0.033-0.2,0-0.35-0.1-0.45
		c-0.066-0.066-0.233-0.184-0.5-0.35c-0.233-0.334-0.883-0.884-1.95-1.65c-0.833-0.633-1.383-1.283-1.65-1.95
		c-0.333-0.833-0.5-1.949-0.5-3.35c0.125-1.563,0.208-2.771,0.25-3.625c-0.051,1.815,0.183,3.258,0.7,4.325
		c0.333,0.8,0.8,1.533,1.4,2.2c0.733,1,1.283,1.699,1.65,2.1c0.667,0.733,1.4,1.134,2.2,1.2c0.033-0.3-0.083-0.601-0.35-0.9
		c-0.4-0.399-0.633-0.666-0.7-0.8l0.7,0.3c0.4,0.334,0.767,0.566,1.1,0.7l1,0.7l0.1-0.25c0.533,0.133,1.167,0.217,1.9,0.25l0.9,1
		l-0.85,1.2l-1.55,1.75l0.05,0.05h0.05c-0.067,0.066-0.25,0.283-0.55,0.649l-0.1-0.05l-0.05-0.1c-1,1.1-2.233,2.133-3.7,3.1
		c-1-0.467-1.817-0.95-2.45-1.45c-1.667-1.333-2.833-2.5-3.5-3.5c-0.433-0.633-0.817-1.366-1.15-2.199l-0.05-0.2
		C8.417,99.483,8.25,97.733,8.55,96.7z M77.8,21.25c0-0.033-0.05-1.083-0.149-3.15l2.949,0.5c0,1.967,0.15,3.667,0.45,5.1
		l-0.899,0.4l-2.2-0.2c-0.033-0.2-0.05-0.383-0.05-0.55v-0.2C77.833,22.45,77.8,21.817,77.8,21.25z M77.65,15.7l3.05-0.15v0.3
		C79.667,15.95,78.634,16,77.6,16L77.65,15.7z M6.9,88.25l0.95-0.6c-0.233,0.333-0.633,0.767-1.2,1.3L6.9,88.25z M6.1,110.5
		c0.333,0.2,0.583,0.316,0.75,0.35c1.167,0.267,1.767-0.066,1.8-1c-0.2-1.233-0.3-2.149-0.3-2.75c0.2,1,0.917,1.7,2.15,2.101
		c0.1-0.066,0.183-0.2,0.25-0.4c0.467,0.566,1.2,1.351,2.2,2.351c-1.167,0.6-2.417,1.116-3.75,1.55
		c-1.4-0.434-2.383-1.05-2.95-1.851L6.1,110.5z M6,110.45l0.25,0.399l0.3,1.4c-1.033-0.1-2.233-1.167-3.6-3.2l-0.2-0.55
		c0.1,0.167,0.317,0.417,0.65,0.75c0.133-0.6,0.167-1.384,0.1-2.35c0.1,0.466,0.317,0.983,0.65,1.55
		C4.683,109.283,5.3,109.95,6,110.45z M17.65,94.25c0.3,0.6,0.617,1.167,0.95,1.7c0.033,0.1,0.066,0.217,0.1,0.35
		c0.167,0.434,0.35,0.9,0.55,1.4c-0.367-0.267-0.733-0.55-1.1-0.851l-0.6-0.5c-0.1-0.233-0.183-0.6-0.25-1.1
		c-0.1-0.5-0.117-1.033-0.05-1.6L17.65,94.25z M18.5,86.35c0.8-0.233,1.5-0.517,2.1-0.85v0.15c-0.067,0.966-0.067,2.416,0,4.35
		c-0.3-0.366-0.717-0.95-1.25-1.75C18.883,87.55,18.6,86.917,18.5,86.35z M28.65,90.85L28.5,88.95l0.1-0.05
		C28.7,89.267,28.717,89.917,28.65,90.85z M31.5,96.25l0.55,1.2H32l-0.25-0.5L31.5,96.25z M60.95,57.3
		c-1.2-0.466-2.134-0.966-2.8-1.5c-0.733-0.566-0.983-1.017-0.75-1.35c1.8,1.367,3.083,2.25,3.85,2.65c1.5,0.8,2.934,1.2,4.3,1.2
		C64.15,58.333,62.616,58,60.95,57.3z M59.5,61.4c1.167-0.167,1.983-0.334,2.45-0.5L64,59.6L63.3,61.2l-0.85,0.2H59.5z M62.3,63.05
		c-0.7,1.167-1.399,1.834-2.1,2c-0.9,0.267-2.066,0.283-3.5,0.05c-1.566-0.233-2.767-0.583-3.601-1.05
		c-0.366-0.166-0.716-0.467-1.05-0.899c-0.434-0.467-0.717-0.934-0.85-1.4c0.533,0.233,1.083,0.35,1.649,0.35
		c0.534,0.034,1.034-0.116,1.5-0.449h0.5c0.567,0.466,1.284,0.833,2.15,1.1C58.8,63.417,60.566,63.517,62.3,63.05z M24.4,100.6
		c-0.1-0.166-0.233-0.333-0.4-0.5c0.2,0,0.383,0.017,0.55,0.051c0.034,0.133,0.067,0.3,0.1,0.5
		C24.55,100.616,24.467,100.6,24.4,100.6z"/>
	<path style="fill-rule:evenodd;clip-rule:evenodd;fill:#655C49;" d="M98.15,8.95L94.35,8.9L94.4,8.2c0-1.4,0.183-2.7,0.55-3.9
		c0.1-0.4,0.184-0.8,0.25-1.2l2.85,0.55L98.15,7.8c0,0.233,0,0.45,0,0.65V8.95z M93.75,13.05c0.167-0.667,0.3-1.283,0.4-1.85
		L98,11.6c-0.033,0.367-0.083,0.767-0.15,1.2c-0.267,1.467-0.767,3.383-1.5,5.75l-0.1,0.5L91.8,19.4
		c0.066-0.233,0.15-0.467,0.25-0.7l1.55-5L93.75,13.05z M95.55,22.4c-0.333-0.1-0.633-0.25-0.899-0.45
		c0.199-0.3,0.583-0.567,1.149-0.8l-0.1,0.65L95.55,22.4z M82,26.3c0.5,0.7,1.217,1.067,2.15,1.1c0.066,0,0.149,0,0.25,0l1.449-0.25
		c0.434-0.167,0.9-0.417,1.4-0.75l5.35-0.1c0.801-0.167,1.567-0.167,2.301,0c-0.134,0.5-0.267,0.967-0.4,1.4l-0.25,0.45
		c0,0.033-0.017,0.067-0.05,0.1c-0.367,0.033-1.05,0-2.05-0.1L86.7,28.2c-2.033,0-3.417-0.017-4.15-0.05
		c-1.533-0.1-2.883-0.283-4.05-0.55l-0.55-3.7l2.2,0.2l0.899-0.4l0.101,0.35l-1,0.05L79.1,24.5c0.067,0.833,0.317,1.35,0.75,1.55
		c0.2,0.067,0.884,0.133,2.051,0.2L82,26.3z M78.55,35.8c1.5,0.633,4.117,0.75,7.851,0.35l0.85-0.2L82.4,40.1
		c-0.167-0.067-0.317-0.117-0.45-0.15l-1-0.65l-0.15-0.15c-0.033-0.066-0.066-0.117-0.1-0.15c-0.134-0.133-0.233-0.283-0.3-0.45
		l2.25-1.25C81.417,37.1,80.05,36.6,78.55,35.8z M63.35,62.5l-0.199,0.3L62.3,63.05c-1.733,0.467-3.5,0.367-5.3-0.3
		c-0.866-0.267-1.583-0.634-2.15-1.1l-0.3-0.25l0.2-0.45l0.475,0.1h0.025l0.5,0.101c0.434,0.1,1.1,0.183,2,0.25h1.75h2.95l0.85-0.2
		l0.65-0.25l-0.05,0.125v0.075L63.85,61.2C63.65,61.6,63.483,62.033,63.35,62.5z M59.15,73.95c-2.634,0-4.634-0.283-6-0.851
		c-0.767-0.3-1.417-0.699-1.95-1.199c0.1-0.034,0.217-0.067,0.35-0.101c0.834-0.267,1.117-0.684,0.851-1.25
		c0.166,0.101,0.366,0.2,0.6,0.3c1.2,0.634,2.467,0.983,3.8,1.051C58.167,72,59.45,71.8,60.65,71.3l0.149,0.2v0.05L59.15,73.95z
		 M37.5,87.8c0.733,0.601,1.383,1.033,1.95,1.3c0.4,0.2,0.767,0.351,1.1,0.45c0.034,0,0.067,0.017,0.1,0.05l2.85,0.351
		c0.333-0.033,0.65-0.101,0.95-0.2c-0.867,0.733-1.8,1.4-2.8,2L41.4,91.7l-3.25-1.2l-0.65-0.35c-0.8-0.4-1.433-0.817-1.9-1.25
		c-0.667-0.534-1.233-1.233-1.7-2.101c-0.533-1.1-0.55-1.967-0.05-2.6c0.333,0.267,1.066,1,2.2,2.2L36.4,86.8L37.5,87.8z
		 M24.7,100.75c-0.035,0.001-0.068,0.018-0.1,0.05c-0.033,0-0.05,0.017-0.05,0.05c-0.066-0.1-0.117-0.183-0.15-0.25
		c0.067,0,0.15,0.017,0.25,0.051c0,0.033,0,0.066,0,0.1H24.7z M24.15,101.2l0.15-0.2l0.2-0.1C24.367,101,24.25,101.1,24.15,101.2z
		 M9.2,112.7l-2.65,0.95c-0.333,0.1-0.95,0.366-1.85,0.8c-0.833,0.333-1.483,0.434-1.95,0.3c-0.567-0.167-1.1-0.816-1.6-1.95
		c-0.433-0.866-0.733-1.733-0.9-2.6c-0.233-1.367-0.3-3.184-0.2-5.45c0.167-3.566,0.25-5.4,0.25-5.5l1.55-0.55v-0.05
		c0-0.067,0-0.117,0-0.15l0.2-2.7C2.217,94.9,2.533,93.967,3,93c0.233-0.467,0.5-0.95,0.8-1.45c0.534-0.8,1.083-1.5,1.65-2.1
		c0.466-0.434,0.95-0.834,1.45-1.2l-0.25,0.7l-2.2,3.95c-1.367,2.233-2.1,4.149-2.2,5.75c-0.067,0.5-0.033,1.216,0.1,2.149
		c0.1,0.934,0.133,1.65,0.1,2.15c-0.167,1.6-0.25,2.55-0.25,2.85c0,1.033,0.183,1.934,0.55,2.7l0.2,0.55
		c1.367,2.033,2.566,3.101,3.6,3.2l-0.3-1.4C6.817,111.65,7.8,112.267,9.2,112.7z M77.65,15.7c0.133-1.733,0.783-2.95,1.949-3.65
		l1.301-0.5l-0.15,3l-0.05,1L77.65,15.7z M77.6,16c1.034,0,2.067-0.05,3.101-0.15c-0.066,1.533-0.101,2.433-0.101,2.7v0.05
		l-2.949-0.5L77.6,16z M8.3,101.5c0.034-1.033,0.067-1.866,0.1-2.5c0.067,0.967,0.267,1.934,0.6,2.9l0.1,0.25
		c0.333,0.833,0.717,1.566,1.15,2.199c0.667,1,1.833,2.167,3.5,3.5c0.633,0.5,1.45,0.983,2.45,1.45
		c-1.034,0.7-2.117,1.316-3.25,1.851c-1-1-1.733-1.784-2.2-2.351c-0.733-0.866-1.167-1.416-1.3-1.649
		C8.617,105.95,8.233,104.066,8.3,101.5z M22,101.7c-0.733-0.033-1.367-0.117-1.9-0.25c-0.467-0.134-0.833-0.283-1.1-0.45
		c-0.333-0.134-0.7-0.366-1.1-0.7c-0.467-0.399-0.85-0.916-1.15-1.55c-0.433-0.9-0.733-1.884-0.9-2.95c-0.133-1-0.2-2.533-0.2-4.6
		c0.067,2.133,0.483,3.649,1.25,4.55l0.65,0.6l0.6,0.5c0.367,0.301,0.733,0.584,1.1,0.851c0.433,1,1.083,2.05,1.95,3.149L22,101.7z
		 M28.65,90.85V90.9l0.1,1.1c0.067,0.5,0.133,1,0.2,1.5c-0.1-0.3-0.217-0.583-0.35-0.85c-0.467-1-0.717-1.7-0.75-2.101l0.05,3.9
		c-0.133,0-0.25,0-0.35,0c-0.066-0.233-0.117-0.467-0.15-0.7c-0.1-0.866-0.117-1.75-0.05-2.65c0.066-1.366,0.333-2.216,0.8-2.55
		l0.25-0.1l0.1,0.5L28.65,90.85z M32.05,97.45l0.1,0.25L32,97.45H32.05z M50.85,69.3c0.334,0.367,0.717,0.684,1.15,0.95
		c-0.5-0.134-0.884-0.3-1.15-0.5c-0.533-0.267-1.017-0.583-1.449-0.95c-0.034-0.366,0.05-0.717,0.25-1.05
		C49.917,68.283,50.316,68.8,50.85,69.3z M54,80.1L52.5,81.7c-1.6-0.066-3.4-0.351-5.4-0.851l-1.35-0.35
		c-1.933-0.5-3.233-1.2-3.9-2.1c0.4,0.166,0.8,0.316,1.2,0.449c0.1,0.101,0.2,0.184,0.3,0.25L43.4,79
		c1.567,0.467,3.217,0.783,4.95,0.95C49.684,80.05,51,80.1,52.3,80.1H54z"/>
	<path style="fill-rule:evenodd;clip-rule:evenodd;fill:#D9CBB0;" d="M98,11.6l0.05-0.2c-0.033,0.4-0.1,0.867-0.2,1.4
		C97.917,12.367,97.967,11.967,98,11.6z M94.15,11.2c-0.101,0.566-0.233,1.183-0.4,1.85c0.2-0.867,0.35-1.683,0.45-2.45L94.15,11.2z
		 M95.3,24.05c0.066-0.466,0.15-1.017,0.25-1.65l0.15-0.6c-0.101,0.5-0.2,1.05-0.3,1.65C95.366,23.65,95.333,23.85,95.3,24.05z
		 M90.3,33.25c0.566-0.567,1.017-1.033,1.351-1.4c0.267-0.267,0.517-0.517,0.75-0.75c-0.2,0.267-0.434,0.517-0.7,0.75
		C91.333,32.283,90.866,32.75,90.3,33.25z M68.7,52.15l0.149-0.3H68.9C68.833,51.95,68.767,52.05,68.7,52.15z M63.95,60.95l0.1-0.15
		c-0.063,0.098-0.112,0.188-0.149,0.275L63.95,60.95z M63.15,62.8l0.199-0.3c-0.166,0.3-0.283,0.616-0.35,0.95
		c-0.033,0.166-0.083,0.366-0.15,0.6C62.95,63.583,63.05,63.167,63.15,62.8z M61.25,70.6c0.035-0.035,0.068-0.077,0.1-0.125
		c-0.091,0.188-0.191,0.363-0.3,0.525L61.25,70.6z M52.1,82.15l0.4-0.45L54,80.1c0.1-0.066,0.2-0.133,0.3-0.199
		C53.7,80.5,52.967,81.25,52.1,82.15z M20.55,105.7l-0.05-0.05l1.55-1.75C21.55,104.5,21.05,105.1,20.55,105.7z M19.95,106.3
		c-1.467,1.467-3.1,2.733-4.9,3.8c-2.233,1.301-5.066,2.483-8.5,3.551l2.65-0.95c1.333-0.434,2.583-0.95,3.75-1.55
		c1.133-0.534,2.216-1.15,3.25-1.851c1.466-0.967,2.7-2,3.7-3.1L19.95,106.3z M8.55,96.7c-0.3,1.033-0.133,2.783,0.5,5.25l0.05,0.2
		L9,101.9c-0.333-0.967-0.533-1.934-0.6-2.9c-0.033,0.634-0.066,1.467-0.1,2.5c-1.167-0.866-1.9-2.083-2.2-3.65
		c0.033,0.601,0.1,1.467,0.2,2.601c0.067,1.033,0.067,1.883,0,2.55c-0.4-0.066-0.75,0-1.05,0.2c-0.133-0.267-0.233-0.867-0.3-1.8
		C4.883,100.6,4.767,100.1,4.6,99.9c-0.067,0.166-0.15,0.6-0.25,1.3c-0.1,0.5-0.2,0.916-0.3,1.25c-0.566-0.8-0.867-1.95-0.9-3.45
		c-0.033-1.167,0.1-2.366,0.4-3.6c0.2-0.867,0.5-1.7,0.9-2.5l2.2-3.95l-0.9,1.75L6.5,89.85c0.2-0.199,0.567-0.633,1.1-1.3
		c0.467-0.6,0.867-1.033,1.2-1.3c0.2-0.033,0.4-0.083,0.6-0.15c-0.2,1.367-0.3,2.351-0.3,2.95c-0.033,1.167,0.167,2,0.6,2.5
		c0.1-0.8,0.316-1.533,0.65-2.2c0.367-0.8,0.883-1.333,1.55-1.6c0.1,0.167,0.267,0.733,0.5,1.7c0.133,0.733,0.467,1.233,1,1.5
		c0.4-0.4,0.6-1.167,0.6-2.3c0-1.301,0.117-2.134,0.35-2.5c0.4,1.033,1.1,1.816,2.1,2.35c0.466,0.3,1.183,0.583,2.15,0.85
		c-0.033,0.267-0.067,0.551-0.1,0.851c-0.1,0.666-0.15,1.3-0.15,1.899c-0.2-0.3-0.383-0.616-0.55-0.949l-0.15,2.1l-0.4-0.6
		c-0.067,0.566-0.05,1.1,0.05,1.6c-0.1,0.233-0.233,0.4-0.4,0.5c-0.767-0.9-1.183-2.417-1.25-4.55c0,2.066,0.067,3.6,0.2,4.6
		c-0.5-0.267-0.9-1.083-1.2-2.45c-0.167-1.466-0.316-2.366-0.45-2.699c-0.267,0.699-0.517,1.616-0.75,2.75
		c-0.1,0.6-0.25,1.533-0.45,2.8c-0.518-1.067-0.751-2.51-0.7-4.325c-0.042,0.854-0.125,2.063-0.25,3.625
		c-0.566,0.967-0.716,2.25-0.45,3.85c-1.267-1.566-2.033-3.1-2.3-4.6c-0.033-0.1-0.05-0.65-0.05-1.65
		c-0.033-0.767-0.133-1.3-0.3-1.6C8.317,92.934,8.183,94.667,8.55,96.7z M7.85,87.65l-0.95,0.6c-0.5,0.366-0.983,0.767-1.45,1.2
		C6.217,88.684,7.017,88.083,7.85,87.65z M22.4,86.05c-0.033-0.666-0.033-1.333,0-2c0.033-0.033,0.067-0.066,0.1-0.1
		c0.367-0.334,0.683-0.617,0.95-0.851C22.95,84.033,22.6,85.017,22.4,86.05z M17.3,86.55c1.222-0.184,2.347-0.55,3.375-1.1
		c-0.027,0.018-0.052,0.034-0.075,0.05c-0.6,0.333-1.3,0.616-2.1,0.85L18.25,86.4c-0.067,0.466-0.083,0.8-0.05,1l0.05,0.55
		L17.3,86.55z M25.9,80.9c-0.3,0.233-0.633,0.517-1,0.85c0-0.033,0.017-0.066,0.05-0.1C25.283,81.35,25.6,81.1,25.9,80.9z
		 M22.4,87.25c0.633-0.866,1.367-1.684,2.2-2.45c1-0.899,1.85-1.416,2.55-1.55c0,2.167,0.333,3.717,1,4.65v0.649L28.2,87.9
		c0.466,0.666,1.05,1.017,1.75,1.05c0-0.867,0.15-1.851,0.45-2.95c0.4-1.4,0.85-2.083,1.35-2.05c0.067,0.899,0.267,1.684,0.6,2.35
		c0.233-1.434,0.316-3.95,0.25-7.55c0.233-0.066,0.467-0.116,0.7-0.15c0.034,0.567,0.317,1.417,0.85,2.551
		c-0.066-0.767-0.066-1.667,0-2.7c0.6-0.101,1.083-0.2,1.45-0.3c1.066,3.8,2.066,5.5,3,5.1c0.133-0.7,0.217-1.733,0.25-3.1
		c0.033-1.4,0.1-2.417,0.2-3.051l0.3-1.75c0.233-0.166,0.583-0.416,1.05-0.75c0.133,1.667,1.017,3.084,2.65,4.25
		c-0.4-0.133-0.8-0.283-1.2-0.449c0.667,0.899,1.967,1.6,3.9,2.1c-2.333,0.2-4.133-0.15-5.4-1.05c-0.233,0.7,0.35,1.3,1.75,1.8
		c0.9,0.333,2.383,0.667,4.45,1c0.6,0.467,1.2,0.634,1.8,0.5c-0.434,0.134-0.867,0.45-1.3,0.95c-0.5,0.6-0.933,0.967-1.3,1.1
		c-0.467,0.2-1.333,0.134-2.6-0.2c-1.167-0.3-1.983-0.3-2.45,0c0.033,0.367,0.2,0.851,0.5,1.45c0.3,0.667,0.466,1.15,0.5,1.45
		c-0.733,0.2-1.8-0.217-3.2-1.25c-1.2-0.9-1.867-1.684-2-2.35c0,0.699-0.033,1.666-0.1,2.899L36.05,86.4
		c-1.133-1.2-1.867-1.934-2.2-2.2c-0.5,0.633-0.483,1.5,0.05,2.6c0.467,0.867,1.033,1.566,1.7,2.101c0.467,0.433,1.1,0.85,1.9,1.25
		c0.533,0.699,1.167,1.3,1.9,1.8L39.35,93v-0.55c-1.367,0.066-2.7-0.2-4-0.8c0.1,0.199,0.3,0.55,0.6,1.05
		c0.033,0.434,0.133,0.883,0.3,1.35L35.7,94.2c-0.333,0.066-0.784,0-1.35-0.2c-0.567-0.267-0.983-0.4-1.25-0.4
		c0.1,0.7-0.067,1.134-0.5,1.301c-1.967-1.267-3.283-2.601-3.95-4V90.85c0.067-0.933,0.05-1.583-0.05-1.949l-0.1,0.05l-0.1-0.5
		l-0.25,0.1c-0.467,0.334-0.733,1.184-0.8,2.55c-0.067,0.9-0.05,1.784,0.05,2.65c0.033,0.233,0.083,0.467,0.15,0.7
		c-0.733-0.101-1.267-0.667-1.6-1.7c-0.267-0.833-0.4-1.8-0.4-2.9c-0.4,0.601-0.617,1.467-0.65,2.601c0,0.666,0.033,1.583,0.1,2.75
		c0.033,0.899,0.1,1.717,0.2,2.45c-0.467-0.167-0.967-0.317-1.5-0.45c-0.867-0.334-1.65-0.684-2.35-1.05
		c-0.333-0.834-0.6-2.101-0.8-3.801c-0.033-0.199-0.05-0.399-0.05-0.6c0.8,0.733,1.717,1.283,2.75,1.65
		c-0.533-1.4-0.817-2.684-0.85-3.851V87.25z M42.625,73.2c-0.452,0.305-0.944,0.621-1.475,0.95c0.2-0.134,0.434-0.301,0.7-0.5
		C42.122,73.504,42.38,73.354,42.625,73.2z M51.2,61.75c0.133,0.467,0.416,0.934,0.85,1.4c0.334,0.433,0.684,0.733,1.05,0.899
		c0.834,0.467,2.034,0.816,3.601,1.05c0.733,0.334,1.483,0.517,2.25,0.551L58.85,66.6c-0.066,0-0.75-0.033-2.05-0.1
		c-1.066-0.033-1.666,0.033-1.8,0.2l2.25,0.75c0.967,0.267,1.65,0.583,2.05,0.95c-0.233,1-1.399,1.5-3.5,1.5
		c-1.333,0-2.7-0.15-4.1-0.45c-0.267,0-0.55-0.05-0.851-0.15c-0.533-0.5-0.933-1.017-1.199-1.55c-0.2,0.333-0.284,0.684-0.25,1.05
		c-0.301-0.267-0.601-0.55-0.9-0.85c-0.067-0.134-0.117-0.267-0.15-0.4l0.05,0.3c-0.033,0-0.05-0.017-0.05-0.05l-0.25-0.3
		c-0.233-0.8-0.35-1.217-0.35-1.25L47.5,65.1c0.267-0.399,0.583-0.85,0.95-1.35c0.633-0.8,1.05-1.434,1.25-1.9
		c0.1-0.199,0.217-0.433,0.35-0.699C50.483,61.417,50.866,61.616,51.2,61.75z M51.55,76.65c0.066-0.434,0.066-0.884,0-1.351
		c0.533,0.367,1.15,0.617,1.851,0.75C52.866,76.45,52.25,76.65,51.55,76.65z M64.8,49.5l-0.35-0.1c-0.7-0.2-1.167-0.633-1.4-1.3
		c0.267,1.867,0.351,3.15,0.25,3.85c-0.133,0-0.25,0-0.35,0c-0.134-0.034-0.283-0.067-0.45-0.1c0,0.033,0,0.066,0,0.1
		c-0.066,0-0.134,0-0.2,0c-0.5-0.034-1.149-0.067-1.95-0.1c0.034,0.8,0.684,1.333,1.95,1.6c-0.066,0.267-0.133,0.583-0.2,0.95
		c-0.267,1.133-0.416,2-0.449,2.6l-0.4,0.1c-0.767-0.4-2.05-1.283-3.85-2.65c-0.233,0.333,0.017,0.783,0.75,1.35
		c0.666,0.534,1.6,1.034,2.8,1.5c-0.367,0.267-0.55,0.767-0.55,1.5c-0.034,0.834-0.2,1.434-0.5,1.8
		c-0.4,0.467-1.117,0.733-2.15,0.801c-0.9-0.067-1.566-0.15-2-0.25l-0.5-0.101h-0.025c-0.158-0.039-0.3-0.106-0.425-0.2
		C54.934,60.45,55,59.9,55,59.2c0-0.8,0-1.383,0-1.75c0.033-1.7,0.217-3.684,0.55-5.95c0.434-0.367,1.134-0.9,2.101-1.6
		c1.166-0.833,3.033-2.367,5.6-4.6c2.333-2.1,4.217-3.633,5.65-4.6c0.1-0.067,0.3-0.167,0.6-0.3l0.7,0.5
		c1.633,1.067,3.583,1.684,5.85,1.85c0.533-0.333,0.9-0.3,1.101,0.1c-0.101,0.066-0.184,0.133-0.25,0.2
		c-1.301,0.3-2.483,0.5-3.551,0.6l0.301-0.15c-0.467-0.133-0.784-0.067-0.95,0.2l-1.351,0.1c-0.399,0-0.916-0.05-1.55-0.15
		c-0.533,0.033-0.899,0.25-1.1,0.65c-0.101,0.2-0.101,0.7,0,1.5c-0.033,0.133-0.2,0.4-0.5,0.8c-0.066,0.167-0.117,0.483-0.15,0.95
		c-0.333-0.066-0.6-0.15-0.8-0.25c-0.566-0.3-0.866-0.867-0.9-1.7c0,0.767,0.233,1.533,0.7,2.3c0.134,0.167,0.3,0.283,0.5,0.35
		c0.101,0.033,0.134,0.2,0.101,0.5c0,0.1-0.034,0.217-0.101,0.35c-0.166,0.3-0.55,0.483-1.149,0.55h-0.025c-0.155,0-0.297,0-0.425,0
		c-0.767-0.5-1.283-0.9-1.55-1.2C64.5,48.817,64.634,49.167,64.8,49.5z M73.95,37.85c-0.8,0.5-1.934,1.133-3.4,1.9
		c0.566-0.333,1.3-0.733,2.2-1.2C73.18,38.305,73.579,38.071,73.95,37.85z M78.65,29.45c-0.034-0.2-0.051-0.367-0.051-0.5
		c-0.3-1.934-0.517-3.617-0.649-5.05l0.55,3.7C78.566,28.267,78.616,28.883,78.65,29.45z M77.2,34.85
		c0.133,0.167,0.583,0.483,1.35,0.95c-0.566-0.267-1.017-0.566-1.35-0.9l-0.25,0.35C77.017,35.117,77.1,34.983,77.2,34.85z
		 M79.6,12.05c-1.166,0.7-1.816,1.917-1.949,3.65L77.6,16l0.051,2.1c0.1,2.066,0.149,3.117,0.149,3.15
		c-0.233-2.267-0.3-4.017-0.2-5.25c0-0.233,0.017-0.45,0.051-0.65C77.816,13.783,78.467,12.683,79.6,12.05z M80.7,15.55l0.05-1
		c0,0.5-0.017,0.934-0.05,1.3V15.55z M6,110.45c-0.167-0.3-0.25-0.584-0.25-0.851l0.35,0.9l0.15,0.35L6,110.45z M48.35,79.95
		c-1.733-0.167-3.383-0.483-4.95-0.95l0.1-0.6c1.2,0.566,2.75,0.949,4.65,1.149c0.333,0.033,0.65,0.066,0.95,0.101
		C48.867,79.717,48.617,79.816,48.35,79.95z M41.4,91.7L39.55,91.1l-1.4-0.6L41.4,91.7z"/>
	<path style="fill-rule:evenodd;clip-rule:evenodd;fill:#C3B598;" d="M70.55,39.75c1.467-0.767,2.601-1.4,3.4-1.9
		c0.733,1.566,1.983,2.517,3.75,2.85c1.233,0.233,2.533,0.233,3.899,0c-0.767,0.633-1.517,1.25-2.25,1.85V42.4
		c-0.866,0.267-1.683,0.483-2.449,0.65c0.066-0.066,0.149-0.133,0.25-0.2c-0.2-0.4-0.567-0.434-1.101-0.1
		c-2.267-0.167-4.217-0.783-5.85-1.85l-0.7-0.5l-0.05-0.05C69.85,40.15,70.217,39.95,70.55,39.75z M57.75,61.4
		c1.033-0.067,1.75-0.334,2.15-0.801c0.3-0.366,0.466-0.966,0.5-1.8c0-0.733,0.183-1.233,0.55-1.5c1.666,0.7,3.2,1.033,4.6,1
		c-1.366,0-2.8-0.4-4.3-1.2l0.4-0.1c0.033-0.6,0.183-1.467,0.449-2.6c0.067-0.367,0.134-0.683,0.2-0.95
		c0.767,0.167,1.767,0.233,3,0.2c0.934-0.033,1.867-0.217,2.8-0.55l0.2-0.3c-0.066,0.133-0.133,0.267-0.2,0.4l-0.75,1.5
		c-0.6,0.033-1.483,0.117-2.649,0.25c-0.066,0-0.65-0.083-1.75-0.25C62.483,55.1,62.5,55.533,63,56
		c0.434,0.333,0.917,0.55,1.45,0.65l1.85,0.25l-0.75,1.4l-0.25,0.45c-0.166,0.267-0.316,0.517-0.45,0.75l-0.75,1.2v0.05l-0.05,0.05
		l-0.1,0.15L63.3,61.2L64,59.6L61.95,60.9c-0.467,0.166-1.283,0.333-2.45,0.5H57.75z M61.35,70.475
		c-0.031,0.048-0.064,0.09-0.1,0.125L61,70.7c-0.9,0.133-1.983,0.166-3.25,0.1c-0.366,0-1.05-0.05-2.05-0.149
		c-0.9-0.034-1.601,0-2.101,0.1l-0.6,0.1c-0.233-0.1-0.434-0.199-0.6-0.3c-0.034-0.066-0.067-0.133-0.101-0.2
		c-0.1-0.033-0.2-0.066-0.3-0.1c-0.434-0.267-0.816-0.583-1.15-0.95c0.301,0.101,0.584,0.15,0.851,0.15
		c1.399,0.3,2.767,0.45,4.1,0.45c2.101,0,3.267-0.5,3.5-1.5c-0.399-0.367-1.083-0.684-2.05-0.95L55,66.7
		c0.134-0.167,0.733-0.233,1.8-0.2c1.3,0.066,1.983,0.1,2.05,0.1l0.101-0.949c-0.767-0.034-1.517-0.217-2.25-0.551
		c1.434,0.233,2.6,0.217,3.5-0.05c0.7-0.166,1.399-0.833,2.1-2l0.851-0.25c-0.101,0.367-0.2,0.783-0.301,1.25L62.3,67.5
		c-0.1,0.767-0.316,1.517-0.649,2.25l-0.101,0.3l-0.149,0.3C61.385,70.396,61.368,70.438,61.35,70.475z M35.95,92.7
		c-0.3-0.5-0.5-0.851-0.6-1.05c1.3,0.6,2.633,0.866,4,0.8V93L39,93.2c-0.067-0.033-0.183-0.066-0.35-0.101L37.7,92.95
		c-0.067-0.033-0.133-0.05-0.2-0.05c-0.7-0.134-1.217-0.301-1.55-0.5V92.7z M30.05,94.8c-0.667-0.899-1.1-1.833-1.3-2.8l-0.1-1.1
		c0.667,1.399,1.983,2.733,3.95,4c0.433-0.167,0.6-0.601,0.5-1.301c0.267,0,0.683,0.134,1.25,0.4c0.566,0.2,1.017,0.267,1.35,0.2
		l0.55-0.15l0.35,0.65l-3.25,2.149c-0.7-0.333-1.55-0.933-2.55-1.8l-0.25,0.101l-0.4-0.65C30.083,94.6,30.05,94.7,30.05,94.8z
		 M39.4,91.95c-0.733-0.5-1.367-1.101-1.9-1.8l0.65,0.35l1.4,0.6L39.4,91.95z M29.2,99.25c0.1-0.033,0.216-0.066,0.35-0.1
		c-0.033,0.033-0.066,0.05-0.1,0.05C29.35,99.233,29.267,99.25,29.2,99.25z M24.55,100.15c-0.167-0.034-0.35-0.051-0.55-0.051
		c-0.233-0.433-0.533-0.883-0.9-1.35c-0.7-0.934-1.184-1.634-1.45-2.1c-0.133-0.134-0.233-0.301-0.3-0.5
		c0.7,0.366,1.483,0.716,2.35,1.05c0.533,0.133,1.033,0.283,1.5,0.45c0.167,1.1,0.383,1.933,0.65,2.5l-0.1,0.05H25.7l0.1-0.05
		c-0.4-0.567-0.816-0.9-1.25-1C24.517,99.384,24.517,99.717,24.55,100.15z M6.65,88.95c0.567-0.533,0.967-0.967,1.2-1.3
		c0.3-0.167,0.617-0.301,0.95-0.4c-0.333,0.267-0.733,0.7-1.2,1.3c-0.533,0.667-0.9,1.101-1.1,1.3L5.75,90.7L6.65,88.95z
		 M22.4,84.05c-0.033,0.667-0.033,1.334,0,2l-0.25,1.55l0.25-0.35v2.3c0.033,1.167,0.317,2.45,0.85,3.851
		c-1.033-0.367-1.95-0.917-2.75-1.65c-0.3-1.6-0.717-2.783-1.25-3.55c-0.133,0.166-0.233,0.399-0.3,0.7
		c-0.233-0.301-0.467-0.617-0.7-0.95L18.2,87.4c-0.034-0.2-0.017-0.534,0.05-1l0.25-0.051c0.1,0.567,0.383,1.2,0.85,1.9
		c0.533,0.8,0.95,1.384,1.25,1.75c-0.067-1.934-0.067-3.384,0-4.35V85.5c0.023-0.016,0.048-0.032,0.075-0.05
		c0.092-0.047,0.184-0.098,0.275-0.15c0.1-0.1,0.216-0.184,0.35-0.25l0.25-0.2c0.067-0.066,0.15-0.133,0.25-0.199L22.4,84.05z
		 M34.15,78.45c-0.066,1.033-0.066,1.934,0,2.7c-0.533-1.134-0.816-1.983-0.85-2.551C33.6,78.533,33.883,78.483,34.15,78.45z
		 M46.75,66.75l-0.15,0.5l-0.05-0.1L46.75,66.75z M48.1,67.5L47,66.2c0.067-0.267,0.133-0.467,0.2-0.601
		c0.066-0.133,0.167-0.3,0.3-0.5l0.25,1.15C47.75,66.283,47.867,66.7,48.1,67.5z M64.8,49.5c0.101,0.167,0.2,0.333,0.3,0.5
		c-0.633,0.2-0.983,0.317-1.05,0.35c0,0.733-0.017,1.15-0.05,1.25c-0.1,0.167-0.333,0.283-0.7,0.35c0.101-0.7,0.017-1.983-0.25-3.85
		c0.233,0.667,0.7,1.1,1.4,1.3L64.8,49.5z M67.55,49.1c0.066-0.133,0.101-0.25,0.101-0.35c0.033-0.3,0-0.467-0.101-0.5
		c-0.2-0.067-0.366-0.183-0.5-0.35c-0.467-0.767-0.7-1.533-0.7-2.3c0.034,0.833,0.334,1.4,0.9,1.7c0.2,0.1,0.467,0.184,0.8,0.25
		c0,0.034,0,0.083,0,0.15c0,0.5-0.05,0.833-0.149,1C67.833,48.833,67.717,48.967,67.55,49.1z M66.1,49.75
		c-0.066-0.033-0.116-0.067-0.149-0.1c0.128,0,0.27,0,0.425,0c-0.088,0.002-0.162,0.019-0.225,0.05
		C66.116,49.7,66.1,49.717,66.1,49.75z M12.05,95.5c0,1.4,0.167,2.517,0.5,3.35c0.267,0.667,0.817,1.317,1.65,1.95
		c1.066,0.767,1.716,1.316,1.95,1.65c0.267,0.166,0.434,0.283,0.5,0.35c0.1,0.101,0.133,0.25,0.1,0.45
		c-0.367,0.033-0.8-0.05-1.3-0.25c-0.667-0.267-1.1-0.417-1.3-0.45c0.067,0.167,0.483,0.584,1.25,1.25
		c-2.1,0.566-3.717-0.184-4.85-2.25c-0.8-1.5-1.267-3.434-1.4-5.8c-0.3,0.233-0.5,0.55-0.6,0.95c-0.367-2.033-0.233-3.767,0.4-5.2
		c0.167,0.3,0.267,0.833,0.3,1.6c0,1,0.017,1.551,0.05,1.65c0.267,1.5,1.034,3.033,2.3,4.6C11.333,97.75,11.483,96.467,12.05,95.5z
		 M4.45,92.9c-0.4,0.8-0.7,1.633-0.9,2.5c-0.3,1.233-0.433,2.433-0.4,3.6c0.033,1.5,0.333,2.65,0.9,3.45
		c0.1-0.334,0.2-0.75,0.3-1.25c0.1-0.7,0.183-1.134,0.25-1.3c0.167,0.199,0.283,0.699,0.35,1.5c0.066,0.933,0.167,1.533,0.3,1.8
		c0.3-0.2,0.65-0.267,1.05-0.2c0.067-0.667,0.067-1.517,0-2.55c-0.1-1.134-0.167-2-0.2-2.601c0.3,1.567,1.033,2.784,2.2,3.65
		c-0.066,2.566,0.317,4.45,1.15,5.65c0.133,0.233,0.566,0.783,1.3,1.649c-0.067,0.2-0.15,0.334-0.25,0.4
		c-1.233-0.4-1.95-1.101-2.15-2.101c0,0.601,0.1,1.517,0.3,2.75c-0.033,0.934-0.633,1.267-1.8,1c-0.167-0.033-0.417-0.149-0.75-0.35
		l-0.35-0.9c0,0.267,0.083,0.551,0.25,0.851c-0.7-0.5-1.317-1.167-1.85-2c-0.333-0.566-0.55-1.084-0.65-1.55
		c0.067,0.966,0.033,1.75-0.1,2.35c-0.333-0.333-0.55-0.583-0.65-0.75c-0.367-0.767-0.55-1.667-0.55-2.7c0-0.3,0.083-1.25,0.25-2.85
		c0.033-0.5,0-1.217-0.1-2.15c-0.133-0.934-0.167-1.649-0.1-2.149C2.35,97.05,3.083,95.134,4.45,92.9z M17.65,94.25l0.15-2.1
		c0.167,0.333,0.35,0.649,0.55,0.949c-0.033,1,0.05,1.95,0.25,2.851C18.267,95.417,17.95,94.85,17.65,94.25z M15.85,95.8
		c0.167,1.066,0.467,2.05,0.9,2.95c0.3,0.634,0.683,1.15,1.15,1.55l-0.7-0.3c0.066,0.134,0.3,0.4,0.7,0.8
		c0.267,0.3,0.383,0.601,0.35,0.9c-0.8-0.066-1.533-0.467-2.2-1.2c-0.367-0.4-0.917-1.1-1.65-2.1c-0.6-0.667-1.066-1.4-1.4-2.2
		c0.2-1.267,0.35-2.2,0.45-2.8c0.233-1.134,0.483-2.051,0.75-2.75c0.133,0.333,0.283,1.233,0.45,2.699
		C14.95,94.717,15.35,95.533,15.85,95.8z M17.3,95.25c0.067,0.5,0.15,0.866,0.25,1.1l-0.65-0.6C17.067,95.65,17.2,95.483,17.3,95.25
		z M46.55,82.25c2.034,0.333,3.15,0.55,3.351,0.65c-0.233,0.3-0.834,0.583-1.8,0.85c-0.9,0.267-1.434,0.566-1.6,0.9
		c-0.1,0.233-0.3,0.767-0.6,1.6c-0.3,0.7-1.35,1.517-3.15,2.45c-0.133,0.066-0.283,0.2-0.45,0.399
		c-0.033,0.067-0.267,0.101-0.7,0.101c-0.5,0-1.133-0.117-1.9-0.351c-0.8-0.267-1.534-0.616-2.2-1.05l-1.1-1
		c0.067-1.233,0.1-2.2,0.1-2.899c0.133,0.666,0.8,1.449,2,2.35c1.4,1.033,2.467,1.45,3.2,1.25c-0.034-0.3-0.2-0.783-0.5-1.45
		c-0.3-0.6-0.467-1.083-0.5-1.45c0.466-0.3,1.283-0.3,2.45,0c1.267,0.334,2.133,0.4,2.6,0.2c0.367-0.133,0.8-0.5,1.3-1.1
		c0.434-0.5,0.867-0.816,1.3-0.95C47.75,82.884,47.15,82.717,46.55,82.25z M28.2,87.9l-0.05,0.649V87.9H28.2z M62.95,51.95
		c-0.134,0-0.283,0-0.45,0c0-0.034,0-0.067,0-0.1C62.667,51.883,62.816,51.917,62.95,51.95z M54.75,60.95l0.05-0.101
		c0.125,0.094,0.267,0.161,0.425,0.2L54.75,60.95z M54.85,61.65h-0.5l0.2-0.25L54.85,61.65z M48.5,67.95
		c-0.033-0.033-0.067-0.066-0.1-0.101l-0.05-0.3C48.383,67.684,48.433,67.816,48.5,67.95z M50.4,72.05
		c0.3-0.066,0.566-0.116,0.8-0.149c0.533,0.5,1.184,0.899,1.95,1.199l0.5,1.351c0.033,0.1,0.133,0.217,0.3,0.35
		c0.166,0.101,0.25,0.267,0.25,0.5c0,0.3-0.334,0.684-1,1.15c-0.467,0.333-0.417,0.816,0.149,1.45c-0.133,0.3-0.5,0.533-1.1,0.699
		c-0.033,0-0.066,0.017-0.1,0.051c0-0.067,0.017-0.117,0.05-0.15c-0.267-0.2-0.75-0.417-1.45-0.65c0.233-0.1,0.417-0.267,0.55-0.5
		l0.25-0.699c0.7,0,1.316-0.2,1.851-0.601c-0.7-0.133-1.317-0.383-1.851-0.75c-0.233-1.267-0.583-2.3-1.05-3.1
		C50.467,72.134,50.434,72.083,50.4,72.05z M19,101c0.267,0.167,0.633,0.316,1.1,0.45L20,101.7L19,101z"/>
	<path style="fill-rule:evenodd;clip-rule:evenodd;fill:#342B1E;" d="M73.35,43.65c1.067-0.1,2.25-0.3,3.551-0.6
		c0.767-0.167,1.583-0.383,2.449-0.65v0.15l-2.5,1.85c-0.166,0.133-0.333,0.25-0.5,0.35l-1.3,0.95l-1.899,0.15
		c-0.233,0.033-0.601,0.05-1.101,0.05l0.101-0.25V45.6c0-0.1,0.017-0.2,0.05-0.3c0.033-0.333,0.1-0.617,0.2-0.85l0.05-0.2
		c0-0.067,0.017-0.117,0.05-0.15s0.083-0.05,0.15-0.05C73.05,43.883,73.283,43.75,73.35,43.65z M72.7,43.7l-0.2,0.4
		c-0.4,0.133-0.733,0.283-1,0.45c-0.733,0.4-1.05,0.817-0.95,1.25l1.5,0.1L71.9,46.45c-0.134,0.267-0.267,0.533-0.4,0.8
		c-0.033,0.033-0.066,0.083-0.1,0.15c-0.067,0.1-0.15,0.25-0.25,0.45c-0.167,0.167-0.334,0.35-0.5,0.55c-0.267,0.3-0.601,0.633-1,1
		c-0.034,0-0.051,0.017-0.051,0.05c-0.466,0.4-0.966,0.767-1.5,1.1L67.05,51c-0.366,0.133-0.717,0.25-1.05,0.35
		c-0.033,0-0.066,0-0.1,0c0.233,0.4,0.8,0.566,1.699,0.5c0.134,0,0.301-0.017,0.5-0.05L67.9,51.5l0.949,0.35l-0.149,0.3L68.6,52.3
		c-0.1,0.133-0.199,0.3-0.3,0.5l-0.2,0.3c-0.933,0.333-1.866,0.517-2.8,0.55c-1.233,0.033-2.233-0.033-3-0.2
		c-1.267-0.267-1.916-0.8-1.95-1.6c0.801,0.033,1.45,0.066,1.95,0.1c0.066,0,0.134,0,0.2,0c0.167,0,0.316,0,0.45,0
		c0.1,0,0.217,0,0.35,0c0.367-0.067,0.601-0.184,0.7-0.35c0.033-0.1,0.05-0.517,0.05-1.25c0.066-0.033,0.417-0.15,1.05-0.35
		c0.267-0.067,0.601-0.15,1-0.25c0-0.033,0.017-0.05,0.051-0.05c0.063-0.031,0.137-0.048,0.225-0.05H66.4
		c0.6-0.066,0.983-0.25,1.149-0.55c0.167-0.133,0.283-0.267,0.351-0.4c0.1-0.167,0.149-0.5,0.149-1c0-0.067,0-0.117,0-0.15
		c0.033-0.466,0.084-0.783,0.15-0.95c0.3-0.4,0.467-0.667,0.5-0.8c-0.101-0.8-0.101-1.3,0-1.5c0.2-0.4,0.566-0.617,1.1-0.65
		c0.634,0.1,1.15,0.15,1.55,0.15L72.7,43.7z M32,97.8l-0.9,0.55c-0.033,0.034-0.083,0.084-0.15,0.15c-0.034,0-0.05,0.017-0.05,0.05
		l-0.1,0.101c-0.2,0.066-0.367,0.133-0.5,0.199L30,99c-0.1,0.033-0.2,0.066-0.3,0.1c-0.067,0.034-0.117,0.051-0.15,0.051
		c-0.133,0.033-0.25,0.066-0.35,0.1c-0.067,0.033-0.117,0.05-0.15,0.05l-0.5,0.15c-0.033,0-0.066,0-0.1,0
		c-0.2,0.033-0.417,0.083-0.65,0.149c-0.167,0.034-0.316,0.067-0.45,0.101c-0.667,0.166-1.117,0.3-1.35,0.399
		c-0.067,0.034-0.117,0.051-0.15,0.051c-0.267-0.567-0.483-1.4-0.65-2.5c-0.1-0.733-0.167-1.551-0.2-2.45
		c-0.067-1.167-0.1-2.084-0.1-2.75c0.033-1.134,0.25-2,0.65-2.601c0,1.101,0.133,2.067,0.4,2.9c0.333,1.033,0.867,1.6,1.6,1.7
		c0.1,0,0.217,0,0.35,0l-0.05-3.9c0.033,0.4,0.283,1.101,0.75,2.101c0.133,0.267,0.25,0.55,0.35,0.85
		c0.367,0.667,0.716,1.15,1.05,1.45c0,0.066,0,0.35,0,0.85c0,0.066,0,0.117,0,0.15v0.25c-0.033,0.133-0.067,0.25-0.1,0.35l-0.1,0.05
		c-0.033,0.034-0.05,0.067-0.05,0.101H29.7l-0.05,0.05c-0.033,0-0.066,0.017-0.1,0.05h-0.3c-0.2,0-0.4-0.017-0.6-0.05l-0.1-0.05
		c-0.667-0.167-1.083-0.233-1.25-0.2c-0.6,0.134-0.85,0.417-0.75,0.85C26.683,97.75,27,98,27.5,98.1
		c0.233,0.067,0.7,0.101,1.4,0.101c0.167,0,0.333,0,0.5,0c0.267,0,0.483-0.017,0.65-0.05c0.034-0.034,0.067-0.051,0.1-0.051
		s0.067-0.017,0.1-0.05c0.033,0,0.05-0.017,0.05-0.05c0.167-0.134,0.333-0.384,0.5-0.75c0.067-0.2,0.15-0.366,0.25-0.5
		c0.067-0.134,0.167-0.25,0.3-0.35l-0.8-1.25l0.25-0.101c1,0.867,1.85,1.467,2.55,1.8l-1.2,0.851l-0.1-0.25l-0.55-1.2l-0.15,0.15
		l0.4,0.55L32,97.8z M24.55,100.85L24.5,100.9l-0.2,0.1l-0.35-0.1c-0.1-0.167-0.217-0.334-0.35-0.5l-0.05-0.15
		c-0.2-0.233-0.4-0.5-0.6-0.8L21.9,98.2c-0.6-0.9-0.967-1.467-1.1-1.7c-0.167-0.333-0.283-0.65-0.35-0.95
		c-0.064-0.19-0.097-0.349-0.1-0.475c0,0.094,0,0.219,0,0.375c0,0.633,0.033,1.083,0.1,1.35c0.1,0.634,0.383,1.3,0.85,2
		c0.034,0.066,0.083,0.134,0.15,0.2c0.233,0.233,0.466,0.467,0.7,0.7c0.533,0.467,1.133,0.866,1.8,1.2l0.2,0.3
		c-0.167,0.166-0.316,0.316-0.45,0.45l-0.1,0.1c-0.167,0.2-0.383,0.5-0.65,0.9l-0.05,0.05l-0.9-1l-0.8-0.851
		c-0.867-1.1-1.517-2.149-1.95-3.149c-0.2-0.5-0.383-0.967-0.55-1.4c-0.034-0.133-0.067-0.25-0.1-0.35
		c-0.2-0.9-0.283-1.851-0.25-2.851c0-0.6,0.05-1.233,0.15-1.899c0.033-0.3,0.067-0.584,0.1-0.851c0.033-0.3,0.066-0.533,0.1-0.699
		c0.033-0.301,0.117-0.551,0.25-0.75c0.066-0.301,0.167-0.534,0.3-0.7c0.533,0.767,0.95,1.95,1.25,3.55c0,0.2,0.017,0.4,0.05,0.6
		c0.2,1.7,0.467,2.967,0.8,3.801c0.066,0.199,0.167,0.366,0.3,0.5c0.267,0.466,0.75,1.166,1.45,2.1
		c0.367,0.467,0.667,0.917,0.9,1.35c0.167,0.167,0.3,0.334,0.4,0.5C24.433,100.667,24.483,100.75,24.55,100.85z M24.7,100.75h-0.05
		c0-0.033,0-0.066,0-0.1c-0.033-0.2-0.066-0.367-0.1-0.5c-0.033-0.434-0.033-0.767,0-1c0.434,0.1,0.85,0.433,1.25,1l-0.1,0.05
		l-0.5,0.3L24.7,100.75z M43.05,78.85c-1.633-1.166-2.517-2.583-2.65-4.25l0.75-0.449c0.267,0.767,0.633,1.399,1.1,1.899
		C42.817,76.65,43.4,76.967,44,77c0.067-0.366,0.067-0.634,0-0.8c0.333,0.1,0.917,0.483,1.75,1.149c0.7,0.601,1.333,0.834,1.9,0.7
		c-0.033-0.233-0.217-0.533-0.55-0.899c-0.1-0.134-0.217-0.267-0.35-0.4c-0.6-0.566-0.917-1.066-0.95-1.5
		c-0.033-0.366,0.034-0.783,0.2-1.25c0.2-0.533,0.4-0.9,0.6-1.1c0.2-0.167,0.633-0.267,1.3-0.301c0.567,0,0.95-0.166,1.15-0.5
		c0.3-0.566,0.117-0.883-0.55-0.949c-0.733-0.134-1-0.417-0.8-0.851c0.466-0.066,0.8-0.083,1-0.05c-0.1-0.434-0.95-1.116-2.55-2.05
		c0.033-0.066,0.083-0.134,0.15-0.2l0.25-0.6c0-0.067,0.017-0.117,0.05-0.15l0.15-0.5l0.2-0.6L47,66.2l1.1,1.3l0.25,0.3
		c0,0.033,0.017,0.05,0.05,0.05c0.033,0.034,0.067,0.067,0.1,0.101c0.3,0.3,0.6,0.583,0.9,0.85c0.433,0.367,0.916,0.684,1.449,0.95
		c0.267,0.2,0.65,0.366,1.15,0.5c0.1,0.033,0.2,0.066,0.3,0.1c0.033,0.067,0.066,0.134,0.101,0.2
		c0.267,0.566-0.017,0.983-0.851,1.25c-0.133,0.033-0.25,0.066-0.35,0.101c-0.233,0.033-0.5,0.083-0.8,0.149
		c-0.267,0.033-0.551,0.066-0.851,0.101c0.3,0.5,0.434,0.899,0.4,1.199c-1.5,0-2.467,0.184-2.9,0.551
		c0.4,1.267,0.784,2.149,1.15,2.649c0.4,0.5,1.066,0.884,2,1.15c0.2,0.066,0.383,0.116,0.55,0.149c0.7,0.233,1.184,0.45,1.45,0.65
		c-0.033,0.033-0.05,0.083-0.05,0.15c-0.367,0.733-1.384,1.066-3.051,1c-0.3-0.034-0.616-0.067-0.95-0.101
		c-1.9-0.2-3.45-0.583-4.65-1.149L43.4,79l-0.05,0.1C43.25,79.033,43.15,78.95,43.05,78.85z"/>
	<path style="fill-rule:evenodd;clip-rule:evenodd;fill:#4E402D;" d="M68.95,51.75l-0.101,0.1L67.9,51.5l0.199,0.3
		c-0.199,0.034-0.366,0.05-0.5,0.05c-0.899,0.066-1.466-0.1-1.699-0.5c0.033,0,0.066,0,0.1,0c0.333-0.1,0.684-0.217,1.05-0.35
		l1.05-0.45c0.534-0.333,1.034-0.7,1.5-1.1c0-0.034,0.017-0.05,0.051-0.05c0.399-0.367,0.733-0.7,1-1
		c0.166-0.2,0.333-0.383,0.5-0.55c0.1-0.2,0.183-0.35,0.25-0.45c0.033-0.066,0.066-0.117,0.1-0.15c0.134-0.267,0.267-0.533,0.4-0.8
		l0.149-0.55l-1.5-0.1c-0.1-0.433,0.217-0.85,0.95-1.25c0.267-0.167,0.6-0.316,1-0.45l0.2-0.4c0.166-0.267,0.483-0.333,0.95-0.2
		l-0.301,0.15c-0.066,0.1-0.3,0.233-0.699,0.4c-0.067,0-0.117,0.017-0.15,0.05s-0.05,0.083-0.05,0.15l-0.05,0.2
		c-0.101,0.233-0.167,0.517-0.2,0.85c-0.033,0.1-0.05,0.2-0.05,0.3v0.05L72.05,45.9c0.5,0,0.867-0.017,1.101-0.05l1.899-0.15
		l-0.5,0.35c-0.267,0.233-0.517,0.45-0.75,0.65l-0.25,0.15l-0.35,0.3l-0.15,0.1c-0.3,0.233-0.6,0.5-0.899,0.8l-0.75,0.7
		c-0.634,0.633-1.184,1.25-1.65,1.85l-0.35,0.35c-0.134,0.2-0.284,0.45-0.45,0.75V51.75z M31.5,96.25l0.25,0.7l0.25,0.5l0.15,0.25
		L32,97.8l-0.25-0.85l-0.4-0.55L31.5,96.25z M46.15,68.2c1.6,0.934,2.45,1.616,2.55,2.05c-0.2-0.033-0.534-0.017-1,0.05
		c-0.2,0.434,0.066,0.717,0.8,0.851c0.667,0.066,0.85,0.383,0.55,0.949c-0.2,0.334-0.583,0.5-1.15,0.5
		c-0.667,0.034-1.1,0.134-1.3,0.301C46.4,73.1,46.2,73.467,46,74c-0.167,0.467-0.233,0.884-0.2,1.25
		c0.034,0.434,0.35,0.934,0.95,1.5c0.133,0.134,0.25,0.267,0.35,0.4c0.333,0.366,0.517,0.666,0.55,0.899
		c-0.566,0.134-1.2-0.1-1.9-0.7C44.917,76.684,44.333,76.3,44,76.2c0.067,0.166,0.067,0.434,0,0.8c-0.6-0.033-1.183-0.35-1.75-0.95
		c-0.467-0.5-0.833-1.133-1.1-1.899c0.531-0.329,1.023-0.646,1.475-0.95l0.1-0.075c0.113-0.075,0.221-0.149,0.325-0.225l1.35-1.25
		c0.633-0.7,1.15-1.65,1.55-2.851C46.017,68.566,46.083,68.366,46.15,68.2z M24.3,101l-0.15,0.2l-0.2-0.3
		c-0.667-0.334-1.267-0.733-1.8-1.2c-0.233-0.233-0.467-0.467-0.7-0.7c-0.067-0.066-0.117-0.134-0.15-0.2
		c-0.466-0.7-0.75-1.366-0.85-2c-0.067-0.267-0.1-0.717-0.1-1.35c0-0.156,0-0.281,0-0.375c0.003,0.126,0.036,0.284,0.1,0.475
		c0.066,0.3,0.183,0.617,0.35,0.95c0.133,0.233,0.5,0.8,1.1,1.7l1.05,1.25c0.2,0.3,0.4,0.566,0.6,0.8l0.05,0.15
		c0.133,0.166,0.25,0.333,0.35,0.5L24.3,101z M30.05,94.8c0-0.1,0.034-0.2,0.1-0.3l0.4,0.65l0.8,1.25
		c-0.133,0.1-0.233,0.216-0.3,0.35c-0.1,0.134-0.183,0.3-0.25,0.5c-0.167,0.366-0.333,0.616-0.5,0.75c0,0.033-0.017,0.05-0.05,0.05
		c-0.033,0.033-0.067,0.05-0.1,0.05s-0.066,0.017-0.1,0.051c-0.167,0.033-0.383,0.05-0.65,0.05c-0.167,0-0.333,0-0.5,0
		c-0.7,0-1.167-0.033-1.4-0.101c-0.5-0.1-0.817-0.35-0.95-0.75c-0.1-0.433,0.15-0.716,0.75-0.85c0.167-0.033,0.583,0.033,1.25,0.2
		l0.1,0.05c0.2,0.033,0.4,0.05,0.6,0.05h0.3c0.034-0.033,0.067-0.05,0.1-0.05l0.05-0.05h0.05c0-0.033,0.017-0.066,0.05-0.101
		l0.1-0.05c0.033-0.1,0.067-0.217,0.1-0.35v-0.25c0-0.033,0-0.084,0-0.15c0-0.5,0-0.783,0-0.85S30.017,94.833,30.05,94.8z"/>
	<path style="fill-rule:evenodd;clip-rule:evenodd;fill:#E0D2B6;" d="M25.9,80.9l1-0.551c0.3-0.233,0.617-0.416,0.95-0.55
		c0.867-0.366,2.15-0.684,3.85-0.95c0.3-0.066,0.6-0.116,0.9-0.149v0.05c0.066,3.6-0.017,6.116-0.25,7.55
		c-0.333-0.666-0.533-1.45-0.6-2.35C31.25,83.917,30.8,84.6,30.4,86c-0.3,1.1-0.45,2.083-0.45,2.95
		c-0.7-0.033-1.284-0.384-1.75-1.05h-0.05c-0.667-0.934-1-2.483-1-4.65c-0.7,0.134-1.55,0.65-2.55,1.55
		c-0.833,0.767-1.567,1.584-2.2,2.45l-0.25,0.35l0.25-1.55c0.2-1.033,0.55-2.017,1.05-2.95c0.033-0.033,0.05-0.066,0.05-0.1
		c0.5-0.5,0.967-0.917,1.4-1.25C25.267,81.417,25.6,81.134,25.9,80.9z M39.35,75.35l-0.3,1.75c-0.1,0.634-0.167,1.65-0.2,3.051
		c-0.033,1.366-0.117,2.399-0.25,3.1c-0.934,0.4-1.934-1.3-3-5.1V78.1l0.65-0.149c0.4-0.134,0.9-0.517,1.5-1.15
		c0.767-0.733,1.233-1.166,1.4-1.3l0.2-0.2V75.35z M17.3,86.55l0.95,1.4c0.233,0.333,0.467,0.649,0.7,0.95
		c-0.133,0.199-0.217,0.449-0.25,0.75c-0.034,0.166-0.067,0.399-0.1,0.699c-0.967-0.267-1.684-0.55-2.15-0.85
		c-1-0.533-1.7-1.316-2.1-2.35C14.117,87.517,14,88.35,14,89.65c0,1.133-0.2,1.899-0.6,2.3c-0.533-0.267-0.867-0.767-1-1.5
		c-0.233-0.967-0.4-1.533-0.5-1.7c-0.667,0.267-1.183,0.8-1.55,1.6c-0.333,0.667-0.55,1.4-0.65,2.2c-0.434-0.5-0.633-1.333-0.6-2.5
		c0-0.6,0.1-1.583,0.3-2.95l0.2-0.05c1.066-0.2,2.4-0.3,4-0.3C15.467,86.684,16.7,86.616,17.3,86.55z M46.55,67.4L46.3,68
		c0.067-0.233,0.133-0.45,0.2-0.65L46.55,67.4z M51.55,76.65L51.3,77.35c-0.133,0.233-0.316,0.4-0.55,0.5
		c-0.167-0.033-0.35-0.083-0.55-0.149c-0.934-0.267-1.6-0.65-2-1.15c-0.367-0.5-0.75-1.383-1.15-2.649
		c0.434-0.367,1.4-0.551,2.9-0.551c0.033-0.3-0.101-0.699-0.4-1.199c0.3-0.034,0.584-0.067,0.851-0.101
		c0.033,0.033,0.066,0.084,0.1,0.15c0.467,0.8,0.816,1.833,1.05,3.1C51.616,75.767,51.616,76.217,51.55,76.65z M51.2,61.75
		c-0.334-0.134-0.717-0.333-1.15-0.6L50,61.1c0.733-1.899,1.4-3.483,2-4.75l0.4-0.85c0.133-0.333,0.283-0.617,0.449-0.85
		c0.634-1.233,1.534-2.3,2.7-3.2v0.05c-0.333,2.267-0.517,4.25-0.55,5.95c0,0.367,0,0.95,0,1.75c0,0.7-0.066,1.25-0.2,1.649
		l-0.05,0.101l-0.2,0.45l-0.2,0.25c-0.466,0.333-0.966,0.483-1.5,0.449C52.283,62.1,51.733,61.983,51.2,61.75z"/>
</g>
</svg>
