<?xml version="1.0" encoding="iso-8859-1"?>
<!-- Generator: Adobe Illustrator 15.1.0, SVG Export Plug-In . SVG Version: 6.00 Build 0)  -->
<!DOCTYPE svg PUBLIC "-//W3C//DTD SVG 1.1//EN" "http://www.w3.org/Graphics/SVG/1.1/DTD/svg11.dtd">
<svg version="1.1" id="FlashAICB" xmlns="http://www.w3.org/2000/svg" xmlns:xlink="http://www.w3.org/1999/xlink" x="0px" y="0px"
	 width="121.05px" height="384.5px" viewBox="0 0 121.05 384.5" style="enable-background:new 0 0 121.05 384.5;"
	 xml:space="preserve">
<g>
	
		<radialGradient id="SVGID_1_" cx="65" cy="348.9502" r="73.325" gradientTransform="matrix(1 0 0 -0.5363 0 536.096)" gradientUnits="userSpaceOnUse">
		<stop  offset="0" style="stop-color:#000000;stop-opacity:0.6863"/>
		<stop  offset="1" style="stop-color:#000000;stop-opacity:0"/>
	</radialGradient>
	<path style="fill-rule:evenodd;clip-rule:evenodd;fill:url(#SVGID_1_);" d="M11.3,350.65c1.833-0.967,2.917-1.567,3.25-1.801
		c3.967-2.899,6.2-5.083,6.7-6.55l56,4c3.667-1.2,8.533-1.399,14.6-0.6c3.334,0.434,8.184,1.1,14.551,2
		c2.399,0.133,4.933,0.7,7.6,1.7c3.167,1.199,5.517,1.933,7.05,2.199c-0.3,0.634-0.899,1.551-1.8,2.75
		c-0.566,1-0.366,1.867,0.6,2.601c-0.166,0.533-0.883,1.55-2.149,3.05c-0.967,1.1-1.3,2.267-1,3.5l1.7,0.8
		c-0.634,0.233-2.684,1.283-6.15,3.15c-2.733,1.467-4.833,2.233-6.3,2.3c0.1,0.333,0.083,0.866-0.05,1.6
		c-0.101,0.767-0.134,1.284-0.101,1.551c-1.166-0.101-2.399,0.533-3.7,1.899c-1.5,1.634-2.833,2.601-4,2.9
		c-3.899,0.066-6.75,0.233-8.55,0.5c-3.166,0.5-4.399,2.517-3.7,6.05c-6.066,0.267-11.283,0.333-15.649,0.2
		c-5.5-0.134-10.667-0.566-15.5-1.3c-0.567-0.101-5.483-0.017-14.75,0.25c-6.934,0.166-11.15-0.65-12.65-2.45
		c0.5-0.267,1.217-0.667,2.15-1.2c0.833-0.4,1.617-0.616,2.35-0.65c-0.667-0.066-1.983-0.05-3.95,0.051
		c-1.733,0.066-3.05,0.017-3.95-0.15c-1.633-0.333-2.65-0.767-3.05-1.3c-0.333-0.8-0.85-1.533-1.55-2.2
		c-1.066-1.333-1.733-2.15-2-2.45c-0.267-0.333-1.383-0.85-3.35-1.55c-1.167-0.4-3.1-0.816-5.8-1.25
		c-2.633-0.4-4.55-0.816-5.75-1.25c0.533-1.4,1.567-2.134,3.1-2.2c0.9-0.066,2.383-0.05,4.45,0.05
		c-1.434-0.899-3.217-1.35-5.35-1.35c0.7-0.934,1.816-2.233,3.35-3.9c-1.8-0.833-4.45-1.316-7.95-1.449
		c0.667-1.233,1.917-2,3.75-2.301c0.067-0.033,1.683-0.149,4.85-0.35c-0.233-0.066-0.667-0.25-1.3-0.55
		c-0.7-0.334-1.167-0.533-1.4-0.601c0.434-0.3,0.917-0.833,1.45-1.6c0.3-0.4,0.7-0.983,1.2-1.75
		C9.283,351.967,10.2,351.184,11.3,350.65z"/>
	
		<radialGradient id="SVGID_2_" cx="68.5996" cy="359.6504" r="72.6625" gradientTransform="matrix(1 0 0 -0.5474 0 556.5208)" gradientUnits="userSpaceOnUse">
		<stop  offset="0" style="stop-color:#000000;stop-opacity:0.4"/>
		<stop  offset="1" style="stop-color:#000000;stop-opacity:0.098"/>
	</radialGradient>
	<path style="fill-rule:evenodd;clip-rule:evenodd;fill:url(#SVGID_2_);" d="M116.55,355.7c-0.933,0.633-1.384,1.583-1.35,2.85
		c0.066,1.134,0.517,2.167,1.35,3.101c-3.733,0.966-6.667,1.767-8.8,2.399c-3.9,1.167-5.633,2.767-5.2,4.8
		c-1.433-0.267-3.05,0.117-4.85,1.15c-2.5,1.434-3.983,2.217-4.45,2.35c-1.3,0.367-4.9,1.184-10.8,2.45
		c-6.867,1.601-15.034,2.101-24.5,1.5c-2.9-0.167-6.351-0.7-10.351-1.6c-4.466-1.101-7.866-1.9-10.2-2.4
		c-0.3-0.066-2.05-0.283-5.25-0.649c-1.4-1.334-3.2-2.817-5.4-4.45c-2.533-1.8-4.434-3.167-5.7-4.101c0-0.399,0.05-0.8,0.15-1.199
		c-1.3,0-2.601-0.768-3.9-2.301c-1.133-1.366-2.7-1.833-4.7-1.399c0.867-1.567,1.3-3.317,1.3-5.25l64-7.3
		c10.166-0.367,20.149,0.732,29.949,3.3c0.7,0.2,1.851,0.433,3.45,0.7c1.4,0.333,2.467,0.816,3.2,1.449
		c0.333,0.267,0.533,0.983,0.6,2.15C115.166,354.35,115.65,355.167,116.55,355.7z"/>
</g>
<g>
	<path style="fill-rule:evenodd;clip-rule:evenodd;fill:#4D330D;" d="M38.85,39.35c1.034,0.867,2.367,1.033,4,0.5
		c0.4-2.267,0.667-7.934,0.8-17c0.133-7.367,1.233-14.483,3.3-21.35c-0.101,5.933,0.017,11.7,0.35,17.3
		c0.533,8.3,1.517,14.483,2.95,18.55c0.367,1.066,1.316,1.533,2.85,1.4c2.034-0.233,3.317-0.233,3.851,0
		c0.399,0.167,1.45,1.017,3.149,2.55c1.233,1.1,2.617,1.55,4.15,1.35c2.867-0.4,5.017-4.417,6.45-12.05
		c1.066-8.5,1.816-13.717,2.25-15.65c0.399,1.6,0.583,3.866,0.55,6.8c0,1.667-0.05,4.25-0.15,7.75c0.033,6.3,1.45,10.4,4.25,12.3
		c2.601,1.8,6.066,2.917,10.4,3.35c4.9,0.467,7.25-0.783,7.05-3.75c2.134,1.8,3.067,5.167,2.8,10.1c-0.267,4.967-1.6,8.15-4,9.55
		c-1.967,1.167-5.616,1.567-10.949,1.2c-5.801-0.633-9.617-0.95-11.45-0.95c-4.467,0-9.134-0.233-14-0.7
		c-4.833-0.4-9.667-0.6-14.5-0.6L27.6,50c2.634,0.1,4.834-1.75,6.601-5.55c1.566-4.5,2.649-7.5,3.25-9
		C37.417,37.217,37.883,38.517,38.85,39.35z"/>
	<path style="fill-rule:evenodd;clip-rule:evenodd;fill:#422C06;" d="M93.35,18.45c0.434-4.3,0.733-7.05,0.9-8.25
		c0.333,2.366,0.684,5.667,1.05,9.9c0.4,4.767,0.717,8.066,0.95,9.9c0.666,5.467,1.1,8.55,1.3,9.25c1.167,4.467,3.017,5.467,5.55,3
		c0.967,1.133,1.334,3.217,1.101,6.25c-0.233,3-0.884,5.066-1.95,6.2c-1.5,1.633-4.934,2.233-10.3,1.8
		c-5.934-0.767-9.833-1.167-11.7-1.2l-14.65-6c0.301-1,1.033-2.05,2.2-3.15c1.366-1.267,2.233-2.217,2.601-2.85
		c0.8-1.3,1.3-2.917,1.5-4.85c0.1-2.233,0.217-3.95,0.35-5.15c0.449-4.172,0.683-10.031,0.7-17.575
		c0.081,2.778,0.948,6.57,2.6,11.375c2.101,6.167,4.167,7.816,6.2,4.95c4.434,5.4,7.7,4.25,9.8-3.45
		C92.25,26.066,92.85,22.683,93.35,18.45z"/>
	<path style="fill-rule:evenodd;clip-rule:evenodd;fill:#422C06;" d="M46.95,3.3L47.6,0c0,8.566,0.217,15.9,0.65,22
		c0.2,2.533,0.583,6.75,1.15,12.65c0.233,5.233-0.183,9.417-1.25,12.55c-1.267,0.3-2.433,0.25-3.5-0.15
		c-1.1-0.433-1.883-1.2-2.35-2.3c2.333,0.333,3.583-2.3,3.75-7.9c-0.3-6.333-0.45-10.184-0.45-11.55c0-2.533,0.217-6.183,0.65-10.95
		C46.717,9.517,46.95,5.833,46.95,3.3z"/>
	<path style="fill-rule:evenodd;clip-rule:evenodd;fill:#35240B;" d="M101.95,39.25c0.5-0.667,0.833-1.25,1-1.75
		c0.566,2.2,0.866,5,0.899,8.4c0,2.033-0.116,4.917-0.35,8.65c-1,0.067-4.084,0.1-9.25,0.1l-6.65-4c-0.033-2.5-0.05-4.383-0.05-5.65
		c-0.033-2.2,0.017-4.067,0.15-5.6c3.7,0.667,5.899-2.883,6.6-10.65c0.2-2.533,0.25-5.617,0.15-9.25
		c-0.028-0.749-0.054-1.44-0.075-2.075c0.093,0.69,0.218,1.399,0.375,2.125c0.333,1.434,0.9,3.583,1.7,6.45
		c0.399,1.533,0.85,4.133,1.35,7.8c0.634,3.233,1.684,5.55,3.15,6.95C101.05,40.517,101.383,40.017,101.95,39.25z"/>
	<path style="fill-rule:evenodd;clip-rule:evenodd;fill:#5E3F19;" d="M21.6,61.3c0-2.1,0.184-6.883,0.55-14.35
		c0.3-6,0.333-10.717,0.1-14.15c0.2,2.033,0.7,4.033,1.5,6c0.9,2.167,2.017,3.833,3.35,5c1.267,1.1,2.934,1.684,5,1.75
		c2.134,0.067,3.7,0.467,4.7,1.2c1.134,3.467-1.717,6.316-8.55,8.55L21.6,61.3z"/>
</g>
<g>
	<path style="fill-rule:evenodd;clip-rule:evenodd;fill:#4D330D;" d="M22.65,54.45L22.6,52l0.351,0.2V49h80.75
		c0.3,1.633,0.383,2.6,0.25,2.9L104,67.55c0.166,3.7,0.483,9.083,0.95,16.15V138l-0.4,2.75l0.05,7.05c0,4.4-0.316,9.5-0.949,15.3
		c0.533,14.933,0.232,27.433-0.9,37.5c-0.2,1.567-0.4,3.95-0.6,7.15c0.1,3.967,0.25,7.883,0.449,11.75
		c0.367,7.267,0.584,14.934,0.65,23c0.9,12.333,1.35,21.233,1.35,26.7c0,5.267,0.15,13.267,0.45,24c0.167,9.633-0.1,17.633-0.8,24
		c0.8,4.333,2.283,10.983,4.45,19.95l0.45,1.449l0.949,4.75c0.134,4.567,0.467,9.367,1,14.4c-1.232,1.733-3.017,3.184-5.35,4.35
		c-2.9,1.167-5.084,2.051-6.55,2.65c-0.534,0.2-0.95,0.7-1.25,1.5c-0.333,0.833-0.767,1.366-1.3,1.6c-0.467,0.2-1.268,0.434-2.4,0.7
		c-1.2,0.3-2.017,0.5-2.45,0.601c-3.7,1.3-6.333,2.216-7.899,2.75c-5.268,1.8-12.167,2.916-20.7,3.35
		c-3.233,0.2-6.067,0.217-8.5,0.05c-2.367-0.167-5.233-0.566-8.601-1.2c-2.399-0.267-4.267-0.467-5.6-0.6
		c-2.4-0.267-4.184-0.717-5.35-1.35c-1.9-0.967-4.2-2.617-6.9-4.95c-3.167-2.767-4.867-4.917-5.1-6.45
		c-0.8-0.333-2.317-1.15-4.55-2.45c-1.933-1.1-3.5-1.833-4.7-2.2l1.1-7.35c1.633-2.8,2.667-4.684,3.1-5.65
		c0.934-2.133,1.317-4.066,1.15-5.8l1.35-1.3l0.25-4.35l0.601-3.15l-0.2-1.2c-1.767-8.667-2.65-18.733-2.65-30.2
		c-0.066-16.566,0.167-28.883,0.7-36.949l1.35-18.301l-0.05-9.3c0-4.2-0.383-10.833-1.149-19.899c-0.7-8.5-1-15.084-0.9-19.75
		c0.1-4.533,0.6-11.95,1.5-22.25c0.8-9.467,1.2-16.867,1.2-22.2c0-2.7,0.4-6.617,1.2-11.75L23,112.85
		c-0.7-4.567-1.05-8.267-1.05-11.1c-0.034-2.167-0.067-3.8-0.101-4.9c-0.066-1.967-0.033-3.6,0.101-4.9
		c0.033-0.733,0.2-1.517,0.5-2.35c0.366-0.9,0.633-1.567,0.8-2c0-0.367-0.434-5.967-1.3-16.8C21.35,63.6,21.583,58.15,22.65,54.45z"
		/>
	<g>
		<path style="fill-rule:evenodd;clip-rule:evenodd;fill:#422C06;" d="M32.05,313.65c0-0.467-0.217-4.317-0.65-11.551
			c-0.167,2.601-0.966,4.617-2.4,6.051c-0.566-1.768-0.717-4.167-0.45-7.2c0.4-3.4,0.634-5.867,0.7-7.4
			c-0.033-7.633,0.117-13.5,0.45-17.6c0.566-7.3,2.233-12.684,5-16.15c-0.467,4.434-0.05,10.767,1.25,19
			c1.466,9.101,2.167,15.5,2.1,19.2c-0.1,5.967-0.217,10.184-0.35,12.65c-0.2,4.833-0.567,9.033-1.101,12.6
			c-0.7,4.866-1.183,10.467-1.45,16.8c-0.2,3.733-0.4,9.367-0.6,16.9c1-3.634,1.767-6.384,2.3-8.25c0.967-3.4,2.2-5.817,3.7-7.25
			c0.267,4.1,0.033,9.35-0.7,15.75c-1.1,9.233-1.7,14.533-1.8,15.899c-1.167-0.233-2.133-0.55-2.9-0.949l-0.55-0.301
			c-0.033-1.033,0.084-3.05,0.351-6.05c0.2-2.533,0.216-4.3,0.05-5.3c-0.3,0.233-0.9,0.517-1.8,0.85
			c-0.867,0.334-1.467,0.65-1.8,0.95c-0.3-2.033-0.15-4.233,0.45-6.6c0.8-2.667,1.384-4.767,1.75-6.3
			c0.733-3.034,1.101-6.934,1.101-11.7c-0.067-6.934-0.067-10.867,0-11.8c-2.101,3-3.45,7.716-4.05,14.149
			c-0.667,6.967-1.617,11.667-2.85,14.101c-0.467,1-1.333,2.066-2.6,3.199c-1.434,1.267-2.483,2.233-3.15,2.9l-3.5-1.95
			c0.567-0.5,1.617-1.417,3.15-2.75c1.433-1.434,2.517-3.017,3.25-4.75c0.167-0.399,0.7-2.1,1.6-5.1c0.467-1.567,0.8-5.567,1-12
			c0.134-5.533,0.817-9.067,2.05-10.601c0.3,0.301,0.467,0.634,0.5,1C31.4,321.8,32.05,318.316,32.05,313.65z M35.25,274.3l-2-3.35
			c-0.233,1.899-0.867,6.633-1.9,14.2c-0.466,6.933,0.567,11.333,3.101,13.199c1.167-2.767,1.649-6.717,1.45-11.85
			C35.467,280.767,35.25,276.7,35.25,274.3z"/>
		<path style="fill-rule:evenodd;clip-rule:evenodd;fill:#422C06;" d="M54.7,361.25c0.667-2.9,1.05-4.717,1.149-5.45
			c0.233-1.866,0.3-6.233,0.2-13.1c-0.066-5.434,0.434-9.717,1.5-12.851c0.733,3.067,1.117,8.283,1.15,15.65
			c0,6.8,0.583,11.934,1.75,15.4c0.066,6.732-0.034,11.566-0.3,14.5c-2.634,0.066-4.967-0.018-7-0.25
			c0.067-2.233,0.083-3.851,0.05-4.851c-0.7,0.101-1.351,0.351-1.95,0.75c0-2.866,0.033-4.7,0.1-5.5
			c0.233,0.167,0.667,0.367,1.3,0.601c0.633,0.199,1.067,0.399,1.3,0.6C53.917,365.316,54.167,363.483,54.7,361.25z"/>
		<path style="fill-rule:evenodd;clip-rule:evenodd;fill:#422C06;" d="M49.85,374.75l-4.1-0.7c0.4-1.533,0.7-2.649,0.9-3.35
			c0.333-1.233,0.667-2.184,1-2.851c0.2,0.733,0.467,1.884,0.8,3.45c0.333,1.3,0.8,2.333,1.399,3.101V374.75z"/>
		<path style="fill-rule:evenodd;clip-rule:evenodd;fill:#422C06;" d="M72.2,318.45c0.1,6.666,0.85,11.683,2.25,15.05
			c1.033-11.233,0.95-21.167-0.25-29.8C72.767,306.7,72.1,311.616,72.2,318.45z M83.9,265.2c-0.567,8.033,0.283,12.833,2.55,14.399
			c1.133-4.133,1.75-8.816,1.85-14.05c0.101-4.934-0.283-9.75-1.149-14.45C85.483,252.8,84.4,257.5,83.9,265.2z M71.95,304.3
			l-2-2.649c-0.767,5.3-1.067,9.866-0.9,13.699c0.2,5.134,1.184,9.533,2.95,13.2c-0.1-3.267-0.133-7.3-0.1-12.1
			C71.934,311.05,71.95,307,71.95,304.3z M74.2,303.7l0.399-0.75l-0.649-1.3L74.2,303.7z M82.55,216.5
			c0.467,9.267,0.616,14.633,0.45,16.1c-0.033,0.334-0.566,3.584-1.6,9.75c-0.667,3.867-0.934,7.167-0.801,9.9
			c2.733-2.134,4.134-6.384,4.2-12.75c-0.399-7.167-0.55-12-0.45-14.5c0.367-7.233,0.551-15.233,0.551-24
			C82.967,204.566,82.184,209.733,82.55,216.5z M86.1,183.8c-0.6-6.633-0.883-10.467-0.85-11.5l-3.3,3.35
			c-1.7,1.067-2.55,4.6-2.55,10.6c-0.033,6.2,1.283,9.55,3.949,10.05c0.634,0.101,1.167-0.116,1.601-0.649
			C86.083,194.217,86.467,190.267,86.1,183.8z M80.65,157.5c0.633-6.067,0.717-13.367,0.25-21.9c-0.2-3.467-0.801-10.767-1.801-21.9
			c-1.033,3.6-1.5,9.216-1.399,16.85c0.1,7.9-0.267,13.6-1.101,17.1l-2,2.65c0,3.467-0.166,10.533-0.5,21.2
			c-0.3,8.8-0.333,15.867-0.1,21.2c1.833-4.333,3.316-10.067,4.45-17.2C78.916,172.533,79.65,166.533,80.65,157.5z M85.25,110.3
			l-2,4c-1.167,5.733-1.834,9.65-2,11.75c-0.434,5.467,0.434,8.733,2.6,9.8c-0.1-3,0.101-7.25,0.601-12.75
			C84.983,117.133,85.25,112.867,85.25,110.3z M79.25,101.45c-0.133,3.767-0.2,6.116-0.2,7.05c0,2.767,0.15,5.05,0.45,6.85
			c1.5-1.267,2.333-3.184,2.5-5.75c-0.066-3.034-0.084-5.25-0.05-6.65c0.033-1.733,0.25-3.367,0.649-4.9
			c0.601-1.8,1.051-3.267,1.351-4.4c0.933-3.5,1.066-8.283,0.399-14.35c-0.833-7.433-1.199-12.217-1.1-14.35l-1.3,16
			c0.233,2.5-0.101,5.917-1,10.25C79.883,96.2,79.316,99.617,79.25,101.45z M73.95,101.65l-0.7,4.65c0,0.934,0.083,3.35,0.25,7.25
			c0.133,4.167,0.1,7.717-0.1,10.65c-0.601,9.333-2.783,14.333-6.551,15c-0.633,1.933-0.149,3.167,1.45,3.7
			c1.601,0.467,2.983,0.05,4.15-1.25c0.733-0.833,1.183-2.983,1.35-6.45c0.067-3.733,0.116-6.034,0.15-6.9
			c0.167-3.533,0.216-7.983,0.149-13.35C74,109.017,73.95,104.583,73.95,101.65z M75.95,85c0.2-4.434,0.233-10.283,0.1-17.55
			c-0.233,1.533-0.517,4.667-0.85,9.4c-0.267,3.9-0.667,6.917-1.2,9.05c-0.033,0.133-0.566,1.317-1.6,3.55
			c-0.667,2.066-0.167,2.816,1.5,2.25c1.199-0.4,1.883-1.333,2.05-2.8C75.916,87.1,75.916,85.8,75.95,85z M68.55,91
			c-0.134-0.667-0.667-2.167-1.6-4.5c-0.7-1.7-1.034-3.317-1-4.85c0-3.4-0.15-14.283-0.45-32.65h22.65
			c-0.634,4.3-0.334,10.333,0.899,18.1c1.467,9.133,2.2,15.15,2.2,18.05c0,13.467-0.1,24.317-0.3,32.55
			c-0.333,12.033-0.934,22.833-1.8,32.4c-0.167-0.4-0.467-0.833-0.9-1.3c-0.533-0.633-0.867-1.033-1-1.2
			c-1,0.867-1.55,2.133-1.65,3.8c-0.133,2.567-0.25,4.033-0.35,4.4c-0.133,0.533-0.483,1.3-1.05,2.3c-0.534,1-0.867,1.716-1,2.15
			c-0.5,2.133-0.267,4.433,0.7,6.9c0.566,1.4,1.449,3.583,2.649,6.55c1.233,4.566,2.101,9.183,2.601,13.85
			c0.467,4.133,0.717,8.8,0.75,14c0.033,5.167,0.383,11.9,1.05,20.2c0.866,10.767,1.366,17.5,1.5,20.2c-0.2-1.134-0.601-2.134-1.2-3
			c-0.633,1.7-0.883,3.8-0.75,6.3c0.066,1.434,0.3,3.566,0.7,6.4c0.5,3.966,0.75,9.616,0.75,16.949c0,2.5-0.134,6.767-0.4,12.801
			c-0.208,4.841-0.3,8.749-0.274,11.725c-0.049-1.433-0.14-2.475-0.275-3.125c-0.3-1.566-0.934-2.7-1.9-3.4
			c-1.033,1.634-1.684,4.301-1.949,8c-0.334,3.767-0.95,6.45-1.851,8.051c-2.2-5.067-3.517-11.534-3.95-19.4
			c-0.1-1.634-0.149-8.316-0.149-20.05c-1.434,1.933-2.534,5.217-3.3,9.85c-0.768,4.601-1.851,7.833-3.25,9.7
			c-0.867-1.667-1.533-2.917-2-3.75c-0.801-1.434-1.634-2.55-2.5-3.35c-0.734,2.6-0.2,5.767,1.6,9.5
			c0.2,0.433,1.883,3.283,5.05,8.55c4.167,7.033,6.434,10.883,6.8,11.55c2.7,4.934,4.384,9.066,5.051,12.4
			c0.232,1.166,0.366,2.933,0.399,5.3c0.067,2.433,0.2,4.217,0.4,5.35c0.167,0.9,0.433,2.15,0.8,3.75
			c0.267,1.434,0.35,2.717,0.25,3.851c0.7-1.2,1.2-2.784,1.5-4.75c0.267-2.233,0.483-3.9,0.65-5c-0.033,3.232,0.166,8.333,0.6,15.3
			c0.2,6.233-0.267,11.217-1.4,14.95c-2.166,0.166-5.482-0.167-9.949-1c0-2.367,0.1-5.983,0.3-10.851
			c0.667,2.233,1.833,3.634,3.5,4.2c0.833-4.5,1.233-9.566,1.2-15.2c0-6.167-0.551-11.25-1.65-15.25l-2,6.65l-0.8,4.25
			c-0.067-3.9-0.333-7.584-0.8-11.05c-1.7,3.8-2.384,9.699-2.051,17.699c0.334,9.2,0.184,15.283-0.449,18.25
			c-0.867,3.934-2.7,7.767-5.5,11.5c-3.533,4.167-6.234,7.351-8.101,9.551l-2.25,0.1c-0.566-3.167-0.899-6.667-1-10.5
			c0.067,0.133,0.767,1.184,2.101,3.15c0.833,1.267,1.467,2.35,1.899,3.25c1.866-3.934,3.267-6.867,4.2-8.801
			c1.633-3.467,2.566-6.533,2.8-9.199c0.2-2.5,0.15-5.867-0.149-10.101c-0.4-5.167-0.601-8.55-0.601-10.149
			c-0.399,0.466-1,0.866-1.8,1.199c-0.967,0.434-1.566,0.733-1.8,0.9c-1.601-8.333-2.384-14.833-2.351-19.5
			c0.167-2.2,0.301-3.95,0.4-5.25c0.133-2.367-0.05-4.05-0.55-5.05c-0.333-0.7-0.767-1.184-1.3-1.45
			c-0.667-0.333-1.084-0.6-1.25-0.8c-0.101-0.134-0.684-0.75-1.75-1.851c-0.9-0.899-1.584-1.75-2.051-2.55c-0.566-2-1-3.434-1.3-4.3
			c-0.5-1.467-1.667-2.167-3.5-2.1c-0.866-1.601-1.517-3.518-1.95-5.75c-0.466-2.5-0.483-4.584-0.05-6.25
			c0.167-0.534,0.634-1.018,1.4-1.45c0.767-0.434,1.2-0.9,1.3-1.4c0.233-1.033,0.2-2.483-0.1-4.35c-0.433-2.601-0.667-4.067-0.7-4.4
			c-0.467-11.566-0.684-18.633-0.65-21.2c0.067-8.333,0.934-15.217,2.6-20.649c0.6,9.5,1.3,16.55,2.1,21.149l-1.3-3.55L58,245.4
			l-0.1-0.351c0.3,1.134,0.167,9.467-0.4,25c0.267,14.733,2.6,21.467,7,20.2c0.533-8.2-0.184-17.066-2.15-26.6
			c-0.666-2.967-1.166-5.2-1.5-6.7l0.7,0.7c2.101,6.666,5.184,12.416,9.25,17.25c2.733-11.534,3.517-25.268,2.351-41.2
			c1.033,0.133,2.133-1.584,3.3-5.15c1-3.633,1.5-5.483,1.5-5.55c0.466-7.333,0.716-12.5,0.75-15.5
			c0.033-6.267-0.45-11.333-1.45-15.2l-2.65,6.65v22.85c0,0.667,0.033,1.717,0.101,3.15c0.033,1.233-0.05,2.267-0.25,3.1
			c-0.067,0.267-0.617,0.967-1.65,2.101c-0.899,0.933-1.217,1.666-0.95,2.199c0.367,0.733,0.768,1.184,1.2,1.351
			c-2.634,1.399-4.583,1.183-5.85-0.65c-1.034-1.5-1.483-3.684-1.351-6.55c0.801,0.667,1.7,1.6,2.7,2.8
			c1.5,1.8,2.333,2.783,2.5,2.95c1.167-3.8,1.767-8.733,1.8-14.8c0-5.3-0.399-10.351-1.199-15.15c-0.533-0.3-1.084-0.316-1.65-0.05
			c-0.2-3.467-0.167-8.033,0.1-13.7c0.334-6.967,0.5-11.533,0.5-13.7c0-7.9-0.166-13.367-0.5-16.4
			c-0.5-4.767-1.732-9.95-3.699-15.55c-3.467-0.233-4.667-4.3-3.601-12.2c0.434,0.333,1.25,1.033,2.45,2.1
			c0.967,0.867,1.783,1.533,2.45,2c1.433-2.267,2.017-6.767,1.75-13.5c-0.567-7.233-0.851-11.833-0.851-13.8
			c0.167-3.633,0.301-6.4,0.4-8.3C69.133,95.8,68.983,93.066,68.55,91z M77.25,62.3l-1.3-5.35l0.1,10.5
			C76.316,65.65,76.717,63.933,77.25,62.3z"/>
		<path style="fill-rule:evenodd;clip-rule:evenodd;fill:#35240B;" d="M51.25,371.05l-0.05,3.9l-1.05-0.15l-0.3-0.399
			C50.017,372.8,50.483,371.684,51.25,371.05z"/>
		<path style="fill-rule:evenodd;clip-rule:evenodd;fill:#35240B;" d="M60.9,362.15l-0.45-1.25c-0.067-5.167-0.05-8.667,0.05-10.5
			c0.166-3.334,0.6-5.534,1.3-6.601c0.2,2.5,0.317,5.95,0.351,10.351c0.033,5.199,0.083,8.732,0.149,10.6
			C61.666,363.75,61.2,362.883,60.9,362.15z"/>
		<path style="fill-rule:evenodd;clip-rule:evenodd;fill:#35240B;" d="M88.6,64.65c-1.467-9.8-1.684-17.917-0.649-24.35L103.7,49
			c0.3,1.633,0.383,2.6,0.25,2.9L104,67.55c0.166,3.7,0.483,9.083,0.95,16.15V138l-0.4,2.75l0.05,7.05c0,4.4-0.316,9.5-0.949,15.3
			c0.533,14.933,0.232,27.433-0.9,37.5c-0.2,1.567-0.4,3.95-0.6,7.15c0.1,3.967,0.25,7.883,0.449,11.75
			c0.367,7.267,0.584,14.934,0.65,23c0.9,12.333,1.35,21.233,1.35,26.7c0,5.267,0.15,13.267,0.45,24c0.167,9.633-0.1,17.633-0.8,24
			c0.8,4.333,2.283,10.983,4.45,19.95l0.45,1.449l0.949,4.75c0.134,4.567,0.467,9.367,1,14.4c-1.232,1.733-3.017,3.184-5.35,4.35
			c-2.9,1.167-5.084,2.051-6.55,2.65c-0.534,0.2-0.95,0.7-1.25,1.5c-0.333,0.833-0.767,1.366-1.3,1.6
			c-0.467,0.2-1.268,0.434-2.4,0.7c-1.2,0.3-2.017,0.5-2.45,0.601c-3.7,1.3-6.333,2.216-7.899,2.75
			c-4.734,1.633-10.851,2.716-18.351,3.25c1.866-2.2,4.567-5.384,8.101-9.551c2.8-3.733,4.633-7.566,5.5-11.5
			c0.633-2.967,0.783-9.05,0.449-18.25c-0.333-8,0.351-13.899,2.051-17.699c0.467,3.466,0.732,7.149,0.8,11.05
			c-1.134,7-1.217,12.116-0.25,15.35c-0.2,4.867-0.3,8.483-0.3,10.851c4.467,0.833,7.783,1.166,9.949,1
			c1.134-3.733,1.601-8.717,1.4-14.95c-0.434-6.967-0.633-12.067-0.6-15.3c-0.167,1.1-0.384,2.767-0.65,5
			c-0.3,1.966-0.8,3.55-1.5,4.75c0.1-1.134,0.017-2.417-0.25-3.851c-0.367-1.6-0.633-2.85-0.8-3.75c-0.2-1.133-0.333-2.917-0.4-5.35
			c-0.033-2.367-0.167-4.134-0.399-5.3c-0.667-3.334-2.351-7.467-5.051-12.4c-0.366-0.667-2.633-4.517-6.8-11.55
			c-3.167-5.267-4.85-8.117-5.05-8.55c-1.8-3.733-2.334-6.9-1.6-9.5c0.866,0.8,1.699,1.916,2.5,3.35c0.467,0.833,1.133,2.083,2,3.75
			c1.399-1.867,2.482-5.1,3.25-9.7c0.766-4.633,1.866-7.917,3.3-9.85c0,11.733,0.05,18.416,0.149,20.05
			c0.434,7.866,1.75,14.333,3.95,19.4c0.9-1.601,1.517-4.284,1.851-8.051c0.266-3.699,0.916-6.366,1.949-8
			c0.967,0.7,1.601,1.834,1.9,3.4c0.136,0.65,0.227,1.692,0.275,3.125c-0.025-2.976,0.066-6.884,0.274-11.725
			c0.267-6.034,0.4-10.301,0.4-12.801c0-7.333-0.25-12.983-0.75-16.949c-0.4-2.834-0.634-4.967-0.7-6.4
			c-0.133-2.5,0.117-4.6,0.75-6.3c0.6,0.866,1,1.866,1.2,3c-0.134-2.7-0.634-9.434-1.5-20.2c-0.667-8.3-1.017-15.033-1.05-20.2
			c-0.033-5.2-0.283-9.867-0.75-14c-0.5-4.667-1.367-9.283-2.601-13.85c-1.2-2.967-2.083-5.15-2.649-6.55
			c-0.967-2.467-1.2-4.767-0.7-6.9c0.133-0.434,0.466-1.15,1-2.15c0.566-1,0.917-1.767,1.05-2.3c0.1-0.367,0.217-1.833,0.35-4.4
			c0.101-1.667,0.65-2.933,1.65-3.8c0.133,0.167,0.467,0.566,1,1.2c0.434,0.467,0.733,0.9,0.9,1.3
			c0.866-9.567,1.467-20.367,1.8-32.4c0.2-8.233,0.3-19.083,0.3-32.55C91.25,83.283,90.367,76.45,88.6,64.65z"/>
		<path style="fill-rule:evenodd;clip-rule:evenodd;fill:#35240B;" d="M34.7,325.9c-0.067,0.933-0.067,4.866,0,11.8
			c0,4.767-0.367,8.666-1.101,11.7c-0.366,1.533-0.95,3.633-1.75,6.3c-0.6,2.366-0.75,4.566-0.45,6.6
			c0.333-0.3,0.933-0.616,1.8-0.95c0.899-0.333,1.5-0.616,1.8-0.85c0.167,1,0.15,2.767-0.05,5.3c-0.267,3-0.384,5.017-0.351,6.05
			c-2.1-1.199-4.35-2.883-6.75-5.05c-2.899-2.566-4.466-4.583-4.7-6.05l-1.1-0.5c0.667-0.667,1.717-1.634,3.15-2.9
			c1.267-1.133,2.133-2.199,2.6-3.199c1.233-2.434,2.184-7.134,2.85-14.101C31.25,333.616,32.6,328.9,34.7,325.9z"/>
		<path style="fill-rule:evenodd;clip-rule:evenodd;fill:#35240B;" d="M60.45,360.9l0.45,1.25c0.3,0.732,0.766,1.6,1.399,2.6
			c0.101,3.833,0.434,7.333,1,10.5h-0.1c-1.4,0.066-2.417,0.116-3.05,0.15C60.416,372.467,60.517,367.633,60.45,360.9z"/>
		<path style="fill-rule:evenodd;clip-rule:evenodd;fill:#35240B;" d="M53.2,370.3c0.033,1,0.017,2.617-0.05,4.851l-1.95-0.2
			l0.05-3.9C51.85,370.65,52.5,370.4,53.2,370.3z"/>
		<polygon style="fill-rule:evenodd;clip-rule:evenodd;fill:#35240B;" points="49.85,374.75 49.85,374.4 50.15,374.8 		"/>
		<path style="fill-rule:evenodd;clip-rule:evenodd;fill:#35240B;" d="M73.9,91.7c-1.667,0.566-2.167-0.184-1.5-2.25
			c1.033-2.233,1.566-3.417,1.6-3.55c0.533-2.133,0.934-5.15,1.2-9.05c0.333-4.733,0.616-7.867,0.85-9.4
			c0.134,7.267,0.101,13.116-0.1,17.55c-0.034,0.8-0.034,2.1,0,3.9C75.783,90.367,75.1,91.3,73.9,91.7z"/>
		<path style="fill-rule:evenodd;clip-rule:evenodd;fill:#35240B;" d="M75.95,56.95l1.3,5.35c-0.533,1.633-0.934,3.35-1.2,5.15
			L75.95,56.95z"/>
		<path style="fill-rule:evenodd;clip-rule:evenodd;fill:#35240B;" d="M73.5,113.55c-0.167-3.9-0.25-6.316-0.25-7.25l0.7-4.65
			c0,2.933,0.05,7.367,0.149,13.3c0.066,5.366,0.018,9.816-0.149,13.35c-0.034,0.867-0.083,3.167-0.15,6.9
			c-0.167,3.466-0.616,5.616-1.35,6.45c-1.167,1.3-2.55,1.717-4.15,1.25c-1.6-0.533-2.083-1.767-1.45-3.7
			c3.768-0.667,5.95-5.667,6.551-15C73.6,121.267,73.633,117.717,73.5,113.55z"/>
		<path style="fill-rule:evenodd;clip-rule:evenodd;fill:#35240B;" d="M80.9,135.6c0.467,8.533,0.383,15.833-0.25,21.9
			c-1,9.033-1.734,15.033-2.2,18c-1.134,7.133-2.617,12.867-4.45,17.2c-0.233-5.333-0.2-12.4,0.1-21.2
			c0.334-10.667,0.5-17.733,0.5-21.2l2-2.65c0.834-3.5,1.2-9.2,1.101-17.1c-0.101-7.633,0.366-13.25,1.399-16.85
			C80.1,124.833,80.7,132.133,80.9,135.6z"/>
		<path style="fill-rule:evenodd;clip-rule:evenodd;fill:#35240B;" d="M74.6,198.95l2.65-6.65c1,3.867,1.483,8.934,1.45,15.2
			c-0.034,3-0.284,8.167-0.75,15.5c0,0.066-0.5,1.917-1.5,5.55c-1.167,3.566-2.267,5.283-3.3,5.15v-0.05l-0.101,0.05
			c-0.433-0.167-0.833-0.617-1.2-1.351c-0.267-0.533,0.051-1.267,0.95-2.199c1.033-1.134,1.583-1.834,1.65-2.101
			c0.2-0.833,0.283-1.866,0.25-3.1c-0.067-1.434-0.101-2.483-0.101-3.15V198.95z"/>
		<path style="fill-rule:evenodd;clip-rule:evenodd;fill:#35240B;" d="M83,232.6c0.166-1.467,0.017-6.833-0.45-16.1
			c-0.366-6.767,0.417-11.934,2.351-15.5c0,8.767-0.184,16.767-0.551,24c-0.1,2.5,0.051,7.333,0.45,14.5
			c-0.066,6.366-1.467,10.616-4.2,12.75c-0.133-2.733,0.134-6.033,0.801-9.9C82.434,236.184,82.967,232.934,83,232.6z"/>
		<path style="fill-rule:evenodd;clip-rule:evenodd;fill:#35240B;" d="M57.9,245.05L58,245.4c0.267,5.8,1.217,9.649,2.85,11.55
			c0.334,1.5,0.834,3.733,1.5,6.7c1.967,9.533,2.684,18.399,2.15,26.6c-4.4,1.267-6.733-5.467-7-20.2
			C58.066,254.517,58.2,246.184,57.9,245.05z"/>
		<path style="fill-rule:evenodd;clip-rule:evenodd;fill:#35240B;" d="M69.95,301.65l2,2.649c0,2.7-0.017,6.75-0.05,12.15
			c-0.033,4.8,0,8.833,0.1,12.1c-1.767-3.667-2.75-8.066-2.95-13.2C68.883,311.517,69.184,306.95,69.95,301.65z"/>
		<path style="fill-rule:evenodd;clip-rule:evenodd;fill:#35240B;" d="M35.25,274.3c0,2.4,0.217,6.467,0.65,12.2
			c0.2,5.133-0.283,9.083-1.45,11.85c-2.534-1.866-3.567-6.267-3.101-13.199c1.034-7.567,1.667-12.301,1.9-14.2L35.25,274.3z"/>
		<path style="fill-rule:evenodd;clip-rule:evenodd;fill:#35240B;" d="M55.25,140.3c0,1.633,0.316,7.7,0.95,18.2
			c0.167,10-0.784,15.7-2.851,17.1c-0.5-7.833-0.75-16.483-0.75-25.95L55.25,140.3z"/>
		<path style="fill-rule:evenodd;clip-rule:evenodd;fill:#35240B;" d="M57.25,193.65l1.35-5.351c0,17.066-2.267,23.967-6.8,20.7
			c2.333-1.167,3.65-3.45,3.95-6.85C56.117,197.616,56.617,194.783,57.25,193.65z"/>
		<path style="fill-rule:evenodd;clip-rule:evenodd;fill:#35240B;" d="M31.95,206.3l2-8c-0.267,1.267-0.55,5.017-0.851,11.25
			c-0.233,4.833-1.033,8.367-2.399,10.601C30.233,215.017,30.65,210.4,31.95,206.3z"/>
		<path style="fill-rule:evenodd;clip-rule:evenodd;fill:#4D330D;" d="M79.05,108.5c0-0.934,0.067-3.283,0.2-7.05
			c0.066-1.833,0.633-5.25,1.7-10.25c0.899-4.333,1.233-7.75,1-10.25l1.3-16c-0.1,2.133,0.267,6.917,1.1,14.35
			c0.667,6.067,0.533,10.85-0.399,14.35c-0.3,1.133-0.75,2.6-1.351,4.4c-0.399,1.533-0.616,3.167-0.649,4.9
			c-0.034,1.4-0.017,3.616,0.05,6.65c-0.167,2.566-1,4.483-2.5,5.75C79.2,113.55,79.05,111.267,79.05,108.5z"/>
		<path style="fill-rule:evenodd;clip-rule:evenodd;fill:#4D330D;" d="M83.25,114.3l2-4c0,2.567-0.267,6.833-0.8,12.8
			c-0.5,5.5-0.7,9.75-0.601,12.75c-2.166-1.067-3.033-4.333-2.6-9.8C81.416,123.95,82.083,120.033,83.25,114.3z"/>
		<path style="fill-rule:evenodd;clip-rule:evenodd;fill:#4D330D;" d="M81.95,175.65l3.3-3.35c-0.033,1.033,0.25,4.867,0.85,11.5
			c0.367,6.467-0.017,10.417-1.149,11.851c-0.434,0.533-0.967,0.75-1.601,0.649c-2.666-0.5-3.982-3.85-3.949-10.05
			C79.4,180.25,80.25,176.717,81.95,175.65z"/>
		<path style="fill-rule:evenodd;clip-rule:evenodd;fill:#4D330D;" d="M86.45,279.6c-2.267-1.566-3.117-6.366-2.55-14.399
			c0.5-7.7,1.583-12.4,3.25-14.101c0.866,4.7,1.25,9.517,1.149,14.45C88.2,270.783,87.583,275.467,86.45,279.6z"/>
		<polygon style="fill-rule:evenodd;clip-rule:evenodd;fill:#4D330D;" points="73.95,301.65 74.6,302.95 74.2,303.7 		"/>
		<path style="fill-rule:evenodd;clip-rule:evenodd;fill:#4D330D;" d="M74.45,333.5c-1.4-3.367-2.15-8.384-2.25-15.05
			c-0.101-6.834,0.566-11.75,2-14.75C75.4,312.333,75.483,322.267,74.45,333.5z"/>
		<path style="fill-rule:evenodd;clip-rule:evenodd;fill:#4D330D;" d="M82.2,344.55c0.267-6.833,0.35-11.95,0.25-15.35l0.8-4.25
			l2-6.65c1.1,4,1.65,9.083,1.65,15.25c0.033,5.634-0.367,10.7-1.2,15.2C84.033,348.184,82.867,346.783,82.2,344.55z"/>
		<path style="fill-rule:evenodd;clip-rule:evenodd;fill:#4D330D;" d="M82.2,344.55c-0.967-3.233-0.884-8.35,0.25-15.35
			C82.55,332.6,82.467,337.717,82.2,344.55z"/>
		<path style="fill-rule:evenodd;clip-rule:evenodd;fill:#5E3F19;" d="M22.65,54.45L22.6,52l0.351,0.2V49l14.3-1.7
			c-0.5,3.9-1.267,7.817-2.3,11.75c-0.601,2.3-1.55,5.583-2.851,9.85c-1.767,6.333-2.883,11.467-3.35,15.4
			c-0.3,2.434-0.15,5.4,0.45,8.9c0.899,5.2,1.383,8.116,1.45,8.75c0.133,1.433,0.117,3.95-0.05,7.55c-0.166,3.233-0.1,5.733,0.2,7.5
			c1.767-2.6,2.8-5.5,3.1-8.7c-0.1,5.367-0.517,12.867-1.25,22.5c-0.767,10.3-1.233,17.733-1.4,22.3
			c-0.133,3.667-0.8,10.716-2,21.15c-1.033,8.967-1.483,16.167-1.35,21.6l2.05-7.3c0.167,3.033-0.867,6.75-3.101,11.15
			c-2.533,4.933-3.95,8.5-4.25,10.7c-0.566,4.199-0.3,9.767,0.8,16.699c1.233,8.101,1.85,13.65,1.85,16.65
			c2.566-1.5,4.367-3.65,5.4-6.45c0.133,2.333-0.183,5.533-0.95,9.601c-0.8,4.433-1.217,7.616-1.25,9.55
			c1.3-2.233,2.267-4.05,2.899-5.45c0.967-2.033,1.65-3.967,2.05-5.8c-0.4,3.5-2.183,8.366-5.35,14.6c-3,5.934-4.6,10.75-4.8,14.45
			c-0.167,3.167-0.167,7.934,0,14.3c0,2.601-0.6,7.601-1.8,15c-0.833,6.767-0.483,11.434,1.05,14c0.633,0,1.25-0.1,1.85-0.3
			c0.4,1.5,0.384,3.366-0.05,5.6c-0.133,0.834-0.5,3.283-1.1,7.351c-0.434,3.066-0.851,5.467-1.25,7.2
			c-0.601,2.732-1.634,5.55-3.101,8.449c-1.066,2.134-2.6,4.733-4.6,7.801l0.75-4.9c1.633-2.8,2.667-4.684,3.1-5.65
			c0.934-2.133,1.317-4.066,1.15-5.8l1.35-1.3l0.25-4.35l0.601-3.15l-0.2-1.2c-1.767-8.667-2.65-18.733-2.65-30.2
			c-0.066-16.566,0.167-28.883,0.7-36.949l1.35-18.301l-0.05-9.3c0-4.2-0.383-10.833-1.149-19.899c-0.7-8.5-1-15.084-0.9-19.75
			c0.1-4.533,0.6-11.95,1.5-22.25c0.8-9.467,1.2-16.867,1.2-22.2c0-2.7,0.4-6.617,1.2-11.75L23,112.85
			c-0.7-4.567-1.05-8.267-1.05-11.1c-0.034-2.167-0.067-3.8-0.101-4.9c-0.066-1.967-0.033-3.6,0.101-4.9
			c0.033-0.733,0.2-1.517,0.5-2.35c0.366-0.9,0.633-1.567,0.8-2c0-0.367-0.434-5.967-1.3-16.8C21.35,63.6,21.583,58.15,22.65,54.45z
			"/>
		<path style="fill-rule:evenodd;clip-rule:evenodd;fill:#5E3F19;" d="M42,60.7c-1.267-7.434-1.25-11.117,0.05-11.05
			c2.6,0.133,4.184,2.817,4.75,8.05c0.3,2.8,0.45,6.483,0.45,11.05c1.167,8.5,1.767,13.783,1.8,15.85
			c0.1,6.667-1.35,11.466-4.35,14.4c-0.134-2.167-0.083-6.5,0.149-13c0.2-5.5,0.067-9.833-0.399-13C43.483,68.6,42.667,64.5,42,60.7
			z"/>
		<path style="fill-rule:evenodd;clip-rule:evenodd;fill:#5E3F19;" d="M47.25,118.3c0,18.133-0.033,29.017-0.1,32.65
			c-0.233,12.233-0.867,23.05-1.9,32.45c0.066-8.867-0.167-20.117-0.7-33.75c-0.5-7.167-0.8-12.717-0.9-16.65
			c-0.2-7.033,0.333-12.383,1.6-16.05L47.25,118.3z"/>
		<path style="fill-rule:evenodd;clip-rule:evenodd;fill:#5E3F19;" d="M49.9,207.7c-2.1,0-2.533-4.717-1.3-14.15
			c0.767-5.7,1.834-11.5,3.2-17.4c0.733,7.367,1,13.517,0.8,18.45c-0.033,0.967,0.017,3.5,0.15,7.601
			C52.55,205.866,51.6,207.7,49.9,207.7z"/>
		<path style="fill-rule:evenodd;clip-rule:evenodd;fill:#5E3F19;" d="M49.925,152.5c0.033,3.325,0.225,7.058,0.575,11.2
			c0.267,2.733,0.7,6.816,1.3,12.25l-3.2,7c0-3.767,0.2-9.067,0.601-15.9C49.605,160.655,49.847,155.806,49.925,152.5z"/>
		<path style="fill-rule:evenodd;clip-rule:evenodd;fill:#5E3F19;" d="M42.3,181.35c0.033,5.767-0.083,14.083-0.35,24.95
			c-0.034,11.101-0.184,18.05-0.45,20.851c-0.733,8.732-2.583,15.149-5.55,19.25c-0.2-8.9-0.217-15.217-0.05-18.95
			c0.333-10.8,0.617-18.917,0.85-24.351c0.033-0.767,0.083-4.483,0.15-11.149c0.034-4.567,0.233-8.25,0.6-11.05
			c1.066-5.267,1.85-9.283,2.35-12.05c0.813-4.625,0.921-8.5,0.325-11.625C41.527,163.467,42.235,171.509,42.3,181.35z"/>
		<path style="fill-rule:evenodd;clip-rule:evenodd;fill:#5E3F19;" d="M48.95,218.95l1.3,0.7c1.4,7.066,1.633,16.316,0.7,27.75
			c-1.25,15.156-1.917,24.306-2,27.449V218.95z"/>
		<path style="fill-rule:evenodd;clip-rule:evenodd;fill:#5E3F19;" d="M39.25,264.3l2-6.649c0,4.566,0.117,11.399,0.35,20.5
			c0.233,9.133,0.351,15.966,0.351,20.5c0,3.732-0.017,9.649-0.05,17.75c-0.167,7-0.783,12.8-1.85,17.399
			c-1.033-9.066-1.483-20.633-1.35-34.7C39.066,283.3,39.25,271.7,39.25,264.3z"/>
		<path style="fill-rule:evenodd;clip-rule:evenodd;fill:#5E3F19;" d="M46.6,280.3c0,4.601,0.101,11.25,0.3,19.95
			c0.233,9.066,0.35,15.717,0.35,19.95c0.033,4.133-0.533,10.2-1.7,18.2c-1.133,8.1-1.717,14.133-1.75,18.1
			c-0.366-0.2-0.7-0.417-1-0.65c-0.5,1.667-1.217,3.4-2.15,5.2c-0.2-3.5-0.2-7.55,0-12.149c0.034-0.801,0.284-4.834,0.75-12.101
			c0.133-1.967,0.55-4.667,1.25-8.1c0.8-3.8,1.284-6.5,1.45-8.101c0.167-1.333,0.15-5-0.05-11c-0.167-4.699,0.233-8.25,1.2-10.649
			L46.6,280.3z"/>
		<path style="fill-rule:evenodd;clip-rule:evenodd;fill:#5E3F19;" d="M49.25,309.65l0.7-4.7c0,3.233,0.033,8.066,0.1,14.5
			c0.033,5.767-0.017,10.6-0.15,14.5c-0.033,1.899-0.083,6.017-0.15,12.35c-0.367,5.733-1.383,9.533-3.05,11.4
			c-0.5-6.8-0.4-14.817,0.3-24.05C48.033,322.983,48.783,314.983,49.25,309.65z"/>
		<path style="fill-rule:evenodd;clip-rule:evenodd;fill:#5E3F19;" d="M65.15,362.9c-1.801-0.634-2.667-4.7-2.601-12.2
			c0.467-7.967,0.7-12.55,0.7-13.75l2-6.65c0,3.601,0.083,9.033,0.25,16.3C65.6,353.167,65.483,358.6,65.15,362.9z"/>
		<path style="fill-rule:evenodd;clip-rule:evenodd;fill:#5E3F19;" d="M65.9,258.4c-1.7,0.366-3.15,0.116-4.351-0.75
			c-0.899-3-1.667-6.268-2.3-9.801l2.7,7.101c-0.034-5.567-0.067-9.75-0.101-12.55c-0.033-5,0.018-9.167,0.15-12.5
			c1.566,5,2.65,9.716,3.25,14.149C65.816,248.316,66.033,253.1,65.9,258.4z"/>
		<path style="fill-rule:evenodd;clip-rule:evenodd;fill:#5E3F19;" d="M58,245.4l-0.05-1.101l1.3,3.55
			c0.633,3.533,1.4,6.801,2.3,9.801l-0.7-0.7L58,245.4z"/>
		<path style="fill-rule:evenodd;clip-rule:evenodd;fill:#5E3F19;" d="M60.85,256.95c-1.633-1.9-2.583-5.75-2.85-11.55L60.85,256.95
			z"/>
		<path style="fill-rule:evenodd;clip-rule:evenodd;fill:#5E3F19;" d="M65.15,212.95c-0.567-6.167-0.25-10.167,0.949-12
			c0.967,3.333,1.634,6.816,2,10.45c0.334,2.966,0.5,6.482,0.5,10.55C66.9,222.25,65.75,219.25,65.15,212.95z"/>
		<path style="fill-rule:evenodd;clip-rule:evenodd;fill:#5E3F19;" d="M69.25,221.65L68.6,222.3v-0.35
			C68.867,221.883,69.083,221.783,69.25,221.65z"/>
		<path style="fill-rule:evenodd;clip-rule:evenodd;fill:#5E3F19;" d="M61.6,132.4c0.367,2.433,0.533,5.317,0.5,8.65
			c-0.033,2.167-0.199,5.2-0.5,9.1c-0.6-4.267-0.934-7.533-1-9.8C60.467,136.816,60.8,134.167,61.6,132.4z"/>
		<path style="fill-rule:evenodd;clip-rule:evenodd;fill:#5E3F19;" d="M60.95,162.55c0-2.133,0.216-6.267,0.649-12.4
			c0.601,4.5,0.917,7.217,0.95,8.15c0.167,3.467,0.533,8.717,1.101,15.75c0.266,6.1-0.15,11.3-1.25,15.6l-1.45,1.3V162.55z"/>
		<path style="fill-rule:evenodd;clip-rule:evenodd;fill:#5E3F19;" d="M59.85,77.05c1.667,7.4,2.851,13.1,3.551,17.1
			c1.066,6.2,1.683,12,1.85,17.4c0.233,5.767,0.184,9.167-0.15,10.2c-0.833,2.767-3.449,4.066-7.85,3.9l-1.3-4
			C59.583,108.95,60.883,94.083,59.85,77.05z"/>
	</g>
	<path style="fill-rule:evenodd;clip-rule:evenodd;fill:#422C06;" d="M56.6,57.65l1.351-2.7c0.633,4.466,0.933,10,0.899,16.6
		c0,3.767-0.083,9.35-0.25,16.75c0,2.5-0.149,5.3-0.45,8.4c-0.167,1.833-0.466,4.6-0.9,8.3c-0.367,3.233-0.816,5.15-1.35,5.75
		c-0.8,0.867-2.75,0.933-5.85,0.2c-0.233-0.6-0.366-1.083-0.4-1.45c-0.033-0.367,0.034-0.867,0.2-1.5
		c3.233,0.967,5.317-1.184,6.25-6.45c0.334-1.967,0.5-5.65,0.5-11.05V57.65z"/>
	<path style="fill-rule:evenodd;clip-rule:evenodd;fill:#422C06;" d="M55.625,133.8c0.228,6.251,0.553,13.468,0.975,21.65
		c0.934,17.267,1.384,30.267,1.351,39c0,1,0.167,3.733,0.5,8.2c0.133,4.166-0.25,6.716-1.15,7.649c-0.9,1-1.783,1.351-2.65,1.05
		c-0.867-0.3-1.5-1.149-1.9-2.55c-0.333-1.066-0.1-2.267,0.7-3.6c1.1-1.8,1.716-2.95,1.85-3.45c0.733-2.767,0.867-6.566,0.4-11.4
		c-0.267-2.4-0.851-6.133-1.75-11.2c-1.467-7.867-2.117-15.65-1.95-23.35C52.191,147.234,53.399,139.901,55.625,133.8
		c-0.25-7.068-0.375-12.901-0.375-17.5l0.7,16.65C55.841,133.23,55.732,133.514,55.625,133.8z"/>
	<path style="fill-rule:evenodd;clip-rule:evenodd;fill:#422C06;" d="M45.25,175.65c0,9.033,0.1,21.617,0.3,37.75
		c0.233,17.732,0.367,30.333,0.4,37.8c0,2.233-0.4,5.017-1.2,8.35c-0.867,3.7-1.367,6.434-1.5,8.2
		c-0.233,3.566-0.167,8.55,0.2,14.95c0.433,6.967,0.6,11.933,0.5,14.899c0.033-2.366-0.233-5.583-0.8-9.649
		c-0.7-4.967-1.1-8.2-1.2-9.7c-0.067-0.9-0.367-3-0.9-6.3c-0.4-2.5-0.517-4.601-0.35-6.3c0.1-1.167,0.483-2.733,1.149-4.7
		c0.733-2.134,1.167-3.667,1.3-4.601c0.7-4.566,0.833-10.433,0.4-17.6c-0.633-10.367-0.95-16.3-0.95-17.8L45.25,175.65z"/>
	<path style="fill-rule:evenodd;clip-rule:evenodd;fill:#422C06;" d="M40.25,65.5c0.934-1.633,1.483-2.917,1.65-3.85
		c0.133-0.633,0.183-1.717,0.15-3.25c0-1.367,0.134-2.4,0.4-3.1c0.033,3.167,0.3,8.2,0.8,15.1c0.5,6.7,0.733,11.817,0.7,15.35
		c-0.101,11.433-0.184,17.9-0.25,19.4c-0.333,8.033-1.15,14.4-2.45,19.1c0.033-3.1-0.316-6.967-1.05-11.6
		c-0.967-5.833-1.517-9.617-1.65-11.35c-0.167-2.333,0.017-5.517,0.55-9.55c0.601-4.5,0.9-7.684,0.9-9.55
		c0-1.1-0.283-3.25-0.85-6.45c-0.533-2.8-0.683-4.95-0.45-6.45C38.833,68.4,39.35,67.133,40.25,65.5z"/>
	<path style="fill-rule:evenodd;clip-rule:evenodd;fill:#422C06;" d="M40.6,136.95l2.175-10.975
		c-0.435,3.075-0.376,6.833,0.175,11.275c0.8,6.833,1.133,11.35,1,13.55c-0.2,2.833-0.717,5.833-1.55,9
		c-0.466,1.8-1.35,4.733-2.65,8.8c-0.667-4.133-0.733-9.367-0.2-15.7C40.25,144.2,40.6,138.883,40.6,136.95z"/>
	<path style="fill-rule:evenodd;clip-rule:evenodd;fill:#422C06;" d="M30.9,208.3c0.867-3.7,1.534-6.616,2-8.75
		c0.4-1.767,0.567-5.033,0.5-9.8c-0.1-4.233,0.25-7.383,1.05-9.45l0.5-26.65v47.85c0,9.267-0.184,15.866-0.55,19.8
		c-0.667,7.7-2.2,14.033-4.6,19c-0.133-3.167-0.167-7.017-0.1-11.55c0.1-5.167,0.167-9.033,0.2-11.6
		C29.934,214.383,30.267,211.434,30.9,208.3z"/>
</g>
</svg>
