<?xml version="1.0" encoding="iso-8859-1"?>
<!-- Generator: Adobe Illustrator 15.1.0, SVG Export Plug-In . SVG Version: 6.00 Build 0)  -->
<!DOCTYPE svg PUBLIC "-//W3C//DTD SVG 1.1//EN" "http://www.w3.org/Graphics/SVG/1.1/DTD/svg11.dtd">
<svg version="1.1" id="FlashAICB" xmlns="http://www.w3.org/2000/svg" xmlns:xlink="http://www.w3.org/1999/xlink" x="0px" y="0px"
	 width="34.05px" height="205.35px" viewBox="0 0 34.05 205.35" style="enable-background:new 0 0 34.05 205.35;"
	 xml:space="preserve">
<g>
	<g>
		<path style="fill-rule:evenodd;clip-rule:evenodd;fill:#4B330F;" d="M9.5,36.2c1.7-3.233,2.633-5.633,2.8-7.2
			c0.267-2.367-0.033-7.2-0.9-14.5c-0.733-6.167-0.5-10.933,0.7-14.3c0.7,3.3,2.267,7.933,4.7,13.9
			c2.5,6.233,4.117,10.867,4.851,13.9c1.066,4.367,1.85,10.317,2.35,17.85c0.133,1.933,0.566,5.6,1.3,11
			c0.567,4.533,0.884,8.25,0.95,11.15l0.5,19.65c0.1,4.467,0.25,11.2,0.45,20.2c-0.101,7.733-0.967,14.4-2.601,20
			c-0.5,1.634-1.183,3.483-2.05,5.551c-0.5,1.233-1.283,3.066-2.35,5.5c-0.434,0.966-0.817,2.216-1.15,3.75
			c-0.433,1.8-0.783,3.066-1.05,3.8c-0.4,1.166-1.8,3.783-4.2,7.85c-1.9,3.233-2.917,5.95-3.05,8.15
			c-0.733-1.3-1.25-3.25-1.55-5.851c-0.333-3.033-0.667-5.033-1-6c-0.567-1.699-1.117-3.783-1.65-6.25
			c-0.566-2.8-1.017-4.916-1.35-6.35c-2.434-11.033-3.767-21.283-4-30.75c-0.3-11.533,0.133-21.533,1.3-30
			c0.267-1.933,1.033-4.85,2.3-8.75c1.233-3.867,1.983-6.833,2.25-8.9c0.3-2.2,0.4-4.883,0.3-8.05c-0.133-3.566-0.2-6.25-0.2-8.05
			C7.15,41.667,7.934,39.233,9.5,36.2z"/>
		<path style="fill-rule:evenodd;clip-rule:evenodd;fill:#5C3F1A;" d="M11.1,0l1.5,1v0.6c-0.133,2.1,0.583,6.75,2.15,13.95
			c1.267,5.867,1.217,10.333-0.15,13.4c-1.934,4.333-3.4,8.767-4.4,13.3C9.467,45.45,8.733,50.067,8,56.1
			c-3.133,24.833-4.434,49.367-3.9,73.6c-0.034-0.3-0.167-0.584-0.4-0.851c-0.9-0.267-1.75-1.816-2.55-4.649
			c-0.567-2.2-0.917-4.15-1.05-5.851c-0.1-1.1-0.133-2.483-0.1-4.149c0.066-1.867,0.1-3.267,0.1-4.2c0-6.667,0.167-11.333,0.5-14
			c0.167-1.433,0.45-6.65,0.85-15.65c0.3-6.434,1.05-11.567,2.25-15.4C4.6,62.183,5,58.567,4.9,54.1
			c-0.1-5.667-0.05-9.35,0.15-11.05c0.267-1.9,1.267-4.367,3-7.4c1.767-3.033,2.767-5.433,3-7.2c0.267-1.7,0.267-3.934,0-6.7
			c-0.3-3.633-0.45-5.883-0.45-6.75c0-1.767,0.083-4.267,0.25-7.5C11.017,4.1,11.1,1.6,11.1,0z"/>
		<path style="fill-rule:evenodd;clip-rule:evenodd;fill:#5C3F1A;" d="M19.5,47.1c0.9,6.2,1.383,9.533,1.45,10
			c0.366,3.033,0.933,7.55,1.7,13.55c0.633,5.267,0.949,9.8,0.949,13.6c0,3.833,0.217,9.7,0.65,17.6
			c0.066,6.933-0.7,12.667-2.3,17.2c-2.767,7.767-7.233,15.983-13.4,24.65c0.533-4.033,2.367-10.283,5.5-18.75
			c2.967-8.033,4.634-14.4,5-19.101c0.367-4.2,0.567-9.183,0.601-14.95C19.617,84.2,19.6,79.183,19.6,75.85
			c0.268-6.633,0.4-11.667,0.4-15.1c0-6.033-0.633-10.95-1.9-14.75l0.5-9C18.6,39.7,18.9,43.067,19.5,47.1z"/>
		<path style="fill-rule:evenodd;clip-rule:evenodd;fill:#402C08;" d="M21.85,37.3c0.533,2.167,0.917,3.967,1.15,5.4
			c0.467,3.1,1.517,7.2,3.15,12.3c1.833,5.7,3,9.767,3.5,12.2c2.3,10.867,3.449,23.033,3.449,36.5c0,11.866-0.166,19.717-0.5,23.55
			c-0.732,8.833-2.566,16.366-5.5,22.6c-0.566,1.167-1.449,2.801-2.649,4.9c-0.967,1.833-1.583,3.533-1.851,5.1
			c-1.066,6.134-1.732,10.25-2,12.351c-0.033-1.4-0.25-3-0.649-4.8c-0.533-2.4-1.15-3.7-1.851-3.9c-1.133-0.267-1.95,0.533-2.45,2.4
			c-0.233,0.767-0.433,2.133-0.6,4.1c-0.267,4.033-0.566,9.983-0.9,17.85c-0.533,6.767-1.733,12.601-3.6,17.5
			c0.067-2.899-0.083-10.699-0.45-23.399c-0.3-9.7-0.117-17.483,0.55-23.351c0.333-2.899,1.233-5.783,2.7-8.649
			c1.9-3.3,3.333-6,4.3-8.101c0.399-0.833,0.383-0.983-0.051-0.449c-0.833,1.066-1.533,1.949-2.1,2.649
			c-2.533,3.033-4.066,3.617-4.6,1.75c-1,0.9-0.45-0.55,1.65-4.35c2.333-4.233,2.75-5.95,1.25-5.15c0.467-3.633,1.8-9.116,4-16.45
			c2.167-7.166,3.467-12.683,3.9-16.55c0.366-3.233,0.55-7.117,0.55-11.65c-0.066-5.233-0.117-9.133-0.15-11.7
			c-0.033-1.767-0.267-4.117-0.699-7.05c-0.467-3.4-0.75-5.75-0.851-7.05c-0.133-1.7-0.133-4.417,0-8.15
			c0.134-3.567,0.101-6.284-0.1-8.15c-0.2-0.066-0.333,0.017-0.4,0.25c-0.1-1.3-0.05-3.2,0.15-5.7c0.233-2.6,0.316-4.517,0.25-5.75
			c0-2.595-0.009-4.795-0.025-6.6c0.008,0.055,0.017,0.105,0.025,0.15C20.517,32.167,20.983,33.967,21.85,37.3z M20.425,31.75
			C20.297,31,20.155,29.35,20,26.8c-0.12-2.099-0.345-3.607-0.675-4.525c0.622,1.627,0.98,4.185,1.075,7.675
			C20.409,30.499,20.417,31.099,20.425,31.75z"/>
		<path style="fill-rule:evenodd;clip-rule:evenodd;fill:#34240C;" d="M26.35,88.35c-0.333-2.167-0.433-4.783-0.3-7.85
			c0.2-5.133,0.3-7.75,0.3-7.85c0-1.433-0.533-5.667-1.6-12.7c-0.934-6.034-1.184-9.517-0.75-10.45
			c-0.033,3.233,0.883,7.4,2.75,12.5c2,5.6,3.117,9.633,3.35,12.1c0.301,3.4,0.467,7.467,0.5,12.2c0.033,2.733,0.033,6.8,0,12.2
			c-0.033,6.066-0.316,10.783-0.85,14.15c-0.767,4.733-2.283,9.216-4.55,13.449c-0.333,0.634-3.167,5.317-8.5,14.051
			c-3.434,5.633-5.817,10.55-7.15,14.75c-0.4-4.034,0.25-8,1.95-11.9c1.367-3.1,3.6-6.566,6.7-10.4c6-7.399,8.783-17.517,8.35-30.35
			c0-0.367,0.033-2.7,0.101-7C26.684,92.283,26.583,89.983,26.35,88.35z"/>
		<path style="fill-rule:evenodd;clip-rule:evenodd;fill:#34240C;" d="M14.1,51c-0.567,1-0.483,2.5,0.25,4.5
			c0.4,1.1,1.017,2.617,1.85,4.55c0.967,2.934,1.55,6.034,1.75,9.3c0.233,3.433,0.25,7.8,0.05,13.1
			c-0.267,8.367-0.4,12.75-0.4,13.15c-0.066,2.867-0.816,6.45-2.25,10.75c-1.767,5.301-2.817,8.851-3.15,10.65
			c-0.3,1.566-0.9,3.4-1.8,5.5c-0.688,1.625-1.171,3.675-1.45,6.15c1.05-11.094,1.034-19.761-0.05-26
			c-1.333-7.5-1.883-14.333-1.65-20.5c0.1-2.667,0.767-5.85,2-9.55c1.267-3.867,2.05-8.35,2.35-13.45
			c0.133-2.5,0.517-5.85,1.15-10.05c0.566-3.6,0.85-6.967,0.85-10.1L14.1,51z"/>
		<path style="fill-rule:evenodd;clip-rule:evenodd;fill:#402C08;" d="M11.55,59.4c1.2,0.733,1.85,2.05,1.95,3.95
			c0.066,1.4-0.184,3-0.75,4.8c-0.5,1.667-1.383,4.1-2.65,7.3c-1.034,2.867-1.534,5.367-1.5,7.5c0,3.1,0.033,5.167,0.1,6.2
			c0.1,2.233,0.383,4.267,0.85,6.1c1.333,5.067,2.017,9.233,2.05,12.5c0,0.866-0.133,1.95-0.4,3.25c-0.333,1.6-0.534,2.684-0.6,3.25
			c-0.133,1.134-0.417,2.233-0.85,3.3c0.2-5.833-0.217-11.55-1.25-17.15c-1.066-5.633-1.483-11.717-1.25-18.25
			c0.1-2.667,0.75-5.833,1.95-9.5C10.467,68.817,11.25,64.4,11.55,59.4z"/>
		<path style="fill-rule:evenodd;clip-rule:evenodd;fill:#34240C;" d="M23.85,131.75l3.5-5.75c0.033,0.667-0.066,1.566-0.3,2.7
			c-0.3,1.366-0.467,2.267-0.5,2.7v3.05c-0.033,1.233-0.133,2.233-0.3,3c-0.6,2.8-2.5,6.533-5.7,11.2
			c-3.267,4.767-5.25,8.5-5.95,11.199c-0.2-3.5-0.067-6.633,0.4-9.399c0.533-3.033,1.55-5.967,3.05-8.8c0.5-0.9,1.333-2.65,2.5-5.25
			C21.684,134.134,22.783,132.583,23.85,131.75z"/>
		<path style="fill-rule:evenodd;clip-rule:evenodd;fill:#34240C;" d="M31.6,73.25l0.25,1.25c0.134,0.633,0.467,1.583,1,2.85
			c0.533,1.233,0.867,2.217,1,2.95c0.167,0.967,0.217,2.25,0.15,3.85c-0.033,0.867-0.083,2.15-0.15,3.85c0,1.9,0.051,4.933,0.15,9.1
			c-0.167,3.633-0.883,6.534-2.15,8.7c-0.133-1.767-0.1-4.2,0.101-7.3c0.233-3.6,0.35-6.05,0.35-7.35c0-2-0.116-4.983-0.35-8.95
			C31.717,78.2,31.6,75.217,31.6,73.25z"/>
		<path style="fill-rule:evenodd;clip-rule:evenodd;fill:#34240C;" d="M32.6,116.5l0.25,1.25c-0.267,0.533-0.449,1.434-0.55,2.7
			c-0.1,1.2-0.35,2.133-0.75,2.8c-0.566,0.934-1.383,2-2.45,3.2c-1.232,1.333-2.149,2.333-2.75,3c0.967-2.8,2.033-5.05,3.2-6.75
			c0.434-0.667,1.101-1.634,2-2.9C32.25,118.667,32.6,117.566,32.6,116.5z"/>
	</g>
</g>
</svg>
