<?xml version="1.0" encoding="iso-8859-1"?>
<!-- Generator: Adobe Illustrator 15.1.0, SVG Export Plug-In . SVG Version: 6.00 Build 0)  -->
<!DOCTYPE svg PUBLIC "-//W3C//DTD SVG 1.1//EN" "http://www.w3.org/Graphics/SVG/1.1/DTD/svg11.dtd">
<svg version="1.1" id="FlashAICB" xmlns="http://www.w3.org/2000/svg" xmlns:xlink="http://www.w3.org/1999/xlink" x="0px" y="0px"
	 width="596.05px" height="184.2px" viewBox="0 0 596.05 184.2" style="enable-background:new 0 0 596.05 184.2;"
	 xml:space="preserve">
<g>
	<path style="fill-rule:evenodd;clip-rule:evenodd;fill:#34240C;" d="M270.05,38c5.4,4.9,8.934,9.233,10.6,13
		c1.6,3.567,2.217,8.65,1.85,15.25c-0.4,7.067-1.9,11.633-4.5,13.7c-1.233-1.667-2.033-4.017-2.4-7.05
		c-0.6-4.767-0.934-7.283-1-7.55c-0.667,2.167-1.367,6.45-2.1,12.85c-0.667,5.733-1.55,9.867-2.65,12.4
		c-1.034-1.333-1.583-3.05-1.65-5.15c-0.067-2.9-0.217-4.733-0.45-5.5c-1.566-5.567-5.167-13.034-10.8-22.4c0,0.267,0,2.65,0,7.15
		c0,2.833-0.267,5.15-0.8,6.95c-0.933-2.1-2.55-5.033-4.85-8.8c-2.4-3.867-4.033-6.75-4.9-8.65h-1.45c0.1,0.533,0.05,1.5-0.15,2.9
		c-0.2,1.333-0.233,2.283-0.1,2.85c-2.4,0.1-4.717-1.2-6.95-3.9c-2.2-2.667-4.133-3.966-5.8-3.9c-0.1,1.467-0.534,5.017-1.3,10.65
		c-0.6,4.367-0.867,7.9-0.8,10.6c-1.233-2.4-2.083-5.15-2.55-8.25c-0.3-2.033-0.5-4.967-0.6-8.8c-1.367,1.3-3.667,4.683-6.9,10.15
		c-2.7,4.6-5.35,7.55-7.95,8.85c0.433-1.833,1.617-4.467,3.55-7.9c1.933-3.4,3.117-6.067,3.55-8c-1.367,3.667-4.267,6.983-8.7,9.95
		c-3.767,2.5-7.833,4.333-12.2,5.5c0.434-2.967,1.5-6.517,3.2-10.65c2.133-4.667,3.667-8.067,4.6-10.2l19-20
		c1.133-0.033,2.95-0.1,5.45-0.2c2.267-0.067,4.2-0.05,5.8,0.05c-1.867-4.566-2.617-8.85-2.25-12.85l23,7
		C261.083,30.517,265.483,33.833,270.05,38z"/>
	<g>
		<path style="fill-rule:evenodd;clip-rule:evenodd;fill:#28390B;" d="M579.4,142.4c-8.2-0.267-14.367-0.25-18.5,0.05
			c3.133,3.6,8.983,7.05,17.55,10.35c8.866,3.4,14.733,6.566,17.6,9.5c-1.899,0.101-4.25,0.134-7.05,0.101
			c-3.167-0.034-5.533-0.051-7.1-0.051c-2.367,0-5.65-0.649-9.851-1.949c-4.267-1.367-7.467-2.067-9.6-2.101
			c0.333,2.267,1.25,4.483,2.75,6.65c1.6,2.333,3.399,3.899,5.399,4.7c-1.767,0.1-4.199-0.117-7.3-0.65
			c-3.399-0.6-5.783-1.283-7.149-2.05c-1.267-0.733-2.567-2.033-3.9-3.9c-1.8-2.566-2.917-4.066-3.35-4.5
			c-4.334-4.434-9.134-7.583-14.4-9.45c1.767,2.834,3.434,7.084,5,12.75c-1.8,0.2-3.717-0.383-5.75-1.75
			c-2.267-1.767-3.95-3.066-5.05-3.899c-4.566-3.334-7.95-5.634-10.15-6.9c-4.434-2.5-8.25-3.7-11.45-3.6
			c0.301,1.899,1.467,4.166,3.5,6.8c2.5,3.233,4,5.417,4.5,6.55c2.567,5.601,4.551,10.884,5.95,15.851
			c-2.866-2.601-6.7-4.801-11.5-6.601c-0.033,1.033,0.283,2.316,0.95,3.851c0.366,0.833,0.917,2.05,1.65,3.649
			c-2.5,1.233-6.767,0.65-12.801-1.75c-6.5-3-10.633-4.899-12.399-5.7c-11.167-5.066-20.167-12.017-27-20.85
			c1.5,4.6,3.783,11.467,6.85,20.6c0.334,1.034,1.267,3.584,2.8,7.65c1.267,3.934,1.634,6.75,1.101,8.45
			c-6.233-0.434-12.066-2.834-17.5-7.2c-3.566-2.9-7.9-7.634-13-14.2c-0.2,4.566-0.184,9.517,0.05,14.851
			c-0.8-1.2-2.467-5.101-5-11.7c-2.1-5.467-4.083-8.816-5.95-10.05c-1.2,2.267-1.85,5.949-1.95,11.05
			c-0.066,5.3-0.566,9.017-1.5,11.149c-1.033-2.133-1.666-5-1.899-8.6c-0.233-4.533-0.517-7.467-0.851-8.8
			c-1.1-4.733-4.399-9.917-9.899-15.55c-6.533-6-11.084-10.367-13.65-13.101c-0.666,5.066,0.101,11.851,2.3,20.351
			c2.434,9.466,3.65,16.1,3.65,19.899c-3.2-0.333-6.9-2.05-11.1-5.149c-2.634-1.934-5.733-4.667-9.301-8.2
			c-3.699-3.667-6.883-8.134-9.55-13.4c-1.733-3.5-3.767-8.566-6.1-15.2c-1.8,1.101-2.967,4.334-3.5,9.7
			c-0.667,6.601-1.233,10.434-1.7,11.5c0.1-2.633,0.05-4.566-0.15-5.8c-0.199-1.2-0.633-3.017-1.3-5.45
			c-0.7-2.467-1.149-4.3-1.35-5.5c-0.066-0.3-0.033-0.916,0.1-1.85c0.134-0.9,0.15-1.517,0.05-1.851
			c-1.066-3.399-4.083-7.183-9.05-11.35c-5.767-4.366-9.7-7.45-11.8-9.25c-3.233-2.8-5.85-5.783-7.85-8.95
			c-2.067-3.267-3.634-6.967-4.7-11.1c-0.033,1.6-0.033,4.783,0,9.55c0.033,4-0.033,7.184-0.2,9.55
			c-3.434-4.366-5.967-7.649-7.6-9.85c-2.9-3.867-4.733-7.583-5.5-11.15c0,1.167-0.134,3.117-0.4,5.851
			c-0.3,2.466-0.4,4.399-0.3,5.8c-0.934-2.5-2.733-5.634-5.4-9.4c-3.3-4.4-5.767-7.733-7.399-10c-5.967-8.4-8.384-15.216-7.25-20.45
			l-5.3-20.65c0.566-1.167,2.033-1.934,4.4-2.3c2.5-0.4,4.117-1.117,4.85-2.15c0.567-0.8,0.867-2,0.9-3.6
			c0-0.033-0.05-1.333-0.15-3.9c-0.699-4.633-1.05-7.867-1.05-9.7c0.067-3,1.601-4.9,4.601-5.7c4.366-1.167,9.649-1.25,15.85-0.25
			c4.833,0.8,9.967,2.217,15.4,4.25c3.267,1.2,8.75,2.9,16.449,5.1c6.867,2.2,12.034,4.483,15.5,6.85
			c-2.366,0.133-6.75,0.017-13.149-0.35c-5.566-0.3-9.934-0.25-13.101,0.15c1.534,1.367,3.467,3.267,5.801,5.7
			c2.133,2,4.416,3.534,6.85,4.6c12.366,5.5,22.15,8.617,29.35,9.35c4.385,0.428,9.41,0.753,15.075,0.975
			c1.606-0.126,3.364-0.168,5.275-0.125c2.5,0.066,6.166,0.217,11,0.45c-5.909-0.031-11.334-0.139-16.275-0.325
			c-2.133,0.159-3.991,0.467-5.575,0.925c1.467,1.133,3.551,2.184,6.25,3.15c0.9,0.3,3.184,1,6.851,2.1
			c-1.8,0.1-4.55,0.133-8.25,0.1s-6.467,0-8.3,0.1c7.267,5.333,15.267,10.1,24,14.3c8.866,4.267,17.55,7.5,26.05,9.7
			c-2.467-0.033-8.733-0.983-18.8-2.85c-8-1.5-13.934-1.7-17.801-0.6c1.534,0.8,5.217,2.517,11.051,5.15
			c4.533,2.1,8.149,3.967,10.85,5.6c1.033,0.633,2.983,2.033,5.85,4.2c2.534,1.933,4.534,3.266,6,4
			c1.167,0.567,2.084,0.95,2.75,1.15c0.7,0.2,1.667,0.4,2.9,0.6c2.767,0.467,6.483,0.784,11.15,0.95c6.1,0.2,9.85,0.351,11.25,0.45
			c1.366,0.1,7.066,0.85,17.1,2.25c6.9,0.934,12.634,1.267,17.2,1c-3.434,0.8-7.434,1.316-12,1.55
			c-5.434,0.167-9.65,0.316-12.65,0.45c0.667,0.167,8.3,2.066,22.9,5.7c9.166,2.3,16.85,3.967,23.05,5
			c-4.833,1.666-11.434,2.316-19.8,1.95c-11.533-0.5-18.267-0.684-20.2-0.551c2.3,1.767,5.217,2.867,8.75,3.301
			c2.033,0.233,5.2,0.466,9.5,0.699c3.934,0.467,8.467,1.551,13.6,3.25c0.733,0.267,5.101,1.867,13.101,4.801
			C539.7,133.15,558.434,138.233,579.4,142.4z"/>
	</g>
	<g>
		<path style="fill-rule:evenodd;clip-rule:evenodd;fill:#4C6D1A;" d="M292.725,65.175c-1.504-5.816-3.279-9.575-5.325-11.275
			C287.794,57.055,289.569,60.813,292.725,65.175z M566.7,144.2c2.633,2.566,4.517,4.6,5.649,6.1c2.134,2.767,3.167,5.25,3.101,7.45
			c-3.3,0.6-8.283-1.134-14.95-5.2c-8.934-5.467-13.816-8.366-14.65-8.7c-7.633-2.966-14.883-5.166-21.75-6.6
			c-9.566-2-17-2.167-22.3-0.5c2.434,2.2,5.617,4.7,9.55,7.5c2.267,1.566,5.667,3.917,10.2,7.05
			c8.2,5.834,13.983,11.55,17.351,17.15c-1.367-0.267-3.15-1.384-5.351-3.351c-2.899-2.566-4.55-3.983-4.95-4.25
			c-10-6.6-20.883-10.616-32.649-12.05c1.133,1.867,2.866,4,5.2,6.4c1.333,1.333,3.366,3.333,6.1,6
			c4.866,5.033,7.384,9.866,7.55,14.5c-0.666-0.4-3-1.983-7-4.75c-2.934-2.033-5.416-3.5-7.45-4.4c-2.833-1.233-8-3.184-15.5-5.85
			c-6.533-2.334-11.649-4.417-15.35-6.25c1.533,1.566,4.767,5.767,9.7,12.6c3.866,5.367,7.533,9.2,11,11.5
			c-4.967-0.1-10.684-1.649-17.15-4.649c-6.3-2.934-11.267-6.267-14.899-10c-1.367-1.4-3-3.5-4.9-6.301
			c-2.3-3.399-3.85-5.6-4.65-6.6c-2.633-3.033-4.566-5.366-5.8-7c-2.1-2.833-3.483-5.5-4.149-8c0.3,3.5,0.733,7.684,1.3,12.55
			c0.333,2.767,0.85,6.917,1.55,12.45c-6.233-5.333-10.9-9.634-14-12.9c-4.866-5.199-8.467-10.35-10.8-15.449
			c0.366,4.166,0.967,10.433,1.8,18.8c0.7,7.434,1.05,13.733,1.05,18.899c-1.066-2.399-3.25-7.033-6.55-13.899
			c-2.8-5.8-4.934-10.467-6.4-14c-4.366-9-7.633-15.834-9.8-20.5c-3.899-8.334-6.116-15.5-6.649-21.5
			c-1.9,6.533-2.75,14.934-2.551,25.2c0.134,5.866,0.584,14.366,1.351,25.5c-5.967-3.967-11.7-9.417-17.2-16.351
			c-5.902-7.547-9.353-14.313-10.35-20.3c0.41,3.092,0.943,7.575,1.6,13.45c0.7,5.566,1.517,10.217,2.45,13.95
			c0.233,0.866,0.983,3.066,2.25,6.6c1,2.7,1.566,4.833,1.7,6.4c-8.967-10.067-14.317-16.317-16.051-18.75
			c-6.133-8.634-8.75-16.134-7.85-22.5c-1.3,5.5-2,11.35-2.1,17.55c-4.634-9.733-7.051-19.167-7.25-28.3
			c-0.067-3.434-0.851-6.95-2.351-10.55c-0.8-1.867-2.5-5.15-5.1-9.85c0.1,1.2,0.133,2.933,0.1,5.2c0,2.4,0.033,4.133,0.101,5.2
			c-1.233-2.667-4.817-6.383-10.75-11.15c-4.896-3.899-7.946-7.657-9.15-11.275c0.742,2.647,1.709,6.222,2.9,10.725
			c1.399,4.3,3.283,7.883,5.649,10.75c-2.833-1.967-5.75-4.534-8.75-7.7c-2.033-2.1-4.6-5.05-7.7-8.85
			c-3.666-4.2-6.416-7.55-8.25-10.05c-0.045-0.062-0.087-0.121-0.125-0.175c0.229,0.904,0.454,1.863,0.675,2.875
			c0.167,0.767,1.067,6.034,2.7,15.8c0.7,4.233,1.183,10.2,1.45,17.9c-1.133-2.066-2.7-4.767-4.7-8.1c-2.567-4.2-4.2-6.917-4.9-8.15
			c-1.634-2.833-3.583-7.067-5.85-12.7c-2.434-5.933-4.35-10.2-5.75-12.8c-1.967-3.667-4.7-7.383-8.2-11.15
			c-2.6-2.8-6-5.983-10.2-9.55c-1.833-1.533-4.434-3.15-7.8-4.85c-4.9-2.5-7.633-3.9-8.2-4.2c-6.134-3.6-9.4-8.367-9.8-14.3
			c1.5,0.9,3.717,2.283,6.65,4.15c2.6,1.533,4.95,2.667,7.05,3.4c-0.667-0.6-1.867-2.35-3.6-5.25
			c-1.934-3.233-2.283-4.717-1.05-4.45c0.767,0.167,3.216,0.95,7.35,2.35c2.967,1,5.483,1.417,7.55,1.25
			c-2.067-1.733-4.633-3.25-7.7-4.55c4.867-1.333,10.833-1.917,17.9-1.75c4,0.066,10.017,0.267,18.05,0.6
			c-7.167-5.934-13.333-9.784-18.5-11.55c6.1,0.667,15.133,1.333,27.1,2c10.667,0.8,19.633,2.133,26.899,4
			c4.134,1.067,10.684,2.6,19.65,4.6c7.967,1.933,14.333,4.017,19.1,6.25c-3.433,0.1-9.566,0.05-18.399-0.15
			c-7.8-0.2-13.934-0.15-18.4,0.15c4.8,3.4,10.783,6.517,17.95,9.35c2.7,1.066,9.083,3.283,19.15,6.65c3.133,1.033,7.8,2.65,14,4.85
			c5.5,1.833,10.283,3.066,14.35,3.7c2.833,0.467,7,0.817,12.5,1.05c5.634,0.233,9.783,0.55,12.45,0.95
			c-7.834,1.567-18.351,2.733-31.55,3.5c1.199,0.167,2.649,0.8,4.35,1.9c0.967,0.633,2.366,1.55,4.2,2.75
			c3.833,2.167,10.6,5.466,20.3,9.9c8.833,4.033,15.5,7.433,20,10.2c-10.866-1.933-17.384-3.133-19.55-3.6
			c-7.566-1.667-13.884-3.583-18.95-5.75c0.2,1.267,0.6,2.3,1.2,3.1c0.566,0.767,2.399,1.817,5.5,3.15
			c1.566,0.667,3.316,1.367,5.25,2.1c5.899,2.833,11.883,5.6,17.95,8.3c3.933,1.7,10.017,4.417,18.25,8.15
			c7.267,3.033,13.6,4.933,19,5.7c4.6,0.633,10.416,1.1,17.449,1.399c10.9,0.467,16.733,0.717,17.5,0.75
			c-1.466,1.667-3.683,2.7-6.649,3.101c-0.634,0.066-3.15,0.149-7.55,0.25c-3.767,0.066-8.434,0.083-14,0.05
			c-5.736-0.062-10.161-0.104-13.275-0.125c3.677,0.15,7.719,0.975,12.125,2.475c2.467,0.834,6.616,2.517,12.45,5.051
			c8.786,3.823,16.02,5.974,21.7,6.449c-6.013-0.112-12.663-0.278-19.95-0.5c-3-0.267-5.367-0.433-7.101-0.5
			c-3.166-0.1-5.433,0.233-6.8,1c1.2,1.534,3.667,2.884,7.4,4.051c2.033,0.633,4.684,1.3,7.95,2c7.866,2.1,15.633,3.666,23.3,4.699
			c12.6,1.733,23.85,3.534,33.75,5.4C548.217,130.733,558.3,135.967,566.7,144.2z"/>
		<path style="fill-rule:evenodd;clip-rule:evenodd;fill:#5F821D;" d="M270.05,42.2c2.567,2.3,5.667,5.417,9.3,9.35
			c2.633,2.867,4.8,6.467,6.5,10.8c1.167,3.033,2.316,7.15,3.45,12.35c0.533,2.333,1.517,5.833,2.95,10.5
			c1,4.167,1.017,7.767,0.05,10.8c-0.467-1.3-1-3.6-1.6-6.9c-0.534-3-1.167-5.317-1.9-6.95c-5.033-11.6-10.3-20.183-15.8-25.75
			c-1.333-1.333-3.3-2.583-5.9-3.75c-3.467-1.6-5.55-2.617-6.25-3.05c-1.667-1.033-3.583-2.483-5.75-4.35
			c-2.434-2.133-4.25-3.717-5.45-4.75c-4.433-3.7-7.383-6.367-8.85-8c-3.667-3.967-5.217-7.35-4.65-10.15l1.35-0.65
			c0.934,0.933,2.5,1.716,4.7,2.35c2.7,0.767,4.45,1.367,5.25,1.8c1.5,0.833,3.517,2.233,6.05,4.2c2.7,2.1,4.717,3.55,6.05,4.35
			C263.05,36.433,266.55,39.033,270.05,42.2z"/>
		<path style="fill-rule:evenodd;clip-rule:evenodd;fill:#5F821D;" d="M312.15,89c-3.634-2.067-7.15-5.417-10.551-10.05
			c-3.6-5.534-6.316-9.6-8.149-12.2c-1.7-2.233-2.967-3.917-3.8-5.05c-1.466-2-2.533-3.833-3.2-5.5c-0.3-0.733-0.684-3.25-1.15-7.55
			c-0.428-3.821-0.97-6.046-1.625-6.675c5.388,4.889,9.696,9.214,12.925,12.975c5.1,5.867,8.35,11.033,9.75,15.5
			c0.634,1.966,1.717,5.066,3.25,9.3C310.934,83.583,311.783,86.667,312.15,89z"/>
		<path style="fill-rule:evenodd;clip-rule:evenodd;fill:#5F821D;" d="M327.35,73.05l-1-5.5c0.7,1.2,1.617,3.567,2.75,7.1
			c1.067,3.2,2.134,5.533,3.2,7c0.434,0.567,1.8,1.8,4.101,3.7c1.633,1.3,2.616,2.867,2.949,4.7c0.301,1.434,0.384,3.367,0.25,5.8
			c-0.066,1.334-0.166,3.267-0.3,5.801l2.65-7.551c1.233,1.5,2.416,3.884,3.55,7.15c0.634,1.833,1.5,4.4,2.6,7.7
			c0.967,2.533,2.4,6.316,4.301,11.35c1.733,4.3,3.416,7.967,5.05,11c0.666,1.233,2.649,4.55,5.95,9.95
			c2.533,4.1,4.333,7.467,5.399,10.1c-6.333-2.333-12.116-7.416-17.35-15.25c-4.601-6.899-7.7-14.05-9.3-21.449
			c-0.367,1.399-0.517,3.816-0.45,7.25c0.066,3.233-0.184,5.633-0.75,7.199c-0.334-0.767-1.017-1.783-2.05-3.05
			c-1.034-1.267-1.717-2.267-2.051-3c-0.566-1.2-0.866-2.684-0.899-4.45c-0.066-2.966-0.101-4.483-0.101-4.55
			s-0.216-1.583-0.649-4.55c-0.233-1.767-0.351-3.3-0.351-4.6c-0.033-2.267-0.55-5.233-1.55-8.9c-1.166-4.1-1.833-7.033-2-8.8
			c-1.434,0.5-1.983,1.75-1.649,3.75c-1.5-1.067-2.334-3.883-2.5-8.45C327.283,77.5,327.35,74.35,327.35,73.05z"/>
		<path style="fill-rule:evenodd;clip-rule:evenodd;fill:#5F821D;" d="M352.9,101.8c-2.634-3.366-4.717-7.166-6.25-11.4
			c-1.7-4.7-2.301-8.95-1.801-12.75c3.834,3.4,7.117,7.35,9.851,11.85c2.066,3.467,4.267,8.134,6.6,14
			c0.9,2.333,2.667,5.967,5.3,10.9c2.467,4.633,4.167,8.3,5.101,11c1.3,3.633,2.3,6.267,3,7.899c1.267,2.867,2.666,5.3,4.2,7.3
			c0.199,0.267,2.033,2.233,5.5,5.9c2.333,2.467,3.816,4.634,4.449,6.5c-2.866-1.267-6.1-3.417-9.699-6.45
			c-1.4-1.2-4.351-3.916-8.851-8.149c-3.866-3.634-6.483-7.7-7.85-12.2c-1.533-5.767-2.75-10.017-3.65-12.75
			C357.233,108.75,355.267,104.866,352.9,101.8z"/>
		<path style="fill-rule:evenodd;clip-rule:evenodd;fill:#5F821D;" d="M384.45,88.6c-0.5-2.5-0.684-4.467-0.55-5.9
			c1.399,0.533,2.199,0.833,2.399,0.9c1.167,0.333,2,0.4,2.5,0.2c2.098-1.9,2.631-2.967,1.601-3.2c3.239,0.635,5.405,1.152,6.5,1.55
			c2,0.733,3.85,1.9,5.55,3.5c2.6,2.5,6.233,4.9,10.899,7.2c6.834,3.4,10.75,5.4,11.75,6c-4.899-0.333-10.283-2-16.149-5
			c-9.601-4.966-14.75-7.583-15.45-7.85c0.267,3.5,2.866,7.45,7.8,11.85c1.367,1.2,3.417,2.917,6.15,5.15
			c2.3,1.967,3.95,3.583,4.95,4.85c-9.5-7.433-16.733-14.35-21.7-20.75c1.366,2.167,2.95,5.133,4.75,8.9
			c2.1,4.5,3.583,7.517,4.45,9.05c0.966,1.733,2.5,4.267,4.6,7.601c1.8,3,3.116,5.616,3.95,7.85c0.767,2.066,1.533,5.05,2.3,8.95
			c0.866,4.2,1.583,7.184,2.15,8.95c1.066,3.3,2.716,8.166,4.949,14.6c1.7,5.634,2.551,10.7,2.551,15.2
			c-0.101-0.767-0.567-1.684-1.4-2.75c-1.066-1.367-1.7-2.233-1.9-2.601c-0.699-1.399-1.267-3.399-1.699-6
			c-0.601-3.399-1-5.466-1.2-6.199c-0.767-2.7-2.184-5.801-4.25-9.301c-3.066-5.233-4.767-8.199-5.101-8.899
			c-1.433-2.867-4.116-7-8.05-12.4c-3.866-5.3-6.533-9.483-8-12.55c-1.733-3.6-2.816-7.9-3.25-12.9
			C385.483,93.833,385.116,91.833,384.45,88.6z"/>
		<path style="fill-rule:evenodd;clip-rule:evenodd;fill:#5F821D;" d="M426,126.55c2.033,3.334,4.017,7.117,5.95,11.351
			c1.333,2.933,2.983,6.883,4.95,11.85c0.533,1.333,1.5,3.667,2.899,7c1.134,3.033,1.617,5.467,1.45,7.3c-2.533-1.5-5.3-4-8.3-7.5
			c-0.566-0.666-2.934-3.666-7.101-9c-3.066-3.899-5.466-8.066-7.199-12.5c-1.967-5.1-2.733-9.767-2.301-14l-9.5-6.5
			c3.301-0.333,6.75-0.184,10.351,0.45c2.233,2.634,3.75,4.45,4.55,5.45C423.384,122.55,424.8,124.583,426,126.55z"/>
		<path style="fill-rule:evenodd;clip-rule:evenodd;fill:#5F821D;" d="M446.6,122.8c3.167,2.566,5.267,4.184,6.301,4.851
			c2.566,1.666,7.783,5.133,15.649,10.399c6.467,4.334,11.684,7.767,15.65,10.3c5.2,3.367,10.633,7.334,16.3,11.9
			c4.267,3.467,9.35,7.85,15.25,13.15c-1.134-0.5-2.55-1.351-4.25-2.551c-2.1-1.466-3.5-2.399-4.2-2.8
			c-3.666-2.066-6.7-3.666-9.1-4.8c-3.367-1.566-6.566-2.8-9.601-3.7c-3.133-0.934-6.25-2.184-9.35-3.75
			c-2.134-1.1-5.033-2.783-8.7-5.05c-3.434-1.566-6.1-2.783-8-3.65c-2.478-1.154-4.303-2.396-5.475-3.725
			c0.389,0.646,0.797,1.387,1.225,2.225c1.033,2.134,1.7,3.434,2,3.9c1.3,2.167,3.05,4.583,5.25,7.25c0.533,0.634,2.5,2.866,5.9,6.7
			c0.633,0.733,3.5,3.55,8.6,8.45c3.533,3.433,6.084,6.466,7.65,9.1c-4.367-0.8-9.05-3.4-14.05-7.8
			c-5.4-5.334-9.384-9.084-11.95-11.25c-5.634-4.733-10.934-10.5-15.9-17.3c-4.066-5.567-8.217-12.267-12.45-20.101l7,15
			c-1.5-0.233-3.1-1-4.8-2.3c-1.467-1.066-2.767-2.333-3.899-3.8c-2.167-2.733-4.233-6.117-6.2-10.15
			c-2.566-5.3-3.3-8.883-2.2-10.75c2.3,1.834,5.7,5.3,10.2,10.4c4.267,4.267,8.35,6.55,12.25,6.85c-1.7-2.366-3-4.283-3.9-5.75
			c-1.633-2.666-2.184-4.583-1.649-5.75C441.783,119.1,443.934,120.6,446.6,122.8z"/>
		<path style="fill-rule:evenodd;clip-rule:evenodd;fill:#5F821D;" d="M561.6,135.35c-3.133-0.699-5.333-1.133-6.6-1.3
			c2.267,2.267,5.333,4.834,9.2,7.7c2.133,1.6,5.333,4,9.6,7.2c1.267,1,3.15,2.533,5.65,4.6c2.233,1.7,4.35,2.884,6.35,3.55
			c-3.366-0.199-6.883-1.05-10.55-2.55c-4.167-1.934-7.483-3.399-9.95-4.399c-12.333-5-22.233-8.534-29.7-10.601
			c-11.121-3.084-21.354-4.442-30.699-4.075c2.114,0.01,4.664,1.351,7.649,4.025c1.733,1.566,3.917,3.75,6.55,6.55
			c6.134,5.566,10.4,9.566,12.801,12c4.767,4.733,8.566,9.134,11.399,13.2c-0.733,0.066-1.616-0.316-2.649-1.15
			c-1.134-1.033-1.983-1.75-2.551-2.149c-2.133-1.467-4.783-2.8-7.949-4c-1.134-0.4-3.934-1.334-8.4-2.8
			c-9.3-2.667-16.233-4.917-20.8-6.75c-7.9-3.167-13.867-7.267-17.9-12.301c1.767,0.667,4.767,1.884,9,3.65
			c3.834,1.467,6.934,2.233,9.3,2.3l-19-8.5c-3.8-2.566-6.633-4.55-8.5-5.95c-3.3-2.399-5.966-4.783-8-7.149
			c1.733,0.267,5.75,1.649,12.051,4.149c5.833,1.967,9.6,2.084,11.3,0.351c-1.2-2.667-4.384-4.617-9.55-5.851
			c-5.767-1-9.601-1.899-11.5-2.699c2.3,0.1,7.983,0.566,17.05,1.399c7,0.634,12.7,0.884,17.1,0.75
			c-3.5-0.434-10.467-2.267-20.899-5.5c-8.601-2.7-15.717-3.866-21.351-3.5c11-2,23.634-2.184,37.9-0.55
			c11.8,1.3,24.083,3.75,36.85,7.35c5.5,1.567,13.733,4.15,24.7,7.75c9.833,3.034,18.2,5,25.1,5.9c-1.333,0-4.05,0.134-8.149,0.4
			c-3.4,0.233-6.134,0.25-8.2,0.05C566.616,136.316,564.4,135.95,561.6,135.35z"/>
		<path style="fill-rule:evenodd;clip-rule:evenodd;fill:#5F821D;" d="M469.85,92.05l24,1.5c-6.6,4.233-15.733,6.066-27.399,5.5
			c-6.634-0.3-11.934-0.95-15.9-1.95c-7.033-1.733-10.967-4.55-11.8-8.45c1.967,0.133,5.15,0.75,9.55,1.85
			c4.134,1.033,7.4,1.567,9.8,1.6C460.7,92.133,464.616,92.117,469.85,92.05z"/>
		<path style="fill-rule:evenodd;clip-rule:evenodd;fill:#5F821D;" d="M385.35,58.05l7.5,3.5c2.9,0.7,6.884,1.45,11.95,2.25
			c4.3,1,8.134,2.733,11.5,5.2c-4.1,0.167-10.35-0.833-18.75-3C387.684,63.5,383.616,60.85,385.35,58.05z"/>
		<path style="fill-rule:evenodd;clip-rule:evenodd;fill:#5F821D;" d="M309.85,31.55l3,5.5c0.9,0.333,1.867,1.317,2.9,2.95
			c0.867,1.333,1.533,2.683,2,4.05c0.566,1.633,1.033,4.267,1.4,7.9c0.399,3.733,0.866,6.433,1.399,8.1c0.4,1.3,1.2,3.133,2.4,5.5
			c1.233,2.4,2.033,4.217,2.399,5.45c-7-6.533-11.6-12.3-13.8-17.3c-1.366-3.1-2.083-6.767-2.149-11
			C309.633,37.8,309.783,34.083,309.85,31.55z"/>
		<path style="fill-rule:evenodd;clip-rule:evenodd;fill:#5F821D;" d="M331.35,48.55l0.5,2c0.9,0.967,2.483,3.067,4.75,6.3
			c2.167,2.833,4.017,4.383,5.551,4.65c0.1-0.633,0.149-1.517,0.149-2.65c0.033-1.333,0.066-2.233,0.101-2.7
			c3.199,2.133,6.933,6.217,11.199,12.25c5.334,7.533,8.767,12.117,10.301,13.75c-3.267,0.434-6.733-1.2-10.4-4.9
			c-3.366-3.4-5.434-6.817-6.2-10.25c0.033,1.167,0.233,3.183,0.601,6.05c0.233,1.6,0.55,3.9,0.949,6.9
			c-5-6.2-8.716-11.1-11.149-14.7C333.333,58.817,331.217,53.25,331.35,48.55z"/>
		<path style="fill-rule:evenodd;clip-rule:evenodd;fill:#5F821D;" d="M366.85,69.55c3.101,2.1,5.267,4.267,6.5,6.5
			c0.7,1.233,1.184,3.034,1.45,5.4c0.334,2.6,0.7,4.4,1.101,5.4c0.566,1.333,1.649,2.85,3.25,4.55
			c0.899,0.934,2.199,2.284,3.899,4.05c-3.6-2.8-5.883-4.684-6.85-5.65c-2.233-2.133-4.017-4.517-5.351-7.15
			c-2.199-4.933-3.933-8.6-5.199-11c-0.034-0.066-0.434-0.667-1.2-1.8c-0.367-0.567-0.566-1.167-0.601-1.8L366.85,69.55z"/>
		<path style="fill-rule:evenodd;clip-rule:evenodd;fill:#5F821D;" d="M371.35,100.55l-1.5-9.5c1.134,2,3.101,4.167,5.9,6.5
			c3.333,2.8,5.483,4.8,6.45,6c4,4.867,6.1,11.733,6.3,20.601c0.134,5.066-0.283,12.466-1.25,22.199
			c-0.667-1.066-1.184-2.8-1.55-5.199c-0.467-3.101-0.783-4.95-0.95-5.551c-2.434-8.1-4.35-14.066-5.75-17.899
			C376.667,111.2,374.116,105.483,371.35,100.55z"/>
		<path style="fill-rule:evenodd;clip-rule:evenodd;fill:#385013;" d="M270.2,6.6c-1.967-2.267-3.583-4.434-4.85-6.5
			c3.6-0.333,8.55,0.433,14.85,2.3c3.933,1.167,8.017,3.233,12.25,6.2c5.233,3.633,7.833,7.017,7.8,10.15
			c-6.566-1.133-12.083-1.967-16.55-2.5c-5.967-0.733-11.567-1.15-16.8-1.25c1.967,0.833,5.15,2.7,9.55,5.6
			c3.933,2.6,7.167,4.3,9.7,5.1c-1.6-0.434-3.7-0.733-6.3-0.9c-3.867-0.3-5.983-0.466-6.35-0.5c-2.1-0.233-6.3-0.933-12.6-2.1
			c-5.267-0.934-9.466-1.483-12.6-1.65c0.367,0.9,1.35,2.467,2.95,4.7c1.4,2,2.25,3.6,2.55,4.8c-1.533-0.533-4.083-1.867-7.65-4
			c-3.167-1.867-5.8-3.05-7.9-3.55c0.267,0.933,0.633,1.783,1.1,2.55l-2,5.5c-2.8-3.2-4.883-6.4-6.25-9.6
			c-1.867-4.534-1.8-8.2,0.2-11c0.5,0.2,1.917,1.15,4.25,2.85c1.733,1.267,3.3,1.8,4.7,1.6c-1.367-1.867-1.983-3.6-1.85-5.2
			c0.933,0.367,2.55,1.117,4.85,2.25c2.1,0.9,3.75,1.233,4.95,1c-0.067-0.2-0.583-1.067-1.55-2.6c-0.7-1.133-1.017-2.067-0.95-2.8
			c0.3,0,4.45,0.2,12.45,0.6C263.483,7.95,267.5,7.6,270.2,6.6z"/>
	</g>
</g>
<g>
	<path style="fill-rule:evenodd;clip-rule:evenodd;fill:#28390B;" d="M60.1,94.6C50.4,97.7,43,99.134,37.9,98.9
		c2.034-1.634,5.7-3.4,11-5.301c4.667-1.667,8.217-3.85,10.65-6.55c3.5-3.833,7.967-7.5,13.4-11c3.133-2,8.083-5.066,14.85-9.2
		c2.333-1.533,5.75-3.917,10.25-7.15c4.067-2.833,7.634-4.983,10.7-6.45c5.1-2.367,12.1-4.617,21-6.75
		c11.533-2.733,18.7-4.55,21.5-5.45h0.5c4.1-0.267,10.25-0.433,18.45-0.5c3.667-0.033,9.167-0.083,16.5-0.15
		c6.267-0.1,11.75-0.283,16.45-0.55c3.667,2.133,5.567,5.183,5.7,9.15c0.2,5.8-2.85,12.05-9.15,18.75
		c-1.934,2.033-4.717,4.683-8.35,7.95c-3.867,3.433-6.417,5.783-7.65,7.05c0.566-2.233,0.983-3.917,1.25-5.05
		c0.466-2,0.716-3.667,0.75-5c-1.467,3-3.717,6.117-6.75,9.35c-3.634,3.534-6.333,6.2-8.1,8c-6.467,6.601-9.8,13.45-10,20.55
		c-2.367-5.267-4.05-9.05-5.05-11.35c-1.667-3.9-2.733-7.9-3.2-12c-4.867,8.8-7.383,13.333-7.55,13.6
		c-3.366,5.134-7.033,8.684-11,10.65c2.967-2.934,4.9-5.85,5.8-8.75c0.767-2.4,1.066-5.9,0.9-10.5
		c-4.167,3.866-8.733,7.083-13.7,9.65c-5.5,2.833-10.767,4.466-15.8,4.899c-0.267-1.3-0.4-2.85-0.4-4.649
		c0.033-2.134,0.05-3.75,0.05-4.851c-1.233,0.8-3.633,2.767-7.2,5.9c-2.934,2.566-5.5,4.316-7.7,5.25
		c2.066-3.434,4.65-8.316,7.75-14.65c-4.133,4.533-10.434,8.617-18.9,12.25c-8.034,3.4-15.3,5.316-21.8,5.75
		c0.7-3.233,3.733-6.967,9.1-11.2c5.6-4.466,8.867-7.983,9.8-10.55C77.217,89.917,69.934,91.433,60.1,94.6z"/>
	<path style="fill-rule:evenodd;clip-rule:evenodd;fill:#4C6D1A;" d="M270.9,25.05c4.067,0.633,6.133,0.95,6.2,0.95
		c1.533,0.333,1.783,0.683,0.75,1.05c0.267,1-1.333,2.817-4.8,5.45c-3.133,2.367-4.2,3.883-3.2,4.55
		c-6.733-0.9-14.184-0.517-22.35,1.15c-6.467,1.333-11.867,3.066-16.2,5.2c-6.7,3.267-14.917,10.967-24.65,23.1
		c0.567-2.333,1.833-5.483,3.8-9.45c2.033-4.133,3.333-7.233,3.9-9.3c-1.7,2.033-4.2,3.933-7.5,5.7c-5.2,2.8-7.967,4.3-8.3,4.5
		c-5.566,3.7-11.183,8.466-16.85,14.3c-4.233,4.4-9,9.967-14.3,16.7c-1.667-1.567-2.483-4.5-2.45-8.8c0.033-5.867,0-9.066-0.1-9.6
		c-6.1,5.133-14.083,11.534-23.95,19.2c-13.567,10.533-21.65,16.833-24.25,18.9c0.7-1.301,2.633-5.334,5.8-12.101
		c2.333-4.966,4.5-8.966,6.5-12c1.333-2,3.433-4.75,6.3-8.25c2.434-3.2,4.083-6.2,4.95-9c-8.367,10.367-20.55,19.15-36.55,26.351
		c-16.267,7.333-31.35,10.633-45.25,9.899c4.367-1.434,10.567-4.816,18.6-10.149c7.8-5.267,13.383-9.717,16.75-13.351
		c-17.467,5.6-32.95,9.5-46.45,11.7c-19.066,3.1-34.833,3-47.3-0.3C21.033,89.35,37,85,47.9,78.4
		c9.034-5.433,15.25-9.066,18.65-10.9c7.167-3.867,13.767-6.767,19.8-8.7c-7.367-0.2-15.017,0.8-22.95,3
		c-7.8,2.167-14.8,5.184-21,9.05c2.567-2.233,5.867-4.483,9.9-6.75c2.3-1.3,5.833-3.217,10.6-5.75c0.3-0.167,3.317-2.05,9.05-5.65
		c3.6-2.233,6.75-3.9,9.45-5c2.9-1.2,7.7-2.45,14.4-3.75c6.4-1.233,11.134-2.567,14.2-4c-4.133-0.567-7.25-1-9.35-1.3
		c-3.633-0.566-6.7-1.217-9.2-1.95c4.267-0.333,10.417-0.45,18.45-0.35c9.8,0.167,16.417,0.2,19.85,0.1
		c15.934-0.467,27.967-3.383,36.1-8.75c-1.233-0.067-3.35-0.117-6.35-0.15c-2.648,0-4.715-0.066-6.2-0.2
		c3.652,0.239,9.985-1.944,19-6.55c11.134-5.667,17.567-8.767,19.3-9.3c2.867-0.9,6.216-1.683,10.05-2.35
		c2.233-0.4,5.617-0.95,10.15-1.65c1.167-0.2,4.267-1.083,9.3-2.65c3.966-1.2,7.05-1.75,9.25-1.65c-0.8,1.433-2.067,2.933-3.8,4.5
		c-2.033,1.733-3.517,3-4.45,3.8c1.433-0.233,4.267-0.983,8.5-2.25c3.5-1.067,6.333-1.617,8.5-1.65
		c-0.733,6.933,1.3,11.083,6.1,12.45c2.933,0.8,8.65,1.133,17.15,1C261.35,22.65,264.2,23.983,270.9,25.05z"/>
	<path style="fill-rule:evenodd;clip-rule:evenodd;fill:#5F821D;" d="M231.85,5.05c-2.267,1.2-6.434,2.133-12.5,2.8
		c-6.833,0.7-11.383,1.433-13.65,2.2c-1.634,0.534-6.9,2.9-15.8,7.1c-6.433,3-12.033,4.7-16.8,5.1c3.2,1.167,6.35,1.233,9.45,0.2
		c-4.133,2.133-10.017,3.683-17.65,4.65c-9.9,1.267-15.983,2.2-18.25,2.8c0.534-4.133,6.3-7.9,17.3-11.3
		c5.866-1.8,13.5-3.667,22.9-5.6c2.833-0.733,6.133-1.7,9.9-2.9c2.167-0.7,5.45-1.8,9.85-3.3c2.2-0.767,5.9-1.5,11.1-2.2
		c4.9-0.667,8.616-1.517,11.15-2.55L231.85,5.05z"/>
	<path style="fill-rule:evenodd;clip-rule:evenodd;fill:#5F821D;" d="M222.9,15.5c1.567-2.233,2.534-4.333,2.9-6.3
		c-2.667,1.767-7.866,4.35-15.6,7.75c-6.7,2.933-11.784,5.883-15.25,8.85c-4,4.233-7.05,7.3-9.15,9.2
		c-3.733,3.367-7.55,4.983-11.45,4.85c2.466-1.833,4.35-3.983,5.65-6.45c-3.667,1.567-10.1,3-19.3,4.3
		c-8.4,1.2-14.717,2.983-18.95,5.35c-9.8,6.067-17.25,10.617-22.35,13.65c-9.1,5.5-16.95,9.25-23.55,11.25
		c0.267-1.7,1.267-3.6,3-5.7c0.966-1.2,2.5-2.883,4.6-5.05c-2.034,1.3-5.034,2.5-9,3.6c-4.767,1.333-7.9,2.333-9.4,3
		c-7.033,3.2-12.283,5.567-15.75,7.1c-6.033,2.6-11.5,4.617-16.4,6.05c-4.064,1.184-9.389,2.159-15.975,2.925
		c-3.049,0.904-6.841,1.58-11.375,2.025c-6.566,0.434-11.383,0.817-14.45,1.15c3.867-0.833,10.833-1.716,20.9-2.65
		c1.714-0.161,3.355-0.335,4.925-0.525c0.831-0.239,1.605-0.497,2.325-0.775c7.7-3,15.833-6.867,24.4-11.6
		c7.967-4.4,15.65-9.183,23.05-14.35c-9.333-0.533-17.667,0.717-25,3.75c-1.07,0.439-2.128,0.923-3.175,1.45
		c-1.456,1.496-3.181,3.296-5.175,5.4c-4.267,4.467-8.367,7.217-12.3,8.25c5.52-6.031,11.344-10.581,17.475-13.65
		C61.461,55.319,63.286,53.536,64,53c4.9-3.667,12.167-6.817,21.8-9.45c13.8-3.767,21.417-5.933,22.85-6.5
		c-2.1-2.367-5.783-3.733-11.05-4.1c-0.833-0.067-4.9-0.017-12.2,0.15c4.6-1.833,10.667-2.833,18.2-3c4.2-0.1,10.433-0.2,18.7-0.3
		c1.967-0.133,7.317-0.683,16.05-1.65c6.5-0.7,11.9-1.066,16.2-1.1c12.733-0.167,23.917-1.5,33.55-4c3.267-0.867,7.2-2.4,11.8-4.6
		c2.667-1.3,6.733-3.383,12.2-6.25c10.3-5.267,18.483-7.967,24.55-8.1c7-0.167,6.733,2.4-0.8,7.7c-6.6,4.567-12.317,7.667-17.15,9.3
		C219.566,19.867,220.967,18,222.9,15.5z"/>
	<path style="fill-rule:evenodd;clip-rule:evenodd;fill:#5F821D;" d="M146.925,69.975c1.467-1.024,4.142-2.433,8.025-4.225
		c3.566-1.633,6.167-3.117,7.8-4.45c0.367,5-2.3,9.967-8,14.9c-6.934,5.066-11.517,8.9-13.75,11.5c0.133-1.167,0.6-3.167,1.4-6
		c0.733-2.7,1.15-4.75,1.25-6.15c-6.133,6.4-10.867,11.467-14.2,15.2c-6,6.7-9.884,11.85-11.65,15.45
		c0.833-8.667,4.134-17.784,9.9-27.35c6.667-11.1,13.883-16.917,21.65-17.45C148.523,66.526,147.715,69.385,146.925,69.975z"/>
	<path style="fill-rule:evenodd;clip-rule:evenodd;fill:#5F821D;" d="M184.65,50.4c5.877-2.131,9.802-3.906,11.775-5.325
		c-9.836,7.419-16.361,14.078-19.575,19.975c-2.967,5.934-5.217,10.267-6.75,13c-2.633,4.633-5.7,8.55-9.2,11.75
		c-0.5-5.633,0.35-11.466,2.55-17.5c2.2-6.033,5.283-11.083,9.25-15.15C175.2,54.617,179.184,52.367,184.65,50.4z"/>
	<path style="fill-rule:evenodd;clip-rule:evenodd;fill:#5F821D;" d="M225.85,25.05l12-2c-4.1,2.6-7.2,4.8-9.3,6.6
		c-2.667,2.3-5.15,5.083-7.45,8.35c-1.833,2.6-5.3,6.717-10.4,12.35c-4.634,5.133-7.884,9.2-9.75,12.2
		c1.433-6.966,4.5-13.983,9.2-21.05C214.816,34.5,220.05,29.017,225.85,25.05z"/>
	<path style="fill-rule:evenodd;clip-rule:evenodd;fill:#5F821D;" d="M96.3,87.6c-5.967,5-11.417,8.633-16.35,10.9
		c-6.267,2.866-12.55,3.983-18.85,3.35c1.966-0.933,4.3-2.616,7-5.05c3.667-3.267,5.9-5.2,6.7-5.8c2.7-2,6.783-5.483,12.25-10.45
		c1.767-1.633,5.55-4.1,11.35-7.4c5.034-2.867,8.517-5.566,10.45-8.1l-15,5c4-2.233,9.466-4.183,16.4-5.85
		c7.434-1.833,12.883-2.333,16.35-1.5c-4.267,2.3-9.333,6.066-15.2,11.3C104.767,80.167,99.733,84.7,96.3,87.6z"/>
	<path style="fill-rule:evenodd;clip-rule:evenodd;fill:#5F821D;" d="M7.7,95.65c1.6-0.967,4.433-2.95,8.5-5.95
		c3.533-2.567,6.466-4.45,8.8-5.65c4.6-2.367,11.583-4.6,20.95-6.7c9.633-2.133,16.6-4.233,20.9-6.3h-15
		c3.733-1.433,9.7-2.383,17.9-2.85c8.867-0.5,14.783,0.1,17.75,1.8c-3.467,2.9-9.417,5.417-17.85,7.55
		c-8.521,2.146-14.413,4.146-17.675,6c0.667-0.442,1.375-1.025,2.125-1.75c0.2-0.2,1.033-1.083,2.5-2.65
		c-3.133-0.467-6.784,0.2-10.95,2c-4.667,2.3-8.133,3.9-10.4,4.8C23.883,90.417,14.7,93.65,7.7,95.65z"/>
	<path style="fill-rule:evenodd;clip-rule:evenodd;fill:#5F821D;" d="M264.5,35.9c0.5,0.333,1.65,1.733,3.45,4.2
		c1.866,2.467,2.533,3.65,2,3.55c-5.367-1.1-9.517-1.483-12.45-1.15c-4.133,0.433-8,2.167-11.6,5.2
		c0.367-0.633,0.633-1.517,0.8-2.65c0.233-1.4,0.417-2.3,0.55-2.7c-7.133,0.367-15.083,3.15-23.85,8.35
		c-4.767,2.966-8.367,5.183-10.8,6.65c-4.3,2.566-8.167,4.517-11.6,5.85c2.167-1.667,6.55-4.867,13.15-9.6
		c5.467-3.867,9.683-7.083,12.65-9.65c4.934-4.2,8.533-7,10.8-8.4c4.4-2.767,8.566-4.066,12.5-3.9c2.233,0.067,4.716,0.5,7.45,1.3
		C260.483,33.75,262.8,34.733,264.5,35.9z"/>
</g>
</svg>
