<?xml version="1.0" encoding="iso-8859-1"?>
<!-- Generator: Adobe Illustrator 15.1.0, SVG Export Plug-In . SVG Version: 6.00 Build 0)  -->
<!DOCTYPE svg PUBLIC "-//W3C//DTD SVG 1.1//EN" "http://www.w3.org/Graphics/SVG/1.1/DTD/svg11.dtd">
<svg version="1.1" id="FlashAICB" xmlns="http://www.w3.org/2000/svg" xmlns:xlink="http://www.w3.org/1999/xlink" x="0px" y="0px"
	 width="319.85px" height="135.85px" viewBox="0 0 319.85 135.85" style="enable-background:new 0 0 319.85 135.85;"
	 xml:space="preserve">
<g>
	<path style="fill-rule:evenodd;clip-rule:evenodd;fill:#34240C;" d="M186.55,43.7c3.233,4.6,4.834,9.85,4.8,15.75
		c0,1.133,0.15,3.55,0.45,7.25c0.233,2.967,0.25,5.333,0.05,7.1c-0.833-0.666-2.55-2.25-5.149-4.75
		c-2.134-2.066-3.917-3.533-5.351-4.4c-2.933-1.767-4.949-2.367-6.05-1.8c-0.8,0.433-1.717,2.117-2.75,5.05l-4.25-4.15
		c-1.733-1.667-3.116-3.133-4.149-4.4c0,1.967-0.051,3.9-0.15,5.8c-2.533-0.2-6.383-2.867-11.55-8c-5-4.967-7.934-8.8-8.8-11.5
		c0.2,11.8-1.233,21.45-4.3,28.95c-0.733-1.133-1.183-2.933-1.35-5.399c-0.133-2.667-0.45-4.534-0.95-5.6
		c-2.667,2.867-3.483,7.45-2.45,13.75c0.267,1.733,0.75,4.334,1.45,7.801c0.534,3.066,0.7,5.566,0.5,7.5
		c-0.333,3.133-1.667,7.366-4,12.699c-0.566,1.233-1.7,5.45-3.4,12.65c-1.566,6.6-2.883,10.6-3.95,12
		c-0.133-1.6-1.35-5.083-3.65-10.45c-2.5-5.6-3.983-9-4.45-10.2c-0.333-0.899-0.75-2.483-1.25-4.75
		c-0.433-2.033-0.867-3.517-1.3-4.449c-0.667,0.633-1.566,1.699-2.7,3.199c-1.167,1.5-2.083,2.567-2.75,3.2
		c0.1-2,0.717-5.467,1.85-10.399c1-4.2,1.367-7.801,1.1-10.801c-1.366,1.334-2.966,1.733-4.8,1.2c-0.033-1.3-0.05-5.267-0.05-11.899
		l12.35-39.95c2.2-0.767,6.167-2.784,11.9-6.05c4.867-2.8,8.917-4.483,12.15-5.05c13.767-2.333,24.267,0.217,31.5,7.65
		C181.634,37.95,185.45,42.1,186.55,43.7z"/>
	<path style="fill-rule:evenodd;clip-rule:evenodd;fill:#28390B;" d="M300.8,94.6c9.067-0.166,15.384,0,18.95,0.5
		c-3.666,2.434-8.833,4.334-15.5,5.7c-7.833,1.634-12.517,0.851-14.05-2.35c1.134,3.166,5.616,5.733,13.45,7.7
		c2.1,0.533,5.166,1.216,9.199,2.05c3.301,0.733,5.567,1.416,6.801,2.05c-4.334,0.167-8.934-0.333-13.801-1.5
		c-3.033-0.733-7.516-2.15-13.449-4.25c0.267,1.833,1.333,4.5,3.199,8c1.768,3.366,2.75,6.017,2.95,7.95
		c-1.267,0.7-3.816,0.116-7.649-1.75c-4.167-2.3-6.801-3.733-7.9-4.3c-9.666-4.934-16.233-9.967-19.7-15.101
		c-0.2,2.667-0.017,5.967,0.55,9.9c0.867,5.967,1.334,9.25,1.4,9.85c-7.767-1.8-13.867-5.267-18.3-10.399
		c-3.667-4.2-6.867-10.467-9.601-18.801c-1.366,2.2-2.033,5.684-2,10.45c0.034,2.634,0.217,6.283,0.551,10.95
		c-2.967-9.533-5.067-15.884-6.301-19.05c-2.699-7.101-5.767-13.101-9.199-18c-2-2.834-4.75-5.334-8.25-7.5
		c-2.101-1.267-5.483-2.934-10.15-5c-4.633-2.034-8.033-3.733-10.2-5.1c-3.6-2.2-6.433-4.767-8.5-7.7
		c-0.633,5.667-1.45,10.5-2.45,14.5c-2.232-0.9-4.816-2.9-7.75-6c-3.699-3.867-6.083-6.2-7.149-7c-4.367-3.233-7.65-5.65-9.85-7.25
		c-3.867-2.867-7.183-5.25-9.95-7.15c-3.233-2.233-5.133-3.333-5.7-3.3c-0.733,0.033-2.033,1.417-3.9,4.15
		c-1.733,2.433-3.05,4.3-3.95,5.6c-1.533,2.333-2.617,4.333-3.25,6c-0.733,1.933-1.183,4.767-1.35,8.5
		c-0.167,4.533-0.383,7.466-0.65,8.8c-0.667,3.566-2.2,8.616-4.6,15.15c-0.833,2.3-2.167,5.199-4,8.699
		c-2.4,4.601-3.85,7.45-4.35,8.551c-2.966,6.466-5.283,10.866-6.95,13.199c-3.267,4.567-7.2,7.351-11.8,8.351
		c-1.066-2.934,0.983-7.334,6.15-13.2c1.333-1.566,3.367-3.85,6.1-6.85c2.133-2.467,3.483-4.45,4.05-5.95
		c1.033-2.767,1.483-6.767,1.35-12c-0.133-5.7,0.1-9.75,0.7-12.15c-0.8,2.5-2.5,5.483-5.1,8.95c-4.066,5.4-6.167,8.217-6.3,8.45
		c-0.5,0.767-1.517,2.517-3.05,5.25c-1.233,2.166-2.3,3.85-3.2,5.05c-1.567,2.134-4.583,5.616-9.05,10.45
		c-4,4.333-6.933,7.916-8.8,10.75c-0.9,1.366-2.517,4.316-4.85,8.85c-1.933,3.767-3.7,6.617-5.3,8.55
		c-1.6-3.133-1.583-7.933,0.05-14.399c2-7.733,2.917-12.601,2.75-14.601c-6.066,8.334-11.65,15.517-16.75,21.551
		c-1.533-2.134-0.433-4.934,3.3-8.4c1.967-1.866,4.65-4.15,8.05-6.85c2.9-3.334,4.617-7.117,5.15-11.351
		c0.133-5.3,0.25-9.533,0.35-12.7C69.483,96,65.533,103.033,59.4,110.2c-7.566,7.866-13.133,13.833-16.7,17.899
		c-0.033-0.833,0.183-1.8,0.65-2.899c0.6-1.5,0.95-2.5,1.05-3c0.7-3.2,1.25-6.7,1.65-10.5c0.4-3.834,0.567-7.367,0.5-10.601
		c-3.366-0.133-7.167,3.051-11.4,9.551c-2.2,3.5-3.85,6.017-4.95,7.55c-1.833,2.666-3.483,4.434-4.95,5.3
		c-0.4-3.767,1.1-8.316,4.5-13.65c3.633-5.666,5.483-9.783,5.55-12.35c-2.7,1.533-5.75,2.616-9.15,3.25
		c-3.466,0.634-6.683,0.667-9.65,0.1c2.033-1.199,5.133-3.183,9.3-5.949c3.8-2.367,7.1-4.117,9.9-5.25
		c1.467-0.601,5.133-2.434,11-5.5c4.433-2.334,8.15-3.834,11.15-4.5l25.35-12c1-0.433,2.5-0.7,4.5-0.8
		c2.133-0.133,3.683-0.35,4.65-0.65c1.567-0.5,3.05-1.35,4.45-2.55c0.833-0.7,2.067-1.867,3.7-3.5c7.7-7.1,13.033-12.217,16-15.35
		c4.333-4.6,9.833-8.483,16.5-11.65c3.033-1.433,9.333-3.867,18.9-7.3c7.767-2.8,15.984-3.65,24.65-2.55
		c6.834,0.867,14.75,3.117,23.75,6.75c5.233,2.1,13.033,5.517,23.4,10.25c9.233,4,17.066,6.684,23.5,8.05
		c-2.2,0.033-6.25-0.117-12.15-0.45c-5.1-0.3-9.149-0.333-12.149-0.1c0.8,1.333,2.183,2.367,4.149,3.1
		c1.134,0.434,2.867,0.934,5.2,1.5c4.134,1.267,7.45,2.434,9.95,3.5c3.066,1.333,6.066,2.967,9,4.9
		c4.134,2.733,7.75,4.817,10.85,6.25c4.067,1.867,7.967,2.967,11.7,3.3c-5-0.1-8.767-0.149-11.3-0.149
		c-4.434-0.066-8.184,0.017-11.25,0.25c2.066,1.366,4.3,3.8,6.7,7.3c2.666,3.934,4.717,6.517,6.149,7.75
		c2,1.767,4.833,3.333,8.5,4.7c2.4,0.899,5.534,1.85,9.4,2.85C286.584,94.217,292.867,94.733,300.8,94.6z"/>
	<path style="fill-rule:evenodd;clip-rule:evenodd;fill:#4C6D1A;" d="M175.5,8.9c2.733,1.6,10.684,5.383,23.85,11.35
		c13.301,6.033,20.768,9.5,22.4,10.4c2.6,1.434,5.7,2.983,9.3,4.65c2.767,1.434,2.817,2.15,0.15,2.15c-2.634,0-4.634,0.117-6,0.35
		l-1.45,0.35l9.5,10.8L238,51c3.5,1.467,13.7,5.3,30.6,11.5l-28.55,0.7l8.851,5.35c7.6,4.7,15.316,9.717,23.149,15.05
		c7.9,5.4,15.583,8.601,23.05,9.601c3.667,0.533,6.617,0.517,8.851-0.05c-0.434,0.366-1.267,0.699-2.5,1
		c-2.5,0.699-5.733,1.05-9.7,1.05s-7.2,0.1-9.7,0.3l-2.55,0.35l19.75,11.551c-2.333,0-5.217-0.167-8.65-0.5
		c-7.066-0.634-14.166-1.817-21.3-3.551c-4.633-1.1-8.716-2.899-12.25-5.399L257.4,99.1l1,5.551c-1.367-0.534-3.2-1.367-5.5-2.5
		c-4.566-2.367-8.617-4.917-12.15-7.65c-3.733-2.866-7.783-7.8-12.15-14.8l-5.55-9.7c0.467,9.667,0.45,17.6-0.05,23.8l-0.7,12.9
		l-3.55-9.601c-2.533-7.267-4.1-13.35-4.7-18.25c-0.566-4.833-2.666-10.066-6.3-15.7l-5.35-7.05v9.15c0.066,0-2.617-1.367-8.051-4.1
		c-3.3-1.6-8.25-5.267-14.85-11l-8.75-7.95l5.4,11.45L160.5,48.3c-6.566-2.333-11.35-5.617-14.35-9.85c-0.9-1.233-1.633-2.6-2.2-4.1
		l-0.45-1.7c-3.6,12.267-6.1,19.967-7.5,23.1c-0.8,1.933-1.417,6.683-1.85,14.25l-0.8,12.3c-0.667,2.667-1.55,6.017-2.65,10.05
		c-1.867,6.634-3.934,12.567-6.2,17.801l-6.8,15.649l-1.05-7.5c-0.667-5.399-1-8.566-1-9.5c0-2.033,0.217-5.45,0.65-10.25
		c-6.8,8.233-11.783,13.45-14.95,15.65c-2.167,1.566-4.333,1.899-6.5,1c-1.967-0.733-2.75-1.75-2.35-3.05
		c0.267-0.733,3.133-4.467,8.6-11.2c5.8-7.9,9.517-15.033,11.15-21.4c1.7-6.5,0.733-11.399-2.9-14.7c-1.133-1-2.483-1.8-4.05-2.4
		l-1.9-0.6c0,5.633-0.216,11.067-0.65,16.3c-0.3,3.433-1.4,6.949-3.3,10.55l-2.85,4.45l-0.65-3.45
		c-0.533-2.733-1.217-6.584-2.05-11.55c-0.3,1.3-0.917,3.566-1.85,6.8c-1.6,5.2-3.25,9.5-4.95,12.899
		c-1.667,3.4-3.2,5.667-4.6,6.801l-1.55,0.699l-0.65-6.1c-0.6-0.733-1.216-1.667-1.85-2.8c-1.367-2.3-2.333-4.767-2.9-7.4
		c-0.6-2.566-2.033-4.366-4.3-5.399l-3.2-0.75c-0.933,3.3-2.75,7.85-5.45,13.649c-1.633,3.601-2.8,5.617-3.5,6.05l-0.55-0.6
		c-0.667-0.667-1.383-1.616-2.15-2.85c-1.5-2.467-2.367-4.934-2.6-7.4c-0.3-2.533-0.4-4.184-0.3-4.95l0.05-0.2
		c-2.033,2.301-5.15,5.7-9.35,10.2c-7.4,7.834-14.184,14.55-20.35,20.15c-5.9,5.366-10.167,8.45-12.8,9.25
		c-0.833,0.233-1.45,0.233-1.85,0l-0.3-0.4l2.15-5.55c1.867-4.6,4.1-9.333,6.7-14.2c2.434-4.633,6.133-9.6,11.1-14.899
		c2.567-2.601,4.75-4.667,6.55-6.2c-1,0.566-2.45,1.233-4.35,2c-4.466,1.8-9.816,3.616-16.05,5.45c-3.3,1-6.233,1.966-8.8,2.899
		l2.5-3c3.333-3.533,7.7-7.149,13.1-10.85c5.067-3.467,10.817-6.134,17.25-8c10.5-3.033,16.083-4.7,16.75-5
		c5.2-2.034,12.017-6.467,20.45-13.3c4-3.233,7.717-6.467,11.15-9.7H83c-2,0-3.3-0.034-3.9-0.1l-0.85-0.15l6.45-2.7
		c5.433-2.667,10.783-5.95,16.05-9.85c5.1-3.7,10.684-9.283,16.75-16.75l10.55-13.15c3.767-3.667,6.217-3.633,7.35,0.1
		c0.4,1.167,0.6,2.617,0.6,4.35v2.3l4.8-4.05L141.5,17l2-6.1c0.867-2.533,3.283-4.55,7.25-6.05c2-0.733,3.883-1.217,5.65-1.45l6.5,1
		C167.867,5.4,172.066,6.9,175.5,8.9z M6.2,95.3l-0.95,1.25l-0.95-0.3C4.467,96.083,5.1,95.767,6.2,95.3z"/>
	<g>
		<path style="fill-rule:evenodd;clip-rule:evenodd;fill:#5F821D;" d="M194.35,61.15l4.95,2.5c0.3,1.233,0.467,2.3,0.5,3.2
			c-1.233-0.733-2.483-1.717-3.75-2.95c-0.767-0.767-1.85-1.967-3.25-3.6C193.434,60.7,193.95,60.983,194.35,61.15z"/>
		<path style="fill-rule:evenodd;clip-rule:evenodd;fill:#5F821D;" d="M58.55,102l0.55,0.6l0.2-0.199
			c-1.566,3.333-3.167,5.85-4.8,7.55l0.25-8.15c-3.367,8.767-7.2,15.167-11.5,19.2c-0.133-2.8,0.033-6.733,0.5-11.8
			c0.5-5.4,0.733-9.283,0.7-11.65c-1.167,1.066-4.184,4.033-9.05,8.9c-3.7,3.7-6.85,6.55-9.45,8.55l-2.1,1.95
			c-5.9,5.366-10.167,8.45-12.8,9.25c-0.833,0.233-1.45,0.233-1.85,0L9.05,126c-3.466,1.6-6.483,2.35-9.05,2.25
			c0.967-1.5,2.65-2.934,5.05-4.3c1.367-0.767,3.45-1.917,6.25-3.45c7.2-9.667,13.184-17.05,17.95-22.15
			c-0.867,2.134-2.633,4.801-5.3,8c-3.067,3.767-5.033,6.384-5.9,7.851c2.034-2.066,5.117-5.134,9.25-9.2
			c0.467-0.434,4.517-4.7,12.15-12.8c4.967-5.233,9.3-9.233,13-12c0.833-1.267,1.733-2.15,2.7-2.65v0.7L57.2,77l6.65-5.35
			c-0.767,1.066-1.433,3.149-2,6.25c-0.767,4.033-1.25,6.366-1.45,7C58.1,92.1,56.633,96.6,56,98.4l0.4,0.75
			C57.167,100.384,57.883,101.333,58.55,102z"/>
		<path style="fill-rule:evenodd;clip-rule:evenodd;fill:#5F821D;" d="M202.55,56.1v1.6l1.4,0.3L202.55,56.1z M225.75,70.25
			c-1.066-1.733-1.866-3-2.4-3.8c-0.833-1.233-1.916-2.333-3.25-3.3c1.867,3.567,4.551,7.183,8.051,10.85
			C227.55,73.167,226.75,71.917,225.75,70.25z M222.9,95.5l-0.601,11.2l-3.55-9.601c-2.533-7.333-4.083-13.416-4.65-18.25
			c-0.566-4.833-2.666-10.066-6.3-15.7l-3.45-4.6l-1.8-0.65v7.35l-3.2-1.6c-0.399-1.6-1.232-4-2.5-7.2c-1.3-3.2-2.133-5.567-2.5-7.1
			c-4.3-2.3-7.899-5.117-10.8-8.45c-3.467-3.967-4.883-7.683-4.25-11.15c0.533,0.533,1.134,1.483,1.8,2.85
			c0.7,1.433,1.317,2.433,1.851,3c0.733,0.767,1.95,1.667,3.649,2.7c1.9,1.167,3.167,2.034,3.801,2.6
			c2.433,2.067,4.316,4.083,5.649,6.05c4.867,4.1,8.817,8.05,11.851,11.85c4.8,0.934,8.383,2.083,10.75,3.45
			c-0.101-0.7-0.15-1.5-0.15-2.4c0.1,0.3,0.3,0.733,0.6,1.3c-0.466-3.267-2.982-7.45-7.55-12.55c-4.633-5.167-7.233-9.45-7.8-12.85
			c1.033,3.3,3.884,7.033,8.55,11.2c6.434,5.767,9.983,9.066,10.65,9.9c1.633,2,4.267,5.066,7.899,9.2
			c3.067,3.767,5.217,7.184,6.45,10.25c-0.666-3.1-1.8-6.283-3.399-9.55c2.733,0.033,6.416,2.05,11.05,6.05
			c2.533,2.167,5.967,5.2,10.3,9.101l-0.15,0.05c3.533,0.666,7.801,1.7,12.801,3.1c2.833,0.8,7.066,2,12.699,3.601
			c9.268,2.433,17.25,3.649,23.95,3.649l15.3-4c-4.899,5.134-10.149,8.117-15.75,8.95c-4.033,0.634-10.1,0.15-18.199-1.45
			l-1.851-0.45c-2.5-0.566-5.316-1.433-8.45-2.6c-3.666-1.4-6.467-2.467-8.399-3.2c-4.866-1.2-8.866-2.217-12-3.05
			c-5.866-1.566-9.366-3.366-10.5-5.4c-2.167-0.933-3.816-1.633-4.95-2.1c-2.033-0.9-3.85-1.533-5.45-1.9
			c-0.066,0.367-0.35,1.051-0.85,2.051c1.167,1.1,3.6,3.25,7.3,6.449c3.033,2.667,5.4,4.817,7.1,6.45
			c-0.5-1.733-0.783-2.684-0.85-2.85c-0.233-1.066-0.3-1.983-0.2-2.75c3.2,1.366,8.45,4.5,15.75,9.399
			c6.333,4.233,11.833,7.017,16.5,8.351c0.934,0.267,3.2,1,6.8,2.2c-5.666-0.767-11.183-1.784-16.55-3.051
			c-4.633-1.1-8.716-2.899-12.25-5.399L257.4,99.1l1,5.551c-1.367-0.534-3.2-1.367-5.5-2.5c-4.566-2.367-8.617-4.917-12.15-7.65
			c-3.733-2.866-7.783-7.8-12.15-14.8l-5.55-9.7l0.15,2.9c1.333,3.3,2.033,7.666,2.1,13.1c0.033,3,0.033,7.5,0,13.5
			C224.434,98.366,223.634,97.033,222.9,95.5l0.1-1.7c0.434-5.5,0.5-12.467,0.2-20.899l-0.8-1.75c-1.134-1.967-1.9-3.317-2.301-4.05
			c-0.633-1.2-1.066-2.383-1.3-3.55l-9.85-3.45c3.467,4.6,6.217,9.716,8.25,15.35c0.566,1.666,1.45,5.017,2.649,10.05
			C220.85,89.9,221.867,93.233,222.9,95.5z"/>
		<path style="fill-rule:evenodd;clip-rule:evenodd;fill:#5F821D;" d="M273.2,63.65l-0.65,0.65c-0.866,0-2.066-0.167-3.6-0.5
			C270.883,63.8,272.3,63.75,273.2,63.65z"/>
		<path style="fill-rule:evenodd;clip-rule:evenodd;fill:#5F821D;" d="M268.95,63.8c-2.9-0.1-6.116-0.45-9.65-1.05l-3.75-0.8
			c3.2,0.066,5.583,0.2,7.15,0.4l1.7,0.25C264.633,62.667,266.15,63.067,268.95,63.8z"/>
		<path style="fill-rule:evenodd;clip-rule:evenodd;fill:#5F821D;" d="M6.2,95.3l-0.95,1.25l-0.95-0.3
			C4.467,96.083,5.1,95.767,6.2,95.3z"/>
		<path style="fill-rule:evenodd;clip-rule:evenodd;fill:#5F821D;" d="M187.9,55.65c1.399,1,3.033,2.55,4.899,4.65
			c-3.133-1.8-7.566-5.183-13.3-10.15l-8.75-7.95l5.4,11.45L160.5,48.3c-6.566-2.333-11.35-5.617-14.35-9.85
			c-0.933-1.3-1.6-2.517-2-3.65c-0.566-2.5-0.9-6.133-1-10.9c2.067,3.867,5.117,7.717,9.15,11.55c4.6,4.333,8.783,6.833,12.55,7.5
			c-0.732-3.067-0.8-7.434-0.199-13.1c1.166,2.8,3.033,5.833,5.6,9.1c0.3,0.367,2.6,3.066,6.9,8.1
			c1.333,1.567,3.05,3.117,5.149,4.65C183.5,52.6,185.367,53.917,187.9,55.65z"/>
		<path style="fill-rule:evenodd;clip-rule:evenodd;fill:#5F821D;" d="M218.6,48.35c1.634,1.233,4.018,2.3,7.15,3.2
			c1.733,0.534,4.3,1.284,7.7,2.25c1.033,0.4,4.1,1.684,9.2,3.85c3.732,1.6,6.866,2.75,9.399,3.45l3.5,0.85
			c-4.966,0-8.417-0.1-10.35-0.3c-5.533-0.533-10.816-1.75-15.851-3.65C222.483,55.367,218.9,52.15,218.6,48.35z"/>
		<path style="fill-rule:evenodd;clip-rule:evenodd;fill:#5F821D;" d="M222.8,33.9c4.867,1.6,8.283,2.55,10.25,2.85
			c1.634,0.233,3.017,0.333,4.15,0.3l6-3.35c-2.434,3.2-4.283,5.2-5.55,6c-1.801,1.167-4.351,1.617-7.65,1.35
			c-1.167-0.066-2.616-0.316-4.35-0.75c-3.533-0.867-6.5-1.966-8.9-3.3c-3-1.7-4.35-3.45-4.05-5.25
			C215.233,31.817,218.6,32.533,222.8,33.9z"/>
		<path style="fill-rule:evenodd;clip-rule:evenodd;fill:#5F821D;" d="M132.55,69c0.167-1.167,0.217-3.85,0.15-8.05
			c-0.033-3.333,0.283-6,0.95-8c0.667-1.934,1.8-4.15,3.4-6.65c0.9-1.4,2.317-3.483,4.25-6.25c-2.5,8.167-4.267,13.4-5.3,15.7
			c-0.8,1.933-1.417,6.683-1.85,14.25l-0.8,12.3c-0.667,2.667-1.55,6.017-2.65,10.05c-1.867,6.634-3.934,12.567-6.2,17.801
			l-6.8,15.649l-1.05-7.5c-0.667-5.399-1-8.566-1-9.5c0-2.033,0.217-5.45,0.65-10.25c-6.8,8.233-11.783,13.45-14.95,15.65
			c-1.967,1.434-4,1.816-6.1,1.149c1.633-1.6,3.2-3.383,4.7-5.35c1.133-1.5,3.133-3.983,6-7.45c2.566-3.2,4.367-5.8,5.4-7.8
			c-0.167,0.866-0.7,2.467-1.6,4.8c-0.767,1.967-1.15,3.566-1.15,4.8c2.733-1.233,5.433-4.783,8.1-10.649
			c1.833-4.101,3.367-8.517,4.6-13.25c-0.033,1.533-0.2,4.7-0.5,9.5c-0.267,3.934-0.35,7.1-0.25,9.5
			c0.134-2.167,0.85-3.983,2.15-5.45c2.267-2.566,3.517-4.05,3.75-4.45c1.3-2.233,2.583-5.583,3.85-10.05
			C131.434,75.467,132.184,71.967,132.55,69z"/>
		<path style="fill-rule:evenodd;clip-rule:evenodd;fill:#5F821D;" d="M80.75,103.7c0.333-0.733,0.6-1.55,0.8-2.45
			c0.233-1.134,0.417-2.083,0.55-2.85c-0.733,0.866-1.3,1.5-1.7,1.899L80.75,103.7z M98.5,70.5c-0.066-3.967,0.117-6.717,0.55-8.25
			c1,1.733,1.7,3.8,2.1,6.2c1.333-10.367,3.8-18.4,7.4-24.1l-0.7,4.65c1.367,1.9,2.017,4.25,1.95,7.05
			c0.934-3.566,2.017-6.45,3.25-8.65c-0.033,1.467,0.384,3.684,1.25,6.65c0.934,3.267,1.45,5.333,1.55,6.2
			c0.4,3.7-0.55,8.45-2.85,14.25c-2.533,6.267-3.816,10.884-3.85,13.85c-0.033-2.966,0.517-6.866,1.65-11.699
			c1.333-5.667,2.1-9.517,2.3-11.55c-1.767,1.767-3.9,4.9-6.4,9.4c-2.434,4.4-4.083,8.033-4.95,10.9c0.233-3.301,1.2-7.367,2.9-12.2
			c-1.533,3.566-2.55,6.033-3.05,7.399c-0.067,1.167-0.233,2.65-0.5,4.45c-0.2,0.601-0.517,1.316-0.95,2.15
			c-0.05,0.2-0.1,0.333-0.15,0.399L99.45,88.7l-2.85,4.45l-0.65-3.45c-0.533-2.733-1.217-6.584-2.05-11.55
			c-0.3,1.3-0.917,3.566-1.85,6.8c-1.6,5.2-3.25,9.5-4.95,12.899c-1.667,3.4-3.2,5.667-4.6,6.801l-1.55,0.699l-0.2-1.649
			c-0.233,0.533-0.583,1.2-1.05,2c-0.3,0.5-1.117,1.45-2.45,2.85c-0.967,1-1.617,2.084-1.95,3.25
			c-0.167-1.866-0.183-4.333-0.05-7.399L74.7,105.6c-0.5-5.133-0.783-11.3-0.85-18.5c-0.3-0.866-0.617-1.666-0.95-2.399
			c0.434,0.3,0.75,0.6,0.95,0.899v-3.25c0-5.8,0.383-10.399,1.15-13.8c1.333-6.066,3.85-9.483,7.55-10.25l-0.7,2.7
			c-2.8,1.433-4.4,5.683-4.8,12.75c-0.233,4.066-0.267,10.634-0.1,19.7c0.566,1.3,1.066,2.3,1.5,3l0.75,1.3
			c1.433-2.967,2.5-5.233,3.2-6.8c1.267-2.767,1.983-5.25,2.15-7.45c0.767-9.1,1.233-14.116,1.4-15.05
			c0.9-5.6,2.65-10.317,5.25-14.15l7.35-6.6c-1,2-1.667,4.716-2,8.15c-0.2,2-0.417,5.083-0.65,9.25l1.1-1.45
			c0.167,1.533,0.2,4.067,0.1,7.6c-0.1,3.267-0.017,5.783,0.25,7.55C98.15,76.9,98.533,74.134,98.5,70.5z"/>
		<path style="fill-rule:evenodd;clip-rule:evenodd;fill:#5F821D;" d="M61.05,98.7c0.3-0.634,1.333-4.334,3.1-11.101
			c1.233-4.699,3-7.916,5.3-9.649c0.867,1.066,2.017,3.316,3.45,6.75c-0.5-0.4-1.05-0.75-1.65-1.05l-3.2-0.75
			c-0.933,3.3-2.75,7.85-5.45,13.649c-1.5,3.3-2.6,5.25-3.3,5.851L61.05,98.7z"/>
		<path style="fill-rule:evenodd;clip-rule:evenodd;fill:#5F821D;" d="M113.85,44.35l0.7,0.7c-0.5,0.7-1,1.483-1.5,2.35
			C113.05,46.2,113.317,45.183,113.85,44.35z"/>
	</g>
</g>
</svg>
