<?xml version="1.0" encoding="iso-8859-1"?>
<!-- Generator: Adobe Illustrator 15.1.0, SVG Export Plug-In . SVG Version: 6.00 Build 0)  -->
<!DOCTYPE svg PUBLIC "-//W3C//DTD SVG 1.1//EN" "http://www.w3.org/Graphics/SVG/1.1/DTD/svg11.dtd">
<svg version="1.1" id="Layer_1" xmlns="http://www.w3.org/2000/svg" xmlns:xlink="http://www.w3.org/1999/xlink" x="0px" y="0px"
	 width="125.1px" height="93.65px" viewBox="0 0 125.1 93.65" style="enable-background:new 0 0 125.1 93.65;" xml:space="preserve"
	>
<g>
	<path style="fill-rule:evenodd;clip-rule:evenodd;fill:#3C2D08;" d="M95.85,24.1c0.101,0.833,0.384,2.25,0.851,4.25
		c0.366,1.633,0.566,2.8,0.6,3.5c0.233,3.133-0.149,6.033-1.149,8.7c-0.934,2.467-2.434,4.833-4.5,7.101
		c2.633-1.8,5-2.917,7.1-3.351c2.467-0.466,4.15,0.184,5.05,1.95c1.233,2.4,1.2,5.483-0.1,9.25c-1.267,3.967-3.334,5.9-6.2,5.8
		c0-0.066,0.15-1.35,0.45-3.85c0.166-1.566,0.033-2.884-0.4-3.95c-4.333,5.634-7.217,9.134-8.649,10.5
		c-3.733,3.566-7.717,5.5-11.95,5.8c-2.066,0.2-5.233,0.25-9.5,0.15c-4.4-0.101-7.75-0.066-10.05,0.1
		c-5.6,0.5-10.983,1.45-16.15,2.851c4.167-1.601,6.567-3.084,7.2-4.45c-0.3,0.033-1.217,0.083-2.75,0.149
		c-1.434,0-2.383,0.067-2.85,0.2c2.633-2.6,6.433-5.45,11.4-8.55c4.267-2.7,8.467-5.017,12.6-6.95c-0.5,0.7-1.783,2.783-3.85,6.25
		c-1.567,2.566-2.933,4.601-4.1,6.101c1.533-0.967,4.65-2.467,9.35-4.5c3.967-1.7,6.934-3.417,8.9-5.15
		c3.767-3.3,6.399-7.3,7.899-12c1.134-3.6,1.767-8.433,1.9-14.5c0.5,2.2,1.316,5.467,2.45,9.8c3.1-4.833,4.483-9.066,4.149-12.7
		c-0.3-3.033-1.983-6.434-5.05-10.2C91.066,18.6,93.517,21.167,95.85,24.1z M96.55,25c2.066,1.067,3.816,2.433,5.25,4.1
		c1.5,1.8,3.684,5.183,6.55,10.15c0.834-0.7,1.384-1.183,1.65-1.45c0.4-0.4,0.55-1.2,0.45-2.4c4.133,0.367,3.25-2.783-2.65-9.45
		c-6.767-6.9-10.2-10.483-10.3-10.75c1.1-0.667,2.267-1.25,3.5-1.75c1.134,1.167,2.134,2.316,3,3.45l0.8,1.1l2.3,4.35l0.101-0.15
		c0.1-0.333,0.2-0.65,0.3-0.95c0.033-0.133,0.066-0.25,0.1-0.35c0.034-0.133,0.067-0.25,0.101-0.35
		c0.833,1.767,2.434,4.583,4.8,8.45c2.267,3.733,3.85,6.583,4.75,8.55c3.066,6.733,3.05,12.684-0.05,17.851
		c-1-2.4-2.55-4.384-4.65-5.95c-1.3-0.967-2.733-1.7-4.3-2.2c-0.866-2.2-1.684-4.217-2.45-6.05c-0.533-1.133-1.05-2.233-1.55-3.3
		l-3.35-6.35c-0.233-0.4-0.467-0.783-0.7-1.15l-3.15-4.75c-0.134-0.187-0.267-0.362-0.399-0.525
		C96.616,25.081,96.583,25.04,96.55,25z M1.65,89.8c0.567-0.566,1.3-1.116,2.2-1.649c1.333-0.7,3.033-1.367,5.1-2
		c1.133-0.367,2.8-0.884,5-1.551c-3.5,2.267-6.784,4.834-9.85,7.7C3.8,92.4,3.483,92.517,3.15,92.65l-0.8,0.25
		c-0.067,0-0.1,0.017-0.1,0.05c-0.167,0.033-0.317,0.066-0.45,0.1c-0.633,0.2-1.233,0.4-1.8,0.601C0.3,92.483,0.85,91.2,1.65,89.8z
		 M20.65,80.75l1-1.1c-1.967-0.334-4.35-0.101-7.15,0.699c1.2-0.6,3.117-1.25,5.75-1.949c2.7-0.667,4.65-1.334,5.85-2
		c1.733-0.867,4.267-3.034,7.6-6.5c3.033-3.167,5.433-5.034,7.2-5.601c-0.533,2-2.183,4.3-4.95,6.9c-2.3,2.1-4.7,3.85-7.2,5.25
		L32.4,75.6C28.1,77.134,24.183,78.85,20.65,80.75z M90,80.75l-0.4,0.85c-0.366-0.1-0.733-0.199-1.1-0.3l-2.85-1
		c0.5,0.033,1.033,0.066,1.6,0.101h1.55c0.434,0,0.884,0.017,1.351,0.05L90,80.75z M91.65,47.65c-2.4,1.6-4.25,3.25-5.551,4.949
		C88.3,50.967,90.15,49.316,91.65,47.65z"/>
	<path style="fill-rule:evenodd;clip-rule:evenodd;fill:#563F12;" d="M107.7,20.4v0.15c-0.033,0.1-0.066,0.217-0.101,0.35
		C107.634,20.733,107.667,20.567,107.7,20.4z M15.45,72c-0.067,0.233-0.167,0.483-0.3,0.75l-0.85,1.6
		c2.633-3.833,6.05-7.816,10.25-11.949c2.667-2.7,6.833-6.517,12.5-11.45c1.267-4.067,4.55-8.75,9.85-14.05
		c5.633-5.433,9.1-9.95,10.4-13.55c-0.833,0.367-2.533,1.333-5.1,2.9c-2.1,1.267-3.9,2.133-5.4,2.6c-0.033-0.2,0.133-2.4,0.5-6.6
		c0.3-2.967,0.067-5.217-0.7-6.75v-0.05c0.3-0.267,0.65-0.534,1.05-0.8c1.733-1.4,4.317-3.3,7.75-5.7c1.167-0.5,2.3-0.8,3.4-0.9
		L59.6,8l1.3,0.05c0.367,0.034,0.733,0.133,1.1,0.3c1.6,0.733,2.483,2.267,2.65,4.6c0.133,2.133-0.351,3.883-1.45,5.25
		c0.533-0.3,1.467-0.534,2.8-0.7c1.434-0.2,2.384-0.4,2.85-0.6c2.834,5.467,1.334,10.434-4.5,14.9c-0.8,0.633-3.35,2.317-7.649,5.05
		c-3,1.933-5.017,3.55-6.05,4.85c1.233-0.333,3.983-1.2,8.25-2.6c3.867-1.3,6.867-2.184,9-2.65C66.8,40.917,62.833,45.567,56,50.4
		c-7.9,4.899-13.167,8.517-15.8,10.85c-0.867,0.733-3.117,2.917-6.75,6.55c-2.667,2.7-5.034,4.75-7.1,6.15
		c-2.633,1.733-6.117,3.6-10.45,5.6c-4.8,2.066-8.383,3.667-10.75,4.8c0.5-0.633,1.033-1.3,1.6-2c1.033-1.333,2.267-2.833,3.7-4.5
		c1.167-1.333,2.167-2.466,3-3.399L15.45,72z M54.6,9.4c-2.434,1.733-4.4,3.184-5.9,4.35l-0.4-1.8C47.267,4.083,56.1,0.1,74.8,0
		c3.8-0.033,7.9,1.067,12.3,3.3c-1.066-0.5-2.149-0.95-3.25-1.35c0.967,1.6,2.567,3.733,4.801,6.4
		c1.866,2.533,3.017,5.117,3.449,7.75c-1.199-0.767-2.916-2.05-5.149-3.85c-2.2-1.7-3.867-2.9-5-3.6
		c0.233-0.533,0.267-1.117,0.1-1.75c-0.467-1.8-2.2-2.983-5.2-3.55c-2.267-0.367-4.517-0.383-6.75-0.05
		c-1.033,0.2-2.283,0.617-3.75,1.25c-1.6,0.733-2.816,1.184-3.649,1.35c-0.367,0.067-1.8,0.2-4.3,0.4c-2.133,0.267-3.8,0.583-5,0.95
		c0.1,0.767,0.434,1.417,1,1.95C54.433,9.267,54.5,9.333,54.6,9.4z M104,16.9c-0.866-1.133-1.866-2.283-3-3.45
		c-1-1.034-2.05-2.05-3.15-3.05C100.316,12.5,102.366,14.667,104,16.9z M89.6,81.6l0.4-0.85l-0.35,0.85H89.6z M41.7,47
		c-1.3,0.7-2.567,1.783-3.8,3.25L41.7,47z"/>
	<path style="fill-rule:evenodd;clip-rule:evenodd;fill:#2C2106;" d="M73.55,79.65c-4.566-0.301-8.267-0.534-11.1-0.7
		c-3.434-0.2-5.65-0.316-6.65-0.351c-5.633-0.166-12.3,0.784-20,2.851l-4.45,1.3c-0.533,0.134-1.033,0.283-1.5,0.45
		c-2.633,0.967-5.117,1.833-7.45,2.6l-10.05,3.7c-0.4,0.134-0.783,0.267-1.15,0.4l-0.35,0.149c-0.067,0-0.133,0.017-0.2,0.05
		l-5.1,1.75c-0.5,0.134-0.983,0.284-1.45,0.45c3.066-2.866,6.35-5.434,9.85-7.7c2.1-1.333,4.333-2.616,6.7-3.85
		c3.533-1.9,7.45-3.616,11.75-5.15c3.233-1.133,6.184-2.033,8.85-2.699c5.167-1.4,10.55-2.351,16.15-2.851
		c2.3-0.166,5.65-0.2,10.05-0.1c4.267,0.1,7.434,0.05,9.5-0.15c4.233-0.3,8.217-2.233,11.95-5.8c1.433-1.366,4.316-4.866,8.649-10.5
		c0.434,1.066,0.566,2.384,0.4,3.95c-0.3,2.5-0.45,3.783-0.45,3.85c2.866,0.101,4.934-1.833,6.2-5.8c1.3-3.767,1.333-6.85,0.1-9.25
		c-0.899-1.767-2.583-2.417-5.05-1.95c-2.1,0.434-4.467,1.55-7.1,3.351c2.066-2.267,3.566-4.634,4.5-7.101
		c1-2.667,1.383-5.566,1.149-8.7c-0.033-0.7-0.233-1.867-0.6-3.5c-0.467-2-0.75-3.417-0.851-4.25c0.234,0.292,0.468,0.592,0.7,0.9
		c0.033,0.04,0.066,0.081,0.101,0.125c0.133,0.163,0.266,0.338,0.399,0.525l3.15,4.75c0.233,0.367,0.467,0.75,0.7,1.15l3.35,6.35
		c0.5,1.067,1.017,2.167,1.55,3.3c0.767,1.833,1.584,3.85,2.45,6.05c1.566,0.5,3,1.233,4.3,2.2c2.101,1.566,3.65,3.55,4.65,5.95
		c3.1-5.167,3.116-11.117,0.05-17.851c-0.9-1.966-2.483-4.816-4.75-8.55c-2.366-3.867-3.967-6.683-4.8-8.45V20.4
		c0.033-0.3,0.05-0.6,0.05-0.9c2.7,1.433,4.95,3.467,6.75,6.1c1.467,2.167,2.767,4.967,3.9,8.4c2.6,7.767,4.233,13.017,4.899,15.75
		c1.733,6.767,2.217,12.167,1.45,16.2l-3.25,8.45c-0.566,0.8-1.167,1.533-1.8,2.199c-2.033,2.134-4.601,3.767-7.7,4.9
		c-6.233,2.233-13.7,2.267-22.4,0.1h0.051L90,80.75l0.15-0.3c-0.467-0.033-0.917-0.05-1.351-0.05h-1.55
		c-0.566-0.034-1.1-0.067-1.6-0.101c-0.334-0.033-0.634-0.05-0.9-0.05l-6.15-0.3c-0.066-0.033-0.149-0.05-0.25-0.05
		c-0.133,0.033-0.233,0.05-0.3,0.05c-0.233-0.033-0.434-0.066-0.6-0.101l-3.7-0.25C73.684,79.6,73.616,79.616,73.55,79.65z
		 M91.65,47.65c-1.5,1.666-3.351,3.316-5.551,4.949C87.4,50.9,89.25,49.25,91.65,47.65z"/>
	<path style="fill-rule:evenodd;clip-rule:evenodd;fill:#46340F;" d="M4.1,92.3c0.467-0.166,0.95-0.316,1.45-0.45
		c-0.833,0.267-1.633,0.534-2.4,0.801C3.483,92.517,3.8,92.4,4.1,92.3z M13.95,84.6c-2.2,0.667-3.867,1.184-5,1.551
		c-2.067,0.633-3.767,1.3-5.1,2c-0.9,0.533-1.633,1.083-2.2,1.649c1.1-2.133,2.717-4.55,4.85-7.25c0.1-0.1,0.183-0.166,0.25-0.2
		c-0.567,0.7-1.1,1.367-1.6,2c2.367-1.133,5.95-2.733,10.75-4.8c4.333-2,7.817-3.866,10.45-5.6c2.066-1.4,4.433-3.45,7.1-6.15
		c3.633-3.633,5.883-5.816,6.75-6.55c2.633-2.333,7.9-5.95,15.8-10.85c6.833-4.833,10.8-9.484,11.9-13.95
		c-2.134,0.466-5.134,1.35-9,2.65c-4.267,1.4-7.017,2.267-8.25,2.6c1.033-1.3,3.05-2.917,6.05-4.85c4.3-2.733,6.85-4.417,7.649-5.05
		c5.834-4.466,7.334-9.433,4.5-14.9c-0.466,0.2-1.416,0.4-2.85,0.6c-1.333,0.167-2.267,0.4-2.8,0.7c1.1-1.367,1.583-3.117,1.45-5.25
		C64.483,10.617,63.6,9.083,62,8.35c-0.367-0.167-0.733-0.267-1.1-0.3l15.75,0.1c1.3,0.667,2.566,1.383,3.8,2.15
		c0.767-0.5,1.267-1.05,1.5-1.65c1.133,0.7,2.8,1.9,5,3.6c2.233,1.8,3.95,3.083,5.149,3.85c-0.433-2.633-1.583-5.217-3.449-7.75
		c-2.233-2.667-3.834-4.8-4.801-6.4c1.101,0.4,2.184,0.85,3.25,1.35l5.4,3.1c0.167,0.1,0.333,0.217,0.5,0.35l0.4,0.3
		c0.133,0.034,0.216,0.1,0.25,0.2C93.884,7.383,94.1,7.5,94.3,7.6l3.55,2.8c1.101,1,2.15,2.017,3.15,3.05
		c-1.233,0.5-2.4,1.083-3.5,1.75c0.1,0.267,3.533,3.85,10.3,10.75c5.9,6.667,6.783,9.816,2.65,9.45c0.1,1.2-0.05,2-0.45,2.4
		c-0.267,0.267-0.816,0.75-1.65,1.45c-2.866-4.967-5.05-8.35-6.55-10.15c-1.434-1.667-3.184-3.033-5.25-4.1
		c-0.232-0.308-0.466-0.607-0.7-0.9c-2.333-2.934-4.783-5.5-7.35-7.7c3.066,3.767,4.75,7.167,5.05,10.2
		c0.334,3.633-1.05,7.867-4.149,12.7c-1.134-4.333-1.95-7.6-2.45-9.8c-0.134,6.067-0.767,10.9-1.9,14.5c-1.5,4.7-4.133,8.7-7.899,12
		c-1.967,1.733-4.934,3.45-8.9,5.15c-4.7,2.033-7.817,3.533-9.35,4.5c1.167-1.5,2.533-3.534,4.1-6.101
		c2.066-3.467,3.35-5.55,3.85-6.25c-4.133,1.934-8.333,4.25-12.6,6.95c-4.967,3.1-8.767,5.95-11.4,8.55
		c0.467-0.133,1.417-0.2,2.85-0.2c1.533-0.066,2.45-0.116,2.75-0.149c-0.633,1.366-3.034,2.85-7.2,4.45
		c-2.667,0.666-5.617,1.566-8.85,2.699l-3.65,0.851c2.5-1.4,4.9-3.15,7.2-5.25c2.767-2.601,4.417-4.9,4.95-6.9
		c-1.767,0.566-4.167,2.434-7.2,5.601c-3.333,3.466-5.867,5.633-7.6,6.5c-1.2,0.666-3.15,1.333-5.85,2
		c-2.633,0.699-4.55,1.35-5.75,1.949c2.8-0.8,5.183-1.033,7.15-0.699l-1,1.1C18.283,81.983,16.05,83.267,13.95,84.6z M59.6,8
		l-0.8,0.05c-1.1,0.1-2.233,0.4-3.4,0.9c-3.433,2.4-6.017,4.3-7.75,5.7c0.3-0.3,0.65-0.6,1.05-0.9c1.5-1.167,3.466-2.617,5.9-4.35
		c0.633-0.433,1.3-0.9,2-1.4H59.6z"/>
	<path style="fill-rule:evenodd;clip-rule:evenodd;fill:#63491F;" d="M46.6,15.45v0.05c0.767,1.533,1,3.783,0.7,6.75
		c-0.367,4.2-0.533,6.4-0.5,6.6c1.5-0.467,3.3-1.333,5.4-2.6c2.566-1.567,4.267-2.533,5.1-2.9c-1.3,3.6-4.767,8.117-10.4,13.55
		c-5.3,5.3-8.583,9.983-9.85,14.05c-5.667,4.934-9.833,8.75-12.5,11.45c-4.2,4.133-7.617,8.116-10.25,11.949l0.85-1.6
		c0.133-0.267,0.233-0.517,0.3-0.75c0.466-0.533,0.9-1.033,1.3-1.5l3.2-3.9c1.7-2.1,3.066-3.767,4.1-5l1.2-1.399
		c0.267-0.434,0.5-0.783,0.7-1.05c0.3-0.367,0.583-0.733,0.85-1.101l4.95-7.45c1.067-1.899,2-3.766,2.8-5.6
		c0.934-2.1,1.784-5.45,2.55-10.05c0.733-4.567,1.583-7.934,2.55-10.1l6.45-8.95c0.033-0.033,0.066-0.066,0.1-0.1l0.1-0.1
		C46.4,15.633,46.5,15.55,46.6,15.45z M81.95,8.65c-0.233,0.6-0.733,1.15-1.5,1.65c-1.233-0.767-2.5-1.483-3.8-2.15L60.9,8.05
		L59.6,8h-3c-0.7,0.5-1.367,0.967-2,1.4c-0.1-0.066-0.167-0.133-0.2-0.2c-0.566-0.534-0.9-1.184-1-1.95
		c1.2-0.367,2.867-0.683,5-0.95c2.5-0.2,3.933-0.333,4.3-0.4c0.833-0.167,2.05-0.617,3.649-1.35c1.467-0.633,2.717-1.05,3.75-1.25
		c2.233-0.333,4.483-0.316,6.75,0.05c3,0.566,4.733,1.75,5.2,3.55C82.217,7.533,82.184,8.117,81.95,8.65z M41.7,47l-3.8,3.25
		C39.133,48.783,40.4,47.7,41.7,47z"/>
	
		<linearGradient id="SVGID_1_" gradientUnits="userSpaceOnUse" x1="-13.6812" y1="98.9746" x2="96.9367" y2="98.9746" gradientTransform="matrix(0.9659 -0.2588 0.2588 0.9659 5.056560e-004 1.130104e-004)">
		<stop  offset="0" style="stop-color:#000000;stop-opacity:0.149"/>
		<stop  offset="0.8588" style="stop-color:#000000;stop-opacity:0.2392"/>
		<stop  offset="1" style="stop-color:#000000;stop-opacity:0.298"/>
	</linearGradient>
	<path style="fill-rule:evenodd;clip-rule:evenodd;fill:url(#SVGID_1_);" d="M119.7,76.6c-0.533,1.667-1.7,3.284-3.5,4.851
		c-1.8,1.533-4.033,2.55-6.7,3.05c-0.434,0.1-2.884,0.333-7.35,0.7c-5.034,0.366-8.967,0.45-11.801,0.25
		c-4.233-0.3-8.033-1.184-11.399-2.65c-0.334-0.133-0.967-0.483-1.9-1.05c-0.767-0.434-1.666-0.983-2.7-1.65
		c-0.3-0.166-0.566-0.316-0.8-0.449c0.066-0.034,0.134-0.051,0.2-0.051l3.7,0.25c0.166,0.034,0.366,0.067,0.6,0.101
		c0.066,0,0.167-0.017,0.3-0.05c0.101,0,0.184,0.017,0.25,0.05l6.15,0.3c0.267,0,0.566,0.017,0.9,0.05l2.85,1
		c0.366,0.101,0.733,0.2,1.1,0.3c8.7,2.167,16.167,2.134,22.4-0.1C115.1,80.366,117.667,78.733,119.7,76.6z M62.45,78.95
		c-1.733,0.333-2.9,0.5-3.5,0.5c-9.5,0.399-17.217,1.066-23.15,2c7.7-2.066,14.367-3.017,20-2.851
		C56.8,78.634,59.017,78.75,62.45,78.95z"/>
	
		<radialGradient id="SVGID_2_" cx="33.3975" cy="65.4707" r="63.5775" gradientTransform="matrix(0.9659 -0.2587 -0.2587 -0.9659 33.8793 126.4825)" gradientUnits="userSpaceOnUse">
		<stop  offset="0" style="stop-color:#000000;stop-opacity:0.6863"/>
		<stop  offset="1" style="stop-color:#000000;stop-opacity:0"/>
	</radialGradient>
	<path style="fill-rule:evenodd;clip-rule:evenodd;fill:url(#SVGID_2_);" d="M35.8,81.45c5.934-0.934,13.65-1.601,23.15-2
		c0.6,0,1.767-0.167,3.5-0.5c2.833,0.166,6.533,0.399,11.1,0.7c0.233,0.133,0.5,0.283,0.8,0.449c1.034,0.667,1.934,1.217,2.7,1.65
		c-0.1,0-0.184,0-0.25,0c-1.833,0.066-4.533,0.616-8.1,1.65c-3.7,1.066-6.45,1.633-8.25,1.699c-5.267,0.2-9.167,0.351-11.7,0.45
		c-4.633,0.2-8.533,0.601-11.7,1.2c-2.367,0.4-8.517,1.15-18.45,2.25c-2.967,0.333-5.617,0.7-7.95,1.1
		c0.067-0.033,0.133-0.05,0.2-0.05L11.2,89.9c0.367-0.134,0.75-0.267,1.15-0.4l10.05-3.7c2.333-0.767,4.817-1.633,7.45-2.6
		c0.467-0.167,0.967-0.316,1.5-0.45L35.8,81.45z"/>
</g>
</svg>
