<?xml version="1.0" encoding="iso-8859-1"?>
<!-- Generator: Adobe Illustrator 15.1.0, SVG Export Plug-In . SVG Version: 6.00 Build 0)  -->
<!DOCTYPE svg PUBLIC "-//W3C//DTD SVG 1.1//EN" "http://www.w3.org/Graphics/SVG/1.1/DTD/svg11.dtd">
<svg version="1.1" id="FlashAICB" xmlns="http://www.w3.org/2000/svg" xmlns:xlink="http://www.w3.org/1999/xlink" x="0px" y="0px"
	 width="31.4px" height="42.6px" viewBox="0 0 31.4 42.6" style="enable-background:new 0 0 31.4 42.6;" xml:space="preserve">
<g>
	<path style="fill-rule:evenodd;clip-rule:evenodd;fill:#94866B;" d="M16.65,4.6C16.85,4.067,17.1,3.567,17.4,3.1
		c0.399-0.7,1.166-1.7,2.3-3c0.467,0,1.2,0.15,2.2,0.45C23.2,0.683,24.167,0.833,24.8,1c1.033,0.233,2.05,0.8,3.05,1.7
		c1.067,0.933,1.717,1.917,1.95,2.95C29.9,5.917,29.884,6.367,29.75,7c0.1,0.367,0.3,0.95,0.6,1.75
		c0.134,0.533,0.334,1.283,0.601,2.25c0.267,0.867,0.416,1.633,0.45,2.3v2.65c-0.034,1-0.2,1.833-0.5,2.5
		c-0.233,0.533-0.65,1.133-1.25,1.8c-0.334,0.367-0.867,0.9-1.601,1.6c-0.733,0.766-1.184,1.183-1.35,1.25
		c0.333-0.366,0.649-0.716,0.95-1.05c0-0.066,0.017-0.117,0.05-0.15c-0.533-0.4-1.2-0.6-2-0.6h-0.05c-0.467,0-0.867,0.017-1.2,0.05
		c0.033-0.1,0.066-0.217,0.1-0.35c0.267-1.067,0.434-1.767,0.5-2.1L24.4,20.3c-0.101,0.3-0.384,0.6-0.851,0.9
		c-0.033,0.033-0.05,0.066-0.05,0.1l-1.15-0.05l-0.1-0.35c-2.033-0.667-3.634-1.517-4.8-2.55c-0.3-0.3-0.7-0.783-1.2-1.45
		c-0.233-0.3-0.417-0.566-0.55-0.8c0.066-0.333,0.05-0.684-0.05-1.05c0-0.1-0.167-0.517-0.5-1.25c-0.067-0.133-0.117-0.267-0.15-0.4
		c0-1.233,0.184-2.35,0.55-3.35c0.167-0.533,0.4-0.983,0.7-1.35c0,0.4,0,0.783,0,1.15c0,1.5,0.05,2.7,0.15,3.6
		c0.033,0.333,0.083,0.65,0.149,0.95c0.101,0.533,0.267,1.017,0.5,1.45c0.167,0.433,0.367,0.833,0.601,1.2
		c0.6,0.9,1.517,1.767,2.75,2.6c0.033,0.033,0.066,0.05,0.1,0.05c0.267,0.133,0.5,0.233,0.7,0.3c0.866,0.433,1.533,0.65,2,0.65
		c-0.667-0.233-1.351-0.717-2.05-1.45L19.8,17.85c-0.366-0.333-0.767-0.917-1.2-1.75c-0.233-0.4-0.449-0.75-0.649-1.05l0.25-0.2
		c0.1,0.3,0.233,0.55,0.399,0.75c0.733,0.967,2.134,1.816,4.2,2.55c0.967,0.367,1.8,0.6,2.5,0.7c0,1.033,0.233,1.467,0.7,1.3v-1
		c0-0.1-0.033-0.183-0.1-0.25c0.466,0,0.833-0.066,1.1-0.2c0.767-0.4,1.35-1.383,1.75-2.95c0.333-1.4,0.384-2.717,0.15-3.95
		l0.35-0.2c-0.1,0-0.233,0-0.4,0c0-0.1-0.017-0.184-0.05-0.25c-0.3-0.934-0.55-2.267-0.75-4c-0.2-1.467-0.366-2.317-0.5-2.55
		C26.217,2.967,24.4,2.25,22.1,2.65c-0.133-0.333-0.233-0.6-0.3-0.8l0.101,0.8c-0.4,0.067-0.851,0.2-1.351,0.4L19.9,3.65
		c-0.2,0.3-0.4,0.684-0.601,1.15L17.9,4L17.6,3.95c0.034-0.233,0.101-0.467,0.2-0.7l-0.35,0.7L17.2,3.9
		c-0.134,0.033-0.283,0.2-0.45,0.5L16.65,4.6z M1,27.95c-0.233-2.267-0.433-4.15-0.6-5.65l-0.15-1.55
		c-0.033-0.233-0.067-0.417-0.1-0.55c-0.3-2.3-0.133-4.3,0.5-6v0.45c-0.033,0.767-0.083,1.983-0.15,3.65
		c-0.033,1.434,0.05,2.633,0.25,3.6c0.1,0.433,0.367,1,0.8,1.7c0.4,0.767,0.65,1.351,0.75,1.75l0.25-0.399
		c-0.066,0.8-0.05,1.616,0.05,2.45C2.733,28.667,3,29.467,3.4,29.8c0.033,0.601,0.15,1.417,0.35,2.45
		c-0.333-0.333-0.833-0.816-1.5-1.45c-0.5-0.566-0.817-1.166-0.95-1.8L1,27.95z M4.55,6.3C4.883,6.067,5.167,5.867,5.4,5.7
		C5.233,6.167,5.083,6.65,4.95,7.15c-0.1,0.367-0.2,0.8-0.3,1.3L4.55,9.8c-0.133,0.1-0.283,0.1-0.45,0V9.4L3.9,8.6L3.5,7.55
		L3.75,7.2l0.2,0.15C3.883,7.183,3.867,7,3.9,6.8L4.55,6.3z M5.9,5.4H5.85L5.9,5.35V5.4z M19.65,0.1
		c-0.467,0.367-1.034,0.833-1.7,1.4c0.066-0.133,0.133-0.25,0.2-0.35c0.199-0.5,0.517-0.833,0.949-1
		C19.233,0.117,19.417,0.1,19.65,0.1z M22.25,20.9l0.6,0.15c-0.199-0.066-0.416-0.167-0.649-0.3L22.25,20.9z M22.35,21.25L22.9,22.8
		c-0.367,0.134-0.784,0.316-1.25,0.55l-0.301,0.2c-1.333-0.434-2.3-0.866-2.899-1.3c-0.934-0.633-1.467-1.5-1.601-2.6
		c0.367,0.033,0.934,0.25,1.7,0.65c0.8,0.4,1.367,0.633,1.7,0.7C20.917,21.167,21.616,21.25,22.35,21.25z M20.25,25.4L20.2,27
		c-0.667-0.434-1.884-1.634-3.65-3.6c-0.066-0.4-0.083-0.684-0.05-0.851c0.434,0.033,0.95,0.3,1.55,0.8
		c0.667,0.667,1.101,1.101,1.3,1.301L20.25,25.4z M13.4,18.65c-0.133-0.7-0.2-1.217-0.2-1.55l-0.05-1.05l0.15,1.25
		C13.4,17.8,13.433,18.25,13.4,18.65l0.9,2.85c0.5,1.8,1.2,3.083,2.101,3.85c0.6,1.067,0.833,1.7,0.699,1.9
		c-0.866,1.066-2.6-0.35-5.2-4.25l0.1-0.45c0.067-0.267,0.333-0.85,0.8-1.75c0.367-0.7,0.583-1.316,0.65-1.85L13.4,18.65z
		 M7.5,28.85C7.033,28.184,6.833,27.2,6.9,25.9C6.9,26.3,7.1,27.283,7.5,28.85z M7.65,18.35c0.467,2.167,1.467,4.266,3,6.3L11.7,26
		c0.233,0.767,0.466,1.35,0.7,1.75c0.233,0.434,0.7,0.95,1.4,1.55c0.7,0.634,1.15,1.117,1.351,1.45
		c-0.267,0.167-0.917,0.233-1.95,0.2c-0.567-0.033-0.817,0.416-0.75,1.35c0.033,0.233,0.066,0.45,0.1,0.65
		c0,0.1-0.05,0.267-0.15,0.5c-0.1,0.2-0.3,0.55-0.6,1.05c-0.333,0.4-0.55,0.767-0.65,1.1c-1.066-1.199-2.2-2.916-3.4-5.149
		c0-0.367-0.083-0.9-0.25-1.601c0.5,0.767,1.267,1.267,2.3,1.5c1,0.167,1.75,0.167,2.25,0c0.633-0.267,0.684-0.783,0.15-1.55
		c-0.167-0.267-0.534-0.616-1.1-1.05c-0.5-0.467-0.867-0.833-1.1-1.1c-0.3-0.4-0.55-0.884-0.75-1.45
		C8.983,24.533,8.783,24,8.65,23.6c-0.7-1.933-1.1-3.833-1.2-5.7c-0.034-0.433-0.034-0.9,0-1.4v0.1L7.65,18.35z M18,14.1l-0.45,0.1
		c-0.233-0.467-0.399-0.867-0.5-1.2c-0.2-0.6-0.233-1.4-0.1-2.4c0.2-1.5,0.3-2.3,0.3-2.4V6.25c0-0.167,0.017-0.333,0.05-0.5
		c0.101-0.067,0.233-0.117,0.4-0.15C18,5.567,18.467,5.55,19.1,5.55c-0.1,0.3-0.183,0.633-0.25,1
		c-0.166,1.034-0.466,2.684-0.899,4.95C17.85,12.5,17.866,13.367,18,14.1z M16.25,8.1V6.65l0.15-0.7
		c0.033-0.034,0.066-0.05,0.1-0.05c0.033,0.5,0,1.017-0.1,1.55C16.366,7.617,16.316,7.833,16.25,8.1z"/>
	<path style="fill-rule:evenodd;clip-rule:evenodd;fill:#AB9D7B;" d="M22.25,4.7L21.9,2.65L21.8,1.85c0.066,0.2,0.167,0.467,0.3,0.8
		c0.101,0.333,0.217,0.7,0.351,1.1L22.25,4.7z M28.85,11.6c0.167,0,0.301,0,0.4,0l-0.35,0.2l-0.45,0.3
		c-0.101,0.033-0.367,0.066-0.8,0.1l0.149,1.2c-0.133,0.4-0.366,1.117-0.7,2.15c-0.166,0.434-0.383,0.75-0.649,0.95l-0.65-0.25
		c-0.066,0-0.517,0.017-1.35,0.05c-0.733,0.034-1.101,0.067-1.101,0.1c0.967,0.333,1.967,0.383,3,0.15
		c-0.233,0.133-0.533,0.2-0.899,0.2c-0.033,0-0.066,0-0.101,0c0.233,0.7,0.417,1.417,0.551,2.15c0.066,0.067,0.1,0.15,0.1,0.25v1
		c-0.467,0.167-0.7-0.267-0.7-1.3c0-0.133-0.066-0.45-0.2-0.95c-0.1-0.367-0.183-0.75-0.25-1.15
		c-0.533-0.033-1.083-0.117-1.649-0.25c-0.9-0.133-1.75-0.433-2.55-0.9c-0.334-0.133-0.534-0.267-0.601-0.4
		c0.233-0.034,0.483,0.033,0.75,0.2c0.2,0.167,0.367,0.283,0.5,0.35c0.2,0.167,0.533,0.25,1,0.25c0.5,0,0.851,0,1.05,0
		c0.167,0,0.617-0.067,1.351-0.2c-0.066-0.133-0.101-0.267-0.101-0.4c-0.033-0.2-0.05-0.4-0.05-0.6c0.134,0.3,0.267,0.617,0.4,0.95
		c0.233-0.033,0.5-0.083,0.8-0.15c0.833-0.167,1.35-0.583,1.55-1.25l0.05-2.1c-0.166,0-0.333,0.017-0.5,0.05
		c-0.033,0.233-0.083,0.467-0.149,0.7c-0.167,0.6-0.566,0.983-1.2,1.15c-0.2,0.067-0.533,0.117-1,0.15c0,0.133,0.017,0.3,0.05,0.5
		c-0.066-0.2-0.116-0.367-0.149-0.5c-0.034,0-0.067,0-0.101,0v-0.35c-0.533,0.066-1.1-0.034-1.7-0.3
		c-0.666-0.3-1.066-0.566-1.199-0.8c0,0.6,0.033,1,0.1,1.2c-0.066-0.066-0.134-0.15-0.2-0.25c-0.233-0.267-0.366-0.716-0.399-1.35
		L21.3,12.1L20.9,12.35c0-0.667,0-1.133,0-1.4l0.75,0.65c0.033,0.633,0.25,1.15,0.649,1.55c0.4,0.434,0.9,0.65,1.5,0.65h0.4
		c-0.134-0.433-0.25-0.833-0.351-1.2H23.8c0-0.133,0.017-0.233,0.05-0.3c0.067-0.167,0.217-0.25,0.45-0.25
		c0,0.2-0.05,0.35-0.149,0.45v0.05c0.1,0.267,0.183,0.617,0.25,1.05c0,0.066,0.017,0.133,0.05,0.2h0.1
		c0.367-0.1,0.75-0.45,1.15-1.05c0.066-0.1,0.116-0.25,0.149-0.45c-0.433-0.033-0.716-0.133-0.85-0.3h1.95l1.1-0.3l-1.899,0.1
		c-0.233-0.133-0.667-0.2-1.301-0.2v-0.05c0.301-0.033,0.65-0.05,1.051-0.05c0-0.2-0.017-0.417-0.051-0.65
		c0-0.467-0.1-0.817-0.3-1.05c-0.333-0.367-0.767-0.65-1.3-0.85c-0.167-0.067-0.333-0.117-0.5-0.15l0.15,1.3
		c0.033,0.333,0.066,0.683,0.1,1.05c0.033,0,0.066,0,0.1,0c0.034,0.033,0.084,0.15,0.15,0.35v0.05c-0.066,0-0.15,0-0.25,0h-0.5
		c-0.167,0.067-0.217,0.133-0.15,0.2c0.034,0.067,0.084,0.183,0.15,0.35c0,0.1,0,0.183,0,0.25c-0.167-0.167-0.267-0.35-0.3-0.55
		c-0.134-0.833-0.066-1.316,0.2-1.45C23.3,9.917,23.2,9.4,23.1,8.8c-0.1,0-0.183,0.034-0.25,0.1C22.917,8.8,23,8.717,23.1,8.65
		C23,8.05,22.866,7.433,22.7,6.8c-0.2,0.167-0.367,0.333-0.5,0.5c-0.8,1.1-1.217,2.017-1.25,2.75c-0.101-0.066-0.15-0.466-0.15-1.2
		V7.7c0.033-0.133,0.184-0.434,0.45-0.9C21.816,6,22.2,5.483,22.4,5.25c0.166,0.333,0.25,0.517,0.25,0.55
		c0.5,0.9,0.816,1.583,0.949,2.05c0.067,0.333,0.117,0.65,0.15,0.95c0-0.133-0.017-0.3-0.05-0.5c-0.033-0.267-0.084-0.55-0.15-0.85
		l-0.35-1.6c-0.066-0.3-0.117-0.567-0.15-0.8L24.4,4.6c1.133,0.633,1.566,1.667,1.3,3.1C25.366,7,25.1,6.533,24.9,6.3
		c-0.467-0.433-0.934-0.483-1.4-0.15c-0.033,0.033-0.083,0.067-0.15,0.1c0.134,0.433,0.217,0.8,0.25,1.1L23.7,8.3
		c0.133-0.033,0.283-0.033,0.45,0c0.466,0.1,0.899,0.367,1.3,0.8c0.733,0.8,1.184,1.6,1.35,2.4c0.066,0,0.15,0,0.25,0
		c0.101,0,0.217,0.017,0.351,0.05v-1l0.149,1C28.083,11.583,28.517,11.6,28.85,11.6z M23.4,10.95V10.9
		c-0.101,0.267-0.101,0.45,0,0.55C23.4,11.317,23.4,11.15,23.4,10.95z"/>
	<path style="fill-rule:evenodd;clip-rule:evenodd;fill:#BEAF89;" d="M20.9,12.35l-2.851,1.7L18,14.1
		c-0.134-0.733-0.15-1.6-0.05-2.6c0.434-2.267,0.733-3.917,0.899-4.95c0.067-0.367,0.15-0.7,0.25-1c0.434-0.033,0.934-0.05,1.5-0.05
		L19.8,5C19.9,5,20,4.983,20.1,4.95L19.35,4.8H19.3c0.2-0.466,0.4-0.85,0.601-1.15l0.649-0.6c0.5-0.2,0.95-0.333,1.351-0.4
		l0.35,2.05L22.2,4.85c0.066,0.133,0.133,0.267,0.2,0.4C22.2,5.483,21.816,6,21.25,6.8c-0.267,0.467-0.417,0.767-0.45,0.9v1.15
		c0,0.733,0.05,1.133,0.15,1.2C20.983,9.317,21.4,8.4,22.2,7.3c0.133-0.167,0.3-0.333,0.5-0.5C22.866,7.433,23,8.05,23.1,8.65
		C23,8.717,22.917,8.8,22.85,8.9C22.917,8.833,23,8.8,23.1,8.8c0.101,0.6,0.2,1.117,0.301,1.55c-0.267,0.133-0.334,0.617-0.2,1.45
		c0.033,0.2,0.133,0.383,0.3,0.55c0,0.3,0.083,0.533,0.25,0.7c0.066-0.066,0.083-0.183,0.05-0.35c0-0.034,0-0.067,0-0.1h0.05
		c0.101,0.367,0.217,0.767,0.351,1.2h-0.4c-0.6,0-1.1-0.216-1.5-0.65c-0.399-0.4-0.616-0.917-0.649-1.55l-0.75-0.65
		C20.9,11.217,20.9,11.683,20.9,12.35z M23.7,8.3L23.6,7.35c-0.033-0.3-0.116-0.667-0.25-1.1c0.067-0.033,0.117-0.067,0.15-0.1
		c0.467-0.333,0.934-0.283,1.4,0.15C25.1,6.533,25.366,7,25.7,7.7c0.267-1.434-0.167-2.467-1.3-3.1L23.05,5.05
		c-0.2-0.733-0.383-1.25-0.55-1.55l-0.05,0.25c-0.134-0.4-0.25-0.767-0.351-1.1c2.301-0.4,4.117,0.317,5.45,2.15
		c0.134,0.233,0.3,1.083,0.5,2.55c0.2,1.733,0.45,3.066,0.75,4c0.033,0.066,0.05,0.15,0.05,0.25c-0.333,0-0.767-0.017-1.3-0.05
		l-0.149-1v1c-0.134-0.033-0.25-0.05-0.351-0.05c-0.1,0-0.184,0-0.25,0c-0.166-0.8-0.616-1.6-1.35-2.4c-0.4-0.434-0.834-0.7-1.3-0.8
		C23.983,8.267,23.833,8.267,23.7,8.3z M28.9,11.8c0.233,1.233,0.183,2.55-0.15,3.95c-0.4,1.567-0.983,2.55-1.75,2.95
		c-0.267,0.133-0.634,0.2-1.1,0.2c-0.134-0.733-0.317-1.45-0.551-2.15c0.034,0,0.067,0,0.101,0c0.366,0,0.666-0.067,0.899-0.2
		c0.065-0.032,0.115-0.049,0.15-0.05h-0.05c0.267-0.2,0.483-0.517,0.649-0.95c0.334-1.033,0.567-1.75,0.7-2.15l-0.149-1.2
		c0.433-0.034,0.699-0.067,0.8-0.1L28.9,11.8z M25.3,18.85c-0.7-0.1-1.533-0.333-2.5-0.7c-2.066-0.733-3.467-1.583-4.2-2.55
		c-0.166-0.2-0.3-0.45-0.399-0.75l2.7-2.4c0.033,0.633,0.166,1.083,0.399,1.35c0.066,0.1,0.134,0.184,0.2,0.25
		c0.033,0,0.05,0.017,0.05,0.05c0.334,0.533,1.25,0.75,2.75,0.65V14.3c0.033,0,0.066,0,0.101,0c0.033,0.133,0.083,0.3,0.149,0.5
		c-0.033-0.2-0.05-0.367-0.05-0.5c0.467-0.033,0.8-0.083,1-0.15c0.634-0.167,1.033-0.55,1.2-1.15c0.066-0.233,0.116-0.467,0.149-0.7
		c0.167-0.033,0.334-0.05,0.5-0.05l-0.05,2.1c-0.2,0.667-0.717,1.083-1.55,1.25c-0.3,0.066-0.566,0.117-0.8,0.15
		c-0.134-0.333-0.267-0.65-0.4-0.95c0,0.2,0.017,0.4,0.05,0.6c0,0.133,0.034,0.267,0.101,0.4c-0.733,0.133-1.184,0.2-1.351,0.2
		c-0.199,0-0.55,0-1.05,0c-0.467,0-0.8-0.083-1-0.25c-0.133-0.067-0.3-0.183-0.5-0.35c-0.267-0.167-0.517-0.233-0.75-0.2
		c0.066,0.133,0.267,0.267,0.601,0.4c0.8,0.467,1.649,0.767,2.55,0.9c0.566,0.133,1.116,0.217,1.649,0.25
		c0.067,0.4,0.15,0.783,0.25,1.15C25.233,18.4,25.3,18.717,25.3,18.85z M23.4,10.95c0,0.2,0,0.367,0,0.5
		c-0.101-0.1-0.101-0.284,0-0.55V10.95z M24.25,11.55V11.5c-0.066-0.2-0.116-0.317-0.15-0.35c-0.033,0-0.066,0-0.1,0
		c-0.033-0.367-0.066-0.717-0.1-1.05l-0.15-1.3c0.167,0.034,0.333,0.083,0.5,0.15c0.533,0.2,0.967,0.483,1.3,0.85
		c0.2,0.233,0.3,0.583,0.3,1.05c0.034,0.233,0.051,0.45,0.051,0.65c-0.4,0-0.75,0.017-1.051,0.05v0.05
		C24.65,11.567,24.45,11.55,24.25,11.55z M24.3,12.05c0.066-0.033,0.15-0.05,0.25-0.05H25c0.134,0.167,0.417,0.267,0.85,0.3
		c-0.033,0.2-0.083,0.35-0.149,0.45c-0.4,0.6-0.783,0.95-1.15,1.05h-0.1c-0.033-0.066-0.05-0.133-0.05-0.2
		c-0.067-0.434-0.15-0.783-0.25-1.05V12.5C24.25,12.4,24.3,12.25,24.3,12.05z"/>
	<path style="fill-rule:evenodd;clip-rule:evenodd;fill:#7C7259;" d="M22.4,5.25c-0.067-0.133-0.134-0.267-0.2-0.4l0.05-0.15
		l0.2-0.95L22.5,3.5c0.167,0.3,0.35,0.817,0.55,1.55c0.033,0.233,0.084,0.5,0.15,0.8l0.35,1.6c0.066,0.3,0.117,0.583,0.15,0.85
		c0.033,0.2,0.05,0.367,0.05,0.5c-0.033-0.3-0.083-0.617-0.15-0.95C23.467,7.383,23.15,6.7,22.65,5.8
		C22.65,5.767,22.566,5.583,22.4,5.25z M25,12h-0.45c-0.1,0-0.184,0.017-0.25,0.05c-0.233,0-0.383,0.083-0.45,0.25
		c-0.033,0.067-0.05,0.167-0.05,0.3c0,0.033,0,0.066,0,0.1c0.033,0.167,0.017,0.283-0.05,0.35c-0.167-0.167-0.25-0.4-0.25-0.7
		c0-0.067,0-0.15,0-0.25c-0.066-0.167-0.116-0.283-0.15-0.35c-0.066-0.067-0.017-0.133,0.15-0.2H24c0.1,0,0.184,0,0.25,0
		c0.2,0,0.4,0.017,0.6,0.05c0.634,0,1.067,0.066,1.301,0.2l1.899-0.1l-1.1,0.3H25z M24.3,14.3v0.45c-1.5,0.1-2.416-0.117-2.75-0.65
		c0-0.033-0.017-0.05-0.05-0.05c-0.066-0.2-0.1-0.6-0.1-1.2c0.133,0.233,0.533,0.5,1.199,0.8c0.601,0.267,1.167,0.367,1.7,0.3V14.3z
		 M26.45,16.5h0.05c-0.035,0.001-0.085,0.018-0.15,0.05c-1.033,0.233-2.033,0.184-3-0.15c0-0.033,0.367-0.066,1.101-0.1
		c0.833-0.033,1.283-0.05,1.35-0.05L26.45,16.5z M19.3,4.8l-0.95-0.2c-0.1,0-0.399-0.017-0.899-0.05c-0.066,0-0.117,0-0.15,0
		s-0.066,0-0.1,0c-0.2,0-0.384,0.017-0.55,0.05l0.1-0.2c0.167-0.3,0.316-0.467,0.45-0.5l0.25,0.05H17.6L17.9,4L19.3,4.8z M16.5,5.9
		c-0.033,0-0.066,0.017-0.1,0.05l0.05-0.55c0-0.033,0-0.083,0-0.15S16.467,5.1,16.5,5c0.033,0,0.066,0.017,0.1,0.05l1.2,0.1
		c0.5,0,0.967-0.017,1.4-0.05C19.4,5.067,19.6,5.033,19.8,5l0.8,0.5c-0.566,0-1.066,0.017-1.5,0.05c-0.633,0-1.1,0.017-1.399,0.05
		c-0.167,0.033-0.3,0.083-0.4,0.15C17,5.817,16.733,5.867,16.5,5.9z"/>
	<path style="fill-rule:evenodd;clip-rule:evenodd;fill:#544D3D;" d="M20.9,12.45l-2.7,2.4l-0.25,0.2l-0.9,0.8
		c-0.233-0.434-0.399-0.917-0.5-1.45l1-0.2L18,14.1l0.05-0.05l2.851-1.7L21.3,12.1L20.9,12.45z M24.45,21.35H23.85
		c-0.133-0.033-0.216-0.05-0.25-0.05h-0.1c0-0.033,0.017-0.066,0.05-0.1c0.467-0.3,0.75-0.6,0.851-0.9l0.649-1.4
		c-0.066,0.333-0.233,1.033-0.5,2.1C24.517,21.133,24.483,21.25,24.45,21.35z M19.3,4.8h0.05l0.75,0.15C20,4.983,19.9,5,19.8,5
		c-0.2,0.033-0.399,0.067-0.6,0.1c-0.434,0.033-0.9,0.05-1.4,0.05l-1.2-0.1C16.566,5.017,16.533,5,16.5,5
		c0.033-0.133,0.083-0.267,0.15-0.4C16.816,4.567,17,4.55,17.2,4.55c0.033,0,0.066,0,0.1,0s0.084,0,0.15,0
		c0.5,0.034,0.8,0.05,0.899,0.05L19.3,4.8z"/>
	<path style="fill-rule:evenodd;clip-rule:evenodd;fill:#C3B598;" d="M16.55,23.4l-0.5-0.601c-0.133,0.733-0.05,1.533,0.25,2.4
		L16.4,25.35C15.5,24.583,14.8,23.3,14.3,21.5l-0.9-2.85c0.033-0.4,0-0.85-0.1-1.35c0.667,0.733,1.133,1.333,1.4,1.8
		c0.2,0.433,0.35,0.767,0.45,1c0.199,0.367,0.483,0.566,0.85,0.6l0.05-0.45c0.2,0,0.367,0.05,0.5,0.15
		c0.267-0.2,0.117-1.033-0.45-2.5c-0.233-0.7-0.449-1.25-0.649-1.65c0.066,0,0.116,0,0.149,0c0.034-0.067,0.067-0.117,0.101-0.15
		c0.133,0.233,0.316,0.5,0.55,0.8c0.5,0.667,0.9,1.15,1.2,1.45c1.166,1.033,2.767,1.883,4.8,2.55l0.1,0.35l1.15,0.05h0.1
		c0.034,0,0.117,0.017,0.25,0.05h0.601c0.333-0.033,0.733-0.05,1.2-0.05h0.05c0.8,0,1.467,0.2,2,0.6
		c-0.033,0.033-0.05,0.083-0.05,0.15c-0.167,0.167-0.483,0.483-0.95,0.95l-0.55-1c-0.967,0.033-2.051,0.3-3.25,0.8l-0.551-1.55
		c-0.733,0-1.433-0.083-2.1-0.25c-0.333-0.067-0.9-0.3-1.7-0.7c-0.767-0.4-1.333-0.617-1.7-0.65c0.134,1.1,0.667,1.967,1.601,2.6
		c0.6,0.434,1.566,0.866,2.899,1.3c-0.733,0.5-1.1,1.117-1.1,1.851l-0.9-0.75c-0.199-0.2-0.633-0.634-1.3-1.301
		c-0.6-0.5-1.116-0.767-1.55-0.8C16.467,22.717,16.483,23,16.55,23.4z M7.5,28.85C7.1,27.283,6.9,26.3,6.9,25.9
		C6.833,27.2,7.033,28.184,7.5,28.85z M13.4,18.65l0.05,0.3c-0.067,0.533-0.284,1.15-0.65,1.85c-0.466,0.9-0.733,1.483-0.8,1.75
		L11.9,23l-0.55-0.9c-0.2,1.233-0.083,2.534,0.35,3.9l-1.05-1.35c-1.533-2.034-2.533-4.134-3-6.3c0.8,1.566,1.5,2.267,2.1,2.1
		c0-0.567-0.017-0.883-0.05-0.95c0.167,0.4,0.55,0.783,1.15,1.15c0.533,0.267,1.033,0.467,1.5,0.6c0.033-0.567-0.017-1.15-0.15-1.75
		c-0.233-0.733-0.417-1.317-0.55-1.75c-0.267-0.833-0.417-1.833-0.45-3c0.4,0.233,0.816,0.45,1.25,0.65
		c0.033,0.267,0.1,0.533,0.2,0.8c0.067,0.167,0.25,0.466,0.55,0.9C13.2,17.433,13.267,17.95,13.4,18.65z M4.25,22.95
		c0.933,0.934,1.917,1.333,2.95,1.2C7.133,23.717,6.917,23.1,6.55,22.3c-0.367-0.733-0.583-1.367-0.65-1.9
		c-0.267-2.7-0.267-4.683,0-5.95C6.1,14.783,6.367,15,6.7,15.1c0.066,0.4,0.15,0.883,0.25,1.45l0.5,1.35
		c0.1,1.867,0.5,3.767,1.2,5.7c0.133,0.4,0.333,0.934,0.6,1.601c0.2,0.566,0.45,1.05,0.75,1.45c0.233,0.267,0.6,0.633,1.1,1.1
		c0.566,0.434,0.933,0.783,1.1,1.05c0.533,0.767,0.483,1.283-0.15,1.55c-0.5,0.167-1.25,0.167-2.25,0
		c-1.033-0.233-1.8-0.733-2.3-1.5c0.167,0.7,0.25,1.233,0.25,1.601l-3.5-7.15V22.95z M3.4,29.8C3,29.467,2.733,28.667,2.6,27.4
		c-0.1-0.834-0.117-1.65-0.05-2.45L2.3,25.35c-0.1-0.399-0.35-0.983-0.75-1.75c-0.433-0.699-0.7-1.267-0.8-1.7
		c-0.2-0.967-0.283-2.167-0.25-3.6c0.067-1.667,0.117-2.883,0.15-3.65l1.95-3l-0.4,1.8c-0.233,2.2-0.35,3.75-0.35,4.65
		c0,2.1,0.316,3.65,0.95,4.65C2.967,24.283,3.167,26.634,3.4,29.8z M4.1,9.4l-1.5,2.25c0.267-1.033,0.6-1.933,1-2.7L3.9,8.6L4.1,9.4
		z M4.95,7.15c-0.067,0.333-0.117,0.7-0.15,1.1l-0.15,0.2C4.75,7.95,4.85,7.517,4.95,7.15z"/>
	<path style="fill-rule:evenodd;clip-rule:evenodd;fill:#766D55;" d="M17.05,15.85l0.9-0.8c0.2,0.3,0.416,0.65,0.649,1.05
		c0.434,0.833,0.834,1.417,1.2,1.75l1.351,1.35c0.699,0.733,1.383,1.216,2.05,1.45c-0.467,0-1.134-0.217-2-0.65
		c-0.2-0.067-0.434-0.167-0.7-0.3c-0.033,0-0.066-0.017-0.1-0.05c-1.233-0.833-2.15-1.7-2.75-2.6
		C17.417,16.683,17.217,16.283,17.05,15.85z M17.55,14.2l-1,0.2c-0.066-0.3-0.116-0.617-0.149-0.95c-0.101-0.9-0.15-2.1-0.15-3.6
		c0-0.367,0-0.75,0-1.15c-0.033-0.133-0.033-0.25,0-0.35V8.1c0.066-0.267,0.116-0.483,0.15-0.65c0.1-0.534,0.133-1.05,0.1-1.55
		c0.233-0.033,0.5-0.083,0.8-0.15c-0.033,0.167-0.05,0.333-0.05,0.5V8.2c0,0.1-0.1,0.9-0.3,2.4c-0.134,1-0.101,1.8,0.1,2.4
		C17.15,13.333,17.316,13.733,17.55,14.2z M17.6,3.95H17.45l0.35-0.7C17.7,3.483,17.634,3.717,17.6,3.95z"/>
	<path style="fill-rule:evenodd;clip-rule:evenodd;fill:#D9CBB0;" d="M6.3,38.65c-0.167-0.101-0.333-0.184-0.5-0.25
		c-0.733-0.367-1.716-0.567-2.95-0.601C4.25,37.8,5.4,38.083,6.3,38.65z M9.7,42.1c0.433,0.334,0.8,0.5,1.1,0.5
		c-0.267,0.034-0.566-0.066-0.9-0.3C9.867,42.267,9.8,42.2,9.7,42.1z M23.55,25.4c0.033-0.034,0.066-0.067,0.101-0.101
		c0.233-0.133,0.466-0.283,0.699-0.45C25.316,24.217,26.1,23.6,26.7,23c0.467-0.467,0.783-0.783,0.95-0.95
		c-0.301,0.334-0.617,0.684-0.95,1.05c-0.033,0-0.05,0.017-0.05,0.051c-0.634,0.566-1.4,1.133-2.301,1.699
		C24.15,25.017,23.884,25.2,23.55,25.4z M0.4,22.3c0.167,1.5,0.367,3.384,0.6,5.65l0.1,0.8c-0.167-1.066-0.333-2.434-0.5-4.1
		C0.5,23.717,0.433,22.934,0.4,22.3z M5.9,14.45c-0.267,1.267-0.267,3.25,0,5.95c0.067,0.533,0.283,1.167,0.65,1.9
		c0.367,0.8,0.583,1.417,0.65,1.851c-1.034,0.133-2.017-0.267-2.95-1.2c-0.033-1.867,0-3.983,0.1-6.35
		c-0.567,1.467-0.767,3.367-0.6,5.7l-1-2.1l-0.2-0.6c-0.066,0.367,0,1.217,0.2,2.55l0.05,0.6c-0.633-1-0.95-2.55-0.95-4.65
		c0-0.9,0.117-2.45,0.35-4.65l0.4-1.8l-1.95,3V14.2c0.167-0.434,0.367-0.85,0.6-1.25c0.133-0.233,0.533-1.284,1.2-3.15
		c0.566-1.533,1-2.4,1.3-2.6L3.5,7.55L3.9,8.6L3.6,8.95c-0.4,0.767-0.733,1.667-1,2.7L4.1,9.4v0.4c0.167,0.1,0.316,0.1,0.45,0
		l0.1-1.35l0.15-0.2c-0.066,0.6-0.066,1.25,0,1.95c0.167,1.433,0.367,2.466,0.6,3.1C5.533,13.767,5.7,14.15,5.9,14.45z M5.4,5.7
		C5.167,5.867,4.883,6.067,4.55,6.3C4.983,5.967,5.233,5.767,5.3,5.7c0.133-0.1,0.284-0.167,0.45-0.2L5.7,5.55
		c-0.1,0.034-0.2,0.067-0.3,0.1V5.7z M9.325,5.15C9.269,5.144,9.228,5.127,9.2,5.1c0.2,0.033,0.4,0.05,0.6,0.05
		c0.967,0.067,1.767,0.067,2.4,0c-0.534,0.067-1.133,0.083-1.8,0.05L9.325,5.15z M16.5,5c-0.033,0.1-0.05,0.183-0.05,0.25
		c-0.134-1.133-0.184-1.867-0.15-2.2c0.033-0.066,0.084-0.117,0.15-0.15c0.566-0.533,1.066-1,1.5-1.4
		c0.666-0.567,1.233-1.033,1.7-1.4c0.031-0.031,0.064-0.064,0.1-0.1c-0.033,0.036-0.05,0.069-0.05,0.1c-1.134,1.3-1.9,2.3-2.3,3
		C17.1,3.567,16.85,4.067,16.65,4.6C16.583,4.733,16.533,4.867,16.5,5z M15,13.4c-0.267-0.8-0.367-1.617-0.3-2.45
		c0.066-0.534,0.267-1,0.6-1.4c0.5-0.566,0.816-0.966,0.95-1.2c-0.033,0.1-0.033,0.217,0,0.35c-0.3,0.367-0.533,0.816-0.7,1.35
		C15.184,11.05,15,12.167,15,13.4z M22.25,20.9l-0.05-0.15c0.233,0.133,0.45,0.233,0.649,0.3L22.25,20.9z M11.15,35.6L11.4,35.9
		L11.3,35.8L11.15,35.6z M7.05,15.1c0.1,0.467,0.233,0.933,0.4,1.4c-0.034,0.5-0.034,0.967,0,1.4l-0.5-1.35
		c-0.1-0.566-0.184-1.05-0.25-1.45C6.8,15.1,6.917,15.1,7.05,15.1z M11.2,14.75c0.033,1.167,0.183,2.167,0.45,3
		c0.133,0.433,0.317,1.017,0.55,1.75c0.133,0.6,0.183,1.183,0.15,1.75c-0.467-0.133-0.967-0.333-1.5-0.6
		c-0.6-0.367-0.983-0.75-1.15-1.15c0.033,0.067,0.05,0.383,0.05,0.95c-0.6,0.167-1.3-0.534-2.1-2.1l-0.2-1.75l0.3,0.65
		c-0.067-1.7,0.017-3.367,0.25-5c0.367,0.2,0.783,0.483,1.25,0.85c0.733,0.633,1.267,1.083,1.6,1.35
		C10.95,14.517,11.067,14.617,11.2,14.75z M13.2,17.1c-0.3-0.434-0.483-0.733-0.55-0.9c-0.1-0.267-0.167-0.534-0.2-0.8
		c0.9,0.434,1.9,0.717,3,0.85c0.2,0.4,0.416,0.95,0.649,1.65c0.567,1.467,0.717,2.3,0.45,2.5c-0.133-0.1-0.3-0.15-0.5-0.15L16,20.7
		c-0.366-0.034-0.65-0.233-0.85-0.6c-0.101-0.233-0.25-0.567-0.45-1c-0.267-0.467-0.733-1.067-1.4-1.8l-0.15-1.25L13.2,17.1z"/>
	<path style="fill-rule:evenodd;clip-rule:evenodd;fill:#655C49;" d="M23.55,25.4L20.4,27.1c-1.134,0.667-2.184,1.75-3.15,3.25
		c-0.066,0.067-0.816,1.4-2.25,4c-0.033,0.067-0.067,0.15-0.1,0.25c-0.433,0.7-1.117,1.65-2.05,2.851L12.6,37.85
		c-0.167,0.434-0.25,1.084-0.25,1.95c0,0.834-0.1,1.417-0.3,1.75c-0.367,0.667-0.767,1.017-1.2,1.05H10.8
		c-0.3,0-0.667-0.166-1.1-0.5c-0.2-0.233-0.417-0.483-0.65-0.75L8.1,40.2c-0.567-0.634-1.1-1.117-1.6-1.45
		c-0.1-0.033-0.167-0.066-0.2-0.1C5.4,38.083,4.25,37.8,2.85,37.8L2.3,34.15c-0.033-0.2-0.066-0.367-0.1-0.5
		c-0.034-0.2-0.067-0.384-0.1-0.551l-0.25-1.05c-0.267-1.166-0.45-2-0.55-2.5L0.9,29.6l-0.2-0.8l0.4-0.05L1,27.95L1.3,29
		c0.133,0.634,0.45,1.233,0.95,1.8c0.667,0.634,1.167,1.117,1.5,1.45c-0.2-1.033-0.317-1.85-0.35-2.45
		c-0.233-3.166-0.433-5.517-0.6-7.05l-0.05-0.6c-0.2-1.333-0.267-2.184-0.2-2.55l0.2,0.6l1,2.1c-0.167-2.333,0.033-4.233,0.6-5.7
		c-0.1,2.367-0.133,4.483-0.1,6.35v0.35l3.5,7.15c1.2,2.233,2.333,3.95,3.4,5.149c0.1-0.333,0.317-0.699,0.65-1.1
		c0.3-0.5,0.5-0.85,0.6-1.05c0.1-0.233,0.15-0.4,0.15-0.5c-0.033-0.2-0.066-0.417-0.1-0.65c-0.067-0.934,0.183-1.383,0.75-1.35
		c1.033,0.033,1.683-0.033,1.95-0.2c-0.2-0.333-0.65-0.816-1.351-1.45c-0.7-0.6-1.167-1.116-1.4-1.55
		c-0.233-0.4-0.467-0.983-0.7-1.75c-0.434-1.366-0.55-2.667-0.35-3.9L11.9,23c2.6,3.9,4.333,5.316,5.2,4.25
		c0.134-0.2-0.1-0.833-0.699-1.9L16.3,25.2c-0.3-0.867-0.383-1.667-0.25-2.4l0.5,0.601c1.767,1.966,2.983,3.166,3.65,3.6l0.05-1.6
		c0-0.733,0.366-1.351,1.1-1.851l0.301-0.2c0.466-0.233,0.883-0.416,1.25-0.55c1.199-0.5,2.283-0.767,3.25-0.8l0.55,1
		c-0.601,0.6-1.384,1.217-2.351,1.85c-0.233,0.167-0.466,0.317-0.699,0.45C23.616,25.333,23.583,25.366,23.55,25.4z M11.15,35.6
		l0.15,0.2l0.1,0.101L11.15,35.6z"/>
	<path style="fill-rule:evenodd;clip-rule:evenodd;fill:#342B1E;" d="M15.7,16.1c-0.033,0.033-0.066,0.083-0.101,0.15
		c-0.033,0-0.083,0-0.149,0c-1.1-0.133-2.1-0.417-3-0.85c-0.434-0.2-0.85-0.417-1.25-0.65c-0.133-0.133-0.25-0.233-0.35-0.3
		c-0.333-0.267-0.867-0.717-1.6-1.35C8.783,12.733,8.367,12.45,8,12.25c-0.167-0.1-0.333-0.183-0.5-0.25
		c-0.267,0.6-0.383,1.617-0.35,3.05c-0.033,0-0.066,0.017-0.1,0.05c-0.133,0-0.25,0-0.35,0c-0.333-0.1-0.6-0.317-0.8-0.65
		c-0.2-0.3-0.367-0.684-0.5-1.15c-0.233-0.633-0.433-1.667-0.6-3.1c-0.066-0.7-0.066-1.35,0-1.95c0.034-0.4,0.083-0.767,0.15-1.1
		C5.083,6.65,5.233,6.167,5.4,5.7V5.65c0.1-0.033,0.2-0.066,0.3-0.1L5.75,5.5l0.1-0.1H5.9c0.033-0.033,0.083-0.05,0.15-0.05
		C6.217,5.283,6.4,5.233,6.6,5.2c0.1-0.034,0.2-0.05,0.3-0.05c0.267-0.066,0.65-0.1,1.15-0.1V5.1c-0.933,0.833-1.5,2.066-1.7,3.7
		c0.133-0.833,0.566-1.783,1.3-2.85c0,1.3,0.15,2.4,0.45,3.3c0,0.033,0.017,0.083,0.05,0.15v0.05C8.183,9.55,8.233,9.667,8.3,9.8
		c0.1,0.233,0.217,0.434,0.35,0.6l1.25,0.65h0.05c0.033,0,0.083,0,0.15,0c0.1-0.033,0.217-0.066,0.35-0.1c0.1-0.3,0.15-0.633,0.15-1
		V9.9c-0.033-0.533-0.033-0.867,0-1c0.333,0.833,0.65,1.55,0.95,2.15c0.067,0.067,0.117,0.117,0.15,0.15
		c0,0.066,0.017,0.117,0.05,0.15c0.167,0.333,0.333,0.617,0.5,0.85c0.4,0.6,0.783,0.833,1.15,0.7c0.033-0.4,0.05-1.183,0.05-2.35
		c0-1,0.05-1.767,0.15-2.3c0.133-0.633,0.2-1.067,0.2-1.3c0-0.367-0.1-0.833-0.3-1.4L13.3,4.8c0.934-0.367,1.934-0.966,3-1.8v0.05
		c-0.033,0.333,0.017,1.067,0.15,2.2c0,0.067,0,0.117,0,0.15L16.4,5.95l-0.15,0.7V8.1v0.25c-0.134,0.233-0.45,0.633-0.95,1.2
		c-0.333,0.4-0.533,0.867-0.6,1.4c-0.067,0.833,0.033,1.65,0.3,2.45c0.033,0.133,0.083,0.267,0.15,0.4
		c0.333,0.733,0.5,1.15,0.5,1.25C15.75,15.417,15.767,15.767,15.7,16.1z M10.9,13.1c0.1,0.033,0.184,0.1,0.25,0.2
		c0.434,0.133,0.733,0,0.9-0.4c0-0.066,0.017-0.15,0.05-0.25l-1.05-0.8C10.317,12.317,10.267,12.733,10.9,13.1z M14.45,14.2
		l-1.6-0.25c-0.3,0.5-0.3,0.9,0,1.2c0.3,0.3,0.733,0.434,1.3,0.4C14.517,15.183,14.617,14.733,14.45,14.2z"/>
	<path style="fill-rule:evenodd;clip-rule:evenodd;fill:#4E402D;" d="M13.3,4.8l0.2,0.75c0.2,0.567,0.3,1.034,0.3,1.4
		c0,0.233-0.066,0.667-0.2,1.3c-0.1,0.533-0.15,1.3-0.15,2.3c0,1.167-0.017,1.95-0.05,2.35c-0.367,0.133-0.75-0.1-1.15-0.7
		c-0.167-0.233-0.333-0.517-0.5-0.85c-0.033-0.033-0.05-0.083-0.05-0.15c-0.034-0.034-0.083-0.083-0.15-0.15
		c-0.3-0.6-0.617-1.316-0.95-2.15c-0.033,0.133-0.033,0.467,0,1v0.05c0,0.367-0.05,0.7-0.15,1c-0.133,0.033-0.25,0.066-0.35,0.1
		c-0.067,0-0.117,0-0.15,0H9.9L8.65,10.4C8.517,10.233,8.4,10.033,8.3,9.8C8.233,9.667,8.183,9.55,8.15,9.45V9.4
		C8.117,9.333,8.1,9.283,8.1,9.25c-0.3-0.9-0.45-2-0.45-3.3C6.917,7.017,6.483,7.967,6.35,8.8c0.2-1.633,0.767-2.867,1.7-3.7V5.05
		L8.4,5.1l0.925,0.05L10.4,5.2c0.667,0.033,1.267,0.017,1.8-0.05l0.45-0.1h0.05L13.3,4.8z M14.45,14.2
		c0.167,0.533,0.066,0.983-0.3,1.35c-0.566,0.034-1-0.1-1.3-0.4c-0.3-0.3-0.3-0.7,0-1.2L14.45,14.2z M10.9,13.1
		c-0.633-0.367-0.583-0.783,0.15-1.25l1.05,0.8c-0.033,0.1-0.05,0.184-0.05,0.25c-0.167,0.4-0.466,0.533-0.9,0.4
		C11.083,13.2,11,13.133,10.9,13.1z"/>
	<path style="fill-rule:evenodd;clip-rule:evenodd;fill:#E0D2B6;" d="M9.2,5.1c0.027,0.027,0.069,0.044,0.125,0.05L8.4,5.1
		C8.633,5.1,8.9,5.1,9.2,5.1z M7.45,16.5c-0.167-0.467-0.3-0.933-0.4-1.4c0.034-0.033,0.067-0.05,0.1-0.05
		C7.117,13.617,7.233,12.6,7.5,12c0.167,0.067,0.333,0.15,0.5,0.25c-0.233,1.633-0.317,3.3-0.25,5l-0.3-0.65V16.5z"/>
</g>
</svg>
