<?xml version="1.0" encoding="iso-8859-1"?>
<!-- Generator: Adobe Illustrator 15.1.0, SVG Export Plug-In . SVG Version: 6.00 Build 0)  -->
<!DOCTYPE svg PUBLIC "-//W3C//DTD SVG 1.1//EN" "http://www.w3.org/Graphics/SVG/1.1/DTD/svg11.dtd">
<svg version="1.1" id="FlashAICB" xmlns="http://www.w3.org/2000/svg" xmlns:xlink="http://www.w3.org/1999/xlink" x="0px" y="0px"
	 width="79.25px" height="104.25px" viewBox="0 0 79.25 104.25" style="enable-background:new 0 0 79.25 104.25;"
	 xml:space="preserve">
<g>
	<path style="fill-rule:evenodd;clip-rule:evenodd;fill:#C3B598;" d="M37.4,50.7l1.65-2.7l-1.6,1.15c0.7-1.2,1.233-2.45,1.6-3.75
		l-7,6.75c-0.133,0.067-1.417,0.283-3.85,0.65c2.167-0.933,4.017-2.316,5.55-4.15c1.233-1.5,2.383-3.483,3.45-5.95
		c0.5,0.533,0.917,1.05,1.25,1.55c0.533,1,0.916,1.7,1.149,2.1c0.5,0.8,1.017,1.433,1.551,1.9v0.1C40.25,49.217,39,50,37.4,50.7z
		 M9.3,25.65l-1,0.65l-1-0.1c0.333-0.233,0.917-0.517,1.75-0.85C9.117,25.45,9.2,25.55,9.3,25.65z M14.9,35
		c-0.5,0.3-1.1,0.467-1.8,0.5h-0.05l-0.4-0.4H12.6c-0.434-0.367-1.117-0.85-2.05-1.45c0.733-0.167,1.434-0.783,2.1-1.85l0.4-0.1
		l0.05,1.25L14.85,33L14.9,35z M14.7,29.35l-0.65,0.2l0.2-0.4l0.35,0.15L14.7,29.35z M21.65,34.75l1-1.05
		c0.4,0.267,0.783,0.5,1.15,0.7l0.4,0.2c0.733,0.467,1.4,0.833,2,1.1l0.4,0.15v0.05c-0.167,1.533-0.85,2.85-2.05,3.95
		c-1.133,1.033-2.517,1.633-4.15,1.8c-0.033,0.333-0.217,0.583-0.55,0.75c-0.033-0.033-0.067-0.083-0.1-0.15l-0.15-0.2
		c-0.233-0.333-0.45-0.65-0.65-0.95c-0.1-0.067-0.167-0.117-0.2-0.15c1.167-0.633,1.967-1.467,2.4-2.5
		C21.517,37.55,21.683,36.317,21.65,34.75z M36.2,41.75c-1.867,1.2-4.067,1.917-6.6,2.15c0.066-0.267,0.45-0.75,1.15-1.45
		c0.567-0.6,0.817-1.167,0.75-1.7l4,0.45C35.733,41.4,35.967,41.583,36.2,41.75z M26.65,35.95V35.9L27,36.05l0.65,0.2
		c0,1.733-0.083,2.917-0.25,3.55c-0.2,0.8-0.55,1.534-1.05,2.2c0.3-0.767,0.467-1.767,0.5-3C26.85,38.733,26.783,37.717,26.65,35.95
		z M7.1,20.8c-0.733,0.233-1.633,0.333-2.7,0.3L3.15,21l0.35-0.15l2.9-0.7l0.55-0.25L7.1,20.8z M6.5,22.4h1l0.1,0.2l-1.7-0.05
		c-0.733,0-1.533-0.083-2.4-0.25L6.5,22.4z M16.6,38.6c-0.533-0.533-1.15-1.083-1.85-1.65l0.65-0.05l1.9-0.2
		C17.233,37.233,17,37.867,16.6,38.6z M24.5,44.1l-0.7,0.8c1,0.3,2.167,0.15,3.5-0.45c-1.133,1.733-2.933,2.716-5.4,2.95l-0.6-2
		l-0.05-0.1v-0.05l-0.05-0.1V45.1l-0.15-0.4h0.6l0.05,0.65C22.833,45.083,23.767,44.667,24.5,44.1z M29.55,64.65H29.5
		c-0.533-0.567-0.95-1.067-1.25-1.5C28.517,63.483,28.95,63.983,29.55,64.65z M35.25,66.45c-0.167-0.066-0.317-0.117-0.45-0.15h0.05
		C34.983,66.333,35.117,66.384,35.25,66.45z M26.95,60.55c-0.034-0.033-0.05-0.066-0.05-0.1V60.4
		c-0.033-0.034-0.05-0.067-0.05-0.101l-0.05-0.1c-0.066-0.167-0.133-0.316-0.2-0.45c-0.067-0.1-0.117-0.2-0.15-0.3
		c-0.367-0.934-0.65-1.601-0.85-2c0.4,0.133,0.95,0.267,1.65,0.399c0.667,0.134,1.067,0.217,1.2,0.25
		c1.033,0.2,2.45,0.284,4.25,0.25c2-0.033,3.4,0,4.2,0.101c0,0.434-0.25,0.833-0.75,1.2l-1-0.45c0,0.434-0.433,0.75-1.3,0.95
		c-0.467,0.1-1.033,0.149-1.7,0.149C30.717,60.467,28.983,60.55,26.95,60.55z M26.25,55.7l-1.3,0.6
		c-0.034-0.033-0.05-0.066-0.05-0.1c-0.133-0.267-0.25-0.5-0.35-0.7l-0.35-0.6l0.05,0.05C24.817,55.25,25.483,55.5,26.25,55.7z
		 M39,68.5c0.6,0.033,1.2,0.066,1.8,0.1c-0.366,0.2-0.816,0.351-1.35,0.45c-0.2-0.2-0.467-0.35-0.8-0.45
		C38.783,68.566,38.9,68.533,39,68.5z M49.75,81.7c1.066,0.133,2.083,0.149,3.05,0.05l-0.3,0.6c-1.033,0.534-1.7,0.867-2,1
		c-0.366-0.1-1.5-0.149-3.4-0.149c-1.566,0.033-2.5-0.167-2.8-0.601C46.3,82.6,48.116,82.3,49.75,81.7z M44.15,79.95
		c1.5-0.101,2.933-0.634,4.3-1.601c1,0.067,1.866-0.05,2.6-0.35c0.733-0.233,1.4-0.8,2-1.7c-0.3,0.967-1.233,1.884-2.8,2.75
		c-1.1,0.601-2.717,1.066-4.85,1.4C45.134,80.384,44.717,80.217,44.15,79.95z M42.45,77.8l3.2,0.3c-0.634,0.5-1.384,0.917-2.25,1.25
		c-0.567-0.466-0.884-0.883-0.95-1.25V77.8z M41.55,70.65c-0.233,0.433-0.649,1.033-1.25,1.8c0.5,0.267,1.367,0.333,2.601,0.2
		c1.166-0.134,2-0.051,2.5,0.25c0.199,1.033-0.884,2.05-3.25,3.05L41.35,76l-0.25-0.1c0.167-0.334,0.25-0.733,0.25-1.2
		c0.034-0.533-0.033-0.95-0.199-1.25c-0.167-0.2-0.434-0.417-0.801-0.65c-0.366-0.2-0.616-0.383-0.75-0.55
		c-0.066-0.1-0.1-0.283-0.1-0.55c0.4,0,0.767-0.084,1.1-0.25C40.9,71.316,41.217,71.05,41.55,70.65z M35.55,68.1
		c0.767,0.134,1.55,0.233,2.35,0.301c-0.033,0.033-0.066,0.05-0.1,0.05l-1.35-0.2C36.15,68.217,35.85,68.167,35.55,68.1z M61,69.95
		c-0.134,0.033-0.25,0-0.35-0.101c-0.2-0.166-0.301-0.716-0.301-1.649V66.1c0.034-0.066,0.084-0.116,0.15-0.149
		c0.434,0.833,0.65,1.649,0.65,2.45C61.184,68.8,61.134,69.316,61,69.95z M71.45,95.45l1.899-1.75c0.567-0.5,1.101-1.15,1.601-1.95
		L74.5,93.2c-0.566,1.566-1.366,3.033-2.4,4.399c-0.166,0.2-0.416,0.334-0.75,0.4c-0.033,0-0.3,0-0.8,0
		c-0.233,0-0.434,0.116-0.6,0.35C70.483,97.483,70.983,96.517,71.45,95.45z M55.55,61L55,63.55c0-0.833-0.083-1.467-0.25-1.899
		c-0.3,0.866-0.9,1.583-1.8,2.149l-0.75-4.75V59c0.934,0.634,1.833,1.2,2.7,1.7C55.1,60.8,55.316,60.9,55.55,61z M41.15,62
		l0.199-0.35c1.334-0.5,2.467-1.217,3.4-2.15c0.7-0.667,1.517-1.733,2.45-3.2c-0.233,2.7-1.267,5.117-3.101,7.25
		c-0.166,0.2-0.35,0.417-0.55,0.65c0-0.434,0.101-0.934,0.3-1.5c0.233-0.967,0.267-1.601,0.101-1.9c-0.434,0-1.316,0.367-2.65,1.101
		C41.233,61.934,41.184,61.967,41.15,62z M54.95,64.85c1.066-0.3,1.983-1.166,2.75-2.6c0.5,0.566,0.916,1.066,1.25,1.5
		c-0.033,0.566-0.084,1.217-0.15,1.95c-0.633,0.5-1.467,1.066-2.5,1.7c-0.566,0.333-1.25,0.716-2.05,1.149
		c-0.167-0.233-0.167-0.55,0-0.95c0.2-0.399,0.316-0.699,0.35-0.899L54.95,64.85z M54,73.15l-1.2,0.55
		c0.334-0.7,0.55-1.4,0.65-2.101C53.65,71.934,53.833,72.45,54,73.15z M61.75,84.2l-0.2,0.25c-0.633,0.566-1.366,1.033-2.2,1.399
		H59.3c0.3-0.399,0.5-0.8,0.601-1.199L55.85,84.7c0.334-0.167,0.65-0.384,0.95-0.65c0.566,0.267,1.417,0.25,2.55-0.05
		c0.834-0.2,1.601-0.517,2.301-0.95c0.8-0.366,1.517-0.899,2.149-1.6l-0.5,0.95l-1.25,0.949c-0.399,0.134-0.7,0.334-0.899,0.601
		C61.217,84.05,61.417,84.134,61.75,84.2z M74.65,73.6c0.133,1.467,0.3,2.517,0.5,3.15c0.366,1.434,0.616,3.75,0.75,6.95
		c0.133,1.866-0.017,3.899-0.45,6.1c-0.5,1.2-1.167,2.267-2,3.2c-0.467,0.5-0.767,0.783-0.9,0.85c0.4-0.466,0.667-0.816,0.8-1.05
		c1.2-1.7,1.917-4.017,2.15-6.95c0.066-0.933,0.05-3.399-0.05-7.399l-5.2,13.5c-1.667,0.934-2.783,1.517-3.35,1.75
		c-1,0.434-1.983,0.717-2.95,0.85c0.467-0.899,0.899-1.916,1.3-3.05c0.434-1.467,0.8-2.684,1.1-3.65
		c0.267-0.133,0.7-0.35,1.301-0.649c0.733-0.267,1.25-0.5,1.55-0.7c0.733-0.5,1.416-1.384,2.05-2.65c0.467-1.033,0.8-2.116,1-3.25
		l0.1-0.149C72.816,79.884,73.2,79.1,73.5,78.1c0.033-0.133,0.283-1.033,0.75-2.699L74.65,73.6z M55.4,92.15l-0.45-0.301H55
		c1.366-0.166,2.6-0.416,3.7-0.75L57.75,91.7c-0.1,0.1-0.25,0.2-0.45,0.3c-0.1,0-0.2,0-0.3,0C56.233,92.033,55.7,92.083,55.4,92.15z
		 M57.1,93.65l1.15,1.3L57,93.6c-0.066-0.066-0.134-0.133-0.2-0.199C56.9,93.467,57,93.55,57.1,93.65z"/>
	<path style="fill-rule:evenodd;clip-rule:evenodd;fill:#D9CBB0;" d="M24.95,56.3l1.3-0.6c0.867,0.233,1.983,0.399,3.35,0.5
		c1.7,0.033,3.217-0.517,4.55-1.65c1.033-0.833,2.117-2.117,3.25-3.85c1.6-0.7,2.85-1.483,3.75-2.35v-0.1
		c1.333,1.233,2.316,2.15,2.949,2.75c0.2,0.2,0.4,0.383,0.601,0.55c-0.134,0.3-0.367,0.917-0.7,1.851
		c-0.333,0.767-0.6,1.333-0.8,1.699c-0.134,0.267-0.483,0.733-1.05,1.4c-0.467,0.566-0.767,1.033-0.9,1.4
		c2.967,0.466,5.134-0.5,6.5-2.9c1.333,1.533,2.816,2.884,4.45,4.05l0.75,4.75c0.899-0.566,1.5-1.283,1.8-2.149
		C54.917,62.083,55,62.717,55,63.55L54.9,64.9l0.05-0.051L54.6,66.7c-0.033,0.2-0.149,0.5-0.35,0.899c-0.167,0.4-0.167,0.717,0,0.95
		c0.8-0.434,1.483-0.816,2.05-1.149c1.033-0.634,1.867-1.2,2.5-1.7c0,0.733,0.033,1.267,0.101,1.6
		c0.466-0.233,0.949-0.633,1.449-1.2V68.2c0,0.934,0.101,1.483,0.301,1.649c0.1,0.101,0.216,0.134,0.35,0.101
		c0,0.066-0.017,0.149-0.05,0.25c-0.2,0.8-0.3,1.399-0.3,1.8c0.166,0.033,0.366,0.05,0.6,0.05l-1.75,2.9
		c0.5-2.566,0.45-4.101-0.15-4.601L55.2,76.1c0.033-0.1,0.184-1.433,0.45-4c0.066-1.433,0.083-2.35,0.05-2.75l-1.5,3.75L54,73.15
		c-0.167-0.7-0.35-1.217-0.55-1.551C53.35,72.3,53.134,73,52.8,73.7l-4.55,1.85l0.65-0.45c0.533-0.533,0.966-1.116,1.3-1.75
		c0.333-0.767,0.6-1.416,0.8-1.949l-3.1,2.1c-0.367,0.733-0.834,1.267-1.4,1.6c-0.467,0.233-1.167,0.434-2.1,0.601l-2.25,0.25
		c2.366-1,3.449-2.017,3.25-3.05c-0.5-0.301-1.334-0.384-2.5-0.25c-1.233,0.133-2.101,0.066-2.601-0.2
		c0.601-0.767,1.017-1.367,1.25-1.8c0.367-0.467,0.834-1.167,1.4-2.101c0.166-0.033,0.434-0.184,0.8-0.45
		c1.033-0.833,1.917-1.816,2.65-2.949c-0.267-0.2-0.667-0.284-1.2-0.25L47.1,61.8l-2.85,3.15c-0.3,0-0.533-0.033-0.7-0.101
		c-0.033-0.166-0.033-0.383,0-0.649c0.2-0.233,0.384-0.45,0.55-0.65c1.834-2.133,2.867-4.55,3.101-7.25
		c-0.934,1.467-1.75,2.533-2.45,3.2c-0.934,0.934-2.066,1.65-3.4,2.15L41.65,61l-2.95,1.35l-0.15-0.05
		c-0.167-0.566-0.283-1.017-0.35-1.35c-0.167-0.533-0.483-0.767-0.95-0.7l-1.1-0.6c0.5-0.367,0.75-0.767,0.75-1.2
		c-0.8-0.101-2.2-0.134-4.2-0.101c-1.8,0.034-3.217-0.05-4.25-0.25c-0.133-0.033-0.534-0.116-1.2-0.25
		c-0.7-0.133-1.25-0.267-1.65-0.399c0-0.033-0.017-0.066-0.05-0.101c-0.167-0.399-0.333-0.699-0.5-0.899
		C25.017,56.384,24.983,56.333,24.95,56.3z M26.8,60.2c-0.066-0.134-0.133-0.267-0.2-0.4v-0.05
		C26.667,59.884,26.733,60.033,26.8,60.2z M36.2,41.75c0.333,0.333,0.667,0.65,1,0.95c-1.067,2.466-2.217,4.45-3.45,5.95
		c-1.533,1.833-3.383,3.217-5.55,4.15c-1.667,0.267-3.2,0.45-4.6,0.55c-0.267-0.7-0.517-1.466-0.75-2.3
		c-1.033-3.767-1.567-5.683-1.6-5.75l0.05,0.1l0.6,2c2.467-0.233,4.267-1.217,5.4-2.95c0.633-0.333,1.083-0.633,1.35-0.9
		c0.633-0.6,1.233-1.417,1.8-2.45c0.4-0.133,0.75-0.25,1.05-0.35c0.667-0.267,1.2-0.5,1.6-0.7l0.55-0.3
		c0.4,0.3,0.767,0.583,1.1,0.85c0.267,0.2,0.517,0.4,0.75,0.6l-4-0.45c0.067,0.533-0.183,1.1-0.75,1.7
		c-0.7,0.7-1.083,1.183-1.15,1.45C32.133,43.667,34.333,42.95,36.2,41.75z M24.5,44.1c-0.733,0.566-1.667,0.983-2.8,1.25l-0.05-0.65
		h-0.6c-0.267-0.767-0.667-1.534-1.2-2.3c0.333-0.167,0.517-0.417,0.55-0.75c1.633-0.167,3.017-0.767,4.15-1.8
		c1.2-1.1,1.883-2.417,2.05-3.95l0.05,0.05c0.133,1.767,0.2,2.783,0.2,3.05c-0.033,1.233-0.2,2.233-0.5,3
		C25.883,42.633,25.267,43.333,24.5,44.1z M1.1,21.2l0.35,0.9l5.05,0.3l-3-0.1c0.867,0.167,1.667,0.25,2.4,0.25l1.7,0.05l-0.1-0.2
		l-0.4-1.6l-0.15-0.9L6.4,20.15l-2.9,0.7L3.15,21l-2.2-0.2c-0.067-0.233-0.133-0.433-0.2-0.6c-0.1-0.133-0.167-0.267-0.2-0.4
		c2.967-0.667,5.05-1.333,6.25-2c0.133-1.767,0.267-3.383,0.4-4.85c-0.1,1.7-0.217,3.617-0.35,5.75
		c0.133,1.533,0.383,2.833,0.75,3.9c0.133,0.4,0.283,0.8,0.45,1.2c0.3,0.534,0.633,1.05,1,1.55c-0.833,0.333-1.417,0.617-1.75,0.85
		l1,0.1c-1.1,0.667-1.867,1.2-2.3,1.6c-0.733,0.1-1.567,0.117-2.5,0.05c-0.433-0.833-0.917-2.233-1.45-4.2
		C1.65,22.683,1.333,21.833,1.1,21.2z M14.6,29.3l-0.35-0.15l-0.9-0.55C13.75,28.833,14.167,29.067,14.6,29.3z M14.7,29.35
		c1.033,0.566,2.233,1.217,3.6,1.95l-1.35,0.6c-0.1,0.633-0.284,1.2-0.55,1.7l-0.95,0.2l0.95-0.15
		c-0.333,0.567-0.833,1.017-1.5,1.35l-0.05-2l-1.75-0.05l-0.05-1.25l-0.4,0.1l1.4-2.25L14.7,29.35z M20.35,32.4l-0.4-0.25
		c0.466,0.267,0.9,0.533,1.3,0.8L20.35,32.4z M27,36.05c0.333,0.067,0.783,0.2,1.35,0.4c0.9,0.333,1.566,0.667,2,1
		c-0.3-0.2-0.817-0.45-1.55-0.75l-1.15-0.45L27,36.05z M21.65,34.75c0.033,1.567-0.133,2.8-0.5,3.7
		c-0.433,1.033-1.233,1.867-2.4,2.5c-0.333-0.434-0.683-0.85-1.05-1.25c-0.333-0.333-0.7-0.7-1.1-1.1c0.4-0.733,0.633-1.367,0.7-1.9
		l-1.9,0.2l2.85-0.4C19.517,36.2,20.65,35.617,21.65,34.75z M10.55,33.65c0.934,0.6,1.617,1.083,2.05,1.45
		c-0.467-0.367-2.017-1.35-4.65-2.95c-0.333-0.2-0.65-0.4-0.95-0.6C8.6,32.483,9.783,33.183,10.55,33.65z M38.65,68.6L37.8,68.45
		c0.034,0,0.067-0.017,0.1-0.05c0.367,0.033,0.733,0.066,1.1,0.1C38.9,68.533,38.783,68.566,38.65,68.6z M45,84.15l1.95,1.699
		l0.5,0.551l-2.75-2.45c-0.233-0.2-0.45-0.4-0.65-0.601C44.35,83.616,44.667,83.884,45,84.15z M50.4,81.1l-1.65,0.25l1-0.199
		L50.4,81.1z M43.4,79.35c0.866-0.333,1.616-0.75,2.25-1.25c1.166,0.167,2.1,0.25,2.8,0.25c-1.367,0.967-2.8,1.5-4.3,1.601
		l-0.65-0.5L43.4,79.35z M60.9,62.75l-0.95-0.25c-0.134-0.033-0.267-0.066-0.4-0.1c0.934,0.199,2.033,0.416,3.3,0.649L62.5,63
		C61.934,62.934,61.4,62.85,60.9,62.75z M58,80.45c1.1-0.867,2.017-2.334,2.75-4.4c0.333-1.033,0.667-2.399,1-4.1
		c0.366-0.066,0.783-0.217,1.25-0.45c0.134,1.5,0.033,3.066-0.3,4.7c-0.2,1-0.601,2.5-1.2,4.5c0.566,0.5,1.4,0.616,2.5,0.35
		l-0.2,0.4c-0.633,0.7-1.35,1.233-2.149,1.6c-0.7,0.434-1.467,0.75-2.301,0.95c-1.133,0.3-1.983,0.316-2.55,0.05
		c2.3-2.1,3.517-3.7,3.65-4.8C59.783,79.717,58.967,80.116,58,80.45z M52.8,81.75c0.2,0,0.601-0.05,1.2-0.15l-1.5,0.75L52.8,81.75z
		 M71.6,95c0.367-0.366,0.684-0.75,0.95-1.15c0.134-0.066,0.434-0.35,0.9-0.85c0.833-0.934,1.5-2,2-3.2l-0.5,1.95
		c-0.5,0.8-1.033,1.45-1.601,1.95l-1.899,1.75L71.6,95z M46.15,53.05c-0.101-0.1-0.2-0.216-0.301-0.35c0.4,0.399,0.733,0.8,1,1.2
		L46.15,53.05z M49.55,88.8c0.066,0.066,0.134,0.15,0.2,0.25c-0.134-0.133-0.233-0.25-0.3-0.35c-0.5-0.634-0.867-1.117-1.101-1.45
		l0.2,0.25L49.55,88.8z M59.9,96.6c-0.167-0.166-0.384-0.383-0.65-0.649c0.233,0.2,0.417,0.35,0.55,0.45L59.9,96.6z M54.55,91.55
		c-0.3-0.166-0.883-0.35-1.75-0.55c-0.7-0.134-1.25-0.316-1.649-0.55C51.517,90.616,52.1,90.8,52.9,91
		C53.634,91.134,54.184,91.316,54.55,91.55z M61.55,84.45l0.2-0.25v0.05L61.55,84.45z"/>
	<path style="fill-rule:evenodd;clip-rule:evenodd;fill:#655C49;" d="M26.25,55.7c-0.767-0.2-1.433-0.45-2-0.75L24.2,54.9L23.7,53.8
		h0.05c2.8,0.066,5.3-0.05,7.5-0.35l6.2-4.3l1.6-1.15l-1.65,2.7c-1.133,1.733-2.217,3.017-3.25,3.85
		c-1.333,1.134-2.85,1.684-4.55,1.65C28.233,56.1,27.117,55.934,26.25,55.7z M7.2,12.95c-0.133,1.466-0.267,3.083-0.4,4.85
		c-1.2,0.667-3.283,1.333-6.25,2c-0.033-0.133-0.05-0.233-0.05-0.3c-0.4-1.167-0.55-2.15-0.45-2.95L1.6,7.7c0-0.8,0.133-2.1,0.4-3.9
		C2.233,2.133,2.317,0.867,2.25,0l3.4,2.3C6.483,3.533,6.967,5.217,7.1,7.35c0.1,0.9,0.15,1.983,0.15,3.25L7.2,12.95z M12.45,28.05
		C8.417,29.683,5.9,30.033,4.9,29.1c0.267-0.467,0.633-0.867,1.1-1.2c0.433-0.4,1.2-0.933,2.3-1.6l1-0.65
		c0.6,0.7,1.333,1.317,2.2,1.85C11.767,27.667,12.083,27.85,12.45,28.05z M16.4,33.6c0.733-0.267,1.617-0.9,2.65-1.9
		c0.133,0.1,0.284,0.183,0.45,0.25l0.45,0.2l0.4,0.25c-0.967,0.5-2.283,0.917-3.95,1.25l-0.95,0.15L16.4,33.6z M28.8,36.7
		c0.733,0.3,1.25,0.55,1.55,0.75c1.333,0.9,2.433,1.667,3.3,2.3l-0.55,0.3c-0.4,0.2-0.934,0.434-1.6,0.7
		c-0.3,0.1-0.65,0.217-1.05,0.35c-1.3,0.333-2.367,0.483-3.2,0.45C28.283,40.117,28.8,38.5,28.8,36.7z M40.8,68.6
		c0.367,0,0.717,0,1.05,0c0.467,0,0.801,0,1,0c-0.8,1.067-1.883,1.75-3.25,2.051l-1.149,0.1c-1.2,0.1-2.417,0.1-3.65,0
		c-0.466-0.6-0.9-1.167-1.3-1.7c1.033,0.101,2.533,0.15,4.5,0.15l1.45-0.15C39.983,68.95,40.434,68.8,40.8,68.6z M46.95,85.85
		L45,84.15c1.467,0.066,2.667,0.017,3.6-0.15c0.7-0.134,1.334-0.35,1.9-0.65c0.3-0.133,0.967-0.466,2-1L54,81.6
		c-0.6,0.101-1,0.15-1.2,0.15c-0.967,0.1-1.983,0.083-3.05-0.05c-0.366-0.066-0.6-0.134-0.7-0.2l-0.3-0.15l1.65-0.25l0.85-0.199
		c1.833-1.167,3.134-2.767,3.9-4.801h0.05l4.149-5.75c0.601,0.5,0.65,2.034,0.15,4.601c-0.134,0.967-0.316,1.717-0.55,2.25
		c-0.7,2.1-1.584,3.383-2.65,3.85l1.7-0.6c0.967-0.334,1.783-0.733,2.45-1.2c-0.134,1.1-1.351,2.7-3.65,4.8
		c-0.3,0.267-0.616,0.483-0.95,0.65c-0.666,0.467-1.399,0.767-2.199,0.899c-0.467,0.067-1.334,0.117-2.601,0.15L46.95,85.85z
		 M45.65,78.1l-3.2-0.3c-1.533-0.267-2.533-0.75-3-1.45c0.434-0.199,1.083-0.3,1.95-0.3l2.35,0.101c1.866,0,3.366-0.2,4.5-0.601
		l4.55-1.85l1.2-0.55l0.2-0.051l0.7-0.399c-0.134,0.333-0.384,0.916-0.75,1.75c-0.4,0.733-0.767,1.35-1.101,1.85
		c-0.6,0.9-1.267,1.467-2,1.7c-0.733,0.3-1.6,0.417-2.6,0.35C47.75,78.35,46.816,78.267,45.65,78.1z M61.55,84.45l0.2-0.2V84.2
		c-0.333-0.066-0.533-0.15-0.6-0.25c0.199-0.267,0.5-0.467,0.899-0.601L63.3,82.4l0.5-0.95l0.2-0.4c0.333-0.066,0.667-0.184,1-0.35
		c1.3-0.5,2.366-1.134,3.2-1.9c1.434-1.366,2.316-2.566,2.649-3.6c0.834-0.967,1.5-1.717,2-2.25L73.2,69
		c-1.233-2.2-1.884-3.684-1.95-4.45V64.5c0.467,0.134,0.967,0.3,1.5,0.5l0.4,0.25c0.267,0.1,0.517,0.2,0.75,0.3
		c1.033,0.5,1.933,1.733,2.699,3.7c0.434,1.066,0.967,2.583,1.601,4.55c0.899,2.134,1.217,4.601,0.95,7.4
		c-0.134,1.233-0.233,2.95-0.301,5.149c-0.1,2.5-0.183,4.233-0.25,5.2c-0.066,1.101-0.149,2.867-0.25,5.3
		c-0.133,2.101-0.399,3.817-0.8,5.15c-0.666,2.134-2.233,2.75-4.7,1.85c-1.366-0.5-3.399-1.466-6.1-2.899
		c-0.566-0.2-1.3-0.45-2.2-0.75c-0.733-0.3-1.45-0.767-2.149-1.4c-0.334-0.333-0.817-0.783-1.45-1.35h0.1
		c0.601-0.033,0.95-0.066,1.05-0.101c0.067-0.066,0.267-0.316,0.601-0.75C62.833,96.4,62.967,96.2,63.1,96
		c0.534-0.1,1-0.184,1.4-0.25c1.434-0.333,2.667-0.833,3.7-1.5c0.666-0.434,1.399-1.017,2.2-1.75c0.866-0.8,1.533-1.417,2-1.85
		C72.5,91.85,72.233,93.3,71.6,95l-0.149,0.45c-0.467,1.066-0.967,2.033-1.5,2.899c0.166-0.233,0.366-0.35,0.6-0.35
		c0.5,0,0.767,0,0.8,0c0.334-0.066,0.584-0.2,0.75-0.4c0.534-0.366,1.051-1.05,1.551-2.05c0.033-0.033,0.333-0.783,0.899-2.25
		c0.8-2,1.3-4.35,1.5-7.05c0.134-1.134,0.217-3.583,0.25-7.35c0-1.667-0.116-3.233-0.35-4.7c-0.033-0.267-0.351-0.983-0.95-2.15
		l-0.35,1.55l-0.4,1.801c-0.467,1.666-0.717,2.566-0.75,2.699c-0.3,1-0.684,1.784-1.15,2.351c-0.333,0.434-0.716,0.816-1.149,1.149
		c-1.7,1.367-3.533,2.2-5.5,2.5c-1.9,0.167-2.917,0.25-3.05,0.25l-1.101,1c-1.366,1.233-2.767,2.117-4.2,2.65
		c-1.466,0.6-2.949,0.9-4.449,0.9c-1.733,0-2.851-0.034-3.351-0.101l-1-1.3c1.8,0,2.717,0,2.75,0c3.367-0.3,6.033-0.85,8-1.65h0.05
		C60.184,85.483,60.917,85.017,61.55,84.45z M45.2,64.9c-0.066,0-0.117,0-0.15,0c-0.333,0.033-0.6,0.05-0.8,0.05l2.85-3.15
		L45.2,64.9z M58.7,91.1l4.55-2.8l-0.9,1.45L60.9,90.9c-0.034,0.433-0.851,0.783-2.45,1.05C58.35,91.983,57.967,92,57.3,92
		c0.2-0.1,0.351-0.2,0.45-0.3L58.7,91.1z M60.45,97.05c-0.167-0.133-0.351-0.283-0.55-0.45L59.8,96.4L60.45,97.05z"/>
	<path style="fill-rule:evenodd;clip-rule:evenodd;fill:#94866B;" d="M23.6,53.35c1.4-0.1,2.933-0.283,4.6-0.55
		c2.433-0.367,3.716-0.583,3.85-0.65l7-6.75c-0.367,1.3-0.9,2.55-1.6,3.75l-6.2,4.3c-2.2,0.3-4.7,0.416-7.5,0.35H23.7l-0.15-0.45
		H23.6z M28.8,36.7c0,1.8-0.517,3.417-1.55,4.85c0.833,0.034,1.9-0.117,3.2-0.45c-0.567,1.033-1.167,1.85-1.8,2.45
		c-0.267,0.267-0.717,0.567-1.35,0.9c-1.333,0.6-2.5,0.75-3.5,0.45l0.7-0.8c0.767-0.767,1.383-1.467,1.85-2.1
		c0.5-0.667,0.85-1.4,1.05-2.2c0.167-0.633,0.25-1.816,0.25-3.55L28.8,36.7z M20.35,32.4l0.9,0.55l1.4,0.75l-1,1.05
		c-1,0.867-2.133,1.45-3.4,1.75l-2.85,0.4l-0.65,0.05l-1.7-1.45h0.05c0.7-0.033,1.3-0.2,1.8-0.5c0.667-0.333,1.167-0.783,1.5-1.35
		C18.067,33.317,19.383,32.9,20.35,32.4z M10.55,33.65C9.783,33.183,8.6,32.483,7,31.55c-0.067-0.033-0.117-0.066-0.15-0.1
		c-0.033-0.034-0.067-0.05-0.1-0.05c-0.2-0.167-0.383-0.316-0.55-0.45L6,30.8c-0.9-0.733-1.6-1.466-2.1-2.2
		c-0.033-0.033-0.066-0.067-0.1-0.1c-0.1-0.133-0.2-0.317-0.3-0.55C4.433,28.017,5.267,28,6,27.9c-0.467,0.333-0.833,0.733-1.1,1.2
		c1,0.933,3.517,0.583,7.55-1.05c0.167,0.1,0.367,0.217,0.6,0.35l0.3,0.2l0.9,0.55l-0.2,0.4l-1.4,2.25
		C11.983,32.867,11.283,33.483,10.55,33.65z M19.05,31.7c-1.033,1-1.917,1.633-2.65,1.9c0.267-0.5,0.45-1.067,0.55-1.7l1.35-0.6
		C18.533,31.433,18.783,31.567,19.05,31.7z M3.15,21l1.25,0.1c1.067,0.033,1.967-0.067,2.7-0.3l0.4,1.6h-1l-5.05-0.3L1.1,21.2
		l-0.15-0.4L3.15,21z M29.675,64.825c-0.056-0.057-0.114-0.114-0.175-0.175h0.05C29.58,64.71,29.622,64.769,29.675,64.825z
		 M37.8,68.45l0.85,0.149c0.333,0.101,0.6,0.25,0.8,0.45L38,69.2c-1.967,0-3.467-0.05-4.5-0.15L30.15,65.4
		c-0.167-0.2-0.316-0.384-0.45-0.551c0.033,0.034,0.066,0.067,0.1,0.101l2,2.2l0.8,0.25c0.933,0.267,1.917,0.5,2.95,0.699
		c0.3,0.067,0.6,0.117,0.9,0.15L37.8,68.45z M34.85,66.3H34.8c-0.133-0.033-0.267-0.066-0.4-0.1
		C34.567,66.233,34.717,66.267,34.85,66.3z M41.15,62c-1.167,0.6-1.95,0.783-2.351,0.55l0.05-0.2H38.7L41.65,61l-0.301,0.65
		L41.15,62z M42.85,68.6c0.034-0.033,0.067-0.05,0.101-0.05c-0.566,0.934-1.033,1.634-1.4,2.101c-0.333,0.399-0.649,0.666-0.95,0.8
		c-0.333,0.166-0.699,0.25-1.1,0.25c0,0.267,0.033,0.45,0.1,0.55c0.134,0.167,0.384,0.35,0.75,0.55
		c0.367,0.233,0.634,0.45,0.801,0.65c0.166,0.3,0.233,0.717,0.199,1.25c0,0.467-0.083,0.866-0.25,1.2l0.25,0.1l0.801-0.05l2.25-0.25
		c0.933-0.167,1.633-0.367,2.1-0.601c0.566-0.333,1.033-0.866,1.4-1.6l3.1-2.1c-0.2,0.533-0.467,1.183-0.8,1.949
		c-0.334,0.634-0.767,1.217-1.3,1.75l-0.65,0.45c-1.134,0.4-2.634,0.601-4.5,0.601L41.4,76.05c-0.867,0-1.517,0.101-1.95,0.3
		c0.467,0.7,1.467,1.184,3,1.45v0.3c0.066,0.367,0.383,0.784,0.95,1.25l0.1,0.101l0.65,0.5c0.566,0.267,0.983,0.434,1.25,0.5
		c2.133-0.334,3.75-0.8,4.85-1.4c1.566-0.866,2.5-1.783,2.8-2.75c0.334-0.5,0.7-1.116,1.101-1.85c0.366-0.834,0.616-1.417,0.75-1.75
		L54.2,73.1l1.5-3.75c0.033,0.4,0.017,1.317-0.05,2.75c-0.267,2.567-0.417,3.9-0.45,4h-0.05c-0.767,2.034-2.067,3.634-3.9,4.801
		L50.4,81.1l-0.65,0.051l-1,0.199l0.3,0.15c0.101,0.066,0.334,0.134,0.7,0.2C48.116,82.3,46.3,82.6,44.3,82.6
		c0.3,0.434,1.233,0.634,2.8,0.601c1.9,0,3.034,0.05,3.4,0.149c-0.566,0.301-1.2,0.517-1.9,0.65c-0.933,0.167-2.133,0.217-3.6,0.15
		c-0.333-0.267-0.65-0.534-0.95-0.801l-2.3-2.6c-0.566-0.767-1.283-1.783-2.15-3.05l-0.8-1.2l-0.1-0.05l-0.75-1.15L38,75.35
		l-3.2-4.6c1.233,0.1,2.45,0.1,3.65,0l1.149-0.1C40.967,70.35,42.05,69.667,42.85,68.6z M71.25,64.5v0.05
		c0.066,0.767,0.717,2.25,1.95,4.45l-0.351,3.95c-0.5,0.533-1.166,1.283-2,2.25c0-0.033,0-0.066,0-0.101
		c0.134-0.267,0.167-0.716,0.101-1.35c0-0.634,0.05-1.083,0.149-1.35c0.067-0.2,0.267-0.617,0.601-1.25
		c0.267-0.534,0.416-0.983,0.45-1.351c0.033-0.666-0.284-1.649-0.95-2.95L69.6,64.2l-0.05-0.15
		C70.283,64.217,70.85,64.366,71.25,64.5z M55.55,61c0.066,0.033,0.15,0.066,0.25,0.1l2.05,0.851c-0.066,0-0.116-0.017-0.149-0.05
		l-0.2,0.149c0.066,0.066,0.134,0.134,0.2,0.2c-0.767,1.434-1.684,2.3-2.75,2.6L54.9,64.9L55,63.55L55.55,61z M61.75,71.95
		c-0.333,1.7-0.667,3.066-1,4.1c-0.733,2.066-1.65,3.533-2.75,4.4l-1.7,0.6c1.066-0.467,1.95-1.75,2.65-3.85
		c0.233-0.533,0.416-1.283,0.55-2.25l1.75-2.9C61.384,72.017,61.55,71.983,61.75,71.95z M72.1,97.6
		c1.034-1.366,1.834-2.833,2.4-4.399l0.45-1.45l0.5-1.95c0.434-2.2,0.583-4.233,0.45-6.1c-0.134-3.2-0.384-5.517-0.75-6.95
		c-0.2-0.634-0.367-1.684-0.5-3.15L75,72.05c0.6,1.167,0.917,1.884,0.95,2.15c0.233,1.467,0.35,3.033,0.35,4.7
		c-0.033,3.767-0.116,6.216-0.25,7.35c-0.2,2.7-0.7,5.05-1.5,7.05c-0.566,1.467-0.866,2.217-0.899,2.25
		C73.15,96.55,72.634,97.233,72.1,97.6z M72.55,93.85c-0.267,0.4-0.583,0.784-0.95,1.15c0.634-1.7,0.9-3.15,0.801-4.35
		c-0.467,0.433-1.134,1.05-2,1.85c-0.801,0.733-1.534,1.316-2.2,1.75c-1.033,0.667-2.267,1.167-3.7,1.5
		c-0.4,0.066-0.866,0.15-1.4,0.25c0.301-0.434,0.584-0.917,0.851-1.45c0.967-0.133,1.95-0.416,2.95-0.85
		c0.566-0.233,1.683-0.816,3.35-1.75l5.2-13.5c0.1,4,0.116,6.467,0.05,7.399c-0.233,2.934-0.95,5.25-2.15,6.95
		C73.217,93.033,72.95,93.384,72.55,93.85z M58.8,65.7c0.066-0.733,0.117-1.384,0.15-1.95c0.434,0.5,0.767,0.917,1,1.25
		c0.2,0.333,0.383,0.65,0.55,0.95c-0.066,0.033-0.116,0.083-0.15,0.149c-0.5,0.567-0.983,0.967-1.449,1.2
		C58.833,66.967,58.8,66.434,58.8,65.7z M48.55,87.5l-0.2-0.25L47.45,86.4l-0.5-0.551l4.1-0.1c1.267-0.033,2.134-0.083,2.601-0.15
		c0.8-0.133,1.533-0.433,2.199-0.899l4.051-0.05C59.8,85.05,59.6,85.45,59.3,85.85c-1.967,0.801-4.633,1.351-8,1.65
		C51.267,87.5,50.35,87.5,48.55,87.5z M66.35,87.85c0.2-0.767,0.367-1.399,0.5-1.899l-4.5,3.8l0.9-1.45l-4.55,2.8
		c-1.101,0.334-2.334,0.584-3.7,0.75h-0.05l-0.4-0.3c-0.366-0.233-0.916-0.416-1.649-0.55c-0.801-0.2-1.384-0.384-1.75-0.55
		c-0.067-0.033-0.117-0.066-0.15-0.101c-0.3-0.233-0.684-0.633-1.15-1.199l-0.1-0.101c-0.066-0.1-0.134-0.184-0.2-0.25
		c0.5,0.066,1.617,0.101,3.351,0.101c1.5,0,2.983-0.301,4.449-0.9c1.434-0.533,2.834-1.417,4.2-2.65l1.101-1
		c0.133,0,1.149-0.083,3.05-0.25c1.967-0.3,3.8-1.133,5.5-2.5c0.434-0.333,0.816-0.716,1.149-1.149l-0.1,0.149
		c-0.2,1.134-0.533,2.217-1,3.25c-0.634,1.267-1.316,2.15-2.05,2.65c-0.3,0.2-0.816,0.434-1.55,0.7
		C67.05,87.5,66.616,87.717,66.35,87.85z"/>
	<path style="fill-rule:evenodd;clip-rule:evenodd;fill:#4E402D;" d="M38.55,62.3l0.15,0.05h0.15l-0.05,0.2l-0.05,0.3
		c-0.1,0.233-0.267,0.5-0.5,0.801c-0.033,0-0.05,0.017-0.05,0.05l-0.05,0.05c0,0.033-0.017,0.066-0.05,0.1
		c-0.033,0-0.05,0.034-0.05,0.101c-0.433,0.6-0.7,0.983-0.8,1.149c0.033,0.034,0.083,0.051,0.15,0.051l0.65,0.25
		c0.367,0.1,0.867,0.216,1.5,0.35L39.9,65.8c0.5,0.134,0.949,0.267,1.35,0.4c0.467,0.166,0.85,0.366,1.15,0.6
		c-0.233,0.367-1.034,0.467-2.4,0.3c-0.167-0.033-0.366-0.066-0.6-0.1l-4.15-0.55c-0.133-0.066-0.267-0.117-0.4-0.15
		s-0.283-0.066-0.45-0.1l-0.85-0.45c-0.133-0.066-0.3-0.167-0.5-0.3c-0.066-0.033-0.133-0.084-0.2-0.15
		c-0.233-0.2-0.467-0.316-0.7-0.35H32c-0.033,0-0.1,0.017-0.2,0.05c-0.167,0-0.383,0.033-0.65,0.1L30.5,65.15
		c-0.133,0-0.367-0.067-0.7-0.2c-0.033-0.033-0.066-0.066-0.1-0.101l-0.025-0.024c-0.053-0.057-0.095-0.115-0.125-0.175
		c-0.6-0.667-1.033-1.167-1.3-1.5L27.5,61.85l0.05-0.05l0.05-0.2c0.433-0.566,1.233-0.783,2.4-0.649c1.3,0.333,2.15,0.533,2.55,0.6
		l0.5,0.25C34.75,62.033,36.583,62.2,38.55,62.3z M69.55,64.05l0.05,0.15c0.167,0.434,0.25,0.899,0.25,1.399
		c0,0.301-0.033,0.784-0.1,1.45v2.4c-0.066,0.267-0.134,0.533-0.2,0.8l-0.5,1.25c-0.033,0.033-0.066,0.066-0.1,0.1
		c-0.066,0.134-0.117,0.25-0.15,0.351c-0.1,0.133-0.184,0.25-0.25,0.35c-0.566,0.8-1.166,1.3-1.8,1.5c-0.3,0.066-0.616,0.066-0.95,0
		c-0.2-0.399-0.1-1.416,0.3-3.05c0.267-1.4,0.034-2.384-0.699-2.95c-0.167,0.134-0.351,0.4-0.551,0.8
		c-0.199,0.334-0.449,0.551-0.75,0.65c-0.3-0.167-0.533-0.684-0.699-1.55c-0.034-0.167-0.051-0.3-0.051-0.4v-0.05
		c-0.066-0.333-0.116-0.616-0.149-0.85c-0.066-0.067-0.101-0.134-0.101-0.2L63.05,66.1v-0.05c0-0.033,0-0.066,0-0.1
		c-0.066-0.2-0.116-0.367-0.149-0.5l-0.5-1.15c-0.101-0.166-0.2-0.333-0.301-0.5c-0.1-0.1-0.199-0.2-0.3-0.3L61,62.85
		c-0.033-0.033-0.066-0.066-0.1-0.1c0.5,0.1,1.033,0.184,1.6,0.25l0.35,0.05l1.101,0.15c0.434,0.033,0.866,0.083,1.3,0.149
		c1.6,0.2,2.866,0.4,3.8,0.601C69.217,63.983,69.384,64.017,69.55,64.05z M46.85,53.9c0.233,0.3,0.483,0.583,0.75,0.85
		c-1.1,1.066-2.216,1.533-3.35,1.4c0.533-0.601,1.167-1.634,1.9-3.101L46.85,53.9z M58.25,94.95l-1.15-1.3
		c0.134-0.167,0.467-0.233,1-0.2c0.534,0.033,0.9,0.05,1.101,0.05c1.434-0.134,2.517-0.483,3.25-1.05l0.8-0.75
		c-0.566,1.434-0.917,2.267-1.05,2.5c-0.101,0.133-0.184,0.25-0.25,0.35c-0.467,0.5-1.066,0.783-1.8,0.851c-0.067,0-0.117,0-0.15,0
		c-0.366,0.066-0.816,0.05-1.35-0.051L58.25,94.95z M68.5,74.85c0.033,0.801-0.116,1.4-0.45,1.801
		c-0.033,0.033-0.083,0.083-0.149,0.149c-0.233,0.267-0.7,0.517-1.4,0.75c-0.134,0.033-0.283,0.066-0.45,0.101
		c-0.1,0.033-0.184,0.05-0.25,0.05c-0.866,0.166-1.399,0.083-1.6-0.25c0.133-0.434,0.267-0.767,0.399-1
		c0.134-0.367,0.284-0.667,0.45-0.9l3.4-1.3C68.483,74.483,68.5,74.684,68.5,74.85z"/>
	<path style="fill-rule:evenodd;clip-rule:evenodd;fill:#342B1E;" d="M27.5,61.85l-0.6-1.3h0.05c2.033,0,3.767-0.083,5.2-0.25
		c0.667,0,1.233-0.05,1.7-0.149c0.867-0.2,1.3-0.517,1.3-0.95l1,0.45l1.1,0.6c0.467-0.066,0.783,0.167,0.95,0.7
		c0.066,0.333,0.183,0.783,0.35,1.35c-1.966-0.1-3.8-0.267-5.5-0.5l-0.5-0.25c-0.4-0.066-1.25-0.267-2.55-0.6
		c-1.167-0.134-1.967,0.083-2.4,0.649l-0.05,0.2L27.5,61.85z M38.8,62.55c0.4,0.233,1.184,0.05,2.351-0.55
		c0.033-0.033,0.083-0.066,0.149-0.1c1.334-0.733,2.217-1.101,2.65-1.101c0.166,0.3,0.133,0.934-0.101,1.9
		c-0.199,0.566-0.3,1.066-0.3,1.5c-0.033,0.267-0.033,0.483,0,0.649c0.167,0.067,0.4,0.101,0.7,0.101c0.2,0,0.467-0.017,0.8-0.05
		c0.033,0,0.084,0,0.15,0c0.533-0.034,0.934,0.05,1.2,0.25c-0.733,1.133-1.617,2.116-2.65,2.949c-0.366,0.267-0.634,0.417-0.8,0.45
		c-0.033,0-0.066,0.017-0.101,0.05c-0.199,0-0.533,0-1,0c-0.333,0-0.683,0-1.05,0c-0.6-0.033-1.2-0.066-1.8-0.1
		c-0.367-0.033-0.733-0.066-1.1-0.1c-0.8-0.067-1.583-0.167-2.35-0.301c-1.033-0.199-2.017-0.433-2.95-0.699l-0.8-0.25l-2-2.2
		c0.333,0.133,0.567,0.2,0.7,0.2l0.65-0.051c0.267-0.066,0.483-0.1,0.65-0.1c0.1-0.033,0.167-0.05,0.2-0.05h0.15
		c0.233,0.033,0.467,0.149,0.7,0.35c0.066,0.066,0.133,0.117,0.2,0.15c0.2,0.133,0.367,0.233,0.5,0.3l0.85,0.45
		c0.133,0.033,0.267,0.066,0.4,0.1s0.284,0.084,0.45,0.15L39.4,67c0.233,0.033,0.433,0.066,0.6,0.1c1.366,0.167,2.167,0.067,2.4-0.3
		c-0.301-0.233-0.684-0.434-1.15-0.6c-0.4-0.134-0.85-0.267-1.35-0.4l-0.351-0.05c-0.633-0.134-1.133-0.25-1.5-0.35l-0.65-0.25
		c-0.066,0-0.117-0.017-0.15-0.051c0.1-0.166,0.367-0.55,0.8-1.149c0-0.066,0.017-0.101,0.05-0.101c0.033-0.033,0.05-0.066,0.05-0.1
		l0.05-0.05c0-0.033,0.017-0.05,0.05-0.05c0.233-0.301,0.4-0.567,0.5-0.801L38.8,62.55z M60.5,65.95
		c-0.167-0.3-0.35-0.617-0.55-0.95c-0.233-0.333-0.566-0.75-1-1.25c-0.334-0.434-0.75-0.934-1.25-1.5
		c-0.066-0.066-0.134-0.134-0.2-0.2l0.2-0.149c0.033,0.033,0.083,0.05,0.149,0.05l0.301,0.1c0.166,0.033,0.35,0.084,0.55,0.15
		c0.066,0.033,0.149,0.05,0.25,0.05l0.6,0.15c0.134,0.033,0.267,0.066,0.4,0.1l0.95,0.25c0.033,0.033,0.066,0.066,0.1,0.1l0.8,0.65
		c0.101,0.1,0.2,0.2,0.3,0.3c0.101,0.167,0.2,0.334,0.301,0.5l0.5,1.15c0.033,0.133,0.083,0.3,0.149,0.5c0,0.033,0,0.066,0,0.1v0.05
		L63.1,66.2c0,0.066,0.034,0.133,0.101,0.2c0.033,0.233,0.083,0.517,0.149,0.85v0.05c0,0.101,0.017,0.233,0.051,0.4
		c0.166,0.866,0.399,1.383,0.699,1.55c0.301-0.1,0.551-0.316,0.75-0.65c0.2-0.399,0.384-0.666,0.551-0.8
		c0.733,0.566,0.966,1.55,0.699,2.95c-0.399,1.634-0.5,2.65-0.3,3.05c0.334,0.066,0.65,0.066,0.95,0c0.634-0.2,1.233-0.7,1.8-1.5
		c0.066-0.1,0.15-0.217,0.25-0.35c0.033-0.101,0.084-0.217,0.15-0.351c0.033-0.033,0.066-0.066,0.1-0.1l0.5-1.25
		c0.066-0.267,0.134-0.533,0.2-0.8v-2.4c0.066-0.666,0.1-1.149,0.1-1.45c0-0.5-0.083-0.966-0.25-1.399L71.2,66.85
		c0.666,1.301,0.983,2.284,0.95,2.95c-0.034,0.367-0.184,0.816-0.45,1.351c-0.334,0.633-0.533,1.05-0.601,1.25
		c-0.1,0.267-0.149,0.716-0.149,1.35c0.066,0.634,0.033,1.083-0.101,1.35c0,0.034,0,0.067,0,0.101
		c-0.333,1.033-1.216,2.233-2.649,3.6c-0.834,0.767-1.9,1.4-3.2,1.9c-0.333,0.166-0.667,0.283-1,0.35
		c-1.1,0.267-1.934,0.15-2.5-0.35c0.6-2,1-3.5,1.2-4.5c0.333-1.634,0.434-3.2,0.3-4.7c-0.467,0.233-0.884,0.384-1.25,0.45
		c-0.2,0.033-0.366,0.066-0.5,0.1c-0.233,0-0.434-0.017-0.6-0.05c0-0.4,0.1-1,0.3-1.8C60.983,70.1,61,70.017,61,69.95
		c0.134-0.634,0.184-1.15,0.15-1.55C61.15,67.6,60.934,66.783,60.5,65.95z M63.95,94.55C63.684,95.083,63.4,95.566,63.1,96
		c-0.133,0.2-0.267,0.4-0.399,0.6c-0.334,0.434-0.533,0.684-0.601,0.75c-0.1,0.034-0.449,0.067-1.05,0.101h-0.1H60.9l-0.45-0.4
		L59.8,96.4c-0.133-0.101-0.316-0.25-0.55-0.45l-0.6-0.601c0.533,0.101,0.983,0.117,1.35,0.051c0.033,0,0.083,0,0.15,0
		c0.733-0.067,1.333-0.351,1.8-0.851c0.066-0.1,0.149-0.217,0.25-0.35c0.133-0.233,0.483-1.066,1.05-2.5l-0.8,0.75
		c-0.733,0.566-1.816,0.916-3.25,1.05c-0.2,0-0.566-0.017-1.101-0.05c-0.533-0.033-0.866,0.033-1,0.2
		C57,93.55,56.9,93.467,56.8,93.4c0-0.034-0.017-0.051-0.05-0.051l-0.15-0.1c-0.566-0.566-0.933-0.917-1.1-1.05l-0.1-0.05
		c0.3-0.067,0.833-0.117,1.6-0.15c0.1,0,0.2,0,0.3,0c0.667,0,1.05-0.017,1.15-0.05c1.6-0.267,2.416-0.617,2.45-1.05l1.449-1.15
		l4.5-3.8c-0.133,0.5-0.3,1.133-0.5,1.899c-0.3,0.967-0.666,2.184-1.1,3.65C64.85,92.634,64.417,93.65,63.95,94.55z M47.6,54.75
		L47.75,55c-1.366,2.4-3.533,3.366-6.5,2.9c0.134-0.367,0.434-0.834,0.9-1.4c0.566-0.667,0.916-1.134,1.05-1.4
		c0.2-0.366,0.467-0.933,0.8-1.699c0.333-0.934,0.566-1.55,0.7-1.851l1.149,1.15c0.101,0.133,0.2,0.25,0.301,0.35
		c-0.733,1.467-1.367,2.5-1.9,3.101C45.384,56.283,46.5,55.816,47.6,54.75z M68.5,74.85c0-0.166-0.017-0.366-0.05-0.6l-3.4,1.3
		c-0.166,0.233-0.316,0.533-0.45,0.9c-0.133,0.233-0.267,0.566-0.399,1c0.2,0.333,0.733,0.416,1.6,0.25
		c0.066,0,0.15-0.017,0.25-0.05c0.167-0.034,0.316-0.067,0.45-0.101c0.7-0.233,1.167-0.483,1.4-0.75
		c0.066-0.066,0.116-0.116,0.149-0.149C68.384,76.25,68.533,75.65,68.5,74.85z"/>
</g>
</svg>
