<?xml version="1.0" encoding="iso-8859-1"?>
<!-- Generator: Adobe Illustrator 15.1.0, SVG Export Plug-In . SVG Version: 6.00 Build 0)  -->
<!DOCTYPE svg PUBLIC "-//W3C//DTD SVG 1.1//EN" "http://www.w3.org/Graphics/SVG/1.1/DTD/svg11.dtd">
<svg version="1.1" id="FlashAICB" xmlns="http://www.w3.org/2000/svg" xmlns:xlink="http://www.w3.org/1999/xlink" x="0px" y="0px"
	 width="66.85px" height="84.2px" viewBox="0 0 66.85 84.2" style="enable-background:new 0 0 66.85 84.2;" xml:space="preserve">
<g>
	<path style="fill-rule:evenodd;clip-rule:evenodd;fill:#655C49;" d="M43.05,43.1c-1.233,0.167-2.267,0.167-3.1,0l0.85-1.2
		l0.25-0.25v-0.1l2.4,1.45l-0.05,0.05L43.05,43.1z M52.25,49.65c0.066,0.1,0.15,0.199,0.25,0.3c0.967,1.066,1.717,1.883,2.25,2.45
		l-1.05,0.25c-2,0.366-4.217,0.316-6.65-0.15l0.101-0.4c0.066-0.233,0.267-0.433,0.6-0.6c0.8-0.233,1.366-0.434,1.7-0.6
		c0.6-0.301,0.85-0.717,0.75-1.25c-0.4,0-1.101,0.1-2.101,0.3c-0.866,0.2-1.583,0.267-2.149,0.2c0.333-0.301,0.95-0.7,1.85-1.2
		c1.066-0.634,1.783-1.084,2.15-1.351l0.1,0.051l1.2,1.05c0.134,0.133,0.283,0.267,0.45,0.399L52.25,49.65z M58.2,69.45
		c-0.434,0-0.8-0.101-1.101-0.3l0.4-0.351l1.95-1.399C60.217,66.8,60.733,66.35,61,66.05V66l0.2,0.9l0.5,2l-1.65,0.449
		C59.316,69.517,58.7,69.55,58.2,69.45z M62.5,72.05l0.25,0.851c-0.866,0.233-2.217,0.633-4.05,1.199
		c-1.867,0.567-3.5,0.801-4.9,0.7c0.634-0.3,1.45-0.517,2.45-0.649c1.2-0.101,2.066-0.184,2.6-0.25c1.2-0.2,2.101-0.517,2.7-0.95
		C61.917,72.684,62.233,72.384,62.5,72.05z M63.1,73.85l0.551,1.25c0.133,0.4,0.283,0.75,0.449,1.051
		c-2.699,1.666-6.816,2.533-12.35,2.6H49c2.167-0.233,5.3-1.1,9.4-2.6L58.7,76C60.9,75.2,62.366,74.483,63.1,73.85z M66.25,79
		l0.15,0.15c0.133,0.133,0.283,0.25,0.449,0.35c-0.233,1.4-1.483,2.566-3.75,3.5c-1.866,0.8-3.616,1.2-5.25,1.2
		c-3.6-0.033-6.233-0.217-7.899-0.55c-3.3-0.7-5.316-2.084-6.05-4.15l1.05,0.4c0-0.167,0-0.351,0-0.551
		c0.033-0.566,0.25-1.216,0.649-1.949c1.467,1.133,3.284,1.983,5.45,2.55c1.934,0.566,3.967,0.75,6.101,0.55
		c2.699-0.233,4.116-0.366,4.25-0.4c1.833-0.3,3.1-0.8,3.8-1.5l0.25-0.35C65.684,78.517,65.95,78.767,66.25,79z M5,16.6
		c0.233,0.4,0.483,0.8,0.75,1.2l0.35,0.45c0.967,1.3,2.133,2.667,3.5,4.1c-1,0.667-1.867,1.483-2.6,2.45
		c-0.5-0.466-0.983-0.983-1.45-1.55l-1.35-1.8c-0.7-1.1-1.317-2.367-1.85-3.8c-0.133-0.367-0.267-0.717-0.4-1.05
		c-0.167-0.467-0.317-0.934-0.45-1.4l3.45,1.4H5z M0.3,9.3L0.2,7.8c0-0.066,0-0.117,0-0.15c-0.067-1.066-0.117-1.933-0.15-2.6
		c-0.033-0.333-0.033-0.65,0-0.95c0-0.7,0.05-1.233,0.15-1.6c0.367-0.8,0.75-1.133,1.15-1c0.433,0.1,0.767,0.583,1,1.45
		C2.417,3.25,2.467,3.633,2.5,4.1c0.033,0.733,0.017,1.617-0.05,2.65c-0.167,1.833-0.184,3.133-0.05,3.9
		c0.233,1.333,0.733,2.733,1.5,4.2L1.3,14.6C0.767,12.567,0.433,10.8,0.3,9.3z M27.85,19.85L24.65,19H24.6l0.05-5.05
		c0.067-2.867-0.483-5.467-1.65-7.8c-0.033-0.033-0.583-0.717-1.65-2.05c-0.2-0.3-0.417-0.6-0.65-0.9
		c-1.034-1.367-1.417-2.417-1.15-3.15C20.35-0.283,21.5,0.533,23,2.5c0.4,0.533,0.783,1.067,1.15,1.6C24.717,5,25.2,5.867,25.6,6.7
		c1.433,3.133,2.15,6.767,2.15,10.9C27.75,18.367,27.783,19.117,27.85,19.85z M31.8,31.1l-0.3,0.05c-0.6,0.1-1.533,0.317-2.8,0.65
		c-1.934,0.5-3.233,0.767-3.9,0.8c1.133-1.333,3.267-2.067,6.4-2.2h0.15L31.8,31.1z M37.3,39.5l-1.95,0.15
		c-1.3,0.067-2.267,0.083-2.899,0.05l2.85-1.6C35.866,38.533,36.533,39,37.3,39.5z"/>
	<path style="fill-rule:evenodd;clip-rule:evenodd;fill:#94866B;" d="M43.45,43l1.8,1.25c-1.467,0.134-2.434,0.184-2.9,0.15
		c0.067-0.233,0.301-0.667,0.7-1.301l0.351-0.05L43.45,43z M40.8,41.9l-2.45,0.6c-1.1,0.333-1.8,0.383-2.1,0.15
		c0.733-0.667,1.616-1.4,2.65-2.2l2.149,1.1v0.1L40.8,41.9z M45.9,48.25c-1.834,0.9-3.917,1.267-6.25,1.1
		c1.866-0.5,3.533-1.316,5-2.449c0.233-0.2,0.433-0.367,0.6-0.5l0.85-1.15c0.034-0.134,0.084-0.25,0.15-0.35l2,1.449
		C47.684,47.083,46.9,47.717,45.9,48.25z M47.75,51.5c-0.934,0.066-1.9,0.066-2.9,0l-1.399-0.1c0.5-0.334,1.133-0.717,1.899-1.15
		c0.967-0.566,1.667-1.066,2.101-1.5c0.666-0.634,1.05-1.35,1.149-2.15l0.7,0.551l0.65,0.449c-0.367,0.267-1.084,0.717-2.15,1.351
		c-0.899,0.5-1.517,0.899-1.85,1.2c0.566,0.066,1.283,0,2.149-0.2c1-0.2,1.7-0.3,2.101-0.3c0.1,0.533-0.15,0.949-0.75,1.25
		C49.116,51.066,48.55,51.267,47.75,51.5z M60.4,64l0.55,1.9L61,66v0.05c-0.267,0.3-0.783,0.75-1.55,1.351l0.05-0.351
		c0-0.633-0.217-0.967-0.65-1c-0.833-0.1-1.316-0.184-1.449-0.25C58.467,65.467,59.467,64.866,60.4,64z M58.85,73.9
		C58.95,73.5,59,73.283,59,73.25c-0.033-0.533-0.25-0.816-0.65-0.85c-0.267,0-0.75,0.017-1.449,0.05
		c0.1-0.267,0.733-0.717,1.899-1.351c1-0.533,1.417-1.116,1.25-1.75L61.7,68.9l0.8,3.149c-0.267,0.334-0.583,0.634-0.95,0.9
		C60.95,73.384,60.05,73.7,58.85,73.9z M63.1,73.85C62.366,74.483,60.9,75.2,58.7,76l-0.3,0.15c-4.034,0.066-6.051,0-6.051-0.2
		c1.467-0.101,2.567-0.217,3.301-0.351c1.6-0.333,2.616-0.833,3.05-1.5c1.833-0.566,3.184-0.966,4.05-1.199L62.9,73.3L63.1,73.85z
		 M52.35,60.95c0.101,0.267,0.267,0.467,0.5,0.6c0.2,0.167,0.517,0.3,0.95,0.4c-0.1,0.866-0.483,1.416-1.149,1.649
		C51.85,63.967,50.417,64,48.35,63.7c-0.3-0.467-0.8-1.017-1.5-1.65c-0.033-0.033-0.066-0.066-0.1-0.1L46.4,61.6
		c-0.601-0.566-0.983-0.949-1.15-1.149l0.15,0.1l0.3,0.2L52.35,60.95z M49.85,60.25c-0.333,0.033-0.983,0.017-1.949-0.05
		c-0.867-0.066-1.551-0.05-2.051,0.05c-0.233-1.533,0.067-3.017,0.9-4.45l2.6,1.05C49.884,57.384,50.05,58.517,49.85,60.25z
		 M23.6,31.7L20,32.9h-0.05l-0.9-0.75c2.067-0.8,4.1-1.467,6.1-2c2.333-0.433,4.033-0.9,5.1-1.4V28.7l0.35,0.55h-0.15l-6.15,2.2
		l-0.55,0.15C23.717,31.633,23.667,31.667,23.6,31.7z M12.9,25.4c-1.367-0.133-2.517-0.05-3.45,0.25l-0.8,0.4l-0.1-0.15
		c-0.333-0.167-0.65-0.367-0.95-0.6c-0.2-0.167-0.4-0.333-0.6-0.5c0.733-0.966,1.6-1.783,2.6-2.45c0.467,0.433,0.933,0.9,1.4,1.4
		c0.8,0.767,1.6,1.35,2.4,1.75L12.9,25.4z M18.5,27.45l-0.1,0.15h-0.05l-2.2,2.65c-0.633-0.433-1.283-0.817-1.95-1.15l-1.3-0.7
		c-0.233-0.133-0.483-0.267-0.75-0.4h0.05l3.75-1.5v-0.05l0.5,0.15c0.466,0.1,1.15,0.367,2.05,0.8V27.45z M3.9,14.85
		c0,0.033,0.017,0.05,0.05,0.05c0.033,0.1,0.083,0.217,0.15,0.35c0.066,0.067,0.117,0.15,0.15,0.25c0.067,0.1,0.117,0.2,0.15,0.3
		c0.233,0.333,0.434,0.6,0.6,0.8H4.95L1.5,15.2l-0.2-0.6L3.9,14.85z M27.9,26.6l-3.55,0.05c0.167-2.833,0.25-5.383,0.25-7.65h0.05
		l3.2,0.85c0.133,2.566,0.566,4.8,1.3,6.7L27.9,26.6z M31.2,34.7l1.8-1.15c0.233,1.534,0.6,2.65,1.1,3.35l-3.25,0.9
		c-1.233,0.233-2.55,0.7-3.95,1.4l-0.7-0.75c0.6-0.6,1.45-1.267,2.55-2C29.917,35.65,30.733,35.067,31.2,34.7z M26.25,33.35
		l2.45-1.55c1.267-0.333,2.2-0.55,2.8-0.65l0.3-0.05l0.45,0.75c0.033,0.1,0.083,0.2,0.15,0.3c-1.5,0.434-3.3,1.133-5.4,2.1
		c-1.033,0.467-2.067,1.1-3.1,1.9l-0.4-0.35C24.033,35.1,24.95,34.283,26.25,33.35z M59.65,60.75c-0.063,0-0.113,0.017-0.15,0.05
		c0.037-0.035,0.087-0.068,0.15-0.1V60.75z M51.75,78.75c5.533-0.066,9.65-0.934,12.35-2.6c0.334,0.699,0.784,1.399,1.351,2.1
		L65.2,78.6c-0.7,0.7-1.967,1.2-3.8,1.5c-0.134,0.034-1.551,0.167-4.25,0.4c-2.134,0.2-4.167,0.017-6.101-0.55
		c0.334-0.066,0.667-0.2,1-0.4C52.05,79.184,51.95,78.917,51.75,78.75z"/>
	<path style="fill-rule:evenodd;clip-rule:evenodd;fill:#C3B598;" d="M38.35,42.5l2.45-0.6l-0.85,1.2c0.833,0.167,1.866,0.167,3.1,0
		c-0.399,0.634-0.633,1.067-0.7,1.301c0.467,0.033,1.434-0.017,2.9-0.15l1,0.65c-0.066,0.1-0.116,0.216-0.15,0.35l-0.85,1.15
		c-0.167,0.133-0.366,0.3-0.6,0.5c-1.4,0.366-2.767,0.483-4.101,0.35c0.533-1.5,0.884-2.634,1.05-3.4
		c-0.333,0-0.983,0.051-1.949,0.15c-0.801,0.033-1.367-0.116-1.7-0.45C37.983,43.217,38.116,42.867,38.35,42.5z M54.75,52.4
		l0.55,0.5c0.033,0.033,0.066,0.066,0.101,0.1c0.899,0.9,1.666,1.866,2.3,2.9c-0.5,0.366-1.084,0.666-1.75,0.899
		c-0.066-0.133-0.117-0.25-0.15-0.35c-0.467-1.367-0.717-2.533-0.75-3.5l-1.35-0.3L54.75,52.4z M58.55,57.55v0.05
		c-0.133-0.333-0.283-0.649-0.45-0.949l-0.25-0.45C58.116,56.6,58.35,57.05,58.55,57.55z M58.7,74.1
		c-0.434,0.667-1.45,1.167-3.05,1.5c-0.733,0.134-1.834,0.25-3.301,0.351c0,0.2,2.017,0.267,6.051,0.2
		c-4.101,1.5-7.233,2.366-9.4,2.6h2.75c0.2,0.167,0.3,0.434,0.3,0.8c-0.333,0.2-0.666,0.334-1,0.4
		c-2.166-0.566-3.983-1.417-5.45-2.55l0.051-0.051c0.166-0.267,0.699-1,1.6-2.199c0.9,0.533,1.767,0.767,2.6,0.699
		c0.034-0.3-0.033-0.633-0.199-1c2.066,0.034,2.966-0.483,2.699-1.55c-0.899,0.167-2.017,0.267-3.35,0.3l-0.05-0.05
		c1.434-0.066,2.55-0.184,3.35-0.35l0.05,0.1c1.167-0.166,2.184-0.5,3.051-1c1.566-0.866,2.5-1.816,2.8-2.85
		c0.5,0.1,1.116,0.066,1.85-0.101c0.167,0.634-0.25,1.217-1.25,1.75c-1.166,0.634-1.8,1.084-1.899,1.351
		c0.699-0.033,1.183-0.05,1.449-0.05c0.4,0.033,0.617,0.316,0.65,0.85c0,0.033-0.05,0.25-0.15,0.65
		c-0.533,0.066-1.399,0.149-2.6,0.25c-1,0.133-1.816,0.35-2.45,0.649C55.2,74.9,56.833,74.667,58.7,74.1z M26.25,33.35
		c-1.067,0.433-2.283,0.983-3.65,1.65c-0.067-0.033-0.117-0.083-0.15-0.15c-0.4-0.333-0.8-0.65-1.2-0.95
		c-0.1-0.133-0.2-0.233-0.3-0.3c0.867-0.733,1.75-1.367,2.65-1.9c0.066-0.034,0.117-0.067,0.15-0.1l0.55-0.15l6.15-2.2h0.15l0.7,1.1
		l-0.1,0.05c-3.133,0.133-5.267,0.867-6.4,2.2c0.667-0.033,1.967-0.3,3.9-0.8L26.25,33.35z M19.25,27.8l1.8,1l-0.65,0.25
		c-1.1,0.5-2.183,1.1-3.25,1.8H17.1l-0.95-0.6l2.2-2.65h0.05l0.2-0.1v-0.05L19.25,27.8z M8.65,26.05l0.8-0.4
		c0.933-0.3,2.083-0.383,3.45-0.25l-1.6,2.1h-0.05L8.65,26.05z M24.35,26.65l3.55-0.05l-3.55,1H24.3L24.35,26.65z M35.35,39.65
		l1.95-0.15c0.033,0.033,0.084,0.067,0.15,0.1l0.149,0.1c0.233,0.133,0.567,0.316,1,0.55h-0.05c-1.233,0.333-1.934,0.517-2.1,0.55
		c-0.834,0.167-1.566,0.233-2.2,0.2C34.35,40.633,34.717,40.183,35.35,39.65z M47.15,52.1c-1.101,0.167-1.867-0.033-2.301-0.6
		c1,0.066,1.967,0.066,2.9,0C47.417,51.667,47.217,51.866,47.15,52.1z M45.35,50.25c0.267-0.767,0.45-1.434,0.551-2
		c1-0.533,1.783-1.167,2.35-1.9l0.35,0.25c-0.1,0.801-0.483,1.517-1.149,2.15C47.017,49.184,46.316,49.684,45.35,50.25z M60.4,64
		c-0.934,0.866-1.934,1.467-3,1.8c0.133,0.066,0.616,0.15,1.449,0.25c0.434,0.033,0.65,0.367,0.65,1L59.45,67.4L57.5,68.8
		c-0.134,0-0.283,0-0.45,0c0.134-0.233,0.25-0.399,0.351-0.5l-2,0.55c-0.2,0-0.384,0-0.551,0c-1.1,0.034-1.983,0.017-2.649-0.05
		c0.233-0.166,0.934-0.533,2.1-1.1c0.867-0.467,1.483-0.95,1.851-1.45c-0.601-0.1-1.483-0.116-2.65-0.05c0.1-0.3,0.483-0.8,1.15-1.5
		c0.733-0.733,1.166-1.267,1.3-1.601c0.1-0.333,0.2-0.649,0.3-0.949c0.5-0.034,0.9-0.101,1.2-0.2c0.7-0.3,1.383-0.684,2.05-1.15
		c0.037-0.033,0.088-0.05,0.15-0.05L60.4,64z"/>
	<path style="fill-rule:evenodd;clip-rule:evenodd;fill:#D9CBB0;" d="M49.85,60.25c0.2-1.733,0.034-2.866-0.5-3.4l-2.6-1.05
		c-0.833,1.434-1.134,2.917-0.9,4.45c0.5-0.1,1.184-0.116,2.051-0.05C48.866,60.267,49.517,60.283,49.85,60.25z M52.35,60.95
		l-6.649-0.2l-0.3-0.2c-0.5-0.566-0.834-1-1-1.3c-0.233-0.5-0.417-1.35-0.551-2.55c-0.1-1.2-0.3-2.084-0.6-2.65
		c-0.9-1.899-2.967-3.816-6.2-5.75c-0.7-0.434-1.35-0.833-1.95-1.2l-0.05-1.55c0-1.5,0.434-2.85,1.3-4.05l-5.45-0.25
		c-0.1,0.4-0.35,1.033-0.75,1.9C27.683,40.017,25.167,37.3,22.6,35c1.367-0.667,2.583-1.217,3.65-1.65
		c-1.3,0.933-2.217,1.75-2.75,2.45l0.4,0.35c1.033-0.8,2.067-1.433,3.1-1.9c2.1-0.967,3.9-1.667,5.4-2.1
		c0.2,0.434,0.367,0.8,0.5,1.1c0.033,0.067,0.067,0.167,0.1,0.3c0.066,0.333,0.2,0.833,0.4,1.5c0.166,0.767,0.399,1.383,0.699,1.85
		c0.334,0.367,0.733,0.767,1.2,1.2l-2.85,1.6c0.633,0.033,1.6,0.017,2.899-0.05c-0.633,0.533-1,0.983-1.1,1.35
		c0.634,0.033,1.366-0.033,2.2-0.2c0.166-0.033,0.866-0.216,2.1-0.55c0.134,0.067,0.25,0.133,0.351,0.2
		c-1.034,0.8-1.917,1.533-2.65,2.2c0.3,0.233,1,0.184,2.1-0.15c-0.233,0.367-0.366,0.717-0.399,1.05
		c0.333,0.334,0.899,0.483,1.7,0.45c0.966-0.1,1.616-0.15,1.949-0.15c-0.166,0.767-0.517,1.9-1.05,3.4
		c1.334,0.134,2.7,0.017,4.101-0.35c-1.467,1.133-3.134,1.949-5,2.449c2.333,0.167,4.416-0.199,6.25-1.1
		c-0.101,0.566-0.284,1.233-0.551,2c-0.767,0.434-1.399,0.816-1.899,1.15l1.399,0.1c0.434,0.566,1.2,0.767,2.301,0.6l-0.101,0.4
		c2.434,0.467,4.65,0.517,6.65,0.15l1.35,0.3c0.033,0.967,0.283,2.133,0.75,3.5c0.033,0.1,0.084,0.217,0.15,0.35
		c-0.267,0.066-0.55,0.134-0.851,0.2c-0.6,0.134-1.566,0.283-2.899,0.45c0.033,0.434,0,1.166-0.101,2.2
		C52.1,60.184,52.184,60.616,52.35,60.95z M49.95,47.6L49.3,47.15l0.75,0.5L49.95,47.6z M55.3,52.9l-0.55-0.5
		c-0.533-0.567-1.283-1.384-2.25-2.45c-0.1-0.101-0.184-0.2-0.25-0.3c0.167,0.166,0.366,0.366,0.6,0.6
		C54.184,51.717,55,52.6,55.3,52.9z M58.55,57.6v-0.05c0.029,0.059,0.063,0.117,0.101,0.175C58.612,57.671,58.579,57.629,58.55,57.6
		z M52.35,73.3c0.267,1.066-0.633,1.584-2.699,1.55c-0.067-0.133-0.15-0.283-0.25-0.449L49,73.6
		C50.333,73.566,51.45,73.467,52.35,73.3z M60.4,64l-0.75-3.25V60.7v-0.05c0.366,1.333,0.8,3.083,1.3,5.25L60.4,64z M62.75,72.9
		L62.5,72.05L61.7,68.9l-0.5-2c0.399,1.466,0.967,3.6,1.7,6.399L62.75,72.9z M63.65,75.1c0.733,1.667,1.6,2.967,2.6,3.9
		c-0.3-0.233-0.566-0.483-0.8-0.75c-0.566-0.7-1.017-1.4-1.351-2.1C63.934,75.85,63.783,75.5,63.65,75.1z M47.25,75.15
		c-0.9,1.199-1.434,1.933-1.6,2.199c0.233-0.433,0.533-0.866,0.899-1.3c1.233-1.566,1.95-2.684,2.15-3.35l3.425,0.05
		c-0.146-0.005-0.172-0.089-0.075-0.25c0.3-0.167,0.9-0.3,1.8-0.4c0.834-0.1,1.4-0.25,1.7-0.449c0.367-0.267,0.684-0.817,0.95-1.65
		c0.2-0.467,0.384-0.866,0.55-1.2c0.167,0,0.316,0,0.45,0l-0.4,0.351c0.301,0.199,0.667,0.3,1.101,0.3
		c-0.3,1.033-1.233,1.983-2.8,2.85c-0.867,0.5-1.884,0.834-3.051,1l-0.05-0.1c-0.8,0.166-1.916,0.283-3.35,0.35l-0.351-0.5
		c-0.199,0.5-0.583,1.134-1.149,1.9L47.25,75.15z M55.4,68.85L54.55,69.1c-0.1,0.334-0.75,0.45-1.95,0.351
		c-0.366-0.033-1.449-0.184-3.25-0.45c0.067-1.4,0-2.583-0.199-3.55c-0.267-1.033-1-2.134-2.2-3.3
		c-0.033-0.034-0.066-0.067-0.101-0.101c0.7,0.634,1.2,1.184,1.5,1.65c2.067,0.3,3.5,0.267,4.301-0.101
		c0.666-0.233,1.05-0.783,1.149-1.649c0.367,0.066,0.783,0.116,1.25,0.149c0.434,0.034,0.834,0.051,1.2,0.051
		c-0.1,0.3-0.2,0.616-0.3,0.949c-0.134,0.334-0.566,0.867-1.3,1.601c-0.667,0.7-1.051,1.2-1.15,1.5c1.167-0.066,2.05-0.05,2.65,0.05
		c-0.367,0.5-0.983,0.983-1.851,1.45c-1.166,0.566-1.866,0.934-2.1,1.1c0.666,0.066,1.55,0.084,2.649,0.05
		C55.017,68.85,55.2,68.85,55.4,68.85z M20,32.9l3.6-1.2c-0.9,0.533-1.783,1.167-2.65,1.9C20.65,33.367,20.333,33.133,20,32.9z
		 M31.2,34.7c-0.467,0.367-1.284,0.95-2.45,1.75c-1.1,0.733-1.95,1.4-2.55,2l0.7,0.75c1.4-0.7,2.717-1.167,3.95-1.4l3.25-0.9
		c-0.5-0.7-0.866-1.816-1.1-3.35L31.2,34.7z M27.9,26.6l1.25-0.05c-0.733-1.9-1.167-4.133-1.3-6.7c0.267,3.367,0.933,6.083,2,8.15
		c0.066,0.167,0.2,0.417,0.4,0.75c-1.067,0.5-2.767,0.967-5.1,1.4c-2,0.533-4.033,1.2-6.1,2c-0.633-0.433-1.267-0.867-1.9-1.3
		c1.067-0.7,2.15-1.3,3.25-1.8l0.65-0.25l-1.8-1c0.333,0.167,0.7,0.35,1.1,0.55c1.667,0.933,2.933,1.517,3.8,1.75
		c0.067-0.8,0.133-1.633,0.2-2.5L27.9,26.6z M18.5,27.45c0.033,0,0.067,0.017,0.1,0.05l-0.2,0.1L18.5,27.45z M12.9,25.4l0.5,0.1
		c0.033,0.033,0.067,0.05,0.1,0.05c0.6,0.333,1.417,0.65,2.45,0.95L12.2,28c-0.333-0.2-0.633-0.367-0.9-0.5L12.9,25.4z M1.95,16.6
		c-0.967-2.533-1.517-4.967-1.65-7.3c0.133,1.5,0.467,3.267,1,5.3l0.2,0.6C1.633,15.667,1.783,16.133,1.95,16.6z M31.35,30.4H31.2
		l0.1-0.05C31.3,30.382,31.317,30.399,31.35,30.4z"/>
	<path style="fill-rule:evenodd;clip-rule:evenodd;fill:#342B1E;" d="M57.85,56.2l0.25,0.45c-0.633,0.366-1.267,0.683-1.899,0.949
		c-0.533,0.167-1.084,0.284-1.65,0.351c-0.399,0.066-0.866,0.116-1.399,0.149c-0.4,0.134-0.517,0.567-0.351,1.301
		c0.167,0.933,0.733,1.483,1.7,1.649c0.733,0.101,1.366,0.15,1.9,0.15c0.833,0,1.433-0.117,1.8-0.351
		c0.033-0.033,0.066-0.066,0.1-0.1c0.033-0.066,0.084-0.134,0.15-0.2c0.267-0.6,0.45-1.2,0.55-1.8v-0.1l0.25,0.55
		c0.1,0.399,0.233,0.883,0.4,1.45v0.05c-0.063,0.031-0.113,0.064-0.15,0.1c-0.667,0.467-1.35,0.851-2.05,1.15
		c-0.3,0.1-0.7,0.166-1.2,0.2c-0.366,0-0.767-0.017-1.2-0.051c-0.467-0.033-0.883-0.083-1.25-0.149
		c-0.434-0.101-0.75-0.233-0.95-0.4c-0.233-0.133-0.399-0.333-0.5-0.6c-0.166-0.334-0.25-0.767-0.25-1.3
		c0.101-1.034,0.134-1.767,0.101-2.2c1.333-0.167,2.3-0.316,2.899-0.45c0.301-0.066,0.584-0.134,0.851-0.2
		c0.666-0.233,1.25-0.533,1.75-0.899L57.85,56.2z M57.05,68.8c-0.166,0.334-0.35,0.733-0.55,1.2c-0.267,0.833-0.583,1.384-0.95,1.65
		c-0.3,0.199-0.866,0.35-1.7,0.449c-0.899,0.101-1.5,0.233-1.8,0.4c-0.097,0.161-0.071,0.245,0.075,0.25L48.7,72.7
		c0.1-0.2,0.184-0.434,0.25-0.7h1.95c0.833,0.066,1.517,0.083,2.05,0.05c1-0.1,1.45-0.483,1.35-1.149L51.45,70.1L49.3,69.9h-0.05
		l0.1-0.9c1.801,0.267,2.884,0.417,3.25,0.45c1.2,0.1,1.851-0.017,1.95-0.351l0.851-0.25l2-0.55C57.3,68.4,57.184,68.566,57.05,68.8
		z M30.15,43.15c0.4-0.867,0.65-1.5,0.75-1.9l5.45,0.25c-0.866,1.2-1.3,2.55-1.3,4.05l0.05,1.55l-2.75-1.85c0.066,0,0.117,0,0.15,0
		c0.767,0,1.217-0.017,1.35-0.05c0.733-0.134,1.134-0.517,1.2-1.15c0-0.833,0.084-1.5,0.25-2l-1.55,0.75c-1.433,0-2.2,0.55-2.3,1.65
		c-0.2-0.233-0.383-0.417-0.55-0.55c-0.267-0.233-0.483-0.45-0.65-0.65L30.15,43.15z M48.95,73.55L49,73.6l0.4,0.801
		c0.1,0.166,0.183,0.316,0.25,0.449c0.166,0.367,0.233,0.7,0.199,1c-0.833,0.067-1.699-0.166-2.6-0.699l0.2-0.2
		c0.566-0.767,0.95-1.4,1.149-1.9L48.95,73.55z"/>
	<path style="fill-rule:evenodd;clip-rule:evenodd;fill:#4E402D;" d="M58.1,56.65c0.167,0.3,0.317,0.616,0.45,0.949
		c0.029,0.029,0.063,0.071,0.101,0.125v0.025l0.1,0.2c0.1,0.233,0.184,0.467,0.25,0.7v0.1c-0.1,0.6-0.283,1.2-0.55,1.8
		c-0.066,0.066-0.117,0.134-0.15,0.2c-0.033,0.033-0.066,0.066-0.1,0.1c-0.367,0.233-0.967,0.351-1.8,0.351
		c-0.534,0-1.167-0.05-1.9-0.15c-0.967-0.166-1.533-0.717-1.7-1.649c-0.166-0.733-0.05-1.167,0.351-1.301
		c0.533-0.033,1-0.083,1.399-0.149c0.566-0.066,1.117-0.184,1.65-0.351C56.833,57.333,57.467,57.017,58.1,56.65z M49.25,69.9h0.05
		l2.15,0.199L54.3,70.9c0.101,0.666-0.35,1.05-1.35,1.149c-0.533,0.033-1.217,0.017-2.05-0.05h-1.95l0.1-0.5
		C49.15,71.066,49.217,70.533,49.25,69.9z M31.45,44.45c0.1-1.101,0.867-1.65,2.3-1.65l1.55-0.75c-0.166,0.5-0.25,1.167-0.25,2
		c-0.066,0.634-0.467,1.017-1.2,1.15c-0.133,0.033-0.583,0.05-1.35,0.05c-0.033,0-0.083,0-0.15,0
		C31.917,44.917,31.617,44.65,31.45,44.45z"/>
</g>
</svg>
