<?xml version="1.0" encoding="iso-8859-1"?>
<!-- Generator: Adobe Illustrator 15.1.0, SVG Export Plug-In . SVG Version: 6.00 Build 0)  -->
<!DOCTYPE svg PUBLIC "-//W3C//DTD SVG 1.1//EN" "http://www.w3.org/Graphics/SVG/1.1/DTD/svg11.dtd">
<svg version="1.1" id="FlashAICB" xmlns="http://www.w3.org/2000/svg" xmlns:xlink="http://www.w3.org/1999/xlink" x="0px" y="0px"
	 width="40.15px" height="91.6px" viewBox="0 0 40.15 91.6" style="enable-background:new 0 0 40.15 91.6;" xml:space="preserve">
<g>
	<path style="fill-rule:evenodd;clip-rule:evenodd;fill:#655C49;" d="M11.55,26.15c-0.433,0.267-1.066,0.533-1.9,0.8
		c-0.867,0.267-1.95,0.4-3.25,0.4c-2.066-0.067-3.833-0.2-5.3-0.4H1l-0.1-1.4h0.05H2c1.133-0.066,2.25-0.183,3.35-0.35
		c2.167-0.4,3.316-1.083,3.45-2.05l0.85-0.1L11.55,26.15z M0.55,16.7L0.5,15.05c0-2.466-0.15-5.583-0.45-9.35
		C-0.117,3.933,0.233,2.5,1.1,1.4c0.933-1.2,2.283-1.633,4.05-1.3C5.517,2.533,5.7,6.317,5.7,11.45c0.066,1.3,0.3,2.65,0.7,4.05
		l0.3,1c0.066,0.333,0.167,0.667,0.3,1l-1.5-0.1C3.267,17.133,1.617,16.9,0.55,16.7z M1.2,28.5h0.05
		c3.333,0.733,6.033,0.85,8.1,0.35l3.5-0.25h0.2l0.8,1.25c-0.467,0.2-1.383,0.383-2.75,0.55l-2.65,0.1c-2.5,0.067-4.833-0.133-7-0.6
		h-0.1L1.2,28.5z M21.4,43.35L20.55,44.9l-0.5,0.75c-0.533,0.667-1.033,1.15-1.5,1.45c-0.566,0.4-1.117,0.65-1.65,0.75
		c-0.267,0.034-0.85,0.051-1.75,0.051c-0.433,0-1.15,0.017-2.15,0.05c-0.867,0-1.6-0.033-2.2-0.101l1.3-0.399
		c2.7-0.7,4.383-1.233,5.05-1.6c1.6-0.9,2.467-2.317,2.6-4.25l0.2-0.05l0.399,0.65l0.051,0.05c0.166,0.2,0.5,0.55,1,1.05V43.35z
		 M34.35,58.85L35.95,62.4c0.033,0.1,0.116,0.233,0.25,0.399L36.35,63c-0.633,0.6-1.6,0.983-2.899,1.15
		c-0.5,0.066-1.25,0.1-2.25,0.1H30.85H29.9c3.233-1.733,4.583-3.066,4.05-4l-0.15-0.2l0.351-0.75L34.35,58.85z M13.6,86.85
		c-0.7-1.199-1.233-2.466-1.6-3.8l-0.05-0.2c-0.034-0.1-0.067-0.199-0.1-0.3l-0.4-2.25c0.566-0.166,1.083,0.483,1.55,1.95l0.2,0.7
		c1.2,3.3,3.767,5.416,7.7,6.35c1,0.233,2.216,0.384,3.649,0.45c1.3,0,2.134-0.033,2.5-0.1c0.733-0.134,1.483-0.5,2.25-1.101
		c1.2-0.866,2.033-1.583,2.5-2.149c0.8-0.9,1.3-1.867,1.5-2.9L32,83.9l-0.05,0.05c-0.667,0.2-1.3,0.366-1.9,0.5
		c1.267-0.367,2.316-1.017,3.15-1.95c1.666-1.934,2.717-4.384,3.149-7.35l-0.8,0.35L35,75.7c-2.5,1.033-4.75,1.566-6.75,1.6
		c-2.533,0-3.983-0.017-4.35-0.05c-1.7-0.066-3.117-0.333-4.25-0.8L18.9,76.1c0.4-0.233,1.067-0.383,2-0.449
		c1.033,0.033,1.699,0.033,2,0L23,75.6c1.3-0.066,2.833-0.3,4.6-0.699c1.167-0.167,2.101-0.434,2.801-0.801
		c1.199-0.633,2.316-1.449,3.35-2.449c1.033-1.067,1.783-2.2,2.25-3.4c0.4-0.934,0.667-2.4,0.8-4.4c0.434,0.534,0.834,1,1.2,1.4
		c0.134,0.233,0.3,0.483,0.5,0.75c0.033,0.066,0.083,0.134,0.15,0.2l0.3,0.35c0.666,1.066,1.017,2.2,1.05,3.4
		c0.033,0.5,0.066,1.333,0.1,2.5c0.101,0.967,0.084,1.767-0.05,2.399C39.684,77.95,39.3,80.15,38.9,81.45
		c-0.7,2.133-1.884,4.083-3.551,5.85c-1.433,1.566-2.366,2.517-2.8,2.851c-1.133,0.866-2.366,1.333-3.7,1.399
		c-2.6,0.134-5.833-0.184-9.7-0.95c-1.333-0.267-2.383-0.649-3.15-1.149C15.167,88.884,14.367,88.017,13.6,86.85z M2.15,37.15
		l-0.5-4.2L1.7,33c0.233,0.167,0.45,0.3,0.65,0.4l1,0.55H3.4c1.033,0.566,2.15,0.767,3.35,0.6l0.8,0.95l0.1,0.1l0.65,0.8
		c-2.133,0.167-3.783,0.15-4.95-0.05c1.9,0.867,3.816,1.316,5.75,1.35l3,0.2l1.15,0.05L12.05,38c-2.4,0.067-4.083,0.083-5.05,0.05
		c-1.933-0.1-3.533-0.383-4.8-0.85L2.15,37.15z M26.45,54.45c-0.101,0.1-0.184,0.2-0.25,0.3c-0.434,0.4-1.066,0.767-1.9,1.1
		c-0.767,0.267-1.434,0.384-2,0.351c0.101-0.267,0.434-0.601,1-1C24.467,54.967,25.517,54.717,26.45,54.45z M24.8,59.75
		c-1.233,0.566-2.8,0.917-4.7,1.05l-0.35-0.25c-0.2,0.066-0.4,0.15-0.6,0.25c-1.1-0.033-2.283-0.133-3.55-0.3
		c-3-0.333-4.4-0.95-4.2-1.85c0-0.101,0.1-0.233,0.3-0.4c0.767,0.267,1.683,0.483,2.75,0.65c1.1,0.133,3.383,0.166,6.85,0.1
		l4.95-0.25C25.884,59.083,25.4,59.417,24.8,59.75z"/>
	<path style="fill-rule:evenodd;clip-rule:evenodd;fill:#94866B;" d="M7.85,19.55c0.233,0.534,0.45,1,0.65,1.4
		c-0.367,0.233-0.85,0.433-1.45,0.6c-1.4,0.4-3.517,0.567-6.35,0.5c0-0.233,0-0.466,0-0.7l-0.15-2.9c0-0.6,0-1.184,0-1.75
		c1.067,0.2,2.717,0.433,4.95,0.7L7,17.5c0.067,0.167,0.133,0.317,0.2,0.45l0.1,0.25c0.133,0.367,0.267,0.716,0.4,1.05L7.85,19.55z
		 M12.85,28.6l-3.5,0.25c-2.067,0.5-4.767,0.383-8.1-0.35H1.2L1,26.95h0.1c1.467,0.2,3.233,0.333,5.3,0.4
		c1.3,0,2.383-0.133,3.25-0.4c-0.9,0.5-2.167,0.716-3.8,0.65c-2.1-0.1-3.417-0.1-3.95,0c0.2,0.2,0.883,0.35,2.05,0.45
		c0.833,0.133,1.433,0.2,1.8,0.2c2.533,0.233,4.267,0.25,5.2,0.05c0.066,0,0.133-0.017,0.2-0.05l0.65-0.2
		c0.2-0.1,0.434-0.216,0.7-0.35l0.5,0.8v0.05L12.85,28.6z M17.05,35.1c-2.667,0.4-4.733,0.35-6.2-0.15c1.1-0.1,1.95-0.217,2.55-0.35
		c1.033-0.133,1.833-0.383,2.4-0.75l0.35-0.35C16.483,34.033,16.783,34.567,17.05,35.1z M30.2,52.55v0.05
		c-1.4,2.733-3.033,4.4-4.9,5c-0.899,0.267-1.967,0.467-3.2,0.601c-0.733,0.033-1.833,0.066-3.3,0.1
		c1.566-0.1,3.184-0.55,4.851-1.35c1.666-0.8,2.916-1.767,3.75-2.9c0.333-0.133,0.649-0.283,0.949-0.45
		c0.534-0.233,1.117-0.616,1.75-1.149L30.2,52.55z M8.8,62.85c0.467,0.567,1.083,1.084,1.85,1.551c0.3,0.399,0.684,0.85,1.15,1.35
		c1.167,1.434,2.333,2.05,3.5,1.85l2.9,2.851c-1.833,0.133-3.767-0.467-5.8-1.8l-1.35-0.95L9.4,66.1
		c-0.167-0.233-0.316-0.433-0.45-0.6c0-0.566,0-1.1,0-1.6L8.5,64.45L8.8,62.85z M7.65,35.6h0.1c0.967,0.066,1.717,0.133,2.25,0.2
		c1.133,0.167,1.8,0.45,2,0.85c0.233,0.5,0.267,0.917,0.1,1.25l-3-0.2c-1.934-0.034-3.85-0.483-5.75-1.35
		c1.167,0.2,2.816,0.217,4.95,0.05L7.65,35.6z M2.15,37.15L2.2,37.2c1.267,0.466,2.867,0.75,4.8,0.85
		c0.967,0.034,2.65,0.017,5.05-0.05c-0.267,0.467-0.816,0.733-1.65,0.8c-2.6,0-4.283-0.033-5.05-0.1
		c-0.967-0.034-1.95-0.15-2.95-0.35c-0.1-0.4-0.167-0.75-0.2-1.05L2.15,37.15z M1.7,32.95H1.65l-0.3-3.05h0.1
		c2.167,0.467,4.5,0.667,7,0.6l4,0.7l-0.6,0.55c-1.167,1-1.917,1.6-2.25,1.8c-0.367,0.233-0.833,0.4-1.4,0.5
		c-1.367,0.233-2.967,0.2-4.8-0.1H3.35l-1-0.55C2.15,33.267,1.933,33.117,1.7,32.95z M12.1,47.45l-1.3,0.399
		c0.6,0.067,1.333,0.101,2.2,0.101c1-0.033,1.717-0.05,2.15-0.05c0.9,0,1.483-0.017,1.75-0.051c0.533-0.1,1.083-0.35,1.65-0.75
		c0.467-0.3,0.967-0.783,1.5-1.45l2.601-1.2l0.449,0.4c-1,1.7-2.033,2.9-3.1,3.6c-1.233,0.767-2.833,1.116-4.8,1.05
		c-5.133-0.434-7.767-1.217-7.9-2.35V46.9c0.6-0.134,1.383-0.117,2.35,0.05C10.75,47.184,11.567,47.35,12.1,47.45z M34.35,58.85
		L34.15,59.3c-0.067-0.233-0.284-0.416-0.65-0.55l0.4-0.9L34.35,58.85z M30.85,64.25L28.7,64.8c0.033-0.233,0.767-0.883,2.2-1.95
		c1.633-1.133,2.649-2,3.05-2.6c0.533,0.934-0.816,2.267-4.05,4H30.85z M18.15,85.1c-1.133-0.233-2.033-0.583-2.7-1.05l1.15-0.1
		c0.7-0.033,1.9,0.05,3.6,0.25c1.566,0.166,2.767,0.2,3.6,0.1c2-0.2,4.15-1.149,6.45-2.85c1.6-1.233,2.934-2.601,4-4.101l1.3-1.85
		l0.8-0.35c-0.433,2.966-1.483,5.416-3.149,7.35c-0.834,0.934-1.884,1.583-3.15,1.95c0.601-0.134,1.233-0.3,1.9-0.5L32,83.9l1.3-0.4
		c-0.2,1.033-0.7,2-1.5,2.9c-0.467,0.566-1.3,1.283-2.5,2.149c-0.767,0.601-1.517,0.967-2.25,1.101c-0.366,0.066-1.2,0.1-2.5,0.1
		c-1.434-0.066-2.649-0.217-3.649-0.45c0.5-0.133,1.25-0.434,2.25-0.899c0.199-0.101,1.199-0.434,3-1
		c1.666-0.567,3.35-1.5,5.05-2.801l0.75-0.6c-0.434,0.333-0.917,0.616-1.45,0.85c-0.2,0.067-0.4,0.134-0.6,0.2
		c-0.067,0.033-0.15,0.066-0.25,0.101c-2.601,0.733-6.017,0.783-10.25,0.149L18.15,85.1z M18.9,76.1l0.3,0.15L15.05,76
		c-1.767-0.233-3.267-0.6-4.5-1.1c-0.466-0.167-0.883-0.384-1.25-0.65c-0.233-1.1-0.383-2.116-0.45-3.05l1.9,1.399
		c2.133,1.667,3.883,2.717,5.25,3.15l3.9-0.1l0.8-0.25l5-1.851c-0.867,0.9-1.733,1.566-2.601,2h0.45c3.167-0.3,5.967-1.467,8.4-3.5
		c1.366-1.133,2.233-2.017,2.6-2.649c0.4-0.7,0.517-1.267,0.351-1.7C34.8,67.2,34.6,66.917,34.3,66.85
		c-0.2-0.033-0.616-0.05-1.25-0.05c-0.066-0.3-0.017-0.733,0.15-1.3c0.166-0.7,0.25-1.15,0.25-1.35
		c1.3-0.167,2.267-0.551,2.899-1.15l0.45,0.85c-0.133,2-0.399,3.467-0.8,4.4c-0.467,1.2-1.217,2.333-2.25,3.4
		c-1.033,1-2.15,1.816-3.35,2.449c-0.7,0.367-1.634,0.634-2.801,0.801C25.833,75.3,24.3,75.533,23,75.6l-0.1,0.051
		c-0.301,0.033-0.967,0.033-2,0C19.967,75.717,19.3,75.866,18.9,76.1z M20.65,61.6c0.1-0.066,0.216-0.133,0.35-0.199
		c-0.1,0.066-0.2,0.133-0.3,0.199H20.65z M9.5,59.2c-0.433-0.4-0.55-0.867-0.35-1.4c0.6,0.334,1.35,0.617,2.25,0.851
		c-0.2,0.899,1.2,1.517,4.2,1.85c1.267,0.167,2.45,0.267,3.55,0.3c-1.1,0.3-2.183,0.45-3.25,0.45c-0.867-0.167-1.767-0.384-2.7-0.65
		c-0.2-0.1-0.417-0.216-0.65-0.35c-0.667-0.5-1.167-0.816-1.5-0.95c-0.433-0.133-0.917-0.184-1.45-0.149
		C9.567,59.15,9.533,59.167,9.5,59.2z M21.65,61.55L20.1,60.8c1.9-0.133,3.467-0.483,4.7-1.05l1.95,0.05
		C25.384,60.767,23.684,61.35,21.65,61.55z"/>
	<path style="fill-rule:evenodd;clip-rule:evenodd;fill:#D9CBB0;" d="M7.2,17.95C7.133,17.817,7.067,17.667,7,17.5
		c-0.133-0.333-0.233-0.667-0.3-1C6.833,16.967,7,17.45,7.2,17.95z M0.55,16.7c0,0.566,0,1.15,0,1.75
		c-0.033-1.133-0.05-2.267-0.05-3.4L0.55,16.7z M11.55,26.15l-1.9-3.1l-0.85,0.1c-0.133,0.967-1.283,1.65-3.45,2.05
		c-1.1,0.167-2.217,0.283-3.35,0.35H0.95c-0.1-1.2-0.184-2.367-0.25-3.5c2.833,0.067,4.95-0.1,6.35-0.5
		c0.6-0.167,1.083-0.367,1.45-0.6c-0.2-0.4-0.417-0.867-0.65-1.4c0.133,0.267,0.267,0.55,0.4,0.85c0.533,1.033,1.7,3.05,3.5,6.05
		L11.55,26.15z M12.85,28.6L13,28.55c0,0.033,0.017,0.049,0.05,0.05H12.85z M11.85,31.75l0.6-0.55l-4-0.7l2.65-0.1
		c1.367-0.167,2.283-0.35,2.75-0.55c0.233,0.367,0.467,0.7,0.7,1c-0.167-0.2-0.333-0.417-0.5-0.65
		C13.65,30.867,12.917,31.383,11.85,31.75z M19.95,41.55l-0.2,0.05c-0.133,1.933-1,3.35-2.6,4.25c-0.667,0.367-2.35,0.9-5.05,1.6
		c-0.533-0.101-1.35-0.267-2.45-0.5C8.683,46.783,7.9,46.767,7.3,46.9v0.25c-1.3-0.4-2.483-0.834-3.55-1.3
		c-0.1-1-0.183-1.667-0.25-2c-0.533-2.267-0.9-4.1-1.1-5.5c1,0.2,1.983,0.316,2.95,0.35c0.5,0.1,1,0.15,1.5,0.15
		c4.867,0.2,8.517-0.467,10.95-2c0.233,0.533,0.517,1.217,0.85,2.05C19.05,39.967,19.483,40.85,19.95,41.55z M20.55,44.9l0.851-1.55
		c0.133,0.1,0.267,0.217,0.399,0.35c0.167,0.133,0.351,0.283,0.55,0.45c1,0.833,1.667,1.45,2,1.85L23.9,45.55
		c-0.233-0.233-0.5-0.466-0.801-0.7l-0.449-0.4L21.8,43.7L20.55,44.9z M26.15,48.55c-0.467-0.533-0.983-1.283-1.551-2.25
		c0.2,0.3,0.483,0.717,0.851,1.25C25.717,47.95,25.95,48.283,26.15,48.55z M32.9,56.1c0.533,0.801,1.05,1.767,1.55,2.9
		c0.366,0.733,0.866,1.866,1.5,3.4L34.35,58.85l-0.449-1l-0.4,0.9c0.366,0.134,0.583,0.316,0.65,0.55L33.8,60.05l0.15,0.2
		c-0.4,0.6-1.417,1.467-3.05,2.6c-1.434,1.067-2.167,1.717-2.2,1.95l2.149-0.55H31.2c-1.101,0.833-2.384,1.483-3.851,1.95
		c-1.399,0.434-2.75,0.649-4.05,0.649c1.033,0.067,2.05,0.017,3.05-0.149c0.2-0.033,1.267-0.316,3.2-0.851
		c-0.399,0.367-0.899,0.601-1.5,0.7c1.533,0,2.684-0.166,3.45-0.5c-0.366,1-1.25,1.917-2.65,2.75c-0.699,0.4-1.916,0.95-3.649,1.65
		c1.1,0.3,2.434,0.3,4,0c1.8-0.4,3.133-0.7,4-0.9c-3.267,2.8-7.101,4.15-11.5,4.05c-2.633,0-5.567-1.483-8.8-4.449l-0.5-0.5
		c2.033,1.333,3.967,1.933,5.8,1.8L15.3,67.6c-1.167,0.2-2.333-0.416-3.5-1.85c-0.466-0.5-0.85-0.95-1.15-1.35
		c0.3,0.233,0.667,0.449,1.1,0.649c1.133,0.533,2.083,0.867,2.85,1c1.6,0.2,2.833,0.117,3.7-0.25c0.633-0.267,1.434-0.833,2.4-1.7
		c0.967-0.966,1.649-1.583,2.05-1.85c1.233,0,1.983,0,2.25,0c1.267-0.1,2.366-0.417,3.3-0.95C30.6,60.1,32.134,58.366,32.9,56.1z
		 M38,65.25c-0.366-0.4-0.767-0.866-1.2-1.4L36.35,63C36.684,63.5,37.233,64.25,38,65.25z M12,83.05c0.367,1.334,0.9,2.601,1.6,3.8
		c-0.633-0.966-1.15-2.133-1.55-3.5C12.017,83.25,12,83.15,12,83.05z M9.45,74.7c0.1,0.366,0.216,0.717,0.35,1.05
		c-0.066-0.1-0.117-0.2-0.15-0.3C9.55,75.217,9.483,74.967,9.45,74.7z M10.75,72.6L10.1,72c-0.533-0.667-0.95-1.25-1.25-1.75v0.95
		c0.066,0.934,0.217,1.95,0.45,3.05c-0.333-1.2-0.5-2.55-0.5-4.05c0.034-0.9,0.05-1.684,0.05-2.351c0.5,0.9,1.017,1.617,1.55,2.15
		c2.7,2.566,6.133,4.366,10.3,5.4l-0.8,0.25l-3.9,0.1C14.633,75.316,12.883,74.267,10.75,72.6z M30.25,81.45
		c-0.733,0.2-2.116,0.267-4.15,0.2c-3.066-0.2-5-0.351-5.8-0.45c-3.3-0.467-4.716-1.25-4.25-2.351c0.733-0.1,1.6-0.05,2.6,0.15
		c1.167,0.267,2.034,0.45,2.6,0.55c0.467,0.233,0.95,0.3,1.45,0.2c-3.233-1.3-5.784-2.55-7.65-3.75l4.15,0.25l-0.3-0.15l0.75,0.351
		c1.133,0.467,2.55,0.733,4.25,0.8c0.366,0.033,1.816,0.05,4.35,0.05c2-0.033,4.25-0.566,6.75-1.6l0.55-0.2l-1.3,1.85
		C33.184,78.85,31.85,80.217,30.25,81.45z M8.95,65.5c0.133,0.167,0.283,0.366,0.45,0.6c-0.167-0.199-0.316-0.383-0.45-0.55V65.5z
		 M8.6,60.9L8.65,61L8.6,60.95L8.3,59.7l-0.1-0.4c-0.333-1.033-1.034-2.767-2.1-5.2C5.167,51.934,4.517,50.2,4.15,48.9
		C3.95,48.3,3.833,47.533,3.8,46.6l1,0.4c3.167,1.333,5.883,2.15,8.15,2.45c2.833,0.366,4.7,0.55,5.6,0.55
		c0.867,0,1.634-0.083,2.3-0.25c-0.267,0.233-0.5,0.384-0.699,0.45c-0.367,0.2-1.167,0.3-2.4,0.3c-1.1,0-2.783-0.05-5.05-0.15
		c-2-0.033-3.667,0.034-5,0.2c0.767,1.2,2,2.066,3.7,2.601c1.033,0.3,2.6,0.533,4.7,0.699c-0.1,1.634,1.717,2.184,5.45,1.65
		c0.367-0.066,0.7-0.134,1-0.2c-0.1,0.033-0.2,0.101-0.3,0.2c-2.033,0.967-4.5,1.55-7.4,1.75c0.066,0.667-0.067,1.217-0.4,1.65
		c-1.067-0.167-1.983-0.384-2.75-0.65c-0.2,0.167-0.3,0.3-0.3,0.4c-0.9-0.233-1.65-0.517-2.25-0.851c-0.2,0.533-0.083,1,0.35,1.4
		c-0.533,0.033-0.933,0.2-1.2,0.5l0.15,0.45L8.6,60.9z M8.7,61.05c0.063,0.125,0.112,0.233,0.15,0.325
		c-0.04-0.092-0.106-0.2-0.2-0.325H8.7z M7.55,35.5l-0.8-0.95c-1.2,0.167-2.317-0.033-3.35-0.6c1.833,0.3,3.434,0.333,4.8,0.1
		c0.566-0.1,1.033-0.267,1.4-0.5l1.1,0.05C10.267,34.433,9.217,35.067,7.55,35.5z M2.35,33.4c-0.2-0.1-0.417-0.233-0.65-0.4v-0.05
		C1.933,33.117,2.15,33.267,2.35,33.4z M13.95,61.85c-0.267-0.1-0.534-0.183-0.8-0.25h0.05C13.467,61.667,13.717,61.75,13.95,61.85z
		 M18.15,85.1l1.25,0.2c4.234,0.634,7.65,0.584,10.25-0.149c-0.634,0.267-1.45,0.633-2.45,1.1c-1.101,0.467-2.117,0.667-3.05,0.6
		C22.217,86.616,20.217,86.033,18.15,85.1z M31.2,84.6l-0.7,0.25c0.533-0.233,1.017-0.517,1.45-0.85L31.2,84.6z M15.45,84.05
		L15.9,84l-1.6-0.95l2.3,0.9L15.45,84.05z"/>
	<path style="fill-rule:evenodd;clip-rule:evenodd;fill:#C3B598;" d="M9.65,26.95c0.833-0.267,1.467-0.534,1.9-0.8l0.2,0.3
		l0.75,1.25c-0.267,0.133-0.5,0.25-0.7,0.35l-0.65,0.2c-0.066,0.033-0.133,0.05-0.2,0.05c-0.934,0.2-2.667,0.184-5.2-0.05
		c-0.367,0-0.967-0.067-1.8-0.2C2.783,27.95,2.1,27.8,1.9,27.6c0.533-0.1,1.85-0.1,3.95,0C7.483,27.667,8.75,27.45,9.65,26.95z
		 M16.15,33.5l-0.35,0.35c-0.566,0.367-1.367,0.617-2.4,0.75c-0.6,0.133-1.45,0.25-2.55,0.35c1.467,0.5,3.533,0.55,6.2,0.15
		l0.15,0.3c0.033,0.033,0.117,0.2,0.25,0.5l0.35,0.9v0.05c-2.433,1.533-6.083,2.2-10.95,2c-0.5,0-1-0.05-1.5-0.15
		c0.767,0.066,2.45,0.1,5.05,0.1c0.833-0.066,1.383-0.333,1.65-0.8l1.2-0.05L12.1,37.9c0.167-0.333,0.133-0.75-0.1-1.25
		c-0.2-0.4-0.867-0.683-2-0.85c-0.533-0.066-1.283-0.133-2.25-0.2h-0.1l-0.1-0.1c1.667-0.433,2.717-1.067,3.15-1.9l-1.1-0.05
		c0.333-0.2,1.083-0.8,2.25-1.8c1.066-0.367,1.8-0.883,2.2-1.55c0.167,0.233,0.333,0.45,0.5,0.65l0.2,0.35
		c0.3,0.5,0.583,0.95,0.85,1.35l0.35,0.6C16.017,33.25,16.083,33.367,16.15,33.5z M30.25,81.45c-2.3,1.7-4.45,2.649-6.45,2.85
		c-0.833,0.101-2.033,0.066-3.6-0.1c-1.7-0.2-2.9-0.283-3.6-0.25l-2.3-0.9L15.9,84l-0.45,0.05c0.667,0.467,1.566,0.816,2.7,1.05
		c2.067,0.934,4.067,1.517,6,1.75c0.933,0.067,1.949-0.133,3.05-0.6c1-0.467,1.816-0.833,2.45-1.1c0.1-0.034,0.183-0.067,0.25-0.101
		c0.199-0.066,0.399-0.133,0.6-0.2l0.7-0.25c-1.7,1.301-3.384,2.233-5.05,2.801c-1.801,0.566-2.801,0.899-3,1
		c-1,0.466-1.75,0.767-2.25,0.899c-3.934-0.934-6.5-3.05-7.7-6.35l-0.2-0.7c-0.467-1.467-0.983-2.116-1.55-1.95
		c-0.034-0.267-0.05-0.517-0.05-0.75l1.05,0.5l-2.6-4.1c-0.033-0.066-0.05-0.134-0.05-0.2c-0.133-0.333-0.25-0.684-0.35-1.05
		L9.3,74.25c0.367,0.267,0.784,0.483,1.25,0.65c1.233,0.5,2.733,0.866,4.5,1.1c1.867,1.2,4.417,2.45,7.65,3.75
		c-0.5,0.1-0.983,0.033-1.45-0.2c-0.566-0.1-1.433-0.283-2.6-0.55c-1-0.2-1.867-0.25-2.6-0.15C15.583,79.95,17,80.733,20.3,81.2
		c0.8,0.1,2.733,0.25,5.8,0.45C28.134,81.717,29.517,81.65,30.25,81.45z M20.7,75.4c-4.167-1.034-7.6-2.834-10.3-5.4
		c-0.533-0.533-1.05-1.25-1.55-2.15l0.1-2.3C9.083,65.717,9.233,65.9,9.4,66.1l1.65,1.601l1.35,0.95l0.5,0.5
		c3.233,2.966,6.167,4.449,8.8,4.449c4.399,0.101,8.233-1.25,11.5-4.05c-0.867,0.2-2.2,0.5-4,0.9c-1.566,0.3-2.9,0.3-4,0
		c1.733-0.7,2.95-1.25,3.649-1.65c1.4-0.833,2.284-1.75,2.65-2.75c-0.767,0.334-1.917,0.5-3.45,0.5c0.601-0.1,1.101-0.333,1.5-0.7
		c-1.934,0.534-3,0.817-3.2,0.851c-1,0.166-2.017,0.217-3.05,0.149c1.3,0,2.65-0.216,4.05-0.649c1.467-0.467,2.75-1.117,3.851-1.95
		c1,0,1.75-0.033,2.25-0.1c0,0.199-0.084,0.649-0.25,1.35c-0.167,0.566-0.217,1-0.15,1.3c0.634,0,1.05,0.017,1.25,0.05
		c0.3,0.067,0.5,0.351,0.601,0.851c0.166,0.434,0.05,1-0.351,1.7c-0.366,0.633-1.233,1.517-2.6,2.649
		c-2.434,2.033-5.233,3.2-8.4,3.5H23.1c0.867-0.434,1.733-1.1,2.601-2L20.7,75.4z M32.9,56.1c-0.767,2.267-2.301,4-4.601,5.2
		c-0.934,0.533-2.033,0.851-3.3,0.95c-0.267,0-1.017,0-2.25,0c0.033-0.033,0.066-0.066,0.1-0.1L21.65,61.55
		c2.033-0.2,3.733-0.783,5.1-1.75l-1.95-0.05c0.601-0.333,1.084-0.667,1.45-1L21.3,59c-3.466,0.066-5.75,0.033-6.85-0.1
		c0.333-0.434,0.466-0.983,0.4-1.65c2.9-0.2,5.367-0.783,7.4-1.75c0.1-0.1,0.2-0.167,0.3-0.2c0.233-0.033,0.483-0.066,0.75-0.1
		c-0.566,0.399-0.899,0.733-1,1c0.566,0.033,1.233-0.084,2-0.351c0.834-0.333,1.467-0.699,1.9-1.1c0.066-0.1,0.149-0.2,0.25-0.3
		c0.3-0.134,0.616-0.267,0.95-0.4c-0.834,1.134-2.084,2.101-3.75,2.9c-1.667,0.8-3.284,1.25-4.851,1.35
		c1.467-0.033,2.566-0.066,3.3-0.1c1.233-0.134,2.301-0.334,3.2-0.601c1.867-0.6,3.5-2.267,4.9-5v-0.05
		c0.166,0.233,0.35,0.45,0.55,0.65l0.55,0.6c0.467,0.634,0.917,1.267,1.351,1.9l0.25,0.35V56.1z M8.7,61.05H8.65V61L8.6,60.9
		C8.636,60.97,8.67,61.02,8.7,61.05z M23.1,44.85c0.301,0.233,0.567,0.467,0.801,0.7l-1.051,0.2c0.834-0.067,0.717,0.634-0.35,2.1
		c-0.667,0.867-1.217,1.5-1.65,1.9c-0.666,0.167-1.433,0.25-2.3,0.25c-0.9,0-2.767-0.184-5.6-0.55c-2.267-0.3-4.983-1.117-8.15-2.45
		l-1-0.4l-0.05-0.75c1.067,0.466,2.25,0.9,3.55,1.3c0.133,1.133,2.767,1.916,7.9,2.35c1.966,0.066,3.566-0.283,4.8-1.05
		C21.066,47.75,22.1,46.55,23.1,44.85z M20.05,45.65l0.5-0.75l1.25-1.2l0.851,0.75L20.05,45.65z M20.65,61.6h0.05
		c-0.117,0.059-0.209,0.134-0.275,0.226C20.487,61.733,20.563,61.658,20.65,61.6z M13.15,61.6c-0.1-0.033-0.2-0.066-0.3-0.1
		c0.1,0,0.217,0.033,0.35,0.1H13.15z M13.2,60.6c0.933,0.267,1.833,0.483,2.7,0.65c-0.6-0.033-1.167-0.1-1.7-0.2
		C13.867,60.983,13.533,60.833,13.2,60.6z M10.75,72.6L8.85,71.2v-0.95c0.3,0.5,0.717,1.083,1.25,1.75L10.75,72.6z"/>
	<path style="fill-rule:evenodd;clip-rule:evenodd;fill:#342B1E;" d="M24.6,46.3L24.4,46.25c0.033,1.533,0.05,2.35,0.05,2.45
		c-0.134,0.7-0.634,1.233-1.5,1.6c-0.467,0.2-0.917,0.334-1.351,0.4c-0.3,0.033-0.816,0.033-1.55,0c-1.133,0-2.55,0.116-4.25,0.35
		c-0.466,0.066-1.133,0.101-2,0.101c-0.867,0.033-1.517,0.066-1.95,0.1c1.033,0.566,2.467,0.934,4.3,1.1
		c1.934-0.033,3.333,0.034,4.2,0.2c0.367,0.066,0.9,0.283,1.601,0.65c0.666,0.3,1.2,0.483,1.6,0.55
		c0.367,0.066,0.733,0.134,1.101,0.2c0.199,0,0.399,0.017,0.6,0.05c0.2,0,0.366-0.017,0.5-0.05c0.1,0,0.184,0,0.25,0l0.65-0.25
		c0.166-0.134,0.35-0.283,0.55-0.45c0-0.033,0.017-0.05,0.05-0.05c0.033-0.101,0.083-0.2,0.15-0.3l1.1-2.101l1.6,1.65
		c-0.633,0.533-1.216,0.916-1.75,1.149c-0.3,0.167-0.616,0.317-0.949,0.45c-0.334,0.134-0.65,0.267-0.95,0.4
		c-0.934,0.267-1.983,0.517-3.15,0.75c-0.267,0.033-0.517,0.066-0.75,0.1c-0.3,0.066-0.633,0.134-1,0.2
		c-3.733,0.533-5.55-0.017-5.45-1.65c-2.1-0.166-3.667-0.399-4.7-0.699c-1.7-0.534-2.933-1.4-3.7-2.601c1.333-0.166,3-0.233,5-0.2
		c2.267,0.101,3.95,0.15,5.05,0.15c1.233,0,2.033-0.1,2.4-0.3c0.199-0.066,0.433-0.217,0.699-0.45c0.434-0.4,0.983-1.033,1.65-1.9
		c1.066-1.466,1.184-2.167,0.35-2.1l1.051-0.2L24.35,46l0.15,0.15L24.6,46.3z M20.1,60.8l1.551,0.75l1.199,0.601
		c-0.033,0.033-0.066,0.066-0.1,0.1c-0.4,0.267-1.083,0.884-2.05,1.85c-0.967,0.867-1.767,1.434-2.4,1.7
		c-0.867,0.367-2.1,0.45-3.7,0.25c-0.767-0.133-1.717-0.467-2.85-1c-0.433-0.2-0.8-0.416-1.1-0.649
		c-0.767-0.467-1.383-0.983-1.85-1.551L8.75,62.8l0.05-0.1h0.05L11,63c1,0.3,1.767,0.5,2.3,0.6c0.934,0.2,1.7,0.25,2.3,0.15
		c1.267-0.2,2.667-0.733,4.2-1.6l0.5-0.301H20.4l0.024-0.024c0.066-0.092,0.158-0.167,0.275-0.226c0.1-0.066,0.2-0.133,0.3-0.199
		c0-0.023,0.009-0.04,0.025-0.051L15.6,62.4l-1.65-0.551c-0.233-0.1-0.483-0.183-0.75-0.25c-0.133-0.066-0.25-0.1-0.35-0.1
		l-0.15-0.05l-0.45-0.2c-0.067,0-0.133-0.017-0.2-0.05c-1.533-0.533-2.733-0.884-3.6-1.05L8.3,59.7c0.267-0.3,0.667-0.467,1.2-0.5
		c0.033-0.033,0.067-0.05,0.1-0.05c0.533-0.034,1.017,0.017,1.45,0.149c0.333,0.134,0.833,0.45,1.5,0.95
		c0.233,0.134,0.45,0.25,0.65,0.35c0.333,0.233,0.667,0.384,1,0.45c0.533,0.101,1.1,0.167,1.7,0.2c1.067,0,2.15-0.15,3.25-0.45
		c0.2-0.1,0.4-0.184,0.6-0.25L20.1,60.8z"/>
	<path style="fill-rule:evenodd;clip-rule:evenodd;fill:#4E402D;" d="M24.6,46.3c0.567,0.967,1.084,1.717,1.551,2.25l0.1,0.101
		c0.134,0.133,0.25,0.267,0.35,0.399L27.2,49.6l0.1,0.051l1.2,1.149L27.4,52.9c-0.067,0.1-0.117,0.199-0.15,0.3
		c-0.033,0-0.05,0.017-0.05,0.05c-0.2,0.167-0.384,0.316-0.55,0.45L26,53.95c-0.066,0-0.15,0-0.25,0c-0.134,0.033-0.3,0.05-0.5,0.05
		c-0.2-0.033-0.4-0.05-0.6-0.05c-0.367-0.066-0.733-0.134-1.101-0.2c-0.399-0.066-0.934-0.25-1.6-0.55
		c-0.7-0.367-1.233-0.584-1.601-0.65c-0.866-0.166-2.266-0.233-4.2-0.2c-1.833-0.166-3.267-0.533-4.3-1.1
		c0.433-0.033,1.083-0.066,1.95-0.1c0.867,0,1.534-0.034,2-0.101c1.7-0.233,3.117-0.35,4.25-0.35c0.733,0.033,1.25,0.033,1.55,0
		c0.434-0.066,0.884-0.2,1.351-0.4c0.866-0.366,1.366-0.899,1.5-1.6c0-0.101-0.017-0.917-0.05-2.45L24.6,46.3z M8.85,61.375
		c-0.038-0.092-0.087-0.2-0.15-0.325c-0.03-0.03-0.064-0.08-0.1-0.149l-0.15-0.75c0.867,0.166,2.066,0.517,3.6,1.05
		c0.067,0.033,0.133,0.05,0.2,0.05l0.45,0.2l0.15,0.05c0.1,0.033,0.2,0.066,0.3,0.1c0.267,0.067,0.533,0.15,0.8,0.25L15.6,62.4
		l5.425-1.051C21.009,61.36,21,61.377,21,61.4c-0.134,0.066-0.25,0.133-0.35,0.199c-0.088,0.059-0.163,0.134-0.226,0.226L20.4,61.85
		H20.3l-0.5,0.301c-1.533,0.866-2.933,1.399-4.2,1.6c-0.6,0.1-1.367,0.05-2.3-0.15C12.767,63.5,12,63.3,11,63l-2.15-0.3H8.8v-0.3
		c0.034-0.101,0.05-0.184,0.05-0.25V61.375z"/>
</g>
</svg>
