<?xml version="1.0" encoding="iso-8859-1"?>
<!-- Generator: Adobe Illustrator 15.1.0, SVG Export Plug-In . SVG Version: 6.00 Build 0)  -->
<!DOCTYPE svg PUBLIC "-//W3C//DTD SVG 1.1//EN" "http://www.w3.org/Graphics/SVG/1.1/DTD/svg11.dtd">
<svg version="1.1" id="Layer_1" xmlns="http://www.w3.org/2000/svg" xmlns:xlink="http://www.w3.org/1999/xlink" x="0px" y="0px"
	 width="260.1px" height="162.85px" viewBox="0 0 260.1 162.85" style="enable-background:new 0 0 260.1 162.85;"
	 xml:space="preserve">
<symbol  id="bush" viewBox="-130.05 -50.145 260.1 131.595">
	<g id="Layer_1_2_">
		<g>
			<path style="fill-rule:evenodd;clip-rule:evenodd;fill:#84844D;" d="M-110.9,10.25h0.2c0.034,0,0.083,0,0.15,0
				c0.1,0.033,0.667-0.033,1.7-0.2l3.25-0.4c0.033,0.967-0.45,2.233-1.45,3.8c-1.034,1.667-1.583,2.933-1.65,3.8
				c1.2,0.067,1.284,1.433,0.25,4.1c-1.3,2.9-1.983,4.6-2.05,5.1c0.467,0.5,1.467,0.583,3,0.25c1.7-0.534,2.8-0.85,3.3-0.95
				c0.034,1.1,0.184,1.817,0.45,2.15c0.333,0.434,1,0.467,2,0.1c-0.333,1.467,0.717,2.083,3.15,1.85c0.9-0.1,2.533-0.467,4.9-1.1
				c-0.3,1.433,0.167,2.25,1.4,2.45c1.667-0.034,2.867-0.017,3.6,0.05c-0.066,1.1-0.1,1.883-0.1,2.35c0.033,0.833,0.35,1.4,0.95,1.7
				c0.267,0.1,0.65,0.067,1.15-0.1c0.633-0.167,1.017-0.25,1.15-0.25c1.667,0.1,2.95,0.15,3.85,0.15c0.8-0.033,1.434,0.033,1.9,0.2
				c0.767,0.267,1.216,0.417,1.35,0.45l2.7,0.4c0.933,0.733,0.967,1.767,0.1,3.1c-1.1,1.6-1.583,2.733-1.45,3.4
				c0.333-0.033,0.75,0.033,1.25,0.2c0.567,0.2,0.934,0.3,1.1,0.3c1.133,0.033,2.317-0.217,3.55-0.75
				c1.2-0.533,2.25-1.217,3.15-2.05c0.533,0.667,1.367,1.183,2.5,1.55c1.267,0.333,2.167,0.6,2.7,0.8c0.2,0.066,0.65,0.333,1.35,0.8
				c0.5,0.333,1.083,0.55,1.75,0.65c0.7,0.133,1.55,0.15,2.55,0.05l2.5-0.2c-0.1,0.5-0.367,1.117-0.8,1.85
				c-0.633,1.033-0.983,1.633-1.05,1.8c-0.3,0.7-1.067,2.033-2.3,4c-1,1.833-1.433,3.2-1.3,4.1c0.833,0.133,1.65-0.267,2.45-1.2
				c0.833-1.167,1.45-1.933,1.85-2.3c0.2,1.467,1.184,2.167,2.95,2.1c0.833-0.067,2.217-0.4,4.15-1c-0.3,2.233-0.5,4.033-0.6,5.4
				c-0.167,2.567,0.55,3.917,2.15,4.05c-0.066,0.934-0.083,1.684-0.05,2.25c0,1.067,0.317,1.633,0.95,1.7
				c0.667,0.067,1.15-0.333,1.45-1.2c0.2-0.466,0.383-1.183,0.55-2.15c0.433,1.067,1.183,1.8,2.25,2.2
				c1.133,0.433,2.066,0.183,2.8-0.75c-0.033,1.066,0.3,2.017,1,2.85c1.167,1.333,1.8,2.117,1.9,2.35
				c0.333,0.567,0.533,1.067,0.6,1.5c0.067,0.333,0.1,0.9,0.1,1.7c1.033,0.033,2.367-1.017,4-3.15
				c0.633-0.867,1.617-2.383,2.95-4.55c0.167,1.233,1.467,1.85,3.9,1.85c2.422-0.033,3.455-0.892,3.1-2.575
				c0.243,0.993,0.943,2.101,2.1,3.325c0.767,1,1.783,1.684,3.05,2.05c0.767-0.2,1.066-0.684,0.9-1.45c0.267-0.3,0.467-0.7,0.6-1.2
				c0.066-0.333,0.367-0.65,0.9-0.95c0.767-0.434,1.233-0.717,1.4-0.85c0,0.867,0.05,1.433,0.15,1.7c0.1,0.367,0.517,0.65,1.25,0.85
				c0.667,0.133,1.317,0,1.95-0.4s1.05-0.917,1.25-1.55c-0.167,1.167,0.2,2.267,1.1,3.3c1.2,1.1,2.017,1.967,2.45,2.6
				c0.367,0.5,0.717,1.317,1.05,2.45c0.4,1.2,0.733,2.033,1,2.5c0.5-0.133,1.05-0.6,1.65-1.4c0.633-1,1.066-1.667,1.3-2
				c-0.467,1.733,0.3,2.7,2.3,2.9c1.933,0.167,2.733-0.767,2.4-2.8c1.1,1.533,2.633,2.883,4.6,4.05
				c2.033,1.167,3.966,1.816,5.8,1.95c0.333-0.667,0.467-1.633,0.4-2.9c0-0.7-0.033-1.733-0.1-3.1c0.667,1.9,2.3,3.6,4.9,5.1
				c2.233,1.3,4.5,2.117,6.8,2.45c0.633-0.633,0.95-1.733,0.95-3.3c0-0.867-0.034-2.066-0.1-3.6c0.367-0.033,0.917,0,1.65,0.1
				c0.8,0.1,1.383,0.15,1.75,0.15c1-0.066,1.583-0.216,1.75-0.45c0.5-0.6,0.783-0.934,0.85-1V72.6c0.5-0.667,1.2-1.083,2.1-1.25
				c0.7-0.4,1.183-0.684,1.45-0.85c0.434-0.267,0.767-0.65,1-1.15c-0.1,1.633,0.567,1.75,2,0.35c1.467-1.4,2.083-2.717,1.85-3.95
				c3.567,0.833,6.1,1.217,7.6,1.15c2.533-0.133,4.233-1.767,5.1-4.9c0.267-0.933,0.383-2.067,0.35-3.4c0-0.733-0.033-1.85-0.1-3.35
				c0.333-0.067,0.833-0.083,1.5-0.05c0.667,0.033,1.167,0.033,1.5,0c0-0.133,0.033-0.45,0.1-0.95c0.067-0.4,0.067-0.717,0-0.95
				c2.367,1.934,4.083,3.417,5.15,4.45c1.333,1.6,2.483,2.9,3.45,3.9c1.833,1.967,3.15,2.733,3.95,2.3
				c0.066-0.767,0.05-1.9-0.05-3.4c0.667-0.133,1.65-0.033,2.95,0.3c1.367,0.333,2.383,0.467,3.05,0.4
				c0.067-0.667-0.017-1.7-0.25-3.1c-0.267-1.367-0.333-2.35-0.2-2.95c1.633,0,3.333,0.183,5.1,0.55l5.8,0.45
				c3.2,0.2,6.233,0.066,9.1-0.4c1.1-1.033,0.7-2.5-1.2-4.4c0.4-0.2,1.333-0.383,2.8-0.55c1.066-0.1,1.95-0.567,2.65-1.4
				c0.633-0.767,1.066-1.65,1.3-2.65c0.267-1.233-0.033-2.066-0.9-2.5c2.3,0.067,2.683-1.5,1.15-4.7c-1.5-3.133-3.066-4.95-4.7-5.45
				c1.3,0.233,2.183,0.133,2.65-0.3c0.533-0.467,0.35-1.233-0.55-2.3c0.133-0.066,0.667-0.15,1.6-0.25
				c0.667-0.066,1.133-0.267,1.4-0.6c0.5-0.6,0.567-1.45,0.2-2.55c-0.267-0.8-0.7-1.6-1.3-2.4c1.667-0.7,3.183,0.283,4.55,2.95
				c1.267,3.2,2.1,5.2,2.5,6c0.533-0.9,0.8-2.184,0.8-3.85c0.034-1.434-0.117-2.767-0.45-4c1.133,1.3,2.517,2.333,4.15,3.1
				c1.633,0.767,3.317,1.216,5.05,1.35c0.333-0.867,0.184-1.8-0.45-2.8c-0.367-0.533-0.967-1.317-1.8-2.35
				c0.267-0.133,1.4-0.4,3.4-0.8c1.367-0.267,2.283-0.817,2.75-1.65c-0.434-0.3-1.034-0.534-1.8-0.7
				c-1.167-0.233-1.816-0.367-1.95-0.4c0.333-0.333,1.55-1.067,3.65-2.2c1.8-0.933,2.783-1.75,2.95-2.45
				c0.233-0.934,0-1.65-0.7-2.15l-0.2-0.1c-0.2-0.1-0.417-0.2-0.65-0.3c-0.933-0.3-2.367-0.417-4.3-0.35
				c2.9-0.466,4.55-1.216,4.95-2.25c0.333-0.833,0.217-1.35-0.35-1.55c-0.233-0.067-0.983-0.083-2.25-0.05
				c2.067-1.267,3.633-2.35,4.7-3.25c1.933-1.633,2.717-3.217,2.35-4.75c-1.9-0.2-4.417-0.034-7.55,0.5c1.034-0.2,2.1-0.55,3.2-1.05
				c1.667-0.8,2.517-1.667,2.55-2.6c-0.8-0.466-1.816-0.75-3.05-0.85c-0.467-0.034-1.533-0.034-3.2,0c1.667-1.2,2.7-1.983,3.1-2.35
				c1.233-1.1,1.917-2.15,2.05-3.15c-0.167,0-0.317,0-0.45,0l-1.8,0.25c-0.567,0.1-1.067,0.233-1.5,0.4c0.7-0.4,1.066-0.95,1.1-1.65
				c0.067-1.034-0.633-1.583-2.1-1.65c-0.8-0.033-1.934-0.017-3.4,0.05c0.934-0.767,2.883-1.05,5.85-0.85
				c3.267,0.367,5.4,0.517,6.4,0.45c-1.2-4.934-2.85-7.45-4.95-7.55c0.833-0.333,1.267-0.917,1.3-1.75c-1.167-0.6-2.833-0.367-5,0.7
				c1.367-1.733,2.517-3.267,3.45-4.6c1.767-2.6,2.417-4.183,1.95-4.75c-0.433-0.467-0.883-0.65-1.35-0.55l-0.7,0.4
				c-0.067,0.066-0.117,0.133-0.15,0.2c-0.1,0.1-0.167,0.217-0.2,0.35c-0.1,0.167-0.167,0.333-0.2,0.5c-0.1-0.2-0.15-0.4-0.15-0.6
				c-0.3,0.2-0.617,0.4-0.95,0.6l-0.1,0.1l-0.15,0.1c-0.333,0.233-0.633,0.467-0.9,0.7c-1.667,1.367-2.684,2.65-3.05,3.85
				c-0.066,0.3-0.033,0.95,0.1,1.95c0.1,0.967,0.083,1.583-0.05,1.85c-0.2,0.333-0.633,0.583-1.3,0.75c-0.7,0.167-1.167,0.4-1.4,0.7
				c-0.1,0.133-0.183,1.333-0.25,3.6c-0.4,1.667-0.95,2.433-1.65,2.3c-0.467-0.1-1.517-0.433-3.15-1H111l0.25,0.15
				c1.767,1.167,2.883,1.966,3.35,2.4c1.2,1.167,1.5,2.25,0.9,3.25c0.1,0.133,0.467,0.383,1.1,0.75c0.4,0.233,0.633,0.566,0.7,1
				c-0.566,0.367-1.367,0.683-2.4,0.95c-1.633,0.434-2.483,0.667-2.55,0.7c0.6,0.133,1.133,0.4,1.6,0.8
				c0.5,0.434,0.816,0.934,0.95,1.5c-0.833,0.3-1.683,0.333-2.55,0.1c1.367,0.4,2.6,1.333,3.7,2.8c1.2,1.633,0.934,2.667-0.8,3.1
				c1.9,0.367,3.483,0.75,4.75,1.15c2.4,0.733,3.333,1.583,2.8,2.55c-0.3,0.533-1.283,0.983-2.95,1.35
				c-1.934,0.4-3.083,0.733-3.45,1c2.3,1.066,2.25,2.167-0.15,3.3c-1.267,0.6-3.033,1.2-5.3,1.8c2.566,2.3,2.533,3.566-0.1,3.8
				c-2.267,0.2-4.6-0.183-7-1.15c0.566,0.767,0.7,1.533,0.4,2.3c-0.133,0-0.967,0-2.5,0c-1,0-1.767,0.167-2.3,0.5
				c0.267,0.4,0.4,0.883,0.4,1.45c-1.267,0.333-2.917,0.133-4.95-0.6c-1.9-0.7-3.4-1.55-4.5-2.55c-0.1,0.6-0.133,1.017-0.1,1.25
				c-0.833,0.133-1.783-0.133-2.85-0.8c-1.133-0.733-1.55-1.5-1.25-2.3c-0.233,0.1-0.8,0.167-1.7,0.2c-0.767,0-1.3,0.167-1.6,0.5
				c-0.267,0.3-0.367,1.05-0.3,2.25c0.066,1.1,0.2,1.85,0.4,2.25c0.167,0.367,0.5,0.784,1,1.25c0.567,0.5,0.967,0.867,1.2,1.1
				c-1,0.367-1.184,0.883-0.55,1.55c0.967,0.733,1.55,1.233,1.75,1.5c0.6,0.867,0.817,1.517,0.65,1.95
				c-0.033,0.167-0.483,0.733-1.35,1.7c0.2,0.133,1.5,0.5,3.9,1.1c1.967,0.5,2.933,1.133,2.9,1.9c-0.067,1.467-1.783,2.25-5.15,2.35
				c1.2,0.333,2.2,0.667,3,1c1.566,0.7,2.117,1.4,1.65,2.1c-0.433,0.633-1.783,0.883-4.05,0.75c-1.2-0.066-2.717-0.15-4.55-0.25
				c0.934,0.5,1.533,1.184,1.8,2.05c0.1,0.367,0.2,1.316,0.3,2.85c-1.967,0.267-4.167,0.183-6.6-0.25c-1.6-0.3-3.767-0.85-6.5-1.65
				c-0.367,2.4-1.583,3.633-3.65,3.7c-1.7,0.067-3.35-0.567-4.95-1.9c0.067,0.467,0.083,0.816,0.05,1.05
				c-0.833,0.167-1.7,0.15-2.6-0.05c-1.267-1.667-2.933-2.6-5-2.8c-0.4-0.066-0.667,0.05-0.8,0.35c-0.2,0.3-0.434,0.467-0.7,0.5
				c-1.5,0.133-2.567,0.133-3.2,0c-0.533-0.133-1.066-0.45-1.6-0.95c-0.534-0.5-0.95-0.784-1.25-0.85
				c-0.434-0.1-1.067,0.15-1.9,0.75c-0.966,0.667-1.6,1.033-1.9,1.1c-1.133,0.233-1.867,0.133-2.2-0.3
				c-0.3-0.333-0.434-1.05-0.4-2.15c-0.633,0.367-1.517,0.717-2.65,1.05c-3.733,1.034-5.5,0.4-5.3-1.9c-0.3,0.434-0.5,1.1-0.6,2
				c-0.133,0.833-0.117,1.617,0.05,2.35c0.267,0.767,0.767,1.233,1.5,1.4c0.1,0.033,0.917,0.067,2.45,0.1
				c-0.033,0.2-0.017,0.517,0.05,0.95c0.067,0.466,0.083,0.8,0.05,1c1.133,0.133,3.167-0.1,6.1-0.7c2.633-0.533,4.6-0.6,5.9-0.2
				c-0.067,0.2-0.067,0.517,0,0.95c0.066,0.433,0.083,0.733,0.05,0.9l0.35,0.05c0.4,0.733,0.917,1.1,1.55,1.1
				c-2.566,0.467-4.733,0.8-6.5,1c0.567,2-0.283,3.317-2.55,3.95c-0.9,0.267-2.783,0.45-5.65,0.55c0.3,1.3,0.367,2.417,0.2,3.35
				c-2.333,0.267-5.3,0.033-8.9-0.7c-0.066,1.733-0.183,2.767-0.35,3.1c-0.333,0.733-1.216,1.167-2.65,1.3
				c-1.1,0.1-2.133,0.017-3.1-0.25c-1.133-0.367-1.95-0.95-2.45-1.75c0.1,1.367-0.133,2.333-0.7,2.9c-0.633,0.6-1.6,0.683-2.9,0.25
				c-1.2-0.433-2.167-1.117-2.9-2.05c-0.567-0.767-1.033-1.817-1.4-3.15c-0.167,1.367-0.4,2.267-0.7,2.7
				c-0.433,0.633-1.217,0.733-2.35,0.3C7.767,63.8,6.8,63,6,61.9c-0.867-1.3-1.033-2.45-0.5-3.45c-1.067,1.1-2.667,1.383-4.8,0.85
				c-2.2-0.566-2.967-1.716-2.3-3.45c-0.9,0.8-1.7,0.633-2.4-0.5c-0.633-0.967-0.85-1.95-0.65-2.95c-0.067,0.3-0.2,0.517-0.4,0.65
				c-0.267-1.267-0.25-3.2,0.05-5.8c-0.067-1.9-1.267-2.75-3.6-2.55c-4.333,0.4-5.95,1.833-4.85,4.3c-1.2,0.3-1.733,1-1.6,2.1
				c0.233,1.933,0.333,2.983,0.3,3.15c-1.033,0.033-2-0.35-2.9-1.15c-0.934-0.8-1.45-1.7-1.55-2.7c0.067,1.133,0.067,2.267,0,3.4
				c-0.933-0.4-1.85-1.133-2.75-2.2c-0.966-1.133-1.533-2.233-1.7-3.3c-0.367,1-1.383,1.35-3.05,1.05c-1.633-0.267-2.3-1.033-2-2.3
				c-0.566-0.167-1.583,0.717-3.05,2.65c-1.367,1.767-2.583,2.25-3.65,1.45c-0.767-0.6-1-1.533-0.7-2.8c0.167-0.7,0.5-1.667,1-2.9
				c-0.7,1.566-1.483,1.8-2.35,0.7c-0.833-1.066-0.983-2.2-0.45-3.4c-1.333,1.167-2.533,1.133-3.6-0.1c-1-1.133-1.4-2.5-1.2-4.1
				c0.067,0.733,0.483,1.367,1.25,1.9c0.767,0.533,1.5,0.633,2.2,0.3c0.667-0.333,1.05-1.083,1.15-2.25
				c0.067-0.567,0.033-1.45-0.1-2.65c0.467,1.5,1.517,1.717,3.15,0.65c1.6-1.033,2.4-2.217,2.4-3.55
				c0.467,0.833,1.117,1.417,1.95,1.75c0.934,0.367,1.767,0.233,2.5-0.4c0.367-0.3,0.567-0.767,0.6-1.4c0-0.333,0-0.85,0-1.55
				c0.967,0.533,1.95,0.6,2.95,0.2c0.967-0.367,1.617-1.083,1.95-2.15c0.434,0.434,1,0.417,1.7-0.05c-0.8,0.233-1.7,0.1-2.7-0.4
				c-1.066-0.567-1.55-1.25-1.45-2.05c-0.733,0.6-1.2,0.3-1.4-0.9c-0.167-1.167,0.233-1.967,1.2-2.4
				c-0.667-0.533-0.95-1.233-0.85-2.1c-0.3,0.3-0.75,0.4-1.35,0.3c-0.034,0.8-0.817,1.167-2.35,1.1c-1.3-0.033-2.367-0.25-3.2-0.65
				c-0.033,1.567-0.417,2.65-1.15,3.25c-0.7,0.567-1.8,0.817-3.3,0.75c-0.3,1.167-0.934,2.067-1.9,2.7c-0.9,0.6-1.95,0.867-3.15,0.8
				c0.167,1.4-0.55,2.267-2.15,2.6c-1.467,0.3-2.733,0.1-3.8-0.6c-0.267,2.067-1.1,3.017-2.5,2.85c-1.267-0.167-2.5-1.067-3.7-2.7
				c-0.367,0.9-0.75,1.467-1.15,1.7c-0.5,0.3-1.233,0.316-2.2,0.05c-1.5-0.367-2.217-1.133-2.15-2.3c-0.833,1.1-1.95,1.55-3.35,1.35
				c-1.433-0.2-2.333-0.983-2.7-2.35c-0.667,1.333-1.333,1.3-2-0.1c-0.534-1.1-0.85-2.2-0.95-3.3c-0.333,1.267-1.1,1.983-2.3,2.15
				c-1.2,0.133-1.767-0.233-1.7-1.1c-0.4,0.333-0.95,0.45-1.65,0.35c-0.667-0.1-1.167-0.367-1.5-0.8c-0.3-0.367-0.434-0.966-0.4-1.8
				c0.033-0.967-0.034-1.617-0.2-1.95c-0.267,0.833-0.85,1.45-1.75,1.85c-0.933,0.4-1.767,0.367-2.5-0.1
				c-0.467-0.267-0.767-0.683-0.9-1.25c-0.1-0.3-0.217-0.8-0.35-1.5c-1.7,2.534-3.15,3.483-4.35,2.85c-0.566-0.3-0.95-0.967-1.15-2
				c-0.2-0.833-0.25-1.633-0.15-2.4c-0.233,1.167-0.883,2.067-1.95,2.7c-1.167,0.633-2.15,0.45-2.95-0.55
				c-0.667,1.133-1.55,1.567-2.65,1.3c-1.133-0.3-1.633-1.117-1.5-2.45c-1.2,0.3-2,0.467-2.4,0.5c-0.933,0.1-1.683-0.033-2.25-0.4
				c0.167-1.267,0.6-2.45,1.3-3.55c0.767-1.167,1.7-2.017,2.8-2.55c-0.667-0.1-1.6-0.117-2.8-0.05c-1.3,0.066-2.233,0.066-2.8,0
				c0.167-0.833,1.017-1.883,2.55-3.15c1.367-1.167,2.65-2.017,3.85-2.55l0.6-0.2c1.133,0.7,2.017,0.383,2.65-0.95
				c0.9,0.8,1.583,1.333,2.05,1.6c0.8,0.466,1.617,0.45,2.45-0.05c0.2,0.633,0.684,1.05,1.45,1.25c0.633,0.167,1.3,0.167,2,0
				c0.067-1,0.167-1.65,0.3-1.95l0.1-0.35l0.25,0.3c0.833,1,1.783,1.083,2.85,0.25c0.833-0.633,1.517-1.55,2.05-2.75l0.1-0.3
				c1.5,0.7,2.434,0.533,2.8-0.5c0.133-0.5,0.15-1.667,0.05-3.5c0.267,0.4,0.633,0.683,1.1,0.85c0.533,0.2,1,0.183,1.4-0.05
				c0.433-0.233,0.617-0.583,0.55-1.05c-0.1-0.667-0.1-1.1,0-1.3l0.65-1.55c0.167-0.367,0.267-0.717,0.3-1.05
				c0.1-0.633,0.033-1.35-0.2-2.15l0.25,0.4c0.8-0.3,0.85-1.184,0.15-2.65c-0.667-1.367-1.35-2.233-2.05-2.6
				c-0.167,3.333-1.35,4.867-3.55,4.6c-0.233,1.833-0.367,2.784-0.4,2.85c-0.333,0.7-1.2,0.783-2.6,0.25c0,1.867-0.3,3.184-0.9,3.95
				c-1.567-0.233-2.934-0.733-4.1-1.5c0.033,0.7-0.25,1.167-0.85,1.4C-88,3.917-88.6,3.9-89.3,3.7c-0.934-0.267-1.6-0.833-2-1.7
				c-0.333-0.733-0.45-1.633-0.35-2.7c-0.733,2.1-1.767,2.95-3.1,2.55c-1.3-0.4-1.95-1.567-1.95-3.5c-0.2,0.566-0.566,0.933-1.1,1.1
				c-0.567,0.233-1.1,0.117-1.6-0.35s-0.55-1.55-0.15-3.25c-0.733,0.767-1.75,1.333-3.05,1.7c-1.267,0.333-2.45,0.383-3.55,0.15
				c0.066-0.367,0.017-0.95-0.15-1.75c-1.2,1.133-2.833,1.55-4.9,1.25c0.267-1.567,0.983-2.95,2.15-4.15
				c-1.8,1.233-3.35,1.7-4.65,1.4c-0.2-0.8,0.2-1.967,1.2-3.5c1-1.567,1.433-2.784,1.3-3.65c-0.1,0-0.333-0.033-0.7-0.1
				c-0.333-0.067-0.567-0.083-0.7-0.05l-0.15-2.35l-0.75-0.05c-0.067,0.067-0.133,0.133-0.2,0.2c-0.066,0.1-0.15,0.2-0.25,0.3
				l-0.4,0.5c-0.1,0.067-0.183,0.15-0.25,0.25c-1.033,1.233-1.867,2.133-2.5,2.7c-1,0.9-2.733,2.1-5.2,3.6
				c-4.9,2.4-7.483,3.883-7.75,4.45c0.8,0.1,1.633,0.033,2.5-0.2c0.3-0.066,1.066-0.333,2.3-0.8l0.15,2.4
				c0.733,0.2,1.483,0.1,2.25-0.3c0.067,0.233,0.117,0.517,0.15,0.85v1.2c-0.1,0.6-0.25,1.267-0.45,2l-0.7,1.5c0,0.1,0,0.2,0,0.3
				c0.2-0.367,0.367-0.767,0.5-1.2l0.05-0.05c0.066-0.167,0.117-0.35,0.15-0.55c0.033,0.767,0.033,1.35,0,1.75
				c0,0.667-0.117,1.217-0.35,1.65c1.933,0.133,3.067-0.383,3.4-1.55c0.7,0.133,1.733,0.683,3.1,1.65c1.267,0.9,2.35,1.367,3.25,1.4
				c0,0.1,0,0.184,0,0.25c-0.033,0.367-0.017,0.7,0.05,1l1.65,1.95c0.066,0.033,0.15,0.05,0.25,0.05l0.15,0.05
				c0.167,0.066,0.316,0.1,0.45,0.1C-111.109,10.23-111.009,10.247-110.9,10.25z M-106.5,8.95l0.15-0.35c0.367,0,0.8,0.167,1.3,0.5
				L-106.5,8.95z M62.45,44.3c-0.434,0.733,0.017,1.667,1.35,2.8C63.633,46.033,63.183,45.1,62.45,44.3z M-101.15,9.45
				c0.767,0.167,1.316,0.267,1.65,0.3c0.533,0,0.95-0.3,1.25-0.9c0.767,0.633,1.35,1.083,1.75,1.35l0.3,0.05l-0.75-0.1l-4.25-0.55
				l-0.75-0.1l0.25-0.1L-101.15,9.45z"/>
			<path style="fill-rule:evenodd;clip-rule:evenodd;fill:#6C6C3F;" d="M124.75-27.4l0.7-0.4c0.466-0.1,0.917,0.083,1.35,0.55
				c-0.466-0.567-0.983-0.733-1.55-0.5C125.05-27.683,124.883-27.567,124.75-27.4z M124.05-27.15c0,0.066,0,0.133,0,0.2
				c0,0.2,0.05,0.4,0.15,0.6C124.133-26.55,124.083-26.817,124.05-27.15z M117.55-26.75c0.633-1.267,1.367-2.283,2.2-3.05
				c0.6-0.6,1.2-0.967,1.8-1.1c-0.933,0.167-1.883,0.917-2.85,2.25c-0.8,1.1-1.35,2.1-1.65,3
				C117.183-25.983,117.35-26.35,117.55-26.75z M113.55-28.65c-1.5-0.4-2.267,0.5-2.3,2.7c0.067-0.667,0.167-1.2,0.3-1.6
				c0.3-0.7,0.784-1.083,1.45-1.15C113.2-28.7,113.383-28.683,113.55-28.65z M114.35-28.4c0.167,0.1,0.333,0.217,0.5,0.35
				c0.767,0.533,1.316,1.25,1.65,2.15c0.133,0.3,0.233,0.65,0.3,1.05C116.667-26.517,115.85-27.7,114.35-28.4z M109.1-31.2
				c0.133,0.2,0.267,0.417,0.4,0.65c0.133,0.233,0.283,0.517,0.45,0.85C109.683-30.3,109.4-30.8,109.1-31.2z M17.35-17.425
				c-0.006,0.186-0.023,0.361-0.05,0.525l0.05-0.15C17.35-17.175,17.35-17.3,17.35-17.425z M-63.6-19.35
				c-0.066-0.233-0.066-0.683,0-1.35c0.4,0,0.667,0.017,0.8,0.05C-63.033-20.15-63.3-19.717-63.6-19.35z M-101.275-24.95
				c0.105,0.144,0.197,0.277,0.275,0.4c0.733,1.1,1.15,2.167,1.25,3.2c-1.078-0.871-1.928-1.679-2.55-2.425
				c-0.782-0.173-1.573-0.323-2.375-0.45c0.007,0.364,0.165,0.689,0.475,0.975c-0.74-0.55-1.44-0.959-2.1-1.225
				c-0.523-0.056-1.048-0.106-1.575-0.15c-0.375,0.493-1.067,1.318-2.075,2.475c-1.1,1.6-0.833,2.233,0.8,1.9
				c-0.167,0.667-0.533,1.3-1.1,1.9c-0.367,0.333-0.983,0.867-1.85,1.6c-0.367,0.333-0.833,0.833-1.4,1.5l0.75,0.05l0.15,2.35
				c0.133-0.033,0.367-0.017,0.7,0.05c0.367,0.066,0.6,0.1,0.7,0.1c0.133,0.867-0.3,2.083-1.3,3.65c-1,1.533-1.4,2.7-1.2,3.5
				c1.3,0.3,2.85-0.167,4.65-1.4c-1.167,1.2-1.883,2.583-2.15,4.15c2.067,0.3,3.7-0.117,4.9-1.25c0.167,0.8,0.216,1.383,0.15,1.75
				c1.1,0.233,2.283,0.183,3.55-0.15c1.3-0.367,2.317-0.933,3.05-1.7c-0.4,1.7-0.35,2.783,0.15,3.25s1.033,0.583,1.6,0.35
				c0.533-0.167,0.9-0.534,1.1-1.1c0,1.933,0.65,3.1,1.95,3.5c1.333,0.4,2.367-0.45,3.1-2.55c-0.1,1.067,0.017,1.967,0.35,2.7
				c0.4,0.867,1.066,1.433,2,1.7c0.7,0.2,1.3,0.216,1.8,0.05c0.6-0.233,0.883-0.7,0.85-1.4c1.167,0.767,2.533,1.267,4.1,1.5
				c0.6-0.767,0.9-2.083,0.9-3.95c1.4,0.533,2.267,0.45,2.6-0.25c0.033-0.066,0.167-1.017,0.4-2.85c2.2,0.267,3.383-1.267,3.55-4.6
				c0.7,0.367,1.383,1.233,2.05,2.6c0.7,1.467,0.65,2.35-0.15,2.65l-0.25-0.4c0.233,0.8,0.3,1.517,0.2,2.15
				c0.333-0.4,0.8-0.8,1.4-1.2c-0.2-0.167-0.35-0.383-0.45-0.65c-0.2-0.4-0.1-1,0.3-1.8c0.367-0.7,0.833-1.35,1.4-1.95
				c-0.1-1.367,0.167-2.567,0.8-3.6c0.767-1.2,1.783-1.6,3.05-1.2l0.05,1.1c0.067-1.233,0.367-2.383,0.9-3.45
				c0-0.4,0.083-0.817,0.25-1.25c0.933-0.5,1.833-0.817,2.7-0.95c0.633-0.5,0.967-1.15,1-1.95c0-0.466-0.1-1.316-0.3-2.55v0.3
				c-0.2-0.367-0.417-0.6-0.65-0.7c0.433-0.833,0.716-1.667,0.85-2.5c0.133-0.967,0.034-1.684-0.3-2.15
				c-0.467-0.6-1.383-0.833-2.75-0.7c-1.333,0.133-2.25,0.483-2.75,1.05c0.2-2.2,0-3.683-0.6-4.45c-0.7-0.9-2.133-1.167-4.3-0.8
				c-0.067,0.567-0.067,1,0,1.3c-0.5-1.067-1.467-1.9-2.9-2.5c-1.5-0.633-2.05-0.133-1.65,1.5c-1.1-1.333-2.417-1.767-3.95-1.3
				c0.033,0.167,0.017,0.45-0.05,0.85c-0.066,0.4-0.066,0.684,0,0.85c-0.833-0.7-1.433-1.167-1.8-1.4
				c-0.454-0.248-0.904-0.381-1.35-0.4c0.025,0.177,0.059,0.36,0.1,0.55c-0.153-0.215-0.337-0.398-0.55-0.55
				c-0.116,0.005-0.232,0.022-0.35,0.05c-0.067,0.467-0.033,1.033,0.1,1.7c0.2,0.733,0.333,1.3,0.4,1.7
				c-0.833-0.9-1.967-1.583-3.4-2.05c-0.413-0.138-0.813-0.246-1.2-0.325v0.725c-0.001-0.07-0.018-0.136-0.05-0.2
				c-0.225-0.264-0.475-0.48-0.75-0.65c-0.715-0.075-1.381-0.042-2,0.1c-0.233,0.567-0.15,1.233,0.25,2
				c0.033,0.133,0.417,0.767,1.15,1.9c-1.779-1.223-3.013-2.04-3.7-2.45c-1.604-0.746-3.22-0.837-4.85-0.275
				c0.066,0.342,0.199,0.683,0.4,1.025c0.466,0.633,0.8,1.15,1,1.55c-0.382-0.09-0.907-0.215-1.575-0.375L-99-25.75
				c-0.167-0.067-0.333-0.15-0.5-0.25c-0.5-0.033-1-0.033-1.5,0c-0.1,0.167-0.167,0.333-0.2,0.5
				C-101.223-25.295-101.248-25.112-101.275-24.95z M-123.15,1.9c0.2-0.733,0.35-1.4,0.45-2c-0.066,0.267-0.133,0.55-0.2,0.85
				c-0.067,0.4-0.15,0.767-0.25,1.1V1.9z M-106.5,8.95l1.45,0.15c-0.5-0.333-0.934-0.5-1.3-0.5L-106.5,8.95z M-110.9,10.25
				c-0.109-0.003-0.209-0.02-0.3-0.05c0.067,0.033,0.117,0.05,0.15,0.05C-110.996,10.25-110.946,10.25-110.9,10.25z M-85.45,10.2
				l0.35-0.05l-0.25-0.3L-85.45,10.2z M-73.55,0.25L-74.2,1.8c-0.1,0.2-0.1,0.633,0,1.3c0.067,0.467-0.117,0.816-0.55,1.05
				c-0.4,0.233-0.867,0.25-1.4,0.05c-0.467-0.167-0.833-0.45-1.1-0.85c0.1,1.833,0.083,3-0.05,3.5c-0.367,1.033-1.3,1.2-2.8,0.5
				l-0.1,0.3c0.2,1.9,1.15,1.934,2.85,0.1c2.133-2.3,3.333-3.45,3.6-3.45c0.2,0.9,0.283,1.9,0.25,3c-0.033,1.4-0.25,2.35-0.65,2.85
				c-0.333,0.467-0.817,0.75-1.45,0.85c-0.667,0.1-1.133,0.317-1.4,0.65c-0.267,0.3-0.35,0.767-0.25,1.4
				c0.067,0.6-0.067,1.034-0.4,1.3c-0.5,0.4-1.483,0.217-2.95-0.55c-1.267-0.7-2.133-1.333-2.6-1.9c0,1.867-0.017,2.917-0.05,3.15
				c-0.833,0.4-2.167,0.25-4-0.45c-0.2,0.267-0.367,1-0.5,2.2c-0.1,0.867-0.567,1.383-1.4,1.55c-0.7,0.133-1.367-0.083-2-0.65
				c-0.633-0.534-1-1.15-1.1-1.85c0.1,0.9,0.15,1.533,0.15,1.9c-0.033,0.667-0.2,1.217-0.5,1.65c-1.066-0.267-1.883-1.1-2.45-2.5
				c-0.434-1.066-0.667-2.25-0.7-3.55c-0.967,0.8-1.467,0.717-1.5-0.25c0-0.533,0.1-1.4,0.3-2.6c-1.2,0.533-2.483,1.383-3.85,2.55
				c-1.534,1.267-2.383,2.317-2.55,3.15c0.567,0.066,1.5,0.066,2.8,0c1.2-0.067,2.133-0.05,2.8,0.05
				c-1.1,0.533-2.033,1.383-2.8,2.55c-0.7,1.1-1.133,2.284-1.3,3.55c0.567,0.367,1.317,0.5,2.25,0.4c0.4-0.033,1.2-0.2,2.4-0.5
				c-0.133,1.333,0.367,2.15,1.5,2.45c1.1,0.267,1.983-0.167,2.65-1.3c0.8,1,1.783,1.184,2.95,0.55
				c1.067-0.633,1.717-1.534,1.95-2.7c-0.1,0.767-0.05,1.567,0.15,2.4c0.2,1.033,0.583,1.7,1.15,2c1.2,0.633,2.65-0.316,4.35-2.85
				c0.133,0.7,0.25,1.2,0.35,1.5c0.133,0.567,0.433,0.983,0.9,1.25c0.733,0.467,1.567,0.5,2.5,0.1c0.9-0.4,1.483-1.017,1.75-1.85
				c0.167,0.333,0.233,0.983,0.2,1.95c-0.034,0.833,0.1,1.433,0.4,1.8c0.333,0.434,0.833,0.7,1.5,0.8c0.7,0.1,1.25-0.017,1.65-0.35
				c-0.067,0.867,0.5,1.233,1.7,1.1c1.2-0.167,1.966-0.883,2.3-2.15c0.1,1.1,0.417,2.2,0.95,3.3c0.667,1.4,1.333,1.433,2,0.1
				c0.367,1.367,1.267,2.15,2.7,2.35c1.4,0.2,2.517-0.25,3.35-1.35c-0.067,1.167,0.65,1.933,2.15,2.3c0.967,0.267,1.7,0.25,2.2-0.05
				c0.4-0.233,0.783-0.8,1.15-1.7c1.2,1.633,2.433,2.533,3.7,2.7c1.4,0.167,2.233-0.783,2.5-2.85c1.066,0.7,2.333,0.9,3.8,0.6
				c1.6-0.333,2.317-1.2,2.15-2.6c1.2,0.067,2.25-0.2,3.15-0.8c0.967-0.633,1.6-1.534,1.9-2.7c1.5,0.067,2.6-0.183,3.3-0.75
				c0.733-0.6,1.117-1.683,1.15-3.25c0.833,0.4,1.9,0.617,3.2,0.65c1.533,0.067,2.316-0.3,2.35-1.1c0.6,0.1,1.05,0,1.35-0.3
				c-0.1,0.867,0.184,1.567,0.85,2.1c-0.967,0.433-1.367,1.233-1.2,2.4c0.2,1.2,0.667,1.5,1.4,0.9c-0.1,0.8,0.383,1.483,1.45,2.05
				c1,0.5,1.9,0.633,2.7,0.4c-0.7,0.467-1.267,0.483-1.7,0.05c-0.333,1.067-0.983,1.783-1.95,2.15c-1,0.4-1.983,0.333-2.95-0.2
				c0,0.7,0,1.217,0,1.55c-0.033,0.633-0.233,1.1-0.6,1.4c-0.733,0.633-1.566,0.767-2.5,0.4c-0.833-0.333-1.483-0.917-1.95-1.75
				c0,1.333-0.8,2.517-2.4,3.55c-1.633,1.067-2.684,0.85-3.15-0.65c0.133,1.2,0.167,2.083,0.1,2.65
				c-0.1,1.167-0.483,1.917-1.15,2.25c-0.7,0.333-1.433,0.233-2.2-0.3c-0.767-0.534-1.183-1.167-1.25-1.9
				c-0.2,1.6,0.2,2.967,1.2,4.1c1.067,1.233,2.267,1.267,3.6,0.1c-0.533,1.2-0.383,2.333,0.45,3.4c0.867,1.1,1.65,0.867,2.35-0.7
				c-0.5,1.233-0.833,2.2-1,2.9c-0.3,1.267-0.066,2.2,0.7,2.8c1.066,0.8,2.283,0.317,3.65-1.45c1.467-1.934,2.483-2.817,3.05-2.65
				c-0.3,1.267,0.367,2.034,2,2.3c1.667,0.3,2.684-0.05,3.05-1.05c0.167,1.067,0.733,2.167,1.7,3.3c0.9,1.066,1.817,1.8,2.75,2.2
				c0.067-1.133,0.067-2.267,0-3.4c0.1,1,0.617,1.9,1.55,2.7c0.9,0.8,1.867,1.183,2.9,1.15c0.033-0.167-0.067-1.217-0.3-3.15
				c-0.133-1.1,0.4-1.8,1.6-2.1c-1.1-2.467,0.517-3.9,4.85-4.3c2.333-0.2,3.533,0.65,3.6,2.55c-0.3,2.6-0.317,4.533-0.05,5.8
				c0.2-0.133,0.333-0.35,0.4-0.65c-0.2,1,0.017,1.983,0.65,2.95c0.7,1.133,1.5,1.3,2.4,0.5c-0.667,1.733,0.1,2.883,2.3,3.45
				c2.133,0.534,3.733,0.25,4.8-0.85c-0.533,1-0.367,2.15,0.5,3.45c0.8,1.1,1.767,1.9,2.9,2.4c1.133,0.434,1.917,0.333,2.35-0.3
				c0.3-0.433,0.533-1.333,0.7-2.7c0.367,1.333,0.833,2.383,1.4,3.15c0.733,0.933,1.7,1.617,2.9,2.05c1.3,0.433,2.267,0.35,2.9-0.25
				c0.567-0.567,0.8-1.533,0.7-2.9c0.5,0.8,1.316,1.383,2.45,1.75c0.967,0.267,2,0.35,3.1,0.25c1.434-0.133,2.317-0.567,2.65-1.3
				c0.167-0.333,0.284-1.367,0.35-3.1c3.6,0.733,6.567,0.966,8.9,0.7c0.167-0.933,0.1-2.05-0.2-3.35c2.867-0.1,4.75-0.283,5.65-0.55
				c2.267-0.633,3.117-1.95,2.55-3.95c1.767-0.2,3.934-0.533,6.5-1c-0.633,0-1.15-0.367-1.55-1.1l-0.35-0.05
				c0.033-0.167,0.017-0.467-0.05-0.9c-0.067-0.433-0.067-0.75,0-0.95c-1.3-0.4-3.267-0.333-5.9,0.2c-2.934,0.6-4.967,0.833-6.1,0.7
				c0.033-0.2,0.017-0.534-0.05-1c-0.066-0.434-0.083-0.75-0.05-0.95c-1.533-0.033-2.35-0.067-2.45-0.1
				c-0.733-0.167-1.233-0.633-1.5-1.4c-0.167-0.733-0.183-1.517-0.05-2.35c-2.033-0.733-4.183-1.917-6.45-3.55
				c-1.966-1.467-3.533-2.883-4.7-4.25c0.2,1.1,0.25,2.433,0.15,4c-0.167,1.767-0.283,3.1-0.35,4c-1.8-0.434-4.217-3.317-7.25-8.65
				c-1.667-2.8-2.65-5-2.95-6.6c-0.3,3.533-1.067,5.767-2.3,6.7c-1.267-0.566-2.433-1.85-3.5-3.85c-0.967-1.8-1.517-3.467-1.65-5
				c-0.033,1.733-0.483,3.667-1.35,5.8c-0.3-0.667-0.9-2.4-1.8-5.2c-0.733-2.267-1.45-3.883-2.15-4.85c0,0.6-0.017,1.033-0.05,1.3
				c-0.066,0.5-0.267,0.817-0.6,0.95l-0.4-0.9c0.133,0.767-0.1,1.233-0.7,1.4c-0.567,0.2-1.217,0.117-1.95-0.25
				c-0.867-0.4-1.633-1.217-2.3-2.45c-0.567-1.033-0.95-2.133-1.15-3.3c-0.033,1.233-0.333,2.4-0.9,3.5
				c-1.2,0.3-2.25-0.434-3.15-2.2c-0.8-1.567-1.117-2.95-0.95-4.15c-0.966,1.533-1.716,2.6-2.25,3.2
				c-1.2,1.267-2.216,1.567-3.05,0.9c-1.1-0.9-1.067-2.517,0.1-4.85c0.933-1.833,1.967-3.233,3.1-4.2c-0.7,0.233-1.617,0.4-2.75,0.5
				c-1.467,0.1-2.333-0.1-2.6-0.6c-0.2-0.433-0.05-0.933,0.45-1.5c-0.966-0.066-1.566-0.45-1.8-1.15c-0.233-0.7,0.2-1.183,1.3-1.45
				c-1.133,0.133-2.216,0.117-3.25-0.05c-1.267-0.2-2.2-0.633-2.8-1.3c0.567,1.467-0.117,2.35-2.05,2.65
				c-1.633,0.3-3.05,0.2-4.25-0.3c-0.267,1.733-1.4,2.633-3.4,2.7c-1.466,0.067-3.066-0.283-4.8-1.05
				c0.433,2.833-0.15,4.367-1.75,4.6c-1.067,0.167-2.917-0.333-5.55-1.5c-0.167,0.167-0.867,1.6-2.1,4.3
				c-0.8,1.733-2.033,2.267-3.7,1.6c-1.267-0.5-2.033-1.7-2.3-3.6c-0.167-1.067-0.167-2.583,0-4.55c-0.4,2.267-1.15,2.983-2.25,2.15
				c-1.1-0.867-1.2-2.133-0.3-3.8c-0.333,0.233-0.917,0.967-1.75,2.2c-0.833,1-1.6,1.3-2.3,0.9c-0.7-0.433-0.817-1.533-0.35-3.3
				c0.2-0.7,0.633-1.85,1.3-3.45c-0.934,0.667-1.7,0.934-2.3,0.8c-0.233-0.9-0.083-1.85,0.45-2.85c0.733-1.1,1.25-1.95,1.55-2.55
				c-0.767,0.567-1.733,0.917-2.9,1.05c-1.133,0.133-2.167,0.033-3.1-0.3c-0.033-0.566,0.1-1.183,0.4-1.85
				c0.167-0.4,0.467-0.983,0.9-1.75c-0.434,0.066-1.55,0.333-3.35,0.8C-71.517,0.083-72.65,0.25-73.55,0.25z M39.65,44.8
				c1.133-0.333,2.017-0.683,2.65-1.05c-0.033,1.1,0.1,1.817,0.4,2.15c0.333,0.434,1.066,0.533,2.2,0.3
				c0.3-0.067,0.934-0.434,1.9-1.1c0.833-0.6,1.467-0.85,1.9-0.75c0.3,0.066,0.716,0.35,1.25,0.85c0.533,0.5,1.066,0.816,1.6,0.95
				c0.633,0.133,1.7,0.133,3.2,0c0.267-0.033,0.5-0.2,0.7-0.5c0.133-0.3,0.4-0.417,0.8-0.35c2.067,0.2,3.733,1.133,5,2.8
				c0.9,0.2,1.767,0.217,2.6,0.05c0.033-0.233,0.017-0.583-0.05-1.05c1.6,1.333,3.25,1.967,4.95,1.9c2.067-0.067,3.283-1.3,3.65-3.7
				c2.733,0.8,4.9,1.35,6.5,1.65c2.434,0.433,4.633,0.517,6.6,0.25c-0.1-1.534-0.2-2.483-0.3-2.85c-0.267-0.867-0.867-1.55-1.8-2.05
				c1.833,0.1,3.35,0.184,4.55,0.25c2.267,0.133,3.617-0.117,4.05-0.75c0.467-0.7-0.083-1.4-1.65-2.1c-0.8-0.333-1.8-0.667-3-1
				c3.367-0.1,5.083-0.883,5.15-2.35c0.033-0.767-0.933-1.4-2.9-1.9c-2.4-0.6-3.7-0.967-3.9-1.1c0.867-0.967,1.316-1.533,1.35-1.7
				c0.167-0.433-0.05-1.083-0.65-1.95c-0.2-0.267-0.783-0.767-1.75-1.5c-0.633-0.667-0.45-1.184,0.55-1.55
				c-0.233-0.233-0.633-0.6-1.2-1.1c-0.5-0.466-0.833-0.883-1-1.25c-0.2-0.4-0.333-1.15-0.4-2.25c-0.067-1.2,0.033-1.95,0.3-2.25
				c0.3-0.333,0.833-0.5,1.6-0.5c0.9-0.033,1.467-0.1,1.7-0.2c-0.3,0.8,0.117,1.566,1.25,2.3c1.066,0.667,2.017,0.934,2.85,0.8
				c-0.033-0.233,0-0.65,0.1-1.25c1.1,1,2.6,1.85,4.5,2.55c2.033,0.733,3.684,0.933,4.95,0.6c0-0.567-0.133-1.05-0.4-1.45
				c0.533-0.333,1.3-0.5,2.3-0.5c1.533,0,2.367,0,2.5,0c0.3-0.767,0.167-1.533-0.4-2.3c2.4,0.967,4.733,1.35,7,1.15
				c2.633-0.233,2.667-1.5,0.1-3.8c2.267-0.6,4.033-1.2,5.3-1.8c2.4-1.133,2.45-2.233,0.15-3.3c0.367-0.267,1.517-0.6,3.45-1
				c1.667-0.367,2.65-0.817,2.95-1.35c0.534-0.967-0.4-1.817-2.8-2.55c-1.267-0.4-2.85-0.784-4.75-1.15c1.733-0.433,2-1.466,0.8-3.1
				c-1.1-1.467-2.333-2.4-3.7-2.8c0.867,0.233,1.717,0.2,2.55-0.1c-0.133-0.566-0.45-1.066-0.95-1.5c-0.467-0.4-1-0.667-1.6-0.8
				c0.066-0.033,0.917-0.267,2.55-0.7c1.033-0.267,1.833-0.583,2.4-0.95c-0.066-0.434-0.3-0.767-0.7-1
				c-0.633-0.367-1-0.617-1.1-0.75c0.6-1,0.3-2.083-0.9-3.25c-0.467-0.434-1.583-1.233-3.35-2.4c0.333,0.767,0.333,1.583,0,2.45
				c-0.633,0.267-1.417,0.317-2.35,0.15c-0.7,0.434-1.8,0.583-3.3,0.45s-2.6-0.017-3.3,0.35c1.934,1.267,3.367,2.333,4.3,3.2
				c1.6,1.567,2.417,3.067,2.45,4.5c-0.367-0.033-1.733-0.167-4.1-0.4c-1.667-0.167-3.034-0.217-4.1-0.15
				c2.566,0.9,4.517,1.65,5.85,2.25c2.367,1.1,3.917,2.4,4.65,3.9c-0.434,0.434-1.217,0.6-2.35,0.5c-1.533-0.133-2.4-0.183-2.6-0.15
				c1.733,0.767,2.817,1.833,3.25,3.2c-0.6,0.833-1.717,1.133-3.35,0.9c-0.8-0.133-2.033-0.483-3.7-1.05
				c2.333,1.667,3.617,3.284,3.85,4.85c-0.8,0.167-1.684,0.067-2.65-0.3c-0.9-0.333-1.7-0.8-2.4-1.4
				c0.367,0.833,0.583,1.883,0.65,3.15c0.1,1.367-0.017,2.417-0.35,3.15c-0.6,0.167-1.25,0.117-1.95-0.15
				c-0.767-0.3-1.267-0.7-1.5-1.2c0.1,1.2-0.017,2.25-0.35,3.15c-0.4,1.1-1.066,1.667-2,1.7c-0.9,0.033-1.767-0.767-2.6-2.4
				c-0.667-1.333-1.033-2.5-1.1-3.5l0.05-1.6l-0.3,0.6c-1.267,0.066-2.45-0.7-3.55-2.3c-1-1.466-1.55-2.966-1.65-4.5
				c-0.2,0.4-0.533,0.583-1,0.55c-0.433-0.067-0.8-0.3-1.1-0.7C84.183,8.5,83.3,9.033,82,9.5c-1.533,0.433-3.367,0.483-5.5,0.15
				c-0.3-0.033-2.1-0.433-5.4-1.2c1.767,2,0.417,3.133-4.05,3.4c-2.3,0.133-5.183,0.083-8.65-0.15c0.067,0.066,1.333,1.183,3.8,3.35
				c1.633,1.434,2.4,2.85,2.3,4.25c-1.233,0.067-2.733,0.017-4.5-0.15c-1.033-0.133-2.55-0.316-4.55-0.55
				c0.533,0.233,2.167,1.183,4.9,2.85c2.333,1.4,3.367,2,3.1,1.8c1.8,0.967,2.867,2.367,3.2,4.2c-0.367,0.6-1.05,0.9-2.05,0.9
				c-0.533,0-1.383-0.017-2.55-0.05c1.733,0.5,2.3,1.367,1.7,2.6s-1.733,1.65-3.4,1.25c1.066,0.467,1.95,1.117,2.65,1.95
				c0.9,1.033,1.183,2.033,0.85,3c-0.667,0.333-1.75,0.367-3.25,0.1c-1.1-0.167-2.2-0.45-3.3-0.85c1.167,0.733,2.333,1.983,3.5,3.75
				c1.434,2.1,1.667,3.55,0.7,4.35c-1.9-0.267-3.717-0.667-5.45-1.2c-2.333-0.767-4.066-1.667-5.2-2.7
				c0.333,0.7,0.25,1.317-0.25,1.85c-0.467,0.5-1.184,0.783-2.15,0.85c-1.567,0.067-3.45-0.667-5.65-2.2
				c-1.466-1.066-2.75-2.233-3.85-3.5c0.5,0.767,0.816,1.75,0.95,2.95C40.067,41.867,39.983,43.3,39.65,44.8z M122.85-26.15
				c-1.6,1.033-3.75,2.333-6.45,3.9c-3.1,1.933-4.467,3.567-4.1,4.9c-0.6,0.133-1.517,0.167-2.75,0.1
				c1.067,0.5,1.883,0.95,2.45,1.35c1,0.7,1.433,1.4,1.3,2.1c-1.033,0.167-2.5,0.017-4.4-0.45c0.567,0.6,0.983,1.05,1.25,1.35
				c0.5,0.533,0.85,1.017,1.05,1.45c1.633,0.567,2.683,0.9,3.15,1c0.7,0.133,1.25-0.633,1.65-2.3c0.067-2.267,0.15-3.467,0.25-3.6
				c0.233-0.3,0.7-0.533,1.4-0.7c0.667-0.167,1.1-0.417,1.3-0.75c0.133-0.267,0.15-0.883,0.05-1.85c-0.133-1-0.167-1.65-0.1-1.95
				c0.367-1.2,1.383-2.483,3.05-3.85C122.217-25.683,122.517-25.917,122.85-26.15z M62.45,44.3c0.733,0.8,1.183,1.733,1.35,2.8
				C62.467,45.967,62.017,45.033,62.45,44.3z M-96.95,10.15l0.75,0.1l-0.3-0.05L-96.95,10.15z M-101.2,9.6l0.05-0.15l-0.55-0.05
				l-0.25,0.1L-101.2,9.6z"/>
			<path style="fill-rule:evenodd;clip-rule:evenodd;fill:#5D5D34;" d="M117.55-26.75c-0.2,0.4-0.367,0.767-0.5,1.1l-0.25,1.2v-0.4
				c-0.066-0.4-0.167-0.75-0.3-1.05c-1.233,0.933-2.283,1.483-3.15,1.65c-0.6,0.1-1.483,0.1-2.65,0c-0.833,0.1-1.133,0.75-0.9,1.95
				c-1.367-0.3-2.133-0.467-2.3-0.5c-0.967-0.1-1.683,0.017-2.15,0.35c-0.4-0.867-1.45-1.383-3.15-1.55c-1.7-0.133-2.817,0.2-3.35,1
				c-0.167,0.233-0.184,0.783-0.05,1.65c0.133,0.767,0,1.283-0.4,1.55c-0.267,0.167-0.95,0.2-2.05,0.1
				c0.1,0.2,0.217,0.517,0.35,0.95c0.2,0.533,0.267,0.833,0.2,0.9c-0.233,0.3-0.517,0.434-0.85,0.4c-0.4-0.033-0.7,0.034-0.9,0.2
				c-0.6,0.567-0.883,1.25-0.85,2.05c0,0.567,0.217,1.35,0.65,2.35c-0.9-1.133-2.383-1.5-4.45-1.1c-2.1,0.4-3,1.434-2.7,3.1
				c1.034,0.1,1.8,0.167,2.3,0.2c0.933,0.1,1.7,0.25,2.3,0.45c-0.066,0.467-0.316,0.934-0.75,1.4c-0.2,0.233-0.617,0.583-1.25,1.05
				c1.3,0.667,2.133,1.2,2.5,1.6c0.667,0.767,0.517,1.566-0.45,2.4c1.4,0.4,2.483,0.75,3.25,1.05c1.4,0.567,2.167,1.35,2.3,2.35
				c0.067,0.733-0.117,1.3-0.55,1.7c-0.267,0.267-0.8,0.566-1.6,0.9C96.183,2.717,96.367,3.3,96.4,4
				c0.033,0.733-0.117,1.317-0.45,1.75c-0.367-2.133-0.667-3.45-0.9-3.95c-0.566-1.267-1.617-1.816-3.15-1.65
				c0.067-0.733-0.133-1.133-0.6-1.2c-0.867-0.1-1.316-0.15-1.35-0.15c-0.567-0.333-0.934-0.883-1.1-1.65
				c-0.167-0.9-0.434-1.533-0.8-1.9c-0.966-1.067-2.2-1.483-3.7-1.25c-1.533,0.267-2.233,1.15-2.1,2.65
				c-1.6,0.5-2.633,0.017-3.1-1.45l-0.3,0.05c-1,0-2.067-0.283-3.2-0.85c-1.1-0.6-1.917-1.3-2.45-2.1c-0.833,0.967-1.5,1.633-2,2
				c-1,0.733-1.784,0.733-2.35,0c-0.333-0.466-0.317-1.033,0.05-1.7c0.367-0.667,0.867-1.117,1.5-1.35
				c-2.167,0.133-3.566-0.183-4.2-0.95c-0.067,0.3-0.467,0.55-1.2,0.75c-0.6,0.167-1.15,0.233-1.65,0.2
				c0.066,0.867,0.1,1.517,0.1,1.95c0,0.8-0.2,1.35-0.6,1.65c-0.733,0.433-2.283-0.217-4.65-1.95c0.433,2.267,0.65,3.967,0.65,5.1
				c-0.733,0.267-1.783,0.367-3.15,0.3c-1.733-0.066-2.833-0.066-3.3,0c0.1,1.733-0.617,2.483-2.15,2.25
				c-0.867-0.133-2.3-0.4-4.3-0.8c-0.034,0.3,0,0.7,0.1,1.2c0.167,0.733,0.25,1.133,0.25,1.2l-0.9,0.1
				c1.934,0.333,3.083,1.15,3.45,2.45c-0.833,0.1-2.1,0.117-3.8,0.05c-1.667-0.067-2.933-0.05-3.8,0.05
				c1.333,0.867,1.85,1.65,1.55,2.35c-0.167,0.4-0.55,0.617-1.15,0.65c-0.333,0-0.833,0.017-1.5,0.05c0.5,0.8,0.85,1.4,1.05,1.8
				c0.367,0.733,0.6,1.4,0.7,2c-1.8-0.833-2.883-1.733-3.25-2.7c0.267,0.767,0.333,1.716,0.2,2.85c-1.1-0.033-2.35-0.85-3.75-2.45
				c-1.2-1.4-1.95-2.633-2.25-3.7c0.3,1.333-0.133,1.85-1.3,1.55c-1.223-0.298-1.973-1.073-2.25-2.325
				c0.031,0.167,0.031,0.375,0,0.625c-0.033,0.333-0.05,0.567-0.05,0.7c-0.533-0.133-0.9-0.517-1.1-1.15
				c-0.133-0.367-0.267-0.966-0.4-1.8c-0.333-0.033-0.967-0.033-1.9,0c-0.833,0-1.483-0.033-1.95-0.1
				c-0.066-0.733-0.167-1.717-0.3-2.95c-0.133-1.034-0.4-2-0.8-2.9c-0.066-0.2-0.267-0.65-0.6-1.35
				c-0.333-0.767-0.534-1.184-0.6-1.25c-0.6-0.534-1.417-0.75-2.45-0.65c-1.066,0.133-1.5,0.667-1.3,1.6
				c-0.033,0-1.483-0.066-4.35-0.2c-2.1-0.067-3.283,0.283-3.55,1.05C9.85-3.133,10.2-2.533,11-1.7c0.7,0.767,1.267,1.267,1.7,1.5
				c-0.467-0.1-1.184-0.267-2.15-0.5c-0.867-0.167-1.617-0.167-2.25,0c0.034,0.133,0.034,0.35,0,0.65c-0.033,0.3-0.05,0.5-0.05,0.6
				c-2.133-0.867-3.283-0.4-3.45,1.4c0.133-2.3-0.017-3.717-0.45-4.25C3.783-2.967,2.8-3.35,1.4-3.45
				c-1.433-0.1-2.316,0.267-2.65,1.1c-1.8-0.4-2.983-0.583-3.55-0.55C-6.133-2.867-6.883-2.233-7.05-1c-2.067-1.867-4.1-2.6-6.1-2.2
				l-0.05,0.9c-0.367-1.867-2.017-3-4.95-3.4c1.167,0.5,1.6,1.284,1.3,2.35c-0.267,1.1-1.017,1.434-2.25,1
				c0.133-1.233-0.517-2.033-1.95-2.4c-0.767-0.2-1.934-0.4-3.5-0.6c-0.2-0.1-0.917-0.483-2.15-1.15
				c-0.833-0.5-1.667-0.783-2.5-0.85c-1.1-0.1-2.4-0.05-3.9,0.15c-0.333,0.333-0.717,0.583-1.15,0.75L-36.2-7.2
				c-1.333-0.233-2.167-0.25-2.5-0.05c-0.333,0.2-0.583,0.633-0.75,1.3c-0.167,0.667-0.383,1.083-0.65,1.25
				c-0.133,0.067-0.45,0.083-0.95,0.05c-0.534-0.067-0.9-0.05-1.1,0.05c0,0.3,0.1,0.767,0.3,1.4c0.167,0.567,0.233,1.034,0.2,1.4
				c-0.033,0-0.833-0.15-2.4-0.45c-1.067-0.2-1.784-0.1-2.15,0.3c0.133-0.933-0.617-1.683-2.25-2.25c-0.7-0.233-1.85-0.466-3.45-0.7
				l1.05-0.45c-0.467-1.133-0.433-2.15,0.1-3.05c0.533-0.934,1.333-0.967,2.4-0.1c-0.4-0.4-0.083-0.833,0.95-1.3
				c0.7-0.3,1.55-0.567,2.55-0.8c1.133-0.233,1.733-0.383,1.8-0.45c0.167-0.2,0.45-0.467,0.85-0.8c0.367-0.667,0.633-1.133,0.8-1.4
				c0.3-0.467,0.883-0.667,1.75-0.6c0.533,0.033,0.983,0.184,1.35,0.45c0.233,0.167,0.583,0.5,1.05,1
				c0.067-1.167,0.183-1.934,0.35-2.3c-1.7,0.167-3.35,0.133-4.95-0.1c-1.867-0.267-3-0.75-3.4-1.45c0.633-0.467,1.4-0.833,2.3-1.1
				c-1.3,0.3-2.417,0.283-3.35-0.05c0.133-0.833,0.683-1.583,1.65-2.25c1.133-0.667,1.917-1.2,2.35-1.6c-0.4,0-1.1,0.15-2.1,0.45
				c-0.9,0.167-1.517,0.017-1.85-0.45c0.233-0.6,0.567-1.15,1-1.65c-0.767,0.733-1.9,0.917-3.4,0.55c0-0.1,0.033-0.816,0.1-2.15
				c0.03-0.63-0.22-1.18-0.75-1.65c-0.232,1.447-0.632,2.914-1.2,4.4c-0.333,0.167-0.633,0.367-0.9,0.6
				c-0.067,0.033-0.1,0.083-0.1,0.15c0.433,0.2,0.633,0.533,0.6,1c-0.067,0.667-0.184,1.333-0.35,2l-1,1c0-0.233,0-0.483,0-0.75
				c0.033-0.833-0.217-1.583-0.75-2.25l-2.25-0.5c0.067-0.533,0.133-1.033,0.2-1.5c0.233-1.6,0.083-3.017-0.45-4.25h-1.75l-0.5-2.25
				l-1.5-1.25c-0.267,0-0.517,0-0.75,0c-1.2-0.233-2.2,0.1-3,1L-63.75-32l-3-0.25L-67-33.5c-1.767-1.367-3.767-1.2-6,0.5
				c-0.1-0.167-0.2-0.317-0.3-0.45c-0.367-0.6-0.85-0.95-1.45-1.05l-1.75,0.25L-77.75-33L-79-35.5h-3.75
				c-1.255,1.195-1.789,2.595-1.6,4.2c0.446,0.019,0.896,0.152,1.35,0.4c0.367,0.233,0.967,0.7,1.8,1.4
				c-0.066-0.167-0.066-0.45,0-0.85c0.067-0.4,0.083-0.683,0.05-0.85c1.533-0.466,2.85-0.033,3.95,1.3
				c-0.4-1.633,0.15-2.133,1.65-1.5c1.433,0.6,2.4,1.433,2.9,2.5c-0.067-0.3-0.067-0.733,0-1.3c2.167-0.367,3.6-0.1,4.3,0.8
				c0.6,0.767,0.8,2.25,0.6,4.45c0.5-0.566,1.417-0.917,2.75-1.05c1.367-0.133,2.283,0.1,2.75,0.7c0.333,0.466,0.433,1.183,0.3,2.15
				c-0.133,0.833-0.417,1.667-0.85,2.5c0.233,0.1,0.45,0.333,0.65,0.7v-0.3c0.2,1.233,0.3,2.083,0.3,2.55
				c-0.033,0.8-0.367,1.45-1,1.95c-0.867,0.133-1.767,0.45-2.7,0.95c-0.167,0.433-0.25,0.85-0.25,1.25
				c-0.534,1.066-0.833,2.216-0.9,3.45l-0.05-1.1c-1.267-0.4-2.283,0-3.05,1.2c-0.633,1.033-0.9,2.233-0.8,3.6
				c-0.566,0.6-1.033,1.25-1.4,1.95c-0.4,0.8-0.5,1.4-0.3,1.8c0.1,0.267,0.25,0.483,0.45,0.65c-0.6,0.4-1.066,0.8-1.4,1.2
				c-0.033,0.333-0.133,0.683-0.3,1.05c0.9,0,2.033-0.167,3.4-0.5c1.8-0.467,2.917-0.733,3.35-0.8c-0.434,0.767-0.733,1.35-0.9,1.75
				c-0.3,0.667-0.433,1.283-0.4,1.85c0.934,0.333,1.967,0.434,3.1,0.3c1.167-0.133,2.133-0.483,2.9-1.05
				c-0.3,0.6-0.816,1.45-1.55,2.55c-0.533,1-0.684,1.95-0.45,2.85c0.6,0.133,1.367-0.133,2.3-0.8c-0.667,1.6-1.1,2.75-1.3,3.45
				c-0.467,1.767-0.35,2.867,0.35,3.3c0.7,0.4,1.467,0.1,2.3-0.9c0.833-1.233,1.417-1.967,1.75-2.2c-0.9,1.667-0.8,2.934,0.3,3.8
				c1.1,0.833,1.85,0.117,2.25-2.15c-0.167,1.966-0.167,3.483,0,4.55c0.267,1.9,1.033,3.1,2.3,3.6c1.667,0.667,2.9,0.133,3.7-1.6
				c1.233-2.7,1.933-4.133,2.1-4.3c2.633,1.167,4.483,1.667,5.55,1.5c1.6-0.233,2.183-1.767,1.75-4.6
				c1.733,0.767,3.333,1.117,4.8,1.05c2-0.066,3.133-0.967,3.4-2.7c1.2,0.5,2.617,0.6,4.25,0.3c1.933-0.3,2.617-1.183,2.05-2.65
				c0.6,0.667,1.533,1.1,2.8,1.3c1.034,0.167,2.117,0.184,3.25,0.05c-1.1,0.267-1.533,0.75-1.3,1.45c0.233,0.7,0.833,1.083,1.8,1.15
				c-0.5,0.567-0.65,1.067-0.45,1.5c0.267,0.5,1.133,0.7,2.6,0.6c1.133-0.1,2.05-0.267,2.75-0.5c-1.133,0.967-2.167,2.367-3.1,4.2
				c-1.167,2.333-1.2,3.95-0.1,4.85c0.833,0.667,1.85,0.367,3.05-0.9c0.534-0.6,1.284-1.667,2.25-3.2
				c-0.167,1.2,0.15,2.583,0.95,4.15c0.9,1.767,1.95,2.5,3.15,2.2c0.567-1.1,0.867-2.267,0.9-3.5c0.2,1.167,0.583,2.267,1.15,3.3
				c0.667,1.233,1.433,2.05,2.3,2.45c0.733,0.367,1.383,0.45,1.95,0.25c0.6-0.167,0.833-0.633,0.7-1.4l0.4,0.9
				c0.333-0.133,0.534-0.45,0.6-0.95c0.033-0.267,0.05-0.7,0.05-1.3c0.7,0.966,1.417,2.583,2.15,4.85c0.9,2.8,1.5,4.534,1.8,5.2
				c0.867-2.133,1.317-4.067,1.35-5.8c0.133,1.533,0.683,3.2,1.65,5c1.067,2,2.233,3.283,3.5,3.85c1.233-0.933,2-3.167,2.3-6.7
				c0.3,1.6,1.283,3.8,2.95,6.6c3.033,5.333,5.45,8.216,7.25,8.65c0.067-0.9,0.184-2.233,0.35-4c0.1-1.567,0.05-2.9-0.15-4
				c1.167,1.367,2.733,2.783,4.7,4.25c2.267,1.633,4.417,2.816,6.45,3.55c0.1-0.9,0.3-1.566,0.6-2c-0.2,2.3,1.566,2.934,5.3,1.9
				c0.333-1.5,0.417-2.933,0.25-4.3c-0.133-1.2-0.45-2.183-0.95-2.95c1.1,1.267,2.383,2.434,3.85,3.5
				c2.2,1.534,4.083,2.267,5.65,2.2c0.966-0.067,1.683-0.35,2.15-0.85c0.5-0.533,0.583-1.15,0.25-1.85
				c1.133,1.034,2.867,1.934,5.2,2.7c1.733,0.533,3.55,0.933,5.45,1.2c0.967-0.8,0.733-2.25-0.7-4.35
				c-1.167-1.767-2.333-3.017-3.5-3.75c1.1,0.4,2.2,0.683,3.3,0.85c1.5,0.267,2.583,0.233,3.25-0.1c0.333-0.967,0.05-1.967-0.85-3
				c-0.7-0.833-1.583-1.483-2.65-1.95c1.667,0.4,2.8-0.017,3.4-1.25s0.033-2.1-1.7-2.6c1.167,0.034,2.017,0.05,2.55,0.05
				c1,0,1.683-0.3,2.05-0.9c-0.333-1.833-1.4-3.233-3.2-4.2c0.267,0.2-0.767-0.4-3.1-1.8c-2.733-1.667-4.367-2.617-4.9-2.85
				c2,0.233,3.517,0.417,4.55,0.55c1.767,0.167,3.267,0.217,4.5,0.15c0.1-1.4-0.667-2.816-2.3-4.25
				c-2.467-2.167-3.733-3.283-3.8-3.35c3.467,0.233,6.35,0.283,8.65,0.15c4.467-0.267,5.817-1.4,4.05-3.4
				c3.3,0.767,5.1,1.167,5.4,1.2c2.133,0.333,3.967,0.283,5.5-0.15c1.3-0.467,2.183-1,2.65-1.6c0.3,0.4,0.667,0.633,1.1,0.7
				c0.467,0.033,0.8-0.15,1-0.55c0.1,1.534,0.65,3.034,1.65,4.5c1.1,1.6,2.283,2.367,3.55,2.3l0.3-0.6l-0.05,1.6
				c0.066,1,0.433,2.167,1.1,3.5c0.833,1.633,1.7,2.433,2.6,2.4c0.934-0.033,1.6-0.6,2-1.7c0.333-0.9,0.45-1.95,0.35-3.15
				c0.233,0.5,0.733,0.9,1.5,1.2c0.7,0.267,1.35,0.316,1.95,0.15c0.333-0.733,0.45-1.783,0.35-3.15
				c-0.066-1.267-0.283-2.317-0.65-3.15c0.7,0.6,1.5,1.066,2.4,1.4c0.967,0.367,1.85,0.467,2.65,0.3
				c-0.233-1.566-1.517-3.183-3.85-4.85c1.667,0.567,2.9,0.917,3.7,1.05c1.633,0.233,2.75-0.067,3.35-0.9
				c-0.433-1.367-1.517-2.434-3.25-3.2c0.2-0.033,1.067,0.017,2.6,0.15c1.133,0.1,1.917-0.066,2.35-0.5
				c-0.733-1.5-2.283-2.8-4.65-3.9c-1.333-0.6-3.284-1.35-5.85-2.25c1.066-0.067,2.433-0.017,4.1,0.15
				c2.367,0.233,3.733,0.367,4.1,0.4c-0.033-1.433-0.85-2.933-2.45-4.5c-0.934-0.867-2.367-1.933-4.3-3.2
				c0.7-0.367,1.8-0.483,3.3-0.35s2.6-0.017,3.3-0.45c0.934,0.167,1.717,0.117,2.35-0.15c0.333-0.867,0.333-1.683,0-2.45L111-11.45
				h0.2c-0.2-0.433-0.55-0.917-1.05-1.45c-0.267-0.3-0.683-0.75-1.25-1.35c1.9,0.467,3.367,0.617,4.4,0.45
				c0.133-0.7-0.3-1.4-1.3-2.1c-0.567-0.4-1.383-0.85-2.45-1.35c1.233,0.067,2.15,0.033,2.75-0.1c-0.367-1.333,1-2.967,4.1-4.9
				c2.7-1.567,4.85-2.867,6.45-3.9l0.15-0.1l0.1-0.1c0.333-0.2,0.65-0.4,0.95-0.6c0-0.066,0-0.133,0-0.2
				c-0.066-0.367-0.117-0.783-0.15-1.25v-0.1c-0.033-0.1-0.05-0.2-0.05-0.3v-0.1c0-0.033,0-0.067,0-0.1
				c0-0.067-0.017-0.15-0.05-0.25v-0.05c-0.066-0.3-0.15-0.55-0.25-0.75l-0.85-0.75c-0.067-0.034-0.15-0.067-0.25-0.1
				c-0.867,0.8-2.1,1.833-3.7,3.1L117.55-26.75z M-101.2,9.6l4.25,0.55l0.45,0.05c-0.4-0.267-0.983-0.717-1.75-1.35
				c-0.3,0.6-0.717,0.9-1.25,0.9c-0.333-0.033-0.883-0.133-1.65-0.3L-101.2,9.6z M-80.2,7.65c-0.533,1.2-1.216,2.117-2.05,2.75
				c-1.067,0.833-2.017,0.75-2.85-0.25l-0.35,0.05c-0.133,0.3-0.233,0.95-0.3,1.95c-0.7,0.167-1.367,0.167-2,0
				c-0.767-0.2-1.25-0.617-1.45-1.25c-0.833,0.5-1.65,0.517-2.45,0.05c-0.467-0.267-1.15-0.8-2.05-1.6
				c-0.633,1.333-1.517,1.65-2.65,0.95l-0.6,0.2c-0.2,1.2-0.3,2.067-0.3,2.6c0.033,0.967,0.533,1.05,1.5,0.25
				c0.033,1.3,0.267,2.483,0.7,3.55c0.566,1.4,1.383,2.233,2.45,2.5c0.3-0.433,0.467-0.983,0.5-1.65c0-0.367-0.05-1-0.15-1.9
				c0.1,0.7,0.467,1.316,1.1,1.85c0.633,0.566,1.3,0.783,2,0.65c0.833-0.167,1.3-0.684,1.4-1.55c0.133-1.2,0.3-1.933,0.5-2.2
				c1.833,0.7,3.167,0.85,4,0.45c0.033-0.233,0.05-1.283,0.05-3.15c0.467,0.567,1.333,1.2,2.6,1.9c1.467,0.767,2.45,0.95,2.95,0.55
				c0.333-0.267,0.467-0.7,0.4-1.3c-0.1-0.633-0.017-1.1,0.25-1.4c0.267-0.333,0.733-0.55,1.4-0.65c0.633-0.1,1.117-0.383,1.45-0.85
				c0.4-0.5,0.617-1.45,0.65-2.85c0.033-1.1-0.05-2.1-0.25-3c-0.267,0-1.467,1.15-3.6,3.45C-79.05,9.583-80,9.55-80.2,7.65z
				 M-101.275-24.95c-0.006,0.07-0.015,0.137-0.025,0.2c-0.1,0.467,0.083,0.883,0.55,1.25l0.1,0.15
				c-0.546-0.152-1.096-0.294-1.65-0.425c0.622,0.746,1.472,1.554,2.55,2.425c-0.1-1.033-0.517-2.1-1.25-3.2
				C-101.078-24.673-101.169-24.807-101.275-24.95z M-63.6-19.35c0.3-0.367,0.567-0.8,0.8-1.3c-0.133-0.033-0.4-0.05-0.8-0.05
				C-63.667-20.033-63.667-19.583-63.6-19.35z M-84.8-31.3c-0.015-0.021-0.032-0.037-0.05-0.05c-1.5-1.3-2.967-1.517-4.4-0.65v1.775
				c0.387,0.079,0.788,0.188,1.2,0.325c1.433,0.467,2.566,1.15,3.4,2.05c-0.067-0.4-0.2-0.967-0.4-1.7
				c-0.133-0.667-0.167-1.233-0.1-1.7C-85.032-31.278-84.916-31.294-84.8-31.3z M-94.35-28.8c0.688,0.41,1.921,1.227,3.7,2.45
				c-0.733-1.133-1.117-1.767-1.15-1.9c-0.4-0.767-0.483-1.433-0.25-2c0.619-0.142,1.285-0.175,2-0.1
				c-0.668-0.408-1.485-0.541-2.45-0.4v3c-0.1,0-0.167-0.017-0.2-0.05C-93.249-28.212-93.799-28.545-94.35-28.8z M-99.2-29.075
				c-0.267,0.091-0.534,0.199-0.8,0.325l0.625,1.875c0.668,0.16,1.193,0.285,1.575,0.375c-0.2-0.4-0.534-0.917-1-1.55
				C-99.001-28.392-99.134-28.733-99.2-29.075z"/>
			<path style="fill-rule:evenodd;clip-rule:evenodd;fill:#434424;" d="M121.55-30.9c-0.6,0.133-1.2,0.5-1.8,1.1
				c-0.833,0.767-1.567,1.783-2.2,3.05l1.2-1.05c1.6-1.267,2.833-2.3,3.7-3.1h-0.05l-0.3-0.05L121.55-30.9z M-99.375-26.875
				L-100-28.75c0.266-0.126,0.533-0.234,0.8-0.325c1.63-0.562,3.247-0.47,4.85,0.275c0.551,0.254,1.101,0.588,1.65,1
				c0.034,0.033,0.1,0.05,0.2,0.05v-3c0.965-0.141,1.782-0.008,2.45,0.4c0.275,0.169,0.525,0.386,0.75,0.65
				c0.032,0.064,0.048,0.13,0.05,0.2v-0.725V-32c1.433-0.867,2.9-0.65,4.4,0.65c0.019,0.013,0.035,0.03,0.05,0.05
				c0.213,0.152,0.396,0.335,0.55,0.55c-0.042-0.19-0.075-0.373-0.1-0.55c-0.188-1.605,0.345-3.005,1.6-4.2H-79l1.25,2.5l1.25-1.25
				l1.75-0.25c0.6,0.1,1.083,0.45,1.45,1.05c0.1,0.133,0.2,0.284,0.3,0.45c2.233-1.7,4.233-1.867,6-0.5l0.25,1.25l3,0.25l0.75,3.25
				c0.8-0.9,1.8-1.233,3-1c0.233,0,0.483,0,0.75,0l1.5,1.25l0.5,2.25h1.75c0.533,1.233,0.683,2.65,0.45,4.25
				c-0.067,0.467-0.133,0.967-0.2,1.5L-53-20c0.533,0.667,0.783,1.417,0.75,2.25c0,0.267,0,0.517,0,0.75l1-1
				c0.167-0.667,0.283-1.333,0.35-2c0.033-0.467-0.167-0.8-0.6-1c0-0.067,0.033-0.117,0.1-0.15c0.267-0.233,0.566-0.434,0.9-0.6
				c0.568-1.486,0.968-2.953,1.2-4.4c0.53,0.47,0.78,1.02,0.75,1.65c-0.067,1.333-0.1,2.05-0.1,2.15c1.5,0.367,2.633,0.184,3.4-0.55
				c-0.433,0.5-0.767,1.05-1,1.65c0.333,0.467,0.95,0.617,1.85,0.45c1-0.3,1.7-0.45,2.1-0.45c-0.434,0.4-1.217,0.933-2.35,1.6
				c-0.967,0.667-1.517,1.417-1.65,2.25c0.933,0.333,2.05,0.35,3.35,0.05c-0.9,0.267-1.667,0.633-2.3,1.1
				c0.4,0.7,1.533,1.183,3.4,1.45c1.6,0.233,3.25,0.267,4.95,0.1c-0.167,0.367-0.283,1.133-0.35,2.3c-0.467-0.5-0.817-0.833-1.05-1
				c-0.367-0.267-0.817-0.417-1.35-0.45c-0.867-0.066-1.45,0.133-1.75,0.6c-0.167,0.267-0.434,0.733-0.8,1.4
				c-0.4,0.333-0.683,0.6-0.85,0.8c-0.067,0.066-0.667,0.216-1.8,0.45c-1,0.233-1.85,0.5-2.55,0.8c-1.033,0.466-1.35,0.9-0.95,1.3
				c-1.066-0.867-1.867-0.833-2.4,0.1c-0.533,0.9-0.567,1.917-0.1,3.05L-51.9-4.9c1.6,0.233,2.75,0.467,3.45,0.7
				c1.633,0.567,2.383,1.317,2.25,2.25c0.367-0.4,1.083-0.5,2.15-0.3c1.566,0.3,2.367,0.45,2.4,0.45
				c0.033-0.367-0.033-0.833-0.2-1.4c-0.2-0.633-0.3-1.1-0.3-1.4c0.2-0.1,0.566-0.117,1.1-0.05c0.5,0.033,0.816,0.017,0.95-0.05
				c0.267-0.167,0.483-0.583,0.65-1.25c0.167-0.667,0.417-1.1,0.75-1.3c0.333-0.2,1.167-0.183,2.5,0.05l1.95,0.75
				c0.433-0.167,0.817-0.417,1.15-0.75c1.5-0.2,2.8-0.25,3.9-0.15c0.833,0.067,1.667,0.35,2.5,0.85c1.233,0.667,1.95,1.05,2.15,1.15
				c1.566,0.2,2.733,0.4,3.5,0.6c1.433,0.367,2.083,1.167,1.95,2.4c1.233,0.434,1.983,0.1,2.25-1c0.3-1.066-0.133-1.85-1.3-2.35
				c2.933,0.4,4.583,1.534,4.95,3.4l0.05-0.9c2-0.4,4.033,0.333,6.1,2.2c0.167-1.233,0.917-1.867,2.25-1.9
				c0.566-0.033,1.75,0.15,3.55,0.55c0.333-0.833,1.217-1.2,2.65-1.1c1.4,0.1,2.383,0.483,2.95,1.15
				C4.783-1.767,4.933-0.35,4.8,1.95c0.167-1.8,1.317-2.267,3.45-1.4c0-0.1,0.017-0.3,0.05-0.6c0.034-0.3,0.034-0.517,0-0.65
				c0.633-0.167,1.383-0.167,2.25,0c0.967,0.233,1.684,0.4,2.15,0.5c-0.434-0.233-1-0.733-1.7-1.5c-0.8-0.833-1.15-1.433-1.05-1.8
				c0.267-0.767,1.45-1.117,3.55-1.05c2.867,0.133,4.317,0.2,4.35,0.2c-0.2-0.933,0.233-1.467,1.3-1.6
				C20.183-6.05,21-5.833,21.6-5.3c0.066,0.066,0.267,0.483,0.6,1.25c0.333,0.7,0.533,1.15,0.6,1.35c0.4,0.9,0.667,1.867,0.8,2.9
				c0.133,1.233,0.233,2.216,0.3,2.95c0.467,0.067,1.117,0.1,1.95,0.1c0.933-0.033,1.566-0.033,1.9,0
				c0.133,0.833,0.267,1.433,0.4,1.8c0.2,0.633,0.567,1.017,1.1,1.15c0-0.133,0.017-0.367,0.05-0.7c0.031-0.25,0.031-0.458,0-0.625
				c0.277,1.252,1.027,2.027,2.25,2.325c1.167,0.3,1.6-0.217,1.3-1.55c0.3,1.067,1.05,2.3,2.25,3.7c1.4,1.6,2.65,2.417,3.75,2.45
				c0.133-1.133,0.066-2.083-0.2-2.85c0.367,0.966,1.45,1.867,3.25,2.7c-0.1-0.6-0.333-1.267-0.7-2c-0.2-0.4-0.55-1-1.05-1.8
				c0.667-0.033,1.167-0.05,1.5-0.05c0.6-0.033,0.983-0.25,1.15-0.65c0.3-0.7-0.216-1.483-1.55-2.35c0.867-0.1,2.133-0.117,3.8-0.05
				c1.7,0.067,2.967,0.05,3.8-0.05c-0.367-1.3-1.517-2.117-3.45-2.45l0.9-0.1c0-0.066-0.083-0.467-0.25-1.2
				c-0.1-0.5-0.133-0.9-0.1-1.2c2,0.4,3.433,0.667,4.3,0.8c1.533,0.233,2.25-0.517,2.15-2.25c0.467-0.066,1.567-0.066,3.3,0
				c1.367,0.067,2.417-0.033,3.15-0.3c0-1.133-0.217-2.833-0.65-5.1c2.367,1.733,3.917,2.383,4.65,1.95c0.4-0.3,0.6-0.85,0.6-1.65
				c0-0.434-0.034-1.083-0.1-1.95c0.5,0.033,1.05-0.033,1.65-0.2c0.733-0.2,1.133-0.45,1.2-0.75c0.633,0.767,2.033,1.083,4.2,0.95
				c-0.633,0.233-1.133,0.683-1.5,1.35c-0.367,0.667-0.383,1.233-0.05,1.7c0.566,0.733,1.35,0.733,2.35,0c0.5-0.367,1.167-1.033,2-2
				c0.533,0.8,1.35,1.5,2.45,2.1c1.133,0.567,2.2,0.85,3.2,0.85l0.3-0.05c0.467,1.466,1.5,1.95,3.1,1.45
				c-0.133-1.5,0.567-2.383,2.1-2.65c1.5-0.233,2.733,0.183,3.7,1.25c0.367,0.367,0.633,1,0.8,1.9c0.167,0.767,0.533,1.317,1.1,1.65
				c0.033,0,0.483,0.05,1.35,0.15c0.467,0.066,0.667,0.466,0.6,1.2c1.533-0.167,2.583,0.383,3.15,1.65
				c0.233,0.5,0.534,1.817,0.9,3.95C96.283,5.317,96.433,4.733,96.4,4c-0.033-0.7-0.217-1.283-0.55-1.75
				c0.8-0.333,1.333-0.633,1.6-0.9c0.433-0.4,0.617-0.967,0.55-1.7c-0.133-1-0.9-1.783-2.3-2.35c-0.767-0.3-1.85-0.65-3.25-1.05
				c0.966-0.833,1.117-1.633,0.45-2.4c-0.367-0.4-1.2-0.934-2.5-1.6c0.633-0.467,1.05-0.817,1.25-1.05
				c0.434-0.467,0.684-0.934,0.75-1.4c-0.6-0.2-1.367-0.35-2.3-0.45c-0.5-0.033-1.267-0.1-2.3-0.2c-0.3-1.667,0.6-2.7,2.7-3.1
				c2.067-0.4,3.55-0.033,4.45,1.1c-0.434-1-0.65-1.783-0.65-2.35c-0.033-0.8,0.25-1.483,0.85-2.05c0.2-0.167,0.5-0.233,0.9-0.2
				c0.333,0.034,0.617-0.1,0.85-0.4c0.067-0.066,0-0.367-0.2-0.9c-0.133-0.433-0.25-0.75-0.35-0.95c1.1,0.1,1.783,0.067,2.05-0.1
				c0.4-0.267,0.533-0.784,0.4-1.55c-0.133-0.867-0.117-1.417,0.05-1.65c0.533-0.8,1.65-1.133,3.35-1
				c1.7,0.167,2.75,0.683,3.15,1.55c0.467-0.333,1.183-0.45,2.15-0.35c0.167,0.033,0.933,0.2,2.3,0.5
				c-0.233-1.2,0.067-1.85,0.9-1.95c1.167,0.1,2.05,0.1,2.65,0c0.867-0.167,1.917-0.717,3.15-1.65c-0.333-0.9-0.883-1.617-1.65-2.15
				c-1.033,0.333-2.133,0.5-3.3,0.5c-0.133,0.4-0.233,0.933-0.3,1.6l-0.55-1.65c-0.3,0-0.583-0.05-0.85-0.15
				c-0.867-0.2-1.8-0.4-2.8-0.6c-0.7-0.066-1.617,0.1-2.75,0.5c-0.4,0.133-1.017,0.267-1.85,0.4c-0.6,0.233-0.833,0.784-0.7,1.65
				c-1.067-0.5-2.017-0.684-2.85-0.55c-0.533,0.1-1.517,0.333-2.95,0.7c-1.167,0.133-2.217,0.45-3.15,0.95
				c-0.1,0.067-0.417,0.434-0.95,1.1c-0.3,0.367-0.783,0.483-1.45,0.35c0.067,1.5-0.75,2.5-2.45,3
				c-0.434,0.133-1.967,0.317-4.6,0.55c0.033,1.267,0.017,2.217-0.05,2.85c-0.466,0.067-1.283-0.033-2.45-0.3
				c-1.067-0.2-1.883-0.217-2.45-0.05c-0.1,0.2-0.117,0.467-0.05,0.8c-0.533-1.934-1.767-2.934-3.7-3
				c-1.867-0.067-3.566,0.65-5.1,2.15c-0.233,0.233-0.517,0.583-0.85,1.05c-0.367,0.467-0.65,0.8-0.85,1
				c-0.1,0.067-0.333,0.083-0.7,0.05c-0.3-0.067-0.55,0.05-0.75,0.35c-0.3,0.433-0.316,0.917-0.05,1.45
				c0.233,0.5,0.55,0.817,0.95,0.95c-0.466,0.133-1.1,0.183-1.9,0.15c-0.933-0.033-1.583-0.017-1.95,0.05
				c-0.367,0.067-0.9,0.233-1.6,0.5c-0.667,0.233-1.184,0.383-1.55,0.45c-0.433,0.067-1.083,0.05-1.95-0.05
				c-0.7,0-1.217,0.283-1.55,0.85c-0.233-1.033,0.117-1.767,1.05-2.2c1.233-0.367,2.083-0.717,2.55-1.05c-2.3-0.3-4-0.316-5.1-0.05
				c-1.633,0.4-2.75,1.483-3.35,3.25c-0.767-1-1.883-1.35-3.35-1.05c-1.3,0.267-1.9,0.933-1.8,2c-0.233-0.9-0.867-1.95-1.9-3.15
				c-1.333-1.533-2.233-1.566-2.7-0.1c-0.567-0.067-1.367-0.7-2.4-1.9c-1.066-1.233-1.95-1.933-2.65-2.1
				c-0.867-0.233-1.783-0.184-2.75,0.15c-1.6,0.6-2.433,0.9-2.5,0.9c-0.566,0.133-1.4,0.15-2.5,0.05c-1.2-0.066-2.05-0.066-2.55,0
				c-0.233,1.3,1.533,1.784,5.3,1.45c3.967-0.367,6.017-0.067,6.15,0.9c-0.566-0.033-1.017,0.167-1.35,0.6
				c-0.4,0.533-0.684,0.833-0.85,0.9c-0.267,0.1-0.85,0.233-1.75,0.4c-0.267-0.9-2.017-1.316-5.25-1.25
				c-1.267,0-3.217,0.15-5.85,0.45c0.067,1.733,0.083,2.85,0.05,3.35c-0.733-0.3-2-0.8-3.8-1.5c-1.567-0.467-2.833-0.483-3.8-0.05
				c-0.4-0.867-1.167-1.583-2.3-2.15c-1.2-0.566-1.717-0.167-1.55,1.2c-0.333-1.233-0.967-1.867-1.9-1.9
				c-0.967-0.034-1.534,0.6-1.7,1.9c-0.933-0.767-2.05-1.133-3.35-1.1c-1.4,0.067-2.233,0.717-2.5,1.95
				c-0.233,0-0.816-0.05-1.75-0.15c-0.733-0.1-1.333-0.1-1.8,0c-0.033,0.733-0.033,1.483,0,2.25C-2.05-9.55-3.167-10.4-4.5-11
				s-2.7-0.867-4.1-0.8c-0.167-0.9-0.633-1.617-1.4-2.15c-0.8-0.6-1.567-0.6-2.3,0c-0.567-1.3-1.9-2.267-4-2.9
				c-2.2-0.667-3.45-0.183-3.75,1.45c-2-0.934-4-1.217-6-0.85c-0.067,0.3-0.067,0.767,0,1.4c0.1,0.6,0.083,1.083-0.05,1.45
				l-0.75-0.25c-0.8-0.2-1.566-0.233-2.3-0.1c0.066,0.167,0.066,0.483,0,0.95c-0.067,0.466-0.083,0.8-0.05,1
				c-0.466,0.033-1.2,0.033-2.2,0c-0.9,0-1.65,0.117-2.25,0.35c-0.167-0.933,0.017-1.816,0.55-2.65c0.767-0.867,1.3-1.583,1.6-2.15
				c0.1-0.2,0.2-0.6,0.3-1.2c0.034-0.5,0.167-0.833,0.4-1l0.35-0.2c0.434-0.2,1.133-0.267,2.1-0.2c1.133,0.033,1.833,0.033,2.1,0
				c0.033-0.467-0.183-0.783-0.65-0.95c-0.7-0.233-1.117-0.434-1.25-0.6c-0.1-0.1-0.1-0.35,0-0.75c0.1-0.367,0.117-0.583,0.05-0.65
				c-0.7-0.6-1.383-0.934-2.05-1c-0.8-0.1-1.3,0.267-1.5,1.1c0.066-0.7-0.25-1.433-0.95-2.2c-0.7-0.767-1.45-1.2-2.25-1.3
				c-0.8-0.1-1.25,0.3-1.35,1.2c0.067-1-0.533-1.6-1.8-1.8c-1-0.167-2.017-0.083-3.05,0.25c-0.167-0.867-0.75-1.45-1.75-1.75
				c-0.967-0.233-1.767-0.1-2.4,0.4c-0.066-0.467-0.167-1.35-0.3-2.65c-0.2-1.133-0.533-1.917-1-2.35
				c-0.333-0.333-0.817-0.533-1.45-0.6c-0.017-0.001-0.033-0.001-0.05,0l-0.5,1l-1.5-0.75L-52.75-32l-1,1l-0.75-3.75
				c-0.759-1.122-1.667-1.464-2.725-1.025c-0.002,0.178-0.011,0.353-0.025,0.525c0-0.167,0-0.333,0-0.5l0.025-0.025
				c0.046-1.037-0.045-2.029-0.275-2.975c-2.6-1.167-5.183-1.167-7.75,0l-0.5,1.25c0-1.533-0.333-2.95-1-4.25
				c-2.533-0.8-4.617-0.467-6.25,1c-0.2,0.3-0.533,0.133-1-0.5L-79.25-41v2.25c-1.867-0.633-3.783-0.467-5.75,0.5l-0.25,1.75
				c-1.7-0.7-3.367-0.45-5,0.75l-0.5,1.5c-1.167-0.333-2.083,0-2.75,1L-94.25-34c-1.067-0.533-2.067-0.45-3,0.25l-1-1l-2.5,0.25v2
				c-0.9,0.067-1.733,0.4-2.5,1l-0.25,2.75c-0.5,0.033-1,0.033-1.5,0c-0.633-0.133-1.133,0.033-1.5,0.5l0.75,1.75
				c-0.167,0-0.333,0-0.5,0c-1.642-0.341-2.55,0.067-2.725,1.225c0.644,0.042,1.103,0.083,1.375,0.125l-0.2,0.35h0.05
				c-0.037,0.051-0.079,0.109-0.125,0.175c0.527,0.043,1.052,0.094,1.575,0.15c0.659,0.266,1.359,0.675,2.1,1.225
				c-0.31-0.286-0.468-0.611-0.475-0.975c0.802,0.127,1.593,0.277,2.375,0.45c0.554,0.131,1.104,0.272,1.65,0.425l-0.1-0.15
				c-0.467-0.367-0.65-0.783-0.55-1.25c0.01-0.063,0.019-0.13,0.025-0.2c0.027-0.162,0.052-0.345,0.075-0.55
				c0.034-0.167,0.1-0.333,0.2-0.5c0.5-0.033,1-0.033,1.5,0c0.167,0.1,0.333,0.183,0.5,0.25L-99.375-26.875z"/>
			<path style="fill-rule:evenodd;clip-rule:evenodd;fill:#36381D;" d="M114.35-28.4c-0.1-0.033-0.2-0.067-0.3-0.1
				c-0.1-0.033-0.2-0.067-0.3-0.1l-0.2-0.05c-0.167-0.033-0.35-0.05-0.55-0.05c-0.667,0.067-1.15,0.45-1.45,1.15
				c1.167,0,2.267-0.167,3.3-0.5C114.683-28.183,114.517-28.3,114.35-28.4z M17.35-17.05L17.3-16.9
				c0.027-0.164,0.044-0.339,0.05-0.525V-20c-0.033-0.067-0.05-0.15-0.05-0.25c-1.667-0.4-3.65-0.05-5.95,1.05
				c-1.267,0.6-3.117,1.55-5.55,2.85c0.133-0.4,0.517-1.1,1.15-2.1c0.5-0.833,0.8-1.55,0.9-2.15c-0.833-0.3-1.883-0.333-3.15-0.1
				c-0.567,0.1-1.6,0.367-3.1,0.8c0.167-0.333,0.467-0.867,0.9-1.6c0.3-0.633,0.433-1.2,0.4-1.7c-1.3-0.333-3-0.216-5.1,0.35
				c-2.7,0.7-4.367,1.067-5,1.1c-0.1-0.467-0.05-1.067,0.15-1.8c0.2-0.8,0.3-1.35,0.3-1.65c-1.233-0.3-2.8-0.267-4.7,0.1
				c-1.933,0.4-3.383,0.967-4.35,1.7c0.167-0.767,0.216-1.533,0.15-2.3c-1.2-0.233-2.667-0.216-4.4,0.05
				c-0.967,0.133-2.417,0.35-4.35,0.65c-0.167-0.4-0.167-0.85,0-1.35c0.167-0.6,0.233-1.05,0.2-1.35
				c-0.633-0.167-1.4-0.017-2.3,0.45c-1.133,0.6-1.867,0.933-2.2,1c0.434-1.567,0.65-2.55,0.65-2.95c-0.067-0.767-0.667-1.3-1.8-1.6
				c-0.333-0.1-0.883-0.184-1.65-0.25c-0.733-0.034-1.283-0.117-1.65-0.25c-1.133-1.133-2.5-1.9-4.1-2.3
				c-1.353-0.367-2.594-0.658-3.725-0.875c-0.515-0.087-1.007-0.163-1.475-0.225c0.387-0.051,0.896-0.077,1.525-0.075
				c0.18,0.009,0.372,0.018,0.575,0.025c1.033,0,1.75-0.017,2.15-0.05c0.167-0.833,0.133-1.567-0.1-2.2
				c-0.167,0.067-0.3,0.217-0.4,0.45c-0.066-0.6,0.117-1.517,0.55-2.75c-0.681-0.477-1.515-0.619-2.5-0.425
				c-0.469,0.083-0.969,0.241-1.5,0.475c-0.453,0.194-0.869,0.36-1.25,0.5c-0.547,0.385-1.081,0.802-1.6,1.25v-0.825
				c-0.411,0.057-0.745,0.048-1-0.025c0.054-0.235,0.196-0.602,0.425-1.1c-0.18-0.105-0.405-0.122-0.675-0.05
				c-0.167-0.667-0.667-1.5-1.5-2.5l-1.5,0.25c-0.6-1.367-1.517-1.783-2.75-1.25l-0.25,2.75c-0.031-0.038-0.064-0.071-0.1-0.1
				c-0.44-0.513-0.915-0.813-1.425-0.9c-0.463-0.094-0.955-0.01-1.475,0.25v1.75c-0.133-1.467-0.717-2.717-1.75-3.75
				c-0.167,0-0.333,0-0.5,0c-0.5-0.033-1,0.05-1.5,0.25l-1.25-5.75c-0.319,0.023-0.627,0.056-0.925,0.1
				c-1.85,0.238-3.292,0.789-4.325,1.65c0.1-1.5-0.483-2.583-1.75-3.25c-1.533-0.3-2.95-0.133-4.25,0.5l-1.5,2.75
				c-1.633-3-3.967-3.417-7-1.25v3c-1.967-1.6-4.05-1.767-6.25-0.5c-0.133,1.167,0.2,2.167,1,3h-3.25c0.3,1.067,0.883,2.067,1.75,3
				l-3.75,0.25l-0.75,1.5l-0.75-1c-1.5-0.467-2.917-0.3-4.25,0.5c0.167,0.767,0.083,1.017-0.25,0.75
				c-2.5-1.433-4.917-1.517-7.25-0.25L-103-35c-2.1-0.8-3.933-0.55-5.5,0.75c0,0.1,0,0.183,0,0.25
				c-0.021,0.546,0.104,1.046,0.375,1.5c1.3,0.417,2.058,0.733,2.275,0.95c-0.433,0.267-1.8,0.85-4.1,1.75
				c-1.966,0.966-2.783,2-2.45,3.1c0.2,0.7,0.9,1.15,2.1,1.35c0.506,0.025,0.948,0.05,1.325,0.075
				c0.175-1.158,1.083-1.566,2.725-1.225c0.167,0,0.333,0,0.5,0l-0.75-1.75c0.367-0.467,0.867-0.633,1.5-0.5
				c0.5,0.033,1,0.033,1.5,0l0.25-2.75c0.767-0.6,1.6-0.933,2.5-1v-2l2.5-0.25l1,1c0.933-0.7,1.933-0.783,3-0.25l0.75,0.75
				c0.667-1,1.583-1.333,2.75-1l0.5-1.5c1.633-1.2,3.3-1.45,5-0.75l0.25-1.75c1.967-0.967,3.883-1.133,5.75-0.5V-41l5.25-0.25
				c0.467,0.633,0.8,0.8,1,0.5c1.633-1.467,3.717-1.8,6.25-1c0.667,1.3,1,2.717,1,4.25l0.5-1.25c2.567-1.167,5.15-1.167,7.75,0
				c0.229,0.946,0.321,1.938,0.275,2.975l-0.025,0.025c0,0.167,0,0.333,0,0.5c0.014-0.172,0.022-0.347,0.025-0.525
				c1.058-0.439,1.966-0.097,2.725,1.025l0.75,3.75l1-1l2.75-0.25l1.5,0.75l0.5-1c0.017-0.001,0.033-0.001,0.05,0
				c0.633,0.067,1.117,0.267,1.45,0.6c0.467,0.433,0.8,1.217,1,2.35c0.133,1.3,0.233,2.183,0.3,2.65c0.633-0.5,1.434-0.633,2.4-0.4
				c1,0.3,1.583,0.883,1.75,1.75c1.033-0.333,2.05-0.417,3.05-0.25c1.267,0.2,1.867,0.8,1.8,1.8c0.1-0.9,0.55-1.3,1.35-1.2
				c0.8,0.1,1.55,0.534,2.25,1.3c0.7,0.767,1.017,1.5,0.95,2.2c0.2-0.833,0.7-1.2,1.5-1.1c0.667,0.066,1.35,0.4,2.05,1
				c0.067,0.066,0.05,0.283-0.05,0.65c-0.1,0.4-0.1,0.65,0,0.75c0.133,0.167,0.55,0.367,1.25,0.6c0.467,0.167,0.683,0.483,0.65,0.95
				c-0.267,0.033-0.967,0.033-2.1,0c-0.967-0.066-1.667,0-2.1,0.2l-0.35,0.2c-0.233,0.167-0.367,0.5-0.4,1c-0.1,0.6-0.2,1-0.3,1.2
				c-0.3,0.567-0.833,1.283-1.6,2.15c-0.533,0.833-0.717,1.717-0.55,2.65c0.6-0.233,1.35-0.35,2.25-0.35c1,0.033,1.733,0.033,2.2,0
				c-0.033-0.2-0.017-0.534,0.05-1c0.066-0.467,0.066-0.784,0-0.95c0.733-0.133,1.5-0.1,2.3,0.1l0.75,0.25
				c0.133-0.367,0.15-0.85,0.05-1.45c-0.067-0.633-0.067-1.1,0-1.4c2-0.367,4-0.083,6,0.85c0.3-1.633,1.55-2.117,3.75-1.45
				c2.1,0.633,3.433,1.6,4,2.9c0.733-0.6,1.5-0.6,2.3,0c0.767,0.534,1.233,1.25,1.4,2.15c1.4-0.067,2.767,0.2,4.1,0.8
				s2.45,1.45,3.35,2.55c-0.033-0.767-0.033-1.517,0-2.25c0.467-0.1,1.066-0.1,1.8,0c0.934,0.1,1.517,0.15,1.75,0.15
				c0.267-1.233,1.1-1.883,2.5-1.95c1.3-0.033,2.417,0.333,3.35,1.1c0.167-1.3,0.733-1.934,1.7-1.9c0.933,0.033,1.566,0.667,1.9,1.9
				c-0.167-1.367,0.35-1.767,1.55-1.2c1.133,0.567,1.9,1.283,2.3,2.15c0.966-0.433,2.233-0.417,3.8,0.05c1.8,0.7,3.067,1.2,3.8,1.5
				c0.034-0.5,0.017-1.617-0.05-3.35c2.633-0.3,4.583-0.45,5.85-0.45c3.233-0.066,4.983,0.35,5.25,1.25
				c0.9-0.167,1.483-0.3,1.75-0.4c0.167-0.066,0.45-0.367,0.85-0.9c0.333-0.433,0.783-0.633,1.35-0.6
				c-0.133-0.967-2.183-1.267-6.15-0.9c-3.767,0.333-5.533-0.15-5.3-1.45c0.5-0.066,1.35-0.066,2.55,0c1.1,0.1,1.934,0.083,2.5-0.05
				c0.067,0,0.9-0.3,2.5-0.9c0.967-0.333,1.883-0.383,2.75-0.15c0.7,0.167,1.583,0.867,2.65,2.1c1.034,1.2,1.833,1.833,2.4,1.9
				c0.466-1.467,1.367-1.434,2.7,0.1c1.033,1.2,1.667,2.25,1.9,3.15c-0.1-1.067,0.5-1.733,1.8-2c1.467-0.3,2.583,0.05,3.35,1.05
				c0.6-1.767,1.716-2.85,3.35-3.25c1.1-0.267,2.8-0.25,5.1,0.05c-0.467,0.333-1.316,0.684-2.55,1.05
				c-0.934,0.433-1.283,1.167-1.05,2.2c0.333-0.566,0.85-0.85,1.55-0.85c0.867,0.1,1.517,0.117,1.95,0.05
				c0.367-0.067,0.883-0.217,1.55-0.45c0.7-0.267,1.233-0.433,1.6-0.5c0.367-0.066,1.017-0.083,1.95-0.05
				c0.8,0.033,1.434-0.017,1.9-0.15c-0.4-0.133-0.716-0.45-0.95-0.95c-0.267-0.533-0.25-1.017,0.05-1.45
				c0.2-0.3,0.45-0.417,0.75-0.35c0.367,0.033,0.6,0.017,0.7-0.05c0.2-0.2,0.483-0.533,0.85-1c0.333-0.466,0.617-0.816,0.85-1.05
				c1.534-1.5,3.233-2.217,5.1-2.15c1.934,0.066,3.167,1.066,3.7,3c-0.067-0.333-0.05-0.6,0.05-0.8
				c0.567-0.167,1.383-0.15,2.45,0.05c1.167,0.267,1.983,0.367,2.45,0.3c0.067-0.633,0.083-1.583,0.05-2.85
				c2.633-0.233,4.167-0.417,4.6-0.55c1.7-0.5,2.517-1.5,2.45-3c0.667,0.133,1.15,0.017,1.45-0.35c0.533-0.667,0.85-1.033,0.95-1.1
				c0.934-0.5,1.983-0.816,3.15-0.95c1.433-0.367,2.417-0.6,2.95-0.7c0.833-0.133,1.783,0.05,2.85,0.55
				c-0.133-0.867,0.1-1.417,0.7-1.65c0.833-0.133,1.45-0.267,1.85-0.4c1.133-0.4,2.05-0.566,2.75-0.5c1,0.2,1.934,0.4,2.8,0.6
				c0.267,0.1,0.55,0.15,0.85,0.15c-0.233-0.667-0.434-1.233-0.6-1.7l-0.05-0.2c-0.033-0.067-0.066-0.133-0.1-0.2
				c-0.167-0.333-0.317-0.617-0.45-0.85c-0.133-0.233-0.267-0.45-0.4-0.65l-0.4-0.4c-0.4-0.367-0.833-0.583-1.3-0.65
				c-0.133,0.733-0.15,1.517-0.05,2.35c-0.2-0.867-0.55-1.667-1.05-2.4c-0.6-0.833-1.267-1.367-2-1.6
				c-0.4,0.5-0.617,1.316-0.65,2.45c0,0.233,0,0.467,0,0.7c0,0.467,0.033,1.1,0.1,1.9c-0.033-0.233-0.083-0.467-0.15-0.7l-0.1-0.4
				l-0.45-1l-0.4-0.6c-0.1-0.167-0.217-0.317-0.35-0.45c-0.367-0.433-0.767-0.767-1.2-1l-1.4-0.35c-0.267,0-0.534,0.033-0.8,0.1
				c-0.1,0.8-0.117,2.267-0.05,4.4c-0.067-0.433-0.333-0.85-0.8-1.25c-0.5-0.433-1.1-0.7-1.8-0.8c-0.267,0.367-0.417,0.85-0.45,1.45
				c0,0.967-0.017,1.5-0.05,1.6c-0.533,0.067-1.35,0.1-2.45,0.1l-1.5,2c-0.433-0.633-1.017-1.267-1.75-1.9
				c-0.8-0.733-1.533-1.217-2.2-1.45c-0.033,1.233-0.067,2.133-0.1,2.7c-0.5-0.9-1.283-1.467-2.35-1.7c0,0.8-0.017,1.4-0.05,1.8
				c-0.067,0.733-0.2,1.35-0.4,1.85c-0.233-0.7-0.7-1.333-1.4-1.9c-0.7-0.6-1.417-0.883-2.15-0.85c-0.967,0.034-1.5,0.35-1.6,0.95
				c0.067,0.933,0.034,1.717-0.1,2.35c-0.333-0.6-0.633-1.267-0.9-2c-0.3-0.467-0.95-0.767-1.95-0.9c-1.167-0.2-2.067-0.05-2.7,0.45
				c-0.533,0.4-1.017,1.184-1.45,2.35c-0.067-0.367-0.35-0.8-0.85-1.3c-1.167,0.466-2.4,1.2-3.7,2.2
				c-0.733,0.567-1.833,1.483-3.3,2.75c0.066-0.367,0.033-0.983-0.1-1.85c-1.367-0.6-3.583-0.133-6.65,1.4
				c-2.667,1.3-4.65,2.617-5.95,3.95c0.967-2-0.4-2.833-4.1-2.5c-2.433,0.267-4.683,0.75-6.75,1.45c0.467-1.533-0.383-2.4-2.55-2.6
				c-1.833-0.167-3.05,0.133-3.65,0.9c0.2-0.4,0.3-0.8,0.3-1.2c0.033-0.633-0.15-1.15-0.55-1.55C34.683-22.25,34.4-22.133,34-22
				c-0.3,0.133-0.533,0.317-0.7,0.55c0.1-0.833,0.083-1.583-0.05-2.25c-1.1-0.3-2.117-0.017-3.05,0.85
				c-0.4,0.367-1.083,1.25-2.05,2.65c0-0.033-0.25-0.75-0.75-2.15c-0.3-0.867-0.816-1.383-1.55-1.55c-1.033-0.2-2.35,0.85-3.95,3.15
				c-1.467,2.167-2.2,3.8-2.2,4.9c-0.1-0.233-0.2-0.683-0.3-1.35c-0.1-0.533-0.267-0.933-0.5-1.2l-0.35,0.1
				C17.917-18.033,17.517-17.617,17.35-17.05z"/>
		</g>
	</g>
</symbol>
<use xlink:href="#bush"  width="260.1" height="131.595" x="-130.05" y="-50.145" transform="matrix(1 0 0 -1 130.0498 81.4502)" style="overflow:visible;"/>
</svg>
