<?xml version="1.0" encoding="iso-8859-1"?>
<!-- Generator: Adobe Illustrator 15.1.0, SVG Export Plug-In . SVG Version: 6.00 Build 0)  -->
<!DOCTYPE svg PUBLIC "-//W3C//DTD SVG 1.1//EN" "http://www.w3.org/Graphics/SVG/1.1/DTD/svg11.dtd">
<svg version="1.1" id="Layer_1" xmlns="http://www.w3.org/2000/svg" xmlns:xlink="http://www.w3.org/1999/xlink" x="0px" y="0px"
	 width="184.7px" height="107.7px" viewBox="0 0 184.7 107.7" style="enable-background:new 0 0 184.7 107.7;" xml:space="preserve"
	>
<g>
	<path style="fill-rule:evenodd;clip-rule:evenodd;fill:#2C2106;" d="M136.85,101.45c-1.366,0.233-2.75,0.416-4.149,0.55
		c-3.101,0.233-7.15,0.2-12.15-0.1c-6.233-0.4-10.283-0.601-12.149-0.601c-5.7,0-16.15,0.467-31.351,1.4
		c-13,0.833-23.316,1.05-30.95,0.649c-6.133-0.333-10.783-0.433-13.95-0.3c-4.6,0.233-9.15,0.934-13.65,2.101l-1,0.25
		c-0.267,0.066-0.517,0.133-0.75,0.199c-0.3,0.067-0.583,0.134-0.85,0.2l-5.85,1.101c-0.233,0-0.466,0.017-0.7,0.05
		c-2.7,0.3-5.45,0.399-8.25,0.3c-0.367,0-0.733-0.017-1.1-0.05c0-0.2,0-0.417,0-0.65c3.833-1.166,7.383-2.733,10.65-4.7
		c7.867-4.8,14.083-7.883,18.65-9.25c2.467-0.733,6.434-1.733,11.9-3c5.167-1.233,9.117-2.267,11.85-3.1
		c-0.667,1.066-1.517,2.85-2.55,5.35c2.433-3.233,5.733-5.783,9.9-7.649c2.867-1.267,7-2.483,12.4-3.65
		c6.6-1.434,10.95-2.483,13.05-3.149c4.833-1.534,8.833-3.567,12-6.101c-5.233,4.533-13.616,9.667-25.149,15.4L87.1,87.1
		c9.167,0.233,16.983,0.217,23.45-0.05c20.867-0.934,30.566-4.583,29.101-10.95c-9.301-0.6-18.983,0.65-29.051,3.75
		c2.4-1.1,7.167-4,14.301-8.699c5.833-3.834,10.8-6.284,14.899-7.351c5.233-1.366,8.316-2.233,9.25-2.6c3.533-1.5,5.8-3.634,6.8-6.4
		c2.334-6.5,1.101-9.933-3.699-10.3c-3.967-0.3-8.284,1.083-12.95,4.15l-0.25,0.1c3.434-2.733,6.267-6.317,8.5-10.75
		c2.333-4.7,3.316-9.15,2.95-13.35c0.3,0.267,0.6,0.517,0.899,0.75c-0.3-0.267-0.583-0.517-0.85-0.75
		c0.899,0.267,1.816,0.517,2.75,0.75c0.333-1.767,0.3-3.5-0.101-5.2c0.034-0.1,0.067-0.2,0.101-0.3c0.033-2.1,0.05-4.066,0.05-5.9
		l-1.35-1.35c0.3-1.933-0.184-3.55-1.45-4.85c3.833,0.7,6.55,2.1,8.149,4.2c0.601,0.8,0.95,1.95,1.051,3.45
		c0.066,1.566,0.316,2.683,0.75,3.35c0.399,0.667,1.316,1.567,2.75,2.7c1.399,1.133,2.366,2.15,2.899,3.05
		c1,1.633,2.934,4.684,5.8,9.15c2.7,4.367,4.817,8.2,6.351,11.5c4.533,9.767,5.133,17.316,1.8,22.649
		c4.134,0.667,5.55,4.167,4.25,10.5c-0.5,2.5-1.384,4.884-2.65,7.15c-1.233,2.267-2.517,3.767-3.85,4.5
		c-2.134,1.167-4.866,1.65-8.2,1.45c-0.434-0.033-0.866-0.084-1.3-0.15c-4.467-0.833-7.65-1.399-9.55-1.7
		c-0.367-0.066-0.717-0.116-1.05-0.149c-2.434,1.7-3.934,2.8-4.5,3.3c-3.134,2.833-6.284,4.983-9.45,6.45
		C141.533,100.2,139.25,100.95,136.85,101.45z M165.9,30l-5.351-0.7c-2.399,1.567-3.05,3.2-1.95,4.9
		c0.967,1.466,2.684,2.517,5.15,3.15c2.5,0.6,4.134,0.35,4.9-0.75C169.55,35.3,168.634,33.1,165.9,30z M169.25,50.65
		c-0.667,1.833-0.8,3.95-0.4,6.35c0.7,3.833,1.051,5.884,1.051,6.15c0.033,0.5-0.117,2.199-0.45,5.1c-0.2,1.934-0.017,3.6,0.55,5
		c1.934,0.5,3.417-0.55,4.45-3.15c0.899-2.333,1.267-5.333,1.1-9c-0.2-3.699-0.883-6.899-2.05-9.6c-1.3-3-2.95-4.617-4.95-4.85
		L169.25,50.65z"/>
	<path style="fill-rule:evenodd;clip-rule:evenodd;fill:#3C2D08;" d="M139.2,48.65c4.666-3.066,8.983-4.45,12.95-4.15
		c4.8,0.367,6.033,3.8,3.699,10.3c-1,2.767-3.267,4.9-6.8,6.4c-0.934,0.366-4.017,1.233-9.25,2.6
		c-4.1,1.066-9.066,3.517-14.899,7.351c-7.134,4.699-11.9,7.6-14.301,8.699c10.067-3.1,19.75-4.35,29.051-3.75
		c1.466,6.367-8.233,10.017-29.101,10.95c-6.467,0.267-14.283,0.283-23.45,0.05L72.7,86.7c11.533-5.733,19.916-10.867,25.149-15.4
		c-3.166,2.533-7.167,4.566-12,6.101c-2.1,0.666-6.45,1.716-13.05,3.149c-5.4,1.167-9.533,2.384-12.4,3.65
		c-4.167,1.866-7.467,4.416-9.9,7.649c1.033-2.5,1.883-4.283,2.55-5.35c-2.733,0.833-6.683,1.866-11.85,3.1
		c-5.467,1.267-9.434,2.267-11.9,3c-4.566,1.367-10.783,4.45-18.65,9.25c-3.267,1.967-6.816,3.534-10.65,4.7
		c0.167-2.666,2.133-5.684,5.9-9.05c0.1-0.1,0.217-0.2,0.35-0.3C6.617,96.9,7,96.616,7.4,96.35l2.95-2.25
		c2.4-1.899,4.083-3.267,5.05-4.1c4.033-3.6,7.417-6.6,10.15-9l2.85-2.45c0.367-0.333,0.717-0.649,1.05-0.95
		c3.333-0.366,5.65-0.733,6.95-1.1c3.2-0.9,6.434-2.366,9.7-4.4c3.233-2.033,6.017-4.333,8.35-6.899
		c-3.333,4.1-5.483,7.483-6.45,10.149c4.367,1.767,10.833,1.983,19.4,0.65c9.2-1.467,14.75-4.167,16.65-8.1
		c-1.267-0.534-3.017-0.7-5.25-0.5c-2.533,0.399-4.4,0.616-5.6,0.649c4-2.3,8.633-4.666,13.9-7.1c1.967-0.934,6.683-3.033,14.15-6.3
		c4.866-2.134,9.184-5.284,12.95-9.45c1.7-1.9,4.899-6.2,9.6-12.9c0.033,0.8,0.05,2.75,0.05,5.85c0,2.4,0.101,4.317,0.301,5.75
		c6.166-4.4,9.866-9.7,11.1-15.9c1.267-6.333-0.583-11.183-5.55-14.55l0.05-0.25l0.85,0.1l9.5,4.55
		c0.367,0.167,0.717,0.35,1.051,0.55c0.366,0.2,0.733,0.417,1.1,0.65l5.85,3.75c0.134,0.133,0.284,0.25,0.45,0.35
		c0.367,0.3,0.75,0.6,1.15,0.9l0.175,0.15c0.175,0.15,0.35,0.3,0.525,0.45c0.366,4.2-0.617,8.65-2.95,13.35
		c-2.233,4.433-5.066,8.017-8.5,10.75h-0.05L130.55,52c-0.833,0.6-3.816,2.934-8.95,7c-3.733,3-6.899,5.167-9.5,6.5
		c3.801-1.467,9.334-3.616,16.601-6.45c5.899-2.866,10.517-6.783,13.85-11.75L139.2,48.65z M165.9,30c2.733,3.1,3.649,5.3,2.75,6.6
		c-0.767,1.1-2.4,1.35-4.9,0.75c-2.467-0.633-4.184-1.684-5.15-3.15c-1.1-1.7-0.449-3.333,1.95-4.9L165.9,30z M169.25,50.65l-0.7-4
		c2,0.233,3.65,1.85,4.95,4.85c1.167,2.7,1.85,5.9,2.05,9.6c0.167,3.667-0.2,6.667-1.1,9c-1.033,2.601-2.517,3.65-4.45,3.15
		c-0.566-1.4-0.75-3.066-0.55-5c0.333-2.9,0.483-4.6,0.45-5.1c0-0.267-0.351-2.317-1.051-6.15
		C168.45,54.6,168.583,52.483,169.25,50.65z"/>
	<path style="fill-rule:evenodd;clip-rule:evenodd;fill:#46340F;" d="M61.1,47.1c2.267-0.934,5.65-2.533,10.15-4.8
		c4-1.733,7.517-2.483,10.55-2.25c-1.767,1.7-5.033,5.3-9.8,10.8c-4,4.667-7.367,8.083-10.1,10.25
		c12.8-6.6,27.184-15.366,43.15-26.3c-4.399-0.4-7.684-0.216-9.85,0.55c2.267-3.833,5.267-7.167,9-10
		c4.066-3.067,8.133-4.833,12.2-5.3c-0.167,1.833-0.75,3.75-1.75,5.75c-1.067,2.067-2.317,3.717-3.75,4.95
		c3.566-0.967,7.166-3.117,10.8-6.45c3.6-3.333,6.267-6.95,8-10.85c4.967,3.367,6.816,8.216,5.55,14.55
		c-1.233,6.2-4.934,11.5-11.1,15.9c-0.2-1.433-0.301-3.35-0.301-5.75c0-3.1-0.017-5.05-0.05-5.85c-4.7,6.7-7.899,11-9.6,12.9
		c-3.767,4.167-8.084,7.316-12.95,9.45c-7.467,3.267-12.183,5.366-14.15,6.3c-5.267,2.434-9.9,4.8-13.9,7.1
		c1.2-0.033,3.066-0.25,5.6-0.649c2.233-0.2,3.983-0.034,5.25,0.5c-1.9,3.933-7.45,6.633-16.65,8.1
		c-8.566,1.333-15.033,1.116-19.4-0.65c0.967-2.666,3.117-6.05,6.45-10.149c-2.333,2.566-5.117,4.866-8.35,6.899
		c-3.267,2.034-6.5,3.5-9.7,4.4c-1.3,0.366-3.617,0.733-6.95,1.1c-0.333,0.301-0.684,0.617-1.05,0.95
		c0.267-0.267,0.533-0.517,0.8-0.75c5.367-4.633,10.183-8.35,14.45-11.149c3.867-2.534,7.617-6.101,11.25-10.7
		C56.4,54.05,58.467,51.1,61.1,47.1z M100.8,4.85c-1.333,0.967-2.05,2.2-2.149,3.7c3.5,0.133,5.883,0.05,7.149-0.25
		c2.4-0.566,3.983-2,4.75-4.3l-4.3-1.25c0.833-0.233,1.717-0.45,2.65-0.65c5.933-1.3,11.5-1.833,16.699-1.6
		c-0.933,0.3-1.767,0.733-2.5,1.3c-1.533,1.1-2.35,2.467-2.449,4.1c1.666,0.1,4.083,0.133,7.25,0.1
		c3.333-0.033,5.75-0.017,7.25,0.05c-0.134,0.534-0.101,1.4,0.1,2.6c0.033,0.233,0.066,0.45,0.1,0.65c0.067,0.867,0.067,1.5,0,1.9
		c2.134,0.333,4.017,0.283,5.65-0.15c2.267-0.566,3.467-1.816,3.6-3.75c0.034-0.566-0.85-1.6-2.649-3.1
		c4.133,1.367,6.35,2.117,6.649,2.25c0.733,0.4,1.351,0.85,1.851,1.35c1.267,1.3,1.75,2.917,1.45,4.85l1.35,1.35
		c0,1.833-0.017,3.8-0.05,5.9c-0.033,0.1-0.066,0.2-0.101,0.3c-0.466,0.9-1.733,1.216-3.8,0.95c-1.2-0.167-2.649-1-4.35-2.5
		c-1.634-1.433-2.684-2.733-3.15-3.9c-1.2,0.8-2.566,1.15-4.1,1.05c-1.4-0.1-2.601-0.517-3.601-1.25
		c-1.033-0.767-1.5-1.617-1.399-2.55c0.133-1.033,1.017-1.933,2.649-2.7c-1.466-0.8-4.149-0.95-8.05-0.45
		c-4.366,0.7-7.316,1.083-8.85,1.15c-1.9,0.067-5.217,0.4-9.95,1c-0.4,0.033-0.816,0.083-1.25,0.15
		c-1.366,0.167-2.65,0.317-3.85,0.45c-2.934,0.267-5.4,0.367-7.4,0.3C95.7,9.033,97.3,6.683,100.8,4.85z M150.45,24.65
		c0.267,0.233,0.55,0.483,0.85,0.75c-0.3-0.233-0.6-0.483-0.899-0.75c-0.176-0.15-0.351-0.3-0.525-0.45
		C150.058,24.35,150.249,24.5,150.45,24.65z M138.95,48.75l0.25-0.1l3.35-1.35c-3.333,4.967-7.95,8.884-13.85,11.75
		c-7.267,2.834-12.8,4.983-16.601,6.45c2.601-1.333,5.767-3.5,9.5-6.5c5.134-4.066,8.117-6.4,8.95-7l8.351-3.25H138.95z"/>
	<path style="fill-rule:evenodd;clip-rule:evenodd;fill:#563F12;" d="M108.5,11l21.25,2.2l-0.05,0.25c-1.733,3.9-4.4,7.517-8,10.85
		c-3.634,3.333-7.233,5.483-10.8,6.45c1.433-1.233,2.683-2.883,3.75-4.95c1-2,1.583-3.917,1.75-5.75
		c-4.067,0.467-8.134,2.233-12.2,5.3c-3.733,2.833-6.733,6.167-9,10c2.166-0.767,5.45-0.95,9.85-0.55
		C89.083,45.733,74.7,54.5,61.9,61.1c2.733-2.166,6.1-5.583,10.1-10.25c4.767-5.5,8.033-9.1,9.8-10.8
		c-3.033-0.233-6.55,0.517-10.55,2.25c-4.5,2.267-7.883,3.867-10.15,4.8c0.833-1.233,1.717-2.583,2.65-4.05
		C68.717,35.317,74.767,28.9,81.9,23.8c4.4-3.133,11.567-7.2,21.5-12.2c1.199-0.133,2.483-0.283,3.85-0.45
		C107.684,11.083,108.1,11.033,108.5,11z M106.25,2.75l4.3,1.25c-0.767,2.3-2.35,3.733-4.75,4.3c-1.267,0.3-3.649,0.383-7.149,0.25
		c0.1-1.5,0.816-2.733,2.149-3.7c0.134-0.1,0.267-0.2,0.4-0.3c1.033-0.667,2.6-1.3,4.7-1.9L106.25,2.75z M141.95,4.2
		c1.8,1.5,2.684,2.533,2.649,3.1c-0.133,1.934-1.333,3.184-3.6,3.75c-1.634,0.434-3.517,0.483-5.65,0.15
		c0.067-0.4,0.067-1.034,0-1.9c-0.033-0.2-0.066-0.417-0.1-0.65c-0.2-1.2-0.233-2.066-0.1-2.6c-1.5-0.066-3.917-0.083-7.25-0.05
		c-3.167,0.033-5.584,0-7.25-0.1c0.1-1.633,0.916-3,2.449-4.1c0.733-0.566,1.567-1,2.5-1.3c0.7-0.233,1.467-0.4,2.301-0.5h8
		c1.3,0.633,3.033,1.8,5.199,3.5C141.4,3.733,141.684,3.967,141.95,4.2z"/>
	<linearGradient id="SVGID_1_" gradientUnits="userSpaceOnUse" x1="15.5498" y1="104.5078" x2="141.0498" y2="104.5078">
		<stop  offset="0" style="stop-color:#000000;stop-opacity:0.149"/>
		<stop  offset="0.8588" style="stop-color:#000000;stop-opacity:0.2392"/>
		<stop  offset="1" style="stop-color:#000000;stop-opacity:0.298"/>
	</linearGradient>
	<path style="fill-rule:evenodd;clip-rule:evenodd;fill:url(#SVGID_1_);" d="M16.75,105.6c0.233-0.066,0.483-0.133,0.75-0.199
		l1-0.25c4.5-1.167,9.05-1.867,13.65-2.101c3.167-0.133,7.817-0.033,13.95,0.3c7.633,0.4,17.95,0.184,30.95-0.649
		c15.2-0.934,25.65-1.4,31.351-1.4c1.866,0,5.916,0.2,12.149,0.601c5,0.3,9.05,0.333,12.15,0.1c1.399-0.134,2.783-0.316,4.149-0.55
		c-1.733,1.133-3.983,2-6.75,2.6c-2.767,0.634-7.216,1.05-13.35,1.25c-2.333,0.101-6.533,0.2-12.6,0.3
		c-5.267,0.101-9.434,0.217-12.5,0.351c-11.2,0.6-23.667,0.616-37.4,0.05c-1.567-0.066-8.117,0.4-19.65,1.4
		c-8.4,0.699-14.75,0.233-19.05-1.4L16.75,105.6z"/>
</g>
</svg>
