<?xml version="1.0" encoding="iso-8859-1"?>
<!-- Generator: Adobe Illustrator 15.1.0, SVG Export Plug-In . SVG Version: 6.00 Build 0)  -->
<!DOCTYPE svg PUBLIC "-//W3C//DTD SVG 1.1//EN" "http://www.w3.org/Graphics/SVG/1.1/DTD/svg11.dtd">
<svg version="1.1" id="FlashAICB" xmlns="http://www.w3.org/2000/svg" xmlns:xlink="http://www.w3.org/1999/xlink" x="0px" y="0px"
	 width="181.75px" height="583.75px" viewBox="0 0 181.75 583.75" style="enable-background:new 0 0 181.75 583.75;"
	 xml:space="preserve">
<symbol  id="FlashAICB_x2F_Layer_28_x2F__x3C_Path_x3E_" viewBox="1.75 -28.6 93.6 28.58">
	<g id="FlashAICB_1_">
		
			<radialGradient id="SVGID_1_" cx="49.3501" cy="-4.25" r="47.1125" gradientTransform="matrix(1 0 0 -0.5099 0 -6.417)" gradientUnits="userSpaceOnUse">
			<stop  offset="0" style="stop-color:#000000;stop-opacity:0.6863"/>
			<stop  offset="1" style="stop-color:#000000;stop-opacity:0"/>
		</radialGradient>
		<path style="fill-rule:evenodd;clip-rule:evenodd;fill:url(#SVGID_1_);" d="M87.3-12.65c4.367-0.8,7.05-1.65,8.05-2.55
			c-0.833-0.4-2.883-0.867-6.15-1.4c-2.767-0.433-4.55-1.133-5.35-2.1c0.167-0.1,0.5-0.367,1-0.8c0.4-0.333,0.867-0.55,1.4-0.65
			c-1.1-1.7-3.417-2.617-6.95-2.75c-4.033,0.167-6.733,0.2-8.1,0.1c-0.1-2.133-1.35-3.25-3.75-3.35c0-0.233-0.05-0.65-0.15-1.25
			c-0.066-0.533-0.1-0.934-0.1-1.2c-1.534,0.167-3.95,0.617-7.25,1.35c-3.034,0.7-5.45,1.1-7.25,1.2c-3.6-0.4-6.467-0.617-8.6-0.65
			c-3.867-0.066-5.7,1.017-5.5,3.25c-3.367,0.233-5.2,0.367-5.5,0.4c-1.533,0.233-2.883,0.783-4.05,1.65
			c-0.667,1.867-1.233,3-1.7,3.4c-0.067,0.067-1.15,0.1-3.25,0.1l-0.2,1.1c-2.5,0.233-6.183,0.267-11.05,0.1
			c-5-0.133-8.7-0.1-11.1,0.1c0.633,2,2.65,3.067,6.05,3.2c4,0.133,6.417,0.55,7.25,1.25c-1.4,0.133-2.233,0.2-2.5,0.2
			c-0.966,0.067-1.767,0.034-2.4-0.1c0.8,0.2,2.133,0.65,4,1.35c1.767,0.633,3.117,1.034,4.05,1.2c2.6,0.433,4.033,0.7,4.3,0.8
			c0.7,0.267,1.833,0.95,3.4,2.05c2.8,2.033,6.833,3.8,12.1,5.3l8.3,1.3c3.333,0.2,9.4-0.617,18.2-2.45
			c9.867-2.033,14.617-4.067,14.25-6.1c-0.367,0-1.067-0.1-2.1-0.3c-0.9-0.167-1.417-0.267-1.55-0.3c0.5,0.067,1.133-0.017,1.9-0.25
			c1.067-0.333,1.667-0.517,1.8-0.55c-0.133-0.233-0.25-0.55-0.35-0.95c-0.133-0.533-0.217-0.85-0.25-0.95
			C80.067-11.667,83.1-11.917,87.3-12.65z"/>
		<linearGradient id="SVGID_2_" gradientUnits="userSpaceOnUse" x1="17.25" y1="-13.3232" x2="78" y2="-13.3232">
			<stop  offset="0" style="stop-color:#000000;stop-opacity:0.298"/>
			<stop  offset="0.8588" style="stop-color:#000000;stop-opacity:0.298"/>
			<stop  offset="1" style="stop-color:#000000;stop-opacity:0.298"/>
		</linearGradient>
		<path style="fill-rule:evenodd;clip-rule:evenodd;fill:url(#SVGID_2_);" d="M74.7-7.4c-0.867-0.633-1.517-1.067-1.95-1.3
			c0.233-0.233,0.5-0.383,0.8-0.45c0.434-0.1,0.733-0.2,0.9-0.3c0.533-1.667,1.716-2.75,3.55-3.25c-1.2-0.7-3.383-1.15-6.55-1.35
			c0.1,0,0.9-0.05,2.4-0.15c-1.1-0.633-2.233-1.433-3.4-2.4c-1.133-0.1-1.733-0.167-1.8-0.2c0.067-0.534,0.05-1.4-0.05-2.6
			c-0.133-1.167-0.167-2.017-0.1-2.55c-1.533,0.467-3.833,0.817-6.9,1.05c-3.267,0.233-5.617,0.533-7.05,0.9
			c-1.2,0.3-3.233,0.717-6.1,1.25c-2.567,0.5-4.517,0.933-5.85,1.3c-0.733,0.2-2.583,0.883-5.55,2.05c-2,0.8-4,1.25-6,1.35
			c-2.033,0.133-4.333,0.35-6.9,0.65c-4.233,0.533-6.533,0.816-6.9,0.85c0.833,0.7,1.85,1.216,3.05,1.55
			c1.2,0.333,2.4,0.433,3.6,0.3l19.35,3.35c6.1,1.833,11.033,2.717,14.8,2.65c1.3-0.033,4.284-0.033,8.95,0
			C71.2-4.967,73.767-5.867,74.7-7.4z"/>
	</g>
</symbol>
<use xlink:href="#FlashAICB_x2F_Layer_28_x2F__x3C_Path_x3E_"  width="93.6" height="28.58" x="1.75" y="-28.6" transform="matrix(1 0 0 -1 14.4502 555.1504)" style="overflow:visible;opacity:0.6797;enable-background:new    ;"/>
<path style="fill-rule:evenodd;clip-rule:evenodd;fill:#1F1607;" d="M181.65,98.65c-0.034,0.367-0.233,2.117-0.601,5.25
	c-0.2,1.467-0.316,2.9-0.35,4.3c-0.033,1.2-0.05,2.85-0.05,4.95c-0.067,1.8-0.267,3.45-0.601,4.95c-0.3,1.4-0.583,3.483-0.85,6.25
	c-0.367,4.3-0.584,6.683-0.65,7.15c-0.333,3.3-0.55,5.567-0.649,6.8c-0.167,2.6-0.233,5.417-0.2,8.45
	c0.033,2.267,0.283,6.017,0.75,11.25c0.467,4.767,0.666,7.917,0.6,9.45c-0.066,1.733-0.3,3.816-0.7,6.25
	c-0.433,2.5-0.666,3.9-0.699,4.2c-0.034,0.833-0.717,2.184-2.051,4.05c-1.233,1.767-2.333,3.05-3.3,3.85
	c-0.434,0.333-1.666,0.9-3.7,1.7c-2.166,0.833-4.033,1.85-5.6,3.05c-1.634,1.233-4.333,2.75-8.1,4.55
	c-4.9,2.333-7.601,3.633-8.101,3.9c-4.333,2.367-9.033,4.7-14.1,7c-1.8,0.767-4.417,1.567-7.851,2.4
	c-3.866,0.934-7.05,1.417-9.55,1.45c-3.2,0.1-5,0.167-5.399,0.2c-0.934,0.034-1.634,0.184-2.101,0.45l-5-0.65
	c-3.7-0.467-7.333-0.233-10.899,0.7c-2.567,0.7-5.484,1.583-8.75,2.65c-1.733,0.6-3.033,0.883-3.9,0.85
	c-1.067-0.033-2.267-1.25-3.6-3.65c-1.233-2.233-1.8-3.833-1.7-4.8c0.267-1.867,0.883-3.3,1.85-4.3c0.833-0.933,1.9-1.466,3.2-1.6
	c2.733-0.233,4.467-0.367,5.2-0.4c3.2-0.133,7.467-0.1,12.8,0.1c9.134,0.333,15.267,0.4,18.4,0.2c6.767-0.4,12.866-1.75,18.3-4.05
	c3.133-1.333,8.333-3.867,15.6-7.6c4.967-2.534,8.601-3.983,10.9-4.35c3.333-0.533,6.3-2.2,8.899-5
	c2.867-3.067,4.367-6.65,4.5-10.75c0.067-1.9,0.15-7.133,0.25-15.7c0.101-7.033,0.25-11.967,0.45-14.8
	c0.033-0.233,0.4-3.033,1.101-8.4c0.3-2.367,0.216-4.45-0.25-6.25c-0.167-0.7-1.467-3.583-3.9-8.65c-1.934-4.066-2.8-7.15-2.6-9.25
	l1-8.35l0.6,2.65c0.366,2.033,0.533,3.667,0.5,4.9c-0.066,1.467,0.184,2.967,0.75,4.5c0.566,1.5,1.35,2.717,2.35,3.65
	c1.301,1.267,2.15,2.4,2.551,3.4c0.199-3.566,0.666-6.35,1.399-8.35c1.3-3.367,2.033-7.034,2.2-11l0.15-4.75l0.949,1.8
	C181.667,94.883,181.85,96.683,181.65,98.65z"/>
<path style="fill-rule:evenodd;clip-rule:evenodd;fill:#1F1607;" d="M72.5,25.55c0.867-13.133,1.55-21.017,2.05-23.65
	c0.534,3.1,1.034,6.55,1.5,10.35c1,7.6,1.434,13.183,1.3,16.75c-0.1,2.733,0.4,13.917,1.5,33.55
	c1.066,19.333,1.517,30.367,1.35,33.1c0,5.167,0.066,15.85,0.2,32.05l0.35-32.1h0.1c-0.067,14.033-0.017,31.033,0.15,51
	c0.133,11.333,0.316,28.283,0.55,50.85c0.034,14.5,0.65,36.716,1.85,66.65c0.7,26.9-0.017,49.1-2.15,66.6
	c0.5,43.066,0.533,72.149,0.1,87.25c-0.4,14.2-1.05,34-1.95,59.399c-0.533,14.034-1.283,34.301-2.25,60.801
	c-0.867,1.967-1.316,4.017-1.35,6.149l-0.05,4.05c0.467,1.601,1.367,3.301,2.7,5.101c0.733,1.033,1.783,2.434,3.15,4.2
	c1.2,1.8,2.167,4.25,2.9,7.35l-3.15,0.55c-1.3,0.233-2.133,0.834-2.5,1.8c-0.167,0.5-0.2,0.967-0.1,1.4l0.55,2
	c0.367,1.333,1.133,3.117,2.3,5.35c-4.133-0.566-8.25-1.366-12.35-2.399c-3.4-0.667-5.667-1.134-6.8-1.4
	c-1.767-0.399-3.4-1.166-4.9-2.3c-3.667-2.767-7.35-4.2-11.05-4.3c-1.233-0.033-1.917-0.033-2.05,0
	c-0.3,0.167-1.284,0.316-2.95,0.45c-2.066,0.199-3.833,0.233-5.3,0.1l-1.55-0.3l3-2.05c2.567-1.667,5.167-3.267,7.8-4.801
	c0.933-6.066,2.45-13.166,4.55-21.3c-0.133-5.7,0-11.883,0.4-18.55c1.133-18.434,4.067-85.184,8.8-200.25l1.725-46.825L60.9,272.6
	l-0.05-2.65c-0.3-9.9,0.133-20.784,1.3-32.65l6.8-127.5c-0.267-2.466-0.35-9.033-0.25-19.7l0.2-15.25
	C70.433,55.15,71.633,38.717,72.5,25.55z"/>
<g>
	<path style="fill-rule:evenodd;clip-rule:evenodd;fill:#2A1F0A;" d="M72.5,25.55c0.867-13.133,1.55-21.017,2.05-23.65
		c0.434,2.7,0.883,5.767,1.35,9.2c-0.3,29-0.816,46.066-1.55,51.2c-0.733,5-1.333,11.6-1.8,19.8c-0.3,5.233-0.633,13.533-1,24.9
		l-0.85,24.9c3.833-14.833,5.816-23.9,5.95-27.2l0.25-7l-0.15,8.45c-0.3,8.033-0.783,14.167-1.45,18.4
		c-0.5,3.434-1.15,7.184-1.95,11.25c-0.467,3.067-0.567,6.35-0.3,9.85c0.067,1,0.517,4.333,1.35,10
		c0.633,4.2,1.017,9.617,1.15,16.25c0.233,11.2,0.284,18.667,0.15,22.4c-0.767-13.3-1.5-21.833-2.2-25.6l-1.35-6.9
		c-0.233-4.767-0.433-7.883-0.6-9.35l-0.5-4.05l-0.95,3.85c-0.6,3.833-0.8,8.867-0.6,15.1c0.167,6.1,0.133,11.95-0.1,17.55
		c-0.133,3.167-0.367,7.983-0.7,14.45c-0.134,4.533-0.05,8.233,0.25,11.1c0.167,1.433,0.333,2.417,0.5,2.95
		c0.233-2,0.483-4.083,0.75-6.25c0.5-4.3,0.833-6.767,1-7.4c0.233-1,0.716-1.717,1.45-2.15c0.833-0.5,1.5-0.05,2,1.35
		c0.4,1.167,0.317,1.966-0.25,2.4c-0.767,0.566-1.15,1.2-1.15,1.9c-0.033,0.8-0.467,3.033-1.3,6.7c-0.967,4.4-1.667,7.933-2.1,10.6
		c-1.333,8.667-2.15,17.35-2.45,26.05c-0.133,3.633,0.033,7.183,0.5,10.65c0.233,1.933,0.583,4.633,1.05,8.1
		c0.167,2.333,0.833,4.566,2,6.7c0.6,1.034,1.167,1.85,1.7,2.45l0.3,2.55c0.133,2.633-0.017,6.35-0.45,11.15
		c-0.667,7.666-1.133,12.116-1.4,13.35l-0.7-15.3c-0.066-1.567-0.217-3.033-0.45-4.4l-0.3-1.55l-1.85,4.9
		c-1.267,3.866-1.95,7.283-2.05,10.25c-0.067,2.399-0.3,7.55-0.7,15.45c-0.3,7.699-0.333,13.949-0.1,18.75
		c0.366,7.699,1.133,21.1,2.3,40.199c0.9-27.133,1.617-42.666,2.15-46.6c0.367-2.434,0.65-5.384,0.85-8.85l0.25-4.5l0.45,6.25
		c0.233,4.8,0.167,8.75-0.2,11.85c-0.333,2.8-0.5,5.366-0.5,7.7c-0.033,4.566-0.1,8.316-0.2,11.25c-0.133,4.1-0.716,9.467-1.75,16.1
		c-1.167,7.533-1.95,14.05-2.35,19.55c-0.8,11.167-1.05,19.15-0.75,23.95c-1.567-11.267-2.25-19.6-2.05-25l0.3-9.649l-0.95,7.25
		c-0.667,5.733-1.083,10.866-1.25,15.399c-0.233,7.267-1.067,27.9-2.5,61.9c-0.267,7.366,0.267,16.95,1.6,28.75
		c0.667,5.899,1.316,11.684,1.95,17.35c-0.133,3.867,0.3-5.45,1.3-27.95c0.867-20.633,1.283-32.133,1.25-34.5
		c-0.034-1.933,0.4-6.166,1.3-12.699c0.867-6.534,1.3-10,1.3-10.4c0.133,1.366,0.3,4.767,0.5,10.2c0.267,6.5,0.35,11.267,0.25,14.3
		c-0.067,1.5-0.034,4.066,0.1,7.7c0.1,2.767-0.05,6.416-0.45,10.95c-0.333,3.933-0.95,9.333-1.85,16.199
		c-0.733,6.5-1.15,13-1.25,19.5c-0.067,4.9-0.317,10.217-0.75,15.95c-0.3,3.967-0.35,7.667-0.15,11.101l0.55,8.875
		c-0.063-1.851-0.079-3.942-0.05-6.275c0-5.333,0.25-9.616,0.75-12.85l2.4-14.551l-0.6,8.7c-0.367,6.334-0.533,10.8-0.5,13.4
		c0.033,1.066-0.3,4.684-1,10.85c-0.566,5.267-0.617,9.834-0.15,13.7c0.733,6.134,1.25,9.767,1.55,10.9c0.6,2.5,1.85,4.833,3.75,7
		c1.767,2,3.034,3.717,3.8,5.149c0.4,0.733,0.617,1.25,0.65,1.55c-1.167-0.5-2.45-1.25-3.85-2.25c-2.767-2.033-4.7-4.3-5.8-6.8
		c-1.067-2.5-1.817-4.45-2.25-5.85l-0.3-1.4l-0.05,4.351c0.066,3.066,0.283,5.05,0.65,5.949l0.85,2.2
		c-0.867,0.067-1.783-0.033-2.75-0.3c-1.9-0.6-3.017-1.816-3.35-3.65c-0.333-1.833-0.65-3.366-0.95-4.6l-0.4-1.35
		c-0.066,1.433-0.633,2.767-1.7,4c-0.667,0.767-1.45,1.55-2.35,2.35l-1.2,0.95c0.033-0.634,0.117-1.367,0.25-2.2
		c0.267-1.733,0.684-3.167,1.25-4.3c0.867-1.833,1.467-4.2,1.8-7.101c-0.867,1.434-1.8,2.967-2.8,4.601
		c-2,3.233-3.267,5.366-3.8,6.399c-0.9,1.634-2.1,3.034-3.6,4.2l3.4,0.45c-4.467,0.7-8.316,1.117-11.55,1.25l-1.85-0.3l3-2.05
		c2.567-1.667,5.167-3.267,7.8-4.801c0.933-6.066,2.45-13.166,4.55-21.3c-0.133-5.7,0-11.883,0.4-18.55
		c1.133-18.434,4.067-85.184,8.8-200.25l1.725-46.825L60.9,272.6l-0.05-2.65c-0.3-9.9,0.133-20.784,1.3-32.65l6.8-127.5
		c-0.267-2.466-0.35-9.033-0.25-19.7l0.2-15.25C70.433,55.15,71.633,38.717,72.5,25.55z"/>
</g>
<path style="fill-rule:evenodd;clip-rule:evenodd;fill:#32240C;" d="M76.1,247.55l0.2-5.9c1.267,8.167,1.034,14.684-0.7,19.55
	c-0.567,1.667-1.317,2.517-2.25,2.55l-1.25-0.45c0.867-0.8,1.767-2.85,2.7-6.15C75.4,255.083,75.833,251.883,76.1,247.55z"/>
<path style="fill-rule:evenodd;clip-rule:evenodd;fill:#171005;" d="M76.85,43.4c0.133-3.566-0.034-9.383-0.5-17.45
	C75.983,18.817,75.9,14.4,76.1,12.7c0.966,7.2,1.383,12.633,1.25,16.3c-0.1,2.733,0.4,13.917,1.5,33.55
	c1.066,19.333,1.517,30.367,1.35,33.1c0,5.167,0.066,15.85,0.2,32.05l0.35-32.1h0.1c-0.067,14.033-0.017,31.033,0.15,51
	c0.133,11.333,0.316,28.283,0.55,50.85c0.034,14.5,0.65,36.716,1.85,66.65c0.7,26.9-0.017,49.1-2.15,66.6
	c0.5,43.066,0.533,72.149,0.1,87.25c-0.4,14.2-1.05,34-1.95,59.399c-0.533,14.034-1.283,34.301-2.25,60.801
	c-0.867,1.967-1.316,4.017-1.35,6.149l-0.05,4.05c0.467,1.601,1.367,3.301,2.7,5.101c0.733,1.033,1.783,2.434,3.15,4.2
	c1.2,1.8,2.167,4.25,2.9,7.35l-3.15,0.55c-1.3,0.233-2.133,0.834-2.5,1.8c-0.167,0.5-0.2,0.967-0.1,1.4l0.2,0.65
	c-1.767-1.834-3.15-4.351-4.15-7.551c-1.167-3.1-2.033-5.649-2.6-7.649c-1.034-3.566-1.483-7.184-1.35-10.851
	c0.133-3.633,0.25-8.35,0.35-14.149l0.1-7.601l1.7,5.351c0.3-15.566,0.867-29.134,1.7-40.7c0.433-6.4,0.616-15.283,0.55-26.65
	c-0.1-11.633-0.05-19.033,0.15-22.199c0.3-4.801,0.467-10.233,0.5-16.301l-0.05-7.649L74.7,422.6
	c-0.967,5.667-1.934,7.434-2.9,5.301c-0.966-2.101-1.267-8.434-0.9-19c0.6-11.167,0.934-17.801,1-19.9l0.35-10.55l1.7,5.6
	c1.167,4.167,1.9,7.4,2.2,9.7c0.2-9.934,0.3-16.85,0.3-20.75c-0.5-8.467-0.833-15.934-1-22.4c-0.3-12.233,0.35-23.333,1.95-33.3
	c1.7-10.399,2.667-20.066,2.9-29c0.1-5.433-0.05-10.15-0.45-14.15c-0.067-0.633-0.267-1.783-0.6-3.45
	c-0.133-0.634-0.167-1.983-0.1-4.05c0.067-1.867,0.117-4.867,0.15-9c0.067-4.066,0.117-6.667,0.15-7.8
	c0.033-1.567-0.05-3.867-0.25-6.9l-0.3-4.05c-0.467-0.1-0.917-0.066-1.35,0.1c-0.9,0.333-1.316,1.217-1.25,2.65
	c0.1,1.867-0.3,4.817-1.2,8.85c-0.934,4.033-1.417,4.583-1.45,1.65c-0.033-2.566,0-5.117,0.1-7.65c0.133-2.467,0.217-4.167,0.25-5.1
	l0.2-4.7c-0.233,0.267-0.5,0.583-0.8,0.95c-0.566,0.7-0.983,1.3-1.25,1.8c-0.367,0.667-0.5-0.083-0.4-2.25
	c0.1-2.167,0.4-3.9,0.9-5.2c0.434-1.167,0.883-2.133,1.35-2.9c0.267-0.467,0.7-1.133,1.3-2c0.4-0.6,1.133-0.167,2.2,1.3
	c0.933,1.267,1.566,2.417,1.9,3.45c-0.566-3.934-1.2-10.017-1.9-18.25c-0.867-10.733-1.017-17.317-0.45-19.75
	c0.534-2.3,0.617-11.4,0.25-27.3c-0.4-16.133-0.5-24.767-0.3-25.9l0.8-4.35c-0.6,1.233-1.2,2.284-1.8,3.15
	c-1.167,1.8-1.65,1.85-1.45,0.15c0.167-1.333,0.65-3.184,1.45-5.55c0.833-2.333,1.316-4.183,1.45-5.55
	c0.133-1.2,0.033-13.85-0.3-37.95C76.783,63.317,76.683,48.267,76.85,43.4z"/>
<path style="fill-rule:evenodd;clip-rule:evenodd;fill:#261B09;" d="M5.05,148.35c0.733-1.3,1.25-2.867,1.55-4.7
	c0.2-1.933,0.35-3.267,0.45-4c0.134-0.9,0.4-1.816,0.8-2.75l0.55-1.1l-0.55,8.05c-0.167,2.1-1.017,4.65-2.55,7.65
	c-1.5,2.933-2.25,4.45-2.25,4.55c-0.033,0.633,0.3,2.917,1,6.85c0.233,1.3,0.917,2.717,2.05,4.25c1.733,2.333,2.883,3.983,3.45,4.95
	c1.4,2.433,2.75,5.433,4.05,9c1.466,4,2.483,7.717,3.05,11.15c0.9,5.533,5.133,12.333,12.7,20.4c2.133,2.267,4.867,4.383,8.2,6.35
	c3.134,1.833,5.8,2.983,8,3.45c1.4,0.3,3.483,1.167,6.25,2.6c2.733,1.4,4.633,2.2,5.7,2.4c2.267,0.4,4.783,0.333,7.55-0.2l0.6-0.2
	c0.6,0.034,1.45,0.483,2.55,1.35c1.267,1,2.066,2.217,2.4,3.65c0.3,1.4,0.2,3.184-0.3,5.35c-0.367,1.5-1.333,2.333-2.9,2.5
	l-2.3-0.25l-4.25-2.6c-0.5-0.267-1.9-0.667-4.2-1.2c-2.467-0.6-4.05-1.033-4.75-1.3c-0.567-0.2-1.65-0.45-3.25-0.75
	c-1.567-0.3-2.966-0.7-4.2-1.2c-1.4-0.533-3.7-1.533-6.9-3l-4.35-2l-1.4-2.25c-0.8-0.333-1.667-1-2.6-2
	c-1.4-1.5-3.284-3.434-5.65-5.8c-2.8-2.8-4.95-5.867-6.45-9.2c-0.367-0.8-0.717-1.684-1.05-2.65c-0.333-1-0.733-2.017-1.2-3.05
	c-0.5-1.133-1.217-2.483-2.15-4.05c-0.8-1.4-1.233-2.184-1.3-2.35c-0.267-0.967-0.45-2.433-0.55-4.4c-0.034-0.9-0.15-1.8-0.35-2.7
	c-0.3-1.333-0.583-2.883-0.85-4.65c-0.333-2.167-1.216-4.7-2.65-7.6c-1.667-3.4-2.517-5.15-2.55-5.25c-0.233-0.8-0.733-1.5-1.5-2.1
	c-0.7-0.533-1.05-0.983-1.05-1.35c0-0.333-0.317-1.567-0.95-3.7c-0.667-2.2-0.983-3.75-0.95-4.65c0.1-2.434,0.316-4.05,0.65-4.85
	c0.167-0.367,0.733-1.233,1.7-2.6C3.517,150.767,4.417,149.417,5.05,148.35z"/>
<path style="fill-rule:evenodd;clip-rule:evenodd;fill:#1F1607;" d="M12.7,198.6c-0.8-1.4-1.233-2.184-1.3-2.35
	c-0.267-0.967-0.45-2.433-0.55-4.4c-0.034-0.9-0.15-1.8-0.35-2.7c-0.3-1.333-0.583-2.883-0.85-4.65c-0.333-2.1-1.183-4.55-2.55-7.35
	c-1.4-2.667-2.25-4.4-2.55-5.2c4.367,4.066,6.617,8.55,6.75,13.45c0.1,2.7,0.55,5.317,1.35,7.85c0.534,1.833,1.517,4.3,2.95,7.4
	c1.6,3.467,3.333,6.95,5.2,10.45c-0.066-1.1-0.133-2.15-0.2-3.15c-0.133-1.967-0.133-2.633,0-2c0.133,0.667,0.9,1.9,2.3,3.7
	c0.8,1.033,2.383,2.95,4.75,5.75c1.2,1.4,2.883,3.383,5.05,5.95c2.133,2.033,4.767,3.5,7.9,4.4c4.833,1.4,8,2.5,9.5,3.3l-6.15,0.5
	l3.6,0.2c2.8,0.233,5.267,0.533,7.4,0.9c3.433,0.633,6.2,1.35,8.3,2.15v-1.1l5.15-1.65l-0.2-1.65l0.65,0.7
	c0.5,0.566,0.95,1.15,1.35,1.75c0.7,1.633,0.733,3.816,0.1,6.55c-0.367,1.5-1.333,2.333-2.9,2.5l-2.3-0.25l-4.25-2.6
	c-0.5-0.267-1.9-0.667-4.2-1.2c-2.467-0.6-4.05-1.033-4.75-1.3c-0.567-0.2-1.65-0.45-3.25-0.75c-1.567-0.3-2.966-0.7-4.2-1.2
	c-1.4-0.533-3.7-1.533-6.9-3l-4.35-2l-1.4-2.25c-0.8-0.333-1.667-1-2.6-2c-1.4-1.5-3.284-3.434-5.65-5.8
	c-2.8-2.8-4.95-5.867-6.45-9.2c-0.367-0.8-0.717-1.684-1.05-2.65c-0.333-1-0.733-2.017-1.2-3.05
	C14.35,201.517,13.633,200.167,12.7,198.6z"/>
<path style="fill-rule:evenodd;clip-rule:evenodd;fill:#261B09;" d="M36.8,7.25c0.134,0.3,0.9,0.8,2.3,1.5
	c1.733,0.833,2.867,1.433,3.4,1.8c1,0.733,1.9,2.383,2.7,4.95c0.866,2.767,1.2,5.45,1,8.05c-0.167,2.567,0.667,6.217,2.5,10.95
	c1.7,4.3,3.133,7.033,4.3,8.2c0.933,0.9,3.316,2.133,7.15,3.7c3.6,1.467,6.2,2.333,7.8,2.6c0.966,0.167,1.683,0.367,2.15,0.6
	c0.267,0.133,0.716,0.2,1.35,0.2c0.8,0.034,1.316,0.667,1.55,1.9c0.167,0.933,0.15,1.85-0.05,2.75c-0.2,1-0.684,1.683-1.45,2.05
	l-1.1,0.25c-0.833-0.7-1.85-1.633-3.05-2.8c-0.633-0.6-2.15-1.3-4.55-2.1c-2.633-0.833-4.316-1.483-5.05-1.95
	c-0.833-0.533-1.983-1.117-3.45-1.75c-1.3-0.566-2.183-1.017-2.65-1.35c-1.767-1.333-3.1-2.9-4-4.7c-0.466-0.967-1.117-2.6-1.95-4.9
	l-1.1-3.1c-1.067-1.167-2.067-2.383-3-3.65c-0.567-0.767-1.233-1.367-2-1.8c-0.867-0.4-1.55-0.75-2.05-1.05
	c-0.566-0.367-1.583-0.883-3.05-1.55l-2.05-0.9l2.45,0.15c1.833,0.133,3.317,0.3,4.45,0.5c1.1,0.2,2.083,0.667,2.95,1.4
	c0.434,0.367,0.75,0.716,0.95,1.05l0.2-6.25c0.033-1.833-0.184-4.25-0.65-7.25c-0.066-0.5-0.633-1.15-1.7-1.95
	c-1.3-0.867-2.217-1.517-2.75-1.95c-1-0.7-1.684-1.217-2.05-1.55C35.733,8.767,35.283,8,34.95,7c-0.5-1.533-0.417-3.867,0.25-7
	l0.05,4.1C35.217,4.5,35.733,5.55,36.8,7.25z"/>
<path style="fill-rule:evenodd;clip-rule:evenodd;fill:#261B09;" d="M111.5,36.05c-0.333,1.833-0.517,3.117-0.55,3.85
	c0,0.5,0.1,1.817,0.3,3.95c0.233,2.1,0.316,3.9,0.25,5.4c-0.033,1.333-0.066,3.517-0.1,6.55c-0.134,2.6-0.517,4.417-1.15,5.45
	c-0.333,0.567-1.283,2.35-2.85,5.35c-1.334,2.566-2.301,4.233-2.9,5c-0.967,1.333-2.467,2.95-4.5,4.85
	c-2.4,2.267-4.167,3.517-5.3,3.75c-2.834,0.6-5.15,1.216-6.95,1.85c-0.767,0.267-2.15,0.633-4.15,1.1
	c-1.567,0.333-2.55,0.65-2.95,0.95l-2.35,1.55l0.1-3.1c0-0.267-0.083-0.966-0.25-2.1c-0.1-0.633,0.017-1.067,0.35-1.3
	c0.3-0.2,0.583-0.433,0.85-0.7c0.3-0.167,0.933-0.233,1.9-0.2c2.066,0.033,5.767-0.733,11.1-2.3c2.067-0.6,4-1.633,5.801-3.1
	c1.566-1.3,2.833-2.783,3.8-4.45c1.166-2.033,2.416-4.4,3.75-7.1c0.633-1.167,1.233-2.55,1.8-4.15c0.767-2.133,1.184-3.967,1.25-5.5
	l0.05-8.7c-0.633-0.333-1.283-0.8-1.95-1.4c-1.3-1.233-2.017-2.55-2.149-3.95c-0.101-1.1-0.25-2.05-0.45-2.85
	c-0.1-0.533-0.15-1.117-0.15-1.75l0.2-5.8l0.7,1.6c0.5,1.3,0.783,2.517,0.85,3.65c0.101,2.767,0.284,4.633,0.551,5.6
	c0.233,1,0.983,1.717,2.25,2.15c0.366-2.2,0.649-4.117,0.85-5.75c0.233-1.867,1.25-3.833,3.05-5.9c1.3-1.466,2.084-2.383,2.351-2.75
	c1.033-1.367,1.566-2.483,1.6-3.35l0.05-2.3l0.3,1.9c0.067,1.5-0.183,2.8-0.75,3.9c-0.366,0.733-1.216,2-2.55,3.8
	c-1,1.4-1.517,2.367-1.55,2.9C112,33.083,111.833,34.217,111.5,36.05z"/>
<path style="fill-rule:evenodd;clip-rule:evenodd;fill:#1F1607;" d="M64.85,235.8c0.333-0.6,1.433-1.3,3.3-2.1
	c0.934-0.4,1.833-0.733,2.7-1l-0.1,1.85c-0.1,1.333-0.25,2.284-0.45,2.85c-0.167,0.467-0.183,1.233-0.05,2.3
	c0.2,1.466,0.267,2.8,0.2,4c-0.034,1.7-0.35,2.583-0.95,2.65c-0.367,0.033-1.283-0.4-2.75-1.3c-1.067-0.633-2.15-2.117-3.25-4.45
	l-1.35-3.3C63.417,237.267,64.316,236.767,64.85,235.8z"/>
</svg>
