<?xml version="1.0" encoding="iso-8859-1"?>
<!-- Generator: Adobe Illustrator 15.1.0, SVG Export Plug-In . SVG Version: 6.00 Build 0)  -->
<!DOCTYPE svg PUBLIC "-//W3C//DTD SVG 1.1//EN" "http://www.w3.org/Graphics/SVG/1.1/DTD/svg11.dtd">
<svg version="1.1" id="FlashAICB" xmlns="http://www.w3.org/2000/svg" xmlns:xlink="http://www.w3.org/1999/xlink" x="0px" y="0px"
	 width="55px" height="44.35px" viewBox="0 0 55 44.35" style="enable-background:new 0 0 55 44.35;" xml:space="preserve">
<g>
	<path style="fill-rule:evenodd;clip-rule:evenodd;fill:#302105;" d="M14.75,1.55c0.333,1.1,0.533,1.883,0.6,2.35
		c0.033,0.2,0.133,0.6,0.3,1.2c0.1,0.333,0.1,0.683,0,1.05l-0.3,1L15.5,7.6c0.1,0.4,0.15,0.8,0.15,1.2v1.85l0.2,0.35
		c0.1,0.333,0.117,0.783,0.05,1.35c-0.133,1.367-0.267,2.15-0.4,2.35c-0.267,0.4-0.4,0.616-0.4,0.65c-0.1,0.2-0.067,0.367,0.1,0.5
		c0.566,0.3,0.85,0.9,0.85,1.8c0,0.567-0.133,1.367-0.4,2.4l0.1,0.6c0.066,0.467,0.066,0.867,0,1.2
		c-0.033,0.233-0.117,0.483-0.25,0.75c-0.1,0.167-0.1,0.383,0,0.65c0.167,0.467,0.4,0.9,0.7,1.3l0.35,0.4
		c0.233,0.3,0.434,0.483,0.6,0.55c0.1,0.033,0.117,0.2,0.05,0.5c-0.134,0.4-0.1,0.85,0.1,1.35c0.233,0.567,0.434,0.95,0.6,1.15
		c0.1,0.066,0.284,0.2,0.55,0.4c0.133,0.1,0.183,0.25,0.15,0.449c0,0.067,0.083,0,0.25-0.199L19.4,28.6l0.7,0.9
		c0.5,0.667,0.783,1.2,0.85,1.6c0.1,0.667,0.05,1.617-0.15,2.851c0,0.2-0.1,0.267-0.3,0.2c-0.066,0,0.033,0.116,0.3,0.35
		c0.367,0.3,0.583,0.434,0.65,0.4c0.066-0.034,0.183-0.117,0.35-0.25c0.134-0.034,0.25-0.134,0.35-0.301
		c0.1-0.066,0.35,0.067,0.75,0.4c0.1,0.1,0.583,0.35,1.45,0.75c0.533,0.3,1,0.8,1.4,1.5c0.467,0.9,0.684,1.883,0.65,2.95
		c0,1-0.216,1.616-0.65,1.85c-0.367,0.167-1.684,0.134-3.95-0.1c-2.033-0.233-3.383-0.434-4.05-0.601
		c-0.667-0.199-1.8-2.816-3.4-7.85L12.4,22.3c-0.066-0.6-0.066-1.633,0-3.1c0.1-1.8,0.15-2.733,0.15-2.8
		c0-3.467,0.083-6.833,0.25-10.1c0.067-0.8,0.333-2.1,0.8-3.9L14.3,0L14.75,1.55z"/>
	<path style="fill-rule:evenodd;clip-rule:evenodd;fill:#5D8022;" d="M11.75,4.2c0-0.134,0.283-0.284,0.85-0.45
		c0.533-0.167,0.75-0.517,0.65-1.05c-0.2-1.034-0.083-1.8,0.35-2.3L14.3,0v0.85c0,0.833,0.067,1.667,0.2,2.5l0.2,1.25
		c0.1,0.433,0.116,0.65,0.05,0.65c-0.1,0-0.184,0.217-0.25,0.65l-0.4,1.25l0.35,2.2c0.066,0.566,0.017,1.017-0.15,1.35
		c-0.267,0.566-0.4,1.066-0.4,1.5l0.6,1.45c0.267,0.633,0.1,1.167-0.5,1.6c-0.267,0.233-0.583,0.4-0.95,0.5l0.2,0.75
		c0.133,0.566,0.2,1.017,0.2,1.35v1.05l0.65,1.3c0.4,0.833,0.4,1.816,0,2.95l0.4,2.699c0.066,0.5,0.15,0.717,0.25,0.65
		c0.333-0.134,0.75-0.066,1.25,0.2c0.5,0.3,0.684,0.467,0.55,0.5C16.184,27.3,16,27.55,16,27.95c0,0.866,0.267,1.5,0.8,1.899
		l0.45,0.65c0.267,0.4,0.4,0.816,0.4,1.25l1.5,0.2c0.633,0.1,0.95,0.517,0.95,1.25c0,0.366-0.117,0.933-0.35,1.7
		c-0.133,0.566,0.15,0.916,0.85,1.05l1.5,1.5c0.6,0.6,0.816,1.166,0.65,1.7c-0.1,0.267-0.25,0.466-0.45,0.6l1.65,1.05
		c0.4,0.3,0.583,0.566,0.55,0.8c0,0.134-0.184,0.434-0.55,0.9c-0.2,0.3-0.333,0.434-0.4,0.4c-0.133-0.067-0.417,0-0.85,0.199
		c-0.5,0.267-0.884,0.384-1.15,0.351c-0.333-0.067-0.716-0.101-1.15-0.101c-0.433,0-1-0.05-1.7-0.149
		c-0.967-0.134-1.8-0.233-2.5-0.3c-0.967-0.067-1.784-0.268-2.45-0.601l-0.7-0.45L12,41.65c-0.467-0.101-0.85-0.268-1.15-0.5
		c-0.067-0.067-0.383-0.4-0.95-1c-0.267-0.268-0.417-0.384-0.45-0.351C9.417,39.9,9.233,39.883,8.9,39.75
		c-0.433-0.167-0.667-0.316-0.7-0.45c0-0.167,0-0.366,0-0.6S8.133,38.116,8,37.65C7.833,37.15,7.75,36.8,7.75,36.6
		c0-0.199,0.083-0.483,0.25-0.85c0.2-0.434,0.333-0.917,0.4-1.45c0.067-0.5,0.117-0.7,0.15-0.6c0.134,0.333,0.3,0.45,0.5,0.35
		c0.4-0.133,0.534-1.184,0.4-3.149l-0.2-1.25c-0.066-0.534-0.017-0.934,0.15-1.2l0.25-0.25c-0.267-1-0.4-1.783-0.4-2.351
		c0-0.366,0.117-0.717,0.35-1.05L9.9,24.4l-0.65-1.5V20l-0.4-1.5c-0.2-0.6-0.217-1.233-0.05-1.9l0.25-0.85V14.7
		c0-0.434,0.317-0.884,0.95-1.35l0.95-0.55v-1.45c0-0.6,0.1-1.017,0.3-1.25l0.3-0.2l-0.2-1.3c-0.067-0.534-0.017-0.934,0.15-1.2
		l0.25-0.25l-0.2-1.05c-0.066-0.434-0.05-0.767,0.05-1l0.15-0.25V4.2z"/>
	<g>
		<path style="fill-rule:evenodd;clip-rule:evenodd;fill:#688F26;" d="M11.5,7.4l0.25-0.25l-0.2-1.05
			c-0.066-0.434-0.05-0.767,0.05-1l0.15-0.25V4.2c0-0.134,0.283-0.284,0.85-0.45c0.533-0.167,0.75-0.517,0.65-1.05
			c-0.2-1.034-0.083-1.8,0.35-2.3L14.3,0v0.85c0,0.833,0.067,1.667,0.2,2.5l0.1,0.6c-0.467,0.533-0.833,0.8-1.1,0.8
			c-0.133,0-0.233-0.05-0.3-0.15l-0.1,0.15C13,5.05,13.05,5.7,13.25,6.7l0.35,0.6c0.2,0.467,0.167,0.883-0.1,1.25L12.95,9.4
			L12.8,9.7c-0.133,0.3-0.267,0.716-0.4,1.25L12,12.9l0.7,0.25c0.4,0.233,0.483,0.467,0.25,0.7l-1.25,1.3l0.25,0.25
			c0.133,0.2,0.05,0.4-0.25,0.6c-0.4,0.233-0.8,0.383-1.2,0.45c-0.434,0.033-0.684-0.083-0.75-0.35c0.033-0.233,0.033-0.35,0-0.35
			c-0.1,0.033-0.333,0.033-0.7,0V14.7c0-0.434,0.317-0.884,0.95-1.35l0.95-0.55v-1.45c0-0.6,0.1-1.017,0.3-1.25l0.3-0.2l-0.2-1.3
			C11.283,8.066,11.333,7.667,11.5,7.4z"/>
		<path style="fill-rule:evenodd;clip-rule:evenodd;fill:#688F26;" d="M13.7,28.5c0.366,0.366,0.55,0.733,0.55,1.1V30.4l-1.15-0.7
			l-0.55-0.8c-0.1-0.4-0.25-0.784-0.45-1.15l-0.25-0.55l-1.15-0.55v1.25c0.1,0.366,0.25,0.699,0.45,1l-0.55,2.8
			c-0.1,0.566-0.083,1.033,0.05,1.399c0.133-0.033,0.434-0.033,0.9,0l1.7,0.15l0.3-0.15c0.233-0.1,0.5-0.05,0.8,0.15
			c0.466,0.267,0.75,0.583,0.85,0.95c-0.467-0.167-0.934-0.167-1.4,0c-0.066,0.033-0.333,0.2-0.8,0.5
			c-0.233,0.166-0.434,0.183-0.6,0.05c-0.233-0.134-0.583-0.217-1.05-0.25c-0.5-0.033-0.85,0.05-1.05,0.25
			c-0.133,0.167-0.366,0.316-0.7,0.45c-0.333,0.133-0.567,0.267-0.7,0.399c-0.267,0.301-0.65,0.634-1.15,1
			c0-0.199,0.083-0.483,0.25-0.85c0.2-0.434,0.333-0.917,0.4-1.45c0.067-0.5,0.117-0.7,0.15-0.6c0.134,0.333,0.3,0.45,0.5,0.35
			c0.4-0.133,0.534-1.184,0.4-3.149l-0.2-1.25c-0.066-0.534-0.017-0.934,0.15-1.2l0.25-0.25c-0.267-1-0.4-1.783-0.4-2.351
			c0-0.366,0.117-0.717,0.35-1.05L9.9,24.4c0.934,0.732,1.483,1.3,1.65,1.699l0.65-0.149c0.433-0.033,0.683,0.149,0.75,0.55
			c0.1,0.667,0.15,1.184,0.15,1.55L13.7,28.5z"/>
	</g>
	<path style="fill-rule:evenodd;clip-rule:evenodd;fill:#405B15;" d="M45.1,17.65c0.334,0.2,0.584,0.483,0.75,0.85
		c0.268,0.566,0.134,1.333-0.399,2.3l0.6,1.5v0.851c0,0.533-0.283,1.149-0.85,1.85l1.5,0.25c0.533,0.066,0.85,0.816,0.95,2.25
		c0.133,1.467,0.3,2.25,0.5,2.35c0.366,0.2,0.533,0.467,0.5,0.801c0,0.199-0.084,0.566-0.25,1.1c-0.101,0.366-0.117,0.7-0.051,1
		c0.033,0.2,0.117,0.633,0.25,1.3c0.134,0.867,0.334,1.217,0.601,1.05l0.25,2.75l-0.65,1.5c-0.233,0.467-0.55,0.617-0.95,0.45
		c-0.533-0.233-0.916-0.25-1.149-0.05c-0.333,0.267-0.733,0.434-1.2,0.5c-0.6,0.033-1.117,0.083-1.55,0.15
		c-0.833,0.133-1.601,0.199-2.3,0.199c-0.834,0-1.601,0.067-2.301,0.2l-1.5,0.4c-0.6,0.2-1.05,0.25-1.35,0.149L36.2,41.2
		c-1.134,0.866-2.117,1.433-2.95,1.7c-0.6,0.199-1.033,0.116-1.3-0.25c-0.267-0.301-0.333-0.634-0.2-1
		c0.1-0.268,0.383-0.45,0.85-0.551c0.233-0.066,0.45-0.1,0.65-0.1l1.85-1.45l0.25-1.05c0.101-0.434,0.301-0.7,0.601-0.8
		c0.167-0.067,0.316-0.084,0.45-0.05v-1.9c0-0.367,0.283-0.75,0.85-1.15l0.8-0.55l-0.399-0.8c-0.134-0.267-0.167-0.767-0.101-1.5
		c0-0.634-0.1-0.983-0.3-1.05c-0.667-0.2-0.533-1.033,0.4-2.5L37,26.5c0.7-0.833,0.983-1.467,0.85-1.9
		c-0.066-0.267-0.017-0.733,0.15-1.399l0.3-0.9c-0.2-0.967-0.116-1.533,0.25-1.7h0.55l1.051,0.45L40.6,22.9l-0.449,0.85
		c-0.268,0.566,0.3,0.85,1.699,0.85l-0.199-1.25c-0.067-0.399-0.084-0.6-0.051-0.6c0.101,0.066,0.184-0.083,0.25-0.45l0.2-0.85
		c-0.133-0.833-0.2-1.467-0.2-1.9c0-0.267,0.084-0.583,0.25-0.95l0.2-0.5l-0.25-1.9c0.434-0.7,0.867-1.2,1.3-1.5
		c0.533-0.333,0.95,0.3,1.25,1.9c0.104,0.546,0.13,0.838,0.075,0.875L45.1,17.65z"/>
	<path style="fill-rule:evenodd;clip-rule:evenodd;fill:#3A5213;" d="M43.8,18.85c0.101,0,0.2,0.017,0.3,0.05
		c-0.1-0.233-0.149-0.483-0.149-0.75c0-0.5,0.217-0.733,0.649-0.7h0.051c0.566,0.2,0.967,0.55,1.199,1.05
		c0.268,0.566,0.134,1.333-0.399,2.3l0.6,1.5v0.851c0,0.533-0.283,1.149-0.85,1.85l1.5,0.25c0.533,0.066,0.85,0.816,0.95,2.25
		c0.133,1.467,0.3,2.25,0.5,2.35c0.366,0.2,0.533,0.467,0.5,0.801c0,0.199-0.084,0.566-0.25,1.1c-0.101,0.366-0.117,0.7-0.051,1
		c0.033,0.2,0.117,0.633,0.25,1.3c0.134,0.867,0.334,1.217,0.601,1.05l0.25,2.75l-0.65,1.5c-0.233,0.467-0.55,0.617-0.95,0.45
		c-0.533-0.233-0.916-0.25-1.149-0.05c-0.333,0.267-0.733,0.434-1.2,0.5c-0.6,0.033-1.117,0.083-1.55,0.15
		c-0.833,0.133-1.601,0.199-2.3,0.199c-0.834,0-1.601,0.067-2.301,0.2l-1.5,0.4c-0.6,0.2-1.05,0.25-1.35,0.149L36.2,41.2
		c-1.134,0.866-2.117,1.433-2.95,1.7L33,42.95c0.9-0.967,1.7-1.55,2.4-1.75c0.366-0.067,0.649-0.067,0.85,0
		c0.1,0.033,0.184-0.05,0.25-0.25c0.066-0.134,0.066-0.4,0-0.8c-0.066-0.301,0.033-0.5,0.3-0.601c0.467-0.2,0.934-0.3,1.4-0.3
		c0.333,0,0.683,0,1.05,0c0.2-0.033,0.367-0.167,0.5-0.4s0.167-0.517,0.1-0.85l-0.1-0.4l0.55-0.85c0.3-0.367,0.467-0.6,0.5-0.7
		c0.101-0.233,0.117-0.467,0.05-0.7c0-0.066,0.018-0.533,0.051-1.399c0.066-0.733,0.017-1.3-0.15-1.7
		c-0.133-0.333-0.15-0.55-0.05-0.65c0.033-0.033-0.101-0.149-0.4-0.35c-0.399-0.267-0.633-0.483-0.7-0.65
		c-0.066-0.133-0.066-0.383,0-0.75c0.067-0.3,0.084-0.649,0.051-1.05L39.6,28.3c0.467-0.533,0.567-1.083,0.301-1.649L39.45,25.8
		c-0.267-0.467-0.4-0.934-0.4-1.399v-1.25c0-0.234-0.066-0.317-0.2-0.25l0.2-0.45c0.233-0.4,0.483-0.75,0.75-1.05l0.351-0.35
		L40.6,22.9l-0.449,0.85c-0.268,0.566,0.3,0.85,1.699,0.85c0.067,0.267,0.051,0.367-0.05,0.301L42,25.35
		c0.133,0.334,0.1,0.601-0.1,0.801c-0.067,0.066,0.1,0.133,0.5,0.199c0.666,0.167,1.066,0.217,1.199,0.15
		c0.134-0.033,0.2-0.267,0.2-0.7c0-0.366-0.066-0.75-0.2-1.149L43.4,24.1l0.3-0.949v-1.3c-0.3-1.2-0.4-2.034-0.3-2.5
		C43.467,19.05,43.6,18.883,43.8,18.85z"/>
	<path style="fill-rule:evenodd;clip-rule:evenodd;fill:#516D28;" d="M16.9,36.75c0.133-0.4,0.317-0.684,0.55-0.85
		c0.633-0.467,1.183-0.434,1.65,0.1c0.2,0.3,0.35,0.633,0.45,1l0.7,1.15L20.6,38c0.3-0.1,0.566-0.15,0.8-0.15
		c0.267,0,0.467,0.101,0.6,0.301c0.1,0.166,0.217,0.533,0.35,1.1c0.167,0.64,0.225,0.981,0.175,1.025L23.95,40.8
		c0.267,0.066,0.433,0.316,0.5,0.75c0.1,0.434,0.017,0.884-0.25,1.351c-0.3,0.466-1.083,0.732-2.35,0.8
		c-1.167,0.066-2.534-0.067-4.1-0.4c-1.233-0.233-2.267-0.6-3.1-1.1c-0.7-0.5-1.167-0.834-1.4-1c-0.3-0.167-0.3-0.417,0-0.75
		l0.55-0.5v-0.4c0-0.2,0.233-0.35,0.7-0.45c0.233-0.033,0.467-0.066,0.7-0.1c0-0.566,0.05-1.083,0.15-1.55
		c0.066-0.3,0.316-0.417,0.75-0.351c0.233,0.033,0.45,0.101,0.65,0.2C16.783,37.133,16.833,36.95,16.9,36.75z"/>
	<path style="fill-rule:evenodd;clip-rule:evenodd;fill:#577525;" d="M8.2,38.7l0.7,1.05L3.55,41L0,41.2
		c1.667-0.834,2.5-1.733,2.5-2.7V37c0.867,1.267,1.367,1.9,1.5,1.9h0.2c-0.134-1.134,0-2.184,0.4-3.15l0.65-1.45l0.3,1.7
		c0.233,1.167,0.483,1.934,0.75,2.3C6.733,38.833,7.367,38.967,8.2,38.7z"/>
	<path style="fill-rule:evenodd;clip-rule:evenodd;fill:#577525;" d="M45.35,38.6c0.167,0.067,0.334-0.25,0.5-0.949l0.4-1.7
		l0.45,1.899c0.267-0.133,0.75-0.616,1.45-1.449l1.899-2.351l-0.3,1.3c-0.167,1.033-0.15,1.917,0.05,2.65
		c0.3,1.167,0.601,2.1,0.9,2.8c-0.867-0.1-1.783-0.184-2.75-0.25c-1.867-0.167-2.983-0.149-3.351,0.05l0.551-2.35L45.35,38.6z"/>
	<path style="fill-rule:evenodd;clip-rule:evenodd;fill:#577525;" d="M48.8,39.35c0.533-0.8,1.217-1.633,2.05-2.5l1.101-1.1
		l-0.2,3.15c0.967-0.4,1.733-0.75,2.3-1.051L54.9,37.45v1.899c0.267,0.4-0.018,0.601-0.851,0.601c-0.533,0-1.566-0.101-3.1-0.3
		L48.8,39.35z"/>
	<path style="fill-rule:evenodd;clip-rule:evenodd;fill:#577525;" d="M7.25,36.95l0.5-0.351L8.2,38.7
		c0.133-0.267,0.316-0.55,0.55-0.851c0.467-0.6,0.917-0.949,1.35-1.05l1.05-0.2L10.3,37.95c-0.533,0.933-0.783,1.45-0.75,1.55
		l0.1,0.25c-0.7,0.566-1.4,0.85-2.1,0.85c-0.433,0-1.05-0.133-1.85-0.399l-1.1-0.45c0.7-0.134,1.267-0.617,1.7-1.45
		C6.566,37.767,6.883,37.316,7.25,36.95z"/>
	<path style="fill-rule:evenodd;clip-rule:evenodd;fill:#577525;" d="M30.35,37.6l0.2-1l0.3,0.801c0.2,0.633,0.317,1.232,0.351,1.8
		c0.066,0.899,0.083,1.649,0.05,2.25l1.85-1.95L32.9,40.2c-0.067,0.6,0.017,1.133,0.25,1.6c0.366,0.8,0.316,1.483-0.15,2.05
		l-1.7-0.1c-0.566-0.033-1.683,0.05-3.35,0.25c-0.967,0.1-1.717,0.184-2.25,0.25c-1.034,0.1-1.85,0.133-2.45,0.1s-1.3-0.199-2.1-0.5
		l-0.95-0.375c0.375,0.133,0.658-0.009,0.85-0.425c0.1-0.267,0.117-0.733,0.05-1.399l-0.15-0.9c0.933,1.133,1.55,1.483,1.85,1.05
		l1.95-3.5l1.7,2.4l0.899-0.65l0.75,1.2l1.15-1.5C29.75,39.116,30.117,38.4,30.35,37.6z"/>
</g>
</svg>
