<?xml version="1.0" encoding="iso-8859-1"?>
<!-- Generator: Adobe Illustrator 15.1.0, SVG Export Plug-In . SVG Version: 6.00 Build 0)  -->
<!DOCTYPE svg PUBLIC "-//W3C//DTD SVG 1.1//EN" "http://www.w3.org/Graphics/SVG/1.1/DTD/svg11.dtd">
<svg version="1.1" id="FlashAICB" xmlns="http://www.w3.org/2000/svg" xmlns:xlink="http://www.w3.org/1999/xlink" x="0px" y="0px"
	 width="104.35px" height="70.95px" viewBox="0 0 104.35 70.95" style="enable-background:new 0 0 104.35 70.95;"
	 xml:space="preserve">
<g>
	<path style="fill-rule:evenodd;clip-rule:evenodd;fill:#84844D;" d="M82.7,22.05c-0.767,0.767-1.434,1.15-2,1.15
		c-0.634,0.1-1.05-0.15-1.25-0.75c-0.233-0.034-0.884-0.034-1.95,0c-0.967-0.034-1.583-0.15-1.85-0.35
		c-0.267-0.267-0.65-1.083-1.15-2.45c-0.333-1-1.033-1.566-2.1-1.7c-0.5-0.034-1.334,0.133-2.5,0.5c-0.034-1.3-0.45-2.4-1.25-3.3
		c-0.934-1.033-1.934-1.167-3-0.4c-0.4-1.9-1.217-2.983-2.45-3.25c-1.2-0.233-2.45,0.317-3.75,1.65c0-1.267-0.017-1.983-0.05-2.15
		c-0.167-0.633-0.667-1.083-1.5-1.35c-1.067-0.333-2-0.15-2.801,0.55c-0.633,0.6-1.1,1.45-1.399,2.55c-0.033-0.067-0.384-1-1.05-2.8
		c-0.5-1.2-1.017-2.034-1.55-2.5c-0.8,0.233-1.8,0.983-3,2.25c-0.333-0.833-0.75-1.684-1.25-2.55c-1,0.133-1.967,0.6-2.9,1.4
		c-0.934,0.8-1.534,1.7-1.8,2.7c-0.6-1.033-1.9-1.4-3.9-1.1c-1.233,0.233-1.95,0.583-2.15,1.05c-0.033,0.1-0.067,0.95-0.1,2.55
		c-0.6-0.567-1.35-1.017-2.25-1.35c-1.1-0.333-1.9-0.217-2.4,0.35c-0.2,0.267-0.267,0.867-0.2,1.8c0.067,1.167,0.1,1.8,0.1,1.9
		c-0.867-0.1-1.533,0.017-2,0.35c-0.467,0.3-0.817,0.867-1.05,1.7c-0.133,0.4-0.15,1.267-0.05,2.6c0.067,0.7-0.35,1.25-1.25,1.65
		c-0.367,0.167-0.983,0.167-1.85,0c-0.733-0.133-1.283,0-1.65,0.4c0.167,0.567,0.2,1.1,0.1,1.6c-0.4,0.567-1.283,0.817-2.65,0.75
		c-1.9-0.1-2.917-0.133-3.05-0.1c-0.066,0.633,0.034,1.333,0.3,2.1c0.133,0.433,0.383,1.067,0.75,1.9c-0.4,0.067-1.067,0.067-2,0
		c-0.833,0-1.417,0.184-1.75,0.55c0.066,0.2,0.4,0.966,1,2.3c0.4,0.933,0.617,1.733,0.65,2.4c-1.3,0-2.183,0.083-2.65,0.25
		c-0.8,0.333-1.133,0.95-1,1.85l-3,0.55c0.066-0.166,0.15-0.35,0.25-0.55c0.433-0.867,1.117-1.75,2.05-2.65l0.55-0.6
		c-1.034,0.3-2,0.3-2.9,0c-0.966-0.267-1.533-0.783-1.7-1.55c-0.3-1.267,1.033-2.6,4-4c3.066-1.467,4.633-2.45,4.7-2.95
		c-0.867,0.133-1.417,0.2-1.65,0.2c-0.7-0.034-1.15-0.317-1.35-0.85c0.233-0.633,0.95-1.3,2.15-2c1.1-0.7,1.716-1.383,1.85-2.05
		c-0.933-0.233-1.483-0.716-1.65-1.45c0.667,0,1.95,0.117,3.85,0.35c1.6,0.233,2.867,0.25,3.8,0.05c0.034-0.233,0.15-0.8,0.35-1.7
		c0.2-0.733,0.267-1.316,0.2-1.75c-0.367-0.1-0.917-0.25-1.65-0.45c-0.667-0.167-1.184-0.383-1.55-0.65
		c0.667-0.934,2.017-1.467,4.05-1.6c-0.6-0.233-0.867-0.517-0.8-0.85c0.067-0.333,0.383-0.617,0.95-0.85c-0.567-0.833-0.567-1.5,0-2
		c0.467-0.5,1.167-0.683,2.1-0.55c-0.2-0.3-0.784-1.1-1.75-2.4C25.25,5.183,25.267,4.267,26,3.7c0.767-0.6,2.383-0.1,4.85,1.5
		c0-0.034-0.017-0.567-0.05-1.6c-0.033-0.567,0.034-1.05,0.2-1.45c1.1-0.066,2.7,0.283,4.8,1.05c2.034,0.8,3.6,1.15,4.7,1.05
		c0.3-0.8,0.383-1.617,0.25-2.45c0.533,0,1.183,0.383,1.95,1.15c0.8,0.9,1.35,1.5,1.65,1.8L45.9,1.1c-0.066-0.2-0.066-0.5,0-0.9
		c1.167-0.4,2.233-0.2,3.2,0.6c0.8,0.633,1.467,1.55,2,2.75c1.1-0.833,1.933-1.45,2.5-1.85c1.134-0.767,2.101-0.917,2.9-0.45
		c0.5,0.3,0.884,1.017,1.15,2.15c0.199,0.633,0.399,1.434,0.6,2.4c0.634-0.833,1.733-1.6,3.3-2.3
		c1.834-0.767,3.033-0.717,3.601,0.15c0.3,0.434,0.283,1.6-0.051,3.5c0.567-0.933,1.084-1.517,1.551-1.75
		c0.566-0.267,1.333-0.183,2.3,0.25c1.934,0.8,3.3,2.533,4.1,5.2c0.467,1.5,0.8,3.733,1,6.7c0.334-0.7,1.017-1.167,2.05-1.4
		c1-0.267,1.817-0.2,2.45,0.2c1.101,0.633,1.684,2.25,1.75,4.85c0.066-0.034,0.134-0.05,0.2-0.05c0.033-0.033,0.066-0.05,0.1-0.05
		h0.051l0.6-0.15c0.434-0.1,0.767-0.1,1,0c0.134,0.066,0.25,0.15,0.35,0.25c0,0.033,0.017,0.083,0.051,0.15
		c0,0.033,0.017,0.083,0.05,0.15c0,0.133,0,0.3,0,0.5V22.05z"/>
	<path style="fill-rule:evenodd;clip-rule:evenodd;fill:#6C6C3F;" d="M75.55,44.35c0-1.433-0.133-2.466-0.399-3.1
		c-1.967,0.4-3.4,0.95-4.301,1.65c0.634-0.867,1.067-1.717,1.301-2.551c0.233-1.066,0-1.783-0.7-2.149
		c-0.334-0.167-0.967-0.084-1.9,0.25c-0.5,0.166-0.983,0.383-1.45,0.649c1.034-0.633,2.017-1.5,2.95-2.6
		c1.233-1.533,1.7-2.85,1.4-3.95c-2.233-0.2-4.217,0.1-5.95,0.9c0.3-1.233,0.184-3.217-0.35-5.95
		c-1.534-0.333-3.067,0.067-4.601,1.2c-1.6,1.133-2.35,2.483-2.25,4.05c-0.333-0.667-1.133-0.9-2.399-0.7
		c-0.134-2.633-0.301-4.417-0.5-5.35c-0.467-2.6-1.334-3.983-2.601-4.15c-1-0.133-1.983,0.4-2.95,1.6
		c-0.767,0.9-1.35,1.95-1.75,3.15c-0.2-1.767-0.5-3.05-0.9-3.85c-0.633-1.267-1.617-1.883-2.95-1.85
		c-1.6,0.033-2.617,0.783-3.05,2.25c-0.267,0.833-0.467,2.183-0.6,4.05c-0.167-1.933-0.317-3.45-0.45-4.55c-0.3-2.1-1-3.25-2.1-3.45
		c-1.466-0.267-2.4,0.517-2.8,2.35c-0.2,0.967-0.317,2.35-0.35,4.15c-0.233-0.433-0.617-1.483-1.15-3.15
		c-0.7-1.3-1.65-1.65-2.85-1.05c-0.9,0.433-1.15,1.816-0.75,4.15c0.133,0.767,0.533,2.3,1.2,4.6c-0.733-0.5-1.583-0.633-2.55-0.4
		c-0.267,1.167,0.3,2.7,1.7,4.6C31,34.683,30.133,34.3,28.9,34c-1.333-0.3-2.267-0.267-2.8,0.1c-0.434,0.3-0.65,0.483-0.65,0.55
		c0,0.333-0.117,0.684-0.35,1.05c-0.3,0.633-0.467,1.166-0.5,1.6c-0.067,0.134-0.75,0.15-2.05,0.05c-0.167,0-0.867-0.149-2.1-0.449
		c-0.833-0.233-1.55-0.25-2.15-0.051c0.034,0.267,0.034,0.767,0,1.5c-0.667-0.233-1.383-0.716-2.15-1.449
		c-0.467-0.434-1.15-1.101-2.05-2c0.467-0.167,1.35-0.25,2.65-0.25c-0.033-0.667-0.25-1.467-0.65-2.4c-0.6-1.333-0.934-2.1-1-2.3
		c0.333-0.367,0.917-0.55,1.75-0.55c0.933,0.067,1.6,0.067,2,0c-0.367-0.833-0.617-1.467-0.75-1.9c-0.267-0.767-0.367-1.467-0.3-2.1
		c0.133-0.033,1.15,0,3.05,0.1c1.367,0.067,2.25-0.183,2.65-0.75c0.1-0.5,0.067-1.033-0.1-1.6c0.367-0.4,0.917-0.533,1.65-0.4
		c0.867,0.167,1.483,0.167,1.85,0c0.9-0.4,1.317-0.95,1.25-1.65c-0.1-1.333-0.083-2.2,0.05-2.6c0.233-0.833,0.583-1.4,1.05-1.7
		c0.467-0.333,1.133-0.45,2-0.35c0-0.1-0.033-0.733-0.1-1.9c-0.066-0.933,0-1.533,0.2-1.8c0.5-0.567,1.3-0.683,2.4-0.35
		c0.9,0.333,1.65,0.783,2.25,1.35c0.033-1.6,0.067-2.45,0.1-2.55c0.2-0.467,0.917-0.817,2.15-1.05c2-0.3,3.3,0.067,3.9,1.1
		c0.267-1,0.867-1.9,1.8-2.7c0.933-0.8,1.9-1.267,2.9-1.4c0.5,0.867,0.917,1.717,1.25,2.55c1.2-1.267,2.2-2.017,3-2.25
		c0.533,0.466,1.05,1.3,1.55,2.5c0.666,1.8,1.017,2.733,1.05,2.8c0.3-1.1,0.767-1.95,1.399-2.55C55.9,9.5,56.833,9.317,57.9,9.65
		c0.833,0.267,1.333,0.717,1.5,1.35c0.033,0.167,0.05,0.883,0.05,2.15c1.3-1.333,2.55-1.883,3.75-1.65
		c1.233,0.267,2.05,1.35,2.45,3.25c1.066-0.767,2.066-0.633,3,0.4c0.8,0.9,1.216,2,1.25,3.3c1.166-0.367,2-0.534,2.5-0.5
		c1.066,0.133,1.767,0.7,2.1,1.7c0.5,1.367,0.884,2.184,1.15,2.45c0.267,0.2,0.883,0.316,1.85,0.35c1.066-0.034,1.717-0.034,1.95,0
		c0.2,0.6,0.616,0.85,1.25,0.75c0.566,0,1.233-0.383,2-1.15c-0.066,0.434-0.2,1.083-0.4,1.95c1.601,0,2.634,0.067,3.101,0.2
		c0.566,0.2,0.949,1.083,1.149,2.65c0.134,1.333,0.316,2.3,0.55,2.9c0.567-0.133,0.9,0.05,1,0.55c0.233,1.367-0.283,2.133-1.55,2.3
		c-1.566,0.167-2.45,0.566-2.649,1.2c1.133,0.034,1.983,0.1,2.55,0.2c0.934,0.167,1.583,0.633,1.95,1.4
		c0.1,0.167,0.166,0.367,0.199,0.6l-0.5,0.8c-0.533,0.934-0.916,1.65-1.149,2.15c-0.033,0-0.75-0.283-2.15-0.851
		c-1.033-0.767-2.149-1.033-3.35-0.8c-0.467,0.967-0.45,2.55,0.05,4.75c-0.566-0.934-1.55-0.899-2.95,0.101v-0.2
		c-0.166,0.166-0.566,0.55-1.2,1.149C76.65,43.634,76.05,44.05,75.55,44.35z M9,46H8.95c0.233-0.066,0.5-0.15,0.8-0.25
		C9.483,45.85,9.233,45.934,9,46z M10.1,37.3c-0.133,0.267-0.2,0.533-0.2,0.8c-0.033-0.366,0.117-0.816,0.45-1.35
		C10.25,36.95,10.167,37.134,10.1,37.3z M96.05,41.65c0.3,0.066,0.601,0.149,0.9,0.25c0.833,0.267,1.5,0.55,2,0.85
		c-0.601-0.333-1.351-0.634-2.25-0.9C96.5,41.783,96.283,41.717,96.05,41.65z M88.65,39.6c-0.101-0.366-0.117-0.949-0.051-1.75
		c0.041-0.363,0.065-0.688,0.075-0.975c0,0.184-0.008,0.375-0.024,0.575C88.583,38.55,88.583,39.267,88.65,39.6z M99.7,45
		c0-0.2,0.05-0.4,0.149-0.6c-0.166,0.399-0.133,0.816,0.101,1.25C99.783,45.384,99.7,45.167,99.7,45z M28.5,54.95h0.05
		c-0.133,0.467-0.233,1-0.3,1.6L28.2,56.5v0.15c-0.067,0.399-0.117,0.783-0.15,1.149C28.083,56.8,28.233,55.85,28.5,54.95z"/>
	<path style="fill-rule:evenodd;clip-rule:evenodd;fill:#5D5D34;" d="M10.1,37.3l3-0.55c-0.133-0.9,0.2-1.517,1-1.85
		c0.9,0.9,1.583,1.567,2.05,2c0.767,0.733,1.483,1.216,2.15,1.449c0.034-0.733,0.034-1.233,0-1.5c0.6-0.199,1.317-0.183,2.15,0.051
		c1.233,0.3,1.933,0.449,2.1,0.449c1.3,0.101,1.983,0.084,2.05-0.05c0.033-0.434,0.2-0.967,0.5-1.6
		c0.233-0.367,0.35-0.717,0.35-1.05c0-0.066,0.216-0.25,0.65-0.55c0.533-0.367,1.467-0.4,2.8-0.1c1.233,0.3,2.1,0.683,2.6,1.15
		c-1.4-1.9-1.967-3.433-1.7-4.6c0.967-0.233,1.817-0.1,2.55,0.4c-0.667-2.3-1.067-3.833-1.2-4.6c-0.4-2.333-0.15-3.717,0.75-4.15
		c1.2-0.6,2.15-0.25,2.85,1.05c0.533,1.667,0.917,2.717,1.15,3.15c0.033-1.8,0.15-3.183,0.35-4.15c0.4-1.833,1.333-2.617,2.8-2.35
		c1.1,0.2,1.8,1.35,2.1,3.45c0.133,1.1,0.283,2.617,0.45,4.55c0.133-1.867,0.333-3.217,0.6-4.05c0.433-1.467,1.45-2.217,3.05-2.25
		c1.333-0.033,2.317,0.583,2.95,1.85c0.4,0.8,0.7,2.083,0.9,3.85c0.4-1.2,0.983-2.25,1.75-3.15c0.967-1.2,1.95-1.733,2.95-1.6
		c1.267,0.167,2.134,1.55,2.601,4.15c0.199,0.933,0.366,2.716,0.5,5.35c1.267-0.2,2.066,0.034,2.399,0.7
		c-0.1-1.567,0.65-2.917,2.25-4.05c1.533-1.133,3.066-1.534,4.601-1.2c0.533,2.733,0.649,4.717,0.35,5.95
		c1.733-0.8,3.717-1.1,5.95-0.9c0.3,1.1-0.167,2.417-1.4,3.95c-0.934,1.1-1.916,1.967-2.95,2.6c0.467-0.267,0.95-0.483,1.45-0.649
		c0.934-0.334,1.566-0.417,1.9-0.25c0.7,0.366,0.934,1.083,0.7,2.149c-0.233,0.834-0.667,1.684-1.301,2.551
		c0.9-0.7,2.334-1.25,4.301-1.65c0.267,0.634,0.399,1.667,0.399,3.1c-1.6,0.767-2.467,0.184-2.6-1.75
		c0.033,2.067-0.717,3.384-2.25,3.95c-1.488,0.563-2.288-0.271-2.4-2.5c0.027,1.147-0.156,2.164-0.55,3.05
		c-0.5,1.167-1.316,1.717-2.45,1.65c-0.3,0-0.517-0.116-0.649-0.35c-0.233,1.767-1.717,2.666-4.45,2.699
		c-2.7,0.034-3.834-0.733-3.4-2.3c-0.866,0.967-1.967,1.7-3.3,2.2c-1.3,0.434-2.617,0.566-3.95,0.4
		c-0.133-0.767,0.067-1.717,0.6-2.851c0.667-1.267,1.117-2.184,1.35-2.75c-1.233,0.2-1.917,0.3-2.05,0.3
		c-0.8,0.034-1.45-0.083-1.95-0.35c0.667-1.2,1.117-2.033,1.35-2.5c0.333-0.8,0.333-1.667,0-2.6c-2.4,1.333-4.434,2.133-6.1,2.399
		c0.133,2.733-0.617,4.434-2.25,5.101c-0.9,0.366-1.8,0.366-2.7,0c-0.933-0.4-1.533-1.067-1.8-2c-0.067,1-0.733,1.85-2,2.55
		c-1.2,0.733-2.267,0.899-3.2,0.5c-0.167-1.033,0-1.967,0.5-2.8c-0.633,0.033-1.583,0.149-2.85,0.35
		c-1.167,0.1-2.117,0.033-2.85-0.2c0.167-0.2,0.25-0.483,0.25-0.85c-0.5-0.033-1.483-0.033-2.95,0c-1.3-0.066-2.133-0.384-2.5-0.95
		c0.567,1.7-0.833,2.717-4.2,3.05c-3.4,0.334-5.8-0.267-7.2-1.8c0.233-0.066,0.483-0.15,0.75-0.25c2.833-0.967,5.55-2.15,8.15-3.55
		c-1.333,0.5-2.283,0.149-2.85-1.05c-0.566-1.101-0.5-2.184,0.2-3.25c-0.633,0.267-1.517,0.383-2.65,0.35
		c-0.667,0-1.567-0.05-2.7-0.15C9.9,37.833,9.967,37.566,10.1,37.3z M88.675,36.875c-0.01,0.286-0.034,0.611-0.075,0.975
		c-0.066,0.801-0.05,1.384,0.051,1.75c0.8,0.034,1.583,0.167,2.35,0.4c0.866,0.333,1.566,0.583,2.1,0.75
		c0.801,0.2,1.517,0.4,2.15,0.6l0.8,0.301c0.233,0.066,0.45,0.133,0.65,0.199c-0.267,1.2-0.95,1.767-2.05,1.7
		c-0.667-0.033-1.967-0.316-3.9-0.85c-0.1,1.2-0.384,2.45-0.85,3.75c-0.667,1.767-1.45,2.6-2.351,2.5
		c-1.2-0.101-1.75-1.25-1.649-3.45c-1.233-0.167-2.9-0.167-5,0c-1.467-0.233-2.25-1.35-2.351-3.35c1.4-1,2.384-1.034,2.95-0.101
		c-0.5-2.2-0.517-3.783-0.05-4.75c1.2-0.233,2.316,0.033,3.35,0.8c1.4,0.567,2.117,0.851,2.15,0.851
		c0.233-0.5,0.616-1.217,1.149-2.15l0.5-0.8l0.051,0.1L88.7,36.4L88.675,36.875z"/>
	<path style="fill-rule:evenodd;clip-rule:evenodd;fill:#434424;" d="M28.25,56.55c0.067-0.6,0.167-1.133,0.3-1.6H28.5
		c-0.4,1.066-1.383,1.95-2.95,2.649c-1.8,0.767-3.167,0.684-4.1-0.25c-0.7-0.666-0.883-2.399-0.55-5.199
		c-0.333,1.267-1.45,2.199-3.35,2.8c-1.767,0.566-3.267,0.616-4.5,0.149c-0.033-0.466,0.017-1.149,0.15-2.05
		c0.1-0.934,0.133-1.566,0.1-1.899c-0.533,0.699-1.233,1.233-2.1,1.6c-0.9,0.434-1.8,0.616-2.7,0.55
		c-1.2-0.133-1.767-0.316-1.7-0.55c0.067-0.5-0.066-0.9-0.4-1.2c0.2-0.633,0.05-1.1-0.45-1.399L4.7,50.35
		c-0.434-0.133-1.184-0.133-2.25,0C1.283,50.483,0.467,50.517,0,50.45c0.467-1.134,1.817-2.117,4.05-2.95
		c2.534-0.733,4.167-1.233,4.9-1.5H9c1.4,1.533,3.8,2.134,7.2,1.8c3.367-0.333,4.767-1.35,4.2-3.05c0.367,0.566,1.2,0.884,2.5,0.95
		c1.467-0.033,2.45-0.033,2.95,0c0,0.366-0.083,0.649-0.25,0.85c0.733,0.233,1.683,0.3,2.85,0.2c1.267-0.2,2.216-0.316,2.85-0.35
		c-0.5,0.833-0.667,1.767-0.5,2.8c0.934,0.399,2,0.233,3.2-0.5c1.267-0.7,1.933-1.55,2-2.55c0.267,0.933,0.867,1.6,1.8,2
		c0.9,0.366,1.8,0.366,2.7,0c1.633-0.667,2.383-2.367,2.25-5.101c1.667-0.267,3.7-1.066,6.1-2.399c0.333,0.933,0.333,1.8,0,2.6
		c-0.233,0.467-0.684,1.3-1.35,2.5c0.5,0.267,1.15,0.384,1.95,0.35c0.133,0,0.816-0.1,2.05-0.3c-0.233,0.566-0.683,1.483-1.35,2.75
		c-0.533,1.134-0.733,2.084-0.6,2.851c1.333,0.166,2.65,0.033,3.95-0.4c1.333-0.5,2.434-1.233,3.3-2.2
		c-0.434,1.566,0.7,2.334,3.4,2.3c2.733-0.033,4.217-0.933,4.45-2.699c0.133,0.233,0.35,0.35,0.649,0.35
		c1.134,0.066,1.95-0.483,2.45-1.65c0.394-0.886,0.577-1.902,0.55-3.05c0.112,2.229,0.912,3.063,2.4,2.5
		c1.533-0.566,2.283-1.883,2.25-3.95c0.133,1.934,1,2.517,2.6,1.75c0.5-0.3,1.101-0.716,1.8-1.25c0.634-0.6,1.034-0.983,1.2-1.149
		v0.2c0.101,2,0.884,3.116,2.351,3.35c2.1-0.167,3.767-0.167,5,0c-0.101,2.2,0.449,3.35,1.649,3.45c0.9,0.1,1.684-0.733,2.351-2.5
		c0.466-1.3,0.75-2.55,0.85-3.75c1.934,0.533,3.233,0.816,3.9,0.85c1.1,0.066,1.783-0.5,2.05-1.7c0.899,0.267,1.649,0.567,2.25,0.9
		l1.2,0.95l0.05,0.05c-0.167,0.2-0.283,0.417-0.351,0.65C99.75,44.6,99.7,44.8,99.7,45c-1.267,2.066-2.5,3.634-3.7,4.7
		c-1.566,1.333-2.667,1.399-3.3,0.2c-0.634,0.966-1.483,1.616-2.55,1.949c-1.134,0.367-2.217,0.25-3.25-0.35
		c0.1,1.134,0.066,1.967-0.101,2.5c-0.233,0.634-0.816,1.267-1.75,1.9c-1.1,0.733-2.083,1.166-2.95,1.3
		c-1.133,0.133-1.933-0.384-2.399-1.55c-0.134-0.334-0.184-0.867-0.15-1.601c0.066-0.767,0.101-1.3,0.101-1.6
		c-0.167-0.033-1.034,0.017-2.601,0.149c-1.233,0.101-2,0.017-2.3-0.25c-0.434-0.366-0.65-0.816-0.65-1.35
		c0.034-0.566-0.083-0.967-0.35-1.2c-0.4-0.366-1.35-0.267-2.85,0.3C70.1,50.366,69.066,50.733,67.8,51.2
		c-0.033,1.899-0.133,3.116-0.3,3.649c-0.366,1.034-1.267,1.767-2.7,2.2c-0.866,0.3-1.816,0.351-2.85,0.15
		c-1.167-0.233-1.834-0.7-2-1.4c0.233,1.4-0.101,2.3-1,2.7c-0.566,0.233-1.617,0.25-3.15,0.05c-0.833-0.133-1.85-0.283-3.05-0.45
		c-0.967-0.133-1.917-0.133-2.85,0c-2.066,0.301-3.383,0.2-3.95-0.3c-0.5-0.5-0.684-1.7-0.55-3.6c-0.633,1.3-1.833,1.467-3.6,0.5
		c-1.767-1-2.466-2.2-2.1-3.601l-3.15,4.351c-0.9,1.3-2.2,2.1-3.9,2.399C30.85,58.116,29.383,57.684,28.25,56.55z"/>
	<path style="fill-rule:evenodd;clip-rule:evenodd;fill:#36381D;" d="M28.05,57.8c0.034-0.366,0.083-0.75,0.15-1.149V56.5l0.05,0.05
		c1.133,1.134,2.6,1.566,4.4,1.3c1.7-0.3,3-1.1,3.9-2.399L39.7,51.1c-0.367,1.4,0.333,2.601,2.1,3.601
		c1.767,0.967,2.967,0.8,3.6-0.5c-0.133,1.899,0.05,3.1,0.55,3.6c0.566,0.5,1.883,0.601,3.95,0.3c0.934-0.133,1.883-0.133,2.85,0
		c1.2,0.167,2.217,0.317,3.05,0.45c1.533,0.2,2.584,0.184,3.15-0.05c0.899-0.4,1.233-1.3,1-2.7c0.166,0.7,0.833,1.167,2,1.4
		c1.033,0.2,1.983,0.149,2.85-0.15c1.434-0.434,2.334-1.166,2.7-2.2c0.167-0.533,0.267-1.75,0.3-3.649
		c1.267-0.467,2.3-0.834,3.101-1.101c1.5-0.566,2.449-0.666,2.85-0.3c0.267,0.233,0.384,0.634,0.35,1.2
		c0,0.533,0.217,0.983,0.65,1.35c0.3,0.267,1.066,0.351,2.3,0.25c1.566-0.133,2.434-0.183,2.601-0.149c0,0.3-0.034,0.833-0.101,1.6
		c-0.033,0.733,0.017,1.267,0.15,1.601c0.467,1.166,1.267,1.683,2.399,1.55c0.867-0.134,1.851-0.566,2.95-1.3
		c0.934-0.634,1.517-1.267,1.75-1.9c0.167-0.533,0.2-1.366,0.101-2.5c1.033,0.6,2.116,0.717,3.25,0.35
		c1.066-0.333,1.916-0.983,2.55-1.949c0.633,1.199,1.733,1.133,3.3-0.2c1.2-1.066,2.434-2.634,3.7-4.7
		c0,0.167,0.083,0.384,0.25,0.65c0.033,0.1,0.1,0.199,0.2,0.3l0.1,0.1l0.15,0.2c0.033,0.033,0.083,0.083,0.149,0.15
		c0.533,0.6,0.851,1.1,0.95,1.5v0.05c0.134,0.733,0.05,1.3-0.25,1.7c0,0.033-0.45,0.433-1.35,1.199c1.1,0.534,2.1,1.267,3,2.2
		c1.267,1.267,1.699,2.351,1.3,3.25c-0.2,0.467-0.9,0.667-2.101,0.601c-0.633-0.034-1.333-0.117-2.1-0.25
		c-1.2-0.101-2.833-0.167-4.9-0.2c-2.133-0.066-3.767-0.134-4.899-0.2c0.399,2.434,0.566,4.15,0.5,5.15
		c-0.2,2.133-1.25,2.683-3.15,1.649c-0.467-0.267-0.866-0.583-1.2-0.95C86.283,61.967,85.833,61.9,85,61.9
		c-0.434,0-1.184,0.199-2.25,0.6c-1,0.366-1.816,0.533-2.45,0.5c-0.1-0.4-0.133-0.967-0.1-1.7c0.066-0.866,0.083-1.467,0.05-1.8
		c-0.467-0.167-1.066-0.233-1.8-0.2l-1.75,0.05c-0.101-0.767-0.184-1.333-0.25-1.699c-0.167-0.634-0.467-1.101-0.9-1.4
		c-1.166,2.1-1.816,3.184-1.95,3.25c-0.533,0.366-1.616,0.033-3.25-1c-0.866,0.3-1.683,1.717-2.449,4.25
		c-0.733,2.366-1.617,3.517-2.65,3.45c-0.366-0.033-0.85-0.467-1.45-1.3c-0.3-0.434-0.717-1-1.25-1.7
		c-0.267,0.434-1.116,1.767-2.55,4c-1.3,1.633-2.15,1.383-2.55-0.75c-0.834,1.733-1.733,3.017-2.7,3.85
		c-1.333,1.134-2.35,0.733-3.05-1.2c-0.2-0.633-0.25-1.5-0.15-2.6c0.034-0.4-0.533-0.7-1.7-0.9c-0.4-0.066-1.383-0.05-2.95,0.051
		c-1.2,0.1-2.167-0.051-2.9-0.45c0.367-0.9,0.283-1.917-0.25-3.05c-0.6-1.167-0.767-2.184-0.5-3.051
		c-0.567-0.033-0.8-0.183-0.7-0.449c0.133-0.4-0.1-0.75-0.7-1.051l-0.1-1.25c-2.733,2.334-4.717,3.851-5.95,4.551
		c-3.066,1.866-5.333,2.133-6.8,0.8l-0.2-0.25C28.167,60.65,27.917,59.434,28.05,57.8z"/>
</g>
</svg>
