<?xml version="1.0" encoding="iso-8859-1"?>
<!-- Generator: Adobe Illustrator 15.1.0, SVG Export Plug-In . SVG Version: 6.00 Build 0)  -->
<!DOCTYPE svg PUBLIC "-//W3C//DTD SVG 1.1//EN" "http://www.w3.org/Graphics/SVG/1.1/DTD/svg11.dtd">
<svg version="1.1" id="FlashAICB" xmlns="http://www.w3.org/2000/svg" xmlns:xlink="http://www.w3.org/1999/xlink" x="0px" y="0px"
	 width="699.45px" height="659.7px" viewBox="0 0 699.45 659.7" style="enable-background:new 0 0 699.45 659.7;"
	 xml:space="preserve">
<radialGradient id="SVGID_1_" cx="89.7002" cy="621.9502" r="81.75" gradientTransform="matrix(1 0 0 -0.4954 0 930.0723)" gradientUnits="userSpaceOnUse">
	<stop  offset="0" style="stop-color:#000000;stop-opacity:0.6863"/>
	<stop  offset="1" style="stop-color:#000000;stop-opacity:0"/>
</radialGradient>
<path style="fill-rule:evenodd;clip-rule:evenodd;fill:url(#SVGID_1_);" d="M136.1,624.15c2.433,0.866,4.167,1.733,5.2,2.6
	c0.434,0.333,0.767,0.733,1,1.2c0.233,0.5,0.434,0.816,0.6,0.95c0.167,0.166,0.867,1.066,2.1,2.699
	c0.833,1.101,1.817,1.884,2.95,2.351c0.233,0.1,2.85,0.649,7.85,1.649c3.7,0.768,5.9,1.851,6.6,3.25
	c-1.4,0.101-3.65,0.117-6.75,0.051c-2.933-0.067-5.167-0.033-6.7,0.1c0.566,0.867,1.816,1.483,3.75,1.85
	c2.2,0.434,3.633,0.95,4.3,1.551c-0.4,0.033-4.783-0.067-13.15-0.301c-5.367-0.166-9.65,0.268-12.85,1.301
	c-1.833,0.6-3.15,0.866-3.95,0.8c-0.233,0-1.633-0.3-4.2-0.9c-1.967-0.467-4.367-0.683-7.2-0.649c-1.4,0-3.8,0.116-7.2,0.35
	c0.133,0.233,0.216,0.717,0.25,1.45c0.033,0.7,0.1,1.167,0.2,1.399c-4.233,0.268-6.9,0.4-8,0.4c-3.2,0.066-5.833-0.1-7.9-0.5
	c0.033-2.5-4.45-3.333-13.45-2.5c-9.8,1.4-15.483,2.134-17.05,2.2c0.167,0.366,0.25,0.934,0.25,1.7c0,0.866,0.033,1.433,0.1,1.699
	c-1.333,0.2-2.867,0-4.6-0.6c-2.633-0.9-4.1-1.383-4.4-1.45c-2.133-0.433-4.684-0.633-7.65-0.6c-1.733,0-4.3,0.1-7.7,0.3
	c1.333-0.633,4.25-1.616,8.75-2.95c4.033-1.399,6.45-2.883,7.25-4.45c-0.967-0.199-2.283-0.283-3.95-0.25
	c-2.267,0.034-3.617,0.034-4.05,0c0.3-0.199,0.717-0.6,1.25-1.199c0.533-0.601,0.933-0.983,1.2-1.15c-1.067-0.1-2.95-0.15-5.65-0.15
	c-2.433-0.033-4.333-0.133-5.7-0.3c-2.6-0.3-6.2-0.267-10.8,0.101c-5.066,0.399-8.667,0.55-10.8,0.449
	c1.333-0.8,3.233-1.566,5.7-2.3c3.333-0.967,5.25-1.55,5.75-1.75c-1.467-0.2-3.267-0.283-5.4-0.25c-2.4,0.101-4.2,0.15-5.4,0.15
	c0.667-0.2,3.9-1.533,9.7-4c4.1-1.733,7.417-2.733,9.95-3c0.633-0.066,1.65-0.066,3.05,0c1.333,0.1,2.333,0.1,3,0
	c2.267-0.333,4.983-1.101,8.15-2.3c0.633-0.233,3.283-1.301,7.95-3.2l21.5-8c3.267,0.033,7.517,0.233,12.75,0.6
	c6.833,0.5,11.1,0.783,12.8,0.851c3.733,0.166,8.017,1.233,12.85,3.199c2.8,1.134,6.867,2.967,12.2,5.5
	C130.683,622.167,132.533,622.85,136.1,624.15z"/>
<radialGradient id="SVGID_2_" cx="238.3999" cy="595.75" r="83.525" gradientTransform="matrix(1 0 0 -0.6205 0 965.3967)" gradientUnits="userSpaceOnUse">
	<stop  offset="0" style="stop-color:#000000;stop-opacity:0.6863"/>
	<stop  offset="1" style="stop-color:#000000;stop-opacity:0"/>
</radialGradient>
<path style="fill-rule:evenodd;clip-rule:evenodd;fill:url(#SVGID_2_);" d="M294.7,616.95c-2.133-0.033-3.717-0.017-4.75,0.05
	c0.066,0.233,0.05,0.634-0.05,1.2c-0.066,0.566-0.083,0.95-0.05,1.149c-1.1,0-2.967-0.1-5.6-0.3c-2.433-0.166-4.333-0.217-5.7-0.149
	c-1.733,0.1-2.733,0.166-3,0.199c-1.267,0.167-2.183,0.467-2.75,0.9c-0.533,0.4-1.033,1.1-1.5,2.1c-0.4,0.934-0.9,1.551-1.5,1.851
	c-0.5,0.267-2.066,0.2-4.7-0.2c-3.434-0.6-6.067-1.033-7.9-1.3c-7.067-0.967-10.35-0.15-9.85,2.45c-1.8,0.1-5.067-0.101-9.8-0.601
	c-1.267-0.133-4.2-0.183-8.8-0.149c-3.7,0-6.633-0.25-8.8-0.75c2.5-0.067,4.15-0.533,4.95-1.4c-0.333-0.033-1.717-0.05-4.15-0.05
	c-1.7,0-3.083-0.134-4.15-0.4l0.25-0.55c-3.833-0.3-8.8-0.267-14.9,0.1c-8.3,0.534-13.284,0.817-14.95,0.851
	c2.467-0.934,5.517-1.767,9.15-2.5c-1-1.267-3.933-1.816-8.8-1.65c-2.987,0.244-5.337,0.42-7.05,0.525
	c1.583-0.196,3.233-0.604,4.95-1.226c1-0.366,3.367-1.416,7.1-3.149c6.033-2.767,11.233-3.601,15.6-2.5l29-6
	c1.7-0.767,4.15-1.017,7.35-0.75c1.767,0.167,4.317,0.417,7.65,0.75c3.5,0.033,7.033,0.333,10.6,0.899
	c2.667,0.4,6.15,1.101,10.45,2.101c7.267,1.667,11.733,2.717,13.4,3.149c4.767,1.268,9.067,2.75,12.9,4.45
	C298.133,616.617,296.6,616.917,294.7,616.95z"/>
<radialGradient id="SVGID_3_" cx="370.8496" cy="609.3496" r="87.725" gradientTransform="matrix(1 0 0 -0.4192 0 864.7937)" gradientUnits="userSpaceOnUse">
	<stop  offset="0" style="stop-color:#000000;stop-opacity:0.6863"/>
	<stop  offset="1" style="stop-color:#000000;stop-opacity:0"/>
</radialGradient>
<path style="fill-rule:evenodd;clip-rule:evenodd;fill:url(#SVGID_3_);" d="M320.45,616.95l9.5-7.5c1.2-1.333,2.816-2.217,4.85-2.65
	c0.867-0.166,2.733-0.333,5.6-0.5c2.3-0.1,6.317-0.45,12.05-1.05c5.1-0.5,9.1-0.783,12-0.85c3.2-0.033,7.85,0.3,13.95,1
	c6.267,0.699,10.966,1.05,14.1,1.05c4.533-0.066,7.767-0.033,9.7,0.1c4.566,0.334,7.483,1.101,8.75,2.3
	c-1.533,0.167-2.967,0.483-4.3,0.95c0.8,0.3,2.399,0.684,4.8,1.15c2.1,0.434,3.733,0.95,4.899,1.55
	c0.767,0.434,2.034,1.417,3.801,2.95c1.6,1.399,2.899,2.283,3.899,2.649c2.134,0.801,6.316,1.483,12.55,2.051
	c5.534,0.5,9.617,1.55,12.25,3.149c-1.267,0.9-2.899,1.7-4.899,2.4c-1.2,0.399-2.95,0.899-5.25,1.5c0.366,0.366,1.283,0.6,2.75,0.7
	c1.233,0.066,1.934,0.55,2.1,1.449c-1.066,0.134-4.399,0.667-10,1.601c-3.967,0.667-7.383,1-10.25,1
	c-1.899-0.033-3.75,0.133-5.55,0.5c-1.2,0.267-2.95,0.75-5.25,1.45c-0.8,0.233-2.967,0.399-6.5,0.5
	c-3.233,0.066-5.366,0.383-6.4,0.949c0.233,0.2,0.483,0.551,0.75,1.051c0.301,0.533,0.5,0.866,0.601,1
	c-2.367-0.033-4.15-0.017-5.351,0.05c0.967,0.6,2.517,1.35,4.65,2.25c2.134,0.833,3.684,1.566,4.65,2.2
	c-3.9,0.199-9.15,0.033-15.75-0.5c-7.9-0.634-13.2-0.967-15.9-1c-2.066,0-3.95-0.334-5.65-1c-2.033-1-3.716-1.817-5.05-2.45
	c-1.233-0.566-5.85-1.017-13.85-1.351c-7.067-0.267-10.65-0.966-10.75-2.1c2.2-0.133,3.9-0.65,5.1-1.55
	c-0.466-0.5-1.233-0.833-2.3-1c-1.433-0.267-2.25-0.434-2.45-0.5c0.233-0.134,0.534-0.467,0.9-1s0.6-0.851,0.7-0.95
	c-2-0.167-4.716-0.2-8.15-0.1c-3.533,0.133-6.15,0.133-7.85,0c-0.633-0.033-1.816,0-3.55,0.1c-1.533,0.1-2.717,0.083-3.55-0.05
	c-0.9-0.134-2.066-0.467-3.5-1c-1.5-0.566-2.616-0.917-3.35-1.05c-1.967-0.301-4.7-0.367-8.2-0.2c-4.033,0.2-6.767,0.25-8.2,0.149
	c0.067-1.066,2.1-1.866,6.1-2.399c2.133-0.267,4.85-0.617,8.15-1.05c-1.167-0.301-2.066-0.45-2.7-0.45c0.5-0.2,3.167-0.867,8-2
	C316.4,619.684,318.85,618.517,320.45,616.95z"/>
<radialGradient id="SVGID_4_" cx="519.1504" cy="584.9502" r="81.3" gradientTransform="matrix(1 0 0 -0.3733 0 803.3172)" gradientUnits="userSpaceOnUse">
	<stop  offset="0" style="stop-color:#000000;stop-opacity:0.6863"/>
	<stop  offset="1" style="stop-color:#000000;stop-opacity:0"/>
</radialGradient>
<path style="fill-rule:evenodd;clip-rule:evenodd;fill:url(#SVGID_4_);" d="M511.6,574.95c4.634-0.2,9.45,0.133,14.45,1
	c4.934,0.866,9.601,2.149,14,3.85c0.033,0.033,1.65,0.7,4.851,2c1.866,0.8,3.482,1.367,4.85,1.7c4.167,1.066,6.366,1.634,6.6,1.7
	c2.434,0.7,4.567,1.45,6.4,2.25c2,0.899,4.1,2.017,6.3,3.35c0.9,0.567,2.816,1.817,5.75,3.75c1,0.634,2.333,1.2,4,1.7
	c2.033,0.6,3.367,1.033,4,1.3c-1.1,0.334-2.616,0.483-4.55,0.45c-2.667-0.033-4.25-0.033-4.75,0c0.5,0.6,1.217,1.217,2.15,1.85
	c0.533,0.334,1.333,0.834,2.399,1.5c-0.767,0.067-2.5,0.067-5.2,0c-2.199-0.066-3.899,0.018-5.1,0.25
	c-0.033,0.768-0.05,3.018-0.05,6.75c-2.567,0.334-5.8-0.05-9.7-1.149c-6.233-1.767-9.434-2.667-9.6-2.7
	c-8.268-1.6-12.15-0.316-11.65,3.85c-7.934,0.534-13.35,0.351-16.25-0.55c-0.434-0.133-0.9-0.433-1.4-0.899
	c-0.467-0.5-0.983-0.834-1.55-1c-1-0.301-2.45-0.4-4.35-0.301c-2.101,0.2-3.584,0.334-4.45,0.4c0.167,0.367,0.3,0.983,0.4,1.85
	c-3.634,0.268-6.967-0.033-10-0.899c-0.267-0.101-0.7-0.351-1.301-0.75c-0.533-0.434-1.017-0.7-1.449-0.8
	c-0.601-0.134-1.65-0.15-3.15-0.051c-1.333,0.067-2.35-0.066-3.05-0.399c0.467-0.767,0.8-1.267,1-1.5
	c-1.101-1.367-3.8-1.95-8.101-1.75c-4.733,0.5-7.816,0.75-9.25,0.75H446.45c1.3-0.066,2.899-0.55,4.8-1.45
	c2.333-1.167,3.884-1.85,4.65-2.05c0.733-0.2,2.666-0.4,5.8-0.601c2.467-0.166,4.2-0.616,5.2-1.35
	c-2.301-0.167-5.784-0.184-10.45-0.05c1.1-0.434,2.8-1.134,5.1-2.101c2.033-0.767,3.767-1.25,5.2-1.449
	c0.467-0.067,1.667-0.101,3.6-0.101c1.467-0.033,2.667-0.2,3.601-0.5c2.1-0.666,4.899-2.283,8.399-4.85
	c4-2.934,6.767-4.767,8.301-5.5L511.6,574.95z"/>
<linearGradient id="SVGID_5_" gradientUnits="userSpaceOnUse" x1="461.6504" y1="591.0391" x2="569.3496" y2="591.0391">
	<stop  offset="0" style="stop-color:#000000;stop-opacity:0.298"/>
	<stop  offset="0.8588" style="stop-color:#000000;stop-opacity:0.298"/>
	<stop  offset="1" style="stop-color:#000000;stop-opacity:0.298"/>
</linearGradient>
<path style="fill-rule:evenodd;clip-rule:evenodd;fill:url(#SVGID_5_);" d="M502.6,583c3.301-0.866,7.584-1.25,12.851-1.15
	c2.933,0.034,7.283,0.167,13.05,0.4c6.3,0,12.6,0.55,18.9,1.65c0.8,0.166,2.6,0.467,5.399,0.899c2.533,0.5,4.184,1.134,4.95,1.9
	c0.3,0.333,0.483,0.833,0.55,1.5c0.101,0.733,0.283,1.283,0.55,1.649c0.4,0.534,1.434,0.934,3.101,1.2
	c1.533,0.267,2.45,0.767,2.75,1.5c-0.3-0.033-0.733-0.017-1.3,0.05c-0.601,0.034-1.018,0.051-1.25,0.051
	c0.033,0.933,1.017,1.783,2.949,2.55c1.067,0.399,2.483,0.866,4.25,1.399c-1.233,0-2.633,0.117-4.199,0.351
	c-1.768,0.3-3.117,0.517-4.051,0.649c-0.533,0.067-1.833,0.034-3.899-0.1c-1.667-0.133-2.917,0-3.75,0.4
	c-0.267,0.133-0.851,0.483-1.75,1.05c-0.467,0.3-1.117,0.517-1.95,0.649c-1.1,0.167-2.3,0.134-3.6-0.1
	c-0.634-0.133-1.801-0.434-3.5-0.9c-1.101-0.333-1.967-0.583-2.601-0.75c-1.1-0.267-1.967-0.366-2.6-0.3
	c-0.634,0.067-1.184,0.3-1.65,0.7c-0.7,0.533-1.149,0.85-1.35,0.95c-0.334,0.167-1.3,0.25-2.9,0.25
	c-1.233-0.033-1.866,0.217-1.899,0.75c-2.934,0.2-6.733-0.283-11.4-1.45c-5.333-1.333-9.05-2.066-11.15-2.2
	c0.301-1.399,0.434-2.149,0.4-2.25c-0.134-0.267-0.884-0.5-2.25-0.7c-3.566-0.466-6.15-0.683-7.75-0.649
	c0.366-0.101,0.884-0.267,1.55-0.5c-0.899-0.601-2.45-1-4.649-1.2c-1.434-0.1-2.317-0.1-2.65,0c-0.233,0.066-0.55,0.233-0.95,0.5
	c-0.399,0.267-0.666,0.417-0.8,0.45c-2.066,0.434-3.583,0.767-4.55,1c-1.667,0.399-3.15,0.934-4.45,1.6
	c-0.733,0.367-1.35,0.601-1.85,0.7c-0.301,0.033-0.983,0.066-2.051,0.1c-0.899,0.034-2.183-0.066-3.85-0.3
	c-1.7-0.233-2.967-0.35-3.8-0.35c-1.7,0.2-3.017,0.333-3.95,0.399c-1.733,0.167-3.017,0.034-3.85-0.399
	c0.899-0.601,2.033-1.101,3.399-1.5c1.533-0.467,2.767-0.634,3.7-0.5l19-7.7c1.6-0.566,4.033-0.983,7.3-1.25
	C498.65,583.7,501.167,583.367,502.6,583z"/>
<linearGradient id="SVGID_6_" gradientUnits="userSpaceOnUse" x1="299.8999" y1="622.0811" x2="425.0498" y2="622.0811">
	<stop  offset="0" style="stop-color:#000000;stop-opacity:0.298"/>
	<stop  offset="0.8588" style="stop-color:#000000;stop-opacity:0.298"/>
	<stop  offset="1" style="stop-color:#000000;stop-opacity:0.298"/>
</linearGradient>
<path style="fill-rule:evenodd;clip-rule:evenodd;fill:url(#SVGID_6_);" d="M306.1,623.6c2.3-1.3,4.633-2.517,7-3.649l21.35-9.7
	c0.267-0.6,2.017-1.4,5.25-2.4c1.167-0.366,2.55-0.566,4.15-0.6c0.967-0.033,2.383-0.033,4.25,0h22.2
	c6.033-0.033,13.467,0.884,22.3,2.75c14.667,3.1,22.034,4.65,22.101,4.65c-0.033,1,0.217,1.983,0.75,2.949
	c0.3,0.534,0.833,1.4,1.6,2.601c0.867,1.5,2,2.667,3.4,3.5c0.866,0.533,2.399,1.283,4.6,2.25c-5.1-0.267-11.2-0.333-18.3-0.2
	c-8.167,0.267-14.267,0.45-18.3,0.55c0.066,0.667,0.483,1.3,1.25,1.9c0.967,0.767,1.55,1.35,1.75,1.75
	c-0.7,0.333-1.717,0.467-3.05,0.399c-2.034-0.033-3.117-0.05-3.25-0.05c0.199,0.3,1.05,1.084,2.55,2.351
	c1.133,1,1.684,1.85,1.649,2.55c-0.133,0.033-0.333,0.116-0.6,0.25c-0.233,0.133-0.434,0.2-0.6,0.2
	c0.033,0.033,0.083,0.217,0.149,0.55c0.066,0.267,0.167,0.483,0.3,0.649c-1.233,0.233-2.883,0-4.949-0.699
	c-2.233-0.867-3.817-1.45-4.75-1.75c-2.301-0.7-5.217-1.533-8.75-2.5c-5-1.367-7.917-2.167-8.75-2.4c-2.567-0.7-4.15-1.167-4.75-1.4
	c-1.667-0.633-3.051-1.466-4.15-2.5c-0.667-0.767-1.116-1.216-1.35-1.35c-0.2-0.167-0.917-0.267-2.15-0.3
	c-3.467-0.2-6-0.434-7.6-0.7c-1.3-0.267-3.083-0.366-5.35-0.3c-0.667-0.066-1.216-0.117-1.65-0.15c-0.767-0.033-1.3,0.033-1.6,0.2
	c-0.267,0.167-0.5,0.434-0.7,0.8c-0.2,0.4-0.333,0.634-0.4,0.7c-1.567,1.1-4.35,1.566-8.35,1.4c-0.467,0-2.3-0.101-5.5-0.301
	c-2.267-0.166-4.15-0.166-5.65,0c-3.467,0.4-5.6,0.617-6.4,0.65c-3.066,0.167-5.033-0.05-5.9-0.65c0.667-0.366,1.7-0.699,3.1-1
	C304.434,624.267,305.467,623.934,306.1,623.6z"/>
<linearGradient id="SVGID_7_" gradientUnits="userSpaceOnUse" x1="192.4502" y1="611.2949" x2="288.1001" y2="611.2949">
	<stop  offset="0" style="stop-color:#000000;stop-opacity:0.298"/>
	<stop  offset="0.8588" style="stop-color:#000000;stop-opacity:0.298"/>
	<stop  offset="1" style="stop-color:#000000;stop-opacity:0.298"/>
</linearGradient>
<path style="fill-rule:evenodd;clip-rule:evenodd;fill:url(#SVGID_7_);" d="M278.75,605.75c2.6,0.533,4.15,1.35,4.65,2.45
	c-0.733,0.066-2.05,0.066-3.95,0c-1.7-0.033-3.017,0.017-3.95,0.149c0.934,1.101,2.917,2.067,5.95,2.9
	c3.5,0.967,5.716,1.733,6.65,2.3c-2.2,0.067-3.833,0.134-4.9,0.2c-1.8,0.1-3.383,0.3-4.75,0.6c-1.567,0.334-4.184,0.617-7.85,0.851
	c-3.434,0.233-6.034,0.583-7.8,1.05c-1.066,0.333-1.85,0.566-2.35,0.7c-0.833,0.2-1.767,0.3-2.8,0.3c-3.333-0.1-5.867-0.167-7.6-0.2
	c-3.066-0.066-5.583,0.117-7.55,0.55c-0.333,0.067-0.933,0.268-1.8,0.601c-0.667,0.2-1.367,0.333-2.1,0.399
	c-2.233,0.134-4.733,0.117-7.5-0.05c0.133-0.666,0.25-1.1,0.35-1.3c-1.333-0.333-2.983-0.533-4.95-0.6c-2.233,0-3.9-0.033-5-0.101
	l-0.1-0.899c-2-0.2-4.933-0.117-8.8,0.25c-4.1,0.366-7.067,0.5-8.9,0.399c-2.867-0.233-4.817-0.416-5.85-0.55
	c-2.467-0.4-4.267-1-5.4-1.8l24-7.7c0.667-0.866,1.983-1.333,3.95-1.4c1.1-0.066,2.617-0.033,4.55,0.101
	c1.4,0,3.583-0.184,6.55-0.55c2.8-0.301,4.967-0.45,6.5-0.45c3.867,0,9.683-0.017,17.45-0.05c6.733,0.066,12.533,0.416,17.4,1.05
	C276.383,605.384,278.35,605.65,278.75,605.75z"/>
<linearGradient id="SVGID_8_" gradientUnits="userSpaceOnUse" x1="35.75" y1="623.1436" x2="142.75" y2="623.1436">
	<stop  offset="0" style="stop-color:#000000;stop-opacity:0.298"/>
	<stop  offset="0.8588" style="stop-color:#000000;stop-opacity:0.298"/>
	<stop  offset="1" style="stop-color:#000000;stop-opacity:0.298"/>
</linearGradient>
<path style="fill-rule:evenodd;clip-rule:evenodd;fill:url(#SVGID_8_);" d="M135.55,622.7c2.7,1.2,5.1,1.967,7.2,2.3
	c-0.633,0.667-1.933,0.95-3.9,0.85c-2.333-0.133-3.783-0.116-4.35,0.051c3.933,4.899,6.217,7.767,6.85,8.6
	c-2.133,0.333-4.8,0.384-8,0.15c-0.567-0.033-3.2-0.301-7.9-0.801c-1.867-0.199-3.35-0.25-4.45-0.149c-1.433,0.1-2.833,0.434-4.2,1
	c-1.6,0.667-2.65,1.083-3.15,1.25c-1.467,0.399-2.566,0.399-3.3,0c-0.733-0.4-1.133-0.833-1.2-1.3c-0.033-0.533,0.417-1,1.35-1.4
	c-3.7-0.366-6.45-0.583-8.25-0.65c-3.167-0.1-5.883,0.317-8.15,1.25c-2.7,1.167-4.2,1.801-4.5,1.9c-1.6,0.566-3.217,0.85-4.85,0.85
	c-0.867,0-3.083,0.084-6.65,0.25c-2.733,0.134-4.95,0.134-6.65,0c-0.1-0.866,1.05-2.033,3.45-3.5c2.2-1.3,3.817-2.017,4.85-2.149
	c-0.367-1.4-3.1-1.884-8.2-1.45c-5.633,0.533-8.783,0.6-9.45,0.2c0.8-0.467,1.65-0.783,2.55-0.95c-0.4-0.033-5.267-0.184-14.6-0.45
	c-5.8-0.2-10.566-0.85-14.3-1.95l16-4c0.967-0.366,2.517-1.017,4.65-1.949c1.934-0.834,3.533-1.384,4.8-1.65
	c1.533-0.333,3.216-1.083,5.05-2.25c2.567-1.633,4.15-2.6,4.75-2.9c4.633-2.232,10.2-3.633,16.7-4.199
	c4.533-0.4,10.367-0.417,17.5-0.051c3.566,0.2,6.433,0.518,8.6,0.95c3.1,0.601,5.784,1.601,8.05,3c0.267,0.167,0.617,0.467,1.05,0.9
	c0.367,0.366,0.717,0.633,1.05,0.8c0.7,0.333,1.767,0.6,3.2,0.8c1.767,0.267,2.867,0.467,3.3,0.601c0.233,1.1-0.233,1.983-1.4,2.649
	C131.083,620.566,133.25,621.7,135.55,622.7z"/>
<g>
	<path style="fill-rule:evenodd;clip-rule:evenodd;fill:#322406;" d="M64.9,47.2c0.567-0.633,0.833-1.417,0.8-2.35
		c-0.1-1.633-0.15-3.283-0.15-4.95c0.934-8.367,2.85-18.3,5.75-29.8l0.3-0.6l0.75-2.1c0.433,0.267,0.867,0.45,1.3,0.55
		c-2.533,19.2-3.1,31.566-1.7,37.1c1.033,4.167,2.566,17.767,4.6,40.8c2.1,23.967,3.284,36.717,3.55,38.25
		c0.433,2.333,2.783,9.233,7.05,20.7c4.167,11.034,6.367,17.75,6.6,20.15c0.167,1.6,2.15,10.55,5.95,26.85
		c3.533,15.2,5.183,23.967,4.95,26.3c-0.333,2.867,0.2,13.767,1.6,32.7c1.367,18.267,2.417,29.85,3.15,34.75
		c0.767,4.967,2.1,16.517,4,34.65c2,19.166,3.167,31.916,3.5,38.25c0.434,9.066,0.65,31.316,0.65,66.75
		c0,3.434-0.167,11.783-0.5,25.05c-0.2,12.4-0.033,20.4,0.5,24c0.467,2.934,0.817,10.717,1.05,23.35c0.2,11.9,0.533,18.65,1,20.25
		c0.833,2.867,1.35,9.917,1.55,21.15c0.233,12.033-0.283,19.75-1.55,23.15c-1.3,3.633-2.2,6.866-2.7,9.699
		c-0.467,2.601-0.7,5.5-0.7,8.7v12.95c0,1.6-0.2,3.917-0.6,6.95c-0.1,2.566,0.55,4.566,1.95,6c0.133,0.133,1.767,1.667,4.9,4.6
		c1.667,1.567,2.767,2.75,3.3,3.55c0.533,0.834,1.433,1.967,2.7,3.4c0.8,0.934,2.4,2.75,4.8,5.45c2.733,3.167,6.133,7.25,10.2,12.25
		c-2.733,0-5.684-0.45-8.85-1.351c-1.867-0.533-3.65-1.1-5.35-1.699c-2.9-1.033-4.517-1.601-4.85-1.7l-6.85-2.05l-8.85-0.7
		c-1.367,0.934-4.083,1.85-8.15,2.75c-2.566,0.566-5.617,1.184-9.15,1.85l-14,2.9c-5.933,1.366-8.217,1.6-6.85,0.7l6.85-4.101
		l0.65-4.75l-4.75-2.05H63.05c-4.066,1.367-7.466,2.05-10.2,2.05c-8.633,0-14.317-0.233-17.05-0.7c-1.7-0.267-1.3-0.566,1.2-0.899
		c1.267-0.167,2.683-0.316,4.25-0.45c3.967-1.133,8.567-4.2,13.8-9.2l6.65-7.149c0.8-1.601,1.767-3.733,2.9-6.4
		c2.267-5.333,4.25-10.7,5.95-16.1c3.633-11.4,6.65-23.067,9.05-35c2.6-12.867,3.9-23.217,3.9-31.051
		c0-7.267,1.133-17.716,3.4-31.35c1.8-10.833,3.617-19.917,5.45-27.25c1.6-6.333,2.633-13.967,3.1-22.9c0.2-3.966,0.3-9.966,0.3-18
		v-58.55c0-2.467-0.967-14.85-2.9-37.15c-2.2-25.466-3.5-41.25-3.9-47.35c-1.467-18.5-2.65-33.483-3.55-44.95
		c-1.7-21.5-2.55-35.817-2.55-42.95c0-7.467-1.6-18.417-4.8-32.85c-0.333-1.566-2.6-10.816-6.8-27.75l-2.75-10.9
		c-2.5-0.467-5.183-1.117-8.05-1.95c-5.8-1.733-9.7-3.583-11.7-5.55c-0.333-0.333-2.8-2.2-7.4-5.6c-2.7-2-4.317-4.216-4.85-6.65
		c-0.9-3.633-1.55-6.3-1.95-8c-0.7-2.967-1.183-5.983-1.45-9.05c-0.333-3.733-0.65-7.9-0.95-12.5c-0.267-4.6-0.4-7.934-0.4-10
		c0-2.067-1.05-4.983-3.15-8.75c-2.2-3.867-4.783-7.3-7.75-10.3l-6.15-6.15l-1.35-9.5l1.45,4.05c1.267,2.966,2.6,5.017,4,6.15
		c4.733,3.767,8.133,6.95,10.2,9.55l2.75,3.4c0.433-7.733,0.65-13.417,0.65-17.05V18.5c0-5,0.233-10.683,0.7-17.05l0.5-0.25
		c0.267,5.966,0.883,13.017,1.85,21.15c0.566,4.7,1.466,11.75,2.7,21.15c0.033,1.267,0.267,7.233,0.7,17.9
		c0.267,6.267,0.4,10.133,0.4,11.6c0,3.8,0.5,7.833,1.5,12.1c1.167,4.833,2.7,8.517,4.6,11.05c1.367,1.833,2.566,3.767,3.6,5.8
		c0.867,1.4,2.4,2.65,4.6,3.75c2.267,1.133,4.867,1.816,7.8,2.05c1.5,0.1,2.75,0.1,3.75,0c-0.9-16.8-1.35-27.25-1.35-31.35V56.3
		c0.6-0.6,0.9-1.383,0.9-2.35C64.717,50.95,64.8,48.7,64.9,47.2z"/>
	<path style="fill-rule:evenodd;clip-rule:evenodd;fill:#322406;" d="M242.6,91.4c0.433-16.167,0.85-25.25,1.25-27.25
		c0.6-3.033,2.417-18.483,5.45-46.35c1.2,14.534,1.8,26.95,1.8,37.25c0,5.167,0.267,23.15,0.8,53.95
		c0.434,30.033,0.467,48.683,0.1,55.95c-0.367,7.367-0.483,20.433-0.35,39.2c0.1,10.067,0.217,23.35,0.35,39.85
		c0,7.8,0.5,22.25,1.5,43.35c0.533,11.367,1.25,26.283,2.15,44.75c0.233,5.634,0.117,27.551-0.35,65.75
		c-0.433,35.967-0.316,57.65,0.35,65.051c0.6,6.699,0.6,23.017,0,48.949c-0.6,25.834-0.6,41.917,0,48.25
		c0.733,7.601,2.4,14.217,5,19.851c0.067,0.133,1.033,2.066,2.9,5.8c1.034,2.033,1.733,3.783,2.1,5.25
		c1.067,4.233,1.85,7.033,2.35,8.4c0.8,2.033,1.833,3.467,3.1,4.3c1.8,1.2,7.85,4.533,18.15,10l-10-0.9
		c-3.833-0.333-7.283-0.149-10.35,0.55c-3.467,0.834-5.767,1.25-6.9,1.25c-2.267,0-4.517,0.067-6.75,0.2l-2.65,0.2
		c-4.033,0.934-8.467,1.4-13.3,1.4c-2.267,0-4.417-0.334-6.45-1c-2.467-0.834-5.767-1.4-9.9-1.7c-3.934-0.3-5.9-0.367-5.9-0.2
		c0,0.434-1.966,0.8-5.9,1.1c-4.9,0.367-9.25,0.483-13.05,0.351l-4.2-0.351c9.633-5.899,16.583-10.75,20.85-14.55
		c3.467-3.066,5.4-6.583,5.8-10.55c-0.233-4.133-0.35-6.967-0.35-8.5c0-1.366,0.167-5.083,0.5-11.15
		c0.3-6.033,0.45-10.199,0.45-12.5c0-1.433,1.067-7.216,3.2-17.35c2.1-10.133,3.15-17.967,3.15-23.5c0-3.267,1.1-12.917,3.3-28.95
		c1.867-13.666,2.284-23.1,1.25-28.3c-1.133-5.566-1.333-24.217-0.6-55.95c1-32.333,1.5-50.316,1.5-53.95V259.45
		c0-6.067-0.15-17.733-0.45-35l-0.45-24.05c-1.233-3.633-2.45-6.667-3.65-9.1c-0.767-1.533-4.4-4.55-10.9-9.05
		c-1.2-0.867-5.75-3.9-13.65-9.1c-2.4-1.6-4.783-3.833-7.15-6.7c-1.034-1.267-3.184-4.184-6.45-8.75
		c-3.033-4.233-9.4-11.2-19.1-20.9c-1.9-1.933-4.233-5.933-7-12c-2.867-6.8-4.767-11.267-5.7-13.4
		c-1.267-3.033-3.45-12.083-6.55-27.15c-3.033-14.6-4.783-24.333-5.25-29.2c-0.6-6.066-1.2-20.3-1.8-42.7l5.45,10.9l3.6,41.8
		l2.85,13.05c2.267,9.833,4.35,17.6,6.25,23.3c1.733,5.133,5.633,11.483,11.7,19.05c8.4,10.433,13.883,17.7,16.45,21.8
		c4.633,7.333,10.267,12.633,16.9,15.9c2.267,1.1,4.934,2.1,8,3c1.667,0.5,3.967,1.167,6.9,2c3.433,1.133,6.883,2.684,10.35,4.65
		c1.733,0.967,3.133,1.833,4.2,2.6l3.6-25.4c0.6-4.267,0.9-12.15,0.9-23.65C242,115.617,242.2,105.633,242.6,91.4z"/>
	<path style="fill-rule:evenodd;clip-rule:evenodd;fill:#322406;" d="M429.15,99.55c0.666-6.833,1.149-11.183,1.449-13.05
		c0.667-3.967,1.4-5.367,2.2-4.2c0.7,1.067,0.934,3.534,0.7,7.4c-0.467,7.033-0.7,11.533-0.7,13.5c0,7.867-0.149,14-0.45,18.4
		c-0.533,7.6-1.6,14.183-3.199,19.75c-1.2,4.233-2.867,10.133-5,17.7c-2.034,6.367-4.601,12.267-7.7,17.7
		c-2.934,5.133-7.9,9.417-14.9,12.85c-7.934,3.267-13.566,5.95-16.899,8.05c-4.167,2.667-7.233,4.983-9.2,6.95l-1.7,2.15l1.8,22.7
		c0.134,1.433,1.617,12.633,4.45,33.6c2.5,18.534,3.75,30.65,3.75,36.35c0,4.867-0.233,16.717-0.7,35.55
		c-0.3,17.833-0.066,29.899,0.7,36.2c0.7,5.933-0.017,20.699-2.15,44.3c-2.633,28.967-4.05,46-4.25,51.1
		c-0.267,7.733,0.15,19.351,1.25,34.851c1.034,14,1.233,24.483,0.601,31.449c-1.5,16.233-2.384,26.5-2.65,30.801
		c-0.633,11.033-0.366,18.333,0.8,21.899c1.167,3.434,3.117,6.5,5.851,9.2c1.633,1.566,4.333,3.917,8.1,7.05
		c4.5,4.2,9.851,7.867,16.05,11c1.233,0.601,5.284,2.717,12.15,6.351c6.833,3.5,11.566,5.616,14.2,6.35
		c2.467,0.7,1.75,0.934-2.15,0.7c-7.066-0.467-11.2-0.7-12.399-0.7c-4.834,0-8.317-0.033-10.45-0.1
		c-3.533-0.134-6.101-0.4-7.7-0.801c-1.333-0.333-2.884-0.633-4.65-0.899c-2.3-0.333-4.083-0.634-5.35-0.9
		c-1.9-0.399-4.283-0.517-7.15-0.35l-3.75,0.35l0.9,4.5l3.2,4c2.1,2.867,3.149,4.867,3.149,6c0,0.7-0.066,1.084-0.199,1.15
		c-0.134,0.066-0.584-0.033-1.351-0.3c-3.133-1-6.8-1.717-11-2.15c-4.8-0.5-7.533-1.233-8.2-2.2c-0.199-0.5-0.399-0.866-0.6-1.1
		c-0.333-0.367-1.083-0.65-2.25-0.851c-2.267-0.366-4.767-2.149-7.5-5.35l-3.4-4.65c-4.233-2.399-7.866-4.216-10.899-5.449
		c-1.867-0.733-3.434-0.634-4.7,0.3c-0.867,0.667-2.783,2.25-5.75,4.75c-2.133,1.5-3.767,2-4.9,1.5
		c-1.533-0.634-3.083-0.684-4.65-0.15c-2.267,0.767-5.067,1-8.4,0.7l-4.3-0.7l16.35-16.35c1.667-1.667,2.65-5.2,2.95-10.601
		c0.333-6.033,0.867-9.783,1.6-11.25c0.733-1.5,1.85-5.366,3.35-11.6c1.4-5.967,2.867-10.3,4.4-13c1.5-2.733,3.9-14.767,7.2-36.1
		c3.566-23.301,5.85-36.667,6.85-40.101c1.533-5.333,3.05-11.2,4.55-17.6c1.8-7.934,3.3-14.483,4.5-19.65
		c1.3-5.467,1.866-18.633,1.7-39.5c-0.134-20.934,0.217-33.2,1.05-36.8c1-4.3,1.717-19.066,2.15-44.3
		c0.466-27.367,0.966-43.483,1.5-48.35c0.767-7.2-0.517-24.333-3.851-51.4l-5.25-38.5c-2.434-28.467-3.95-48.15-4.55-59.05
		c-0.366-6.8-0.483-17.333-0.35-31.6l0.35-19.3c0.8-4.5,1.483-11.05,2.05-19.65c0.467-7.2,0.7-13.067,0.7-17.6
		c0-4.833,0.9-13.6,2.7-26.3c1.833,17.533,2.75,28.733,2.75,33.6v46.3c0,4.633,0.75,13.383,2.25,26.25s2.25,22.283,2.25,28.25
		c0,7.2,0.767,16.167,2.3,26.9c0.733,5.4,1.483,10.067,2.25,14l13.4-4.55c9.399-3.333,15.233-5.75,17.5-7.25
		c2.566-1.7,5.933-5.784,10.1-12.25c3.9-6.034,6.583-11.034,8.05-15c1.233-3.3,2.983-11.55,5.25-24.75
		C427.333,113.8,428.616,105.083,429.15,99.55z"/>
	<path style="fill-rule:evenodd;clip-rule:evenodd;fill:#322406;" d="M519.05,40.5c0-3.4-0.75-8.35-2.25-14.85l-2.25-8.75l6.351,10
		c2.666,4.2,4.699,14.6,6.1,31.2c0.767,8.867,1.45,19.967,2.05,33.3c0.3,4.233,1.017,12.783,2.15,25.65
		c1,11.833,1.5,19.934,1.5,24.3c0,0.233-1.05,10.75-3.15,31.55c-1.767,17.233-1.934,29.117-0.5,35.65
		c1.7,7.6,2.884,19.067,3.55,34.4c0.567,13.633,0.601,25.783,0.101,36.45c-0.334,7.333-0.3,19.567,0.1,36.7
		c0.533,21.367,0.8,34.266,0.8,38.7c0,8.167,0.767,21.334,2.301,39.5c1.5,18.167,2.25,28.617,2.25,31.351
		c0,7.267,0.3,39.066,0.899,95.399c0,3.233,0.767,8.567,2.3,16c1.5,7.4,2.25,12.05,2.25,13.95c0,3.8,0.033,6.566,0.101,8.3
		c0.133,2.667,0.399,5.65,0.8,8.95c0.4,3.167,1.566,6.25,3.5,9.25c0.566,0.833,2.434,3.2,5.6,7.1c2.4,3.034,5.417,6.684,9.051,10.95
		h-10.9c-4.233,0-7.55-0.316-9.95-0.95c-1.6-0.399-3.684-0.466-6.25-0.199c-0.899,0.066-3.667,0.449-8.3,1.149
		c-2.634,0.367-4.033,1.084-4.2,2.15c-0.066,0.533,0.117,1.017,0.55,1.45l-5.449-0.9c-2.034-0.333-3.967-1.283-5.801-2.85
		c-2.199-1.867-3.899-3.033-5.1-3.5c-2.967-1.2-5.2-2.033-6.7-2.5c-2.366-0.767-4.366-1.15-6-1.15c-1.166,0-2.5,0.684-4,2.05
		c-1.8,1.634-3.8,2.767-6,3.4c-2.633,0.767-6.3,1-11,0.7l-6.25-0.7c6.667-4.233,11.517-7.867,14.55-10.9
		c2.467-2.5,5.117-5.566,7.95-9.2c3.101-4,5.283-7.283,6.55-9.85c0.534-1.066,1.717-4.25,3.551-9.55
		c1.6-4.667,3.449-8.75,5.55-12.25c2.434-4.033,4.066-7.367,4.899-10c0.367-1.167,0.851-3.601,1.45-7.3
		c0.233-1.367,0.566-11.351,1-29.95c0.467-18.834,1.05-30.65,1.75-35.45c0.7-5,0.167-19.866-1.6-44.6
		c-1.967-27.367-2.95-41.567-2.95-42.601c0-4.133,0.917-22.783,2.75-55.95l2.7-48.5c-7.867-12.1-13.017-20.267-15.45-24.5
		c-1.6-2.767-4.9-9.583-9.9-20.45c-4.033-8.767-7.1-15.583-9.199-20.45c-3.634-8-6.767-15.034-9.4-21.1
		c-5.1-11.6-8.017-19.1-8.75-22.5c-0.8-3.667-1.134-11.233-1-22.7c0.1-10.133,0.434-17.7,1-22.7c0.366-3.4,1.233-12.9,2.6-28.5
		l1.95-22.4l2.3,5.8c1.5,4.1,2.25,6.717,2.25,7.85c0,1.733-0.383,7.033-1.149,15.9c-0.867,9.933-1.7,17.95-2.5,24.05
		c-0.834,6.367-1.351,11.633-1.55,15.8c-0.167,2.966-0.25,8-0.25,15.1c0,5.967,2.616,15.317,7.85,28.05
		c4.833,11.8,9.483,20.917,13.95,27.35c5.434,7.867,15.116,23.316,29.05,46.35c-0.6-9.533-0.9-21.117-0.9-34.75
		c0-27.267,1.517-51.117,4.551-71.55c2.966-20.033,3.566-41.417,1.8-64.15c-0.434-5.6-1.217-13.217-2.351-22.85
		C519.483,47.75,519.05,42.833,519.05,40.5z"/>
	<g>
		<path style="fill-rule:evenodd;clip-rule:evenodd;fill:#291D05;" d="M81.7,615.5l-1.5,3.3c-1.067,2.434-1.784,4.217-2.15,5.351
			c-0.267,0.866-0.5,1.899-0.7,3.1l-4.05-1.75H63.05c-4.066,1.367-7.466,2.05-10.2,2.05c-8.633,0-14.317-0.233-17.05-0.7
			c-0.8-0.133-1.117-0.283-0.95-0.449c8.233,0.899,14,0.75,17.3-0.45c4.267-1.5,8.367-3.167,12.3-5H58.5
			c0.933-0.467,1.7-0.917,2.3-1.351c2.367-1.732,3.867-2.833,4.5-3.3c0.9-0.633,1.817-1.05,2.75-1.25c1.534-0.3,3.5-0.3,5.9,0
			l0.8,1.15c0.767,0.767,1.717,1.149,2.85,1.149s2.167-0.3,3.1-0.899L81.7,615.5z"/>
		<path style="fill-rule:evenodd;clip-rule:evenodd;fill:#291D05;" d="M64.8,49.8l0.1-2.6c0.567-0.633,0.833-1.417,0.8-2.35
			c-0.1-1.633-0.15-3.283-0.15-4.95c0.934-8.367,2.85-18.3,5.75-29.8l0.3-0.6l0.75-2.1c0.433,0.267,0.867,0.45,1.3,0.55
			c-2.533,19.2-3.1,31.566-1.7,37.1c1.033,4.167,2.566,17.767,4.6,40.8c2.1,23.967,3.284,36.717,3.55,38.25
			c0.433,2.333,2.783,9.233,7.05,20.7c4.167,11.034,6.367,17.75,6.6,20.15c0.167,1.6,2.15,10.55,5.95,26.85
			c3.533,15.2,5.183,23.967,4.95,26.3c-0.333,2.867,0.2,13.767,1.6,32.7c1.367,18.267,2.417,29.85,3.15,34.75
			c0.767,4.967,2.1,16.517,4,34.65c2,19.166,3.167,31.916,3.5,38.25c0.434,9.066,0.65,31.316,0.65,66.75
			c0,3.434-0.167,11.783-0.5,25.05c-0.2,12.4-0.033,20.4,0.5,24c0.467,2.934,0.817,10.717,1.05,23.35c0.2,11.9,0.533,18.65,1,20.25
			c0.833,2.867,1.35,9.917,1.55,21.15c0.233,12.033-0.283,19.75-1.55,23.15c-1.3,3.633-2.2,6.866-2.7,9.699
			c-0.467,2.601-0.7,5.5-0.7,8.7v12.95c0,1.6-0.2,3.917-0.6,6.95c-0.1,2.566,0.55,4.566,1.95,6c0.133,0.133,1.767,1.667,4.9,4.6
			c1.667,1.567,2.767,2.75,3.3,3.55c0.533,0.834,1.433,1.967,2.7,3.4c0.8,0.934,2.4,2.75,4.8,5.45
			c2.733,3.167,6.133,7.25,10.2,12.25c-2.733,0-5.684-0.45-8.85-1.351c-1.867-0.533-3.65-1.1-5.35-1.699
			c-2.9-1.033-4.517-1.601-4.85-1.7l-6.85-2.05l-8.85-0.7c-1.367,0.934-4.083,1.85-8.15,2.75c-2.566,0.566-5.617,1.184-9.15,1.85
			l-14,2.9c-5.933,1.366-8.217,1.6-6.85,0.7l6.85-4.101l0.4-2.899c1.833-0.634,3.133-1.334,3.9-2.101l7.7-6.8
			c-1.2,2.434-1.35,3.5-0.45,3.2c1.167-0.4,2.533-1.767,4.1-4.101c0.367-0.566,1.017-1.866,1.95-3.899l1.25-2.9l0.45,7.7
			c0.6-3.633,1.35-7.116,2.25-10.45c0.566-2.066,0.966-5.333,1.2-9.8l0.15-6.1c-0.3-0.9-0.3-6.2,0-15.9
			c0.3-9.667,0.45-20.717,0.45-33.15c0-0.6,0.267-1.383,0.8-2.35c0.833-1.5,1.784-5.7,2.85-12.6c1.133-7.4,1.934-14.551,2.4-21.45
			l0.35-8.101l0.15,13.601c0.1,9.467,0.05,15.233-0.15,17.3c-0.333,3.333-0.5,5.9-0.5,7.7c3.033-17.867,4.55-29.517,4.55-34.95
			c0-3.4-0.15-7.533-0.45-12.4l-0.45-6.25l-4.55-23.6l-0.45,26.35c-1.5-17.866-2.25-28.316-2.25-31.35
			c-0.367-5.066-0.6-9.767-0.7-14.1c-0.133-8.267,0.55-15.217,2.05-20.851c1.533-5.7,2.667-11.566,3.4-17.6l0.7-7.4L105.3,358
			c-1.2-13.033-1.8-21.517-1.8-25.45c0-2.467,0.767-0.333,2.3,6.4c0.733,3.366,1.483,6.983,2.25,10.85
			c-0.3-8.467-0.45-15.733-0.45-21.8c0-3.5-0.6-8.85-1.8-16.05c-1.233-7.2-1.85-11.083-1.85-11.65c0-0.366-1.05-11.45-3.15-33.25
			c-2.133-21.8-3.2-34.933-3.2-39.4c0-4.733-0.15-9.333-0.45-13.8l-0.45-5.3l-1.4,11.35c-0.9-11.8-1.35-19.217-1.35-22.25
			c0-1.633-0.8-6.133-2.4-13.5c-1.767-8.233-2.783-13.417-3.05-15.55c-0.367-3.033-1.617-7.65-3.75-13.85l-3.05-8.4
			c-0.3,9.066-0.45,12.1-0.45,9.1c0-2.3-0.433-6.367-1.3-12.2c-0.9-5.9-1.684-9.867-2.35-11.9c-0.633-1.9-1.467-3.3-2.5-4.2
			c-0.7-0.667-1.983-1.383-3.85-2.15l-1.3-0.7l-1.45-5.65c-2.5-0.467-5.183-1.117-8.05-1.95c-5.8-1.733-9.7-3.583-11.7-5.55
			c-1.067-1.1-3.067-2.65-6-4.65c-2.433-1.667-4.083-3.167-4.95-4.5c1.034,0.967,1.883,1.667,2.55,2.1
			c1.833,1.233,4.417,2.45,7.75,3.65l2.6,2.15c2.1,1.533,4.1,2.483,6,2.85c3.033,0.6,5.917,0.9,8.65,0.9l-7.75-4.55l4.1,0.9
			l4.55-0.45c0.9-0.3,1.5-0.9,1.8-1.8c0.567-1.667,1.233-3.933,2-6.8c1.1-4.1,1.65-6.833,1.65-8.2L71.25,78.2
			c-0.133-1.9-0.333-3.717-0.6-5.45c-0.533-3.467-1.083-4.817-1.65-4.05c-0.467,0.6-0.7,1.7-0.7,3.3c0,0.4-0.033,0.533-0.1,0.4
			c-0.034-0.133-0.233-0.767-0.6-1.9c-0.567-1.9-0.967-4.367-1.2-7.4l-0.15-3.95L64.8,49.8z"/>
		<path style="fill-rule:evenodd;clip-rule:evenodd;fill:#291D05;" d="M58.5,620.95c-1.067,0.467-1.917,0.616-2.55,0.45l-0.6-0.45
			H58.5z"/>
	</g>
	<path style="fill-rule:evenodd;clip-rule:evenodd;fill:#291D05;" d="M247,97.75v-11.8c-0.6-7.867-0.9-14.983-0.9-21.35
		c0-2.9-0.4-5.633-1.2-8.2c1.1-8.933,2.567-21.8,4.4-38.6c1.2,14.534,1.8,26.95,1.8,37.25c0,5.167,0.267,23.15,0.8,53.95
		c0.434,30.033,0.467,48.683,0.1,55.95c-0.367,7.367-0.483,20.433-0.35,39.2c0.1,10.067,0.217,23.35,0.35,39.85
		c0,7.8,0.5,22.25,1.5,43.35c0.533,11.367,1.25,26.283,2.15,44.75c0.233,5.634,0.117,27.551-0.35,65.75
		c-0.433,35.967-0.316,57.65,0.35,65.051c0.6,6.699,0.6,23.017,0,48.949c-0.6,25.834-0.6,41.917,0,48.25
		c0.733,7.601,2.4,14.217,5,19.851c0.067,0.133,1.033,2.066,2.9,5.8c1.034,2.033,1.733,3.783,2.1,5.25
		c1.067,4.233,1.85,7.033,2.35,8.4c0.8,2.033,1.833,3.467,3.1,4.3c1.8,1.2,7.85,4.533,18.15,10l-10-0.9
		c-3.833-0.333-7.283-0.149-10.35,0.55c-3.467,0.834-5.767,1.25-6.9,1.25c-2.267,0-4.517,0.067-6.75,0.2l-2.65,0.2
		c-4.033,0.934-8.467,1.4-13.3,1.4c-2.267,0-4.417-0.334-6.45-1c-2.467-0.834-5.767-1.4-9.9-1.7c-3.934-0.3-5.9-0.367-5.9-0.2
		c0,0.434-1.966,0.8-5.9,1.1c-5.333,0.4-9.95,0.5-13.85,0.301c2.467-0.334,5.417-1.334,8.85-3c3.6-1.801,6.017-2.95,7.25-3.45
		c1.767-0.733,3.283-1.101,4.55-1.101c1.8,0,3.617-0.149,5.45-0.449l-0.45,2.699h6.8l1.35-4.55l0.5-4.05l1.8,6.35l1.6,0.75
		c1.2,0.5,2.183,0.851,2.95,1.051c0.6,0.166,1.466,0.399,2.6,0.699c0.867,0.101,1.5-0.133,1.9-0.699
		c0.933-1.334,1.4-2.851,1.4-4.551c0-1.366-0.617-4.383-1.85-9.05c-0.367-1.533-0.433-2.767-0.2-3.7l0.45-0.949l6.6,9.6l-2.75-10.4
		l-2.25-15c-0.067-0.767-0.017-2.283,0.15-4.55c0.4-4.533,1.25-10.583,2.55-18.149c1.333-7.634,2.2-16.2,2.6-25.7
		c0.1-2.934,0.15-7.4,0.15-13.4l0.45-31.3l-2.15,9.85c-1.533,7.267-2.483,12.601-2.85,16c-0.6,5.467-2.867,15.018-6.8,28.65
		c3-22.733,4.816-37.566,5.45-44.5c1.2-13.934,1.8-26.65,1.8-38.15c0-2.5-0.05-6.883-0.15-13.149
		c-0.066-3.367-0.017-6.717,0.15-10.05c0.133-2.5-0.017-6.434-0.45-11.801c-0.467-5.733-0.617-11.483-0.45-17.25
		c0.2-6.633,0.333-12.716,0.4-18.25l0.05-6.3L242.7,394.4c-1.367,11.866-2.05,18.649-2.05,20.35c0,2.733-0.15,8.8-0.45,18.2
		c-0.3-5.667-0.567-11.667-0.8-18c-0.433-12.667-0.467-20.601-0.1-23.8c0.3-2.601,0.65-6.25,1.05-10.95
		c0.367-3.9,0.617-6.3,0.75-7.2c0.5-3.033,1.233-8.75,2.2-17.15c1.267-10.733,1.9-18.05,1.9-21.949c0-3.767,0.083-8.684,0.25-14.75
		l0.2-7.95l1.3,8.5c0.933,6.267,1.517,10.85,1.75,13.75c0.167-8.833,0.066-14.883-0.3-18.15c-0.533-2.566-0.883-4.267-1.05-5.1
		c-0.233-1.233-0.35-4.983-0.35-11.25c0-5-0.433-14.617-1.3-28.85c-0.8-13.067-1.117-21.317-0.95-24.75
		c0.2-4.167,0.183-9.567-0.05-16.2l-0.4-8.75l-4.1,25.4c-0.3,2.133-0.45-2.55-0.45-14.05v-14.1c-0.767-1.066-1.517-2.183-2.25-3.35
		c-1.533-2.333-2.3-3.783-2.3-4.35c0-0.567-0.15-1.95-0.45-4.15l-0.45-3.15l-2.25-1.25v-1c-1.233-3.633-2.45-6.667-3.65-9.1
		c-0.767-1.533-4.4-4.55-10.9-9.05c-1.2-0.867-5.75-3.9-13.65-9.1c-2.4-1.6-4.783-3.833-7.15-6.7
		c-1.034-1.267-3.184-4.184-6.45-8.75c-3.033-4.233-9.4-11.2-19.1-20.9c-1.967-2-4.333-6.05-7.1-12.15
		c1.867,0.867,5.017,3.067,9.45,6.6c3.767,2.967,6.317,5.117,7.65,6.45c0.434,0.433,2.05,2.483,4.85,6.15
		c2.6,3.4,4.317,5.45,5.15,6.15c1.5,1.2,4.833,4.683,10,10.45l11.35,5.9c-1.733-0.167-3.417-0.283-5.05-0.35
		c-3.267-0.167-4.617-0.05-4.05,0.35l20.45,13.6l12.7,4.1l0.05,2.45c0.233,1.6,0.833,2.3,1.8,2.1c0.934-0.2,1.667-1.467,2.2-3.8
		l0.5-3.5l1.85,0.45l0.9,6.85c0.167,0.233,0.316,0.217,0.45-0.05c0.3-0.533,0.45-2.033,0.45-4.5c0-1.667,0.05-3.3,0.15-4.9
		c0.067-0.733,0.017-1.683-0.15-2.85c-0.1-0.633-0.383-0.233-0.85,1.2c-0.233,0.767-0.6,1.9-1.1,3.4
		c-0.633,1.633-0.133-3.533,1.5-15.5c2.434-16.4,3.967-26.9,4.6-31.5c0.934-6.7,1.217-11.633,0.85-14.8L247,97.75z"/>
	<g>
		<path style="fill-rule:evenodd;clip-rule:evenodd;fill:#291D05;" d="M361,65.95l0.95-5.15v33.3c0,4.633,0.75,13.383,2.25,26.25
			s2.25,22.283,2.25,28.25c0,9.4,1.283,21.75,3.85,37.05l-0.649,1.55c-1.067,0.933-2.167,1.283-3.301,1.05
			c-2.267-0.433-3.583-3.5-3.949-9.2c-0.301-4.466-0.884-10.7-1.75-18.7c-0.667-6.434-1-10.5-1-12.2
			c-0.067-3.333-0.101-6.083-0.101-8.25c0-3.9,0.184-8.117,0.55-12.65c0.367-4.6,0.567-7.567,0.601-8.9
			c0.066-3.867,0.166-9.217,0.3-16.05C361.3,88.667,361.3,76.55,361,65.95z"/>
		<path style="fill-rule:evenodd;clip-rule:evenodd;fill:#291D05;" d="M382.55,194.8c6.9-2.2,11.384-3.966,13.45-5.3
			c2.1-1.333,4.316-3.167,6.65-5.5c1.166-1.2,2.116-2.25,2.85-3.15l12.3-20.9c1.434-1.967,2.967-4.6,4.601-7.9
			c3.233-6.566,5.333-13.167,6.3-19.8c1.1-7.8,2.467-18.483,4.1-32.05v3c0,7.867-0.149,14-0.45,18.4
			c-0.533,7.6-1.6,14.183-3.199,19.75c-1.2,4.233-2.867,10.133-5,17.7c-2.034,6.367-4.601,12.267-7.7,17.7
			c-2.934,5.133-7.9,9.417-14.9,12.85c-7.934,3.267-13.566,5.95-16.899,8.05c-4.167,2.667-7.233,4.983-9.2,6.95l-1.7,2.15l1.8,22.7
			c0.134,1.433,1.617,12.633,4.45,33.6c2.5,18.534,3.75,30.65,3.75,36.35c0,4.867-0.233,16.717-0.7,35.55
			c-0.3,17.833-0.066,29.899,0.7,36.2c0.7,5.933-0.017,20.699-2.15,44.3c-2.633,28.967-4.05,46-4.25,51.1
			c-0.267,7.733,0.15,19.351,1.25,34.851c1.034,14,1.233,24.483,0.601,31.449c-1.5,16.233-2.384,26.5-2.65,30.801
			c-0.633,11.033-0.366,18.333,0.8,21.899c1.167,3.434,3.117,6.5,5.851,9.2c1.633,1.566,4.333,3.917,8.1,7.05
			c4.5,4.2,9.851,7.867,16.05,11c1.233,0.601,5.284,2.717,12.15,6.351c6.833,3.5,11.566,5.616,14.2,6.35
			c2.467,0.7,1.75,0.934-2.15,0.7c-7.066-0.467-11.2-0.7-12.399-0.7c-4.834,0-8.317-0.033-10.45-0.1
			c-3.533-0.134-6.101-0.4-7.7-0.801c-1.333-0.333-2.884-0.633-4.65-0.899c-2.3-0.333-4.083-0.634-5.35-0.9
			c-1.9-0.399-4.283-0.517-7.15-0.35l-3.75,0.35l0.9,4.5l3.2,4c2.1,2.867,3.149,4.867,3.149,6c0,0.7-0.066,1.084-0.199,1.15
			c-0.134,0.066-0.584-0.033-1.351-0.3c-3.133-1-6.8-1.717-11-2.15c-4.8-0.5-7.533-1.233-8.2-2.2c-0.199-0.5-0.399-0.866-0.6-1.1
			c-0.333-0.367-1.083-0.65-2.25-0.851c-2.267-0.366-4.767-2.149-7.5-5.35l-3.4-4.65c-4.233-2.399-7.866-4.216-10.899-5.449
			c-1.867-0.733-3.434-0.634-4.7,0.3c-0.867,0.667-2.783,2.25-5.75,4.75c-2.133,1.5-3.767,2-4.9,1.5
			c-1.533-0.634-3.083-0.684-4.65-0.15c-1.7,0.533-3.684,0.8-5.95,0.8l1.85-0.35l12.75-10.45l4.5-4.55
			c0.767-0.733,1.75-2.083,2.95-4.05l1.6-2.75l0.45,4.05l2.75,0.95c0.533-0.9,1.083-2,1.65-3.3c1.133-2.567,1.8-4.801,2-6.7
			c0.067-0.767,0.1-2.167,0.1-4.2c0-1.133,0.267-2.767,0.8-4.9c0.4-1.533,0.883-4.05,1.45-7.55c0.367-2.133,0.633-2.95,0.8-2.45
			c0.267,0.768,0.699,3.534,1.3,8.301c0.666,5.033,1,8.483,1,10.35c0,2.5,0.033,4.217,0.1,5.15c0.134,1.5,0.4,2.649,0.8,3.449
			c0.301,0.634,0.983,1.667,2.051,3.101c0.966,1.566,1.649,3.267,2.05,5.1c0.6,3.033,1.8,6.05,3.6,9.05l1.25,0.45
			c1.233,0.601,2.783,1.667,4.65,3.2c2.399,1.934,4.083,3.25,5.05,3.95c1.134,0.8,2.033,1.3,2.7,1.5
			c0.566,0.2,1.033-0.5,1.399-2.101l0.4-2.449l-3.65-13.15l-0.449-5l2.3,0.45l-6.351-13.15l-2.75-13.2l0.45-20.449l4.101,15.449
			c0.1-2.199,0.149-4.666,0.149-7.399c-0.033-5.467-0.35-9.517-0.95-12.15c-0.399-1.7-0.149-3.933,0.75-6.7
			c1.233-3.866,1.851-9.5,1.851-16.899c0-8.3-0.217-17.833-0.65-28.601l-0.7-13.6l-1.35-13.2l-1.15,12.15
			c-0.767,8.333-1.149,13.066-1.149,14.2c-1.2,18.467-1.95,25.733-2.25,21.8c-0.2-2.467,0.116-9.95,0.95-22.45l1.3-18l0.45-19.95
			c0.3-7.5,0.767-15.333,1.399-23.5c1.2-16.333,2.55-26.217,4.05-29.649c1.534-3.4,3.134-8.351,4.801-14.851l2.05-8.75
			c-0.634-14.233-0.95-22.866-0.95-25.899c0-2.233-0.9-1.65-2.7,1.75c-1.833,3.399-2.75,6.149-2.75,8.25c0,2.733-0.3,6.066-0.899,10
			c-0.301-3.7-0.434-7.784-0.4-12.25c0.1-8.934,1-15.301,2.7-19.101c2.1-4.166,3.366-6.967,3.8-8.399
			c0.5-1.733,0.75-5.45,0.75-11.15c0-5.3-0.533-12.333-1.6-21.1l-1.601-11.6c-0.366-3.933-0.733-8.316-1.1-13.15
			c-0.667-9.7-0.9-16.816-0.7-21.35c0.2-4.533,0.1-9.833-0.3-15.9l-2-39.95l-1.8,11.8V203.6l3.149-5.95L382.55,194.8z"/>
	</g>
	<path style="fill-rule:evenodd;clip-rule:evenodd;fill:#291D05;" d="M519.05,40.5c0-3.4-0.75-8.35-2.25-14.85l-2.25-8.75l6.351,10
		c2.666,4.2,4.699,14.6,6.1,31.2c0.767,8.867,1.45,19.967,2.05,33.3c0.3,4.233,1.017,12.783,2.15,25.65
		c1,11.833,1.5,19.934,1.5,24.3c0,0.233-1.05,10.75-3.15,31.55c-1.767,17.233-1.934,29.117-0.5,35.65
		c1.7,7.6,2.884,19.067,3.55,34.4c0.567,13.633,0.601,25.783,0.101,36.45c-0.334,7.333-0.3,19.567,0.1,36.7
		c0.533,21.367,0.8,34.266,0.8,38.7c0,8.167,0.767,21.334,2.301,39.5c1.5,18.167,2.25,28.617,2.25,31.351
		c0,7.267,0.3,39.066,0.899,95.399c0,3.233,0.767,8.567,2.3,16c1.5,7.4,2.25,12.05,2.25,13.95c0,3.8,0.033,6.566,0.101,8.3
		c0.133,2.667,0.399,5.65,0.8,8.95c0.4,3.167,1.566,6.25,3.5,9.25c0.566,0.833,2.434,3.2,5.6,7.1c2.4,3.034,5.417,6.684,9.051,10.95
		h-10.9c-4.233,0-7.55-0.316-9.95-0.95c-1.6-0.399-3.684-0.466-6.25-0.199c-0.899,0.066-3.667,0.449-8.3,1.149
		c-2.634,0.367-4.033,1.084-4.2,2.15c-0.066,0.533,0.117,1.017,0.55,1.45l-5.449-0.9c-2.034-0.333-3.967-1.283-5.801-2.85
		c-2.199-1.867-3.899-3.033-5.1-3.5c-2.967-1.2-5.2-2.033-6.7-2.5c-2.366-0.767-4.366-1.15-6-1.15c-1.166,0-2.5,0.684-4,2.05
		c-1.8,1.634-3.8,2.767-6,3.4c-2.633,0.767-6.3,1-11,0.7l-6.25-0.7l2.05-1.351l6.101-1.35l5.899-3.2l13.2-11.35
		c3.4-0.367,6.617-1.467,9.65-3.3l3.5-2.601l5.45-13.649l-1.351,22.3v6.8l3.65,3.65c0.366,0,0.75-0.117,1.149-0.351
		c0.733-0.467,1.101-1.267,1.101-2.399v-2.7l4.8,3.649c0.733,0.101,1.1-1.283,1.1-4.149v-13.15c0-3.866,0.051-6.767,0.15-8.7
		c0.2-3.3,0.6-5.85,1.2-7.649c0.133-0.367,0.633-2.15,1.5-5.351c0.366-1.267,0.633-1.449,0.8-0.55c0.3,1.5,1.967,8,5,19.5V556.9
		c-2.434-24.5-3.65-39.934-3.65-46.301c0-4.1-0.3-10.616-0.899-19.55c-0.601-8.934-0.9-12.717-0.9-11.35
		c0,0.934-1.517,3.816-4.55,8.649c1.8-12.733,2.85-20.6,3.15-23.6c0.199-1.9,0.416-6.783,0.649-14.65l0.3-11.25
		c0.301-18.166,0.301-29.517,0-34.05c-0.166-2.633-0.149-10.083,0.051-22.35c0.267-15.267,0.399-24.184,0.399-26.75
		c0-5.3-0.066-11.65-0.2-19.05l-0.25-9.55c-2.733,28.466-4.25,42.25-4.55,41.35c-0.3-0.9-0.45-15.283-0.45-43.15v-28.15L520.9,279.4
		l-7.051,16l1.601-27.8c-5.634-8.633-10.05-15.567-13.25-20.8c4.467,2.967,8.883,5.967,13.25,9l3.899,2.05
		c2.634,1.233,4.051,1.467,4.25,0.7c0.301-1.233,0.45-3.816,0.45-7.75c0-1.3-0.066-2.683-0.2-4.15l-0.25-1.75l-1.8-42.7v-23.6
		c0-2.267,0.3-8.85,0.9-19.75l0.899-15.7c1.533-10.267,2.75-17.066,3.65-20.4c0.566-2.067,0.883-6.167,0.95-12.3l-0.05-8.6
		l-4.551-6.8V95c-0.267-9.9-1.116-21.133-2.55-33.7C519.717,49.467,519.05,42.533,519.05,40.5z"/>
	<path style="fill-rule:evenodd;clip-rule:evenodd;fill:#291D05;" d="M94.2,499.4l0.65-9.7l-0.9,46.35c0,0.9,0.267,4.267,0.8,10.101
		c0.4,4.699,0.433,7.833,0.1,9.399c-0.467,2.134-0.867,5.834-1.2,11.101c-0.367,6.166-0.566,9.433-0.6,9.8
		c-0.3,2.434-1.367,6.066-3.2,10.899l-2.25,5.15c-1.8,3.733-3.467,6.25-5,7.55c-1.2,1.067-2.8,2.533-4.8,4.4
		c-1.267,1.133-1.633,1.333-1.1,0.6c0.9-1.2,2.867-6.95,5.9-17.25l3.65-19.5c0.3-0.967,0.6-2.399,0.9-4.3
		c0.6-3.8,0.9-7.967,0.9-12.5c0-2.467-0.316-5.066-0.95-7.8c-0.267-1.101,0.2-3.8,1.4-8.101c0.333-1.199,1.117-3.517,2.35-6.949
		c0.133-0.434,0.566-3.417,1.3-8.95C92.917,513.833,93.6,507.066,94.2,499.4z"/>
	<path style="fill-rule:evenodd;clip-rule:evenodd;fill:#291D05;" d="M235.75,535.75c0.833,6,0.95,10.033,0.35,12.1
		c-0.934,3.5-1.684,9.851-2.25,19.051l-0.9,16.8c-0.534-2.4-1.017-5.2-1.45-8.4c-0.833-6.333-0.967-11.399-0.4-15.2
		c0.6-3.8,1.083-7.883,1.45-12.25l1.75-20.449L235.75,535.75z"/>
	<path style="fill-rule:evenodd;clip-rule:evenodd;fill:#291D05;" d="M240.65,277.6c0.133,0.767,0.184,2.667,0.15,5.7
		c-0.1,5.1-0.15,7.75-0.15,7.95l-0.45,10.45c-0.6-3.4-1.167-7.184-1.7-11.35c-1.067-8.333-1.4-14.4-1-18.2
		c0-7.1,0.017-11.066,0.05-11.9C237.583,259.55,238.617,265.333,240.65,277.6z"/>
	<path style="fill-rule:evenodd;clip-rule:evenodd;fill:#291D05;" d="M356.6,491.45l2.601-7.65l-0.9,18.15
		c-0.166,2.8-0.217,4.95-0.149,6.45c0.1,2.833,0.149,5.083,0.149,6.75V525.6L352.4,561.45L350.1,545.1
		c0-1.133,0.134-2.683,0.4-4.649c0.533-3.934,1.467-7.983,2.8-12.15c1.2-3.833,1.5-7.683,0.9-11.55c-0.733-4.934-1.033-8.2-0.9-9.8
		C353.667,502.583,354.767,497.417,356.6,491.45z"/>
	<path style="fill-rule:evenodd;clip-rule:evenodd;fill:#291D05;" d="M522.25,506.05c0,6.467-0.55,13.3-1.65,20.5
		c-1.233,8.233-2.8,13.817-4.699,16.75c-1.7,2.634-2.067,2.45-1.101-0.55l2-5.35l2.25-10c0.533-4.567,1.066-8.884,1.601-12.95
		C521.717,506.316,522.25,503.517,522.25,506.05z"/>
	<g>
		<path style="fill-rule:evenodd;clip-rule:evenodd;fill:#1E1503;" d="M77.9,101.7c1.133,12.966,1.867,20.433,2.2,22.4
			c0.433,2.333,2.683,8.95,6.75,19.85c4.033,10.8,6.283,17.55,6.75,20.25c-0.467-1.6-0.8-2.7-1-3.3c-0.8-2.4-3.967-10.85-9.5-25.35
			c-4.267-11.233-6.4-17.633-6.4-19.2v-9.05L77.9,101.7z"/>
		<path style="fill-rule:evenodd;clip-rule:evenodd;fill:#1E1503;" d="M98.5,191.75c0-0.6-0.45-2.867-1.35-6.8
			c-0.267-1.167-0.5-2.6-0.7-4.3c-0.2-2-0.367-3.583-0.5-4.75c1.133,4.833,3.066,13.117,5.8,24.85c2.133,9.633,3.1,15.417,2.9,17.35
			c-0.333,2.867,0.2,13.767,1.6,32.7c1.367,18.267,2.417,29.85,3.15,34.75c0.767,4.967,2.1,16.517,4,34.65
			c2,19.166,3.167,31.916,3.5,38.25c0.434,9.066,0.65,31.316,0.65,66.75c0,3.434-0.167,11.783-0.5,25.05
			c-0.2,12.4-0.033,20.4,0.5,24c0.467,2.934,0.817,10.717,1.05,23.35c0.2,11.9,0.533,18.65,1,20.25
			c0.833,2.867,1.35,9.917,1.55,21.15c0.233,12.033-0.283,19.75-1.55,23.15c-1.3,3.633-2.2,6.866-2.7,9.699
			c-0.467,2.601-0.7,5.5-0.7,8.7v12.95c0,1.6-0.2,3.917-0.6,6.95c-0.1,2.566,0.55,4.566,1.95,6c0.133,0.133,1.767,1.667,4.9,4.6
			c1.667,1.567,2.767,2.75,3.3,3.55c0.533,0.834,1.433,1.967,2.7,3.4c0.8,0.934,2.4,2.75,4.8,5.45
			c2.733,3.167,6.133,7.25,10.2,12.25c-2.733,0-5.684-0.45-8.85-1.351c-1.867-0.533-3.65-1.1-5.35-1.699
			c-2.9-1.033-4.517-1.601-4.85-1.7l-6.85-2.05l-8.85-0.7c-1.367,0.934-4.083,1.85-8.15,2.75c-2.566,0.566-5.617,1.184-9.15,1.85
			l-14,2.9c-5.933,1.366-8.217,1.6-6.85,0.7c1.667,0.3,4.617-0.15,8.85-1.351c7.9-3.333,13.667-6.217,17.3-8.649
			c2.133-1.4,3.816-2.351,5.05-2.851c1.433-0.6,2.317-1,2.65-1.2c0.967-0.566,1.867-1.267,2.7-2.1l0.95-1.1l2.75,0.6
			c1.967,0.533,3.317,1.083,4.05,1.65c1.2,0.933,3.467,1.55,6.8,1.85l1.35,0.15c0.767-0.233,0.767-1.2,0-2.9l-5.4-12.7l-7.75-5
			l-1.8-4.1l0.8-13.45l0.25-19.4c-3.434,7.367-4.85,10-4.25,7.9c1.833-6.533,2.75-10.633,2.75-12.3c0-1.134,0.3-3.816,0.9-8.05
			l3.6-19.65c0.467-2.5,0.933-6.017,1.4-10.55c0.9-9.101,1.35-18.75,1.35-28.95c0-8.667-0.35-20.033-1.05-34.1
			c-0.633-12.334-0.883-20.051-0.75-23.15c0.2-4.134,0.25-7.866,0.15-11.2l-0.15-3.75c-2.733,16.934-4.25,26.017-4.55,27.25
			c-0.2,0.8-0.167-1.934,0.1-8.2c0.233-5.199,0.5-10.199,0.8-15l0.9-14.949c0.767-5.067,1.5-10.617,2.2-16.65
			c1.467-12.033,2.1-20.417,1.9-25.15c-0.2-4.733-0.55-9.333-1.05-13.8l-0.75-5.3c0-3.3,0.15-6.767,0.45-10.4
			c0.534-2.866,0.817-5.166,0.85-6.899c0.033-2.867-0.717-7.083-2.25-12.65c-1.833-6.7-3.867-18.983-6.1-36.85
			c-2.267-18.1-3.4-31.4-3.4-39.9c0-17.566-0.467-29.683-1.4-36.35L98.5,191.75z"/>
		<path style="fill-rule:evenodd;clip-rule:evenodd;fill:#1E1503;" d="M73.3,625.5H63.05c-4.066,1.367-7.466,2.05-10.2,2.05
			c2.333-0.267,4.8-1.517,7.4-3.75c2.367-2,3.767-2.95,4.2-2.85c0.7,0.167,1.316,0.217,1.85,0.149c1.034-0.1,1.767-0.149,2.2-0.149
			c1.533,0,3.083-0.316,4.65-0.95l1.75,1.85L73.3,625.5z"/>
	</g>
	<g>
		<path style="fill-rule:evenodd;clip-rule:evenodd;fill:#1E1503;" d="M217.4,182.15l10.35,5.05c1.133,0.633,1.967,1.183,2.5,1.65
			c-2.5-1.367-6.333-3.283-11.5-5.75L217.4,182.15z"/>
		<path style="fill-rule:evenodd;clip-rule:evenodd;fill:#1E1503;" d="M249.75,149.1c0.8-2.633,1.633-5.583,2.5-8.85
			c0.067,12.133-0.017,20.367-0.25,24.7c-0.367,7.367-0.483,20.433-0.35,39.2c0.1,10.067,0.217,23.35,0.35,39.85
			c0,7.8,0.5,22.25,1.5,43.35c0.533,11.367,1.25,26.283,2.15,44.75c0.233,5.634,0.117,27.551-0.35,65.75
			c-0.433,35.967-0.316,57.65,0.35,65.051c0.6,6.699,0.6,23.017,0,48.949c-0.6,25.834-0.6,41.917,0,48.25
			c0.733,7.601,2.4,14.217,5,19.851c0.067,0.133,1.033,2.066,2.9,5.8c1.034,2.033,1.733,3.783,2.1,5.25
			c1.067,4.233,1.85,7.033,2.35,8.4c0.8,2.033,1.833,3.467,3.1,4.3c1.8,1.2,7.85,4.533,18.15,10l-10-0.9
			c-3.833-0.333-7.283-0.149-10.35,0.55c-3.467,0.834-5.767,1.25-6.9,1.25c-2.267,0-4.517,0.067-6.75,0.2l-2.65,0.2
			c-4.033,0.934-8.467,1.4-13.3,1.4c-2.267,0-4.417-0.334-6.45-1c-2.467-0.834-5.767-1.4-9.9-1.7c-3.934-0.3-5.9-0.367-5.9-0.2
			c0,0.434-1.966,0.8-5.9,1.1l-1.45,0.101c2.7-0.967,5.15-1.45,7.35-1.45h21.35l0.15-0.2c0.534-0.166,1.833-0.25,3.9-0.25h6.85
			l0.9-4.55l2.7-2.3l3.65,0.5c-0.2-2.467-0.55-5.4-1.05-8.8l-2.6-12.101l2.35,2.05c1.566,1.5,2.45,2.634,2.65,3.4
			c0.333,1.3,0.333,0.467,0-2.5c-0.3-2.8-0.75-5-1.35-6.6c-0.133-0.334-1.083-1.517-2.85-3.551c-1.267-1.466-1.983-3.916-2.15-7.35
			l-0.45-8.6c-0.6,7.566-1.05,10.883-1.35,9.949c-0.3-0.899-0.45-3.05-0.45-6.449c0-4.067,0.3-7.817,0.9-11.25
			c0.633-3.567,1.117-9.017,1.45-16.351c0.267-5.6,0.533-14.233,0.8-25.899c0.133-6.5-0.067-16.334-0.6-29.5
			c-0.5-11.801-0.6-20.284-0.3-25.45c0.367-6.233,0.55-12.184,0.55-17.851l-0.1-6.649l-3.15,21.35
			c-0.3-13.633-0.45-23.934-0.45-30.899c0-4.934,0.267-12.167,0.8-21.7c0.466-8.8,0.95-15.8,1.45-21c0.367-3.967,0.7-8.5,1-13.601
			L252,360.7c0.3-4.066,0.567-8.55,0.8-13.45c0.467-9.767,0.5-16.634,0.1-20.6c-0.467-5.033-1.267-18.017-2.4-38.95
			c-1.2-21.567-1.9-36.583-2.1-45.05l-0.95-40h-3.15c-1.533,1.233-3.05,1.85-4.55,1.85c-0.933,0-2.05-0.067-3.35-0.2l-1.65-0.25
			l-3.5-5.8c-0.7-2-1.467-3.917-2.3-5.75c2.933-0.667,3.367-1.883,1.3-3.65c2.1,1.2,3.3,2.017,3.6,2.45l1.35,2.3l6.8,1.35l6.85-8.2
			c-0.233-5.067-0.367-10.433-0.4-16.1C248.35,159.317,248.783,152.133,249.75,149.1z"/>
	</g>
	<g>
		<path style="fill-rule:evenodd;clip-rule:evenodd;fill:#1E1503;" d="M366.1,632.8l6,2.9c-2.6-0.367-4.283-0.851-5.05-1.45
			C366.65,633.583,366.333,633.1,366.1,632.8z"/>
		<path style="fill-rule:evenodd;clip-rule:evenodd;fill:#1E1503;" d="M376.45,248.1l-0.15-12.05c0.7,5.5,2.2,16.567,4.5,33.2
			c1.967,14.934,2.95,24.983,2.95,30.15c0,4.867-0.233,16.717-0.7,35.55c-0.3,17.833-0.066,29.899,0.7,36.2
			c0.7,5.933-0.017,20.699-2.15,44.3c-2.633,28.967-4.05,46-4.25,51.1c-0.267,7.733,0.15,19.351,1.25,34.851
			c1.034,14,1.233,24.483,0.601,31.449c-0.367,3.967-0.934,10.101-1.7,18.4c-0.634,7.134-1.033,12.967-1.2,17.5l-0.3-7.3
			c-1.2-25.333-1.8-41.384-1.8-48.15c0-3.5-0.15-7.633-0.45-12.399s-0.45-8.351-0.45-10.75v-20.9c0-2.1-0.133-4.684-0.399-7.75
			c-0.4-4.167-0.884-5.967-1.45-5.4c-0.367,0.367-0.816,0.517-1.351,0.45c-0.566-0.1-0.983-0.434-1.25-1
			c-0.733-1.633-0.017-4.333,2.15-8.1c1.634-2.834,2.884-8.566,3.75-17.2c0.967-9.634,2.45-17.066,4.45-22.3
			c2.434-6.4,3.55-13.101,3.35-20.101c-0.733-6.866-1.1-11.517-1.1-13.949c0-3.034-0.367-7.351-1.101-12.95l-1.149-7.5
			c1.2-25.733,1.649-43.15,1.35-52.25c-0.2-5.667-0.333-10.917-0.399-15.75l-0.051-5.55L376.45,248.1z"/>
		<path style="fill-rule:evenodd;clip-rule:evenodd;fill:#1E1503;" d="M331.5,621.45c-1.367,0.967-2.45,1.533-3.25,1.7
			c-0.566,0.1-1.167,0.017-1.8-0.25l1.85-1.051c-0.133-0.666-0.116-1.416,0.05-2.25c0.4-1.666,1.45-2.883,3.15-3.649
			c1.467-0.634,3.117-1.267,4.95-1.9c1.6-0.566,2.667-0.983,3.2-1.25c1.067-0.533,1.8-0.933,2.2-1.2
			c0.566-0.399,1.05-0.916,1.45-1.55l7.25,6.8l3.2,2.301l4.55,5l1.75,2.55c1.3,1.733,2.233,2.7,2.8,2.899
			c0.101,0.034,0.067,0.2-0.1,0.5c-0.2,0.4,0.483,1.067,2.05,2l-1.05-0.25c-2.267-0.366-4.767-2.149-7.5-5.35l-3.4-4.65
			c-4.233-2.399-7.866-4.216-10.899-5.449c-1.867-0.733-3.434-0.634-4.7,0.3C336.383,617.367,334.467,618.95,331.5,621.45z"/>
		<path style="fill-rule:evenodd;clip-rule:evenodd;fill:#1E1503;" d="M374.5,587.55l-1.7-5.649l5.95,15.899l0.2,1.2
			C377.417,595.8,375.934,591.983,374.5,587.55z"/>
		<path style="fill-rule:evenodd;clip-rule:evenodd;fill:#1E1503;" d="M433.7,625.5c2.467,0.7,1.75,0.934-2.15,0.7
			c-7.066-0.467-11.2-0.7-12.399-0.7c-4.834,0-8.317-0.033-10.45-0.1c-3.533-0.134-6.101-0.4-7.7-0.801
			c-1.333-0.333-2.884-0.633-4.65-0.899c-2.3-0.333-4.083-0.634-5.35-0.9c-1.733-0.366-4.15-0.483-7.25-0.35l-1.4-2.4L378.95,599
			c2.3,4.9,4.5,7.983,6.6,9.25c2.834,1.7,5.2,2.9,7.101,3.6c0.933,0.334,1.583,0.5,1.949,0.5l1.45,1.101
			c0.533,0-0.25-1.884-2.35-5.65c-1.767-3.233-3.367-5.933-4.8-8.1l2.399,2.1c4.5,4.2,9.851,7.867,16.05,11
			c1.233,0.601,5.284,2.717,12.15,6.351C426.333,622.65,431.066,624.767,433.7,625.5z"/>
		<path style="fill-rule:evenodd;clip-rule:evenodd;fill:#1E1503;" d="M362.7,143.95c-0.066-3.467-0.017-5.85,0.149-7.15
			c0.101-1.033,0.934-3.133,2.5-6.3c0.733,7.1,1.101,13.133,1.101,18.1c0,2.833,0.133,5.983,0.399,9.45
			c-0.433-1.966-0.866-3.5-1.3-4.6c-0.467-1.167-0.767-1.417-0.899-0.75c-0.267,1.3-0.617,1.95-1.051,1.95
			c-0.5,0-0.75-0.95-0.75-2.85C362.783,148.467,362.733,145.85,362.7,143.95z"/>
		<path style="fill-rule:evenodd;clip-rule:evenodd;fill:#1E1503;" d="M378.25,198.15l7.6-1.2l-1.199,0.7
			c-4.167,2.667-7.233,4.983-9.2,6.95l-1.7,2.15c0.033-0.2-0.083-1.5-0.35-3.9c-0.134-1.233,0.433-2.2,1.699-2.9
			c1.067-0.6,0.45-0.9-1.85-0.9C372.517,199.05,374.184,198.75,378.25,198.15z"/>
	</g>
	<g>
		<path style="fill-rule:evenodd;clip-rule:evenodd;fill:#1E1503;" d="M499.55,581.9c1.8-0.9,3.617-2.117,5.45-3.65l-0.45,7.3
			l0.25,5.351c-4.666-1.767-8.083-2.65-10.25-2.65c-1.166,0-2.5,0.684-4,2.05c-1.8,1.634-3.8,2.767-6,3.4
			c-1.033,0.3-2.166,0.5-3.399,0.6c4.133-4.666,7.683-7.733,10.649-9.2c2.066-1.033,3.7-1.732,4.9-2.1
			C497.934,582.6,498.884,582.233,499.55,581.9z"/>
		<path style="fill-rule:evenodd;clip-rule:evenodd;fill:#1E1503;" d="M519.05,40.5c0-3.4-0.75-8.35-2.25-14.85l-2.25-8.75l6.351,10
			c2.666,4.2,4.699,14.6,6.1,31.2c0.767,8.867,1.45,19.967,2.05,33.3c0.3,4.233,1.017,12.783,2.15,25.65
			c1,11.833,1.5,19.934,1.5,24.3c0,0.233-1.05,10.75-3.15,31.55c-1.767,17.233-1.934,29.117-0.5,35.65
			c1.7,7.6,2.884,19.067,3.55,34.4c0.567,13.633,0.601,25.783,0.101,36.45c-0.334,7.333-0.3,19.567,0.1,36.7
			c0.533,21.367,0.8,34.266,0.8,38.7c0,8.167,0.767,21.334,2.301,39.5c1.5,18.167,2.25,28.617,2.25,31.351
			c0,7.267,0.3,39.066,0.899,95.399c0,3.233,0.767,8.567,2.3,16c1.5,7.4,2.25,12.05,2.25,13.95c0,3.8,0.033,6.566,0.101,8.3
			c0.133,2.667,0.399,5.65,0.8,8.95c0.4,3.167,1.566,6.25,3.5,9.25c0.566,0.833,2.434,3.2,5.6,7.1
			c2.4,3.034,5.417,6.684,9.051,10.95h-10.9c-4.233,0-7.55-0.316-9.95-0.95c-1.267-0.333-2.816-0.449-4.649-0.35
			c-1.301,0.066-3.217,0.283-5.75,0.65l0.399-3c0.667-1.434,1.3-3.084,1.9-4.95c1.2-3.7,1.616-6.601,1.25-8.7
			c-0.367-2.066,0.217-2.184,1.75-0.35c0.899,1,2.283,2.783,4.149,5.35c0.767,0.934,2.134,2.884,4.101,5.85
			c1.333,1.801,1.399,0.983,0.2-2.449c-2.2-6.367-3.5-10.167-3.9-11.4c-1.167-3.533-1.75-5.7-1.75-6.5
			c0-0.767-0.217-2.583-0.65-5.45l-0.699-4.1l-5.45-59.95c0-11.5-0.15-23-0.45-34.5c-0.134-5.767-0.2-15.684-0.2-29.75
			c0-13.767-0.083-23.233-0.25-28.4c-0.2-6.433-0.417-12.216-0.649-17.35l-0.301-5.8c0.334-9.4,0.65-16.217,0.95-20.45
			c0.167-2.1-0.316-11.316-1.45-27.65c-1.166-17.433-1.75-28.35-1.75-32.75c0-5.5-0.066-11.233-0.199-17.2l-0.25-7.35l-3.601,16.2
			c-2.434,10.067-3.649,13.3-3.649,9.7c0-2.767,0.199-7.184,0.6-13.25c0.366-5.067,0.467-8.217,0.3-9.45
			c-0.2-1.533-0.566-2.967-1.1-4.3l-0.75-1.6l-4.9-1.35l0.4-6.4l-2.101-3.2c1.233-0.066,2.233,0.1,3,0.5
			c1.801,0.9,4.983,1.5,9.551,1.8c2.1-13.333,3.149-22.867,3.149-28.6c0-1.633-0.316-4.767-0.95-9.4
			c-0.933-6.9-1.533-11.733-1.8-14.5c-1.566-14.4-1.7-27.483-0.399-39.25c1.3-12.1,2.216-22.383,2.75-30.85l0.399-9.1l-0.45-19.1
			c-2.399-8.566-4.066-15.15-5-19.75c-0.233-10.133-1.066-21.6-2.5-34.4C519.733,49.55,519.05,42.467,519.05,40.5z"/>
	</g>
	<g>
		<path style="fill-rule:evenodd;clip-rule:evenodd;fill:#41300A;" d="M82.85,190.15c0-7.967-1.85-20.066-5.55-36.3
			c2.167,2.867,3.55,4.917,4.15,6.15c1.066,2.1,2.517,6.033,4.35,11.8c1.567,4.967,2.067,7.633,1.5,8
			c-0.167,0.1-0.483,0.233-0.95,0.4c-0.367,0.367-0.55,1.2-0.55,2.5c0,4.066,0.9,10.183,2.7,18.35l1.35-14.95l0.35,6.9
			c0.233,5.1,0.35,8.933,0.35,11.5c0,3.2,0.317,6.95,0.95,11.25c0.667,4.533,1.483,8.267,2.45,11.2
			c0.867,2.566,1.683,15.033,2.45,37.4c0.4,11.2,0.717,22.133,0.95,32.8l2.75,19.75v15.65l-2.05-7.5v21.8
			c0,2.034,0.233,6.351,0.7,12.95c0.433,6.601,0.65,13.65,0.65,21.15c0,6.066,0.6,14.116,1.8,24.149c0.9,7.534,0.983,12.867,0.25,16
			c-3.167,13.733-4.75,26.233-4.75,37.5v10.2c0,2.7-0.434,6.367-1.3,11c-0.833,4.533-1.767,8.367-2.8,11.5
			c-0.8,2.4-1.434,6.117-1.9,11.15c-0.467,5.333-0.75,8.2-0.85,8.6c-0.233,1-0.667,0-1.3-3c-0.433-2.066-0.85-4.399-1.25-7
			c-0.1,1.4-0.15,2.917-0.15,4.55c0,1.867-0.15,4-0.45,6.4c-0.4,3.367-0.7,6.684-0.9,9.95c-0.133,2.033-0.45,5.5-0.95,10.399
			c-0.3,2.834-0.45,5.95-0.45,9.351c0,5.467-0.033,9.383-0.1,11.75c-0.066,3.767-0.25,7.35-0.55,10.75
			c-0.3,3.133-2.617,8.816-6.95,17.05c-2.167,4.134-4.316,7.95-6.45,11.45l-1.85,10.05l-2.5,6.4c-0.1-0.801-0.267-1.5-0.5-2.101
			c-0.433-1.267-0.933-1.467-1.5-0.6c-0.5,0.733-1.45,2.366-2.85,4.899c-1.633,3.067-2.733,5.067-3.3,6
			c-0.533,0.9-1.883,1.867-4.05,2.9c-1.533,0.733-3.9,1.65-7.1,2.75c3.267-2.033,6.75-4.95,10.45-8.75l4.55-5.1
			c0.8-1.601,1.767-3.733,2.9-6.4c2.267-5.333,4.25-10.7,5.95-16.1c3.633-11.4,6.65-23.067,9.05-35
			c2.6-12.867,3.9-23.217,3.9-31.051c0-7.267,1.133-17.716,3.4-31.35c1.8-10.833,3.617-19.917,5.45-27.25
			c1.6-6.333,2.633-13.967,3.1-22.9c0.2-3.966,0.3-9.966,0.3-18v-58.55c0-2.467-0.967-14.85-2.9-37.15
			c-2.2-25.466-3.5-41.25-3.9-47.35c-1.467-18.5-2.65-33.483-3.55-44.95C83.7,211.6,82.85,197.283,82.85,190.15z"/>
		<path style="fill-rule:evenodd;clip-rule:evenodd;fill:#41300A;" d="M35.8,626.85c-2.133-0.366-1.117-0.75,3.05-1.149L35.8,626.85
			z"/>
	</g>
	<path style="fill-rule:evenodd;clip-rule:evenodd;fill:#41300A;" d="M98.75,491.95c0.567-3.967,1.067-7.983,1.5-12.05l0.5-4.95
		l1.05,8.6c0.667,6.033,1,9.75,1,11.15c0,1.066,0.117,2.8,0.35,5.2c0.233,2.366,0.35,4.267,0.35,5.699
		c0,2.733-1.367,14.768-4.1,36.101l-0.2-3.4c-0.3-5.166-0.45-9.25-0.45-12.25V508.3c0-0.333-0.067-3.316-0.2-8.95
		C98.45,496.017,98.517,493.55,98.75,491.95z"/>
	<path style="fill-rule:evenodd;clip-rule:evenodd;fill:#41300A;" d="M96,586.65l-0.15,5.899c-0.233,4.2-0.633,7.017-1.2,8.45
		c-1.2,2.934-3.483,7.7-6.85,14.3c-0.9,1.8-4.15,5.884-9.75,12.25c0.267-1.467,0.617-3.066,1.05-4.8c0.867-3.5,1.733-5.917,2.6-7.25
		c0.867-1.3,2.033-2.866,3.5-4.7l5.35-6.399c0.867-0.567,2.034-3.7,3.5-9.4L96,586.65z"/>
	<path style="fill-rule:evenodd;clip-rule:evenodd;fill:#41300A;" d="M232.2,210.05l3-0.1l1.15,6.8v16.35
		c0,4.833,0.35,9.017,1.05,12.55c0.333,1.733,0.667,3,1,3.8l0.65,2.15c0.7,1.7,1.617,3.25,2.75,4.65
		c1.133,1.434,1.583,4.017,1.35,7.75c-0.133,1.867-0.367,3.6-0.7,5.2l-1.35-4.75c-0.567-2-1.533-2.934-2.9-2.8l-1.85,0.75
		l1.05,12.75c0.667,9.767,1,17.767,1,24c0,5.633,0.117,13.733,0.35,24.3c0.2,10.566,0.3,16.783,0.3,18.649
		c0,7.867-0.017,12.267-0.05,13.2c-0.3,5.533-1.183,9.767-2.65,12.7c-1.4,2.8-1.934,12.816-1.6,30.05
		c0.167,9.033,0.467,19.9,0.9,32.601c0,6.833,0.45,17.05,1.35,30.649v8.851c0,1.366-0.1,3.649-0.3,6.85
		c-0.233,3.167-0.35,6.116-0.35,8.85c0,2.5-0.133,7.784-0.4,15.851c-0.133,7.333,0.216,12.267,1.05,14.8
		c0.867,2.566,1.283,6.667,1.25,12.3c0,2.834-0.1,5.4-0.3,7.7c-0.167-1.533-0.483-3.434-0.95-5.7c-0.267-1.399-1.367-2.85-3.3-4.35
		l-2.8-1.8v8.199c0,0.867-0.8,5.217-2.4,13.051c-1.6,7.833-2.4,13.017-2.4,15.55c0,11.8-0.217,21.333-0.65,28.6
		c-0.3,4.567-0.383,7.867-0.25,9.9c0.066,1.033,0.15,1.6,0.25,1.7l-4.1-2.7l-5.45,5.45c-2.267,2.267-6.617,4.649-13.05,7.149
		l-8.95,3.05c9.633-5.899,16.583-10.75,20.85-14.55c3.467-3.066,5.4-6.583,5.8-10.55c-0.233-4.133-0.35-6.967-0.35-8.5
		c0-1.366,0.167-5.083,0.5-11.15c0.3-6.033,0.45-10.199,0.45-12.5c0-1.433,1.067-7.216,3.2-17.35c2.1-10.133,3.15-17.967,3.15-23.5
		c0-3.267,1.1-12.917,3.3-28.95c1.867-13.666,2.284-23.1,1.25-28.3c-1.133-5.566-1.333-24.217-0.6-55.95
		c1-32.333,1.5-50.316,1.5-53.95V259.45C232.95,249.783,232.7,233.317,232.2,210.05z"/>
	<g>
		<path style="fill-rule:evenodd;clip-rule:evenodd;fill:#41300A;" d="M192,147.15l-4.7-7.4c-3.633-3.167-6.583-5.883-8.85-8.15
			c-1-1-2.067-2.65-3.2-4.95c-0.967-2.033-2.183-3.566-3.65-4.6c-3.333-2.433-5.917-5.533-7.75-9.3
			c-0.7-1.433-2.417-6.05-5.15-13.85c-1.3-3.6-2.3-12.05-3-25.35c2.6,11.733,5.033,21.017,7.3,27.85
			c1.733,5.133,5.633,11.483,11.7,19.05c8.4,10.433,13.883,17.7,16.45,21.8c4.2,6.633,9.15,11.567,14.85,14.8
			c-1.4-0.333-2.633-0.65-3.7-0.95C199.167,155.233,195.733,152.25,192,147.15z"/>
		<path style="fill-rule:evenodd;clip-rule:evenodd;fill:#41300A;" d="M237.2,170.2l3.9,7.7c-2.733-0.9-5-2.033-6.8-3.4
			c-6.8-5.433-12.017-9.517-15.65-12.25l-0.8-0.6l5.1,1.5C227.883,164.817,232.633,167.167,237.2,170.2z"/>
	</g>
	<path style="fill-rule:evenodd;clip-rule:evenodd;fill:#41300A;" d="M353.75,128.65c-0.167-3.033-0.283-7.133-0.35-12.3l0.1,0.25
		c0.467,1.6,0.85,5.367,1.15,11.3c0.399,8.4,0.933,15.767,1.6,22.1c0.6,5.667,1.65,12.3,3.15,19.9c1.066,5.467,1.6,10.4,1.6,14.8
		c0,4.6,1.083,13.8,3.25,27.6c2.5,15.934,3.917,25.817,4.25,29.65c0.6,6.7,1.233,18.883,1.9,36.55
		c0.566,15.667,0.85,25.967,0.85,30.9c0,1.934,0.116,6.083,0.35,12.45c0.2,6.333,0.301,12.167,0.301,17.5
		c0,5.967-0.45,11.167-1.351,15.601c-0.434,2.233-0.883,3.85-1.35,4.85l-0.351,5.65c-0.233,4.767-0.35,9.7-0.35,14.8
		c0,4.3-0.45,13.833-1.35,28.6c-0.9,14.767-1.351,23.634-1.351,26.601c0,5.233-0.283,9.483-0.85,12.75
		c-0.7,4-2.017,7.916-3.95,11.75c-1.7,3.434-2.5,8.434-2.4,15c0.034,3.3,0.233,6.25,0.601,8.85l-1.45,2.3
		c-1.233,2.134-2.417,4.767-3.55,7.9c-1.233,3.4-2.367,11.05-3.4,22.95c-0.899,10.467-1.35,18.95-1.35,25.45
		c0,4.333-1.367,10.35-4.1,18.05c-2.733,7.733-4.1,11.7-4.1,11.899v10.25c0,1.7-0.333,3.334-1,4.9c-0.367,0.8-0.717,1.434-1.05,1.9
		l-4.75-4.801l-0.65,3.75c-0.466,2.733-0.7,4.667-0.7,5.801c0,1.833-1.15,5.25-3.45,10.25l-2.05,1.699
		c-1.767,1.334-3.567,2.584-5.4,3.75l3.4-3.399c1.667-1.667,2.65-5.2,2.95-10.601c0.333-6.033,0.867-9.783,1.6-11.25
		c0.733-1.5,1.85-5.366,3.35-11.6c1.4-5.967,2.867-10.3,4.4-13c1.5-2.733,3.9-14.767,7.2-36.1c3.566-23.301,5.85-36.667,6.85-40.101
		c1.533-5.333,3.05-11.2,4.55-17.6c1.8-7.934,3.3-14.483,4.5-19.65c1.3-5.467,1.866-18.633,1.7-39.5
		c-0.134-20.934,0.217-33.2,1.05-36.8c1-4.3,1.717-19.066,2.15-44.3c0.466-27.367,0.966-43.483,1.5-48.35
		c0.767-7.2-0.517-24.333-3.851-51.4l-5.25-38.5C355.866,159.233,354.35,139.55,353.75,128.65z"/>
	<g>
		<path style="fill-rule:evenodd;clip-rule:evenodd;fill:#41300A;" d="M510.2,549.9c-0.3,1.1-0.483,1.366-0.55,0.8
			c-0.067-0.601,0.133-1.767,0.6-3.5C510.384,548.367,510.366,549.267,510.2,549.9z"/>
		<path style="fill-rule:evenodd;clip-rule:evenodd;fill:#41300A;" d="M514.5,283.9c2.133,5.067,3.2,8.8,3.2,11.2
			c0,1.833,0.399,9.867,1.2,24.1c0.433,15.399-0.2,28.033-1.9,37.899c-1.7,9.934-2.533,15.717-2.5,17.351
			c0,1.033,0.167,2.05,0.5,3.05c0,2,0.684,12.267,2.05,30.8c0.667,9.233,1.333,18.283,2,27.15l-0.1,5.45
			c-0.101,3.833-0.283,6.316-0.55,7.449c-0.233,0.934-0.584,7.051-1.051,18.351c-0.467,11.2-0.8,17.133-1,17.8
			c-0.3,0.866-0.083,2.2,0.65,4c0.233,0.467,1.15,2.3,2.75,5.5c0.866,1.7,1.35,3.8,1.45,6.3c0.066,1.267,0.033,2.351-0.101,3.25
			l-2.05-2.7l-0.649,4.601c-0.467,3.6-0.7,6.833-0.7,9.7c0,3.467-0.483,7.517-1.45,12.149c-1,4.8-2.333,9.384-4,13.75
			c-0.8,2.067-1.467,4.117-2,6.15c-0.134-1-0.417-2.101-0.85-3.3l-0.551-1.5c-2.733,9.967-4.55,15.633-5.449,17
			c-0.434,0.699-1.733,2.783-3.9,6.25c-2.4,3.566-4.733,6.483-7,8.75c-1.4,1.399-3.65,2.783-6.75,4.149
			c5.134-5.967,8.667-10.899,10.6-14.8c0.534-1.066,1.717-4.25,3.551-9.55c1.6-4.667,3.449-8.75,5.55-12.25
			c2.434-4.033,4.066-7.367,4.899-10c0.367-1.167,0.851-3.601,1.45-7.3c0.233-1.367,0.566-11.351,1-29.95
			c0.467-18.834,1.05-30.65,1.75-35.45c0.7-5,0.167-19.866-1.6-44.6c-1.967-27.367-2.95-41.567-2.95-42.601
			C510,366.417,511.5,337.033,514.5,283.9z"/>
	</g>
	<path style="fill-rule:evenodd;clip-rule:evenodd;fill:#291D05;" d="M177.6,87.7l0.75,5.25c0.5,3.8,0.75,6.433,0.75,7.9
		c0,1.033,0.35,4.283,1.05,9.75c0.667,5.467,1,9.1,1,10.9c0,2.433-1.267,5.333-3.8,8.7c-2.367,3.2-5.133,5.85-8.3,7.95
		c-0.8,0.533-3.767,2.567-8.9,6.1c-3.367,2.333-5.95,4-7.75,5c-1.9,1.033-3.733,2.65-5.5,4.85c-1.033,1.3-2.733,3.533-5.1,6.7
		c-1.333,1.7-3.517,4.367-6.55,8c-2.667,3.367-4.85,6.417-6.55,9.15c-1.667,2.7-3.883,5.3-6.65,7.8
		c-1.466,1.367-3.283,2.967-5.45,4.8c-1.367,1.4-2.917,2.684-4.65,3.85c-1.967,1.333-3.784,2.233-5.45,2.7
		c-1.467,0.433-2.917,1.233-4.35,2.4c-0.7,0.6-1.267,1.15-1.7,1.65l-3-4.05c-1.133-1.5-1.434-2.967-0.9-4.4
		c0.434-1.167,0.4-1.883-0.1-2.15c-0.867-0.4-1.383-1.533-1.55-3.4v-2.65l3.8,0.5c2.833,0.333,5.1,0.5,6.8,0.5
		c1.533,0,2.517-0.117,2.95-0.35c0.933-0.533,1.8-0.917,2.6-1.15c1.667-0.467,4.167-2.183,7.5-5.15c3.1-2.767,5.467-5.25,7.1-7.45
		c2-2.6,5.533-6.583,10.6-11.95c5.7-6.034,9.233-9.267,10.6-9.7c1.233-0.433,4.15-2.5,8.75-6.2c2.4-1.933,5.2-4.25,8.4-6.95
		c5.133-4.1,8.317-6.783,9.55-8.05c3.034-2.966,4.55-5.983,4.55-9.05c0-1.267-0.167-4.317-0.5-9.15c-0.333-4.833-0.5-7.667-0.5-8.5
		L177.6,87.7z"/>
	<path style="fill-rule:evenodd;clip-rule:evenodd;fill:#291D05;" d="M137.85,141.45c2.133,1.633,3.45,2.883,3.95,3.75
		c1,1.667,2.684,3.183,5.05,4.55l-1.5,4c-0.434,1.067-1.317,1.733-2.65,2l-1.9,0.05c-1-4.367-2.183-7.566-3.55-9.6
		c-0.567-0.833-1.433-1.75-2.6-2.75c-0.9-0.733-1.533-1.667-1.9-2.8c-0.767-1.833-1.317-3.167-1.65-4c-0.6-1.467-0.9-2.816-0.9-4.05
		c0-1.733,0.066-4.133,0.2-7.2c0.133-3.2,0.233-4.333,0.3-3.4c0.233,3.2,0.767,6.517,1.6,9.95c0.7,2.867,1.35,4.933,1.95,6.2
		C134.583,138.783,135.783,139.883,137.85,141.45z"/>
	<path style="fill-rule:evenodd;clip-rule:evenodd;fill:#291D05;" d="M256.1,192.2c-0.4,0.966-1.367,3.283-2.9,6.95
		c-0.434,1.067-1.284,1.533-2.55,1.4c-0.3-0.033-1.3-0.333-3-0.9c-0.633-0.2-0.9-1.433-0.8-3.7l0.3-3.35l1.2-1.2
		c1.1-0.933,2.383-1.717,3.85-2.35c1.4-0.6,2.917-2.283,4.55-5.05c1.933-3.3,2.933-4.983,3-5.05c1.933-1.867,3.217-3.167,3.85-3.9
		c1.966-2.167,3.383-4.216,4.25-6.15c0.867-1.933,1.367-4.566,1.5-7.9v-8.25c0-2.133,0.35-4.417,1.05-6.85
		c0.8-2.3,1.284-3.717,1.45-4.25c0.2-0.633,1.017-1.917,2.45-3.85c0.733-0.966,1.434-1.867,2.1-2.7l10.1-6.55l3.65-3.2
		c2.7-2.8,4.667-5.767,5.9-8.9c1.267-3.167,1.717-5.983,1.35-8.45c-0.733-2.267-1.183-3.817-1.35-4.65l1.7,5.45
		c1.1,3.867,1.55,6.417,1.35,7.65c-0.2,1.267-0.983,2.8-2.35,4.6c-1.467,1.8-2.367,2.95-2.7,3.45c-0.767,1.2-1.9,2.583-3.4,4.15
		c-2.033,2.1-3.917,3.583-5.65,4.45c-2.7,1.333-5.733,4.867-9.1,10.6c-1.333,2.233-2,5.917-2,11.05c0,9.433-1.017,15.317-3.05,17.65
		c-0.434,0.5-2.4,3.033-5.9,7.6c-2.667,3.433-4.4,5.45-5.2,6.05C258.917,186.683,257.7,188.733,256.1,192.2z"/>
	<path style="fill-rule:evenodd;clip-rule:evenodd;fill:#291D05;" d="M338.1,158.8c3.066,1.567,6.033,2.917,8.9,4.05
		c1.667,0.667,6.033,1.333,13.1,2c-1,6.733-1.85,10.6-2.55,11.6c-0.467,0.7-2.017,0.75-4.649,0.15c-2.5-0.6-4.3-1.317-5.4-2.15
		c-1.167-0.9-2.7-2.233-4.6-4c-2.167-2-3.833-3.7-5-5.1c-0.933-1.133-4.566-3.533-10.9-7.2c-8.2-4.733-13.467-7.883-15.8-9.45
		c-3.067-2.034-8.883-5.3-17.45-9.8c-7.367-3.867-11.3-6.133-11.8-6.8c-0.867-1.2-2.25-4.133-4.15-8.8
		c-2.133-5.233-3.767-10.033-4.9-14.4c-1.033-3.9-1.45-7.25-1.25-10.05c0.467-2.7,0.7-4.9,0.7-6.6c0-2.067-0.434-3.7-1.3-4.9
		c-1.3-1.434-2.367-2.817-3.2-4.15c-1.067-1.7-1.733-7-2-15.9l-0.05-12.85c0.233,5.667,1.15,11.65,2.75,17.95
		c0.8,3.167,1.567,5.75,2.3,7.75l2.8,4.75c1.833,3.434,2.75,5.883,2.75,7.35c0,1.267,0.083,3.333,0.25,6.2
		c0.167,2.867,0.25,4.667,0.25,5.4c0,1.267,1.017,4.383,3.05,9.35c2,4.933,3.5,8.033,4.5,9.3c1.533,1.9,4.066,4.55,7.6,7.95
		c4.3,4.133,7.317,6.533,9.05,7.2c3.333,1.233,7.583,3.133,12.75,5.7c6.8,3.4,11.3,6.2,13.5,8.4
		C329.483,153.917,333.067,156.267,338.1,158.8z"/>
	<path style="fill-rule:evenodd;clip-rule:evenodd;fill:#291D05;" d="M313.2,117.95c0.167,1.2,0.716,2.466,1.65,3.8
		c0.767,1.1,1.066,2.367,0.9,3.8c-0.533,4.2-1.55,7.05-3.05,8.55c-0.6,0.6-1.417,1.783-2.45,3.55c-1.3,2.167-2,3.333-2.1,3.5
		c-0.4,0.6-1.466,0.767-3.2,0.5c-2.367-0.5-4.317-0.833-5.85-1c-1.9-0.2-3.067-0.767-3.5-1.7l-0.05-1.3l4.2-0.4
		c3.033-0.333,5.167-0.717,6.4-1.15c1.2-0.4,1.983-1.133,2.35-2.2c0.667-2,1.067-3.117,1.2-3.35c0.5-0.8,1.216-1.533,2.15-2.2
		c0.733-0.5,1.183-1.1,1.35-1.8c0.2-0.867,0.267-2.55,0.2-5.05L313.2,117.95z"/>
</g>
</svg>
