<?xml version="1.0" encoding="iso-8859-1"?>
<!-- Generator: Adobe Illustrator 15.1.0, SVG Export Plug-In . SVG Version: 6.00 Build 0)  -->
<!DOCTYPE svg PUBLIC "-//W3C//DTD SVG 1.1//EN" "http://www.w3.org/Graphics/SVG/1.1/DTD/svg11.dtd">
<svg version="1.1" id="FlashAICB" xmlns="http://www.w3.org/2000/svg" xmlns:xlink="http://www.w3.org/1999/xlink" x="0px" y="0px"
	 width="61.75px" height="70.2px" viewBox="0 0 61.75 70.2" style="enable-background:new 0 0 61.75 70.2;" xml:space="preserve">
<symbol  id="FlashAICB_x2F_Layer_37_x2F__x3C_Path_x3E_" viewBox="0.007 -12.85 7.696 12.855">
	<g id="Layer_1_9_">
		<path style="fill-rule:evenodd;clip-rule:evenodd;fill:#1F1405;" d="M7.2-1.95c0.167-0.5,0.25-1.783,0.25-3.85
			c0-0.567,0.083-1.784,0.25-3.65c0.033-1.733-0.217-2.867-0.75-3.4c-0.167,1.2-0.317,2.133-0.45,2.8C6.3-8.917,6.033-8.033,5.7-7.4
			L5.3-10C4.967-9.833,4.717-9.267,4.55-8.3c-0.2,1.066-0.4,1.75-0.6,2.05c-0.167,0.2-0.967,0.817-2.4,1.85
			c-1.2,0.833-1.7,1.367-1.5,1.6l4,2.8C5.75,0.067,6.8-0.583,7.2-1.95z"/>
	</g>
</symbol>
<symbol  id="FlashAICB_x2F_Layer_37_x2F__x3C_Path_x3E__x5F_0" viewBox="0.725 -5.35 3.175 5.35">
	<g id="Layer_1_21_">
		<path style="fill-rule:evenodd;clip-rule:evenodd;fill:#B58E53;" d="M3.7-1.75c-0.1-0.7-0.133-1.267-0.1-1.7
			C3.633-3.75,3.717-4.2,3.85-4.8c0-0.434-0.333-0.583-1-0.45l-2.125-0.1C1.067-5.239,1.359-4.972,1.6-4.55
			c0.333,0.566,0.5,1.2,0.5,1.9l0.05-0.5c0.467-0.033,0.867,0.383,1.2,1.25C3.517-1.467,3.7-0.833,3.9,0
			C3.9-0.333,3.833-0.917,3.7-1.75z"/>
	</g>
</symbol>
<symbol  id="FlashAICB_x2F_Layer_37_x2F__x3C_Path_x3E__x5F_1" viewBox="0 -16.3 21.088 16.255">
	<g id="Layer_1_8_">
		<path style="fill-rule:evenodd;clip-rule:evenodd;fill:#1F1405;" d="M20.9-0.8c0.267-0.5,0.25-1.483-0.05-2.95
			c-0.4,0.6-0.6,1.183-0.6,1.75c-0.167-0.367-0.233-0.95-0.2-1.75c0.034-0.867,0-1.467-0.1-1.8c-0.467-0.034-0.8,0-1,0.1
			c-0.2-0.433-0.6-0.966-1.2-1.6c-0.733-0.7-1.283-1-1.65-0.9c-0.233-3.9-0.967-6.55-2.2-7.95c-0.066,1.367-0.133,2.467-0.2,3.3
			c-0.1,1.567-0.383,2.517-0.85,2.85c-0.2-1.2-0.517-2.117-0.95-2.75c-0.167,0.233-0.333,0.7-0.5,1.4
			c-0.167,0.667-0.383,1.15-0.65,1.45c-0.233-0.233-0.517-0.383-0.85-0.45c-0.4-0.066-0.717-0.117-0.95-0.15
			C7.85-10.117,7.2-10.1,7-10.2c-0.5-0.233-0.717-1.15-0.65-2.75c0.066-1.833-0.017-2.95-0.25-3.35c-0.133,0.4-0.233,1.117-0.3,2.15
			C5.7-13.217,5.55-12.5,5.35-12c-0.2,0.567-0.383,0.95-0.55,1.15c-0.267,0.367-0.617,0.517-1.05,0.45c0.1,0-0.05-0.25-0.45-0.75
			c-0.4,0.8-0.783,1.267-1.15,1.4C1.983-9.683,1.267-9.65,0-9.65l9.55,5.3c2.833,0.4,5.383,1.417,7.65,3.05
			c0.233,0.167,0.6,0.45,1.1,0.85c0.467,0.3,0.917,0.434,1.35,0.4C20.15-0.05,20.567-0.3,20.9-0.8z"/>
	</g>
</symbol>
<symbol  id="FlashAICB_x2F_Layer_37_x2F__x3C_Path_x3E__x5F_10" viewBox="0 -6.5 6.552 6.501">
	<g id="Layer_1_11_">
		<path style="fill-rule:evenodd;clip-rule:evenodd;fill:#B58E53;" d="M2.75-3C2.05-2.6,1.533-2.283,1.2-2.05
			C0.567-1.617,0.167-1.2,0-0.8L3.6,0c1.533,0.033,2.467-0.75,2.8-2.35C6.667-3.583,6.583-4.967,6.15-6.5
			C5.95-5.733,5.767-5.133,5.6-4.7C5.3-3.9,4.917-3.45,4.45-3.35l-0.1-0.6c-0.3,0.4-0.55,0.7-0.75,0.9C3.267-2.717,2.983-2.7,2.75-3
			z"/>
	</g>
</symbol>
<symbol  id="FlashAICB_x2F_Layer_37_x2F__x3C_Path_x3E__x5F_11" viewBox="0 -15.15 5.825 15.15">
	<g id="Layer_1_10_">
		<path style="fill-rule:evenodd;clip-rule:evenodd;fill:#B58E53;" d="M0,0l4.45-3.2c0.033-0.566,0.167-1.533,0.4-2.9
			C5.05-7.3,5.167-8.267,5.2-9c0.033-0.467,0.167-1.45,0.4-2.95c0.2-1.233,0.267-2.216,0.2-2.95c-0.267,0.4-0.566,1.367-0.9,2.9
			v-3.15c-0.6,0.833-1.083,1.983-1.45,3.45C3.083-10.367,2.933-9.167,3-8.1L2.8-8.75c-0.233,0.3-0.45,0.867-0.65,1.7
			C1.983-6.217,1.767-5.633,1.5-5.3L1.05-5.65c-0.1,0.2-0.15,0.533-0.15,1c0.033,0.566,0.033,0.917,0,1.05c-0.033,0.4-0.2,1-0.5,1.8
			C0.167-1.033,0.033-0.433,0,0z"/>
	</g>
</symbol>
<symbol  id="FlashAICB_x2F_Layer_37_x2F__x3C_Path_x3E__x5F_1_x5F_0" viewBox="0 -7.092 4.514 7.092">
	<g id="Layer_1_20_">
		<path style="fill-rule:evenodd;clip-rule:evenodd;fill:#B58E53;" d="M2.75-3.1C3.05-2.2,3.233-1.167,3.3,0
			c0.233-1.033,0.517-2.617,0.85-4.75C4.217-4.983,4.3-5.3,4.4-5.7c0.133-0.566,0.15-0.9,0.05-1C4.117-7.167,3.4-7.217,2.3-6.85
			C1.267-6.517,0.5-6.1,0-5.6l0.9,1.25C1.567-4.75,1.967-4.1,2.1-2.4C2.2-2.533,2.417-2.767,2.75-3.1z"/>
	</g>
</symbol>
<symbol  id="FlashAICB_x2F_Layer_37_x2F__x3C_Path_x3E__x5F_2" viewBox="0 -17.5 18.363 17.502">
	<g id="Layer_1_7_">
		<path style="fill-rule:evenodd;clip-rule:evenodd;fill:#1F1405;" d="M17.25-6.15l-0.75,3c-0.267-0.6-0.8-1.533-1.6-2.8
			c-0.733-1.167-1.233-2.083-1.5-2.75c-0.1-0.267-0.217-0.6-0.35-1c-0.133-0.267-0.333-0.5-0.6-0.7c-0.1-0.1-0.25-0.15-0.45-0.15
			c-0.167-0.034-0.317-0.133-0.45-0.3c-0.2-0.267-0.367-0.816-0.5-1.65c-0.167-1.033-0.283-1.633-0.35-1.8
			c-0.1-0.367-0.267-0.9-0.5-1.6c-0.233-0.633-0.367-1.167-0.4-1.6c-0.667,1.833-1.066,4-1.2,6.5c-0.2-0.167-0.383-0.533-0.55-1.1
			c-0.167-0.566-0.367-0.933-0.6-1.1c-0.5,0.333-0.75,0.934-0.75,1.8c-0.733,0.066-1.284,0.066-1.65,0
			c-0.033,0-0.083-0.067-0.15-0.2c-0.033-0.133-0.083-0.2-0.15-0.2c-0.133,0-0.417,0.033-0.85,0.1
			c-0.233,0.034-0.467-0.083-0.7-0.35c-0.3-0.333-0.483-1-0.55-2C2.517-15.283,2.417-16,2.35-16.2c0.066,0.5,0,1.1-0.2,1.8
			c-0.233,0.7-0.517,1.2-0.85,1.5l-0.4-0.4c-0.533,0.933-0.733,2-0.6,3.2L0-6.9c0.533,0.367,1.333,0.7,2.4,1
			C3-5.7,3.867-5.45,5-5.15c3.733,1.033,6.683,2.133,8.85,3.3c0.333,0.167,1.05,0.633,2.15,1.4c1,0.567,1.683,0.6,2.05,0.1
			c0.4-0.6,0.417-1.6,0.05-3C17.933-4.117,17.65-5.05,17.25-6.15z"/>
	</g>
</symbol>
<symbol  id="FlashAICB_x2F_Layer_37_x2F__x3C_Path_x3E__x5F_2_x5F_0" viewBox="0 -6.5 4.327 6.5">
	<g id="Layer_1_19_">
		<path style="fill-rule:evenodd;clip-rule:evenodd;fill:#B58E53;" d="M0-0.8L2.35,0C3.217-0.667,3.8-1.683,4.1-3.05
			C4.433-4.383,4.4-5.533,4-6.5C3.667-5.667,3.383-5.017,3.15-4.55c-0.467,0.9-0.917,1.267-1.35,1.1C0.967-2.383,0.367-1.5,0-0.8z"
			/>
	</g>
</symbol>
<symbol  id="FlashAICB_x2F_Layer_37_x2F__x3C_Path_x3E__x5F_3" viewBox="0.021 -9.15 5.421 9.15">
	<g id="Layer_1_6_">
		<path style="fill-rule:evenodd;clip-rule:evenodd;fill:#1F1405;" d="M0.2-0.85L4.85,0c0.5-0.067,0.683-0.5,0.55-1.3
			C5.333-1.767,5.2-2.35,5-3.05c-0.067-0.5-0.05-1.534,0.05-3.1c0.1-1.333,0.05-2.333-0.15-3c-0.1,0.4-0.233,1.267-0.4,2.6
			C4.4-5.45,4.217-4.633,3.95-4.1C3.883-4.233,3.733-4.65,3.5-5.35c-0.2-0.5-0.4-0.9-0.6-1.2c0,0.833-0.066,1.533-0.2,2.1
			c-0.233,1-0.6,1.233-1.1,0.7c0,0.233-0.333,0.783-1,1.65C0-1.367-0.133-0.95,0.2-0.85z"/>
	</g>
</symbol>
<symbol  id="FlashAICB_x2F_Layer_37_x2F__x3C_Path_x3E__x5F_3_x5F_0" viewBox="0 -14.5 16.25 14.5">
	<g id="Layer_1_18_">
		<path style="fill-rule:evenodd;clip-rule:evenodd;fill:#B58E53;" d="M16.25-8.65c-1.233,0-2.117-0.067-2.65-0.2
			c-0.033-0.566-0.1-2.4-0.2-5.5c-0.167,0.367-0.3,0.967-0.4,1.8c-0.133,0.833-0.283,1.45-0.45,1.85
			c-0.8-0.933-1.383-0.75-1.75,0.55C10.333-8.583,9.833-7.867,9.3-8C9-8.067,8.85-8.233,8.85-8.5C8.817-8.633,8.8-8.867,8.8-9.2
			c-0.5-1.9-0.75-3.667-0.75-5.3c-0.2,0.2-0.517,0.983-0.95,2.35c-0.4,1.133-0.867,1.783-1.4,1.95l-0.35-1.25
			c-0.467,0.333-0.85,1-1.15,2C3.967-8.317,3.767-7.533,3.6-7.1v-0.55c-0.233,0.8-1,2.467-2.3,5C1.067-2.083,0.883-1.633,0.75-1.3
			C0.483-0.7,0.233-0.267,0,0L16.25-8.65z"/>
	</g>
</symbol>
<symbol  id="FlashAICB_x2F_Layer_37_x2F__x3C_Path_x3E__x5F_4" viewBox="0 -8.5 6.763 8.5">
	<g id="Layer_1_5_">
		<path style="fill-rule:evenodd;clip-rule:evenodd;fill:#1F1405;" d="M6.4-4.25c-0.033-0.033-0.267-0.4-0.7-1.1
			C5.433-5.783,5.267-6.2,5.2-6.6C5.133-7,5.133-7.633,5.2-8.5C4.967-8.267,4.7-7.867,4.4-7.3C4.067-6.667,3.833-6.25,3.7-6.05
			C3.633-6.183,3.45-6.433,3.15-6.8C2.95-6.367,2.333-5.65,1.3-4.65C0.467-3.817,0.033-2.967,0-2.1L4.05,0
			c1.133-0.067,1.934-0.583,2.4-1.55C6.883-2.45,6.867-3.35,6.4-4.25z"/>
	</g>
</symbol>
<symbol  id="FlashAICB_x2F_Layer_37_x2F__x3C_Path_x3E__x5F_4_x5F_0" viewBox="0.028 -8.2 8.178 8.2">
	<g id="Layer_1_17_">
		<path style="fill-rule:evenodd;clip-rule:evenodd;fill:#B58E53;" d="M6.45-2.25c1.033-0.133,1.6-0.517,1.7-1.15
			c0.1-0.367,0.067-1.1-0.1-2.2C7.617-5.333,7.333-5.15,7.2-5.05C7.133-5.717,7.117-6.767,7.15-8.2
			C6.717-7.333,6.367-6.683,6.1-6.25l-0.25-1.1c-0.2,0.967-0.9,1.917-2.1,2.85V-5C3.617-4.7,2.867-3.9,1.5-2.6
			C0.4-1.567-0.083-0.7,0.05,0L6.45-2.25z"/>
	</g>
</symbol>
<symbol  id="FlashAICB_x2F_Layer_37_x2F__x3C_Path_x3E__x5F_5" viewBox="0 -16.75 21 16.75">
	<g id="Layer_1_4_">
		<path style="fill-rule:evenodd;clip-rule:evenodd;fill:#1F1405;" d="M21,0c0-1.633-0.183-2.783-0.55-3.45
			c-0.067,0.333-0.083,0.583-0.05,0.75c-0.267-0.5-0.6-1.5-1-3c-0.333-1.333-0.75-2.316-1.25-2.95c-0.4,1.467-0.6,2.617-0.6,3.45
			c-0.333-0.7-0.566-1.15-0.7-1.35c-0.333-0.5-0.7-0.833-1.1-1L15.5-7c-0.667-0.8-1.25-0.933-1.75-0.4
			c-0.167-0.267-0.4-0.467-0.7-0.6c-0.333-0.133-0.6-0.083-0.8,0.15c-0.467-2.133-0.75-3.383-0.85-3.75
			c-0.433-1.6-0.95-2.75-1.55-3.45c-0.033,1.367-0.083,2.417-0.15,3.15c-0.067,1.3-0.267,2.333-0.6,3.1C9-9.1,8.85-9.55,8.65-10.15
			c-0.2-0.5-0.467-0.883-0.8-1.15c-0.4,0.167-0.633,0.6-0.7,1.3c-0.2-0.2-0.417-0.317-0.65-0.35c-0.267,0-0.483,0.133-0.65,0.4
			c-0.333-0.466-0.7-0.617-1.1-0.45c-0.6-0.5-1.017-1.583-1.25-3.25c-0.233-1.567-0.7-2.6-1.4-3.1c0,0.1,0.017,1.15,0.05,3.15
			c0.033,1.3-0.066,2.333-0.3,3.1c-0.267-0.5-0.633-0.883-1.1-1.15c0.033,0.5-0.033,1.183-0.2,2.05C0.35-8.767,0.167-8.217,0-7.95
			L4.05-5.3H4.9c0.767,0.066,3.033,0.4,6.8,1c2.466,0.433,4.25,0.816,5.35,1.15C19.317-2.35,20.633-1.3,21,0z"/>
	</g>
</symbol>
<symbol  id="FlashAICB_x2F_Layer_37_x2F__x3C_Path_x3E__x5F_5_x5F_0" viewBox="0 -7.379 2.45 7.278">
	<g id="Layer_1_16_">
		<path style="fill-rule:evenodd;clip-rule:evenodd;fill:#B58E53;" d="M2.25-3.15C2.45-4.517,2.5-5.567,2.4-6.3
			C2.333-6.767,2.2-7.067,2-7.2C1.767-7.367,1.35-7.417,0.75-7.35H0C0-6.983,0.05-6.5,0.15-5.9c0.133,0.7,0.2,1.2,0.2,1.5
			c0.066-0.233,0.267-0.467,0.6-0.7c0.4,0.333,0.667,1.133,0.8,2.4c0.064,0.646,0.131,1.513,0.2,2.6
			C1.929-0.745,2.029-1.762,2.25-3.15z"/>
	</g>
</symbol>
<symbol  id="FlashAICB_x2F_Layer_37_x2F__x3C_Path_x3E__x5F_6" viewBox="0 -13.1 28.35 11.725">
	<g id="Layer_1_3_">
		<path style="fill-rule:evenodd;clip-rule:evenodd;fill:#1F1405;" d="M26.95-5.05c0.233-1.2,0.367-2.184,0.4-2.95
			c0-0.3,0.066-0.6,0.2-0.9c0.133-0.333,0.284-0.3,0.45,0.1c0.233-0.6,0.35-1.184,0.35-1.75c0-0.867-0.767-1.567-2.3-2.1
			c-0.7-0.267-1.566-0.417-2.6-0.45c-0.367,0-1.233,0.017-2.6,0.05c-1.233,0-3.083,0.066-5.55,0.2c-1.233,0.1-2.617,0.25-4.15,0.45
			c-1.3,0.233-2.316,0.417-3.05,0.55c-1.3,0.2-2.333,0.233-3.1,0.1L2.75-8.6C2.654-8.152,2.312-7.718,1.725-7.3
			C2.52-7.625,3.028-7.708,3.25-7.55c0.067,0.066,0.133,0.216,0.2,0.45C3.517-6.867,3.567-6.717,3.6-6.65L4.05-6.8
			C4.25-6.567,4.4-6.383,4.5-6.25C4.767-5.583,5-5.117,5.2-4.85c0-0.8,0.066-1.316,0.2-1.55c0.333,0.8,0.5,1.85,0.5,3.15
			C5.884-2.528,5.867-1.903,5.85-1.375C5.914-2.063,6.03-2.888,6.2-3.85c0.033-0.133,0.05-0.566,0.05-1.3
			C6.25-5.683,6.3-6.1,6.4-6.4c0.3-0.767,0.667-0.917,1.1-0.45C7.933-7.517,8.45-7.367,9.05-6.4c0.167,0.233,0.517,0.933,1.05,2.1
			c0.1-0.434,0.167-1.1,0.2-2c0.133-0.767,0.483-1.317,1.05-1.65l2.1-1.2c1.1-0.6,2.617-1,4.55-1.2c0.5-0.066,0.783-0.1,0.85-0.1
			c0.233,0.034,0.383,0.117,0.45,0.25c0.133,0.233,0.267,0.4,0.4,0.5c0.066,0.067,0.3,0.15,0.7,0.25c0.3,0.067,0.467,0.2,0.5,0.4
			c0.167,0,0.417-0.017,0.75-0.05c0.333-0.033,0.583-0.017,0.75,0.05c0.567,0.167,1,0.617,1.3,1.35c0.3,0.633,0.433,1.25,0.4,1.85
			c0.133-0.167,0.267-0.6,0.4-1.3c0.133-0.633,0.317-1.017,0.55-1.15C25.383-8.5,25.7-7.617,26-5.65
			c0.233,1.566,0.35,2.767,0.35,3.6C26.417-2.55,26.617-3.55,26.95-5.05z M1.6-7.25C0.833-6.95,0.3-6.683,0-6.45
			c0.533-0.1,1.083-0.367,1.65-0.8C1.675-7.267,1.7-7.284,1.725-7.3C1.684-7.284,1.642-7.268,1.6-7.25z"/>
	</g>
</symbol>
<symbol  id="FlashAICB_x2F_Layer_37_x2F__x3C_Path_x3E__x5F_6_x5F_0" viewBox="0 -8.05 3.357 6.725">
	<g id="Layer_1_15_">
		<path style="fill-rule:evenodd;clip-rule:evenodd;fill:#B58E53;" d="M0-8.05c0.667,0.233,1.317,1.433,1.95,3.6
			c0.353,1.226,0.578,2.268,0.675,3.125C2.606-1.808,2.581-2.366,2.55-3C2.517-4.233,2.6-5.217,2.8-5.95
			C2.9-6.217,3.083-6.633,3.35-7.2C3.417-7.633,3.033-7.833,2.2-7.8L0-8.05z"/>
	</g>
</symbol>
<symbol  id="FlashAICB_x2F_Layer_37_x2F__x3C_Path_x3E__x5F_7" viewBox="0 -8.25 5.353 8.25">
	<g id="Layer_1_2_">
		<path style="fill-rule:evenodd;clip-rule:evenodd;fill:#1F1405;" d="M0.85-1.9L1.2-3.95C1.333-4.45,1.75-5.467,2.45-7
			c0.433,0.633,0.7,1.333,0.8,2.1C3.317-5.1,3.567-5.333,4-5.6c0.267,0.4,0.4,0.967,0.4,1.7l0.05,1.75
			c0.633-2.1,0.933-3.867,0.9-5.3c-0.733-0.367-1.567-0.6-2.5-0.7c-0.5-0.067-1.383-0.1-2.65-0.1L0-7.7V0
			C0.4-0.433,0.683-1.067,0.85-1.9z"/>
	</g>
</symbol>
<symbol  id="FlashAICB_x2F_Layer_37_x2F__x3C_Path_x3E__x5F_7_x5F_0" viewBox="0 -6.71 7.713 6.71">
	<g id="Layer_1_14_">
		<path style="fill-rule:evenodd;clip-rule:evenodd;fill:#B58E53;" d="M7.6-6.1c0.1-0.2,0.133-0.4,0.1-0.6
			C7.067-6.733,6.267-6.683,5.3-6.55C4.2-6.383,3.417-6.3,2.95-6.3L0-5c0.433-0.067,0.817,0.1,1.15,0.5
			c0.228,0.326,0.395,0.734,0.5,1.225C1.563-3.731,1.78-4.073,2.3-4.3c0.267,0.433,0.434,1.133,0.5,2.1C2.867-1.1,2.967-0.367,3.1,0
			c0.333-2.567,0.6-4.183,0.8-4.85c0.5-0.1,0.8,0.117,0.9,0.65l0.15-0.25c0.333,0.034,0.6,0.3,0.8,0.8c0.2,0.6,0.367,1.017,0.5,1.25
			C6.517-3.067,6.867-4.133,7.3-5.6L7.6-6.1z"/>
	</g>
</symbol>
<symbol  id="FlashAICB_x2F_Layer_37_x2F__x3C_Path_x3E__x5F_8" viewBox="0 -2.67 6.85 2.67">
	<g id="Layer_1_13_">
		<path style="fill-rule:evenodd;clip-rule:evenodd;fill:#B58E53;" d="M5.25-0.9c0.067-0.3,0.2-0.55,0.4-0.75
			C5.75-1.717,5.967-1.8,6.3-1.9c0.267-0.067,0.45-0.217,0.55-0.45c-0.467-0.267-1.267-0.367-2.4-0.3C3.283-2.55,2.5-2.317,2.1-1.95
			l-1.8,1C0.167-0.65,0.067-0.433,0-0.3c1,0.1,2,0,3-0.3c0.733-0.233,1.167-0.333,1.3-0.3c0.4,0,0.667,0.3,0.8,0.9
			C5.167-0.2,5.217-0.5,5.25-0.9z"/>
	</g>
</symbol>
<symbol  id="FlashAICB_x2F_Layer_37_x2F__x3C_Path_x3E__x5F_9" viewBox="0 -6.75 2.717 6.75">
	<g id="Layer_1_12_">
		<path style="fill-rule:evenodd;clip-rule:evenodd;fill:#B58E53;" d="M0-1.1L1.75,0C2.317-0.9,2.633-2.1,2.7-3.6
			c0.029-0.731,0.021-1.781-0.025-3.15C2.62-6.055,2.311-5.171,1.75-4.1C0.883-2.633,0.3-1.633,0-1.1z"/>
	</g>
</symbol>
<g>
	<g>
		
			<use xlink:href="#FlashAICB_x2F_Layer_37_x2F__x3C_Path_x3E__x5F_7"  width="5.353" height="8.25" y="-8.25" transform="matrix(1 0 0 -1 39.2998 2.2998)" style="overflow:visible;opacity:0.2891;enable-background:new    ;"/>
		
			<use xlink:href="#FlashAICB_x2F_Layer_37_x2F__x3C_Path_x3E__x5F_6"  width="28.35" height="11.725" y="-13.1" transform="matrix(1 0 0 -1 6.7998 -1.3999)" style="overflow:visible;opacity:0.2891;enable-background:new    ;"/>
		
			<use xlink:href="#FlashAICB_x2F_Layer_37_x2F__x3C_Path_x3E__x5F_5"  width="21" height="16.75" y="-16.75" transform="matrix(1 0 0 -1 26.5498 8.8999)" style="overflow:visible;opacity:0.2891;enable-background:new    ;"/>
		
			<use xlink:href="#FlashAICB_x2F_Layer_37_x2F__x3C_Path_x3E__x5F_4"  width="6.763" height="8.5" y="-8.5" transform="matrix(1 0 0 -1 6.2998 11.8501)" style="overflow:visible;opacity:0.2891;enable-background:new    ;"/>
		
			<use xlink:href="#FlashAICB_x2F_Layer_37_x2F__x3C_Path_x3E__x5F_3"  width="5.421" height="9.15" x="0.021" y="-9.15" transform="matrix(1 0 0 -1 31.4004 35.2998)" style="overflow:visible;opacity:0.2891;enable-background:new    ;"/>
		
			<use xlink:href="#FlashAICB_x2F_Layer_37_x2F__x3C_Path_x3E__x5F_2"  width="18.363" height="17.502" y="-17.5" transform="matrix(1 0 0 -1 43.4004 27)" style="overflow:visible;opacity:0.2891;enable-background:new    ;"/>
		
			<use xlink:href="#FlashAICB_x2F_Layer_37_x2F__x3C_Path_x3E__x5F_1"  width="21.088" height="16.255" y="-16.3" transform="matrix(1 0 0 -1 25.6499 52.5996)" style="overflow:visible;opacity:0.2891;enable-background:new    ;"/>
		
			<use xlink:href="#FlashAICB_x2F_Layer_37_x2F__x3C_Path_x3E_"  width="7.696" height="12.855" x="0.007" y="-12.85" transform="matrix(1 0 0 -1 17.2998 57.3496)" style="overflow:visible;opacity:0.2891;enable-background:new    ;"/>
	</g>
	<g>
		
			<use xlink:href="#FlashAICB_x2F_Layer_37_x2F__x3C_Path_x3E__x5F_11"  width="5.825" height="15.15" y="-15.15" transform="matrix(1 0 0 -1 0.2002 4.6001)" style="overflow:visible;opacity:0.1992;enable-background:new    ;"/>
		
			<use xlink:href="#FlashAICB_x2F_Layer_37_x2F__x3C_Path_x3E__x5F_10"  width="6.552" height="6.501" y="-6.5" transform="matrix(1 0 0 -1 11.9502 16.0498)" style="overflow:visible;opacity:0.1992;enable-background:new    ;"/>
		
			<use xlink:href="#FlashAICB_x2F_Layer_37_x2F__x3C_Path_x3E__x5F_9"  width="2.717" height="6.75" y="-6.75" transform="matrix(1 0 0 -1 24.0498 16.6001)" style="overflow:visible;opacity:0.1992;enable-background:new    ;"/>
		
			<use xlink:href="#FlashAICB_x2F_Layer_37_x2F__x3C_Path_x3E__x5F_8"  width="6.85" height="2.67" y="-2.67" transform="matrix(1 0 0 -1 0.3501 3.75)" style="overflow:visible;opacity:0.1992;enable-background:new    ;"/>
		
			<use xlink:href="#FlashAICB_x2F_Layer_37_x2F__x3C_Path_x3E__x5F_7_x5F_0"  width="7.713" height="6.71" y="-6.71" transform="matrix(1 0 0 -1 22.5498 26.5)" style="overflow:visible;opacity:0.1992;enable-background:new    ;"/>
		
			<use xlink:href="#FlashAICB_x2F_Layer_37_x2F__x3C_Path_x3E__x5F_6_x5F_0"  width="3.357" height="6.725" y="-8.05" transform="matrix(1 0 0 -1 35.7998 24.2998)" style="overflow:visible;opacity:0.1992;enable-background:new    ;"/>
		
			<use xlink:href="#FlashAICB_x2F_Layer_37_x2F__x3C_Path_x3E__x5F_5_x5F_0"  width="2.45" height="7.278" y="-7.379" transform="matrix(1 0 0 -1 45.1504 23.8999)" style="overflow:visible;opacity:0.1992;enable-background:new    ;"/>
		
			<use xlink:href="#FlashAICB_x2F_Layer_37_x2F__x3C_Path_x3E__x5F_4_x5F_0"  width="8.178" height="8.2" x="0.028" y="-8.2" transform="matrix(1 0 0 -1 24 33.2002)" style="overflow:visible;opacity:0.1992;enable-background:new    ;"/>
		
			<use xlink:href="#FlashAICB_x2F_Layer_37_x2F__x3C_Path_x3E__x5F_3_x5F_0"  width="16.25" height="14.5" y="-14.5" transform="matrix(1 0 0 -1 4.9502 52.0498)" style="overflow:visible;opacity:0.1992;enable-background:new    ;"/>
		
			<use xlink:href="#FlashAICB_x2F_Layer_37_x2F__x3C_Path_x3E__x5F_2_x5F_0"  width="4.327" height="6.5" y="-6.5" transform="matrix(1 0 0 -1 23.6001 60.2998)" style="overflow:visible;opacity:0.1992;enable-background:new    ;"/>
		
			<use xlink:href="#FlashAICB_x2F_Layer_37_x2F__x3C_Path_x3E__x5F_1_x5F_0"  width="4.514" height="7.092" y="-7.092" transform="matrix(1 0 0 -1 16.8999 49.6504)" style="overflow:visible;opacity:0.1992;enable-background:new    ;"/>
		
			<use xlink:href="#FlashAICB_x2F_Layer_37_x2F__x3C_Path_x3E__x5F_0"  width="3.175" height="5.35" x="0.725" y="-5.35" transform="matrix(1 0 0 -1 11.2002 48.5996)" style="overflow:visible;opacity:0.1992;enable-background:new    ;"/>
	</g>
	<g>
		<path style="fill-rule:evenodd;clip-rule:evenodd;fill:#966E32;" d="M43.9,55.8l1.05-0.1c-1.067,1.366-2.2,2.383-3.4,3.05
			c-2,1.167-4.184,2.05-6.55,2.65c-2.2,0.5-5.817,0.933-10.85,1.3c-3.8,0.233-6.867,0.066-9.2-0.5c-0.9-0.2-1.867-0.634-2.9-1.3
			c-0.933-0.567-1.683-1.15-2.25-1.75C9.4,58.684,8.5,57.4,7.1,55.3l-1.95-3L43.9,55.8z"/>
		<path style="fill-rule:evenodd;clip-rule:evenodd;fill:#7D561D;" d="M45.15,52.8l1-0.1c-0.801,5.167-7.483,8.25-20.05,9.25
			c-3.034,0.2-5.284,0.267-6.75,0.2c-2.6-0.134-4.733-0.634-6.4-1.5c-1.767-0.934-3.384-2.317-4.85-4.15
			c-0.5-0.566-1.733-2.3-3.7-5.2c1.167,0.101,3.883,0.584,8.15,1.45c3.4,0.667,6.15,0.95,8.25,0.85v0.051
			c7.833,0.133,11.917,0.199,12.25,0.199C37.717,53.816,41.75,53.467,45.15,52.8z"/>
		<path style="fill-rule:evenodd;clip-rule:evenodd;fill:#9C7735;" d="M20.8,53.65c7.033,0.133,10.967,0.199,11.8,0.199
			c4.467-0.033,8.334-0.333,11.601-0.899c-1.3,2.167-4.05,3.899-8.25,5.2c-3.434,1.1-7.35,1.467-11.75,1.1
			c-0.6-0.066-1.434-0.066-2.5,0c-1.167,0.066-2,0.083-2.5,0.05c-0.6-0.033-1.367-0.233-2.3-0.6
			c-1.333-0.533-2.083-0.816-2.25-0.851c-0.867-0.267-1.8-0.833-2.8-1.699c-1.667-1.434-2.517-2.167-2.55-2.2
			c-1.233-1.134-2.183-1.934-2.85-2.4c1.6,0.267,3.983,0.733,7.15,1.4c2.867,0.566,5.267,0.783,7.2,0.649V53.65z"/>
		<path style="fill-rule:evenodd;clip-rule:evenodd;fill:#7D5F2B;" d="M18.5,56.7l1.3,0.3c0.5,0.033,1.35,0,2.55-0.1
			c1.1-0.101,1.95-0.101,2.55,0c3.1,0.533,5.95,0.483,8.55-0.15c0.366-0.066,0.933-0.184,1.7-0.35
			c0.633-0.167,1.166-0.351,1.6-0.551c0.2-0.1,0.65-0.283,1.35-0.55c0.601-0.2,1.033-0.399,1.301-0.6
			c-1.467,1.3-3.567,2.167-6.301,2.6c-1.833,0.233-3.883,0.4-6.149,0.5c-0.434,0-1.233-0.05-2.4-0.149
			c-1-0.101-1.783-0.117-2.35-0.051c-0.3,0.034-1.134-0.033-2.5-0.199c-0.2-0.033-0.534-0.017-1,0.05
			c-0.467,0.066-0.817,0.066-1.05,0c-0.2-0.033-0.45-0.15-0.75-0.351c-0.333-0.232-0.567-0.366-0.7-0.399
			c-1.233-0.434-2.2-0.851-2.9-1.25c-0.815-0.474-1.482-1.032-2-1.675c-0.276-0.118-0.443-0.243-0.5-0.375l0.1-0.15
			c0.119,0.183,0.252,0.357,0.4,0.525c0.2,0.096,0.467,0.188,0.8,0.274l1.3,0.7c0.333,0.233,0.833,0.467,1.5,0.7
			s1.167,0.45,1.5,0.649c0.267,0.2,0.617,0.334,1.05,0.4C17.683,56.566,18.033,56.634,18.5,56.7z"/>
		<path style="fill-rule:evenodd;clip-rule:evenodd;fill:#7D5F2B;" d="M23.1,55.75c-1.7,0-2.65-0.017-2.85-0.05
			c-1.467-0.267-2.9-0.767-4.3-1.5l0.25,0.3c-0.5-0.2-0.9-0.383-1.2-0.55c-0.5-0.267-0.8-0.55-0.9-0.851
			c0.333-0.066,0.85,0.051,1.55,0.351c0.4,0.133,0.933,0.35,1.6,0.649c1.733,0.601,2.85,0.934,3.35,1
			c0.633,0.067,1.566,0.084,2.8,0.051c0.967,0.033,2.4,0.116,4.3,0.25c-0.567,0.166-1.317,0.267-2.25,0.3
			C24.383,55.7,23.6,55.717,23.1,55.75z"/>
		<path style="fill-rule:evenodd;clip-rule:evenodd;fill:#7D5F2B;" d="M39.15,53.6c0.466-0.033,0.8,0.018,1,0.15
			c-0.134,0.2-0.584,0.367-1.351,0.5c-0.8,0.134-1.316,0.217-1.55,0.25l-3.1,0.6c-1.2,0.2-2.268,0.25-3.2,0.15
			c2.166-0.667,3.616-1,4.35-1L35.45,54c0.6,0,1.483-0.1,2.649-0.3C38.3,53.7,38.65,53.667,39.15,53.6z"/>
		<path style="fill-rule:evenodd;clip-rule:evenodd;fill:#7D5F2B;" d="M18.6,53.85L18.45,54c-1.434,0.1-2.934,0.066-4.5-0.1
			c-0.8,0.066-1.4,0.1-1.8,0.1c-0.444-0.116-0.819-0.19-1.125-0.225c0.877-0.005,2.052,0.021,3.525,0.074
			C16.35,53.884,17.7,53.884,18.6,53.85z"/>
		<path style="fill-rule:evenodd;clip-rule:evenodd;fill:#7D5F2B;" d="M40.75,54.65l0.65,0.5c-0.934-0.167-1.617-0.267-2.051-0.301
			c-0.467,0-0.816-0.017-1.05-0.05c-0.667-0.066-1.434-0.217-2.3-0.45c-0.233-0.066-0.967-0.1-2.2-0.1
			c-1.267-0.167-2.217-0.267-2.85-0.3c1.1-0.101,2.733,0,4.899,0.3C38.083,54.583,39.717,54.717,40.75,54.65z"/>
		<path style="fill-rule:evenodd;clip-rule:evenodd;fill:#7D5F2B;" d="M26.65,54.2h0.05c0.667,0,1.083-0.033,1.25-0.101
			c0.066,0.467-0.534,0.634-1.8,0.5c-0.718-0.125-1.269-0.217-1.65-0.274C25.593,54.44,26.309,54.398,26.65,54.2z"/>
		<linearGradient id="SVGID_1_" gradientUnits="userSpaceOnUse" x1="25.2695" y1="51.6309" x2="24.0589" y2="59.2292">
			<stop  offset="0" style="stop-color:#0A0804;stop-opacity:0.7882"/>
			<stop  offset="1" style="stop-color:#000000;stop-opacity:0"/>
		</linearGradient>
		<path style="fill-rule:evenodd;clip-rule:evenodd;fill:url(#SVGID_1_);" d="M38.8,53.4h0.3c1.9-0.167,3.601-0.384,5.101-0.65
			l1.95-0.25c-0.834,5.3-7.517,8.45-20.05,9.45c-3.033,0.2-5.283,0.267-6.75,0.2c-2.6-0.134-4.733-0.65-6.4-1.551
			c-1.767-0.966-3.4-2.383-4.9-4.25c-0.4-0.5-1.633-2.283-3.7-5.35c1.333,0.167,2.6,0.366,3.8,0.6H8.3l5.3,1.101v0.05l3.7,0.55
			c0.733,0.066,1.267,0.101,1.6,0.101l0.2,0.05l1.7-0.05c5.9,0.133,8.9,0.216,9,0.25C33.233,53.684,36.233,53.6,38.8,53.4z"/>
	</g>
	<g>
		<path style="fill-rule:evenodd;clip-rule:evenodd;fill:#966E32;" d="M60.75,27.4c-2.066,3.7-3.384,5.883-3.95,6.55
			c-0.434,0.566-1.083,1.15-1.95,1.75c-0.933,0.667-1.816,1.149-2.649,1.45c-2.2,0.699-5.067,1.1-8.601,1.199
			c-4.467,0.134-7.883,0.051-10.25-0.25c-2-0.267-4.116-0.866-6.35-1.8c-0.733-0.3-1.517-0.816-2.35-1.55l-1-0.95h1l34.55-6
			L60.75,27.4z"/>
		<path style="fill-rule:evenodd;clip-rule:evenodd;fill:#7D561D;" d="M23.25,31.25c3.2,0.3,7,0.267,11.4-0.1l11.449-1.2h0.051
			c1.966-0.067,4.517-0.567,7.649-1.5c3.934-1.133,6.467-1.8,7.601-2c-1.7,2.833-2.75,4.5-3.15,5c-1.267,1.767-2.684,3.15-4.25,4.15
			c-1.5,0.933-3.467,1.567-5.9,1.9c-1.333,0.167-3.449,0.283-6.35,0.35c-11.833,0.233-18.317-1.966-19.45-6.6H23.25z"/>
		<path style="fill-rule:evenodd;clip-rule:evenodd;fill:#9C7735;" d="M35.1,31.15c0.801-0.066,4.467-0.466,11-1.2h0.051
			c1.833-0.067,4.066-0.467,6.699-1.2c1.467-0.4,3.667-1.033,6.601-1.9c-1.101,1.133-1.934,1.933-2.5,2.4c-1,1-1.75,1.75-2.25,2.25
			c-0.867,0.833-1.7,1.417-2.5,1.75c-0.233,0.1-0.917,0.417-2.05,0.95c-0.834,0.4-1.534,0.633-2.101,0.7
			c-0.467,0.067-1.25,0.133-2.35,0.2c-1.033,0.033-1.817,0.1-2.351,0.2c-4.166,0.7-7.866,0.7-11.1,0c-4.033-0.833-6.733-2.167-8.1-4
			C27.25,31.533,30.9,31.483,35.1,31.15z"/>
		<path style="fill-rule:evenodd;clip-rule:evenodd;fill:#7D5F2B;" d="M31.3,33.3c0.4,0.134,0.934,0.25,1.601,0.35
			c0.366,0.034,0.899,0.083,1.6,0.15c2.434,0.367,5.116,0.167,8.05-0.6c0.533-0.133,1.316-0.2,2.351-0.2
			c1.1,0.033,1.899,0,2.399-0.1l1.2-0.4c0.233-0.066,0.566-0.15,1-0.25c0.4-0.1,0.717-0.25,0.95-0.45
			c0.3-0.233,0.75-0.483,1.35-0.75c0.634-0.267,1.101-0.517,1.4-0.75l1.1-0.7c0.066-0.067,0.3-0.167,0.7-0.3
			c0.044-0.02,0.086-0.036,0.125-0.05c-0.452,0.642-1.061,1.208-1.825,1.7c-0.566,0.4-1.45,0.867-2.649,1.4
			c-0.534,0.433-0.95,0.683-1.25,0.75c-0.233,0.066-0.567,0.1-1,0.1c-0.5-0.034-0.834-0.034-1,0c-1.067,0.267-1.834,0.4-2.301,0.4
			c-0.533,0-1.267,0.083-2.199,0.25c-1.067,0.2-1.817,0.316-2.25,0.35c-2.268,0.133-4.2,0.15-5.801,0.05
			c-2.566-0.133-4.6-0.733-6.1-1.8C29.25,32.75,30.1,33.033,31.3,33.3z M55.125,29.25c0.099-0.149,0.19-0.299,0.275-0.45l0.1,0.1
			C55.472,29.014,55.347,29.13,55.125,29.25z"/>
		<path style="fill-rule:evenodd;clip-rule:evenodd;fill:#7D5F2B;" d="M46.45,31.25c0.666-0.167,1.683-0.566,3.05-1.2
			c0.1-0.033,0.583-0.267,1.45-0.7c0.666-0.333,1.149-0.483,1.45-0.45c-0.067,0.3-0.334,0.583-0.801,0.85
			c-0.533,0.3-0.883,0.5-1.05,0.6l0.2-0.3c-1.3,0.833-2.617,1.4-3.95,1.7c-0.467,0.133-1.35,0.233-2.649,0.3
			c-0.967,0.067-1.7,0.117-2.2,0.15c-0.9,0.066-1.617,0.05-2.15-0.05l4-0.65C44.4,31.434,45.283,31.35,46.45,31.25z"/>
		<path style="fill-rule:evenodd;clip-rule:evenodd;fill:#7D5F2B;" d="M32.6,31.7c0.733-0.034,2.117,0.15,4.15,0.55
			c-0.867,0.2-1.884,0.25-3.05,0.15c-1.334-0.133-2.317-0.233-2.95-0.3c-0.6,0-1.083-0.017-1.45-0.05
			c-0.733-0.066-1.167-0.183-1.3-0.35c0.2-0.167,0.517-0.25,0.95-0.25c0.233-0.034,0.55-0.034,0.95,0c0.267,0,0.683,0.017,1.25,0.05
			c0.533,0.033,0.949,0.033,1.25,0L32.6,31.7z"/>
		<path style="fill-rule:evenodd;clip-rule:evenodd;fill:#7D5F2B;" d="M44.9,30.6c0.133-0.1,0.466,0.017,1,0.35
			c0.267,0.167,0.583,0.367,0.949,0.6l1.101,0.7c0.767,0.567,1.399,0.9,1.899,1c-0.3-0.033-0.866-0.283-1.699-0.75l-1.101-0.8
			c-0.6-0.333-0.95-0.517-1.05-0.55c-0.634-0.033-1.066-0.167-1.3-0.4L44.9,30.6z"/>
		<path style="fill-rule:evenodd;clip-rule:evenodd;fill:#7D5F2B;" d="M48.2,29.95c0.866-0.034,2.133-0.15,3.8-0.35
			c1.7-0.2,2.967-0.317,3.8-0.35c-0.7,0.167-1.217,0.267-1.55,0.3c-0.733-0.033-1.283-0.017-1.65,0.05
			c-1.366,0.3-2.767,0.467-4.199,0.5L48.2,29.95z"/>
		<path style="fill-rule:evenodd;clip-rule:evenodd;fill:#7D5F2B;" d="M27.5,32.55c0.967-0.033,2.5-0.283,4.6-0.75
			c1.967-0.466,3.483-0.7,4.551-0.7c-1.2,0.267-2.084,0.433-2.65,0.5c-1.033,0.066-1.717,0.15-2.05,0.25L29.8,32.5l-1,0.1
			c-0.8,0.267-1.417,0.417-1.85,0.45L27.5,32.55z"/>
		<path style="fill-rule:evenodd;clip-rule:evenodd;fill:#7D5F2B;" d="M40.7,30.95c0.366,0.167,1.233,0.1,2.6-0.2
			c-0.8,0.233-1.5,0.4-2.1,0.5c-1.167,0.233-1.733,0.133-1.7-0.3c0.233,0.066,0.616,0.066,1.15,0H40.7z"/>
		
			<linearGradient id="SVGID_2_" gradientUnits="userSpaceOnUse" x1="34.7256" y1="-37.3369" x2="41.5174" y2="-37.3369" gradientTransform="matrix(0.1417 0.9899 -0.9899 0.1417 4.553199e-004 5.092025e-004)">
			<stop  offset="0" style="stop-color:#0A0804;stop-opacity:0.7882"/>
			<stop  offset="1" style="stop-color:#000000;stop-opacity:0"/>
		</linearGradient>
		<path style="fill-rule:evenodd;clip-rule:evenodd;fill:url(#SVGID_2_);" d="M24.15,31.2c1.067,0.066,2.683,0.1,4.85,0.1h0.25
			c2.4-0.033,5.217-0.216,8.45-0.55c0.166-0.033,2.967-0.367,8.399-1h0.051l1.55-0.1l0.2-0.05l4.899-1.05h0.05l3.101-0.95l0.25-0.05
			l1.7-0.5c0.767-0.233,1.916-0.517,3.449-0.85c-1.6,2.767-2.633,4.483-3.1,5.15c-1.267,1.8-2.684,3.2-4.25,4.2
			c-1.533,0.967-3.5,1.617-5.9,1.95c-1.533,0.233-3.649,0.367-6.35,0.4c-4.767,0.1-8.483-0.134-11.15-0.7
			c-4.833-0.967-7.6-2.967-8.3-6H24.15z"/>
	</g>
	<g>
		<path style="fill-rule:evenodd;clip-rule:evenodd;fill:#966E32;" d="M34.45,17.4c-2.8,0.5-7.05,0.817-12.75,0.95
			c-1.967,0.033-3.983-0.033-6.05-0.2c-2-0.2-3.55-0.45-4.65-0.75c-1-0.267-2.083-0.783-3.25-1.55c-1-0.7-1.783-1.383-2.35-2.05
			C5,13.3,4.117,11.867,2.75,9.5L0.8,6.1l44.7,5.55l1.25-0.05c-1.367,1.467-2.8,2.55-4.3,3.25
			C39.616,16.117,36.95,16.967,34.45,17.4z"/>
		<path style="fill-rule:evenodd;clip-rule:evenodd;fill:#7D561D;" d="M18.85,8.25h0.05c8.567,0.5,13.317,0.767,14.25,0.8
			c5.433,0.167,10.166-0.033,14.199-0.6l1.2-0.05c-0.967,3.434-4.5,5.934-10.6,7.5c-3.767,0.967-8.417,1.534-13.95,1.7
			c-3.567,0.1-6.184,0.083-7.85-0.05c-3.033-0.233-5.467-0.883-7.3-1.95c-1.934-1.1-3.65-2.684-5.15-4.75
			c-0.534-0.7-1.767-2.667-3.7-5.9c1.4,0.167,4.533,0.833,9.4,2C13.267,7.85,16.417,8.283,18.85,8.25z"/>
		<path style="fill-rule:evenodd;clip-rule:evenodd;fill:#9C7735;" d="M18.85,8.25h0.05C27.867,8.75,32.434,9,32.6,9
			c5.233,0.167,9.783,0.017,13.65-0.45c-1.667,2.2-5.083,3.983-10.25,5.35c-4,1.067-8.617,1.3-13.85,0.7
			c-0.7-0.1-1.667-0.133-2.9-0.1c-1.4,0-2.383-0.017-2.95-0.05c-0.7-0.067-1.566-0.317-2.6-0.75c-1.434-0.633-2.267-0.983-2.5-1.05
			c-1-0.333-2.017-1-3.05-2C6.983,9.483,6.066,8.617,5.4,8.05c-1.3-1.267-2.3-2.167-3-2.7C4.233,5.684,6.95,6.3,10.55,7.2
			C13.816,7.934,16.583,8.283,18.85,8.25z"/>
		<path style="fill-rule:evenodd;clip-rule:evenodd;fill:#7D5F2B;" d="M7.4,7.4c0.101,0.183,0.209,0.358,0.325,0.525
			C7.464,7.82,7.306,7.712,7.25,7.6L7.4,7.4z M7.9,8c0.467,0.133,0.733,0.233,0.8,0.3l1.4,0.85c0.333,0.233,0.9,0.5,1.7,0.8
			c0.733,0.3,1.283,0.583,1.65,0.85c0.3,0.2,0.683,0.35,1.15,0.45c0.267,0.067,0.667,0.15,1.2,0.25c0.967,0.267,1.467,0.4,1.5,0.4
			c0.633,0.1,1.633,0.117,3,0.05c1.3-0.1,2.283-0.083,2.95,0.05c3.467,0.733,6.8,0.817,10,0.25c0.434-0.066,1.1-0.183,2-0.35
			c0.8-0.133,1.45-0.3,1.95-0.5c0.333-0.1,0.883-0.267,1.649-0.5c0.667-0.2,1.184-0.417,1.551-0.65c-1.934,1.4-4.483,2.25-7.65,2.55
			c-1.934,0.2-4.333,0.3-7.2,0.3c-0.566,0-1.483-0.083-2.75-0.25c-1.167-0.167-2.083-0.233-2.75-0.2
			c-0.467,0.034-1.433-0.066-2.9-0.3c-0.267-0.033-0.667-0.033-1.2,0c-0.567,0.066-0.983,0.066-1.25,0
			c-0.2-0.067-0.467-0.217-0.8-0.45s-0.583-0.383-0.75-0.45c-1.433-0.567-2.517-1.067-3.25-1.5C8.98,9.355,8.256,8.68,7.725,7.925
			C7.782,7.954,7.841,7.979,7.9,8z"/>
		<path style="fill-rule:evenodd;clip-rule:evenodd;fill:#7D5F2B;" d="M12.1,8.35c-0.567-0.3-0.883-0.617-0.95-0.95
			c0.4-0.066,0.983,0.067,1.75,0.4c0.433,0.2,1.017,0.467,1.75,0.8c1.933,0.733,3.2,1.15,3.8,1.25c0.433,0.066,0.983,0.1,1.65,0.1
			C20.433,9.983,20.967,10,21.7,10c1.133,0.1,2.8,0.267,5,0.5c-0.7,0.2-1.6,0.283-2.7,0.25c-1.2-0.066-2.1-0.1-2.7-0.1
			c-1.767,0-2.867-0.05-3.3-0.15c-1.6-0.267-3.217-0.883-4.85-1.85L13.4,9C12.867,8.767,12.433,8.55,12.1,8.35z"/>
		<path style="fill-rule:evenodd;clip-rule:evenodd;fill:#7D5F2B;" d="M35.7,9.6l0.2-0.25C36.6,9.383,37.65,9.3,39.05,9.1
			c0.233,0,0.65-0.017,1.25-0.05c0.533-0.033,0.917,0.034,1.15,0.2c-0.2,0.233-0.75,0.4-1.65,0.5c-0.934,0.1-1.533,0.167-1.8,0.2
			c-1.667,0.267-2.917,0.45-3.75,0.55c-1.467,0.167-2.717,0.167-3.75,0C33,9.867,34.733,9.567,35.7,9.6z"/>
		<path style="fill-rule:evenodd;clip-rule:evenodd;fill:#7D5F2B;" d="M14.1,12.5c0.5-0.133,1.316-0.566,2.45-1.3l1.4-0.95
			c0.133-0.066,0.55-0.333,1.25-0.8c0.667-0.434,1.066-0.583,1.2-0.45l0.2,0.15c-0.167,0.167-0.417,0.284-0.75,0.35
			C19.316,9.633,19.033,9.7,19,9.7c-0.267,0.066-0.7,0.333-1.3,0.8l-1.45,1C15.117,12.133,14.4,12.467,14.1,12.5z"/>
		<path style="fill-rule:evenodd;clip-rule:evenodd;fill:#7D5F2B;" d="M16.3,8.4l-0.2,0.2c-1.867,0-3.617-0.117-5.25-0.35
			c-0.934,0.033-1.633,0.033-2.1,0C8.304,8.13,7.92,8.046,7.6,8c1.011,0.028,2.344,0.095,4,0.2C13.7,8.333,15.267,8.4,16.3,8.4z"/>
		<path style="fill-rule:evenodd;clip-rule:evenodd;fill:#7D5F2B;" d="M36.5,9.75c-0.3-0.1-1.134-0.183-2.5-0.25
			c-0.4,0-0.95-0.066-1.65-0.2c-0.733-0.1-1.283-0.167-1.649-0.2c1.3-0.067,3.183,0.117,5.649,0.55
			c2.533,0.434,4.417,0.633,5.65,0.6l0.7,0.6c-1.033-0.233-1.817-0.383-2.351-0.45l-1.199-0.05C37.983,10.083,37.1,9.883,36.5,9.75z
			"/>
		<path style="fill-rule:evenodd;clip-rule:evenodd;fill:#7D5F2B;" d="M25.6,9.15h0.1c0.833,0,1.316-0.017,1.45-0.05
			c0.033,0.5-0.683,0.65-2.15,0.45c-1.022-0.2-1.747-0.333-2.175-0.4C23.122,9.187,23.514,9.237,24,9.3
			C24.733,9.367,25.267,9.317,25.6,9.15z"/>
		
			<linearGradient id="SVGID_3_" gradientUnits="userSpaceOnUse" x1="4.855" y1="-24.6929" x2="13.5811" y2="-24.6929" gradientTransform="matrix(-0.0774 0.997 -0.997 -0.0774 8.300543e-004 1.078844e-004)">
			<stop  offset="0" style="stop-color:#0A0804;stop-opacity:0.7882"/>
			<stop  offset="1" style="stop-color:#000000;stop-opacity:0"/>
		</linearGradient>
		<path style="fill-rule:evenodd;clip-rule:evenodd;fill:url(#SVGID_3_);" d="M18.9,8c2.333,0.133,5.833,0.35,10.5,0.65
			c4,0.2,7.483,0.25,10.45,0.15L40.2,8.75c2.033-0.033,4.05-0.183,6.05-0.45l2.3-0.2c-0.967,3.566-4.5,6.15-10.6,7.75
			c-3.8,1-8.45,1.583-13.95,1.75c-3.567,0.1-6.184,0.083-7.85-0.05c-3.033-0.267-5.467-0.933-7.3-2C6.917,14.417,5.2,12.8,3.7,10.7
			C3.2,10.033,1.967,8,0,4.6C1.2,4.733,2.65,5,4.35,5.4H4.5l1.9,0.45l0.3,0.1l3.85,0.95h0.05l1.8,0.4l4.25,0.6h0.3
			c0.833,0.067,1.466,0.083,1.9,0.05L18.9,8z"/>
	</g>
</g>
</svg>
