<?xml version="1.0" encoding="iso-8859-1"?>
<!-- Generator: Adobe Illustrator 15.1.0, SVG Export Plug-In . SVG Version: 6.00 Build 0)  -->
<!DOCTYPE svg PUBLIC "-//W3C//DTD SVG 1.1//EN" "http://www.w3.org/Graphics/SVG/1.1/DTD/svg11.dtd">
<svg version="1.1" id="FlashAICB" xmlns="http://www.w3.org/2000/svg" xmlns:xlink="http://www.w3.org/1999/xlink" x="0px" y="0px"
	 width="863.65px" height="110px" viewBox="0 0 863.65 110" style="enable-background:new 0 0 863.65 110;" xml:space="preserve">
<g>
	<path style="fill-rule:evenodd;clip-rule:evenodd;fill:#3B1D07;" d="M740.35,107.1c-4.733,0.2-9.983,0.051-15.75-0.449
		c-11.166-0.934-18.133-1.5-20.899-1.7c-7.3-0.5-13.7-0.75-19.2-0.75h-98.55c-2.667,0-11.634,0.833-26.9,2.5
		c-15.3,1.633-26.583,2.45-33.85,2.45h-58.45c-25.767-0.4-48.767-0.767-69-1.101c-39.367-0.6-61.816-0.649-67.35-0.149
		c-6.867,0.633-18.85,0.949-35.95,0.949c-17.1,0-34.534-0.316-52.3-0.949c-15.767-0.567-32.533-0.934-50.3-1.101
		c-10.6-0.1-25.934-0.149-46-0.149c-13.867,0-28-0.25-42.4-0.75c-12.434-0.467-23.133-1.033-32.1-1.7
		c-6.7-0.533-19.967-0.684-39.8-0.45c-9.933,0.1-19.2,0.25-27.8,0.45l-2.3-10C0.483,90.033,0,84.217,0,76.75l0.3-10V0H863.65
		c-0.067,70.8-0.567,106.35-1.5,106.65c-1.233,0.433-4.667,0.85-10.301,1.25c-6.8,0.467-11.383,0.883-13.75,1.25
		c-4.366,0.666-9.816,0.933-16.35,0.8c-7.3-0.2-14.467-0.884-21.5-2.05c-6.2-1.033-12.983-1.551-20.35-1.551
		c-8.967,0.2-16.317,0.301-22.051,0.301C754.783,106.65,748.95,106.8,740.35,107.1z"/>
	<g>
		<path style="fill-rule:evenodd;clip-rule:evenodd;fill:#402006;" d="M724.6,16.2c0.767,0.167,0.75,0.367-0.05,0.6L724.6,16.2z"/>
		<path style="fill-rule:evenodd;clip-rule:evenodd;fill:#402006;" d="M719.45,17.45c2.467-0.167,4.166-0.383,5.1-0.65l-1.05,8.15
			h1.7c1.133,0,1.899,0.2,2.3,0.6h7.45c0.6,0,1.916-0.1,3.95-0.3c2-0.2,4.316-0.3,6.949-0.3c2.533,0,4.101-0.233,4.7-0.7
			c1.533-1.167,3.4-2.183,5.601-3.05c3.066-1.167,4.6-1.55,4.6-1.15c0,0.134-0.033,0.367-0.1,0.7c0.066,0.3,0.466,0.45,1.199,0.45
			c1.634,0,2.717-0.017,3.25-0.05c0.267-0.033,1.483-0.216,3.65-0.55c2.667-0.434,5.717-1.067,9.15-1.9
			c2.6-0.5,5.75-1.667,9.449-3.5c2.033-1,4.617-2.333,7.75-4c1.533-0.7,2.801-0.934,3.801-0.7c1.866,0.467,3.283,0.7,4.25,0.7
			c2.267,0,3.767,0.05,4.5,0.15c0.699,0.1,2.066,0.467,4.1,1.1c1.667,0.533,3.983,0.8,6.95,0.8c1.566,0,3.45-0.05,5.649-0.15
			c0.767,0,5.134,0.017,13.101,0.05c7.933-0.1,12.733-0.533,14.399-1.3c2.267-1.067,6.2-0.617,11.801,1.35
			c-0.101,43.8-0.367,71.833-0.801,84.1h-8.699c-6.034,0.2-10.95,0.3-14.75,0.3c-7.067,0-12.284-0.517-15.65-1.55
			c-3.134-0.967-6.967-1.283-11.5-0.95c-7.867,0.634-12.434,0.95-13.7,0.95c-4.533,0-6.366-0.416-5.5-1.25
			c0.434-0.399,1.316-0.816,2.65-1.25l-4.601-5.6l-0.3,1.55c-0.2,1.267-0.3,2.417-0.3,3.45s-0.684,1.95-2.05,2.75
			c-1.867,0.866-3.283,1.616-4.25,2.25c-1.134,0.733-3.017,1.233-5.65,1.5c-6.3,0.566-9.767,0.899-10.399,1
			c-3.301,0.467-5.25,0.6-5.851,0.399c-1.5-0.5-3.75-0.85-6.75-1.05c-3.434-0.2-5.816-0.5-7.149-0.899
			c-1.334-0.434-3.717-0.75-7.15-0.95s-6.833-0.3-10.2-0.3c-4.667,0-10.05-0.117-16.149-0.351c-8.301-0.2-14.018-0.35-17.15-0.45
			c-4.634-0.166-13.066-0.633-25.3-1.399c-10.7-0.7-18.684-1.667-23.95-2.9c-4.2-0.967-8.05-1.45-11.55-1.45
			c-5.233,0-9-0.316-11.3-0.949l-1.9-0.95l11.5-6.851c-4.233,0.4-10.733,0.817-19.5,1.25c-5.267,0.233-9.75,0.9-13.45,2
			c-3.833,1.367-7.184,2.367-10.05,3c-3.434,0.733-5.25,1.117-5.45,1.15c0,0.066-0.667,0.3-2,0.7
			c-3.066,0.967-6.7,2.417-10.899,4.35c-2.4,1.134-6.317,2.05-11.75,2.75c-7.367,0.934-18.733,1.684-34.101,2.25
			c-12.833,0.467-19.866,0.55-21.1,0.25c-3.767-0.967-8.384-1.666-13.851-2.1c-6.366-0.5-11.583-0.95-15.649-1.351
			c0.333,0.067-0.75,0.101-3.25,0.101c-2.667,0-5.334,0.417-8,1.25c-5.934,1.866-12.05,3.533-18.351,5
			c-8.166,1.899-12.683,2.517-13.55,1.85c-0.3-0.5-0.649-0.883-1.05-1.149c-0.7-0.467-2.134-0.7-4.3-0.7
			c-6.5,0-11.467-0.05-14.9-0.15c-5.533-0.166-11.65-0.533-18.35-1.1c-6.2-0.533-11.034-1-14.5-1.4l-3.3-0.5
			c0.867-0.5,1.95-1.25,3.25-2.25c2.6-1.967,4.967-4.116,7.1-6.45c1.3-1.399,1.983-2.183,2.05-2.35c0.067-0.2-0.3-0.1-1.1,0.3
			c-3.3,1.567-6.3,2.45-9,2.65c-2.667,0.2-6,0.3-10,0.3c-6.3,0-13.083,0.1-20.35,0.3c-8.333,0.233-12.083,0.317-11.25,0.25
			c0.267-0.033,0.816-0.083,1.65-0.149c0.467-0.067,0.033-0.101-1.3-0.101c-1.3,0-3.9-0.166-7.8-0.5c-3.133-0.3-6.45-0.333-9.95-0.1
			c-2.267,0.133-7.983,1.616-17.15,4.45c-10.167,3.133-20.3,5.399-30.4,6.8c-9.767,1.333-15,1.583-15.7,0.75
			c-0.8-0.934-1.517-1.55-2.15-1.851c-1.8-0.833-5.033-1.517-9.7-2.05c-8.567-1-13.767-1.283-15.6-0.85
			c-0.933,0.333-1.733,0.583-2.4,0.75c-1.267,0.366-3.083,0.616-5.45,0.75c-4.3,0.233-7.35,0.316-9.15,0.25
			c-3.566-0.167-7.017-0.25-10.35-0.25c-5.533,0-8.85-0.083-9.95-0.25c-2.167-0.467-5.35-1.017-9.55-1.65
			c-3.767-0.566-8.467-1.649-14.1-3.25c-4.633-1.366-8.9-2.149-12.8-2.35c-4.533-0.267-7.333-0.65-8.4-1.15
			c-0.333-0.166-0.467-0.333-0.4-0.5l0.2-0.2l1.95-1c1.6-0.732,3.233-1.232,4.9-1.5c1.933-0.3,3.3-1.083,4.1-2.35
			c0.7-1.133,1.05-2.85,1.05-5.15c0-1.8-0.85-3.066-2.55-3.8l-2.6-0.55l-4,5.6c-1.667,2.334-3.783,3.551-6.35,3.65l-3.4-0.55
			c-1.533-0.833-4.017-1.45-7.45-1.851c-2.133-0.267-4.017-0.55-5.65-0.85l-6.95-1.65c-0.567-0.166-0.867-0.283-0.9-0.35
			c-0.033-0.066,0.15-0.217,0.55-0.45c1.566-0.899,3.017-2.083,4.35-3.55c1.667-1.833,6.85-4.467,15.55-7.9
			c4.367-1.699,8.55-3.232,12.55-4.6l-6.9,1.85c-2.566,0.7-5.133,1.25-7.7,1.65c-5.167,0.767-9.467,1.467-12.9,2.1
			c-6.267,1.134-10.433,2.184-12.5,3.15c-0.2,0.066-4.066,2.35-11.6,6.85c-4.2,2.5-9.05,5.617-14.55,9.351
			c-4.2,2.5-8.316,3.75-12.35,3.75c-3.2,0-5.716,0.1-7.55,0.3s-4.483,0.3-7.95,0.3c-3.633,0-6.883,0.217-9.75,0.65
			c-2.867,0.399-5.533,0.6-8,0.6c-2.533,0-6.816-0.1-12.85-0.3c-6-0.2-10.7-0.3-14.1-0.3H1.45C0.483,90.033,0,84.217,0,76.75l0.3-10
			v-55.3c6.467,0.733,10.284,1.483,11.45,2.25c1.2,0.8,1.933,1.667,2.2,2.6c0.167,0.467,0.2,0.85,0.1,1.15l5.7,0.65
			c1.933,0.2,2.8,0.25,2.6,0.15c-0.567-0.3-0.283-0.566,0.85-0.8c1.3-0.233,2.333-0.667,3.1-1.3c1.034-0.867,1.917-1.466,2.65-1.8
			c1.1-0.467,1.983-0.617,2.65-0.45c1.3,0.3,2.316,0.45,3.05,0.45h9.75c7.267,0,11.85-0.417,13.75-1.25
			c0.967-0.434,2.117-0.75,3.45-0.95c1.333-0.233,2.483-0.55,3.45-0.95c1.367-0.6,2.867-0.983,4.5-1.15
			c1.2-0.133,4.85-0.366,10.95-0.7C85,9.083,87.15,8.9,86.95,8.8c-0.034-0.033-0.184-0.066-0.45-0.1h0.9c0.867,0,3.533-0.233,8-0.7
			c5.2-0.533,10.167-0.917,14.9-1.15c4.633-0.233,7.184-0.3,7.65-0.2c1.033,0.133,2.883,0.2,5.55,0.2c3.267,0,10.6-0.067,22-0.2
			c11.467-0.1,20.933-0.033,28.4,0.2l7.75,0.3c-2.867,0-3.15,0.1-0.85,0.3c2.767,0.267,4.883,0.35,6.35,0.25
			c0.833-0.067,1.967-0.15,3.4-0.25h10.3c2.1,0,3.517-0.017,4.25-0.05c2.133-0.167,5.683-0.35,10.65-0.55
			c6.2-0.233,11.883,0.217,17.05,1.35c2.567,0.566,4.517,1.15,5.85,1.75v1.9c0,0.833-0.133,1.566-0.4,2.2
			c-0.133,0.267-0.566,0.983-1.3,2.15c-0.233,0.367-0.633,1.383-1.2,3.05c-0.433,1.267-0.983,2.133-1.65,2.6
			c-0.733,0.533-0.483,1.417,0.75,2.65c0.633,0.633,1.333,1.2,2.1,1.7h4c1.3,0,2.667,0.216,4.1,0.65c1.434,0.4,2.934,0.6,4.5,0.6
			h15.5c0.867,0,1.967,0.1,3.3,0.3s2.717,0.3,4.15,0.3h6.3c7.833,0,8.967-0.833,3.4-2.5c-2.633-0.767-4.284-1.517-4.95-2.25
			l-0.2-0.85c0.4-1.667,1.167-2.917,2.3-3.75c1.066-1.233,2-2.267,2.8-3.1c1.534-1.6,3.467-2.65,5.8-3.15c1.9-0.4,4.867-0.7,8.9-0.9
			c4-0.2,6.95-0.517,8.85-0.95c2.4-0.533,3.417-1.517,3.05-2.95l-1.3-2.05l2.85-0.7c2.3-0.5,4.4-0.883,6.3-1.15
			c1.8-0.267,4.217-0.35,7.25-0.25c5.333,0.167,8.467,0.25,9.4,0.25c3.233,0,5.267-0.033,6.1-0.1c0.8-0.033,2.967-0.216,6.5-0.55
			c3.167-0.233,10.566,0.017,22.2,0.75C380.684,4.617,387.217,5,387.65,5c1.434,0,3.25,0.133,5.45,0.4
			c3.066,0.333,6.6,0.617,10.6,0.85c1.633,0.1,6.2,0.45,13.7,1.05c4.067,0.367,7.333,0.417,9.8,0.15c1.5-0.133,3.916-0.333,7.25-0.6
			c2.233-0.167,4.217-0.367,5.95-0.6L449.55,5h2.851c1.133,0,2.333,0.267,3.6,0.8c2.333,0.934,3.816,1.5,4.45,1.7
			c2.066,0.633,3.934,1.317,5.6,2.05c1.767,0.833,3.917,2.017,6.45,3.55c1.733,1.033,2.6,1.417,2.6,1.15
			c0-0.767,0.851-1.15,2.551-1.15c1.866,0,3.083-0.133,3.649-0.4c0.834-0.4,1.9-0.684,3.2-0.85c2.1-0.3,3.35-0.7,3.75-1.2
			c0.167-0.233,0.25-1.083,0.25-2.55c0-1.033-0.083-2.383-0.25-4.05l-0.3-2.2h17.75c2,0,3.434,0.316,4.3,0.95
			c2.033,1.467,3.467,2.4,4.3,2.8c1.667,0.8,2.367,0.983,2.101,0.55c-0.634-0.966-0.367-1.566,0.8-1.8c1.433-0.267,3.1-0.317,5-0.15
			c1.233,0.1,3.767,0.367,7.6,0.8c1.333,0.1,2.9,0.333,4.7,0.7c0.1,0,0.816-0.233,2.15-0.7c1.166-0.4,1.949-0.15,2.35,0.75
			c0.533,1.133,1.467,1.7,2.8,1.7c1.134,0,2.483,0.183,4.05,0.55c1.2,0.3,2.533,0.333,4,0.1c1.367-0.2,2.584-0.033,3.65,0.5
			c1.467,0.7,3.116,1.15,4.95,1.35c4.399,0.5,8.783,1.333,13.149,2.5c0.767,0.233,2.15,0.867,4.15,1.9c2.2,1,4.45,1.617,6.75,1.85
			c2.7,0.3,6.85,0.15,12.45-0.45c5.533-0.6,7.683-1.066,6.45-1.4c-1.034-0.3-0.2-1.05,2.5-2.25c2.166-1,4.583-1.917,7.25-2.75
			c1.333-0.4,2.1-0.583,2.3-0.55c0.566,0.167,1.899,0.134,4-0.1c2.433-0.233,5.399-0.3,8.899-0.2c6.301,0.133,10.4,0.2,12.301,0.2
			c4.3,0,6.767,0.033,7.399,0.1c3.566,0.3,5.884,0.483,6.95,0.55c3.434,0.2,5.8,0.383,7.1,0.55c0.7,0.034,3.483,0.05,8.351,0.05
			c5.033,0,10.833-0.2,17.399-0.6c3.301-0.233,6.101-0.45,8.4-0.65l-0.55,2.5l0.3,1c0.167,0.966,0.25,2.1,0.25,3.4
			c0,1.333,0.767,2.167,2.3,2.5c0.967,0.2,2.867,0.4,5.7,0.6c1.533,0.233,2.35,0.316,2.45,0.25c0.3-0.167,1.399-0.25,3.3-0.25
			c2,0,3.633-0.133,4.9-0.4C714.733,17.934,716.917,17.65,719.45,17.45z"/>
	</g>
	<path style="fill-rule:evenodd;clip-rule:evenodd;fill:#3B1D07;" d="M101.3,58.15c-2.4-0.934-4.367-1.4-5.9-1.4
		c-2.5,0-4.217-0.2-5.15-0.6c-1.3-0.567-3.017-2.034-5.15-4.4l-4.6-4.95h11.45c2.3,0,4.017-0.1,5.15-0.3
		c1.167-0.2,4.033-0.933,8.6-2.2c3.667-1,5.867-1.866,6.6-2.6c2.267-2.267,3.517-3.483,3.75-3.65c1.633-1.2,2.833-1.1,3.6,0.3
		c0.733,1.267,0.917,3.183,0.55,5.75c-0.4,2.733-1.3,5.217-2.7,7.45c-1.633,2.6-3.65,4.334-6.05,5.2
		C107.317,58.25,103.933,58.717,101.3,58.15z"/>
	<path style="fill-rule:evenodd;clip-rule:evenodd;fill:#3B1D07;" d="M64.3,70.1c-0.466-0.899-0.417-2.033,0.15-3.399
		c0.566-1.3,1.383-2.333,2.45-3.101c1.2-0.833,2.3-1.033,3.3-0.6c3,1.3,4.333,3.066,4,5.3c-0.367,2.3-2.467,3.45-6.3,3.45
		C66.033,71.75,64.833,71.2,64.3,70.1z"/>
	<path style="fill-rule:evenodd;clip-rule:evenodd;fill:#3B1D07;" d="M166.3,29.65c1.534,0.6,3.5,0.9,5.9,0.9
		c3.433,0,5.767-0.083,7-0.25c1.933-0.233,3.417-0.767,4.45-1.6l2.3-1.9l1.1,0.55c0.667,0.533,0.867,1.183,0.6,1.95l-0.55,1.9
		l-6.3,3.75h-11.45l-4.6-6.25L166.3,29.65z"/>
	<path style="fill-rule:evenodd;clip-rule:evenodd;fill:#3B1D07;" d="M316.6,37.4l2.5-0.75c1.633-0.2,2.333,0.467,2.1,2
		c-0.233,1.567-1.55,3.6-3.95,6.1c-1.2,1.267-2.367,2.367-3.5,3.3c-1.9,0.4-3.433,0.817-4.6,1.25c-0.7,0.267-1.767,0.45-3.2,0.55
		L304,49.9l-5.75-1.25l3.45-3.1h6.9c1.633,0,2.683-0.267,3.15-0.8c0.367-0.7,0.833-1.267,1.4-1.7c0.534-0.366,1.217-1.3,2.05-2.8
		C315.267,40.05,315.733,39.1,316.6,37.4z"/>
	<path style="fill-rule:evenodd;clip-rule:evenodd;fill:#3B1D07;" d="M393.25,10.35c3.067,2.2,4.833,3.95,5.3,5.25
		c0.3,0.767,0.517,1.217,0.65,1.35c0.167,0.133,0.55,0.2,1.15,0.2c2.433,0,5.467,0.517,9.1,1.55c3.767,1.1,6.316,2.1,7.65,3
		c1.133,0.733,2.967,1.4,5.5,2v3.1l2.3,2.5l4.8,1.2c3.733,0.934,6.916,1.783,9.55,2.55h5.7c0.1,0.333-0.066,0.567-0.5,0.7
		c-0.834,0.333-2.566,0.1-5.2-0.7h-3.45c-2.3,0-4.283,0.05-5.95,0.15c-2.767,0.167-6.317,0.533-10.65,1.1
		c-1.597,0.209-2.83,0.376-3.7,0.5l0.8,0.15c-1.133,0.1-1.866,0.15-2.2,0.15c-0.405,0,0.062-0.1,1.4-0.3l-6.05-1.1l1.7-1.25
		c0.733-0.534,0.867-1.317,0.4-2.35l-0.95-1.4c-15.3-0.434-24.283-0.65-26.95-0.65c-1.533,0-2.867,0.117-4,0.35
		c-1.167,0.2-1.933,0.3-2.3,0.3h-5.75c-0.9,0-2.25,0.7-4.05,2.1c-2.933,2.3-4.433,3.467-4.5,3.5c-0.966,0.634-1.417,0.967-1.35,1
		c0.133,0.167-0.184,0.667-0.95,1.5c-1.533,1.667-2.5,2.5-2.9,2.5h-4.55l-4.05,1.25l-1.65,1.55c-1.233,1.267-2.2,2.417-2.9,3.45
		c-0.667,0.967-2.733,2.634-6.2,5c-4.033,2.767-6.367,4.417-7,4.95c1.167-2.9,2.117-4.967,2.85-6.2l4.05-6.25l4-4.4
		c0.567-0.6,1.333-1.533,2.3-2.8c0.933-1.233,1.7-2.167,2.3-2.8c0.7-0.767,1.667-1.517,2.9-2.25l1.65-0.85
		c0.6-0.9,1.1-1.85,1.5-2.85c0.8-2.067,0.684-3.417-0.35-4.05c-1.667-1.033-4.067-2.167-7.2-3.4l-4.25-1.55l4.65-1.25
		c3.333-0.833,5.6-1.25,6.8-1.25c0.966,0,2.283-0.133,3.95-0.4c2.3-0.367,4.617-0.65,6.95-0.85c2.867-0.267,3.717-0.767,2.55-1.5
		l-2.55-1c-5.333-0.434-9.733-0.65-13.2-0.65c-2.2,0-3.483-0.083-3.85-0.25c-0.667-0.434-1.667-0.967-3-1.6
		c-1.667-0.8-3.883-1.967-6.65-3.5l-3.65-2.1l8.95,0.95c6.2,0.6,9.9,0.9,11.1,0.9h13.15c3.267,0,5.233,0.133,5.9,0.4
		c0.367,0.167,0.883,0.45,1.55,0.85c1.534,0.433,6.5,0.633,14.9,0.6L393.25,10.35z"/>
	<path style="fill-rule:evenodd;clip-rule:evenodd;fill:#3B1D07;" d="M426.05,75.5c-1,0.8-3.483,1.333-7.45,1.6
		c-2.3,0.167-5.934,0.25-10.9,0.25c-2.867,0-4.867,0.117-6,0.351l-0.85,0.3l7.75-3.75c5.333-2.5,8.483-3.75,9.45-3.75
		c0.8,0,1.983-1.116,3.55-3.35c1.7-2.434,3-3.817,3.9-4.15c1.434-0.533,5.783-1.733,13.05-3.6c3.634-0.934,7.117-1.817,10.45-2.65
		l-4.5,2.65c-3.167,1.866-5.116,3.066-5.85,3.6c-1.134,0.833-3.233,2.917-6.301,6.25C429.684,72.15,427.583,74.233,426.05,75.5z"/>
	<path style="fill-rule:evenodd;clip-rule:evenodd;fill:#3B1D07;" d="M560.75,31.2c4.3,0,9.316,0.733,15.05,2.2
		c2.867,0.7,5.3,1.417,7.3,2.15v6.25c0,1.3,1.717,2.617,5.15,3.95c1.733,0.7,3.45,1.25,5.15,1.65c-13,4.567-20.45,7.267-22.351,8.1
		c-1.899,0.833-4.383,1.05-7.45,0.65l-17.75,1.25c-1.933,0.399-3.666,0.816-5.199,1.25c-0.768,0.199-1.967,0.866-3.601,2
		c-2,1.399-3.649,2.399-4.95,3c-0.6,0.267-2.833,1.483-6.699,3.649c-2.934,1.634-5.301,2.7-7.101,3.2l-12,3.1
		c1.634-1.767,3.566-3.732,5.8-5.899c4.5-4.367,8.301-7.601,11.4-9.7c3.066-2.066,4.9-3.816,5.5-5.25
		c0.167-1.267,0.434-2.217,0.8-2.85c1.101-1.767,5.184-5.117,12.25-10.05C550.316,34.083,556.55,31.2,560.75,31.2z"/>
	<path style="fill-rule:evenodd;clip-rule:evenodd;fill:#3B1D07;" d="M540.1,26.2c-2.866-0.3-6.199-0.284-10,0.05L525.2,26.8
		c-0.767-0.3-1.434-0.667-2-1.1c-1.167-0.8-1.267-1.467-0.3-2c3.066-1.667,5.366-2.5,6.899-2.5h5.7c2.133,0,4.184,0.917,6.15,2.75
		C543.616,25.75,543.1,26.5,540.1,26.2z"/>
	<path style="fill-rule:evenodd;clip-rule:evenodd;fill:#3B1D07;" d="M513.2,24.7c0.2,0.433-0.15,0.85-1.05,1.25
		c-2.534,1.133-4.483,0.8-5.851-1c-1.2-1.534-1.416-2.25-0.649-2.15c0.566,0.067,2.116,0.367,4.649,0.9
		C512,23.833,512.967,24.167,513.2,24.7z"/>
	<path style="fill-rule:evenodd;clip-rule:evenodd;fill:#3B1D07;" d="M658.7,31.2c4.433-0.8,9.433-0.35,15,1.35
		c2.467,0.733,3.683,1.534,3.649,2.4c-0.033,1.066-1.85,2.1-5.449,3.1c-6.434,1.8-8.834,2.35-7.2,1.65
		c0.8-0.367,2.25-0.917,4.35-1.65c-3.833-0.433-6.7-0.65-8.6-0.65c-1.2,0-2.601-0.517-4.2-1.55l-2.1-1.55l1.6-1.45
		C656.983,31.883,657.967,31.333,658.7,31.2z"/>
	<path style="fill-rule:evenodd;clip-rule:evenodd;fill:#3B1D07;" d="M687.4,29.95c5.267,0.767,6.466,1.617,3.6,2.55l-5.9,1.2
		L687.4,29.95z"/>
	<path style="fill-rule:evenodd;clip-rule:evenodd;fill:#3B1D07;" d="M711.1,84.3c-2.733-0.467-4.149-0.7-4.25-0.7
		c-6.1,0-10.3-0.216-12.6-0.649c-1.434-0.233-3.483-0.717-6.15-1.45l-3.6-1.05l2.45-1.851c2.366-1.333,5.366-2.166,9-2.5
		c3.1-0.267,9.433,0.5,19,2.301c9.733,1.8,13.333,2.699,10.8,2.699c-5.267,0-8.884,0.834-10.85,2.5
		C714,84.333,712.733,84.566,711.1,84.3z"/>
	<path style="fill-rule:evenodd;clip-rule:evenodd;fill:#3B1D07;" d="M733.8,86.1c1.7,0,2.934,0.518,3.7,1.551
		s-0.283,1.55-3.15,1.55c-2.767,0-4.416-0.283-4.949-0.851c-0.134-0.166-0.2-0.916-0.2-2.25c0-0.633,0.2-0.866,0.6-0.699
		C730.934,85.867,732.267,86.1,733.8,86.1z"/>
	<path style="fill-rule:evenodd;clip-rule:evenodd;fill:#3B1D07;" d="M841.55,46.8l-3.45,3.7l-6.3,5h-5.75
		c-2.3-1.233-5.167-2.483-8.6-3.75c-1.934-0.7-3.2-1.083-3.8-1.15c-1.434-0.167-2.834-0.4-4.2-0.7c-2.4-0.533-3.117-1.316-2.15-2.35
		c0.467-0.5,1.184-0.966,2.15-1.4l4.25-4.05c3.566-2.633,7.116-3.783,10.649-3.45c7.7,0.767,10.917,2.15,9.65,4.15
		c-0.333,0.534-1.066,1.184-2.2,1.95c-0.767,0.533-0.967,0.8-0.6,0.8C832.733,45.55,836.184,45.967,841.55,46.8z"/>
	<path style="fill-rule:evenodd;clip-rule:evenodd;fill:#3B1D07;" d="M795.4,39.1c-2.5,1.367-6.233,2.05-11.2,2.05
		c-4.3,0-6.917-0.517-7.851-1.55c-0.3-0.333-0.416-0.684-0.35-1.05l0.2-0.5l4.75-1.9c4.133-1.066,8.666-1.066,13.6,0
		c1.367,0.3,2.117,0.733,2.25,1.3C796.9,37.983,796.434,38.533,795.4,39.1z"/>
	<path style="fill-rule:evenodd;clip-rule:evenodd;fill:#452206;" d="M104.6,38.65c-3.3,0.233-6.317,0.633-9.05,1.2
		c-2.233,0.467-4.383,0.7-6.45,0.7c-3.233,0-5.467-0.1-6.7-0.3c-1.433-0.233-3.967-0.967-7.6-2.2c-1.867-0.633-2.867-1-3-1.1
		c-0.133-0.1,0.333-0.167,1.4-0.2c4.3-0.167,8.066-0.767,11.3-1.8c3.667-1.167,7.183-2,10.55-2.5c6-0.9,10.9-1.733,14.7-2.5
		c2.167-0.434,3.633-0.284,4.4,0.45c0.733,0.7,0.767,1.684,0.1,2.95C112.55,36.583,109.333,38.35,104.6,38.65z"/>
	<path style="fill-rule:evenodd;clip-rule:evenodd;fill:#452206;" d="M227.9,58.85c-3.133-1.1-5.466-1.8-7-2.1
		c-2.7-0.533-2-1.133,2.1-1.8c1.7-0.267,5.4-0.7,11.1-1.3c0.267-0.033,3.467-0.716,9.6-2.05c5.633-1.233,12.55-2.217,20.75-2.95
		l18.35-3.1l-2,3.2c-1.7,2.367-3.517,4.2-5.45,5.5c-2.233,1.533-3.85,2.767-4.85,3.7c-0.867,0.767-2.5,2.45-4.9,5.05
		c-1.867,2.033-3.633,2.85-5.3,2.45c-2.167-1-4.216-1.601-6.15-1.8c-3.3-0.367-5.333-0.634-6.1-0.801
		c-1.366-0.267-2.966-0.833-4.8-1.699c-1.333-0.634-2.15-0.9-2.45-0.801c-0.833,0.334-2.5,0.384-5,0.15
		C233,60.267,230.367,59.717,227.9,58.85z"/>
	<path style="fill-rule:evenodd;clip-rule:evenodd;fill:#452206;" d="M325.5,33.3c-1.566,0.534-2.983,1.034-4.25,1.5
		c-2.4,0.867-3.95,1.733-4.65,2.6c-3.567,4.567-9.3,6.233-17.2,5c-1.9-0.3-3.133-1-3.7-2.1c-0.5-0.966-0.383-2.083,0.35-3.35
		c1.767-3,4.8-4.5,9.1-4.5C319.65,32.45,326.434,32.733,325.5,33.3z"/>
	<path style="fill-rule:evenodd;clip-rule:evenodd;fill:#452206;" d="M422.5,60.9c0.067,0.333,0.35,0.85,0.85,1.55
		c0.2,0.533-0.233,0.934-1.3,1.2c-2.133,0.5-6.033,0.75-11.7,0.75l-7.8-0.15c0.967-1.333,2.4-3,4.3-5
		c3.833-3.934,8.133-7.467,12.9-10.6c5-3.267,8.717-4.983,11.15-5.15c2.1-0.133,7.55,0.133,16.35,0.8
		c13.634,0.267,19.634,2.534,18,6.8c-0.566,1.5-2.017,2.95-4.35,4.35c-2.2,1.3-4.067,1.95-5.601,1.95
		c-1.566,0-3.883,0.133-6.95,0.399c-4.1,0.334-9.433,0.617-16,0.851C425.417,58.884,422.133,59.634,422.5,60.9z"/>
	<path style="fill-rule:evenodd;clip-rule:evenodd;fill:#452206;" d="M607.7,76.1c-1.033,0.2-2.884,0.9-5.55,2.101
		c-4,1.833-8.45,3.633-13.351,5.399c-3.2,1.167-5.95,1.45-8.25,0.851c-2-0.533-3.217-1.533-3.649-3c-0.4-1.5,0.133-2.833,1.6-4
		c1.667-1.3,4.15-1.95,7.45-1.95C602.75,75.5,610,75.7,607.7,76.1z"/>
	<path style="fill-rule:evenodd;clip-rule:evenodd;fill:#452206;" d="M708.85,54.1c-0.967,0.533-2.017,0.8-3.149,0.8
		c-2.967,0-5.851-0.4-8.65-1.2c-2.533-0.7-4.417-1.55-5.649-2.55c-0.967-0.767,0.966-1.833,5.8-3.2c2.8-0.767,7.733-1.983,14.8-3.65
		h40.7c2.3,0,3.833,0.05,4.6,0.15c1.134,0.167,2.083,0.533,2.851,1.1c0.699,0.534,1,1.317,0.899,2.35c-0.033,0.534-0.149,1-0.35,1.4
		l4.05,1.85c3.233,1.233,6.283,1.85,9.15,1.85c2.3,0,3.85,0.083,4.649,0.25c2.434,0.467,6.417,1.017,11.95,1.65
		c6.633,0.734,10.1,1.267,10.4,1.6c0.066,0.066-0.034,0.134-0.301,0.2c-0.1,0.033,0.167,0.05,0.801,0.05
		c1.199,0,4.433,0.934,9.699,2.8c6.567,2.367,11.367,3.934,14.4,4.7c3.934,1,4.283,1.417,1.05,1.25
		c-4.899-0.434-8.116-0.65-9.649-0.65H798.55c-5.333,0-8.967-0.283-10.899-0.85c-2.101-0.866-4.584-1.616-7.45-2.25
		c-3.367-0.733-6.134-1.033-8.3-0.9c-10.434,0.5-17.784,0.801-22.051,0.9c-9.833,0.233-14.733,0.267-14.699,0.1
		c0.166-0.533-2-0.982-6.5-1.35c-5.733-0.434-8.584-0.85-8.551-1.25c0.167-0.934-1.383-1.967-4.649-3.1
		C711.217,54.684,709.017,54,708.85,54.1z"/>
	<path style="fill-rule:evenodd;clip-rule:evenodd;fill:#452206;" d="M691.6,85.6c8.634,2,11.817,3,9.551,3H682.8
		c-4.566,0-7.434-0.033-8.6-0.1c-2.3-0.133-5.167-0.316-8.601-0.55c-4.3-0.233-7.616-1.117-9.949-2.65
		c-1.967-1.767-3.434-2.967-4.4-3.6c-1.033-0.7,0.5-0.95,4.6-0.75c2.301,0.1,6.117,0.333,11.45,0.7l2.3,0.05
		C675.434,82.267,682.767,83.566,691.6,85.6z"/>
</g>
</svg>
