<?xml version="1.0" encoding="iso-8859-1"?>
<!-- Generator: Adobe Illustrator 15.1.0, SVG Export Plug-In . SVG Version: 6.00 Build 0)  -->
<!DOCTYPE svg PUBLIC "-//W3C//DTD SVG 1.1//EN" "http://www.w3.org/Graphics/SVG/1.1/DTD/svg11.dtd">
<svg version="1.1" id="FlashAICB" xmlns="http://www.w3.org/2000/svg" xmlns:xlink="http://www.w3.org/1999/xlink" x="0px" y="0px"
	 width="43px" height="8.6px" viewBox="0 0 43 8.6" style="enable-background:new 0 0 43 8.6;" xml:space="preserve">
<g>
	<g>
		<path style="fill-rule:evenodd;clip-rule:evenodd;fill:#F4FAFA;" d="M38.25,2.7l0.4,0.15l3.05,1.8l0.35,0.85
			c-0.033,0.267-0.184,0.533-0.45,0.8c-0.333-0.233-0.933-0.383-1.8-0.45c-1-0.1-1.6-0.183-1.8-0.25c-0.333-0.1-0.634-0.333-0.9-0.7
			c-0.3-0.433-0.517-0.7-0.649-0.8c-0.4-0.3-0.867-0.467-1.4-0.5c-0.633,0.066-1.166,0.083-1.6,0.05
			c-0.934-0.033-2.084-0.233-3.45-0.6c-1.533-0.4-2.684-0.7-3.45-0.9H26.5C25.8,1.817,25,1.633,24.1,1.6c-1.166,0-2.066,0-2.699,0
			L20.55,1.3l0.55-0.05c1.167-0.167,2.967-0.167,5.4,0c0.033,0,0.083,0,0.15,0c1.699,0,2.966,0.083,3.8,0.25
			c0.533,0.1,1.416,0.35,2.649,0.75c1.067,0.333,1.934,0.533,2.601,0.6C36.767,3.017,37.616,2.967,38.25,2.7z M18.4,1.6V1.5L20,1.35
			c-0.067,0.033-0.217,0.117-0.45,0.25H18.4z M10,7L8.65,6.75c-0.566-0.1-1.066-0.217-1.5-0.35C6.717,6.3,6.083,6.2,5.25,6.1
			C5.15,6.066,5.067,6.05,5,6.05l0.45-0.5C5.883,5.15,6.35,4.9,6.85,4.8C7.183,4.7,7.733,4.633,8.5,4.6
			c0.567-0.033,1.35-0.05,2.35-0.05C11.717,4.483,12.467,4.3,13.1,4c0.333-0.167,0.917-0.533,1.75-1.1
			c0.733-0.533,1.333-0.883,1.8-1.05l0.75-0.2c0.167,0.167,0.35,0.65,0.55,1.45L16.7,3.6l-0.3-0.35V3.7
			c-0.2,0.066-0.6,0.267-1.2,0.6h-1.15c-0.033,0.333,0.067,0.617,0.3,0.851l-0.1,0.05L12.7,4.6c-0.5-0.1-0.967,0-1.4,0.3
			c0.167,0.267,0.534,0.5,1.1,0.7c0.567,0.167,1.05,0.2,1.45,0.101l-0.2,0.25c-0.566,0.666-1.183,1.1-1.85,1.3
			C11.133,7.15,10.533,7.066,10,7z"/>
		<radialGradient id="SVGID_1_" cx="26.0254" cy="4.9502" r="16.574" gradientUnits="userSpaceOnUse">
			<stop  offset="0" style="stop-color:#FFFFFF"/>
			<stop  offset="1" style="stop-color:#F4FAFA"/>
		</radialGradient>
		<path style="fill-rule:evenodd;clip-rule:evenodd;fill:url(#SVGID_1_);" d="M10,7c0.533,0.066,1.133,0.15,1.8,0.25
			c0.667-0.2,1.284-0.634,1.85-1.3l0.2-0.25c-0.4,0.1-0.883,0.066-1.45-0.101c-0.566-0.199-0.933-0.433-1.1-0.7
			c0.434-0.3,0.9-0.4,1.4-0.3l1.55,0.6l0.1-0.05c-0.233-0.234-0.333-0.517-0.3-0.851h1.15c0.6-0.333,1-0.533,1.2-0.6V3.25l0.3,0.35
			l1.25-0.5v0.05l0.1-0.2c0.034-0.1,0.05-0.383,0.05-0.85c-0.033-0.3,0.066-0.467,0.3-0.5h1.15c0.233-0.133,0.383-0.217,0.45-0.25
			l0.4-0.1l0.15,0.05L21.4,1.6c0.633,0,1.533,0,2.699,0c0.9,0.033,1.7,0.217,2.4,0.55h0.05c0.767,0.2,1.917,0.5,3.45,0.9
			c1.366,0.367,2.517,0.567,3.45,0.6c0.434,0.033,0.967,0.017,1.6-0.05c0.533,0.033,1,0.2,1.4,0.5c0.133,0.1,0.35,0.367,0.649,0.8
			c0.267,0.367,0.567,0.6,0.9,0.7c0.2,0.067,0.8,0.15,1.8,0.25c0.867,0.067,1.467,0.217,1.8,0.45c0.267-0.267,0.417-0.533,0.45-0.8
			c-0.033,0.333-0.25,0.667-0.649,1c-0.634,0.533-1.667,0.85-3.101,0.95c-1.633,0.033-2.75,0.05-3.35,0.05
			c-0.9,0.033-2.3,0.233-4.2,0.6c-1.8,0.334-3.184,0.5-4.15,0.5c-0.033,0-0.066,0-0.1,0c-2.533,0-4.3-0.017-5.3-0.05
			c-2-0.1-3.8-0.316-5.4-0.649c-0.733-0.167-2.167-0.384-4.3-0.65C10.967,7.184,10.467,7.1,10,7z M22.85,3.95
			C22.417,3.883,21.95,3.967,21.45,4.2c-0.534,0.2-0.917,0.483-1.15,0.85C20.067,5.417,20.1,5.733,20.4,6c0.2,0.167,0.5,0.3,0.9,0.4
			h-0.05l0.1,0.05c0.467,0.066,0.817,0.083,1.051,0.05C23.033,6.434,23.6,6.233,24.1,5.9c0.367-0.233,0.601-0.517,0.7-0.851
			c0.134-0.367,0-0.65-0.399-0.85C23.934,3.9,23.417,3.817,22.85,3.95z M19,4.15L18.75,3.4L18.7,4.05L19,4.15z"/>
		<path style="fill-rule:evenodd;clip-rule:evenodd;fill:#BACDDF;" d="M20,1.35L18.4,1.5v0.1c-0.233,0.033-0.333,0.2-0.3,0.5
			c0,0.467-0.017,0.75-0.05,0.85l-0.1,0.2V3.1c-0.2-0.8-0.383-1.283-0.55-1.45l-0.75,0.2c-0.467,0.167-1.066,0.517-1.8,1.05
			C14.017,3.467,13.433,3.833,13.1,4c-0.633,0.3-1.383,0.483-2.25,0.55c-1,0-1.783,0.017-2.35,0.05C7.733,4.633,7.183,4.7,6.85,4.8
			c-0.5,0.1-0.967,0.351-1.4,0.75L5,6.05C3.833,5.95,2.967,5.866,2.4,5.8C1.4,5.7,0.6,5.533,0,5.3c2.033-0.7,3.433-1.15,4.2-1.35
			c1.533-0.4,3.017-0.617,4.45-0.65c0.533,0,1.3,0,2.3,0c0.867-0.033,1.6-0.2,2.2-0.5c0.267-0.133,0.8-0.466,1.6-1
			C15.417,1.367,16,1.067,16.5,0.9c0.833-0.267,2.2-0.5,4.1-0.7c1.9-0.2,3.867-0.233,5.9-0.1c0.2,0,0.4,0.017,0.6,0.05l10.551,2.3
			c0.199,0.1,0.399,0.183,0.6,0.25c-0.634,0.267-1.483,0.316-2.55,0.15c-0.667-0.067-1.533-0.267-2.601-0.6
			c-1.233-0.4-2.116-0.65-2.649-0.75c-0.834-0.167-2.101-0.25-3.8-0.25c-0.067,0-0.117,0-0.15,0c-2.434-0.167-4.233-0.167-5.4,0
			L20.55,1.3L20.4,1.25L20,1.35z M19,4.15l-0.3-0.1l0.05-0.65L19,4.15z"/>
		<radialGradient id="SVGID_2_" cx="38.1504" cy="2.6499" r="0.55" gradientUnits="userSpaceOnUse">
			<stop  offset="0" style="stop-color:#FFFFFF"/>
			<stop  offset="1" style="stop-color:#F4FAFA"/>
		</radialGradient>
		<path style="fill-rule:evenodd;clip-rule:evenodd;fill:url(#SVGID_2_);" d="M38.65,2.85l-0.4-0.15c-0.2-0.067-0.4-0.15-0.6-0.25
			C37.983,2.583,38.316,2.717,38.65,2.85z"/>
		<path style="fill-rule:evenodd;clip-rule:evenodd;fill:#FFFFFF;" d="M22.85,3.95C23.417,3.817,23.934,3.9,24.4,4.2
			C24.8,4.4,24.934,4.683,24.8,5.05c-0.1,0.334-0.333,0.617-0.7,0.851c-0.5,0.333-1.066,0.533-1.699,0.6
			c-0.233,0.033-0.584,0.017-1.051-0.05l-0.1-0.05h0.05C20.9,6.3,20.6,6.167,20.4,6c-0.3-0.267-0.333-0.583-0.1-0.95
			c0.233-0.367,0.617-0.65,1.15-0.85C21.95,3.967,22.417,3.883,22.85,3.95C22.483,4.017,22.083,4.2,21.65,4.5l0.699-0.3l1-0.1h0.2
			L23.4,4.05L22.85,3.95z"/>
		<radialGradient id="SVGID_3_" cx="22.5996" cy="4.25" r="1" gradientUnits="userSpaceOnUse">
			<stop  offset="0" style="stop-color:#FFFFFF"/>
			<stop  offset="1" style="stop-color:#F4FAFA"/>
		</radialGradient>
		<path style="fill-rule:evenodd;clip-rule:evenodd;fill:url(#SVGID_3_);" d="M22.85,3.95l0.551,0.1L23.55,4.1h-0.2l-1,0.1
			L21.65,4.5C22.083,4.2,22.483,4.017,22.85,3.95z"/>
	</g>
</g>
</svg>
