<?xml version="1.0" encoding="iso-8859-1"?>
<!-- Generator: Adobe Illustrator 15.1.0, SVG Export Plug-In . SVG Version: 6.00 Build 0)  -->
<!DOCTYPE svg PUBLIC "-//W3C//DTD SVG 1.1//EN" "http://www.w3.org/Graphics/SVG/1.1/DTD/svg11.dtd">
<svg version="1.1" id="FlashAICB" xmlns="http://www.w3.org/2000/svg" xmlns:xlink="http://www.w3.org/1999/xlink" x="0px" y="0px"
	 width="225px" height="22.2px" viewBox="0 0 225 22.2" style="enable-background:new 0 0 225 22.2;" xml:space="preserve">
<g>
	<path style="fill-rule:evenodd;clip-rule:evenodd;fill:#6A972D;" d="M30.6,11.2l0.6-0.35c0.533-0.267,1.15-0.417,1.85-0.45
		c0.6-0.033,1.684-0.367,3.25-1c1.6-0.7,2.583-1.05,2.95-1.05c0.433-0.034,1.367-0.284,2.8-0.75c1.5-0.4,2.9-0.4,4.2,0
		c1.167,0.333,2.533-0.017,4.1-1.05c1.8-1.167,3.183-1.767,4.15-1.8c1.3-0.066,2.7-0.35,4.2-0.85c2.566-0.867,4.183-1.383,4.85-1.55
		c2.067-0.534,3.717-0.9,4.95-1.1C69.7,1.083,71.183,1,72.95,1c1.267,0,2.383-0.05,3.35-0.15c0.967-0.133,1.8-0.2,2.5-0.2h4.65
		c1.1,0,1.933,0.034,2.5,0.1c0.8,0.1,1.983,0.333,3.55,0.7c1.167,0.267,2.233,0.267,3.2,0c1-0.333,1.917-0.4,2.75-0.2
		c1.066,0.233,2.233,0.184,3.5-0.15c0.733-0.2,1.917-0.534,3.55-1c1.033-0.2,2.367-0.1,4,0.3c2.333,0.567,3.85,0.883,4.55,0.95
		c3.2,0.333,5.05,0.9,5.55,1.7c0.534,0.8-0.416,1.284-2.85,1.45c-2.133,0.133-3.483,0.217-4.05,0.25
		c-0.767,0.066-2.117,0.283-4.05,0.65c-1.1,0.2-1.7,0.35-1.8,0.45c-0.1,0.066,0.05,0.216,0.45,0.45c1.4,0.733,2.117,1.75,2.15,3.05
		c0.033,1.3-0.15,1.75-0.55,1.35c-0.867-0.934-1.75-1.35-2.65-1.25c-1.2,0.167-2.383,0.167-3.55,0
		c-0.133-0.034-2.217-0.434-6.25-1.2c-2.167-0.4-3.067-0.517-2.7-0.35c0.833,0.4,0.75,0.633-0.25,0.7
		c-1.533,0.033-2.783,0.1-3.75,0.2c-1.6,0.134-4.167,0.567-7.7,1.3c-3.267,0.667-4.9,0.883-4.9,0.65c0.1-0.233,0.167-0.45,0.2-0.65
		c0.066-0.367-0.15-0.684-0.65-0.95c-0.867-0.5-2.284-0.566-4.25-0.2c-2.8,0.533-4.917,0.8-6.35,0.8c-1.833-0.033-2.717,0-2.65,0.1
		c0.167,0.233-0.25,0.466-1.25,0.7c-1.067,0.233-2.017,0.134-2.85-0.3c-0.8-0.434-1.717-0.467-2.75-0.1
		c-1,0.333-2.05,0.45-3.15,0.35c-1.2-0.133-2.383-0.017-3.55,0.35c-1.4,0.433-2.65,0.617-3.75,0.55c-1.633-0.133-3.35-0.2-5.15-0.2
		H30.6z"/>
	<path style="fill-rule:evenodd;clip-rule:evenodd;fill:#6A972D;" d="M186.8,9.5c0.2,0.333-1.7,0.3-5.7-0.1S179,9.033,186.8,9.5z"/>
	<path style="fill-rule:evenodd;clip-rule:evenodd;fill:#6A972D;" d="M134.65,7.2c-0.367-0.1-0.417-0.434-0.15-1
		c0.2-0.4,0.7-0.567,1.5-0.5c0.967,0.1,1.684,0,2.15-0.3c0.6-0.367,1.25-0.633,1.949-0.8c0.334-0.067,0.617-0.1,0.851-0.1
		c-5.434-0.233-8.283-0.583-8.55-1.05c-0.134-0.233-0.117-0.333,0.05-0.3c0.5,0.1,1,0.083,1.5-0.05c0.533-0.1,1.25-0.15,2.149-0.15
		c1.167,0,2.267-0.067,3.301-0.2c1.033-0.1,1.583-0.167,1.649-0.2c0.2-0.1,0.95-0.267,2.25-0.5c1.533-0.267,2.45-0.383,2.75-0.35
		c1.334,0.2,2.351,0.316,3.05,0.35c2.467,0.134,5.9,0.2,10.301,0.2c3.633,0,5.899,0.05,6.8,0.15c0.6,0.067,2.066,0.133,4.399,0.2
		c1.801,0.066,3.067,0.233,3.801,0.5c0.3,0.1,1.716,0.417,4.25,0.95c2.033,0.434,3.383,0.9,4.05,1.4
		c0.767,0.566,2.616,1.05,5.55,1.45c2.3,0.3,4.283,0.45,5.95,0.45c1.2,0,2.684,0.367,4.45,1.1c1.8,0.767,3.199,1.616,4.199,2.55
		c0.5,0.467,0.684,0.717,0.551,0.75c-0.101,0-0.75-0.133-1.95-0.4c-4.134-0.867-9.017-1.483-14.65-1.85
		c-0.033-0.267-0.066-0.483-0.1-0.65c-0.101-0.3-0.434-0.517-1-0.65c-1.634-0.367-5.667,0.05-12.101,1.25
		c-5.1,0.966-8.017,1.033-8.75,0.2c-0.199-0.466-0.366-0.767-0.5-0.9c-0.199-0.233-0.75-0.233-1.649,0
		c-1.4,0.533-2.267,0.8-2.601,0.8c-0.233,0-1.3-0.383-3.199-1.15c-0.934-0.367-1.534-0.466-1.801-0.3L154.7,8.95
		c-0.5,1.1-2.483,1.383-5.95,0.85c-3.1-0.466-4.517-0.65-4.25-0.55c0.9,0.267,0.366,0.333-1.6,0.2c-1.467-0.1-2.284-0.167-2.45-0.2
		c-0.167-0.033-0.033-0.1,0.399-0.2c1.767-0.433,2.834-1,3.2-1.7c0.3-0.534,0.45-0.833,0.45-0.9c-0.033-0.067-0.25-0.034-0.65,0.1
		c-1.533,0.534-3.149,0.8-4.85,0.8C136.467,7.35,135.017,7.3,134.65,7.2z"/>
	<path style="fill-rule:evenodd;clip-rule:evenodd;fill:#6A972D;" d="M94.7,9.8c1.2,0,2.216,0.117,3.05,0.35
		c0.833,0.267,1.25,0.567,1.25,0.9c0,0.333-0.417,0.617-1.25,0.85c-0.833,0.234-1.85,0.35-3.05,0.35c-1.167,0-2.167-0.116-3-0.35
		c-0.833-0.233-1.25-0.517-1.25-0.85c0-0.333,0.417-0.633,1.25-0.9C92.533,9.917,93.533,9.8,94.7,9.8z"/>
	<path style="fill-rule:evenodd;clip-rule:evenodd;fill:#6A972D;" d="M108.9,7c0.6,0,1.117,0.066,1.55,0.2
		c0.4,0.133,0.6,0.3,0.6,0.5c0,0.167-0.2,0.333-0.6,0.5c-0.434,0.133-0.95,0.2-1.55,0.2s-1.1-0.066-1.5-0.2
		c-0.433-0.167-0.65-0.333-0.65-0.5c0-0.2,0.217-0.367,0.65-0.5C107.8,7.066,108.3,7,108.9,7z"/>
	<path style="fill-rule:evenodd;clip-rule:evenodd;fill:#6A972D;" d="M115.3,5.9c0.434,0,0.8,0.083,1.101,0.25
		c0.3,0.133,0.449,0.3,0.449,0.5c0,0.167-0.149,0.333-0.449,0.5c-0.301,0.133-0.667,0.2-1.101,0.2c-0.399,0-0.767-0.067-1.1-0.2
		c-0.3-0.167-0.45-0.333-0.45-0.5c0-0.2,0.15-0.367,0.45-0.5C114.5,5.983,114.866,5.9,115.3,5.9z"/>
	<path style="fill-rule:evenodd;clip-rule:evenodd;fill:#6A972D;" d="M117.3,5c-0.3-0.133-0.45-0.3-0.45-0.5
		c0-0.467,0.517-0.7,1.551-0.7c1.033,0,1.55,0.233,1.55,0.7s-0.517,0.7-1.55,0.7C117.967,5.2,117.6,5.133,117.3,5z"/>
	<path style="fill-rule:evenodd;clip-rule:evenodd;fill:#6A972D;" d="M27.1,12.25c0-0.267,0.333-0.517,1-0.75
		c0.7-0.2,1.533-0.3,2.5-0.3s1.8,0.1,2.5,0.3c0.667,0.233,1,0.483,1,0.75c0,0.3-0.333,0.566-1,0.8c-0.7,0.2-1.533,0.3-2.5,0.3
		s-1.8-0.1-2.5-0.3C27.433,12.816,27.1,12.55,27.1,12.25z"/>
	<path style="fill-rule:evenodd;clip-rule:evenodd;fill:#6A972D;" d="M26.15,14.4c1.167,0,1.75,0.116,1.75,0.35
		s-0.583,0.35-1.75,0.35c-1.167,0-1.75-0.116-1.75-0.35S24.983,14.4,26.15,14.4z"/>
	<path style="fill-rule:evenodd;clip-rule:evenodd;fill:#6A972D;" d="M21.45,15.8c1.167,0,1.75,0.05,1.75,0.15
		c0,0.133-0.583,0.2-1.75,0.2c-1.167,0-1.75-0.067-1.75-0.2C19.7,15.85,20.283,15.8,21.45,15.8z"/>
	<path style="fill-rule:evenodd;clip-rule:evenodd;fill:#6A972D;" d="M31.35,14.9c0-0.101,0.533-0.15,1.6-0.15
		c1.033,0,1.55,0.05,1.55,0.15c0,0.133-0.517,0.199-1.55,0.199C31.883,15.1,31.35,15.033,31.35,14.9z"/>
	<path style="fill-rule:evenodd;clip-rule:evenodd;fill:#6A972D;" d="M36.75,13.1c-0.733-0.166-1.1-0.383-1.1-0.649
		c0-0.233,0.367-0.45,1.1-0.65c0.7-0.167,1.567-0.25,2.6-0.25s1.9,0.083,2.6,0.25c0.733,0.2,1.1,0.417,1.1,0.65
		c0,0.267-0.367,0.483-1.1,0.649c-0.7,0.167-1.567,0.25-2.6,0.25S37.45,13.267,36.75,13.1z"/>
	<path style="fill-rule:evenodd;clip-rule:evenodd;fill:#6A972D;" d="M51.2,13.35c1.8,0,2.7,0.117,2.7,0.351s-0.9,0.35-2.7,0.35
		c-1.833,0-2.75-0.116-2.75-0.35S49.367,13.35,51.2,13.35z"/>
	<path style="fill-rule:evenodd;clip-rule:evenodd;fill:#6A972D;" d="M58.2,15.1c1.3,0,1.95,0.117,1.95,0.351S59.5,15.8,58.2,15.8
		c-1.3,0-1.95-0.116-1.95-0.35S56.9,15.1,58.2,15.1z"/>
	<path style="fill-rule:evenodd;clip-rule:evenodd;fill:#6A972D;" d="M64.2,9.8c2.2,0,3.3,0.184,3.3,0.55c0,0.333-1.1,0.5-3.3,0.5
		c-0.867,0-1.633-0.05-2.3-0.15c-0.667-0.1-1-0.217-1-0.35C60.9,9.983,62,9.8,64.2,9.8z"/>
	<path style="fill-rule:evenodd;clip-rule:evenodd;fill:#6A972D;" d="M76.05,13c-1.267,0-2.367-0.1-3.3-0.3
		c-0.9-0.233-1.35-0.5-1.35-0.8c0-0.267,0.45-0.517,1.35-0.75c0.933-0.2,2.033-0.3,3.3-0.3c1.3,0,2.417,0.1,3.35,0.3
		c0.9,0.233,1.35,0.483,1.35,0.75c0,0.3-0.45,0.567-1.35,0.8C78.467,12.9,77.35,13,76.05,13z"/>
	<path style="fill-rule:evenodd;clip-rule:evenodd;fill:#6A972D;" d="M86.15,11.2c2.1,0,3.15,0.183,3.15,0.55
		c0,0.333-1.05,0.5-3.15,0.5c-2.066,0-3.1-0.167-3.1-0.5c0-0.133,0.3-0.267,0.9-0.4C84.583,11.25,85.317,11.2,86.15,11.2z"/>
	<path style="fill-rule:evenodd;clip-rule:evenodd;fill:#6A972D;" d="M155.55,10.85c0.467,0,0.884,0.066,1.25,0.2
		c0.334,0.167,0.5,0.333,0.5,0.5c0,0.2-0.166,0.367-0.5,0.5c-0.366,0.134-0.783,0.2-1.25,0.2c-1.166,0-1.75-0.233-1.75-0.7
		c0-0.167,0.167-0.333,0.5-0.5C154.634,10.917,155.05,10.85,155.55,10.85z"/>
	<path style="fill-rule:evenodd;clip-rule:evenodd;fill:#6A972D;" d="M170.7,11.55c0.566,0,1.066,0.067,1.5,0.2
		c0.434,0.167,0.649,0.333,0.649,0.5c0,0.2-0.216,0.384-0.649,0.55c-0.434,0.134-0.934,0.2-1.5,0.2c-0.601,0-1.101-0.066-1.5-0.2
		c-0.434-0.166-0.65-0.35-0.65-0.55c0-0.167,0.217-0.333,0.65-0.5C169.6,11.617,170.1,11.55,170.7,11.55z"/>
	<path style="fill-rule:evenodd;clip-rule:evenodd;fill:#6A972D;" d="M179.8,10.5c0.767,0,1.417,0.117,1.95,0.35
		c0.533,0.267,0.8,0.566,0.8,0.9c0,0.333-0.267,0.617-0.8,0.85c-0.566,0.268-1.217,0.4-1.95,0.4s-1.366-0.133-1.899-0.4
		c-0.534-0.232-0.801-0.517-0.801-0.85c0-0.333,0.267-0.633,0.801-0.9C178.4,10.617,179.033,10.5,179.8,10.5z"/>
	<path style="fill-rule:evenodd;clip-rule:evenodd;fill:#6A972D;" d="M189.75,14.05c0.366,0,0.55,0.05,0.55,0.15
		c0,0.133-0.184,0.2-0.55,0.2c-0.4,0-0.6-0.067-0.6-0.2C189.15,14.1,189.35,14.05,189.75,14.05z"/>
	<path style="fill-rule:evenodd;clip-rule:evenodd;fill:#6A972D;" d="M193.8,14.55c0-0.1,0.517-0.149,1.55-0.149
		c1.034,0,1.551,0.05,1.551,0.149c0,0.134-0.517,0.2-1.551,0.2C194.316,14.75,193.8,14.684,193.8,14.55z"/>
</g>
<g>
	<path style="fill-rule:evenodd;clip-rule:evenodd;fill:#CCD6C2;" d="M1.75,16.25c0.467,0,0.883,0.05,1.25,0.15
		c0.333,0.1,0.5,0.217,0.5,0.35c0,0.167-0.167,0.3-0.5,0.4C2.633,17.25,2.217,17.3,1.75,17.3C0.583,17.3,0,17.117,0,16.75
		c0-0.133,0.167-0.25,0.5-0.35C0.867,16.3,1.283,16.25,1.75,16.25z"/>
	<path style="fill-rule:evenodd;clip-rule:evenodd;fill:#CCD6C2;" d="M10.35,14.65c1.267,0,1.9,0.183,1.9,0.55
		c0,0.333-0.633,0.5-1.9,0.5c-0.5,0-0.95-0.05-1.35-0.15c-0.367-0.1-0.55-0.217-0.55-0.35c0-0.134,0.183-0.267,0.55-0.4
		C9.367,14.7,9.817,14.65,10.35,14.65z"/>
	<path style="fill-rule:evenodd;clip-rule:evenodd;fill:#CCD6C2;" d="M15.45,14.9c-0.6,0-0.9-0.134-0.9-0.4s0.3-0.4,0.9-0.4
		c0.566,0,0.85,0.134,0.85,0.4S16.017,14.9,15.45,14.9z"/>
	<path style="fill-rule:evenodd;clip-rule:evenodd;fill:#CCD6C2;" d="M20.1,14.65c0.767,0,1.15,0.183,1.15,0.55
		c0,0.333-0.383,0.5-1.15,0.5s-1.15-0.167-1.15-0.5C18.95,14.833,19.333,14.65,20.1,14.65z"/>
	<path style="fill-rule:evenodd;clip-rule:evenodd;fill:#CCD6C2;" d="M27.1,12.8c0.767,0,1.15,0.134,1.15,0.4S27.867,13.6,27.1,13.6
		s-1.15-0.133-1.15-0.399S26.333,12.8,27.1,12.8z"/>
	<path style="fill-rule:evenodd;clip-rule:evenodd;fill:#CCD6C2;" d="M28.25,11.2c1.167,0,1.75,0.1,1.75,0.3
		c0,0.167-0.583,0.25-1.75,0.25s-1.75-0.083-1.75-0.25C26.5,11.3,27.083,11.2,28.25,11.2z"/>
	<path style="fill-rule:evenodd;clip-rule:evenodd;fill:#CCD6C2;" d="M33.05,10.4c0.7,0,1.3,0.083,1.8,0.25
		c0.467,0.167,0.7,0.35,0.7,0.55c0,0.233-0.233,0.417-0.7,0.55c-0.5,0.167-1.1,0.25-1.8,0.25c-0.667,0-1.25-0.083-1.75-0.25
		c-0.466-0.133-0.7-0.316-0.7-0.55c0-0.2,0.233-0.384,0.7-0.55C31.8,10.483,32.383,10.4,33.05,10.4z"/>
	<path style="fill-rule:evenodd;clip-rule:evenodd;fill:#DED07E;" d="M34.15,13.55c0.867-0.1,1.333,0.033,1.4,0.4
		c0.067,0.399-0.35,0.667-1.25,0.8c-0.833,0.134-1.283-0.017-1.35-0.45c-0.034-0.133,0.066-0.283,0.3-0.45
		C33.517,13.717,33.817,13.617,34.15,13.55z"/>
	<path style="fill-rule:evenodd;clip-rule:evenodd;fill:#CCD6C2;" d="M37.9,15.7c1.167,0,1.75,0.184,1.75,0.55
		c0,0.333-0.583,0.5-1.75,0.5c-1.167,0-1.75-0.167-1.75-0.5C36.15,15.884,36.733,15.7,37.9,15.7z"/>
	<path style="fill-rule:evenodd;clip-rule:evenodd;fill:#CCD6C2;" d="M43.4,14.9c0.8,0,1.5,0.1,2.1,0.3
		c0.567,0.167,0.85,0.383,0.85,0.649c0,0.268-0.283,0.483-0.85,0.65s-1.267,0.25-2.1,0.25c-0.8,0-1.483-0.083-2.05-0.25
		c-0.567-0.167-0.85-0.383-0.85-0.65c0-0.267,0.283-0.482,0.85-0.649C41.917,15,42.6,14.9,43.4,14.9z"/>
	<path style="fill-rule:evenodd;clip-rule:evenodd;fill:#CCD6C2;" d="M46.75,14.1c0.7,0,1.05,0.134,1.05,0.4s-0.35,0.4-1.05,0.4
		c-0.667,0-1-0.134-1-0.4S46.083,14.1,46.75,14.1z"/>
	<path style="fill-rule:evenodd;clip-rule:evenodd;fill:#DED07E;" d="M50.25,12.25c0.7,0,1.3,0.066,1.8,0.2
		c0.467,0.133,0.7,0.3,0.7,0.5c0,0.434-0.833,0.649-2.5,0.649c-1.633,0-2.45-0.216-2.45-0.649c0-0.2,0.233-0.367,0.7-0.5
		C49,12.316,49.583,12.25,50.25,12.25z"/>
	<path style="fill-rule:evenodd;clip-rule:evenodd;fill:#CCD6C2;" d="M43.7,12.65c0-0.267,0.4-0.4,1.2-0.4
		c0.767,0,1.15,0.134,1.15,0.4s-0.383,0.399-1.15,0.399C44.1,13.05,43.7,12.917,43.7,12.65z"/>
	<path style="fill-rule:evenodd;clip-rule:evenodd;fill:#CCD6C2;" d="M41.1,11.5c0-0.367,0.483-0.55,1.45-0.55
		c0.967,0,1.45,0.183,1.45,0.55c0,0.133-0.133,0.25-0.4,0.35c-0.3,0.1-0.65,0.15-1.05,0.15c-0.4,0-0.733-0.05-1-0.15
		C41.25,11.75,41.1,11.633,41.1,11.5z"/>
	<path style="fill-rule:evenodd;clip-rule:evenodd;fill:#CCD6C2;" d="M41.4,9.9c-1.167,0-1.75-0.133-1.75-0.4s0.583-0.4,1.75-0.4
		c1.167,0,1.75,0.133,1.75,0.4S42.567,9.9,41.4,9.9z"/>
	<path style="fill-rule:evenodd;clip-rule:evenodd;fill:#CCD6C2;" d="M49.55,8.55c-0.633,0-1.183-0.066-1.65-0.2
		s-0.7-0.284-0.7-0.45s0.233-0.316,0.7-0.45c0.467-0.134,1.017-0.2,1.65-0.2s1.184,0.066,1.65,0.2c0.433,0.133,0.65,0.283,0.65,0.45
		C51.85,8.333,51.083,8.55,49.55,8.55z"/>
	<path style="fill-rule:evenodd;clip-rule:evenodd;fill:#CCD6C2;" d="M54.95,7.5c-1.467,0-2.2-0.133-2.2-0.4s0.733-0.4,2.2-0.4
		c1.433,0,2.15,0.133,2.15,0.4S56.383,7.5,54.95,7.5z"/>
	<path style="fill-rule:evenodd;clip-rule:evenodd;fill:#CCD6C2;" d="M55.35,9.65c1.167,0,1.75,0.167,1.75,0.5
		c0,0.367-0.583,0.55-1.75,0.55c-0.467,0-0.883-0.05-1.25-0.15c-0.333-0.1-0.5-0.233-0.5-0.4C53.6,9.816,54.183,9.65,55.35,9.65z"/>
	<path style="fill-rule:evenodd;clip-rule:evenodd;fill:#CCD6C2;" d="M51.85,10.4c1.367,0,2.05,0.184,2.05,0.55
		c0,0.366-0.683,0.55-2.05,0.55c-1.333,0-2-0.184-2-0.55c0-0.134,0.2-0.267,0.6-0.4C50.85,10.45,51.317,10.4,51.85,10.4z"/>
	<path style="fill-rule:evenodd;clip-rule:evenodd;fill:#CCD6C2;" d="M39.35,14.4c-1.167,0-1.75-0.267-1.75-0.801
		c0-0.533,0.583-0.8,1.75-0.8c0.467,0,0.883,0.084,1.25,0.25c0.333,0.134,0.5,0.317,0.5,0.55c0,0.233-0.167,0.417-0.5,0.551
		C40.233,14.316,39.817,14.4,39.35,14.4z"/>
	<path style="fill-rule:evenodd;clip-rule:evenodd;fill:#CCD6C2;" d="M58.3,15.7c0,0.366-0.533,0.55-1.6,0.55
		c-1.067,0-1.6-0.184-1.6-0.55c0-0.333,0.533-0.5,1.6-0.5C57.767,15.2,58.3,15.367,58.3,15.7z"/>
	<path style="fill-rule:evenodd;clip-rule:evenodd;fill:#CCD6C2;" d="M61.2,13.35c1.367,0,2.05,0.134,2.05,0.4
		c0,0.233-0.683,0.35-2.05,0.35s-2.05-0.116-2.05-0.35C59.15,13.483,59.833,13.35,61.2,13.35z"/>
	<path style="fill-rule:evenodd;clip-rule:evenodd;fill:#CCD6C2;" d="M73.95,5.8c-0.667,0-1.25-0.066-1.75-0.2
		c-0.467-0.167-0.7-0.35-0.7-0.55c0-0.2,0.233-0.366,0.7-0.5c0.5-0.167,1.083-0.25,1.75-0.25c0.633,0,1.2,0.083,1.7,0.25
		c0.467,0.134,0.7,0.3,0.7,0.5c0,0.2-0.233,0.384-0.7,0.55C75.15,5.733,74.583,5.8,73.95,5.8z"/>
	<path style="fill-rule:evenodd;clip-rule:evenodd;fill:#CCD6C2;" d="M79.1,1.95c1.267,0,1.9,0.133,1.9,0.4s-0.633,0.4-1.9,0.4
		c-1.233,0-1.85-0.133-1.85-0.4S77.867,1.95,79.1,1.95z"/>
	<path style="fill-rule:evenodd;clip-rule:evenodd;fill:#CCD6C2;" d="M86.55,0.65c0.767,0,1.15,0.217,1.15,0.65
		c0,0.434-0.383,0.65-1.15,0.65c-0.767,0-1.15-0.217-1.15-0.65C85.4,0.867,85.783,0.65,86.55,0.65z"/>
	<path style="fill-rule:evenodd;clip-rule:evenodd;fill:#CCD6C2;" d="M63.55,4.35c-0.566,0-1.05-0.1-1.45-0.3
		c-0.4-0.2-0.6-0.433-0.6-0.7s0.2-0.5,0.6-0.7c0.4-0.2,0.883-0.3,1.45-0.3c0.567,0,1.034,0.1,1.4,0.3c0.4,0.2,0.6,0.434,0.6,0.7
		s-0.2,0.5-0.6,0.7C64.583,4.25,64.117,4.35,63.55,4.35z"/>
	<path style="fill-rule:evenodd;clip-rule:evenodd;fill:#CCD6C2;" d="M57.4,4.85c-0.566,0-0.85-0.133-0.85-0.4s0.284-0.4,0.85-0.4
		c0.6,0,0.9,0.134,0.9,0.4S58,4.85,57.4,4.85z"/>
	<path style="fill-rule:evenodd;clip-rule:evenodd;fill:#CCD6C2;" d="M53.75,5.15c-0.467,0-0.7-0.133-0.7-0.4s0.233-0.4,0.7-0.4
		c0.5,0,0.75,0.133,0.75,0.4S54.25,5.15,53.75,5.15z"/>
	<path style="fill-rule:evenodd;clip-rule:evenodd;fill:#CCD6C2;" d="M90.8,7c-0.533,0-0.983-0.1-1.35-0.3
		c-0.367-0.167-0.55-0.384-0.55-0.65c0-0.233,0.184-0.45,0.55-0.65c0.367-0.167,0.816-0.25,1.35-0.25c0.534,0,0.983,0.083,1.35,0.25
		c0.367,0.2,0.55,0.417,0.55,0.65c0,0.267-0.184,0.483-0.55,0.65C91.783,6.9,91.333,7,90.8,7z"/>
	<path style="fill-rule:evenodd;clip-rule:evenodd;fill:#CCD6C2;" d="M101.55,4.85c0.9,0,1.35,0.133,1.35,0.4s-0.45,0.4-1.35,0.4
		c-0.867,0-1.3-0.133-1.3-0.4S100.683,4.85,101.55,4.85z"/>
	<path style="fill-rule:evenodd;clip-rule:evenodd;fill:#CCD6C2;" d="M125.6,7.5c-0.533,0-1.017-0.066-1.449-0.2
		c-0.4-0.133-0.601-0.283-0.601-0.45s0.2-0.317,0.601-0.45c0.433-0.133,0.916-0.2,1.449-0.2c0.567,0,1.051,0.066,1.45,0.2
		c0.4,0.133,0.601,0.284,0.601,0.45s-0.2,0.316-0.601,0.45C126.65,7.434,126.167,7.5,125.6,7.5z"/>
	<path style="fill-rule:evenodd;clip-rule:evenodd;fill:#CCD6C2;" d="M119.8,4.85c0.767,0,1.15,0.183,1.15,0.55
		c0,0.333-0.384,0.5-1.15,0.5c-0.8,0-1.2-0.167-1.2-0.5C118.6,5.033,119,4.85,119.8,4.85z"/>
	<path style="fill-rule:evenodd;clip-rule:evenodd;fill:#CCD6C2;" d="M116.7,7.75c-0.467,0-0.7-0.167-0.7-0.5
		c0-0.367,0.233-0.55,0.7-0.55c0.5,0,0.75,0.183,0.75,0.55C117.45,7.583,117.2,7.75,116.7,7.75z"/>
	<path style="fill-rule:evenodd;clip-rule:evenodd;fill:#CCD6C2;" d="M107.35,8.85c0.566,0,0.85,0.167,0.85,0.5
		c0,0.367-0.284,0.55-0.85,0.55c-0.6,0-0.9-0.183-0.9-0.55C106.45,9.017,106.75,8.85,107.35,8.85z"/>
	<path style="fill-rule:evenodd;clip-rule:evenodd;fill:#CCD6C2;" d="M126.35,13.35c1.634,0,2.45,0.167,2.45,0.5
		c0,0.167-0.233,0.301-0.7,0.4c-0.5,0.1-1.083,0.15-1.75,0.15c-0.699,0-1.283-0.051-1.75-0.15c-0.5-0.1-0.75-0.233-0.75-0.4
		C123.85,13.517,124.684,13.35,126.35,13.35z"/>
	<path style="fill-rule:evenodd;clip-rule:evenodd;fill:#CCD6C2;" d="M134.5,14.4c1.467,0,2.2,0.166,2.2,0.5
		c0,0.366-0.733,0.55-2.2,0.55s-2.2-0.184-2.2-0.55c0-0.134,0.217-0.25,0.65-0.351C133.384,14.45,133.9,14.4,134.5,14.4z"/>
	<path style="fill-rule:evenodd;clip-rule:evenodd;fill:#CCD6C2;" d="M139.5,12.25c0.434,0,0.816,0.066,1.15,0.2
		c0.333,0.1,0.5,0.233,0.5,0.399c0,0.167-0.167,0.301-0.5,0.4c-0.301,0.1-0.684,0.15-1.15,0.15c-1.1,0-1.65-0.184-1.65-0.551
		c0-0.166,0.167-0.3,0.5-0.399C138.684,12.316,139.066,12.25,139.5,12.25z"/>
	<path style="fill-rule:evenodd;clip-rule:evenodd;fill:#CCD6C2;" d="M147.45,11.75c0.8,0,1.2,0.083,1.2,0.25
		c0,0.167-0.4,0.25-1.2,0.25c-0.767,0-1.15-0.083-1.15-0.25C146.3,11.833,146.684,11.75,147.45,11.75z"/>
	<path style="fill-rule:evenodd;clip-rule:evenodd;fill:#CCD6C2;" d="M149.8,8.6c0.601,0,0.9,0.05,0.9,0.15c0,0.133-0.3,0.2-0.9,0.2
		c-0.566,0-0.85-0.067-0.85-0.2C148.95,8.65,149.233,8.6,149.8,8.6z"/>
	<path style="fill-rule:evenodd;clip-rule:evenodd;fill:#CCD6C2;" d="M146.4,3.65c0,0.267-0.301,0.4-0.9,0.4s-0.9-0.133-0.9-0.4
		c0-0.233,0.301-0.35,0.9-0.35S146.4,3.417,146.4,3.65z"/>
	<path style="fill-rule:evenodd;clip-rule:evenodd;fill:#CCD6C2;" d="M167.45,8.7c0.434,0,0.8,0.05,1.1,0.15
		c0.334,0.133,0.5,0.267,0.5,0.4s-0.166,0.25-0.5,0.35c-0.3,0.1-0.666,0.15-1.1,0.15s-0.816-0.05-1.15-0.15
		c-0.3-0.1-0.45-0.217-0.45-0.35C165.85,8.883,166.384,8.7,167.45,8.7z"/>
	<path style="fill-rule:evenodd;clip-rule:evenodd;fill:#CCD6C2;" d="M175,8.85c0,0.167-0.417,0.25-1.25,0.25
		c-0.8,0-1.2-0.083-1.2-0.25c0-0.2,0.4-0.3,1.2-0.3C174.583,8.55,175,8.65,175,8.85z"/>
	<path style="fill-rule:evenodd;clip-rule:evenodd;fill:#CCD6C2;" d="M175.9,7.25c1.066,0,1.6,0.15,1.6,0.45
		c0,0.3-0.533,0.45-1.6,0.45c-1.067,0-1.601-0.15-1.601-0.45C174.3,7.4,174.833,7.25,175.9,7.25z"/>
	<path style="fill-rule:evenodd;clip-rule:evenodd;fill:#CCD6C2;" d="M177.65,5.9c0.666,0,1,0.117,1,0.35s-0.334,0.35-1,0.35
		c-0.7,0-1.051-0.117-1.051-0.35S176.95,5.9,177.65,5.9z"/>
	<path style="fill-rule:evenodd;clip-rule:evenodd;fill:#CCD6C2;" d="M183.25,7.65c-0.934,0-1.4-0.183-1.4-0.55
		c0-0.333,0.467-0.5,1.4-0.5s1.4,0.167,1.4,0.5c0,0.167-0.134,0.3-0.4,0.4C183.95,7.6,183.616,7.65,183.25,7.65z"/>
	<path style="fill-rule:evenodd;clip-rule:evenodd;fill:#CCD6C2;" d="M191.75,7.85c0,0.3-0.35,0.45-1.05,0.45
		c-0.733,0-1.101-0.15-1.101-0.45c0-0.3,0.367-0.45,1.101-0.45C191.4,7.4,191.75,7.55,191.75,7.85z"/>
	<path style="fill-rule:evenodd;clip-rule:evenodd;fill:#CCD6C2;" d="M191.35,9.65c0-0.2,0.233-0.3,0.7-0.3c0.5,0,0.75,0.1,0.75,0.3
		c0,0.167-0.25,0.25-0.75,0.25C191.583,9.9,191.35,9.816,191.35,9.65z"/>
	<path style="fill-rule:evenodd;clip-rule:evenodd;fill:#CCD6C2;" d="M205.3,11c0,0.133-0.116,0.25-0.35,0.35
		s-0.517,0.15-0.851,0.15c-0.833,0-1.25-0.167-1.25-0.5c0-0.3,0.417-0.45,1.25-0.45C204.9,10.55,205.3,10.7,205.3,11z"/>
	<path style="fill-rule:evenodd;clip-rule:evenodd;fill:#CCD6C2;" d="M202.55,12.4c0.4,0,0.601,0.066,0.601,0.199
		c0,0.134-0.2,0.2-0.601,0.2c-0.399,0-0.6-0.066-0.6-0.2C201.95,12.467,202.15,12.4,202.55,12.4z"/>
	<path style="fill-rule:evenodd;clip-rule:evenodd;fill:#CCD6C2;" d="M210.15,13.45c0.533,0,0.983,0.066,1.35,0.2
		c0.366,0.133,0.55,0.283,0.55,0.449c0,0.2-0.184,0.367-0.55,0.5c-0.366,0.134-0.816,0.2-1.35,0.2c-0.534,0-0.983-0.066-1.351-0.2
		c-0.366-0.133-0.55-0.3-0.55-0.5c0-0.166,0.184-0.316,0.55-0.449C209.167,13.517,209.616,13.45,210.15,13.45z"/>
	<path style="fill-rule:evenodd;clip-rule:evenodd;fill:#CCD6C2;" d="M214.7,14.65c0.833,0,1.25,0.183,1.25,0.55
		c0,0.133-0.117,0.25-0.351,0.35c-0.267,0.101-0.566,0.15-0.899,0.15c-0.334,0-0.617-0.05-0.851-0.15
		c-0.233-0.1-0.35-0.217-0.35-0.35C213.5,14.833,213.9,14.65,214.7,14.65z"/>
	<path style="fill-rule:evenodd;clip-rule:evenodd;fill:#CCD6C2;" d="M214.8,13.45c0,0.2-0.3,0.3-0.899,0.3
		c-0.567,0-0.851-0.1-0.851-0.3c0-0.167,0.283-0.25,0.851-0.25C214.5,13.2,214.8,13.283,214.8,13.45z"/>
	<path style="fill-rule:evenodd;clip-rule:evenodd;fill:#CCD6C2;" d="M223.95,16.5c0.7,0,1.05,0.134,1.05,0.4
		s-0.35,0.399-1.05,0.399c-0.667,0-1-0.133-1-0.399S223.283,16.5,223.95,16.5z"/>
	<path style="fill-rule:evenodd;clip-rule:evenodd;fill:#CCD6C2;" d="M220.35,14.8c0.367,0,0.551,0.15,0.551,0.45
		s-0.184,0.45-0.551,0.45c-0.399,0-0.6-0.15-0.6-0.45S219.95,14.8,220.35,14.8z"/>
	<path style="fill-rule:evenodd;clip-rule:evenodd;fill:#CCD6C2;" d="M205.45,15.95c0.533,0,0.8,0.1,0.8,0.3s-0.267,0.3-0.8,0.3
		s-0.8-0.1-0.8-0.3S204.917,15.95,205.45,15.95z"/>
	<path style="fill-rule:evenodd;clip-rule:evenodd;fill:#CCD6C2;" d="M188.05,13.45c0.834,0,1.25,0.167,1.25,0.5
		c0,0.3-0.416,0.45-1.25,0.45c-0.833,0-1.25-0.15-1.25-0.45C186.8,13.617,187.217,13.45,188.05,13.45z"/>
	<path style="fill-rule:evenodd;clip-rule:evenodd;fill:#CCD6C2;" d="M195.7,14.5c0.866,0,1.3,0.184,1.3,0.55
		c0,0.367-0.434,0.55-1.3,0.55c-0.867,0-1.3-0.183-1.3-0.55c0-0.133,0.133-0.267,0.399-0.399C195.033,14.55,195.333,14.5,195.7,14.5
		z"/>
	<path style="fill-rule:evenodd;clip-rule:evenodd;fill:#CCD6C2;" d="M200.8,15.45c0.4,0,0.601,0.083,0.601,0.25
		s-0.2,0.25-0.601,0.25c-0.399,0-0.6-0.083-0.6-0.25S200.4,15.45,200.8,15.45z"/>
	<path style="fill-rule:evenodd;clip-rule:evenodd;fill:#CCD6C2;" d="M192.35,15.95c0.667,0,1,0.167,1,0.5c0,0.3-0.333,0.45-1,0.45
		c-0.666,0-1-0.15-1-0.45C191.35,16.117,191.684,15.95,192.35,15.95z"/>
	<path style="fill-rule:evenodd;clip-rule:evenodd;fill:#CCD6C2;" d="M185.2,15.05c0.6,0,0.899,0.134,0.899,0.4
		s-0.3,0.399-0.899,0.399c-0.566,0-0.851-0.133-0.851-0.399S184.634,15.05,185.2,15.05z"/>
	<path style="fill-rule:evenodd;clip-rule:evenodd;fill:#CCD6C2;" d="M175.15,15.3c0.699,0,1.05,0.134,1.05,0.4
		s-0.351,0.399-1.05,0.399c-0.667,0-1-0.133-1-0.399S174.483,15.3,175.15,15.3z"/>
	<path style="fill-rule:evenodd;clip-rule:evenodd;fill:#CCD6C2;" d="M172.7,13.35c0.666,0,1,0.134,1,0.4c0,0.233-0.334,0.35-1,0.35
		c-0.7,0-1.05-0.116-1.05-0.35C171.65,13.483,172,13.35,172.7,13.35z"/>
	<path style="fill-rule:evenodd;clip-rule:evenodd;fill:#CCD6C2;" d="M162.4,13.45c0.633,0,1.166,0.083,1.6,0.25
		c0.434,0.133,0.65,0.316,0.65,0.55s-0.217,0.417-0.65,0.55c-0.434,0.167-0.967,0.25-1.6,0.25c-0.634,0-1.167-0.083-1.601-0.25
		c-0.434-0.133-0.649-0.316-0.649-0.55s0.216-0.417,0.649-0.55C161.233,13.533,161.767,13.45,162.4,13.45z"/>
	<path style="fill-rule:evenodd;clip-rule:evenodd;fill:#CCD6C2;" d="M158.65,16.05c-0.367,0.134-0.784,0.2-1.25,0.2
		c-0.5,0-0.917-0.066-1.25-0.2c-0.334-0.1-0.5-0.233-0.5-0.399c0-0.4,0.583-0.601,1.75-0.601c1.166,0,1.75,0.2,1.75,0.601
		C159.15,15.816,158.983,15.95,158.65,16.05z"/>
	<path style="fill-rule:evenodd;clip-rule:evenodd;fill:#CCD6C2;" d="M153.95,16.25c0.233,0,0.35,0.1,0.35,0.3
		c0,0.233-0.116,0.351-0.35,0.351s-0.351-0.117-0.351-0.351C153.6,16.35,153.717,16.25,153.95,16.25z"/>
	<path style="fill-rule:evenodd;clip-rule:evenodd;fill:#CCD6C2;" d="M146.9,17.55c0.366,0,0.55,0.101,0.55,0.3
		c0,0.167-0.184,0.25-0.55,0.25c-0.4,0-0.601-0.083-0.601-0.25C146.3,17.65,146.5,17.55,146.9,17.55z"/>
	<path style="fill-rule:evenodd;clip-rule:evenodd;fill:#CCD6C2;" d="M139.95,18.2c0.633,0,0.95,0.116,0.95,0.35
		s-0.317,0.351-0.95,0.351c-0.634,0-0.95-0.117-0.95-0.351S139.316,18.2,139.95,18.2z"/>
	<path style="fill-rule:evenodd;clip-rule:evenodd;fill:#CCD6C2;" d="M132.45,18.75c0.399,0,0.6,0.15,0.6,0.45
		c0,0.333-0.2,0.5-0.6,0.5c-0.367,0-0.55-0.167-0.55-0.5C131.9,18.9,132.083,18.75,132.45,18.75z"/>
	<path style="fill-rule:evenodd;clip-rule:evenodd;fill:#CCD6C2;" d="M123.4,16.9c0.399,0,0.6,0.133,0.6,0.399s-0.2,0.4-0.6,0.4
		c-0.367,0-0.551-0.134-0.551-0.4S123.033,16.9,123.4,16.9z"/>
	<path style="fill-rule:evenodd;clip-rule:evenodd;fill:#CCD6C2;" d="M116.6,17.55c0.601,0,1.117,0.067,1.551,0.2
		c0.399,0.134,0.6,0.283,0.6,0.45c0,0.467-0.717,0.7-2.15,0.7c-1.466,0-2.199-0.233-2.199-0.7
		C114.4,17.767,115.134,17.55,116.6,17.55z"/>
	<path style="fill-rule:evenodd;clip-rule:evenodd;fill:#CCD6C2;" d="M111.1,19.15c1.1,0,1.65,0.25,1.65,0.75
		c0,0.467-0.55,0.699-1.65,0.699s-1.65-0.232-1.65-0.699C109.45,19.4,110,19.15,111.1,19.15z"/>
	<path style="fill-rule:evenodd;clip-rule:evenodd;fill:#CCD6C2;" d="M106.15,15.2c0.333,0,0.5,0.033,0.5,0.1
		c0,0.101-0.167,0.15-0.5,0.15c-0.333,0-0.5-0.05-0.5-0.15C105.65,15.233,105.817,15.2,106.15,15.2z"/>
	<path style="fill-rule:evenodd;clip-rule:evenodd;fill:#CCD6C2;" d="M101.05,14.75c0.434,0,0.8,0.066,1.1,0.2
		c0.3,0.133,0.45,0.283,0.45,0.45c0,0.467-0.517,0.699-1.55,0.699c-1,0-1.5-0.232-1.5-0.699c0-0.167,0.15-0.317,0.45-0.45
		C100.267,14.816,100.617,14.75,101.05,14.75z"/>
	<path style="fill-rule:evenodd;clip-rule:evenodd;fill:#CCD6C2;" d="M90.65,17c0.633,0,0.95,0.117,0.95,0.35
		c0,0.233-0.317,0.351-0.95,0.351c-0.667,0-1-0.117-1-0.351C89.65,17.117,89.983,17,90.65,17z"/>
	<path style="fill-rule:evenodd;clip-rule:evenodd;fill:#CCD6C2;" d="M90.8,13.9c0.767,0,1.15,0.083,1.15,0.25
		c0,0.166-0.383,0.25-1.15,0.25c-0.767,0-1.15-0.084-1.15-0.25C89.65,13.983,90.033,13.9,90.8,13.9z"/>
	<path style="fill-rule:evenodd;clip-rule:evenodd;fill:#CCD6C2;" d="M90.05,10.8c0,0.2-0.267,0.3-0.8,0.3s-0.8-0.1-0.8-0.3
		c0-0.167,0.267-0.25,0.8-0.25S90.05,10.633,90.05,10.8z"/>
	<path style="fill-rule:evenodd;clip-rule:evenodd;fill:#CCD6C2;" d="M84.35,11.1c0,0.267-0.333,0.4-1,0.4c-0.667,0-1-0.133-1-0.4
		s0.333-0.4,1-0.4C84.017,10.7,84.35,10.833,84.35,11.1z"/>
	<path style="fill-rule:evenodd;clip-rule:evenodd;fill:#CCD6C2;" d="M82.85,9.45c0,0.167-0.217,0.25-0.65,0.25
		c-0.434,0-0.65-0.083-0.65-0.25c0-0.167,0.217-0.25,0.65-0.25C82.633,9.2,82.85,9.283,82.85,9.45z"/>
	<path style="fill-rule:evenodd;clip-rule:evenodd;fill:#CCD6C2;" d="M79.2,13.05c0.433,0,0.65,0.117,0.65,0.351
		s-0.217,0.35-0.65,0.35c-0.434,0-0.65-0.116-0.65-0.35S78.767,13.05,79.2,13.05z"/>
	<path style="fill-rule:evenodd;clip-rule:evenodd;fill:#CCD6C2;" d="M73.35,13.85c0.533,0,0.8,0.134,0.8,0.4s-0.267,0.4-0.8,0.4
		s-0.8-0.134-0.8-0.4S72.817,13.85,73.35,13.85z"/>
	<path style="fill-rule:evenodd;clip-rule:evenodd;fill:#CCD6C2;" d="M76.85,20.9c-1.133,0-1.7-0.233-1.7-0.7
		c0-0.2,0.167-0.367,0.5-0.5c0.333-0.134,0.733-0.2,1.2-0.2c1.133,0,1.7,0.233,1.7,0.7c0,0.2-0.167,0.366-0.5,0.5
		C77.717,20.833,77.317,20.9,76.85,20.9z"/>
	<path style="fill-rule:evenodd;clip-rule:evenodd;fill:#CCD6C2;" d="M83.4,21.4c0.633,0,0.95,0.133,0.95,0.399s-0.317,0.4-0.95,0.4
		s-0.95-0.134-0.95-0.4S82.767,21.4,83.4,21.4z"/>
	<path style="fill-rule:evenodd;clip-rule:evenodd;fill:#CCD6C2;" d="M84.95,18c0.966,0,1.45,0.134,1.45,0.4
		c0,0.233-0.483,0.35-1.45,0.35c-0.967,0-1.45-0.116-1.45-0.35C83.5,18.134,83.983,18,84.95,18z"/>
	<path style="fill-rule:evenodd;clip-rule:evenodd;fill:#CCD6C2;" d="M65.8,17.95c0.333,0,0.617,0.05,0.85,0.149
		c0.267,0.134,0.4,0.268,0.4,0.4c0,0.333-0.417,0.5-1.25,0.5c-0.833,0-1.25-0.167-1.25-0.5C64.55,18.134,64.967,17.95,65.8,17.95z"
		/>
	<path style="fill-rule:evenodd;clip-rule:evenodd;fill:#CCD6C2;" d="M58.05,19.75c0.867,0,1.3,0.134,1.3,0.4
		s-0.434,0.399-1.3,0.399s-1.3-0.133-1.3-0.399S57.183,19.75,58.05,19.75z"/>
	<path style="fill-rule:evenodd;clip-rule:evenodd;fill:#CCD6C2;" d="M72.55,10.25c-0.6-0.066-1.083-0.184-1.45-0.35l-0.4-0.25
		l0.65-0.2c0.566-0.134,1.167-0.184,1.8-0.15h0.5l0.05-0.15c0.2-0.167,0.583-0.3,1.15-0.4c0.3-0.066,0.583-0.117,0.85-0.15l0.6,0.2
		c0.367,0.167,0.534,0.35,0.5,0.55L76.7,9.5h0.5c0.933,0.1,1.55,0.3,1.85,0.6c-0.633,0.267-1.45,0.383-2.45,0.35h-0.5l-0.05,0.15
		c-0.333,0.267-1,0.45-2,0.55c-0.833-0.2-1.2-0.45-1.1-0.75l0.1-0.15H72.55z"/>
	<path style="fill-rule:evenodd;clip-rule:evenodd;fill:#CCD6C2;" d="M164.1,2.95h0.45l0.101-0.15c0.199-0.167,0.583-0.3,1.149-0.4
		c0.3-0.066,0.566-0.117,0.8-0.15l0.601,0.2c0.399,0.167,0.583,0.35,0.55,0.55l-0.1,0.15h0.5c0.933,0.1,1.55,0.3,1.85,0.6
		c-0.667,0.267-1.483,0.383-2.45,0.35h-0.5l-0.1,0.15C166.65,4.517,166,4.7,165,4.8c-0.833-0.2-1.217-0.45-1.15-0.75l0.101-0.15
		h-0.45c-0.6-0.066-1.083-0.183-1.45-0.35L161.65,3.3l0.649-0.2C162.866,2.967,163.467,2.917,164.1,2.95z"/>
	<path style="fill-rule:evenodd;clip-rule:evenodd;fill:#CCD6C2;" d="M97.9,1.45L97.5,1.2L98.15,1c0.567-0.133,1.167-0.2,1.8-0.2
		l0.5,0.05l0.05-0.15c0.2-0.2,0.6-0.35,1.2-0.45c0.3-0.066,0.566-0.117,0.8-0.15l0.6,0.2c0.4,0.167,0.566,0.35,0.5,0.55L103.5,1
		l0.5,0.05c0.967,0.067,1.583,0.267,1.85,0.6C105.217,1.883,104.4,2,103.4,2l-0.5-0.05l-0.05,0.15c-0.3,0.3-0.95,0.5-1.95,0.6
		c-0.833-0.2-1.217-0.45-1.15-0.75l0.1-0.15l-0.5-0.05C98.783,1.717,98.3,1.617,97.9,1.45z"/>
	<path style="fill-rule:evenodd;clip-rule:evenodd;fill:#CCD6C2;" d="M111.55,6.2h-0.45L111,6.35c-0.3,0.3-0.95,0.483-1.95,0.55
		c-0.833-0.167-1.216-0.417-1.15-0.75L108,6h-0.5c-0.567-0.066-1.05-0.184-1.45-0.35l-0.4-0.25l0.65-0.15
		c0.567-0.133,1.167-0.2,1.8-0.2l0.5,0.05l0.1-0.15c0.2-0.2,0.583-0.35,1.15-0.45c0.3-0.066,0.566-0.117,0.8-0.15l0.6,0.2
		c0.4,0.167,0.583,0.35,0.55,0.55l-0.15,0.15h0.5c0.966,0.1,1.583,0.3,1.85,0.6C113.366,6.117,112.55,6.233,111.55,6.2z"/>
	<path style="fill-rule:evenodd;clip-rule:evenodd;fill:#CCD6C2;" d="M92.75,9.35l0.1-0.15h-0.5c-0.567-0.067-1.05-0.184-1.45-0.35
		L90.5,8.6l0.65-0.2c0.567-0.133,1.167-0.183,1.8-0.15h0.5l0.1-0.15c0.2-0.2,0.583-0.35,1.15-0.45c0.3-0.033,0.566-0.066,0.8-0.1
		l0.6,0.2c0.4,0.167,0.583,0.35,0.55,0.55L96.5,8.45H97c0.967,0.1,1.583,0.3,1.85,0.6C98.217,9.316,97.4,9.434,96.4,9.4l-0.45-0.05
		l-0.1,0.15c-0.3,0.3-0.95,0.5-1.95,0.6C93.067,9.9,92.683,9.65,92.75,9.35z"/>
</g>
<g>
	
		<radialGradient id="SVGID_1_" cx="37.9004" cy="8.7998" r="2.2372" gradientTransform="matrix(1 0 0 -0.3855 0 12.1919)" gradientUnits="userSpaceOnUse">
		<stop  offset="0" style="stop-color:#DC9F60"/>
		<stop  offset="1" style="stop-color:#E6A058"/>
	</radialGradient>
	<path style="fill-rule:evenodd;clip-rule:evenodd;fill:url(#SVGID_1_);" d="M36.5,9.25l0.1-0.1h-0.35
		c-0.433-0.033-0.783-0.133-1.05-0.3l-0.25-0.2L35.4,8.5c0.4-0.1,0.833-0.15,1.3-0.15H37l0.1-0.1c0.133-0.167,0.4-0.3,0.8-0.4
		c0.233-0.034,0.434-0.067,0.6-0.1l0.4,0.15c0.267,0.133,0.383,0.284,0.35,0.45l-0.05,0.1h0.35c0.667,0.066,1.1,0.216,1.3,0.45
		c-0.467,0.233-1.05,0.35-1.75,0.35h-0.35l-0.05,0.1c-0.233,0.233-0.7,0.4-1.4,0.5C36.7,9.717,36.433,9.517,36.5,9.25z"/>
	
		<radialGradient id="SVGID_2_" cx="70.1001" cy="3.5" r="2.375" gradientTransform="matrix(1 0 0 -0.3842 0 4.8447)" gradientUnits="userSpaceOnUse">
		<stop  offset="0" style="stop-color:#DC9F60"/>
		<stop  offset="1" style="stop-color:#E6A058"/>
	</radialGradient>
	<path style="fill-rule:evenodd;clip-rule:evenodd;fill:url(#SVGID_2_);" d="M68.65,4.1l0.05-0.15h-0.35
		c-0.434-0.034-0.783-0.134-1.05-0.3L67,3.4l0.5-0.2c0.4-0.1,0.833-0.167,1.3-0.2l0.4,0.05l0.05-0.15
		c0.133-0.2,0.417-0.35,0.85-0.45c0.233-0.067,0.433-0.117,0.6-0.15l0.45,0.2c0.3,0.133,0.434,0.283,0.4,0.45l-0.1,0.15h0.35
		c0.7,0.066,1.15,0.25,1.35,0.55c-0.467,0.233-1.066,0.367-1.8,0.4L71,4l-0.1,0.15c-0.233,0.3-0.717,0.5-1.45,0.6
		C68.85,4.583,68.583,4.367,68.65,4.1z"/>
	
		<radialGradient id="SVGID_3_" cx="126.2002" cy="3.5498" r="2.124" gradientTransform="matrix(1 0 0 -0.3882 0 4.928)" gradientUnits="userSpaceOnUse">
		<stop  offset="0" style="stop-color:#DC9F60"/>
		<stop  offset="1" style="stop-color:#E6A058"/>
	</radialGradient>
	<path style="fill-rule:evenodd;clip-rule:evenodd;fill:url(#SVGID_3_);" d="M124.9,3.95l0.1-0.1l-0.35-0.05
		c-0.4-0.033-0.733-0.1-1-0.2l-0.25-0.2l0.449-0.15c0.4-0.1,0.801-0.15,1.2-0.15h0.351l0.05-0.1c0.133-0.133,0.399-0.25,0.8-0.35
		c0.2-0.033,0.384-0.066,0.55-0.1l0.4,0.15c0.267,0.133,0.383,0.267,0.35,0.4l-0.1,0.1l0.35,0.05c0.634,0.033,1.05,0.167,1.25,0.4
		c-0.434,0.2-0.983,0.3-1.649,0.3L127.05,3.9L127,4.05c-0.2,0.2-0.65,0.35-1.35,0.45C125.083,4.367,124.833,4.184,124.9,3.95z"/>
	
		<radialGradient id="SVGID_4_" cx="180.4492" cy="12" r="2.5257" gradientTransform="matrix(1 0 0 -0.3861 0 16.6337)" gradientUnits="userSpaceOnUse">
		<stop  offset="0" style="stop-color:#DC9F60"/>
		<stop  offset="1" style="stop-color:#E6A058"/>
	</radialGradient>
	<path style="fill-rule:evenodd;clip-rule:evenodd;fill:url(#SVGID_4_);" d="M178.55,12.25c-0.467-0.033-0.866-0.116-1.2-0.25
		l-0.3-0.2l0.55-0.15c0.434-0.1,0.917-0.15,1.45-0.15l0.351,0.05l0.1-0.15c0.134-0.133,0.45-0.25,0.95-0.35
		c0.233-0.033,0.45-0.066,0.649-0.1l0.5,0.15c0.301,0.167,0.434,0.316,0.4,0.45l-0.1,0.15h0.399c0.8,0.066,1.316,0.233,1.55,0.5
		c-0.533,0.2-1.199,0.283-2,0.25h-0.399l-0.05,0.1c-0.267,0.233-0.801,0.384-1.601,0.45c-0.7-0.133-1.017-0.333-0.95-0.6
		l0.101-0.101L178.55,12.25z"/>
	
		<radialGradient id="SVGID_5_" cx="93.2998" cy="1.6001" r="2.8625" gradientTransform="matrix(1 0 0 -0.3843 0 2.215)" gradientUnits="userSpaceOnUse">
		<stop  offset="0" style="stop-color:#DC9F60"/>
		<stop  offset="1" style="stop-color:#E6A058"/>
	</radialGradient>
	<path style="fill-rule:evenodd;clip-rule:evenodd;fill:url(#SVGID_5_);" d="M94.05,0.35l0.55,0.2c0.367,0.167,0.533,0.35,0.5,0.55
		L95,1.2l0.45,0.05c0.867,0.066,1.417,0.25,1.65,0.55c-0.567,0.267-1.317,0.4-2.25,0.4l-0.4-0.05l-0.1,0.15
		c-0.267,0.3-0.867,0.5-1.8,0.6c-0.733-0.2-1.066-0.45-1-0.75L91.65,2H91.2c-0.534-0.033-0.983-0.133-1.35-0.3L89.5,1.45l0.6-0.2
		c0.533-0.133,1.083-0.2,1.65-0.2L92.2,1.1l0.05-0.15c0.2-0.2,0.55-0.35,1.05-0.45C93.567,0.434,93.817,0.383,94.05,0.35z"/>
	
		<radialGradient id="SVGID_6_" cx="115.9502" cy="11.1001" r="2.025" gradientTransform="matrix(1 0 0 -0.3889 0 15.4168)" gradientUnits="userSpaceOnUse">
		<stop  offset="0" style="stop-color:#DC9F60"/>
		<stop  offset="1" style="stop-color:#E6A058"/>
	</radialGradient>
	<path style="fill-rule:evenodd;clip-rule:evenodd;fill:url(#SVGID_6_);" d="M115.95,10.25c0.166-0.033,0.333-0.066,0.5-0.1
		l0.399,0.15c0.267,0.134,0.384,0.267,0.351,0.4l-0.101,0.1h0.301c0.633,0.067,1.033,0.2,1.199,0.4c-0.433,0.2-0.966,0.3-1.6,0.3
		h-0.3l-0.05,0.1c-0.2,0.233-0.617,0.4-1.25,0.5c-0.534-0.133-0.784-0.316-0.75-0.55l0.1-0.15h-0.3c-0.4-0.033-0.717-0.1-0.95-0.2
		l-0.25-0.2l0.45-0.15c0.366-0.1,0.75-0.15,1.149-0.15h0.301l0.05-0.1C115.333,10.467,115.583,10.35,115.95,10.25z"/>
</g>
<g>
	<path style="fill-rule:evenodd;clip-rule:evenodd;fill:#DED07E;" d="M47.4,8.05c0.7,0,1.167,0.083,1.4,0.25
		c-0.433,0.233-1,0.384-1.7,0.45h-0.35l-0.05,0.1c-0.2,0.2-0.65,0.367-1.35,0.5c-0.6-0.067-0.883-0.2-0.85-0.4l0.05-0.1H44.2
		c-0.434,0.033-0.8,0-1.1-0.1L42.8,8.6l0.45-0.15c0.4-0.134,0.817-0.217,1.25-0.25h0.35l0.05-0.1c0.133-0.133,0.4-0.25,0.8-0.35
		c0.2-0.066,0.383-0.117,0.55-0.15l0.45,0.1C47,7.767,47.15,7.867,47.15,8l-0.1,0.1L47.4,8.05z"/>
	<path style="fill-rule:evenodd;clip-rule:evenodd;fill:#DED07E;" d="M83.35,3.2c0.8,0.066,1.3,0.25,1.5,0.55
		c-0.5,0.267-1.167,0.4-2,0.4h-0.4L82.4,4.3c-0.267,0.3-0.816,0.5-1.65,0.6c-0.667-0.167-0.967-0.4-0.9-0.7l0.1-0.15h-0.4
		c-0.466-0.033-0.867-0.133-1.2-0.3l-0.3-0.25l0.55-0.2c0.467-0.133,0.95-0.2,1.45-0.2h0.4l0.1-0.15C80.683,2.75,81,2.6,81.5,2.5
		c0.233-0.066,0.45-0.117,0.65-0.15l0.5,0.2c0.3,0.134,0.434,0.3,0.4,0.5l-0.1,0.15H83.35z"/>
	<path style="fill-rule:evenodd;clip-rule:evenodd;fill:#DED07E;" d="M153.05,7.05c-0.666-0.167-0.967-0.417-0.899-0.75l0.1-0.15
		h-0.4c-0.5-0.033-0.899-0.133-1.199-0.3L150.35,5.6l0.551-0.2c0.433-0.133,0.916-0.2,1.449-0.2h0.4l0.05-0.15
		c0.167-0.2,0.5-0.35,1-0.45c0.233-0.067,0.45-0.117,0.65-0.15l0.5,0.2c0.3,0.133,0.434,0.3,0.399,0.5l-0.1,0.15h0.4
		c0.767,0.067,1.267,0.25,1.5,0.55c-0.534,0.267-1.2,0.417-2,0.45l-0.4-0.05l-0.1,0.15C154.417,6.7,153.884,6.917,153.05,7.05z"/>
	<path style="fill-rule:evenodd;clip-rule:evenodd;fill:#DED07E;" d="M178.65,5.45l0.1-0.1L178.4,5.3
		c-0.367-0.066-0.667-0.183-0.9-0.35l-0.25-0.2l0.45-0.1c0.399-0.066,0.8-0.083,1.2-0.05h0.35l0.05-0.1
		c0.134-0.133,0.4-0.25,0.8-0.35c0.2-0.033,0.384-0.05,0.551-0.05l0.399,0.2c0.233,0.167,0.316,0.317,0.25,0.45l-0.05,0.1l0.3,0.05
		c0.634,0.1,1.017,0.284,1.15,0.55c-0.434,0.2-0.983,0.267-1.65,0.2l-0.3-0.05l-0.1,0.1c-0.2,0.233-0.65,0.366-1.351,0.4
		C178.8,5.9,178.583,5.684,178.65,5.45z"/>
	<path style="fill-rule:evenodd;clip-rule:evenodd;fill:#DED07E;" d="M197.15,10.3c0.166-0.033,0.316-0.066,0.449-0.1l0.351,0.1
		c0.2,0.1,0.283,0.217,0.25,0.35l-0.05,0.15h0.3c0.533,0.034,0.866,0.15,1,0.35c-0.367,0.2-0.834,0.3-1.4,0.3h-0.25l-0.05,0.1
		c-0.167,0.2-0.533,0.333-1.1,0.4c-0.467-0.1-0.684-0.267-0.65-0.5l0.1-0.1h-0.3c-0.333-0.034-0.6-0.1-0.8-0.2L194.8,11l0.351-0.15
		c0.3-0.1,0.633-0.15,1-0.15h0.3l0.05-0.1C196.6,10.467,196.816,10.367,197.15,10.3z"/>
	<path style="fill-rule:evenodd;clip-rule:evenodd;fill:#DED07E;" d="M163.5,9.4l-0.1,0.15h0.399c0.8,0.067,1.3,0.25,1.5,0.55
		c-0.533,0.267-1.2,0.4-2,0.4H162.9l-0.051,0.15c-0.267,0.3-0.816,0.5-1.649,0.6c-0.667-0.167-0.967-0.4-0.9-0.7l0.101-0.15H160
		c-0.5-0.033-0.9-0.133-1.2-0.3l-0.3-0.25l0.55-0.2c0.467-0.133,0.95-0.2,1.45-0.2h0.4l0.05-0.15c0.166-0.2,0.5-0.35,1-0.45
		c0.233-0.067,0.45-0.117,0.649-0.15l0.5,0.2C163.4,9.033,163.533,9.2,163.5,9.4z"/>
	<path style="fill-rule:evenodd;clip-rule:evenodd;fill:#DED07E;" d="M27,11.7l-0.3-0.05l-0.05,0.15c-0.2,0.2-0.617,0.351-1.25,0.45
		c-0.5-0.133-0.717-0.316-0.65-0.55l0.05-0.1h-0.3c-0.367-0.034-0.65-0.117-0.85-0.25L23.4,11.2l0.4-0.15
		c0.333-0.1,0.7-0.167,1.1-0.2l0.3,0.05l0.05-0.15c0.133-0.133,0.367-0.25,0.7-0.35c0.2-0.033,0.367-0.066,0.5-0.1l0.35,0.15
		c0.267,0.133,0.383,0.267,0.35,0.4l-0.1,0.1h0.3c0.6,0.066,0.983,0.2,1.15,0.4C28.1,11.583,27.6,11.7,27,11.7z"/>
	<path style="fill-rule:evenodd;clip-rule:evenodd;fill:#DED07E;" d="M68.2,9.55c0.8,0.067,1.3,0.25,1.5,0.55
		c-0.5,0.267-1.167,0.4-2,0.4h-0.4l-0.05,0.15c-0.267,0.3-0.817,0.5-1.65,0.6l-0.3-0.1l-1.1,0.1l-0.45-0.05l-0.05,0.15
		c-0.233,0.233-0.784,0.383-1.65,0.45c-0.7-0.167-1.017-0.366-0.95-0.6l0.1-0.15h-0.45c-0.5-0.033-0.9-0.133-1.2-0.3l-0.35-0.2
		l0.55-0.15c0.467-0.1,0.967-0.15,1.5-0.15l0.45,0.05l0.05-0.15c0.167-0.167,0.617-0.3,1.35-0.4c0.7-0.2,1.3-0.3,1.8-0.3h0.4
		l0.1-0.15c0.133-0.2,0.45-0.35,0.95-0.45C66.583,8.783,66.8,8.733,67,8.7l0.5,0.2c0.3,0.133,0.433,0.3,0.4,0.5l-0.1,0.15H68.2z"/>
	<path style="fill-rule:evenodd;clip-rule:evenodd;fill:#DED07E;" d="M140.65,10.25h-0.5c-0.567-0.066-1.051-0.184-1.45-0.35
		l-0.4-0.25l0.65-0.2c0.566-0.134,1.166-0.184,1.8-0.15h0.5c0-0.066,0.033-0.116,0.1-0.15c0.2-0.167,0.584-0.3,1.15-0.4
		c0.3-0.066,0.566-0.117,0.8-0.15l0.601,0.2c0.399,0.167,0.583,0.35,0.55,0.55L144.3,9.5h0.5c0.967,0.1,1.584,0.3,1.851,0.6
		c-0.634,0.267-1.45,0.383-2.45,0.35h-0.5l-0.05,0.15c-0.301,0.267-0.95,0.45-1.95,0.55c-0.834-0.2-1.217-0.45-1.15-0.75
		L140.65,10.25z"/>
</g>
<path style="fill-rule:evenodd;clip-rule:evenodd;fill:#DED07E;" d="M141.5,6.65c0,0.167-0.184,0.317-0.55,0.45
	c-0.367,0.133-0.816,0.2-1.351,0.2c-0.5,0-0.933-0.066-1.3-0.2c-0.366-0.133-0.55-0.284-0.55-0.45c0-0.4,0.616-0.6,1.85-0.6
	C140.866,6.05,141.5,6.25,141.5,6.65z"/>
<path style="fill-rule:evenodd;clip-rule:evenodd;fill:#DED07E;" d="M173.7,6.65c-0.033,0.2-0.217,0.35-0.55,0.45
	c-0.334,0.1-0.733,0.117-1.2,0.05C171.483,7.117,171.1,7,170.8,6.8c-0.3-0.2-0.434-0.4-0.399-0.6c0.033-0.2,0.216-0.35,0.55-0.45
	c0.333-0.1,0.733-0.133,1.2-0.1C173.283,5.85,173.8,6.184,173.7,6.65z"/>
<path style="fill-rule:evenodd;clip-rule:evenodd;fill:#DED07E;" d="M189.6,9.05c-0.066,0.333-0.5,0.45-1.3,0.35
	c-0.8-0.066-1.2-0.283-1.2-0.65c0.067-0.3,0.5-0.417,1.301-0.35C189.267,8.533,189.667,8.75,189.6,9.05z"/>
<path style="fill-rule:evenodd;clip-rule:evenodd;fill:#DED07E;" d="M151.85,3.65c0,0.333-0.583,0.5-1.75,0.5
	c-1.166,0-1.75-0.167-1.75-0.5c0-0.133,0.167-0.25,0.5-0.35c0.367-0.1,0.784-0.15,1.25-0.15c0.5,0,0.917,0.05,1.25,0.15
	C151.684,3.4,151.85,3.517,151.85,3.65z"/>
<path style="fill-rule:evenodd;clip-rule:evenodd;fill:#DED07E;" d="M87.75,6.55c0,0.4-0.583,0.6-1.75,0.6s-1.75-0.2-1.75-0.6
	c0-0.433,0.583-0.65,1.75-0.65c0.467,0,0.883,0.067,1.25,0.2C87.583,6.233,87.75,6.383,87.75,6.55z"/>
</svg>
