<?xml version="1.0" encoding="iso-8859-1"?>
<!-- Generator: Adobe Illustrator 15.1.0, SVG Export Plug-In . SVG Version: 6.00 Build 0)  -->
<!DOCTYPE svg PUBLIC "-//W3C//DTD SVG 1.1//EN" "http://www.w3.org/Graphics/SVG/1.1/DTD/svg11.dtd">
<svg version="1.1" id="FlashAICB" xmlns="http://www.w3.org/2000/svg" xmlns:xlink="http://www.w3.org/1999/xlink" x="0px" y="0px"
	 width="82.6px" height="18.25px" viewBox="0 0 82.6 18.25" style="enable-background:new 0 0 82.6 18.25;" xml:space="preserve">
<radialGradient id="SVGID_1_" cx="12.3535" cy="7.4834" r="12.7114" gradientTransform="matrix(0.9995 -0.0304 -0.0265 -0.5253 0.576 11.4064)" gradientUnits="userSpaceOnUse">
	<stop  offset="0" style="stop-color:#000000;stop-opacity:0.6196"/>
	<stop  offset="1" style="stop-color:#000000;stop-opacity:0"/>
</radialGradient>
<path style="fill-rule:evenodd;clip-rule:evenodd;fill:url(#SVGID_1_);" d="M25.45,6.7c0.066,1.833-1.1,3.45-3.5,4.85
	c-2.434,1.367-5.4,2.117-8.9,2.25c-3.533,0.101-6.566-0.466-9.1-1.7C1.383,10.867,0.066,9.333,0,7.5
	c-0.1-1.867,1.066-3.483,3.5-4.85c2.4-1.4,5.35-2.15,8.85-2.25c3.533-0.101,6.566,0.466,9.1,1.7C24.017,3.333,25.35,4.867,25.45,6.7
	z"/>
<radialGradient id="SVGID_2_" cx="12.2856" cy="6.1709" r="10.5176" gradientTransform="matrix(0.9996 -0.0297 -0.0285 -0.5503 0.4958 9.5601)" gradientUnits="userSpaceOnUse">
	<stop  offset="0" style="stop-color:#A99B4C"/>
	<stop  offset="1" style="stop-color:#E9D159"/>
</radialGradient>
<path style="fill-rule:evenodd;clip-rule:evenodd;fill:url(#SVGID_2_);" d="M2.05,6.1c0.267-0.333,0.7-0.667,1.3-1
	c1.133-0.733,2.466-1.167,4-1.3c0.433-0.033,0.85-0.033,1.25,0C8.5,3.633,8.483,3.4,8.55,3.1c0.134-0.867,0.8-1.633,2-2.3L12.3,0
	l1.8,0.7c1.267,0.6,2.017,1.316,2.25,2.15c0.066,0.267,0.066,0.5,0,0.7l1.2-0.05c1.534,0.033,2.917,0.383,4.15,1.05
	c0.633,0.333,1.1,0.65,1.4,0.95l-1.3,1c-1.133,0.733-2.466,1.167-4,1.3c-0.433,0.067-0.85,0.067-1.25,0
	c0.1,0.167,0.117,0.4,0.05,0.7c-0.133,0.833-0.8,1.6-2,2.3c-0.6,0.367-1.184,0.634-1.75,0.8c-0.567-0.133-1.167-0.366-1.8-0.699
	C9.783,10.3,9.033,9.566,8.8,8.7c-0.033-0.233-0.033-0.45,0-0.65L7.6,8.1C6.066,8.033,4.684,7.684,3.45,7.05L2.05,6.1z"/>
<radialGradient id="SVGID_3_" cx="12.5977" cy="4.9502" r="2.7641" gradientTransform="matrix(1 0 0 -0.8281 0 9.0492)" gradientUnits="userSpaceOnUse">
	<stop  offset="0" style="stop-color:#D9C458"/>
	<stop  offset="1" style="stop-color:#FDE777"/>
</radialGradient>
<path style="fill-rule:evenodd;clip-rule:evenodd;fill:url(#SVGID_3_);" d="M14.65,3.15c0.333,0,0.633,0.017,0.9,0.05l0.15,0.5
	c0.033,0.366-0.15,0.7-0.55,1L14.8,4.9l0.4,0.149c0.633,0.434,0.8,0.934,0.5,1.5c-1,0.2-1.9,0.15-2.7-0.149l-0.35-0.2L12.3,6.4
	c-0.767,0.366-1.667,0.483-2.7,0.35C9.233,6.184,9.367,5.684,10,5.25L10.35,5c-0.067,0-0.2-0.05-0.4-0.15c-0.4-0.267-0.6-0.6-0.6-1
	l0.1-0.5l0.9-0.1c0.7,0,1.3,0.1,1.8,0.3L12.5,3.7l0.35-0.2C13.316,3.267,13.917,3.15,14.65,3.15z"/>
<radialGradient id="SVGID_4_" cx="51.4541" cy="-2.6514" r="8.4765" gradientTransform="matrix(0.9868 0.1622 0.3053 -0.5236 2.2392 -3.8405)" gradientUnits="userSpaceOnUse">
	<stop  offset="0" style="stop-color:#000000;stop-opacity:0.6196"/>
	<stop  offset="1" style="stop-color:#000000;stop-opacity:0"/>
</radialGradient>
<path style="fill-rule:evenodd;clip-rule:evenodd;fill:url(#SVGID_4_);" d="M60.6,7.3c-0.733,1.233-2.166,2.15-4.3,2.75
	c-2.133,0.567-4.35,0.667-6.649,0.3c-2.334-0.366-4.067-1.116-5.2-2.25c-1.134-1.133-1.334-2.317-0.601-3.55S46.017,2.4,48.15,1.8
	c2.133-0.6,4.35-0.716,6.649-0.35c2.334,0.4,4.05,1.167,5.15,2.3C61.083,4.883,61.3,6.066,60.6,7.3z"/>
<radialGradient id="SVGID_5_" cx="50.8506" cy="-3.8457" r="7.0053" gradientTransform="matrix(0.9867 0.1624 0.3194 -0.5478 3.3016 -5.6633)" gradientUnits="userSpaceOnUse">
	<stop  offset="0" style="stop-color:#A99B4C"/>
	<stop  offset="1" style="stop-color:#E9D159"/>
</radialGradient>
<path style="fill-rule:evenodd;clip-rule:evenodd;fill:url(#SVGID_5_);" d="M45.3,3.55l1.25-0.5c1.066-0.3,2.117-0.417,3.15-0.35
	l0.8,0.15c0.134-0.267,0.217-0.417,0.25-0.45c0.434-0.534,1.184-0.95,2.25-1.25c0.566-0.167,1.066-0.267,1.5-0.3l0.9,0.7
	c0.533,0.567,0.699,1.134,0.5,1.7C55.866,3.383,55.767,3.533,55.6,3.7L56.4,3.8c0.966,0.267,1.716,0.684,2.25,1.25
	c0.267,0.3,0.433,0.567,0.5,0.8c-1.233,0.7-2.7,0.966-4.4,0.8l-0.8-0.101L53.7,7C53,7.867,51.767,8.383,50,8.55
	c-0.3-0.167-0.6-0.383-0.9-0.649c-0.533-0.567-0.699-1.15-0.5-1.75c0.034-0.167,0.117-0.317,0.25-0.45l-0.8-0.1
	c-0.967-0.233-1.717-0.65-2.25-1.25L45.3,3.55z"/>
<radialGradient id="SVGID_6_" cx="52.25" cy="3.8501" r="2.2375" gradientTransform="matrix(1 0 0 -0.8268 0 7.0334)" gradientUnits="userSpaceOnUse">
	<stop  offset="0" style="stop-color:#D9C458"/>
	<stop  offset="1" style="stop-color:#FDE777"/>
</radialGradient>
<path style="fill-rule:evenodd;clip-rule:evenodd;fill:url(#SVGID_6_);" d="M50.6,2.7L50.9,2.4l0.6,0.05
	c0.467,0.066,0.816,0.2,1.05,0.4l0.15,0.2l0.3-0.1c0.667-0.134,1.3-0.1,1.9,0.1C54.9,3.483,54.6,3.8,54,4l-0.3,0.1l0.2,0.15
	c0.233,0.367,0.133,0.717-0.301,1.05c-0.733,0-1.3-0.149-1.699-0.45L51.75,4.7l-0.3,0.05c-0.4,0.1-0.834,0.117-1.3,0.05L49.6,4.65
	c0-0.101,0.034-0.217,0.101-0.351c0.133-0.267,0.383-0.466,0.75-0.6l0.3-0.1L50.6,3.45C50.467,3.217,50.467,2.967,50.6,2.7z"/>
<radialGradient id="SVGID_7_" cx="60.5303" cy="21.4189" r="13.2575" gradientTransform="matrix(0.9885 -0.1511 -0.237 -0.5164 14.3664 31.3094)" gradientUnits="userSpaceOnUse">
	<stop  offset="0" style="stop-color:#000000;stop-opacity:0.6196"/>
	<stop  offset="1" style="stop-color:#000000;stop-opacity:0"/>
</radialGradient>
<path style="fill-rule:evenodd;clip-rule:evenodd;fill:url(#SVGID_7_);" d="M66,4.3c3.6-0.566,6.983-0.383,10.15,0.55
	c3.166,0.966,5.183,2.383,6.05,4.25c0.866,1.9,0.333,3.716-1.601,5.45c-1.933,1.733-4.716,2.867-8.35,3.4
	c-3.6,0.566-6.983,0.366-10.15-0.601c-3.166-0.933-5.183-2.35-6.05-4.25c-0.866-1.866-0.333-3.666,1.601-5.399
	C59.583,6,62.366,4.867,66,4.3z"/>
<radialGradient id="SVGID_8_" cx="60.8896" cy="20.0703" r="10.95" gradientTransform="matrix(0.9886 -0.1507 -0.2477 -0.54 13.6769 29.8123)" gradientUnits="userSpaceOnUse">
	<stop  offset="0" style="stop-color:#A99B4C"/>
	<stop  offset="1" style="stop-color:#E9D159"/>
</radialGradient>
<path style="fill-rule:evenodd;clip-rule:evenodd;fill:url(#SVGID_8_);" d="M63.55,7.55c-0.2-0.866,0.167-1.733,1.101-2.6l1.5-1.05
	l2.199,0.5c1.601,0.466,2.684,1.116,3.25,1.95c0.167,0.267,0.25,0.5,0.25,0.7L73.1,6.8c1.634-0.133,3.233,0.05,4.801,0.55
	c0.767,0.267,1.366,0.533,1.8,0.8L78.8,9.4c-0.899,0.866-2.116,1.467-3.649,1.8l-1.301,0.2c0.2,0.199,0.317,0.416,0.351,0.649
	c0.233,0.9-0.134,1.784-1.101,2.65c-0.466,0.433-0.966,0.783-1.5,1.05c-0.666-0.066-1.383-0.217-2.149-0.45
	c-1.566-0.5-2.65-1.167-3.25-2c-0.134-0.167-0.233-0.399-0.3-0.7c-0.467,0.134-0.884,0.2-1.25,0.2
	c-1.634,0.134-3.217-0.05-4.75-0.55l-1.851-0.8c0.167-0.366,0.467-0.767,0.9-1.2c0.934-0.867,2.166-1.467,3.7-1.8
	c0.6-0.134,1.017-0.2,1.25-0.2C63.7,7.983,63.583,7.75,63.55,7.55z"/>
<radialGradient id="SVGID_9_" cx="68.9004" cy="9" r="3.35" gradientTransform="matrix(1 0 0 -0.8246 0 16.4216)" gradientUnits="userSpaceOnUse">
	<stop  offset="0" style="stop-color:#D9C458"/>
	<stop  offset="1" style="stop-color:#FDE777"/>
</radialGradient>
<path style="fill-rule:evenodd;clip-rule:evenodd;fill:url(#SVGID_9_);" d="M66.55,11.2c-0.6-0.533-0.684-1.067-0.25-1.6
	c0.066-0.133,0.167-0.217,0.3-0.25L66.1,9.2c-0.533-0.233-0.883-0.55-1.05-0.95l-0.1-0.5l0.899-0.2c0.733-0.133,1.4-0.133,2,0
	L68.3,7.7l0.25-0.25c0.434-0.3,1.017-0.5,1.75-0.6c0.367-0.034,0.684-0.05,0.95-0.05l0.35,0.5c0.2,0.367,0.167,0.733-0.1,1.101
	l-0.3,0.25l0.45,0.1C72.517,9.117,72.9,9.6,72.8,10.2c-0.934,0.366-1.899,0.433-2.899,0.2l-0.45-0.15L69.2,10.5
	C68.533,10.967,67.65,11.2,66.55,11.2z"/>
<radialGradient id="SVGID_10_" cx="40.4009" cy="-4.521" r="7.0088" gradientTransform="matrix(0.9257 0.3781 0.6814 -0.4959 7.3788 -5.3699)" gradientUnits="userSpaceOnUse">
	<stop  offset="0" style="stop-color:#000000;stop-opacity:0.6196"/>
	<stop  offset="1" style="stop-color:#000000;stop-opacity:0"/>
</radialGradient>
<path style="fill-rule:evenodd;clip-rule:evenodd;fill:url(#SVGID_10_);" d="M48.2,14.8c-1.334,0.967-3.101,1.534-5.3,1.7
	c-2.2,0.167-4.2-0.117-6-0.85c-1.767-0.768-2.816-1.733-3.15-2.9c-0.367-1.233,0.117-2.316,1.45-3.25
	c1.333-0.967,3.1-1.517,5.3-1.65c2.2-0.167,4.184,0.117,5.95,0.85c1.8,0.733,2.866,1.7,3.2,2.899
	C49.983,12.767,49.5,13.834,48.2,14.8z"/>
<radialGradient id="SVGID_11_" cx="39.3184" cy="-5.7236" r="5.7847" gradientTransform="matrix(0.9249 0.3803 0.7131 -0.5186 9.5178 -6.9215)" gradientUnits="userSpaceOnUse">
	<stop  offset="0" style="stop-color:#A99B4C"/>
	<stop  offset="1" style="stop-color:#E9D159"/>
</radialGradient>
<path style="fill-rule:evenodd;clip-rule:evenodd;fill:url(#SVGID_11_);" d="M36.4,9.6l0.05-0.8l1.4-0.25
	c1.066-0.1,2.033-0.017,2.9,0.25l0.6,0.25L41.8,8.7c0.7-0.4,1.601-0.65,2.7-0.75c0.566-0.033,1.05-0.033,1.45,0L46.35,8.7
	c0.167,0.633-0.017,1.183-0.55,1.649L45.3,10.7l0.65,0.2c0.7,0.366,1.116,0.85,1.25,1.449c0.066,0.301,0.05,0.567-0.05,0.801
	c-1.5,0.434-2.934,0.434-4.301,0l-0.6-0.25l-0.45,0.35c-1.133,0.633-2.517,0.883-4.15,0.75c-0.167-0.2-0.283-0.45-0.35-0.75
	c-0.167-0.633,0-1.184,0.5-1.65l0.5-0.35l-0.65-0.2C36.95,10.684,36.533,10.2,36.4,9.6z"/>
<radialGradient id="SVGID_12_" cx="41.7998" cy="10.1504" r="2.325" gradientTransform="matrix(1 0 0 -0.828 0 18.5545)" gradientUnits="userSpaceOnUse">
	<stop  offset="0" style="stop-color:#D9C458"/>
	<stop  offset="1" style="stop-color:#FDE777"/>
</radialGradient>
<path style="fill-rule:evenodd;clip-rule:evenodd;fill:url(#SVGID_12_);" d="M41.05,8.85l0.4-0.2l0.5,0.149
	c0.366,0.134,0.6,0.3,0.7,0.5l0.05,0.2L43,9.45c0.667,0,1.184,0.15,1.55,0.45c-0.233,0.366-0.666,0.6-1.3,0.699h-0.3L43,10.8
	c0,0.333-0.283,0.617-0.85,0.851c-0.634-0.101-1.034-0.334-1.2-0.7V10.8H40.6c-0.4,0.034-0.784-0.033-1.15-0.2l-0.4-0.25
	c0.067-0.066,0.167-0.149,0.3-0.25c0.267-0.199,0.6-0.333,1-0.399l0.3-0.05L40.6,9.5C40.6,9.267,40.75,9.05,41.05,8.85z"/>
</svg>
