<?xml version="1.0" encoding="iso-8859-1"?>
<!-- Generator: Adobe Illustrator 15.1.0, SVG Export Plug-In . SVG Version: 6.00 Build 0)  -->
<!DOCTYPE svg PUBLIC "-//W3C//DTD SVG 1.1//EN" "http://www.w3.org/Graphics/SVG/1.1/DTD/svg11.dtd">
<svg version="1.1" id="FlashAICB" xmlns="http://www.w3.org/2000/svg" xmlns:xlink="http://www.w3.org/1999/xlink" x="0px" y="0px"
	 width="276.9px" height="29.4px" viewBox="0 0 276.9 29.4" style="enable-background:new 0 0 276.9 29.4;" xml:space="preserve">
<g>
	<g>
		
			<radialGradient id="SVGID_1_" cx="237.9961" cy="-21.1553" r="8.4748" gradientTransform="matrix(0.9868 0.1622 0.3053 -0.5236 17.8665 -30.6405)" gradientUnits="userSpaceOnUse">
			<stop  offset="0" style="stop-color:#000000;stop-opacity:0.6196"/>
			<stop  offset="1" style="stop-color:#000000;stop-opacity:0"/>
		</radialGradient>
		<path style="fill-rule:evenodd;clip-rule:evenodd;fill:url(#SVGID_1_);" d="M254.6,20.4c-0.699,1.233-2.116,2.149-4.25,2.75
			c-2.133,0.6-4.366,0.716-6.699,0.35c-2.301-0.366-4.018-1.116-5.15-2.25s-1.333-2.316-0.6-3.55c0.699-1.233,2.116-2.15,4.25-2.75
			c2.133-0.6,4.366-0.717,6.699-0.35c2.301,0.367,4.018,1.117,5.15,2.25C255.133,17.983,255.333,19.167,254.6,20.4z"/>
		
			<radialGradient id="SVGID_2_" cx="237.3477" cy="-22.3711" r="6.9983" gradientTransform="matrix(0.9867 0.1624 0.3194 -0.5478 19.207 -32.942)" gradientUnits="userSpaceOnUse">
			<stop  offset="0" style="stop-color:#C28136"/>
			<stop  offset="1" style="stop-color:#FAB35C"/>
		</radialGradient>
		<path style="fill-rule:evenodd;clip-rule:evenodd;fill:url(#SVGID_2_);" d="M248.5,14l0.9,0.7c0.533,0.566,0.699,1.133,0.5,1.7
			l-0.25,0.449l0.8,0.101c0.967,0.233,1.717,0.633,2.25,1.2c0.267,0.3,0.433,0.566,0.5,0.8c-1.267,0.733-2.733,1.017-4.4,0.85
			c-0.333,0-0.6-0.05-0.8-0.149l-0.25,0.449c-0.467,0.534-1.233,0.967-2.3,1.301L244,21.7c-0.3-0.167-0.6-0.4-0.9-0.7
			c-0.533-0.566-0.699-1.134-0.5-1.7c0.067-0.2,0.167-0.35,0.301-0.45c-0.367-0.033-0.634-0.083-0.801-0.149
			c-0.967-0.233-1.717-0.634-2.25-1.2l-0.5-0.8l1.25-0.5c1.033-0.334,2.084-0.45,3.15-0.351l0.8,0.15c0.067-0.2,0.15-0.35,0.25-0.45
			C245.5,14.683,246.733,14.167,248.5,14z"/>
		<path style="fill-rule:evenodd;clip-rule:evenodd;fill:#F7E884;" d="M247.05,16.9c0.667-0.134,1.283-0.084,1.851,0.149
			c0.033,0.4-0.25,0.717-0.851,0.95l-0.3,0.1l0.15,0.15c0.232,0.366,0.133,0.717-0.301,1.05c-0.732,0-1.283-0.149-1.649-0.45
			l-0.15-0.199l-0.3,0.1c-0.4,0.1-0.833,0.1-1.3,0L243.6,18.6l0.101-0.35c0.133-0.233,0.383-0.417,0.75-0.55l0.35-0.101l-0.2-0.149
			c-0.133-0.233-0.133-0.483,0-0.75c0.101-0.101,0.2-0.2,0.301-0.3l0.649,0.05c0.467,0.066,0.817,0.2,1.05,0.399l0.15,0.15
			L247.05,16.9z"/>
	</g>
	<g>
		
			<radialGradient id="SVGID_3_" cx="41.5605" cy="14.3892" r="8.4746" gradientTransform="matrix(0.9868 0.1622 0.3053 -0.5236 -12.1524 20.8412)" gradientUnits="userSpaceOnUse">
			<stop  offset="0" style="stop-color:#000000;stop-opacity:0.6196"/>
			<stop  offset="1" style="stop-color:#000000;stop-opacity:0"/>
		</radialGradient>
		<path style="fill-rule:evenodd;clip-rule:evenodd;fill:url(#SVGID_3_);" d="M41.6,21.4c-0.7,1.233-2.117,2.149-4.25,2.75
			c-2.133,0.6-4.367,0.716-6.7,0.35c-2.3-0.366-4.017-1.116-5.15-2.25s-1.333-2.316-0.6-3.55c0.7-1.233,2.117-2.15,4.25-2.75
			c2.133-0.601,4.367-0.717,6.7-0.351c2.3,0.367,4.017,1.117,5.15,2.25C42.133,18.983,42.333,20.167,41.6,21.4z"/>
		
			<radialGradient id="SVGID_4_" cx="40.9209" cy="13.2017" r="6.9977" gradientTransform="matrix(0.9867 0.1624 0.3194 -0.5478 -11.3345 19.4393)" gradientUnits="userSpaceOnUse">
			<stop  offset="0" style="stop-color:#C28136"/>
			<stop  offset="1" style="stop-color:#FAB35C"/>
		</radialGradient>
		<path style="fill-rule:evenodd;clip-rule:evenodd;fill:url(#SVGID_4_);" d="M35.8,20.8c-0.333,0-0.6-0.05-0.8-0.149L34.75,21.1
			c-0.467,0.534-1.233,0.967-2.3,1.301L31,22.7c-0.3-0.167-0.6-0.4-0.9-0.7c-0.533-0.566-0.7-1.134-0.5-1.7
			c0.066-0.2,0.167-0.35,0.3-0.45c-0.367-0.033-0.633-0.083-0.8-0.149c-0.967-0.233-1.717-0.634-2.25-1.2l-0.5-0.8l1.25-0.5
			c1.033-0.334,2.083-0.45,3.15-0.351l0.8,0.15c0.067-0.2,0.15-0.35,0.25-0.45c0.7-0.866,1.934-1.383,3.7-1.55l0.9,0.7
			c0.534,0.566,0.7,1.133,0.5,1.7l-0.25,0.449l0.8,0.101c0.966,0.233,1.716,0.633,2.25,1.2c0.267,0.3,0.433,0.566,0.5,0.8
			C38.934,20.684,37.467,20.967,35.8,20.8z"/>
		<path style="fill-rule:evenodd;clip-rule:evenodd;fill:#F7E884;" d="M34.05,17.9c0.667-0.134,1.284-0.084,1.85,0.149
			c0.034,0.4-0.25,0.717-0.85,0.95l-0.3,0.1l0.15,0.15c0.233,0.366,0.133,0.717-0.3,1.05c-0.733,0-1.283-0.149-1.65-0.45L32.8,19.65
			l-0.3,0.1c-0.4,0.1-0.833,0.1-1.3,0l-0.6-0.15l0.1-0.35c0.133-0.233,0.383-0.417,0.75-0.55L31.8,18.6l-0.2-0.149
			c-0.133-0.233-0.133-0.483,0-0.75c0.1-0.101,0.2-0.2,0.3-0.3l0.65,0.05c0.467,0.066,0.817,0.2,1.05,0.399L33.75,18L34.05,17.9z"/>
	</g>
	<g>
		
			<radialGradient id="SVGID_5_" cx="12.8911" cy="21.0898" r="6.8891" gradientTransform="matrix(0.9962 -0.0871 -0.0563 -0.5226 3.4441 31.9944)" gradientUnits="userSpaceOnUse">
			<stop  offset="0" style="stop-color:#000000;stop-opacity:0.6196"/>
			<stop  offset="1" style="stop-color:#000000;stop-opacity:0"/>
		</radialGradient>
		<path style="fill-rule:evenodd;clip-rule:evenodd;fill:url(#SVGID_5_);" d="M21.95,19.25c0.1,1-0.483,1.9-1.75,2.7
			c-1.233,0.833-2.8,1.333-4.7,1.5c-1.9,0.166-3.55-0.033-4.95-0.601c-1.433-0.6-2.2-1.399-2.3-2.399c-0.133-1,0.434-1.917,1.7-2.75
			c1.267-0.8,2.85-1.283,4.75-1.45c1.9-0.167,3.566,0.033,5,0.6C21.1,17.45,21.85,18.25,21.95,19.25z"/>
		
			<radialGradient id="SVGID_6_" cx="12.8516" cy="20.3633" r="5.6847" gradientTransform="matrix(0.9963 -0.0858 -0.0594 -0.5476 3.4047 31.4014)" gradientUnits="userSpaceOnUse">
			<stop  offset="0" style="stop-color:#C28136"/>
			<stop  offset="1" style="stop-color:#FAB35C"/>
		</radialGradient>
		<path style="fill-rule:evenodd;clip-rule:evenodd;fill:url(#SVGID_6_);" d="M12.75,18.2l-0.05-0.4
			c0.066-0.467,0.417-0.899,1.05-1.3c0.3-0.2,0.6-0.35,0.9-0.45l1,0.3c0.7,0.301,1.117,0.667,1.25,1.101l0.05,0.35l0.65-0.05
			c1.333-0.033,2.35,0.267,3.05,0.9c-0.533,0.733-1.466,1.199-2.8,1.399L17.2,20.1l0.05,0.351c-0.066,0.767-0.717,1.366-1.95,1.8
			c-1.267-0.233-2.017-0.7-2.25-1.4L13,20.45l-0.65,0.1c-0.833,0.033-1.583-0.116-2.25-0.45L9.3,19.65l0.65-0.601
			c0.633-0.399,1.35-0.666,2.15-0.8L12.75,18.2z"/>
		<path style="fill-rule:evenodd;clip-rule:evenodd;fill:#F7E884;" d="M13.45,20.2c-0.067-0.066-0.1-0.15-0.1-0.25
			c-0.033-0.233,0.05-0.434,0.25-0.601l0.15-0.1l-0.2-0.1c-0.233-0.134-0.35-0.301-0.35-0.5l0.05-0.25l0.5-0.101
			c0.367-0.033,0.684,0,0.95,0.101l0.2,0.1l0.2-0.15c0.4-0.233,0.883-0.316,1.45-0.25c0.2,0.301,0.15,0.567-0.15,0.801l-0.2,0.149
			l0.2,0.101c0.367,0.199,0.467,0.449,0.3,0.75c-0.5,0.166-0.983,0.166-1.45,0l-0.2-0.101l-0.15,0.15
			c-0.267,0.133-0.583,0.217-0.95,0.25H13.45z"/>
		
			<radialGradient id="SVGID_7_" cx="27.6494" cy="19.3965" r="6.2559" gradientTransform="matrix(0.9251 0.3796 0.6814 -0.4955 -31.6456 23.0154)" gradientUnits="userSpaceOnUse">
			<stop  offset="0" style="stop-color:#000000;stop-opacity:0.6196"/>
			<stop  offset="1" style="stop-color:#000000;stop-opacity:0"/>
		</radialGradient>
		<path style="fill-rule:evenodd;clip-rule:evenodd;fill:url(#SVGID_7_);" d="M12.95,26.25c-1.167,0.866-2.733,1.366-4.7,1.5
			C6.283,27.917,4.5,27.667,2.9,27c-1.6-0.634-2.55-1.483-2.85-2.55c-0.267-1.066,0.184-2.033,1.35-2.9
			c1.167-0.866,2.733-1.366,4.7-1.5c1.967-0.166,3.75,0.084,5.35,0.75c1.6,0.634,2.55,1.5,2.85,2.601
			C14.567,24.434,14.117,25.384,12.95,26.25z"/>
		
			<radialGradient id="SVGID_8_" cx="26.7212" cy="18.3594" r="5.1626" gradientTransform="matrix(0.9249 0.3801 0.7143 -0.5206 -30.5287 22.2497)" gradientUnits="userSpaceOnUse">
			<stop  offset="0" style="stop-color:#C28136"/>
			<stop  offset="1" style="stop-color:#FAB35C"/>
		</radialGradient>
		<path style="fill-rule:evenodd;clip-rule:evenodd;fill:url(#SVGID_8_);" d="M7.3,20.8c1-0.566,2.217-0.783,3.65-0.649l0.35,0.699
			c0.167,0.534,0.017,1.017-0.45,1.45l-0.45,0.3l0.55,0.2c0.633,0.334,1.017,0.767,1.15,1.3c0.033,0.267,0.017,0.5-0.05,0.7
			c-1.333,0.367-2.616,0.367-3.85,0l-0.5-0.25L7.25,24.9c-0.633,0.366-1.433,0.583-2.4,0.649H3.6c-0.167-0.166-0.283-0.399-0.35-0.7
			C3.083,24.316,3.233,23.833,3.7,23.4L4.15,23.1L3.6,22.9c-0.633-0.334-1.017-0.767-1.15-1.301L2.5,20.9l1.25-0.2
			c0.967-0.101,1.833-0.033,2.6,0.2l0.5,0.25L7.3,20.8z"/>
		<path style="fill-rule:evenodd;clip-rule:evenodd;fill:#F7E884;" d="M9.75,22.65c-0.2,0.3-0.583,0.5-1.15,0.6H8.3l0.05,0.2
			c0,0.3-0.25,0.55-0.75,0.75C7.033,24.1,6.667,23.9,6.5,23.6V23.4l-0.3,0.05c-0.367,0-0.7-0.066-1-0.2l-0.4-0.2l0.25-0.25
			c0.233-0.166,0.534-0.283,0.9-0.35h0.3L6.2,22.3c0-0.2,0.133-0.399,0.4-0.6c0.1-0.066,0.217-0.134,0.35-0.2l0.45,0.15
			c0.333,0.1,0.55,0.25,0.65,0.449v0.2l0.3-0.05C8.917,22.25,9.383,22.384,9.75,22.65z"/>
	</g>
	<g>
		
			<radialGradient id="SVGID_9_" cx="79.8296" cy="11.4473" r="10.7315" gradientTransform="matrix(0.9868 0.1618 0.3049 -0.5237 -9.6554 16.5843)" gradientUnits="userSpaceOnUse">
			<stop  offset="0" style="stop-color:#000000;stop-opacity:0.6196"/>
			<stop  offset="1" style="stop-color:#000000;stop-opacity:0"/>
		</radialGradient>
		<path style="fill-rule:evenodd;clip-rule:evenodd;fill:url(#SVGID_9_);" d="M67.4,18.35c2.7-0.767,5.517-0.916,8.45-0.449
			c2.933,0.466,5.117,1.416,6.55,2.85c1.434,1.467,1.7,2.967,0.8,4.5c-0.934,1.566-2.75,2.717-5.45,3.45
			c-2.7,0.767-5.517,0.916-8.45,0.45c-2.933-0.467-5.116-1.417-6.55-2.851c-1.434-1.467-1.684-2.967-0.75-4.5
			C62.9,20.267,64.7,19.116,67.4,18.35z"/>
		
			<radialGradient id="SVGID_10_" cx="79.0024" cy="9.957" r="8.8894" gradientTransform="matrix(0.9868 0.1619 0.3196 -0.5476 -8.5554 14.6609)" gradientUnits="userSpaceOnUse">
			<stop  offset="0" style="stop-color:#C28136"/>
			<stop  offset="1" style="stop-color:#FAB35C"/>
		</radialGradient>
		<path style="fill-rule:evenodd;clip-rule:evenodd;fill:url(#SVGID_10_);" d="M70.7,19.1c0.6-0.699,1.566-1.233,2.9-1.6
			c0.667-0.2,1.283-0.333,1.85-0.4l1.15,0.851c0.7,0.733,0.917,1.467,0.65,2.2l-0.4,0.6l1.05,0.1
			c1.233,0.301,2.184,0.817,2.85,1.551c0.333,0.366,0.533,0.699,0.6,1c-1.567,0.933-3.417,1.3-5.55,1.1l-1-0.2L74.5,24.9
			c-0.566,0.666-1.533,1.199-2.9,1.6l-1.85,0.35c-0.4-0.199-0.767-0.483-1.1-0.85c-0.7-0.7-0.933-1.434-0.7-2.2l0.4-0.55L67.3,23.1
			c-1.233-0.3-2.183-0.816-2.85-1.55l-0.6-1l1.6-0.649c1.3-0.4,2.616-0.534,3.95-0.4c0.167,0,0.5,0.05,1,0.15L70.7,19.1z"/>
		<path style="fill-rule:evenodd;clip-rule:evenodd;fill:#F7E884;" d="M70.55,20.55c0.1-0.166,0.217-0.3,0.35-0.399l0.8,0.1
			c0.566,0.1,1,0.267,1.3,0.5l0.2,0.2l0.4-0.101c0.833-0.199,1.617-0.149,2.35,0.15c0,0.5-0.367,0.9-1.1,1.2l-0.4,0.1l0.25,0.2
			c0.3,0.467,0.167,0.9-0.4,1.3c-0.933,0.033-1.633-0.149-2.1-0.55L72,23l-0.4,0.15c-0.534,0.1-1.083,0.1-1.65,0L69.25,23l0.1-0.45
			c0.2-0.333,0.533-0.583,1-0.75l0.4-0.1l-0.25-0.25C70.3,21.184,70.316,20.884,70.55,20.55z"/>
	</g>
	<g>
		
			<radialGradient id="SVGID_11_" cx="175.5762" cy="-16.6924" r="8.474" gradientTransform="matrix(0.9868 0.1622 0.3053 -0.5236 14.0974 -24.1766)" gradientUnits="userSpaceOnUse">
			<stop  offset="0" style="stop-color:#000000;stop-opacity:0.6196"/>
			<stop  offset="1" style="stop-color:#000000;stop-opacity:0"/>
		</radialGradient>
		<path style="fill-rule:evenodd;clip-rule:evenodd;fill:url(#SVGID_11_);" d="M190.6,14.4c-0.699,1.234-2.116,2.15-4.25,2.75
			c-2.133,0.6-4.366,0.716-6.699,0.35c-2.301-0.366-4.018-1.116-5.15-2.25c-1.133-1.133-1.333-2.317-0.6-3.55
			c0.699-1.233,2.116-2.15,4.25-2.75c2.133-0.6,4.366-0.717,6.699-0.35c2.301,0.367,4.018,1.117,5.15,2.25
			S191.333,13.167,190.6,14.4z"/>
		
			<radialGradient id="SVGID_12_" cx="174.9307" cy="-17.8994" r="6.9973" gradientTransform="matrix(0.9867 0.1624 0.3194 -0.5478 15.3678 -26.3574)" gradientUnits="userSpaceOnUse">
			<stop  offset="0" style="stop-color:#A75155"/>
			<stop  offset="1" style="stop-color:#E56B70"/>
		</radialGradient>
		<path style="fill-rule:evenodd;clip-rule:evenodd;fill:url(#SVGID_12_);" d="M184.5,8l0.9,0.7c0.533,0.566,0.699,1.133,0.5,1.7
			l-0.25,0.45l0.8,0.1c0.967,0.233,1.717,0.633,2.25,1.2c0.267,0.3,0.433,0.567,0.5,0.8c-1.267,0.733-2.733,1.017-4.4,0.85
			c-0.333,0-0.6-0.05-0.8-0.15l-0.25,0.45c-0.467,0.533-1.233,0.966-2.3,1.3L180,15.7c-0.3-0.167-0.6-0.4-0.9-0.7
			c-0.533-0.567-0.699-1.133-0.5-1.7c0.067-0.2,0.167-0.35,0.301-0.45c-0.367-0.033-0.634-0.083-0.801-0.15
			c-0.967-0.233-1.717-0.633-2.25-1.2l-0.5-0.8l1.25-0.5c1.033-0.333,2.084-0.45,3.15-0.35l0.8,0.15c0.067-0.2,0.15-0.35,0.25-0.45
			C181.5,8.683,182.733,8.167,184.5,8z"/>
		<path style="fill-rule:evenodd;clip-rule:evenodd;fill:#F6CA84;" d="M180.9,10.4l0.649,0.05c0.467,0.066,0.817,0.2,1.05,0.4
			l0.15,0.15l0.3-0.1c0.667-0.133,1.283-0.083,1.851,0.15c0.033,0.4-0.25,0.717-0.851,0.95l-0.3,0.1l0.15,0.15
			c0.232,0.367,0.133,0.717-0.301,1.05c-0.732,0-1.283-0.15-1.649-0.45l-0.15-0.2l-0.3,0.1c-0.4,0.1-0.833,0.1-1.3,0L179.6,12.6
			l0.101-0.35c0.133-0.233,0.383-0.417,0.75-0.55l0.35-0.1l-0.2-0.15c-0.133-0.233-0.133-0.483,0-0.75
			C180.7,10.6,180.8,10.5,180.9,10.4z"/>
	</g>
	<g>
		
			<radialGradient id="SVGID_13_" cx="81.1147" cy="-20.9922" r="7.0088" gradientTransform="matrix(0.9257 0.3781 0.6814 -0.4959 34.2611 -24.9333)" gradientUnits="userSpaceOnUse">
			<stop  offset="0" style="stop-color:#000000;stop-opacity:0.6196"/>
			<stop  offset="1" style="stop-color:#000000;stop-opacity:0"/>
		</radialGradient>
		<path style="fill-rule:evenodd;clip-rule:evenodd;fill:url(#SVGID_13_);" d="M101.55,18.8c-1.333,0.967-3.1,1.533-5.3,1.7
			c-2.2,0.134-4.2-0.167-6-0.9c-1.767-0.733-2.816-1.699-3.15-2.899c-0.367-1.2,0.117-2.267,1.45-3.2c1.333-0.967,3.1-1.533,5.3-1.7
			c2.2-0.167,4.183,0.117,5.95,0.85c1.8,0.733,2.867,1.7,3.2,2.9C103.333,16.75,102.85,17.833,101.55,18.8z"/>
		
			<radialGradient id="SVGID_14_" cx="79.9189" cy="-22.3604" r="5.785" gradientTransform="matrix(0.9249 0.3803 0.7131 -0.5186 37.181 -27.0409)" gradientUnits="userSpaceOnUse">
			<stop  offset="0" style="stop-color:#A75155"/>
			<stop  offset="1" style="stop-color:#E56B70"/>
		</radialGradient>
		<path style="fill-rule:evenodd;clip-rule:evenodd;fill:url(#SVGID_14_);" d="M91.2,12.5c1.066-0.1,2.033-0.017,2.9,0.25l0.6,0.3
			c0.1-0.133,0.25-0.25,0.45-0.35c0.7-0.4,1.6-0.65,2.7-0.75c0.567-0.034,1.05-0.034,1.45,0l0.4,0.75
			c0.167,0.6-0.017,1.133-0.55,1.6l-0.5,0.35l0.65,0.25c0.7,0.367,1.117,0.85,1.25,1.45c0.067,0.301,0.05,0.567-0.05,0.801
			c-1.5,0.433-2.934,0.433-4.3,0l-0.6-0.301l-0.45,0.4c-0.7,0.4-1.6,0.634-2.7,0.7H91c-0.167-0.2-0.283-0.45-0.35-0.75
			c-0.167-0.601,0-1.134,0.5-1.601l0.5-0.35L91,15c-0.7-0.367-1.117-0.85-1.25-1.45l0.05-0.8L91.2,12.5z"/>
		<path style="fill-rule:evenodd;clip-rule:evenodd;fill:#F6CA84;" d="M93.95,14.3c0-0.233,0.15-0.45,0.45-0.65
			c0.133-0.066,0.267-0.133,0.4-0.2l0.5,0.15c0.367,0.133,0.6,0.316,0.7,0.55l0.05,0.15h0.3c0.667-0.033,1.183,0.1,1.55,0.4
			c-0.233,0.366-0.667,0.6-1.3,0.7h-0.3l0.05,0.199c0,0.367-0.284,0.65-0.85,0.851c-0.633-0.101-1.033-0.334-1.2-0.7l-0.05-0.15
			l-0.3,0.051c-0.4,0-0.783-0.067-1.15-0.2l-0.4-0.25l0.3-0.3c0.267-0.2,0.6-0.333,1-0.4H94L93.95,14.3z"/>
	</g>
	<g>
		
			<radialGradient id="SVGID_15_" cx="150.6963" cy="10.3257" r="10.3165" gradientTransform="matrix(0.9995 -0.0303 -0.0267 -0.5246 0.7992 15.7317)" gradientUnits="userSpaceOnUse">
			<stop  offset="0" style="stop-color:#000000;stop-opacity:0.6196"/>
			<stop  offset="1" style="stop-color:#000000;stop-opacity:0"/>
		</radialGradient>
		<path style="fill-rule:evenodd;clip-rule:evenodd;fill:url(#SVGID_15_);" d="M161.45,5.4c0.066,1.5-0.884,2.817-2.851,3.95
			s-4.366,1.733-7.199,1.8c-2.834,0.067-5.283-0.383-7.351-1.35c-2.066-1-3.133-2.25-3.2-3.75c-0.066-1.5,0.867-2.8,2.801-3.9
			c1.933-1.133,4.333-1.75,7.199-1.85c2.834-0.066,5.301,0.4,7.4,1.4C160.316,2.7,161.383,3.933,161.45,5.4z"/>
		
			<radialGradient id="SVGID_16_" cx="150.6533" cy="9.1255" r="8.5287" gradientTransform="matrix(0.9996 -0.0293 -0.0278 -0.5496 0.7159 14.1313)" gradientUnits="userSpaceOnUse">
			<stop  offset="0" style="stop-color:#A99B45"/>
			<stop  offset="1" style="stop-color:#E8D24E"/>
		</radialGradient>
		<path style="fill-rule:evenodd;clip-rule:evenodd;fill:url(#SVGID_16_);" d="M158.45,3.65c0.5,0.267,0.866,0.517,1.1,0.75
			c-0.2,0.267-0.533,0.55-1,0.85c-0.933,0.567-2.033,0.917-3.3,1.05c-0.367,0.067-0.7,0.067-1,0c0.1,0.133,0.117,0.317,0.05,0.55
			c-0.1,0.7-0.633,1.316-1.6,1.85l-1.4,0.65c-1.899-0.434-3-1.2-3.3-2.3c-0.066-0.2-0.066-0.383,0-0.55
			c-0.2,0.033-0.533,0.05-1,0.05c-1.233-0.033-2.35-0.316-3.35-0.85l-1.15-0.75l1.05-0.85c0.934-0.567,2.017-0.917,3.25-1.05h1
			l-0.05-0.55c0.133-0.7,0.684-1.317,1.65-1.85c0.467-0.3,0.933-0.517,1.399-0.65l1.5,0.55c1,0.5,1.601,1.083,1.8,1.75
			c0.067,0.2,0.067,0.383,0,0.55c0.2-0.033,0.533-0.05,1-0.05C156.367,2.833,157.483,3.117,158.45,3.65z"/>
		
			<radialGradient id="SVGID_17_" cx="151.0527" cy="4" r="2.2356" gradientTransform="matrix(1 0 0 -0.8268 0 7.3073)" gradientUnits="userSpaceOnUse">
			<stop  offset="0" style="stop-color:#D8C54F"/>
			<stop  offset="1" style="stop-color:#FCE86E"/>
		</radialGradient>
		<path style="fill-rule:evenodd;clip-rule:evenodd;fill:url(#SVGID_17_);" d="M149.35,5.45h-0.699c-0.067-0.1-0.117-0.233-0.15-0.4
			c0-0.333,0.15-0.617,0.45-0.85l0.3-0.15L148.9,3.9c-0.301-0.2-0.467-0.467-0.5-0.8l0.1-0.4l0.75-0.05
			c0.566-0.033,1.05,0.033,1.45,0.2L151,3l0.25-0.15c0.633-0.3,1.367-0.4,2.2-0.3c0.3,0.434,0.2,0.85-0.3,1.25l-0.301,0.15
			l0.301,0.15c0.533,0.333,0.683,0.733,0.449,1.2c-0.833,0.167-1.566,0.117-2.199-0.15L151.1,5l-0.3,0.15
			C150.4,5.35,149.917,5.45,149.35,5.45z"/>
	</g>
	<g>
		
			<radialGradient id="SVGID_18_" cx="117.3984" cy="-7.502" r="6.8781" gradientTransform="matrix(0.9868 0.1617 0.3053 -0.5234 6.338 -10.8651)" gradientUnits="userSpaceOnUse">
			<stop  offset="0" style="stop-color:#000000;stop-opacity:0.6196"/>
			<stop  offset="1" style="stop-color:#000000;stop-opacity:0"/>
		</radialGradient>
		<path style="fill-rule:evenodd;clip-rule:evenodd;fill:url(#SVGID_18_);" d="M126.65,13.15c-0.566,1-1.716,1.75-3.45,2.25
			c-1.733,0.466-3.533,0.55-5.4,0.25c-1.866-0.301-3.267-0.9-4.2-1.8c-0.9-0.934-1.067-1.9-0.5-2.9s1.733-1.733,3.5-2.2
			c1.733-0.5,3.533-0.6,5.4-0.3c1.867,0.3,3.267,0.917,4.2,1.85C127.1,11.2,127.25,12.15,126.65,13.15z"/>
		
			<radialGradient id="SVGID_19_" cx="116.9077" cy="-8.377" r="5.6739" gradientTransform="matrix(0.987 0.1608 0.3194 -0.5486 7.1903 -12.3469)" gradientUnits="userSpaceOnUse">
			<stop  offset="0" style="stop-color:#A99B45"/>
			<stop  offset="1" style="stop-color:#E8D24E"/>
		</radialGradient>
		<path style="fill-rule:evenodd;clip-rule:evenodd;fill:url(#SVGID_19_);" d="M125.1,11.35c0.233,0.233,0.367,0.45,0.4,0.65
			c-1,0.567-2.184,0.783-3.55,0.65l-0.65-0.1l-0.2,0.35c-0.367,0.434-0.967,0.783-1.8,1.05l-1.2,0.25
			c-0.267-0.133-0.5-0.317-0.7-0.55c-0.466-0.467-0.617-0.933-0.45-1.4l0.2-0.4l-0.65-0.05c-0.8-0.2-1.4-0.533-1.8-1l-0.4-0.65
			l1-0.4c0.833-0.267,1.684-0.367,2.55-0.3l0.65,0.15l0.2-0.4c0.566-0.7,1.566-1.117,3-1.25c1.033,0.533,1.417,1.183,1.15,1.95
			l-0.25,0.35l0.7,0.1C124.1,10.55,124.7,10.883,125.1,11.35z"/>
		
			<radialGradient id="SVGID_20_" cx="119.8999" cy="10.3999" r="1.8125" gradientTransform="matrix(1 0 0 -0.8276 0 19.0067)" gradientUnits="userSpaceOnUse">
			<stop  offset="0" style="stop-color:#D8C54F"/>
			<stop  offset="1" style="stop-color:#FCE86E"/>
		</radialGradient>
		<path style="fill-rule:evenodd;clip-rule:evenodd;fill:url(#SVGID_20_);" d="M120.55,9.65c0.534-0.133,1.034-0.1,1.5,0.1
			c0,0.333-0.233,0.583-0.7,0.75l-0.25,0.1l0.15,0.1c0.167,0.3,0.083,0.583-0.25,0.85c-0.6,0-1.05-0.117-1.35-0.35l-0.15-0.15
			l-0.25,0.1c-0.333,0.067-0.684,0.067-1.05,0L117.75,11l0.1-0.25c0.1-0.2,0.3-0.367,0.6-0.5l0.25-0.05l-0.15-0.15
			c-0.133-0.2-0.133-0.4,0-0.6c0.067-0.1,0.15-0.184,0.25-0.25l0.5,0.05c0.367,0.067,0.65,0.183,0.85,0.35l0.15,0.1L120.55,9.65z"/>
	</g>
	<g>
		
			<radialGradient id="SVGID_21_" cx="52.2354" cy="23.4473" r="10.746" gradientTransform="matrix(0.9885 -0.1514 -0.2375 -0.5158 15.7725 34.2519)" gradientUnits="userSpaceOnUse">
			<stop  offset="0" style="stop-color:#000000;stop-opacity:0.6196"/>
			<stop  offset="1" style="stop-color:#000000;stop-opacity:0"/>
		</radialGradient>
		<path style="fill-rule:evenodd;clip-rule:evenodd;fill:url(#SVGID_21_);" d="M72.45,12.6c0.7,1.533,0.267,3-1.3,4.4
			c-1.6,1.4-3.867,2.316-6.8,2.75c-2.933,0.467-5.683,0.316-8.25-0.45s-4.2-1.916-4.9-3.45c-0.7-1.533-0.267-3,1.3-4.399
			c1.6-1.367,3.867-2.284,6.8-2.75c2.934-0.434,5.684-0.284,8.25,0.45C70.117,9.917,71.75,11.067,72.45,12.6z"/>
		
			<radialGradient id="SVGID_22_" cx="52.5293" cy="22.3516" r="8.874" gradientTransform="matrix(0.9886 -0.1509 -0.2482 -0.5401 15.2563 33.2006)" gradientUnits="userSpaceOnUse">
			<stop  offset="0" style="stop-color:#A99B45"/>
			<stop  offset="1" style="stop-color:#E8D24E"/>
		</radialGradient>
		<path style="fill-rule:evenodd;clip-rule:evenodd;fill:url(#SVGID_22_);" d="M59.4,8.4l1.8,0.4c1.267,0.367,2.133,0.883,2.6,1.55
			c0.067,0.1,0.15,0.283,0.25,0.55l1-0.15c1.3-0.1,2.583,0.05,3.85,0.45c0.633,0.2,1.133,0.417,1.5,0.65c-0.1,0.3-0.333,0.633-0.7,1
			c-0.733,0.7-1.733,1.183-3,1.45l-1.05,0.15c0.133,0.133,0.233,0.316,0.3,0.55c0.167,0.733-0.134,1.45-0.9,2.15l-1.2,0.8
			c-0.534-0.066-1.133-0.184-1.8-0.351c-1.267-0.399-2.133-0.933-2.6-1.6c-0.067-0.1-0.15-0.283-0.25-0.55l-1,0.149
			c-1.3,0.134-2.583-0.017-3.85-0.449l-1.5-0.65l0.75-1c0.733-0.7,1.716-1.183,2.95-1.45l1.05-0.15
			c-0.133-0.133-0.233-0.316-0.3-0.55c-0.167-0.733,0.134-1.45,0.9-2.15C58.6,8.867,59,8.6,59.4,8.4z"/>
		
			<radialGradient id="SVGID_23_" cx="61.6499" cy="12.5" r="2.7125" gradientTransform="matrix(1 0 0 -0.8249 0 22.8111)" gradientUnits="userSpaceOnUse">
			<stop  offset="0" style="stop-color:#D8C54F"/>
			<stop  offset="1" style="stop-color:#FCE86E"/>
		</radialGradient>
		<path style="fill-rule:evenodd;clip-rule:evenodd;fill:url(#SVGID_23_);" d="M60.8,11.35l0.35,0.15l0.2-0.25
			c0.533-0.367,1.267-0.55,2.2-0.55c0.467,0.433,0.534,0.867,0.2,1.3l-0.25,0.2l0.35,0.1c0.7,0.3,1.017,0.7,0.95,1.2
			c-0.767,0.267-1.55,0.317-2.35,0.15L62.1,13.5l-0.2,0.25c-0.333,0.233-0.8,0.4-1.4,0.5l-0.8,0.05c-0.1-0.1-0.2-0.233-0.3-0.4
			c-0.133-0.333-0.1-0.633,0.1-0.9l0.25-0.2l-0.35-0.15c-0.433-0.167-0.716-0.4-0.85-0.7l-0.1-0.45l0.75-0.15
			C59.767,11.25,60.3,11.25,60.8,11.35z"/>
		
			<radialGradient id="SVGID_24_" cx="54.1729" cy="19.4502" r="8.3159" gradientTransform="matrix(0.9995 -0.0301 -0.0271 -0.5246 1.5288 29.6319)" gradientUnits="userSpaceOnUse">
			<stop  offset="0" style="stop-color:#000000;stop-opacity:0.6196"/>
			<stop  offset="1" style="stop-color:#000000;stop-opacity:0"/>
		</radialGradient>
		<path style="fill-rule:evenodd;clip-rule:evenodd;fill:url(#SVGID_24_);" d="M63.45,17.55c0.066,1.2-0.684,2.25-2.25,3.15
			c-1.6,0.899-3.55,1.383-5.85,1.45c-2.267,0.066-4.233-0.301-5.9-1.101c-1.667-0.8-2.533-1.8-2.6-3
			c-0.067-1.233,0.683-2.3,2.25-3.2s3.5-1.383,5.8-1.45c2.3-0.066,4.284,0.3,5.95,1.1C62.55,15.3,63.417,16.316,63.45,17.55z"/>
		
			<radialGradient id="SVGID_25_" cx="54.1509" cy="18.6455" r="6.8658" gradientTransform="matrix(0.9995 -0.031 -0.0273 -0.5498 1.4341 28.8775)" gradientUnits="userSpaceOnUse">
			<stop  offset="0" style="stop-color:#A99B45"/>
			<stop  offset="1" style="stop-color:#E8D24E"/>
		</radialGradient>
		<path style="fill-rule:evenodd;clip-rule:evenodd;fill:url(#SVGID_25_);" d="M48.2,17.15l0.85-0.65c0.733-0.467,1.6-0.75,2.6-0.85
			c0.2-0.034,0.467-0.051,0.8-0.051L52.4,15.2c0.1-0.567,0.534-1.083,1.3-1.55c0.4-0.2,0.783-0.367,1.15-0.5l1.2,0.45
			c0.833,0.4,1.317,0.867,1.45,1.4c0.066,0.2,0.066,0.35,0,0.45h0.8c1.634,0.033,2.85,0.467,3.65,1.3
			c-0.733,0.833-1.9,1.333-3.5,1.5h-0.8c0.067,0.2,0.083,0.35,0.05,0.45c-0.134,0.866-0.95,1.533-2.45,2
			c-1.533-0.367-2.417-0.983-2.65-1.851c-0.034-0.133-0.034-0.283,0-0.449c-0.167,0.033-0.433,0.05-0.8,0.05
			c-1-0.033-1.9-0.267-2.7-0.7L48.2,17.15z"/>
		
			<radialGradient id="SVGID_26_" cx="55.0498" cy="16.4023" r="1.7993" gradientTransform="matrix(1 0 0 -0.8264 0 29.9571)" gradientUnits="userSpaceOnUse">
			<stop  offset="0" style="stop-color:#D8C54F"/>
			<stop  offset="1" style="stop-color:#FCE86E"/>
		</radialGradient>
		<path style="fill-rule:evenodd;clip-rule:evenodd;fill:url(#SVGID_26_);" d="M53.7,17.6l-0.6-0.05c-0.067-0.1-0.1-0.217-0.1-0.35
			c0-0.233,0.117-0.45,0.35-0.65l0.25-0.1l-0.25-0.15c-0.267-0.166-0.4-0.366-0.4-0.6L53,15.35l0.6-0.05
			c0.466-0.033,0.867,0.017,1.2,0.15L55,15.6l0.25-0.149c0.5-0.233,1.083-0.3,1.75-0.2c0.233,0.333,0.15,0.65-0.25,0.95l-0.2,0.149
			l0.2,0.101c0.434,0.267,0.55,0.583,0.35,0.95c-0.633,0.166-1.217,0.133-1.75-0.101l-0.25-0.1l-0.2,0.149
			C54.566,17.483,54.167,17.566,53.7,17.6z"/>
	</g>
	<g>
		
			<radialGradient id="SVGID_27_" cx="205.791" cy="28.3545" r="9.3166" gradientTransform="matrix(0.9996 -0.0295 -0.0268 -0.5246 2.2093 43.1987)" gradientUnits="userSpaceOnUse">
			<stop  offset="0" style="stop-color:#000000;stop-opacity:0.6196"/>
			<stop  offset="1" style="stop-color:#000000;stop-opacity:0"/>
		</radialGradient>
		<path style="fill-rule:evenodd;clip-rule:evenodd;fill:url(#SVGID_27_);" d="M216.45,21.95c0.066,1.366-0.783,2.566-2.55,3.6
			c-1.768,1-3.934,1.533-6.5,1.601c-2.567,0.066-4.783-0.351-6.65-1.25c-1.867-0.9-2.833-2.017-2.9-3.351
			c-0.066-1.366,0.783-2.55,2.551-3.55c1.767-1.033,3.933-1.583,6.5-1.65c2.566-0.066,4.783,0.351,6.649,1.25
			C215.417,19.5,216.383,20.616,216.45,21.95z"/>
		
			<radialGradient id="SVGID_28_" cx="205.7578" cy="27.6729" r="7.7037" gradientTransform="matrix(0.9995 -0.0308 -0.0276 -0.5484 2.1537 42.8201)" gradientUnits="userSpaceOnUse">
			<stop  offset="0" style="stop-color:#A99B45"/>
			<stop  offset="1" style="stop-color:#E8D24E"/>
		</radialGradient>
		<path style="fill-rule:evenodd;clip-rule:evenodd;fill:url(#SVGID_28_);" d="M206.85,17.05l1.351,0.5
			c0.899,0.467,1.433,1,1.6,1.601c0.033,0.199,0.033,0.366,0,0.5l0.9-0.051c1.133,0.034,2.149,0.284,3.05,0.75
			c0.434,0.233,0.767,0.467,1,0.7c-0.8,0.967-2.1,1.533-3.9,1.7c-0.199,0.033-0.5,0.05-0.899,0.05c0.066,0.2,0.083,0.351,0.05,0.45
			c-0.167,1-1.083,1.767-2.75,2.3c-1.7-0.434-2.684-1.133-2.95-2.1c-0.033-0.2-0.033-0.367,0-0.5c-0.2,0.033-0.5,0.05-0.899,0.05
			c-1.134-0.033-2.15-0.283-3.051-0.75l-1-0.7l0.95-0.75c0.833-0.533,1.817-0.85,2.95-0.95c0.3-0.033,0.6-0.033,0.9,0
			c-0.067-0.199-0.084-0.366-0.051-0.5c0.101-0.633,0.584-1.199,1.45-1.699C206.017,17.384,206.45,17.184,206.85,17.05z"/>
		
			<radialGradient id="SVGID_29_" cx="207.0498" cy="20.7002" r="2.025" gradientTransform="matrix(1 0 0 -0.8272 0 37.8226)" gradientUnits="userSpaceOnUse">
			<stop  offset="0" style="stop-color:#D8C54F"/>
			<stop  offset="1" style="stop-color:#FCE86E"/>
		</radialGradient>
		<path style="fill-rule:evenodd;clip-rule:evenodd;fill:url(#SVGID_29_);" d="M207.25,19.65c0.566-0.267,1.217-0.351,1.95-0.25
			c0.267,0.399,0.183,0.767-0.25,1.1l-0.25,0.15l0.25,0.1c0.5,0.333,0.633,0.7,0.399,1.1c-0.732,0.167-1.399,0.134-2-0.1l-0.25-0.15
			l-0.25,0.15c-0.366,0.167-0.8,0.267-1.3,0.3L204.9,22c-0.067-0.1-0.101-0.217-0.101-0.35c-0.033-0.301,0.083-0.551,0.351-0.75
			l0.25-0.15l-0.25-0.15c-0.301-0.199-0.467-0.433-0.5-0.699l0.1-0.351l0.65-0.1c0.533,0,0.982,0.066,1.35,0.2L207,19.8
			L207.25,19.65z"/>
	</g>
	<g>
		
			<radialGradient id="SVGID_30_" cx="150.25" cy="36.2607" r="8.132" gradientTransform="matrix(0.9886 -0.1507 -0.2368 -0.5166 24.2995 53.0165)" gradientUnits="userSpaceOnUse">
			<stop  offset="0" style="stop-color:#000000;stop-opacity:0.6196"/>
			<stop  offset="1" style="stop-color:#000000;stop-opacity:0"/>
		</radialGradient>
		<path style="fill-rule:evenodd;clip-rule:evenodd;fill:url(#SVGID_30_);" d="M172.25,10.4c0.533,1.167,0.217,2.283-0.95,3.35
			c-1.2,1.033-2.917,1.733-5.149,2.1c-2.2,0.334-4.283,0.217-6.25-0.35c-1.934-0.567-3.167-1.433-3.7-2.6
			c-0.533-1.167-0.217-2.283,0.95-3.35c1.199-1.033,2.916-1.733,5.149-2.1c2.233-0.333,4.317-0.217,6.25,0.35
			C170.483,8.367,171.717,9.233,172.25,10.4z"/>
		
			<radialGradient id="SVGID_31_" cx="150.4404" cy="35.4688" r="6.7156" gradientTransform="matrix(0.9886 -0.1508 -0.2476 -0.5399 24.161 52.6824)" gradientUnits="userSpaceOnUse">
			<stop  offset="0" style="stop-color:#9453AA"/>
			<stop  offset="1" style="stop-color:#D675F6"/>
		</radialGradient>
		<path style="fill-rule:evenodd;clip-rule:evenodd;fill:url(#SVGID_31_);" d="M161.5,7.85c0.3-0.267,0.6-0.483,0.9-0.65l1.35,0.3
			c0.967,0.3,1.633,0.7,2,1.2l0.15,0.45L166.7,9c1.6-0.133,2.933,0.15,4,0.85c-0.333,0.9-1.267,1.517-2.8,1.85l-0.75,0.1l0.199,0.45
			c0.2,0.867-0.333,1.617-1.6,2.25c-1.633-0.2-2.75-0.7-3.35-1.5l-0.15-0.45l-0.8,0.15c-0.967,0.1-1.934-0.017-2.9-0.35l-1.1-0.5
			L158,11.1c0.533-0.533,1.283-0.9,2.25-1.1L161,9.9l-0.2-0.45C160.667,8.917,160.9,8.383,161.5,7.85z"/>
		
			<radialGradient id="SVGID_32_" cx="164.0498" cy="10.3477" r="2.0509" gradientTransform="matrix(1 0 0 -0.8232 0 18.8655)" gradientUnits="userSpaceOnUse">
			<stop  offset="0" style="stop-color:#D8C54F"/>
			<stop  offset="1" style="stop-color:#FCE86E"/>
		</radialGradient>
		<path style="fill-rule:evenodd;clip-rule:evenodd;fill:url(#SVGID_32_);" d="M165.8,10.2c0.5,0.233,0.733,0.533,0.7,0.9
			c-0.6,0.2-1.2,0.233-1.8,0.1l-0.25-0.1l-0.2,0.15c-0.233,0.2-0.566,0.333-1,0.4l-0.6,0.05c-0.101-0.067-0.184-0.167-0.25-0.3
			c-0.134-0.267-0.101-0.5,0.1-0.7l0.15-0.15l-0.301-0.1c-0.3-0.133-0.517-0.317-0.649-0.55l-0.05-0.3l0.55-0.15
			c0.467-0.067,0.883-0.067,1.25,0l0.25,0.1l0.2-0.15c0.399-0.3,0.933-0.433,1.6-0.4c0.4,0.3,0.45,0.617,0.15,0.95l-0.15,0.15
			L165.8,10.2z"/>
		
			<radialGradient id="SVGID_33_" cx="155.0186" cy="19.8672" r="9.3911" gradientTransform="matrix(0.9995 -0.0306 -0.0266 -0.5257 1.5339 30.2904)" gradientUnits="userSpaceOnUse">
			<stop  offset="0" style="stop-color:#000000;stop-opacity:0.6196"/>
			<stop  offset="1" style="stop-color:#000000;stop-opacity:0"/>
		</radialGradient>
		<path style="fill-rule:evenodd;clip-rule:evenodd;fill:url(#SVGID_33_);" d="M165.35,14.8c0.067,1.367-0.8,2.566-2.6,3.601
			c-1.767,1-3.95,1.533-6.55,1.6c-2.601,0.1-4.833-0.3-6.7-1.2c-1.9-0.934-2.883-2.083-2.95-3.45c-0.066-1.366,0.783-2.55,2.55-3.55
			c1.801-1.033,4-1.583,6.601-1.65c2.566-0.066,4.8,0.35,6.7,1.25C164.3,12.333,165.283,13.467,165.35,14.8z"/>
		
			<radialGradient id="SVGID_34_" cx="154.9814" cy="18.9092" r="7.7654" gradientTransform="matrix(0.9995 -0.0306 -0.0274 -0.5489 1.4587 29.2677)" gradientUnits="userSpaceOnUse">
			<stop  offset="0" style="stop-color:#9453AA"/>
			<stop  offset="1" style="stop-color:#D675F6"/>
		</radialGradient>
		<path style="fill-rule:evenodd;clip-rule:evenodd;fill:url(#SVGID_34_);" d="M162.6,13.2c0.434,0.233,0.768,0.466,1,0.7
			c-0.8,0.967-2.1,1.534-3.899,1.7c-0.333,0.034-0.65,0.034-0.95,0c0.066,0.101,0.1,0.267,0.1,0.5c-0.166,1-1.1,1.767-2.8,2.301
			c-1.733-0.434-2.733-1.134-3-2.101v-0.5l-0.899,0.05c-1.134-0.033-2.15-0.3-3.051-0.8l-1-0.7l0.95-0.75
			c0.833-0.533,1.817-0.85,2.95-0.95h0.9c-0.067-0.2-0.084-0.367-0.051-0.5c0.101-0.633,0.584-1.2,1.45-1.7
			c0.467-0.267,0.9-0.467,1.3-0.6l1.351,0.5c0.933,0.467,1.483,1,1.649,1.6c0.033,0.2,0.033,0.383,0,0.55
			c0.4-0.067,0.7-0.083,0.9-0.05C160.633,12.483,161.667,12.733,162.6,13.2z"/>
		
			<radialGradient id="SVGID_35_" cx="155.8496" cy="13.5" r="2.0375" gradientTransform="matrix(1 0 0 -0.8282 0 24.681)" gradientUnits="userSpaceOnUse">
			<stop  offset="0" style="stop-color:#D8C54F"/>
			<stop  offset="1" style="stop-color:#FCE86E"/>
		</radialGradient>
		<path style="fill-rule:evenodd;clip-rule:evenodd;fill:url(#SVGID_35_);" d="M157.75,13.3l-0.25,0.15l0.3,0.15
			c0.467,0.3,0.583,0.667,0.351,1.1c-0.733,0.133-1.4,0.083-2-0.15l-0.25-0.15l-0.25,0.2c-0.367,0.167-0.801,0.25-1.301,0.25
			l-0.699-0.05c-0.067-0.1-0.101-0.216-0.101-0.35c-0.033-0.3,0.083-0.55,0.351-0.75l0.3-0.15l-0.3-0.1
			c-0.301-0.2-0.45-0.45-0.45-0.75l0.1-0.35l0.65-0.1c0.533,0,0.983,0.067,1.35,0.2l0.25,0.15l0.25-0.15
			c0.567-0.267,1.233-0.35,2-0.25C158.316,12.6,158.217,12.967,157.75,13.3z"/>
	</g>
	<g>
		
			<radialGradient id="SVGID_36_" cx="258.6602" cy="-23.8618" r="8.4748" gradientTransform="matrix(0.9868 0.1622 0.3053 -0.5236 20.1523 -34.5606)" gradientUnits="userSpaceOnUse">
			<stop  offset="0" style="stop-color:#000000;stop-opacity:0.6196"/>
			<stop  offset="1" style="stop-color:#000000;stop-opacity:0"/>
		</radialGradient>
		<path style="fill-rule:evenodd;clip-rule:evenodd;fill:url(#SVGID_36_);" d="M275.85,17.75c1.134,1.134,1.351,2.316,0.65,3.55
			c-0.733,1.233-2.167,2.15-4.3,2.75c-2.134,0.566-4.351,0.667-6.65,0.3c-2.333-0.366-4.066-1.116-5.2-2.25
			c-1.133-1.133-1.333-2.316-0.6-3.55s2.167-2.133,4.3-2.7c2.134-0.6,4.351-0.716,6.65-0.35
			C273.033,15.866,274.75,16.616,275.85,17.75z"/>
		
			<radialGradient id="SVGID_37_" cx="258.0381" cy="-25.0879" r="7.0125" gradientTransform="matrix(0.9867 0.1624 0.3194 -0.5478 21.5396 -36.9425)" gradientUnits="userSpaceOnUse">
			<stop  offset="0" style="stop-color:#9453AA"/>
			<stop  offset="1" style="stop-color:#D675F6"/>
		</radialGradient>
		<path style="fill-rule:evenodd;clip-rule:evenodd;fill:url(#SVGID_37_);" d="M270.65,20.7l-0.801-0.15
			c-0.066,0.2-0.149,0.351-0.25,0.45c-0.433,0.533-1.183,0.95-2.25,1.25l-1.449,0.3c-0.301-0.166-0.601-0.383-0.9-0.649
			c-0.533-0.567-0.7-1.15-0.5-1.75l0.25-0.45l-0.8-0.101c-0.967-0.233-1.717-0.633-2.25-1.199l-0.5-0.801l1.25-0.5
			c1.066-0.333,2.116-0.449,3.149-0.35c0.334,0,0.601,0.05,0.801,0.15c0.066-0.2,0.149-0.351,0.25-0.45
			c0.699-0.867,1.949-1.4,3.75-1.6l0.899,0.7c0.533,0.566,0.7,1.134,0.5,1.7c-0.033,0.2-0.133,0.35-0.3,0.45
			c0.167,0.033,0.434,0.083,0.8,0.149c0.967,0.233,1.717,0.634,2.25,1.2c0.267,0.3,0.434,0.566,0.5,0.8
			C273.816,20.55,272.35,20.833,270.65,20.7z"/>
		
			<radialGradient id="SVGID_38_" cx="268.1504" cy="17.8496" r="2.2375" gradientTransform="matrix(1 0 0 -0.8268 0 32.6079)" gradientUnits="userSpaceOnUse">
			<stop  offset="0" style="stop-color:#D8C54F"/>
			<stop  offset="1" style="stop-color:#FCE86E"/>
		</radialGradient>
		<path style="fill-rule:evenodd;clip-rule:evenodd;fill:url(#SVGID_38_);" d="M270.8,17.1c0,0.4-0.3,0.717-0.899,0.95L269.6,18.1
			l0.2,0.2c0.233,0.334,0.134,0.667-0.3,1c-0.733,0.033-1.3-0.116-1.7-0.45L267.65,18.7l-0.301,0.1c-0.399,0.101-0.833,0.101-1.3,0
			l-0.55-0.149l0.1-0.351c0.134-0.267,0.384-0.467,0.75-0.6l0.301-0.05l-0.15-0.2c-0.133-0.2-0.133-0.434,0-0.7
			c0.1-0.1,0.2-0.2,0.3-0.3l0.601,0.05c0.467,0.066,0.816,0.2,1.05,0.4l0.149,0.149l0.301-0.1
			C269.566,16.816,270.2,16.866,270.8,17.1z"/>
	</g>
	<g>
		
			<radialGradient id="SVGID_39_" cx="193.5664" cy="-21.5278" r="8.9954" gradientTransform="matrix(0.987 0.161 0.3054 -0.5233 18.1964 -31.1827)" gradientUnits="userSpaceOnUse">
			<stop  offset="0" style="stop-color:#000000;stop-opacity:0.6196"/>
			<stop  offset="1" style="stop-color:#000000;stop-opacity:0"/>
		</radialGradient>
		<path style="fill-rule:evenodd;clip-rule:evenodd;fill:url(#SVGID_39_);" d="M211.55,12.75c-0.733,1.3-2.25,2.267-4.55,2.9
			c-2.267,0.633-4.633,0.75-7.1,0.35c-2.434-0.4-4.25-1.2-5.45-2.4c-1.233-1.233-1.467-2.5-0.7-3.8c0.767-1.3,2.283-2.267,4.55-2.9
			c2.3-0.633,4.667-0.75,7.101-0.35c2.467,0.4,4.3,1.2,5.5,2.4C212.1,10.15,212.316,11.417,211.55,12.75z"/>
		
			<radialGradient id="SVGID_40_" cx="192.9297" cy="-22.792" r="7.448" gradientTransform="matrix(0.9869 0.1611 0.3189 -0.5472 19.5587 -33.5586)" gradientUnits="userSpaceOnUse">
			<stop  offset="0" style="stop-color:#527593"/>
			<stop  offset="1" style="stop-color:#87C0F6"/>
		</radialGradient>
		<path style="fill-rule:evenodd;clip-rule:evenodd;fill:url(#SVGID_40_);" d="M201.1,7.55c0.768-0.9,2.084-1.45,3.95-1.65L206,6.6
			c0.6,0.6,0.783,1.217,0.55,1.85c-0.033,0.167-0.133,0.333-0.3,0.5l0.9,0.1c1.033,0.267,1.816,0.7,2.35,1.3
			c0.3,0.3,0.483,0.583,0.55,0.85c-1.333,0.767-2.899,1.066-4.7,0.9l-0.85-0.15c-0.066,0.2-0.15,0.35-0.25,0.45
			c-0.467,0.6-1.267,1.05-2.4,1.35l-1.55,0.3c-0.333-0.167-0.649-0.4-0.95-0.7c-0.6-0.6-0.783-1.217-0.55-1.85l0.3-0.45
			c-0.267,0-0.55-0.05-0.85-0.15c-1.033-0.233-1.833-0.65-2.4-1.25l-0.5-0.85l1.351-0.55c1.1-0.333,2.2-0.45,3.3-0.35
			c0.333,0,0.617,0.05,0.85,0.15L201.1,7.55z"/>
		
			<radialGradient id="SVGID_41_" cx="202.7002" cy="10.1504" r="2.3873" gradientTransform="matrix(1 0 0 -0.8272 0 18.547)" gradientUnits="userSpaceOnUse">
			<stop  offset="0" style="stop-color:#D8C54F"/>
			<stop  offset="1" style="stop-color:#FCE86E"/>
		</radialGradient>
		<path style="fill-rule:evenodd;clip-rule:evenodd;fill:url(#SVGID_41_);" d="M201.25,8.6l0.65,0.05c0.5,0.1,0.883,0.25,1.149,0.45
			l0.15,0.2l0.3-0.1c0.7-0.167,1.367-0.133,2,0.1c0,0.434-0.3,0.767-0.9,1l-0.35,0.1l0.2,0.2c0.233,0.367,0.116,0.733-0.351,1.1
			c-0.767,0-1.35-0.167-1.75-0.5L202.15,11l-0.301,0.15c-0.433,0.1-0.899,0.1-1.399,0L199.85,11l0.101-0.35
			c0.167-0.3,0.45-0.517,0.85-0.65l0.3-0.1l-0.149-0.15c-0.167-0.233-0.167-0.5,0-0.8C201.05,8.817,201.15,8.7,201.25,8.6z"/>
	</g>
</g>
</svg>
