<?xml version="1.0" encoding="iso-8859-1"?>
<!-- Generator: Adobe Illustrator 15.1.0, SVG Export Plug-In . SVG Version: 6.00 Build 0)  -->
<!DOCTYPE svg PUBLIC "-//W3C//DTD SVG 1.1//EN" "http://www.w3.org/Graphics/SVG/1.1/DTD/svg11.dtd">
<svg version="1.1" id="FlashAICB" xmlns="http://www.w3.org/2000/svg" xmlns:xlink="http://www.w3.org/1999/xlink" x="0px" y="0px"
	 width="76.05px" height="20.95px" viewBox="0 0 76.05 20.95" style="enable-background:new 0 0 76.05 20.95;" xml:space="preserve"
	>
<radialGradient id="SVGID_1_" cx="7.3154" cy="9.4326" r="7.8034" gradientTransform="matrix(0.9995 -0.0304 -0.0272 -0.5254 0.7451 14.3778)" gradientUnits="userSpaceOnUse">
	<stop  offset="0" style="stop-color:#000000;stop-opacity:0.6196"/>
	<stop  offset="1" style="stop-color:#000000;stop-opacity:0"/>
</radialGradient>
<path style="fill-rule:evenodd;clip-rule:evenodd;fill:url(#SVGID_1_);" d="M7.55,5.1c2.167-0.067,4.033,0.283,5.6,1.05
	c1.567,0.733,2.383,1.666,2.45,2.8c0.066,1.133-0.65,2.134-2.15,3c-1.467,0.833-3.284,1.283-5.45,1.35
	c-2.133,0.067-3.983-0.267-5.55-1C0.883,11.533,0.066,10.583,0,9.45c-0.066-1.134,0.633-2.134,2.1-3
	C3.566,5.617,5.383,5.167,7.55,5.1z"/>
<radialGradient id="SVGID_2_" cx="7.2773" cy="8.6206" r="6.4399" gradientTransform="matrix(0.9996 -0.0291 -0.0272 -0.5493 0.6599 13.347)" gradientUnits="userSpaceOnUse">
	<stop  offset="0" style="stop-color:#9656A8"/>
	<stop  offset="1" style="stop-color:#DA7AF3"/>
</radialGradient>
<path style="fill-rule:evenodd;clip-rule:evenodd;fill:url(#SVGID_2_);" d="M7.5,4.85L8.65,5.3C9.417,5.667,9.867,6.1,10,6.6
	c0.066,0.167,0.066,0.317,0,0.45L10.75,7c1.533,0.033,2.667,0.434,3.4,1.2C13.483,9,12.4,9.483,10.9,9.65h-0.75l0.05,0.399
	c-0.134,0.833-0.9,1.467-2.3,1.9c-1.466-0.333-2.3-0.917-2.5-1.75c-0.067-0.167-0.067-0.3,0-0.4H4.65
	C3.684,9.767,2.833,9.566,2.1,9.2L1.25,8.6C1.417,8.4,1.684,8.2,2.05,8c0.7-0.434,1.517-0.7,2.45-0.8l0.75-0.05L5.2,6.75
	c0.1-0.533,0.517-1,1.25-1.4L7.5,4.85z"/>
<radialGradient id="SVGID_3_" cx="7.7002" cy="7.9004" r="1.6875" gradientTransform="matrix(1 0 0 -0.8222 0 14.3963)" gradientUnits="userSpaceOnUse">
	<stop  offset="0" style="stop-color:#D9C458"/>
	<stop  offset="1" style="stop-color:#FDE777"/>
</radialGradient>
<path style="fill-rule:evenodd;clip-rule:evenodd;fill:url(#SVGID_3_);" d="M6.45,9H5.9C5.667,8.667,5.733,8.35,6.1,8.05l0.25-0.1
	L6.1,7.8C5.867,7.667,5.75,7.467,5.75,7.2L5.8,6.9l0.55-0.05C6.783,6.816,7.15,6.867,7.45,7l0.2,0.15L7.85,7
	c0.3-0.133,0.667-0.217,1.1-0.25c0.233,0,0.417,0.017,0.55,0.05l0.1,0.3c0.033,0.233-0.067,0.45-0.3,0.65l-0.25,0.1l0.25,0.1
	c0.4,0.267,0.5,0.566,0.3,0.9C9,8.983,8.45,8.95,7.95,8.75l-0.2-0.1L7.55,8.8C7.25,8.934,6.883,9,6.45,9z"/>
<radialGradient id="SVGID_4_" cx="56.4053" cy="-4.4351" r="8.4748" gradientTransform="matrix(0.9868 0.1622 0.3053 -0.5236 3.7456 -6.4235)" gradientUnits="userSpaceOnUse">
	<stop  offset="0" style="stop-color:#000000;stop-opacity:0.6196"/>
	<stop  offset="1" style="stop-color:#000000;stop-opacity:0"/>
</radialGradient>
<path style="fill-rule:evenodd;clip-rule:evenodd;fill:url(#SVGID_4_);" d="M49.7,3.7C50.434,2.467,51.867,1.566,54,1
	c2.133-0.6,4.35-0.717,6.65-0.35C62.983,1.017,64.7,1.767,65.8,2.9c1.134,1.133,1.351,2.316,0.65,3.55
	c-0.733,1.233-2.167,2.15-4.3,2.75C60.017,9.767,57.8,9.867,55.5,9.5c-2.333-0.367-4.066-1.117-5.2-2.25
	C49.167,6.117,48.967,4.934,49.7,3.7z"/>
<radialGradient id="SVGID_5_" cx="55.793" cy="-5.6348" r="7.0127" gradientTransform="matrix(0.9867 0.1624 0.3194 -0.5478 4.8379 -8.2969)" gradientUnits="userSpaceOnUse">
	<stop  offset="0" style="stop-color:#9656A8"/>
	<stop  offset="1" style="stop-color:#DA7AF3"/>
</radialGradient>
<path style="fill-rule:evenodd;clip-rule:evenodd;fill:url(#SVGID_5_);" d="M51.65,3.55l-0.5-0.8l1.25-0.5
	c1.066-0.333,2.116-0.45,3.149-0.35c0.333,0,0.601,0.05,0.8,0.149c0.067-0.2,0.15-0.35,0.25-0.45c0.434-0.534,1.184-0.967,2.25-1.3
	c0.567-0.133,1.067-0.233,1.5-0.3l0.9,0.7c0.533,0.566,0.7,1.133,0.5,1.7c-0.033,0.2-0.133,0.35-0.3,0.45
	c0.167,0.033,0.433,0.083,0.8,0.15c0.967,0.233,1.717,0.633,2.25,1.2C64.767,4.5,64.934,4.767,65,5c-1.233,0.7-2.7,0.983-4.4,0.85
	L59.8,5.7c-0.066,0.2-0.149,0.35-0.25,0.45c-0.7,0.866-1.933,1.383-3.7,1.55c-0.3-0.167-0.6-0.384-0.899-0.65
	c-0.533-0.566-0.7-1.149-0.5-1.75l0.25-0.45l-0.8-0.1C52.934,4.517,52.184,4.117,51.65,3.55z"/>
<radialGradient id="SVGID_6_" cx="58.0996" cy="3" r="2.2375" gradientTransform="matrix(1 0 0 -0.8268 0 5.4804)" gradientUnits="userSpaceOnUse">
	<stop  offset="0" style="stop-color:#D9C458"/>
	<stop  offset="1" style="stop-color:#FDE777"/>
</radialGradient>
<path style="fill-rule:evenodd;clip-rule:evenodd;fill:url(#SVGID_6_);" d="M58.85,2.1c0.667-0.133,1.301-0.083,1.9,0.15
	c0,0.4-0.3,0.717-0.9,0.95l-0.3,0.05l0.2,0.2c0.233,0.333,0.133,0.667-0.3,1c-0.733,0.033-1.3-0.117-1.7-0.45L57.6,3.85l-0.3,0.1
	c-0.399,0.1-0.833,0.1-1.3,0L55.45,3.8c0-0.1,0.033-0.216,0.1-0.35c0.134-0.267,0.384-0.467,0.75-0.6l0.3-0.05L56.45,2.6
	c-0.134-0.2-0.134-0.433,0-0.7l0.3-0.3l0.6,0.05c0.467,0.066,0.817,0.2,1.051,0.399L58.55,2.2L58.85,2.1z"/>
<radialGradient id="SVGID_7_" cx="27.4287" cy="18.9287" r="13.2595" gradientTransform="matrix(0.9885 -0.1511 -0.237 -0.5164 12.6966 27.6692)" gradientUnits="userSpaceOnUse">
	<stop  offset="0" style="stop-color:#000000;stop-opacity:0.6196"/>
	<stop  offset="1" style="stop-color:#000000;stop-opacity:0"/>
</radialGradient>
<path style="fill-rule:evenodd;clip-rule:evenodd;fill:url(#SVGID_7_);" d="M48.4,11.75c0.866,1.9,0.333,3.717-1.601,5.45
	c-1.933,1.733-4.717,2.866-8.35,3.399c-3.6,0.567-6.983,0.367-10.15-0.6c-3.2-0.934-5.217-2.35-6.05-4.25
	c-0.867-1.867-0.333-3.666,1.6-5.4c1.933-1.733,4.716-2.883,8.35-3.45c3.6-0.534,6.983-0.334,10.149,0.6
	C45.55,8.467,47.566,9.883,48.4,11.75z"/>
<radialGradient id="SVGID_8_" cx="27.7832" cy="17.6025" r="10.9377" gradientTransform="matrix(0.9886 -0.1509 -0.248 -0.5406 12.0001 26.1566)" gradientUnits="userSpaceOnUse">
	<stop  offset="0" style="stop-color:#9656A8"/>
	<stop  offset="1" style="stop-color:#DA7AF3"/>
</radialGradient>
<path style="fill-rule:evenodd;clip-rule:evenodd;fill:url(#SVGID_8_);" d="M29.75,10.2c-0.2-0.9,0.167-1.783,1.1-2.65l1.5-1
	l2.2,0.5c1.6,0.467,2.684,1.117,3.25,1.95c0.167,0.267,0.25,0.5,0.25,0.7l1.25-0.25c1.634-0.134,3.217,0.05,4.75,0.55
	c0.8,0.267,1.417,0.533,1.851,0.8L45,12.05c-0.9,0.867-2.117,1.467-3.65,1.8l-1.3,0.2c0.2,0.267,0.317,0.483,0.351,0.65
	C40.6,15.6,40.233,16.483,39.3,17.35c-0.467,0.434-0.967,0.783-1.5,1.051c-0.667-0.066-1.383-0.217-2.15-0.45
	c-1.567-0.5-2.65-1.167-3.25-2c-0.133-0.167-0.233-0.4-0.3-0.7l-1.25,0.2c-1.633,0.134-3.217-0.05-4.75-0.55L24.25,14.1
	c0.167-0.366,0.467-0.766,0.9-1.199c0.933-0.867,2.167-1.483,3.7-1.851c0.4-0.1,0.816-0.149,1.25-0.149
	C29.9,10.633,29.783,10.4,29.75,10.2z"/>
<radialGradient id="SVGID_9_" cx="35.1001" cy="11.5996" r="3.35" gradientTransform="matrix(1 0 0 -0.8246 0 21.165)" gradientUnits="userSpaceOnUse">
	<stop  offset="0" style="stop-color:#D9C458"/>
	<stop  offset="1" style="stop-color:#FDE777"/>
</radialGradient>
<path style="fill-rule:evenodd;clip-rule:evenodd;fill:url(#SVGID_9_);" d="M31.15,10.4l0.9-0.25c0.733-0.101,1.4-0.084,2,0.05
	l0.45,0.15l0.25-0.25c0.434-0.3,1.017-0.5,1.75-0.6c0.367-0.033,0.684-0.05,0.95-0.05l0.35,0.5c0.2,0.366,0.167,0.717-0.1,1.05
	l-0.3,0.25l0.45,0.15c0.867,0.366,1.25,0.85,1.15,1.449c-0.934,0.367-1.9,0.434-2.9,0.2L35.65,12.9l-0.25,0.25
	c-0.667,0.467-1.55,0.684-2.65,0.649c-0.633-0.5-0.717-1.017-0.25-1.55c0.066-0.133,0.167-0.217,0.3-0.25l-0.5-0.15
	c-0.533-0.232-0.883-0.55-1.05-0.949L31.15,10.4z"/>
<radialGradient id="SVGID_10_" cx="62.7471" cy="-10.374" r="7.0079" gradientTransform="matrix(0.9257 0.3781 0.6814 -0.4959 16.9308 -12.3216)" gradientUnits="userSpaceOnUse">
	<stop  offset="0" style="stop-color:#000000;stop-opacity:0.6196"/>
	<stop  offset="1" style="stop-color:#000000;stop-opacity:0"/>
</radialGradient>
<path style="fill-rule:evenodd;clip-rule:evenodd;fill:url(#SVGID_10_);" d="M74.45,19.25c-1.333,0.967-3.083,1.517-5.25,1.65
	c-2.2,0.166-4.2-0.117-6-0.851s-2.867-1.7-3.2-2.899c-0.333-1.2,0.167-2.283,1.5-3.25s3.083-1.518,5.25-1.65
	c2.2-0.166,4.2,0.117,6,0.85c1.8,0.734,2.867,1.7,3.2,2.9S75.783,18.283,74.45,19.25z"/>
<radialGradient id="SVGID_11_" cx="61.6621" cy="-11.6567" r="5.7853" gradientTransform="matrix(0.9249 0.3803 0.7131 -0.5186 19.3831 -14.0964)" gradientUnits="userSpaceOnUse">
	<stop  offset="0" style="stop-color:#9656A8"/>
	<stop  offset="1" style="stop-color:#DA7AF3"/>
</radialGradient>
<path style="fill-rule:evenodd;clip-rule:evenodd;fill:url(#SVGID_11_);" d="M62.7,14l0.05-0.8l1.4-0.25
	c1.066-0.101,2.033-0.017,2.899,0.25l0.601,0.3l0.449-0.4c0.7-0.399,1.584-0.633,2.65-0.699c0.566-0.033,1.05-0.033,1.45,0
	l0.399,0.75c0.167,0.6,0,1.133-0.5,1.6l-0.5,0.35l0.601,0.25c0.733,0.367,1.167,0.851,1.3,1.45c0.066,0.3,0.05,0.567-0.05,0.8
	c-1.5,0.4-2.934,0.384-4.3-0.05L68.55,17.3L68.1,17.65c-1.133,0.666-2.517,0.916-4.149,0.75c-0.167-0.2-0.3-0.45-0.4-0.75
	c-0.167-0.601,0.017-1.134,0.55-1.601l0.5-0.35l-0.649-0.25C63.25,15.084,62.833,14.6,62.7,14z"/>
<radialGradient id="SVGID_12_" cx="68.0996" cy="14.5498" r="2.325" gradientTransform="matrix(1 0 0 -0.828 0 26.5964)" gradientUnits="userSpaceOnUse">
	<stop  offset="0" style="stop-color:#D9C458"/>
	<stop  offset="1" style="stop-color:#FDE777"/>
</radialGradient>
<path style="fill-rule:evenodd;clip-rule:evenodd;fill:url(#SVGID_12_);" d="M69.3,13.9c0.634-0.033,1.15,0.1,1.55,0.399
	c-0.232,0.367-0.666,0.601-1.3,0.7h-0.3l0.05,0.2c0,0.366-0.283,0.649-0.85,0.85c-0.634-0.1-1.033-0.333-1.2-0.7L67.2,15.2
	l-0.3,0.05c-0.4,0-0.783-0.066-1.15-0.2l-0.4-0.25c0.067-0.1,0.15-0.2,0.25-0.3c0.268-0.2,0.601-0.333,1-0.4h0.351L66.9,13.9
	c0-0.233,0.149-0.45,0.449-0.65l0.4-0.2l0.5,0.15c0.367,0.134,0.6,0.316,0.7,0.55v0.15H69.3z"/>
</svg>
