<?xml version="1.0" encoding="iso-8859-1"?>
<!-- Generator: Adobe Illustrator 15.1.0, SVG Export Plug-In . SVG Version: 6.00 Build 0)  -->
<!DOCTYPE svg PUBLIC "-//W3C//DTD SVG 1.1//EN" "http://www.w3.org/Graphics/SVG/1.1/DTD/svg11.dtd">
<svg version="1.1" id="FlashAICB" xmlns="http://www.w3.org/2000/svg" xmlns:xlink="http://www.w3.org/1999/xlink" x="0px" y="0px"
	 width="196.75px" height="20.05px" viewBox="0 0 196.75 20.05" style="enable-background:new 0 0 196.75 20.05;"
	 xml:space="preserve">
<g>
	<path style="fill-rule:evenodd;clip-rule:evenodd;fill:#6A972D;" d="M23.85,4.75c0.433,0,0.783,0.083,1.05,0.25
		c0.3,0.133,0.45,0.316,0.45,0.55c0,0.567-0.5,0.85-1.5,0.85c-0.4,0-0.75-0.083-1.05-0.25c-0.3-0.167-0.45-0.367-0.45-0.6
		S22.5,5.133,22.8,5C23.1,4.833,23.45,4.75,23.85,4.75z"/>
	<path style="fill-rule:evenodd;clip-rule:evenodd;fill:#6A972D;" d="M19.85,7.55c-0.333,0-0.6-0.083-0.8-0.25
		c-0.233-0.167-0.35-0.366-0.35-0.6s0.116-0.434,0.35-0.6c0.2-0.167,0.467-0.25,0.8-0.25s0.6,0.083,0.8,0.25
		C20.883,6.267,21,6.467,21,6.7s-0.117,0.433-0.35,0.6C20.45,7.467,20.184,7.55,19.85,7.55z"/>
	<path style="fill-rule:evenodd;clip-rule:evenodd;fill:#6A972D;" d="M14.55,7.55c0.634,0,0.95,0.233,0.95,0.7
		c0,0.167-0.1,0.333-0.3,0.5c-0.2,0.133-0.417,0.2-0.65,0.2s-0.45-0.067-0.65-0.2c-0.167-0.167-0.25-0.333-0.25-0.5
		C13.65,7.783,13.95,7.55,14.55,7.55z"/>
	<path style="fill-rule:evenodd;clip-rule:evenodd;fill:#6A972D;" d="M2.6,10.35c0.767,0,1.15,0.267,1.15,0.8
		C3.75,11.717,3.367,12,2.6,12c-0.3,0-0.567-0.083-0.8-0.25s-0.35-0.367-0.35-0.6c0-0.234,0.116-0.417,0.35-0.55
		C2.033,10.434,2.3,10.35,2.6,10.35z"/>
	<path style="fill-rule:evenodd;clip-rule:evenodd;fill:#6A972D;" d="M19.75,9.5c0.6,0,1.117,0.083,1.55,0.25
		c0.4,0.167,0.6,0.367,0.6,0.6s-0.2,0.417-0.6,0.55c-0.433,0.167-0.95,0.25-1.55,0.25c-0.633,0-1.15-0.084-1.55-0.25
		c-0.434-0.133-0.65-0.316-0.65-0.55s0.217-0.434,0.65-0.6C18.6,9.583,19.117,9.5,19.75,9.5z"/>
	<path style="fill-rule:evenodd;clip-rule:evenodd;fill:#6A972D;" d="M36.85,6.7c0,0.233-0.184,0.433-0.55,0.6
		c-0.366,0.167-0.8,0.25-1.3,0.25s-0.934-0.083-1.3-0.25c-0.367-0.167-0.55-0.366-0.55-0.6s0.184-0.434,0.55-0.6
		c0.366-0.167,0.8-0.25,1.3-0.25s0.934,0.083,1.3,0.25C36.667,6.267,36.85,6.467,36.85,6.7z"/>
	<path style="fill-rule:evenodd;clip-rule:evenodd;fill:#6A972D;" d="M32.6,4.15c-0.467,0-0.883-0.066-1.25-0.2
		c-0.333-0.134-0.5-0.284-0.5-0.45c0-0.2,0.167-0.367,0.5-0.5c0.367-0.167,0.783-0.25,1.25-0.25c0.466,0,0.867,0.083,1.2,0.25
		c0.333,0.133,0.5,0.3,0.5,0.5C34.3,3.934,33.733,4.15,32.6,4.15z"/>
	<path style="fill-rule:evenodd;clip-rule:evenodd;fill:#6A972D;" d="M53.15,1.4c0,0.3-0.2,0.567-0.6,0.8
		c-0.4,0.2-0.883,0.3-1.45,0.3c-0.567,0-1.067-0.1-1.5-0.3C49.2,1.967,49,1.7,49,1.4c0-0.333,0.2-0.6,0.6-0.8
		c0.433-0.233,0.933-0.35,1.5-0.35c0.566,0,1.05,0.117,1.45,0.35C52.95,0.8,53.15,1.066,53.15,1.4z"/>
	<path style="fill-rule:evenodd;clip-rule:evenodd;fill:#6A972D;" d="M52.6,3.6c0.867,0,1.6,0.15,2.2,0.45
		c0.6,0.3,0.9,0.667,0.9,1.1c0,0.434-0.3,0.8-0.9,1.1c-0.6,0.3-1.333,0.45-2.2,0.45S51,6.55,50.4,6.25s-0.9-0.667-0.9-1.1
		c0-0.433,0.3-0.8,0.9-1.1C51,3.75,51.733,3.6,52.6,3.6z"/>
	<path style="fill-rule:evenodd;clip-rule:evenodd;fill:#6A972D;" d="M68.55,1.65c0.5,0,0.934,0.1,1.3,0.3
		c0.367,0.2,0.55,0.433,0.55,0.7s-0.183,0.5-0.55,0.7c-0.367,0.167-0.8,0.25-1.3,0.25s-0.933-0.083-1.3-0.25
		c-0.367-0.2-0.55-0.434-0.55-0.7s0.183-0.5,0.55-0.7C67.617,1.75,68.05,1.65,68.55,1.65z"/>
	<path style="fill-rule:evenodd;clip-rule:evenodd;fill:#6A972D;" d="M63.75,3.35c0.667,0,1.25,0.117,1.75,0.35
		c0.5,0.267,0.75,0.566,0.75,0.9S66,5.233,65.5,5.5c-0.5,0.233-1.083,0.35-1.75,0.35c-0.7,0-1.3-0.117-1.8-0.35
		c-0.5-0.267-0.75-0.566-0.75-0.9s0.25-0.633,0.75-0.9C62.45,3.467,63.05,3.35,63.75,3.35z"/>
	<path style="fill-rule:evenodd;clip-rule:evenodd;fill:#6A972D;" d="M64.4,6.95c0.434,0,0.817,0.116,1.15,0.35
		c0.333,0.233,0.5,0.5,0.5,0.8c0,0.3-0.167,0.566-0.5,0.8c-0.3,0.2-0.683,0.3-1.15,0.3c-0.433,0-0.8-0.1-1.1-0.3
		c-0.333-0.233-0.5-0.5-0.5-0.8c0-0.3,0.167-0.567,0.5-0.8C63.6,7.066,63.967,6.95,64.4,6.95z"/>
	<path style="fill-rule:evenodd;clip-rule:evenodd;fill:#6A972D;" d="M59.25,6.95c0.533,0,0.8,0.2,0.8,0.6
		c0,0.367-0.267,0.55-0.8,0.55s-0.8-0.184-0.8-0.55c0-0.167,0.083-0.3,0.25-0.4C58.833,7.017,59.017,6.95,59.25,6.95z"/>
	<path style="fill-rule:evenodd;clip-rule:evenodd;fill:#6A972D;" d="M73.15,7.25c0.5,0,0.934,0.15,1.3,0.45
		C74.816,8,75,8.367,75,8.8c0,0.434-0.184,0.8-0.55,1.1c-0.367,0.3-0.8,0.45-1.3,0.45s-0.933-0.15-1.3-0.45
		c-0.367-0.3-0.55-0.667-0.55-1.1c0-0.433,0.184-0.8,0.55-1.1C72.217,7.4,72.65,7.25,73.15,7.25z"/>
	<path style="fill-rule:evenodd;clip-rule:evenodd;fill:#6A972D;" d="M94.4,9.5c0.867,0,1.6,0.184,2.2,0.55
		c0.6,0.4,0.9,0.867,0.9,1.4c0,0.533-0.3,1-0.9,1.399C96,13.217,95.267,13.4,94.4,13.4s-1.6-0.184-2.2-0.551
		c-0.6-0.399-0.9-0.866-0.9-1.399c0-0.534,0.3-1,0.9-1.4C92.8,9.684,93.533,9.5,94.4,9.5z"/>
	<path style="fill-rule:evenodd;clip-rule:evenodd;fill:#6A972D;" d="M101.4,6.85c0,0.367-0.25,0.667-0.75,0.9
		c-0.534,0.233-1.167,0.35-1.9,0.35S97.4,7.983,96.9,7.75c-0.533-0.267-0.8-0.566-0.8-0.9c0-0.367,0.267-0.667,0.8-0.9
		c0.5-0.267,1.117-0.4,1.85-0.4s1.366,0.134,1.9,0.4C101.15,6.184,101.4,6.483,101.4,6.85z"/>
	<path style="fill-rule:evenodd;clip-rule:evenodd;fill:#6A972D;" d="M76.55,5.4c-1.2-0.5-1.8-1.1-1.8-1.8c0-0.934,1-1.65,3-2.15
		c0.667-0.467,2.483-0.833,5.45-1.1C85.6,0.117,88.15,0,90.85,0l4.75,0.05l14.05,1.15l8.85,1.35c0.467,0.034,0.866-0.083,1.2-0.35
		c8.5,3.133,18.399,3.25,29.7,0.35c0.566-0.167,0.883-0.517,0.949-1.05c0.334,0.1,0.733,0.3,1.2,0.6c0.4,0.267,1,0.466,1.8,0.6
		c0.733,0.1,1.217,0.3,1.45,0.6c0.233,0.3,0.967,0.5,2.2,0.6c2.3,0.167,3.767,0.45,4.4,0.85c0.066,0.133,0.083,0.267,0.05,0.4
		c-0.101,0.233-1.117,0.333-3.05,0.3c-2.434-0.067-3.967-0.1-4.601-0.1c-0.666,0-1.733,0.066-3.2,0.2l-6.899,0.6
		c-1.3,0.1-2.283,0.25-2.95,0.45c-0.9,0.267-1.983,0.483-3.25,0.65c-2.033,0.333-3.316,0.533-3.85,0.6
		c-0.733,0.1-1.684,0.083-2.851-0.05c-2.899-0.366-5.267-0.65-7.1-0.85c-0.9-0.067-1.434-0.1-1.601-0.1
		c-0.533,0-1.683-0.05-3.449-0.15c-2.667-0.167-4.767-0.417-6.301-0.75c-1.566-0.367-3.149-0.967-4.75-1.8
		c0,0.467-0.233,0.867-0.699,1.2c-0.5,0.333-1.101,0.5-1.801,0.5c-0.699,0-1.3-0.167-1.8-0.5s-0.75-0.733-0.75-1.2
		c0-0.367,0.184-0.7,0.55-1c0.334-0.3,0.767-0.5,1.301-0.6c-0.934-0.4-1.784-0.6-2.551-0.6c-0.233,0-0.716,0.15-1.449,0.45
		C99.8,2.633,99,2.65,98,2.45C96.934,2.25,95.684,2.1,94.25,2c-0.3,0,0-0.167,0.9-0.5c0.7-0.267-0.083-0.3-2.35-0.1l-7.1,0.7
		c0.767,0.433,1.167,0.9,1.2,1.4c0.467-0.3,1.05-0.45,1.75-0.45c0.667,0,1.233,0.134,1.7,0.4c0.466,0.3,0.7,0.633,0.7,1
		c0,0.4-0.233,0.733-0.7,1c-0.467,0.267-1.034,0.4-1.7,0.4c-0.566,0-1.083-0.1-1.55-0.3c-0.434-0.233-0.7-0.5-0.8-0.8
		c-1.167,0.934-2.983,1.4-5.45,1.4C79.184,6.15,77.75,5.9,76.55,5.4z"/>
	<path style="fill-rule:evenodd;clip-rule:evenodd;fill:#6A972D;" d="M148.3,7.55c0,0.3-0.3,0.567-0.899,0.8
		c-0.634,0.2-1.367,0.3-2.2,0.3c-0.867,0-1.601-0.1-2.2-0.3c-0.6-0.233-0.9-0.5-0.9-0.8c0-0.333,0.301-0.6,0.9-0.8
		c0.6-0.233,1.333-0.35,2.2-0.35c0.866,0,1.6,0.117,2.2,0.35C148,6.95,148.3,7.217,148.3,7.55z"/>
	<path style="fill-rule:evenodd;clip-rule:evenodd;fill:#6A972D;" d="M117.15,12c-1.5,0-2.767-0.233-3.801-0.7
		c-1.066-0.5-1.6-1.1-1.6-1.8s0.533-1.3,1.6-1.8c1.034-0.5,2.301-0.75,3.801-0.75c1.433,0,2.666,0.233,3.699,0.7
		c1.034,0.467,1.601,1.034,1.7,1.7l1.15-0.15c0.833,0,1.533,0.133,2.1,0.4c0.601,0.3,0.9,0.633,0.9,1c0,0.4-0.3,0.733-0.9,1
		c-0.566,0.267-1.267,0.4-2.1,0.4c-1.2,0-2.084-0.25-2.65-0.75C119.95,11.75,118.65,12,117.15,12z"/>
	<path style="fill-rule:evenodd;clip-rule:evenodd;fill:#6A972D;" d="M108.65,9.75c0.666,0,1.233,0.1,1.699,0.3
		c0.467,0.2,0.7,0.434,0.7,0.7s-0.233,0.5-0.7,0.7c-0.466,0.2-1.033,0.3-1.699,0.3c-0.667,0-1.233-0.1-1.7-0.3s-0.7-0.434-0.7-0.7
		s0.233-0.5,0.7-0.7C107.417,9.85,107.983,9.75,108.65,9.75z"/>
	<path style="fill-rule:evenodd;clip-rule:evenodd;fill:#6A972D;" d="M176.1,7.65c0,0.367-0.366,0.667-1.1,0.9
		c-0.767,0.267-1.667,0.4-2.7,0.4s-1.934-0.134-2.7-0.4c-0.733-0.233-1.1-0.533-1.1-0.9c0-0.333,0.366-0.617,1.1-0.85
		c0.767-0.267,1.667-0.4,2.7-0.4s1.934,0.133,2.7,0.4C175.733,7.033,176.1,7.316,176.1,7.65z"/>
	<path style="fill-rule:evenodd;clip-rule:evenodd;fill:#6A972D;" d="M177.1,9.75c0.867,0,1.301,0.2,1.301,0.6
		c0,0.367-0.434,0.55-1.301,0.55c-0.833,0-1.25-0.183-1.25-0.55C175.85,9.95,176.267,9.75,177.1,9.75z"/>
	<path style="fill-rule:evenodd;clip-rule:evenodd;fill:#6A972D;" d="M186.1,9.2c2.2,0,3.301,0.183,3.301,0.55
		c0,0.4-1.101,0.6-3.301,0.6c-2.233,0-3.35-0.2-3.35-0.6C182.75,9.383,183.866,9.2,186.1,9.2z"/>
	<path style="fill-rule:evenodd;clip-rule:evenodd;fill:#6A972D;" d="M43.75,5c1.1,0,2.066,0.133,2.9,0.4
		c0.8,0.233,1.2,0.517,1.2,0.85c0,0.367-0.4,0.667-1.2,0.9c-0.8,0.267-1.767,0.4-2.9,0.4l-1.8-0.15c0.566,0.267,0.85,0.55,0.85,0.85
		c0,0.367-0.333,0.667-1,0.9c-0.667,0.233-1.483,0.35-2.45,0.35c-0.934,0-1.733-0.117-2.4-0.35c-0.667-0.233-1-0.533-1-0.9
		s0.333-0.667,1-0.9c0.667-0.267,1.466-0.4,2.4-0.4l1.15,0.1c-0.6-0.233-0.9-0.5-0.9-0.8c0-0.333,0.4-0.617,1.2-0.85
		C41.633,5.133,42.617,5,43.75,5z"/>
	<path style="fill-rule:evenodd;clip-rule:evenodd;fill:#6A972D;" d="M32.9,8.7c0.934,0.333,1.4,0.783,1.4,1.35
		c0,0.467-0.333,0.867-1,1.2c-0.667,0.333-1.483,0.5-2.45,0.5c-0.967,0-1.784-0.167-2.45-0.5c-0.667-0.333-1-0.733-1-1.2
		c0-0.466,0.333-0.866,1-1.2c0.7-0.333,1.517-0.5,2.45-0.5l0.3,0.05l0.3-0.05C31.95,8.35,32.434,8.467,32.9,8.7z"/>
	<path style="fill-rule:evenodd;clip-rule:evenodd;fill:#6A972D;" d="M14.2,9.5c0.866,0,1.3,0.184,1.3,0.55
		c0,0.367-0.434,0.55-1.3,0.55c-0.833,0-1.25-0.184-1.25-0.55C12.95,9.684,13.367,9.5,14.2,9.5z"/>
	<path style="fill-rule:evenodd;clip-rule:evenodd;fill:#6A972D;" d="M7.3,9.5c0.567,0,0.85,0.083,0.85,0.25
		c0,0.2-0.283,0.3-0.85,0.3c-0.533,0-0.8-0.1-0.8-0.3C6.5,9.583,6.767,9.5,7.3,9.5z"/>
	<path style="fill-rule:evenodd;clip-rule:evenodd;fill:#6A972D;" d="M140.95,12c0.934,0,1.733,0.133,2.399,0.4
		c0.667,0.3,1,0.633,1,1c0,0.399-0.333,0.732-1,1c-0.633,0.267-1.433,0.399-2.399,0.399s-1.783-0.133-2.45-0.399
		c-0.667-0.268-1-0.601-1-1c0-0.367,0.333-0.7,1-1C139.167,12.133,139.983,12,140.95,12z"/>
	<path style="fill-rule:evenodd;clip-rule:evenodd;fill:#6A972D;" d="M147.95,13.95c0.399,0,0.75,0.066,1.05,0.2
		c0.3,0.166,0.45,0.333,0.45,0.5c0,0.466-0.5,0.699-1.5,0.699s-1.5-0.233-1.5-0.699c0-0.167,0.149-0.334,0.45-0.5
		C147.2,14.017,147.55,13.95,147.95,13.95z"/>
	<path style="fill-rule:evenodd;clip-rule:evenodd;fill:#6A972D;" d="M128.2,14.55c0.733,0,1.35,0.083,1.85,0.25
		c0.5,0.134,0.75,0.316,0.75,0.55s-0.25,0.434-0.75,0.601c-0.5,0.166-1.116,0.25-1.85,0.25c-0.767,0-1.4-0.084-1.9-0.25
		c-0.5-0.167-0.75-0.367-0.75-0.601s0.25-0.416,0.75-0.55C126.833,14.633,127.467,14.55,128.2,14.55z"/>
	<path style="fill-rule:evenodd;clip-rule:evenodd;fill:#6A972D;" d="M113.8,13.7c0.934,0,1.4,0.183,1.4,0.55
		c0,0.366-0.467,0.55-1.4,0.55c-0.899,0-1.35-0.184-1.35-0.55C112.45,13.883,112.9,13.7,113.8,13.7z"/>
	<path style="fill-rule:evenodd;clip-rule:evenodd;fill:#6A972D;" d="M99.45,12c0.6,0,1.116,0.133,1.55,0.4
		c0.434,0.3,0.65,0.633,0.65,1c0,0.399-0.217,0.732-0.65,1c-0.434,0.267-0.95,0.399-1.55,0.399c-0.601,0-1.117-0.133-1.55-0.399
		c-0.433-0.268-0.65-0.601-0.65-1c0-0.367,0.217-0.7,0.65-1C98.333,12.133,98.85,12,99.45,12z"/>
	<path style="fill-rule:evenodd;clip-rule:evenodd;fill:#6A972D;" d="M166.3,10.9c1.167,0,2.167,0.216,3,0.65
		c0.834,0.434,1.25,0.967,1.25,1.601c0,0.6-0.416,1.116-1.25,1.55c-0.833,0.433-1.833,0.649-3,0.649c-1.166,0-2.166-0.217-3-0.649
		c-0.833-0.434-1.25-0.95-1.25-1.55c0-0.634,0.417-1.167,1.25-1.601C164.134,11.116,165.134,10.9,166.3,10.9z"/>
	<path style="fill-rule:evenodd;clip-rule:evenodd;fill:#6A972D;" d="M174.45,13.85c0-0.1,0.434-0.149,1.3-0.149
		c0.833,0,1.25,0.05,1.25,0.149l-1.25,0.101L174.45,13.85z"/>
</g>
<path style="fill-rule:evenodd;clip-rule:evenodd;fill:#CCD6C2;" d="M15.1,6.95c0.033,0.167-0.083,0.316-0.35,0.45
	s-0.583,0.217-0.95,0.25c-0.9,0.1-1.383-0.017-1.45-0.35c0-0.366,0.45-0.616,1.35-0.75c0.366-0.033,0.7-0.017,1,0.05
	C14.967,6.667,15.1,6.783,15.1,6.95z"/>
<path style="fill-rule:evenodd;clip-rule:evenodd;fill:#CCD6C2;" d="M23.75,9.6c0.033,0.2-0.083,0.383-0.35,0.55
	c-0.267,0.133-0.6,0.217-1,0.25c-0.367,0.067-0.7,0.034-1-0.1c-0.267-0.1-0.4-0.25-0.4-0.45c0-0.2,0.133-0.383,0.4-0.55
	c0.267-0.133,0.583-0.216,0.95-0.25c0.367-0.033,0.7,0,1,0.1C23.617,9.25,23.75,9.4,23.75,9.6z"/>
<path style="fill-rule:evenodd;clip-rule:evenodd;fill:#CCD6C2;" d="M23.45,7.9c0,0.3-0.233,0.417-0.7,0.35
	c-0.434-0.1-0.65-0.283-0.65-0.55s0.233-0.367,0.7-0.3C23.3,7.467,23.517,7.633,23.45,7.9z"/>
<path style="fill-rule:evenodd;clip-rule:evenodd;fill:#CCD6C2;" d="M29.5,5.3c-0.066,0.267-0.233,0.367-0.5,0.3
	c-0.333-0.067-0.467-0.233-0.4-0.5c0-0.267,0.167-0.367,0.5-0.3C29.367,4.867,29.5,5.033,29.5,5.3z"/>
<path style="fill-rule:evenodd;clip-rule:evenodd;fill:#CCD6C2;" d="M31.35,9.15C31.283,9.517,30.733,9.6,29.7,9.4
	c-1.034-0.167-1.55-0.45-1.55-0.85c0.067-0.333,0.617-0.417,1.65-0.25c0.434,0.067,0.817,0.184,1.15,0.35
	C31.25,8.816,31.383,8.983,31.35,9.15z"/>
<path style="fill-rule:evenodd;clip-rule:evenodd;fill:#CCD6C2;" d="M34.05,5.85c0,0.3-0.316,0.383-0.95,0.25
	c-0.567-0.1-0.85-0.3-0.85-0.6c0.066-0.267,0.383-0.35,0.95-0.25C33.833,5.383,34.117,5.583,34.05,5.85z"/>
<path style="fill-rule:evenodd;clip-rule:evenodd;fill:#CCD6C2;" d="M35.65,4.3c0,0.2-0.466,0.2-1.4,0
	c-0.934-0.133-1.367-0.3-1.3-0.5c0-0.2,0.466-0.216,1.4-0.05C35.283,3.95,35.717,4.133,35.65,4.3z"/>
<path style="fill-rule:evenodd;clip-rule:evenodd;fill:#CCD6C2;" d="M40,4.8c-0.033,0.233-0.233,0.384-0.6,0.45
	c-0.4,0.1-0.867,0.1-1.4,0c-0.533-0.066-0.983-0.217-1.35-0.45s-0.533-0.466-0.5-0.7c0.034-0.233,0.25-0.4,0.65-0.5
	c0.4-0.1,0.867-0.1,1.4,0c0.533,0.1,0.966,0.267,1.3,0.5C39.867,4.333,40.033,4.566,40,4.8z"/>
<path style="fill-rule:evenodd;clip-rule:evenodd;fill:#CCD6C2;" d="M10.65,7.65c-0.066,0.434-0.433,0.65-1.1,0.65
	c-0.667-0.066-1-0.316-1-0.75c0.067-0.466,0.434-0.667,1.1-0.6c0.267,0,0.5,0.066,0.7,0.2C10.55,7.316,10.65,7.483,10.65,7.65z"/>
<path style="fill-rule:evenodd;clip-rule:evenodd;fill:#CCD6C2;" d="M36.85,6.8c0.933,0.2,1.367,0.467,1.3,0.8
	c0,0.4-0.466,0.5-1.4,0.3c-0.934-0.2-1.367-0.466-1.3-0.8C35.517,6.733,35.983,6.633,36.85,6.8z"/>
<path style="fill-rule:evenodd;clip-rule:evenodd;fill:#CCD6C2;" d="M53.2,9.05c-0.034,0.167-0.233,0.284-0.6,0.35
	c-0.4,0.067-0.867,0.067-1.4,0c-0.534-0.1-0.983-0.25-1.35-0.45c-0.367-0.233-0.534-0.434-0.5-0.6c0.033-0.2,0.25-0.333,0.65-0.4
	C50.367,7.883,50.816,7.9,51.35,8C52.65,8.233,53.267,8.583,53.2,9.05z"/>
<path style="fill-rule:evenodd;clip-rule:evenodd;fill:#CCD6C2;" d="M46.55,6.25c0,0.434-0.4,0.55-1.2,0.35
	c-0.767-0.133-1.117-0.383-1.05-0.75c0.067-0.333,0.467-0.45,1.2-0.35C46.267,5.633,46.617,5.883,46.55,6.25z"/>
<path style="fill-rule:evenodd;clip-rule:evenodd;fill:#CCD6C2;" d="M46.15,4.05c-0.033,0.233-0.517,0.3-1.45,0.2
	c-0.867-0.167-1.3-0.4-1.3-0.7c0.034-0.1,0.184-0.167,0.45-0.2c0.267-0.034,0.583-0.017,0.95,0.05
	C45.7,3.566,46.15,3.783,46.15,4.05z"/>
<path style="fill-rule:evenodd;clip-rule:evenodd;fill:#CCD6C2;" d="M53.15,3.65c-0.033,0.2-0.233,0.333-0.6,0.4
	c-0.366,0.067-0.8,0.05-1.3-0.05C50.783,3.934,50.367,3.8,50,3.6c-0.333-0.2-0.5-0.4-0.5-0.6c0.066-0.467,0.717-0.583,1.95-0.35
	c0.5,0.067,0.917,0.2,1.25,0.4C53.033,3.25,53.184,3.45,53.15,3.65z"/>
<path style="fill-rule:evenodd;clip-rule:evenodd;fill:#CCD6C2;" d="M58.85,5.45c0,0.267-0.567,0.4-1.7,0.4
	c-1.167,0-1.75-0.133-1.75-0.4c0-0.3,0.583-0.45,1.75-0.45C58.283,5,58.85,5.15,58.85,5.45z"/>
<path style="fill-rule:evenodd;clip-rule:evenodd;fill:#CCD6C2;" d="M44,8.05c-0.033,0.233-0.184,0.417-0.45,0.55
	c-0.3,0.1-0.633,0.117-1,0.05c-0.9-0.167-1.316-0.533-1.25-1.1c0.034-0.233,0.184-0.4,0.45-0.5c0.3-0.1,0.633-0.116,1-0.05
	c0.4,0.066,0.717,0.2,0.95,0.4C43.934,7.6,44.033,7.816,44,8.05z"/>
<path style="fill-rule:evenodd;clip-rule:evenodd;fill:#CCD6C2;" d="M36.65,14.2c0.833,0,1.25,0.183,1.25,0.55
	c0,0.366-0.417,0.55-1.25,0.55s-1.25-0.184-1.25-0.55C35.4,14.383,35.816,14.2,36.65,14.2z"/>
<path style="fill-rule:evenodd;clip-rule:evenodd;fill:#CCD6C2;" d="M63.7,12.45c0,0.267-0.534,0.399-1.6,0.399
	c-1.067,0-1.6-0.133-1.6-0.399c0-0.3,0.533-0.45,1.6-0.45C63.167,12,63.7,12.15,63.7,12.45z"/>
<path style="fill-rule:evenodd;clip-rule:evenodd;fill:#CCD6C2;" d="M67.6,5.15c0,0.267-0.233,0.5-0.7,0.7
	c-0.433,0.2-0.966,0.3-1.6,0.3c-0.633,0-1.167-0.1-1.6-0.3c-0.467-0.2-0.7-0.434-0.7-0.7s0.233-0.5,0.7-0.7
	c0.433-0.2,0.966-0.3,1.6-0.3c0.634,0,1.167,0.1,1.6,0.3C67.367,4.65,67.6,4.883,67.6,5.15z"/>
<path style="fill-rule:evenodd;clip-rule:evenodd;fill:#CCD6C2;" d="M74.05,3.25c0,0.233-0.183,0.417-0.55,0.55
	c-0.367,0.167-0.833,0.25-1.4,0.25c-0.534,0-0.983-0.083-1.35-0.25c-0.367-0.133-0.55-0.316-0.55-0.55s0.183-0.417,0.55-0.55
	c0.367-0.167,0.816-0.25,1.35-0.25c0.566,0,1.033,0.083,1.4,0.25C73.867,2.833,74.05,3.017,74.05,3.25z"/>
<path style="fill-rule:evenodd;clip-rule:evenodd;fill:#CCD6C2;" d="M152.15,2.7c0,0.267-0.5,0.4-1.5,0.4s-1.5-0.133-1.5-0.4
	c0-0.3,0.5-0.45,1.5-0.45S152.15,2.4,152.15,2.7z"/>
<path style="fill-rule:evenodd;clip-rule:evenodd;fill:#CCD6C2;" d="M81.75,3.05c0,0.467-0.3,0.7-0.9,0.7s-0.9-0.233-0.9-0.7
	c0-0.466,0.3-0.7,0.9-0.7S81.75,2.583,81.75,3.05z"/>
<path style="fill-rule:evenodd;clip-rule:evenodd;fill:#CCD6C2;" d="M65.55,1.45c0,0.3-0.167,0.566-0.5,0.8
	c-0.3,0.2-0.683,0.3-1.15,0.3c-0.433,0-0.8-0.1-1.1-0.3c-0.333-0.233-0.5-0.5-0.5-0.8c0-0.267,0.167-0.517,0.5-0.75
	c0.3-0.2,0.667-0.3,1.1-0.3c0.434,0,0.817,0.1,1.15,0.3C65.383,0.934,65.55,1.184,65.55,1.45z"/>
<path style="fill-rule:evenodd;clip-rule:evenodd;fill:#CCD6C2;" d="M59.8,2.65c0,0.267-0.233,0.4-0.7,0.4
	c-0.467,0-0.7-0.133-0.7-0.4c0-0.3,0.233-0.45,0.7-0.45C59.566,2.2,59.8,2.35,59.8,2.65z"/>
<path style="fill-rule:evenodd;clip-rule:evenodd;fill:#CCD6C2;" d="M56.8,2.9c0,0.3-0.183,0.45-0.55,0.45c-0.4,0-0.6-0.15-0.6-0.45
	c0-0.267,0.2-0.4,0.6-0.4C56.617,2.5,56.8,2.633,56.8,2.9z"/>
<path style="fill-rule:evenodd;clip-rule:evenodd;fill:#CCD6C2;" d="M84.45,6.4c0,0.267-0.15,0.5-0.45,0.7
	c-0.267,0.2-0.617,0.3-1.05,0.3c-0.4,0-0.75-0.1-1.05-0.3c-0.3-0.2-0.45-0.434-0.45-0.7s0.15-0.5,0.45-0.7
	c0.3-0.167,0.65-0.25,1.05-0.25c0.433,0,0.783,0.083,1.05,0.25C84.3,5.9,84.45,6.133,84.45,6.4z"/>
<path style="fill-rule:evenodd;clip-rule:evenodd;fill:#CCD6C2;" d="M68.3,15.8c0,0.267-0.35,0.4-1.05,0.4s-1.05-0.134-1.05-0.4
	c0-0.3,0.35-0.45,1.05-0.45S68.3,15.5,68.3,15.8z"/>
<path style="fill-rule:evenodd;clip-rule:evenodd;fill:#CCD6C2;" d="M87.8,17.45c0,0.467-0.533,0.7-1.6,0.7
	c-1.067,0-1.6-0.233-1.6-0.7c0-0.167,0.15-0.334,0.45-0.5c0.333-0.134,0.717-0.2,1.15-0.2c0.433,0,0.816,0.066,1.15,0.2
	C87.65,17.116,87.8,17.283,87.8,17.45z"/>
<path style="fill-rule:evenodd;clip-rule:evenodd;fill:#CCD6C2;" d="M92.65,16.65c0,0.267-0.65,0.399-1.95,0.399
	c-1.3,0-1.95-0.133-1.95-0.399c0-0.301,0.65-0.45,1.95-0.45C92,16.2,92.65,16.35,92.65,16.65z"/>
<path style="fill-rule:evenodd;clip-rule:evenodd;fill:#CCD6C2;" d="M82.55,15.95c0,0.366-0.316,0.55-0.95,0.55
	c-0.6,0-0.9-0.184-0.9-0.55c0-0.4,0.3-0.601,0.9-0.601C82.233,15.35,82.55,15.55,82.55,15.95z"/>
<path style="fill-rule:evenodd;clip-rule:evenodd;fill:#CCD6C2;" d="M79.8,17.9c0,0.366-0.2,0.55-0.6,0.55
	c-0.367,0-0.55-0.184-0.55-0.55c0-0.367,0.184-0.551,0.55-0.551C79.6,17.35,79.8,17.533,79.8,17.9z"/>
<path style="fill-rule:evenodd;clip-rule:evenodd;fill:#CCD6C2;" d="M99.15,7.8c0,0.367-0.233,0.55-0.7,0.55s-0.7-0.184-0.7-0.55
	c0-0.366,0.233-0.55,0.7-0.55S99.15,7.434,99.15,7.8z"/>
<path style="fill-rule:evenodd;clip-rule:evenodd;fill:#CCD6C2;" d="M121.6,13.7c0,0.166-0.166,0.3-0.5,0.399
	c-0.366,0.101-0.783,0.15-1.25,0.15c-1.133,0-1.699-0.184-1.699-0.55c0-0.367,0.566-0.55,1.699-0.55
	C121.017,13.15,121.6,13.333,121.6,13.7z"/>
<path style="fill-rule:evenodd;clip-rule:evenodd;fill:#CCD6C2;" d="M125.1,11.5c0,0.4-0.433,0.6-1.3,0.6
	c-0.866,0-1.3-0.199-1.3-0.6s0.434-0.6,1.3-0.6C124.667,10.9,125.1,11.1,125.1,11.5z"/>
<path style="fill-rule:evenodd;clip-rule:evenodd;fill:#CCD6C2;" d="M131,10.6c0,0.2-0.3,0.3-0.9,0.3c-0.633,0-0.949-0.1-0.949-0.3
	c0-0.167,0.316-0.25,0.949-0.25C130.7,10.35,131,10.434,131,10.6z"/>
<path style="fill-rule:evenodd;clip-rule:evenodd;fill:#CCD6C2;" d="M132.6,7.2c0,0.133-0.216,0.2-0.649,0.2
	c-0.467,0-0.7-0.066-0.7-0.2c0-0.134,0.233-0.2,0.7-0.2C132.384,7,132.6,7.066,132.6,7.2z"/>
<path style="fill-rule:evenodd;clip-rule:evenodd;fill:#CCD6C2;" d="M141,4.6c0,0.267-0.233,0.4-0.7,0.4c-0.5,0-0.75-0.133-0.75-0.4
	c0-0.3,0.25-0.45,0.75-0.45C140.767,4.15,141,4.3,141,4.6z"/>
<path style="fill-rule:evenodd;clip-rule:evenodd;fill:#CCD6C2;" d="M54.3,12.65c0,0.232-0.267,0.433-0.8,0.6
	c-0.566,0.167-1.25,0.25-2.05,0.25c-0.8,0-1.483-0.083-2.05-0.25c-0.566-0.167-0.85-0.367-0.85-0.6c0-0.233,0.284-0.417,0.85-0.551
	c0.567-0.166,1.25-0.25,2.05-0.25c0.8,0,1.483,0.084,2.05,0.25C54.033,12.233,54.3,12.417,54.3,12.65z"/>
<path style="fill-rule:evenodd;clip-rule:evenodd;fill:#CCD6C2;" d="M147.1,7.65c0,0.4-0.416,0.6-1.25,0.6c-0.866,0-1.3-0.2-1.3-0.6
	c0-0.133,0.134-0.267,0.4-0.4c0.233-0.1,0.533-0.15,0.899-0.15C146.684,7.1,147.1,7.283,147.1,7.65z"/>
<path style="fill-rule:evenodd;clip-rule:evenodd;fill:#CCD6C2;" d="M151.8,7.25c0,0.2-0.316,0.3-0.95,0.3c-0.666,0-1-0.1-1-0.3
	s0.334-0.3,1-0.3C151.483,6.95,151.8,7.05,151.8,7.25z"/>
<path style="fill-rule:evenodd;clip-rule:evenodd;fill:#CCD6C2;" d="M178.55,11.4c-0.066,0.3-0.5,0.333-1.3,0.1
	c-0.833-0.233-1.217-0.517-1.15-0.85c0.101-0.3,0.551-0.333,1.351-0.1C178.283,10.816,178.65,11.1,178.55,11.4z"/>
<path style="fill-rule:evenodd;clip-rule:evenodd;fill:#CCD6C2;" d="M154.7,4.5c0,0.267-0.267,0.4-0.8,0.4
	c-0.567,0-0.851-0.133-0.851-0.4c0-0.233,0.283-0.35,0.851-0.35C154.434,4.15,154.7,4.267,154.7,4.5z"/>
<path style="fill-rule:evenodd;clip-rule:evenodd;fill:#CCD6C2;" d="M158.3,4.9c0.733,0,1.101,0.184,1.101,0.55
	c0,0.366-0.367,0.55-1.101,0.55s-1.1-0.184-1.1-0.55C157.2,5.083,157.566,4.9,158.3,4.9z"/>
<path style="fill-rule:evenodd;clip-rule:evenodd;fill:#CCD6C2;" d="M158.45,12.8c0,0.167-0.2,0.25-0.601,0.25
	c-0.366,0-0.55-0.083-0.55-0.25c0-0.2,0.184-0.3,0.55-0.3C158.25,12.5,158.45,12.6,158.45,12.8z"/>
<path style="fill-rule:evenodd;clip-rule:evenodd;fill:#CCD6C2;" d="M164.05,5.35c0,0.333-0.316,0.5-0.95,0.5
	c-0.666,0-1-0.167-1-0.5c0-0.3,0.334-0.45,1-0.45C163.733,4.9,164.05,5.05,164.05,5.35z"/>
<path style="fill-rule:evenodd;clip-rule:evenodd;fill:#CCD6C2;" d="M162.35,7.05c0,0.134-0.149,0.2-0.449,0.2
	c-0.334,0-0.5-0.066-0.5-0.2c0-0.133,0.166-0.2,0.5-0.2C162.2,6.85,162.35,6.917,162.35,7.05z"/>
<path style="fill-rule:evenodd;clip-rule:evenodd;fill:#CCD6C2;" d="M169.35,8.65c0,0.467-0.5,0.7-1.5,0.7s-1.5-0.233-1.5-0.7
	c0-0.2,0.15-0.367,0.45-0.5s0.65-0.2,1.05-0.2C168.85,7.95,169.35,8.184,169.35,8.65z"/>
<path style="fill-rule:evenodd;clip-rule:evenodd;fill:#CCD6C2;" d="M172.45,9.75c0,0.4-0.334,0.6-1,0.6c-0.634,0-0.95-0.2-0.95-0.6
	c0-0.367,0.316-0.55,0.95-0.55C172.116,9.2,172.45,9.383,172.45,9.75z"/>
<path style="fill-rule:evenodd;clip-rule:evenodd;fill:#CCD6C2;" d="M171.55,7.95c0,0.2-0.233,0.3-0.7,0.3
	c-0.466,0-0.699-0.1-0.699-0.3c0-0.2,0.233-0.3,0.699-0.3C171.316,7.65,171.55,7.75,171.55,7.95z"/>
<path style="fill-rule:evenodd;clip-rule:evenodd;fill:#CCD6C2;" d="M187.35,10.15c0,0.267-0.267,0.4-0.8,0.4s-0.8-0.133-0.8-0.4
	s0.267-0.4,0.8-0.4S187.35,9.883,187.35,10.15z"/>
<path style="fill-rule:evenodd;clip-rule:evenodd;fill:#CCD6C2;" d="M184.15,8.4c0,0.333-0.167,0.5-0.5,0.5
	c-0.301,0-0.45-0.167-0.45-0.5s0.149-0.5,0.45-0.5C183.983,7.9,184.15,8.066,184.15,8.4z"/>
<path style="fill-rule:evenodd;clip-rule:evenodd;fill:#CCD6C2;" d="M164.8,10.9c0,0.233-0.217,0.35-0.649,0.35
	c-0.434,0-0.65-0.117-0.65-0.35c0-0.233,0.217-0.35,0.65-0.35C164.583,10.55,164.8,10.667,164.8,10.9z"/>
<path style="fill-rule:evenodd;clip-rule:evenodd;fill:#CCD6C2;" d="M163.05,12.65c0,0.333-0.316,0.5-0.95,0.5
	c-0.666,0-1-0.167-1-0.5c0-0.334,0.334-0.5,1-0.5C162.733,12.15,163.05,12.316,163.05,12.65z"/>
<path style="fill-rule:evenodd;clip-rule:evenodd;fill:#CCD6C2;" d="M169.15,13.85c0,0.367-0.351,0.551-1.051,0.551
	c-0.666,0-1-0.184-1-0.551c0-0.399,0.334-0.6,1-0.6C168.8,13.25,169.15,13.45,169.15,13.85z"/>
<path style="fill-rule:evenodd;clip-rule:evenodd;fill:#CCD6C2;" d="M160.95,10.35c0,0.167-0.15,0.25-0.45,0.25
	s-0.45-0.083-0.45-0.25c0-0.2,0.15-0.3,0.45-0.3S160.95,10.15,160.95,10.35z"/>
<path style="fill-rule:evenodd;clip-rule:evenodd;fill:#CCD6C2;" d="M170.05,16.1c0,0.334-0.267,0.5-0.8,0.5s-0.8-0.166-0.8-0.5
	c0-0.3,0.267-0.449,0.8-0.449S170.05,15.8,170.05,16.1z"/>
<path style="fill-rule:evenodd;clip-rule:evenodd;fill:#CCD6C2;" d="M160.55,14.25c0,0.267-0.233,0.4-0.7,0.4
	c-0.466,0-0.699-0.134-0.699-0.4s0.233-0.4,0.699-0.4C160.316,13.85,160.55,13.983,160.55,14.25z"/>
<path style="fill-rule:evenodd;clip-rule:evenodd;fill:#CCD6C2;" d="M152.75,14.55c0,0.267-0.283,0.4-0.85,0.4
	c-0.534,0-0.801-0.134-0.801-0.4c0-0.3,0.267-0.45,0.801-0.45C152.467,14.1,152.75,14.25,152.75,14.55z"/>
<path style="fill-rule:evenodd;clip-rule:evenodd;fill:#CCD6C2;" d="M143.65,13c0,0.233-0.167,0.434-0.5,0.6
	c-0.367,0.167-0.801,0.25-1.301,0.25c-0.466,0-0.883-0.083-1.25-0.25c-0.333-0.166-0.5-0.366-0.5-0.6s0.167-0.434,0.5-0.6
	c0.367-0.167,0.784-0.25,1.25-0.25c0.5,0,0.934,0.083,1.301,0.25C143.483,12.566,143.65,12.767,143.65,13z"/>
<path style="fill-rule:evenodd;clip-rule:evenodd;fill:#CCD6C2;" d="M139.3,14.45c0,0.166-0.133,0.316-0.399,0.45
	c-0.301,0.133-0.634,0.199-1,0.199c-0.9,0-1.351-0.217-1.351-0.649c0-0.4,0.45-0.601,1.351-0.601
	C138.833,13.85,139.3,14.05,139.3,14.45z"/>
<path style="fill-rule:evenodd;clip-rule:evenodd;fill:#CCD6C2;" d="M135.5,15.45c0,0.233-0.1,0.35-0.3,0.35s-0.3-0.116-0.3-0.35
	s0.1-0.351,0.3-0.351S135.5,15.217,135.5,15.45z"/>
<path style="fill-rule:evenodd;clip-rule:evenodd;fill:#CCD6C2;" d="M130.1,16.75c0,0.2-0.149,0.3-0.449,0.3
	c-0.334,0-0.5-0.1-0.5-0.3c0-0.167,0.166-0.25,0.5-0.25C129.95,16.5,130.1,16.583,130.1,16.75z"/>
<path style="fill-rule:evenodd;clip-rule:evenodd;fill:#CCD6C2;" d="M124.95,17.55c0,0.233-0.25,0.351-0.75,0.351
	s-0.75-0.117-0.75-0.351s0.25-0.35,0.75-0.35S124.95,17.316,124.95,17.55z"/>
<path style="fill-rule:evenodd;clip-rule:evenodd;fill:#CCD6C2;" d="M107.45,17.2c0,0.467-0.566,0.7-1.7,0.7
	c-1.167,0-1.75-0.233-1.75-0.7c0-0.2,0.167-0.367,0.5-0.5c0.366-0.134,0.783-0.2,1.25-0.2s0.866,0.066,1.2,0.2
	C107.283,16.833,107.45,17,107.45,17.2z"/>
<path style="fill-rule:evenodd;clip-rule:evenodd;fill:#CCD6C2;" d="M104.5,11.25c0,0.533-0.434,0.8-1.3,0.8
	c-0.367,0-0.667-0.083-0.9-0.25c-0.267-0.133-0.399-0.316-0.399-0.55c0-0.2,0.133-0.367,0.399-0.5c0.267-0.167,0.566-0.25,0.9-0.25
	c0.366,0,0.684,0.083,0.95,0.25C104.384,10.883,104.5,11.05,104.5,11.25z"/>
<path style="fill-rule:evenodd;clip-rule:evenodd;fill:#CCD6C2;" d="M86.05,16.3c0,0.233-0.25,0.351-0.75,0.351
	c-0.533,0-0.8-0.117-0.8-0.351c0-0.267,0.267-0.399,0.8-0.399C85.8,15.9,86.05,16.033,86.05,16.3z"/>
<path style="fill-rule:evenodd;clip-rule:evenodd;fill:#CCD6C2;" d="M86.35,12.9c0,0.166-0.317,0.25-0.95,0.25
	c-0.6,0-0.9-0.084-0.9-0.25c0-0.2,0.3-0.301,0.9-0.301C86.033,12.6,86.35,12.7,86.35,12.9z"/>
<path style="fill-rule:evenodd;clip-rule:evenodd;fill:#CCD6C2;" d="M84.85,9.35c0,0.2-0.217,0.3-0.65,0.3
	c-0.434,0-0.65-0.1-0.65-0.3c0-0.2,0.217-0.3,0.65-0.3C84.633,9.05,84.85,9.15,84.85,9.35z"/>
<path style="fill-rule:evenodd;clip-rule:evenodd;fill:#CCD6C2;" d="M98.2,7.1c0,0.3-0.267,0.45-0.8,0.45
	c-0.533,0-0.8-0.15-0.8-0.45c0-0.267,0.267-0.4,0.8-0.4C97.934,6.7,98.2,6.833,98.2,7.1z"/>
<path style="fill-rule:evenodd;clip-rule:evenodd;fill:#CCD6C2;" d="M79.15,7.95c0,0.167-0.167,0.25-0.5,0.25s-0.5-0.083-0.5-0.25
	c0-0.2,0.167-0.3,0.5-0.3S79.15,7.75,79.15,7.95z"/>
<path style="fill-rule:evenodd;clip-rule:evenodd;fill:#CCD6C2;" d="M94.65,9.55c0,0.233-0.183,0.35-0.55,0.35
	c-0.333,0-0.5-0.117-0.5-0.35s0.167-0.35,0.5-0.35C94.467,9.2,94.65,9.316,94.65,9.55z"/>
<path style="fill-rule:evenodd;clip-rule:evenodd;fill:#CCD6C2;" d="M90.15,10.45c0,0.3-0.216,0.45-0.65,0.45
	c-0.4,0-0.6-0.15-0.6-0.45c0-0.267,0.2-0.4,0.6-0.4C89.934,10.05,90.15,10.184,90.15,10.45z"/>
<path style="fill-rule:evenodd;clip-rule:evenodd;fill:#CCD6C2;" d="M73.35,7.9c0,0.133-0.233,0.2-0.7,0.2
	c-0.466,0-0.7-0.067-0.7-0.2c0-0.167,0.233-0.25,0.7-0.25C73.117,7.65,73.35,7.733,73.35,7.9z"/>
<path style="fill-rule:evenodd;clip-rule:evenodd;fill:#CCD6C2;" d="M116.2,9c0,0.5-0.45,0.75-1.351,0.75
	c-0.899,0-1.35-0.25-1.35-0.75c0-0.467,0.45-0.7,1.35-0.7C115.75,8.3,116.2,8.533,116.2,9z"/>
<path style="fill-rule:evenodd;clip-rule:evenodd;fill:#CCD6C2;" d="M116.55,6.3c0,0.267-0.25,0.4-0.75,0.4s-0.75-0.134-0.75-0.4
	s0.25-0.4,0.75-0.4S116.55,6.033,116.55,6.3z"/>
<path style="fill-rule:evenodd;clip-rule:evenodd;fill:#CCD6C2;" d="M178.7,7.15c0,0.267-0.384,0.4-1.15,0.4
	c-0.733,0-1.1-0.133-1.1-0.4s0.366-0.4,1.1-0.4C178.316,6.75,178.7,6.883,178.7,7.15z"/>
<path style="fill-rule:evenodd;clip-rule:evenodd;fill:#CCD6C2;" d="M102.85,2.8c0,0.367-0.316,0.55-0.949,0.55
	c-0.667,0-1-0.184-1-0.55c0-0.366,0.333-0.55,1-0.55C102.533,2.25,102.85,2.434,102.85,2.8z"/>
<path style="fill-rule:evenodd;clip-rule:evenodd;fill:#CCD6C2;" d="M58.35,19.65c0,0.267-0.333,0.399-1,0.399s-1-0.133-1-0.399
	c0-0.268,0.333-0.4,1-0.4S58.35,19.383,58.35,19.65z"/>
<path style="fill-rule:evenodd;clip-rule:evenodd;fill:#CCD6C2;" d="M72.85,7.15C73.083,7.083,73.3,7.033,73.5,7L74,7.2
	c0.3,0.2,0.434,0.4,0.4,0.6l-0.1,0.15h0.4c0.733,0.1,1.216,0.316,1.45,0.65C75.65,8.867,75,8.983,74.2,8.95h-0.35l-0.1,0.15
	c-0.233,0.3-0.733,0.5-1.5,0.6c-0.667-0.2-0.967-0.467-0.9-0.8l0.05-0.15h-0.35c-0.466-0.066-0.866-0.2-1.2-0.4l-0.3-0.25l0.55-0.2
	c0.433-0.133,0.9-0.183,1.4-0.15h0.4l0.05-0.15C72.083,7.4,72.383,7.25,72.85,7.15z"/>
<path style="fill-rule:evenodd;clip-rule:evenodd;fill:#CCD6C2;" d="M109,6.7l0.1-0.2H108.7c-0.467-0.066-0.851-0.2-1.15-0.4
	l-0.3-0.25l0.55-0.2c0.434-0.133,0.9-0.183,1.4-0.15l0.35,0.05l0.101-0.2c0.133-0.2,0.433-0.35,0.899-0.45
	c0.233-0.066,0.45-0.117,0.65-0.15l0.45,0.2c0.3,0.2,0.433,0.4,0.399,0.6L112,5.7l0.35,0.05c0.767,0.066,1.267,0.267,1.5,0.6
	c-0.5,0.267-1.149,0.4-1.949,0.4l-0.4-0.05l-0.05,0.15c-0.233,0.3-0.75,0.5-1.55,0.6C109.267,7.25,108.967,7,109,6.7z"/>
<path style="fill-rule:evenodd;clip-rule:evenodd;fill:#CCD6C2;" d="M121.55,4.55c0.467-0.133,0.934-0.2,1.4-0.2l0.399,0.05
	l0.051-0.15c0.133-0.2,0.433-0.35,0.899-0.45c0.233-0.066,0.45-0.116,0.65-0.15l0.5,0.2c0.3,0.2,0.434,0.4,0.399,0.6l-0.1,0.15h0.4
	c0.767,0.1,1.25,0.316,1.449,0.65c-0.5,0.267-1.133,0.383-1.899,0.35h-0.4l-0.05,0.15c-0.233,0.3-0.75,0.5-1.55,0.6
	c-0.667-0.2-0.967-0.467-0.9-0.8L122.9,5.4h-0.4c-0.467-0.066-0.85-0.2-1.15-0.4l-0.3-0.25L121.55,4.55z"/>
<path style="fill-rule:evenodd;clip-rule:evenodd;fill:#CCD6C2;" d="M71,15.75c0.467-0.134,0.934-0.2,1.4-0.2l0.4,0.05l0.05-0.149
	c0.167-0.2,0.483-0.351,0.95-0.45c0.2-0.066,0.4-0.117,0.6-0.15l0.5,0.2c0.3,0.2,0.434,0.4,0.4,0.601L75.25,15.8h0.35
	c0.767,0.101,1.25,0.316,1.45,0.65c-0.5,0.267-1.133,0.383-1.9,0.35h-0.4l-0.05,0.15c-0.233,0.3-0.75,0.5-1.55,0.6
	c-0.667-0.2-0.966-0.467-0.9-0.8l0.1-0.15h-0.4C71.483,16.533,71.1,16.4,70.8,16.2l-0.3-0.25L71,15.75z"/>
<path style="fill-rule:evenodd;clip-rule:evenodd;fill:#CCD6C2;" d="M88.5,6c0.2-0.033,0.4-0.066,0.6-0.1l0.5,0.2
	c0.3,0.167,0.433,0.35,0.4,0.55l-0.05,0.2h0.35c0.767,0.1,1.267,0.316,1.5,0.65c-0.533,0.267-1.183,0.383-1.95,0.35l-0.4-0.05
	L89.4,8c-0.233,0.3-0.75,0.5-1.55,0.6c-0.667-0.2-0.967-0.467-0.9-0.8l0.1-0.15l-0.4-0.05c-0.466-0.034-0.85-0.15-1.15-0.35L85.2,7
	l0.55-0.2c0.434-0.133,0.9-0.2,1.4-0.2l0.35,0.05l0.05-0.15C87.717,6.3,88.033,6.133,88.5,6z"/>
<path style="fill-rule:evenodd;clip-rule:evenodd;fill:#CCD6C2;" d="M136.3,8.75c0.134-0.2,0.434-0.367,0.9-0.5
	c0.233-0.066,0.45-0.117,0.649-0.15l0.45,0.2c0.334,0.2,0.483,0.4,0.45,0.6l-0.1,0.15l0.399,0.05c0.733,0.1,1.217,0.3,1.45,0.6
	c-0.5,0.267-1.15,0.4-1.95,0.4l-0.399-0.05L138.1,10.2c-0.233,0.333-0.75,0.55-1.55,0.65c-0.633-0.2-0.934-0.467-0.899-0.8l0.1-0.15
	l-0.4-0.05c-0.466-0.067-0.85-0.184-1.149-0.35l-0.3-0.25l0.55-0.2c0.434-0.167,0.899-0.233,1.399-0.2L136.2,8.9L136.3,8.75z"/>
<radialGradient id="SVGID_1_" cx="66.2002" cy="9.8501" r="1.775" gradientTransform="matrix(1 0 0 -0.5141 0 14.9139)" gradientUnits="userSpaceOnUse">
	<stop  offset="0" style="stop-color:#DC9F60"/>
	<stop  offset="1" style="stop-color:#E6A058"/>
</radialGradient>
<path style="fill-rule:evenodd;clip-rule:evenodd;fill:url(#SVGID_1_);" d="M66.7,8.75L67,8.9c0.233,0.133,0.333,0.284,0.3,0.45
	L67.25,9.5h0.25c0.533,0.066,0.883,0.233,1.05,0.5c-0.366,0.233-0.833,0.35-1.4,0.35L66.9,10.3l-0.05,0.15
	c-0.167,0.267-0.534,0.45-1.1,0.55c-0.467-0.167-0.684-0.383-0.65-0.65l0.1-0.1l-0.3-0.05c-0.333-0.034-0.6-0.117-0.8-0.25l-0.2-0.2
	l0.35-0.15c0.3-0.133,0.633-0.2,1-0.2h0.3l0.05-0.15c0.1-0.133,0.316-0.267,0.65-0.4C66.417,8.816,66.566,8.783,66.7,8.75z"/>
<radialGradient id="SVGID_2_" cx="27.6499" cy="5.4502" r="1.875" gradientTransform="matrix(1 0 0 -0.52 0 8.2843)" gradientUnits="userSpaceOnUse">
	<stop  offset="0" style="stop-color:#DC9F60"/>
	<stop  offset="1" style="stop-color:#E6A058"/>
</radialGradient>
<path style="fill-rule:evenodd;clip-rule:evenodd;fill:url(#SVGID_2_);" d="M27.65,4.3c0.2-0.066,0.367-0.116,0.5-0.15l0.35,0.2
	c0.233,0.133,0.333,0.3,0.3,0.5L28.7,5H29c0.566,0.066,0.917,0.25,1.05,0.55c-0.366,0.267-0.833,0.4-1.4,0.4h-0.3L28.3,6.1
	c-0.2,0.3-0.583,0.517-1.15,0.65C26.65,6.583,26.434,6.333,26.5,6l0.05-0.15h-0.3c-0.333-0.034-0.6-0.133-0.8-0.3L25.2,5.3l0.4-0.2
	c0.333-0.133,0.683-0.2,1.05-0.2h0.3L27,4.75C27.1,4.55,27.316,4.4,27.65,4.3z"/>
<radialGradient id="SVGID_3_" cx="129.2998" cy="10.5498" r="1.675" gradientTransform="matrix(1 0 0 -0.5224 0 16.0609)" gradientUnits="userSpaceOnUse">
	<stop  offset="0" style="stop-color:#DC9F60"/>
	<stop  offset="1" style="stop-color:#E6A058"/>
</radialGradient>
<path style="fill-rule:evenodd;clip-rule:evenodd;fill:url(#SVGID_3_);" d="M128.05,10.9c-0.3-0.033-0.566-0.117-0.8-0.25l-0.2-0.2
	l0.4-0.15c0.3-0.133,0.616-0.183,0.95-0.15h0.25l0.05-0.1c0.1-0.133,0.3-0.267,0.6-0.4c0.167-0.033,0.316-0.066,0.45-0.1l0.3,0.15
	c0.233,0.133,0.334,0.283,0.3,0.45l-0.05,0.1h0.25c0.5,0.066,0.834,0.217,1,0.45c-0.366,0.2-0.816,0.3-1.35,0.3h-0.25l-0.05,0.1
	c-0.167,0.233-0.517,0.4-1.051,0.5c-0.433-0.166-0.633-0.366-0.6-0.6l0.05-0.1H128.05z"/>
<radialGradient id="SVGID_4_" cx="177.4004" cy="9.3501" r="1.9875" gradientTransform="matrix(1 0 0 -0.5157 0 14.1722)" gradientUnits="userSpaceOnUse">
	<stop  offset="0" style="stop-color:#DC9F60"/>
	<stop  offset="1" style="stop-color:#E6A058"/>
</radialGradient>
<path style="fill-rule:evenodd;clip-rule:evenodd;fill:url(#SVGID_4_);" d="M178.3,8.45c0.267,0.133,0.384,0.283,0.351,0.45
	l-0.101,0.15h0.351c0.6,0.067,1,0.233,1.199,0.5c-0.433,0.2-0.966,0.3-1.6,0.3l-0.3-0.05l-0.05,0.15
	c-0.134,0.133-0.384,0.267-0.75,0.4l-0.5,0.1c-0.534-0.167-0.784-0.384-0.75-0.65l0.1-0.15h-0.35c-0.367-0.033-0.684-0.133-0.95-0.3
	l-0.25-0.2L175.15,9c0.366-0.133,0.75-0.184,1.149-0.15l0.3,0.05l0.051-0.15c0.199-0.233,0.616-0.4,1.25-0.5L178.3,8.45z"/>
<radialGradient id="SVGID_5_" cx="57" cy="1.7998" r="2.25" gradientTransform="matrix(1 0 0 -0.5167 0 2.7297)" gradientUnits="userSpaceOnUse">
	<stop  offset="0" style="stop-color:#DC9F60"/>
	<stop  offset="1" style="stop-color:#E6A058"/>
</radialGradient>
<path style="fill-rule:evenodd;clip-rule:evenodd;fill:url(#SVGID_5_);" d="M56.15,1.05C56.283,0.85,56.566,0.7,57,0.6
	c0.2-0.067,0.383-0.117,0.55-0.15L58,0.65C58.267,0.816,58.383,1,58.35,1.2L58.3,1.35l0.35,0.05c0.667,0.067,1.1,0.267,1.3,0.6
	c-0.434,0.267-1.017,0.383-1.75,0.35h-0.35L57.8,2.5c-0.233,0.3-0.7,0.5-1.4,0.6c-0.6-0.167-0.867-0.417-0.8-0.75l0.05-0.15H55.3
	c-0.4-0.067-0.733-0.184-1-0.35L54,1.6l0.45-0.2c0.4-0.167,0.833-0.233,1.3-0.2h0.35L56.15,1.05z"/>
<radialGradient id="SVGID_6_" cx="96.3999" cy="3.5" r="1.6" gradientTransform="matrix(1 0 0 -0.5156 0 5.3047)" gradientUnits="userSpaceOnUse">
	<stop  offset="0" style="stop-color:#DC9F60"/>
	<stop  offset="1" style="stop-color:#E6A058"/>
</radialGradient>
<path style="fill-rule:evenodd;clip-rule:evenodd;fill:url(#SVGID_6_);" d="M96.85,2.45l0.3,0.15c0.2,0.133,0.284,0.283,0.25,0.45
	l-0.05,0.1h0.25c0.466,0.067,0.766,0.217,0.9,0.45c-0.3,0.233-0.717,0.35-1.25,0.35l-0.2-0.05L97,4.05c-0.167,0.233-0.5,0.4-1,0.5
	c-0.434-0.167-0.617-0.366-0.55-0.6l0.05-0.1L95.25,3.8c-0.3-0.033-0.55-0.1-0.75-0.2l-0.2-0.2l0.35-0.15c0.3-0.133,0.6-0.2,0.9-0.2
	h0.25l0.05-0.1c0.1-0.134,0.3-0.267,0.6-0.4C96.583,2.517,96.717,2.483,96.85,2.45z"/>
<path style="fill-rule:evenodd;clip-rule:evenodd;fill:#DED07E;" d="M109.3,1.1c0.3-0.1,0.601-0.15,0.9-0.15L110.45,1l0.05-0.15
	c0.1-0.133,0.3-0.233,0.6-0.3c0.134-0.033,0.267-0.066,0.4-0.1l0.3,0.15c0.2,0.1,0.283,0.216,0.25,0.35L112,1.1h0.25
	c0.5,0.066,0.816,0.2,0.95,0.4c-0.334,0.2-0.75,0.3-1.25,0.3l-0.25-0.05l-0.05,0.1c-0.167,0.233-0.5,0.383-1,0.45
	c-0.434-0.133-0.617-0.316-0.551-0.55l0.051-0.1h-0.25c-0.301-0.033-0.551-0.117-0.75-0.25l-0.2-0.15L109.3,1.1z"/>
<path style="fill-rule:evenodd;clip-rule:evenodd;fill:#DED07E;" d="M41.25,3.8c-0.5-0.066-0.733-0.216-0.7-0.45l0.05-0.1L40.3,3.3
	c-0.333,0-0.6-0.05-0.8-0.15L39.25,3l0.35-0.15c0.3-0.133,0.633-0.217,1-0.25h0.25l0.05-0.15C41,2.316,41.2,2.2,41.5,2.1
	c0.167-0.067,0.316-0.117,0.45-0.15l0.35,0.1c0.233,0.067,0.35,0.167,0.35,0.3l-0.05,0.1h0.25c0.566,0,0.933,0.083,1.1,0.25
	c-0.333,0.233-0.784,0.383-1.35,0.45h-0.25l-0.05,0.1C42.133,3.483,41.783,3.667,41.25,3.8z"/>
<path style="fill-rule:evenodd;clip-rule:evenodd;fill:#DED07E;" d="M39.85,9.35l0.4,0.2c0.267,0.167,0.383,0.35,0.35,0.55
	l-0.1,0.15h0.35c0.6,0.066,0.983,0.267,1.15,0.6c-0.4,0.3-0.934,0.45-1.6,0.45l-0.3-0.05l-0.05,0.2c-0.2,0.3-0.633,0.517-1.3,0.649
	c-0.533-0.199-0.767-0.449-0.7-0.75l0.1-0.199H37.8c-0.366-0.034-0.667-0.15-0.9-0.351l-0.25-0.25l0.4-0.2
	c0.367-0.133,0.75-0.2,1.15-0.2h0.35L38.6,10c0.133-0.2,0.383-0.367,0.75-0.5C39.517,9.434,39.684,9.383,39.85,9.35z"/>
<path style="fill-rule:evenodd;clip-rule:evenodd;fill:#DED07E;" d="M80.25,10.5l0.05-0.15c0.134-0.2,0.384-0.367,0.75-0.5
	c0.167-0.067,0.333-0.117,0.5-0.15l0.4,0.2c0.267,0.167,0.383,0.35,0.35,0.55l-0.1,0.15l0.35,0.05c0.6,0.067,0.983,0.25,1.15,0.55
	c-0.4,0.3-0.934,0.45-1.6,0.45h-0.3L81.75,11.8c-0.2,0.3-0.633,0.517-1.3,0.65c-0.534-0.2-0.767-0.45-0.7-0.75l0.1-0.15L79.5,11.5
	c-0.367-0.033-0.667-0.134-0.9-0.3l-0.25-0.25l0.4-0.2c0.367-0.167,0.75-0.25,1.15-0.25H80.25z"/>
<path style="fill-rule:evenodd;clip-rule:evenodd;fill:#DED07E;" d="M147.6,2.5l0.25,0.05c0.5,0.1,0.817,0.284,0.95,0.55
	c-0.366,0.2-0.8,0.267-1.3,0.2l-0.25-0.05l-0.1,0.15c-0.167,0.233-0.517,0.367-1.051,0.4c-0.399-0.2-0.566-0.433-0.5-0.7L145.65,3
	l-0.25-0.05c-0.301-0.067-0.551-0.184-0.75-0.35l-0.15-0.2l0.35-0.15c0.301-0.066,0.617-0.083,0.95-0.05l0.25,0.05l0.05-0.15
	c0.101-0.133,0.301-0.25,0.601-0.35c0.166-0.033,0.316-0.05,0.45-0.05l0.3,0.2c0.2,0.167,0.283,0.333,0.25,0.5L147.6,2.5z"/>
<path style="fill-rule:evenodd;clip-rule:evenodd;fill:#DED07E;" d="M174,12.85c0.434,0.033,0.717,0.167,0.85,0.4
	c-0.3,0.2-0.666,0.3-1.1,0.3l-0.25-0.05v0.15c-0.134,0.199-0.434,0.35-0.9,0.449c-0.366-0.133-0.533-0.316-0.5-0.55l0.051-0.1h-0.2
	c-0.267-0.033-0.483-0.117-0.65-0.25l-0.149-0.15l0.3-0.149c0.233-0.101,0.5-0.15,0.8-0.15h0.2l0.05-0.1
	c0.1-0.134,0.267-0.25,0.5-0.351c0.134-0.033,0.25-0.066,0.35-0.1l0.25,0.149c0.2,0.101,0.284,0.217,0.25,0.351l-0.05,0.149H174z"/>
<path style="fill-rule:evenodd;clip-rule:evenodd;fill:#DED07E;" d="M2.7,7.35c0.167-0.034,0.333-0.067,0.5-0.1L3.6,7.4
	c0.267,0.133,0.383,0.267,0.35,0.4l-0.1,0.1h0.3c0.633,0.067,1.034,0.2,1.2,0.4c-0.4,0.2-0.934,0.3-1.6,0.3h-0.3L3.4,8.7
	C3.2,8.934,2.767,9.083,2.1,9.15c-0.534-0.133-0.767-0.3-0.7-0.5l0.1-0.1L1.15,8.5c-0.367-0.033-0.667-0.1-0.9-0.2L0,8.1l1.55-0.3
	L1.9,7.85L1.95,7.7C2.083,7.566,2.333,7.45,2.7,7.35z"/>
<path style="fill-rule:evenodd;clip-rule:evenodd;fill:#DED07E;" d="M194.15,8.9c0.1-0.133,0.3-0.25,0.6-0.35
	c0.134-0.033,0.267-0.066,0.4-0.1c0.399,0.133,0.566,0.316,0.5,0.55L195.6,9.1l0.25,0.05c0.467,0.034,0.767,0.167,0.9,0.4
	c-0.333,0.233-0.733,0.35-1.2,0.35l-0.25-0.05L195.25,10c-0.134,0.233-0.45,0.4-0.95,0.5c-0.399-0.133-0.583-0.333-0.55-0.6
	l0.05-0.1h-0.2c-0.3-0.033-0.533-0.116-0.699-0.25l-0.2-0.2L193,9.2c0.3-0.1,0.6-0.15,0.9-0.15h0.25V8.9z"/>
<path style="fill-rule:evenodd;clip-rule:evenodd;fill:#DED07E;" d="M74.3,5.05l0.35,0.05l0.05-0.15c0.167-0.2,0.517-0.35,1.05-0.45
	c0.5-0.2,0.967-0.316,1.4-0.35L77.5,4.2l0.05-0.15c0.134-0.2,0.384-0.366,0.75-0.5c0.167-0.066,0.333-0.116,0.5-0.15l0.4,0.2
	c0.267,0.167,0.383,0.35,0.35,0.55l-0.1,0.15h0.35c0.6,0.067,0.983,0.267,1.15,0.6c-0.4,0.267-0.934,0.4-1.6,0.4h-0.3L79,5.45
	C78.8,5.783,78.367,6,77.7,6.1L77.5,6l-0.9,0.1l-0.3-0.05L76.2,6.2c-0.167,0.233-0.6,0.4-1.3,0.5
	c-0.533-0.167-0.783-0.384-0.75-0.65l0.1-0.15H73.9c-0.4-0.066-0.733-0.183-1-0.35l-0.25-0.2L73.1,5.2C73.5,5.1,73.9,5.05,74.3,5.05
	z"/>
<path style="fill-rule:evenodd;clip-rule:evenodd;fill:#DED07E;" d="M90.9,0.6c0.3,0.2,0.434,0.4,0.4,0.6l-0.05,0.15L91.6,1.4
	c0.767,0.1,1.267,0.3,1.5,0.6c-0.5,0.267-1.15,0.4-1.95,0.4l-0.4-0.05L90.7,2.5c-0.233,0.333-0.75,0.55-1.55,0.65
	c-0.667-0.2-0.966-0.466-0.9-0.8l0.1-0.15l-0.4-0.05C87.483,2.083,87.1,1.967,86.8,1.8l-0.3-0.25l0.55-0.2
	c0.434-0.133,0.9-0.2,1.4-0.2L88.8,1.2l0.1-0.15c0.133-0.2,0.434-0.366,0.9-0.5c0.2-0.066,0.4-0.116,0.6-0.15L90.9,0.6z"/>
</svg>
