<?xml version="1.0" encoding="iso-8859-1"?>
<!-- Generator: Adobe Illustrator 15.1.0, SVG Export Plug-In . SVG Version: 6.00 Build 0)  -->
<!DOCTYPE svg PUBLIC "-//W3C//DTD SVG 1.1//EN" "http://www.w3.org/Graphics/SVG/1.1/DTD/svg11.dtd">
<svg version="1.1" id="FlashAICB" xmlns="http://www.w3.org/2000/svg" xmlns:xlink="http://www.w3.org/1999/xlink" x="0px" y="0px"
	 width="160.25px" height="94.9px" viewBox="0 0 160.25 94.9" style="enable-background:new 0 0 160.25 94.9;" xml:space="preserve"
	>
<path style="fill-rule:evenodd;clip-rule:evenodd;fill:#63724F;" d="M38.4,76l-0.7-2.1c0.133,1.033,0.15,2.083,0.05,3.149
	c-0.1,0.934-0.383,1.917-0.85,2.95L36,81.75c-0.733-0.733-1.233-1.65-1.5-2.75c-0.333-1.033-0.333-2.05,0-3.05
	c0.233-0.867,0.483-1.634,0.75-2.3l-3.1,3.649c-0.2-0.066-0.5-0.649-0.9-1.75c-0.467-1.133-0.65-1.833-0.55-2.1
	c0.2-0.934,0.466-1.783,0.8-2.55l1.8-3.45c-0.833,0.934-1.85,1.85-3.05,2.75c-0.267,0.2-0.933,0.533-2,1s-1.65,0.666-1.75,0.6
	c-0.1-0.399-0.117-0.75-0.05-1.05c0.033-0.7,0.233-1.467,0.6-2.3c0.167-0.367,0.417-0.75,0.75-1.15L23.7,67.9
	c-0.1-1,0.15-1.9,0.75-2.7c0.6-0.9,1.45-1.7,2.55-2.4l1.25-0.649L21,63.5c-0.067-0.667,0.017-1.25,0.25-1.75
	c0.133-0.4,0.3-0.733,0.5-1c0.2-0.533,0.5-1.017,0.9-1.45l1.65-2.05c-0.833,0.667-1.617,1.233-2.35,1.7
	c-0.367,0.133-0.85,0.416-1.45,0.85c-0.267,0.167-0.75,0.15-1.45-0.05c-0.7-0.2-1.15-0.366-1.35-0.5
	c-0.6-0.434-1.117-0.866-1.55-1.3L15.7,57.5c-0.567-0.634-0.917-1.05-1.05-1.25c0.467,0.167,1.083,0.25,1.85,0.25
	c1.033-0.1,1.933-0.366,2.7-0.8c0.933-0.566,1.95-1.334,3.05-2.3l-2.5,0.75c-0.367,0-0.633,0.017-0.8,0.05l-1.05-0.45
	c-0.1-1.333,0.417-2.5,1.55-3.5l1.1-0.8c0-0.066-0.1-0.384-0.3-0.95L19,46.15c-0.2-0.3-0.383-0.683-0.55-1.15
	c0.667,0.3,1.7,0.683,3.1,1.15l2.7,0.75c-0.467-0.2-0.883-0.45-1.25-0.75l-0.5-0.4c-1.167-1.167-2-2.033-2.5-2.6l3.5-0.25
	c-1.1-0.367-2.017-1.083-2.75-2.15c-0.9-1.433-1.4-2.933-1.5-4.5c2,0.5,3.75,1.083,5.25,1.75c-0.967-0.767-1.633-1.667-2-2.7
	c-0.5-1.233-0.75-2.583-0.75-4.05c1.767,0,3.317,0.517,4.65,1.55l1.1,1l0.4-2.4c2.167,0.767,4.033,1.934,5.6,3.5
	c-1.167-1.467-1.683-3.183-1.55-5.15l0.05-0.8L34.55,30c-0.667-2.033-0.5-3.967,0.5-5.8c1.867,0.8,3.367,2.05,4.5,3.75
	c-0.3-1-0.316-2-0.05-3c0.067-0.4,0.167-0.717,0.3-0.95l2.1-2.95c0.8,1.667,1.167,3.467,1.1,5.4c0.433-1.9,1.1-3.717,2-5.45
	c1.167,1.533,2.05,3.217,2.65,5.05c0.1-1.566,0.684-3.017,1.75-4.35l3.6,6.8c-0.2-1.7-0.117-3.45,0.25-5.25
	c0.3-1.3,0.867-2.383,1.7-3.25c0.2-0.233,0.433-0.433,0.7-0.6l1.5,5.4c0.233-1.5,1.1-2.417,2.6-2.75l1,0.25v-0.25
	c0.4-1.466,1.217-2.716,2.45-3.75c0.533-0.433,1.117-0.816,1.75-1.15c0.333,1.2,0.283,2.317-0.15,3.35
	c0.967-1.267,2.184-2.017,3.65-2.25l0.2-0.05l0.4,0.85L70,19.5c0.567,0.3,0.9,0.55,1,0.75v1.05c0.233,0.233,0.15,0.35-0.25,0.35
	c-1.867-0.233-3.117-0.566-3.75-1c-0.633,0-1.333,0.083-2.1,0.25c-1.233,0.233-2.467,0.684-3.7,1.35l4.1,3.3l-4.25,1.95
	c0.467,0.733,0.917,1.317,1.35,1.75l0.85,0.8c1.667,1.267,3.667,1.717,6,1.35l-1.75,1.1h3.7l-0.05-0.05l3.5-0.25
	c-1.167-0.467-2.066-1.184-2.7-2.15c-0.934-1.333-1.45-2.833-1.55-4.5l5.3,1.7c-0.6-0.4-1.117-0.933-1.55-1.6
	c-0.3-0.5-0.467-0.833-0.5-1c-0.467-1.167-0.7-2.5-0.7-4V20.5c1.833,0.067,3.35,0.617,4.55,1.65c0.4,0.267,0.8,0.6,1.2,1L79,20.7
	c2.167,0.767,4.066,1.933,5.7,3.5c-1.2-1.5-1.75-3.217-1.65-5.15l0.15-0.8l2.55,1.05c-0.667-1.933-0.5-3.867,0.5-5.8
	c1.8,0.8,3.3,2.05,4.5,3.75c-0.366-0.967-0.4-1.967-0.1-3c0.066-0.4,0.183-0.733,0.35-1l2-2.85c0.8,1.667,1.2,3.45,1.2,5.35
	c0.399-1.933,1.05-3.75,1.95-5.45c1.233,1.7,2.1,3.4,2.6,5.1c0.134-1.6,0.717-3.066,1.75-4.4l3.65,6.75
	c-0.2-1.767-0.101-3.5,0.3-5.2c0.233-1.2,0.767-2.3,1.6-3.3l0.7-0.55l1.5,5.45c0.3-1.533,1.2-2.45,2.7-2.75
	c0.399,0.067,0.717,0.15,0.95,0.25c0.3-1.566,1.1-2.9,2.399-4c0.5-0.4,1.084-0.8,1.75-1.2c0.367,1.167,0.351,2.267-0.05,3.3
	c0.9-1.2,2.083-1.95,3.55-2.25c0.134-0.9,0.05-1.817-0.25-2.75c-0.133-0.433-0.3-0.85-0.5-1.25c0.233,0.433,0.417,0.85,0.55,1.25
	c0.301,0.9,0.4,1.817,0.301,2.75l0.899-0.1v0.05l0.2-0.05v0.1c0,0.467-0.15,1.017-0.45,1.65c-0.133,0.333-0.35,0.8-0.649,1.4
	l-0.15,0.15l-0.45,2.8c1.533-0.9,3-1.583,4.4-2.05L123.3,13c-0.033,1.133-0.366,2.133-1,3l1.101-0.1
	c0.767-0.133,1.449-0.517,2.05-1.15L127.5,13v0.9c-0.033,0.567-0.134,1.117-0.3,1.65l-0.3,0.9c0.066-0.067,0.25-0.267,0.55-0.6
	c1.2-1.2,2.633-2.017,4.3-2.45l2-0.4l-1.5,2c-0.4,0.5-0.75,1.05-1.05,1.65c-0.233,0.367-0.5,0.9-0.8,1.6l-0.101,0.4l0.2-0.15
	l2.3-1.1c0.733-0.4,1.45-0.683,2.15-0.85l0.3,0.1L135,17.2c-0.2,0.433-0.366,0.917-0.5,1.45l-0.1,0.45
	c-0.101,0.433-0.184,0.883-0.25,1.35L134,21.7l3.5-0.15l-3.25,3.25c1.066,0.467,1.917,1.1,2.55,1.9l1,1.05L138,28
	c0.5,0.5,0.75,1.083,0.75,1.75c-0.5,0.2-1.333,0.183-2.5-0.05c-1.467,0-2.9,0.283-4.3,0.85c0.767,0.733,1.767,1.1,3,1.1l1.1-0.15
	l-0.149,0.7c1.666-0.067,2.783,0.05,3.35,0.35c0.3,0.133,0.7,0.434,1.2,0.9l0.05,0.05v0.25c0,0.5-0.566,1.433-1.7,2.8
	c-0.366,0.5-0.883,1.133-1.55,1.9c3.5-0.133,6.066,0.2,7.7,1c0.733,0.333,1.383,0.867,1.95,1.6L147.05,41
	c0.066,0.067,0.066,0.15,0,0.25l0.2,0.25l-0.2,0.15l-0.1-0.15c-0.3,0.433-1.033,0.933-2.2,1.5l-4.6,1.9
	c1.333,0.3,2.216,0.6,2.649,0.9c0.467,0.367,0.7,0.85,0.7,1.45c0,1.6-1.583,2.783-4.75,3.55V51c3.833,1.767,5.75,3.65,5.75,5.65
	c0,0.399-0.083,0.6-0.25,0.6l-6-0.2c1,0.533,1.684,1,2.05,1.4c0.467,0.467,0.7,1.066,0.7,1.8c0,0.6-0.75,1.116-2.25,1.55
	c-1.467,0.467-2.8,0.7-4,0.7l-2.85-0.05c3.233,1.267,4.85,2.6,4.85,4v0.35l-0.2,0.101h-0.3l-0.05,0.05l0.05,0.05l-1,0.5h-4.3l1,0.9
	c0.7,0.666,1.05,1.216,1.05,1.649c0,0.4-0.066,0.517-0.2,0.351c-1.166,0-2-0.034-2.5-0.101H127c0.333,0.167,0.733,0.717,1.2,1.65
	c0.366,0.733,0.55,1.3,0.55,1.7l-0.1,0.85c-3.067-0.134-5.95-0.2-8.65-0.2c0.3,0.3,0.717,1,1.25,2.101c-0.1,0.233-0.434,0.35-1,0.35
	c-0.866,0-2.434-0.333-4.7-1c-2.1-0.667-3.533-1-4.3-1l0.75,1.5c0.167,0.4,0.25,0.816,0.25,1.25l-0.1,0.9
	c-0.2,0.066-0.483,0.1-0.851,0.1c-2.467,0-4.35-0.233-5.649-0.7L103,76.4c0,1.899-0.167,3.483-0.5,4.75
	c-3.366-2.267-5.366-4.134-6-5.601c0,0.934,0.05,1.9,0.15,2.9c-0.034,1.3-0.367,1.95-1,1.95c-2.167,0-3.817-0.917-4.95-2.75
	c-0.934-2.267-1.533-3.65-1.8-4.15L88.4,78l-0.15,0.15H88.2c-0.9-0.801-1.55-1.934-1.95-3.4c-0.167-1.134-0.417-2.366-0.75-3.7V67.7
	c-0.134-0.634-0.134-1.283,0-1.95v-1.1l-0.25-0.25l-2,2.25c-0.2-0.134-0.483-0.717-0.85-1.75c-0.467-1.167-0.667-1.884-0.601-2.15
	c0.167-0.866,0.467-1.717,0.9-2.55c0.566-1.2,1.166-2.351,1.8-3.45c-0.9,0.934-1.917,1.85-3.05,2.75l-3.75,1.65l-0.15-0.65
	c-2.333,1.5-5.767,2.25-10.3,2.25h-2l-0.2,0.2c-0.9,1.333-2.117,1.833-3.65,1.5l-0.05,0.05h0.05l2.35,1.05
	c0.667,0.334,1.3,0.55,1.9,0.65c0.233,0.066,0.583,0.1,1.05,0.1L65,67.95c-0.4,0.3-0.867,0.5-1.4,0.6c-0.7,0.2-1.483,0.2-2.35,0
	c1.167,0.566,2.233,1.15,3.2,1.75l0.35,0.25l0.7-0.25c2.2-0.566,3.533-0.85,4-0.85l0.75,0.05c0.133,0,0.3,0.15,0.5,0.45
	c-0.2,0-0.4,0.083-0.6,0.25c-0.7,0.3-1.683,1.083-2.95,2.35c-0.8,0.8-1.534,1.3-2.2,1.5l-0.05,0.05L64.5,74.2l-0.1,0.05l0.05-0.1
	H64.4l-0.15,0.1l-0.5,0.45c-0.633,0.633-1.05,1.3-1.25,2c-0.167,0.399-0.25,0.767-0.25,1.1l-0.6-1.1l-0.1-0.101l-0.1-0.199
	c-0.467-0.834-0.7-1.45-0.7-1.851c0-0.366,0.15-0.899,0.45-1.6l0.7-1.55C60.567,72,59.517,72.3,58.75,72.3h-0.6
	c-0.867,0-1.583-0.1-2.15-0.3l-0.1,0.9L53.05,69.8L55,69.45h0.25l1,0.1l-0.1,1.65L57.5,70l1.75-2.05l0.2-0.2l-0.4,0.2
	c-0.633,0.366-1.316,0.6-2.05,0.7l-0.45,0.05L55,68.45c-0.5-0.167-0.867-0.316-1.1-0.45h-0.1l-1.3,1.3l-0.75,1l0.15-0.1L53,69.85
	v0.101c0.367,1.1,0.517,2.217,0.45,3.35c-0.367,0-0.684-0.017-0.95-0.05l-1.35-0.2l2.1,1.851c-0.1,0.566-0.25,1.1-0.45,1.6
	c-0.066,0.3-0.267,0.767-0.6,1.4c-1.133-1.467-1.95-3.167-2.45-5.101L49.5,71.15l0.45-1c0.5-1.301,0.733-2.584,0.7-3.851l-2.4,2.7
	l-0.85,0.75l-0.6-1.8c-0.2-0.9-0.316-1.617-0.35-2.15l-1.25,3.65c0.133,2.633,0.9,4.717,2.3,6.25c-0.2,2.333-0.533,4.333-1,6
	l-2.45-5.25c-0.433-1.267-0.7-2.15-0.8-2.65l-2.7,6.65c-1.533-0.834-1.8-2.816-0.8-5.95c0.433-0.533,0.767-1.066,1-1.6
	c0.4-0.567,0.667-1.2,0.8-1.9c0.167-0.566,0.2-1.15,0.1-1.75c-0.267-1.267-0.5-2.217-0.7-2.85L38.9,69l-0.6-2.25l2.1-5.25
	c-0.7,0.434-1.333,0.917-1.9,1.45c-0.967,0.7-1.817,1.533-2.55,2.5c-0.534,0.6-0.934,1.333-1.2,2.2c-0.067,0.5-0.067,0.883,0,1.149
	L37,67.95l-0.1,0.95c0,0.8,0.05,1.6,0.15,2.399L38.4,76z M36.75,55.65l-0.2-0.15l-0.3,0.25L36,55.5c-2.033-0.934-3.8-0.583-5.3,1.05
	c-1.133,1.267-1.7,2.3-1.7,3.101v0.1c0,0.267,0.083,0.316,0.25,0.15V59.8c0.4,0.134,1.4,0.2,3,0.2c0.933,0,1.933-0.566,3-1.7
	c1-0.934,1.5-1.684,1.5-2.25V55.65z M8.9,53.4c-0.566-0.367-0.983-0.75-1.25-1.15l-2.25-2.5c1.667-0.033,3.217-0.35,4.65-0.95
	c0.934-0.333,1.85-0.767,2.75-1.3c1.8-0.033,3.6-0.283,5.4-0.75c-2.833,1.167-4.883,3.083-6.15,5.75
	C10.917,52.667,9.867,52.967,8.9,53.4z M6.95,83.05L6.35,83c-0.033,0-0.083,0-0.15,0c-0.267-0.033-0.5-0.066-0.7-0.1l-0.6-0.2
	c-0.333-0.101-0.583-0.233-0.75-0.4H4.2l-0.05-0.05c0.2,0,0.483-0.116,0.85-0.35c0.3-0.233,0.683-0.567,1.15-1l0.15-0.2l1.85-2.05
	l0.1-0.2c-0.167,0.1-0.267,0.166-0.3,0.2c-0.9,0.5-1.733,0.75-2.5,0.75c-0.467,0-0.983-0.084-1.55-0.25L2.75,78.7h-0.1L1.4,78.3
	c-0.066-0.033-0.283-0.05-0.65-0.05c0.033-0.134,0.067-0.233,0.1-0.3c-0.033-0.033-0.067-0.05-0.1-0.05L0.9,77.8
	c0.033-0.1,0.1-0.166,0.2-0.2c0.033,0,0.066,0,0.1,0L1.4,77.4c0.633-0.534,1.434-1.101,2.4-1.7h0.05l0.05-0.05l0.75-0.45
	C5.783,74.533,7,73.967,8.3,73.5l0.6-2.25c-0.533,0.267-0.933,0.5-1.2,0.7c-0.5,0.233-1.65,0.416-3.45,0.55
	c0.6-0.434,1.017-1.033,1.25-1.8l0.15-0.45H5.7l0.55-1.55c0.2-0.367,0.883-0.7,2.05-1c0.333-0.101,0.717-0.184,1.15-0.25
	c-1.633-0.434-2.733-0.617-3.3-0.55c-0.9,0.166-1.65,0.433-2.25,0.8c-0.233,0.1-0.45,0.217-0.65,0.35
	c-0.4,0.267-0.767,0.584-1.1,0.95c0.133-0.467,0-1.467-0.4-3v-0.05L2.1,65c0.267-0.5,0.717-0.95,1.35-1.35L3.9,63.3l-0.1-0.05h0.15
	c0.066,0,0.55-0.05,1.45-0.15C6.067,63.033,6.717,63,7.35,63c-0.367-0.134-0.733-0.267-1.1-0.4L6.2,62.55
	c-0.067,0-0.117-0.017-0.15-0.05l-2.9-1.75H3.9c1.067-0.3,2.2-0.8,3.4-1.5c0.934-0.467,1.967-1.066,3.1-1.8
	c1.8,0.6,3.684,0.783,5.65,0.55c-2.566,0.4-4.65,1.65-6.25,3.75c2.667-0.8,5.467-0.5,8.4,0.9l3.05,2.6
	c-0.433-0.167-1.183-0.4-2.25-0.7c-3.333-0.8-5.95-0.6-7.85,0.601c-0.167,0.066-0.3,0.166-0.4,0.3v0.05h0.05
	c1.434,1.233,2.75,1.816,3.95,1.75c1.433-0.066,2.783-0.3,4.05-0.7l-0.5,0.2c-2.433,1.066-5.316,1.816-8.65,2.25
	c2.233,1.934,4.75,3.2,7.55,3.8c-1.6-0.3-2.684-0.017-3.25,0.851c-1,1.433-2.333,1.899-4,1.399l2.7,1.2c1.1,0.5,2.05,0.75,2.85,0.75
	c0.1,0-0.4,0.5-1.5,1.5l-0.2,0.15c-0.9,0.699-2.15,0.899-3.75,0.6c1.467,0.667,2.684,1.333,3.65,2L14.4,81
	c2.167-0.566,3.5-0.85,4-0.85l0.65,0.05c0.167,0,0.367,0.149,0.6,0.45c-0.233,0-0.45,0.083-0.65,0.25
	c-0.633,0.267-1.633,1.05-3,2.35c-0.967,1-1.883,1.566-2.75,1.7l-0.6,0.45c-0.633,0.6-1.083,1.267-1.35,2
	c-0.1,0.366-0.15,0.733-0.15,1.1c-0.2-0.267-0.417-0.634-0.65-1.1l-0.25-0.351c-0.4-0.733-0.6-1.333-0.6-1.8
	c0-0.533,0.283-1.467,0.85-2.8l0.25-0.4l-0.35,0.2C9.267,82.75,8.35,83,7.65,83H7L6.95,83.05z M12.95,87.8H13
	c-0.067,0.3-0.1,0.617-0.1,0.95l0.05,1.8c0.033,0.367,0.216,0.917,0.55,1.65c-0.033,0.033-0.067,0.05-0.1,0.05
	c-0.433-0.866-0.65-1.434-0.65-1.7v-1.8l0.15-0.95H12.95z M4.7,90.4c-0.267-0.101-0.417-0.15-0.45-0.15
	c0.333,0,0.583-0.05,0.75-0.15c0.333-0.233,0.6-0.416,0.8-0.55c-0.333,0.334-0.6,0.566-0.8,0.7L4.7,90.4z M8,87.2
	c-0.3-0.066-0.583-0.066-0.85,0c-0.667-0.033-1.167-0.05-1.5-0.05L7.15,87l1.05-0.25h0.2L8,87.2z M20.7,86.75l-0.9,0.65
	c-0.1-1.733-0.1-2.983,0-3.75l0.05-0.301l0.05-0.05c0.167-0.7,0.417-1.366,0.75-2C21.217,80.2,22,79.316,23,78.65
	c0.2-0.134,0.517,0.566,0.95,2.1c0.2,0.6,0.133,1.4-0.2,2.4c-0.267,1.033-0.767,1.816-1.5,2.35C21.95,85.8,21.433,86.217,20.7,86.75
	z M74.1,90.7l0.35-0.45l1.1-2.15l-1.05,2.15C74.467,90.283,74.333,90.434,74.1,90.7z M64.05,87.3L64,86.65V86.4L64.05,87.3z
	 M68.25,91.7c-0.096-0.017-0.196-0.033-0.3-0.05c-0.133-0.034-0.25-0.067-0.35-0.101c0.133,0.033,0.267,0.066,0.4,0.101
	C68.083,91.667,68.167,91.684,68.25,91.7z M57.15,93.5H57.1c0.2-0.634,0.383-1.717,0.55-3.25l0.1-4.15l0.05-0.149l-0.1,4.3
	C57.567,91.517,57.383,92.6,57.15,93.5z M52.45,94.3H52.4c-0.566-0.6-1.033-1.25-1.4-1.95C51.4,93.017,51.883,93.667,52.45,94.3z
	 M46.75,92.1L46.7,92.15l-1.3-1.9c-1-1.434-1.733-2.25-2.2-2.45l0.05-0.05c0.333,0,1.083,0.833,2.25,2.5L46.75,92.1z M140.5,82.75
	c0.767-0.833,1.767-2.283,3-4.35l1.1-2V76.35l0.051-0.1c0.033,0.467,0.133,0.967,0.3,1.5L145,78l-0.25-0.25
	c-0.063-0.571-0.113-1.021-0.15-1.35l-0.149,0.55c-0.2,0.3-0.351,0.533-0.45,0.7c-0.167,0.267-0.25,0.517-0.25,0.75
	c-0.6,1.233-1.634,2.683-3.1,4.35H140.5z M146.55,80.75c0.167,0.5,0.566,0.75,1.2,0.75c0.3,0,0.566-0.2,0.8-0.6h0.25
	c0.066,0.233,0.066,0.35,0,0.35h-0.25c-0.333,0.267-0.6,0.4-0.8,0.4C147.116,81.65,146.717,81.35,146.55,80.75z M150.65,75.35
	l-0.95-0.55v-0.05L150.65,75.35z M155.3,78.15V78.1V78C155.366,78.066,155.366,78.116,155.3,78.15h0.25
	c0.117-0.204,0.184-0.488,0.2-0.851c-0.01,0.634-0.076,0.95-0.2,0.95h-0.25V78.15z M155.25,78.15h-0.05l-0.45-0.4l0.4,0.3
	L155.25,78.15z M153.8,71.4l-0.1-0.051l-0.3-0.1l0.3,0.05L153.8,71.4z M150.25,48.45V48.3l1.5,1.351c0.7,0.533,1.283,0.866,1.75,1
	h-0.05c-0.566-0.134-1.217-0.467-1.95-1c-0.366-0.434-0.634-0.717-0.8-0.851C150.566,48.667,150.417,48.55,150.25,48.45z
	 M154.7,42.55l-0.15-0.25l-0.05-0.05c-0.1-0.1-0.2-0.217-0.3-0.35c0.2,0.133,0.383,0.25,0.55,0.35l-0.1,0.05
	C154.684,42.367,154.7,42.45,154.7,42.55z M153.5,39.35c-0.042,0.277-0.125,0.494-0.25,0.65c-0.3,0.3-0.6,0.467-0.9,0.5
	c0.233,0.133,0.5,0.333,0.801,0.6c-0.267-0.2-0.567-0.4-0.9-0.6c0.366-0.033,0.684-0.2,0.95-0.5
	C153.355,39.814,153.455,39.597,153.5,39.35z M145.75,35.25h0.9c0.233,0,0.517,0.05,0.85,0.15c0.2,0.067,0.483,0.167,0.85,0.3
	l0.051,0.1l-0.101-0.05l-1.649-0.35h-0.2L145.75,35.25z M112,54.25c0.333-0.533,0.434-0.866,0.3-1c-0.967,0.566-1.55,1.333-1.75,2.3
	l-0.05,6c0.2,1.367,0.616,2.267,1.25,2.7c1.533-1.366,2.434-2.35,2.7-2.95c0.2-0.333,0.3-1.217,0.3-2.649
	c0-1.167-0.066-1.867-0.2-2.101C114.25,55.917,113.4,55.15,112,54.25z M102.75,45.95l-0.05-0.2h0.05l-0.05-0.05
	c0-0.1-0.05-0.233-0.15-0.4L102.3,45l-0.5,0.55c-1,0.567-2.133,2.05-3.399,4.45l-0.9,1.7C96,54,95.25,55.434,95.25,56
	c0,0.4,0.083,0.533,0.25,0.4c2.1,0.5,3.934-0.967,5.5-4.4c1.167-2.634,1.75-4.633,1.75-6V45.95z M116.75,28.75
	c-0.167,0.833-0.25,1.833-0.25,3c0,0.967,0.333,1.633,1,2c0.066-1.933,0.083-4.283,0.05-7.05
	C117.217,27.067,116.95,27.75,116.75,28.75z M94.75,48.3v-0.4l-0.2-0.15h-0.3c-0.3-0.2-1.25,0.2-2.85,1.2
	c-1.733,0.967-2.617,1.733-2.65,2.3L89,51.4l-0.5,0.1c0.066,0.167,1.066,0.25,3,0.25c1.167,0,2.017-0.5,2.55-1.5
	C94.517,49.517,94.75,48.866,94.75,48.3z M99.75,27.5l-1.85-1.35c-2.034-0.867-4.334-1-6.9-0.4c-0.267-0.067-0.616-0.1-1.05-0.1
	c-0.167,0-0.25,0.083-0.25,0.25l0.1,0.1l-0.35,0.15c0.033,0.067,0.2,0.15,0.5,0.25h0.35l3.4,2.1l-8.25,0.15
	c-0.101,0-0.167-0.033-0.2-0.1c-0.033,0-0.05,0.133-0.05,0.4c0,0.367,0.45,0.7,1.35,1l4,0.95l-0.75,0.35
	c-1.333,0.5-2.55,1.4-3.649,2.7c-0.967,1.066-1.45,1.983-1.45,2.75c0,0.333,0.017,0.433,0.05,0.3c0.267,0,1.017-0.333,2.25-1
	c1.134-0.533,1.95-0.867,2.45-1h0.25l-0.25,0.15c-1.834,1.133-2.75,3.317-2.75,6.55c0,0.533,0.083,0.883,0.25,1.05l2.6-2.85
	c1.367-1.4,2.334-2.283,2.9-2.65l0.05,2.65c0,0.733,0.066,1.434,0.2,2.1c2.666-2.567,4-4.25,4-5.05l-0.05-0.4l-0.15,0.1l-0.7-0.15
	l1.4-1.15l-2.65-0.85c-0.033,0.133-0.05,0.017-0.05-0.35c0-0.433,0.333-0.65,1-0.65v-0.25c0.667-0.033,1.5,0.067,2.5,0.3l0.9,0.25
	l0.05-0.5c0-0.433-0.334-0.783-1-1.05l6.25-0.1c0.066-0.066,0.149-0.1,0.25-0.1c0.066,0,0.1-0.133,0.1-0.4
	c0-0.767-1.083-1.65-3.25-2.65v-0.15c-0.399-0.267-0.75-0.55-1.05-0.85c-0.233-0.133-0.4-0.283-0.5-0.45V27.5z M103.5,21.75
	c-0.033-0.2-0.1-0.35-0.2-0.45c-0.366,0.167-0.55,0.417-0.55,0.75c0,0.167,0.316,1.15,0.95,2.95c0.6,1.1,1.416,1.867,2.45,2.3
	l0.05,0.05c0.767,0.3,1.616,0.45,2.55,0.45c0.366,0,0.45-0.1,0.25-0.3v-2.45c-0.267-0.566-0.6-1.083-1-1.55
	c-0.733-0.7-2.017-1.117-3.85-1.25C103.917,22.15,103.7,21.983,103.5,21.75z M113.55,6.8c0,0.034-0.017,0.083-0.05,0.15
	c0.023-0.208,0.048-0.408,0.075-0.6C113.559,6.5,113.55,6.651,113.55,6.8z M113.25,3.05c0.134,0.534,0.233,1.1,0.3,1.7
	c0,0.216,0.009,0.441,0.025,0.675c-0.023-0.233-0.048-0.458-0.075-0.675C113.434,4.183,113.35,3.617,113.25,3.05z M96.75,53.65
	c-0.167,0.466-0.25,0.916-0.25,1.35v0.4l-0.7,0.25L96.75,53.65z M108.35,51.75l0.2-0.25l-0.35,0.25H108l-0.05,0.15
	c-1.8,1.3-3.351,2.833-4.65,4.6c-1.2,1.733-2.116,3.566-2.75,5.5h-0.05v0.3l0.05,0.2v0.05c0.066,0.066,0.217,0.101,0.45,0.101
	c3.3,0,5.533-1.384,6.7-4.15c0.533-1.5,0.8-3.417,0.8-5.75C108.5,52.384,108.45,52.05,108.35,51.75z M67.5,38.75l0.45-0.3
	c-1.367,0.3-2.2,0.7-2.5,1.2l-0.05,0.4c-0.767,0.633-1.15,1.184-1.15,1.65v0.25l-0.5,0.3c0,0.067,1,0.15,3,0.25l2.9,0.05
	c-0.6,0.5-1.316,1.233-2.15,2.2c-1.167,1.267-1.75,2.017-1.75,2.25v0.5L66,47.65l3.5,0.1l4.25-0.95C76.583,46,78,45.133,78,44.2
	c0-0.267-0.1-0.434-0.3-0.5c-0.4-0.267-1.217-0.467-2.45-0.6L75,43.05L75.25,43c0.1-0.167,1.517-0.5,4.25-1l-0.1-0.45
	c-0.367-0.333-0.95-0.733-1.75-1.2c-1-2.733-3.5-3.55-7.5-2.45c-0.733,0.167-1.45,0.4-2.15,0.7l-0.1,0.05L67.5,38.75z M41.7,48.95
	L41.55,49l-0.15-0.05l0.1-0.15l-0.2-0.3c-0.867-1.067-2.533-1.267-5-0.6c-1.6,0.367-2.783,0.817-3.55,1.35h-0.2
	c-0.2,0.366-0.3,0.7-0.3,1l1.3,0.55c0.967,0.3,2.217,0.45,3.75,0.45c1.5,0,2.65-0.25,3.45-0.75c0.667-0.366,1-0.783,1-1.25
	L41.7,48.95z M47,33l0.3,3.05L41,35.5h-1.95c0,0.033-0.017,0.033-0.05,0v0.4c0,0.4,0.083,0.517,0.25,0.35l2.75,1.5
	c-1.067,0.4-2.633,1.067-4.7,2c-2.533,1.233-3.8,2.067-3.8,2.5s0.017,0.65,0.05,0.65c2.034,0.133,3.767,0.333,5.2,0.6l8.3-0.1
	c0.133-0.267,0.2-0.566,0.2-0.9c0-0.233-0.083-0.683-0.25-1.35l4.5,0.6c0.333,0,0.633-0.033,0.9-0.1c0.1-0.7,0.05-1.316-0.15-1.85
	L53,40.15c0.5,0.167,0.833,0.25,1,0.25c0.4,0,0.65-0.083,0.75-0.25v-1.9c-0.5-0.867-1.583-1.883-3.25-3.05
	C49.767,33.933,48.267,33.2,47,33z M69.75,19.9V20c0,0.1,0.167,0.367,0.5,0.8l0.25-0.05L69.75,19.9z M64.75,41.9H64.7l0.05-0.15
	V41.9z M75.9,38.75l-1.45-0.5L74.5,38C75.067,38.167,75.533,38.417,75.9,38.75z M34.15,42.15l-0.05,0.2L34,42.3L34.15,42.15z
	 M1.2,80.775L1.4,80.7c1.2-0.334,2.033-0.517,2.5-0.55h0.25c0.367,0,0.95,0.116,1.75,0.35l0.4,0.2l-0.4-0.15
	c-0.667-0.2-1.25-0.3-1.75-0.3H3.9c-0.433,0-1.267,0.167-2.5,0.5C1.32,80.75,1.253,80.759,1.2,80.775z M0.65,81l0.1-0.1l-0.1,0.149
	V81z M71,72.65l0.75-2c0.367-0.7,0.833-1.334,1.4-1.9c0.4-0.4,0.733-0.667,1-0.8c0.133-0.134,0.383,0.35,0.75,1.45l0.15,0.6
	c0.2,0.733,0.167,1.55-0.1,2.45c-0.3,1.033-0.8,1.816-1.5,2.35c-0.534,0.5-1.083,0.917-1.65,1.25L71,76.7
	C70.833,74.667,70.833,73.316,71,72.65z"/>
<path style="fill-rule:evenodd;clip-rule:evenodd;fill:#899772;" d="M125.45,14.75c-0.601,0.633-1.283,1.017-2.05,1.15L122.3,16
	c0.634-0.867,0.967-1.867,1-3l0.15-1.55c-1.4,0.466-2.867,1.15-4.4,2.05l0.45-2.8l0.15-0.15l4.149-4.6
	c0.167,0.6,0.25,1.117,0.25,1.55c0.101,1.167-0.166,2-0.8,2.5L124,9.95C126.934,9.917,127.417,11.517,125.45,14.75z M36.75,55.65
	v0.399c0,0.566-0.5,1.316-1.5,2.25c-1.067,1.134-2.067,1.7-3,1.7c-1.6,0-2.6-0.066-3-0.2V59.9C29.083,60.066,29,60.017,29,59.75
	v-0.1c0-0.801,0.567-1.834,1.7-3.101c1.5-1.633,3.267-1.983,5.3-1.05l0.25,0.25l0.3-0.25L36.75,55.65z M38.4,76l-1.35-4.7
	c-0.1-0.8-0.15-1.6-0.15-2.399l0.1-0.95l-2.25,0.85c-0.067-0.267-0.067-0.649,0-1.149c0.267-0.867,0.667-1.601,1.2-2.2
	c0.733-0.967,1.583-1.8,2.55-2.5c0.567-0.533,1.2-1.017,1.9-1.45l-2.1,5.25L38.9,69l2.05-2.6c0.2,0.633,0.433,1.583,0.7,2.85
	c0.1,0.6,0.067,1.184-0.1,1.75c-0.133,0.7-0.4,1.333-0.8,1.9c-0.233,0.533-0.567,1.066-1,1.6L38.4,76z M113.55,6.8
	c0.233-0.733,0.55-1.417,0.95-2.05c0.467-0.7,1.083-1.283,1.85-1.75l0.7-0.4c0.3-0.133,0.601-0.25,0.9-0.35l0.3,0.45
	c0.167,0.2,0.316,0.417,0.45,0.65l0.1,0.15c0.2,0.4,0.367,0.817,0.5,1.25c0.3,0.933,0.384,1.85,0.25,2.75
	c-1.467,0.3-2.649,1.05-3.55,2.25c0.4-1.033,0.417-2.133,0.05-3.3c-0.666,0.4-1.25,0.8-1.75,1.2c-1.3,1.1-2.1,2.434-2.399,4
	c-0.233-0.1-0.551-0.183-0.95-0.25c-1.5,0.3-2.4,1.217-2.7,2.75l-1.5-5.45l-0.7,0.55c-0.833,1-1.366,2.1-1.6,3.3
	c-0.4,1.7-0.5,3.434-0.3,5.2L100.5,11c-1.033,1.333-1.616,2.8-1.75,4.4c-0.5-1.7-1.366-3.4-2.6-5.1c-0.9,1.7-1.551,3.517-1.95,5.45
	c0-1.9-0.4-3.683-1.2-5.35l-2,2.85c-0.167,0.267-0.283,0.6-0.35,1c-0.301,1.033-0.267,2.033,0.1,3c-1.2-1.7-2.7-2.95-4.5-3.75
	c-1,1.933-1.167,3.867-0.5,5.8l-2.55-1.05l-0.15,0.8c-0.1,1.934,0.45,3.65,1.65,5.15c-1.634-1.567-3.533-2.733-5.7-3.5l-0.3,2.45
	c-0.4-0.4-0.8-0.733-1.2-1c-1.2-1.033-2.717-1.583-4.55-1.65v0.15c0,1.5,0.233,2.833,0.7,4c0.033,0.167,0.2,0.5,0.5,1
	c0.434,0.667,0.95,1.2,1.55,1.6l-5.3-1.7c0.1,1.667,0.617,3.167,1.55,4.5c0.633,0.967,1.533,1.684,2.7,2.15l-3.5,0.25l0.05,0.05
	h-3.7l1.75-1.1c-2.333,0.367-4.333-0.083-6-1.35l-0.85-0.8c-0.433-0.433-0.883-1.017-1.35-1.75l4.25-1.95l-4.1-3.3
	c1.233-0.667,2.466-1.117,3.7-1.35c0.767-0.167,1.467-0.25,2.1-0.25c0.633,0.434,1.883,0.767,3.75,1c0.4,0,0.483-0.117,0.25-0.35
	v-1.05c-0.1-0.2-0.433-0.45-1-0.75l-0.95-0.45l-0.4-0.85c-0.1-0.4-0.15-0.617-0.15-0.65l-0.05,0.7
	c-1.467,0.233-2.684,0.983-3.65,2.25c0.434-1.033,0.483-2.15,0.15-3.35c-0.633,0.333-1.217,0.717-1.75,1.15
	c-1.233,1.034-2.05,2.284-2.45,3.75v0.25l-1-0.25c-1.5,0.333-2.367,1.25-2.6,2.75l-1.5-5.4c-0.267,0.167-0.5,0.367-0.7,0.6
	c-0.833,0.867-1.4,1.95-1.7,3.25c-0.367,1.8-0.45,3.55-0.25,5.25l-3.6-6.8c-1.066,1.333-1.65,2.783-1.75,4.35
	c-0.6-1.833-1.483-3.517-2.65-5.05c-0.9,1.733-1.567,3.55-2,5.45c0.067-1.934-0.3-3.733-1.1-5.4L39.8,24
	c-0.133,0.233-0.233,0.55-0.3,0.95c-0.267,1-0.25,2,0.05,3c-1.133-1.7-2.633-2.95-4.5-3.75c-1,1.833-1.167,3.767-0.5,5.8L32,28.95
	l-0.05,0.8c-0.133,1.967,0.383,3.683,1.55,5.15c-1.567-1.566-3.433-2.733-5.6-3.5l-0.4,2.4l-1.1-1
	c-1.333-1.033-2.883-1.55-4.65-1.55c0,1.467,0.25,2.817,0.75,4.05c0.367,1.034,1.033,1.934,2,2.7c-1.5-0.667-3.25-1.25-5.25-1.75
	c0.1,1.567,0.6,3.067,1.5,4.5c0.733,1.067,1.65,1.783,2.75,2.15L20,43.15c0.5,0.567,1.333,1.434,2.5,2.6l0.5,0.4
	c0.367,0.3,0.783,0.55,1.25,0.75l-2.7-0.75c-1.4-0.467-2.433-0.85-3.1-1.15c0.167,0.467,0.35,0.85,0.55,1.15l1.25,2.35
	c0.2,0.566,0.3,0.884,0.3,0.95l-1.1,0.8c-1.133,1-1.65,2.167-1.55,3.5c-3.367,1.2-5.433,1.767-6.2,1.7l0.35-2.95
	c1.267-2.667,3.317-4.583,6.15-5.75c-1.8,0.467-3.6,0.717-5.4,0.75c-0.767,0.067-1.9,0.067-3.4,0l8.75-5.45
	c-2.367,0.4-4.367-0.033-6-1.3c-0.233-0.133-0.533-0.383-0.9-0.75c-0.5-0.5-0.933-1.083-1.3-1.75l4.25-2l-4.2-3.3
	c3.033-1.633,6.267-2.017,9.7-1.15c-1.233-0.867-2.05-2.083-2.45-3.65c3.867-1.333,7.733-1.4,11.6-0.2l0.6,0.2L28.9,27.8
	c-2.333-1.8-3.55-4.25-3.65-7.35c4.133-0.034,8.217,0.7,12.25,2.2c-0.967-1.433-1.55-2.9-1.75-4.4c-0.133-0.933-0.133-1.85,0-2.75
	L36,14.05l8.5,4.6l-0.05-0.4c-0.267-0.867-0.483-1.783-0.65-2.75c-0.2-1.633-0.233-3.217-0.1-4.75c2.466,1.167,4.55,2.75,6.25,4.75
	c0.433,0.467,1.083,1.383,1.95,2.75l0.35,0.7l0.9-4.2c0.167,0.167,0.333,0.267,0.5,0.3l0.6,0.45c0.967,0.667,1.767,1.583,2.4,2.75
	c0.067,0.267,0.15,0.483,0.25,0.65l0.1-0.55l0.05-0.1c0.434-1.133,0.817-2.05,1.15-2.75c0.7-1.633,1.633-3.15,2.8-4.55
	c0.733,1.4,1.2,2.917,1.4,4.55c0.067,0.7,0.067,1.417,0,2.15c0.2-0.8,0.533-1.517,1-2.15c0.8-1.2,1.917-2.05,3.35-2.55
	c0.167,0.1,0.267,0.25,0.3,0.45c0.534,0.7,0.917,1.4,1.15,2.1c0.133,0.6,0.233,1.233,0.3,1.9c3.8-1.3,7.633-1.35,11.5-0.15l0.6,0.2
	l-0.6-0.3c-2.3-1.9-3.5-4.367-3.6-7.4c4.1-0.033,8.2,0.7,12.3,2.2C87.7,10.483,87.1,9,86.9,7.5c-0.167-0.867-0.167-1.783,0-2.75
	l0.3-1.35l8.5,4.55L95.55,7.5C95.283,6.567,95.1,5.65,95,4.75C94.767,3.317,94.7,1.733,94.8,0c2.566,1.233,4.65,2.817,6.25,4.75
	c0.867,1.067,1.517,1.983,1.95,2.75l0.4,0.75l0.85-4.2l0.5,0.35l0.7,0.35c0.934,0.7,1.7,1.617,2.3,2.75L108,8.2l0.25-0.7
	c0.134-0.5,0.483-1.417,1.05-2.75c0.8-1.667,1.75-3.167,2.851-4.5c0.199,0.367,0.366,0.733,0.5,1.1l0.6,1.7
	c0.1,0.567,0.184,1.133,0.25,1.7c0.027,0.217,0.052,0.442,0.075,0.675L113.6,5.6v0.5c-0.009,0.063-0.017,0.129-0.024,0.2v0.05
	c-0.027,0.192-0.052,0.392-0.075,0.6C113.533,6.883,113.55,6.833,113.55,6.8z M103.5,21.75c0.2,0.233,0.417,0.4,0.65,0.5
	c1.833,0.133,3.116,0.55,3.85,1.25c0.4,0.467,0.733,0.983,1,1.55v2.45c0.2,0.2,0.116,0.3-0.25,0.3c-0.934,0-1.783-0.15-2.55-0.45
	l-0.05-0.05c-1.034-0.433-1.851-1.2-2.45-2.3c-0.634-1.8-0.95-2.783-0.95-2.95c0-0.333,0.184-0.583,0.55-0.75
	C103.4,21.4,103.467,21.55,103.5,21.75z M99.75,27.5v0.05c0.1,0.167,0.267,0.317,0.5,0.45c0.3,0.3,0.65,0.583,1.05,0.85V29
	c2.167,1,3.25,1.883,3.25,2.65c0,0.267-0.033,0.4-0.1,0.4c-0.101,0-0.184,0.034-0.25,0.1l-6.25,0.1c0.666,0.267,1,0.617,1,1.05
	l-0.05,0.5L98,33.55c-1-0.233-1.833-0.333-2.5-0.3v0.25c-0.667,0-1,0.217-1,0.65c0,0.367,0.017,0.483,0.05,0.35l2.65,0.85l-1.4,1.15
	l0.7,0.15l0.15-0.1l0.05,0.4c0,0.8-1.334,2.483-4,5.05c-0.134-0.667-0.2-1.367-0.2-2.1l-0.05-2.65c-0.566,0.367-1.533,1.25-2.9,2.65
	l-2.6,2.85c-0.167-0.167-0.25-0.517-0.25-1.05c0-3.233,0.916-5.417,2.75-6.55L89.7,35h-0.25c-0.5,0.133-1.316,0.467-2.45,1
	c-1.233,0.667-1.983,1-2.25,1c-0.033,0.133-0.05,0.033-0.05-0.3c0-0.767,0.483-1.684,1.45-2.75c1.1-1.3,2.316-2.2,3.649-2.7
	l0.75-0.35l-4-0.95c-0.899-0.3-1.35-0.633-1.35-1c0-0.267,0.017-0.4,0.05-0.4c0.033,0.067,0.1,0.1,0.2,0.1l8.25-0.15l-3.4-2.1h-0.35
	c-0.3-0.1-0.467-0.183-0.5-0.25L89.8,26l-0.1-0.1c0-0.167,0.083-0.25,0.25-0.25c0.434,0,0.783,0.033,1.05,0.1
	c2.566-0.6,4.866-0.467,6.9,0.4L99.75,27.5z M94.75,48.3c0,0.566-0.233,1.217-0.7,1.95c-0.533,1-1.383,1.5-2.55,1.5
	c-1.934,0-2.934-0.083-3-0.25l0.5-0.1l-0.25-0.15c0.033-0.566,0.917-1.333,2.65-2.3c1.6-1,2.55-1.4,2.85-1.2h0.3l0.2,0.15V48.3z
	 M116.75,28.75c0.2-1,0.467-1.683,0.8-2.05c0.033,2.767,0.017,5.117-0.05,7.05c-0.667-0.367-1-1.033-1-2
	C116.5,30.583,116.583,29.583,116.75,28.75z M102.75,45.95V46c0,1.367-0.583,3.366-1.75,6c-1.566,3.434-3.4,4.9-5.5,4.4
	c-0.167,0.133-0.25,0-0.25-0.4c0-0.566,0.75-2,2.25-4.3l0.9-1.7c1.267-2.4,2.399-3.883,3.399-4.45l0.5-0.55l0.25,0.3
	c0.101,0.167,0.15,0.3,0.15,0.4l0.05,0.05h-0.05L102.75,45.95z M112,54.25c1.4,0.9,2.25,1.667,2.55,2.3
	c0.134,0.233,0.2,0.934,0.2,2.101c0,1.433-0.1,2.316-0.3,2.649c-0.267,0.601-1.167,1.584-2.7,2.95c-0.634-0.434-1.05-1.333-1.25-2.7
	l0.05-6c0.2-0.967,0.783-1.733,1.75-2.3C112.434,53.384,112.333,53.717,112,54.25z M112.6,55.5c-0.233,0-0.517-0.066-0.85-0.2
	l0.8,0.5l0.15-0.3H112.6z M108.35,51.75c0.101,0.3,0.15,0.634,0.15,1c0,2.333-0.267,4.25-0.8,5.75c-1.167,2.767-3.4,4.15-6.7,4.15
	c-0.233,0-0.384-0.034-0.45-0.101V62.5l-0.05-0.2V62h0.05c0.634-1.934,1.55-3.767,2.75-5.5c1.3-1.767,2.851-3.3,4.65-4.6l0.05-0.15
	h0.2l0.35-0.25L108.35,51.75z M96.75,53.65l-0.95,2l0.7-0.25V55C96.5,54.566,96.583,54.116,96.75,53.65z M69.75,19.9l0.75,0.85
	l-0.25,0.05c-0.333-0.433-0.5-0.7-0.5-0.8V19.9z M47,33c1.267,0.2,2.767,0.933,4.5,2.2c1.667,1.167,2.75,2.183,3.25,3.05v1.9
	c-0.1,0.167-0.35,0.25-0.75,0.25c-0.167,0-0.5-0.083-1-0.25l-0.75-0.35c0.2,0.534,0.25,1.15,0.15,1.85
	c-0.267,0.067-0.566,0.1-0.9,0.1l-4.5-0.6c0.167,0.667,0.25,1.117,0.25,1.35c0,0.333-0.067,0.633-0.2,0.9l-8.3,0.1
	c-1.433-0.267-3.167-0.467-5.2-0.6c-0.033,0-0.05-0.217-0.05-0.65s1.267-1.267,3.8-2.5c2.067-0.933,3.633-1.6,4.7-2l-2.75-1.5
	C39.083,36.417,39,36.3,39,35.9v-0.4c0.033,0.033,0.05,0.033,0.05,0H41l6.3,0.55L47,33z M41.7,48.95l0.05,0.3
	c0,0.467-0.333,0.884-1,1.25c-0.8,0.5-1.95,0.75-3.45,0.75c-1.533,0-2.783-0.15-3.75-0.45l-1.3-0.55c0-0.3,0.1-0.634,0.3-1h0.2
	c0.767-0.533,1.95-0.983,3.55-1.35c2.467-0.667,4.133-0.467,5,0.6l0.2,0.3l-0.1,0.15L41.55,49L41.7,48.95z M67.5,38.75l0.4-0.1
	L68,38.6c0.7-0.3,1.417-0.533,2.15-0.7c4-1.1,6.5-0.283,7.5,2.45c0.8,0.467,1.383,0.867,1.75,1.2L79.5,42
	c-2.733,0.5-4.15,0.833-4.25,1L75,43.05l0.25,0.05c1.233,0.133,2.05,0.333,2.45,0.6c0.2,0.066,0.3,0.233,0.3,0.5
	c0,0.933-1.417,1.8-4.25,2.6l-4.25,0.95l-3.5-0.1l-0.25-0.15V47c0-0.233,0.583-0.983,1.75-2.25c0.833-0.967,1.55-1.7,2.15-2.2
	l-2.9-0.05c-2-0.1-3-0.183-3-0.25l0.5-0.3V41.7c0-0.467,0.383-1.017,1.15-1.65l0.05-0.4c0.3-0.5,1.133-0.9,2.5-1.2L67.5,38.75z
	 M64.75,41.9v-0.15L64.7,41.9H64.75z M75.9,38.75c-0.367-0.333-0.833-0.583-1.4-0.75l-0.05,0.25L75.9,38.75z M34.15,42.15L34,42.3
	l0.1,0.05L34.15,42.15z"/>
<path style="fill-rule:evenodd;clip-rule:evenodd;fill:#4F583F;" d="M145.75,35.25l0.7,0.15h0.2l1.649,0.35l0.101,0.05
	c2.166,0.567,3.416,1.05,3.75,1.45c0.899,0.567,1.35,1.2,1.35,1.9v0.2c-0.045,0.247-0.145,0.464-0.3,0.65
	c-0.267,0.3-0.584,0.467-0.95,0.5c0.333,0.2,0.634,0.4,0.9,0.6c0.399,0.267,0.75,0.533,1.05,0.8c0.1,0.133,0.2,0.25,0.3,0.35
	l0.05,0.05l0.15,0.25l0.05,0.1l-0.1,0.5l-0.351,0.1c-1.1-0.267-2.366-0.5-3.8-0.7l0.95,1.35c0.533,0.934,0.95,1.8,1.25,2.6l1.05,4
	l-0.2,0.15h-0.05c-0.467-0.134-1.05-0.467-1.75-1l-1.5-1.351v0.15v2.95l3.05,0.1l0.3,0.25h0.051l6.1,4.4l-0.25,0.35
	c-1.667,0-2.667,0.083-3,0.25l-0.75,0.05l0.65,0.25l0.05,0.05c1.533,0.7,2.55,1.584,3.05,2.65l0.25,0.65
	c0.167,0.5,0.3,1.066,0.4,1.699l0.1,0.551c-0.134,0.133-0.3,0.216-0.5,0.25l-6.35-2.65l-0.15,0.05v0.05l2.45,2.851
	c0.934,1.333,1.533,2.366,1.8,3.1l-0.25,0.351c-0.634-0.267-1.55-0.634-2.75-1.101c1.967,1.467,3.3,2.634,4,3.5
	c0.833,1.033,1.25,2.101,1.25,3.2v0.25l0.4,0.55c0,0.101-0.051,0.217-0.15,0.351c-0.967-0.534-3.033-1.2-6.2-2l-0.1-0.101l-0.3-0.05
	l1.35,2.55c0.1,0.2,0.184,0.4,0.25,0.601c0.3,0.699,0.483,1.216,0.55,1.55l0.2,1.05v0.3c-0.017,0.362-0.083,0.646-0.2,0.851h-0.25
	c0.066-0.034,0.066-0.084,0-0.15v0.1l-0.05,0.051l-0.1-0.101l-0.4-0.3l-4.1-2.4l-0.95-0.6v0.05l-0.2,2.65
	c-0.167,1.133-0.333,1.967-0.5,2.5v0.8l-0.2,0.15h-0.25c-0.233,0.399-0.5,0.6-0.8,0.6c-0.634,0-1.033-0.25-1.2-0.75l-0.2-0.2
	c-0.333-0.366-0.583-0.717-0.75-1.05l-0.05-0.05V79.4c-0.2-0.467-0.366-0.884-0.5-1.25C145.017,78.083,145,78.033,145,78l-0.05-0.25
	c-0.167-0.533-0.267-1.033-0.3-1.5l-0.051,0.1V76.4l-1.1,2c-1.233,2.066-2.233,3.517-3,4.35c-0.2,0.233-0.434,0.45-0.7,0.65
	l-0.149-6.9c-0.134,0.866-0.684,2.184-1.65,3.95l-2.45,4.2c-0.5-0.301-0.85-0.7-1.05-1.2L134.4,82c-0.367,1.167-1.117,2.5-2.25,4
	c-1.267,1.5-2.65,2.833-4.15,4l-0.5-0.1c0-1.034-0.283-2.634-0.85-4.801l-0.15-0.05c0,0.134-0.333,0.783-1,1.95
	c-0.434,0.833-0.767,1.434-1,1.8c-0.1,0.134-0.184,0.25-0.25,0.351l-0.8-2.2c-0.367-0.934-0.717-1.667-1.05-2.2
	c-0.034,0.1-0.067,0.217-0.101,0.35c-0.133,0.367-0.267,0.817-0.399,1.351L121.85,86.6c-0.066,0.167-0.116,0.351-0.149,0.551
	c-0.334,1.1-0.65,1.933-0.95,2.5c-1.033-0.434-1.783-0.983-2.25-1.65l-0.6-1.7h-0.15L117.3,88.4c-0.133,0.899-0.383,1.649-0.75,2.25
	c-1.1-1.101-1.916-2.117-2.45-3.051l-0.05,0.051c-1.133,1.333-2.55,2.25-4.25,2.75c-0.233-0.4-0.366-0.784-0.399-1.15l-0.25-1.1
	L109,88l0.15,2.75c0,1.167-0.301,1.75-0.9,1.75c-0.667,0-1.616-0.483-2.85-1.45c-1.101-0.8-1.817-1.434-2.15-1.899l-2.25,1.6
	c-0.3,0-0.5-0.083-0.6-0.25l-0.15-0.45L98.3,92.3c-0.8,1-1.633,1.867-2.5,2.601c-1.5-1.134-2.1-3.084-1.8-5.851L93.8,89
	c-0.467,0.233-1.399,0.866-2.8,1.9l-3.2,2.25L87.75,90.3c-0.267,0-0.95,0.25-2.05,0.75L83.8,91.9c-0.033,0.1-0.05-0.034-0.05-0.4
	c0-1.2,0.75-2.95,2.25-5.25l0.55-0.95L83.4,84.75c0,1.233-0.034,2.116-0.101,2.65c-0.033,0.699-0.2,1.399-0.5,2.1
	c-1.366-0.3-2.55-0.717-3.55-1.25c-0.633-0.233-1.133-0.467-1.5-0.7L77.5,87.4l-1.1-1.65l-0.5,1.65L75.55,88.1l-1.1,2.15L74.1,90.7
	l-0.25,0.35l-0.2,0.2v-1c-0.033-0.7-0.117-1.366-0.25-2c-0.566,0.6-1.033,1.267-1.4,2c-0.167,0.366-0.267,0.6-0.3,0.7
	c-0.333,0.666-0.5,1.149-0.5,1.45h-0.05c-0.1-0.067-0.217-0.117-0.35-0.15h-0.1c-0.367-0.134-0.934-0.267-1.7-0.4L68.25,91.7
	c-0.083-0.017-0.167-0.033-0.25-0.05c-0.133-0.034-0.267-0.067-0.4-0.101c-1-0.267-1.783-0.7-2.35-1.3c-0.7-0.8-1.1-1.75-1.2-2.85
	V87.3L64,86.4v0.25l-0.1,0.699V87.4c-0.267,1.433-0.483,2.383-0.65,2.85l-0.3,0.55L62.8,90.9l-5.65,2.6
	c0.233-0.9,0.417-1.983,0.55-3.25l0.1-4.3L57.75,86.1c-0.033,0.167-0.1,0.367-0.2,0.601c-0.033,0.066-0.066,0.166-0.1,0.3l-0.2,0.4
	c-0.167,0.366-0.45,0.933-0.85,1.699l-0.5,0.851c-0.066,0.1-0.133,0.2-0.2,0.3c-0.534,0.833-1.117,1.634-1.75,2.4l-0.55,0.6
	c-0.3,0.366-0.617,0.717-0.95,1.05c-0.567-0.633-1.05-1.283-1.45-1.95l-0.95-2.1c-0.2-0.934-0.3-1.884-0.3-2.85
	c-0.1-0.367-0.083-0.767,0.05-1.2c0.034-0.134,0.067-0.217,0.1-0.25c0.1-0.467,0-0.316-0.3,0.45c-0.1,0.233-0.233,0.566-0.4,1
	l-2.45,4.75V92.1l-1.25-1.85c-1.167-1.667-1.917-2.5-2.25-2.5L43.2,87.8c-0.034,0.2-0.05,0.9-0.05,2.101v0.35
	c0,1.366,0.167,2.283,0.5,2.75l0.5,1c-1,0-1.967-0.4-2.9-1.2c-0.8-0.633-1.45-1.483-1.95-2.55l-0.3-0.8l-0.25,0.8
	c-0.3,0.866-0.417,1.783-0.35,2.75c-0.033,0.1-0.033,0.184,0,0.25l-0.15-0.2L38.15,93c-0.733-0.866-1.4-1.783-2-2.75
	c-0.633-1-0.933-1.616-0.9-1.85c-0.133,0.166-0.25,0.416-0.35,0.75c-0.167,0.399-0.25,0.767-0.25,1.1l-0.1,0.25
	c-0.033,0.967,0.167,1.967,0.6,3c-1.467-0.934-2.467-1.6-3-2c-0.7-0.634-1.066-0.967-1.1-1H31l-0.1-0.25
	c-0.333-0.467-0.5-1.217-0.5-2.25c-0.133,0.9-0.333,1.65-0.6,2.25l-0.1,0.25L29.4,91c-0.6,0.9-2.183,1.316-4.75,1.25l0.4-2L26,87.4
	c0.2-0.4,0.2-0.601,0-0.601c-0.1,0-0.35,0.2-0.75,0.601l-0.95,0.85c-0.767,0.9-2.033,1.5-3.8,1.8
	c-0.033-0.467-0.017-1.35,0.05-2.649l0.15-0.65c0.733-0.533,1.25-0.95,1.55-1.25c0.733-0.533,1.233-1.316,1.5-2.35
	c0.333-1,0.4-1.801,0.2-2.4c-0.434-1.533-0.75-2.233-0.95-2.1c-1,0.666-1.783,1.55-2.35,2.649c-0.333,0.634-0.583,1.3-0.75,2
	l-0.05,0.05L19.4,83.7L19,85.15l-1,2.25c-0.167,0.166-0.267,0.3-0.3,0.399c-0.5,0.834-1.1,1.65-1.8,2.45
	c-0.833,0.833-1.633,1.5-2.4,2V92.2c-0.333-0.733-0.517-1.283-0.55-1.65l-0.05-1.8c0-0.333,0.033-0.65,0.1-0.95h-0.05L13,87.4
	l-0.2,0.35c0,0.033-0.017,0.066-0.05,0.1l-0.8,1.2c-0.3,0.334-0.617,0.617-0.95,0.851l-0.5,0.35c-1.1,0.667-2.267,1-3.5,1
	c-0.467,0-0.967-0.083-1.5-0.25l-1.25-0.35h-0.1L4.7,90.4L5,90.25c0.2-0.134,0.467-0.366,0.8-0.7C5.933,89.384,6.083,89.2,6.25,89
	L8,87.2l0.4-0.45H8.2L7.15,87l-1.5,0.15c-0.533,0-1.117-0.134-1.75-0.4l-1.4-0.8L0,83.75L1.4,84h2.5c0.967-0.1,1.8-0.3,2.5-0.6
	l0.55-0.351L7,83h0.65c0.7,0,1.617-0.25,2.75-0.75l0.35-0.2l-0.25,0.4c-0.567,1.333-0.85,2.267-0.85,2.8c0,0.467,0.2,1.066,0.6,1.8
	L10.5,87.4c0.233,0.466,0.45,0.833,0.65,1.1c0-0.366,0.05-0.733,0.15-1.1c0.267-0.733,0.717-1.4,1.35-2l0.6-0.45
	c0.867-0.134,1.783-0.7,2.75-1.7c1.367-1.3,2.367-2.083,3-2.35c0.2-0.167,0.417-0.25,0.65-0.25c-0.233-0.301-0.433-0.45-0.6-0.45
	l-0.65-0.05c-0.5,0-1.833,0.283-4,0.85l-0.7,0.25c-0.967-0.667-2.184-1.333-3.65-2c1.6,0.3,2.85,0.1,3.75-0.6L14,78.5
	c1.1-1,1.6-1.5,1.5-1.5c-0.8,0-1.75-0.25-2.85-0.75l-2.7-1.2c1.667,0.5,3,0.033,4-1.399c0.566-0.867,1.65-1.15,3.25-0.851
	c-2.8-0.6-5.317-1.866-7.55-3.8c3.333-0.434,6.217-1.184,8.65-2.25l0.5-0.2c-1.267,0.4-2.617,0.634-4.05,0.7
	c-1.2,0.066-2.517-0.517-3.95-1.75h-0.05v-0.05c0.1-0.134,0.233-0.233,0.4-0.3c1.9-1.2,4.517-1.4,7.85-0.601
	c1.067,0.3,1.817,0.533,2.25,0.7l-3.05-2.6c-2.934-1.4-5.733-1.7-8.4-0.9c1.6-2.1,3.684-3.35,6.25-3.75
	c-1.966,0.233-3.85,0.05-5.65-0.55c-1.267-0.467-2.5-1.2-3.7-2.2L6.15,54.8c0.967-0.633,1.883-1.1,2.75-1.399
	c0.967-0.434,2.017-0.733,3.15-0.9l-0.35,2.95c0.767,0.066,2.833-0.5,6.2-1.7l1.05,0.45c0.167-0.033,0.433-0.05,0.8-0.05l2.5-0.75
	c-1.1,0.966-2.117,1.733-3.05,2.3c-0.767,0.434-1.667,0.7-2.7,0.8c-0.767,0-1.383-0.083-1.85-0.25c0.133,0.2,0.483,0.616,1.05,1.25
	l0.45,0.45c0.434,0.434,0.95,0.866,1.55,1.3c0.2,0.134,0.65,0.3,1.35,0.5c0.7,0.2,1.184,0.217,1.45,0.05
	c0.6-0.434,1.083-0.717,1.45-0.85c0.733-0.467,1.517-1.033,2.35-1.7l-1.65,2.05c-0.4,0.434-0.7,0.917-0.9,1.45
	c-0.2,0.267-0.367,0.6-0.5,1c-0.233,0.5-0.317,1.083-0.25,1.75l7.25-1.35L27,62.8c-1.1,0.7-1.95,1.5-2.55,2.4
	c-0.6,0.8-0.85,1.7-0.75,2.7l4.1-0.601c-0.333,0.4-0.583,0.783-0.75,1.15c-0.367,0.833-0.566,1.6-0.6,2.3
	c-0.067,0.3-0.05,0.65,0.05,1.05c0.1,0.066,0.683-0.133,1.75-0.6s1.733-0.8,2-1c1.2-0.9,2.217-1.816,3.05-2.75l-1.8,3.45
	c-0.333,0.767-0.6,1.616-0.8,2.55c-0.1,0.267,0.083,0.967,0.55,2.1c0.4,1.101,0.7,1.684,0.9,1.75l3.1-3.649
	c-0.267,0.666-0.517,1.433-0.75,2.3c-0.333,1-0.333,2.017,0,3.05c0.267,1.1,0.767,2.017,1.5,2.75L36.9,80
	c0.467-1.033,0.75-2.017,0.85-2.95c0.1-1.066,0.083-2.116-0.05-3.149l0.7,2.1l1.35-1.5c-1,3.134-0.733,5.116,0.8,5.95l2.7-6.65
	c0.1,0.5,0.367,1.384,0.8,2.65l2.45,5.25c0.467-1.667,0.8-3.667,1-6c-1.4-1.533-2.167-3.617-2.3-6.25l1.25-3.65
	c0.033,0.533,0.15,1.25,0.35,2.15l0.6,1.8L48.25,69l2.4-2.7c0.033,1.267-0.2,2.55-0.7,3.851l-0.45,1l0.25,1.649
	c0.5,1.934,1.317,3.634,2.45,5.101c0.333-0.634,0.533-1.101,0.6-1.4c0.2-0.5,0.35-1.033,0.45-1.6l-2.1-1.851l1.35,0.2
	c0.267,0.033,0.583,0.05,0.95,0.05c0.066-1.133-0.083-2.25-0.45-3.35V69.85L51.9,70.2l-0.15,0.1l0.75-1l1.3-1.3h0.1
	c0.233,0.134,0.6,0.283,1.1,0.45l1.55,0.25L57,68.65c0.733-0.101,1.417-0.334,2.05-0.7l0.4-0.2l-0.2,0.2L57.5,70l-1.35,1.2l0.1-1.65
	l-1-0.1H55l-1.95,0.35L55.9,72.9L56,72c0.567,0.2,1.283,0.3,2.15,0.3h0.6c0.767,0,1.817-0.3,3.15-0.899l-0.7,1.55
	c-0.3,0.7-0.45,1.233-0.45,1.6c0,0.4,0.233,1.017,0.7,1.851l0.1,0.199l0.1,0.101l0.6,1.1c0-0.333,0.083-0.7,0.25-1.1
	c0.2-0.7,0.617-1.367,1.25-2l0.5-0.45l0.15-0.1h0.05l-0.05,0.1l0.1-0.05l0.45-0.101L65,74.05c0.667-0.2,1.4-0.7,2.2-1.5
	c1.267-1.267,2.25-2.05,2.95-2.35c0.2-0.167,0.4-0.25,0.6-0.25c-0.2-0.3-0.367-0.45-0.5-0.45l-0.75-0.05c-0.467,0-1.8,0.283-4,0.85
	l-0.7,0.25l-0.35-0.25c-0.967-0.6-2.034-1.184-3.2-1.75c0.867,0.2,1.65,0.2,2.35,0c0.533-0.1,1-0.3,1.4-0.6l1.7-1.65
	c-0.467,0-0.817-0.033-1.05-0.1c-0.6-0.101-1.233-0.316-1.9-0.65L61.4,64.5h-0.05l0.05-0.05c1.533,0.333,2.75-0.167,3.65-1.5
	l0.2-0.2h2c4.533,0,7.967-0.75,10.3-2.25l0.15,0.65l3.75-1.65c1.133-0.9,2.149-1.816,3.05-2.75c-0.634,1.1-1.233,2.25-1.8,3.45
	c-0.434,0.833-0.733,1.684-0.9,2.55c-0.066,0.267,0.134,0.983,0.601,2.15c0.366,1.033,0.649,1.616,0.85,1.75l2-2.25l0.25,0.25v1.1
	c-0.134,0.667-0.134,1.316,0,1.95v3.35c0.333,1.334,0.583,2.566,0.75,3.7c0.4,1.467,1.05,2.6,1.95,3.4h0.05L88.4,78l0.5-4.5
	c0.267,0.5,0.866,1.884,1.8,4.15c1.133,1.833,2.783,2.75,4.95,2.75c0.633,0,0.966-0.65,1-1.95c-0.101-1-0.15-1.967-0.15-2.9
	c0.634,1.467,2.634,3.334,6,5.601c0.333-1.267,0.5-2.851,0.5-4.75l2.65,1.399c1.3,0.467,3.183,0.7,5.649,0.7
	c0.367,0,0.65-0.033,0.851-0.1l0.1-0.9c0-0.434-0.083-0.85-0.25-1.25l-0.75-1.5c0.767,0,2.2,0.333,4.3,1c2.267,0.667,3.834,1,4.7,1
	c0.566,0,0.9-0.116,1-0.35C120.717,75.3,120.3,74.6,120,74.3c2.7,0,5.583,0.066,8.65,0.2l0.1-0.85c0-0.4-0.184-0.967-0.55-1.7
	c-0.467-0.934-0.867-1.483-1.2-1.65h3.3c0.5,0.066,1.334,0.101,2.5,0.101c0.134,0.166,0.2,0.05,0.2-0.351
	c0-0.434-0.35-0.983-1.05-1.649l-1-0.9h4.3l1-0.5l-0.05-0.05l0.05-0.05h0.3l0.2-0.101v-0.35c0-1.4-1.616-2.733-4.85-4l2.85,0.05
	c1.2,0,2.533-0.233,4-0.7c1.5-0.434,2.25-0.95,2.25-1.55c0-0.733-0.233-1.333-0.7-1.8c-0.366-0.4-1.05-0.867-2.05-1.4l6,0.2
	c0.167,0,0.25-0.2,0.25-0.6c0-2-1.917-3.884-5.75-5.65v-0.2c3.167-0.767,4.75-1.95,4.75-3.55c0-0.6-0.233-1.083-0.7-1.45
	c-0.434-0.3-1.316-0.6-2.649-0.9l4.6-1.9c1.167-0.567,1.9-1.067,2.2-1.5l0.1,0.15l0.2-0.15l-0.2-0.25c0.066-0.1,0.066-0.183,0-0.25
	l-0.149,0.05c-0.567-0.733-1.217-1.267-1.95-1.6c-1.634-0.8-4.2-1.133-7.7-1c0.667-0.767,1.184-1.4,1.55-1.9
	c1.134-1.367,1.7-2.3,1.7-2.8V33.5l-0.05-0.05c-0.5-0.467-0.9-0.767-1.2-0.9c-0.566-0.3-1.684-0.417-3.35-0.35l0.149-0.7l-1.1,0.15
	c-1.233,0-2.233-0.367-3-1.1c1.399-0.566,2.833-0.85,4.3-0.85c1.167,0.233,2,0.25,2.5,0.05c0-0.667-0.25-1.25-0.75-1.75l-0.2-0.25
	l-1-1.05c-0.633-0.8-1.483-1.434-2.55-1.9c3-0.833,5.1-1.917,6.3-3.25c0.133-0.132,0.199-0.215,0.2-0.25V24l-2.475,3.475
	L138.25,27.5l7.2-3.05c0.066,2-0.584,3.6-1.95,4.8l-1.45,1l-1,0.5l1.101-0.3c2.199-0.6,4.466-0.567,6.8,0.1
	c-1.4,1.833-2.934,3.317-4.601,4.45l1.351,0.25H145.75z M112.6,55.5h0.101l-0.15,0.3l-0.8-0.5
	C112.083,55.434,112.366,55.5,112.6,55.5z M155.3,77.7v-0.25H155v0.05L155.3,77.7z M4.65,75.2L3.9,74.8
	c-0.4-0.166-0.816-0.434-1.25-0.8c-0.533-0.467-0.95-0.967-1.25-1.5c-0.267-0.366-0.517-0.8-0.75-1.3L0,69.7
	c0.1,0.1,0.317,0.2,0.65,0.3l0.6,0.15L1.4,70.2l1.5,0.2l1-0.15c0.133,0,0.733-0.15,1.8-0.45h0.1l-0.15,0.45L5.5,70.7
	c-0.233,0.767-0.65,1.366-1.25,1.8c1.8-0.134,2.95-0.316,3.45-0.55c0.267-0.2,0.667-0.434,1.2-0.7L8.3,73.5
	C7,73.967,5.783,74.533,4.65,75.2z M0.75,80.9L0.65,81c0.067-0.2,0.317-0.533,0.75-1c0.1-0.134,0.217-0.25,0.35-0.35
	c0.267-0.301,0.583-0.601,0.95-0.9l0.05-0.05l1.15,0.45c0.567,0.166,1.083,0.25,1.55,0.25c0.767,0,1.6-0.25,2.5-0.75
	c0.033-0.034,0.133-0.101,0.3-0.2l-0.1,0.2L6.3,80.7l-0.4-0.2c-0.8-0.233-1.383-0.35-1.75-0.35H3.9c-0.467,0.033-1.3,0.216-2.5,0.55
	l-0.2,0.075L1.1,80.8C0.933,80.833,0.817,80.866,0.75,80.9z M71,72.65c-0.167,0.666-0.167,2.017,0,4.05l0.8-0.65
	c0.567-0.333,1.117-0.75,1.65-1.25c0.7-0.533,1.2-1.316,1.5-2.35c0.267-0.9,0.3-1.717,0.1-2.45l-0.15-0.6
	c-0.367-1.101-0.617-1.584-0.75-1.45c-0.267,0.133-0.6,0.399-1,0.8c-0.566,0.566-1.033,1.2-1.4,1.9L71,72.65z"/>
</svg>
