<?xml version="1.0" encoding="iso-8859-1"?>
<!-- Generator: Adobe Illustrator 15.1.0, SVG Export Plug-In . SVG Version: 6.00 Build 0)  -->
<!DOCTYPE svg PUBLIC "-//W3C//DTD SVG 1.1//EN" "http://www.w3.org/Graphics/SVG/1.1/DTD/svg11.dtd">
<svg version="1.1" id="FlashAICB" xmlns="http://www.w3.org/2000/svg" xmlns:xlink="http://www.w3.org/1999/xlink" x="0px" y="0px"
	 width="68.8px" height="197.75px" viewBox="0 0 68.8 197.75" style="enable-background:new 0 0 68.8 197.75;" xml:space="preserve"
	>
<g>
	<g>
		<path style="fill-rule:evenodd;clip-rule:evenodd;fill:#73644F;" d="M40.7,36.5c-0.033-0.767,0.1-1.317,0.399-1.65l0.351-1.65
			c0.533-0.133,1.116-0.017,1.75,0.35c0.566,0.333,0.983,0.767,1.25,1.3c0.2,0.333,0.35,1.017,0.45,2.05
			c0.1,1.067,0.05,1.733-0.15,2c-0.366,0.467-1,0.6-1.9,0.4c-0.833-0.233-1.416-0.6-1.75-1.1C40.866,37.8,40.733,37.233,40.7,36.5z
			 M44.75,36c-0.233-0.967-0.783-1.35-1.65-1.15l-0.35,0.35v1.95c0.134,0.733,0.583,0.967,1.35,0.7C44.8,37.617,45.017,37,44.75,36z
			 M49.35,40.8c-0.699-0.033-1.199,0.3-1.5,1c-0.199,0.4-0.283,0.65-0.25,0.75c0,0.1,0.15,0.3,0.45,0.6
			c-0.233,0.267-0.35,0.684-0.35,1.25c-0.101-0.566-0.417-1.417-0.95-2.55s-0.85-1.983-0.95-2.55c0.834,0.467,1.467,0.75,1.9,0.85
			c0.166-0.433,0.116-1.2-0.15-2.3c-0.366-1.2-0.6-1.983-0.7-2.35c-0.1-0.467-0.416-1.267-0.949-2.4
			c-0.434-1.067-0.7-1.883-0.801-2.45c0.067,0.133,0.2,0.267,0.4,0.4l0.45,0.3C47.15,34.183,48.283,37.333,49.35,40.8z M51.05,46.75
			l1.05,4.3l-0.35-0.2c-0.833-0.467-1.5-1.633-2-3.5c-0.533-2-1.017-3.317-1.45-3.95l0.101,0.1
			C48.767,43.833,49.65,44.917,51.05,46.75z M41.45,41.5l0.3,0.35c1.9-0.333,3.167,1.25,3.8,4.75c0.634,3.5,0.15,5.367-1.45,5.6
			c-1.8,0.3-3.033-1.184-3.699-4.45C39.767,44.517,40.116,42.433,41.45,41.5z M43.1,45.2c-1.033,0.466-1.25,1.617-0.649,3.45
			c0.6,1.833,1.583,2.55,2.95,2.15c0.166-1.333,0.149-2.417-0.051-3.25c-0.233-0.966-0.767-1.867-1.6-2.7L43.1,45.2z M12.5,9.75
			c0.5-0.567,0.983-1.033,1.45-1.4l1.6,1.15c1.534,0.767,2.75,1.417,3.65,1.95c1.733,1.033,2.566,1.933,2.5,2.7
			c-0.133-0.066-0.75-0.45-1.85-1.15c-0.767-0.467-1.434-0.817-2-1.05c-0.2-0.1-1.033-0.383-2.5-0.85
			c-1.367-0.434-2.35-0.817-2.95-1.15L12.5,9.75z M9.25,19.25c-0.2-1.167-0.167-2.567,0.1-4.2c0.033-0.267,0.083-0.533,0.15-0.8
			c0.167-0.7,0.383-1.283,0.65-1.75c0.167,1.5,0.95,2.783,2.35,3.85c0.867,0.667,2.3,1.417,4.3,2.25c0.434,0.2,1.034,0.6,1.8,1.2
			c0.7,0.534,1.316,0.883,1.85,1.05c1.2,0.167,2.066,0.383,2.6,0.65c0.133,0.067,0.434,0.317,0.9,0.75
			c0.367,0.3,0.716,0.483,1.05,0.55c-0.1-0.3-0.417-0.733-0.95-1.3c-0.267-0.3-0.65-0.7-1.15-1.2c0.467,0.4,1.4,1.1,2.8,2.1
			c1.167,0.867,2.083,1.6,2.75,2.2c1.167,1.233,2.1,2.167,2.8,2.8c1.233,1.133,2.317,1.817,3.25,2.05
			c0.833,0.2,1.417,0.133,1.75-0.2c0.267-0.3,0.333-0.867,0.2-1.7c-0.101-0.767-0.367-1.5-0.8-2.2
			c-0.267-0.4-0.784-1.017-1.551-1.85c-0.8-0.9-1.95-1.933-3.45-3.1c-1.633-0.967-2.9-2-3.8-3.1c0.5,0.434,1.767,1.467,3.8,3.1
			c2.367,1.233,4.083,2.184,5.15,2.85c1.834,1.133,3.05,2.433,3.65,3.9c0.133,0.3,0.267,0.733,0.399,1.3
			c0.167,0.6,0.233,0.983,0.2,1.15c-0.066,0.333-0.283,0.667-0.649,1c-0.2,0.167-0.551,0.45-1.051,0.85
			c-0.633,0.6-0.933,1.25-0.899,1.95c0.066,0.434,0.267,1.15,0.6,2.15c0.3,1.3,0.334,2.467,0.101,3.5
			c0.033,0.133,0.149,0.534,0.35,1.2c0.134,0.467,0.217,0.883,0.25,1.25c0.066,0.667,0.066,1.667,0,3c0.167,1.1,0.434,2.1,0.8,3
			c0.3,0.767,0.601,1.883,0.9,3.35c0.133,0.733,0.6,1.633,1.399,2.7c0.834,1.133,1.334,2,1.5,2.6c0.434,1.4,0.9,3.517,1.4,6.35
			c0.233,0.933,0.4,1.85,0.5,2.75c-0.1-0.533-0.366-1.717-0.8-3.55c-0.767-2.934-1.733-5.25-2.9-6.95
			c-1.566-2.233-2.5-4.817-2.8-7.75c0.066,1.6,0.066,3.2,0,4.8c-0.066-0.133-0.134-0.267-0.2-0.4l-0.2-0.35
			c-0.899-1.533-1.85-3-2.85-4.4c0.366-0.733,0.233-1.983-0.4-3.75c-0.066-0.233-0.366-0.967-0.899-2.2l-0.85-1.5
			c-0.6-1.034-0.917-1.85-0.95-2.45c0.233-0.4,0.467-0.7,0.7-0.9c0.8-0.4,1.45-0.733,1.95-1c0.934-0.5,1.316-1,1.15-1.5l0.25-0.2
			c0.833-0.667,1.399-1.7,1.7-3.1c0.3-1.5,0.133-2.7-0.5-3.6c0.3,0.733,0.35,1.783,0.149,3.15c-0.133,0.7-0.416,1.25-0.85,1.65
			c-0.5,0.433-1.101,0.65-1.8,0.65c0.1,0.5,0.05,0.917-0.15,1.25l-1.1,0.2c-0.2-0.233-0.45-0.617-0.75-1.15l-1.05-0.9
			c-0.633-1.267-1.8-2.183-3.5-2.75c1.467,0.6,2.55,1.467,3.25,2.6c-0.434-0.267-1.35-0.7-2.75-1.3c-0.7-0.267-2.033-1.15-4-2.65
			c-0.333-0.233-0.917-0.567-1.75-1c-0.767-0.767-1.2-1.2-1.3-1.3c-0.533-0.433-1.05-0.667-1.55-0.7c0.333,0.5,1.283,1.167,2.85,2
			c0.467,0.367,0.75,0.583,0.85,0.65c1.267,0.8,2.267,1.467,3,2c1.433,0.867,2.4,1.517,2.9,1.95c0.8,0.733,1.117,1.733,0.95,3
			c-0.2-0.133-0.517-0.233-0.95-0.3c-0.467-0.1-0.8-0.2-1-0.3c-0.233-0.133-1-0.7-2.3-1.7c-0.966-0.667-2.316-1.75-4.05-3.25
			c-1.033-0.8-2.5-1.467-4.4-2c-2.4-0.667-3.9-1.15-4.5-1.45c-0.133-0.3-0.133-0.6,0-0.9c0.1,0,0.283-0.017,0.55-0.05
			s0.467-0.033,0.6,0c-0.533-0.567-1.4-1.233-2.6-2c-1.333-0.867-2.217-1.5-2.65-1.9l-0.45-0.6L9.25,19.25z M46.45,83.6
			c-0.016-0.466-0.032-0.933-0.05-1.4l-1-9.5l0.35-0.2c0.833-0.333,1.55,0.233,2.15,1.7c0.166,0.433,0.449,1.433,0.85,3
			c0.167,0.833,0.217,1.733,0.15,2.7c-0.101,1.133-0.351,1.983-0.75,2.55C47.65,83.05,47.083,83.433,46.45,83.6z M26,134.5l-0.3-2
			c-0.167,0.2-0.267,0.583-0.3,1.15c0,0.3-0.017,0.716-0.05,1.25c-0.067,0.899-0.283,1.966-0.65,3.199
			c-0.133,0.434-0.267,1.15-0.4,2.15c-0.267-1.866-0.45-3.283-0.55-4.25c-0.1-1.6,0.017-3.017,0.35-4.25
			c0.467-1.533,0.85-2.566,1.15-3.1c0.667-1.267,1.467-1.733,2.4-1.4c0.5,0.167,1.083,0.717,1.75,1.65
			c0.689,0.951,1.039,1.676,1.05,2.175c0-1.019,0.017-1.627,0.05-1.825c0.567,0.566,1.183,1.384,1.85,2.45
			c0.033,0,0.05,0.017,0.05,0.05c0.4,2.1,0.65,3.667,0.75,4.7c-0.333-0.4-0.85-1.017-1.55-1.851c-0.434-0.633-1.033-1.55-1.8-2.75
			l-0.15-0.149c-0.233-0.467-0.517-0.9-0.85-1.3l-1.05-1.051c-0.2-0.733-0.5-1.199-0.9-1.399c-0.533,1.633-0.8,3.7-0.8,6.2v0.199
			L26,134.5z M43.6,106.95l-0.899,1.1c-0.367,0.2-0.851,0.601-1.45,1.2l-0.5,0.55c-0.233,0.233-1.184,1.3-2.85,3.2
			c-1.101,1.267-2.15,2.25-3.15,2.95c-1.467,1.033-2.883,2.55-4.25,4.55c-0.4,0.634-0.683,1.366-0.85,2.2
			c-0.2,0.866-0.183,1.533,0.05,2c-0.6-0.134-0.934-0.25-1-0.351c-0.167-0.166-0.167-0.583,0-1.25c0.167-0.633,0.55-1.6,1.15-2.899
			c1.133-2.3,2.4-4.184,3.8-5.65c-0.633,0.733-1.5,2.351-2.6,4.851c0.534-0.601,1.267-1.551,2.2-2.851
			c0.934-1.333,1.667-2.3,2.2-2.899c0.467-0.534,1.633-1.5,3.5-2.9c0.133-0.634,0.316-1.134,0.55-1.5c0.333-0.5,0.833-0.934,1.5-1.3
			c0.134-0.066,0.717-0.3,1.75-0.7L43.6,106.95z M51.75,76.5v2.4c-0.1,0.667-0.184,1.95-0.25,3.85c-0.066,1.633-0.2,2.9-0.4,3.8
			c-0.166,0.833-0.5,2.067-1,3.7c-0.166,0.867-0.449,2.1-0.85,3.7c-0.333,1.466-0.5,2.75-0.5,3.85c0,0.867,0.033,2.233,0.1,4.101
			c0,0.066,0,0.133,0,0.199c0,0.034,0,0.067,0,0.101c0,0.666-0.05,1.283-0.149,1.85l-0.101,0.3c0,0.034,0,0.067,0,0.101
			c-0.033,0.066-0.05,0.116-0.05,0.149L48.5,104.7c0,0.033,0,0.066,0,0.1l-0.05,0.05c-0.2,0.601-0.55,1.284-1.05,2.051
			c-0.301,0.466-0.75,1.133-1.351,2l-0.45,0.8l-0.35,0.3c-0.167-0.566-0.283-0.967-0.35-1.2c-0.134-0.434-0.351-0.717-0.65-0.85
			l1.8-1.851c1.066-1.267,1.65-2.8,1.75-4.6v-0.55l-0.2,0.649c-0.166,0.134-0.333,0.417-0.5,0.851v-2.25
			c0.101-0.8,0.117-1.367,0.051-1.7c-0.034-0.2-0.184-0.417-0.45-0.65c-0.2-0.167-0.267-0.4-0.2-0.7c0.033-0.133,0.217-0.3,0.55-0.5
			c0.367-0.267,0.584-0.45,0.65-0.55c0.033-0.033,0.149-0.483,0.35-1.35c0.033-0.333,0.05-0.867,0.05-1.6
			c0-0.7,0.034-1.233,0.101-1.6c0,0.034,0.083,0.2,0.25,0.5c0.733-1.8,1.166-3.95,1.3-6.45c0-2.967,0-5.233,0-6.8
			c0.033-0.867,0.25-1.933,0.65-3.2c0.533-1.533,0.85-2.567,0.949-3.1l0.051-0.4c-0.067-2.767-0.167-4.817-0.301-6.15
			c-0.066-0.733-0.083-1.684-0.05-2.85c0.033-1.267,0.05-2.217,0.05-2.85l0.4,1.95c0.134,1.033,0.217,2.017,0.25,2.95
			c0,0.133,0,0.25,0,0.35s0,0.2,0,0.3c-0.033,0.833-0.116,2.517-0.25,5.05l-0.05,1.65C51.384,73.933,51.483,75.267,51.75,76.5z
			 M51.1,54.9l-1.6-2.55l-1-3.3l1.3,2.2c0.367,0.6,0.601,1.083,0.7,1.45l0.15,0.45C50.85,53.683,51,54.267,51.1,54.9z M53.5,58.4
			l0.05,0.4l-1.3-2.05l0.65-1.95c0.1,0.5,0.183,0.983,0.25,1.45v0.45l0.05-0.1L53.5,58.4z M27.45,14.85l0.25-0.05
			c0.133-0.367,0.15-0.683,0.05-0.95V13.5l-1.9,0.05l-0.1,0.25c-0.733-0.433-1.183-0.867-1.35-1.3c0.233-0.267,0.8-0.367,1.7-0.3
			l-0.65-1c1.767,0.633,2.933,1.167,3.5,1.6c0.933,0.633,1.3,1.75,1.1,3.35c-0.5,0.167-0.983,0.083-1.45-0.25
			C28.333,15.7,27.95,15.35,27.45,14.85z M21.45,16.5l1.3,0.35c0,0.9-0.017,1.433-0.05,1.6c-0.934,0.1-1.717,0.05-2.35-0.15
			c-0.9-0.3-1.184-0.883-0.85-1.75L21.45,16.5z M31.15,18.05c-0.4-0.4-0.3-0.917,0.3-1.55h1c0.367,0.5,0.517,0.933,0.45,1.3
			l-0.15,0.05l-1.6,0.05V18.05z M59,83.65v0.15l-0.15-0.4c-0.267,0.2-0.483,0.767-0.649,1.7c-0.033-0.133-0.134-1.033-0.3-2.7
			c-0.134-1.033-0.351-1.917-0.65-2.65c-0.566-1.433-1.05-2.217-1.45-2.35c-0.399-0.133-0.7-0.066-0.899,0.2L54.3,76.45V76.4
			c-0.066-0.967-0.1-1.683-0.1-2.15c-0.066-0.8-0.066-1.367,0-1.7c0.133-0.767,0.333-1.3,0.6-1.6c0.334-0.4,0.851-0.55,1.55-0.45
			l0.2,0.05c0.101,0.167,0.45,0.617,1.05,1.35c0.434,0.567,0.733,1.067,0.9,1.5c0.366,0.934,0.566,1.85,0.6,2.75
			c0.067,0.434,0.084,1.184,0.051,2.25c0,0.934,0.066,1.684,0.199,2.25c-0.033-0.066-0.199-0.217-0.5-0.45
			C58.65,80.933,58.7,82.083,59,83.65z M47.7,58.15c-0.767,0.233-1.267,0.05-1.5-0.55c-0.267-0.6-0.184-1.184,0.25-1.75h1
			c0.233,0.267,0.35,0.633,0.35,1.1C47.8,57.15,47.767,57.55,47.7,58.15z M59.25,86.15l0.2,2v0.475
			c-0.008-0.273-0.058-0.548-0.15-0.825c-0.133-0.466-0.2-0.783-0.2-0.95V85.1L59.25,86.15z M63.75,116.95l-0.05-0.05
			c-1-0.934-1.65-1.733-1.95-2.4l-0.55-1.95c-0.267-0.866-0.634-1.399-1.101-1.6l-0.1,0.2l-0.6-2.25
			c-0.067-0.834-0.084-1.917-0.051-3.25c0.067-1.867,0.101-2.917,0.101-3.15v-0.9c0.133,1.334,0.267,2.317,0.399,2.95
			c0,0.101,0.017,0.217,0.051,0.351l0.949,2.75c0.066,0.148,0.149,0.299,0.25,0.449c0.067,0.467,0.15,0.934,0.25,1.4l0.301,1.4
			c0.166,0.699,0.366,1.399,0.6,2.1l0.7,2C63.217,115.7,63.483,116.35,63.75,116.95z M62.25,96.25c-0.967-0.8-1.783-1.233-2.45-1.3
			V94.9c0.566-0.1,1.217-0.033,1.95,0.2c1,0.367,1.634,0.566,1.9,0.6c0.199-0.467,0.199-1,0-1.6c0.966,1.1,1.866,2.4,2.699,3.9
			l-0.25,0.2c-0.566,0.066-1.233-0.15-2-0.65C63.7,97.283,63.083,96.85,62.25,96.25z M59.4,90.8c0.033,0.267,0.166,0.517,0.399,0.75
			c0.167,0.133,0.5,0.167,1,0.1l0.15,0.1c-0.667,0-1.4,0.433-2.2,1.3c0-0.3,0.083-0.65,0.25-1.05c0.2-0.467,0.316-0.767,0.35-0.9
			L59.4,90.8z M47.8,76.15c0.033-0.167,0-0.367-0.1-0.6c-0.934-0.033-1.4,0.633-1.4,2s0.483,1.9,1.45,1.6
			C47.783,78.817,47.8,77.817,47.8,76.15z M46.05,116.75c-0.566-0.533-1.3-0.517-2.2,0.05c-0.066-0.467-0.1-1.133-0.1-2
			c0.033-1,0.033-1.666,0-2l0.35,0.05c0.733,0.134,1.134,0.351,1.2,0.65c0.033,0.167,0.066,0.616,0.101,1.35
			c0.066,0.267,0.267,0.601,0.6,1l-0.05,0.101l0.149,0.85L46.05,116.75z M42.45,171.8L42,172.75l-0.05,0.05
			c-0.167,0.134-0.334,0.334-0.5,0.601L40.35,175c-0.066,0.134-0.133,0.25-0.199,0.35c-0.634,1.067-1.084,1.9-1.351,2.5
			c-0.934,1.967-1.517,3.967-1.75,6c-0.2,1.467-0.3,3.351-0.3,5.65c0,0.533-0.033,1.417-0.1,2.65c0,0.033,0,0.083,0,0.149
			c0,0.033,0,0.084,0,0.15c0,0.033,0,0.083,0,0.149c0.033,0.9,0.199,1.617,0.5,2.15v0.05c0.199,1.2,0.399,2.184,0.6,2.95
			c-0.333-0.566-0.65-1.333-0.95-2.3c-0.633-2-0.983-4.066-1.05-6.2l0.05-1.65c0.134-2.199,0.8-5.416,2-9.649l0.55-1.101
			c0.667-1.267,1.233-2.283,1.7-3.05c0.9-1.399,1.684-2.066,2.351-2v-0.05c0.066-0.5,0-1.1-0.2-1.8c-0.267-0.834-0.4-1.417-0.4-1.75
			c-0.033-0.533,0-1.25,0.101-2.15c0.133-1.066,0.199-1.8,0.199-2.2v-3.899c-0.066-0.634-0.25-1.834-0.55-3.601
			c-0.3-1.5-0.45-2.699-0.45-3.6c0.034,0.5,0.167,1.033,0.4,1.6c0.267,0.601,0.583,1.034,0.95,1.301v4.5
			c-0.066,0.666-0.084,1.517-0.05,2.55c0,0.566,0.017,1.399,0.05,2.5V171.8z M42.35,139.55l0.051,9.5
			c-0.034-0.434-0.067-0.899-0.101-1.399c-0.133-1.301-0.2-2.233-0.2-2.801C42.1,144.384,42.184,142.616,42.35,139.55z M45.4,128.35
			l-0.051-0.05l-0.1-0.149V128.1c-0.1-0.267-0.184-0.517-0.25-0.75l-0.45-1.6v-0.05c-0.033-0.066-0.05-0.134-0.05-0.2
			c-0.066-0.6-0.1-1.517-0.1-2.75c0.033,0.066,0.233,0.583,0.6,1.55c0.233,0.634,0.384,1.15,0.45,1.55
			c0.033,0.267,0.033,0.684,0,1.25C45.384,127.667,45.366,128.083,45.4,128.35z M47.45,132.4c1.166,2.1,1.833,3.267,2,3.5
			c0.2,0.3,0.583,0.783,1.149,1.449c0.534,0.634,0.9,1.134,1.101,1.5c0.2,0.301,0.35,0.717,0.45,1.25
			c0.133,0.634,0.25,1.051,0.35,1.25l-0.2-0.25c-0.066-0.1-0.116-0.183-0.149-0.25c-1.167-1.566-1.9-2.583-2.2-3.05
			c-0.733-1.1-1.267-2.116-1.601-3.05l-0.05-0.15c-0.033-0.033-0.05-0.066-0.05-0.1l-0.1-0.4l-0.301-0.75l-0.1-0.25
			C47.65,132.866,47.55,132.634,47.45,132.4z M57.4,151.15l-0.75-2.75c-0.334-0.934-0.784-1.9-1.351-2.9l0.5,0.6l-0.05-1.5
			c0.2,0.334,0.517,0.717,0.95,1.15l1.05,1l0.05,0.05l0.2,0.75c0.033,0.134,0.066,0.267,0.1,0.4c-0.199,1.1-0.233,2.85-0.1,5.25
			l-0.3-1.4C57.6,151.533,57.5,151.316,57.4,151.15z M25.55,161.6l-0.05,0.9c0-0.3-0.017-0.616-0.05-0.95L25.55,161.6z"/>
		<path style="fill-rule:evenodd;clip-rule:evenodd;fill:#8D7A61;" d="M40.7,36.5c0.033,0.733,0.166,1.3,0.399,1.7
			c0.334,0.5,0.917,0.867,1.75,1.1c0.9,0.2,1.534,0.067,1.9-0.4c0.2-0.267,0.25-0.933,0.15-2c-0.101-1.033-0.25-1.717-0.45-2.05
			c-0.267-0.533-0.684-0.967-1.25-1.3c-0.634-0.367-1.217-0.483-1.75-0.35L41.1,34.85C40.8,35.183,40.667,35.733,40.7,36.5z
			 M48.3,43.4c0.434,0.633,0.917,1.95,1.45,3.95c0.5,1.867,1.167,3.033,2,3.5l0.35,0.2l-1.05-4.3c-0.566-2.267-1.133-4.25-1.7-5.95
			c-1.066-3.466-2.199-6.617-3.399-9.45l-0.45-0.3c-0.2-0.133-0.333-0.267-0.4-0.4c0.101,0.567,0.367,1.383,0.801,2.45
			c0.533,1.133,0.85,1.933,0.949,2.4c0.101,0.367,0.334,1.15,0.7,2.35c0.267,1.1,0.316,1.867,0.15,2.3
			c-0.434-0.1-1.066-0.383-1.9-0.85c0.101,0.567,0.417,1.417,0.95,2.55s0.85,1.983,0.95,2.55c0-0.566,0.116-0.983,0.35-1.25
			l0.15,0.1L48.3,43.4z M41.45,41.5c-1.334,0.933-1.684,3.017-1.05,6.25c0.666,3.267,1.899,4.75,3.699,4.45
			c1.601-0.233,2.084-2.1,1.45-5.6c-0.633-3.5-1.899-5.083-3.8-4.75L41.45,41.5z M52.9,54.8l-0.65,1.95L51.1,54.9
			c-0.1-0.633-0.25-1.217-0.449-1.75L50.5,52.7c-0.1-0.367-0.333-0.85-0.7-1.45l-1.3-2.2l1,3.3c-0.434-0.833-0.8-1.633-1.1-2.4
			c0.133,0.966,0.5,2.466,1.1,4.5l1,3.75c0.267,0.767,0.467,1.45,0.6,2.05c0,0.633-0.017,1.583-0.05,2.85
			c-0.033,1.167-0.017,2.117,0.05,2.85c0.134,1.333,0.233,3.383,0.301,6.15l-0.051,0.4c-0.1,0.533-0.416,1.567-0.949,3.1
			c-0.4,1.267-0.617,2.333-0.65,3.2c0,1.567,0,3.833,0,6.8c-0.134,2.5-0.566,4.65-1.3,6.45c-0.167-0.3-0.25-0.466-0.25-0.5
			c-0.066,0.367-0.101,0.9-0.101,1.6c0,0.733-0.017,1.267-0.05,1.6c-0.2,0.867-0.316,1.317-0.35,1.35
			c-0.066,0.1-0.283,0.283-0.65,0.55c-0.333,0.2-0.517,0.367-0.55,0.5c-0.066,0.3,0,0.533,0.2,0.7c0.267,0.233,0.416,0.45,0.45,0.65
			c0.066,0.333,0.05,0.9-0.051,1.7v2.25c0.167-0.434,0.334-0.717,0.5-0.851c-0.199,0.601-0.483,1.2-0.85,1.801
			c-0.333,0.533-1.217,1.55-2.65,3.05l-0.5,0.5l-0.85,0.3c-1.033,0.4-1.616,0.634-1.75,0.7c-0.667,0.366-1.167,0.8-1.5,1.3
			c-0.233,0.366-0.417,0.866-0.55,1.5c-1.867,1.4-3.033,2.366-3.5,2.9c-0.533,0.6-1.267,1.566-2.2,2.899
			c-0.933,1.3-1.667,2.25-2.2,2.851c1.1-2.5,1.967-4.117,2.6-4.851c-1.4,1.467-2.667,3.351-3.8,5.65
			c-0.6,1.3-0.983,2.267-1.15,2.899c-0.167,0.667-0.167,1.084,0,1.25c0.066,0.101,0.4,0.217,1,0.351c0.167,0.366,0.4,0.55,0.7,0.55
			c0.1,0.2,0.217,0.45,0.35,0.75c0.433,0.866,0.95,2.667,1.55,5.4c0.034,0.1,0.05,0.199,0.05,0.3
			c-0.667-1.066-1.283-1.884-1.85-2.45c-0.033,0.198-0.05,0.807-0.05,1.825c-0.011-0.499-0.361-1.224-1.05-2.175
			c-0.667-0.934-1.25-1.483-1.75-1.65c-0.933-0.333-1.733,0.134-2.4,1.4c-0.3,0.533-0.683,1.566-1.15,3.1
			c-0.333,1.233-0.45,2.65-0.35,4.25c0.1,0.967,0.283,2.384,0.55,4.25c-0.233,1.566-0.316,3.934-0.25,7.1v0.551
			c0.2,0.966,0.35,1.916,0.45,2.85c-0.8-3.833-1.267-6.917-1.4-9.25c-0.267-4.066,0.45-8.9,2.15-14.5c1.667-5.5,4.817-11,9.45-16.5
			c4.633-4.733,7.233-7.483,7.8-8.25c0.7-0.9,1.783-2.5,3.25-4.8c0.575-4.576,0.809-9.192,0.7-13.85c0.633-0.167,1.2-0.55,1.7-1.15
			c0.399-0.567,0.649-1.417,0.75-2.55c0.066-0.967,0.017-1.867-0.15-2.7c-0.4-1.567-0.684-2.567-0.85-3
			c-0.601-1.467-1.317-2.034-2.15-1.7l-0.35,0.2c-0.034-0.333-0.084-0.667-0.15-1l0.2-1.4c0.166-1.5,0.1-3.183-0.2-5.05
			c-0.1-0.9-0.267-1.817-0.5-2.75c-0.5-2.833-0.967-4.95-1.4-6.35c-0.166-0.6-0.666-1.467-1.5-2.6c-0.8-1.066-1.267-1.966-1.399-2.7
			c-0.3-1.467-0.601-2.583-0.9-3.35c-0.366-0.9-0.633-1.9-0.8-3c0.066-1.333,0.066-2.333,0-3c-0.033-0.367-0.116-0.783-0.25-1.25
			c-0.2-0.667-0.316-1.067-0.35-1.2c0.233-1.033,0.199-2.2-0.101-3.5c-0.333-1-0.533-1.716-0.6-2.15
			c-0.033-0.7,0.267-1.35,0.899-1.95c0.5-0.4,0.851-0.684,1.051-0.85c0.366-0.333,0.583-0.667,0.649-1
			c0.033-0.167-0.033-0.55-0.2-1.15c-0.133-0.567-0.267-1-0.399-1.3c-0.601-1.467-1.816-2.767-3.65-3.9
			c-1.066-0.667-2.783-1.617-5.15-2.85c-2.033-1.633-3.3-2.667-3.8-3.1c0.9,1.1,2.167,2.133,3.8,3.1c1.5,1.167,2.65,2.2,3.45,3.1
			c0.767,0.833,1.284,1.45,1.551,1.85c0.433,0.7,0.699,1.433,0.8,2.2c0.133,0.833,0.066,1.4-0.2,1.7
			c-0.333,0.333-0.917,0.4-1.75,0.2c-0.933-0.233-2.017-0.917-3.25-2.05c-0.7-0.633-1.633-1.566-2.8-2.8
			c-0.667-0.6-1.583-1.333-2.75-2.2c-1.4-1-2.333-1.7-2.8-2.1c0.5,0.5,0.883,0.9,1.15,1.2c0.534,0.567,0.85,1,0.95,1.3
			c-0.333-0.066-0.683-0.25-1.05-0.55c-0.467-0.433-0.767-0.683-0.9-0.75c-0.533-0.267-1.4-0.483-2.6-0.65
			c-0.534-0.167-1.15-0.517-1.85-1.05c-0.767-0.6-1.367-1-1.8-1.2c-2-0.833-3.433-1.583-4.3-2.25c-1.4-1.067-2.183-2.35-2.35-3.85
			c-0.267,0.467-0.483,1.05-0.65,1.75c0.3-1.533,1.05-2.7,2.25-3.5c0.5-0.333,0.717-0.5,0.65-0.5c-0.167,0-0.133-0.167,0.1-0.5
			l-0.1,0.2c0.6,0.333,1.583,0.716,2.95,1.15c1.467,0.467,2.3,0.75,2.5,0.85c0.566,0.233,1.233,0.583,2,1.05
			c1.1,0.7,1.717,1.083,1.85,1.15c0.066-0.767-0.767-1.667-2.5-2.7c-0.9-0.534-2.117-1.184-3.65-1.95l-1.6-1.15
			C13.483,8.717,13,9.183,12.5,9.75c0.3-0.4,0.817-0.9,1.55-1.5L15,7.5c1-0.533,2.183-0.817,3.55-0.85c0.067,0,0.15,0,0.25,0
			c0.7-0.033,1.434,0.017,2.2,0.15c0.133,0,0.25,0.017,0.35,0.05c0.767,0.133,1.483,0.283,2.15,0.45c0.833,0.233,1.6,0.517,2.3,0.85
			c0.067,0.033,0.133,0.067,0.2,0.1s0.133,0.067,0.2,0.1c0.733,0.367,1.483,0.8,2.25,1.3c0.3,0.2,0.617,0.417,0.95,0.65
			c3.867,2.633,7.65,6.45,11.35,11.45c3,4.067,5.783,10.133,8.35,18.2C50.767,45.15,52.033,50.1,52.9,54.8z M25.75,13.8
			c-0.033,0.4,0.133,0.7,0.5,0.9c0.333,0.167,0.733,0.216,1.2,0.15c0.5,0.5,0.883,0.85,1.15,1.05c0.467,0.333,0.95,0.417,1.45,0.25
			c0.2-1.6-0.167-2.717-1.1-3.35c-0.567-0.433-1.733-0.966-3.5-1.6l0.65,1c-0.9-0.067-1.467,0.033-1.7,0.3
			C24.567,12.933,25.017,13.367,25.75,13.8z M21.45,16.5l-1.95,0.05c-0.333,0.867-0.05,1.45,0.85,1.75
			c0.633,0.2,1.417,0.25,2.35,0.15c0.033-0.167,0.05-0.7,0.05-1.6L21.45,16.5z M32.9,17.8c0.067-0.367-0.083-0.8-0.45-1.3h-1
			c-0.6,0.633-0.7,1.15-0.3,1.55c-0.1,0.267-0.1,0.517,0,0.75c0.667,0.1,1.167,0.083,1.5-0.05c0.434-0.2,0.7-0.617,0.8-1.25
			L32.9,17.8z M8.9,23.65c0,0.434,0.117,0.883,0.35,1.35c-0.067-0.1-0.117-0.2-0.15-0.3c-0.167-0.4-0.25-0.883-0.25-1.45
			c0-0.367,0.033-0.767,0.1-1.2c0.033-0.233,0.066-0.45,0.1-0.65c0.167-1.167,0.233-1.883,0.2-2.15l0.05,0.1
			c0.034,0.367-0.033,1.033-0.2,2C8.933,22.35,8.867,23.117,8.9,23.65z M10.55,27.15v-0.025c0.048,0.072,0.098,0.147,0.15,0.225
			C10.633,27.283,10.583,27.217,10.55,27.15z M53.15,56.25c0.133,0.7,0.25,1.417,0.35,2.15l-0.3-1.8l-0.05,0.1V56.25z M57.9,68.65
			c0.433,1.267,0.8,2.6,1.1,4c-0.233-0.867-0.467-1.717-0.7-2.55C58.167,69.6,58.033,69.117,57.9,68.65z M47.7,58.15
			c0.066-0.6,0.1-1,0.1-1.2c0-0.467-0.116-0.833-0.35-1.1h-1c-0.434,0.566-0.517,1.15-0.25,1.75
			C46.434,58.2,46.934,58.383,47.7,58.15z M59.45,88.625v0.425c-0.066,0.934-0.084,1.517-0.05,1.75l-0.051,0.3
			C59.316,91.233,59.2,91.533,59,92c-0.167,0.4-0.25,0.75-0.25,1.05c0.8-0.867,1.533-1.3,2.2-1.3l-0.15-0.1l-0.05-0.05
			c2.1,1.233,3.983,3.383,5.65,6.45c0.666,1.233,1.25,2.5,1.75,3.8c-0.301-0.733-0.65-1.517-1.051-2.35L66.35,98
			c-0.833-1.5-1.733-2.8-2.699-3.9c0.199,0.6,0.199,1.133,0,1.6c-0.267-0.034-0.9-0.233-1.9-0.6c-0.733-0.233-1.384-0.3-1.95-0.2
			v0.05l-0.3-0.05c-0.2,2.533-0.217,4.767-0.05,6.7v0.9c0,0.233-0.033,1.283-0.101,3.15c-0.033,1.333-0.017,2.416,0.051,3.25
			l0.6,2.25c0.934,2.933,2.25,5.616,3.95,8.05l-0.15-0.15c-2.467-3.566-4.066-7.583-4.8-12.05c-0.6-3.8-1.2-8.983-1.8-15.55
			c-0.5-5.833-0.9-9.4-1.2-10.7c-0.233-1-0.6-2.05-1.1-3.15c0.199-0.267,0.5-0.333,0.899-0.2c0.4,0.133,0.884,0.917,1.45,2.35
			c0.3,0.733,0.517,1.617,0.65,2.65c0.166,1.667,0.267,2.567,0.3,2.7c0.166-0.934,0.383-1.5,0.649-1.7L59,83.8l0.25,2.35L59.1,85.1
			v1.75c0,0.167,0.067,0.483,0.2,0.95C59.393,88.077,59.442,88.352,59.45,88.625z M66.3,99.55c-0.3-0.366-0.633-0.7-1-1
			c0.267,0.2,0.5,0.4,0.7,0.601L66.3,99.55z M60.85,107.65c0.067,0.142,0.15,0.274,0.25,0.399v0.05
			C60.999,107.949,60.916,107.799,60.85,107.65z M66.8,122.5c-0.566-0.7-1.116-1.566-1.649-2.6c0.133,0.233,0.283,0.483,0.449,0.75
			l1.65,2.35L67,122.75l-0.025-0.05L66.8,122.5z M60.7,101.25c-0.033,0.967-0.033,1.75,0,2.35c-0.033-0.433-0.05-0.866-0.05-1.3
			C60.65,101.934,60.667,101.583,60.7,101.25z M46.05,108.9l-0.7,1.3l-0.1-0.2l0.35-0.3L46.05,108.9z M46.05,116.75
			c0.3,2.5,0.8,5.217,1.5,8.15c0.8,3.3,1.533,5.666,2.2,7.1c0.3,0.6,1.816,3.1,4.55,7.5c1.533,2.5,2.684,4.917,3.45,7.25l-1.05-1
			c-0.434-0.434-0.75-0.816-0.95-1.15l0.05,1.5l-0.5-0.6c0.566,1,1.017,1.967,1.351,2.9c-0.767-1.9-1.934-3.934-3.5-6.101
			c-0.301-0.399-0.584-0.8-0.851-1.2l0.2,0.25c-0.1-0.199-0.217-0.616-0.35-1.25c-0.101-0.533-0.25-0.949-0.45-1.25
			c-0.2-0.366-0.566-0.866-1.101-1.5c-0.566-0.666-0.949-1.149-1.149-1.449c-0.167-0.233-0.834-1.4-2-3.5
			c-0.566-1.301-1.25-2.65-2.05-4.051c-0.034-0.267-0.017-0.683,0.05-1.25c0.033-0.566,0.033-0.983,0-1.25
			c-0.066-0.399-0.217-0.916-0.45-1.55c-0.366-0.967-0.566-1.483-0.6-1.55l0.05-2.5c-0.434,0.733-0.617,2.134-0.55,4.2L43.8,123.6
			c-0.6,1.167-0.95,3.45-1.05,6.851c0,0.934-0.1,2.184-0.3,3.75c-0.134,1.467-0.167,3.25-0.101,5.35
			c-0.166,3.066-0.25,4.834-0.25,5.3c0,0.567,0.067,1.5,0.2,2.801c0.033,0.5,0.066,0.966,0.101,1.399l0.05,6.601
			c-0.367-0.267-0.684-0.7-0.95-1.301c-0.233-0.566-0.366-1.1-0.4-1.6c0,0.9,0.15,2.1,0.45,3.6c0.3,1.767,0.483,2.967,0.55,3.601
			v3.899c0,0.4-0.066,1.134-0.199,2.2c-0.101,0.9-0.134,1.617-0.101,2.15c0,0.333,0.134,0.916,0.4,1.75c0.2,0.7,0.267,1.3,0.2,1.8
			v0.05c-0.667-0.066-1.45,0.601-2.351,2c-0.467,0.767-1.033,1.783-1.7,3.05l-0.55,1.101c-1.2,4.233-1.866,7.45-2,9.649l-0.05,1.65
			c0.066,2.134,0.417,4.2,1.05,6.2c-0.066-0.134-0.116-0.283-0.149-0.45c-0.7-2.333-1-4.75-0.9-7.25
			c0.1-2.333,0.816-5.767,2.15-10.3c1.5-5,2.283-7.733,2.35-8.2c0.233-1.5,0.5-4.417,0.8-8.75c-0.7-4.6-1.033-9.833-1-15.7
			c0.066-4.399,0.384-10.666,0.95-18.8c0.233-2.733,0.634-5.783,1.2-9.15c0.066-0.466,0.3-1.683,0.7-3.649H43.1L43,112.85v-0.05
			c0.233-0.066,0.483-0.066,0.75,0c0.033,0.334,0.033,1,0,2c0,0.867,0.033,1.533,0.1,2C44.75,116.233,45.483,116.217,46.05,116.75z
			 M44.05,130.9c-0.031,0.031-0.048,0.081-0.05,0.149c0-0.403,0.017-0.753,0.05-1.05C44.05,130.267,44.05,130.566,44.05,130.9z
			 M48.25,134.5c-0.134-0.366-0.267-0.75-0.4-1.15l0.301,0.75L48.25,134.5z M26.05,134.35v-0.199c0.034-0.167,0.067-0.317,0.1-0.45
			C26.117,133.934,26.083,134.15,26.05,134.35z M25.35,143.45c-0.033-0.7-0.05-1.217-0.05-1.55c0-0.634,0.034-1.25,0.1-1.851
			C25.333,140.85,25.317,141.983,25.35,143.45z M39.9,177.5c-0.134,0.267-0.25,0.533-0.351,0.8c0.033-0.166,0.084-0.316,0.15-0.45
			C39.767,177.717,39.833,177.6,39.9,177.5z M41.45,173.4c0.166-0.267,0.333-0.467,0.5-0.601v0.05
			C41.783,172.983,41.616,173.167,41.45,173.4z"/>
		<path style="fill-rule:evenodd;clip-rule:evenodd;fill:#5B4E3E;" d="M44.75,36c0.267,1,0.05,1.617-0.65,1.85
			c-0.767,0.267-1.216,0.033-1.35-0.7V35.2l0.35-0.35C43.967,34.65,44.517,35.033,44.75,36z M49.35,40.8
			c0.567,1.7,1.134,3.684,1.7,5.95c-1.399-1.833-2.283-2.917-2.649-3.25L48.3,43.4l-0.1-0.15l-0.15-0.1c-0.3-0.3-0.45-0.5-0.45-0.6
			c-0.033-0.1,0.051-0.35,0.25-0.75C48.15,41.1,48.65,40.767,49.35,40.8z M43.1,45.2l0.65-0.35c0.833,0.833,1.366,1.733,1.6,2.7
			c0.2,0.833,0.217,1.917,0.051,3.25c-1.367,0.4-2.351-0.316-2.95-2.15C41.85,46.817,42.066,45.667,43.1,45.2z M45.25,71.7
			c-0.066-0.467-0.15-0.95-0.25-1.45c-1.134-6.467-3.017-12.267-5.65-17.4l-0.3-0.5c-0.1-0.2-0.2-0.383-0.3-0.55
			c0.066-1.6,0.066-3.2,0-4.8c0.3,2.933,1.233,5.517,2.8,7.75c1.167,1.7,2.134,4.017,2.9,6.95c0.434,1.833,0.7,3.017,0.8,3.55
			c0.3,1.867,0.366,3.55,0.2,5.05L45.25,71.7z M25.35,143.45l0.15,5.05c0.133,3.066,0.167,6.316,0.1,9.75v1.65
			c-0.033,0.566-0.05,1.133-0.05,1.699l-0.1-0.05c-0.167-3.399-0.483-7-0.95-10.8c-0.1-0.934-0.25-1.884-0.45-2.85v-0.551
			c-0.066-3.166,0.017-5.533,0.25-7.1c0.133-1,0.267-1.717,0.4-2.15c0.367-1.233,0.583-2.3,0.65-3.199
			c0.033-0.534,0.05-0.95,0.05-1.25c0.033-0.567,0.133-0.95,0.3-1.15l0.3,2v0.05c-0.233,1.134-0.4,2.283-0.5,3.45l-0.05,1.15
			c-0.034,0.1-0.05,0.199-0.05,0.3v0.6c-0.066,0.601-0.1,1.217-0.1,1.851C25.3,142.233,25.317,142.75,25.35,143.45z M42.1,109.2
			c-0.6,0.434-1.283,1.017-2.05,1.75l-2.399,2.5c-0.034,0.033-0.051,0.066-0.051,0.1c-0.1,0.101-0.199,0.2-0.3,0.3
			c-0.233,0.267-0.467,0.534-0.7,0.801c-2.633,3.1-4.883,6.3-6.75,9.6c0.233,0.267,0.417,0.6,0.55,1c-0.3,0-0.533-0.184-0.7-0.55
			c-0.233-0.467-0.25-1.134-0.05-2c0.167-0.834,0.45-1.566,0.85-2.2c1.367-2,2.783-3.517,4.25-4.55c1-0.7,2.05-1.684,3.15-2.95
			c1.666-1.9,2.616-2.967,2.85-3.2l0.5-0.55c0.6-0.6,1.083-1,1.45-1.2l-0.25,0.45c-0.134,0.233-0.233,0.45-0.3,0.65
			C42.116,109.15,42.1,109.167,42.1,109.2z M51.1,60.25c-0.133-0.6-0.333-1.283-0.6-2.05l-1-3.75c-0.6-2.034-0.967-3.534-1.1-4.5
			c0.3,0.767,0.666,1.566,1.1,2.4l1.6,2.55l1.15,1.85l1.3,2.05l0.15,0.95l-0.25,0.1c0,0.566,0.316,1.95,0.95,4.15
			c0.466,2.067,0.283,3.35-0.551,3.85c-0.333-0.567-0.583-1.4-0.75-2.5c-0.166-1.2-0.3-2.067-0.399-2.6
			c-0.267-1.6-0.467-2.8-0.601-3.6c-0.267-1.5-0.6-2.667-1-3.5c-0.033,0.8,0.067,1.934,0.301,3.4c0.233,1.6,0.35,2.767,0.35,3.5v2.6
			c-0.033-0.933-0.116-1.917-0.25-2.95L51.1,60.25z M51.75,76.5c-0.267-1.233-0.366-2.567-0.3-4l0.05-1.65
			c0.134-2.533,0.217-4.217,0.25-5.05V76.5z M59,83.65c-0.3-1.566-0.35-2.717-0.15-3.45c0.301,0.233,0.467,0.383,0.5,0.45
			c-0.133-0.566-0.199-1.316-0.199-2.25c0.033-1.066,0.017-1.816-0.051-2.25c-0.033-0.9-0.233-1.816-0.6-2.75
			c-0.167-0.433-0.467-0.933-0.9-1.5c-0.6-0.733-0.949-1.183-1.05-1.35l-0.2-0.05c-0.699-0.1-1.216,0.05-1.55,0.45
			c-0.267,0.3-0.467,0.833-0.6,1.6c-0.066,0.333-0.066,0.9,0,1.7c0,0.467,0.033,1.183,0.1,2.15v0.05l-0.3-0.5V75.9
			c-0.066-3-0.017-5.233,0.15-6.7c1.3-0.067,2.166-0.05,2.6,0.05c0.3,0.067,0.717,0.267,1.25,0.6l0.3,0.25
			c0.233,0.833,0.467,1.683,0.7,2.55l1.25,8.6c0.134,1.4,0.233,2.733,0.3,4l-0.1-0.05c0.066-0.667-0.033-1.467-0.3-2.4
			c-0.267-1-0.601-1.65-1-1.95C59.017,81.75,58.967,82.683,59,83.65z M27.45,14.85c-0.467,0.066-0.867,0.017-1.2-0.15
			c-0.367-0.2-0.533-0.5-0.5-0.9l0.1-0.25l1.9-0.05v0.35c0.1,0.267,0.083,0.583-0.05,0.95L27.45,14.85z M31.15,18.05V17.9l1.6-0.05
			l0.15-0.05l0.55-0.3c-0.1,0.633-0.367,1.05-0.8,1.25c-0.333,0.133-0.833,0.15-1.5,0.05C31.05,18.567,31.05,18.317,31.15,18.05z
			 M31.85,31.15c0.367,0.6,0.566,1.167,0.6,1.7c0.1,1.667-0.117,2.65-0.65,2.95c-0.2,0.1-0.566,0.15-1.1,0.15
			c-0.667-0.067-1.067-0.083-1.2-0.05c0.033,0.233,0,0.617-0.1,1.15c-0.767,0.067-1.633-0.6-2.6-2
			c-0.533-0.733-1.216-1.75-2.05-3.05c-1.133-1.467-2.983-2.933-5.55-4.4c0.3,0.3,0.783,0.833,1.45,1.6
			c0.567,0.733,1.05,1.267,1.45,1.6c0.667,0.367,1.117,0.667,1.35,0.9c0.4,0.333,0.483,0.816,0.25,1.45
			c-0.8,0.067-1.65-0.2-2.55-0.8c-0.467-0.333-1.167-0.867-2.1-1.6c-0.333-0.2-1.083-0.517-2.25-0.95
			c-0.867-0.3-1.55-0.733-2.05-1.3s-1.467-1.367-2.9-2.4c-1.434-1-2.417-1.817-2.95-2.45c-0.033-0.533,0.033-1.3,0.2-2.3
			c0.167-0.967,0.233-1.633,0.2-2l0.45,0.6c0.433,0.4,1.317,1.033,2.65,1.9c1.2,0.767,2.067,1.433,2.6,2
			c-0.133-0.033-0.333-0.033-0.6,0s-0.45,0.05-0.55,0.05c-0.133,0.3-0.133,0.6,0,0.9c0.6,0.3,2.1,0.784,4.5,1.45
			c1.9,0.533,3.367,1.2,4.4,2c1.733,1.5,3.083,2.583,4.05,3.25c1.3,1,2.067,1.567,2.3,1.7c0.2,0.1,0.533,0.2,1,0.3
			c0.433,0.067,0.75,0.167,0.95,0.3c0.167-1.267-0.15-2.267-0.95-3c-0.5-0.433-1.467-1.083-2.9-1.95c-0.733-0.533-1.733-1.2-3-2
			c-0.1-0.067-0.383-0.283-0.85-0.65c-1.567-0.833-2.517-1.5-2.85-2c0.5,0.033,1.017,0.267,1.55,0.7c0.1,0.1,0.534,0.533,1.3,1.3
			c0.833,0.433,1.417,0.767,1.75,1c1.967,1.5,3.3,2.383,4,2.65C30.5,30.45,31.417,30.883,31.85,31.15z M35,33.15
			c0.2-0.333,0.25-0.75,0.15-1.25c0.699,0,1.3-0.217,1.8-0.65c0.434-0.4,0.717-0.95,0.85-1.65c0.2-1.367,0.15-2.417-0.149-3.15
			c0.633,0.9,0.8,2.1,0.5,3.6c-0.301,1.4-0.867,2.434-1.7,3.1l-0.25,0.2c-0.033-0.133-0.167-0.317-0.4-0.55
			C35.634,32.933,35.366,33.05,35,33.15z M33.9,33.35c-0.333,0-0.6-0.05-0.8-0.15c-0.3-0.167-0.5-0.417-0.6-0.75
			c-0.067-0.367-0.167-0.684-0.3-0.95l-0.1-0.2l1.05,0.9C33.45,32.733,33.7,33.117,33.9,33.35z M35.5,46.65
			c-0.767-1.066-1.583-2.1-2.45-3.1c-0.333-2.133-0.966-3.5-1.9-4.1c0.267-0.267,0.5-0.684,0.7-1.25
			c0.3-0.833,0.483-1.317,0.55-1.45c0.033,0.6,0.35,1.417,0.95,2.45l0.85,1.5c0.533,1.233,0.833,1.966,0.899,2.2
			C35.733,44.667,35.866,45.917,35.5,46.65z M51.85,88.8l-0.399,2.35c-0.101,0.533-0.2,1.083-0.3,1.65l-2.45,11.25
			c0.1-0.566,0.149-1.184,0.149-1.85c0-0.033,0-0.066,0-0.101c0-0.066,0-0.133,0-0.199c-0.066-1.867-0.1-3.234-0.1-4.101
			c0-1.1,0.167-2.383,0.5-3.85c0.4-1.6,0.684-2.833,0.85-3.7c0.5-1.633,0.834-2.867,1-3.7c0.2-0.9,0.334-2.167,0.4-3.8
			c0.066-1.9,0.15-3.183,0.25-3.85v2.5c0,0.4-0.033,1.467-0.1,3.2C51.583,86.367,51.65,87.767,51.85,88.8z M65.15,119.9
			c0.533,1.033,1.083,1.899,1.649,2.6l-2.25-2.45c-0.2-0.267-0.399-0.55-0.6-0.85c-1.7-2.434-3.017-5.117-3.95-8.05l0.1-0.2
			c0.467,0.2,0.834,0.733,1.101,1.6l0.55,1.95c0.3,0.667,0.95,1.467,1.95,2.4l0.05,0.05c0.233,0.566,0.483,1.1,0.75,1.6L65.15,119.9
			z M62.25,96.25c0.833,0.6,1.45,1.033,1.85,1.3c0.767,0.5,1.434,0.717,2,0.65l0.25-0.2l0.75,1.5c-0.267-0.033-0.633-0.15-1.1-0.35
			c-0.2-0.2-0.434-0.4-0.7-0.601l-0.8-0.6c-0.434-0.333-0.9-0.633-1.4-0.9L62.25,96.25z M47.8,76.15c0,1.667-0.017,2.667-0.05,3
			c-0.967,0.3-1.45-0.233-1.45-1.6s0.467-2.033,1.4-2C47.8,75.783,47.833,75.983,47.8,76.15z M43.85,108.35l0.4-0.399
			c0.3,0.133,0.517,0.416,0.65,0.85c0.066,0.233,0.183,0.634,0.35,1.2l0.1,0.2l0.7-1.3c0.601-0.867,1.05-1.534,1.351-2
			c0.5-0.767,0.85-1.45,1.05-2.051l0.05-0.05c-0.167,0.566-0.333,1.134-0.5,1.7l-1.65,7.5c-0.133,0.6-0.25,1.217-0.35,1.85
			c-0.333-0.399-0.533-0.733-0.6-1c-0.034-0.733-0.067-1.183-0.101-1.35c-0.066-0.3-0.467-0.517-1.2-0.65l-0.35-0.05
			c-0.267-0.066-0.517-0.066-0.75,0h-0.05l0.85-4.1C43.833,108.6,43.85,108.483,43.85,108.35z M42.4,149.05l-0.051-9.5
			c-0.066-2.1-0.033-3.883,0.101-5.35c0.2-1.566,0.3-2.816,0.3-3.75c0.1-3.4,0.45-5.684,1.05-6.851l0.101,0.851
			c0.133,1.6,0.199,2.7,0.199,3.3c0,0.033,0,0.083,0,0.15c0,0.033,0,0.083,0,0.149L44.05,130c-0.033,0.297-0.05,0.646-0.05,1.05
			c0,0.033,0,0.084,0,0.15v0.05c-0.9,9.5-1.25,18.267-1.05,26.3c-0.001,0.034-0.018,0.085-0.05,0.15
			c-0.233,0.767-0.384,1.583-0.45,2.45v-4.5L42.4,149.05z M26.15,133.7c-0.033,0.133-0.066,0.283-0.1,0.45
			c0-2.5,0.267-4.567,0.8-6.2c0.4,0.2,0.7,0.666,0.9,1.399c-0.067-0.066-0.15-0.133-0.25-0.199c-0.5,1.333-0.917,2.699-1.25,4.1
			L26.15,133.7z M33.15,136.45c0.067,0.399,0.1,0.934,0.1,1.6v0.45c0,2.5-0.417,6.333-1.25,11.5v-5.5c0-2.134-0.05-3.667-0.15-4.6
			c-0.167-1.4-0.533-3.2-1.1-5.4c-0.167-0.7-0.367-1.333-0.6-1.9c-0.167-0.3-0.333-0.6-0.5-0.899l0.15,0.149
			c0.767,1.2,1.367,2.117,1.8,2.75C32.3,135.434,32.817,136.05,33.15,136.45z M58.1,147.95c0.067,0.166,0.117,0.35,0.15,0.55
			l0.65,7.45c-0.034,1.399-0.184,2.833-0.45,4.3v-0.7c0.033-1.2,0.05-2.1,0.05-2.7c0-1.066-0.1-1.966-0.3-2.699L58,153.2
			C57.866,150.8,57.9,149.05,58.1,147.95z"/>
		
			<radialGradient id="SVGID_1_" cx="28.7002" cy="5.75" r="4.9875" gradientTransform="matrix(1 0 0 -1 0 11.5)" gradientUnits="userSpaceOnUse">
			<stop  offset="0.0549" style="stop-color:#FEDEB1;stop-opacity:0.0902"/>
			<stop  offset="0.2392" style="stop-color:#FEDEB1;stop-opacity:0.0902"/>
		</radialGradient>
		<path style="fill-rule:evenodd;clip-rule:evenodd;fill:url(#SVGID_1_);" d="M27,3.4c0.167,0.533,0.183,1.217,0.05,2.05
			c-1.066,0.267-1.833,0.2-2.3-0.2c-0.4-0.367-0.617-1.05-0.65-2.05l1.35-0.7C26.25,2.367,26.767,2.667,27,3.4z"/>
		
			<radialGradient id="SVGID_2_" cx="46.2998" cy="49.75" r="50.375" gradientTransform="matrix(1 0 0 -1 0 99.5)" gradientUnits="userSpaceOnUse">
			<stop  offset="0.0784" style="stop-color:#211C15;stop-opacity:0.498"/>
			<stop  offset="0.2039" style="stop-color:#211C15;stop-opacity:0.498"/>
		</radialGradient>
		<path style="fill-rule:evenodd;clip-rule:evenodd;fill:url(#SVGID_2_);" d="M29.4,10.3c-0.333-0.233-0.65-0.45-0.95-0.65
			c0.066-0.933,0.05-1.717-0.05-2.35c-0.6,0.434-1.333,0.784-2.2,1.05c-0.067-0.033-0.133-0.067-0.2-0.1s-0.133-0.067-0.2-0.1
			c0.567-0.1,1.117-0.367,1.65-0.8c0.2-0.167,0.883-0.85,2.05-2.05c0.5,0.567,0.617,1.534,0.35,2.9
			C29.783,8.733,29.633,9.433,29.4,10.3z M21,6.8c0.133-0.5,0.267-0.9,0.4-1.2c0.4-1,0.883-1.133,1.45-0.4
			c0.233,0.3,0.433,0.95,0.6,1.95c0,0.067,0.017,0.117,0.05,0.15c-0.667-0.167-1.383-0.316-2.15-0.45C21.25,6.817,21.133,6.8,21,6.8
			z M18.55,6.65c-0.267-0.367-0.566-0.767-0.9-1.2C16.683,4.117,15.733,3.5,14.8,3.6c-0.033,0.4,0.017,1.333,0.15,2.8
			C14.983,6.8,15,7.167,15,7.5l-0.95,0.75c-0.733,0.6-1.25,1.1-1.55,1.5c-0.233,0.333-0.267,0.5-0.1,0.5
			c0.067,0-0.15,0.167-0.65,0.5c-1.2,0.8-1.95,1.967-2.25,3.5c-0.067,0.267-0.117,0.533-0.15,0.8C9.183,15.417,9,15.833,8.8,16.3
			c-0.4,0.767-0.883,1.367-1.45,1.8c-0.633,0.467-1.367,0.767-2.2,0.9c-0.467,0.067-1.25,0.15-2.35,0.25
			c0.233,1.233,1.617,1.9,4.15,2c0.8,0.033,1.5,0.083,2.1,0.15c-0.033,0.2-0.066,0.417-0.1,0.65c-0.067,0.434-0.1,0.833-0.1,1.2
			c-0.233-0.433-0.633-0.767-1.2-1c-0.533-0.233-1.667-0.467-3.4-0.7c-3.2-0.4-4.583-1.633-4.15-3.7c0.333-0.033,1.017,0,2.05,0.1
			c0.9,0.033,1.583,0,2.05-0.1c1.6-0.333,2.55-0.767,2.85-1.3c0.333-0.533,0.35-1.417,0.05-2.65c-0.3-1.3-0.367-2.183-0.2-2.65
			c1.2,0.067,2.2-0.367,3-1.3c0.833-1.233,1.483-2.15,1.95-2.75c0.6-0.733,0.967-1.284,1.1-1.65c0.2-0.466,0.233-1.117,0.1-1.95
			c-0.1-0.667-0.383-1.317-0.85-1.95C11.933,1.317,11.517,0.767,10.95,0C11.483,0.667,12.5,1.317,14,1.95
			c1.767,0.767,2.917,1.383,3.45,1.85c0.566,0.5,0.933,1,1.1,1.5c0.167,0.367,0.25,0.817,0.25,1.35
			C18.7,6.65,18.617,6.65,18.55,6.65z M18.65,36.95c-0.033,0.267-0.1,0.633-0.2,1.1c-0.034,0.167-0.05,0.333-0.05,0.5
			c-0.1,0.067-0.183,0.133-0.25,0.2c-0.367,0.333-0.6,0.617-0.7,0.85c-0.034,0.066-0.117,0.75-0.25,2.05
			c-0.133,1.1-0.233,1.75-0.3,1.95c-0.3,0.867-0.75,1.1-1.35,0.7c0.333-0.566,0.45-1.566,0.35-3c-0.066-1.167-0.233-2.183-0.5-3.05
			c-0.033-0.1-0.066-0.2-0.1-0.3c0.667-0.934,0.934-2.517,0.8-4.75l-0.65,0.65c-0.467,0.066-0.7,0.383-0.7,0.95
			c0,0.3-0.017,0.767-0.05,1.4c-0.067,0.167-0.133,0.333-0.2,0.5c-0.333-0.133-0.667,0.05-1,0.55c-1.133,1.667-1.817,2.533-2.05,2.6
			c0.2-2.267,0.233-3.867,0.1-4.8c-0.2-1.1-0.75-1.85-1.65-2.25l-0.45-0.3c-0.167-0.033-0.333-0.017-0.5,0.05
			c-0.2-0.066-0.417-0.1-0.65-0.1c0.233-0.233,0.417-0.65,0.55-1.25c0.033-0.233,0.066-0.434,0.1-0.6c0.133-0.133,0.3-0.267,0.5-0.4
			L8.85,30c-0.033-0.067-0.067-0.133-0.1-0.2c-0.3-0.333-1-0.483-2.1-0.45c-0.233,0-0.5,0.017-0.8,0.05
			c0.333-0.066,0.717-0.183,1.15-0.35c1.167-0.466,1.883-0.983,2.15-1.55c0.233-0.467,0.267-0.733,0.1-0.8
			c-0.3-0.1-0.467-0.267-0.5-0.5c-0.067-0.3-0.033-0.583,0.1-0.85s0.217-0.483,0.25-0.65c0.033,0.1,0.083,0.2,0.15,0.3l1.05,1.75
			c0.067,0.1,0.133,0.2,0.2,0.3c0.022,0.022,0.039,0.047,0.05,0.075v0.025c-0.033,0.033-0.066,0.067-0.1,0.1
			c-0.4,0.533-0.6,0.867-0.6,1c0.033,0.167,0.316,0.5,0.85,1c0.867,0.5,1.417,0.967,1.65,1.4c0.267,0.5,0.433,1.434,0.5,2.8
			c0.066,1.133,0.017,1.95-0.15,2.45c1-1.9,1.483-3.35,1.45-4.35c0.533-0.1,1.05-0.1,1.55,0c0.466,0.967,0.733,1.833,0.8,2.6
			c0.367-0.467,0.567-0.767,0.6-0.9c0.5,0.4,0.75,1.117,0.75,2.15c0.033,0.6,0.017,1.417-0.05,2.45
			C18,37.817,18.283,37.517,18.65,36.95z M25.95,37c-0.067,0.033-0.117,0.083-0.15,0.15c0-0.1,0.017-0.167,0.05-0.2
			C25.883,36.95,25.917,36.967,25.95,37z M25.1,38.85c0,0.2-0.033,1.1-0.1,2.7c-0.067,1.067-0.167,1.95-0.3,2.65
			c-0.4,2.033-0.617,3.233-0.65,3.6c-0.9,0.367-1.367-0.316-1.4-2.05c0.133-2,0.184-3.217,0.15-3.65c-0.033-0.733-0.15-1.5-0.35-2.3
			c-0.3-1.167-0.667-1.8-1.1-1.9c-0.267-0.1-0.5-0.05-0.7,0.15c-0.1,0.133-0.167,0.284-0.2,0.45l-1.5-2.05
			c0.066-0.1,0.133-0.217,0.2-0.35c0.533-0.9,1.267-1.083,2.2-0.55c0.4,0.233,0.917,1,1.55,2.3
			C23.333,38.683,24.067,39.017,25.1,38.85z"/>
		
			<radialGradient id="SVGID_3_" cx="41.75" cy="40.25" r="42.3125" gradientTransform="matrix(1 0 0 -1 0 80.5)" gradientUnits="userSpaceOnUse">
			<stop  offset="0.0549" style="stop-color:#000000;stop-opacity:0.6"/>
			<stop  offset="0.2392" style="stop-color:#000000;stop-opacity:0.6"/>
		</radialGradient>
		<path style="fill-rule:evenodd;clip-rule:evenodd;fill:url(#SVGID_3_);" d="M26.2,8.35c0.867-0.267,1.6-0.617,2.2-1.05
			c0.1,0.633,0.117,1.417,0.05,2.35C27.683,9.15,26.933,8.717,26.2,8.35z M15,7.5c0-0.333-0.017-0.7-0.05-1.1
			C14.817,4.933,14.767,4,14.8,3.6c0.934-0.1,1.883,0.517,2.85,1.85c0.333,0.433,0.633,0.833,0.9,1.2C17.183,6.683,16,6.967,15,7.5z
			 M9.35,15.05c-0.267,1.633-0.3,3.034-0.1,4.2c0.033,0.267-0.033,0.983-0.2,2.15c-0.6-0.066-1.3-0.117-2.1-0.15
			c-2.534-0.1-3.917-0.767-4.15-2c1.1-0.1,1.883-0.183,2.35-0.25c0.833-0.133,1.567-0.433,2.2-0.9c0.566-0.434,1.05-1.033,1.45-1.8
			C9,15.833,9.183,15.417,9.35,15.05z M10.55,27.15c0.034,0.067,0.083,0.133,0.15,0.2c0.066,0.1,0.133,0.183,0.2,0.25l0.25,0.35
			c1.233,1.3,3.35,2.65,6.35,4.05l7.9,4.6c0.167,0.1,0.317,0.217,0.45,0.35c-0.033,0.033-0.05,0.1-0.05,0.2
			c-0.133,0.5-0.267,1.05-0.4,1.65c-0.1,0.034-0.2,0.05-0.3,0.05c-1.033,0.167-1.767-0.167-2.2-1c-0.633-1.3-1.15-2.067-1.55-2.3
			c-0.934-0.533-1.667-0.35-2.2,0.55c-0.066,0.133-0.133,0.25-0.2,0.35l-0.2-0.25c0,0.1-0.033,0.35-0.1,0.75
			c-0.367,0.566-0.65,0.867-0.85,0.9c0.067-1.033,0.083-1.85,0.05-2.45c0-1.033-0.25-1.75-0.75-2.15
			c-0.033,0.133-0.233,0.433-0.6,0.9c-0.067-0.767-0.333-1.633-0.8-2.6c-0.5-0.1-1.017-0.1-1.55,0c0.033,1-0.45,2.45-1.45,4.35
			c0.167-0.5,0.216-1.316,0.15-2.45c-0.067-1.367-0.233-2.3-0.5-2.8c-0.233-0.433-0.783-0.9-1.65-1.4c-0.534-0.5-0.817-0.833-0.85-1
			c0-0.133,0.2-0.467,0.6-1C10.483,27.217,10.517,27.183,10.55,27.15z"/>
		
			<radialGradient id="SVGID_4_" cx="20.6001" cy="3.3501" r="2.325" gradientTransform="matrix(1 0 0 -1 0 6.7002)" gradientUnits="userSpaceOnUse">
			<stop  offset="0.0549" style="stop-color:#FEDEB1;stop-opacity:0.0902"/>
			<stop  offset="0.2392" style="stop-color:#FEDEB1;stop-opacity:0.0902"/>
		</radialGradient>
		<path style="fill-rule:evenodd;clip-rule:evenodd;fill:url(#SVGID_4_);" d="M18.45,1.5l1.3,0.7c0.267,0.966,0.1,1.316-0.5,1.05
			S18.383,2.4,18.45,1.5z"/>
		
			<radialGradient id="SVGID_5_" cx="15.8501" cy="10.8999" r="13.8625" gradientTransform="matrix(1 0 0 -1 0 21.7998)" gradientUnits="userSpaceOnUse">
			<stop  offset="0.0549" style="stop-color:#FEDEB1;stop-opacity:0.0902"/>
			<stop  offset="0.2392" style="stop-color:#FEDEB1;stop-opacity:0.0902"/>
		</radialGradient>
		<path style="fill-rule:evenodd;clip-rule:evenodd;fill:url(#SVGID_5_);" d="M11.45,3.2c0,0.433,0.017,1.117,0.05,2.05
			c-0.033,0.767-0.183,1.4-0.45,1.9c-0.9,1.7-2.216,2.733-3.95,3.1c-2.467,0.567-3.8,0.433-4-0.4c-0.2-0.7,0.3-1.067,1.5-1.1
			c1.367,0.1,2.2,0.117,2.5,0.05C5.9,6.333,6.683,4.567,9.45,3.5L11.45,3.2z"/>
		
			<radialGradient id="SVGID_6_" cx="6.3999" cy="15.4502" r="4.1375" gradientTransform="matrix(1 0 0 -1 0 30.9004)" gradientUnits="userSpaceOnUse">
			<stop  offset="0.0549" style="stop-color:#FEDEB1;stop-opacity:0.0902"/>
			<stop  offset="0.2392" style="stop-color:#FEDEB1;stop-opacity:0.0902"/>
		</radialGradient>
		<path style="fill-rule:evenodd;clip-rule:evenodd;fill:url(#SVGID_6_);" d="M2.85,14.9c-0.367-0.433-0.35-0.967,0.05-1.6
			c0.333-0.566,0.733-0.933,1.2-1.1l1,1c-0.1,0.2-0.367,0.733-0.8,1.6C3.833,15.467,3.35,15.5,2.85,14.9z"/>
		
			<radialGradient id="SVGID_7_" cx="10.75" cy="28.8999" r="10.1" gradientTransform="matrix(1 0 0 -1 0 57.7998)" gradientUnits="userSpaceOnUse">
			<stop  offset="0.0549" style="stop-color:#FEDEB1;stop-opacity:0.0902"/>
			<stop  offset="0.2392" style="stop-color:#FEDEB1;stop-opacity:0.0902"/>
		</radialGradient>
		<path style="fill-rule:evenodd;clip-rule:evenodd;fill:url(#SVGID_7_);" d="M2.8,23.5c0.3-0.133,0.983-0.183,2.05-0.15
			c0.833,0.033,1.467-0.25,1.9-0.85l0.7,0.7c0,0.466,0.033,1.417,0.1,2.85c-0.066,1.267-0.433,2.067-1.1,2.4
			c-0.667,0.333-1.717,0.316-3.15-0.05c-1.533-0.4-2.133-1.017-1.8-1.85c0.733-0.1,1.283-0.183,1.65-0.25
			c0.7-0.133,1.133-0.367,1.3-0.7c-0.8-0.033-1.467-0.283-2-0.75C1.817,24.35,1.933,23.9,2.8,23.5z"/>
		<path style="fill-rule:evenodd;clip-rule:evenodd;fill:#43392C;" d="M42.7,108.05l0.899-1.1l0.5-0.5
			c1.434-1.5,2.317-2.517,2.65-3.05c0.366-0.601,0.65-1.2,0.85-1.801l0.2-0.649v0.55c-0.1,1.8-0.684,3.333-1.75,4.6l-1.8,1.851
			l-0.4,0.399l0.051-0.3L42.1,109.2c0-0.033,0.017-0.05,0.051-0.05c0.066-0.2,0.166-0.417,0.3-0.65L42.7,108.05z M32.1,31.3l0.1,0.2
			c0.133,0.267,0.233,0.583,0.3,0.95c0.1,0.333,0.3,0.583,0.6,0.75c0.2,0.1,0.467,0.15,0.8,0.15l1.1-0.2
			c0.366-0.1,0.634-0.217,0.8-0.35c0.233,0.233,0.367,0.417,0.4,0.55c0.166,0.5-0.217,1-1.15,1.5c-0.5,0.267-1.15,0.6-1.95,1
			c-0.233,0.2-0.467,0.5-0.7,0.9c-0.066,0.133-0.25,0.617-0.55,1.45c-0.2,0.566-0.434,0.983-0.7,1.25c0.934,0.6,1.567,1.966,1.9,4.1
			c-0.267-0.333-0.55-0.65-0.85-0.95c-1.9-2.067-3.983-3.934-6.25-5.6c-0.034-0.033-0.067-0.05-0.1-0.05
			c-0.133-0.133-0.283-0.25-0.45-0.35L17.5,32c-3-1.4-5.117-2.75-6.35-4.05L10.9,27.6c-0.066-0.067-0.133-0.15-0.2-0.25
			c-0.052-0.078-0.102-0.153-0.15-0.225c-0.011-0.028-0.028-0.053-0.05-0.075c-0.067-0.1-0.133-0.2-0.2-0.3L9.25,25
			c-0.233-0.467-0.35-0.917-0.35-1.35c0.533,0.633,1.517,1.45,2.95,2.45c1.433,1.033,2.4,1.833,2.9,2.4s1.183,1,2.05,1.3
			c1.167,0.434,1.917,0.75,2.25,0.95c0.934,0.733,1.633,1.267,2.1,1.6c0.9,0.6,1.75,0.867,2.55,0.8
			c0.233-0.633,0.15-1.117-0.25-1.45c-0.233-0.233-0.684-0.534-1.35-0.9c-0.4-0.333-0.883-0.867-1.45-1.6
			c-0.667-0.767-1.15-1.3-1.45-1.6c2.566,1.467,4.417,2.933,5.55,4.4c0.833,1.3,1.517,2.317,2.05,3.05c0.967,1.4,1.833,2.067,2.6,2
			c0.1-0.533,0.133-0.917,0.1-1.15c0.133-0.033,0.533-0.017,1.2,0.05c0.533,0,0.9-0.05,1.1-0.15c0.534-0.3,0.75-1.283,0.65-2.95
			c-0.034-0.533-0.233-1.1-0.6-1.7c-0.7-1.133-1.783-2-3.25-2.6C30.3,29.117,31.467,30.033,32.1,31.3z M53.7,59.75V60l3.7,7.2
			l0.5,1.45c0.133,0.467,0.267,0.95,0.399,1.45L58,69.85c-0.533-0.333-0.95-0.533-1.25-0.6c-0.434-0.1-1.3-0.117-2.6-0.05
			c-0.167,1.466-0.217,3.7-0.15,6.7v0.05l-0.35-0.65c-0.4,4.233-1,8.733-1.801,13.5c-0.199-1.033-0.267-2.433-0.199-4.2
			c0.066-1.733,0.1-2.8,0.1-3.2v-2.5v-2.4V65.8c0-0.1,0-0.2,0-0.3s0-0.217,0-0.35v-2.6c0-0.733-0.116-1.9-0.35-3.5
			c-0.233-1.466-0.334-2.6-0.301-3.4c0.4,0.833,0.733,2,1,3.5c0.134,0.8,0.334,2,0.601,3.6c0.1,0.533,0.233,1.4,0.399,2.6
			c0.167,1.1,0.417,1.933,0.75,2.5c0.834-0.5,1.017-1.783,0.551-3.85c-0.634-2.2-0.95-3.583-0.95-4.15L53.7,59.75z M60.75,91.6
			l0.05,0.05c-0.5,0.067-0.833,0.033-1-0.1c-0.233-0.233-0.366-0.483-0.399-0.75c-0.034-0.233-0.017-0.816,0.05-1.75v-0.425V88.15
			l-0.2-2L59,83.8v-0.15c-0.033-0.967,0.017-1.9,0.15-2.8c0.399,0.3,0.733,0.95,1,1.95c0.267,0.934,0.366,1.733,0.3,2.4l0.1,0.05
			C60.684,87.55,60.75,89.667,60.75,91.6z M63.1,97.05l-2.35-1.3c-0.033,1.733-0.05,3.233-0.05,4.5v1
			c-0.033,0.333-0.05,0.684-0.05,1.05c0,0.434,0.017,0.867,0.05,1.3c0.066,1.634,0.2,3.117,0.399,4.45
			c-0.1-0.125-0.183-0.258-0.25-0.399L59.9,104.9c-0.034-0.134-0.051-0.25-0.051-0.351c-0.133-0.633-0.267-1.616-0.399-2.95
			c-0.167-1.933-0.15-4.167,0.05-6.7l0.3,0.05c0.667,0.066,1.483,0.5,2.45,1.3L63.1,97.05z M68.15,101.85l0.649,2
			c-0.533-1.466-1.3-2.833-2.3-4.1c-0.066-0.066-0.134-0.134-0.2-0.2L66,99.15c0.467,0.199,0.833,0.316,1.1,0.35
			C67.5,100.333,67.85,101.116,68.15,101.85z M43,112.85l0.1,0.351H42.9l0.05-0.4L43,112.85z M44.05,130.9c0-0.334,0-0.634,0-0.9
			l0.05-1.95c0-0.066,0-0.116,0-0.149c0-0.067,0-0.117,0-0.15c0-0.6-0.066-1.7-0.199-3.3c-0.067-2.066,0.116-3.467,0.55-4.2
			l-0.05,2.5c0,1.233,0.033,2.15,0.1,2.75c0,0.066,0.017,0.134,0.05,0.2v0.05l0.45,1.6c0.066,0.233,0.15,0.483,0.25,0.75v0.051
			l-0.8-1.351L44.05,130.9z M41.45,173.4c0.166-0.233,0.333-0.417,0.5-0.551c-0.167,0.367-0.367,0.817-0.601,1.351l-0.699,1.55
			c-0.267,0.533-0.5,1.066-0.7,1.6l-0.05,0.15c-0.067,0.1-0.134,0.217-0.2,0.35c-0.066,0.134-0.117,0.284-0.15,0.45L39.3,178.9
			c-0.8,1.899-1.399,3.6-1.8,5.1l-0.6,8.45c0.033,0.733,0.116,1.5,0.25,2.3c-0.301-0.533-0.467-1.25-0.5-2.15
			c0-0.066,0-0.116,0-0.149c0-0.066,0-0.117,0-0.15c0-0.066,0-0.116,0-0.149c0.066-1.233,0.1-2.117,0.1-2.65
			c0-2.3,0.1-4.184,0.3-5.65c0.233-2.033,0.816-4.033,1.75-6c0.267-0.6,0.717-1.433,1.351-2.5c0.066-0.1,0.133-0.216,0.199-0.35
			L41.45,173.4z M58,153.2l0.2,0.95c0.2,0.733,0.3,1.633,0.3,2.699c0,0.601-0.017,1.5-0.05,2.7v0.7c-0.2,1.333-0.434,2.417-0.7,3.25
			c0.134-0.7,0.217-1.717,0.25-3.05c0.1-2.667-0.066-5.566-0.5-8.7c-0.033-0.2-0.066-0.384-0.1-0.55v-0.05
			c0.1,0.166,0.199,0.383,0.3,0.649L58,153.2z M42.95,157.55L43,161c0.2,4.366,1.467,9.384,3.8,15.05
			c1.167,2.834,2.316,5.233,3.45,7.2l-2.35-2.65c-1.867-2.666-3.467-6.233-4.801-10.699c-0.066,0.333-0.283,0.966-0.649,1.899v-6.6
			c-0.033-1.101-0.05-1.934-0.05-2.5c-0.034-1.033-0.017-1.884,0.05-2.55c0.066-0.867,0.217-1.684,0.45-2.45
			C42.933,157.635,42.949,157.584,42.95,157.55z"/>
		
			<radialGradient id="SVGID_8_" cx="18" cy="39.1001" r="5.9375" gradientTransform="matrix(1 0 0 -1 0 78.2002)" gradientUnits="userSpaceOnUse">
			<stop  offset="0.0549" style="stop-color:#FEDEB1;stop-opacity:0.0902"/>
			<stop  offset="0.2392" style="stop-color:#FEDEB1;stop-opacity:0.0902"/>
		</radialGradient>
		<path style="fill-rule:evenodd;clip-rule:evenodd;fill:url(#SVGID_8_);" d="M15.3,37.95c-0.6,0.833-1.517,1.117-2.75,0.85
			c0.934-0.8,1.583-1.5,1.95-2.1c0.067-0.167,0.133-0.333,0.2-0.5c0.033-0.633,0.05-1.1,0.05-1.4c0-0.566,0.233-0.883,0.7-0.95
			l0.65-0.65C16.233,35.433,15.967,37.017,15.3,37.95z"/>
		
			<radialGradient id="SVGID_9_" cx="21.6499" cy="41.1499" r="3.6375" gradientTransform="matrix(1 0 0 -1 0 82.2998)" gradientUnits="userSpaceOnUse">
			<stop  offset="0.0549" style="stop-color:#FEDEB1;stop-opacity:0.0902"/>
			<stop  offset="0.2392" style="stop-color:#FEDEB1;stop-opacity:0.0902"/>
		</radialGradient>
		<path style="fill-rule:evenodd;clip-rule:evenodd;fill:url(#SVGID_9_);" d="M18.95,36.45l1.5,2.05c0,0.3,0.033,0.767,0.1,1.4
			c-0.033,0.533-0.267,0.867-0.7,1c-0.633,0.2-1.117-0.15-1.45-1.05c-0.1-0.3-0.1-0.733,0-1.3c0-0.167,0.017-0.333,0.05-0.5
			c0.1-0.466,0.167-0.833,0.2-1.1c0.067-0.4,0.1-0.65,0.1-0.75L18.95,36.45z"/>
		
			<radialGradient id="SVGID_10_" cx="11.5498" cy="31.8999" r="6.6625" gradientTransform="matrix(1 0 0 -1 0 63.7998)" gradientUnits="userSpaceOnUse">
			<stop  offset="0.0549" style="stop-color:#FEDEB1;stop-opacity:0.0902"/>
			<stop  offset="0.2392" style="stop-color:#FEDEB1;stop-opacity:0.0902"/>
		</radialGradient>
		<path style="fill-rule:evenodd;clip-rule:evenodd;fill:url(#SVGID_10_);" d="M8.95,30.6c-0.667,0.433-1.167,0.733-1.5,0.9
			c-1.034,0.467-1.7,0.367-2-0.3c-0.267-0.667,0.066-1.083,1-1.25c0.333-0.067,1-0.1,2-0.1L8.85,30l0.6,0.2
			C9.25,30.333,9.083,30.467,8.95,30.6z"/>
		
			<radialGradient id="SVGID_11_" cx="11.6499" cy="34.2998" r="3.8625" gradientTransform="matrix(1 0 0 -1 0 68.5996)" gradientUnits="userSpaceOnUse">
			<stop  offset="0.0549" style="stop-color:#FEDEB1;stop-opacity:0.0902"/>
			<stop  offset="0.2392" style="stop-color:#FEDEB1;stop-opacity:0.0902"/>
		</radialGradient>
		<path style="fill-rule:evenodd;clip-rule:evenodd;fill:url(#SVGID_11_);" d="M9.9,32.8l0.55,0.4c-0.3,0.9-1.067,1.216-2.3,0.95
			c-0.167-0.433-0.1-0.833,0.2-1.2c0.167-0.233,0.367-0.367,0.6-0.4c0.167-0.066,0.333-0.083,0.5-0.05L9.9,32.8z"/>
		
			<radialGradient id="SVGID_12_" cx="23" cy="41.9502" r="1.7125" gradientTransform="matrix(1 0 0 -1 0 83.9004)" gradientUnits="userSpaceOnUse">
			<stop  offset="0.0549" style="stop-color:#FEDEB1;stop-opacity:0.0902"/>
			<stop  offset="0.2392" style="stop-color:#FEDEB1;stop-opacity:0.0902"/>
		</radialGradient>
		<path style="fill-rule:evenodd;clip-rule:evenodd;fill:url(#SVGID_12_);" d="M21.5,41.8c-0.133-0.367-0.15-0.683-0.05-0.95l1-0.65
			l-0.05,1.6C22.1,41.9,21.8,41.9,21.5,41.8z"/>
	</g>
	
		<radialGradient id="SVGID_13_" cx="74.2002" cy="53.8501" r="70.8125" gradientTransform="matrix(1 0 0 -1 0 107.7002)" gradientUnits="userSpaceOnUse">
		<stop  offset="0.6941" style="stop-color:#211C15;stop-opacity:0"/>
		<stop  offset="1" style="stop-color:#211C15;stop-opacity:0.6"/>
	</radialGradient>
	<path style="fill-rule:evenodd;clip-rule:evenodd;fill:url(#SVGID_13_);" d="M9.5,14.25c0.3-1.533,1.05-2.7,2.25-3.5
		c0.5-0.333,0.717-0.5,0.65-0.5c-0.167,0-0.133-0.167,0.1-0.5c0.3-0.4,0.816-0.9,1.55-1.5L15,7.5c1.633-0.867,3.75-1.083,6.35-0.65
		c1.833,0.3,3.383,0.767,4.65,1.4c5.066,2.533,9.983,7.033,14.75,13.5c2.267,3.066,4.434,7.383,6.5,12.95
		c1.866,4.866,3.434,10.116,4.7,15.75l-13,1.65c-4.834-9-11.983-15.7-21.45-20.1c-3-1.4-5.117-2.75-6.35-4.05
		c-0.333-0.367-0.966-1.35-1.9-2.95c-0.4-0.667-0.5-1.65-0.3-2.95c0.233-1.566,0.333-2.5,0.3-2.8C9.017,17.883,9.1,16.217,9.5,14.25
		z"/>
</g>
</svg>
