<?xml version="1.0" encoding="iso-8859-1"?>
<!-- Generator: Adobe Illustrator 15.1.0, SVG Export Plug-In . SVG Version: 6.00 Build 0)  -->
<!DOCTYPE svg PUBLIC "-//W3C//DTD SVG 1.1//EN" "http://www.w3.org/Graphics/SVG/1.1/DTD/svg11.dtd">
<svg version="1.1" id="FlashAICB" xmlns="http://www.w3.org/2000/svg" xmlns:xlink="http://www.w3.org/1999/xlink" x="0px" y="0px"
	 width="27.6px" height="86.5px" viewBox="0 0 27.6 86.5" style="enable-background:new 0 0 27.6 86.5;" xml:space="preserve">
<g>
	<path style="fill-rule:evenodd;clip-rule:evenodd;fill:#5B4E3E;" d="M13.35,26.5c0.567,0.033,1.134,0.233,1.7,0.6
		c-0.366,0.033-0.816-0.083-1.35-0.35L13.35,26.5z M13.95,9.7l0.3,3.35l-0.1,3.15c0,0.566,0.033,1.417,0.1,2.55
		c0,1.033-0.033,1.867-0.1,2.5c-0.067,0.5-0.334,1.117-0.801,1.85c-0.267,0.4-0.683,0.983-1.25,1.75l-0.75,0.85l-0.2,0.05
		c-0.2,0.067-0.45,0.317-0.75,0.75l-0.7,0.75c-0.067-0.367-0.133-0.75-0.2-1.15c0.967-1.367,1.5-2.1,1.6-2.2
		c0.667-0.767,1.333-1.133,2-1.1c0.101-0.767,0.034-1.566-0.2-2.4c-0.433-1.367-0.667-2.117-0.7-2.25
		c-0.267-1.033-0.45-1.85-0.55-2.45c-0.233-1.133-0.267-1.95-0.1-2.45c0.8,1.133,1.233,2.067,1.3,2.8
		c-0.067-0.933-0.267-2.517-0.6-4.75c-0.3-1.933-0.45-3.5-0.45-4.7c0-1.9-0.1-3.267-0.3-4.1c-0.067-0.267-0.267-0.633-0.6-1.1
		c-0.367-0.533-0.6-0.867-0.7-1l-0.05-0.1c0.8,0.367,1.483,1.117,2.05,2.25l0.5,1.1c0.267,0.667,0.483,1.417,0.649,2.25
		c0.034,0.1,0.067,0.217,0.101,0.35l0.2,1.2L13.5,8.5L13.95,9.7z M8.05,60.25c-0.033-0.866-0.117-1.533-0.25-2
		c-0.167-0.7-0.5-1.4-1-2.1c-0.533-0.733-0.816-1.334-0.85-1.801c0-0.533,0.316-1.033,0.95-1.5l0.2-0.1
		c1.6,2.434,2.533,5.9,2.8,10.4c0.133,2.267,0.1,4.283-0.1,6.05c-0.433-2.233-0.767-4.467-1-6.7c-0.033-0.366-0.1-0.717-0.2-1.05
		c-0.133-0.367-0.317-0.75-0.55-1.15V60.25z M23.75,42.1c-0.333-0.067-0.6-0.15-0.8-0.25c-0.467-0.2-0.834-0.667-1.101-1.4
		c-0.267-0.9-0.5-1.534-0.699-1.9c-0.267-0.6-0.717-1.316-1.351-2.15c-0.8-1.066-1.316-1.783-1.55-2.15
		c-0.533-0.833-1.25-1.933-2.15-3.3c-0.633-1.2-0.949-2.45-0.949-3.75c0.566,0.433,0.983,1,1.25,1.7c0.333,0.8,0.75,1.5,1.25,2.1
		c0.133,0.167,0.733,0.783,1.8,1.85c1.066,1.1,1.967,2.767,2.7,5C22.95,40.183,23.483,41.6,23.75,42.1z"/>
	<path style="fill-rule:evenodd;clip-rule:evenodd;fill:#73644F;" d="M22.75,50.9c0,0.066,0,0.133,0,0.199l-0.05,0.2
		c-0.033,0.267-0.066,0.533-0.101,0.8l-0.449,2.4c-0.434,2.9-0.983,7.9-1.65,15c-0.2-1.434-0.267-3.417-0.2-5.95l0.05-2.45
		c0.067-1.666,0.184-3.399,0.351-5.199l0.05-0.65l0.05-0.05L22.15,49.1c0.1-0.5,0.183-1.149,0.25-1.949
		c0.033-0.934,0.083-1.567,0.149-1.9c0.267,0.1,0.533,0.434,0.8,1v0.05c-0.066,0.733-0.149,1.533-0.25,2.4l-0.149,1
		C22.884,50.066,22.816,50.467,22.75,50.9z M26.9,51.4c-0.034-0.134-0.067-0.267-0.101-0.4c-0.166-1.134-0.399-2.134-0.7-3
		c-0.333-2.134-1.017-3.733-2.05-4.8c-0.233-0.267-0.649-0.45-1.25-0.55c-0.566-0.1-0.916-0.25-1.05-0.45
		c-0.1-0.133-0.167-0.534-0.2-1.2c-0.066-0.633-0.2-1.083-0.399-1.35c-0.167-0.267-0.5-0.65-1-1.15c-0.467-0.467-0.801-0.85-1-1.15
		L18,35.65c-0.5-0.667-1-1.1-1.5-1.3c-0.066,0.433-0.083,1.083-0.05,1.95v0.05c-0.5-0.6-0.967-1.117-1.4-1.55l-0.5-0.5
		c-0.1-0.066-0.184-0.133-0.25-0.2c-0.1,0.566-0.2,1.133-0.3,1.7c-0.033,0.133-0.066,0.25-0.1,0.35l-1.05,4.1
		c-0.133,0.433-0.283,0.867-0.45,1.3c-0.066,0.233-0.15,0.467-0.25,0.7l-0.3,0.8c-0.533,1.4-1.133,2.733-1.8,4
		c-0.033,0.066-0.066,0.134-0.1,0.2C9.883,47.316,9.833,47.4,9.8,47.5l-2.7,5.25l-0.2,0.1l0.15-0.75c0.167-0.633,0.5-1.399,1-2.3
		c0.7-1.333,1.083-2.1,1.15-2.3c0.733-1.533,1.383-3.3,1.95-5.3l0.45-1.45l-0.15-0.55c-0.333-2.534,0.017-4.05,1.05-4.55
		c0.1-0.433,0.35-1.083,0.75-1.95c0.3-0.7,0.483-1.317,0.55-1.85c0.233-2.2,0.2-3.9-0.1-5.1c0.533,0.267,0.983,0.383,1.35,0.35
		l0.101,0.1c0,1.3,0.316,2.55,0.949,3.75c0.9,1.367,1.617,2.466,2.15,3.3c0.233,0.367,0.75,1.083,1.55,2.15
		c0.634,0.833,1.084,1.55,1.351,2.15c0.199,0.367,0.433,1,0.699,1.9c0.267,0.733,0.634,1.2,1.101,1.4c0.2,0.1,0.467,0.183,0.8,0.25
		l0.1,0.15c0.2,0.333,0.617,0.967,1.25,1.9c0.534,0.767,0.917,1.449,1.15,2.05c0.2,0.6,0.35,1.25,0.45,1.95
		c0.033,0.433,0.066,1.116,0.1,2.05L26.9,51.4z M5.6,57.4L5.2,57.05L3.3,62.1c-0.233,0.7-0.483,1.45-0.75,2.25V64.3
		c0.2-1.5,0.534-3.05,1-4.649c0.667-2.134,1.3-3.2,1.9-3.2C5.417,56.684,5.467,57,5.6,57.4z M1.1,85.15
		c-0.3-1.5-0.317-3.75-0.05-6.75c0.1,3.6,0.233,6.199,0.4,7.8l-0.1-0.15L1.25,85.9L1.1,85.25C1.1,85.217,1.1,85.184,1.1,85.15z
		 M3.3,33.05c-0.367,0.6-0.733,1.3-1.1,2.1c0.233-1.367,1.233-3.45,3-6.25c1.667-2.566,3.2-4.55,4.6-5.95
		c0.9-0.9,1.417-1.917,1.55-3.05c0.066-0.9-0.083-2.05-0.45-3.45c-0.167-0.667-0.65-1.867-1.45-3.6C9.083,12.083,8.8,11.467,8.6,11
		c-0.333-0.9-0.467-1.567-0.4-2l0.35,0.2c0.4,0.466,0.717,0.816,0.95,1.05c0.433,0.433,0.833,0.717,1.2,0.85
		c0.233-0.733,0.2-1.767-0.1-3.1c-0.4-1.5-0.65-2.55-0.75-3.15c-0.4-2.133-1.25-3.7-2.55-4.7L8.8,0
		c0.467,0.033,0.917,0.133,1.35,0.3l0.05,0.1c0.1,0.133,0.333,0.467,0.7,1c0.333,0.467,0.533,0.833,0.6,1.1
		c0.2,0.833,0.3,2.2,0.3,4.1c0,1.2,0.15,2.767,0.45,4.7c0.333,2.233,0.533,3.817,0.6,4.75c-0.067-0.733-0.5-1.667-1.3-2.8
		c-0.167,0.5-0.133,1.317,0.1,2.45c0.1,0.6,0.283,1.417,0.55,2.45c0.033,0.133,0.267,0.883,0.7,2.25c0.234,0.833,0.3,1.633,0.2,2.4
		c-0.667-0.033-1.333,0.333-2,1.1c-0.1,0.1-0.633,0.833-1.6,2.2c-0.033-0.067-0.05-0.15-0.05-0.25c-1.3,1.8-2.75,3.4-4.35,4.8
		c-0.233,0.233-0.467,0.5-0.7,0.8L3.3,33.05z M6,1.3c0.1-0.167,0.2-0.316,0.3-0.45l0.4,0.5c0.233,0.933,0.383,1.933,0.45,3L7.1,6.45
		c-1,0.2-1.667,0-2-0.6L5.25,3.8c0.1-0.867,0.283-1.583,0.55-2.15c0.034-0.1,0.083-0.183,0.15-0.25L6,1.3z M10.4,26.5
		c0.3-0.433,0.55-0.683,0.75-0.75l-0.3,0.4L10.4,26.5z"/>
	<path style="fill-rule:evenodd;clip-rule:evenodd;fill:#43392C;" d="M13.7,7.6l0.25,2.1L13.5,8.5l0.15-1.05
		C13.65,7.483,13.667,7.533,13.7,7.6z M27.6,52c-0.033,1.5-0.183,2.85-0.449,4.05c0-1.633-0.084-3.1-0.25-4.399V51.4L26.8,50.2
		c-0.033-0.934-0.066-1.617-0.1-2.05c-0.101-0.7-0.25-1.351-0.45-1.95c-0.233-0.601-0.616-1.283-1.15-2.05
		c-0.633-0.934-1.05-1.567-1.25-1.9l-0.1-0.15c-0.267-0.5-0.8-1.917-1.6-4.25c-0.733-2.233-1.634-3.9-2.7-5
		c-1.066-1.067-1.667-1.684-1.8-1.85c-0.5-0.6-0.917-1.3-1.25-2.1c-0.267-0.7-0.684-1.267-1.25-1.7l-0.101-0.1
		c-0.566-0.367-1.133-0.567-1.7-0.6c-1.333-0.067-2.5,0.5-3.5,1.7c-0.033,0-0.05,0.017-0.05,0.05L9.75,27.4
		c-0.033-0.066-0.05-0.117-0.05-0.15l0.7-0.75l0.45-0.35l0.5-0.45l0.75-0.85c0.566-0.767,0.983-1.35,1.25-1.75
		c0.467-0.733,0.733-1.35,0.801-1.85c0.066-0.633,0.1-1.467,0.1-2.5c-0.066-1.133-0.1-1.983-0.1-2.55l0.1-3.15
		c0.134,1.534,0.316,3.8,0.55,6.8c0.2,1.867,0.3,3.8,0.3,5.8c2.101,2.633,4.117,5.583,6.051,8.85c0.933,1.567,1.583,3.367,1.949,5.4
		c1.334,1.6,2.467,3.467,3.4,5.6c0.167,0.4,0.316,0.816,0.45,1.25L27.6,51.3C27.6,51.533,27.6,51.767,27.6,52z"/>
	<path style="fill-rule:evenodd;clip-rule:evenodd;fill:#8D7A61;" d="M13.95,9.7L13.7,7.6c0.434,2.767,0.8,6.85,1.1,12.25
		c-0.233-3-0.416-5.267-0.55-6.8L13.95,9.7z M13.35,26.5l0.351,0.25c0.3,1.2,0.333,2.9,0.1,5.1c-0.066,0.533-0.25,1.15-0.55,1.85
		c-0.4,0.867-0.65,1.517-0.75,1.95c-1.033,0.5-1.383,2.017-1.05,4.55l0.15,0.55l-0.45,1.45c-0.566,2-1.217,3.767-1.95,5.3
		c-0.067,0.2-0.45,0.967-1.15,2.3c-0.5,0.9-0.833,1.667-1,2.3L6.9,52.85c-0.633,0.467-0.95,0.967-0.95,1.5
		c0.033,0.467,0.316,1.067,0.85,1.801c0.5,0.699,0.833,1.399,1,2.1c0.133,0.467,0.217,1.134,0.25,2
		C7.517,59.283,6.7,58.333,5.6,57.4c-0.133-0.4-0.184-0.717-0.15-0.95c-0.6,0-1.233,1.066-1.9,3.2c-0.466,1.6-0.8,3.149-1,4.649
		c-0.133,0.367-0.267,0.767-0.4,1.2C1.317,68,0.967,72.25,1.1,78.25c0.033,3,0.167,5.75,0.4,8.25
		c-0.067-0.134-0.117-0.283-0.15-0.45l0.1,0.15c-0.167-1.601-0.3-4.2-0.4-7.8c-0.267,3-0.25,5.25,0.05,6.75
		c-0.2-0.7-0.367-1.534-0.5-2.5C0.033,79.15-0.117,75.1,0.15,70.5c0.167-2.733,1.133-6.85,2.9-12.35l0.75-1.2
		c0.7-1,0.733-1.5,0.1-1.5c0.4-1.233,0.85-2.533,1.35-3.9c0.033-0.133,0.083-0.267,0.15-0.399C5.567,51.116,5.733,51,5.9,50.8
		c0.367-0.366,0.633-1.05,0.8-2.05C6.867,47.717,7.15,47,7.55,46.6c1.1-0.899,1.867-1.6,2.3-2.1c0.733-0.833,0.917-1.8,0.55-2.9
		c-0.1-0.3-0.3-0.667-0.6-1.1c-0.333-0.433-0.533-0.767-0.6-1c-0.2,0.833-0.517,1.933-0.95,3.3c0.8-2.767,1.367-5.033,1.7-6.8
		c-0.067,0.433-0.15,0.883-0.25,1.35l1.45-2.15c0.7-1.167,1.067-1.8,1.1-1.9c0.267-0.667,0.2-1.35-0.2-2.05
		c-0.1-0.2-0.216-0.467-0.35-0.8c-0.167-0.233-0.434-0.35-0.8-0.35c-0.333,0.066-0.6,0.2-0.8,0.4c-0.067-0.733-0.15-1.5-0.25-2.3
		C10.85,27,12.017,26.433,13.35,26.5z M27.15,56.05c0.267-1.2,0.416-2.55,0.449-4.05c0,0.2,0,0.4,0,0.6
		C27.533,54,27.384,55.2,27.15,56.2C27.15,56.134,27.15,56.083,27.15,56.05z M26.9,51.4v0.25C26.866,51.417,26.833,51.2,26.8,51
		C26.833,51.134,26.866,51.267,26.9,51.4z M22.75,50.9c0.066-0.434,0.134-0.834,0.2-1.2c0,0.1-0.017,0.217-0.05,0.35
		C22.866,50.316,22.816,50.6,22.75,50.9z M21,47.5c0.066,0.533,0.1,1.1,0.1,1.7c0.167-0.134,0.317-0.483,0.45-1.05
		c0.367-1.301,0.45-2.517,0.25-3.65c-0.1-0.8-0.483-1.733-1.149-2.8c-0.733-1.167-1.467-1.934-2.2-2.3
		c-0.101-0.167-0.2-0.35-0.3-0.55c-0.5-0.9-1.067-1.75-1.7-2.55c-0.033-0.867-0.017-1.517,0.05-1.95c0.5,0.2,1,0.633,1.5,1.3
		l1.15,1.7c0.199,0.3,0.533,0.683,1,1.15c0.5,0.5,0.833,0.883,1,1.15c0.199,0.267,0.333,0.717,0.399,1.35
		c0.033,0.667,0.101,1.067,0.2,1.2c0.134,0.2,0.483,0.35,1.05,0.45c0.601,0.1,1.017,0.283,1.25,0.55
		c1.033,1.066,1.717,2.666,2.05,4.8c-0.633-1.8-1.533-3-2.699-3.6c0,0.566-0.017,1.183-0.051,1.85c-0.267-0.566-0.533-0.9-0.8-1
		c-0.066,0.333-0.116,0.967-0.149,1.9c-0.067,0.8-0.15,1.449-0.25,1.949L20.8,55.2c0-0.134,0-0.25,0-0.351
		C21.1,52.017,21.167,49.566,21,47.5z M6.3,24.8c1.333-1.1,2.167-1.833,2.5-2.2c0.934-1.033,1.133-1.833,0.6-2.4l-1.6,0.75
		c0.133-0.367,0.267-0.733,0.4-1.1c-0.034-0.1-0.133-0.533-0.3-1.3l1.5-0.1c0.133-0.534,0.184-1.217,0.15-2.05
		c-0.033-0.767-0.133-1.45-0.3-2.05C9.083,13.883,8.6,13.3,7.8,12.6c-0.833-0.733-1.417-1.033-1.75-0.9
		c-0.533-2.034-0.833-3.434-0.9-4.2C5.117,6.933,5.1,6.383,5.1,5.85c0.333,0.6,1,0.8,2,0.6l0.05-2.1
		c-0.066-1.067-0.217-2.067-0.45-3l-0.4-0.5C6.2,0.983,6.1,1.133,6,1.3c0.133-0.267,0.283-0.483,0.45-0.65L6.3,0.85l0.85,1v2.5V6.2
		c0,0.3,0.1,0.75,0.3,1.35C7.65,8.25,7.9,8.733,8.2,9c-0.067,0.433,0.066,1.1,0.4,2c0.2,0.467,0.483,1.083,0.85,1.85
		c0.8,1.733,1.283,2.933,1.45,3.6c0.367,1.4,0.517,2.55,0.45,3.45c-0.133,1.133-0.65,2.15-1.55,3.05c-1.4,1.4-2.933,3.383-4.6,5.95
		c-1.767,2.8-2.767,4.883-3,6.25c0.367-0.8,0.733-1.5,1.1-2.1c-0.566,0.967-1.133,2.184-1.7,3.65c-0.6,1.5-1.083,2.883-1.45,4.15
		c0-0.9,0.117-1.967,0.35-3.2c0.5-2.533,1.35-4.717,2.55-6.55C4.017,29.667,5.1,27.567,6.3,24.8z M8.55,9.2
		c0.167,0,0.35-0.117,0.55-0.35C9.333,8.55,9.367,8,9.2,7.2C9,6.333,8.867,5.767,8.8,5.5C8.467,4,8.25,3.133,8.15,2.9
		C7.75,2.033,7.2,1.283,6.5,0.65L6.45,0.6c0.233-0.2,0.466-0.333,0.7-0.4c0.067,0,0.117-0.017,0.15-0.05c1.3,1,2.15,2.567,2.55,4.7
		C9.95,5.45,10.2,6.5,10.6,8c0.3,1.333,0.333,2.367,0.1,3.1c-0.367-0.133-0.767-0.417-1.2-0.85C9.267,10.017,8.95,9.667,8.55,9.2z
		 M11.15,25.75l0.2-0.05l-0.5,0.45L11.15,25.75z"/>
	<path style="fill-rule:evenodd;clip-rule:evenodd;fill:#9F896E;" d="M18.45,39.4c0.733,0.367,1.467,1.133,2.2,2.3
		c0.666,1.066,1.05,2,1.149,2.8c0.2,1.134,0.117,2.35-0.25,3.65c-0.133,0.566-0.283,0.916-0.45,1.05c0-0.601-0.033-1.167-0.1-1.7
		l-0.15-1.6c-0.166-0.9-0.366-1.733-0.6-2.5c0-0.033,0-0.066,0-0.1C19.85,42.2,19.25,40.9,18.45,39.4z M3.9,55.45
		c0.633,0,0.6,0.5-0.1,1.5l-0.75,1.2l-0.1,0.1L3.9,55.45z M8.25,42.8C8.683,41.433,9,40.333,9.2,39.5c0.066,0.233,0.267,0.567,0.6,1
		c0.3,0.433,0.5,0.8,0.6,1.1c0.367,1.1,0.184,2.066-0.55,2.9c-0.434,0.5-1.2,1.2-2.3,2.1c-0.4,0.4-0.683,1.117-0.85,2.15
		c-0.167,1-0.434,1.684-0.8,2.05C5.733,51,5.567,51.116,5.4,51.15c0.434-1.2,0.833-2.334,1.2-3.4L8.25,42.8z M10.1,30.5
		c0.2-0.2,0.467-0.333,0.8-0.4c0.367,0,0.633,0.117,0.8,0.35c0.133,0.333,0.25,0.6,0.35,0.8c0.4,0.7,0.467,1.383,0.2,2.05
		c-0.033,0.1-0.4,0.733-1.1,1.9L9.7,37.35c0.1-0.467,0.183-0.917,0.25-1.35l0.1-0.8c0.067-0.5,0.1-0.95,0.1-1.35v-1.5
		c0-0.567-0.033-1.167-0.1-1.8L10.1,30.5z M7.9,18.55H7.85l-1.6-6.1c-0.033-0.133-0.067-0.267-0.1-0.4
		c-0.033-0.1-0.066-0.216-0.1-0.35c0.333-0.133,0.917,0.167,1.75,0.9c0.8,0.7,1.284,1.283,1.45,1.75c0.167,0.6,0.267,1.283,0.3,2.05
		c0.034,0.833-0.017,1.517-0.15,2.05L7.9,18.55z M7.8,20.95l1.6-0.75c0.533,0.566,0.333,1.367-0.6,2.4
		c-0.333,0.367-1.167,1.1-2.5,2.2H6.25c0.067-0.167,0.133-0.316,0.2-0.45c0.1-0.233,0.2-0.483,0.3-0.75
		c0.1-0.233,0.2-0.483,0.3-0.75l0.45-1.1c0.1-0.333,0.183-0.6,0.25-0.8H7.8z M8.2,9C7.9,8.733,7.65,8.25,7.45,7.55
		c-0.2-0.6-0.3-1.05-0.3-1.35V4.35v-2.5l-0.85-1l0.15-0.2V0.6L6.5,0.65C7.2,1.283,7.75,2.033,8.15,2.9C8.25,3.133,8.467,4,8.8,5.5
		C8.867,5.767,9,6.333,9.2,7.2C9.367,8,9.333,8.55,9.1,8.85C8.9,9.083,8.717,9.2,8.55,9.2L8.2,9z"/>
</g>
</svg>
