<?xml version="1.0" encoding="iso-8859-1"?>
<!-- Generator: Adobe Illustrator 15.1.0, SVG Export Plug-In . SVG Version: 6.00 Build 0)  -->
<!DOCTYPE svg PUBLIC "-//W3C//DTD SVG 1.1//EN" "http://www.w3.org/Graphics/SVG/1.1/DTD/svg11.dtd">
<svg version="1.1" id="FlashAICB" xmlns="http://www.w3.org/2000/svg" xmlns:xlink="http://www.w3.org/1999/xlink" x="0px" y="0px"
	 width="143.65px" height="326.8px" viewBox="0 0 143.65 326.8" style="enable-background:new 0 0 143.65 326.8;"
	 xml:space="preserve">
<g>
	
		<radialGradient id="SVGID_1_" cx="69.1499" cy="215" r="186.45" gradientTransform="matrix(1 0 0 -0.9157 0 411.8671)" gradientUnits="userSpaceOnUse">
		<stop  offset="0.1333" style="stop-color:#211C15"/>
		<stop  offset="0.8471" style="stop-color:#211C15;stop-opacity:0"/>
	</radialGradient>
	<path style="fill-rule:evenodd;clip-rule:evenodd;fill:url(#SVGID_1_);" d="M85.25,281.5c4.667,0,9.117,0.167,13.35,0.5
		c1.867,0.134,3.051,0.233,3.551,0.3c1.5,0.233,2.616,0.584,3.35,1.05c0.366,0.267,0.934,0.851,1.7,1.75
		c0.433,0.534,1.267,0.934,2.5,1.2c0.267,0.066,1.3,0.15,3.1,0.25c1.5,0.101,2.55,0.283,3.15,0.55c0.2,0.101,0.467,0.317,0.8,0.65
		s0.583,0.55,0.75,0.65c1.333,0.733,3.2,1.566,5.6,2.5c1.233,0.399,2.134,0.733,2.7,1c0.601,0.267,1.033,0.517,1.3,0.75
		c0.301,0.3,0.601,0.583,0.9,0.85c1.3,0.9,2.184,1.583,2.65,2.05c0.866,0.733,1,1.55,0.399,2.45c-0.399,0.566-1.45,1.184-3.149,1.85
		c-1.434,0.534-2.134,1.284-2.101,2.25c0,0.867,0.617,2,1.851,3.4c1.466,1.467,2.399,2.483,2.8,3.05
		c0.366,0.467,1.25,1.45,2.649,2.95c1.2,1.267,2.033,2.267,2.5,3c1,1.6,0.95,2.884-0.149,3.85c-0.733,0.667-2.134,1.217-4.2,1.65
		c-0.4,0.1-1.434,0.217-3.1,0.35c-1.301,0.101-2.284,0.317-2.95,0.65c-0.467,0.233-0.95,0.667-1.45,1.3
		c-0.533,0.7-0.967,1.15-1.3,1.351c-0.7,0.466-1.601,0.716-2.7,0.75c-0.634,0.033-1.583,0.066-2.85,0.1
		c-0.634,0.066-1.917,0.267-3.851,0.6c-1.633,0.334-2.967,0.483-4,0.45c-1.399,0-3.467-0.35-6.2-1.05c-2.666-0.667-4.75-1-6.25-1
		c-0.666,0-1.666-0.017-3-0.05c-1.166,0-2.133,0.133-2.899,0.399c-0.4,0.134-0.917,0.434-1.55,0.9
		c-0.667,0.467-1.184,0.767-1.551,0.9c-0.833,0.333-2.116,0.5-3.85,0.5c-1.934,0-3.267,0.083-4,0.25
		c-2.367,0.566-4.85,0.55-7.45-0.051c-1.066-0.233-3.467-1.017-7.2-2.35c-1.367-0.467-2.8-0.767-4.3-0.9
		c-0.866-0.066-2.366-0.1-4.5-0.1c-0.9,0-2.033-0.167-3.4-0.5c-1.367-0.3-2.45-0.467-3.25-0.5c-1.233-0.033-2.7,0.1-4.4,0.4
		c-2.367,0.399-3.783,0.616-4.25,0.649c-1.6,0.167-3.45,0.134-5.55-0.1c-1.934-0.233-3.717-0.601-5.35-1.101
		c-0.867-0.267-3.1-1.199-6.7-2.8c-2.633-1.166-4.933-1.833-6.9-2c-1.733-0.166-4.35-0.483-7.85-0.95
		c-0.233-0.033-0.95-0.017-2.15,0.051c-1,0.066-1.7,0.033-2.1-0.101c-0.267-0.1-0.55-0.333-0.85-0.7
		c-0.333-0.399-0.616-0.649-0.85-0.75c-0.3-0.1-0.8-0.149-1.5-0.149c-0.534,0.033-0.934-0.117-1.2-0.45
		c1.033-1.1,3.15-1.95,6.35-2.55c3.167-0.566,5.267-1.417,6.3-2.55c0.933-1.034,1.167-1.817,0.7-2.351
		c-0.4-0.434-1.35-0.783-2.85-1.05c-0.667-0.1-1.833-0.35-3.5-0.75c-1.5-0.3-2.65-0.417-3.45-0.35c0.3-0.667,1.15-1.167,2.55-1.5
		c1.633-0.267,2.716-0.517,3.25-0.75c1.433-0.534,2.483-0.934,3.15-1.2c1.167-0.434,2.167-0.884,3-1.351
		c2.9-1.433,5.066-2.583,6.5-3.449c2.467-1.467,4.267-3.017,5.4-4.65L85.25,281.5z"/>
	
		<radialGradient id="SVGID_2_" cx="70.0498" cy="235.5" r="132.575" gradientTransform="matrix(1 0 0 -0.9157 0 451.1493)" gradientUnits="userSpaceOnUse">
		<stop  offset="0.3255" style="stop-color:#3F3932"/>
		<stop  offset="0.4627" style="stop-color:#352F28;stop-opacity:0.6588"/>
		<stop  offset="0.7451" style="stop-color:#26211A;stop-opacity:0.1608"/>
		<stop  offset="1" style="stop-color:#211C15;stop-opacity:0"/>
	</radialGradient>
	<path style="fill-rule:evenodd;clip-rule:evenodd;fill:url(#SVGID_2_);" d="M27.9,291.1c-0.3,0-0.783-0.066-1.45-0.199
		c0.6-0.5,1.25-1.15,1.95-1.95c0.767-0.9,1.333-1.55,1.7-1.95l54.1-12c1.233-0.066,2.783,0.033,4.649,0.3
		c2.101,0.367,3.634,0.601,4.601,0.7c2.667,0.333,4.616,0.616,5.85,0.85c2.101,0.4,3.967,0.95,5.601,1.65
		c1.3,0.5,2.232,0.884,2.8,1.15c1,0.466,1.85,0.983,2.55,1.55c0.566,0.5,1.25,1.217,2.05,2.149c1,1.167,1.65,1.9,1.95,2.2
		c1.9,1.967,3.167,3.2,3.8,3.7c1.601,1.3,3.2,2.083,4.8,2.35c0.467,1.2-0.05,2.067-1.55,2.601c-0.833,0.267-2.05,0.566-3.649,0.899
		c-1.567,0.733-1.934,1.733-1.101,3c1.367,1.5,2.333,2.601,2.9,3.301c1.033,1.3,1.767,2.633,2.2,4c0.366,1.1,0.616,2.566,0.75,4.399
		c0.066,0.667,0.517,1.783,1.35,3.351c0.733,1.3,0.983,2.399,0.75,3.3c-0.9-0.101-1.934,0.1-3.1,0.6
		c-0.667,0.3-1.601,0.783-2.801,1.45c-1.366,0.7-2.8,1.15-4.3,1.35c-0.866,0.101-2.383,0.15-4.55,0.15
		c-1.033,0-2.617-0.066-4.75-0.2c-2.033-0.133-3.617-0.2-4.75-0.2c-2.733,0.067-5.383-0.133-7.95-0.6
		c-0.566-0.1-2.399-0.283-5.5-0.55c-2.3-0.2-4.083-0.5-5.35-0.9c-0.567-0.166-1.351-0.45-2.351-0.85
		c-0.866-0.267-1.683-0.3-2.449-0.101c-0.167,0.034-0.5,0.184-1,0.45c-0.434,0.267-0.867,0.417-1.301,0.45
		c-1.166,0.134-2.899,0.134-5.2,0c-2.367-0.1-4.1-0.1-5.2,0c-0.367,0.066-0.85,0.233-1.45,0.5c-0.566,0.267-0.983,0.417-1.25,0.45
		c-0.434,0.066-1,0.017-1.7-0.15c-0.366-0.066-0.933-0.2-1.7-0.399c-1.967-0.4-4.467-0.584-7.5-0.551
		c-1.733,0-4.284,0.051-7.65,0.15c-1.1,0-2.833,0.05-5.2,0.15c-2.133,0.066-3.867,0.017-5.2-0.15c-1.066-0.1-2.167-0.35-3.3-0.75
		c-0.2-0.066-1.25-0.483-3.15-1.25c-0.267-0.1-1.017-0.45-2.25-1.05c-0.934-0.467-1.684-0.783-2.25-0.95
		c-0.467-0.134-1.55-0.184-3.25-0.15c-1.5-0.1-2.383-0.55-2.65-1.35c-0.233-0.667-0.117-1.083,0.35-1.25
		c0.7-0.134,1.233-0.25,1.6-0.35c2.867-0.434,4.9-0.834,6.1-1.2c2.033-0.634,2.934-2,2.7-4.101c-4.767-0.267-7.434-0.449-8-0.55
		c-3.7-0.533-5.917-1.666-6.65-3.399c4.5-1.301,7.7-2.517,9.6-3.65c1.2-0.7,2.5-1.667,3.9-2.9
		C26.684,293.134,27.633,291.967,27.9,291.1z"/>
	
		<radialGradient id="SVGID_3_" cx="134.5498" cy="289.6504" r="24.775" gradientTransform="matrix(1 0 0 -1 0 579.3008)" gradientUnits="userSpaceOnUse">
		<stop  offset="0.4118" style="stop-color:#211C15;stop-opacity:0.0941"/>
		<stop  offset="0.698" style="stop-color:#211C15;stop-opacity:0.0941"/>
	</radialGradient>
	<path style="fill-rule:evenodd;clip-rule:evenodd;fill:url(#SVGID_3_);" d="M136.1,300.5l2.5,0.5c0.5,0.566,0.667,1.533,0.5,2.9
		c-0.199,1.233-0.533,2.149-1,2.75c-1.133,1.399-3.133,1.316-6-0.25c-0.933-0.534-1.583-1.217-1.949-2.051
		c-0.467-0.933-0.45-1.883,0.05-2.85c0.366-0.733,1.233-1.116,2.6-1.15C134.4,300.45,135.5,300.5,136.1,300.5z"/>
	
		<radialGradient id="SVGID_4_" cx="142.4004" cy="303.0996" r="5.55" gradientTransform="matrix(1 0 0 -1 0 606.1992)" gradientUnits="userSpaceOnUse">
		<stop  offset="0.4118" style="stop-color:#211C15;stop-opacity:0.0941"/>
		<stop  offset="0.698" style="stop-color:#211C15;stop-opacity:0.0941"/>
	</radialGradient>
	<path style="fill-rule:evenodd;clip-rule:evenodd;fill:url(#SVGID_4_);" d="M143.1,305.5l0.5,0.5c0.067,0.4,0.033,0.717-0.1,0.95
		c-0.6,0.2-1.15,0.166-1.65-0.101c-0.566-0.267-0.8-0.683-0.699-1.25C142.05,305.434,142.7,305.4,143.1,305.5z"/>
	
		<radialGradient id="SVGID_5_" cx="4.8999" cy="301.9004" r="11.25" gradientTransform="matrix(1 0 0 -1 0 603.8008)" gradientUnits="userSpaceOnUse">
		<stop  offset="0.4118" style="stop-color:#211C15;stop-opacity:0.0941"/>
		<stop  offset="0.698" style="stop-color:#211C15;stop-opacity:0.0941"/>
	</radialGradient>
	<path style="fill-rule:evenodd;clip-rule:evenodd;fill:url(#SVGID_5_);" d="M8.1,306.5l-2,2c-0.267,0.7-0.917,1.083-1.95,1.15
		c-0.533,0.033-1.383-0.034-2.55-0.2c0.233-1.4,1.083-2.283,2.55-2.65C4.684,306.634,6,306.533,8.1,306.5z"/>
</g>
<g>
	<path style="fill-rule:evenodd;clip-rule:evenodd;fill:#2F2A25;" d="M87.2,100.05c0.107,0.508,0.224,1.025,0.35,1.55l0.3,1.2
		l0.851,3.6c0.2,0.833,1,3.5,2.399,8c1,3.167,1.5,5.833,1.5,8c-0.066,8.8-0.083,14.467-0.05,17l0.2,2.9
		c0.233,1.233,0.85,2.983,1.85,5.25c0.667,2,1,3.983,1,5.95l0.051,2.5c0,0.4,0.017,0.75,0.05,1.05
		c0.033,0.467,0.116,1.017,0.25,1.65c0.033,0.3,0.083,0.566,0.149,0.8c0.134,0.433,0.5,1.5,1.101,3.2c0.5,1.333,0.8,2.434,0.899,3.3
		c0.101,0.9,0.184,2.167,0.25,3.8c0.067,1.767,0.134,3.05,0.2,3.851c0.101,1,0.384,2.55,0.851,4.649
		c0.433,1.967,0.683,3.5,0.75,4.601c0.133,0.033,0.267,0.083,0.399,0.149l2.2,1.95c0.523,0.923,0.906,2.148,1.15,3.675
		c0.01,0.039,0.018,0.081,0.024,0.125c0.005,0.082,0.014,0.165,0.025,0.25c0.066,0.667,0.116,1.417,0.149,2.25
		c0.034,1.233,0.034,2.867,0,4.9l0.051,2.75c0.333,0.934,0.899,2.3,1.699,4.1c0.334,0.8,0.567,1.767,0.7,2.9
		c0.101,0.633,0.233,1.616,0.4,2.95c0.1,0.699,0.399,1.966,0.899,3.8c0.434,1.6,0.684,2.866,0.75,3.8
		c0.101,1.233,0.134,2.816,0.101,4.75c-0.033,1.066-0.066,2.65-0.101,4.75l-0.05,1.65c0,0.433,0,0.933,0,1.5l-0.399,7.699
		c-0.034,0.2-0.051,0.4-0.051,0.601c0,0.066,0,0.133,0,0.2c-0.033,0.199-0.05,0.416-0.05,0.649c-0.033,0.601-0.033,1.2,0,1.8
		l0.101,4.95c0.1,1.4,0.25,2.684,0.449,3.851c0.067,0.3,0.067,0.716,0,1.25c0.034,0.5,0.184,0.899,0.45,1.199
		c0.2,0.2,0.467,0.25,0.8,0.15c0.4-0.1,0.65-0.116,0.75-0.05c0.434,0.399,0.767,0.866,1,1.399c0.101,0.267,0.25,0.817,0.45,1.65
		c0.3,1.167,0.617,3,0.95,5.5c0.3,2.4,0.616,4.217,0.95,5.45c0.366,1.467,0.583,3.217,0.649,5.25c0,1.166,0,2.934,0,5.3
		c0,0.667,0.101,1.634,0.301,2.9c0.333,1.466,0.899,3.666,1.699,6.6c0.267,1.066,0.551,3.066,0.851,6
		c0.133,1.233,0.116,2.167-0.05,2.8c-0.167,0.601-0.617,1.367-1.351,2.3c-1.133,1.467-2.316,2.7-3.55,3.7
		c-0.1,1.233-0.4,2.117-0.9,2.65V303c0,1-0.25,2.116-0.75,3.35c-0.8,1.934-1.233,2.983-1.3,3.15c-0.333,1.134-0.6,1.783-0.8,1.95
		c-0.267,0.233-1.066,0.467-2.4,0.7c-1.366,0.233-3.416,0.649-6.149,1.25l-0.55,0.1c-1.301,0.167-2.851,0.267-4.65,0.3
		c-1.191,0.033-2.958,0.066-5.3,0.101c1.7-1.034,2.816-1.884,3.35-2.551c0.434-0.6,0.733-1.3,0.9-2.1
		c0.066-0.434,0.116-1.184,0.149-2.25c0.034-1,0.051-1.75,0.051-2.25c0.033-0.934,0.017-1.684-0.051-2.25
		c-0.1-0.9-0.333-1.583-0.699-2.05c-0.233-0.267-0.75-0.75-1.551-1.45c0.334-0.5,1.084-1.083,2.25-1.75
		c1.267-0.767,2.101-1.333,2.5-1.7c0.5-0.533,1.017-1.45,1.551-2.75c0.533-1.267,1.017-2.133,1.449-2.6
		c-0.033,1.899-0.416,4.35-1.149,7.35c-0.4,1.4-0.367,2.55,0.1,3.45c0.434,0.8,0.95,1.283,1.55,1.45c0.2,0.033,1.017,0.05,2.45,0.05
		s2.267-0.017,2.5-0.05c0.733-0.167,1.384-0.65,1.95-1.45c0.667-0.934,1.033-2.134,1.1-3.6c0-1.733,0-3.034,0-3.9
		c0-3.467-0.166-5.95-0.5-7.45c-0.533-2-0.933-3.566-1.199-4.7c-0.434-2.033-0.517-3.616-0.25-4.75c1.267,0.867,2.233,2.867,2.899,6
		c0.767,3.634,1.417,5.867,1.95,6.7c0.7-5.233-0.233-11.517-2.8-18.85c-0.467-1.3-0.733-2.45-0.8-3.45
		c-0.067-0.8-0.017-1.967,0.149-3.5c0.3-2.4,0.316-4.217,0.05-5.45c-0.166-0.7-0.366-1.184-0.6-1.45
		c-0.3-0.366-0.75-0.783-1.35-1.25c-0.334-0.233-0.851-0.616-1.551-1.149c-1.133-0.834-1.8-1.767-2-2.8l-0.05-0.4
		c-0.033-0.467,0-1,0.101-1.6c0.1-0.567,0.35-1.483,0.75-2.75c0.399-1.2,0.633-2.084,0.699-2.65c0.134-1,0.117-2.2-0.05-3.6
		c-0.233-1.534-0.399-2.65-0.5-3.351c-0.1-0.866-0.1-2.184,0-3.95c0.066-1.8,0.05-3.133-0.05-4c-0.634-0.033-1.45-0.267-2.45-0.699
		c-1.133-0.467-1.95-0.733-2.45-0.801c-0.133-0.033-0.666-0.05-1.6-0.05c-0.667,0-1.134-0.133-1.4-0.399
		c2.233-1.367,3.717-2.284,4.45-2.75c1.566-1.101,2.917-2.233,4.05-3.4c0.267-0.233,0.601-0.616,1-1.15l0.301-1.55
		c0.133-1.066,0.199-2.684,0.199-4.85c0.067-1.233,0.101-2.184,0.101-2.851c0-1.199-0.167-2.1-0.5-2.699
		c-0.233-0.434-0.7-0.95-1.4-1.551c-0.833-0.699-1.366-1.183-1.6-1.449c-0.9-1.101-1.467-1.684-1.7-1.75
		c-0.434-0.2-1.1,0.149-2,1.05c-0.7,0.7-1.684,1.967-2.95,3.8c-1.233,1.533-2.517,2.384-3.85,2.55c1.6-1.233,2.967-3.25,4.1-6.05
		c1.134-3.233,2.017-5.55,2.65-6.95c0.434-0.934,0.566-2.133,0.399-3.6c-0.199-1.834-0.267-3.017-0.199-3.55
		c-0.267-0.334-0.434-0.584-0.5-0.75c-0.134-0.367-0.2-0.801-0.2-1.301l0.05-0.899c0.066-0.5,0.05-0.95-0.05-1.351
		c-0.066-0.399-0.267-0.949-0.601-1.649c-0.366-0.8-0.616-1.367-0.75-1.7c-0.066-0.167-0.25-0.434-0.55-0.8
		c-0.233-0.267-0.366-0.584-0.399-0.95c0-0.134,0.149-0.366,0.449-0.7c0.334-0.333,0.5-0.6,0.5-0.8c0.034-0.3-0.033-0.9-0.199-1.8
		c-0.134-0.9-0.267-1.467-0.4-1.7c-0.267-0.434-0.616-0.733-1.05-0.9c-0.334-0.1-0.851-0.149-1.55-0.149
		c-0.767,0.033-1.317,0.017-1.65-0.05c1.033-0.634,1.6-1.483,1.7-2.551c0.033-0.366,0.017-0.85-0.05-1.449
		c-0.101-0.634-0.167-1.134-0.2-1.5c-0.066-0.467-0.101-1.217-0.101-2.25c0-1-0.033-1.75-0.1-2.25c-0.366-1.3-0.616-2.25-0.75-2.851
		c-0.233-1.1-0.134-1.983,0.3-2.65c0.101-0.167,0.467-0.583,1.101-1.25c0.267-0.267,0.416-0.816,0.449-1.65v-0.8
		c-0.433-0.367-0.75-0.767-0.949-1.2c-0.467-0.967-0.767-2.533-0.9-4.7c-0.134-2.133-0.483-3.733-1.05-4.8
		c-1.233-2.367-3.117-3.033-5.65-2c-0.767,0.333-1.25,0.65-1.45,0.95l-0.6,1.5c-0.8,2.066-1.75,3.783-2.85,5.15
		c-1.601,1.967-3.2,2.75-4.801,2.35c1.733-1.667,2.767-3.15,3.101-4.45c0.2-1.2,0.333-2.033,0.399-2.5
		c0.134-0.767,0.551-1.483,1.25-2.15c2-1.733,3.517-3.083,4.551-4.05c1.8-1.733,2.949-3.333,3.449-4.8c0.334-1,0.5-2.517,0.5-4.55
		v-1.4c-0.233-2.133-0.25-3.667-0.05-4.6c0.066-0.3,0.267-0.85,0.601-1.65c0.233-0.667,0.383-1.283,0.449-1.85
		c0.467-4.233-0.483-7.833-2.85-10.8c-0.434-0.533-1.017-1.2-1.75-2c-0.533-0.733-0.866-1.517-1-2.35
		c-0.1-0.933,0.134-2.367,0.7-4.3l-0.2-0.05c-0.467-0.333-0.9-1.7-1.3-4.1c-0.032-0.064-0.049-0.115-0.05-0.15v-0.05
		c-0.034-0.167-0.051-0.333-0.051-0.5c-0.033-0.033-0.05-0.083-0.05-0.15c-0.059-0.177-0.117-0.343-0.175-0.5l-0.025-0.05
		c-0.733-1.733-1.966-1.8-3.699-0.2c-0.467-3.2-0.7-7-0.7-11.4c0-2.5,0.05-6.3,0.149-11.4l-0.05-3.2c-0.066-4.433-0.233-8-0.5-10.7
		c-0.066-0.767-0.267-1.633-0.6-2.6c-0.4-1.233-0.65-2.05-0.75-2.45c-0.167-0.733-0.233-1.733-0.2-3c0.1-1.667,0.134-2.667,0.1-3
		c-0.133-1.4-0.3-2.383-0.5-2.95l-0.3-0.55l-1-1.3c-0.366-0.567-0.583-0.967-0.649-1.2c-0.167-0.633,0.017-1.517,0.55-2.65
		c0.6-1.3,0.899-2.25,0.899-2.85c0.034-1.2-0.066-2.233-0.3-3.1c-0.166-0.566-0.533-1.517-1.1-2.85c-0.533-1.267-0.867-2.667-1-4.2
		C73.1,25.417,73.066,23.967,73.1,22c0-4.367-0.183-8.367-0.55-12c0-0.033-0.233-1.25-0.7-3.65L71.7,5.75
		c-0.5-2.467-0.634-4.267-0.4-5.4l0.05-0.15l0.2,0.25h0.05V0.5c0.367,0.533,0.667,1.317,0.9,2.35c0.267,1.167,0.467,2,0.6,2.5
		c0.467,1.733,0.784,3.717,0.95,5.95c0.101,1.034,0.417,3.284,0.95,6.75c0.4,2.733,0.6,5,0.6,6.8c0,2.633,0.15,4.933,0.45,6.9
		c0.3,2.167,0.851,4.4,1.65,6.7c0.533,1.5,0.916,3.267,1.149,5.3c0.067,0.7,0.184,2.5,0.351,5.4L79.6,48
		c-0.1,1.7-0.033,3.817,0.2,6.35c0.334,2.867,0.55,5,0.65,6.4c0.899,2.3,1.483,4.017,1.75,5.15c0.533,2.1,0.767,4.85,0.7,8.25
		c-0.2,3.833-0.301,6.633-0.301,8.4c0.067,1.567,0.134,2.767,0.2,3.6c0.101,1.567,0.316,2.7,0.65,3.4
		c0.133,0.333,0.483,0.7,1.05,1.1c0.566,0.434,0.9,0.75,1,0.95c0.167,0.3,0.3,0.833,0.4,1.6c0.1,1,0.166,1.55,0.199,1.65
		c0.034,0.167,0.067,0.35,0.101,0.55c0,0.033,0.017,0.067,0.05,0.1L87,99.2c0.016,0.07,0.032,0.136,0.05,0.2L87.2,100.05z
		 M84.3,232.95l2-0.5c-0.866,0.399-1.967,1.116-3.3,2.149c-1.667,1.367-2.634,2.134-2.9,2.301c-1.666,1.066-4.35,1.6-8.05,1.6
		c-0.2,0-1.6,0.05-4.2,0.15c-1.733,0.066-3.133,0.033-4.2-0.101c-2.667-0.333-4.283-0.566-4.85-0.7c-1-0.233-1.7-0.483-2.1-0.75
		c1.3-0.233,3.45-0.383,6.45-0.449c2.8-0.101,4.95-0.317,6.45-0.65c0.467-0.1,2.233-0.333,5.3-0.7
		c2.199-0.233,3.933-0.666,5.199-1.3l3.45-0.85L84.3,232.95z M61.95,276.9l-0.75-0.4c0.5-0.533,2.066-0.816,4.7-0.85
		c2.833,0.033,4.55,0.017,5.15-0.051c1.733-0.133,2.917-0.333,3.55-0.6c0.233-0.1,0.867-0.5,1.9-1.2
		c0.767-0.566,1.467-0.833,2.1-0.8l1.601-0.8L80.6,272c-0.199,0.2-0.85,1.05-1.949,2.55c-0.634,0.8-1.45,1.417-2.45,1.851
		c-1.566,0.699-3.15,1.066-4.75,1.1c-0.9,0.033-2.5,0.1-4.8,0.2C64.617,277.667,63.05,277.4,61.95,276.9z M47.25,282.55
		c-0.167,0.634-0.483,1.134-0.95,1.5c-0.533,0.434-1.1,0.584-1.7,0.45c-0.633-0.1-1.117-0.483-1.45-1.15
		c-0.333-0.699-0.316-1.3,0.05-1.8c0.167-0.233,0.433-0.399,0.8-0.5l0.1-0.05l2.5-0.5c0.433,0.233,0.683,0.65,0.75,1.25
		C47.35,282.116,47.317,282.384,47.25,282.55z M60.95,305.15c0.533-1.567,1.733-3.684,3.6-6.351c-0.333,0.667-0.617,1.584-0.85,2.75
		v0.05c-0.2,0.867-0.417,2.034-0.65,3.5l-0.1,0.4c-0.467,0.233-0.8,0.5-1,0.8c-0.267,0.4-0.4,0.983-0.4,1.75
		c0.034,0.867,0.217,1.617,0.55,2.25l0.05,1.351c-0.066,0-0.15,0-0.25,0c-0.4-0.067-0.983-0.117-1.75-0.15h-1.5
		c-3.2,0.033-7.667,0.033-13.4,0c0.333-0.467,0.967-0.783,1.9-0.95c0.8-0.133,1.967-0.166,3.5-0.1c1.633,0.066,2.6,0.083,2.9,0.05
		c1.267-0.134,2.034-0.517,2.3-1.15c0.066-0.133,0.15-0.966,0.25-2.5l0.05-0.8c1.033,0.667,2.25,0.983,3.65,0.95l0.7-0.05
		C60.533,306.55,60.683,305.95,60.95,305.15z M83.05,288.3c-0.733,0.566-1.783,1.5-3.149,2.8c-1.267,1.101-2.534,1.733-3.801,1.9
		c-0.833,0.134-1.85,0.116-3.05-0.05c-0.666-0.101-1.666-0.25-3-0.45c-0.566-0.066-1.483-0.116-2.75-0.15
		c-1.1-0.1-1.95-0.35-2.55-0.75c0.9-0.166,2.267-0.183,4.1-0.05c1.867,0.134,3.216,0.134,4.05,0l0.8-0.149
		c1.566-0.4,3.217-1.084,4.95-2.051c2-1.133,3.316-2.25,3.949-3.35l3,1C84.7,287.233,83.85,287.667,83.05,288.3z M86.6,314
		c-0.472,0.046-0.93,0.096-1.375,0.15l-1.3,0.199c-0.072,0.02-0.146,0.036-0.225,0.051l-2.65,0.6c0.033-0.033,0.434-0.65,1.2-1.85
		c0.434-0.667,0.717-1.167,0.85-1.5c0.767-1.9,1.334-3.95,1.7-6.15c0.4-2.434,0.483-4.55,0.25-6.35c0.566,1,0.9,2.267,1,3.8
		c0.066,0.866,0.117,2.2,0.15,4C86.467,310.083,86.6,312.434,86.6,314z"/>
	<path style="fill-rule:evenodd;clip-rule:evenodd;fill:#3F3932;" d="M74.8,43.2c-0.566,0.267-1.333,0.4-2.3,0.4
		c0.066-0.467,0.283-1.367,0.65-2.7c0.3-1.033,0.449-1.983,0.449-2.85c-0.033-1.833-0.033-3.683,0-5.55c0-2.567-0.199-4.2-0.6-4.9
		c-0.167-0.267-0.55-0.633-1.15-1.1c-0.6-0.433-0.983-0.8-1.149-1.1c-0.833-1.3-1.017-3.033-0.55-5.2
		c0.267-1.233,0.783-2.967,1.55-5.2c0.533-2,0.616-4.417,0.25-7.25l-0.101-1.4c0.467,2.4,0.7,3.617,0.7,3.65
		c0.367,3.633,0.55,7.633,0.55,12c-0.033,1.967,0,3.417,0.101,4.35c0.133,1.533,0.467,2.933,1,4.2c0.566,1.333,0.934,2.284,1.1,2.85
		c0.233,0.867,0.334,1.9,0.3,3.1c0,0.6-0.3,1.55-0.899,2.85c-0.533,1.133-0.717,2.017-0.55,2.65
		C74.217,42.233,74.434,42.633,74.8,43.2z M73.55,104.5c0.834-0.933,1.45-1.967,1.851-3.1l0.199-0.55l0.051-0.25
		c0.199-0.633,0.35-1.367,0.449-2.2c0.334-2.433,0.551-4.25,0.65-5.45c0.233-2,0.35-3.833,0.35-5.5c0-0.767,0-1.934,0-3.5
		c-0.033-1.333-0.166-2.483-0.399-3.45c-0.101-0.367-0.417-1.35-0.95-2.95c-0.4-1.167-0.634-2.15-0.7-2.95
		c-0.2-1.867,0.283-4.2,1.45-7c-0.333-0.733-0.5-1.7-0.5-2.9c0-0.7,0.033-1.733,0.1-3.1c0-2.167,0-3.267,0-3.3
		c-0.267-0.966-1.116-1.433-2.55-1.4c1.134-1.566,1.934-3.517,2.4-5.85c0.566-2.566,0.517-4.75-0.15-6.55l0.3,0.55
		c0.2,0.567,0.367,1.55,0.5,2.95c0.034,0.333,0,1.333-0.1,3c-0.033,1.267,0.033,2.267,0.2,3c0.1,0.4,0.35,1.217,0.75,2.45
		c0.333,0.966,0.533,1.833,0.6,2.6c0.267,2.7,0.434,6.267,0.5,10.7l0.05,3.2c-0.1,5.1-0.149,8.9-0.149,11.4
		c0,4.4,0.233,8.2,0.7,11.4c1.733-1.6,2.966-1.533,3.699,0.2c-0.263-0.504-0.646-0.804-1.149-0.9c-0.566,0.767-1.283,1.967-2.15,3.6
		c-1,1.833-1.733,3.1-2.2,3.8c-1.733,2.566-3.816,4.017-6.25,4.35C72.1,106,72.917,105.233,73.55,104.5z M97.5,187.45l-0.75,0.35
		c-1.6,0.8-3.4,1.3-5.4,1.5c-0.466,0.066-2.333,0.134-5.6,0.2c0.9-0.2,1.783-0.55,2.65-1.05c1.033-0.601,1.6-1.25,1.699-1.95
		c0.101-0.6-0.05-1.366-0.449-2.3c-0.367-0.867-0.4-1.634-0.101-2.3c0.267-0.634,0.816-1.351,1.65-2.15
		c0.899-0.8,1.533-1.417,1.899-1.85c0.067-0.067,0.267-0.351,0.601-0.851c-2.033,0.467-5,0.8-8.9,1
		c-2.267,0.066-5.684,0.05-10.25-0.05c-0.399,0-0.717,0.017-0.95,0.05c-2.566,0.066-4.25,0.017-5.05-0.149
		c0.967-0.534,2.35-0.867,4.15-1c2.467-0.167,3.934-0.301,4.399-0.4l1.301-0.3c2.533-0.566,4.466-1.184,5.8-1.851
		c1.6-0.767,3.05-1.533,4.35-2.3L87.65,171.9c0.066-0.467,0.35-1.5,0.85-3.101c0.4-1.3,0.6-2.399,0.6-3.3
		c0-1.434-0.267-2.483-0.8-3.15c-0.399-0.5-1.3-1.067-2.7-1.7c1.967-1.2,3.267-2.367,3.9-3.5c0.533-0.967,0.75-1.917,0.65-2.85
		c-0.134-1.1-0.801-1.55-2-1.35c0-0.233,0.033-0.934,0.1-2.1c0.233-1.567,0.333-2.633,0.3-3.2c0-1.167-0.3-2.15-0.899-2.95
		c-1.034,0.966-1.867,2-2.5,3.1c-0.5,0.833-1.051,2-1.65,3.5c-0.3,0.767-0.884,1.55-1.75,2.35c-0.5,0.467-1.283,1.117-2.35,1.95
		c-1.801,1.533-4.134,2.517-7,2.95c-2.434,0.367-5,0.317-7.7-0.15c0.533-0.467,1.333-0.767,2.4-0.9c1.267-0.167,2.1-0.333,2.5-0.5
		c1.633-0.7,3-1.867,4.1-3.5c0.967-1.367,1.767-2.9,2.399-4.6c0.034-0.1,0.534-1.733,1.5-4.9c0.334-1.067,0.9-1.85,1.7-2.35
		c1.101-0.566,2.033-1.117,2.8-1.65c1.233-0.833,2-1.983,2.301-3.45c0.1-0.566,0.166-2.033,0.199-4.4c0-1.367,0.2-2.283,0.601-2.75
		l1.8-1.25l-0.1-0.5c-0.101-0.7-0.167-1.867-0.2-3.5c0-1.5-0.066-2.517-0.2-3.05l-2.35-0.15c-0.034-3.1-0.101-5.383-0.2-6.85
		c-0.167-2.5-1-4.483-2.5-5.95c-0.601-0.6-0.95-0.983-1.05-1.15c-0.167-0.233-0.101-0.583,0.199-1.05l0.5-0.95
		c0.867-1.833,1.351-2.9,1.45-3.2c0.434-1.2,0.65-2.466,0.65-3.8v-0.45c-0.033-0.132-0.05-0.249-0.05-0.35
		c0.001,0.035,0.018,0.085,0.05,0.15c0.399,2.4,0.833,3.767,1.3,4.1l0.2,0.05c-0.566,1.933-0.8,3.367-0.7,4.3
		c0.134,0.833,0.467,1.617,1,2.35c0.733,0.8,1.316,1.467,1.75,2c2.366,2.967,3.316,6.567,2.85,10.8
		c-0.066,0.566-0.216,1.183-0.449,1.85c-0.334,0.8-0.534,1.35-0.601,1.65c-0.2,0.933-0.184,2.466,0.05,4.6v1.4
		c0,2.033-0.166,3.55-0.5,4.55c-0.5,1.467-1.649,3.067-3.449,4.8c-1.034,0.967-2.551,2.317-4.551,4.05
		c-0.699,0.667-1.116,1.383-1.25,2.15c-0.066,0.467-0.199,1.3-0.399,2.5c-0.334,1.3-1.367,2.783-3.101,4.45
		c1.601,0.4,3.2-0.383,4.801-2.35c1.1-1.367,2.05-3.083,2.85-5.15l0.6-1.5c0.2-0.3,0.684-0.617,1.45-0.95
		c2.533-1.033,4.417-0.367,5.65,2c0.566,1.067,0.916,2.667,1.05,4.8c0.134,2.167,0.434,3.733,0.9,4.7
		c0.199,0.433,0.517,0.833,0.949,1.2v0.8c-0.033,0.833-0.183,1.383-0.449,1.65c-0.634,0.667-1,1.083-1.101,1.25
		c-0.434,0.667-0.533,1.55-0.3,2.65c0.134,0.6,0.384,1.55,0.75,2.851c0.066,0.5,0.1,1.25,0.1,2.25c0,1.033,0.034,1.783,0.101,2.25
		c0.033,0.366,0.1,0.866,0.2,1.5c0.066,0.6,0.083,1.083,0.05,1.449c-0.101,1.067-0.667,1.917-1.7,2.551
		c0.333,0.066,0.884,0.083,1.65,0.05c0.699,0,1.216,0.05,1.55,0.149c0.434,0.167,0.783,0.467,1.05,0.9
		c0.134,0.233,0.267,0.8,0.4,1.7c0.166,0.899,0.233,1.5,0.199,1.8c0,0.2-0.166,0.467-0.5,0.8c-0.3,0.334-0.449,0.566-0.449,0.7
		c0.033,0.366,0.166,0.684,0.399,0.95c0.3,0.366,0.483,0.633,0.55,0.8c0.134,0.333,0.384,0.9,0.75,1.7
		c0.334,0.7,0.534,1.25,0.601,1.649C97.55,186.5,97.566,186.95,97.5,187.45z M102.15,249.4c-0.267-1.4-0.867-2.417-1.801-3.051
		c-1.1-0.733-2.316-0.633-3.649,0.301c-0.533,0.366-1.084,1-1.65,1.899c-0.666,1.101-1.149,1.8-1.45,2.101
		c-1.433,1.366-3.3,2.149-5.6,2.35c-1.533,0.134-2.733,0.2-3.6,0.2c-4.2,0.133-7.634-0.384-10.301-1.55
		c-1.833-0.801-3.8-1.334-5.899-1.601l-0.35-0.1c-2.167,0.1-3.833-0.184-5-0.851c0.633-0.199,1.467-0.149,2.5,0.15
		c1.133,0.366,1.967,0.6,2.5,0.7c1.1-0.033,2.767-0.2,5-0.5C74.95,249.15,76.4,249,77.2,249c3.2,0,5.6-0.05,7.2-0.15l3.05-0.35
		c1.899-0.267,3.149-0.684,3.75-1.25c0.733-0.667,1-1.884,0.8-3.65l-0.95-0.25c-1.467-0.466-2.316-0.866-2.55-1.199
		c-0.366-0.534-0.417-0.917-0.15-1.15c0.5-0.467,0.784-0.783,0.851-0.95c0.967-2.533,0.6-3.899-1.101-4.1
		c-0.466-0.033-1.166,0.166-2.1,0.6c-1.267,0.601-1.95,0.917-2.05,0.95c-1.066,0.366-2.684,0.833-4.851,1.4
		c-1.833,0.5-4.033,1-6.6,1.5c-2.933,0.6-7.25,0.3-12.95-0.9c-2.333-0.5-4.283-0.833-5.85-1h-0.15c-0.833-0.066-2.167-0.233-4-0.5
		c3.133,0,6.217-0.05,9.25-0.15c0.567,0.134,2.184,0.367,4.85,0.7c1.067,0.134,2.467,0.167,4.2,0.101c2.6-0.101,4-0.15,4.2-0.15
		c3.7,0,6.384-0.533,8.05-1.6c0.267-0.167,1.233-0.934,2.9-2.301c1.333-1.033,2.434-1.75,3.3-2.149l-2,0.5
		c2.467-1.167,4.566-2.65,6.3-4.45c1.101-1.134,2.567-2.5,4.4-4.1c0.5-0.467,1.1-1.2,1.8-2.2c0.767-1.066,1.367-1.816,1.8-2.25
		c0.534-0.533,1.301-0.983,2.301-1.351c1.166-0.433,1.933-0.783,2.3-1.05l0.25-0.2L103.1,217c-0.5-0.634-0.633-1.3-0.399-2
		c0.434-0.833,0.733-1.5,0.899-2c0.534-1.866,0.7-3.366,0.5-4.5c-0.267-1.333-0.767-1.983-1.5-1.95
		c-0.633,0.033-1.383,0.55-2.25,1.55c-0.833,0.967-1.767,1.75-2.8,2.351c-0.533,0.333-1.416,0.95-2.649,1.85
		c-1.167,0.767-2.084,1.283-2.75,1.55c-1.334,0.534-3.217,0.801-5.65,0.801c-1.333,0-3.283-0.051-5.85-0.15H75.1H74.65l0.5-0.05
		c2.633-0.3,5.683-1.517,9.149-3.65c2.934-1.767,4.7-2.883,5.3-3.35c1.767-1.367,3.051-2.967,3.851-4.8
		c0.434-1.034,0.733-1.967,0.899-2.801c0.134-0.767,0.217-1.75,0.25-2.949c-0.1-1.534-0.149-2.7-0.149-3.5
		c0-1.467,0.25-2.601,0.75-3.4c0.267-0.434,0.616-0.783,1.05-1.05c0.533-0.233,0.934-0.434,1.2-0.601c0,0.5,0.066,0.934,0.2,1.301
		c0.066,0.166,0.233,0.416,0.5,0.75c-0.067,0.533,0,1.716,0.199,3.55c0.167,1.467,0.034,2.666-0.399,3.6
		c-0.634,1.4-1.517,3.717-2.65,6.95c-1.133,2.8-2.5,4.816-4.1,6.05c1.333-0.166,2.616-1.017,3.85-2.55
		c1.267-1.833,2.25-3.1,2.95-3.8c0.9-0.9,1.566-1.25,2-1.05c0.233,0.066,0.8,0.649,1.7,1.75c0.233,0.267,0.767,0.75,1.6,1.449
		c0.7,0.601,1.167,1.117,1.4,1.551c0.333,0.6,0.5,1.5,0.5,2.699c0,0.667-0.033,1.617-0.101,2.851c0,2.166-0.066,3.783-0.199,4.85
		l-0.301,1.55c-0.399,0.534-0.733,0.917-1,1.15c-1.133,1.167-2.483,2.3-4.05,3.4c-0.733,0.466-2.217,1.383-4.45,2.75
		c0.267,0.267,0.733,0.399,1.4,0.399c0.934,0,1.467,0.017,1.6,0.05c0.5,0.067,1.317,0.334,2.45,0.801
		c1,0.433,1.816,0.666,2.45,0.699c0.1,0.867,0.116,2.2,0.05,4c-0.1,1.767-0.1,3.084,0,3.95c0.101,0.7,0.267,1.816,0.5,3.351
		c0.167,1.399,0.184,2.6,0.05,3.6c-0.066,0.566-0.3,1.45-0.699,2.65C102.5,247.917,102.25,248.833,102.15,249.4z M104.1,254.2
		c-1.8,0.233-3.267,0.05-4.399-0.55c1.3-0.2,2.1-0.95,2.399-2.25C102.3,252.434,102.967,253.366,104.1,254.2z M89.7,313.9l-2.4,0.1
		h-0.7c0-1.566-0.133-3.917-0.399-7.05c-0.033-1.8-0.084-3.134-0.15-4c-0.1-1.533-0.434-2.8-1-3.8c0.233,1.8,0.15,3.916-0.25,6.35
		c-0.366,2.2-0.934,4.25-1.7,6.15c-0.133,0.333-0.416,0.833-0.85,1.5c-0.767,1.199-1.167,1.816-1.2,1.85
		c-0.166,0.033-0.333,0.083-0.5,0.15c-0.566,0.199-1.3,0.483-2.2,0.85c-0.767,0.267-1.517,0.434-2.25,0.5
		c-0.533,0.033-1.149,0.066-1.85,0.1H74.2c0.233-0.133,0.467-0.25,0.7-0.35l2.649-1.95l0.05-0.05c0.034-0.066,0.051-0.134,0.051-0.2
		c0.1-0.467-0.034-0.934-0.4-1.399c-0.5-0.601-0.783-1.017-0.85-1.25c-0.2-0.801-0.2-1.317,0-1.551c0.433-0.267,0.833-0.6,1.199-1
		c0.9-0.933,1.384-1.5,1.45-1.699c0.233-0.567-0.083-1.25-0.95-2.051c-0.199-0.199-1-0.483-2.399-0.85
		c-1.033-0.3-1.566-0.85-1.601-1.65c1.434-0.166,2.351-0.35,2.75-0.55c0.667-0.333,1.217-1.017,1.65-2.05
		c0.566-1.467,0.717-2.6,0.45-3.4c-0.667-2.066-2.617-3.1-5.851-3.1c-5.667,0-9.066-0.066-10.2-0.2
		c-3.933-0.434-7.017-1.684-9.25-3.75c3.833,1.167,9.3,1.816,16.4,1.95l2.851,0.05c-0.834,0.134-2.184,0.134-4.05,0
		c-1.833-0.133-3.2-0.116-4.1,0.05c0.6,0.4,1.45,0.65,2.55,0.75c1.267,0.034,2.184,0.084,2.75,0.15c1.334,0.2,2.334,0.35,3,0.45
		c1.2,0.166,2.217,0.184,3.05,0.05c1.267-0.167,2.534-0.8,3.801-1.9c1.366-1.3,2.416-2.233,3.149-2.8c0.134,1.066,0.3,1.75,0.5,2.05
		c0.233,0.5,0.733,0.884,1.5,1.15c0.867,0.333,2.25,0.25,4.15-0.25c1.967-0.533,2.833-1.134,2.6-1.8c1.601,0,3.101-0.7,4.5-2.101
		c1.334-1.333,2.084-2.783,2.25-4.35c0.134-1.167,0.25-1.816,0.351-1.95c0.399-0.267,0.916-0.649,1.55-1.149
		c1.033-0.801,1.783-1.801,2.25-3c0.267-0.733,0.55-1.95,0.85-3.65c0.533-3,0.601-5.517,0.2-7.55c-0.6-3.167-2.35-3.95-5.25-2.351
		c-0.6,0.367-1.316,1.084-2.15,2.15c-0.899,1.167-1.616,1.934-2.149,2.3c-1.134,0.8-2.417,1.467-3.851,2
		c1.567-0.7,3.017-1.967,4.351-3.8c0.6-0.8,1.133-1.866,1.6-3.2c0.667-1.8,1.101-2.916,1.3-3.35c0.467-0.934,1.167-1.417,2.101-1.45
		c0.899-0.033,1.816,0.333,2.75,1.1c0.399,0.567,0.649,0.95,0.75,1.15c0.233,0.3,0.733,0.366,1.5,0.2c0.967-0.2,1.934-1,2.899-2.4
		c0.267,1.233,0.25,3.05-0.05,5.45c-0.166,1.533-0.217,2.7-0.149,3.5c0.066,1,0.333,2.15,0.8,3.45c2.566,7.333,3.5,13.616,2.8,18.85
		c-0.533-0.833-1.184-3.066-1.95-6.7c-0.666-3.133-1.633-5.133-2.899-6c-0.267,1.134-0.184,2.717,0.25,4.75
		c0.267,1.134,0.666,2.7,1.199,4.7c0.334,1.5,0.5,3.983,0.5,7.45c0,0.866,0,2.167,0,3.9c-0.066,1.466-0.433,2.666-1.1,3.6
		c-0.566,0.8-1.217,1.283-1.95,1.45c-0.233,0.033-1.066,0.05-2.5,0.05s-2.25-0.017-2.45-0.05c-0.6-0.167-1.116-0.65-1.55-1.45
		c-0.467-0.9-0.5-2.05-0.1-3.45c0.733-3,1.116-5.45,1.149-7.35c-0.433,0.467-0.916,1.333-1.449,2.6
		c-0.534,1.3-1.051,2.217-1.551,2.75c-0.399,0.367-1.233,0.934-2.5,1.7c-1.166,0.667-1.916,1.25-2.25,1.75
		c0.801,0.7,1.317,1.184,1.551,1.45c0.366,0.467,0.6,1.149,0.699,2.05c0.067,0.566,0.084,1.316,0.051,2.25
		c0,0.5-0.017,1.25-0.051,2.25c-0.033,1.066-0.083,1.816-0.149,2.25c-0.167,0.8-0.467,1.5-0.9,2.1
		C92.517,312.017,91.4,312.866,89.7,313.9z M74.5,124.15c-0.3,0.633-0.45,1.434-0.45,2.4c-0.033,0.567-0.033,1.383,0,2.45v0.75
		c-0.1,1.6-0.566,3.2-1.399,4.8c-0.167,0.4-0.434,1.017-0.801,1.85c-0.366,0.733-0.699,1.317-1,1.75
		c-0.333,0.467-0.867,1.083-1.6,1.85c-0.367,0.5-0.6,1.033-0.7,1.6v-3.15c0.034-1.233,0.267-2.3,0.7-3.2
		c0.167-0.3,0.75-1.233,1.75-2.8c0.434-0.7,0.783-1.367,1.05-2c0.8-1.633,1.15-3.284,1.05-4.95l1.4-1.4l0.1-0.1L74.5,124.15z
		 M67.55,85.55H67.5c-0.233-0.333-0.317-0.917-0.25-1.75c0.067-0.867,0.25-1.617,0.55-2.25c0.367-0.733,0.8-1.083,1.3-1.05l2.5,1.5
		c-0.633,1.567-1.133,2.633-1.5,3.2C69.167,86.567,68.317,86.683,67.55,85.55z M61.95,276.9c1.1,0.5,2.667,0.767,4.7,0.8
		c2.3-0.101,3.9-0.167,4.8-0.2c1.6-0.033,3.184-0.4,4.75-1.1c1-0.434,1.816-1.051,2.45-1.851c1.1-0.8,2.25-1.983,3.449-3.55l2.5-0.5
		c-2.133,2.767-4.483,4.967-7.05,6.6c-2.3,1.467-3.916,2.4-4.85,2.801c-0.8,0.333-1.7,0.533-2.7,0.6c-0.2,0-1.133,0-2.8,0l-4.5-0.05
		c-1.167-0.467-1.934-0.75-2.3-0.851c-0.867-0.199-1.583-0.1-2.15,0.301l0.1,0.05l-0.15-0.05c-3-0.667-4.684-1.051-5.05-1.15
		c-2.333-0.634-3.816-1.366-4.45-2.2c1.1,0.533,2.716,0.767,4.85,0.7c2.367-0.167,4.034-0.25,5-0.25L61.95,276.9z M43.2,281.55
		c-0.367,0.5-0.383,1.101-0.05,1.8c0.333,0.667,0.817,1.051,1.45,1.15c0.6,0.134,1.167-0.017,1.7-0.45
		c0.467-0.366,0.784-0.866,0.95-1.5c0.333,0.667,0.5,1.467,0.5,2.4s-0.167,1.633-0.5,2.1c-0.433,0.566-1.367,0.934-2.8,1.101
		c-1.2,0.1-2.284,0.05-3.25-0.15c-0.5-0.1-0.967-0.184-1.4-0.25c-0.233-0.1-0.483-0.517-0.75-1.25c-0.1-0.267-0.133-0.767-0.1-1.5
		c0-0.7,0.066-1.167,0.2-1.4C39.783,282.366,41.133,281.684,43.2,281.55z M27.15,306l0.3-1.15c0.566-1.633,0.883-2.767,0.95-3.399
		c0.167-1.066-0.316-2.017-1.45-2.851c-0.333-0.233-1.017-0.6-2.05-1.1c-0.933-0.5-1.517-0.983-1.75-1.45
		c-0.267-0.533-0.333-1.283-0.2-2.25c0.033-0.399,0.1-0.816,0.2-1.25h0.05c0.9,0.134,1.55,0.134,1.95,0
		c1.1-0.267,1.75-0.783,1.95-1.55c0.1-1,0.3-1.8,0.6-2.4c0.333-0.699,1.1-1.75,2.3-3.149c1.033-1.267,1.733-2.417,2.1-3.45
		s0.583-2.5,0.65-4.4c0.067-2.199,0.183-3.716,0.35-4.55c0.3-1.366,0.517-2.383,0.65-3.05c0.2-1.134,0.317-2.217,0.35-3.25
		c0,1.333,0.066,3.384,0.2,6.15c0.067,2.5,0,4.533-0.2,6.1c-0.1,0.767-0.333,1.833-0.7,3.2c-0.4,1.467-0.65,2.517-0.75,3.149
		c-0.033,0.233-0.033,0.617,0,1.15c0.033,0.5,0.017,0.884-0.05,1.15c-0.133,0.566-0.333,1.116-0.6,1.649
		c-0.2,0.3-0.517,0.834-0.95,1.601c-1.1,2.033-1.267,3.55-0.5,4.55c0.267,0.333,0.817,0.616,1.65,0.85
		c0.867,0.233,1.45,0.5,1.75,0.8c0.3,0.334,0.7,0.95,1.2,1.851c0.4,0.767,0.867,1.333,1.4,1.7c0.767,0.5,1.667,0.85,2.7,1.05
		c1.233,0.133,2.167,0.267,2.8,0.399c-0.333,0.367-1.183,0.551-2.55,0.551c-0.733,0-1.733-0.051-3-0.15
		c-2.267,0-3.533,0.017-3.8,0.05c-1.467,0.101-2.633,0.467-3.5,1.101c-0.7,0.466-1.367,1.216-2,2.25L27.15,306z M47.15,310.55
		c1.1-1.8,1.75-3.3,1.95-4.5c0.133-0.899,0.217-2.066,0.25-3.5c0.066-1.767-0.017-2.916-0.25-3.45
		c-0.133-0.333-0.45-0.633-0.95-0.899c-0.533-0.3-0.867-0.566-1-0.8c-0.133-0.267-0.183-0.717-0.15-1.351
		c0.033-0.899,0.05-1.366,0.05-1.399c1.133,1.5,2,2.649,2.6,3.449c1.067,1.367,2.083,2.301,3.05,2.801
		c0.2,0.1,0.767,0.233,1.7,0.399c0.8,0.167,1.3,0.367,1.5,0.601c0.233,0.333,0.35,0.916,0.35,1.75
		c-0.033,0.466-0.083,1.083-0.15,1.85c-0.033,0.5-0.033,0.95,0,1.35c-0.1,1.534-0.184,2.367-0.25,2.5
		c-0.267,0.634-1.033,1.017-2.3,1.15c-0.3,0.033-1.267,0.017-2.9-0.05C49.117,310.384,47.95,310.417,47.15,310.55z M60.95,305.15
		c-0.267,0.8-0.417,1.399-0.45,1.8L59.8,307L60.95,305.15z M64.25,305l-1.3,0.5l0.1-0.4c0.233-1.466,0.45-2.633,0.65-3.5v-0.05
		C64.433,302.616,64.617,303.767,64.25,305z M37.6,292.5l3.5-2c0.033,1.1,0.033,1.816,0,2.15c-0.1,0.899-0.434,1.5-1,1.8
		c-0.7,0.366-1.333,0.316-1.9-0.15C37.633,293.866,37.433,293.267,37.6,292.5z"/>
	<path style="fill-rule:evenodd;clip-rule:evenodd;fill:#4F4639;" d="M75.8,44.5c0.667,1.8,0.717,3.983,0.15,6.55
		c-0.467,2.333-1.267,4.284-2.4,5.85c1.434-0.033,2.283,0.434,2.55,1.4c0,0.034,0,1.133,0,3.3C76.033,62.967,76,64,76,64.7
		c0,1.2,0.167,2.167,0.5,2.9c-1.167,2.8-1.65,5.133-1.45,7c0.066,0.8,0.3,1.783,0.7,2.95c0.533,1.6,0.85,2.583,0.95,2.95
		c0.233,0.967,0.366,2.117,0.399,3.45c0,1.566,0,2.733,0,3.5c0,1.667-0.116,3.5-0.35,5.5c-0.1,1.2-0.316,3.017-0.65,5.45
		c-0.1,0.833-0.25,1.567-0.449,2.2l-0.051-0.1v0.35L75.4,101.4c0.333-1.733,0.55-3.066,0.649-4c0.167-1.167,0.167-2.433,0-3.8
		c-0.2-1.467-0.55-2.633-1.05-3.5s-1.033-1.383-1.6-1.55c-0.4-0.133-1.15-0.15-2.25-0.05c0.1-0.367,0.25-0.7,0.449-1l-0.449,0.6
		c-0.034-0.833-0.067-1.333-0.101-1.5c-0.066-0.533-0.233-0.983-0.5-1.35c0.034,1.033-0.1,2.433-0.4,4.2L70.1,89.5l-0.05,0.4
		l-0.3,1.45c-0.533,2.167-0.767,3.5-0.7,4l-0.1,0.6l-0.85,2.4c0.066-5.5-0.117-9.767-0.55-12.8c0.767,1.133,1.617,1.017,2.55-0.35
		c0.367-0.567,0.867-1.633,1.5-3.2l-2.5-1.5c-0.5-0.033-0.934,0.317-1.3,1.05c-0.3,0.633-0.483,1.383-0.55,2.25l-0.05-0.3
		c-0.767-3.733-0.15-5.567,1.85-5.5c1,0.033,1.867,0.483,2.601,1.35c0.767,1.133,1.383,1.967,1.85,2.5
		c0.233-1.033,0.167-2.483-0.2-4.35c-0.467-2.333-0.7-3.833-0.7-4.5c-0.066-1.633-0.066-4.083,0-7.35c0-1.367-0.216-3.2-0.649-5.5
		c-0.3,0.167-0.65,0.267-1.05,0.3l-1.3-0.95c-0.467,0.7-1.85,0.917-4.15,0.65c-0.267-0.167-0.483-0.35-0.65-0.55
		c0.333-0.067,0.95-0.117,1.85-0.15c0.733-0.067,1.333-0.167,1.8-0.3c0.233-0.066,0.75-0.3,1.55-0.7c0.567-0.3,1.083-0.45,1.55-0.45
		c-0.267-1.5-0.45-2.867-0.55-4.1c-0.3-3.767-0.633-6.383-1-7.85c-0.433,0.3-0.733,0.467-0.9,0.5c-0.033,0-0.367,0.05-1,0.15V46
		c-0.167,0.267-0.4,0.5-0.7,0.7c-1.633-0.133-2.7-0.5-3.2-1.1c0.033,0,0.767-0.067,2.2-0.2c0.833-0.066,1.533-0.233,2.1-0.5
		c0.067-0.5,0.1-1.3,0.1-2.4l0.45-0.5c0.767-1.1,1.117-3.1,1.05-6c-0.033-1.133-0.45-2.7-1.25-4.7c-0.8-1.966-1.217-3.566-1.25-4.8
		l-0.05-1.2c0-0.833,0.05-1.65,0.15-2.45c0.1-1.033,0.383-2.05,0.85-3.05c0.267-0.6,0.733-1.533,1.4-2.8
		c1.3-2.533,1.883-6.283,1.75-11.25l0.149,0.6l0.101,1.4C72.316,10.583,72.233,13,71.7,15c-0.767,2.233-1.284,3.967-1.55,5.2
		c-0.467,2.167-0.283,3.9,0.55,5.2c0.167,0.3,0.55,0.667,1.149,1.1c0.601,0.467,0.983,0.833,1.15,1.1c0.4,0.7,0.6,2.333,0.6,4.9
		c-0.033,1.867-0.033,3.717,0,5.55c0,0.867-0.149,1.817-0.449,2.85c-0.367,1.333-0.584,2.233-0.65,2.7c0.967,0,1.733-0.133,2.3-0.4
		L75.8,44.5z M78.4,176.2c1.767-1.167,2.966-2.95,3.6-5.351c0.434-1.666,0.566-3.767,0.4-6.3c-0.334-2.966-0.567-5.15-0.7-6.55
		c-1.334-0.067-2.617-0.017-3.851,0.15c-1.533,0.233-2.666,0.633-3.399,1.2c-1.033,0.833-1.667,2.1-1.9,3.8
		c-0.1,0.633-0.25,1.6-0.45,2.9c-0.333,1.533-0.983,2.033-1.95,1.5c-0.267-0.133-0.917-0.684-1.95-1.649
		c-0.633-0.634-1.35-1.45-2.15-2.45c-0.7-0.633-1.683-0.95-2.95-0.95h-8c-6.667,0-9.85-1.767-9.55-5.3c0,1.533,1.467,2.466,4.4,2.8
		c1.733,0.2,3.733,0.167,6-0.1c1.066-0.1,2.816-0.517,5.25-1.25c0.966-0.333,1.75-0.883,2.35-1.65c0.633-1.033,1.15-1.867,1.55-2.5
		c2.167-3.533,3.5-7.367,4-11.5c0.066-1.367,0.117-2.367,0.15-3c0.733-0.767,1.267-1.383,1.6-1.85c0.3-0.433,0.633-1.017,1-1.75
		c0.367-0.833,0.634-1.45,0.801-1.85c0.833-1.6,1.3-3.2,1.399-4.8V129c-0.033-1.067-0.033-1.883,0-2.45c0-0.966,0.15-1.767,0.45-2.4
		c0.366,0.8,0.667,1.367,0.9,1.7c0.433,0.6,1,0.8,1.699,0.6c0.7-0.2,1.351-1.05,1.95-2.55c0.5-1.2,0.816-2.316,0.95-3.35
		c0.2-1.6-0.316-3.667-1.55-6.2c-1.733-3.633-2.667-5.65-2.8-6.05l-0.15-0.55c-0.8,0.333-1.4,0.633-1.8,0.9l-1.4,0.8L72.1,109
		l-0.5,0.35L71,109.3l-1.9-0.3c-0.833,0-2.117,0.017-3.85,0.05c-1.5,0-2.75-0.133-3.75-0.4c-0.467-0.1-1.117-0.417-1.95-0.95
		c-1.1-0.667-1.783-1.067-2.05-1.2c-0.067-0.467-0.05-0.9,0.05-1.3c1,0.9,1.684,1.483,2.05,1.75c0.566,0.4,1.4,0.583,2.5,0.55
		c2.033,0.167,3.5,0.183,4.4,0.05c0.967-0.133,2.1-0.466,3.4-1c1.466-0.6,2.683-1.283,3.65-2.05c-0.633,0.733-1.45,1.5-2.45,2.3
		c2.434-0.333,4.517-1.783,6.25-4.35c0.467-0.7,1.2-1.967,2.2-3.8c0.867-1.633,1.584-2.833,2.15-3.6
		c0.504,0.096,0.887,0.396,1.149,0.9L82.875,96c0.058,0.157,0.116,0.323,0.175,0.5c0,0.067,0.017,0.117,0.05,0.15
		c0,0.167,0.017,0.333,0.051,0.5v0.05c0,0.101,0.017,0.218,0.05,0.35V98c0,1.333-0.217,2.6-0.65,3.8c-0.1,0.3-0.583,1.367-1.45,3.2
		l-0.5,0.95c-0.3,0.466-0.366,0.816-0.199,1.05c0.1,0.167,0.449,0.55,1.05,1.15c1.5,1.467,2.333,3.45,2.5,5.95
		c0.1,1.467,0.166,3.75,0.2,6.85l2.35,0.15c0.134,0.533,0.2,1.55,0.2,3.05c0.033,1.633,0.1,2.8,0.2,3.5l0.1,0.5l-1.8,1.25
		c-0.4,0.467-0.601,1.383-0.601,2.75c-0.033,2.367-0.1,3.833-0.199,4.4c-0.301,1.467-1.067,2.617-2.301,3.45
		c-0.767,0.533-1.699,1.083-2.8,1.65c-0.8,0.5-1.366,1.283-1.7,2.35c-0.966,3.167-1.466,4.8-1.5,4.9
		c-0.633,1.7-1.433,3.233-2.399,4.6c-1.101,1.633-2.467,2.8-4.1,3.5c-0.4,0.167-1.233,0.333-2.5,0.5
		c-1.067,0.133-1.867,0.433-2.4,0.9c2.7,0.467,5.267,0.517,7.7,0.15c2.866-0.433,5.199-1.417,7-2.95
		c1.066-0.833,1.85-1.483,2.35-1.95c0.866-0.8,1.45-1.583,1.75-2.35c0.6-1.5,1.15-2.667,1.65-3.5c0.633-1.1,1.466-2.133,2.5-3.1
		c0.6,0.8,0.899,1.783,0.899,2.95c0.033,0.567-0.066,1.633-0.3,3.2c-0.066,1.167-0.1,1.867-0.1,2.1c1.199-0.2,1.866,0.25,2,1.35
		c0.1,0.934-0.117,1.883-0.65,2.85c-0.634,1.133-1.934,2.3-3.9,3.5c1.4,0.633,2.301,1.2,2.7,1.7c0.533,0.667,0.8,1.716,0.8,3.15
		c0,0.9-0.199,2-0.6,3.3c-0.5,1.601-0.783,2.634-0.85,3.101l0.899,0.149c-1.3,0.767-2.75,1.533-4.35,2.3
		C82.866,175.017,80.934,175.634,78.4,176.2z M97.45,188.35c-0.267,0.167-0.667,0.367-1.2,0.601c-0.434,0.267-0.783,0.616-1.05,1.05
		c-0.5,0.8-0.75,1.934-0.75,3.4c0,0.8,0.05,1.966,0.149,3.5c-0.033,1.199-0.116,2.183-0.25,2.949
		c-0.166,0.834-0.466,1.767-0.899,2.801c-0.8,1.833-2.084,3.433-3.851,4.8c-0.6,0.467-2.366,1.583-5.3,3.35
		c-3.467,2.134-6.517,3.351-9.149,3.65c0.666-0.434,1.366-1.101,2.1-2c1-1.334,1.65-2.15,1.95-2.45
		c1.733-1.866,2.783-3.066,3.149-3.6c0.934-1.334,1.517-2.817,1.75-4.45c0.334-2.601,0.301-5.25-0.1-7.95c-1.9,1-4.7,1.5-8.4,1.5
		c-0.699,0-2.033,0.066-4,0.2c-1.766,0.066-3.033-0.134-3.8-0.601c0.733-0.199,2.55-0.483,5.45-0.85c2.3-0.3,4.083-0.75,5.35-1.35
		c1.467-0.7,2.75-1.617,3.851-2.75c1.399-1.467,1.934-2.851,1.6-4.15c-0.434-0.066-1.083,0.017-1.95,0.25
		c-0.833,0.233-1.466,0.3-1.899,0.2c1.1-1.3,1.7-2.033,1.8-2.2c0.434-0.9,0.167-1.75-0.8-2.55c-1.601,0.866-4.101,1.116-7.5,0.75
		L74.6,182c-1.066-0.066-2.416-0.033-4.05,0.1c-0.933,0.101-2.3,0.217-4.1,0.351l-2.85-0.95c-0.767,0.667-2,0.95-3.7,0.85
		c-1.033-0.1-2.05-0.333-3.05-0.699c-0.833-0.334-1.8-0.834-2.9-1.5c-0.6-0.367-1.517-0.934-2.75-1.7
		c0.433,0.133,1.25,0.517,2.45,1.149c1.033,0.5,1.85,0.817,2.45,0.95c0.533,0.101,1.283,0.117,2.25,0.05
		c1.4-0.066,2.15-0.1,2.25-0.1c1.5,0,2.5-0.017,3-0.05c1.1-0.066,2.1-0.217,3-0.45c2-0.833,3.533-1.333,4.6-1.5l2.399-0.45
		c0.233-0.033,0.551-0.05,0.95-0.05c4.566,0.1,7.983,0.116,10.25,0.05c3.9-0.2,6.867-0.533,8.9-1
		c-0.334,0.5-0.533,0.783-0.601,0.851c-0.366,0.433-1,1.05-1.899,1.85c-0.834,0.8-1.384,1.517-1.65,2.15
		c-0.3,0.666-0.267,1.433,0.101,2.3c0.399,0.934,0.55,1.7,0.449,2.3c-0.1,0.7-0.666,1.35-1.699,1.95c-0.867,0.5-1.75,0.85-2.65,1.05
		c3.267-0.066,5.134-0.134,5.6-0.2c2-0.2,3.801-0.7,5.4-1.5l0.75-0.35L97.45,188.35z M70.3,254.85L69.35,255H63.6
		c-0.267,0.233-0.6,0.4-1,0.5c-4.167-1.134-6.733-4.934-7.7-11.4c-0.7-0.133-1.783-0.199-3.25-0.199c0.2-0.101,0.35-0.233,0.45-0.4
		c-1.2-0.033-2.367-0.15-3.5-0.35c-0.1,0-0.65-0.117-1.65-0.351c-1.133-0.233-2.067-0.383-2.8-0.45L43.1,241
		c-0.333-0.1-0.65-0.066-0.95,0.1c-0.167,0.434-0.2,0.867-0.1,1.301c-0.4,0.1-0.6,0.3-0.6,0.6c-0.633,0.1-1.25,0.3-1.85,0.6
		c-0.867,0.434-2.05,1.217-3.55,2.351c-1.167,0.633-2.033,0.149-2.6-1.45c-0.5-1.4-0.85-2.3-1.05-2.7
		c-0.633-1.066-1.383-1.533-2.25-1.399c0.3-0.801,1.7-0.867,4.2-0.2c2.9,0.8,4.65,1.083,5.25,0.85c1.467-0.6,2.033-1.517,1.7-2.75
		c-0.767-1.5-1.316-2.583-1.65-3.25c2.3,1.101,4.75,2.05,7.35,2.851c1.4,0.399,3.55,0.6,6.45,0.6h0.1h0.15
		c1.566,0.167,3.517,0.5,5.85,1c5.7,1.2,10.017,1.5,12.95,0.9c2.566-0.5,4.767-1,6.6-1.5c2.167-0.567,3.784-1.034,4.851-1.4
		c0.1-0.033,0.783-0.35,2.05-0.95c0.934-0.434,1.634-0.633,2.1-0.6c1.7,0.2,2.067,1.566,1.101,4.1
		c-0.066,0.167-0.351,0.483-0.851,0.95c-0.267,0.233-0.216,0.616,0.15,1.15c0.233,0.333,1.083,0.733,2.55,1.199L92,243.6
		c0.2,1.767-0.066,2.983-0.8,3.65c-0.601,0.566-1.851,0.983-3.75,1.25l-3.05,0.35c-1.601,0.101-4,0.15-7.2,0.15
		c-0.8,0-2.25,0.15-4.351,0.45c-2.233,0.3-3.899,0.467-5,0.5c-0.533-0.101-1.367-0.334-2.5-0.7c-1.033-0.3-1.867-0.35-2.5-0.15
		c1.167,0.667,2.833,0.95,5,0.851l0.35,0.1c2.1,0.267,4.066,0.8,5.899,1.601c2.667,1.166,6.101,1.683,10.301,1.55
		c0.866,0,2.066-0.066,3.6-0.2c2.3-0.2,4.167-0.983,5.6-2.35c0.301-0.301,0.784-1,1.45-2.101c0.566-0.899,1.117-1.533,1.65-1.899
		c1.333-0.934,2.55-1.034,3.649-0.301c0.934,0.634,1.534,1.65,1.801,3.051c-0.101,0.6-0.134,1.133-0.101,1.6l0.05,0.4
		c-0.3,1.3-1.1,2.05-2.399,2.25c1.133,0.6,2.6,0.783,4.399,0.55c0.7,0.533,1.217,0.916,1.551,1.149c0.6,0.467,1.05,0.884,1.35,1.25
		c0.233,0.267,0.434,0.75,0.6,1.45c-0.966,1.4-1.933,2.2-2.899,2.4c-0.767,0.166-1.267,0.1-1.5-0.2
		c-0.101-0.2-0.351-0.583-0.75-1.15c-0.934-0.767-1.851-1.133-2.75-1.1c-0.934,0.033-1.634,0.517-2.101,1.45
		c-0.199,0.434-0.633,1.55-1.3,3.35c-0.467,1.334-1,2.4-1.6,3.2c-1.334,1.833-2.783,3.1-4.351,3.8c1.434-0.533,2.717-1.2,3.851-2
		c0.533-0.366,1.25-1.133,2.149-2.3c0.834-1.066,1.551-1.783,2.15-2.15c2.9-1.6,4.65-0.816,5.25,2.351
		c0.4,2.033,0.333,4.55-0.2,7.55c-0.3,1.7-0.583,2.917-0.85,3.65c-0.467,1.199-1.217,2.199-2.25,3c-0.634,0.5-1.15,0.883-1.55,1.149
		c-0.101,0.134-0.217,0.783-0.351,1.95c-0.166,1.566-0.916,3.017-2.25,4.35c-1.399,1.4-2.899,2.101-4.5,2.101
		c0.233,0.666-0.633,1.267-2.6,1.8c-1.9,0.5-3.283,0.583-4.15,0.25c-0.767-0.267-1.267-0.65-1.5-1.15c-0.2-0.3-0.366-0.983-0.5-2.05
		c0.8-0.633,1.65-1.066,2.55-1.3l-3-1c-0.633,1.1-1.949,2.217-3.949,3.35c-1.733,0.967-3.384,1.65-4.95,2.051l-0.8,0.149
		l-2.851-0.05c-7.1-0.134-12.566-0.783-16.4-1.95c2.233,2.066,5.317,3.316,9.25,3.75c1.133,0.134,4.533,0.2,10.2,0.2
		c3.233,0,5.184,1.033,5.851,3.1c0.267,0.801,0.116,1.934-0.45,3.4c-0.434,1.033-0.983,1.717-1.65,2.05
		c-0.399,0.2-1.316,0.384-2.75,0.55c0.034,0.801,0.567,1.351,1.601,1.65c1.399,0.366,2.2,0.65,2.399,0.85
		c0.867,0.801,1.184,1.483,0.95,2.051c-0.066,0.199-0.55,0.767-1.45,1.699c-0.366,0.4-0.767,0.733-1.199,1
		c-0.2,0.233-0.2,0.75,0,1.551c0.066,0.233,0.35,0.649,0.85,1.25c0.366,0.466,0.5,0.933,0.4,1.399c0,0.066-0.017,0.134-0.051,0.2
		l-0.05,0.05l-2.649,1.95c-0.233,0.1-0.467,0.217-0.7,0.35h-1.3c-0.134,0-0.284,0-0.45,0l-2.75-0.1c-5.733,0-7.633-1.283-5.7-3.85
		l-0.15-0.15c-0.4-0.434-0.967-0.717-1.7-0.85L62.1,310.3c0.933,1.8,3.433,2.533,7.5,2.2c1.1-0.1,1.766-0.167,2-0.2
		c0.733-0.2,1.233-0.616,1.5-1.25c0.267-0.7,0.067-1.583-0.6-2.649c-0.4-0.601-0.866-1.184-1.4-1.75
		c-0.333-0.467-0.5-1.184-0.5-2.15c-0.033-1.167,0.133-1.95,0.5-2.35c0.7-0.467,1.367-0.983,2-1.551
		c0.801-0.666,1.351-1.416,1.65-2.25c0.2-0.633,0.316-1.583,0.35-2.85l-2-1c-0.733,0-2.3-0.033-4.7-0.1
		c-2.167,0.033-3.617,0.433-4.35,1.199c-0.466,0.5-0.6,1-0.4,1.5c0.167,0.367,0.567,0.801,1.2,1.301
		c0.733,0.533,1.267,0.933,1.6,1.199c0.566,0.5,0.917,0.934,1.05,1.301c-0.567,0.3-0.933,0.899-1.1,1.8
		c-0.167,0.934-0.617,1.583-1.35,1.95l-0.8,0.35c0.367-1.233,0.183-2.384-0.55-3.45c0.233-1.166,0.517-2.083,0.85-2.75
		c-1.867,2.667-3.066,4.783-3.6,6.351L59.8,307c-1.4,0.033-2.617-0.283-3.65-0.95l-0.05,0.8c-0.033-0.399-0.033-0.85,0-1.35
		c0.066-0.767,0.117-1.384,0.15-1.85c0-0.834-0.117-1.417-0.35-1.75c-0.2-0.233-0.7-0.434-1.5-0.601c-0.933-0.166-1.5-0.3-1.7-0.399
		c-0.967-0.5-1.983-1.434-3.05-2.801c-0.6-0.8-1.467-1.949-2.6-3.449c0,0.033-0.017,0.5-0.05,1.399
		c-0.033,0.634,0.017,1.084,0.15,1.351c0.133,0.233,0.467,0.5,1,0.8c0.5,0.267,0.817,0.566,0.95,0.899
		c0.233,0.534,0.316,1.684,0.25,3.45c-0.033,1.434-0.117,2.601-0.25,3.5c-0.2,1.2-0.85,2.7-1.95,4.5
		c-0.933,0.167-1.566,0.483-1.9,0.95h-5.2c-3.3,0-6.25-0.366-8.85-1.1c-0.3-0.101-1.034-0.267-2.2-0.5
		c-1.067-0.301-1.7-0.617-1.9-0.95l-0.05-0.05c-0.2-0.467-0.2-1.217,0-2.25c0-0.2,0.034-0.417,0.1-0.65l0.05-0.1
		c0.633-1.034,1.3-1.784,2-2.25c0.867-0.634,2.033-1,3.5-1.101c0.267-0.033,1.533-0.05,3.8-0.05c1.267,0.1,2.267,0.15,3,0.15
		c1.367,0,2.217-0.184,2.55-0.551c-0.633-0.133-1.566-0.267-2.8-0.399c-1.033-0.2-1.933-0.55-2.7-1.05c-0.533-0.367-1-0.934-1.4-1.7
		c-0.5-0.9-0.9-1.517-1.2-1.851c-0.3-0.3-0.883-0.566-1.75-0.8c-0.833-0.233-1.383-0.517-1.65-0.85c-0.767-1-0.6-2.517,0.5-4.55
		c0.434-0.767,0.75-1.301,0.95-1.601c0.267-0.533,0.467-1.083,0.6-1.649c0.066-0.267,0.083-0.65,0.05-1.15
		c-0.033-0.533-0.033-0.917,0-1.15c0.1-0.633,0.35-1.683,0.75-3.149c0.367-1.367,0.6-2.434,0.7-3.2c0.2-1.566,0.267-3.6,0.2-6.1
		c-0.133-2.767-0.2-4.817-0.2-6.15c-0.033,1.033-0.15,2.116-0.35,3.25c-0.133,0.667-0.35,1.684-0.65,3.05
		c-0.167,0.834-0.283,2.351-0.35,4.55c-0.067,1.9-0.283,3.367-0.65,4.4s-1.067,2.184-2.1,3.45c-1.2,1.399-1.967,2.45-2.3,3.149
		c-0.3,0.601-0.5,1.4-0.6,2.4c-0.2,0.767-0.85,1.283-1.95,1.55c-0.4,0.134-1.05,0.134-1.95,0h-0.05
		c0.167-0.733,0.533-1.783,1.1-3.149l0.175-0.551c0.028-0.049,0.053-0.099,0.075-0.149c0.633-1.601,1-2.684,1.1-3.25
		c0.2-0.967,0.35-2.033,0.45-3.2l0.1-1.8c0.033-1,0.033-2.033,0-3.101l0.05,0.051c0.733,1.3,1.667,1.466,2.8,0.5
		c0.2-0.167,0.367-0.634,0.5-1.4c0.133-0.8,0.283-1.316,0.45-1.55c0.2-0.233,0.55-0.517,1.05-0.851c0.467-0.333,0.8-0.649,1-0.949
		c0.467-0.733,0.8-1.817,1-3.25c0.167-1.267,0.2-2.4,0.1-3.4c-0.2-1.8-0.333-3.95-0.4-6.45c0.233,1.066,0.367,1.733,0.4,2l0.15,1.8
		c0.167,0.601,0.55,0.851,1.15,0.75l0.2,0.7c0.5,1.767,0.983,4.634,1.45,8.601c0.133,0.933,0.317,2.6,0.55,5
		c0.467,1.966,1.5,3.017,3.1,3.149c0.5,0.033,1.2-0.1,2.1-0.399c1.067-0.367,1.8-0.567,2.2-0.601c-0.367,0.101-0.633,0.267-0.8,0.5
		c-2.067,0.134-3.417,0.816-4.05,2.05c-0.133,0.233-0.2,0.7-0.2,1.4c-0.034,0.733,0,1.233,0.1,1.5c0.267,0.733,0.517,1.15,0.75,1.25
		c0.434,0.066,0.9,0.15,1.4,0.25c0.966,0.2,2.05,0.25,3.25,0.15c1.433-0.167,2.367-0.534,2.8-1.101c0.333-0.467,0.5-1.166,0.5-2.1
		s-0.167-1.733-0.5-2.4c0.067-0.166,0.1-0.434,0.1-0.8c0.4,0.167,0.816,0.417,1.25,0.75c1.767,1.6,3.083,2.767,3.95,3.5
		c1.5,1.333,2.967,2.35,4.4,3.05c3.466,1.733,8.667,2.233,15.6,1.5c2.267-0.267,3.967-0.6,5.101-1c2-0.7,3.283-1.8,3.85-3.3
		c0.267-0.667,0.366-1.6,0.3-2.8c-0.033-1.3-0.267-2.233-0.7-2.8V280l-0.699,0.1c-0.567-0.233-1.434-0.233-2.601,0
		c-0.633,0.101-1.45,0.284-2.45,0.551L72.2,281.05L71.6,281c-0.199,0-1.366,0.033-3.5,0.1c-1.434,0.067-2.6,0.051-3.5-0.05
		c-0.4-0.066-1.033-0.267-1.9-0.6l4.5,0.05c1.667,0,2.6,0,2.8,0c1-0.066,1.9-0.267,2.7-0.6c0.934-0.4,2.55-1.334,4.85-2.801
		c2.566-1.633,4.917-3.833,7.05-6.6l-2.5,0.5c-1.199,1.566-2.35,2.75-3.449,3.55c1.1-1.5,1.75-2.35,1.949-2.55l-0.399,0.2
		c0.767-0.667,1.434-1.3,2-1.9l0.1-0.149c1.3-0.867,2.566-1.917,3.8-3.15l-1.55,0.4c0.667-0.867,1.184-1.667,1.55-2.4
		c0.301-0.6,0.467-1.3,0.5-2.1c0-1,0-1.767,0-2.301c0-1.966-0.199-3.483-0.6-4.55c-0.134-0.333-0.6-1.166-1.4-2.5
		c-1.366,0.3-2.533,0.45-3.5,0.45c-0.133,0-1.566-0.033-4.3-0.1c-1.733-0.067-3.133,0-4.2,0.199c-0.6,0.134-1.267,0.367-2,0.7
		L70.3,254.85z M60.6,220.5l-0.5-0.5c-1.767,0-3.467-0.116-5.1-0.35c-0.333-0.067-1.4-0.301-3.2-0.7
		c-1.633-0.4-2.917-0.65-3.85-0.75c-1.8-0.8-3.35-1.851-4.65-3.15c3.3,2.066,7.35,3.283,12.15,3.65
		c4.433,0.333,8.683-0.101,12.75-1.3c0.833-0.233,1.833-0.601,3-1.101c1.267-0.6,2.217-1.033,2.85-1.3l1.05-0.5h5.551
		c2.566,0.1,4.517,0.15,5.85,0.15c2.434,0,4.316-0.267,5.65-0.801c0.666-0.267,1.583-0.783,2.75-1.55
		c1.233-0.899,2.116-1.517,2.649-1.85c1.033-0.601,1.967-1.384,2.8-2.351c0.867-1,1.617-1.517,2.25-1.55
		c0.733-0.033,1.233,0.617,1.5,1.95c0.2,1.134,0.034,2.634-0.5,4.5c-0.166,0.5-0.466,1.167-0.899,2c-0.233,0.7-0.101,1.366,0.399,2
		l0.351,0.35l-0.25,0.2c-0.367,0.267-1.134,0.617-2.3,1.05c-1,0.367-1.767,0.817-2.301,1.351c-0.433,0.434-1.033,1.184-1.8,2.25
		c-0.7,1-1.3,1.733-1.8,2.2c-1.833,1.6-3.3,2.966-4.4,4.1c-1.733,1.8-3.833,3.283-6.3,4.45l-0.75,0.2L82.8,233.3
		c4.867-2.6,6.5-6.033,4.9-10.3c-0.434-1.1-1.25-1.884-2.45-2.35c-0.7-0.233-1.85-0.617-3.45-1.15c-1.1-0.533-1.983-0.8-2.649-0.8
		c-0.5-0.033-1.483,0.116-2.95,0.45c-4.467,0.899-9.05,1.35-13.75,1.35H60.6z M72.05,130.45c-0.1-2.633-0.116-4.267-0.05-4.9
		c0.2-1.833,0.85-2.5,1.95-2c0.2,0.1,0.383,0.284,0.55,0.55l-1.4,1.4C73.2,127.167,72.85,128.817,72.05,130.45z M33.6,295.25
		c0.5,0.767,1.05,1.316,1.65,1.65c2.2,1.3,4.983,1,8.35-0.9l-2.5-1c-1.167,0-2.517-0.25-4.05-0.75c-2.2-0.7-3.5-1.1-3.9-1.2
		C32.917,293.65,33.067,294.384,33.6,295.25z M37.6,292.5c-0.167,0.767,0.033,1.366,0.6,1.8c0.566,0.467,1.2,0.517,1.9,0.15
		c0.566-0.3,0.9-0.9,1-1.8c0.033-0.334,0.033-1.051,0-2.15L37.6,292.5z M57.1,292.5l-4.5-0.5c-1.133-0.267-1.85,0.217-2.15,1.45
		c-0.3,1.2-0.1,2.1,0.6,2.7c1.233,1.066,2.534,1.066,3.9,0C56.183,295.184,56.9,293.967,57.1,292.5z M40.75,307.4
		c0.7-0.134,1.467-0.434,2.3-0.9c0.867-0.5,2.05-1.5,3.55-3l-3.5-0.5c-0.733,0.667-2.25,0.934-4.55,0.8
		c-2.966-0.2-4.617-0.267-4.95-0.2c0.233,1.067-0.25,1.684-1.45,1.851c-0.667,0.1-1.667,0.149-3,0.149
		c-0.333,1.067,0.85,1.7,3.55,1.9c0.1,0,1.9,0,5.4,0C39.433,307.5,40.317,307.467,40.75,307.4z"/>
	<path style="fill-rule:evenodd;clip-rule:evenodd;fill:#5E5140;" d="M71.7,5.75c0.133,4.967-0.45,8.717-1.75,11.25
		c-0.667,1.267-1.133,2.2-1.4,2.8c-0.466,1-0.75,2.017-0.85,3.05c-0.1,0.8-0.15,1.617-0.15,2.45l0.05,1.2
		c0.033,1.233,0.45,2.833,1.25,4.8c0.8,2,1.217,3.567,1.25,4.7c0.066,2.9-0.283,4.9-1.05,6l-0.45,0.5c0,1.1-0.033,1.9-0.1,2.4
		c-0.567,0.267-1.267,0.434-2.1,0.5c-1.433,0.133-2.167,0.2-2.2,0.2c0.5,0.6,1.566,0.967,3.2,1.1c-1.033,0.6-2.117,0.9-3.25,0.9
		c0.133,1.7,0.2,3.017,0.2,3.95c0.066,1.7-0.533,2.567-1.8,2.6c-0.066-5.467,0.067-9.767,0.4-12.9l-0.1,1.45
		c0.667,0.233,1.417,0.333,2.25,0.3c1.867-0.067,3.1-0.55,3.7-1.45c0.5-0.733,0.767-2.083,0.8-4.05c0-2.633-0.5-4.233-1.5-4.8v-0.2
		L68,32.65c-0.4-0.233-0.85-0.3-1.35-0.2c-0.133-0.9-0.183-2.05-0.15-3.45c0.033-0.8,0.067-1.967,0.1-3.5c0-0.567,0.05-1.6,0.15-3.1
		c0.067-1.367,0.017-2.417-0.15-3.15c0-0.067,0.017-0.117,0.05-0.15L67,17.7c0.233-0.767,0.517-1.65,0.85-2.65
		c0.667-1.933,1.083-3.45,1.25-4.55l0.05,0.35c0.167-0.533,0.45-1.367,0.85-2.5c0.333-1,0.533-1.833,0.6-2.5
		c0.066-0.5,0.066-1.317,0-2.45c-0.033-1.033,0.117-1.816,0.45-2.35L71.2,0l0.149,0.2L71.3,0.35C71.066,1.483,71.2,3.283,71.7,5.75z
		 M108.05,240.1c-0.033-0.6-0.033-1.199,0-1.8c0-0.233,0.017-0.45,0.05-0.649C108.066,238.483,108.05,239.3,108.05,240.1z
		 M108.6,226c0,0.9-0.017,1.95-0.05,3.15c0-0.567,0-1.067,0-1.5L108.6,226z M102.75,185c0.533,0.9,0.917,2.1,1.15,3.6
		c0,0.021,0,0.046,0,0.075C103.656,187.148,103.273,185.923,102.75,185z M95.95,158.7c-0.134-0.633-0.217-1.184-0.25-1.65
		c-0.033-0.3-0.05-0.65-0.05-1.05C95.717,157.067,95.816,157.967,95.95,158.7z M87.2,100.05c0.047,0.201,0.097,0.401,0.149,0.6
		c0.2,0.8,0.367,1.517,0.5,2.15l-0.3-1.2C87.424,101.075,87.308,100.558,87.2,100.05z M69.25,140c-0.033,0.633-0.083,1.633-0.15,3
		c-0.5,4.133-1.833,7.967-4,11.5c-0.4,0.633-0.917,1.467-1.55,2.5c-0.6,0.767-1.383,1.317-2.35,1.65
		c-2.434,0.733-4.184,1.15-5.25,1.25c-2.267,0.267-4.267,0.3-6,0.1c-2.934-0.333-4.4-1.267-4.4-2.8c-0.3,3.533,2.883,5.3,9.55,5.3h8
		c1.267,0,2.25,0.317,2.95,0.95c0.8,1,1.517,1.816,2.15,2.45c1.033,0.966,1.683,1.517,1.95,1.649c0.966,0.533,1.617,0.033,1.95-1.5
		c0.2-1.3,0.351-2.267,0.45-2.9c0.233-1.7,0.867-2.967,1.9-3.8c0.733-0.567,1.866-0.967,3.399-1.2
		c1.233-0.167,2.517-0.217,3.851-0.15c0.133,1.4,0.366,3.583,0.7,6.55c0.166,2.533,0.033,4.634-0.4,6.3
		c-0.634,2.4-1.833,4.184-3.6,5.351l-1.301,0.3c-0.466,0.1-1.933,0.233-4.399,0.4c-1.8,0.133-3.184,0.466-4.15,1
		c0.8,0.166,2.483,0.216,5.05,0.149L71.2,178.5c-1.067,0.167-2.6,0.667-4.6,1.5c-0.9,0.233-1.9,0.384-3,0.45
		c-0.5,0.033-1.5,0.05-3,0.05c-0.1,0-0.85,0.033-2.25,0.1c-0.967,0.067-1.717,0.051-2.25-0.05c-0.6-0.133-1.417-0.45-2.45-0.95
		c-1.2-0.633-2.017-1.017-2.45-1.149c1.233,0.767,2.15,1.333,2.75,1.7c1.1,0.666,2.066,1.166,2.9,1.5c1,0.366,2.017,0.6,3.05,0.699
		c-1.3-0.1-3.1-0.483-5.4-1.149c-2.5-0.7-3.983-1.084-4.45-1.15c-0.066,0.167-0.066,0.334,0,0.5c-1.4-0.533-4.367-1.866-8.9-4
		c-0.3,2.2,1.4,4.15,5.1,5.851c3.033,1.366,5.833,2.066,8.4,2.1h9c1,0,2.5-0.267,4.5-0.8c1.934-0.5,3.417-0.733,4.45-0.7l1.101-0.55
		c3.399,0.366,5.899,0.116,7.5-0.75c0.967,0.8,1.233,1.649,0.8,2.55c-0.1,0.167-0.7,0.9-1.8,2.2c0.434,0.1,1.066,0.033,1.899-0.2
		c0.867-0.233,1.517-0.316,1.95-0.25c0.334,1.3-0.2,2.684-1.6,4.15c-1.101,1.133-2.384,2.05-3.851,2.75
		c-1.267,0.6-3.05,1.05-5.35,1.35c-2.9,0.366-4.717,0.65-5.45,0.85c0.767,0.467,2.034,0.667,3.8,0.601c1.967-0.134,3.301-0.2,4-0.2
		c3.7,0,6.5-0.5,8.4-1.5c0.4,2.7,0.434,5.35,0.1,7.95c-0.233,1.633-0.816,3.116-1.75,4.45c-0.366,0.533-1.416,1.733-3.149,3.6
		c-0.3,0.3-0.95,1.116-1.95,2.45c-0.733,0.899-1.434,1.566-2.1,2l-0.5,0.05H75.1l-1.05,0.5c-0.633,0.267-1.583,0.7-2.85,1.3
		c-1.167,0.5-2.167,0.867-3,1.101c-4.067,1.199-8.317,1.633-12.75,1.3c-4.8-0.367-8.85-1.584-12.15-3.65
		c1.3,1.3,2.85,2.351,4.65,3.15c-0.967-0.101-1.767-0.084-2.4,0.05c-1.4-0.833-2.316-1.366-2.75-1.6
		c-1.033-0.534-1.816-0.784-2.35-0.75c0.767,2.699,3.133,4.716,7.1,6.05c2.967,1.033,6.184,1.55,9.65,1.55
		c1.8,0,2.983-0.017,3.55-0.05c1.167-0.134,2.283-0.417,3.35-0.851l3.9-1.35c3.5-0.066,5.7-0.483,6.6-1.25l-4,0.5l-2.6,0.75
		c-1.5,0.066-2.317,0.116-2.45,0.15c-0.9,0.1-2.2,0.149-3.9,0.149l-1.05-1.05h1.85c4.7,0,9.283-0.45,13.75-1.35
		c1.467-0.334,2.45-0.483,2.95-0.45c0.666,0,1.55,0.267,2.649,0.8c1.601,0.533,2.75,0.917,3.45,1.15c1.2,0.466,2.017,1.25,2.45,2.35
		c1.6,4.267-0.033,7.7-4.9,10.3l0.75-0.149L80.1,234c-1.267,0.634-3,1.066-5.199,1.3c-3.067,0.367-4.833,0.601-5.3,0.7
		c-1.5,0.333-3.65,0.55-6.45,0.65c-3,0.066-5.15,0.216-6.45,0.449c0.4,0.267,1.1,0.517,2.1,0.75c-3.033,0.101-6.117,0.15-9.25,0.15
		c1.833,0.267,3.167,0.434,4,0.5h-0.1c-2.9,0-5.05-0.2-6.45-0.6c-2.6-0.801-5.05-1.75-7.35-2.851c0.333,0.667,0.883,1.75,1.65,3.25
		c0.333,1.233-0.233,2.15-1.7,2.75c-0.6,0.233-2.35-0.05-5.25-0.85c-2.5-0.667-3.9-0.601-4.2,0.2
		c0.867-0.134,1.617,0.333,2.25,1.399c0.2,0.4,0.55,1.3,1.05,2.7c0.566,1.6,1.433,2.083,2.6,1.45c1.5-1.134,2.684-1.917,3.55-2.351
		c0.6-0.3,1.217-0.5,1.85-0.6c0,0.267,0.2,0.616,0.6,1.05c0.534,0.601,2.05,0.884,4.55,0.851c2.5-0.067,4.183-0.4,5.05-1
		c1.467,0,2.55,0.066,3.25,0.199c0.967,6.467,3.533,10.267,7.7,11.4c-0.5,0.134-1.2,0.167-2.1,0.1c-0.467,0-1.133-0.033-2-0.1
		l-1.6-0.05c-0.5-0.233-1.05-0.617-1.65-1.15c-0.333-0.267-0.9-0.75-1.7-1.45c-0.466-0.366-1.35-0.583-2.65-0.649
		c-1.267-0.033-2.05-0.217-2.35-0.55c2.1-0.367,3.417-0.617,3.95-0.75c1.7-0.567,2.567-1.367,2.6-2.4l-2.5-1.5
		c-1.033-0.634-2.2-0.95-3.5-0.95L47.6,245c-2.067,0-3.25,0.6-3.55,1.8c-1.2,0.134-2.617,0.2-4.25,0.2c-2.033,0-3.15,0-3.35,0
		c-1.167-0.1-2.233-0.35-3.2-0.75c-0.433-0.2-1.183-0.783-2.25-1.75c-0.933-0.8-1.717-1.25-2.35-1.35
		c-0.066,0.566,0.1,1.916,0.5,4.05c0.3,1.8,0.25,3.083-0.15,3.85c-0.167,0.367-0.783,0.884-1.85,1.55
		c0.067-0.433,0.133-0.883,0.2-1.35c0.566-3.6,0.933-6.35,1.1-8.25c0.167-1.634,0.35-2.85,0.55-3.65
		c0.3-1.199,0.817-2.316,1.55-3.35c0.3-0.333,0.567-0.634,0.8-0.9c0.967,0.267,2.283,0.483,3.95,0.65
		c1.6,0.134,2.534,0.217,2.8,0.25l1-1c-0.333-0.066-1.2-0.434-2.6-1.1c-1.467-0.733-2.633-1.217-3.5-1.45
		c0.033-0.134,0.067-0.283,0.1-0.45c0.333-1.7,0.65-5.116,0.95-10.25c0.034-0.667,0.133-1.75,0.3-3.25l-0.75,9.9
		c1.066,1.3,2.566,2.633,4.5,4c0.9,0.666,2.1,1.166,3.6,1.5c0.533,0.1,1.85,0.3,3.95,0.6c5,0.667,8.65,1,10.95,1
		c2.3,0.066,4.017,0.083,5.15,0.05c2.033,0,3.75-0.149,5.15-0.45c1-0.199,2.067-0.517,3.2-0.949c0.467-0.2,1.05-0.317,1.75-0.351
		c0.867-0.1,1.45-0.184,1.75-0.25c1.467-0.399,3.184-1.616,5.15-3.649c2.134-2.2,3.083-4,2.85-5.4l-5.5,1
		c-1.666,1.767-4.083,3.083-7.25,3.95c-1.833,0.5-4.583,1.066-8.25,1.7c-1.967,0.433-4.233,0.633-6.8,0.6
		c-2.433-0.033-4.667-0.267-6.7-0.7c-3.6-0.8-6.4-2.517-8.4-5.149c-1.434-1.867-2.833-4.867-4.2-9
		c0.133-1.334,0.283-2.917,0.45-4.75c0.267-2.601,0.45-4.884,0.55-6.851c0.533,1.2,1.233,2.066,2.1,2.601
		c0.7,0.466,1.767,0.866,3.2,1.199c1.567,0.367,2.633,0.7,3.2,1c-0.867,1.067-1.233,1.834-1.1,2.301
		c0.133,0.5,0.883,1.066,2.25,1.699c2.633,1.2,5.867,1.834,9.7,1.9l0.7,0.05c0.7,0.066,1.6,0.084,2.7,0.05
		c1.567-0.066,2.467-0.1,2.7-0.1c1.066,0.033,1.95-0.033,2.65-0.2c0.633-0.133,1.316-0.383,2.05-0.75
		c2.833-0.866,5.083-2.517,6.75-4.95c-0.834-0.1-1.884-0.149-3.15-0.149c-0.733,0-1.8,0.017-3.2,0.05
		c-1.133,0.033-2.367-0.15-3.7-0.55c-0.767-0.233-1.917-0.634-3.45-1.2c-0.1-0.2-0.683-0.967-1.75-2.3
		c0.767-1.066,1.367-1.8,1.8-2.2c0.767-0.7,1.65-1.134,2.65-1.3c0.767-0.134,2.1-0.084,4,0.149c1.8,0.167,3.133,0.15,4-0.05
		c0.933-0.233,1.817-0.8,2.65-1.7c0.934-1.033,1.217-1.983,0.85-2.85c-0.166-0.434-1.649-1.05-4.45-1.85
		c-2.533-0.733-3.7-1.75-3.5-3.051c0.333-0.033,1.35-0.1,3.05-0.199c1.167-0.034,2.167-0.2,3-0.5c0.8-0.301,1.883-0.867,3.25-1.7
		c1.366-0.834,2.416-1.4,3.149-1.7l1.5-1.5c-0.533-0.533-1.283-0.583-2.25-0.15c-0.533,0.2-1.3,0.584-2.3,1.15
		c-0.467,0.233-1.05,0.467-1.75,0.7l1.3-0.7l-10,0.5c-0.733,0.7-2.3,0.983-4.7,0.85c-3.233-0.199-4.983-0.283-5.25-0.25l-0.05,0.15
		c-2.033-0.333-3.533-0.384-4.5-0.15c-0.033,0.4,0.267,0.917,0.9,1.551c0.567,0.566,0.733,1.166,0.5,1.8
		c-2.133,0.267-4.167-0.084-6.1-1.05c-1.566-0.733-3.233-1.983-5-3.75c-0.6,0.899-0.5,2.033,0.3,3.399
		c0.8,1.334,1.733,2.017,2.8,2.05c0.133,0.634-0.033,1.067-0.5,1.301c-0.767,0.366-1.2,0.6-1.3,0.699
		c-0.367,0.434-0.567,0.884-0.6,1.351c-0.033,0.166-0.033,0.684,0,1.55c0.033,1.566-0.317,2.333-1.05,2.3
		c-1.7-0.033-2.7,0.017-3,0.15l-0.1,0.1L36.6,200c0.733-4.066,1.35-8.75,1.85-14.05c0.267-2.601,0.65-7.3,1.15-14.101
		c0.066-0.833,0.066-2.333,0-4.5c-0.067-1.933-0.033-3.433,0.1-4.5c0.066-1.4,0.133-2.517,0.2-3.35c0.1-1.5,0.35-2.55,0.75-3.15
		c0.2-0.3,0.5-0.567,0.9-0.8c1.467,0.567,3.833,0.934,7.1,1.1c2.6,0.1,4.567,0.067,5.9-0.1c1.434-0.2,2.967-0.6,4.6-1.2
		c1.767-0.7,3.083-1.467,3.95-2.3c0.566-0.533,1.017-1.45,1.35-2.75c0.566-0.767,0.95-1.533,1.15-2.3l-1.05,0.45l0.55-0.25
		c0.433-1.2,0.933-1.934,1.5-2.2l-1.5-0.5c0.2,1.733-0.867,2.933-3.2,3.6c-1.267,0.367-3.033,0.633-5.3,0.8
		c-1.2,0.2-2.867,0.333-5,0.4c-2.3,0.067-3.95,0.167-4.95,0.3c0.033,0.167,0.017,0.467-0.05,0.9c-0.1,0.433-0.133,0.733-0.1,0.9
		l-0.45,0.2c-0.167,1.033-0.767,1.7-1.8,2c-1.1,0.3-1.883,0.55-2.35,0.75c0.533-0.3,1.167-0.533,1.9-0.7
		c1.333-0.267,2.083-0.983,2.25-2.15c0.067-0.367,0.117-1.817,0.15-4.35c0-1.867,0.283-3.25,0.85-4.15c0.2-0.333,0.633-0.7,1.3-1.1
		l0.8,0.6c1.2,0.767,2.25,1.283,3.15,1.55c0.934,0.3,2.067,0.45,3.4,0.45c1.367,0.067,2.4,0.1,3.1,0.1c1.233,0,2.2-0.15,2.9-0.45
		c0.8-0.333,1.617-1,2.45-2c0.434-0.5,1.067-1.35,1.9-2.55c-1.5,0.066-2.65-0.25-3.45-0.95c-0.867-0.733-1.217-1.816-1.05-3.25
		c0.034-0.5,0.067-0.833,0.1-1c0.033-0.3,0.167-0.6,0.4-0.9c0.4-0.5,0.75-0.733,1.05-0.7c0.667,0.067,1.033,0.1,1.1,0.1
		c1.033-0.2,1.716-0.566,2.05-1.1c0.133-0.267,0.367-1.15,0.7-2.65c0-0.033,0.1-0.917,0.3-2.65c0.133-1.167,0.367-1.967,0.7-2.4
		c0.233-0.333,0.816-0.617,1.75-0.85c0.9-0.2,1.533-0.617,1.899-1.25c0.567-0.9,0.9-2.1,1-3.6c0-0.133,0-1.433,0-3.9l-2.5-0.5
		c-0.333,0.1-1,0.5-2,1.2l-2.25,0.85c-1.067,0.133-2.75,0.083-5.05-0.15c-1.133-0.133-2.483-0.483-4.05-1.05
		c-0.833-0.333-2.083-0.817-3.75-1.45c0.033,0.9,0.617,1.55,1.75,1.95c1.233,0.467,1.95,0.933,2.15,1.4L56.55,118l0.4,0.45
		c-1.367-0.133-2.017,0.583-1.95,2.15c0.033,0.9,0.233,2.167,0.6,3.8v2c0,0.167,0,0.317,0,0.45V128c-0.033,1.2-0.15,1.917-0.35,2.15
		c-0.267,0.333-0.967,0.483-2.1,0.45c-0.233,0.733-0.183,1.933,0.15,3.6c0.367,1.767,0.467,3.05,0.3,3.85
		c-0.133,0.667-0.5,1.25-1.1,1.75c-0.533,0.467-1.15,0.767-1.85,0.9c0.1-0.4,0.117-0.95,0.05-1.65c-0.067-1-0.1-1.667-0.1-2V124.5
		c0-2.4,0.133-5.5,0.4-9.3c0.2-3.434,0.367-5.983,0.5-7.65c0.433,1.167,1.283,2.167,2.55,3c1.2,0.8,2.55,1.284,4.05,1.45
		c0.767,0.133,1.767,0.167,3,0.1c1.4-0.067,2.417-0.1,3.05-0.1c1.033,0.067,1.85,0.133,2.45,0.2c1.066,0.066,1.867,0.017,2.4-0.15
		c0.4-0.133,0.983-0.483,1.75-1.05c0.7-0.567,1.316-0.9,1.85-1l-0.25-0.5h0.25l-1.6-0.2l0.6,0.05l0.7,0.1l1.4-0.8
		c0.399-0.267,1-0.566,1.8-0.9l0.15,0.55c0.133,0.4,1.066,2.417,2.8,6.05c1.233,2.533,1.75,4.6,1.55,6.2
		c-0.134,1.034-0.45,2.15-0.95,3.35c-0.6,1.5-1.25,2.35-1.95,2.55c-0.699,0.2-1.267,0-1.699-0.6c-0.233-0.333-0.534-0.9-0.9-1.7
		l0.1-0.15l-0.1,0.1c-0.167-0.267-0.35-0.45-0.55-0.55c-1.101-0.5-1.75,0.167-1.95,2c-0.066,0.633-0.05,2.267,0.05,4.9
		c-0.267,0.633-0.616,1.3-1.05,2c-1,1.566-1.583,2.5-1.75,2.8c-0.433,0.9-0.667,1.967-0.7,3.2v3.15
		C68.65,141.033,68.883,140.5,69.25,140z M75.6,100.85v-0.35l0.051,0.1L75.6,100.85z M75.4,101.4c-0.4,1.133-1.017,2.167-1.851,3.1
		c-0.967,0.767-2.184,1.45-3.65,2.05c-1.3,0.534-2.433,0.867-3.4,1c-0.9,0.133-2.367,0.117-4.4-0.05c-1.1,0.033-1.934-0.15-2.5-0.55
		c-0.367-0.267-1.05-0.85-2.05-1.75c-0.1,0.4-0.117,0.833-0.05,1.3c-0.7-0.4-1.317-0.55-1.85-0.45c-0.133,0.4-0.183,0.75-0.15,1.05
		l-3.9-1.85l-0.05,1.35c0-0.3,0-0.55,0-0.75c0.1-2.9,0.567-6.184,1.4-9.85c0.3-1.367,1.133-4.583,2.5-9.65
		c0.183-0.64,0.433-1.748,0.75-3.325c0.401,0.853,0.684,1.494,0.85,1.925c0.3,0.733,0.483,1.417,0.55,2.05c0.267,3.3-0.2,6-1.4,8.1
		c-0.133,0.233-0.55,0.8-1.25,1.7c-0.5,0.667-0.8,1.233-0.9,1.7c-0.133,0.867,0.217,2.033,1.05,3.5c0.933,1.933,2.85,3.133,5.75,3.6
		c2.566,0.4,4.967,0.2,7.2-0.6c1.3-0.467,2.083-1.167,2.35-2.1c0.067-0.167,0.117-0.6,0.15-1.3c-0.233,0.333-0.466,0.633-0.7,0.9
		c0.233-0.3,0.483-0.633,0.75-1l-0.5,0.1l0.45-0.1c0.034-0.533,0.05-1.2,0.05-2v-7.05c0.066-0.434,0.133-1.117,0.2-2.05
		c0.067-0.8,0.184-1.433,0.351-1.9c1.1-0.1,1.85-0.083,2.25,0.05c0.566,0.167,1.1,0.684,1.6,1.55s0.85,2.033,1.05,3.5
		c0.167,1.367,0.167,2.633,0,3.8C75.95,98.333,75.733,99.667,75.4,101.4z M69.05,95.35l0.15,0.5l-0.1-0.3l-0.15,0.4L69.05,95.35z
		 M71.15,88.1l-1,1.35c0.3-1.767,0.434-3.167,0.4-4.2c0.267,0.367,0.434,0.817,0.5,1.35C71.083,86.767,71.116,87.267,71.15,88.1z
		 M60.85,59.85c0.066-0.267,0.133-0.517,0.2-0.75c0.167-0.667,0.45-1.55,0.85-2.65c0.233,0.5,0.667,0.867,1.3,1.1
		c0.5,0.2,1.333,0.35,2.5,0.45c2.867,0.333,4.45-0.45,4.75-2.35l0.15-0.15l-0.15-0.1l0.05-0.3h-0.3l-0.6-0.6l-1.7-0.05
		c-0.467-0.434-0.566-1.267-0.3-2.5c0.367-1.767,0.533-2.917,0.5-3.45v-1.8c0.633-0.1,0.967-0.15,1-0.15
		c0.167-0.033,0.467-0.2,0.9-0.5c0.367,1.467,0.7,4.083,1,7.85c0.1,1.233,0.283,2.6,0.55,4.1c-0.467,0-0.983,0.15-1.55,0.45
		c-0.8,0.4-1.317,0.633-1.55,0.7c-0.467,0.133-1.067,0.233-1.8,0.3c-0.9,0.033-1.517,0.083-1.85,0.15
		c0.167,0.2,0.383,0.383,0.65,0.55c-1.633-0.167-2.733-0.483-3.3-0.95c-0.033,0.767,0.4,1.417,1.3,1.95
		c0.8,0.467,1.816,0.767,3.05,0.9c-1.167,0.133-2.133,0.117-2.9-0.05c-0.567-0.067-1.1-0.367-1.6-0.9
		C61.733,60.8,61.35,60.383,60.85,59.85z M67.25,83.8c-0.067,0.833,0.017,1.417,0.25,1.75h0.05c0.434,3.034,0.617,7.3,0.55,12.8
		c-0.4,1.4-0.6,2.433-0.6,3.1c-0.567,0.133-1.3,0.117-2.2-0.05c-0.5-0.066-1.25-0.2-2.25-0.4c-1.367-0.133-2.2-0.267-2.5-0.4
		c-0.533-0.3-0.85-1-0.95-2.1c-0.067-0.6-0.05-1.283,0.05-2.05c0.1-0.934,0.283-1.583,0.55-1.95c0.2-0.3,0.65-0.617,1.35-0.95
		c0.6-0.267,0.917-0.583,0.95-0.95c-0.833-0.567-1.383-1.117-1.65-1.65c-0.333-0.6-0.4-1.383-0.2-2.35
		c0.367-0.033,1.65-0.25,3.85-0.65c0.167-0.633,0.1-1.267-0.2-1.9c-0.466-0.9-0.716-1.433-0.75-1.6
		c-0.233-1.2-0.216-2.684,0.05-4.45c0.133-1.233,0.566-2.283,1.3-3.15c0.833-0.967,1.867-1.434,3.1-1.4
		c0.267-1.167,0.067-2.133-0.6-2.9c-0.633-0.767-1.55-1.133-2.75-1.1c-0.1-0.367-0.083-0.85,0.05-1.45c0.233-0.9,0.35-1.4,0.35-1.5
		c0.034-0.233,0.017-0.733-0.05-1.5c-0.067-0.7-0.05-1.2,0.05-1.5c0.267-0.733,1.267-1.367,3-1.9c1.567-0.467,2.4-1.1,2.5-1.9
		c0.5-0.233,0.851-0.467,1.05-0.7l-0.7-0.55c0.4-0.034,0.75-0.133,1.05-0.3c0.434,2.3,0.649,4.133,0.649,5.5
		c-0.066,3.267-0.066,5.717,0,7.35c0,0.667,0.233,2.167,0.7,4.5c0.367,1.867,0.434,3.317,0.2,4.35
		c-0.467-0.533-1.083-1.367-1.85-2.5c-0.734-0.867-1.601-1.317-2.601-1.35c-2-0.067-2.617,1.767-1.85,5.5L67.25,83.8z M56.7,76
		l-0.05,0.55c-0.033,0.267-0.066,0.55-0.1,0.85C56.583,76.9,56.633,76.433,56.7,76z M49.325,142.25
		c0.591-0.417,0.983-0.834,1.175-1.25c-0.167,0.4-0.483,0.767-0.95,1.1L49.325,142.25z M59.5,163.55c-4.233,0.3-6.4,0.45-6.5,0.45
		c-2.433-0.033-4.533-0.517-6.3-1.45l-0.1,0.25c-1.2-0.9-2.017-1.733-2.45-2.5c-0.7,3.667,0.983,5.9,5.05,6.7
		c4.966,0.2,8.233,0.4,9.8,0.6c0.133,0.534,0.3,1.167,0.5,1.9c0.067,0.5-0.217,0.983-0.85,1.45c-0.667,0.467-2.2,0.616-4.6,0.45
		c-1.267-0.067-2.9-0.2-4.9-0.4c-0.9,0-2.417,0.017-4.55,0.05c-1.8-0.1-3.167-0.566-4.1-1.399c-0.167,0.6,0.383,1.5,1.65,2.699
		c0.867,0.801,1.817,1.534,2.85,2.2c0.7,0.434,1.533,0.75,2.5,0.95c1.1,0.233,1.967,0.434,2.6,0.6c3.233,0.934,6.383,1.4,9.45,1.4
		c1.333,0.066,2.35,0.116,3.05,0.15c1.267,0.033,2.267-0.051,3-0.25c0.566-0.134,1.367-0.467,2.4-1
		c0.967-0.467,1.783-0.767,2.45-0.9c5.8-1,8.316-2.634,7.55-4.9c-1.533-0.199-2.783-0.133-3.75,0.2c-0.134-0.3-0.167-1.066-0.1-2.3
		c0.066-1.033-0.117-1.733-0.551-2.1c-0.5,0.199-1.05,0.616-1.649,1.25l-0.8,0.899L71.1,168.5l-0.7,0.05
		c-0.333,0.101-0.733,0.351-1.2,0.75c-0.534,0.434-0.934,0.717-1.2,0.851c-0.8,0.366-1.767,0.6-2.9,0.699
		c-1.033-0.666-1.367-1.866-1-3.6c0.233-1.2,0.733-2.45,1.5-3.75l-0.5-0.5c-0.567,0-1.417-0.017-2.55-0.05
		c-0.966,0.033-1.783,0.167-2.45,0.4L59.5,163.55z M84.55,267.4L78.6,269c-1.133-0.1-2.783,0.184-4.949,0.85
		c-2.4,0.733-4.101,1.117-5.101,1.15l-2.1,0.1c1.633-0.233,3.167-0.633,4.6-1.199c0.101-0.034,0.867-0.217,2.3-0.551
		c1.067-0.267,1.733-0.55,2-0.85c-1.767-0.566-3.517-0.733-5.25-0.5l1.85-1.85c-2.1,1.699-5.067,2.649-8.9,2.85
		c-0.867,0.033-2.283,0.217-4.25,0.55c-1.767,0.3-3.216,0.45-4.35,0.45c-2.733,0-4.167,0-4.3,0c-1.633-0.066-3.033-0.233-4.2-0.5
		c-0.167-0.033-1.467-0.483-3.9-1.35c-1.7-0.601-3-0.784-3.9-0.551c-0.5,1.667,2.217,2.884,8.15,3.65
		c3.667,0.5,7.284,0.75,10.85,0.75c1.167,0,2.317-0.05,3.45-0.15c-0.434,1.467,0.633,2.351,3.2,2.65c0.667,0.066,2.434,0.066,5.3,0
		c4.8-0.1,9.2-1.55,13.2-4.35l-0.1,0.149c-0.566,0.601-1.233,1.233-2,1.9L78.6,273c-0.633-0.033-1.333,0.233-2.1,0.8
		c-1.033,0.7-1.667,1.101-1.9,1.2c-0.633,0.267-1.816,0.467-3.55,0.6c-0.6,0.067-2.316,0.084-5.15,0.051
		c-2.633,0.033-4.2,0.316-4.7,0.85l0.75,0.4l-3.4,0.1c-0.966,0-2.633,0.083-5,0.25c-2.133,0.066-3.75-0.167-4.85-0.7
		c0.633,0.834,2.117,1.566,4.45,2.2c0.367,0.1,2.05,0.483,5.05,1.15l0.15,0.05c0.833,0.467,1.883,0.967,3.15,1.5
		c-3.767-0.3-7.75-1.233-11.95-2.8c0.367,1.066,1.45,2.1,3.25,3.1c1.233,0.733,2.65,1.366,4.25,1.9
		c1.633,0.533,3.534,0.949,5.7,1.25c0.833,0.133,2.767,0.35,5.8,0.649c3.9,0.334,6.75-0.017,8.55-1.05
		c1.567-0.866,2.434-1.366,2.601-1.5c0.899-0.7,1.366-1.483,1.399-2.35c0.434,0.566,0.667,1.5,0.7,2.8
		c0.066,1.2-0.033,2.133-0.3,2.8c-0.566,1.5-1.85,2.6-3.85,3.3c-1.134,0.4-2.834,0.733-5.101,1c-6.933,0.733-12.133,0.233-15.6-1.5
		c-1.434-0.7-2.9-1.717-4.4-3.05c-0.867-0.733-2.183-1.9-3.95-3.5c-0.434-0.333-0.85-0.583-1.25-0.75
		c-0.067-0.6-0.317-1.017-0.75-1.25l-2.5,0.5l-0.1,0.05c-0.4,0.033-1.133,0.233-2.2,0.601c-0.9,0.3-1.6,0.433-2.1,0.399
		c-1.6-0.133-2.633-1.184-3.1-3.149c-0.233-2.4-0.417-4.067-0.55-5c-0.466-3.967-0.95-6.834-1.45-8.601l-0.2-0.7l0.6-0.149
		c0.033-0.8,0.317-1.483,0.85-2.05c0.467-0.567,1.05-0.95,1.75-1.15c0.4,0.8,1.05,1.483,1.95,2.05c0,0.733,0.167,1.351,0.5,1.851
		c0.534,0.833,1.434,1.399,2.7,1.699c1.533,0.233,2.633,0.4,3.3,0.5c3.067,0.567,5.733,0.884,8,0.95c4.2,0.101,6.4-0.684,6.6-2.35
		c-0.833-0.3-1.333-0.5-1.5-0.601c-0.633-0.333-1-0.75-1.1-1.25c0.733-0.333,1.65-0.533,2.75-0.6c1.267,0,2.2-0.033,2.8-0.1
		c1.933-0.134,3.683-0.434,5.25-0.9c1.5-0.434,3.067-1.1,4.7-2c2.101-1.1,3.617-2.083,4.55-2.95c1.733-1.566,1.351-2.55-1.149-2.95
		c-0.834-0.1-1.684-0.149-2.55-0.149c-0.801-0.101-1.467-0.066-2,0.1l-2.101,0.3l0.3-0.05c0.733-0.333,1.4-0.566,2-0.7
		c1.067-0.199,2.467-0.267,4.2-0.199c2.733,0.066,4.167,0.1,4.3,0.1c0.967,0,2.134-0.15,3.5-0.45c0.801,1.334,1.267,2.167,1.4,2.5
		c0.4,1.066,0.6,2.584,0.6,4.55c0,0.534,0,1.301,0,2.301c-0.033,0.8-0.199,1.5-0.5,2.1C85.733,265.733,85.217,266.533,84.55,267.4z
		 M44.6,276.5l1-1c-0.733-1-2.283-1.767-4.65-2.3c-2.5-0.566-3.8-0.134-3.9,1.3c-0.1,1.533,1.1,2.566,3.6,3.1
		C43.117,278.134,44.433,277.767,44.6,276.5z M80.4,280.1l-3.301,0.4c-0.6,0.3-1.333,0.566-2.199,0.8l-2.7-0.25l3.149-0.399
		c1-0.267,1.817-0.45,2.45-0.551C78.967,279.866,79.833,279.866,80.4,280.1z M26.2,277.4c-0.067-2.434-0.1-4.334-0.1-5.7
		c0.833,0.066,1.733-0.25,2.7-0.95c1-0.7,1.6-1.45,1.8-2.25l-0.5-1c-1.6-0.134-2.95,0.033-4.05,0.5c0-1.033-0.017-1.884-0.05-2.55
		c0-0.566,0-1.101,0-1.601c0.467,0.4,1,0.467,1.6,0.2c0.833-0.366,1.333-1.717,1.5-4.05c0.1-1.934,1.066-2.733,2.9-2.4l0.7,2.45
		c0.066,2.5,0.2,4.65,0.4,6.45c0.1,1,0.066,2.134-0.1,3.4c-0.2,1.433-0.533,2.517-1,3.25c-0.2,0.3-0.533,0.616-1,0.949
		c-0.5,0.334-0.85,0.617-1.05,0.851c-0.167,0.233-0.317,0.75-0.45,1.55c-0.133,0.767-0.3,1.233-0.5,1.4
		C27.867,278.866,26.933,278.7,26.2,277.4z M24.425,288.85l1.175-3.399c-0.1,0.566-0.467,1.649-1.1,3.25
		C24.478,288.751,24.453,288.801,24.425,288.85z M27.05,308.9c-0.233-0.467-0.267-1.134-0.1-2c0.033-0.101,0.066-0.184,0.1-0.25
		C26.85,307.684,26.85,308.434,27.05,308.9z M62.1,310.3c-0.333-0.633-0.517-1.383-0.55-2.25c0-0.767,0.133-1.35,0.4-1.75
		c0.2-0.3,0.533-0.566,1-0.8l1.3-0.5l0.8-0.35c0.733-0.367,1.184-1.017,1.35-1.95c0.167-0.9,0.533-1.5,1.1-1.8
		c-0.133-0.367-0.483-0.801-1.05-1.301c-0.333-0.267-0.867-0.666-1.6-1.199c-0.633-0.5-1.033-0.934-1.2-1.301
		c-0.2-0.5-0.066-1,0.4-1.5c0.733-0.767,2.184-1.166,4.35-1.199c2.4,0.066,3.966,0.1,4.7,0.1l2,1
		c-0.033,1.267-0.149,2.217-0.35,2.85c-0.3,0.834-0.85,1.584-1.65,2.25c-0.633,0.567-1.3,1.084-2,1.551
		c-0.366,0.399-0.533,1.183-0.5,2.35c0,0.967,0.167,1.684,0.5,2.15c0.534,0.566,1,1.149,1.4,1.75c0.667,1.066,0.866,1.949,0.6,2.649
		c-0.267,0.634-0.767,1.05-1.5,1.25c-0.233,0.033-0.899,0.101-2,0.2C65.533,312.833,63.033,312.1,62.1,310.3z M63.85,312.5
		c-0.434-0.434-1.083-0.717-1.95-0.85c0.1,0,0.184,0,0.25,0C62.883,311.783,63.45,312.066,63.85,312.5z M37.65,261.2
		c0.633-0.167,1.267-0.2,1.9-0.101v0.601L37.65,261.2z M33.6,295.25c-0.533-0.866-0.684-1.6-0.45-2.2c0.4,0.101,1.7,0.5,3.9,1.2
		c1.534,0.5,2.883,0.75,4.05,0.75l2.5,1c-3.367,1.9-6.15,2.2-8.35,0.9C34.65,296.566,34.1,296.017,33.6,295.25z M52.6,292.5
		c-0.367-0.066-0.85-0.033-1.45,0.1c-0.133,0.434-0.133,0.884,0,1.351c0.367,0.033,1.517,0.05,3.45,0.05L52.6,292.5z M57.1,292.5
		c-0.2,1.467-0.917,2.684-2.15,3.65c-1.367,1.066-2.667,1.066-3.9,0c-0.7-0.601-0.9-1.5-0.6-2.7c0.3-1.233,1.017-1.717,2.15-1.45
		L57.1,292.5z M87.3,314c-0.73,0.036-1.422,0.087-2.075,0.15c0.445-0.055,0.903-0.104,1.375-0.15H87.3z M40.75,307.4
		c-0.433,0.066-1.317,0.1-2.65,0.1c-3.5,0-5.3,0-5.4,0c-2.7-0.2-3.883-0.833-3.55-1.9c1.333,0,2.333-0.05,3-0.149
		c1.2-0.167,1.684-0.783,1.45-1.851c0.333-0.066,1.983,0,4.95,0.2c2.3,0.134,3.817-0.133,4.55-0.8l3.5,0.5
		c-1.5,1.5-2.684,2.5-3.55,3C42.217,306.967,41.45,307.267,40.75,307.4z"/>
	<path style="fill-rule:evenodd;clip-rule:evenodd;fill:#6C5C47;" d="M72.3,109.45l-0.7-0.1l0.5-0.35L72.3,109.45z M68,32.65
		l-0.4,0.85c-0.133,0.233-0.5,0.55-1.1,0.95c-0.5,0.333-0.817,0.683-0.95,1.05c-0.133,0.333-0.167,0.883-0.1,1.65
		c0.1,0.9,0.117,1.483,0.05,1.75l-0.85,1.15c-0.367,0.467-0.333,0.934,0.1,1.4c0.2,0.2,0.8,0.267,1.8,0.2
		c1.1-0.1,1.75-0.167,1.95-0.2c0.133-0.4,0.1-1.034-0.1-1.9c-0.2-1-0.3-1.683-0.3-2.05v-4.8c1,0.566,1.5,2.167,1.5,4.8
		c-0.033,1.967-0.3,3.317-0.8,4.05c-0.6,0.9-1.833,1.383-3.7,1.45c-0.833,0.033-1.583-0.067-2.25-0.3l0.1-1.45
		c0.133-1.2,0.483-2.583,1.05-4.15c0.3-0.9,0.783-2.283,1.45-4.15c0.3-0.867,0.483-1.833,0.55-2.9c0.033-0.367,0.067-1.383,0.1-3.05
		c0-3.367,0.15-5.867,0.45-7.5c0-0.067,0.017-0.15,0.05-0.25c0.167,0.733,0.217,1.783,0.15,3.15c-0.1,1.5-0.15,2.533-0.15,3.1
		c-0.033,1.533-0.067,2.7-0.1,3.5c-0.033,1.4,0.017,2.55,0.15,3.45C67.15,32.35,67.6,32.417,68,32.65z M70.45,55.65
		c-0.3,1.9-1.883,2.684-4.75,2.35c-1.167-0.1-2-0.25-2.5-0.45c-0.633-0.233-1.067-0.6-1.3-1.1l-0.05-0.05l0.7-1.95
		c0-0.1,0-0.2,0-0.3c1.267-0.033,1.867-0.9,1.8-2.6c0-0.933-0.067-2.25-0.2-3.95c1.133,0,2.217-0.3,3.25-0.9
		c0.3-0.2,0.533-0.434,0.7-0.7v0.7v1.8c0.033,0.533-0.133,1.683-0.5,3.45c-0.267,1.233-0.167,2.066,0.3,2.5
		c-0.633,0.033-2.4,0.25-5.3,0.65c0.533,0.467,1.8,0.816,3.8,1.05C68.533,56.383,69.883,56.217,70.45,55.65z M68.95,95.95l0.15-0.4
		l0.1,0.3c0.767-0.6,1.233-1.733,1.4-3.4v7.05c0,0.8-0.017,1.467-0.05,2l-0.45,0.1l-4.5,0.9c-0.533-0.067-1.283,0-2.25,0.2
		c-0.967,0.233-1.717,0.3-2.25,0.2c-0.333-0.033-1.083-0.316-2.25-0.85c-0.934-0.466-1.684-0.617-2.25-0.45
		c0.4,1,1.483,1.767,3.25,2.3c0.833,0.233,2.2,0.467,4.1,0.7c1.6,0.233,2.85,0.133,3.75-0.3l2.15-1.8
		c0.233-0.267,0.467-0.567,0.7-0.9c-0.033,0.7-0.083,1.133-0.15,1.3c-0.267,0.934-1.05,1.633-2.35,2.1c-2.233,0.8-4.633,1-7.2,0.6
		c-2.9-0.467-4.817-1.667-5.75-3.6c-0.833-1.467-1.184-2.633-1.05-3.5c0.1-0.467,0.4-1.033,0.9-1.7c0.7-0.9,1.117-1.466,1.25-1.7
		c1.2-2.1,1.667-4.8,1.4-8.1c-0.067-0.633-0.25-1.317-0.55-2.05c-0.166-0.431-0.449-1.073-0.85-1.925V83
		c0.036-0.149,0.07-0.299,0.1-0.45l0.2-1.45c-0.033-1-0.033-1.9,0-2.7l0.05-1c0.034-0.3,0.067-0.583,0.1-0.85
		c0.067,0.733,0.333,1.383,0.8,1.95c1,1.333,1.517,2.017,1.55,2.05c0.267,0.467,0.467,1.3,0.6,2.5c0.1,1.1,0.383,1.917,0.85,2.45
		c0.533-0.667,0.783-1.767,0.75-3.3c0-0.833-0.034-2.034-0.1-3.6c0.1-1.367,0.717-2.25,1.85-2.65c1.367-0.5,2.25-1.15,2.65-1.95
		l-1-2.5h-2.5c-0.267,0-0.883-0.1-1.85-0.3c-0.967-0.167-1.633-0.267-2-0.3c0.067-0.167,0.15-0.333,0.25-0.5l0.45-1.25
		c0.533-1.467,0.867-2.65,1-3.55c0.066-0.267,0.2-1.217,0.4-2.85l0.05-0.2c0-0.066,0-0.133,0-0.2c0.133-0.934,0.283-1.767,0.45-2.5
		c0.5,0.533,0.883,0.95,1.15,1.25c0.5,0.533,1.033,0.833,1.6,0.9c0.767,0.167,1.733,0.183,2.9,0.05
		c1.667,0.167,3.017,0.05,4.05-0.35c-0.1,0.8-0.933,1.433-2.5,1.9c-1.733,0.533-2.733,1.167-3,1.9c-0.1,0.3-0.117,0.8-0.05,1.5
		c0.067,0.767,0.083,1.267,0.05,1.5c0,0.1-0.117,0.6-0.35,1.5c-0.133,0.6-0.15,1.083-0.05,1.45c1.2-0.034,2.117,0.333,2.75,1.1
		c0.667,0.767,0.867,1.733,0.6,2.9c-1.233-0.034-2.267,0.433-3.1,1.4c-0.733,0.867-1.167,1.917-1.3,3.15
		c-0.267,1.767-0.283,3.25-0.05,4.45c0.034,0.167,0.284,0.7,0.75,1.6c0.3,0.633,0.367,1.267,0.2,1.9c-2.2,0.4-3.483,0.617-3.85,0.65
		c-0.2,0.967-0.133,1.75,0.2,2.35c0.267,0.533,0.816,1.083,1.65,1.65c-0.033,0.367-0.35,0.683-0.95,0.95
		c-0.7,0.333-1.15,0.65-1.35,0.95c-0.267,0.367-0.45,1.017-0.55,1.95c-0.1,0.767-0.117,1.45-0.05,2.05c0.1,1.1,0.417,1.8,0.95,2.1
		c0.3,0.133,1.133,0.267,2.5,0.4c1,0.2,1.75,0.333,2.25,0.4c0.9,0.167,1.633,0.184,2.2,0.05c0-0.667,0.2-1.7,0.6-3.1L68.95,95.95z
		 M63.1,67.5l-2-0.5c-0.333-0.1-0.65-0.067-0.95,0.1c-0.333,0.767-0.2,1.333,0.4,1.7c0.567,0.333,1.217,0.383,1.95,0.15
		c0-0.233,0.083-0.483,0.25-0.75C62.95,67.867,63.067,67.633,63.1,67.5z M70.45,55.4l-0.25-0.3h0.3L70.45,55.4z M51.5,107.55
		l-0.05-0.05l0.1-0.9l0.05-1.35l3.9,1.85c0.2,1.467,2.35,2.467,6.45,3c1.867,0.267,3.25,0.4,4.15,0.4
		c0.767,0.033,1.816-0.117,3.15-0.45c1.433-0.333,2.467-0.517,3.1-0.55l0.25,0.5c-0.533,0.1-1.149,0.433-1.85,1
		c-0.767,0.567-1.35,0.917-1.75,1.05c-0.533,0.167-1.333,0.217-2.4,0.15c-0.6-0.067-1.417-0.133-2.45-0.2
		c-0.633,0-1.65,0.033-3.05,0.1c-1.233,0.066-2.233,0.033-3-0.1c-1.5-0.167-2.85-0.65-4.05-1.45
		C52.783,109.717,51.933,108.717,51.5,107.55z M48.35,142.9l-0.05-0.05c0.434-0.233,0.75-0.417,0.95-0.55l0.075-0.05l0.225-0.15
		c0.467-0.333,0.784-0.7,0.95-1.1l0.1-0.3h0.05c0.7-0.133,1.317-0.434,1.85-0.9c0.6-0.5,0.967-1.083,1.1-1.75
		c0.167-0.8,0.066-2.083-0.3-3.85c-0.333-1.667-0.383-2.867-0.15-3.6c1.133,0.033,1.833-0.117,2.1-0.45
		c0.2-0.233,0.317-0.95,0.35-2.15v-1.15c0.066,0.533,0.367,1.066,0.9,1.6c1.1,1.066,2.467,1.583,4.1,1.55
		c0.967-0.033,1.65-0.15,2.05-0.35c0.467-0.233,0.95-0.783,1.45-1.65c0.267-0.467,0.517-1.483,0.75-3.05
		c0.2-1.467,0.467-2.383,0.8-2.75c0.367-0.4,1-0.667,1.9-0.8c0.967-0.133,1.65-0.383,2.05-0.75c0.467-0.4,0.867-1.033,1.2-1.9
		c0.334-0.867,0.434-1.617,0.3-2.25l-1.5-0.5c-0.567,0-1.067,0.067-1.5,0.2c1-0.7,1.667-1.1,2-1.2l2.5,0.5c0,2.467,0,3.767,0,3.9
		c-0.1,1.5-0.433,2.7-1,3.6c-0.366,0.633-1,1.05-1.899,1.25c-0.934,0.233-1.517,0.517-1.75,0.85c-0.333,0.433-0.567,1.233-0.7,2.4
		c-0.2,1.733-0.3,2.617-0.3,2.65c-0.333,1.5-0.567,2.383-0.7,2.65c-0.333,0.534-1.017,0.9-2.05,1.1c-0.067,0-0.434-0.033-1.1-0.1
		c-0.3-0.033-0.65,0.2-1.05,0.7c-0.233,0.3-0.367,0.6-0.4,0.9c-0.033,0.167-0.066,0.5-0.1,1c-0.167,1.434,0.184,2.517,1.05,3.25
		c0.8,0.7,1.95,1.017,3.45,0.95c-0.833,1.2-1.466,2.05-1.9,2.55c-0.833,1-1.65,1.667-2.45,2c-0.7,0.3-1.667,0.45-2.9,0.45
		c-0.7,0-1.733-0.033-3.1-0.1c-1.333,0-2.467-0.15-3.4-0.45c-0.9-0.267-1.95-0.783-3.15-1.55L48.35,142.9z M41.55,155.55l-0.05-0.05
		c0.067-0.033,0.2-0.083,0.4-0.15c0.467-0.2,1.25-0.45,2.35-0.75c1.033-0.3,1.633-0.967,1.8-2l0.45-0.2
		c-0.033-0.167,0-0.467,0.1-0.9c0.066-0.433,0.083-0.733,0.05-0.9c1-0.133,2.65-0.233,4.95-0.3c2.133-0.066,3.8-0.2,5-0.4
		c2.267-0.167,4.033-0.433,5.3-0.8c2.333-0.667,3.4-1.867,3.2-3.6l1.5,0.5c-0.567,0.267-1.067,1-1.5,2.2l-0.55,0.25l-2.45,1.05
		c-0.233,0.067-0.567,0.25-1,0.55c-0.434,0.267-0.767,0.434-1,0.5c-0.367,0.067-0.95,0.117-1.75,0.15
		c-0.767,0.033-1.367,0.1-1.8,0.2c-0.533,0.133-1.683,0.283-3.45,0.45c-1.4,0.333-1.883,1.017-1.45,2.05c3.367,0.833,6,1,7.9,0.5
		c0.833-0.2,1.717-0.633,2.65-1.3c0.9-0.667,1.65-1.434,2.25-2.3c-0.333,1.3-0.784,2.217-1.35,2.75c-0.867,0.833-2.184,1.6-3.95,2.3
		c-1.633,0.6-3.167,1-4.6,1.2c-1.333,0.167-3.3,0.2-5.9,0.1C45.383,156.483,43.017,156.117,41.55,155.55z M33,232.45
		c0.867,0.233,2.033,0.717,3.5,1.45c1.4,0.666,2.267,1.033,2.6,1.1l-1,1c-0.267-0.033-1.2-0.116-2.8-0.25
		c-1.667-0.167-2.983-0.384-3.95-0.65c0-0.033-0.017-0.05-0.05-0.05c0.9-1.033,1.45-1.899,1.65-2.6H33z M34.35,218.5l0.1-1.7
		c0,0.033,0.017,0.066,0.05,0.101c1.367,4.133,2.767,7.133,4.2,9c2,2.633,4.8,4.35,8.4,5.149c2.033,0.434,4.267,0.667,6.7,0.7
		c2.567,0.033,4.833-0.167,6.8-0.6c3.667-0.634,6.417-1.2,8.25-1.7c3.167-0.867,5.583-2.184,7.25-3.95l5.5-1
		c0.233,1.4-0.716,3.2-2.85,5.4c-1.967,2.033-3.684,3.25-5.15,3.649c-0.3,0.066-0.883,0.15-1.75,0.25
		c-0.699,0.033-1.283,0.15-1.75,0.351c-1.133,0.433-2.2,0.75-3.2,0.949c-1.4,0.301-3.117,0.45-5.15,0.45
		c-1.133,0.033-2.85,0.017-5.15-0.05c-2.3,0-5.95-0.333-10.95-1c-2.1-0.3-3.417-0.5-3.95-0.6c-1.5-0.334-2.7-0.834-3.6-1.5
		c-1.934-1.367-3.434-2.7-4.5-4L34.35,218.5z M35.5,205.3c0.067-1.033,0.1-1.967,0.1-2.8l0.6-0.1l0.2-1.351h0.05l0.1-0.1
		c0.3-0.134,1.3-0.184,3-0.15c0.733,0.033,1.083-0.733,1.05-2.3c-0.033-0.866-0.033-1.384,0-1.55c0.033-0.467,0.233-0.917,0.6-1.351
		c0.1-0.1,0.533-0.333,1.3-0.699c0.467-0.233,0.633-0.667,0.5-1.301c-1.067-0.033-2-0.716-2.8-2.05c-0.8-1.366-0.9-2.5-0.3-3.399
		c1.767,1.767,3.434,3.017,5,3.75c1.934,0.966,3.967,1.316,6.1,1.05c0.233-0.634,0.067-1.233-0.5-1.8
		c-0.633-0.634-0.933-1.15-0.9-1.551c0.967-0.233,2.467-0.183,4.5,0.15c-0.1,0.767,0.583,1.483,2.05,2.15
		c1.033,0.466,2.133,0.8,3.3,1c2.3,0.433,4.65,0.233,7.05-0.601c1.3-0.467,3.4-1.5,6.3-3.1c0.7-0.233,1.283-0.467,1.75-0.7
		c1-0.566,1.767-0.95,2.3-1.15c0.967-0.433,1.717-0.383,2.25,0.15l-1.5,1.5c-0.733,0.3-1.783,0.866-3.149,1.7
		c-1.367,0.833-2.45,1.399-3.25,1.7c-0.833,0.3-1.833,0.466-3,0.5c-1.7,0.1-2.717,0.166-3.05,0.199
		c-0.2,1.301,0.967,2.317,3.5,3.051c2.8,0.8,4.284,1.416,4.45,1.85c0.367,0.866,0.084,1.816-0.85,2.85
		c-0.833,0.9-1.717,1.467-2.65,1.7c-0.867,0.2-2.2,0.217-4,0.05c-1.9-0.233-3.233-0.283-4-0.149c-1,0.166-1.883,0.6-2.65,1.3
		c-0.434,0.4-1.034,1.134-1.8,2.2c-0.467-0.667-0.733-1.217-0.8-1.65c-0.067-0.633,0.217-1.2,0.85-1.7
		c0.267-0.199,0.816-0.25,1.65-0.149c1.033,0.066,1.6,0.1,1.7,0.1c0.934-0.133,1.767-0.483,2.5-1.05c0.2-0.167,0.883-0.833,2.05-2
		l-2-2c-0.533,0-1.35,0.017-2.45,0.05c-1,0.033-1.816-0.017-2.45-0.149c-0.567-0.101-1.883-0.584-3.95-1.45
		c-1.667-0.7-3.033-1-4.1-0.9c0.1,0.9,0.8,1.834,2.1,2.8c1.367,1.034,2.15,1.9,2.35,2.601c-3.434,0.399-5.917,0.267-7.45-0.4
		c0.033,0.267-0.017,0.733-0.15,1.4c-0.633,0.1-2.683,0.116-6.15,0.05c-3,0.267-4.217,1.267-3.65,3c0.233,0.8,0.85,1.384,1.85,1.75
		c1.2,0.3,2.017,0.583,2.45,0.85c0.267,0.167,0.533,0.483,0.8,0.95c0.333,0.533,0.583,0.867,0.75,1c0.4,0.3,0.883,0.517,1.45,0.65
		c0.7,0.133,1.233,0.233,1.6,0.3c4.233,0.934,6.867,1.434,7.9,1.5c3.867,0.333,5.533-0.667,5-3l-0.1-0.25
		c1.533,0.566,2.684,0.967,3.45,1.2c1.333,0.399,2.566,0.583,3.7,0.55c1.4-0.033,2.467-0.05,3.2-0.05c1.267,0,2.316,0.05,3.15,0.149
		c-1.667,2.434-3.917,4.084-6.75,4.95L67.6,214l-8-0.5c-1.067,0.967-2.883,1.2-5.45,0.7c-2.633-0.5-4.35-0.4-5.15,0.3
		c0.1,0.566,0.883,0.967,2.35,1.2c0.533,0.1,1.7,0.2,3.5,0.3c-3.833-0.066-7.067-0.7-9.7-1.9c-1.367-0.633-2.117-1.199-2.25-1.699
		c-0.133-0.467,0.233-1.233,1.1-2.301c-0.567-0.3-1.633-0.633-3.2-1c-1.433-0.333-2.5-0.733-3.2-1.199
		C36.733,207.366,36.033,206.5,35.5,205.3z M66.45,182.45c1.8-0.134,3.167-0.25,4.1-0.351c1.634-0.133,2.983-0.166,4.05-0.1
		l-0.899,0.45L72.6,183c-1.033-0.033-2.516,0.2-4.45,0.7c-2,0.533-3.5,0.8-4.5,0.8h-9c-2.566-0.033-5.367-0.733-8.4-2.1
		c-3.7-1.7-5.4-3.65-5.1-5.851c4.533,2.134,7.5,3.467,8.9,4c0.167,1.767,2.75,2.733,7.75,2.9c4.7,0.166,7.633-0.15,8.8-0.95
		L66.45,182.45z M45.55,218.25l-0.55,0.2c-0.233,2.133,2.283,3.55,7.55,4.25c4.8,0.633,8.15,0.566,10.05-0.2l-0.95-0.95
		c1.7,0,3-0.05,3.9-0.149c0.133-0.034,0.95-0.084,2.45-0.15l2.6-0.75l4-0.5c-0.899,0.767-3.1,1.184-6.6,1.25l-3.9,1.35
		c-1.067,0.434-2.184,0.717-3.35,0.851c-0.567,0.033-1.75,0.05-3.55,0.05c-3.467,0-6.684-0.517-9.65-1.55
		c-3.966-1.334-6.333-3.351-7.1-6.05c0.533-0.034,1.316,0.216,2.35,0.75C43.233,216.884,44.15,217.417,45.55,218.25z M44.05,246.8
		c-0.1,0.434-0.083,0.983,0.05,1.65c2.3,0.333,4.6,0.333,6.9,0c0.133-0.233,0.167-0.55,0.1-0.95l-2-1.45c1.3,0,2.467,0.316,3.5,0.95
		l2.5,1.5c-0.033,1.033-0.9,1.833-2.6,2.4c-0.533,0.133-1.85,0.383-3.95,0.75c0.3,0.333,1.083,0.517,2.35,0.55
		c1.3,0.066,2.184,0.283,2.65,0.649c0.8,0.7,1.367,1.184,1.7,1.45c0.6,0.533,1.15,0.917,1.65,1.15c-1.967-0.101-4.45-0.533-7.45-1.3
		c-0.934-0.233-2.35-0.584-4.25-1.051c-1.7-0.433-3.1-0.85-4.2-1.25c-0.133-0.033-0.933-0.416-2.4-1.149
		c-1.033-0.5-1.85-0.717-2.45-0.65c-0.6,1.533,0.617,3.3,3.65,5.3c2.567,1.667,4.784,2.684,6.65,3.051c1.9,0.399,4.966,0.6,9.2,0.6
		c1.567-0.1,2.817-0.167,3.75-0.2c1.733-0.033,2.917,0.167,3.55,0.601c-1.233,0.1-2.117,0.233-2.65,0.399
		c-1.133,0.3-1.683,0.834-1.65,1.601c0.967,0.733,2.833,1.066,5.6,1c2.467-0.067,4.417-0.367,5.85-0.9c1.567-0.566,2.9-1.417,4-2.55
		c1.367-1.4,1.851-2.851,1.45-4.351L74.4,254.45c0.866,0,1.716,0.05,2.55,0.149c2.5,0.4,2.883,1.384,1.149,2.95
		c-0.933,0.867-2.449,1.851-4.55,2.95c-1.633,0.9-3.2,1.566-4.7,2c-1.567,0.467-3.317,0.767-5.25,0.9c-0.6,0.066-1.533,0.1-2.8,0.1
		c-1.1,0.066-2.017,0.267-2.75,0.6c0.1,0.5,0.467,0.917,1.1,1.25c0.167,0.101,0.667,0.301,1.5,0.601c-0.2,1.666-2.4,2.45-6.6,2.35
		c-2.267-0.066-4.933-0.383-8-0.95c-0.667-0.1-1.767-0.267-3.3-0.5c-1.267-0.3-2.167-0.866-2.7-1.699
		c-0.333-0.5-0.5-1.117-0.5-1.851c0.7,0.434,1.617,0.8,2.75,1.101c1.333,0.267,2.3,0.466,2.9,0.6c3,0.733,5,1.167,6,1.3
		c2.667,0.334,4.633,0.066,5.9-0.8l-5-2c-3.434,0-7.617-0.6-12.55-1.8V261.1c-0.633-0.1-1.267-0.066-1.9,0.101H37.6v0.05
		c-0.7,0.2-1.283,0.583-1.75,1.15c-0.533,0.566-0.817,1.25-0.85,2.05l-0.6,0.149c-0.6,0.101-0.983-0.149-1.15-0.75l-0.15-1.8
		c-0.033-0.267-0.167-0.934-0.4-2L32,257.6c-1.833-0.333-2.8,0.467-2.9,2.4c-0.167,2.333-0.667,3.684-1.5,4.05
		c-0.6,0.267-1.133,0.2-1.6-0.2l0.55-7.199c0.133-1.167,0.317-2.517,0.55-4.051h0.05c1.067-0.666,1.684-1.183,1.85-1.55
		c0.4-0.767,0.45-2.05,0.15-3.85c-0.4-2.134-0.566-3.483-0.5-4.05c0.633,0.1,1.417,0.55,2.35,1.35c1.067,0.967,1.817,1.55,2.25,1.75
		c0.967,0.4,2.033,0.65,3.2,0.75c0.2,0,1.316,0,3.35,0C41.433,247,42.85,246.934,44.05,246.8z M41.45,243c0-0.3,0.2-0.5,0.6-0.6
		c0.233,0.899,1.017,1.433,2.35,1.6c0.267-0.267,0.333-0.6,0.2-1l-0.45-0.65c0.733,0.067,1.667,0.217,2.8,0.45
		c1,0.233,1.55,0.351,1.65,0.351c1.133,0.199,2.3,0.316,3.5,0.35c-0.1,0.167-0.25,0.3-0.45,0.4c-0.867,0.6-2.55,0.933-5.05,1
		c-2.5,0.033-4.017-0.25-4.55-0.851C41.65,243.616,41.45,243.267,41.45,243z M55.6,126.4v-2c-0.367-1.633-0.567-2.9-0.6-3.8
		c-0.067-1.567,0.583-2.283,1.95-2.15c0.733,0.733,2.25,1.283,4.55,1.65c0.167,0.6,0.15,1.25-0.05,1.95c-0.2,0.7-0.517,1.2-0.95,1.5
		c-0.333,0.233-1.017,0.367-2.05,0.4c-0.9,0.033-1.534,0.25-1.9,0.65C55.983,125.2,55.667,125.8,55.6,126.4z M56.9,117.75
		c-0.2-0.467-0.917-0.933-2.15-1.4c-1.133-0.4-1.717-1.05-1.75-1.95c1.667,0.633,2.917,1.117,3.75,1.45
		c1.567,0.566,2.917,0.917,4.05,1.05c2.3,0.233,3.983,0.283,5.05,0.15c-0.6,0.233-1.184,0.383-1.75,0.45
		c-0.067,0-1.267-0.05-3.6-0.15C58.733,117.25,57.533,117.383,56.9,117.75z M55.3,133.5c-0.466,0.467-0.65,1.083-0.55,1.85
		c0.267,2,1.517,2.7,3.75,2.1c0.033-1.067,0.067-1.883,0.1-2.45l-1-2C56.633,132.8,55.867,132.967,55.3,133.5z M60.6,140.5
		c-0.767,0-1.934-0.017-3.5-0.05c-1.367-0.034-2.517,0.017-3.45,0.15c-0.167,0.8-0.167,1.583,0,2.35c1.9,0.2,3.25,0.316,4.05,0.35
		c1.433,0.1,2.733-0.333,3.9-1.3L60.6,140.5z M65.1,170.85l-2,0.15c-3.067,0.267-4.75,0.434-5.05,0.5c-0.3,0.066-0.767,0.2-1.4,0.4
		c-0.566,0.166-1.066,0.233-1.5,0.199c-0.133,0.567,0.167,0.983,0.9,1.25c-2.767-0.133-5.033-0.05-6.8,0.25
		c0.6,1.434,2.633,2.267,6.1,2.5c3.833-0.066,6.267-0.1,7.3-0.1c2.533,0,4.667-0.217,6.4-0.65c3-0.733,3.867-1.966,2.601-3.699
		c0.666-0.367,0.983-0.917,0.949-1.65l-1.449-1.45l0.8-0.899c0.6-0.634,1.149-1.051,1.649-1.25c0.434,0.366,0.617,1.066,0.551,2.1
		c-0.067,1.233-0.034,2,0.1,2.3c0.967-0.333,2.217-0.399,3.75-0.2c0.767,2.267-1.75,3.9-7.55,4.9c-0.667,0.134-1.483,0.434-2.45,0.9
		c-1.033,0.533-1.833,0.866-2.4,1c-0.733,0.199-1.733,0.283-3,0.25c-0.7-0.034-1.717-0.084-3.05-0.15c-3.066,0-6.216-0.467-9.45-1.4
		c-0.633-0.166-1.5-0.366-2.6-0.6c-0.967-0.2-1.8-0.517-2.5-0.95c-1.033-0.666-1.983-1.399-2.85-2.2
		c-1.267-1.199-1.816-2.1-1.65-2.699c0.933,0.833,2.3,1.3,4.1,1.399c2.133-0.033,3.65-0.05,4.55-0.05c2,0.2,3.633,0.333,4.9,0.4
		c2.4,0.166,3.934,0.017,4.6-0.45c0.633-0.467,0.917-0.95,0.85-1.45c-0.2-0.733-0.367-1.366-0.5-1.9
		c-1.567-0.199-4.833-0.399-9.8-0.6c-4.067-0.8-5.75-3.033-5.05-6.7c0.434,0.767,1.25,1.6,2.45,2.5
		c-0.233,1.034,0.517,1.867,2.25,2.5c1.3,0.467,2.55,0.7,3.75,0.7c0.967,0.033,1.7,0.066,2.2,0.1c0.9,0,1.633-0.033,2.2-0.1
		c0.5-0.066,1.417-0.366,2.75-0.9c1.167-0.5,2.117-0.699,2.85-0.6l-1.5-1l-1.6,0.05l0.6-0.2c0.667-0.233,1.483-0.367,2.45-0.4
		c1.133,0.033,1.983,0.05,2.55,0.05l0.5,0.5c-0.767,1.3-1.267,2.55-1.5,3.75C63.733,168.983,64.067,170.184,65.1,170.85z
		 M72.4,254.55c-0.334,0.134-0.601,0.283-0.801,0.45h-2.25l0.95-0.15L72.4,254.55z M82.3,270.15c-4,2.8-8.399,4.25-13.2,4.35
		c-2.867,0.066-4.633,0.066-5.3,0c-2.566-0.3-3.633-1.184-3.2-2.65c-1.133,0.101-2.283,0.15-3.45,0.15
		c-3.566,0-7.183-0.25-10.85-0.75c-5.933-0.767-8.65-1.983-8.15-3.65c0.9-0.233,2.2-0.05,3.9,0.551
		c2.434,0.866,3.733,1.316,3.9,1.35c1.167,0.267,2.566,0.434,4.2,0.5c0.133,0,1.567,0,4.3,0c1.133,0,2.583-0.15,4.35-0.45
		c1.967-0.333,3.383-0.517,4.25-0.55c3.833-0.2,6.8-1.15,8.9-2.85L70.1,268c1.733-0.233,3.483-0.066,5.25,0.5
		c-0.267,0.3-0.933,0.583-2,0.85c-1.433,0.334-2.199,0.517-2.3,0.551c-1.433,0.566-2.966,0.966-4.6,1.199l2.1-0.1
		c1-0.033,2.7-0.417,5.101-1.15c2.166-0.666,3.816-0.949,4.949-0.85l5.95-1.6l1.55-0.4C84.866,268.233,83.6,269.283,82.3,270.15z
		 M44.6,276.5c-0.167,1.267-1.483,1.634-3.95,1.1c-2.5-0.533-3.7-1.566-3.6-3.1c0.1-1.434,1.4-1.866,3.9-1.3
		c2.367,0.533,3.917,1.3,4.65,2.3L44.6,276.5z M81.1,280.65c-0.033,0.866-0.5,1.649-1.399,2.35c-0.167,0.134-1.033,0.634-2.601,1.5
		c-1.8,1.033-4.649,1.384-8.55,1.05c-3.033-0.3-4.966-0.517-5.8-0.649c-2.167-0.301-4.067-0.717-5.7-1.25
		c-1.6-0.534-3.017-1.167-4.25-1.9c-1.8-1-2.883-2.033-3.25-3.1c4.2,1.566,8.184,2.5,11.95,2.8c1.8,0.7,3.667,1.233,5.6,1.6
		c1.6,0.267,3.367,0.3,5.3,0.101c2.333-0.233,3.899-0.784,4.699-1.65l-2.199-0.2c0.866-0.233,1.6-0.5,2.199-0.8l3.301-0.4L81.1,280
		V280.65z M56.35,232.6c-1.733,0-3.167-0.033-4.3-0.1c-2.3-0.134-3.917-0.283-4.85-0.45c-0.067,0-0.833-0.25-2.3-0.75
		c-0.9-0.3-1.667-0.366-2.3-0.2c0.867,1.601,2.733,2.551,5.6,2.851c0.267,0.033,2.533,0.05,6.8,0.05h6.1
		c1.2-0.033,2.566-0.483,4.1-1.35c1.933-1.101,3.183-1.733,3.75-1.9l-8.35,1.75L56.35,232.6z M26.05,268
		c1.1-0.467,2.45-0.634,4.05-0.5l0.5,1c-0.2,0.8-0.8,1.55-1.8,2.25c-0.966,0.7-1.867,1.017-2.7,0.95c0-0.134,0-0.25,0-0.351
		C26.1,270.083,26.083,268.967,26.05,268z M38.65,274.6c-0.2,0.267-0.2,0.534,0,0.801c0.233,0.033,0.717,0.166,1.45,0.399
		c0.566,0.167,1.033,0.217,1.4,0.15c0.167-0.601,0.2-1.084,0.1-1.45C40.067,274.5,39.083,274.533,38.65,274.6z"/>
	<path style="fill-rule:evenodd;clip-rule:evenodd;fill:#867357;" d="M72.35,109.5c-0.633,0.033-1.667,0.217-3.1,0.55
		c-1.333,0.333-2.383,0.483-3.15,0.45c-0.9,0-2.283-0.133-4.15-0.4c-4.1-0.533-6.25-1.533-6.45-3c-0.033-0.3,0.017-0.65,0.15-1.05
		c0.533-0.1,1.15,0.05,1.85,0.45c0.267,0.133,0.95,0.533,2.05,1.2c0.833,0.533,1.483,0.85,1.95,0.95c1,0.267,2.25,0.4,3.75,0.4
		c1.733-0.033,3.017-0.05,3.85-0.05l1.9,0.3l1.6,0.2H72.35z M68.1,32.7v4.8c0,0.367,0.1,1.05,0.3,2.05c0.2,0.867,0.233,1.5,0.1,1.9
		c-0.2,0.033-0.85,0.1-1.95,0.2c-1,0.067-1.6,0-1.8-0.2c-0.433-0.467-0.467-0.934-0.1-1.4l0.85-1.15
		c0.067-0.267,0.05-0.85-0.05-1.75c-0.067-0.767-0.034-1.316,0.1-1.65c0.133-0.367,0.45-0.717,0.95-1.05
		c0.6-0.4,0.967-0.717,1.1-0.95l0.4-0.85l0.1-0.15V32.7z M66.5,62.05c-1.233-0.133-2.25-0.433-3.05-0.9
		c-0.9-0.533-1.333-1.183-1.3-1.95c0.567,0.466,1.667,0.783,3.3,0.95c2.3,0.267,3.683,0.05,4.15-0.65l1.3,0.95L71.6,61
		c-0.199,0.233-0.55,0.467-1.05,0.7C69.517,62.1,68.167,62.217,66.5,62.05z M63.1,67.5c-0.033,0.133-0.15,0.367-0.35,0.7
		c-0.167,0.267-0.25,0.517-0.25,0.75c-0.733,0.233-1.383,0.183-1.95-0.15c-0.6-0.367-0.733-0.933-0.4-1.7
		c0.3-0.167,0.617-0.2,0.95-0.1L63.1,67.5z M58.25,70.9c0.367,0.033,1.033,0.133,2,0.3c0.967,0.2,1.583,0.3,1.85,0.3h2.5l1,2.5
		c-0.4,0.8-1.283,1.45-2.65,1.95c-1.133,0.4-1.75,1.283-1.85,2.65c0.066,1.566,0.1,2.767,0.1,3.6c0.033,1.533-0.217,2.633-0.75,3.3
		c-0.467-0.533-0.75-1.35-0.85-2.45c-0.133-1.2-0.333-2.033-0.6-2.5c-0.033-0.033-0.55-0.716-1.55-2.05
		c-0.467-0.567-0.733-1.217-0.8-1.95L56.7,76C56.9,74.8,57.417,73.1,58.25,70.9z M69.05,95.35c-0.066-0.5,0.167-1.833,0.7-4
		l0.3-1.45l0.05-0.4l0.05-0.05l1-1.35l0.449-0.6c-0.199,0.3-0.35,0.633-0.449,1c-0.167,0.467-0.284,1.1-0.351,1.9
		c-0.066,0.934-0.133,1.617-0.2,2.05c-0.167,1.667-0.633,2.8-1.4,3.4L69.05,95.35z M70.45,55.4l0.15,0.1l-0.15,0.15
		c-0.567,0.567-1.917,0.733-4.05,0.5c-2-0.233-3.267-0.583-3.8-1.05c2.9-0.4,4.667-0.617,5.3-0.65l1.7,0.05l0.6,0.6L70.45,55.4z
		 M70.1,101.6l0.5-0.1c-0.267,0.367-0.517,0.7-0.75,1l-2.15,1.8c-0.9,0.434-2.15,0.534-3.75,0.3c-1.9-0.233-3.267-0.467-4.1-0.7
		c-1.767-0.533-2.85-1.3-3.25-2.3c0.566-0.167,1.316-0.017,2.25,0.45c1.167,0.534,1.917,0.817,2.25,0.85
		c0.533,0.1,1.283,0.033,2.25-0.2c0.967-0.2,1.717-0.267,2.25-0.2L70.1,101.6z M55.6,126.85c0-0.133,0-0.283,0-0.45
		c0.066-0.6,0.383-1.2,0.95-1.8c0.367-0.4,1-0.617,1.9-0.65c1.033-0.034,1.716-0.167,2.05-0.4c0.433-0.3,0.75-0.8,0.95-1.5
		c0.2-0.7,0.216-1.35,0.05-1.95c-2.3-0.367-3.817-0.917-4.55-1.65l-0.4-0.45l0.35-0.25c0.633-0.367,1.833-0.5,3.6-0.4
		c2.333,0.1,3.533,0.15,3.6,0.15c0.566-0.067,1.15-0.217,1.75-0.45l2.25-0.85c0.433-0.133,0.933-0.2,1.5-0.2l1.5,0.5
		c0.134,0.633,0.034,1.383-0.3,2.25c-0.333,0.867-0.733,1.5-1.2,1.9c-0.4,0.367-1.083,0.617-2.05,0.75c-0.9,0.133-1.533,0.4-1.9,0.8
		c-0.333,0.367-0.6,1.283-0.8,2.75c-0.233,1.566-0.483,2.583-0.75,3.05c-0.5,0.867-0.983,1.417-1.45,1.65
		c-0.4,0.2-1.083,0.317-2.05,0.35c-1.633,0.033-3-0.483-4.1-1.55C55.967,127.917,55.667,127.383,55.6,126.85z M64.45,150.3
		c-0.6,0.867-1.35,1.633-2.25,2.3c-0.934,0.667-1.817,1.1-2.65,1.3c-1.9,0.5-4.533,0.333-7.9-0.5c-0.433-1.033,0.05-1.717,1.45-2.05
		c1.767-0.167,2.917-0.317,3.45-0.45c0.434-0.1,1.034-0.167,1.8-0.2c0.8-0.034,1.383-0.083,1.75-0.15c0.233-0.066,0.566-0.233,1-0.5
		c0.433-0.3,0.767-0.483,1-0.55l2.45-1.05L65.6,148C65.4,148.767,65.017,149.533,64.45,150.3z M54.1,189.75l0.05-0.15
		c0.267-0.033,2.017,0.051,5.25,0.25c2.4,0.134,3.967-0.149,4.7-0.85l10-0.5l-1.3,0.7c-2.9,1.6-5,2.633-6.3,3.1
		c-2.4,0.834-4.75,1.033-7.05,0.601c-1.167-0.2-2.267-0.534-3.3-1C54.683,191.233,54,190.517,54.1,189.75z M58.9,208.25l0.1,0.25
		c0.533,2.333-1.133,3.333-5,3c-1.033-0.066-3.667-0.566-7.9-1.5c-0.367-0.066-0.9-0.167-1.6-0.3c-0.567-0.134-1.05-0.351-1.45-0.65
		c-0.167-0.133-0.417-0.467-0.75-1c-0.267-0.467-0.533-0.783-0.8-0.95c-0.433-0.267-1.25-0.55-2.45-0.85
		c-1-0.366-1.617-0.95-1.85-1.75c-0.567-1.733,0.65-2.733,3.65-3c3.467,0.066,5.517,0.05,6.15-0.05
		c0.133-0.667,0.183-1.134,0.15-1.4c1.533,0.667,4.017,0.8,7.45,0.4c-0.2-0.7-0.983-1.566-2.35-2.601c-1.3-0.966-2-1.899-2.1-2.8
		c1.067-0.1,2.434,0.2,4.1,0.9c2.067,0.866,3.383,1.35,3.95,1.45c0.633,0.133,1.45,0.183,2.45,0.149c1.1-0.033,1.917-0.05,2.45-0.05
		l2,2c-1.167,1.167-1.85,1.833-2.05,2c-0.733,0.566-1.566,0.917-2.5,1.05c-0.1,0-0.667-0.033-1.7-0.1
		c-0.833-0.101-1.383-0.05-1.65,0.149c-0.633,0.5-0.917,1.067-0.85,1.7c0.066,0.434,0.333,0.983,0.8,1.65
		C58.217,207.283,58.8,208.05,58.9,208.25z M66.45,182.45l0.15,0.05c-1.167,0.8-4.1,1.116-8.8,0.95c-5-0.167-7.583-1.134-7.75-2.9
		c-0.066-0.166-0.066-0.333,0-0.5c0.467,0.066,1.95,0.45,4.45,1.15c2.3,0.666,4.1,1.05,5.4,1.149c1.7,0.101,2.934-0.183,3.7-0.85
		L66.45,182.45z M45.55,218.25c0.633-0.134,1.434-0.15,2.4-0.05c0.933,0.1,2.216,0.35,3.85,0.75c1.8,0.399,2.867,0.633,3.2,0.7
		c1.633,0.233,3.333,0.35,5.1,0.35l0.5,0.5l1.05,1.05l0.95,0.95c-1.9,0.767-5.25,0.833-10.05,0.2c-5.267-0.7-7.783-2.117-7.55-4.25
		L45.55,218.25z M54.85,216c-1.8-0.1-2.967-0.2-3.5-0.3c-1.467-0.233-2.25-0.634-2.35-1.2c0.8-0.7,2.517-0.8,5.15-0.3
		c2.567,0.5,4.383,0.267,5.45-0.7l8,0.5l-1.95,1.05c-0.733,0.367-1.417,0.617-2.05,0.75c-0.7,0.167-1.583,0.233-2.65,0.2
		c-0.233,0-1.133,0.033-2.7,0.1c-1.1,0.034-2,0.017-2.7-0.05L54.85,216z M49.1,246.05l2,1.45c0.066,0.4,0.033,0.717-0.1,0.95
		c-2.3,0.333-4.6,0.333-6.9,0c-0.133-0.667-0.15-1.217-0.05-1.65c0.3-1.2,1.483-1.8,3.55-1.8L49.1,246.05z M62.6,255.5
		c0.4-0.1,0.733-0.267,1-0.5h5.75h2.25c0.2-0.167,0.467-0.316,0.801-0.45c0.533-0.166,1.199-0.2,2-0.1l1.149,0.149
		c0.4,1.5-0.083,2.95-1.45,4.351c-1.1,1.133-2.433,1.983-4,2.55c-1.434,0.533-3.383,0.833-5.85,0.9c-2.767,0.066-4.633-0.267-5.6-1
		c-0.033-0.767,0.517-1.301,1.65-1.601c0.534-0.166,1.417-0.3,2.65-0.399c-0.633-0.434-1.817-0.634-3.55-0.601
		c-0.933,0.033-2.183,0.101-3.75,0.2c-4.233,0-7.3-0.2-9.2-0.6c-1.867-0.367-4.083-1.384-6.65-3.051c-3.033-2-4.25-3.767-3.65-5.3
		c0.6-0.066,1.417,0.15,2.45,0.65c1.467,0.733,2.267,1.116,2.4,1.149c1.1,0.4,2.5,0.817,4.2,1.25c1.9,0.467,3.316,0.817,4.25,1.051
		c3,0.767,5.483,1.199,7.45,1.3l1.6,0.05c0.867,0.066,1.533,0.1,2,0.1C61.4,255.667,62.1,255.634,62.6,255.5z M55.3,133.5
		c0.567-0.533,1.333-0.7,2.3-0.5l1,2c-0.033,0.567-0.067,1.383-0.1,2.45c-2.233,0.6-3.483-0.1-3.75-2.1
		C54.65,134.583,54.833,133.967,55.3,133.5z M60.6,140.5l1,1.5c-1.167,0.967-2.467,1.4-3.9,1.3c-0.8-0.033-2.15-0.15-4.05-0.35
		c-0.167-0.767-0.167-1.55,0-2.35c0.934-0.133,2.083-0.184,3.45-0.15C58.667,140.483,59.833,140.5,60.6,140.5z M46.6,162.8l0.1-0.25
		c1.767,0.934,3.867,1.417,6.3,1.45c0.1,0,2.267-0.15,6.5-0.45l1.6-0.05l1.5,1c-0.733-0.1-1.684,0.1-2.85,0.6
		c-1.333,0.534-2.25,0.834-2.75,0.9c-0.567,0.066-1.3,0.1-2.2,0.1c-0.5-0.033-1.233-0.066-2.2-0.1c-1.2,0-2.45-0.233-3.75-0.7
		C47.117,164.667,46.367,163.833,46.6,162.8z M65.1,170.85c1.133-0.1,2.1-0.333,2.9-0.699c0.267-0.134,0.667-0.417,1.2-0.851
		c0.466-0.399,0.867-0.649,1.2-0.75l0.7-0.05l0.051,0.05L72.6,170c0.034,0.733-0.283,1.283-0.949,1.65
		c1.267,1.733,0.399,2.966-2.601,3.699c-1.733,0.434-3.867,0.65-6.4,0.65c-1.033,0-3.467,0.033-7.3,0.1
		c-3.467-0.233-5.5-1.066-6.1-2.5c1.767-0.3,4.033-0.383,6.8-0.25c-0.733-0.267-1.033-0.683-0.9-1.25
		c0.434,0.034,0.934-0.033,1.5-0.199c0.633-0.2,1.1-0.334,1.4-0.4c0.3-0.066,1.983-0.233,5.05-0.5L65.1,170.85z M61.5,281.45
		c-1.267-0.533-2.317-1.033-3.15-1.5l-0.1-0.05c0.567-0.4,1.283-0.5,2.15-0.301c0.367,0.101,1.133,0.384,2.3,0.851
		c0.867,0.333,1.5,0.533,1.9,0.6c0.9,0.101,2.066,0.117,3.5,0.05c2.133-0.066,3.3-0.1,3.5-0.1l0.601,0.05l2.7,0.25l2.199,0.2
		c-0.8,0.866-2.366,1.417-4.699,1.65c-1.934,0.199-3.7,0.166-5.3-0.101C65.167,282.684,63.3,282.15,61.5,281.45z M56.35,232.6
		l4.25-0.1l8.35-1.75c-0.567,0.167-1.817,0.8-3.75,1.9c-1.534,0.866-2.9,1.316-4.1,1.35H55c-4.267,0-6.533-0.017-6.8-0.05
		c-2.867-0.3-4.733-1.25-5.6-2.851c0.633-0.166,1.4-0.1,2.3,0.2c1.467,0.5,2.233,0.75,2.3,0.75c0.933,0.167,2.55,0.316,4.85,0.45
		C53.183,232.566,54.617,232.6,56.35,232.6z M44.15,242.35L44.6,243c0.133,0.4,0.066,0.733-0.2,1c-1.333-0.167-2.117-0.7-2.35-1.6
		c-0.1-0.434-0.066-0.867,0.1-1.301c0.3-0.166,0.617-0.199,0.95-0.1L44.15,242.35z M39.55,263.3c-0.9-0.566-1.55-1.25-1.95-2.05
		v-0.05h0.05l1.9,0.5c4.934,1.2,9.117,1.8,12.55,1.8l5,2c-1.267,0.866-3.233,1.134-5.9,0.8c-1-0.133-3-0.566-6-1.3
		c-0.6-0.134-1.567-0.333-2.9-0.6C41.167,264.1,40.25,263.733,39.55,263.3z M38.65,274.6c0.434-0.066,1.417-0.1,2.95-0.1
		c0.1,0.366,0.066,0.85-0.1,1.45c-0.367,0.066-0.833,0.017-1.4-0.15c-0.733-0.233-1.217-0.366-1.45-0.399
		C38.45,275.134,38.45,274.866,38.65,274.6z M52.6,292.5l2,1.5c-1.934,0-3.083-0.017-3.45-0.05c-0.133-0.467-0.133-0.917,0-1.351
		C51.75,292.467,52.233,292.434,52.6,292.5z"/>
</g>
</svg>
